<svg xmlns="http://www.w3.org/2000/svg" viewBox="0 0 768 512" width="768" height="512" font-family="Microsoft YaHei, SimHei, sans-serif">
  <rect width="768" height="512" fill="#FAFBFC"/>

  <!-- Title bar -->
  <rect x="24" y="18" width="720" height="42" rx="6" fill="#D4A017" opacity="0.1"/>
  <text x="384" y="46" text-anchor="middle" font-size="18" font-weight="700" fill="#B8860B">黄金四周连跌的真相：不是避险资产，是利率预期资产</text>

  <!-- Balance scale -->
  <!-- Stand -->
  <rect x="374" y="380" width="20" height="80" rx="3" fill="#475569"/>
  <rect x="340" y="450" width="88" height="14" rx="7" fill="#475569"/>

  <!-- Beam (tilted — right side heavier) -->
  <line x1="120" y1="120" x2="648" y2="200" stroke="#475569" stroke-width="5" stroke-linecap="round"/>
  <!-- Fulcrum -->
  <circle cx="384" cy="160" r="14" fill="#64748B"/>
  <circle cx="384" cy="160" r="8" fill="#94A3B8"/>

  <!-- Left pan — "避险需求" (lighter, higher) -->
  <line x1="180" y1="125" x2="180" y2="165" stroke="#475569" stroke-width="2"/>
  <path d="M120,165 Q180,200 240,165" fill="#FEF2F2" stroke="#DC2626" stroke-width="2"/>
  <text x="180" y="185" text-anchor="middle" font-size="13" font-weight="700" fill="#DC2626">地缘避险</text>
  <text x="180" y="203" text-anchor="middle" font-size="10" fill="#991B1B">伊朗空袭→金价？</text>
  <text x="180" y="219" text-anchor="middle" font-size="10" fill="#991B1B">没有涨</text>

  <!-- Right pan — "利率预期" (heavier, lower) -->
  <line x1="588" y1="195" x2="588" y2="235" stroke="#475569" stroke-width="2"/>
  <path d="M528,235 Q588,270 648,235" fill="#F0FDF4" stroke="#16A34A" stroke-width="2"/>
  <text x="588" y="255" text-anchor="middle" font-size="13" font-weight="700" fill="#16A34A">利率预期</text>
  <text x="588" y="273" text-anchor="middle" font-size="10" fill="#14532D">PCE 3.4%→加息↑</text>
  <text x="588" y="289" text-anchor="middle" font-size="10" fill="#14532D">→金价持续承压</text>

  <!-- Weight labels — showing why right is heavier -->
  <text x="528" y="220" font-size="9" fill="#94A3B8">1kg</text>
  <text x="160" y="150" font-size="9" fill="#94A3B8" transform="rotate(-7, 160, 150)">0.2kg</text>

  <!-- Gold price trajectory -->
  <rect x="48" y="320" width="670" height="68" rx="8" fill="#FFFBEB" stroke="#FDE68A" stroke-width="1.5"/>
  <text x="70" y="344" font-size="13" font-weight="700" fill="#92400E">金价走势：$4,483 → $4,088（四周连跌-9%）</text>

  <!-- Downward arrows -->
  <polyline points="90,375 170,375" stroke="#D4A017" stroke-width="10" stroke-linecap="round"/>
  <polyline points="210,375 290,375" stroke="#D4A017" stroke-width="10" stroke-linecap="round"/>
  <polyline points="330,375 410,375" stroke="#D4A017" stroke-width="10" stroke-linecap="round"/>
  <polyline points="450,375 530,375" stroke="#D4A017" stroke-width="10" stroke-linecap="round"/>

  <text x="130" y="368" text-anchor="middle" font-size="9" fill="#92400E">5月底</text>
  <text x="250" y="368" text-anchor="middle" font-size="9" fill="#92400E">PCE前</text>
  <text x="370" y="368" text-anchor="middle" font-size="9" fill="#92400E">PCE公布</text>
  <text x="490" y="368" text-anchor="middle" font-size="9" fill="#92400E">周末</text>
  <text x="130" y="388" text-anchor="middle" font-size="10" font-weight="700">$4,483</text>
  <text x="370" y="388" text-anchor="middle" font-size="10" font-weight="700">$4,050</text>
  <text x="490" y="388" text-anchor="middle" font-size="10" font-weight="700" fill="#DC2626">$4,088.87</text>

  <!-- Key insight bar -->
  <rect x="48" y="406" width="670" height="48" rx="6" fill="#FFFBEB" stroke="#D4A017" stroke-width="1.5"/>
  <text x="384" y="428" text-anchor="middle" font-size="14" font-weight="700" fill="#92400E">黄金的决定性力量不是地缘风险，是利率预期</text>
  <text x="384" y="446" text-anchor="middle" font-size="11" fill="#92400E">油价跌→通胀预期↓→金价周五反弹1.56% — 这条因果链清晰验证了黄金的"利率预期资产"本质</text>

  <!-- Brand line -->
  <line x1="24" y1="480" x2="744" y2="480" stroke="#D4A017" stroke-width="2" opacity="0.3"/>
  <text x="384" y="496" text-anchor="middle" font-size="9" fill="#94A3B8">扬说财经早报 · 2026.06.29</text>
</svg>