<svg xmlns="http://www.w3.org/2000/svg" viewBox="0 0 768 512" width="768" height="512" font-family="Microsoft YaHei, SimHei, sans-serif">
  <rect width="768" height="512" fill="#FAFBFC"/>
<text x="384" y="36" font-size="20" fill="#1A56DB" text-anchor="middle" font-weight="bold">美股：牛背上的狂欢，前方有悬崖</text>
<line x1="40" y1="360" x2="540" y2="360" stroke="#64748B" stroke-width="2"/>
<rect x="530" y="300" width="200" height="65" fill="#F1F5F9" stroke="#64748B" stroke-width="2"/>
<line x1="530" y1="300" x2="530" y2="200" stroke="#64748B" stroke-width="2.5"/>
<line x1="530" y1="200" x2="540" y2="300" stroke="#64748B" stroke-width="2"/>
<line x1="530" y1="220" x2="520" y2="230" stroke="#94A3B8" stroke-width="1.5"/>
<line x1="530" y1="250" x2="520" y2="260" stroke="#94A3B8" stroke-width="1.5"/>
<line x1="530" y1="280" x2="520" y2="290" stroke="#94A3B8" stroke-width="1.5"/>
<rect x="555" y="340" width="100" height="36" rx="4" fill="#FEF2F2" stroke="#DC2626" stroke-width="2"/>
<text x="605" y="363" font-size="13" fill="#DC2626" text-anchor="middle" font-weight="bold">FOMC 加息</text><ellipse cx="340" cy="330" rx="120" ry="50" fill="#FFF7ED" stroke="#D97706" stroke-width="3"/>
<ellipse cx="450" cy="300" rx="30" ry="25" fill="#FFF7ED" stroke="#D97706" stroke-width="3"/>
<path d="M455,278 Q465,255 475,260" fill="none" stroke="#D97706" stroke-width="3" stroke-linecap="round"/>
<path d="M445,278 Q435,255 425,260" fill="none" stroke="#D97706" stroke-width="3" stroke-linecap="round"/>
<circle cx="455" cy="295" r="3" fill="#D97706"/>
<line x1="270" y1="370" x2="270" y2="395" stroke="#D97706" stroke-width="3" stroke-linecap="round"/>
<line x1="300" y1="370" x2="300" y2="395" stroke="#D97706" stroke-width="3" stroke-linecap="round"/>
<line x1="380" y1="370" x2="380" y2="395" stroke="#D97706" stroke-width="3" stroke-linecap="round"/>
<line x1="410" y1="370" x2="410" y2="395" stroke="#D97706" stroke-width="3" stroke-linecap="round"/>
<circle cx="300" cy="262" r="8" fill="none" stroke="#1A56DB" stroke-width="2.5"/>
  <line x1="300" y1="270" x2="300" y2="286" stroke="#1A56DB" stroke-width="2.5" stroke-linecap="round"/>
  <line x1="300" y1="278" x2="286" y2="264" stroke="#1A56DB" stroke-width="2.5" stroke-linecap="round"/>
  <line x1="300" y1="278" x2="314" y2="264" stroke="#1A56DB" stroke-width="2.5" stroke-linecap="round"/>
  <line x1="300" y1="286" x2="290" y2="304" stroke="#1A56DB" stroke-width="2.5" stroke-linecap="round"/>
  <line x1="300" y1="286" x2="310" y2="304" stroke="#1A56DB" stroke-width="2.5" stroke-linecap="round"/><circle cx="340" cy="256" r="8" fill="none" stroke="#1A56DB" stroke-width="2.5"/>
  <line x1="340" y1="264" x2="340" y2="280" stroke="#1A56DB" stroke-width="2.5" stroke-linecap="round"/>
  <line x1="340" y1="272" x2="326" y2="258" stroke="#1A56DB" stroke-width="2.5" stroke-linecap="round"/>
  <line x1="340" y1="272" x2="354" y2="258" stroke="#1A56DB" stroke-width="2.5" stroke-linecap="round"/>
  <line x1="340" y1="280" x2="330" y2="298" stroke="#1A56DB" stroke-width="2.5" stroke-linecap="round"/>
  <line x1="340" y1="280" x2="350" y2="298" stroke="#1A56DB" stroke-width="2.5" stroke-linecap="round"/><circle cx="380" cy="260" r="8" fill="none" stroke="#1A56DB" stroke-width="2.5"/>
  <line x1="380" y1="268" x2="380" y2="284" stroke="#1A56DB" stroke-width="2.5" stroke-linecap="round"/>
  <line x1="380" y1="276" x2="366" y2="262" stroke="#1A56DB" stroke-width="2.5" stroke-linecap="round"/>
  <line x1="380" y1="276" x2="394" y2="262" stroke="#1A56DB" stroke-width="2.5" stroke-linecap="round"/>
  <line x1="380" y1="284" x2="370" y2="302" stroke="#1A56DB" stroke-width="2.5" stroke-linecap="round"/>
  <line x1="380" y1="284" x2="390" y2="302" stroke="#1A56DB" stroke-width="2.5" stroke-linecap="round"/><circle cx="420" cy="246" r="8" fill="none" stroke="#1A56DB" stroke-width="2.5"/>
  <line x1="420" y1="254" x2="420" y2="270" stroke="#1A56DB" stroke-width="2.5" stroke-linecap="round"/>
  <line x1="420" y1="262" x2="406" y2="248" stroke="#1A56DB" stroke-width="2.5" stroke-linecap="round"/>
  <line x1="420" y1="262" x2="434" y2="248" stroke="#1A56DB" stroke-width="2.5" stroke-linecap="round"/>
  <line x1="420" y1="270" x2="410" y2="288" stroke="#1A56DB" stroke-width="2.5" stroke-linecap="round"/>
  <line x1="420" y1="270" x2="430" y2="288" stroke="#1A56DB" stroke-width="2.5" stroke-linecap="round"/><text x="370" y="258" font-size="13" fill="#DC2626" text-anchor="middle" font-weight="bold">新高!</text><line x1="480" y1="360" x2="530" y2="360" stroke="#EF4444" stroke-width="1.5" stroke-dasharray="4,4"/>
<text x="384" y="430" font-size="14" fill="#475569" text-anchor="middle" font-weight="normal">最大的风险是「觉得自己没有风险」</text></svg>