<svg xmlns="http://www.w3.org/2000/svg" viewBox="0 0 768 512" width="768" height="512" font-family="Microsoft YaHei, SimHei, sans-serif">
  <rect width="768" height="512" fill="#FAFBFC"/>
<text x="384" y="36" font-size="20" fill="#1A56DB" text-anchor="middle" font-weight="bold">A股：一边热火朝天，一边关门歇业</text>
<rect x="60" y="100" width="180" height="120" rx="4" fill="#EBF5FF" stroke="#1A56DB" stroke-width="2.5"/>
<rect x="80" y="120" width="40" height="30" fill="#DBEAFE" stroke="#1A56DB" stroke-width="1.5"/>
<rect x="140" y="120" width="40" height="30" fill="#DBEAFE" stroke="#1A56DB" stroke-width="1.5"/>
<rect x="80" y="170" width="40" height="30" fill="#DBEAFE" stroke="#1A56DB" stroke-width="1.5"/>
<rect x="140" y="170" width="40" height="30" fill="#DBEAFE" stroke="#1A56DB" stroke-width="1.5"/>
<rect x="130" y="55" width="20" height="50" fill="#CBD5E1" stroke="#1A56DB" stroke-width="2"/>
<circle cx="140" cy="42" r="10" fill="none" stroke="#64748B" stroke-width="1.5"/>
<circle cx="155" cy="30" r="8" fill="none" stroke="#64748B" stroke-width="1.5"/>
<circle cx="148" cy="18" r="6" fill="none" stroke="#64748B" stroke-width="1.5"/>
<circle cx="240" cy="140" r="22" fill="none" stroke="#1A56DB" stroke-width="3" stroke-dasharray="8,5"/>
<circle cx="240" cy="140" r="6" fill="#1A56DB"/>
<circle cx="110" cy="218" r="8" fill="none" stroke="#1A56DB" stroke-width="2.5"/>
  <line x1="110" y1="226" x2="110" y2="240" stroke="#1A56DB" stroke-width="2.5" stroke-linecap="round"/>
  <line x1="110" y1="234" x2="98" y2="235" stroke="#1A56DB" stroke-width="2.5" stroke-linecap="round"/>
  <line x1="110" y1="234" x2="122" y2="235" stroke="#1A56DB" stroke-width="2.5" stroke-linecap="round"/>
  <line x1="110" y1="240" x2="100" y2="258" stroke="#1A56DB" stroke-width="2.5" stroke-linecap="round"/>
  <line x1="110" y1="240" x2="120" y2="258" stroke="#1A56DB" stroke-width="2.5" stroke-linecap="round"/><circle cx="170" cy="218" r="8" fill="none" stroke="#1A56DB" stroke-width="2.5"/>
  <line x1="170" y1="226" x2="170" y2="240" stroke="#1A56DB" stroke-width="2.5" stroke-linecap="round"/>
  <line x1="170" y1="234" x2="158" y2="235" stroke="#1A56DB" stroke-width="2.5" stroke-linecap="round"/>
  <line x1="170" y1="234" x2="182" y2="235" stroke="#1A56DB" stroke-width="2.5" stroke-linecap="round"/>
  <line x1="170" y1="240" x2="160" y2="258" stroke="#1A56DB" stroke-width="2.5" stroke-linecap="round"/>
  <line x1="170" y1="240" x2="180" y2="258" stroke="#1A56DB" stroke-width="2.5" stroke-linecap="round"/><text x="120" y="285" font-size="12" fill="#1A56DB" text-anchor="middle" font-weight="normal">制造业PMI 52↑</text><text x="105" y="74" font-size="13" fill="#DC2626" text-anchor="middle" font-weight="bold">生产火热</text><rect x="520" y="100" width="180" height="160" rx="4" fill="#FFF5F5" stroke="#EF4444" stroke-width="2.5"/>
<rect x="540" y="120" width="140" height="50" fill="#FEE2E2" stroke="#EF4444" stroke-width="1.5"/>
<line x1="550" y1="140" x2="670" y2="140" stroke="#EF4444" stroke-width="1.5"/>
<line x1="550" y1="155" x2="670" y2="155" stroke="#EF4444" stroke-width="1.5"/>
<line x1="550" y1="165" x2="670" y2="165" stroke="#EF4444" stroke-width="1.5"/>
<text x="610" y="145" font-size="22" fill="#DC2626" text-anchor="middle">✕</text>
<rect x="540" y="190" width="140" height="40" fill="#FEE2E2" stroke="#EF4444" stroke-width="1.5"/>
<line x1="610" y1="195" x2="610" y2="225" stroke="#EF4444" stroke-width="2"/>
<line x1="595" y1="210" x2="625" y2="210" stroke="#EF4444" stroke-width="2"/>
<text x="705" y="285" font-size="12" fill="#EF4444" text-anchor="middle" font-weight="normal">社零增速3%↓</text><text x="610" y="78" font-size="13" fill="#EF4444" text-anchor="middle" font-weight="bold">消费低迷</text><line x1="375" y1="80" x2="395" y2="280" stroke="#475569" stroke-width="4"/>
<line x1="375" y1="80" x2="370" y2="120" stroke="#475569" stroke-width="3"/>
<line x1="378" y1="110" x2="390" y2="95" stroke="#475569" stroke-width="2"/>
<line x1="378" y1="150" x2="390" y2="135" stroke="#475569" stroke-width="2"/>
<line x1="378" y1="190" x2="390" y2="175" stroke="#475569" stroke-width="2"/>
<line x1="378" y1="230" x2="390" y2="215" stroke="#475569" stroke-width="2"/>
<text x="384" y="320" font-size="14" fill="#475569" text-anchor="middle" font-weight="normal">结构性矛盾：生产强 + 消费弱 = 经济冷热不均</text></svg>