<?xml version="1.0" encoding="utf-8" standalone="no"?>
<!DOCTYPE svg PUBLIC "-//W3C//DTD SVG 1.1//EN"
  "http://www.w3.org/Graphics/SVG/1.1/DTD/svg11.dtd">
<svg xmlns:xlink="http://www.w3.org/1999/xlink" width="352.509531pt" height="201.985494pt" viewBox="0 0 352.509531 201.985494" xmlns="http://www.w3.org/2000/svg" version="1.1">
 <metadata>
  <rdf:RDF xmlns:dc="http://purl.org/dc/elements/1.1/" xmlns:cc="http://creativecommons.org/ns#" xmlns:rdf="http://www.w3.org/1999/02/22-rdf-syntax-ns#">
   <cc:Work>
    <dc:type rdf:resource="http://purl.org/dc/dcmitype/StillImage"/>
    <dc:date>2026-06-02T14:51:10.875227</dc:date>
    <dc:format>image/svg+xml</dc:format>
    <dc:creator>
     <cc:Agent>
      <dc:title>Matplotlib v3.10.9, https://matplotlib.org/</dc:title>
     </cc:Agent>
    </dc:creator>
   </cc:Work>
  </rdf:RDF>
 </metadata>
 <defs>
  <style type="text/css">*{stroke-linejoin: round; stroke-linecap: butt}</style>
 </defs>
 <g id="figure_1">
  <g id="patch_1">
   <path d="M -0 201.985494 
L 352.509531 201.985494 
L 352.509531 0 
L -0 0 
z
" style="fill: #f5f7fa"/>
  </g>
  <g id="axes_1">
   <g id="patch_2">
    <path d="M 42.119531 162.545212 
L 345.309531 162.545212 
L 345.309531 29.522812 
L 42.119531 29.522812 
z
" style="fill: #f5f7fa"/>
   </g>
   <g id="patch_3">
    <path d="M 55.900895 162.545212 
L 89.218477 162.545212 
L 89.218477 150.573196 
L 55.900895 150.573196 
z
" clip-path="url(#p5ef86bd7ed)" style="fill: #8b5cf6; stroke: #ffffff; stroke-width: 0.8; stroke-linejoin: miter"/>
   </g>
   <g id="patch_4">
    <path d="M 116.478317 162.545212 
L 149.7959 162.545212 
L 149.7959 137.270956 
L 116.478317 137.270956 
z
" clip-path="url(#p5ef86bd7ed)" style="fill: #8b5cf6; stroke: #ffffff; stroke-width: 0.8; stroke-linejoin: miter"/>
   </g>
   <g id="patch_5">
    <path d="M 177.05574 162.545212 
L 210.373322 162.545212 
L 210.373322 98.361904 
L 177.05574 98.361904 
z
" clip-path="url(#p5ef86bd7ed)" style="fill: #7c3aed; stroke: #ffffff; stroke-width: 0.8; stroke-linejoin: miter"/>
   </g>
   <g id="patch_6">
    <path d="M 237.633163 162.545212 
L 270.950745 162.545212 
L 270.950745 105.87767 
L 237.633163 105.87767 
z
" clip-path="url(#p5ef86bd7ed)" style="fill: #6366f1; stroke: #ffffff; stroke-width: 0.8; stroke-linejoin: miter"/>
   </g>
   <g id="patch_7">
    <path d="M 298.210585 162.545212 
L 331.528168 162.545212 
L 331.528168 46.150612 
L 298.210585 46.150612 
z
" clip-path="url(#p5ef86bd7ed)" style="fill: #8b5cf6; stroke: #ffffff; stroke-width: 0.8; stroke-linejoin: miter"/>
   </g>
   <g id="matplotlib.axis_1">
    <g id="xtick_1">
     <g id="line2d_1">
      <defs>
       <path id="m7a4778eb9b" d="M 0 0 
L 0 3.5 
" style="stroke: #64748b; stroke-width: 0.8"/>
      </defs>
      <g>
       <use xlink:href="#m7a4778eb9b" x="72.559686" y="162.545212" style="fill: #64748b; stroke: #64748b; stroke-width: 0.8"/>
      </g>
     </g>
     <g id="text_1">
      <!-- Anthropic -->
      <g style="fill: #64748b" transform="translate(57.439139 175.10365) scale(0.07 -0.07)">
       <defs>
        <path id="NotoSansSC-Thin-41" d="M 70 0 
L 1728 4646 
L 1939 4646 
L 3603 0 
L 3347 0 
L 2381 2784 
Q 2234 3206 2106 3587 
Q 1978 3968 1850 4403 
L 1824 4403 
Q 1696 3968 1565 3587 
Q 1434 3206 1286 2784 
L 307 0 
L 70 0 
z
M 787 1651 
L 787 1856 
L 2861 1856 
L 2861 1651 
L 787 1651 
z
" transform="scale(0.015625)"/>
        <path id="NotoSansSC-Thin-6e" d="M 672 0 
L 672 3373 
L 864 3373 
L 902 2835 
L 915 2835 
Q 1178 3098 1453 3277 
Q 1728 3456 2080 3456 
Q 2598 3456 2848 3139 
Q 3098 2822 3098 2170 
L 3098 0 
L 2867 0 
L 2867 2138 
Q 2867 2694 2678 2969 
Q 2490 3245 2054 3245 
Q 1741 3245 1481 3078 
Q 1222 2912 902 2579 
L 902 0 
L 672 0 
z
" transform="scale(0.015625)"/>
        <path id="NotoSansSC-Thin-74" d="M 1542 -83 
Q 1229 -83 1056 38 
Q 883 160 816 381 
Q 749 602 749 896 
L 749 3162 
L 211 3162 
L 211 3341 
L 749 3373 
L 774 4358 
L 973 4358 
L 973 3373 
L 1971 3373 
L 1971 3162 
L 973 3162 
L 973 864 
Q 973 538 1081 333 
Q 1190 128 1562 128 
Q 1658 128 1779 160 
Q 1901 192 1990 237 
L 2067 45 
Q 1920 -6 1776 -44 
Q 1632 -83 1542 -83 
z
" transform="scale(0.015625)"/>
        <path id="NotoSansSC-Thin-68" d="M 672 0 
L 672 5082 
L 902 5082 
L 902 3584 
L 902 2822 
Q 1171 3098 1449 3277 
Q 1728 3456 2080 3456 
Q 2598 3456 2848 3139 
Q 3098 2822 3098 2170 
L 3098 0 
L 2867 0 
L 2867 2138 
Q 2867 2694 2678 2969 
Q 2490 3245 2054 3245 
Q 1741 3245 1481 3078 
Q 1222 2912 902 2579 
L 902 0 
L 672 0 
z
" transform="scale(0.015625)"/>
        <path id="NotoSansSC-Thin-72" d="M 672 0 
L 672 3373 
L 864 3373 
L 902 2739 
L 915 2739 
Q 1082 3046 1325 3251 
Q 1568 3456 1869 3456 
Q 1958 3456 2035 3443 
Q 2112 3430 2195 3386 
L 2138 3174 
Q 2054 3206 1996 3219 
Q 1939 3232 1837 3232 
Q 1613 3232 1357 3030 
Q 1101 2829 902 2330 
L 902 0 
L 672 0 
z
" transform="scale(0.015625)"/>
        <path id="NotoSansSC-Thin-6f" d="M 1875 -83 
Q 1472 -83 1129 125 
Q 787 333 582 726 
Q 378 1120 378 1677 
Q 378 2246 582 2643 
Q 787 3040 1129 3248 
Q 1472 3456 1875 3456 
Q 2176 3456 2448 3337 
Q 2720 3219 2928 2992 
Q 3136 2765 3254 2432 
Q 3373 2099 3373 1677 
Q 3373 1120 3165 726 
Q 2957 333 2617 125 
Q 2278 -83 1875 -83 
z
M 1875 128 
Q 2234 128 2518 323 
Q 2803 518 2969 867 
Q 3136 1216 3136 1677 
Q 3136 2144 2969 2496 
Q 2803 2848 2518 3046 
Q 2234 3245 1875 3245 
Q 1517 3245 1232 3046 
Q 947 2848 784 2496 
Q 621 2144 621 1677 
Q 621 1216 784 867 
Q 947 518 1232 323 
Q 1517 128 1875 128 
z
" transform="scale(0.015625)"/>
        <path id="NotoSansSC-Thin-70" d="M 672 -1555 
L 672 3373 
L 864 3373 
L 902 2938 
L 915 2938 
Q 1165 3136 1462 3296 
Q 1760 3456 2074 3456 
Q 2534 3456 2835 3241 
Q 3136 3027 3283 2643 
Q 3430 2259 3430 1734 
Q 3430 1165 3222 755 
Q 3014 346 2675 131 
Q 2336 -83 1933 -83 
Q 1696 -83 1433 29 
Q 1171 141 902 339 
L 902 -294 
L 902 -1555 
L 672 -1555 
z
M 1952 128 
Q 2310 128 2588 333 
Q 2867 538 3027 902 
Q 3187 1267 3187 1734 
Q 3187 2163 3075 2505 
Q 2963 2848 2716 3046 
Q 2470 3245 2054 3245 
Q 1798 3245 1510 3094 
Q 1222 2944 902 2662 
L 902 582 
Q 1203 333 1478 230 
Q 1754 128 1952 128 
z
" transform="scale(0.015625)"/>
        <path id="NotoSansSC-Thin-69" d="M 672 0 
L 672 3373 
L 902 3373 
L 902 0 
L 672 0 
z
M 794 4224 
Q 691 4224 627 4294 
Q 563 4365 563 4486 
Q 563 4595 627 4662 
Q 691 4730 794 4730 
Q 890 4730 957 4662 
Q 1024 4595 1024 4486 
Q 1024 4365 957 4294 
Q 890 4224 794 4224 
z
" transform="scale(0.015625)"/>
        <path id="NotoSansSC-Thin-63" d="M 1888 -83 
Q 1459 -83 1116 125 
Q 774 333 576 726 
Q 378 1120 378 1677 
Q 378 2246 589 2643 
Q 800 3040 1145 3248 
Q 1491 3456 1894 3456 
Q 2240 3456 2477 3325 
Q 2714 3194 2880 3034 
L 2733 2867 
Q 2566 3027 2361 3136 
Q 2157 3245 1894 3245 
Q 1536 3245 1248 3046 
Q 960 2848 790 2496 
Q 621 2144 621 1677 
Q 621 1216 781 867 
Q 941 518 1225 323 
Q 1510 128 1894 128 
Q 2176 128 2413 246 
Q 2650 365 2829 531 
L 2963 365 
Q 2752 179 2483 48 
Q 2214 -83 1888 -83 
z
" transform="scale(0.015625)"/>
       </defs>
       <use xlink:href="#NotoSansSC-Thin-41"/>
       <use xlink:href="#NotoSansSC-Thin-6e" transform="translate(57.399994 0)"/>
       <use xlink:href="#NotoSansSC-Thin-74" transform="translate(115.399979 0)"/>
       <use xlink:href="#NotoSansSC-Thin-68" transform="translate(148.799973 0)"/>
       <use xlink:href="#NotoSansSC-Thin-72" transform="translate(206.299957 0)"/>
       <use xlink:href="#NotoSansSC-Thin-6f" transform="translate(240.199951 0)"/>
       <use xlink:href="#NotoSansSC-Thin-70" transform="translate(298.799942 0)"/>
       <use xlink:href="#NotoSansSC-Thin-69" transform="translate(358.299927 0)"/>
       <use xlink:href="#NotoSansSC-Thin-63" transform="translate(382.799911 0)"/>
      </g>
      <!-- (2024) -->
      <g style="fill: #64748b" transform="translate(63.173124 183.474556) scale(0.07 -0.07)">
       <defs>
        <path id="NotoSansSC-Thin-28" d="M 1562 -1222 
Q 1133 -525 883 252 
Q 634 1030 634 1958 
Q 634 2886 883 3667 
Q 1133 4448 1562 5146 
L 1696 5056 
Q 1274 4390 1059 3596 
Q 845 2803 845 1958 
Q 845 1114 1059 320 
Q 1274 -474 1696 -1139 
L 1562 -1222 
z
" transform="scale(0.015625)"/>
        <path id="NotoSansSC-Thin-32" d="M 294 0 
L 294 147 
Q 1120 858 1613 1434 
Q 2106 2010 2323 2499 
Q 2541 2989 2541 3424 
Q 2541 3725 2435 3974 
Q 2330 4224 2106 4371 
Q 1882 4518 1523 4518 
Q 1210 4518 931 4352 
Q 653 4186 442 3923 
L 282 4070 
Q 525 4346 829 4538 
Q 1133 4730 1542 4730 
Q 1939 4730 2214 4566 
Q 2490 4403 2637 4112 
Q 2784 3821 2784 3424 
Q 2784 2918 2537 2406 
Q 2291 1894 1820 1347 
Q 1350 800 678 179 
Q 870 192 1062 201 
Q 1254 211 1440 211 
L 3014 211 
L 3014 0 
L 294 0 
z
" transform="scale(0.015625)"/>
        <path id="NotoSansSC-Thin-30" d="M 1670 -83 
Q 1261 -83 963 179 
Q 666 442 509 979 
Q 352 1517 352 2336 
Q 352 3149 509 3677 
Q 666 4205 963 4467 
Q 1261 4730 1670 4730 
Q 2080 4730 2371 4467 
Q 2662 4205 2822 3677 
Q 2982 3149 2982 2336 
Q 2982 1517 2822 979 
Q 2662 442 2371 179 
Q 2080 -83 1670 -83 
z
M 1670 128 
Q 1997 128 2240 384 
Q 2483 640 2614 1133 
Q 2746 1626 2746 2336 
Q 2746 3040 2614 3529 
Q 2483 4019 2240 4272 
Q 1997 4525 1670 4525 
Q 1344 4525 1101 4272 
Q 858 4019 723 3529 
Q 589 3040 589 2336 
Q 589 1626 723 1133 
Q 858 640 1101 384 
Q 1344 128 1670 128 
z
" transform="scale(0.015625)"/>
        <path id="NotoSansSC-Thin-34" d="M 2195 0 
L 2195 3482 
Q 2195 3629 2204 3843 
Q 2214 4058 2227 4205 
L 2195 4205 
Q 2112 4058 2019 3901 
Q 1926 3744 1830 3590 
L 422 1568 
L 3110 1568 
L 3110 1363 
L 115 1363 
L 115 1485 
L 2259 4646 
L 2419 4646 
L 2419 0 
L 2195 0 
z
" transform="scale(0.015625)"/>
        <path id="NotoSansSC-Thin-29" d="M 352 -1222 
L 211 -1139 
Q 634 -474 851 320 
Q 1069 1114 1069 1958 
Q 1069 2803 851 3596 
Q 634 4390 211 5056 
L 352 5146 
Q 787 4448 1033 3667 
Q 1280 2886 1280 1958 
Q 1280 1030 1033 252 
Q 787 -525 352 -1222 
z
" transform="scale(0.015625)"/>
       </defs>
       <use xlink:href="#NotoSansSC-Thin-28"/>
       <use xlink:href="#NotoSansSC-Thin-32" transform="translate(29.899994 0)"/>
       <use xlink:href="#NotoSansSC-Thin-30" transform="translate(81.999985 0)"/>
       <use xlink:href="#NotoSansSC-Thin-32" transform="translate(134.099976 0)"/>
       <use xlink:href="#NotoSansSC-Thin-34" transform="translate(186.199966 0)"/>
       <use xlink:href="#NotoSansSC-Thin-29" transform="translate(238.299957 0)"/>
      </g>
     </g>
    </g>
    <g id="xtick_2">
     <g id="line2d_2">
      <g>
       <use xlink:href="#m7a4778eb9b" x="133.137109" y="162.545212" style="fill: #64748b; stroke: #64748b; stroke-width: 0.8"/>
      </g>
     </g>
     <g id="text_2">
      <!-- Anthropic -->
      <g style="fill: #64748b" transform="translate(118.016562 175.10365) scale(0.07 -0.07)">
       <use xlink:href="#NotoSansSC-Thin-41"/>
       <use xlink:href="#NotoSansSC-Thin-6e" transform="translate(57.399994 0)"/>
       <use xlink:href="#NotoSansSC-Thin-74" transform="translate(115.399979 0)"/>
       <use xlink:href="#NotoSansSC-Thin-68" transform="translate(148.799973 0)"/>
       <use xlink:href="#NotoSansSC-Thin-72" transform="translate(206.299957 0)"/>
       <use xlink:href="#NotoSansSC-Thin-6f" transform="translate(240.199951 0)"/>
       <use xlink:href="#NotoSansSC-Thin-70" transform="translate(298.799942 0)"/>
       <use xlink:href="#NotoSansSC-Thin-69" transform="translate(358.299927 0)"/>
       <use xlink:href="#NotoSansSC-Thin-63" transform="translate(382.799911 0)"/>
      </g>
      <!-- (2025) -->
      <g style="fill: #64748b" transform="translate(123.750546 183.474556) scale(0.07 -0.07)">
       <defs>
        <path id="NotoSansSC-Thin-35" d="M 1581 -83 
Q 1222 -83 963 9 
Q 704 102 515 240 
Q 326 378 186 518 
L 333 691 
Q 467 550 636 422 
Q 806 294 1040 211 
Q 1274 128 1594 128 
Q 1901 128 2166 294 
Q 2432 461 2592 765 
Q 2752 1069 2752 1466 
Q 2752 2061 2441 2406 
Q 2131 2752 1606 2752 
Q 1350 2752 1152 2665 
Q 954 2579 755 2445 
L 563 2560 
L 730 4646 
L 2758 4646 
L 2758 4435 
L 941 4435 
L 787 2726 
Q 966 2835 1168 2902 
Q 1370 2970 1626 2970 
Q 2010 2970 2320 2813 
Q 2630 2656 2812 2326 
Q 2995 1997 2995 1478 
Q 2995 979 2787 630 
Q 2579 282 2256 99 
Q 1933 -83 1581 -83 
z
" transform="scale(0.015625)"/>
       </defs>
       <use xlink:href="#NotoSansSC-Thin-28"/>
       <use xlink:href="#NotoSansSC-Thin-32" transform="translate(29.899994 0)"/>
       <use xlink:href="#NotoSansSC-Thin-30" transform="translate(81.999985 0)"/>
       <use xlink:href="#NotoSansSC-Thin-32" transform="translate(134.099976 0)"/>
       <use xlink:href="#NotoSansSC-Thin-35" transform="translate(186.199966 0)"/>
       <use xlink:href="#NotoSansSC-Thin-29" transform="translate(238.299957 0)"/>
      </g>
     </g>
    </g>
    <g id="xtick_3">
     <g id="line2d_3">
      <g>
       <use xlink:href="#m7a4778eb9b" x="193.714531" y="162.545212" style="fill: #64748b; stroke: #64748b; stroke-width: 0.8"/>
      </g>
     </g>
     <g id="text_3">
      <!-- Anthropic -->
      <g style="fill: #64748b" transform="translate(178.593984 175.10365) scale(0.07 -0.07)">
       <use xlink:href="#NotoSansSC-Thin-41"/>
       <use xlink:href="#NotoSansSC-Thin-6e" transform="translate(57.399994 0)"/>
       <use xlink:href="#NotoSansSC-Thin-74" transform="translate(115.399979 0)"/>
       <use xlink:href="#NotoSansSC-Thin-68" transform="translate(148.799973 0)"/>
       <use xlink:href="#NotoSansSC-Thin-72" transform="translate(206.299957 0)"/>
       <use xlink:href="#NotoSansSC-Thin-6f" transform="translate(240.199951 0)"/>
       <use xlink:href="#NotoSansSC-Thin-70" transform="translate(298.799942 0)"/>
       <use xlink:href="#NotoSansSC-Thin-69" transform="translate(358.299927 0)"/>
       <use xlink:href="#NotoSansSC-Thin-63" transform="translate(382.799911 0)"/>
      </g>
      <!-- (今夏IPO) -->
      <g style="fill: #64748b" transform="translate(179.129375 183.474556) scale(0.07 -0.07)">
       <defs>
        <path id="NotoSansSC-Thin-4eca" d="M 1075 2118 
L 5146 2118 
L 5146 1933 
L 1075 1933 
L 1075 2118 
z
M 2554 3578 
L 2707 3680 
Q 2925 3526 3155 3337 
Q 3386 3149 3594 2966 
Q 3802 2784 3930 2637 
L 3770 2509 
Q 3642 2656 3440 2841 
Q 3238 3027 3004 3222 
Q 2771 3418 2554 3578 
z
M 3283 5146 
Q 3526 4819 3862 4489 
Q 4198 4160 4582 3859 
Q 4966 3558 5360 3312 
Q 5754 3066 6112 2906 
Q 6086 2886 6060 2857 
Q 6035 2829 6009 2800 
Q 5984 2771 5965 2746 
Q 5613 2918 5219 3174 
Q 4826 3430 4438 3740 
Q 4051 4051 3708 4390 
Q 3366 4730 3117 5062 
L 3283 5146 
z
M 3258 5331 
L 3418 5254 
Q 3091 4768 2614 4297 
Q 2138 3827 1578 3427 
Q 1018 3027 429 2739 
Q 403 2771 364 2809 
Q 326 2848 288 2874 
Q 883 3149 1440 3545 
Q 1997 3942 2467 4403 
Q 2938 4864 3258 5331 
z
M 5107 2118 
L 5152 2118 
L 5190 2138 
L 5325 2061 
Q 5139 1824 4889 1517 
Q 4640 1210 4361 867 
Q 4083 525 3801 185 
Q 3520 -154 3264 -454 
L 3085 -371 
Q 3347 -70 3632 269 
Q 3917 608 4192 944 
Q 4467 1280 4704 1577 
Q 4941 1875 5107 2086 
L 5107 2118 
z
" transform="scale(0.015625)"/>
        <path id="NotoSansSC-Thin-590f" d="M 518 4986 
L 5882 4986 
L 5882 4800 
L 518 4800 
L 518 4986 
z
M 1997 1472 
Q 2349 966 2969 608 
Q 3590 250 4406 32 
Q 5222 -186 6144 -269 
Q 6112 -307 6077 -361 
Q 6042 -416 6016 -461 
Q 5107 -365 4288 -134 
Q 3469 96 2829 473 
Q 2189 851 1818 1389 
L 1997 1472 
z
M 4838 1587 
L 4890 1587 
L 4928 1600 
L 5050 1504 
Q 4730 1062 4205 726 
Q 3680 390 3040 156 
Q 2400 -77 1718 -227 
Q 1037 -378 390 -454 
Q 384 -410 355 -355 
Q 326 -301 301 -262 
Q 928 -205 1600 -64 
Q 2272 77 2899 297 
Q 3526 518 4032 832 
Q 4538 1146 4838 1549 
L 4838 1587 
z
M 2464 2093 
L 2694 2048 
Q 2362 1645 1811 1248 
Q 1261 851 499 550 
Q 486 576 460 601 
Q 435 627 409 652 
Q 384 678 358 691 
Q 1101 973 1645 1353 
Q 2189 1734 2464 2093 
z
M 3098 4909 
L 3296 4858 
Q 3232 4672 3161 4483 
Q 3091 4294 3027 4154 
L 2861 4198 
Q 2925 4346 2992 4550 
Q 3059 4755 3098 4909 
z
M 1389 3437 
L 1389 2925 
L 5005 2925 
L 5005 3437 
L 1389 3437 
z
M 1389 2733 
L 1389 2214 
L 5005 2214 
L 5005 2733 
L 1389 2733 
z
M 1389 4128 
L 1389 3629 
L 5005 3629 
L 5005 4128 
L 1389 4128 
z
M 1197 4314 
L 5197 4314 
L 5197 2029 
L 1197 2029 
L 1197 4314 
z
M 2067 1587 
L 4864 1587 
L 4864 1402 
L 1894 1402 
L 2067 1587 
z
" transform="scale(0.015625)"/>
        <path id="NotoSansSC-Thin-49" d="M 704 0 
L 704 4646 
L 941 4646 
L 941 0 
L 704 0 
z
" transform="scale(0.015625)"/>
        <path id="NotoSansSC-Thin-50" d="M 704 0 
L 704 4646 
L 1824 4646 
Q 2355 4646 2726 4521 
Q 3098 4397 3293 4121 
Q 3488 3846 3488 3379 
Q 3488 2931 3296 2636 
Q 3104 2342 2739 2195 
Q 2374 2048 1850 2048 
L 941 2048 
L 941 0 
L 704 0 
z
M 941 2259 
L 1766 2259 
Q 2509 2259 2870 2518 
Q 3232 2778 3232 3379 
Q 3232 3987 2864 4211 
Q 2496 4435 1741 4435 
L 941 4435 
L 941 2259 
z
" transform="scale(0.015625)"/>
        <path id="NotoSansSC-Thin-4f" d="M 2285 -83 
Q 1734 -83 1308 217 
Q 883 518 640 1062 
Q 397 1606 397 2336 
Q 397 3072 640 3606 
Q 883 4141 1308 4435 
Q 1734 4730 2285 4730 
Q 2835 4730 3260 4435 
Q 3686 4141 3929 3606 
Q 4173 3072 4173 2336 
Q 4173 1606 3929 1062 
Q 3686 518 3260 217 
Q 2835 -83 2285 -83 
z
M 2285 141 
Q 2778 141 3146 413 
Q 3514 685 3718 1177 
Q 3923 1670 3923 2336 
Q 3923 3002 3718 3488 
Q 3514 3974 3146 4240 
Q 2778 4506 2285 4506 
Q 1798 4506 1427 4240 
Q 1056 3974 851 3488 
Q 646 3002 646 2336 
Q 646 1670 851 1177 
Q 1056 685 1427 413 
Q 1798 141 2285 141 
z
" transform="scale(0.015625)"/>
       </defs>
       <use xlink:href="#NotoSansSC-Thin-28"/>
       <use xlink:href="#NotoSansSC-Thin-4eca" transform="translate(29.899994 0)"/>
       <use xlink:href="#NotoSansSC-Thin-590f" transform="translate(129.899979 0)"/>
       <use xlink:href="#NotoSansSC-Thin-49" transform="translate(229.899963 0)"/>
       <use xlink:href="#NotoSansSC-Thin-50" transform="translate(255.59996 0)"/>
       <use xlink:href="#NotoSansSC-Thin-4f" transform="translate(315.399948 0)"/>
       <use xlink:href="#NotoSansSC-Thin-29" transform="translate(386.799942 0)"/>
      </g>
     </g>
    </g>
    <g id="xtick_4">
     <g id="line2d_4">
      <g>
       <use xlink:href="#m7a4778eb9b" x="254.291954" y="162.545212" style="fill: #64748b; stroke: #64748b; stroke-width: 0.8"/>
      </g>
     </g>
     <g id="text_4">
      <!-- OpenAI -->
      <g style="fill: #64748b" transform="translate(242.926798 175.10365) scale(0.07 -0.07)">
       <defs>
        <path id="NotoSansSC-Thin-65" d="M 1920 -83 
Q 1498 -83 1146 128 
Q 794 339 586 732 
Q 378 1126 378 1677 
Q 378 2093 496 2419 
Q 614 2746 822 2979 
Q 1030 3213 1289 3334 
Q 1549 3456 1830 3456 
Q 2221 3456 2505 3277 
Q 2790 3098 2947 2749 
Q 3104 2400 3104 1901 
Q 3104 1850 3104 1795 
Q 3104 1741 3091 1670 
L 621 1670 
Q 621 1229 784 880 
Q 947 531 1241 329 
Q 1536 128 1933 128 
Q 2221 128 2445 211 
Q 2669 294 2861 435 
L 2963 237 
Q 2771 122 2534 19 
Q 2298 -83 1920 -83 
z
M 621 1882 
L 2880 1882 
Q 2880 2566 2592 2905 
Q 2304 3245 1830 3245 
Q 1530 3245 1267 3081 
Q 1005 2918 832 2614 
Q 659 2310 621 1882 
z
" transform="scale(0.015625)"/>
       </defs>
       <use xlink:href="#NotoSansSC-Thin-4f"/>
       <use xlink:href="#NotoSansSC-Thin-70" transform="translate(71.399994 0)"/>
       <use xlink:href="#NotoSansSC-Thin-65" transform="translate(130.899979 0)"/>
       <use xlink:href="#NotoSansSC-Thin-6e" transform="translate(183.599976 0)"/>
       <use xlink:href="#NotoSansSC-Thin-41" transform="translate(241.59996 0)"/>
       <use xlink:href="#NotoSansSC-Thin-49" transform="translate(298.999954 0)"/>
      </g>
      <!-- (今夏) -->
      <g style="fill: #64748b" transform="translate(245.198516 183.474556) scale(0.07 -0.07)">
       <use xlink:href="#NotoSansSC-Thin-28"/>
       <use xlink:href="#NotoSansSC-Thin-4eca" transform="translate(29.899994 0)"/>
       <use xlink:href="#NotoSansSC-Thin-590f" transform="translate(129.899979 0)"/>
       <use xlink:href="#NotoSansSC-Thin-29" transform="translate(229.899963 0)"/>
      </g>
     </g>
    </g>
    <g id="xtick_5">
     <g id="line2d_5">
      <g>
       <use xlink:href="#m7a4778eb9b" x="314.869376" y="162.545212" style="fill: #64748b; stroke: #64748b; stroke-width: 0.8"/>
      </g>
     </g>
     <g id="text_5">
      <!-- SpaceX -->
      <g style="fill: #64748b" transform="translate(303.535939 175.10365) scale(0.07 -0.07)">
       <defs>
        <path id="NotoSansSC-Thin-53" d="M 1888 -83 
Q 1376 -83 989 115 
Q 602 314 339 621 
L 499 787 
Q 755 493 1113 317 
Q 1472 141 1888 141 
Q 2445 141 2774 416 
Q 3104 691 3104 1126 
Q 3104 1440 2985 1625 
Q 2867 1811 2675 1929 
Q 2483 2048 2246 2150 
L 1536 2470 
Q 1338 2560 1117 2694 
Q 896 2829 742 3049 
Q 589 3270 589 3610 
Q 589 3949 761 4198 
Q 934 4448 1232 4589 
Q 1530 4730 1907 4730 
Q 2330 4730 2653 4566 
Q 2976 4403 3174 4179 
L 3027 4019 
Q 2829 4237 2547 4371 
Q 2266 4506 1907 4506 
Q 1421 4506 1126 4269 
Q 832 4032 832 3635 
Q 832 3347 966 3164 
Q 1101 2982 1293 2876 
Q 1485 2771 1645 2694 
L 2355 2374 
Q 2618 2259 2842 2108 
Q 3066 1958 3203 1731 
Q 3341 1504 3341 1146 
Q 3341 794 3161 515 
Q 2982 237 2656 77 
Q 2330 -83 1888 -83 
z
" transform="scale(0.015625)"/>
        <path id="NotoSansSC-Thin-61" d="M 1395 -83 
Q 1133 -83 912 13 
Q 691 109 556 310 
Q 422 512 422 832 
Q 422 1395 953 1686 
Q 1485 1978 2624 2106 
Q 2637 2381 2576 2640 
Q 2515 2899 2336 3072 
Q 2157 3245 1805 3245 
Q 1446 3245 1158 3104 
Q 870 2963 704 2835 
L 589 3021 
Q 698 3098 880 3200 
Q 1062 3302 1302 3379 
Q 1542 3456 1818 3456 
Q 2214 3456 2441 3280 
Q 2669 3104 2761 2816 
Q 2854 2528 2854 2182 
L 2854 0 
L 2662 0 
L 2630 448 
L 2611 448 
Q 2355 237 2044 77 
Q 1734 -83 1395 -83 
z
M 1414 128 
Q 1715 128 2003 272 
Q 2291 416 2624 698 
L 2624 1907 
Q 1894 1830 1462 1686 
Q 1030 1542 844 1334 
Q 659 1126 659 838 
Q 659 448 883 288 
Q 1107 128 1414 128 
z
" transform="scale(0.015625)"/>
        <path id="NotoSansSC-Thin-58" d="M 128 0 
L 1536 2406 
L 224 4646 
L 486 4646 
L 1286 3226 
Q 1382 3066 1465 2928 
Q 1549 2790 1670 2598 
L 1696 2598 
Q 1805 2790 1878 2928 
Q 1952 3066 2048 3226 
L 2861 4646 
L 3104 4646 
L 1792 2394 
L 3200 0 
L 2944 0 
L 2093 1485 
Q 1997 1651 1888 1830 
Q 1779 2010 1651 2221 
L 1626 2221 
Q 1510 2010 1411 1830 
Q 1312 1651 1216 1485 
L 371 0 
L 128 0 
z
" transform="scale(0.015625)"/>
       </defs>
       <use xlink:href="#NotoSansSC-Thin-53"/>
       <use xlink:href="#NotoSansSC-Thin-70" transform="translate(56.899994 0)"/>
       <use xlink:href="#NotoSansSC-Thin-61" transform="translate(116.399979 0)"/>
       <use xlink:href="#NotoSansSC-Thin-63" transform="translate(169.999969 0)"/>
       <use xlink:href="#NotoSansSC-Thin-65" transform="translate(219.199966 0)"/>
       <use xlink:href="#NotoSansSC-Thin-58" transform="translate(271.899963 0)"/>
      </g>
      <!-- (今夏) -->
      <g style="fill: #64748b" transform="translate(305.775939 183.474556) scale(0.07 -0.07)">
       <use xlink:href="#NotoSansSC-Thin-28"/>
       <use xlink:href="#NotoSansSC-Thin-4eca" transform="translate(29.899994 0)"/>
       <use xlink:href="#NotoSansSC-Thin-590f" transform="translate(129.899979 0)"/>
       <use xlink:href="#NotoSansSC-Thin-29" transform="translate(229.899963 0)"/>
      </g>
     </g>
    </g>
   </g>
   <g id="matplotlib.axis_2">
    <g id="ytick_1">
     <g id="line2d_6">
      <path d="M 42.119531 162.545212 
L 345.309531 162.545212 
" clip-path="url(#p5ef86bd7ed)" style="fill: none; stroke: #64748b; stroke-opacity: 0.15; stroke-width: 0.8; stroke-linecap: square"/>
     </g>
     <g id="line2d_7">
      <defs>
       <path id="md2237bfa5b" d="M 0 0 
L -3.5 0 
" style="stroke: #64748b; stroke-width: 0.8"/>
      </defs>
      <g>
       <use xlink:href="#md2237bfa5b" x="42.119531" y="162.545212" style="fill: #64748b; stroke: #64748b; stroke-width: 0.8"/>
      </g>
     </g>
     <g id="text_6">
      <!-- 0 -->
      <g style="fill: #64748b" transform="translate(31.472969 165.324431) scale(0.07 -0.07)">
       <use xlink:href="#NotoSansSC-Thin-30"/>
      </g>
     </g>
    </g>
    <g id="ytick_2">
     <g id="line2d_8">
      <path d="M 42.119531 145.917412 
L 345.309531 145.917412 
" clip-path="url(#p5ef86bd7ed)" style="fill: none; stroke: #64748b; stroke-opacity: 0.15; stroke-width: 0.8; stroke-linecap: square"/>
     </g>
     <g id="line2d_9">
      <g>
       <use xlink:href="#md2237bfa5b" x="42.119531" y="145.917412" style="fill: #64748b; stroke: #64748b; stroke-width: 0.8"/>
      </g>
     </g>
     <g id="text_7">
      <!-- 250 -->
      <g style="fill: #64748b" transform="translate(24.179844 148.696631) scale(0.07 -0.07)">
       <use xlink:href="#NotoSansSC-Thin-32"/>
       <use xlink:href="#NotoSansSC-Thin-35" transform="translate(52.099991 0)"/>
       <use xlink:href="#NotoSansSC-Thin-30" transform="translate(104.199982 0)"/>
      </g>
     </g>
    </g>
    <g id="ytick_3">
     <g id="line2d_10">
      <path d="M 42.119531 129.289612 
L 345.309531 129.289612 
" clip-path="url(#p5ef86bd7ed)" style="fill: none; stroke: #64748b; stroke-opacity: 0.15; stroke-width: 0.8; stroke-linecap: square"/>
     </g>
     <g id="line2d_11">
      <g>
       <use xlink:href="#md2237bfa5b" x="42.119531" y="129.289612" style="fill: #64748b; stroke: #64748b; stroke-width: 0.8"/>
      </g>
     </g>
     <g id="text_8">
      <!-- 500 -->
      <g style="fill: #64748b" transform="translate(24.179844 132.068831) scale(0.07 -0.07)">
       <use xlink:href="#NotoSansSC-Thin-35"/>
       <use xlink:href="#NotoSansSC-Thin-30" transform="translate(52.099991 0)"/>
       <use xlink:href="#NotoSansSC-Thin-30" transform="translate(104.199982 0)"/>
      </g>
     </g>
    </g>
    <g id="ytick_4">
     <g id="line2d_12">
      <path d="M 42.119531 112.661812 
L 345.309531 112.661812 
" clip-path="url(#p5ef86bd7ed)" style="fill: none; stroke: #64748b; stroke-opacity: 0.15; stroke-width: 0.8; stroke-linecap: square"/>
     </g>
     <g id="line2d_13">
      <g>
       <use xlink:href="#md2237bfa5b" x="42.119531" y="112.661812" style="fill: #64748b; stroke: #64748b; stroke-width: 0.8"/>
      </g>
     </g>
     <g id="text_9">
      <!-- 750 -->
      <g style="fill: #64748b" transform="translate(24.179844 115.441031) scale(0.07 -0.07)">
       <defs>
        <path id="NotoSansSC-Thin-37" d="M 1344 0 
Q 1376 717 1462 1318 
Q 1549 1920 1712 2445 
Q 1875 2970 2124 3459 
Q 2374 3949 2726 4435 
L 307 4435 
L 307 4646 
L 3034 4646 
L 3034 4512 
Q 2624 3955 2355 3436 
Q 2086 2918 1932 2384 
Q 1779 1850 1705 1267 
Q 1632 685 1606 0 
L 1344 0 
z
" transform="scale(0.015625)"/>
       </defs>
       <use xlink:href="#NotoSansSC-Thin-37"/>
       <use xlink:href="#NotoSansSC-Thin-35" transform="translate(52.099991 0)"/>
       <use xlink:href="#NotoSansSC-Thin-30" transform="translate(104.199982 0)"/>
      </g>
     </g>
    </g>
    <g id="ytick_5">
     <g id="line2d_14">
      <path d="M 42.119531 96.034012 
L 345.309531 96.034012 
" clip-path="url(#p5ef86bd7ed)" style="fill: none; stroke: #64748b; stroke-opacity: 0.15; stroke-width: 0.8; stroke-linecap: square"/>
     </g>
     <g id="line2d_15">
      <g>
       <use xlink:href="#md2237bfa5b" x="42.119531" y="96.034012" style="fill: #64748b; stroke: #64748b; stroke-width: 0.8"/>
      </g>
     </g>
     <g id="text_10">
      <!-- 1000 -->
      <g style="fill: #64748b" transform="translate(20.533281 98.813231) scale(0.07 -0.07)">
       <defs>
        <path id="NotoSansSC-Thin-31" d="M 608 0 
L 608 211 
L 1677 211 
L 1677 4211 
L 864 4211 
L 864 4378 
Q 1133 4422 1344 4492 
Q 1555 4563 1702 4646 
L 1901 4646 
L 1901 211 
L 2899 211 
L 2899 0 
L 608 0 
z
" transform="scale(0.015625)"/>
       </defs>
       <use xlink:href="#NotoSansSC-Thin-31"/>
       <use xlink:href="#NotoSansSC-Thin-30" transform="translate(52.099991 0)"/>
       <use xlink:href="#NotoSansSC-Thin-30" transform="translate(104.199982 0)"/>
       <use xlink:href="#NotoSansSC-Thin-30" transform="translate(156.299973 0)"/>
      </g>
     </g>
    </g>
    <g id="ytick_6">
     <g id="line2d_16">
      <path d="M 42.119531 79.406212 
L 345.309531 79.406212 
" clip-path="url(#p5ef86bd7ed)" style="fill: none; stroke: #64748b; stroke-opacity: 0.15; stroke-width: 0.8; stroke-linecap: square"/>
     </g>
     <g id="line2d_17">
      <g>
       <use xlink:href="#md2237bfa5b" x="42.119531" y="79.406212" style="fill: #64748b; stroke: #64748b; stroke-width: 0.8"/>
      </g>
     </g>
     <g id="text_11">
      <!-- 1250 -->
      <g style="fill: #64748b" transform="translate(20.533281 82.185431) scale(0.07 -0.07)">
       <use xlink:href="#NotoSansSC-Thin-31"/>
       <use xlink:href="#NotoSansSC-Thin-32" transform="translate(52.099991 0)"/>
       <use xlink:href="#NotoSansSC-Thin-35" transform="translate(104.199982 0)"/>
       <use xlink:href="#NotoSansSC-Thin-30" transform="translate(156.299973 0)"/>
      </g>
     </g>
    </g>
    <g id="ytick_7">
     <g id="line2d_18">
      <path d="M 42.119531 62.778412 
L 345.309531 62.778412 
" clip-path="url(#p5ef86bd7ed)" style="fill: none; stroke: #64748b; stroke-opacity: 0.15; stroke-width: 0.8; stroke-linecap: square"/>
     </g>
     <g id="line2d_19">
      <g>
       <use xlink:href="#md2237bfa5b" x="42.119531" y="62.778412" style="fill: #64748b; stroke: #64748b; stroke-width: 0.8"/>
      </g>
     </g>
     <g id="text_12">
      <!-- 1500 -->
      <g style="fill: #64748b" transform="translate(20.533281 65.557631) scale(0.07 -0.07)">
       <use xlink:href="#NotoSansSC-Thin-31"/>
       <use xlink:href="#NotoSansSC-Thin-35" transform="translate(52.099991 0)"/>
       <use xlink:href="#NotoSansSC-Thin-30" transform="translate(104.199982 0)"/>
       <use xlink:href="#NotoSansSC-Thin-30" transform="translate(156.299973 0)"/>
      </g>
     </g>
    </g>
    <g id="ytick_8">
     <g id="line2d_20">
      <path d="M 42.119531 46.150612 
L 345.309531 46.150612 
" clip-path="url(#p5ef86bd7ed)" style="fill: none; stroke: #64748b; stroke-opacity: 0.15; stroke-width: 0.8; stroke-linecap: square"/>
     </g>
     <g id="line2d_21">
      <g>
       <use xlink:href="#md2237bfa5b" x="42.119531" y="46.150612" style="fill: #64748b; stroke: #64748b; stroke-width: 0.8"/>
      </g>
     </g>
     <g id="text_13">
      <!-- 1750 -->
      <g style="fill: #64748b" transform="translate(20.533281 48.929831) scale(0.07 -0.07)">
       <use xlink:href="#NotoSansSC-Thin-31"/>
       <use xlink:href="#NotoSansSC-Thin-37" transform="translate(52.099991 0)"/>
       <use xlink:href="#NotoSansSC-Thin-35" transform="translate(104.199982 0)"/>
       <use xlink:href="#NotoSansSC-Thin-30" transform="translate(156.299973 0)"/>
      </g>
     </g>
    </g>
    <g id="ytick_9">
     <g id="line2d_22">
      <path d="M 42.119531 29.522812 
L 345.309531 29.522812 
" clip-path="url(#p5ef86bd7ed)" style="fill: none; stroke: #64748b; stroke-opacity: 0.15; stroke-width: 0.8; stroke-linecap: square"/>
     </g>
     <g id="line2d_23">
      <g>
       <use xlink:href="#md2237bfa5b" x="42.119531" y="29.522812" style="fill: #64748b; stroke: #64748b; stroke-width: 0.8"/>
      </g>
     </g>
     <g id="text_14">
      <!-- 2000 -->
      <g style="fill: #64748b" transform="translate(20.533281 32.302031) scale(0.07 -0.07)">
       <use xlink:href="#NotoSansSC-Thin-32"/>
       <use xlink:href="#NotoSansSC-Thin-30" transform="translate(52.099991 0)"/>
       <use xlink:href="#NotoSansSC-Thin-30" transform="translate(104.199982 0)"/>
       <use xlink:href="#NotoSansSC-Thin-30" transform="translate(156.299973 0)"/>
      </g>
     </g>
    </g>
    <g id="text_15">
     <!-- 估值（十亿美元） -->
     <g style="fill: #64748b" transform="translate(14.346563 132.034012) rotate(-90) scale(0.09 -0.09)">
      <defs>
       <path id="NotoSansSC-Thin-4f30" d="M 1862 5293 
L 2048 5242 
Q 1837 4704 1555 4192 
Q 1274 3680 950 3235 
Q 627 2790 282 2438 
Q 269 2458 246 2486 
Q 224 2515 198 2547 
Q 173 2579 147 2592 
Q 493 2925 809 3357 
Q 1126 3789 1398 4285 
Q 1670 4781 1862 5293 
z
M 1152 3763 
L 1325 3942 
L 1338 3936 
L 1338 -435 
L 1152 -435 
L 1152 3763 
z
M 2490 2118 
L 5658 2118 
L 5658 -422 
L 5472 -422 
L 5472 1933 
L 2682 1933 
L 2682 -448 
L 2490 -448 
L 2490 2118 
z
M 3955 5312 
L 4141 5312 
L 4141 2010 
L 3955 2010 
L 3955 5312 
z
M 2048 3814 
L 6086 3814 
L 6086 3629 
L 2048 3629 
L 2048 3814 
z
M 2579 19 
L 5574 19 
L 5574 -166 
L 2579 -166 
L 2579 19 
z
" transform="scale(0.015625)"/>
       <path id="NotoSansSC-Thin-503c" d="M 2074 4589 
L 5830 4589 
L 5830 4397 
L 2074 4397 
L 2074 4589 
z
M 1805 -13 
L 6074 -13 
L 6074 -198 
L 1805 -198 
L 1805 -13 
z
M 2477 3642 
L 5414 3642 
L 5414 -128 
L 5229 -128 
L 5229 3450 
L 2669 3450 
L 2669 -128 
L 2477 -128 
L 2477 3642 
z
M 2573 2720 
L 5312 2720 
L 5312 2534 
L 2573 2534 
L 2573 2720 
z
M 2566 1798 
L 5338 1798 
L 5338 1613 
L 2566 1613 
L 2566 1798 
z
M 2586 870 
L 5325 870 
L 5325 685 
L 2586 685 
L 2586 870 
z
M 3917 5325 
L 4128 5286 
Q 4077 5018 4009 4701 
Q 3942 4384 3875 4086 
Q 3808 3789 3738 3571 
L 3565 3610 
Q 3629 3827 3696 4134 
Q 3763 4442 3824 4758 
Q 3885 5075 3917 5325 
z
M 1862 5318 
L 2048 5267 
Q 1850 4730 1594 4221 
Q 1338 3712 1040 3267 
Q 742 2822 416 2464 
Q 403 2483 377 2512 
Q 352 2541 326 2569 
Q 301 2598 275 2618 
Q 595 2950 886 3382 
Q 1178 3814 1430 4310 
Q 1683 4806 1862 5318 
z
M 1152 3744 
L 1325 3923 
L 1338 3917 
L 1338 -454 
L 1152 -454 
L 1152 3744 
z
" transform="scale(0.015625)"/>
       <path id="NotoSansSC-Thin-ff08" d="M 4653 2432 
Q 4653 3002 4797 3523 
Q 4941 4045 5229 4528 
Q 5517 5011 5939 5446 
L 6099 5325 
Q 5683 4909 5408 4438 
Q 5133 3968 4995 3465 
Q 4858 2963 4858 2432 
Q 4858 1907 4995 1401 
Q 5133 896 5408 429 
Q 5683 -38 6099 -461 
L 5939 -582 
Q 5517 -141 5229 339 
Q 4941 819 4797 1344 
Q 4653 1869 4653 2432 
z
" transform="scale(0.015625)"/>
       <path id="NotoSansSC-Thin-5341" d="M 397 2835 
L 6048 2835 
L 6048 2650 
L 397 2650 
L 397 2835 
z
M 3110 5306 
L 3302 5306 
L 3302 -448 
L 3110 -448 
L 3110 5306 
z
" transform="scale(0.015625)"/>
       <path id="NotoSansSC-Thin-4ebf" d="M 2515 4525 
L 5568 4525 
L 5568 4333 
L 2515 4333 
L 2515 4525 
z
M 5555 4525 
L 5581 4525 
L 5632 4538 
L 5766 4474 
Q 5760 4461 5744 4448 
Q 5728 4435 5715 4422 
Q 4986 3616 4470 3024 
Q 3955 2432 3612 2019 
Q 3270 1606 3072 1337 
Q 2874 1069 2778 902 
Q 2682 736 2653 637 
Q 2624 538 2624 467 
Q 2624 288 2803 208 
Q 2982 128 3245 128 
L 5229 122 
Q 5408 122 5497 230 
Q 5587 339 5622 640 
Q 5658 941 5677 1510 
Q 5709 1485 5769 1469 
Q 5830 1453 5869 1446 
Q 5850 960 5814 659 
Q 5779 358 5715 201 
Q 5651 45 5536 -9 
Q 5421 -64 5235 -64 
L 3283 -64 
Q 2854 -64 2643 70 
Q 2432 205 2432 461 
Q 2432 544 2457 653 
Q 2483 762 2579 934 
Q 2675 1107 2873 1388 
Q 3072 1670 3414 2089 
Q 3757 2509 4281 3107 
Q 4806 3706 5555 4525 
z
M 2003 5306 
L 2182 5254 
Q 1971 4717 1692 4205 
Q 1414 3693 1091 3248 
Q 768 2803 422 2451 
Q 410 2470 384 2499 
Q 358 2528 332 2560 
Q 307 2592 282 2605 
Q 627 2938 944 3370 
Q 1261 3802 1533 4298 
Q 1805 4794 2003 5306 
z
M 1370 3930 
L 1542 4102 
L 1555 4096 
L 1555 -429 
L 1370 -429 
L 1370 3930 
z
" transform="scale(0.015625)"/>
       <path id="NotoSansSC-Thin-7f8e" d="M 659 4314 
L 5747 4314 
L 5747 4128 
L 659 4128 
L 659 4314 
z
M 998 3405 
L 5434 3405 
L 5434 3219 
L 998 3219 
L 998 3405 
z
M 538 1626 
L 5990 1626 
L 5990 1440 
L 538 1440 
L 538 1626 
z
M 403 2470 
L 6022 2470 
L 6022 2285 
L 403 2285 
L 403 2470 
z
M 3091 4250 
L 3283 4250 
L 3283 2387 
L 3091 2387 
L 3091 4250 
z
M 1517 5235 
L 1677 5318 
Q 1869 5120 2048 4873 
Q 2227 4627 2310 4442 
L 2138 4346 
Q 2054 4538 1878 4787 
Q 1702 5037 1517 5235 
z
M 4666 5318 
L 4838 5216 
Q 4678 4954 4473 4656 
Q 4269 4358 4096 4154 
L 3962 4243 
Q 4077 4384 4208 4576 
Q 4339 4768 4460 4963 
Q 4582 5158 4666 5318 
z
M 3110 2426 
L 3309 2426 
Q 3251 1946 3145 1549 
Q 3040 1152 2845 835 
Q 2650 518 2333 275 
Q 2016 32 1552 -141 
Q 1088 -314 442 -422 
Q 435 -403 416 -371 
Q 397 -339 377 -307 
Q 358 -275 339 -256 
Q 979 -154 1433 12 
Q 1888 179 2192 409 
Q 2496 640 2681 937 
Q 2867 1235 2966 1606 
Q 3066 1978 3110 2426 
z
M 3328 1581 
Q 3642 832 4349 381 
Q 5056 -70 6029 -237 
Q 6010 -256 5984 -288 
Q 5958 -320 5936 -352 
Q 5914 -384 5901 -416 
Q 5254 -282 4710 -29 
Q 4166 224 3766 611 
Q 3366 998 3142 1517 
L 3328 1581 
z
" transform="scale(0.015625)"/>
       <path id="NotoSansSC-Thin-5143" d="M 3872 2835 
L 4058 2835 
L 4058 109 
Q 4058 -45 4128 -93 
Q 4198 -141 4416 -141 
Q 4467 -141 4611 -141 
Q 4755 -141 4934 -141 
Q 5114 -141 5267 -141 
Q 5421 -141 5498 -141 
Q 5651 -141 5728 -51 
Q 5805 38 5833 300 
Q 5862 563 5869 1082 
Q 5901 1062 5933 1040 
Q 5965 1018 6000 1005 
Q 6035 992 6061 979 
Q 6048 461 6003 176 
Q 5958 -109 5846 -221 
Q 5734 -333 5498 -333 
Q 5459 -333 5302 -333 
Q 5146 -333 4957 -333 
Q 4768 -333 4614 -333 
Q 4461 -333 4422 -333 
Q 4211 -333 4089 -297 
Q 3968 -262 3920 -166 
Q 3872 -70 3872 109 
L 3872 2835 
z
M 422 2918 
L 5984 2918 
L 5984 2726 
L 422 2726 
L 422 2918 
z
M 960 4768 
L 5485 4768 
L 5485 4582 
L 960 4582 
L 960 4768 
z
M 2234 2784 
L 2426 2784 
Q 2381 2240 2285 1750 
Q 2189 1261 1987 845 
Q 1786 429 1437 102 
Q 1088 -224 544 -435 
Q 531 -410 489 -371 
Q 448 -333 416 -307 
Q 947 -102 1283 211 
Q 1619 525 1814 928 
Q 2010 1331 2102 1801 
Q 2195 2272 2234 2784 
z
" transform="scale(0.015625)"/>
       <path id="NotoSansSC-Thin-ff09" d="M 1747 2432 
Q 1747 1869 1603 1344 
Q 1459 819 1171 339 
Q 883 -141 461 -582 
L 301 -461 
Q 717 -38 992 429 
Q 1267 896 1404 1401 
Q 1542 1907 1542 2432 
Q 1542 2963 1404 3465 
Q 1267 3968 992 4438 
Q 717 4909 301 5325 
L 461 5446 
Q 883 5011 1171 4528 
Q 1459 4045 1603 3523 
Q 1747 3002 1747 2432 
z
" transform="scale(0.015625)"/>
      </defs>
      <use xlink:href="#NotoSansSC-Thin-4f30"/>
      <use xlink:href="#NotoSansSC-Thin-503c" transform="translate(99.999985 0)"/>
      <use xlink:href="#NotoSansSC-Thin-ff08" transform="translate(199.999969 0)"/>
      <use xlink:href="#NotoSansSC-Thin-5341" transform="translate(299.999954 0)"/>
      <use xlink:href="#NotoSansSC-Thin-4ebf" transform="translate(399.999939 0)"/>
      <use xlink:href="#NotoSansSC-Thin-7f8e" transform="translate(499.999924 0)"/>
      <use xlink:href="#NotoSansSC-Thin-5143" transform="translate(599.999908 0)"/>
      <use xlink:href="#NotoSansSC-Thin-ff09" transform="translate(699.999893 0)"/>
     </g>
    </g>
   </g>
   <g id="patch_8">
    <path d="M 42.119531 162.545212 
L 42.119531 29.522812 
" style="fill: none; stroke: #e2e8f0; stroke-width: 0.8; stroke-linejoin: miter; stroke-linecap: square"/>
   </g>
   <g id="patch_9">
    <path d="M 42.119531 162.545212 
L 345.309531 162.545212 
" style="fill: none; stroke: #e2e8f0; stroke-width: 0.8; stroke-linejoin: miter; stroke-linecap: square"/>
   </g>
   <g id="text_16">
    <!-- $180B -->
    <g style="fill: #1e293b" transform="translate(60.33867 146.723698) scale(0.09 -0.09)">
     <defs>
      <path id="NotoSansSC-Thin-24" d="M 1715 -83 
Q 1446 -83 1206 0 
Q 966 83 771 208 
Q 576 333 435 467 
L 570 634 
Q 762 454 1053 291 
Q 1344 128 1715 128 
Q 2182 128 2425 381 
Q 2669 634 2669 1037 
Q 2669 1350 2557 1561 
Q 2445 1773 2262 1917 
Q 2080 2061 1862 2173 
Q 1645 2285 1427 2393 
Q 1210 2502 1027 2646 
Q 845 2790 733 2998 
Q 621 3206 621 3514 
Q 621 3827 768 4070 
Q 915 4314 1164 4451 
Q 1414 4589 1722 4589 
Q 2118 4589 2355 4445 
Q 2592 4301 2784 4096 
L 2637 3949 
Q 2438 4154 2243 4266 
Q 2048 4378 1709 4378 
Q 1331 4378 1094 4134 
Q 858 3891 858 3533 
Q 858 3251 970 3068 
Q 1082 2886 1264 2758 
Q 1446 2630 1664 2524 
Q 1882 2419 2099 2304 
Q 2317 2189 2499 2032 
Q 2682 1875 2794 1638 
Q 2906 1402 2906 1050 
Q 2906 698 2746 445 
Q 2586 192 2317 54 
Q 2048 -83 1715 -83 
z
M 1606 -774 
L 1606 -51 
L 1824 -51 
L 1824 -774 
L 1606 -774 
z
M 1606 4461 
L 1606 5280 
L 1824 5280 
L 1824 4461 
L 1606 4461 
z
" transform="scale(0.015625)"/>
      <path id="NotoSansSC-Thin-38" d="M 1696 -83 
Q 1286 -83 966 80 
Q 646 243 464 521 
Q 282 800 282 1152 
Q 282 1478 422 1744 
Q 563 2010 774 2202 
Q 986 2394 1197 2509 
L 1197 2534 
Q 954 2694 752 2953 
Q 550 3213 550 3578 
Q 550 3910 704 4163 
Q 858 4416 1117 4560 
Q 1376 4704 1696 4704 
Q 2080 4704 2345 4544 
Q 2611 4384 2752 4112 
Q 2893 3840 2893 3494 
Q 2893 3238 2784 3008 
Q 2675 2778 2528 2602 
Q 2381 2426 2253 2317 
L 2253 2285 
Q 2445 2170 2627 2010 
Q 2810 1850 2925 1626 
Q 3040 1402 3040 1082 
Q 3040 762 2870 496 
Q 2701 230 2400 73 
Q 2099 -83 1696 -83 
z
M 2035 2387 
Q 2336 2630 2499 2905 
Q 2662 3181 2662 3494 
Q 2662 3763 2550 3990 
Q 2438 4218 2220 4358 
Q 2003 4499 1696 4499 
Q 1293 4499 1040 4236 
Q 787 3974 787 3578 
Q 787 3238 972 3017 
Q 1158 2797 1446 2653 
Q 1734 2509 2035 2387 
z
M 1696 128 
Q 2035 128 2281 256 
Q 2528 384 2662 601 
Q 2797 819 2797 1082 
Q 2797 1370 2675 1574 
Q 2554 1779 2352 1923 
Q 2150 2067 1894 2182 
Q 1638 2298 1370 2400 
Q 998 2189 758 1875 
Q 518 1562 518 1152 
Q 518 870 668 636 
Q 819 403 1088 265 
Q 1357 128 1696 128 
z
" transform="scale(0.015625)"/>
      <path id="NotoSansSC-Thin-42" d="M 704 0 
L 704 4646 
L 1920 4646 
Q 2387 4646 2723 4524 
Q 3059 4403 3244 4153 
Q 3430 3904 3430 3520 
Q 3430 3277 3347 3072 
Q 3264 2867 3104 2723 
Q 2944 2579 2701 2509 
L 2701 2477 
Q 3162 2406 3443 2121 
Q 3725 1837 3725 1350 
Q 3725 909 3513 608 
Q 3302 307 2918 153 
Q 2534 0 2003 0 
L 704 0 
z
M 941 2586 
L 1779 2586 
Q 2541 2586 2864 2832 
Q 3187 3078 3187 3507 
Q 3187 4019 2841 4230 
Q 2496 4442 1824 4442 
L 941 4442 
L 941 2586 
z
M 941 211 
L 1920 211 
Q 2643 211 3065 483 
Q 3488 755 3488 1338 
Q 3488 1869 3075 2121 
Q 2662 2374 1920 2374 
L 941 2374 
L 941 211 
z
" transform="scale(0.015625)"/>
     </defs>
     <use xlink:href="#NotoSansSC-Thin-24"/>
     <use xlink:href="#NotoSansSC-Thin-31" transform="translate(52.099991 0)"/>
     <use xlink:href="#NotoSansSC-Thin-38" transform="translate(104.199982 0)"/>
     <use xlink:href="#NotoSansSC-Thin-30" transform="translate(156.299973 0)"/>
     <use xlink:href="#NotoSansSC-Thin-42" transform="translate(208.399963 0)"/>
    </g>
   </g>
   <g id="text_17">
    <!-- $380B -->
    <g style="fill: #1e293b" transform="translate(120.916093 133.421458) scale(0.09 -0.09)">
     <defs>
      <path id="NotoSansSC-Thin-33" d="M 1619 -83 
Q 1261 -83 998 13 
Q 736 109 544 256 
Q 352 403 211 550 
L 358 717 
Q 563 499 857 313 
Q 1152 128 1632 128 
Q 1952 128 2198 262 
Q 2445 397 2585 640 
Q 2726 883 2726 1210 
Q 2726 1542 2560 1795 
Q 2394 2048 2038 2189 
Q 1683 2330 1114 2330 
L 1114 2554 
Q 1651 2554 1964 2698 
Q 2278 2842 2416 3088 
Q 2554 3334 2554 3629 
Q 2554 4026 2298 4272 
Q 2042 4518 1606 4518 
Q 1293 4518 1017 4374 
Q 742 4230 557 4026 
L 410 4192 
Q 634 4410 925 4570 
Q 1216 4730 1606 4730 
Q 1939 4730 2211 4598 
Q 2483 4467 2643 4224 
Q 2803 3981 2803 3642 
Q 2803 3168 2550 2877 
Q 2298 2586 1926 2464 
L 1926 2438 
Q 2208 2381 2445 2221 
Q 2682 2061 2826 1808 
Q 2970 1555 2970 1222 
Q 2970 826 2790 531 
Q 2611 237 2307 77 
Q 2003 -83 1619 -83 
z
" transform="scale(0.015625)"/>
     </defs>
     <use xlink:href="#NotoSansSC-Thin-24"/>
     <use xlink:href="#NotoSansSC-Thin-33" transform="translate(52.099991 0)"/>
     <use xlink:href="#NotoSansSC-Thin-38" transform="translate(104.199982 0)"/>
     <use xlink:href="#NotoSansSC-Thin-30" transform="translate(156.299973 0)"/>
     <use xlink:href="#NotoSansSC-Thin-42" transform="translate(208.399963 0)"/>
    </g>
   </g>
   <g id="text_18">
    <!-- $965B -->
    <g style="fill: #1e293b" transform="translate(181.493516 94.512406) scale(0.09 -0.09)">
     <defs>
      <path id="NotoSansSC-Thin-39" d="M 1370 -83 
Q 1050 -83 819 32 
Q 589 147 410 339 
L 557 506 
Q 723 314 934 221 
Q 1146 128 1389 128 
Q 1651 128 1891 256 
Q 2131 384 2316 675 
Q 2502 966 2611 1443 
Q 2720 1920 2720 2618 
Q 2720 3168 2592 3600 
Q 2464 4032 2195 4278 
Q 1926 4525 1498 4525 
Q 1229 4525 1014 4355 
Q 800 4186 675 3901 
Q 550 3616 550 3264 
Q 550 2912 652 2627 
Q 755 2342 979 2172 
Q 1203 2003 1555 2003 
Q 1830 2003 2137 2182 
Q 2445 2362 2739 2765 
L 2746 2470 
Q 2586 2278 2397 2128 
Q 2208 1978 1993 1891 
Q 1779 1805 1536 1805 
Q 1152 1805 877 1974 
Q 602 2144 454 2470 
Q 307 2797 307 3264 
Q 307 3686 473 4019 
Q 640 4352 912 4541 
Q 1184 4730 1510 4730 
Q 1850 4730 2118 4589 
Q 2387 4448 2572 4176 
Q 2758 3904 2857 3513 
Q 2957 3123 2957 2618 
Q 2957 1862 2825 1344 
Q 2694 826 2470 512 
Q 2246 198 1961 57 
Q 1677 -83 1370 -83 
z
" transform="scale(0.015625)"/>
      <path id="NotoSansSC-Thin-36" d="M 1837 -83 
Q 1498 -83 1232 67 
Q 966 218 780 509 
Q 595 800 496 1216 
Q 397 1632 397 2170 
Q 397 2886 528 3379 
Q 659 3872 889 4169 
Q 1120 4467 1414 4598 
Q 1709 4730 2029 4730 
Q 2330 4730 2550 4614 
Q 2771 4499 2944 4307 
L 2790 4147 
Q 2643 4333 2444 4425 
Q 2246 4518 2022 4518 
Q 1651 4518 1334 4297 
Q 1018 4077 826 3561 
Q 634 3046 634 2170 
Q 634 1581 762 1120 
Q 890 659 1158 393 
Q 1427 128 1850 128 
Q 2125 128 2336 297 
Q 2547 467 2672 752 
Q 2797 1037 2797 1382 
Q 2797 1741 2694 2025 
Q 2592 2310 2368 2476 
Q 2144 2643 1779 2643 
Q 1523 2643 1209 2470 
Q 896 2298 602 1888 
L 602 2176 
Q 768 2381 957 2531 
Q 1146 2682 1360 2762 
Q 1574 2842 1792 2842 
Q 2189 2842 2467 2675 
Q 2746 2509 2893 2185 
Q 3040 1862 3040 1382 
Q 3040 960 2873 630 
Q 2707 301 2435 109 
Q 2163 -83 1837 -83 
z
" transform="scale(0.015625)"/>
     </defs>
     <use xlink:href="#NotoSansSC-Thin-24"/>
     <use xlink:href="#NotoSansSC-Thin-39" transform="translate(52.099991 0)"/>
     <use xlink:href="#NotoSansSC-Thin-36" transform="translate(104.199982 0)"/>
     <use xlink:href="#NotoSansSC-Thin-35" transform="translate(156.299973 0)"/>
     <use xlink:href="#NotoSansSC-Thin-42" transform="translate(208.399963 0)"/>
    </g>
   </g>
   <g id="text_19">
    <!-- $852B -->
    <g style="fill: #1e293b" transform="translate(242.070938 102.028171) scale(0.09 -0.09)">
     <use xlink:href="#NotoSansSC-Thin-24"/>
     <use xlink:href="#NotoSansSC-Thin-38" transform="translate(52.099991 0)"/>
     <use xlink:href="#NotoSansSC-Thin-35" transform="translate(104.199982 0)"/>
     <use xlink:href="#NotoSansSC-Thin-32" transform="translate(156.299973 0)"/>
     <use xlink:href="#NotoSansSC-Thin-42" transform="translate(208.399963 0)"/>
    </g>
   </g>
   <g id="text_20">
    <!-- $1750B -->
    <g style="fill: #1e293b" transform="translate(300.304142 42.301114) scale(0.09 -0.09)">
     <use xlink:href="#NotoSansSC-Thin-24"/>
     <use xlink:href="#NotoSansSC-Thin-31" transform="translate(52.099991 0)"/>
     <use xlink:href="#NotoSansSC-Thin-37" transform="translate(104.199982 0)"/>
     <use xlink:href="#NotoSansSC-Thin-35" transform="translate(156.299973 0)"/>
     <use xlink:href="#NotoSansSC-Thin-30" transform="translate(208.399963 0)"/>
     <use xlink:href="#NotoSansSC-Thin-42" transform="translate(260.499954 0)"/>
    </g>
   </g>
   <g id="patch_10">
    <path d="M 157.011801 84.550911 
Q 174.42902 91.104895 190.276637 97.068248 
" style="fill: none; stroke: #8b5cf6; stroke-width: 1.5; stroke-linecap: round"/>
    <path d="M 187.845154 94.443768 
L 190.276637 97.068248 
L 186.718164 97.438746 
" style="fill: none; stroke: #8b5cf6; stroke-width: 1.5; stroke-linecap: round"/>
   </g>
   <g id="text_21">
    <!-- 近万亿估值 -->
    <g style="fill: #8b5cf6" transform="translate(113.137109 72.811022) scale(0.08 -0.08)">
     <defs>
      <path id="NotoSansSC-Thin-8fd1" d="M 2829 3334 
L 6054 3334 
L 6054 3142 
L 2829 3142 
L 2829 3334 
z
M 4570 3226 
L 4755 3226 
L 4755 429 
L 4570 429 
L 4570 3226 
z
M 1574 2970 
L 1574 685 
L 1389 685 
L 1389 2778 
L 365 2778 
L 365 2970 
L 1574 2970 
z
M 2752 4922 
L 2944 4922 
L 2944 3494 
Q 2944 3155 2918 2764 
Q 2893 2374 2819 1968 
Q 2746 1562 2602 1171 
Q 2458 781 2221 442 
Q 2208 461 2179 483 
Q 2150 506 2121 525 
Q 2093 544 2074 557 
Q 2381 998 2525 1513 
Q 2669 2029 2710 2544 
Q 2752 3059 2752 3494 
L 2752 4922 
z
M 5645 5325 
L 5811 5178 
Q 5446 5075 4940 4995 
Q 4435 4915 3881 4857 
Q 3328 4800 2816 4762 
Q 2810 4794 2790 4842 
Q 2771 4890 2752 4922 
Q 3130 4954 3536 4992 
Q 3942 5030 4336 5084 
Q 4730 5139 5069 5200 
Q 5408 5261 5645 5325 
z
M 1485 749 
Q 1594 749 1680 688 
Q 1766 627 1878 528 
Q 1990 429 2163 307 
Q 2464 96 2854 38 
Q 3245 -19 3789 -19 
Q 4102 -19 4419 -12 
Q 4736 -6 5037 6 
Q 5338 19 5610 35 
Q 5882 51 6106 70 
Q 6093 45 6080 6 
Q 6067 -32 6060 -70 
Q 6054 -109 6048 -141 
Q 5875 -147 5587 -160 
Q 5299 -173 4963 -182 
Q 4627 -192 4313 -198 
Q 4000 -205 3789 -205 
Q 3206 -205 2793 -131 
Q 2381 -58 2061 166 
Q 1882 294 1738 435 
Q 1594 576 1485 576 
Q 1363 576 1209 470 
Q 1056 365 873 179 
Q 691 -6 480 -256 
L 339 -109 
Q 666 256 957 502 
Q 1248 749 1485 749 
z
M 646 5069 
L 794 5165 
Q 979 5005 1164 4816 
Q 1350 4627 1513 4441 
Q 1677 4256 1779 4115 
L 1626 4000 
Q 1530 4147 1366 4332 
Q 1203 4518 1017 4713 
Q 832 4909 646 5069 
z
" transform="scale(0.015625)"/>
      <path id="NotoSansSC-Thin-4e07" d="M 422 4794 
L 5984 4794 
L 5984 4602 
L 422 4602 
L 422 4794 
z
M 2374 3027 
L 5203 3027 
L 5203 2835 
L 2374 2835 
L 2374 3027 
z
M 5146 3027 
L 5331 3027 
Q 5331 3027 5331 3001 
Q 5331 2976 5331 2944 
Q 5331 2912 5331 2893 
Q 5286 2080 5238 1517 
Q 5190 954 5136 586 
Q 5082 218 5011 13 
Q 4941 -192 4851 -282 
Q 4768 -365 4672 -393 
Q 4576 -422 4422 -429 
Q 4262 -435 3945 -425 
Q 3629 -416 3290 -390 
Q 3283 -339 3270 -291 
Q 3258 -243 3226 -198 
Q 3610 -237 3939 -243 
Q 4269 -250 4384 -250 
Q 4506 -256 4573 -240 
Q 4640 -224 4685 -179 
Q 4800 -77 4880 252 
Q 4960 582 5024 1241 
Q 5088 1901 5146 2982 
L 5146 3027 
z
M 2387 4666 
L 2573 4666 
Q 2560 4122 2521 3533 
Q 2483 2944 2371 2358 
Q 2259 1773 2035 1238 
Q 1811 704 1427 262 
Q 1043 -179 454 -480 
Q 429 -448 384 -419 
Q 339 -390 307 -365 
Q 890 -70 1267 365 
Q 1645 800 1865 1325 
Q 2086 1850 2195 2422 
Q 2304 2995 2339 3568 
Q 2374 4141 2387 4666 
z
" transform="scale(0.015625)"/>
     </defs>
     <use xlink:href="#NotoSansSC-Thin-8fd1"/>
     <use xlink:href="#NotoSansSC-Thin-4e07" transform="translate(99.999985 0)"/>
     <use xlink:href="#NotoSansSC-Thin-4ebf" transform="translate(199.999969 0)"/>
     <use xlink:href="#NotoSansSC-Thin-4f30" transform="translate(299.999954 0)"/>
     <use xlink:href="#NotoSansSC-Thin-503c" transform="translate(399.999939 0)"/>
    </g>
    <!-- 超OpenAI -->
    <g style="fill: #8b5cf6" transform="translate(116.148359 82.731772) scale(0.08 -0.08)">
     <defs>
      <path id="NotoSansSC-Thin-8d85" d="M 3104 5011 
L 5792 5011 
L 5792 4826 
L 3104 4826 
L 3104 5011 
z
M 4211 4966 
L 4410 4954 
Q 4352 4064 4025 3520 
Q 3699 2976 3072 2643 
Q 3059 2662 3033 2691 
Q 3008 2720 2982 2745 
Q 2957 2771 2931 2790 
Q 3552 3085 3856 3606 
Q 4160 4128 4211 4966 
z
M 5709 5011 
L 5894 5011 
Q 5894 5011 5894 4966 
Q 5894 4922 5888 4890 
Q 5856 4275 5821 3904 
Q 5786 3533 5738 3344 
Q 5690 3155 5619 3078 
Q 5568 3027 5497 3001 
Q 5427 2976 5306 2976 
Q 5210 2970 5018 2976 
Q 4826 2982 4614 2995 
Q 4608 3034 4595 3085 
Q 4582 3136 4557 3181 
Q 4794 3155 4995 3152 
Q 5197 3149 5261 3149 
Q 5421 3136 5466 3200 
Q 5523 3264 5564 3446 
Q 5606 3629 5641 3997 
Q 5677 4365 5709 4966 
L 5709 5011 
z
M 499 4429 
L 2899 4429 
L 2899 4243 
L 499 4243 
L 499 4429 
z
M 384 3245 
L 3046 3245 
L 3046 3053 
L 384 3053 
L 384 3245 
z
M 1786 1926 
L 3002 1926 
L 3002 1741 
L 1786 1741 
L 1786 1926 
z
M 1606 5318 
L 1792 5318 
L 1792 3142 
L 1606 3142 
L 1606 5318 
z
M 1658 3098 
L 1843 3098 
L 1843 109 
L 1658 109 
L 1658 3098 
z
M 883 1587 
Q 1018 1088 1226 758 
Q 1434 429 1750 243 
Q 2067 58 2515 -19 
Q 2963 -96 3578 -96 
Q 3616 -96 3798 -96 
Q 3981 -96 4253 -96 
Q 4525 -96 4832 -96 
Q 5139 -96 5417 -96 
Q 5696 -96 5894 -96 
Q 6093 -96 6144 -96 
Q 6125 -115 6105 -150 
Q 6086 -186 6070 -221 
Q 6054 -256 6048 -282 
L 5549 -282 
L 3597 -282 
Q 2925 -282 2448 -202 
Q 1971 -122 1641 76 
Q 1312 275 1091 624 
Q 870 973 723 1510 
L 883 1587 
z
M 755 2458 
L 954 2445 
Q 934 1830 889 1296 
Q 845 762 733 317 
Q 621 -128 410 -474 
Q 397 -454 368 -432 
Q 339 -410 307 -384 
Q 275 -358 250 -346 
Q 454 -19 560 409 
Q 666 838 704 1356 
Q 742 1875 755 2458 
z
M 3552 2336 
L 3552 768 
L 5568 768 
L 5568 2336 
L 3552 2336 
z
M 3360 2522 
L 5760 2522 
L 5760 576 
L 3360 576 
L 3360 2522 
z
" transform="scale(0.015625)"/>
     </defs>
     <use xlink:href="#NotoSansSC-Thin-8d85"/>
     <use xlink:href="#NotoSansSC-Thin-4f" transform="translate(99.999985 0)"/>
     <use xlink:href="#NotoSansSC-Thin-70" transform="translate(171.399979 0)"/>
     <use xlink:href="#NotoSansSC-Thin-65" transform="translate(230.899963 0)"/>
     <use xlink:href="#NotoSansSC-Thin-6e" transform="translate(283.59996 0)"/>
     <use xlink:href="#NotoSansSC-Thin-41" transform="translate(341.599945 0)"/>
     <use xlink:href="#NotoSansSC-Thin-49" transform="translate(398.999939 0)"/>
    </g>
   </g>
   <g id="text_22">
    <!-- 数据来源：SEC文件 · 华尔街日报 · Yahoo Finance -->
    <g style="fill: #64748b" transform="translate(101.342656 192.841744) scale(0.08 -0.08)">
     <defs>
      <path id="NotoSansSC-Thin-6570" d="M 512 1990 
L 2970 1990 
L 2970 1798 
L 512 1798 
L 512 1990 
z
M 365 4064 
L 3386 4064 
L 3386 3878 
L 365 3878 
L 365 4064 
z
M 2957 5146 
L 3123 5050 
Q 3002 4826 2845 4586 
Q 2688 4346 2554 4173 
L 2419 4256 
Q 2509 4371 2608 4531 
Q 2707 4691 2800 4854 
Q 2893 5018 2957 5146 
z
M 1792 5318 
L 1984 5318 
L 1984 2611 
L 1792 2611 
L 1792 5318 
z
M 691 5043 
L 845 5101 
Q 992 4902 1117 4662 
Q 1242 4422 1286 4250 
L 1139 4179 
Q 1088 4352 960 4598 
Q 832 4845 691 5043 
z
M 1792 3987 
L 1946 3904 
Q 1798 3622 1561 3344 
Q 1325 3066 1046 2832 
Q 768 2598 486 2445 
Q 467 2490 428 2538 
Q 390 2586 358 2618 
Q 634 2746 909 2960 
Q 1184 3174 1417 3443 
Q 1651 3712 1792 3987 
z
M 1946 3866 
Q 2029 3814 2205 3696 
Q 2381 3578 2585 3443 
Q 2790 3309 2960 3190 
Q 3130 3072 3200 3021 
L 3072 2854 
Q 2995 2925 2832 3049 
Q 2669 3174 2473 3315 
Q 2278 3456 2105 3574 
Q 1933 3693 1830 3750 
L 1946 3866 
z
M 3962 4013 
L 5997 4013 
L 5997 3827 
L 3962 3827 
L 3962 4013 
z
M 4128 5222 
L 4314 5190 
Q 4218 4614 4083 4086 
Q 3949 3558 3766 3100 
Q 3584 2643 3354 2285 
Q 3341 2298 3309 2320 
Q 3277 2342 3241 2361 
Q 3206 2381 3181 2394 
Q 3424 2733 3603 3184 
Q 3782 3635 3913 4153 
Q 4045 4672 4128 5222 
z
M 5357 3936 
L 5549 3910 
Q 5382 2829 5084 2006 
Q 4787 1184 4291 579 
Q 3795 -26 3040 -454 
Q 3027 -435 3004 -406 
Q 2982 -378 2956 -349 
Q 2931 -320 2906 -301 
Q 3654 90 4140 678 
Q 4627 1267 4915 2076 
Q 5203 2886 5357 3936 
z
M 3994 3789 
Q 4147 2874 4425 2070 
Q 4704 1267 5133 668 
Q 5562 70 6150 -243 
Q 6112 -269 6073 -313 
Q 6035 -358 6010 -397 
Q 5414 -51 4985 563 
Q 4557 1178 4275 1997 
Q 3994 2816 3834 3757 
L 3994 3789 
z
M 896 1018 
L 1050 1152 
Q 1370 1037 1722 873 
Q 2074 710 2387 544 
Q 2701 378 2906 230 
L 2752 90 
Q 2554 237 2240 406 
Q 1926 576 1574 739 
Q 1222 902 896 1018 
z
M 2880 1990 
L 2918 1990 
L 2963 2003 
L 3066 1946 
Q 2874 1286 2474 825 
Q 2074 365 1552 80 
Q 1030 -205 467 -358 
Q 454 -320 422 -272 
Q 390 -224 358 -198 
Q 902 -64 1411 205 
Q 1920 474 2310 906 
Q 2701 1338 2880 1946 
L 2880 1990 
z
M 896 1018 
Q 1030 1210 1168 1453 
Q 1306 1696 1427 1952 
Q 1549 2208 1632 2438 
L 1811 2406 
Q 1722 2170 1597 1910 
Q 1472 1651 1341 1414 
Q 1210 1178 1094 1005 
L 896 1018 
z
" transform="scale(0.015625)"/>
      <path id="NotoSansSC-Thin-636e" d="M 2714 5011 
L 5843 5011 
L 5843 3558 
L 2714 3558 
L 2714 3744 
L 5651 3744 
L 5651 4826 
L 2714 4826 
L 2714 5011 
z
M 2618 5011 
L 2803 5011 
L 2803 3104 
Q 2803 2714 2777 2256 
Q 2752 1798 2675 1328 
Q 2598 858 2441 406 
Q 2285 -45 2022 -429 
Q 2003 -410 1974 -394 
Q 1946 -378 1914 -358 
Q 1882 -339 1856 -333 
Q 2118 51 2268 486 
Q 2419 922 2496 1379 
Q 2573 1837 2595 2278 
Q 2618 2720 2618 3104 
L 2618 5011 
z
M 2765 2714 
L 6106 2714 
L 6106 2522 
L 2765 2522 
L 2765 2714 
z
M 3187 64 
L 5702 64 
L 5702 -122 
L 3187 -122 
L 3187 64 
z
M 4352 3597 
L 4544 3597 
L 4544 1472 
L 4352 1472 
L 4352 3597 
z
M 3085 1549 
L 5856 1549 
L 5856 -422 
L 5664 -422 
L 5664 1363 
L 3277 1363 
L 3277 -461 
L 3085 -461 
L 3085 1549 
z
M 237 1760 
Q 602 1882 1126 2064 
Q 1651 2246 2195 2445 
L 2227 2253 
Q 1722 2074 1219 1891 
Q 717 1709 320 1562 
L 237 1760 
z
M 301 3949 
L 2227 3949 
L 2227 3757 
L 301 3757 
L 301 3949 
z
M 1229 5312 
L 1421 5312 
L 1421 -147 
Q 1421 -275 1376 -332 
Q 1331 -390 1242 -416 
Q 1158 -442 988 -448 
Q 819 -454 518 -448 
Q 512 -416 489 -365 
Q 467 -314 442 -269 
Q 685 -275 870 -275 
Q 1056 -275 1114 -269 
Q 1171 -269 1200 -243 
Q 1229 -218 1229 -147 
L 1229 5312 
z
" transform="scale(0.015625)"/>
      <path id="NotoSansSC-Thin-6765" d="M 397 2432 
L 6016 2432 
L 6016 2246 
L 397 2246 
L 397 2432 
z
M 704 4467 
L 5734 4467 
L 5734 4282 
L 704 4282 
L 704 4467 
z
M 3091 5306 
L 3283 5306 
L 3283 -448 
L 3091 -448 
L 3091 5306 
z
M 4979 4026 
L 5171 3949 
Q 5062 3725 4928 3475 
Q 4794 3226 4656 2995 
Q 4518 2765 4390 2586 
L 4237 2656 
Q 4365 2835 4502 3078 
Q 4640 3322 4768 3574 
Q 4896 3827 4979 4026 
z
M 1312 3923 
L 1478 3981 
Q 1619 3782 1753 3548 
Q 1888 3315 1993 3094 
Q 2099 2874 2144 2701 
L 1971 2624 
Q 1920 2797 1817 3024 
Q 1715 3251 1584 3488 
Q 1453 3725 1312 3923 
z
M 2963 2374 
L 3123 2298 
Q 2893 1926 2579 1571 
Q 2266 1216 1901 896 
Q 1536 576 1161 317 
Q 787 58 429 -115 
Q 416 -90 390 -64 
Q 365 -38 339 -12 
Q 314 13 288 32 
Q 646 192 1024 445 
Q 1402 698 1763 1011 
Q 2125 1325 2435 1673 
Q 2746 2022 2963 2374 
z
M 3411 2381 
Q 3635 2029 3952 1677 
Q 4269 1325 4637 1005 
Q 5005 685 5389 432 
Q 5773 179 6138 13 
Q 6118 -6 6092 -35 
Q 6067 -64 6041 -89 
Q 6016 -115 5997 -141 
Q 5638 32 5254 297 
Q 4870 563 4499 889 
Q 4128 1216 3808 1577 
Q 3488 1939 3258 2304 
L 3411 2381 
z
" transform="scale(0.015625)"/>
      <path id="NotoSansSC-Thin-6e90" d="M 2304 5024 
L 6035 5024 
L 6035 4838 
L 2304 4838 
L 2304 5024 
z
M 2214 5024 
L 2406 5024 
L 2406 3283 
Q 2406 2874 2377 2400 
Q 2349 1926 2262 1436 
Q 2176 947 2006 476 
Q 1837 6 1555 -397 
Q 1542 -378 1513 -358 
Q 1485 -339 1456 -320 
Q 1427 -301 1402 -294 
Q 1677 102 1840 560 
Q 2003 1018 2083 1491 
Q 2163 1965 2188 2422 
Q 2214 2880 2214 3283 
L 2214 5024 
z
M 3110 2765 
L 3110 1990 
L 5542 1990 
L 5542 2765 
L 3110 2765 
z
M 3110 3718 
L 3110 2957 
L 5542 2957 
L 5542 3718 
L 3110 3718 
z
M 2925 3910 
L 5728 3910 
L 5728 1798 
L 2925 1798 
L 2925 3910 
z
M 3270 1338 
L 3456 1286 
Q 3341 1050 3193 810 
Q 3046 570 2886 355 
Q 2726 141 2566 -26 
Q 2554 -6 2522 13 
Q 2490 32 2458 57 
Q 2426 83 2400 96 
Q 2650 339 2880 665 
Q 3110 992 3270 1338 
z
M 5075 1293 
L 5242 1363 
Q 5395 1165 5555 937 
Q 5715 710 5856 499 
Q 5997 288 6086 134 
L 5907 38 
Q 5824 198 5683 412 
Q 5542 627 5385 860 
Q 5229 1094 5075 1293 
z
M 4218 4634 
L 4410 4570 
Q 4346 4365 4272 4144 
Q 4198 3923 4128 3770 
L 3981 3827 
Q 4038 3994 4108 4227 
Q 4179 4461 4218 4634 
z
M 4211 1939 
L 4397 1939 
L 4397 -173 
Q 4397 -282 4361 -336 
Q 4326 -390 4237 -416 
Q 4141 -442 3939 -448 
Q 3738 -454 3398 -448 
Q 3392 -416 3373 -368 
Q 3354 -320 3328 -275 
Q 3616 -282 3824 -282 
Q 4032 -282 4096 -282 
Q 4211 -275 4211 -173 
L 4211 1939 
z
M 627 5101 
L 749 5222 
Q 934 5107 1139 4972 
Q 1344 4838 1526 4707 
Q 1709 4576 1830 4480 
L 1715 4326 
Q 1594 4429 1408 4563 
Q 1222 4698 1017 4842 
Q 813 4986 627 5101 
z
M 307 3379 
L 422 3507 
Q 614 3405 822 3280 
Q 1030 3155 1219 3036 
Q 1408 2918 1536 2822 
L 1427 2669 
Q 1299 2765 1110 2889 
Q 922 3014 710 3145 
Q 499 3277 307 3379 
z
M 493 -224 
Q 646 26 832 374 
Q 1018 723 1203 1110 
Q 1389 1498 1542 1843 
L 1690 1728 
Q 1549 1395 1369 1020 
Q 1190 646 1004 288 
Q 819 -70 653 -352 
L 493 -224 
z
" transform="scale(0.015625)"/>
      <path id="NotoSansSC-Thin-ff1a" d="M 1600 3213 
Q 1466 3213 1354 3302 
Q 1242 3392 1242 3571 
Q 1242 3750 1354 3840 
Q 1466 3930 1600 3930 
Q 1734 3930 1846 3840 
Q 1958 3750 1958 3571 
Q 1958 3392 1846 3302 
Q 1734 3213 1600 3213 
z
M 1600 0 
Q 1466 0 1354 89 
Q 1242 179 1242 358 
Q 1242 538 1354 627 
Q 1466 717 1600 717 
Q 1734 717 1846 627 
Q 1958 538 1958 358 
Q 1958 179 1846 89 
Q 1734 0 1600 0 
z
" transform="scale(0.015625)"/>
      <path id="NotoSansSC-Thin-45" d="M 704 0 
L 704 4646 
L 3200 4646 
L 3200 4435 
L 941 4435 
L 941 2586 
L 2835 2586 
L 2835 2374 
L 941 2374 
L 941 211 
L 3270 211 
L 3270 0 
L 704 0 
z
" transform="scale(0.015625)"/>
      <path id="NotoSansSC-Thin-43" d="M 2317 -83 
Q 1888 -83 1536 86 
Q 1184 256 928 576 
Q 672 896 534 1341 
Q 397 1786 397 2336 
Q 397 2886 537 3328 
Q 678 3770 934 4083 
Q 1190 4397 1552 4563 
Q 1914 4730 2355 4730 
Q 2758 4730 3059 4560 
Q 3360 4390 3539 4179 
L 3392 4019 
Q 3206 4237 2944 4371 
Q 2682 4506 2355 4506 
Q 1824 4506 1440 4240 
Q 1056 3974 851 3488 
Q 646 3002 646 2336 
Q 646 1670 851 1177 
Q 1056 685 1433 413 
Q 1811 141 2330 141 
Q 2694 141 2982 288 
Q 3270 435 3533 730 
L 3680 576 
Q 3418 269 3094 93 
Q 2771 -83 2317 -83 
z
" transform="scale(0.015625)"/>
      <path id="NotoSansSC-Thin-6587" d="M 4851 4058 
L 5043 3987 
Q 4614 2835 3977 1993 
Q 3341 1152 2464 563 
Q 1587 -26 435 -429 
Q 422 -410 400 -374 
Q 378 -339 352 -304 
Q 326 -269 301 -250 
Q 1453 128 2323 707 
Q 3194 1286 3818 2112 
Q 4442 2938 4851 4058 
z
M 1504 4051 
Q 1901 3008 2557 2147 
Q 3213 1286 4105 672 
Q 4998 58 6112 -243 
Q 6093 -262 6067 -294 
Q 6042 -326 6016 -355 
Q 5990 -384 5971 -416 
Q 4851 -96 3955 528 
Q 3059 1152 2400 2032 
Q 1741 2912 1331 3987 
L 1504 4051 
z
M 358 4134 
L 6067 4134 
L 6067 3949 
L 358 3949 
L 358 4134 
z
M 2778 5274 
L 2957 5331 
Q 3123 5101 3283 4819 
Q 3443 4538 3526 4339 
L 3341 4269 
Q 3264 4467 3104 4752 
Q 2944 5037 2778 5274 
z
" transform="scale(0.015625)"/>
      <path id="NotoSansSC-Thin-4ef6" d="M 3974 5242 
L 4160 5242 
L 4160 -454 
L 3974 -454 
L 3974 5242 
z
M 2854 5024 
L 3040 4992 
Q 2957 4531 2835 4099 
Q 2714 3667 2554 3296 
Q 2394 2925 2195 2630 
Q 2182 2643 2153 2665 
Q 2125 2688 2096 2707 
Q 2067 2726 2042 2739 
Q 2240 3021 2397 3385 
Q 2554 3750 2669 4166 
Q 2784 4582 2854 5024 
z
M 2733 3936 
L 5754 3936 
L 5754 3744 
L 2682 3744 
L 2733 3936 
z
M 2029 2029 
L 6010 2029 
L 6010 1837 
L 2029 1837 
L 2029 2029 
z
M 1875 5293 
L 2061 5242 
Q 1862 4704 1606 4195 
Q 1350 3686 1052 3241 
Q 755 2797 429 2438 
Q 416 2458 390 2486 
Q 365 2515 339 2544 
Q 314 2573 288 2592 
Q 608 2925 899 3360 
Q 1190 3795 1443 4288 
Q 1696 4781 1875 5293 
z
M 1216 3763 
L 1395 3942 
L 1408 3936 
L 1408 -435 
L 1216 -435 
L 1216 3763 
z
" transform="scale(0.015625)"/>
      <path id="NotoSansSC-Thin-20" transform="scale(0.015625)"/>
      <path id="NotoSansSC-Thin-b7" d="M 3200 2976 
Q 3354 2976 3475 2902 
Q 3597 2829 3670 2707 
Q 3744 2586 3744 2432 
Q 3744 2285 3670 2160 
Q 3597 2035 3475 1961 
Q 3354 1888 3200 1888 
Q 3053 1888 2928 1961 
Q 2803 2035 2729 2160 
Q 2656 2285 2656 2432 
Q 2656 2586 2729 2707 
Q 2803 2829 2928 2902 
Q 3053 2976 3200 2976 
z
" transform="scale(0.015625)"/>
      <path id="NotoSansSC-Thin-534e" d="M 5542 4768 
L 5722 4634 
Q 5338 4390 4790 4166 
Q 4243 3942 3625 3753 
Q 3008 3565 2406 3411 
Q 2400 3443 2377 3488 
Q 2355 3533 2330 3565 
Q 2771 3680 3235 3814 
Q 3699 3949 4131 4102 
Q 4563 4256 4928 4422 
Q 5293 4589 5542 4768 
z
M 3450 5242 
L 3642 5242 
L 3642 2797 
Q 3642 2662 3715 2614 
Q 3789 2566 4045 2566 
Q 4109 2566 4288 2566 
Q 4467 2566 4691 2566 
Q 4915 2566 5110 2566 
Q 5306 2566 5389 2566 
Q 5530 2566 5597 2624 
Q 5664 2682 5693 2848 
Q 5722 3014 5734 3341 
Q 5779 3309 5830 3286 
Q 5882 3264 5920 3251 
Q 5907 2906 5862 2717 
Q 5818 2528 5712 2454 
Q 5606 2381 5389 2381 
Q 5357 2381 5222 2381 
Q 5088 2381 4905 2381 
Q 4723 2381 4540 2381 
Q 4358 2381 4227 2381 
Q 4096 2381 4064 2381 
Q 3827 2381 3692 2413 
Q 3558 2445 3504 2534 
Q 3450 2624 3450 2803 
L 3450 5242 
z
M 2221 5318 
L 2400 5261 
Q 2170 4877 1872 4518 
Q 1574 4160 1241 3849 
Q 909 3539 570 3302 
Q 557 3322 528 3344 
Q 499 3366 467 3392 
Q 435 3418 410 3430 
Q 762 3661 1094 3961 
Q 1427 4262 1718 4608 
Q 2010 4954 2221 5318 
z
M 1555 4314 
L 1747 4506 
L 1747 4499 
L 1747 2170 
L 1555 2170 
L 1555 4314 
z
M 3098 2176 
L 3290 2176 
L 3290 -448 
L 3098 -448 
L 3098 2176 
z
M 365 1389 
L 6016 1389 
L 6016 1197 
L 365 1197 
L 365 1389 
z
" transform="scale(0.015625)"/>
      <path id="NotoSansSC-Thin-5c14" d="M 3136 4064 
L 3328 4064 
L 3328 -115 
Q 3328 -262 3277 -329 
Q 3226 -397 3104 -422 
Q 2995 -448 2745 -454 
Q 2496 -461 2074 -461 
Q 2067 -422 2041 -368 
Q 2016 -314 1990 -269 
Q 2234 -275 2438 -275 
Q 2643 -275 2787 -272 
Q 2931 -269 2989 -269 
Q 3072 -262 3104 -230 
Q 3136 -198 3136 -115 
L 3136 4064 
z
M 1869 2650 
L 2054 2598 
Q 1875 2195 1638 1811 
Q 1402 1427 1133 1097 
Q 864 768 582 506 
Q 570 518 541 540 
Q 512 563 480 588 
Q 448 614 422 627 
Q 858 1005 1235 1536 
Q 1613 2067 1869 2650 
z
M 2048 5318 
L 2234 5267 
Q 2016 4749 1737 4265 
Q 1459 3782 1142 3360 
Q 826 2938 486 2611 
Q 474 2630 442 2649 
Q 410 2669 374 2691 
Q 339 2714 307 2720 
Q 666 3040 986 3453 
Q 1306 3866 1578 4342 
Q 1850 4819 2048 5318 
z
M 4397 2528 
L 4550 2611 
Q 4819 2298 5094 1930 
Q 5370 1562 5600 1213 
Q 5830 864 5965 602 
L 5811 506 
Q 5677 768 5446 1120 
Q 5216 1472 4941 1843 
Q 4666 2214 4397 2528 
z
M 1498 4141 
L 5856 4141 
L 5856 3955 
L 1498 3955 
L 1498 4141 
z
M 5786 4141 
L 5830 4141 
L 5869 4154 
L 5997 4090 
Q 5830 3725 5616 3334 
Q 5402 2944 5197 2688 
L 5024 2739 
Q 5165 2906 5305 3133 
Q 5446 3360 5571 3606 
Q 5696 3853 5786 4077 
L 5786 4141 
z
" transform="scale(0.015625)"/>
      <path id="NotoSansSC-Thin-8857" d="M 1920 4403 
L 4070 4403 
L 4070 4218 
L 1920 4218 
L 1920 4403 
z
M 4403 4909 
L 6016 4909 
L 6016 4717 
L 4403 4717 
L 4403 4909 
z
M 4326 3187 
L 6086 3187 
L 6086 3002 
L 4326 3002 
L 4326 3187 
z
M 1779 3117 
L 4211 3117 
L 4211 2931 
L 1779 2931 
L 1779 3117 
z
M 2899 5318 
L 3085 5318 
L 3085 3008 
L 2899 3008 
L 2899 5318 
z
M 1818 1830 
L 4166 1830 
L 4166 1645 
L 1818 1645 
L 1818 1830 
z
M 2899 2771 
L 3085 2771 
L 3085 352 
L 2899 294 
L 2899 2771 
z
M 1645 243 
Q 1984 288 2425 345 
Q 2867 403 3366 476 
Q 3866 550 4378 621 
L 4384 442 
Q 3642 333 2925 230 
Q 2208 128 1677 51 
L 1645 243 
z
M 5184 3123 
L 5370 3123 
L 5370 -128 
Q 5370 -269 5328 -329 
Q 5286 -390 5178 -416 
Q 5069 -442 4838 -448 
Q 4608 -454 4243 -454 
Q 4230 -416 4208 -358 
Q 4186 -301 4160 -256 
Q 4499 -262 4732 -265 
Q 4966 -269 5050 -262 
Q 5133 -256 5158 -227 
Q 5184 -198 5184 -134 
L 5184 3123 
z
M 1453 5312 
L 1645 5248 
Q 1504 5005 1296 4745 
Q 1088 4486 854 4249 
Q 621 4013 384 3827 
Q 371 3846 345 3872 
Q 320 3898 294 3923 
Q 269 3949 250 3968 
Q 480 4141 710 4365 
Q 941 4589 1136 4835 
Q 1331 5082 1453 5312 
z
M 1037 2957 
L 1210 3130 
L 1222 3123 
L 1222 -461 
L 1037 -461 
L 1037 2957 
z
M 1683 4090 
L 1862 4032 
Q 1670 3648 1414 3283 
Q 1158 2918 870 2601 
Q 582 2285 288 2035 
Q 275 2054 246 2080 
Q 218 2106 189 2131 
Q 160 2157 134 2170 
Q 589 2528 1001 3030 
Q 1414 3533 1683 4090 
z
" transform="scale(0.015625)"/>
      <path id="NotoSansSC-Thin-65e5" d="M 1274 4832 
L 5197 4832 
L 5197 -333 
L 5005 -333 
L 5005 4640 
L 1466 4640 
L 1466 -384 
L 1274 -384 
L 1274 4832 
z
M 1389 2547 
L 5088 2547 
L 5088 2362 
L 1389 2362 
L 1389 2547 
z
M 1376 218 
L 5107 218 
L 5107 32 
L 1376 32 
L 1376 218 
z
" transform="scale(0.015625)"/>
      <path id="NotoSansSC-Thin-62a5" d="M 2906 2957 
L 5702 2957 
L 5702 2765 
L 2906 2765 
L 2906 2957 
z
M 3469 2886 
Q 3718 2208 4115 1584 
Q 4512 960 5017 480 
Q 5523 0 6093 -262 
Q 6067 -282 6041 -310 
Q 6016 -339 5990 -368 
Q 5965 -397 5946 -422 
Q 5382 -134 4873 362 
Q 4365 858 3965 1494 
Q 3565 2131 3309 2829 
L 3469 2886 
z
M 5632 2957 
L 5670 2957 
L 5715 2970 
L 5843 2912 
Q 5664 2246 5309 1603 
Q 4954 960 4454 429 
Q 3955 -102 3328 -448 
Q 3302 -422 3264 -387 
Q 3226 -352 3194 -326 
Q 3648 -77 4041 284 
Q 4435 646 4748 1081 
Q 5062 1517 5286 1981 
Q 5510 2445 5632 2899 
L 5632 2957 
z
M 5402 5107 
L 5587 5107 
Q 5587 5107 5587 5062 
Q 5587 5018 5581 4986 
Q 5555 4307 5507 4012 
Q 5459 3718 5363 3629 
Q 5299 3571 5225 3548 
Q 5152 3526 5005 3520 
Q 4864 3514 4569 3520 
Q 4275 3526 3936 3552 
Q 3930 3597 3914 3641 
Q 3898 3686 3866 3731 
Q 4102 3712 4326 3702 
Q 4550 3693 4716 3689 
Q 4883 3686 4941 3686 
Q 5050 3686 5114 3696 
Q 5178 3706 5216 3731 
Q 5267 3782 5299 3923 
Q 5331 4064 5356 4342 
Q 5382 4621 5402 5075 
L 5402 5107 
z
M 262 1792 
Q 538 1875 886 1980 
Q 1235 2086 1625 2211 
Q 2016 2336 2413 2464 
L 2432 2291 
Q 1882 2106 1331 1920 
Q 781 1734 346 1600 
L 262 1792 
z
M 358 3949 
L 2400 3949 
L 2400 3757 
L 358 3757 
L 358 3949 
z
M 1376 5312 
L 1562 5312 
L 1562 -115 
Q 1562 -262 1510 -326 
Q 1459 -390 1357 -416 
Q 1254 -442 1043 -448 
Q 832 -454 454 -454 
Q 448 -422 425 -368 
Q 403 -314 371 -269 
Q 691 -275 924 -275 
Q 1158 -275 1222 -269 
Q 1306 -262 1341 -233 
Q 1376 -205 1376 -122 
L 1376 5312 
z
M 2797 5107 
L 5459 5107 
L 5459 4915 
L 2989 4915 
L 2989 -448 
L 2797 -448 
L 2797 5107 
z
" transform="scale(0.015625)"/>
      <path id="NotoSansSC-Thin-59" d="M 1421 0 
L 1421 1907 
L 26 4646 
L 282 4646 
L 1018 3149 
Q 1146 2893 1267 2646 
Q 1389 2400 1530 2144 
L 1555 2144 
Q 1696 2400 1827 2646 
Q 1958 2893 2074 3149 
L 2816 4646 
L 3053 4646 
L 1658 1907 
L 1658 0 
L 1421 0 
z
" transform="scale(0.015625)"/>
      <path id="NotoSansSC-Thin-46" d="M 704 0 
L 704 4646 
L 3187 4646 
L 3187 4435 
L 941 4435 
L 941 2496 
L 2835 2496 
L 2835 2291 
L 941 2291 
L 941 0 
L 704 0 
z
" transform="scale(0.015625)"/>
     </defs>
     <use xlink:href="#NotoSansSC-Thin-6570"/>
     <use xlink:href="#NotoSansSC-Thin-636e" transform="translate(99.999985 0)"/>
     <use xlink:href="#NotoSansSC-Thin-6765" transform="translate(199.999969 0)"/>
     <use xlink:href="#NotoSansSC-Thin-6e90" transform="translate(299.999954 0)"/>
     <use xlink:href="#NotoSansSC-Thin-ff1a" transform="translate(399.999939 0)"/>
     <use xlink:href="#NotoSansSC-Thin-53" transform="translate(499.999924 0)"/>
     <use xlink:href="#NotoSansSC-Thin-45" transform="translate(556.899918 0)"/>
     <use xlink:href="#NotoSansSC-Thin-43" transform="translate(613.099915 0)"/>
     <use xlink:href="#NotoSansSC-Thin-6587" transform="translate(674.999908 0)"/>
     <use xlink:href="#NotoSansSC-Thin-4ef6" transform="translate(774.999893 0)"/>
     <use xlink:href="#NotoSansSC-Thin-20" transform="translate(874.999878 0)"/>
     <use xlink:href="#NotoSansSC-Thin-b7" transform="translate(896.999863 0)"/>
     <use xlink:href="#NotoSansSC-Thin-20" transform="translate(996.999847 0)"/>
     <use xlink:href="#NotoSansSC-Thin-534e" transform="translate(1018.999832 0)"/>
     <use xlink:href="#NotoSansSC-Thin-5c14" transform="translate(1118.999817 0)"/>
     <use xlink:href="#NotoSansSC-Thin-8857" transform="translate(1218.999802 0)"/>
     <use xlink:href="#NotoSansSC-Thin-65e5" transform="translate(1318.999786 0)"/>
     <use xlink:href="#NotoSansSC-Thin-62a5" transform="translate(1418.999771 0)"/>
     <use xlink:href="#NotoSansSC-Thin-20" transform="translate(1518.999756 0)"/>
     <use xlink:href="#NotoSansSC-Thin-b7" transform="translate(1540.999741 0)"/>
     <use xlink:href="#NotoSansSC-Thin-20" transform="translate(1640.999725 0)"/>
     <use xlink:href="#NotoSansSC-Thin-59" transform="translate(1662.99971 0)"/>
     <use xlink:href="#NotoSansSC-Thin-61" transform="translate(1711.199707 0)"/>
     <use xlink:href="#NotoSansSC-Thin-68" transform="translate(1764.799698 0)"/>
     <use xlink:href="#NotoSansSC-Thin-6f" transform="translate(1822.299683 0)"/>
     <use xlink:href="#NotoSansSC-Thin-6f" transform="translate(1880.899673 0)"/>
     <use xlink:href="#NotoSansSC-Thin-20" transform="translate(1939.499664 0)"/>
     <use xlink:href="#NotoSansSC-Thin-46" transform="translate(1961.499649 0)"/>
     <use xlink:href="#NotoSansSC-Thin-69" transform="translate(2013.299637 0)"/>
     <use xlink:href="#NotoSansSC-Thin-6e" transform="translate(2037.799622 0)"/>
     <use xlink:href="#NotoSansSC-Thin-61" transform="translate(2095.799606 0)"/>
     <use xlink:href="#NotoSansSC-Thin-6e" transform="translate(2149.399597 0)"/>
     <use xlink:href="#NotoSansSC-Thin-63" transform="translate(2207.399582 0)"/>
     <use xlink:href="#NotoSansSC-Thin-65" transform="translate(2256.599579 0)"/>
    </g>
   </g>
   <g id="text_23">
    <!-- AI巨头估值飞跃（十亿美元） -->
    <g style="fill: #1e293b" transform="translate(110.312422 17.522812) scale(0.13 -0.13)">
     <defs>
      <path id="NotoSansSC-Thin-5de8" d="M 1382 3520 
L 5338 3520 
L 5338 1478 
L 1382 1478 
L 1382 1670 
L 5152 1670 
L 5152 3334 
L 1382 3334 
L 1382 3520 
z
M 1414 -19 
L 5850 -19 
L 5850 -205 
L 1414 -205 
L 1414 -19 
z
M 1299 4998 
L 5696 4998 
L 5696 4813 
L 1485 4813 
L 1485 -205 
L 1299 -205 
L 1299 4998 
z
" transform="scale(0.015625)"/>
      <path id="NotoSansSC-Thin-5934" d="M 3494 5222 
L 3680 5222 
Q 3680 4506 3661 3862 
Q 3642 3219 3562 2659 
Q 3482 2099 3293 1619 
Q 3104 1139 2765 752 
Q 2426 365 1898 70 
Q 1370 -224 595 -416 
Q 576 -384 541 -336 
Q 506 -288 474 -256 
Q 1242 -70 1763 214 
Q 2285 499 2614 876 
Q 2944 1254 3126 1715 
Q 3309 2176 3385 2723 
Q 3462 3270 3478 3897 
Q 3494 4525 3494 5222 
z
M 410 2317 
L 6003 2317 
L 6003 2125 
L 410 2125 
L 410 2317 
z
M 3411 1274 
L 3526 1402 
Q 3987 1165 4428 893 
Q 4870 621 5254 339 
Q 5638 58 5920 -211 
L 5779 -346 
Q 5510 -77 5129 201 
Q 4749 480 4310 755 
Q 3872 1030 3411 1274 
z
M 1376 4781 
L 1491 4922 
Q 1754 4832 2026 4704 
Q 2298 4576 2538 4438 
Q 2778 4301 2931 4173 
L 2816 4000 
Q 2662 4134 2422 4278 
Q 2182 4422 1910 4553 
Q 1638 4685 1376 4781 
z
M 819 3667 
L 947 3802 
Q 1203 3706 1468 3574 
Q 1734 3443 1971 3299 
Q 2208 3155 2362 3027 
L 2227 2867 
Q 2080 2995 1843 3142 
Q 1606 3290 1340 3427 
Q 1075 3565 819 3667 
z
" transform="scale(0.015625)"/>
      <path id="NotoSansSC-Thin-98de" d="M 512 4870 
L 4038 4870 
L 4038 4678 
L 512 4678 
L 512 4870 
z
M 3910 4870 
L 4096 4870 
Q 4122 3827 4195 2934 
Q 4269 2042 4429 1376 
Q 4589 710 4864 339 
Q 5139 -32 5568 -32 
Q 5741 -26 5808 259 
Q 5875 544 5901 1107 
Q 5933 1082 5987 1059 
Q 6042 1037 6074 1024 
Q 6054 557 6006 288 
Q 5958 19 5852 -93 
Q 5747 -205 5555 -211 
Q 5069 -211 4761 137 
Q 4454 486 4278 1145 
Q 4102 1805 4022 2742 
Q 3942 3680 3910 4870 
z
M 5645 4294 
L 5837 4198 
Q 5606 3968 5324 3712 
Q 5043 3456 4755 3219 
Q 4467 2982 4211 2803 
L 4064 2899 
Q 4320 3078 4611 3324 
Q 4902 3571 5177 3827 
Q 5453 4083 5645 4294 
z
M 4038 2861 
L 4160 2989 
Q 4474 2822 4810 2614 
Q 5146 2406 5437 2195 
Q 5728 1984 5914 1811 
L 5792 1664 
Q 5606 1843 5315 2054 
Q 5024 2266 4688 2480 
Q 4352 2694 4038 2861 
z
" transform="scale(0.015625)"/>
      <path id="NotoSansSC-Thin-8dc3" d="M 2816 2918 
L 6010 2918 
L 6010 2726 
L 2816 2726 
L 2816 2918 
z
M 5638 5203 
L 5805 5043 
Q 5466 4915 4992 4803 
Q 4518 4691 4000 4595 
Q 3482 4499 2995 4429 
Q 2989 4461 2966 4509 
Q 2944 4557 2925 4595 
Q 3405 4666 3917 4762 
Q 4429 4858 4886 4970 
Q 5344 5082 5638 5203 
z
M 4544 2803 
Q 4646 2074 4851 1459 
Q 5056 845 5382 393 
Q 5709 -58 6182 -294 
Q 6163 -307 6137 -336 
Q 6112 -365 6089 -390 
Q 6067 -416 6048 -442 
Q 5568 -179 5235 285 
Q 4902 749 4694 1382 
Q 4486 2016 4378 2771 
L 4544 2803 
z
M 4275 4717 
L 4461 4717 
L 4461 3379 
Q 4461 3046 4435 2668 
Q 4410 2291 4317 1888 
Q 4224 1485 4025 1078 
Q 3827 672 3481 285 
Q 3136 -102 2605 -448 
Q 2592 -429 2566 -406 
Q 2541 -384 2515 -358 
Q 2490 -333 2464 -314 
Q 2995 13 3331 387 
Q 3667 762 3862 1158 
Q 4058 1555 4144 1945 
Q 4230 2336 4252 2701 
Q 4275 3066 4275 3379 
L 4275 4717 
z
M 838 4819 
L 838 3398 
L 2234 3398 
L 2234 4819 
L 838 4819 
z
M 646 5005 
L 2419 5005 
L 2419 3213 
L 646 3213 
L 646 5005 
z
M 1472 3341 
L 1658 3341 
L 1658 346 
L 1472 346 
L 1472 3341 
z
M 685 2458 
L 870 2458 
L 870 147 
L 685 147 
L 685 2458 
z
M 314 122 
Q 595 192 960 288 
Q 1325 384 1737 496 
Q 2150 608 2566 717 
L 2586 531 
Q 1990 371 1401 214 
Q 813 58 371 -70 
L 314 122 
z
M 1542 2106 
L 2477 2106 
L 2477 1920 
L 1542 1920 
L 1542 2106 
z
" transform="scale(0.015625)"/>
     </defs>
     <use xlink:href="#NotoSansSC-Thin-41"/>
     <use xlink:href="#NotoSansSC-Thin-49" transform="translate(57.399994 0)"/>
     <use xlink:href="#NotoSansSC-Thin-5de8" transform="translate(83.099991 0)"/>
     <use xlink:href="#NotoSansSC-Thin-5934" transform="translate(183.099976 0)"/>
     <use xlink:href="#NotoSansSC-Thin-4f30" transform="translate(283.09996 0)"/>
     <use xlink:href="#NotoSansSC-Thin-503c" transform="translate(383.099945 0)"/>
     <use xlink:href="#NotoSansSC-Thin-98de" transform="translate(483.09993 0)"/>
     <use xlink:href="#NotoSansSC-Thin-8dc3" transform="translate(583.099915 0)"/>
     <use xlink:href="#NotoSansSC-Thin-ff08" transform="translate(683.099899 0)"/>
     <use xlink:href="#NotoSansSC-Thin-5341" transform="translate(783.099884 0)"/>
     <use xlink:href="#NotoSansSC-Thin-4ebf" transform="translate(883.099869 0)"/>
     <use xlink:href="#NotoSansSC-Thin-7f8e" transform="translate(983.099854 0)"/>
     <use xlink:href="#NotoSansSC-Thin-5143" transform="translate(1083.099838 0)"/>
     <use xlink:href="#NotoSansSC-Thin-ff09" transform="translate(1183.099823 0)"/>
    </g>
   </g>
  </g>
 </g>
 <defs>
  <clipPath id="p5ef86bd7ed">
   <rect x="42.119531" y="29.522812" width="303.19" height="133.0224"/>
  </clipPath>
 </defs>
</svg>
