<?xml version="1.0" encoding="utf-8" standalone="no"?>
<!DOCTYPE svg PUBLIC "-//W3C//DTD SVG 1.1//EN"
  "http://www.w3.org/Graphics/SVG/1.1/DTD/svg11.dtd">
<svg xmlns:xlink="http://www.w3.org/1999/xlink" width="382.390859pt" height="291.635562pt" viewBox="0 0 382.390859 291.635562" xmlns="http://www.w3.org/2000/svg" version="1.1">
 <metadata>
  <rdf:RDF xmlns:dc="http://purl.org/dc/elements/1.1/" xmlns:cc="http://creativecommons.org/ns#" xmlns:rdf="http://www.w3.org/1999/02/22-rdf-syntax-ns#">
   <cc:Work>
    <dc:type rdf:resource="http://purl.org/dc/dcmitype/StillImage"/>
    <dc:date>2026-06-29T19:35:19.302096</dc:date>
    <dc:format>image/svg+xml</dc:format>
    <dc:creator>
     <cc:Agent>
      <dc:title>Matplotlib v3.11.0, https://matplotlib.org/</dc:title>
     </cc:Agent>
    </dc:creator>
   </cc:Work>
  </rdf:RDF>
 </metadata>
 <defs>
  <style type="text/css">*{stroke-linejoin: round; stroke-linecap: butt}</style>
 </defs>
 <g id="figure_1">
  <g id="patch_1">
   <path d="M 0 291.635562 
L 382.390859 291.635562 
L 382.390859 0 
L 0 0 
z
" style="fill: #ffffff"/>
  </g>
  <g id="axes_1">
   <g id="patch_2">
    <path d="M 50.3 254.624 
L 365.12 254.624 
L 365.12 79.52 
L 50.3 79.52 
z
" style="fill: #ffffff"/>
   </g>
   <g id="matplotlib.axis_1">
    <g id="xtick_1">
     <g id="line2d_1">
      <path d="M 50.3 254.624 
L 50.3 79.52 
" clip-path="url(#pc3e34cd94f)" style="fill: none; stroke: #e2e8f0; stroke-opacity: 0.4; stroke-width: 0.5; stroke-linecap: square"/>
     </g>
     <g id="line2d_2"/>
     <g id="text_1">
      <!-- -2.0 -->
      <g style="fill: #94a3b8" transform="translate(42.2225 266.044) scale(0.09 -0.09)">
       <defs>
        <path id="NotoSansSC-Medium-e" d="M 301 1536 
L 1990 1536 
L 1990 2080 
L 301 2080 
L 301 1536 
z
" transform="scale(0.015625)"/>
        <path id="NotoSansSC-Medium-13" d="M 282 0 
L 3322 0 
L 3322 627 
L 2144 627 
C 1914 627 1619 608 1376 582 
C 2374 1536 3098 2477 3098 3386 
C 3098 4237 2541 4800 1677 4800 
C 1062 4800 646 4538 243 4096 
L 659 3686 
C 909 3974 1216 4211 1587 4211 
C 2118 4211 2387 3859 2387 3347 
C 2387 2573 1670 1658 282 429 
L 282 0 
z
" transform="scale(0.015625)"/>
        <path id="NotoSansSC-Medium-f" d="M 954 -83 
C 1229 -83 1446 128 1446 429 
C 1446 736 1229 954 954 954 
C 678 954 461 736 461 429 
C 461 128 678 -83 954 -83 
z
" transform="scale(0.015625)"/>
        <path id="NotoSansSC-Medium-11" d="M 1824 -83 
C 2746 -83 3347 736 3347 2374 
C 3347 4000 2746 4800 1824 4800 
C 902 4800 301 4006 301 2374 
C 301 736 902 -83 1824 -83 
z
M 1824 499 
C 1344 499 1005 1011 1005 2374 
C 1005 3725 1344 4218 1824 4218 
C 2304 4218 2643 3725 2643 2374 
C 2643 1011 2304 499 1824 499 
z
" transform="scale(0.015625)"/>
       </defs>
       <use xlink:href="#NotoSansSC-Medium-e"/>
       <use xlink:href="#NotoSansSC-Medium-13" transform="translate(35.703125 0)"/>
       <use xlink:href="#NotoSansSC-Medium-f" transform="translate(92.703125 0)"/>
       <use xlink:href="#NotoSansSC-Medium-11" transform="translate(122.5 0)"/>
      </g>
     </g>
    </g>
    <g id="xtick_2">
     <g id="line2d_3">
      <path d="M 95.274286 254.624 
L 95.274286 79.52 
" clip-path="url(#pc3e34cd94f)" style="fill: none; stroke: #e2e8f0; stroke-opacity: 0.4; stroke-width: 0.5; stroke-linecap: square"/>
     </g>
     <g id="line2d_4"/>
     <g id="text_2">
      <!-- -1.5 -->
      <g style="fill: #94a3b8" transform="translate(87.196786 266.044) scale(0.09 -0.09)">
       <defs>
        <path id="NotoSansSC-Medium-12" d="M 550 0 
L 3238 0 
L 3238 608 
L 2317 608 
L 2317 4717 
L 1760 4717 
C 1491 4544 1178 4435 736 4352 
L 736 3885 
L 1581 3885 
L 1581 608 
L 550 608 
L 550 0 
z
" transform="scale(0.015625)"/>
        <path id="NotoSansSC-Medium-16" d="M 1715 -83 
C 2541 -83 3302 506 3302 1549 
C 3302 2579 2656 3046 1869 3046 
C 1613 3046 1427 2982 1222 2880 
L 1331 4090 
L 3078 4090 
L 3078 4717 
L 691 4717 
L 550 2477 
L 909 2240 
C 1184 2419 1363 2509 1664 2509 
C 2202 2509 2560 2150 2560 1523 
C 2560 896 2157 518 1626 518 
C 1133 518 794 755 525 1024 
L 173 544 
C 506 218 973 -83 1715 -83 
z
" transform="scale(0.015625)"/>
       </defs>
       <use xlink:href="#NotoSansSC-Medium-e"/>
       <use xlink:href="#NotoSansSC-Medium-12" transform="translate(35.703125 0)"/>
       <use xlink:href="#NotoSansSC-Medium-f" transform="translate(92.703125 0)"/>
       <use xlink:href="#NotoSansSC-Medium-16" transform="translate(122.5 0)"/>
      </g>
     </g>
    </g>
    <g id="xtick_3">
     <g id="line2d_5">
      <path d="M 140.248571 254.624 
L 140.248571 79.52 
" clip-path="url(#pc3e34cd94f)" style="fill: none; stroke: #e2e8f0; stroke-opacity: 0.4; stroke-width: 0.5; stroke-linecap: square"/>
     </g>
     <g id="line2d_6"/>
     <g id="text_3">
      <!-- -1.0 -->
      <g style="fill: #94a3b8" transform="translate(132.171071 266.044) scale(0.09 -0.09)">
       <use xlink:href="#NotoSansSC-Medium-e"/>
       <use xlink:href="#NotoSansSC-Medium-12" transform="translate(35.703125 0)"/>
       <use xlink:href="#NotoSansSC-Medium-f" transform="translate(92.703125 0)"/>
       <use xlink:href="#NotoSansSC-Medium-11" transform="translate(122.5 0)"/>
      </g>
     </g>
    </g>
    <g id="xtick_4">
     <g id="line2d_7">
      <path d="M 185.222857 254.624 
L 185.222857 79.52 
" clip-path="url(#pc3e34cd94f)" style="fill: none; stroke: #e2e8f0; stroke-opacity: 0.4; stroke-width: 0.5; stroke-linecap: square"/>
     </g>
     <g id="line2d_8"/>
     <g id="text_4">
      <!-- -0.5 -->
      <g style="fill: #94a3b8" transform="translate(177.145357 266.044) scale(0.09 -0.09)">
       <use xlink:href="#NotoSansSC-Medium-e"/>
       <use xlink:href="#NotoSansSC-Medium-11" transform="translate(35.703125 0)"/>
       <use xlink:href="#NotoSansSC-Medium-f" transform="translate(92.703125 0)"/>
       <use xlink:href="#NotoSansSC-Medium-16" transform="translate(122.5 0)"/>
      </g>
     </g>
    </g>
    <g id="xtick_5">
     <g id="line2d_9">
      <path d="M 230.197143 254.624 
L 230.197143 79.52 
" clip-path="url(#pc3e34cd94f)" style="fill: none; stroke: #e2e8f0; stroke-opacity: 0.4; stroke-width: 0.5; stroke-linecap: square"/>
     </g>
     <g id="line2d_10"/>
     <g id="text_5">
      <!-- 0.0 -->
      <g style="fill: #94a3b8" transform="translate(223.726283 266.044) scale(0.09 -0.09)">
       <use xlink:href="#NotoSansSC-Medium-11"/>
       <use xlink:href="#NotoSansSC-Medium-f" transform="translate(57 0)"/>
       <use xlink:href="#NotoSansSC-Medium-11" transform="translate(86.796875 0)"/>
      </g>
     </g>
    </g>
    <g id="xtick_6">
     <g id="line2d_11">
      <path d="M 275.171429 254.624 
L 275.171429 79.52 
" clip-path="url(#pc3e34cd94f)" style="fill: none; stroke: #e2e8f0; stroke-opacity: 0.4; stroke-width: 0.5; stroke-linecap: square"/>
     </g>
     <g id="line2d_12"/>
     <g id="text_6">
      <!-- 0.5 -->
      <g style="fill: #94a3b8" transform="translate(268.700569 266.044) scale(0.09 -0.09)">
       <use xlink:href="#NotoSansSC-Medium-11"/>
       <use xlink:href="#NotoSansSC-Medium-f" transform="translate(57 0)"/>
       <use xlink:href="#NotoSansSC-Medium-16" transform="translate(86.796875 0)"/>
      </g>
     </g>
    </g>
    <g id="xtick_7">
     <g id="line2d_13">
      <path d="M 320.145714 254.624 
L 320.145714 79.52 
" clip-path="url(#pc3e34cd94f)" style="fill: none; stroke: #e2e8f0; stroke-opacity: 0.4; stroke-width: 0.5; stroke-linecap: square"/>
     </g>
     <g id="line2d_14"/>
     <g id="text_7">
      <!-- 1.0 -->
      <g style="fill: #94a3b8" transform="translate(313.674855 266.044) scale(0.09 -0.09)">
       <use xlink:href="#NotoSansSC-Medium-12"/>
       <use xlink:href="#NotoSansSC-Medium-f" transform="translate(57 0)"/>
       <use xlink:href="#NotoSansSC-Medium-11" transform="translate(86.796875 0)"/>
      </g>
     </g>
    </g>
    <g id="xtick_8">
     <g id="line2d_15">
      <path d="M 365.12 254.624 
L 365.12 79.52 
" clip-path="url(#pc3e34cd94f)" style="fill: none; stroke: #e2e8f0; stroke-opacity: 0.4; stroke-width: 0.5; stroke-linecap: square"/>
     </g>
     <g id="line2d_16"/>
     <g id="text_8">
      <!-- 1.5 -->
      <g style="fill: #94a3b8" transform="translate(358.649141 266.044) scale(0.09 -0.09)">
       <use xlink:href="#NotoSansSC-Medium-12"/>
       <use xlink:href="#NotoSansSC-Medium-f" transform="translate(57 0)"/>
       <use xlink:href="#NotoSansSC-Medium-16" transform="translate(86.796875 0)"/>
      </g>
     </g>
    </g>
    <g id="text_9">
     <!-- 涨跌幅 (%) -->
     <g style="fill: #64748b" transform="translate(185.776719 279.044) scale(0.09 -0.09)">
      <defs>
       <path id="NotoSansSC-Medium-417c" d="M 5478 5184 
C 5210 4512 4742 3866 4256 3450 
C 4371 3354 4576 3149 4653 3053 
C 5165 3533 5670 4275 5990 5037 
L 5478 5184 
z
M 1658 4429 
C 1485 4659 1114 5005 813 5235 
L 422 4928 
C 723 4672 1088 4307 1248 4070 
L 1658 4429 
z
M 864 -410 
C 1050 192 1261 966 1414 1645 
L 947 1907 
C 781 1171 538 346 346 -160 
L 864 -410 
z
M 218 3232 
C 518 2989 890 2630 1056 2400 
L 1453 2771 
C 1267 3002 890 3334 589 3565 
L 218 3232 
z
M 2125 2221 
C 2150 2522 2176 2867 2195 3200 
L 3155 3200 
L 3155 5171 
L 1664 5171 
L 1664 4634 
L 2662 4634 
L 2662 3744 
L 1728 3744 
C 1702 3091 1645 2246 1581 1728 
L 2624 1728 
C 2560 646 2490 230 2400 122 
C 2349 58 2298 45 2202 45 
C 2112 51 1888 51 1645 70 
C 1728 -77 1779 -301 1792 -461 
C 2061 -474 2323 -474 2464 -448 
C 2630 -429 2739 -384 2842 -256 
C 3014 -64 3078 525 3155 1997 
C 3162 2067 3168 2221 3168 2221 
L 2125 2221 
z
M 6144 2413 
L 6144 2957 
L 4205 2957 
L 4205 5293 
L 3661 5293 
L 3661 2957 
L 3194 2957 
L 3194 2413 
L 3661 2413 
L 3661 422 
C 3661 160 3501 38 3379 -26 
C 3469 -141 3578 -378 3610 -518 
C 3718 -422 3904 -339 5024 109 
C 4998 230 4979 454 4979 614 
L 4205 339 
L 4205 2413 
L 4563 2413 
C 4781 1229 5184 192 5818 -410 
C 5907 -275 6074 -83 6202 13 
C 5638 486 5267 1402 5056 2413 
L 6144 2413 
z
" transform="scale(0.015625)"/>
       <path id="NotoSansSC-Medium-617d" d="M 1050 4595 
L 1965 4595 
L 1965 3610 
L 1050 3610 
L 1050 4595 
z
M 2547 954 
L 1907 781 
L 1907 1786 
L 2528 1786 
L 2528 2304 
L 1907 2304 
L 1907 3104 
L 2509 3104 
L 2509 5107 
L 544 5107 
L 544 3104 
L 1389 3104 
L 1389 646 
L 1018 550 
L 1018 2560 
L 531 2560 
L 531 422 
C 422 397 320 378 224 358 
L 365 -205 
C 998 -26 1830 211 2624 442 
L 2547 954 
z
M 6054 1997 
L 6054 2560 
L 4640 2560 
C 4659 2784 4666 3002 4666 3213 
L 4666 3712 
L 5933 3712 
L 5933 4256 
L 4666 4256 
L 4666 5318 
L 4083 5318 
L 4083 4256 
L 3558 4256 
C 3616 4506 3654 4762 3686 5018 
L 3136 5107 
C 3046 4365 2880 3610 2592 3136 
C 2720 3066 2970 2925 3072 2835 
C 3213 3078 3322 3379 3424 3712 
L 4083 3712 
L 4083 3219 
C 4083 3008 4083 2784 4064 2560 
L 2662 2560 
L 2662 1997 
L 3987 1997 
C 3834 1229 3430 467 2387 -77 
C 2534 -186 2720 -397 2803 -525 
C 3667 -32 4134 614 4384 1293 
C 4691 512 5139 -115 5792 -480 
C 5882 -320 6074 -96 6202 13 
C 5453 365 4960 1107 4691 1997 
L 6054 1997 
z
" transform="scale(0.015625)"/>
       <path id="NotoSansSC-Medium-3225" d="M 2586 4179 
L 1741 4179 
L 1741 5363 
L 1235 5363 
L 1235 4179 
L 410 4179 
L 410 806 
L 858 806 
L 858 3654 
L 1235 3654 
L 1235 -506 
L 1741 -506 
L 1741 3654 
L 2150 3654 
L 2150 1440 
C 2150 1382 2138 1370 2093 1370 
L 1805 1370 
C 1882 1235 1946 1011 1952 870 
C 2176 870 2323 883 2438 979 
C 2560 1062 2586 1229 2586 1427 
L 2586 4179 
z
M 4109 1760 
L 4109 1203 
L 3334 1203 
L 3334 1760 
L 4109 1760 
z
M 5459 1203 
L 4614 1203 
L 4614 1760 
L 5459 1760 
L 5459 1203 
z
M 4614 173 
L 4614 736 
L 5459 736 
L 5459 173 
L 4614 173 
z
M 3334 173 
L 3334 736 
L 4109 736 
L 4109 173 
L 3334 173 
z
M 2803 -499 
L 3334 -499 
L 3334 -294 
L 5459 -294 
L 5459 -486 
L 6010 -486 
L 6010 2234 
L 2803 2234 
L 2803 -499 
z
M 5235 3104 
L 3597 3104 
L 3597 3725 
L 5235 3725 
L 5235 3104 
z
M 3085 4179 
L 3085 2656 
L 5766 2656 
L 5766 4179 
L 3085 4179 
z
M 2784 5062 
L 2784 4576 
L 6067 4576 
L 6067 5062 
L 2784 5062 
z
" transform="scale(0.015625)"/>
       <path id="NotoSansSC-Medium-1" transform="scale(0.015625)"/>
       <path id="NotoSansSC-Medium-9" d="M 1517 -1274 
L 1978 -1069 
C 1427 -154 1171 928 1171 2003 
C 1171 3072 1427 4154 1978 5075 
L 1517 5274 
C 922 4307 570 3264 570 2003 
C 570 730 922 -301 1517 -1274 
z
" transform="scale(0.015625)"/>
       <path id="NotoSansSC-Medium-6" d="M 1331 1818 
C 1990 1818 2438 2368 2438 3315 
C 2438 4262 1990 4800 1331 4800 
C 672 4800 230 4262 230 3315 
C 230 2368 672 1818 1331 1818 
z
M 1331 2253 
C 1005 2253 768 2592 768 3315 
C 768 4045 1005 4365 1331 4365 
C 1664 4365 1901 4045 1901 3315 
C 1901 2592 1664 2253 1331 2253 
z
M 1478 -83 
L 1946 -83 
L 4525 4800 
L 4058 4800 
L 1478 -83 
z
M 4678 -83 
C 5331 -83 5779 461 5779 1408 
C 5779 2355 5331 2893 4678 2893 
C 4019 2893 3571 2355 3571 1408 
C 3571 461 4019 -83 4678 -83 
z
M 4678 346 
C 4346 346 4115 685 4115 1408 
C 4115 2138 4346 2458 4678 2458 
C 5005 2458 5242 2138 5242 1408 
C 5242 685 5005 346 4678 346 
z
" transform="scale(0.015625)"/>
       <path id="NotoSansSC-Medium-a" d="M 755 -1274 
C 1357 -301 1709 730 1709 2003 
C 1709 3264 1357 4307 755 5274 
L 294 5075 
C 845 4154 1101 3072 1101 2003 
C 1101 928 845 -154 294 -1069 
L 755 -1274 
z
" transform="scale(0.015625)"/>
      </defs>
      <use xlink:href="#NotoSansSC-Medium-417c"/>
      <use xlink:href="#NotoSansSC-Medium-617d" transform="translate(100 0)"/>
      <use xlink:href="#NotoSansSC-Medium-3225" transform="translate(200 0)"/>
      <use xlink:href="#NotoSansSC-Medium-1" transform="translate(300 0)"/>
      <use xlink:href="#NotoSansSC-Medium-9" transform="translate(322.5 0)"/>
      <use xlink:href="#NotoSansSC-Medium-6" transform="translate(358 0)"/>
      <use xlink:href="#NotoSansSC-Medium-a" transform="translate(451.90625 0)"/>
     </g>
    </g>
   </g>
   <g id="matplotlib.axis_2">
    <g id="ytick_1">
     <g id="line2d_17">
      <path d="M 50.3 238.616025 
L 365.12 238.616025 
" clip-path="url(#pc3e34cd94f)" style="fill: none; stroke: #e2e8f0; stroke-opacity: 0.6; stroke-width: 0.5; stroke-linecap: square"/>
     </g>
     <g id="line2d_18"/>
     <g id="text_10">
      <!-- 上证指数 -->
      <g style="fill: #94a3b8" transform="translate(10.8 242.576025) scale(0.09 -0.09)">
       <defs>
        <path id="NotoSansSC-Medium-2205" d="M 3315 403 
L 3315 2784 
L 5626 2784 
L 5626 3379 
L 3315 3379 
L 3315 5280 
L 2675 5280 
L 2675 403 
L 339 403 
L 339 -198 
L 6067 -198 
L 6067 403 
L 3315 403 
z
" transform="scale(0.015625)"/>
        <path id="NotoSansSC-Medium-5f76" d="M 2029 4288 
C 1811 4550 1357 4954 1018 5229 
L 627 4870 
C 973 4570 1414 4154 1613 3878 
L 2029 4288 
z
M 1734 902 
L 1734 3398 
L 326 3398 
L 326 2829 
L 1158 2829 
L 1158 787 
C 1158 429 928 160 781 38 
C 890 -45 1082 -237 1152 -358 
C 1254 -211 1440 -58 2547 851 
C 2477 973 2368 1210 2317 1376 
L 1734 902 
z
M 4730 301 
L 4730 2253 
L 5894 2253 
L 5894 2803 
L 4730 2803 
L 4730 4365 
L 6016 4365 
L 6016 4922 
L 2464 4922 
L 2464 4365 
L 4122 4365 
L 4122 301 
L 3373 301 
L 3373 3270 
L 2784 3270 
L 2784 301 
L 2272 301 
L 2272 -256 
L 6138 -256 
L 6138 301 
L 4730 301 
z
" transform="scale(0.015625)"/>
        <path id="NotoSansSC-Medium-36e2" d="M 2451 2662 
C 2208 2592 1965 2528 1728 2464 
L 1728 3571 
L 2426 3571 
L 2426 4122 
L 1728 4122 
L 1728 5363 
L 1139 5363 
L 1139 4122 
L 301 4122 
L 301 3571 
L 1139 3571 
L 1139 2298 
C 787 2202 467 2131 211 2067 
L 365 1491 
C 602 1555 864 1626 1139 1709 
L 1139 160 
C 1139 64 1107 38 1018 38 
C 941 32 678 32 410 45 
C 480 -109 563 -352 582 -499 
C 1011 -506 1286 -486 1478 -397 
C 1664 -307 1728 -147 1728 160 
L 1728 1882 
L 2528 2112 
L 2451 2662 
z
M 5242 1830 
L 5242 1293 
L 3360 1293 
L 3360 1830 
L 5242 1830 
z
M 3360 269 
L 3360 826 
L 5242 826 
L 5242 269 
L 3360 269 
z
M 2797 -499 
L 3360 -499 
L 3360 -211 
L 5242 -211 
L 5242 -467 
L 5830 -467 
L 5830 2323 
L 2797 2323 
L 2797 -499 
z
M 3859 3322 
C 3469 3322 3392 3360 3392 3584 
L 3392 3968 
C 4192 4115 5094 4333 5734 4595 
L 5293 5030 
C 4838 4819 4096 4602 3392 4448 
L 3392 5350 
L 2803 5350 
L 2803 3584 
C 2803 2957 3014 2784 3814 2784 
L 5190 2784 
C 5862 2784 6042 3008 6118 3872 
C 5965 3910 5715 3994 5581 4090 
C 5536 3437 5485 3322 5152 3322 
L 3859 3322 
z
" transform="scale(0.015625)"/>
        <path id="NotoSansSC-Medium-394a" d="M 2784 5267 
C 2675 5018 2483 4666 2330 4435 
L 2714 4262 
C 2886 4461 3091 4768 3283 5056 
L 2784 5267 
z
M 1363 4422 
C 1306 4653 1133 4986 966 5229 
L 531 5050 
C 698 4794 858 4448 909 4224 
L 1363 4422 
z
M 1600 2573 
L 2144 2573 
L 2144 3366 
C 2426 3155 2752 2893 2906 2746 
L 3226 3168 
C 3091 3258 2624 3552 2310 3738 
L 3405 3738 
L 3405 4211 
L 2144 4211 
L 2144 5370 
L 1600 5370 
L 1600 4211 
L 333 4211 
L 333 3738 
L 1414 3738 
C 1107 3366 653 3021 237 2854 
C 352 2739 486 2541 550 2406 
C 909 2598 1293 2912 1600 3245 
L 1600 2573 
z
M 2534 1613 
C 2400 1331 2221 1088 2010 877 
C 1798 986 1587 1088 1376 1178 
C 1453 1312 1536 1459 1619 1613 
L 2534 1613 
z
M 2957 326 
C 2822 422 2643 525 2458 634 
C 2790 998 3046 1446 3206 1997 
L 2886 2125 
L 2790 2099 
L 1850 2099 
C 1894 2202 1939 2298 1978 2394 
L 1446 2496 
C 1408 2368 1350 2240 1286 2099 
L 454 2099 
L 454 1613 
L 1043 1613 
C 909 1382 781 1152 653 979 
C 954 858 1286 710 1594 544 
C 1203 282 749 102 256 -13 
C 358 -122 474 -333 525 -461 
C 1107 -307 1632 -70 2074 275 
C 2278 160 2458 38 2598 -70 
L 2957 326 
z
M 5094 3610 
C 5005 2957 4870 2394 4685 1894 
C 4474 2419 4314 2995 4205 3610 
L 5094 3610 
z
M 6061 3610 
L 6061 4166 
L 4307 4166 
C 4390 4512 4461 4877 4512 5248 
L 3968 5325 
C 3821 4205 3533 3142 3034 2470 
C 3162 2387 3386 2202 3475 2099 
C 3616 2304 3750 2541 3866 2810 
C 3994 2246 4166 1734 4378 1274 
C 4032 698 3552 269 2886 -45 
C 2982 -160 3149 -410 3200 -531 
C 3827 -205 4301 211 4666 730 
C 4973 243 5350 -166 5818 -448 
C 5907 -307 6074 -90 6208 13 
C 5702 294 5299 723 4986 1267 
C 5312 1907 5510 2682 5645 3610 
L 6061 3610 
z
" transform="scale(0.015625)"/>
       </defs>
       <use xlink:href="#NotoSansSC-Medium-2205"/>
       <use xlink:href="#NotoSansSC-Medium-5f76" transform="translate(100 0)"/>
       <use xlink:href="#NotoSansSC-Medium-36e2" transform="translate(200 0)"/>
       <use xlink:href="#NotoSansSC-Medium-394a" transform="translate(300 0)"/>
      </g>
     </g>
    </g>
    <g id="ytick_2">
     <g id="line2d_19">
      <path d="M 50.3 202.844012 
L 365.12 202.844012 
" clip-path="url(#pc3e34cd94f)" style="fill: none; stroke: #e2e8f0; stroke-opacity: 0.6; stroke-width: 0.5; stroke-linecap: square"/>
     </g>
     <g id="line2d_20"/>
     <g id="text_11">
      <!-- 深证成指 -->
      <g style="fill: #94a3b8" transform="translate(10.8 206.804012) scale(0.09 -0.09)">
       <defs>
        <path id="NotoSansSC-Medium-41c4" d="M 2624 4531 
L 5344 4531 
L 5344 3859 
L 5888 3859 
L 5888 5037 
L 2099 5037 
L 2099 3834 
L 2624 3834 
L 2624 4531 
z
M 4192 3942 
C 4634 3533 5152 2963 5376 2598 
L 5837 2918 
C 5594 3290 5056 3840 4621 4224 
L 4192 3942 
z
M 3194 4173 
C 2931 3712 2477 3270 2016 2989 
C 2144 2893 2349 2688 2438 2579 
C 2906 2918 3418 3456 3731 3994 
L 3194 4173 
z
M 1888 4691 
C 1645 4870 1171 5139 832 5293 
L 525 4845 
C 877 4659 1344 4378 1574 4192 
L 1888 4691 
z
M 1670 2931 
C 1414 3130 909 3405 538 3578 
L 250 3130 
C 627 2944 1126 2643 1370 2438 
L 1670 2931 
z
M 1408 2010 
C 1082 1293 672 486 384 13 
L 826 -410 
C 1146 192 1510 947 1798 1606 
L 1408 2010 
z
M 5907 1766 
L 5907 2304 
L 4275 2304 
L 4275 2970 
L 3680 2970 
L 3680 2304 
L 2074 2304 
L 2074 1766 
L 3334 1766 
C 2957 1126 2362 563 1709 269 
C 1843 160 2016 -45 2106 -186 
C 2720 141 3283 704 3680 1370 
L 3680 -461 
L 4275 -461 
L 4275 1376 
C 4646 749 5158 179 5683 -166 
C 5786 -13 5978 192 6106 307 
C 5542 608 4979 1171 4621 1766 
L 5907 1766 
z
" transform="scale(0.015625)"/>
        <path id="NotoSansSC-Medium-35ef" d="M 5114 3334 
C 4928 2746 4691 2214 4384 1741 
C 4237 2310 4134 3002 4070 3763 
L 6080 3763 
L 6080 4346 
L 5427 4346 
L 5734 4672 
C 5485 4890 5005 5184 4627 5382 
L 4269 5018 
C 4608 4832 5024 4557 5274 4346 
L 4038 4346 
C 4019 4678 4013 5018 4019 5363 
L 3392 5363 
C 3392 5024 3405 4678 3424 4346 
L 794 4346 
L 794 2534 
C 794 1709 749 608 237 -160 
C 371 -237 634 -448 736 -570 
C 1299 256 1408 1536 1414 2445 
L 2438 2445 
C 2419 1478 2381 1114 2310 1024 
C 2266 966 2202 947 2112 947 
C 2010 947 1760 954 1498 979 
C 1587 826 1645 595 1658 422 
C 1965 410 2253 410 2413 435 
C 2586 454 2707 506 2822 640 
C 2957 819 2989 1370 3021 2758 
L 3021 2989 
L 1414 2989 
L 1414 3763 
L 3462 3763 
C 3539 2765 3686 1850 3917 1126 
C 3526 672 3053 301 2522 6 
C 2656 -102 2867 -352 2957 -480 
C 3398 -211 3802 115 4166 499 
C 4454 -102 4826 -461 5293 -461 
C 5818 -461 6035 -160 6131 966 
C 5971 1024 5760 1158 5619 1299 
C 5581 474 5504 147 5338 147 
C 5069 147 4819 480 4602 1024 
C 5069 1638 5446 2362 5715 3187 
L 5114 3334 
z
" transform="scale(0.015625)"/>
       </defs>
       <use xlink:href="#NotoSansSC-Medium-41c4"/>
       <use xlink:href="#NotoSansSC-Medium-5f76" transform="translate(100 0)"/>
       <use xlink:href="#NotoSansSC-Medium-35ef" transform="translate(200 0)"/>
       <use xlink:href="#NotoSansSC-Medium-36e2" transform="translate(300 0)"/>
      </g>
     </g>
    </g>
    <g id="ytick_3">
     <g id="line2d_21">
      <path d="M 50.3 167.072 
L 365.12 167.072 
" clip-path="url(#pc3e34cd94f)" style="fill: none; stroke: #e2e8f0; stroke-opacity: 0.6; stroke-width: 0.5; stroke-linecap: square"/>
     </g>
     <g id="line2d_22"/>
     <g id="text_12">
      <!-- 创业板指 -->
      <g style="fill: #94a3b8" transform="translate(10.8 171.032) scale(0.09 -0.09)">
       <defs>
        <path id="NotoSansSC-Medium-2612" d="M 1024 3059 
C 1446 3462 1824 3930 2131 4442 
C 2534 3987 2976 3462 3258 3059 
L 1024 3059 
z
M 3821 3270 
C 3526 3712 2906 4397 2394 4928 
C 2438 5018 2483 5101 2522 5197 
L 1971 5370 
C 1638 4550 966 3686 179 3136 
C 307 3040 512 2829 608 2707 
C 717 2790 813 2867 915 2957 
L 915 390 
C 915 -250 1114 -410 1786 -410 
L 2899 -410 
C 3501 -410 3661 -154 3731 736 
C 3578 768 3341 858 3213 960 
C 3181 237 3130 102 2854 102 
L 1850 102 
C 1542 102 1491 141 1491 390 
L 1491 2541 
L 2707 2541 
C 2669 1869 2618 1587 2541 1504 
C 2502 1453 2451 1440 2362 1440 
C 2272 1440 2067 1446 1837 1472 
C 1920 1325 1978 1114 1990 966 
C 2246 954 2502 954 2637 966 
C 2803 992 2918 1037 3027 1152 
C 3168 1318 3238 1760 3296 2842 
C 3302 2880 3302 2950 3302 3002 
C 3334 2957 3366 2912 3392 2867 
L 3821 3270 
z
M 4602 4634 
L 4032 4634 
L 4032 1082 
L 4602 1082 
L 4602 4634 
z
M 5261 5261 
L 5261 237 
C 5261 115 5210 77 5088 70 
C 4966 64 4550 64 4128 83 
C 4211 -77 4301 -333 4333 -493 
C 4922 -493 5299 -480 5530 -384 
C 5760 -294 5850 -128 5850 237 
L 5850 5261 
L 5261 5261 
z
" transform="scale(0.015625)"/>
        <path id="NotoSansSC-Medium-2215" d="M 5382 3949 
C 5146 3213 4710 2278 4371 1696 
L 4864 1440 
C 5210 2042 5626 2925 5926 3686 
L 5382 3949 
z
M 1926 1702 
C 1760 2278 1376 3238 1056 3968 
L 512 3795 
C 826 3059 1184 2074 1331 1485 
L 1926 1702 
z
M 4294 397 
L 4294 5280 
L 3686 5280 
L 3686 397 
L 2720 397 
L 2720 5286 
L 2112 5286 
L 2112 397 
L 390 397 
L 390 -192 
L 6016 -192 
L 6016 397 
L 4294 397 
z
" transform="scale(0.015625)"/>
        <path id="NotoSansSC-Medium-3b56" d="M 2509 2310 
C 2406 2496 1933 3213 1760 3437 
L 1760 3610 
L 2483 3610 
L 2483 4160 
L 1760 4160 
L 1760 5363 
L 1203 5363 
L 1203 4160 
L 371 4160 
L 371 3610 
L 1171 3610 
C 979 2778 608 1805 205 1312 
C 307 1165 429 890 486 723 
C 749 1120 1005 1747 1203 2419 
L 1203 -506 
L 1760 -506 
L 1760 2726 
C 1920 2419 2080 2067 2157 1862 
L 2509 2310 
z
M 5190 3008 
C 5050 2413 4832 1894 4557 1453 
C 4294 1914 4090 2438 3949 3008 
L 5190 3008 
z
M 5485 3565 
L 5376 3546 
L 3309 3546 
L 3309 4333 
C 4250 4397 5293 4531 5978 4800 
L 5581 5280 
C 4922 5011 3738 4870 2726 4813 
L 2726 3283 
C 2726 2272 2662 819 1952 -192 
C 2086 -256 2342 -429 2445 -531 
C 3130 454 3283 1926 3309 3008 
L 3418 3008 
C 3597 2227 3846 1536 4192 960 
C 3814 518 3366 186 2861 -19 
C 2976 -134 3136 -358 3213 -512 
C 3718 -275 4160 45 4538 461 
C 4877 38 5293 -288 5792 -525 
C 5875 -358 6054 -128 6189 -13 
C 5677 186 5261 512 4922 934 
C 5363 1581 5690 2406 5856 3450 
L 5485 3565 
z
" transform="scale(0.015625)"/>
       </defs>
       <use xlink:href="#NotoSansSC-Medium-2612"/>
       <use xlink:href="#NotoSansSC-Medium-2215" transform="translate(100 0)"/>
       <use xlink:href="#NotoSansSC-Medium-3b56" transform="translate(200 0)"/>
       <use xlink:href="#NotoSansSC-Medium-36e2" transform="translate(300 0)"/>
      </g>
     </g>
    </g>
    <g id="ytick_4">
     <g id="line2d_23">
      <path d="M 50.3 131.299988 
L 365.12 131.299988 
" clip-path="url(#pc3e34cd94f)" style="fill: none; stroke: #e2e8f0; stroke-opacity: 0.6; stroke-width: 0.5; stroke-linecap: square"/>
     </g>
     <g id="line2d_24"/>
     <g id="text_13">
      <!-- 科创综指 -->
      <g style="fill: #94a3b8" transform="translate(10.8 135.259988) scale(0.09 -0.09)">
       <defs>
        <path id="NotoSansSC-Medium-4d95" d="M 4563 4064 
C 4352 4333 3910 4704 3546 4954 
L 3155 4614 
C 3520 4346 3955 3955 4147 3686 
L 4563 4064 
z
M 4390 2394 
C 4166 2662 3680 3046 3296 3302 
L 2918 2957 
C 3309 2688 3776 2278 3987 2003 
L 4390 2394 
z
M 2739 1920 
C 2618 2086 2074 2739 1882 2938 
L 1882 3027 
L 2778 3027 
L 2778 3584 
L 1882 3584 
L 1882 4563 
C 2182 4634 2464 4710 2707 4806 
L 2368 5293 
C 1869 5075 1050 4890 333 4774 
C 397 4653 480 4442 499 4314 
C 755 4352 1030 4390 1306 4442 
L 1306 3584 
L 282 3584 
L 282 3027 
L 1222 3027 
C 986 2349 576 1587 198 1152 
C 288 1005 429 762 486 602 
C 781 966 1069 1510 1306 2093 
L 1306 -499 
L 1882 -499 
L 1882 2298 
C 2074 2003 2291 1645 2381 1453 
L 2739 1920 
z
M 6170 1274 
L 6080 1830 
L 5382 1715 
L 5382 5370 
L 4794 5370 
L 4794 1619 
L 2688 1267 
L 2778 698 
L 4794 1037 
L 4794 -499 
L 5382 -499 
L 5382 1139 
L 6170 1274 
z
" transform="scale(0.015625)"/>
        <path id="NotoSansSC-Medium-52bd" d="M 3130 4096 
L 5427 4096 
L 5427 3482 
L 6016 3482 
L 6016 4608 
L 4742 4608 
C 4666 4845 4518 5158 4378 5408 
L 3808 5267 
C 3904 5069 4013 4819 4090 4608 
L 2566 4608 
L 2566 3482 
L 3130 3482 
L 3130 4096 
z
M 3117 2944 
L 5459 2944 
L 5459 3456 
L 3117 3456 
L 3117 2944 
z
M 1248 1894 
C 1702 2438 2150 3098 2522 3744 
L 2054 4026 
C 1946 3802 1811 3571 1677 3347 
L 960 3283 
C 1318 3814 1677 4480 1933 5120 
L 1395 5370 
C 1165 4608 730 3795 589 3597 
C 454 3379 352 3232 230 3206 
C 301 3059 390 2790 416 2675 
C 506 2726 659 2758 1363 2848 
C 1107 2470 883 2176 768 2061 
C 576 1830 429 1677 288 1638 
C 352 1504 435 1254 461 1146 
C 602 1229 819 1286 2304 1587 
C 2298 1702 2304 1926 2310 2080 
L 1248 1894 
z
M 3110 1427 
C 2931 1082 2662 704 2394 403 
L 2342 864 
C 1581 685 800 506 288 403 
L 397 -166 
C 954 -26 1670 173 2355 352 
C 2304 288 2246 230 2195 186 
C 2323 102 2560 -64 2669 -160 
C 2995 205 3386 762 3654 1254 
L 3110 1427 
z
M 6035 1779 
L 6035 2298 
L 2502 2298 
L 2502 1779 
L 4026 1779 
L 4026 128 
C 4026 64 4000 45 3923 38 
C 3859 38 3590 38 3328 45 
C 3405 -109 3482 -326 3501 -480 
C 3904 -486 4173 -480 4371 -390 
C 4563 -307 4608 -160 4608 115 
L 4608 1779 
L 6035 1779 
z
M 4922 1229 
C 5203 806 5523 237 5664 -109 
L 6202 141 
C 6054 486 5709 1030 5421 1434 
L 4922 1229 
z
" transform="scale(0.015625)"/>
       </defs>
       <use xlink:href="#NotoSansSC-Medium-4d95"/>
       <use xlink:href="#NotoSansSC-Medium-2612" transform="translate(100 0)"/>
       <use xlink:href="#NotoSansSC-Medium-52bd" transform="translate(200 0)"/>
       <use xlink:href="#NotoSansSC-Medium-36e2" transform="translate(300 0)"/>
      </g>
     </g>
    </g>
    <g id="ytick_5">
     <g id="line2d_25">
      <path d="M 50.3 95.527975 
L 365.12 95.527975 
" clip-path="url(#pc3e34cd94f)" style="fill: none; stroke: #e2e8f0; stroke-opacity: 0.6; stroke-width: 0.5; stroke-linecap: square"/>
     </g>
     <g id="line2d_26"/>
     <g id="text_14">
      <!-- 科创50 -->
      <g style="fill: #94a3b8" transform="translate(18.54 99.487975) scale(0.09 -0.09)">
       <use xlink:href="#NotoSansSC-Medium-4d95"/>
       <use xlink:href="#NotoSansSC-Medium-2612" transform="translate(100 0)"/>
       <use xlink:href="#NotoSansSC-Medium-16" transform="translate(200 0)"/>
       <use xlink:href="#NotoSansSC-Medium-11" transform="translate(257 0)"/>
      </g>
     </g>
    </g>
   </g>
   <g id="line2d_27">
    <path d="M 230.197143 254.624 
L 230.197143 79.52 
" clip-path="url(#pc3e34cd94f)" style="fill: none; stroke: #334155; stroke-width: 0.8; stroke-linecap: square"/>
    <defs>
     <path id="mdbf8121982" d="M 0 3 
C 0.795609 3 1.55874 2.683901 2.12132 2.12132 
C 2.683901 1.55874 3 0.795609 3 0 
C 3 -0.795609 2.683901 -1.55874 2.12132 -2.12132 
C 1.55874 -2.683901 0.795609 -3 0 -3 
C -0.795609 -3 -1.55874 -2.683901 -2.12132 -2.12132 
C -2.683901 -1.55874 -3 -0.795609 -3 0 
C -3 0.795609 -2.683901 1.55874 -2.12132 2.12132 
C -1.55874 2.683901 -0.795609 3 0 3 
z
" style="stroke: #334155; stroke-width: 1.5"/>
    </defs>
    <g clip-path="url(#pc3e34cd94f)">
     <use xlink:href="#mdbf8121982" x="230.197143" y="254.624" style="fill: #334155; stroke: #334155; stroke-width: 1.5"/>
     <use xlink:href="#mdbf8121982" x="230.197143" y="79.52" style="fill: #334155; stroke: #334155; stroke-width: 1.5"/>
    </g>
   </g>
   <g id="patch_3">
    <path d="M 230.197143 246.664727 
L 214.905886 246.664727 
L 214.905886 230.567322 
L 230.197143 230.567322 
z
" clip-path="url(#pc3e34cd94f)" style="fill: #16a34a; stroke: #ffffff; stroke-width: 1.5; stroke-linejoin: miter"/>
   </g>
   <g id="patch_4">
    <path d="M 230.197143 210.892715 
L 240.990971 210.892715 
L 240.990971 194.795309 
L 230.197143 194.795309 
z
" clip-path="url(#pc3e34cd94f)" style="fill: #dc2626; stroke: #ffffff; stroke-width: 1.5; stroke-linejoin: miter"/>
   </g>
   <g id="patch_5">
    <path d="M 230.197143 175.120703 
L 278.769371 175.120703 
L 278.769371 159.023297 
L 230.197143 159.023297 
z
" clip-path="url(#pc3e34cd94f)" style="fill: #dc2626; stroke: #ffffff; stroke-width: 1.5; stroke-linejoin: miter"/>
   </g>
   <g id="patch_6">
    <path d="M 230.197143 139.348691 
L 102.470171 139.348691 
L 102.470171 123.251285 
L 230.197143 123.251285 
z
" clip-path="url(#pc3e34cd94f)" style="fill: #16a34a; stroke: #ffffff; stroke-width: 1.5; stroke-linejoin: miter"/>
   </g>
   <g id="patch_7">
    <path d="M 230.197143 103.576678 
L 96.173771 103.576678 
L 96.173771 87.479273 
L 230.197143 87.479273 
z
" clip-path="url(#pc3e34cd94f)" style="fill: #16a34a; stroke: #ffffff; stroke-width: 1.5; stroke-linejoin: miter"/>
   </g>
   <g id="text_15">
    <!-- -0.17% -->
    <g style="fill: #ffffff" transform="translate(181.57138 242.036025) scale(0.09 -0.09)">
     <defs>
      <path id="NotoSansSC-Medium-18" d="M 1235 0 
L 1990 0 
C 2067 1843 2240 2886 3347 4262 
L 3347 4717 
L 314 4717 
L 314 4090 
L 2528 4090 
C 1619 2822 1318 1722 1235 0 
z
" transform="scale(0.015625)"/>
     </defs>
     <use xlink:href="#NotoSansSC-Medium-e"/>
     <use xlink:href="#NotoSansSC-Medium-11" transform="translate(35.703125 0)"/>
     <use xlink:href="#NotoSansSC-Medium-f" transform="translate(92.703125 0)"/>
     <use xlink:href="#NotoSansSC-Medium-12" transform="translate(122.5 0)"/>
     <use xlink:href="#NotoSansSC-Medium-18" transform="translate(179.5 0)"/>
     <use xlink:href="#NotoSansSC-Medium-6" transform="translate(236.5 0)"/>
    </g>
   </g>
   <g id="text_16">
    <!-- +0.12% -->
    <g style="fill: #dc2626" transform="translate(244.588914 206.264012) scale(0.09 -0.09)">
     <defs>
      <path id="NotoSansSC-Medium-c" d="M 1542 730 
L 2106 730 
L 2106 2112 
L 3405 2112 
L 3405 2643 
L 2106 2643 
L 2106 4026 
L 1542 4026 
L 1542 2643 
L 243 2643 
L 243 2112 
L 1542 2112 
L 1542 730 
z
" transform="scale(0.015625)"/>
     </defs>
     <use xlink:href="#NotoSansSC-Medium-c"/>
     <use xlink:href="#NotoSansSC-Medium-11" transform="translate(57 0)"/>
     <use xlink:href="#NotoSansSC-Medium-f" transform="translate(114 0)"/>
     <use xlink:href="#NotoSansSC-Medium-12" transform="translate(143.796875 0)"/>
     <use xlink:href="#NotoSansSC-Medium-13" transform="translate(200.796875 0)"/>
     <use xlink:href="#NotoSansSC-Medium-6" transform="translate(257.796875 0)"/>
    </g>
   </g>
   <g id="text_17">
    <!-- +0.54% -->
    <g style="fill: #dc2626" transform="translate(282.367314 170.492) scale(0.09 -0.09)">
     <defs>
      <path id="NotoSansSC-Medium-15" d="M 870 1837 
L 1798 3258 
C 1933 3501 2061 3744 2176 3987 
L 2202 3987 
C 2189 3725 2170 3328 2170 3072 
L 2170 1837 
L 870 1837 
z
M 2170 0 
L 2861 0 
L 2861 1267 
L 3456 1267 
L 3456 1837 
L 2861 1837 
L 2861 4717 
L 2003 4717 
L 128 1760 
L 128 1267 
L 2170 1267 
L 2170 0 
z
" transform="scale(0.015625)"/>
     </defs>
     <use xlink:href="#NotoSansSC-Medium-c"/>
     <use xlink:href="#NotoSansSC-Medium-11" transform="translate(57 0)"/>
     <use xlink:href="#NotoSansSC-Medium-f" transform="translate(114 0)"/>
     <use xlink:href="#NotoSansSC-Medium-16" transform="translate(143.796875 0)"/>
     <use xlink:href="#NotoSansSC-Medium-15" transform="translate(200.796875 0)"/>
     <use xlink:href="#NotoSansSC-Medium-6" transform="translate(257.796875 0)"/>
    </g>
   </g>
   <g id="text_18">
    <!-- -1.42% -->
    <g style="fill: #ffffff" transform="translate(69.135666 134.719988) scale(0.09 -0.09)">
     <use xlink:href="#NotoSansSC-Medium-e"/>
     <use xlink:href="#NotoSansSC-Medium-12" transform="translate(35.703125 0)"/>
     <use xlink:href="#NotoSansSC-Medium-f" transform="translate(92.703125 0)"/>
     <use xlink:href="#NotoSansSC-Medium-15" transform="translate(122.5 0)"/>
     <use xlink:href="#NotoSansSC-Medium-13" transform="translate(179.5 0)"/>
     <use xlink:href="#NotoSansSC-Medium-6" transform="translate(236.5 0)"/>
    </g>
   </g>
   <g id="text_19">
    <!-- -1.49% -->
    <g style="fill: #ffffff" transform="translate(62.839266 98.947975) scale(0.09 -0.09)">
     <defs>
      <path id="NotoSansSC-Medium-1a" d="M 960 3251 
C 960 3866 1280 4230 1683 4230 
C 2195 4230 2547 3808 2618 2880 
C 2349 2477 2016 2304 1722 2304 
C 1229 2304 960 2650 960 3251 
z
M 1555 -83 
C 2464 -83 3309 659 3309 2515 
C 3309 4077 2579 4800 1677 4800 
C 915 4800 275 4186 275 3251 
C 275 2266 806 1773 1594 1773 
C 1952 1773 2355 1984 2630 2323 
C 2586 979 2093 518 1523 518 
C 1229 518 941 659 755 870 
L 352 416 
C 627 134 1011 -83 1555 -83 
z
" transform="scale(0.015625)"/>
     </defs>
     <use xlink:href="#NotoSansSC-Medium-e"/>
     <use xlink:href="#NotoSansSC-Medium-12" transform="translate(35.703125 0)"/>
     <use xlink:href="#NotoSansSC-Medium-f" transform="translate(92.703125 0)"/>
     <use xlink:href="#NotoSansSC-Medium-15" transform="translate(122.5 0)"/>
     <use xlink:href="#NotoSansSC-Medium-1a" transform="translate(179.5 0)"/>
     <use xlink:href="#NotoSansSC-Medium-6" transform="translate(236.5 0)"/>
    </g>
   </g>
  </g>
  <g id="text_20">
   <!-- A股主要指数涨跌幅 -->
   <g style="fill: #1e293b" transform="translate(50.3 23.12) scale(0.14 -0.14)">
    <defs>
     <path id="NotoSansSC-Medium-22" d="M 1523 2560 
C 1677 3072 1824 3590 1958 4128 
L 1990 4128 
C 2131 3597 2272 3072 2432 2560 
L 2618 1926 
L 1331 1926 
L 1523 2560 
z
M 0 0 
L 755 0 
L 1158 1344 
L 2797 1344 
L 3194 0 
L 3981 0 
L 2419 4717 
L 1562 4717 
L 0 0 
z
" transform="scale(0.015625)"/>
     <path id="NotoSansSC-Medium-5461" d="M 3821 4576 
L 4794 4576 
L 4794 3706 
C 4794 3162 4896 2950 5376 2950 
L 5747 2950 
C 5862 2950 5997 2957 6074 2989 
C 6054 3123 6035 3334 6029 3488 
C 5946 3462 5818 3450 5747 3450 
L 5421 3450 
C 5338 3450 5331 3520 5331 3699 
L 5331 5126 
L 3290 5126 
L 3290 4435 
C 3290 4000 3194 3507 2515 3136 
C 2624 3053 2822 2822 2893 2694 
C 3661 3142 3821 3834 3821 4422 
L 3821 4576 
z
M 5094 2035 
C 4909 1600 4634 1235 4301 934 
C 3955 1242 3680 1619 3482 2035 
L 5094 2035 
z
M 1165 2170 
C 1178 2413 1178 2650 1178 2861 
L 1178 3130 
L 1978 3130 
L 1978 2170 
L 1165 2170 
z
M 1978 4595 
L 1978 3674 
L 1178 3674 
L 1178 4595 
L 1978 4595 
z
M 5472 2611 
L 5376 2592 
L 2739 2592 
L 2739 2035 
L 3174 2035 
L 2970 1958 
C 3194 1440 3494 979 3866 602 
C 3456 339 3002 147 2509 26 
C 2515 77 2515 134 2515 198 
L 2515 5139 
L 646 5139 
L 646 2854 
C 646 1914 621 646 230 -243 
C 365 -288 608 -416 717 -512 
C 973 77 1088 870 1139 1619 
L 1978 1619 
L 1978 211 
C 1978 128 1952 96 1875 96 
C 1805 96 1581 96 1338 102 
C 1408 -45 1472 -307 1491 -454 
C 1888 -454 2131 -442 2298 -346 
C 2426 -275 2483 -154 2502 13 
C 2611 -109 2726 -339 2784 -493 
C 3334 -326 3846 -96 4294 224 
C 4730 -109 5235 -358 5824 -518 
C 5901 -358 6061 -115 6170 0 
C 5632 122 5152 320 4736 595 
C 5216 1062 5600 1670 5818 2458 
L 5472 2611 
z
" transform="scale(0.015625)"/>
     <path id="NotoSansSC-Medium-2236" d="M 3526 288 
L 3526 1702 
L 5446 1702 
L 5446 2278 
L 3526 2278 
L 3526 3552 
L 5728 3552 
L 5728 4134 
L 3693 4134 
L 4006 4358 
C 3744 4659 3219 5088 2810 5363 
L 2323 5024 
C 2675 4774 3091 4416 3354 4134 
L 666 4134 
L 666 3552 
L 2874 3552 
L 2874 2278 
L 973 2278 
L 973 1702 
L 2874 1702 
L 2874 288 
L 378 288 
L 378 -294 
L 6048 -294 
L 6048 288 
L 3526 288 
z
" transform="scale(0.015625)"/>
     <path id="NotoSansSC-Medium-5d35" d="M 4186 1440 
C 4000 1133 3750 883 3430 691 
C 3008 787 2573 890 2150 979 
C 2259 1114 2374 1280 2496 1440 
L 4186 1440 
z
M 1312 3654 
L 2150 3654 
L 2150 2906 
L 1312 2906 
L 1312 3654 
z
M 2714 4595 
L 3610 4595 
L 3610 4128 
L 2714 4128 
L 2714 4595 
z
M 5107 3654 
L 5107 2906 
L 4173 2906 
L 4173 3654 
L 5107 3654 
z
M 2714 2906 
L 2714 3654 
L 3610 3654 
L 3610 2906 
L 2714 2906 
z
M 6054 1440 
L 6054 1952 
L 2829 1952 
C 2912 2093 2982 2221 3053 2355 
L 2733 2432 
L 5696 2432 
L 5696 4128 
L 4173 4128 
L 4173 4595 
L 5933 4595 
L 5933 5114 
L 448 5114 
L 448 4595 
L 2150 4595 
L 2150 4128 
L 755 4128 
L 755 2432 
L 2406 2432 
C 2330 2272 2240 2118 2138 1952 
L 352 1952 
L 352 1440 
L 1792 1440 
C 1587 1152 1376 883 1178 672 
C 1683 570 2176 461 2650 346 
C 2054 154 1318 58 416 13 
C 512 -115 602 -333 640 -499 
C 1850 -397 2797 -224 3514 128 
C 4269 -83 4928 -301 5414 -493 
L 5901 -32 
C 5427 141 4806 326 4122 512 
C 4422 755 4666 1062 4851 1440 
L 6054 1440 
z
" transform="scale(0.015625)"/>
    </defs>
    <use xlink:href="#NotoSansSC-Medium-22"/>
    <use xlink:href="#NotoSansSC-Medium-5461" transform="translate(62.203125 0)"/>
    <use xlink:href="#NotoSansSC-Medium-2236" transform="translate(162.203125 0)"/>
    <use xlink:href="#NotoSansSC-Medium-5d35" transform="translate(262.203125 0)"/>
    <use xlink:href="#NotoSansSC-Medium-36e2" transform="translate(362.203125 0)"/>
    <use xlink:href="#NotoSansSC-Medium-394a" transform="translate(462.203125 0)"/>
    <use xlink:href="#NotoSansSC-Medium-417c" transform="translate(562.203125 0)"/>
    <use xlink:href="#NotoSansSC-Medium-617d" transform="translate(662.203125 0)"/>
    <use xlink:href="#NotoSansSC-Medium-3225" transform="translate(762.203125 0)"/>
   </g>
  </g>
  <g id="text_21">
   <!-- 2026年5月26日 · 红涨绿跌 -->
   <g style="fill: #64748b" transform="translate(50.3 43.664) scale(0.09 -0.09)">
    <defs>
     <path id="NotoSansSC-Medium-17" d="M 1914 2406 
C 2419 2406 2694 2067 2694 1466 
C 2694 851 2368 480 1958 480 
C 1453 480 1114 922 1037 1856 
C 1318 2259 1645 2406 1914 2406 
z
M 1965 -83 
C 2733 -83 3373 531 3373 1466 
C 3373 2458 2842 2944 2048 2944 
C 1709 2944 1299 2739 1024 2400 
C 1056 3744 1555 4198 2157 4198 
C 2432 4198 2720 4051 2893 3846 
L 3296 4294 
C 3027 4576 2643 4800 2118 4800 
C 1190 4800 339 4077 339 2266 
C 339 666 1069 -83 1965 -83 
z
" transform="scale(0.015625)"/>
     <path id="NotoSansSC-Medium-3254" d="M 1939 1485 
L 1939 2618 
L 3226 2618 
L 3226 1485 
L 1939 1485 
z
M 6086 1485 
L 3840 1485 
L 3840 2618 
L 5626 2618 
L 5626 3174 
L 3840 3174 
L 3840 4058 
L 5773 4058 
L 5773 4634 
L 2067 4634 
C 2150 4826 2240 5037 2317 5235 
L 1715 5395 
C 1421 4544 909 3731 320 3226 
C 467 3136 723 2944 838 2842 
C 1165 3162 1485 3584 1760 4058 
L 3226 4058 
L 3226 3174 
L 1344 3174 
L 1344 1485 
L 314 1485 
L 314 909 
L 3226 909 
L 3226 -506 
L 3840 -506 
L 3840 909 
L 6086 909 
L 6086 1485 
z
" transform="scale(0.015625)"/>
     <path id="NotoSansSC-Medium-3ae0" d="M 1843 2010 
C 1882 2342 1901 2662 1901 2957 
L 4653 2957 
L 4653 2010 
L 1843 2010 
z
M 4653 4474 
L 4653 3526 
L 1901 3526 
L 1901 4474 
L 4653 4474 
z
M 5280 5050 
L 1293 5050 
L 1293 3040 
C 1293 2035 1197 781 198 -77 
C 333 -166 563 -384 653 -512 
C 1261 6 1581 717 1747 1434 
L 4653 1434 
L 4653 314 
C 4653 179 4602 128 4461 128 
C 4307 122 3795 115 3296 141 
C 3398 -26 3514 -314 3552 -486 
C 4218 -486 4653 -474 4922 -365 
C 5178 -269 5280 -83 5280 301 
L 5280 5050 
z
" transform="scale(0.015625)"/>
     <path id="NotoSansSC-Medium-39bf" d="M 1702 582 
L 1702 2208 
L 4717 2208 
L 4717 582 
L 1702 582 
z
M 4717 4358 
L 4717 2797 
L 1702 2797 
L 1702 4358 
L 4717 4358 
z
M 1094 4960 
L 1094 -435 
L 1702 -435 
L 1702 -19 
L 4717 -19 
L 4717 -410 
L 5350 -410 
L 5350 4960 
L 1094 4960 
z
" transform="scale(0.015625)"/>
     <path id="NotoSansSC-Medium-561" d="M 3200 3174 
C 2790 3174 2458 2842 2458 2432 
C 2458 2022 2790 1690 3200 1690 
C 3610 1690 3942 2022 3942 2432 
C 3942 2842 3610 3174 3200 3174 
z
" transform="scale(0.015625)"/>
     <path id="NotoSansSC-Medium-5263" d="M 352 -192 
C 973 -58 1779 128 2554 301 
L 2490 864 
C 1670 685 813 512 243 410 
L 352 -192 
z
M 1306 1907 
C 1811 2445 2304 3091 2714 3738 
L 2189 4070 
C 2061 3846 1926 3616 1773 3405 
L 1050 3341 
C 1427 3859 1805 4512 2093 5133 
L 1498 5382 
C 1222 4634 742 3840 595 3642 
C 442 3430 333 3290 205 3258 
C 275 3104 378 2810 410 2682 
C 512 2733 678 2771 1382 2848 
C 1120 2502 890 2240 774 2138 
C 563 1901 416 1760 256 1728 
C 326 1568 422 1267 454 1152 
C 614 1242 864 1293 2592 1568 
C 2573 1690 2554 1926 2566 2086 
L 1306 1907 
z
M 4672 486 
L 4672 4205 
L 5971 4205 
L 5971 4800 
L 2707 4800 
L 2707 4205 
L 4026 4205 
L 4026 486 
L 2618 486 
L 2618 -109 
L 6106 -109 
L 6106 486 
L 4672 486 
z
" transform="scale(0.015625)"/>
     <path id="NotoSansSC-Medium-52c0" d="M 1222 1894 
C 1658 2438 2080 3091 2426 3738 
L 1933 4032 
C 1824 3808 1702 3571 1581 3360 
L 966 3302 
C 1312 3827 1651 4486 1888 5107 
L 1312 5363 
C 1094 4627 698 3834 570 3622 
C 435 3418 333 3277 218 3238 
C 288 3078 384 2797 416 2675 
C 506 2726 653 2765 1267 2835 
C 1043 2483 838 2208 742 2086 
C 550 1856 416 1702 275 1670 
C 339 1530 429 1261 454 1146 
C 589 1229 819 1293 2259 1581 
C 2253 1696 2259 1926 2278 2080 
L 1222 1894 
z
M 410 -166 
C 960 19 1658 256 2317 486 
L 2227 986 
C 1504 755 768 531 275 410 
L 410 -166 
z
M 5613 2432 
C 5395 2189 5056 1888 4742 1638 
C 4685 1722 4634 1818 4589 1907 
L 4589 2669 
L 6131 2669 
L 6131 3194 
L 5626 3194 
C 5664 3808 5702 4557 5709 5139 
L 5293 5165 
L 5203 5139 
L 2816 5139 
L 2816 4634 
L 5133 4634 
C 5126 4493 5126 4326 5114 4166 
L 2938 4166 
L 2938 3706 
L 5094 3706 
C 5082 3526 5075 3360 5062 3194 
L 2624 3194 
L 2624 2669 
L 4038 2669 
L 4038 1555 
C 3437 1165 2797 755 2381 518 
L 2701 58 
C 3098 326 3571 666 4038 1011 
L 4038 109 
C 4038 38 4019 19 3942 19 
C 3872 19 3635 19 3386 32 
C 3462 -115 3539 -339 3558 -493 
C 3930 -493 4186 -474 4365 -397 
C 4538 -314 4589 -166 4589 109 
L 4589 1075 
C 4928 608 5363 218 5856 -6 
C 5939 141 6099 339 6227 454 
C 5754 614 5325 922 4998 1299 
C 5350 1536 5754 1856 6086 2144 
L 5613 2432 
z
M 3802 1690 
C 3648 1914 3322 2227 3040 2451 
L 2650 2157 
C 2931 1933 3251 1594 3392 1363 
L 3802 1690 
z
" transform="scale(0.015625)"/>
    </defs>
    <use xlink:href="#NotoSansSC-Medium-13"/>
    <use xlink:href="#NotoSansSC-Medium-11" transform="translate(57 0)"/>
    <use xlink:href="#NotoSansSC-Medium-13" transform="translate(114 0)"/>
    <use xlink:href="#NotoSansSC-Medium-17" transform="translate(171 0)"/>
    <use xlink:href="#NotoSansSC-Medium-3254" transform="translate(228 0)"/>
    <use xlink:href="#NotoSansSC-Medium-16" transform="translate(328 0)"/>
    <use xlink:href="#NotoSansSC-Medium-3ae0" transform="translate(385 0)"/>
    <use xlink:href="#NotoSansSC-Medium-13" transform="translate(485 0)"/>
    <use xlink:href="#NotoSansSC-Medium-17" transform="translate(542 0)"/>
    <use xlink:href="#NotoSansSC-Medium-39bf" transform="translate(599 0)"/>
    <use xlink:href="#NotoSansSC-Medium-1" transform="translate(699 0)"/>
    <use xlink:href="#NotoSansSC-Medium-561" transform="translate(721.5 0)"/>
    <use xlink:href="#NotoSansSC-Medium-1" transform="translate(821.5 0)"/>
    <use xlink:href="#NotoSansSC-Medium-5263" transform="translate(844 0)"/>
    <use xlink:href="#NotoSansSC-Medium-417c" transform="translate(944 0)"/>
    <use xlink:href="#NotoSansSC-Medium-52c0" transform="translate(1044 0)"/>
    <use xlink:href="#NotoSansSC-Medium-617d" transform="translate(1144 0)"/>
   </g>
  </g>
  <g id="text_22">
   <!-- 来源: 上交所/深交所 · 2026-05-26 -->
   <g style="fill: #94a3b8" transform="translate(50.3 268.502) scale(0.065 -0.065)">
    <defs>
     <path id="NotoSansSC-Medium-3b3c" d="M 6029 2003 
L 6029 2579 
L 3514 2579 
L 3514 4064 
L 5773 4064 
L 5773 4634 
L 3514 4634 
L 3514 5370 
L 2886 5370 
L 2886 4634 
L 678 4634 
L 678 4064 
L 2886 4064 
L 2886 2579 
L 378 2579 
L 378 2003 
L 2515 2003 
C 1939 1274 1056 595 224 243 
C 358 122 550 -102 646 -256 
C 1453 147 2285 851 2886 1638 
L 2886 -506 
L 3514 -506 
L 3514 1651 
C 4115 858 4947 134 5760 -275 
C 5856 -115 6048 109 6176 230 
C 5350 589 4467 1274 3904 2003 
L 6029 2003 
z
M 1158 3789 
C 1395 3418 1619 2912 1696 2598 
L 2259 2822 
C 2176 3142 1926 3622 1683 3987 
L 1158 3789 
z
M 4672 2592 
C 4890 2899 5158 3386 5382 3821 
L 4762 4006 
C 4621 3629 4371 3104 4160 2765 
L 4672 2592 
z
" transform="scale(0.015625)"/>
     <path id="NotoSansSC-Medium-4260" d="M 1965 4659 
C 1715 4838 1229 5120 902 5306 
L 550 4883 
C 890 4672 1363 4371 1600 4186 
L 1965 4659 
z
M 1658 2989 
C 1402 3162 922 3430 589 3603 
L 243 3181 
C 589 2982 1062 2688 1299 2515 
L 1658 2989 
z
M 1293 1958 
C 1011 1222 627 403 358 -96 
L 896 -422 
C 1190 186 1517 954 1766 1626 
L 1293 1958 
z
M 2733 4512 
L 6067 4512 
L 6067 5050 
L 2150 5050 
L 2150 3302 
C 2150 2266 2086 826 1370 -173 
C 1510 -237 1766 -390 1869 -486 
C 2618 570 2733 2189 2733 3302 
L 2733 4512 
z
M 3213 1312 
C 3046 902 2771 454 2496 154 
C 2630 83 2861 -58 2970 -134 
C 3232 186 3539 704 3744 1165 
L 3213 1312 
z
M 3571 2534 
L 5299 2534 
L 5299 2067 
L 3571 2067 
L 3571 2534 
z
M 3571 3418 
L 5299 3418 
L 5299 2957 
L 3571 2957 
L 3571 3418 
z
M 5856 1626 
L 5856 3866 
L 4544 3866 
C 4621 4019 4710 4179 4794 4352 
L 4128 4474 
C 4090 4301 4019 4064 3955 3866 
L 3040 3866 
L 3040 1626 
L 4122 1626 
L 4122 102 
C 4122 32 4096 6 4019 6 
C 3942 6 3680 0 3411 13 
C 3469 -134 3546 -352 3565 -499 
C 3981 -506 4262 -499 4448 -410 
C 4640 -333 4685 -186 4685 83 
L 4685 1626 
L 5856 1626 
z
M 5005 1178 
C 5235 774 5517 237 5651 -83 
L 6195 154 
C 6054 467 5754 986 5517 1370 
L 5005 1178 
z
" transform="scale(0.015625)"/>
     <path id="NotoSansSC-Medium-1b" d="M 954 2432 
C 1229 2432 1446 2650 1446 2944 
C 1446 3245 1229 3469 954 3469 
C 678 3469 461 3245 461 2944 
C 461 2650 678 2432 954 2432 
z
M 954 -83 
C 1229 -83 1446 128 1446 429 
C 1446 736 1229 954 954 954 
C 678 954 461 736 461 429 
C 461 128 678 -83 954 -83 
z
" transform="scale(0.015625)"/>
     <path id="NotoSansSC-Medium-229f" d="M 5952 4518 
L 3482 4518 
L 3667 4589 
C 3578 4813 3373 5171 3200 5434 
L 2637 5242 
C 2771 5018 2918 4736 3014 4518 
L 435 4518 
L 435 3942 
L 5952 3942 
L 5952 4518 
z
M 3885 3482 
C 4467 3078 5171 2477 5491 2080 
L 5990 2470 
C 5645 2867 4922 3443 4352 3821 
L 3885 3482 
z
M 1990 3802 
C 1619 3328 992 2848 429 2541 
C 563 2445 794 2221 896 2106 
C 1453 2458 2131 3034 2573 3578 
L 1990 3802 
z
M 4102 2720 
C 3898 2176 3603 1728 3219 1357 
C 2829 1728 2528 2176 2323 2688 
L 1786 2522 
C 2042 1920 2368 1414 2771 986 
C 2125 525 1299 218 326 26 
C 442 -109 621 -371 685 -512 
C 1670 -269 2522 77 3213 595 
C 3872 77 4698 -275 5734 -467 
C 5811 -301 5971 -58 6099 64 
C 5114 224 4307 531 3667 979 
C 4102 1402 4448 1914 4704 2541 
L 4102 2720 
z
" transform="scale(0.015625)"/>
     <path id="NotoSansSC-Medium-361f" d="M 2317 3245 
L 2317 2330 
L 1210 2330 
L 1210 2515 
L 1210 3245 
L 2317 3245 
z
M 2886 1792 
L 2886 3782 
L 1210 3782 
L 1210 4320 
C 1894 4403 2643 4538 3168 4742 
L 2784 5242 
C 2272 5024 1382 4864 621 4768 
L 621 2515 
C 621 1683 589 608 179 -154 
C 314 -218 563 -416 666 -531 
C 1030 96 1152 998 1190 1792 
L 2886 1792 
z
M 6131 3232 
L 4013 3232 
L 4013 4307 
C 4717 4410 5478 4563 6029 4774 
L 5632 5286 
C 5094 5056 4198 4864 3411 4749 
L 3411 2701 
C 3411 1805 3334 666 2528 -122 
C 2662 -198 2906 -410 3002 -525 
C 3866 307 4006 1664 4013 2656 
L 4864 2656 
L 4864 -480 
L 5453 -480 
L 5453 2656 
L 6131 2656 
L 6131 3232 
z
" transform="scale(0.015625)"/>
     <path id="NotoSansSC-Medium-10" d="M 77 -1152 
L 589 -1152 
L 2368 5114 
L 1856 5114 
L 77 -1152 
z
" transform="scale(0.015625)"/>
    </defs>
    <use xlink:href="#NotoSansSC-Medium-3b3c"/>
    <use xlink:href="#NotoSansSC-Medium-4260" transform="translate(100 0)"/>
    <use xlink:href="#NotoSansSC-Medium-1b" transform="translate(200 0)"/>
    <use xlink:href="#NotoSansSC-Medium-1" transform="translate(229.796875 0)"/>
    <use xlink:href="#NotoSansSC-Medium-2205" transform="translate(252.296875 0)"/>
    <use xlink:href="#NotoSansSC-Medium-229f" transform="translate(352.296875 0)"/>
    <use xlink:href="#NotoSansSC-Medium-361f" transform="translate(452.296875 0)"/>
    <use xlink:href="#NotoSansSC-Medium-10" transform="translate(552.296875 0)"/>
    <use xlink:href="#NotoSansSC-Medium-41c4" transform="translate(591.296875 0)"/>
    <use xlink:href="#NotoSansSC-Medium-229f" transform="translate(691.296875 0)"/>
    <use xlink:href="#NotoSansSC-Medium-361f" transform="translate(791.296875 0)"/>
    <use xlink:href="#NotoSansSC-Medium-1" transform="translate(891.296875 0)"/>
    <use xlink:href="#NotoSansSC-Medium-561" transform="translate(913.796875 0)"/>
    <use xlink:href="#NotoSansSC-Medium-1" transform="translate(1013.796875 0)"/>
    <use xlink:href="#NotoSansSC-Medium-13" transform="translate(1036.296875 0)"/>
    <use xlink:href="#NotoSansSC-Medium-11" transform="translate(1093.296875 0)"/>
    <use xlink:href="#NotoSansSC-Medium-13" transform="translate(1150.296875 0)"/>
    <use xlink:href="#NotoSansSC-Medium-17" transform="translate(1207.296875 0)"/>
    <use xlink:href="#NotoSansSC-Medium-e" transform="translate(1264.296875 0)"/>
    <use xlink:href="#NotoSansSC-Medium-11" transform="translate(1300 0)"/>
    <use xlink:href="#NotoSansSC-Medium-16" transform="translate(1357 0)"/>
    <use xlink:href="#NotoSansSC-Medium-e" transform="translate(1414 0)"/>
    <use xlink:href="#NotoSansSC-Medium-13" transform="translate(1449.703125 0)"/>
    <use xlink:href="#NotoSansSC-Medium-17" transform="translate(1506.703125 0)"/>
   </g>
  </g>
 </g>
 <defs>
  <clipPath id="pc3e34cd94f">
   <rect x="50.3" y="79.52" width="314.82" height="175.104"/>
  </clipPath>
 </defs>
</svg>
