<?xml version="1.0" encoding="utf-8" standalone="no"?>
<!DOCTYPE svg PUBLIC "-//W3C//DTD SVG 1.1//EN"
  "http://www.w3.org/Graphics/SVG/1.1/DTD/svg11.dtd">
<svg xmlns:xlink="http://www.w3.org/1999/xlink" width="351.259395pt" height="201.985494pt" viewBox="0 0 351.259395 201.985494" xmlns="http://www.w3.org/2000/svg" version="1.1">
 <metadata>
  <rdf:RDF xmlns:dc="http://purl.org/dc/elements/1.1/" xmlns:cc="http://creativecommons.org/ns#" xmlns:rdf="http://www.w3.org/1999/02/22-rdf-syntax-ns#">
   <cc:Work>
    <dc:type rdf:resource="http://purl.org/dc/dcmitype/StillImage"/>
    <dc:date>2026-06-02T14:51:10.492592</dc:date>
    <dc:format>image/svg+xml</dc:format>
    <dc:creator>
     <cc:Agent>
      <dc:title>Matplotlib v3.10.9, https://matplotlib.org/</dc:title>
     </cc:Agent>
    </dc:creator>
   </cc:Work>
  </rdf:RDF>
 </metadata>
 <defs>
  <style type="text/css">*{stroke-linejoin: round; stroke-linecap: butt}</style>
 </defs>
 <g id="figure_1">
  <g id="patch_1">
   <path d="M 0 201.985494 
L 351.259395 201.985494 
L 351.259395 0 
L 0 0 
z
" style="fill: #f5f7fa"/>
  </g>
  <g id="axes_1">
   <g id="patch_2">
    <path d="M 46.2 162.545212 
L 341.761053 162.545212 
L 341.761053 29.522812 
L 46.2 29.522812 
z
" style="fill: #f5f7fa"/>
   </g>
   <g id="patch_3">
    <path d="M 279.537673 156.49874 
L 92.478639 156.49874 
L 92.478639 148.436776 
L 279.537673 148.436776 
z
" clip-path="url(#pf986dad318)" style="fill: #ef4444; stroke: #ffffff; stroke-width: 0.8; stroke-linejoin: miter"/>
   </g>
   <g id="patch_4">
    <path d="M 279.537673 140.374812 
L 232.947918 140.374812 
L 232.947918 132.312849 
L 279.537673 132.312849 
z
" clip-path="url(#pf986dad318)" style="fill: #f87171; stroke: #ffffff; stroke-width: 0.8; stroke-linejoin: miter"/>
   </g>
   <g id="patch_5">
    <path d="M 279.537673 124.250885 
L 246.325944 124.250885 
L 246.325944 116.188922 
L 279.537673 116.188922 
z
" clip-path="url(#pf986dad318)" style="fill: #f87171; stroke: #ffffff; stroke-width: 0.8; stroke-linejoin: miter"/>
   </g>
   <g id="patch_6">
    <path d="M 279.537673 108.126958 
L 254.570542 108.126958 
L 254.570542 100.064994 
L 279.537673 100.064994 
z
" clip-path="url(#pf986dad318)" style="fill: #f87171; stroke: #ffffff; stroke-width: 0.8; stroke-linejoin: miter"/>
   </g>
   <g id="patch_7">
    <path d="M 279.537673 92.003031 
L 256.048347 92.003031 
L 256.048347 83.941067 
L 279.537673 83.941067 
z
" clip-path="url(#pf986dad318)" style="fill: #f87171; stroke: #ffffff; stroke-width: 0.8; stroke-linejoin: miter"/>
   </g>
   <g id="patch_8">
    <path d="M 279.537673 75.879103 
L 282.648842 75.879103 
L 282.648842 67.81714 
L 279.537673 67.81714 
z
" clip-path="url(#pf986dad318)" style="fill: #10b981; stroke: #ffffff; stroke-width: 0.8; stroke-linejoin: miter"/>
   </g>
   <g id="patch_9">
    <path d="M 279.537673 59.755176 
L 310.338246 59.755176 
L 310.338246 51.693212 
L 279.537673 51.693212 
z
" clip-path="url(#pf986dad318)" style="fill: #ef4444; stroke: #ffffff; stroke-width: 0.8; stroke-linejoin: miter"/>
   </g>
   <g id="patch_10">
    <path d="M 279.537673 43.631249 
L 311.89383 43.631249 
L 311.89383 35.569285 
L 279.537673 35.569285 
z
" clip-path="url(#pf986dad318)" style="fill: #ef4444; stroke: #ffffff; stroke-width: 0.8; stroke-linejoin: miter"/>
   </g>
   <g id="matplotlib.axis_1">
    <g id="xtick_1">
     <g id="line2d_1">
      <path d="M 46.2 162.545212 
L 46.2 29.522812 
" clip-path="url(#pf986dad318)" style="fill: none; stroke: #64748b; stroke-opacity: 0.2; stroke-width: 0.8; stroke-linecap: square"/>
     </g>
     <g id="line2d_2">
      <defs>
       <path id="mb94854ac7a" d="M 0 0 
L 0 3.5 
" style="stroke: #64748b; stroke-width: 0.8"/>
      </defs>
      <g>
       <use xlink:href="#mb94854ac7a" x="46.2" y="162.545212" style="fill: #64748b; stroke: #64748b; stroke-width: 0.8"/>
      </g>
     </g>
     <g id="text_1">
      <!-- -300 -->
      <g style="fill: #64748b" transform="translate(38.6525 175.897712) scale(0.08 -0.08)">
       <defs>
        <path id="NotoSansSC-Thin-2d" d="M 282 1638 
L 282 1862 
L 1811 1862 
L 1811 1638 
L 282 1638 
z
" transform="scale(0.015625)"/>
        <path id="NotoSansSC-Thin-33" d="M 1619 -83 
Q 1261 -83 998 13 
Q 736 109 544 256 
Q 352 403 211 550 
L 358 717 
Q 563 499 857 313 
Q 1152 128 1632 128 
Q 1952 128 2198 262 
Q 2445 397 2585 640 
Q 2726 883 2726 1210 
Q 2726 1542 2560 1795 
Q 2394 2048 2038 2189 
Q 1683 2330 1114 2330 
L 1114 2554 
Q 1651 2554 1964 2698 
Q 2278 2842 2416 3088 
Q 2554 3334 2554 3629 
Q 2554 4026 2298 4272 
Q 2042 4518 1606 4518 
Q 1293 4518 1017 4374 
Q 742 4230 557 4026 
L 410 4192 
Q 634 4410 925 4570 
Q 1216 4730 1606 4730 
Q 1939 4730 2211 4598 
Q 2483 4467 2643 4224 
Q 2803 3981 2803 3642 
Q 2803 3168 2550 2877 
Q 2298 2586 1926 2464 
L 1926 2438 
Q 2208 2381 2445 2221 
Q 2682 2061 2826 1808 
Q 2970 1555 2970 1222 
Q 2970 826 2790 531 
Q 2611 237 2307 77 
Q 2003 -83 1619 -83 
z
" transform="scale(0.015625)"/>
        <path id="NotoSansSC-Thin-30" d="M 1670 -83 
Q 1261 -83 963 179 
Q 666 442 509 979 
Q 352 1517 352 2336 
Q 352 3149 509 3677 
Q 666 4205 963 4467 
Q 1261 4730 1670 4730 
Q 2080 4730 2371 4467 
Q 2662 4205 2822 3677 
Q 2982 3149 2982 2336 
Q 2982 1517 2822 979 
Q 2662 442 2371 179 
Q 2080 -83 1670 -83 
z
M 1670 128 
Q 1997 128 2240 384 
Q 2483 640 2614 1133 
Q 2746 1626 2746 2336 
Q 2746 3040 2614 3529 
Q 2483 4019 2240 4272 
Q 1997 4525 1670 4525 
Q 1344 4525 1101 4272 
Q 858 4019 723 3529 
Q 589 3040 589 2336 
Q 589 1626 723 1133 
Q 858 640 1101 384 
Q 1344 128 1670 128 
z
" transform="scale(0.015625)"/>
       </defs>
       <use xlink:href="#NotoSansSC-Thin-2d"/>
       <use xlink:href="#NotoSansSC-Thin-33" transform="translate(32.399994 0)"/>
       <use xlink:href="#NotoSansSC-Thin-30" transform="translate(84.499985 0)"/>
       <use xlink:href="#NotoSansSC-Thin-30" transform="translate(136.599976 0)"/>
      </g>
     </g>
    </g>
    <g id="xtick_2">
     <g id="line2d_3">
      <path d="M 85.089612 162.545212 
L 85.089612 29.522812 
" clip-path="url(#pf986dad318)" style="fill: none; stroke: #64748b; stroke-opacity: 0.2; stroke-width: 0.8; stroke-linecap: square"/>
     </g>
     <g id="line2d_4">
      <g>
       <use xlink:href="#mb94854ac7a" x="85.089612" y="162.545212" style="fill: #64748b; stroke: #64748b; stroke-width: 0.8"/>
      </g>
     </g>
     <g id="text_2">
      <!-- -250 -->
      <g style="fill: #64748b" transform="translate(77.542112 175.897712) scale(0.08 -0.08)">
       <defs>
        <path id="NotoSansSC-Thin-32" d="M 294 0 
L 294 147 
Q 1120 858 1613 1434 
Q 2106 2010 2323 2499 
Q 2541 2989 2541 3424 
Q 2541 3725 2435 3974 
Q 2330 4224 2106 4371 
Q 1882 4518 1523 4518 
Q 1210 4518 931 4352 
Q 653 4186 442 3923 
L 282 4070 
Q 525 4346 829 4538 
Q 1133 4730 1542 4730 
Q 1939 4730 2214 4566 
Q 2490 4403 2637 4112 
Q 2784 3821 2784 3424 
Q 2784 2918 2537 2406 
Q 2291 1894 1820 1347 
Q 1350 800 678 179 
Q 870 192 1062 201 
Q 1254 211 1440 211 
L 3014 211 
L 3014 0 
L 294 0 
z
" transform="scale(0.015625)"/>
        <path id="NotoSansSC-Thin-35" d="M 1581 -83 
Q 1222 -83 963 9 
Q 704 102 515 240 
Q 326 378 186 518 
L 333 691 
Q 467 550 636 422 
Q 806 294 1040 211 
Q 1274 128 1594 128 
Q 1901 128 2166 294 
Q 2432 461 2592 765 
Q 2752 1069 2752 1466 
Q 2752 2061 2441 2406 
Q 2131 2752 1606 2752 
Q 1350 2752 1152 2665 
Q 954 2579 755 2445 
L 563 2560 
L 730 4646 
L 2758 4646 
L 2758 4435 
L 941 4435 
L 787 2726 
Q 966 2835 1168 2902 
Q 1370 2970 1626 2970 
Q 2010 2970 2320 2813 
Q 2630 2656 2812 2326 
Q 2995 1997 2995 1478 
Q 2995 979 2787 630 
Q 2579 282 2256 99 
Q 1933 -83 1581 -83 
z
" transform="scale(0.015625)"/>
       </defs>
       <use xlink:href="#NotoSansSC-Thin-2d"/>
       <use xlink:href="#NotoSansSC-Thin-32" transform="translate(32.399994 0)"/>
       <use xlink:href="#NotoSansSC-Thin-35" transform="translate(84.499985 0)"/>
       <use xlink:href="#NotoSansSC-Thin-30" transform="translate(136.599976 0)"/>
      </g>
     </g>
    </g>
    <g id="xtick_3">
     <g id="line2d_5">
      <path d="M 123.979224 162.545212 
L 123.979224 29.522812 
" clip-path="url(#pf986dad318)" style="fill: none; stroke: #64748b; stroke-opacity: 0.2; stroke-width: 0.8; stroke-linecap: square"/>
     </g>
     <g id="line2d_6">
      <g>
       <use xlink:href="#mb94854ac7a" x="123.979224" y="162.545212" style="fill: #64748b; stroke: #64748b; stroke-width: 0.8"/>
      </g>
     </g>
     <g id="text_3">
      <!-- -200 -->
      <g style="fill: #64748b" transform="translate(116.431724 175.897712) scale(0.08 -0.08)">
       <use xlink:href="#NotoSansSC-Thin-2d"/>
       <use xlink:href="#NotoSansSC-Thin-32" transform="translate(32.399994 0)"/>
       <use xlink:href="#NotoSansSC-Thin-30" transform="translate(84.499985 0)"/>
       <use xlink:href="#NotoSansSC-Thin-30" transform="translate(136.599976 0)"/>
      </g>
     </g>
    </g>
    <g id="xtick_4">
     <g id="line2d_7">
      <path d="M 162.868837 162.545212 
L 162.868837 29.522812 
" clip-path="url(#pf986dad318)" style="fill: none; stroke: #64748b; stroke-opacity: 0.2; stroke-width: 0.8; stroke-linecap: square"/>
     </g>
     <g id="line2d_8">
      <g>
       <use xlink:href="#mb94854ac7a" x="162.868837" y="162.545212" style="fill: #64748b; stroke: #64748b; stroke-width: 0.8"/>
      </g>
     </g>
     <g id="text_4">
      <!-- -150 -->
      <g style="fill: #64748b" transform="translate(155.321337 175.897712) scale(0.08 -0.08)">
       <defs>
        <path id="NotoSansSC-Thin-31" d="M 608 0 
L 608 211 
L 1677 211 
L 1677 4211 
L 864 4211 
L 864 4378 
Q 1133 4422 1344 4492 
Q 1555 4563 1702 4646 
L 1901 4646 
L 1901 211 
L 2899 211 
L 2899 0 
L 608 0 
z
" transform="scale(0.015625)"/>
       </defs>
       <use xlink:href="#NotoSansSC-Thin-2d"/>
       <use xlink:href="#NotoSansSC-Thin-31" transform="translate(32.399994 0)"/>
       <use xlink:href="#NotoSansSC-Thin-35" transform="translate(84.499985 0)"/>
       <use xlink:href="#NotoSansSC-Thin-30" transform="translate(136.599976 0)"/>
      </g>
     </g>
    </g>
    <g id="xtick_5">
     <g id="line2d_9">
      <path d="M 201.758449 162.545212 
L 201.758449 29.522812 
" clip-path="url(#pf986dad318)" style="fill: none; stroke: #64748b; stroke-opacity: 0.2; stroke-width: 0.8; stroke-linecap: square"/>
     </g>
     <g id="line2d_10">
      <g>
       <use xlink:href="#mb94854ac7a" x="201.758449" y="162.545212" style="fill: #64748b; stroke: #64748b; stroke-width: 0.8"/>
      </g>
     </g>
     <g id="text_5">
      <!-- -100 -->
      <g style="fill: #64748b" transform="translate(194.210949 175.897712) scale(0.08 -0.08)">
       <use xlink:href="#NotoSansSC-Thin-2d"/>
       <use xlink:href="#NotoSansSC-Thin-31" transform="translate(32.399994 0)"/>
       <use xlink:href="#NotoSansSC-Thin-30" transform="translate(84.499985 0)"/>
       <use xlink:href="#NotoSansSC-Thin-30" transform="translate(136.599976 0)"/>
      </g>
     </g>
    </g>
    <g id="xtick_6">
     <g id="line2d_11">
      <path d="M 240.648061 162.545212 
L 240.648061 29.522812 
" clip-path="url(#pf986dad318)" style="fill: none; stroke: #64748b; stroke-opacity: 0.2; stroke-width: 0.8; stroke-linecap: square"/>
     </g>
     <g id="line2d_12">
      <g>
       <use xlink:href="#mb94854ac7a" x="240.648061" y="162.545212" style="fill: #64748b; stroke: #64748b; stroke-width: 0.8"/>
      </g>
     </g>
     <g id="text_6">
      <!-- -50 -->
      <g style="fill: #64748b" transform="translate(235.184311 175.897712) scale(0.08 -0.08)">
       <use xlink:href="#NotoSansSC-Thin-2d"/>
       <use xlink:href="#NotoSansSC-Thin-35" transform="translate(32.399994 0)"/>
       <use xlink:href="#NotoSansSC-Thin-30" transform="translate(84.499985 0)"/>
      </g>
     </g>
    </g>
    <g id="xtick_7">
     <g id="line2d_13">
      <path d="M 279.537673 162.545212 
L 279.537673 29.522812 
" clip-path="url(#pf986dad318)" style="fill: none; stroke: #64748b; stroke-opacity: 0.2; stroke-width: 0.8; stroke-linecap: square"/>
     </g>
     <g id="line2d_14">
      <g>
       <use xlink:href="#mb94854ac7a" x="279.537673" y="162.545212" style="fill: #64748b; stroke: #64748b; stroke-width: 0.8"/>
      </g>
     </g>
     <g id="text_7">
      <!-- 0 -->
      <g style="fill: #64748b" transform="translate(277.453923 175.897712) scale(0.08 -0.08)">
       <use xlink:href="#NotoSansSC-Thin-30"/>
      </g>
     </g>
    </g>
    <g id="xtick_8">
     <g id="line2d_15">
      <path d="M 318.427285 162.545212 
L 318.427285 29.522812 
" clip-path="url(#pf986dad318)" style="fill: none; stroke: #64748b; stroke-opacity: 0.2; stroke-width: 0.8; stroke-linecap: square"/>
     </g>
     <g id="line2d_16">
      <g>
       <use xlink:href="#mb94854ac7a" x="318.427285" y="162.545212" style="fill: #64748b; stroke: #64748b; stroke-width: 0.8"/>
      </g>
     </g>
     <g id="text_8">
      <!-- 50 -->
      <g style="fill: #64748b" transform="translate(314.259785 175.897712) scale(0.08 -0.08)">
       <use xlink:href="#NotoSansSC-Thin-35"/>
       <use xlink:href="#NotoSansSC-Thin-30" transform="translate(52.099991 0)"/>
      </g>
     </g>
    </g>
    <g id="text_9">
     <!-- 净流入/出（亿元） -->
     <g style="fill: #64748b" transform="translate(156.198808 188.988025) scale(0.09 -0.09)">
      <defs>
       <path id="NotoSansSC-Thin-51c0" d="M 2810 4762 
L 4621 4762 
L 4621 4576 
L 2810 4576 
L 2810 4762 
z
M 2035 1427 
L 5427 1427 
L 5427 1235 
L 2035 1235 
L 2035 1427 
z
M 1664 2560 
L 6074 2560 
L 6074 2374 
L 1664 2374 
L 1664 2560 
z
M 2195 3661 
L 5498 3661 
L 5498 954 
L 5306 954 
L 5306 3469 
L 2195 3469 
L 2195 3661 
z
M 3635 3584 
L 3821 3584 
L 3821 -128 
Q 3821 -262 3776 -326 
Q 3731 -390 3629 -416 
Q 3526 -442 3305 -445 
Q 3085 -448 2707 -448 
Q 2701 -416 2675 -361 
Q 2650 -307 2624 -262 
Q 2944 -269 3181 -269 
Q 3418 -269 3501 -262 
Q 3578 -256 3606 -230 
Q 3635 -205 3635 -134 
L 3635 3584 
z
M 3046 5318 
L 3238 5267 
Q 3066 4877 2842 4502 
Q 2618 4128 2362 3798 
Q 2106 3469 1837 3213 
Q 1824 3232 1795 3257 
Q 1766 3283 1737 3308 
Q 1709 3334 1683 3347 
Q 1958 3590 2211 3907 
Q 2464 4224 2678 4585 
Q 2893 4947 3046 5318 
z
M 4557 4762 
L 4595 4762 
L 4627 4774 
L 4749 4691 
Q 4659 4480 4528 4265 
Q 4397 4051 4253 3859 
Q 4109 3667 3968 3520 
Q 3942 3546 3894 3571 
Q 3846 3597 3814 3616 
Q 3955 3757 4096 3942 
Q 4237 4128 4358 4333 
Q 4480 4538 4557 4717 
L 4557 4762 
z
M 397 4922 
L 544 5011 
Q 730 4806 915 4569 
Q 1101 4333 1257 4105 
Q 1414 3878 1504 3706 
L 1350 3603 
Q 1261 3776 1104 4006 
Q 947 4237 764 4480 
Q 582 4723 397 4922 
z
M 397 -19 
Q 544 237 726 595 
Q 909 954 1088 1344 
Q 1267 1734 1414 2093 
L 1555 1971 
Q 1421 1638 1248 1254 
Q 1075 870 899 508 
Q 723 147 563 -141 
L 397 -19 
z
" transform="scale(0.015625)"/>
       <path id="NotoSansSC-Thin-6d41" d="M 1990 4416 
L 6029 4416 
L 6029 4230 
L 1990 4230 
L 1990 4416 
z
M 3770 2336 
L 3962 2336 
L 3962 -179 
L 3770 -179 
L 3770 2336 
z
M 2586 2355 
L 2771 2355 
L 2771 1632 
Q 2771 1363 2742 1091 
Q 2714 819 2618 550 
Q 2522 282 2330 29 
Q 2138 -224 1811 -448 
Q 1798 -429 1776 -406 
Q 1754 -384 1725 -358 
Q 1696 -333 1670 -320 
Q 2086 -38 2281 294 
Q 2477 627 2531 969 
Q 2586 1312 2586 1632 
L 2586 2355 
z
M 4602 3866 
L 4755 3955 
Q 4973 3738 5200 3475 
Q 5427 3213 5622 2966 
Q 5818 2720 5939 2528 
L 5779 2419 
Q 5664 2611 5469 2860 
Q 5274 3110 5046 3376 
Q 4819 3642 4602 3866 
z
M 4979 2355 
L 5171 2355 
L 5171 115 
Q 5171 -6 5180 -64 
Q 5190 -122 5222 -147 
Q 5242 -160 5280 -166 
Q 5318 -173 5363 -173 
Q 5408 -173 5488 -173 
Q 5568 -173 5626 -173 
Q 5683 -173 5737 -166 
Q 5792 -160 5818 -141 
Q 5875 -102 5901 38 
Q 5914 122 5917 298 
Q 5920 474 5926 717 
Q 5958 691 6000 668 
Q 6042 646 6086 634 
Q 6080 429 6070 211 
Q 6061 -6 6042 -83 
Q 6016 -224 5907 -294 
Q 5869 -320 5795 -333 
Q 5722 -346 5651 -346 
Q 5606 -346 5494 -346 
Q 5382 -346 5350 -346 
Q 5280 -346 5203 -330 
Q 5126 -314 5075 -282 
Q 5018 -237 4998 -150 
Q 4979 -64 4979 192 
L 4979 2355 
z
M 2170 2669 
Q 2163 2694 2150 2736 
Q 2138 2778 2125 2816 
Q 2112 2854 2099 2880 
Q 2170 2899 2269 2931 
Q 2368 2963 2445 3034 
Q 2509 3098 2649 3267 
Q 2790 3437 2960 3648 
Q 3130 3859 3280 4051 
Q 3430 4243 3507 4358 
L 3750 4358 
Q 3648 4218 3488 4006 
Q 3328 3795 3149 3568 
Q 2970 3341 2806 3145 
Q 2643 2950 2534 2829 
Q 2534 2829 2496 2819 
Q 2458 2810 2406 2797 
Q 2355 2784 2300 2761 
Q 2246 2739 2208 2716 
Q 2170 2694 2170 2669 
z
M 2170 2669 
L 2170 2835 
L 2362 2931 
L 5402 3117 
Q 5414 3072 5440 3021 
Q 5466 2970 5485 2938 
Q 4608 2880 4029 2838 
Q 3450 2797 3098 2771 
Q 2746 2746 2560 2730 
Q 2374 2714 2294 2698 
Q 2214 2682 2170 2669 
z
M 3635 5254 
L 3795 5299 
Q 3923 5069 4035 4797 
Q 4147 4525 4192 4339 
L 4019 4275 
Q 3974 4461 3862 4739 
Q 3750 5018 3635 5254 
z
M 627 5107 
L 762 5222 
Q 947 5094 1142 4940 
Q 1338 4787 1507 4630 
Q 1677 4474 1779 4346 
L 1651 4211 
Q 1542 4339 1372 4499 
Q 1203 4659 1008 4819 
Q 813 4979 627 5107 
z
M 314 3354 
L 429 3488 
Q 634 3398 848 3276 
Q 1062 3155 1251 3027 
Q 1440 2899 1562 2790 
L 1453 2630 
Q 1331 2746 1139 2877 
Q 947 3008 732 3133 
Q 518 3258 314 3354 
z
M 518 -224 
Q 691 26 908 381 
Q 1126 736 1344 1129 
Q 1562 1523 1741 1882 
L 1875 1760 
Q 1709 1421 1501 1037 
Q 1293 653 1078 291 
Q 864 -70 678 -358 
L 518 -224 
z
" transform="scale(0.015625)"/>
       <path id="NotoSansSC-Thin-5165" d="M 2042 4922 
L 2157 5082 
Q 2598 4774 2908 4406 
Q 3219 4038 3446 3632 
Q 3674 3226 3866 2803 
Q 4058 2381 4256 1961 
Q 4454 1542 4697 1155 
Q 4941 768 5273 429 
Q 5606 90 6080 -179 
Q 6061 -205 6038 -240 
Q 6016 -275 6000 -310 
Q 5984 -346 5978 -378 
Q 5498 -109 5155 236 
Q 4813 582 4563 979 
Q 4314 1376 4109 1798 
Q 3904 2221 3712 2649 
Q 3520 3078 3293 3484 
Q 3066 3891 2765 4259 
Q 2464 4627 2042 4922 
z
M 3098 3866 
L 3302 3827 
Q 3072 2803 2704 2003 
Q 2336 1203 1795 601 
Q 1254 0 499 -435 
Q 480 -416 448 -390 
Q 416 -365 384 -336 
Q 352 -307 320 -288 
Q 1466 320 2118 1357 
Q 2771 2394 3098 3866 
z
" transform="scale(0.015625)"/>
       <path id="NotoSansSC-Thin-2f" d="M 58 -1126 
L 2298 5005 
L 2515 5005 
L 282 -1126 
L 58 -1126 
z
" transform="scale(0.015625)"/>
       <path id="NotoSansSC-Thin-51fa" d="M 3104 5312 
L 3296 5312 
L 3296 90 
L 3104 90 
L 3104 5312 
z
M 5453 2138 
L 5638 2138 
L 5638 -429 
L 5453 -429 
L 5453 2138 
z
M 1037 4698 
L 1222 4698 
L 1222 2803 
L 5197 2803 
L 5197 4698 
L 5382 4698 
L 5382 2618 
L 1037 2618 
L 1037 4698 
z
M 794 2144 
L 986 2144 
L 986 141 
L 5562 141 
L 5562 -51 
L 794 -51 
L 794 2144 
z
" transform="scale(0.015625)"/>
       <path id="NotoSansSC-Thin-ff08" d="M 4653 2432 
Q 4653 3002 4797 3523 
Q 4941 4045 5229 4528 
Q 5517 5011 5939 5446 
L 6099 5325 
Q 5683 4909 5408 4438 
Q 5133 3968 4995 3465 
Q 4858 2963 4858 2432 
Q 4858 1907 4995 1401 
Q 5133 896 5408 429 
Q 5683 -38 6099 -461 
L 5939 -582 
Q 5517 -141 5229 339 
Q 4941 819 4797 1344 
Q 4653 1869 4653 2432 
z
" transform="scale(0.015625)"/>
       <path id="NotoSansSC-Thin-4ebf" d="M 2515 4525 
L 5568 4525 
L 5568 4333 
L 2515 4333 
L 2515 4525 
z
M 5555 4525 
L 5581 4525 
L 5632 4538 
L 5766 4474 
Q 5760 4461 5744 4448 
Q 5728 4435 5715 4422 
Q 4986 3616 4470 3024 
Q 3955 2432 3612 2019 
Q 3270 1606 3072 1337 
Q 2874 1069 2778 902 
Q 2682 736 2653 637 
Q 2624 538 2624 467 
Q 2624 288 2803 208 
Q 2982 128 3245 128 
L 5229 122 
Q 5408 122 5497 230 
Q 5587 339 5622 640 
Q 5658 941 5677 1510 
Q 5709 1485 5769 1469 
Q 5830 1453 5869 1446 
Q 5850 960 5814 659 
Q 5779 358 5715 201 
Q 5651 45 5536 -9 
Q 5421 -64 5235 -64 
L 3283 -64 
Q 2854 -64 2643 70 
Q 2432 205 2432 461 
Q 2432 544 2457 653 
Q 2483 762 2579 934 
Q 2675 1107 2873 1388 
Q 3072 1670 3414 2089 
Q 3757 2509 4281 3107 
Q 4806 3706 5555 4525 
z
M 2003 5306 
L 2182 5254 
Q 1971 4717 1692 4205 
Q 1414 3693 1091 3248 
Q 768 2803 422 2451 
Q 410 2470 384 2499 
Q 358 2528 332 2560 
Q 307 2592 282 2605 
Q 627 2938 944 3370 
Q 1261 3802 1533 4298 
Q 1805 4794 2003 5306 
z
M 1370 3930 
L 1542 4102 
L 1555 4096 
L 1555 -429 
L 1370 -429 
L 1370 3930 
z
" transform="scale(0.015625)"/>
       <path id="NotoSansSC-Thin-5143" d="M 3872 2835 
L 4058 2835 
L 4058 109 
Q 4058 -45 4128 -93 
Q 4198 -141 4416 -141 
Q 4467 -141 4611 -141 
Q 4755 -141 4934 -141 
Q 5114 -141 5267 -141 
Q 5421 -141 5498 -141 
Q 5651 -141 5728 -51 
Q 5805 38 5833 300 
Q 5862 563 5869 1082 
Q 5901 1062 5933 1040 
Q 5965 1018 6000 1005 
Q 6035 992 6061 979 
Q 6048 461 6003 176 
Q 5958 -109 5846 -221 
Q 5734 -333 5498 -333 
Q 5459 -333 5302 -333 
Q 5146 -333 4957 -333 
Q 4768 -333 4614 -333 
Q 4461 -333 4422 -333 
Q 4211 -333 4089 -297 
Q 3968 -262 3920 -166 
Q 3872 -70 3872 109 
L 3872 2835 
z
M 422 2918 
L 5984 2918 
L 5984 2726 
L 422 2726 
L 422 2918 
z
M 960 4768 
L 5485 4768 
L 5485 4582 
L 960 4582 
L 960 4768 
z
M 2234 2784 
L 2426 2784 
Q 2381 2240 2285 1750 
Q 2189 1261 1987 845 
Q 1786 429 1437 102 
Q 1088 -224 544 -435 
Q 531 -410 489 -371 
Q 448 -333 416 -307 
Q 947 -102 1283 211 
Q 1619 525 1814 928 
Q 2010 1331 2102 1801 
Q 2195 2272 2234 2784 
z
" transform="scale(0.015625)"/>
       <path id="NotoSansSC-Thin-ff09" d="M 1747 2432 
Q 1747 1869 1603 1344 
Q 1459 819 1171 339 
Q 883 -141 461 -582 
L 301 -461 
Q 717 -38 992 429 
Q 1267 896 1404 1401 
Q 1542 1907 1542 2432 
Q 1542 2963 1404 3465 
Q 1267 3968 992 4438 
Q 717 4909 301 5325 
L 461 5446 
Q 883 5011 1171 4528 
Q 1459 4045 1603 3523 
Q 1747 3002 1747 2432 
z
" transform="scale(0.015625)"/>
      </defs>
      <use xlink:href="#NotoSansSC-Thin-51c0"/>
      <use xlink:href="#NotoSansSC-Thin-6d41" transform="translate(99.999985 0)"/>
      <use xlink:href="#NotoSansSC-Thin-5165" transform="translate(199.999969 0)"/>
      <use xlink:href="#NotoSansSC-Thin-2f" transform="translate(299.999954 0)"/>
      <use xlink:href="#NotoSansSC-Thin-51fa" transform="translate(339.599945 0)"/>
      <use xlink:href="#NotoSansSC-Thin-ff08" transform="translate(439.59993 0)"/>
      <use xlink:href="#NotoSansSC-Thin-4ebf" transform="translate(539.599915 0)"/>
      <use xlink:href="#NotoSansSC-Thin-5143" transform="translate(639.599899 0)"/>
      <use xlink:href="#NotoSansSC-Thin-ff09" transform="translate(739.599884 0)"/>
     </g>
    </g>
   </g>
   <g id="matplotlib.axis_2">
    <g id="ytick_1">
     <g id="line2d_17">
      <defs>
       <path id="mce9300a9d4" d="M 0 0 
L -3.5 0 
" style="stroke: #64748b; stroke-width: 0.8"/>
      </defs>
      <g>
       <use xlink:href="#mce9300a9d4" x="46.2" y="152.467758" style="fill: #64748b; stroke: #64748b; stroke-width: 0.8"/>
      </g>
     </g>
     <g id="text_10">
      <!-- 电子 -->
      <g style="fill: #64748b" transform="translate(23.2 155.644008) scale(0.08 -0.08)">
       <defs>
        <path id="NotoSansSC-Thin-7535" d="M 1030 2982 
L 5325 2982 
L 5325 2790 
L 1030 2790 
L 1030 2982 
z
M 3040 5331 
L 3226 5331 
L 3226 326 
Q 3226 154 3267 61 
Q 3309 -32 3417 -70 
Q 3526 -109 3731 -109 
Q 3795 -109 3958 -109 
Q 4122 -109 4330 -109 
Q 4538 -109 4749 -109 
Q 4960 -109 5136 -109 
Q 5312 -109 5395 -109 
Q 5587 -109 5686 -9 
Q 5786 90 5824 339 
Q 5862 589 5882 1037 
Q 5926 1005 5980 979 
Q 6035 954 6080 941 
Q 6054 474 6000 202 
Q 5946 -70 5805 -185 
Q 5664 -301 5370 -301 
Q 5331 -301 5168 -301 
Q 5005 -301 4784 -301 
Q 4563 -301 4342 -301 
Q 4122 -301 3958 -301 
Q 3795 -301 3757 -301 
Q 3482 -301 3325 -249 
Q 3168 -198 3104 -57 
Q 3040 83 3040 339 
L 3040 5331 
z
M 992 4378 
L 5459 4378 
L 5459 1350 
L 992 1350 
L 992 1536 
L 5267 1536 
L 5267 4192 
L 992 4192 
L 992 4378 
z
M 902 4378 
L 1107 4378 
L 1107 934 
L 902 934 
L 902 4378 
z
" transform="scale(0.015625)"/>
        <path id="NotoSansSC-Thin-5b50" d="M 358 2400 
L 6067 2400 
L 6067 2208 
L 358 2208 
L 358 2400 
z
M 1005 4819 
L 5325 4819 
L 5325 4627 
L 1005 4627 
L 1005 4819 
z
M 5248 4819 
L 5293 4819 
L 5338 4832 
L 5478 4730 
Q 5197 4454 4813 4176 
Q 4429 3898 4019 3654 
Q 3610 3411 3251 3238 
Q 3238 3264 3212 3286 
Q 3187 3309 3164 3331 
Q 3142 3354 3117 3366 
Q 3482 3533 3882 3769 
Q 4282 4006 4643 4268 
Q 5005 4531 5248 4774 
L 5248 4819 
z
M 3117 3366 
L 3309 3366 
L 3309 -96 
Q 3309 -256 3254 -323 
Q 3200 -390 3059 -416 
Q 2931 -442 2636 -448 
Q 2342 -454 1856 -454 
Q 1850 -429 1834 -397 
Q 1818 -365 1805 -326 
Q 1792 -288 1773 -256 
Q 2067 -262 2307 -265 
Q 2547 -269 2713 -265 
Q 2880 -262 2950 -262 
Q 3046 -250 3081 -218 
Q 3117 -186 3117 -102 
L 3117 3366 
z
" transform="scale(0.015625)"/>
       </defs>
       <use xlink:href="#NotoSansSC-Thin-7535"/>
       <use xlink:href="#NotoSansSC-Thin-5b50" transform="translate(99.999985 0)"/>
      </g>
     </g>
    </g>
    <g id="ytick_2">
     <g id="line2d_18">
      <g>
       <use xlink:href="#mce9300a9d4" x="46.2" y="136.343831" style="fill: #64748b; stroke: #64748b; stroke-width: 0.8"/>
      </g>
     </g>
     <g id="text_11">
      <!-- 机械设备 -->
      <g style="fill: #64748b" transform="translate(7.2 139.520081) scale(0.08 -0.08)">
       <defs>
        <path id="NotoSansSC-Thin-673a" d="M 3360 4954 
L 5171 4954 
L 5171 4768 
L 3360 4768 
L 3360 4954 
z
M 3251 4954 
L 3437 4954 
L 3437 2918 
Q 3437 2528 3401 2086 
Q 3366 1645 3264 1197 
Q 3162 749 2957 326 
Q 2752 -96 2413 -461 
Q 2400 -442 2374 -419 
Q 2349 -397 2320 -371 
Q 2291 -346 2266 -333 
Q 2598 19 2796 425 
Q 2995 832 3091 1261 
Q 3187 1690 3219 2112 
Q 3251 2534 3251 2918 
L 3251 4954 
z
M 5050 4954 
L 5242 4954 
L 5242 269 
Q 5242 83 5254 -29 
Q 5267 -141 5299 -166 
Q 5376 -205 5459 -205 
Q 5510 -205 5584 -205 
Q 5658 -205 5722 -205 
Q 5850 -205 5907 -147 
Q 5939 -115 5961 -64 
Q 5984 -13 5990 109 
Q 6003 224 6009 486 
Q 6016 749 6022 1107 
Q 6061 1062 6112 1036 
Q 6163 1011 6208 998 
Q 6208 813 6201 605 
Q 6195 397 6188 227 
Q 6182 58 6176 -13 
Q 6138 -250 6029 -326 
Q 5965 -358 5901 -374 
Q 5837 -390 5741 -390 
Q 5690 -390 5597 -390 
Q 5504 -390 5453 -390 
Q 5382 -390 5305 -374 
Q 5229 -358 5165 -314 
Q 5120 -282 5094 -227 
Q 5069 -173 5059 -35 
Q 5050 102 5050 371 
L 5050 4954 
z
M 378 3891 
L 2810 3891 
L 2810 3699 
L 378 3699 
L 378 3891 
z
M 1555 5318 
L 1747 5318 
L 1747 -435 
L 1555 -435 
L 1555 5318 
z
M 1555 3814 
L 1728 3763 
Q 1632 3373 1481 2957 
Q 1331 2541 1145 2144 
Q 960 1747 761 1408 
Q 563 1069 365 838 
Q 339 870 297 915 
Q 256 960 224 986 
Q 416 1210 614 1530 
Q 813 1850 992 2230 
Q 1171 2611 1318 3017 
Q 1466 3424 1555 3814 
z
M 1715 2970 
Q 1786 2906 1939 2752 
Q 2093 2598 2269 2416 
Q 2445 2234 2592 2077 
Q 2739 1920 2797 1850 
L 2643 1683 
Q 2573 1773 2432 1936 
Q 2291 2099 2124 2284 
Q 1958 2470 1811 2627 
Q 1664 2784 1581 2861 
L 1715 2970 
z
" transform="scale(0.015625)"/>
        <path id="NotoSansSC-Thin-68b0" d="M 2355 4045 
L 6029 4045 
L 6029 3859 
L 2355 3859 
L 2355 4045 
z
M 2381 2240 
L 4326 2240 
L 4326 2054 
L 2381 2054 
L 2381 2240 
z
M 3686 3430 
L 3878 3430 
L 3878 160 
L 3686 160 
L 3686 3430 
z
M 4915 5043 
L 5037 5146 
Q 5242 5005 5440 4816 
Q 5638 4627 5741 4480 
L 5606 4358 
Q 5504 4512 5309 4707 
Q 5114 4902 4915 5043 
z
M 4358 5312 
L 4557 5312 
Q 4563 4333 4643 3481 
Q 4723 2630 4851 1945 
Q 4979 1261 5132 768 
Q 5286 275 5443 12 
Q 5600 -250 5734 -250 
Q 5824 -250 5872 3 
Q 5920 256 5946 794 
Q 5978 762 6029 739 
Q 6080 717 6118 704 
Q 6099 288 6057 35 
Q 6016 -218 5936 -330 
Q 5856 -442 5722 -442 
Q 5555 -442 5395 -237 
Q 5235 -32 5088 345 
Q 4941 723 4816 1244 
Q 4691 1766 4592 2409 
Q 4493 3053 4435 3785 
Q 4378 4518 4358 5312 
z
M 2835 3430 
L 3027 3430 
L 3027 2336 
Q 3027 1907 2976 1468 
Q 2925 1030 2761 620 
Q 2598 211 2253 -147 
Q 2227 -115 2182 -83 
Q 2138 -51 2106 -26 
Q 2438 320 2592 713 
Q 2746 1107 2790 1523 
Q 2835 1939 2835 2336 
L 2835 3430 
z
M 5773 3226 
L 5952 3187 
Q 5651 1997 5123 1097 
Q 4595 198 3808 -410 
Q 3795 -390 3766 -368 
Q 3738 -346 3709 -320 
Q 3680 -294 3654 -282 
Q 4448 288 4969 1187 
Q 5491 2086 5773 3226 
z
M 474 3866 
L 2086 3866 
L 2086 3674 
L 474 3674 
L 474 3866 
z
M 1267 5318 
L 1459 5318 
L 1459 -435 
L 1267 -435 
L 1267 5318 
z
M 1280 3814 
L 1453 3770 
Q 1382 3398 1270 2985 
Q 1158 2573 1024 2173 
Q 890 1773 739 1427 
Q 589 1082 435 845 
Q 422 870 396 896 
Q 371 922 345 947 
Q 320 973 294 986 
Q 442 1210 589 1536 
Q 736 1862 870 2246 
Q 1005 2630 1110 3033 
Q 1216 3437 1280 3814 
z
M 1440 3430 
Q 1478 3373 1564 3222 
Q 1651 3072 1753 2893 
Q 1856 2714 1939 2560 
Q 2022 2406 2061 2336 
L 1914 2170 
Q 1875 2266 1792 2429 
Q 1709 2592 1616 2777 
Q 1523 2963 1440 3116 
Q 1357 3270 1312 3341 
L 1440 3430 
z
" transform="scale(0.015625)"/>
        <path id="NotoSansSC-Thin-8bbe" d="M 915 5037 
L 1050 5158 
Q 1222 5018 1401 4848 
Q 1581 4678 1734 4515 
Q 1888 4352 1984 4224 
L 1850 4070 
Q 1754 4205 1600 4371 
Q 1446 4538 1267 4714 
Q 1088 4890 915 5037 
z
M 1184 -282 
L 1178 -90 
L 1293 64 
L 2426 742 
Q 2438 704 2457 659 
Q 2477 614 2490 582 
Q 2080 326 1833 169 
Q 1587 13 1459 -70 
Q 1331 -154 1273 -198 
Q 1216 -243 1184 -282 
z
M 333 3270 
L 1446 3270 
L 1446 3078 
L 333 3078 
L 333 3270 
z
M 3360 5056 
L 4966 5056 
L 4966 4870 
L 3360 4870 
L 3360 5056 
z
M 2477 2438 
L 5536 2438 
L 5536 2253 
L 2477 2253 
L 2477 2438 
z
M 5466 2438 
L 5510 2438 
L 5549 2451 
L 5670 2387 
Q 5472 1811 5133 1347 
Q 4794 883 4362 531 
Q 3930 179 3446 -70 
Q 2963 -320 2483 -467 
Q 2470 -429 2435 -377 
Q 2400 -326 2368 -294 
Q 2835 -160 3305 77 
Q 3776 314 4198 650 
Q 4621 986 4950 1424 
Q 5280 1862 5466 2394 
L 5466 2438 
z
M 2931 2349 
Q 3187 1683 3638 1145 
Q 4090 608 4710 237 
Q 5331 -134 6093 -307 
Q 6067 -326 6041 -358 
Q 6016 -390 5993 -419 
Q 5971 -448 5958 -480 
Q 4819 -198 3990 522 
Q 3162 1242 2765 2285 
L 2931 2349 
z
M 3283 5056 
L 3469 5056 
L 3469 4333 
Q 3469 4058 3379 3754 
Q 3290 3450 3046 3165 
Q 2803 2880 2336 2650 
Q 2323 2675 2300 2700 
Q 2278 2726 2256 2755 
Q 2234 2784 2214 2797 
Q 2656 3014 2886 3273 
Q 3117 3533 3200 3808 
Q 3283 4083 3283 4333 
L 3283 5056 
z
M 4877 5056 
L 5062 5056 
L 5062 3488 
Q 5062 3354 5084 3309 
Q 5107 3264 5184 3264 
Q 5229 3264 5344 3264 
Q 5459 3264 5577 3264 
Q 5696 3264 5741 3264 
Q 5798 3264 5872 3270 
Q 5946 3277 5997 3283 
Q 6003 3245 6012 3184 
Q 6022 3123 6029 3091 
Q 5984 3085 5907 3078 
Q 5830 3072 5747 3072 
Q 5702 3072 5577 3072 
Q 5453 3072 5337 3072 
Q 5222 3072 5190 3072 
Q 5062 3072 4995 3110 
Q 4928 3149 4902 3241 
Q 4877 3334 4877 3494 
L 4877 5056 
z
M 1184 -282 
Q 1171 -256 1148 -227 
Q 1126 -198 1100 -166 
Q 1075 -134 1050 -115 
Q 1101 -83 1174 -12 
Q 1248 58 1309 166 
Q 1370 275 1370 416 
L 1370 3270 
L 1555 3270 
L 1555 122 
Q 1555 122 1497 74 
Q 1440 26 1369 -41 
Q 1299 -109 1241 -176 
Q 1184 -243 1184 -282 
z
" transform="scale(0.015625)"/>
        <path id="NotoSansSC-Thin-5907" d="M 2042 4730 
L 4838 4730 
L 4838 4544 
L 2042 4544 
L 2042 4730 
z
M 4787 4730 
L 4832 4730 
L 4877 4742 
L 4998 4646 
Q 4723 4269 4316 3942 
Q 3910 3616 3427 3344 
Q 2944 3072 2419 2857 
Q 1894 2643 1372 2489 
Q 851 2336 378 2240 
Q 371 2272 352 2310 
Q 333 2349 313 2381 
Q 294 2413 275 2432 
Q 742 2515 1257 2662 
Q 1773 2810 2288 3014 
Q 2803 3219 3276 3478 
Q 3750 3738 4140 4042 
Q 4531 4346 4787 4691 
L 4787 4730 
z
M 1990 4493 
Q 2374 3955 3011 3552 
Q 3648 3149 4454 2889 
Q 5261 2630 6138 2515 
Q 6118 2496 6092 2464 
Q 6067 2432 6048 2403 
Q 6029 2374 6016 2342 
Q 5152 2470 4339 2739 
Q 3526 3008 2870 3424 
Q 2214 3840 1811 4403 
L 1990 4493 
z
M 1229 2304 
L 5203 2304 
L 5203 -429 
L 5011 -429 
L 5011 2112 
L 1421 2112 
L 1421 -454 
L 1229 -454 
L 1229 2304 
z
M 1254 1171 
L 5158 1171 
L 5158 986 
L 1254 986 
L 1254 1171 
z
M 1254 -32 
L 5158 -32 
L 5158 -218 
L 1254 -218 
L 1254 -32 
z
M 3110 2170 
L 3302 2170 
L 3302 -141 
L 3110 -141 
L 3110 2170 
z
M 2419 5318 
L 2630 5280 
Q 2374 4813 1907 4320 
Q 1440 3827 749 3443 
Q 730 3469 704 3494 
Q 678 3520 652 3542 
Q 627 3565 602 3578 
Q 1056 3814 1411 4108 
Q 1766 4403 2019 4720 
Q 2272 5037 2419 5318 
z
" transform="scale(0.015625)"/>
       </defs>
       <use xlink:href="#NotoSansSC-Thin-673a"/>
       <use xlink:href="#NotoSansSC-Thin-68b0" transform="translate(99.999985 0)"/>
       <use xlink:href="#NotoSansSC-Thin-8bbe" transform="translate(199.999969 0)"/>
       <use xlink:href="#NotoSansSC-Thin-5907" transform="translate(299.999954 0)"/>
      </g>
     </g>
    </g>
    <g id="ytick_3">
     <g id="line2d_19">
      <g>
       <use xlink:href="#mce9300a9d4" x="46.2" y="120.219903" style="fill: #64748b; stroke: #64748b; stroke-width: 0.8"/>
      </g>
     </g>
     <g id="text_12">
      <!-- 通信 -->
      <g style="fill: #64748b" transform="translate(23.2 123.396153) scale(0.08 -0.08)">
       <defs>
        <path id="NotoSansSC-Thin-901a" d="M 1523 2963 
L 1523 544 
L 1338 544 
L 1338 2771 
L 339 2771 
L 339 2963 
L 1523 2963 
z
M 538 4941 
L 678 5037 
Q 877 4877 1078 4681 
Q 1280 4486 1456 4297 
Q 1632 4109 1747 3962 
L 1594 3846 
Q 1485 3994 1309 4186 
Q 1133 4378 931 4576 
Q 730 4774 538 4941 
z
M 2982 4410 
L 3104 4544 
Q 3424 4429 3773 4281 
Q 4122 4134 4438 3984 
Q 4755 3834 4966 3699 
L 4845 3546 
Q 4640 3674 4326 3830 
Q 4013 3987 3661 4140 
Q 3309 4294 2982 4410 
z
M 2342 3706 
L 5702 3706 
L 5702 3520 
L 2528 3520 
L 2528 390 
L 2342 390 
L 2342 3706 
z
M 5606 3706 
L 5798 3706 
L 5798 685 
Q 5798 563 5760 508 
Q 5722 454 5626 422 
Q 5523 397 5318 390 
Q 5114 384 4755 384 
Q 4749 429 4726 480 
Q 4704 531 4678 570 
Q 4979 563 5200 563 
Q 5421 563 5491 563 
Q 5562 570 5584 595 
Q 5606 621 5606 685 
L 5606 3706 
z
M 2291 5050 
L 5626 5050 
L 5626 4864 
L 2291 4864 
L 2291 5050 
z
M 2438 2739 
L 5722 2739 
L 5722 2554 
L 2438 2554 
L 2438 2739 
z
M 2438 1754 
L 5722 1754 
L 5722 1562 
L 2438 1562 
L 2438 1754 
z
M 3949 3661 
L 4134 3661 
L 4134 416 
L 3949 416 
L 3949 3661 
z
M 5581 5050 
L 5626 5050 
L 5670 5062 
L 5811 4966 
Q 5510 4672 5065 4409 
Q 4621 4147 4192 3981 
Q 4166 4013 4131 4054 
Q 4096 4096 4064 4122 
Q 4346 4224 4630 4368 
Q 4915 4512 5164 4678 
Q 5414 4845 5581 5005 
L 5581 5050 
z
M 1408 646 
Q 1568 646 1715 528 
Q 1862 410 2144 218 
Q 2477 13 2880 -48 
Q 3283 -109 3827 -109 
Q 4134 -109 4444 -102 
Q 4755 -96 5056 -83 
Q 5357 -70 5638 -57 
Q 5920 -45 6163 -26 
Q 6150 -51 6137 -86 
Q 6125 -122 6115 -160 
Q 6106 -198 6099 -230 
Q 5952 -237 5680 -249 
Q 5408 -262 5078 -268 
Q 4749 -275 4422 -281 
Q 4096 -288 3834 -288 
Q 3245 -288 2816 -211 
Q 2387 -134 2048 83 
Q 1856 205 1689 342 
Q 1523 480 1408 480 
Q 1293 480 1145 371 
Q 998 262 832 76 
Q 666 -109 480 -346 
L 339 -205 
Q 646 154 912 400 
Q 1178 646 1408 646 
z
" transform="scale(0.015625)"/>
        <path id="NotoSansSC-Thin-4fe1" d="M 2438 3322 
L 5440 3322 
L 5440 3130 
L 2438 3130 
L 2438 3322 
z
M 2438 2438 
L 5440 2438 
L 5440 2253 
L 2438 2253 
L 2438 2438 
z
M 2458 32 
L 5402 32 
L 5402 -154 
L 2458 -154 
L 2458 32 
z
M 1965 4198 
L 5978 4198 
L 5978 4006 
L 1965 4006 
L 1965 4198 
z
M 2368 1523 
L 5491 1523 
L 5491 -442 
L 5299 -442 
L 5299 1338 
L 2554 1338 
L 2554 -461 
L 2368 -461 
L 2368 1523 
z
M 3475 5229 
L 3661 5299 
Q 3802 5107 3933 4880 
Q 4064 4653 4128 4486 
L 3936 4397 
Q 3872 4563 3741 4796 
Q 3610 5030 3475 5229 
z
M 1773 5293 
L 1952 5248 
Q 1766 4710 1523 4201 
Q 1280 3693 995 3245 
Q 710 2797 403 2438 
Q 390 2458 364 2486 
Q 339 2515 310 2544 
Q 282 2573 256 2592 
Q 563 2925 844 3360 
Q 1126 3795 1363 4288 
Q 1600 4781 1773 5293 
z
M 1152 3731 
L 1325 3910 
L 1338 3904 
L 1338 -467 
L 1152 -467 
L 1152 3731 
z
" transform="scale(0.015625)"/>
       </defs>
       <use xlink:href="#NotoSansSC-Thin-901a"/>
       <use xlink:href="#NotoSansSC-Thin-4fe1" transform="translate(99.999985 0)"/>
      </g>
     </g>
    </g>
    <g id="ytick_4">
     <g id="line2d_20">
      <g>
       <use xlink:href="#mce9300a9d4" x="46.2" y="104.095976" style="fill: #64748b; stroke: #64748b; stroke-width: 0.8"/>
      </g>
     </g>
     <g id="text_13">
      <!-- 有色金属 -->
      <g style="fill: #64748b" transform="translate(7.2 107.272226) scale(0.08 -0.08)">
       <defs>
        <path id="NotoSansSC-Thin-6709" d="M 461 4429 
L 5965 4429 
L 5965 4243 
L 461 4243 
L 461 4429 
z
M 1862 2163 
L 5088 2163 
L 5088 1978 
L 1862 1978 
L 1862 2163 
z
M 1754 3264 
L 5050 3264 
L 5050 3072 
L 1939 3072 
L 1939 -448 
L 1754 -448 
L 1754 3264 
z
M 4986 3264 
L 5178 3264 
L 5178 -83 
Q 5178 -224 5133 -291 
Q 5088 -358 4960 -390 
Q 4838 -416 4572 -416 
Q 4307 -416 3872 -416 
Q 3866 -378 3840 -323 
Q 3814 -269 3789 -224 
Q 4051 -230 4262 -233 
Q 4474 -237 4624 -233 
Q 4774 -230 4838 -230 
Q 4928 -224 4957 -192 
Q 4986 -160 4986 -83 
L 4986 3264 
z
M 2669 5312 
L 2848 5261 
Q 2637 4582 2307 3920 
Q 1978 3258 1517 2682 
Q 1056 2106 461 1677 
Q 454 1702 432 1728 
Q 410 1754 390 1779 
Q 371 1805 352 1824 
Q 787 2131 1148 2528 
Q 1510 2925 1801 3379 
Q 2093 3834 2310 4323 
Q 2528 4813 2669 5312 
z
M 1862 1056 
L 5088 1056 
L 5088 864 
L 1862 864 
L 1862 1056 
z
" transform="scale(0.015625)"/>
        <path id="NotoSansSC-Thin-8272" d="M 3168 3494 
L 3360 3494 
L 3360 1798 
L 3168 1798 
L 3168 3494 
z
M 2067 4691 
L 4186 4691 
L 4186 4506 
L 1971 4506 
L 2067 4691 
z
M 4102 4691 
L 4147 4691 
L 4192 4704 
L 4326 4621 
Q 4198 4397 4025 4163 
Q 3853 3930 3667 3725 
Q 3482 3520 3309 3360 
Q 3283 3392 3241 3421 
Q 3200 3450 3168 3475 
Q 3341 3622 3517 3824 
Q 3693 4026 3846 4240 
Q 4000 4454 4102 4640 
L 4102 4691 
z
M 1216 3546 
L 1408 3546 
L 1408 326 
Q 1408 141 1475 32 
Q 1542 -77 1728 -121 
Q 1914 -166 2266 -166 
Q 2374 -166 2646 -166 
Q 2918 -166 3273 -166 
Q 3629 -166 3993 -166 
Q 4358 -166 4656 -166 
Q 4954 -166 5101 -166 
Q 5427 -166 5587 -76 
Q 5747 13 5814 256 
Q 5882 499 5914 947 
Q 5965 915 6019 892 
Q 6074 870 6118 858 
Q 6086 506 6035 269 
Q 5984 32 5878 -105 
Q 5773 -243 5577 -300 
Q 5382 -358 5069 -358 
Q 5018 -358 4813 -358 
Q 4608 -358 4310 -358 
Q 4013 -358 3689 -358 
Q 3366 -358 3072 -358 
Q 2778 -358 2573 -358 
Q 2368 -358 2323 -358 
Q 1907 -358 1664 -304 
Q 1421 -250 1318 -96 
Q 1216 58 1216 339 
L 1216 3546 
z
M 2387 5306 
L 2566 5248 
Q 2330 4768 1994 4329 
Q 1658 3891 1267 3526 
Q 877 3162 461 2880 
Q 454 2899 432 2931 
Q 410 2963 384 2998 
Q 358 3034 333 3046 
Q 742 3309 1129 3657 
Q 1517 4006 1840 4425 
Q 2163 4845 2387 5306 
z
M 1293 3546 
L 5453 3546 
L 5453 1350 
L 5254 1350 
L 5254 3354 
L 1293 3354 
L 1293 3546 
z
M 1293 1894 
L 5363 1894 
L 5363 1709 
L 1293 1709 
L 1293 1894 
z
" transform="scale(0.015625)"/>
        <path id="NotoSansSC-Thin-91d1" d="M 1613 3334 
L 4806 3334 
L 4806 3142 
L 1613 3142 
L 1613 3334 
z
M 717 2067 
L 5715 2067 
L 5715 1875 
L 717 1875 
L 717 2067 
z
M 454 -32 
L 5958 -32 
L 5958 -218 
L 454 -218 
L 454 -32 
z
M 3085 3270 
L 3277 3270 
L 3277 -147 
L 3085 -147 
L 3085 3270 
z
M 1382 1478 
L 1549 1536 
Q 1683 1344 1808 1117 
Q 1933 890 2035 675 
Q 2138 461 2189 294 
L 2016 224 
Q 1965 390 1865 608 
Q 1766 826 1641 1056 
Q 1517 1286 1382 1478 
z
M 4826 1555 
L 5005 1466 
Q 4832 1152 4614 803 
Q 4397 454 4205 211 
L 4058 288 
Q 4186 454 4326 678 
Q 4467 902 4601 1136 
Q 4736 1370 4826 1555 
z
M 3290 5107 
Q 3526 4806 3859 4512 
Q 4192 4218 4579 3952 
Q 4966 3686 5369 3475 
Q 5773 3264 6144 3130 
Q 6118 3110 6092 3081 
Q 6067 3053 6041 3024 
Q 6016 2995 5997 2963 
Q 5632 3110 5232 3331 
Q 4832 3552 4441 3827 
Q 4051 4102 3712 4409 
Q 3373 4717 3130 5024 
L 3290 5107 
z
M 3277 5363 
L 3443 5280 
Q 3117 4794 2633 4346 
Q 2150 3898 1577 3542 
Q 1005 3187 397 2957 
Q 371 2995 332 3046 
Q 294 3098 256 3123 
Q 858 3341 1434 3683 
Q 2010 4026 2490 4458 
Q 2970 4890 3277 5363 
z
" transform="scale(0.015625)"/>
        <path id="NotoSansSC-Thin-5c5e" d="M 973 5018 
L 1165 5018 
L 1165 3162 
Q 1165 2765 1139 2307 
Q 1114 1850 1040 1373 
Q 966 896 819 441 
Q 672 -13 422 -403 
Q 403 -384 374 -365 
Q 346 -346 317 -326 
Q 288 -307 262 -301 
Q 506 83 646 528 
Q 787 973 857 1430 
Q 928 1888 950 2333 
Q 973 2778 973 3162 
L 973 5018 
z
M 1069 5018 
L 5568 5018 
L 5568 3859 
L 1069 3859 
L 1069 4045 
L 5382 4045 
L 5382 4832 
L 1069 4832 
L 1069 5018 
z
M 3494 3347 
L 3680 3347 
L 3680 352 
L 3494 352 
L 3494 3347 
z
M 1997 2592 
L 1997 1984 
L 5222 1984 
L 5222 2592 
L 1997 2592 
z
M 1805 2778 
L 5408 2778 
L 5408 1792 
L 1805 1792 
L 1805 2778 
z
M 1542 1293 
L 5606 1293 
L 5606 1107 
L 1734 1107 
L 1734 -461 
L 1542 -461 
L 1542 1293 
z
M 5491 1293 
L 5677 1293 
L 5677 -173 
Q 5677 -275 5645 -326 
Q 5613 -378 5523 -410 
Q 5427 -435 5225 -438 
Q 5024 -442 4678 -442 
Q 4672 -410 4649 -362 
Q 4627 -314 4608 -269 
Q 4902 -275 5107 -278 
Q 5312 -282 5382 -275 
Q 5453 -269 5472 -246 
Q 5491 -224 5491 -173 
L 5491 1293 
z
M 2106 416 
Q 2598 429 3308 454 
Q 4019 480 4774 512 
L 4768 333 
Q 4032 301 3331 269 
Q 2630 237 2118 218 
L 2106 416 
z
M 5088 3590 
L 5242 3430 
Q 4915 3379 4492 3334 
Q 4070 3290 3593 3261 
Q 3117 3232 2633 3213 
Q 2150 3194 1696 3187 
Q 1690 3226 1674 3274 
Q 1658 3322 1638 3354 
Q 2080 3360 2563 3379 
Q 3046 3398 3516 3430 
Q 3987 3462 4393 3504 
Q 4800 3546 5088 3590 
z
M 4256 870 
L 4390 947 
Q 4531 806 4684 646 
Q 4838 486 4976 332 
Q 5114 179 5203 64 
L 5062 -38 
Q 4973 83 4838 240 
Q 4704 397 4550 563 
Q 4397 730 4256 870 
z
" transform="scale(0.015625)"/>
       </defs>
       <use xlink:href="#NotoSansSC-Thin-6709"/>
       <use xlink:href="#NotoSansSC-Thin-8272" transform="translate(99.999985 0)"/>
       <use xlink:href="#NotoSansSC-Thin-91d1" transform="translate(199.999969 0)"/>
       <use xlink:href="#NotoSansSC-Thin-5c5e" transform="translate(299.999954 0)"/>
      </g>
     </g>
    </g>
    <g id="ytick_5">
     <g id="line2d_21">
      <g>
       <use xlink:href="#mce9300a9d4" x="46.2" y="87.972049" style="fill: #64748b; stroke: #64748b; stroke-width: 0.8"/>
      </g>
     </g>
     <g id="text_14">
      <!-- 国防军工 -->
      <g style="fill: #64748b" transform="translate(7.2 91.148299) scale(0.08 -0.08)">
       <defs>
        <path id="NotoSansSC-Thin-56fd" d="M 1510 4051 
L 4928 4051 
L 4928 3866 
L 1510 3866 
L 1510 4051 
z
M 1702 2650 
L 4755 2650 
L 4755 2458 
L 1702 2458 
L 1702 2650 
z
M 1395 1056 
L 5094 1056 
L 5094 864 
L 1395 864 
L 1395 1056 
z
M 3072 3994 
L 3264 3994 
L 3264 947 
L 3072 947 
L 3072 3994 
z
M 3859 2093 
L 3994 2182 
Q 4218 2010 4435 1789 
Q 4653 1568 4768 1402 
L 4621 1293 
Q 4506 1459 4288 1686 
Q 4070 1914 3859 2093 
z
M 608 4986 
L 5805 4986 
L 5805 -461 
L 5613 -461 
L 5613 4800 
L 800 4800 
L 800 -461 
L 608 -461 
L 608 4986 
z
M 704 51 
L 5702 51 
L 5702 -134 
L 704 -134 
L 704 51 
z
" transform="scale(0.015625)"/>
        <path id="NotoSansSC-Thin-9632" d="M 3898 5229 
L 4070 5254 
Q 4166 5024 4259 4755 
Q 4352 4486 4397 4307 
L 4224 4256 
Q 4179 4442 4083 4717 
Q 3987 4992 3898 5229 
z
M 2278 4192 
L 6035 4192 
L 6035 4000 
L 2278 4000 
L 2278 4192 
z
M 3526 2810 
L 5510 2810 
L 5510 2624 
L 3526 2624 
L 3526 2810 
z
M 5446 2810 
L 5632 2810 
Q 5632 2810 5632 2787 
Q 5632 2765 5632 2733 
Q 5632 2701 5632 2682 
Q 5600 1894 5568 1356 
Q 5536 819 5494 480 
Q 5453 141 5401 -48 
Q 5350 -237 5274 -314 
Q 5210 -390 5123 -419 
Q 5037 -448 4902 -454 
Q 4762 -461 4502 -451 
Q 4243 -442 3981 -422 
Q 3974 -384 3961 -333 
Q 3949 -282 3917 -237 
Q 4230 -262 4499 -268 
Q 4768 -275 4864 -275 
Q 5043 -282 5114 -205 
Q 5197 -115 5254 189 
Q 5312 493 5360 1113 
Q 5408 1734 5446 2765 
L 5446 2810 
z
M 3501 4064 
L 3693 4064 
Q 3674 3373 3610 2704 
Q 3546 2035 3376 1443 
Q 3206 851 2873 368 
Q 2541 -115 1978 -435 
Q 1952 -410 1907 -374 
Q 1862 -339 1824 -314 
Q 2381 -6 2710 464 
Q 3040 934 3203 1516 
Q 3366 2099 3424 2748 
Q 3482 3398 3501 4064 
z
M 589 5043 
L 2240 5043 
L 2240 4858 
L 781 4858 
L 781 -442 
L 589 -442 
L 589 5043 
z
M 2176 5043 
L 2214 5043 
L 2253 5056 
L 2381 4966 
Q 2272 4704 2141 4413 
Q 2010 4122 1875 3830 
Q 1741 3539 1606 3264 
Q 2042 2822 2189 2448 
Q 2336 2074 2336 1747 
Q 2336 1536 2285 1347 
Q 2234 1158 2106 1075 
Q 2042 1030 1958 1004 
Q 1875 979 1786 966 
Q 1670 960 1539 960 
Q 1408 960 1293 966 
Q 1286 1011 1267 1065 
Q 1248 1120 1216 1158 
Q 1363 1152 1497 1149 
Q 1632 1146 1734 1152 
Q 1869 1152 1984 1216 
Q 2074 1280 2109 1433 
Q 2144 1587 2144 1747 
Q 2144 2054 1993 2422 
Q 1843 2790 1389 3232 
Q 1504 3462 1616 3699 
Q 1728 3936 1830 4166 
Q 1933 4397 2019 4608 
Q 2106 4819 2176 4998 
L 2176 5043 
z
" transform="scale(0.015625)"/>
        <path id="NotoSansSC-Thin-519b" d="M 550 5011 
L 5862 5011 
L 5862 3802 
L 5670 3802 
L 5670 4826 
L 742 4826 
L 742 3802 
L 550 3802 
L 550 5011 
z
M 1158 3622 
L 5229 3622 
L 5229 3430 
L 1158 3430 
L 1158 3622 
z
M 499 934 
L 5978 934 
L 5978 749 
L 499 749 
L 499 934 
z
M 3309 3046 
L 3494 3046 
L 3494 -448 
L 3309 -448 
L 3309 3046 
z
M 1299 1843 
Q 1299 1869 1286 1907 
Q 1274 1946 1261 1984 
Q 1248 2022 1235 2048 
Q 1306 2061 1392 2179 
Q 1478 2298 1581 2477 
Q 1638 2566 1747 2768 
Q 1856 2970 1993 3245 
Q 2131 3520 2268 3830 
Q 2406 4141 2509 4454 
L 2707 4397 
Q 2528 3955 2326 3516 
Q 2125 3078 1910 2688 
Q 1696 2298 1472 1984 
L 1472 1978 
Q 1472 1978 1446 1965 
Q 1421 1952 1385 1933 
Q 1350 1914 1324 1891 
Q 1299 1869 1299 1843 
z
M 1299 1843 
L 1299 2035 
L 1485 2112 
L 5414 2112 
L 5414 1926 
L 1920 1926 
Q 1619 1926 1484 1904 
Q 1350 1882 1299 1843 
z
" transform="scale(0.015625)"/>
        <path id="NotoSansSC-Thin-5de5" d="M 691 4538 
L 5747 4538 
L 5747 4346 
L 691 4346 
L 691 4538 
z
M 378 275 
L 6029 275 
L 6029 90 
L 378 90 
L 378 275 
z
M 3098 4474 
L 3290 4474 
L 3290 186 
L 3098 186 
L 3098 4474 
z
" transform="scale(0.015625)"/>
       </defs>
       <use xlink:href="#NotoSansSC-Thin-56fd"/>
       <use xlink:href="#NotoSansSC-Thin-9632" transform="translate(99.999985 0)"/>
       <use xlink:href="#NotoSansSC-Thin-519b" transform="translate(199.999969 0)"/>
       <use xlink:href="#NotoSansSC-Thin-5de5" transform="translate(299.999954 0)"/>
      </g>
     </g>
    </g>
    <g id="ytick_6">
     <g id="line2d_22">
      <g>
       <use xlink:href="#mce9300a9d4" x="46.2" y="71.848122" style="fill: #64748b; stroke: #64748b; stroke-width: 0.8"/>
      </g>
     </g>
     <g id="text_15">
      <!-- 银行 -->
      <g style="fill: #64748b" transform="translate(23.2 75.024372) scale(0.08 -0.08)">
       <defs>
        <path id="NotoSansSC-Thin-94f6" d="M 3046 5005 
L 5670 5005 
L 5670 2349 
L 3046 2349 
L 3046 2534 
L 5485 2534 
L 5485 4819 
L 3046 4819 
L 3046 5005 
z
M 3091 3770 
L 5581 3770 
L 5581 3584 
L 3091 3584 
L 3091 3770 
z
M 4115 2438 
Q 4269 1805 4544 1277 
Q 4819 749 5225 368 
Q 5632 -13 6157 -211 
Q 6131 -230 6105 -262 
Q 6080 -294 6057 -323 
Q 6035 -352 6016 -384 
Q 5485 -160 5075 240 
Q 4666 640 4384 1190 
Q 4102 1741 3942 2400 
L 4115 2438 
z
M 5888 1978 
L 6029 1850 
Q 5837 1683 5590 1513 
Q 5344 1344 5091 1193 
Q 4838 1043 4621 922 
L 4506 1056 
Q 4717 1178 4973 1334 
Q 5229 1491 5472 1660 
Q 5715 1830 5888 1978 
z
M 2880 -435 
L 2874 -250 
L 3021 -134 
L 4506 256 
Q 4506 218 4509 166 
Q 4512 115 4518 83 
Q 4000 -70 3689 -160 
Q 3379 -250 3216 -301 
Q 3053 -352 2985 -381 
Q 2918 -410 2880 -435 
z
M 2880 -435 
Q 2874 -410 2854 -378 
Q 2835 -346 2812 -307 
Q 2790 -269 2771 -243 
Q 2822 -218 2886 -144 
Q 2950 -70 2950 109 
L 2950 5005 
L 3136 5005 
L 3136 -186 
Q 3136 -186 3110 -205 
Q 3085 -224 3046 -253 
Q 3008 -282 2969 -314 
Q 2931 -346 2905 -378 
Q 2880 -410 2880 -435 
z
M 1184 5293 
L 1376 5248 
Q 1267 4922 1113 4605 
Q 960 4288 774 4009 
Q 589 3731 390 3507 
Q 378 3526 352 3555 
Q 326 3584 300 3616 
Q 275 3648 250 3661 
Q 544 3962 790 4394 
Q 1037 4826 1184 5293 
z
M 928 4474 
L 2573 4474 
L 2573 4288 
L 890 4288 
L 928 4474 
z
M 640 3386 
L 2445 3386 
L 2445 3200 
L 640 3200 
L 640 3386 
z
M 358 2093 
L 2592 2093 
L 2592 1901 
L 358 1901 
L 358 2093 
z
M 1293 -358 
L 1293 -160 
L 1408 -19 
L 2637 621 
Q 2650 582 2666 537 
Q 2682 493 2694 467 
Q 2253 224 1987 77 
Q 1722 -70 1584 -153 
Q 1446 -237 1385 -278 
Q 1325 -320 1293 -358 
z
M 1293 -358 
Q 1286 -333 1267 -294 
Q 1248 -256 1229 -221 
Q 1210 -186 1190 -160 
Q 1242 -134 1306 -70 
Q 1370 -6 1370 173 
L 1370 3270 
L 1555 3270 
L 1555 -122 
Q 1555 -122 1529 -138 
Q 1504 -154 1465 -179 
Q 1427 -205 1385 -237 
Q 1344 -269 1318 -301 
Q 1293 -333 1293 -358 
z
" transform="scale(0.015625)"/>
        <path id="NotoSansSC-Thin-884c" d="M 2714 4909 
L 5875 4909 
L 5875 4717 
L 2714 4717 
L 2714 4909 
z
M 4832 3085 
L 5018 3085 
L 5018 -109 
Q 5018 -250 4966 -314 
Q 4915 -378 4806 -410 
Q 4685 -429 4419 -432 
Q 4154 -435 3642 -435 
Q 3635 -403 3612 -358 
Q 3590 -314 3558 -269 
Q 3834 -275 4061 -278 
Q 4288 -282 4445 -278 
Q 4602 -275 4659 -269 
Q 4755 -262 4793 -230 
Q 4832 -198 4832 -115 
L 4832 3085 
z
M 2426 3149 
L 6074 3149 
L 6074 2963 
L 2426 2963 
L 2426 3149 
z
M 1306 2912 
L 1478 3078 
L 1491 3066 
L 1491 -480 
L 1306 -480 
L 1306 2912 
z
M 2061 3974 
L 2240 3910 
Q 1997 3526 1686 3152 
Q 1376 2778 1040 2451 
Q 704 2125 371 1862 
Q 358 1882 329 1907 
Q 301 1933 272 1961 
Q 243 1990 218 2003 
Q 557 2246 893 2563 
Q 1229 2880 1529 3241 
Q 1830 3603 2061 3974 
z
M 1786 5325 
L 1971 5248 
Q 1779 4992 1516 4723 
Q 1254 4454 969 4204 
Q 685 3955 416 3757 
Q 403 3776 377 3801 
Q 352 3827 326 3856 
Q 301 3885 282 3898 
Q 550 4090 832 4330 
Q 1114 4570 1363 4829 
Q 1613 5088 1786 5325 
z
" transform="scale(0.015625)"/>
       </defs>
       <use xlink:href="#NotoSansSC-Thin-94f6"/>
       <use xlink:href="#NotoSansSC-Thin-884c" transform="translate(99.999985 0)"/>
      </g>
     </g>
    </g>
    <g id="ytick_7">
     <g id="line2d_23">
      <g>
       <use xlink:href="#mce9300a9d4" x="46.2" y="55.724194" style="fill: #64748b; stroke: #64748b; stroke-width: 0.8"/>
      </g>
     </g>
     <g id="text_16">
      <!-- 传媒 -->
      <g style="fill: #64748b" transform="translate(23.2 58.900444) scale(0.08 -0.08)">
       <defs>
        <path id="NotoSansSC-Thin-4f20" d="M 1862 5293 
L 2048 5242 
Q 1837 4704 1555 4192 
Q 1274 3680 950 3235 
Q 627 2790 282 2438 
Q 269 2458 246 2486 
Q 224 2515 198 2547 
Q 173 2579 147 2592 
Q 493 2925 809 3357 
Q 1126 3789 1398 4285 
Q 1670 4781 1862 5293 
z
M 1152 3763 
L 1325 3942 
L 1338 3936 
L 1338 -435 
L 1152 -435 
L 1152 3763 
z
M 2950 2106 
L 5350 2106 
L 5350 1920 
L 2950 1920 
L 2950 2106 
z
M 5293 2106 
L 5338 2106 
L 5376 2125 
L 5517 2048 
Q 5325 1811 5075 1510 
Q 4826 1210 4554 896 
Q 4282 582 4032 301 
L 3872 390 
Q 4122 666 4390 979 
Q 4659 1293 4899 1584 
Q 5139 1875 5293 2074 
L 5293 2106 
z
M 3821 5318 
L 4000 5286 
Q 3898 4896 3766 4441 
Q 3635 3987 3497 3523 
Q 3360 3059 3232 2643 
Q 3104 2227 2995 1920 
L 2784 1920 
Q 2899 2240 3040 2662 
Q 3181 3085 3321 3552 
Q 3462 4019 3590 4476 
Q 3718 4934 3821 5318 
z
M 2214 4506 
L 5779 4506 
L 5779 4314 
L 2214 4314 
L 2214 4506 
z
M 1850 3283 
L 6035 3283 
L 6035 3091 
L 1850 3091 
L 1850 3283 
z
M 3123 870 
L 3283 986 
Q 3578 794 3885 563 
Q 4192 333 4454 109 
Q 4717 -115 4877 -294 
L 4710 -435 
Q 4544 -250 4281 -16 
Q 4019 218 3715 451 
Q 3411 685 3123 870 
z
" transform="scale(0.015625)"/>
        <path id="NotoSansSC-Thin-5a92" d="M 365 3949 
L 2093 3949 
L 2093 3757 
L 365 3757 
L 365 3949 
z
M 474 1792 
L 614 1907 
Q 947 1696 1276 1427 
Q 1606 1158 1881 886 
Q 2157 614 2317 378 
L 2163 243 
Q 2003 480 1731 758 
Q 1459 1037 1132 1309 
Q 806 1581 474 1792 
z
M 2029 3949 
L 2067 3949 
L 2106 3962 
L 2221 3930 
Q 2144 2701 1910 1843 
Q 1677 986 1302 435 
Q 928 -115 429 -429 
Q 403 -397 364 -345 
Q 326 -294 282 -269 
Q 762 13 1126 544 
Q 1491 1075 1724 1900 
Q 1958 2726 2029 3891 
L 2029 3949 
z
M 474 1792 
Q 570 2118 675 2553 
Q 781 2989 880 3475 
Q 979 3962 1059 4438 
Q 1139 4915 1184 5325 
L 1382 5312 
Q 1331 4890 1248 4406 
Q 1165 3923 1065 3436 
Q 966 2950 860 2512 
Q 755 2074 659 1747 
L 474 1792 
z
M 2413 4576 
L 6029 4576 
L 6029 4384 
L 2413 4384 
L 2413 4576 
z
M 2496 1638 
L 6003 1638 
L 6003 1453 
L 2496 1453 
L 2496 1638 
z
M 3200 3584 
L 5261 3584 
L 5261 3392 
L 3200 3392 
L 3200 3584 
z
M 3098 5318 
L 3290 5318 
L 3290 2573 
L 5190 2573 
L 5190 5318 
L 5376 5318 
L 5376 2387 
L 3098 2387 
L 3098 5318 
z
M 4141 2406 
L 4326 2406 
L 4326 -448 
L 4141 -448 
L 4141 2406 
z
M 4006 1594 
L 4179 1523 
Q 3994 1158 3699 812 
Q 3405 467 3059 192 
Q 2714 -83 2374 -256 
Q 2355 -230 2329 -201 
Q 2304 -173 2278 -144 
Q 2253 -115 2227 -96 
Q 2573 58 2915 320 
Q 3258 582 3542 912 
Q 3827 1242 4006 1594 
z
M 4454 1587 
Q 4640 1261 4921 934 
Q 5203 608 5526 342 
Q 5850 77 6157 -77 
Q 6118 -102 6076 -147 
Q 6035 -192 6003 -237 
Q 5702 -58 5379 224 
Q 5056 506 4771 842 
Q 4486 1178 4294 1510 
L 4454 1587 
z
" transform="scale(0.015625)"/>
       </defs>
       <use xlink:href="#NotoSansSC-Thin-4f20"/>
       <use xlink:href="#NotoSansSC-Thin-5a92" transform="translate(99.999985 0)"/>
      </g>
     </g>
    </g>
    <g id="ytick_8">
     <g id="line2d_24">
      <g>
       <use xlink:href="#mce9300a9d4" x="46.2" y="39.600267" style="fill: #64748b; stroke: #64748b; stroke-width: 0.8"/>
      </g>
     </g>
     <g id="text_17">
      <!-- 计算机 -->
      <g style="fill: #64748b" transform="translate(15.2 42.776517) scale(0.08 -0.08)">
       <defs>
        <path id="NotoSansSC-Thin-8ba1" d="M 1018 5037 
L 1152 5158 
Q 1331 5011 1516 4835 
Q 1702 4659 1862 4489 
Q 2022 4320 2118 4186 
L 1990 4032 
Q 1888 4166 1728 4342 
Q 1568 4518 1382 4704 
Q 1197 4890 1018 5037 
z
M 1299 -230 
L 1293 -32 
L 1402 128 
L 2554 890 
Q 2566 870 2579 841 
Q 2592 813 2608 787 
Q 2624 762 2630 742 
Q 2208 454 1958 278 
Q 1709 102 1577 6 
Q 1446 -90 1388 -141 
Q 1331 -192 1299 -230 
z
M 346 3270 
L 1542 3270 
L 1542 3078 
L 346 3078 
L 346 3270 
z
M 2413 3085 
L 6086 3085 
L 6086 2899 
L 2413 2899 
L 2413 3085 
z
M 4122 5306 
L 4307 5306 
L 4307 -448 
L 4122 -448 
L 4122 5306 
z
M 1299 -230 
Q 1286 -205 1264 -173 
Q 1242 -141 1216 -112 
Q 1190 -83 1165 -64 
Q 1235 -19 1340 99 
Q 1446 218 1446 416 
L 1446 3270 
L 1632 3270 
L 1632 128 
Q 1632 128 1597 99 
Q 1562 70 1514 28 
Q 1466 -13 1418 -64 
Q 1370 -115 1334 -156 
Q 1299 -198 1299 -230 
z
" transform="scale(0.015625)"/>
        <path id="NotoSansSC-Thin-7b97" d="M 410 864 
L 6029 864 
L 6029 678 
L 410 678 
L 410 864 
z
M 1402 3021 
L 1402 2502 
L 5107 2502 
L 5107 3021 
L 1402 3021 
z
M 1402 2317 
L 1402 1786 
L 5107 1786 
L 5107 2317 
L 1402 2317 
z
M 1402 3712 
L 1402 3206 
L 5107 3206 
L 5107 3712 
L 1402 3712 
z
M 1210 3904 
L 5293 3904 
L 5293 1600 
L 1210 1600 
L 1210 3904 
z
M 4262 1645 
L 4448 1645 
L 4448 -442 
L 4262 -442 
L 4262 1645 
z
M 1005 4781 
L 3123 4781 
L 3123 4595 
L 1005 4595 
L 1005 4781 
z
M 3398 4781 
L 5946 4781 
L 5946 4595 
L 3398 4595 
L 3398 4781 
z
M 1222 5325 
L 1408 5280 
Q 1242 4870 995 4489 
Q 749 4109 480 3840 
Q 467 3853 435 3875 
Q 403 3898 371 3920 
Q 339 3942 314 3955 
Q 595 4218 835 4576 
Q 1075 4934 1222 5325 
z
M 3654 5325 
L 3840 5286 
Q 3699 4883 3459 4531 
Q 3219 4179 2944 3936 
Q 2931 3955 2899 3977 
Q 2867 4000 2835 4022 
Q 2803 4045 2778 4058 
Q 3059 4294 3289 4624 
Q 3520 4954 3654 5325 
z
M 1568 4621 
L 1741 4678 
Q 1850 4531 1965 4342 
Q 2080 4154 2125 4019 
L 1958 3949 
Q 1901 4083 1795 4275 
Q 1690 4467 1568 4621 
z
M 4134 4653 
L 4294 4736 
Q 4454 4589 4611 4390 
Q 4768 4192 4845 4038 
L 4685 3949 
Q 4614 4096 4457 4297 
Q 4301 4499 4134 4653 
z
M 2150 1651 
L 2349 1651 
L 2349 1229 
Q 2349 1043 2301 825 
Q 2253 608 2086 384 
Q 1920 160 1581 -57 
Q 1242 -275 653 -461 
Q 627 -429 595 -381 
Q 563 -333 531 -307 
Q 1101 -141 1427 54 
Q 1754 250 1907 461 
Q 2061 672 2105 870 
Q 2150 1069 2150 1235 
L 2150 1651 
z
" transform="scale(0.015625)"/>
       </defs>
       <use xlink:href="#NotoSansSC-Thin-8ba1"/>
       <use xlink:href="#NotoSansSC-Thin-7b97" transform="translate(99.999985 0)"/>
       <use xlink:href="#NotoSansSC-Thin-673a" transform="translate(199.999969 0)"/>
      </g>
     </g>
    </g>
   </g>
   <g id="line2d_25">
    <path d="M 279.537673 162.545212 
L 279.537673 29.522812 
" clip-path="url(#pf986dad318)" style="fill: none; stroke: #1e293b; stroke-width: 0.8; stroke-linecap: square"/>
   </g>
   <g id="patch_11">
    <path d="M 46.2 162.545212 
L 46.2 29.522813 
" style="fill: none; stroke: #e2e8f0; stroke-width: 0.8; stroke-linejoin: miter; stroke-linecap: square"/>
   </g>
   <g id="patch_12">
    <path d="M 46.2 162.545212 
L 341.761053 162.545212 
" style="fill: none; stroke: #e2e8f0; stroke-width: 0.8; stroke-linejoin: miter; stroke-linecap: square"/>
   </g>
   <g id="text_18">
    <!-- -240.5亿 -->
    <g style="fill: #ffffff" transform="translate(57.396512 154.94768) scale(0.09 -0.09)">
     <defs>
      <path id="NotoSansSC-Thin-34" d="M 2195 0 
L 2195 3482 
Q 2195 3629 2204 3843 
Q 2214 4058 2227 4205 
L 2195 4205 
Q 2112 4058 2019 3901 
Q 1926 3744 1830 3590 
L 422 1568 
L 3110 1568 
L 3110 1363 
L 115 1363 
L 115 1485 
L 2259 4646 
L 2419 4646 
L 2419 0 
L 2195 0 
z
" transform="scale(0.015625)"/>
      <path id="NotoSansSC-Thin-2e" d="M 736 -83 
Q 640 -83 560 -9 
Q 480 64 480 192 
Q 480 333 560 406 
Q 640 480 736 480 
Q 838 480 918 406 
Q 998 333 998 192 
Q 998 64 918 -9 
Q 838 -83 736 -83 
z
" transform="scale(0.015625)"/>
     </defs>
     <use xlink:href="#NotoSansSC-Thin-2d"/>
     <use xlink:href="#NotoSansSC-Thin-32" transform="translate(32.399994 0)"/>
     <use xlink:href="#NotoSansSC-Thin-34" transform="translate(84.499985 0)"/>
     <use xlink:href="#NotoSansSC-Thin-30" transform="translate(136.599976 0)"/>
     <use xlink:href="#NotoSansSC-Thin-2e" transform="translate(188.699966 0)"/>
     <use xlink:href="#NotoSansSC-Thin-35" transform="translate(211.799957 0)"/>
     <use xlink:href="#NotoSansSC-Thin-4ebf" transform="translate(263.899948 0)"/>
    </g>
   </g>
   <g id="text_19">
    <!-- -59.9亿 -->
    <g style="fill: #ffffff" transform="translate(202.554228 138.823753) scale(0.09 -0.09)">
     <defs>
      <path id="NotoSansSC-Thin-39" d="M 1370 -83 
Q 1050 -83 819 32 
Q 589 147 410 339 
L 557 506 
Q 723 314 934 221 
Q 1146 128 1389 128 
Q 1651 128 1891 256 
Q 2131 384 2316 675 
Q 2502 966 2611 1443 
Q 2720 1920 2720 2618 
Q 2720 3168 2592 3600 
Q 2464 4032 2195 4278 
Q 1926 4525 1498 4525 
Q 1229 4525 1014 4355 
Q 800 4186 675 3901 
Q 550 3616 550 3264 
Q 550 2912 652 2627 
Q 755 2342 979 2172 
Q 1203 2003 1555 2003 
Q 1830 2003 2137 2182 
Q 2445 2362 2739 2765 
L 2746 2470 
Q 2586 2278 2397 2128 
Q 2208 1978 1993 1891 
Q 1779 1805 1536 1805 
Q 1152 1805 877 1974 
Q 602 2144 454 2470 
Q 307 2797 307 3264 
Q 307 3686 473 4019 
Q 640 4352 912 4541 
Q 1184 4730 1510 4730 
Q 1850 4730 2118 4589 
Q 2387 4448 2572 4176 
Q 2758 3904 2857 3513 
Q 2957 3123 2957 2618 
Q 2957 1862 2825 1344 
Q 2694 826 2470 512 
Q 2246 198 1961 57 
Q 1677 -83 1370 -83 
z
" transform="scale(0.015625)"/>
     </defs>
     <use xlink:href="#NotoSansSC-Thin-2d"/>
     <use xlink:href="#NotoSansSC-Thin-35" transform="translate(32.399994 0)"/>
     <use xlink:href="#NotoSansSC-Thin-39" transform="translate(84.499985 0)"/>
     <use xlink:href="#NotoSansSC-Thin-2e" transform="translate(136.599976 0)"/>
     <use xlink:href="#NotoSansSC-Thin-39" transform="translate(159.699966 0)"/>
     <use xlink:href="#NotoSansSC-Thin-4ebf" transform="translate(211.799957 0)"/>
    </g>
   </g>
   <g id="text_20">
    <!-- -42.7亿 -->
    <g style="fill: #ffffff" transform="translate(215.932255 122.699825) scale(0.09 -0.09)">
     <defs>
      <path id="NotoSansSC-Thin-37" d="M 1344 0 
Q 1376 717 1462 1318 
Q 1549 1920 1712 2445 
Q 1875 2970 2124 3459 
Q 2374 3949 2726 4435 
L 307 4435 
L 307 4646 
L 3034 4646 
L 3034 4512 
Q 2624 3955 2355 3436 
Q 2086 2918 1932 2384 
Q 1779 1850 1705 1267 
Q 1632 685 1606 0 
L 1344 0 
z
" transform="scale(0.015625)"/>
     </defs>
     <use xlink:href="#NotoSansSC-Thin-2d"/>
     <use xlink:href="#NotoSansSC-Thin-34" transform="translate(32.399994 0)"/>
     <use xlink:href="#NotoSansSC-Thin-32" transform="translate(84.499985 0)"/>
     <use xlink:href="#NotoSansSC-Thin-2e" transform="translate(136.599976 0)"/>
     <use xlink:href="#NotoSansSC-Thin-37" transform="translate(159.699966 0)"/>
     <use xlink:href="#NotoSansSC-Thin-4ebf" transform="translate(211.799957 0)"/>
    </g>
   </g>
   <g id="text_21">
    <!-- -32.1亿 -->
    <g style="fill: #ffffff" transform="translate(224.176853 106.575898) scale(0.09 -0.09)">
     <use xlink:href="#NotoSansSC-Thin-2d"/>
     <use xlink:href="#NotoSansSC-Thin-33" transform="translate(32.399994 0)"/>
     <use xlink:href="#NotoSansSC-Thin-32" transform="translate(84.499985 0)"/>
     <use xlink:href="#NotoSansSC-Thin-2e" transform="translate(136.599976 0)"/>
     <use xlink:href="#NotoSansSC-Thin-31" transform="translate(159.699966 0)"/>
     <use xlink:href="#NotoSansSC-Thin-4ebf" transform="translate(211.799957 0)"/>
    </g>
   </g>
   <g id="text_22">
    <!-- -30.2亿 -->
    <g style="fill: #ffffff" transform="translate(225.654658 90.451971) scale(0.09 -0.09)">
     <use xlink:href="#NotoSansSC-Thin-2d"/>
     <use xlink:href="#NotoSansSC-Thin-33" transform="translate(32.399994 0)"/>
     <use xlink:href="#NotoSansSC-Thin-30" transform="translate(84.499985 0)"/>
     <use xlink:href="#NotoSansSC-Thin-2e" transform="translate(136.599976 0)"/>
     <use xlink:href="#NotoSansSC-Thin-32" transform="translate(159.699966 0)"/>
     <use xlink:href="#NotoSansSC-Thin-4ebf" transform="translate(211.799957 0)"/>
    </g>
   </g>
   <g id="text_23">
    <!-- +4.0亿 -->
    <g style="fill: #10b981" transform="translate(284.982219 74.328043) scale(0.09 -0.09)">
     <defs>
      <path id="NotoSansSC-Thin-2b" d="M 1549 787 
L 1549 2221 
L 237 2221 
L 237 2426 
L 1549 2426 
L 1549 3866 
L 1786 3866 
L 1786 2426 
L 3098 2426 
L 3098 2221 
L 1786 2221 
L 1786 787 
L 1549 787 
z
" transform="scale(0.015625)"/>
     </defs>
     <use xlink:href="#NotoSansSC-Thin-2b"/>
     <use xlink:href="#NotoSansSC-Thin-34" transform="translate(52.099991 0)"/>
     <use xlink:href="#NotoSansSC-Thin-2e" transform="translate(104.199982 0)"/>
     <use xlink:href="#NotoSansSC-Thin-30" transform="translate(127.299973 0)"/>
     <use xlink:href="#NotoSansSC-Thin-4ebf" transform="translate(179.399963 0)"/>
    </g>
   </g>
   <g id="text_24">
    <!-- +39.6亿 -->
    <g style="fill: #ef4444" transform="translate(312.671623 58.204116) scale(0.09 -0.09)">
     <defs>
      <path id="NotoSansSC-Thin-36" d="M 1837 -83 
Q 1498 -83 1232 67 
Q 966 218 780 509 
Q 595 800 496 1216 
Q 397 1632 397 2170 
Q 397 2886 528 3379 
Q 659 3872 889 4169 
Q 1120 4467 1414 4598 
Q 1709 4730 2029 4730 
Q 2330 4730 2550 4614 
Q 2771 4499 2944 4307 
L 2790 4147 
Q 2643 4333 2444 4425 
Q 2246 4518 2022 4518 
Q 1651 4518 1334 4297 
Q 1018 4077 826 3561 
Q 634 3046 634 2170 
Q 634 1581 762 1120 
Q 890 659 1158 393 
Q 1427 128 1850 128 
Q 2125 128 2336 297 
Q 2547 467 2672 752 
Q 2797 1037 2797 1382 
Q 2797 1741 2694 2025 
Q 2592 2310 2368 2476 
Q 2144 2643 1779 2643 
Q 1523 2643 1209 2470 
Q 896 2298 602 1888 
L 602 2176 
Q 768 2381 957 2531 
Q 1146 2682 1360 2762 
Q 1574 2842 1792 2842 
Q 2189 2842 2467 2675 
Q 2746 2509 2893 2185 
Q 3040 1862 3040 1382 
Q 3040 960 2873 630 
Q 2707 301 2435 109 
Q 2163 -83 1837 -83 
z
" transform="scale(0.015625)"/>
     </defs>
     <use xlink:href="#NotoSansSC-Thin-2b"/>
     <use xlink:href="#NotoSansSC-Thin-33" transform="translate(52.099991 0)"/>
     <use xlink:href="#NotoSansSC-Thin-39" transform="translate(104.199982 0)"/>
     <use xlink:href="#NotoSansSC-Thin-2e" transform="translate(156.299973 0)"/>
     <use xlink:href="#NotoSansSC-Thin-36" transform="translate(179.399963 0)"/>
     <use xlink:href="#NotoSansSC-Thin-4ebf" transform="translate(231.499954 0)"/>
    </g>
   </g>
   <g id="text_25">
    <!-- +41.6亿 -->
    <g style="fill: #ef4444" transform="translate(314.227207 42.080189) scale(0.09 -0.09)">
     <use xlink:href="#NotoSansSC-Thin-2b"/>
     <use xlink:href="#NotoSansSC-Thin-34" transform="translate(52.099991 0)"/>
     <use xlink:href="#NotoSansSC-Thin-31" transform="translate(104.199982 0)"/>
     <use xlink:href="#NotoSansSC-Thin-2e" transform="translate(156.299973 0)"/>
     <use xlink:href="#NotoSansSC-Thin-36" transform="translate(179.399963 0)"/>
     <use xlink:href="#NotoSansSC-Thin-4ebf" transform="translate(231.499954 0)"/>
    </g>
   </g>
   <g id="text_26">
    <!-- 数据来源：Wind · 证券时报 · 东方财富 -->
    <g style="fill: #64748b" transform="translate(121.412401 192.841744) scale(0.08 -0.08)">
     <defs>
      <path id="NotoSansSC-Thin-6570" d="M 512 1990 
L 2970 1990 
L 2970 1798 
L 512 1798 
L 512 1990 
z
M 365 4064 
L 3386 4064 
L 3386 3878 
L 365 3878 
L 365 4064 
z
M 2957 5146 
L 3123 5050 
Q 3002 4826 2845 4586 
Q 2688 4346 2554 4173 
L 2419 4256 
Q 2509 4371 2608 4531 
Q 2707 4691 2800 4854 
Q 2893 5018 2957 5146 
z
M 1792 5318 
L 1984 5318 
L 1984 2611 
L 1792 2611 
L 1792 5318 
z
M 691 5043 
L 845 5101 
Q 992 4902 1117 4662 
Q 1242 4422 1286 4250 
L 1139 4179 
Q 1088 4352 960 4598 
Q 832 4845 691 5043 
z
M 1792 3987 
L 1946 3904 
Q 1798 3622 1561 3344 
Q 1325 3066 1046 2832 
Q 768 2598 486 2445 
Q 467 2490 428 2538 
Q 390 2586 358 2618 
Q 634 2746 909 2960 
Q 1184 3174 1417 3443 
Q 1651 3712 1792 3987 
z
M 1946 3866 
Q 2029 3814 2205 3696 
Q 2381 3578 2585 3443 
Q 2790 3309 2960 3190 
Q 3130 3072 3200 3021 
L 3072 2854 
Q 2995 2925 2832 3049 
Q 2669 3174 2473 3315 
Q 2278 3456 2105 3574 
Q 1933 3693 1830 3750 
L 1946 3866 
z
M 3962 4013 
L 5997 4013 
L 5997 3827 
L 3962 3827 
L 3962 4013 
z
M 4128 5222 
L 4314 5190 
Q 4218 4614 4083 4086 
Q 3949 3558 3766 3100 
Q 3584 2643 3354 2285 
Q 3341 2298 3309 2320 
Q 3277 2342 3241 2361 
Q 3206 2381 3181 2394 
Q 3424 2733 3603 3184 
Q 3782 3635 3913 4153 
Q 4045 4672 4128 5222 
z
M 5357 3936 
L 5549 3910 
Q 5382 2829 5084 2006 
Q 4787 1184 4291 579 
Q 3795 -26 3040 -454 
Q 3027 -435 3004 -406 
Q 2982 -378 2956 -349 
Q 2931 -320 2906 -301 
Q 3654 90 4140 678 
Q 4627 1267 4915 2076 
Q 5203 2886 5357 3936 
z
M 3994 3789 
Q 4147 2874 4425 2070 
Q 4704 1267 5133 668 
Q 5562 70 6150 -243 
Q 6112 -269 6073 -313 
Q 6035 -358 6010 -397 
Q 5414 -51 4985 563 
Q 4557 1178 4275 1997 
Q 3994 2816 3834 3757 
L 3994 3789 
z
M 896 1018 
L 1050 1152 
Q 1370 1037 1722 873 
Q 2074 710 2387 544 
Q 2701 378 2906 230 
L 2752 90 
Q 2554 237 2240 406 
Q 1926 576 1574 739 
Q 1222 902 896 1018 
z
M 2880 1990 
L 2918 1990 
L 2963 2003 
L 3066 1946 
Q 2874 1286 2474 825 
Q 2074 365 1552 80 
Q 1030 -205 467 -358 
Q 454 -320 422 -272 
Q 390 -224 358 -198 
Q 902 -64 1411 205 
Q 1920 474 2310 906 
Q 2701 1338 2880 1946 
L 2880 1990 
z
M 896 1018 
Q 1030 1210 1168 1453 
Q 1306 1696 1427 1952 
Q 1549 2208 1632 2438 
L 1811 2406 
Q 1722 2170 1597 1910 
Q 1472 1651 1341 1414 
Q 1210 1178 1094 1005 
L 896 1018 
z
" transform="scale(0.015625)"/>
      <path id="NotoSansSC-Thin-636e" d="M 2714 5011 
L 5843 5011 
L 5843 3558 
L 2714 3558 
L 2714 3744 
L 5651 3744 
L 5651 4826 
L 2714 4826 
L 2714 5011 
z
M 2618 5011 
L 2803 5011 
L 2803 3104 
Q 2803 2714 2777 2256 
Q 2752 1798 2675 1328 
Q 2598 858 2441 406 
Q 2285 -45 2022 -429 
Q 2003 -410 1974 -394 
Q 1946 -378 1914 -358 
Q 1882 -339 1856 -333 
Q 2118 51 2268 486 
Q 2419 922 2496 1379 
Q 2573 1837 2595 2278 
Q 2618 2720 2618 3104 
L 2618 5011 
z
M 2765 2714 
L 6106 2714 
L 6106 2522 
L 2765 2522 
L 2765 2714 
z
M 3187 64 
L 5702 64 
L 5702 -122 
L 3187 -122 
L 3187 64 
z
M 4352 3597 
L 4544 3597 
L 4544 1472 
L 4352 1472 
L 4352 3597 
z
M 3085 1549 
L 5856 1549 
L 5856 -422 
L 5664 -422 
L 5664 1363 
L 3277 1363 
L 3277 -461 
L 3085 -461 
L 3085 1549 
z
M 237 1760 
Q 602 1882 1126 2064 
Q 1651 2246 2195 2445 
L 2227 2253 
Q 1722 2074 1219 1891 
Q 717 1709 320 1562 
L 237 1760 
z
M 301 3949 
L 2227 3949 
L 2227 3757 
L 301 3757 
L 301 3949 
z
M 1229 5312 
L 1421 5312 
L 1421 -147 
Q 1421 -275 1376 -332 
Q 1331 -390 1242 -416 
Q 1158 -442 988 -448 
Q 819 -454 518 -448 
Q 512 -416 489 -365 
Q 467 -314 442 -269 
Q 685 -275 870 -275 
Q 1056 -275 1114 -269 
Q 1171 -269 1200 -243 
Q 1229 -218 1229 -147 
L 1229 5312 
z
" transform="scale(0.015625)"/>
      <path id="NotoSansSC-Thin-6765" d="M 397 2432 
L 6016 2432 
L 6016 2246 
L 397 2246 
L 397 2432 
z
M 704 4467 
L 5734 4467 
L 5734 4282 
L 704 4282 
L 704 4467 
z
M 3091 5306 
L 3283 5306 
L 3283 -448 
L 3091 -448 
L 3091 5306 
z
M 4979 4026 
L 5171 3949 
Q 5062 3725 4928 3475 
Q 4794 3226 4656 2995 
Q 4518 2765 4390 2586 
L 4237 2656 
Q 4365 2835 4502 3078 
Q 4640 3322 4768 3574 
Q 4896 3827 4979 4026 
z
M 1312 3923 
L 1478 3981 
Q 1619 3782 1753 3548 
Q 1888 3315 1993 3094 
Q 2099 2874 2144 2701 
L 1971 2624 
Q 1920 2797 1817 3024 
Q 1715 3251 1584 3488 
Q 1453 3725 1312 3923 
z
M 2963 2374 
L 3123 2298 
Q 2893 1926 2579 1571 
Q 2266 1216 1901 896 
Q 1536 576 1161 317 
Q 787 58 429 -115 
Q 416 -90 390 -64 
Q 365 -38 339 -12 
Q 314 13 288 32 
Q 646 192 1024 445 
Q 1402 698 1763 1011 
Q 2125 1325 2435 1673 
Q 2746 2022 2963 2374 
z
M 3411 2381 
Q 3635 2029 3952 1677 
Q 4269 1325 4637 1005 
Q 5005 685 5389 432 
Q 5773 179 6138 13 
Q 6118 -6 6092 -35 
Q 6067 -64 6041 -89 
Q 6016 -115 5997 -141 
Q 5638 32 5254 297 
Q 4870 563 4499 889 
Q 4128 1216 3808 1577 
Q 3488 1939 3258 2304 
L 3411 2381 
z
" transform="scale(0.015625)"/>
      <path id="NotoSansSC-Thin-6e90" d="M 2304 5024 
L 6035 5024 
L 6035 4838 
L 2304 4838 
L 2304 5024 
z
M 2214 5024 
L 2406 5024 
L 2406 3283 
Q 2406 2874 2377 2400 
Q 2349 1926 2262 1436 
Q 2176 947 2006 476 
Q 1837 6 1555 -397 
Q 1542 -378 1513 -358 
Q 1485 -339 1456 -320 
Q 1427 -301 1402 -294 
Q 1677 102 1840 560 
Q 2003 1018 2083 1491 
Q 2163 1965 2188 2422 
Q 2214 2880 2214 3283 
L 2214 5024 
z
M 3110 2765 
L 3110 1990 
L 5542 1990 
L 5542 2765 
L 3110 2765 
z
M 3110 3718 
L 3110 2957 
L 5542 2957 
L 5542 3718 
L 3110 3718 
z
M 2925 3910 
L 5728 3910 
L 5728 1798 
L 2925 1798 
L 2925 3910 
z
M 3270 1338 
L 3456 1286 
Q 3341 1050 3193 810 
Q 3046 570 2886 355 
Q 2726 141 2566 -26 
Q 2554 -6 2522 13 
Q 2490 32 2458 57 
Q 2426 83 2400 96 
Q 2650 339 2880 665 
Q 3110 992 3270 1338 
z
M 5075 1293 
L 5242 1363 
Q 5395 1165 5555 937 
Q 5715 710 5856 499 
Q 5997 288 6086 134 
L 5907 38 
Q 5824 198 5683 412 
Q 5542 627 5385 860 
Q 5229 1094 5075 1293 
z
M 4218 4634 
L 4410 4570 
Q 4346 4365 4272 4144 
Q 4198 3923 4128 3770 
L 3981 3827 
Q 4038 3994 4108 4227 
Q 4179 4461 4218 4634 
z
M 4211 1939 
L 4397 1939 
L 4397 -173 
Q 4397 -282 4361 -336 
Q 4326 -390 4237 -416 
Q 4141 -442 3939 -448 
Q 3738 -454 3398 -448 
Q 3392 -416 3373 -368 
Q 3354 -320 3328 -275 
Q 3616 -282 3824 -282 
Q 4032 -282 4096 -282 
Q 4211 -275 4211 -173 
L 4211 1939 
z
M 627 5101 
L 749 5222 
Q 934 5107 1139 4972 
Q 1344 4838 1526 4707 
Q 1709 4576 1830 4480 
L 1715 4326 
Q 1594 4429 1408 4563 
Q 1222 4698 1017 4842 
Q 813 4986 627 5101 
z
M 307 3379 
L 422 3507 
Q 614 3405 822 3280 
Q 1030 3155 1219 3036 
Q 1408 2918 1536 2822 
L 1427 2669 
Q 1299 2765 1110 2889 
Q 922 3014 710 3145 
Q 499 3277 307 3379 
z
M 493 -224 
Q 646 26 832 374 
Q 1018 723 1203 1110 
Q 1389 1498 1542 1843 
L 1690 1728 
Q 1549 1395 1369 1020 
Q 1190 646 1004 288 
Q 819 -70 653 -352 
L 493 -224 
z
" transform="scale(0.015625)"/>
      <path id="NotoSansSC-Thin-ff1a" d="M 1600 3213 
Q 1466 3213 1354 3302 
Q 1242 3392 1242 3571 
Q 1242 3750 1354 3840 
Q 1466 3930 1600 3930 
Q 1734 3930 1846 3840 
Q 1958 3750 1958 3571 
Q 1958 3392 1846 3302 
Q 1734 3213 1600 3213 
z
M 1600 0 
Q 1466 0 1354 89 
Q 1242 179 1242 358 
Q 1242 538 1354 627 
Q 1466 717 1600 717 
Q 1734 717 1846 627 
Q 1958 538 1958 358 
Q 1958 179 1846 89 
Q 1734 0 1600 0 
z
" transform="scale(0.015625)"/>
      <path id="NotoSansSC-Thin-57" d="M 1286 0 
L 211 4646 
L 461 4646 
L 1075 1843 
Q 1165 1466 1248 1085 
Q 1331 704 1414 320 
L 1440 320 
Q 1530 704 1622 1085 
Q 1715 1466 1811 1843 
L 2560 4646 
L 2829 4646 
L 3584 1843 
Q 3680 1466 3773 1085 
Q 3866 704 3962 320 
L 3994 320 
Q 4077 704 4153 1085 
Q 4230 1466 4307 1843 
L 4928 4646 
L 5165 4646 
L 4102 0 
L 3853 0 
L 2963 3315 
Q 2899 3597 2838 3840 
Q 2778 4083 2707 4358 
L 2682 4358 
Q 2618 4083 2547 3840 
Q 2477 3597 2413 3315 
L 1536 0 
L 1286 0 
z
" transform="scale(0.015625)"/>
      <path id="NotoSansSC-Thin-69" d="M 672 0 
L 672 3373 
L 902 3373 
L 902 0 
L 672 0 
z
M 794 4224 
Q 691 4224 627 4294 
Q 563 4365 563 4486 
Q 563 4595 627 4662 
Q 691 4730 794 4730 
Q 890 4730 957 4662 
Q 1024 4595 1024 4486 
Q 1024 4365 957 4294 
Q 890 4224 794 4224 
z
" transform="scale(0.015625)"/>
      <path id="NotoSansSC-Thin-6e" d="M 672 0 
L 672 3373 
L 864 3373 
L 902 2835 
L 915 2835 
Q 1178 3098 1453 3277 
Q 1728 3456 2080 3456 
Q 2598 3456 2848 3139 
Q 3098 2822 3098 2170 
L 3098 0 
L 2867 0 
L 2867 2138 
Q 2867 2694 2678 2969 
Q 2490 3245 2054 3245 
Q 1741 3245 1481 3078 
Q 1222 2912 902 2579 
L 902 0 
L 672 0 
z
" transform="scale(0.015625)"/>
      <path id="NotoSansSC-Thin-64" d="M 1773 -83 
Q 1350 -83 1036 118 
Q 723 320 550 713 
Q 378 1107 378 1677 
Q 378 2221 586 2621 
Q 794 3021 1136 3238 
Q 1478 3456 1888 3456 
Q 2195 3456 2432 3347 
Q 2669 3238 2925 3034 
L 2906 3667 
L 2906 5082 
L 3136 5082 
L 3136 0 
L 2944 0 
L 2912 448 
L 2899 448 
Q 2688 237 2406 77 
Q 2125 -83 1773 -83 
z
M 1792 128 
Q 2086 128 2358 281 
Q 2630 435 2906 710 
L 2906 2784 
Q 2630 3034 2384 3139 
Q 2138 3245 1875 3245 
Q 1523 3245 1238 3033 
Q 954 2822 787 2467 
Q 621 2112 621 1677 
Q 621 1216 758 867 
Q 896 518 1158 323 
Q 1421 128 1792 128 
z
" transform="scale(0.015625)"/>
      <path id="NotoSansSC-Thin-20" transform="scale(0.015625)"/>
      <path id="NotoSansSC-Thin-b7" d="M 3200 2976 
Q 3354 2976 3475 2902 
Q 3597 2829 3670 2707 
Q 3744 2586 3744 2432 
Q 3744 2285 3670 2160 
Q 3597 2035 3475 1961 
Q 3354 1888 3200 1888 
Q 3053 1888 2928 1961 
Q 2803 2035 2729 2160 
Q 2656 2285 2656 2432 
Q 2656 2586 2729 2707 
Q 2803 2829 2928 2902 
Q 3053 2976 3200 2976 
z
" transform="scale(0.015625)"/>
      <path id="NotoSansSC-Thin-8bc1" d="M 4166 4685 
L 4352 4685 
L 4352 -109 
L 4166 -109 
L 4166 4685 
z
M 2861 3264 
L 3046 3264 
L 3046 -122 
L 2861 -122 
L 2861 3264 
z
M 4250 2637 
L 5837 2637 
L 5837 2445 
L 4250 2445 
L 4250 2637 
z
M 2502 4736 
L 5952 4736 
L 5952 4550 
L 2502 4550 
L 2502 4736 
z
M 2227 0 
L 6099 0 
L 6099 -186 
L 2227 -186 
L 2227 0 
z
M 781 4966 
L 922 5082 
Q 1101 4947 1286 4784 
Q 1472 4621 1635 4461 
Q 1798 4301 1894 4173 
L 1754 4032 
Q 1651 4160 1488 4323 
Q 1325 4486 1142 4656 
Q 960 4826 781 4966 
z
M 1248 -205 
L 1242 -6 
L 1350 154 
L 2400 838 
Q 2413 819 2425 793 
Q 2438 768 2451 739 
Q 2464 710 2470 691 
Q 2086 422 1856 262 
Q 1626 102 1504 16 
Q 1382 -70 1331 -118 
Q 1280 -166 1248 -205 
z
M 384 3270 
L 1581 3270 
L 1581 3078 
L 384 3078 
L 384 3270 
z
M 1248 -205 
Q 1235 -179 1209 -150 
Q 1184 -122 1161 -93 
Q 1139 -64 1114 -45 
Q 1158 -13 1235 60 
Q 1312 134 1373 243 
Q 1434 352 1434 493 
L 1434 3270 
L 1619 3270 
L 1619 198 
Q 1619 198 1580 166 
Q 1542 134 1488 86 
Q 1434 38 1379 -19 
Q 1325 -77 1286 -125 
Q 1248 -173 1248 -205 
z
" transform="scale(0.015625)"/>
      <path id="NotoSansSC-Thin-5238" d="M 448 2989 
L 5984 2989 
L 5984 2797 
L 448 2797 
L 448 2989 
z
M 851 4077 
L 5510 4077 
L 5510 3891 
L 851 3891 
L 851 4077 
z
M 4083 2970 
Q 4288 2618 4617 2310 
Q 4947 2003 5347 1769 
Q 5747 1536 6170 1408 
Q 6144 1389 6118 1360 
Q 6093 1331 6070 1302 
Q 6048 1274 6029 1242 
Q 5613 1389 5206 1638 
Q 4800 1888 4461 2211 
Q 4122 2534 3910 2899 
L 4083 2970 
z
M 3213 5318 
L 3405 5293 
Q 3322 4762 3098 4195 
Q 2874 3629 2506 3085 
Q 2138 2541 1613 2077 
Q 1088 1613 403 1280 
Q 390 1306 368 1328 
Q 346 1350 320 1376 
Q 294 1402 269 1421 
Q 947 1741 1465 2195 
Q 1984 2650 2345 3181 
Q 2707 3712 2921 4262 
Q 3136 4813 3213 5318 
z
M 1440 5024 
L 1587 5107 
Q 1760 4922 1933 4688 
Q 2106 4454 2189 4288 
L 2035 4186 
Q 1952 4352 1782 4592 
Q 1613 4832 1440 5024 
z
M 4787 5107 
L 4960 5030 
Q 4787 4768 4572 4480 
Q 4358 4192 4166 3987 
L 4026 4051 
Q 4154 4192 4298 4377 
Q 4442 4563 4570 4758 
Q 4698 4954 4787 5107 
z
M 1376 1856 
L 4653 1856 
L 4653 1670 
L 1376 1670 
L 1376 1856 
z
M 4589 1856 
L 4781 1856 
Q 4781 1856 4777 1811 
Q 4774 1766 4768 1734 
Q 4723 1056 4672 646 
Q 4621 237 4560 25 
Q 4499 -186 4410 -275 
Q 4339 -339 4262 -364 
Q 4186 -390 4051 -397 
Q 3930 -403 3683 -396 
Q 3437 -390 3162 -365 
Q 3155 -320 3142 -269 
Q 3130 -218 3098 -179 
Q 3398 -205 3660 -211 
Q 3923 -218 4006 -218 
Q 4109 -218 4163 -208 
Q 4218 -198 4256 -160 
Q 4333 -90 4387 118 
Q 4442 326 4493 739 
Q 4544 1152 4589 1818 
L 4589 1856 
z
M 2547 1760 
L 2746 1760 
Q 2682 1350 2550 1004 
Q 2419 659 2192 380 
Q 1965 102 1613 -109 
Q 1261 -320 755 -461 
Q 742 -435 720 -409 
Q 698 -384 672 -355 
Q 646 -326 627 -307 
Q 1126 -179 1468 19 
Q 1811 218 2028 483 
Q 2246 749 2368 1069 
Q 2490 1389 2547 1760 
z
" transform="scale(0.015625)"/>
      <path id="NotoSansSC-Thin-65f6" d="M 723 4742 
L 2419 4742 
L 2419 742 
L 723 742 
L 723 928 
L 2234 928 
L 2234 4557 
L 723 4557 
L 723 4742 
z
M 723 2874 
L 2368 2874 
L 2368 2688 
L 723 2688 
L 723 2874 
z
M 621 4742 
L 813 4742 
L 813 224 
L 621 224 
L 621 4742 
z
M 2758 3936 
L 6099 3936 
L 6099 3744 
L 2758 3744 
L 2758 3936 
z
M 5005 5286 
L 5197 5286 
L 5197 -26 
Q 5197 -205 5129 -278 
Q 5062 -352 4934 -384 
Q 4806 -410 4521 -413 
Q 4237 -416 3750 -416 
Q 3738 -378 3715 -317 
Q 3693 -256 3667 -211 
Q 3949 -218 4185 -221 
Q 4422 -224 4588 -221 
Q 4755 -218 4826 -211 
Q 4922 -205 4963 -169 
Q 5005 -134 5005 -32 
L 5005 5286 
z
M 3130 3053 
L 3290 3130 
Q 3482 2867 3680 2563 
Q 3878 2259 4054 1977 
Q 4230 1696 4339 1491 
L 4173 1395 
Q 4064 1600 3891 1888 
Q 3718 2176 3520 2483 
Q 3322 2790 3130 3053 
z
" transform="scale(0.015625)"/>
      <path id="NotoSansSC-Thin-62a5" d="M 2906 2957 
L 5702 2957 
L 5702 2765 
L 2906 2765 
L 2906 2957 
z
M 3469 2886 
Q 3718 2208 4115 1584 
Q 4512 960 5017 480 
Q 5523 0 6093 -262 
Q 6067 -282 6041 -310 
Q 6016 -339 5990 -368 
Q 5965 -397 5946 -422 
Q 5382 -134 4873 362 
Q 4365 858 3965 1494 
Q 3565 2131 3309 2829 
L 3469 2886 
z
M 5632 2957 
L 5670 2957 
L 5715 2970 
L 5843 2912 
Q 5664 2246 5309 1603 
Q 4954 960 4454 429 
Q 3955 -102 3328 -448 
Q 3302 -422 3264 -387 
Q 3226 -352 3194 -326 
Q 3648 -77 4041 284 
Q 4435 646 4748 1081 
Q 5062 1517 5286 1981 
Q 5510 2445 5632 2899 
L 5632 2957 
z
M 5402 5107 
L 5587 5107 
Q 5587 5107 5587 5062 
Q 5587 5018 5581 4986 
Q 5555 4307 5507 4012 
Q 5459 3718 5363 3629 
Q 5299 3571 5225 3548 
Q 5152 3526 5005 3520 
Q 4864 3514 4569 3520 
Q 4275 3526 3936 3552 
Q 3930 3597 3914 3641 
Q 3898 3686 3866 3731 
Q 4102 3712 4326 3702 
Q 4550 3693 4716 3689 
Q 4883 3686 4941 3686 
Q 5050 3686 5114 3696 
Q 5178 3706 5216 3731 
Q 5267 3782 5299 3923 
Q 5331 4064 5356 4342 
Q 5382 4621 5402 5075 
L 5402 5107 
z
M 262 1792 
Q 538 1875 886 1980 
Q 1235 2086 1625 2211 
Q 2016 2336 2413 2464 
L 2432 2291 
Q 1882 2106 1331 1920 
Q 781 1734 346 1600 
L 262 1792 
z
M 358 3949 
L 2400 3949 
L 2400 3757 
L 358 3757 
L 358 3949 
z
M 1376 5312 
L 1562 5312 
L 1562 -115 
Q 1562 -262 1510 -326 
Q 1459 -390 1357 -416 
Q 1254 -442 1043 -448 
Q 832 -454 454 -454 
Q 448 -422 425 -368 
Q 403 -314 371 -269 
Q 691 -275 924 -275 
Q 1158 -275 1222 -269 
Q 1306 -262 1341 -233 
Q 1376 -205 1376 -122 
L 1376 5312 
z
M 2797 5107 
L 5459 5107 
L 5459 4915 
L 2989 4915 
L 2989 -448 
L 2797 -448 
L 2797 5107 
z
" transform="scale(0.015625)"/>
      <path id="NotoSansSC-Thin-4e1c" d="M 1210 2221 
L 1210 2406 
L 1402 2490 
L 5523 2490 
L 5523 2304 
L 1843 2304 
Q 1638 2304 1510 2294 
Q 1382 2285 1315 2265 
Q 1248 2246 1210 2221 
z
M 3366 3558 
L 3558 3558 
L 3558 -58 
Q 3558 -192 3516 -256 
Q 3475 -320 3366 -352 
Q 3264 -378 3043 -384 
Q 2822 -390 2490 -390 
Q 2483 -358 2467 -320 
Q 2451 -282 2438 -246 
Q 2426 -211 2406 -179 
Q 2714 -186 2941 -186 
Q 3168 -186 3251 -179 
Q 3322 -173 3344 -147 
Q 3366 -122 3366 -58 
L 3366 3558 
z
M 1805 1677 
L 1990 1626 
Q 1830 1299 1622 982 
Q 1414 666 1177 387 
Q 941 109 704 -109 
Q 691 -96 662 -70 
Q 634 -45 602 -19 
Q 570 6 544 19 
Q 915 333 1251 771 
Q 1587 1210 1805 1677 
z
M 4282 1594 
L 4422 1690 
Q 4698 1440 4979 1145 
Q 5261 851 5501 566 
Q 5741 282 5882 58 
L 5728 -64 
Q 5587 166 5350 457 
Q 5114 749 4835 1046 
Q 4557 1344 4282 1594 
z
M 538 4435 
L 5766 4435 
L 5766 4250 
L 538 4250 
L 538 4435 
z
M 1210 2221 
Q 1203 2246 1190 2288 
Q 1178 2330 1165 2368 
Q 1152 2406 1139 2432 
Q 1216 2451 1325 2598 
Q 1434 2746 1568 2963 
Q 1638 3072 1782 3309 
Q 1926 3546 2105 3875 
Q 2285 4205 2464 4579 
Q 2643 4954 2784 5331 
L 2950 5203 
Q 2739 4704 2486 4192 
Q 2234 3680 1958 3213 
Q 1683 2746 1395 2368 
L 1395 2362 
Q 1395 2362 1366 2349 
Q 1338 2336 1302 2313 
Q 1267 2291 1238 2268 
Q 1210 2246 1210 2221 
z
" transform="scale(0.015625)"/>
      <path id="NotoSansSC-Thin-65b9" d="M 538 4128 
L 5901 4128 
L 5901 3942 
L 538 3942 
L 538 4128 
z
M 2426 2669 
L 5088 2669 
L 5088 2477 
L 2426 2477 
L 2426 2669 
z
M 5024 2669 
L 5222 2669 
Q 5222 2669 5219 2643 
Q 5216 2618 5216 2589 
Q 5216 2560 5210 2534 
Q 5139 1594 5068 1024 
Q 4998 454 4912 160 
Q 4826 -134 4704 -250 
Q 4627 -333 4534 -358 
Q 4442 -384 4294 -390 
Q 4141 -397 3853 -384 
Q 3565 -371 3238 -346 
Q 3232 -301 3219 -249 
Q 3206 -198 3174 -160 
Q 3533 -192 3837 -201 
Q 4141 -211 4256 -211 
Q 4365 -211 4432 -198 
Q 4499 -186 4550 -141 
Q 4653 -45 4736 246 
Q 4819 538 4889 1114 
Q 4960 1690 5024 2624 
L 5024 2669 
z
M 2413 4051 
L 2611 4051 
Q 2586 3552 2531 3027 
Q 2477 2502 2355 1996 
Q 2234 1491 2010 1030 
Q 1786 570 1421 189 
Q 1056 -192 512 -454 
Q 486 -422 441 -384 
Q 397 -346 365 -320 
Q 902 -70 1260 301 
Q 1619 672 1840 1120 
Q 2061 1568 2176 2064 
Q 2291 2560 2339 3065 
Q 2387 3571 2413 4051 
z
M 2976 5235 
L 3142 5312 
Q 3277 5075 3411 4803 
Q 3546 4531 3610 4333 
L 3424 4250 
Q 3360 4448 3232 4723 
Q 3104 4998 2976 5235 
z
" transform="scale(0.015625)"/>
      <path id="NotoSansSC-Thin-8d22" d="M 1555 4230 
L 1747 4230 
L 1747 2477 
Q 1747 2131 1712 1744 
Q 1677 1357 1545 960 
Q 1414 563 1145 198 
Q 877 -166 403 -454 
Q 384 -422 345 -377 
Q 307 -333 275 -307 
Q 730 -38 989 307 
Q 1248 653 1369 1030 
Q 1491 1408 1523 1782 
Q 1555 2157 1555 2477 
L 1555 4230 
z
M 1766 902 
L 1914 1011 
Q 2074 832 2234 624 
Q 2394 416 2531 224 
Q 2669 32 2746 -115 
L 2592 -256 
Q 2509 -102 2374 99 
Q 2240 301 2083 512 
Q 1926 723 1766 902 
z
M 646 4954 
L 2566 4954 
L 2566 1133 
L 2381 1133 
L 2381 4768 
L 838 4768 
L 838 1133 
L 646 1133 
L 646 4954 
z
M 2963 4045 
L 6042 4045 
L 6042 3859 
L 2963 3859 
L 2963 4045 
z
M 4992 5312 
L 5184 5312 
L 5184 -102 
Q 5184 -250 5136 -317 
Q 5088 -384 4979 -416 
Q 4883 -442 4675 -445 
Q 4467 -448 4141 -448 
Q 4134 -422 4118 -387 
Q 4102 -352 4086 -313 
Q 4070 -275 4051 -243 
Q 4339 -250 4566 -250 
Q 4794 -250 4870 -243 
Q 4941 -237 4966 -211 
Q 4992 -186 4992 -102 
L 4992 5312 
z
M 4979 4000 
L 5139 3917 
Q 4979 3418 4745 2912 
Q 4512 2406 4227 1939 
Q 3942 1472 3628 1081 
Q 3315 691 2989 416 
Q 2963 454 2928 496 
Q 2893 538 2854 570 
Q 3174 832 3488 1213 
Q 3802 1594 4083 2051 
Q 4365 2509 4595 3008 
Q 4826 3507 4979 4000 
z
" transform="scale(0.015625)"/>
      <path id="NotoSansSC-Thin-5bcc" d="M 3078 1677 
L 3270 1677 
L 3270 -77 
L 3078 -77 
L 3078 1677 
z
M 1286 4000 
L 5133 4000 
L 5133 3814 
L 1286 3814 
L 1286 4000 
z
M 1670 3142 
L 1670 2477 
L 4723 2477 
L 4723 3142 
L 1670 3142 
z
M 1478 3334 
L 4915 3334 
L 4915 2291 
L 1478 2291 
L 1478 3334 
z
M 1094 1786 
L 5389 1786 
L 5389 -416 
L 5203 -416 
L 5203 1600 
L 1280 1600 
L 1280 -461 
L 1094 -461 
L 1094 1786 
z
M 1216 902 
L 5344 902 
L 5344 717 
L 1216 717 
L 1216 902 
z
M 1229 -6 
L 5325 -6 
L 5325 -192 
L 1229 -192 
L 1229 -6 
z
M 576 4730 
L 5843 4730 
L 5843 3699 
L 5651 3699 
L 5651 4544 
L 768 4544 
L 768 3699 
L 576 3699 
L 576 4730 
z
M 2822 5286 
L 2995 5363 
Q 3117 5197 3241 5001 
Q 3366 4806 3430 4672 
L 3251 4582 
Q 3187 4723 3065 4924 
Q 2944 5126 2822 5286 
z
" transform="scale(0.015625)"/>
     </defs>
     <use xlink:href="#NotoSansSC-Thin-6570"/>
     <use xlink:href="#NotoSansSC-Thin-636e" transform="translate(99.999985 0)"/>
     <use xlink:href="#NotoSansSC-Thin-6765" transform="translate(199.999969 0)"/>
     <use xlink:href="#NotoSansSC-Thin-6e90" transform="translate(299.999954 0)"/>
     <use xlink:href="#NotoSansSC-Thin-ff1a" transform="translate(399.999939 0)"/>
     <use xlink:href="#NotoSansSC-Thin-57" transform="translate(499.999924 0)"/>
     <use xlink:href="#NotoSansSC-Thin-69" transform="translate(584.199905 0)"/>
     <use xlink:href="#NotoSansSC-Thin-6e" transform="translate(608.69989 0)"/>
     <use xlink:href="#NotoSansSC-Thin-64" transform="translate(666.699875 0)"/>
     <use xlink:href="#NotoSansSC-Thin-20" transform="translate(726.19986 0)"/>
     <use xlink:href="#NotoSansSC-Thin-b7" transform="translate(748.199844 0)"/>
     <use xlink:href="#NotoSansSC-Thin-20" transform="translate(848.199829 0)"/>
     <use xlink:href="#NotoSansSC-Thin-8bc1" transform="translate(870.199814 0)"/>
     <use xlink:href="#NotoSansSC-Thin-5238" transform="translate(970.199799 0)"/>
     <use xlink:href="#NotoSansSC-Thin-65f6" transform="translate(1070.199783 0)"/>
     <use xlink:href="#NotoSansSC-Thin-62a5" transform="translate(1170.199768 0)"/>
     <use xlink:href="#NotoSansSC-Thin-20" transform="translate(1270.199753 0)"/>
     <use xlink:href="#NotoSansSC-Thin-b7" transform="translate(1292.199738 0)"/>
     <use xlink:href="#NotoSansSC-Thin-20" transform="translate(1392.199722 0)"/>
     <use xlink:href="#NotoSansSC-Thin-4e1c" transform="translate(1414.199707 0)"/>
     <use xlink:href="#NotoSansSC-Thin-65b9" transform="translate(1514.199692 0)"/>
     <use xlink:href="#NotoSansSC-Thin-8d22" transform="translate(1614.199677 0)"/>
     <use xlink:href="#NotoSansSC-Thin-5bcc" transform="translate(1714.199661 0)"/>
    </g>
   </g>
   <g id="text_27">
    <!-- 6月1日A股主力资金流向（亿元） -->
    <g style="fill: #1e293b" transform="translate(98.976933 17.522812) scale(0.13 -0.13)">
     <defs>
      <path id="NotoSansSC-Thin-6708" d="M 1523 4941 
L 4998 4941 
L 4998 4755 
L 1523 4755 
L 1523 4941 
z
M 1517 3386 
L 5024 3386 
L 5024 3200 
L 1517 3200 
L 1517 3386 
z
M 1446 1811 
L 5005 1811 
L 5005 1626 
L 1446 1626 
L 1446 1811 
z
M 1453 4941 
L 1638 4941 
L 1638 3110 
Q 1638 2694 1596 2230 
Q 1555 1766 1427 1289 
Q 1299 813 1046 365 
Q 794 -83 371 -461 
Q 358 -435 336 -409 
Q 314 -384 288 -358 
Q 262 -333 237 -320 
Q 646 51 889 480 
Q 1133 909 1254 1360 
Q 1376 1811 1414 2259 
Q 1453 2707 1453 3110 
L 1453 4941 
z
M 4934 4941 
L 5126 4941 
L 5126 -6 
Q 5126 -179 5065 -259 
Q 5005 -339 4864 -371 
Q 4723 -397 4409 -403 
Q 4096 -410 3565 -410 
Q 3558 -378 3542 -342 
Q 3526 -307 3510 -272 
Q 3494 -237 3475 -205 
Q 3782 -211 4041 -211 
Q 4301 -211 4483 -208 
Q 4666 -205 4736 -205 
Q 4851 -198 4892 -156 
Q 4934 -115 4934 -6 
L 4934 4941 
z
" transform="scale(0.015625)"/>
      <path id="NotoSansSC-Thin-65e5" d="M 1274 4832 
L 5197 4832 
L 5197 -333 
L 5005 -333 
L 5005 4640 
L 1466 4640 
L 1466 -384 
L 1274 -384 
L 1274 4832 
z
M 1389 2547 
L 5088 2547 
L 5088 2362 
L 1389 2362 
L 1389 2547 
z
M 1376 218 
L 5107 218 
L 5107 32 
L 1376 32 
L 1376 218 
z
" transform="scale(0.015625)"/>
      <path id="NotoSansSC-Thin-41" d="M 70 0 
L 1728 4646 
L 1939 4646 
L 3603 0 
L 3347 0 
L 2381 2784 
Q 2234 3206 2106 3587 
Q 1978 3968 1850 4403 
L 1824 4403 
Q 1696 3968 1565 3587 
Q 1434 3206 1286 2784 
L 307 0 
L 70 0 
z
M 787 1651 
L 787 1856 
L 2861 1856 
L 2861 1651 
L 787 1651 
z
" transform="scale(0.015625)"/>
      <path id="NotoSansSC-Thin-80a1" d="M 954 5069 
L 2259 5069 
L 2259 4883 
L 954 4883 
L 954 5069 
z
M 954 3526 
L 2259 3526 
L 2259 3341 
L 954 3341 
L 954 3526 
z
M 934 1946 
L 2266 1946 
L 2266 1760 
L 934 1760 
L 934 1946 
z
M 832 5069 
L 1018 5069 
L 1018 2797 
Q 1018 2432 998 2013 
Q 979 1594 921 1158 
Q 864 723 745 310 
Q 627 -102 435 -454 
Q 422 -435 390 -416 
Q 358 -397 329 -381 
Q 301 -365 275 -352 
Q 467 -6 579 394 
Q 691 794 745 1210 
Q 800 1626 816 2032 
Q 832 2438 832 2797 
L 832 5069 
z
M 2214 5069 
L 2400 5069 
L 2400 -90 
Q 2400 -211 2355 -272 
Q 2310 -333 2221 -365 
Q 2131 -390 1942 -393 
Q 1754 -397 1427 -397 
Q 1421 -371 1405 -339 
Q 1389 -307 1376 -272 
Q 1363 -237 1344 -211 
Q 1619 -218 1824 -218 
Q 2029 -218 2093 -218 
Q 2214 -211 2214 -90 
L 2214 5069 
z
M 3430 5056 
L 5043 5056 
L 5043 4870 
L 3430 4870 
L 3430 5056 
z
M 2694 2438 
L 5523 2438 
L 5523 2253 
L 2694 2253 
L 2694 2438 
z
M 5453 2438 
L 5498 2438 
L 5536 2451 
L 5651 2394 
Q 5459 1824 5129 1363 
Q 4800 902 4384 547 
Q 3968 192 3504 -57 
Q 3040 -307 2579 -461 
Q 2560 -422 2525 -374 
Q 2490 -326 2458 -294 
Q 2912 -160 3366 80 
Q 3821 320 4230 659 
Q 4640 998 4957 1436 
Q 5274 1875 5453 2400 
L 5453 2438 
z
M 3181 2349 
Q 3418 1696 3834 1158 
Q 4250 621 4822 246 
Q 5395 -128 6099 -307 
Q 6080 -326 6054 -355 
Q 6029 -384 6006 -413 
Q 5984 -442 5965 -474 
Q 4909 -179 4147 544 
Q 3386 1267 3021 2291 
L 3181 2349 
z
M 3386 5056 
L 3578 5056 
L 3578 4339 
Q 3578 4077 3507 3782 
Q 3437 3488 3248 3203 
Q 3059 2918 2701 2682 
Q 2688 2701 2665 2726 
Q 2643 2752 2617 2781 
Q 2592 2810 2573 2822 
Q 2912 3046 3088 3305 
Q 3264 3565 3325 3833 
Q 3386 4102 3386 4339 
L 3386 5056 
z
M 4947 5056 
L 5139 5056 
L 5139 3488 
Q 5139 3354 5158 3309 
Q 5178 3264 5242 3264 
Q 5286 3264 5395 3264 
Q 5504 3264 5613 3264 
Q 5722 3264 5760 3264 
Q 5811 3264 5878 3270 
Q 5946 3277 6003 3283 
Q 6010 3245 6016 3184 
Q 6022 3123 6029 3091 
Q 5984 3085 5910 3078 
Q 5837 3072 5760 3072 
Q 5722 3072 5610 3072 
Q 5498 3072 5389 3072 
Q 5280 3072 5248 3072 
Q 5126 3072 5062 3107 
Q 4998 3142 4972 3235 
Q 4947 3328 4947 3494 
L 4947 5056 
z
" transform="scale(0.015625)"/>
      <path id="NotoSansSC-Thin-4e3b" d="M 710 3968 
L 5709 3968 
L 5709 3776 
L 710 3776 
L 710 3968 
z
M 960 2074 
L 5485 2074 
L 5485 1882 
L 960 1882 
L 960 2074 
z
M 390 -32 
L 6042 -32 
L 6042 -218 
L 390 -218 
L 390 -32 
z
M 3098 3866 
L 3290 3866 
L 3290 -115 
L 3098 -115 
L 3098 3866 
z
M 2573 5165 
L 2720 5254 
Q 2931 5094 3148 4899 
Q 3366 4704 3552 4512 
Q 3738 4320 3853 4166 
L 3699 4058 
Q 3590 4211 3404 4406 
Q 3219 4602 3001 4803 
Q 2784 5005 2573 5165 
z
" transform="scale(0.015625)"/>
      <path id="NotoSansSC-Thin-529b" d="M 576 3853 
L 5606 3853 
L 5606 3661 
L 576 3661 
L 576 3853 
z
M 5549 3853 
L 5741 3853 
Q 5741 3853 5741 3824 
Q 5741 3795 5737 3763 
Q 5734 3731 5734 3712 
Q 5670 2688 5612 1974 
Q 5555 1261 5488 806 
Q 5421 352 5341 99 
Q 5261 -154 5152 -262 
Q 5062 -365 4963 -393 
Q 4864 -422 4704 -429 
Q 4557 -435 4269 -422 
Q 3981 -410 3680 -390 
Q 3674 -346 3664 -294 
Q 3654 -243 3622 -198 
Q 3974 -230 4272 -240 
Q 4570 -250 4678 -250 
Q 4787 -250 4857 -234 
Q 4928 -218 4979 -160 
Q 5075 -64 5155 185 
Q 5235 435 5302 892 
Q 5370 1350 5430 2064 
Q 5491 2778 5549 3802 
L 5549 3853 
z
M 2797 5306 
L 2989 5306 
L 2989 4403 
Q 2989 3962 2950 3475 
Q 2912 2989 2787 2480 
Q 2662 1971 2396 1462 
Q 2131 954 1680 464 
Q 1229 -26 538 -467 
Q 525 -442 502 -419 
Q 480 -397 454 -371 
Q 429 -346 403 -333 
Q 1082 102 1523 579 
Q 1965 1056 2224 1552 
Q 2483 2048 2604 2541 
Q 2726 3034 2761 3504 
Q 2797 3974 2797 4403 
L 2797 5306 
z
" transform="scale(0.015625)"/>
      <path id="NotoSansSC-Thin-8d44" d="M 627 4864 
L 736 5011 
Q 986 4934 1248 4825 
Q 1510 4717 1740 4592 
Q 1971 4467 2118 4352 
L 2016 4179 
Q 1869 4294 1635 4422 
Q 1402 4550 1139 4665 
Q 877 4781 627 4864 
z
M 352 3040 
Q 698 3142 1178 3289 
Q 1658 3437 2182 3597 
L 2202 3411 
Q 1722 3264 1251 3120 
Q 781 2976 410 2854 
L 352 3040 
z
M 3232 5318 
L 3424 5293 
Q 3264 4928 2982 4525 
Q 2701 4122 2285 3782 
Q 2266 3808 2240 3827 
Q 2214 3846 2188 3865 
Q 2163 3885 2138 3898 
Q 2547 4205 2819 4595 
Q 3091 4986 3232 5318 
z
M 2976 4678 
L 5658 4678 
L 5658 4493 
L 2842 4493 
L 2976 4678 
z
M 5600 4678 
L 5645 4678 
L 5683 4691 
L 5811 4634 
Q 5664 4397 5513 4153 
Q 5363 3910 5229 3744 
L 5069 3814 
Q 5197 3974 5341 4198 
Q 5485 4422 5600 4640 
L 5600 4678 
z
M 1286 2362 
L 5178 2362 
L 5178 576 
L 4986 576 
L 4986 2170 
L 1478 2170 
L 1478 557 
L 1286 557 
L 1286 2362 
z
M 3206 1958 
L 3405 1958 
Q 3328 1421 3152 1014 
Q 2976 608 2653 317 
Q 2330 26 1808 -163 
Q 1286 -352 512 -461 
Q 506 -435 490 -409 
Q 474 -384 458 -358 
Q 442 -333 422 -314 
Q 1184 -211 1693 -28 
Q 2202 154 2509 429 
Q 2816 704 2979 1081 
Q 3142 1459 3206 1958 
z
M 3360 646 
L 3450 806 
Q 3770 698 4115 566 
Q 4461 435 4793 294 
Q 5126 154 5414 16 
Q 5702 -122 5907 -237 
L 5824 -422 
Q 5613 -307 5321 -166 
Q 5030 -26 4697 118 
Q 4365 262 4022 400 
Q 3680 538 3360 646 
z
M 4006 4570 
L 4211 4570 
Q 4128 4230 3971 3929 
Q 3814 3629 3574 3376 
Q 3334 3123 2985 2924 
Q 2637 2726 2163 2592 
Q 2144 2624 2112 2669 
Q 2080 2714 2048 2733 
Q 2515 2854 2851 3043 
Q 3187 3232 3417 3472 
Q 3648 3712 3789 3990 
Q 3930 4269 4006 4570 
z
M 3987 4070 
Q 4173 3763 4486 3504 
Q 4800 3245 5193 3056 
Q 5587 2867 6010 2771 
Q 5978 2746 5942 2701 
Q 5907 2656 5882 2618 
Q 5459 2733 5062 2934 
Q 4666 3136 4342 3411 
Q 4019 3686 3827 4006 
L 3987 4070 
z
" transform="scale(0.015625)"/>
      <path id="NotoSansSC-Thin-5411" d="M 710 4179 
L 5632 4179 
L 5632 3987 
L 896 3987 
L 896 -454 
L 710 -454 
L 710 4179 
z
M 5549 4179 
L 5734 4179 
L 5734 -64 
Q 5734 -224 5683 -304 
Q 5632 -384 5498 -416 
Q 5357 -442 5065 -445 
Q 4774 -448 4326 -448 
Q 4320 -416 4307 -381 
Q 4294 -346 4278 -304 
Q 4262 -262 4243 -230 
Q 4518 -237 4752 -240 
Q 4986 -243 5149 -240 
Q 5312 -237 5382 -237 
Q 5485 -230 5517 -195 
Q 5549 -160 5549 -70 
L 5549 4179 
z
M 2950 5344 
L 3155 5286 
Q 3034 4986 2883 4640 
Q 2733 4294 2592 4045 
L 2419 4102 
Q 2509 4269 2608 4489 
Q 2707 4710 2800 4937 
Q 2893 5165 2950 5344 
z
M 1952 2912 
L 2138 2912 
L 2138 397 
L 1952 397 
L 1952 2912 
z
M 2061 2912 
L 4454 2912 
L 4454 870 
L 2061 870 
L 2061 1062 
L 4269 1062 
L 4269 2720 
L 2061 2720 
L 2061 2912 
z
" transform="scale(0.015625)"/>
     </defs>
     <use xlink:href="#NotoSansSC-Thin-36"/>
     <use xlink:href="#NotoSansSC-Thin-6708" transform="translate(52.099991 0)"/>
     <use xlink:href="#NotoSansSC-Thin-31" transform="translate(152.099976 0)"/>
     <use xlink:href="#NotoSansSC-Thin-65e5" transform="translate(204.199966 0)"/>
     <use xlink:href="#NotoSansSC-Thin-41" transform="translate(304.199951 0)"/>
     <use xlink:href="#NotoSansSC-Thin-80a1" transform="translate(361.599945 0)"/>
     <use xlink:href="#NotoSansSC-Thin-4e3b" transform="translate(461.59993 0)"/>
     <use xlink:href="#NotoSansSC-Thin-529b" transform="translate(561.599915 0)"/>
     <use xlink:href="#NotoSansSC-Thin-8d44" transform="translate(661.599899 0)"/>
     <use xlink:href="#NotoSansSC-Thin-91d1" transform="translate(761.599884 0)"/>
     <use xlink:href="#NotoSansSC-Thin-6d41" transform="translate(861.599869 0)"/>
     <use xlink:href="#NotoSansSC-Thin-5411" transform="translate(961.599854 0)"/>
     <use xlink:href="#NotoSansSC-Thin-ff08" transform="translate(1061.599838 0)"/>
     <use xlink:href="#NotoSansSC-Thin-4ebf" transform="translate(1161.599823 0)"/>
     <use xlink:href="#NotoSansSC-Thin-5143" transform="translate(1261.599808 0)"/>
     <use xlink:href="#NotoSansSC-Thin-ff09" transform="translate(1361.599792 0)"/>
    </g>
   </g>
  </g>
 </g>
 <defs>
  <clipPath id="pf986dad318">
   <rect x="46.2" y="29.522812" width="295.561053" height="133.0224"/>
  </clipPath>
 </defs>
</svg>
