<?xml version="1.0" encoding="utf-8" standalone="no"?>
<!DOCTYPE svg PUBLIC "-//W3C//DTD SVG 1.1//EN"
  "http://www.w3.org/Graphics/SVG/1.1/DTD/svg11.dtd">
<svg xmlns:xlink="http://www.w3.org/1999/xlink" width="381.647656pt" height="292.109pt" viewBox="0 0 381.647656 292.109" xmlns="http://www.w3.org/2000/svg" version="1.1">
 <metadata>
  <rdf:RDF xmlns:dc="http://purl.org/dc/elements/1.1/" xmlns:cc="http://creativecommons.org/ns#" xmlns:rdf="http://www.w3.org/1999/02/22-rdf-syntax-ns#">
   <cc:Work>
    <dc:type rdf:resource="http://purl.org/dc/dcmitype/StillImage"/>
    <dc:date>2026-05-27T13:53:58.615193</dc:date>
    <dc:format>image/svg+xml</dc:format>
    <dc:creator>
     <cc:Agent>
      <dc:title>Matplotlib v3.10.9, https://matplotlib.org/</dc:title>
     </cc:Agent>
    </dc:creator>
   </cc:Work>
  </rdf:RDF>
 </metadata>
 <defs>
  <style type="text/css">*{stroke-linejoin: round; stroke-linecap: butt}</style>
 </defs>
 <g id="figure_1">
  <g id="patch_1">
   <path d="M 0 292.109 
L 381.647656 292.109 
L 381.647656 0 
L 0 0 
z
" style="fill: #f0f2f5"/>
  </g>
  <g id="axes_1">
   <g id="patch_2">
    <path d="M 50.3 255.142437 
L 365.12 255.142437 
L 365.12 80.038437 
L 50.3 80.038437 
z
" style="fill: #ffffff"/>
   </g>
   <g id="matplotlib.axis_1">
    <g id="xtick_1">
     <g id="line2d_1">
      <path d="M 50.3 255.142437 
L 50.3 80.038437 
" clip-path="url(#pab768d7418)" style="fill: none; stroke: #e2e8f0; stroke-opacity: 0.4; stroke-width: 0.5; stroke-linecap: square"/>
     </g>
     <g id="line2d_2"/>
     <g id="text_1">
      <!-- -2.0 -->
      <g style="fill: #94a3b8" transform="translate(43.114062 265.789) scale(0.09 -0.09)">
       <defs>
        <path id="NotoSansSC-Thin-2d" d="M 282 1638 
L 282 1862 
L 1811 1862 
L 1811 1638 
L 282 1638 
z
" transform="scale(0.015625)"/>
        <path id="NotoSansSC-Thin-32" d="M 294 0 
L 294 147 
Q 1120 858 1613 1434 
Q 2106 2010 2323 2499 
Q 2541 2989 2541 3424 
Q 2541 3725 2435 3974 
Q 2330 4224 2106 4371 
Q 1882 4518 1523 4518 
Q 1210 4518 931 4352 
Q 653 4186 442 3923 
L 282 4070 
Q 525 4346 829 4538 
Q 1133 4730 1542 4730 
Q 1939 4730 2214 4566 
Q 2490 4403 2637 4112 
Q 2784 3821 2784 3424 
Q 2784 2918 2537 2406 
Q 2291 1894 1820 1347 
Q 1350 800 678 179 
Q 870 192 1062 201 
Q 1254 211 1440 211 
L 3014 211 
L 3014 0 
L 294 0 
z
" transform="scale(0.015625)"/>
        <path id="NotoSansSC-Thin-2e" d="M 736 -83 
Q 640 -83 560 -9 
Q 480 64 480 192 
Q 480 333 560 406 
Q 640 480 736 480 
Q 838 480 918 406 
Q 998 333 998 192 
Q 998 64 918 -9 
Q 838 -83 736 -83 
z
" transform="scale(0.015625)"/>
        <path id="NotoSansSC-Thin-30" d="M 1670 -83 
Q 1261 -83 963 179 
Q 666 442 509 979 
Q 352 1517 352 2336 
Q 352 3149 509 3677 
Q 666 4205 963 4467 
Q 1261 4730 1670 4730 
Q 2080 4730 2371 4467 
Q 2662 4205 2822 3677 
Q 2982 3149 2982 2336 
Q 2982 1517 2822 979 
Q 2662 442 2371 179 
Q 2080 -83 1670 -83 
z
M 1670 128 
Q 1997 128 2240 384 
Q 2483 640 2614 1133 
Q 2746 1626 2746 2336 
Q 2746 3040 2614 3529 
Q 2483 4019 2240 4272 
Q 1997 4525 1670 4525 
Q 1344 4525 1101 4272 
Q 858 4019 723 3529 
Q 589 3040 589 2336 
Q 589 1626 723 1133 
Q 858 640 1101 384 
Q 1344 128 1670 128 
z
" transform="scale(0.015625)"/>
       </defs>
       <use xlink:href="#NotoSansSC-Thin-2d"/>
       <use xlink:href="#NotoSansSC-Thin-32" transform="translate(32.399994 0)"/>
       <use xlink:href="#NotoSansSC-Thin-2e" transform="translate(84.499985 0)"/>
       <use xlink:href="#NotoSansSC-Thin-30" transform="translate(107.599976 0)"/>
      </g>
     </g>
    </g>
    <g id="xtick_2">
     <g id="line2d_3">
      <path d="M 95.274286 255.142437 
L 95.274286 80.038437 
" clip-path="url(#pab768d7418)" style="fill: none; stroke: #e2e8f0; stroke-opacity: 0.4; stroke-width: 0.5; stroke-linecap: square"/>
     </g>
     <g id="line2d_4"/>
     <g id="text_2">
      <!-- -1.5 -->
      <g style="fill: #94a3b8" transform="translate(88.088348 265.789) scale(0.09 -0.09)">
       <defs>
        <path id="NotoSansSC-Thin-31" d="M 608 0 
L 608 211 
L 1677 211 
L 1677 4211 
L 864 4211 
L 864 4378 
Q 1133 4422 1344 4492 
Q 1555 4563 1702 4646 
L 1901 4646 
L 1901 211 
L 2899 211 
L 2899 0 
L 608 0 
z
" transform="scale(0.015625)"/>
        <path id="NotoSansSC-Thin-35" d="M 1581 -83 
Q 1222 -83 963 9 
Q 704 102 515 240 
Q 326 378 186 518 
L 333 691 
Q 467 550 636 422 
Q 806 294 1040 211 
Q 1274 128 1594 128 
Q 1901 128 2166 294 
Q 2432 461 2592 765 
Q 2752 1069 2752 1466 
Q 2752 2061 2441 2406 
Q 2131 2752 1606 2752 
Q 1350 2752 1152 2665 
Q 954 2579 755 2445 
L 563 2560 
L 730 4646 
L 2758 4646 
L 2758 4435 
L 941 4435 
L 787 2726 
Q 966 2835 1168 2902 
Q 1370 2970 1626 2970 
Q 2010 2970 2320 2813 
Q 2630 2656 2812 2326 
Q 2995 1997 2995 1478 
Q 2995 979 2787 630 
Q 2579 282 2256 99 
Q 1933 -83 1581 -83 
z
" transform="scale(0.015625)"/>
       </defs>
       <use xlink:href="#NotoSansSC-Thin-2d"/>
       <use xlink:href="#NotoSansSC-Thin-31" transform="translate(32.399994 0)"/>
       <use xlink:href="#NotoSansSC-Thin-2e" transform="translate(84.499985 0)"/>
       <use xlink:href="#NotoSansSC-Thin-35" transform="translate(107.599976 0)"/>
      </g>
     </g>
    </g>
    <g id="xtick_3">
     <g id="line2d_5">
      <path d="M 140.248571 255.142437 
L 140.248571 80.038437 
" clip-path="url(#pab768d7418)" style="fill: none; stroke: #e2e8f0; stroke-opacity: 0.4; stroke-width: 0.5; stroke-linecap: square"/>
     </g>
     <g id="line2d_6"/>
     <g id="text_3">
      <!-- -1.0 -->
      <g style="fill: #94a3b8" transform="translate(133.062634 265.789) scale(0.09 -0.09)">
       <use xlink:href="#NotoSansSC-Thin-2d"/>
       <use xlink:href="#NotoSansSC-Thin-31" transform="translate(32.399994 0)"/>
       <use xlink:href="#NotoSansSC-Thin-2e" transform="translate(84.499985 0)"/>
       <use xlink:href="#NotoSansSC-Thin-30" transform="translate(107.599976 0)"/>
      </g>
     </g>
    </g>
    <g id="xtick_4">
     <g id="line2d_7">
      <path d="M 185.222857 255.142437 
L 185.222857 80.038437 
" clip-path="url(#pab768d7418)" style="fill: none; stroke: #e2e8f0; stroke-opacity: 0.4; stroke-width: 0.5; stroke-linecap: square"/>
     </g>
     <g id="line2d_8"/>
     <g id="text_4">
      <!-- -0.5 -->
      <g style="fill: #94a3b8" transform="translate(178.03692 265.789) scale(0.09 -0.09)">
       <use xlink:href="#NotoSansSC-Thin-2d"/>
       <use xlink:href="#NotoSansSC-Thin-30" transform="translate(32.399994 0)"/>
       <use xlink:href="#NotoSansSC-Thin-2e" transform="translate(84.499985 0)"/>
       <use xlink:href="#NotoSansSC-Thin-35" transform="translate(107.599976 0)"/>
      </g>
     </g>
    </g>
    <g id="xtick_5">
     <g id="line2d_9">
      <path d="M 230.197143 255.142437 
L 230.197143 80.038437 
" clip-path="url(#pab768d7418)" style="fill: none; stroke: #e2e8f0; stroke-opacity: 0.4; stroke-width: 0.5; stroke-linecap: square"/>
     </g>
     <g id="line2d_10"/>
     <g id="text_5">
      <!-- 0.0 -->
      <g style="fill: #94a3b8" transform="translate(224.469487 265.789) scale(0.09 -0.09)">
       <use xlink:href="#NotoSansSC-Thin-30"/>
       <use xlink:href="#NotoSansSC-Thin-2e" transform="translate(52.099991 0)"/>
       <use xlink:href="#NotoSansSC-Thin-30" transform="translate(75.199982 0)"/>
      </g>
     </g>
    </g>
    <g id="xtick_6">
     <g id="line2d_11">
      <path d="M 275.171429 255.142437 
L 275.171429 80.038437 
" clip-path="url(#pab768d7418)" style="fill: none; stroke: #e2e8f0; stroke-opacity: 0.4; stroke-width: 0.5; stroke-linecap: square"/>
     </g>
     <g id="line2d_12"/>
     <g id="text_6">
      <!-- 0.5 -->
      <g style="fill: #94a3b8" transform="translate(269.443772 265.789) scale(0.09 -0.09)">
       <use xlink:href="#NotoSansSC-Thin-30"/>
       <use xlink:href="#NotoSansSC-Thin-2e" transform="translate(52.099991 0)"/>
       <use xlink:href="#NotoSansSC-Thin-35" transform="translate(75.199982 0)"/>
      </g>
     </g>
    </g>
    <g id="xtick_7">
     <g id="line2d_13">
      <path d="M 320.145714 255.142437 
L 320.145714 80.038437 
" clip-path="url(#pab768d7418)" style="fill: none; stroke: #e2e8f0; stroke-opacity: 0.4; stroke-width: 0.5; stroke-linecap: square"/>
     </g>
     <g id="line2d_14"/>
     <g id="text_7">
      <!-- 1.0 -->
      <g style="fill: #94a3b8" transform="translate(314.418058 265.789) scale(0.09 -0.09)">
       <use xlink:href="#NotoSansSC-Thin-31"/>
       <use xlink:href="#NotoSansSC-Thin-2e" transform="translate(52.099991 0)"/>
       <use xlink:href="#NotoSansSC-Thin-30" transform="translate(75.199982 0)"/>
      </g>
     </g>
    </g>
    <g id="xtick_8">
     <g id="line2d_15">
      <path d="M 365.12 255.142437 
L 365.12 80.038437 
" clip-path="url(#pab768d7418)" style="fill: none; stroke: #e2e8f0; stroke-opacity: 0.4; stroke-width: 0.5; stroke-linecap: square"/>
     </g>
     <g id="line2d_16"/>
     <g id="text_8">
      <!-- 1.5 -->
      <g style="fill: #94a3b8" transform="translate(359.392344 265.789) scale(0.09 -0.09)">
       <use xlink:href="#NotoSansSC-Thin-31"/>
       <use xlink:href="#NotoSansSC-Thin-2e" transform="translate(52.099991 0)"/>
       <use xlink:href="#NotoSansSC-Thin-35" transform="translate(75.199982 0)"/>
      </g>
     </g>
    </g>
    <g id="text_9">
     <!-- 涨跌幅 (%) -->
     <g style="fill: #64748b" transform="translate(186.568438 279.122281) scale(0.09 -0.09)">
      <defs>
       <path id="NotoSansSC-Thin-6da8" d="M 2803 2118 
L 3002 2118 
Q 3002 2118 3002 2073 
Q 3002 2029 2995 1997 
Q 2957 1216 2912 752 
Q 2867 288 2809 54 
Q 2752 -179 2669 -269 
Q 2605 -339 2528 -364 
Q 2451 -390 2323 -397 
Q 2208 -403 1987 -396 
Q 1766 -390 1530 -371 
Q 1523 -326 1510 -275 
Q 1498 -224 1472 -179 
Q 1741 -205 1971 -208 
Q 2202 -211 2285 -211 
Q 2445 -218 2509 -154 
Q 2579 -83 2630 150 
Q 2682 384 2726 848 
Q 2771 1312 2803 2080 
L 2803 2118 
z
M 1779 3565 
L 1965 3565 
Q 1946 3302 1920 2998 
Q 1894 2694 1865 2412 
Q 1837 2131 1805 1926 
L 1619 1926 
Q 1651 2138 1683 2422 
Q 1715 2707 1740 3008 
Q 1766 3309 1779 3565 
z
M 1728 2118 
L 2861 2118 
L 2861 1926 
L 1709 1926 
L 1728 2118 
z
M 1856 3565 
L 2867 3565 
L 2867 4806 
L 1638 4806 
L 1638 4992 
L 3053 4992 
L 3053 3373 
L 1856 3373 
L 1856 3565 
z
M 3590 -448 
Q 3584 -422 3565 -390 
Q 3546 -358 3523 -323 
Q 3501 -288 3482 -262 
Q 3552 -230 3645 -153 
Q 3738 -77 3738 102 
L 3738 5254 
L 3930 5254 
L 3930 -192 
Q 3930 -192 3878 -221 
Q 3827 -250 3760 -291 
Q 3693 -333 3641 -374 
Q 3590 -416 3590 -448 
z
M 518 5043 
L 646 5158 
Q 806 5050 969 4918 
Q 1133 4787 1273 4656 
Q 1414 4525 1498 4422 
L 1370 4288 
Q 1280 4397 1139 4531 
Q 998 4666 838 4800 
Q 678 4934 518 5043 
z
M 294 3251 
L 429 3366 
Q 582 3264 739 3142 
Q 896 3021 1033 2899 
Q 1171 2778 1254 2675 
L 1126 2534 
Q 1037 2637 899 2765 
Q 762 2893 605 3021 
Q 448 3149 294 3251 
z
M 448 -262 
Q 550 -26 665 297 
Q 781 621 899 976 
Q 1018 1331 1107 1658 
L 1274 1549 
Q 1190 1242 1078 896 
Q 966 550 854 220 
Q 742 -109 634 -378 
L 448 -262 
z
M 3091 2771 
L 6093 2771 
L 6093 2579 
L 3091 2579 
L 3091 2771 
z
M 4659 2694 
Q 4781 2061 4985 1497 
Q 5190 934 5478 499 
Q 5766 64 6138 -192 
Q 6106 -218 6064 -262 
Q 6022 -307 5997 -346 
Q 5626 -58 5331 396 
Q 5037 851 4829 1430 
Q 4621 2010 4493 2656 
L 4659 2694 
z
M 5613 5197 
L 5805 5146 
Q 5626 4730 5389 4346 
Q 5152 3962 4873 3632 
Q 4595 3302 4301 3046 
Q 4288 3059 4259 3084 
Q 4230 3110 4198 3136 
Q 4166 3162 4141 3174 
Q 4589 3539 4976 4070 
Q 5363 4602 5613 5197 
z
M 3590 -448 
L 3590 -269 
L 3706 -134 
L 4998 339 
Q 5005 301 5014 256 
Q 5024 211 5030 192 
Q 4570 0 4294 -115 
Q 4019 -230 3878 -294 
Q 3738 -358 3680 -390 
Q 3622 -422 3590 -448 
z
" transform="scale(0.015625)"/>
       <path id="NotoSansSC-Thin-8dcc" d="M 838 4819 
L 838 3398 
L 2214 3398 
L 2214 4819 
L 838 4819 
z
M 646 5005 
L 2406 5005 
L 2406 3213 
L 646 3213 
L 646 5005 
z
M 1498 3341 
L 1690 3341 
L 1690 346 
L 1498 346 
L 1498 3341 
z
M 685 2458 
L 870 2458 
L 870 147 
L 685 147 
L 685 2458 
z
M 314 122 
Q 589 186 944 278 
Q 1299 371 1705 483 
Q 2112 595 2522 704 
L 2541 525 
Q 1958 365 1382 208 
Q 806 51 371 -70 
L 314 122 
z
M 1549 2106 
L 2483 2106 
L 2483 1920 
L 1549 1920 
L 1549 2106 
z
M 2643 2336 
L 6003 2336 
L 6003 2144 
L 2643 2144 
L 2643 2336 
z
M 3213 4096 
L 5894 4096 
L 5894 3910 
L 3155 3910 
L 3213 4096 
z
M 3277 5050 
L 3469 5018 
Q 3366 4416 3200 3865 
Q 3034 3315 2790 2918 
Q 2771 2938 2742 2957 
Q 2714 2976 2682 2995 
Q 2650 3014 2618 3027 
Q 2867 3405 3027 3939 
Q 3187 4474 3277 5050 
z
M 4224 5306 
L 4410 5306 
L 4410 3450 
Q 4410 3091 4387 2688 
Q 4365 2285 4272 1869 
Q 4179 1453 3980 1040 
Q 3782 627 3440 243 
Q 3098 -141 2560 -474 
Q 2547 -448 2524 -425 
Q 2502 -403 2476 -377 
Q 2451 -352 2426 -333 
Q 2957 -19 3293 352 
Q 3629 723 3821 1123 
Q 4013 1523 4099 1926 
Q 4186 2330 4205 2717 
Q 4224 3104 4224 3450 
L 4224 5306 
z
M 4416 2323 
Q 4531 1715 4752 1196 
Q 4973 678 5305 297 
Q 5638 -83 6086 -282 
Q 6061 -301 6035 -326 
Q 6010 -352 5987 -381 
Q 5965 -410 5946 -435 
Q 5261 -96 4848 614 
Q 4435 1325 4250 2285 
L 4416 2323 
z
" transform="scale(0.015625)"/>
       <path id="NotoSansSC-Thin-5e45" d="M 1376 5306 
L 1562 5306 
L 1562 -448 
L 1376 -448 
L 1376 5306 
z
M 531 4064 
L 2381 4064 
L 2381 3878 
L 717 3878 
L 717 858 
L 531 858 
L 531 4064 
z
M 2266 4064 
L 2451 4064 
L 2451 1158 
Q 2451 1075 2428 1024 
Q 2406 973 2342 941 
Q 2278 915 2163 908 
Q 2048 902 1882 902 
Q 1875 941 1849 995 
Q 1824 1050 1792 1094 
Q 1946 1088 2051 1088 
Q 2157 1088 2202 1088 
Q 2266 1094 2266 1158 
L 2266 4064 
z
M 2714 4928 
L 6074 4928 
L 6074 4742 
L 2714 4742 
L 2714 4928 
z
M 3283 3962 
L 3283 2957 
L 5453 2957 
L 5453 3962 
L 3283 3962 
z
M 3091 4147 
L 5638 4147 
L 5638 2765 
L 3091 2765 
L 3091 4147 
z
M 2912 1037 
L 5856 1037 
L 5856 845 
L 2912 845 
L 2912 1037 
z
M 2912 -32 
L 5856 -32 
L 5856 -218 
L 2912 -218 
L 2912 -32 
z
M 2790 2112 
L 5933 2112 
L 5933 -429 
L 5747 -429 
L 5747 1926 
L 2982 1926 
L 2982 -454 
L 2790 -454 
L 2790 2112 
z
M 4218 1997 
L 4403 1997 
L 4403 -147 
L 4218 -147 
L 4218 1997 
z
" transform="scale(0.015625)"/>
       <path id="NotoSansSC-Thin-20" transform="scale(0.015625)"/>
       <path id="NotoSansSC-Thin-28" d="M 1562 -1222 
Q 1133 -525 883 252 
Q 634 1030 634 1958 
Q 634 2886 883 3667 
Q 1133 4448 1562 5146 
L 1696 5056 
Q 1274 4390 1059 3596 
Q 845 2803 845 1958 
Q 845 1114 1059 320 
Q 1274 -474 1696 -1139 
L 1562 -1222 
z
" transform="scale(0.015625)"/>
       <path id="NotoSansSC-Thin-25" d="M 1267 1818 
Q 966 1818 745 1987 
Q 525 2157 409 2483 
Q 294 2810 294 3283 
Q 294 3750 409 4070 
Q 525 4390 745 4560 
Q 966 4730 1267 4730 
Q 1574 4730 1795 4560 
Q 2016 4390 2131 4070 
Q 2246 3750 2246 3283 
Q 2246 2810 2131 2483 
Q 2016 2157 1795 1987 
Q 1574 1818 1267 1818 
z
M 1267 2003 
Q 1619 2003 1820 2342 
Q 2022 2682 2022 3283 
Q 2022 3885 1820 4214 
Q 1619 4544 1267 4544 
Q 922 4544 717 4214 
Q 512 3885 512 3283 
Q 512 2682 717 2342 
Q 922 2003 1267 2003 
z
M 1382 -83 
L 3987 4730 
L 4218 4730 
L 1619 -83 
L 1382 -83 
z
M 4365 -83 
Q 4058 -83 3840 86 
Q 3622 256 3504 582 
Q 3386 909 3386 1382 
Q 3386 1850 3504 2170 
Q 3622 2490 3840 2659 
Q 4058 2829 4365 2829 
Q 4666 2829 4883 2659 
Q 5101 2490 5219 2170 
Q 5338 1850 5338 1382 
Q 5338 909 5219 582 
Q 5101 256 4883 86 
Q 4666 -83 4365 -83 
z
M 4365 102 
Q 4704 102 4912 441 
Q 5120 781 5120 1382 
Q 5120 1984 4912 2313 
Q 4704 2643 4365 2643 
Q 4013 2643 3808 2313 
Q 3603 1984 3603 1382 
Q 3603 781 3808 441 
Q 4013 102 4365 102 
z
" transform="scale(0.015625)"/>
       <path id="NotoSansSC-Thin-29" d="M 352 -1222 
L 211 -1139 
Q 634 -474 851 320 
Q 1069 1114 1069 1958 
Q 1069 2803 851 3596 
Q 634 4390 211 5056 
L 352 5146 
Q 787 4448 1033 3667 
Q 1280 2886 1280 1958 
Q 1280 1030 1033 252 
Q 787 -525 352 -1222 
z
" transform="scale(0.015625)"/>
      </defs>
      <use xlink:href="#NotoSansSC-Thin-6da8"/>
      <use xlink:href="#NotoSansSC-Thin-8dcc" transform="translate(99.999985 0)"/>
      <use xlink:href="#NotoSansSC-Thin-5e45" transform="translate(199.999969 0)"/>
      <use xlink:href="#NotoSansSC-Thin-20" transform="translate(299.999954 0)"/>
      <use xlink:href="#NotoSansSC-Thin-28" transform="translate(321.999939 0)"/>
      <use xlink:href="#NotoSansSC-Thin-25" transform="translate(351.899933 0)"/>
      <use xlink:href="#NotoSansSC-Thin-29" transform="translate(439.899918 0)"/>
     </g>
    </g>
   </g>
   <g id="matplotlib.axis_2">
    <g id="ytick_1">
     <g id="line2d_17">
      <path d="M 50.3 239.134462 
L 365.12 239.134462 
" clip-path="url(#pab768d7418)" style="fill: none; stroke: #e2e8f0; stroke-opacity: 0.6; stroke-width: 0.5; stroke-linecap: square"/>
     </g>
     <g id="line2d_18"/>
     <g id="text_10">
      <!-- 上证指数 -->
      <g style="fill: #94a3b8" transform="translate(10.8 242.707743) scale(0.09 -0.09)">
       <defs>
        <path id="NotoSansSC-Thin-4e0a" d="M 3002 3091 
L 5600 3091 
L 5600 2906 
L 3002 2906 
L 3002 3091 
z
M 378 32 
L 6029 32 
L 6029 -154 
L 378 -154 
L 378 32 
z
M 2886 5203 
L 3072 5203 
L 3072 -51 
L 2886 -51 
L 2886 5203 
z
" transform="scale(0.015625)"/>
        <path id="NotoSansSC-Thin-8bc1" d="M 4166 4685 
L 4352 4685 
L 4352 -109 
L 4166 -109 
L 4166 4685 
z
M 2861 3264 
L 3046 3264 
L 3046 -122 
L 2861 -122 
L 2861 3264 
z
M 4250 2637 
L 5837 2637 
L 5837 2445 
L 4250 2445 
L 4250 2637 
z
M 2502 4736 
L 5952 4736 
L 5952 4550 
L 2502 4550 
L 2502 4736 
z
M 2227 0 
L 6099 0 
L 6099 -186 
L 2227 -186 
L 2227 0 
z
M 781 4966 
L 922 5082 
Q 1101 4947 1286 4784 
Q 1472 4621 1635 4461 
Q 1798 4301 1894 4173 
L 1754 4032 
Q 1651 4160 1488 4323 
Q 1325 4486 1142 4656 
Q 960 4826 781 4966 
z
M 1248 -205 
L 1242 -6 
L 1350 154 
L 2400 838 
Q 2413 819 2425 793 
Q 2438 768 2451 739 
Q 2464 710 2470 691 
Q 2086 422 1856 262 
Q 1626 102 1504 16 
Q 1382 -70 1331 -118 
Q 1280 -166 1248 -205 
z
M 384 3270 
L 1581 3270 
L 1581 3078 
L 384 3078 
L 384 3270 
z
M 1248 -205 
Q 1235 -179 1209 -150 
Q 1184 -122 1161 -93 
Q 1139 -64 1114 -45 
Q 1158 -13 1235 60 
Q 1312 134 1373 243 
Q 1434 352 1434 493 
L 1434 3270 
L 1619 3270 
L 1619 198 
Q 1619 198 1580 166 
Q 1542 134 1488 86 
Q 1434 38 1379 -19 
Q 1325 -77 1286 -125 
Q 1248 -173 1248 -205 
z
" transform="scale(0.015625)"/>
        <path id="NotoSansSC-Thin-6307" d="M 2867 5274 
L 3053 5274 
L 3053 3373 
Q 3053 3226 3155 3174 
Q 3258 3123 3597 3123 
Q 3661 3123 3830 3123 
Q 4000 3123 4224 3123 
Q 4448 3123 4675 3123 
Q 4902 3123 5088 3123 
Q 5274 3123 5363 3123 
Q 5562 3123 5658 3187 
Q 5754 3251 5792 3440 
Q 5830 3629 5850 4000 
Q 5882 3974 5936 3955 
Q 5990 3936 6035 3923 
Q 6016 3526 5961 3312 
Q 5907 3098 5769 3018 
Q 5632 2938 5363 2938 
Q 5325 2938 5149 2938 
Q 4973 2938 4733 2938 
Q 4493 2938 4253 2938 
Q 4013 2938 3837 2938 
Q 3661 2938 3622 2938 
Q 3334 2938 3168 2970 
Q 3002 3002 2934 3098 
Q 2867 3194 2867 3379 
L 2867 5274 
z
M 5459 4832 
L 5626 4678 
Q 5299 4550 4857 4432 
Q 4416 4314 3933 4208 
Q 3450 4102 2995 4019 
Q 2989 4051 2966 4096 
Q 2944 4141 2918 4179 
Q 3366 4262 3846 4368 
Q 4326 4474 4752 4595 
Q 5178 4717 5459 4832 
z
M 2880 2234 
L 5792 2234 
L 5792 -416 
L 5600 -416 
L 5600 2048 
L 3066 2048 
L 3066 -442 
L 2880 -442 
L 2880 2234 
z
M 2970 1165 
L 5683 1165 
L 5683 979 
L 2970 979 
L 2970 1165 
z
M 2970 58 
L 5709 58 
L 5709 -128 
L 2970 -128 
L 2970 58 
z
M 262 1792 
Q 531 1875 880 1987 
Q 1229 2099 1625 2230 
Q 2022 2362 2419 2496 
L 2451 2310 
Q 1894 2125 1337 1933 
Q 781 1741 352 1600 
L 262 1792 
z
M 326 3936 
L 2368 3936 
L 2368 3744 
L 326 3744 
L 326 3936 
z
M 1318 5312 
L 1504 5312 
L 1504 -141 
Q 1504 -269 1462 -329 
Q 1421 -390 1331 -416 
Q 1242 -442 1069 -448 
Q 896 -454 595 -448 
Q 589 -416 563 -365 
Q 538 -314 518 -269 
Q 768 -275 953 -275 
Q 1139 -275 1197 -269 
Q 1261 -269 1289 -243 
Q 1318 -218 1318 -147 
L 1318 5312 
z
" transform="scale(0.015625)"/>
        <path id="NotoSansSC-Thin-6570" d="M 512 1990 
L 2970 1990 
L 2970 1798 
L 512 1798 
L 512 1990 
z
M 365 4064 
L 3386 4064 
L 3386 3878 
L 365 3878 
L 365 4064 
z
M 2957 5146 
L 3123 5050 
Q 3002 4826 2845 4586 
Q 2688 4346 2554 4173 
L 2419 4256 
Q 2509 4371 2608 4531 
Q 2707 4691 2800 4854 
Q 2893 5018 2957 5146 
z
M 1792 5318 
L 1984 5318 
L 1984 2611 
L 1792 2611 
L 1792 5318 
z
M 691 5043 
L 845 5101 
Q 992 4902 1117 4662 
Q 1242 4422 1286 4250 
L 1139 4179 
Q 1088 4352 960 4598 
Q 832 4845 691 5043 
z
M 1792 3987 
L 1946 3904 
Q 1798 3622 1561 3344 
Q 1325 3066 1046 2832 
Q 768 2598 486 2445 
Q 467 2490 428 2538 
Q 390 2586 358 2618 
Q 634 2746 909 2960 
Q 1184 3174 1417 3443 
Q 1651 3712 1792 3987 
z
M 1946 3866 
Q 2029 3814 2205 3696 
Q 2381 3578 2585 3443 
Q 2790 3309 2960 3190 
Q 3130 3072 3200 3021 
L 3072 2854 
Q 2995 2925 2832 3049 
Q 2669 3174 2473 3315 
Q 2278 3456 2105 3574 
Q 1933 3693 1830 3750 
L 1946 3866 
z
M 3962 4013 
L 5997 4013 
L 5997 3827 
L 3962 3827 
L 3962 4013 
z
M 4128 5222 
L 4314 5190 
Q 4218 4614 4083 4086 
Q 3949 3558 3766 3100 
Q 3584 2643 3354 2285 
Q 3341 2298 3309 2320 
Q 3277 2342 3241 2361 
Q 3206 2381 3181 2394 
Q 3424 2733 3603 3184 
Q 3782 3635 3913 4153 
Q 4045 4672 4128 5222 
z
M 5357 3936 
L 5549 3910 
Q 5382 2829 5084 2006 
Q 4787 1184 4291 579 
Q 3795 -26 3040 -454 
Q 3027 -435 3004 -406 
Q 2982 -378 2956 -349 
Q 2931 -320 2906 -301 
Q 3654 90 4140 678 
Q 4627 1267 4915 2076 
Q 5203 2886 5357 3936 
z
M 3994 3789 
Q 4147 2874 4425 2070 
Q 4704 1267 5133 668 
Q 5562 70 6150 -243 
Q 6112 -269 6073 -313 
Q 6035 -358 6010 -397 
Q 5414 -51 4985 563 
Q 4557 1178 4275 1997 
Q 3994 2816 3834 3757 
L 3994 3789 
z
M 896 1018 
L 1050 1152 
Q 1370 1037 1722 873 
Q 2074 710 2387 544 
Q 2701 378 2906 230 
L 2752 90 
Q 2554 237 2240 406 
Q 1926 576 1574 739 
Q 1222 902 896 1018 
z
M 2880 1990 
L 2918 1990 
L 2963 2003 
L 3066 1946 
Q 2874 1286 2474 825 
Q 2074 365 1552 80 
Q 1030 -205 467 -358 
Q 454 -320 422 -272 
Q 390 -224 358 -198 
Q 902 -64 1411 205 
Q 1920 474 2310 906 
Q 2701 1338 2880 1946 
L 2880 1990 
z
M 896 1018 
Q 1030 1210 1168 1453 
Q 1306 1696 1427 1952 
Q 1549 2208 1632 2438 
L 1811 2406 
Q 1722 2170 1597 1910 
Q 1472 1651 1341 1414 
Q 1210 1178 1094 1005 
L 896 1018 
z
" transform="scale(0.015625)"/>
       </defs>
       <use xlink:href="#NotoSansSC-Thin-4e0a"/>
       <use xlink:href="#NotoSansSC-Thin-8bc1" transform="translate(99.999985 0)"/>
       <use xlink:href="#NotoSansSC-Thin-6307" transform="translate(199.999969 0)"/>
       <use xlink:href="#NotoSansSC-Thin-6570" transform="translate(299.999954 0)"/>
      </g>
     </g>
    </g>
    <g id="ytick_2">
     <g id="line2d_19">
      <path d="M 50.3 203.36245 
L 365.12 203.36245 
" clip-path="url(#pab768d7418)" style="fill: none; stroke: #e2e8f0; stroke-opacity: 0.6; stroke-width: 0.5; stroke-linecap: square"/>
     </g>
     <g id="line2d_20"/>
     <g id="text_11">
      <!-- 深证成指 -->
      <g style="fill: #94a3b8" transform="translate(10.8 206.935731) scale(0.09 -0.09)">
       <defs>
        <path id="NotoSansSC-Thin-6df1" d="M 2074 2234 
L 5805 2234 
L 5805 2048 
L 2074 2048 
L 2074 2234 
z
M 2138 4909 
L 5779 4909 
L 5779 3923 
L 5587 3923 
L 5587 4717 
L 2330 4717 
L 2330 3910 
L 2138 3910 
L 2138 4909 
z
M 3814 2995 
L 4000 2995 
L 4000 -448 
L 3814 -448 
L 3814 2995 
z
M 4166 2170 
Q 4352 1741 4637 1341 
Q 4922 941 5270 624 
Q 5619 307 5978 122 
Q 5952 102 5926 73 
Q 5901 45 5878 16 
Q 5856 -13 5837 -38 
Q 5478 173 5126 509 
Q 4774 845 4480 1257 
Q 4186 1670 3994 2106 
L 4166 2170 
z
M 3667 2182 
L 3834 2118 
Q 3648 1651 3347 1235 
Q 3046 819 2675 496 
Q 2304 173 1907 -32 
Q 1882 13 1843 57 
Q 1805 102 1773 128 
Q 2170 314 2534 624 
Q 2899 934 3193 1337 
Q 3488 1741 3667 2182 
z
M 3360 4147 
L 3546 4096 
Q 3398 3827 3187 3574 
Q 2976 3322 2742 3104 
Q 2509 2886 2272 2720 
Q 2259 2739 2227 2764 
Q 2195 2790 2163 2816 
Q 2131 2842 2106 2854 
Q 2477 3091 2809 3430 
Q 3142 3770 3360 4147 
z
M 4314 4083 
L 4454 4192 
Q 4691 4000 4931 3763 
Q 5171 3526 5376 3299 
Q 5581 3072 5702 2893 
L 5555 2765 
Q 5434 2944 5229 3177 
Q 5024 3411 4787 3648 
Q 4550 3885 4314 4083 
z
M 646 5094 
L 762 5229 
Q 947 5139 1142 5024 
Q 1338 4909 1517 4787 
Q 1696 4666 1811 4563 
L 1696 4403 
Q 1587 4506 1411 4630 
Q 1235 4755 1033 4880 
Q 832 5005 646 5094 
z
M 307 3354 
L 442 3488 
Q 646 3411 864 3302 
Q 1082 3194 1274 3078 
Q 1466 2963 1594 2861 
L 1466 2714 
Q 1338 2810 1142 2925 
Q 947 3040 729 3155 
Q 512 3270 307 3354 
z
M 493 -166 
Q 646 83 828 432 
Q 1011 781 1200 1165 
Q 1389 1549 1542 1901 
L 1670 1773 
Q 1523 1440 1344 1065 
Q 1165 691 982 332 
Q 800 -26 640 -307 
L 493 -166 
z
" transform="scale(0.015625)"/>
        <path id="NotoSansSC-Thin-6210" d="M 1024 2925 
L 2726 2925 
L 2726 2733 
L 1024 2733 
L 1024 2925 
z
M 2643 2925 
L 2829 2925 
Q 2829 2925 2829 2902 
Q 2829 2880 2829 2848 
Q 2829 2816 2829 2797 
Q 2810 2035 2787 1580 
Q 2765 1126 2729 902 
Q 2694 678 2630 602 
Q 2573 544 2502 518 
Q 2432 493 2304 486 
Q 2182 480 1968 486 
Q 1754 493 1510 512 
Q 1504 550 1491 601 
Q 1478 653 1453 691 
Q 1715 666 1945 662 
Q 2176 659 2259 659 
Q 2330 659 2381 668 
Q 2432 678 2464 717 
Q 2522 781 2554 998 
Q 2586 1216 2608 1667 
Q 2630 2118 2643 2880 
L 2643 2925 
z
M 4320 5075 
L 4435 5203 
Q 4659 5094 4899 4956 
Q 5139 4819 5347 4681 
Q 5555 4544 5690 4429 
L 5581 4288 
Q 5446 4403 5235 4544 
Q 5024 4685 4787 4825 
Q 4550 4966 4320 5075 
z
M 5402 3251 
L 5587 3200 
Q 5171 1946 4448 1056 
Q 3725 166 2714 -410 
Q 2701 -390 2672 -361 
Q 2643 -333 2617 -304 
Q 2592 -275 2566 -256 
Q 3590 282 4300 1165 
Q 5011 2048 5402 3251 
z
M 1056 4102 
L 6029 4102 
L 6029 3917 
L 1056 3917 
L 1056 4102 
z
M 947 4102 
L 1139 4102 
L 1139 2374 
Q 1139 2054 1113 1689 
Q 1088 1325 1021 944 
Q 954 563 819 204 
Q 685 -154 461 -461 
Q 448 -442 419 -419 
Q 390 -397 361 -377 
Q 333 -358 307 -346 
Q 595 58 729 531 
Q 864 1005 905 1485 
Q 947 1965 947 2381 
L 947 4102 
z
M 3667 5306 
L 3859 5306 
Q 3866 4320 3946 3472 
Q 4026 2624 4173 1945 
Q 4320 1267 4528 787 
Q 4736 307 4995 51 
Q 5254 -205 5555 -205 
Q 5722 -205 5795 76 
Q 5869 358 5894 1030 
Q 5926 1005 5980 979 
Q 6035 954 6074 941 
Q 6048 442 5997 147 
Q 5946 -147 5840 -275 
Q 5734 -403 5542 -403 
Q 5242 -403 4986 -204 
Q 4730 -6 4525 362 
Q 4320 730 4163 1245 
Q 4006 1760 3897 2397 
Q 3789 3034 3731 3770 
Q 3674 4506 3667 5306 
z
" transform="scale(0.015625)"/>
       </defs>
       <use xlink:href="#NotoSansSC-Thin-6df1"/>
       <use xlink:href="#NotoSansSC-Thin-8bc1" transform="translate(99.999985 0)"/>
       <use xlink:href="#NotoSansSC-Thin-6210" transform="translate(199.999969 0)"/>
       <use xlink:href="#NotoSansSC-Thin-6307" transform="translate(299.999954 0)"/>
      </g>
     </g>
    </g>
    <g id="ytick_3">
     <g id="line2d_21">
      <path d="M 50.3 167.590438 
L 365.12 167.590438 
" clip-path="url(#pab768d7418)" style="fill: none; stroke: #e2e8f0; stroke-opacity: 0.6; stroke-width: 0.5; stroke-linecap: square"/>
     </g>
     <g id="line2d_22"/>
     <g id="text_12">
      <!-- 创业板指 -->
      <g style="fill: #94a3b8" transform="translate(10.8 171.163719) scale(0.09 -0.09)">
       <defs>
        <path id="NotoSansSC-Thin-521b" d="M 5555 5235 
L 5747 5235 
L 5747 -70 
Q 5747 -224 5689 -291 
Q 5632 -358 5523 -390 
Q 5408 -416 5168 -419 
Q 4928 -422 4486 -416 
Q 4474 -384 4451 -333 
Q 4429 -282 4397 -237 
Q 4646 -243 4848 -243 
Q 5050 -243 5190 -240 
Q 5331 -237 5389 -237 
Q 5478 -230 5516 -195 
Q 5555 -160 5555 -77 
L 5555 5235 
z
M 4282 4557 
L 4467 4557 
L 4467 1082 
L 4282 1082 
L 4282 4557 
z
M 1043 2957 
L 2995 2957 
L 2995 2765 
L 1043 2765 
L 1043 2957 
z
M 966 2957 
L 1158 2957 
L 1158 90 
Q 1158 -70 1235 -124 
Q 1312 -179 1581 -179 
Q 1651 -179 1836 -179 
Q 2022 -179 2249 -179 
Q 2477 -179 2672 -179 
Q 2867 -179 2957 -179 
Q 3123 -179 3203 -108 
Q 3283 -38 3315 176 
Q 3347 390 3360 813 
Q 3398 781 3452 758 
Q 3507 736 3552 723 
Q 3533 294 3485 54 
Q 3437 -186 3318 -278 
Q 3200 -371 2957 -371 
Q 2918 -371 2780 -371 
Q 2643 -371 2457 -371 
Q 2272 -371 2086 -371 
Q 1901 -371 1766 -371 
Q 1632 -371 1600 -371 
Q 1357 -371 1219 -336 
Q 1082 -301 1024 -201 
Q 966 -102 966 90 
L 966 2957 
z
M 2931 2957 
L 3117 2957 
Q 3117 2957 3117 2912 
Q 3117 2867 3110 2835 
Q 3078 2259 3040 1913 
Q 3002 1568 2950 1389 
Q 2899 1210 2829 1139 
Q 2771 1082 2704 1059 
Q 2637 1037 2528 1030 
Q 2445 1030 2281 1033 
Q 2118 1037 1946 1050 
Q 1939 1094 1926 1142 
Q 1914 1190 1888 1235 
Q 2093 1216 2262 1209 
Q 2432 1203 2496 1203 
Q 2566 1203 2608 1212 
Q 2650 1222 2682 1261 
Q 2733 1318 2777 1491 
Q 2822 1664 2860 2006 
Q 2899 2349 2931 2912 
L 2931 2957 
z
M 1971 4915 
L 2112 4998 
Q 2413 4710 2726 4374 
Q 3040 4038 3312 3718 
Q 3584 3398 3757 3155 
L 3616 3040 
Q 3443 3283 3171 3606 
Q 2899 3930 2585 4275 
Q 2272 4621 1971 4915 
z
M 2106 5280 
L 2298 5235 
Q 2003 4582 1510 3936 
Q 1018 3290 397 2797 
Q 378 2816 349 2832 
Q 320 2848 294 2867 
Q 269 2886 243 2899 
Q 666 3219 1024 3616 
Q 1382 4013 1660 4438 
Q 1939 4864 2106 5280 
z
" transform="scale(0.015625)"/>
        <path id="NotoSansSC-Thin-4e1a" d="M 442 102 
L 5978 102 
L 5978 -90 
L 442 -90 
L 442 102 
z
M 2368 5242 
L 2554 5242 
L 2554 -6 
L 2368 -6 
L 2368 5242 
z
M 3866 5229 
L 4051 5229 
L 4051 -26 
L 3866 -26 
L 3866 5229 
z
M 5594 3699 
L 5773 3622 
Q 5613 3290 5411 2909 
Q 5210 2528 4998 2166 
Q 4787 1805 4595 1517 
L 4435 1606 
Q 4627 1888 4841 2256 
Q 5056 2624 5254 3005 
Q 5453 3386 5594 3699 
z
M 640 3667 
L 826 3725 
Q 1018 3392 1206 3011 
Q 1395 2630 1558 2275 
Q 1722 1920 1811 1664 
L 1619 1581 
Q 1536 1843 1376 2204 
Q 1216 2566 1024 2953 
Q 832 3341 640 3667 
z
" transform="scale(0.015625)"/>
        <path id="NotoSansSC-Thin-677f" d="M 442 4038 
L 2477 4038 
L 2477 3853 
L 442 3853 
L 442 4038 
z
M 1446 5318 
L 1632 5318 
L 1632 -435 
L 1446 -435 
L 1446 5318 
z
M 1434 3987 
L 1600 3942 
Q 1517 3558 1389 3145 
Q 1261 2733 1104 2333 
Q 947 1933 774 1590 
Q 602 1248 429 1011 
Q 416 1037 390 1065 
Q 365 1094 336 1120 
Q 307 1146 282 1158 
Q 454 1382 624 1708 
Q 794 2035 950 2419 
Q 1107 2803 1232 3206 
Q 1357 3610 1434 3987 
z
M 1594 3610 
Q 1645 3546 1757 3382 
Q 1869 3219 1993 3024 
Q 2118 2829 2227 2665 
Q 2336 2502 2381 2426 
L 2240 2259 
Q 2189 2355 2086 2534 
Q 1984 2714 1865 2912 
Q 1747 3110 1641 3273 
Q 1536 3437 1478 3514 
L 1594 3610 
z
M 2784 4602 
L 2976 4602 
L 2976 3002 
Q 2976 2618 2947 2176 
Q 2918 1734 2835 1273 
Q 2752 813 2592 371 
Q 2432 -70 2163 -448 
Q 2144 -429 2115 -409 
Q 2086 -390 2060 -371 
Q 2035 -352 2010 -346 
Q 2272 32 2429 457 
Q 2586 883 2662 1331 
Q 2739 1779 2761 2208 
Q 2784 2637 2784 3008 
L 2784 4602 
z
M 2893 3302 
L 5574 3302 
L 5574 3110 
L 2893 3110 
L 2893 3302 
z
M 5517 3302 
L 5555 3302 
L 5587 3315 
L 5709 3264 
Q 5498 2266 5069 1533 
Q 4640 800 4070 313 
Q 3501 -173 2867 -448 
Q 2854 -422 2832 -396 
Q 2810 -371 2787 -342 
Q 2765 -314 2739 -294 
Q 3354 -38 3914 432 
Q 4474 902 4896 1606 
Q 5318 2310 5517 3251 
L 5517 3302 
z
M 3501 3226 
Q 3706 2419 4064 1712 
Q 4422 1005 4934 486 
Q 5446 -32 6106 -288 
Q 6080 -307 6054 -336 
Q 6029 -365 6003 -393 
Q 5978 -422 5958 -448 
Q 5299 -166 4787 368 
Q 4275 902 3916 1622 
Q 3558 2342 3347 3181 
L 3501 3226 
z
M 5670 5114 
L 5798 4960 
Q 5555 4851 5203 4768 
Q 4851 4685 4448 4621 
Q 4045 4557 3632 4512 
Q 3219 4467 2842 4435 
Q 2835 4474 2819 4522 
Q 2803 4570 2784 4602 
Q 3149 4634 3558 4678 
Q 3968 4723 4368 4787 
Q 4768 4851 5107 4931 
Q 5446 5011 5670 5114 
z
" transform="scale(0.015625)"/>
       </defs>
       <use xlink:href="#NotoSansSC-Thin-521b"/>
       <use xlink:href="#NotoSansSC-Thin-4e1a" transform="translate(99.999985 0)"/>
       <use xlink:href="#NotoSansSC-Thin-677f" transform="translate(199.999969 0)"/>
       <use xlink:href="#NotoSansSC-Thin-6307" transform="translate(299.999954 0)"/>
      </g>
     </g>
    </g>
    <g id="ytick_4">
     <g id="line2d_23">
      <path d="M 50.3 131.818425 
L 365.12 131.818425 
" clip-path="url(#pab768d7418)" style="fill: none; stroke: #e2e8f0; stroke-opacity: 0.6; stroke-width: 0.5; stroke-linecap: square"/>
     </g>
     <g id="line2d_24"/>
     <g id="text_13">
      <!-- 科创综指 -->
      <g style="fill: #94a3b8" transform="translate(10.8 135.391706) scale(0.09 -0.09)">
       <defs>
        <path id="NotoSansSC-Thin-79d1" d="M 1536 4851 
L 1728 4851 
L 1728 -429 
L 1536 -429 
L 1536 4851 
z
M 346 3507 
L 2778 3507 
L 2778 3322 
L 346 3322 
L 346 3507 
z
M 1542 3450 
L 1696 3392 
Q 1594 3059 1443 2700 
Q 1293 2342 1113 1996 
Q 934 1651 745 1353 
Q 557 1056 371 851 
Q 352 883 310 928 
Q 269 973 237 998 
Q 416 1190 605 1472 
Q 794 1754 973 2086 
Q 1152 2419 1299 2771 
Q 1446 3123 1542 3450 
z
M 2438 5197 
L 2598 5050 
Q 2342 4941 1984 4841 
Q 1626 4742 1235 4665 
Q 845 4589 486 4531 
Q 480 4563 457 4608 
Q 435 4653 416 4685 
Q 774 4749 1158 4825 
Q 1542 4902 1881 4998 
Q 2221 5094 2438 5197 
z
M 1690 3187 
Q 1754 3110 1894 2928 
Q 2035 2746 2195 2531 
Q 2355 2317 2489 2128 
Q 2624 1939 2682 1856 
L 2534 1709 
Q 2477 1818 2349 2013 
Q 2221 2208 2067 2425 
Q 1914 2643 1779 2825 
Q 1645 3008 1574 3091 
L 1690 3187 
z
M 5030 5318 
L 5222 5318 
L 5222 -435 
L 5030 -435 
L 5030 5318 
z
M 2733 1114 
L 6086 1613 
L 6118 1446 
L 2758 934 
L 2733 1114 
z
M 3354 4685 
L 3469 4813 
Q 3680 4704 3891 4557 
Q 4102 4410 4284 4259 
Q 4467 4109 4582 3974 
L 4454 3834 
Q 4346 3962 4163 4115 
Q 3981 4269 3769 4419 
Q 3558 4570 3354 4685 
z
M 3078 3034 
L 3194 3155 
Q 3424 3040 3664 2883 
Q 3904 2726 4109 2566 
Q 4314 2406 4442 2272 
L 4326 2131 
Q 4198 2272 3990 2435 
Q 3782 2598 3545 2755 
Q 3309 2912 3078 3034 
z
" transform="scale(0.015625)"/>
        <path id="NotoSansSC-Thin-7efc" d="M 3187 3373 
L 5421 3373 
L 5421 3187 
L 3187 3187 
L 3187 3373 
z
M 2547 2189 
L 5965 2189 
L 5965 2003 
L 2547 2003 
L 2547 2189 
z
M 2694 4467 
L 5926 4467 
L 5926 3546 
L 5741 3546 
L 5741 4282 
L 2880 4282 
L 2880 3546 
L 2694 3546 
L 2694 4467 
z
M 4179 2093 
L 4365 2093 
L 4365 -154 
Q 4365 -262 4333 -313 
Q 4301 -365 4218 -397 
Q 4128 -422 3949 -425 
Q 3770 -429 3456 -422 
Q 3450 -390 3424 -342 
Q 3398 -294 3373 -256 
Q 3635 -262 3824 -262 
Q 4013 -262 4070 -256 
Q 4179 -250 4179 -160 
L 4179 2093 
z
M 3264 1440 
L 3443 1382 
Q 3302 1133 3129 880 
Q 2957 627 2771 393 
Q 2586 160 2406 -26 
Q 2394 -6 2365 19 
Q 2336 45 2307 70 
Q 2278 96 2253 115 
Q 2528 378 2800 733 
Q 3072 1088 3264 1440 
z
M 5037 1363 
L 5210 1453 
Q 5382 1248 5555 1005 
Q 5728 762 5875 534 
Q 6022 307 6112 134 
L 5933 19 
Q 5843 198 5696 428 
Q 5549 659 5379 905 
Q 5210 1152 5037 1363 
z
M 3930 5254 
L 4102 5318 
Q 4243 5107 4374 4854 
Q 4506 4602 4570 4422 
L 4378 4346 
Q 4314 4531 4186 4787 
Q 4058 5043 3930 5254 
z
M 461 1248 
Q 461 1274 448 1312 
Q 435 1350 422 1388 
Q 410 1427 390 1453 
Q 480 1466 595 1584 
Q 710 1702 851 1882 
Q 928 1971 1088 2176 
Q 1248 2381 1443 2659 
Q 1638 2938 1843 3261 
Q 2048 3584 2221 3910 
L 2400 3821 
Q 1990 3142 1539 2499 
Q 1088 1856 634 1382 
L 634 1376 
Q 634 1376 608 1366 
Q 582 1357 547 1337 
Q 512 1318 486 1296 
Q 461 1274 461 1248 
z
M 461 1248 
L 461 1414 
L 602 1510 
L 2323 1843 
Q 2323 1811 2326 1766 
Q 2330 1722 2336 1690 
Q 1734 1562 1372 1485 
Q 1011 1408 828 1363 
Q 646 1318 572 1292 
Q 499 1267 461 1248 
z
M 416 2765 
Q 416 2790 403 2828 
Q 390 2867 377 2905 
Q 365 2944 352 2970 
Q 422 2982 499 3097 
Q 576 3213 678 3379 
Q 736 3469 841 3661 
Q 947 3853 1075 4115 
Q 1203 4378 1331 4678 
Q 1459 4979 1555 5274 
L 1741 5203 
Q 1581 4787 1392 4371 
Q 1203 3955 998 3580 
Q 794 3206 582 2906 
L 582 2899 
Q 582 2899 556 2886 
Q 531 2874 499 2854 
Q 467 2835 441 2812 
Q 416 2790 416 2765 
z
M 416 2765 
L 416 2931 
L 557 3014 
L 1818 3174 
Q 1811 3136 1814 3088 
Q 1818 3040 1824 3014 
Q 1382 2950 1116 2908 
Q 851 2867 710 2841 
Q 570 2816 509 2800 
Q 448 2784 416 2765 
z
M 365 243 
Q 742 326 1270 451 
Q 1798 576 2362 710 
L 2374 531 
Q 1843 410 1324 285 
Q 806 160 410 58 
L 365 243 
z
" transform="scale(0.015625)"/>
       </defs>
       <use xlink:href="#NotoSansSC-Thin-79d1"/>
       <use xlink:href="#NotoSansSC-Thin-521b" transform="translate(99.999985 0)"/>
       <use xlink:href="#NotoSansSC-Thin-7efc" transform="translate(199.999969 0)"/>
       <use xlink:href="#NotoSansSC-Thin-6307" transform="translate(299.999954 0)"/>
      </g>
     </g>
    </g>
    <g id="ytick_5">
     <g id="line2d_25">
      <path d="M 50.3 96.046413 
L 365.12 96.046413 
" clip-path="url(#pab768d7418)" style="fill: none; stroke: #e2e8f0; stroke-opacity: 0.6; stroke-width: 0.5; stroke-linecap: square"/>
     </g>
     <g id="line2d_26"/>
     <g id="text_14">
      <!-- 科创50 -->
      <g style="fill: #94a3b8" transform="translate(19.423125 99.619694) scale(0.09 -0.09)">
       <use xlink:href="#NotoSansSC-Thin-79d1"/>
       <use xlink:href="#NotoSansSC-Thin-521b" transform="translate(99.999985 0)"/>
       <use xlink:href="#NotoSansSC-Thin-35" transform="translate(199.999969 0)"/>
       <use xlink:href="#NotoSansSC-Thin-30" transform="translate(252.09996 0)"/>
      </g>
     </g>
    </g>
   </g>
   <g id="line2d_27">
    <path d="M 230.197143 255.142437 
L 230.197143 80.038437 
" clip-path="url(#pab768d7418)" style="fill: none; stroke: #334155; stroke-width: 0.8; stroke-linecap: square"/>
    <defs>
     <path id="mac7dab9159" d="M 0 3 
C 0.795609 3 1.55874 2.683901 2.12132 2.12132 
C 2.683901 1.55874 3 0.795609 3 0 
C 3 -0.795609 2.683901 -1.55874 2.12132 -2.12132 
C 1.55874 -2.683901 0.795609 -3 0 -3 
C -0.795609 -3 -1.55874 -2.683901 -2.12132 -2.12132 
C -2.683901 -1.55874 -3 -0.795609 -3 0 
C -3 0.795609 -2.683901 1.55874 -2.12132 2.12132 
C -1.55874 2.683901 -0.795609 3 0 3 
z
" style="stroke: #334155; stroke-width: 1.5"/>
    </defs>
    <g clip-path="url(#pab768d7418)">
     <use xlink:href="#mac7dab9159" x="230.197143" y="255.142437" style="fill: #334155; stroke: #334155; stroke-width: 1.5"/>
     <use xlink:href="#mac7dab9159" x="230.197143" y="80.038437" style="fill: #334155; stroke: #334155; stroke-width: 1.5"/>
    </g>
   </g>
   <g id="patch_3">
    <path d="M 230.197143 247.183165 
L 214.905886 247.183165 
L 214.905886 231.085759 
L 230.197143 231.085759 
z
" clip-path="url(#pab768d7418)" style="fill: #16a34a; stroke: #ffffff; stroke-width: 1.5; stroke-linejoin: miter"/>
   </g>
   <g id="patch_4">
    <path d="M 230.197143 211.411153 
L 240.990971 211.411153 
L 240.990971 195.313747 
L 230.197143 195.313747 
z
" clip-path="url(#pab768d7418)" style="fill: #dc2626; stroke: #ffffff; stroke-width: 1.5; stroke-linejoin: miter"/>
   </g>
   <g id="patch_5">
    <path d="M 230.197143 175.63914 
L 278.769371 175.63914 
L 278.769371 159.541735 
L 230.197143 159.541735 
z
" clip-path="url(#pab768d7418)" style="fill: #dc2626; stroke: #ffffff; stroke-width: 1.5; stroke-linejoin: miter"/>
   </g>
   <g id="patch_6">
    <path d="M 230.197143 139.867128 
L 102.470171 139.867128 
L 102.470171 123.769722 
L 230.197143 123.769722 
z
" clip-path="url(#pab768d7418)" style="fill: #16a34a; stroke: #ffffff; stroke-width: 1.5; stroke-linejoin: miter"/>
   </g>
   <g id="patch_7">
    <path d="M 230.197143 104.095116 
L 96.173771 104.095116 
L 96.173771 87.99771 
L 230.197143 87.99771 
z
" clip-path="url(#pab768d7418)" style="fill: #16a34a; stroke: #ffffff; stroke-width: 1.5; stroke-linejoin: miter"/>
   </g>
   <g id="text_15">
    <!-- -0.17% -->
    <g style="fill: #ffffff" transform="translate(184.32763 241.614384) scale(0.09 -0.09)">
     <defs>
      <path id="NotoSansSC-Thin-37" d="M 1344 0 
Q 1376 717 1462 1318 
Q 1549 1920 1712 2445 
Q 1875 2970 2124 3459 
Q 2374 3949 2726 4435 
L 307 4435 
L 307 4646 
L 3034 4646 
L 3034 4512 
Q 2624 3955 2355 3436 
Q 2086 2918 1932 2384 
Q 1779 1850 1705 1267 
Q 1632 685 1606 0 
L 1344 0 
z
" transform="scale(0.015625)"/>
     </defs>
     <use xlink:href="#NotoSansSC-Thin-2d"/>
     <use xlink:href="#NotoSansSC-Thin-30" transform="translate(32.399994 0)"/>
     <use xlink:href="#NotoSansSC-Thin-2e" transform="translate(84.499985 0)"/>
     <use xlink:href="#NotoSansSC-Thin-31" transform="translate(107.599976 0)"/>
     <use xlink:href="#NotoSansSC-Thin-37" transform="translate(159.699966 0)"/>
     <use xlink:href="#NotoSansSC-Thin-25" transform="translate(211.799957 0)"/>
    </g>
   </g>
   <g id="text_16">
    <!-- +0.12% -->
    <g style="fill: #dc2626" transform="translate(244.588914 205.842372) scale(0.09 -0.09)">
     <defs>
      <path id="NotoSansSC-Thin-2b" d="M 1549 787 
L 1549 2221 
L 237 2221 
L 237 2426 
L 1549 2426 
L 1549 3866 
L 1786 3866 
L 1786 2426 
L 3098 2426 
L 3098 2221 
L 1786 2221 
L 1786 787 
L 1549 787 
z
" transform="scale(0.015625)"/>
     </defs>
     <use xlink:href="#NotoSansSC-Thin-2b"/>
     <use xlink:href="#NotoSansSC-Thin-30" transform="translate(52.099991 0)"/>
     <use xlink:href="#NotoSansSC-Thin-2e" transform="translate(104.199982 0)"/>
     <use xlink:href="#NotoSansSC-Thin-31" transform="translate(127.299973 0)"/>
     <use xlink:href="#NotoSansSC-Thin-32" transform="translate(179.399963 0)"/>
     <use xlink:href="#NotoSansSC-Thin-25" transform="translate(231.499954 0)"/>
    </g>
   </g>
   <g id="text_17">
    <!-- +0.54% -->
    <g style="fill: #dc2626" transform="translate(282.367314 170.070359) scale(0.09 -0.09)">
     <defs>
      <path id="NotoSansSC-Thin-34" d="M 2195 0 
L 2195 3482 
Q 2195 3629 2204 3843 
Q 2214 4058 2227 4205 
L 2195 4205 
Q 2112 4058 2019 3901 
Q 1926 3744 1830 3590 
L 422 1568 
L 3110 1568 
L 3110 1363 
L 115 1363 
L 115 1485 
L 2259 4646 
L 2419 4646 
L 2419 0 
L 2195 0 
z
" transform="scale(0.015625)"/>
     </defs>
     <use xlink:href="#NotoSansSC-Thin-2b"/>
     <use xlink:href="#NotoSansSC-Thin-30" transform="translate(52.099991 0)"/>
     <use xlink:href="#NotoSansSC-Thin-2e" transform="translate(104.199982 0)"/>
     <use xlink:href="#NotoSansSC-Thin-35" transform="translate(127.299973 0)"/>
     <use xlink:href="#NotoSansSC-Thin-34" transform="translate(179.399963 0)"/>
     <use xlink:href="#NotoSansSC-Thin-25" transform="translate(231.499954 0)"/>
    </g>
   </g>
   <g id="text_18">
    <!-- -1.42% -->
    <g style="fill: #ffffff" transform="translate(71.891916 134.298347) scale(0.09 -0.09)">
     <use xlink:href="#NotoSansSC-Thin-2d"/>
     <use xlink:href="#NotoSansSC-Thin-31" transform="translate(32.399994 0)"/>
     <use xlink:href="#NotoSansSC-Thin-2e" transform="translate(84.499985 0)"/>
     <use xlink:href="#NotoSansSC-Thin-34" transform="translate(107.599976 0)"/>
     <use xlink:href="#NotoSansSC-Thin-32" transform="translate(159.699966 0)"/>
     <use xlink:href="#NotoSansSC-Thin-25" transform="translate(211.799957 0)"/>
    </g>
   </g>
   <g id="text_19">
    <!-- -1.49% -->
    <g style="fill: #ffffff" transform="translate(65.595516 98.526335) scale(0.09 -0.09)">
     <defs>
      <path id="NotoSansSC-Thin-39" d="M 1370 -83 
Q 1050 -83 819 32 
Q 589 147 410 339 
L 557 506 
Q 723 314 934 221 
Q 1146 128 1389 128 
Q 1651 128 1891 256 
Q 2131 384 2316 675 
Q 2502 966 2611 1443 
Q 2720 1920 2720 2618 
Q 2720 3168 2592 3600 
Q 2464 4032 2195 4278 
Q 1926 4525 1498 4525 
Q 1229 4525 1014 4355 
Q 800 4186 675 3901 
Q 550 3616 550 3264 
Q 550 2912 652 2627 
Q 755 2342 979 2172 
Q 1203 2003 1555 2003 
Q 1830 2003 2137 2182 
Q 2445 2362 2739 2765 
L 2746 2470 
Q 2586 2278 2397 2128 
Q 2208 1978 1993 1891 
Q 1779 1805 1536 1805 
Q 1152 1805 877 1974 
Q 602 2144 454 2470 
Q 307 2797 307 3264 
Q 307 3686 473 4019 
Q 640 4352 912 4541 
Q 1184 4730 1510 4730 
Q 1850 4730 2118 4589 
Q 2387 4448 2572 4176 
Q 2758 3904 2857 3513 
Q 2957 3123 2957 2618 
Q 2957 1862 2825 1344 
Q 2694 826 2470 512 
Q 2246 198 1961 57 
Q 1677 -83 1370 -83 
z
" transform="scale(0.015625)"/>
     </defs>
     <use xlink:href="#NotoSansSC-Thin-2d"/>
     <use xlink:href="#NotoSansSC-Thin-31" transform="translate(32.399994 0)"/>
     <use xlink:href="#NotoSansSC-Thin-2e" transform="translate(84.499985 0)"/>
     <use xlink:href="#NotoSansSC-Thin-34" transform="translate(107.599976 0)"/>
     <use xlink:href="#NotoSansSC-Thin-39" transform="translate(159.699966 0)"/>
     <use xlink:href="#NotoSansSC-Thin-25" transform="translate(211.799957 0)"/>
    </g>
   </g>
  </g>
  <g id="text_20">
   <!-- A股主要指数涨跌幅 -->
   <g style="fill: #1e293b" transform="translate(50.3 21.916875) scale(0.14 -0.14)">
    <defs>
     <path id="NotoSansSC-Thin-41" d="M 70 0 
L 1728 4646 
L 1939 4646 
L 3603 0 
L 3347 0 
L 2381 2784 
Q 2234 3206 2106 3587 
Q 1978 3968 1850 4403 
L 1824 4403 
Q 1696 3968 1565 3587 
Q 1434 3206 1286 2784 
L 307 0 
L 70 0 
z
M 787 1651 
L 787 1856 
L 2861 1856 
L 2861 1651 
L 787 1651 
z
" transform="scale(0.015625)"/>
     <path id="NotoSansSC-Thin-80a1" d="M 954 5069 
L 2259 5069 
L 2259 4883 
L 954 4883 
L 954 5069 
z
M 954 3526 
L 2259 3526 
L 2259 3341 
L 954 3341 
L 954 3526 
z
M 934 1946 
L 2266 1946 
L 2266 1760 
L 934 1760 
L 934 1946 
z
M 832 5069 
L 1018 5069 
L 1018 2797 
Q 1018 2432 998 2013 
Q 979 1594 921 1158 
Q 864 723 745 310 
Q 627 -102 435 -454 
Q 422 -435 390 -416 
Q 358 -397 329 -381 
Q 301 -365 275 -352 
Q 467 -6 579 394 
Q 691 794 745 1210 
Q 800 1626 816 2032 
Q 832 2438 832 2797 
L 832 5069 
z
M 2214 5069 
L 2400 5069 
L 2400 -90 
Q 2400 -211 2355 -272 
Q 2310 -333 2221 -365 
Q 2131 -390 1942 -393 
Q 1754 -397 1427 -397 
Q 1421 -371 1405 -339 
Q 1389 -307 1376 -272 
Q 1363 -237 1344 -211 
Q 1619 -218 1824 -218 
Q 2029 -218 2093 -218 
Q 2214 -211 2214 -90 
L 2214 5069 
z
M 3430 5056 
L 5043 5056 
L 5043 4870 
L 3430 4870 
L 3430 5056 
z
M 2694 2438 
L 5523 2438 
L 5523 2253 
L 2694 2253 
L 2694 2438 
z
M 5453 2438 
L 5498 2438 
L 5536 2451 
L 5651 2394 
Q 5459 1824 5129 1363 
Q 4800 902 4384 547 
Q 3968 192 3504 -57 
Q 3040 -307 2579 -461 
Q 2560 -422 2525 -374 
Q 2490 -326 2458 -294 
Q 2912 -160 3366 80 
Q 3821 320 4230 659 
Q 4640 998 4957 1436 
Q 5274 1875 5453 2400 
L 5453 2438 
z
M 3181 2349 
Q 3418 1696 3834 1158 
Q 4250 621 4822 246 
Q 5395 -128 6099 -307 
Q 6080 -326 6054 -355 
Q 6029 -384 6006 -413 
Q 5984 -442 5965 -474 
Q 4909 -179 4147 544 
Q 3386 1267 3021 2291 
L 3181 2349 
z
M 3386 5056 
L 3578 5056 
L 3578 4339 
Q 3578 4077 3507 3782 
Q 3437 3488 3248 3203 
Q 3059 2918 2701 2682 
Q 2688 2701 2665 2726 
Q 2643 2752 2617 2781 
Q 2592 2810 2573 2822 
Q 2912 3046 3088 3305 
Q 3264 3565 3325 3833 
Q 3386 4102 3386 4339 
L 3386 5056 
z
M 4947 5056 
L 5139 5056 
L 5139 3488 
Q 5139 3354 5158 3309 
Q 5178 3264 5242 3264 
Q 5286 3264 5395 3264 
Q 5504 3264 5613 3264 
Q 5722 3264 5760 3264 
Q 5811 3264 5878 3270 
Q 5946 3277 6003 3283 
Q 6010 3245 6016 3184 
Q 6022 3123 6029 3091 
Q 5984 3085 5910 3078 
Q 5837 3072 5760 3072 
Q 5722 3072 5610 3072 
Q 5498 3072 5389 3072 
Q 5280 3072 5248 3072 
Q 5126 3072 5062 3107 
Q 4998 3142 4972 3235 
Q 4947 3328 4947 3494 
L 4947 5056 
z
" transform="scale(0.015625)"/>
     <path id="NotoSansSC-Thin-4e3b" d="M 710 3968 
L 5709 3968 
L 5709 3776 
L 710 3776 
L 710 3968 
z
M 960 2074 
L 5485 2074 
L 5485 1882 
L 960 1882 
L 960 2074 
z
M 390 -32 
L 6042 -32 
L 6042 -218 
L 390 -218 
L 390 -32 
z
M 3098 3866 
L 3290 3866 
L 3290 -115 
L 3098 -115 
L 3098 3866 
z
M 2573 5165 
L 2720 5254 
Q 2931 5094 3148 4899 
Q 3366 4704 3552 4512 
Q 3738 4320 3853 4166 
L 3699 4058 
Q 3590 4211 3404 4406 
Q 3219 4602 3001 4803 
Q 2784 5005 2573 5165 
z
" transform="scale(0.015625)"/>
     <path id="NotoSansSC-Thin-8981" d="M 403 1792 
L 5997 1792 
L 5997 1606 
L 403 1606 
L 403 1792 
z
M 499 4986 
L 5920 4986 
L 5920 4800 
L 499 4800 
L 499 4986 
z
M 4608 1734 
L 4774 1658 
Q 4576 1184 4211 825 
Q 3846 467 3308 214 
Q 2771 -38 2060 -195 
Q 1350 -352 474 -422 
Q 461 -384 435 -333 
Q 410 -282 378 -243 
Q 1549 -160 2393 73 
Q 3238 307 3785 716 
Q 4333 1126 4608 1734 
z
M 1280 640 
L 1446 787 
Q 2080 685 2701 560 
Q 3322 435 3898 291 
Q 4474 147 4973 -9 
Q 5472 -166 5862 -320 
L 5664 -467 
Q 5171 -262 4483 -64 
Q 3795 134 2979 313 
Q 2163 493 1280 640 
z
M 2310 4928 
L 2496 4928 
L 2496 2643 
L 2310 2643 
L 2310 4928 
z
M 3846 4928 
L 4032 4928 
L 4032 2643 
L 3846 2643 
L 3846 4928 
z
M 1030 3885 
L 1030 2746 
L 5402 2746 
L 5402 3885 
L 1030 3885 
z
M 845 4070 
L 5587 4070 
L 5587 2560 
L 845 2560 
L 845 4070 
z
M 1280 640 
Q 1504 890 1757 1216 
Q 2010 1542 2240 1891 
Q 2470 2240 2630 2547 
L 2810 2496 
Q 2650 2182 2419 1836 
Q 2189 1491 1945 1177 
Q 1702 864 1504 640 
L 1280 640 
z
" transform="scale(0.015625)"/>
    </defs>
    <use xlink:href="#NotoSansSC-Thin-41"/>
    <use xlink:href="#NotoSansSC-Thin-80a1" transform="translate(57.399994 0)"/>
    <use xlink:href="#NotoSansSC-Thin-4e3b" transform="translate(157.399979 0)"/>
    <use xlink:href="#NotoSansSC-Thin-8981" transform="translate(257.399963 0)"/>
    <use xlink:href="#NotoSansSC-Thin-6307" transform="translate(357.399948 0)"/>
    <use xlink:href="#NotoSansSC-Thin-6570" transform="translate(457.399933 0)"/>
    <use xlink:href="#NotoSansSC-Thin-6da8" transform="translate(557.399918 0)"/>
    <use xlink:href="#NotoSansSC-Thin-8dcc" transform="translate(657.399902 0)"/>
    <use xlink:href="#NotoSansSC-Thin-5e45" transform="translate(757.399887 0)"/>
   </g>
  </g>
  <g id="text_21">
   <!-- 2026年5月26日 · 红涨绿跌 -->
   <g style="fill: #64748b" transform="translate(50.3 43.409) scale(0.09 -0.09)">
    <defs>
     <path id="NotoSansSC-Thin-36" d="M 1837 -83 
Q 1498 -83 1232 67 
Q 966 218 780 509 
Q 595 800 496 1216 
Q 397 1632 397 2170 
Q 397 2886 528 3379 
Q 659 3872 889 4169 
Q 1120 4467 1414 4598 
Q 1709 4730 2029 4730 
Q 2330 4730 2550 4614 
Q 2771 4499 2944 4307 
L 2790 4147 
Q 2643 4333 2444 4425 
Q 2246 4518 2022 4518 
Q 1651 4518 1334 4297 
Q 1018 4077 826 3561 
Q 634 3046 634 2170 
Q 634 1581 762 1120 
Q 890 659 1158 393 
Q 1427 128 1850 128 
Q 2125 128 2336 297 
Q 2547 467 2672 752 
Q 2797 1037 2797 1382 
Q 2797 1741 2694 2025 
Q 2592 2310 2368 2476 
Q 2144 2643 1779 2643 
Q 1523 2643 1209 2470 
Q 896 2298 602 1888 
L 602 2176 
Q 768 2381 957 2531 
Q 1146 2682 1360 2762 
Q 1574 2842 1792 2842 
Q 2189 2842 2467 2675 
Q 2746 2509 2893 2185 
Q 3040 1862 3040 1382 
Q 3040 960 2873 630 
Q 2707 301 2435 109 
Q 2163 -83 1837 -83 
z
" transform="scale(0.015625)"/>
     <path id="NotoSansSC-Thin-5e74" d="M 1958 5338 
L 2144 5286 
Q 1958 4819 1712 4384 
Q 1466 3949 1178 3577 
Q 890 3206 576 2918 
Q 557 2931 528 2953 
Q 499 2976 467 2998 
Q 435 3021 403 3034 
Q 730 3315 1018 3676 
Q 1306 4038 1546 4464 
Q 1786 4890 1958 5338 
z
M 1626 4474 
L 5811 4474 
L 5811 4288 
L 1530 4288 
L 1626 4474 
z
M 1453 3085 
L 5670 3085 
L 5670 2899 
L 1638 2899 
L 1638 1216 
L 1453 1216 
L 1453 3085 
z
M 352 1318 
L 6061 1318 
L 6061 1133 
L 352 1133 
L 352 1318 
z
M 3405 4371 
L 3597 4371 
L 3597 -454 
L 3405 -454 
L 3405 4371 
z
" transform="scale(0.015625)"/>
     <path id="NotoSansSC-Thin-6708" d="M 1523 4941 
L 4998 4941 
L 4998 4755 
L 1523 4755 
L 1523 4941 
z
M 1517 3386 
L 5024 3386 
L 5024 3200 
L 1517 3200 
L 1517 3386 
z
M 1446 1811 
L 5005 1811 
L 5005 1626 
L 1446 1626 
L 1446 1811 
z
M 1453 4941 
L 1638 4941 
L 1638 3110 
Q 1638 2694 1596 2230 
Q 1555 1766 1427 1289 
Q 1299 813 1046 365 
Q 794 -83 371 -461 
Q 358 -435 336 -409 
Q 314 -384 288 -358 
Q 262 -333 237 -320 
Q 646 51 889 480 
Q 1133 909 1254 1360 
Q 1376 1811 1414 2259 
Q 1453 2707 1453 3110 
L 1453 4941 
z
M 4934 4941 
L 5126 4941 
L 5126 -6 
Q 5126 -179 5065 -259 
Q 5005 -339 4864 -371 
Q 4723 -397 4409 -403 
Q 4096 -410 3565 -410 
Q 3558 -378 3542 -342 
Q 3526 -307 3510 -272 
Q 3494 -237 3475 -205 
Q 3782 -211 4041 -211 
Q 4301 -211 4483 -208 
Q 4666 -205 4736 -205 
Q 4851 -198 4892 -156 
Q 4934 -115 4934 -6 
L 4934 4941 
z
" transform="scale(0.015625)"/>
     <path id="NotoSansSC-Thin-65e5" d="M 1274 4832 
L 5197 4832 
L 5197 -333 
L 5005 -333 
L 5005 4640 
L 1466 4640 
L 1466 -384 
L 1274 -384 
L 1274 4832 
z
M 1389 2547 
L 5088 2547 
L 5088 2362 
L 1389 2362 
L 1389 2547 
z
M 1376 218 
L 5107 218 
L 5107 32 
L 1376 32 
L 1376 218 
z
" transform="scale(0.015625)"/>
     <path id="NotoSansSC-Thin-b7" d="M 3200 2976 
Q 3354 2976 3475 2902 
Q 3597 2829 3670 2707 
Q 3744 2586 3744 2432 
Q 3744 2285 3670 2160 
Q 3597 2035 3475 1961 
Q 3354 1888 3200 1888 
Q 3053 1888 2928 1961 
Q 2803 2035 2729 2160 
Q 2656 2285 2656 2432 
Q 2656 2586 2729 2707 
Q 2803 2829 2928 2902 
Q 3053 2976 3200 2976 
z
" transform="scale(0.015625)"/>
     <path id="NotoSansSC-Thin-7ea2" d="M 422 1267 
Q 416 1293 403 1331 
Q 390 1370 377 1408 
Q 365 1446 352 1472 
Q 442 1485 563 1603 
Q 685 1722 845 1901 
Q 928 1984 1097 2182 
Q 1267 2381 1481 2656 
Q 1696 2931 1920 3248 
Q 2144 3565 2342 3891 
L 2522 3795 
Q 2074 3117 1584 2493 
Q 1094 1869 602 1402 
L 602 1395 
Q 602 1395 576 1385 
Q 550 1376 512 1357 
Q 474 1338 448 1315 
Q 422 1293 422 1267 
z
M 422 1267 
L 422 1440 
L 576 1536 
L 2534 1811 
Q 2528 1779 2531 1724 
Q 2534 1670 2541 1638 
Q 1856 1536 1449 1472 
Q 1043 1408 835 1369 
Q 627 1331 544 1308 
Q 461 1286 422 1267 
z
M 384 2784 
Q 378 2810 365 2851 
Q 352 2893 339 2934 
Q 326 2976 314 3002 
Q 390 3014 486 3126 
Q 582 3238 704 3405 
Q 768 3488 896 3680 
Q 1024 3872 1181 4131 
Q 1338 4390 1501 4688 
Q 1664 4986 1792 5286 
L 1990 5203 
Q 1779 4781 1545 4371 
Q 1312 3962 1065 3594 
Q 819 3226 563 2925 
L 563 2925 
Q 563 2925 537 2912 
Q 512 2899 473 2876 
Q 435 2854 409 2832 
Q 384 2810 384 2784 
z
M 384 2784 
L 384 2957 
L 538 3040 
L 1907 3187 
Q 1901 3142 1904 3091 
Q 1907 3040 1907 3014 
Q 1427 2957 1139 2918 
Q 851 2880 700 2857 
Q 550 2835 483 2819 
Q 416 2803 384 2784 
z
M 320 205 
Q 602 256 966 326 
Q 1331 397 1747 480 
Q 2163 563 2586 646 
L 2598 467 
Q 1990 346 1398 224 
Q 806 102 365 6 
L 320 205 
z
M 2707 4646 
L 5952 4646 
L 5952 4461 
L 2707 4461 
L 2707 4646 
z
M 2643 192 
L 6093 192 
L 6093 0 
L 2643 0 
L 2643 192 
z
M 4256 4595 
L 4448 4595 
L 4448 77 
L 4256 77 
L 4256 4595 
z
" transform="scale(0.015625)"/>
     <path id="NotoSansSC-Thin-7eff" d="M 5818 2477 
L 5971 2368 
Q 5702 2093 5350 1795 
Q 4998 1498 4698 1293 
L 4576 1402 
Q 4768 1542 4998 1728 
Q 5229 1914 5446 2112 
Q 5664 2310 5818 2477 
z
M 2746 2374 
L 2893 2477 
Q 3066 2349 3238 2182 
Q 3411 2016 3555 1856 
Q 3699 1696 3782 1562 
L 3642 1440 
Q 3514 1645 3261 1907 
Q 3008 2170 2746 2374 
z
M 3002 4058 
L 5402 4058 
L 5402 3872 
L 3002 3872 
L 3002 4058 
z
M 2618 3059 
L 6067 3059 
L 6067 2874 
L 2618 2874 
L 2618 3059 
z
M 4224 2899 
L 4410 2899 
L 4410 -141 
Q 4410 -256 4378 -310 
Q 4346 -365 4262 -397 
Q 4179 -416 4009 -422 
Q 3840 -429 3571 -429 
Q 3565 -390 3542 -336 
Q 3520 -282 3494 -237 
Q 3731 -243 3897 -243 
Q 4064 -243 4128 -243 
Q 4224 -237 4224 -147 
L 4224 2899 
z
M 2445 269 
Q 2682 416 2989 614 
Q 3296 813 3635 1040 
Q 3974 1267 4307 1498 
L 4371 1344 
Q 3904 1011 3430 688 
Q 2957 365 2579 109 
L 2445 269 
z
M 4390 1907 
Q 4544 1536 4809 1200 
Q 5075 864 5414 605 
Q 5754 346 6131 211 
Q 6093 186 6054 144 
Q 6016 102 5990 64 
Q 5619 218 5280 490 
Q 4941 762 4675 1114 
Q 4410 1466 4243 1850 
L 4390 1907 
z
M 2835 4992 
L 5408 4992 
L 5408 4806 
L 2835 4806 
L 2835 4992 
z
M 5357 4986 
L 5376 4986 
L 5414 5005 
L 5549 4986 
Q 5542 4717 5529 4355 
Q 5517 3994 5497 3622 
Q 5478 3251 5453 2938 
L 5261 2950 
Q 5280 3181 5296 3456 
Q 5312 3731 5325 4012 
Q 5338 4294 5347 4537 
Q 5357 4781 5357 4947 
L 5357 4986 
z
M 416 1248 
Q 410 1274 397 1315 
Q 384 1357 371 1398 
Q 358 1440 346 1466 
Q 429 1478 541 1600 
Q 653 1722 794 1901 
Q 870 1990 1020 2195 
Q 1171 2400 1360 2678 
Q 1549 2957 1744 3280 
Q 1939 3603 2106 3930 
L 2298 3834 
Q 1914 3155 1475 2512 
Q 1037 1869 595 1389 
L 595 1382 
Q 595 1382 569 1369 
Q 544 1357 505 1337 
Q 467 1318 441 1296 
Q 416 1274 416 1248 
z
M 416 1248 
L 416 1427 
L 557 1523 
L 2150 1837 
Q 2150 1792 2153 1744 
Q 2157 1696 2163 1664 
Q 1606 1549 1273 1475 
Q 941 1402 768 1360 
Q 595 1318 524 1292 
Q 454 1267 416 1248 
z
M 378 2765 
Q 371 2790 358 2832 
Q 346 2874 333 2918 
Q 320 2963 301 2989 
Q 378 3002 464 3117 
Q 550 3232 653 3398 
Q 710 3488 819 3680 
Q 928 3872 1065 4134 
Q 1203 4397 1337 4697 
Q 1472 4998 1581 5299 
L 1786 5216 
Q 1613 4794 1414 4378 
Q 1216 3962 998 3587 
Q 781 3213 557 2912 
L 557 2906 
Q 557 2906 531 2893 
Q 506 2880 467 2857 
Q 429 2835 403 2812 
Q 378 2790 378 2765 
z
M 378 2765 
L 378 2944 
L 525 3034 
L 1722 3181 
Q 1715 3142 1718 3091 
Q 1722 3040 1728 3008 
Q 1306 2944 1053 2905 
Q 800 2867 665 2841 
Q 531 2816 470 2800 
Q 410 2784 378 2765 
z
M 314 243 
Q 672 320 1165 441 
Q 1658 563 2189 685 
L 2208 506 
Q 1702 384 1219 265 
Q 736 147 358 51 
L 314 243 
z
" transform="scale(0.015625)"/>
    </defs>
    <use xlink:href="#NotoSansSC-Thin-32"/>
    <use xlink:href="#NotoSansSC-Thin-30" transform="translate(52.099991 0)"/>
    <use xlink:href="#NotoSansSC-Thin-32" transform="translate(104.199982 0)"/>
    <use xlink:href="#NotoSansSC-Thin-36" transform="translate(156.299973 0)"/>
    <use xlink:href="#NotoSansSC-Thin-5e74" transform="translate(208.399963 0)"/>
    <use xlink:href="#NotoSansSC-Thin-35" transform="translate(308.399948 0)"/>
    <use xlink:href="#NotoSansSC-Thin-6708" transform="translate(360.499939 0)"/>
    <use xlink:href="#NotoSansSC-Thin-32" transform="translate(460.499924 0)"/>
    <use xlink:href="#NotoSansSC-Thin-36" transform="translate(512.599915 0)"/>
    <use xlink:href="#NotoSansSC-Thin-65e5" transform="translate(564.699905 0)"/>
    <use xlink:href="#NotoSansSC-Thin-20" transform="translate(664.69989 0)"/>
    <use xlink:href="#NotoSansSC-Thin-b7" transform="translate(686.699875 0)"/>
    <use xlink:href="#NotoSansSC-Thin-20" transform="translate(786.69986 0)"/>
    <use xlink:href="#NotoSansSC-Thin-7ea2" transform="translate(808.699844 0)"/>
    <use xlink:href="#NotoSansSC-Thin-6da8" transform="translate(908.699829 0)"/>
    <use xlink:href="#NotoSansSC-Thin-7eff" transform="translate(1008.699814 0)"/>
    <use xlink:href="#NotoSansSC-Thin-8dcc" transform="translate(1108.699799 0)"/>
   </g>
  </g>
  <g id="text_22">
   <!-- 来源: 上交所/深交所 · 2026-05-26 -->
   <g style="fill: #94a3b8" transform="translate(50.3 268.611141) scale(0.065 -0.065)">
    <defs>
     <path id="NotoSansSC-Thin-6765" d="M 397 2432 
L 6016 2432 
L 6016 2246 
L 397 2246 
L 397 2432 
z
M 704 4467 
L 5734 4467 
L 5734 4282 
L 704 4282 
L 704 4467 
z
M 3091 5306 
L 3283 5306 
L 3283 -448 
L 3091 -448 
L 3091 5306 
z
M 4979 4026 
L 5171 3949 
Q 5062 3725 4928 3475 
Q 4794 3226 4656 2995 
Q 4518 2765 4390 2586 
L 4237 2656 
Q 4365 2835 4502 3078 
Q 4640 3322 4768 3574 
Q 4896 3827 4979 4026 
z
M 1312 3923 
L 1478 3981 
Q 1619 3782 1753 3548 
Q 1888 3315 1993 3094 
Q 2099 2874 2144 2701 
L 1971 2624 
Q 1920 2797 1817 3024 
Q 1715 3251 1584 3488 
Q 1453 3725 1312 3923 
z
M 2963 2374 
L 3123 2298 
Q 2893 1926 2579 1571 
Q 2266 1216 1901 896 
Q 1536 576 1161 317 
Q 787 58 429 -115 
Q 416 -90 390 -64 
Q 365 -38 339 -12 
Q 314 13 288 32 
Q 646 192 1024 445 
Q 1402 698 1763 1011 
Q 2125 1325 2435 1673 
Q 2746 2022 2963 2374 
z
M 3411 2381 
Q 3635 2029 3952 1677 
Q 4269 1325 4637 1005 
Q 5005 685 5389 432 
Q 5773 179 6138 13 
Q 6118 -6 6092 -35 
Q 6067 -64 6041 -89 
Q 6016 -115 5997 -141 
Q 5638 32 5254 297 
Q 4870 563 4499 889 
Q 4128 1216 3808 1577 
Q 3488 1939 3258 2304 
L 3411 2381 
z
" transform="scale(0.015625)"/>
     <path id="NotoSansSC-Thin-6e90" d="M 2304 5024 
L 6035 5024 
L 6035 4838 
L 2304 4838 
L 2304 5024 
z
M 2214 5024 
L 2406 5024 
L 2406 3283 
Q 2406 2874 2377 2400 
Q 2349 1926 2262 1436 
Q 2176 947 2006 476 
Q 1837 6 1555 -397 
Q 1542 -378 1513 -358 
Q 1485 -339 1456 -320 
Q 1427 -301 1402 -294 
Q 1677 102 1840 560 
Q 2003 1018 2083 1491 
Q 2163 1965 2188 2422 
Q 2214 2880 2214 3283 
L 2214 5024 
z
M 3110 2765 
L 3110 1990 
L 5542 1990 
L 5542 2765 
L 3110 2765 
z
M 3110 3718 
L 3110 2957 
L 5542 2957 
L 5542 3718 
L 3110 3718 
z
M 2925 3910 
L 5728 3910 
L 5728 1798 
L 2925 1798 
L 2925 3910 
z
M 3270 1338 
L 3456 1286 
Q 3341 1050 3193 810 
Q 3046 570 2886 355 
Q 2726 141 2566 -26 
Q 2554 -6 2522 13 
Q 2490 32 2458 57 
Q 2426 83 2400 96 
Q 2650 339 2880 665 
Q 3110 992 3270 1338 
z
M 5075 1293 
L 5242 1363 
Q 5395 1165 5555 937 
Q 5715 710 5856 499 
Q 5997 288 6086 134 
L 5907 38 
Q 5824 198 5683 412 
Q 5542 627 5385 860 
Q 5229 1094 5075 1293 
z
M 4218 4634 
L 4410 4570 
Q 4346 4365 4272 4144 
Q 4198 3923 4128 3770 
L 3981 3827 
Q 4038 3994 4108 4227 
Q 4179 4461 4218 4634 
z
M 4211 1939 
L 4397 1939 
L 4397 -173 
Q 4397 -282 4361 -336 
Q 4326 -390 4237 -416 
Q 4141 -442 3939 -448 
Q 3738 -454 3398 -448 
Q 3392 -416 3373 -368 
Q 3354 -320 3328 -275 
Q 3616 -282 3824 -282 
Q 4032 -282 4096 -282 
Q 4211 -275 4211 -173 
L 4211 1939 
z
M 627 5101 
L 749 5222 
Q 934 5107 1139 4972 
Q 1344 4838 1526 4707 
Q 1709 4576 1830 4480 
L 1715 4326 
Q 1594 4429 1408 4563 
Q 1222 4698 1017 4842 
Q 813 4986 627 5101 
z
M 307 3379 
L 422 3507 
Q 614 3405 822 3280 
Q 1030 3155 1219 3036 
Q 1408 2918 1536 2822 
L 1427 2669 
Q 1299 2765 1110 2889 
Q 922 3014 710 3145 
Q 499 3277 307 3379 
z
M 493 -224 
Q 646 26 832 374 
Q 1018 723 1203 1110 
Q 1389 1498 1542 1843 
L 1690 1728 
Q 1549 1395 1369 1020 
Q 1190 646 1004 288 
Q 819 -70 653 -352 
L 493 -224 
z
" transform="scale(0.015625)"/>
     <path id="NotoSansSC-Thin-3a" d="M 736 2656 
Q 640 2656 560 2726 
Q 480 2797 480 2931 
Q 480 3072 560 3145 
Q 640 3219 736 3219 
Q 838 3219 918 3145 
Q 998 3072 998 2931 
Q 998 2797 918 2726 
Q 838 2656 736 2656 
z
M 736 -83 
Q 640 -83 560 -9 
Q 480 64 480 192 
Q 480 333 560 406 
Q 640 480 736 480 
Q 838 480 918 406 
Q 998 333 998 192 
Q 998 64 918 -9 
Q 838 -83 736 -83 
z
" transform="scale(0.015625)"/>
     <path id="NotoSansSC-Thin-4ea4" d="M 4294 2758 
L 4486 2701 
Q 4160 1798 3587 1184 
Q 3014 570 2224 173 
Q 1434 -224 442 -480 
Q 435 -454 412 -419 
Q 390 -384 364 -352 
Q 339 -320 314 -294 
Q 1312 -70 2093 314 
Q 2874 698 3430 1296 
Q 3987 1894 4294 2758 
z
M 2176 3821 
L 2355 3750 
Q 2138 3482 1859 3210 
Q 1581 2938 1283 2698 
Q 986 2458 710 2266 
Q 698 2285 669 2313 
Q 640 2342 614 2374 
Q 589 2406 563 2419 
Q 845 2598 1139 2825 
Q 1434 3053 1706 3309 
Q 1978 3565 2176 3821 
z
M 2125 2720 
Q 2592 1536 3613 787 
Q 4634 38 6118 -218 
Q 6099 -237 6073 -269 
Q 6048 -301 6025 -336 
Q 6003 -371 5984 -403 
Q 4992 -211 4201 192 
Q 3411 595 2844 1212 
Q 2278 1830 1952 2656 
L 2125 2720 
z
M 480 4352 
L 5901 4352 
L 5901 4166 
L 480 4166 
L 480 4352 
z
M 4096 3686 
L 4243 3795 
Q 4550 3590 4867 3337 
Q 5184 3085 5459 2835 
Q 5734 2586 5907 2381 
L 5760 2253 
Q 5594 2464 5322 2717 
Q 5050 2970 4730 3226 
Q 4410 3482 4096 3686 
z
M 2784 5293 
L 2957 5357 
Q 3098 5178 3235 4950 
Q 3373 4723 3437 4570 
L 3264 4486 
Q 3200 4653 3065 4880 
Q 2931 5107 2784 5293 
z
" transform="scale(0.015625)"/>
     <path id="NotoSansSC-Thin-6240" d="M 3539 3123 
L 6054 3123 
L 6054 2938 
L 3539 2938 
L 3539 3123 
z
M 4954 3046 
L 5146 3046 
L 5146 -448 
L 4954 -448 
L 4954 3046 
z
M 710 4627 
L 896 4627 
L 896 2477 
Q 896 2150 880 1776 
Q 864 1402 816 1014 
Q 768 627 672 256 
Q 576 -115 416 -435 
Q 403 -416 374 -393 
Q 346 -371 317 -348 
Q 288 -326 262 -320 
Q 467 96 563 585 
Q 659 1075 684 1568 
Q 710 2061 710 2477 
L 710 4627 
z
M 5754 5235 
L 5901 5088 
Q 5632 4947 5225 4828 
Q 4819 4710 4371 4617 
Q 3923 4525 3507 4454 
Q 3501 4486 3478 4534 
Q 3456 4582 3437 4614 
Q 3846 4685 4288 4777 
Q 4730 4870 5120 4985 
Q 5510 5101 5754 5235 
z
M 819 3712 
L 2707 3712 
L 2707 2067 
L 819 2067 
L 819 2253 
L 2515 2253 
L 2515 3526 
L 819 3526 
L 819 3712 
z
M 2912 5171 
L 3046 5018 
Q 2797 4877 2413 4768 
Q 2029 4659 1600 4585 
Q 1171 4512 781 4461 
Q 774 4499 755 4544 
Q 736 4589 710 4627 
Q 1094 4678 1516 4755 
Q 1939 4832 2313 4937 
Q 2688 5043 2912 5171 
z
M 3437 4614 
L 3629 4614 
L 3629 2349 
Q 3629 2022 3603 1654 
Q 3578 1286 3501 915 
Q 3424 544 3273 192 
Q 3123 -160 2874 -454 
Q 2861 -435 2835 -412 
Q 2810 -390 2781 -368 
Q 2752 -346 2733 -333 
Q 2970 -45 3110 288 
Q 3251 621 3321 976 
Q 3392 1331 3414 1680 
Q 3437 2029 3437 2349 
L 3437 4614 
z
" transform="scale(0.015625)"/>
     <path id="NotoSansSC-Thin-2f" d="M 58 -1126 
L 2298 5005 
L 2515 5005 
L 282 -1126 
L 58 -1126 
z
" transform="scale(0.015625)"/>
    </defs>
    <use xlink:href="#NotoSansSC-Thin-6765"/>
    <use xlink:href="#NotoSansSC-Thin-6e90" transform="translate(99.999985 0)"/>
    <use xlink:href="#NotoSansSC-Thin-3a" transform="translate(199.999969 0)"/>
    <use xlink:href="#NotoSansSC-Thin-20" transform="translate(223.09996 0)"/>
    <use xlink:href="#NotoSansSC-Thin-4e0a" transform="translate(245.099945 0)"/>
    <use xlink:href="#NotoSansSC-Thin-4ea4" transform="translate(345.09993 0)"/>
    <use xlink:href="#NotoSansSC-Thin-6240" transform="translate(445.099915 0)"/>
    <use xlink:href="#NotoSansSC-Thin-2f" transform="translate(545.099899 0)"/>
    <use xlink:href="#NotoSansSC-Thin-6df1" transform="translate(584.69989 0)"/>
    <use xlink:href="#NotoSansSC-Thin-4ea4" transform="translate(684.699875 0)"/>
    <use xlink:href="#NotoSansSC-Thin-6240" transform="translate(784.69986 0)"/>
    <use xlink:href="#NotoSansSC-Thin-20" transform="translate(884.699844 0)"/>
    <use xlink:href="#NotoSansSC-Thin-b7" transform="translate(906.699829 0)"/>
    <use xlink:href="#NotoSansSC-Thin-20" transform="translate(1006.699814 0)"/>
    <use xlink:href="#NotoSansSC-Thin-32" transform="translate(1028.699799 0)"/>
    <use xlink:href="#NotoSansSC-Thin-30" transform="translate(1080.799789 0)"/>
    <use xlink:href="#NotoSansSC-Thin-32" transform="translate(1132.89978 0)"/>
    <use xlink:href="#NotoSansSC-Thin-36" transform="translate(1184.999771 0)"/>
    <use xlink:href="#NotoSansSC-Thin-2d" transform="translate(1237.099762 0)"/>
    <use xlink:href="#NotoSansSC-Thin-30" transform="translate(1269.499756 0)"/>
    <use xlink:href="#NotoSansSC-Thin-35" transform="translate(1321.599747 0)"/>
    <use xlink:href="#NotoSansSC-Thin-2d" transform="translate(1373.699738 0)"/>
    <use xlink:href="#NotoSansSC-Thin-32" transform="translate(1406.099731 0)"/>
    <use xlink:href="#NotoSansSC-Thin-36" transform="translate(1458.199722 0)"/>
   </g>
  </g>
 </g>
 <defs>
  <clipPath id="pab768d7418">
   <rect x="50.3" y="80.038437" width="314.82" height="175.104"/>
  </clipPath>
 </defs>
</svg>
