<?xml version="1.0" encoding="utf-8" standalone="no"?>
<!DOCTYPE svg PUBLIC "-//W3C//DTD SVG 1.1//EN"
  "http://www.w3.org/Graphics/SVG/1.1/DTD/svg11.dtd">
<svg xmlns:xlink="http://www.w3.org/1999/xlink" width="382.755781pt" height="292.459pt" viewBox="0 0 382.755781 292.459" xmlns="http://www.w3.org/2000/svg" version="1.1">
 <metadata>
  <rdf:RDF xmlns:dc="http://purl.org/dc/elements/1.1/" xmlns:cc="http://creativecommons.org/ns#" xmlns:rdf="http://www.w3.org/1999/02/22-rdf-syntax-ns#">
   <cc:Work>
    <dc:type rdf:resource="http://purl.org/dc/dcmitype/StillImage"/>
    <dc:date>2026-06-13T11:53:28.455399</dc:date>
    <dc:format>image/svg+xml</dc:format>
    <dc:creator>
     <cc:Agent>
      <dc:title>Matplotlib v3.10.9, https://matplotlib.org/</dc:title>
     </cc:Agent>
    </dc:creator>
   </cc:Work>
  </rdf:RDF>
 </metadata>
 <defs>
  <style type="text/css">*{stroke-linejoin: round; stroke-linecap: butt}</style>
 </defs>
 <g id="figure_1">
  <g id="patch_1">
   <path d="M 0 292.459 
L 382.755781 292.459 
L 382.755781 0 
L 0 0 
z
" style="fill: #ffffff"/>
  </g>
  <g id="axes_1">
   <g id="patch_2">
    <path d="M 50.3 255.295562 
L 365.12 255.295562 
L 365.12 80.191562 
L 50.3 80.191562 
z
" style="fill: #ffffff"/>
   </g>
   <g id="matplotlib.axis_1">
    <g id="xtick_1">
     <g id="line2d_1">
      <path d="M 50.3 255.295562 
L 50.3 80.191562 
" clip-path="url(#pbdc77b27c6)" style="fill: none; stroke: #e2e8f0; stroke-opacity: 0.4; stroke-width: 0.5; stroke-linecap: square"/>
     </g>
     <g id="line2d_2"/>
     <g id="text_1">
      <!-- -2.0 -->
      <g style="fill: #94a3b8" transform="translate(41.499687 265.989937) scale(0.09 -0.09)">
       <defs>
        <path id="MicrosoftYaHei-Bold-2d" d="M 2328 1497 
L 481 1497 
L 481 2209 
L 2328 2209 
L 2328 1497 
z
" transform="scale(0.015625)"/>
        <path id="MicrosoftYaHei-Bold-32" d="M 1500 841 
L 3553 841 
L 3553 0 
L 334 0 
L 334 359 
Q 334 738 473 1050 
Q 613 1363 856 1633 
Q 1100 1903 1613 2266 
Q 2081 2616 2268 2886 
Q 2456 3156 2456 3459 
Q 2456 4113 1744 4113 
Q 1119 4113 550 3613 
L 550 4513 
Q 1184 4922 1975 4922 
Q 2700 4922 3122 4551 
Q 3544 4181 3544 3531 
Q 3544 3169 3422 2876 
Q 3300 2584 3069 2328 
Q 2838 2072 2328 1713 
Q 1838 1363 1669 1172 
Q 1500 981 1500 841 
z
" transform="scale(0.015625)"/>
        <path id="MicrosoftYaHei-Bold-2e" d="M 313 453 
Q 313 688 491 838 
Q 669 988 916 988 
Q 1166 988 1337 834 
Q 1509 681 1509 453 
Q 1509 213 1337 64 
Q 1166 -84 903 -84 
Q 659 -84 486 69 
Q 313 222 313 453 
z
" transform="scale(0.015625)"/>
        <path id="MicrosoftYaHei-Bold-30" d="M 244 2341 
Q 244 3597 706 4259 
Q 1169 4922 2044 4922 
Q 3713 4922 3713 2453 
Q 3713 1238 3259 577 
Q 2806 -84 1950 -84 
Q 244 -84 244 2341 
z
M 1266 2366 
Q 1266 691 1981 691 
Q 2684 691 2684 2416 
Q 2684 4147 2000 4147 
Q 1266 4147 1266 2366 
z
" transform="scale(0.015625)"/>
       </defs>
       <use xlink:href="#MicrosoftYaHei-Bold-2d"/>
       <use xlink:href="#MicrosoftYaHei-Bold-32" transform="translate(43.652344 0)"/>
       <use xlink:href="#MicrosoftYaHei-Bold-2e" transform="translate(105.322266 0)"/>
       <use xlink:href="#MicrosoftYaHei-Bold-30" transform="translate(133.886719 0)"/>
      </g>
     </g>
    </g>
    <g id="xtick_2">
     <g id="line2d_3">
      <path d="M 95.274286 255.295562 
L 95.274286 80.191562 
" clip-path="url(#pbdc77b27c6)" style="fill: none; stroke: #e2e8f0; stroke-opacity: 0.4; stroke-width: 0.5; stroke-linecap: square"/>
     </g>
     <g id="line2d_4"/>
     <g id="text_2">
      <!-- -1.5 -->
      <g style="fill: #94a3b8" transform="translate(86.473973 265.989937) scale(0.09 -0.09)">
       <defs>
        <path id="MicrosoftYaHei-Bold-31" d="M 2716 4947 
L 2716 0 
L 1700 0 
L 1700 3809 
Q 1513 3647 1188 3517 
Q 863 3388 591 3356 
L 591 4222 
Q 1447 4472 2072 4947 
L 2716 4947 
z
" transform="scale(0.015625)"/>
        <path id="MicrosoftYaHei-Bold-35" d="M 541 125 
L 541 997 
Q 1044 691 1613 691 
Q 2041 691 2283 902 
Q 2525 1113 2525 1472 
Q 2525 2225 1494 2225 
Q 1113 2225 616 2169 
L 797 4841 
L 3359 4841 
L 3359 4009 
L 1613 4009 
L 1544 2991 
Q 1803 3013 2022 3013 
Q 2731 3013 3142 2625 
Q 3553 2238 3553 1575 
Q 3553 844 3056 380 
Q 2559 -84 1706 -84 
Q 1016 -84 541 125 
z
" transform="scale(0.015625)"/>
       </defs>
       <use xlink:href="#MicrosoftYaHei-Bold-2d"/>
       <use xlink:href="#MicrosoftYaHei-Bold-31" transform="translate(43.652344 0)"/>
       <use xlink:href="#MicrosoftYaHei-Bold-2e" transform="translate(105.322266 0)"/>
       <use xlink:href="#MicrosoftYaHei-Bold-35" transform="translate(133.886719 0)"/>
      </g>
     </g>
    </g>
    <g id="xtick_3">
     <g id="line2d_5">
      <path d="M 140.248571 255.295562 
L 140.248571 80.191562 
" clip-path="url(#pbdc77b27c6)" style="fill: none; stroke: #e2e8f0; stroke-opacity: 0.4; stroke-width: 0.5; stroke-linecap: square"/>
     </g>
     <g id="line2d_6"/>
     <g id="text_3">
      <!-- -1.0 -->
      <g style="fill: #94a3b8" transform="translate(131.448259 265.989937) scale(0.09 -0.09)">
       <use xlink:href="#MicrosoftYaHei-Bold-2d"/>
       <use xlink:href="#MicrosoftYaHei-Bold-31" transform="translate(43.652344 0)"/>
       <use xlink:href="#MicrosoftYaHei-Bold-2e" transform="translate(105.322266 0)"/>
       <use xlink:href="#MicrosoftYaHei-Bold-30" transform="translate(133.886719 0)"/>
      </g>
     </g>
    </g>
    <g id="xtick_4">
     <g id="line2d_7">
      <path d="M 185.222857 255.295562 
L 185.222857 80.191562 
" clip-path="url(#pbdc77b27c6)" style="fill: none; stroke: #e2e8f0; stroke-opacity: 0.4; stroke-width: 0.5; stroke-linecap: square"/>
     </g>
     <g id="line2d_8"/>
     <g id="text_4">
      <!-- -0.5 -->
      <g style="fill: #94a3b8" transform="translate(176.422545 265.989937) scale(0.09 -0.09)">
       <use xlink:href="#MicrosoftYaHei-Bold-2d"/>
       <use xlink:href="#MicrosoftYaHei-Bold-30" transform="translate(43.652344 0)"/>
       <use xlink:href="#MicrosoftYaHei-Bold-2e" transform="translate(105.322266 0)"/>
       <use xlink:href="#MicrosoftYaHei-Bold-35" transform="translate(133.886719 0)"/>
      </g>
     </g>
    </g>
    <g id="xtick_5">
     <g id="line2d_9">
      <path d="M 230.197143 255.295562 
L 230.197143 80.191562 
" clip-path="url(#pbdc77b27c6)" style="fill: none; stroke: #e2e8f0; stroke-opacity: 0.4; stroke-width: 0.5; stroke-linecap: square"/>
     </g>
     <g id="line2d_10"/>
     <g id="text_5">
      <!-- 0.0 -->
      <g style="fill: #94a3b8" transform="translate(223.361362 265.989937) scale(0.09 -0.09)">
       <use xlink:href="#MicrosoftYaHei-Bold-30"/>
       <use xlink:href="#MicrosoftYaHei-Bold-2e" transform="translate(61.669922 0)"/>
       <use xlink:href="#MicrosoftYaHei-Bold-30" transform="translate(90.234375 0)"/>
      </g>
     </g>
    </g>
    <g id="xtick_6">
     <g id="line2d_11">
      <path d="M 275.171429 255.295562 
L 275.171429 80.191562 
" clip-path="url(#pbdc77b27c6)" style="fill: none; stroke: #e2e8f0; stroke-opacity: 0.4; stroke-width: 0.5; stroke-linecap: square"/>
     </g>
     <g id="line2d_12"/>
     <g id="text_6">
      <!-- 0.5 -->
      <g style="fill: #94a3b8" transform="translate(268.335647 265.989937) scale(0.09 -0.09)">
       <use xlink:href="#MicrosoftYaHei-Bold-30"/>
       <use xlink:href="#MicrosoftYaHei-Bold-2e" transform="translate(61.669922 0)"/>
       <use xlink:href="#MicrosoftYaHei-Bold-35" transform="translate(90.234375 0)"/>
      </g>
     </g>
    </g>
    <g id="xtick_7">
     <g id="line2d_13">
      <path d="M 320.145714 255.295562 
L 320.145714 80.191562 
" clip-path="url(#pbdc77b27c6)" style="fill: none; stroke: #e2e8f0; stroke-opacity: 0.4; stroke-width: 0.5; stroke-linecap: square"/>
     </g>
     <g id="line2d_14"/>
     <g id="text_7">
      <!-- 1.0 -->
      <g style="fill: #94a3b8" transform="translate(313.309933 265.989937) scale(0.09 -0.09)">
       <use xlink:href="#MicrosoftYaHei-Bold-31"/>
       <use xlink:href="#MicrosoftYaHei-Bold-2e" transform="translate(61.669922 0)"/>
       <use xlink:href="#MicrosoftYaHei-Bold-30" transform="translate(90.234375 0)"/>
      </g>
     </g>
    </g>
    <g id="xtick_8">
     <g id="line2d_15">
      <path d="M 365.12 255.295562 
L 365.12 80.191562 
" clip-path="url(#pbdc77b27c6)" style="fill: none; stroke: #e2e8f0; stroke-opacity: 0.4; stroke-width: 0.5; stroke-linecap: square"/>
     </g>
     <g id="line2d_16"/>
     <g id="text_8">
      <!-- 1.5 -->
      <g style="fill: #94a3b8" transform="translate(358.284219 265.989937) scale(0.09 -0.09)">
       <use xlink:href="#MicrosoftYaHei-Bold-31"/>
       <use xlink:href="#MicrosoftYaHei-Bold-2e" transform="translate(61.669922 0)"/>
       <use xlink:href="#MicrosoftYaHei-Bold-35" transform="translate(90.234375 0)"/>
      </g>
     </g>
    </g>
    <g id="text_9">
     <!-- 涨跌幅 (%) -->
     <g style="fill: #64748b" transform="translate(185.868125 279.421656) scale(0.09 -0.09)">
      <defs>
       <path id="MicrosoftYaHei-6da8" d="M 3088 2622 
L 3550 2622 
L 3550 5278 
L 3994 5278 
L 3994 2622 
L 6250 2622 
L 6250 2172 
L 5031 2172 
Q 5294 503 6369 -184 
Q 6156 -353 5956 -566 
Q 4863 291 4619 2172 
L 3994 2172 
L 3994 -59 
Q 4375 109 4888 347 
Q 4906 97 4950 -128 
Q 4319 -397 3900 -616 
Q 3731 -703 3606 -809 
L 3338 -359 
Q 3550 -191 3550 103 
L 3550 2172 
L 3088 2172 
L 3088 2622 
z
M 1475 4966 
L 2931 4966 
L 2931 2866 
L 2494 2866 
L 2494 3059 
L 1956 3059 
L 1856 1978 
L 2919 1978 
Q 2881 984 2838 366 
Q 2800 -291 2556 -534 
Q 2356 -734 1894 -734 
Q 1725 -734 1388 -728 
Q 1350 -484 1281 -222 
Q 1600 -247 1825 -247 
Q 2131 -247 2231 -147 
Q 2375 -3 2394 359 
Q 2444 978 2463 1553 
L 1381 1553 
L 1563 3484 
L 2494 3484 
L 2494 4541 
L 1475 4541 
L 1475 4966 
z
M 794 1803 
Q 1038 1697 1275 1616 
Q 944 234 713 -791 
L 194 -622 
Q 531 503 794 1803 
z
M 5700 5034 
L 6106 4766 
Q 5388 3847 4588 2934 
Q 4400 3097 4231 3222 
Q 5006 4047 5700 5034 
z
M 394 3591 
Q 844 3259 1363 2828 
L 1031 2434 
Q 456 2972 88 3253 
L 394 3591 
z
M 613 5172 
Q 1100 4797 1531 4403 
L 1175 4034 
Q 763 4466 313 4847 
L 613 5172 
z
" transform="scale(0.015625)"/>
       <path id="MicrosoftYaHei-8dcc" d="M 2650 2372 
L 4225 2372 
Q 4269 2866 4275 3572 
L 3413 3572 
Q 3275 3078 3125 2653 
Q 2863 2766 2688 2822 
Q 3069 3753 3263 4884 
L 3713 4784 
Q 3625 4384 3531 4016 
L 4281 4016 
Q 4294 4666 4294 5266 
L 4738 5266 
Q 4738 4641 4738 4016 
L 6106 4016 
L 6106 3572 
L 4738 3572 
Q 4731 2834 4694 2372 
L 6288 2372 
L 6288 1916 
L 4769 1916 
Q 5200 372 6388 -409 
Q 6181 -597 6013 -834 
Q 4888 47 4494 1422 
Q 4113 47 2663 -872 
Q 2513 -653 2338 -447 
Q 3856 378 4163 1916 
L 2650 1916 
L 2650 2372 
z
M 69 -16 
Q 213 9 375 34 
L 375 2366 
L 813 2366 
L 813 109 
Q 1075 159 1369 209 
L 1369 2991 
L 863 2991 
L 863 2803 
L 425 2803 
L 425 4934 
L 2475 4934 
L 2475 2991 
L 1806 2991 
L 1806 1916 
L 2550 1916 
L 2550 1491 
L 1806 1491 
L 1806 291 
Q 2188 359 2613 441 
Q 2613 203 2625 3 
Q 1688 -153 181 -484 
L 69 -16 
z
M 2038 3416 
L 2038 4509 
L 863 4509 
L 863 3416 
L 2038 3416 
z
" transform="scale(0.015625)"/>
       <path id="MicrosoftYaHei-5e45" d="M 2725 2197 
L 6094 2197 
L 6094 -822 
L 5681 -822 
L 5681 -459 
L 3138 -459 
L 3138 -816 
L 2725 -816 
L 2725 2197 
z
M 331 4222 
L 1131 4222 
L 1131 5297 
L 1544 5297 
L 1544 4222 
L 2388 4222 
L 2388 978 
Q 2388 472 1900 472 
L 1700 472 
Q 1663 659 1594 872 
Q 1719 859 1831 859 
Q 1988 859 1988 1028 
L 1988 3822 
L 1544 3822 
L 1544 -816 
L 1131 -816 
L 1131 3822 
L 731 3822 
L 731 384 
L 331 384 
L 331 4222 
z
M 3031 4178 
L 5813 4178 
L 5813 2478 
L 5400 2478 
L 5400 2703 
L 3444 2703 
L 3444 2478 
L 3031 2478 
L 3031 4178 
z
M 2588 5009 
L 6250 5009 
L 6250 4609 
L 2588 4609 
L 2588 5009 
z
M 5400 3791 
L 3444 3791 
L 3444 3091 
L 5400 3091 
L 5400 3791 
z
M 5681 1809 
L 4606 1809 
L 4606 1053 
L 5681 1053 
L 5681 1809 
z
M 3138 1053 
L 4206 1053 
L 4206 1809 
L 3138 1809 
L 3138 1053 
z
M 4606 -72 
L 5681 -72 
L 5681 678 
L 4606 678 
L 4606 -72 
z
M 3138 -72 
L 4206 -72 
L 4206 678 
L 3138 678 
L 3138 -72 
z
" transform="scale(0.015625)"/>
       <path id="MicrosoftYaHei-20" transform="scale(0.015625)"/>
       <path id="MicrosoftYaHei-28" d="M 1531 -1100 
Q 478 100 478 1847 
Q 478 3594 1531 4841 
L 2072 4841 
Q 1016 3544 1016 1853 
Q 1016 166 2066 -1100 
L 1531 -1100 
z
" transform="scale(0.015625)"/>
       <path id="MicrosoftYaHei-25" d="M 272 3619 
Q 272 4213 589 4563 
Q 906 4913 1444 4913 
Q 1959 4913 2248 4591 
Q 2538 4269 2538 3694 
Q 2538 3122 2219 2765 
Q 1900 2409 1372 2409 
Q 872 2409 572 2740 
Q 272 3072 272 3619 
z
M 753 3650 
Q 753 3247 928 3028 
Q 1103 2809 1406 2809 
Q 1719 2809 1889 3036 
Q 2059 3263 2059 3675 
Q 2059 4078 1892 4298 
Q 1725 4519 1422 4519 
Q 1113 4519 933 4289 
Q 753 4059 753 3650 
z
M 4647 4841 
L 1538 -31 
L 1016 -31 
L 4125 4841 
L 4647 4841 
z
M 3172 1134 
Q 3172 1728 3489 2083 
Q 3806 2438 4341 2438 
Q 4853 2438 5143 2114 
Q 5434 1791 5434 1203 
Q 5434 634 5112 279 
Q 4791 -75 4272 -75 
Q 3769 -75 3470 261 
Q 3172 597 3172 1134 
z
M 3650 1163 
Q 3650 769 3825 548 
Q 4000 328 4303 328 
Q 4616 328 4786 556 
Q 4956 784 4956 1194 
Q 4956 1600 4786 1815 
Q 4616 2031 4319 2031 
Q 4000 2031 3825 1801 
Q 3650 1572 3650 1163 
z
" transform="scale(0.015625)"/>
       <path id="MicrosoftYaHei-29" d="M 78 -1100 
Q 1131 163 1131 1853 
Q 1131 3547 72 4841 
L 616 4841 
Q 1672 3603 1672 1847 
Q 1672 91 616 -1100 
L 78 -1100 
z
" transform="scale(0.015625)"/>
      </defs>
      <use xlink:href="#MicrosoftYaHei-6da8"/>
      <use xlink:href="#MicrosoftYaHei-8dcc" transform="translate(100 0)"/>
      <use xlink:href="#MicrosoftYaHei-5e45" transform="translate(200 0)"/>
      <use xlink:href="#MicrosoftYaHei-20" transform="translate(300 0)"/>
      <use xlink:href="#MicrosoftYaHei-28" transform="translate(329.589844 0)"/>
      <use xlink:href="#MicrosoftYaHei-25" transform="translate(362.988281 0)"/>
      <use xlink:href="#MicrosoftYaHei-29" transform="translate(451.953125 0)"/>
     </g>
    </g>
   </g>
   <g id="matplotlib.axis_2">
    <g id="ytick_1">
     <g id="line2d_17">
      <path d="M 50.3 239.287587 
L 365.12 239.287587 
" clip-path="url(#pbdc77b27c6)" style="fill: none; stroke: #e2e8f0; stroke-opacity: 0.6; stroke-width: 0.5; stroke-linecap: square"/>
     </g>
     <g id="line2d_18"/>
     <g id="text_10">
      <!-- 上证指数 -->
      <g style="fill: #94a3b8" transform="translate(10.8 242.884775) scale(0.09 -0.09)">
       <defs>
        <path id="MicrosoftYaHei-Bold-4e0a" d="M 181 359 
L 2500 359 
L 2500 5278 
L 3513 5278 
L 3513 3547 
L 5825 3547 
L 5825 2653 
L 3513 2653 
L 3513 359 
L 6231 359 
L 6231 -522 
L 181 -522 
L 181 359 
z
" transform="scale(0.015625)"/>
        <path id="MicrosoftYaHei-Bold-8bc1" d="M 994 5334 
Q 1356 4822 1756 4184 
Q 1463 4028 1000 3734 
Q 663 4341 306 4903 
L 994 5334 
z
M 1875 278 
L 2388 278 
L 2388 3397 
L 3231 3397 
L 3231 278 
L 3906 278 
L 3906 4091 
L 2075 4091 
L 2075 4916 
L 6225 4916 
L 6225 4091 
L 4750 4091 
L 4750 2678 
L 6075 2678 
L 6075 1859 
L 4750 1859 
L 4750 278 
L 6300 278 
L 6300 -559 
L 1875 -559 
L 1875 278 
z
M 2019 1384 
Q 2044 1116 2169 528 
Q 1575 109 838 -516 
L 450 172 
Q 606 366 613 641 
L 613 2628 
L 113 2628 
L 113 3441 
L 1463 3441 
L 1463 947 
L 2019 1384 
z
" transform="scale(0.015625)"/>
        <path id="MicrosoftYaHei-Bold-6307" d="M 106 4297 
L 800 4297 
L 800 5316 
L 1594 5316 
L 1594 4297 
L 2194 4297 
L 2194 3522 
L 1594 3522 
L 1594 2550 
L 2200 2716 
Q 2194 2222 2206 1878 
Q 2097 1850 1594 1700 
L 1594 -28 
Q 1594 -375 1458 -559 
Q 1322 -744 1067 -772 
Q 813 -800 313 -809 
Q 250 -434 156 3 
Q 538 -6 669 8 
Q 800 22 800 228 
L 800 1463 
L 156 1272 
L 88 2191 
Q 434 2263 800 2350 
L 800 3522 
L 106 3522 
L 106 4297 
z
M 5506 4278 
Q 5881 4078 6281 3959 
Q 6125 3116 5862 2959 
Q 5600 2803 5219 2803 
L 3306 2803 
Q 2394 2803 2394 3747 
L 2394 5291 
L 3225 5291 
L 3225 4628 
Q 4591 4809 5919 5172 
L 6206 4428 
Q 4866 4131 3225 3941 
L 3225 3884 
Q 3225 3528 3644 3528 
L 5025 3528 
Q 5334 3528 5403 3712 
Q 5472 3897 5506 4278 
z
M 2463 -834 
L 2463 2428 
L 6025 2428 
L 6025 -822 
L 5200 -822 
L 5200 -509 
L 3288 -509 
L 3288 -834 
L 2463 -834 
z
M 5200 1716 
L 3288 1716 
L 3288 1303 
L 5200 1303 
L 5200 1716 
z
M 3288 203 
L 5200 203 
L 5200 616 
L 3288 616 
L 3288 203 
z
" transform="scale(0.015625)"/>
        <path id="MicrosoftYaHei-Bold-6570" d="M 238 4091 
L 725 4091 
Q 559 4425 281 4803 
L 844 5153 
Q 1038 4922 1369 4428 
L 806 4091 
L 1506 4091 
L 1506 5316 
L 2300 5316 
L 2300 4091 
L 2956 4091 
L 2438 4428 
Q 2750 4809 2963 5172 
L 3550 4822 
Q 3341 4466 3031 4091 
L 3394 4091 
L 3394 3453 
L 2300 3453 
L 2300 3016 
L 2513 3303 
Q 2903 3094 3253 2891 
Q 3766 3841 4138 5347 
L 4994 5266 
Q 4869 4781 4728 4341 
L 6294 4341 
L 6294 3578 
L 6041 3578 
Q 5906 1922 5338 856 
Q 5738 391 6319 53 
Q 6094 -203 5775 -778 
Q 5228 -413 4828 109 
Q 4313 -497 3631 -872 
Q 3378 -513 3072 -197 
L 2850 -566 
Q 2475 -350 2031 -128 
Q 1347 -584 394 -778 
Q 281 -434 63 -9 
Q 716 59 1213 253 
Q 781 444 300 641 
Q 513 950 681 1259 
L 169 1259 
L 169 1897 
L 991 1897 
Q 1094 2144 1169 2391 
L 1506 2359 
L 1506 2959 
Q 1044 2472 344 2053 
Q 213 2472 50 2803 
Q 672 3044 1172 3453 
L 238 3453 
L 238 4091 
z
M 4394 3400 
Q 4519 2359 4831 1659 
Q 5203 2478 5275 3578 
L 4463 3578 
Q 4431 3488 4394 3400 
z
M 2300 2216 
L 1984 2216 
Q 1913 2063 1825 1897 
L 3281 1897 
L 3281 1316 
Q 3038 806 2672 413 
L 3294 166 
L 3169 -38 
Q 3859 322 4347 894 
Q 4041 1522 3878 2300 
Q 3769 2103 3656 1922 
Q 3513 2172 3322 2438 
L 3138 2159 
Q 2750 2422 2300 2691 
L 2300 2216 
z
M 1300 934 
L 1950 691 
Q 2231 934 2413 1259 
L 1484 1259 
L 1300 934 
z
" transform="scale(0.015625)"/>
       </defs>
       <use xlink:href="#MicrosoftYaHei-Bold-4e0a"/>
       <use xlink:href="#MicrosoftYaHei-Bold-8bc1" transform="translate(100 0)"/>
       <use xlink:href="#MicrosoftYaHei-Bold-6307" transform="translate(200 0)"/>
       <use xlink:href="#MicrosoftYaHei-Bold-6570" transform="translate(300 0)"/>
      </g>
     </g>
    </g>
    <g id="ytick_2">
     <g id="line2d_19">
      <path d="M 50.3 203.515575 
L 365.12 203.515575 
" clip-path="url(#pbdc77b27c6)" style="fill: none; stroke: #e2e8f0; stroke-opacity: 0.6; stroke-width: 0.5; stroke-linecap: square"/>
     </g>
     <g id="line2d_20"/>
     <g id="text_11">
      <!-- 深证成指 -->
      <g style="fill: #94a3b8" transform="translate(10.8 207.112762) scale(0.09 -0.09)">
       <defs>
        <path id="MicrosoftYaHei-Bold-6df1" d="M 694 5297 
Q 1288 4928 1869 4497 
L 1313 3859 
Q 844 4272 175 4741 
L 694 5297 
z
M 1925 3634 
L 1925 5003 
L 6056 5003 
L 6056 3634 
L 5250 3634 
L 5250 4278 
L 2731 4278 
L 2731 3634 
L 1925 3634 
z
M 3825 3447 
Q 3075 2841 2419 2397 
L 1906 2984 
Q 2638 3422 3269 3978 
L 3825 3447 
z
M 4175 3447 
L 4694 3972 
Q 5481 3428 6081 2972 
L 5550 2384 
Q 4869 2947 4175 3447 
z
M 625 3634 
Q 1231 3209 1738 2784 
L 1150 2134 
Q 738 2541 81 3047 
L 625 3634 
z
M 6188 1447 
L 4716 1447 
Q 5353 694 6331 316 
Q 6100 -47 5844 -491 
Q 4972 9 4406 828 
L 4406 -834 
L 3569 -834 
L 3569 878 
Q 2991 78 2081 -566 
Q 1863 -184 1606 178 
Q 2516 684 3203 1447 
L 1850 1447 
L 1850 2172 
L 3569 2172 
L 3569 2997 
L 4406 2997 
L 4406 2172 
L 6188 2172 
L 6188 1447 
z
M 900 1872 
Q 1281 1684 1719 1547 
Q 1275 172 988 -834 
Q 544 -666 138 -541 
Q 506 416 900 1872 
z
" transform="scale(0.015625)"/>
        <path id="MicrosoftYaHei-Bold-6210" d="M 1606 9 
Q 1544 541 1456 922 
Q 1753 866 1925 866 
Q 2259 866 2304 1197 
Q 2350 1528 2350 2047 
L 1438 2047 
Q 1428 106 825 -859 
Q 481 -534 88 -247 
Q 606 597 613 2172 
L 613 4291 
L 3547 4291 
L 3519 5322 
L 4406 5322 
L 4416 4291 
L 5269 4291 
Q 5103 4509 4738 4941 
L 5394 5297 
Q 5613 5059 6019 4553 
L 5538 4291 
L 6225 4291 
L 6225 3541 
L 4431 3541 
Q 4463 2569 4566 1856 
Q 4978 2491 5300 3234 
L 6069 2878 
Q 5519 1663 4828 734 
Q 5063 125 5250 125 
Q 5322 125 5369 215 
Q 5416 306 5472 667 
Q 5528 1028 5531 1291 
Q 5813 1128 6331 909 
Q 6313 572 6175 22 
Q 6038 -528 5813 -681 
Q 5588 -834 5359 -834 
Q 4678 -834 4231 16 
Q 3781 -472 3281 -859 
Q 2981 -491 2631 -197 
Q 3322 300 3888 953 
Q 3659 1891 3578 3541 
L 1438 3541 
L 1438 2803 
L 3219 2803 
Q 3219 2709 3181 1714 
Q 3144 719 3012 491 
Q 2881 263 2673 117 
Q 2466 -28 1606 9 
z
" transform="scale(0.015625)"/>
       </defs>
       <use xlink:href="#MicrosoftYaHei-Bold-6df1"/>
       <use xlink:href="#MicrosoftYaHei-Bold-8bc1" transform="translate(100 0)"/>
       <use xlink:href="#MicrosoftYaHei-Bold-6210" transform="translate(200 0)"/>
       <use xlink:href="#MicrosoftYaHei-Bold-6307" transform="translate(300 0)"/>
      </g>
     </g>
    </g>
    <g id="ytick_3">
     <g id="line2d_21">
      <path d="M 50.3 167.743562 
L 365.12 167.743562 
" clip-path="url(#pbdc77b27c6)" style="fill: none; stroke: #e2e8f0; stroke-opacity: 0.6; stroke-width: 0.5; stroke-linecap: square"/>
     </g>
     <g id="line2d_22"/>
     <g id="text_12">
      <!-- 创业板指 -->
      <g style="fill: #94a3b8" transform="translate(10.8 171.34075) scale(0.09 -0.09)">
       <defs>
        <path id="MicrosoftYaHei-Bold-521b" d="M 2581 5266 
L 2463 5116 
Q 3063 4491 3694 3759 
L 3025 3153 
Q 2556 3834 2038 4434 
Q 1631 3803 913 3141 
L 3294 3141 
Q 3281 2822 3238 1797 
Q 3213 878 2288 878 
Q 1975 866 1713 878 
Q 1650 1472 1619 1641 
Q 1794 1622 2244 1616 
Q 2431 1628 2438 1859 
Q 2456 2047 2469 2391 
L 1400 2391 
L 1400 478 
Q 1400 84 1750 91 
L 2419 91 
Q 2719 91 2756 384 
Q 2775 509 2813 884 
Q 3238 784 3688 703 
Q 3606 216 3531 -72 
Q 3400 -653 2575 -653 
L 1625 -653 
Q 581 -653 581 203 
L 581 2841 
Q 494 2766 400 2691 
Q 294 2966 31 3484 
Q 1131 4428 1538 5266 
L 2581 5266 
z
M 5163 5228 
L 5994 5228 
L 5994 416 
Q 5994 -728 5219 -759 
Q 4731 -772 4288 -772 
Q 4238 -347 4106 116 
Q 4369 103 4825 103 
Q 5163 103 5163 559 
L 5163 5228 
z
M 4675 878 
L 3850 878 
L 3850 4653 
L 4675 4653 
L 4675 878 
z
" transform="scale(0.015625)"/>
        <path id="MicrosoftYaHei-Bold-4e1a" d="M 1888 5216 
L 2800 5216 
L 2800 303 
L 3600 303 
L 3600 5216 
L 4500 5216 
L 4500 1838 
Q 5009 2850 5494 4172 
L 6300 3828 
Q 5825 2641 5163 1253 
L 4500 1563 
L 4500 303 
L 6300 303 
L 6300 -553 
L 125 -553 
L 125 303 
L 1888 303 
L 1888 1541 
L 1188 1241 
Q 675 2697 163 3916 
L 913 4259 
Q 1453 3047 1888 1922 
L 1888 5216 
z
" transform="scale(0.015625)"/>
        <path id="MicrosoftYaHei-Bold-677f" d="M 94 1559 
Q 653 2478 878 3297 
L 150 3297 
L 150 4116 
L 888 4116 
L 888 5272 
L 1700 5272 
L 1700 4116 
L 2363 4116 
L 2363 3297 
L 1700 3297 
L 1700 2734 
Q 2078 2544 2494 2309 
L 2100 1597 
Q 1916 1722 1700 1847 
L 1700 -828 
L 888 -828 
L 888 1569 
Q 650 1006 319 459 
Q 206 1066 94 1559 
z
M 5963 5191 
L 6238 4353 
Q 5231 4159 3325 4047 
L 3325 3453 
L 6056 3453 
L 6056 2653 
Q 5763 1528 5175 691 
Q 5663 250 6319 72 
Q 6031 -334 5756 -872 
Q 5100 -509 4609 16 
Q 4088 -500 3413 -866 
Q 3175 -428 2931 -66 
Q 3597 259 4072 713 
Q 3688 1328 3456 2103 
L 4063 2653 
L 3325 2653 
L 3325 2128 
Q 3325 359 2375 -872 
Q 2069 -484 1744 -159 
Q 2513 766 2513 2472 
L 2513 4859 
Q 4756 4966 5963 5191 
z
M 4619 1359 
Q 4997 1934 5156 2653 
L 4069 2653 
Q 4278 1903 4619 1359 
z
" transform="scale(0.015625)"/>
       </defs>
       <use xlink:href="#MicrosoftYaHei-Bold-521b"/>
       <use xlink:href="#MicrosoftYaHei-Bold-4e1a" transform="translate(100 0)"/>
       <use xlink:href="#MicrosoftYaHei-Bold-677f" transform="translate(200 0)"/>
       <use xlink:href="#MicrosoftYaHei-Bold-6307" transform="translate(300 0)"/>
      </g>
     </g>
    </g>
    <g id="ytick_4">
     <g id="line2d_23">
      <path d="M 50.3 131.97155 
L 365.12 131.97155 
" clip-path="url(#pbdc77b27c6)" style="fill: none; stroke: #e2e8f0; stroke-opacity: 0.6; stroke-width: 0.5; stroke-linecap: square"/>
     </g>
     <g id="line2d_24"/>
     <g id="text_13">
      <!-- 科创综指 -->
      <g style="fill: #94a3b8" transform="translate(10.8 135.568738) scale(0.09 -0.09)">
       <defs>
        <path id="MicrosoftYaHei-Bold-79d1" d="M 2494 1316 
L 4525 1500 
L 4525 5309 
L 5406 5309 
L 5406 1581 
L 6256 1659 
L 6325 866 
L 5406 781 
L 5406 -834 
L 4525 -834 
L 4525 703 
L 2600 528 
L 2494 1316 
z
M 88 1128 
Q 684 1850 1009 2709 
L 144 2709 
L 144 3516 
L 1038 3516 
L 1038 4216 
L 281 4147 
Q 219 4572 138 4891 
Q 1431 4991 2525 5147 
L 2763 4416 
Q 2341 4356 1850 4300 
L 1850 3516 
L 2663 3516 
L 2663 2709 
L 1850 2709 
L 1850 2172 
L 2150 2453 
Q 2600 2053 2913 1728 
L 2388 1253 
Q 2078 1616 1850 1863 
L 1850 -834 
L 1038 -834 
L 1038 1278 
Q 744 659 375 128 
Q 269 541 88 1128 
z
M 3419 4866 
Q 3894 4516 4475 3991 
L 3894 3416 
Q 3425 3916 2894 4334 
L 3419 4866 
z
M 3206 3278 
Q 3756 2872 4275 2397 
L 3688 1828 
Q 3263 2278 2675 2734 
L 3206 3278 
z
" transform="scale(0.015625)"/>
        <path id="MicrosoftYaHei-Bold-7efc" d="M 2481 4647 
L 3906 4647 
L 3713 5191 
L 4600 5359 
Q 4722 5006 4819 4647 
L 6181 4647 
L 6181 3497 
L 5444 3497 
L 5444 3922 
L 3219 3922 
L 3219 3497 
L 2481 3497 
L 2481 3866 
Q 1847 2709 1150 1753 
Q 1650 1809 2188 1891 
Q 2144 1497 2138 1147 
Q 888 1028 369 916 
L 156 1641 
Q 513 1994 947 2713 
Q 541 2678 294 2634 
L 69 3347 
Q 463 3847 1006 5359 
L 1788 5128 
Q 1363 4197 875 3416 
Q 1078 3419 1353 3431 
Q 1541 3788 1744 4203 
L 2481 3881 
L 2481 4647 
z
M 2725 3366 
L 5950 3366 
L 5950 2616 
L 2725 2616 
L 2725 3366 
z
M 2400 1391 
L 2400 2141 
L 6288 2141 
L 6288 1391 
L 4756 1391 
L 4756 -72 
Q 4756 -422 4572 -597 
Q 4388 -772 4027 -775 
Q 3666 -778 3325 -778 
Q 3263 -403 3163 -22 
Q 3513 -41 3694 -41 
Q 3925 -41 3925 209 
L 3925 1391 
L 2400 1391 
z
M 5575 1209 
Q 5938 603 6313 -147 
L 5619 -478 
Q 5263 303 4919 916 
L 5575 1209 
z
M 2888 1197 
L 3556 928 
Q 3188 172 2769 -528 
Q 2419 -322 2106 -166 
Q 2519 472 2888 1197 
z
M 213 -441 
L 81 391 
Q 1213 522 2131 684 
Q 2113 178 2113 -116 
Q 1338 -216 213 -441 
z
" transform="scale(0.015625)"/>
       </defs>
       <use xlink:href="#MicrosoftYaHei-Bold-79d1"/>
       <use xlink:href="#MicrosoftYaHei-Bold-521b" transform="translate(100 0)"/>
       <use xlink:href="#MicrosoftYaHei-Bold-7efc" transform="translate(200 0)"/>
       <use xlink:href="#MicrosoftYaHei-Bold-6307" transform="translate(300 0)"/>
      </g>
     </g>
    </g>
    <g id="ytick_5">
     <g id="line2d_25">
      <path d="M 50.3 96.199538 
L 365.12 96.199538 
" clip-path="url(#pbdc77b27c6)" style="fill: none; stroke: #e2e8f0; stroke-opacity: 0.6; stroke-width: 0.5; stroke-linecap: square"/>
     </g>
     <g id="line2d_26"/>
     <g id="text_14">
      <!-- 科创50 -->
      <g style="fill: #94a3b8" transform="translate(17.699062 99.796725) scale(0.09 -0.09)">
       <use xlink:href="#MicrosoftYaHei-Bold-79d1"/>
       <use xlink:href="#MicrosoftYaHei-Bold-521b" transform="translate(100 0)"/>
       <use xlink:href="#MicrosoftYaHei-Bold-35" transform="translate(200 0)"/>
       <use xlink:href="#MicrosoftYaHei-Bold-30" transform="translate(261.669922 0)"/>
      </g>
     </g>
    </g>
   </g>
   <g id="line2d_27">
    <path d="M 230.197143 255.295562 
L 230.197143 80.191562 
" clip-path="url(#pbdc77b27c6)" style="fill: none; stroke: #334155; stroke-width: 0.8; stroke-linecap: square"/>
    <defs>
     <path id="me4888be0cd" d="M 0 3 
C 0.795609 3 1.55874 2.683901 2.12132 2.12132 
C 2.683901 1.55874 3 0.795609 3 0 
C 3 -0.795609 2.683901 -1.55874 2.12132 -2.12132 
C 1.55874 -2.683901 0.795609 -3 0 -3 
C -0.795609 -3 -1.55874 -2.683901 -2.12132 -2.12132 
C -2.683901 -1.55874 -3 -0.795609 -3 0 
C -3 0.795609 -2.683901 1.55874 -2.12132 2.12132 
C -1.55874 2.683901 -0.795609 3 0 3 
z
" style="stroke: #334155; stroke-width: 1.5"/>
    </defs>
    <g clip-path="url(#pbdc77b27c6)">
     <use xlink:href="#me4888be0cd" x="230.197143" y="255.295562" style="fill: #334155; stroke: #334155; stroke-width: 1.5"/>
     <use xlink:href="#me4888be0cd" x="230.197143" y="80.191562" style="fill: #334155; stroke: #334155; stroke-width: 1.5"/>
    </g>
   </g>
   <g id="patch_3">
    <path d="M 230.197143 247.33629 
L 214.905886 247.33629 
L 214.905886 231.238884 
L 230.197143 231.238884 
z
" clip-path="url(#pbdc77b27c6)" style="fill: #16a34a; stroke: #ffffff; stroke-width: 1.5; stroke-linejoin: miter"/>
   </g>
   <g id="patch_4">
    <path d="M 230.197143 211.564278 
L 240.990971 211.564278 
L 240.990971 195.466872 
L 230.197143 195.466872 
z
" clip-path="url(#pbdc77b27c6)" style="fill: #dc2626; stroke: #ffffff; stroke-width: 1.5; stroke-linejoin: miter"/>
   </g>
   <g id="patch_5">
    <path d="M 230.197143 175.792265 
L 278.769371 175.792265 
L 278.769371 159.69486 
L 230.197143 159.69486 
z
" clip-path="url(#pbdc77b27c6)" style="fill: #dc2626; stroke: #ffffff; stroke-width: 1.5; stroke-linejoin: miter"/>
   </g>
   <g id="patch_6">
    <path d="M 230.197143 140.020253 
L 102.470171 140.020253 
L 102.470171 123.922847 
L 230.197143 123.922847 
z
" clip-path="url(#pbdc77b27c6)" style="fill: #16a34a; stroke: #ffffff; stroke-width: 1.5; stroke-linejoin: miter"/>
   </g>
   <g id="patch_7">
    <path d="M 230.197143 104.248241 
L 96.173771 104.248241 
L 96.173771 88.150835 
L 230.197143 88.150835 
z
" clip-path="url(#pbdc77b27c6)" style="fill: #16a34a; stroke: #ffffff; stroke-width: 1.5; stroke-linejoin: miter"/>
   </g>
   <g id="text_15">
    <!-- -0.17% -->
    <g style="fill: #ffffff" transform="translate(179.777005 241.766103) scale(0.09 -0.09)">
     <defs>
      <path id="MicrosoftYaHei-Bold-37" d="M 3675 4225 
Q 3088 3172 2798 2528 
Q 2509 1884 2328 1275 
Q 2147 666 2050 0 
L 966 0 
Q 1122 947 1517 1917 
Q 1913 2888 2609 4009 
L 300 4009 
L 300 4841 
L 3675 4841 
L 3675 4225 
z
" transform="scale(0.015625)"/>
      <path id="MicrosoftYaHei-Bold-25" d="M 297 3597 
Q 297 4191 626 4548 
Q 956 4906 1519 4906 
Q 2056 4906 2354 4581 
Q 2653 4256 2653 3684 
Q 2653 3097 2322 2744 
Q 1991 2391 1438 2391 
Q 919 2391 608 2722 
Q 297 3053 297 3597 
z
M 984 3631 
Q 984 2959 1478 2959 
Q 1981 2959 1981 3659 
Q 1981 4338 1500 4338 
Q 984 4338 984 3631 
z
M 4938 4841 
L 1791 -3 
L 1006 -3 
L 4147 4841 
L 4938 4841 
z
M 3297 1141 
Q 3297 1741 3631 2095 
Q 3966 2450 4522 2450 
Q 5059 2450 5357 2131 
Q 5656 1813 5656 1234 
Q 5656 641 5322 286 
Q 4988 -69 4438 -69 
Q 3922 -69 3609 264 
Q 3297 597 3297 1141 
z
M 3981 1175 
Q 3981 500 4478 500 
Q 4978 500 4978 1200 
Q 4978 1528 4845 1704 
Q 4713 1881 4491 1881 
Q 3981 1881 3981 1175 
z
" transform="scale(0.015625)"/>
     </defs>
     <use xlink:href="#MicrosoftYaHei-Bold-2d"/>
     <use xlink:href="#MicrosoftYaHei-Bold-30" transform="translate(43.652344 0)"/>
     <use xlink:href="#MicrosoftYaHei-Bold-2e" transform="translate(105.322266 0)"/>
     <use xlink:href="#MicrosoftYaHei-Bold-31" transform="translate(133.886719 0)"/>
     <use xlink:href="#MicrosoftYaHei-Bold-37" transform="translate(195.556641 0)"/>
     <use xlink:href="#MicrosoftYaHei-Bold-25" transform="translate(257.226562 0)"/>
    </g>
   </g>
   <g id="text_16">
    <!-- +0.12% -->
    <g style="fill: #dc2626" transform="translate(244.588914 205.99409) scale(0.09 -0.09)">
     <defs>
      <path id="MicrosoftYaHei-Bold-2b" d="M 4072 1653 
L 2766 1653 
L 2766 347 
L 2109 347 
L 2109 1653 
L 797 1653 
L 797 2313 
L 2109 2313 
L 2109 3625 
L 2766 3625 
L 2766 2313 
L 4072 2313 
L 4072 1653 
z
" transform="scale(0.015625)"/>
     </defs>
     <use xlink:href="#MicrosoftYaHei-Bold-2b"/>
     <use xlink:href="#MicrosoftYaHei-Bold-30" transform="translate(76.123047 0)"/>
     <use xlink:href="#MicrosoftYaHei-Bold-2e" transform="translate(137.792969 0)"/>
     <use xlink:href="#MicrosoftYaHei-Bold-31" transform="translate(166.357422 0)"/>
     <use xlink:href="#MicrosoftYaHei-Bold-32" transform="translate(228.027344 0)"/>
     <use xlink:href="#MicrosoftYaHei-Bold-25" transform="translate(289.697266 0)"/>
    </g>
   </g>
   <g id="text_17">
    <!-- +0.54% -->
    <g style="fill: #dc2626" transform="translate(282.367314 170.222078) scale(0.09 -0.09)">
     <defs>
      <path id="MicrosoftYaHei-Bold-34" d="M 3184 4841 
L 3184 1766 
L 3869 1766 
L 3869 1031 
L 3184 1031 
L 3184 0 
L 2266 0 
L 2266 1031 
L 103 1031 
L 103 1772 
Q 775 2522 1362 3359 
Q 1950 4197 2250 4841 
L 3184 4841 
z
M 997 1766 
L 2266 1766 
L 2266 3541 
Q 2116 3259 1836 2859 
Q 1556 2459 997 1766 
z
" transform="scale(0.015625)"/>
     </defs>
     <use xlink:href="#MicrosoftYaHei-Bold-2b"/>
     <use xlink:href="#MicrosoftYaHei-Bold-30" transform="translate(76.123047 0)"/>
     <use xlink:href="#MicrosoftYaHei-Bold-2e" transform="translate(137.792969 0)"/>
     <use xlink:href="#MicrosoftYaHei-Bold-35" transform="translate(166.357422 0)"/>
     <use xlink:href="#MicrosoftYaHei-Bold-34" transform="translate(228.027344 0)"/>
     <use xlink:href="#MicrosoftYaHei-Bold-25" transform="translate(289.697266 0)"/>
    </g>
   </g>
   <g id="text_18">
    <!-- -1.42% -->
    <g style="fill: #ffffff" transform="translate(67.341291 134.450066) scale(0.09 -0.09)">
     <use xlink:href="#MicrosoftYaHei-Bold-2d"/>
     <use xlink:href="#MicrosoftYaHei-Bold-31" transform="translate(43.652344 0)"/>
     <use xlink:href="#MicrosoftYaHei-Bold-2e" transform="translate(105.322266 0)"/>
     <use xlink:href="#MicrosoftYaHei-Bold-34" transform="translate(133.886719 0)"/>
     <use xlink:href="#MicrosoftYaHei-Bold-32" transform="translate(195.556641 0)"/>
     <use xlink:href="#MicrosoftYaHei-Bold-25" transform="translate(257.226562 0)"/>
    </g>
   </g>
   <g id="text_19">
    <!-- -1.49% -->
    <g style="fill: #ffffff" transform="translate(61.044891 98.678054) scale(0.09 -0.09)">
     <defs>
      <path id="MicrosoftYaHei-Bold-39" d="M 544 941 
Q 931 691 1456 691 
Q 2628 691 2653 2216 
L 2634 2222 
Q 2316 1731 1650 1731 
Q 1047 1731 658 2154 
Q 269 2578 269 3222 
Q 269 3978 737 4450 
Q 1206 4922 1959 4922 
Q 2744 4922 3191 4325 
Q 3638 3728 3638 2659 
Q 3638 1391 3098 653 
Q 2559 -84 1547 -84 
Q 975 -84 544 100 
L 544 941 
z
M 1259 3313 
Q 1259 2928 1445 2709 
Q 1631 2491 1953 2491 
Q 2241 2491 2427 2700 
Q 2613 2909 2613 3219 
Q 2613 3591 2427 3869 
Q 2241 4147 1928 4147 
Q 1625 4147 1442 3906 
Q 1259 3666 1259 3313 
z
" transform="scale(0.015625)"/>
     </defs>
     <use xlink:href="#MicrosoftYaHei-Bold-2d"/>
     <use xlink:href="#MicrosoftYaHei-Bold-31" transform="translate(43.652344 0)"/>
     <use xlink:href="#MicrosoftYaHei-Bold-2e" transform="translate(105.322266 0)"/>
     <use xlink:href="#MicrosoftYaHei-Bold-34" transform="translate(133.886719 0)"/>
     <use xlink:href="#MicrosoftYaHei-Bold-39" transform="translate(195.556641 0)"/>
     <use xlink:href="#MicrosoftYaHei-Bold-25" transform="translate(257.226562 0)"/>
    </g>
   </g>
  </g>
  <g id="text_20">
   <!-- A股主要指数涨跌幅 -->
   <g style="fill: #1e293b" transform="translate(50.3 21.99125) scale(0.14 -0.14)">
    <defs>
     <path id="MicrosoftYaHei-Bold-41" d="M 4759 0 
L 3634 0 
L 3272 1109 
L 1513 1109 
L 1156 0 
L 38 0 
L 1809 4841 
L 3022 4841 
L 4759 0 
z
M 3028 1906 
L 2478 3584 
Q 2425 3744 2403 4006 
L 2375 4006 
Q 2356 3794 2291 3597 
L 1738 1906 
L 3028 1906 
z
" transform="scale(0.015625)"/>
     <path id="MicrosoftYaHei-Bold-80a1" d="M 6044 2722 
L 6044 1966 
Q 5706 1178 5084 506 
Q 5641 163 6300 -22 
Q 6019 -478 5856 -816 
Q 5209 -616 4469 -53 
Q 3853 -516 3044 -847 
Q 2881 -575 2553 -72 
Q 2534 -347 2404 -500 
Q 2275 -653 2014 -697 
Q 1753 -741 1269 -766 
Q 1225 -441 1025 84 
Q 1231 53 1431 53 
Q 1775 53 1775 409 
L 1775 1116 
L 1141 1116 
Q 1100 3 644 -866 
Q 350 -453 63 -122 
Q 300 403 359 1097 
Q 419 1791 419 2978 
L 419 5078 
L 2556 5078 
L 2556 -56 
Q 3219 113 3828 494 
Q 3325 988 3000 1522 
L 3613 1928 
Q 3966 1419 4456 978 
Q 4894 1400 5150 1947 
L 2794 1947 
L 2794 2722 
L 6044 2722 
z
M 1775 4278 
L 1175 4278 
L 1175 3441 
L 1775 3441 
L 1775 4278 
z
M 1169 1859 
L 1775 1859 
L 1775 2697 
L 1175 2697 
Q 1175 2453 1169 1859 
z
M 5944 3809 
L 6319 3809 
L 6169 3041 
L 5500 3041 
Q 4894 3041 4894 3709 
L 4894 4303 
L 3981 4303 
Q 3981 3719 3832 3383 
Q 3684 3047 3344 2791 
Q 3075 3041 2738 3316 
Q 3097 3547 3164 3876 
Q 3231 4206 3238 5078 
L 5644 5078 
L 5644 4091 
Q 5644 3809 5944 3809 
z
" transform="scale(0.015625)"/>
     <path id="MicrosoftYaHei-Bold-4e3b" d="M 138 241 
L 2725 241 
L 2725 1409 
L 800 1409 
L 800 2222 
L 2725 2222 
L 2725 3353 
L 500 3353 
L 500 4178 
L 2922 4178 
Q 2713 4591 2450 4991 
L 3306 5378 
Q 3588 4966 3869 4459 
L 3266 4178 
L 5925 4178 
L 5925 3353 
L 3669 3353 
L 3669 2222 
L 5638 2222 
L 5638 1409 
L 3669 1409 
L 3669 241 
L 6263 241 
L 6263 -597 
L 138 -597 
L 138 241 
z
" transform="scale(0.015625)"/>
     <path id="MicrosoftYaHei-Bold-8981" d="M 106 1741 
L 1947 1741 
Q 2088 1950 2203 2153 
L 413 2153 
L 413 3991 
L 2031 3991 
L 2031 4422 
L 219 4422 
L 219 5084 
L 6181 5084 
L 6181 4422 
L 4363 4422 
L 4363 3991 
L 5981 3991 
L 5981 2153 
L 3113 2153 
Q 2981 1938 2853 1741 
L 6288 1741 
L 6288 1078 
L 5094 1078 
Q 4769 650 4322 309 
L 6000 -116 
L 5619 -878 
Q 4469 -475 3503 -181 
Q 2322 -731 569 -878 
Q 475 -522 281 -141 
Q 1525 -84 2406 131 
Q 1591 350 938 472 
Q 1219 778 1459 1078 
L 106 1078 
L 106 1741 
z
M 2781 3991 
L 3613 3991 
L 3613 4422 
L 2781 4422 
L 2781 3991 
z
M 2781 2791 
L 3613 2791 
L 3613 3353 
L 2781 3353 
L 2781 2791 
z
M 1200 2791 
L 2031 2791 
L 2031 3353 
L 1200 3353 
L 1200 2791 
z
M 5194 2791 
L 5194 3353 
L 4363 3353 
L 4363 2791 
L 5194 2791 
z
M 2169 784 
Q 2678 694 3447 519 
Q 3872 756 4147 1078 
L 2397 1078 
Q 2281 922 2169 784 
z
" transform="scale(0.015625)"/>
     <path id="MicrosoftYaHei-Bold-6da8" d="M 4944 409 
Q 4963 -72 4981 -384 
Q 4194 -628 3688 -878 
L 3331 -178 
Q 3506 9 3506 416 
L 3506 2097 
L 3200 2097 
L 3200 2866 
L 3506 2866 
L 3506 5253 
L 4281 5253 
L 4281 2866 
L 6238 2866 
L 6238 2097 
L 5225 2097 
Q 5581 797 6369 222 
Q 6063 -153 5794 -559 
Q 4825 366 4538 2097 
L 4281 2097 
L 4281 166 
Q 4663 316 4944 409 
z
M 706 5241 
Q 1225 4822 1525 4559 
L 1525 5041 
L 3119 5041 
L 3119 2791 
L 2213 2791 
L 2175 2172 
L 3119 2172 
Q 3106 1828 3031 366 
Q 2994 -297 2781 -553 
Q 2569 -822 2069 -822 
Q 1700 -822 1438 -809 
Q 1344 -191 1306 -22 
Q 1575 -53 1888 -66 
Q 2244 -78 2263 497 
Q 2281 741 2319 1403 
L 1413 1403 
L 1581 3566 
L 2400 3566 
L 2400 4266 
L 1525 4266 
L 1525 4547 
L 975 3966 
Q 619 4347 200 4728 
L 706 5241 
z
M 613 1847 
Q 975 1709 1306 1591 
Q 1125 547 881 -841 
Q 500 -716 131 -622 
Q 313 41 613 1847 
z
M 6269 4691 
Q 5588 3822 4925 3047 
L 4406 3478 
Q 4963 4178 5600 5109 
L 6269 4691 
z
M 556 3591 
Q 1088 3191 1438 2891 
L 919 2291 
Q 481 2666 88 3016 
L 556 3591 
z
" transform="scale(0.015625)"/>
     <path id="MicrosoftYaHei-Bold-8dcc" d="M 194 -578 
L 100 297 
Q 213 309 338 322 
L 338 2403 
L 963 2403 
L 963 391 
Q 1131 416 1306 434 
L 1306 2891 
L 463 2891 
L 463 5041 
L 2638 5041 
L 2638 3066 
Q 3006 4016 3213 4978 
L 3969 4809 
Q 3894 4491 3813 4178 
L 4163 4178 
Q 4175 4684 4175 5278 
L 4956 5278 
Q 4956 4716 4944 4178 
L 6075 4178 
L 6075 3416 
L 4925 3416 
Q 4913 2947 4894 2503 
L 6275 2503 
L 6275 1734 
L 5006 1734 
Q 5431 609 6325 -16 
Q 6106 -341 5831 -841 
Q 4950 -166 4525 1122 
Q 4131 -9 3031 -891 
Q 2756 -578 2350 -241 
Q 1038 -428 194 -578 
z
M 2831 2503 
L 4069 2503 
Q 4119 2878 4138 3416 
L 3594 3416 
Q 3481 3034 3350 2666 
L 2638 2941 
L 2638 2891 
L 2081 2891 
L 2081 2128 
L 2706 2128 
L 2706 1403 
L 2081 1403 
L 2081 541 
Q 2406 591 2750 641 
Q 2731 309 2725 47 
Q 3600 759 3906 1734 
L 2831 1734 
L 2831 2503 
z
M 1863 3591 
L 1863 4241 
L 1238 4241 
L 1238 3591 
L 1863 3591 
z
" transform="scale(0.015625)"/>
     <path id="MicrosoftYaHei-Bold-5e45" d="M 850 447 
L 319 447 
L 319 4278 
L 1088 4278 
L 1088 5328 
L 1763 5328 
L 1763 4278 
L 2525 4278 
L 2525 1153 
Q 2525 959 2456 723 
Q 2388 488 1844 503 
Q 1822 784 1763 1116 
L 1763 -847 
L 1088 -847 
L 1088 3528 
L 850 3528 
L 850 447 
z
M 2000 1403 
L 2000 3528 
L 1763 3528 
L 1763 1188 
Q 2000 1141 2000 1403 
z
M 2606 5016 
L 6169 5016 
L 6169 4366 
L 2606 4366 
L 2606 5016 
z
M 2919 4072 
L 5856 4072 
L 5856 2484 
L 2919 2484 
L 2919 4072 
z
M 5056 3447 
L 3719 3447 
L 3719 3109 
L 5056 3109 
L 5056 3447 
z
M 2688 2191 
L 6088 2191 
L 6088 -809 
L 5338 -809 
L 5338 -484 
L 3438 -484 
L 3438 -809 
L 2688 -809 
L 2688 2191 
z
M 3438 1141 
L 4038 1141 
L 4038 1591 
L 3438 1591 
L 3438 1141 
z
M 5338 1591 
L 4738 1591 
L 4738 1141 
L 5338 1141 
L 5338 1591 
z
M 3438 116 
L 4038 116 
L 4038 566 
L 3438 566 
L 3438 116 
z
M 4738 116 
L 5338 116 
L 5338 566 
L 4738 566 
L 4738 116 
z
" transform="scale(0.015625)"/>
    </defs>
    <use xlink:href="#MicrosoftYaHei-Bold-41"/>
    <use xlink:href="#MicrosoftYaHei-Bold-80a1" transform="translate(75.195312 0)"/>
    <use xlink:href="#MicrosoftYaHei-Bold-4e3b" transform="translate(175.195312 0)"/>
    <use xlink:href="#MicrosoftYaHei-Bold-8981" transform="translate(275.195312 0)"/>
    <use xlink:href="#MicrosoftYaHei-Bold-6307" transform="translate(375.195312 0)"/>
    <use xlink:href="#MicrosoftYaHei-Bold-6570" transform="translate(475.195312 0)"/>
    <use xlink:href="#MicrosoftYaHei-Bold-6da8" transform="translate(575.195312 0)"/>
    <use xlink:href="#MicrosoftYaHei-Bold-8dcc" transform="translate(675.195312 0)"/>
    <use xlink:href="#MicrosoftYaHei-Bold-5e45" transform="translate(775.195312 0)"/>
   </g>
  </g>
  <g id="text_21">
   <!-- 2026年5月26日 · 红涨绿跌 -->
   <g style="fill: #64748b" transform="translate(50.3 43.609937) scale(0.09 -0.09)">
    <defs>
     <path id="MicrosoftYaHei-32" d="M 2666 3572 
Q 2666 3963 2419 4186 
Q 2172 4409 1747 4409 
Q 1447 4409 1140 4256 
Q 834 4103 569 3819 
L 569 4413 
Q 806 4659 1107 4790 
Q 1409 4922 1816 4922 
Q 2472 4922 2872 4570 
Q 3272 4219 3272 3619 
Q 3272 3084 3026 2693 
Q 2781 2303 2188 1894 
Q 1581 1475 1376 1294 
Q 1172 1113 1090 947 
Q 1009 781 1009 544 
L 3416 544 
L 3416 0 
L 372 0 
L 372 241 
Q 372 659 486 951 
Q 600 1244 862 1520 
Q 1125 1797 1681 2184 
Q 2250 2584 2458 2886 
Q 2666 3188 2666 3572 
z
" transform="scale(0.015625)"/>
     <path id="MicrosoftYaHei-30" d="M 284 2325 
Q 284 3606 709 4264 
Q 1134 4922 1941 4922 
Q 3478 4922 3478 2441 
Q 3478 1216 3045 567 
Q 2613 -81 1831 -81 
Q 1094 -81 689 534 
Q 284 1150 284 2325 
z
M 909 2353 
Q 909 425 1888 425 
Q 2850 425 2850 2384 
Q 2850 4413 1906 4413 
Q 909 4413 909 2353 
z
" transform="scale(0.015625)"/>
     <path id="MicrosoftYaHei-36" d="M 3181 4219 
Q 2803 4413 2391 4413 
Q 1763 4413 1381 3866 
Q 1000 3319 994 2372 
L 1009 2372 
Q 1353 3038 2106 3038 
Q 2734 3038 3109 2628 
Q 3484 2219 3484 1541 
Q 3484 831 3051 375 
Q 2619 -81 1947 -81 
Q 1209 -81 789 495 
Q 369 1072 369 2131 
Q 369 3413 920 4167 
Q 1472 4922 2372 4922 
Q 2888 4922 3181 4781 
L 3181 4219 
z
M 1031 1584 
Q 1031 1106 1286 765 
Q 1541 425 1963 425 
Q 2363 425 2613 719 
Q 2863 1013 2863 1475 
Q 2863 1975 2627 2253 
Q 2391 2531 1956 2531 
Q 1544 2531 1287 2250 
Q 1031 1969 1031 1584 
z
" transform="scale(0.015625)"/>
     <path id="MicrosoftYaHei-5e74" d="M 119 1278 
L 1125 1278 
L 1125 3066 
L 3338 3066 
L 3338 4178 
L 1500 4178 
Q 1078 3419 556 2778 
Q 394 2953 169 3128 
Q 1056 4128 1500 5372 
L 2013 5228 
Q 1881 4919 1738 4628 
L 6038 4628 
L 6038 4178 
L 3844 4178 
L 3844 3066 
L 5931 3066 
L 5931 2628 
L 3844 2628 
L 3844 1278 
L 6319 1278 
L 6319 828 
L 3844 828 
L 3844 -859 
L 3338 -859 
L 3338 828 
L 119 828 
L 119 1278 
z
M 1619 1278 
L 3338 1278 
L 3338 2628 
L 1619 2628 
L 1619 1278 
z
" transform="scale(0.015625)"/>
     <path id="MicrosoftYaHei-35" d="M 3294 1494 
Q 3294 784 2823 350 
Q 2353 -84 1559 -84 
Q 878 -84 544 119 
L 544 744 
Q 1034 425 1544 425 
Q 2050 425 2361 704 
Q 2672 984 2672 1447 
Q 2672 1909 2348 2167 
Q 2025 2425 1434 2425 
Q 978 2425 613 2384 
L 791 4841 
L 3053 4841 
L 3053 4303 
L 1306 4303 
L 1206 2931 
L 1647 2950 
Q 2416 2950 2855 2567 
Q 3294 2184 3294 1494 
z
" transform="scale(0.015625)"/>
     <path id="MicrosoftYaHei-6708" d="M 1603 1284 
Q 1463 78 663 -897 
Q 463 -703 231 -522 
Q 838 134 1044 1041 
Q 1188 1709 1188 2891 
L 1188 5053 
L 5363 5053 
L 5363 178 
Q 5363 -747 4481 -747 
Q 4113 -747 3531 -734 
Q 3500 -509 3438 -209 
Q 4013 -247 4344 -247 
Q 4850 -247 4850 247 
L 4850 1284 
L 1603 1284 
z
M 1653 1741 
L 4850 1741 
L 4850 2941 
L 1700 2941 
Q 1700 2316 1653 1741 
z
M 1700 4584 
L 1700 3397 
L 4850 3397 
L 4850 4584 
L 1700 4584 
z
" transform="scale(0.015625)"/>
     <path id="MicrosoftYaHei-65e5" d="M 975 4909 
L 5431 4909 
L 5431 -766 
L 4900 -766 
L 4900 -322 
L 1506 -322 
L 1506 -766 
L 975 -766 
L 975 4909 
z
M 1506 2103 
L 1506 134 
L 4900 134 
L 4900 2103 
L 1506 2103 
z
M 1506 4441 
L 1506 2572 
L 4900 2572 
L 4900 4441 
L 1506 4441 
z
" transform="scale(0.015625)"/>
     <path id="MicrosoftYaHei-b7" d="M 372 2113 
Q 372 2278 490 2395 
Q 609 2513 775 2513 
Q 941 2513 1061 2397 
Q 1181 2281 1181 2113 
Q 1181 1950 1064 1831 
Q 947 1713 772 1713 
Q 600 1713 486 1831 
Q 372 1950 372 2113 
z
" transform="scale(0.015625)"/>
     <path id="MicrosoftYaHei-7ea2" d="M 2213 16 
L 4038 16 
L 4038 4253 
L 2538 4253 
L 2538 4741 
L 6081 4741 
L 6081 4253 
L 4569 4253 
L 4569 16 
L 6313 16 
L 6313 -472 
L 2213 -472 
L 2213 16 
z
M 919 1597 
Q 2063 1759 2488 1828 
Q 2450 1584 2431 1353 
Q 1644 1247 319 1041 
L 200 1503 
Q 716 2006 1241 2759 
Q 572 2719 256 2691 
L 131 3116 
Q 831 4022 1431 5347 
L 1938 5159 
Q 1319 4022 725 3153 
Q 1138 3163 1516 3175 
Q 1769 3566 2025 4016 
L 2506 3784 
Q 1688 2528 919 1597 
z
M 119 222 
Q 1231 459 2500 747 
Q 2481 497 2481 259 
Q 1475 28 263 -284 
L 119 222 
z
" transform="scale(0.015625)"/>
     <path id="MicrosoftYaHei-7eff" d="M 2138 2972 
L 5088 2972 
L 5131 3566 
L 2575 3566 
L 2575 3978 
L 5159 3978 
L 5200 4559 
L 2475 4559 
L 2475 4984 
L 5694 4984 
L 5550 2972 
L 6313 2972 
L 6313 2547 
L 4456 2547 
L 4456 2272 
Q 4638 1781 4881 1388 
Q 5381 1788 5794 2266 
L 6163 1947 
Q 5728 1497 5141 1025 
Q 5634 416 6338 116 
Q 6106 -78 5919 -284 
Q 5016 213 4456 1294 
L 4456 28 
Q 4456 -772 3681 -772 
Q 3406 -772 2869 -766 
Q 2831 -528 2775 -247 
Q 3256 -297 3563 -297 
Q 3981 -297 3981 147 
L 3981 2547 
L 2138 2547 
L 2138 2972 
z
M 875 1578 
Q 1463 1659 2094 1766 
Q 2056 1522 2038 1291 
Q 1188 1166 319 1022 
L 225 1484 
Q 553 1819 1119 2791 
Q 566 2756 231 2722 
L 113 3147 
Q 669 3891 1275 5347 
L 1744 5159 
Q 1094 3872 656 3184 
Q 997 3194 1353 3200 
Q 1581 3609 1844 4109 
L 2306 3903 
Q 1513 2522 875 1578 
z
M 94 103 
Q 931 278 2025 559 
Q 2006 222 2006 97 
Q 1156 -109 225 -372 
L 94 103 
z
M 3681 1303 
Q 3763 1072 3881 872 
Q 3313 509 2381 -116 
L 2088 297 
Q 2925 778 3681 1303 
z
M 2594 2328 
Q 3013 1984 3444 1559 
Q 3263 1397 3088 1228 
Q 2663 1697 2288 2041 
L 2594 2328 
z
" transform="scale(0.015625)"/>
    </defs>
    <use xlink:href="#MicrosoftYaHei-32"/>
    <use xlink:href="#MicrosoftYaHei-30" transform="translate(58.642578 0)"/>
    <use xlink:href="#MicrosoftYaHei-32" transform="translate(117.285156 0)"/>
    <use xlink:href="#MicrosoftYaHei-36" transform="translate(175.927734 0)"/>
    <use xlink:href="#MicrosoftYaHei-5e74" transform="translate(234.570312 0)"/>
    <use xlink:href="#MicrosoftYaHei-35" transform="translate(334.570312 0)"/>
    <use xlink:href="#MicrosoftYaHei-6708" transform="translate(393.212891 0)"/>
    <use xlink:href="#MicrosoftYaHei-32" transform="translate(493.212891 0)"/>
    <use xlink:href="#MicrosoftYaHei-36" transform="translate(551.855469 0)"/>
    <use xlink:href="#MicrosoftYaHei-65e5" transform="translate(610.498047 0)"/>
    <use xlink:href="#MicrosoftYaHei-20" transform="translate(710.498047 0)"/>
    <use xlink:href="#MicrosoftYaHei-b7" transform="translate(740.087891 0)"/>
    <use xlink:href="#MicrosoftYaHei-20" transform="translate(764.160156 0)"/>
    <use xlink:href="#MicrosoftYaHei-7ea2" transform="translate(793.75 0)"/>
    <use xlink:href="#MicrosoftYaHei-6da8" transform="translate(893.75 0)"/>
    <use xlink:href="#MicrosoftYaHei-7eff" transform="translate(993.75 0)"/>
    <use xlink:href="#MicrosoftYaHei-8dcc" transform="translate(1093.75 0)"/>
   </g>
  </g>
  <g id="text_22">
   <!-- 来源: 上交所/深交所 · 2026-05-26 -->
   <g style="fill: #94a3b8" transform="translate(50.3 268.727703) scale(0.065 -0.065)">
    <defs>
     <path id="MicrosoftYaHei-6765" d="M 6325 141 
Q 6119 -122 5975 -334 
Q 4344 403 3438 1550 
L 3438 -841 
L 2963 -841 
L 2963 1584 
Q 2050 516 413 -409 
Q 281 -222 75 22 
Q 1706 841 2806 1922 
L 181 1922 
L 181 2359 
L 2963 2359 
L 2963 4003 
L 550 4003 
L 550 4441 
L 2963 4441 
L 2963 5341 
L 3438 5341 
L 3438 4441 
L 5900 4441 
L 5900 4003 
L 3438 4003 
L 3438 2359 
L 6225 2359 
L 6225 1922 
L 3566 1922 
Q 4594 778 6325 141 
z
M 4056 2766 
Q 4631 3378 4950 3828 
L 5381 3497 
Q 4913 2941 4419 2453 
L 4056 2766 
z
M 1075 3509 
L 1438 3803 
Q 1900 3347 2313 2828 
L 1900 2484 
Q 1581 2922 1075 3509 
z
" transform="scale(0.015625)"/>
     <path id="MicrosoftYaHei-6e90" d="M 2931 3741 
L 3744 3741 
Q 3878 4094 4006 4478 
L 2425 4478 
L 2425 2678 
Q 2425 222 1463 -841 
Q 1313 -647 1100 -453 
Q 1963 509 1963 2672 
L 1963 4903 
L 6300 4903 
L 6300 4478 
L 4547 4478 
Q 4375 4103 4194 3741 
L 5844 3741 
L 5844 1178 
L 5394 1178 
L 5394 1341 
L 4588 1341 
L 4588 -128 
Q 4588 -797 3938 -797 
Q 3725 -797 3394 -791 
Q 3363 -603 3306 -359 
Q 3619 -384 3850 -384 
Q 4138 -384 4138 -84 
L 4138 1341 
L 3381 1341 
L 3381 1178 
L 2931 1178 
L 2931 3741 
z
M 831 1878 
Q 1056 1734 1275 1666 
Q 1019 603 700 -766 
L 219 -603 
Q 581 678 831 1878 
z
M 3381 1753 
L 5394 1753 
L 5394 2347 
L 3381 2347 
L 3381 1753 
z
M 5394 3328 
L 3381 3328 
L 3381 2747 
L 5394 2747 
L 5394 3328 
z
M 6288 -241 
L 5894 -541 
Q 5450 128 4931 759 
L 5294 1016 
Q 5863 353 6288 -241 
z
M 2363 -297 
Q 2894 272 3306 984 
L 3706 741 
Q 3231 -16 2731 -584 
L 2363 -297 
z
M 400 3622 
Q 888 3272 1500 2784 
Q 1281 2522 1144 2378 
Q 544 2909 88 3266 
L 400 3622 
z
M 669 5228 
Q 1163 4859 1688 4384 
Q 1469 4172 1313 4003 
Q 769 4541 350 4884 
L 669 5228 
z
" transform="scale(0.015625)"/>
     <path id="MicrosoftYaHei-3a" d="M 372 3134 
Q 372 3303 490 3415 
Q 609 3528 775 3528 
Q 944 3528 1062 3414 
Q 1181 3300 1181 3134 
Q 1181 2969 1065 2853 
Q 950 2738 772 2738 
Q 603 2738 487 2853 
Q 372 2969 372 3134 
z
M 372 322 
Q 372 491 487 606 
Q 603 722 775 722 
Q 950 722 1065 605 
Q 1181 488 1181 322 
Q 1181 159 1065 42 
Q 950 -75 772 -75 
Q 600 -75 486 42 
Q 372 159 372 322 
z
" transform="scale(0.015625)"/>
     <path id="MicrosoftYaHei-4e0a" d="M 163 47 
L 2613 47 
L 2613 5209 
L 3181 5209 
L 3181 3328 
L 5750 3328 
L 5750 2828 
L 3181 2828 
L 3181 47 
L 6244 47 
L 6244 -453 
L 163 -453 
L 163 47 
z
" transform="scale(0.015625)"/>
     <path id="MicrosoftYaHei-4ea4" d="M 4194 2641 
L 4675 2434 
Q 4209 1375 3566 713 
Q 4503 19 6225 -278 
Q 5994 -591 5850 -803 
Q 4184 -378 3194 375 
Q 2334 -297 463 -847 
Q 325 -628 150 -366 
Q 1909 78 2803 713 
Q 2184 1344 1738 2359 
L 2156 2597 
Q 2566 1669 3194 1041 
Q 3766 1609 4194 2641 
z
M 194 4384 
L 3122 4384 
Q 2975 4691 2700 5128 
L 3163 5353 
Q 3431 4978 3638 4566 
L 3288 4384 
L 6194 4384 
L 6194 3922 
L 194 3922 
L 194 4384 
z
M 2044 3634 
L 2444 3309 
Q 1569 2391 625 1666 
Q 469 1859 275 2066 
Q 1219 2734 2044 3634 
z
M 4288 3666 
Q 5431 2766 6075 2159 
Q 5900 1984 5700 1753 
Q 4994 2478 3944 3341 
L 4288 3666 
z
" transform="scale(0.015625)"/>
     <path id="MicrosoftYaHei-6240" d="M 638 4853 
Q 1675 4872 2806 5109 
L 2969 4641 
Q 2044 4503 1088 4434 
L 1088 3466 
L 2725 3466 
L 2725 1159 
L 2288 1159 
L 2288 1434 
L 1063 1434 
Q 959 3 406 -834 
Q 238 -628 63 -453 
Q 638 334 638 2134 
L 638 4853 
z
M 3325 4816 
Q 4813 4872 6031 5091 
L 6200 4616 
Q 4638 4441 3788 4391 
L 3788 2997 
L 6319 2997 
L 6319 2566 
L 5350 2566 
L 5350 -809 
L 4881 -809 
L 4881 2566 
L 3788 2566 
L 3788 2216 
Q 3788 247 2694 -878 
Q 2513 -666 2338 -466 
Q 3325 547 3325 2228 
L 3325 4816 
z
M 2288 1847 
L 2288 3053 
L 1088 3053 
Q 1088 2122 1084 1847 
L 2288 1847 
z
" transform="scale(0.015625)"/>
     <path id="MicrosoftYaHei-2f" d="M 2791 4841 
L 469 -803 
L -103 -803 
L 2219 4841 
L 2791 4841 
z
" transform="scale(0.015625)"/>
     <path id="MicrosoftYaHei-6df1" d="M 6319 141 
Q 6138 -84 5963 -303 
Q 4906 388 4250 1475 
L 4250 -816 
L 3756 -816 
L 3756 1494 
Q 3050 413 1906 -372 
Q 1681 -116 1531 22 
Q 2884 809 3625 1828 
L 1869 1828 
L 1869 2284 
L 3756 2284 
L 3756 3066 
L 4250 3066 
L 4250 2284 
L 6181 2284 
L 6181 1828 
L 4350 1828 
Q 5150 747 6319 141 
z
M 2038 4903 
L 6063 4903 
L 6063 3866 
L 5563 3866 
L 5563 4428 
L 2538 4428 
L 2538 3847 
L 2038 3847 
L 2038 4903 
z
M 981 1853 
Q 1244 1734 1494 1634 
Q 1200 616 763 -766 
L 231 -566 
Q 669 603 981 1853 
z
M 3406 4047 
L 3738 3709 
Q 2963 3028 2256 2547 
Q 2125 2747 1950 2947 
Q 2775 3459 3406 4047 
z
M 4288 3716 
L 4588 4047 
Q 5381 3509 6081 2947 
L 5750 2559 
Q 5063 3172 4288 3716 
z
M 663 5209 
Q 1356 4734 1894 4309 
Q 1694 4078 1544 3903 
Q 850 4497 356 4853 
L 663 5209 
z
M 406 3647 
Q 1094 3209 1625 2803 
Q 1531 2709 1288 2391 
Q 769 2822 100 3291 
L 406 3647 
z
" transform="scale(0.015625)"/>
     <path id="MicrosoftYaHei-2d" d="M 2328 1681 
L 488 1681 
L 488 2153 
L 2328 2153 
L 2328 1681 
z
" transform="scale(0.015625)"/>
    </defs>
    <use xlink:href="#MicrosoftYaHei-6765"/>
    <use xlink:href="#MicrosoftYaHei-6e90" transform="translate(100 0)"/>
    <use xlink:href="#MicrosoftYaHei-3a" transform="translate(200 0)"/>
    <use xlink:href="#MicrosoftYaHei-20" transform="translate(224.072266 0)"/>
    <use xlink:href="#MicrosoftYaHei-4e0a" transform="translate(253.662109 0)"/>
    <use xlink:href="#MicrosoftYaHei-4ea4" transform="translate(353.662109 0)"/>
    <use xlink:href="#MicrosoftYaHei-6240" transform="translate(453.662109 0)"/>
    <use xlink:href="#MicrosoftYaHei-2f" transform="translate(553.662109 0)"/>
    <use xlink:href="#MicrosoftYaHei-6df1" transform="translate(596.386719 0)"/>
    <use xlink:href="#MicrosoftYaHei-4ea4" transform="translate(696.386719 0)"/>
    <use xlink:href="#MicrosoftYaHei-6240" transform="translate(796.386719 0)"/>
    <use xlink:href="#MicrosoftYaHei-20" transform="translate(896.386719 0)"/>
    <use xlink:href="#MicrosoftYaHei-b7" transform="translate(925.976562 0)"/>
    <use xlink:href="#MicrosoftYaHei-20" transform="translate(950.048828 0)"/>
    <use xlink:href="#MicrosoftYaHei-32" transform="translate(979.638672 0)"/>
    <use xlink:href="#MicrosoftYaHei-30" transform="translate(1038.28125 0)"/>
    <use xlink:href="#MicrosoftYaHei-32" transform="translate(1096.923828 0)"/>
    <use xlink:href="#MicrosoftYaHei-36" transform="translate(1155.566406 0)"/>
    <use xlink:href="#MicrosoftYaHei-2d" transform="translate(1214.208984 0)"/>
    <use xlink:href="#MicrosoftYaHei-30" transform="translate(1257.470703 0)"/>
    <use xlink:href="#MicrosoftYaHei-35" transform="translate(1316.113281 0)"/>
    <use xlink:href="#MicrosoftYaHei-2d" transform="translate(1374.755859 0)"/>
    <use xlink:href="#MicrosoftYaHei-32" transform="translate(1418.017578 0)"/>
    <use xlink:href="#MicrosoftYaHei-36" transform="translate(1476.660156 0)"/>
   </g>
  </g>
 </g>
 <defs>
  <clipPath id="pbdc77b27c6">
   <rect x="50.3" y="80.191562" width="314.82" height="175.104"/>
  </clipPath>
 </defs>
</svg>
