<?xml version="1.0" encoding="utf-8" standalone="no"?>
<!DOCTYPE svg PUBLIC "-//W3C//DTD SVG 1.1//EN"
  "http://www.w3.org/Graphics/SVG/1.1/DTD/svg11.dtd">
<svg xmlns:xlink="http://www.w3.org/1999/xlink" width="374.615pt" height="292.628687pt" viewBox="0 0 374.615 292.628687" xmlns="http://www.w3.org/2000/svg" version="1.1">
 <metadata>
  <rdf:RDF xmlns:dc="http://purl.org/dc/elements/1.1/" xmlns:cc="http://creativecommons.org/ns#" xmlns:rdf="http://www.w3.org/1999/02/22-rdf-syntax-ns#">
   <cc:Work>
    <dc:type rdf:resource="http://purl.org/dc/dcmitype/StillImage"/>
    <dc:date>2026-06-23T21:30:41.444464</dc:date>
    <dc:format>image/svg+xml</dc:format>
    <dc:creator>
     <cc:Agent>
      <dc:title>Matplotlib v3.11.0, https://matplotlib.org/</dc:title>
     </cc:Agent>
    </dc:creator>
   </cc:Work>
  </rdf:RDF>
 </metadata>
 <defs>
  <style type="text/css">*{stroke-linejoin: round; stroke-linecap: butt}</style>
 </defs>
 <g id="figure_1">
  <g id="patch_1">
   <path d="M 0 292.628687 
L 374.615 292.628687 
L 374.615 0 
L 0 0 
z
" style="fill: #ffffff"/>
  </g>
  <g id="axes_1">
   <g id="patch_2">
    <path d="M 41.3 255.617125 
L 356.12 255.617125 
L 356.12 80.513125 
L 41.3 80.513125 
z
" style="fill: #ffffff"/>
   </g>
   <g id="matplotlib.axis_1">
    <g id="xtick_1">
     <g id="line2d_1">
      <path d="M 41.3 255.617125 
L 41.3 80.513125 
" clip-path="url(#pa43c640547)" style="fill: none; stroke: #e2e8f0; stroke-opacity: 0.4; stroke-width: 0.5; stroke-linecap: square"/>
     </g>
     <g id="line2d_2"/>
     <g id="text_1">
      <!-- 0 -->
      <g style="fill: #94a3b8" transform="translate(38.735 267.037125) scale(0.09 -0.09)">
       <defs>
        <path id="NotoSansSC-Medium-11" d="M 1824 -83 
C 2746 -83 3347 736 3347 2374 
C 3347 4000 2746 4800 1824 4800 
C 902 4800 301 4006 301 2374 
C 301 736 902 -83 1824 -83 
z
M 1824 499 
C 1344 499 1005 1011 1005 2374 
C 1005 3725 1344 4218 1824 4218 
C 2304 4218 2643 3725 2643 2374 
C 2643 1011 2304 499 1824 499 
z
" transform="scale(0.015625)"/>
       </defs>
       <use xlink:href="#NotoSansSC-Medium-11"/>
      </g>
     </g>
    </g>
    <g id="xtick_2">
     <g id="line2d_3">
      <path d="M 80.6525 255.617125 
L 80.6525 80.513125 
" clip-path="url(#pa43c640547)" style="fill: none; stroke: #e2e8f0; stroke-opacity: 0.4; stroke-width: 0.5; stroke-linecap: square"/>
     </g>
     <g id="line2d_4"/>
     <g id="text_2">
      <!-- 50 -->
      <g style="fill: #94a3b8" transform="translate(75.5225 267.037125) scale(0.09 -0.09)">
       <defs>
        <path id="NotoSansSC-Medium-16" d="M 1715 -83 
C 2541 -83 3302 506 3302 1549 
C 3302 2579 2656 3046 1869 3046 
C 1613 3046 1427 2982 1222 2880 
L 1331 4090 
L 3078 4090 
L 3078 4717 
L 691 4717 
L 550 2477 
L 909 2240 
C 1184 2419 1363 2509 1664 2509 
C 2202 2509 2560 2150 2560 1523 
C 2560 896 2157 518 1626 518 
C 1133 518 794 755 525 1024 
L 173 544 
C 506 218 973 -83 1715 -83 
z
" transform="scale(0.015625)"/>
       </defs>
       <use xlink:href="#NotoSansSC-Medium-16"/>
       <use xlink:href="#NotoSansSC-Medium-11" transform="translate(57 0)"/>
      </g>
     </g>
    </g>
    <g id="xtick_3">
     <g id="line2d_5">
      <path d="M 120.005 255.617125 
L 120.005 80.513125 
" clip-path="url(#pa43c640547)" style="fill: none; stroke: #e2e8f0; stroke-opacity: 0.4; stroke-width: 0.5; stroke-linecap: square"/>
     </g>
     <g id="line2d_6"/>
     <g id="text_3">
      <!-- 100 -->
      <g style="fill: #94a3b8" transform="translate(112.31 267.037125) scale(0.09 -0.09)">
       <defs>
        <path id="NotoSansSC-Medium-12" d="M 550 0 
L 3238 0 
L 3238 608 
L 2317 608 
L 2317 4717 
L 1760 4717 
C 1491 4544 1178 4435 736 4352 
L 736 3885 
L 1581 3885 
L 1581 608 
L 550 608 
L 550 0 
z
" transform="scale(0.015625)"/>
       </defs>
       <use xlink:href="#NotoSansSC-Medium-12"/>
       <use xlink:href="#NotoSansSC-Medium-11" transform="translate(57 0)"/>
       <use xlink:href="#NotoSansSC-Medium-11" transform="translate(114 0)"/>
      </g>
     </g>
    </g>
    <g id="xtick_4">
     <g id="line2d_7">
      <path d="M 159.3575 255.617125 
L 159.3575 80.513125 
" clip-path="url(#pa43c640547)" style="fill: none; stroke: #e2e8f0; stroke-opacity: 0.4; stroke-width: 0.5; stroke-linecap: square"/>
     </g>
     <g id="line2d_8"/>
     <g id="text_4">
      <!-- 150 -->
      <g style="fill: #94a3b8" transform="translate(151.6625 267.037125) scale(0.09 -0.09)">
       <use xlink:href="#NotoSansSC-Medium-12"/>
       <use xlink:href="#NotoSansSC-Medium-16" transform="translate(57 0)"/>
       <use xlink:href="#NotoSansSC-Medium-11" transform="translate(114 0)"/>
      </g>
     </g>
    </g>
    <g id="xtick_5">
     <g id="line2d_9">
      <path d="M 198.71 255.617125 
L 198.71 80.513125 
" clip-path="url(#pa43c640547)" style="fill: none; stroke: #e2e8f0; stroke-opacity: 0.4; stroke-width: 0.5; stroke-linecap: square"/>
     </g>
     <g id="line2d_10"/>
     <g id="text_5">
      <!-- 200 -->
      <g style="fill: #94a3b8" transform="translate(191.015 267.037125) scale(0.09 -0.09)">
       <defs>
        <path id="NotoSansSC-Medium-13" d="M 282 0 
L 3322 0 
L 3322 627 
L 2144 627 
C 1914 627 1619 608 1376 582 
C 2374 1536 3098 2477 3098 3386 
C 3098 4237 2541 4800 1677 4800 
C 1062 4800 646 4538 243 4096 
L 659 3686 
C 909 3974 1216 4211 1587 4211 
C 2118 4211 2387 3859 2387 3347 
C 2387 2573 1670 1658 282 429 
L 282 0 
z
" transform="scale(0.015625)"/>
       </defs>
       <use xlink:href="#NotoSansSC-Medium-13"/>
       <use xlink:href="#NotoSansSC-Medium-11" transform="translate(57 0)"/>
       <use xlink:href="#NotoSansSC-Medium-11" transform="translate(114 0)"/>
      </g>
     </g>
    </g>
    <g id="xtick_6">
     <g id="line2d_11">
      <path d="M 238.0625 255.617125 
L 238.0625 80.513125 
" clip-path="url(#pa43c640547)" style="fill: none; stroke: #e2e8f0; stroke-opacity: 0.4; stroke-width: 0.5; stroke-linecap: square"/>
     </g>
     <g id="line2d_12"/>
     <g id="text_6">
      <!-- 250 -->
      <g style="fill: #94a3b8" transform="translate(230.3675 267.037125) scale(0.09 -0.09)">
       <use xlink:href="#NotoSansSC-Medium-13"/>
       <use xlink:href="#NotoSansSC-Medium-16" transform="translate(57 0)"/>
       <use xlink:href="#NotoSansSC-Medium-11" transform="translate(114 0)"/>
      </g>
     </g>
    </g>
    <g id="xtick_7">
     <g id="line2d_13">
      <path d="M 277.415 255.617125 
L 277.415 80.513125 
" clip-path="url(#pa43c640547)" style="fill: none; stroke: #e2e8f0; stroke-opacity: 0.4; stroke-width: 0.5; stroke-linecap: square"/>
     </g>
     <g id="line2d_14"/>
     <g id="text_7">
      <!-- 300 -->
      <g style="fill: #94a3b8" transform="translate(269.72 267.037125) scale(0.09 -0.09)">
       <defs>
        <path id="NotoSansSC-Medium-14" d="M 1715 -83 
C 2579 -83 3290 416 3290 1267 
C 3290 1901 2861 2310 2317 2445 
L 2317 2477 
C 2816 2662 3130 3040 3130 3584 
C 3130 4358 2534 4800 1690 4800 
C 1146 4800 710 4563 339 4230 
L 723 3770 
C 992 4032 1299 4205 1664 4211 
C 2112 4205 2387 3949 2387 3533 
C 2387 3059 2080 2707 1152 2707 
L 1152 2163 
C 2214 2163 2547 1824 2547 1306 
C 2547 813 2182 518 1651 518 
C 1165 518 813 755 538 1037 
L 179 563 
C 493 211 973 -83 1715 -83 
z
" transform="scale(0.015625)"/>
       </defs>
       <use xlink:href="#NotoSansSC-Medium-14"/>
       <use xlink:href="#NotoSansSC-Medium-11" transform="translate(57 0)"/>
       <use xlink:href="#NotoSansSC-Medium-11" transform="translate(114 0)"/>
      </g>
     </g>
    </g>
    <g id="xtick_8">
     <g id="line2d_15">
      <path d="M 316.7675 255.617125 
L 316.7675 80.513125 
" clip-path="url(#pa43c640547)" style="fill: none; stroke: #e2e8f0; stroke-opacity: 0.4; stroke-width: 0.5; stroke-linecap: square"/>
     </g>
     <g id="line2d_16"/>
     <g id="text_8">
      <!-- 350 -->
      <g style="fill: #94a3b8" transform="translate(309.0725 267.037125) scale(0.09 -0.09)">
       <use xlink:href="#NotoSansSC-Medium-14"/>
       <use xlink:href="#NotoSansSC-Medium-16" transform="translate(57 0)"/>
       <use xlink:href="#NotoSansSC-Medium-11" transform="translate(114 0)"/>
      </g>
     </g>
    </g>
    <g id="xtick_9">
     <g id="line2d_17">
      <path d="M 356.12 255.617125 
L 356.12 80.513125 
" clip-path="url(#pa43c640547)" style="fill: none; stroke: #e2e8f0; stroke-opacity: 0.4; stroke-width: 0.5; stroke-linecap: square"/>
     </g>
     <g id="line2d_18"/>
     <g id="text_9">
      <!-- 400 -->
      <g style="fill: #94a3b8" transform="translate(348.425 267.037125) scale(0.09 -0.09)">
       <defs>
        <path id="NotoSansSC-Medium-15" d="M 870 1837 
L 1798 3258 
C 1933 3501 2061 3744 2176 3987 
L 2202 3987 
C 2189 3725 2170 3328 2170 3072 
L 2170 1837 
L 870 1837 
z
M 2170 0 
L 2861 0 
L 2861 1267 
L 3456 1267 
L 3456 1837 
L 2861 1837 
L 2861 4717 
L 2003 4717 
L 128 1760 
L 128 1267 
L 2170 1267 
L 2170 0 
z
" transform="scale(0.015625)"/>
       </defs>
       <use xlink:href="#NotoSansSC-Medium-15"/>
       <use xlink:href="#NotoSansSC-Medium-11" transform="translate(57 0)"/>
       <use xlink:href="#NotoSansSC-Medium-11" transform="translate(114 0)"/>
      </g>
     </g>
    </g>
    <g id="text_10">
     <!-- 购金量 (吨) -->
     <g style="fill: #64748b" transform="translate(176.5025 280.037125) scale(0.09 -0.09)">
      <defs>
       <path id="NotoSansSC-Medium-60df" d="M 1824 4032 
L 1357 4032 
L 1357 2368 
C 1357 1581 1286 493 250 -128 
C 352 -218 512 -378 576 -480 
C 1677 256 1824 1446 1824 2362 
L 1824 4032 
z
M 1658 736 
C 1971 378 2349 -102 2534 -403 
L 2944 -83 
C 2758 205 2355 678 2054 1011 
L 1658 736 
z
M 5178 1018 
C 5094 1408 4883 2054 4678 2547 
L 4262 2413 
C 4352 2182 4442 1920 4518 1664 
L 3635 1491 
C 3878 2010 4109 2650 4262 3245 
L 3718 3392 
C 3597 2688 3309 1901 3213 1702 
C 3123 1485 3040 1350 2938 1325 
C 3002 1184 3085 928 3117 819 
C 3238 890 3437 960 4646 1216 
C 4685 1075 4704 960 4723 851 
L 5178 1018 
z
M 3885 4390 
C 3987 4666 4077 4954 4154 5242 
L 3584 5370 
C 3398 4582 3078 3795 2669 3290 
L 2669 5005 
L 499 5005 
L 499 1152 
L 960 1152 
L 960 4474 
L 2195 4474 
L 2195 1171 
L 2669 1171 
L 2669 3251 
C 2803 3155 3027 2982 3123 2893 
C 3315 3155 3501 3482 3661 3846 
L 5395 3846 
C 5338 1344 5261 384 5088 186 
C 5018 90 4954 70 4851 77 
C 4710 77 4422 77 4096 102 
C 4198 -64 4262 -320 4275 -493 
C 4589 -506 4902 -512 5107 -480 
C 5318 -448 5459 -384 5600 -186 
C 5830 128 5894 1133 5971 4096 
C 5978 4179 5978 4390 5978 4390 
L 3885 4390 
z
" transform="scale(0.015625)"/>
       <path id="NotoSansSC-Medium-6583" d="M 1920 3494 
C 2400 3782 2835 4128 3206 4531 
C 3590 4147 4064 3795 4563 3494 
L 1920 3494 
z
M 4851 2944 
L 4851 3334 
C 5171 3162 5491 3008 5805 2899 
C 5894 3053 6080 3290 6214 3418 
C 5254 3699 4179 4307 3552 4934 
C 3610 5011 3661 5094 3718 5178 
L 3162 5427 
C 2554 4486 1395 3782 205 3418 
C 352 3270 518 3040 602 2867 
C 922 2982 1229 3123 1530 3277 
L 1530 2944 
L 2867 2944 
L 2867 2170 
L 755 2170 
L 755 1632 
L 2867 1632 
L 2867 205 
L 461 205 
L 461 -339 
L 5952 -339 
L 5952 205 
L 3501 205 
L 3501 1632 
L 5645 1632 
L 5645 2170 
L 3501 2170 
L 3501 2944 
L 4851 2944 
z
M 4442 230 
C 4659 518 4941 954 5184 1357 
L 4608 1568 
C 4474 1216 4205 730 3987 422 
L 4442 230 
z
M 1242 1376 
C 1472 1018 1722 538 1811 237 
L 2330 461 
C 2227 762 1971 1229 1728 1568 
L 1242 1376 
z
" transform="scale(0.015625)"/>
       <path id="NotoSansSC-Medium-6581" d="M 4646 4557 
L 1722 4557 
L 1722 4845 
L 4646 4845 
L 4646 4557 
z
M 4646 3949 
L 1722 3949 
L 1722 4243 
L 4646 4243 
L 4646 3949 
z
M 5248 5171 
L 1146 5171 
L 1146 3622 
L 5248 3622 
L 5248 5171 
z
M 6067 3379 
L 352 3379 
L 352 2944 
L 6067 2944 
L 6067 3379 
z
M 1594 1440 
L 1594 1741 
L 2906 1741 
L 2906 1440 
L 1594 1440 
z
M 1594 2362 
L 2906 2362 
L 2906 2067 
L 1594 2067 
L 1594 2362 
z
M 4838 2067 
L 3482 2067 
L 3482 2362 
L 4838 2362 
L 4838 2067 
z
M 4838 1440 
L 3482 1440 
L 3482 1741 
L 4838 1741 
L 4838 1440 
z
M 3482 102 
L 3482 410 
L 5549 410 
L 5549 813 
L 3482 813 
L 3482 1101 
L 5421 1101 
L 5421 2701 
L 1030 2701 
L 1030 1101 
L 2906 1101 
L 2906 813 
L 870 813 
L 870 410 
L 2906 410 
L 2906 102 
L 326 102 
L 326 -352 
L 6093 -352 
L 6093 102 
L 3482 102 
z
" transform="scale(0.015625)"/>
       <path id="NotoSansSC-Medium-1" transform="scale(0.015625)"/>
       <path id="NotoSansSC-Medium-9" d="M 1517 -1274 
L 1978 -1069 
C 1427 -154 1171 928 1171 2003 
C 1171 3072 1427 4154 1978 5075 
L 1517 5274 
C 922 4307 570 3264 570 2003 
C 570 730 922 -301 1517 -1274 
z
" transform="scale(0.015625)"/>
       <path id="NotoSansSC-Medium-2819" d="M 1613 4237 
L 1613 1715 
L 1018 1715 
L 1018 4237 
L 1613 4237 
z
M 2144 4787 
L 480 4787 
L 480 576 
L 1018 576 
L 1018 1165 
L 2144 1165 
L 2144 4787 
z
M 4774 77 
C 4678 77 4621 83 4550 109 
C 4486 141 4461 256 4461 422 
L 4461 1203 
L 5216 1203 
L 5216 902 
L 5786 902 
L 5786 3501 
L 5216 3501 
L 5216 1747 
L 4461 1747 
L 4461 3981 
L 6086 3981 
L 6086 4531 
L 4461 4531 
L 4461 5357 
L 3866 5357 
L 3866 4531 
L 2368 4531 
L 2368 3981 
L 3866 3981 
L 3866 1747 
L 3123 1747 
L 3123 3501 
L 2560 3501 
L 2560 1203 
L 3866 1203 
L 3866 448 
C 3866 -102 3949 -237 4096 -339 
C 4243 -435 4467 -474 4646 -474 
L 5242 -474 
C 5414 -474 5606 -454 5734 -416 
C 5888 -365 5984 -288 6042 -154 
C 6099 -26 6150 275 6157 538 
C 5965 595 5754 691 5619 813 
C 5613 544 5594 326 5568 243 
C 5549 147 5491 115 5434 96 
C 5382 83 5286 77 5190 77 
L 4774 77 
z
" transform="scale(0.015625)"/>
       <path id="NotoSansSC-Medium-a" d="M 755 -1274 
C 1357 -301 1709 730 1709 2003 
C 1709 3264 1357 4307 755 5274 
L 294 5075 
C 845 4154 1101 3072 1101 2003 
C 1101 928 845 -154 294 -1069 
L 755 -1274 
z
" transform="scale(0.015625)"/>
      </defs>
      <use xlink:href="#NotoSansSC-Medium-60df"/>
      <use xlink:href="#NotoSansSC-Medium-6583" transform="translate(100 0)"/>
      <use xlink:href="#NotoSansSC-Medium-6581" transform="translate(200 0)"/>
      <use xlink:href="#NotoSansSC-Medium-1" transform="translate(300 0)"/>
      <use xlink:href="#NotoSansSC-Medium-9" transform="translate(322.5 0)"/>
      <use xlink:href="#NotoSansSC-Medium-2819" transform="translate(358 0)"/>
      <use xlink:href="#NotoSansSC-Medium-a" transform="translate(458 0)"/>
     </g>
    </g>
   </g>
   <g id="matplotlib.axis_2">
    <g id="ytick_1">
     <g id="line2d_19">
      <path d="M 41.3 241.085976 
L 356.12 241.085976 
" clip-path="url(#pa43c640547)" style="fill: none; stroke: #e2e8f0; stroke-opacity: 0.6; stroke-width: 0.5; stroke-linecap: square"/>
     </g>
     <g id="line2d_20"/>
     <g id="text_11">
      <!-- 中国 -->
      <g style="fill: #94a3b8" transform="translate(19.8 245.045976) scale(0.09 -0.09)">
       <defs>
        <path id="NotoSansSC-Medium-2228" d="M 3494 2118 
L 3494 3667 
L 5158 3667 
L 5158 2118 
L 3494 2118 
z
M 1216 2118 
L 1216 3667 
L 2874 3667 
L 2874 2118 
L 1216 2118 
z
M 3494 4250 
L 3494 5363 
L 2874 5363 
L 2874 4250 
L 621 4250 
L 621 1158 
L 1216 1158 
L 1216 1536 
L 2874 1536 
L 2874 -499 
L 3494 -499 
L 3494 1536 
L 5158 1536 
L 5158 1190 
L 5779 1190 
L 5779 4250 
L 3494 4250 
z
" transform="scale(0.015625)"/>
        <path id="NotoSansSC-Medium-2ae8" d="M 4339 1344 
L 4730 1581 
C 4608 1760 4352 2048 4134 2246 
L 3757 2042 
C 3968 1830 4211 1542 4326 1344 
L 3443 1344 
L 3443 2291 
L 4640 2291 
L 4640 2797 
L 3443 2797 
L 3443 3571 
L 4781 3571 
L 4781 4096 
L 1587 4096 
L 1587 3571 
L 2886 3571 
L 2886 2797 
L 1754 2797 
L 1754 2291 
L 2886 2291 
L 2886 1344 
L 1498 1344 
L 1498 851 
L 4909 851 
L 4909 1344 
L 4339 1344 
z
M 1152 358 
L 1152 4544 
L 5210 4544 
L 5210 358 
L 1152 358 
z
M 550 5094 
L 550 -506 
L 1152 -506 
L 1152 -192 
L 5210 -192 
L 5210 -506 
L 5843 -506 
L 5843 5094 
L 550 5094 
z
" transform="scale(0.015625)"/>
       </defs>
       <use xlink:href="#NotoSansSC-Medium-2228"/>
       <use xlink:href="#NotoSansSC-Medium-2ae8" transform="translate(100 0)"/>
      </g>
     </g>
    </g>
    <g id="ytick_2">
     <g id="line2d_21">
      <path d="M 41.3 211.877635 
L 356.12 211.877635 
" clip-path="url(#pa43c640547)" style="fill: none; stroke: #e2e8f0; stroke-opacity: 0.6; stroke-width: 0.5; stroke-linecap: square"/>
     </g>
     <g id="line2d_22"/>
     <g id="text_12">
      <!-- 波兰 -->
      <g style="fill: #94a3b8" transform="translate(19.8 215.837635) scale(0.09 -0.09)">
       <defs>
        <path id="NotoSansSC-Medium-40b6" d="M 2054 4653 
C 1805 4851 1299 5133 941 5312 
L 602 4883 
C 973 4685 1472 4371 1702 4173 
L 2054 4653 
z
M 1722 2989 
C 1466 3174 947 3443 576 3610 
L 243 3168 
C 621 2982 1139 2694 1376 2496 
L 1722 2989 
z
M 1434 1965 
C 1114 1242 691 416 390 -70 
L 915 -429 
C 1242 173 1606 941 1888 1606 
L 1434 1965 
z
M 4979 2387 
C 4806 1901 4557 1485 4250 1139 
C 3917 1498 3648 1920 3456 2387 
L 4979 2387 
z
M 3770 3930 
L 3770 2912 
L 2835 2912 
L 2835 3930 
L 3770 3930 
z
M 5331 2938 
L 5216 2912 
L 4352 2912 
L 4352 3930 
L 5357 3930 
C 5267 3674 5171 3418 5088 3232 
L 5594 3085 
C 5773 3411 5971 3930 6125 4397 
L 5696 4506 
L 5594 4486 
L 4352 4486 
L 4352 5370 
L 3770 5370 
L 3770 4486 
L 2266 4486 
L 2266 2874 
C 2266 1952 2202 685 1530 -205 
C 1677 -256 1926 -403 2035 -499 
C 2624 294 2790 1446 2829 2387 
L 2893 2387 
C 3123 1760 3443 1210 3853 742 
C 3437 403 2957 154 2426 -19 
C 2547 -128 2726 -378 2803 -518 
C 3334 -320 3834 -38 4256 339 
C 4691 -26 5190 -314 5786 -506 
C 5862 -346 6035 -115 6170 6 
C 5594 160 5094 416 4672 749 
C 5133 1280 5491 1939 5702 2771 
L 5331 2938 
z
" transform="scale(0.015625)"/>
        <path id="NotoSansSC-Medium-256b" d="M 2605 4262 
C 2464 4563 2138 5024 1862 5357 
L 1363 5101 
C 1638 4762 1946 4282 2074 3987 
L 2605 4262 
z
M 5818 3974 
L 4346 3974 
C 4602 4326 4877 4768 5101 5178 
L 4486 5370 
C 4301 4941 3974 4365 3706 3974 
L 589 3974 
L 589 3379 
L 5818 3379 
L 5818 3974 
z
M 5357 1632 
L 5357 2221 
L 947 2221 
L 947 1632 
L 5357 1632 
z
M 371 371 
L 371 -211 
L 6010 -211 
L 6010 371 
L 371 371 
z
" transform="scale(0.015625)"/>
       </defs>
       <use xlink:href="#NotoSansSC-Medium-40b6"/>
       <use xlink:href="#NotoSansSC-Medium-256b" transform="translate(100 0)"/>
      </g>
     </g>
    </g>
    <g id="ytick_3">
     <g id="line2d_23">
      <path d="M 41.3 182.669295 
L 356.12 182.669295 
" clip-path="url(#pa43c640547)" style="fill: none; stroke: #e2e8f0; stroke-opacity: 0.6; stroke-width: 0.5; stroke-linecap: square"/>
     </g>
     <g id="line2d_24"/>
     <g id="text_13">
      <!-- 印度 -->
      <g style="fill: #94a3b8" transform="translate(19.8 186.629295) scale(0.09 -0.09)">
       <defs>
        <path id="NotoSansSC-Medium-2762" d="M 2509 5229 
C 2067 5011 1318 4781 659 4621 
L 659 1274 
C 659 1030 499 902 365 845 
C 467 685 576 365 614 218 
C 794 320 1069 403 2950 870 
C 2931 998 2912 1248 2918 1427 
L 1267 1056 
L 1267 2598 
L 2931 2598 
L 2931 3174 
L 1267 3174 
L 1267 4243 
C 1856 4378 2483 4550 2976 4755 
L 2509 5229 
z
M 5850 4928 
L 3366 4928 
L 3366 -499 
L 3968 -499 
L 3968 4339 
L 5254 4339 
L 5254 1184 
C 5254 1088 5222 1056 5126 1056 
C 5030 1050 4698 1050 4352 1062 
C 4448 896 4550 602 4582 429 
C 5030 429 5357 442 5574 557 
C 5792 653 5850 858 5850 1171 
L 5850 4928 
z
" transform="scale(0.015625)"/>
        <path id="NotoSansSC-Medium-3286" d="M 1382 4218 
L 6054 4218 
L 6054 4768 
L 3891 4768 
C 3814 4966 3706 5210 3597 5402 
L 3002 5261 
C 3078 5120 3149 4934 3213 4768 
L 800 4768 
L 800 3066 
C 800 2106 749 730 237 -230 
C 384 -282 653 -410 774 -499 
C 1306 512 1382 2029 1382 3066 
L 1382 4218 
z
M 4422 3085 
L 4422 2522 
L 3040 2522 
L 3040 3085 
L 4422 3085 
z
M 5005 2061 
L 5005 3085 
L 5984 3085 
L 5984 3565 
L 5005 3565 
L 5005 4058 
L 4422 4058 
L 4422 3565 
L 3040 3565 
L 3040 4058 
L 2477 4058 
L 2477 3565 
L 1530 3565 
L 1530 3085 
L 2477 3085 
L 2477 2061 
L 5005 2061 
z
M 4717 1248 
C 4461 973 4109 749 3706 570 
C 3302 755 2970 979 2726 1248 
L 4717 1248 
z
M 5229 1741 
L 5126 1722 
L 1600 1722 
L 1600 1248 
L 2374 1248 
L 2125 1152 
C 2374 832 2682 563 3046 339 
C 2509 179 1907 90 1293 38 
C 1389 -96 1498 -320 1536 -467 
C 2304 -378 3034 -230 3680 13 
C 4294 -243 5011 -416 5798 -499 
C 5875 -352 6022 -115 6144 13 
C 5498 70 4890 166 4365 333 
C 4890 627 5318 1024 5600 1549 
L 5229 1741 
z
" transform="scale(0.015625)"/>
       </defs>
       <use xlink:href="#NotoSansSC-Medium-2762"/>
       <use xlink:href="#NotoSansSC-Medium-3286" transform="translate(100 0)"/>
      </g>
     </g>
    </g>
    <g id="ytick_4">
     <g id="line2d_25">
      <path d="M 41.3 153.460955 
L 356.12 153.460955 
" clip-path="url(#pa43c640547)" style="fill: none; stroke: #e2e8f0; stroke-opacity: 0.6; stroke-width: 0.5; stroke-linecap: square"/>
     </g>
     <g id="line2d_26"/>
     <g id="text_14">
      <!-- 土耳其 -->
      <g style="fill: #94a3b8" transform="translate(10.8 157.420955) scale(0.09 -0.09)">
       <defs>
        <path id="NotoSansSC-Medium-2b0a" d="M 3507 358 
L 3507 2778 
L 5651 2778 
L 5651 3360 
L 3507 3360 
L 3507 5357 
L 2874 5357 
L 2874 3360 
L 762 3360 
L 762 2778 
L 2874 2778 
L 2874 358 
L 352 358 
L 352 -224 
L 6067 -224 
L 6067 358 
L 3507 358 
z
" transform="scale(0.015625)"/>
        <path id="NotoSansSC-Medium-53f5" d="M 2029 1690 
L 4384 1690 
L 4384 992 
C 3571 934 2765 877 2029 838 
L 2029 1690 
z
M 4384 4461 
L 4384 3622 
L 2029 3622 
L 2029 4461 
L 4384 4461 
z
M 2029 3066 
L 4384 3066 
L 4384 2240 
L 2029 2240 
L 2029 3066 
z
M 6061 1107 
L 5018 1030 
L 5018 4461 
L 5984 4461 
L 5984 5056 
L 435 5056 
L 435 4461 
L 1395 4461 
L 1395 794 
C 998 768 634 749 307 730 
L 378 109 
C 1421 192 2880 288 4384 403 
L 4384 -499 
L 5018 -499 
L 5018 448 
L 6048 525 
L 6061 1107 
z
" transform="scale(0.015625)"/>
        <path id="NotoSansSC-Medium-2571" d="M 2086 2010 
L 4301 2010 
L 4301 1408 
L 2086 1408 
L 2086 2010 
z
M 4301 4128 
L 4301 3590 
L 2086 3590 
L 2086 4128 
L 4301 4128 
z
M 2086 3085 
L 4301 3085 
L 4301 2509 
L 2086 2509 
L 2086 3085 
z
M 6035 1408 
L 4902 1408 
L 4902 4128 
L 5882 4128 
L 5882 4672 
L 4902 4672 
L 4902 5357 
L 4301 5357 
L 4301 4672 
L 2086 4672 
L 2086 5357 
L 1498 5357 
L 1498 4672 
L 557 4672 
L 557 4128 
L 1498 4128 
L 1498 1408 
L 371 1408 
L 371 858 
L 6035 858 
L 6035 1408 
z
M 2285 806 
C 1843 506 979 141 301 -45 
C 429 -166 602 -371 691 -499 
C 1370 -282 2234 77 2803 422 
L 2285 806 
z
M 3603 384 
C 4333 122 5069 -230 5504 -486 
L 6054 -96 
C 5568 154 4755 506 4026 755 
L 3603 384 
z
" transform="scale(0.015625)"/>
       </defs>
       <use xlink:href="#NotoSansSC-Medium-2b0a"/>
       <use xlink:href="#NotoSansSC-Medium-53f5" transform="translate(100 0)"/>
       <use xlink:href="#NotoSansSC-Medium-2571" transform="translate(200 0)"/>
      </g>
     </g>
    </g>
    <g id="ytick_5">
     <g id="line2d_27">
      <path d="M 41.3 124.252615 
L 356.12 124.252615 
" clip-path="url(#pa43c640547)" style="fill: none; stroke: #e2e8f0; stroke-opacity: 0.6; stroke-width: 0.5; stroke-linecap: square"/>
     </g>
     <g id="line2d_28"/>
     <g id="text_15">
      <!-- 新加坡 -->
      <g style="fill: #94a3b8" transform="translate(10.8 128.212615) scale(0.09 -0.09)">
       <defs>
        <path id="NotoSansSC-Medium-398a" d="M 3219 4717 
L 2182 4717 
C 2106 4922 1978 5190 1869 5395 
L 1344 5261 
C 1421 5101 1504 4896 1574 4717 
L 403 4717 
L 403 4224 
L 3219 4224 
L 3219 4717 
z
M 826 1498 
C 710 1114 499 736 256 474 
C 371 403 563 269 653 186 
C 902 480 1152 934 1306 1370 
L 826 1498 
z
M 3232 1702 
L 3232 2208 
L 2099 2208 
L 2099 2790 
L 3322 2790 
L 3322 3290 
L 2573 3290 
C 2675 3526 2790 3821 2899 4102 
L 2349 4218 
C 2278 3949 2150 3558 2035 3290 
L 1152 3290 
L 1510 3386 
C 1478 3610 1376 3962 1254 4211 
L 774 4090 
C 890 3840 973 3514 1005 3290 
L 301 3290 
L 301 2790 
L 1562 2790 
L 1562 2208 
L 339 2208 
L 339 1702 
L 1562 1702 
L 1562 192 
C 1562 128 1549 109 1478 109 
C 1408 109 1216 109 1011 115 
C 1082 -26 1152 -243 1171 -384 
C 1498 -384 1722 -371 1894 -288 
C 2054 -211 2099 -70 2099 186 
L 2099 1702 
L 3232 1702 
z
M 2291 1318 
C 2483 1011 2701 589 2803 320 
L 3219 570 
C 3117 832 2899 1229 2688 1530 
L 2291 1318 
z
M 6125 3245 
L 4077 3245 
L 4077 4365 
C 4730 4480 5421 4634 5952 4838 
L 5478 5274 
C 5024 5075 4230 4877 3520 4755 
L 3520 2560 
C 3520 1734 3475 666 2970 -83 
C 3091 -147 3334 -326 3424 -435 
C 3994 371 4077 1645 4077 2560 
L 4077 2694 
L 4896 2694 
L 4896 -480 
L 5478 -480 
L 5478 2694 
L 6125 2694 
L 6125 3245 
z
" transform="scale(0.015625)"/>
        <path id="NotoSansSC-Medium-2697" d="M 1779 4198 
C 1786 4550 1786 4915 1786 5280 
L 1197 5280 
C 1197 4909 1197 4550 1190 4198 
L 365 4198 
L 365 3616 
L 1178 3616 
C 1133 2067 954 749 198 -83 
C 339 -173 544 -371 640 -506 
C 1485 429 1702 1907 1760 3616 
L 2592 3616 
C 2541 1312 2490 474 2355 301 
C 2298 205 2240 192 2138 192 
C 2029 192 1773 198 1491 211 
C 1594 51 1658 -205 1664 -384 
C 1958 -397 2240 -397 2419 -371 
C 2624 -339 2746 -275 2874 -90 
C 3072 198 3117 1146 3168 3910 
C 3174 3987 3174 4198 3174 4198 
L 1779 4198 
z
M 4192 634 
L 4192 4032 
L 5242 4032 
L 5242 634 
L 4192 634 
z
M 3622 4608 
L 3622 -397 
L 4192 -397 
L 4192 64 
L 5242 64 
L 5242 -346 
L 5843 -346 
L 5843 4608 
L 3622 4608 
z
" transform="scale(0.015625)"/>
        <path id="NotoSansSC-Medium-2b4c" d="M 2227 1933 
L 1613 1677 
L 1613 3302 
L 2291 3302 
L 2291 3866 
L 1613 3866 
L 1613 5286 
L 1056 5286 
L 1056 3866 
L 307 3866 
L 307 3302 
L 1056 3302 
L 1056 1453 
C 742 1318 454 1210 230 1126 
L 461 544 
C 1005 794 1709 1107 2355 1421 
L 2227 1933 
z
M 3955 3910 
L 3955 2899 
L 3098 2899 
L 3098 3910 
L 3955 3910 
z
M 5158 2374 
C 4992 1882 4723 1446 4410 1088 
C 4077 1453 3814 1888 3635 2374 
L 5158 2374 
z
M 5498 2918 
L 5389 2899 
L 4531 2899 
L 4531 3910 
L 5402 3910 
C 5338 3642 5267 3379 5197 3181 
L 5715 3066 
C 5856 3405 6010 3930 6131 4390 
L 5696 4486 
L 5606 4467 
L 4531 4467 
L 4531 5363 
L 3955 5363 
L 3955 4467 
L 2528 4467 
L 2528 2790 
C 2528 1907 2445 736 1651 -77 
C 1773 -147 2003 -346 2093 -461 
C 2842 307 3046 1434 3085 2362 
C 3309 1715 3616 1158 4013 691 
C 3635 371 3194 134 2726 -13 
C 2842 -134 2989 -352 3059 -499 
C 3552 -301 4013 -45 4403 294 
C 4800 -51 5267 -314 5805 -499 
C 5888 -333 6054 -109 6189 13 
C 5658 160 5210 390 4819 698 
C 5299 1235 5658 1914 5869 2778 
L 5498 2918 
z
" transform="scale(0.015625)"/>
       </defs>
       <use xlink:href="#NotoSansSC-Medium-398a"/>
       <use xlink:href="#NotoSansSC-Medium-2697" transform="translate(100 0)"/>
       <use xlink:href="#NotoSansSC-Medium-2b4c" transform="translate(200 0)"/>
      </g>
     </g>
    </g>
    <g id="ytick_6">
     <g id="line2d_29">
      <path d="M 41.3 95.044274 
L 356.12 95.044274 
" clip-path="url(#pa43c640547)" style="fill: none; stroke: #e2e8f0; stroke-opacity: 0.6; stroke-width: 0.5; stroke-linecap: square"/>
     </g>
     <g id="line2d_30"/>
     <g id="text_16">
      <!-- 捷克 -->
      <g style="fill: #94a3b8" transform="translate(19.8 99.004274) scale(0.09 -0.09)">
       <defs>
        <path id="NotoSansSC-Medium-3752" d="M 2157 2694 
L 1574 2522 
L 1574 3578 
L 2214 3578 
L 2214 4128 
L 1574 4128 
L 1574 5363 
L 1030 5363 
L 1030 4128 
L 288 4128 
L 288 3578 
L 1030 3578 
L 1030 2362 
C 717 2272 429 2189 198 2131 
L 333 1555 
C 544 1626 781 1696 1030 1773 
L 1030 154 
C 1030 64 998 45 915 45 
C 845 38 608 38 352 45 
C 429 -109 499 -365 512 -506 
C 922 -506 1171 -486 1344 -397 
C 1517 -301 1574 -141 1574 154 
L 1574 1939 
C 1792 2010 2016 2080 2234 2150 
L 2157 2694 
z
M 4384 2682 
L 5203 2682 
L 5203 2240 
L 4384 2240 
L 4384 2682 
z
M 4384 3552 
L 5203 3552 
L 5203 3149 
L 4384 3149 
L 4384 3552 
z
M 5754 1779 
L 5754 2682 
L 6176 2682 
L 6176 3149 
L 5754 3149 
L 5754 4006 
L 4384 4006 
L 4384 4365 
L 6029 4365 
L 6029 4845 
L 4384 4845 
L 4384 5376 
L 3834 5376 
L 3834 4845 
L 2310 4845 
L 2310 4365 
L 3834 4365 
L 3834 4006 
L 2586 4006 
L 2586 3552 
L 3834 3552 
L 3834 3149 
L 2214 3149 
L 2214 2682 
L 3834 2682 
L 3834 2240 
L 2586 2240 
L 2586 1779 
L 3834 1779 
L 3834 237 
C 3494 371 3226 608 3040 1005 
C 3085 1197 3123 1402 3155 1613 
L 2611 1683 
C 2509 890 2253 218 1779 -192 
C 1907 -269 2131 -435 2227 -531 
C 2483 -282 2688 38 2842 416 
C 3309 -269 3987 -442 4922 -442 
L 6010 -442 
C 6029 -294 6106 -51 6176 70 
C 5946 64 5126 64 4947 64 
C 4749 64 4563 77 4384 96 
L 4384 832 
L 5805 832 
L 5805 1306 
L 4384 1306 
L 4384 1779 
L 5754 1779 
z
" transform="scale(0.015625)"/>
        <path id="NotoSansSC-Medium-2546" d="M 1728 3078 
L 4678 3078 
L 4678 2202 
L 1728 2202 
L 1728 3078 
z
M 4474 122 
C 4230 122 4179 154 4179 352 
L 4179 1670 
L 5293 1670 
L 5293 3603 
L 3482 3603 
L 3482 4230 
L 5958 4230 
L 5958 4768 
L 3482 4768 
L 3482 5370 
L 2880 5370 
L 2880 4768 
L 467 4768 
L 467 4230 
L 2880 4230 
L 2880 3603 
L 1152 3603 
L 1152 1670 
L 2080 1670 
C 1958 832 1670 307 269 26 
C 397 -96 557 -352 614 -518 
C 2195 -141 2579 576 2720 1670 
L 3578 1670 
L 3578 339 
C 3578 -262 3738 -442 4397 -442 
L 5318 -442 
C 5901 -442 6061 -198 6131 787 
C 5965 832 5709 928 5574 1030 
C 5549 243 5510 122 5267 122 
L 4474 122 
z
" transform="scale(0.015625)"/>
       </defs>
       <use xlink:href="#NotoSansSC-Medium-3752"/>
       <use xlink:href="#NotoSansSC-Medium-2546" transform="translate(100 0)"/>
      </g>
     </g>
    </g>
   </g>
   <g id="patch_3">
    <path d="M 41.3 247.657852 
L 296.3042 247.657852 
L 296.3042 234.514099 
L 41.3 234.514099 
z
" clip-path="url(#pa43c640547)" style="fill: #d4a017; stroke: #ffffff; stroke-width: 1.5; stroke-linejoin: miter"/>
   </g>
   <g id="patch_4">
    <path d="M 41.3 218.449512 
L 112.1345 218.449512 
L 112.1345 205.305759 
L 41.3 205.305759 
z
" clip-path="url(#pa43c640547)" style="fill: #3b82f6; stroke: #ffffff; stroke-width: 1.5; stroke-linejoin: miter"/>
   </g>
   <g id="patch_5">
    <path d="M 41.3 189.241172 
L 97.9676 189.241172 
L 97.9676 176.097419 
L 41.3 176.097419 
z
" clip-path="url(#pa43c640547)" style="fill: #3b82f6; stroke: #ffffff; stroke-width: 1.5; stroke-linejoin: miter"/>
   </g>
   <g id="patch_6">
    <path d="M 41.3 160.032831 
L 88.523 160.032831 
L 88.523 146.889078 
L 41.3 146.889078 
z
" clip-path="url(#pa43c640547)" style="fill: #3b82f6; stroke: #ffffff; stroke-width: 1.5; stroke-linejoin: miter"/>
   </g>
   <g id="patch_7">
    <path d="M 41.3 130.824491 
L 74.3561 130.824491 
L 74.3561 117.680738 
L 41.3 117.680738 
z
" clip-path="url(#pa43c640547)" style="fill: #3b82f6; stroke: #ffffff; stroke-width: 1.5; stroke-linejoin: miter"/>
   </g>
   <g id="patch_8">
    <path d="M 41.3 101.616151 
L 71.2079 101.616151 
L 71.2079 88.472398 
L 41.3 88.472398 
z
" clip-path="url(#pa43c640547)" style="fill: #3b82f6; stroke: #ffffff; stroke-width: 1.5; stroke-linejoin: miter"/>
   </g>
   <g id="text_17">
    <!-- 324吨 -->
    <g style="fill: #1e293b" transform="translate(301.0265 244.505976) scale(0.09 -0.09)">
     <use xlink:href="#NotoSansSC-Medium-14"/>
     <use xlink:href="#NotoSansSC-Medium-13" transform="translate(57 0)"/>
     <use xlink:href="#NotoSansSC-Medium-15" transform="translate(114 0)"/>
     <use xlink:href="#NotoSansSC-Medium-2819" transform="translate(171 0)"/>
    </g>
   </g>
   <g id="text_18">
    <!-- 90吨 -->
    <g style="fill: #1e293b" transform="translate(116.8568 215.297635) scale(0.09 -0.09)">
     <defs>
      <path id="NotoSansSC-Medium-1a" d="M 960 3251 
C 960 3866 1280 4230 1683 4230 
C 2195 4230 2547 3808 2618 2880 
C 2349 2477 2016 2304 1722 2304 
C 1229 2304 960 2650 960 3251 
z
M 1555 -83 
C 2464 -83 3309 659 3309 2515 
C 3309 4077 2579 4800 1677 4800 
C 915 4800 275 4186 275 3251 
C 275 2266 806 1773 1594 1773 
C 1952 1773 2355 1984 2630 2323 
C 2586 979 2093 518 1523 518 
C 1229 518 941 659 755 870 
L 352 416 
C 627 134 1011 -83 1555 -83 
z
" transform="scale(0.015625)"/>
     </defs>
     <use xlink:href="#NotoSansSC-Medium-1a"/>
     <use xlink:href="#NotoSansSC-Medium-11" transform="translate(57 0)"/>
     <use xlink:href="#NotoSansSC-Medium-2819" transform="translate(114 0)"/>
    </g>
   </g>
   <g id="text_19">
    <!-- 72吨 -->
    <g style="fill: #1e293b" transform="translate(102.6899 186.089295) scale(0.09 -0.09)">
     <defs>
      <path id="NotoSansSC-Medium-18" d="M 1235 0 
L 1990 0 
C 2067 1843 2240 2886 3347 4262 
L 3347 4717 
L 314 4717 
L 314 4090 
L 2528 4090 
C 1619 2822 1318 1722 1235 0 
z
" transform="scale(0.015625)"/>
     </defs>
     <use xlink:href="#NotoSansSC-Medium-18"/>
     <use xlink:href="#NotoSansSC-Medium-13" transform="translate(57 0)"/>
     <use xlink:href="#NotoSansSC-Medium-2819" transform="translate(114 0)"/>
    </g>
   </g>
   <g id="text_20">
    <!-- 60吨 -->
    <g style="fill: #1e293b" transform="translate(93.2453 156.880955) scale(0.09 -0.09)">
     <defs>
      <path id="NotoSansSC-Medium-17" d="M 1914 2406 
C 2419 2406 2694 2067 2694 1466 
C 2694 851 2368 480 1958 480 
C 1453 480 1114 922 1037 1856 
C 1318 2259 1645 2406 1914 2406 
z
M 1965 -83 
C 2733 -83 3373 531 3373 1466 
C 3373 2458 2842 2944 2048 2944 
C 1709 2944 1299 2739 1024 2400 
C 1056 3744 1555 4198 2157 4198 
C 2432 4198 2720 4051 2893 3846 
L 3296 4294 
C 3027 4576 2643 4800 2118 4800 
C 1190 4800 339 4077 339 2266 
C 339 666 1069 -83 1965 -83 
z
" transform="scale(0.015625)"/>
     </defs>
     <use xlink:href="#NotoSansSC-Medium-17"/>
     <use xlink:href="#NotoSansSC-Medium-11" transform="translate(57 0)"/>
     <use xlink:href="#NotoSansSC-Medium-2819" transform="translate(114 0)"/>
    </g>
   </g>
   <g id="text_21">
    <!-- 42吨 -->
    <g style="fill: #1e293b" transform="translate(79.0784 127.672615) scale(0.09 -0.09)">
     <use xlink:href="#NotoSansSC-Medium-15"/>
     <use xlink:href="#NotoSansSC-Medium-13" transform="translate(57 0)"/>
     <use xlink:href="#NotoSansSC-Medium-2819" transform="translate(114 0)"/>
    </g>
   </g>
   <g id="text_22">
    <!-- 38吨 -->
    <g style="fill: #1e293b" transform="translate(75.9302 98.464274) scale(0.09 -0.09)">
     <defs>
      <path id="NotoSansSC-Medium-19" d="M 1830 -83 
C 2739 -83 3354 454 3354 1152 
C 3354 1792 2982 2163 2560 2400 
L 2560 2432 
C 2854 2650 3181 3059 3181 3539 
C 3181 4275 2669 4787 1850 4787 
C 1082 4787 506 4307 506 3571 
C 506 3072 787 2720 1139 2470 
L 1139 2438 
C 704 2208 294 1792 294 1171 
C 294 442 947 -83 1830 -83 
z
M 2138 2618 
C 1613 2822 1165 3059 1165 3571 
C 1165 3994 1453 4256 1837 4256 
C 2298 4256 2560 3930 2560 3494 
C 2560 3181 2419 2880 2138 2618 
z
M 1843 448 
C 1338 448 947 774 947 1242 
C 947 1651 1171 2003 1498 2227 
C 2138 1965 2656 1747 2656 1171 
C 2656 730 2330 448 1843 448 
z
" transform="scale(0.015625)"/>
     </defs>
     <use xlink:href="#NotoSansSC-Medium-14"/>
     <use xlink:href="#NotoSansSC-Medium-19" transform="translate(57 0)"/>
     <use xlink:href="#NotoSansSC-Medium-2819" transform="translate(114 0)"/>
    </g>
   </g>
   <g id="text_23">
    <g id="patch_9">
     <path d="M 308.897 232.231525 
L 344.897 232.231525 
Q 346.697 232.231525 346.697 230.431525 
L 346.697 221.431525 
Q 346.697 219.631525 344.897 219.631525 
L 308.897 219.631525 
Q 307.097 219.631525 307.097 221.431525 
L 307.097 230.431525 
Q 307.097 232.231525 308.897 232.231525 
z
" style="fill: #fffbeb; opacity: 0.9; stroke: #d4a017; stroke-width: 1.5; stroke-linejoin: miter"/>
    </g>
    <!-- 全球第一 -->
    <g style="fill: #d4a017" transform="translate(308.897 229.351525) scale(0.09 -0.09)">
     <defs>
      <path id="NotoSansSC-Medium-2563" d="M 1446 3053 
C 2093 3482 2707 4000 3194 4582 
C 3750 3968 4339 3482 4979 3053 
L 1446 3053 
z
M 5158 2528 
L 5158 2931 
C 5376 2790 5606 2656 5843 2522 
C 5926 2701 6099 2906 6246 3034 
C 5222 3533 4307 4147 3533 5018 
C 3571 5075 3610 5126 3648 5184 
L 3117 5434 
C 2483 4435 1325 3546 173 3046 
C 326 2912 493 2707 582 2554 
C 813 2669 1050 2797 1274 2938 
L 1274 2528 
L 2886 2528 
L 2886 1638 
L 1338 1638 
L 1338 1120 
L 2886 1120 
L 2886 192 
L 512 192 
L 512 -339 
L 5926 -339 
L 5926 192 
L 3514 192 
L 3514 1120 
L 5133 1120 
L 5133 1638 
L 3514 1638 
L 3514 2528 
L 5158 2528 
z
" transform="scale(0.015625)"/>
      <path id="NotoSansSC-Medium-47ca" d="M 5862 4659 
C 5702 4851 5370 5126 5094 5312 
L 4762 5005 
C 5030 4806 5350 4512 5504 4307 
L 5862 4659 
z
M 5542 3437 
C 5350 3104 5050 2688 4774 2349 
C 4666 2682 4576 3053 4506 3488 
L 4506 3750 
L 6125 3750 
L 6125 4301 
L 4506 4301 
L 4506 5363 
L 3930 5363 
L 3930 4301 
L 2413 4301 
L 2413 3750 
L 3930 3750 
L 3930 2144 
C 3386 1677 2803 1184 2381 845 
L 2304 1318 
L 1574 1094 
L 1574 2592 
L 2176 2592 
L 2176 3142 
L 1574 3142 
L 1574 4416 
L 2272 4416 
L 2272 4966 
L 294 4966 
L 294 4416 
L 1024 4416 
L 1024 3142 
L 339 3142 
L 339 2592 
L 1024 2592 
L 1024 928 
C 723 838 442 755 218 698 
L 346 128 
C 883 294 1574 512 2234 730 
L 2144 659 
L 2509 141 
C 2931 525 3437 1005 3930 1498 
L 3930 192 
C 3930 90 3891 58 3789 51 
C 3693 51 3386 45 3040 58 
C 3117 -96 3219 -358 3245 -512 
C 3738 -512 4038 -493 4237 -390 
C 4429 -294 4506 -128 4506 192 
L 4506 1619 
C 4806 947 5235 429 5862 -45 
C 5926 122 6093 307 6227 416 
C 5651 819 5261 1261 4979 1850 
C 5312 2195 5722 2720 6061 3168 
L 5542 3437 
z
M 2483 3194 
C 2746 2829 3021 2342 3117 2022 
L 3610 2259 
C 3501 2573 3213 3046 2944 3398 
L 2483 3194 
z
" transform="scale(0.015625)"/>
      <path id="NotoSansSC-Medium-4eef" d="M 1728 4403 
C 1856 4160 1997 3846 2048 3648 
L 2573 3840 
C 2522 3994 2426 4198 2323 4403 
L 3264 4403 
L 3264 4851 
L 1696 4851 
C 1760 4992 1824 5126 1882 5274 
L 1338 5408 
C 1120 4819 736 4237 294 3866 
C 442 3795 685 3667 794 3578 
C 1018 3795 1242 4083 1446 4403 
L 1728 4403 
z
M 2854 2106 
L 2854 1606 
L 1517 1606 
C 1542 1766 1568 1933 1587 2106 
L 2854 2106 
z
M 3443 3098 
L 4947 3098 
L 4947 2598 
L 3443 2598 
L 3443 3098 
z
M 3443 1606 
L 3443 2106 
L 5530 2106 
L 5530 3590 
L 858 3590 
L 858 3098 
L 2854 3098 
L 2854 2598 
L 1082 2598 
C 1030 2112 941 1504 851 1101 
L 2394 1101 
C 1882 621 1133 192 422 -26 
C 557 -134 717 -358 806 -493 
C 1530 -218 2304 275 2854 858 
L 2854 -499 
L 3443 -499 
L 3443 1101 
L 5146 1101 
C 5088 627 5030 416 4954 333 
C 4902 288 4838 282 4730 282 
C 4621 275 4326 282 4038 314 
C 4128 160 4198 -64 4205 -230 
C 4531 -250 4845 -243 5005 -230 
C 5197 -218 5325 -173 5446 -45 
C 5613 122 5690 512 5766 1376 
C 5779 1459 5786 1606 5786 1606 
L 3443 1606 
z
M 4250 4858 
C 4307 4998 4358 5133 4403 5280 
L 3827 5408 
C 3654 4838 3347 4275 2970 3917 
C 3110 3846 3366 3699 3488 3610 
C 3680 3821 3872 4102 4038 4410 
L 4390 4410 
C 4589 4166 4787 3853 4877 3648 
L 5389 3859 
C 5318 4019 5190 4218 5037 4410 
L 6074 4410 
L 6074 4858 
L 4250 4858 
z
" transform="scale(0.015625)"/>
      <path id="NotoSansSC-Medium-21fb" d="M 301 2822 
L 301 2170 
L 6125 2170 
L 6125 2822 
L 301 2822 
z
" transform="scale(0.015625)"/>
     </defs>
     <use xlink:href="#NotoSansSC-Medium-2563"/>
     <use xlink:href="#NotoSansSC-Medium-47ca" transform="translate(100 0)"/>
     <use xlink:href="#NotoSansSC-Medium-4eef" transform="translate(200 0)"/>
     <use xlink:href="#NotoSansSC-Medium-21fb" transform="translate(300 0)"/>
    </g>
   </g>
  </g>
  <g id="text_24">
   <!-- 2026 Q1 各国央行购金量 -->
   <g style="fill: #1e293b" transform="translate(41.3 23.12) scale(0.14 -0.14)">
    <defs>
     <path id="NotoSansSC-Medium-76ec" d="M 282 0 
L 3322 0 
L 3322 627 
L 2125 627 
C 1894 627 1594 608 1357 582 
C 2336 1606 3098 2451 3098 3290 
C 3098 4122 2541 4672 1677 4672 
C 1062 4672 646 4403 243 3968 
L 659 3558 
C 909 3846 1216 4083 1587 4083 
C 2118 4083 2387 3750 2387 3251 
C 2387 2534 1594 1715 282 429 
L 282 0 
z
" transform="scale(0.015625)"/>
     <path id="NotoSansSC-Medium-76ea" d="M 1824 -83 
C 2765 -83 3347 768 3347 2310 
C 3347 3846 2765 4672 1824 4672 
C 890 4672 301 3853 301 2310 
C 301 768 890 -83 1824 -83 
z
M 1824 499 
C 1344 499 1005 992 1005 2310 
C 1005 3629 1344 4090 1824 4090 
C 2304 4090 2643 3629 2643 2310 
C 2643 992 2304 499 1824 499 
z
" transform="scale(0.015625)"/>
     <path id="NotoSansSC-Medium-76f0" d="M 1907 2285 
C 2406 2285 2688 1971 2688 1408 
C 2688 826 2362 480 1952 480 
C 1453 480 1114 877 1037 1728 
C 1318 2138 1645 2285 1907 2285 
z
M 1958 -83 
C 2726 -83 3366 506 3366 1408 
C 3366 2355 2829 2822 2042 2822 
C 1702 2822 1293 2611 1018 2272 
C 1050 3616 1549 4064 2144 4064 
C 2426 4064 2714 3923 2886 3718 
L 3290 4166 
C 3021 4448 2637 4672 2112 4672 
C 1178 4672 333 3942 333 2138 
C 333 627 1062 -83 1958 -83 
z
" transform="scale(0.015625)"/>
     <path id="NotoSansSC-Medium-32" d="M 2413 525 
C 1632 525 1126 1235 1126 2374 
C 1126 3482 1632 4154 2413 4154 
C 3194 4154 3706 3482 3706 2374 
C 3706 1235 3194 525 2413 525 
z
M 3891 -1222 
C 4198 -1222 4461 -1171 4614 -1101 
L 4474 -544 
C 4346 -582 4179 -614 3974 -614 
C 3501 -614 3066 -435 2854 -38 
C 3821 166 4467 1050 4467 2374 
C 4467 3891 3622 4800 2413 4800 
C 1203 4800 365 3891 365 2374 
C 365 1011 1043 115 2061 -58 
C 2349 -730 2976 -1222 3891 -1222 
z
" transform="scale(0.015625)"/>
     <path id="NotoSansSC-Medium-76eb" d="M 550 0 
L 3238 0 
L 3238 608 
L 2317 608 
L 2317 4582 
L 1760 4582 
C 1491 4416 1178 4301 736 4224 
L 736 3757 
L 1581 3757 
L 1581 608 
L 550 608 
L 550 0 
z
" transform="scale(0.015625)"/>
     <path id="NotoSansSC-Medium-27f5" d="M 4480 1267 
L 4480 275 
L 1907 275 
L 1907 1267 
L 4480 1267 
z
M 1306 -518 
L 1907 -518 
L 1907 -250 
L 4480 -250 
L 4480 -499 
L 5114 -499 
L 5114 1805 
L 1306 1805 
L 1306 -518 
z
M 2163 4211 
L 4365 4211 
C 4064 3872 3674 3571 3238 3302 
C 2810 3565 2438 3866 2144 4186 
L 2163 4211 
z
M 4915 4762 
L 4813 4730 
L 2605 4730 
C 2726 4890 2842 5062 2944 5229 
L 2381 5427 
C 1933 4653 1158 3949 358 3514 
C 493 3411 710 3187 806 3072 
C 1133 3277 1453 3526 1760 3808 
C 2042 3514 2349 3238 2694 2995 
C 1907 2605 1030 2317 205 2150 
C 314 2022 442 1773 499 1619 
C 1421 1824 2387 2163 3238 2637 
C 4006 2182 4896 1843 5824 1651 
C 5901 1811 6074 2061 6208 2202 
C 5350 2349 4525 2624 3808 2982 
C 4435 3398 4966 3904 5331 4486 
L 4915 4762 
z
" transform="scale(0.015625)"/>
     <path id="NotoSansSC-Medium-2d14" d="M 1626 2419 
L 1626 3930 
L 2861 3930 
L 2861 3315 
C 2861 3021 2848 2714 2790 2419 
L 1626 2419 
z
M 4794 3930 
L 4794 2419 
L 3405 2419 
C 3450 2714 3462 3014 3462 3309 
L 3462 3930 
L 4794 3930 
z
M 6061 1837 
L 6061 2419 
L 5421 2419 
L 5421 4512 
L 3462 4512 
L 3462 5363 
L 2861 5363 
L 2861 4512 
L 1024 4512 
L 1024 2419 
L 346 2419 
L 346 1837 
L 2624 1837 
C 2330 1107 1677 442 275 19 
C 390 -109 550 -358 608 -506 
C 2176 -13 2899 768 3219 1645 
C 3712 538 4531 -166 5837 -486 
C 5914 -314 6086 -70 6214 64 
C 4986 307 4192 915 3744 1837 
L 6061 1837 
z
" transform="scale(0.015625)"/>
     <path id="NotoSansSC-Medium-5bfe" d="M 5920 4998 
L 2816 4998 
L 2816 4429 
L 5920 4429 
L 5920 4998 
z
M 1690 5376 
C 1376 4915 762 4346 230 4000 
C 339 3885 499 3654 570 3520 
C 1158 3936 1824 4570 2259 5139 
L 1690 5376 
z
M 1939 4006 
C 1510 3283 819 2554 166 2086 
C 288 1971 499 1709 576 1581 
C 781 1747 998 1946 1210 2157 
L 1210 -518 
L 1805 -518 
L 1805 2816 
C 2067 3136 2304 3469 2502 3795 
L 1939 4006 
z
M 6099 3251 
L 2547 3251 
L 2547 2682 
L 4570 2682 
L 4570 224 
C 4570 134 4531 102 4410 102 
C 4294 96 3866 96 3456 109 
C 3539 -64 3622 -314 3648 -486 
C 4243 -486 4621 -480 4858 -390 
C 5101 -294 5178 -122 5178 218 
L 5178 2682 
L 6099 2682 
L 6099 3251 
z
" transform="scale(0.015625)"/>
    </defs>
    <use xlink:href="#NotoSansSC-Medium-76ec"/>
    <use xlink:href="#NotoSansSC-Medium-76ea" transform="translate(57 0)"/>
    <use xlink:href="#NotoSansSC-Medium-76ec" transform="translate(114 0)"/>
    <use xlink:href="#NotoSansSC-Medium-76f0" transform="translate(171 0)"/>
    <use xlink:href="#NotoSansSC-Medium-1" transform="translate(228 0)"/>
    <use xlink:href="#NotoSansSC-Medium-32" transform="translate(250.5 0)"/>
    <use xlink:href="#NotoSansSC-Medium-76eb" transform="translate(325.90625 0)"/>
    <use xlink:href="#NotoSansSC-Medium-1" transform="translate(382.90625 0)"/>
    <use xlink:href="#NotoSansSC-Medium-27f5" transform="translate(405.40625 0)"/>
    <use xlink:href="#NotoSansSC-Medium-2ae8" transform="translate(505.40625 0)"/>
    <use xlink:href="#NotoSansSC-Medium-2d14" transform="translate(605.40625 0)"/>
    <use xlink:href="#NotoSansSC-Medium-5bfe" transform="translate(705.40625 0)"/>
    <use xlink:href="#NotoSansSC-Medium-60df" transform="translate(805.40625 0)"/>
    <use xlink:href="#NotoSansSC-Medium-6583" transform="translate(905.40625 0)"/>
    <use xlink:href="#NotoSansSC-Medium-6581" transform="translate(1005.40625 0)"/>
   </g>
  </g>
  <g id="text_25">
   <!-- 中国央行领跑全球 · 单位: 吨 -->
   <g style="fill: #64748b" transform="translate(41.3 44.657125) scale(0.09 -0.09)">
    <defs>
     <path id="NotoSansSC-Medium-6c32" d="M 3373 3898 
L 3373 922 
L 3904 922 
L 3904 3456 
L 5357 3456 
L 5357 928 
L 5907 928 
L 5907 3898 
L 4698 3898 
C 4768 4083 4851 4307 4934 4512 
L 6067 4512 
L 6067 5037 
L 3219 5037 
L 3219 4512 
L 4384 4512 
C 4326 4314 4250 4083 4173 3898 
L 3373 3898 
z
M 3245 3514 
C 2995 3866 2477 4416 2042 4845 
C 2099 4973 2157 5101 2208 5229 
L 1690 5382 
C 1408 4634 858 3795 211 3264 
C 339 3174 531 2989 621 2886 
C 1075 3296 1485 3814 1805 4378 
C 2214 3955 2656 3437 2880 3091 
L 3245 3514 
z
M 1312 3462 
C 1536 3232 1811 2906 1946 2694 
L 2336 2976 
C 2202 3174 1933 3469 1683 3693 
L 1312 3462 
z
M 2598 2560 
L 2509 2528 
L 685 2528 
L 685 2016 
L 2253 2016 
C 2061 1626 1805 1190 1581 858 
C 1427 992 1280 1133 1139 1248 
L 742 947 
C 1210 531 1786 -64 2048 -442 
L 2477 -90 
C 2349 70 2163 282 1958 486 
C 2298 992 2733 1722 2982 2330 
L 2598 2560 
z
M 4390 3194 
C 4378 1062 4320 307 2854 -122 
C 2950 -218 3098 -410 3142 -538 
C 4749 -32 4864 902 4883 3194 
L 4390 3194 
z
M 4602 589 
C 5005 256 5523 -211 5779 -499 
L 6157 -134 
C 5901 147 5370 595 4960 902 
L 4602 589 
z
" transform="scale(0.015625)"/>
     <path id="NotoSansSC-Medium-6182" d="M 5242 4141 
C 5235 2394 5222 1766 5133 1638 
C 5088 1568 5030 1549 4947 1549 
C 4890 1549 4794 1549 4678 1555 
L 4749 1555 
L 4749 3526 
L 3130 3526 
C 3264 3712 3379 3917 3494 4141 
L 5242 4141 
z
M 4243 2035 
L 3469 2035 
L 3469 3040 
L 4243 3040 
L 4243 2035 
z
M 2010 3610 
L 1050 3610 
L 1050 4595 
L 2010 4595 
L 2010 3610 
z
M 3930 77 
C 3533 77 3469 128 3469 410 
L 3469 1555 
L 4352 1555 
C 4442 1414 4499 1190 4506 1050 
C 4787 1037 5050 1037 5222 1062 
C 5402 1088 5530 1139 5638 1299 
C 5779 1517 5792 2253 5798 4403 
L 5798 4659 
L 3738 4659 
C 3814 4845 3885 5037 3942 5222 
L 3411 5357 
C 3232 4736 2931 4122 2554 3693 
L 2554 5107 
L 544 5107 
L 544 3104 
L 1357 3104 
L 1357 595 
L 1011 506 
L 1011 2560 
L 525 2560 
L 525 384 
C 416 358 320 333 224 314 
L 365 -243 
C 1011 -58 1869 186 2688 416 
L 2611 934 
L 1882 736 
L 1882 1786 
L 2534 1786 
L 2534 2304 
L 1882 2304 
L 1882 3104 
L 2554 3104 
L 2554 3539 
C 2669 3424 2797 3277 2861 3187 
C 2886 3219 2918 3251 2944 3283 
L 2944 410 
C 2944 -250 3149 -422 3898 -422 
L 5286 -422 
C 5920 -422 6086 -186 6163 608 
C 6016 640 5792 730 5670 813 
C 5632 198 5574 77 5254 77 
L 3930 77 
z
" transform="scale(0.015625)"/>
     <path id="NotoSansSC-Medium-561" d="M 3200 3174 
C 2790 3174 2458 2842 2458 2432 
C 2458 2022 2790 1690 3200 1690 
C 3610 1690 3942 2022 3942 2432 
C 3942 2842 3610 3174 3200 3174 
z
" transform="scale(0.015625)"/>
     <path id="NotoSansSC-Medium-2749" d="M 1523 2176 
L 1523 2752 
L 2880 2752 
L 2880 2176 
L 1523 2176 
z
M 1523 3789 
L 2880 3789 
L 2880 3219 
L 1523 3219 
L 1523 3789 
z
M 4915 3219 
L 3494 3219 
L 3494 3789 
L 4915 3789 
L 4915 3219 
z
M 4915 2176 
L 3494 2176 
L 3494 2752 
L 4915 2752 
L 4915 2176 
z
M 6054 1152 
L 3494 1152 
L 3494 1683 
L 5523 1683 
L 5523 4275 
L 4525 4275 
C 4717 4531 4922 4838 5107 5126 
L 4454 5331 
C 4314 5011 4070 4582 3853 4275 
L 2374 4275 
L 2656 4416 
C 2528 4672 2234 5062 1984 5344 
L 1472 5101 
C 1683 4858 1914 4525 2048 4275 
L 941 4275 
L 941 1683 
L 2880 1683 
L 2880 1152 
L 358 1152 
L 358 602 
L 2880 602 
L 2880 -499 
L 3494 -499 
L 3494 602 
L 6054 602 
L 6054 1152 
z
" transform="scale(0.015625)"/>
     <path id="NotoSansSC-Medium-2348" d="M 4480 4448 
C 4416 4723 4282 5120 4160 5434 
L 3597 5293 
C 3718 4973 3846 4550 3891 4282 
L 4480 4448 
z
M 5843 4250 
L 2355 4250 
L 2355 3674 
L 5843 3674 
L 5843 4250 
z
M 3750 742 
C 3686 1389 3488 2502 3290 3366 
L 2758 3245 
C 2938 2374 3110 1235 3162 570 
L 3750 742 
z
M 1773 5344 
C 1434 4410 864 3475 256 2880 
C 358 2739 531 2419 589 2278 
C 768 2464 947 2675 1114 2912 
L 1114 -493 
L 1715 -493 
L 1715 3846 
C 1952 4275 2170 4723 2336 5171 
L 1773 5344 
z
M 4870 326 
C 5101 1146 5344 2336 5517 3302 
L 4896 3405 
C 4787 2464 4550 1171 4320 326 
L 2099 326 
L 2099 -243 
L 6080 -243 
L 6080 326 
L 4870 326 
z
" transform="scale(0.015625)"/>
     <path id="NotoSansSC-Medium-1b" d="M 954 2432 
C 1229 2432 1446 2650 1446 2944 
C 1446 3245 1229 3469 954 3469 
C 678 3469 461 3245 461 2944 
C 461 2650 678 2432 954 2432 
z
M 954 -83 
C 1229 -83 1446 128 1446 429 
C 1446 736 1229 954 954 954 
C 678 954 461 736 461 429 
C 461 128 678 -83 954 -83 
z
" transform="scale(0.015625)"/>
    </defs>
    <use xlink:href="#NotoSansSC-Medium-2228"/>
    <use xlink:href="#NotoSansSC-Medium-2ae8" transform="translate(100 0)"/>
    <use xlink:href="#NotoSansSC-Medium-2d14" transform="translate(200 0)"/>
    <use xlink:href="#NotoSansSC-Medium-5bfe" transform="translate(300 0)"/>
    <use xlink:href="#NotoSansSC-Medium-6c32" transform="translate(400 0)"/>
    <use xlink:href="#NotoSansSC-Medium-6182" transform="translate(500 0)"/>
    <use xlink:href="#NotoSansSC-Medium-2563" transform="translate(600 0)"/>
    <use xlink:href="#NotoSansSC-Medium-47ca" transform="translate(700 0)"/>
    <use xlink:href="#NotoSansSC-Medium-1" transform="translate(800 0)"/>
    <use xlink:href="#NotoSansSC-Medium-561" transform="translate(822.5 0)"/>
    <use xlink:href="#NotoSansSC-Medium-1" transform="translate(922.5 0)"/>
    <use xlink:href="#NotoSansSC-Medium-2749" transform="translate(945 0)"/>
    <use xlink:href="#NotoSansSC-Medium-2348" transform="translate(1045 0)"/>
    <use xlink:href="#NotoSansSC-Medium-1b" transform="translate(1145 0)"/>
    <use xlink:href="#NotoSansSC-Medium-1" transform="translate(1174.796875 0)"/>
    <use xlink:href="#NotoSansSC-Medium-2819" transform="translate(1197.296875 0)"/>
   </g>
  </g>
  <g id="text_26">
   <!-- 来源: World Gold Council · 2026 Q1 -->
   <g style="fill: #94a3b8" transform="translate(41.3 269.424031) scale(0.065 -0.065)">
    <defs>
     <path id="NotoSansSC-Medium-3b3c" d="M 6029 2003 
L 6029 2579 
L 3514 2579 
L 3514 4064 
L 5773 4064 
L 5773 4634 
L 3514 4634 
L 3514 5370 
L 2886 5370 
L 2886 4634 
L 678 4634 
L 678 4064 
L 2886 4064 
L 2886 2579 
L 378 2579 
L 378 2003 
L 2515 2003 
C 1939 1274 1056 595 224 243 
C 358 122 550 -102 646 -256 
C 1453 147 2285 851 2886 1638 
L 2886 -506 
L 3514 -506 
L 3514 1651 
C 4115 858 4947 134 5760 -275 
C 5856 -115 6048 109 6176 230 
C 5350 589 4467 1274 3904 2003 
L 6029 2003 
z
M 1158 3789 
C 1395 3418 1619 2912 1696 2598 
L 2259 2822 
C 2176 3142 1926 3622 1683 3987 
L 1158 3789 
z
M 4672 2592 
C 4890 2899 5158 3386 5382 3821 
L 4762 4006 
C 4621 3629 4371 3104 4160 2765 
L 4672 2592 
z
" transform="scale(0.015625)"/>
     <path id="NotoSansSC-Medium-4260" d="M 1965 4659 
C 1715 4838 1229 5120 902 5306 
L 550 4883 
C 890 4672 1363 4371 1600 4186 
L 1965 4659 
z
M 1658 2989 
C 1402 3162 922 3430 589 3603 
L 243 3181 
C 589 2982 1062 2688 1299 2515 
L 1658 2989 
z
M 1293 1958 
C 1011 1222 627 403 358 -96 
L 896 -422 
C 1190 186 1517 954 1766 1626 
L 1293 1958 
z
M 2733 4512 
L 6067 4512 
L 6067 5050 
L 2150 5050 
L 2150 3302 
C 2150 2266 2086 826 1370 -173 
C 1510 -237 1766 -390 1869 -486 
C 2618 570 2733 2189 2733 3302 
L 2733 4512 
z
M 3213 1312 
C 3046 902 2771 454 2496 154 
C 2630 83 2861 -58 2970 -134 
C 3232 186 3539 704 3744 1165 
L 3213 1312 
z
M 3571 2534 
L 5299 2534 
L 5299 2067 
L 3571 2067 
L 3571 2534 
z
M 3571 3418 
L 5299 3418 
L 5299 2957 
L 3571 2957 
L 3571 3418 
z
M 5856 1626 
L 5856 3866 
L 4544 3866 
C 4621 4019 4710 4179 4794 4352 
L 4128 4474 
C 4090 4301 4019 4064 3955 3866 
L 3040 3866 
L 3040 1626 
L 4122 1626 
L 4122 102 
C 4122 32 4096 6 4019 6 
C 3942 6 3680 0 3411 13 
C 3469 -134 3546 -352 3565 -499 
C 3981 -506 4262 -499 4448 -410 
C 4640 -333 4685 -186 4685 83 
L 4685 1626 
L 5856 1626 
z
M 5005 1178 
C 5235 774 5517 237 5651 -83 
L 6195 154 
C 6054 467 5754 986 5517 1370 
L 5005 1178 
z
" transform="scale(0.015625)"/>
     <path id="NotoSansSC-Medium-38" d="M 1107 0 
L 2003 0 
L 2624 2618 
C 2701 2989 2778 3341 2848 3699 
L 2874 3699 
C 2938 3341 3008 2989 3091 2618 
L 3725 0 
L 4640 0 
L 5568 4717 
L 4858 4717 
L 4410 2259 
C 4333 1766 4250 1261 4173 749 
L 4141 749 
C 4032 1261 3930 1766 3821 2259 
L 3213 4717 
L 2554 4717 
L 1946 2259 
C 1837 1760 1728 1254 1626 749 
L 1600 749 
C 1517 1254 1434 1760 1350 2259 
L 909 4717 
L 147 4717 
L 1107 0 
z
" transform="scale(0.015625)"/>
     <path id="NotoSansSC-Medium-50" d="M 1965 -83 
C 2835 -83 3622 589 3622 1760 
C 3622 2931 2835 3610 1965 3610 
C 1094 3610 307 2931 307 1760 
C 307 589 1094 -83 1965 -83 
z
M 1965 518 
C 1414 518 1069 1011 1069 1760 
C 1069 2502 1414 3002 1965 3002 
C 2522 3002 2867 2502 2867 1760 
C 2867 1011 2522 518 1965 518 
z
" transform="scale(0.015625)"/>
     <path id="NotoSansSC-Medium-53" d="M 557 0 
L 1293 0 
L 1293 2195 
C 1510 2752 1856 2950 2144 2950 
C 2285 2950 2374 2931 2496 2893 
L 2630 3533 
C 2522 3584 2406 3610 2234 3610 
C 1856 3610 1485 3341 1235 2886 
L 1216 2886 
L 1158 3520 
L 557 3520 
L 557 0 
z
" transform="scale(0.015625)"/>
     <path id="NotoSansSC-Medium-4d" d="M 1286 -83 
C 1472 -83 1594 -58 1683 -26 
L 1587 531 
C 1523 518 1498 518 1466 518 
C 1376 518 1293 589 1293 787 
L 1293 5101 
L 557 5101 
L 557 826 
C 557 256 755 -83 1286 -83 
z
" transform="scale(0.015625)"/>
     <path id="NotoSansSC-Medium-45" d="M 1773 -83 
C 2170 -83 2534 128 2797 397 
L 2822 397 
L 2880 0 
L 3482 0 
L 3482 5101 
L 2746 5101 
L 2746 3795 
L 2778 3213 
C 2490 3456 2234 3610 1830 3610 
C 1043 3610 320 2899 320 1760 
C 320 589 890 -83 1773 -83 
z
M 1946 525 
C 1395 525 1082 966 1082 1766 
C 1082 2528 1478 2995 1971 2995 
C 2234 2995 2483 2912 2746 2675 
L 2746 954 
C 2490 659 2240 525 1946 525 
z
" transform="scale(0.015625)"/>
     <path id="NotoSansSC-Medium-28" d="M 2541 -83 
C 3187 -83 3718 154 4032 467 
L 4032 2509 
L 2426 2509 
L 2426 1901 
L 3360 1901 
L 3360 794 
C 3194 646 2906 563 2618 563 
C 1645 563 1126 1248 1126 2368 
C 1126 3475 1709 4154 2586 4154 
C 3040 4154 3328 3968 3565 3731 
L 3962 4205 
C 3674 4506 3226 4800 2560 4800 
C 1312 4800 365 3878 365 2342 
C 365 800 1286 -83 2541 -83 
z
" transform="scale(0.015625)"/>
     <path id="NotoSansSC-Medium-24" d="M 2458 -83 
C 3066 -83 3546 160 3923 595 
L 3526 1062 
C 3245 755 2918 563 2483 563 
C 1651 563 1126 1248 1126 2368 
C 1126 3475 1690 4154 2502 4154 
C 2886 4154 3181 3981 3424 3731 
L 3827 4205 
C 3539 4518 3078 4800 2490 4800 
C 1299 4800 365 3878 365 2342 
C 365 800 1274 -83 2458 -83 
z
" transform="scale(0.015625)"/>
     <path id="NotoSansSC-Medium-56" d="M 1594 -83 
C 2074 -83 2419 160 2739 531 
L 2758 531 
L 2816 0 
L 3418 0 
L 3418 3520 
L 2682 3520 
L 2682 1075 
C 2387 704 2163 550 1837 550 
C 1421 550 1248 794 1248 1395 
L 1248 3520 
L 512 3520 
L 512 1306 
C 512 410 838 -83 1594 -83 
z
" transform="scale(0.015625)"/>
     <path id="NotoSansSC-Medium-4f" d="M 557 0 
L 1293 0 
L 1293 2496 
C 1600 2810 1824 2976 2150 2976 
C 2566 2976 2746 2733 2746 2125 
L 2746 0 
L 3482 0 
L 3482 2214 
C 3482 3110 3149 3610 2400 3610 
C 1920 3610 1562 3347 1235 3034 
L 1216 3034 
L 1158 3520 
L 557 3520 
L 557 0 
z
" transform="scale(0.015625)"/>
     <path id="NotoSansSC-Medium-44" d="M 1990 -83 
C 2394 -83 2810 64 3136 352 
L 2829 838 
C 2618 659 2355 518 2061 518 
C 1478 518 1069 1011 1069 1760 
C 1069 2502 1491 3002 2086 3002 
C 2323 3002 2522 2899 2714 2726 
L 3078 3206 
C 2822 3430 2496 3610 2048 3610 
C 1120 3610 307 2931 307 1760 
C 307 589 1037 -83 1990 -83 
z
" transform="scale(0.015625)"/>
     <path id="NotoSansSC-Medium-4a" d="M 557 0 
L 1293 0 
L 1293 3520 
L 557 3520 
L 557 0 
z
M 922 4179 
C 1190 4179 1382 4352 1382 4621 
C 1382 4883 1190 5056 922 5056 
C 653 5056 467 4883 467 4621 
C 467 4352 653 4179 922 4179 
z
" transform="scale(0.015625)"/>
    </defs>
    <use xlink:href="#NotoSansSC-Medium-3b3c"/>
    <use xlink:href="#NotoSansSC-Medium-4260" transform="translate(100 0)"/>
    <use xlink:href="#NotoSansSC-Medium-1b" transform="translate(200 0)"/>
    <use xlink:href="#NotoSansSC-Medium-1" transform="translate(229.796875 0)"/>
    <use xlink:href="#NotoSansSC-Medium-38" transform="translate(252.296875 0)"/>
    <use xlink:href="#NotoSansSC-Medium-50" transform="translate(341.703125 0)"/>
    <use xlink:href="#NotoSansSC-Medium-53" transform="translate(403.109375 0)"/>
    <use xlink:href="#NotoSansSC-Medium-4d" transform="translate(444.015625 0)"/>
    <use xlink:href="#NotoSansSC-Medium-45" transform="translate(473.8125 0)"/>
    <use xlink:href="#NotoSansSC-Medium-1" transform="translate(536.8125 0)"/>
    <use xlink:href="#NotoSansSC-Medium-28" transform="translate(559.3125 0)"/>
    <use xlink:href="#NotoSansSC-Medium-50" transform="translate(629.40625 0)"/>
    <use xlink:href="#NotoSansSC-Medium-4d" transform="translate(690.8125 0)"/>
    <use xlink:href="#NotoSansSC-Medium-45" transform="translate(720.609375 0)"/>
    <use xlink:href="#NotoSansSC-Medium-1" transform="translate(783.609375 0)"/>
    <use xlink:href="#NotoSansSC-Medium-24" transform="translate(806.109375 0)"/>
    <use xlink:href="#NotoSansSC-Medium-50" transform="translate(870.703125 0)"/>
    <use xlink:href="#NotoSansSC-Medium-56" transform="translate(932.109375 0)"/>
    <use xlink:href="#NotoSansSC-Medium-4f" transform="translate(994.109375 0)"/>
    <use xlink:href="#NotoSansSC-Medium-44" transform="translate(1056.515625 0)"/>
    <use xlink:href="#NotoSansSC-Medium-4a" transform="translate(1108.21875 0)"/>
    <use xlink:href="#NotoSansSC-Medium-4d" transform="translate(1136.921875 0)"/>
    <use xlink:href="#NotoSansSC-Medium-1" transform="translate(1166.71875 0)"/>
    <use xlink:href="#NotoSansSC-Medium-561" transform="translate(1189.21875 0)"/>
    <use xlink:href="#NotoSansSC-Medium-1" transform="translate(1289.21875 0)"/>
    <use xlink:href="#NotoSansSC-Medium-76ec" transform="translate(1311.71875 0)"/>
    <use xlink:href="#NotoSansSC-Medium-76ea" transform="translate(1368.71875 0)"/>
    <use xlink:href="#NotoSansSC-Medium-76ec" transform="translate(1425.71875 0)"/>
    <use xlink:href="#NotoSansSC-Medium-76f0" transform="translate(1482.71875 0)"/>
    <use xlink:href="#NotoSansSC-Medium-1" transform="translate(1539.71875 0)"/>
    <use xlink:href="#NotoSansSC-Medium-32" transform="translate(1562.21875 0)"/>
    <use xlink:href="#NotoSansSC-Medium-76eb" transform="translate(1637.625 0)"/>
   </g>
  </g>
 </g>
 <defs>
  <clipPath id="pa43c640547">
   <rect x="41.3" y="80.513125" width="314.82" height="175.104"/>
  </clipPath>
 </defs>
</svg>
