<?xml version="1.0" encoding="utf-8" standalone="no"?>
<!DOCTYPE svg PUBLIC "-//W3C//DTD SVG 1.1//EN"
  "http://www.w3.org/Graphics/SVG/1.1/DTD/svg11.dtd">
<svg xmlns:xlink="http://www.w3.org/1999/xlink" width="375.245703pt" height="292.459pt" viewBox="0 0 375.245703 292.459" xmlns="http://www.w3.org/2000/svg" version="1.1">
 <metadata>
  <rdf:RDF xmlns:dc="http://purl.org/dc/elements/1.1/" xmlns:cc="http://creativecommons.org/ns#" xmlns:rdf="http://www.w3.org/1999/02/22-rdf-syntax-ns#">
   <cc:Work>
    <dc:type rdf:resource="http://purl.org/dc/dcmitype/StillImage"/>
    <dc:date>2026-06-15T20:56:28.787385</dc:date>
    <dc:format>image/svg+xml</dc:format>
    <dc:creator>
     <cc:Agent>
      <dc:title>Matplotlib v3.10.9, https://matplotlib.org/</dc:title>
     </cc:Agent>
    </dc:creator>
   </cc:Work>
  </rdf:RDF>
 </metadata>
 <defs>
  <style type="text/css">*{stroke-linejoin: round; stroke-linecap: butt}</style>
 </defs>
 <g id="figure_1">
  <g id="patch_1">
   <path d="M 0 292.459 
L 375.245703 292.459 
L 375.245703 0 
L 0 0 
z
" style="fill: #ffffff"/>
  </g>
  <g id="axes_1">
   <g id="patch_2">
    <path d="M 41.3 255.295562 
L 356.12 255.295562 
L 356.12 80.191562 
L 41.3 80.191562 
z
" style="fill: #ffffff"/>
   </g>
   <g id="matplotlib.axis_1">
    <g id="xtick_1">
     <g id="line2d_1">
      <path d="M 41.3 255.295562 
L 41.3 80.191562 
" clip-path="url(#pcbd015d15b)" style="fill: none; stroke: #e2e8f0; stroke-opacity: 0.4; stroke-width: 0.5; stroke-linecap: square"/>
     </g>
     <g id="line2d_2"/>
     <g id="text_1">
      <!-- 0 -->
      <g style="fill: #94a3b8" transform="translate(38.524766 265.989937) scale(0.09 -0.09)">
       <defs>
        <path id="MicrosoftYaHei-Bold-30" d="M 244 2341 
Q 244 3597 706 4259 
Q 1169 4922 2044 4922 
Q 3713 4922 3713 2453 
Q 3713 1238 3259 577 
Q 2806 -84 1950 -84 
Q 244 -84 244 2341 
z
M 1266 2366 
Q 1266 691 1981 691 
Q 2684 691 2684 2416 
Q 2684 4147 2000 4147 
Q 1266 4147 1266 2366 
z
" transform="scale(0.015625)"/>
       </defs>
       <use xlink:href="#MicrosoftYaHei-Bold-30"/>
      </g>
     </g>
    </g>
    <g id="xtick_2">
     <g id="line2d_3">
      <path d="M 80.6525 255.295562 
L 80.6525 80.191562 
" clip-path="url(#pcbd015d15b)" style="fill: none; stroke: #e2e8f0; stroke-opacity: 0.4; stroke-width: 0.5; stroke-linecap: square"/>
     </g>
     <g id="line2d_4"/>
     <g id="text_2">
      <!-- 50 -->
      <g style="fill: #94a3b8" transform="translate(75.102031 265.989937) scale(0.09 -0.09)">
       <defs>
        <path id="MicrosoftYaHei-Bold-35" d="M 541 125 
L 541 997 
Q 1044 691 1613 691 
Q 2041 691 2283 902 
Q 2525 1113 2525 1472 
Q 2525 2225 1494 2225 
Q 1113 2225 616 2169 
L 797 4841 
L 3359 4841 
L 3359 4009 
L 1613 4009 
L 1544 2991 
Q 1803 3013 2022 3013 
Q 2731 3013 3142 2625 
Q 3553 2238 3553 1575 
Q 3553 844 3056 380 
Q 2559 -84 1706 -84 
Q 1016 -84 541 125 
z
" transform="scale(0.015625)"/>
       </defs>
       <use xlink:href="#MicrosoftYaHei-Bold-35"/>
       <use xlink:href="#MicrosoftYaHei-Bold-30" transform="translate(61.669922 0)"/>
      </g>
     </g>
    </g>
    <g id="xtick_3">
     <g id="line2d_5">
      <path d="M 120.005 255.295562 
L 120.005 80.191562 
" clip-path="url(#pcbd015d15b)" style="fill: none; stroke: #e2e8f0; stroke-opacity: 0.4; stroke-width: 0.5; stroke-linecap: square"/>
     </g>
     <g id="line2d_6"/>
     <g id="text_3">
      <!-- 100 -->
      <g style="fill: #94a3b8" transform="translate(111.679297 265.989937) scale(0.09 -0.09)">
       <defs>
        <path id="MicrosoftYaHei-Bold-31" d="M 2716 4947 
L 2716 0 
L 1700 0 
L 1700 3809 
Q 1513 3647 1188 3517 
Q 863 3388 591 3356 
L 591 4222 
Q 1447 4472 2072 4947 
L 2716 4947 
z
" transform="scale(0.015625)"/>
       </defs>
       <use xlink:href="#MicrosoftYaHei-Bold-31"/>
       <use xlink:href="#MicrosoftYaHei-Bold-30" transform="translate(61.669922 0)"/>
       <use xlink:href="#MicrosoftYaHei-Bold-30" transform="translate(123.339844 0)"/>
      </g>
     </g>
    </g>
    <g id="xtick_4">
     <g id="line2d_7">
      <path d="M 159.3575 255.295562 
L 159.3575 80.191562 
" clip-path="url(#pcbd015d15b)" style="fill: none; stroke: #e2e8f0; stroke-opacity: 0.4; stroke-width: 0.5; stroke-linecap: square"/>
     </g>
     <g id="line2d_8"/>
     <g id="text_4">
      <!-- 150 -->
      <g style="fill: #94a3b8" transform="translate(151.031797 265.989937) scale(0.09 -0.09)">
       <use xlink:href="#MicrosoftYaHei-Bold-31"/>
       <use xlink:href="#MicrosoftYaHei-Bold-35" transform="translate(61.669922 0)"/>
       <use xlink:href="#MicrosoftYaHei-Bold-30" transform="translate(123.339844 0)"/>
      </g>
     </g>
    </g>
    <g id="xtick_5">
     <g id="line2d_9">
      <path d="M 198.71 255.295562 
L 198.71 80.191562 
" clip-path="url(#pcbd015d15b)" style="fill: none; stroke: #e2e8f0; stroke-opacity: 0.4; stroke-width: 0.5; stroke-linecap: square"/>
     </g>
     <g id="line2d_10"/>
     <g id="text_5">
      <!-- 200 -->
      <g style="fill: #94a3b8" transform="translate(190.384297 265.989937) scale(0.09 -0.09)">
       <defs>
        <path id="MicrosoftYaHei-Bold-32" d="M 1500 841 
L 3553 841 
L 3553 0 
L 334 0 
L 334 359 
Q 334 738 473 1050 
Q 613 1363 856 1633 
Q 1100 1903 1613 2266 
Q 2081 2616 2268 2886 
Q 2456 3156 2456 3459 
Q 2456 4113 1744 4113 
Q 1119 4113 550 3613 
L 550 4513 
Q 1184 4922 1975 4922 
Q 2700 4922 3122 4551 
Q 3544 4181 3544 3531 
Q 3544 3169 3422 2876 
Q 3300 2584 3069 2328 
Q 2838 2072 2328 1713 
Q 1838 1363 1669 1172 
Q 1500 981 1500 841 
z
" transform="scale(0.015625)"/>
       </defs>
       <use xlink:href="#MicrosoftYaHei-Bold-32"/>
       <use xlink:href="#MicrosoftYaHei-Bold-30" transform="translate(61.669922 0)"/>
       <use xlink:href="#MicrosoftYaHei-Bold-30" transform="translate(123.339844 0)"/>
      </g>
     </g>
    </g>
    <g id="xtick_6">
     <g id="line2d_11">
      <path d="M 238.0625 255.295562 
L 238.0625 80.191562 
" clip-path="url(#pcbd015d15b)" style="fill: none; stroke: #e2e8f0; stroke-opacity: 0.4; stroke-width: 0.5; stroke-linecap: square"/>
     </g>
     <g id="line2d_12"/>
     <g id="text_6">
      <!-- 250 -->
      <g style="fill: #94a3b8" transform="translate(229.736797 265.989937) scale(0.09 -0.09)">
       <use xlink:href="#MicrosoftYaHei-Bold-32"/>
       <use xlink:href="#MicrosoftYaHei-Bold-35" transform="translate(61.669922 0)"/>
       <use xlink:href="#MicrosoftYaHei-Bold-30" transform="translate(123.339844 0)"/>
      </g>
     </g>
    </g>
    <g id="xtick_7">
     <g id="line2d_13">
      <path d="M 277.415 255.295562 
L 277.415 80.191562 
" clip-path="url(#pcbd015d15b)" style="fill: none; stroke: #e2e8f0; stroke-opacity: 0.4; stroke-width: 0.5; stroke-linecap: square"/>
     </g>
     <g id="line2d_14"/>
     <g id="text_7">
      <!-- 300 -->
      <g style="fill: #94a3b8" transform="translate(269.089297 265.989937) scale(0.09 -0.09)">
       <defs>
        <path id="MicrosoftYaHei-Bold-33" d="M 494 1053 
Q 978 691 1625 691 
Q 2034 691 2275 872 
Q 2516 1053 2516 1388 
Q 2516 1731 2230 1912 
Q 1944 2094 1428 2094 
L 997 2094 
L 997 2872 
L 1394 2872 
Q 2369 2872 2369 3528 
Q 2369 4147 1622 4147 
Q 1134 4147 675 3828 
L 675 4663 
Q 1175 4922 1853 4922 
Q 2541 4922 2969 4605 
Q 3397 4288 3397 3725 
Q 3397 2775 2434 2531 
L 2434 2516 
Q 2941 2459 3244 2145 
Q 3547 1831 3547 1381 
Q 3547 691 3042 303 
Q 2538 -84 1697 -84 
Q 950 -84 494 163 
L 494 1053 
z
" transform="scale(0.015625)"/>
       </defs>
       <use xlink:href="#MicrosoftYaHei-Bold-33"/>
       <use xlink:href="#MicrosoftYaHei-Bold-30" transform="translate(61.669922 0)"/>
       <use xlink:href="#MicrosoftYaHei-Bold-30" transform="translate(123.339844 0)"/>
      </g>
     </g>
    </g>
    <g id="xtick_8">
     <g id="line2d_15">
      <path d="M 316.7675 255.295562 
L 316.7675 80.191562 
" clip-path="url(#pcbd015d15b)" style="fill: none; stroke: #e2e8f0; stroke-opacity: 0.4; stroke-width: 0.5; stroke-linecap: square"/>
     </g>
     <g id="line2d_16"/>
     <g id="text_8">
      <!-- 350 -->
      <g style="fill: #94a3b8" transform="translate(308.441797 265.989937) scale(0.09 -0.09)">
       <use xlink:href="#MicrosoftYaHei-Bold-33"/>
       <use xlink:href="#MicrosoftYaHei-Bold-35" transform="translate(61.669922 0)"/>
       <use xlink:href="#MicrosoftYaHei-Bold-30" transform="translate(123.339844 0)"/>
      </g>
     </g>
    </g>
    <g id="xtick_9">
     <g id="line2d_17">
      <path d="M 356.12 255.295562 
L 356.12 80.191562 
" clip-path="url(#pcbd015d15b)" style="fill: none; stroke: #e2e8f0; stroke-opacity: 0.4; stroke-width: 0.5; stroke-linecap: square"/>
     </g>
     <g id="line2d_18"/>
     <g id="text_9">
      <!-- 400 -->
      <g style="fill: #94a3b8" transform="translate(347.794297 265.989937) scale(0.09 -0.09)">
       <defs>
        <path id="MicrosoftYaHei-Bold-34" d="M 3184 4841 
L 3184 1766 
L 3869 1766 
L 3869 1031 
L 3184 1031 
L 3184 0 
L 2266 0 
L 2266 1031 
L 103 1031 
L 103 1772 
Q 775 2522 1362 3359 
Q 1950 4197 2250 4841 
L 3184 4841 
z
M 997 1766 
L 2266 1766 
L 2266 3541 
Q 2116 3259 1836 2859 
Q 1556 2459 997 1766 
z
" transform="scale(0.015625)"/>
       </defs>
       <use xlink:href="#MicrosoftYaHei-Bold-34"/>
       <use xlink:href="#MicrosoftYaHei-Bold-30" transform="translate(61.669922 0)"/>
       <use xlink:href="#MicrosoftYaHei-Bold-30" transform="translate(123.339844 0)"/>
      </g>
     </g>
    </g>
    <g id="text_10">
     <!-- 购金量 (吨) -->
     <g style="fill: #64748b" transform="translate(176.371719 279.421656) scale(0.09 -0.09)">
      <defs>
       <path id="MicrosoftYaHei-8d2d" d="M 438 4953 
L 2550 4953 
L 2550 3159 
Q 3175 4116 3481 5316 
L 3975 5203 
Q 3825 4753 3663 4347 
L 6050 4347 
Q 6013 1309 5975 303 
Q 5919 -709 4938 -709 
Q 4400 -709 3794 -684 
Q 3756 -434 3694 -172 
Q 4300 -241 4806 -247 
Q 5463 -241 5500 403 
Q 5544 1466 5563 3891 
L 3475 3891 
Q 3244 3347 2994 2897 
Q 2813 3016 2550 3128 
L 2550 1078 
L 2100 1078 
L 2100 4497 
L 888 4497 
L 888 1041 
L 438 1041 
L 438 4953 
z
M 4213 2378 
L 4644 2503 
Q 4931 1603 5200 616 
L 4731 478 
Q 4681 666 4638 859 
Q 3975 816 3450 753 
Q 3175 722 2894 653 
L 2700 1059 
Q 2919 1197 3025 1434 
Q 3369 2266 3675 3434 
L 4150 3322 
Q 3775 2166 3406 1191 
Q 3938 1222 4531 1266 
Q 4381 1816 4213 2378 
z
M 1269 3953 
L 1719 3953 
L 1719 2697 
Q 1719 1484 1550 816 
L 1731 984 
Q 2369 322 2850 -222 
L 2456 -553 
Q 2013 16 1481 603 
Q 1256 -109 400 -853 
Q 263 -659 69 -472 
Q 800 72 1038 691 
Q 1269 1228 1269 2516 
L 1269 3953 
z
" transform="scale(0.015625)"/>
       <path id="MicrosoftYaHei-91d1" d="M 300 -141 
L 2950 -141 
L 2950 1384 
L 713 1384 
L 713 1841 
L 2950 1841 
L 2950 2716 
L 1325 2716 
L 1325 3153 
Q 881 2872 363 2591 
Q 231 2828 50 3059 
Q 2131 4034 2994 5297 
L 3675 5297 
L 3531 5122 
Q 4525 3853 6344 3147 
Q 6175 2909 6013 2647 
Q 5525 2853 5069 3141 
L 5069 2716 
L 3450 2716 
L 3450 1841 
L 5675 1841 
L 5675 1384 
L 3450 1384 
L 3450 -141 
L 6113 -141 
L 6113 -603 
L 300 -603 
L 300 -141 
z
M 3206 4766 
Q 2563 3953 1350 3172 
L 5019 3172 
Q 4044 3791 3206 4766 
z
M 4094 284 
Q 4600 809 4950 1309 
L 5388 1028 
Q 4950 484 4469 -16 
L 4094 284 
z
M 1000 1003 
L 1369 1297 
Q 1825 834 2263 334 
L 1838 -3 
Q 1463 491 1000 1003 
z
" transform="scale(0.015625)"/>
       <path id="MicrosoftYaHei-91cf" d="M 113 -278 
L 2981 -278 
L 2981 78 
L 475 78 
L 475 403 
L 2981 403 
L 2981 759 
L 1494 759 
L 1494 597 
L 1069 597 
L 1069 2516 
L 5350 2516 
L 5350 597 
L 4925 597 
L 4925 759 
L 3419 759 
L 3419 403 
L 5931 403 
L 5931 78 
L 3419 78 
L 3419 -278 
L 6288 -278 
L 6288 -616 
L 113 -616 
L 113 -278 
z
M 1119 5072 
L 5306 5072 
L 5306 3284 
L 4881 3284 
L 4881 3453 
L 1544 3453 
L 1544 3284 
L 1119 3284 
L 1119 5072 
z
M 163 3153 
L 6263 3153 
L 6263 2816 
L 163 2816 
L 163 3153 
z
M 1544 3778 
L 4881 3778 
L 4881 4116 
L 1544 4116 
L 1544 3778 
z
M 4881 4747 
L 1544 4747 
L 1544 4416 
L 4881 4416 
L 4881 4747 
z
M 3419 1084 
L 4925 1084 
L 4925 1491 
L 3419 1491 
L 3419 1084 
z
M 1494 1084 
L 2981 1084 
L 2981 1491 
L 1494 1491 
L 1494 1084 
z
M 4925 2191 
L 3419 2191 
L 3419 1791 
L 4925 1791 
L 4925 2191 
z
M 1494 1791 
L 2981 1791 
L 2981 2191 
L 1494 2191 
L 1494 1791 
z
" transform="scale(0.015625)"/>
       <path id="MicrosoftYaHei-20" transform="scale(0.015625)"/>
       <path id="MicrosoftYaHei-28" d="M 1531 -1100 
Q 478 100 478 1847 
Q 478 3594 1531 4841 
L 2072 4841 
Q 1016 3544 1016 1853 
Q 1016 166 2066 -1100 
L 1531 -1100 
z
" transform="scale(0.015625)"/>
       <path id="MicrosoftYaHei-5428" d="M 2313 4509 
L 3950 4509 
L 3950 5297 
L 4413 5297 
L 4413 4509 
L 6138 4509 
L 6138 4059 
L 4413 4059 
L 4413 1834 
L 5325 1834 
L 5325 3528 
L 5775 3528 
L 5775 1141 
L 5325 1141 
L 5325 1397 
L 4413 1397 
L 4413 216 
Q 4413 -197 4750 -197 
L 5369 -197 
Q 5713 -197 5756 141 
Q 5813 566 5850 1059 
Q 6106 947 6319 859 
Q 6256 341 6194 -34 
Q 6100 -647 5375 -647 
L 4644 -647 
Q 3950 -647 3950 147 
L 3950 1397 
L 2594 1397 
L 2594 3522 
L 3044 3522 
L 3044 1834 
L 3950 1834 
L 3950 4059 
L 2313 4059 
L 2313 4509 
z
M 450 4634 
L 2069 4634 
L 2069 353 
L 1619 353 
L 1619 684 
L 900 684 
L 900 253 
L 450 253 
L 450 4634 
z
M 1619 4197 
L 900 4197 
L 900 1122 
L 1619 1122 
L 1619 4197 
z
" transform="scale(0.015625)"/>
       <path id="MicrosoftYaHei-29" d="M 78 -1100 
Q 1131 163 1131 1853 
Q 1131 3547 72 4841 
L 616 4841 
Q 1672 3603 1672 1847 
Q 1672 91 616 -1100 
L 78 -1100 
z
" transform="scale(0.015625)"/>
      </defs>
      <use xlink:href="#MicrosoftYaHei-8d2d"/>
      <use xlink:href="#MicrosoftYaHei-91d1" transform="translate(100 0)"/>
      <use xlink:href="#MicrosoftYaHei-91cf" transform="translate(200 0)"/>
      <use xlink:href="#MicrosoftYaHei-20" transform="translate(300 0)"/>
      <use xlink:href="#MicrosoftYaHei-28" transform="translate(329.589844 0)"/>
      <use xlink:href="#MicrosoftYaHei-5428" transform="translate(362.988281 0)"/>
      <use xlink:href="#MicrosoftYaHei-29" transform="translate(462.988281 0)"/>
     </g>
    </g>
   </g>
   <g id="matplotlib.axis_2">
    <g id="ytick_1">
     <g id="line2d_19">
      <path d="M 41.3 240.764413 
L 356.12 240.764413 
" clip-path="url(#pcbd015d15b)" style="fill: none; stroke: #e2e8f0; stroke-opacity: 0.6; stroke-width: 0.5; stroke-linecap: square"/>
     </g>
     <g id="line2d_20"/>
     <g id="text_11">
      <!-- 中国 -->
      <g style="fill: #94a3b8" transform="translate(19.8 244.361601) scale(0.09 -0.09)">
       <defs>
        <path id="MicrosoftYaHei-Bold-4e2d" d="M 2719 5341 
L 3669 5341 
L 3669 4234 
L 6000 4234 
L 6000 728 
L 5075 728 
L 5075 1159 
L 3669 1159 
L 3669 -853 
L 2719 -853 
L 2719 1159 
L 1313 1159 
L 1313 709 
L 388 709 
L 388 4234 
L 2719 4234 
L 2719 5341 
z
M 5075 3372 
L 3669 3372 
L 3669 2022 
L 5075 2022 
L 5075 3372 
z
M 1313 2022 
L 2719 2022 
L 2719 3372 
L 1313 3372 
L 1313 2022 
z
" transform="scale(0.015625)"/>
        <path id="MicrosoftYaHei-Bold-56fd" d="M 356 -797 
L 356 5078 
L 6044 5078 
L 6044 -791 
L 5150 -791 
L 5150 -572 
L 1250 -572 
L 1250 -797 
L 356 -797 
z
M 5150 4309 
L 1250 4309 
L 1250 197 
L 5150 197 
L 5150 4309 
z
M 4800 2047 
L 4334 2047 
Q 4594 1822 4856 1566 
L 4525 1266 
L 4950 1266 
L 4950 534 
L 1419 534 
L 1419 1266 
L 2694 1266 
L 2694 2047 
L 1581 2047 
L 1581 2778 
L 2694 2778 
L 2694 3222 
L 1481 3222 
L 1481 3953 
L 4888 3953 
L 4888 3222 
L 3531 3222 
L 3531 2778 
L 4800 2778 
L 4800 2047 
z
M 3706 1734 
L 4069 2047 
L 3531 2047 
L 3531 1266 
L 4144 1266 
Q 3897 1547 3706 1734 
z
" transform="scale(0.015625)"/>
       </defs>
       <use xlink:href="#MicrosoftYaHei-Bold-4e2d"/>
       <use xlink:href="#MicrosoftYaHei-Bold-56fd" transform="translate(100 0)"/>
      </g>
     </g>
    </g>
    <g id="ytick_2">
     <g id="line2d_21">
      <path d="M 41.3 211.556073 
L 356.12 211.556073 
" clip-path="url(#pcbd015d15b)" style="fill: none; stroke: #e2e8f0; stroke-opacity: 0.6; stroke-width: 0.5; stroke-linecap: square"/>
     </g>
     <g id="line2d_22"/>
     <g id="text_12">
      <!-- 波兰 -->
      <g style="fill: #94a3b8" transform="translate(19.8 215.15326) scale(0.09 -0.09)">
       <defs>
        <path id="MicrosoftYaHei-Bold-6ce2" d="M 3688 5328 
L 4538 5328 
L 4538 4597 
L 6125 4597 
L 6125 3878 
L 5988 3128 
L 5169 3128 
L 5294 3834 
L 4538 3834 
L 4538 2891 
L 5938 2891 
L 5938 2141 
Q 5672 1238 5025 519 
Q 5578 163 6306 -34 
Q 6038 -416 5756 -866 
Q 5006 -588 4369 -81 
Q 3806 -506 3019 -866 
Q 2784 -494 2556 -156 
Q 2422 -522 2200 -872 
Q 1806 -578 1438 -353 
Q 1756 131 1897 784 
Q 2038 1438 2038 2503 
L 2038 4597 
L 3688 4597 
L 3688 5328 
z
M 2850 2891 
L 3688 2891 
L 3688 3834 
L 2850 3834 
L 2850 2891 
z
M 3631 2153 
Q 3950 1497 4350 1072 
Q 4825 1572 5006 2159 
L 2847 2159 
Q 2831 566 2600 -31 
Q 3244 234 3709 544 
Q 3241 1072 2988 1691 
L 3631 2153 
z
M 819 5284 
Q 1244 4984 1850 4491 
L 1256 3859 
Q 806 4291 275 4716 
L 819 5284 
z
M 625 3622 
Q 1100 3284 1631 2834 
L 1056 2159 
Q 619 2572 100 3028 
L 625 3622 
z
M 869 1834 
Q 1288 1666 1688 1541 
L 1081 -828 
Q 631 -672 238 -572 
Q 569 453 869 1834 
z
" transform="scale(0.015625)"/>
        <path id="MicrosoftYaHei-Bold-5170" d="M 263 4091 
L 1813 4091 
Q 1556 4438 1219 4841 
L 1925 5341 
Q 2188 5053 2813 4347 
L 2450 4091 
L 3481 4091 
Q 3969 4763 4319 5353 
L 5219 4884 
L 4547 4091 
L 6163 4091 
L 6163 3216 
L 263 3216 
L 263 4091 
z
M 775 2259 
L 5625 2259 
L 5625 1397 
L 775 1397 
L 775 2259 
z
M 150 378 
L 6244 378 
L 6244 -509 
L 150 -509 
L 150 378 
z
" transform="scale(0.015625)"/>
       </defs>
       <use xlink:href="#MicrosoftYaHei-Bold-6ce2"/>
       <use xlink:href="#MicrosoftYaHei-Bold-5170" transform="translate(100 0)"/>
      </g>
     </g>
    </g>
    <g id="ytick_3">
     <g id="line2d_23">
      <path d="M 41.3 182.347733 
L 356.12 182.347733 
" clip-path="url(#pcbd015d15b)" style="fill: none; stroke: #e2e8f0; stroke-opacity: 0.6; stroke-width: 0.5; stroke-linecap: square"/>
     </g>
     <g id="line2d_24"/>
     <g id="text_13">
      <!-- 印度 -->
      <g style="fill: #94a3b8" transform="translate(19.8 185.94492) scale(0.09 -0.09)">
       <defs>
        <path id="MicrosoftYaHei-Bold-5370" d="M 3150 4616 
Q 2319 4416 1331 4222 
L 1331 3216 
L 2888 3216 
L 2888 2366 
L 1331 2366 
L 1331 947 
L 2931 1403 
Q 2950 922 2988 534 
Q 2003 275 1487 97 
Q 972 -81 706 -316 
L 300 397 
Q 481 559 481 978 
L 481 4797 
Q 1713 5022 2800 5359 
L 3150 4616 
z
M 3188 4866 
L 5975 4866 
L 5975 928 
Q 5975 128 5150 128 
L 4325 128 
Q 4294 584 4244 1003 
Q 4753 959 4931 959 
Q 5163 959 5163 1209 
L 5163 4016 
L 4038 4016 
L 4038 -803 
L 3188 -803 
L 3188 4866 
z
" transform="scale(0.015625)"/>
        <path id="MicrosoftYaHei-Bold-5ea6" d="M 5656 1697 
L 5656 1022 
Q 5156 447 4656 97 
Q 5344 -34 6306 -66 
Q 6119 -428 5938 -822 
Q 4556 -653 3719 -353 
Q 2825 -653 1494 -872 
Q 1338 -522 1088 -178 
Q 2100 -128 2888 78 
Q 2369 453 1938 1022 
L 1538 1022 
L 1538 1697 
L 5656 1697 
z
M 1325 2478 
Q 1338 134 700 -884 
Q 356 -553 19 -297 
Q 550 697 525 2591 
L 525 4772 
L 3013 4772 
Q 2944 4953 2831 5209 
L 3869 5359 
Q 3981 5072 4094 4772 
L 6256 4772 
L 6256 4072 
L 1325 4072 
L 1325 2478 
z
M 1463 3684 
L 2144 3684 
L 2144 3947 
L 2944 3947 
L 2944 3684 
L 4494 3684 
L 4494 3947 
L 5294 3947 
L 5294 3684 
L 6144 3684 
L 6144 3009 
L 5294 3009 
L 5294 1991 
L 2144 1991 
L 2144 3009 
L 1463 3009 
L 1463 3684 
z
M 3756 378 
Q 4325 641 4725 1022 
L 2825 1022 
Q 3225 622 3756 378 
z
M 4494 2628 
L 4494 3009 
L 2944 3009 
L 2944 2628 
L 4494 2628 
z
" transform="scale(0.015625)"/>
       </defs>
       <use xlink:href="#MicrosoftYaHei-Bold-5370"/>
       <use xlink:href="#MicrosoftYaHei-Bold-5ea6" transform="translate(100 0)"/>
      </g>
     </g>
    </g>
    <g id="ytick_4">
     <g id="line2d_25">
      <path d="M 41.3 153.139392 
L 356.12 153.139392 
" clip-path="url(#pcbd015d15b)" style="fill: none; stroke: #e2e8f0; stroke-opacity: 0.6; stroke-width: 0.5; stroke-linecap: square"/>
     </g>
     <g id="line2d_26"/>
     <g id="text_14">
      <!-- 土耳其 -->
      <g style="fill: #94a3b8" transform="translate(10.8 156.73658) scale(0.09 -0.09)">
       <defs>
        <path id="MicrosoftYaHei-Bold-571f" d="M 150 372 
L 2706 372 
L 2706 2622 
L 538 2622 
L 538 3497 
L 2706 3497 
L 2706 5272 
L 3694 5272 
L 3694 3497 
L 5863 3497 
L 5863 2622 
L 3694 2622 
L 3694 372 
L 6275 372 
L 6275 -503 
L 150 -503 
L 150 372 
z
" transform="scale(0.015625)"/>
        <path id="MicrosoftYaHei-Bold-8033" d="M 88 703 
L 931 728 
L 931 4203 
L 113 4203 
L 113 5016 
L 6288 5016 
L 6288 4203 
L 5400 4203 
L 5400 897 
L 6288 934 
Q 6263 391 6269 109 
L 5400 75 
L 5400 -834 
L 4513 -834 
L 4513 41 
L 163 -147 
L 88 703 
z
M 1819 3591 
L 4513 3591 
L 4513 4203 
L 1819 4203 
L 1819 3591 
z
M 1819 2203 
L 4513 2203 
L 4513 2816 
L 1819 2816 
L 1819 2203 
z
M 4513 859 
L 4513 1428 
L 1819 1428 
L 1819 759 
L 4513 859 
z
" transform="scale(0.015625)"/>
        <path id="MicrosoftYaHei-Bold-5176" d="M 5406 5291 
L 5406 4684 
L 6150 4684 
L 6150 3934 
L 5406 3934 
L 5406 1353 
L 6288 1353 
L 6288 603 
L 2344 603 
L 2731 -103 
Q 2044 -366 575 -884 
Q 369 -447 156 -109 
Q 1350 241 2319 603 
L 125 603 
L 125 1353 
L 981 1353 
L 981 3934 
L 250 3934 
L 250 4684 
L 981 4684 
L 981 5291 
L 1856 5291 
L 1856 4684 
L 4531 4684 
L 4531 5291 
L 5406 5291 
z
M 1856 3534 
L 4531 3534 
L 4531 3934 
L 1856 3934 
L 1856 3534 
z
M 1856 2447 
L 4531 2447 
L 4531 2847 
L 1856 2847 
L 1856 2447 
z
M 1856 1353 
L 4531 1353 
L 4531 1759 
L 1856 1759 
L 1856 1353 
z
M 3975 591 
Q 5250 247 6281 -84 
L 5888 -872 
Q 4825 -478 3613 -97 
L 3975 591 
z
" transform="scale(0.015625)"/>
       </defs>
       <use xlink:href="#MicrosoftYaHei-Bold-571f"/>
       <use xlink:href="#MicrosoftYaHei-Bold-8033" transform="translate(100 0)"/>
       <use xlink:href="#MicrosoftYaHei-Bold-5176" transform="translate(200 0)"/>
      </g>
     </g>
    </g>
    <g id="ytick_5">
     <g id="line2d_27">
      <path d="M 41.3 123.931052 
L 356.12 123.931052 
" clip-path="url(#pcbd015d15b)" style="fill: none; stroke: #e2e8f0; stroke-opacity: 0.6; stroke-width: 0.5; stroke-linecap: square"/>
     </g>
     <g id="line2d_28"/>
     <g id="text_15">
      <!-- 新加坡 -->
      <g style="fill: #94a3b8" transform="translate(10.8 127.52824) scale(0.09 -0.09)">
       <defs>
        <path id="MicrosoftYaHei-Bold-65b0" d="M 3300 4078 
L 2444 4078 
Q 2616 4000 3113 3784 
Q 3009 3625 2794 3303 
L 3438 3303 
L 3438 2603 
L 2225 2603 
L 2225 2197 
L 3325 2197 
L 3325 1497 
L 2225 1497 
L 2225 -9 
Q 2225 -300 2101 -469 
Q 1978 -638 1758 -683 
Q 1538 -728 944 -728 
Q 916 -356 819 -25 
L 688 -303 
Q 444 -153 19 9 
Q 331 597 563 1384 
L 1263 1172 
Q 1094 606 863 78 
Q 1016 66 1169 66 
Q 1406 66 1413 347 
L 1413 1497 
L 238 1497 
L 238 2197 
L 1413 2197 
L 1413 2603 
L 138 2603 
L 138 3303 
L 809 3303 
Q 678 3559 538 3791 
L 1219 4066 
Q 1469 3650 1638 3303 
L 1913 3303 
Q 2222 3825 2338 4078 
L 250 4078 
L 250 4778 
L 1363 4778 
Q 1278 5006 1200 5191 
L 2063 5347 
Q 2153 5103 2250 4778 
L 3300 4778 
L 3300 4078 
z
M 6300 2484 
L 5825 2484 
L 5825 -766 
L 5000 -766 
L 5000 2484 
L 4450 2484 
L 4450 2128 
Q 4450 150 3594 -891 
Q 3169 -522 2806 -266 
Q 3163 50 3363 519 
L 2725 159 
Q 2506 653 2250 1084 
L 2850 1384 
Q 3072 1084 3366 525 
Q 3625 1134 3625 2003 
L 3625 4816 
Q 5050 4959 5944 5272 
L 6300 4453 
Q 5456 4228 4450 4134 
L 4450 3303 
L 6300 3303 
L 6300 2484 
z
" transform="scale(0.015625)"/>
        <path id="MicrosoftYaHei-Bold-52a0" d="M 1475 -716 
Q 1381 -278 1256 222 
Q 1644 197 1894 197 
Q 2044 197 2126 261 
Q 2209 325 2228 437 
Q 2247 550 2272 1386 
Q 2297 2222 2306 3472 
L 1700 3472 
Q 1666 503 575 -878 
Q 356 -453 81 16 
Q 863 1125 891 3472 
L 175 3472 
L 175 4291 
L 909 4291 
Q 919 4828 919 5322 
L 1731 5322 
L 1716 4291 
L 3131 4291 
L 3091 1766 
L 3050 300 
Q 3034 -147 2861 -378 
Q 2688 -609 2448 -662 
Q 2209 -716 1475 -716 
z
M 3500 -716 
L 3500 4797 
L 6025 4797 
L 6025 -678 
L 5188 -678 
L 5188 -166 
L 4338 -166 
L 4338 -716 
L 3500 -716 
z
M 5188 3978 
L 4338 3978 
L 4338 653 
L 5188 653 
L 5188 3978 
z
" transform="scale(0.015625)"/>
        <path id="MicrosoftYaHei-Bold-5761" d="M 306 -209 
L 100 722 
L 775 947 
L 775 3059 
L 175 3059 
L 175 3872 
L 775 3872 
L 775 5328 
L 1600 5328 
L 1600 3872 
L 2163 3872 
L 2163 3059 
L 1600 3059 
L 1600 1241 
L 2056 1416 
Q 2056 1247 2075 916 
Q 2281 1644 2281 2603 
L 2281 4597 
L 3938 4597 
L 3938 5353 
L 4763 5353 
L 4763 4597 
L 6200 4597 
L 6200 3878 
L 6063 3128 
L 5275 3128 
L 5394 3834 
L 4763 3834 
L 4763 2891 
L 5969 2891 
L 5969 2128 
Q 5672 1247 5072 550 
Q 5603 191 6294 -3 
Q 5956 -497 5756 -841 
Q 5031 -525 4463 -44 
Q 3897 -513 3156 -878 
Q 2963 -547 2650 -78 
Q 3347 172 3866 550 
Q 3434 1066 3131 1716 
L 3759 2159 
L 3084 2159 
Q 3013 338 2206 -847 
Q 1869 -528 1500 -247 
Q 1741 56 1909 447 
Q 1084 122 306 -209 
z
M 3094 2891 
L 3938 2891 
L 3938 3834 
L 3094 3834 
L 3094 2891 
z
M 4453 1084 
Q 4866 1553 5094 2159 
L 3772 2159 
Q 4034 1541 4453 1084 
z
" transform="scale(0.015625)"/>
       </defs>
       <use xlink:href="#MicrosoftYaHei-Bold-65b0"/>
       <use xlink:href="#MicrosoftYaHei-Bold-52a0" transform="translate(100 0)"/>
       <use xlink:href="#MicrosoftYaHei-Bold-5761" transform="translate(200 0)"/>
      </g>
     </g>
    </g>
    <g id="ytick_6">
     <g id="line2d_29">
      <path d="M 41.3 94.722712 
L 356.12 94.722712 
" clip-path="url(#pcbd015d15b)" style="fill: none; stroke: #e2e8f0; stroke-opacity: 0.6; stroke-width: 0.5; stroke-linecap: square"/>
     </g>
     <g id="line2d_30"/>
     <g id="text_16">
      <!-- 捷克 -->
      <g style="fill: #94a3b8" transform="translate(19.8 98.319899) scale(0.09 -0.09)">
       <defs>
        <path id="MicrosoftYaHei-Bold-6377" d="M 6300 2272 
L 5838 2272 
L 5838 1297 
L 4338 1297 
L 4338 972 
L 6025 972 
L 6025 347 
L 4338 347 
L 4338 -13 
Q 5441 -19 6288 9 
Q 6138 -359 6038 -703 
Q 4488 -694 3778 -655 
Q 3069 -616 2678 -194 
Q 2453 -597 2075 -866 
Q 1841 -600 1491 -347 
Q 1416 -631 1197 -723 
Q 978 -816 250 -803 
Q 188 -434 94 3 
L 588 3 
Q 738 3 738 247 
L 738 1400 
L 150 1241 
L 81 2159 
Q 434 2225 738 2291 
L 738 3378 
L 113 3378 
L 113 4153 
L 738 4153 
L 738 5309 
L 1531 5309 
L 1531 4153 
L 2031 4153 
L 2031 3378 
L 1531 3378 
L 1531 2469 
Q 1794 2534 1994 2597 
Q 1994 2103 2000 1759 
L 1531 1625 
L 1531 9 
Q 1531 -184 1497 -328 
Q 2169 122 2250 1191 
L 2994 1116 
Q 2984 791 2928 506 
Q 3150 175 3563 56 
L 3563 1297 
L 2338 1297 
L 2338 1909 
L 3563 1909 
L 3563 2272 
L 2131 2272 
L 2131 2928 
L 3563 2928 
L 3563 3291 
L 2338 3291 
L 2338 3897 
L 3563 3897 
L 3563 4191 
L 2106 4191 
L 2106 4853 
L 3563 4853 
L 3563 5316 
L 4338 5316 
L 4338 4853 
L 6075 4853 
L 6075 4191 
L 4338 4191 
L 4338 3897 
L 5838 3897 
L 5838 2928 
L 6300 2928 
L 6300 2272 
z
M 5100 3291 
L 4338 3291 
L 4338 2928 
L 5100 2928 
L 5100 3291 
z
M 5100 1909 
L 5100 2272 
L 4338 2272 
L 4338 1909 
L 5100 1909 
z
" transform="scale(0.015625)"/>
        <path id="MicrosoftYaHei-Bold-514b" d="M 675 3441 
L 2688 3441 
L 2688 3984 
L 225 3984 
L 225 4753 
L 2688 4753 
L 2688 5334 
L 3638 5334 
L 3638 4753 
L 6131 4753 
L 6131 3984 
L 3638 3984 
L 3638 3441 
L 5694 3441 
L 5694 1197 
L 4363 1197 
L 4363 359 
Q 4363 28 4681 28 
L 4913 28 
Q 5169 28 5248 153 
Q 5328 278 5419 978 
Q 5950 747 6294 634 
Q 6194 159 6086 -153 
Q 5978 -466 5747 -600 
Q 5516 -734 5100 -734 
L 4338 -734 
Q 3469 -734 3469 209 
L 3469 1197 
L 2703 1197 
Q 2650 -353 738 -859 
Q 544 -572 106 -78 
Q 1769 303 1775 1197 
L 675 1197 
L 675 3441 
z
M 4788 1953 
L 4788 2697 
L 1581 2697 
L 1581 1953 
L 4788 1953 
z
" transform="scale(0.015625)"/>
       </defs>
       <use xlink:href="#MicrosoftYaHei-Bold-6377"/>
       <use xlink:href="#MicrosoftYaHei-Bold-514b" transform="translate(100 0)"/>
      </g>
     </g>
    </g>
   </g>
   <g id="patch_3">
    <path d="M 41.3 247.33629 
L 296.3042 247.33629 
L 296.3042 234.192537 
L 41.3 234.192537 
z
" clip-path="url(#pcbd015d15b)" style="fill: #d4a017; stroke: #ffffff; stroke-width: 1.5; stroke-linejoin: miter"/>
   </g>
   <g id="patch_4">
    <path d="M 41.3 218.127949 
L 112.1345 218.127949 
L 112.1345 204.984196 
L 41.3 204.984196 
z
" clip-path="url(#pcbd015d15b)" style="fill: #3b82f6; stroke: #ffffff; stroke-width: 1.5; stroke-linejoin: miter"/>
   </g>
   <g id="patch_5">
    <path d="M 41.3 188.919609 
L 97.9676 188.919609 
L 97.9676 175.775856 
L 41.3 175.775856 
z
" clip-path="url(#pcbd015d15b)" style="fill: #3b82f6; stroke: #ffffff; stroke-width: 1.5; stroke-linejoin: miter"/>
   </g>
   <g id="patch_6">
    <path d="M 41.3 159.711269 
L 88.523 159.711269 
L 88.523 146.567516 
L 41.3 146.567516 
z
" clip-path="url(#pcbd015d15b)" style="fill: #3b82f6; stroke: #ffffff; stroke-width: 1.5; stroke-linejoin: miter"/>
   </g>
   <g id="patch_7">
    <path d="M 41.3 130.502929 
L 74.3561 130.502929 
L 74.3561 117.359176 
L 41.3 117.359176 
z
" clip-path="url(#pcbd015d15b)" style="fill: #3b82f6; stroke: #ffffff; stroke-width: 1.5; stroke-linejoin: miter"/>
   </g>
   <g id="patch_8">
    <path d="M 41.3 101.294588 
L 71.2079 101.294588 
L 71.2079 88.150835 
L 41.3 88.150835 
z
" clip-path="url(#pcbd015d15b)" style="fill: #3b82f6; stroke: #ffffff; stroke-width: 1.5; stroke-linejoin: miter"/>
   </g>
   <g id="text_17">
    <!-- 324吨 -->
    <g style="fill: #1e293b" transform="translate(301.0265 243.242929) scale(0.09 -0.09)">
     <defs>
      <path id="MicrosoftYaHei-Bold-5428" d="M 5569 1103 
Q 5938 903 6350 741 
Q 6244 78 6150 -191 
Q 5981 -716 5313 -716 
L 4625 -716 
Q 3838 -716 3838 47 
L 3838 1203 
L 2513 1203 
L 2513 3453 
L 3300 3453 
L 3300 1978 
L 3838 1978 
L 3838 3866 
L 2363 3866 
L 2363 4641 
L 3838 4641 
L 3838 5316 
L 4663 5316 
L 4663 4641 
L 6213 4641 
L 6213 3866 
L 4663 3866 
L 4663 1978 
L 5213 1978 
L 5213 3453 
L 6000 3453 
L 6000 1203 
L 4663 1203 
L 4663 291 
Q 4663 41 4925 41 
L 5150 41 
Q 5381 41 5450 278 
Q 5519 591 5569 1103 
z
M 338 4803 
L 2213 4803 
L 2213 78 
L 1488 78 
L 1488 478 
L 1063 478 
L 1063 -97 
L 338 -97 
L 338 4803 
z
M 1488 4003 
L 1063 4003 
L 1063 1278 
L 1488 1278 
L 1488 4003 
z
" transform="scale(0.015625)"/>
     </defs>
     <use xlink:href="#MicrosoftYaHei-Bold-33"/>
     <use xlink:href="#MicrosoftYaHei-Bold-32" transform="translate(61.669922 0)"/>
     <use xlink:href="#MicrosoftYaHei-Bold-34" transform="translate(123.339844 0)"/>
     <use xlink:href="#MicrosoftYaHei-Bold-5428" transform="translate(185.009766 0)"/>
    </g>
   </g>
   <g id="text_18">
    <!-- 90吨 -->
    <g style="fill: #1e293b" transform="translate(116.8568 214.034589) scale(0.09 -0.09)">
     <defs>
      <path id="MicrosoftYaHei-Bold-39" d="M 544 941 
Q 931 691 1456 691 
Q 2628 691 2653 2216 
L 2634 2222 
Q 2316 1731 1650 1731 
Q 1047 1731 658 2154 
Q 269 2578 269 3222 
Q 269 3978 737 4450 
Q 1206 4922 1959 4922 
Q 2744 4922 3191 4325 
Q 3638 3728 3638 2659 
Q 3638 1391 3098 653 
Q 2559 -84 1547 -84 
Q 975 -84 544 100 
L 544 941 
z
M 1259 3313 
Q 1259 2928 1445 2709 
Q 1631 2491 1953 2491 
Q 2241 2491 2427 2700 
Q 2613 2909 2613 3219 
Q 2613 3591 2427 3869 
Q 2241 4147 1928 4147 
Q 1625 4147 1442 3906 
Q 1259 3666 1259 3313 
z
" transform="scale(0.015625)"/>
     </defs>
     <use xlink:href="#MicrosoftYaHei-Bold-39"/>
     <use xlink:href="#MicrosoftYaHei-Bold-30" transform="translate(61.669922 0)"/>
     <use xlink:href="#MicrosoftYaHei-Bold-5428" transform="translate(123.339844 0)"/>
    </g>
   </g>
   <g id="text_19">
    <!-- 72吨 -->
    <g style="fill: #1e293b" transform="translate(102.6899 184.826248) scale(0.09 -0.09)">
     <defs>
      <path id="MicrosoftYaHei-Bold-37" d="M 3675 4225 
Q 3088 3172 2798 2528 
Q 2509 1884 2328 1275 
Q 2147 666 2050 0 
L 966 0 
Q 1122 947 1517 1917 
Q 1913 2888 2609 4009 
L 300 4009 
L 300 4841 
L 3675 4841 
L 3675 4225 
z
" transform="scale(0.015625)"/>
     </defs>
     <use xlink:href="#MicrosoftYaHei-Bold-37"/>
     <use xlink:href="#MicrosoftYaHei-Bold-32" transform="translate(61.669922 0)"/>
     <use xlink:href="#MicrosoftYaHei-Bold-5428" transform="translate(123.339844 0)"/>
    </g>
   </g>
   <g id="text_20">
    <!-- 60吨 -->
    <g style="fill: #1e293b" transform="translate(93.2453 155.617908) scale(0.09 -0.09)">
     <defs>
      <path id="MicrosoftYaHei-Bold-36" d="M 3378 3938 
Q 3009 4147 2575 4147 
Q 2016 4147 1680 3708 
Q 1344 3269 1344 2572 
L 1363 2572 
Q 1709 3103 2391 3103 
Q 3000 3103 3358 2686 
Q 3716 2269 3716 1600 
Q 3716 869 3250 392 
Q 2784 -84 2059 -84 
Q 1228 -84 786 516 
Q 344 1116 344 2159 
Q 344 3388 917 4155 
Q 1491 4922 2513 4922 
Q 3063 4922 3378 4791 
L 3378 3938 
z
M 1378 1591 
Q 1378 1216 1565 953 
Q 1753 691 2059 691 
Q 2369 691 2547 931 
Q 2725 1172 2725 1534 
Q 2725 2350 2053 2350 
Q 1750 2350 1564 2134 
Q 1378 1919 1378 1591 
z
" transform="scale(0.015625)"/>
     </defs>
     <use xlink:href="#MicrosoftYaHei-Bold-36"/>
     <use xlink:href="#MicrosoftYaHei-Bold-30" transform="translate(61.669922 0)"/>
     <use xlink:href="#MicrosoftYaHei-Bold-5428" transform="translate(123.339844 0)"/>
    </g>
   </g>
   <g id="text_21">
    <!-- 42吨 -->
    <g style="fill: #1e293b" transform="translate(79.0784 126.409568) scale(0.09 -0.09)">
     <use xlink:href="#MicrosoftYaHei-Bold-34"/>
     <use xlink:href="#MicrosoftYaHei-Bold-32" transform="translate(61.669922 0)"/>
     <use xlink:href="#MicrosoftYaHei-Bold-5428" transform="translate(123.339844 0)"/>
    </g>
   </g>
   <g id="text_22">
    <!-- 38吨 -->
    <g style="fill: #1e293b" transform="translate(75.9302 97.201227) scale(0.09 -0.09)">
     <defs>
      <path id="MicrosoftYaHei-Bold-38" d="M 269 1303 
Q 269 1725 512 2053 
Q 756 2381 1219 2534 
Q 850 2719 648 3003 
Q 447 3288 447 3634 
Q 447 3997 645 4292 
Q 844 4588 1200 4755 
Q 1556 4922 1997 4922 
Q 2441 4922 2800 4758 
Q 3159 4594 3359 4298 
Q 3559 4003 3559 3647 
Q 3559 3309 3339 3018 
Q 3119 2728 2747 2559 
Q 3200 2403 3453 2076 
Q 3706 1750 3706 1313 
Q 3706 697 3228 309 
Q 2750 -78 1988 -78 
Q 1225 -78 747 309 
Q 269 697 269 1303 
z
M 1278 1394 
Q 1278 1056 1472 853 
Q 1666 650 1991 650 
Q 2303 650 2503 853 
Q 2703 1056 2703 1394 
Q 2703 1709 2500 1920 
Q 2297 2131 1991 2131 
Q 1675 2131 1476 1920 
Q 1278 1709 1278 1394 
z
M 1428 3531 
Q 1428 3266 1592 3077 
Q 1756 2888 2006 2888 
Q 2247 2888 2415 3072 
Q 2584 3256 2584 3531 
Q 2584 3806 2420 3997 
Q 2256 4188 2006 4188 
Q 1750 4188 1589 3997 
Q 1428 3806 1428 3531 
z
" transform="scale(0.015625)"/>
     </defs>
     <use xlink:href="#MicrosoftYaHei-Bold-33"/>
     <use xlink:href="#MicrosoftYaHei-Bold-38" transform="translate(61.669922 0)"/>
     <use xlink:href="#MicrosoftYaHei-Bold-5428" transform="translate(123.339844 0)"/>
    </g>
   </g>
   <g id="text_23">
    <g id="patch_9">
     <path d="M 308.897 233.067306 
L 344.897 233.067306 
Q 346.697 233.067306 346.697 231.267306 
L 346.697 221.835587 
Q 346.697 220.035587 344.897 220.035587 
L 308.897 220.035587 
Q 307.097 220.035587 307.097 221.835587 
L 307.097 231.267306 
Q 307.097 233.067306 308.897 233.067306 
z
" style="fill: #fffbeb; opacity: 0.9; stroke: #d4a017; stroke-width: 1.5; stroke-linejoin: miter"/>
    </g>
    <!-- 全球第一 -->
    <g style="fill: #d4a017" transform="translate(308.897 229.029962) scale(0.09 -0.09)">
     <defs>
      <path id="MicrosoftYaHei-Bold-5168" d="M 369 184 
L 2731 184 
L 2731 934 
L 869 934 
L 869 1734 
L 2731 1734 
L 2731 2366 
L 1525 2366 
L 1525 2859 
Q 1113 2566 644 2284 
Q 463 2541 88 3016 
Q 2088 4091 2800 5316 
L 3894 5316 
L 3731 5078 
Q 4538 3922 6313 3091 
Q 5981 2678 5750 2353 
Q 5281 2603 4875 2878 
L 4875 2366 
L 3663 2366 
L 3663 1734 
L 5544 1734 
L 5544 934 
L 3663 934 
L 3663 184 
L 6031 184 
L 6031 -616 
L 369 -616 
L 369 184 
z
M 3200 4416 
Q 2688 3766 1925 3166 
L 4475 3166 
Q 3725 3741 3200 4416 
z
" transform="scale(0.015625)"/>
      <path id="MicrosoftYaHei-Bold-7403" d="M 5231 5322 
Q 5625 5034 6056 4634 
L 5728 4291 
L 6206 4291 
L 6206 3528 
L 4650 3528 
L 4650 3109 
Q 4772 2775 4916 2463 
Q 5331 2913 5638 3316 
L 6319 2797 
Q 5853 2294 5288 1772 
Q 5734 1050 6338 509 
Q 6063 91 5850 -341 
Q 5109 447 4650 1356 
L 4650 3 
Q 4650 -369 4484 -564 
Q 4319 -759 3964 -784 
Q 3609 -809 3006 -809 
Q 2931 -259 2838 41 
Q 3247 3 3441 3 
Q 3838 3 3825 428 
L 3825 1041 
Q 3231 641 2563 209 
L 2194 1053 
Q 2844 1403 3825 2025 
L 3825 3528 
L 2369 3528 
L 2369 4291 
L 3825 4291 
L 3825 5316 
L 4650 5316 
L 4650 4291 
L 5384 4291 
Q 5088 4575 4763 4841 
L 5231 5322 
z
M 250 -459 
L 75 428 
L 813 578 
L 813 2097 
L 206 2097 
L 206 2884 
L 813 2884 
L 813 4141 
L 150 4141 
L 150 4941 
L 2263 4941 
L 2263 4141 
L 1625 4141 
L 1625 2884 
L 2163 2884 
L 2163 2097 
L 1625 2097 
L 1625 750 
L 2256 884 
Q 2250 422 2269 41 
Q 1244 -178 250 -459 
z
M 2919 3322 
Q 3244 2872 3631 2203 
L 2931 1778 
Q 2588 2459 2269 2928 
L 2919 3322 
z
" transform="scale(0.015625)"/>
      <path id="MicrosoftYaHei-Bold-7b2c" d="M 1113 5347 
L 1969 5347 
Q 1866 5125 1753 4916 
L 3306 4916 
L 3306 4347 
Q 3678 4806 3900 5347 
L 4763 5347 
Q 4678 5125 4584 4916 
L 6238 4916 
L 6238 4322 
L 5178 4322 
Q 5378 4150 5556 3972 
L 5178 3659 
L 5850 3659 
L 5850 1941 
L 3675 1941 
L 3675 1566 
L 6144 1566 
Q 6109 56 5954 -128 
Q 5800 -313 5619 -436 
Q 5438 -559 4131 -547 
Q 4050 -178 3919 222 
Q 4750 184 4772 184 
Q 4984 184 5101 256 
Q 5219 328 5244 442 
Q 5269 556 5294 891 
L 3675 891 
L 3675 -828 
L 2819 -828 
L 2819 713 
Q 2019 -191 556 -791 
Q 375 -484 88 -34 
Q 1234 338 1925 891 
L 450 891 
L 750 2616 
L 2819 2616 
L 2819 2991 
L 675 2991 
L 675 3528 
Q 600 3459 525 3397 
Q 288 3697 25 3972 
Q 750 4584 1113 5347 
z
M 2347 4322 
Q 2566 4134 2781 3928 
L 2450 3659 
L 3744 3659 
Q 3459 3869 3106 4097 
Q 3203 4206 3294 4322 
L 2347 4322 
z
M 1638 4122 
L 1897 4322 
L 1375 4322 
Q 1119 3963 809 3659 
L 2100 3659 
Q 1897 3872 1638 4122 
z
M 3784 3659 
L 4941 3659 
Q 4728 3884 4450 4134 
L 4672 4322 
L 4269 4322 
Q 4050 3966 3784 3659 
z
M 5006 2616 
L 5006 2991 
L 3675 2991 
L 3675 2616 
L 5006 2616 
z
M 1394 1566 
L 2819 1566 
L 2819 1941 
L 1463 1941 
L 1394 1566 
z
" transform="scale(0.015625)"/>
      <path id="MicrosoftYaHei-Bold-4e00" d="M 188 2716 
L 6225 2716 
L 6225 1791 
L 188 1791 
L 188 2716 
z
" transform="scale(0.015625)"/>
     </defs>
     <use xlink:href="#MicrosoftYaHei-Bold-5168"/>
     <use xlink:href="#MicrosoftYaHei-Bold-7403" transform="translate(100 0)"/>
     <use xlink:href="#MicrosoftYaHei-Bold-7b2c" transform="translate(200 0)"/>
     <use xlink:href="#MicrosoftYaHei-Bold-4e00" transform="translate(300 0)"/>
    </g>
   </g>
  </g>
  <g id="text_24">
   <!-- 2026 Q1 各国央行购金量 -->
   <g style="fill: #1e293b" transform="translate(41.3 21.99125) scale(0.14 -0.14)">
    <defs>
     <path id="MicrosoftYaHei-Bold-20" transform="scale(0.015625)"/>
     <path id="MicrosoftYaHei-Bold-51" d="M 256 2356 
Q 256 3494 920 4208 
Q 1584 4922 2675 4922 
Q 3713 4922 4345 4231 
Q 4978 3541 4978 2456 
Q 4978 1325 4319 619 
Q 4278 575 4238 534 
L 5469 -653 
L 3941 -653 
L 3297 3 
Q 2972 -84 2597 -84 
Q 1556 -84 906 598 
Q 256 1281 256 2356 
z
M 1341 2413 
Q 1341 1706 1681 1257 
Q 2022 809 2616 809 
Q 3222 809 3559 1239 
Q 3897 1669 3897 2394 
Q 3897 3150 3569 3589 
Q 3241 4028 2644 4028 
Q 2038 4028 1689 3578 
Q 1341 3128 1341 2413 
z
" transform="scale(0.015625)"/>
     <path id="MicrosoftYaHei-Bold-5404" d="M 5669 4747 
L 5669 4028 
Q 5081 3400 4266 2925 
Q 5178 2700 6306 2678 
Q 6100 2184 5956 1797 
Q 4394 1953 3241 2428 
Q 2028 1941 444 1709 
Q 313 2047 100 2516 
Q 1313 2622 2291 2919 
Q 1831 3213 1463 3578 
Q 1078 3206 631 2891 
Q 419 3209 119 3578 
Q 1256 4322 1844 5347 
L 2713 5197 
Q 2581 4966 2434 4747 
L 5669 4747 
z
M 3244 3272 
Q 3934 3588 4475 4022 
L 2059 4022 
Q 2572 3572 3244 3272 
z
M 1000 -841 
L 1000 1703 
L 5475 1703 
L 5475 -841 
L 4638 -841 
L 4638 -547 
L 1838 -547 
L 1838 -841 
L 1000 -841 
z
M 4638 1003 
L 1838 1003 
L 1838 153 
L 4638 153 
L 4638 1003 
z
" transform="scale(0.015625)"/>
     <path id="MicrosoftYaHei-Bold-592e" d="M 163 2216 
L 713 2216 
L 713 4416 
L 2734 4416 
L 2744 5303 
L 3644 5303 
L 3634 4416 
L 5650 4416 
L 5650 2216 
L 6250 2216 
L 6250 1416 
L 3906 1416 
Q 4669 409 6294 41 
Q 6263 -3 5581 -828 
Q 3950 -263 3191 1144 
Q 2675 -56 769 -853 
Q 400 -422 63 -66 
Q 1994 516 2409 1416 
L 163 1416 
L 163 2216 
z
M 4788 3616 
L 3622 3616 
Q 3603 2816 3575 2216 
L 4788 2216 
L 4788 3616 
z
M 1575 2216 
L 2647 2216 
Q 2706 2797 2719 3616 
L 1575 3616 
L 1575 2216 
z
" transform="scale(0.015625)"/>
     <path id="MicrosoftYaHei-Bold-884c" d="M 1663 5347 
Q 2063 5072 2413 4809 
Q 1756 4047 669 3178 
Q 438 3528 113 3916 
Q 1163 4716 1663 5347 
z
M 2788 4903 
L 6038 4903 
L 6038 4091 
L 2788 4091 
L 2788 4903 
z
M 1763 3722 
L 2494 3253 
Q 2219 2850 1894 2463 
L 1894 -778 
L 1025 -778 
L 1025 1525 
Q 738 1247 425 978 
Q 300 1328 81 1847 
Q 1044 2678 1763 3722 
z
M 2581 3116 
L 6313 3116 
L 6313 2303 
L 5338 2303 
L 5338 291 
Q 5338 -209 5105 -473 
Q 4872 -738 4445 -766 
Q 4019 -794 3181 -803 
Q 3094 -391 2950 72 
Q 3600 28 3975 28 
Q 4431 28 4431 509 
L 4431 2303 
L 2581 2303 
L 2581 3116 
z
" transform="scale(0.015625)"/>
     <path id="MicrosoftYaHei-Bold-8d2d" d="M 3431 5341 
L 4194 5216 
Q 4084 4834 3966 4491 
L 6088 4491 
L 6075 2084 
L 6056 422 
Q 6047 -91 5851 -364 
Q 5656 -638 5364 -686 
Q 5072 -734 3944 -747 
Q 3875 -372 3750 91 
Q 4638 66 4831 66 
Q 5294 66 5294 578 
L 5294 709 
L 4831 541 
L 4728 875 
Q 3353 769 3050 659 
L 2794 1172 
L 2150 1172 
L 2150 4334 
L 963 4334 
L 963 1147 
L 319 1147 
L 319 5053 
L 2794 5053 
L 2794 3694 
Q 3194 4413 3431 5341 
z
M 4831 2666 
Q 5072 2094 5300 1413 
Q 5306 2306 5306 3728 
L 3663 3728 
Q 3406 3156 3106 2728 
Q 2944 2913 2794 3059 
L 2794 1450 
Q 3184 1775 3731 3384 
L 4450 3153 
Q 4006 2134 3700 1509 
L 4503 1575 
Q 4350 2034 4200 2434 
L 4831 2666 
z
M 1250 4072 
L 1863 4072 
L 1863 1897 
Q 1863 1578 1813 1284 
Q 2313 772 3069 -84 
L 2481 -634 
Q 2100 -81 1594 525 
Q 1263 -247 513 -822 
Q 344 -547 69 -178 
Q 1250 572 1250 1909 
L 1250 4072 
z
" transform="scale(0.015625)"/>
     <path id="MicrosoftYaHei-Bold-91d1" d="M 263 103 
L 1600 103 
Q 1356 428 981 878 
L 1706 1316 
Q 2031 941 2381 484 
L 1775 103 
L 2731 103 
L 2731 1328 
L 763 1328 
L 763 2091 
L 2731 2091 
L 2731 2616 
L 1538 2616 
L 1538 3122 
Q 1081 2828 569 2547 
Q 344 2916 50 3359 
Q 1938 4172 2813 5297 
L 4081 5297 
L 3800 5016 
Q 4769 4003 6350 3491 
Q 6056 3009 5844 2647 
Q 5331 2884 4888 3147 
L 4888 2616 
L 3663 2616 
L 3663 2091 
L 5638 2091 
L 5638 1328 
L 4700 1328 
L 5463 928 
Q 5119 484 4800 103 
L 6150 103 
L 6150 -659 
L 263 -659 
L 263 103 
z
M 3213 4478 
Q 2650 3903 1906 3378 
L 4519 3378 
Q 3763 3878 3213 4478 
z
M 4669 1328 
L 3663 1328 
L 3663 103 
L 4631 103 
L 4031 434 
Q 4375 884 4669 1328 
z
" transform="scale(0.015625)"/>
     <path id="MicrosoftYaHei-Bold-91cf" d="M 725 5103 
L 5675 5103 
L 5675 3416 
L 725 3416 
L 725 5103 
z
M 4825 4666 
L 1575 4666 
L 1575 4447 
L 4825 4447 
L 4825 4666 
z
M 4825 3853 
L 4825 4072 
L 1575 4072 
L 1575 3853 
L 4825 3853 
z
M 138 3209 
L 6288 3209 
L 6288 2747 
L 138 2747 
L 138 3209 
z
M 113 -184 
L 2781 -184 
L 2781 53 
L 506 53 
L 506 491 
L 2781 491 
L 2781 716 
L 713 716 
L 713 2534 
L 5681 2534 
L 5681 716 
L 3606 716 
L 3606 491 
L 5925 491 
L 5925 53 
L 3606 53 
L 3606 -184 
L 6300 -184 
L 6300 -647 
L 113 -647 
L 113 -184 
z
M 4881 2097 
L 3606 2097 
L 3606 1816 
L 4881 1816 
L 4881 2097 
z
M 1513 1816 
L 2781 1816 
L 2781 2097 
L 1513 2097 
L 1513 1816 
z
M 4881 1153 
L 4881 1434 
L 3606 1434 
L 3606 1153 
L 4881 1153 
z
M 1513 1153 
L 2781 1153 
L 2781 1434 
L 1513 1434 
L 1513 1153 
z
" transform="scale(0.015625)"/>
    </defs>
    <use xlink:href="#MicrosoftYaHei-Bold-32"/>
    <use xlink:href="#MicrosoftYaHei-Bold-30" transform="translate(61.669922 0)"/>
    <use xlink:href="#MicrosoftYaHei-Bold-32" transform="translate(123.339844 0)"/>
    <use xlink:href="#MicrosoftYaHei-Bold-36" transform="translate(185.009766 0)"/>
    <use xlink:href="#MicrosoftYaHei-Bold-20" transform="translate(246.679688 0)"/>
    <use xlink:href="#MicrosoftYaHei-Bold-51" transform="translate(276.464844 0)"/>
    <use xlink:href="#MicrosoftYaHei-Bold-31" transform="translate(358.300781 0)"/>
    <use xlink:href="#MicrosoftYaHei-Bold-20" transform="translate(419.970703 0)"/>
    <use xlink:href="#MicrosoftYaHei-Bold-5404" transform="translate(449.755859 0)"/>
    <use xlink:href="#MicrosoftYaHei-Bold-56fd" transform="translate(549.755859 0)"/>
    <use xlink:href="#MicrosoftYaHei-Bold-592e" transform="translate(649.755859 0)"/>
    <use xlink:href="#MicrosoftYaHei-Bold-884c" transform="translate(749.755859 0)"/>
    <use xlink:href="#MicrosoftYaHei-Bold-8d2d" transform="translate(849.755859 0)"/>
    <use xlink:href="#MicrosoftYaHei-Bold-91d1" transform="translate(949.755859 0)"/>
    <use xlink:href="#MicrosoftYaHei-Bold-91cf" transform="translate(1049.755859 0)"/>
   </g>
  </g>
  <g id="text_25">
   <!-- 中国央行领跑全球 · 单位: 吨 -->
   <g style="fill: #64748b" transform="translate(41.3 43.609937) scale(0.09 -0.09)">
    <defs>
     <path id="MicrosoftYaHei-4e2d" d="M 525 3972 
L 2931 3972 
L 2931 5334 
L 3469 5334 
L 3469 3972 
L 5900 3972 
L 5900 1122 
L 5388 1122 
L 5388 1459 
L 3469 1459 
L 3469 -866 
L 2931 -866 
L 2931 1459 
L 1038 1459 
L 1038 1122 
L 525 1122 
L 525 3972 
z
M 5388 3509 
L 3469 3509 
L 3469 1922 
L 5388 1922 
L 5388 3509 
z
M 1038 1922 
L 2931 1922 
L 2931 3509 
L 1038 3509 
L 1038 1922 
z
" transform="scale(0.015625)"/>
     <path id="MicrosoftYaHei-56fd" d="M 469 4997 
L 5938 4997 
L 5938 -834 
L 5456 -834 
L 5456 -522 
L 950 -522 
L 950 -841 
L 469 -841 
L 469 4997 
z
M 5456 4553 
L 950 4553 
L 950 -78 
L 5456 -78 
L 5456 4553 
z
M 1238 1009 
L 2963 1009 
L 2963 2247 
L 1456 2247 
L 1456 2672 
L 2963 2672 
L 2963 3509 
L 1338 3509 
L 1338 3934 
L 5063 3934 
L 5063 3509 
L 3425 3509 
L 3425 2672 
L 4938 2672 
L 4938 2247 
L 3425 2247 
L 3425 1009 
L 5163 1009 
L 5163 584 
L 1238 584 
L 1238 1009 
z
M 3750 1847 
L 4100 2109 
Q 4444 1753 4688 1441 
L 4319 1159 
Q 4019 1566 3750 1847 
z
" transform="scale(0.015625)"/>
     <path id="MicrosoftYaHei-592e" d="M 163 2034 
L 900 2034 
L 900 4191 
L 2913 4191 
L 2913 5297 
L 3456 5297 
Q 3453 4691 3450 4191 
L 5469 4191 
L 5469 2034 
L 6250 2034 
L 6250 1597 
L 3538 1597 
Q 4219 91 6313 -278 
Q 6081 -553 5913 -778 
Q 3828 -259 3200 1297 
Q 2709 -91 481 -853 
Q 338 -659 94 -384 
Q 2397 313 2809 1597 
L 163 1597 
L 163 2034 
z
M 3431 2034 
L 4975 2034 
L 4975 3753 
L 3447 3753 
Q 3441 2528 3431 2034 
z
M 2909 3753 
L 1394 3753 
L 1394 2034 
L 2894 2034 
Q 2906 2631 2909 3753 
z
" transform="scale(0.015625)"/>
     <path id="MicrosoftYaHei-884c" d="M 2363 2978 
L 6319 2978 
L 6319 2509 
L 5106 2509 
L 5106 66 
Q 5106 -709 4325 -709 
Q 3800 -709 3256 -703 
Q 3219 -453 3163 -141 
Q 3650 -191 4144 -191 
Q 4575 -191 4575 234 
L 4575 2509 
L 2363 2509 
L 2363 2978 
z
M 100 1578 
Q 1069 2372 1863 3809 
L 2300 3541 
Q 1978 2984 1619 2500 
L 1619 -809 
L 1100 -809 
L 1100 1856 
Q 725 1431 319 1072 
Q 219 1334 100 1578 
z
M 2725 4866 
L 5969 4866 
L 5969 4397 
L 2725 4397 
L 2725 4866 
z
M 131 3559 
Q 1125 4328 1731 5347 
L 2181 5072 
Q 1456 3959 381 3078 
Q 269 3316 131 3559 
z
" transform="scale(0.015625)"/>
     <path id="MicrosoftYaHei-9886" d="M 3000 3716 
L 4106 3716 
L 4263 4572 
L 2700 4572 
L 2700 5009 
L 6294 5009 
L 6294 4572 
L 4769 4572 
L 4588 3716 
L 6000 3716 
L 6000 728 
L 5550 728 
L 5550 3284 
L 3450 3284 
L 3450 703 
L 3000 703 
L 3000 3716 
z
M 4263 3028 
L 4713 3028 
L 4713 2091 
Q 4713 1397 4563 897 
Q 5469 234 6288 -472 
L 5913 -866 
Q 5200 -178 4381 466 
Q 4350 409 4319 359 
Q 3894 -322 2819 -872 
Q 2613 -609 2469 -459 
Q 3506 -9 3894 584 
Q 4263 1109 4263 2103 
L 4263 3028 
z
M 544 891 
L 913 1166 
Q 1200 822 1475 484 
Q 1800 1066 2131 1872 
L 294 1872 
L 294 2303 
L 2638 2303 
L 2638 1872 
Q 2163 809 1775 109 
Q 2019 -191 2250 -497 
L 1819 -797 
Q 1194 122 544 891 
z
M 1850 5191 
L 1775 5022 
Q 2350 4353 2894 3603 
L 2519 3266 
Q 2031 4003 1569 4591 
Q 1081 3553 375 2553 
Q 250 2766 69 2991 
Q 819 3922 1363 5191 
L 1850 5191 
z
M 1175 3509 
L 1563 3703 
Q 1844 3259 2088 2766 
L 1656 2541 
Q 1494 2941 1175 3509 
z
" transform="scale(0.015625)"/>
     <path id="MicrosoftYaHei-8dd1" d="M 88 -34 
Q 253 -9 425 16 
L 425 2428 
L 844 2428 
L 844 81 
Q 1097 122 1356 166 
L 1356 3059 
L 950 3059 
L 950 2866 
L 525 2866 
L 525 4984 
L 2413 4984 
L 2413 3400 
Q 3038 4272 3456 5334 
L 3900 5178 
Q 3756 4844 3603 4534 
L 5856 4534 
Q 5800 2484 5738 1591 
Q 5669 566 4756 566 
Q 4450 566 3950 591 
Q 3931 847 3863 1084 
Q 4363 1022 4706 1022 
Q 5231 1016 5288 1672 
Q 5350 2509 5388 4109 
L 3384 4109 
Q 3172 3713 2947 3359 
L 4675 3359 
L 4675 1591 
L 3288 1591 
L 3288 272 
Q 3288 -134 3700 -134 
L 5213 -134 
Q 5638 -134 5725 228 
Q 5788 484 5844 866 
Q 6125 722 6319 672 
Q 6244 303 6150 -16 
Q 6000 -572 5313 -572 
L 3631 -572 
Q 2850 -572 2850 203 
L 2850 3209 
Q 2691 2972 2525 2753 
Q 2463 2878 2322 3059 
L 1781 3059 
L 1781 1997 
L 2531 1997 
L 2531 1591 
L 1781 1591 
L 1781 241 
Q 2169 313 2569 391 
Q 2563 141 2581 -59 
Q 1538 -259 206 -528 
L 88 -34 
z
M 1988 3447 
L 1988 4597 
L 950 4597 
L 950 3447 
L 1988 3447 
z
M 4238 2009 
L 4238 2941 
L 3288 2941 
L 3288 2009 
L 4238 2009 
z
" transform="scale(0.015625)"/>
     <path id="MicrosoftYaHei-5168" d="M 369 -103 
L 2950 -103 
L 2950 984 
L 925 984 
L 925 1441 
L 2950 1441 
L 2950 2403 
L 1156 2403 
L 1156 2859 
L 5269 2859 
L 5269 2403 
L 3469 2403 
L 3469 1441 
L 5500 1441 
L 5500 984 
L 3469 984 
L 3469 -103 
L 6044 -103 
L 6044 -566 
L 369 -566 
L 369 -103 
z
M 3656 5234 
L 3531 5078 
Q 4581 3703 6319 3009 
Q 6125 2734 5988 2509 
Q 4338 3322 3219 4691 
Q 2263 3453 394 2428 
Q 269 2641 81 2897 
Q 2013 3866 3000 5234 
L 3656 5234 
z
" transform="scale(0.015625)"/>
     <path id="MicrosoftYaHei-7403" d="M 2244 766 
Q 3059 1263 3950 1872 
L 3950 3691 
L 2350 3691 
L 2350 4141 
L 3950 4141 
L 3950 5253 
L 4425 5253 
L 4425 4141 
L 6200 4141 
L 6200 3691 
L 4425 3691 
L 4425 3134 
Q 4581 2622 4791 2184 
Q 5331 2709 5694 3153 
L 6100 2809 
Q 5584 2300 5003 1778 
Q 5547 838 6356 322 
Q 6319 266 6194 128 
Q 6056 -16 6000 -97 
Q 4975 644 4425 2034 
L 4425 16 
Q 4425 -728 3650 -728 
Q 3344 -728 2994 -722 
Q 2956 -484 2894 -209 
Q 3263 -253 3563 -253 
Q 3950 -253 3950 128 
L 3950 1319 
Q 3303 869 2556 316 
L 2244 766 
z
M 94 359 
Q 516 403 981 463 
L 981 2353 
L 213 2353 
L 213 2803 
L 981 2803 
L 981 4272 
L 131 4272 
L 131 4722 
L 2269 4722 
L 2269 4272 
L 1438 4272 
L 1438 2803 
L 2163 2803 
L 2163 2353 
L 1438 2353 
L 1438 522 
Q 1813 575 2213 634 
Q 2188 384 2181 153 
Q 1013 3 156 -128 
L 94 359 
z
M 2381 3022 
L 2763 3253 
Q 3169 2722 3569 2078 
L 3169 1803 
Q 2738 2534 2381 3022 
z
M 4763 4884 
L 5038 5197 
Q 5481 4903 5850 4591 
L 5550 4247 
Q 5181 4591 4763 4884 
z
" transform="scale(0.015625)"/>
     <path id="MicrosoftYaHei-b7" d="M 372 2113 
Q 372 2278 490 2395 
Q 609 2513 775 2513 
Q 941 2513 1061 2397 
Q 1181 2281 1181 2113 
Q 1181 1950 1064 1831 
Q 947 1713 772 1713 
Q 600 1713 486 1831 
Q 372 1950 372 2113 
z
" transform="scale(0.015625)"/>
     <path id="MicrosoftYaHei-5355" d="M 125 909 
L 2956 909 
L 2956 1616 
L 1225 1616 
L 1225 1322 
L 750 1322 
L 750 4353 
L 2047 4353 
Q 1747 4703 1400 5072 
L 1756 5366 
Q 2219 4922 2569 4547 
L 2338 4353 
L 3803 4353 
Q 4147 4809 4500 5347 
L 5000 5078 
Q 4678 4688 4378 4353 
L 5656 4353 
L 5656 1322 
L 5181 1322 
L 5181 1616 
L 3444 1616 
L 3444 909 
L 6275 909 
L 6275 459 
L 3444 459 
L 3444 -859 
L 2956 -859 
L 2956 459 
L 125 459 
L 125 909 
z
M 3444 2053 
L 5181 2053 
L 5181 2778 
L 3444 2778 
L 3444 2053 
z
M 1225 2053 
L 2956 2053 
L 2956 2778 
L 1225 2778 
L 1225 2053 
z
M 5181 3916 
L 3444 3916 
L 3444 3203 
L 5181 3203 
L 5181 3916 
z
M 1225 3203 
L 2956 3203 
L 2956 3916 
L 1225 3916 
L 1225 3203 
z
" transform="scale(0.015625)"/>
     <path id="MicrosoftYaHei-4f4d" d="M 1788 -59 
L 4228 -59 
Q 4678 1144 5269 3372 
L 5831 3203 
Q 5453 2044 4756 -59 
L 6319 -59 
L 6319 -522 
L 1788 -522 
L 1788 -59 
z
M 81 2291 
Q 975 3641 1431 5322 
L 1963 5191 
Q 1703 4397 1406 3709 
L 1406 -853 
L 938 -853 
L 938 2731 
Q 644 2181 319 1716 
Q 231 1953 81 2291 
z
M 1919 4191 
L 4122 4191 
Q 3844 4659 3506 5059 
L 3931 5353 
Q 4206 5034 4613 4497 
L 4150 4191 
L 6206 4191 
L 6206 3728 
L 1919 3728 
L 1919 4191 
z
M 2769 3309 
Q 3181 2184 3669 584 
L 3150 434 
Q 2725 1966 2294 3147 
L 2769 3309 
z
" transform="scale(0.015625)"/>
     <path id="MicrosoftYaHei-3a" d="M 372 3134 
Q 372 3303 490 3415 
Q 609 3528 775 3528 
Q 944 3528 1062 3414 
Q 1181 3300 1181 3134 
Q 1181 2969 1065 2853 
Q 950 2738 772 2738 
Q 603 2738 487 2853 
Q 372 2969 372 3134 
z
M 372 322 
Q 372 491 487 606 
Q 603 722 775 722 
Q 950 722 1065 605 
Q 1181 488 1181 322 
Q 1181 159 1065 42 
Q 950 -75 772 -75 
Q 600 -75 486 42 
Q 372 159 372 322 
z
" transform="scale(0.015625)"/>
    </defs>
    <use xlink:href="#MicrosoftYaHei-4e2d"/>
    <use xlink:href="#MicrosoftYaHei-56fd" transform="translate(100 0)"/>
    <use xlink:href="#MicrosoftYaHei-592e" transform="translate(200 0)"/>
    <use xlink:href="#MicrosoftYaHei-884c" transform="translate(300 0)"/>
    <use xlink:href="#MicrosoftYaHei-9886" transform="translate(400 0)"/>
    <use xlink:href="#MicrosoftYaHei-8dd1" transform="translate(500 0)"/>
    <use xlink:href="#MicrosoftYaHei-5168" transform="translate(600 0)"/>
    <use xlink:href="#MicrosoftYaHei-7403" transform="translate(700 0)"/>
    <use xlink:href="#MicrosoftYaHei-20" transform="translate(800 0)"/>
    <use xlink:href="#MicrosoftYaHei-b7" transform="translate(829.589844 0)"/>
    <use xlink:href="#MicrosoftYaHei-20" transform="translate(853.662109 0)"/>
    <use xlink:href="#MicrosoftYaHei-5355" transform="translate(883.251953 0)"/>
    <use xlink:href="#MicrosoftYaHei-4f4d" transform="translate(983.251953 0)"/>
    <use xlink:href="#MicrosoftYaHei-3a" transform="translate(1083.251953 0)"/>
    <use xlink:href="#MicrosoftYaHei-20" transform="translate(1107.324219 0)"/>
    <use xlink:href="#MicrosoftYaHei-5428" transform="translate(1136.914062 0)"/>
   </g>
  </g>
  <g id="text_26">
   <!-- 来源: World Gold Council · 2026 Q1 -->
   <g style="fill: #94a3b8" transform="translate(41.3 268.727703) scale(0.065 -0.065)">
    <defs>
     <path id="MicrosoftYaHei-6765" d="M 6325 141 
Q 6119 -122 5975 -334 
Q 4344 403 3438 1550 
L 3438 -841 
L 2963 -841 
L 2963 1584 
Q 2050 516 413 -409 
Q 281 -222 75 22 
Q 1706 841 2806 1922 
L 181 1922 
L 181 2359 
L 2963 2359 
L 2963 4003 
L 550 4003 
L 550 4441 
L 2963 4441 
L 2963 5341 
L 3438 5341 
L 3438 4441 
L 5900 4441 
L 5900 4003 
L 3438 4003 
L 3438 2359 
L 6225 2359 
L 6225 1922 
L 3566 1922 
Q 4594 778 6325 141 
z
M 4056 2766 
Q 4631 3378 4950 3828 
L 5381 3497 
Q 4913 2941 4419 2453 
L 4056 2766 
z
M 1075 3509 
L 1438 3803 
Q 1900 3347 2313 2828 
L 1900 2484 
Q 1581 2922 1075 3509 
z
" transform="scale(0.015625)"/>
     <path id="MicrosoftYaHei-6e90" d="M 2931 3741 
L 3744 3741 
Q 3878 4094 4006 4478 
L 2425 4478 
L 2425 2678 
Q 2425 222 1463 -841 
Q 1313 -647 1100 -453 
Q 1963 509 1963 2672 
L 1963 4903 
L 6300 4903 
L 6300 4478 
L 4547 4478 
Q 4375 4103 4194 3741 
L 5844 3741 
L 5844 1178 
L 5394 1178 
L 5394 1341 
L 4588 1341 
L 4588 -128 
Q 4588 -797 3938 -797 
Q 3725 -797 3394 -791 
Q 3363 -603 3306 -359 
Q 3619 -384 3850 -384 
Q 4138 -384 4138 -84 
L 4138 1341 
L 3381 1341 
L 3381 1178 
L 2931 1178 
L 2931 3741 
z
M 831 1878 
Q 1056 1734 1275 1666 
Q 1019 603 700 -766 
L 219 -603 
Q 581 678 831 1878 
z
M 3381 1753 
L 5394 1753 
L 5394 2347 
L 3381 2347 
L 3381 1753 
z
M 5394 3328 
L 3381 3328 
L 3381 2747 
L 5394 2747 
L 5394 3328 
z
M 6288 -241 
L 5894 -541 
Q 5450 128 4931 759 
L 5294 1016 
Q 5863 353 6288 -241 
z
M 2363 -297 
Q 2894 272 3306 984 
L 3706 741 
Q 3231 -16 2731 -584 
L 2363 -297 
z
M 400 3622 
Q 888 3272 1500 2784 
Q 1281 2522 1144 2378 
Q 544 2909 88 3266 
L 400 3622 
z
M 669 5228 
Q 1163 4859 1688 4384 
Q 1469 4172 1313 4003 
Q 769 4541 350 4884 
L 669 5228 
z
" transform="scale(0.015625)"/>
     <path id="MicrosoftYaHei-57" d="M 6431 4841 
L 5075 0 
L 4347 0 
L 3372 3488 
Q 3306 3725 3294 3988 
L 3281 3988 
Q 3263 3728 3194 3494 
L 2209 0 
L 1488 0 
L 84 4841 
L 775 4841 
L 1763 1184 
Q 1828 938 1841 688 
L 1859 688 
Q 1875 875 1963 1184 
L 3009 4841 
L 3625 4841 
L 4625 1156 
Q 4675 975 4706 694 
L 4719 694 
Q 4734 897 4809 1169 
L 5759 4841 
L 6431 4841 
z
" transform="scale(0.015625)"/>
     <path id="MicrosoftYaHei-6f" d="M 316 1691 
Q 316 2547 794 3042 
Q 1272 3538 2091 3538 
Q 2869 3538 3311 3061 
Q 3753 2584 3753 1744 
Q 3753 925 3281 422 
Q 2809 -81 2016 -81 
Q 1241 -81 778 406 
Q 316 894 316 1691 
z
M 941 1709 
Q 941 1113 1242 769 
Q 1544 425 2053 425 
Q 2578 425 2853 761 
Q 3128 1097 3128 1725 
Q 3128 2356 2853 2693 
Q 2578 3031 2053 3031 
Q 1538 3031 1239 2678 
Q 941 2325 941 1709 
z
" transform="scale(0.015625)"/>
     <path id="MicrosoftYaHei-72" d="M 2400 2850 
Q 2247 2959 1978 2959 
Q 1622 2959 1390 2626 
Q 1159 2294 1159 1750 
L 1159 0 
L 547 0 
L 547 3456 
L 1159 3456 
L 1159 2753 
L 1172 2753 
Q 1434 3516 2078 3516 
Q 2288 3516 2400 3469 
L 2400 2850 
z
" transform="scale(0.015625)"/>
     <path id="MicrosoftYaHei-6c" d="M 544 0 
L 544 5116 
L 1156 5116 
L 1156 0 
L 544 0 
z
" transform="scale(0.015625)"/>
     <path id="MicrosoftYaHei-64" d="M 3547 0 
L 2934 0 
L 2934 575 
L 2922 575 
Q 2544 -81 1747 -81 
Q 1091 -81 703 386 
Q 316 853 316 1647 
Q 316 2503 753 3020 
Q 1191 3538 1897 3538 
Q 2603 3538 2922 2988 
L 2934 2988 
L 2934 5116 
L 3547 5116 
L 3547 0 
z
M 2938 2056 
Q 2938 2472 2664 2751 
Q 2391 3031 1991 3031 
Q 1503 3031 1222 2667 
Q 941 2303 941 1675 
Q 941 1097 1211 761 
Q 1481 425 1931 425 
Q 2375 425 2656 754 
Q 2938 1084 2938 1575 
L 2938 2056 
z
" transform="scale(0.015625)"/>
     <path id="MicrosoftYaHei-47" d="M 4284 331 
Q 3559 -81 2647 -81 
Q 1597 -81 955 583 
Q 313 1247 313 2356 
Q 313 3478 1022 4200 
Q 1731 4922 2841 4922 
Q 3625 4922 4169 4672 
L 4169 3997 
Q 3588 4363 2784 4363 
Q 1994 4363 1481 3822 
Q 969 3281 969 2397 
Q 969 1488 1441 981 
Q 1913 475 2716 475 
Q 3269 475 3656 688 
L 3656 1997 
L 2606 1997 
L 2606 2550 
L 4284 2550 
L 4284 331 
z
" transform="scale(0.015625)"/>
     <path id="MicrosoftYaHei-43" d="M 3938 200 
Q 3403 -81 2597 -81 
Q 1556 -81 934 580 
Q 313 1241 313 2328 
Q 313 3497 1013 4209 
Q 1713 4922 2791 4922 
Q 3484 4922 3938 4725 
L 3938 4072 
Q 3419 4359 2797 4359 
Q 1988 4359 1478 3820 
Q 969 3281 969 2366 
Q 969 1497 1444 986 
Q 1919 475 2688 475 
Q 3406 475 3938 800 
L 3938 200 
z
" transform="scale(0.015625)"/>
     <path id="MicrosoftYaHei-75" d="M 3400 0 
L 2784 0 
L 2784 544 
L 2772 544 
Q 2425 -81 1706 -81 
Q 478 -81 478 1388 
L 478 3456 
L 1084 3456 
L 1084 1478 
Q 1084 425 1891 425 
Q 2291 425 2537 720 
Q 2784 1016 2784 1466 
L 2784 3456 
L 3400 3456 
L 3400 0 
z
" transform="scale(0.015625)"/>
     <path id="MicrosoftYaHei-6e" d="M 3469 0 
L 2859 0 
L 2859 1966 
Q 2859 3031 2081 3031 
Q 1678 3031 1418 2731 
Q 1159 2431 1159 1972 
L 1159 0 
L 547 0 
L 547 3456 
L 1159 3456 
L 1159 2884 
L 1172 2884 
Q 1563 3538 2306 3538 
Q 2875 3538 3172 3173 
Q 3469 2809 3469 2113 
L 3469 0 
z
" transform="scale(0.015625)"/>
     <path id="MicrosoftYaHei-63" d="M 2934 156 
Q 2538 -81 1978 -81 
Q 1228 -81 772 400 
Q 316 881 316 1647 
Q 316 2497 808 3017 
Q 1300 3538 2125 3538 
Q 2600 3538 2938 3369 
L 2938 2763 
Q 2572 3031 2125 3031 
Q 1600 3031 1270 2667 
Q 941 2303 941 1697 
Q 941 1100 1252 762 
Q 1563 425 2091 425 
Q 2538 425 2934 719 
L 2934 156 
z
" transform="scale(0.015625)"/>
     <path id="MicrosoftYaHei-69" d="M 472 4675 
Q 472 4838 583 4948 
Q 694 5059 856 5059 
Q 1022 5059 1136 4950 
Q 1250 4841 1250 4675 
Q 1250 4513 1136 4405 
Q 1022 4297 856 4297 
Q 691 4297 581 4405 
Q 472 4513 472 4675 
z
M 544 0 
L 544 3456 
L 1156 3456 
L 1156 0 
L 544 0 
z
" transform="scale(0.015625)"/>
     <path id="MicrosoftYaHei-32" d="M 2666 3572 
Q 2666 3963 2419 4186 
Q 2172 4409 1747 4409 
Q 1447 4409 1140 4256 
Q 834 4103 569 3819 
L 569 4413 
Q 806 4659 1107 4790 
Q 1409 4922 1816 4922 
Q 2472 4922 2872 4570 
Q 3272 4219 3272 3619 
Q 3272 3084 3026 2693 
Q 2781 2303 2188 1894 
Q 1581 1475 1376 1294 
Q 1172 1113 1090 947 
Q 1009 781 1009 544 
L 3416 544 
L 3416 0 
L 372 0 
L 372 241 
Q 372 659 486 951 
Q 600 1244 862 1520 
Q 1125 1797 1681 2184 
Q 2250 2584 2458 2886 
Q 2666 3188 2666 3572 
z
" transform="scale(0.015625)"/>
     <path id="MicrosoftYaHei-30" d="M 284 2325 
Q 284 3606 709 4264 
Q 1134 4922 1941 4922 
Q 3478 4922 3478 2441 
Q 3478 1216 3045 567 
Q 2613 -81 1831 -81 
Q 1094 -81 689 534 
Q 284 1150 284 2325 
z
M 909 2353 
Q 909 425 1888 425 
Q 2850 425 2850 2384 
Q 2850 4413 1906 4413 
Q 909 4413 909 2353 
z
" transform="scale(0.015625)"/>
     <path id="MicrosoftYaHei-36" d="M 3181 4219 
Q 2803 4413 2391 4413 
Q 1763 4413 1381 3866 
Q 1000 3319 994 2372 
L 1009 2372 
Q 1353 3038 2106 3038 
Q 2734 3038 3109 2628 
Q 3484 2219 3484 1541 
Q 3484 831 3051 375 
Q 2619 -81 1947 -81 
Q 1209 -81 789 495 
Q 369 1072 369 2131 
Q 369 3413 920 4167 
Q 1472 4922 2372 4922 
Q 2888 4922 3181 4781 
L 3181 4219 
z
M 1031 1584 
Q 1031 1106 1286 765 
Q 1541 425 1963 425 
Q 2363 425 2613 719 
Q 2863 1013 2863 1475 
Q 2863 1975 2627 2253 
Q 2391 2531 1956 2531 
Q 1544 2531 1287 2250 
Q 1031 1969 1031 1584 
z
" transform="scale(0.015625)"/>
     <path id="MicrosoftYaHei-51" d="M 313 2363 
Q 313 3534 947 4228 
Q 1581 4922 2666 4922 
Q 3675 4922 4290 4244 
Q 4906 3566 4906 2478 
Q 4906 1300 4275 609 
Q 4125 447 3953 322 
L 5313 -653 
L 4284 -653 
L 3366 28 
Q 3009 -81 2588 -81 
Q 1556 -81 934 597 
Q 313 1275 313 2363 
z
M 969 2413 
Q 969 1534 1417 1004 
Q 1866 475 2588 475 
Q 3363 475 3805 983 
Q 4247 1491 4247 2403 
Q 4247 3341 3814 3850 
Q 3381 4359 2628 4359 
Q 1888 4359 1428 3821 
Q 969 3284 969 2413 
z
" transform="scale(0.015625)"/>
     <path id="MicrosoftYaHei-31" d="M 1781 0 
L 1781 4141 
Q 1638 3997 1295 3819 
Q 953 3641 663 3569 
L 663 4169 
Q 1047 4275 1484 4508 
Q 1922 4741 2156 4947 
L 2388 4947 
L 2388 0 
L 1781 0 
z
" transform="scale(0.015625)"/>
    </defs>
    <use xlink:href="#MicrosoftYaHei-6765"/>
    <use xlink:href="#MicrosoftYaHei-6e90" transform="translate(100 0)"/>
    <use xlink:href="#MicrosoftYaHei-3a" transform="translate(200 0)"/>
    <use xlink:href="#MicrosoftYaHei-20" transform="translate(224.072266 0)"/>
    <use xlink:href="#MicrosoftYaHei-57" transform="translate(253.662109 0)"/>
    <use xlink:href="#MicrosoftYaHei-6f" transform="translate(352.794922 0)"/>
    <use xlink:href="#MicrosoftYaHei-72" transform="translate(416.369141 0)"/>
    <use xlink:href="#MicrosoftYaHei-6c" transform="translate(454.552734 0)"/>
    <use xlink:href="#MicrosoftYaHei-64" transform="translate(481.164062 0)"/>
    <use xlink:href="#MicrosoftYaHei-20" transform="translate(545.128906 0)"/>
    <use xlink:href="#MicrosoftYaHei-47" transform="translate(574.71875 0)"/>
    <use xlink:href="#MicrosoftYaHei-6f" transform="translate(649.083984 0)"/>
    <use xlink:href="#MicrosoftYaHei-6c" transform="translate(712.658203 0)"/>
    <use xlink:href="#MicrosoftYaHei-64" transform="translate(739.269531 0)"/>
    <use xlink:href="#MicrosoftYaHei-20" transform="translate(803.234375 0)"/>
    <use xlink:href="#MicrosoftYaHei-43" transform="translate(832.824219 0)"/>
    <use xlink:href="#MicrosoftYaHei-6f" transform="translate(899.71875 0)"/>
    <use xlink:href="#MicrosoftYaHei-75" transform="translate(963.292969 0)"/>
    <use xlink:href="#MicrosoftYaHei-6e" transform="translate(1024.914062 0)"/>
    <use xlink:href="#MicrosoftYaHei-63" transform="translate(1086.535156 0)"/>
    <use xlink:href="#MicrosoftYaHei-69" transform="translate(1136.681641 0)"/>
    <use xlink:href="#MicrosoftYaHei-6c" transform="translate(1163.292969 0)"/>
    <use xlink:href="#MicrosoftYaHei-20" transform="translate(1189.904297 0)"/>
    <use xlink:href="#MicrosoftYaHei-b7" transform="translate(1219.494141 0)"/>
    <use xlink:href="#MicrosoftYaHei-20" transform="translate(1243.566406 0)"/>
    <use xlink:href="#MicrosoftYaHei-32" transform="translate(1273.15625 0)"/>
    <use xlink:href="#MicrosoftYaHei-30" transform="translate(1331.798828 0)"/>
    <use xlink:href="#MicrosoftYaHei-32" transform="translate(1390.441406 0)"/>
    <use xlink:href="#MicrosoftYaHei-36" transform="translate(1449.083984 0)"/>
    <use xlink:href="#MicrosoftYaHei-20" transform="translate(1507.726562 0)"/>
    <use xlink:href="#MicrosoftYaHei-51" transform="translate(1537.316406 0)"/>
    <use xlink:href="#MicrosoftYaHei-31" transform="translate(1618.810547 0)"/>
   </g>
  </g>
 </g>
 <defs>
  <clipPath id="pcbd015d15b">
   <rect x="41.3" y="80.191562" width="314.82" height="175.104"/>
  </clipPath>
 </defs>
</svg>
