<?xml version="1.0" encoding="utf-8" standalone="no"?>
<!DOCTYPE svg PUBLIC "-//W3C//DTD SVG 1.1//EN"
  "http://www.w3.org/Graphics/SVG/1.1/DTD/svg11.dtd">
<svg xmlns:xlink="http://www.w3.org/1999/xlink" width="373.952656pt" height="292.109pt" viewBox="0 0 373.952656 292.109" xmlns="http://www.w3.org/2000/svg" version="1.1">
 <metadata>
  <rdf:RDF xmlns:dc="http://purl.org/dc/elements/1.1/" xmlns:cc="http://creativecommons.org/ns#" xmlns:rdf="http://www.w3.org/1999/02/22-rdf-syntax-ns#">
   <cc:Work>
    <dc:type rdf:resource="http://purl.org/dc/dcmitype/StillImage"/>
    <dc:date>2026-05-27T13:53:58.522523</dc:date>
    <dc:format>image/svg+xml</dc:format>
    <dc:creator>
     <cc:Agent>
      <dc:title>Matplotlib v3.10.9, https://matplotlib.org/</dc:title>
     </cc:Agent>
    </dc:creator>
   </cc:Work>
  </rdf:RDF>
 </metadata>
 <defs>
  <style type="text/css">*{stroke-linejoin: round; stroke-linecap: butt}</style>
 </defs>
 <g id="figure_1">
  <g id="patch_1">
   <path d="M 0 292.109 
L 373.952656 292.109 
L 373.952656 0 
L 0 0 
z
" style="fill: #f0f2f5"/>
  </g>
  <g id="axes_1">
   <g id="patch_2">
    <path d="M 41.3 255.142437 
L 356.12 255.142437 
L 356.12 80.038437 
L 41.3 80.038437 
z
" style="fill: #ffffff"/>
   </g>
   <g id="matplotlib.axis_1">
    <g id="xtick_1">
     <g id="line2d_1">
      <path d="M 41.3 255.142437 
L 41.3 80.038437 
" clip-path="url(#pd03c6c8649)" style="fill: none; stroke: #e2e8f0; stroke-opacity: 0.4; stroke-width: 0.5; stroke-linecap: square"/>
     </g>
     <g id="line2d_2"/>
     <g id="text_1">
      <!-- 0 -->
      <g style="fill: #94a3b8" transform="translate(38.955781 265.789) scale(0.09 -0.09)">
       <defs>
        <path id="NotoSansSC-Thin-30" d="M 1670 -83 
Q 1261 -83 963 179 
Q 666 442 509 979 
Q 352 1517 352 2336 
Q 352 3149 509 3677 
Q 666 4205 963 4467 
Q 1261 4730 1670 4730 
Q 2080 4730 2371 4467 
Q 2662 4205 2822 3677 
Q 2982 3149 2982 2336 
Q 2982 1517 2822 979 
Q 2662 442 2371 179 
Q 2080 -83 1670 -83 
z
M 1670 128 
Q 1997 128 2240 384 
Q 2483 640 2614 1133 
Q 2746 1626 2746 2336 
Q 2746 3040 2614 3529 
Q 2483 4019 2240 4272 
Q 1997 4525 1670 4525 
Q 1344 4525 1101 4272 
Q 858 4019 723 3529 
Q 589 3040 589 2336 
Q 589 1626 723 1133 
Q 858 640 1101 384 
Q 1344 128 1670 128 
z
" transform="scale(0.015625)"/>
       </defs>
       <use xlink:href="#NotoSansSC-Thin-30"/>
      </g>
     </g>
    </g>
    <g id="xtick_2">
     <g id="line2d_3">
      <path d="M 80.6525 255.142437 
L 80.6525 80.038437 
" clip-path="url(#pd03c6c8649)" style="fill: none; stroke: #e2e8f0; stroke-opacity: 0.4; stroke-width: 0.5; stroke-linecap: square"/>
     </g>
     <g id="line2d_4"/>
     <g id="text_2">
      <!-- 50 -->
      <g style="fill: #94a3b8" transform="translate(75.964062 265.789) scale(0.09 -0.09)">
       <defs>
        <path id="NotoSansSC-Thin-35" d="M 1581 -83 
Q 1222 -83 963 9 
Q 704 102 515 240 
Q 326 378 186 518 
L 333 691 
Q 467 550 636 422 
Q 806 294 1040 211 
Q 1274 128 1594 128 
Q 1901 128 2166 294 
Q 2432 461 2592 765 
Q 2752 1069 2752 1466 
Q 2752 2061 2441 2406 
Q 2131 2752 1606 2752 
Q 1350 2752 1152 2665 
Q 954 2579 755 2445 
L 563 2560 
L 730 4646 
L 2758 4646 
L 2758 4435 
L 941 4435 
L 787 2726 
Q 966 2835 1168 2902 
Q 1370 2970 1626 2970 
Q 2010 2970 2320 2813 
Q 2630 2656 2812 2326 
Q 2995 1997 2995 1478 
Q 2995 979 2787 630 
Q 2579 282 2256 99 
Q 1933 -83 1581 -83 
z
" transform="scale(0.015625)"/>
       </defs>
       <use xlink:href="#NotoSansSC-Thin-35"/>
       <use xlink:href="#NotoSansSC-Thin-30" transform="translate(52.099991 0)"/>
      </g>
     </g>
    </g>
    <g id="xtick_3">
     <g id="line2d_5">
      <path d="M 120.005 255.142437 
L 120.005 80.038437 
" clip-path="url(#pd03c6c8649)" style="fill: none; stroke: #e2e8f0; stroke-opacity: 0.4; stroke-width: 0.5; stroke-linecap: square"/>
     </g>
     <g id="line2d_6"/>
     <g id="text_3">
      <!-- 100 -->
      <g style="fill: #94a3b8" transform="translate(112.972344 265.789) scale(0.09 -0.09)">
       <defs>
        <path id="NotoSansSC-Thin-31" d="M 608 0 
L 608 211 
L 1677 211 
L 1677 4211 
L 864 4211 
L 864 4378 
Q 1133 4422 1344 4492 
Q 1555 4563 1702 4646 
L 1901 4646 
L 1901 211 
L 2899 211 
L 2899 0 
L 608 0 
z
" transform="scale(0.015625)"/>
       </defs>
       <use xlink:href="#NotoSansSC-Thin-31"/>
       <use xlink:href="#NotoSansSC-Thin-30" transform="translate(52.099991 0)"/>
       <use xlink:href="#NotoSansSC-Thin-30" transform="translate(104.199982 0)"/>
      </g>
     </g>
    </g>
    <g id="xtick_4">
     <g id="line2d_7">
      <path d="M 159.3575 255.142437 
L 159.3575 80.038437 
" clip-path="url(#pd03c6c8649)" style="fill: none; stroke: #e2e8f0; stroke-opacity: 0.4; stroke-width: 0.5; stroke-linecap: square"/>
     </g>
     <g id="line2d_8"/>
     <g id="text_4">
      <!-- 150 -->
      <g style="fill: #94a3b8" transform="translate(152.324844 265.789) scale(0.09 -0.09)">
       <use xlink:href="#NotoSansSC-Thin-31"/>
       <use xlink:href="#NotoSansSC-Thin-35" transform="translate(52.099991 0)"/>
       <use xlink:href="#NotoSansSC-Thin-30" transform="translate(104.199982 0)"/>
      </g>
     </g>
    </g>
    <g id="xtick_5">
     <g id="line2d_9">
      <path d="M 198.71 255.142437 
L 198.71 80.038437 
" clip-path="url(#pd03c6c8649)" style="fill: none; stroke: #e2e8f0; stroke-opacity: 0.4; stroke-width: 0.5; stroke-linecap: square"/>
     </g>
     <g id="line2d_10"/>
     <g id="text_5">
      <!-- 200 -->
      <g style="fill: #94a3b8" transform="translate(191.677344 265.789) scale(0.09 -0.09)">
       <defs>
        <path id="NotoSansSC-Thin-32" d="M 294 0 
L 294 147 
Q 1120 858 1613 1434 
Q 2106 2010 2323 2499 
Q 2541 2989 2541 3424 
Q 2541 3725 2435 3974 
Q 2330 4224 2106 4371 
Q 1882 4518 1523 4518 
Q 1210 4518 931 4352 
Q 653 4186 442 3923 
L 282 4070 
Q 525 4346 829 4538 
Q 1133 4730 1542 4730 
Q 1939 4730 2214 4566 
Q 2490 4403 2637 4112 
Q 2784 3821 2784 3424 
Q 2784 2918 2537 2406 
Q 2291 1894 1820 1347 
Q 1350 800 678 179 
Q 870 192 1062 201 
Q 1254 211 1440 211 
L 3014 211 
L 3014 0 
L 294 0 
z
" transform="scale(0.015625)"/>
       </defs>
       <use xlink:href="#NotoSansSC-Thin-32"/>
       <use xlink:href="#NotoSansSC-Thin-30" transform="translate(52.099991 0)"/>
       <use xlink:href="#NotoSansSC-Thin-30" transform="translate(104.199982 0)"/>
      </g>
     </g>
    </g>
    <g id="xtick_6">
     <g id="line2d_11">
      <path d="M 238.0625 255.142437 
L 238.0625 80.038437 
" clip-path="url(#pd03c6c8649)" style="fill: none; stroke: #e2e8f0; stroke-opacity: 0.4; stroke-width: 0.5; stroke-linecap: square"/>
     </g>
     <g id="line2d_12"/>
     <g id="text_6">
      <!-- 250 -->
      <g style="fill: #94a3b8" transform="translate(231.029844 265.789) scale(0.09 -0.09)">
       <use xlink:href="#NotoSansSC-Thin-32"/>
       <use xlink:href="#NotoSansSC-Thin-35" transform="translate(52.099991 0)"/>
       <use xlink:href="#NotoSansSC-Thin-30" transform="translate(104.199982 0)"/>
      </g>
     </g>
    </g>
    <g id="xtick_7">
     <g id="line2d_13">
      <path d="M 277.415 255.142437 
L 277.415 80.038437 
" clip-path="url(#pd03c6c8649)" style="fill: none; stroke: #e2e8f0; stroke-opacity: 0.4; stroke-width: 0.5; stroke-linecap: square"/>
     </g>
     <g id="line2d_14"/>
     <g id="text_7">
      <!-- 300 -->
      <g style="fill: #94a3b8" transform="translate(270.382344 265.789) scale(0.09 -0.09)">
       <defs>
        <path id="NotoSansSC-Thin-33" d="M 1619 -83 
Q 1261 -83 998 13 
Q 736 109 544 256 
Q 352 403 211 550 
L 358 717 
Q 563 499 857 313 
Q 1152 128 1632 128 
Q 1952 128 2198 262 
Q 2445 397 2585 640 
Q 2726 883 2726 1210 
Q 2726 1542 2560 1795 
Q 2394 2048 2038 2189 
Q 1683 2330 1114 2330 
L 1114 2554 
Q 1651 2554 1964 2698 
Q 2278 2842 2416 3088 
Q 2554 3334 2554 3629 
Q 2554 4026 2298 4272 
Q 2042 4518 1606 4518 
Q 1293 4518 1017 4374 
Q 742 4230 557 4026 
L 410 4192 
Q 634 4410 925 4570 
Q 1216 4730 1606 4730 
Q 1939 4730 2211 4598 
Q 2483 4467 2643 4224 
Q 2803 3981 2803 3642 
Q 2803 3168 2550 2877 
Q 2298 2586 1926 2464 
L 1926 2438 
Q 2208 2381 2445 2221 
Q 2682 2061 2826 1808 
Q 2970 1555 2970 1222 
Q 2970 826 2790 531 
Q 2611 237 2307 77 
Q 2003 -83 1619 -83 
z
" transform="scale(0.015625)"/>
       </defs>
       <use xlink:href="#NotoSansSC-Thin-33"/>
       <use xlink:href="#NotoSansSC-Thin-30" transform="translate(52.099991 0)"/>
       <use xlink:href="#NotoSansSC-Thin-30" transform="translate(104.199982 0)"/>
      </g>
     </g>
    </g>
    <g id="xtick_8">
     <g id="line2d_15">
      <path d="M 316.7675 255.142437 
L 316.7675 80.038437 
" clip-path="url(#pd03c6c8649)" style="fill: none; stroke: #e2e8f0; stroke-opacity: 0.4; stroke-width: 0.5; stroke-linecap: square"/>
     </g>
     <g id="line2d_16"/>
     <g id="text_8">
      <!-- 350 -->
      <g style="fill: #94a3b8" transform="translate(309.734844 265.789) scale(0.09 -0.09)">
       <use xlink:href="#NotoSansSC-Thin-33"/>
       <use xlink:href="#NotoSansSC-Thin-35" transform="translate(52.099991 0)"/>
       <use xlink:href="#NotoSansSC-Thin-30" transform="translate(104.199982 0)"/>
      </g>
     </g>
    </g>
    <g id="xtick_9">
     <g id="line2d_17">
      <path d="M 356.12 255.142437 
L 356.12 80.038437 
" clip-path="url(#pd03c6c8649)" style="fill: none; stroke: #e2e8f0; stroke-opacity: 0.4; stroke-width: 0.5; stroke-linecap: square"/>
     </g>
     <g id="line2d_18"/>
     <g id="text_9">
      <!-- 400 -->
      <g style="fill: #94a3b8" transform="translate(349.087344 265.789) scale(0.09 -0.09)">
       <defs>
        <path id="NotoSansSC-Thin-34" d="M 2195 0 
L 2195 3482 
Q 2195 3629 2204 3843 
Q 2214 4058 2227 4205 
L 2195 4205 
Q 2112 4058 2019 3901 
Q 1926 3744 1830 3590 
L 422 1568 
L 3110 1568 
L 3110 1363 
L 115 1363 
L 115 1485 
L 2259 4646 
L 2419 4646 
L 2419 0 
L 2195 0 
z
" transform="scale(0.015625)"/>
       </defs>
       <use xlink:href="#NotoSansSC-Thin-34"/>
       <use xlink:href="#NotoSansSC-Thin-30" transform="translate(52.099991 0)"/>
       <use xlink:href="#NotoSansSC-Thin-30" transform="translate(104.199982 0)"/>
      </g>
     </g>
    </g>
    <g id="text_10">
     <!-- 购金量 (吨) -->
     <g style="fill: #64748b" transform="translate(177.028438 279.122281) scale(0.09 -0.09)">
      <defs>
       <path id="NotoSansSC-Thin-8d2d" d="M 1478 4045 
L 1670 4045 
L 1670 2413 
Q 1670 2086 1635 1708 
Q 1600 1331 1481 947 
Q 1363 563 1110 201 
Q 858 -160 422 -448 
Q 397 -416 358 -371 
Q 320 -326 288 -301 
Q 710 -32 953 307 
Q 1197 646 1309 1014 
Q 1421 1382 1449 1744 
Q 1478 2106 1478 2413 
L 1478 4045 
z
M 1722 794 
L 1875 890 
Q 2035 723 2201 528 
Q 2368 333 2509 144 
Q 2650 -45 2733 -186 
L 2573 -314 
Q 2490 -166 2349 29 
Q 2208 224 2045 425 
Q 1882 627 1722 794 
z
M 614 4909 
L 2534 4909 
L 2534 1082 
L 2349 1082 
L 2349 4717 
L 806 4717 
L 806 1082 
L 614 1082 
L 614 4909 
z
M 3789 5318 
L 3981 5280 
Q 3853 4838 3680 4422 
Q 3507 4006 3302 3648 
Q 3098 3290 2867 3008 
Q 2848 3021 2816 3040 
Q 2784 3059 2752 3078 
Q 2720 3098 2694 3110 
Q 2938 3386 3142 3738 
Q 3347 4090 3510 4493 
Q 3674 4896 3789 5318 
z
M 3482 4250 
L 5773 4250 
L 5773 4058 
L 3386 4058 
L 3482 4250 
z
M 5683 4250 
L 5869 4250 
Q 5869 4250 5869 4221 
Q 5869 4192 5869 4157 
Q 5869 4122 5869 4102 
Q 5830 2931 5792 2134 
Q 5754 1338 5702 842 
Q 5651 346 5587 83 
Q 5523 -179 5434 -288 
Q 5357 -384 5267 -419 
Q 5178 -454 5043 -461 
Q 4922 -467 4707 -457 
Q 4493 -448 4269 -435 
Q 4262 -390 4252 -336 
Q 4243 -282 4211 -243 
Q 4486 -269 4710 -272 
Q 4934 -275 5024 -275 
Q 5114 -282 5165 -262 
Q 5216 -243 5261 -179 
Q 5338 -90 5402 172 
Q 5466 435 5514 940 
Q 5562 1446 5603 2243 
Q 5645 3040 5683 4192 
L 5683 4250 
z
M 3078 1024 
L 3078 1203 
L 3232 1299 
L 4870 1594 
Q 4877 1555 4889 1507 
Q 4902 1459 4915 1427 
Q 4333 1312 3981 1245 
Q 3629 1178 3449 1136 
Q 3270 1094 3193 1068 
Q 3117 1043 3078 1024 
z
M 3078 1024 
Q 3072 1050 3062 1088 
Q 3053 1126 3043 1161 
Q 3034 1197 3014 1222 
Q 3072 1235 3133 1350 
Q 3194 1466 3258 1632 
Q 3309 1741 3414 2032 
Q 3520 2323 3632 2704 
Q 3744 3085 3814 3462 
L 4006 3411 
Q 3917 3008 3795 2605 
Q 3674 2202 3536 1834 
Q 3398 1466 3251 1165 
L 3251 1158 
Q 3251 1158 3225 1145 
Q 3200 1133 3165 1113 
Q 3130 1094 3104 1072 
Q 3078 1050 3078 1024 
z
M 4320 2541 
L 4480 2592 
Q 4621 2336 4749 2041 
Q 4877 1747 4982 1472 
Q 5088 1197 5139 998 
L 4966 922 
Q 4922 1133 4819 1411 
Q 4717 1690 4589 1987 
Q 4461 2285 4320 2541 
z
" transform="scale(0.015625)"/>
       <path id="NotoSansSC-Thin-91d1" d="M 1613 3334 
L 4806 3334 
L 4806 3142 
L 1613 3142 
L 1613 3334 
z
M 717 2067 
L 5715 2067 
L 5715 1875 
L 717 1875 
L 717 2067 
z
M 454 -32 
L 5958 -32 
L 5958 -218 
L 454 -218 
L 454 -32 
z
M 3085 3270 
L 3277 3270 
L 3277 -147 
L 3085 -147 
L 3085 3270 
z
M 1382 1478 
L 1549 1536 
Q 1683 1344 1808 1117 
Q 1933 890 2035 675 
Q 2138 461 2189 294 
L 2016 224 
Q 1965 390 1865 608 
Q 1766 826 1641 1056 
Q 1517 1286 1382 1478 
z
M 4826 1555 
L 5005 1466 
Q 4832 1152 4614 803 
Q 4397 454 4205 211 
L 4058 288 
Q 4186 454 4326 678 
Q 4467 902 4601 1136 
Q 4736 1370 4826 1555 
z
M 3290 5107 
Q 3526 4806 3859 4512 
Q 4192 4218 4579 3952 
Q 4966 3686 5369 3475 
Q 5773 3264 6144 3130 
Q 6118 3110 6092 3081 
Q 6067 3053 6041 3024 
Q 6016 2995 5997 2963 
Q 5632 3110 5232 3331 
Q 4832 3552 4441 3827 
Q 4051 4102 3712 4409 
Q 3373 4717 3130 5024 
L 3290 5107 
z
M 3277 5363 
L 3443 5280 
Q 3117 4794 2633 4346 
Q 2150 3898 1577 3542 
Q 1005 3187 397 2957 
Q 371 2995 332 3046 
Q 294 3098 256 3123 
Q 858 3341 1434 3683 
Q 2010 4026 2490 4458 
Q 2970 4890 3277 5363 
z
" transform="scale(0.015625)"/>
       <path id="NotoSansSC-Thin-91cf" d="M 1350 4250 
L 1350 3757 
L 5056 3757 
L 5056 4250 
L 1350 4250 
z
M 1350 4915 
L 1350 4435 
L 5056 4435 
L 5056 4915 
L 1350 4915 
z
M 1165 5101 
L 5242 5101 
L 5242 3571 
L 1165 3571 
L 1165 5101 
z
M 1235 1779 
L 1235 1274 
L 5267 1274 
L 5267 1779 
L 1235 1779 
z
M 1235 2464 
L 1235 1971 
L 5267 1971 
L 5267 2464 
L 1235 2464 
z
M 1050 2656 
L 5459 2656 
L 5459 1088 
L 1050 1088 
L 1050 2656 
z
M 3091 2573 
L 3283 2573 
L 3283 -192 
L 3091 -192 
L 3091 2573 
z
M 378 3226 
L 6029 3226 
L 6029 3034 
L 378 3034 
L 378 3226 
z
M 819 595 
L 5619 595 
L 5619 410 
L 819 410 
L 819 595 
z
M 320 -102 
L 6086 -102 
L 6086 -288 
L 320 -288 
L 320 -102 
z
" transform="scale(0.015625)"/>
       <path id="NotoSansSC-Thin-20" transform="scale(0.015625)"/>
       <path id="NotoSansSC-Thin-28" d="M 1562 -1222 
Q 1133 -525 883 252 
Q 634 1030 634 1958 
Q 634 2886 883 3667 
Q 1133 4448 1562 5146 
L 1696 5056 
Q 1274 4390 1059 3596 
Q 845 2803 845 1958 
Q 845 1114 1059 320 
Q 1274 -474 1696 -1139 
L 1562 -1222 
z
" transform="scale(0.015625)"/>
       <path id="NotoSansSC-Thin-5428" d="M 5382 3430 
L 5568 3430 
L 5568 838 
L 5382 838 
L 5382 3430 
z
M 3962 5299 
L 4147 5299 
L 4147 224 
Q 4147 45 4182 -70 
Q 4218 -186 4301 -218 
Q 4454 -256 4621 -256 
Q 4723 -256 4908 -256 
Q 5094 -256 5235 -256 
Q 5350 -256 5465 -249 
Q 5581 -243 5638 -230 
Q 5702 -211 5760 -172 
Q 5818 -134 5837 -64 
Q 5856 19 5865 182 
Q 5875 346 5882 582 
Q 5926 550 5980 528 
Q 6035 506 6080 493 
Q 6080 307 6061 99 
Q 6042 -109 6010 -186 
Q 5978 -275 5910 -326 
Q 5843 -378 5754 -403 
Q 5658 -422 5520 -432 
Q 5382 -442 5242 -442 
Q 5197 -442 5065 -442 
Q 4934 -442 4803 -442 
Q 4672 -442 4627 -442 
Q 4525 -442 4397 -426 
Q 4269 -410 4166 -378 
Q 4096 -346 4048 -285 
Q 4000 -224 3981 -86 
Q 3962 51 3962 314 
L 3962 5299 
z
M 2234 4314 
L 5990 4314 
L 5990 4128 
L 2234 4128 
L 2234 4314 
z
M 2547 3424 
L 2733 3424 
L 2733 1504 
L 5536 1504 
L 5536 1318 
L 2547 1318 
L 2547 3424 
z
M 608 4653 
L 1933 4653 
L 1933 1274 
L 608 1274 
L 608 1466 
L 1747 1466 
L 1747 4467 
L 608 4467 
L 608 4653 
z
M 538 4653 
L 730 4653 
L 730 614 
L 538 614 
L 538 4653 
z
" transform="scale(0.015625)"/>
       <path id="NotoSansSC-Thin-29" d="M 352 -1222 
L 211 -1139 
Q 634 -474 851 320 
Q 1069 1114 1069 1958 
Q 1069 2803 851 3596 
Q 634 4390 211 5056 
L 352 5146 
Q 787 4448 1033 3667 
Q 1280 2886 1280 1958 
Q 1280 1030 1033 252 
Q 787 -525 352 -1222 
z
" transform="scale(0.015625)"/>
      </defs>
      <use xlink:href="#NotoSansSC-Thin-8d2d"/>
      <use xlink:href="#NotoSansSC-Thin-91d1" transform="translate(99.999985 0)"/>
      <use xlink:href="#NotoSansSC-Thin-91cf" transform="translate(199.999969 0)"/>
      <use xlink:href="#NotoSansSC-Thin-20" transform="translate(299.999954 0)"/>
      <use xlink:href="#NotoSansSC-Thin-28" transform="translate(321.999939 0)"/>
      <use xlink:href="#NotoSansSC-Thin-5428" transform="translate(351.899933 0)"/>
      <use xlink:href="#NotoSansSC-Thin-29" transform="translate(451.899918 0)"/>
     </g>
    </g>
   </g>
   <g id="matplotlib.axis_2">
    <g id="ytick_1">
     <g id="line2d_19">
      <path d="M 41.3 240.611288 
L 356.12 240.611288 
" clip-path="url(#pd03c6c8649)" style="fill: none; stroke: #e2e8f0; stroke-opacity: 0.6; stroke-width: 0.5; stroke-linecap: square"/>
     </g>
     <g id="line2d_20"/>
     <g id="text_11">
      <!-- 中国 -->
      <g style="fill: #94a3b8" transform="translate(19.8 244.184569) scale(0.09 -0.09)">
       <defs>
        <path id="NotoSansSC-Thin-4e2d" d="M 672 4141 
L 5696 4141 
L 5696 1331 
L 5510 1331 
L 5510 3955 
L 858 3955 
L 858 1299 
L 672 1299 
L 672 4141 
z
M 781 1926 
L 5638 1926 
L 5638 1741 
L 781 1741 
L 781 1926 
z
M 3085 5318 
L 3277 5318 
L 3277 -435 
L 3085 -435 
L 3085 5318 
z
" transform="scale(0.015625)"/>
        <path id="NotoSansSC-Thin-56fd" d="M 1510 4051 
L 4928 4051 
L 4928 3866 
L 1510 3866 
L 1510 4051 
z
M 1702 2650 
L 4755 2650 
L 4755 2458 
L 1702 2458 
L 1702 2650 
z
M 1395 1056 
L 5094 1056 
L 5094 864 
L 1395 864 
L 1395 1056 
z
M 3072 3994 
L 3264 3994 
L 3264 947 
L 3072 947 
L 3072 3994 
z
M 3859 2093 
L 3994 2182 
Q 4218 2010 4435 1789 
Q 4653 1568 4768 1402 
L 4621 1293 
Q 4506 1459 4288 1686 
Q 4070 1914 3859 2093 
z
M 608 4986 
L 5805 4986 
L 5805 -461 
L 5613 -461 
L 5613 4800 
L 800 4800 
L 800 -461 
L 608 -461 
L 608 4986 
z
M 704 51 
L 5702 51 
L 5702 -134 
L 704 -134 
L 704 51 
z
" transform="scale(0.015625)"/>
       </defs>
       <use xlink:href="#NotoSansSC-Thin-4e2d"/>
       <use xlink:href="#NotoSansSC-Thin-56fd" transform="translate(99.999985 0)"/>
      </g>
     </g>
    </g>
    <g id="ytick_2">
     <g id="line2d_21">
      <path d="M 41.3 211.402948 
L 356.12 211.402948 
" clip-path="url(#pd03c6c8649)" style="fill: none; stroke: #e2e8f0; stroke-opacity: 0.6; stroke-width: 0.5; stroke-linecap: square"/>
     </g>
     <g id="line2d_22"/>
     <g id="text_12">
      <!-- 波兰 -->
      <g style="fill: #94a3b8" transform="translate(19.8 214.976229) scale(0.09 -0.09)">
       <defs>
        <path id="NotoSansSC-Thin-6ce2" d="M 2387 4301 
L 5914 4301 
L 5914 4115 
L 2387 4115 
L 2387 4301 
z
M 2400 2746 
L 5395 2746 
L 5395 2560 
L 2400 2560 
L 2400 2746 
z
M 3923 5318 
L 4109 5318 
L 4109 2669 
L 3923 2669 
L 3923 5318 
z
M 2291 4301 
L 2477 4301 
L 2477 2701 
Q 2477 2342 2448 1936 
Q 2419 1530 2329 1107 
Q 2240 685 2067 285 
Q 1894 -115 1606 -454 
Q 1594 -435 1565 -416 
Q 1536 -397 1507 -381 
Q 1478 -365 1453 -358 
Q 1734 -19 1900 368 
Q 2067 755 2153 1161 
Q 2240 1568 2265 1965 
Q 2291 2362 2291 2707 
L 2291 4301 
z
M 5830 4301 
L 5869 4301 
L 5914 4314 
L 6042 4262 
Q 5907 3942 5760 3603 
Q 5613 3264 5472 3040 
L 5312 3117 
Q 5440 3334 5577 3648 
Q 5715 3962 5830 4256 
L 5830 4301 
z
M 3014 2682 
Q 3258 1946 3696 1344 
Q 4134 742 4755 323 
Q 5376 -96 6150 -288 
Q 6125 -307 6099 -339 
Q 6074 -371 6054 -400 
Q 6035 -429 6016 -454 
Q 4845 -134 4038 675 
Q 3232 1485 2854 2624 
L 3014 2682 
z
M 627 5101 
L 749 5229 
Q 947 5133 1155 5001 
Q 1363 4870 1539 4736 
Q 1715 4602 1824 4480 
L 1709 4326 
Q 1594 4448 1414 4589 
Q 1235 4730 1030 4864 
Q 826 4998 627 5101 
z
M 307 3379 
L 422 3520 
Q 627 3430 838 3312 
Q 1050 3194 1232 3066 
Q 1414 2938 1530 2829 
L 1421 2675 
Q 1306 2790 1120 2918 
Q 934 3046 723 3168 
Q 512 3290 307 3379 
z
M 493 -224 
Q 646 26 832 374 
Q 1018 723 1203 1110 
Q 1389 1498 1542 1843 
L 1690 1728 
Q 1549 1395 1369 1020 
Q 1190 646 1004 288 
Q 819 -70 653 -352 
L 493 -224 
z
M 5312 2746 
L 5357 2746 
L 5408 2758 
L 5523 2694 
Q 5267 1824 4787 1203 
Q 4307 582 3680 176 
Q 3053 -230 2349 -467 
Q 2336 -442 2310 -413 
Q 2285 -384 2262 -355 
Q 2240 -326 2214 -307 
Q 2918 -83 3536 310 
Q 4154 704 4618 1293 
Q 5082 1882 5312 2701 
L 5312 2746 
z
" transform="scale(0.015625)"/>
        <path id="NotoSansSC-Thin-5170" d="M 1389 5203 
L 1536 5286 
Q 1696 5107 1859 4899 
Q 2022 4691 2156 4496 
Q 2291 4301 2368 4147 
L 2208 4038 
Q 2131 4192 2000 4397 
Q 1869 4602 1709 4813 
Q 1549 5024 1389 5203 
z
M 4774 5318 
L 4960 5235 
Q 4813 4986 4627 4701 
Q 4442 4416 4250 4150 
Q 4058 3885 3885 3686 
L 3731 3757 
Q 3904 3962 4096 4237 
Q 4288 4512 4470 4800 
Q 4653 5088 4774 5318 
z
M 1030 2048 
L 5293 2048 
L 5293 1856 
L 1030 1856 
L 1030 2048 
z
M 397 147 
L 5990 147 
L 5990 -45 
L 397 -45 
L 397 147 
z
M 717 3795 
L 5690 3795 
L 5690 3610 
L 717 3610 
L 717 3795 
z
" transform="scale(0.015625)"/>
       </defs>
       <use xlink:href="#NotoSansSC-Thin-6ce2"/>
       <use xlink:href="#NotoSansSC-Thin-5170" transform="translate(99.999985 0)"/>
      </g>
     </g>
    </g>
    <g id="ytick_3">
     <g id="line2d_23">
      <path d="M 41.3 182.194608 
L 356.12 182.194608 
" clip-path="url(#pd03c6c8649)" style="fill: none; stroke: #e2e8f0; stroke-opacity: 0.6; stroke-width: 0.5; stroke-linecap: square"/>
     </g>
     <g id="line2d_24"/>
     <g id="text_13">
      <!-- 印度 -->
      <g style="fill: #94a3b8" transform="translate(19.8 185.767889) scale(0.09 -0.09)">
       <defs>
        <path id="NotoSansSC-Thin-5370" d="M 826 2970 
L 2886 2970 
L 2886 2778 
L 826 2778 
L 826 2970 
z
M 5581 4851 
L 5773 4851 
L 5773 992 
Q 5773 851 5728 777 
Q 5683 704 5555 672 
Q 5434 646 5174 640 
Q 4915 634 4525 634 
Q 4518 666 4502 701 
Q 4486 736 4470 774 
Q 4454 813 4435 845 
Q 4806 838 5078 838 
Q 5350 838 5440 838 
Q 5530 845 5555 873 
Q 5581 902 5581 986 
L 5581 4851 
z
M 3514 4851 
L 5690 4851 
L 5690 4659 
L 3699 4659 
L 3699 -442 
L 3514 -442 
L 3514 4851 
z
M 2592 5210 
L 2778 5069 
Q 2528 4947 2195 4828 
Q 1862 4710 1500 4608 
Q 1139 4506 794 4422 
Q 781 4454 758 4499 
Q 736 4544 717 4576 
Q 1056 4659 1411 4761 
Q 1766 4864 2076 4979 
Q 2387 5094 2592 5210 
z
M 717 4576 
L 915 4576 
L 915 640 
L 621 339 
Q 608 371 585 406 
Q 563 442 544 477 
Q 525 512 506 531 
Q 557 563 637 659 
Q 717 755 717 941 
L 717 4576 
z
M 621 339 
L 621 525 
L 774 646 
L 2854 1222 
Q 2854 1178 2857 1130 
Q 2861 1082 2867 1050 
Q 2285 883 1894 768 
Q 1504 653 1267 579 
Q 1030 506 902 464 
Q 774 422 713 393 
Q 653 365 621 339 
z
" transform="scale(0.015625)"/>
        <path id="NotoSansSC-Thin-5ea6" d="M 1280 3526 
L 5939 3526 
L 5939 3341 
L 1280 3341 
L 1280 3526 
z
M 1408 1658 
L 5222 1658 
L 5222 1466 
L 1408 1466 
L 1408 1658 
z
M 2470 4218 
L 2662 4218 
L 2662 2406 
L 4608 2406 
L 4608 4218 
L 4794 4218 
L 4794 2221 
L 2470 2221 
L 2470 4218 
z
M 5165 1658 
L 5210 1658 
L 5248 1670 
L 5370 1587 
Q 5101 1107 4653 761 
Q 4205 416 3641 182 
Q 3078 -51 2454 -195 
Q 1830 -339 1197 -416 
Q 1190 -384 1164 -333 
Q 1139 -282 1114 -243 
Q 1722 -179 2336 -44 
Q 2950 90 3500 310 
Q 4051 531 4483 854 
Q 4915 1178 5165 1613 
L 5165 1658 
z
M 2374 1459 
Q 2701 966 3264 608 
Q 3827 250 4553 26 
Q 5280 -198 6093 -288 
Q 6074 -307 6051 -339 
Q 6029 -371 6009 -400 
Q 5990 -429 5978 -454 
Q 5171 -346 4438 -112 
Q 3706 122 3126 493 
Q 2547 864 2208 1382 
L 2374 1459 
z
M 992 4595 
L 6022 4595 
L 6022 4403 
L 992 4403 
L 992 4595 
z
M 902 4595 
L 1094 4595 
L 1094 2822 
Q 1094 2464 1072 2045 
Q 1050 1626 986 1187 
Q 922 749 800 326 
Q 678 -96 474 -461 
Q 461 -442 429 -422 
Q 397 -403 368 -384 
Q 339 -365 314 -358 
Q 518 0 633 409 
Q 749 819 809 1241 
Q 870 1664 886 2067 
Q 902 2470 902 2822 
L 902 4595 
z
M 3098 5274 
L 3277 5331 
Q 3398 5152 3523 4934 
Q 3648 4717 3706 4570 
L 3526 4493 
Q 3462 4646 3344 4870 
Q 3226 5094 3098 5274 
z
" transform="scale(0.015625)"/>
       </defs>
       <use xlink:href="#NotoSansSC-Thin-5370"/>
       <use xlink:href="#NotoSansSC-Thin-5ea6" transform="translate(99.999985 0)"/>
      </g>
     </g>
    </g>
    <g id="ytick_4">
     <g id="line2d_25">
      <path d="M 41.3 152.986267 
L 356.12 152.986267 
" clip-path="url(#pd03c6c8649)" style="fill: none; stroke: #e2e8f0; stroke-opacity: 0.6; stroke-width: 0.5; stroke-linecap: square"/>
     </g>
     <g id="line2d_26"/>
     <g id="text_14">
      <!-- 土耳其 -->
      <g style="fill: #94a3b8" transform="translate(10.8 156.559549) scale(0.09 -0.09)">
       <defs>
        <path id="NotoSansSC-Thin-571f" d="M 774 3181 
L 5632 3181 
L 5632 2995 
L 774 2995 
L 774 3181 
z
M 378 38 
L 6029 38 
L 6029 -147 
L 378 -147 
L 378 38 
z
M 3091 5286 
L 3283 5286 
L 3283 -51 
L 3091 -51 
L 3091 5286 
z
" transform="scale(0.015625)"/>
        <path id="NotoSansSC-Thin-8033" d="M 454 4819 
L 5958 4819 
L 5958 4627 
L 454 4627 
L 454 4819 
z
M 1581 3456 
L 4806 3456 
L 4806 3270 
L 1581 3270 
L 1581 3456 
z
M 1581 2016 
L 4806 2016 
L 4806 1824 
L 1581 1824 
L 1581 2016 
z
M 378 518 
Q 864 544 1507 579 
Q 2150 614 2892 659 
Q 3635 704 4428 755 
Q 5222 806 6010 858 
L 6003 685 
Q 5242 634 4467 579 
Q 3693 525 2957 477 
Q 2221 429 1574 387 
Q 928 346 416 314 
L 378 518 
z
M 1504 4730 
L 1696 4730 
L 1696 499 
L 1504 499 
L 1504 4730 
z
M 4717 4742 
L 4909 4742 
L 4909 -448 
L 4717 -448 
L 4717 4742 
z
" transform="scale(0.015625)"/>
        <path id="NotoSansSC-Thin-5176" d="M 378 1101 
L 6029 1101 
L 6029 909 
L 378 909 
L 378 1101 
z
M 544 4454 
L 5882 4454 
L 5882 4269 
L 544 4269 
L 544 4454 
z
M 1766 3379 
L 4672 3379 
L 4672 3194 
L 1766 3194 
L 1766 3379 
z
M 1766 2234 
L 4672 2234 
L 4672 2048 
L 1766 2048 
L 1766 2234 
z
M 1645 5312 
L 1830 5312 
L 1830 1082 
L 1645 1082 
L 1645 5312 
z
M 4582 5312 
L 4768 5312 
L 4768 1082 
L 4582 1082 
L 4582 5312 
z
M 3814 531 
L 3923 666 
Q 4320 525 4704 361 
Q 5088 198 5430 38 
Q 5773 -122 6029 -269 
L 5894 -416 
Q 5651 -269 5318 -105 
Q 4986 58 4602 218 
Q 4218 378 3814 531 
z
M 2394 678 
L 2605 576 
Q 2330 384 1965 201 
Q 1600 19 1209 -144 
Q 819 -307 467 -429 
Q 448 -397 406 -349 
Q 365 -301 333 -275 
Q 691 -160 1081 -3 
Q 1472 154 1821 333 
Q 2170 512 2394 678 
z
" transform="scale(0.015625)"/>
       </defs>
       <use xlink:href="#NotoSansSC-Thin-571f"/>
       <use xlink:href="#NotoSansSC-Thin-8033" transform="translate(99.999985 0)"/>
       <use xlink:href="#NotoSansSC-Thin-5176" transform="translate(199.999969 0)"/>
      </g>
     </g>
    </g>
    <g id="ytick_5">
     <g id="line2d_27">
      <path d="M 41.3 123.777927 
L 356.12 123.777927 
" clip-path="url(#pd03c6c8649)" style="fill: none; stroke: #e2e8f0; stroke-opacity: 0.6; stroke-width: 0.5; stroke-linecap: square"/>
     </g>
     <g id="line2d_28"/>
     <g id="text_15">
      <!-- 新加坡 -->
      <g style="fill: #94a3b8" transform="translate(10.8 127.351208) scale(0.09 -0.09)">
       <defs>
        <path id="NotoSansSC-Thin-65b0" d="M 3693 3110 
L 6074 3110 
L 6074 2925 
L 3693 2925 
L 3693 3110 
z
M 442 4608 
L 3213 4608 
L 3213 4422 
L 442 4422 
L 442 4608 
z
M 365 2080 
L 3277 2080 
L 3277 1888 
L 365 1888 
L 365 2080 
z
M 346 3110 
L 3315 3110 
L 3315 2925 
L 346 2925 
L 346 3110 
z
M 5075 3046 
L 5261 3046 
L 5261 -422 
L 5075 -422 
L 5075 3046 
z
M 934 4282 
L 1107 4314 
Q 1222 4064 1308 3766 
Q 1395 3469 1421 3258 
L 1235 3206 
Q 1210 3424 1130 3725 
Q 1050 4026 934 4282 
z
M 2579 4326 
L 2771 4269 
Q 2669 3955 2541 3593 
Q 2413 3232 2298 2982 
L 2131 3034 
Q 2208 3206 2291 3436 
Q 2374 3667 2451 3904 
Q 2528 4141 2579 4326 
z
M 5626 5146 
L 5818 4998 
Q 5542 4902 5177 4816 
Q 4813 4730 4416 4662 
Q 4019 4595 3648 4544 
Q 3642 4576 3619 4617 
Q 3597 4659 3571 4691 
Q 3936 4749 4326 4819 
Q 4717 4890 5059 4976 
Q 5402 5062 5626 5146 
z
M 1498 5267 
L 1677 5325 
Q 1805 5146 1936 4922 
Q 2067 4698 2125 4544 
L 1946 4467 
Q 1882 4627 1754 4854 
Q 1626 5082 1498 5267 
z
M 1754 3021 
L 1933 3021 
L 1933 -13 
Q 1933 -115 1904 -166 
Q 1875 -218 1805 -250 
Q 1734 -275 1593 -281 
Q 1453 -288 1248 -288 
Q 1242 -250 1219 -195 
Q 1197 -141 1165 -96 
Q 1357 -102 1491 -102 
Q 1626 -102 1677 -96 
Q 1754 -96 1754 -19 
L 1754 3021 
z
M 3571 4691 
L 3750 4691 
L 3750 2554 
Q 3750 2214 3728 1830 
Q 3706 1446 3635 1052 
Q 3565 659 3424 284 
Q 3283 -90 3046 -410 
Q 3034 -384 3005 -361 
Q 2976 -339 2950 -316 
Q 2925 -294 2899 -282 
Q 3206 128 3347 621 
Q 3488 1114 3529 1616 
Q 3571 2118 3571 2554 
L 3571 4691 
z
M 2336 1510 
L 2496 1574 
Q 2662 1318 2822 1008 
Q 2982 698 3053 474 
L 2886 397 
Q 2810 621 2653 937 
Q 2496 1254 2336 1510 
z
M 1011 1574 
L 1197 1530 
Q 1088 1178 909 842 
Q 730 506 531 262 
Q 506 288 451 326 
Q 397 365 358 384 
Q 570 621 736 931 
Q 902 1242 1011 1574 
z
" transform="scale(0.015625)"/>
        <path id="NotoSansSC-Thin-52a0" d="M 3827 294 
L 5664 294 
L 5664 109 
L 3827 109 
L 3827 294 
z
M 365 4038 
L 2938 4038 
L 2938 3853 
L 365 3853 
L 365 4038 
z
M 3738 4454 
L 5779 4454 
L 5779 -339 
L 5587 -339 
L 5587 4269 
L 3930 4269 
L 3930 -384 
L 3738 -384 
L 3738 4454 
z
M 2874 4038 
L 3059 4038 
Q 3059 4038 3059 4009 
Q 3059 3981 3059 3949 
Q 3059 3917 3059 3898 
Q 3040 2790 3021 2044 
Q 3002 1299 2973 838 
Q 2944 378 2896 138 
Q 2848 -102 2771 -198 
Q 2707 -288 2627 -323 
Q 2547 -358 2419 -365 
Q 2298 -371 2090 -364 
Q 1882 -358 1670 -339 
Q 1664 -294 1654 -240 
Q 1645 -186 1613 -147 
Q 1875 -166 2092 -169 
Q 2310 -173 2394 -173 
Q 2464 -179 2515 -163 
Q 2566 -147 2605 -90 
Q 2662 -13 2704 227 
Q 2746 467 2778 934 
Q 2810 1402 2832 2150 
Q 2854 2899 2874 3981 
L 2874 4038 
z
M 1421 5235 
L 1606 5235 
Q 1600 4410 1571 3584 
Q 1542 2758 1433 2000 
Q 1325 1242 1081 611 
Q 838 -19 410 -461 
Q 390 -442 358 -426 
Q 326 -410 294 -394 
Q 262 -378 237 -365 
Q 576 -32 797 438 
Q 1018 909 1146 1472 
Q 1274 2035 1331 2662 
Q 1389 3290 1405 3942 
Q 1421 4595 1421 5235 
z
" transform="scale(0.015625)"/>
        <path id="NotoSansSC-Thin-5761" d="M 2720 4288 
L 5882 4288 
L 5882 4102 
L 2720 4102 
L 2720 4288 
z
M 5843 4288 
L 5882 4288 
L 5920 4301 
L 6054 4250 
Q 5952 3942 5843 3609 
Q 5734 3277 5638 3053 
L 5466 3104 
Q 5555 3322 5660 3642 
Q 5766 3962 5843 4250 
L 5843 4288 
z
M 4134 5312 
L 4320 5312 
L 4320 2605 
L 4134 2605 
L 4134 5312 
z
M 2605 4288 
L 2790 4288 
L 2790 2662 
Q 2790 2310 2755 1916 
Q 2720 1523 2617 1123 
Q 2515 723 2313 339 
Q 2112 -45 1779 -371 
Q 1766 -346 1737 -320 
Q 1709 -294 1683 -272 
Q 1658 -250 1632 -237 
Q 1952 77 2147 441 
Q 2342 806 2441 1190 
Q 2541 1574 2573 1952 
Q 2605 2330 2605 2669 
L 2605 4288 
z
M 2733 2758 
L 5536 2758 
L 5536 2573 
L 2733 2573 
L 2733 2758 
z
M 5485 2758 
L 5523 2758 
L 5562 2771 
L 5683 2714 
Q 5440 1862 4966 1235 
Q 4493 608 3885 192 
Q 3277 -224 2630 -448 
Q 2611 -416 2576 -365 
Q 2541 -314 2509 -288 
Q 2976 -134 3433 128 
Q 3891 390 4294 764 
Q 4698 1139 5005 1625 
Q 5312 2112 5485 2714 
L 5485 2758 
z
M 3194 2707 
Q 3546 1619 4282 838 
Q 5018 58 6086 -262 
Q 6067 -282 6041 -310 
Q 6016 -339 5993 -368 
Q 5971 -397 5952 -422 
Q 4890 -77 4138 726 
Q 3386 1530 3027 2650 
L 3194 2707 
z
M 352 3718 
L 2189 3718 
L 2189 3533 
L 352 3533 
L 352 3718 
z
M 1242 5254 
L 1434 5254 
L 1434 1190 
L 1242 1190 
L 1242 5254 
z
M 288 870 
Q 538 966 854 1097 
Q 1171 1229 1529 1379 
Q 1888 1530 2246 1683 
L 2285 1504 
Q 1779 1286 1270 1068 
Q 762 851 365 685 
L 288 870 
z
" transform="scale(0.015625)"/>
       </defs>
       <use xlink:href="#NotoSansSC-Thin-65b0"/>
       <use xlink:href="#NotoSansSC-Thin-52a0" transform="translate(99.999985 0)"/>
       <use xlink:href="#NotoSansSC-Thin-5761" transform="translate(199.999969 0)"/>
      </g>
     </g>
    </g>
    <g id="ytick_6">
     <g id="line2d_29">
      <path d="M 41.3 94.569587 
L 356.12 94.569587 
" clip-path="url(#pd03c6c8649)" style="fill: none; stroke: #e2e8f0; stroke-opacity: 0.6; stroke-width: 0.5; stroke-linecap: square"/>
     </g>
     <g id="line2d_30"/>
     <g id="text_16">
      <!-- 捷克 -->
      <g style="fill: #94a3b8" transform="translate(19.8 98.142868) scale(0.09 -0.09)">
       <defs>
        <path id="NotoSansSC-Thin-6377" d="M 2310 4653 
L 5984 4653 
L 5984 4467 
L 2310 4467 
L 2310 4653 
z
M 4102 1146 
L 5715 1146 
L 5715 954 
L 4102 954 
L 4102 1146 
z
M 2246 3014 
L 6150 3014 
L 6150 2822 
L 2246 2822 
L 2246 3014 
z
M 2605 3872 
L 5638 3872 
L 5638 1888 
L 2605 1888 
L 2605 2080 
L 5453 2080 
L 5453 3680 
L 2605 3680 
L 2605 3872 
z
M 4019 5312 
L 4211 5312 
L 4211 -179 
L 4019 -128 
L 4019 5312 
z
M 2778 1760 
L 2970 1734 
Q 2854 1018 2601 464 
Q 2349 -90 1952 -467 
Q 1939 -448 1910 -425 
Q 1882 -403 1850 -380 
Q 1818 -358 1792 -346 
Q 2202 13 2438 547 
Q 2675 1082 2778 1760 
z
M 2816 1152 
Q 2982 602 3260 304 
Q 3539 6 3939 -106 
Q 4339 -218 4870 -218 
Q 4909 -218 5085 -218 
Q 5261 -218 5481 -218 
Q 5702 -218 5891 -218 
Q 6080 -218 6144 -218 
Q 6125 -243 6105 -278 
Q 6086 -314 6076 -349 
Q 6067 -384 6061 -410 
L 5773 -410 
L 4877 -410 
Q 4282 -410 3853 -288 
Q 3424 -166 3133 157 
Q 2842 480 2643 1069 
L 2816 1152 
z
M 224 1894 
Q 582 2022 1107 2204 
Q 1632 2387 2176 2586 
L 2208 2394 
Q 1702 2208 1200 2025 
Q 698 1843 301 1702 
L 224 1894 
z
M 301 3949 
L 2227 3949 
L 2227 3757 
L 301 3757 
L 301 3949 
z
M 1229 5312 
L 1421 5312 
L 1421 -147 
Q 1421 -275 1376 -332 
Q 1331 -390 1242 -416 
Q 1158 -442 988 -448 
Q 819 -454 518 -448 
Q 512 -416 489 -365 
Q 467 -314 442 -269 
Q 685 -275 870 -275 
Q 1056 -275 1114 -269 
Q 1171 -269 1200 -243 
Q 1229 -218 1229 -147 
L 1229 5312 
z
" transform="scale(0.015625)"/>
        <path id="NotoSansSC-Thin-514b" d="M 1408 3283 
L 1408 1920 
L 5005 1920 
L 5005 3283 
L 1408 3283 
z
M 1216 3469 
L 5197 3469 
L 5197 1734 
L 1216 1734 
L 1216 3469 
z
M 474 4582 
L 5952 4582 
L 5952 4390 
L 474 4390 
L 474 4582 
z
M 3091 5318 
L 3283 5318 
L 3283 3482 
L 3091 3482 
L 3091 5318 
z
M 3738 1869 
L 3930 1869 
L 3930 0 
Q 3930 -122 4000 -163 
Q 4070 -205 4307 -205 
Q 4365 -205 4528 -205 
Q 4691 -205 4892 -205 
Q 5094 -205 5267 -205 
Q 5440 -205 5523 -205 
Q 5677 -205 5750 -134 
Q 5824 -64 5853 153 
Q 5882 371 5894 813 
Q 5926 794 5958 774 
Q 5990 755 6025 742 
Q 6061 730 6086 723 
Q 6074 269 6029 25 
Q 5984 -218 5872 -307 
Q 5760 -397 5530 -397 
Q 5498 -397 5376 -397 
Q 5254 -397 5088 -397 
Q 4922 -397 4758 -397 
Q 4595 -397 4473 -397 
Q 4352 -397 4320 -397 
Q 4096 -397 3968 -368 
Q 3840 -339 3789 -252 
Q 3738 -166 3738 0 
L 3738 1869 
z
M 2374 1818 
L 2573 1818 
Q 2515 1370 2387 1005 
Q 2259 640 2025 361 
Q 1792 83 1421 -121 
Q 1050 -326 499 -461 
Q 493 -435 470 -406 
Q 448 -378 425 -346 
Q 403 -314 378 -294 
Q 915 -173 1276 16 
Q 1638 205 1862 470 
Q 2086 736 2204 1072 
Q 2323 1408 2374 1818 
z
" transform="scale(0.015625)"/>
       </defs>
       <use xlink:href="#NotoSansSC-Thin-6377"/>
       <use xlink:href="#NotoSansSC-Thin-514b" transform="translate(99.999985 0)"/>
      </g>
     </g>
    </g>
   </g>
   <g id="patch_3">
    <path d="M 41.3 247.183165 
L 296.3042 247.183165 
L 296.3042 234.039412 
L 41.3 234.039412 
z
" clip-path="url(#pd03c6c8649)" style="fill: #d4a017; stroke: #ffffff; stroke-width: 1.5; stroke-linejoin: miter"/>
   </g>
   <g id="patch_4">
    <path d="M 41.3 217.974824 
L 112.1345 217.974824 
L 112.1345 204.831071 
L 41.3 204.831071 
z
" clip-path="url(#pd03c6c8649)" style="fill: #3b82f6; stroke: #ffffff; stroke-width: 1.5; stroke-linejoin: miter"/>
   </g>
   <g id="patch_5">
    <path d="M 41.3 188.766484 
L 97.9676 188.766484 
L 97.9676 175.622731 
L 41.3 175.622731 
z
" clip-path="url(#pd03c6c8649)" style="fill: #3b82f6; stroke: #ffffff; stroke-width: 1.5; stroke-linejoin: miter"/>
   </g>
   <g id="patch_6">
    <path d="M 41.3 159.558144 
L 88.523 159.558144 
L 88.523 146.414391 
L 41.3 146.414391 
z
" clip-path="url(#pd03c6c8649)" style="fill: #3b82f6; stroke: #ffffff; stroke-width: 1.5; stroke-linejoin: miter"/>
   </g>
   <g id="patch_7">
    <path d="M 41.3 130.349804 
L 74.3561 130.349804 
L 74.3561 117.206051 
L 41.3 117.206051 
z
" clip-path="url(#pd03c6c8649)" style="fill: #3b82f6; stroke: #ffffff; stroke-width: 1.5; stroke-linejoin: miter"/>
   </g>
   <g id="patch_8">
    <path d="M 41.3 101.141463 
L 71.2079 101.141463 
L 71.2079 87.99771 
L 41.3 87.99771 
z
" clip-path="url(#pd03c6c8649)" style="fill: #3b82f6; stroke: #ffffff; stroke-width: 1.5; stroke-linejoin: miter"/>
   </g>
   <g id="text_17">
    <!-- 324吨 -->
    <g style="fill: #1e293b" transform="translate(301.0265 243.09121) scale(0.09 -0.09)">
     <use xlink:href="#NotoSansSC-Thin-33"/>
     <use xlink:href="#NotoSansSC-Thin-32" transform="translate(52.099991 0)"/>
     <use xlink:href="#NotoSansSC-Thin-34" transform="translate(104.199982 0)"/>
     <use xlink:href="#NotoSansSC-Thin-5428" transform="translate(156.299973 0)"/>
    </g>
   </g>
   <g id="text_18">
    <!-- 90吨 -->
    <g style="fill: #1e293b" transform="translate(116.8568 213.88287) scale(0.09 -0.09)">
     <defs>
      <path id="NotoSansSC-Thin-39" d="M 1370 -83 
Q 1050 -83 819 32 
Q 589 147 410 339 
L 557 506 
Q 723 314 934 221 
Q 1146 128 1389 128 
Q 1651 128 1891 256 
Q 2131 384 2316 675 
Q 2502 966 2611 1443 
Q 2720 1920 2720 2618 
Q 2720 3168 2592 3600 
Q 2464 4032 2195 4278 
Q 1926 4525 1498 4525 
Q 1229 4525 1014 4355 
Q 800 4186 675 3901 
Q 550 3616 550 3264 
Q 550 2912 652 2627 
Q 755 2342 979 2172 
Q 1203 2003 1555 2003 
Q 1830 2003 2137 2182 
Q 2445 2362 2739 2765 
L 2746 2470 
Q 2586 2278 2397 2128 
Q 2208 1978 1993 1891 
Q 1779 1805 1536 1805 
Q 1152 1805 877 1974 
Q 602 2144 454 2470 
Q 307 2797 307 3264 
Q 307 3686 473 4019 
Q 640 4352 912 4541 
Q 1184 4730 1510 4730 
Q 1850 4730 2118 4589 
Q 2387 4448 2572 4176 
Q 2758 3904 2857 3513 
Q 2957 3123 2957 2618 
Q 2957 1862 2825 1344 
Q 2694 826 2470 512 
Q 2246 198 1961 57 
Q 1677 -83 1370 -83 
z
" transform="scale(0.015625)"/>
     </defs>
     <use xlink:href="#NotoSansSC-Thin-39"/>
     <use xlink:href="#NotoSansSC-Thin-30" transform="translate(52.099991 0)"/>
     <use xlink:href="#NotoSansSC-Thin-5428" transform="translate(104.199982 0)"/>
    </g>
   </g>
   <g id="text_19">
    <!-- 72吨 -->
    <g style="fill: #1e293b" transform="translate(102.6899 184.67453) scale(0.09 -0.09)">
     <defs>
      <path id="NotoSansSC-Thin-37" d="M 1344 0 
Q 1376 717 1462 1318 
Q 1549 1920 1712 2445 
Q 1875 2970 2124 3459 
Q 2374 3949 2726 4435 
L 307 4435 
L 307 4646 
L 3034 4646 
L 3034 4512 
Q 2624 3955 2355 3436 
Q 2086 2918 1932 2384 
Q 1779 1850 1705 1267 
Q 1632 685 1606 0 
L 1344 0 
z
" transform="scale(0.015625)"/>
     </defs>
     <use xlink:href="#NotoSansSC-Thin-37"/>
     <use xlink:href="#NotoSansSC-Thin-32" transform="translate(52.099991 0)"/>
     <use xlink:href="#NotoSansSC-Thin-5428" transform="translate(104.199982 0)"/>
    </g>
   </g>
   <g id="text_20">
    <!-- 60吨 -->
    <g style="fill: #1e293b" transform="translate(93.2453 155.466189) scale(0.09 -0.09)">
     <defs>
      <path id="NotoSansSC-Thin-36" d="M 1837 -83 
Q 1498 -83 1232 67 
Q 966 218 780 509 
Q 595 800 496 1216 
Q 397 1632 397 2170 
Q 397 2886 528 3379 
Q 659 3872 889 4169 
Q 1120 4467 1414 4598 
Q 1709 4730 2029 4730 
Q 2330 4730 2550 4614 
Q 2771 4499 2944 4307 
L 2790 4147 
Q 2643 4333 2444 4425 
Q 2246 4518 2022 4518 
Q 1651 4518 1334 4297 
Q 1018 4077 826 3561 
Q 634 3046 634 2170 
Q 634 1581 762 1120 
Q 890 659 1158 393 
Q 1427 128 1850 128 
Q 2125 128 2336 297 
Q 2547 467 2672 752 
Q 2797 1037 2797 1382 
Q 2797 1741 2694 2025 
Q 2592 2310 2368 2476 
Q 2144 2643 1779 2643 
Q 1523 2643 1209 2470 
Q 896 2298 602 1888 
L 602 2176 
Q 768 2381 957 2531 
Q 1146 2682 1360 2762 
Q 1574 2842 1792 2842 
Q 2189 2842 2467 2675 
Q 2746 2509 2893 2185 
Q 3040 1862 3040 1382 
Q 3040 960 2873 630 
Q 2707 301 2435 109 
Q 2163 -83 1837 -83 
z
" transform="scale(0.015625)"/>
     </defs>
     <use xlink:href="#NotoSansSC-Thin-36"/>
     <use xlink:href="#NotoSansSC-Thin-30" transform="translate(52.099991 0)"/>
     <use xlink:href="#NotoSansSC-Thin-5428" transform="translate(104.199982 0)"/>
    </g>
   </g>
   <g id="text_21">
    <!-- 42吨 -->
    <g style="fill: #1e293b" transform="translate(79.0784 126.257849) scale(0.09 -0.09)">
     <use xlink:href="#NotoSansSC-Thin-34"/>
     <use xlink:href="#NotoSansSC-Thin-32" transform="translate(52.099991 0)"/>
     <use xlink:href="#NotoSansSC-Thin-5428" transform="translate(104.199982 0)"/>
    </g>
   </g>
   <g id="text_22">
    <!-- 38吨 -->
    <g style="fill: #1e293b" transform="translate(75.9302 97.049509) scale(0.09 -0.09)">
     <defs>
      <path id="NotoSansSC-Thin-38" d="M 1696 -83 
Q 1286 -83 966 80 
Q 646 243 464 521 
Q 282 800 282 1152 
Q 282 1478 422 1744 
Q 563 2010 774 2202 
Q 986 2394 1197 2509 
L 1197 2534 
Q 954 2694 752 2953 
Q 550 3213 550 3578 
Q 550 3910 704 4163 
Q 858 4416 1117 4560 
Q 1376 4704 1696 4704 
Q 2080 4704 2345 4544 
Q 2611 4384 2752 4112 
Q 2893 3840 2893 3494 
Q 2893 3238 2784 3008 
Q 2675 2778 2528 2602 
Q 2381 2426 2253 2317 
L 2253 2285 
Q 2445 2170 2627 2010 
Q 2810 1850 2925 1626 
Q 3040 1402 3040 1082 
Q 3040 762 2870 496 
Q 2701 230 2400 73 
Q 2099 -83 1696 -83 
z
M 2035 2387 
Q 2336 2630 2499 2905 
Q 2662 3181 2662 3494 
Q 2662 3763 2550 3990 
Q 2438 4218 2220 4358 
Q 2003 4499 1696 4499 
Q 1293 4499 1040 4236 
Q 787 3974 787 3578 
Q 787 3238 972 3017 
Q 1158 2797 1446 2653 
Q 1734 2509 2035 2387 
z
M 1696 128 
Q 2035 128 2281 256 
Q 2528 384 2662 601 
Q 2797 819 2797 1082 
Q 2797 1370 2675 1574 
Q 2554 1779 2352 1923 
Q 2150 2067 1894 2182 
Q 1638 2298 1370 2400 
Q 998 2189 758 1875 
Q 518 1562 518 1152 
Q 518 870 668 636 
Q 819 403 1088 265 
Q 1357 128 1696 128 
z
" transform="scale(0.015625)"/>
     </defs>
     <use xlink:href="#NotoSansSC-Thin-33"/>
     <use xlink:href="#NotoSansSC-Thin-38" transform="translate(52.099991 0)"/>
     <use xlink:href="#NotoSansSC-Thin-5428" transform="translate(104.199982 0)"/>
    </g>
   </g>
   <g id="text_23">
    <g id="patch_9">
     <path d="M 308.897 232.863556 
L 344.897 232.863556 
Q 346.697 232.863556 346.697 231.063556 
L 346.697 221.730275 
Q 346.697 219.930275 344.897 219.930275 
L 308.897 219.930275 
Q 307.097 219.930275 307.097 221.730275 
L 307.097 231.063556 
Q 307.097 232.863556 308.897 232.863556 
z
" style="fill: #fffbeb; opacity: 0.9; stroke: #d4a017; stroke-width: 1.5; stroke-linejoin: miter"/>
    </g>
    <!-- 全球第一 -->
    <g style="fill: #d4a017" transform="translate(308.897 228.876837) scale(0.09 -0.09)">
     <defs>
      <path id="NotoSansSC-Thin-5168" d="M 1267 1466 
L 5229 1466 
L 5229 1274 
L 1267 1274 
L 1267 1466 
z
M 1274 2912 
L 5178 2912 
L 5178 2720 
L 1274 2720 
L 1274 2912 
z
M 486 -64 
L 5933 -64 
L 5933 -250 
L 486 -250 
L 486 -64 
z
M 3104 2854 
L 3296 2854 
L 3296 -166 
L 3104 -166 
L 3104 2854 
z
M 3245 5395 
L 3405 5318 
Q 3072 4794 2589 4278 
Q 2106 3763 1539 3328 
Q 973 2893 378 2592 
Q 352 2624 310 2665 
Q 269 2707 230 2733 
Q 826 3027 1395 3452 
Q 1965 3878 2445 4380 
Q 2925 4883 3245 5395 
z
M 3264 5222 
Q 3878 4435 4630 3830 
Q 5382 3226 6189 2720 
Q 6157 2701 6112 2656 
Q 6067 2611 6042 2573 
Q 5504 2925 4992 3312 
Q 4480 3699 4009 4150 
Q 3539 4602 3104 5139 
L 3264 5222 
z
" transform="scale(0.015625)"/>
      <path id="NotoSansSC-Thin-7403" d="M 2432 4122 
L 6080 4122 
L 6080 3936 
L 2432 3936 
L 2432 4122 
z
M 4096 5312 
L 4288 5312 
L 4288 -109 
Q 4288 -262 4233 -326 
Q 4179 -390 4077 -416 
Q 3974 -442 3756 -448 
Q 3539 -454 3142 -454 
Q 3136 -429 3120 -397 
Q 3104 -365 3091 -329 
Q 3078 -294 3059 -269 
Q 3386 -275 3629 -275 
Q 3872 -275 3949 -269 
Q 4026 -262 4061 -230 
Q 4096 -198 4096 -115 
L 4096 5312 
z
M 2221 307 
Q 2464 531 2777 832 
Q 3091 1133 3443 1478 
Q 3795 1824 4141 2170 
L 4230 2016 
Q 3744 1523 3248 1030 
Q 2752 538 2362 166 
L 2221 307 
z
M 2586 3334 
L 2739 3411 
Q 2906 3219 3059 2995 
Q 3213 2771 3341 2553 
Q 3469 2336 3533 2163 
L 3360 2074 
Q 3302 2246 3177 2464 
Q 3053 2682 2899 2912 
Q 2746 3142 2586 3334 
z
M 5766 3462 
L 5933 3360 
Q 5766 3104 5555 2816 
Q 5344 2528 5129 2259 
Q 4915 1990 4723 1786 
L 4589 1875 
Q 4774 2080 4992 2358 
Q 5210 2637 5418 2931 
Q 5626 3226 5766 3462 
z
M 4710 5101 
L 4845 5210 
Q 5062 5062 5283 4860 
Q 5504 4659 5613 4506 
L 5485 4371 
Q 5363 4538 5148 4742 
Q 4934 4947 4710 5101 
z
M 4275 3840 
Q 4365 3142 4505 2592 
Q 4646 2042 4864 1603 
Q 5082 1165 5408 806 
Q 5734 448 6182 122 
Q 6150 96 6112 57 
Q 6074 19 6048 -26 
Q 5587 307 5260 681 
Q 4934 1056 4707 1510 
Q 4480 1965 4339 2531 
Q 4198 3098 4109 3814 
L 4275 3840 
z
M 358 4819 
L 2253 4819 
L 2253 4627 
L 358 4627 
L 358 4819 
z
M 422 2957 
L 2144 2957 
L 2144 2765 
L 422 2765 
L 422 2957 
z
M 294 486 
Q 550 563 880 665 
Q 1210 768 1587 889 
Q 1965 1011 2349 1133 
L 2374 941 
Q 1830 768 1299 595 
Q 768 422 358 288 
L 294 486 
z
M 1222 4704 
L 1414 4704 
L 1414 704 
L 1222 640 
L 1222 4704 
z
" transform="scale(0.015625)"/>
      <path id="NotoSansSC-Thin-7b2c" d="M 1133 2477 
L 5382 2477 
L 5382 3296 
L 877 3296 
L 877 3482 
L 5568 3482 
L 5568 2291 
L 1133 2291 
L 1133 2477 
z
M 1114 2477 
L 1286 2477 
Q 1254 2285 1216 2067 
Q 1178 1850 1142 1648 
Q 1107 1446 1069 1293 
L 883 1293 
Q 928 1453 969 1657 
Q 1011 1862 1049 2076 
Q 1088 2291 1114 2477 
z
M 1056 1478 
L 5549 1478 
L 5549 1293 
L 998 1293 
L 1056 1478 
z
M 5491 1478 
L 5683 1478 
Q 5683 1478 5680 1436 
Q 5677 1395 5670 1363 
Q 5587 666 5507 346 
Q 5427 26 5299 -83 
Q 5242 -134 5171 -156 
Q 5101 -179 4973 -179 
Q 4870 -179 4649 -176 
Q 4429 -173 4179 -154 
Q 4173 -115 4160 -64 
Q 4147 -13 4122 32 
Q 4390 6 4617 0 
Q 4845 -6 4928 -6 
Q 5018 -6 5075 3 
Q 5133 13 5165 45 
Q 5261 134 5337 444 
Q 5414 755 5491 1446 
L 5491 1478 
z
M 3098 3418 
L 3296 3418 
L 3296 -448 
L 3098 -448 
L 3098 3418 
z
M 2989 1466 
L 3149 1389 
Q 2886 992 2480 630 
Q 2074 269 1616 -19 
Q 1158 -307 723 -486 
Q 710 -461 684 -432 
Q 659 -403 633 -377 
Q 608 -352 582 -333 
Q 1024 -173 1481 105 
Q 1939 384 2336 736 
Q 2733 1088 2989 1466 
z
M 1203 4704 
L 3213 4704 
L 3213 4518 
L 1203 4518 
L 1203 4704 
z
M 3616 4704 
L 5958 4704 
L 5958 4518 
L 3616 4518 
L 3616 4704 
z
M 1446 5325 
L 1632 5286 
Q 1453 4774 1165 4329 
Q 877 3885 538 3578 
Q 525 3597 496 3616 
Q 467 3635 435 3657 
Q 403 3680 371 3693 
Q 730 3994 1005 4416 
Q 1280 4838 1446 5325 
z
M 3802 5325 
L 3987 5286 
Q 3859 4806 3638 4380 
Q 3418 3955 3142 3654 
Q 3130 3667 3101 3689 
Q 3072 3712 3040 3734 
Q 3008 3757 2982 3770 
Q 3264 4058 3472 4464 
Q 3680 4870 3802 5325 
z
M 1766 4595 
L 1946 4627 
Q 2054 4429 2147 4182 
Q 2240 3936 2272 3770 
L 2086 3718 
Q 2048 3898 1958 4141 
Q 1869 4384 1766 4595 
z
M 4307 4544 
L 4474 4608 
Q 4640 4422 4800 4188 
Q 4960 3955 5030 3782 
L 4864 3699 
Q 4794 3878 4637 4115 
Q 4480 4352 4307 4544 
z
" transform="scale(0.015625)"/>
      <path id="NotoSansSC-Thin-4e00" d="M 320 2605 
L 6112 2605 
L 6112 2394 
L 320 2394 
L 320 2605 
z
" transform="scale(0.015625)"/>
     </defs>
     <use xlink:href="#NotoSansSC-Thin-5168"/>
     <use xlink:href="#NotoSansSC-Thin-7403" transform="translate(99.999985 0)"/>
     <use xlink:href="#NotoSansSC-Thin-7b2c" transform="translate(199.999969 0)"/>
     <use xlink:href="#NotoSansSC-Thin-4e00" transform="translate(299.999954 0)"/>
    </g>
   </g>
  </g>
  <g id="text_24">
   <!-- 2026 Q1 各国央行购金量 -->
   <g style="fill: #1e293b" transform="translate(41.3 21.916875) scale(0.14 -0.14)">
    <defs>
     <path id="NotoSansSC-Thin-51" d="M 2285 -83 
Q 1734 -83 1308 217 
Q 883 518 640 1062 
Q 397 1606 397 2336 
Q 397 3072 640 3606 
Q 883 4141 1308 4435 
Q 1734 4730 2285 4730 
Q 2835 4730 3260 4435 
Q 3686 4141 3929 3606 
Q 4173 3072 4173 2336 
Q 4173 1606 3929 1062 
Q 3686 518 3260 217 
Q 2835 -83 2285 -83 
z
M 2285 128 
Q 2778 128 3146 403 
Q 3514 678 3718 1174 
Q 3923 1670 3923 2336 
Q 3923 3002 3718 3488 
Q 3514 3974 3146 4240 
Q 2778 4506 2285 4506 
Q 1798 4506 1427 4240 
Q 1056 3974 851 3488 
Q 646 3002 646 2336 
Q 646 1670 851 1174 
Q 1056 678 1427 403 
Q 1798 128 2285 128 
z
M 3622 -1075 
Q 3232 -1075 2928 -934 
Q 2624 -794 2419 -547 
Q 2214 -301 2112 0 
L 2381 0 
Q 2477 -262 2653 -451 
Q 2829 -640 3081 -739 
Q 3334 -838 3648 -838 
Q 3808 -838 3917 -822 
Q 4026 -806 4109 -781 
L 4166 -998 
Q 4083 -1024 3936 -1049 
Q 3789 -1075 3622 -1075 
z
" transform="scale(0.015625)"/>
     <path id="NotoSansSC-Thin-5404" d="M 1440 51 
L 4915 51 
L 4915 -134 
L 1440 -134 
L 1440 51 
z
M 2464 5350 
L 2650 5286 
Q 2394 4870 2061 4489 
Q 1728 4109 1353 3789 
Q 979 3469 595 3226 
Q 582 3245 553 3267 
Q 525 3290 493 3315 
Q 461 3341 435 3354 
Q 832 3590 1206 3904 
Q 1581 4218 1907 4586 
Q 2234 4954 2464 5350 
z
M 4813 4589 
L 4858 4589 
L 4896 4602 
L 5011 4512 
Q 4659 3968 4115 3504 
Q 3571 3040 2921 2672 
Q 2272 2304 1597 2038 
Q 922 1773 314 1619 
Q 307 1651 291 1683 
Q 275 1715 256 1747 
Q 237 1779 218 1792 
Q 698 1901 1222 2086 
Q 1747 2272 2272 2528 
Q 2797 2784 3277 3097 
Q 3757 3411 4153 3776 
Q 4550 4141 4813 4550 
L 4813 4589 
z
M 1798 4365 
Q 2131 3923 2608 3520 
Q 3085 3117 3657 2781 
Q 4230 2445 4857 2192 
Q 5485 1939 6112 1792 
Q 6093 1773 6067 1744 
Q 6042 1715 6022 1686 
Q 6003 1658 5984 1632 
Q 5363 1792 4739 2051 
Q 4115 2310 3536 2656 
Q 2957 3002 2473 3414 
Q 1990 3827 1645 4288 
L 1798 4365 
z
M 1331 1734 
L 4992 1734 
L 4992 -474 
L 4806 -474 
L 4806 1542 
L 1517 1542 
L 1517 -493 
L 1331 -493 
L 1331 1734 
z
M 1990 4589 
L 4877 4589 
L 4877 4397 
L 1875 4397 
L 1990 4589 
z
" transform="scale(0.015625)"/>
     <path id="NotoSansSC-Thin-592e" d="M 378 2246 
L 6029 2246 
L 6029 2061 
L 378 2061 
L 378 2246 
z
M 1120 4365 
L 5344 4365 
L 5344 2138 
L 5158 2138 
L 5158 4179 
L 1306 4179 
L 1306 2138 
L 1120 2138 
L 1120 4365 
z
M 3386 2195 
Q 3686 1210 4387 576 
Q 5088 -58 6150 -301 
Q 6131 -320 6105 -349 
Q 6080 -378 6061 -406 
Q 6042 -435 6022 -461 
Q 5318 -282 4764 70 
Q 4211 422 3824 944 
Q 3437 1466 3226 2144 
L 3386 2195 
z
M 3072 5318 
L 3264 5318 
L 3264 3322 
Q 3264 2886 3213 2460 
Q 3162 2035 3005 1628 
Q 2848 1222 2541 848 
Q 2234 474 1728 141 
Q 1222 -192 461 -474 
Q 454 -448 435 -422 
Q 416 -397 393 -368 
Q 371 -339 346 -320 
Q 1088 -45 1581 275 
Q 2074 595 2374 953 
Q 2675 1312 2825 1702 
Q 2976 2093 3024 2499 
Q 3072 2906 3072 3322 
L 3072 5318 
z
" transform="scale(0.015625)"/>
     <path id="NotoSansSC-Thin-884c" d="M 2714 4909 
L 5875 4909 
L 5875 4717 
L 2714 4717 
L 2714 4909 
z
M 4832 3085 
L 5018 3085 
L 5018 -109 
Q 5018 -250 4966 -314 
Q 4915 -378 4806 -410 
Q 4685 -429 4419 -432 
Q 4154 -435 3642 -435 
Q 3635 -403 3612 -358 
Q 3590 -314 3558 -269 
Q 3834 -275 4061 -278 
Q 4288 -282 4445 -278 
Q 4602 -275 4659 -269 
Q 4755 -262 4793 -230 
Q 4832 -198 4832 -115 
L 4832 3085 
z
M 2426 3149 
L 6074 3149 
L 6074 2963 
L 2426 2963 
L 2426 3149 
z
M 1306 2912 
L 1478 3078 
L 1491 3066 
L 1491 -480 
L 1306 -480 
L 1306 2912 
z
M 2061 3974 
L 2240 3910 
Q 1997 3526 1686 3152 
Q 1376 2778 1040 2451 
Q 704 2125 371 1862 
Q 358 1882 329 1907 
Q 301 1933 272 1961 
Q 243 1990 218 2003 
Q 557 2246 893 2563 
Q 1229 2880 1529 3241 
Q 1830 3603 2061 3974 
z
M 1786 5325 
L 1971 5248 
Q 1779 4992 1516 4723 
Q 1254 4454 969 4204 
Q 685 3955 416 3757 
Q 403 3776 377 3801 
Q 352 3827 326 3856 
Q 301 3885 282 3898 
Q 550 4090 832 4330 
Q 1114 4570 1363 4829 
Q 1613 5088 1786 5325 
z
" transform="scale(0.015625)"/>
    </defs>
    <use xlink:href="#NotoSansSC-Thin-32"/>
    <use xlink:href="#NotoSansSC-Thin-30" transform="translate(52.099991 0)"/>
    <use xlink:href="#NotoSansSC-Thin-32" transform="translate(104.199982 0)"/>
    <use xlink:href="#NotoSansSC-Thin-36" transform="translate(156.299973 0)"/>
    <use xlink:href="#NotoSansSC-Thin-20" transform="translate(208.399963 0)"/>
    <use xlink:href="#NotoSansSC-Thin-51" transform="translate(230.399948 0)"/>
    <use xlink:href="#NotoSansSC-Thin-31" transform="translate(301.799942 0)"/>
    <use xlink:href="#NotoSansSC-Thin-20" transform="translate(353.899933 0)"/>
    <use xlink:href="#NotoSansSC-Thin-5404" transform="translate(375.899918 0)"/>
    <use xlink:href="#NotoSansSC-Thin-56fd" transform="translate(475.899902 0)"/>
    <use xlink:href="#NotoSansSC-Thin-592e" transform="translate(575.899887 0)"/>
    <use xlink:href="#NotoSansSC-Thin-884c" transform="translate(675.899872 0)"/>
    <use xlink:href="#NotoSansSC-Thin-8d2d" transform="translate(775.899857 0)"/>
    <use xlink:href="#NotoSansSC-Thin-91d1" transform="translate(875.899841 0)"/>
    <use xlink:href="#NotoSansSC-Thin-91cf" transform="translate(975.899826 0)"/>
   </g>
  </g>
  <g id="text_25">
   <!-- 中国央行领跑全球 · 单位: 吨 -->
   <g style="fill: #64748b" transform="translate(41.3 43.409) scale(0.09 -0.09)">
    <defs>
     <path id="NotoSansSC-Thin-9886" d="M 3283 4915 
L 6022 4915 
L 6022 4730 
L 3283 4730 
L 3283 4915 
z
M 4627 4845 
L 4819 4781 
Q 4736 4538 4643 4272 
Q 4550 4006 4461 3808 
L 4301 3872 
Q 4384 4070 4480 4352 
Q 4576 4634 4627 4845 
z
M 3469 3930 
L 5792 3930 
L 5792 902 
L 5600 902 
L 5600 3738 
L 3661 3738 
L 3661 902 
L 3469 902 
L 3469 3930 
z
M 4544 3366 
L 4730 3366 
Q 4723 2630 4688 2067 
Q 4653 1504 4553 1091 
Q 4454 678 4256 384 
Q 4058 90 3731 -112 
Q 3405 -314 2912 -461 
Q 2899 -429 2860 -387 
Q 2822 -346 2790 -320 
Q 3277 -186 3593 9 
Q 3910 205 4099 486 
Q 4288 768 4381 1165 
Q 4474 1562 4506 2106 
Q 4538 2650 4544 3366 
z
M 4704 691 
L 4826 800 
Q 5062 634 5315 435 
Q 5568 237 5789 48 
Q 6010 -141 6150 -288 
L 6035 -422 
Q 5888 -269 5667 -73 
Q 5446 122 5193 323 
Q 4941 525 4704 691 
z
M 1760 5312 
L 1946 5274 
Q 1709 4685 1331 4093 
Q 954 3501 461 3046 
Q 442 3059 413 3078 
Q 384 3098 358 3114 
Q 333 3130 307 3142 
Q 634 3430 912 3792 
Q 1190 4154 1408 4547 
Q 1626 4941 1760 5312 
z
M 826 1011 
L 954 1107 
Q 1210 902 1478 659 
Q 1747 416 1977 179 
Q 2208 -58 2349 -243 
L 2208 -365 
Q 2067 -179 1836 64 
Q 1606 307 1344 556 
Q 1082 806 826 1011 
z
M 634 2330 
L 2643 2330 
L 2643 2138 
L 634 2138 
L 634 2330 
z
M 1382 3578 
L 1530 3661 
Q 1715 3482 1884 3270 
Q 2054 3059 2138 2906 
L 1978 2803 
Q 1888 2970 1718 3187 
Q 1549 3405 1382 3578 
z
M 2579 2330 
L 2618 2330 
L 2656 2342 
L 2778 2266 
Q 2643 1952 2438 1587 
Q 2234 1222 2019 899 
Q 1805 576 1638 365 
Q 1613 397 1568 435 
Q 1523 474 1491 499 
Q 1613 640 1763 857 
Q 1914 1075 2070 1328 
Q 2227 1581 2361 1827 
Q 2496 2074 2579 2272 
L 2579 2330 
z
M 1619 4813 
L 1741 4928 
Q 1997 4691 2256 4406 
Q 2515 4122 2736 3856 
Q 2957 3590 3085 3386 
L 2963 3238 
Q 2829 3450 2608 3725 
Q 2387 4000 2128 4285 
Q 1869 4570 1619 4813 
z
" transform="scale(0.015625)"/>
     <path id="NotoSansSC-Thin-8dd1" d="M 838 4819 
L 838 3398 
L 2214 3398 
L 2214 4819 
L 838 4819 
z
M 646 5005 
L 2406 5005 
L 2406 3213 
L 646 3213 
L 646 5005 
z
M 1478 3341 
L 1670 3341 
L 1670 346 
L 1478 346 
L 1478 3341 
z
M 685 2458 
L 870 2458 
L 870 147 
L 685 147 
L 685 2458 
z
M 314 122 
Q 595 192 960 288 
Q 1325 384 1737 496 
Q 2150 608 2566 717 
L 2586 531 
Q 1990 371 1401 214 
Q 813 58 371 -70 
L 314 122 
z
M 1549 2106 
L 2458 2106 
L 2458 1920 
L 1549 1920 
L 1549 2106 
z
M 3283 4544 
L 5555 4544 
L 5555 4352 
L 3283 4352 
L 3283 4544 
z
M 5485 4544 
L 5670 4544 
Q 5670 4544 5670 4518 
Q 5670 4493 5670 4461 
Q 5670 4429 5670 4403 
Q 5664 3552 5657 2976 
Q 5651 2400 5635 2045 
Q 5619 1690 5590 1504 
Q 5562 1318 5510 1248 
Q 5459 1178 5385 1149 
Q 5312 1120 5197 1114 
Q 5094 1107 4921 1113 
Q 4749 1120 4563 1133 
Q 4563 1165 4550 1219 
Q 4538 1274 4506 1312 
Q 4730 1293 4912 1289 
Q 5094 1286 5165 1286 
Q 5229 1286 5273 1299 
Q 5318 1312 5344 1363 
Q 5382 1414 5408 1596 
Q 5434 1779 5450 2140 
Q 5466 2502 5472 3078 
Q 5478 3654 5485 4493 
L 5485 4544 
z
M 3482 5306 
L 3674 5267 
Q 3571 4877 3427 4505 
Q 3283 4134 3110 3804 
Q 2938 3475 2739 3219 
Q 2726 3238 2694 3260 
Q 2662 3283 2630 3305 
Q 2598 3328 2573 3341 
Q 2874 3706 3107 4227 
Q 3341 4749 3482 5306 
z
M 3040 3456 
L 3226 3456 
L 3226 154 
Q 3226 32 3264 -38 
Q 3302 -109 3414 -137 
Q 3526 -166 3744 -166 
Q 3808 -166 3971 -166 
Q 4134 -166 4352 -166 
Q 4570 -166 4790 -166 
Q 5011 -166 5193 -166 
Q 5376 -166 5459 -166 
Q 5632 -166 5718 -102 
Q 5805 -38 5840 144 
Q 5875 326 5888 672 
Q 5939 646 5990 620 
Q 6042 595 6086 582 
Q 6067 224 6016 19 
Q 5965 -186 5837 -269 
Q 5709 -352 5446 -352 
Q 5408 -352 5238 -352 
Q 5069 -352 4838 -352 
Q 4608 -352 4374 -352 
Q 4141 -352 3974 -352 
Q 3808 -352 3770 -352 
Q 3488 -352 3328 -310 
Q 3168 -269 3104 -160 
Q 3040 -51 3040 160 
L 3040 3456 
z
M 3085 3456 
L 4698 3456 
L 4698 1632 
L 3085 1632 
L 3085 1818 
L 4512 1818 
L 4512 3270 
L 3085 3270 
L 3085 3456 
z
" transform="scale(0.015625)"/>
     <path id="NotoSansSC-Thin-b7" d="M 3200 2976 
Q 3354 2976 3475 2902 
Q 3597 2829 3670 2707 
Q 3744 2586 3744 2432 
Q 3744 2285 3670 2160 
Q 3597 2035 3475 1961 
Q 3354 1888 3200 1888 
Q 3053 1888 2928 1961 
Q 2803 2035 2729 2160 
Q 2656 2285 2656 2432 
Q 2656 2586 2729 2707 
Q 2803 2829 2928 2902 
Q 3053 2976 3200 2976 
z
" transform="scale(0.015625)"/>
     <path id="NotoSansSC-Thin-5355" d="M 3085 4115 
L 3283 4115 
L 3283 -454 
L 3085 -454 
L 3085 4115 
z
M 1210 2893 
L 1210 1952 
L 5242 1952 
L 5242 2893 
L 1210 2893 
z
M 1210 4006 
L 1210 3078 
L 5242 3078 
L 5242 4006 
L 1210 4006 
z
M 1024 4198 
L 5434 4198 
L 5434 1766 
L 1024 1766 
L 1024 4198 
z
M 384 973 
L 6035 973 
L 6035 787 
L 384 787 
L 384 973 
z
M 1632 5203 
L 1786 5286 
Q 1990 5062 2195 4790 
Q 2400 4518 2496 4320 
L 2342 4218 
Q 2240 4416 2038 4697 
Q 1837 4979 1632 5203 
z
M 4710 5306 
L 4896 5216 
Q 4717 4922 4489 4595 
Q 4262 4269 4064 4038 
L 3923 4122 
Q 4051 4275 4198 4486 
Q 4346 4698 4483 4915 
Q 4621 5133 4710 5306 
z
" transform="scale(0.015625)"/>
     <path id="NotoSansSC-Thin-4f4d" d="M 2400 4064 
L 5792 4064 
L 5792 3878 
L 2400 3878 
L 2400 4064 
z
M 2867 3264 
L 3046 3302 
Q 3136 2950 3216 2560 
Q 3296 2170 3363 1786 
Q 3430 1402 3481 1069 
Q 3533 736 3558 486 
L 3360 429 
Q 3341 685 3293 1027 
Q 3245 1370 3177 1757 
Q 3110 2144 3030 2531 
Q 2950 2918 2867 3264 
z
M 5062 3379 
L 5267 3334 
Q 5197 2944 5110 2493 
Q 5024 2042 4925 1578 
Q 4826 1114 4723 688 
Q 4621 262 4525 -77 
L 4346 -19 
Q 4442 314 4544 742 
Q 4646 1171 4742 1638 
Q 4838 2106 4921 2557 
Q 5005 3008 5062 3379 
z
M 2086 13 
L 6099 13 
L 6099 -173 
L 2086 -173 
L 2086 13 
z
M 3757 5254 
L 3930 5312 
Q 4019 5069 4115 4784 
Q 4211 4499 4256 4294 
L 4070 4230 
Q 4026 4435 3939 4723 
Q 3853 5011 3757 5254 
z
M 2010 5293 
L 2189 5242 
Q 1978 4704 1699 4192 
Q 1421 3680 1097 3235 
Q 774 2790 429 2438 
Q 416 2458 390 2486 
Q 365 2515 339 2547 
Q 314 2579 288 2592 
Q 634 2925 950 3357 
Q 1267 3789 1539 4285 
Q 1811 4781 2010 5293 
z
M 1293 3763 
L 1472 3942 
L 1478 3936 
L 1478 -435 
L 1293 -435 
L 1293 3763 
z
" transform="scale(0.015625)"/>
     <path id="NotoSansSC-Thin-3a" d="M 736 2656 
Q 640 2656 560 2726 
Q 480 2797 480 2931 
Q 480 3072 560 3145 
Q 640 3219 736 3219 
Q 838 3219 918 3145 
Q 998 3072 998 2931 
Q 998 2797 918 2726 
Q 838 2656 736 2656 
z
M 736 -83 
Q 640 -83 560 -9 
Q 480 64 480 192 
Q 480 333 560 406 
Q 640 480 736 480 
Q 838 480 918 406 
Q 998 333 998 192 
Q 998 64 918 -9 
Q 838 -83 736 -83 
z
" transform="scale(0.015625)"/>
    </defs>
    <use xlink:href="#NotoSansSC-Thin-4e2d"/>
    <use xlink:href="#NotoSansSC-Thin-56fd" transform="translate(99.999985 0)"/>
    <use xlink:href="#NotoSansSC-Thin-592e" transform="translate(199.999969 0)"/>
    <use xlink:href="#NotoSansSC-Thin-884c" transform="translate(299.999954 0)"/>
    <use xlink:href="#NotoSansSC-Thin-9886" transform="translate(399.999939 0)"/>
    <use xlink:href="#NotoSansSC-Thin-8dd1" transform="translate(499.999924 0)"/>
    <use xlink:href="#NotoSansSC-Thin-5168" transform="translate(599.999908 0)"/>
    <use xlink:href="#NotoSansSC-Thin-7403" transform="translate(699.999893 0)"/>
    <use xlink:href="#NotoSansSC-Thin-20" transform="translate(799.999878 0)"/>
    <use xlink:href="#NotoSansSC-Thin-b7" transform="translate(821.999863 0)"/>
    <use xlink:href="#NotoSansSC-Thin-20" transform="translate(921.999847 0)"/>
    <use xlink:href="#NotoSansSC-Thin-5355" transform="translate(943.999832 0)"/>
    <use xlink:href="#NotoSansSC-Thin-4f4d" transform="translate(1043.999817 0)"/>
    <use xlink:href="#NotoSansSC-Thin-3a" transform="translate(1143.999802 0)"/>
    <use xlink:href="#NotoSansSC-Thin-20" transform="translate(1167.099792 0)"/>
    <use xlink:href="#NotoSansSC-Thin-5428" transform="translate(1189.099777 0)"/>
   </g>
  </g>
  <g id="text_26">
   <!-- 来源: World Gold Council · 2026 Q1 -->
   <g style="fill: #94a3b8" transform="translate(41.3 268.611141) scale(0.065 -0.065)">
    <defs>
     <path id="NotoSansSC-Thin-6765" d="M 397 2432 
L 6016 2432 
L 6016 2246 
L 397 2246 
L 397 2432 
z
M 704 4467 
L 5734 4467 
L 5734 4282 
L 704 4282 
L 704 4467 
z
M 3091 5306 
L 3283 5306 
L 3283 -448 
L 3091 -448 
L 3091 5306 
z
M 4979 4026 
L 5171 3949 
Q 5062 3725 4928 3475 
Q 4794 3226 4656 2995 
Q 4518 2765 4390 2586 
L 4237 2656 
Q 4365 2835 4502 3078 
Q 4640 3322 4768 3574 
Q 4896 3827 4979 4026 
z
M 1312 3923 
L 1478 3981 
Q 1619 3782 1753 3548 
Q 1888 3315 1993 3094 
Q 2099 2874 2144 2701 
L 1971 2624 
Q 1920 2797 1817 3024 
Q 1715 3251 1584 3488 
Q 1453 3725 1312 3923 
z
M 2963 2374 
L 3123 2298 
Q 2893 1926 2579 1571 
Q 2266 1216 1901 896 
Q 1536 576 1161 317 
Q 787 58 429 -115 
Q 416 -90 390 -64 
Q 365 -38 339 -12 
Q 314 13 288 32 
Q 646 192 1024 445 
Q 1402 698 1763 1011 
Q 2125 1325 2435 1673 
Q 2746 2022 2963 2374 
z
M 3411 2381 
Q 3635 2029 3952 1677 
Q 4269 1325 4637 1005 
Q 5005 685 5389 432 
Q 5773 179 6138 13 
Q 6118 -6 6092 -35 
Q 6067 -64 6041 -89 
Q 6016 -115 5997 -141 
Q 5638 32 5254 297 
Q 4870 563 4499 889 
Q 4128 1216 3808 1577 
Q 3488 1939 3258 2304 
L 3411 2381 
z
" transform="scale(0.015625)"/>
     <path id="NotoSansSC-Thin-6e90" d="M 2304 5024 
L 6035 5024 
L 6035 4838 
L 2304 4838 
L 2304 5024 
z
M 2214 5024 
L 2406 5024 
L 2406 3283 
Q 2406 2874 2377 2400 
Q 2349 1926 2262 1436 
Q 2176 947 2006 476 
Q 1837 6 1555 -397 
Q 1542 -378 1513 -358 
Q 1485 -339 1456 -320 
Q 1427 -301 1402 -294 
Q 1677 102 1840 560 
Q 2003 1018 2083 1491 
Q 2163 1965 2188 2422 
Q 2214 2880 2214 3283 
L 2214 5024 
z
M 3110 2765 
L 3110 1990 
L 5542 1990 
L 5542 2765 
L 3110 2765 
z
M 3110 3718 
L 3110 2957 
L 5542 2957 
L 5542 3718 
L 3110 3718 
z
M 2925 3910 
L 5728 3910 
L 5728 1798 
L 2925 1798 
L 2925 3910 
z
M 3270 1338 
L 3456 1286 
Q 3341 1050 3193 810 
Q 3046 570 2886 355 
Q 2726 141 2566 -26 
Q 2554 -6 2522 13 
Q 2490 32 2458 57 
Q 2426 83 2400 96 
Q 2650 339 2880 665 
Q 3110 992 3270 1338 
z
M 5075 1293 
L 5242 1363 
Q 5395 1165 5555 937 
Q 5715 710 5856 499 
Q 5997 288 6086 134 
L 5907 38 
Q 5824 198 5683 412 
Q 5542 627 5385 860 
Q 5229 1094 5075 1293 
z
M 4218 4634 
L 4410 4570 
Q 4346 4365 4272 4144 
Q 4198 3923 4128 3770 
L 3981 3827 
Q 4038 3994 4108 4227 
Q 4179 4461 4218 4634 
z
M 4211 1939 
L 4397 1939 
L 4397 -173 
Q 4397 -282 4361 -336 
Q 4326 -390 4237 -416 
Q 4141 -442 3939 -448 
Q 3738 -454 3398 -448 
Q 3392 -416 3373 -368 
Q 3354 -320 3328 -275 
Q 3616 -282 3824 -282 
Q 4032 -282 4096 -282 
Q 4211 -275 4211 -173 
L 4211 1939 
z
M 627 5101 
L 749 5222 
Q 934 5107 1139 4972 
Q 1344 4838 1526 4707 
Q 1709 4576 1830 4480 
L 1715 4326 
Q 1594 4429 1408 4563 
Q 1222 4698 1017 4842 
Q 813 4986 627 5101 
z
M 307 3379 
L 422 3507 
Q 614 3405 822 3280 
Q 1030 3155 1219 3036 
Q 1408 2918 1536 2822 
L 1427 2669 
Q 1299 2765 1110 2889 
Q 922 3014 710 3145 
Q 499 3277 307 3379 
z
M 493 -224 
Q 646 26 832 374 
Q 1018 723 1203 1110 
Q 1389 1498 1542 1843 
L 1690 1728 
Q 1549 1395 1369 1020 
Q 1190 646 1004 288 
Q 819 -70 653 -352 
L 493 -224 
z
" transform="scale(0.015625)"/>
     <path id="NotoSansSC-Thin-57" d="M 1286 0 
L 211 4646 
L 461 4646 
L 1075 1843 
Q 1165 1466 1248 1085 
Q 1331 704 1414 320 
L 1440 320 
Q 1530 704 1622 1085 
Q 1715 1466 1811 1843 
L 2560 4646 
L 2829 4646 
L 3584 1843 
Q 3680 1466 3773 1085 
Q 3866 704 3962 320 
L 3994 320 
Q 4077 704 4153 1085 
Q 4230 1466 4307 1843 
L 4928 4646 
L 5165 4646 
L 4102 0 
L 3853 0 
L 2963 3315 
Q 2899 3597 2838 3840 
Q 2778 4083 2707 4358 
L 2682 4358 
Q 2618 4083 2547 3840 
Q 2477 3597 2413 3315 
L 1536 0 
L 1286 0 
z
" transform="scale(0.015625)"/>
     <path id="NotoSansSC-Thin-6f" d="M 1875 -83 
Q 1472 -83 1129 125 
Q 787 333 582 726 
Q 378 1120 378 1677 
Q 378 2246 582 2643 
Q 787 3040 1129 3248 
Q 1472 3456 1875 3456 
Q 2176 3456 2448 3337 
Q 2720 3219 2928 2992 
Q 3136 2765 3254 2432 
Q 3373 2099 3373 1677 
Q 3373 1120 3165 726 
Q 2957 333 2617 125 
Q 2278 -83 1875 -83 
z
M 1875 128 
Q 2234 128 2518 323 
Q 2803 518 2969 867 
Q 3136 1216 3136 1677 
Q 3136 2144 2969 2496 
Q 2803 2848 2518 3046 
Q 2234 3245 1875 3245 
Q 1517 3245 1232 3046 
Q 947 2848 784 2496 
Q 621 2144 621 1677 
Q 621 1216 784 867 
Q 947 518 1232 323 
Q 1517 128 1875 128 
z
" transform="scale(0.015625)"/>
     <path id="NotoSansSC-Thin-72" d="M 672 0 
L 672 3373 
L 864 3373 
L 902 2739 
L 915 2739 
Q 1082 3046 1325 3251 
Q 1568 3456 1869 3456 
Q 1958 3456 2035 3443 
Q 2112 3430 2195 3386 
L 2138 3174 
Q 2054 3206 1996 3219 
Q 1939 3232 1837 3232 
Q 1613 3232 1357 3030 
Q 1101 2829 902 2330 
L 902 0 
L 672 0 
z
" transform="scale(0.015625)"/>
     <path id="NotoSansSC-Thin-6c" d="M 1018 -83 
Q 909 -83 832 -35 
Q 755 13 713 115 
Q 672 218 672 378 
L 672 5082 
L 902 5082 
L 902 339 
Q 902 237 940 182 
Q 979 128 1043 128 
Q 1062 128 1088 131 
Q 1114 134 1165 141 
L 1210 -58 
Q 1165 -64 1126 -73 
Q 1088 -83 1018 -83 
z
" transform="scale(0.015625)"/>
     <path id="NotoSansSC-Thin-64" d="M 1773 -83 
Q 1350 -83 1036 118 
Q 723 320 550 713 
Q 378 1107 378 1677 
Q 378 2221 586 2621 
Q 794 3021 1136 3238 
Q 1478 3456 1888 3456 
Q 2195 3456 2432 3347 
Q 2669 3238 2925 3034 
L 2906 3667 
L 2906 5082 
L 3136 5082 
L 3136 0 
L 2944 0 
L 2912 448 
L 2899 448 
Q 2688 237 2406 77 
Q 2125 -83 1773 -83 
z
M 1792 128 
Q 2086 128 2358 281 
Q 2630 435 2906 710 
L 2906 2784 
Q 2630 3034 2384 3139 
Q 2138 3245 1875 3245 
Q 1523 3245 1238 3033 
Q 954 2822 787 2467 
Q 621 2112 621 1677 
Q 621 1216 758 867 
Q 896 518 1158 323 
Q 1421 128 1792 128 
z
" transform="scale(0.015625)"/>
     <path id="NotoSansSC-Thin-47" d="M 2355 -83 
Q 1766 -83 1324 217 
Q 883 518 640 1062 
Q 397 1606 397 2336 
Q 397 2886 541 3328 
Q 685 3770 953 4083 
Q 1222 4397 1593 4563 
Q 1965 4730 2426 4730 
Q 2893 4730 3190 4550 
Q 3488 4371 3667 4179 
L 3520 4019 
Q 3341 4218 3078 4362 
Q 2816 4506 2426 4506 
Q 1875 4506 1475 4240 
Q 1075 3974 860 3488 
Q 646 3002 646 2336 
Q 646 1670 854 1177 
Q 1062 685 1449 413 
Q 1837 141 2374 141 
Q 2707 141 3001 240 
Q 3296 339 3469 512 
L 3469 2035 
L 2323 2035 
L 2323 2246 
L 3718 2246 
L 3718 435 
Q 3501 205 3155 61 
Q 2810 -83 2355 -83 
z
" transform="scale(0.015625)"/>
     <path id="NotoSansSC-Thin-43" d="M 2317 -83 
Q 1888 -83 1536 86 
Q 1184 256 928 576 
Q 672 896 534 1341 
Q 397 1786 397 2336 
Q 397 2886 537 3328 
Q 678 3770 934 4083 
Q 1190 4397 1552 4563 
Q 1914 4730 2355 4730 
Q 2758 4730 3059 4560 
Q 3360 4390 3539 4179 
L 3392 4019 
Q 3206 4237 2944 4371 
Q 2682 4506 2355 4506 
Q 1824 4506 1440 4240 
Q 1056 3974 851 3488 
Q 646 3002 646 2336 
Q 646 1670 851 1177 
Q 1056 685 1433 413 
Q 1811 141 2330 141 
Q 2694 141 2982 288 
Q 3270 435 3533 730 
L 3680 576 
Q 3418 269 3094 93 
Q 2771 -83 2317 -83 
z
" transform="scale(0.015625)"/>
     <path id="NotoSansSC-Thin-75" d="M 1632 -83 
Q 1114 -83 864 230 
Q 614 544 614 1203 
L 614 3373 
L 845 3373 
L 845 1229 
Q 845 672 1033 400 
Q 1222 128 1651 128 
Q 1965 128 2224 304 
Q 2483 480 2797 851 
L 2797 3373 
L 3027 3373 
L 3027 0 
L 2829 0 
L 2803 576 
L 2790 576 
Q 2534 282 2259 99 
Q 1984 -83 1632 -83 
z
" transform="scale(0.015625)"/>
     <path id="NotoSansSC-Thin-6e" d="M 672 0 
L 672 3373 
L 864 3373 
L 902 2835 
L 915 2835 
Q 1178 3098 1453 3277 
Q 1728 3456 2080 3456 
Q 2598 3456 2848 3139 
Q 3098 2822 3098 2170 
L 3098 0 
L 2867 0 
L 2867 2138 
Q 2867 2694 2678 2969 
Q 2490 3245 2054 3245 
Q 1741 3245 1481 3078 
Q 1222 2912 902 2579 
L 902 0 
L 672 0 
z
" transform="scale(0.015625)"/>
     <path id="NotoSansSC-Thin-63" d="M 1888 -83 
Q 1459 -83 1116 125 
Q 774 333 576 726 
Q 378 1120 378 1677 
Q 378 2246 589 2643 
Q 800 3040 1145 3248 
Q 1491 3456 1894 3456 
Q 2240 3456 2477 3325 
Q 2714 3194 2880 3034 
L 2733 2867 
Q 2566 3027 2361 3136 
Q 2157 3245 1894 3245 
Q 1536 3245 1248 3046 
Q 960 2848 790 2496 
Q 621 2144 621 1677 
Q 621 1216 781 867 
Q 941 518 1225 323 
Q 1510 128 1894 128 
Q 2176 128 2413 246 
Q 2650 365 2829 531 
L 2963 365 
Q 2752 179 2483 48 
Q 2214 -83 1888 -83 
z
" transform="scale(0.015625)"/>
     <path id="NotoSansSC-Thin-69" d="M 672 0 
L 672 3373 
L 902 3373 
L 902 0 
L 672 0 
z
M 794 4224 
Q 691 4224 627 4294 
Q 563 4365 563 4486 
Q 563 4595 627 4662 
Q 691 4730 794 4730 
Q 890 4730 957 4662 
Q 1024 4595 1024 4486 
Q 1024 4365 957 4294 
Q 890 4224 794 4224 
z
" transform="scale(0.015625)"/>
    </defs>
    <use xlink:href="#NotoSansSC-Thin-6765"/>
    <use xlink:href="#NotoSansSC-Thin-6e90" transform="translate(99.999985 0)"/>
    <use xlink:href="#NotoSansSC-Thin-3a" transform="translate(199.999969 0)"/>
    <use xlink:href="#NotoSansSC-Thin-20" transform="translate(223.09996 0)"/>
    <use xlink:href="#NotoSansSC-Thin-57" transform="translate(245.099945 0)"/>
    <use xlink:href="#NotoSansSC-Thin-6f" transform="translate(329.299927 0)"/>
    <use xlink:href="#NotoSansSC-Thin-72" transform="translate(387.899918 0)"/>
    <use xlink:href="#NotoSansSC-Thin-6c" transform="translate(421.799911 0)"/>
    <use xlink:href="#NotoSansSC-Thin-64" transform="translate(447.199905 0)"/>
    <use xlink:href="#NotoSansSC-Thin-20" transform="translate(506.69989 0)"/>
    <use xlink:href="#NotoSansSC-Thin-47" transform="translate(528.699875 0)"/>
    <use xlink:href="#NotoSansSC-Thin-6f" transform="translate(594.799866 0)"/>
    <use xlink:href="#NotoSansSC-Thin-6c" transform="translate(653.399857 0)"/>
    <use xlink:href="#NotoSansSC-Thin-64" transform="translate(678.79985 0)"/>
    <use xlink:href="#NotoSansSC-Thin-20" transform="translate(738.299835 0)"/>
    <use xlink:href="#NotoSansSC-Thin-43" transform="translate(760.29982 0)"/>
    <use xlink:href="#NotoSansSC-Thin-6f" transform="translate(822.199814 0)"/>
    <use xlink:href="#NotoSansSC-Thin-75" transform="translate(880.799805 0)"/>
    <use xlink:href="#NotoSansSC-Thin-6e" transform="translate(938.499802 0)"/>
    <use xlink:href="#NotoSansSC-Thin-63" transform="translate(996.499786 0)"/>
    <use xlink:href="#NotoSansSC-Thin-69" transform="translate(1045.699783 0)"/>
    <use xlink:href="#NotoSansSC-Thin-6c" transform="translate(1070.199768 0)"/>
    <use xlink:href="#NotoSansSC-Thin-20" transform="translate(1095.599762 0)"/>
    <use xlink:href="#NotoSansSC-Thin-b7" transform="translate(1117.599747 0)"/>
    <use xlink:href="#NotoSansSC-Thin-20" transform="translate(1217.599731 0)"/>
    <use xlink:href="#NotoSansSC-Thin-32" transform="translate(1239.599716 0)"/>
    <use xlink:href="#NotoSansSC-Thin-30" transform="translate(1291.699707 0)"/>
    <use xlink:href="#NotoSansSC-Thin-32" transform="translate(1343.799698 0)"/>
    <use xlink:href="#NotoSansSC-Thin-36" transform="translate(1395.899689 0)"/>
    <use xlink:href="#NotoSansSC-Thin-20" transform="translate(1447.99968 0)"/>
    <use xlink:href="#NotoSansSC-Thin-51" transform="translate(1469.999664 0)"/>
    <use xlink:href="#NotoSansSC-Thin-31" transform="translate(1541.399658 0)"/>
   </g>
  </g>
 </g>
 <defs>
  <clipPath id="pd03c6c8649">
   <rect x="41.3" y="80.038437" width="314.82" height="175.104"/>
  </clipPath>
 </defs>
</svg>
