<?xml version="1.0" encoding="utf-8" standalone="no"?>
<!DOCTYPE svg PUBLIC "-//W3C//DTD SVG 1.1//EN"
  "http://www.w3.org/Graphics/SVG/1.1/DTD/svg11.dtd">
<svg xmlns:xlink="http://www.w3.org/1999/xlink" width="352.450781pt" height="202.186895pt" viewBox="0 0 352.450781 202.186895" xmlns="http://www.w3.org/2000/svg" version="1.1">
 <metadata>
  <rdf:RDF xmlns:dc="http://purl.org/dc/elements/1.1/" xmlns:cc="http://creativecommons.org/ns#" xmlns:rdf="http://www.w3.org/1999/02/22-rdf-syntax-ns#">
   <cc:Work>
    <dc:type rdf:resource="http://purl.org/dc/dcmitype/StillImage"/>
    <dc:date>2026-06-02T14:51:10.582460</dc:date>
    <dc:format>image/svg+xml</dc:format>
    <dc:creator>
     <cc:Agent>
      <dc:title>Matplotlib v3.10.9, https://matplotlib.org/</dc:title>
     </cc:Agent>
    </dc:creator>
   </cc:Work>
  </rdf:RDF>
 </metadata>
 <defs>
  <style type="text/css">*{stroke-linejoin: round; stroke-linecap: butt}</style>
 </defs>
 <g id="figure_1">
  <g id="patch_1">
   <path d="M 0 202.186895 
L 352.450781 202.186895 
L 352.450781 0 
L 0 0 
z
" style="fill: #f5f7fa"/>
  </g>
  <g id="axes_1">
   <g id="patch_2">
    <path d="M 38.460781 162.795213 
L 345.250781 162.795213 
L 345.250781 30.042813 
L 38.460781 30.042813 
z
" style="fill: #f5f7fa"/>
   </g>
   <g id="patch_3">
    <path d="M 52.405781 121.310088 
L 71.863921 121.310088 
L 71.863921 54.519036 
L 52.405781 54.519036 
z
" clip-path="url(#pd035db7d3b)" style="fill: #10b981; stroke: #ffffff; stroke-width: 0.8; stroke-linejoin: miter"/>
   </g>
   <g id="patch_4">
    <path d="M 84.836014 121.310088 
L 104.294153 121.310088 
L 104.294153 77.750706 
L 84.836014 77.750706 
z
" clip-path="url(#pd035db7d3b)" style="fill: #10b981; stroke: #ffffff; stroke-width: 0.8; stroke-linejoin: miter"/>
   </g>
   <g id="patch_5">
    <path d="M 117.266246 121.310088 
L 136.724386 121.310088 
L 136.724386 95.174459 
L 117.266246 95.174459 
z
" clip-path="url(#pd035db7d3b)" style="fill: #10b981; stroke: #ffffff; stroke-width: 0.8; stroke-linejoin: miter"/>
   </g>
   <g id="patch_6">
    <path d="M 149.696479 121.310088 
L 169.154618 121.310088 
L 169.154618 77.750706 
L 149.696479 77.750706 
z
" clip-path="url(#pd035db7d3b)" style="fill: #10b981; stroke: #ffffff; stroke-width: 0.8; stroke-linejoin: miter"/>
   </g>
   <g id="patch_7">
    <path d="M 182.126711 121.310088 
L 201.584851 121.310088 
L 201.584851 93.929905 
L 182.126711 93.929905 
z
" clip-path="url(#pd035db7d3b)" style="fill: #10b981; stroke: #ffffff; stroke-width: 0.8; stroke-linejoin: miter"/>
   </g>
   <g id="patch_8">
    <path d="M 214.556944 121.310088 
L 234.015084 121.310088 
L 234.015084 89.781393 
L 214.556944 89.781393 
z
" clip-path="url(#pd035db7d3b)" style="fill: #10b981; stroke: #ffffff; stroke-width: 0.8; stroke-linejoin: miter"/>
   </g>
   <g id="patch_9">
    <path d="M 246.987177 121.310088 
L 266.445316 121.310088 
L 266.445316 126.288303 
L 246.987177 126.288303 
z
" clip-path="url(#pd035db7d3b)" style="fill: #ef4444; stroke: #ffffff; stroke-width: 0.8; stroke-linejoin: miter"/>
   </g>
   <g id="patch_10">
    <path d="M 279.417409 121.310088 
L 298.875549 121.310088 
L 298.875549 144.541758 
L 279.417409 144.541758 
z
" clip-path="url(#pd035db7d3b)" style="fill: #ef4444; stroke: #ffffff; stroke-width: 0.8; stroke-linejoin: miter"/>
   </g>
   <g id="patch_11">
    <path d="M 311.847642 121.310088 
L 331.305781 121.310088 
L 331.305781 140.808096 
L 311.847642 140.808096 
z
" clip-path="url(#pd035db7d3b)" style="fill: #ef4444; stroke: #ffffff; stroke-width: 0.8; stroke-linejoin: miter"/>
   </g>
   <g id="matplotlib.axis_1">
    <g id="xtick_1">
     <g id="line2d_1">
      <defs>
       <path id="me0cabfa4d4" d="M 0 0 
L 0 3.5 
" style="stroke: #64748b; stroke-width: 0.8"/>
      </defs>
      <g>
       <use xlink:href="#me0cabfa4d4" x="62.134851" y="162.795213" style="fill: #64748b; stroke: #64748b; stroke-width: 0.8"/>
      </g>
     </g>
     <g id="text_1">
      <!-- ARM -->
      <g style="fill: #64748b" transform="translate(46.937703 181.053951) rotate(-20) scale(0.08 -0.08)">
       <defs>
        <path id="NotoSansSC-Thin-41" d="M 70 0 
L 1728 4646 
L 1939 4646 
L 3603 0 
L 3347 0 
L 2381 2784 
Q 2234 3206 2106 3587 
Q 1978 3968 1850 4403 
L 1824 4403 
Q 1696 3968 1565 3587 
Q 1434 3206 1286 2784 
L 307 0 
L 70 0 
z
M 787 1651 
L 787 1856 
L 2861 1856 
L 2861 1651 
L 787 1651 
z
" transform="scale(0.015625)"/>
        <path id="NotoSansSC-Thin-52" d="M 704 0 
L 704 4646 
L 1990 4646 
Q 2451 4646 2787 4524 
Q 3123 4403 3305 4140 
Q 3488 3878 3488 3450 
Q 3488 3040 3305 2758 
Q 3123 2477 2787 2333 
Q 2451 2189 1990 2189 
L 941 2189 
L 941 0 
L 704 0 
z
M 941 2394 
L 1907 2394 
Q 2547 2394 2889 2653 
Q 3232 2912 3232 3450 
Q 3232 3994 2889 4214 
Q 2547 4435 1907 4435 
L 941 4435 
L 941 2394 
z
M 3283 0 
L 1926 2259 
L 2195 2285 
L 3558 0 
L 3283 0 
z
" transform="scale(0.015625)"/>
        <path id="NotoSansSC-Thin-4d" d="M 704 0 
L 704 4646 
L 1082 4646 
L 2074 1843 
Q 2170 1587 2266 1321 
Q 2362 1056 2458 794 
L 2483 794 
Q 2579 1056 2668 1321 
Q 2758 1587 2848 1843 
L 3846 4646 
L 4224 4646 
L 4224 0 
L 3987 0 
L 3987 3213 
Q 3987 3398 3990 3606 
Q 3994 3814 4000 4028 
Q 4006 4243 4013 4429 
L 3987 4429 
L 3629 3405 
L 2586 518 
L 2336 518 
L 1286 3405 
L 922 4429 
L 896 4429 
Q 909 4243 915 4028 
Q 922 3814 925 3606 
Q 928 3398 928 3213 
L 928 0 
L 704 0 
z
" transform="scale(0.015625)"/>
       </defs>
       <use xlink:href="#NotoSansSC-Thin-41"/>
       <use xlink:href="#NotoSansSC-Thin-52" transform="translate(57.399994 0)"/>
       <use xlink:href="#NotoSansSC-Thin-4d" transform="translate(116.299988 0)"/>
      </g>
     </g>
    </g>
    <g id="xtick_2">
     <g id="line2d_2">
      <g>
       <use xlink:href="#me0cabfa4d4" x="94.565084" y="162.795213" style="fill: #64748b; stroke: #64748b; stroke-width: 0.8"/>
      </g>
     </g>
     <g id="text_2">
      <!-- Cadence -->
      <g style="fill: #64748b" transform="translate(64.761588 186.370227) rotate(-20) scale(0.08 -0.08)">
       <defs>
        <path id="NotoSansSC-Thin-43" d="M 2317 -83 
Q 1888 -83 1536 86 
Q 1184 256 928 576 
Q 672 896 534 1341 
Q 397 1786 397 2336 
Q 397 2886 537 3328 
Q 678 3770 934 4083 
Q 1190 4397 1552 4563 
Q 1914 4730 2355 4730 
Q 2758 4730 3059 4560 
Q 3360 4390 3539 4179 
L 3392 4019 
Q 3206 4237 2944 4371 
Q 2682 4506 2355 4506 
Q 1824 4506 1440 4240 
Q 1056 3974 851 3488 
Q 646 3002 646 2336 
Q 646 1670 851 1177 
Q 1056 685 1433 413 
Q 1811 141 2330 141 
Q 2694 141 2982 288 
Q 3270 435 3533 730 
L 3680 576 
Q 3418 269 3094 93 
Q 2771 -83 2317 -83 
z
" transform="scale(0.015625)"/>
        <path id="NotoSansSC-Thin-61" d="M 1395 -83 
Q 1133 -83 912 13 
Q 691 109 556 310 
Q 422 512 422 832 
Q 422 1395 953 1686 
Q 1485 1978 2624 2106 
Q 2637 2381 2576 2640 
Q 2515 2899 2336 3072 
Q 2157 3245 1805 3245 
Q 1446 3245 1158 3104 
Q 870 2963 704 2835 
L 589 3021 
Q 698 3098 880 3200 
Q 1062 3302 1302 3379 
Q 1542 3456 1818 3456 
Q 2214 3456 2441 3280 
Q 2669 3104 2761 2816 
Q 2854 2528 2854 2182 
L 2854 0 
L 2662 0 
L 2630 448 
L 2611 448 
Q 2355 237 2044 77 
Q 1734 -83 1395 -83 
z
M 1414 128 
Q 1715 128 2003 272 
Q 2291 416 2624 698 
L 2624 1907 
Q 1894 1830 1462 1686 
Q 1030 1542 844 1334 
Q 659 1126 659 838 
Q 659 448 883 288 
Q 1107 128 1414 128 
z
" transform="scale(0.015625)"/>
        <path id="NotoSansSC-Thin-64" d="M 1773 -83 
Q 1350 -83 1036 118 
Q 723 320 550 713 
Q 378 1107 378 1677 
Q 378 2221 586 2621 
Q 794 3021 1136 3238 
Q 1478 3456 1888 3456 
Q 2195 3456 2432 3347 
Q 2669 3238 2925 3034 
L 2906 3667 
L 2906 5082 
L 3136 5082 
L 3136 0 
L 2944 0 
L 2912 448 
L 2899 448 
Q 2688 237 2406 77 
Q 2125 -83 1773 -83 
z
M 1792 128 
Q 2086 128 2358 281 
Q 2630 435 2906 710 
L 2906 2784 
Q 2630 3034 2384 3139 
Q 2138 3245 1875 3245 
Q 1523 3245 1238 3033 
Q 954 2822 787 2467 
Q 621 2112 621 1677 
Q 621 1216 758 867 
Q 896 518 1158 323 
Q 1421 128 1792 128 
z
" transform="scale(0.015625)"/>
        <path id="NotoSansSC-Thin-65" d="M 1920 -83 
Q 1498 -83 1146 128 
Q 794 339 586 732 
Q 378 1126 378 1677 
Q 378 2093 496 2419 
Q 614 2746 822 2979 
Q 1030 3213 1289 3334 
Q 1549 3456 1830 3456 
Q 2221 3456 2505 3277 
Q 2790 3098 2947 2749 
Q 3104 2400 3104 1901 
Q 3104 1850 3104 1795 
Q 3104 1741 3091 1670 
L 621 1670 
Q 621 1229 784 880 
Q 947 531 1241 329 
Q 1536 128 1933 128 
Q 2221 128 2445 211 
Q 2669 294 2861 435 
L 2963 237 
Q 2771 122 2534 19 
Q 2298 -83 1920 -83 
z
M 621 1882 
L 2880 1882 
Q 2880 2566 2592 2905 
Q 2304 3245 1830 3245 
Q 1530 3245 1267 3081 
Q 1005 2918 832 2614 
Q 659 2310 621 1882 
z
" transform="scale(0.015625)"/>
        <path id="NotoSansSC-Thin-6e" d="M 672 0 
L 672 3373 
L 864 3373 
L 902 2835 
L 915 2835 
Q 1178 3098 1453 3277 
Q 1728 3456 2080 3456 
Q 2598 3456 2848 3139 
Q 3098 2822 3098 2170 
L 3098 0 
L 2867 0 
L 2867 2138 
Q 2867 2694 2678 2969 
Q 2490 3245 2054 3245 
Q 1741 3245 1481 3078 
Q 1222 2912 902 2579 
L 902 0 
L 672 0 
z
" transform="scale(0.015625)"/>
        <path id="NotoSansSC-Thin-63" d="M 1888 -83 
Q 1459 -83 1116 125 
Q 774 333 576 726 
Q 378 1120 378 1677 
Q 378 2246 589 2643 
Q 800 3040 1145 3248 
Q 1491 3456 1894 3456 
Q 2240 3456 2477 3325 
Q 2714 3194 2880 3034 
L 2733 2867 
Q 2566 3027 2361 3136 
Q 2157 3245 1894 3245 
Q 1536 3245 1248 3046 
Q 960 2848 790 2496 
Q 621 2144 621 1677 
Q 621 1216 781 867 
Q 941 518 1225 323 
Q 1510 128 1894 128 
Q 2176 128 2413 246 
Q 2650 365 2829 531 
L 2963 365 
Q 2752 179 2483 48 
Q 2214 -83 1888 -83 
z
" transform="scale(0.015625)"/>
       </defs>
       <use xlink:href="#NotoSansSC-Thin-43"/>
       <use xlink:href="#NotoSansSC-Thin-61" transform="translate(61.899994 0)"/>
       <use xlink:href="#NotoSansSC-Thin-64" transform="translate(115.499985 0)"/>
       <use xlink:href="#NotoSansSC-Thin-65" transform="translate(174.999969 0)"/>
       <use xlink:href="#NotoSansSC-Thin-6e" transform="translate(227.699966 0)"/>
       <use xlink:href="#NotoSansSC-Thin-63" transform="translate(285.699951 0)"/>
       <use xlink:href="#NotoSansSC-Thin-65" transform="translate(334.899948 0)"/>
      </g>
     </g>
    </g>
    <g id="xtick_3">
     <g id="line2d_3">
      <g>
       <use xlink:href="#me0cabfa4d4" x="126.995316" y="162.795213" style="fill: #64748b; stroke: #64748b; stroke-width: 0.8"/>
      </g>
     </g>
     <g id="text_3">
      <!-- NVIDIA -->
      <g style="fill: #64748b" transform="translate(103.95056 183.910247) rotate(-20) scale(0.08 -0.08)">
       <defs>
        <path id="NotoSansSC-Thin-4e" d="M 704 0 
L 704 4646 
L 954 4646 
L 3002 1261 
L 3533 346 
L 3565 346 
Q 3546 685 3536 1008 
Q 3526 1331 3526 1658 
L 3526 4646 
L 3757 4646 
L 3757 0 
L 3501 0 
L 1459 3386 
L 928 4301 
L 902 4301 
Q 915 3974 921 3667 
Q 928 3360 928 3027 
L 928 0 
L 704 0 
z
" transform="scale(0.015625)"/>
        <path id="NotoSansSC-Thin-56" d="M 1587 0 
L 45 4646 
L 294 4646 
L 1190 1869 
Q 1325 1440 1437 1085 
Q 1549 730 1696 301 
L 1722 301 
Q 1869 730 1981 1085 
Q 2093 1440 2234 1869 
L 3123 4646 
L 3366 4646 
L 1830 0 
L 1587 0 
z
" transform="scale(0.015625)"/>
        <path id="NotoSansSC-Thin-49" d="M 704 0 
L 704 4646 
L 941 4646 
L 941 0 
L 704 0 
z
" transform="scale(0.015625)"/>
        <path id="NotoSansSC-Thin-44" d="M 704 0 
L 704 4646 
L 1747 4646 
Q 2470 4646 2931 4358 
Q 3392 4070 3613 3552 
Q 3834 3034 3834 2336 
Q 3834 1645 3613 1117 
Q 3392 589 2931 294 
Q 2470 0 1754 0 
L 704 0 
z
M 941 211 
L 1715 211 
Q 2374 211 2787 486 
Q 3200 762 3392 1245 
Q 3584 1728 3584 2336 
Q 3584 2950 3392 3424 
Q 3200 3898 2787 4166 
Q 2374 4435 1715 4435 
L 941 4435 
L 941 211 
z
" transform="scale(0.015625)"/>
       </defs>
       <use xlink:href="#NotoSansSC-Thin-4e"/>
       <use xlink:href="#NotoSansSC-Thin-56" transform="translate(69.599991 0)"/>
       <use xlink:href="#NotoSansSC-Thin-49" transform="translate(122.799988 0)"/>
       <use xlink:href="#NotoSansSC-Thin-44" transform="translate(148.499985 0)"/>
       <use xlink:href="#NotoSansSC-Thin-49" transform="translate(214.599976 0)"/>
       <use xlink:href="#NotoSansSC-Thin-41" transform="translate(240.299973 0)"/>
      </g>
     </g>
    </g>
    <g id="xtick_4">
     <g id="line2d_4">
      <g>
       <use xlink:href="#me0cabfa4d4" x="159.425549" y="162.795213" style="fill: #64748b; stroke: #64748b; stroke-width: 0.8"/>
      </g>
     </g>
     <g id="text_4">
      <!-- 戴尔 -->
      <g style="fill: #64748b" transform="translate(143.725665 181.236932) rotate(-20) scale(0.08 -0.08)">
       <defs>
        <path id="NotoSansSC-Thin-6234" d="M 902 2554 
L 902 2093 
L 3418 2093 
L 3418 2554 
L 902 2554 
z
M 902 3194 
L 902 2739 
L 3418 2739 
L 3418 3194 
L 902 3194 
z
M 710 3379 
L 3616 3379 
L 3616 1901 
L 710 1901 
L 710 3379 
z
M 4026 5318 
L 4237 5318 
Q 4237 4314 4307 3456 
Q 4378 2598 4502 1916 
Q 4627 1235 4800 755 
Q 4973 275 5177 19 
Q 5382 -237 5613 -237 
Q 5741 -230 5798 -64 
Q 5856 102 5882 550 
Q 5914 525 5968 499 
Q 6022 474 6067 461 
Q 6042 134 5994 -64 
Q 5946 -262 5850 -348 
Q 5754 -435 5594 -435 
Q 5350 -435 5142 -236 
Q 4934 -38 4764 330 
Q 4595 698 4460 1216 
Q 4326 1734 4233 2374 
Q 4141 3014 4089 3756 
Q 4038 4499 4026 5318 
z
M 4435 5030 
L 4582 5158 
Q 4845 4998 5107 4774 
Q 5370 4550 5504 4365 
L 5350 4230 
Q 5222 4416 4960 4643 
Q 4698 4870 4435 5030 
z
M 2355 358 
L 2528 442 
Q 2714 288 2912 89 
Q 3110 -109 3213 -256 
L 3034 -346 
Q 2931 -198 2736 3 
Q 2541 205 2355 358 
z
M 1491 467 
L 1683 410 
Q 1504 166 1241 -83 
Q 979 -333 736 -506 
Q 723 -486 694 -460 
Q 666 -435 637 -406 
Q 608 -378 582 -365 
Q 832 -198 1078 22 
Q 1325 243 1491 467 
z
M 314 3974 
L 5875 3974 
L 5875 3789 
L 314 3789 
L 314 3974 
z
M 755 4710 
L 3610 4710 
L 3610 4525 
L 755 4525 
L 755 4710 
z
M 314 806 
L 3904 806 
L 3904 614 
L 314 614 
L 314 806 
z
M 576 1472 
L 3725 1472 
L 3725 1286 
L 576 1286 
L 576 1472 
z
M 2093 5325 
L 2278 5325 
L 2278 3885 
L 2093 3885 
L 2093 5325 
z
M 2080 3264 
L 2266 3264 
L 2266 1965 
L 2080 1965 
L 2080 3264 
z
M 1478 1978 
L 1670 1978 
L 1670 704 
L 1478 704 
L 1478 1978 
z
M 2656 1978 
L 2842 1978 
L 2842 704 
L 2656 704 
L 2656 1978 
z
M 5274 3232 
L 5472 3187 
Q 5363 2387 5148 1689 
Q 4934 992 4553 448 
Q 4173 -96 3565 -448 
Q 3539 -416 3494 -377 
Q 3450 -339 3405 -314 
Q 4006 26 4380 557 
Q 4755 1088 4963 1769 
Q 5171 2451 5274 3232 
z
" transform="scale(0.015625)"/>
        <path id="NotoSansSC-Thin-5c14" d="M 3136 4064 
L 3328 4064 
L 3328 -115 
Q 3328 -262 3277 -329 
Q 3226 -397 3104 -422 
Q 2995 -448 2745 -454 
Q 2496 -461 2074 -461 
Q 2067 -422 2041 -368 
Q 2016 -314 1990 -269 
Q 2234 -275 2438 -275 
Q 2643 -275 2787 -272 
Q 2931 -269 2989 -269 
Q 3072 -262 3104 -230 
Q 3136 -198 3136 -115 
L 3136 4064 
z
M 1869 2650 
L 2054 2598 
Q 1875 2195 1638 1811 
Q 1402 1427 1133 1097 
Q 864 768 582 506 
Q 570 518 541 540 
Q 512 563 480 588 
Q 448 614 422 627 
Q 858 1005 1235 1536 
Q 1613 2067 1869 2650 
z
M 2048 5318 
L 2234 5267 
Q 2016 4749 1737 4265 
Q 1459 3782 1142 3360 
Q 826 2938 486 2611 
Q 474 2630 442 2649 
Q 410 2669 374 2691 
Q 339 2714 307 2720 
Q 666 3040 986 3453 
Q 1306 3866 1578 4342 
Q 1850 4819 2048 5318 
z
M 4397 2528 
L 4550 2611 
Q 4819 2298 5094 1930 
Q 5370 1562 5600 1213 
Q 5830 864 5965 602 
L 5811 506 
Q 5677 768 5446 1120 
Q 5216 1472 4941 1843 
Q 4666 2214 4397 2528 
z
M 1498 4141 
L 5856 4141 
L 5856 3955 
L 1498 3955 
L 1498 4141 
z
M 5786 4141 
L 5830 4141 
L 5869 4154 
L 5997 4090 
Q 5830 3725 5616 3334 
Q 5402 2944 5197 2688 
L 5024 2739 
Q 5165 2906 5305 3133 
Q 5446 3360 5571 3606 
Q 5696 3853 5786 4077 
L 5786 4141 
z
" transform="scale(0.015625)"/>
       </defs>
       <use xlink:href="#NotoSansSC-Thin-6234"/>
       <use xlink:href="#NotoSansSC-Thin-5c14" transform="translate(99.999985 0)"/>
      </g>
     </g>
    </g>
    <g id="xtick_5">
     <g id="line2d_5">
      <g>
       <use xlink:href="#me0cabfa4d4" x="191.855781" y="162.795213" style="fill: #64748b; stroke: #64748b; stroke-width: 0.8"/>
      </g>
     </g>
     <g id="text_5">
      <!-- 美光 -->
      <g style="fill: #64748b" transform="translate(176.155898 181.236932) rotate(-20) scale(0.08 -0.08)">
       <defs>
        <path id="NotoSansSC-Thin-7f8e" d="M 659 4314 
L 5747 4314 
L 5747 4128 
L 659 4128 
L 659 4314 
z
M 998 3405 
L 5434 3405 
L 5434 3219 
L 998 3219 
L 998 3405 
z
M 538 1626 
L 5990 1626 
L 5990 1440 
L 538 1440 
L 538 1626 
z
M 403 2470 
L 6022 2470 
L 6022 2285 
L 403 2285 
L 403 2470 
z
M 3091 4250 
L 3283 4250 
L 3283 2387 
L 3091 2387 
L 3091 4250 
z
M 1517 5235 
L 1677 5318 
Q 1869 5120 2048 4873 
Q 2227 4627 2310 4442 
L 2138 4346 
Q 2054 4538 1878 4787 
Q 1702 5037 1517 5235 
z
M 4666 5318 
L 4838 5216 
Q 4678 4954 4473 4656 
Q 4269 4358 4096 4154 
L 3962 4243 
Q 4077 4384 4208 4576 
Q 4339 4768 4460 4963 
Q 4582 5158 4666 5318 
z
M 3110 2426 
L 3309 2426 
Q 3251 1946 3145 1549 
Q 3040 1152 2845 835 
Q 2650 518 2333 275 
Q 2016 32 1552 -141 
Q 1088 -314 442 -422 
Q 435 -403 416 -371 
Q 397 -339 377 -307 
Q 358 -275 339 -256 
Q 979 -154 1433 12 
Q 1888 179 2192 409 
Q 2496 640 2681 937 
Q 2867 1235 2966 1606 
Q 3066 1978 3110 2426 
z
M 3328 1581 
Q 3642 832 4349 381 
Q 5056 -70 6029 -237 
Q 6010 -256 5984 -288 
Q 5958 -320 5936 -352 
Q 5914 -384 5901 -416 
Q 5254 -282 4710 -29 
Q 4166 224 3766 611 
Q 3366 998 3142 1517 
L 3328 1581 
z
" transform="scale(0.015625)"/>
        <path id="NotoSansSC-Thin-5149" d="M 3898 2669 
L 4083 2669 
L 4083 -19 
Q 4083 -160 4150 -211 
Q 4218 -262 4435 -262 
Q 4493 -262 4640 -262 
Q 4787 -262 4966 -262 
Q 5146 -262 5302 -262 
Q 5459 -262 5530 -262 
Q 5677 -262 5750 -179 
Q 5824 -96 5853 147 
Q 5882 390 5894 870 
Q 5920 851 5952 835 
Q 5984 819 6019 806 
Q 6054 794 6086 781 
Q 6067 294 6025 25 
Q 5984 -243 5872 -345 
Q 5760 -448 5536 -448 
Q 5498 -448 5338 -448 
Q 5178 -448 4986 -448 
Q 4794 -448 4640 -448 
Q 4486 -448 4448 -448 
Q 4237 -448 4115 -416 
Q 3994 -384 3946 -291 
Q 3898 -198 3898 -19 
L 3898 2669 
z
M 2246 2637 
L 2438 2637 
Q 2394 2074 2288 1594 
Q 2182 1114 1968 723 
Q 1754 333 1379 41 
Q 1005 -250 422 -442 
Q 410 -422 387 -393 
Q 365 -365 339 -336 
Q 314 -307 288 -294 
Q 864 -115 1229 166 
Q 1594 448 1802 822 
Q 2010 1197 2106 1651 
Q 2202 2106 2246 2637 
z
M 992 4902 
L 1165 4960 
Q 1344 4710 1517 4419 
Q 1690 4128 1824 3849 
Q 1958 3571 2022 3354 
L 1843 3290 
Q 1779 3501 1648 3782 
Q 1517 4064 1347 4358 
Q 1178 4653 992 4902 
z
M 5261 5056 
L 5440 4973 
Q 5312 4704 5155 4393 
Q 4998 4083 4835 3795 
Q 4672 3507 4525 3290 
L 4378 3360 
Q 4525 3584 4688 3881 
Q 4851 4179 5004 4492 
Q 5158 4806 5261 5056 
z
M 384 2771 
L 6035 2771 
L 6035 2586 
L 384 2586 
L 384 2771 
z
M 3091 5318 
L 3283 5318 
L 3283 2694 
L 3091 2694 
L 3091 5318 
z
" transform="scale(0.015625)"/>
       </defs>
       <use xlink:href="#NotoSansSC-Thin-7f8e"/>
       <use xlink:href="#NotoSansSC-Thin-5149" transform="translate(99.999985 0)"/>
      </g>
     </g>
    </g>
    <g id="xtick_6">
     <g id="line2d_6">
      <g>
       <use xlink:href="#me0cabfa4d4" x="224.286014" y="162.795213" style="fill: #64748b; stroke: #64748b; stroke-width: 0.8"/>
      </g>
     </g>
     <g id="text_6">
      <!-- IBM -->
      <g style="fill: #64748b" transform="translate(211.149142 180.304072) rotate(-20) scale(0.08 -0.08)">
       <defs>
        <path id="NotoSansSC-Thin-42" d="M 704 0 
L 704 4646 
L 1920 4646 
Q 2387 4646 2723 4524 
Q 3059 4403 3244 4153 
Q 3430 3904 3430 3520 
Q 3430 3277 3347 3072 
Q 3264 2867 3104 2723 
Q 2944 2579 2701 2509 
L 2701 2477 
Q 3162 2406 3443 2121 
Q 3725 1837 3725 1350 
Q 3725 909 3513 608 
Q 3302 307 2918 153 
Q 2534 0 2003 0 
L 704 0 
z
M 941 2586 
L 1779 2586 
Q 2541 2586 2864 2832 
Q 3187 3078 3187 3507 
Q 3187 4019 2841 4230 
Q 2496 4442 1824 4442 
L 941 4442 
L 941 2586 
z
M 941 211 
L 1920 211 
Q 2643 211 3065 483 
Q 3488 755 3488 1338 
Q 3488 1869 3075 2121 
Q 2662 2374 1920 2374 
L 941 2374 
L 941 211 
z
" transform="scale(0.015625)"/>
       </defs>
       <use xlink:href="#NotoSansSC-Thin-49"/>
       <use xlink:href="#NotoSansSC-Thin-42" transform="translate(25.699997 0)"/>
       <use xlink:href="#NotoSansSC-Thin-4d" transform="translate(88.899994 0)"/>
      </g>
     </g>
    </g>
    <g id="xtick_7">
     <g id="line2d_7">
      <g>
       <use xlink:href="#me0cabfa4d4" x="256.716246" y="162.795213" style="fill: #64748b; stroke: #64748b; stroke-width: 0.8"/>
      </g>
     </g>
     <g id="text_7">
      <!-- AMD -->
      <g style="fill: #64748b" transform="translate(240.978775 181.250613) rotate(-20) scale(0.08 -0.08)">
       <use xlink:href="#NotoSansSC-Thin-41"/>
       <use xlink:href="#NotoSansSC-Thin-4d" transform="translate(57.399994 0)"/>
       <use xlink:href="#NotoSansSC-Thin-44" transform="translate(134.399979 0)"/>
      </g>
     </g>
    </g>
    <g id="xtick_8">
     <g id="line2d_8">
      <g>
       <use xlink:href="#me0cabfa4d4" x="289.146479" y="162.795213" style="fill: #64748b; stroke: #64748b; stroke-width: 0.8"/>
      </g>
     </g>
     <g id="text_8">
      <!-- 高通 -->
      <g style="fill: #64748b" transform="translate(273.446595 181.236932) rotate(-20) scale(0.08 -0.08)">
       <defs>
        <path id="NotoSansSC-Thin-9ad8" d="M 410 4576 
L 5971 4576 
L 5971 4384 
L 410 4384 
L 410 4576 
z
M 1690 3718 
L 1690 2906 
L 4742 2906 
L 4742 3718 
L 1690 3718 
z
M 1498 3910 
L 4928 3910 
L 4928 2720 
L 1498 2720 
L 1498 3910 
z
M 698 2259 
L 5619 2259 
L 5619 2074 
L 883 2074 
L 883 -442 
L 698 -442 
L 698 2259 
z
M 5517 2259 
L 5702 2259 
L 5702 -134 
Q 5702 -237 5673 -285 
Q 5645 -333 5562 -365 
Q 5485 -390 5321 -393 
Q 5158 -397 4877 -397 
Q 4870 -358 4848 -310 
Q 4826 -262 4800 -230 
Q 4954 -230 5082 -230 
Q 5210 -230 5299 -230 
Q 5389 -230 5421 -230 
Q 5517 -224 5517 -141 
L 5517 2259 
z
M 2970 5286 
L 3110 5312 
Q 3194 5107 3270 4870 
Q 3347 4634 3379 4486 
L 3232 4429 
Q 3194 4595 3117 4838 
Q 3040 5082 2970 5286 
z
M 1926 1549 
L 4474 1549 
L 4474 346 
L 1926 346 
L 1926 531 
L 4288 531 
L 4288 1363 
L 1926 1363 
L 1926 1549 
z
M 1843 1549 
L 2035 1549 
L 2035 -32 
L 1843 -32 
L 1843 1549 
z
" transform="scale(0.015625)"/>
        <path id="NotoSansSC-Thin-901a" d="M 1523 2963 
L 1523 544 
L 1338 544 
L 1338 2771 
L 339 2771 
L 339 2963 
L 1523 2963 
z
M 538 4941 
L 678 5037 
Q 877 4877 1078 4681 
Q 1280 4486 1456 4297 
Q 1632 4109 1747 3962 
L 1594 3846 
Q 1485 3994 1309 4186 
Q 1133 4378 931 4576 
Q 730 4774 538 4941 
z
M 2982 4410 
L 3104 4544 
Q 3424 4429 3773 4281 
Q 4122 4134 4438 3984 
Q 4755 3834 4966 3699 
L 4845 3546 
Q 4640 3674 4326 3830 
Q 4013 3987 3661 4140 
Q 3309 4294 2982 4410 
z
M 2342 3706 
L 5702 3706 
L 5702 3520 
L 2528 3520 
L 2528 390 
L 2342 390 
L 2342 3706 
z
M 5606 3706 
L 5798 3706 
L 5798 685 
Q 5798 563 5760 508 
Q 5722 454 5626 422 
Q 5523 397 5318 390 
Q 5114 384 4755 384 
Q 4749 429 4726 480 
Q 4704 531 4678 570 
Q 4979 563 5200 563 
Q 5421 563 5491 563 
Q 5562 570 5584 595 
Q 5606 621 5606 685 
L 5606 3706 
z
M 2291 5050 
L 5626 5050 
L 5626 4864 
L 2291 4864 
L 2291 5050 
z
M 2438 2739 
L 5722 2739 
L 5722 2554 
L 2438 2554 
L 2438 2739 
z
M 2438 1754 
L 5722 1754 
L 5722 1562 
L 2438 1562 
L 2438 1754 
z
M 3949 3661 
L 4134 3661 
L 4134 416 
L 3949 416 
L 3949 3661 
z
M 5581 5050 
L 5626 5050 
L 5670 5062 
L 5811 4966 
Q 5510 4672 5065 4409 
Q 4621 4147 4192 3981 
Q 4166 4013 4131 4054 
Q 4096 4096 4064 4122 
Q 4346 4224 4630 4368 
Q 4915 4512 5164 4678 
Q 5414 4845 5581 5005 
L 5581 5050 
z
M 1408 646 
Q 1568 646 1715 528 
Q 1862 410 2144 218 
Q 2477 13 2880 -48 
Q 3283 -109 3827 -109 
Q 4134 -109 4444 -102 
Q 4755 -96 5056 -83 
Q 5357 -70 5638 -57 
Q 5920 -45 6163 -26 
Q 6150 -51 6137 -86 
Q 6125 -122 6115 -160 
Q 6106 -198 6099 -230 
Q 5952 -237 5680 -249 
Q 5408 -262 5078 -268 
Q 4749 -275 4422 -281 
Q 4096 -288 3834 -288 
Q 3245 -288 2816 -211 
Q 2387 -134 2048 83 
Q 1856 205 1689 342 
Q 1523 480 1408 480 
Q 1293 480 1145 371 
Q 998 262 832 76 
Q 666 -109 480 -346 
L 339 -205 
Q 646 154 912 400 
Q 1178 646 1408 646 
z
" transform="scale(0.015625)"/>
       </defs>
       <use xlink:href="#NotoSansSC-Thin-9ad8"/>
       <use xlink:href="#NotoSansSC-Thin-901a" transform="translate(99.999985 0)"/>
      </g>
     </g>
    </g>
    <g id="xtick_9">
     <g id="line2d_9">
      <g>
       <use xlink:href="#me0cabfa4d4" x="321.576711" y="162.795213" style="fill: #64748b; stroke: #64748b; stroke-width: 0.8"/>
      </g>
     </g>
     <g id="text_9">
      <!-- 英特尔 -->
      <g style="fill: #64748b" transform="translate(298.359287 183.973093) rotate(-20) scale(0.08 -0.08)">
       <defs>
        <path id="NotoSansSC-Thin-82f1" d="M 416 1677 
L 6010 1677 
L 6010 1485 
L 416 1485 
L 416 1677 
z
M 1120 3206 
L 5318 3206 
L 5318 1619 
L 5133 1619 
L 5133 3021 
L 1306 3021 
L 1306 1619 
L 1120 1619 
L 1120 3206 
z
M 3072 4038 
L 3264 4038 
L 3264 2381 
Q 3264 2067 3222 1753 
Q 3181 1440 3033 1129 
Q 2886 819 2579 534 
Q 2272 250 1747 -6 
Q 1222 -262 422 -467 
Q 410 -442 390 -413 
Q 371 -384 352 -355 
Q 333 -326 314 -307 
Q 1101 -109 1613 134 
Q 2125 378 2422 650 
Q 2720 922 2857 1213 
Q 2995 1504 3033 1798 
Q 3072 2093 3072 2381 
L 3072 4038 
z
M 3430 1632 
Q 3731 819 4425 345 
Q 5120 -128 6144 -294 
Q 6118 -314 6092 -346 
Q 6067 -378 6048 -410 
Q 6029 -442 6010 -467 
Q 5325 -333 4777 -73 
Q 4230 186 3843 595 
Q 3456 1005 3245 1574 
L 3430 1632 
z
M 506 4627 
L 5869 4627 
L 5869 4442 
L 506 4442 
L 506 4627 
z
M 1965 5312 
L 2150 5312 
L 2150 3674 
L 1965 3674 
L 1965 5312 
z
M 4218 5312 
L 4403 5312 
L 4403 3674 
L 4218 3674 
L 4218 5312 
z
" transform="scale(0.015625)"/>
        <path id="NotoSansSC-Thin-7279" d="M 2790 4499 
L 5760 4499 
L 5760 4307 
L 2790 4307 
L 2790 4499 
z
M 2419 3232 
L 6067 3232 
L 6067 3040 
L 2419 3040 
L 2419 3232 
z
M 2496 2086 
L 6061 2086 
L 6061 1894 
L 2496 1894 
L 2496 2086 
z
M 4173 5318 
L 4358 5318 
L 4358 3142 
L 4173 3142 
L 4173 5318 
z
M 5005 3098 
L 5197 3098 
L 5197 -122 
Q 5197 -262 5152 -326 
Q 5107 -390 4992 -422 
Q 4883 -448 4643 -451 
Q 4403 -454 4026 -454 
Q 4019 -416 4000 -358 
Q 3981 -301 3949 -256 
Q 4294 -262 4544 -262 
Q 4794 -262 4877 -256 
Q 4954 -250 4979 -224 
Q 5005 -198 5005 -128 
L 5005 3098 
z
M 2938 1434 
L 3098 1517 
Q 3360 1280 3606 979 
Q 3853 678 3974 442 
L 3802 339 
Q 3731 499 3593 691 
Q 3456 883 3286 1078 
Q 3117 1274 2938 1434 
z
M 346 1613 
Q 595 1696 924 1805 
Q 1254 1914 1628 2042 
Q 2003 2170 2381 2298 
L 2400 2112 
Q 1869 1933 1331 1747 
Q 794 1562 397 1427 
L 346 1613 
z
M 1434 5306 
L 1626 5306 
L 1626 -448 
L 1434 -448 
L 1434 5306 
z
M 768 4838 
L 966 4800 
Q 922 4371 854 3952 
Q 787 3533 707 3165 
Q 627 2797 518 2509 
Q 506 2528 470 2550 
Q 435 2573 400 2595 
Q 365 2618 339 2630 
Q 448 2912 531 3267 
Q 614 3622 672 4025 
Q 730 4429 768 4838 
z
M 698 3930 
L 2355 3930 
L 2355 3738 
L 666 3738 
L 698 3930 
z
" transform="scale(0.015625)"/>
       </defs>
       <use xlink:href="#NotoSansSC-Thin-82f1"/>
       <use xlink:href="#NotoSansSC-Thin-7279" transform="translate(99.999985 0)"/>
       <use xlink:href="#NotoSansSC-Thin-5c14" transform="translate(199.999969 0)"/>
      </g>
     </g>
    </g>
   </g>
   <g id="matplotlib.axis_2">
    <g id="ytick_1">
     <g id="line2d_10">
      <path d="M 38.460781 162.795213 
L 345.250781 162.795213 
" clip-path="url(#pd035db7d3b)" style="fill: none; stroke: #64748b; stroke-opacity: 0.2; stroke-width: 0.8; stroke-linecap: square"/>
     </g>
     <g id="line2d_11">
      <defs>
       <path id="md0030af6ee" d="M 0 0 
L -3.5 0 
" style="stroke: #64748b; stroke-width: 0.8"/>
      </defs>
      <g>
       <use xlink:href="#md0030af6ee" x="38.460781" y="162.795213" style="fill: #64748b; stroke: #64748b; stroke-width: 0.8"/>
      </g>
     </g>
     <g id="text_10">
      <!-- -10 -->
      <g style="fill: #64748b" transform="translate(20.533281 165.971463) scale(0.08 -0.08)">
       <defs>
        <path id="NotoSansSC-Thin-2d" d="M 282 1638 
L 282 1862 
L 1811 1862 
L 1811 1638 
L 282 1638 
z
" transform="scale(0.015625)"/>
        <path id="NotoSansSC-Thin-31" d="M 608 0 
L 608 211 
L 1677 211 
L 1677 4211 
L 864 4211 
L 864 4378 
Q 1133 4422 1344 4492 
Q 1555 4563 1702 4646 
L 1901 4646 
L 1901 211 
L 2899 211 
L 2899 0 
L 608 0 
z
" transform="scale(0.015625)"/>
        <path id="NotoSansSC-Thin-30" d="M 1670 -83 
Q 1261 -83 963 179 
Q 666 442 509 979 
Q 352 1517 352 2336 
Q 352 3149 509 3677 
Q 666 4205 963 4467 
Q 1261 4730 1670 4730 
Q 2080 4730 2371 4467 
Q 2662 4205 2822 3677 
Q 2982 3149 2982 2336 
Q 2982 1517 2822 979 
Q 2662 442 2371 179 
Q 2080 -83 1670 -83 
z
M 1670 128 
Q 1997 128 2240 384 
Q 2483 640 2614 1133 
Q 2746 1626 2746 2336 
Q 2746 3040 2614 3529 
Q 2483 4019 2240 4272 
Q 1997 4525 1670 4525 
Q 1344 4525 1101 4272 
Q 858 4019 723 3529 
Q 589 3040 589 2336 
Q 589 1626 723 1133 
Q 858 640 1101 384 
Q 1344 128 1670 128 
z
" transform="scale(0.015625)"/>
       </defs>
       <use xlink:href="#NotoSansSC-Thin-2d"/>
       <use xlink:href="#NotoSansSC-Thin-31" transform="translate(32.399994 0)"/>
       <use xlink:href="#NotoSansSC-Thin-30" transform="translate(84.499985 0)"/>
      </g>
     </g>
    </g>
    <g id="ytick_2">
     <g id="line2d_12">
      <path d="M 38.460781 142.05265 
L 345.250781 142.05265 
" clip-path="url(#pd035db7d3b)" style="fill: none; stroke: #64748b; stroke-opacity: 0.2; stroke-width: 0.8; stroke-linecap: square"/>
     </g>
     <g id="line2d_13">
      <g>
       <use xlink:href="#md0030af6ee" x="38.460781" y="142.05265" style="fill: #64748b; stroke: #64748b; stroke-width: 0.8"/>
      </g>
     </g>
     <g id="text_11">
      <!-- -5 -->
      <g style="fill: #64748b" transform="translate(24.700781 145.2289) scale(0.08 -0.08)">
       <defs>
        <path id="NotoSansSC-Thin-35" d="M 1581 -83 
Q 1222 -83 963 9 
Q 704 102 515 240 
Q 326 378 186 518 
L 333 691 
Q 467 550 636 422 
Q 806 294 1040 211 
Q 1274 128 1594 128 
Q 1901 128 2166 294 
Q 2432 461 2592 765 
Q 2752 1069 2752 1466 
Q 2752 2061 2441 2406 
Q 2131 2752 1606 2752 
Q 1350 2752 1152 2665 
Q 954 2579 755 2445 
L 563 2560 
L 730 4646 
L 2758 4646 
L 2758 4435 
L 941 4435 
L 787 2726 
Q 966 2835 1168 2902 
Q 1370 2970 1626 2970 
Q 2010 2970 2320 2813 
Q 2630 2656 2812 2326 
Q 2995 1997 2995 1478 
Q 2995 979 2787 630 
Q 2579 282 2256 99 
Q 1933 -83 1581 -83 
z
" transform="scale(0.015625)"/>
       </defs>
       <use xlink:href="#NotoSansSC-Thin-2d"/>
       <use xlink:href="#NotoSansSC-Thin-35" transform="translate(32.399994 0)"/>
      </g>
     </g>
    </g>
    <g id="ytick_3">
     <g id="line2d_14">
      <path d="M 38.460781 121.310088 
L 345.250781 121.310088 
" clip-path="url(#pd035db7d3b)" style="fill: none; stroke: #64748b; stroke-opacity: 0.2; stroke-width: 0.8; stroke-linecap: square"/>
     </g>
     <g id="line2d_15">
      <g>
       <use xlink:href="#md0030af6ee" x="38.460781" y="121.310088" style="fill: #64748b; stroke: #64748b; stroke-width: 0.8"/>
      </g>
     </g>
     <g id="text_12">
      <!-- 0 -->
      <g style="fill: #64748b" transform="translate(27.293281 124.486338) scale(0.08 -0.08)">
       <use xlink:href="#NotoSansSC-Thin-30"/>
      </g>
     </g>
    </g>
    <g id="ytick_4">
     <g id="line2d_16">
      <path d="M 38.460781 100.567525 
L 345.250781 100.567525 
" clip-path="url(#pd035db7d3b)" style="fill: none; stroke: #64748b; stroke-opacity: 0.2; stroke-width: 0.8; stroke-linecap: square"/>
     </g>
     <g id="line2d_17">
      <g>
       <use xlink:href="#md0030af6ee" x="38.460781" y="100.567525" style="fill: #64748b; stroke: #64748b; stroke-width: 0.8"/>
      </g>
     </g>
     <g id="text_13">
      <!-- 5 -->
      <g style="fill: #64748b" transform="translate(27.293281 103.743775) scale(0.08 -0.08)">
       <use xlink:href="#NotoSansSC-Thin-35"/>
      </g>
     </g>
    </g>
    <g id="ytick_5">
     <g id="line2d_18">
      <path d="M 38.460781 79.824963 
L 345.250781 79.824963 
" clip-path="url(#pd035db7d3b)" style="fill: none; stroke: #64748b; stroke-opacity: 0.2; stroke-width: 0.8; stroke-linecap: square"/>
     </g>
     <g id="line2d_19">
      <g>
       <use xlink:href="#md0030af6ee" x="38.460781" y="79.824963" style="fill: #64748b; stroke: #64748b; stroke-width: 0.8"/>
      </g>
     </g>
     <g id="text_14">
      <!-- 10 -->
      <g style="fill: #64748b" transform="translate(23.125781 83.001213) scale(0.08 -0.08)">
       <use xlink:href="#NotoSansSC-Thin-31"/>
       <use xlink:href="#NotoSansSC-Thin-30" transform="translate(52.099991 0)"/>
      </g>
     </g>
    </g>
    <g id="ytick_6">
     <g id="line2d_20">
      <path d="M 38.460781 59.0824 
L 345.250781 59.0824 
" clip-path="url(#pd035db7d3b)" style="fill: none; stroke: #64748b; stroke-opacity: 0.2; stroke-width: 0.8; stroke-linecap: square"/>
     </g>
     <g id="line2d_21">
      <g>
       <use xlink:href="#md0030af6ee" x="38.460781" y="59.0824" style="fill: #64748b; stroke: #64748b; stroke-width: 0.8"/>
      </g>
     </g>
     <g id="text_15">
      <!-- 15 -->
      <g style="fill: #64748b" transform="translate(23.125781 62.25865) scale(0.08 -0.08)">
       <use xlink:href="#NotoSansSC-Thin-31"/>
       <use xlink:href="#NotoSansSC-Thin-35" transform="translate(52.099991 0)"/>
      </g>
     </g>
    </g>
    <g id="ytick_7">
     <g id="line2d_22">
      <path d="M 38.460781 38.339838 
L 345.250781 38.339838 
" clip-path="url(#pd035db7d3b)" style="fill: none; stroke: #64748b; stroke-opacity: 0.2; stroke-width: 0.8; stroke-linecap: square"/>
     </g>
     <g id="line2d_23">
      <g>
       <use xlink:href="#md0030af6ee" x="38.460781" y="38.339838" style="fill: #64748b; stroke: #64748b; stroke-width: 0.8"/>
      </g>
     </g>
     <g id="text_16">
      <!-- 20 -->
      <g style="fill: #64748b" transform="translate(23.125781 41.516088) scale(0.08 -0.08)">
       <defs>
        <path id="NotoSansSC-Thin-32" d="M 294 0 
L 294 147 
Q 1120 858 1613 1434 
Q 2106 2010 2323 2499 
Q 2541 2989 2541 3424 
Q 2541 3725 2435 3974 
Q 2330 4224 2106 4371 
Q 1882 4518 1523 4518 
Q 1210 4518 931 4352 
Q 653 4186 442 3923 
L 282 4070 
Q 525 4346 829 4538 
Q 1133 4730 1542 4730 
Q 1939 4730 2214 4566 
Q 2490 4403 2637 4112 
Q 2784 3821 2784 3424 
Q 2784 2918 2537 2406 
Q 2291 1894 1820 1347 
Q 1350 800 678 179 
Q 870 192 1062 201 
Q 1254 211 1440 211 
L 3014 211 
L 3014 0 
L 294 0 
z
" transform="scale(0.015625)"/>
       </defs>
       <use xlink:href="#NotoSansSC-Thin-32"/>
       <use xlink:href="#NotoSansSC-Thin-30" transform="translate(52.099991 0)"/>
      </g>
     </g>
    </g>
    <g id="text_17">
     <!-- 涨跌幅 (%) -->
     <g style="fill: #64748b" transform="translate(14.346563 117.560575) rotate(-90) scale(0.09 -0.09)">
      <defs>
       <path id="NotoSansSC-Thin-6da8" d="M 2803 2118 
L 3002 2118 
Q 3002 2118 3002 2073 
Q 3002 2029 2995 1997 
Q 2957 1216 2912 752 
Q 2867 288 2809 54 
Q 2752 -179 2669 -269 
Q 2605 -339 2528 -364 
Q 2451 -390 2323 -397 
Q 2208 -403 1987 -396 
Q 1766 -390 1530 -371 
Q 1523 -326 1510 -275 
Q 1498 -224 1472 -179 
Q 1741 -205 1971 -208 
Q 2202 -211 2285 -211 
Q 2445 -218 2509 -154 
Q 2579 -83 2630 150 
Q 2682 384 2726 848 
Q 2771 1312 2803 2080 
L 2803 2118 
z
M 1779 3565 
L 1965 3565 
Q 1946 3302 1920 2998 
Q 1894 2694 1865 2412 
Q 1837 2131 1805 1926 
L 1619 1926 
Q 1651 2138 1683 2422 
Q 1715 2707 1740 3008 
Q 1766 3309 1779 3565 
z
M 1728 2118 
L 2861 2118 
L 2861 1926 
L 1709 1926 
L 1728 2118 
z
M 1856 3565 
L 2867 3565 
L 2867 4806 
L 1638 4806 
L 1638 4992 
L 3053 4992 
L 3053 3373 
L 1856 3373 
L 1856 3565 
z
M 3590 -448 
Q 3584 -422 3565 -390 
Q 3546 -358 3523 -323 
Q 3501 -288 3482 -262 
Q 3552 -230 3645 -153 
Q 3738 -77 3738 102 
L 3738 5254 
L 3930 5254 
L 3930 -192 
Q 3930 -192 3878 -221 
Q 3827 -250 3760 -291 
Q 3693 -333 3641 -374 
Q 3590 -416 3590 -448 
z
M 518 5043 
L 646 5158 
Q 806 5050 969 4918 
Q 1133 4787 1273 4656 
Q 1414 4525 1498 4422 
L 1370 4288 
Q 1280 4397 1139 4531 
Q 998 4666 838 4800 
Q 678 4934 518 5043 
z
M 294 3251 
L 429 3366 
Q 582 3264 739 3142 
Q 896 3021 1033 2899 
Q 1171 2778 1254 2675 
L 1126 2534 
Q 1037 2637 899 2765 
Q 762 2893 605 3021 
Q 448 3149 294 3251 
z
M 448 -262 
Q 550 -26 665 297 
Q 781 621 899 976 
Q 1018 1331 1107 1658 
L 1274 1549 
Q 1190 1242 1078 896 
Q 966 550 854 220 
Q 742 -109 634 -378 
L 448 -262 
z
M 3091 2771 
L 6093 2771 
L 6093 2579 
L 3091 2579 
L 3091 2771 
z
M 4659 2694 
Q 4781 2061 4985 1497 
Q 5190 934 5478 499 
Q 5766 64 6138 -192 
Q 6106 -218 6064 -262 
Q 6022 -307 5997 -346 
Q 5626 -58 5331 396 
Q 5037 851 4829 1430 
Q 4621 2010 4493 2656 
L 4659 2694 
z
M 5613 5197 
L 5805 5146 
Q 5626 4730 5389 4346 
Q 5152 3962 4873 3632 
Q 4595 3302 4301 3046 
Q 4288 3059 4259 3084 
Q 4230 3110 4198 3136 
Q 4166 3162 4141 3174 
Q 4589 3539 4976 4070 
Q 5363 4602 5613 5197 
z
M 3590 -448 
L 3590 -269 
L 3706 -134 
L 4998 339 
Q 5005 301 5014 256 
Q 5024 211 5030 192 
Q 4570 0 4294 -115 
Q 4019 -230 3878 -294 
Q 3738 -358 3680 -390 
Q 3622 -422 3590 -448 
z
" transform="scale(0.015625)"/>
       <path id="NotoSansSC-Thin-8dcc" d="M 838 4819 
L 838 3398 
L 2214 3398 
L 2214 4819 
L 838 4819 
z
M 646 5005 
L 2406 5005 
L 2406 3213 
L 646 3213 
L 646 5005 
z
M 1498 3341 
L 1690 3341 
L 1690 346 
L 1498 346 
L 1498 3341 
z
M 685 2458 
L 870 2458 
L 870 147 
L 685 147 
L 685 2458 
z
M 314 122 
Q 589 186 944 278 
Q 1299 371 1705 483 
Q 2112 595 2522 704 
L 2541 525 
Q 1958 365 1382 208 
Q 806 51 371 -70 
L 314 122 
z
M 1549 2106 
L 2483 2106 
L 2483 1920 
L 1549 1920 
L 1549 2106 
z
M 2643 2336 
L 6003 2336 
L 6003 2144 
L 2643 2144 
L 2643 2336 
z
M 3213 4096 
L 5894 4096 
L 5894 3910 
L 3155 3910 
L 3213 4096 
z
M 3277 5050 
L 3469 5018 
Q 3366 4416 3200 3865 
Q 3034 3315 2790 2918 
Q 2771 2938 2742 2957 
Q 2714 2976 2682 2995 
Q 2650 3014 2618 3027 
Q 2867 3405 3027 3939 
Q 3187 4474 3277 5050 
z
M 4224 5306 
L 4410 5306 
L 4410 3450 
Q 4410 3091 4387 2688 
Q 4365 2285 4272 1869 
Q 4179 1453 3980 1040 
Q 3782 627 3440 243 
Q 3098 -141 2560 -474 
Q 2547 -448 2524 -425 
Q 2502 -403 2476 -377 
Q 2451 -352 2426 -333 
Q 2957 -19 3293 352 
Q 3629 723 3821 1123 
Q 4013 1523 4099 1926 
Q 4186 2330 4205 2717 
Q 4224 3104 4224 3450 
L 4224 5306 
z
M 4416 2323 
Q 4531 1715 4752 1196 
Q 4973 678 5305 297 
Q 5638 -83 6086 -282 
Q 6061 -301 6035 -326 
Q 6010 -352 5987 -381 
Q 5965 -410 5946 -435 
Q 5261 -96 4848 614 
Q 4435 1325 4250 2285 
L 4416 2323 
z
" transform="scale(0.015625)"/>
       <path id="NotoSansSC-Thin-5e45" d="M 1376 5306 
L 1562 5306 
L 1562 -448 
L 1376 -448 
L 1376 5306 
z
M 531 4064 
L 2381 4064 
L 2381 3878 
L 717 3878 
L 717 858 
L 531 858 
L 531 4064 
z
M 2266 4064 
L 2451 4064 
L 2451 1158 
Q 2451 1075 2428 1024 
Q 2406 973 2342 941 
Q 2278 915 2163 908 
Q 2048 902 1882 902 
Q 1875 941 1849 995 
Q 1824 1050 1792 1094 
Q 1946 1088 2051 1088 
Q 2157 1088 2202 1088 
Q 2266 1094 2266 1158 
L 2266 4064 
z
M 2714 4928 
L 6074 4928 
L 6074 4742 
L 2714 4742 
L 2714 4928 
z
M 3283 3962 
L 3283 2957 
L 5453 2957 
L 5453 3962 
L 3283 3962 
z
M 3091 4147 
L 5638 4147 
L 5638 2765 
L 3091 2765 
L 3091 4147 
z
M 2912 1037 
L 5856 1037 
L 5856 845 
L 2912 845 
L 2912 1037 
z
M 2912 -32 
L 5856 -32 
L 5856 -218 
L 2912 -218 
L 2912 -32 
z
M 2790 2112 
L 5933 2112 
L 5933 -429 
L 5747 -429 
L 5747 1926 
L 2982 1926 
L 2982 -454 
L 2790 -454 
L 2790 2112 
z
M 4218 1997 
L 4403 1997 
L 4403 -147 
L 4218 -147 
L 4218 1997 
z
" transform="scale(0.015625)"/>
       <path id="NotoSansSC-Thin-20" transform="scale(0.015625)"/>
       <path id="NotoSansSC-Thin-28" d="M 1562 -1222 
Q 1133 -525 883 252 
Q 634 1030 634 1958 
Q 634 2886 883 3667 
Q 1133 4448 1562 5146 
L 1696 5056 
Q 1274 4390 1059 3596 
Q 845 2803 845 1958 
Q 845 1114 1059 320 
Q 1274 -474 1696 -1139 
L 1562 -1222 
z
" transform="scale(0.015625)"/>
       <path id="NotoSansSC-Thin-25" d="M 1267 1818 
Q 966 1818 745 1987 
Q 525 2157 409 2483 
Q 294 2810 294 3283 
Q 294 3750 409 4070 
Q 525 4390 745 4560 
Q 966 4730 1267 4730 
Q 1574 4730 1795 4560 
Q 2016 4390 2131 4070 
Q 2246 3750 2246 3283 
Q 2246 2810 2131 2483 
Q 2016 2157 1795 1987 
Q 1574 1818 1267 1818 
z
M 1267 2003 
Q 1619 2003 1820 2342 
Q 2022 2682 2022 3283 
Q 2022 3885 1820 4214 
Q 1619 4544 1267 4544 
Q 922 4544 717 4214 
Q 512 3885 512 3283 
Q 512 2682 717 2342 
Q 922 2003 1267 2003 
z
M 1382 -83 
L 3987 4730 
L 4218 4730 
L 1619 -83 
L 1382 -83 
z
M 4365 -83 
Q 4058 -83 3840 86 
Q 3622 256 3504 582 
Q 3386 909 3386 1382 
Q 3386 1850 3504 2170 
Q 3622 2490 3840 2659 
Q 4058 2829 4365 2829 
Q 4666 2829 4883 2659 
Q 5101 2490 5219 2170 
Q 5338 1850 5338 1382 
Q 5338 909 5219 582 
Q 5101 256 4883 86 
Q 4666 -83 4365 -83 
z
M 4365 102 
Q 4704 102 4912 441 
Q 5120 781 5120 1382 
Q 5120 1984 4912 2313 
Q 4704 2643 4365 2643 
Q 4013 2643 3808 2313 
Q 3603 1984 3603 1382 
Q 3603 781 3808 441 
Q 4013 102 4365 102 
z
" transform="scale(0.015625)"/>
       <path id="NotoSansSC-Thin-29" d="M 352 -1222 
L 211 -1139 
Q 634 -474 851 320 
Q 1069 1114 1069 1958 
Q 1069 2803 851 3596 
Q 634 4390 211 5056 
L 352 5146 
Q 787 4448 1033 3667 
Q 1280 2886 1280 1958 
Q 1280 1030 1033 252 
Q 787 -525 352 -1222 
z
" transform="scale(0.015625)"/>
      </defs>
      <use xlink:href="#NotoSansSC-Thin-6da8"/>
      <use xlink:href="#NotoSansSC-Thin-8dcc" transform="translate(99.999985 0)"/>
      <use xlink:href="#NotoSansSC-Thin-5e45" transform="translate(199.999969 0)"/>
      <use xlink:href="#NotoSansSC-Thin-20" transform="translate(299.999954 0)"/>
      <use xlink:href="#NotoSansSC-Thin-28" transform="translate(321.999939 0)"/>
      <use xlink:href="#NotoSansSC-Thin-25" transform="translate(351.899933 0)"/>
      <use xlink:href="#NotoSansSC-Thin-29" transform="translate(439.899918 0)"/>
     </g>
    </g>
   </g>
   <g id="line2d_24">
    <path d="M 38.460781 121.310088 
L 345.250781 121.310088 
" clip-path="url(#pd035db7d3b)" style="fill: none; stroke: #1e293b; stroke-width: 0.8; stroke-linecap: square"/>
   </g>
   <g id="patch_12">
    <path d="M 38.460781 162.795213 
L 38.460781 30.042813 
" style="fill: none; stroke: #e2e8f0; stroke-width: 0.8; stroke-linejoin: miter; stroke-linecap: square"/>
   </g>
   <g id="patch_13">
    <path d="M 38.460781 162.795213 
L 345.250781 162.795213 
" style="fill: none; stroke: #e2e8f0; stroke-width: 0.8; stroke-linejoin: miter; stroke-linecap: square"/>
   </g>
   <g id="text_18">
    <!-- +16.1% -->
    <g style="fill: #10b981" transform="translate(49.356101 50.086179) scale(0.08 -0.08)">
     <defs>
      <path id="NotoSansSC-Thin-2b" d="M 1549 787 
L 1549 2221 
L 237 2221 
L 237 2426 
L 1549 2426 
L 1549 3866 
L 1786 3866 
L 1786 2426 
L 3098 2426 
L 3098 2221 
L 1786 2221 
L 1786 787 
L 1549 787 
z
" transform="scale(0.015625)"/>
      <path id="NotoSansSC-Thin-36" d="M 1837 -83 
Q 1498 -83 1232 67 
Q 966 218 780 509 
Q 595 800 496 1216 
Q 397 1632 397 2170 
Q 397 2886 528 3379 
Q 659 3872 889 4169 
Q 1120 4467 1414 4598 
Q 1709 4730 2029 4730 
Q 2330 4730 2550 4614 
Q 2771 4499 2944 4307 
L 2790 4147 
Q 2643 4333 2444 4425 
Q 2246 4518 2022 4518 
Q 1651 4518 1334 4297 
Q 1018 4077 826 3561 
Q 634 3046 634 2170 
Q 634 1581 762 1120 
Q 890 659 1158 393 
Q 1427 128 1850 128 
Q 2125 128 2336 297 
Q 2547 467 2672 752 
Q 2797 1037 2797 1382 
Q 2797 1741 2694 2025 
Q 2592 2310 2368 2476 
Q 2144 2643 1779 2643 
Q 1523 2643 1209 2470 
Q 896 2298 602 1888 
L 602 2176 
Q 768 2381 957 2531 
Q 1146 2682 1360 2762 
Q 1574 2842 1792 2842 
Q 2189 2842 2467 2675 
Q 2746 2509 2893 2185 
Q 3040 1862 3040 1382 
Q 3040 960 2873 630 
Q 2707 301 2435 109 
Q 2163 -83 1837 -83 
z
" transform="scale(0.015625)"/>
      <path id="NotoSansSC-Thin-2e" d="M 736 -83 
Q 640 -83 560 -9 
Q 480 64 480 192 
Q 480 333 560 406 
Q 640 480 736 480 
Q 838 480 918 406 
Q 998 333 998 192 
Q 998 64 918 -9 
Q 838 -83 736 -83 
z
" transform="scale(0.015625)"/>
     </defs>
     <use xlink:href="#NotoSansSC-Thin-2b"/>
     <use xlink:href="#NotoSansSC-Thin-31" transform="translate(52.099991 0)"/>
     <use xlink:href="#NotoSansSC-Thin-36" transform="translate(104.199982 0)"/>
     <use xlink:href="#NotoSansSC-Thin-2e" transform="translate(156.299973 0)"/>
     <use xlink:href="#NotoSansSC-Thin-31" transform="translate(179.399963 0)"/>
     <use xlink:href="#NotoSansSC-Thin-25" transform="translate(231.499954 0)"/>
    </g>
   </g>
   <g id="text_19">
    <!-- +10.5% -->
    <g style="fill: #10b981" transform="translate(81.786334 73.317849) scale(0.08 -0.08)">
     <use xlink:href="#NotoSansSC-Thin-2b"/>
     <use xlink:href="#NotoSansSC-Thin-31" transform="translate(52.099991 0)"/>
     <use xlink:href="#NotoSansSC-Thin-30" transform="translate(104.199982 0)"/>
     <use xlink:href="#NotoSansSC-Thin-2e" transform="translate(156.299973 0)"/>
     <use xlink:href="#NotoSansSC-Thin-35" transform="translate(179.399963 0)"/>
     <use xlink:href="#NotoSansSC-Thin-25" transform="translate(231.499954 0)"/>
    </g>
   </g>
   <g id="text_20">
    <!-- +6.3% -->
    <g style="fill: #10b981" transform="translate(116.300316 90.741601) scale(0.08 -0.08)">
     <defs>
      <path id="NotoSansSC-Thin-33" d="M 1619 -83 
Q 1261 -83 998 13 
Q 736 109 544 256 
Q 352 403 211 550 
L 358 717 
Q 563 499 857 313 
Q 1152 128 1632 128 
Q 1952 128 2198 262 
Q 2445 397 2585 640 
Q 2726 883 2726 1210 
Q 2726 1542 2560 1795 
Q 2394 2048 2038 2189 
Q 1683 2330 1114 2330 
L 1114 2554 
Q 1651 2554 1964 2698 
Q 2278 2842 2416 3088 
Q 2554 3334 2554 3629 
Q 2554 4026 2298 4272 
Q 2042 4518 1606 4518 
Q 1293 4518 1017 4374 
Q 742 4230 557 4026 
L 410 4192 
Q 634 4410 925 4570 
Q 1216 4730 1606 4730 
Q 1939 4730 2211 4598 
Q 2483 4467 2643 4224 
Q 2803 3981 2803 3642 
Q 2803 3168 2550 2877 
Q 2298 2586 1926 2464 
L 1926 2438 
Q 2208 2381 2445 2221 
Q 2682 2061 2826 1808 
Q 2970 1555 2970 1222 
Q 2970 826 2790 531 
Q 2611 237 2307 77 
Q 2003 -83 1619 -83 
z
" transform="scale(0.015625)"/>
     </defs>
     <use xlink:href="#NotoSansSC-Thin-2b"/>
     <use xlink:href="#NotoSansSC-Thin-36" transform="translate(52.099991 0)"/>
     <use xlink:href="#NotoSansSC-Thin-2e" transform="translate(104.199982 0)"/>
     <use xlink:href="#NotoSansSC-Thin-33" transform="translate(127.299973 0)"/>
     <use xlink:href="#NotoSansSC-Thin-25" transform="translate(179.399963 0)"/>
    </g>
   </g>
   <g id="text_21">
    <!-- +10.5% -->
    <g style="fill: #10b981" transform="translate(146.646799 73.317849) scale(0.08 -0.08)">
     <use xlink:href="#NotoSansSC-Thin-2b"/>
     <use xlink:href="#NotoSansSC-Thin-31" transform="translate(52.099991 0)"/>
     <use xlink:href="#NotoSansSC-Thin-30" transform="translate(104.199982 0)"/>
     <use xlink:href="#NotoSansSC-Thin-2e" transform="translate(156.299973 0)"/>
     <use xlink:href="#NotoSansSC-Thin-35" transform="translate(179.399963 0)"/>
     <use xlink:href="#NotoSansSC-Thin-25" transform="translate(231.499954 0)"/>
    </g>
   </g>
   <g id="text_22">
    <!-- +6.6% -->
    <g style="fill: #10b981" transform="translate(181.160781 89.497048) scale(0.08 -0.08)">
     <use xlink:href="#NotoSansSC-Thin-2b"/>
     <use xlink:href="#NotoSansSC-Thin-36" transform="translate(52.099991 0)"/>
     <use xlink:href="#NotoSansSC-Thin-2e" transform="translate(104.199982 0)"/>
     <use xlink:href="#NotoSansSC-Thin-36" transform="translate(127.299973 0)"/>
     <use xlink:href="#NotoSansSC-Thin-25" transform="translate(179.399963 0)"/>
    </g>
   </g>
   <g id="text_23">
    <!-- +7.6% -->
    <g style="fill: #10b981" transform="translate(213.591014 85.348535) scale(0.08 -0.08)">
     <defs>
      <path id="NotoSansSC-Thin-37" d="M 1344 0 
Q 1376 717 1462 1318 
Q 1549 1920 1712 2445 
Q 1875 2970 2124 3459 
Q 2374 3949 2726 4435 
L 307 4435 
L 307 4646 
L 3034 4646 
L 3034 4512 
Q 2624 3955 2355 3436 
Q 2086 2918 1932 2384 
Q 1779 1850 1705 1267 
Q 1632 685 1606 0 
L 1344 0 
z
" transform="scale(0.015625)"/>
     </defs>
     <use xlink:href="#NotoSansSC-Thin-2b"/>
     <use xlink:href="#NotoSansSC-Thin-37" transform="translate(52.099991 0)"/>
     <use xlink:href="#NotoSansSC-Thin-2e" transform="translate(104.199982 0)"/>
     <use xlink:href="#NotoSansSC-Thin-36" transform="translate(127.299973 0)"/>
     <use xlink:href="#NotoSansSC-Thin-25" transform="translate(179.399963 0)"/>
    </g>
   </g>
   <g id="text_24">
    <!-- -1.2% -->
    <g style="fill: #ef4444" transform="translate(246.808746 137.619018) scale(0.08 -0.08)">
     <use xlink:href="#NotoSansSC-Thin-2d"/>
     <use xlink:href="#NotoSansSC-Thin-31" transform="translate(32.399994 0)"/>
     <use xlink:href="#NotoSansSC-Thin-2e" transform="translate(84.499985 0)"/>
     <use xlink:href="#NotoSansSC-Thin-32" transform="translate(107.599976 0)"/>
     <use xlink:href="#NotoSansSC-Thin-25" transform="translate(159.699966 0)"/>
    </g>
   </g>
   <g id="text_25">
    <!-- -5.6% -->
    <g style="fill: #ef4444" transform="translate(279.238979 155.872473) scale(0.08 -0.08)">
     <use xlink:href="#NotoSansSC-Thin-2d"/>
     <use xlink:href="#NotoSansSC-Thin-35" transform="translate(32.399994 0)"/>
     <use xlink:href="#NotoSansSC-Thin-2e" transform="translate(84.499985 0)"/>
     <use xlink:href="#NotoSansSC-Thin-36" transform="translate(107.599976 0)"/>
     <use xlink:href="#NotoSansSC-Thin-25" transform="translate(159.699966 0)"/>
    </g>
   </g>
   <g id="text_26">
    <!-- -4.7% -->
    <g style="fill: #ef4444" transform="translate(311.669211 152.138811) scale(0.08 -0.08)">
     <defs>
      <path id="NotoSansSC-Thin-34" d="M 2195 0 
L 2195 3482 
Q 2195 3629 2204 3843 
Q 2214 4058 2227 4205 
L 2195 4205 
Q 2112 4058 2019 3901 
Q 1926 3744 1830 3590 
L 422 1568 
L 3110 1568 
L 3110 1363 
L 115 1363 
L 115 1485 
L 2259 4646 
L 2419 4646 
L 2419 0 
L 2195 0 
z
" transform="scale(0.015625)"/>
     </defs>
     <use xlink:href="#NotoSansSC-Thin-2d"/>
     <use xlink:href="#NotoSansSC-Thin-34" transform="translate(32.399994 0)"/>
     <use xlink:href="#NotoSansSC-Thin-2e" transform="translate(84.499985 0)"/>
     <use xlink:href="#NotoSansSC-Thin-37" transform="translate(107.599976 0)"/>
     <use xlink:href="#NotoSansSC-Thin-25" transform="translate(159.699966 0)"/>
    </g>
   </g>
   <g id="text_27">
    <!-- 数据来源：CNBC · 各公司公告 · 高盛研报 -->
    <g style="fill: #64748b" transform="translate(114.071406 193.043145) scale(0.08 -0.08)">
     <defs>
      <path id="NotoSansSC-Thin-6570" d="M 512 1990 
L 2970 1990 
L 2970 1798 
L 512 1798 
L 512 1990 
z
M 365 4064 
L 3386 4064 
L 3386 3878 
L 365 3878 
L 365 4064 
z
M 2957 5146 
L 3123 5050 
Q 3002 4826 2845 4586 
Q 2688 4346 2554 4173 
L 2419 4256 
Q 2509 4371 2608 4531 
Q 2707 4691 2800 4854 
Q 2893 5018 2957 5146 
z
M 1792 5318 
L 1984 5318 
L 1984 2611 
L 1792 2611 
L 1792 5318 
z
M 691 5043 
L 845 5101 
Q 992 4902 1117 4662 
Q 1242 4422 1286 4250 
L 1139 4179 
Q 1088 4352 960 4598 
Q 832 4845 691 5043 
z
M 1792 3987 
L 1946 3904 
Q 1798 3622 1561 3344 
Q 1325 3066 1046 2832 
Q 768 2598 486 2445 
Q 467 2490 428 2538 
Q 390 2586 358 2618 
Q 634 2746 909 2960 
Q 1184 3174 1417 3443 
Q 1651 3712 1792 3987 
z
M 1946 3866 
Q 2029 3814 2205 3696 
Q 2381 3578 2585 3443 
Q 2790 3309 2960 3190 
Q 3130 3072 3200 3021 
L 3072 2854 
Q 2995 2925 2832 3049 
Q 2669 3174 2473 3315 
Q 2278 3456 2105 3574 
Q 1933 3693 1830 3750 
L 1946 3866 
z
M 3962 4013 
L 5997 4013 
L 5997 3827 
L 3962 3827 
L 3962 4013 
z
M 4128 5222 
L 4314 5190 
Q 4218 4614 4083 4086 
Q 3949 3558 3766 3100 
Q 3584 2643 3354 2285 
Q 3341 2298 3309 2320 
Q 3277 2342 3241 2361 
Q 3206 2381 3181 2394 
Q 3424 2733 3603 3184 
Q 3782 3635 3913 4153 
Q 4045 4672 4128 5222 
z
M 5357 3936 
L 5549 3910 
Q 5382 2829 5084 2006 
Q 4787 1184 4291 579 
Q 3795 -26 3040 -454 
Q 3027 -435 3004 -406 
Q 2982 -378 2956 -349 
Q 2931 -320 2906 -301 
Q 3654 90 4140 678 
Q 4627 1267 4915 2076 
Q 5203 2886 5357 3936 
z
M 3994 3789 
Q 4147 2874 4425 2070 
Q 4704 1267 5133 668 
Q 5562 70 6150 -243 
Q 6112 -269 6073 -313 
Q 6035 -358 6010 -397 
Q 5414 -51 4985 563 
Q 4557 1178 4275 1997 
Q 3994 2816 3834 3757 
L 3994 3789 
z
M 896 1018 
L 1050 1152 
Q 1370 1037 1722 873 
Q 2074 710 2387 544 
Q 2701 378 2906 230 
L 2752 90 
Q 2554 237 2240 406 
Q 1926 576 1574 739 
Q 1222 902 896 1018 
z
M 2880 1990 
L 2918 1990 
L 2963 2003 
L 3066 1946 
Q 2874 1286 2474 825 
Q 2074 365 1552 80 
Q 1030 -205 467 -358 
Q 454 -320 422 -272 
Q 390 -224 358 -198 
Q 902 -64 1411 205 
Q 1920 474 2310 906 
Q 2701 1338 2880 1946 
L 2880 1990 
z
M 896 1018 
Q 1030 1210 1168 1453 
Q 1306 1696 1427 1952 
Q 1549 2208 1632 2438 
L 1811 2406 
Q 1722 2170 1597 1910 
Q 1472 1651 1341 1414 
Q 1210 1178 1094 1005 
L 896 1018 
z
" transform="scale(0.015625)"/>
      <path id="NotoSansSC-Thin-636e" d="M 2714 5011 
L 5843 5011 
L 5843 3558 
L 2714 3558 
L 2714 3744 
L 5651 3744 
L 5651 4826 
L 2714 4826 
L 2714 5011 
z
M 2618 5011 
L 2803 5011 
L 2803 3104 
Q 2803 2714 2777 2256 
Q 2752 1798 2675 1328 
Q 2598 858 2441 406 
Q 2285 -45 2022 -429 
Q 2003 -410 1974 -394 
Q 1946 -378 1914 -358 
Q 1882 -339 1856 -333 
Q 2118 51 2268 486 
Q 2419 922 2496 1379 
Q 2573 1837 2595 2278 
Q 2618 2720 2618 3104 
L 2618 5011 
z
M 2765 2714 
L 6106 2714 
L 6106 2522 
L 2765 2522 
L 2765 2714 
z
M 3187 64 
L 5702 64 
L 5702 -122 
L 3187 -122 
L 3187 64 
z
M 4352 3597 
L 4544 3597 
L 4544 1472 
L 4352 1472 
L 4352 3597 
z
M 3085 1549 
L 5856 1549 
L 5856 -422 
L 5664 -422 
L 5664 1363 
L 3277 1363 
L 3277 -461 
L 3085 -461 
L 3085 1549 
z
M 237 1760 
Q 602 1882 1126 2064 
Q 1651 2246 2195 2445 
L 2227 2253 
Q 1722 2074 1219 1891 
Q 717 1709 320 1562 
L 237 1760 
z
M 301 3949 
L 2227 3949 
L 2227 3757 
L 301 3757 
L 301 3949 
z
M 1229 5312 
L 1421 5312 
L 1421 -147 
Q 1421 -275 1376 -332 
Q 1331 -390 1242 -416 
Q 1158 -442 988 -448 
Q 819 -454 518 -448 
Q 512 -416 489 -365 
Q 467 -314 442 -269 
Q 685 -275 870 -275 
Q 1056 -275 1114 -269 
Q 1171 -269 1200 -243 
Q 1229 -218 1229 -147 
L 1229 5312 
z
" transform="scale(0.015625)"/>
      <path id="NotoSansSC-Thin-6765" d="M 397 2432 
L 6016 2432 
L 6016 2246 
L 397 2246 
L 397 2432 
z
M 704 4467 
L 5734 4467 
L 5734 4282 
L 704 4282 
L 704 4467 
z
M 3091 5306 
L 3283 5306 
L 3283 -448 
L 3091 -448 
L 3091 5306 
z
M 4979 4026 
L 5171 3949 
Q 5062 3725 4928 3475 
Q 4794 3226 4656 2995 
Q 4518 2765 4390 2586 
L 4237 2656 
Q 4365 2835 4502 3078 
Q 4640 3322 4768 3574 
Q 4896 3827 4979 4026 
z
M 1312 3923 
L 1478 3981 
Q 1619 3782 1753 3548 
Q 1888 3315 1993 3094 
Q 2099 2874 2144 2701 
L 1971 2624 
Q 1920 2797 1817 3024 
Q 1715 3251 1584 3488 
Q 1453 3725 1312 3923 
z
M 2963 2374 
L 3123 2298 
Q 2893 1926 2579 1571 
Q 2266 1216 1901 896 
Q 1536 576 1161 317 
Q 787 58 429 -115 
Q 416 -90 390 -64 
Q 365 -38 339 -12 
Q 314 13 288 32 
Q 646 192 1024 445 
Q 1402 698 1763 1011 
Q 2125 1325 2435 1673 
Q 2746 2022 2963 2374 
z
M 3411 2381 
Q 3635 2029 3952 1677 
Q 4269 1325 4637 1005 
Q 5005 685 5389 432 
Q 5773 179 6138 13 
Q 6118 -6 6092 -35 
Q 6067 -64 6041 -89 
Q 6016 -115 5997 -141 
Q 5638 32 5254 297 
Q 4870 563 4499 889 
Q 4128 1216 3808 1577 
Q 3488 1939 3258 2304 
L 3411 2381 
z
" transform="scale(0.015625)"/>
      <path id="NotoSansSC-Thin-6e90" d="M 2304 5024 
L 6035 5024 
L 6035 4838 
L 2304 4838 
L 2304 5024 
z
M 2214 5024 
L 2406 5024 
L 2406 3283 
Q 2406 2874 2377 2400 
Q 2349 1926 2262 1436 
Q 2176 947 2006 476 
Q 1837 6 1555 -397 
Q 1542 -378 1513 -358 
Q 1485 -339 1456 -320 
Q 1427 -301 1402 -294 
Q 1677 102 1840 560 
Q 2003 1018 2083 1491 
Q 2163 1965 2188 2422 
Q 2214 2880 2214 3283 
L 2214 5024 
z
M 3110 2765 
L 3110 1990 
L 5542 1990 
L 5542 2765 
L 3110 2765 
z
M 3110 3718 
L 3110 2957 
L 5542 2957 
L 5542 3718 
L 3110 3718 
z
M 2925 3910 
L 5728 3910 
L 5728 1798 
L 2925 1798 
L 2925 3910 
z
M 3270 1338 
L 3456 1286 
Q 3341 1050 3193 810 
Q 3046 570 2886 355 
Q 2726 141 2566 -26 
Q 2554 -6 2522 13 
Q 2490 32 2458 57 
Q 2426 83 2400 96 
Q 2650 339 2880 665 
Q 3110 992 3270 1338 
z
M 5075 1293 
L 5242 1363 
Q 5395 1165 5555 937 
Q 5715 710 5856 499 
Q 5997 288 6086 134 
L 5907 38 
Q 5824 198 5683 412 
Q 5542 627 5385 860 
Q 5229 1094 5075 1293 
z
M 4218 4634 
L 4410 4570 
Q 4346 4365 4272 4144 
Q 4198 3923 4128 3770 
L 3981 3827 
Q 4038 3994 4108 4227 
Q 4179 4461 4218 4634 
z
M 4211 1939 
L 4397 1939 
L 4397 -173 
Q 4397 -282 4361 -336 
Q 4326 -390 4237 -416 
Q 4141 -442 3939 -448 
Q 3738 -454 3398 -448 
Q 3392 -416 3373 -368 
Q 3354 -320 3328 -275 
Q 3616 -282 3824 -282 
Q 4032 -282 4096 -282 
Q 4211 -275 4211 -173 
L 4211 1939 
z
M 627 5101 
L 749 5222 
Q 934 5107 1139 4972 
Q 1344 4838 1526 4707 
Q 1709 4576 1830 4480 
L 1715 4326 
Q 1594 4429 1408 4563 
Q 1222 4698 1017 4842 
Q 813 4986 627 5101 
z
M 307 3379 
L 422 3507 
Q 614 3405 822 3280 
Q 1030 3155 1219 3036 
Q 1408 2918 1536 2822 
L 1427 2669 
Q 1299 2765 1110 2889 
Q 922 3014 710 3145 
Q 499 3277 307 3379 
z
M 493 -224 
Q 646 26 832 374 
Q 1018 723 1203 1110 
Q 1389 1498 1542 1843 
L 1690 1728 
Q 1549 1395 1369 1020 
Q 1190 646 1004 288 
Q 819 -70 653 -352 
L 493 -224 
z
" transform="scale(0.015625)"/>
      <path id="NotoSansSC-Thin-ff1a" d="M 1600 3213 
Q 1466 3213 1354 3302 
Q 1242 3392 1242 3571 
Q 1242 3750 1354 3840 
Q 1466 3930 1600 3930 
Q 1734 3930 1846 3840 
Q 1958 3750 1958 3571 
Q 1958 3392 1846 3302 
Q 1734 3213 1600 3213 
z
M 1600 0 
Q 1466 0 1354 89 
Q 1242 179 1242 358 
Q 1242 538 1354 627 
Q 1466 717 1600 717 
Q 1734 717 1846 627 
Q 1958 538 1958 358 
Q 1958 179 1846 89 
Q 1734 0 1600 0 
z
" transform="scale(0.015625)"/>
      <path id="NotoSansSC-Thin-b7" d="M 3200 2976 
Q 3354 2976 3475 2902 
Q 3597 2829 3670 2707 
Q 3744 2586 3744 2432 
Q 3744 2285 3670 2160 
Q 3597 2035 3475 1961 
Q 3354 1888 3200 1888 
Q 3053 1888 2928 1961 
Q 2803 2035 2729 2160 
Q 2656 2285 2656 2432 
Q 2656 2586 2729 2707 
Q 2803 2829 2928 2902 
Q 3053 2976 3200 2976 
z
" transform="scale(0.015625)"/>
      <path id="NotoSansSC-Thin-5404" d="M 1440 51 
L 4915 51 
L 4915 -134 
L 1440 -134 
L 1440 51 
z
M 2464 5350 
L 2650 5286 
Q 2394 4870 2061 4489 
Q 1728 4109 1353 3789 
Q 979 3469 595 3226 
Q 582 3245 553 3267 
Q 525 3290 493 3315 
Q 461 3341 435 3354 
Q 832 3590 1206 3904 
Q 1581 4218 1907 4586 
Q 2234 4954 2464 5350 
z
M 4813 4589 
L 4858 4589 
L 4896 4602 
L 5011 4512 
Q 4659 3968 4115 3504 
Q 3571 3040 2921 2672 
Q 2272 2304 1597 2038 
Q 922 1773 314 1619 
Q 307 1651 291 1683 
Q 275 1715 256 1747 
Q 237 1779 218 1792 
Q 698 1901 1222 2086 
Q 1747 2272 2272 2528 
Q 2797 2784 3277 3097 
Q 3757 3411 4153 3776 
Q 4550 4141 4813 4550 
L 4813 4589 
z
M 1798 4365 
Q 2131 3923 2608 3520 
Q 3085 3117 3657 2781 
Q 4230 2445 4857 2192 
Q 5485 1939 6112 1792 
Q 6093 1773 6067 1744 
Q 6042 1715 6022 1686 
Q 6003 1658 5984 1632 
Q 5363 1792 4739 2051 
Q 4115 2310 3536 2656 
Q 2957 3002 2473 3414 
Q 1990 3827 1645 4288 
L 1798 4365 
z
M 1331 1734 
L 4992 1734 
L 4992 -474 
L 4806 -474 
L 4806 1542 
L 1517 1542 
L 1517 -493 
L 1331 -493 
L 1331 1734 
z
M 1990 4589 
L 4877 4589 
L 4877 4397 
L 1875 4397 
L 1990 4589 
z
" transform="scale(0.015625)"/>
      <path id="NotoSansSC-Thin-516c" d="M 4013 1779 
L 4179 1862 
Q 4480 1530 4790 1142 
Q 5101 755 5369 390 
Q 5638 26 5798 -256 
L 5626 -358 
Q 5459 -70 5193 304 
Q 4928 678 4621 1065 
Q 4314 1453 4013 1779 
z
M 2246 5088 
L 2426 5037 
Q 2208 4512 1917 4032 
Q 1626 3552 1286 3142 
Q 947 2733 576 2413 
Q 557 2432 528 2457 
Q 499 2483 467 2508 
Q 435 2534 410 2547 
Q 787 2848 1129 3251 
Q 1472 3654 1757 4121 
Q 2042 4589 2246 5088 
z
M 4090 5139 
Q 4262 4774 4502 4400 
Q 4742 4026 5017 3680 
Q 5293 3334 5577 3046 
Q 5862 2758 6118 2566 
Q 6093 2547 6064 2515 
Q 6035 2483 6006 2457 
Q 5978 2432 5952 2406 
Q 5696 2618 5414 2918 
Q 5133 3219 4857 3577 
Q 4582 3936 4339 4317 
Q 4096 4698 3910 5062 
L 4090 5139 
z
M 1101 70 
Q 1094 96 1081 134 
Q 1069 173 1056 211 
Q 1043 250 1024 275 
Q 1120 294 1264 451 
Q 1408 608 1574 838 
Q 1664 947 1843 1200 
Q 2022 1453 2249 1795 
Q 2477 2138 2713 2531 
Q 2950 2925 3155 3322 
L 3341 3232 
Q 3034 2682 2704 2131 
Q 2374 1581 2025 1088 
Q 1677 595 1312 205 
L 1312 198 
Q 1312 198 1280 188 
Q 1248 179 1206 163 
Q 1165 147 1133 124 
Q 1101 102 1101 70 
z
M 1101 70 
L 1101 224 
L 1299 326 
L 5190 525 
Q 5197 486 5209 432 
Q 5222 378 5229 346 
Q 4307 294 3651 259 
Q 2995 224 2553 198 
Q 2112 173 1840 153 
Q 1568 134 1421 121 
Q 1274 109 1206 96 
Q 1139 83 1101 70 
z
" transform="scale(0.015625)"/>
      <path id="NotoSansSC-Thin-53f8" d="M 621 4877 
L 5510 4877 
L 5510 4685 
L 621 4685 
L 621 4877 
z
M 646 3795 
L 4576 3795 
L 4576 3610 
L 646 3610 
L 646 3795 
z
M 5395 4877 
L 5574 4877 
L 5574 13 
Q 5574 -154 5526 -234 
Q 5478 -314 5344 -346 
Q 5210 -371 4918 -374 
Q 4627 -378 4205 -378 
Q 4198 -346 4182 -310 
Q 4166 -275 4150 -233 
Q 4134 -192 4115 -160 
Q 4378 -166 4608 -166 
Q 4838 -166 5004 -163 
Q 5171 -160 5242 -160 
Q 5331 -154 5363 -118 
Q 5395 -83 5395 6 
L 5395 4877 
z
M 1133 2701 
L 1318 2701 
L 1318 294 
L 1133 294 
L 1133 2701 
z
M 1229 2701 
L 4019 2701 
L 4019 781 
L 1229 781 
L 1229 966 
L 3834 966 
L 3834 2509 
L 1229 2509 
L 1229 2701 
z
" transform="scale(0.015625)"/>
      <path id="NotoSansSC-Thin-544a" d="M 403 2835 
L 6022 2835 
L 6022 2650 
L 403 2650 
L 403 2835 
z
M 1402 4301 
L 5472 4301 
L 5472 4115 
L 1402 4115 
L 1402 4301 
z
M 1382 58 
L 5082 58 
L 5082 -128 
L 1382 -128 
L 1382 58 
z
M 3226 5318 
L 3411 5318 
L 3411 2746 
L 3226 2746 
L 3226 5318 
z
M 1261 1837 
L 5152 1837 
L 5152 -544 
L 4979 -544 
L 4979 1651 
L 1440 1651 
L 1440 -544 
L 1261 -544 
L 1261 1837 
z
M 1760 5222 
L 1946 5178 
Q 1805 4781 1616 4406 
Q 1427 4032 1216 3702 
Q 1005 3373 774 3110 
Q 762 3123 730 3145 
Q 698 3168 662 3190 
Q 627 3213 602 3226 
Q 960 3597 1261 4128 
Q 1562 4659 1760 5222 
z
" transform="scale(0.015625)"/>
      <path id="NotoSansSC-Thin-76db" d="M 339 -122 
L 6048 -122 
L 6048 -314 
L 339 -314 
L 339 -122 
z
M 1082 4570 
L 5907 4570 
L 5907 4378 
L 1082 4378 
L 1082 4570 
z
M 1030 3661 
L 2733 3661 
L 2733 3475 
L 1030 3475 
L 1030 3661 
z
M 1158 1536 
L 5267 1536 
L 5267 -198 
L 5082 -198 
L 5082 1350 
L 3955 1350 
L 3955 -198 
L 3763 -198 
L 3763 1350 
L 2643 1350 
L 2643 -198 
L 2451 -198 
L 2451 1350 
L 1344 1350 
L 1344 -198 
L 1158 -198 
L 1158 1536 
z
M 979 4570 
L 1165 4570 
L 1165 3731 
Q 1165 3494 1139 3212 
Q 1114 2931 1043 2640 
Q 973 2349 841 2067 
Q 710 1786 506 1536 
Q 493 1562 467 1587 
Q 442 1613 416 1638 
Q 390 1664 365 1677 
Q 627 1990 758 2352 
Q 890 2714 934 3072 
Q 979 3430 979 3731 
L 979 4570 
z
M 2637 3661 
L 2822 3661 
Q 2822 3661 2822 3619 
Q 2822 3578 2816 3546 
Q 2790 3104 2764 2832 
Q 2739 2560 2700 2419 
Q 2662 2278 2605 2214 
Q 2554 2170 2486 2144 
Q 2419 2118 2304 2118 
Q 2208 2112 2022 2118 
Q 1837 2125 1626 2138 
Q 1619 2182 1606 2233 
Q 1594 2285 1568 2323 
Q 1798 2304 1993 2297 
Q 2189 2291 2259 2291 
Q 2330 2291 2378 2300 
Q 2426 2310 2451 2342 
Q 2522 2406 2560 2688 
Q 2598 2970 2637 3629 
L 2637 3661 
z
M 3290 5318 
L 3482 5318 
Q 3520 4589 3718 3968 
Q 3917 3347 4214 2889 
Q 4512 2432 4854 2179 
Q 5197 1926 5517 1933 
Q 5664 1939 5725 2128 
Q 5786 2317 5811 2784 
Q 5850 2758 5894 2736 
Q 5939 2714 5984 2701 
Q 5965 2342 5913 2131 
Q 5862 1920 5766 1833 
Q 5670 1747 5510 1747 
Q 5139 1747 4764 2022 
Q 4390 2298 4070 2790 
Q 3750 3283 3542 3932 
Q 3334 4582 3290 5318 
z
M 5261 4122 
L 5446 4058 
Q 5184 3597 4813 3193 
Q 4442 2790 4010 2464 
Q 3578 2138 3123 1888 
Q 3110 1907 3081 1932 
Q 3053 1958 3021 1984 
Q 2989 2010 2963 2029 
Q 3661 2374 4275 2915 
Q 4890 3456 5261 4122 
z
M 4134 5210 
L 4282 5299 
Q 4480 5184 4685 5021 
Q 4890 4858 5005 4730 
L 4851 4614 
Q 4730 4749 4525 4918 
Q 4320 5088 4134 5210 
z
" transform="scale(0.015625)"/>
      <path id="NotoSansSC-Thin-7814" d="M 2938 4928 
L 5958 4928 
L 5958 4742 
L 2938 4742 
L 2938 4928 
z
M 2746 2630 
L 6086 2630 
L 6086 2438 
L 2746 2438 
L 2746 2630 
z
M 5120 4883 
L 5306 4883 
L 5306 -454 
L 5120 -454 
L 5120 4883 
z
M 3558 4858 
L 3744 4858 
L 3744 2547 
Q 3744 2144 3712 1744 
Q 3680 1344 3587 960 
Q 3494 576 3312 217 
Q 3130 -141 2822 -461 
Q 2803 -442 2777 -422 
Q 2752 -403 2723 -384 
Q 2694 -365 2662 -352 
Q 2963 -45 3139 304 
Q 3315 653 3408 1030 
Q 3501 1408 3529 1792 
Q 3558 2176 3558 2547 
L 3558 4858 
z
M 371 4915 
L 2547 4915 
L 2547 4730 
L 371 4730 
L 371 4915 
z
M 941 2970 
L 2400 2970 
L 2400 384 
L 941 384 
L 941 570 
L 2208 570 
L 2208 2778 
L 941 2778 
L 941 2970 
z
M 1306 4845 
L 1498 4813 
Q 1395 4211 1244 3657 
Q 1094 3104 896 2630 
Q 698 2157 435 1786 
Q 422 1805 390 1827 
Q 358 1850 326 1872 
Q 294 1894 269 1907 
Q 666 2438 915 3206 
Q 1165 3974 1306 4845 
z
M 851 2970 
L 1037 2970 
L 1037 -166 
L 851 -166 
L 851 2970 
z
" transform="scale(0.015625)"/>
      <path id="NotoSansSC-Thin-62a5" d="M 2906 2957 
L 5702 2957 
L 5702 2765 
L 2906 2765 
L 2906 2957 
z
M 3469 2886 
Q 3718 2208 4115 1584 
Q 4512 960 5017 480 
Q 5523 0 6093 -262 
Q 6067 -282 6041 -310 
Q 6016 -339 5990 -368 
Q 5965 -397 5946 -422 
Q 5382 -134 4873 362 
Q 4365 858 3965 1494 
Q 3565 2131 3309 2829 
L 3469 2886 
z
M 5632 2957 
L 5670 2957 
L 5715 2970 
L 5843 2912 
Q 5664 2246 5309 1603 
Q 4954 960 4454 429 
Q 3955 -102 3328 -448 
Q 3302 -422 3264 -387 
Q 3226 -352 3194 -326 
Q 3648 -77 4041 284 
Q 4435 646 4748 1081 
Q 5062 1517 5286 1981 
Q 5510 2445 5632 2899 
L 5632 2957 
z
M 5402 5107 
L 5587 5107 
Q 5587 5107 5587 5062 
Q 5587 5018 5581 4986 
Q 5555 4307 5507 4012 
Q 5459 3718 5363 3629 
Q 5299 3571 5225 3548 
Q 5152 3526 5005 3520 
Q 4864 3514 4569 3520 
Q 4275 3526 3936 3552 
Q 3930 3597 3914 3641 
Q 3898 3686 3866 3731 
Q 4102 3712 4326 3702 
Q 4550 3693 4716 3689 
Q 4883 3686 4941 3686 
Q 5050 3686 5114 3696 
Q 5178 3706 5216 3731 
Q 5267 3782 5299 3923 
Q 5331 4064 5356 4342 
Q 5382 4621 5402 5075 
L 5402 5107 
z
M 262 1792 
Q 538 1875 886 1980 
Q 1235 2086 1625 2211 
Q 2016 2336 2413 2464 
L 2432 2291 
Q 1882 2106 1331 1920 
Q 781 1734 346 1600 
L 262 1792 
z
M 358 3949 
L 2400 3949 
L 2400 3757 
L 358 3757 
L 358 3949 
z
M 1376 5312 
L 1562 5312 
L 1562 -115 
Q 1562 -262 1510 -326 
Q 1459 -390 1357 -416 
Q 1254 -442 1043 -448 
Q 832 -454 454 -454 
Q 448 -422 425 -368 
Q 403 -314 371 -269 
Q 691 -275 924 -275 
Q 1158 -275 1222 -269 
Q 1306 -262 1341 -233 
Q 1376 -205 1376 -122 
L 1376 5312 
z
M 2797 5107 
L 5459 5107 
L 5459 4915 
L 2989 4915 
L 2989 -448 
L 2797 -448 
L 2797 5107 
z
" transform="scale(0.015625)"/>
     </defs>
     <use xlink:href="#NotoSansSC-Thin-6570"/>
     <use xlink:href="#NotoSansSC-Thin-636e" transform="translate(99.999985 0)"/>
     <use xlink:href="#NotoSansSC-Thin-6765" transform="translate(199.999969 0)"/>
     <use xlink:href="#NotoSansSC-Thin-6e90" transform="translate(299.999954 0)"/>
     <use xlink:href="#NotoSansSC-Thin-ff1a" transform="translate(399.999939 0)"/>
     <use xlink:href="#NotoSansSC-Thin-43" transform="translate(499.999924 0)"/>
     <use xlink:href="#NotoSansSC-Thin-4e" transform="translate(561.899918 0)"/>
     <use xlink:href="#NotoSansSC-Thin-42" transform="translate(631.499908 0)"/>
     <use xlink:href="#NotoSansSC-Thin-43" transform="translate(694.699905 0)"/>
     <use xlink:href="#NotoSansSC-Thin-20" transform="translate(756.599899 0)"/>
     <use xlink:href="#NotoSansSC-Thin-b7" transform="translate(778.599884 0)"/>
     <use xlink:href="#NotoSansSC-Thin-20" transform="translate(878.599869 0)"/>
     <use xlink:href="#NotoSansSC-Thin-5404" transform="translate(900.599854 0)"/>
     <use xlink:href="#NotoSansSC-Thin-516c" transform="translate(1000.599838 0)"/>
     <use xlink:href="#NotoSansSC-Thin-53f8" transform="translate(1100.599823 0)"/>
     <use xlink:href="#NotoSansSC-Thin-516c" transform="translate(1200.599808 0)"/>
     <use xlink:href="#NotoSansSC-Thin-544a" transform="translate(1300.599792 0)"/>
     <use xlink:href="#NotoSansSC-Thin-20" transform="translate(1400.599777 0)"/>
     <use xlink:href="#NotoSansSC-Thin-b7" transform="translate(1422.599762 0)"/>
     <use xlink:href="#NotoSansSC-Thin-20" transform="translate(1522.599747 0)"/>
     <use xlink:href="#NotoSansSC-Thin-9ad8" transform="translate(1544.599731 0)"/>
     <use xlink:href="#NotoSansSC-Thin-76db" transform="translate(1644.599716 0)"/>
     <use xlink:href="#NotoSansSC-Thin-7814" transform="translate(1744.599701 0)"/>
     <use xlink:href="#NotoSansSC-Thin-62a5" transform="translate(1844.599686 0)"/>
    </g>
   </g>
   <g id="text_28">
    <!-- 芯片板块隔夜涨跌幅 — GTC Taipei后 -->
    <g style="fill: #1e293b" transform="translate(87.109297 18.042813) scale(0.13 -0.13)">
     <defs>
      <path id="NotoSansSC-Thin-82af" d="M 442 4416 
L 5946 4416 
L 5946 4230 
L 442 4230 
L 442 4416 
z
M 2022 5318 
L 2208 5318 
L 2208 3424 
L 2022 3424 
L 2022 5318 
z
M 4179 5318 
L 4365 5318 
L 4365 3424 
L 4179 3424 
L 4179 5318 
z
M 1958 2573 
L 2144 2573 
L 2144 147 
Q 2144 -19 2240 -73 
Q 2336 -128 2643 -128 
Q 2720 -128 2931 -128 
Q 3142 -128 3404 -128 
Q 3667 -128 3894 -128 
Q 4122 -128 4224 -128 
Q 4422 -128 4518 -48 
Q 4614 32 4656 272 
Q 4698 512 4717 979 
Q 4749 960 4781 941 
Q 4813 922 4848 909 
Q 4883 896 4909 883 
Q 4890 403 4832 144 
Q 4774 -115 4636 -217 
Q 4499 -320 4218 -320 
Q 4179 -320 4019 -320 
Q 3859 -320 3648 -320 
Q 3437 -320 3225 -320 
Q 3014 -320 2857 -320 
Q 2701 -320 2669 -320 
Q 2394 -320 2240 -285 
Q 2086 -250 2022 -147 
Q 1958 -45 1958 154 
L 1958 2573 
z
M 5043 2246 
L 5210 2304 
Q 5382 1965 5545 1581 
Q 5709 1197 5837 841 
Q 5965 486 6029 230 
L 5856 154 
Q 5792 416 5661 777 
Q 5530 1139 5370 1526 
Q 5210 1914 5043 2246 
z
M 1146 2234 
L 1318 2182 
Q 1242 1869 1120 1497 
Q 998 1126 841 774 
Q 685 422 486 160 
L 307 243 
Q 512 506 675 851 
Q 838 1197 956 1561 
Q 1075 1926 1146 2234 
z
M 2816 3469 
L 2976 3533 
Q 3168 3245 3350 2915 
Q 3533 2586 3683 2275 
Q 3834 1965 3917 1734 
L 3744 1651 
Q 3667 1882 3516 2198 
Q 3366 2515 3184 2848 
Q 3002 3181 2816 3469 
z
" transform="scale(0.015625)"/>
      <path id="NotoSansSC-Thin-7247" d="M 1370 3597 
L 5805 3597 
L 5805 3405 
L 1370 3405 
L 1370 3597 
z
M 3526 5306 
L 3712 5306 
L 3712 3469 
L 3526 3469 
L 3526 5306 
z
M 1267 5120 
L 1459 5120 
L 1459 3021 
Q 1459 2554 1427 2093 
Q 1395 1632 1299 1193 
Q 1203 755 1008 345 
Q 813 -64 486 -435 
Q 474 -416 448 -397 
Q 422 -378 393 -355 
Q 365 -333 339 -320 
Q 762 160 957 704 
Q 1152 1248 1209 1833 
Q 1267 2419 1267 3014 
L 1267 5120 
z
M 1350 2176 
L 4582 2176 
L 4582 -454 
L 4390 -454 
L 4390 1990 
L 1350 1990 
L 1350 2176 
z
" transform="scale(0.015625)"/>
      <path id="NotoSansSC-Thin-677f" d="M 442 4038 
L 2477 4038 
L 2477 3853 
L 442 3853 
L 442 4038 
z
M 1446 5318 
L 1632 5318 
L 1632 -435 
L 1446 -435 
L 1446 5318 
z
M 1434 3987 
L 1600 3942 
Q 1517 3558 1389 3145 
Q 1261 2733 1104 2333 
Q 947 1933 774 1590 
Q 602 1248 429 1011 
Q 416 1037 390 1065 
Q 365 1094 336 1120 
Q 307 1146 282 1158 
Q 454 1382 624 1708 
Q 794 2035 950 2419 
Q 1107 2803 1232 3206 
Q 1357 3610 1434 3987 
z
M 1594 3610 
Q 1645 3546 1757 3382 
Q 1869 3219 1993 3024 
Q 2118 2829 2227 2665 
Q 2336 2502 2381 2426 
L 2240 2259 
Q 2189 2355 2086 2534 
Q 1984 2714 1865 2912 
Q 1747 3110 1641 3273 
Q 1536 3437 1478 3514 
L 1594 3610 
z
M 2784 4602 
L 2976 4602 
L 2976 3002 
Q 2976 2618 2947 2176 
Q 2918 1734 2835 1273 
Q 2752 813 2592 371 
Q 2432 -70 2163 -448 
Q 2144 -429 2115 -409 
Q 2086 -390 2060 -371 
Q 2035 -352 2010 -346 
Q 2272 32 2429 457 
Q 2586 883 2662 1331 
Q 2739 1779 2761 2208 
Q 2784 2637 2784 3008 
L 2784 4602 
z
M 2893 3302 
L 5574 3302 
L 5574 3110 
L 2893 3110 
L 2893 3302 
z
M 5517 3302 
L 5555 3302 
L 5587 3315 
L 5709 3264 
Q 5498 2266 5069 1533 
Q 4640 800 4070 313 
Q 3501 -173 2867 -448 
Q 2854 -422 2832 -396 
Q 2810 -371 2787 -342 
Q 2765 -314 2739 -294 
Q 3354 -38 3914 432 
Q 4474 902 4896 1606 
Q 5318 2310 5517 3251 
L 5517 3302 
z
M 3501 3226 
Q 3706 2419 4064 1712 
Q 4422 1005 4934 486 
Q 5446 -32 6106 -288 
Q 6080 -307 6054 -336 
Q 6029 -365 6003 -393 
Q 5978 -422 5958 -448 
Q 5299 -166 4787 368 
Q 4275 902 3916 1622 
Q 3558 2342 3347 3181 
L 3501 3226 
z
M 5670 5114 
L 5798 4960 
Q 5555 4851 5203 4768 
Q 4851 4685 4448 4621 
Q 4045 4557 3632 4512 
Q 3219 4467 2842 4435 
Q 2835 4474 2819 4522 
Q 2803 4570 2784 4602 
Q 3149 4634 3558 4678 
Q 3968 4723 4368 4787 
Q 4768 4851 5107 4931 
Q 5446 5011 5670 5114 
z
" transform="scale(0.015625)"/>
      <path id="NotoSansSC-Thin-5757" d="M 2573 4166 
L 5581 4166 
L 5581 2163 
L 5395 2163 
L 5395 3974 
L 2573 3974 
L 2573 4166 
z
M 2349 2298 
L 6080 2298 
L 6080 2106 
L 2349 2106 
L 2349 2298 
z
M 4256 2227 
Q 4474 1318 4957 662 
Q 5440 6 6182 -294 
Q 6163 -314 6137 -346 
Q 6112 -378 6089 -406 
Q 6067 -435 6048 -461 
Q 5542 -237 5155 140 
Q 4768 518 4496 1033 
Q 4224 1549 4070 2182 
L 4256 2227 
z
M 3955 5248 
L 4141 5248 
L 4141 3155 
Q 4141 2643 4077 2150 
Q 4013 1658 3811 1194 
Q 3610 730 3200 314 
Q 2790 -102 2106 -454 
Q 2099 -435 2076 -409 
Q 2054 -384 2028 -358 
Q 2003 -333 1978 -314 
Q 2650 26 3043 429 
Q 3437 832 3635 1277 
Q 3834 1722 3894 2195 
Q 3955 2669 3955 3155 
L 3955 5248 
z
M 384 3718 
L 2221 3718 
L 2221 3533 
L 384 3533 
L 384 3718 
z
M 1242 5254 
L 1434 5254 
L 1434 1190 
L 1242 1190 
L 1242 5254 
z
M 288 870 
Q 538 966 861 1100 
Q 1184 1235 1545 1388 
Q 1907 1542 2272 1696 
L 2310 1517 
Q 1792 1293 1280 1072 
Q 768 851 365 685 
L 288 870 
z
" transform="scale(0.015625)"/>
      <path id="NotoSansSC-Thin-9694" d="M 576 5050 
L 2010 5050 
L 2010 4864 
L 768 4864 
L 768 -435 
L 576 -435 
L 576 5050 
z
M 1958 5050 
L 1997 5050 
L 2035 5062 
L 2157 4973 
Q 2003 4595 1817 4160 
Q 1632 3725 1446 3328 
Q 1850 2906 1984 2547 
Q 2118 2189 2118 1869 
Q 2118 1664 2070 1481 
Q 2022 1299 1901 1216 
Q 1843 1171 1766 1152 
Q 1690 1133 1600 1120 
Q 1498 1114 1379 1114 
Q 1261 1114 1158 1120 
Q 1152 1152 1133 1206 
Q 1114 1261 1082 1306 
Q 1216 1299 1337 1296 
Q 1459 1293 1549 1299 
Q 1690 1312 1779 1363 
Q 1869 1427 1901 1571 
Q 1933 1715 1933 1869 
Q 1933 2170 1789 2522 
Q 1645 2874 1222 3302 
Q 1331 3526 1433 3753 
Q 1536 3981 1632 4201 
Q 1728 4422 1811 4627 
Q 1894 4832 1958 5005 
L 1958 5050 
z
M 4160 1242 
L 4346 1242 
L 4346 -314 
L 4160 -314 
L 4160 1242 
z
M 3098 4115 
L 3098 3283 
L 5478 3283 
L 5478 4115 
L 3098 4115 
z
M 2912 4301 
L 5664 4301 
L 5664 3091 
L 2912 3091 
L 2912 4301 
z
M 2528 4979 
L 6061 4979 
L 6061 4794 
L 2528 4794 
L 2528 4979 
z
M 3130 1293 
L 5453 1293 
L 5453 1107 
L 3130 1107 
L 3130 1293 
z
M 2586 2605 
L 5843 2605 
L 5843 2413 
L 2771 2413 
L 2771 -448 
L 2586 -448 
L 2586 2605 
z
M 5773 2605 
L 5958 2605 
L 5958 -166 
Q 5958 -269 5929 -323 
Q 5901 -378 5818 -410 
Q 5734 -435 5571 -438 
Q 5408 -442 5146 -442 
Q 5139 -410 5116 -358 
Q 5094 -307 5069 -262 
Q 5293 -269 5456 -269 
Q 5619 -269 5677 -262 
Q 5773 -262 5773 -173 
L 5773 2605 
z
M 3283 2214 
L 3443 2291 
Q 3616 2093 3789 1849 
Q 3962 1606 4038 1434 
L 3878 1338 
Q 3795 1517 3625 1766 
Q 3456 2016 3283 2214 
z
M 5094 2272 
L 5267 2182 
Q 5120 1926 4934 1648 
Q 4749 1370 4582 1165 
L 4442 1242 
Q 4550 1376 4672 1558 
Q 4794 1741 4906 1933 
Q 5018 2125 5094 2272 
z
" transform="scale(0.015625)"/>
      <path id="NotoSansSC-Thin-591c" d="M 3411 3437 
L 5645 3437 
L 5645 3251 
L 3322 3251 
L 3411 3437 
z
M 2982 2688 
Q 3270 1997 3747 1401 
Q 4224 806 4841 364 
Q 5459 -77 6170 -307 
Q 6144 -326 6118 -355 
Q 6093 -384 6070 -413 
Q 6048 -442 6029 -467 
Q 5325 -218 4704 236 
Q 4083 691 3600 1302 
Q 3117 1914 2816 2624 
L 2982 2688 
z
M 3590 2797 
L 3731 2906 
Q 3974 2720 4224 2477 
Q 4474 2234 4614 2054 
L 4461 1920 
Q 4333 2106 4083 2352 
Q 3834 2598 3590 2797 
z
M 422 4525 
L 5984 4525 
L 5984 4333 
L 422 4333 
L 422 4525 
z
M 1984 4275 
L 2163 4224 
Q 1952 3718 1670 3248 
Q 1389 2778 1062 2371 
Q 736 1965 384 1651 
Q 371 1670 342 1692 
Q 314 1715 282 1740 
Q 250 1766 224 1779 
Q 582 2080 908 2477 
Q 1235 2874 1510 3331 
Q 1786 3789 1984 4275 
z
M 3712 4269 
L 3904 4211 
Q 3718 3757 3440 3289 
Q 3162 2822 2819 2396 
Q 2477 1971 2080 1638 
Q 2067 1658 2041 1683 
Q 2016 1709 1990 1734 
Q 1965 1760 1939 1773 
Q 2330 2093 2672 2505 
Q 3014 2918 3280 3372 
Q 3546 3827 3712 4269 
z
M 5568 3437 
L 5613 3437 
L 5658 3450 
L 5766 3386 
Q 5542 2592 5161 1971 
Q 4781 1350 4285 889 
Q 3789 429 3206 99 
Q 2624 -230 1997 -442 
Q 1984 -416 1961 -390 
Q 1939 -365 1916 -336 
Q 1894 -307 1869 -294 
Q 2701 -26 3443 454 
Q 4186 934 4739 1660 
Q 5293 2387 5568 3392 
L 5568 3437 
z
M 1331 2950 
L 1523 3142 
L 1517 3136 
L 1517 -442 
L 1331 -442 
L 1331 2950 
z
M 2867 5280 
L 3040 5338 
Q 3168 5171 3296 4956 
Q 3424 4742 3488 4595 
L 3322 4518 
Q 3258 4672 3130 4886 
Q 3002 5101 2867 5280 
z
" transform="scale(0.015625)"/>
      <path id="NotoSansSC-Thin-2014" d="M 282 1664 
L 282 1862 
L 5350 1862 
L 5350 1664 
L 282 1664 
z
" transform="scale(0.015625)"/>
      <path id="NotoSansSC-Thin-47" d="M 2355 -83 
Q 1766 -83 1324 217 
Q 883 518 640 1062 
Q 397 1606 397 2336 
Q 397 2886 541 3328 
Q 685 3770 953 4083 
Q 1222 4397 1593 4563 
Q 1965 4730 2426 4730 
Q 2893 4730 3190 4550 
Q 3488 4371 3667 4179 
L 3520 4019 
Q 3341 4218 3078 4362 
Q 2816 4506 2426 4506 
Q 1875 4506 1475 4240 
Q 1075 3974 860 3488 
Q 646 3002 646 2336 
Q 646 1670 854 1177 
Q 1062 685 1449 413 
Q 1837 141 2374 141 
Q 2707 141 3001 240 
Q 3296 339 3469 512 
L 3469 2035 
L 2323 2035 
L 2323 2246 
L 3718 2246 
L 3718 435 
Q 3501 205 3155 61 
Q 2810 -83 2355 -83 
z
" transform="scale(0.015625)"/>
      <path id="NotoSansSC-Thin-54" d="M 1709 0 
L 1709 4435 
L 211 4435 
L 211 4646 
L 3456 4646 
L 3456 4435 
L 1958 4435 
L 1958 0 
L 1709 0 
z
" transform="scale(0.015625)"/>
      <path id="NotoSansSC-Thin-69" d="M 672 0 
L 672 3373 
L 902 3373 
L 902 0 
L 672 0 
z
M 794 4224 
Q 691 4224 627 4294 
Q 563 4365 563 4486 
Q 563 4595 627 4662 
Q 691 4730 794 4730 
Q 890 4730 957 4662 
Q 1024 4595 1024 4486 
Q 1024 4365 957 4294 
Q 890 4224 794 4224 
z
" transform="scale(0.015625)"/>
      <path id="NotoSansSC-Thin-70" d="M 672 -1555 
L 672 3373 
L 864 3373 
L 902 2938 
L 915 2938 
Q 1165 3136 1462 3296 
Q 1760 3456 2074 3456 
Q 2534 3456 2835 3241 
Q 3136 3027 3283 2643 
Q 3430 2259 3430 1734 
Q 3430 1165 3222 755 
Q 3014 346 2675 131 
Q 2336 -83 1933 -83 
Q 1696 -83 1433 29 
Q 1171 141 902 339 
L 902 -294 
L 902 -1555 
L 672 -1555 
z
M 1952 128 
Q 2310 128 2588 333 
Q 2867 538 3027 902 
Q 3187 1267 3187 1734 
Q 3187 2163 3075 2505 
Q 2963 2848 2716 3046 
Q 2470 3245 2054 3245 
Q 1798 3245 1510 3094 
Q 1222 2944 902 2662 
L 902 582 
Q 1203 333 1478 230 
Q 1754 128 1952 128 
z
" transform="scale(0.015625)"/>
      <path id="NotoSansSC-Thin-540e" d="M 1139 3526 
L 6022 3526 
L 6022 3341 
L 1139 3341 
L 1139 3526 
z
M 2080 96 
L 5440 96 
L 5440 -96 
L 2080 -96 
L 2080 96 
z
M 5344 5229 
L 5530 5075 
Q 5126 4986 4601 4902 
Q 4077 4819 3485 4752 
Q 2893 4685 2285 4630 
Q 1677 4576 1101 4538 
Q 1094 4576 1078 4621 
Q 1062 4666 1043 4698 
Q 1613 4736 2217 4793 
Q 2822 4851 3404 4918 
Q 3987 4986 4489 5066 
Q 4992 5146 5344 5229 
z
M 1965 2214 
L 5510 2214 
L 5510 -461 
L 5318 -461 
L 5318 2029 
L 2150 2029 
L 2150 -461 
L 1965 -461 
L 1965 2214 
z
M 1043 4698 
L 1229 4698 
L 1229 3149 
Q 1229 2758 1203 2297 
Q 1178 1837 1098 1357 
Q 1018 877 858 409 
Q 698 -58 435 -461 
Q 422 -435 393 -409 
Q 365 -384 336 -361 
Q 307 -339 282 -326 
Q 538 64 691 509 
Q 845 954 918 1418 
Q 992 1882 1017 2323 
Q 1043 2765 1043 3149 
L 1043 4698 
z
" transform="scale(0.015625)"/>
     </defs>
     <use xlink:href="#NotoSansSC-Thin-82af"/>
     <use xlink:href="#NotoSansSC-Thin-7247" transform="translate(99.999985 0)"/>
     <use xlink:href="#NotoSansSC-Thin-677f" transform="translate(199.999969 0)"/>
     <use xlink:href="#NotoSansSC-Thin-5757" transform="translate(299.999954 0)"/>
     <use xlink:href="#NotoSansSC-Thin-9694" transform="translate(399.999939 0)"/>
     <use xlink:href="#NotoSansSC-Thin-591c" transform="translate(499.999924 0)"/>
     <use xlink:href="#NotoSansSC-Thin-6da8" transform="translate(599.999908 0)"/>
     <use xlink:href="#NotoSansSC-Thin-8dcc" transform="translate(699.999893 0)"/>
     <use xlink:href="#NotoSansSC-Thin-5e45" transform="translate(799.999878 0)"/>
     <use xlink:href="#NotoSansSC-Thin-20" transform="translate(899.999863 0)"/>
     <use xlink:href="#NotoSansSC-Thin-2014" transform="translate(921.999847 0)"/>
     <use xlink:href="#NotoSansSC-Thin-20" transform="translate(1010.099838 0)"/>
     <use xlink:href="#NotoSansSC-Thin-47" transform="translate(1032.099823 0)"/>
     <use xlink:href="#NotoSansSC-Thin-54" transform="translate(1098.199814 0)"/>
     <use xlink:href="#NotoSansSC-Thin-43" transform="translate(1155.499802 0)"/>
     <use xlink:href="#NotoSansSC-Thin-20" transform="translate(1217.399796 0)"/>
     <use xlink:href="#NotoSansSC-Thin-54" transform="translate(1239.39978 0)"/>
     <use xlink:href="#NotoSansSC-Thin-61" transform="translate(1296.699768 0)"/>
     <use xlink:href="#NotoSansSC-Thin-69" transform="translate(1350.299759 0)"/>
     <use xlink:href="#NotoSansSC-Thin-70" transform="translate(1374.799744 0)"/>
     <use xlink:href="#NotoSansSC-Thin-65" transform="translate(1434.299728 0)"/>
     <use xlink:href="#NotoSansSC-Thin-69" transform="translate(1486.999725 0)"/>
     <use xlink:href="#NotoSansSC-Thin-540e" transform="translate(1511.49971 0)"/>
    </g>
   </g>
  </g>
 </g>
 <defs>
  <clipPath id="pd035db7d3b">
   <rect x="38.460781" y="30.042813" width="306.79" height="132.7524"/>
  </clipPath>
 </defs>
</svg>
