<?xml version="1.0" encoding="utf-8" standalone="no"?>
<!DOCTYPE svg PUBLIC "-//W3C//DTD SVG 1.1//EN"
  "http://www.w3.org/Graphics/SVG/1.1/DTD/svg11.dtd">
<svg xmlns:xlink="http://www.w3.org/1999/xlink" width="384.524844pt" height="291.635562pt" viewBox="0 0 384.524844 291.635562" xmlns="http://www.w3.org/2000/svg" version="1.1">
 <metadata>
  <rdf:RDF xmlns:dc="http://purl.org/dc/elements/1.1/" xmlns:cc="http://creativecommons.org/ns#" xmlns:rdf="http://www.w3.org/1999/02/22-rdf-syntax-ns#">
   <cc:Work>
    <dc:type rdf:resource="http://purl.org/dc/dcmitype/StillImage"/>
    <dc:date>2026-06-23T21:30:41.717312</dc:date>
    <dc:format>image/svg+xml</dc:format>
    <dc:creator>
     <cc:Agent>
      <dc:title>Matplotlib v3.11.0, https://matplotlib.org/</dc:title>
     </cc:Agent>
    </dc:creator>
   </cc:Work>
  </rdf:RDF>
 </metadata>
 <defs>
  <style type="text/css">*{stroke-linejoin: round; stroke-linecap: butt}</style>
 </defs>
 <g id="figure_1">
  <g id="patch_1">
   <path d="M 0 291.635562 
L 384.524844 291.635562 
L 384.524844 0 
L 0 0 
z
" style="fill: #ffffff"/>
  </g>
  <g id="axes_1">
   <g id="patch_2">
    <path d="M 58.904844 254.624 
L 373.724844 254.624 
L 373.724844 79.52 
L 58.904844 79.52 
z
" style="fill: #ffffff"/>
   </g>
   <g id="matplotlib.axis_1">
    <g id="xtick_1">
     <g id="line2d_1">
      <path d="M 80.467857 254.624 
L 80.467857 79.52 
" clip-path="url(#p88df54a06e)" style="fill: none; stroke: #e2e8f0; stroke-opacity: 0.4; stroke-width: 0.5; stroke-linecap: square"/>
     </g>
     <g id="line2d_2"/>
     <g id="text_1">
      <!-- -1 -->
      <g style="fill: #94a3b8" transform="translate(76.296217 266.044) scale(0.09 -0.09)">
       <defs>
        <path id="NotoSansSC-Medium-e" d="M 301 1536 
L 1990 1536 
L 1990 2080 
L 301 2080 
L 301 1536 
z
" transform="scale(0.015625)"/>
        <path id="NotoSansSC-Medium-12" d="M 550 0 
L 3238 0 
L 3238 608 
L 2317 608 
L 2317 4717 
L 1760 4717 
C 1491 4544 1178 4435 736 4352 
L 736 3885 
L 1581 3885 
L 1581 608 
L 550 608 
L 550 0 
z
" transform="scale(0.015625)"/>
       </defs>
       <use xlink:href="#NotoSansSC-Medium-e"/>
       <use xlink:href="#NotoSansSC-Medium-12" transform="translate(35.703125 0)"/>
      </g>
     </g>
    </g>
    <g id="xtick_2">
     <g id="line2d_3">
      <path d="M 123.593885 254.624 
L 123.593885 79.52 
" clip-path="url(#p88df54a06e)" style="fill: none; stroke: #e2e8f0; stroke-opacity: 0.4; stroke-width: 0.5; stroke-linecap: square"/>
     </g>
     <g id="line2d_4"/>
     <g id="text_2">
      <!-- 0 -->
      <g style="fill: #94a3b8" transform="translate(121.028885 266.044) scale(0.09 -0.09)">
       <defs>
        <path id="NotoSansSC-Medium-11" d="M 1824 -83 
C 2746 -83 3347 736 3347 2374 
C 3347 4000 2746 4800 1824 4800 
C 902 4800 301 4006 301 2374 
C 301 736 902 -83 1824 -83 
z
M 1824 499 
C 1344 499 1005 1011 1005 2374 
C 1005 3725 1344 4218 1824 4218 
C 2304 4218 2643 3725 2643 2374 
C 2643 1011 2304 499 1824 499 
z
" transform="scale(0.015625)"/>
       </defs>
       <use xlink:href="#NotoSansSC-Medium-11"/>
      </g>
     </g>
    </g>
    <g id="xtick_3">
     <g id="line2d_5">
      <path d="M 166.719912 254.624 
L 166.719912 79.52 
" clip-path="url(#p88df54a06e)" style="fill: none; stroke: #e2e8f0; stroke-opacity: 0.4; stroke-width: 0.5; stroke-linecap: square"/>
     </g>
     <g id="line2d_6"/>
     <g id="text_3">
      <!-- 1 -->
      <g style="fill: #94a3b8" transform="translate(164.154912 266.044) scale(0.09 -0.09)">
       <use xlink:href="#NotoSansSC-Medium-12"/>
      </g>
     </g>
    </g>
    <g id="xtick_4">
     <g id="line2d_7">
      <path d="M 209.84594 254.624 
L 209.84594 79.52 
" clip-path="url(#p88df54a06e)" style="fill: none; stroke: #e2e8f0; stroke-opacity: 0.4; stroke-width: 0.5; stroke-linecap: square"/>
     </g>
     <g id="line2d_8"/>
     <g id="text_4">
      <!-- 2 -->
      <g style="fill: #94a3b8" transform="translate(207.28094 266.044) scale(0.09 -0.09)">
       <defs>
        <path id="NotoSansSC-Medium-13" d="M 282 0 
L 3322 0 
L 3322 627 
L 2144 627 
C 1914 627 1619 608 1376 582 
C 2374 1536 3098 2477 3098 3386 
C 3098 4237 2541 4800 1677 4800 
C 1062 4800 646 4538 243 4096 
L 659 3686 
C 909 3974 1216 4211 1587 4211 
C 2118 4211 2387 3859 2387 3347 
C 2387 2573 1670 1658 282 429 
L 282 0 
z
" transform="scale(0.015625)"/>
       </defs>
       <use xlink:href="#NotoSansSC-Medium-13"/>
      </g>
     </g>
    </g>
    <g id="xtick_5">
     <g id="line2d_9">
      <path d="M 252.971967 254.624 
L 252.971967 79.52 
" clip-path="url(#p88df54a06e)" style="fill: none; stroke: #e2e8f0; stroke-opacity: 0.4; stroke-width: 0.5; stroke-linecap: square"/>
     </g>
     <g id="line2d_10"/>
     <g id="text_5">
      <!-- 3 -->
      <g style="fill: #94a3b8" transform="translate(250.406967 266.044) scale(0.09 -0.09)">
       <defs>
        <path id="NotoSansSC-Medium-14" d="M 1715 -83 
C 2579 -83 3290 416 3290 1267 
C 3290 1901 2861 2310 2317 2445 
L 2317 2477 
C 2816 2662 3130 3040 3130 3584 
C 3130 4358 2534 4800 1690 4800 
C 1146 4800 710 4563 339 4230 
L 723 3770 
C 992 4032 1299 4205 1664 4211 
C 2112 4205 2387 3949 2387 3533 
C 2387 3059 2080 2707 1152 2707 
L 1152 2163 
C 2214 2163 2547 1824 2547 1306 
C 2547 813 2182 518 1651 518 
C 1165 518 813 755 538 1037 
L 179 563 
C 493 211 973 -83 1715 -83 
z
" transform="scale(0.015625)"/>
       </defs>
       <use xlink:href="#NotoSansSC-Medium-14"/>
      </g>
     </g>
    </g>
    <g id="xtick_6">
     <g id="line2d_11">
      <path d="M 296.097994 254.624 
L 296.097994 79.52 
" clip-path="url(#p88df54a06e)" style="fill: none; stroke: #e2e8f0; stroke-opacity: 0.4; stroke-width: 0.5; stroke-linecap: square"/>
     </g>
     <g id="line2d_12"/>
     <g id="text_6">
      <!-- 4 -->
      <g style="fill: #94a3b8" transform="translate(293.532994 266.044) scale(0.09 -0.09)">
       <defs>
        <path id="NotoSansSC-Medium-15" d="M 870 1837 
L 1798 3258 
C 1933 3501 2061 3744 2176 3987 
L 2202 3987 
C 2189 3725 2170 3328 2170 3072 
L 2170 1837 
L 870 1837 
z
M 2170 0 
L 2861 0 
L 2861 1267 
L 3456 1267 
L 3456 1837 
L 2861 1837 
L 2861 4717 
L 2003 4717 
L 128 1760 
L 128 1267 
L 2170 1267 
L 2170 0 
z
" transform="scale(0.015625)"/>
       </defs>
       <use xlink:href="#NotoSansSC-Medium-15"/>
      </g>
     </g>
    </g>
    <g id="xtick_7">
     <g id="line2d_13">
      <path d="M 339.224022 254.624 
L 339.224022 79.52 
" clip-path="url(#p88df54a06e)" style="fill: none; stroke: #e2e8f0; stroke-opacity: 0.4; stroke-width: 0.5; stroke-linecap: square"/>
     </g>
     <g id="line2d_14"/>
     <g id="text_7">
      <!-- 5 -->
      <g style="fill: #94a3b8" transform="translate(336.659022 266.044) scale(0.09 -0.09)">
       <defs>
        <path id="NotoSansSC-Medium-16" d="M 1715 -83 
C 2541 -83 3302 506 3302 1549 
C 3302 2579 2656 3046 1869 3046 
C 1613 3046 1427 2982 1222 2880 
L 1331 4090 
L 3078 4090 
L 3078 4717 
L 691 4717 
L 550 2477 
L 909 2240 
C 1184 2419 1363 2509 1664 2509 
C 2202 2509 2560 2150 2560 1523 
C 2560 896 2157 518 1626 518 
C 1133 518 794 755 525 1024 
L 173 544 
C 506 218 973 -83 1715 -83 
z
" transform="scale(0.015625)"/>
       </defs>
       <use xlink:href="#NotoSansSC-Medium-16"/>
      </g>
     </g>
    </g>
    <g id="text_8">
     <!-- 涨跌幅 (%) -->
     <g style="fill: #64748b" transform="translate(194.381563 279.044) scale(0.09 -0.09)">
      <defs>
       <path id="NotoSansSC-Medium-417c" d="M 5478 5184 
C 5210 4512 4742 3866 4256 3450 
C 4371 3354 4576 3149 4653 3053 
C 5165 3533 5670 4275 5990 5037 
L 5478 5184 
z
M 1658 4429 
C 1485 4659 1114 5005 813 5235 
L 422 4928 
C 723 4672 1088 4307 1248 4070 
L 1658 4429 
z
M 864 -410 
C 1050 192 1261 966 1414 1645 
L 947 1907 
C 781 1171 538 346 346 -160 
L 864 -410 
z
M 218 3232 
C 518 2989 890 2630 1056 2400 
L 1453 2771 
C 1267 3002 890 3334 589 3565 
L 218 3232 
z
M 2125 2221 
C 2150 2522 2176 2867 2195 3200 
L 3155 3200 
L 3155 5171 
L 1664 5171 
L 1664 4634 
L 2662 4634 
L 2662 3744 
L 1728 3744 
C 1702 3091 1645 2246 1581 1728 
L 2624 1728 
C 2560 646 2490 230 2400 122 
C 2349 58 2298 45 2202 45 
C 2112 51 1888 51 1645 70 
C 1728 -77 1779 -301 1792 -461 
C 2061 -474 2323 -474 2464 -448 
C 2630 -429 2739 -384 2842 -256 
C 3014 -64 3078 525 3155 1997 
C 3162 2067 3168 2221 3168 2221 
L 2125 2221 
z
M 6144 2413 
L 6144 2957 
L 4205 2957 
L 4205 5293 
L 3661 5293 
L 3661 2957 
L 3194 2957 
L 3194 2413 
L 3661 2413 
L 3661 422 
C 3661 160 3501 38 3379 -26 
C 3469 -141 3578 -378 3610 -518 
C 3718 -422 3904 -339 5024 109 
C 4998 230 4979 454 4979 614 
L 4205 339 
L 4205 2413 
L 4563 2413 
C 4781 1229 5184 192 5818 -410 
C 5907 -275 6074 -83 6202 13 
C 5638 486 5267 1402 5056 2413 
L 6144 2413 
z
" transform="scale(0.015625)"/>
       <path id="NotoSansSC-Medium-617d" d="M 1050 4595 
L 1965 4595 
L 1965 3610 
L 1050 3610 
L 1050 4595 
z
M 2547 954 
L 1907 781 
L 1907 1786 
L 2528 1786 
L 2528 2304 
L 1907 2304 
L 1907 3104 
L 2509 3104 
L 2509 5107 
L 544 5107 
L 544 3104 
L 1389 3104 
L 1389 646 
L 1018 550 
L 1018 2560 
L 531 2560 
L 531 422 
C 422 397 320 378 224 358 
L 365 -205 
C 998 -26 1830 211 2624 442 
L 2547 954 
z
M 6054 1997 
L 6054 2560 
L 4640 2560 
C 4659 2784 4666 3002 4666 3213 
L 4666 3712 
L 5933 3712 
L 5933 4256 
L 4666 4256 
L 4666 5318 
L 4083 5318 
L 4083 4256 
L 3558 4256 
C 3616 4506 3654 4762 3686 5018 
L 3136 5107 
C 3046 4365 2880 3610 2592 3136 
C 2720 3066 2970 2925 3072 2835 
C 3213 3078 3322 3379 3424 3712 
L 4083 3712 
L 4083 3219 
C 4083 3008 4083 2784 4064 2560 
L 2662 2560 
L 2662 1997 
L 3987 1997 
C 3834 1229 3430 467 2387 -77 
C 2534 -186 2720 -397 2803 -525 
C 3667 -32 4134 614 4384 1293 
C 4691 512 5139 -115 5792 -480 
C 5882 -320 6074 -96 6202 13 
C 5453 365 4960 1107 4691 1997 
L 6054 1997 
z
" transform="scale(0.015625)"/>
       <path id="NotoSansSC-Medium-3225" d="M 2586 4179 
L 1741 4179 
L 1741 5363 
L 1235 5363 
L 1235 4179 
L 410 4179 
L 410 806 
L 858 806 
L 858 3654 
L 1235 3654 
L 1235 -506 
L 1741 -506 
L 1741 3654 
L 2150 3654 
L 2150 1440 
C 2150 1382 2138 1370 2093 1370 
L 1805 1370 
C 1882 1235 1946 1011 1952 870 
C 2176 870 2323 883 2438 979 
C 2560 1062 2586 1229 2586 1427 
L 2586 4179 
z
M 4109 1760 
L 4109 1203 
L 3334 1203 
L 3334 1760 
L 4109 1760 
z
M 5459 1203 
L 4614 1203 
L 4614 1760 
L 5459 1760 
L 5459 1203 
z
M 4614 173 
L 4614 736 
L 5459 736 
L 5459 173 
L 4614 173 
z
M 3334 173 
L 3334 736 
L 4109 736 
L 4109 173 
L 3334 173 
z
M 2803 -499 
L 3334 -499 
L 3334 -294 
L 5459 -294 
L 5459 -486 
L 6010 -486 
L 6010 2234 
L 2803 2234 
L 2803 -499 
z
M 5235 3104 
L 3597 3104 
L 3597 3725 
L 5235 3725 
L 5235 3104 
z
M 3085 4179 
L 3085 2656 
L 5766 2656 
L 5766 4179 
L 3085 4179 
z
M 2784 5062 
L 2784 4576 
L 6067 4576 
L 6067 5062 
L 2784 5062 
z
" transform="scale(0.015625)"/>
       <path id="NotoSansSC-Medium-1" transform="scale(0.015625)"/>
       <path id="NotoSansSC-Medium-9" d="M 1517 -1274 
L 1978 -1069 
C 1427 -154 1171 928 1171 2003 
C 1171 3072 1427 4154 1978 5075 
L 1517 5274 
C 922 4307 570 3264 570 2003 
C 570 730 922 -301 1517 -1274 
z
" transform="scale(0.015625)"/>
       <path id="NotoSansSC-Medium-6" d="M 1331 1818 
C 1990 1818 2438 2368 2438 3315 
C 2438 4262 1990 4800 1331 4800 
C 672 4800 230 4262 230 3315 
C 230 2368 672 1818 1331 1818 
z
M 1331 2253 
C 1005 2253 768 2592 768 3315 
C 768 4045 1005 4365 1331 4365 
C 1664 4365 1901 4045 1901 3315 
C 1901 2592 1664 2253 1331 2253 
z
M 1478 -83 
L 1946 -83 
L 4525 4800 
L 4058 4800 
L 1478 -83 
z
M 4678 -83 
C 5331 -83 5779 461 5779 1408 
C 5779 2355 5331 2893 4678 2893 
C 4019 2893 3571 2355 3571 1408 
C 3571 461 4019 -83 4678 -83 
z
M 4678 346 
C 4346 346 4115 685 4115 1408 
C 4115 2138 4346 2458 4678 2458 
C 5005 2458 5242 2138 5242 1408 
C 5242 685 5005 346 4678 346 
z
" transform="scale(0.015625)"/>
       <path id="NotoSansSC-Medium-a" d="M 755 -1274 
C 1357 -301 1709 730 1709 2003 
C 1709 3264 1357 4307 755 5274 
L 294 5075 
C 845 4154 1101 3072 1101 2003 
C 1101 928 845 -154 294 -1069 
L 755 -1274 
z
" transform="scale(0.015625)"/>
      </defs>
      <use xlink:href="#NotoSansSC-Medium-417c"/>
      <use xlink:href="#NotoSansSC-Medium-617d" transform="translate(100 0)"/>
      <use xlink:href="#NotoSansSC-Medium-3225" transform="translate(200 0)"/>
      <use xlink:href="#NotoSansSC-Medium-1" transform="translate(300 0)"/>
      <use xlink:href="#NotoSansSC-Medium-9" transform="translate(322.5 0)"/>
      <use xlink:href="#NotoSansSC-Medium-6" transform="translate(358 0)"/>
      <use xlink:href="#NotoSansSC-Medium-a" transform="translate(451.90625 0)"/>
     </g>
    </g>
   </g>
   <g id="matplotlib.axis_2">
    <g id="ytick_1">
     <g id="line2d_15">
      <path d="M 58.904844 241.857113 
L 373.724844 241.857113 
" clip-path="url(#p88df54a06e)" style="fill: none; stroke: #e2e8f0; stroke-opacity: 0.6; stroke-width: 0.5; stroke-linecap: square"/>
     </g>
     <g id="line2d_16"/>
     <g id="text_9">
      <!-- 韩国KOSPI -->
      <g style="fill: #94a3b8" transform="translate(10.8 245.817113) scale(0.09 -0.09)">
       <defs>
        <path id="NotoSansSC-Medium-6b96" d="M 1011 2470 
L 2182 2470 
L 2182 2080 
L 1011 2080 
L 1011 2470 
z
M 1011 3283 
L 2182 3283 
L 2182 2912 
L 1011 2912 
L 1011 3283 
z
M 1888 1613 
L 2720 1613 
L 2720 3750 
L 1888 3750 
L 1888 4211 
L 2842 4211 
L 2842 4736 
L 1888 4736 
L 1888 5370 
L 1312 5370 
L 1312 4736 
L 333 4736 
L 333 4211 
L 1312 4211 
L 1312 3750 
L 493 3750 
L 493 1613 
L 1312 1613 
L 1312 1139 
L 275 1139 
L 275 608 
L 1312 608 
L 1312 -518 
L 1888 -518 
L 1888 608 
L 2874 608 
L 2874 1139 
L 1888 1139 
L 1888 1613 
z
M 4659 2202 
L 4659 2816 
L 5766 2816 
L 5766 3373 
L 4659 3373 
L 4659 3974 
L 6003 3974 
L 6003 4525 
L 4659 4525 
L 4659 5370 
L 4064 5370 
L 4064 4525 
L 2976 4525 
L 2976 3974 
L 4064 3974 
L 4064 3373 
L 3104 3373 
L 3104 2816 
L 4064 2816 
L 4064 2202 
L 2950 2202 
L 2950 1645 
L 4064 1645 
L 4064 -499 
L 4659 -499 
L 4659 1645 
L 5581 1645 
C 5530 960 5466 685 5395 595 
C 5350 538 5299 531 5229 531 
C 5146 531 4992 531 4806 550 
C 4877 416 4934 198 4941 51 
C 5158 38 5370 38 5485 58 
C 5638 77 5734 122 5830 230 
C 5984 403 6054 858 6131 1984 
C 6138 2061 6144 2202 6144 2202 
L 4659 2202 
z
" transform="scale(0.015625)"/>
        <path id="NotoSansSC-Medium-2ae8" d="M 4339 1344 
L 4730 1581 
C 4608 1760 4352 2048 4134 2246 
L 3757 2042 
C 3968 1830 4211 1542 4326 1344 
L 3443 1344 
L 3443 2291 
L 4640 2291 
L 4640 2797 
L 3443 2797 
L 3443 3571 
L 4781 3571 
L 4781 4096 
L 1587 4096 
L 1587 3571 
L 2886 3571 
L 2886 2797 
L 1754 2797 
L 1754 2291 
L 2886 2291 
L 2886 1344 
L 1498 1344 
L 1498 851 
L 4909 851 
L 4909 1344 
L 4339 1344 
z
M 1152 358 
L 1152 4544 
L 5210 4544 
L 5210 358 
L 1152 358 
z
M 550 5094 
L 550 -506 
L 1152 -506 
L 1152 -192 
L 5210 -192 
L 5210 -506 
L 5843 -506 
L 5843 5094 
L 550 5094 
z
" transform="scale(0.015625)"/>
        <path id="NotoSansSC-Medium-2c" d="M 621 0 
L 1363 0 
L 1363 1421 
L 2086 2310 
L 3418 0 
L 4243 0 
L 2541 2893 
L 4000 4717 
L 3174 4717 
L 1382 2483 
L 1363 2483 
L 1363 4717 
L 621 4717 
L 621 0 
z
" transform="scale(0.015625)"/>
        <path id="NotoSansSC-Medium-30" d="M 2413 -83 
C 3622 -83 4467 858 4467 2374 
C 4467 3891 3622 4800 2413 4800 
C 1203 4800 365 3891 365 2374 
C 365 858 1203 -83 2413 -83 
z
M 2413 563 
C 1632 563 1126 1274 1126 2374 
C 1126 3482 1632 4154 2413 4154 
C 3194 4154 3706 3482 3706 2374 
C 3706 1274 3194 563 2413 563 
z
" transform="scale(0.015625)"/>
        <path id="NotoSansSC-Medium-34" d="M 1965 -83 
C 2995 -83 3622 531 3622 1286 
C 3622 1978 3219 2323 2662 2560 
L 2016 2835 
C 1632 2989 1254 3142 1254 3552 
C 1254 3923 1568 4154 2048 4154 
C 2464 4154 2790 3994 3085 3731 
L 3475 4205 
C 3117 4570 2598 4800 2048 4800 
C 1152 4800 499 4243 499 3501 
C 499 2816 1005 2458 1459 2266 
L 2112 1984 
C 2547 1792 2867 1658 2867 1229 
C 2867 832 2547 563 1978 563 
C 1523 563 1062 781 723 1120 
L 288 608 
C 717 173 1318 -83 1965 -83 
z
" transform="scale(0.015625)"/>
        <path id="NotoSansSC-Medium-31" d="M 621 0 
L 1363 0 
L 1363 1786 
L 2074 1786 
C 3098 1786 3846 2259 3846 3290 
C 3846 4352 3098 4717 2048 4717 
L 621 4717 
L 621 0 
z
M 1363 2381 
L 1363 4115 
L 1978 4115 
C 2726 4115 3117 3910 3117 3290 
C 3117 2669 2758 2381 2003 2381 
L 1363 2381 
z
" transform="scale(0.015625)"/>
        <path id="NotoSansSC-Medium-2a" d="M 621 0 
L 1363 0 
L 1363 4717 
L 621 4717 
L 621 0 
z
" transform="scale(0.015625)"/>
       </defs>
       <use xlink:href="#NotoSansSC-Medium-6b96"/>
       <use xlink:href="#NotoSansSC-Medium-2ae8" transform="translate(100 0)"/>
       <use xlink:href="#NotoSansSC-Medium-2c" transform="translate(200 0)"/>
       <use xlink:href="#NotoSansSC-Medium-30" transform="translate(263.796875 0)"/>
       <use xlink:href="#NotoSansSC-Medium-34" transform="translate(339.203125 0)"/>
       <use xlink:href="#NotoSansSC-Medium-31" transform="translate(400 0)"/>
       <use xlink:href="#NotoSansSC-Medium-2a" transform="translate(464.703125 0)"/>
      </g>
     </g>
    </g>
    <g id="ytick_2">
     <g id="line2d_17">
      <path d="M 58.904844 220.489938 
L 373.724844 220.489938 
" clip-path="url(#p88df54a06e)" style="fill: none; stroke: #e2e8f0; stroke-opacity: 0.6; stroke-width: 0.5; stroke-linecap: square"/>
     </g>
     <g id="line2d_18"/>
     <g id="text_10">
      <!-- 日经225 -->
      <g style="fill: #94a3b8" transform="translate(22.014844 224.449938) scale(0.09 -0.09)">
       <defs>
        <path id="NotoSansSC-Medium-39bf" d="M 1702 582 
L 1702 2208 
L 4717 2208 
L 4717 582 
L 1702 582 
z
M 4717 4358 
L 4717 2797 
L 1702 2797 
L 1702 4358 
L 4717 4358 
z
M 1094 4960 
L 1094 -435 
L 1702 -435 
L 1702 -19 
L 4717 -19 
L 4717 -410 
L 5350 -410 
L 5350 4960 
L 1094 4960 
z
" transform="scale(0.015625)"/>
        <path id="NotoSansSC-Medium-5290" d="M 6195 2778 
C 5862 2989 5274 3283 4736 3507 
C 5165 3891 5523 4339 5766 4851 
L 5350 5069 
L 5235 5043 
L 2720 5043 
L 2720 4506 
L 4851 4506 
C 4282 3731 3277 3117 2298 2810 
C 2413 2682 2573 2451 2656 2304 
C 3213 2509 3776 2784 4275 3142 
C 4845 2880 5504 2541 5843 2298 
L 6195 2778 
z
M 1325 1946 
C 1805 2470 2272 3098 2662 3731 
L 2150 4064 
C 2022 3840 1888 3610 1741 3392 
L 998 3322 
C 1363 3846 1734 4493 2003 5120 
L 1440 5382 
C 1197 4640 730 3827 582 3629 
C 448 3411 333 3270 205 3238 
C 275 3085 378 2797 397 2675 
C 499 2726 666 2765 1370 2861 
C 1114 2502 883 2234 762 2112 
C 557 1888 410 1741 250 1709 
C 326 1549 416 1267 442 1146 
C 602 1235 838 1306 2438 1619 
C 2432 1741 2432 1984 2458 2138 
L 1325 1946 
z
M 2406 934 
C 1619 742 800 544 269 435 
L 378 -154 
C 973 6 1741 211 2470 410 
L 2406 934 
z
M 4576 1600 
L 5830 1600 
L 5830 2138 
L 2771 2138 
L 2771 1600 
L 3981 1600 
L 3981 211 
L 2387 211 
L 2387 -346 
L 6144 -346 
L 6144 211 
L 4576 211 
L 4576 1600 
z
" transform="scale(0.015625)"/>
       </defs>
       <use xlink:href="#NotoSansSC-Medium-39bf"/>
       <use xlink:href="#NotoSansSC-Medium-5290" transform="translate(100 0)"/>
       <use xlink:href="#NotoSansSC-Medium-13" transform="translate(200 0)"/>
       <use xlink:href="#NotoSansSC-Medium-13" transform="translate(257 0)"/>
       <use xlink:href="#NotoSansSC-Medium-16" transform="translate(314 0)"/>
      </g>
     </g>
    </g>
    <g id="ytick_3">
     <g id="line2d_19">
      <path d="M 58.904844 199.122763 
L 373.724844 199.122763 
" clip-path="url(#p88df54a06e)" style="fill: none; stroke: #e2e8f0; stroke-opacity: 0.6; stroke-width: 0.5; stroke-linecap: square"/>
     </g>
     <g id="line2d_20"/>
     <g id="text_11">
      <!-- 纳指 -->
      <g style="fill: #94a3b8" transform="translate(37.404844 203.082763) scale(0.09 -0.09)">
       <defs>
        <path id="NotoSansSC-Medium-5274" d="M 378 -160 
L 2464 371 
L 2413 870 
C 1613 685 813 506 275 403 
L 378 -160 
z
M 954 3283 
C 1318 3827 1670 4499 1933 5133 
L 1414 5382 
C 1178 4621 730 3802 589 3584 
C 454 3373 346 3226 237 3200 
C 294 3053 384 2790 410 2675 
C 506 2726 659 2758 1363 2854 
C 1107 2470 883 2176 768 2054 
C 570 1818 422 1664 275 1632 
C 339 1498 429 1254 454 1146 
C 589 1229 826 1286 2387 1600 
C 2381 1715 2387 1939 2400 2086 
L 1222 1882 
C 1690 2432 2144 3098 2515 3763 
L 2067 4038 
C 1952 3808 1824 3578 1683 3354 
L 954 3283 
z
M 5331 3450 
L 5331 1363 
C 5120 1779 4768 2355 4461 2835 
C 4499 3040 4531 3251 4550 3450 
L 5331 3450 
z
M 3174 3450 
L 3981 3450 
C 3898 2739 3693 1990 3174 1331 
L 3174 3450 
z
M 5888 3987 
L 4582 3987 
C 4589 4160 4589 4333 4589 4493 
L 4589 5363 
L 4026 5363 
L 4026 4499 
C 4026 4339 4026 4160 4013 3987 
L 2624 3987 
L 2624 -499 
L 3174 -499 
L 3174 1062 
C 3302 979 3437 883 3514 800 
C 3872 1210 4109 1658 4269 2125 
C 4525 1677 4774 1222 4915 909 
L 5331 1152 
L 5331 218 
C 5331 128 5299 96 5203 90 
C 5107 90 4774 83 4435 96 
C 4506 -51 4589 -307 4608 -467 
C 5101 -467 5414 -454 5619 -358 
C 5824 -269 5888 -96 5888 211 
L 5888 3987 
z
" transform="scale(0.015625)"/>
        <path id="NotoSansSC-Medium-36e2" d="M 2451 2662 
C 2208 2592 1965 2528 1728 2464 
L 1728 3571 
L 2426 3571 
L 2426 4122 
L 1728 4122 
L 1728 5363 
L 1139 5363 
L 1139 4122 
L 301 4122 
L 301 3571 
L 1139 3571 
L 1139 2298 
C 787 2202 467 2131 211 2067 
L 365 1491 
C 602 1555 864 1626 1139 1709 
L 1139 160 
C 1139 64 1107 38 1018 38 
C 941 32 678 32 410 45 
C 480 -109 563 -352 582 -499 
C 1011 -506 1286 -486 1478 -397 
C 1664 -307 1728 -147 1728 160 
L 1728 1882 
L 2528 2112 
L 2451 2662 
z
M 5242 1830 
L 5242 1293 
L 3360 1293 
L 3360 1830 
L 5242 1830 
z
M 3360 269 
L 3360 826 
L 5242 826 
L 5242 269 
L 3360 269 
z
M 2797 -499 
L 3360 -499 
L 3360 -211 
L 5242 -211 
L 5242 -467 
L 5830 -467 
L 5830 2323 
L 2797 2323 
L 2797 -499 
z
M 3859 3322 
C 3469 3322 3392 3360 3392 3584 
L 3392 3968 
C 4192 4115 5094 4333 5734 4595 
L 5293 5030 
C 4838 4819 4096 4602 3392 4448 
L 3392 5350 
L 2803 5350 
L 2803 3584 
C 2803 2957 3014 2784 3814 2784 
L 5190 2784 
C 5862 2784 6042 3008 6118 3872 
C 5965 3910 5715 3994 5581 4090 
C 5536 3437 5485 3322 5152 3322 
L 3859 3322 
z
" transform="scale(0.015625)"/>
       </defs>
       <use xlink:href="#NotoSansSC-Medium-5274"/>
       <use xlink:href="#NotoSansSC-Medium-36e2" transform="translate(100 0)"/>
      </g>
     </g>
    </g>
    <g id="ytick_4">
     <g id="line2d_21">
      <path d="M 58.904844 177.755588 
L 373.724844 177.755588 
" clip-path="url(#p88df54a06e)" style="fill: none; stroke: #e2e8f0; stroke-opacity: 0.6; stroke-width: 0.5; stroke-linecap: square"/>
     </g>
     <g id="line2d_22"/>
     <g id="text_12">
      <!-- 德国DAX -->
      <g style="fill: #94a3b8" transform="translate(20.25 181.715588) scale(0.09 -0.09)">
       <defs>
        <path id="NotoSansSC-Medium-3397" d="M 6138 2010 
L 2061 2010 
L 2061 1530 
L 4038 1530 
L 3629 1382 
C 3789 1139 3968 794 4064 589 
L 4525 774 
C 4429 966 4243 1286 4083 1530 
L 6138 1530 
L 6138 2010 
z
M 4397 2810 
L 3827 2810 
L 3827 3558 
L 4397 3558 
L 4397 2810 
z
M 4819 3558 
L 5402 3558 
L 5402 2810 
L 4819 2810 
L 4819 3558 
z
M 3405 2810 
L 2854 2810 
L 2854 3558 
L 3405 3558 
L 3405 2810 
z
M 2387 4000 
L 2387 2368 
L 5888 2368 
L 5888 4000 
L 4243 4000 
C 4262 4122 4288 4250 4307 4397 
L 6106 4397 
L 6106 4877 
L 4384 4877 
L 4454 5363 
L 3827 5382 
C 3821 5235 3808 5056 3789 4877 
L 2131 4877 
L 2131 4397 
L 3738 4397 
C 3718 4256 3699 4122 3674 4000 
L 2387 4000 
z
M 1510 5363 
C 1235 4915 678 4326 237 3955 
C 320 3834 461 3603 518 3469 
C 1037 3910 1645 4576 2054 5139 
L 1510 5363 
z
M 1626 3981 
C 1274 3264 717 2522 192 2035 
C 294 1901 467 1619 531 1491 
C 717 1670 909 1888 1094 2131 
L 1094 -512 
L 1651 -512 
L 1651 2912 
C 1843 3206 2016 3501 2163 3795 
L 1626 3981 
z
M 2240 -275 
C 2490 64 2662 576 2784 986 
L 2330 1165 
C 2214 768 2022 282 1792 -19 
L 2240 -275 
z
M 3757 38 
C 3533 38 3488 58 3488 205 
L 3488 1082 
L 2970 1082 
L 2970 198 
C 2970 -275 3110 -422 3693 -422 
L 4570 -422 
C 5024 -422 5171 -256 5229 422 
C 5082 454 4870 531 4762 608 
C 4736 109 4704 38 4512 38 
L 3757 38 
z
M 5069 1024 
C 5338 640 5600 128 5702 -205 
L 6176 6 
C 6061 339 5773 838 5510 1216 
L 5069 1024 
z
" transform="scale(0.015625)"/>
        <path id="NotoSansSC-Medium-25" d="M 621 0 
L 1882 0 
C 3290 0 4115 845 4115 2374 
C 4115 3910 3290 4717 1843 4717 
L 621 4717 
L 621 0 
z
M 1363 608 
L 1363 4109 
L 1792 4109 
C 2803 4109 3347 3552 3347 2374 
C 3347 1203 2803 608 1792 608 
L 1363 608 
z
" transform="scale(0.015625)"/>
        <path id="NotoSansSC-Medium-22" d="M 1523 2560 
C 1677 3072 1824 3590 1958 4128 
L 1990 4128 
C 2131 3597 2272 3072 2432 2560 
L 2618 1926 
L 1331 1926 
L 1523 2560 
z
M 0 0 
L 755 0 
L 1158 1344 
L 2797 1344 
L 3194 0 
L 3981 0 
L 2419 4717 
L 1562 4717 
L 0 0 
z
" transform="scale(0.015625)"/>
        <path id="NotoSansSC-Medium-39" d="M 102 0 
L 890 0 
L 1491 1171 
C 1606 1414 1728 1651 1856 1939 
L 1882 1939 
C 2029 1651 2150 1414 2272 1171 
L 2893 0 
L 3718 0 
L 2362 2394 
L 3629 4717 
L 2848 4717 
L 2291 3610 
C 2182 3392 2093 3181 1971 2899 
L 1939 2899 
C 1798 3181 1696 3392 1581 3610 
L 1011 4717 
L 186 4717 
L 1453 2432 
L 102 0 
z
" transform="scale(0.015625)"/>
       </defs>
       <use xlink:href="#NotoSansSC-Medium-3397"/>
       <use xlink:href="#NotoSansSC-Medium-2ae8" transform="translate(100 0)"/>
       <use xlink:href="#NotoSansSC-Medium-25" transform="translate(200 0)"/>
       <use xlink:href="#NotoSansSC-Medium-22" transform="translate(268.8125 0)"/>
       <use xlink:href="#NotoSansSC-Medium-39" transform="translate(331.015625 0)"/>
      </g>
     </g>
    </g>
    <g id="ytick_5">
     <g id="line2d_23">
      <path d="M 58.904844 156.388412 
L 373.724844 156.388412 
" clip-path="url(#p88df54a06e)" style="fill: none; stroke: #e2e8f0; stroke-opacity: 0.6; stroke-width: 0.5; stroke-linecap: square"/>
     </g>
     <g id="line2d_24"/>
     <g id="text_13">
      <!-- 标普500 -->
      <g style="fill: #94a3b8" transform="translate(22.014844 160.348412) scale(0.09 -0.09)">
       <defs>
        <path id="NotoSansSC-Medium-3bde" d="M 5754 4922 
L 2982 4922 
L 2982 4365 
L 5754 4365 
L 5754 4922 
z
M 2669 2310 
C 2554 2470 2016 3149 1824 3360 
L 1824 3514 
L 2611 3514 
L 2611 4064 
L 1824 4064 
L 1824 5370 
L 1235 5370 
L 1235 4064 
L 307 4064 
L 307 3514 
L 1114 3514 
C 922 2758 550 1888 160 1414 
C 269 1267 422 1005 480 845 
C 762 1229 1030 1818 1235 2445 
L 1235 -506 
L 1824 -506 
L 1824 2682 
C 2016 2387 2240 2035 2336 1837 
L 2669 2310 
z
M 3072 2202 
C 2912 1536 2630 845 2291 403 
C 2426 333 2662 179 2765 90 
C 3104 582 3424 1338 3610 2074 
L 3072 2202 
z
M 6099 2854 
L 6099 3411 
L 2701 3411 
L 2701 2854 
L 4006 2854 
L 4006 237 
C 4006 154 3981 128 3891 128 
C 3808 122 3526 122 3226 134 
C 3309 -45 3386 -307 3405 -480 
C 3846 -480 4147 -467 4352 -365 
C 4557 -269 4614 -90 4614 224 
L 4614 2854 
L 6099 2854 
z
M 4947 2054 
C 5235 1414 5510 582 5594 70 
L 6138 275 
C 6035 781 5741 1594 5446 2221 
L 4947 2054 
z
" transform="scale(0.015625)"/>
        <path id="NotoSansSC-Medium-3a47" d="M 4646 1683 
L 4646 1158 
L 1760 1158 
L 1760 1683 
L 4646 1683 
z
M 1760 173 
L 1760 704 
L 4646 704 
L 4646 173 
L 1760 173 
z
M 1178 -499 
L 1760 -499 
L 1760 -294 
L 4646 -294 
L 4646 -474 
L 5254 -474 
L 5254 2144 
L 1178 2144 
L 1178 -499 
z
M 2835 4134 
L 3526 4134 
L 3526 2976 
L 2835 2976 
L 2835 4134 
z
M 4090 2976 
L 4090 4134 
L 5754 4134 
L 5754 4621 
L 4544 4621 
C 4672 4794 4800 4998 4915 5203 
L 4326 5389 
C 4230 5158 4045 4845 3898 4621 
L 2176 4621 
L 2438 4736 
C 2368 4928 2182 5190 1997 5389 
L 1478 5190 
C 1619 5024 1760 4800 1850 4621 
L 698 4621 
L 698 4134 
L 2285 4134 
L 2285 2976 
L 346 2976 
L 346 2483 
L 6067 2483 
L 6067 2976 
L 4090 2976 
z
M 954 3923 
C 1152 3635 1331 3245 1402 2989 
L 1914 3194 
C 1843 3456 1651 3834 1440 4109 
L 954 3923 
z
M 4883 2995 
C 5056 3238 5254 3603 5427 3955 
L 4883 4122 
C 4781 3827 4576 3411 4422 3149 
L 4883 2995 
z
" transform="scale(0.015625)"/>
       </defs>
       <use xlink:href="#NotoSansSC-Medium-3bde"/>
       <use xlink:href="#NotoSansSC-Medium-3a47" transform="translate(100 0)"/>
       <use xlink:href="#NotoSansSC-Medium-16" transform="translate(200 0)"/>
       <use xlink:href="#NotoSansSC-Medium-11" transform="translate(257 0)"/>
       <use xlink:href="#NotoSansSC-Medium-11" transform="translate(314 0)"/>
      </g>
     </g>
    </g>
    <g id="ytick_6">
     <g id="line2d_25">
      <path d="M 58.904844 135.021237 
L 373.724844 135.021237 
" clip-path="url(#p88df54a06e)" style="fill: none; stroke: #e2e8f0; stroke-opacity: 0.6; stroke-width: 0.5; stroke-linecap: square"/>
     </g>
     <g id="line2d_26"/>
     <g id="text_14">
      <!-- 法国CAC -->
      <g style="fill: #94a3b8" transform="translate(20.278125 138.981237) scale(0.09 -0.09)">
       <defs>
        <path id="NotoSansSC-Medium-40aa" d="M 1786 2957 
C 1523 3168 998 3443 595 3603 
L 282 3155 
C 691 2970 1210 2675 1459 2464 
L 1786 2957 
z
M 1005 -429 
C 1382 173 1805 941 2138 1606 
L 1702 2003 
C 1331 1274 838 454 493 -26 
L 1005 -429 
z
M 634 4864 
C 1050 4678 1574 4378 1824 4154 
L 2170 4646 
C 1901 4851 1370 5133 966 5299 
L 634 4864 
z
M 6048 -230 
C 5862 275 5395 1018 4954 1574 
L 4474 1344 
C 4640 1107 4819 851 4979 589 
L 3194 403 
C 3552 915 3917 1542 4211 2176 
L 5978 2176 
L 5978 2739 
L 4371 2739 
L 4371 3776 
L 5734 3776 
L 5734 4339 
L 4371 4339 
L 4371 5370 
L 3763 5370 
L 3763 4339 
L 2451 4339 
L 2451 3776 
L 3763 3776 
L 3763 2739 
L 2182 2739 
L 2182 2176 
L 3501 2176 
C 3219 1498 2848 877 2714 698 
C 2560 461 2438 314 2304 282 
C 2374 115 2477 -186 2509 -314 
C 2701 -224 2989 -173 5254 102 
C 5370 -122 5466 -326 5517 -499 
L 6048 -230 
z
" transform="scale(0.015625)"/>
        <path id="NotoSansSC-Medium-24" d="M 2458 -83 
C 3066 -83 3546 160 3923 595 
L 3526 1062 
C 3245 755 2918 563 2483 563 
C 1651 563 1126 1248 1126 2368 
C 1126 3475 1690 4154 2502 4154 
C 2886 4154 3181 3981 3424 3731 
L 3827 4205 
C 3539 4518 3078 4800 2490 4800 
C 1299 4800 365 3878 365 2342 
C 365 800 1274 -83 2458 -83 
z
" transform="scale(0.015625)"/>
       </defs>
       <use xlink:href="#NotoSansSC-Medium-40aa"/>
       <use xlink:href="#NotoSansSC-Medium-2ae8" transform="translate(100 0)"/>
       <use xlink:href="#NotoSansSC-Medium-24" transform="translate(200 0)"/>
       <use xlink:href="#NotoSansSC-Medium-22" transform="translate(264.59375 0)"/>
       <use xlink:href="#NotoSansSC-Medium-24" transform="translate(325.703125 0)"/>
      </g>
     </g>
    </g>
    <g id="ytick_7">
     <g id="line2d_27">
      <path d="M 58.904844 113.654062 
L 373.724844 113.654062 
" clip-path="url(#p88df54a06e)" style="fill: none; stroke: #e2e8f0; stroke-opacity: 0.6; stroke-width: 0.5; stroke-linecap: square"/>
     </g>
     <g id="line2d_28"/>
     <g id="text_15">
      <!-- 道指 -->
      <g style="fill: #94a3b8" transform="translate(37.404844 117.614062) scale(0.09 -0.09)">
       <defs>
        <path id="NotoSansSC-Medium-6405" d="M 4954 2726 
L 3008 2726 
L 3008 3174 
L 4954 3174 
L 4954 2726 
z
M 4954 1882 
L 3008 1882 
L 3008 2330 
L 4954 2330 
L 4954 1882 
z
M 4954 1024 
L 3008 1024 
L 3008 1478 
L 4954 1478 
L 4954 1024 
z
M 2451 3610 
L 2451 589 
L 5542 589 
L 5542 3610 
L 4058 3610 
C 4128 3750 4192 3910 4262 4077 
L 6042 4077 
L 6042 4563 
L 4922 4563 
C 5062 4755 5210 4986 5357 5203 
L 4781 5363 
C 4678 5126 4493 4800 4333 4563 
L 3226 4563 
L 3552 4710 
C 3475 4902 3277 5197 3110 5402 
L 2611 5197 
C 2752 5011 2906 4749 2989 4563 
L 2010 4563 
L 2010 4077 
L 3616 4077 
C 3584 3923 3539 3757 3501 3610 
L 2451 3610 
z
M 1773 4090 
C 1587 4384 1184 4819 851 5126 
L 390 4832 
C 723 4506 1114 4051 1293 3757 
L 1773 4090 
z
M 1741 3104 
L 346 3104 
L 346 2554 
L 1171 2554 
L 1171 685 
C 890 570 570 320 262 19 
L 621 -474 
C 934 -96 1261 256 1478 256 
C 1626 256 1837 77 2112 -77 
C 2566 -314 3117 -390 3866 -390 
C 4474 -390 5549 -352 5990 -320 
C 6003 -160 6086 109 6157 256 
C 5542 179 4582 134 3885 134 
C 3194 134 2637 179 2221 397 
C 2010 506 1869 614 1741 678 
L 1741 3104 
z
" transform="scale(0.015625)"/>
       </defs>
       <use xlink:href="#NotoSansSC-Medium-6405"/>
       <use xlink:href="#NotoSansSC-Medium-36e2" transform="translate(100 0)"/>
      </g>
     </g>
    </g>
    <g id="ytick_8">
     <g id="line2d_29">
      <path d="M 58.904844 92.286887 
L 373.724844 92.286887 
" clip-path="url(#p88df54a06e)" style="fill: none; stroke: #e2e8f0; stroke-opacity: 0.6; stroke-width: 0.5; stroke-linecap: square"/>
     </g>
     <g id="line2d_30"/>
     <g id="text_16">
      <!-- 上证指数 -->
      <g style="fill: #94a3b8" transform="translate(19.404844 96.246887) scale(0.09 -0.09)">
       <defs>
        <path id="NotoSansSC-Medium-2205" d="M 3315 403 
L 3315 2784 
L 5626 2784 
L 5626 3379 
L 3315 3379 
L 3315 5280 
L 2675 5280 
L 2675 403 
L 339 403 
L 339 -198 
L 6067 -198 
L 6067 403 
L 3315 403 
z
" transform="scale(0.015625)"/>
        <path id="NotoSansSC-Medium-5f76" d="M 2029 4288 
C 1811 4550 1357 4954 1018 5229 
L 627 4870 
C 973 4570 1414 4154 1613 3878 
L 2029 4288 
z
M 1734 902 
L 1734 3398 
L 326 3398 
L 326 2829 
L 1158 2829 
L 1158 787 
C 1158 429 928 160 781 38 
C 890 -45 1082 -237 1152 -358 
C 1254 -211 1440 -58 2547 851 
C 2477 973 2368 1210 2317 1376 
L 1734 902 
z
M 4730 301 
L 4730 2253 
L 5894 2253 
L 5894 2803 
L 4730 2803 
L 4730 4365 
L 6016 4365 
L 6016 4922 
L 2464 4922 
L 2464 4365 
L 4122 4365 
L 4122 301 
L 3373 301 
L 3373 3270 
L 2784 3270 
L 2784 301 
L 2272 301 
L 2272 -256 
L 6138 -256 
L 6138 301 
L 4730 301 
z
" transform="scale(0.015625)"/>
        <path id="NotoSansSC-Medium-394a" d="M 2784 5267 
C 2675 5018 2483 4666 2330 4435 
L 2714 4262 
C 2886 4461 3091 4768 3283 5056 
L 2784 5267 
z
M 1363 4422 
C 1306 4653 1133 4986 966 5229 
L 531 5050 
C 698 4794 858 4448 909 4224 
L 1363 4422 
z
M 1600 2573 
L 2144 2573 
L 2144 3366 
C 2426 3155 2752 2893 2906 2746 
L 3226 3168 
C 3091 3258 2624 3552 2310 3738 
L 3405 3738 
L 3405 4211 
L 2144 4211 
L 2144 5370 
L 1600 5370 
L 1600 4211 
L 333 4211 
L 333 3738 
L 1414 3738 
C 1107 3366 653 3021 237 2854 
C 352 2739 486 2541 550 2406 
C 909 2598 1293 2912 1600 3245 
L 1600 2573 
z
M 2534 1613 
C 2400 1331 2221 1088 2010 877 
C 1798 986 1587 1088 1376 1178 
C 1453 1312 1536 1459 1619 1613 
L 2534 1613 
z
M 2957 326 
C 2822 422 2643 525 2458 634 
C 2790 998 3046 1446 3206 1997 
L 2886 2125 
L 2790 2099 
L 1850 2099 
C 1894 2202 1939 2298 1978 2394 
L 1446 2496 
C 1408 2368 1350 2240 1286 2099 
L 454 2099 
L 454 1613 
L 1043 1613 
C 909 1382 781 1152 653 979 
C 954 858 1286 710 1594 544 
C 1203 282 749 102 256 -13 
C 358 -122 474 -333 525 -461 
C 1107 -307 1632 -70 2074 275 
C 2278 160 2458 38 2598 -70 
L 2957 326 
z
M 5094 3610 
C 5005 2957 4870 2394 4685 1894 
C 4474 2419 4314 2995 4205 3610 
L 5094 3610 
z
M 6061 3610 
L 6061 4166 
L 4307 4166 
C 4390 4512 4461 4877 4512 5248 
L 3968 5325 
C 3821 4205 3533 3142 3034 2470 
C 3162 2387 3386 2202 3475 2099 
C 3616 2304 3750 2541 3866 2810 
C 3994 2246 4166 1734 4378 1274 
C 4032 698 3552 269 2886 -45 
C 2982 -160 3149 -410 3200 -531 
C 3827 -205 4301 211 4666 730 
C 4973 243 5350 -166 5818 -448 
C 5907 -307 6074 -90 6208 13 
C 5702 294 5299 723 4986 1267 
C 5312 1907 5510 2682 5645 3610 
L 6061 3610 
z
" transform="scale(0.015625)"/>
       </defs>
       <use xlink:href="#NotoSansSC-Medium-2205"/>
       <use xlink:href="#NotoSansSC-Medium-5f76" transform="translate(100 0)"/>
       <use xlink:href="#NotoSansSC-Medium-36e2" transform="translate(200 0)"/>
       <use xlink:href="#NotoSansSC-Medium-394a" transform="translate(300 0)"/>
      </g>
     </g>
    </g>
   </g>
   <g id="line2d_31">
    <path d="M 123.593885 254.624 
L 123.593885 79.52 
" clip-path="url(#p88df54a06e)" style="fill: none; stroke: #334155; stroke-width: 0.8; stroke-linecap: square"/>
    <defs>
     <path id="m7a9c4575b0" d="M 0 3 
C 0.795609 3 1.55874 2.683901 2.12132 2.12132 
C 2.683901 1.55874 3 0.795609 3 0 
C 3 -0.795609 2.683901 -1.55874 2.12132 -2.12132 
C 1.55874 -2.683901 0.795609 -3 0 -3 
C -0.795609 -3 -1.55874 -2.683901 -2.12132 -2.12132 
C -2.683901 -1.55874 -3 -0.795609 -3 0 
C -3 0.795609 -2.683901 1.55874 -2.12132 2.12132 
C -1.55874 2.683901 -0.795609 3 0 3 
z
" style="stroke: #334155; stroke-width: 1.5"/>
    </defs>
    <g clip-path="url(#p88df54a06e)">
     <use xlink:href="#m7a9c4575b0" x="123.593885" y="254.624" style="fill: #334155; stroke: #334155; stroke-width: 1.5"/>
     <use xlink:href="#m7a9c4575b0" x="123.593885" y="79.52" style="fill: #334155; stroke: #334155; stroke-width: 1.5"/>
    </g>
   </g>
   <g id="patch_3">
    <path d="M 123.593885 246.664727 
L 324.992433 246.664727 
L 324.992433 237.049498 
L 123.593885 237.049498 
z
" clip-path="url(#p88df54a06e)" style="fill: #b91c1c; stroke: #ffffff; stroke-width: 1.5; stroke-linejoin: miter"/>
   </g>
   <g id="patch_4">
    <path d="M 123.593885 225.297552 
L 218.471145 225.297552 
L 218.471145 215.682323 
L 123.593885 215.682323 
z
" clip-path="url(#p88df54a06e)" style="fill: #dc2626; stroke: #ffffff; stroke-width: 1.5; stroke-linejoin: miter"/>
   </g>
   <g id="patch_5">
    <path d="M 123.593885 203.930377 
L 174.913857 203.930377 
L 174.913857 194.315148 
L 123.593885 194.315148 
z
" clip-path="url(#p88df54a06e)" style="fill: #ef4444; stroke: #ffffff; stroke-width: 1.5; stroke-linejoin: miter"/>
   </g>
   <g id="patch_6">
    <path d="M 123.593885 182.563202 
L 210.2772 182.563202 
L 210.2772 172.947973 
L 123.593885 172.947973 
z
" clip-path="url(#p88df54a06e)" style="fill: #dc2626; stroke: #ffffff; stroke-width: 1.5; stroke-linejoin: miter"/>
   </g>
   <g id="patch_7">
    <path d="M 123.593885 161.196027 
L 149.900762 161.196027 
L 149.900762 151.580798 
L 123.593885 151.580798 
z
" clip-path="url(#p88df54a06e)" style="fill: #ef4444; stroke: #ffffff; stroke-width: 1.5; stroke-linejoin: miter"/>
   </g>
   <g id="patch_8">
    <path d="M 123.593885 139.828852 
L 199.495693 139.828852 
L 199.495693 130.213623 
L 123.593885 130.213623 
z
" clip-path="url(#p88df54a06e)" style="fill: #ef4444; stroke: #ffffff; stroke-width: 1.5; stroke-linejoin: miter"/>
   </g>
   <g id="patch_9">
    <path d="M 123.593885 118.461677 
L 113.674899 118.461677 
L 113.674899 108.846448 
L 123.593885 108.846448 
z
" clip-path="url(#p88df54a06e)" style="fill: #16a34a; stroke: #ffffff; stroke-width: 1.5; stroke-linejoin: miter"/>
   </g>
   <g id="patch_10">
    <path d="M 123.593885 97.094502 
L 116.26246 97.094502 
L 116.26246 87.479273 
L 123.593885 87.479273 
z
" clip-path="url(#p88df54a06e)" style="fill: #16a34a; stroke: #ffffff; stroke-width: 1.5; stroke-linejoin: miter"/>
   </g>
   <g id="text_17">
    <!-- +4.67% -->
    <g style="fill: #dc2626" transform="translate(328.442515 245.087113) scale(0.085 -0.085)">
     <defs>
      <path id="NotoSansSC-Medium-c" d="M 1542 730 
L 2106 730 
L 2106 2112 
L 3405 2112 
L 3405 2643 
L 2106 2643 
L 2106 4026 
L 1542 4026 
L 1542 2643 
L 243 2643 
L 243 2112 
L 1542 2112 
L 1542 730 
z
" transform="scale(0.015625)"/>
      <path id="NotoSansSC-Medium-f" d="M 954 -83 
C 1229 -83 1446 128 1446 429 
C 1446 736 1229 954 954 954 
C 678 954 461 736 461 429 
C 461 128 678 -83 954 -83 
z
" transform="scale(0.015625)"/>
      <path id="NotoSansSC-Medium-17" d="M 1914 2406 
C 2419 2406 2694 2067 2694 1466 
C 2694 851 2368 480 1958 480 
C 1453 480 1114 922 1037 1856 
C 1318 2259 1645 2406 1914 2406 
z
M 1965 -83 
C 2733 -83 3373 531 3373 1466 
C 3373 2458 2842 2944 2048 2944 
C 1709 2944 1299 2739 1024 2400 
C 1056 3744 1555 4198 2157 4198 
C 2432 4198 2720 4051 2893 3846 
L 3296 4294 
C 3027 4576 2643 4800 2118 4800 
C 1190 4800 339 4077 339 2266 
C 339 666 1069 -83 1965 -83 
z
" transform="scale(0.015625)"/>
      <path id="NotoSansSC-Medium-18" d="M 1235 0 
L 1990 0 
C 2067 1843 2240 2886 3347 4262 
L 3347 4717 
L 314 4717 
L 314 4090 
L 2528 4090 
C 1619 2822 1318 1722 1235 0 
z
" transform="scale(0.015625)"/>
     </defs>
     <use xlink:href="#NotoSansSC-Medium-c"/>
     <use xlink:href="#NotoSansSC-Medium-15" transform="translate(57 0)"/>
     <use xlink:href="#NotoSansSC-Medium-f" transform="translate(114 0)"/>
     <use xlink:href="#NotoSansSC-Medium-17" transform="translate(143.796875 0)"/>
     <use xlink:href="#NotoSansSC-Medium-18" transform="translate(200.796875 0)"/>
     <use xlink:href="#NotoSansSC-Medium-6" transform="translate(257.796875 0)"/>
    </g>
   </g>
   <g id="text_18">
    <!-- +2.20% -->
    <g style="fill: #dc2626" transform="translate(221.921227 223.719938) scale(0.085 -0.085)">
     <use xlink:href="#NotoSansSC-Medium-c"/>
     <use xlink:href="#NotoSansSC-Medium-13" transform="translate(57 0)"/>
     <use xlink:href="#NotoSansSC-Medium-f" transform="translate(114 0)"/>
     <use xlink:href="#NotoSansSC-Medium-13" transform="translate(143.796875 0)"/>
     <use xlink:href="#NotoSansSC-Medium-11" transform="translate(200.796875 0)"/>
     <use xlink:href="#NotoSansSC-Medium-6" transform="translate(257.796875 0)"/>
    </g>
   </g>
   <g id="text_19">
    <!-- +1.19% -->
    <g style="fill: #dc2626" transform="translate(178.36394 202.352763) scale(0.085 -0.085)">
     <defs>
      <path id="NotoSansSC-Medium-1a" d="M 960 3251 
C 960 3866 1280 4230 1683 4230 
C 2195 4230 2547 3808 2618 2880 
C 2349 2477 2016 2304 1722 2304 
C 1229 2304 960 2650 960 3251 
z
M 1555 -83 
C 2464 -83 3309 659 3309 2515 
C 3309 4077 2579 4800 1677 4800 
C 915 4800 275 4186 275 3251 
C 275 2266 806 1773 1594 1773 
C 1952 1773 2355 1984 2630 2323 
C 2586 979 2093 518 1523 518 
C 1229 518 941 659 755 870 
L 352 416 
C 627 134 1011 -83 1555 -83 
z
" transform="scale(0.015625)"/>
     </defs>
     <use xlink:href="#NotoSansSC-Medium-c"/>
     <use xlink:href="#NotoSansSC-Medium-12" transform="translate(57 0)"/>
     <use xlink:href="#NotoSansSC-Medium-f" transform="translate(114 0)"/>
     <use xlink:href="#NotoSansSC-Medium-12" transform="translate(143.796875 0)"/>
     <use xlink:href="#NotoSansSC-Medium-1a" transform="translate(200.796875 0)"/>
     <use xlink:href="#NotoSansSC-Medium-6" transform="translate(257.796875 0)"/>
    </g>
   </g>
   <g id="text_20">
    <!-- +2.01% -->
    <g style="fill: #dc2626" transform="translate(213.727282 180.985588) scale(0.085 -0.085)">
     <use xlink:href="#NotoSansSC-Medium-c"/>
     <use xlink:href="#NotoSansSC-Medium-13" transform="translate(57 0)"/>
     <use xlink:href="#NotoSansSC-Medium-f" transform="translate(114 0)"/>
     <use xlink:href="#NotoSansSC-Medium-11" transform="translate(143.796875 0)"/>
     <use xlink:href="#NotoSansSC-Medium-12" transform="translate(200.796875 0)"/>
     <use xlink:href="#NotoSansSC-Medium-6" transform="translate(257.796875 0)"/>
    </g>
   </g>
   <g id="text_21">
    <!-- +0.61% -->
    <g style="fill: #dc2626" transform="translate(153.350844 159.618412) scale(0.085 -0.085)">
     <use xlink:href="#NotoSansSC-Medium-c"/>
     <use xlink:href="#NotoSansSC-Medium-11" transform="translate(57 0)"/>
     <use xlink:href="#NotoSansSC-Medium-f" transform="translate(114 0)"/>
     <use xlink:href="#NotoSansSC-Medium-17" transform="translate(143.796875 0)"/>
     <use xlink:href="#NotoSansSC-Medium-12" transform="translate(200.796875 0)"/>
     <use xlink:href="#NotoSansSC-Medium-6" transform="translate(257.796875 0)"/>
    </g>
   </g>
   <g id="text_22">
    <!-- +1.76% -->
    <g style="fill: #dc2626" transform="translate(202.945775 138.251237) scale(0.085 -0.085)">
     <use xlink:href="#NotoSansSC-Medium-c"/>
     <use xlink:href="#NotoSansSC-Medium-12" transform="translate(57 0)"/>
     <use xlink:href="#NotoSansSC-Medium-f" transform="translate(114 0)"/>
     <use xlink:href="#NotoSansSC-Medium-18" transform="translate(143.796875 0)"/>
     <use xlink:href="#NotoSansSC-Medium-17" transform="translate(200.796875 0)"/>
     <use xlink:href="#NotoSansSC-Medium-6" transform="translate(257.796875 0)"/>
    </g>
   </g>
   <g id="text_23">
    <!-- -0.23% -->
    <g style="fill: #ffffff" transform="translate(82.140285 116.884062) scale(0.085 -0.085)">
     <use xlink:href="#NotoSansSC-Medium-e"/>
     <use xlink:href="#NotoSansSC-Medium-11" transform="translate(35.703125 0)"/>
     <use xlink:href="#NotoSansSC-Medium-f" transform="translate(92.703125 0)"/>
     <use xlink:href="#NotoSansSC-Medium-13" transform="translate(122.5 0)"/>
     <use xlink:href="#NotoSansSC-Medium-14" transform="translate(179.5 0)"/>
     <use xlink:href="#NotoSansSC-Medium-6" transform="translate(236.5 0)"/>
    </g>
   </g>
   <g id="text_24">
    <!-- -0.17% -->
    <g style="fill: #ffffff" transform="translate(84.727847 95.516887) scale(0.085 -0.085)">
     <use xlink:href="#NotoSansSC-Medium-e"/>
     <use xlink:href="#NotoSansSC-Medium-11" transform="translate(35.703125 0)"/>
     <use xlink:href="#NotoSansSC-Medium-f" transform="translate(92.703125 0)"/>
     <use xlink:href="#NotoSansSC-Medium-12" transform="translate(122.5 0)"/>
     <use xlink:href="#NotoSansSC-Medium-18" transform="translate(179.5 0)"/>
     <use xlink:href="#NotoSansSC-Medium-6" transform="translate(236.5 0)"/>
    </g>
   </g>
   <g id="text_25">
    <g id="patch_11">
     <path d="M 293.403444 99.9752 
L 367.428444 99.9752 
Q 370.128444 99.9752 370.128444 97.2752 
L 370.128444 88.2752 
Q 370.128444 85.5752 367.428444 85.5752 
L 293.403444 85.5752 
Q 290.703444 85.5752 290.703444 88.2752 
L 290.703444 97.2752 
Q 290.703444 99.9752 293.403444 99.9752 
z
" style="fill: #fef2f2; opacity: 0.9; stroke: #fecaca; stroke-width: 1.5; stroke-linejoin: miter"/>
    </g>
    <!-- 亚太领涨 全球共振 -->
    <g style="fill: #dc2626" transform="translate(293.403444 96.1952) scale(0.09 -0.09)">
     <defs>
      <path id="NotoSansSC-Medium-2295" d="M 2720 4410 
L 3616 4410 
L 3616 410 
L 2720 410 
L 2720 4410 
z
M 4262 410 
L 4262 4410 
L 5952 4410 
L 5952 4998 
L 480 4998 
L 480 4410 
L 2074 4410 
L 2074 410 
L 288 410 
L 288 -160 
L 6106 -160 
L 6106 410 
L 4262 410 
z
M 525 3424 
C 832 2714 1190 1779 1331 1222 
L 1907 1466 
C 1741 2010 1357 2918 1043 3610 
L 525 3424 
z
M 4902 1267 
C 5203 1837 5568 2675 5830 3424 
L 5248 3610 
C 5050 2918 4672 2029 4371 1466 
L 4902 1267 
z
" transform="scale(0.015625)"/>
      <path id="NotoSansSC-Medium-2d10" d="M 6035 3117 
L 6035 3725 
L 3443 3725 
C 3501 4307 3507 4870 3514 5370 
L 2867 5370 
C 2861 4877 2867 4314 2810 3725 
L 410 3725 
L 410 3117 
L 2720 3117 
C 2483 1901 1875 685 243 -6 
C 410 -134 595 -346 685 -506 
C 1389 -186 1914 224 2310 704 
C 2707 339 3168 -147 3379 -461 
L 3910 -70 
C 3654 269 3130 768 2714 1120 
L 2534 998 
C 2893 1510 3117 2074 3264 2650 
C 3744 1203 4531 90 5754 -512 
C 5850 -339 6054 -90 6195 38 
C 4960 570 4160 1722 3725 3117 
L 6035 3117 
z
" transform="scale(0.015625)"/>
      <path id="NotoSansSC-Medium-6c32" d="M 3373 3898 
L 3373 922 
L 3904 922 
L 3904 3456 
L 5357 3456 
L 5357 928 
L 5907 928 
L 5907 3898 
L 4698 3898 
C 4768 4083 4851 4307 4934 4512 
L 6067 4512 
L 6067 5037 
L 3219 5037 
L 3219 4512 
L 4384 4512 
C 4326 4314 4250 4083 4173 3898 
L 3373 3898 
z
M 3245 3514 
C 2995 3866 2477 4416 2042 4845 
C 2099 4973 2157 5101 2208 5229 
L 1690 5382 
C 1408 4634 858 3795 211 3264 
C 339 3174 531 2989 621 2886 
C 1075 3296 1485 3814 1805 4378 
C 2214 3955 2656 3437 2880 3091 
L 3245 3514 
z
M 1312 3462 
C 1536 3232 1811 2906 1946 2694 
L 2336 2976 
C 2202 3174 1933 3469 1683 3693 
L 1312 3462 
z
M 2598 2560 
L 2509 2528 
L 685 2528 
L 685 2016 
L 2253 2016 
C 2061 1626 1805 1190 1581 858 
C 1427 992 1280 1133 1139 1248 
L 742 947 
C 1210 531 1786 -64 2048 -442 
L 2477 -90 
C 2349 70 2163 282 1958 486 
C 2298 992 2733 1722 2982 2330 
L 2598 2560 
z
M 4390 3194 
C 4378 1062 4320 307 2854 -122 
C 2950 -218 3098 -410 3142 -538 
C 4749 -32 4864 902 4883 3194 
L 4390 3194 
z
M 4602 589 
C 5005 256 5523 -211 5779 -499 
L 6157 -134 
C 5901 147 5370 595 4960 902 
L 4602 589 
z
" transform="scale(0.015625)"/>
      <path id="NotoSansSC-Medium-2563" d="M 1446 3053 
C 2093 3482 2707 4000 3194 4582 
C 3750 3968 4339 3482 4979 3053 
L 1446 3053 
z
M 5158 2528 
L 5158 2931 
C 5376 2790 5606 2656 5843 2522 
C 5926 2701 6099 2906 6246 3034 
C 5222 3533 4307 4147 3533 5018 
C 3571 5075 3610 5126 3648 5184 
L 3117 5434 
C 2483 4435 1325 3546 173 3046 
C 326 2912 493 2707 582 2554 
C 813 2669 1050 2797 1274 2938 
L 1274 2528 
L 2886 2528 
L 2886 1638 
L 1338 1638 
L 1338 1120 
L 2886 1120 
L 2886 192 
L 512 192 
L 512 -339 
L 5926 -339 
L 5926 192 
L 3514 192 
L 3514 1120 
L 5133 1120 
L 5133 1638 
L 3514 1638 
L 3514 2528 
L 5158 2528 
z
" transform="scale(0.015625)"/>
      <path id="NotoSansSC-Medium-47ca" d="M 5862 4659 
C 5702 4851 5370 5126 5094 5312 
L 4762 5005 
C 5030 4806 5350 4512 5504 4307 
L 5862 4659 
z
M 5542 3437 
C 5350 3104 5050 2688 4774 2349 
C 4666 2682 4576 3053 4506 3488 
L 4506 3750 
L 6125 3750 
L 6125 4301 
L 4506 4301 
L 4506 5363 
L 3930 5363 
L 3930 4301 
L 2413 4301 
L 2413 3750 
L 3930 3750 
L 3930 2144 
C 3386 1677 2803 1184 2381 845 
L 2304 1318 
L 1574 1094 
L 1574 2592 
L 2176 2592 
L 2176 3142 
L 1574 3142 
L 1574 4416 
L 2272 4416 
L 2272 4966 
L 294 4966 
L 294 4416 
L 1024 4416 
L 1024 3142 
L 339 3142 
L 339 2592 
L 1024 2592 
L 1024 928 
C 723 838 442 755 218 698 
L 346 128 
C 883 294 1574 512 2234 730 
L 2144 659 
L 2509 141 
C 2931 525 3437 1005 3930 1498 
L 3930 192 
C 3930 90 3891 58 3789 51 
C 3693 51 3386 45 3040 58 
C 3117 -96 3219 -358 3245 -512 
C 3738 -512 4038 -493 4237 -390 
C 4429 -294 4506 -128 4506 192 
L 4506 1619 
C 4806 947 5235 429 5862 -45 
C 5926 122 6093 307 6227 416 
C 5651 819 5261 1261 4979 1850 
C 5312 2195 5722 2720 6061 3168 
L 5542 3437 
z
M 2483 3194 
C 2746 2829 3021 2342 3117 2022 
L 3610 2259 
C 3501 2573 3213 3046 2944 3398 
L 2483 3194 
z
" transform="scale(0.015625)"/>
      <path id="NotoSansSC-Medium-256c" d="M 2048 1229 
C 1702 774 1011 237 397 -90 
C 538 -192 755 -384 877 -506 
C 1510 -147 2214 442 2675 986 
L 2048 1229 
z
M 3706 941 
C 4288 499 5056 -128 5421 -499 
L 5997 -154 
C 5587 237 4806 832 4230 1248 
L 3706 941 
z
M 2374 3507 
L 4026 3507 
L 4026 2125 
L 2374 2125 
L 2374 3507 
z
M 4646 2125 
L 4646 3507 
L 5875 3507 
L 5875 4083 
L 4646 4083 
L 4646 5318 
L 4026 5318 
L 4026 4083 
L 2374 4083 
L 2374 5318 
L 1760 5318 
L 1760 4083 
L 576 4083 
L 576 3507 
L 1760 3507 
L 1760 2125 
L 333 2125 
L 333 1542 
L 6086 1542 
L 6086 2125 
L 4646 2125 
z
" transform="scale(0.015625)"/>
      <path id="NotoSansSC-Medium-370a" d="M 2221 2586 
L 1613 2413 
L 1613 3571 
L 2214 3571 
L 2214 4122 
L 1613 4122 
L 1613 5363 
L 1043 5363 
L 1043 4122 
L 352 4122 
L 352 3571 
L 1043 3571 
L 1043 2259 
C 742 2176 461 2106 237 2054 
L 365 1478 
L 1043 1670 
L 1043 173 
C 1043 90 1018 70 947 70 
C 883 64 678 64 474 70 
C 550 -77 614 -333 634 -474 
C 998 -474 1235 -461 1402 -358 
C 1562 -275 1613 -115 1613 173 
L 1613 1843 
C 1837 1907 2074 1971 2298 2042 
L 2221 2586 
z
M 5664 2259 
C 5510 2080 5274 1856 5056 1658 
C 4960 1920 4883 2182 4819 2458 
L 6061 2458 
L 6061 2976 
L 3130 2976 
L 3130 4550 
L 5984 4550 
L 5984 5094 
L 2560 5094 
L 2560 2592 
C 2560 1702 2522 576 2074 -211 
C 2208 -282 2458 -435 2566 -531 
C 3034 269 3123 1504 3130 2458 
L 3501 2458 
L 3501 480 
C 3501 173 3354 -19 3251 -102 
C 3341 -192 3488 -397 3546 -518 
C 3648 -416 3827 -320 4877 134 
C 4845 250 4813 474 4806 627 
L 4038 333 
L 4038 2458 
L 4371 2458 
C 4608 1261 5050 205 5773 -358 
C 5862 -211 6042 -6 6170 96 
C 5779 346 5472 755 5235 1248 
C 5491 1427 5786 1658 6067 1894 
L 5664 2259 
z
M 5792 3526 
L 5792 4038 
L 3418 4038 
L 3418 3526 
L 5792 3526 
z
" transform="scale(0.015625)"/>
     </defs>
     <use xlink:href="#NotoSansSC-Medium-2295"/>
     <use xlink:href="#NotoSansSC-Medium-2d10" transform="translate(100 0)"/>
     <use xlink:href="#NotoSansSC-Medium-6c32" transform="translate(200 0)"/>
     <use xlink:href="#NotoSansSC-Medium-417c" transform="translate(300 0)"/>
     <use xlink:href="#NotoSansSC-Medium-1" transform="translate(400 0)"/>
     <use xlink:href="#NotoSansSC-Medium-2563" transform="translate(422.5 0)"/>
     <use xlink:href="#NotoSansSC-Medium-47ca" transform="translate(522.5 0)"/>
     <use xlink:href="#NotoSansSC-Medium-256c" transform="translate(622.5 0)"/>
     <use xlink:href="#NotoSansSC-Medium-370a" transform="translate(722.5 0)"/>
    </g>
   </g>
  </g>
  <g id="text_26">
   <!-- 全球主要指数 隔夜表现 -->
   <g style="fill: #1e293b" transform="translate(58.904844 23.12) scale(0.14 -0.14)">
    <defs>
     <path id="NotoSansSC-Medium-2236" d="M 3526 288 
L 3526 1702 
L 5446 1702 
L 5446 2278 
L 3526 2278 
L 3526 3552 
L 5728 3552 
L 5728 4134 
L 3693 4134 
L 4006 4358 
C 3744 4659 3219 5088 2810 5363 
L 2323 5024 
C 2675 4774 3091 4416 3354 4134 
L 666 4134 
L 666 3552 
L 2874 3552 
L 2874 2278 
L 973 2278 
L 973 1702 
L 2874 1702 
L 2874 288 
L 378 288 
L 378 -294 
L 6048 -294 
L 6048 288 
L 3526 288 
z
" transform="scale(0.015625)"/>
     <path id="NotoSansSC-Medium-5d35" d="M 4186 1440 
C 4000 1133 3750 883 3430 691 
C 3008 787 2573 890 2150 979 
C 2259 1114 2374 1280 2496 1440 
L 4186 1440 
z
M 1312 3654 
L 2150 3654 
L 2150 2906 
L 1312 2906 
L 1312 3654 
z
M 2714 4595 
L 3610 4595 
L 3610 4128 
L 2714 4128 
L 2714 4595 
z
M 5107 3654 
L 5107 2906 
L 4173 2906 
L 4173 3654 
L 5107 3654 
z
M 2714 2906 
L 2714 3654 
L 3610 3654 
L 3610 2906 
L 2714 2906 
z
M 6054 1440 
L 6054 1952 
L 2829 1952 
C 2912 2093 2982 2221 3053 2355 
L 2733 2432 
L 5696 2432 
L 5696 4128 
L 4173 4128 
L 4173 4595 
L 5933 4595 
L 5933 5114 
L 448 5114 
L 448 4595 
L 2150 4595 
L 2150 4128 
L 755 4128 
L 755 2432 
L 2406 2432 
C 2330 2272 2240 2118 2138 1952 
L 352 1952 
L 352 1440 
L 1792 1440 
C 1587 1152 1376 883 1178 672 
C 1683 570 2176 461 2650 346 
C 2054 154 1318 58 416 13 
C 512 -115 602 -333 640 -499 
C 1850 -397 2797 -224 3514 128 
C 4269 -83 4928 -301 5414 -493 
L 5901 -32 
C 5427 141 4806 326 4122 512 
C 4422 755 4666 1062 4851 1440 
L 6054 1440 
z
" transform="scale(0.015625)"/>
     <path id="NotoSansSC-Medium-6a44" d="M 1971 5133 
L 1888 5114 
L 499 5114 
L 499 -486 
L 1011 -486 
L 1011 4576 
L 1683 4576 
C 1562 4154 1402 3616 1242 3194 
C 1658 2714 1760 2285 1760 1958 
C 1760 1773 1728 1613 1638 1549 
C 1581 1510 1523 1498 1453 1491 
C 1357 1485 1248 1491 1120 1498 
C 1203 1357 1254 1126 1254 986 
C 1402 979 1562 979 1677 992 
C 1818 1018 1926 1056 2022 1120 
C 2208 1261 2285 1530 2285 1907 
C 2285 2285 2189 2746 1766 3258 
C 1965 3757 2182 4390 2362 4909 
L 1971 5133 
z
M 5242 826 
L 5242 1235 
L 4800 1235 
C 4941 1453 5088 1715 5222 1952 
L 4806 2118 
C 4704 1856 4525 1504 4371 1235 
L 3853 1235 
L 4198 1389 
C 4109 1587 3904 1901 3738 2131 
L 3360 1984 
C 3526 1754 3712 1434 3802 1235 
L 3296 1235 
L 3296 826 
L 4013 826 
L 4013 -358 
L 4506 -358 
L 4506 826 
L 5242 826 
z
M 5971 2662 
L 2554 2662 
L 2554 -506 
L 3059 -506 
L 3059 2208 
L 5446 2208 
L 5446 64 
C 5446 0 5427 -19 5363 -19 
C 5299 -26 5114 -26 4915 -13 
C 4979 -154 5037 -358 5050 -506 
C 5382 -506 5613 -493 5773 -410 
C 5933 -326 5971 -186 5971 58 
L 5971 2662 
z
M 5203 3379 
L 3315 3379 
L 3315 3872 
L 5203 3872 
L 5203 3379 
z
M 5734 4294 
L 2810 4294 
L 2810 2963 
L 5734 2963 
L 5734 4294 
z
M 2509 5101 
L 2509 4595 
L 6074 4595 
L 6074 5101 
L 2509 5101 
z
" transform="scale(0.015625)"/>
     <path id="NotoSansSC-Medium-2d02" d="M 4627 2138 
C 4480 2330 4179 2605 3930 2803 
L 3571 2509 
C 3821 2304 4115 2010 4243 1818 
L 4627 2138 
z
M 5165 2957 
C 4928 2253 4563 1683 4109 1222 
C 3750 1581 3462 1990 3238 2438 
C 3366 2605 3488 2784 3597 2957 
L 5165 2957 
z
M 5498 3507 
L 5395 3482 
L 3891 3482 
C 3987 3661 4070 3834 4141 4006 
L 3642 4141 
L 6010 4141 
L 6010 4698 
L 3667 4698 
C 3571 4909 3405 5203 3264 5421 
L 2707 5229 
C 2810 5075 2906 4870 2995 4698 
L 403 4698 
L 403 4141 
L 1779 4141 
C 1414 3264 819 2432 160 1907 
C 294 1805 512 1562 602 1453 
C 800 1632 1011 1850 1203 2080 
L 1203 -506 
L 1792 -506 
L 1792 2893 
C 2010 3245 2208 3610 2368 3987 
L 1875 4141 
L 3539 4141 
C 3251 3366 2662 2470 1958 1926 
C 2086 1837 2278 1638 2374 1523 
C 2560 1664 2726 1830 2886 2010 
C 3117 1587 3379 1203 3693 858 
C 3200 467 2624 186 2003 -19 
C 2131 -115 2310 -358 2381 -512 
C 3008 -294 3590 19 4109 448 
C 4582 26 5146 -307 5786 -518 
C 5875 -352 6048 -109 6189 6 
C 5568 186 5005 474 4531 845 
C 5133 1478 5606 2291 5875 3334 
L 5498 3507 
z
" transform="scale(0.015625)"/>
     <path id="NotoSansSC-Medium-5c1a" d="M 5344 2234 
C 5088 1971 4672 1651 4307 1408 
C 4064 1709 3872 2048 3718 2419 
L 5965 2419 
L 5965 2931 
L 3482 2931 
L 3482 3411 
L 5498 3411 
L 5498 3891 
L 3482 3891 
L 3482 4339 
L 5760 4339 
L 5760 4851 
L 3482 4851 
L 3482 5363 
L 2886 5363 
L 2886 4851 
L 685 4851 
L 685 4339 
L 2886 4339 
L 2886 3891 
L 1005 3891 
L 1005 3411 
L 2886 3411 
L 2886 2931 
L 422 2931 
L 422 2419 
L 2394 2419 
C 1811 1926 979 1478 218 1242 
C 352 1120 525 902 614 762 
C 941 883 1274 1037 1606 1222 
L 1606 486 
C 1606 224 1446 90 1331 32 
C 1427 -90 1542 -352 1587 -506 
C 1754 -390 2010 -307 3795 243 
C 3757 371 3706 608 3693 768 
L 2227 346 
L 2227 1613 
C 2566 1850 2886 2112 3142 2387 
C 3635 1062 4480 122 5792 -320 
C 5875 -160 6048 70 6176 198 
C 5568 371 5062 666 4646 1043 
C 5030 1280 5472 1581 5837 1869 
L 5344 2234 
z
" transform="scale(0.015625)"/>
     <path id="NotoSansSC-Medium-4779" d="M 3322 4550 
L 5114 4550 
L 5114 1709 
L 5702 1709 
L 5702 5069 
L 2758 5069 
L 2758 1709 
L 3322 1709 
L 3322 4550 
z
M 2522 1338 
C 2259 1261 1997 1184 1741 1120 
L 1741 2592 
L 2374 2592 
L 2374 3142 
L 1741 3142 
L 1741 4416 
L 2509 4416 
L 2509 4966 
L 352 4966 
L 352 4416 
L 1171 4416 
L 1171 3142 
L 442 3142 
L 442 2592 
L 1171 2592 
L 1171 960 
C 826 870 512 787 256 730 
L 384 160 
C 1011 333 1830 563 2592 794 
L 2522 1338 
z
M 4947 90 
C 4794 90 4742 134 4742 307 
L 4742 1773 
L 4346 1773 
C 4448 2176 4480 2573 4480 2938 
L 4480 4077 
L 3930 4077 
L 3930 2950 
C 3930 1965 3738 736 2131 -96 
C 2246 -179 2432 -410 2502 -518 
C 3418 -38 3923 614 4192 1286 
L 4192 250 
C 4192 -224 4378 -358 4858 -358 
L 5382 -358 
C 5978 -358 6054 -90 6118 909 
C 5978 941 5786 1024 5651 1139 
C 5619 262 5581 90 5389 90 
L 4947 90 
z
" transform="scale(0.015625)"/>
    </defs>
    <use xlink:href="#NotoSansSC-Medium-2563"/>
    <use xlink:href="#NotoSansSC-Medium-47ca" transform="translate(100 0)"/>
    <use xlink:href="#NotoSansSC-Medium-2236" transform="translate(200 0)"/>
    <use xlink:href="#NotoSansSC-Medium-5d35" transform="translate(300 0)"/>
    <use xlink:href="#NotoSansSC-Medium-36e2" transform="translate(400 0)"/>
    <use xlink:href="#NotoSansSC-Medium-394a" transform="translate(500 0)"/>
    <use xlink:href="#NotoSansSC-Medium-1" transform="translate(600 0)"/>
    <use xlink:href="#NotoSansSC-Medium-6a44" transform="translate(622.5 0)"/>
    <use xlink:href="#NotoSansSC-Medium-2d02" transform="translate(722.5 0)"/>
    <use xlink:href="#NotoSansSC-Medium-5c1a" transform="translate(822.5 0)"/>
    <use xlink:href="#NotoSansSC-Medium-4779" transform="translate(922.5 0)"/>
   </g>
  </g>
  <g id="text_27">
   <!-- 2026年5月27日 · 亚太领涨 · 红涨绿跌 -->
   <g style="fill: #64748b" transform="translate(58.904844 43.664) scale(0.09 -0.09)">
    <defs>
     <path id="NotoSansSC-Medium-3254" d="M 1939 1485 
L 1939 2618 
L 3226 2618 
L 3226 1485 
L 1939 1485 
z
M 6086 1485 
L 3840 1485 
L 3840 2618 
L 5626 2618 
L 5626 3174 
L 3840 3174 
L 3840 4058 
L 5773 4058 
L 5773 4634 
L 2067 4634 
C 2150 4826 2240 5037 2317 5235 
L 1715 5395 
C 1421 4544 909 3731 320 3226 
C 467 3136 723 2944 838 2842 
C 1165 3162 1485 3584 1760 4058 
L 3226 4058 
L 3226 3174 
L 1344 3174 
L 1344 1485 
L 314 1485 
L 314 909 
L 3226 909 
L 3226 -506 
L 3840 -506 
L 3840 909 
L 6086 909 
L 6086 1485 
z
" transform="scale(0.015625)"/>
     <path id="NotoSansSC-Medium-3ae0" d="M 1843 2010 
C 1882 2342 1901 2662 1901 2957 
L 4653 2957 
L 4653 2010 
L 1843 2010 
z
M 4653 4474 
L 4653 3526 
L 1901 3526 
L 1901 4474 
L 4653 4474 
z
M 5280 5050 
L 1293 5050 
L 1293 3040 
C 1293 2035 1197 781 198 -77 
C 333 -166 563 -384 653 -512 
C 1261 6 1581 717 1747 1434 
L 4653 1434 
L 4653 314 
C 4653 179 4602 128 4461 128 
C 4307 122 3795 115 3296 141 
C 3398 -26 3514 -314 3552 -486 
C 4218 -486 4653 -474 4922 -365 
C 5178 -269 5280 -83 5280 301 
L 5280 5050 
z
" transform="scale(0.015625)"/>
     <path id="NotoSansSC-Medium-561" d="M 3200 3174 
C 2790 3174 2458 2842 2458 2432 
C 2458 2022 2790 1690 3200 1690 
C 3610 1690 3942 2022 3942 2432 
C 3942 2842 3610 3174 3200 3174 
z
" transform="scale(0.015625)"/>
     <path id="NotoSansSC-Medium-5263" d="M 352 -192 
C 973 -58 1779 128 2554 301 
L 2490 864 
C 1670 685 813 512 243 410 
L 352 -192 
z
M 1306 1907 
C 1811 2445 2304 3091 2714 3738 
L 2189 4070 
C 2061 3846 1926 3616 1773 3405 
L 1050 3341 
C 1427 3859 1805 4512 2093 5133 
L 1498 5382 
C 1222 4634 742 3840 595 3642 
C 442 3430 333 3290 205 3258 
C 275 3104 378 2810 410 2682 
C 512 2733 678 2771 1382 2848 
C 1120 2502 890 2240 774 2138 
C 563 1901 416 1760 256 1728 
C 326 1568 422 1267 454 1152 
C 614 1242 864 1293 2592 1568 
C 2573 1690 2554 1926 2566 2086 
L 1306 1907 
z
M 4672 486 
L 4672 4205 
L 5971 4205 
L 5971 4800 
L 2707 4800 
L 2707 4205 
L 4026 4205 
L 4026 486 
L 2618 486 
L 2618 -109 
L 6106 -109 
L 6106 486 
L 4672 486 
z
" transform="scale(0.015625)"/>
     <path id="NotoSansSC-Medium-52c0" d="M 1222 1894 
C 1658 2438 2080 3091 2426 3738 
L 1933 4032 
C 1824 3808 1702 3571 1581 3360 
L 966 3302 
C 1312 3827 1651 4486 1888 5107 
L 1312 5363 
C 1094 4627 698 3834 570 3622 
C 435 3418 333 3277 218 3238 
C 288 3078 384 2797 416 2675 
C 506 2726 653 2765 1267 2835 
C 1043 2483 838 2208 742 2086 
C 550 1856 416 1702 275 1670 
C 339 1530 429 1261 454 1146 
C 589 1229 819 1293 2259 1581 
C 2253 1696 2259 1926 2278 2080 
L 1222 1894 
z
M 410 -166 
C 960 19 1658 256 2317 486 
L 2227 986 
C 1504 755 768 531 275 410 
L 410 -166 
z
M 5613 2432 
C 5395 2189 5056 1888 4742 1638 
C 4685 1722 4634 1818 4589 1907 
L 4589 2669 
L 6131 2669 
L 6131 3194 
L 5626 3194 
C 5664 3808 5702 4557 5709 5139 
L 5293 5165 
L 5203 5139 
L 2816 5139 
L 2816 4634 
L 5133 4634 
C 5126 4493 5126 4326 5114 4166 
L 2938 4166 
L 2938 3706 
L 5094 3706 
C 5082 3526 5075 3360 5062 3194 
L 2624 3194 
L 2624 2669 
L 4038 2669 
L 4038 1555 
C 3437 1165 2797 755 2381 518 
L 2701 58 
C 3098 326 3571 666 4038 1011 
L 4038 109 
C 4038 38 4019 19 3942 19 
C 3872 19 3635 19 3386 32 
C 3462 -115 3539 -339 3558 -493 
C 3930 -493 4186 -474 4365 -397 
C 4538 -314 4589 -166 4589 109 
L 4589 1075 
C 4928 608 5363 218 5856 -6 
C 5939 141 6099 339 6227 454 
C 5754 614 5325 922 4998 1299 
C 5350 1536 5754 1856 6086 2144 
L 5613 2432 
z
M 3802 1690 
C 3648 1914 3322 2227 3040 2451 
L 2650 2157 
C 2931 1933 3251 1594 3392 1363 
L 3802 1690 
z
" transform="scale(0.015625)"/>
    </defs>
    <use xlink:href="#NotoSansSC-Medium-13"/>
    <use xlink:href="#NotoSansSC-Medium-11" transform="translate(57 0)"/>
    <use xlink:href="#NotoSansSC-Medium-13" transform="translate(114 0)"/>
    <use xlink:href="#NotoSansSC-Medium-17" transform="translate(171 0)"/>
    <use xlink:href="#NotoSansSC-Medium-3254" transform="translate(228 0)"/>
    <use xlink:href="#NotoSansSC-Medium-16" transform="translate(328 0)"/>
    <use xlink:href="#NotoSansSC-Medium-3ae0" transform="translate(385 0)"/>
    <use xlink:href="#NotoSansSC-Medium-13" transform="translate(485 0)"/>
    <use xlink:href="#NotoSansSC-Medium-18" transform="translate(542 0)"/>
    <use xlink:href="#NotoSansSC-Medium-39bf" transform="translate(599 0)"/>
    <use xlink:href="#NotoSansSC-Medium-1" transform="translate(699 0)"/>
    <use xlink:href="#NotoSansSC-Medium-561" transform="translate(721.5 0)"/>
    <use xlink:href="#NotoSansSC-Medium-1" transform="translate(821.5 0)"/>
    <use xlink:href="#NotoSansSC-Medium-2295" transform="translate(844 0)"/>
    <use xlink:href="#NotoSansSC-Medium-2d10" transform="translate(944 0)"/>
    <use xlink:href="#NotoSansSC-Medium-6c32" transform="translate(1044 0)"/>
    <use xlink:href="#NotoSansSC-Medium-417c" transform="translate(1144 0)"/>
    <use xlink:href="#NotoSansSC-Medium-1" transform="translate(1244 0)"/>
    <use xlink:href="#NotoSansSC-Medium-561" transform="translate(1266.5 0)"/>
    <use xlink:href="#NotoSansSC-Medium-1" transform="translate(1366.5 0)"/>
    <use xlink:href="#NotoSansSC-Medium-5263" transform="translate(1389 0)"/>
    <use xlink:href="#NotoSansSC-Medium-417c" transform="translate(1489 0)"/>
    <use xlink:href="#NotoSansSC-Medium-52c0" transform="translate(1589 0)"/>
    <use xlink:href="#NotoSansSC-Medium-617d" transform="translate(1689 0)"/>
   </g>
  </g>
  <g id="text_28">
   <!-- 来源: 各国交易所 / Bloomberg · 2026-05-27 -->
   <g style="fill: #94a3b8" transform="translate(58.904844 268.066297) scale(0.065 -0.065)">
    <defs>
     <path id="NotoSansSC-Medium-3b3c" d="M 6029 2003 
L 6029 2579 
L 3514 2579 
L 3514 4064 
L 5773 4064 
L 5773 4634 
L 3514 4634 
L 3514 5370 
L 2886 5370 
L 2886 4634 
L 678 4634 
L 678 4064 
L 2886 4064 
L 2886 2579 
L 378 2579 
L 378 2003 
L 2515 2003 
C 1939 1274 1056 595 224 243 
C 358 122 550 -102 646 -256 
C 1453 147 2285 851 2886 1638 
L 2886 -506 
L 3514 -506 
L 3514 1651 
C 4115 858 4947 134 5760 -275 
C 5856 -115 6048 109 6176 230 
C 5350 589 4467 1274 3904 2003 
L 6029 2003 
z
M 1158 3789 
C 1395 3418 1619 2912 1696 2598 
L 2259 2822 
C 2176 3142 1926 3622 1683 3987 
L 1158 3789 
z
M 4672 2592 
C 4890 2899 5158 3386 5382 3821 
L 4762 4006 
C 4621 3629 4371 3104 4160 2765 
L 4672 2592 
z
" transform="scale(0.015625)"/>
     <path id="NotoSansSC-Medium-4260" d="M 1965 4659 
C 1715 4838 1229 5120 902 5306 
L 550 4883 
C 890 4672 1363 4371 1600 4186 
L 1965 4659 
z
M 1658 2989 
C 1402 3162 922 3430 589 3603 
L 243 3181 
C 589 2982 1062 2688 1299 2515 
L 1658 2989 
z
M 1293 1958 
C 1011 1222 627 403 358 -96 
L 896 -422 
C 1190 186 1517 954 1766 1626 
L 1293 1958 
z
M 2733 4512 
L 6067 4512 
L 6067 5050 
L 2150 5050 
L 2150 3302 
C 2150 2266 2086 826 1370 -173 
C 1510 -237 1766 -390 1869 -486 
C 2618 570 2733 2189 2733 3302 
L 2733 4512 
z
M 3213 1312 
C 3046 902 2771 454 2496 154 
C 2630 83 2861 -58 2970 -134 
C 3232 186 3539 704 3744 1165 
L 3213 1312 
z
M 3571 2534 
L 5299 2534 
L 5299 2067 
L 3571 2067 
L 3571 2534 
z
M 3571 3418 
L 5299 3418 
L 5299 2957 
L 3571 2957 
L 3571 3418 
z
M 5856 1626 
L 5856 3866 
L 4544 3866 
C 4621 4019 4710 4179 4794 4352 
L 4128 4474 
C 4090 4301 4019 4064 3955 3866 
L 3040 3866 
L 3040 1626 
L 4122 1626 
L 4122 102 
C 4122 32 4096 6 4019 6 
C 3942 6 3680 0 3411 13 
C 3469 -134 3546 -352 3565 -499 
C 3981 -506 4262 -499 4448 -410 
C 4640 -333 4685 -186 4685 83 
L 4685 1626 
L 5856 1626 
z
M 5005 1178 
C 5235 774 5517 237 5651 -83 
L 6195 154 
C 6054 467 5754 986 5517 1370 
L 5005 1178 
z
" transform="scale(0.015625)"/>
     <path id="NotoSansSC-Medium-1b" d="M 954 2432 
C 1229 2432 1446 2650 1446 2944 
C 1446 3245 1229 3469 954 3469 
C 678 3469 461 3245 461 2944 
C 461 2650 678 2432 954 2432 
z
M 954 -83 
C 1229 -83 1446 128 1446 429 
C 1446 736 1229 954 954 954 
C 678 954 461 736 461 429 
C 461 128 678 -83 954 -83 
z
" transform="scale(0.015625)"/>
     <path id="NotoSansSC-Medium-27f5" d="M 4480 1267 
L 4480 275 
L 1907 275 
L 1907 1267 
L 4480 1267 
z
M 1306 -518 
L 1907 -518 
L 1907 -250 
L 4480 -250 
L 4480 -499 
L 5114 -499 
L 5114 1805 
L 1306 1805 
L 1306 -518 
z
M 2163 4211 
L 4365 4211 
C 4064 3872 3674 3571 3238 3302 
C 2810 3565 2438 3866 2144 4186 
L 2163 4211 
z
M 4915 4762 
L 4813 4730 
L 2605 4730 
C 2726 4890 2842 5062 2944 5229 
L 2381 5427 
C 1933 4653 1158 3949 358 3514 
C 493 3411 710 3187 806 3072 
C 1133 3277 1453 3526 1760 3808 
C 2042 3514 2349 3238 2694 2995 
C 1907 2605 1030 2317 205 2150 
C 314 2022 442 1773 499 1619 
C 1421 1824 2387 2163 3238 2637 
C 4006 2182 4896 1843 5824 1651 
C 5901 1811 6074 2061 6208 2202 
C 5350 2349 4525 2624 3808 2982 
C 4435 3398 4966 3904 5331 4486 
L 4915 4762 
z
" transform="scale(0.015625)"/>
     <path id="NotoSansSC-Medium-229f" d="M 5952 4518 
L 3482 4518 
L 3667 4589 
C 3578 4813 3373 5171 3200 5434 
L 2637 5242 
C 2771 5018 2918 4736 3014 4518 
L 435 4518 
L 435 3942 
L 5952 3942 
L 5952 4518 
z
M 3885 3482 
C 4467 3078 5171 2477 5491 2080 
L 5990 2470 
C 5645 2867 4922 3443 4352 3821 
L 3885 3482 
z
M 1990 3802 
C 1619 3328 992 2848 429 2541 
C 563 2445 794 2221 896 2106 
C 1453 2458 2131 3034 2573 3578 
L 1990 3802 
z
M 4102 2720 
C 3898 2176 3603 1728 3219 1357 
C 2829 1728 2528 2176 2323 2688 
L 1786 2522 
C 2042 1920 2368 1414 2771 986 
C 2125 525 1299 218 326 26 
C 442 -109 621 -371 685 -512 
C 1670 -269 2522 77 3213 595 
C 3872 77 4698 -275 5734 -467 
C 5811 -301 5971 -58 6099 64 
C 5114 224 4307 531 3667 979 
C 4102 1402 4448 1914 4704 2541 
L 4102 2720 
z
" transform="scale(0.015625)"/>
     <path id="NotoSansSC-Medium-39ed" d="M 1766 3616 
L 4698 3616 
L 4698 3078 
L 1766 3078 
L 1766 3616 
z
M 1766 4595 
L 4698 4595 
L 4698 4077 
L 1766 4077 
L 1766 4595 
z
M 2176 2118 
C 2298 2278 2413 2432 2522 2598 
L 5306 2598 
L 5306 5082 
L 1184 5082 
L 1184 2598 
L 1824 2598 
C 1427 2035 838 1542 237 1210 
C 371 1114 595 902 691 787 
C 1024 1005 1376 1280 1702 1600 
L 2445 1600 
C 2029 960 1414 416 755 58 
C 890 -45 1107 -256 1203 -371 
C 1926 90 2643 787 3117 1600 
L 3840 1600 
C 3539 870 3072 237 2509 -173 
C 2637 -256 2880 -442 2976 -544 
C 3571 -45 4115 717 4454 1600 
L 5126 1600 
C 5030 602 4915 166 4787 51 
C 4723 -13 4666 -26 4557 -26 
C 4442 -26 4166 -26 3872 6 
C 3962 -134 4019 -352 4032 -499 
C 4346 -518 4646 -518 4819 -499 
C 5011 -486 5152 -435 5286 -301 
C 5485 -96 5619 467 5747 1875 
C 5760 1958 5773 2118 5773 2118 
L 2176 2118 
z
" transform="scale(0.015625)"/>
     <path id="NotoSansSC-Medium-361f" d="M 2317 3245 
L 2317 2330 
L 1210 2330 
L 1210 2515 
L 1210 3245 
L 2317 3245 
z
M 2886 1792 
L 2886 3782 
L 1210 3782 
L 1210 4320 
C 1894 4403 2643 4538 3168 4742 
L 2784 5242 
C 2272 5024 1382 4864 621 4768 
L 621 2515 
C 621 1683 589 608 179 -154 
C 314 -218 563 -416 666 -531 
C 1030 96 1152 998 1190 1792 
L 2886 1792 
z
M 6131 3232 
L 4013 3232 
L 4013 4307 
C 4717 4410 5478 4563 6029 4774 
L 5632 5286 
C 5094 5056 4198 4864 3411 4749 
L 3411 2701 
C 3411 1805 3334 666 2528 -122 
C 2662 -198 2906 -410 3002 -525 
C 3866 307 4006 1664 4013 2656 
L 4864 2656 
L 4864 -480 
L 5453 -480 
L 5453 2656 
L 6131 2656 
L 6131 3232 
z
" transform="scale(0.015625)"/>
     <path id="NotoSansSC-Medium-10" d="M 77 -1152 
L 589 -1152 
L 2368 5114 
L 1856 5114 
L 77 -1152 
z
" transform="scale(0.015625)"/>
     <path id="NotoSansSC-Medium-23" d="M 621 0 
L 2195 0 
C 3238 0 4000 448 4000 1382 
C 4000 2022 3610 2387 3072 2502 
L 3072 2534 
C 3494 2675 3744 3104 3744 3552 
C 3744 4403 3046 4717 2080 4717 
L 621 4717 
L 621 0 
z
M 1363 2746 
L 1363 4134 
L 2016 4134 
C 2682 4134 3014 3949 3014 3456 
C 3014 3014 2714 2746 1997 2746 
L 1363 2746 
z
M 1363 582 
L 1363 2189 
L 2112 2189 
C 2861 2189 3270 1952 3270 1421 
C 3270 845 2848 582 2112 582 
L 1363 582 
z
" transform="scale(0.015625)"/>
     <path id="NotoSansSC-Medium-4d" d="M 1286 -83 
C 1472 -83 1594 -58 1683 -26 
L 1587 531 
C 1523 518 1498 518 1466 518 
C 1376 518 1293 589 1293 787 
L 1293 5101 
L 557 5101 
L 557 826 
C 557 256 755 -83 1286 -83 
z
" transform="scale(0.015625)"/>
     <path id="NotoSansSC-Medium-50" d="M 1965 -83 
C 2835 -83 3622 589 3622 1760 
C 3622 2931 2835 3610 1965 3610 
C 1094 3610 307 2931 307 1760 
C 307 589 1094 -83 1965 -83 
z
M 1965 518 
C 1414 518 1069 1011 1069 1760 
C 1069 2502 1414 3002 1965 3002 
C 2522 3002 2867 2502 2867 1760 
C 2867 1011 2522 518 1965 518 
z
" transform="scale(0.015625)"/>
     <path id="NotoSansSC-Medium-4e" d="M 557 0 
L 1293 0 
L 1293 2496 
C 1581 2816 1843 2976 2080 2976 
C 2483 2976 2669 2733 2669 2125 
L 2669 0 
L 3405 0 
L 3405 2496 
C 3699 2816 3955 2976 4198 2976 
C 4595 2976 4787 2733 4787 2125 
L 4787 0 
L 5523 0 
L 5523 2214 
C 5523 3110 5178 3610 4442 3610 
C 4000 3610 3642 3334 3296 2963 
C 3142 3366 2848 3610 2323 3610 
C 1888 3610 1536 3347 1235 3027 
L 1216 3027 
L 1158 3520 
L 557 3520 
L 557 0 
z
" transform="scale(0.015625)"/>
     <path id="NotoSansSC-Medium-43" d="M 2195 -83 
C 2989 -83 3712 608 3712 1818 
C 3712 2899 3206 3610 2317 3610 
C 1946 3610 1568 3411 1267 3149 
L 1293 3750 
L 1293 5101 
L 557 5101 
L 557 0 
L 1133 0 
L 1203 365 
L 1222 365 
C 1523 83 1875 -83 2195 -83 
z
M 2054 525 
C 1837 525 1562 608 1293 845 
L 1293 2566 
C 1581 2854 1850 2995 2125 2995 
C 2714 2995 2950 2541 2950 1805 
C 2950 979 2566 525 2054 525 
z
" transform="scale(0.015625)"/>
     <path id="NotoSansSC-Medium-46" d="M 2022 -83 
C 2483 -83 2886 70 3213 288 
L 2957 755 
C 2701 589 2432 493 2118 493 
C 1510 493 1088 896 1030 1568 
L 3315 1568 
C 3334 1658 3354 1798 3354 1946 
C 3354 2938 2848 3610 1914 3610 
C 1094 3610 307 2899 307 1760 
C 307 595 1069 -83 2022 -83 
z
M 1024 2080 
C 1094 2694 1485 3034 1926 3034 
C 2438 3034 2714 2682 2714 2080 
L 1024 2080 
z
" transform="scale(0.015625)"/>
     <path id="NotoSansSC-Medium-53" d="M 557 0 
L 1293 0 
L 1293 2195 
C 1510 2752 1856 2950 2144 2950 
C 2285 2950 2374 2931 2496 2893 
L 2630 3533 
C 2522 3584 2406 3610 2234 3610 
C 1856 3610 1485 3341 1235 2886 
L 1216 2886 
L 1158 3520 
L 557 3520 
L 557 0 
z
" transform="scale(0.015625)"/>
     <path id="NotoSansSC-Medium-48" d="M 1760 -1581 
C 2886 -1581 3603 -1030 3603 -352 
C 3603 250 3168 506 2336 506 
L 1690 506 
C 1242 506 1101 640 1101 851 
C 1101 1024 1178 1120 1293 1222 
C 1446 1152 1626 1114 1786 1114 
C 2522 1114 3104 1555 3104 2323 
C 3104 2592 3008 2829 2874 2970 
L 3546 2970 
L 3546 3520 
L 2298 3520 
C 2163 3571 1984 3610 1786 3610 
C 1056 3610 422 3142 422 2349 
C 422 1926 646 1594 890 1408 
L 890 1382 
C 691 1242 493 1005 493 730 
C 493 442 634 256 813 147 
L 813 115 
C 486 -83 301 -358 301 -653 
C 301 -1267 915 -1581 1760 -1581 
z
M 1786 1587 
C 1421 1587 1120 1875 1120 2349 
C 1120 2822 1414 3091 1786 3091 
C 2157 3091 2451 2816 2451 2349 
C 2451 1875 2150 1587 1786 1587 
z
M 1869 -1094 
C 1286 -1094 928 -890 928 -544 
C 928 -365 1018 -186 1229 -32 
C 1376 -64 1536 -83 1702 -83 
L 2234 -83 
C 2662 -83 2893 -173 2893 -467 
C 2893 -794 2483 -1094 1869 -1094 
z
" transform="scale(0.015625)"/>
     <path id="NotoSansSC-Medium-76ec" d="M 282 0 
L 3322 0 
L 3322 627 
L 2125 627 
C 1894 627 1594 608 1357 582 
C 2336 1606 3098 2451 3098 3290 
C 3098 4122 2541 4672 1677 4672 
C 1062 4672 646 4403 243 3968 
L 659 3558 
C 909 3846 1216 4083 1587 4083 
C 2118 4083 2387 3750 2387 3251 
C 2387 2534 1594 1715 282 429 
L 282 0 
z
" transform="scale(0.015625)"/>
     <path id="NotoSansSC-Medium-76ea" d="M 1824 -83 
C 2765 -83 3347 768 3347 2310 
C 3347 3846 2765 4672 1824 4672 
C 890 4672 301 3853 301 2310 
C 301 768 890 -83 1824 -83 
z
M 1824 499 
C 1344 499 1005 992 1005 2310 
C 1005 3629 1344 4090 1824 4090 
C 2304 4090 2643 3629 2643 2310 
C 2643 992 2304 499 1824 499 
z
" transform="scale(0.015625)"/>
     <path id="NotoSansSC-Medium-76f0" d="M 1907 2285 
C 2406 2285 2688 1971 2688 1408 
C 2688 826 2362 480 1952 480 
C 1453 480 1114 877 1037 1728 
C 1318 2138 1645 2285 1907 2285 
z
M 1958 -83 
C 2726 -83 3366 506 3366 1408 
C 3366 2355 2829 2822 2042 2822 
C 1702 2822 1293 2611 1018 2272 
C 1050 3616 1549 4064 2144 4064 
C 2426 4064 2714 3923 2886 3718 
L 3290 4166 
C 3021 4448 2637 4672 2112 4672 
C 1178 4672 333 3942 333 2138 
C 333 627 1062 -83 1958 -83 
z
" transform="scale(0.015625)"/>
     <path id="NotoSansSC-Medium-76ef" d="M 1715 -83 
C 2541 -83 3302 480 3302 1485 
C 3302 2470 2656 2912 1869 2912 
C 1613 2912 1427 2854 1222 2752 
L 1331 3962 
L 3078 3962 
L 3078 4582 
L 691 4582 
L 550 2342 
L 909 2112 
C 1184 2291 1363 2381 1664 2381 
C 2202 2381 2560 2042 2560 1459 
C 2560 877 2157 518 1626 518 
C 1133 518 794 755 525 1024 
L 173 544 
C 506 218 973 -83 1715 -83 
z
" transform="scale(0.015625)"/>
     <path id="NotoSansSC-Medium-76f1" d="M 1235 0 
L 1990 0 
C 2067 1786 2266 2784 3347 4134 
L 3347 4582 
L 314 4582 
L 314 3962 
L 2528 3962 
C 1638 2720 1318 1664 1235 0 
z
" transform="scale(0.015625)"/>
    </defs>
    <use xlink:href="#NotoSansSC-Medium-3b3c"/>
    <use xlink:href="#NotoSansSC-Medium-4260" transform="translate(100 0)"/>
    <use xlink:href="#NotoSansSC-Medium-1b" transform="translate(200 0)"/>
    <use xlink:href="#NotoSansSC-Medium-1" transform="translate(229.796875 0)"/>
    <use xlink:href="#NotoSansSC-Medium-27f5" transform="translate(252.296875 0)"/>
    <use xlink:href="#NotoSansSC-Medium-2ae8" transform="translate(352.296875 0)"/>
    <use xlink:href="#NotoSansSC-Medium-229f" transform="translate(452.296875 0)"/>
    <use xlink:href="#NotoSansSC-Medium-39ed" transform="translate(552.296875 0)"/>
    <use xlink:href="#NotoSansSC-Medium-361f" transform="translate(652.296875 0)"/>
    <use xlink:href="#NotoSansSC-Medium-1" transform="translate(752.296875 0)"/>
    <use xlink:href="#NotoSansSC-Medium-10" transform="translate(774.796875 0)"/>
    <use xlink:href="#NotoSansSC-Medium-1" transform="translate(813.796875 0)"/>
    <use xlink:href="#NotoSansSC-Medium-23" transform="translate(836.296875 0)"/>
    <use xlink:href="#NotoSansSC-Medium-4d" transform="translate(903 0)"/>
    <use xlink:href="#NotoSansSC-Medium-50" transform="translate(932.796875 0)"/>
    <use xlink:href="#NotoSansSC-Medium-50" transform="translate(994.203125 0)"/>
    <use xlink:href="#NotoSansSC-Medium-4e" transform="translate(1055.609375 0)"/>
    <use xlink:href="#NotoSansSC-Medium-43" transform="translate(1149.8125 0)"/>
    <use xlink:href="#NotoSansSC-Medium-46" transform="translate(1212.71875 0)"/>
    <use xlink:href="#NotoSansSC-Medium-53" transform="translate(1269.21875 0)"/>
    <use xlink:href="#NotoSansSC-Medium-48" transform="translate(1309.03125 0)"/>
    <use xlink:href="#NotoSansSC-Medium-1" transform="translate(1366.828125 0)"/>
    <use xlink:href="#NotoSansSC-Medium-561" transform="translate(1389.328125 0)"/>
    <use xlink:href="#NotoSansSC-Medium-1" transform="translate(1489.328125 0)"/>
    <use xlink:href="#NotoSansSC-Medium-76ec" transform="translate(1511.828125 0)"/>
    <use xlink:href="#NotoSansSC-Medium-76ea" transform="translate(1568.828125 0)"/>
    <use xlink:href="#NotoSansSC-Medium-76ec" transform="translate(1625.828125 0)"/>
    <use xlink:href="#NotoSansSC-Medium-76f0" transform="translate(1682.828125 0)"/>
    <use xlink:href="#NotoSansSC-Medium-e" transform="translate(1739.828125 0)"/>
    <use xlink:href="#NotoSansSC-Medium-76ea" transform="translate(1775.53125 0)"/>
    <use xlink:href="#NotoSansSC-Medium-76ef" transform="translate(1832.53125 0)"/>
    <use xlink:href="#NotoSansSC-Medium-e" transform="translate(1889.53125 0)"/>
    <use xlink:href="#NotoSansSC-Medium-76ec" transform="translate(1925.234375 0)"/>
    <use xlink:href="#NotoSansSC-Medium-76f1" transform="translate(1982.234375 0)"/>
   </g>
  </g>
 </g>
 <defs>
  <clipPath id="p88df54a06e">
   <rect x="58.904844" y="79.52" width="314.82" height="175.104"/>
  </clipPath>
 </defs>
</svg>
