<?xml version="1.0" encoding="utf-8" standalone="no"?>
<!DOCTYPE svg PUBLIC "-//W3C//DTD SVG 1.1//EN"
  "http://www.w3.org/Graphics/SVG/1.1/DTD/svg11.dtd">
<svg xmlns:xlink="http://www.w3.org/1999/xlink" width="382.626406pt" height="292.109pt" viewBox="0 0 382.626406 292.109" xmlns="http://www.w3.org/2000/svg" version="1.1">
 <metadata>
  <rdf:RDF xmlns:dc="http://purl.org/dc/elements/1.1/" xmlns:cc="http://creativecommons.org/ns#" xmlns:rdf="http://www.w3.org/1999/02/22-rdf-syntax-ns#">
   <cc:Work>
    <dc:type rdf:resource="http://purl.org/dc/dcmitype/StillImage"/>
    <dc:date>2026-05-27T13:53:58.769526</dc:date>
    <dc:format>image/svg+xml</dc:format>
    <dc:creator>
     <cc:Agent>
      <dc:title>Matplotlib v3.10.9, https://matplotlib.org/</dc:title>
     </cc:Agent>
    </dc:creator>
   </cc:Work>
  </rdf:RDF>
 </metadata>
 <defs>
  <style type="text/css">*{stroke-linejoin: round; stroke-linecap: butt}</style>
 </defs>
 <g id="figure_1">
  <g id="patch_1">
   <path d="M 0 292.109 
L 382.626406 292.109 
L 382.626406 0 
L 0 0 
z
" style="fill: #f0f2f5"/>
  </g>
  <g id="axes_1">
   <g id="patch_2">
    <path d="M 57.006406 255.142437 
L 371.826406 255.142437 
L 371.826406 80.038437 
L 57.006406 80.038437 
z
" style="fill: #ffffff"/>
   </g>
   <g id="matplotlib.axis_1">
    <g id="xtick_1">
     <g id="line2d_1">
      <path d="M 78.56942 255.142437 
L 78.56942 80.038437 
" clip-path="url(#pd44b8f845b)" style="fill: none; stroke: #e2e8f0; stroke-opacity: 0.4; stroke-width: 0.5; stroke-linecap: square"/>
     </g>
     <g id="line2d_2"/>
     <g id="text_1">
      <!-- -1 -->
      <g style="fill: #94a3b8" transform="translate(74.76692 265.789) scale(0.09 -0.09)">
       <defs>
        <path id="NotoSansSC-Thin-2d" d="M 282 1638 
L 282 1862 
L 1811 1862 
L 1811 1638 
L 282 1638 
z
" transform="scale(0.015625)"/>
        <path id="NotoSansSC-Thin-31" d="M 608 0 
L 608 211 
L 1677 211 
L 1677 4211 
L 864 4211 
L 864 4378 
Q 1133 4422 1344 4492 
Q 1555 4563 1702 4646 
L 1901 4646 
L 1901 211 
L 2899 211 
L 2899 0 
L 608 0 
z
" transform="scale(0.015625)"/>
       </defs>
       <use xlink:href="#NotoSansSC-Thin-2d"/>
       <use xlink:href="#NotoSansSC-Thin-31" transform="translate(32.399994 0)"/>
      </g>
     </g>
    </g>
    <g id="xtick_2">
     <g id="line2d_3">
      <path d="M 121.695447 255.142437 
L 121.695447 80.038437 
" clip-path="url(#pd44b8f845b)" style="fill: none; stroke: #e2e8f0; stroke-opacity: 0.4; stroke-width: 0.5; stroke-linecap: square"/>
     </g>
     <g id="line2d_4"/>
     <g id="text_2">
      <!-- 0 -->
      <g style="fill: #94a3b8" transform="translate(119.351229 265.789) scale(0.09 -0.09)">
       <defs>
        <path id="NotoSansSC-Thin-30" d="M 1670 -83 
Q 1261 -83 963 179 
Q 666 442 509 979 
Q 352 1517 352 2336 
Q 352 3149 509 3677 
Q 666 4205 963 4467 
Q 1261 4730 1670 4730 
Q 2080 4730 2371 4467 
Q 2662 4205 2822 3677 
Q 2982 3149 2982 2336 
Q 2982 1517 2822 979 
Q 2662 442 2371 179 
Q 2080 -83 1670 -83 
z
M 1670 128 
Q 1997 128 2240 384 
Q 2483 640 2614 1133 
Q 2746 1626 2746 2336 
Q 2746 3040 2614 3529 
Q 2483 4019 2240 4272 
Q 1997 4525 1670 4525 
Q 1344 4525 1101 4272 
Q 858 4019 723 3529 
Q 589 3040 589 2336 
Q 589 1626 723 1133 
Q 858 640 1101 384 
Q 1344 128 1670 128 
z
" transform="scale(0.015625)"/>
       </defs>
       <use xlink:href="#NotoSansSC-Thin-30"/>
      </g>
     </g>
    </g>
    <g id="xtick_3">
     <g id="line2d_5">
      <path d="M 164.821475 255.142437 
L 164.821475 80.038437 
" clip-path="url(#pd44b8f845b)" style="fill: none; stroke: #e2e8f0; stroke-opacity: 0.4; stroke-width: 0.5; stroke-linecap: square"/>
     </g>
     <g id="line2d_6"/>
     <g id="text_3">
      <!-- 1 -->
      <g style="fill: #94a3b8" transform="translate(162.477256 265.789) scale(0.09 -0.09)">
       <use xlink:href="#NotoSansSC-Thin-31"/>
      </g>
     </g>
    </g>
    <g id="xtick_4">
     <g id="line2d_7">
      <path d="M 207.947502 255.142437 
L 207.947502 80.038437 
" clip-path="url(#pd44b8f845b)" style="fill: none; stroke: #e2e8f0; stroke-opacity: 0.4; stroke-width: 0.5; stroke-linecap: square"/>
     </g>
     <g id="line2d_8"/>
     <g id="text_4">
      <!-- 2 -->
      <g style="fill: #94a3b8" transform="translate(205.603283 265.789) scale(0.09 -0.09)">
       <defs>
        <path id="NotoSansSC-Thin-32" d="M 294 0 
L 294 147 
Q 1120 858 1613 1434 
Q 2106 2010 2323 2499 
Q 2541 2989 2541 3424 
Q 2541 3725 2435 3974 
Q 2330 4224 2106 4371 
Q 1882 4518 1523 4518 
Q 1210 4518 931 4352 
Q 653 4186 442 3923 
L 282 4070 
Q 525 4346 829 4538 
Q 1133 4730 1542 4730 
Q 1939 4730 2214 4566 
Q 2490 4403 2637 4112 
Q 2784 3821 2784 3424 
Q 2784 2918 2537 2406 
Q 2291 1894 1820 1347 
Q 1350 800 678 179 
Q 870 192 1062 201 
Q 1254 211 1440 211 
L 3014 211 
L 3014 0 
L 294 0 
z
" transform="scale(0.015625)"/>
       </defs>
       <use xlink:href="#NotoSansSC-Thin-32"/>
      </g>
     </g>
    </g>
    <g id="xtick_5">
     <g id="line2d_9">
      <path d="M 251.07353 255.142437 
L 251.07353 80.038437 
" clip-path="url(#pd44b8f845b)" style="fill: none; stroke: #e2e8f0; stroke-opacity: 0.4; stroke-width: 0.5; stroke-linecap: square"/>
     </g>
     <g id="line2d_10"/>
     <g id="text_5">
      <!-- 3 -->
      <g style="fill: #94a3b8" transform="translate(248.729311 265.789) scale(0.09 -0.09)">
       <defs>
        <path id="NotoSansSC-Thin-33" d="M 1619 -83 
Q 1261 -83 998 13 
Q 736 109 544 256 
Q 352 403 211 550 
L 358 717 
Q 563 499 857 313 
Q 1152 128 1632 128 
Q 1952 128 2198 262 
Q 2445 397 2585 640 
Q 2726 883 2726 1210 
Q 2726 1542 2560 1795 
Q 2394 2048 2038 2189 
Q 1683 2330 1114 2330 
L 1114 2554 
Q 1651 2554 1964 2698 
Q 2278 2842 2416 3088 
Q 2554 3334 2554 3629 
Q 2554 4026 2298 4272 
Q 2042 4518 1606 4518 
Q 1293 4518 1017 4374 
Q 742 4230 557 4026 
L 410 4192 
Q 634 4410 925 4570 
Q 1216 4730 1606 4730 
Q 1939 4730 2211 4598 
Q 2483 4467 2643 4224 
Q 2803 3981 2803 3642 
Q 2803 3168 2550 2877 
Q 2298 2586 1926 2464 
L 1926 2438 
Q 2208 2381 2445 2221 
Q 2682 2061 2826 1808 
Q 2970 1555 2970 1222 
Q 2970 826 2790 531 
Q 2611 237 2307 77 
Q 2003 -83 1619 -83 
z
" transform="scale(0.015625)"/>
       </defs>
       <use xlink:href="#NotoSansSC-Thin-33"/>
      </g>
     </g>
    </g>
    <g id="xtick_6">
     <g id="line2d_11">
      <path d="M 294.199557 255.142437 
L 294.199557 80.038437 
" clip-path="url(#pd44b8f845b)" style="fill: none; stroke: #e2e8f0; stroke-opacity: 0.4; stroke-width: 0.5; stroke-linecap: square"/>
     </g>
     <g id="line2d_12"/>
     <g id="text_6">
      <!-- 4 -->
      <g style="fill: #94a3b8" transform="translate(291.855338 265.789) scale(0.09 -0.09)">
       <defs>
        <path id="NotoSansSC-Thin-34" d="M 2195 0 
L 2195 3482 
Q 2195 3629 2204 3843 
Q 2214 4058 2227 4205 
L 2195 4205 
Q 2112 4058 2019 3901 
Q 1926 3744 1830 3590 
L 422 1568 
L 3110 1568 
L 3110 1363 
L 115 1363 
L 115 1485 
L 2259 4646 
L 2419 4646 
L 2419 0 
L 2195 0 
z
" transform="scale(0.015625)"/>
       </defs>
       <use xlink:href="#NotoSansSC-Thin-34"/>
      </g>
     </g>
    </g>
    <g id="xtick_7">
     <g id="line2d_13">
      <path d="M 337.325584 255.142437 
L 337.325584 80.038437 
" clip-path="url(#pd44b8f845b)" style="fill: none; stroke: #e2e8f0; stroke-opacity: 0.4; stroke-width: 0.5; stroke-linecap: square"/>
     </g>
     <g id="line2d_14"/>
     <g id="text_7">
      <!-- 5 -->
      <g style="fill: #94a3b8" transform="translate(334.981366 265.789) scale(0.09 -0.09)">
       <defs>
        <path id="NotoSansSC-Thin-35" d="M 1581 -83 
Q 1222 -83 963 9 
Q 704 102 515 240 
Q 326 378 186 518 
L 333 691 
Q 467 550 636 422 
Q 806 294 1040 211 
Q 1274 128 1594 128 
Q 1901 128 2166 294 
Q 2432 461 2592 765 
Q 2752 1069 2752 1466 
Q 2752 2061 2441 2406 
Q 2131 2752 1606 2752 
Q 1350 2752 1152 2665 
Q 954 2579 755 2445 
L 563 2560 
L 730 4646 
L 2758 4646 
L 2758 4435 
L 941 4435 
L 787 2726 
Q 966 2835 1168 2902 
Q 1370 2970 1626 2970 
Q 2010 2970 2320 2813 
Q 2630 2656 2812 2326 
Q 2995 1997 2995 1478 
Q 2995 979 2787 630 
Q 2579 282 2256 99 
Q 1933 -83 1581 -83 
z
" transform="scale(0.015625)"/>
       </defs>
       <use xlink:href="#NotoSansSC-Thin-35"/>
      </g>
     </g>
    </g>
    <g id="text_8">
     <!-- 涨跌幅 (%) -->
     <g style="fill: #64748b" transform="translate(193.274844 279.122281) scale(0.09 -0.09)">
      <defs>
       <path id="NotoSansSC-Thin-6da8" d="M 2803 2118 
L 3002 2118 
Q 3002 2118 3002 2073 
Q 3002 2029 2995 1997 
Q 2957 1216 2912 752 
Q 2867 288 2809 54 
Q 2752 -179 2669 -269 
Q 2605 -339 2528 -364 
Q 2451 -390 2323 -397 
Q 2208 -403 1987 -396 
Q 1766 -390 1530 -371 
Q 1523 -326 1510 -275 
Q 1498 -224 1472 -179 
Q 1741 -205 1971 -208 
Q 2202 -211 2285 -211 
Q 2445 -218 2509 -154 
Q 2579 -83 2630 150 
Q 2682 384 2726 848 
Q 2771 1312 2803 2080 
L 2803 2118 
z
M 1779 3565 
L 1965 3565 
Q 1946 3302 1920 2998 
Q 1894 2694 1865 2412 
Q 1837 2131 1805 1926 
L 1619 1926 
Q 1651 2138 1683 2422 
Q 1715 2707 1740 3008 
Q 1766 3309 1779 3565 
z
M 1728 2118 
L 2861 2118 
L 2861 1926 
L 1709 1926 
L 1728 2118 
z
M 1856 3565 
L 2867 3565 
L 2867 4806 
L 1638 4806 
L 1638 4992 
L 3053 4992 
L 3053 3373 
L 1856 3373 
L 1856 3565 
z
M 3590 -448 
Q 3584 -422 3565 -390 
Q 3546 -358 3523 -323 
Q 3501 -288 3482 -262 
Q 3552 -230 3645 -153 
Q 3738 -77 3738 102 
L 3738 5254 
L 3930 5254 
L 3930 -192 
Q 3930 -192 3878 -221 
Q 3827 -250 3760 -291 
Q 3693 -333 3641 -374 
Q 3590 -416 3590 -448 
z
M 518 5043 
L 646 5158 
Q 806 5050 969 4918 
Q 1133 4787 1273 4656 
Q 1414 4525 1498 4422 
L 1370 4288 
Q 1280 4397 1139 4531 
Q 998 4666 838 4800 
Q 678 4934 518 5043 
z
M 294 3251 
L 429 3366 
Q 582 3264 739 3142 
Q 896 3021 1033 2899 
Q 1171 2778 1254 2675 
L 1126 2534 
Q 1037 2637 899 2765 
Q 762 2893 605 3021 
Q 448 3149 294 3251 
z
M 448 -262 
Q 550 -26 665 297 
Q 781 621 899 976 
Q 1018 1331 1107 1658 
L 1274 1549 
Q 1190 1242 1078 896 
Q 966 550 854 220 
Q 742 -109 634 -378 
L 448 -262 
z
M 3091 2771 
L 6093 2771 
L 6093 2579 
L 3091 2579 
L 3091 2771 
z
M 4659 2694 
Q 4781 2061 4985 1497 
Q 5190 934 5478 499 
Q 5766 64 6138 -192 
Q 6106 -218 6064 -262 
Q 6022 -307 5997 -346 
Q 5626 -58 5331 396 
Q 5037 851 4829 1430 
Q 4621 2010 4493 2656 
L 4659 2694 
z
M 5613 5197 
L 5805 5146 
Q 5626 4730 5389 4346 
Q 5152 3962 4873 3632 
Q 4595 3302 4301 3046 
Q 4288 3059 4259 3084 
Q 4230 3110 4198 3136 
Q 4166 3162 4141 3174 
Q 4589 3539 4976 4070 
Q 5363 4602 5613 5197 
z
M 3590 -448 
L 3590 -269 
L 3706 -134 
L 4998 339 
Q 5005 301 5014 256 
Q 5024 211 5030 192 
Q 4570 0 4294 -115 
Q 4019 -230 3878 -294 
Q 3738 -358 3680 -390 
Q 3622 -422 3590 -448 
z
" transform="scale(0.015625)"/>
       <path id="NotoSansSC-Thin-8dcc" d="M 838 4819 
L 838 3398 
L 2214 3398 
L 2214 4819 
L 838 4819 
z
M 646 5005 
L 2406 5005 
L 2406 3213 
L 646 3213 
L 646 5005 
z
M 1498 3341 
L 1690 3341 
L 1690 346 
L 1498 346 
L 1498 3341 
z
M 685 2458 
L 870 2458 
L 870 147 
L 685 147 
L 685 2458 
z
M 314 122 
Q 589 186 944 278 
Q 1299 371 1705 483 
Q 2112 595 2522 704 
L 2541 525 
Q 1958 365 1382 208 
Q 806 51 371 -70 
L 314 122 
z
M 1549 2106 
L 2483 2106 
L 2483 1920 
L 1549 1920 
L 1549 2106 
z
M 2643 2336 
L 6003 2336 
L 6003 2144 
L 2643 2144 
L 2643 2336 
z
M 3213 4096 
L 5894 4096 
L 5894 3910 
L 3155 3910 
L 3213 4096 
z
M 3277 5050 
L 3469 5018 
Q 3366 4416 3200 3865 
Q 3034 3315 2790 2918 
Q 2771 2938 2742 2957 
Q 2714 2976 2682 2995 
Q 2650 3014 2618 3027 
Q 2867 3405 3027 3939 
Q 3187 4474 3277 5050 
z
M 4224 5306 
L 4410 5306 
L 4410 3450 
Q 4410 3091 4387 2688 
Q 4365 2285 4272 1869 
Q 4179 1453 3980 1040 
Q 3782 627 3440 243 
Q 3098 -141 2560 -474 
Q 2547 -448 2524 -425 
Q 2502 -403 2476 -377 
Q 2451 -352 2426 -333 
Q 2957 -19 3293 352 
Q 3629 723 3821 1123 
Q 4013 1523 4099 1926 
Q 4186 2330 4205 2717 
Q 4224 3104 4224 3450 
L 4224 5306 
z
M 4416 2323 
Q 4531 1715 4752 1196 
Q 4973 678 5305 297 
Q 5638 -83 6086 -282 
Q 6061 -301 6035 -326 
Q 6010 -352 5987 -381 
Q 5965 -410 5946 -435 
Q 5261 -96 4848 614 
Q 4435 1325 4250 2285 
L 4416 2323 
z
" transform="scale(0.015625)"/>
       <path id="NotoSansSC-Thin-5e45" d="M 1376 5306 
L 1562 5306 
L 1562 -448 
L 1376 -448 
L 1376 5306 
z
M 531 4064 
L 2381 4064 
L 2381 3878 
L 717 3878 
L 717 858 
L 531 858 
L 531 4064 
z
M 2266 4064 
L 2451 4064 
L 2451 1158 
Q 2451 1075 2428 1024 
Q 2406 973 2342 941 
Q 2278 915 2163 908 
Q 2048 902 1882 902 
Q 1875 941 1849 995 
Q 1824 1050 1792 1094 
Q 1946 1088 2051 1088 
Q 2157 1088 2202 1088 
Q 2266 1094 2266 1158 
L 2266 4064 
z
M 2714 4928 
L 6074 4928 
L 6074 4742 
L 2714 4742 
L 2714 4928 
z
M 3283 3962 
L 3283 2957 
L 5453 2957 
L 5453 3962 
L 3283 3962 
z
M 3091 4147 
L 5638 4147 
L 5638 2765 
L 3091 2765 
L 3091 4147 
z
M 2912 1037 
L 5856 1037 
L 5856 845 
L 2912 845 
L 2912 1037 
z
M 2912 -32 
L 5856 -32 
L 5856 -218 
L 2912 -218 
L 2912 -32 
z
M 2790 2112 
L 5933 2112 
L 5933 -429 
L 5747 -429 
L 5747 1926 
L 2982 1926 
L 2982 -454 
L 2790 -454 
L 2790 2112 
z
M 4218 1997 
L 4403 1997 
L 4403 -147 
L 4218 -147 
L 4218 1997 
z
" transform="scale(0.015625)"/>
       <path id="NotoSansSC-Thin-20" transform="scale(0.015625)"/>
       <path id="NotoSansSC-Thin-28" d="M 1562 -1222 
Q 1133 -525 883 252 
Q 634 1030 634 1958 
Q 634 2886 883 3667 
Q 1133 4448 1562 5146 
L 1696 5056 
Q 1274 4390 1059 3596 
Q 845 2803 845 1958 
Q 845 1114 1059 320 
Q 1274 -474 1696 -1139 
L 1562 -1222 
z
" transform="scale(0.015625)"/>
       <path id="NotoSansSC-Thin-25" d="M 1267 1818 
Q 966 1818 745 1987 
Q 525 2157 409 2483 
Q 294 2810 294 3283 
Q 294 3750 409 4070 
Q 525 4390 745 4560 
Q 966 4730 1267 4730 
Q 1574 4730 1795 4560 
Q 2016 4390 2131 4070 
Q 2246 3750 2246 3283 
Q 2246 2810 2131 2483 
Q 2016 2157 1795 1987 
Q 1574 1818 1267 1818 
z
M 1267 2003 
Q 1619 2003 1820 2342 
Q 2022 2682 2022 3283 
Q 2022 3885 1820 4214 
Q 1619 4544 1267 4544 
Q 922 4544 717 4214 
Q 512 3885 512 3283 
Q 512 2682 717 2342 
Q 922 2003 1267 2003 
z
M 1382 -83 
L 3987 4730 
L 4218 4730 
L 1619 -83 
L 1382 -83 
z
M 4365 -83 
Q 4058 -83 3840 86 
Q 3622 256 3504 582 
Q 3386 909 3386 1382 
Q 3386 1850 3504 2170 
Q 3622 2490 3840 2659 
Q 4058 2829 4365 2829 
Q 4666 2829 4883 2659 
Q 5101 2490 5219 2170 
Q 5338 1850 5338 1382 
Q 5338 909 5219 582 
Q 5101 256 4883 86 
Q 4666 -83 4365 -83 
z
M 4365 102 
Q 4704 102 4912 441 
Q 5120 781 5120 1382 
Q 5120 1984 4912 2313 
Q 4704 2643 4365 2643 
Q 4013 2643 3808 2313 
Q 3603 1984 3603 1382 
Q 3603 781 3808 441 
Q 4013 102 4365 102 
z
" transform="scale(0.015625)"/>
       <path id="NotoSansSC-Thin-29" d="M 352 -1222 
L 211 -1139 
Q 634 -474 851 320 
Q 1069 1114 1069 1958 
Q 1069 2803 851 3596 
Q 634 4390 211 5056 
L 352 5146 
Q 787 4448 1033 3667 
Q 1280 2886 1280 1958 
Q 1280 1030 1033 252 
Q 787 -525 352 -1222 
z
" transform="scale(0.015625)"/>
      </defs>
      <use xlink:href="#NotoSansSC-Thin-6da8"/>
      <use xlink:href="#NotoSansSC-Thin-8dcc" transform="translate(99.999985 0)"/>
      <use xlink:href="#NotoSansSC-Thin-5e45" transform="translate(199.999969 0)"/>
      <use xlink:href="#NotoSansSC-Thin-20" transform="translate(299.999954 0)"/>
      <use xlink:href="#NotoSansSC-Thin-28" transform="translate(321.999939 0)"/>
      <use xlink:href="#NotoSansSC-Thin-25" transform="translate(351.899933 0)"/>
      <use xlink:href="#NotoSansSC-Thin-29" transform="translate(439.899918 0)"/>
     </g>
    </g>
   </g>
   <g id="matplotlib.axis_2">
    <g id="ytick_1">
     <g id="line2d_15">
      <path d="M 57.006406 242.37555 
L 371.826406 242.37555 
" clip-path="url(#pd44b8f845b)" style="fill: none; stroke: #e2e8f0; stroke-opacity: 0.6; stroke-width: 0.5; stroke-linecap: square"/>
     </g>
     <g id="line2d_16"/>
     <g id="text_9">
      <!-- 韩国KOSPI -->
      <g style="fill: #94a3b8" transform="translate(10.8 245.948832) scale(0.09 -0.09)">
       <defs>
        <path id="NotoSansSC-Thin-97e9" d="M 3008 4403 
L 5971 4403 
L 5971 4218 
L 3008 4218 
L 3008 4403 
z
M 3149 3245 
L 5722 3245 
L 5722 3053 
L 3149 3053 
L 3149 3245 
z
M 5869 2074 
L 6061 2074 
Q 6061 2074 6061 2029 
Q 6061 1984 6054 1952 
Q 6022 1382 5984 1040 
Q 5946 698 5901 522 
Q 5856 346 5792 275 
Q 5741 224 5677 201 
Q 5613 179 5504 173 
Q 5421 173 5277 176 
Q 5133 179 4966 192 
Q 4960 224 4947 278 
Q 4934 333 4915 371 
Q 5101 352 5254 349 
Q 5408 346 5472 346 
Q 5530 346 5571 355 
Q 5613 365 5638 397 
Q 5690 454 5731 627 
Q 5773 800 5808 1136 
Q 5843 1472 5869 2029 
L 5869 2074 
z
M 2970 2074 
L 5933 2074 
L 5933 1882 
L 2970 1882 
L 2970 2074 
z
M 4339 5318 
L 4531 5318 
L 4531 -435 
L 4339 -435 
L 4339 5318 
z
M 1498 5331 
L 1690 5331 
L 1690 3584 
L 1498 3584 
L 1498 5331 
z
M 1498 1850 
L 1690 1850 
L 1690 -493 
L 1498 -493 
L 1498 1850 
z
M 762 2624 
L 762 1952 
L 2445 1952 
L 2445 2624 
L 762 2624 
z
M 762 3469 
L 762 2810 
L 2445 2810 
L 2445 3469 
L 762 3469 
z
M 570 3661 
L 2637 3661 
L 2637 1766 
L 570 1766 
L 570 3661 
z
M 358 4563 
L 2790 4563 
L 2790 4371 
L 358 4371 
L 358 4563 
z
M 294 1018 
L 2867 1018 
L 2867 832 
L 294 832 
L 294 1018 
z
" transform="scale(0.015625)"/>
        <path id="NotoSansSC-Thin-56fd" d="M 1510 4051 
L 4928 4051 
L 4928 3866 
L 1510 3866 
L 1510 4051 
z
M 1702 2650 
L 4755 2650 
L 4755 2458 
L 1702 2458 
L 1702 2650 
z
M 1395 1056 
L 5094 1056 
L 5094 864 
L 1395 864 
L 1395 1056 
z
M 3072 3994 
L 3264 3994 
L 3264 947 
L 3072 947 
L 3072 3994 
z
M 3859 2093 
L 3994 2182 
Q 4218 2010 4435 1789 
Q 4653 1568 4768 1402 
L 4621 1293 
Q 4506 1459 4288 1686 
Q 4070 1914 3859 2093 
z
M 608 4986 
L 5805 4986 
L 5805 -461 
L 5613 -461 
L 5613 4800 
L 800 4800 
L 800 -461 
L 608 -461 
L 608 4986 
z
M 704 51 
L 5702 51 
L 5702 -134 
L 704 -134 
L 704 51 
z
" transform="scale(0.015625)"/>
        <path id="NotoSansSC-Thin-4b" d="M 704 0 
L 704 4646 
L 941 4646 
L 941 1984 
L 954 1984 
L 3302 4646 
L 3603 4646 
L 2112 2944 
L 3802 0 
L 3520 0 
L 1933 2758 
L 941 1638 
L 941 0 
L 704 0 
z
" transform="scale(0.015625)"/>
        <path id="NotoSansSC-Thin-4f" d="M 2285 -83 
Q 1734 -83 1308 217 
Q 883 518 640 1062 
Q 397 1606 397 2336 
Q 397 3072 640 3606 
Q 883 4141 1308 4435 
Q 1734 4730 2285 4730 
Q 2835 4730 3260 4435 
Q 3686 4141 3929 3606 
Q 4173 3072 4173 2336 
Q 4173 1606 3929 1062 
Q 3686 518 3260 217 
Q 2835 -83 2285 -83 
z
M 2285 141 
Q 2778 141 3146 413 
Q 3514 685 3718 1177 
Q 3923 1670 3923 2336 
Q 3923 3002 3718 3488 
Q 3514 3974 3146 4240 
Q 2778 4506 2285 4506 
Q 1798 4506 1427 4240 
Q 1056 3974 851 3488 
Q 646 3002 646 2336 
Q 646 1670 851 1177 
Q 1056 685 1427 413 
Q 1798 141 2285 141 
z
" transform="scale(0.015625)"/>
        <path id="NotoSansSC-Thin-53" d="M 1888 -83 
Q 1376 -83 989 115 
Q 602 314 339 621 
L 499 787 
Q 755 493 1113 317 
Q 1472 141 1888 141 
Q 2445 141 2774 416 
Q 3104 691 3104 1126 
Q 3104 1440 2985 1625 
Q 2867 1811 2675 1929 
Q 2483 2048 2246 2150 
L 1536 2470 
Q 1338 2560 1117 2694 
Q 896 2829 742 3049 
Q 589 3270 589 3610 
Q 589 3949 761 4198 
Q 934 4448 1232 4589 
Q 1530 4730 1907 4730 
Q 2330 4730 2653 4566 
Q 2976 4403 3174 4179 
L 3027 4019 
Q 2829 4237 2547 4371 
Q 2266 4506 1907 4506 
Q 1421 4506 1126 4269 
Q 832 4032 832 3635 
Q 832 3347 966 3164 
Q 1101 2982 1293 2876 
Q 1485 2771 1645 2694 
L 2355 2374 
Q 2618 2259 2842 2108 
Q 3066 1958 3203 1731 
Q 3341 1504 3341 1146 
Q 3341 794 3161 515 
Q 2982 237 2656 77 
Q 2330 -83 1888 -83 
z
" transform="scale(0.015625)"/>
        <path id="NotoSansSC-Thin-50" d="M 704 0 
L 704 4646 
L 1824 4646 
Q 2355 4646 2726 4521 
Q 3098 4397 3293 4121 
Q 3488 3846 3488 3379 
Q 3488 2931 3296 2636 
Q 3104 2342 2739 2195 
Q 2374 2048 1850 2048 
L 941 2048 
L 941 0 
L 704 0 
z
M 941 2259 
L 1766 2259 
Q 2509 2259 2870 2518 
Q 3232 2778 3232 3379 
Q 3232 3987 2864 4211 
Q 2496 4435 1741 4435 
L 941 4435 
L 941 2259 
z
" transform="scale(0.015625)"/>
        <path id="NotoSansSC-Thin-49" d="M 704 0 
L 704 4646 
L 941 4646 
L 941 0 
L 704 0 
z
" transform="scale(0.015625)"/>
       </defs>
       <use xlink:href="#NotoSansSC-Thin-97e9"/>
       <use xlink:href="#NotoSansSC-Thin-56fd" transform="translate(99.999985 0)"/>
       <use xlink:href="#NotoSansSC-Thin-4b" transform="translate(199.999969 0)"/>
       <use xlink:href="#NotoSansSC-Thin-4f" transform="translate(260.699966 0)"/>
       <use xlink:href="#NotoSansSC-Thin-53" transform="translate(332.09996 0)"/>
       <use xlink:href="#NotoSansSC-Thin-50" transform="translate(388.999954 0)"/>
       <use xlink:href="#NotoSansSC-Thin-49" transform="translate(448.799942 0)"/>
      </g>
     </g>
    </g>
    <g id="ytick_2">
     <g id="line2d_17">
      <path d="M 57.006406 221.008375 
L 371.826406 221.008375 
" clip-path="url(#pd44b8f845b)" style="fill: none; stroke: #e2e8f0; stroke-opacity: 0.6; stroke-width: 0.5; stroke-linecap: square"/>
     </g>
     <g id="line2d_18"/>
     <g id="text_10">
      <!-- 日经225 -->
      <g style="fill: #94a3b8" transform="translate(21.441094 224.581657) scale(0.09 -0.09)">
       <defs>
        <path id="NotoSansSC-Thin-65e5" d="M 1274 4832 
L 5197 4832 
L 5197 -333 
L 5005 -333 
L 5005 4640 
L 1466 4640 
L 1466 -384 
L 1274 -384 
L 1274 4832 
z
M 1389 2547 
L 5088 2547 
L 5088 2362 
L 1389 2362 
L 1389 2547 
z
M 1376 218 
L 5107 218 
L 5107 32 
L 1376 32 
L 1376 218 
z
" transform="scale(0.015625)"/>
        <path id="NotoSansSC-Thin-7ecf" d="M 416 1248 
Q 410 1274 397 1312 
Q 384 1350 371 1392 
Q 358 1434 346 1459 
Q 435 1472 553 1590 
Q 672 1709 826 1888 
Q 909 1978 1072 2179 
Q 1235 2381 1443 2662 
Q 1651 2944 1865 3267 
Q 2080 3590 2266 3923 
L 2445 3827 
Q 2016 3136 1542 2496 
Q 1069 1856 595 1382 
L 595 1376 
Q 595 1376 569 1366 
Q 544 1357 505 1337 
Q 467 1318 441 1296 
Q 416 1274 416 1248 
z
M 416 1248 
L 416 1434 
L 563 1536 
L 2381 1882 
Q 2381 1843 2384 1792 
Q 2387 1741 2394 1709 
Q 1760 1574 1382 1494 
Q 1005 1414 809 1369 
Q 614 1325 534 1299 
Q 454 1274 416 1248 
z
M 378 2765 
Q 371 2790 358 2832 
Q 346 2874 333 2915 
Q 320 2957 307 2982 
Q 384 2995 477 3107 
Q 570 3219 672 3392 
Q 730 3475 851 3667 
Q 973 3859 1117 4121 
Q 1261 4384 1411 4685 
Q 1562 4986 1677 5286 
L 1869 5210 
Q 1677 4787 1462 4371 
Q 1248 3955 1021 3580 
Q 794 3206 557 2906 
L 557 2899 
Q 557 2899 531 2886 
Q 506 2874 467 2854 
Q 429 2835 403 2812 
Q 378 2790 378 2765 
z
M 378 2765 
L 378 2944 
L 531 3034 
L 1882 3206 
Q 1875 3162 1878 3114 
Q 1882 3066 1882 3034 
Q 1408 2963 1123 2918 
Q 838 2874 688 2845 
Q 538 2816 474 2800 
Q 410 2784 378 2765 
z
M 314 243 
Q 582 301 921 381 
Q 1261 461 1645 553 
Q 2029 646 2426 742 
L 2438 557 
Q 1875 422 1324 291 
Q 774 160 358 51 
L 314 243 
z
M 2714 4947 
L 5370 4947 
L 5370 4762 
L 2714 4762 
L 2714 4947 
z
M 5286 4947 
L 5331 4947 
L 5376 4960 
L 5517 4883 
Q 5286 4454 4934 4086 
Q 4582 3718 4160 3408 
Q 3738 3098 3290 2858 
Q 2842 2618 2419 2451 
Q 2406 2477 2380 2502 
Q 2355 2528 2332 2553 
Q 2310 2579 2285 2598 
Q 2701 2752 3139 2985 
Q 3578 3219 3987 3516 
Q 4397 3814 4736 4163 
Q 5075 4512 5286 4902 
L 5286 4947 
z
M 2368 -58 
L 6099 -58 
L 6099 -243 
L 2368 -243 
L 2368 -58 
z
M 4141 1971 
L 4326 1971 
L 4326 -173 
L 4141 -173 
L 4141 1971 
z
M 2758 2093 
L 5818 2093 
L 5818 1901 
L 2758 1901 
L 2758 2093 
z
M 4102 3443 
L 4205 3584 
Q 4538 3456 4893 3293 
Q 5248 3130 5565 2966 
Q 5882 2803 6093 2669 
L 5990 2496 
Q 5779 2637 5462 2806 
Q 5146 2976 4790 3145 
Q 4435 3315 4102 3443 
z
" transform="scale(0.015625)"/>
       </defs>
       <use xlink:href="#NotoSansSC-Thin-65e5"/>
       <use xlink:href="#NotoSansSC-Thin-7ecf" transform="translate(99.999985 0)"/>
       <use xlink:href="#NotoSansSC-Thin-32" transform="translate(199.999969 0)"/>
       <use xlink:href="#NotoSansSC-Thin-32" transform="translate(252.09996 0)"/>
       <use xlink:href="#NotoSansSC-Thin-35" transform="translate(304.199951 0)"/>
      </g>
     </g>
    </g>
    <g id="ytick_3">
     <g id="line2d_19">
      <path d="M 57.006406 199.6412 
L 371.826406 199.6412 
" clip-path="url(#pd44b8f845b)" style="fill: none; stroke: #e2e8f0; stroke-opacity: 0.6; stroke-width: 0.5; stroke-linecap: square"/>
     </g>
     <g id="line2d_20"/>
     <g id="text_11">
      <!-- 纳指 -->
      <g style="fill: #94a3b8" transform="translate(35.506406 203.214481) scale(0.09 -0.09)">
       <defs>
        <path id="NotoSansSC-Thin-7eb3" d="M 5632 3853 
L 5824 3853 
L 5824 -96 
Q 5824 -230 5779 -297 
Q 5734 -365 5626 -397 
Q 5517 -416 5283 -419 
Q 5050 -422 4653 -422 
Q 4646 -390 4624 -336 
Q 4602 -282 4576 -237 
Q 4915 -243 5164 -243 
Q 5414 -243 5498 -237 
Q 5632 -230 5632 -102 
L 5632 3853 
z
M 2675 3853 
L 5728 3853 
L 5728 3661 
L 2861 3661 
L 2861 -448 
L 2675 -448 
L 2675 3853 
z
M 4154 5312 
L 4346 5312 
L 4346 4518 
Q 4346 4096 4310 3632 
Q 4275 3168 4163 2691 
Q 4051 2214 3814 1753 
Q 3578 1293 3174 877 
Q 3155 896 3126 918 
Q 3098 941 3069 960 
Q 3040 979 3014 992 
Q 3411 1402 3641 1850 
Q 3872 2298 3981 2758 
Q 4090 3219 4122 3664 
Q 4154 4109 4154 4512 
L 4154 5312 
z
M 4038 2970 
L 4205 3040 
Q 4435 2726 4675 2358 
Q 4915 1990 5120 1648 
Q 5325 1306 5440 1050 
L 5267 954 
Q 5152 1210 4950 1562 
Q 4749 1914 4512 2285 
Q 4275 2656 4038 2970 
z
M 448 1248 
Q 448 1274 435 1312 
Q 422 1350 409 1388 
Q 397 1427 378 1453 
Q 467 1466 582 1587 
Q 698 1709 851 1888 
Q 928 1978 1088 2182 
Q 1248 2387 1453 2668 
Q 1658 2950 1866 3276 
Q 2074 3603 2253 3936 
L 2426 3846 
Q 2016 3155 1552 2508 
Q 1088 1862 621 1382 
L 621 1376 
Q 621 1376 595 1366 
Q 570 1357 534 1337 
Q 499 1318 473 1296 
Q 448 1274 448 1248 
z
M 448 1248 
L 448 1414 
L 589 1510 
L 2406 1869 
Q 2406 1830 2409 1785 
Q 2413 1741 2419 1709 
Q 1779 1574 1401 1494 
Q 1024 1414 832 1369 
Q 640 1325 563 1299 
Q 486 1274 448 1248 
z
M 410 2765 
Q 410 2790 397 2828 
Q 384 2867 371 2905 
Q 358 2944 346 2970 
Q 416 2982 502 3097 
Q 589 3213 691 3386 
Q 749 3475 861 3667 
Q 973 3859 1113 4124 
Q 1254 4390 1395 4694 
Q 1536 4998 1645 5299 
L 1818 5222 
Q 1645 4800 1443 4384 
Q 1242 3968 1024 3590 
Q 806 3213 582 2906 
L 582 2899 
Q 582 2899 556 2886 
Q 531 2874 496 2854 
Q 461 2835 435 2812 
Q 410 2790 410 2765 
z
M 410 2765 
L 410 2931 
L 550 3014 
L 1843 3181 
Q 1843 3142 1843 3094 
Q 1843 3046 1850 3021 
Q 1402 2957 1126 2912 
Q 851 2867 707 2841 
Q 563 2816 502 2800 
Q 442 2784 410 2765 
z
M 346 243 
Q 742 333 1312 467 
Q 1882 602 2483 749 
L 2496 570 
Q 1926 429 1369 297 
Q 813 166 390 58 
L 346 243 
z
" transform="scale(0.015625)"/>
        <path id="NotoSansSC-Thin-6307" d="M 2867 5274 
L 3053 5274 
L 3053 3373 
Q 3053 3226 3155 3174 
Q 3258 3123 3597 3123 
Q 3661 3123 3830 3123 
Q 4000 3123 4224 3123 
Q 4448 3123 4675 3123 
Q 4902 3123 5088 3123 
Q 5274 3123 5363 3123 
Q 5562 3123 5658 3187 
Q 5754 3251 5792 3440 
Q 5830 3629 5850 4000 
Q 5882 3974 5936 3955 
Q 5990 3936 6035 3923 
Q 6016 3526 5961 3312 
Q 5907 3098 5769 3018 
Q 5632 2938 5363 2938 
Q 5325 2938 5149 2938 
Q 4973 2938 4733 2938 
Q 4493 2938 4253 2938 
Q 4013 2938 3837 2938 
Q 3661 2938 3622 2938 
Q 3334 2938 3168 2970 
Q 3002 3002 2934 3098 
Q 2867 3194 2867 3379 
L 2867 5274 
z
M 5459 4832 
L 5626 4678 
Q 5299 4550 4857 4432 
Q 4416 4314 3933 4208 
Q 3450 4102 2995 4019 
Q 2989 4051 2966 4096 
Q 2944 4141 2918 4179 
Q 3366 4262 3846 4368 
Q 4326 4474 4752 4595 
Q 5178 4717 5459 4832 
z
M 2880 2234 
L 5792 2234 
L 5792 -416 
L 5600 -416 
L 5600 2048 
L 3066 2048 
L 3066 -442 
L 2880 -442 
L 2880 2234 
z
M 2970 1165 
L 5683 1165 
L 5683 979 
L 2970 979 
L 2970 1165 
z
M 2970 58 
L 5709 58 
L 5709 -128 
L 2970 -128 
L 2970 58 
z
M 262 1792 
Q 531 1875 880 1987 
Q 1229 2099 1625 2230 
Q 2022 2362 2419 2496 
L 2451 2310 
Q 1894 2125 1337 1933 
Q 781 1741 352 1600 
L 262 1792 
z
M 326 3936 
L 2368 3936 
L 2368 3744 
L 326 3744 
L 326 3936 
z
M 1318 5312 
L 1504 5312 
L 1504 -141 
Q 1504 -269 1462 -329 
Q 1421 -390 1331 -416 
Q 1242 -442 1069 -448 
Q 896 -454 595 -448 
Q 589 -416 563 -365 
Q 538 -314 518 -269 
Q 768 -275 953 -275 
Q 1139 -275 1197 -269 
Q 1261 -269 1289 -243 
Q 1318 -218 1318 -147 
L 1318 5312 
z
" transform="scale(0.015625)"/>
       </defs>
       <use xlink:href="#NotoSansSC-Thin-7eb3"/>
       <use xlink:href="#NotoSansSC-Thin-6307" transform="translate(99.999985 0)"/>
      </g>
     </g>
    </g>
    <g id="ytick_4">
     <g id="line2d_21">
      <path d="M 57.006406 178.274025 
L 371.826406 178.274025 
" clip-path="url(#pd44b8f845b)" style="fill: none; stroke: #e2e8f0; stroke-opacity: 0.6; stroke-width: 0.5; stroke-linecap: square"/>
     </g>
     <g id="line2d_22"/>
     <g id="text_12">
      <!-- 德国DAX -->
      <g style="fill: #94a3b8" transform="translate(19.719844 181.847306) scale(0.09 -0.09)">
       <defs>
        <path id="NotoSansSC-Thin-5fb7" d="M 2048 4717 
L 6061 4717 
L 6061 4531 
L 2048 4531 
L 2048 4717 
z
M 2003 1901 
L 6099 1901 
L 6099 1715 
L 2003 1715 
L 2003 1901 
z
M 3642 1491 
L 3789 1562 
Q 3936 1363 4093 1123 
Q 4250 883 4333 730 
L 4179 634 
Q 4096 800 3942 1046 
Q 3789 1293 3642 1491 
z
M 3021 1133 
L 3206 1133 
L 3206 -19 
Q 3206 -109 3267 -141 
Q 3328 -173 3546 -173 
Q 3597 -173 3741 -173 
Q 3885 -173 4064 -173 
Q 4243 -173 4400 -173 
Q 4557 -173 4627 -173 
Q 4749 -173 4809 -131 
Q 4870 -90 4896 57 
Q 4922 205 4928 506 
Q 4966 480 5017 461 
Q 5069 442 5114 429 
Q 5101 109 5062 -64 
Q 5024 -237 4928 -301 
Q 4832 -365 4646 -365 
Q 4614 -365 4457 -365 
Q 4301 -365 4102 -365 
Q 3904 -365 3747 -365 
Q 3590 -365 3552 -365 
Q 3347 -365 3228 -339 
Q 3110 -314 3065 -240 
Q 3021 -166 3021 -19 
L 3021 1133 
z
M 2438 1069 
L 2611 998 
Q 2496 710 2339 368 
Q 2182 26 1978 -218 
L 1798 -128 
Q 1939 26 2060 234 
Q 2182 442 2278 662 
Q 2374 883 2438 1069 
z
M 5254 1114 
L 5427 1165 
Q 5542 966 5664 736 
Q 5786 506 5891 291 
Q 5997 77 6061 -77 
L 5882 -154 
Q 5818 6 5715 227 
Q 5613 448 5494 681 
Q 5376 915 5254 1114 
z
M 4678 3744 
L 4678 2630 
L 5587 2630 
L 5587 3744 
L 4678 3744 
z
M 3603 3744 
L 3603 2630 
L 4493 2630 
L 4493 3744 
L 3603 3744 
z
M 2560 3744 
L 2560 2630 
L 3411 2630 
L 3411 3744 
L 2560 3744 
z
M 2374 3936 
L 5779 3936 
L 5779 2438 
L 2374 2438 
L 2374 3936 
z
M 3962 5338 
L 4160 5306 
Q 4122 5075 4074 4809 
Q 4026 4544 3974 4291 
Q 3923 4038 3872 3853 
L 3699 3891 
Q 3750 4077 3798 4336 
Q 3846 4595 3891 4860 
Q 3936 5126 3962 5338 
z
M 1824 3942 
L 2010 3878 
Q 1792 3501 1523 3123 
Q 1254 2746 969 2410 
Q 685 2074 403 1805 
Q 390 1824 361 1849 
Q 333 1875 301 1900 
Q 269 1926 243 1946 
Q 531 2202 819 2525 
Q 1107 2848 1366 3213 
Q 1626 3578 1824 3942 
z
M 1696 5312 
L 1882 5235 
Q 1690 4998 1443 4739 
Q 1197 4480 928 4237 
Q 659 3994 410 3802 
Q 397 3821 374 3846 
Q 352 3872 326 3897 
Q 301 3923 275 3936 
Q 525 4122 790 4355 
Q 1056 4589 1296 4838 
Q 1536 5088 1696 5312 
z
M 1242 2938 
L 1338 3034 
L 1434 3002 
L 1434 -448 
L 1242 -448 
L 1242 2938 
z
" transform="scale(0.015625)"/>
        <path id="NotoSansSC-Thin-44" d="M 704 0 
L 704 4646 
L 1747 4646 
Q 2470 4646 2931 4358 
Q 3392 4070 3613 3552 
Q 3834 3034 3834 2336 
Q 3834 1645 3613 1117 
Q 3392 589 2931 294 
Q 2470 0 1754 0 
L 704 0 
z
M 941 211 
L 1715 211 
Q 2374 211 2787 486 
Q 3200 762 3392 1245 
Q 3584 1728 3584 2336 
Q 3584 2950 3392 3424 
Q 3200 3898 2787 4166 
Q 2374 4435 1715 4435 
L 941 4435 
L 941 211 
z
" transform="scale(0.015625)"/>
        <path id="NotoSansSC-Thin-41" d="M 70 0 
L 1728 4646 
L 1939 4646 
L 3603 0 
L 3347 0 
L 2381 2784 
Q 2234 3206 2106 3587 
Q 1978 3968 1850 4403 
L 1824 4403 
Q 1696 3968 1565 3587 
Q 1434 3206 1286 2784 
L 307 0 
L 70 0 
z
M 787 1651 
L 787 1856 
L 2861 1856 
L 2861 1651 
L 787 1651 
z
" transform="scale(0.015625)"/>
        <path id="NotoSansSC-Thin-58" d="M 128 0 
L 1536 2406 
L 224 4646 
L 486 4646 
L 1286 3226 
Q 1382 3066 1465 2928 
Q 1549 2790 1670 2598 
L 1696 2598 
Q 1805 2790 1878 2928 
Q 1952 3066 2048 3226 
L 2861 4646 
L 3104 4646 
L 1792 2394 
L 3200 0 
L 2944 0 
L 2093 1485 
Q 1997 1651 1888 1830 
Q 1779 2010 1651 2221 
L 1626 2221 
Q 1510 2010 1411 1830 
Q 1312 1651 1216 1485 
L 371 0 
L 128 0 
z
" transform="scale(0.015625)"/>
       </defs>
       <use xlink:href="#NotoSansSC-Thin-5fb7"/>
       <use xlink:href="#NotoSansSC-Thin-56fd" transform="translate(99.999985 0)"/>
       <use xlink:href="#NotoSansSC-Thin-44" transform="translate(199.999969 0)"/>
       <use xlink:href="#NotoSansSC-Thin-41" transform="translate(266.09996 0)"/>
       <use xlink:href="#NotoSansSC-Thin-58" transform="translate(323.499954 0)"/>
      </g>
     </g>
    </g>
    <g id="ytick_5">
     <g id="line2d_23">
      <path d="M 57.006406 156.90685 
L 371.826406 156.90685 
" clip-path="url(#pd44b8f845b)" style="fill: none; stroke: #e2e8f0; stroke-opacity: 0.6; stroke-width: 0.5; stroke-linecap: square"/>
     </g>
     <g id="line2d_24"/>
     <g id="text_13">
      <!-- 标普500 -->
      <g style="fill: #94a3b8" transform="translate(21.441094 160.480131) scale(0.09 -0.09)">
       <defs>
        <path id="NotoSansSC-Thin-6807" d="M 2970 4736 
L 5734 4736 
L 5734 4550 
L 2970 4550 
L 2970 4736 
z
M 2707 3206 
L 6067 3206 
L 6067 3021 
L 2707 3021 
L 2707 3206 
z
M 4186 3117 
L 4378 3117 
L 4378 -115 
Q 4378 -243 4336 -304 
Q 4294 -365 4192 -397 
Q 4090 -422 3875 -425 
Q 3661 -429 3315 -429 
Q 3309 -390 3283 -336 
Q 3258 -282 3232 -237 
Q 3539 -243 3766 -243 
Q 3994 -243 4058 -237 
Q 4134 -230 4160 -204 
Q 4186 -179 4186 -115 
L 4186 3117 
z
M 5030 2138 
L 5216 2182 
Q 5382 1882 5539 1536 
Q 5696 1190 5824 867 
Q 5952 544 6016 301 
L 5824 237 
Q 5760 480 5635 806 
Q 5510 1133 5353 1485 
Q 5197 1837 5030 2138 
z
M 3315 2176 
L 3501 2138 
Q 3398 1773 3257 1424 
Q 3117 1075 2953 768 
Q 2790 461 2605 218 
Q 2592 230 2560 252 
Q 2528 275 2493 297 
Q 2458 320 2432 333 
Q 2720 685 2947 1168 
Q 3174 1651 3315 2176 
z
M 416 3866 
L 2598 3866 
L 2598 3674 
L 416 3674 
L 416 3866 
z
M 1478 5318 
L 1670 5318 
L 1670 -435 
L 1478 -435 
L 1478 5318 
z
M 1459 3814 
L 1645 3763 
Q 1549 3424 1408 3056 
Q 1267 2688 1094 2333 
Q 922 1978 733 1670 
Q 544 1363 352 1152 
Q 333 1178 304 1206 
Q 275 1235 249 1260 
Q 224 1286 198 1299 
Q 442 1568 685 1984 
Q 928 2400 1133 2883 
Q 1338 3366 1459 3814 
z
M 1638 3507 
Q 1696 3443 1824 3276 
Q 1952 3110 2102 2912 
Q 2253 2714 2381 2547 
Q 2509 2381 2560 2304 
L 2400 2144 
Q 2342 2240 2220 2419 
Q 2099 2598 1958 2800 
Q 1818 3002 1690 3168 
Q 1562 3334 1491 3411 
L 1638 3507 
z
" transform="scale(0.015625)"/>
        <path id="NotoSansSC-Thin-666e" d="M 768 4486 
L 5709 4486 
L 5709 4294 
L 768 4294 
L 768 4486 
z
M 384 2829 
L 6035 2829 
L 6035 2643 
L 384 2643 
L 384 2829 
z
M 2451 4416 
L 2643 4416 
L 2643 2720 
L 2451 2720 
L 2451 4416 
z
M 3750 4416 
L 3942 4416 
L 3942 2720 
L 3750 2720 
L 3750 4416 
z
M 1120 4019 
L 1280 4096 
Q 1485 3872 1651 3590 
Q 1818 3309 1882 3091 
L 1702 3014 
Q 1638 3232 1475 3513 
Q 1312 3795 1120 4019 
z
M 1587 5229 
L 1741 5312 
Q 1901 5158 2035 4966 
Q 2170 4774 2234 4614 
L 2067 4525 
Q 2003 4678 1872 4876 
Q 1741 5075 1587 5229 
z
M 5133 4141 
L 5299 4038 
Q 5146 3770 4950 3475 
Q 4755 3181 4589 2976 
L 4448 3059 
Q 4557 3206 4685 3395 
Q 4813 3584 4931 3782 
Q 5050 3981 5133 4141 
z
M 4602 5318 
L 4781 5229 
Q 4659 5011 4508 4777 
Q 4358 4544 4230 4371 
L 4083 4454 
Q 4211 4627 4361 4880 
Q 4512 5133 4602 5318 
z
M 1338 2131 
L 5120 2131 
L 5120 -416 
L 4928 -416 
L 4928 1946 
L 1523 1946 
L 1523 -435 
L 1338 -435 
L 1338 2131 
z
M 1440 1082 
L 4998 1082 
L 4998 890 
L 1440 890 
L 1440 1082 
z
M 1453 -6 
L 5011 -6 
L 5011 -192 
L 1453 -192 
L 1453 -6 
z
" transform="scale(0.015625)"/>
       </defs>
       <use xlink:href="#NotoSansSC-Thin-6807"/>
       <use xlink:href="#NotoSansSC-Thin-666e" transform="translate(99.999985 0)"/>
       <use xlink:href="#NotoSansSC-Thin-35" transform="translate(199.999969 0)"/>
       <use xlink:href="#NotoSansSC-Thin-30" transform="translate(252.09996 0)"/>
       <use xlink:href="#NotoSansSC-Thin-30" transform="translate(304.199951 0)"/>
      </g>
     </g>
    </g>
    <g id="ytick_6">
     <g id="line2d_25">
      <path d="M 57.006406 135.539675 
L 371.826406 135.539675 
" clip-path="url(#pd44b8f845b)" style="fill: none; stroke: #e2e8f0; stroke-opacity: 0.6; stroke-width: 0.5; stroke-linecap: square"/>
     </g>
     <g id="line2d_26"/>
     <g id="text_14">
      <!-- 法国CAC -->
      <g style="fill: #94a3b8" transform="translate(19.196719 139.112956) scale(0.09 -0.09)">
       <defs>
        <path id="NotoSansSC-Thin-6cd5" d="M 621 5114 
L 730 5248 
Q 947 5158 1180 5040 
Q 1414 4922 1619 4797 
Q 1824 4672 1958 4563 
L 1850 4390 
Q 1715 4506 1510 4637 
Q 1306 4768 1075 4893 
Q 845 5018 621 5114 
z
M 314 3360 
L 429 3501 
Q 634 3411 854 3292 
Q 1075 3174 1270 3052 
Q 1466 2931 1587 2822 
L 1478 2662 
Q 1350 2771 1155 2896 
Q 960 3021 742 3145 
Q 525 3270 314 3360 
z
M 518 -224 
Q 691 26 908 381 
Q 1126 736 1344 1129 
Q 1562 1523 1741 1882 
L 1875 1760 
Q 1709 1421 1501 1037 
Q 1293 653 1078 291 
Q 864 -70 678 -358 
L 518 -224 
z
M 3949 5318 
L 4134 5318 
L 4134 2355 
L 3949 2355 
L 3949 5318 
z
M 2163 2470 
L 5965 2470 
L 5965 2285 
L 2163 2285 
L 2163 2470 
z
M 2470 4064 
L 5677 4064 
L 5677 3878 
L 2470 3878 
L 2470 4064 
z
M 4550 1408 
L 4691 1472 
Q 4934 1190 5168 857 
Q 5402 525 5594 205 
Q 5786 -115 5888 -358 
L 5734 -442 
Q 5632 -198 5443 125 
Q 5254 448 5020 787 
Q 4787 1126 4550 1408 
z
M 2381 -160 
L 2381 -6 
L 2547 90 
L 5382 429 
Q 5382 390 5395 342 
Q 5408 294 5414 262 
Q 4608 160 4077 96 
Q 3546 32 3222 -13 
Q 2899 -58 2732 -83 
Q 2566 -109 2492 -125 
Q 2419 -141 2381 -160 
z
M 2381 -160 
Q 2381 -134 2368 -96 
Q 2355 -58 2342 -22 
Q 2330 13 2317 38 
Q 2394 51 2496 166 
Q 2598 282 2726 461 
Q 2797 544 2934 739 
Q 3072 934 3245 1203 
Q 3418 1472 3594 1779 
Q 3770 2086 3917 2400 
L 4096 2317 
Q 3866 1882 3613 1456 
Q 3360 1030 3091 652 
Q 2822 275 2554 -32 
L 2554 -38 
Q 2554 -38 2528 -48 
Q 2502 -58 2467 -77 
Q 2432 -96 2406 -118 
Q 2381 -141 2381 -160 
z
" transform="scale(0.015625)"/>
        <path id="NotoSansSC-Thin-43" d="M 2317 -83 
Q 1888 -83 1536 86 
Q 1184 256 928 576 
Q 672 896 534 1341 
Q 397 1786 397 2336 
Q 397 2886 537 3328 
Q 678 3770 934 4083 
Q 1190 4397 1552 4563 
Q 1914 4730 2355 4730 
Q 2758 4730 3059 4560 
Q 3360 4390 3539 4179 
L 3392 4019 
Q 3206 4237 2944 4371 
Q 2682 4506 2355 4506 
Q 1824 4506 1440 4240 
Q 1056 3974 851 3488 
Q 646 3002 646 2336 
Q 646 1670 851 1177 
Q 1056 685 1433 413 
Q 1811 141 2330 141 
Q 2694 141 2982 288 
Q 3270 435 3533 730 
L 3680 576 
Q 3418 269 3094 93 
Q 2771 -83 2317 -83 
z
" transform="scale(0.015625)"/>
       </defs>
       <use xlink:href="#NotoSansSC-Thin-6cd5"/>
       <use xlink:href="#NotoSansSC-Thin-56fd" transform="translate(99.999985 0)"/>
       <use xlink:href="#NotoSansSC-Thin-43" transform="translate(199.999969 0)"/>
       <use xlink:href="#NotoSansSC-Thin-41" transform="translate(261.899963 0)"/>
       <use xlink:href="#NotoSansSC-Thin-43" transform="translate(319.299957 0)"/>
      </g>
     </g>
    </g>
    <g id="ytick_7">
     <g id="line2d_27">
      <path d="M 57.006406 114.1725 
L 371.826406 114.1725 
" clip-path="url(#pd44b8f845b)" style="fill: none; stroke: #e2e8f0; stroke-opacity: 0.6; stroke-width: 0.5; stroke-linecap: square"/>
     </g>
     <g id="line2d_28"/>
     <g id="text_15">
      <!-- 道指 -->
      <g style="fill: #94a3b8" transform="translate(35.506406 117.745781) scale(0.09 -0.09)">
       <defs>
        <path id="NotoSansSC-Thin-9053" d="M 1984 4384 
L 6022 4384 
L 6022 4198 
L 1984 4198 
L 1984 4384 
z
M 3878 4326 
L 4090 4288 
Q 4013 4058 3926 3808 
Q 3840 3558 3750 3373 
L 3578 3405 
Q 3654 3597 3744 3862 
Q 3834 4128 3878 4326 
z
M 5005 5306 
L 5210 5235 
Q 5062 4998 4892 4729 
Q 4723 4461 4570 4275 
L 4403 4333 
Q 4512 4467 4624 4640 
Q 4736 4813 4838 4989 
Q 4941 5165 5005 5306 
z
M 2746 5242 
L 2899 5318 
Q 3059 5146 3203 4931 
Q 3347 4717 3405 4550 
L 3251 4461 
Q 3187 4627 3046 4844 
Q 2906 5062 2746 5242 
z
M 1568 3040 
L 1568 557 
L 1382 557 
L 1382 2854 
L 358 2854 
L 358 3040 
L 1568 3040 
z
M 538 4966 
L 691 5056 
Q 870 4902 1049 4713 
Q 1229 4525 1385 4342 
Q 1542 4160 1638 4013 
L 1478 3910 
Q 1389 4058 1232 4240 
Q 1075 4422 896 4614 
Q 717 4806 538 4966 
z
M 1440 621 
Q 1587 621 1718 509 
Q 1850 397 2093 237 
Q 2387 58 2780 3 
Q 3174 -51 3706 -51 
Q 4122 -51 4554 -38 
Q 4986 -26 5382 -6 
Q 5779 13 6086 38 
Q 6074 13 6061 -22 
Q 6048 -58 6038 -96 
Q 6029 -134 6022 -166 
Q 5837 -179 5539 -188 
Q 5242 -198 4902 -208 
Q 4563 -218 4246 -224 
Q 3930 -230 3706 -230 
Q 3142 -230 2729 -166 
Q 2317 -102 2003 96 
Q 1824 211 1683 332 
Q 1542 454 1440 454 
Q 1325 454 1181 361 
Q 1037 269 867 105 
Q 698 -58 512 -275 
L 378 -134 
Q 678 179 944 400 
Q 1210 621 1440 621 
z
M 2688 2413 
L 2688 1690 
L 5229 1690 
L 5229 2413 
L 2688 2413 
z
M 2688 1498 
L 2688 768 
L 5229 768 
L 5229 1498 
L 2688 1498 
z
M 2688 3322 
L 2688 2605 
L 5229 2605 
L 5229 3322 
L 2688 3322 
z
M 2496 3507 
L 5414 3507 
L 5414 576 
L 2496 576 
L 2496 3507 
z
" transform="scale(0.015625)"/>
       </defs>
       <use xlink:href="#NotoSansSC-Thin-9053"/>
       <use xlink:href="#NotoSansSC-Thin-6307" transform="translate(99.999985 0)"/>
      </g>
     </g>
    </g>
    <g id="ytick_8">
     <g id="line2d_29">
      <path d="M 57.006406 92.805325 
L 371.826406 92.805325 
" clip-path="url(#pd44b8f845b)" style="fill: none; stroke: #e2e8f0; stroke-opacity: 0.6; stroke-width: 0.5; stroke-linecap: square"/>
     </g>
     <g id="line2d_30"/>
     <g id="text_16">
      <!-- 上证指数 -->
      <g style="fill: #94a3b8" transform="translate(17.506406 96.378606) scale(0.09 -0.09)">
       <defs>
        <path id="NotoSansSC-Thin-4e0a" d="M 3002 3091 
L 5600 3091 
L 5600 2906 
L 3002 2906 
L 3002 3091 
z
M 378 32 
L 6029 32 
L 6029 -154 
L 378 -154 
L 378 32 
z
M 2886 5203 
L 3072 5203 
L 3072 -51 
L 2886 -51 
L 2886 5203 
z
" transform="scale(0.015625)"/>
        <path id="NotoSansSC-Thin-8bc1" d="M 4166 4685 
L 4352 4685 
L 4352 -109 
L 4166 -109 
L 4166 4685 
z
M 2861 3264 
L 3046 3264 
L 3046 -122 
L 2861 -122 
L 2861 3264 
z
M 4250 2637 
L 5837 2637 
L 5837 2445 
L 4250 2445 
L 4250 2637 
z
M 2502 4736 
L 5952 4736 
L 5952 4550 
L 2502 4550 
L 2502 4736 
z
M 2227 0 
L 6099 0 
L 6099 -186 
L 2227 -186 
L 2227 0 
z
M 781 4966 
L 922 5082 
Q 1101 4947 1286 4784 
Q 1472 4621 1635 4461 
Q 1798 4301 1894 4173 
L 1754 4032 
Q 1651 4160 1488 4323 
Q 1325 4486 1142 4656 
Q 960 4826 781 4966 
z
M 1248 -205 
L 1242 -6 
L 1350 154 
L 2400 838 
Q 2413 819 2425 793 
Q 2438 768 2451 739 
Q 2464 710 2470 691 
Q 2086 422 1856 262 
Q 1626 102 1504 16 
Q 1382 -70 1331 -118 
Q 1280 -166 1248 -205 
z
M 384 3270 
L 1581 3270 
L 1581 3078 
L 384 3078 
L 384 3270 
z
M 1248 -205 
Q 1235 -179 1209 -150 
Q 1184 -122 1161 -93 
Q 1139 -64 1114 -45 
Q 1158 -13 1235 60 
Q 1312 134 1373 243 
Q 1434 352 1434 493 
L 1434 3270 
L 1619 3270 
L 1619 198 
Q 1619 198 1580 166 
Q 1542 134 1488 86 
Q 1434 38 1379 -19 
Q 1325 -77 1286 -125 
Q 1248 -173 1248 -205 
z
" transform="scale(0.015625)"/>
        <path id="NotoSansSC-Thin-6570" d="M 512 1990 
L 2970 1990 
L 2970 1798 
L 512 1798 
L 512 1990 
z
M 365 4064 
L 3386 4064 
L 3386 3878 
L 365 3878 
L 365 4064 
z
M 2957 5146 
L 3123 5050 
Q 3002 4826 2845 4586 
Q 2688 4346 2554 4173 
L 2419 4256 
Q 2509 4371 2608 4531 
Q 2707 4691 2800 4854 
Q 2893 5018 2957 5146 
z
M 1792 5318 
L 1984 5318 
L 1984 2611 
L 1792 2611 
L 1792 5318 
z
M 691 5043 
L 845 5101 
Q 992 4902 1117 4662 
Q 1242 4422 1286 4250 
L 1139 4179 
Q 1088 4352 960 4598 
Q 832 4845 691 5043 
z
M 1792 3987 
L 1946 3904 
Q 1798 3622 1561 3344 
Q 1325 3066 1046 2832 
Q 768 2598 486 2445 
Q 467 2490 428 2538 
Q 390 2586 358 2618 
Q 634 2746 909 2960 
Q 1184 3174 1417 3443 
Q 1651 3712 1792 3987 
z
M 1946 3866 
Q 2029 3814 2205 3696 
Q 2381 3578 2585 3443 
Q 2790 3309 2960 3190 
Q 3130 3072 3200 3021 
L 3072 2854 
Q 2995 2925 2832 3049 
Q 2669 3174 2473 3315 
Q 2278 3456 2105 3574 
Q 1933 3693 1830 3750 
L 1946 3866 
z
M 3962 4013 
L 5997 4013 
L 5997 3827 
L 3962 3827 
L 3962 4013 
z
M 4128 5222 
L 4314 5190 
Q 4218 4614 4083 4086 
Q 3949 3558 3766 3100 
Q 3584 2643 3354 2285 
Q 3341 2298 3309 2320 
Q 3277 2342 3241 2361 
Q 3206 2381 3181 2394 
Q 3424 2733 3603 3184 
Q 3782 3635 3913 4153 
Q 4045 4672 4128 5222 
z
M 5357 3936 
L 5549 3910 
Q 5382 2829 5084 2006 
Q 4787 1184 4291 579 
Q 3795 -26 3040 -454 
Q 3027 -435 3004 -406 
Q 2982 -378 2956 -349 
Q 2931 -320 2906 -301 
Q 3654 90 4140 678 
Q 4627 1267 4915 2076 
Q 5203 2886 5357 3936 
z
M 3994 3789 
Q 4147 2874 4425 2070 
Q 4704 1267 5133 668 
Q 5562 70 6150 -243 
Q 6112 -269 6073 -313 
Q 6035 -358 6010 -397 
Q 5414 -51 4985 563 
Q 4557 1178 4275 1997 
Q 3994 2816 3834 3757 
L 3994 3789 
z
M 896 1018 
L 1050 1152 
Q 1370 1037 1722 873 
Q 2074 710 2387 544 
Q 2701 378 2906 230 
L 2752 90 
Q 2554 237 2240 406 
Q 1926 576 1574 739 
Q 1222 902 896 1018 
z
M 2880 1990 
L 2918 1990 
L 2963 2003 
L 3066 1946 
Q 2874 1286 2474 825 
Q 2074 365 1552 80 
Q 1030 -205 467 -358 
Q 454 -320 422 -272 
Q 390 -224 358 -198 
Q 902 -64 1411 205 
Q 1920 474 2310 906 
Q 2701 1338 2880 1946 
L 2880 1990 
z
M 896 1018 
Q 1030 1210 1168 1453 
Q 1306 1696 1427 1952 
Q 1549 2208 1632 2438 
L 1811 2406 
Q 1722 2170 1597 1910 
Q 1472 1651 1341 1414 
Q 1210 1178 1094 1005 
L 896 1018 
z
" transform="scale(0.015625)"/>
       </defs>
       <use xlink:href="#NotoSansSC-Thin-4e0a"/>
       <use xlink:href="#NotoSansSC-Thin-8bc1" transform="translate(99.999985 0)"/>
       <use xlink:href="#NotoSansSC-Thin-6307" transform="translate(199.999969 0)"/>
       <use xlink:href="#NotoSansSC-Thin-6570" transform="translate(299.999954 0)"/>
      </g>
     </g>
    </g>
   </g>
   <g id="line2d_31">
    <path d="M 121.695447 255.142437 
L 121.695447 80.038437 
" clip-path="url(#pd44b8f845b)" style="fill: none; stroke: #334155; stroke-width: 0.8; stroke-linecap: square"/>
    <defs>
     <path id="ma5c956bbb5" d="M 0 3 
C 0.795609 3 1.55874 2.683901 2.12132 2.12132 
C 2.683901 1.55874 3 0.795609 3 0 
C 3 -0.795609 2.683901 -1.55874 2.12132 -2.12132 
C 1.55874 -2.683901 0.795609 -3 0 -3 
C -0.795609 -3 -1.55874 -2.683901 -2.12132 -2.12132 
C -2.683901 -1.55874 -3 -0.795609 -3 0 
C -3 0.795609 -2.683901 1.55874 -2.12132 2.12132 
C -1.55874 2.683901 -0.795609 3 0 3 
z
" style="stroke: #334155; stroke-width: 1.5"/>
    </defs>
    <g clip-path="url(#pd44b8f845b)">
     <use xlink:href="#ma5c956bbb5" x="121.695447" y="255.142437" style="fill: #334155; stroke: #334155; stroke-width: 1.5"/>
     <use xlink:href="#ma5c956bbb5" x="121.695447" y="80.038437" style="fill: #334155; stroke: #334155; stroke-width: 1.5"/>
    </g>
   </g>
   <g id="patch_3">
    <path d="M 121.695447 247.183165 
L 323.093995 247.183165 
L 323.093995 237.567936 
L 121.695447 237.567936 
z
" clip-path="url(#pd44b8f845b)" style="fill: #b91c1c; stroke: #ffffff; stroke-width: 1.5; stroke-linejoin: miter"/>
   </g>
   <g id="patch_4">
    <path d="M 121.695447 225.81599 
L 216.572708 225.81599 
L 216.572708 216.200761 
L 121.695447 216.200761 
z
" clip-path="url(#pd44b8f845b)" style="fill: #dc2626; stroke: #ffffff; stroke-width: 1.5; stroke-linejoin: miter"/>
   </g>
   <g id="patch_5">
    <path d="M 121.695447 204.448815 
L 173.01542 204.448815 
L 173.01542 194.833586 
L 121.695447 194.833586 
z
" clip-path="url(#pd44b8f845b)" style="fill: #ef4444; stroke: #ffffff; stroke-width: 1.5; stroke-linejoin: miter"/>
   </g>
   <g id="patch_6">
    <path d="M 121.695447 183.081639 
L 208.378762 183.081639 
L 208.378762 173.466411 
L 121.695447 173.466411 
z
" clip-path="url(#pd44b8f845b)" style="fill: #dc2626; stroke: #ffffff; stroke-width: 1.5; stroke-linejoin: miter"/>
   </g>
   <g id="patch_7">
    <path d="M 121.695447 161.714464 
L 148.002324 161.714464 
L 148.002324 152.099236 
L 121.695447 152.099236 
z
" clip-path="url(#pd44b8f845b)" style="fill: #ef4444; stroke: #ffffff; stroke-width: 1.5; stroke-linejoin: miter"/>
   </g>
   <g id="patch_8">
    <path d="M 121.695447 140.347289 
L 197.597256 140.347289 
L 197.597256 130.73206 
L 121.695447 130.73206 
z
" clip-path="url(#pd44b8f845b)" style="fill: #ef4444; stroke: #ffffff; stroke-width: 1.5; stroke-linejoin: miter"/>
   </g>
   <g id="patch_9">
    <path d="M 121.695447 118.980114 
L 111.776461 118.980114 
L 111.776461 109.364885 
L 121.695447 109.364885 
z
" clip-path="url(#pd44b8f845b)" style="fill: #16a34a; stroke: #ffffff; stroke-width: 1.5; stroke-linejoin: miter"/>
   </g>
   <g id="patch_10">
    <path d="M 121.695447 97.612939 
L 114.364023 97.612939 
L 114.364023 87.99771 
L 121.695447 87.99771 
z
" clip-path="url(#pd44b8f845b)" style="fill: #16a34a; stroke: #ffffff; stroke-width: 1.5; stroke-linejoin: miter"/>
   </g>
   <g id="text_17">
    <!-- +4.67% -->
    <g style="fill: #dc2626" transform="translate(326.544077 244.717699) scale(0.085 -0.085)">
     <defs>
      <path id="NotoSansSC-Thin-2b" d="M 1549 787 
L 1549 2221 
L 237 2221 
L 237 2426 
L 1549 2426 
L 1549 3866 
L 1786 3866 
L 1786 2426 
L 3098 2426 
L 3098 2221 
L 1786 2221 
L 1786 787 
L 1549 787 
z
" transform="scale(0.015625)"/>
      <path id="NotoSansSC-Thin-2e" d="M 736 -83 
Q 640 -83 560 -9 
Q 480 64 480 192 
Q 480 333 560 406 
Q 640 480 736 480 
Q 838 480 918 406 
Q 998 333 998 192 
Q 998 64 918 -9 
Q 838 -83 736 -83 
z
" transform="scale(0.015625)"/>
      <path id="NotoSansSC-Thin-36" d="M 1837 -83 
Q 1498 -83 1232 67 
Q 966 218 780 509 
Q 595 800 496 1216 
Q 397 1632 397 2170 
Q 397 2886 528 3379 
Q 659 3872 889 4169 
Q 1120 4467 1414 4598 
Q 1709 4730 2029 4730 
Q 2330 4730 2550 4614 
Q 2771 4499 2944 4307 
L 2790 4147 
Q 2643 4333 2444 4425 
Q 2246 4518 2022 4518 
Q 1651 4518 1334 4297 
Q 1018 4077 826 3561 
Q 634 3046 634 2170 
Q 634 1581 762 1120 
Q 890 659 1158 393 
Q 1427 128 1850 128 
Q 2125 128 2336 297 
Q 2547 467 2672 752 
Q 2797 1037 2797 1382 
Q 2797 1741 2694 2025 
Q 2592 2310 2368 2476 
Q 2144 2643 1779 2643 
Q 1523 2643 1209 2470 
Q 896 2298 602 1888 
L 602 2176 
Q 768 2381 957 2531 
Q 1146 2682 1360 2762 
Q 1574 2842 1792 2842 
Q 2189 2842 2467 2675 
Q 2746 2509 2893 2185 
Q 3040 1862 3040 1382 
Q 3040 960 2873 630 
Q 2707 301 2435 109 
Q 2163 -83 1837 -83 
z
" transform="scale(0.015625)"/>
      <path id="NotoSansSC-Thin-37" d="M 1344 0 
Q 1376 717 1462 1318 
Q 1549 1920 1712 2445 
Q 1875 2970 2124 3459 
Q 2374 3949 2726 4435 
L 307 4435 
L 307 4646 
L 3034 4646 
L 3034 4512 
Q 2624 3955 2355 3436 
Q 2086 2918 1932 2384 
Q 1779 1850 1705 1267 
Q 1632 685 1606 0 
L 1344 0 
z
" transform="scale(0.015625)"/>
     </defs>
     <use xlink:href="#NotoSansSC-Thin-2b"/>
     <use xlink:href="#NotoSansSC-Thin-34" transform="translate(52.099991 0)"/>
     <use xlink:href="#NotoSansSC-Thin-2e" transform="translate(104.199982 0)"/>
     <use xlink:href="#NotoSansSC-Thin-36" transform="translate(127.299973 0)"/>
     <use xlink:href="#NotoSansSC-Thin-37" transform="translate(179.399963 0)"/>
     <use xlink:href="#NotoSansSC-Thin-25" transform="translate(231.499954 0)"/>
    </g>
   </g>
   <g id="text_18">
    <!-- +2.20% -->
    <g style="fill: #dc2626" transform="translate(220.02279 223.350524) scale(0.085 -0.085)">
     <use xlink:href="#NotoSansSC-Thin-2b"/>
     <use xlink:href="#NotoSansSC-Thin-32" transform="translate(52.099991 0)"/>
     <use xlink:href="#NotoSansSC-Thin-2e" transform="translate(104.199982 0)"/>
     <use xlink:href="#NotoSansSC-Thin-32" transform="translate(127.299973 0)"/>
     <use xlink:href="#NotoSansSC-Thin-30" transform="translate(179.399963 0)"/>
     <use xlink:href="#NotoSansSC-Thin-25" transform="translate(231.499954 0)"/>
    </g>
   </g>
   <g id="text_19">
    <!-- +1.19% -->
    <g style="fill: #dc2626" transform="translate(176.465502 201.983349) scale(0.085 -0.085)">
     <defs>
      <path id="NotoSansSC-Thin-39" d="M 1370 -83 
Q 1050 -83 819 32 
Q 589 147 410 339 
L 557 506 
Q 723 314 934 221 
Q 1146 128 1389 128 
Q 1651 128 1891 256 
Q 2131 384 2316 675 
Q 2502 966 2611 1443 
Q 2720 1920 2720 2618 
Q 2720 3168 2592 3600 
Q 2464 4032 2195 4278 
Q 1926 4525 1498 4525 
Q 1229 4525 1014 4355 
Q 800 4186 675 3901 
Q 550 3616 550 3264 
Q 550 2912 652 2627 
Q 755 2342 979 2172 
Q 1203 2003 1555 2003 
Q 1830 2003 2137 2182 
Q 2445 2362 2739 2765 
L 2746 2470 
Q 2586 2278 2397 2128 
Q 2208 1978 1993 1891 
Q 1779 1805 1536 1805 
Q 1152 1805 877 1974 
Q 602 2144 454 2470 
Q 307 2797 307 3264 
Q 307 3686 473 4019 
Q 640 4352 912 4541 
Q 1184 4730 1510 4730 
Q 1850 4730 2118 4589 
Q 2387 4448 2572 4176 
Q 2758 3904 2857 3513 
Q 2957 3123 2957 2618 
Q 2957 1862 2825 1344 
Q 2694 826 2470 512 
Q 2246 198 1961 57 
Q 1677 -83 1370 -83 
z
" transform="scale(0.015625)"/>
     </defs>
     <use xlink:href="#NotoSansSC-Thin-2b"/>
     <use xlink:href="#NotoSansSC-Thin-31" transform="translate(52.099991 0)"/>
     <use xlink:href="#NotoSansSC-Thin-2e" transform="translate(104.199982 0)"/>
     <use xlink:href="#NotoSansSC-Thin-31" transform="translate(127.299973 0)"/>
     <use xlink:href="#NotoSansSC-Thin-39" transform="translate(179.399963 0)"/>
     <use xlink:href="#NotoSansSC-Thin-25" transform="translate(231.499954 0)"/>
    </g>
   </g>
   <g id="text_20">
    <!-- +2.01% -->
    <g style="fill: #dc2626" transform="translate(211.828845 180.616173) scale(0.085 -0.085)">
     <use xlink:href="#NotoSansSC-Thin-2b"/>
     <use xlink:href="#NotoSansSC-Thin-32" transform="translate(52.099991 0)"/>
     <use xlink:href="#NotoSansSC-Thin-2e" transform="translate(104.199982 0)"/>
     <use xlink:href="#NotoSansSC-Thin-30" transform="translate(127.299973 0)"/>
     <use xlink:href="#NotoSansSC-Thin-31" transform="translate(179.399963 0)"/>
     <use xlink:href="#NotoSansSC-Thin-25" transform="translate(231.499954 0)"/>
    </g>
   </g>
   <g id="text_21">
    <!-- +0.61% -->
    <g style="fill: #dc2626" transform="translate(151.452406 159.248998) scale(0.085 -0.085)">
     <use xlink:href="#NotoSansSC-Thin-2b"/>
     <use xlink:href="#NotoSansSC-Thin-30" transform="translate(52.099991 0)"/>
     <use xlink:href="#NotoSansSC-Thin-2e" transform="translate(104.199982 0)"/>
     <use xlink:href="#NotoSansSC-Thin-36" transform="translate(127.299973 0)"/>
     <use xlink:href="#NotoSansSC-Thin-31" transform="translate(179.399963 0)"/>
     <use xlink:href="#NotoSansSC-Thin-25" transform="translate(231.499954 0)"/>
    </g>
   </g>
   <g id="text_22">
    <!-- +1.76% -->
    <g style="fill: #dc2626" transform="translate(201.047338 137.881823) scale(0.085 -0.085)">
     <use xlink:href="#NotoSansSC-Thin-2b"/>
     <use xlink:href="#NotoSansSC-Thin-31" transform="translate(52.099991 0)"/>
     <use xlink:href="#NotoSansSC-Thin-2e" transform="translate(104.199982 0)"/>
     <use xlink:href="#NotoSansSC-Thin-37" transform="translate(127.299973 0)"/>
     <use xlink:href="#NotoSansSC-Thin-36" transform="translate(179.399963 0)"/>
     <use xlink:href="#NotoSansSC-Thin-25" transform="translate(231.499954 0)"/>
    </g>
   </g>
   <g id="text_23">
    <!-- -0.23% -->
    <g style="fill: #ffffff" transform="translate(82.844973 116.514648) scale(0.085 -0.085)">
     <use xlink:href="#NotoSansSC-Thin-2d"/>
     <use xlink:href="#NotoSansSC-Thin-30" transform="translate(32.399994 0)"/>
     <use xlink:href="#NotoSansSC-Thin-2e" transform="translate(84.499985 0)"/>
     <use xlink:href="#NotoSansSC-Thin-32" transform="translate(107.599976 0)"/>
     <use xlink:href="#NotoSansSC-Thin-33" transform="translate(159.699966 0)"/>
     <use xlink:href="#NotoSansSC-Thin-25" transform="translate(211.799957 0)"/>
    </g>
   </g>
   <g id="text_24">
    <!-- -0.17% -->
    <g style="fill: #ffffff" transform="translate(85.432534 95.147473) scale(0.085 -0.085)">
     <use xlink:href="#NotoSansSC-Thin-2d"/>
     <use xlink:href="#NotoSansSC-Thin-30" transform="translate(32.399994 0)"/>
     <use xlink:href="#NotoSansSC-Thin-2e" transform="translate(84.499985 0)"/>
     <use xlink:href="#NotoSansSC-Thin-31" transform="translate(107.599976 0)"/>
     <use xlink:href="#NotoSansSC-Thin-37" transform="translate(159.699966 0)"/>
     <use xlink:href="#NotoSansSC-Thin-25" transform="translate(211.799957 0)"/>
    </g>
   </g>
   <g id="text_25">
    <g id="patch_11">
     <path d="M 291.550006 100.826919 
L 365.530006 100.826919 
Q 368.230006 100.826919 368.230006 98.126919 
L 368.230006 88.793637 
Q 368.230006 86.093637 365.530006 86.093637 
L 291.550006 86.093637 
Q 288.850006 86.093637 288.850006 88.793637 
L 288.850006 98.126919 
Q 288.850006 100.826919 291.550006 100.826919 
z
" style="fill: #fef2f2; opacity: 0.9; stroke: #fecaca; stroke-width: 1.5; stroke-linejoin: miter"/>
    </g>
    <!-- 亚太领涨 全球共振 -->
    <g style="fill: #dc2626" transform="translate(291.550006 95.9402) scale(0.09 -0.09)">
     <defs>
      <path id="NotoSansSC-Thin-4e9a" d="M 365 179 
L 6042 179 
L 6042 -13 
L 365 -13 
L 365 179 
z
M 2291 4787 
L 2477 4787 
L 2477 115 
L 2291 115 
L 2291 4787 
z
M 3802 4787 
L 3987 4787 
L 3987 115 
L 3802 115 
L 3802 4787 
z
M 5562 3533 
L 5734 3450 
Q 5574 3130 5372 2771 
Q 5171 2413 4963 2073 
Q 4755 1734 4563 1459 
L 4403 1542 
Q 4595 1811 4809 2160 
Q 5024 2509 5222 2870 
Q 5421 3232 5562 3533 
z
M 627 3501 
L 787 3552 
Q 979 3226 1168 2851 
Q 1357 2477 1513 2131 
Q 1670 1786 1760 1530 
L 1587 1466 
Q 1504 1722 1347 2070 
Q 1190 2419 1001 2796 
Q 813 3174 627 3501 
z
M 499 4902 
L 5920 4902 
L 5920 4710 
L 499 4710 
L 499 4902 
z
" transform="scale(0.015625)"/>
      <path id="NotoSansSC-Thin-592a" d="M 422 3514 
L 5984 3514 
L 5984 3328 
L 422 3328 
L 422 3514 
z
M 2310 1011 
L 2445 1120 
Q 2701 928 2969 691 
Q 3238 454 3472 227 
Q 3706 0 3846 -179 
L 3699 -320 
Q 3558 -134 3328 99 
Q 3098 333 2832 573 
Q 2566 813 2310 1011 
z
M 3411 3437 
Q 3635 2566 4012 1824 
Q 4390 1082 4924 534 
Q 5459 -13 6150 -307 
Q 6125 -326 6096 -355 
Q 6067 -384 6044 -413 
Q 6022 -442 6003 -474 
Q 5312 -154 4771 412 
Q 4230 979 3846 1734 
Q 3462 2490 3232 3386 
L 3411 3437 
z
M 3110 5306 
L 3302 5306 
Q 3302 4922 3283 4435 
Q 3264 3949 3187 3405 
Q 3110 2861 2934 2307 
Q 2758 1754 2448 1238 
Q 2138 723 1651 288 
Q 1165 -147 461 -448 
Q 435 -416 393 -374 
Q 352 -333 320 -307 
Q 1018 -19 1498 406 
Q 1978 832 2282 1337 
Q 2586 1843 2755 2387 
Q 2925 2931 3001 3462 
Q 3078 3994 3094 4467 
Q 3110 4941 3110 5306 
z
" transform="scale(0.015625)"/>
      <path id="NotoSansSC-Thin-9886" d="M 3283 4915 
L 6022 4915 
L 6022 4730 
L 3283 4730 
L 3283 4915 
z
M 4627 4845 
L 4819 4781 
Q 4736 4538 4643 4272 
Q 4550 4006 4461 3808 
L 4301 3872 
Q 4384 4070 4480 4352 
Q 4576 4634 4627 4845 
z
M 3469 3930 
L 5792 3930 
L 5792 902 
L 5600 902 
L 5600 3738 
L 3661 3738 
L 3661 902 
L 3469 902 
L 3469 3930 
z
M 4544 3366 
L 4730 3366 
Q 4723 2630 4688 2067 
Q 4653 1504 4553 1091 
Q 4454 678 4256 384 
Q 4058 90 3731 -112 
Q 3405 -314 2912 -461 
Q 2899 -429 2860 -387 
Q 2822 -346 2790 -320 
Q 3277 -186 3593 9 
Q 3910 205 4099 486 
Q 4288 768 4381 1165 
Q 4474 1562 4506 2106 
Q 4538 2650 4544 3366 
z
M 4704 691 
L 4826 800 
Q 5062 634 5315 435 
Q 5568 237 5789 48 
Q 6010 -141 6150 -288 
L 6035 -422 
Q 5888 -269 5667 -73 
Q 5446 122 5193 323 
Q 4941 525 4704 691 
z
M 1760 5312 
L 1946 5274 
Q 1709 4685 1331 4093 
Q 954 3501 461 3046 
Q 442 3059 413 3078 
Q 384 3098 358 3114 
Q 333 3130 307 3142 
Q 634 3430 912 3792 
Q 1190 4154 1408 4547 
Q 1626 4941 1760 5312 
z
M 826 1011 
L 954 1107 
Q 1210 902 1478 659 
Q 1747 416 1977 179 
Q 2208 -58 2349 -243 
L 2208 -365 
Q 2067 -179 1836 64 
Q 1606 307 1344 556 
Q 1082 806 826 1011 
z
M 634 2330 
L 2643 2330 
L 2643 2138 
L 634 2138 
L 634 2330 
z
M 1382 3578 
L 1530 3661 
Q 1715 3482 1884 3270 
Q 2054 3059 2138 2906 
L 1978 2803 
Q 1888 2970 1718 3187 
Q 1549 3405 1382 3578 
z
M 2579 2330 
L 2618 2330 
L 2656 2342 
L 2778 2266 
Q 2643 1952 2438 1587 
Q 2234 1222 2019 899 
Q 1805 576 1638 365 
Q 1613 397 1568 435 
Q 1523 474 1491 499 
Q 1613 640 1763 857 
Q 1914 1075 2070 1328 
Q 2227 1581 2361 1827 
Q 2496 2074 2579 2272 
L 2579 2330 
z
M 1619 4813 
L 1741 4928 
Q 1997 4691 2256 4406 
Q 2515 4122 2736 3856 
Q 2957 3590 3085 3386 
L 2963 3238 
Q 2829 3450 2608 3725 
Q 2387 4000 2128 4285 
Q 1869 4570 1619 4813 
z
" transform="scale(0.015625)"/>
      <path id="NotoSansSC-Thin-5168" d="M 1267 1466 
L 5229 1466 
L 5229 1274 
L 1267 1274 
L 1267 1466 
z
M 1274 2912 
L 5178 2912 
L 5178 2720 
L 1274 2720 
L 1274 2912 
z
M 486 -64 
L 5933 -64 
L 5933 -250 
L 486 -250 
L 486 -64 
z
M 3104 2854 
L 3296 2854 
L 3296 -166 
L 3104 -166 
L 3104 2854 
z
M 3245 5395 
L 3405 5318 
Q 3072 4794 2589 4278 
Q 2106 3763 1539 3328 
Q 973 2893 378 2592 
Q 352 2624 310 2665 
Q 269 2707 230 2733 
Q 826 3027 1395 3452 
Q 1965 3878 2445 4380 
Q 2925 4883 3245 5395 
z
M 3264 5222 
Q 3878 4435 4630 3830 
Q 5382 3226 6189 2720 
Q 6157 2701 6112 2656 
Q 6067 2611 6042 2573 
Q 5504 2925 4992 3312 
Q 4480 3699 4009 4150 
Q 3539 4602 3104 5139 
L 3264 5222 
z
" transform="scale(0.015625)"/>
      <path id="NotoSansSC-Thin-7403" d="M 2432 4122 
L 6080 4122 
L 6080 3936 
L 2432 3936 
L 2432 4122 
z
M 4096 5312 
L 4288 5312 
L 4288 -109 
Q 4288 -262 4233 -326 
Q 4179 -390 4077 -416 
Q 3974 -442 3756 -448 
Q 3539 -454 3142 -454 
Q 3136 -429 3120 -397 
Q 3104 -365 3091 -329 
Q 3078 -294 3059 -269 
Q 3386 -275 3629 -275 
Q 3872 -275 3949 -269 
Q 4026 -262 4061 -230 
Q 4096 -198 4096 -115 
L 4096 5312 
z
M 2221 307 
Q 2464 531 2777 832 
Q 3091 1133 3443 1478 
Q 3795 1824 4141 2170 
L 4230 2016 
Q 3744 1523 3248 1030 
Q 2752 538 2362 166 
L 2221 307 
z
M 2586 3334 
L 2739 3411 
Q 2906 3219 3059 2995 
Q 3213 2771 3341 2553 
Q 3469 2336 3533 2163 
L 3360 2074 
Q 3302 2246 3177 2464 
Q 3053 2682 2899 2912 
Q 2746 3142 2586 3334 
z
M 5766 3462 
L 5933 3360 
Q 5766 3104 5555 2816 
Q 5344 2528 5129 2259 
Q 4915 1990 4723 1786 
L 4589 1875 
Q 4774 2080 4992 2358 
Q 5210 2637 5418 2931 
Q 5626 3226 5766 3462 
z
M 4710 5101 
L 4845 5210 
Q 5062 5062 5283 4860 
Q 5504 4659 5613 4506 
L 5485 4371 
Q 5363 4538 5148 4742 
Q 4934 4947 4710 5101 
z
M 4275 3840 
Q 4365 3142 4505 2592 
Q 4646 2042 4864 1603 
Q 5082 1165 5408 806 
Q 5734 448 6182 122 
Q 6150 96 6112 57 
Q 6074 19 6048 -26 
Q 5587 307 5260 681 
Q 4934 1056 4707 1510 
Q 4480 1965 4339 2531 
Q 4198 3098 4109 3814 
L 4275 3840 
z
M 358 4819 
L 2253 4819 
L 2253 4627 
L 358 4627 
L 358 4819 
z
M 422 2957 
L 2144 2957 
L 2144 2765 
L 422 2765 
L 422 2957 
z
M 294 486 
Q 550 563 880 665 
Q 1210 768 1587 889 
Q 1965 1011 2349 1133 
L 2374 941 
Q 1830 768 1299 595 
Q 768 422 358 288 
L 294 486 
z
M 1222 4704 
L 1414 4704 
L 1414 704 
L 1222 640 
L 1222 4704 
z
" transform="scale(0.015625)"/>
      <path id="NotoSansSC-Thin-5171" d="M 1926 5248 
L 2112 5248 
L 2112 1754 
L 1926 1754 
L 1926 5248 
z
M 4294 5248 
L 4480 5248 
L 4480 1754 
L 4294 1754 
L 4294 5248 
z
M 333 1843 
L 6099 1843 
L 6099 1658 
L 333 1658 
L 333 1843 
z
M 634 3840 
L 5837 3840 
L 5837 3654 
L 634 3654 
L 634 3840 
z
M 3872 1043 
L 4006 1152 
Q 4326 928 4678 662 
Q 5030 397 5347 141 
Q 5664 -115 5869 -307 
L 5722 -448 
Q 5517 -256 5206 6 
Q 4896 269 4547 541 
Q 4198 813 3872 1043 
z
M 2266 1158 
L 2451 1088 
Q 2234 806 1926 521 
Q 1619 237 1276 -16 
Q 934 -269 595 -461 
Q 582 -435 560 -412 
Q 538 -390 515 -364 
Q 493 -339 467 -320 
Q 800 -134 1139 109 
Q 1478 352 1776 624 
Q 2074 896 2266 1158 
z
" transform="scale(0.015625)"/>
      <path id="NotoSansSC-Thin-632f" d="M 2810 4928 
L 5888 4928 
L 5888 4742 
L 2810 4742 
L 2810 4928 
z
M 2816 2752 
L 6010 2752 
L 6010 2566 
L 2816 2566 
L 2816 2752 
z
M 3245 3891 
L 5760 3891 
L 5760 3699 
L 3245 3699 
L 3245 3891 
z
M 2707 4928 
L 2893 4928 
L 2893 3034 
Q 2893 2656 2873 2211 
Q 2854 1766 2793 1302 
Q 2733 838 2614 390 
Q 2496 -58 2298 -442 
Q 2285 -422 2253 -403 
Q 2221 -384 2192 -365 
Q 2163 -346 2138 -333 
Q 2330 45 2445 477 
Q 2560 909 2617 1357 
Q 2675 1805 2691 2233 
Q 2707 2662 2707 3034 
L 2707 4928 
z
M 4499 2688 
Q 4621 2061 4841 1504 
Q 5062 947 5379 528 
Q 5696 109 6112 -122 
Q 6086 -141 6060 -166 
Q 6035 -192 6012 -221 
Q 5990 -250 5971 -275 
Q 5555 -19 5235 416 
Q 4915 851 4691 1424 
Q 4467 1997 4333 2650 
L 4499 2688 
z
M 5734 2234 
L 5869 2118 
Q 5658 1882 5382 1651 
Q 5107 1421 4870 1254 
L 4749 1370 
Q 4902 1485 5084 1635 
Q 5267 1786 5440 1942 
Q 5613 2099 5734 2234 
z
M 3475 -448 
L 3475 -262 
L 3597 -128 
L 4787 397 
Q 4794 358 4810 310 
Q 4826 262 4832 230 
Q 4403 32 4147 -89 
Q 3891 -211 3756 -278 
Q 3622 -346 3564 -381 
Q 3507 -416 3475 -448 
z
M 3475 -448 
Q 3462 -422 3440 -390 
Q 3418 -358 3398 -323 
Q 3379 -288 3360 -269 
Q 3405 -237 3465 -144 
Q 3526 -51 3526 141 
L 3526 2662 
L 3712 2662 
L 3712 -154 
Q 3712 -154 3677 -186 
Q 3642 -218 3594 -266 
Q 3546 -314 3510 -365 
Q 3475 -416 3475 -448 
z
M 314 1779 
Q 672 1888 1168 2054 
Q 1664 2221 2195 2400 
L 2221 2208 
Q 1734 2048 1248 1881 
Q 762 1715 384 1587 
L 314 1779 
z
M 410 3949 
L 2163 3949 
L 2163 3757 
L 410 3757 
L 410 3949 
z
M 1229 5312 
L 1421 5312 
L 1421 -166 
Q 1421 -282 1382 -336 
Q 1344 -390 1267 -416 
Q 1190 -442 1049 -445 
Q 909 -448 672 -448 
Q 666 -416 643 -361 
Q 621 -307 595 -269 
Q 787 -275 937 -275 
Q 1088 -275 1139 -269 
Q 1190 -269 1209 -249 
Q 1229 -230 1229 -166 
L 1229 5312 
z
" transform="scale(0.015625)"/>
     </defs>
     <use xlink:href="#NotoSansSC-Thin-4e9a"/>
     <use xlink:href="#NotoSansSC-Thin-592a" transform="translate(99.999985 0)"/>
     <use xlink:href="#NotoSansSC-Thin-9886" transform="translate(199.999969 0)"/>
     <use xlink:href="#NotoSansSC-Thin-6da8" transform="translate(299.999954 0)"/>
     <use xlink:href="#NotoSansSC-Thin-20" transform="translate(399.999939 0)"/>
     <use xlink:href="#NotoSansSC-Thin-5168" transform="translate(421.999924 0)"/>
     <use xlink:href="#NotoSansSC-Thin-7403" transform="translate(521.999908 0)"/>
     <use xlink:href="#NotoSansSC-Thin-5171" transform="translate(621.999893 0)"/>
     <use xlink:href="#NotoSansSC-Thin-632f" transform="translate(721.999878 0)"/>
    </g>
   </g>
  </g>
  <g id="text_26">
   <!-- 全球主要指数 隔夜表现 -->
   <g style="fill: #1e293b" transform="translate(57.006406 21.916875) scale(0.14 -0.14)">
    <defs>
     <path id="NotoSansSC-Thin-4e3b" d="M 710 3968 
L 5709 3968 
L 5709 3776 
L 710 3776 
L 710 3968 
z
M 960 2074 
L 5485 2074 
L 5485 1882 
L 960 1882 
L 960 2074 
z
M 390 -32 
L 6042 -32 
L 6042 -218 
L 390 -218 
L 390 -32 
z
M 3098 3866 
L 3290 3866 
L 3290 -115 
L 3098 -115 
L 3098 3866 
z
M 2573 5165 
L 2720 5254 
Q 2931 5094 3148 4899 
Q 3366 4704 3552 4512 
Q 3738 4320 3853 4166 
L 3699 4058 
Q 3590 4211 3404 4406 
Q 3219 4602 3001 4803 
Q 2784 5005 2573 5165 
z
" transform="scale(0.015625)"/>
     <path id="NotoSansSC-Thin-8981" d="M 403 1792 
L 5997 1792 
L 5997 1606 
L 403 1606 
L 403 1792 
z
M 499 4986 
L 5920 4986 
L 5920 4800 
L 499 4800 
L 499 4986 
z
M 4608 1734 
L 4774 1658 
Q 4576 1184 4211 825 
Q 3846 467 3308 214 
Q 2771 -38 2060 -195 
Q 1350 -352 474 -422 
Q 461 -384 435 -333 
Q 410 -282 378 -243 
Q 1549 -160 2393 73 
Q 3238 307 3785 716 
Q 4333 1126 4608 1734 
z
M 1280 640 
L 1446 787 
Q 2080 685 2701 560 
Q 3322 435 3898 291 
Q 4474 147 4973 -9 
Q 5472 -166 5862 -320 
L 5664 -467 
Q 5171 -262 4483 -64 
Q 3795 134 2979 313 
Q 2163 493 1280 640 
z
M 2310 4928 
L 2496 4928 
L 2496 2643 
L 2310 2643 
L 2310 4928 
z
M 3846 4928 
L 4032 4928 
L 4032 2643 
L 3846 2643 
L 3846 4928 
z
M 1030 3885 
L 1030 2746 
L 5402 2746 
L 5402 3885 
L 1030 3885 
z
M 845 4070 
L 5587 4070 
L 5587 2560 
L 845 2560 
L 845 4070 
z
M 1280 640 
Q 1504 890 1757 1216 
Q 2010 1542 2240 1891 
Q 2470 2240 2630 2547 
L 2810 2496 
Q 2650 2182 2419 1836 
Q 2189 1491 1945 1177 
Q 1702 864 1504 640 
L 1280 640 
z
" transform="scale(0.015625)"/>
     <path id="NotoSansSC-Thin-9694" d="M 576 5050 
L 2010 5050 
L 2010 4864 
L 768 4864 
L 768 -435 
L 576 -435 
L 576 5050 
z
M 1958 5050 
L 1997 5050 
L 2035 5062 
L 2157 4973 
Q 2003 4595 1817 4160 
Q 1632 3725 1446 3328 
Q 1850 2906 1984 2547 
Q 2118 2189 2118 1869 
Q 2118 1664 2070 1481 
Q 2022 1299 1901 1216 
Q 1843 1171 1766 1152 
Q 1690 1133 1600 1120 
Q 1498 1114 1379 1114 
Q 1261 1114 1158 1120 
Q 1152 1152 1133 1206 
Q 1114 1261 1082 1306 
Q 1216 1299 1337 1296 
Q 1459 1293 1549 1299 
Q 1690 1312 1779 1363 
Q 1869 1427 1901 1571 
Q 1933 1715 1933 1869 
Q 1933 2170 1789 2522 
Q 1645 2874 1222 3302 
Q 1331 3526 1433 3753 
Q 1536 3981 1632 4201 
Q 1728 4422 1811 4627 
Q 1894 4832 1958 5005 
L 1958 5050 
z
M 4160 1242 
L 4346 1242 
L 4346 -314 
L 4160 -314 
L 4160 1242 
z
M 3098 4115 
L 3098 3283 
L 5478 3283 
L 5478 4115 
L 3098 4115 
z
M 2912 4301 
L 5664 4301 
L 5664 3091 
L 2912 3091 
L 2912 4301 
z
M 2528 4979 
L 6061 4979 
L 6061 4794 
L 2528 4794 
L 2528 4979 
z
M 3130 1293 
L 5453 1293 
L 5453 1107 
L 3130 1107 
L 3130 1293 
z
M 2586 2605 
L 5843 2605 
L 5843 2413 
L 2771 2413 
L 2771 -448 
L 2586 -448 
L 2586 2605 
z
M 5773 2605 
L 5958 2605 
L 5958 -166 
Q 5958 -269 5929 -323 
Q 5901 -378 5818 -410 
Q 5734 -435 5571 -438 
Q 5408 -442 5146 -442 
Q 5139 -410 5116 -358 
Q 5094 -307 5069 -262 
Q 5293 -269 5456 -269 
Q 5619 -269 5677 -262 
Q 5773 -262 5773 -173 
L 5773 2605 
z
M 3283 2214 
L 3443 2291 
Q 3616 2093 3789 1849 
Q 3962 1606 4038 1434 
L 3878 1338 
Q 3795 1517 3625 1766 
Q 3456 2016 3283 2214 
z
M 5094 2272 
L 5267 2182 
Q 5120 1926 4934 1648 
Q 4749 1370 4582 1165 
L 4442 1242 
Q 4550 1376 4672 1558 
Q 4794 1741 4906 1933 
Q 5018 2125 5094 2272 
z
" transform="scale(0.015625)"/>
     <path id="NotoSansSC-Thin-591c" d="M 3411 3437 
L 5645 3437 
L 5645 3251 
L 3322 3251 
L 3411 3437 
z
M 2982 2688 
Q 3270 1997 3747 1401 
Q 4224 806 4841 364 
Q 5459 -77 6170 -307 
Q 6144 -326 6118 -355 
Q 6093 -384 6070 -413 
Q 6048 -442 6029 -467 
Q 5325 -218 4704 236 
Q 4083 691 3600 1302 
Q 3117 1914 2816 2624 
L 2982 2688 
z
M 3590 2797 
L 3731 2906 
Q 3974 2720 4224 2477 
Q 4474 2234 4614 2054 
L 4461 1920 
Q 4333 2106 4083 2352 
Q 3834 2598 3590 2797 
z
M 422 4525 
L 5984 4525 
L 5984 4333 
L 422 4333 
L 422 4525 
z
M 1984 4275 
L 2163 4224 
Q 1952 3718 1670 3248 
Q 1389 2778 1062 2371 
Q 736 1965 384 1651 
Q 371 1670 342 1692 
Q 314 1715 282 1740 
Q 250 1766 224 1779 
Q 582 2080 908 2477 
Q 1235 2874 1510 3331 
Q 1786 3789 1984 4275 
z
M 3712 4269 
L 3904 4211 
Q 3718 3757 3440 3289 
Q 3162 2822 2819 2396 
Q 2477 1971 2080 1638 
Q 2067 1658 2041 1683 
Q 2016 1709 1990 1734 
Q 1965 1760 1939 1773 
Q 2330 2093 2672 2505 
Q 3014 2918 3280 3372 
Q 3546 3827 3712 4269 
z
M 5568 3437 
L 5613 3437 
L 5658 3450 
L 5766 3386 
Q 5542 2592 5161 1971 
Q 4781 1350 4285 889 
Q 3789 429 3206 99 
Q 2624 -230 1997 -442 
Q 1984 -416 1961 -390 
Q 1939 -365 1916 -336 
Q 1894 -307 1869 -294 
Q 2701 -26 3443 454 
Q 4186 934 4739 1660 
Q 5293 2387 5568 3392 
L 5568 3437 
z
M 1331 2950 
L 1523 3142 
L 1517 3136 
L 1517 -442 
L 1331 -442 
L 1331 2950 
z
M 2867 5280 
L 3040 5338 
Q 3168 5171 3296 4956 
Q 3424 4742 3488 4595 
L 3322 4518 
Q 3258 4672 3130 4886 
Q 3002 5101 2867 5280 
z
" transform="scale(0.015625)"/>
     <path id="NotoSansSC-Thin-8868" d="M 710 4640 
L 5741 4640 
L 5741 4454 
L 710 4454 
L 710 4640 
z
M 1043 3712 
L 5421 3712 
L 5421 3526 
L 1043 3526 
L 1043 3712 
z
M 474 2739 
L 5920 2739 
L 5920 2554 
L 474 2554 
L 474 2739 
z
M 3091 5318 
L 3283 5318 
L 3283 2579 
L 3091 2579 
L 3091 5318 
z
M 2995 2694 
L 3149 2605 
Q 2918 2336 2598 2080 
Q 2278 1824 1913 1593 
Q 1549 1363 1174 1177 
Q 800 992 461 870 
Q 448 896 422 925 
Q 397 954 374 982 
Q 352 1011 326 1030 
Q 672 1146 1046 1322 
Q 1421 1498 1782 1718 
Q 2144 1939 2457 2188 
Q 2771 2438 2995 2694 
z
M 3334 2694 
Q 3565 2042 3968 1501 
Q 4371 960 4915 573 
Q 5459 186 6118 -13 
Q 6099 -32 6073 -61 
Q 6048 -90 6025 -115 
Q 6003 -141 5984 -173 
Q 5325 45 4777 445 
Q 4230 845 3820 1401 
Q 3411 1958 3162 2637 
L 3334 2694 
z
M 5517 2182 
L 5670 2093 
Q 5376 1811 5001 1516 
Q 4627 1222 4301 1005 
L 4166 1107 
Q 4384 1248 4633 1437 
Q 4883 1626 5116 1821 
Q 5350 2016 5517 2182 
z
M 1722 -442 
L 1722 -275 
L 1856 -147 
L 3718 454 
Q 3718 416 3728 371 
Q 3738 326 3744 294 
Q 3091 70 2704 -64 
Q 2317 -198 2118 -268 
Q 1920 -339 1840 -374 
Q 1760 -410 1722 -442 
z
M 1722 -442 
Q 1715 -416 1696 -381 
Q 1677 -346 1657 -310 
Q 1638 -275 1619 -250 
Q 1670 -224 1731 -157 
Q 1792 -90 1792 83 
L 1792 1702 
L 1984 1702 
L 1984 -211 
Q 1984 -211 1958 -227 
Q 1933 -243 1894 -268 
Q 1856 -294 1814 -326 
Q 1773 -358 1747 -387 
Q 1722 -416 1722 -442 
z
" transform="scale(0.015625)"/>
     <path id="NotoSansSC-Thin-73b0" d="M 442 4819 
L 2419 4819 
L 2419 4627 
L 442 4627 
L 442 4819 
z
M 538 2957 
L 2291 2957 
L 2291 2765 
L 538 2765 
L 538 2957 
z
M 403 486 
Q 666 563 1002 668 
Q 1338 774 1722 899 
Q 2106 1024 2496 1152 
L 2522 960 
Q 1978 781 1430 605 
Q 883 429 467 288 
L 403 486 
z
M 1370 4704 
L 1555 4704 
L 1555 755 
L 1370 691 
L 1370 4704 
z
M 2797 4979 
L 5427 4979 
L 5427 1581 
L 5242 1581 
L 5242 4794 
L 2989 4794 
L 2989 1581 
L 2797 1581 
L 2797 4979 
z
M 4269 1773 
L 4454 1773 
L 4454 160 
Q 4454 19 4512 -25 
Q 4570 -70 4736 -70 
L 5466 -70 
Q 5606 -70 5673 13 
Q 5741 96 5769 345 
Q 5798 595 5818 1088 
Q 5862 1050 5910 1027 
Q 5958 1005 6003 992 
Q 5978 486 5939 217 
Q 5901 -51 5795 -147 
Q 5690 -243 5459 -243 
L 4755 -243 
Q 4486 -243 4377 -163 
Q 4269 -83 4269 154 
L 4269 1773 
z
M 3981 4096 
L 4166 4096 
L 4166 2637 
Q 4166 2246 4099 1827 
Q 4032 1408 3837 998 
Q 3642 589 3267 214 
Q 2893 -160 2278 -474 
Q 2272 -448 2249 -422 
Q 2227 -397 2204 -368 
Q 2182 -339 2157 -326 
Q 2752 -19 3117 339 
Q 3482 698 3667 1085 
Q 3853 1472 3917 1869 
Q 3981 2266 3981 2643 
L 3981 4096 
z
" transform="scale(0.015625)"/>
    </defs>
    <use xlink:href="#NotoSansSC-Thin-5168"/>
    <use xlink:href="#NotoSansSC-Thin-7403" transform="translate(99.999985 0)"/>
    <use xlink:href="#NotoSansSC-Thin-4e3b" transform="translate(199.999969 0)"/>
    <use xlink:href="#NotoSansSC-Thin-8981" transform="translate(299.999954 0)"/>
    <use xlink:href="#NotoSansSC-Thin-6307" transform="translate(399.999939 0)"/>
    <use xlink:href="#NotoSansSC-Thin-6570" transform="translate(499.999924 0)"/>
    <use xlink:href="#NotoSansSC-Thin-20" transform="translate(599.999908 0)"/>
    <use xlink:href="#NotoSansSC-Thin-9694" transform="translate(621.999893 0)"/>
    <use xlink:href="#NotoSansSC-Thin-591c" transform="translate(721.999878 0)"/>
    <use xlink:href="#NotoSansSC-Thin-8868" transform="translate(821.999863 0)"/>
    <use xlink:href="#NotoSansSC-Thin-73b0" transform="translate(921.999847 0)"/>
   </g>
  </g>
  <g id="text_27">
   <!-- 2026年5月27日 · 亚太领涨 · 红涨绿跌 -->
   <g style="fill: #64748b" transform="translate(57.006406 43.409) scale(0.09 -0.09)">
    <defs>
     <path id="NotoSansSC-Thin-5e74" d="M 1958 5338 
L 2144 5286 
Q 1958 4819 1712 4384 
Q 1466 3949 1178 3577 
Q 890 3206 576 2918 
Q 557 2931 528 2953 
Q 499 2976 467 2998 
Q 435 3021 403 3034 
Q 730 3315 1018 3676 
Q 1306 4038 1546 4464 
Q 1786 4890 1958 5338 
z
M 1626 4474 
L 5811 4474 
L 5811 4288 
L 1530 4288 
L 1626 4474 
z
M 1453 3085 
L 5670 3085 
L 5670 2899 
L 1638 2899 
L 1638 1216 
L 1453 1216 
L 1453 3085 
z
M 352 1318 
L 6061 1318 
L 6061 1133 
L 352 1133 
L 352 1318 
z
M 3405 4371 
L 3597 4371 
L 3597 -454 
L 3405 -454 
L 3405 4371 
z
" transform="scale(0.015625)"/>
     <path id="NotoSansSC-Thin-6708" d="M 1523 4941 
L 4998 4941 
L 4998 4755 
L 1523 4755 
L 1523 4941 
z
M 1517 3386 
L 5024 3386 
L 5024 3200 
L 1517 3200 
L 1517 3386 
z
M 1446 1811 
L 5005 1811 
L 5005 1626 
L 1446 1626 
L 1446 1811 
z
M 1453 4941 
L 1638 4941 
L 1638 3110 
Q 1638 2694 1596 2230 
Q 1555 1766 1427 1289 
Q 1299 813 1046 365 
Q 794 -83 371 -461 
Q 358 -435 336 -409 
Q 314 -384 288 -358 
Q 262 -333 237 -320 
Q 646 51 889 480 
Q 1133 909 1254 1360 
Q 1376 1811 1414 2259 
Q 1453 2707 1453 3110 
L 1453 4941 
z
M 4934 4941 
L 5126 4941 
L 5126 -6 
Q 5126 -179 5065 -259 
Q 5005 -339 4864 -371 
Q 4723 -397 4409 -403 
Q 4096 -410 3565 -410 
Q 3558 -378 3542 -342 
Q 3526 -307 3510 -272 
Q 3494 -237 3475 -205 
Q 3782 -211 4041 -211 
Q 4301 -211 4483 -208 
Q 4666 -205 4736 -205 
Q 4851 -198 4892 -156 
Q 4934 -115 4934 -6 
L 4934 4941 
z
" transform="scale(0.015625)"/>
     <path id="NotoSansSC-Thin-b7" d="M 3200 2976 
Q 3354 2976 3475 2902 
Q 3597 2829 3670 2707 
Q 3744 2586 3744 2432 
Q 3744 2285 3670 2160 
Q 3597 2035 3475 1961 
Q 3354 1888 3200 1888 
Q 3053 1888 2928 1961 
Q 2803 2035 2729 2160 
Q 2656 2285 2656 2432 
Q 2656 2586 2729 2707 
Q 2803 2829 2928 2902 
Q 3053 2976 3200 2976 
z
" transform="scale(0.015625)"/>
     <path id="NotoSansSC-Thin-7ea2" d="M 422 1267 
Q 416 1293 403 1331 
Q 390 1370 377 1408 
Q 365 1446 352 1472 
Q 442 1485 563 1603 
Q 685 1722 845 1901 
Q 928 1984 1097 2182 
Q 1267 2381 1481 2656 
Q 1696 2931 1920 3248 
Q 2144 3565 2342 3891 
L 2522 3795 
Q 2074 3117 1584 2493 
Q 1094 1869 602 1402 
L 602 1395 
Q 602 1395 576 1385 
Q 550 1376 512 1357 
Q 474 1338 448 1315 
Q 422 1293 422 1267 
z
M 422 1267 
L 422 1440 
L 576 1536 
L 2534 1811 
Q 2528 1779 2531 1724 
Q 2534 1670 2541 1638 
Q 1856 1536 1449 1472 
Q 1043 1408 835 1369 
Q 627 1331 544 1308 
Q 461 1286 422 1267 
z
M 384 2784 
Q 378 2810 365 2851 
Q 352 2893 339 2934 
Q 326 2976 314 3002 
Q 390 3014 486 3126 
Q 582 3238 704 3405 
Q 768 3488 896 3680 
Q 1024 3872 1181 4131 
Q 1338 4390 1501 4688 
Q 1664 4986 1792 5286 
L 1990 5203 
Q 1779 4781 1545 4371 
Q 1312 3962 1065 3594 
Q 819 3226 563 2925 
L 563 2925 
Q 563 2925 537 2912 
Q 512 2899 473 2876 
Q 435 2854 409 2832 
Q 384 2810 384 2784 
z
M 384 2784 
L 384 2957 
L 538 3040 
L 1907 3187 
Q 1901 3142 1904 3091 
Q 1907 3040 1907 3014 
Q 1427 2957 1139 2918 
Q 851 2880 700 2857 
Q 550 2835 483 2819 
Q 416 2803 384 2784 
z
M 320 205 
Q 602 256 966 326 
Q 1331 397 1747 480 
Q 2163 563 2586 646 
L 2598 467 
Q 1990 346 1398 224 
Q 806 102 365 6 
L 320 205 
z
M 2707 4646 
L 5952 4646 
L 5952 4461 
L 2707 4461 
L 2707 4646 
z
M 2643 192 
L 6093 192 
L 6093 0 
L 2643 0 
L 2643 192 
z
M 4256 4595 
L 4448 4595 
L 4448 77 
L 4256 77 
L 4256 4595 
z
" transform="scale(0.015625)"/>
     <path id="NotoSansSC-Thin-7eff" d="M 5818 2477 
L 5971 2368 
Q 5702 2093 5350 1795 
Q 4998 1498 4698 1293 
L 4576 1402 
Q 4768 1542 4998 1728 
Q 5229 1914 5446 2112 
Q 5664 2310 5818 2477 
z
M 2746 2374 
L 2893 2477 
Q 3066 2349 3238 2182 
Q 3411 2016 3555 1856 
Q 3699 1696 3782 1562 
L 3642 1440 
Q 3514 1645 3261 1907 
Q 3008 2170 2746 2374 
z
M 3002 4058 
L 5402 4058 
L 5402 3872 
L 3002 3872 
L 3002 4058 
z
M 2618 3059 
L 6067 3059 
L 6067 2874 
L 2618 2874 
L 2618 3059 
z
M 4224 2899 
L 4410 2899 
L 4410 -141 
Q 4410 -256 4378 -310 
Q 4346 -365 4262 -397 
Q 4179 -416 4009 -422 
Q 3840 -429 3571 -429 
Q 3565 -390 3542 -336 
Q 3520 -282 3494 -237 
Q 3731 -243 3897 -243 
Q 4064 -243 4128 -243 
Q 4224 -237 4224 -147 
L 4224 2899 
z
M 2445 269 
Q 2682 416 2989 614 
Q 3296 813 3635 1040 
Q 3974 1267 4307 1498 
L 4371 1344 
Q 3904 1011 3430 688 
Q 2957 365 2579 109 
L 2445 269 
z
M 4390 1907 
Q 4544 1536 4809 1200 
Q 5075 864 5414 605 
Q 5754 346 6131 211 
Q 6093 186 6054 144 
Q 6016 102 5990 64 
Q 5619 218 5280 490 
Q 4941 762 4675 1114 
Q 4410 1466 4243 1850 
L 4390 1907 
z
M 2835 4992 
L 5408 4992 
L 5408 4806 
L 2835 4806 
L 2835 4992 
z
M 5357 4986 
L 5376 4986 
L 5414 5005 
L 5549 4986 
Q 5542 4717 5529 4355 
Q 5517 3994 5497 3622 
Q 5478 3251 5453 2938 
L 5261 2950 
Q 5280 3181 5296 3456 
Q 5312 3731 5325 4012 
Q 5338 4294 5347 4537 
Q 5357 4781 5357 4947 
L 5357 4986 
z
M 416 1248 
Q 410 1274 397 1315 
Q 384 1357 371 1398 
Q 358 1440 346 1466 
Q 429 1478 541 1600 
Q 653 1722 794 1901 
Q 870 1990 1020 2195 
Q 1171 2400 1360 2678 
Q 1549 2957 1744 3280 
Q 1939 3603 2106 3930 
L 2298 3834 
Q 1914 3155 1475 2512 
Q 1037 1869 595 1389 
L 595 1382 
Q 595 1382 569 1369 
Q 544 1357 505 1337 
Q 467 1318 441 1296 
Q 416 1274 416 1248 
z
M 416 1248 
L 416 1427 
L 557 1523 
L 2150 1837 
Q 2150 1792 2153 1744 
Q 2157 1696 2163 1664 
Q 1606 1549 1273 1475 
Q 941 1402 768 1360 
Q 595 1318 524 1292 
Q 454 1267 416 1248 
z
M 378 2765 
Q 371 2790 358 2832 
Q 346 2874 333 2918 
Q 320 2963 301 2989 
Q 378 3002 464 3117 
Q 550 3232 653 3398 
Q 710 3488 819 3680 
Q 928 3872 1065 4134 
Q 1203 4397 1337 4697 
Q 1472 4998 1581 5299 
L 1786 5216 
Q 1613 4794 1414 4378 
Q 1216 3962 998 3587 
Q 781 3213 557 2912 
L 557 2906 
Q 557 2906 531 2893 
Q 506 2880 467 2857 
Q 429 2835 403 2812 
Q 378 2790 378 2765 
z
M 378 2765 
L 378 2944 
L 525 3034 
L 1722 3181 
Q 1715 3142 1718 3091 
Q 1722 3040 1728 3008 
Q 1306 2944 1053 2905 
Q 800 2867 665 2841 
Q 531 2816 470 2800 
Q 410 2784 378 2765 
z
M 314 243 
Q 672 320 1165 441 
Q 1658 563 2189 685 
L 2208 506 
Q 1702 384 1219 265 
Q 736 147 358 51 
L 314 243 
z
" transform="scale(0.015625)"/>
    </defs>
    <use xlink:href="#NotoSansSC-Thin-32"/>
    <use xlink:href="#NotoSansSC-Thin-30" transform="translate(52.099991 0)"/>
    <use xlink:href="#NotoSansSC-Thin-32" transform="translate(104.199982 0)"/>
    <use xlink:href="#NotoSansSC-Thin-36" transform="translate(156.299973 0)"/>
    <use xlink:href="#NotoSansSC-Thin-5e74" transform="translate(208.399963 0)"/>
    <use xlink:href="#NotoSansSC-Thin-35" transform="translate(308.399948 0)"/>
    <use xlink:href="#NotoSansSC-Thin-6708" transform="translate(360.499939 0)"/>
    <use xlink:href="#NotoSansSC-Thin-32" transform="translate(460.499924 0)"/>
    <use xlink:href="#NotoSansSC-Thin-37" transform="translate(512.599915 0)"/>
    <use xlink:href="#NotoSansSC-Thin-65e5" transform="translate(564.699905 0)"/>
    <use xlink:href="#NotoSansSC-Thin-20" transform="translate(664.69989 0)"/>
    <use xlink:href="#NotoSansSC-Thin-b7" transform="translate(686.699875 0)"/>
    <use xlink:href="#NotoSansSC-Thin-20" transform="translate(786.69986 0)"/>
    <use xlink:href="#NotoSansSC-Thin-4e9a" transform="translate(808.699844 0)"/>
    <use xlink:href="#NotoSansSC-Thin-592a" transform="translate(908.699829 0)"/>
    <use xlink:href="#NotoSansSC-Thin-9886" transform="translate(1008.699814 0)"/>
    <use xlink:href="#NotoSansSC-Thin-6da8" transform="translate(1108.699799 0)"/>
    <use xlink:href="#NotoSansSC-Thin-20" transform="translate(1208.699783 0)"/>
    <use xlink:href="#NotoSansSC-Thin-b7" transform="translate(1230.699768 0)"/>
    <use xlink:href="#NotoSansSC-Thin-20" transform="translate(1330.699753 0)"/>
    <use xlink:href="#NotoSansSC-Thin-7ea2" transform="translate(1352.699738 0)"/>
    <use xlink:href="#NotoSansSC-Thin-6da8" transform="translate(1452.699722 0)"/>
    <use xlink:href="#NotoSansSC-Thin-7eff" transform="translate(1552.699707 0)"/>
    <use xlink:href="#NotoSansSC-Thin-8dcc" transform="translate(1652.699692 0)"/>
   </g>
  </g>
  <g id="text_28">
   <!-- 来源: 各国交易所 / Bloomberg · 2026-05-27 -->
   <g style="fill: #94a3b8" transform="translate(57.006406 268.519734) scale(0.065 -0.065)">
    <defs>
     <path id="NotoSansSC-Thin-6765" d="M 397 2432 
L 6016 2432 
L 6016 2246 
L 397 2246 
L 397 2432 
z
M 704 4467 
L 5734 4467 
L 5734 4282 
L 704 4282 
L 704 4467 
z
M 3091 5306 
L 3283 5306 
L 3283 -448 
L 3091 -448 
L 3091 5306 
z
M 4979 4026 
L 5171 3949 
Q 5062 3725 4928 3475 
Q 4794 3226 4656 2995 
Q 4518 2765 4390 2586 
L 4237 2656 
Q 4365 2835 4502 3078 
Q 4640 3322 4768 3574 
Q 4896 3827 4979 4026 
z
M 1312 3923 
L 1478 3981 
Q 1619 3782 1753 3548 
Q 1888 3315 1993 3094 
Q 2099 2874 2144 2701 
L 1971 2624 
Q 1920 2797 1817 3024 
Q 1715 3251 1584 3488 
Q 1453 3725 1312 3923 
z
M 2963 2374 
L 3123 2298 
Q 2893 1926 2579 1571 
Q 2266 1216 1901 896 
Q 1536 576 1161 317 
Q 787 58 429 -115 
Q 416 -90 390 -64 
Q 365 -38 339 -12 
Q 314 13 288 32 
Q 646 192 1024 445 
Q 1402 698 1763 1011 
Q 2125 1325 2435 1673 
Q 2746 2022 2963 2374 
z
M 3411 2381 
Q 3635 2029 3952 1677 
Q 4269 1325 4637 1005 
Q 5005 685 5389 432 
Q 5773 179 6138 13 
Q 6118 -6 6092 -35 
Q 6067 -64 6041 -89 
Q 6016 -115 5997 -141 
Q 5638 32 5254 297 
Q 4870 563 4499 889 
Q 4128 1216 3808 1577 
Q 3488 1939 3258 2304 
L 3411 2381 
z
" transform="scale(0.015625)"/>
     <path id="NotoSansSC-Thin-6e90" d="M 2304 5024 
L 6035 5024 
L 6035 4838 
L 2304 4838 
L 2304 5024 
z
M 2214 5024 
L 2406 5024 
L 2406 3283 
Q 2406 2874 2377 2400 
Q 2349 1926 2262 1436 
Q 2176 947 2006 476 
Q 1837 6 1555 -397 
Q 1542 -378 1513 -358 
Q 1485 -339 1456 -320 
Q 1427 -301 1402 -294 
Q 1677 102 1840 560 
Q 2003 1018 2083 1491 
Q 2163 1965 2188 2422 
Q 2214 2880 2214 3283 
L 2214 5024 
z
M 3110 2765 
L 3110 1990 
L 5542 1990 
L 5542 2765 
L 3110 2765 
z
M 3110 3718 
L 3110 2957 
L 5542 2957 
L 5542 3718 
L 3110 3718 
z
M 2925 3910 
L 5728 3910 
L 5728 1798 
L 2925 1798 
L 2925 3910 
z
M 3270 1338 
L 3456 1286 
Q 3341 1050 3193 810 
Q 3046 570 2886 355 
Q 2726 141 2566 -26 
Q 2554 -6 2522 13 
Q 2490 32 2458 57 
Q 2426 83 2400 96 
Q 2650 339 2880 665 
Q 3110 992 3270 1338 
z
M 5075 1293 
L 5242 1363 
Q 5395 1165 5555 937 
Q 5715 710 5856 499 
Q 5997 288 6086 134 
L 5907 38 
Q 5824 198 5683 412 
Q 5542 627 5385 860 
Q 5229 1094 5075 1293 
z
M 4218 4634 
L 4410 4570 
Q 4346 4365 4272 4144 
Q 4198 3923 4128 3770 
L 3981 3827 
Q 4038 3994 4108 4227 
Q 4179 4461 4218 4634 
z
M 4211 1939 
L 4397 1939 
L 4397 -173 
Q 4397 -282 4361 -336 
Q 4326 -390 4237 -416 
Q 4141 -442 3939 -448 
Q 3738 -454 3398 -448 
Q 3392 -416 3373 -368 
Q 3354 -320 3328 -275 
Q 3616 -282 3824 -282 
Q 4032 -282 4096 -282 
Q 4211 -275 4211 -173 
L 4211 1939 
z
M 627 5101 
L 749 5222 
Q 934 5107 1139 4972 
Q 1344 4838 1526 4707 
Q 1709 4576 1830 4480 
L 1715 4326 
Q 1594 4429 1408 4563 
Q 1222 4698 1017 4842 
Q 813 4986 627 5101 
z
M 307 3379 
L 422 3507 
Q 614 3405 822 3280 
Q 1030 3155 1219 3036 
Q 1408 2918 1536 2822 
L 1427 2669 
Q 1299 2765 1110 2889 
Q 922 3014 710 3145 
Q 499 3277 307 3379 
z
M 493 -224 
Q 646 26 832 374 
Q 1018 723 1203 1110 
Q 1389 1498 1542 1843 
L 1690 1728 
Q 1549 1395 1369 1020 
Q 1190 646 1004 288 
Q 819 -70 653 -352 
L 493 -224 
z
" transform="scale(0.015625)"/>
     <path id="NotoSansSC-Thin-3a" d="M 736 2656 
Q 640 2656 560 2726 
Q 480 2797 480 2931 
Q 480 3072 560 3145 
Q 640 3219 736 3219 
Q 838 3219 918 3145 
Q 998 3072 998 2931 
Q 998 2797 918 2726 
Q 838 2656 736 2656 
z
M 736 -83 
Q 640 -83 560 -9 
Q 480 64 480 192 
Q 480 333 560 406 
Q 640 480 736 480 
Q 838 480 918 406 
Q 998 333 998 192 
Q 998 64 918 -9 
Q 838 -83 736 -83 
z
" transform="scale(0.015625)"/>
     <path id="NotoSansSC-Thin-5404" d="M 1440 51 
L 4915 51 
L 4915 -134 
L 1440 -134 
L 1440 51 
z
M 2464 5350 
L 2650 5286 
Q 2394 4870 2061 4489 
Q 1728 4109 1353 3789 
Q 979 3469 595 3226 
Q 582 3245 553 3267 
Q 525 3290 493 3315 
Q 461 3341 435 3354 
Q 832 3590 1206 3904 
Q 1581 4218 1907 4586 
Q 2234 4954 2464 5350 
z
M 4813 4589 
L 4858 4589 
L 4896 4602 
L 5011 4512 
Q 4659 3968 4115 3504 
Q 3571 3040 2921 2672 
Q 2272 2304 1597 2038 
Q 922 1773 314 1619 
Q 307 1651 291 1683 
Q 275 1715 256 1747 
Q 237 1779 218 1792 
Q 698 1901 1222 2086 
Q 1747 2272 2272 2528 
Q 2797 2784 3277 3097 
Q 3757 3411 4153 3776 
Q 4550 4141 4813 4550 
L 4813 4589 
z
M 1798 4365 
Q 2131 3923 2608 3520 
Q 3085 3117 3657 2781 
Q 4230 2445 4857 2192 
Q 5485 1939 6112 1792 
Q 6093 1773 6067 1744 
Q 6042 1715 6022 1686 
Q 6003 1658 5984 1632 
Q 5363 1792 4739 2051 
Q 4115 2310 3536 2656 
Q 2957 3002 2473 3414 
Q 1990 3827 1645 4288 
L 1798 4365 
z
M 1331 1734 
L 4992 1734 
L 4992 -474 
L 4806 -474 
L 4806 1542 
L 1517 1542 
L 1517 -493 
L 1331 -493 
L 1331 1734 
z
M 1990 4589 
L 4877 4589 
L 4877 4397 
L 1875 4397 
L 1990 4589 
z
" transform="scale(0.015625)"/>
     <path id="NotoSansSC-Thin-4ea4" d="M 4294 2758 
L 4486 2701 
Q 4160 1798 3587 1184 
Q 3014 570 2224 173 
Q 1434 -224 442 -480 
Q 435 -454 412 -419 
Q 390 -384 364 -352 
Q 339 -320 314 -294 
Q 1312 -70 2093 314 
Q 2874 698 3430 1296 
Q 3987 1894 4294 2758 
z
M 2176 3821 
L 2355 3750 
Q 2138 3482 1859 3210 
Q 1581 2938 1283 2698 
Q 986 2458 710 2266 
Q 698 2285 669 2313 
Q 640 2342 614 2374 
Q 589 2406 563 2419 
Q 845 2598 1139 2825 
Q 1434 3053 1706 3309 
Q 1978 3565 2176 3821 
z
M 2125 2720 
Q 2592 1536 3613 787 
Q 4634 38 6118 -218 
Q 6099 -237 6073 -269 
Q 6048 -301 6025 -336 
Q 6003 -371 5984 -403 
Q 4992 -211 4201 192 
Q 3411 595 2844 1212 
Q 2278 1830 1952 2656 
L 2125 2720 
z
M 480 4352 
L 5901 4352 
L 5901 4166 
L 480 4166 
L 480 4352 
z
M 4096 3686 
L 4243 3795 
Q 4550 3590 4867 3337 
Q 5184 3085 5459 2835 
Q 5734 2586 5907 2381 
L 5760 2253 
Q 5594 2464 5322 2717 
Q 5050 2970 4730 3226 
Q 4410 3482 4096 3686 
z
M 2784 5293 
L 2957 5357 
Q 3098 5178 3235 4950 
Q 3373 4723 3437 4570 
L 3264 4486 
Q 3200 4653 3065 4880 
Q 2931 5107 2784 5293 
z
" transform="scale(0.015625)"/>
     <path id="NotoSansSC-Thin-6613" d="M 1446 3757 
L 1446 2880 
L 5075 2880 
L 5075 3757 
L 1446 3757 
z
M 1446 4813 
L 1446 3949 
L 5075 3949 
L 5075 4813 
L 1446 4813 
z
M 1254 4998 
L 5261 4998 
L 5261 2694 
L 1254 2694 
L 1254 4998 
z
M 1574 1984 
L 5504 1984 
L 5504 1792 
L 1574 1792 
L 1574 1984 
z
M 5434 1984 
L 5626 1984 
Q 5626 1984 5622 1961 
Q 5619 1939 5619 1907 
Q 5619 1875 5613 1856 
Q 5562 1114 5504 666 
Q 5446 218 5379 -12 
Q 5312 -243 5216 -339 
Q 5152 -403 5072 -428 
Q 4992 -454 4870 -454 
Q 4755 -461 4537 -454 
Q 4320 -448 4083 -429 
Q 4077 -390 4064 -339 
Q 4051 -288 4019 -243 
Q 4288 -269 4518 -275 
Q 4749 -282 4832 -282 
Q 4922 -282 4973 -272 
Q 5024 -262 5062 -218 
Q 5146 -141 5206 86 
Q 5267 314 5324 762 
Q 5382 1210 5434 1939 
L 5434 1984 
z
M 2150 2758 
L 2342 2701 
Q 2112 2342 1814 2009 
Q 1517 1677 1187 1392 
Q 858 1107 525 890 
Q 512 909 480 934 
Q 448 960 416 985 
Q 384 1011 352 1024 
Q 870 1344 1353 1798 
Q 1837 2253 2150 2758 
z
M 2918 1958 
L 3104 1901 
Q 2867 1446 2544 1036 
Q 2221 627 1853 281 
Q 1485 -64 1094 -333 
Q 1082 -314 1050 -288 
Q 1018 -262 986 -233 
Q 954 -205 928 -192 
Q 1530 186 2054 749 
Q 2579 1312 2918 1958 
z
M 4256 1939 
L 4448 1894 
Q 4192 1158 3789 550 
Q 3386 -58 2893 -474 
Q 2880 -454 2848 -432 
Q 2816 -410 2787 -384 
Q 2758 -358 2733 -346 
Q 3232 58 3625 650 
Q 4019 1242 4256 1939 
z
" transform="scale(0.015625)"/>
     <path id="NotoSansSC-Thin-6240" d="M 3539 3123 
L 6054 3123 
L 6054 2938 
L 3539 2938 
L 3539 3123 
z
M 4954 3046 
L 5146 3046 
L 5146 -448 
L 4954 -448 
L 4954 3046 
z
M 710 4627 
L 896 4627 
L 896 2477 
Q 896 2150 880 1776 
Q 864 1402 816 1014 
Q 768 627 672 256 
Q 576 -115 416 -435 
Q 403 -416 374 -393 
Q 346 -371 317 -348 
Q 288 -326 262 -320 
Q 467 96 563 585 
Q 659 1075 684 1568 
Q 710 2061 710 2477 
L 710 4627 
z
M 5754 5235 
L 5901 5088 
Q 5632 4947 5225 4828 
Q 4819 4710 4371 4617 
Q 3923 4525 3507 4454 
Q 3501 4486 3478 4534 
Q 3456 4582 3437 4614 
Q 3846 4685 4288 4777 
Q 4730 4870 5120 4985 
Q 5510 5101 5754 5235 
z
M 819 3712 
L 2707 3712 
L 2707 2067 
L 819 2067 
L 819 2253 
L 2515 2253 
L 2515 3526 
L 819 3526 
L 819 3712 
z
M 2912 5171 
L 3046 5018 
Q 2797 4877 2413 4768 
Q 2029 4659 1600 4585 
Q 1171 4512 781 4461 
Q 774 4499 755 4544 
Q 736 4589 710 4627 
Q 1094 4678 1516 4755 
Q 1939 4832 2313 4937 
Q 2688 5043 2912 5171 
z
M 3437 4614 
L 3629 4614 
L 3629 2349 
Q 3629 2022 3603 1654 
Q 3578 1286 3501 915 
Q 3424 544 3273 192 
Q 3123 -160 2874 -454 
Q 2861 -435 2835 -412 
Q 2810 -390 2781 -368 
Q 2752 -346 2733 -333 
Q 2970 -45 3110 288 
Q 3251 621 3321 976 
Q 3392 1331 3414 1680 
Q 3437 2029 3437 2349 
L 3437 4614 
z
" transform="scale(0.015625)"/>
     <path id="NotoSansSC-Thin-2f" d="M 58 -1126 
L 2298 5005 
L 2515 5005 
L 282 -1126 
L 58 -1126 
z
" transform="scale(0.015625)"/>
     <path id="NotoSansSC-Thin-42" d="M 704 0 
L 704 4646 
L 1920 4646 
Q 2387 4646 2723 4524 
Q 3059 4403 3244 4153 
Q 3430 3904 3430 3520 
Q 3430 3277 3347 3072 
Q 3264 2867 3104 2723 
Q 2944 2579 2701 2509 
L 2701 2477 
Q 3162 2406 3443 2121 
Q 3725 1837 3725 1350 
Q 3725 909 3513 608 
Q 3302 307 2918 153 
Q 2534 0 2003 0 
L 704 0 
z
M 941 2586 
L 1779 2586 
Q 2541 2586 2864 2832 
Q 3187 3078 3187 3507 
Q 3187 4019 2841 4230 
Q 2496 4442 1824 4442 
L 941 4442 
L 941 2586 
z
M 941 211 
L 1920 211 
Q 2643 211 3065 483 
Q 3488 755 3488 1338 
Q 3488 1869 3075 2121 
Q 2662 2374 1920 2374 
L 941 2374 
L 941 211 
z
" transform="scale(0.015625)"/>
     <path id="NotoSansSC-Thin-6c" d="M 1018 -83 
Q 909 -83 832 -35 
Q 755 13 713 115 
Q 672 218 672 378 
L 672 5082 
L 902 5082 
L 902 339 
Q 902 237 940 182 
Q 979 128 1043 128 
Q 1062 128 1088 131 
Q 1114 134 1165 141 
L 1210 -58 
Q 1165 -64 1126 -73 
Q 1088 -83 1018 -83 
z
" transform="scale(0.015625)"/>
     <path id="NotoSansSC-Thin-6f" d="M 1875 -83 
Q 1472 -83 1129 125 
Q 787 333 582 726 
Q 378 1120 378 1677 
Q 378 2246 582 2643 
Q 787 3040 1129 3248 
Q 1472 3456 1875 3456 
Q 2176 3456 2448 3337 
Q 2720 3219 2928 2992 
Q 3136 2765 3254 2432 
Q 3373 2099 3373 1677 
Q 3373 1120 3165 726 
Q 2957 333 2617 125 
Q 2278 -83 1875 -83 
z
M 1875 128 
Q 2234 128 2518 323 
Q 2803 518 2969 867 
Q 3136 1216 3136 1677 
Q 3136 2144 2969 2496 
Q 2803 2848 2518 3046 
Q 2234 3245 1875 3245 
Q 1517 3245 1232 3046 
Q 947 2848 784 2496 
Q 621 2144 621 1677 
Q 621 1216 784 867 
Q 947 518 1232 323 
Q 1517 128 1875 128 
z
" transform="scale(0.015625)"/>
     <path id="NotoSansSC-Thin-6d" d="M 672 0 
L 672 3373 
L 864 3373 
L 902 2835 
L 915 2835 
Q 1146 3098 1427 3277 
Q 1709 3456 1984 3456 
Q 2400 3456 2614 3264 
Q 2829 3072 2912 2752 
Q 3213 3078 3497 3267 
Q 3782 3456 4070 3456 
Q 4563 3456 4816 3139 
Q 5069 2822 5069 2170 
L 5069 0 
L 4845 0 
L 4845 2138 
Q 4845 2694 4649 2969 
Q 4454 3245 4045 3245 
Q 3795 3245 3539 3078 
Q 3283 2912 2982 2579 
L 2982 0 
L 2758 0 
L 2758 2138 
Q 2758 2694 2566 2969 
Q 2374 3245 1965 3245 
Q 1722 3245 1456 3078 
Q 1190 2912 902 2579 
L 902 0 
L 672 0 
z
" transform="scale(0.015625)"/>
     <path id="NotoSansSC-Thin-62" d="M 1933 -83 
Q 1696 -83 1424 32 
Q 1152 147 915 339 
L 896 339 
L 864 0 
L 672 0 
L 672 5082 
L 902 5082 
L 902 3584 
L 883 2906 
Q 1146 3130 1453 3293 
Q 1760 3456 2074 3456 
Q 2534 3456 2835 3241 
Q 3136 3027 3283 2643 
Q 3430 2259 3430 1734 
Q 3430 1165 3222 755 
Q 3014 346 2675 131 
Q 2336 -83 1933 -83 
z
M 1952 128 
Q 2310 128 2588 333 
Q 2867 538 3027 902 
Q 3187 1267 3187 1734 
Q 3187 2163 3075 2505 
Q 2963 2848 2716 3046 
Q 2470 3245 2054 3245 
Q 1798 3245 1507 3094 
Q 1216 2944 902 2662 
L 902 582 
Q 1190 333 1472 230 
Q 1754 128 1952 128 
z
" transform="scale(0.015625)"/>
     <path id="NotoSansSC-Thin-65" d="M 1920 -83 
Q 1498 -83 1146 128 
Q 794 339 586 732 
Q 378 1126 378 1677 
Q 378 2093 496 2419 
Q 614 2746 822 2979 
Q 1030 3213 1289 3334 
Q 1549 3456 1830 3456 
Q 2221 3456 2505 3277 
Q 2790 3098 2947 2749 
Q 3104 2400 3104 1901 
Q 3104 1850 3104 1795 
Q 3104 1741 3091 1670 
L 621 1670 
Q 621 1229 784 880 
Q 947 531 1241 329 
Q 1536 128 1933 128 
Q 2221 128 2445 211 
Q 2669 294 2861 435 
L 2963 237 
Q 2771 122 2534 19 
Q 2298 -83 1920 -83 
z
M 621 1882 
L 2880 1882 
Q 2880 2566 2592 2905 
Q 2304 3245 1830 3245 
Q 1530 3245 1267 3081 
Q 1005 2918 832 2614 
Q 659 2310 621 1882 
z
" transform="scale(0.015625)"/>
     <path id="NotoSansSC-Thin-72" d="M 672 0 
L 672 3373 
L 864 3373 
L 902 2739 
L 915 2739 
Q 1082 3046 1325 3251 
Q 1568 3456 1869 3456 
Q 1958 3456 2035 3443 
Q 2112 3430 2195 3386 
L 2138 3174 
Q 2054 3206 1996 3219 
Q 1939 3232 1837 3232 
Q 1613 3232 1357 3030 
Q 1101 2829 902 2330 
L 902 0 
L 672 0 
z
" transform="scale(0.015625)"/>
     <path id="NotoSansSC-Thin-67" d="M 1760 -1645 
Q 1331 -1645 1020 -1526 
Q 710 -1408 544 -1197 
Q 378 -986 378 -704 
Q 378 -480 515 -259 
Q 653 -38 890 128 
L 890 154 
Q 762 230 675 364 
Q 589 499 589 691 
Q 589 922 720 1078 
Q 851 1235 960 1312 
L 960 1338 
Q 800 1478 665 1718 
Q 531 1958 531 2266 
Q 531 2611 684 2880 
Q 838 3149 1104 3302 
Q 1370 3456 1690 3456 
Q 1837 3456 1949 3430 
Q 2061 3405 2131 3373 
L 3258 3373 
L 3258 3162 
L 2451 3162 
Q 2630 3014 2739 2784 
Q 2848 2554 2848 2266 
Q 2848 1933 2694 1661 
Q 2541 1389 2278 1229 
Q 2016 1069 1690 1069 
Q 1549 1069 1392 1110 
Q 1235 1152 1120 1222 
Q 1005 1133 915 1008 
Q 826 883 826 710 
Q 826 518 960 380 
Q 1094 243 1485 243 
L 2234 243 
Q 2790 243 3052 60 
Q 3315 -122 3315 -512 
Q 3315 -794 3123 -1056 
Q 2931 -1318 2582 -1481 
Q 2234 -1645 1760 -1645 
z
M 1690 1280 
Q 1939 1280 2147 1405 
Q 2355 1530 2483 1754 
Q 2611 1978 2611 2266 
Q 2611 2566 2486 2787 
Q 2362 3008 2154 3126 
Q 1946 3245 1690 3245 
Q 1440 3245 1232 3126 
Q 1024 3008 899 2790 
Q 774 2573 774 2266 
Q 774 1978 902 1754 
Q 1030 1530 1238 1405 
Q 1446 1280 1690 1280 
z
M 1773 -1440 
Q 2176 -1440 2467 -1305 
Q 2758 -1171 2918 -963 
Q 3078 -755 3078 -538 
Q 3078 -237 2870 -112 
Q 2662 13 2266 13 
L 1498 13 
Q 1466 13 1347 25 
Q 1229 38 1088 70 
Q 838 -96 729 -297 
Q 621 -499 621 -685 
Q 621 -1018 921 -1229 
Q 1222 -1440 1773 -1440 
z
" transform="scale(0.015625)"/>
    </defs>
    <use xlink:href="#NotoSansSC-Thin-6765"/>
    <use xlink:href="#NotoSansSC-Thin-6e90" transform="translate(99.999985 0)"/>
    <use xlink:href="#NotoSansSC-Thin-3a" transform="translate(199.999969 0)"/>
    <use xlink:href="#NotoSansSC-Thin-20" transform="translate(223.09996 0)"/>
    <use xlink:href="#NotoSansSC-Thin-5404" transform="translate(245.099945 0)"/>
    <use xlink:href="#NotoSansSC-Thin-56fd" transform="translate(345.09993 0)"/>
    <use xlink:href="#NotoSansSC-Thin-4ea4" transform="translate(445.099915 0)"/>
    <use xlink:href="#NotoSansSC-Thin-6613" transform="translate(545.099899 0)"/>
    <use xlink:href="#NotoSansSC-Thin-6240" transform="translate(645.099884 0)"/>
    <use xlink:href="#NotoSansSC-Thin-20" transform="translate(745.099869 0)"/>
    <use xlink:href="#NotoSansSC-Thin-2f" transform="translate(767.099854 0)"/>
    <use xlink:href="#NotoSansSC-Thin-20" transform="translate(806.699844 0)"/>
    <use xlink:href="#NotoSansSC-Thin-42" transform="translate(828.699829 0)"/>
    <use xlink:href="#NotoSansSC-Thin-6c" transform="translate(891.899826 0)"/>
    <use xlink:href="#NotoSansSC-Thin-6f" transform="translate(917.29982 0)"/>
    <use xlink:href="#NotoSansSC-Thin-6f" transform="translate(975.899811 0)"/>
    <use xlink:href="#NotoSansSC-Thin-6d" transform="translate(1034.499802 0)"/>
    <use xlink:href="#NotoSansSC-Thin-62" transform="translate(1123.399796 0)"/>
    <use xlink:href="#NotoSansSC-Thin-65" transform="translate(1182.699783 0)"/>
    <use xlink:href="#NotoSansSC-Thin-72" transform="translate(1235.39978 0)"/>
    <use xlink:href="#NotoSansSC-Thin-67" transform="translate(1269.299774 0)"/>
    <use xlink:href="#NotoSansSC-Thin-20" transform="translate(1322.299759 0)"/>
    <use xlink:href="#NotoSansSC-Thin-b7" transform="translate(1344.299744 0)"/>
    <use xlink:href="#NotoSansSC-Thin-20" transform="translate(1444.299728 0)"/>
    <use xlink:href="#NotoSansSC-Thin-32" transform="translate(1466.299713 0)"/>
    <use xlink:href="#NotoSansSC-Thin-30" transform="translate(1518.399704 0)"/>
    <use xlink:href="#NotoSansSC-Thin-32" transform="translate(1570.499695 0)"/>
    <use xlink:href="#NotoSansSC-Thin-36" transform="translate(1622.599686 0)"/>
    <use xlink:href="#NotoSansSC-Thin-2d" transform="translate(1674.699677 0)"/>
    <use xlink:href="#NotoSansSC-Thin-30" transform="translate(1707.09967 0)"/>
    <use xlink:href="#NotoSansSC-Thin-35" transform="translate(1759.199661 0)"/>
    <use xlink:href="#NotoSansSC-Thin-2d" transform="translate(1811.299652 0)"/>
    <use xlink:href="#NotoSansSC-Thin-32" transform="translate(1843.699646 0)"/>
    <use xlink:href="#NotoSansSC-Thin-37" transform="translate(1895.799637 0)"/>
   </g>
  </g>
 </g>
 <defs>
  <clipPath id="pd44b8f845b">
   <rect x="57.006406" y="80.038437" width="314.82" height="175.104"/>
  </clipPath>
 </defs>
</svg>
