<?xml version="1.0" encoding="utf-8" standalone="no"?>
<!DOCTYPE svg PUBLIC "-//W3C//DTD SVG 1.1//EN"
  "http://www.w3.org/Graphics/SVG/1.1/DTD/svg11.dtd">
<svg xmlns:xlink="http://www.w3.org/1999/xlink" width="385.576719pt" height="292.459pt" viewBox="0 0 385.576719 292.459" xmlns="http://www.w3.org/2000/svg" version="1.1">
 <metadata>
  <rdf:RDF xmlns:dc="http://purl.org/dc/elements/1.1/" xmlns:cc="http://creativecommons.org/ns#" xmlns:rdf="http://www.w3.org/1999/02/22-rdf-syntax-ns#">
   <cc:Work>
    <dc:type rdf:resource="http://purl.org/dc/dcmitype/StillImage"/>
    <dc:date>2026-06-04T23:43:23.253227</dc:date>
    <dc:format>image/svg+xml</dc:format>
    <dc:creator>
     <cc:Agent>
      <dc:title>Matplotlib v3.10.9, https://matplotlib.org/</dc:title>
     </cc:Agent>
    </dc:creator>
   </cc:Work>
  </rdf:RDF>
 </metadata>
 <defs>
  <style type="text/css">*{stroke-linejoin: round; stroke-linecap: butt}</style>
 </defs>
 <g id="figure_1">
  <g id="patch_1">
   <path d="M 0 292.459 
L 385.576719 292.459 
L 385.576719 0 
L 0 0 
z
" style="fill: #ffffff"/>
  </g>
  <g id="axes_1">
   <g id="patch_2">
    <path d="M 59.956719 255.295562 
L 374.776719 255.295562 
L 374.776719 80.191562 
L 59.956719 80.191562 
z
" style="fill: #ffffff"/>
   </g>
   <g id="matplotlib.axis_1">
    <g id="xtick_1">
     <g id="line2d_1">
      <path d="M 81.519732 255.295562 
L 81.519732 80.191562 
" clip-path="url(#p3c54ec3dd2)" style="fill: none; stroke: #e2e8f0; stroke-opacity: 0.4; stroke-width: 0.5; stroke-linecap: square"/>
     </g>
     <g id="line2d_2"/>
     <g id="text_1">
      <!-- -1 -->
      <g style="fill: #94a3b8" transform="translate(76.779967 265.989937) scale(0.09 -0.09)">
       <defs>
        <path id="MicrosoftYaHei-Bold-2d" d="M 2328 1497 
L 481 1497 
L 481 2209 
L 2328 2209 
L 2328 1497 
z
" transform="scale(0.015625)"/>
        <path id="MicrosoftYaHei-Bold-31" d="M 2716 4947 
L 2716 0 
L 1700 0 
L 1700 3809 
Q 1513 3647 1188 3517 
Q 863 3388 591 3356 
L 591 4222 
Q 1447 4472 2072 4947 
L 2716 4947 
z
" transform="scale(0.015625)"/>
       </defs>
       <use xlink:href="#MicrosoftYaHei-Bold-2d"/>
       <use xlink:href="#MicrosoftYaHei-Bold-31" transform="translate(43.652344 0)"/>
      </g>
     </g>
    </g>
    <g id="xtick_2">
     <g id="line2d_3">
      <path d="M 124.64576 255.295562 
L 124.64576 80.191562 
" clip-path="url(#p3c54ec3dd2)" style="fill: none; stroke: #e2e8f0; stroke-opacity: 0.4; stroke-width: 0.5; stroke-linecap: square"/>
     </g>
     <g id="line2d_4"/>
     <g id="text_2">
      <!-- 0 -->
      <g style="fill: #94a3b8" transform="translate(121.870525 265.989937) scale(0.09 -0.09)">
       <defs>
        <path id="MicrosoftYaHei-Bold-30" d="M 244 2341 
Q 244 3597 706 4259 
Q 1169 4922 2044 4922 
Q 3713 4922 3713 2453 
Q 3713 1238 3259 577 
Q 2806 -84 1950 -84 
Q 244 -84 244 2341 
z
M 1266 2366 
Q 1266 691 1981 691 
Q 2684 691 2684 2416 
Q 2684 4147 2000 4147 
Q 1266 4147 1266 2366 
z
" transform="scale(0.015625)"/>
       </defs>
       <use xlink:href="#MicrosoftYaHei-Bold-30"/>
      </g>
     </g>
    </g>
    <g id="xtick_3">
     <g id="line2d_5">
      <path d="M 167.771787 255.295562 
L 167.771787 80.191562 
" clip-path="url(#p3c54ec3dd2)" style="fill: none; stroke: #e2e8f0; stroke-opacity: 0.4; stroke-width: 0.5; stroke-linecap: square"/>
     </g>
     <g id="line2d_6"/>
     <g id="text_3">
      <!-- 1 -->
      <g style="fill: #94a3b8" transform="translate(164.996553 265.989937) scale(0.09 -0.09)">
       <use xlink:href="#MicrosoftYaHei-Bold-31"/>
      </g>
     </g>
    </g>
    <g id="xtick_4">
     <g id="line2d_7">
      <path d="M 210.897815 255.295562 
L 210.897815 80.191562 
" clip-path="url(#p3c54ec3dd2)" style="fill: none; stroke: #e2e8f0; stroke-opacity: 0.4; stroke-width: 0.5; stroke-linecap: square"/>
     </g>
     <g id="line2d_8"/>
     <g id="text_4">
      <!-- 2 -->
      <g style="fill: #94a3b8" transform="translate(208.12258 265.989937) scale(0.09 -0.09)">
       <defs>
        <path id="MicrosoftYaHei-Bold-32" d="M 1500 841 
L 3553 841 
L 3553 0 
L 334 0 
L 334 359 
Q 334 738 473 1050 
Q 613 1363 856 1633 
Q 1100 1903 1613 2266 
Q 2081 2616 2268 2886 
Q 2456 3156 2456 3459 
Q 2456 4113 1744 4113 
Q 1119 4113 550 3613 
L 550 4513 
Q 1184 4922 1975 4922 
Q 2700 4922 3122 4551 
Q 3544 4181 3544 3531 
Q 3544 3169 3422 2876 
Q 3300 2584 3069 2328 
Q 2838 2072 2328 1713 
Q 1838 1363 1669 1172 
Q 1500 981 1500 841 
z
" transform="scale(0.015625)"/>
       </defs>
       <use xlink:href="#MicrosoftYaHei-Bold-32"/>
      </g>
     </g>
    </g>
    <g id="xtick_5">
     <g id="line2d_9">
      <path d="M 254.023842 255.295562 
L 254.023842 80.191562 
" clip-path="url(#p3c54ec3dd2)" style="fill: none; stroke: #e2e8f0; stroke-opacity: 0.4; stroke-width: 0.5; stroke-linecap: square"/>
     </g>
     <g id="line2d_10"/>
     <g id="text_5">
      <!-- 3 -->
      <g style="fill: #94a3b8" transform="translate(251.248608 265.989937) scale(0.09 -0.09)">
       <defs>
        <path id="MicrosoftYaHei-Bold-33" d="M 494 1053 
Q 978 691 1625 691 
Q 2034 691 2275 872 
Q 2516 1053 2516 1388 
Q 2516 1731 2230 1912 
Q 1944 2094 1428 2094 
L 997 2094 
L 997 2872 
L 1394 2872 
Q 2369 2872 2369 3528 
Q 2369 4147 1622 4147 
Q 1134 4147 675 3828 
L 675 4663 
Q 1175 4922 1853 4922 
Q 2541 4922 2969 4605 
Q 3397 4288 3397 3725 
Q 3397 2775 2434 2531 
L 2434 2516 
Q 2941 2459 3244 2145 
Q 3547 1831 3547 1381 
Q 3547 691 3042 303 
Q 2538 -84 1697 -84 
Q 950 -84 494 163 
L 494 1053 
z
" transform="scale(0.015625)"/>
       </defs>
       <use xlink:href="#MicrosoftYaHei-Bold-33"/>
      </g>
     </g>
    </g>
    <g id="xtick_6">
     <g id="line2d_11">
      <path d="M 297.149869 255.295562 
L 297.149869 80.191562 
" clip-path="url(#p3c54ec3dd2)" style="fill: none; stroke: #e2e8f0; stroke-opacity: 0.4; stroke-width: 0.5; stroke-linecap: square"/>
     </g>
     <g id="line2d_12"/>
     <g id="text_6">
      <!-- 4 -->
      <g style="fill: #94a3b8" transform="translate(294.374635 265.989937) scale(0.09 -0.09)">
       <defs>
        <path id="MicrosoftYaHei-Bold-34" d="M 3184 4841 
L 3184 1766 
L 3869 1766 
L 3869 1031 
L 3184 1031 
L 3184 0 
L 2266 0 
L 2266 1031 
L 103 1031 
L 103 1772 
Q 775 2522 1362 3359 
Q 1950 4197 2250 4841 
L 3184 4841 
z
M 997 1766 
L 2266 1766 
L 2266 3541 
Q 2116 3259 1836 2859 
Q 1556 2459 997 1766 
z
" transform="scale(0.015625)"/>
       </defs>
       <use xlink:href="#MicrosoftYaHei-Bold-34"/>
      </g>
     </g>
    </g>
    <g id="xtick_7">
     <g id="line2d_13">
      <path d="M 340.275897 255.295562 
L 340.275897 80.191562 
" clip-path="url(#p3c54ec3dd2)" style="fill: none; stroke: #e2e8f0; stroke-opacity: 0.4; stroke-width: 0.5; stroke-linecap: square"/>
     </g>
     <g id="line2d_14"/>
     <g id="text_7">
      <!-- 5 -->
      <g style="fill: #94a3b8" transform="translate(337.500662 265.989937) scale(0.09 -0.09)">
       <defs>
        <path id="MicrosoftYaHei-Bold-35" d="M 541 125 
L 541 997 
Q 1044 691 1613 691 
Q 2041 691 2283 902 
Q 2525 1113 2525 1472 
Q 2525 2225 1494 2225 
Q 1113 2225 616 2169 
L 797 4841 
L 3359 4841 
L 3359 4009 
L 1613 4009 
L 1544 2991 
Q 1803 3013 2022 3013 
Q 2731 3013 3142 2625 
Q 3553 2238 3553 1575 
Q 3553 844 3056 380 
Q 2559 -84 1706 -84 
Q 1016 -84 541 125 
z
" transform="scale(0.015625)"/>
       </defs>
       <use xlink:href="#MicrosoftYaHei-Bold-35"/>
      </g>
     </g>
    </g>
    <g id="text_8">
     <!-- 涨跌幅 (%) -->
     <g style="fill: #64748b" transform="translate(195.524844 279.421656) scale(0.09 -0.09)">
      <defs>
       <path id="MicrosoftYaHei-6da8" d="M 3088 2622 
L 3550 2622 
L 3550 5278 
L 3994 5278 
L 3994 2622 
L 6250 2622 
L 6250 2172 
L 5031 2172 
Q 5294 503 6369 -184 
Q 6156 -353 5956 -566 
Q 4863 291 4619 2172 
L 3994 2172 
L 3994 -59 
Q 4375 109 4888 347 
Q 4906 97 4950 -128 
Q 4319 -397 3900 -616 
Q 3731 -703 3606 -809 
L 3338 -359 
Q 3550 -191 3550 103 
L 3550 2172 
L 3088 2172 
L 3088 2622 
z
M 1475 4966 
L 2931 4966 
L 2931 2866 
L 2494 2866 
L 2494 3059 
L 1956 3059 
L 1856 1978 
L 2919 1978 
Q 2881 984 2838 366 
Q 2800 -291 2556 -534 
Q 2356 -734 1894 -734 
Q 1725 -734 1388 -728 
Q 1350 -484 1281 -222 
Q 1600 -247 1825 -247 
Q 2131 -247 2231 -147 
Q 2375 -3 2394 359 
Q 2444 978 2463 1553 
L 1381 1553 
L 1563 3484 
L 2494 3484 
L 2494 4541 
L 1475 4541 
L 1475 4966 
z
M 794 1803 
Q 1038 1697 1275 1616 
Q 944 234 713 -791 
L 194 -622 
Q 531 503 794 1803 
z
M 5700 5034 
L 6106 4766 
Q 5388 3847 4588 2934 
Q 4400 3097 4231 3222 
Q 5006 4047 5700 5034 
z
M 394 3591 
Q 844 3259 1363 2828 
L 1031 2434 
Q 456 2972 88 3253 
L 394 3591 
z
M 613 5172 
Q 1100 4797 1531 4403 
L 1175 4034 
Q 763 4466 313 4847 
L 613 5172 
z
" transform="scale(0.015625)"/>
       <path id="MicrosoftYaHei-8dcc" d="M 2650 2372 
L 4225 2372 
Q 4269 2866 4275 3572 
L 3413 3572 
Q 3275 3078 3125 2653 
Q 2863 2766 2688 2822 
Q 3069 3753 3263 4884 
L 3713 4784 
Q 3625 4384 3531 4016 
L 4281 4016 
Q 4294 4666 4294 5266 
L 4738 5266 
Q 4738 4641 4738 4016 
L 6106 4016 
L 6106 3572 
L 4738 3572 
Q 4731 2834 4694 2372 
L 6288 2372 
L 6288 1916 
L 4769 1916 
Q 5200 372 6388 -409 
Q 6181 -597 6013 -834 
Q 4888 47 4494 1422 
Q 4113 47 2663 -872 
Q 2513 -653 2338 -447 
Q 3856 378 4163 1916 
L 2650 1916 
L 2650 2372 
z
M 69 -16 
Q 213 9 375 34 
L 375 2366 
L 813 2366 
L 813 109 
Q 1075 159 1369 209 
L 1369 2991 
L 863 2991 
L 863 2803 
L 425 2803 
L 425 4934 
L 2475 4934 
L 2475 2991 
L 1806 2991 
L 1806 1916 
L 2550 1916 
L 2550 1491 
L 1806 1491 
L 1806 291 
Q 2188 359 2613 441 
Q 2613 203 2625 3 
Q 1688 -153 181 -484 
L 69 -16 
z
M 2038 3416 
L 2038 4509 
L 863 4509 
L 863 3416 
L 2038 3416 
z
" transform="scale(0.015625)"/>
       <path id="MicrosoftYaHei-5e45" d="M 2725 2197 
L 6094 2197 
L 6094 -822 
L 5681 -822 
L 5681 -459 
L 3138 -459 
L 3138 -816 
L 2725 -816 
L 2725 2197 
z
M 331 4222 
L 1131 4222 
L 1131 5297 
L 1544 5297 
L 1544 4222 
L 2388 4222 
L 2388 978 
Q 2388 472 1900 472 
L 1700 472 
Q 1663 659 1594 872 
Q 1719 859 1831 859 
Q 1988 859 1988 1028 
L 1988 3822 
L 1544 3822 
L 1544 -816 
L 1131 -816 
L 1131 3822 
L 731 3822 
L 731 384 
L 331 384 
L 331 4222 
z
M 3031 4178 
L 5813 4178 
L 5813 2478 
L 5400 2478 
L 5400 2703 
L 3444 2703 
L 3444 2478 
L 3031 2478 
L 3031 4178 
z
M 2588 5009 
L 6250 5009 
L 6250 4609 
L 2588 4609 
L 2588 5009 
z
M 5400 3791 
L 3444 3791 
L 3444 3091 
L 5400 3091 
L 5400 3791 
z
M 5681 1809 
L 4606 1809 
L 4606 1053 
L 5681 1053 
L 5681 1809 
z
M 3138 1053 
L 4206 1053 
L 4206 1809 
L 3138 1809 
L 3138 1053 
z
M 4606 -72 
L 5681 -72 
L 5681 678 
L 4606 678 
L 4606 -72 
z
M 3138 -72 
L 4206 -72 
L 4206 678 
L 3138 678 
L 3138 -72 
z
" transform="scale(0.015625)"/>
       <path id="MicrosoftYaHei-20" transform="scale(0.015625)"/>
       <path id="MicrosoftYaHei-28" d="M 1531 -1100 
Q 478 100 478 1847 
Q 478 3594 1531 4841 
L 2072 4841 
Q 1016 3544 1016 1853 
Q 1016 166 2066 -1100 
L 1531 -1100 
z
" transform="scale(0.015625)"/>
       <path id="MicrosoftYaHei-25" d="M 272 3619 
Q 272 4213 589 4563 
Q 906 4913 1444 4913 
Q 1959 4913 2248 4591 
Q 2538 4269 2538 3694 
Q 2538 3122 2219 2765 
Q 1900 2409 1372 2409 
Q 872 2409 572 2740 
Q 272 3072 272 3619 
z
M 753 3650 
Q 753 3247 928 3028 
Q 1103 2809 1406 2809 
Q 1719 2809 1889 3036 
Q 2059 3263 2059 3675 
Q 2059 4078 1892 4298 
Q 1725 4519 1422 4519 
Q 1113 4519 933 4289 
Q 753 4059 753 3650 
z
M 4647 4841 
L 1538 -31 
L 1016 -31 
L 4125 4841 
L 4647 4841 
z
M 3172 1134 
Q 3172 1728 3489 2083 
Q 3806 2438 4341 2438 
Q 4853 2438 5143 2114 
Q 5434 1791 5434 1203 
Q 5434 634 5112 279 
Q 4791 -75 4272 -75 
Q 3769 -75 3470 261 
Q 3172 597 3172 1134 
z
M 3650 1163 
Q 3650 769 3825 548 
Q 4000 328 4303 328 
Q 4616 328 4786 556 
Q 4956 784 4956 1194 
Q 4956 1600 4786 1815 
Q 4616 2031 4319 2031 
Q 4000 2031 3825 1801 
Q 3650 1572 3650 1163 
z
" transform="scale(0.015625)"/>
       <path id="MicrosoftYaHei-29" d="M 78 -1100 
Q 1131 163 1131 1853 
Q 1131 3547 72 4841 
L 616 4841 
Q 1672 3603 1672 1847 
Q 1672 91 616 -1100 
L 78 -1100 
z
" transform="scale(0.015625)"/>
      </defs>
      <use xlink:href="#MicrosoftYaHei-6da8"/>
      <use xlink:href="#MicrosoftYaHei-8dcc" transform="translate(100 0)"/>
      <use xlink:href="#MicrosoftYaHei-5e45" transform="translate(200 0)"/>
      <use xlink:href="#MicrosoftYaHei-20" transform="translate(300 0)"/>
      <use xlink:href="#MicrosoftYaHei-28" transform="translate(329.589844 0)"/>
      <use xlink:href="#MicrosoftYaHei-25" transform="translate(362.988281 0)"/>
      <use xlink:href="#MicrosoftYaHei-29" transform="translate(451.953125 0)"/>
     </g>
    </g>
   </g>
   <g id="matplotlib.axis_2">
    <g id="ytick_1">
     <g id="line2d_15">
      <path d="M 59.956719 242.528675 
L 374.776719 242.528675 
" clip-path="url(#p3c54ec3dd2)" style="fill: none; stroke: #e2e8f0; stroke-opacity: 0.6; stroke-width: 0.5; stroke-linecap: square"/>
     </g>
     <g id="line2d_16"/>
     <g id="text_9">
      <!-- 韩国KOSPI -->
      <g style="fill: #94a3b8" transform="translate(10.8 246.125863) scale(0.09 -0.09)">
       <defs>
        <path id="MicrosoftYaHei-Bold-97e9" d="M 113 816 
L 1263 816 
L 1263 1203 
L 338 1203 
L 338 3753 
L 1263 3753 
L 1263 4141 
L 200 4141 
L 200 4891 
L 1263 4891 
L 1263 5341 
L 2088 5341 
L 2088 4891 
L 2975 4891 
L 2975 4141 
L 2088 4141 
L 2088 3753 
L 3013 3753 
L 3013 1203 
L 2088 1203 
L 2088 816 
L 3288 816 
L 3288 66 
L 2088 66 
L 2088 -841 
L 1263 -841 
L 1263 66 
L 113 66 
L 113 816 
z
M 2288 3141 
L 1063 3141 
L 1063 2766 
L 2288 2766 
L 2288 3141 
z
M 2288 1816 
L 2288 2191 
L 1063 2191 
L 1063 1816 
L 2288 1816 
z
M 3088 2066 
L 3994 2066 
L 3994 2709 
L 3256 2709 
L 3256 3409 
L 3994 3409 
L 3994 4022 
L 3125 4022 
L 3125 4722 
L 3994 4722 
L 3994 5341 
L 4844 5341 
L 4844 4722 
L 6200 4722 
L 6200 4022 
L 4844 4022 
L 4844 3409 
L 6019 3409 
L 6019 2709 
L 4844 2709 
L 4844 2066 
L 6300 2066 
Q 6275 806 6240 486 
Q 6206 166 6100 20 
Q 5994 -125 5830 -165 
Q 5666 -206 5000 -197 
Q 4938 178 4863 509 
Q 5163 491 5325 491 
Q 5500 491 5520 647 
Q 5541 803 5556 1366 
L 4844 1366 
L 4844 -853 
L 3994 -853 
L 3994 1366 
L 3088 1366 
L 3088 2066 
z
" transform="scale(0.015625)"/>
        <path id="MicrosoftYaHei-Bold-56fd" d="M 356 -797 
L 356 5078 
L 6044 5078 
L 6044 -791 
L 5150 -791 
L 5150 -572 
L 1250 -572 
L 1250 -797 
L 356 -797 
z
M 5150 4309 
L 1250 4309 
L 1250 197 
L 5150 197 
L 5150 4309 
z
M 4800 2047 
L 4334 2047 
Q 4594 1822 4856 1566 
L 4525 1266 
L 4950 1266 
L 4950 534 
L 1419 534 
L 1419 1266 
L 2694 1266 
L 2694 2047 
L 1581 2047 
L 1581 2778 
L 2694 2778 
L 2694 3222 
L 1481 3222 
L 1481 3953 
L 4888 3953 
L 4888 3222 
L 3531 3222 
L 3531 2778 
L 4800 2778 
L 4800 2047 
z
M 3706 1734 
L 4069 2047 
L 3531 2047 
L 3531 1266 
L 4144 1266 
Q 3897 1547 3706 1734 
z
" transform="scale(0.015625)"/>
        <path id="MicrosoftYaHei-Bold-4b" d="M 4506 0 
L 3200 0 
L 1734 2116 
Q 1678 2197 1606 2369 
L 1591 2369 
L 1591 0 
L 559 0 
L 559 4841 
L 1591 4841 
L 1591 2553 
L 1606 2553 
Q 1675 2703 1744 2813 
L 3131 4841 
L 4363 4841 
L 2631 2531 
L 4506 0 
z
" transform="scale(0.015625)"/>
        <path id="MicrosoftYaHei-Bold-4f" d="M 256 2356 
Q 256 3494 920 4208 
Q 1584 4922 2675 4922 
Q 3713 4922 4345 4231 
Q 4978 3541 4978 2456 
Q 4978 1325 4320 620 
Q 3663 -84 2597 -84 
Q 1556 -84 906 598 
Q 256 1281 256 2356 
z
M 1341 2413 
Q 1341 1706 1681 1257 
Q 2022 809 2616 809 
Q 3222 809 3559 1239 
Q 3897 1669 3897 2394 
Q 3897 3150 3569 3589 
Q 3241 4028 2644 4028 
Q 2038 4028 1689 3578 
Q 1341 3128 1341 2413 
z
" transform="scale(0.015625)"/>
        <path id="MicrosoftYaHei-Bold-53" d="M 338 1219 
Q 922 734 1666 734 
Q 2088 734 2300 879 
Q 2513 1025 2513 1253 
Q 2513 1450 2344 1625 
Q 2175 1800 1453 2100 
Q 319 2581 319 3500 
Q 319 4175 833 4548 
Q 1347 4922 2194 4922 
Q 2903 4922 3384 4738 
L 3384 3769 
Q 2897 4100 2244 4100 
Q 1863 4100 1634 3961 
Q 1406 3822 1406 3588 
Q 1406 3400 1562 3242 
Q 1719 3084 2334 2816 
Q 3056 2506 3326 2162 
Q 3597 1819 3597 1344 
Q 3597 647 3103 281 
Q 2609 -84 1700 -84 
Q 869 -84 338 184 
L 338 1219 
z
" transform="scale(0.015625)"/>
        <path id="MicrosoftYaHei-Bold-50" d="M 1591 1688 
L 1591 0 
L 559 0 
L 559 4841 
L 2225 4841 
Q 4031 4841 4031 3309 
Q 4031 2566 3486 2117 
Q 2941 1669 2122 1688 
L 1591 1688 
z
M 1591 4041 
L 1591 2478 
L 2038 2478 
Q 2947 2478 2947 3269 
Q 2947 4041 2047 4041 
L 1591 4041 
z
" transform="scale(0.015625)"/>
        <path id="MicrosoftYaHei-Bold-49" d="M 1588 4841 
L 1588 0 
L 556 0 
L 556 4841 
L 1588 4841 
z
" transform="scale(0.015625)"/>
       </defs>
       <use xlink:href="#MicrosoftYaHei-Bold-97e9"/>
       <use xlink:href="#MicrosoftYaHei-Bold-56fd" transform="translate(100 0)"/>
       <use xlink:href="#MicrosoftYaHei-Bold-4b" transform="translate(200 0)"/>
       <use xlink:href="#MicrosoftYaHei-Bold-4f" transform="translate(266.037109 0)"/>
       <use xlink:href="#MicrosoftYaHei-Bold-53" transform="translate(347.873047 0)"/>
       <use xlink:href="#MicrosoftYaHei-Bold-50" transform="translate(408.029297 0)"/>
       <use xlink:href="#MicrosoftYaHei-Bold-49" transform="translate(473.751953 0)"/>
      </g>
     </g>
    </g>
    <g id="ytick_2">
     <g id="line2d_17">
      <path d="M 59.956719 221.1615 
L 374.776719 221.1615 
" clip-path="url(#p3c54ec3dd2)" style="fill: none; stroke: #e2e8f0; stroke-opacity: 0.6; stroke-width: 0.5; stroke-linecap: square"/>
     </g>
     <g id="line2d_18"/>
     <g id="text_10">
      <!-- 日经225 -->
      <g style="fill: #94a3b8" transform="translate(21.805312 224.758688) scale(0.09 -0.09)">
       <defs>
        <path id="MicrosoftYaHei-Bold-65e5" d="M 750 -778 
L 750 4972 
L 5688 4972 
L 5688 -778 
L 4725 -778 
L 4725 -341 
L 1713 -341 
L 1713 -778 
L 750 -778 
z
M 4725 4084 
L 1713 4084 
L 1713 2772 
L 4725 2772 
L 4725 4084 
z
M 1713 547 
L 4725 547 
L 4725 1909 
L 1713 1909 
L 1713 547 
z
" transform="scale(0.015625)"/>
        <path id="MicrosoftYaHei-Bold-7ecf" d="M 988 3397 
L 1513 3419 
Q 1744 3784 1988 4209 
L 2738 3834 
Q 1788 2472 1238 1797 
Q 1863 1841 2263 1884 
Q 2213 1441 2213 1122 
Q 888 1034 331 928 
L 138 1647 
Q 550 2034 1025 2694 
Q 606 2663 319 2616 
L 31 3328 
Q 613 4028 1181 5366 
L 2006 5072 
Q 1488 4109 988 3397 
z
M 5769 5047 
L 5769 4353 
Q 5447 3906 5053 3525 
Q 5694 3203 6331 2859 
L 5831 2147 
Q 5094 2622 4431 2997 
Q 3638 2406 2619 2022 
Q 2406 2434 2188 2778 
Q 3813 3341 4744 4297 
L 2594 4297 
L 2594 5047 
L 5769 5047 
z
M 2613 1959 
L 6000 1959 
L 6000 1209 
L 4756 1209 
L 4756 91 
L 6263 91 
L 6263 -659 
L 2288 -659 
L 2288 -200 
Q 1194 -306 219 -466 
L 88 409 
Q 1106 484 2344 672 
Q 2322 400 2319 91 
L 3863 91 
L 3863 1209 
L 2613 1209 
L 2613 1959 
z
" transform="scale(0.015625)"/>
       </defs>
       <use xlink:href="#MicrosoftYaHei-Bold-65e5"/>
       <use xlink:href="#MicrosoftYaHei-Bold-7ecf" transform="translate(100 0)"/>
       <use xlink:href="#MicrosoftYaHei-Bold-32" transform="translate(200 0)"/>
       <use xlink:href="#MicrosoftYaHei-Bold-32" transform="translate(261.669922 0)"/>
       <use xlink:href="#MicrosoftYaHei-Bold-35" transform="translate(323.339844 0)"/>
      </g>
     </g>
    </g>
    <g id="ytick_3">
     <g id="line2d_19">
      <path d="M 59.956719 199.794325 
L 374.776719 199.794325 
" clip-path="url(#p3c54ec3dd2)" style="fill: none; stroke: #e2e8f0; stroke-opacity: 0.6; stroke-width: 0.5; stroke-linecap: square"/>
     </g>
     <g id="line2d_20"/>
     <g id="text_11">
      <!-- 纳指 -->
      <g style="fill: #94a3b8" transform="translate(38.456719 203.391513) scale(0.09 -0.09)">
       <defs>
        <path id="MicrosoftYaHei-Bold-7eb3" d="M 1019 3334 
Q 1203 3338 1475 3350 
Q 1653 3663 1850 4028 
L 2363 3775 
L 2363 4347 
L 3791 4347 
Q 3794 4834 3794 5328 
L 4600 5328 
L 4584 4347 
L 6038 4347 
L 6038 222 
Q 6038 -234 5878 -471 
Q 5719 -709 5359 -756 
Q 5000 -803 4288 -803 
Q 4225 -434 4100 59 
Q 4513 34 4806 34 
Q 5066 34 5158 120 
Q 5250 206 5250 416 
L 5250 1063 
L 4844 766 
Q 4572 1278 4263 1800 
Q 4013 1134 3563 703 
Q 3388 853 3150 1031 
L 3150 -803 
L 2363 -803 
L 2363 3447 
Q 1844 2541 1325 1778 
Q 1731 1809 2169 1866 
Q 2125 1441 2100 1122 
Q 1031 997 488 847 
L 244 1516 
Q 556 1825 1056 2638 
Q 613 2600 331 2553 
L 94 3259 
Q 525 3747 1181 5316 
L 1944 5009 
Q 1475 4072 1019 3334 
z
M 5250 1619 
L 5250 3559 
L 4575 3559 
Q 4563 3166 4513 2813 
L 5250 1619 
z
M 3150 1469 
Q 3769 2178 3781 3559 
L 3150 3559 
L 3150 1469 
z
M 94 328 
Q 1006 441 2206 622 
Q 2175 153 2188 -203 
Q 1369 -328 250 -534 
L 94 328 
z
" transform="scale(0.015625)"/>
        <path id="MicrosoftYaHei-Bold-6307" d="M 106 4297 
L 800 4297 
L 800 5316 
L 1594 5316 
L 1594 4297 
L 2194 4297 
L 2194 3522 
L 1594 3522 
L 1594 2550 
L 2200 2716 
Q 2194 2222 2206 1878 
Q 2097 1850 1594 1700 
L 1594 -28 
Q 1594 -375 1458 -559 
Q 1322 -744 1067 -772 
Q 813 -800 313 -809 
Q 250 -434 156 3 
Q 538 -6 669 8 
Q 800 22 800 228 
L 800 1463 
L 156 1272 
L 88 2191 
Q 434 2263 800 2350 
L 800 3522 
L 106 3522 
L 106 4297 
z
M 5506 4278 
Q 5881 4078 6281 3959 
Q 6125 3116 5862 2959 
Q 5600 2803 5219 2803 
L 3306 2803 
Q 2394 2803 2394 3747 
L 2394 5291 
L 3225 5291 
L 3225 4628 
Q 4591 4809 5919 5172 
L 6206 4428 
Q 4866 4131 3225 3941 
L 3225 3884 
Q 3225 3528 3644 3528 
L 5025 3528 
Q 5334 3528 5403 3712 
Q 5472 3897 5506 4278 
z
M 2463 -834 
L 2463 2428 
L 6025 2428 
L 6025 -822 
L 5200 -822 
L 5200 -509 
L 3288 -509 
L 3288 -834 
L 2463 -834 
z
M 5200 1716 
L 3288 1716 
L 3288 1303 
L 5200 1303 
L 5200 1716 
z
M 3288 203 
L 5200 203 
L 5200 616 
L 3288 616 
L 3288 203 
z
" transform="scale(0.015625)"/>
       </defs>
       <use xlink:href="#MicrosoftYaHei-Bold-7eb3"/>
       <use xlink:href="#MicrosoftYaHei-Bold-6307" transform="translate(100 0)"/>
      </g>
     </g>
    </g>
    <g id="ytick_4">
     <g id="line2d_21">
      <path d="M 59.956719 178.42715 
L 374.776719 178.42715 
" clip-path="url(#p3c54ec3dd2)" style="fill: none; stroke: #e2e8f0; stroke-opacity: 0.6; stroke-width: 0.5; stroke-linecap: square"/>
     </g>
     <g id="line2d_22"/>
     <g id="text_12">
      <!-- 德国DAX -->
      <g style="fill: #94a3b8" transform="translate(18.409219 182.024338) scale(0.09 -0.09)">
       <defs>
        <path id="MicrosoftYaHei-Bold-5fb7" d="M 1300 5347 
L 2019 4984 
Q 1363 3941 588 3222 
Q 350 3641 125 3909 
Q 800 4472 1300 5347 
z
M 1519 3659 
L 2144 3319 
L 2144 3872 
L 3675 3872 
L 3675 4191 
L 2063 4191 
L 2063 4828 
L 3675 4828 
L 3675 5309 
L 4500 5309 
L 4500 4828 
L 6150 4828 
L 6150 4191 
L 4500 4191 
L 4500 3872 
L 6056 3872 
L 6056 2197 
L 2144 2197 
L 2144 3213 
Q 1900 2750 1613 2331 
L 1613 -834 
L 825 -834 
L 825 1359 
Q 616 1134 388 928 
Q 250 1453 88 1878 
Q 881 2559 1519 3659 
z
M 5369 2766 
L 5369 3303 
L 4894 3303 
L 4894 2766 
L 5369 2766 
z
M 3863 2766 
L 4331 2766 
L 4331 3303 
L 3863 3303 
L 3863 2766 
z
M 2831 2766 
L 3300 2766 
L 3300 3303 
L 2831 3303 
L 2831 2766 
z
M 6256 1234 
L 4422 1234 
Q 4553 925 4669 597 
L 3950 366 
Q 3841 781 3691 1234 
L 1938 1234 
L 1938 1897 
L 6256 1897 
L 6256 1234 
z
M 4738 628 
Q 5072 478 5419 353 
L 5219 922 
L 5875 1109 
Q 6156 397 6338 -216 
L 5663 -422 
Q 5569 -97 5453 256 
Q 5247 -469 4992 -626 
Q 4738 -784 4394 -784 
L 3750 -784 
Q 2850 -784 2850 66 
L 2850 972 
L 3613 972 
L 3613 241 
Q 3613 -91 4013 -91 
L 4269 -91 
Q 4491 -91 4583 20 
Q 4675 131 4738 628 
z
M 2081 991 
L 2781 809 
Q 2600 109 2356 -491 
L 1656 -222 
Q 1950 447 2081 991 
z
" transform="scale(0.015625)"/>
        <path id="MicrosoftYaHei-Bold-44" d="M 559 0 
L 559 4841 
L 2231 4841 
Q 4809 4841 4809 2481 
Q 4809 1359 4087 679 
Q 3366 0 2225 0 
L 559 0 
z
M 1591 3997 
L 1591 844 
L 2153 844 
Q 2888 844 3306 1281 
Q 3725 1719 3725 2466 
Q 3725 3188 3287 3592 
Q 2850 3997 2150 3997 
L 1591 3997 
z
" transform="scale(0.015625)"/>
        <path id="MicrosoftYaHei-Bold-41" d="M 4759 0 
L 3634 0 
L 3272 1109 
L 1513 1109 
L 1156 0 
L 38 0 
L 1809 4841 
L 3022 4841 
L 4759 0 
z
M 3028 1906 
L 2478 3584 
Q 2425 3744 2403 4006 
L 2375 4006 
Q 2356 3794 2291 3597 
L 1738 1906 
L 3028 1906 
z
" transform="scale(0.015625)"/>
        <path id="MicrosoftYaHei-Bold-58" d="M 4447 0 
L 3222 0 
L 2353 1606 
Q 2306 1694 2256 1922 
L 2244 1922 
Q 2219 1809 2131 1597 
L 1259 0 
L 25 0 
L 1578 2422 
L 159 4841 
L 1416 4841 
L 2138 3359 
Q 2225 3178 2288 2959 
L 2300 2959 
Q 2366 3156 2459 3375 
L 3256 4841 
L 4409 4841 
L 2947 2441 
L 4447 0 
z
" transform="scale(0.015625)"/>
       </defs>
       <use xlink:href="#MicrosoftYaHei-Bold-5fb7"/>
       <use xlink:href="#MicrosoftYaHei-Bold-56fd" transform="translate(100 0)"/>
       <use xlink:href="#MicrosoftYaHei-Bold-44" transform="translate(200 0)"/>
       <use xlink:href="#MicrosoftYaHei-Bold-41" transform="translate(277.525391 0)"/>
       <use xlink:href="#MicrosoftYaHei-Bold-58" transform="translate(352.720703 0)"/>
      </g>
     </g>
    </g>
    <g id="ytick_5">
     <g id="line2d_23">
      <path d="M 59.956719 157.059975 
L 374.776719 157.059975 
" clip-path="url(#p3c54ec3dd2)" style="fill: none; stroke: #e2e8f0; stroke-opacity: 0.6; stroke-width: 0.5; stroke-linecap: square"/>
     </g>
     <g id="line2d_24"/>
     <g id="text_13">
      <!-- 标普500 -->
      <g style="fill: #94a3b8" transform="translate(21.805312 160.657162) scale(0.09 -0.09)">
       <defs>
        <path id="MicrosoftYaHei-Bold-6807" d="M 69 1703 
Q 550 2538 781 3391 
L 113 3391 
L 113 4209 
L 831 4209 
L 831 5303 
L 1600 5303 
L 1600 4209 
L 2200 4209 
L 2200 3391 
L 1600 3391 
L 1600 2669 
Q 2003 2444 2369 2228 
L 1981 1522 
Q 1850 1634 1600 1803 
L 1600 -841 
L 831 -841 
L 831 1734 
Q 594 1122 269 559 
Q 163 1209 69 1703 
z
M 2469 4978 
L 6000 4978 
L 6000 4166 
L 2469 4166 
L 2469 4978 
z
M 2219 3416 
L 6238 3416 
L 6238 2603 
L 4663 2603 
L 4663 -72 
Q 4663 -406 4478 -586 
Q 4294 -766 3948 -787 
Q 3603 -809 3006 -809 
Q 2919 -303 2838 59 
Q 3169 28 3431 28 
Q 3794 28 3794 366 
L 3794 2603 
L 2219 2603 
L 2219 3416 
z
M 2719 2209 
L 3463 1997 
Q 3081 784 2681 -97 
Q 2288 103 1944 203 
Q 2356 1047 2719 2209 
z
M 5575 2159 
Q 5969 1216 6331 178 
L 5563 -116 
Q 5200 991 4831 1891 
L 5575 2159 
z
" transform="scale(0.015625)"/>
        <path id="MicrosoftYaHei-Bold-666e" d="M 131 3091 
L 1113 3091 
Q 881 3394 569 3734 
L 1081 4103 
L 375 4103 
L 375 4747 
L 1694 4747 
Q 1559 4947 1388 5178 
L 2281 5353 
L 2650 4747 
L 3753 4747 
L 4175 5359 
L 5106 5172 
L 4728 4747 
L 6050 4747 
L 6050 4103 
L 5341 4103 
L 5875 3697 
Q 5616 3447 5275 3091 
L 6288 3091 
L 6288 2453 
L 131 2453 
L 131 3091 
z
M 2919 3091 
L 3488 3091 
L 3488 4103 
L 2919 4103 
L 2919 3091 
z
M 1788 3422 
L 1359 3091 
L 2069 3091 
L 2069 4103 
L 1156 4103 
Q 1425 3822 1788 3422 
z
M 5216 4103 
L 4338 4103 
L 4338 3091 
L 4988 3091 
L 4600 3403 
Q 4941 3759 5216 4103 
z
M 850 -822 
L 850 2097 
L 5569 2097 
L 5569 -822 
L 4719 -822 
L 4719 -566 
L 1700 -566 
L 1700 -822 
L 850 -822 
z
M 4719 1453 
L 1700 1453 
L 1700 1059 
L 4719 1059 
L 4719 1453 
z
M 1700 78 
L 4719 78 
L 4719 472 
L 1700 472 
L 1700 78 
z
" transform="scale(0.015625)"/>
       </defs>
       <use xlink:href="#MicrosoftYaHei-Bold-6807"/>
       <use xlink:href="#MicrosoftYaHei-Bold-666e" transform="translate(100 0)"/>
       <use xlink:href="#MicrosoftYaHei-Bold-35" transform="translate(200 0)"/>
       <use xlink:href="#MicrosoftYaHei-Bold-30" transform="translate(261.669922 0)"/>
       <use xlink:href="#MicrosoftYaHei-Bold-30" transform="translate(323.339844 0)"/>
      </g>
     </g>
    </g>
    <g id="ytick_6">
     <g id="line2d_25">
      <path d="M 59.956719 135.6928 
L 374.776719 135.6928 
" clip-path="url(#p3c54ec3dd2)" style="fill: none; stroke: #e2e8f0; stroke-opacity: 0.6; stroke-width: 0.5; stroke-linecap: square"/>
     </g>
     <g id="line2d_26"/>
     <g id="text_14">
      <!-- 法国CAC -->
      <g style="fill: #94a3b8" transform="translate(19.715625 139.289987) scale(0.09 -0.09)">
       <defs>
        <path id="MicrosoftYaHei-Bold-6cd5" d="M 5006 1441 
Q 5763 478 6313 -453 
L 5525 -897 
L 5275 -472 
Q 2816 -559 2088 -647 
L 1769 72 
Q 2419 616 3081 1747 
L 1775 1747 
L 1775 2491 
L 3581 2491 
L 3581 3603 
L 2050 3603 
L 2050 4347 
L 3581 4347 
L 3581 5347 
L 4444 5347 
L 4444 4347 
L 6013 4347 
L 6013 3603 
L 4444 3603 
L 4444 2491 
L 6288 2491 
L 6288 1747 
L 4122 1747 
Q 3622 928 3019 216 
Q 3825 238 4806 288 
Q 4541 697 4294 1041 
L 5006 1441 
z
M 844 5222 
Q 1419 4828 1950 4403 
L 1388 3766 
Q 838 4259 306 4647 
L 844 5222 
z
M 631 3591 
Q 1175 3216 1706 2753 
L 1119 2103 
Q 669 2553 88 3003 
L 631 3591 
z
M 994 1903 
Q 1356 1722 1813 1578 
Q 1406 409 1069 -803 
Q 625 -634 219 -509 
Q 619 572 994 1903 
z
" transform="scale(0.015625)"/>
        <path id="MicrosoftYaHei-Bold-43" d="M 4013 175 
Q 3484 -84 2634 -84 
Q 1541 -84 898 570 
Q 256 1225 256 2316 
Q 256 3463 973 4192 
Q 1691 4922 2825 4922 
Q 3534 4922 4013 4738 
L 4013 3741 
Q 3522 4028 2900 4028 
Q 2191 4028 1766 3575 
Q 1341 3122 1341 2391 
Q 1341 1678 1744 1243 
Q 2147 809 2834 809 
Q 3481 809 4013 1122 
L 4013 175 
z
" transform="scale(0.015625)"/>
       </defs>
       <use xlink:href="#MicrosoftYaHei-Bold-6cd5"/>
       <use xlink:href="#MicrosoftYaHei-Bold-56fd" transform="translate(100 0)"/>
       <use xlink:href="#MicrosoftYaHei-Bold-43" transform="translate(200 0)"/>
       <use xlink:href="#MicrosoftYaHei-Bold-41" transform="translate(267.333984 0)"/>
       <use xlink:href="#MicrosoftYaHei-Bold-43" transform="translate(340.904297 0)"/>
      </g>
     </g>
    </g>
    <g id="ytick_7">
     <g id="line2d_27">
      <path d="M 59.956719 114.325625 
L 374.776719 114.325625 
" clip-path="url(#p3c54ec3dd2)" style="fill: none; stroke: #e2e8f0; stroke-opacity: 0.6; stroke-width: 0.5; stroke-linecap: square"/>
     </g>
     <g id="line2d_28"/>
     <g id="text_15">
      <!-- 道指 -->
      <g style="fill: #94a3b8" transform="translate(38.456719 117.922812) scale(0.09 -0.09)">
       <defs>
        <path id="MicrosoftYaHei-Bold-9053" d="M 2063 3666 
L 3350 3666 
L 3428 4016 
L 1825 4016 
L 1825 4678 
L 2728 4678 
L 2375 5191 
L 3181 5378 
L 3569 4678 
L 4259 4678 
Q 4450 5038 4594 5372 
L 5469 5203 
Q 5303 4966 5091 4678 
L 6113 4678 
L 6113 4016 
L 4284 4016 
L 4181 3666 
L 5863 3666 
L 5863 416 
L 2063 416 
L 2063 3666 
z
M 5100 3059 
L 2825 3059 
L 2825 2716 
L 5100 2716 
L 5100 3059 
z
M 2825 1872 
L 5100 1872 
L 5100 2216 
L 2825 2216 
L 2825 1872 
z
M 5100 1022 
L 5100 1372 
L 2825 1372 
L 2825 1022 
L 5100 1022 
z
M 850 5322 
Q 1425 4609 1725 4178 
Q 1281 3897 981 3691 
Q 556 4378 181 4878 
L 850 5322 
z
M 6313 91 
L 6006 -741 
Q 4853 -741 3863 -728 
L 2500 -703 
Q 2128 -694 1765 -547 
Q 1403 -400 1138 -103 
L 456 -884 
L 100 84 
L 694 594 
L 694 2309 
L 138 2309 
L 138 3134 
L 1475 3134 
L 1475 575 
Q 1856 47 2856 47 
Q 4991 47 6313 91 
z
" transform="scale(0.015625)"/>
       </defs>
       <use xlink:href="#MicrosoftYaHei-Bold-9053"/>
       <use xlink:href="#MicrosoftYaHei-Bold-6307" transform="translate(100 0)"/>
      </g>
     </g>
    </g>
    <g id="ytick_8">
     <g id="line2d_29">
      <path d="M 59.956719 92.95845 
L 374.776719 92.95845 
" clip-path="url(#p3c54ec3dd2)" style="fill: none; stroke: #e2e8f0; stroke-opacity: 0.6; stroke-width: 0.5; stroke-linecap: square"/>
     </g>
     <g id="line2d_30"/>
     <g id="text_16">
      <!-- 上证指数 -->
      <g style="fill: #94a3b8" transform="translate(20.456719 96.555637) scale(0.09 -0.09)">
       <defs>
        <path id="MicrosoftYaHei-Bold-4e0a" d="M 181 359 
L 2500 359 
L 2500 5278 
L 3513 5278 
L 3513 3547 
L 5825 3547 
L 5825 2653 
L 3513 2653 
L 3513 359 
L 6231 359 
L 6231 -522 
L 181 -522 
L 181 359 
z
" transform="scale(0.015625)"/>
        <path id="MicrosoftYaHei-Bold-8bc1" d="M 994 5334 
Q 1356 4822 1756 4184 
Q 1463 4028 1000 3734 
Q 663 4341 306 4903 
L 994 5334 
z
M 1875 278 
L 2388 278 
L 2388 3397 
L 3231 3397 
L 3231 278 
L 3906 278 
L 3906 4091 
L 2075 4091 
L 2075 4916 
L 6225 4916 
L 6225 4091 
L 4750 4091 
L 4750 2678 
L 6075 2678 
L 6075 1859 
L 4750 1859 
L 4750 278 
L 6300 278 
L 6300 -559 
L 1875 -559 
L 1875 278 
z
M 2019 1384 
Q 2044 1116 2169 528 
Q 1575 109 838 -516 
L 450 172 
Q 606 366 613 641 
L 613 2628 
L 113 2628 
L 113 3441 
L 1463 3441 
L 1463 947 
L 2019 1384 
z
" transform="scale(0.015625)"/>
        <path id="MicrosoftYaHei-Bold-6570" d="M 238 4091 
L 725 4091 
Q 559 4425 281 4803 
L 844 5153 
Q 1038 4922 1369 4428 
L 806 4091 
L 1506 4091 
L 1506 5316 
L 2300 5316 
L 2300 4091 
L 2956 4091 
L 2438 4428 
Q 2750 4809 2963 5172 
L 3550 4822 
Q 3341 4466 3031 4091 
L 3394 4091 
L 3394 3453 
L 2300 3453 
L 2300 3016 
L 2513 3303 
Q 2903 3094 3253 2891 
Q 3766 3841 4138 5347 
L 4994 5266 
Q 4869 4781 4728 4341 
L 6294 4341 
L 6294 3578 
L 6041 3578 
Q 5906 1922 5338 856 
Q 5738 391 6319 53 
Q 6094 -203 5775 -778 
Q 5228 -413 4828 109 
Q 4313 -497 3631 -872 
Q 3378 -513 3072 -197 
L 2850 -566 
Q 2475 -350 2031 -128 
Q 1347 -584 394 -778 
Q 281 -434 63 -9 
Q 716 59 1213 253 
Q 781 444 300 641 
Q 513 950 681 1259 
L 169 1259 
L 169 1897 
L 991 1897 
Q 1094 2144 1169 2391 
L 1506 2359 
L 1506 2959 
Q 1044 2472 344 2053 
Q 213 2472 50 2803 
Q 672 3044 1172 3453 
L 238 3453 
L 238 4091 
z
M 4394 3400 
Q 4519 2359 4831 1659 
Q 5203 2478 5275 3578 
L 4463 3578 
Q 4431 3488 4394 3400 
z
M 2300 2216 
L 1984 2216 
Q 1913 2063 1825 1897 
L 3281 1897 
L 3281 1316 
Q 3038 806 2672 413 
L 3294 166 
L 3169 -38 
Q 3859 322 4347 894 
Q 4041 1522 3878 2300 
Q 3769 2103 3656 1922 
Q 3513 2172 3322 2438 
L 3138 2159 
Q 2750 2422 2300 2691 
L 2300 2216 
z
M 1300 934 
L 1950 691 
Q 2231 934 2413 1259 
L 1484 1259 
L 1300 934 
z
" transform="scale(0.015625)"/>
       </defs>
       <use xlink:href="#MicrosoftYaHei-Bold-4e0a"/>
       <use xlink:href="#MicrosoftYaHei-Bold-8bc1" transform="translate(100 0)"/>
       <use xlink:href="#MicrosoftYaHei-Bold-6307" transform="translate(200 0)"/>
       <use xlink:href="#MicrosoftYaHei-Bold-6570" transform="translate(300 0)"/>
      </g>
     </g>
    </g>
   </g>
   <g id="line2d_31">
    <path d="M 124.64576 255.295562 
L 124.64576 80.191562 
" clip-path="url(#p3c54ec3dd2)" style="fill: none; stroke: #334155; stroke-width: 0.8; stroke-linecap: square"/>
    <defs>
     <path id="mab50cfdb3a" d="M 0 3 
C 0.795609 3 1.55874 2.683901 2.12132 2.12132 
C 2.683901 1.55874 3 0.795609 3 0 
C 3 -0.795609 2.683901 -1.55874 2.12132 -2.12132 
C 1.55874 -2.683901 0.795609 -3 0 -3 
C -0.795609 -3 -1.55874 -2.683901 -2.12132 -2.12132 
C -2.683901 -1.55874 -3 -0.795609 -3 0 
C -3 0.795609 -2.683901 1.55874 -2.12132 2.12132 
C -1.55874 2.683901 -0.795609 3 0 3 
z
" style="stroke: #334155; stroke-width: 1.5"/>
    </defs>
    <g clip-path="url(#p3c54ec3dd2)">
     <use xlink:href="#mab50cfdb3a" x="124.64576" y="255.295562" style="fill: #334155; stroke: #334155; stroke-width: 1.5"/>
     <use xlink:href="#mab50cfdb3a" x="124.64576" y="80.191562" style="fill: #334155; stroke: #334155; stroke-width: 1.5"/>
    </g>
   </g>
   <g id="patch_3">
    <path d="M 124.64576 247.33629 
L 326.044308 247.33629 
L 326.044308 237.721061 
L 124.64576 237.721061 
z
" clip-path="url(#p3c54ec3dd2)" style="fill: #b91c1c; stroke: #ffffff; stroke-width: 1.5; stroke-linejoin: miter"/>
   </g>
   <g id="patch_4">
    <path d="M 124.64576 225.969115 
L 219.52302 225.969115 
L 219.52302 216.353886 
L 124.64576 216.353886 
z
" clip-path="url(#p3c54ec3dd2)" style="fill: #dc2626; stroke: #ffffff; stroke-width: 1.5; stroke-linejoin: miter"/>
   </g>
   <g id="patch_5">
    <path d="M 124.64576 204.60194 
L 175.965732 204.60194 
L 175.965732 194.986711 
L 124.64576 194.986711 
z
" clip-path="url(#p3c54ec3dd2)" style="fill: #ef4444; stroke: #ffffff; stroke-width: 1.5; stroke-linejoin: miter"/>
   </g>
   <g id="patch_6">
    <path d="M 124.64576 183.234764 
L 211.329075 183.234764 
L 211.329075 173.619536 
L 124.64576 173.619536 
z
" clip-path="url(#p3c54ec3dd2)" style="fill: #dc2626; stroke: #ffffff; stroke-width: 1.5; stroke-linejoin: miter"/>
   </g>
   <g id="patch_7">
    <path d="M 124.64576 161.867589 
L 150.952637 161.867589 
L 150.952637 152.252361 
L 124.64576 152.252361 
z
" clip-path="url(#p3c54ec3dd2)" style="fill: #ef4444; stroke: #ffffff; stroke-width: 1.5; stroke-linejoin: miter"/>
   </g>
   <g id="patch_8">
    <path d="M 124.64576 140.500414 
L 200.547568 140.500414 
L 200.547568 130.885185 
L 124.64576 130.885185 
z
" clip-path="url(#p3c54ec3dd2)" style="fill: #ef4444; stroke: #ffffff; stroke-width: 1.5; stroke-linejoin: miter"/>
   </g>
   <g id="patch_9">
    <path d="M 124.64576 119.133239 
L 114.726774 119.133239 
L 114.726774 109.51801 
L 124.64576 109.51801 
z
" clip-path="url(#p3c54ec3dd2)" style="fill: #16a34a; stroke: #ffffff; stroke-width: 1.5; stroke-linejoin: miter"/>
   </g>
   <g id="patch_10">
    <path d="M 124.64576 97.766064 
L 117.314335 97.766064 
L 117.314335 88.150835 
L 124.64576 88.150835 
z
" clip-path="url(#p3c54ec3dd2)" style="fill: #16a34a; stroke: #ffffff; stroke-width: 1.5; stroke-linejoin: miter"/>
   </g>
   <g id="text_17">
    <!-- +4.67% -->
    <g style="fill: #dc2626" transform="translate(329.49439 244.869496) scale(0.085 -0.085)">
     <defs>
      <path id="MicrosoftYaHei-Bold-2b" d="M 4072 1653 
L 2766 1653 
L 2766 347 
L 2109 347 
L 2109 1653 
L 797 1653 
L 797 2313 
L 2109 2313 
L 2109 3625 
L 2766 3625 
L 2766 2313 
L 4072 2313 
L 4072 1653 
z
" transform="scale(0.015625)"/>
      <path id="MicrosoftYaHei-Bold-2e" d="M 313 453 
Q 313 688 491 838 
Q 669 988 916 988 
Q 1166 988 1337 834 
Q 1509 681 1509 453 
Q 1509 213 1337 64 
Q 1166 -84 903 -84 
Q 659 -84 486 69 
Q 313 222 313 453 
z
" transform="scale(0.015625)"/>
      <path id="MicrosoftYaHei-Bold-36" d="M 3378 3938 
Q 3009 4147 2575 4147 
Q 2016 4147 1680 3708 
Q 1344 3269 1344 2572 
L 1363 2572 
Q 1709 3103 2391 3103 
Q 3000 3103 3358 2686 
Q 3716 2269 3716 1600 
Q 3716 869 3250 392 
Q 2784 -84 2059 -84 
Q 1228 -84 786 516 
Q 344 1116 344 2159 
Q 344 3388 917 4155 
Q 1491 4922 2513 4922 
Q 3063 4922 3378 4791 
L 3378 3938 
z
M 1378 1591 
Q 1378 1216 1565 953 
Q 1753 691 2059 691 
Q 2369 691 2547 931 
Q 2725 1172 2725 1534 
Q 2725 2350 2053 2350 
Q 1750 2350 1564 2134 
Q 1378 1919 1378 1591 
z
" transform="scale(0.015625)"/>
      <path id="MicrosoftYaHei-Bold-37" d="M 3675 4225 
Q 3088 3172 2798 2528 
Q 2509 1884 2328 1275 
Q 2147 666 2050 0 
L 966 0 
Q 1122 947 1517 1917 
Q 1913 2888 2609 4009 
L 300 4009 
L 300 4841 
L 3675 4841 
L 3675 4225 
z
" transform="scale(0.015625)"/>
      <path id="MicrosoftYaHei-Bold-25" d="M 297 3597 
Q 297 4191 626 4548 
Q 956 4906 1519 4906 
Q 2056 4906 2354 4581 
Q 2653 4256 2653 3684 
Q 2653 3097 2322 2744 
Q 1991 2391 1438 2391 
Q 919 2391 608 2722 
Q 297 3053 297 3597 
z
M 984 3631 
Q 984 2959 1478 2959 
Q 1981 2959 1981 3659 
Q 1981 4338 1500 4338 
Q 984 4338 984 3631 
z
M 4938 4841 
L 1791 -3 
L 1006 -3 
L 4147 4841 
L 4938 4841 
z
M 3297 1141 
Q 3297 1741 3631 2095 
Q 3966 2450 4522 2450 
Q 5059 2450 5357 2131 
Q 5656 1813 5656 1234 
Q 5656 641 5322 286 
Q 4988 -69 4438 -69 
Q 3922 -69 3609 264 
Q 3297 597 3297 1141 
z
M 3981 1175 
Q 3981 500 4478 500 
Q 4978 500 4978 1200 
Q 4978 1528 4845 1704 
Q 4713 1881 4491 1881 
Q 3981 1881 3981 1175 
z
" transform="scale(0.015625)"/>
     </defs>
     <use xlink:href="#MicrosoftYaHei-Bold-2b"/>
     <use xlink:href="#MicrosoftYaHei-Bold-34" transform="translate(76.123047 0)"/>
     <use xlink:href="#MicrosoftYaHei-Bold-2e" transform="translate(137.792969 0)"/>
     <use xlink:href="#MicrosoftYaHei-Bold-36" transform="translate(166.357422 0)"/>
     <use xlink:href="#MicrosoftYaHei-Bold-37" transform="translate(228.027344 0)"/>
     <use xlink:href="#MicrosoftYaHei-Bold-25" transform="translate(289.697266 0)"/>
    </g>
   </g>
   <g id="text_18">
    <!-- +2.20% -->
    <g style="fill: #dc2626" transform="translate(222.973102 223.502321) scale(0.085 -0.085)">
     <use xlink:href="#MicrosoftYaHei-Bold-2b"/>
     <use xlink:href="#MicrosoftYaHei-Bold-32" transform="translate(76.123047 0)"/>
     <use xlink:href="#MicrosoftYaHei-Bold-2e" transform="translate(137.792969 0)"/>
     <use xlink:href="#MicrosoftYaHei-Bold-32" transform="translate(166.357422 0)"/>
     <use xlink:href="#MicrosoftYaHei-Bold-30" transform="translate(228.027344 0)"/>
     <use xlink:href="#MicrosoftYaHei-Bold-25" transform="translate(289.697266 0)"/>
    </g>
   </g>
   <g id="text_19">
    <!-- +1.19% -->
    <g style="fill: #dc2626" transform="translate(179.415815 202.135145) scale(0.085 -0.085)">
     <defs>
      <path id="MicrosoftYaHei-Bold-39" d="M 544 941 
Q 931 691 1456 691 
Q 2628 691 2653 2216 
L 2634 2222 
Q 2316 1731 1650 1731 
Q 1047 1731 658 2154 
Q 269 2578 269 3222 
Q 269 3978 737 4450 
Q 1206 4922 1959 4922 
Q 2744 4922 3191 4325 
Q 3638 3728 3638 2659 
Q 3638 1391 3098 653 
Q 2559 -84 1547 -84 
Q 975 -84 544 100 
L 544 941 
z
M 1259 3313 
Q 1259 2928 1445 2709 
Q 1631 2491 1953 2491 
Q 2241 2491 2427 2700 
Q 2613 2909 2613 3219 
Q 2613 3591 2427 3869 
Q 2241 4147 1928 4147 
Q 1625 4147 1442 3906 
Q 1259 3666 1259 3313 
z
" transform="scale(0.015625)"/>
     </defs>
     <use xlink:href="#MicrosoftYaHei-Bold-2b"/>
     <use xlink:href="#MicrosoftYaHei-Bold-31" transform="translate(76.123047 0)"/>
     <use xlink:href="#MicrosoftYaHei-Bold-2e" transform="translate(137.792969 0)"/>
     <use xlink:href="#MicrosoftYaHei-Bold-31" transform="translate(166.357422 0)"/>
     <use xlink:href="#MicrosoftYaHei-Bold-39" transform="translate(228.027344 0)"/>
     <use xlink:href="#MicrosoftYaHei-Bold-25" transform="translate(289.697266 0)"/>
    </g>
   </g>
   <g id="text_20">
    <!-- +2.01% -->
    <g style="fill: #dc2626" transform="translate(214.779157 180.76797) scale(0.085 -0.085)">
     <use xlink:href="#MicrosoftYaHei-Bold-2b"/>
     <use xlink:href="#MicrosoftYaHei-Bold-32" transform="translate(76.123047 0)"/>
     <use xlink:href="#MicrosoftYaHei-Bold-2e" transform="translate(137.792969 0)"/>
     <use xlink:href="#MicrosoftYaHei-Bold-30" transform="translate(166.357422 0)"/>
     <use xlink:href="#MicrosoftYaHei-Bold-31" transform="translate(228.027344 0)"/>
     <use xlink:href="#MicrosoftYaHei-Bold-25" transform="translate(289.697266 0)"/>
    </g>
   </g>
   <g id="text_21">
    <!-- +0.61% -->
    <g style="fill: #dc2626" transform="translate(154.402719 159.400795) scale(0.085 -0.085)">
     <use xlink:href="#MicrosoftYaHei-Bold-2b"/>
     <use xlink:href="#MicrosoftYaHei-Bold-30" transform="translate(76.123047 0)"/>
     <use xlink:href="#MicrosoftYaHei-Bold-2e" transform="translate(137.792969 0)"/>
     <use xlink:href="#MicrosoftYaHei-Bold-36" transform="translate(166.357422 0)"/>
     <use xlink:href="#MicrosoftYaHei-Bold-31" transform="translate(228.027344 0)"/>
     <use xlink:href="#MicrosoftYaHei-Bold-25" transform="translate(289.697266 0)"/>
    </g>
   </g>
   <g id="text_22">
    <!-- +1.76% -->
    <g style="fill: #dc2626" transform="translate(203.99765 138.03362) scale(0.085 -0.085)">
     <use xlink:href="#MicrosoftYaHei-Bold-2b"/>
     <use xlink:href="#MicrosoftYaHei-Bold-31" transform="translate(76.123047 0)"/>
     <use xlink:href="#MicrosoftYaHei-Bold-2e" transform="translate(137.792969 0)"/>
     <use xlink:href="#MicrosoftYaHei-Bold-37" transform="translate(166.357422 0)"/>
     <use xlink:href="#MicrosoftYaHei-Bold-36" transform="translate(228.027344 0)"/>
     <use xlink:href="#MicrosoftYaHei-Bold-25" transform="translate(289.697266 0)"/>
    </g>
   </g>
   <g id="text_23">
    <!-- -0.23% -->
    <g style="fill: #ffffff" transform="translate(81.497473 116.666445) scale(0.085 -0.085)">
     <use xlink:href="#MicrosoftYaHei-Bold-2d"/>
     <use xlink:href="#MicrosoftYaHei-Bold-30" transform="translate(43.652344 0)"/>
     <use xlink:href="#MicrosoftYaHei-Bold-2e" transform="translate(105.322266 0)"/>
     <use xlink:href="#MicrosoftYaHei-Bold-32" transform="translate(133.886719 0)"/>
     <use xlink:href="#MicrosoftYaHei-Bold-33" transform="translate(195.556641 0)"/>
     <use xlink:href="#MicrosoftYaHei-Bold-25" transform="translate(257.226562 0)"/>
    </g>
   </g>
   <g id="text_24">
    <!-- -0.17% -->
    <g style="fill: #ffffff" transform="translate(84.085034 95.29927) scale(0.085 -0.085)">
     <use xlink:href="#MicrosoftYaHei-Bold-2d"/>
     <use xlink:href="#MicrosoftYaHei-Bold-30" transform="translate(43.652344 0)"/>
     <use xlink:href="#MicrosoftYaHei-Bold-2e" transform="translate(105.322266 0)"/>
     <use xlink:href="#MicrosoftYaHei-Bold-31" transform="translate(133.886719 0)"/>
     <use xlink:href="#MicrosoftYaHei-Bold-37" transform="translate(195.556641 0)"/>
     <use xlink:href="#MicrosoftYaHei-Bold-25" transform="translate(257.226562 0)"/>
    </g>
   </g>
   <g id="text_25">
    <g id="patch_11">
     <path d="M 293.800006 101.078481 
L 368.480319 101.078481 
Q 371.180319 101.078481 371.180319 98.378481 
L 371.180319 88.946762 
Q 371.180319 86.246762 368.480319 86.246762 
L 293.800006 86.246762 
Q 291.100006 86.246762 291.100006 88.946762 
L 291.100006 98.378481 
Q 291.100006 101.078481 293.800006 101.078481 
z
" style="fill: #fef2f2; opacity: 0.9; stroke: #fecaca; stroke-width: 1.5; stroke-linejoin: miter"/>
    </g>
    <!-- 亚太领涨 全球共振 -->
    <g style="fill: #dc2626" transform="translate(293.800006 96.141137) scale(0.09 -0.09)">
     <defs>
      <path id="MicrosoftYaHei-Bold-4e9a" d="M 263 5009 
L 6163 5009 
L 6163 4197 
L 4463 4197 
L 4463 1475 
Q 4919 2388 5400 3634 
L 6188 3316 
Q 5613 1959 5088 866 
L 4463 1159 
L 4463 266 
L 6300 266 
L 6300 -547 
L 125 -547 
L 125 266 
L 1963 266 
L 1963 1156 
L 1263 853 
Q 769 2247 288 3322 
L 1031 3641 
Q 1509 2594 1963 1472 
L 1963 4197 
L 263 4197 
L 263 5009 
z
M 2850 266 
L 3575 266 
L 3575 4197 
L 2850 4197 
L 2850 266 
z
" transform="scale(0.015625)"/>
      <path id="MicrosoftYaHei-Bold-592a" d="M 213 3891 
L 2669 3891 
Q 2728 4516 2725 5291 
L 3688 5291 
Q 3678 4616 3631 3891 
L 6200 3891 
L 6200 3028 
L 3744 3028 
Q 4394 888 6350 91 
Q 6019 -291 5606 -828 
Q 3941 203 3238 2284 
Q 2781 691 806 -866 
Q 356 -303 81 -28 
Q 2256 1234 2550 3028 
L 213 3028 
L 213 3891 
z
M 2388 416 
L 2975 903 
Q 3388 453 3913 -84 
L 3225 -647 
Q 2863 -159 2388 416 
z
" transform="scale(0.015625)"/>
      <path id="MicrosoftYaHei-Bold-9886" d="M 2663 5016 
L 6188 5016 
L 6188 4241 
L 4813 4241 
L 4713 3791 
L 6075 3791 
L 6075 703 
L 5238 703 
L 5238 3041 
L 3700 3041 
L 3700 703 
L 2863 703 
L 2863 3478 
L 2388 3141 
Q 1988 3803 1563 4353 
Q 1325 3922 1056 3491 
L 1581 3784 
Q 1875 3316 2100 2884 
L 1438 2566 
Q 1275 2916 1000 3409 
Q 756 3016 463 2628 
Q 294 3047 81 3428 
Q 669 4153 1194 5228 
L 2013 5228 
L 1931 5047 
Q 2488 4384 2906 3791 
L 3944 3791 
L 4025 4241 
L 2663 4241 
L 2663 5016 
z
M 4069 2766 
L 4875 2766 
L 4875 2191 
Q 4875 1353 4775 866 
Q 5613 309 6331 -253 
L 5775 -897 
Q 5188 -372 4469 153 
Q 4063 -397 3063 -897 
Q 2663 -391 2488 -197 
Q 3581 247 3869 822 
Q 4069 1222 4069 2291 
L 4069 2766 
z
M 231 872 
L 738 1341 
L 1263 816 
Q 1500 1241 1688 1641 
L 263 1641 
L 263 2416 
L 2625 2416 
L 2625 1753 
Q 2231 966 1838 222 
Q 2106 -53 2388 -359 
L 1756 -891 
Q 713 341 231 872 
z
" transform="scale(0.015625)"/>
      <path id="MicrosoftYaHei-Bold-6da8" d="M 4944 409 
Q 4963 -72 4981 -384 
Q 4194 -628 3688 -878 
L 3331 -178 
Q 3506 9 3506 416 
L 3506 2097 
L 3200 2097 
L 3200 2866 
L 3506 2866 
L 3506 5253 
L 4281 5253 
L 4281 2866 
L 6238 2866 
L 6238 2097 
L 5225 2097 
Q 5581 797 6369 222 
Q 6063 -153 5794 -559 
Q 4825 366 4538 2097 
L 4281 2097 
L 4281 166 
Q 4663 316 4944 409 
z
M 706 5241 
Q 1225 4822 1525 4559 
L 1525 5041 
L 3119 5041 
L 3119 2791 
L 2213 2791 
L 2175 2172 
L 3119 2172 
Q 3106 1828 3031 366 
Q 2994 -297 2781 -553 
Q 2569 -822 2069 -822 
Q 1700 -822 1438 -809 
Q 1344 -191 1306 -22 
Q 1575 -53 1888 -66 
Q 2244 -78 2263 497 
Q 2281 741 2319 1403 
L 1413 1403 
L 1581 3566 
L 2400 3566 
L 2400 4266 
L 1525 4266 
L 1525 4547 
L 975 3966 
Q 619 4347 200 4728 
L 706 5241 
z
M 613 1847 
Q 975 1709 1306 1591 
Q 1125 547 881 -841 
Q 500 -716 131 -622 
Q 313 41 613 1847 
z
M 6269 4691 
Q 5588 3822 4925 3047 
L 4406 3478 
Q 4963 4178 5600 5109 
L 6269 4691 
z
M 556 3591 
Q 1088 3191 1438 2891 
L 919 2291 
Q 481 2666 88 3016 
L 556 3591 
z
" transform="scale(0.015625)"/>
      <path id="MicrosoftYaHei-Bold-20" transform="scale(0.015625)"/>
      <path id="MicrosoftYaHei-Bold-5168" d="M 369 184 
L 2731 184 
L 2731 934 
L 869 934 
L 869 1734 
L 2731 1734 
L 2731 2366 
L 1525 2366 
L 1525 2859 
Q 1113 2566 644 2284 
Q 463 2541 88 3016 
Q 2088 4091 2800 5316 
L 3894 5316 
L 3731 5078 
Q 4538 3922 6313 3091 
Q 5981 2678 5750 2353 
Q 5281 2603 4875 2878 
L 4875 2366 
L 3663 2366 
L 3663 1734 
L 5544 1734 
L 5544 934 
L 3663 934 
L 3663 184 
L 6031 184 
L 6031 -616 
L 369 -616 
L 369 184 
z
M 3200 4416 
Q 2688 3766 1925 3166 
L 4475 3166 
Q 3725 3741 3200 4416 
z
" transform="scale(0.015625)"/>
      <path id="MicrosoftYaHei-Bold-7403" d="M 5231 5322 
Q 5625 5034 6056 4634 
L 5728 4291 
L 6206 4291 
L 6206 3528 
L 4650 3528 
L 4650 3109 
Q 4772 2775 4916 2463 
Q 5331 2913 5638 3316 
L 6319 2797 
Q 5853 2294 5288 1772 
Q 5734 1050 6338 509 
Q 6063 91 5850 -341 
Q 5109 447 4650 1356 
L 4650 3 
Q 4650 -369 4484 -564 
Q 4319 -759 3964 -784 
Q 3609 -809 3006 -809 
Q 2931 -259 2838 41 
Q 3247 3 3441 3 
Q 3838 3 3825 428 
L 3825 1041 
Q 3231 641 2563 209 
L 2194 1053 
Q 2844 1403 3825 2025 
L 3825 3528 
L 2369 3528 
L 2369 4291 
L 3825 4291 
L 3825 5316 
L 4650 5316 
L 4650 4291 
L 5384 4291 
Q 5088 4575 4763 4841 
L 5231 5322 
z
M 250 -459 
L 75 428 
L 813 578 
L 813 2097 
L 206 2097 
L 206 2884 
L 813 2884 
L 813 4141 
L 150 4141 
L 150 4941 
L 2263 4941 
L 2263 4141 
L 1625 4141 
L 1625 2884 
L 2163 2884 
L 2163 2097 
L 1625 2097 
L 1625 750 
L 2256 884 
Q 2250 422 2269 41 
Q 1244 -178 250 -459 
z
M 2919 3322 
Q 3244 2872 3631 2203 
L 2931 1778 
Q 2588 2459 2269 2928 
L 2919 3322 
z
" transform="scale(0.015625)"/>
      <path id="MicrosoftYaHei-Bold-5171" d="M 138 2028 
L 1513 2028 
L 1513 3428 
L 338 3428 
L 338 4228 
L 1513 4228 
L 1513 5316 
L 2413 5316 
L 2413 4228 
L 3988 4228 
L 3988 5316 
L 4888 5316 
L 4888 4228 
L 6069 4228 
L 6069 3428 
L 4888 3428 
L 4888 2028 
L 6263 2028 
L 6263 1228 
L 138 1228 
L 138 2028 
z
M 2413 2028 
L 3988 2028 
L 3988 3428 
L 2413 3428 
L 2413 2028 
z
M 4188 1141 
Q 5356 497 6300 -84 
L 5725 -822 
Q 4894 -234 3675 509 
L 4188 1141 
z
M 2150 1103 
L 2763 459 
Q 1650 -272 606 -853 
Q 381 -491 94 -109 
Q 1081 359 2150 1103 
z
" transform="scale(0.015625)"/>
      <path id="MicrosoftYaHei-Bold-632f" d="M 5813 1953 
L 6338 1341 
Q 6044 1134 5419 753 
Q 5781 303 6338 -9 
Q 6144 -272 5788 -822 
Q 4494 66 4138 1991 
L 3894 1991 
L 3894 78 
Q 4206 166 4713 291 
Q 4694 97 4688 -522 
Q 3906 -659 3231 -922 
L 2906 -253 
Q 3131 -41 3150 134 
L 3150 1991 
L 2906 1991 
Q 2875 166 2244 -903 
Q 1975 -709 1469 -416 
Q 2113 509 2113 2222 
L 2113 5016 
L 6113 5016 
L 6113 4291 
L 2913 4291 
L 2913 2716 
L 6175 2716 
L 6175 1991 
L 4838 1991 
Q 4913 1647 5050 1353 
Q 5494 1678 5813 1953 
z
M 150 4203 
L 725 4203 
L 725 5284 
L 1494 5284 
L 1494 4203 
L 1938 4203 
L 1938 3397 
L 1494 3397 
L 1494 2334 
Q 1700 2366 1938 2397 
Q 1919 1903 1944 1566 
Q 1706 1528 1494 1497 
L 1494 -3 
Q 1494 -709 931 -784 
Q 588 -816 250 -822 
Q 194 -422 69 3 
Q 338 -16 525 -16 
Q 725 -16 725 284 
L 725 1366 
Q 400 1303 169 1253 
L 75 2159 
Q 325 2184 725 2234 
L 725 3397 
L 150 3397 
L 150 4203 
z
M 3088 3853 
L 5881 3853 
L 5881 3153 
L 3088 3153 
L 3088 3853 
z
" transform="scale(0.015625)"/>
     </defs>
     <use xlink:href="#MicrosoftYaHei-Bold-4e9a"/>
     <use xlink:href="#MicrosoftYaHei-Bold-592a" transform="translate(100 0)"/>
     <use xlink:href="#MicrosoftYaHei-Bold-9886" transform="translate(200 0)"/>
     <use xlink:href="#MicrosoftYaHei-Bold-6da8" transform="translate(300 0)"/>
     <use xlink:href="#MicrosoftYaHei-Bold-20" transform="translate(400 0)"/>
     <use xlink:href="#MicrosoftYaHei-Bold-5168" transform="translate(429.785156 0)"/>
     <use xlink:href="#MicrosoftYaHei-Bold-7403" transform="translate(529.785156 0)"/>
     <use xlink:href="#MicrosoftYaHei-Bold-5171" transform="translate(629.785156 0)"/>
     <use xlink:href="#MicrosoftYaHei-Bold-632f" transform="translate(729.785156 0)"/>
    </g>
   </g>
  </g>
  <g id="text_26">
   <!-- 全球主要指数 隔夜表现 -->
   <g style="fill: #1e293b" transform="translate(59.956719 21.99125) scale(0.14 -0.14)">
    <defs>
     <path id="MicrosoftYaHei-Bold-4e3b" d="M 138 241 
L 2725 241 
L 2725 1409 
L 800 1409 
L 800 2222 
L 2725 2222 
L 2725 3353 
L 500 3353 
L 500 4178 
L 2922 4178 
Q 2713 4591 2450 4991 
L 3306 5378 
Q 3588 4966 3869 4459 
L 3266 4178 
L 5925 4178 
L 5925 3353 
L 3669 3353 
L 3669 2222 
L 5638 2222 
L 5638 1409 
L 3669 1409 
L 3669 241 
L 6263 241 
L 6263 -597 
L 138 -597 
L 138 241 
z
" transform="scale(0.015625)"/>
     <path id="MicrosoftYaHei-Bold-8981" d="M 106 1741 
L 1947 1741 
Q 2088 1950 2203 2153 
L 413 2153 
L 413 3991 
L 2031 3991 
L 2031 4422 
L 219 4422 
L 219 5084 
L 6181 5084 
L 6181 4422 
L 4363 4422 
L 4363 3991 
L 5981 3991 
L 5981 2153 
L 3113 2153 
Q 2981 1938 2853 1741 
L 6288 1741 
L 6288 1078 
L 5094 1078 
Q 4769 650 4322 309 
L 6000 -116 
L 5619 -878 
Q 4469 -475 3503 -181 
Q 2322 -731 569 -878 
Q 475 -522 281 -141 
Q 1525 -84 2406 131 
Q 1591 350 938 472 
Q 1219 778 1459 1078 
L 106 1078 
L 106 1741 
z
M 2781 3991 
L 3613 3991 
L 3613 4422 
L 2781 4422 
L 2781 3991 
z
M 2781 2791 
L 3613 2791 
L 3613 3353 
L 2781 3353 
L 2781 2791 
z
M 1200 2791 
L 2031 2791 
L 2031 3353 
L 1200 3353 
L 1200 2791 
z
M 5194 2791 
L 5194 3353 
L 4363 3353 
L 4363 2791 
L 5194 2791 
z
M 2169 784 
Q 2678 694 3447 519 
Q 3872 756 4147 1078 
L 2397 1078 
Q 2281 922 2169 784 
z
" transform="scale(0.015625)"/>
     <path id="MicrosoftYaHei-Bold-9694" d="M 1913 2891 
Q 2338 2041 2338 1228 
Q 2338 191 1500 191 
L 1238 191 
Q 1194 559 1119 941 
Q 1256 909 1356 909 
Q 1625 909 1625 1259 
Q 1625 2053 1200 2816 
L 1500 4297 
L 1100 4297 
L 1100 -834 
L 350 -834 
L 350 5053 
L 2263 5053 
L 2263 4491 
L 1913 2891 
z
M 2438 5041 
L 6100 5041 
L 6100 4353 
L 2438 4353 
L 2438 5041 
z
M 2669 4103 
L 5831 4103 
L 5831 2591 
L 2669 2591 
L 2669 4103 
z
M 5063 3503 
L 3438 3503 
L 3438 3191 
L 5063 3191 
L 5063 3503 
z
M 3250 916 
L 3616 916 
Q 3478 1219 3344 1447 
L 3819 1653 
L 3100 1653 
L 3100 -822 
L 2425 -822 
L 2425 2341 
L 6119 2341 
L 6119 28 
Q 6119 -313 5986 -505 
Q 5853 -697 5608 -747 
Q 5363 -797 4875 -797 
Q 4794 -459 4700 -122 
Q 5234 -150 5314 -65 
Q 5394 19 5394 147 
L 5394 1653 
L 4594 1653 
L 5181 1478 
Q 5041 1228 4838 916 
L 5244 916 
L 5244 303 
L 4588 303 
L 4588 -747 
L 3913 -747 
L 3913 303 
L 3250 303 
L 3250 916 
z
M 4181 1066 
L 3800 916 
L 4191 916 
Q 4388 1263 4572 1653 
L 3856 1653 
Q 4022 1372 4181 1066 
z
" transform="scale(0.015625)"/>
     <path id="MicrosoftYaHei-Bold-591c" d="M 1656 1653 
Q 2556 2603 3097 3928 
L 1650 3928 
L 2350 3684 
Q 2000 3038 1625 2469 
L 1625 -847 
L 788 -847 
L 788 1338 
Q 594 1103 394 891 
Q 250 1434 100 1866 
Q 831 2628 1500 3928 
L 188 3928 
L 188 4691 
L 2706 4691 
Q 2600 4956 2525 5128 
L 3425 5353 
Q 3544 5094 3713 4691 
L 6250 4691 
L 6250 3928 
L 3159 3928 
L 3900 3672 
Q 3819 3497 3734 3328 
L 5813 3328 
L 5813 2641 
Q 5447 1541 4666 709 
Q 5391 284 6344 109 
Q 6156 -266 5925 -803 
Q 4828 -456 4031 128 
Q 3288 -453 2281 -872 
Q 2056 -466 1756 -84 
Q 2706 241 3391 684 
Q 2988 1103 2691 1609 
Q 2491 1344 2281 1097 
Q 1975 1384 1656 1653 
z
M 3425 2328 
L 3784 2597 
L 3341 2597 
Q 3244 2434 3144 2275 
Q 3503 1634 4028 1169 
Q 4709 1794 4988 2597 
L 3969 2597 
Q 4338 2197 4488 2003 
L 3975 1597 
Q 3631 2072 3425 2328 
z
" transform="scale(0.015625)"/>
     <path id="MicrosoftYaHei-Bold-8868" d="M 5925 1259 
L 4825 684 
Q 5459 291 6313 109 
Q 5994 -291 5744 -666 
Q 4638 -309 3894 344 
Q 3878 -91 3888 -328 
Q 2419 -678 1856 -884 
L 1500 -172 
Q 1675 3 1675 403 
L 1675 522 
Q 1078 94 363 -278 
Q 219 203 69 591 
Q 1206 1109 2044 1891 
L 150 1891 
L 150 2591 
L 2750 2591 
L 2750 3003 
L 625 3003 
L 625 3703 
L 2750 3703 
L 2750 4116 
L 363 4116 
L 363 4816 
L 2750 4816 
L 2750 5353 
L 3631 5353 
L 3631 4816 
L 6044 4816 
L 6044 4116 
L 3631 4116 
L 3631 3703 
L 5750 3703 
L 5750 3003 
L 3631 3003 
L 3631 2591 
L 6244 2591 
L 6244 1891 
L 5453 1891 
L 5925 1259 
z
M 4209 1169 
Q 4600 1391 5284 1891 
L 3647 1891 
Q 3888 1488 4209 1169 
z
M 2916 1619 
Q 2722 1406 2506 1203 
L 2506 166 
L 3713 513 
Q 3225 994 2916 1619 
z
" transform="scale(0.015625)"/>
     <path id="MicrosoftYaHei-Bold-73b0" d="M 2475 1172 
L 2475 5103 
L 5900 5103 
L 5900 1222 
L 5075 1222 
L 5075 4284 
L 3300 4284 
L 3300 1172 
L 2475 1172 
z
M 338 -553 
L 75 359 
L 813 619 
L 813 2153 
L 206 2153 
L 206 2978 
L 813 2978 
L 813 4191 
L 163 4191 
L 163 5016 
L 2294 5016 
L 2294 4191 
L 1625 4191 
L 1625 2978 
L 2206 2978 
L 2206 2153 
L 1625 2153 
L 1625 931 
Q 1988 1078 2238 1203 
Q 2269 684 2319 309 
Q 1269 -122 338 -553 
z
M 5506 1003 
Q 5988 772 6306 659 
Q 6169 -353 5964 -540 
Q 5759 -728 5481 -728 
L 4819 -728 
Q 4075 -728 4075 -22 
L 4075 800 
Q 3575 -181 2463 -859 
Q 2200 -509 1850 -134 
Q 2972 434 3361 1164 
Q 3750 1894 3744 3903 
L 4588 3903 
Q 4575 2547 4375 1672 
L 4863 1672 
L 4863 278 
Q 4863 3 5128 3 
Q 5334 3 5398 145 
Q 5463 288 5506 1003 
z
" transform="scale(0.015625)"/>
    </defs>
    <use xlink:href="#MicrosoftYaHei-Bold-5168"/>
    <use xlink:href="#MicrosoftYaHei-Bold-7403" transform="translate(100 0)"/>
    <use xlink:href="#MicrosoftYaHei-Bold-4e3b" transform="translate(200 0)"/>
    <use xlink:href="#MicrosoftYaHei-Bold-8981" transform="translate(300 0)"/>
    <use xlink:href="#MicrosoftYaHei-Bold-6307" transform="translate(400 0)"/>
    <use xlink:href="#MicrosoftYaHei-Bold-6570" transform="translate(500 0)"/>
    <use xlink:href="#MicrosoftYaHei-Bold-20" transform="translate(600 0)"/>
    <use xlink:href="#MicrosoftYaHei-Bold-9694" transform="translate(629.785156 0)"/>
    <use xlink:href="#MicrosoftYaHei-Bold-591c" transform="translate(729.785156 0)"/>
    <use xlink:href="#MicrosoftYaHei-Bold-8868" transform="translate(829.785156 0)"/>
    <use xlink:href="#MicrosoftYaHei-Bold-73b0" transform="translate(929.785156 0)"/>
   </g>
  </g>
  <g id="text_27">
   <!-- 2026年5月27日 · 亚太领涨 · 红涨绿跌 -->
   <g style="fill: #64748b" transform="translate(59.956719 43.609937) scale(0.09 -0.09)">
    <defs>
     <path id="MicrosoftYaHei-32" d="M 2666 3572 
Q 2666 3963 2419 4186 
Q 2172 4409 1747 4409 
Q 1447 4409 1140 4256 
Q 834 4103 569 3819 
L 569 4413 
Q 806 4659 1107 4790 
Q 1409 4922 1816 4922 
Q 2472 4922 2872 4570 
Q 3272 4219 3272 3619 
Q 3272 3084 3026 2693 
Q 2781 2303 2188 1894 
Q 1581 1475 1376 1294 
Q 1172 1113 1090 947 
Q 1009 781 1009 544 
L 3416 544 
L 3416 0 
L 372 0 
L 372 241 
Q 372 659 486 951 
Q 600 1244 862 1520 
Q 1125 1797 1681 2184 
Q 2250 2584 2458 2886 
Q 2666 3188 2666 3572 
z
" transform="scale(0.015625)"/>
     <path id="MicrosoftYaHei-30" d="M 284 2325 
Q 284 3606 709 4264 
Q 1134 4922 1941 4922 
Q 3478 4922 3478 2441 
Q 3478 1216 3045 567 
Q 2613 -81 1831 -81 
Q 1094 -81 689 534 
Q 284 1150 284 2325 
z
M 909 2353 
Q 909 425 1888 425 
Q 2850 425 2850 2384 
Q 2850 4413 1906 4413 
Q 909 4413 909 2353 
z
" transform="scale(0.015625)"/>
     <path id="MicrosoftYaHei-36" d="M 3181 4219 
Q 2803 4413 2391 4413 
Q 1763 4413 1381 3866 
Q 1000 3319 994 2372 
L 1009 2372 
Q 1353 3038 2106 3038 
Q 2734 3038 3109 2628 
Q 3484 2219 3484 1541 
Q 3484 831 3051 375 
Q 2619 -81 1947 -81 
Q 1209 -81 789 495 
Q 369 1072 369 2131 
Q 369 3413 920 4167 
Q 1472 4922 2372 4922 
Q 2888 4922 3181 4781 
L 3181 4219 
z
M 1031 1584 
Q 1031 1106 1286 765 
Q 1541 425 1963 425 
Q 2363 425 2613 719 
Q 2863 1013 2863 1475 
Q 2863 1975 2627 2253 
Q 2391 2531 1956 2531 
Q 1544 2531 1287 2250 
Q 1031 1969 1031 1584 
z
" transform="scale(0.015625)"/>
     <path id="MicrosoftYaHei-5e74" d="M 119 1278 
L 1125 1278 
L 1125 3066 
L 3338 3066 
L 3338 4178 
L 1500 4178 
Q 1078 3419 556 2778 
Q 394 2953 169 3128 
Q 1056 4128 1500 5372 
L 2013 5228 
Q 1881 4919 1738 4628 
L 6038 4628 
L 6038 4178 
L 3844 4178 
L 3844 3066 
L 5931 3066 
L 5931 2628 
L 3844 2628 
L 3844 1278 
L 6319 1278 
L 6319 828 
L 3844 828 
L 3844 -859 
L 3338 -859 
L 3338 828 
L 119 828 
L 119 1278 
z
M 1619 1278 
L 3338 1278 
L 3338 2628 
L 1619 2628 
L 1619 1278 
z
" transform="scale(0.015625)"/>
     <path id="MicrosoftYaHei-35" d="M 3294 1494 
Q 3294 784 2823 350 
Q 2353 -84 1559 -84 
Q 878 -84 544 119 
L 544 744 
Q 1034 425 1544 425 
Q 2050 425 2361 704 
Q 2672 984 2672 1447 
Q 2672 1909 2348 2167 
Q 2025 2425 1434 2425 
Q 978 2425 613 2384 
L 791 4841 
L 3053 4841 
L 3053 4303 
L 1306 4303 
L 1206 2931 
L 1647 2950 
Q 2416 2950 2855 2567 
Q 3294 2184 3294 1494 
z
" transform="scale(0.015625)"/>
     <path id="MicrosoftYaHei-6708" d="M 1603 1284 
Q 1463 78 663 -897 
Q 463 -703 231 -522 
Q 838 134 1044 1041 
Q 1188 1709 1188 2891 
L 1188 5053 
L 5363 5053 
L 5363 178 
Q 5363 -747 4481 -747 
Q 4113 -747 3531 -734 
Q 3500 -509 3438 -209 
Q 4013 -247 4344 -247 
Q 4850 -247 4850 247 
L 4850 1284 
L 1603 1284 
z
M 1653 1741 
L 4850 1741 
L 4850 2941 
L 1700 2941 
Q 1700 2316 1653 1741 
z
M 1700 4584 
L 1700 3397 
L 4850 3397 
L 4850 4584 
L 1700 4584 
z
" transform="scale(0.015625)"/>
     <path id="MicrosoftYaHei-37" d="M 3422 4463 
Q 2659 3131 2223 1998 
Q 1788 866 1684 0 
L 1047 0 
Q 1163 853 1594 1947 
Q 2025 3041 2747 4300 
L 347 4300 
L 347 4841 
L 3422 4841 
L 3422 4463 
z
" transform="scale(0.015625)"/>
     <path id="MicrosoftYaHei-65e5" d="M 975 4909 
L 5431 4909 
L 5431 -766 
L 4900 -766 
L 4900 -322 
L 1506 -322 
L 1506 -766 
L 975 -766 
L 975 4909 
z
M 1506 2103 
L 1506 134 
L 4900 134 
L 4900 2103 
L 1506 2103 
z
M 1506 4441 
L 1506 2572 
L 4900 2572 
L 4900 4441 
L 1506 4441 
z
" transform="scale(0.015625)"/>
     <path id="MicrosoftYaHei-b7" d="M 372 2113 
Q 372 2278 490 2395 
Q 609 2513 775 2513 
Q 941 2513 1061 2397 
Q 1181 2281 1181 2113 
Q 1181 1950 1064 1831 
Q 947 1713 772 1713 
Q 600 1713 486 1831 
Q 372 1950 372 2113 
z
" transform="scale(0.015625)"/>
     <path id="MicrosoftYaHei-4e9a" d="M 106 47 
L 2125 47 
L 2125 4428 
L 350 4428 
L 350 4903 
L 6063 4903 
L 6063 4428 
L 4269 4428 
L 4269 47 
L 6294 47 
L 6294 -416 
L 106 -416 
L 106 47 
z
M 2650 47 
L 3744 47 
L 3744 4428 
L 2650 4428 
L 2650 47 
z
M 4494 1178 
Q 4994 2197 5519 3691 
L 6025 3491 
Q 5444 1978 4944 972 
L 4494 1178 
z
M 900 3703 
Q 1431 2447 1869 1234 
L 1350 1003 
Q 938 2309 450 3503 
L 900 3703 
z
" transform="scale(0.015625)"/>
     <path id="MicrosoftYaHei-592a" d="M 81 -347 
Q 2525 969 2834 3284 
L 200 3284 
L 200 3772 
L 2878 3772 
Q 2900 4397 2900 5291 
L 3444 5291 
Q 3444 4494 3425 3772 
L 6194 3772 
L 6194 3284 
L 3453 3284 
Q 4106 747 6306 -197 
Q 6006 -491 5850 -697 
Q 3831 441 3197 2638 
Q 2675 488 469 -816 
Q 344 -653 81 -347 
z
M 2481 478 
L 2881 791 
Q 3331 309 3763 -178 
L 3319 -534 
Q 2931 -41 2481 478 
z
" transform="scale(0.015625)"/>
     <path id="MicrosoftYaHei-9886" d="M 3000 3716 
L 4106 3716 
L 4263 4572 
L 2700 4572 
L 2700 5009 
L 6294 5009 
L 6294 4572 
L 4769 4572 
L 4588 3716 
L 6000 3716 
L 6000 728 
L 5550 728 
L 5550 3284 
L 3450 3284 
L 3450 703 
L 3000 703 
L 3000 3716 
z
M 4263 3028 
L 4713 3028 
L 4713 2091 
Q 4713 1397 4563 897 
Q 5469 234 6288 -472 
L 5913 -866 
Q 5200 -178 4381 466 
Q 4350 409 4319 359 
Q 3894 -322 2819 -872 
Q 2613 -609 2469 -459 
Q 3506 -9 3894 584 
Q 4263 1109 4263 2103 
L 4263 3028 
z
M 544 891 
L 913 1166 
Q 1200 822 1475 484 
Q 1800 1066 2131 1872 
L 294 1872 
L 294 2303 
L 2638 2303 
L 2638 1872 
Q 2163 809 1775 109 
Q 2019 -191 2250 -497 
L 1819 -797 
Q 1194 122 544 891 
z
M 1850 5191 
L 1775 5022 
Q 2350 4353 2894 3603 
L 2519 3266 
Q 2031 4003 1569 4591 
Q 1081 3553 375 2553 
Q 250 2766 69 2991 
Q 819 3922 1363 5191 
L 1850 5191 
z
M 1175 3509 
L 1563 3703 
Q 1844 3259 2088 2766 
L 1656 2541 
Q 1494 2941 1175 3509 
z
" transform="scale(0.015625)"/>
     <path id="MicrosoftYaHei-7ea2" d="M 2213 16 
L 4038 16 
L 4038 4253 
L 2538 4253 
L 2538 4741 
L 6081 4741 
L 6081 4253 
L 4569 4253 
L 4569 16 
L 6313 16 
L 6313 -472 
L 2213 -472 
L 2213 16 
z
M 919 1597 
Q 2063 1759 2488 1828 
Q 2450 1584 2431 1353 
Q 1644 1247 319 1041 
L 200 1503 
Q 716 2006 1241 2759 
Q 572 2719 256 2691 
L 131 3116 
Q 831 4022 1431 5347 
L 1938 5159 
Q 1319 4022 725 3153 
Q 1138 3163 1516 3175 
Q 1769 3566 2025 4016 
L 2506 3784 
Q 1688 2528 919 1597 
z
M 119 222 
Q 1231 459 2500 747 
Q 2481 497 2481 259 
Q 1475 28 263 -284 
L 119 222 
z
" transform="scale(0.015625)"/>
     <path id="MicrosoftYaHei-7eff" d="M 2138 2972 
L 5088 2972 
L 5131 3566 
L 2575 3566 
L 2575 3978 
L 5159 3978 
L 5200 4559 
L 2475 4559 
L 2475 4984 
L 5694 4984 
L 5550 2972 
L 6313 2972 
L 6313 2547 
L 4456 2547 
L 4456 2272 
Q 4638 1781 4881 1388 
Q 5381 1788 5794 2266 
L 6163 1947 
Q 5728 1497 5141 1025 
Q 5634 416 6338 116 
Q 6106 -78 5919 -284 
Q 5016 213 4456 1294 
L 4456 28 
Q 4456 -772 3681 -772 
Q 3406 -772 2869 -766 
Q 2831 -528 2775 -247 
Q 3256 -297 3563 -297 
Q 3981 -297 3981 147 
L 3981 2547 
L 2138 2547 
L 2138 2972 
z
M 875 1578 
Q 1463 1659 2094 1766 
Q 2056 1522 2038 1291 
Q 1188 1166 319 1022 
L 225 1484 
Q 553 1819 1119 2791 
Q 566 2756 231 2722 
L 113 3147 
Q 669 3891 1275 5347 
L 1744 5159 
Q 1094 3872 656 3184 
Q 997 3194 1353 3200 
Q 1581 3609 1844 4109 
L 2306 3903 
Q 1513 2522 875 1578 
z
M 94 103 
Q 931 278 2025 559 
Q 2006 222 2006 97 
Q 1156 -109 225 -372 
L 94 103 
z
M 3681 1303 
Q 3763 1072 3881 872 
Q 3313 509 2381 -116 
L 2088 297 
Q 2925 778 3681 1303 
z
M 2594 2328 
Q 3013 1984 3444 1559 
Q 3263 1397 3088 1228 
Q 2663 1697 2288 2041 
L 2594 2328 
z
" transform="scale(0.015625)"/>
    </defs>
    <use xlink:href="#MicrosoftYaHei-32"/>
    <use xlink:href="#MicrosoftYaHei-30" transform="translate(58.642578 0)"/>
    <use xlink:href="#MicrosoftYaHei-32" transform="translate(117.285156 0)"/>
    <use xlink:href="#MicrosoftYaHei-36" transform="translate(175.927734 0)"/>
    <use xlink:href="#MicrosoftYaHei-5e74" transform="translate(234.570312 0)"/>
    <use xlink:href="#MicrosoftYaHei-35" transform="translate(334.570312 0)"/>
    <use xlink:href="#MicrosoftYaHei-6708" transform="translate(393.212891 0)"/>
    <use xlink:href="#MicrosoftYaHei-32" transform="translate(493.212891 0)"/>
    <use xlink:href="#MicrosoftYaHei-37" transform="translate(551.855469 0)"/>
    <use xlink:href="#MicrosoftYaHei-65e5" transform="translate(610.498047 0)"/>
    <use xlink:href="#MicrosoftYaHei-20" transform="translate(710.498047 0)"/>
    <use xlink:href="#MicrosoftYaHei-b7" transform="translate(740.087891 0)"/>
    <use xlink:href="#MicrosoftYaHei-20" transform="translate(764.160156 0)"/>
    <use xlink:href="#MicrosoftYaHei-4e9a" transform="translate(793.75 0)"/>
    <use xlink:href="#MicrosoftYaHei-592a" transform="translate(893.75 0)"/>
    <use xlink:href="#MicrosoftYaHei-9886" transform="translate(993.75 0)"/>
    <use xlink:href="#MicrosoftYaHei-6da8" transform="translate(1093.75 0)"/>
    <use xlink:href="#MicrosoftYaHei-20" transform="translate(1193.75 0)"/>
    <use xlink:href="#MicrosoftYaHei-b7" transform="translate(1223.339844 0)"/>
    <use xlink:href="#MicrosoftYaHei-20" transform="translate(1247.412109 0)"/>
    <use xlink:href="#MicrosoftYaHei-7ea2" transform="translate(1277.001953 0)"/>
    <use xlink:href="#MicrosoftYaHei-6da8" transform="translate(1377.001953 0)"/>
    <use xlink:href="#MicrosoftYaHei-7eff" transform="translate(1477.001953 0)"/>
    <use xlink:href="#MicrosoftYaHei-8dcc" transform="translate(1577.001953 0)"/>
   </g>
  </g>
  <g id="text_28">
   <!-- 来源: 各国交易所 / Bloomberg · 2026-05-27 -->
   <g style="fill: #94a3b8" transform="translate(59.956719 268.690125) scale(0.065 -0.065)">
    <defs>
     <path id="MicrosoftYaHei-6765" d="M 6325 141 
Q 6119 -122 5975 -334 
Q 4344 403 3438 1550 
L 3438 -841 
L 2963 -841 
L 2963 1584 
Q 2050 516 413 -409 
Q 281 -222 75 22 
Q 1706 841 2806 1922 
L 181 1922 
L 181 2359 
L 2963 2359 
L 2963 4003 
L 550 4003 
L 550 4441 
L 2963 4441 
L 2963 5341 
L 3438 5341 
L 3438 4441 
L 5900 4441 
L 5900 4003 
L 3438 4003 
L 3438 2359 
L 6225 2359 
L 6225 1922 
L 3566 1922 
Q 4594 778 6325 141 
z
M 4056 2766 
Q 4631 3378 4950 3828 
L 5381 3497 
Q 4913 2941 4419 2453 
L 4056 2766 
z
M 1075 3509 
L 1438 3803 
Q 1900 3347 2313 2828 
L 1900 2484 
Q 1581 2922 1075 3509 
z
" transform="scale(0.015625)"/>
     <path id="MicrosoftYaHei-6e90" d="M 2931 3741 
L 3744 3741 
Q 3878 4094 4006 4478 
L 2425 4478 
L 2425 2678 
Q 2425 222 1463 -841 
Q 1313 -647 1100 -453 
Q 1963 509 1963 2672 
L 1963 4903 
L 6300 4903 
L 6300 4478 
L 4547 4478 
Q 4375 4103 4194 3741 
L 5844 3741 
L 5844 1178 
L 5394 1178 
L 5394 1341 
L 4588 1341 
L 4588 -128 
Q 4588 -797 3938 -797 
Q 3725 -797 3394 -791 
Q 3363 -603 3306 -359 
Q 3619 -384 3850 -384 
Q 4138 -384 4138 -84 
L 4138 1341 
L 3381 1341 
L 3381 1178 
L 2931 1178 
L 2931 3741 
z
M 831 1878 
Q 1056 1734 1275 1666 
Q 1019 603 700 -766 
L 219 -603 
Q 581 678 831 1878 
z
M 3381 1753 
L 5394 1753 
L 5394 2347 
L 3381 2347 
L 3381 1753 
z
M 5394 3328 
L 3381 3328 
L 3381 2747 
L 5394 2747 
L 5394 3328 
z
M 6288 -241 
L 5894 -541 
Q 5450 128 4931 759 
L 5294 1016 
Q 5863 353 6288 -241 
z
M 2363 -297 
Q 2894 272 3306 984 
L 3706 741 
Q 3231 -16 2731 -584 
L 2363 -297 
z
M 400 3622 
Q 888 3272 1500 2784 
Q 1281 2522 1144 2378 
Q 544 2909 88 3266 
L 400 3622 
z
M 669 5228 
Q 1163 4859 1688 4384 
Q 1469 4172 1313 4003 
Q 769 4541 350 4884 
L 669 5228 
z
" transform="scale(0.015625)"/>
     <path id="MicrosoftYaHei-3a" d="M 372 3134 
Q 372 3303 490 3415 
Q 609 3528 775 3528 
Q 944 3528 1062 3414 
Q 1181 3300 1181 3134 
Q 1181 2969 1065 2853 
Q 950 2738 772 2738 
Q 603 2738 487 2853 
Q 372 2969 372 3134 
z
M 372 322 
Q 372 491 487 606 
Q 603 722 775 722 
Q 950 722 1065 605 
Q 1181 488 1181 322 
Q 1181 159 1065 42 
Q 950 -75 772 -75 
Q 600 -75 486 42 
Q 372 159 372 322 
z
" transform="scale(0.015625)"/>
     <path id="MicrosoftYaHei-5404" d="M 1838 5366 
L 2325 5191 
Q 2191 4934 2038 4691 
L 5463 4691 
L 5463 4234 
Q 4819 3428 3806 2831 
Q 4881 2366 6375 2266 
Q 6169 1953 6025 1703 
Q 4388 1947 3272 2544 
Q 2022 1925 300 1578 
Q 169 1828 31 2059 
Q 1591 2303 2775 2844 
Q 2041 3347 1588 4038 
Q 1138 3444 569 2916 
Q 400 3122 225 3278 
Q 1288 4191 1838 5366 
z
M 1100 1666 
L 5363 1666 
L 5363 -803 
L 4875 -803 
L 4875 -441 
L 1588 -441 
L 1588 -803 
L 1100 -803 
L 1100 1666 
z
M 4875 1216 
L 1588 1216 
L 1588 -3 
L 4875 -3 
L 4875 1216 
z
M 4794 4241 
L 1988 4241 
Q 2494 3547 3275 3094 
Q 4153 3575 4794 4241 
z
" transform="scale(0.015625)"/>
     <path id="MicrosoftYaHei-56fd" d="M 469 4997 
L 5938 4997 
L 5938 -834 
L 5456 -834 
L 5456 -522 
L 950 -522 
L 950 -841 
L 469 -841 
L 469 4997 
z
M 5456 4553 
L 950 4553 
L 950 -78 
L 5456 -78 
L 5456 4553 
z
M 1238 1009 
L 2963 1009 
L 2963 2247 
L 1456 2247 
L 1456 2672 
L 2963 2672 
L 2963 3509 
L 1338 3509 
L 1338 3934 
L 5063 3934 
L 5063 3509 
L 3425 3509 
L 3425 2672 
L 4938 2672 
L 4938 2247 
L 3425 2247 
L 3425 1009 
L 5163 1009 
L 5163 584 
L 1238 584 
L 1238 1009 
z
M 3750 1847 
L 4100 2109 
Q 4444 1753 4688 1441 
L 4319 1159 
Q 4019 1566 3750 1847 
z
" transform="scale(0.015625)"/>
     <path id="MicrosoftYaHei-4ea4" d="M 4194 2641 
L 4675 2434 
Q 4209 1375 3566 713 
Q 4503 19 6225 -278 
Q 5994 -591 5850 -803 
Q 4184 -378 3194 375 
Q 2334 -297 463 -847 
Q 325 -628 150 -366 
Q 1909 78 2803 713 
Q 2184 1344 1738 2359 
L 2156 2597 
Q 2566 1669 3194 1041 
Q 3766 1609 4194 2641 
z
M 194 4384 
L 3122 4384 
Q 2975 4691 2700 5128 
L 3163 5353 
Q 3431 4978 3638 4566 
L 3288 4384 
L 6194 4384 
L 6194 3922 
L 194 3922 
L 194 4384 
z
M 2044 3634 
L 2444 3309 
Q 1569 2391 625 1666 
Q 469 1859 275 2066 
Q 1219 2734 2044 3634 
z
M 4288 3666 
Q 5431 2766 6075 2159 
Q 5900 1984 5700 1753 
Q 4994 2478 3944 3341 
L 4288 3666 
z
" transform="scale(0.015625)"/>
     <path id="MicrosoftYaHei-6613" d="M 919 5022 
L 5519 5022 
L 5519 2422 
L 5031 2422 
L 5031 2672 
L 919 2672 
L 919 5022 
z
M 113 1091 
Q 1113 1634 1806 2566 
L 2250 2397 
Q 2125 2228 2000 2072 
L 5881 2072 
Q 5825 891 5763 247 
Q 5681 -759 4750 -766 
Q 4231 -772 3669 -766 
Q 3631 -497 3575 -234 
Q 4119 -284 4625 -284 
Q 5213 -284 5275 303 
Q 5344 866 5369 1634 
L 4406 1634 
Q 4025 -9 2188 -891 
Q 2025 -684 1838 -466 
Q 3588 253 3919 1634 
L 2969 1634 
Q 2513 303 556 -453 
Q 394 -247 206 -34 
Q 2050 653 2450 1634 
L 1606 1634 
Q 1075 1097 425 691 
Q 294 878 113 1091 
z
M 1406 3109 
L 5031 3109 
L 5031 3634 
L 1406 3634 
L 1406 3109 
z
M 5031 4584 
L 1406 4584 
L 1406 4072 
L 5031 4072 
L 5031 4584 
z
" transform="scale(0.015625)"/>
     <path id="MicrosoftYaHei-6240" d="M 638 4853 
Q 1675 4872 2806 5109 
L 2969 4641 
Q 2044 4503 1088 4434 
L 1088 3466 
L 2725 3466 
L 2725 1159 
L 2288 1159 
L 2288 1434 
L 1063 1434 
Q 959 3 406 -834 
Q 238 -628 63 -453 
Q 638 334 638 2134 
L 638 4853 
z
M 3325 4816 
Q 4813 4872 6031 5091 
L 6200 4616 
Q 4638 4441 3788 4391 
L 3788 2997 
L 6319 2997 
L 6319 2566 
L 5350 2566 
L 5350 -809 
L 4881 -809 
L 4881 2566 
L 3788 2566 
L 3788 2216 
Q 3788 247 2694 -878 
Q 2513 -666 2338 -466 
Q 3325 547 3325 2228 
L 3325 4816 
z
M 2288 1847 
L 2288 3053 
L 1088 3053 
Q 1088 2122 1084 1847 
L 2288 1847 
z
" transform="scale(0.015625)"/>
     <path id="MicrosoftYaHei-2f" d="M 2791 4841 
L 469 -803 
L -103 -803 
L 2219 4841 
L 2791 4841 
z
" transform="scale(0.015625)"/>
     <path id="MicrosoftYaHei-42" d="M 625 0 
L 625 4841 
L 2047 4841 
Q 2684 4841 3065 4536 
Q 3447 4231 3447 3728 
Q 3447 3328 3220 3022 
Q 2994 2716 2597 2588 
L 2597 2575 
Q 3091 2519 3386 2201 
Q 3681 1884 3681 1397 
Q 3681 772 3232 386 
Q 2784 0 2084 0 
L 625 0 
z
M 1250 4294 
L 1250 2778 
L 1819 2778 
Q 2272 2778 2530 2998 
Q 2788 3219 2788 3609 
Q 2788 4294 1875 4294 
L 1250 4294 
z
M 1250 2234 
L 1250 547 
L 2000 547 
Q 2491 547 2758 773 
Q 3025 1000 3025 1403 
Q 3025 2234 1897 2234 
L 1250 2234 
z
" transform="scale(0.015625)"/>
     <path id="MicrosoftYaHei-6c" d="M 544 0 
L 544 5116 
L 1156 5116 
L 1156 0 
L 544 0 
z
" transform="scale(0.015625)"/>
     <path id="MicrosoftYaHei-6f" d="M 316 1691 
Q 316 2547 794 3042 
Q 1272 3538 2091 3538 
Q 2869 3538 3311 3061 
Q 3753 2584 3753 1744 
Q 3753 925 3281 422 
Q 2809 -81 2016 -81 
Q 1241 -81 778 406 
Q 316 894 316 1691 
z
M 941 1709 
Q 941 1113 1242 769 
Q 1544 425 2053 425 
Q 2578 425 2853 761 
Q 3128 1097 3128 1725 
Q 3128 2356 2853 2693 
Q 2578 3031 2053 3031 
Q 1538 3031 1239 2678 
Q 941 2325 941 1709 
z
" transform="scale(0.015625)"/>
     <path id="MicrosoftYaHei-6d" d="M 5522 0 
L 4909 0 
L 4909 1984 
Q 4909 2547 4734 2789 
Q 4559 3031 4159 3031 
Q 3822 3031 3581 2715 
Q 3341 2400 3341 1969 
L 3341 0 
L 2728 0 
L 2728 2047 
Q 2728 3031 1969 3031 
Q 1619 3031 1389 2731 
Q 1159 2431 1159 1966 
L 1159 0 
L 547 0 
L 547 3456 
L 1159 3456 
L 1159 2909 
L 1172 2909 
Q 1541 3538 2250 3538 
Q 2597 3538 2862 3347 
Q 3128 3156 3231 2831 
Q 3616 3538 4381 3538 
Q 5522 3538 5522 2131 
L 5522 0 
z
" transform="scale(0.015625)"/>
     <path id="MicrosoftYaHei-62" d="M 1159 488 
L 1159 0 
L 547 0 
L 547 5116 
L 1159 5116 
L 1159 2859 
L 1172 2859 
Q 1578 3538 2359 3538 
Q 3009 3538 3392 3080 
Q 3775 2622 3775 1828 
Q 3775 953 3345 436 
Q 2916 -81 2200 -81 
Q 1525 -81 1172 488 
L 1159 488 
z
M 1156 1422 
Q 1156 1003 1428 714 
Q 1700 425 2109 425 
Q 2597 425 2872 800 
Q 3147 1175 3147 1838 
Q 3147 2384 2890 2707 
Q 2634 3031 2191 3031 
Q 1741 3031 1448 2709 
Q 1156 2388 1156 1891 
L 1156 1422 
z
" transform="scale(0.015625)"/>
     <path id="MicrosoftYaHei-65" d="M 3363 1572 
L 944 1572 
Q 959 1019 1246 717 
Q 1534 416 2050 416 
Q 2631 416 3116 788 
L 3116 241 
Q 2659 -81 1906 -81 
Q 1156 -81 736 394 
Q 316 869 316 1713 
Q 316 2506 777 3022 
Q 1238 3538 1922 3538 
Q 2600 3538 2981 3102 
Q 3363 2666 3363 1881 
L 3363 1572 
z
M 2750 2063 
Q 2747 2531 2528 2787 
Q 2309 3044 1913 3044 
Q 1547 3044 1280 2772 
Q 1013 2500 944 2063 
L 2750 2063 
z
" transform="scale(0.015625)"/>
     <path id="MicrosoftYaHei-72" d="M 2400 2850 
Q 2247 2959 1978 2959 
Q 1622 2959 1390 2626 
Q 1159 2294 1159 1750 
L 1159 0 
L 547 0 
L 547 3456 
L 1159 3456 
L 1159 2753 
L 1172 2753 
Q 1434 3516 2078 3516 
Q 2288 3516 2400 3469 
L 2400 2850 
z
" transform="scale(0.015625)"/>
     <path id="MicrosoftYaHei-67" d="M 3547 291 
Q 3547 -1628 1684 -1628 
Q 1041 -1628 566 -1388 
L 566 -797 
Q 1144 -1119 1675 -1119 
Q 2934 -1119 2934 206 
L 2934 572 
L 2922 572 
Q 2528 -81 1747 -81 
Q 1097 -81 706 384 
Q 316 850 316 1619 
Q 316 2503 747 3020 
Q 1178 3538 1897 3538 
Q 2588 3538 2922 2988 
L 2934 2988 
L 2934 3456 
L 3547 3456 
L 3547 291 
z
M 2934 2056 
Q 2938 2456 2666 2743 
Q 2394 3031 1997 3031 
Q 1497 3031 1219 2664 
Q 941 2297 941 1656 
Q 941 1106 1209 765 
Q 1478 425 1922 425 
Q 2369 425 2653 750 
Q 2938 1075 2934 1575 
L 2934 2056 
z
" transform="scale(0.015625)"/>
     <path id="MicrosoftYaHei-2d" d="M 2328 1681 
L 488 1681 
L 488 2153 
L 2328 2153 
L 2328 1681 
z
" transform="scale(0.015625)"/>
    </defs>
    <use xlink:href="#MicrosoftYaHei-6765"/>
    <use xlink:href="#MicrosoftYaHei-6e90" transform="translate(100 0)"/>
    <use xlink:href="#MicrosoftYaHei-3a" transform="translate(200 0)"/>
    <use xlink:href="#MicrosoftYaHei-20" transform="translate(224.072266 0)"/>
    <use xlink:href="#MicrosoftYaHei-5404" transform="translate(253.662109 0)"/>
    <use xlink:href="#MicrosoftYaHei-56fd" transform="translate(353.662109 0)"/>
    <use xlink:href="#MicrosoftYaHei-4ea4" transform="translate(453.662109 0)"/>
    <use xlink:href="#MicrosoftYaHei-6613" transform="translate(553.662109 0)"/>
    <use xlink:href="#MicrosoftYaHei-6240" transform="translate(653.662109 0)"/>
    <use xlink:href="#MicrosoftYaHei-20" transform="translate(753.662109 0)"/>
    <use xlink:href="#MicrosoftYaHei-2f" transform="translate(783.251953 0)"/>
    <use xlink:href="#MicrosoftYaHei-20" transform="translate(825.976562 0)"/>
    <use xlink:href="#MicrosoftYaHei-42" transform="translate(855.566406 0)"/>
    <use xlink:href="#MicrosoftYaHei-6c" transform="translate(918.310547 0)"/>
    <use xlink:href="#MicrosoftYaHei-6f" transform="translate(944.921875 0)"/>
    <use xlink:href="#MicrosoftYaHei-6f" transform="translate(1008.496094 0)"/>
    <use xlink:href="#MicrosoftYaHei-6d" transform="translate(1072.070312 0)"/>
    <use xlink:href="#MicrosoftYaHei-62" transform="translate(1165.771484 0)"/>
    <use xlink:href="#MicrosoftYaHei-65" transform="translate(1229.638672 0)"/>
    <use xlink:href="#MicrosoftYaHei-72" transform="translate(1286.376953 0)"/>
    <use xlink:href="#MicrosoftYaHei-67" transform="translate(1323.185547 0)"/>
    <use xlink:href="#MicrosoftYaHei-20" transform="translate(1387.150391 0)"/>
    <use xlink:href="#MicrosoftYaHei-b7" transform="translate(1416.740234 0)"/>
    <use xlink:href="#MicrosoftYaHei-20" transform="translate(1440.8125 0)"/>
    <use xlink:href="#MicrosoftYaHei-32" transform="translate(1470.402344 0)"/>
    <use xlink:href="#MicrosoftYaHei-30" transform="translate(1529.044922 0)"/>
    <use xlink:href="#MicrosoftYaHei-32" transform="translate(1587.6875 0)"/>
    <use xlink:href="#MicrosoftYaHei-36" transform="translate(1646.330078 0)"/>
    <use xlink:href="#MicrosoftYaHei-2d" transform="translate(1704.972656 0)"/>
    <use xlink:href="#MicrosoftYaHei-30" transform="translate(1748.234375 0)"/>
    <use xlink:href="#MicrosoftYaHei-35" transform="translate(1806.876953 0)"/>
    <use xlink:href="#MicrosoftYaHei-2d" transform="translate(1865.519531 0)"/>
    <use xlink:href="#MicrosoftYaHei-32" transform="translate(1908.78125 0)"/>
    <use xlink:href="#MicrosoftYaHei-37" transform="translate(1967.423828 0)"/>
   </g>
  </g>
 </g>
 <defs>
  <clipPath id="p3c54ec3dd2">
   <rect x="59.956719" y="80.191562" width="314.82" height="175.104"/>
  </clipPath>
 </defs>
</svg>
