<?xml version="1.0" encoding="utf-8" standalone="no"?>
<!DOCTYPE svg PUBLIC "-//W3C//DTD SVG 1.1//EN"
  "http://www.w3.org/Graphics/SVG/1.1/DTD/svg11.dtd">
<svg xmlns:xlink="http://www.w3.org/1999/xlink" width="362.630156pt" height="280.990437pt" viewBox="0 0 362.630156 280.990437" xmlns="http://www.w3.org/2000/svg" version="1.1">
 <metadata>
  <rdf:RDF xmlns:dc="http://purl.org/dc/elements/1.1/" xmlns:cc="http://creativecommons.org/ns#" xmlns:rdf="http://www.w3.org/1999/02/22-rdf-syntax-ns#">
   <cc:Work>
    <dc:type rdf:resource="http://purl.org/dc/dcmitype/StillImage"/>
    <dc:date>2026-05-29T10:46:02.237091</dc:date>
    <dc:format>image/svg+xml</dc:format>
    <dc:creator>
     <cc:Agent>
      <dc:title>Matplotlib v3.10.9, https://matplotlib.org/</dc:title>
     </cc:Agent>
    </dc:creator>
   </cc:Work>
  </rdf:RDF>
 </metadata>
 <defs>
  <style type="text/css">*{stroke-linejoin: round; stroke-linecap: butt}</style>
 </defs>
 <g id="figure_1">
  <g id="patch_1">
   <path d="M 0 280.990437 
L 362.630156 280.990437 
L 362.630156 0 
L 0 0 
z
" style="fill: #f0f2f5"/>
  </g>
  <g id="axes_1">
   <g id="patch_2">
    <path d="M 37.010156 255.142437 
L 351.830156 255.142437 
L 351.830156 80.038437 
L 37.010156 80.038437 
z
" style="fill: #ffffff"/>
   </g>
   <g id="patch_3">
    <path d="M 37.010156 177.318437 
L 351.830156 177.318437 
L 351.830156 115.059237 
L 37.010156 115.059237 
z
" clip-path="url(#p67eb1e0ea7)" style="fill: #dc2626; opacity: 0.06; stroke: #dc2626; stroke-width: 1.5; stroke-linejoin: miter"/>
   </g>
   <g id="patch_4">
    <path d="M 37.010156 235.686437 
L 351.830156 235.686437 
L 351.830156 196.774437 
L 37.010156 196.774437 
z
" clip-path="url(#p67eb1e0ea7)" style="fill: #16a34a; opacity: 0.06; stroke: #16a34a; stroke-width: 1.5; stroke-linejoin: miter"/>
   </g>
   <g id="matplotlib.axis_1">
    <g id="xtick_1">
     <g id="line2d_1"/>
     <g id="text_1">
      <!-- 25/1 -->
      <g style="fill: #94a3b8" transform="translate(42.505781 265.789) scale(0.09 -0.09)">
       <defs>
        <path id="NotoSansSC-Thin-32" d="M 294 0 
L 294 147 
Q 1120 858 1613 1434 
Q 2106 2010 2323 2499 
Q 2541 2989 2541 3424 
Q 2541 3725 2435 3974 
Q 2330 4224 2106 4371 
Q 1882 4518 1523 4518 
Q 1210 4518 931 4352 
Q 653 4186 442 3923 
L 282 4070 
Q 525 4346 829 4538 
Q 1133 4730 1542 4730 
Q 1939 4730 2214 4566 
Q 2490 4403 2637 4112 
Q 2784 3821 2784 3424 
Q 2784 2918 2537 2406 
Q 2291 1894 1820 1347 
Q 1350 800 678 179 
Q 870 192 1062 201 
Q 1254 211 1440 211 
L 3014 211 
L 3014 0 
L 294 0 
z
" transform="scale(0.015625)"/>
        <path id="NotoSansSC-Thin-35" d="M 1581 -83 
Q 1222 -83 963 9 
Q 704 102 515 240 
Q 326 378 186 518 
L 333 691 
Q 467 550 636 422 
Q 806 294 1040 211 
Q 1274 128 1594 128 
Q 1901 128 2166 294 
Q 2432 461 2592 765 
Q 2752 1069 2752 1466 
Q 2752 2061 2441 2406 
Q 2131 2752 1606 2752 
Q 1350 2752 1152 2665 
Q 954 2579 755 2445 
L 563 2560 
L 730 4646 
L 2758 4646 
L 2758 4435 
L 941 4435 
L 787 2726 
Q 966 2835 1168 2902 
Q 1370 2970 1626 2970 
Q 2010 2970 2320 2813 
Q 2630 2656 2812 2326 
Q 2995 1997 2995 1478 
Q 2995 979 2787 630 
Q 2579 282 2256 99 
Q 1933 -83 1581 -83 
z
" transform="scale(0.015625)"/>
        <path id="NotoSansSC-Thin-2f" d="M 58 -1126 
L 2298 5005 
L 2515 5005 
L 282 -1126 
L 58 -1126 
z
" transform="scale(0.015625)"/>
        <path id="NotoSansSC-Thin-31" d="M 608 0 
L 608 211 
L 1677 211 
L 1677 4211 
L 864 4211 
L 864 4378 
Q 1133 4422 1344 4492 
Q 1555 4563 1702 4646 
L 1901 4646 
L 1901 211 
L 2899 211 
L 2899 0 
L 608 0 
z
" transform="scale(0.015625)"/>
       </defs>
       <use xlink:href="#NotoSansSC-Thin-32"/>
       <use xlink:href="#NotoSansSC-Thin-35" transform="translate(52.099991 0)"/>
       <use xlink:href="#NotoSansSC-Thin-2f" transform="translate(104.199982 0)"/>
       <use xlink:href="#NotoSansSC-Thin-31" transform="translate(143.799973 0)"/>
      </g>
     </g>
    </g>
    <g id="xtick_2">
     <g id="line2d_2"/>
     <g id="text_2">
      <!-- 3 -->
      <g style="fill: #94a3b8" transform="translate(84.750938 265.789) scale(0.09 -0.09)">
       <defs>
        <path id="NotoSansSC-Thin-33" d="M 1619 -83 
Q 1261 -83 998 13 
Q 736 109 544 256 
Q 352 403 211 550 
L 358 717 
Q 563 499 857 313 
Q 1152 128 1632 128 
Q 1952 128 2198 262 
Q 2445 397 2585 640 
Q 2726 883 2726 1210 
Q 2726 1542 2560 1795 
Q 2394 2048 2038 2189 
Q 1683 2330 1114 2330 
L 1114 2554 
Q 1651 2554 1964 2698 
Q 2278 2842 2416 3088 
Q 2554 3334 2554 3629 
Q 2554 4026 2298 4272 
Q 2042 4518 1606 4518 
Q 1293 4518 1017 4374 
Q 742 4230 557 4026 
L 410 4192 
Q 634 4410 925 4570 
Q 1216 4730 1606 4730 
Q 1939 4730 2211 4598 
Q 2483 4467 2643 4224 
Q 2803 3981 2803 3642 
Q 2803 3168 2550 2877 
Q 2298 2586 1926 2464 
L 1926 2438 
Q 2208 2381 2445 2221 
Q 2682 2061 2826 1808 
Q 2970 1555 2970 1222 
Q 2970 826 2790 531 
Q 2611 237 2307 77 
Q 2003 -83 1619 -83 
z
" transform="scale(0.015625)"/>
       </defs>
       <use xlink:href="#NotoSansSC-Thin-33"/>
      </g>
     </g>
    </g>
    <g id="xtick_3">
     <g id="line2d_3"/>
     <g id="text_3">
      <!-- 5 -->
      <g style="fill: #94a3b8" transform="translate(120.525938 265.789) scale(0.09 -0.09)">
       <use xlink:href="#NotoSansSC-Thin-35"/>
      </g>
     </g>
    </g>
    <g id="xtick_4">
     <g id="line2d_4"/>
     <g id="text_4">
      <!-- 7 -->
      <g style="fill: #94a3b8" transform="translate(156.300938 265.789) scale(0.09 -0.09)">
       <defs>
        <path id="NotoSansSC-Thin-37" d="M 1344 0 
Q 1376 717 1462 1318 
Q 1549 1920 1712 2445 
Q 1875 2970 2124 3459 
Q 2374 3949 2726 4435 
L 307 4435 
L 307 4646 
L 3034 4646 
L 3034 4512 
Q 2624 3955 2355 3436 
Q 2086 2918 1932 2384 
Q 1779 1850 1705 1267 
Q 1632 685 1606 0 
L 1344 0 
z
" transform="scale(0.015625)"/>
       </defs>
       <use xlink:href="#NotoSansSC-Thin-37"/>
      </g>
     </g>
    </g>
    <g id="xtick_5">
     <g id="line2d_5"/>
     <g id="text_5">
      <!-- 9 -->
      <g style="fill: #94a3b8" transform="translate(192.075938 265.789) scale(0.09 -0.09)">
       <defs>
        <path id="NotoSansSC-Thin-39" d="M 1370 -83 
Q 1050 -83 819 32 
Q 589 147 410 339 
L 557 506 
Q 723 314 934 221 
Q 1146 128 1389 128 
Q 1651 128 1891 256 
Q 2131 384 2316 675 
Q 2502 966 2611 1443 
Q 2720 1920 2720 2618 
Q 2720 3168 2592 3600 
Q 2464 4032 2195 4278 
Q 1926 4525 1498 4525 
Q 1229 4525 1014 4355 
Q 800 4186 675 3901 
Q 550 3616 550 3264 
Q 550 2912 652 2627 
Q 755 2342 979 2172 
Q 1203 2003 1555 2003 
Q 1830 2003 2137 2182 
Q 2445 2362 2739 2765 
L 2746 2470 
Q 2586 2278 2397 2128 
Q 2208 1978 1993 1891 
Q 1779 1805 1536 1805 
Q 1152 1805 877 1974 
Q 602 2144 454 2470 
Q 307 2797 307 3264 
Q 307 3686 473 4019 
Q 640 4352 912 4541 
Q 1184 4730 1510 4730 
Q 1850 4730 2118 4589 
Q 2387 4448 2572 4176 
Q 2758 3904 2857 3513 
Q 2957 3123 2957 2618 
Q 2957 1862 2825 1344 
Q 2694 826 2470 512 
Q 2246 198 1961 57 
Q 1677 -83 1370 -83 
z
" transform="scale(0.015625)"/>
       </defs>
       <use xlink:href="#NotoSansSC-Thin-39"/>
      </g>
     </g>
    </g>
    <g id="xtick_6">
     <g id="line2d_6"/>
     <g id="text_6">
      <!-- 11 -->
      <g style="fill: #94a3b8" transform="translate(225.506719 265.789) scale(0.09 -0.09)">
       <use xlink:href="#NotoSansSC-Thin-31"/>
       <use xlink:href="#NotoSansSC-Thin-31" transform="translate(52.099991 0)"/>
      </g>
     </g>
    </g>
    <g id="xtick_7">
     <g id="line2d_7"/>
     <g id="text_7">
      <!-- 26/1 -->
      <g style="fill: #94a3b8" transform="translate(257.155781 265.789) scale(0.09 -0.09)">
       <defs>
        <path id="NotoSansSC-Thin-36" d="M 1837 -83 
Q 1498 -83 1232 67 
Q 966 218 780 509 
Q 595 800 496 1216 
Q 397 1632 397 2170 
Q 397 2886 528 3379 
Q 659 3872 889 4169 
Q 1120 4467 1414 4598 
Q 1709 4730 2029 4730 
Q 2330 4730 2550 4614 
Q 2771 4499 2944 4307 
L 2790 4147 
Q 2643 4333 2444 4425 
Q 2246 4518 2022 4518 
Q 1651 4518 1334 4297 
Q 1018 4077 826 3561 
Q 634 3046 634 2170 
Q 634 1581 762 1120 
Q 890 659 1158 393 
Q 1427 128 1850 128 
Q 2125 128 2336 297 
Q 2547 467 2672 752 
Q 2797 1037 2797 1382 
Q 2797 1741 2694 2025 
Q 2592 2310 2368 2476 
Q 2144 2643 1779 2643 
Q 1523 2643 1209 2470 
Q 896 2298 602 1888 
L 602 2176 
Q 768 2381 957 2531 
Q 1146 2682 1360 2762 
Q 1574 2842 1792 2842 
Q 2189 2842 2467 2675 
Q 2746 2509 2893 2185 
Q 3040 1862 3040 1382 
Q 3040 960 2873 630 
Q 2707 301 2435 109 
Q 2163 -83 1837 -83 
z
" transform="scale(0.015625)"/>
       </defs>
       <use xlink:href="#NotoSansSC-Thin-32"/>
       <use xlink:href="#NotoSansSC-Thin-36" transform="translate(52.099991 0)"/>
       <use xlink:href="#NotoSansSC-Thin-2f" transform="translate(104.199982 0)"/>
       <use xlink:href="#NotoSansSC-Thin-31" transform="translate(143.799973 0)"/>
      </g>
     </g>
    </g>
    <g id="xtick_8">
     <g id="line2d_8"/>
     <g id="text_8">
      <!-- 3 -->
      <g style="fill: #94a3b8" transform="translate(299.400938 265.789) scale(0.09 -0.09)">
       <use xlink:href="#NotoSansSC-Thin-33"/>
      </g>
     </g>
    </g>
    <g id="xtick_9">
     <g id="line2d_9"/>
     <g id="text_9">
      <!-- 5 -->
      <g style="fill: #94a3b8" transform="translate(335.175938 265.789) scale(0.09 -0.09)">
       <use xlink:href="#NotoSansSC-Thin-35"/>
      </g>
     </g>
    </g>
   </g>
   <g id="matplotlib.axis_2">
    <g id="ytick_1">
     <g id="line2d_10">
      <path d="M 37.010156 255.142437 
L 351.830156 255.142437 
" clip-path="url(#p67eb1e0ea7)" style="fill: none; stroke: #e2e8f0; stroke-opacity: 0.6; stroke-width: 0.5; stroke-linecap: square"/>
     </g>
     <g id="line2d_11"/>
     <g id="text_10">
      <!-- 35 -->
      <g style="fill: #94a3b8" transform="translate(24.133281 258.715719) scale(0.09 -0.09)">
       <use xlink:href="#NotoSansSC-Thin-33"/>
       <use xlink:href="#NotoSansSC-Thin-35" transform="translate(52.099991 0)"/>
      </g>
     </g>
    </g>
    <g id="ytick_2">
     <g id="line2d_12">
      <path d="M 37.010156 235.686437 
L 351.830156 235.686437 
" clip-path="url(#p67eb1e0ea7)" style="fill: none; stroke: #e2e8f0; stroke-opacity: 0.6; stroke-width: 0.5; stroke-linecap: square"/>
     </g>
     <g id="line2d_13"/>
     <g id="text_11">
      <!-- 40 -->
      <g style="fill: #94a3b8" transform="translate(24.133281 239.259719) scale(0.09 -0.09)">
       <defs>
        <path id="NotoSansSC-Thin-34" d="M 2195 0 
L 2195 3482 
Q 2195 3629 2204 3843 
Q 2214 4058 2227 4205 
L 2195 4205 
Q 2112 4058 2019 3901 
Q 1926 3744 1830 3590 
L 422 1568 
L 3110 1568 
L 3110 1363 
L 115 1363 
L 115 1485 
L 2259 4646 
L 2419 4646 
L 2419 0 
L 2195 0 
z
" transform="scale(0.015625)"/>
        <path id="NotoSansSC-Thin-30" d="M 1670 -83 
Q 1261 -83 963 179 
Q 666 442 509 979 
Q 352 1517 352 2336 
Q 352 3149 509 3677 
Q 666 4205 963 4467 
Q 1261 4730 1670 4730 
Q 2080 4730 2371 4467 
Q 2662 4205 2822 3677 
Q 2982 3149 2982 2336 
Q 2982 1517 2822 979 
Q 2662 442 2371 179 
Q 2080 -83 1670 -83 
z
M 1670 128 
Q 1997 128 2240 384 
Q 2483 640 2614 1133 
Q 2746 1626 2746 2336 
Q 2746 3040 2614 3529 
Q 2483 4019 2240 4272 
Q 1997 4525 1670 4525 
Q 1344 4525 1101 4272 
Q 858 4019 723 3529 
Q 589 3040 589 2336 
Q 589 1626 723 1133 
Q 858 640 1101 384 
Q 1344 128 1670 128 
z
" transform="scale(0.015625)"/>
       </defs>
       <use xlink:href="#NotoSansSC-Thin-34"/>
       <use xlink:href="#NotoSansSC-Thin-30" transform="translate(52.099991 0)"/>
      </g>
     </g>
    </g>
    <g id="ytick_3">
     <g id="line2d_14">
      <path d="M 37.010156 216.230437 
L 351.830156 216.230437 
" clip-path="url(#p67eb1e0ea7)" style="fill: none; stroke: #e2e8f0; stroke-opacity: 0.6; stroke-width: 0.5; stroke-linecap: square"/>
     </g>
     <g id="line2d_15"/>
     <g id="text_12">
      <!-- 45 -->
      <g style="fill: #94a3b8" transform="translate(24.133281 219.803719) scale(0.09 -0.09)">
       <use xlink:href="#NotoSansSC-Thin-34"/>
       <use xlink:href="#NotoSansSC-Thin-35" transform="translate(52.099991 0)"/>
      </g>
     </g>
    </g>
    <g id="ytick_4">
     <g id="line2d_16">
      <path d="M 37.010156 196.774437 
L 351.830156 196.774437 
" clip-path="url(#p67eb1e0ea7)" style="fill: none; stroke: #e2e8f0; stroke-opacity: 0.6; stroke-width: 0.5; stroke-linecap: square"/>
     </g>
     <g id="line2d_17"/>
     <g id="text_13">
      <!-- 50 -->
      <g style="fill: #94a3b8" transform="translate(24.133281 200.347719) scale(0.09 -0.09)">
       <use xlink:href="#NotoSansSC-Thin-35"/>
       <use xlink:href="#NotoSansSC-Thin-30" transform="translate(52.099991 0)"/>
      </g>
     </g>
    </g>
    <g id="ytick_5">
     <g id="line2d_18">
      <path d="M 37.010156 177.318437 
L 351.830156 177.318437 
" clip-path="url(#p67eb1e0ea7)" style="fill: none; stroke: #e2e8f0; stroke-opacity: 0.6; stroke-width: 0.5; stroke-linecap: square"/>
     </g>
     <g id="line2d_19"/>
     <g id="text_14">
      <!-- 55 -->
      <g style="fill: #94a3b8" transform="translate(24.133281 180.891719) scale(0.09 -0.09)">
       <use xlink:href="#NotoSansSC-Thin-35"/>
       <use xlink:href="#NotoSansSC-Thin-35" transform="translate(52.099991 0)"/>
      </g>
     </g>
    </g>
    <g id="ytick_6">
     <g id="line2d_20">
      <path d="M 37.010156 157.862437 
L 351.830156 157.862437 
" clip-path="url(#p67eb1e0ea7)" style="fill: none; stroke: #e2e8f0; stroke-opacity: 0.6; stroke-width: 0.5; stroke-linecap: square"/>
     </g>
     <g id="line2d_21"/>
     <g id="text_15">
      <!-- 60 -->
      <g style="fill: #94a3b8" transform="translate(24.133281 161.435719) scale(0.09 -0.09)">
       <use xlink:href="#NotoSansSC-Thin-36"/>
       <use xlink:href="#NotoSansSC-Thin-30" transform="translate(52.099991 0)"/>
      </g>
     </g>
    </g>
    <g id="ytick_7">
     <g id="line2d_22">
      <path d="M 37.010156 138.406437 
L 351.830156 138.406437 
" clip-path="url(#p67eb1e0ea7)" style="fill: none; stroke: #e2e8f0; stroke-opacity: 0.6; stroke-width: 0.5; stroke-linecap: square"/>
     </g>
     <g id="line2d_23"/>
     <g id="text_16">
      <!-- 65 -->
      <g style="fill: #94a3b8" transform="translate(24.133281 141.979719) scale(0.09 -0.09)">
       <use xlink:href="#NotoSansSC-Thin-36"/>
       <use xlink:href="#NotoSansSC-Thin-35" transform="translate(52.099991 0)"/>
      </g>
     </g>
    </g>
    <g id="ytick_8">
     <g id="line2d_24">
      <path d="M 37.010156 118.950437 
L 351.830156 118.950437 
" clip-path="url(#p67eb1e0ea7)" style="fill: none; stroke: #e2e8f0; stroke-opacity: 0.6; stroke-width: 0.5; stroke-linecap: square"/>
     </g>
     <g id="line2d_25"/>
     <g id="text_17">
      <!-- 70 -->
      <g style="fill: #94a3b8" transform="translate(24.133281 122.523719) scale(0.09 -0.09)">
       <use xlink:href="#NotoSansSC-Thin-37"/>
       <use xlink:href="#NotoSansSC-Thin-30" transform="translate(52.099991 0)"/>
      </g>
     </g>
    </g>
    <g id="ytick_9">
     <g id="line2d_26">
      <path d="M 37.010156 99.494438 
L 351.830156 99.494438 
" clip-path="url(#p67eb1e0ea7)" style="fill: none; stroke: #e2e8f0; stroke-opacity: 0.6; stroke-width: 0.5; stroke-linecap: square"/>
     </g>
     <g id="line2d_27"/>
     <g id="text_18">
      <!-- 75 -->
      <g style="fill: #94a3b8" transform="translate(24.133281 103.067719) scale(0.09 -0.09)">
       <use xlink:href="#NotoSansSC-Thin-37"/>
       <use xlink:href="#NotoSansSC-Thin-35" transform="translate(52.099991 0)"/>
      </g>
     </g>
    </g>
    <g id="ytick_10">
     <g id="line2d_28">
      <path d="M 37.010156 80.038437 
L 351.830156 80.038437 
" clip-path="url(#p67eb1e0ea7)" style="fill: none; stroke: #e2e8f0; stroke-opacity: 0.6; stroke-width: 0.5; stroke-linecap: square"/>
     </g>
     <g id="line2d_29"/>
     <g id="text_19">
      <!-- 80 -->
      <g style="fill: #94a3b8" transform="translate(24.133281 83.611719) scale(0.09 -0.09)">
       <defs>
        <path id="NotoSansSC-Thin-38" d="M 1696 -83 
Q 1286 -83 966 80 
Q 646 243 464 521 
Q 282 800 282 1152 
Q 282 1478 422 1744 
Q 563 2010 774 2202 
Q 986 2394 1197 2509 
L 1197 2534 
Q 954 2694 752 2953 
Q 550 3213 550 3578 
Q 550 3910 704 4163 
Q 858 4416 1117 4560 
Q 1376 4704 1696 4704 
Q 2080 4704 2345 4544 
Q 2611 4384 2752 4112 
Q 2893 3840 2893 3494 
Q 2893 3238 2784 3008 
Q 2675 2778 2528 2602 
Q 2381 2426 2253 2317 
L 2253 2285 
Q 2445 2170 2627 2010 
Q 2810 1850 2925 1626 
Q 3040 1402 3040 1082 
Q 3040 762 2870 496 
Q 2701 230 2400 73 
Q 2099 -83 1696 -83 
z
M 2035 2387 
Q 2336 2630 2499 2905 
Q 2662 3181 2662 3494 
Q 2662 3763 2550 3990 
Q 2438 4218 2220 4358 
Q 2003 4499 1696 4499 
Q 1293 4499 1040 4236 
Q 787 3974 787 3578 
Q 787 3238 972 3017 
Q 1158 2797 1446 2653 
Q 1734 2509 2035 2387 
z
M 1696 128 
Q 2035 128 2281 256 
Q 2528 384 2662 601 
Q 2797 819 2797 1082 
Q 2797 1370 2675 1574 
Q 2554 1779 2352 1923 
Q 2150 2067 1894 2182 
Q 1638 2298 1370 2400 
Q 998 2189 758 1875 
Q 518 1562 518 1152 
Q 518 870 668 636 
Q 819 403 1088 265 
Q 1357 128 1696 128 
z
" transform="scale(0.015625)"/>
       </defs>
       <use xlink:href="#NotoSansSC-Thin-38"/>
       <use xlink:href="#NotoSansSC-Thin-30" transform="translate(52.099991 0)"/>
      </g>
     </g>
    </g>
    <g id="text_20">
     <!-- 金油比 -->
     <g style="fill: #64748b" transform="translate(17.946562 181.090438) rotate(-90) scale(0.09 -0.09)">
      <defs>
       <path id="NotoSansSC-Thin-91d1" d="M 1613 3334 
L 4806 3334 
L 4806 3142 
L 1613 3142 
L 1613 3334 
z
M 717 2067 
L 5715 2067 
L 5715 1875 
L 717 1875 
L 717 2067 
z
M 454 -32 
L 5958 -32 
L 5958 -218 
L 454 -218 
L 454 -32 
z
M 3085 3270 
L 3277 3270 
L 3277 -147 
L 3085 -147 
L 3085 3270 
z
M 1382 1478 
L 1549 1536 
Q 1683 1344 1808 1117 
Q 1933 890 2035 675 
Q 2138 461 2189 294 
L 2016 224 
Q 1965 390 1865 608 
Q 1766 826 1641 1056 
Q 1517 1286 1382 1478 
z
M 4826 1555 
L 5005 1466 
Q 4832 1152 4614 803 
Q 4397 454 4205 211 
L 4058 288 
Q 4186 454 4326 678 
Q 4467 902 4601 1136 
Q 4736 1370 4826 1555 
z
M 3290 5107 
Q 3526 4806 3859 4512 
Q 4192 4218 4579 3952 
Q 4966 3686 5369 3475 
Q 5773 3264 6144 3130 
Q 6118 3110 6092 3081 
Q 6067 3053 6041 3024 
Q 6016 2995 5997 2963 
Q 5632 3110 5232 3331 
Q 4832 3552 4441 3827 
Q 4051 4102 3712 4409 
Q 3373 4717 3130 5024 
L 3290 5107 
z
M 3277 5363 
L 3443 5280 
Q 3117 4794 2633 4346 
Q 2150 3898 1577 3542 
Q 1005 3187 397 2957 
Q 371 2995 332 3046 
Q 294 3098 256 3123 
Q 858 3341 1434 3683 
Q 2010 4026 2490 4458 
Q 2970 4890 3277 5363 
z
" transform="scale(0.015625)"/>
       <path id="NotoSansSC-Thin-6cb9" d="M 2528 115 
L 5722 115 
L 5722 -77 
L 2528 -77 
L 2528 115 
z
M 2528 2074 
L 5722 2074 
L 5722 1882 
L 2528 1882 
L 2528 2074 
z
M 3987 5318 
L 4173 5318 
L 4173 38 
L 3987 38 
L 3987 5318 
z
M 2419 3962 
L 5805 3962 
L 5805 -416 
L 5613 -416 
L 5613 3770 
L 2611 3770 
L 2611 -448 
L 2419 -448 
L 2419 3962 
z
M 608 5094 
L 723 5235 
Q 947 5152 1177 5030 
Q 1408 4909 1613 4784 
Q 1818 4659 1946 4544 
L 1830 4371 
Q 1702 4486 1497 4617 
Q 1293 4749 1062 4877 
Q 832 5005 608 5094 
z
M 314 3354 
L 429 3494 
Q 640 3411 857 3292 
Q 1075 3174 1270 3049 
Q 1466 2925 1587 2816 
L 1478 2656 
Q 1350 2765 1158 2893 
Q 966 3021 745 3142 
Q 525 3264 314 3354 
z
M 518 -224 
Q 672 -6 861 301 
Q 1050 608 1242 947 
Q 1434 1286 1594 1600 
L 1734 1478 
Q 1581 1184 1398 854 
Q 1216 525 1030 211 
Q 845 -102 678 -358 
L 518 -224 
z
" transform="scale(0.015625)"/>
       <path id="NotoSansSC-Thin-6bd4" d="M 1043 3264 
L 2880 3264 
L 2880 3072 
L 1043 3072 
L 1043 3264 
z
M 5574 3917 
L 5754 3776 
Q 5498 3565 5155 3353 
Q 4813 3142 4429 2947 
Q 4045 2752 3674 2573 
Q 3667 2605 3641 2649 
Q 3616 2694 3590 2720 
Q 3955 2893 4329 3094 
Q 4704 3296 5033 3507 
Q 5363 3718 5574 3917 
z
M 3546 5318 
L 3731 5318 
L 3731 326 
Q 3731 58 3811 -22 
Q 3891 -102 4147 -102 
Q 4205 -102 4358 -102 
Q 4512 -102 4697 -102 
Q 4883 -102 5049 -102 
Q 5216 -102 5293 -102 
Q 5485 -102 5577 29 
Q 5670 160 5708 496 
Q 5747 832 5766 1446 
Q 5798 1427 5827 1404 
Q 5856 1382 5888 1369 
Q 5920 1357 5946 1350 
Q 5926 730 5878 378 
Q 5830 26 5699 -121 
Q 5568 -269 5286 -269 
Q 5248 -269 5085 -269 
Q 4922 -269 4723 -269 
Q 4525 -269 4361 -269 
Q 4198 -269 4160 -269 
Q 3917 -269 3782 -221 
Q 3648 -173 3597 -38 
Q 3546 96 3546 346 
L 3546 5318 
z
M 883 -358 
Q 877 -333 857 -297 
Q 838 -262 816 -227 
Q 794 -192 774 -166 
Q 826 -134 896 -51 
Q 966 32 966 211 
L 966 5267 
L 1158 5267 
L 1158 -77 
Q 1158 -77 1129 -99 
Q 1101 -122 1062 -154 
Q 1024 -186 982 -224 
Q 941 -262 912 -297 
Q 883 -333 883 -358 
z
M 883 -358 
L 877 -166 
L 1030 -51 
L 2931 486 
Q 2931 461 2934 425 
Q 2938 390 2941 358 
Q 2944 326 2950 301 
Q 2278 109 1884 -9 
Q 1491 -128 1289 -192 
Q 1088 -256 1005 -291 
Q 922 -326 883 -358 
z
" transform="scale(0.015625)"/>
      </defs>
      <use xlink:href="#NotoSansSC-Thin-91d1"/>
      <use xlink:href="#NotoSansSC-Thin-6cb9" transform="translate(99.999985 0)"/>
      <use xlink:href="#NotoSansSC-Thin-6bd4" transform="translate(199.999969 0)"/>
     </g>
    </g>
   </g>
   <g id="FillBetweenPolyCollection_1">
    <defs>
     <path id="me111a6d5a5" d="M 51.320156 110.344 
L 51.320156 -103.672 
L 87.095156 -123.128 
L 122.870156 -134.8016 
L 158.645156 -154.2576 
L 194.420156 -164.37472 
L 230.195156 -142.584 
L 265.970156 -76.4336 
L 301.745156 -56.9776 
L 337.520156 -64.76 
L 337.520156 110.344 
L 337.520156 110.344 
L 301.745156 110.344 
L 265.970156 110.344 
L 230.195156 110.344 
L 194.420156 110.344 
L 158.645156 110.344 
L 122.870156 110.344 
L 87.095156 110.344 
L 51.320156 110.344 
z
" style="stroke: #ea580c; stroke-opacity: 0.1; stroke-width: 1.5"/>
    </defs>
    <g clip-path="url(#p67eb1e0ea7)">
     <use xlink:href="#me111a6d5a5" x="0" y="280.990437" style="fill: #ea580c; fill-opacity: 0.1; stroke: #ea580c; stroke-opacity: 0.1; stroke-width: 1.5"/>
    </g>
   </g>
   <g id="patch_5">
    <path d="M 180.186805 108.398145 
Q 186.436483 112.006373 191.524265 114.943785 
" style="fill: none; stroke: #dc2626; stroke-width: 1.2; stroke-linecap: round"/>
    <path d="M 189.429769 111.771548 
L 191.524265 114.943785 
L 187.729778 114.71604 
" style="fill: none; stroke: #dc2626; stroke-width: 1.2; stroke-linecap: round"/>
   </g>
   <g id="text_21">
    <!-- 峰值 70.6 -->
    <g style="fill: #dc2626" transform="translate(141.586719 93.220966) scale(0.085 -0.085)">
     <defs>
      <path id="NotoSansSC-Thin-5cf0" d="M 3859 5318 
L 4051 5274 
Q 3814 4723 3427 4249 
Q 3040 3776 2598 3443 
Q 2592 3462 2566 3494 
Q 2541 3526 2515 3558 
Q 2490 3590 2464 3610 
Q 2899 3910 3273 4352 
Q 3648 4794 3859 5318 
z
M 3648 4755 
L 5357 4755 
L 5357 4570 
L 3526 4570 
L 3648 4755 
z
M 5312 4755 
L 5363 4755 
L 5402 4768 
L 5530 4698 
Q 5331 4237 5004 3853 
Q 4678 3469 4281 3165 
Q 3885 2861 3453 2637 
Q 3021 2413 2598 2272 
Q 2579 2310 2544 2358 
Q 2509 2406 2477 2432 
Q 2886 2554 3308 2768 
Q 3731 2982 4121 3273 
Q 4512 3565 4822 3926 
Q 5133 4288 5312 4704 
L 5312 4755 
z
M 3539 4531 
Q 3712 4147 4051 3753 
Q 4390 3360 4896 3037 
Q 5402 2714 6067 2528 
Q 6048 2509 6022 2477 
Q 5997 2445 5974 2419 
Q 5952 2394 5933 2368 
Q 5274 2566 4768 2896 
Q 4262 3226 3920 3616 
Q 3578 4006 3398 4378 
L 3539 4531 
z
M 2893 2214 
L 5709 2214 
L 5709 2029 
L 2893 2029 
L 2893 2214 
z
M 2611 614 
L 5933 614 
L 5933 429 
L 2611 429 
L 2611 614 
z
M 2925 1446 
L 5683 1446 
L 5683 1254 
L 2925 1254 
L 2925 1446 
z
M 4211 2707 
L 4397 2707 
L 4397 -454 
L 4211 -454 
L 4211 2707 
z
M 2054 4237 
L 2240 4237 
L 2240 397 
L 2054 397 
L 2054 4237 
z
M 544 4218 
L 736 4218 
L 736 659 
L 544 544 
L 544 4218 
z
M 544 678 
L 2176 813 
L 2176 627 
L 544 499 
L 544 678 
z
M 1299 5261 
L 1485 5261 
L 1485 634 
L 1299 634 
L 1299 5261 
z
" transform="scale(0.015625)"/>
      <path id="NotoSansSC-Thin-503c" d="M 2074 4589 
L 5830 4589 
L 5830 4397 
L 2074 4397 
L 2074 4589 
z
M 1805 -13 
L 6074 -13 
L 6074 -198 
L 1805 -198 
L 1805 -13 
z
M 2477 3642 
L 5414 3642 
L 5414 -128 
L 5229 -128 
L 5229 3450 
L 2669 3450 
L 2669 -128 
L 2477 -128 
L 2477 3642 
z
M 2573 2720 
L 5312 2720 
L 5312 2534 
L 2573 2534 
L 2573 2720 
z
M 2566 1798 
L 5338 1798 
L 5338 1613 
L 2566 1613 
L 2566 1798 
z
M 2586 870 
L 5325 870 
L 5325 685 
L 2586 685 
L 2586 870 
z
M 3917 5325 
L 4128 5286 
Q 4077 5018 4009 4701 
Q 3942 4384 3875 4086 
Q 3808 3789 3738 3571 
L 3565 3610 
Q 3629 3827 3696 4134 
Q 3763 4442 3824 4758 
Q 3885 5075 3917 5325 
z
M 1862 5318 
L 2048 5267 
Q 1850 4730 1594 4221 
Q 1338 3712 1040 3267 
Q 742 2822 416 2464 
Q 403 2483 377 2512 
Q 352 2541 326 2569 
Q 301 2598 275 2618 
Q 595 2950 886 3382 
Q 1178 3814 1430 4310 
Q 1683 4806 1862 5318 
z
M 1152 3744 
L 1325 3923 
L 1338 3917 
L 1338 -454 
L 1152 -454 
L 1152 3744 
z
" transform="scale(0.015625)"/>
      <path id="NotoSansSC-Thin-20" transform="scale(0.015625)"/>
      <path id="NotoSansSC-Thin-2e" d="M 736 -83 
Q 640 -83 560 -9 
Q 480 64 480 192 
Q 480 333 560 406 
Q 640 480 736 480 
Q 838 480 918 406 
Q 998 333 998 192 
Q 998 64 918 -9 
Q 838 -83 736 -83 
z
" transform="scale(0.015625)"/>
     </defs>
     <use xlink:href="#NotoSansSC-Thin-5cf0"/>
     <use xlink:href="#NotoSansSC-Thin-503c" transform="translate(99.999985 0)"/>
     <use xlink:href="#NotoSansSC-Thin-20" transform="translate(199.999969 0)"/>
     <use xlink:href="#NotoSansSC-Thin-37" transform="translate(221.999954 0)"/>
     <use xlink:href="#NotoSansSC-Thin-30" transform="translate(274.099945 0)"/>
     <use xlink:href="#NotoSansSC-Thin-2e" transform="translate(326.199936 0)"/>
     <use xlink:href="#NotoSansSC-Thin-36" transform="translate(349.299927 0)"/>
    </g>
    <!-- 恐慌避险 -->
    <g style="fill: #dc2626" transform="translate(141.645156 103.385637) scale(0.085 -0.085)">
     <defs>
      <path id="NotoSansSC-Thin-6050" d="M 1971 1830 
L 2157 1830 
L 2157 77 
Q 2157 -58 2246 -99 
Q 2336 -141 2630 -141 
Q 2701 -141 2905 -141 
Q 3110 -141 3360 -141 
Q 3610 -141 3830 -141 
Q 4051 -141 4147 -141 
Q 4320 -141 4403 -80 
Q 4486 -19 4524 166 
Q 4563 352 4576 736 
Q 4602 717 4630 701 
Q 4659 685 4694 672 
Q 4730 659 4762 646 
Q 4742 256 4694 41 
Q 4646 -173 4521 -253 
Q 4397 -333 4154 -333 
Q 4115 -333 3961 -333 
Q 3808 -333 3600 -333 
Q 3392 -333 3187 -333 
Q 2982 -333 2832 -333 
Q 2682 -333 2650 -333 
Q 2387 -333 2236 -301 
Q 2086 -269 2028 -179 
Q 1971 -90 1971 83 
L 1971 1830 
z
M 2931 2003 
L 3072 2080 
Q 3264 1907 3449 1696 
Q 3635 1485 3788 1277 
Q 3942 1069 4026 902 
L 3878 813 
Q 3795 979 3641 1187 
Q 3488 1395 3305 1609 
Q 3123 1824 2931 2003 
z
M 3597 3994 
L 3738 4102 
Q 3923 3981 4102 3827 
Q 4282 3674 4432 3514 
Q 4582 3354 4666 3213 
L 4518 3091 
Q 4435 3232 4288 3392 
Q 4141 3552 3961 3712 
Q 3782 3872 3597 3994 
z
M 4851 1555 
L 4998 1626 
Q 5210 1389 5424 1104 
Q 5638 819 5824 550 
Q 6010 282 6118 77 
L 5958 -13 
Q 5850 192 5667 467 
Q 5485 742 5273 1027 
Q 5062 1312 4851 1555 
z
M 1082 1395 
L 1242 1331 
Q 1171 1094 1072 816 
Q 973 538 845 275 
Q 717 13 563 -186 
L 397 -102 
Q 557 90 685 352 
Q 813 614 915 889 
Q 1018 1165 1082 1395 
z
M 435 4845 
L 2701 4845 
L 2701 4653 
L 435 4653 
L 435 4845 
z
M 3270 4992 
L 5082 4992 
L 5082 4806 
L 3270 4806 
L 3270 4992 
z
M 1504 4787 
L 1696 4787 
L 1696 2778 
L 1504 2778 
L 1504 4787 
z
M 307 2560 
Q 614 2637 1011 2742 
Q 1408 2848 1853 2966 
Q 2298 3085 2746 3206 
L 2765 3040 
Q 2125 2861 1491 2681 
Q 858 2502 365 2374 
L 307 2560 
z
M 3168 4992 
L 3360 4992 
L 3360 4013 
Q 3360 3782 3325 3520 
Q 3290 3258 3171 2986 
Q 3053 2714 2813 2461 
Q 2573 2208 2163 1997 
Q 2144 2035 2112 2076 
Q 2080 2118 2048 2144 
Q 2432 2330 2659 2566 
Q 2886 2803 2995 3056 
Q 3104 3309 3136 3552 
Q 3168 3795 3168 4006 
L 3168 4992 
z
M 4960 4992 
L 5152 4992 
L 5152 2560 
Q 5152 2317 5203 2285 
Q 5254 2259 5357 2259 
Q 5408 2259 5491 2259 
Q 5574 2259 5638 2259 
Q 5696 2259 5757 2265 
Q 5818 2272 5843 2285 
Q 5869 2298 5894 2336 
Q 5920 2374 5926 2432 
Q 5939 2502 5948 2652 
Q 5958 2803 5958 3021 
Q 5997 2995 6038 2972 
Q 6080 2950 6125 2938 
Q 6118 2758 6108 2572 
Q 6099 2387 6080 2317 
Q 6042 2182 5933 2131 
Q 5888 2106 5814 2096 
Q 5741 2086 5664 2086 
Q 5619 2086 5500 2086 
Q 5382 2086 5344 2086 
Q 5267 2086 5193 2099 
Q 5120 2112 5062 2150 
Q 4998 2189 4979 2278 
Q 4960 2368 4960 2630 
L 4960 4992 
z
" transform="scale(0.015625)"/>
      <path id="NotoSansSC-Thin-614c" d="M 1984 4730 
L 6080 4730 
L 6080 4544 
L 1984 4544 
L 1984 4730 
z
M 3046 5318 
L 3238 5318 
L 3238 4077 
L 3046 4077 
L 3046 5318 
z
M 3872 1792 
L 4064 1792 
L 4064 -461 
L 3872 -461 
L 3872 1792 
z
M 4678 5318 
L 4870 5318 
L 4870 4077 
L 4678 4077 
L 4678 5318 
z
M 2067 3590 
L 6080 3590 
L 6080 3398 
L 2067 3398 
L 2067 3590 
z
M 2720 1824 
L 2906 1824 
L 2906 1274 
Q 2906 973 2845 662 
Q 2784 352 2576 64 
Q 2368 -224 1926 -474 
Q 1914 -448 1888 -422 
Q 1862 -397 1836 -374 
Q 1811 -352 1792 -339 
Q 2214 -109 2409 166 
Q 2605 442 2662 726 
Q 2720 1011 2720 1274 
L 2720 1824 
z
M 5069 1811 
L 5254 1811 
L 5254 6 
Q 5254 -90 5260 -144 
Q 5267 -198 5293 -218 
Q 5325 -243 5414 -243 
Q 5453 -243 5520 -243 
Q 5587 -243 5632 -243 
Q 5683 -243 5728 -236 
Q 5773 -230 5798 -218 
Q 5850 -186 5869 -77 
Q 5882 -6 5885 134 
Q 5888 275 5894 474 
Q 5926 448 5968 429 
Q 6010 410 6048 397 
Q 6042 230 6032 51 
Q 6022 -128 6010 -192 
Q 5971 -320 5882 -371 
Q 5850 -390 5786 -400 
Q 5722 -410 5664 -410 
Q 5626 -410 5526 -410 
Q 5427 -410 5395 -410 
Q 5331 -410 5267 -397 
Q 5203 -384 5152 -346 
Q 5101 -307 5085 -227 
Q 5069 -147 5069 77 
L 5069 1811 
z
M 1101 5318 
L 1286 5318 
L 1286 -435 
L 1101 -435 
L 1101 5318 
z
M 666 4115 
L 845 4083 
Q 826 3846 778 3545 
Q 730 3245 662 2953 
Q 595 2662 506 2438 
L 320 2496 
Q 410 2714 477 2995 
Q 544 3277 592 3571 
Q 640 3866 666 4115 
z
M 1466 4243 
L 1638 4294 
Q 1722 4096 1795 3865 
Q 1869 3635 1920 3424 
Q 1971 3213 1990 3059 
L 1798 2976 
Q 1773 3219 1677 3577 
Q 1581 3936 1466 4243 
z
M 2592 3494 
L 2778 3494 
L 2778 2342 
L 5805 2342 
L 5805 2150 
L 2592 2150 
L 2592 3494 
z
M 3590 4147 
L 3718 4256 
Q 3904 4096 4070 3901 
Q 4237 3706 4320 3558 
L 4173 3437 
Q 4090 3590 3923 3792 
Q 3757 3994 3590 4147 
z
" transform="scale(0.015625)"/>
      <path id="NotoSansSC-Thin-907f" d="M 2202 4966 
L 2394 4966 
L 2394 3872 
Q 2394 3558 2368 3184 
Q 2342 2810 2275 2413 
Q 2208 2016 2073 1635 
Q 1939 1254 1728 915 
Q 1715 941 1686 966 
Q 1658 992 1629 1014 
Q 1600 1037 1574 1050 
Q 1850 1478 1984 1977 
Q 2118 2477 2160 2969 
Q 2202 3462 2202 3872 
L 2202 4966 
z
M 2240 4966 
L 3622 4966 
L 3622 3264 
L 2240 3264 
L 2240 3450 
L 3430 3450 
L 3430 4781 
L 2240 4781 
L 2240 4966 
z
M 3853 4461 
L 6029 4461 
L 6029 4275 
L 3853 4275 
L 3853 4461 
z
M 3891 1869 
L 5984 1869 
L 5984 1683 
L 3891 1683 
L 3891 1869 
z
M 3782 3002 
L 6074 3002 
L 6074 2810 
L 3782 2810 
L 3782 3002 
z
M 4832 2950 
L 5018 2950 
L 5018 378 
L 4832 378 
L 4832 2950 
z
M 4205 4064 
L 4365 4102 
Q 4461 3878 4537 3612 
Q 4614 3347 4640 3162 
L 4467 3117 
Q 4442 3309 4368 3574 
Q 4294 3840 4205 4064 
z
M 5517 4128 
L 5709 4077 
Q 5594 3782 5450 3452 
Q 5306 3123 5178 2893 
L 5018 2944 
Q 5107 3104 5200 3312 
Q 5293 3520 5376 3737 
Q 5459 3955 5517 4128 
z
M 1427 2848 
L 1427 499 
L 1235 499 
L 1235 2662 
L 371 2662 
L 371 2848 
L 1427 2848 
z
M 506 4973 
L 653 5062 
Q 819 4902 988 4707 
Q 1158 4512 1302 4326 
Q 1446 4141 1530 3994 
L 1376 3891 
Q 1293 4038 1149 4227 
Q 1005 4416 838 4611 
Q 672 4806 506 4973 
z
M 4557 5293 
L 4710 5344 
Q 4838 5126 4953 4867 
Q 5069 4608 5120 4422 
L 4947 4365 
Q 4902 4550 4790 4812 
Q 4678 5075 4557 5293 
z
M 1344 621 
Q 1491 621 1622 505 
Q 1754 390 2010 224 
Q 2310 38 2716 -16 
Q 3123 -70 3674 -70 
Q 4115 -70 4560 -57 
Q 5005 -45 5414 -22 
Q 5824 0 6144 26 
Q 6131 0 6118 -35 
Q 6106 -70 6096 -105 
Q 6086 -141 6080 -179 
Q 5888 -192 5577 -201 
Q 5267 -211 4915 -220 
Q 4563 -230 4233 -236 
Q 3904 -243 3674 -243 
Q 3091 -243 2662 -182 
Q 2234 -122 1914 90 
Q 1734 205 1590 329 
Q 1446 454 1344 454 
Q 1229 454 1078 358 
Q 928 262 752 96 
Q 576 -70 378 -294 
L 243 -147 
Q 557 173 832 397 
Q 1107 621 1344 621 
z
M 2547 2182 
L 2547 634 
L 3514 634 
L 3514 2182 
L 2547 2182 
z
M 2362 2374 
L 3699 2374 
L 3699 448 
L 2362 448 
L 2362 2374 
z
" transform="scale(0.015625)"/>
      <path id="NotoSansSC-Thin-9669" d="M 659 5050 
L 2074 5050 
L 2074 4864 
L 851 4864 
L 851 -435 
L 659 -435 
L 659 5050 
z
M 2022 5050 
L 2061 5050 
L 2099 5062 
L 2221 4973 
Q 2067 4595 1878 4160 
Q 1690 3725 1504 3328 
Q 1914 2906 2048 2547 
Q 2182 2189 2182 1869 
Q 2182 1664 2131 1481 
Q 2080 1299 1965 1216 
Q 1907 1171 1830 1152 
Q 1754 1133 1664 1120 
Q 1562 1114 1443 1114 
Q 1325 1114 1216 1120 
Q 1210 1152 1194 1206 
Q 1178 1261 1146 1306 
Q 1280 1299 1398 1296 
Q 1517 1293 1613 1299 
Q 1754 1312 1837 1363 
Q 1926 1427 1961 1571 
Q 1997 1715 1997 1869 
Q 1997 2170 1849 2522 
Q 1702 2874 1286 3302 
Q 1395 3526 1497 3753 
Q 1600 3981 1696 4201 
Q 1792 4422 1875 4627 
Q 1958 4832 2022 5005 
L 2022 5050 
z
M 4256 5088 
Q 4403 4813 4630 4521 
Q 4858 4230 5126 3948 
Q 5395 3667 5673 3427 
Q 5952 3187 6208 3008 
Q 6189 2995 6163 2972 
Q 6138 2950 6115 2928 
Q 6093 2906 6074 2880 
Q 5728 3136 5353 3488 
Q 4979 3840 4652 4237 
Q 4326 4634 4115 5005 
L 4256 5088 
z
M 4211 5331 
L 4390 5280 
Q 4173 4768 3853 4320 
Q 3533 3872 3152 3501 
Q 2771 3130 2349 2848 
Q 2336 2867 2310 2896 
Q 2285 2925 2259 2953 
Q 2234 2982 2208 3002 
Q 2630 3264 3008 3619 
Q 3386 3974 3696 4409 
Q 4006 4845 4211 5331 
z
M 3136 3309 
L 5203 3309 
L 5203 3117 
L 3136 3117 
L 3136 3309 
z
M 2752 2330 
L 2918 2368 
Q 3034 2125 3133 1843 
Q 3232 1562 3305 1293 
Q 3379 1024 3405 813 
L 3238 768 
Q 3206 979 3132 1248 
Q 3059 1517 2963 1798 
Q 2867 2080 2752 2330 
z
M 3987 2490 
L 4160 2515 
Q 4230 2272 4288 1990 
Q 4346 1709 4387 1443 
Q 4429 1178 4442 966 
L 4269 934 
Q 4256 1146 4211 1414 
Q 4166 1683 4108 1964 
Q 4051 2246 3987 2490 
z
M 5626 2502 
L 5818 2432 
Q 5664 2048 5465 1597 
Q 5267 1146 5059 717 
Q 4851 288 4659 -32 
L 4512 38 
Q 4653 275 4806 582 
Q 4960 890 5110 1229 
Q 5261 1568 5395 1897 
Q 5530 2227 5626 2502 
z
M 2304 96 
L 6118 96 
L 6118 -96 
L 2304 -96 
L 2304 96 
z
" transform="scale(0.015625)"/>
     </defs>
     <use xlink:href="#NotoSansSC-Thin-6050"/>
     <use xlink:href="#NotoSansSC-Thin-614c" transform="translate(99.999985 0)"/>
     <use xlink:href="#NotoSansSC-Thin-907f" transform="translate(199.999969 0)"/>
     <use xlink:href="#NotoSansSC-Thin-9669" transform="translate(299.999954 0)"/>
    </g>
   </g>
   <g id="patch_6">
    <path d="M 305.595824 218.758277 
Q 320.562303 217.573198 334.191328 216.494021 
" style="fill: none; stroke: #1a56db; stroke-width: 1.2; stroke-linecap: round"/>
    <path d="M 330.667747 215.067705 
L 334.191328 216.494021 
L 330.936127 218.457097 
" style="fill: none; stroke: #1a56db; stroke-width: 1.2; stroke-linecap: round"/>
   </g>
   <g id="text_22">
    <!-- ≈45 -->
    <g style="fill: #1a56db" transform="translate(275.179688 217.739366) scale(0.085 -0.085)">
     <defs>
      <path id="NotoSansSC-Thin-2248" d="M 3251 1830 
Q 3494 1670 3708 1564 
Q 3923 1459 4192 1459 
Q 4416 1459 4640 1529 
Q 4864 1600 5065 1766 
Q 5267 1933 5434 2221 
L 5626 2093 
Q 5446 1779 5212 1587 
Q 4979 1395 4720 1312 
Q 4461 1229 4198 1229 
Q 3904 1229 3657 1334 
Q 3411 1440 3149 1619 
Q 2906 1786 2691 1888 
Q 2477 1990 2208 1990 
Q 1984 1990 1763 1920 
Q 1542 1850 1337 1686 
Q 1133 1523 966 1229 
L 774 1357 
Q 960 1677 1190 1865 
Q 1421 2054 1680 2137 
Q 1939 2221 2202 2221 
Q 2502 2221 2745 2115 
Q 2989 2010 3251 1830 
z
M 3251 3245 
Q 3494 3085 3708 2979 
Q 3923 2874 4192 2874 
Q 4416 2874 4640 2944 
Q 4864 3014 5065 3180 
Q 5267 3347 5434 3635 
L 5626 3507 
Q 5446 3194 5212 3002 
Q 4979 2810 4720 2726 
Q 4461 2643 4198 2643 
Q 3904 2643 3657 2748 
Q 3411 2854 3149 3034 
Q 2906 3200 2691 3302 
Q 2477 3405 2208 3405 
Q 1984 3405 1763 3334 
Q 1542 3264 1337 3101 
Q 1133 2938 966 2643 
L 774 2771 
Q 960 3091 1190 3280 
Q 1421 3469 1680 3552 
Q 1939 3635 2202 3635 
Q 2502 3635 2745 3529 
Q 2989 3424 3251 3245 
z
" transform="scale(0.015625)"/>
     </defs>
     <use xlink:href="#NotoSansSC-Thin-2248"/>
     <use xlink:href="#NotoSansSC-Thin-34" transform="translate(99.999985 0)"/>
     <use xlink:href="#NotoSansSC-Thin-35" transform="translate(152.099976 0)"/>
    </g>
    <!-- 滞胀交易 -->
    <g style="fill: #1a56db" transform="translate(266.857656 227.904037) scale(0.085 -0.085)">
     <defs>
      <path id="NotoSansSC-Thin-6ede" d="M 1818 4288 
L 6029 4288 
L 6029 4096 
L 1818 4096 
L 1818 4288 
z
M 3770 5178 
L 3962 5178 
L 3962 3258 
L 3770 3258 
L 3770 5178 
z
M 1920 2835 
L 5888 2835 
L 5888 1946 
L 5702 1946 
L 5702 2650 
L 2106 2650 
L 2106 1946 
L 1920 1946 
L 1920 2835 
z
M 3770 2720 
L 3968 2720 
L 3968 -467 
L 3770 -467 
L 3770 2720 
z
M 2374 1786 
L 5338 1786 
L 5338 1600 
L 2560 1600 
L 2560 -122 
L 2374 -122 
L 2374 1786 
z
M 5235 1786 
L 5421 1786 
L 5421 154 
Q 5421 51 5392 0 
Q 5363 -51 5274 -77 
Q 5190 -102 5014 -105 
Q 4838 -109 4544 -109 
Q 4538 -77 4515 -29 
Q 4493 19 4467 64 
Q 4723 58 4899 58 
Q 5075 58 5139 58 
Q 5235 64 5235 154 
L 5235 1786 
z
M 2541 5114 
L 2733 5114 
L 2733 3251 
L 2541 3251 
L 2541 5114 
z
M 5056 5114 
L 5242 5114 
L 5242 3251 
L 5056 3251 
L 5056 5114 
z
M 640 5050 
L 742 5190 
Q 928 5101 1113 4985 
Q 1299 4870 1462 4752 
Q 1626 4634 1728 4531 
L 1626 4365 
Q 1523 4474 1360 4598 
Q 1197 4723 1008 4841 
Q 819 4960 640 5050 
z
M 314 3251 
L 410 3398 
Q 595 3334 787 3238 
Q 979 3142 1148 3040 
Q 1318 2938 1427 2842 
L 1338 2669 
Q 1229 2765 1059 2870 
Q 890 2976 694 3075 
Q 499 3174 314 3251 
z
M 480 -154 
Q 621 83 793 409 
Q 966 736 1136 1094 
Q 1306 1453 1446 1779 
L 1574 1638 
Q 1446 1338 1283 989 
Q 1120 640 950 301 
Q 781 -38 627 -314 
L 480 -154 
z
" transform="scale(0.015625)"/>
      <path id="NotoSansSC-Thin-80c0" d="M 851 5069 
L 2157 5069 
L 2157 4883 
L 851 4883 
L 851 5069 
z
M 851 3526 
L 2157 3526 
L 2157 3341 
L 851 3341 
L 851 3526 
z
M 838 1946 
L 2163 1946 
L 2163 1760 
L 838 1760 
L 838 1946 
z
M 762 5069 
L 947 5069 
L 947 2797 
Q 947 2432 928 2013 
Q 909 1594 854 1162 
Q 800 730 694 314 
Q 589 -102 416 -454 
Q 397 -435 368 -416 
Q 339 -397 307 -377 
Q 275 -358 250 -352 
Q 429 -6 531 394 
Q 634 794 682 1213 
Q 730 1632 746 2038 
Q 762 2445 762 2797 
L 762 5069 
z
M 2067 5069 
L 2253 5069 
L 2253 -90 
Q 2253 -211 2211 -275 
Q 2170 -339 2080 -365 
Q 1978 -390 1792 -396 
Q 1606 -403 1274 -403 
Q 1267 -378 1254 -342 
Q 1242 -307 1226 -272 
Q 1210 -237 1190 -211 
Q 1466 -218 1670 -218 
Q 1875 -218 1939 -218 
Q 2067 -211 2067 -90 
L 2067 5069 
z
M 2400 2707 
L 6016 2707 
L 6016 2509 
L 2400 2509 
L 2400 2707 
z
M 4326 2624 
Q 4474 2003 4726 1456 
Q 4979 909 5324 493 
Q 5670 77 6099 -160 
Q 6080 -179 6051 -204 
Q 6022 -230 6000 -256 
Q 5978 -282 5958 -314 
Q 5530 -45 5178 387 
Q 4826 819 4570 1379 
Q 4314 1939 4160 2579 
L 4326 2624 
z
M 3040 -499 
Q 3034 -474 3014 -438 
Q 2995 -403 2972 -371 
Q 2950 -339 2931 -314 
Q 3002 -282 3094 -205 
Q 3187 -128 3187 51 
L 3187 5178 
L 3373 5178 
L 3373 -243 
Q 3373 -243 3337 -262 
Q 3302 -282 3254 -310 
Q 3206 -339 3158 -374 
Q 3110 -410 3075 -442 
Q 3040 -474 3040 -499 
z
M 5510 5005 
L 5690 4947 
Q 5466 4563 5165 4214 
Q 4864 3866 4525 3565 
Q 4186 3264 3840 3034 
Q 3827 3053 3795 3078 
Q 3763 3104 3731 3129 
Q 3699 3155 3674 3168 
Q 4211 3494 4704 3977 
Q 5197 4461 5510 5005 
z
M 3040 -499 
L 3040 -320 
L 3155 -186 
L 4602 346 
Q 4608 307 4614 265 
Q 4621 224 4627 198 
Q 4115 -13 3811 -137 
Q 3507 -262 3350 -332 
Q 3194 -403 3133 -435 
Q 3072 -467 3040 -499 
z
" transform="scale(0.015625)"/>
      <path id="NotoSansSC-Thin-4ea4" d="M 4294 2758 
L 4486 2701 
Q 4160 1798 3587 1184 
Q 3014 570 2224 173 
Q 1434 -224 442 -480 
Q 435 -454 412 -419 
Q 390 -384 364 -352 
Q 339 -320 314 -294 
Q 1312 -70 2093 314 
Q 2874 698 3430 1296 
Q 3987 1894 4294 2758 
z
M 2176 3821 
L 2355 3750 
Q 2138 3482 1859 3210 
Q 1581 2938 1283 2698 
Q 986 2458 710 2266 
Q 698 2285 669 2313 
Q 640 2342 614 2374 
Q 589 2406 563 2419 
Q 845 2598 1139 2825 
Q 1434 3053 1706 3309 
Q 1978 3565 2176 3821 
z
M 2125 2720 
Q 2592 1536 3613 787 
Q 4634 38 6118 -218 
Q 6099 -237 6073 -269 
Q 6048 -301 6025 -336 
Q 6003 -371 5984 -403 
Q 4992 -211 4201 192 
Q 3411 595 2844 1212 
Q 2278 1830 1952 2656 
L 2125 2720 
z
M 480 4352 
L 5901 4352 
L 5901 4166 
L 480 4166 
L 480 4352 
z
M 4096 3686 
L 4243 3795 
Q 4550 3590 4867 3337 
Q 5184 3085 5459 2835 
Q 5734 2586 5907 2381 
L 5760 2253 
Q 5594 2464 5322 2717 
Q 5050 2970 4730 3226 
Q 4410 3482 4096 3686 
z
M 2784 5293 
L 2957 5357 
Q 3098 5178 3235 4950 
Q 3373 4723 3437 4570 
L 3264 4486 
Q 3200 4653 3065 4880 
Q 2931 5107 2784 5293 
z
" transform="scale(0.015625)"/>
      <path id="NotoSansSC-Thin-6613" d="M 1446 3757 
L 1446 2880 
L 5075 2880 
L 5075 3757 
L 1446 3757 
z
M 1446 4813 
L 1446 3949 
L 5075 3949 
L 5075 4813 
L 1446 4813 
z
M 1254 4998 
L 5261 4998 
L 5261 2694 
L 1254 2694 
L 1254 4998 
z
M 1574 1984 
L 5504 1984 
L 5504 1792 
L 1574 1792 
L 1574 1984 
z
M 5434 1984 
L 5626 1984 
Q 5626 1984 5622 1961 
Q 5619 1939 5619 1907 
Q 5619 1875 5613 1856 
Q 5562 1114 5504 666 
Q 5446 218 5379 -12 
Q 5312 -243 5216 -339 
Q 5152 -403 5072 -428 
Q 4992 -454 4870 -454 
Q 4755 -461 4537 -454 
Q 4320 -448 4083 -429 
Q 4077 -390 4064 -339 
Q 4051 -288 4019 -243 
Q 4288 -269 4518 -275 
Q 4749 -282 4832 -282 
Q 4922 -282 4973 -272 
Q 5024 -262 5062 -218 
Q 5146 -141 5206 86 
Q 5267 314 5324 762 
Q 5382 1210 5434 1939 
L 5434 1984 
z
M 2150 2758 
L 2342 2701 
Q 2112 2342 1814 2009 
Q 1517 1677 1187 1392 
Q 858 1107 525 890 
Q 512 909 480 934 
Q 448 960 416 985 
Q 384 1011 352 1024 
Q 870 1344 1353 1798 
Q 1837 2253 2150 2758 
z
M 2918 1958 
L 3104 1901 
Q 2867 1446 2544 1036 
Q 2221 627 1853 281 
Q 1485 -64 1094 -333 
Q 1082 -314 1050 -288 
Q 1018 -262 986 -233 
Q 954 -205 928 -192 
Q 1530 186 2054 749 
Q 2579 1312 2918 1958 
z
M 4256 1939 
L 4448 1894 
Q 4192 1158 3789 550 
Q 3386 -58 2893 -474 
Q 2880 -454 2848 -432 
Q 2816 -410 2787 -384 
Q 2758 -358 2733 -346 
Q 3232 58 3625 650 
Q 4019 1242 4256 1939 
z
" transform="scale(0.015625)"/>
     </defs>
     <use xlink:href="#NotoSansSC-Thin-6ede"/>
     <use xlink:href="#NotoSansSC-Thin-80c0" transform="translate(99.999985 0)"/>
     <use xlink:href="#NotoSansSC-Thin-4ea4" transform="translate(199.999969 0)"/>
     <use xlink:href="#NotoSansSC-Thin-6613" transform="translate(299.999954 0)"/>
    </g>
   </g>
   <g id="text_23">
    <!-- ⚠ 风险区间 -->
    <g style="fill: #dc2626" transform="translate(303.773756 89.893018) scale(0.08 -0.08)">
     <defs>
      <path id="NotoSansSC-Thin-26a0" d="M 1472 26 
Q 934 26 630 208 
Q 326 390 326 730 
Q 326 973 506 1293 
L 2342 4486 
Q 2554 4851 2758 5033 
Q 2963 5216 3200 5216 
Q 3398 5216 3577 5097 
Q 3757 4979 3917 4698 
L 5766 1491 
Q 5888 1293 5961 1097 
Q 6035 902 6035 685 
Q 6035 410 5833 218 
Q 5632 26 5165 26 
L 1472 26 
z
M 1402 205 
L 5178 205 
Q 5491 205 5670 342 
Q 5850 480 5850 678 
Q 5850 864 5802 1021 
Q 5754 1178 5664 1338 
L 3757 4621 
Q 3648 4826 3497 4922 
Q 3347 5018 3200 5018 
Q 3027 5018 2854 4874 
Q 2682 4730 2534 4467 
L 653 1197 
Q 531 979 531 774 
Q 531 486 761 345 
Q 992 205 1402 205 
z
M 3200 762 
Q 3104 762 3027 835 
Q 2950 909 2950 1030 
Q 2950 1165 3027 1235 
Q 3104 1306 3200 1306 
Q 3296 1306 3376 1235 
Q 3456 1165 3456 1030 
Q 3456 909 3376 835 
Q 3296 762 3200 762 
z
M 3104 1837 
L 3072 3571 
L 3072 3981 
L 3334 3981 
L 3334 3571 
L 3302 1837 
L 3104 1837 
z
" transform="scale(0.015625)"/>
      <path id="NotoSansSC-Thin-98ce" d="M 1190 4915 
L 5235 4915 
L 5235 4730 
L 1190 4730 
L 1190 4915 
z
M 1107 4915 
L 1293 4915 
L 1293 2918 
Q 1293 2541 1264 2105 
Q 1235 1670 1155 1222 
Q 1075 774 915 348 
Q 755 -77 486 -442 
Q 474 -422 445 -400 
Q 416 -378 387 -355 
Q 358 -333 333 -320 
Q 595 38 748 448 
Q 902 858 979 1286 
Q 1056 1715 1081 2131 
Q 1107 2547 1107 2918 
L 1107 4915 
z
M 5094 4915 
L 5280 4915 
Q 5280 4070 5286 3302 
Q 5293 2534 5318 1897 
Q 5344 1261 5398 790 
Q 5453 320 5549 61 
Q 5645 -198 5798 -198 
Q 5856 -198 5888 -70 
Q 5920 58 5936 282 
Q 5952 506 5958 781 
Q 5990 755 6044 732 
Q 6099 710 6131 698 
Q 6118 269 6086 32 
Q 6054 -205 5984 -294 
Q 5914 -384 5779 -384 
Q 5523 -384 5385 -38 
Q 5248 307 5190 979 
Q 5133 1651 5120 2640 
Q 5107 3629 5094 4915 
z
M 1818 3789 
L 1990 3885 
Q 2368 3475 2761 3008 
Q 3155 2541 3529 2070 
Q 3904 1600 4217 1174 
Q 4531 749 4749 416 
L 4563 294 
Q 4352 621 4038 1053 
Q 3725 1485 3353 1961 
Q 2982 2438 2588 2908 
Q 2195 3379 1818 3789 
z
M 4064 4192 
L 4237 4147 
Q 4045 3558 3773 2982 
Q 3501 2406 3171 1888 
Q 2842 1370 2467 954 
Q 2093 538 1690 262 
Q 1670 288 1638 317 
Q 1606 346 1577 371 
Q 1549 397 1517 416 
Q 1920 666 2297 1072 
Q 2675 1478 3008 1987 
Q 3341 2496 3609 3059 
Q 3878 3622 4064 4192 
z
" transform="scale(0.015625)"/>
      <path id="NotoSansSC-Thin-533a" d="M 4762 4294 
L 4941 4230 
Q 4525 3488 4000 2816 
Q 3475 2144 2880 1571 
Q 2285 998 1651 550 
Q 1632 570 1603 595 
Q 1574 621 1542 649 
Q 1510 678 1478 691 
Q 2125 1120 2726 1686 
Q 3328 2253 3849 2918 
Q 4371 3584 4762 4294 
z
M 1632 3930 
L 1786 4032 
Q 2246 3648 2723 3203 
Q 3200 2758 3651 2304 
Q 4102 1850 4483 1430 
Q 4864 1011 5126 672 
L 4954 544 
Q 4704 883 4326 1305 
Q 3949 1728 3497 2189 
Q 3046 2650 2569 3098 
Q 2093 3546 1632 3930 
z
M 5901 4902 
L 5901 4710 
L 909 4710 
L 909 -64 
L 6054 -64 
L 6054 -250 
L 717 -250 
L 717 4902 
L 5901 4902 
z
" transform="scale(0.015625)"/>
      <path id="NotoSansSC-Thin-95f4" d="M 710 3974 
L 896 3974 
L 896 -461 
L 710 -461 
L 710 3974 
z
M 806 5101 
L 947 5190 
Q 1101 5062 1254 4908 
Q 1408 4755 1542 4604 
Q 1677 4454 1754 4333 
L 1600 4224 
Q 1523 4346 1395 4499 
Q 1267 4653 1113 4813 
Q 960 4973 806 5101 
z
M 2330 4915 
L 5606 4915 
L 5606 4723 
L 2330 4723 
L 2330 4915 
z
M 5491 4915 
L 5677 4915 
L 5677 -109 
Q 5677 -243 5638 -307 
Q 5600 -371 5510 -403 
Q 5414 -429 5228 -432 
Q 5043 -435 4755 -435 
Q 4742 -403 4720 -339 
Q 4698 -275 4672 -230 
Q 4922 -237 5117 -237 
Q 5312 -237 5376 -237 
Q 5446 -230 5468 -204 
Q 5491 -179 5491 -115 
L 5491 4915 
z
M 2266 1978 
L 2266 864 
L 4102 864 
L 4102 1978 
L 2266 1978 
z
M 2266 3264 
L 2266 2163 
L 4102 2163 
L 4102 3264 
L 2266 3264 
z
M 2080 3450 
L 4294 3450 
L 4294 678 
L 2080 678 
L 2080 3450 
z
" transform="scale(0.015625)"/>
     </defs>
     <use xlink:href="#NotoSansSC-Thin-26a0"/>
     <use xlink:href="#NotoSansSC-Thin-20" transform="translate(99.999985 0)"/>
     <use xlink:href="#NotoSansSC-Thin-98ce" transform="translate(121.999969 0)"/>
     <use xlink:href="#NotoSansSC-Thin-9669" transform="translate(221.999954 0)"/>
     <use xlink:href="#NotoSansSC-Thin-533a" transform="translate(321.999939 0)"/>
     <use xlink:href="#NotoSansSC-Thin-95f4" transform="translate(421.999924 0)"/>
    </g>
   </g>
   <g id="text_24">
    <!-- ✓ 正常区间 -->
    <g style="fill: #16a34a" transform="translate(306.621256 214.675807) scale(0.08 -0.08)">
     <defs>
      <path id="NotoSansSC-Thin-2713" d="M 992 -141 
Q 858 237 698 595 
Q 538 954 352 1286 
Q 166 1619 -45 1914 
L 154 2054 
Q 454 1619 710 1110 
Q 966 602 1126 109 
L 1152 109 
Q 1338 736 1629 1376 
Q 1920 2016 2294 2633 
Q 2669 3251 3097 3801 
Q 3526 4352 3987 4794 
L 4166 4602 
Q 3546 4026 2992 3274 
Q 2438 2522 2003 1661 
Q 1568 800 1312 -96 
L 992 -141 
z
" transform="scale(0.015625)"/>
      <path id="NotoSansSC-Thin-6b63" d="M 646 4794 
L 5792 4794 
L 5792 4602 
L 646 4602 
L 646 4794 
z
M 3328 2592 
L 5613 2592 
L 5613 2406 
L 3328 2406 
L 3328 2592 
z
M 378 64 
L 6029 64 
L 6029 -122 
L 378 -122 
L 378 64 
z
M 3238 4742 
L 3424 4742 
L 3424 -32 
L 3238 -32 
L 3238 4742 
z
M 1338 3245 
L 1523 3245 
L 1523 -32 
L 1338 -32 
L 1338 3245 
z
" transform="scale(0.015625)"/>
      <path id="NotoSansSC-Thin-5e38" d="M 3194 2253 
L 3379 2253 
L 3379 -454 
L 3194 -454 
L 3194 2253 
z
M 1779 3232 
L 1779 2381 
L 4717 2381 
L 4717 3232 
L 1779 3232 
z
M 1587 3418 
L 4909 3418 
L 4909 2189 
L 1587 2189 
L 1587 3418 
z
M 1062 1510 
L 5325 1510 
L 5325 1325 
L 1248 1325 
L 1248 -154 
L 1062 -154 
L 1062 1510 
z
M 5216 1510 
L 5402 1510 
L 5402 147 
Q 5402 32 5370 -25 
Q 5338 -83 5229 -109 
Q 5114 -134 4877 -137 
Q 4640 -141 4237 -141 
Q 4230 -109 4204 -61 
Q 4179 -13 4154 32 
Q 4397 26 4585 22 
Q 4774 19 4902 22 
Q 5030 26 5088 26 
Q 5165 38 5190 60 
Q 5216 83 5216 141 
L 5216 1510 
z
M 3194 5318 
L 3379 5318 
L 3379 4160 
L 3194 4160 
L 3194 5318 
z
M 646 4211 
L 5818 4211 
L 5818 3002 
L 5626 3002 
L 5626 4019 
L 838 4019 
L 838 3002 
L 646 3002 
L 646 4211 
z
M 1190 5158 
L 1357 5235 
Q 1530 5043 1702 4816 
Q 1875 4589 1971 4422 
L 1792 4320 
Q 1702 4493 1529 4733 
Q 1357 4973 1190 5158 
z
M 5056 5261 
L 5229 5165 
Q 5082 4947 4902 4710 
Q 4723 4474 4576 4307 
L 4435 4397 
Q 4538 4512 4653 4665 
Q 4768 4819 4877 4979 
Q 4986 5139 5056 5261 
z
" transform="scale(0.015625)"/>
     </defs>
     <use xlink:href="#NotoSansSC-Thin-2713"/>
     <use xlink:href="#NotoSansSC-Thin-20" transform="translate(64.399994 0)"/>
     <use xlink:href="#NotoSansSC-Thin-6b63" transform="translate(86.399979 0)"/>
     <use xlink:href="#NotoSansSC-Thin-5e38" transform="translate(186.399963 0)"/>
     <use xlink:href="#NotoSansSC-Thin-533a" transform="translate(286.399948 0)"/>
     <use xlink:href="#NotoSansSC-Thin-95f4" transform="translate(386.399933 0)"/>
    </g>
   </g>
   <g id="line2d_30">
    <path d="M 51.320156 177.318437 
L 87.095156 157.862437 
L 122.870156 146.188837 
L 158.645156 126.732837 
L 194.420156 116.615718 
L 230.195156 138.406437 
L 265.970156 204.556837 
L 301.745156 224.012837 
L 337.520156 216.230437 
" clip-path="url(#p67eb1e0ea7)" style="fill: none; stroke: #ea580c; stroke-width: 2.8; stroke-linecap: square"/>
    <defs>
     <path id="m6cf4c0480b" d="M 0 3 
C 0.795609 3 1.55874 2.683901 2.12132 2.12132 
C 2.683901 1.55874 3 0.795609 3 0 
C 3 -0.795609 2.683901 -1.55874 2.12132 -2.12132 
C 1.55874 -2.683901 0.795609 -3 0 -3 
C -0.795609 -3 -1.55874 -2.683901 -2.12132 -2.12132 
C -2.683901 -1.55874 -3 -0.795609 -3 0 
C -3 0.795609 -2.683901 1.55874 -2.12132 2.12132 
C -1.55874 2.683901 -0.795609 3 0 3 
z
" style="stroke: #ea580c; stroke-width: 2"/>
    </defs>
    <g clip-path="url(#p67eb1e0ea7)">
     <use xlink:href="#m6cf4c0480b" x="51.320156" y="177.318437" style="fill: #ffffff; stroke: #ea580c; stroke-width: 2"/>
     <use xlink:href="#m6cf4c0480b" x="87.095156" y="157.862437" style="fill: #ffffff; stroke: #ea580c; stroke-width: 2"/>
     <use xlink:href="#m6cf4c0480b" x="122.870156" y="146.188837" style="fill: #ffffff; stroke: #ea580c; stroke-width: 2"/>
     <use xlink:href="#m6cf4c0480b" x="158.645156" y="126.732837" style="fill: #ffffff; stroke: #ea580c; stroke-width: 2"/>
     <use xlink:href="#m6cf4c0480b" x="194.420156" y="116.615718" style="fill: #ffffff; stroke: #ea580c; stroke-width: 2"/>
     <use xlink:href="#m6cf4c0480b" x="230.195156" y="138.406437" style="fill: #ffffff; stroke: #ea580c; stroke-width: 2"/>
     <use xlink:href="#m6cf4c0480b" x="265.970156" y="204.556837" style="fill: #ffffff; stroke: #ea580c; stroke-width: 2"/>
     <use xlink:href="#m6cf4c0480b" x="301.745156" y="224.012837" style="fill: #ffffff; stroke: #ea580c; stroke-width: 2"/>
     <use xlink:href="#m6cf4c0480b" x="337.520156" y="216.230437" style="fill: #ffffff; stroke: #ea580c; stroke-width: 2"/>
    </g>
   </g>
  </g>
  <g id="text_25">
   <!-- 金油比趋势 -->
   <g style="fill: #1e293b" transform="translate(37.010156 21.916875) scale(0.14 -0.14)">
    <defs>
     <path id="NotoSansSC-Thin-8d8b" d="M 3930 5210 
L 4128 5184 
Q 3981 4749 3721 4240 
Q 3462 3731 3066 3302 
Q 3040 3334 2995 3363 
Q 2950 3392 2912 3405 
Q 3290 3821 3542 4313 
Q 3795 4806 3930 5210 
z
M 3853 4672 
L 5184 4672 
L 5184 4486 
L 3680 4486 
L 3853 4672 
z
M 595 4352 
L 2803 4352 
L 2803 4166 
L 595 4166 
L 595 4352 
z
M 384 3238 
L 2931 3238 
L 2931 3046 
L 384 3046 
L 384 3238 
z
M 1843 1965 
L 2925 1965 
L 2925 1779 
L 1843 1779 
L 1843 1965 
z
M 1664 5318 
L 1850 5318 
L 1850 3117 
L 1664 3117 
L 1664 5318 
z
M 1786 3117 
L 1971 3117 
L 1971 237 
L 1786 237 
L 1786 3117 
z
M 979 1555 
Q 1146 1043 1421 729 
Q 1696 416 2077 253 
Q 2458 90 2938 35 
Q 3418 -19 3994 -19 
Q 4038 -19 4246 -19 
Q 4454 -19 4745 -19 
Q 5037 -19 5331 -19 
Q 5626 -19 5850 -19 
Q 6074 -19 6138 -19 
Q 6118 -45 6099 -80 
Q 6080 -115 6064 -150 
Q 6048 -186 6042 -211 
L 5606 -211 
L 3994 -211 
Q 3379 -211 2876 -147 
Q 2374 -83 1984 93 
Q 1594 269 1309 601 
Q 1024 934 845 1478 
L 979 1555 
z
M 845 2464 
L 1043 2451 
Q 1024 1837 969 1312 
Q 915 787 796 355 
Q 678 -77 454 -416 
Q 442 -403 410 -377 
Q 378 -352 346 -326 
Q 314 -301 288 -288 
Q 512 26 624 445 
Q 736 864 784 1376 
Q 832 1888 845 2464 
z
M 3347 2227 
L 5574 2227 
L 5574 2042 
L 3347 2042 
L 3347 2227 
z
M 3315 3341 
L 5651 3341 
L 5651 870 
L 3142 870 
L 3142 1062 
L 5466 1062 
L 5466 3149 
L 3315 3149 
L 3315 3341 
z
M 5158 4672 
L 5190 4672 
L 5229 4691 
L 5357 4634 
Q 5235 4339 5056 3952 
Q 4877 3565 4710 3238 
L 4506 3302 
Q 4621 3514 4745 3763 
Q 4870 4013 4979 4246 
Q 5088 4480 5158 4634 
L 5158 4672 
z
" transform="scale(0.015625)"/>
     <path id="NotoSansSC-Thin-52bf" d="M 371 3392 
Q 653 3450 1024 3520 
Q 1395 3590 1820 3680 
Q 2246 3770 2682 3859 
L 2694 3661 
Q 2093 3539 1494 3414 
Q 896 3290 442 3194 
L 371 3392 
z
M 454 4614 
L 2662 4614 
L 2662 4429 
L 454 4429 
L 454 4614 
z
M 1530 5318 
L 1722 5318 
L 1722 2554 
Q 1722 2445 1686 2393 
Q 1651 2342 1562 2317 
Q 1478 2291 1302 2284 
Q 1126 2278 819 2285 
Q 813 2317 790 2368 
Q 768 2419 742 2451 
Q 998 2445 1184 2445 
Q 1370 2445 1427 2451 
Q 1530 2451 1530 2547 
L 1530 5318 
z
M 2790 4627 
L 5197 4627 
L 5197 4442 
L 2790 4442 
L 2790 4627 
z
M 2848 3872 
L 2970 4000 
Q 3290 3821 3635 3593 
Q 3981 3366 4291 3148 
Q 4602 2931 4800 2758 
L 4678 2605 
Q 4480 2778 4173 3002 
Q 3866 3226 3517 3456 
Q 3168 3686 2848 3872 
z
M 5101 4627 
L 5293 4627 
Q 5286 3866 5305 3389 
Q 5325 2912 5414 2691 
Q 5504 2470 5696 2470 
Q 5805 2470 5843 2592 
Q 5882 2714 5901 3066 
Q 5946 3040 5990 3017 
Q 6035 2995 6080 2982 
Q 6067 2707 6022 2553 
Q 5978 2400 5898 2339 
Q 5818 2278 5690 2278 
Q 5466 2278 5341 2435 
Q 5216 2592 5165 2893 
Q 5114 3194 5107 3629 
Q 5101 4064 5101 4627 
z
M 3923 5318 
L 4109 5318 
Q 4090 4691 4026 4204 
Q 3962 3718 3814 3350 
Q 3667 2982 3398 2720 
Q 3130 2458 2694 2278 
Q 2675 2310 2633 2348 
Q 2592 2387 2560 2406 
Q 2982 2579 3244 2828 
Q 3507 3078 3648 3430 
Q 3789 3782 3846 4249 
Q 3904 4717 3923 5318 
z
M 640 1728 
L 5299 1728 
L 5299 1542 
L 640 1542 
L 640 1728 
z
M 5242 1728 
L 5440 1728 
Q 5440 1728 5437 1705 
Q 5434 1683 5434 1654 
Q 5434 1626 5427 1606 
Q 5363 1011 5299 636 
Q 5235 262 5161 64 
Q 5088 -134 4986 -224 
Q 4915 -288 4832 -310 
Q 4749 -333 4608 -339 
Q 4474 -346 4202 -336 
Q 3930 -326 3622 -301 
Q 3616 -256 3603 -205 
Q 3590 -154 3558 -115 
Q 3891 -141 4179 -150 
Q 4467 -160 4570 -160 
Q 4678 -160 4736 -150 
Q 4794 -141 4838 -102 
Q 4922 -32 4992 163 
Q 5062 358 5123 729 
Q 5184 1101 5242 1690 
L 5242 1728 
z
M 2899 2253 
L 3098 2253 
Q 3014 1754 2854 1331 
Q 2694 909 2400 566 
Q 2106 224 1632 -32 
Q 1158 -288 448 -442 
Q 435 -410 403 -358 
Q 371 -307 339 -282 
Q 896 -166 1302 16 
Q 1709 198 1987 432 
Q 2266 666 2448 950 
Q 2630 1235 2736 1561 
Q 2842 1888 2899 2253 
z
" transform="scale(0.015625)"/>
    </defs>
    <use xlink:href="#NotoSansSC-Thin-91d1"/>
    <use xlink:href="#NotoSansSC-Thin-6cb9" transform="translate(99.999985 0)"/>
    <use xlink:href="#NotoSansSC-Thin-6bd4" transform="translate(199.999969 0)"/>
    <use xlink:href="#NotoSansSC-Thin-8d8b" transform="translate(299.999954 0)"/>
    <use xlink:href="#NotoSansSC-Thin-52bf" transform="translate(399.999939 0)"/>
   </g>
  </g>
  <g id="text_26">
   <!-- 黄金(COMEX) / 原油(WTI) 比值 · 从恐慌避险到滞胀交易 -->
   <g style="fill: #64748b" transform="translate(37.010156 43.409) scale(0.09 -0.09)">
    <defs>
     <path id="NotoSansSC-Thin-9ec4" d="M 378 3629 
L 6029 3629 
L 6029 3437 
L 378 3437 
L 378 3629 
z
M 851 4653 
L 5619 4653 
L 5619 4467 
L 851 4467 
L 851 4653 
z
M 2061 5318 
L 2246 5318 
L 2246 3539 
L 2061 3539 
L 2061 5318 
z
M 4173 5318 
L 4358 5318 
L 4358 3539 
L 4173 3539 
L 4173 5318 
z
M 3091 3546 
L 3283 3546 
L 3283 806 
L 3091 806 
L 3091 3546 
z
M 1318 1683 
L 1318 902 
L 5101 902 
L 5101 1683 
L 1318 1683 
z
M 1318 2637 
L 1318 1869 
L 5101 1869 
L 5101 2637 
L 1318 2637 
z
M 1133 2822 
L 5286 2822 
L 5286 717 
L 1133 717 
L 1133 2822 
z
M 3917 301 
L 4051 429 
Q 4416 314 4774 179 
Q 5133 45 5449 -83 
Q 5766 -211 6003 -326 
L 5837 -461 
Q 5613 -346 5305 -221 
Q 4998 -96 4643 38 
Q 4288 173 3917 301 
z
M 2323 448 
L 2534 346 
Q 2278 186 1942 35 
Q 1606 -115 1251 -243 
Q 896 -371 576 -467 
Q 557 -435 518 -387 
Q 480 -339 448 -314 
Q 768 -224 1123 -99 
Q 1478 26 1798 170 
Q 2118 314 2323 448 
z
" transform="scale(0.015625)"/>
     <path id="NotoSansSC-Thin-28" d="M 1562 -1222 
Q 1133 -525 883 252 
Q 634 1030 634 1958 
Q 634 2886 883 3667 
Q 1133 4448 1562 5146 
L 1696 5056 
Q 1274 4390 1059 3596 
Q 845 2803 845 1958 
Q 845 1114 1059 320 
Q 1274 -474 1696 -1139 
L 1562 -1222 
z
" transform="scale(0.015625)"/>
     <path id="NotoSansSC-Thin-43" d="M 2317 -83 
Q 1888 -83 1536 86 
Q 1184 256 928 576 
Q 672 896 534 1341 
Q 397 1786 397 2336 
Q 397 2886 537 3328 
Q 678 3770 934 4083 
Q 1190 4397 1552 4563 
Q 1914 4730 2355 4730 
Q 2758 4730 3059 4560 
Q 3360 4390 3539 4179 
L 3392 4019 
Q 3206 4237 2944 4371 
Q 2682 4506 2355 4506 
Q 1824 4506 1440 4240 
Q 1056 3974 851 3488 
Q 646 3002 646 2336 
Q 646 1670 851 1177 
Q 1056 685 1433 413 
Q 1811 141 2330 141 
Q 2694 141 2982 288 
Q 3270 435 3533 730 
L 3680 576 
Q 3418 269 3094 93 
Q 2771 -83 2317 -83 
z
" transform="scale(0.015625)"/>
     <path id="NotoSansSC-Thin-4f" d="M 2285 -83 
Q 1734 -83 1308 217 
Q 883 518 640 1062 
Q 397 1606 397 2336 
Q 397 3072 640 3606 
Q 883 4141 1308 4435 
Q 1734 4730 2285 4730 
Q 2835 4730 3260 4435 
Q 3686 4141 3929 3606 
Q 4173 3072 4173 2336 
Q 4173 1606 3929 1062 
Q 3686 518 3260 217 
Q 2835 -83 2285 -83 
z
M 2285 141 
Q 2778 141 3146 413 
Q 3514 685 3718 1177 
Q 3923 1670 3923 2336 
Q 3923 3002 3718 3488 
Q 3514 3974 3146 4240 
Q 2778 4506 2285 4506 
Q 1798 4506 1427 4240 
Q 1056 3974 851 3488 
Q 646 3002 646 2336 
Q 646 1670 851 1177 
Q 1056 685 1427 413 
Q 1798 141 2285 141 
z
" transform="scale(0.015625)"/>
     <path id="NotoSansSC-Thin-4d" d="M 704 0 
L 704 4646 
L 1082 4646 
L 2074 1843 
Q 2170 1587 2266 1321 
Q 2362 1056 2458 794 
L 2483 794 
Q 2579 1056 2668 1321 
Q 2758 1587 2848 1843 
L 3846 4646 
L 4224 4646 
L 4224 0 
L 3987 0 
L 3987 3213 
Q 3987 3398 3990 3606 
Q 3994 3814 4000 4028 
Q 4006 4243 4013 4429 
L 3987 4429 
L 3629 3405 
L 2586 518 
L 2336 518 
L 1286 3405 
L 922 4429 
L 896 4429 
Q 909 4243 915 4028 
Q 922 3814 925 3606 
Q 928 3398 928 3213 
L 928 0 
L 704 0 
z
" transform="scale(0.015625)"/>
     <path id="NotoSansSC-Thin-45" d="M 704 0 
L 704 4646 
L 3200 4646 
L 3200 4435 
L 941 4435 
L 941 2586 
L 2835 2586 
L 2835 2374 
L 941 2374 
L 941 211 
L 3270 211 
L 3270 0 
L 704 0 
z
" transform="scale(0.015625)"/>
     <path id="NotoSansSC-Thin-58" d="M 128 0 
L 1536 2406 
L 224 4646 
L 486 4646 
L 1286 3226 
Q 1382 3066 1465 2928 
Q 1549 2790 1670 2598 
L 1696 2598 
Q 1805 2790 1878 2928 
Q 1952 3066 2048 3226 
L 2861 4646 
L 3104 4646 
L 1792 2394 
L 3200 0 
L 2944 0 
L 2093 1485 
Q 1997 1651 1888 1830 
Q 1779 2010 1651 2221 
L 1626 2221 
Q 1510 2010 1411 1830 
Q 1312 1651 1216 1485 
L 371 0 
L 128 0 
z
" transform="scale(0.015625)"/>
     <path id="NotoSansSC-Thin-29" d="M 352 -1222 
L 211 -1139 
Q 634 -474 851 320 
Q 1069 1114 1069 1958 
Q 1069 2803 851 3596 
Q 634 4390 211 5056 
L 352 5146 
Q 787 4448 1033 3667 
Q 1280 2886 1280 1958 
Q 1280 1030 1033 252 
Q 787 -525 352 -1222 
z
" transform="scale(0.015625)"/>
     <path id="NotoSansSC-Thin-539f" d="M 1069 4890 
L 5984 4890 
L 5984 4698 
L 1069 4698 
L 1069 4890 
z
M 966 4890 
L 1158 4890 
L 1158 3123 
Q 1158 2746 1136 2304 
Q 1114 1862 1040 1401 
Q 966 941 828 496 
Q 691 51 461 -333 
Q 448 -314 419 -291 
Q 390 -269 361 -246 
Q 333 -224 307 -218 
Q 531 160 662 585 
Q 794 1011 861 1456 
Q 928 1901 947 2326 
Q 966 2752 966 3123 
L 966 4890 
z
M 2080 2675 
L 2080 1882 
L 5222 1882 
L 5222 2675 
L 2080 2675 
z
M 2080 3642 
L 2080 2861 
L 5222 2861 
L 5222 3642 
L 2080 3642 
z
M 1888 3827 
L 5408 3827 
L 5408 1696 
L 1888 1696 
L 1888 3827 
z
M 3539 1869 
L 3725 1869 
L 3725 -141 
Q 3725 -262 3686 -320 
Q 3648 -378 3546 -410 
Q 3437 -435 3203 -435 
Q 2970 -435 2566 -435 
Q 2560 -403 2534 -355 
Q 2509 -307 2483 -262 
Q 2842 -269 3085 -272 
Q 3328 -275 3405 -269 
Q 3488 -262 3513 -236 
Q 3539 -211 3539 -147 
L 3539 1869 
z
M 3552 4563 
L 3744 4506 
Q 3661 4307 3568 4086 
Q 3475 3866 3386 3699 
L 3226 3744 
Q 3315 3917 3408 4150 
Q 3501 4384 3552 4563 
z
M 4506 1133 
L 4653 1216 
Q 4870 1018 5104 784 
Q 5338 550 5546 326 
Q 5754 102 5888 -58 
L 5734 -173 
Q 5600 -6 5392 221 
Q 5184 448 4950 688 
Q 4717 928 4506 1133 
z
M 2458 1248 
L 2643 1184 
Q 2470 960 2265 720 
Q 2061 480 1856 259 
Q 1651 38 1466 -134 
Q 1446 -122 1414 -99 
Q 1382 -77 1350 -54 
Q 1318 -32 1293 -19 
Q 1594 243 1907 582 
Q 2221 922 2458 1248 
z
" transform="scale(0.015625)"/>
     <path id="NotoSansSC-Thin-57" d="M 1286 0 
L 211 4646 
L 461 4646 
L 1075 1843 
Q 1165 1466 1248 1085 
Q 1331 704 1414 320 
L 1440 320 
Q 1530 704 1622 1085 
Q 1715 1466 1811 1843 
L 2560 4646 
L 2829 4646 
L 3584 1843 
Q 3680 1466 3773 1085 
Q 3866 704 3962 320 
L 3994 320 
Q 4077 704 4153 1085 
Q 4230 1466 4307 1843 
L 4928 4646 
L 5165 4646 
L 4102 0 
L 3853 0 
L 2963 3315 
Q 2899 3597 2838 3840 
Q 2778 4083 2707 4358 
L 2682 4358 
Q 2618 4083 2547 3840 
Q 2477 3597 2413 3315 
L 1536 0 
L 1286 0 
z
" transform="scale(0.015625)"/>
     <path id="NotoSansSC-Thin-54" d="M 1709 0 
L 1709 4435 
L 211 4435 
L 211 4646 
L 3456 4646 
L 3456 4435 
L 1958 4435 
L 1958 0 
L 1709 0 
z
" transform="scale(0.015625)"/>
     <path id="NotoSansSC-Thin-49" d="M 704 0 
L 704 4646 
L 941 4646 
L 941 0 
L 704 0 
z
" transform="scale(0.015625)"/>
     <path id="NotoSansSC-Thin-b7" d="M 3200 2976 
Q 3354 2976 3475 2902 
Q 3597 2829 3670 2707 
Q 3744 2586 3744 2432 
Q 3744 2285 3670 2160 
Q 3597 2035 3475 1961 
Q 3354 1888 3200 1888 
Q 3053 1888 2928 1961 
Q 2803 2035 2729 2160 
Q 2656 2285 2656 2432 
Q 2656 2586 2729 2707 
Q 2803 2829 2928 2902 
Q 3053 2976 3200 2976 
z
" transform="scale(0.015625)"/>
     <path id="NotoSansSC-Thin-4ece" d="M 1709 3110 
L 1843 3232 
Q 2099 2912 2358 2534 
Q 2618 2157 2835 1798 
Q 3053 1440 3174 1158 
L 3027 1037 
Q 2893 1318 2675 1680 
Q 2458 2042 2205 2416 
Q 1952 2790 1709 3110 
z
M 4211 3072 
Q 4288 2656 4432 2189 
Q 4576 1722 4793 1267 
Q 5011 813 5318 416 
Q 5626 19 6035 -256 
Q 6016 -269 5990 -297 
Q 5965 -326 5942 -355 
Q 5920 -384 5901 -410 
Q 5498 -115 5190 288 
Q 4883 691 4662 1148 
Q 4442 1606 4298 2060 
Q 4154 2515 4070 2918 
L 4211 3072 
z
M 1850 5120 
L 2048 5107 
Q 1971 3859 1824 2835 
Q 1677 1811 1379 992 
Q 1082 173 538 -461 
Q 525 -442 496 -419 
Q 467 -397 432 -374 
Q 397 -352 371 -339 
Q 915 250 1212 1066 
Q 1510 1882 1648 2902 
Q 1786 3923 1850 5120 
z
M 4288 5133 
L 4480 5120 
Q 4403 4141 4278 3318 
Q 4154 2496 3942 1814 
Q 3731 1133 3388 576 
Q 3046 19 2534 -422 
Q 2515 -410 2486 -387 
Q 2458 -365 2426 -339 
Q 2394 -314 2368 -301 
Q 3053 256 3437 1046 
Q 3821 1837 4009 2857 
Q 4198 3878 4288 5133 
z
" transform="scale(0.015625)"/>
     <path id="NotoSansSC-Thin-5230" d="M 698 1946 
L 3642 1946 
L 3642 1760 
L 698 1760 
L 698 1946 
z
M 2042 2752 
L 2227 2752 
L 2227 384 
L 2042 384 
L 2042 2752 
z
M 467 160 
Q 858 230 1379 329 
Q 1901 429 2496 547 
Q 3091 666 3693 787 
L 3706 602 
Q 3130 486 2550 368 
Q 1971 250 1449 144 
Q 928 38 518 -45 
L 467 160 
z
M 512 4851 
L 3757 4851 
L 3757 4659 
L 512 4659 
L 512 4851 
z
M 2586 4147 
L 2733 4230 
Q 2925 4013 3123 3760 
Q 3322 3507 3494 3270 
Q 3667 3034 3770 2854 
L 3622 2746 
Q 3514 2925 3341 3168 
Q 3168 3411 2973 3670 
Q 2778 3930 2586 4147 
z
M 4224 4806 
L 4410 4806 
L 4410 934 
L 4224 934 
L 4224 4806 
z
M 5530 5178 
L 5715 5178 
L 5715 90 
Q 5715 -64 5667 -134 
Q 5619 -205 5510 -237 
Q 5395 -262 5164 -268 
Q 4934 -275 4608 -275 
Q 4602 -230 4576 -163 
Q 4550 -96 4518 -51 
Q 4826 -58 5072 -61 
Q 5318 -64 5402 -58 
Q 5478 -51 5504 -25 
Q 5530 0 5530 83 
L 5530 5178 
z
M 768 2912 
Q 762 2938 752 2976 
Q 742 3014 729 3052 
Q 717 3091 698 3117 
Q 768 3130 845 3210 
Q 922 3290 1011 3411 
Q 1075 3494 1222 3715 
Q 1370 3936 1536 4230 
Q 1702 4525 1830 4826 
L 2016 4730 
Q 1862 4416 1686 4112 
Q 1510 3808 1324 3536 
Q 1139 3264 947 3046 
L 947 3040 
Q 947 3040 921 3030 
Q 896 3021 857 3001 
Q 819 2982 793 2960 
Q 768 2938 768 2912 
z
M 768 2912 
L 768 3066 
L 928 3155 
L 3283 3398 
Q 3302 3360 3331 3318 
Q 3360 3277 3386 3245 
Q 2701 3168 2243 3117 
Q 1786 3066 1507 3034 
Q 1229 3002 1081 2979 
Q 934 2957 867 2941 
Q 800 2925 768 2912 
z
" transform="scale(0.015625)"/>
    </defs>
    <use xlink:href="#NotoSansSC-Thin-9ec4"/>
    <use xlink:href="#NotoSansSC-Thin-91d1" transform="translate(99.999985 0)"/>
    <use xlink:href="#NotoSansSC-Thin-28" transform="translate(199.999969 0)"/>
    <use xlink:href="#NotoSansSC-Thin-43" transform="translate(229.899963 0)"/>
    <use xlink:href="#NotoSansSC-Thin-4f" transform="translate(291.799957 0)"/>
    <use xlink:href="#NotoSansSC-Thin-4d" transform="translate(363.199951 0)"/>
    <use xlink:href="#NotoSansSC-Thin-45" transform="translate(440.199936 0)"/>
    <use xlink:href="#NotoSansSC-Thin-58" transform="translate(496.399933 0)"/>
    <use xlink:href="#NotoSansSC-Thin-29" transform="translate(548.299927 0)"/>
    <use xlink:href="#NotoSansSC-Thin-20" transform="translate(578.199921 0)"/>
    <use xlink:href="#NotoSansSC-Thin-2f" transform="translate(600.199905 0)"/>
    <use xlink:href="#NotoSansSC-Thin-20" transform="translate(639.799896 0)"/>
    <use xlink:href="#NotoSansSC-Thin-539f" transform="translate(661.799881 0)"/>
    <use xlink:href="#NotoSansSC-Thin-6cb9" transform="translate(761.799866 0)"/>
    <use xlink:href="#NotoSansSC-Thin-28" transform="translate(861.79985 0)"/>
    <use xlink:href="#NotoSansSC-Thin-57" transform="translate(891.699844 0)"/>
    <use xlink:href="#NotoSansSC-Thin-54" transform="translate(975.899826 0)"/>
    <use xlink:href="#NotoSansSC-Thin-49" transform="translate(1033.199814 0)"/>
    <use xlink:href="#NotoSansSC-Thin-29" transform="translate(1058.899811 0)"/>
    <use xlink:href="#NotoSansSC-Thin-20" transform="translate(1088.799805 0)"/>
    <use xlink:href="#NotoSansSC-Thin-6bd4" transform="translate(1110.799789 0)"/>
    <use xlink:href="#NotoSansSC-Thin-503c" transform="translate(1210.799774 0)"/>
    <use xlink:href="#NotoSansSC-Thin-20" transform="translate(1310.799759 0)"/>
    <use xlink:href="#NotoSansSC-Thin-b7" transform="translate(1332.799744 0)"/>
    <use xlink:href="#NotoSansSC-Thin-20" transform="translate(1432.799728 0)"/>
    <use xlink:href="#NotoSansSC-Thin-4ece" transform="translate(1454.799713 0)"/>
    <use xlink:href="#NotoSansSC-Thin-6050" transform="translate(1554.799698 0)"/>
    <use xlink:href="#NotoSansSC-Thin-614c" transform="translate(1654.799683 0)"/>
    <use xlink:href="#NotoSansSC-Thin-907f" transform="translate(1754.799667 0)"/>
    <use xlink:href="#NotoSansSC-Thin-9669" transform="translate(1854.799652 0)"/>
    <use xlink:href="#NotoSansSC-Thin-5230" transform="translate(1954.799637 0)"/>
    <use xlink:href="#NotoSansSC-Thin-6ede" transform="translate(2054.799622 0)"/>
    <use xlink:href="#NotoSansSC-Thin-80c0" transform="translate(2154.799606 0)"/>
    <use xlink:href="#NotoSansSC-Thin-4ea4" transform="translate(2254.799591 0)"/>
    <use xlink:href="#NotoSansSC-Thin-6613" transform="translate(2354.799576 0)"/>
   </g>
  </g>
  <g id="text_27">
   <!-- 来源: COMEX / NYMEX · 2026-05-26 -->
   <g style="fill: #94a3b8" transform="translate(37.010156 268.611141) scale(0.065 -0.065)">
    <defs>
     <path id="NotoSansSC-Thin-6765" d="M 397 2432 
L 6016 2432 
L 6016 2246 
L 397 2246 
L 397 2432 
z
M 704 4467 
L 5734 4467 
L 5734 4282 
L 704 4282 
L 704 4467 
z
M 3091 5306 
L 3283 5306 
L 3283 -448 
L 3091 -448 
L 3091 5306 
z
M 4979 4026 
L 5171 3949 
Q 5062 3725 4928 3475 
Q 4794 3226 4656 2995 
Q 4518 2765 4390 2586 
L 4237 2656 
Q 4365 2835 4502 3078 
Q 4640 3322 4768 3574 
Q 4896 3827 4979 4026 
z
M 1312 3923 
L 1478 3981 
Q 1619 3782 1753 3548 
Q 1888 3315 1993 3094 
Q 2099 2874 2144 2701 
L 1971 2624 
Q 1920 2797 1817 3024 
Q 1715 3251 1584 3488 
Q 1453 3725 1312 3923 
z
M 2963 2374 
L 3123 2298 
Q 2893 1926 2579 1571 
Q 2266 1216 1901 896 
Q 1536 576 1161 317 
Q 787 58 429 -115 
Q 416 -90 390 -64 
Q 365 -38 339 -12 
Q 314 13 288 32 
Q 646 192 1024 445 
Q 1402 698 1763 1011 
Q 2125 1325 2435 1673 
Q 2746 2022 2963 2374 
z
M 3411 2381 
Q 3635 2029 3952 1677 
Q 4269 1325 4637 1005 
Q 5005 685 5389 432 
Q 5773 179 6138 13 
Q 6118 -6 6092 -35 
Q 6067 -64 6041 -89 
Q 6016 -115 5997 -141 
Q 5638 32 5254 297 
Q 4870 563 4499 889 
Q 4128 1216 3808 1577 
Q 3488 1939 3258 2304 
L 3411 2381 
z
" transform="scale(0.015625)"/>
     <path id="NotoSansSC-Thin-6e90" d="M 2304 5024 
L 6035 5024 
L 6035 4838 
L 2304 4838 
L 2304 5024 
z
M 2214 5024 
L 2406 5024 
L 2406 3283 
Q 2406 2874 2377 2400 
Q 2349 1926 2262 1436 
Q 2176 947 2006 476 
Q 1837 6 1555 -397 
Q 1542 -378 1513 -358 
Q 1485 -339 1456 -320 
Q 1427 -301 1402 -294 
Q 1677 102 1840 560 
Q 2003 1018 2083 1491 
Q 2163 1965 2188 2422 
Q 2214 2880 2214 3283 
L 2214 5024 
z
M 3110 2765 
L 3110 1990 
L 5542 1990 
L 5542 2765 
L 3110 2765 
z
M 3110 3718 
L 3110 2957 
L 5542 2957 
L 5542 3718 
L 3110 3718 
z
M 2925 3910 
L 5728 3910 
L 5728 1798 
L 2925 1798 
L 2925 3910 
z
M 3270 1338 
L 3456 1286 
Q 3341 1050 3193 810 
Q 3046 570 2886 355 
Q 2726 141 2566 -26 
Q 2554 -6 2522 13 
Q 2490 32 2458 57 
Q 2426 83 2400 96 
Q 2650 339 2880 665 
Q 3110 992 3270 1338 
z
M 5075 1293 
L 5242 1363 
Q 5395 1165 5555 937 
Q 5715 710 5856 499 
Q 5997 288 6086 134 
L 5907 38 
Q 5824 198 5683 412 
Q 5542 627 5385 860 
Q 5229 1094 5075 1293 
z
M 4218 4634 
L 4410 4570 
Q 4346 4365 4272 4144 
Q 4198 3923 4128 3770 
L 3981 3827 
Q 4038 3994 4108 4227 
Q 4179 4461 4218 4634 
z
M 4211 1939 
L 4397 1939 
L 4397 -173 
Q 4397 -282 4361 -336 
Q 4326 -390 4237 -416 
Q 4141 -442 3939 -448 
Q 3738 -454 3398 -448 
Q 3392 -416 3373 -368 
Q 3354 -320 3328 -275 
Q 3616 -282 3824 -282 
Q 4032 -282 4096 -282 
Q 4211 -275 4211 -173 
L 4211 1939 
z
M 627 5101 
L 749 5222 
Q 934 5107 1139 4972 
Q 1344 4838 1526 4707 
Q 1709 4576 1830 4480 
L 1715 4326 
Q 1594 4429 1408 4563 
Q 1222 4698 1017 4842 
Q 813 4986 627 5101 
z
M 307 3379 
L 422 3507 
Q 614 3405 822 3280 
Q 1030 3155 1219 3036 
Q 1408 2918 1536 2822 
L 1427 2669 
Q 1299 2765 1110 2889 
Q 922 3014 710 3145 
Q 499 3277 307 3379 
z
M 493 -224 
Q 646 26 832 374 
Q 1018 723 1203 1110 
Q 1389 1498 1542 1843 
L 1690 1728 
Q 1549 1395 1369 1020 
Q 1190 646 1004 288 
Q 819 -70 653 -352 
L 493 -224 
z
" transform="scale(0.015625)"/>
     <path id="NotoSansSC-Thin-3a" d="M 736 2656 
Q 640 2656 560 2726 
Q 480 2797 480 2931 
Q 480 3072 560 3145 
Q 640 3219 736 3219 
Q 838 3219 918 3145 
Q 998 3072 998 2931 
Q 998 2797 918 2726 
Q 838 2656 736 2656 
z
M 736 -83 
Q 640 -83 560 -9 
Q 480 64 480 192 
Q 480 333 560 406 
Q 640 480 736 480 
Q 838 480 918 406 
Q 998 333 998 192 
Q 998 64 918 -9 
Q 838 -83 736 -83 
z
" transform="scale(0.015625)"/>
     <path id="NotoSansSC-Thin-4e" d="M 704 0 
L 704 4646 
L 954 4646 
L 3002 1261 
L 3533 346 
L 3565 346 
Q 3546 685 3536 1008 
Q 3526 1331 3526 1658 
L 3526 4646 
L 3757 4646 
L 3757 0 
L 3501 0 
L 1459 3386 
L 928 4301 
L 902 4301 
Q 915 3974 921 3667 
Q 928 3360 928 3027 
L 928 0 
L 704 0 
z
" transform="scale(0.015625)"/>
     <path id="NotoSansSC-Thin-59" d="M 1421 0 
L 1421 1907 
L 26 4646 
L 282 4646 
L 1018 3149 
Q 1146 2893 1267 2646 
Q 1389 2400 1530 2144 
L 1555 2144 
Q 1696 2400 1827 2646 
Q 1958 2893 2074 3149 
L 2816 4646 
L 3053 4646 
L 1658 1907 
L 1658 0 
L 1421 0 
z
" transform="scale(0.015625)"/>
     <path id="NotoSansSC-Thin-2d" d="M 282 1638 
L 282 1862 
L 1811 1862 
L 1811 1638 
L 282 1638 
z
" transform="scale(0.015625)"/>
    </defs>
    <use xlink:href="#NotoSansSC-Thin-6765"/>
    <use xlink:href="#NotoSansSC-Thin-6e90" transform="translate(99.999985 0)"/>
    <use xlink:href="#NotoSansSC-Thin-3a" transform="translate(199.999969 0)"/>
    <use xlink:href="#NotoSansSC-Thin-20" transform="translate(223.09996 0)"/>
    <use xlink:href="#NotoSansSC-Thin-43" transform="translate(245.099945 0)"/>
    <use xlink:href="#NotoSansSC-Thin-4f" transform="translate(306.999939 0)"/>
    <use xlink:href="#NotoSansSC-Thin-4d" transform="translate(378.399933 0)"/>
    <use xlink:href="#NotoSansSC-Thin-45" transform="translate(455.399918 0)"/>
    <use xlink:href="#NotoSansSC-Thin-58" transform="translate(511.599915 0)"/>
    <use xlink:href="#NotoSansSC-Thin-20" transform="translate(563.499908 0)"/>
    <use xlink:href="#NotoSansSC-Thin-2f" transform="translate(585.499893 0)"/>
    <use xlink:href="#NotoSansSC-Thin-20" transform="translate(625.099884 0)"/>
    <use xlink:href="#NotoSansSC-Thin-4e" transform="translate(647.099869 0)"/>
    <use xlink:href="#NotoSansSC-Thin-59" transform="translate(716.69986 0)"/>
    <use xlink:href="#NotoSansSC-Thin-4d" transform="translate(764.899857 0)"/>
    <use xlink:href="#NotoSansSC-Thin-45" transform="translate(841.899841 0)"/>
    <use xlink:href="#NotoSansSC-Thin-58" transform="translate(898.099838 0)"/>
    <use xlink:href="#NotoSansSC-Thin-20" transform="translate(949.999832 0)"/>
    <use xlink:href="#NotoSansSC-Thin-b7" transform="translate(971.999817 0)"/>
    <use xlink:href="#NotoSansSC-Thin-20" transform="translate(1071.999802 0)"/>
    <use xlink:href="#NotoSansSC-Thin-32" transform="translate(1093.999786 0)"/>
    <use xlink:href="#NotoSansSC-Thin-30" transform="translate(1146.099777 0)"/>
    <use xlink:href="#NotoSansSC-Thin-32" transform="translate(1198.199768 0)"/>
    <use xlink:href="#NotoSansSC-Thin-36" transform="translate(1250.299759 0)"/>
    <use xlink:href="#NotoSansSC-Thin-2d" transform="translate(1302.39975 0)"/>
    <use xlink:href="#NotoSansSC-Thin-30" transform="translate(1334.799744 0)"/>
    <use xlink:href="#NotoSansSC-Thin-35" transform="translate(1386.899734 0)"/>
    <use xlink:href="#NotoSansSC-Thin-2d" transform="translate(1438.999725 0)"/>
    <use xlink:href="#NotoSansSC-Thin-32" transform="translate(1471.399719 0)"/>
    <use xlink:href="#NotoSansSC-Thin-36" transform="translate(1523.49971 0)"/>
   </g>
  </g>
 </g>
 <defs>
  <clipPath id="p67eb1e0ea7">
   <rect x="37.010156" y="80.038437" width="314.82" height="175.104"/>
  </clipPath>
 </defs>
</svg>
