<?xml version="1.0" encoding="utf-8" standalone="no"?>
<!DOCTYPE svg PUBLIC "-//W3C//DTD SVG 1.1//EN"
  "http://www.w3.org/Graphics/SVG/1.1/DTD/svg11.dtd">
<svg xmlns:xlink="http://www.w3.org/1999/xlink" width="363.18pt" height="280.472pt" viewBox="0 0 363.18 280.472" xmlns="http://www.w3.org/2000/svg" version="1.1">
 <metadata>
  <rdf:RDF xmlns:dc="http://purl.org/dc/elements/1.1/" xmlns:cc="http://creativecommons.org/ns#" xmlns:rdf="http://www.w3.org/1999/02/22-rdf-syntax-ns#">
   <cc:Work>
    <dc:type rdf:resource="http://purl.org/dc/dcmitype/StillImage"/>
    <dc:date>2026-06-23T21:30:41.823838</dc:date>
    <dc:format>image/svg+xml</dc:format>
    <dc:creator>
     <cc:Agent>
      <dc:title>Matplotlib v3.11.0, https://matplotlib.org/</dc:title>
     </cc:Agent>
    </dc:creator>
   </cc:Work>
  </rdf:RDF>
 </metadata>
 <defs>
  <style type="text/css">*{stroke-linejoin: round; stroke-linecap: butt}</style>
 </defs>
 <g id="figure_1">
  <g id="patch_1">
   <path d="M 0 280.472 
L 363.18 280.472 
L 363.18 -0 
L 0 -0 
z
" style="fill: #ffffff"/>
  </g>
  <g id="axes_1">
   <g id="patch_2">
    <path d="M 37.56 254.624 
L 352.38 254.624 
L 352.38 79.52 
L 37.56 79.52 
z
" style="fill: #ffffff"/>
   </g>
   <g id="patch_3">
    <path d="M 37.56 176.8 
L 352.38 176.8 
L 352.38 114.5408 
L 37.56 114.5408 
z
" clip-path="url(#p5dd7902004)" style="fill: #dc2626; opacity: 0.06; stroke: #dc2626; stroke-width: 1.5; stroke-linejoin: miter"/>
   </g>
   <g id="patch_4">
    <path d="M 37.56 235.168 
L 352.38 235.168 
L 352.38 196.256 
L 37.56 196.256 
z
" clip-path="url(#p5dd7902004)" style="fill: #16a34a; opacity: 0.06; stroke: #16a34a; stroke-width: 1.5; stroke-linejoin: miter"/>
   </g>
   <g id="matplotlib.axis_1">
    <g id="xtick_1">
     <g id="line2d_1"/>
     <g id="text_1">
      <!-- 25/1 -->
      <g style="fill: #94a3b8" transform="translate(42.42 266.044) scale(0.09 -0.09)">
       <defs>
        <path id="NotoSansSC-Medium-13" d="M 282 0 
L 3322 0 
L 3322 627 
L 2144 627 
C 1914 627 1619 608 1376 582 
C 2374 1536 3098 2477 3098 3386 
C 3098 4237 2541 4800 1677 4800 
C 1062 4800 646 4538 243 4096 
L 659 3686 
C 909 3974 1216 4211 1587 4211 
C 2118 4211 2387 3859 2387 3347 
C 2387 2573 1670 1658 282 429 
L 282 0 
z
" transform="scale(0.015625)"/>
        <path id="NotoSansSC-Medium-16" d="M 1715 -83 
C 2541 -83 3302 506 3302 1549 
C 3302 2579 2656 3046 1869 3046 
C 1613 3046 1427 2982 1222 2880 
L 1331 4090 
L 3078 4090 
L 3078 4717 
L 691 4717 
L 550 2477 
L 909 2240 
C 1184 2419 1363 2509 1664 2509 
C 2202 2509 2560 2150 2560 1523 
C 2560 896 2157 518 1626 518 
C 1133 518 794 755 525 1024 
L 173 544 
C 506 218 973 -83 1715 -83 
z
" transform="scale(0.015625)"/>
        <path id="NotoSansSC-Medium-10" d="M 77 -1152 
L 589 -1152 
L 2368 5114 
L 1856 5114 
L 77 -1152 
z
" transform="scale(0.015625)"/>
        <path id="NotoSansSC-Medium-12" d="M 550 0 
L 3238 0 
L 3238 608 
L 2317 608 
L 2317 4717 
L 1760 4717 
C 1491 4544 1178 4435 736 4352 
L 736 3885 
L 1581 3885 
L 1581 608 
L 550 608 
L 550 0 
z
" transform="scale(0.015625)"/>
       </defs>
       <use xlink:href="#NotoSansSC-Medium-13"/>
       <use xlink:href="#NotoSansSC-Medium-16" transform="translate(57 0)"/>
       <use xlink:href="#NotoSansSC-Medium-10" transform="translate(114 0)"/>
       <use xlink:href="#NotoSansSC-Medium-12" transform="translate(153 0)"/>
      </g>
     </g>
    </g>
    <g id="xtick_2">
     <g id="line2d_2"/>
     <g id="text_2">
      <!-- 3 -->
      <g style="fill: #94a3b8" transform="translate(85.08 266.044) scale(0.09 -0.09)">
       <defs>
        <path id="NotoSansSC-Medium-14" d="M 1715 -83 
C 2579 -83 3290 416 3290 1267 
C 3290 1901 2861 2310 2317 2445 
L 2317 2477 
C 2816 2662 3130 3040 3130 3584 
C 3130 4358 2534 4800 1690 4800 
C 1146 4800 710 4563 339 4230 
L 723 3770 
C 992 4032 1299 4205 1664 4211 
C 2112 4205 2387 3949 2387 3533 
C 2387 3059 2080 2707 1152 2707 
L 1152 2163 
C 2214 2163 2547 1824 2547 1306 
C 2547 813 2182 518 1651 518 
C 1165 518 813 755 538 1037 
L 179 563 
C 493 211 973 -83 1715 -83 
z
" transform="scale(0.015625)"/>
       </defs>
       <use xlink:href="#NotoSansSC-Medium-14"/>
      </g>
     </g>
    </g>
    <g id="xtick_3">
     <g id="line2d_3"/>
     <g id="text_3">
      <!-- 5 -->
      <g style="fill: #94a3b8" transform="translate(120.855 266.044) scale(0.09 -0.09)">
       <use xlink:href="#NotoSansSC-Medium-16"/>
      </g>
     </g>
    </g>
    <g id="xtick_4">
     <g id="line2d_4"/>
     <g id="text_4">
      <!-- 7 -->
      <g style="fill: #94a3b8" transform="translate(156.63 266.044) scale(0.09 -0.09)">
       <defs>
        <path id="NotoSansSC-Medium-18" d="M 1235 0 
L 1990 0 
C 2067 1843 2240 2886 3347 4262 
L 3347 4717 
L 314 4717 
L 314 4090 
L 2528 4090 
C 1619 2822 1318 1722 1235 0 
z
" transform="scale(0.015625)"/>
       </defs>
       <use xlink:href="#NotoSansSC-Medium-18"/>
      </g>
     </g>
    </g>
    <g id="xtick_5">
     <g id="line2d_5"/>
     <g id="text_5">
      <!-- 9 -->
      <g style="fill: #94a3b8" transform="translate(192.405 266.044) scale(0.09 -0.09)">
       <defs>
        <path id="NotoSansSC-Medium-1a" d="M 960 3251 
C 960 3866 1280 4230 1683 4230 
C 2195 4230 2547 3808 2618 2880 
C 2349 2477 2016 2304 1722 2304 
C 1229 2304 960 2650 960 3251 
z
M 1555 -83 
C 2464 -83 3309 659 3309 2515 
C 3309 4077 2579 4800 1677 4800 
C 915 4800 275 4186 275 3251 
C 275 2266 806 1773 1594 1773 
C 1952 1773 2355 1984 2630 2323 
C 2586 979 2093 518 1523 518 
C 1229 518 941 659 755 870 
L 352 416 
C 627 134 1011 -83 1555 -83 
z
" transform="scale(0.015625)"/>
       </defs>
       <use xlink:href="#NotoSansSC-Medium-1a"/>
      </g>
     </g>
    </g>
    <g id="xtick_6">
     <g id="line2d_6"/>
     <g id="text_6">
      <!-- 11 -->
      <g style="fill: #94a3b8" transform="translate(225.615 266.044) scale(0.09 -0.09)">
       <use xlink:href="#NotoSansSC-Medium-12"/>
       <use xlink:href="#NotoSansSC-Medium-12" transform="translate(57 0)"/>
      </g>
     </g>
    </g>
    <g id="xtick_7">
     <g id="line2d_7"/>
     <g id="text_7">
      <!-- 26/1 -->
      <g style="fill: #94a3b8" transform="translate(257.07 266.044) scale(0.09 -0.09)">
       <defs>
        <path id="NotoSansSC-Medium-17" d="M 1914 2406 
C 2419 2406 2694 2067 2694 1466 
C 2694 851 2368 480 1958 480 
C 1453 480 1114 922 1037 1856 
C 1318 2259 1645 2406 1914 2406 
z
M 1965 -83 
C 2733 -83 3373 531 3373 1466 
C 3373 2458 2842 2944 2048 2944 
C 1709 2944 1299 2739 1024 2400 
C 1056 3744 1555 4198 2157 4198 
C 2432 4198 2720 4051 2893 3846 
L 3296 4294 
C 3027 4576 2643 4800 2118 4800 
C 1190 4800 339 4077 339 2266 
C 339 666 1069 -83 1965 -83 
z
" transform="scale(0.015625)"/>
       </defs>
       <use xlink:href="#NotoSansSC-Medium-13"/>
       <use xlink:href="#NotoSansSC-Medium-17" transform="translate(57 0)"/>
       <use xlink:href="#NotoSansSC-Medium-10" transform="translate(114 0)"/>
       <use xlink:href="#NotoSansSC-Medium-12" transform="translate(153 0)"/>
      </g>
     </g>
    </g>
    <g id="xtick_8">
     <g id="line2d_8"/>
     <g id="text_8">
      <!-- 3 -->
      <g style="fill: #94a3b8" transform="translate(299.73 266.044) scale(0.09 -0.09)">
       <use xlink:href="#NotoSansSC-Medium-14"/>
      </g>
     </g>
    </g>
    <g id="xtick_9">
     <g id="line2d_9"/>
     <g id="text_9">
      <!-- 5 -->
      <g style="fill: #94a3b8" transform="translate(335.505 266.044) scale(0.09 -0.09)">
       <use xlink:href="#NotoSansSC-Medium-16"/>
      </g>
     </g>
    </g>
   </g>
   <g id="matplotlib.axis_2">
    <g id="ytick_1">
     <g id="line2d_10">
      <path d="M 37.56 254.624 
L 352.38 254.624 
" clip-path="url(#p5dd7902004)" style="fill: none; stroke: #e2e8f0; stroke-opacity: 0.6; stroke-width: 0.5; stroke-linecap: square"/>
     </g>
     <g id="line2d_11"/>
     <g id="text_10">
      <!-- 35 -->
      <g style="fill: #94a3b8" transform="translate(23.8 258.584) scale(0.09 -0.09)">
       <use xlink:href="#NotoSansSC-Medium-14"/>
       <use xlink:href="#NotoSansSC-Medium-16" transform="translate(57 0)"/>
      </g>
     </g>
    </g>
    <g id="ytick_2">
     <g id="line2d_12">
      <path d="M 37.56 235.168 
L 352.38 235.168 
" clip-path="url(#p5dd7902004)" style="fill: none; stroke: #e2e8f0; stroke-opacity: 0.6; stroke-width: 0.5; stroke-linecap: square"/>
     </g>
     <g id="line2d_13"/>
     <g id="text_11">
      <!-- 40 -->
      <g style="fill: #94a3b8" transform="translate(23.8 239.128) scale(0.09 -0.09)">
       <defs>
        <path id="NotoSansSC-Medium-15" d="M 870 1837 
L 1798 3258 
C 1933 3501 2061 3744 2176 3987 
L 2202 3987 
C 2189 3725 2170 3328 2170 3072 
L 2170 1837 
L 870 1837 
z
M 2170 0 
L 2861 0 
L 2861 1267 
L 3456 1267 
L 3456 1837 
L 2861 1837 
L 2861 4717 
L 2003 4717 
L 128 1760 
L 128 1267 
L 2170 1267 
L 2170 0 
z
" transform="scale(0.015625)"/>
        <path id="NotoSansSC-Medium-11" d="M 1824 -83 
C 2746 -83 3347 736 3347 2374 
C 3347 4000 2746 4800 1824 4800 
C 902 4800 301 4006 301 2374 
C 301 736 902 -83 1824 -83 
z
M 1824 499 
C 1344 499 1005 1011 1005 2374 
C 1005 3725 1344 4218 1824 4218 
C 2304 4218 2643 3725 2643 2374 
C 2643 1011 2304 499 1824 499 
z
" transform="scale(0.015625)"/>
       </defs>
       <use xlink:href="#NotoSansSC-Medium-15"/>
       <use xlink:href="#NotoSansSC-Medium-11" transform="translate(57 0)"/>
      </g>
     </g>
    </g>
    <g id="ytick_3">
     <g id="line2d_14">
      <path d="M 37.56 215.712 
L 352.38 215.712 
" clip-path="url(#p5dd7902004)" style="fill: none; stroke: #e2e8f0; stroke-opacity: 0.6; stroke-width: 0.5; stroke-linecap: square"/>
     </g>
     <g id="line2d_15"/>
     <g id="text_12">
      <!-- 45 -->
      <g style="fill: #94a3b8" transform="translate(23.8 219.672) scale(0.09 -0.09)">
       <use xlink:href="#NotoSansSC-Medium-15"/>
       <use xlink:href="#NotoSansSC-Medium-16" transform="translate(57 0)"/>
      </g>
     </g>
    </g>
    <g id="ytick_4">
     <g id="line2d_16">
      <path d="M 37.56 196.256 
L 352.38 196.256 
" clip-path="url(#p5dd7902004)" style="fill: none; stroke: #e2e8f0; stroke-opacity: 0.6; stroke-width: 0.5; stroke-linecap: square"/>
     </g>
     <g id="line2d_17"/>
     <g id="text_13">
      <!-- 50 -->
      <g style="fill: #94a3b8" transform="translate(23.8 200.216) scale(0.09 -0.09)">
       <use xlink:href="#NotoSansSC-Medium-16"/>
       <use xlink:href="#NotoSansSC-Medium-11" transform="translate(57 0)"/>
      </g>
     </g>
    </g>
    <g id="ytick_5">
     <g id="line2d_18">
      <path d="M 37.56 176.8 
L 352.38 176.8 
" clip-path="url(#p5dd7902004)" style="fill: none; stroke: #e2e8f0; stroke-opacity: 0.6; stroke-width: 0.5; stroke-linecap: square"/>
     </g>
     <g id="line2d_19"/>
     <g id="text_14">
      <!-- 55 -->
      <g style="fill: #94a3b8" transform="translate(23.8 180.76) scale(0.09 -0.09)">
       <use xlink:href="#NotoSansSC-Medium-16"/>
       <use xlink:href="#NotoSansSC-Medium-16" transform="translate(57 0)"/>
      </g>
     </g>
    </g>
    <g id="ytick_6">
     <g id="line2d_20">
      <path d="M 37.56 157.344 
L 352.38 157.344 
" clip-path="url(#p5dd7902004)" style="fill: none; stroke: #e2e8f0; stroke-opacity: 0.6; stroke-width: 0.5; stroke-linecap: square"/>
     </g>
     <g id="line2d_21"/>
     <g id="text_15">
      <!-- 60 -->
      <g style="fill: #94a3b8" transform="translate(23.8 161.304) scale(0.09 -0.09)">
       <use xlink:href="#NotoSansSC-Medium-17"/>
       <use xlink:href="#NotoSansSC-Medium-11" transform="translate(57 0)"/>
      </g>
     </g>
    </g>
    <g id="ytick_7">
     <g id="line2d_22">
      <path d="M 37.56 137.888 
L 352.38 137.888 
" clip-path="url(#p5dd7902004)" style="fill: none; stroke: #e2e8f0; stroke-opacity: 0.6; stroke-width: 0.5; stroke-linecap: square"/>
     </g>
     <g id="line2d_23"/>
     <g id="text_16">
      <!-- 65 -->
      <g style="fill: #94a3b8" transform="translate(23.8 141.848) scale(0.09 -0.09)">
       <use xlink:href="#NotoSansSC-Medium-17"/>
       <use xlink:href="#NotoSansSC-Medium-16" transform="translate(57 0)"/>
      </g>
     </g>
    </g>
    <g id="ytick_8">
     <g id="line2d_24">
      <path d="M 37.56 118.432 
L 352.38 118.432 
" clip-path="url(#p5dd7902004)" style="fill: none; stroke: #e2e8f0; stroke-opacity: 0.6; stroke-width: 0.5; stroke-linecap: square"/>
     </g>
     <g id="line2d_25"/>
     <g id="text_17">
      <!-- 70 -->
      <g style="fill: #94a3b8" transform="translate(23.8 122.392) scale(0.09 -0.09)">
       <use xlink:href="#NotoSansSC-Medium-18"/>
       <use xlink:href="#NotoSansSC-Medium-11" transform="translate(57 0)"/>
      </g>
     </g>
    </g>
    <g id="ytick_9">
     <g id="line2d_26">
      <path d="M 37.56 98.976 
L 352.38 98.976 
" clip-path="url(#p5dd7902004)" style="fill: none; stroke: #e2e8f0; stroke-opacity: 0.6; stroke-width: 0.5; stroke-linecap: square"/>
     </g>
     <g id="line2d_27"/>
     <g id="text_18">
      <!-- 75 -->
      <g style="fill: #94a3b8" transform="translate(23.8 102.936) scale(0.09 -0.09)">
       <use xlink:href="#NotoSansSC-Medium-18"/>
       <use xlink:href="#NotoSansSC-Medium-16" transform="translate(57 0)"/>
      </g>
     </g>
    </g>
    <g id="ytick_10">
     <g id="line2d_28">
      <path d="M 37.56 79.52 
L 352.38 79.52 
" clip-path="url(#p5dd7902004)" style="fill: none; stroke: #e2e8f0; stroke-opacity: 0.6; stroke-width: 0.5; stroke-linecap: square"/>
     </g>
     <g id="line2d_29"/>
     <g id="text_19">
      <!-- 80 -->
      <g style="fill: #94a3b8" transform="translate(23.8 83.48) scale(0.09 -0.09)">
       <defs>
        <path id="NotoSansSC-Medium-19" d="M 1830 -83 
C 2739 -83 3354 454 3354 1152 
C 3354 1792 2982 2163 2560 2400 
L 2560 2432 
C 2854 2650 3181 3059 3181 3539 
C 3181 4275 2669 4787 1850 4787 
C 1082 4787 506 4307 506 3571 
C 506 3072 787 2720 1139 2470 
L 1139 2438 
C 704 2208 294 1792 294 1171 
C 294 442 947 -83 1830 -83 
z
M 2138 2618 
C 1613 2822 1165 3059 1165 3571 
C 1165 3994 1453 4256 1837 4256 
C 2298 4256 2560 3930 2560 3494 
C 2560 3181 2419 2880 2138 2618 
z
M 1843 448 
C 1338 448 947 774 947 1242 
C 947 1651 1171 2003 1498 2227 
C 2138 1965 2656 1747 2656 1171 
C 2656 730 2330 448 1843 448 
z
" transform="scale(0.015625)"/>
       </defs>
       <use xlink:href="#NotoSansSC-Medium-19"/>
       <use xlink:href="#NotoSansSC-Medium-11" transform="translate(57 0)"/>
      </g>
     </g>
    </g>
    <g id="text_20">
     <!-- 金油比 -->
     <g style="fill: #64748b" transform="translate(18.72 180.572) rotate(-90) scale(0.09 -0.09)">
      <defs>
       <path id="NotoSansSC-Medium-6583" d="M 1920 3494 
C 2400 3782 2835 4128 3206 4531 
C 3590 4147 4064 3795 4563 3494 
L 1920 3494 
z
M 4851 2944 
L 4851 3334 
C 5171 3162 5491 3008 5805 2899 
C 5894 3053 6080 3290 6214 3418 
C 5254 3699 4179 4307 3552 4934 
C 3610 5011 3661 5094 3718 5178 
L 3162 5427 
C 2554 4486 1395 3782 205 3418 
C 352 3270 518 3040 602 2867 
C 922 2982 1229 3123 1530 3277 
L 1530 2944 
L 2867 2944 
L 2867 2170 
L 755 2170 
L 755 1632 
L 2867 1632 
L 2867 205 
L 461 205 
L 461 -339 
L 5952 -339 
L 5952 205 
L 3501 205 
L 3501 1632 
L 5645 1632 
L 5645 2170 
L 3501 2170 
L 3501 2944 
L 4851 2944 
z
M 4442 230 
C 4659 518 4941 954 5184 1357 
L 4608 1568 
C 4474 1216 4205 730 3987 422 
L 4442 230 
z
M 1242 1376 
C 1472 1018 1722 538 1811 237 
L 2330 461 
C 2227 762 1971 1229 1728 1568 
L 1242 1376 
z
" transform="scale(0.015625)"/>
       <path id="NotoSansSC-Medium-408e" d="M 1830 2906 
C 1549 3104 998 3386 608 3558 
L 288 3117 
C 685 2918 1235 2611 1498 2413 
L 1830 2906 
z
M 1018 -410 
C 1344 128 1702 800 1984 1395 
L 1536 1773 
C 1216 1126 794 403 506 -26 
L 1018 -410 
z
M 614 4851 
C 1024 4653 1581 4333 1850 4128 
L 2195 4614 
C 1920 4819 1357 5114 960 5293 
L 614 4851 
z
M 4378 467 
L 4378 1709 
L 5325 1709 
L 5325 467 
L 4378 467 
z
M 2886 1709 
L 3795 1709 
L 3795 467 
L 2886 467 
L 2886 1709 
z
M 3795 3482 
L 3795 2278 
L 2886 2278 
L 2886 3482 
L 3795 3482 
z
M 5325 3482 
L 5325 2278 
L 4378 2278 
L 4378 3482 
L 5325 3482 
z
M 4378 4051 
L 4378 5357 
L 3795 5357 
L 3795 4051 
L 2330 4051 
L 2330 -480 
L 2886 -480 
L 2886 -102 
L 5325 -102 
L 5325 -442 
L 5901 -442 
L 5901 4051 
L 4378 4051 
z
" transform="scale(0.015625)"/>
       <path id="NotoSansSC-Medium-3fa9" d="M 1427 5293 
L 794 5293 
L 794 563 
C 794 275 634 109 506 32 
C 608 -83 749 -326 794 -474 
C 954 -352 1222 -230 2931 352 
C 2906 493 2886 768 2899 960 
L 1427 486 
L 1427 2854 
L 2944 2854 
L 2944 3443 
L 1427 3443 
L 1427 5293 
z
M 4288 230 
C 4026 230 3981 294 3981 653 
L 3981 2342 
C 4672 2758 5408 3277 5990 3763 
L 5498 4288 
C 5114 3891 4544 3392 3981 3002 
L 3981 5325 
L 3354 5325 
L 3354 672 
C 3354 -128 3539 -346 4205 -346 
L 5133 -346 
C 5818 -346 5965 115 6029 1395 
C 5869 1434 5606 1562 5459 1677 
C 5414 518 5370 230 5075 230 
L 4288 230 
z
" transform="scale(0.015625)"/>
      </defs>
      <use xlink:href="#NotoSansSC-Medium-6583"/>
      <use xlink:href="#NotoSansSC-Medium-408e" transform="translate(100 0)"/>
      <use xlink:href="#NotoSansSC-Medium-3fa9" transform="translate(200 0)"/>
     </g>
    </g>
   </g>
   <g id="FillBetweenPolyCollection_1">
    <defs>
     <path id="m14bbc89d07" d="M 51.87 110.344 
L 51.87 -103.672 
L 87.645 -123.128 
L 123.42 -134.8016 
L 159.195 -154.2576 
L 194.97 -164.37472 
L 230.745 -142.584 
L 266.52 -76.4336 
L 302.295 -56.9776 
L 338.07 -64.76 
L 338.07 110.344 
L 338.07 110.344 
L 302.295 110.344 
L 266.52 110.344 
L 230.745 110.344 
L 194.97 110.344 
L 159.195 110.344 
L 123.42 110.344 
L 87.645 110.344 
L 51.87 110.344 
z
" style="stroke: #ea580c; stroke-opacity: 0.1; stroke-width: 1.5"/>
    </defs>
    <g clip-path="url(#p5dd7902004)">
     <use xlink:href="#m14bbc89d07" x="0" y="280.472" style="fill: #ea580c; fill-opacity: 0.1; stroke: #ea580c; stroke-opacity: 0.1; stroke-width: 1.5"/>
    </g>
   </g>
   <g id="patch_5">
    <path d="M 180.357907 107.638367 
Q 186.798858 111.367021 192.078692 114.423507 
" style="fill: none; stroke: #dc2626; stroke-width: 1.2; stroke-linecap: round"/>
    <path d="M 189.987888 111.248837 
L 192.078692 114.423507 
L 188.284473 114.191349 
" style="fill: none; stroke: #dc2626; stroke-width: 1.2; stroke-linecap: round"/>
   </g>
   <g id="text_21">
    <!-- 峰值 70.6 -->
    <g style="fill: #dc2626" transform="translate(141.204883 94.3672) scale(0.085 -0.085)">
     <defs>
      <path id="NotoSansSC-Medium-30d3" d="M 3859 4384 
L 4960 4384 
C 4800 4128 4608 3891 4378 3686 
C 4141 3885 3949 4102 3814 4314 
L 3859 4384 
z
M 5357 4870 
L 5254 4851 
L 4160 4851 
C 4224 4973 4282 5094 4339 5222 
L 3795 5363 
C 3546 4749 3059 4198 2522 3846 
C 2637 3738 2829 3507 2899 3398 
C 3104 3546 3296 3718 3475 3923 
C 3610 3725 3770 3539 3955 3360 
C 3514 3072 3002 2861 2470 2733 
L 2470 4326 
L 2029 4326 
L 2029 883 
L 1696 858 
L 1696 5306 
L 1222 5306 
L 1222 826 
L 890 800 
L 890 4320 
L 442 4320 
L 442 282 
L 2029 416 
L 2029 166 
L 2470 166 
L 2470 2726 
C 2573 2605 2688 2406 2752 2272 
C 3341 2432 3898 2682 4378 3021 
C 4774 2733 5254 2496 5824 2355 
C 5901 2509 6061 2733 6182 2854 
C 5651 2963 5197 3149 4819 3373 
C 5210 3738 5517 4186 5722 4723 
L 5357 4870 
z
M 4640 1037 
L 5741 1037 
L 5741 1478 
L 4640 1478 
L 4640 1830 
L 5760 1830 
L 5760 2272 
L 4640 2272 
L 4640 2643 
L 4051 2643 
L 4051 2272 
L 2944 2272 
L 2944 1830 
L 4051 1830 
L 4051 1478 
L 2989 1478 
L 2989 1037 
L 4051 1037 
L 4051 653 
L 2694 653 
L 2694 179 
L 4051 179 
L 4051 -506 
L 4640 -506 
L 4640 179 
L 6016 179 
L 6016 653 
L 4640 653 
L 4640 1037 
z
" transform="scale(0.015625)"/>
      <path id="NotoSansSC-Medium-2437" d="M 1632 5350 
C 1312 4416 774 3488 205 2893 
C 307 2746 474 2432 525 2285 
C 685 2464 832 2656 986 2874 
L 986 -506 
L 1536 -506 
L 1536 3770 
C 1779 4218 2003 4704 2182 5184 
L 1632 5350 
z
M 2976 614 
L 5043 614 
L 5043 154 
L 2976 154 
L 2976 614 
z
M 5043 3258 
L 5043 2803 
L 2976 2803 
L 2976 3258 
L 5043 3258 
z
M 5043 1504 
L 5043 1037 
L 2976 1037 
L 2976 1504 
L 5043 1504 
z
M 5043 1920 
L 2976 1920 
L 2976 2374 
L 5043 2374 
L 5043 1920 
z
M 5594 154 
L 5594 3706 
L 4077 3706 
C 4122 3859 4166 4045 4205 4230 
L 5952 4230 
L 5952 4742 
L 4307 4742 
C 4346 4941 4384 5146 4416 5331 
L 3789 5357 
C 3776 5171 3750 4960 3718 4742 
L 2138 4742 
L 2138 4230 
L 3642 4230 
C 3610 4045 3571 3859 3539 3706 
L 2445 3706 
L 2445 154 
L 1856 154 
L 1856 -352 
L 6118 -352 
L 6118 154 
L 5594 154 
z
" transform="scale(0.015625)"/>
      <path id="NotoSansSC-Medium-1" transform="scale(0.015625)"/>
      <path id="NotoSansSC-Medium-f" d="M 954 -83 
C 1229 -83 1446 128 1446 429 
C 1446 736 1229 954 954 954 
C 678 954 461 736 461 429 
C 461 128 678 -83 954 -83 
z
" transform="scale(0.015625)"/>
     </defs>
     <use xlink:href="#NotoSansSC-Medium-30d3"/>
     <use xlink:href="#NotoSansSC-Medium-2437" transform="translate(100 0)"/>
     <use xlink:href="#NotoSansSC-Medium-1" transform="translate(200 0)"/>
     <use xlink:href="#NotoSansSC-Medium-18" transform="translate(222.5 0)"/>
     <use xlink:href="#NotoSansSC-Medium-11" transform="translate(279.5 0)"/>
     <use xlink:href="#NotoSansSC-Medium-f" transform="translate(336.5 0)"/>
     <use xlink:href="#NotoSansSC-Medium-17" transform="translate(366.296875 0)"/>
    </g>
    <!-- 恐慌避险 -->
    <g style="fill: #dc2626" transform="translate(142.195 102.8672) scale(0.085 -0.085)">
     <defs>
      <path id="NotoSansSC-Medium-342f" d="M 4723 4576 
L 4723 3226 
C 4550 3488 4218 3827 3949 4077 
L 3578 3846 
L 3578 3949 
L 3578 4576 
L 4723 4576 
z
M 4723 3149 
L 4723 2694 
C 4723 2285 4762 2163 4864 2067 
C 4960 1978 5120 1933 5248 1933 
L 5587 1933 
C 5702 1933 5837 1958 5920 2003 
C 6010 2048 6074 2118 6118 2234 
C 6157 2330 6182 2605 6195 2842 
C 6042 2886 5856 2989 5741 3085 
C 5741 2848 5728 2662 5715 2579 
C 5702 2502 5683 2464 5658 2445 
C 5632 2432 5587 2426 5542 2426 
L 5402 2426 
C 5363 2426 5331 2432 5306 2451 
C 5286 2477 5280 2554 5280 2675 
L 5280 5101 
L 3027 5101 
L 3027 3949 
C 3027 3411 2931 2669 2086 2259 
C 2214 2157 2381 1978 2451 1850 
C 3315 2336 3539 3091 3571 3757 
C 3840 3488 4160 3123 4301 2880 
L 4723 3149 
z
M 4115 1069 
C 3949 1350 3578 1779 3277 2080 
L 2816 1824 
C 3110 1504 3462 1056 3629 774 
L 4115 1069 
z
M 435 2182 
C 1088 2374 1946 2630 2758 2893 
L 2675 3386 
L 1830 3155 
L 1830 4467 
L 2682 4467 
L 2682 4998 
L 397 4998 
L 397 4467 
L 1280 4467 
L 1280 2995 
C 902 2899 550 2810 275 2739 
L 435 2182 
z
M 794 -160 
C 1082 275 1299 954 1453 1478 
L 934 1670 
C 800 1152 550 525 262 115 
L 794 -160 
z
M 2816 154 
C 2464 154 2400 186 2400 384 
L 2400 1818 
L 1811 1818 
L 1811 378 
C 1811 -218 2003 -384 2758 -384 
L 3981 -384 
C 4614 -384 4787 -166 4864 710 
C 4698 755 4448 845 4320 934 
C 4288 256 4237 154 3936 154 
L 2816 154 
z
M 4666 1491 
C 5050 1005 5498 346 5677 -70 
L 6214 192 
C 6010 614 5555 1248 5158 1722 
L 4666 1491 
z
" transform="scale(0.015625)"/>
      <path id="NotoSansSC-Medium-352b" d="M 3008 4064 
L 3558 4064 
L 3558 4416 
L 4627 4416 
L 4627 4064 
L 5178 4064 
L 5178 4416 
L 6125 4416 
L 6125 4922 
L 5178 4922 
L 5178 5370 
L 4627 5370 
L 4627 4922 
L 3558 4922 
L 3558 5370 
L 3008 5370 
L 3008 4922 
L 2125 4922 
L 2125 4416 
L 3008 4416 
L 3008 4064 
z
M 646 2317 
C 794 2816 877 3597 877 4147 
L 480 4192 
C 461 3648 384 2906 243 2458 
L 646 2317 
z
M 1030 5370 
L 1030 -506 
L 1587 -506 
L 1587 5370 
L 1030 5370 
z
M 2195 3226 
L 2195 3194 
L 2611 3194 
L 2611 2080 
L 5882 2080 
L 5882 2560 
L 3181 2560 
L 3181 3194 
L 6086 3194 
L 6086 3667 
L 4480 3667 
C 4397 3840 4275 4045 4154 4205 
L 3674 4070 
C 3750 3949 3834 3808 3910 3667 
L 2246 3667 
C 2176 3898 2093 4166 2003 4378 
L 1587 4230 
C 1715 3866 1843 3392 1894 3098 
L 2195 3226 
z
M 2650 1261 
C 2650 787 2566 243 1882 -160 
C 2016 -243 2221 -416 2317 -544 
C 3078 -51 3174 634 3174 1242 
L 3174 1830 
L 2650 1830 
L 2650 1261 
z
M 3744 -454 
L 4282 -454 
L 4282 1805 
L 3744 1805 
L 3744 -454 
z
M 5491 0 
C 5459 0 5434 13 5421 32 
C 5402 51 5402 115 5402 211 
L 5402 1824 
L 4870 1824 
L 4870 243 
C 4870 -128 4902 -230 4992 -326 
C 5075 -416 5222 -454 5338 -454 
L 5619 -454 
C 5715 -454 5837 -435 5907 -390 
C 5984 -346 6048 -262 6080 -160 
C 6112 -64 6138 218 6144 461 
C 6016 499 5850 582 5754 666 
C 5754 435 5747 243 5728 160 
C 5722 83 5702 38 5683 26 
C 5664 6 5626 0 5587 0 
L 5491 0 
z
" transform="scale(0.015625)"/>
      <path id="NotoSansSC-Medium-6431" d="M 6054 4614 
L 5267 4614 
C 5197 4845 5075 5152 4954 5389 
L 4474 5267 
C 4563 5075 4659 4826 4730 4614 
L 3917 4614 
L 3917 4134 
L 6054 4134 
L 6054 4614 
z
M 4813 3277 
C 4781 3494 4685 3827 4576 4077 
L 4166 3968 
C 4256 3718 4352 3379 4371 3162 
L 4813 3277 
z
M 4698 2035 
L 3930 2035 
L 3930 1562 
L 4698 1562 
L 4698 499 
L 5229 499 
L 5229 1562 
L 6035 1562 
L 6035 2035 
L 5229 2035 
L 5229 2637 
L 6099 2637 
L 6099 3117 
L 5498 3117 
C 5619 3366 5754 3686 5882 3974 
L 5389 4090 
C 5312 3808 5165 3405 5037 3117 
L 3859 3117 
L 3859 2637 
L 4698 2637 
L 4698 2035 
z
M 1683 3994 
C 1517 4320 1139 4787 819 5126 
L 346 4864 
C 666 4506 1030 4013 1171 3693 
L 1683 3994 
z
M 3219 4608 
L 3219 3686 
L 2579 3686 
C 2586 3789 2586 3885 2586 3981 
L 2586 4608 
L 3219 4608 
z
M 2758 2189 
L 3347 2189 
L 3347 998 
L 2758 998 
L 2758 2189 
z
M 1523 1280 
C 1638 1197 1805 1030 1882 934 
C 2093 1235 2234 1594 2342 1965 
L 2342 550 
L 3776 550 
L 3776 2637 
L 2490 2637 
C 2515 2835 2541 3034 2554 3219 
L 3725 3219 
L 3725 5082 
L 2080 5082 
L 2080 3987 
C 2080 3226 2022 2157 1523 1357 
L 1523 2918 
L 294 2918 
L 294 2381 
L 979 2381 
L 979 678 
C 736 557 461 333 192 64 
L 550 -448 
C 845 -70 1146 288 1363 288 
C 1510 288 1715 102 2003 -45 
C 2470 -294 3034 -358 3814 -358 
C 4448 -358 5568 -320 6029 -288 
C 6035 -128 6125 141 6189 294 
C 5549 218 4557 166 3834 166 
C 3123 166 2547 205 2118 429 
C 1843 576 1677 704 1523 762 
L 1523 1280 
z
" transform="scale(0.015625)"/>
      <path id="NotoSansSC-Medium-6a1a" d="M 3040 2912 
L 5235 2912 
L 5235 3418 
L 3174 3418 
C 3526 3757 3859 4141 4141 4557 
C 4634 3949 5338 3296 5958 2886 
C 6022 3046 6144 3296 6253 3437 
C 5613 3795 4870 4448 4435 5024 
C 4474 5094 4506 5165 4544 5235 
L 4026 5421 
C 3616 4576 2886 3795 2131 3315 
C 2234 3200 2413 2950 2477 2835 
C 2669 2970 2854 3123 3040 3290 
L 3040 2912 
z
M 4614 1005 
C 4576 1408 4467 2016 4346 2502 
L 3885 2438 
C 3987 1952 4102 1338 4128 922 
L 4614 1005 
z
M 3546 858 
C 3488 1274 3322 1894 3142 2368 
L 2682 2246 
C 2848 1766 3008 1139 3059 730 
L 3546 858 
z
M 2022 5133 
L 1939 5114 
L 531 5114 
L 531 -486 
L 1056 -486 
L 1056 4576 
L 1734 4576 
C 1619 4154 1459 3616 1299 3194 
C 1715 2714 1811 2285 1811 1958 
C 1811 1773 1779 1613 1690 1549 
C 1638 1510 1581 1498 1504 1491 
C 1414 1485 1306 1491 1178 1498 
C 1261 1357 1306 1126 1312 986 
C 1459 979 1613 979 1734 992 
C 1869 1018 1984 1056 2074 1120 
C 2259 1261 2342 1530 2342 1907 
C 2342 2285 2240 2746 1824 3258 
C 2016 3757 2234 4390 2413 4915 
L 2022 5133 
z
M 5389 2496 
C 5184 1830 4800 909 4486 307 
L 2381 307 
L 2381 -218 
L 6080 -218 
L 6080 307 
L 4973 307 
C 5293 883 5651 1696 5914 2368 
L 5389 2496 
z
" transform="scale(0.015625)"/>
     </defs>
     <use xlink:href="#NotoSansSC-Medium-342f"/>
     <use xlink:href="#NotoSansSC-Medium-352b" transform="translate(100 0)"/>
     <use xlink:href="#NotoSansSC-Medium-6431" transform="translate(200 0)"/>
     <use xlink:href="#NotoSansSC-Medium-6a1a" transform="translate(300 0)"/>
    </g>
   </g>
   <g id="patch_6">
    <path d="M 306.145668 218.206813 
Q 321.112147 217.037217 334.741064 215.972149 
" style="fill: none; stroke: #1a56db; stroke-width: 1.2; stroke-linecap: round"/>
    <path d="M 331.218951 214.542211 
L 334.741064 215.972149 
L 331.483845 217.931876 
" style="fill: none; stroke: #1a56db; stroke-width: 1.2; stroke-linecap: round"/>
   </g>
   <g id="text_22">
    <!-- ≈45 -->
    <g style="fill: #1a56db" transform="translate(275.3125 218.8856) scale(0.085 -0.085)">
     <defs>
      <path id="NotoSansSC-Medium-253" d="M 3309 1901 
C 3002 2118 2682 2291 2285 2291 
C 1677 2291 1158 1914 826 1344 
L 1254 1030 
C 1491 1459 1888 1760 2278 1760 
C 2586 1760 2810 1606 3072 1421 
C 3379 1197 3693 1030 4096 1030 
C 4704 1030 5216 1408 5555 1971 
L 5120 2291 
C 4883 1856 4493 1562 4096 1562 
C 3789 1562 3571 1715 3309 1901 
z
M 3309 3443 
C 3002 3667 2682 3834 2285 3834 
C 1677 3834 1158 3456 826 2893 
L 1254 2573 
C 1491 3008 1888 3302 2278 3302 
C 2586 3302 2810 3149 3072 2963 
C 3379 2746 3693 2573 4096 2573 
C 4704 2573 5216 2950 5555 3520 
L 5120 3834 
C 4883 3405 4493 3104 4096 3104 
C 3789 3104 3571 3258 3309 3443 
z
" transform="scale(0.015625)"/>
     </defs>
     <use xlink:href="#NotoSansSC-Medium-253"/>
     <use xlink:href="#NotoSansSC-Medium-15" transform="translate(100 0)"/>
     <use xlink:href="#NotoSansSC-Medium-16" transform="translate(157 0)"/>
    </g>
    <!-- 滞胀交易 -->
    <g style="fill: #1a56db" transform="translate(267.4075 227.3856) scale(0.085 -0.085)">
     <defs>
      <path id="NotoSansSC-Medium-42ae" d="M 890 -390 
C 1178 198 1498 947 1741 1600 
L 1286 1901 
C 1011 1190 640 390 378 -90 
L 890 -390 
z
M 1555 2982 
C 1338 3168 902 3418 550 3558 
L 262 3123 
C 614 2957 1037 2688 1248 2496 
L 1555 2982 
z
M 544 4832 
C 890 4653 1306 4358 1510 4141 
L 1830 4608 
C 1626 4813 1190 5082 845 5254 
L 544 4832 
z
M 3648 2477 
L 3648 1811 
L 2451 1811 
L 2451 2477 
L 3648 2477 
z
M 5446 1811 
L 4218 1811 
L 4218 2477 
L 5446 2477 
L 5446 1811 
z
M 1901 1792 
L 2342 1792 
L 2342 -109 
L 2886 -109 
L 2886 1312 
L 3648 1312 
L 3648 -512 
L 4218 -512 
L 4218 1312 
L 5030 1312 
L 5030 454 
C 5030 390 5011 371 4947 371 
C 4877 365 4672 365 4448 378 
C 4518 237 4576 32 4595 -122 
C 4954 -122 5197 -115 5363 -32 
C 5542 45 5581 192 5581 442 
L 5581 1792 
L 6022 1792 
L 6016 2982 
L 1901 2982 
L 1901 1792 
z
M 5459 4518 
L 5459 5203 
L 4902 5203 
L 4902 4518 
L 4211 4518 
L 4211 5254 
L 3661 5254 
L 3661 4518 
L 3014 4518 
L 3014 5197 
L 2458 5197 
L 2458 4518 
L 1869 4518 
L 1869 3994 
L 2458 3994 
L 2458 3302 
L 3014 3302 
L 3014 3994 
L 3661 3994 
L 3661 3334 
L 4211 3334 
L 4211 3994 
L 4902 3994 
L 4902 3309 
L 5459 3309 
L 5459 3994 
L 6112 3994 
L 6112 4518 
L 5459 4518 
z
" transform="scale(0.015625)"/>
      <path id="NotoSansSC-Medium-547f" d="M 5306 5101 
C 4979 4493 4435 3904 3872 3533 
C 4000 3424 4224 3187 4320 3072 
C 4896 3507 5510 4198 5888 4922 
L 5306 5101 
z
M 1114 2170 
C 1126 2413 1126 2643 1126 2854 
L 1126 3130 
L 1830 3130 
L 1830 2170 
L 1114 2170 
z
M 1830 4595 
L 1830 3674 
L 1126 3674 
L 1126 4595 
L 1830 4595 
z
M 2368 5139 
L 621 5139 
L 621 2854 
C 621 1926 589 653 211 -243 
C 346 -288 570 -410 672 -499 
C 922 90 1037 870 1088 1619 
L 1830 1619 
L 1830 211 
C 1830 128 1805 96 1728 96 
C 1658 96 1434 96 1184 102 
C 1261 -45 1331 -307 1344 -454 
C 1741 -454 1978 -442 2157 -346 
C 2317 -250 2368 -77 2368 198 
L 2368 5139 
z
M 6061 2374 
L 6061 2950 
L 3725 2950 
L 3725 5248 
L 3110 5248 
L 3110 2950 
L 2490 2950 
L 2490 2374 
L 3110 2374 
L 3110 448 
C 3110 186 2938 51 2803 -19 
C 2899 -134 3014 -384 3053 -538 
C 3181 -435 3386 -346 4710 179 
C 4678 307 4653 563 4659 730 
L 3725 390 
L 3725 2374 
L 4224 2374 
C 4506 1197 5011 186 5773 -378 
C 5862 -224 6048 -19 6176 83 
C 5504 531 5030 1402 4774 2374 
L 6061 2374 
z
" transform="scale(0.015625)"/>
      <path id="NotoSansSC-Medium-229f" d="M 5952 4518 
L 3482 4518 
L 3667 4589 
C 3578 4813 3373 5171 3200 5434 
L 2637 5242 
C 2771 5018 2918 4736 3014 4518 
L 435 4518 
L 435 3942 
L 5952 3942 
L 5952 4518 
z
M 3885 3482 
C 4467 3078 5171 2477 5491 2080 
L 5990 2470 
C 5645 2867 4922 3443 4352 3821 
L 3885 3482 
z
M 1990 3802 
C 1619 3328 992 2848 429 2541 
C 563 2445 794 2221 896 2106 
C 1453 2458 2131 3034 2573 3578 
L 1990 3802 
z
M 4102 2720 
C 3898 2176 3603 1728 3219 1357 
C 2829 1728 2528 2176 2323 2688 
L 1786 2522 
C 2042 1920 2368 1414 2771 986 
C 2125 525 1299 218 326 26 
C 442 -109 621 -371 685 -512 
C 1670 -269 2522 77 3213 595 
C 3872 77 4698 -275 5734 -467 
C 5811 -301 5971 -58 6099 64 
C 5114 224 4307 531 3667 979 
C 4102 1402 4448 1914 4704 2541 
L 4102 2720 
z
" transform="scale(0.015625)"/>
      <path id="NotoSansSC-Medium-39ed" d="M 1766 3616 
L 4698 3616 
L 4698 3078 
L 1766 3078 
L 1766 3616 
z
M 1766 4595 
L 4698 4595 
L 4698 4077 
L 1766 4077 
L 1766 4595 
z
M 2176 2118 
C 2298 2278 2413 2432 2522 2598 
L 5306 2598 
L 5306 5082 
L 1184 5082 
L 1184 2598 
L 1824 2598 
C 1427 2035 838 1542 237 1210 
C 371 1114 595 902 691 787 
C 1024 1005 1376 1280 1702 1600 
L 2445 1600 
C 2029 960 1414 416 755 58 
C 890 -45 1107 -256 1203 -371 
C 1926 90 2643 787 3117 1600 
L 3840 1600 
C 3539 870 3072 237 2509 -173 
C 2637 -256 2880 -442 2976 -544 
C 3571 -45 4115 717 4454 1600 
L 5126 1600 
C 5030 602 4915 166 4787 51 
C 4723 -13 4666 -26 4557 -26 
C 4442 -26 4166 -26 3872 6 
C 3962 -134 4019 -352 4032 -499 
C 4346 -518 4646 -518 4819 -499 
C 5011 -486 5152 -435 5286 -301 
C 5485 -96 5619 467 5747 1875 
C 5760 1958 5773 2118 5773 2118 
L 2176 2118 
z
" transform="scale(0.015625)"/>
     </defs>
     <use xlink:href="#NotoSansSC-Medium-42ae"/>
     <use xlink:href="#NotoSansSC-Medium-547f" transform="translate(100 0)"/>
     <use xlink:href="#NotoSansSC-Medium-229f" transform="translate(200 0)"/>
     <use xlink:href="#NotoSansSC-Medium-39ed" transform="translate(300 0)"/>
    </g>
   </g>
   <g id="text_23">
    <!-- ! 风险区间 -->
    <g style="fill: #dc2626" transform="translate(309.53985 90.06208) scale(0.08 -0.08)">
     <defs>
      <path id="NotoSansSC-Medium-2" d="M 851 1504 
L 1344 1504 
L 1446 4064 
L 1472 4826 
L 730 4826 
L 749 4064 
L 851 1504 
z
M 1094 -83 
C 1376 -83 1594 128 1594 429 
C 1594 736 1376 954 1094 954 
C 819 954 608 736 608 429 
C 608 128 819 -83 1094 -83 
z
" transform="scale(0.015625)"/>
      <path id="NotoSansSC-Medium-6c7a" d="M 3827 4109 
C 3674 3648 3475 3168 3238 2726 
C 2925 3130 2598 3520 2304 3872 
L 1811 3622 
C 2176 3187 2566 2688 2925 2195 
C 2522 1568 2054 1024 1555 672 
C 1696 570 1888 358 1997 218 
C 2464 589 2906 1094 3283 1683 
C 3629 1184 3930 704 4115 333 
L 4666 653 
C 4422 1088 4038 1651 3610 2234 
C 3904 2778 4154 3366 4346 3968 
L 3827 4109 
z
M 1005 5101 
L 1005 3258 
C 1005 2253 947 845 256 -122 
C 390 -192 646 -403 755 -525 
C 1498 518 1619 2176 1619 3258 
L 1619 4525 
L 4749 4525 
C 4755 1229 4768 -442 5664 -442 
C 6035 -442 6157 -141 6214 691 
C 6099 787 5939 986 5843 1133 
C 5830 627 5786 186 5709 186 
C 5312 186 5318 2022 5344 5101 
L 1005 5101 
z
" transform="scale(0.015625)"/>
      <path id="NotoSansSC-Medium-272f" d="M 1190 250 
L 1190 4486 
L 5914 4486 
L 5914 5056 
L 608 5056 
L 608 -320 
L 6074 -320 
L 6074 250 
L 1190 250 
z
M 5389 1062 
C 5056 1446 4557 1926 4006 2413 
C 4448 2906 4851 3437 5184 4000 
L 4627 4224 
C 4339 3718 3981 3238 3571 2790 
C 3072 3226 2554 3654 2099 4006 
L 1677 3654 
C 2150 3277 2669 2829 3174 2374 
C 2643 1862 2054 1414 1453 1075 
C 1587 973 1818 742 1920 627 
C 2496 992 3066 1453 3597 1990 
C 4134 1485 4608 1005 4915 627 
L 5389 1062 
z
" transform="scale(0.015625)"/>
      <path id="NotoSansSC-Medium-69a5" d="M 557 -506 
L 1171 -506 
L 1171 3898 
L 557 3898 
L 557 -506 
z
M 646 5018 
C 941 4730 1267 4320 1402 4058 
L 1907 4378 
C 1760 4646 1408 5037 1114 5299 
L 646 5018 
z
M 2502 1862 
L 3898 1862 
L 3898 1107 
L 2502 1107 
L 2502 1862 
z
M 2502 3085 
L 3898 3085 
L 3898 2342 
L 2502 2342 
L 2502 3085 
z
M 1965 627 
L 4454 627 
L 4454 3571 
L 1965 3571 
L 1965 627 
z
M 5875 5030 
L 2227 5030 
L 2227 4474 
L 5261 4474 
L 5261 173 
C 5261 90 5242 64 5152 58 
C 5082 58 4838 51 4595 64 
C 4666 -77 4749 -326 4774 -474 
C 5158 -474 5446 -467 5638 -371 
C 5818 -275 5875 -128 5875 173 
L 5875 5030 
z
" transform="scale(0.015625)"/>
     </defs>
     <use xlink:href="#NotoSansSC-Medium-2"/>
     <use xlink:href="#NotoSansSC-Medium-1" transform="translate(34.296875 0)"/>
     <use xlink:href="#NotoSansSC-Medium-6c7a" transform="translate(56.796875 0)"/>
     <use xlink:href="#NotoSansSC-Medium-6a1a" transform="translate(156.796875 0)"/>
     <use xlink:href="#NotoSansSC-Medium-272f" transform="translate(256.796875 0)"/>
     <use xlink:href="#NotoSansSC-Medium-69a5" transform="translate(356.796875 0)"/>
    </g>
   </g>
   <g id="text_24">
    <!-- OK 正常区间 -->
    <g style="fill: #16a34a" transform="translate(300.94735 215.14112) scale(0.08 -0.08)">
     <defs>
      <path id="NotoSansSC-Medium-30" d="M 2413 -83 
C 3622 -83 4467 858 4467 2374 
C 4467 3891 3622 4800 2413 4800 
C 1203 4800 365 3891 365 2374 
C 365 858 1203 -83 2413 -83 
z
M 2413 563 
C 1632 563 1126 1274 1126 2374 
C 1126 3482 1632 4154 2413 4154 
C 3194 4154 3706 3482 3706 2374 
C 3706 1274 3194 563 2413 563 
z
" transform="scale(0.015625)"/>
      <path id="NotoSansSC-Medium-2c" d="M 621 0 
L 1363 0 
L 1363 1421 
L 2086 2310 
L 3418 0 
L 4243 0 
L 2541 2893 
L 4000 4717 
L 3174 4717 
L 1382 2483 
L 1363 2483 
L 1363 4717 
L 621 4717 
L 621 0 
z
" transform="scale(0.015625)"/>
      <path id="NotoSansSC-Medium-3f37" d="M 3686 339 
L 3686 2202 
L 5594 2202 
L 5594 2778 
L 3686 2778 
L 3686 4346 
L 5869 4346 
L 5869 4928 
L 570 4928 
L 570 4346 
L 3059 4346 
L 3059 339 
L 1786 339 
L 1786 3258 
L 1171 3258 
L 1171 339 
L 339 339 
L 339 -237 
L 6067 -237 
L 6067 339 
L 3686 339 
z
" transform="scale(0.015625)"/>
      <path id="NotoSansSC-Medium-3219" d="M 2106 3098 
L 4294 3098 
L 4294 2573 
L 2106 2573 
L 2106 3098 
z
M 5530 1670 
L 3584 1670 
L 3584 2138 
L 4902 2138 
L 4902 3533 
L 1536 3533 
L 1536 2138 
L 2970 2138 
L 2970 1670 
L 954 1670 
L 954 -218 
L 1555 -218 
L 1555 1133 
L 2970 1133 
L 2970 -506 
L 3584 -506 
L 3584 1133 
L 4915 1133 
L 4915 365 
C 4915 288 4890 269 4787 262 
C 4698 262 4358 262 4019 275 
C 4096 122 4186 -109 4218 -269 
C 4698 -269 5024 -262 5248 -179 
C 5466 -90 5530 70 5530 358 
L 5530 1670 
z
M 4832 4429 
C 5011 4608 5222 4864 5421 5114 
L 4787 5318 
C 4678 5101 4454 4781 4288 4576 
L 4672 4429 
L 3526 4429 
L 3526 5370 
L 2912 5370 
L 2912 4429 
L 1722 4429 
L 2099 4595 
C 1997 4800 1792 5101 1594 5312 
L 1056 5101 
C 1216 4902 1389 4627 1491 4429 
L 544 4429 
L 544 3008 
L 1114 3008 
L 1114 3917 
L 5306 3917 
L 5306 3008 
L 5894 3008 
L 5894 4429 
L 4832 4429 
z
" transform="scale(0.015625)"/>
     </defs>
     <use xlink:href="#NotoSansSC-Medium-30"/>
     <use xlink:href="#NotoSansSC-Medium-2c" transform="translate(75.40625 0)"/>
     <use xlink:href="#NotoSansSC-Medium-1" transform="translate(141.703125 0)"/>
     <use xlink:href="#NotoSansSC-Medium-3f37" transform="translate(164.203125 0)"/>
     <use xlink:href="#NotoSansSC-Medium-3219" transform="translate(264.203125 0)"/>
     <use xlink:href="#NotoSansSC-Medium-272f" transform="translate(364.203125 0)"/>
     <use xlink:href="#NotoSansSC-Medium-69a5" transform="translate(464.203125 0)"/>
    </g>
   </g>
   <g id="line2d_30">
    <path d="M 51.87 176.8 
L 87.645 157.344 
L 123.42 145.6704 
L 159.195 126.2144 
L 194.97 116.09728 
L 230.745 137.888 
L 266.52 204.0384 
L 302.295 223.4944 
L 338.07 215.712 
" clip-path="url(#p5dd7902004)" style="fill: none; stroke: #ea580c; stroke-width: 2.8; stroke-linecap: square"/>
    <defs>
     <path id="m3301e7bf7d" d="M 0 3 
C 0.795609 3 1.55874 2.683901 2.12132 2.12132 
C 2.683901 1.55874 3 0.795609 3 0 
C 3 -0.795609 2.683901 -1.55874 2.12132 -2.12132 
C 1.55874 -2.683901 0.795609 -3 0 -3 
C -0.795609 -3 -1.55874 -2.683901 -2.12132 -2.12132 
C -2.683901 -1.55874 -3 -0.795609 -3 0 
C -3 0.795609 -2.683901 1.55874 -2.12132 2.12132 
C -1.55874 2.683901 -0.795609 3 0 3 
z
" style="stroke: #ea580c; stroke-width: 2"/>
    </defs>
    <g clip-path="url(#p5dd7902004)">
     <use xlink:href="#m3301e7bf7d" x="51.87" y="176.8" style="fill: #ffffff; stroke: #ea580c; stroke-width: 2"/>
     <use xlink:href="#m3301e7bf7d" x="87.645" y="157.344" style="fill: #ffffff; stroke: #ea580c; stroke-width: 2"/>
     <use xlink:href="#m3301e7bf7d" x="123.42" y="145.6704" style="fill: #ffffff; stroke: #ea580c; stroke-width: 2"/>
     <use xlink:href="#m3301e7bf7d" x="159.195" y="126.2144" style="fill: #ffffff; stroke: #ea580c; stroke-width: 2"/>
     <use xlink:href="#m3301e7bf7d" x="194.97" y="116.09728" style="fill: #ffffff; stroke: #ea580c; stroke-width: 2"/>
     <use xlink:href="#m3301e7bf7d" x="230.745" y="137.888" style="fill: #ffffff; stroke: #ea580c; stroke-width: 2"/>
     <use xlink:href="#m3301e7bf7d" x="266.52" y="204.0384" style="fill: #ffffff; stroke: #ea580c; stroke-width: 2"/>
     <use xlink:href="#m3301e7bf7d" x="302.295" y="223.4944" style="fill: #ffffff; stroke: #ea580c; stroke-width: 2"/>
     <use xlink:href="#m3301e7bf7d" x="338.07" y="215.712" style="fill: #ffffff; stroke: #ea580c; stroke-width: 2"/>
    </g>
   </g>
  </g>
  <g id="text_25">
   <!-- 金油比趋势 -->
   <g style="fill: #1e293b" transform="translate(37.56 23.12) scale(0.14 -0.14)">
    <defs>
     <path id="NotoSansSC-Medium-613d" d="M 4960 4301 
C 4838 4045 4685 3750 4550 3488 
L 3430 3488 
C 3635 3744 3808 4026 3955 4301 
L 4960 4301 
z
M 3277 3309 
L 3277 2963 
L 5203 2963 
L 5203 2400 
L 3373 2400 
L 3373 1888 
L 5203 1888 
L 5203 1299 
L 3136 1299 
L 3136 768 
L 5786 768 
L 5786 3488 
L 5165 3488 
C 5350 3878 5549 4314 5696 4678 
L 5312 4813 
L 5229 4781 
L 4173 4781 
C 4230 4922 4288 5050 4326 5184 
L 3763 5267 
C 3597 4742 3277 4090 2784 3590 
C 2918 3520 3117 3360 3213 3238 
L 3277 3309 
z
M 2170 1530 
L 2982 1530 
L 2982 2054 
L 2170 2054 
L 2170 2816 
L 3014 2816 
L 3014 3366 
L 2067 3366 
L 2067 4013 
L 2867 4013 
L 2867 4557 
L 2067 4557 
L 2067 5363 
L 1504 5363 
L 1504 4557 
L 563 4557 
L 563 4013 
L 1504 4013 
L 1504 3366 
L 346 3366 
L 346 2816 
L 1613 2816 
L 1613 813 
C 1427 992 1280 1229 1158 1542 
C 1178 1811 1190 2099 1197 2400 
L 653 2426 
C 640 1363 582 410 192 -179 
C 320 -250 550 -435 640 -525 
C 851 -186 986 250 1069 742 
C 1626 -160 2515 -326 3795 -326 
L 5965 -326 
C 5997 -160 6099 109 6195 250 
C 5760 230 4154 230 3802 230 
C 3155 230 2611 269 2170 442 
L 2170 1530 
z
" transform="scale(0.015625)"/>
     <path id="NotoSansSC-Medium-26b6" d="M 429 3040 
C 691 3078 998 3130 1318 3174 
L 1318 2746 
C 1318 2669 1293 2650 1210 2650 
C 1139 2643 858 2643 582 2650 
C 659 2515 730 2298 749 2157 
C 1165 2150 1440 2163 1626 2246 
C 1811 2323 1869 2464 1869 2739 
L 1869 3264 
L 2688 3405 
L 2669 3923 
C 2400 3878 2131 3840 1869 3795 
L 1869 4250 
L 2643 4250 
L 2643 4774 
L 1869 4774 
L 1869 5363 
L 1318 5363 
L 1318 4774 
L 416 4774 
L 416 4250 
L 1318 4250 
L 1318 3718 
C 941 3661 602 3616 320 3578 
L 429 3040 
z
M 4832 4774 
L 4832 4768 
L 4192 4768 
C 4205 4954 4211 5158 4218 5363 
L 3667 5363 
C 3661 5152 3654 4954 3648 4768 
L 2784 4768 
L 2784 4269 
L 3603 4269 
C 3578 4077 3546 3898 3501 3738 
C 3334 3834 3168 3930 3027 4013 
L 2720 3610 
C 2899 3501 3098 3386 3296 3258 
C 3123 2982 2867 2771 2496 2598 
C 2598 2515 2733 2362 2803 2240 
L 2656 2240 
C 2637 2093 2611 1958 2586 1824 
L 589 1824 
L 589 1299 
L 2413 1299 
C 2138 691 1587 250 294 -6 
C 416 -128 550 -358 608 -518 
C 2144 -173 2771 448 3066 1299 
L 4883 1299 
C 4800 570 4710 230 4582 128 
C 4512 70 4435 58 4301 58 
C 4141 58 3738 64 3334 102 
C 3437 -51 3507 -275 3520 -435 
C 3930 -461 4320 -461 4525 -448 
C 4768 -429 4928 -390 5082 -243 
C 5286 -51 5402 442 5510 1581 
C 5523 1658 5536 1824 5536 1824 
L 3200 1824 
C 3232 1958 3251 2093 3270 2240 
L 2963 2240 
C 3322 2426 3578 2662 3763 2950 
C 4026 2771 4269 2592 4429 2451 
L 4749 2912 
C 4563 3066 4288 3251 3987 3443 
C 4070 3686 4115 3962 4154 4269 
L 4826 4269 
C 4826 3008 4883 2221 5542 2221 
C 5933 2221 6099 2400 6157 3059 
C 6016 3098 5837 3187 5715 3277 
C 5696 2893 5664 2739 5562 2739 
C 5344 2733 5344 3456 5382 4774 
L 4832 4774 
z
" transform="scale(0.015625)"/>
    </defs>
    <use xlink:href="#NotoSansSC-Medium-6583"/>
    <use xlink:href="#NotoSansSC-Medium-408e" transform="translate(100 0)"/>
    <use xlink:href="#NotoSansSC-Medium-3fa9" transform="translate(200 0)"/>
    <use xlink:href="#NotoSansSC-Medium-613d" transform="translate(300 0)"/>
    <use xlink:href="#NotoSansSC-Medium-26b6" transform="translate(400 0)"/>
   </g>
  </g>
  <g id="text_26">
   <!-- 黄金(COMEX) / 原油(WTI) 比值 · 从恐慌避险到滞胀交易 -->
   <g style="fill: #64748b" transform="translate(37.56 43.664) scale(0.09 -0.09)">
    <defs>
     <path id="NotoSansSC-Medium-726b" d="M 2240 621 
C 1830 358 1024 51 378 -109 
C 512 -218 691 -410 794 -525 
C 1440 -358 2246 -45 2752 269 
L 2240 621 
z
M 3725 250 
C 4429 6 5152 -294 5581 -506 
L 6010 -109 
C 5542 102 4768 397 4070 627 
L 3725 250 
z
M 2515 4320 
L 3904 4320 
L 3904 3802 
L 2515 3802 
L 2515 4320 
z
M 4832 2438 
L 4832 1971 
L 3507 1971 
L 3507 2438 
L 4832 2438 
z
M 4832 1088 
L 3507 1088 
L 3507 1568 
L 4832 1568 
L 4832 1088 
z
M 1606 1568 
L 2893 1568 
L 2893 1088 
L 1606 1088 
L 1606 1568 
z
M 1606 2438 
L 2893 2438 
L 2893 1971 
L 1606 1971 
L 1606 2438 
z
M 4518 3802 
L 4518 4320 
L 5626 4320 
L 5626 4845 
L 4518 4845 
L 4518 5363 
L 3904 5363 
L 3904 4845 
L 2515 4845 
L 2515 5363 
L 1907 5363 
L 1907 4845 
L 826 4845 
L 826 4320 
L 1907 4320 
L 1907 3802 
L 371 3802 
L 371 3264 
L 2893 3264 
L 2893 2867 
L 1030 2867 
L 1030 659 
L 5427 659 
L 5427 2867 
L 3507 2867 
L 3507 3264 
L 6054 3264 
L 6054 3802 
L 4518 3802 
z
" transform="scale(0.015625)"/>
     <path id="NotoSansSC-Medium-9" d="M 1517 -1274 
L 1978 -1069 
C 1427 -154 1171 928 1171 2003 
C 1171 3072 1427 4154 1978 5075 
L 1517 5274 
C 922 4307 570 3264 570 2003 
C 570 730 922 -301 1517 -1274 
z
" transform="scale(0.015625)"/>
     <path id="NotoSansSC-Medium-24" d="M 2458 -83 
C 3066 -83 3546 160 3923 595 
L 3526 1062 
C 3245 755 2918 563 2483 563 
C 1651 563 1126 1248 1126 2368 
C 1126 3475 1690 4154 2502 4154 
C 2886 4154 3181 3981 3424 3731 
L 3827 4205 
C 3539 4518 3078 4800 2490 4800 
C 1299 4800 365 3878 365 2342 
C 365 800 1274 -83 2458 -83 
z
" transform="scale(0.015625)"/>
     <path id="NotoSansSC-Medium-2e" d="M 621 0 
L 1286 0 
L 1286 2330 
C 1286 2752 1229 3360 1197 3789 
L 1222 3789 
L 1594 2701 
L 2419 454 
L 2880 454 
L 3699 2701 
L 4077 3789 
L 4102 3789 
C 4064 3360 4006 2752 4006 2330 
L 4006 0 
L 4698 0 
L 4698 4717 
L 3840 4717 
L 2989 2330 
C 2880 2016 2790 1696 2682 1382 
L 2650 1382 
C 2541 1696 2445 2016 2336 2330 
L 1472 4717 
L 621 4717 
L 621 0 
z
" transform="scale(0.015625)"/>
     <path id="NotoSansSC-Medium-26" d="M 621 0 
L 3475 0 
L 3475 627 
L 1363 627 
L 1363 2150 
L 3091 2150 
L 3091 2778 
L 1363 2778 
L 1363 4090 
L 3405 4090 
L 3405 4717 
L 621 4717 
L 621 0 
z
" transform="scale(0.015625)"/>
     <path id="NotoSansSC-Medium-39" d="M 102 0 
L 890 0 
L 1491 1171 
C 1606 1414 1728 1651 1856 1939 
L 1882 1939 
C 2029 1651 2150 1414 2272 1171 
L 2893 0 
L 3718 0 
L 2362 2394 
L 3629 4717 
L 2848 4717 
L 2291 3610 
C 2182 3392 2093 3181 1971 2899 
L 1939 2899 
C 1798 3181 1696 3392 1581 3610 
L 1011 4717 
L 186 4717 
L 1453 2432 
L 102 0 
z
" transform="scale(0.015625)"/>
     <path id="NotoSansSC-Medium-a" d="M 755 -1274 
C 1357 -301 1709 730 1709 2003 
C 1709 3264 1357 4307 755 5274 
L 294 5075 
C 845 4154 1101 3072 1101 2003 
C 1101 928 845 -154 294 -1069 
L 755 -1274 
z
" transform="scale(0.015625)"/>
     <path id="NotoSansSC-Medium-2791" d="M 1402 4506 
L 6022 4506 
L 6022 5050 
L 813 5050 
L 813 3232 
C 813 2259 768 883 224 -70 
C 365 -122 627 -275 736 -371 
C 1312 646 1402 2189 1402 3232 
L 1402 4506 
z
M 2342 1293 
C 2074 870 1670 397 1299 77 
C 1446 0 1683 -154 1798 -250 
C 2150 96 2592 634 2912 1107 
L 2342 1293 
z
M 2490 2528 
L 4941 2528 
L 4941 2016 
L 2490 2016 
L 2490 2528 
z
M 2490 3469 
L 4941 3469 
L 4941 2957 
L 2490 2957 
L 2490 3469 
z
M 5549 1555 
L 5549 3930 
L 3763 3930 
C 3853 4070 3936 4218 4026 4365 
L 3322 4461 
C 3270 4307 3194 4115 3104 3930 
L 1907 3930 
L 1907 1555 
L 3424 1555 
L 3424 128 
C 3424 51 3398 26 3302 19 
C 3213 19 2893 19 2560 26 
C 2630 -122 2707 -339 2733 -499 
C 3206 -499 3526 -493 3738 -410 
C 3949 -326 4000 -173 4000 115 
L 4000 1555 
L 5549 1555 
z
M 4442 1037 
C 4800 627 5299 58 5530 -282 
L 6035 19 
C 5779 352 5274 896 4909 1293 
L 4442 1037 
z
" transform="scale(0.015625)"/>
     <path id="NotoSansSC-Medium-38" d="M 1107 0 
L 2003 0 
L 2624 2618 
C 2701 2989 2778 3341 2848 3699 
L 2874 3699 
C 2938 3341 3008 2989 3091 2618 
L 3725 0 
L 4640 0 
L 5568 4717 
L 4858 4717 
L 4410 2259 
C 4333 1766 4250 1261 4173 749 
L 4141 749 
C 4032 1261 3930 1766 3821 2259 
L 3213 4717 
L 2554 4717 
L 1946 2259 
C 1837 1760 1728 1254 1626 749 
L 1600 749 
C 1517 1254 1434 1760 1350 2259 
L 909 4717 
L 147 4717 
L 1107 0 
z
" transform="scale(0.015625)"/>
     <path id="NotoSansSC-Medium-35" d="M 1581 0 
L 2323 0 
L 2323 4090 
L 3712 4090 
L 3712 4717 
L 198 4717 
L 198 4090 
L 1581 4090 
L 1581 0 
z
" transform="scale(0.015625)"/>
     <path id="NotoSansSC-Medium-2a" d="M 621 0 
L 1363 0 
L 1363 4717 
L 621 4717 
L 621 0 
z
" transform="scale(0.015625)"/>
     <path id="NotoSansSC-Medium-561" d="M 3200 3174 
C 2790 3174 2458 2842 2458 2432 
C 2458 2022 2790 1690 3200 1690 
C 3610 1690 3942 2022 3942 2432 
C 3942 2842 3610 3174 3200 3174 
z
" transform="scale(0.015625)"/>
     <path id="NotoSansSC-Medium-22c9" d="M 3309 1491 
C 3078 1958 2573 2662 2106 3194 
C 2182 3821 2234 4499 2266 5222 
L 1613 5248 
C 1530 2912 1274 1011 243 -70 
C 410 -160 730 -384 826 -486 
C 1440 250 1786 1235 1997 2426 
C 2349 1952 2688 1427 2861 1056 
L 3309 1491 
z
M 4058 5254 
C 3936 2842 3610 979 2387 -51 
C 2547 -147 2861 -371 2970 -474 
C 3603 141 4006 954 4269 1952 
C 4550 1075 4998 154 5702 -410 
C 5805 -243 6016 13 6144 134 
C 5210 774 4736 2112 4512 3168 
C 4602 3795 4666 4480 4710 5222 
L 4058 5254 
z
" transform="scale(0.015625)"/>
     <path id="NotoSansSC-Medium-2627" d="M 2387 1555 
L 3597 1555 
L 3597 2074 
L 2387 2074 
L 2387 2707 
L 1824 2707 
L 1824 2074 
L 614 2074 
L 614 1555 
L 1824 1555 
L 1824 570 
C 1286 474 781 390 397 339 
L 525 -224 
C 1370 -64 2573 160 3699 378 
L 3667 896 
C 3238 819 2810 742 2387 672 
L 2387 1555 
z
M 454 4454 
L 1370 4454 
C 1190 4051 973 3706 896 3597 
C 787 3443 691 3334 589 3309 
C 659 3162 742 2886 781 2765 
C 954 2835 1197 2867 3085 3027 
C 3162 2906 3219 2778 3270 2675 
L 3731 2970 
C 3546 3341 3142 3917 2797 4333 
L 2368 4083 
C 2509 3910 2650 3706 2790 3501 
L 1376 3392 
C 1613 3706 1843 4083 2029 4454 
L 3738 4454 
L 3738 4973 
L 454 4973 
L 454 4454 
z
M 4595 4806 
L 4038 4806 
L 4038 966 
L 4595 966 
L 4595 4806 
z
M 5274 5280 
L 5274 326 
C 5274 218 5242 186 5133 186 
C 5030 179 4678 179 4320 192 
C 4410 38 4506 -230 4531 -384 
C 5011 -384 5357 -371 5574 -275 
C 5779 -186 5856 -13 5856 326 
L 5856 5280 
L 5274 5280 
z
" transform="scale(0.015625)"/>
    </defs>
    <use xlink:href="#NotoSansSC-Medium-726b"/>
    <use xlink:href="#NotoSansSC-Medium-6583" transform="translate(100 0)"/>
    <use xlink:href="#NotoSansSC-Medium-9" transform="translate(200 0)"/>
    <use xlink:href="#NotoSansSC-Medium-24" transform="translate(235.5 0)"/>
    <use xlink:href="#NotoSansSC-Medium-30" transform="translate(296.59375 0)"/>
    <use xlink:href="#NotoSansSC-Medium-2e" transform="translate(372 0)"/>
    <use xlink:href="#NotoSansSC-Medium-26" transform="translate(455 0)"/>
    <use xlink:href="#NotoSansSC-Medium-39" transform="translate(515 0)"/>
    <use xlink:href="#NotoSansSC-Medium-a" transform="translate(574.59375 0)"/>
    <use xlink:href="#NotoSansSC-Medium-1" transform="translate(610.09375 0)"/>
    <use xlink:href="#NotoSansSC-Medium-10" transform="translate(632.59375 0)"/>
    <use xlink:href="#NotoSansSC-Medium-1" transform="translate(671.59375 0)"/>
    <use xlink:href="#NotoSansSC-Medium-2791" transform="translate(694.09375 0)"/>
    <use xlink:href="#NotoSansSC-Medium-408e" transform="translate(794.09375 0)"/>
    <use xlink:href="#NotoSansSC-Medium-9" transform="translate(894.09375 0)"/>
    <use xlink:href="#NotoSansSC-Medium-38" transform="translate(929.59375 0)"/>
    <use xlink:href="#NotoSansSC-Medium-35" transform="translate(1019 0)"/>
    <use xlink:href="#NotoSansSC-Medium-2a" transform="translate(1080 0)"/>
    <use xlink:href="#NotoSansSC-Medium-a" transform="translate(1110.90625 0)"/>
    <use xlink:href="#NotoSansSC-Medium-1" transform="translate(1146.40625 0)"/>
    <use xlink:href="#NotoSansSC-Medium-3fa9" transform="translate(1168.90625 0)"/>
    <use xlink:href="#NotoSansSC-Medium-2437" transform="translate(1268.90625 0)"/>
    <use xlink:href="#NotoSansSC-Medium-1" transform="translate(1368.90625 0)"/>
    <use xlink:href="#NotoSansSC-Medium-561" transform="translate(1391.40625 0)"/>
    <use xlink:href="#NotoSansSC-Medium-1" transform="translate(1491.40625 0)"/>
    <use xlink:href="#NotoSansSC-Medium-22c9" transform="translate(1513.90625 0)"/>
    <use xlink:href="#NotoSansSC-Medium-342f" transform="translate(1613.90625 0)"/>
    <use xlink:href="#NotoSansSC-Medium-352b" transform="translate(1713.90625 0)"/>
    <use xlink:href="#NotoSansSC-Medium-6431" transform="translate(1813.90625 0)"/>
    <use xlink:href="#NotoSansSC-Medium-6a1a" transform="translate(1913.90625 0)"/>
    <use xlink:href="#NotoSansSC-Medium-2627" transform="translate(2013.90625 0)"/>
    <use xlink:href="#NotoSansSC-Medium-42ae" transform="translate(2113.90625 0)"/>
    <use xlink:href="#NotoSansSC-Medium-547f" transform="translate(2213.90625 0)"/>
    <use xlink:href="#NotoSansSC-Medium-229f" transform="translate(2313.90625 0)"/>
    <use xlink:href="#NotoSansSC-Medium-39ed" transform="translate(2413.90625 0)"/>
   </g>
  </g>
  <g id="text_27">
   <!-- 来源: COMEX / NYMEX · 2026-05-26 -->
   <g style="fill: #94a3b8" transform="translate(37.56 268.502) scale(0.065 -0.065)">
    <defs>
     <path id="NotoSansSC-Medium-3b3c" d="M 6029 2003 
L 6029 2579 
L 3514 2579 
L 3514 4064 
L 5773 4064 
L 5773 4634 
L 3514 4634 
L 3514 5370 
L 2886 5370 
L 2886 4634 
L 678 4634 
L 678 4064 
L 2886 4064 
L 2886 2579 
L 378 2579 
L 378 2003 
L 2515 2003 
C 1939 1274 1056 595 224 243 
C 358 122 550 -102 646 -256 
C 1453 147 2285 851 2886 1638 
L 2886 -506 
L 3514 -506 
L 3514 1651 
C 4115 858 4947 134 5760 -275 
C 5856 -115 6048 109 6176 230 
C 5350 589 4467 1274 3904 2003 
L 6029 2003 
z
M 1158 3789 
C 1395 3418 1619 2912 1696 2598 
L 2259 2822 
C 2176 3142 1926 3622 1683 3987 
L 1158 3789 
z
M 4672 2592 
C 4890 2899 5158 3386 5382 3821 
L 4762 4006 
C 4621 3629 4371 3104 4160 2765 
L 4672 2592 
z
" transform="scale(0.015625)"/>
     <path id="NotoSansSC-Medium-4260" d="M 1965 4659 
C 1715 4838 1229 5120 902 5306 
L 550 4883 
C 890 4672 1363 4371 1600 4186 
L 1965 4659 
z
M 1658 2989 
C 1402 3162 922 3430 589 3603 
L 243 3181 
C 589 2982 1062 2688 1299 2515 
L 1658 2989 
z
M 1293 1958 
C 1011 1222 627 403 358 -96 
L 896 -422 
C 1190 186 1517 954 1766 1626 
L 1293 1958 
z
M 2733 4512 
L 6067 4512 
L 6067 5050 
L 2150 5050 
L 2150 3302 
C 2150 2266 2086 826 1370 -173 
C 1510 -237 1766 -390 1869 -486 
C 2618 570 2733 2189 2733 3302 
L 2733 4512 
z
M 3213 1312 
C 3046 902 2771 454 2496 154 
C 2630 83 2861 -58 2970 -134 
C 3232 186 3539 704 3744 1165 
L 3213 1312 
z
M 3571 2534 
L 5299 2534 
L 5299 2067 
L 3571 2067 
L 3571 2534 
z
M 3571 3418 
L 5299 3418 
L 5299 2957 
L 3571 2957 
L 3571 3418 
z
M 5856 1626 
L 5856 3866 
L 4544 3866 
C 4621 4019 4710 4179 4794 4352 
L 4128 4474 
C 4090 4301 4019 4064 3955 3866 
L 3040 3866 
L 3040 1626 
L 4122 1626 
L 4122 102 
C 4122 32 4096 6 4019 6 
C 3942 6 3680 0 3411 13 
C 3469 -134 3546 -352 3565 -499 
C 3981 -506 4262 -499 4448 -410 
C 4640 -333 4685 -186 4685 83 
L 4685 1626 
L 5856 1626 
z
M 5005 1178 
C 5235 774 5517 237 5651 -83 
L 6195 154 
C 6054 467 5754 986 5517 1370 
L 5005 1178 
z
" transform="scale(0.015625)"/>
     <path id="NotoSansSC-Medium-1b" d="M 954 2432 
C 1229 2432 1446 2650 1446 2944 
C 1446 3245 1229 3469 954 3469 
C 678 3469 461 3245 461 2944 
C 461 2650 678 2432 954 2432 
z
M 954 -83 
C 1229 -83 1446 128 1446 429 
C 1446 736 1229 954 954 954 
C 678 954 461 736 461 429 
C 461 128 678 -83 954 -83 
z
" transform="scale(0.015625)"/>
     <path id="NotoSansSC-Medium-2f" d="M 621 0 
L 1325 0 
L 1325 2221 
C 1325 2733 1267 3277 1229 3763 
L 1261 3763 
L 1754 2778 
L 3315 0 
L 4077 0 
L 4077 4717 
L 3373 4717 
L 3373 2515 
C 3373 2003 3430 1434 3469 947 
L 3437 947 
L 2944 1946 
L 1382 4717 
L 621 4717 
L 621 0 
z
" transform="scale(0.015625)"/>
     <path id="NotoSansSC-Medium-3a" d="M 1395 0 
L 2138 0 
L 2138 1786 
L 3558 4717 
L 2784 4717 
L 2234 3462 
C 2093 3110 1939 2784 1786 2426 
L 1760 2426 
C 1600 2784 1466 3110 1318 3462 
L 774 4717 
L -19 4717 
L 1395 1786 
L 1395 0 
z
" transform="scale(0.015625)"/>
     <path id="NotoSansSC-Medium-76ec" d="M 282 0 
L 3322 0 
L 3322 627 
L 2125 627 
C 1894 627 1594 608 1357 582 
C 2336 1606 3098 2451 3098 3290 
C 3098 4122 2541 4672 1677 4672 
C 1062 4672 646 4403 243 3968 
L 659 3558 
C 909 3846 1216 4083 1587 4083 
C 2118 4083 2387 3750 2387 3251 
C 2387 2534 1594 1715 282 429 
L 282 0 
z
" transform="scale(0.015625)"/>
     <path id="NotoSansSC-Medium-76ea" d="M 1824 -83 
C 2765 -83 3347 768 3347 2310 
C 3347 3846 2765 4672 1824 4672 
C 890 4672 301 3853 301 2310 
C 301 768 890 -83 1824 -83 
z
M 1824 499 
C 1344 499 1005 992 1005 2310 
C 1005 3629 1344 4090 1824 4090 
C 2304 4090 2643 3629 2643 2310 
C 2643 992 2304 499 1824 499 
z
" transform="scale(0.015625)"/>
     <path id="NotoSansSC-Medium-76f0" d="M 1907 2285 
C 2406 2285 2688 1971 2688 1408 
C 2688 826 2362 480 1952 480 
C 1453 480 1114 877 1037 1728 
C 1318 2138 1645 2285 1907 2285 
z
M 1958 -83 
C 2726 -83 3366 506 3366 1408 
C 3366 2355 2829 2822 2042 2822 
C 1702 2822 1293 2611 1018 2272 
C 1050 3616 1549 4064 2144 4064 
C 2426 4064 2714 3923 2886 3718 
L 3290 4166 
C 3021 4448 2637 4672 2112 4672 
C 1178 4672 333 3942 333 2138 
C 333 627 1062 -83 1958 -83 
z
" transform="scale(0.015625)"/>
     <path id="NotoSansSC-Medium-e" d="M 301 1536 
L 1990 1536 
L 1990 2080 
L 301 2080 
L 301 1536 
z
" transform="scale(0.015625)"/>
     <path id="NotoSansSC-Medium-76ef" d="M 1715 -83 
C 2541 -83 3302 480 3302 1485 
C 3302 2470 2656 2912 1869 2912 
C 1613 2912 1427 2854 1222 2752 
L 1331 3962 
L 3078 3962 
L 3078 4582 
L 691 4582 
L 550 2342 
L 909 2112 
C 1184 2291 1363 2381 1664 2381 
C 2202 2381 2560 2042 2560 1459 
C 2560 877 2157 518 1626 518 
C 1133 518 794 755 525 1024 
L 173 544 
C 506 218 973 -83 1715 -83 
z
" transform="scale(0.015625)"/>
    </defs>
    <use xlink:href="#NotoSansSC-Medium-3b3c"/>
    <use xlink:href="#NotoSansSC-Medium-4260" transform="translate(100 0)"/>
    <use xlink:href="#NotoSansSC-Medium-1b" transform="translate(200 0)"/>
    <use xlink:href="#NotoSansSC-Medium-1" transform="translate(229.796875 0)"/>
    <use xlink:href="#NotoSansSC-Medium-24" transform="translate(252.296875 0)"/>
    <use xlink:href="#NotoSansSC-Medium-30" transform="translate(313.390625 0)"/>
    <use xlink:href="#NotoSansSC-Medium-2e" transform="translate(388.796875 0)"/>
    <use xlink:href="#NotoSansSC-Medium-26" transform="translate(471.796875 0)"/>
    <use xlink:href="#NotoSansSC-Medium-39" transform="translate(531.796875 0)"/>
    <use xlink:href="#NotoSansSC-Medium-1" transform="translate(591.390625 0)"/>
    <use xlink:href="#NotoSansSC-Medium-10" transform="translate(613.890625 0)"/>
    <use xlink:href="#NotoSansSC-Medium-1" transform="translate(652.890625 0)"/>
    <use xlink:href="#NotoSansSC-Medium-2f" transform="translate(675.390625 0)"/>
    <use xlink:href="#NotoSansSC-Medium-3a" transform="translate(748.796875 0)"/>
    <use xlink:href="#NotoSansSC-Medium-2e" transform="translate(804.09375 0)"/>
    <use xlink:href="#NotoSansSC-Medium-26" transform="translate(887.09375 0)"/>
    <use xlink:href="#NotoSansSC-Medium-39" transform="translate(947.09375 0)"/>
    <use xlink:href="#NotoSansSC-Medium-1" transform="translate(1006.6875 0)"/>
    <use xlink:href="#NotoSansSC-Medium-561" transform="translate(1029.1875 0)"/>
    <use xlink:href="#NotoSansSC-Medium-1" transform="translate(1129.1875 0)"/>
    <use xlink:href="#NotoSansSC-Medium-76ec" transform="translate(1151.6875 0)"/>
    <use xlink:href="#NotoSansSC-Medium-76ea" transform="translate(1208.6875 0)"/>
    <use xlink:href="#NotoSansSC-Medium-76ec" transform="translate(1265.6875 0)"/>
    <use xlink:href="#NotoSansSC-Medium-76f0" transform="translate(1322.6875 0)"/>
    <use xlink:href="#NotoSansSC-Medium-e" transform="translate(1379.6875 0)"/>
    <use xlink:href="#NotoSansSC-Medium-76ea" transform="translate(1415.390625 0)"/>
    <use xlink:href="#NotoSansSC-Medium-76ef" transform="translate(1472.390625 0)"/>
    <use xlink:href="#NotoSansSC-Medium-e" transform="translate(1529.390625 0)"/>
    <use xlink:href="#NotoSansSC-Medium-76ec" transform="translate(1565.09375 0)"/>
    <use xlink:href="#NotoSansSC-Medium-76f0" transform="translate(1622.09375 0)"/>
   </g>
  </g>
 </g>
 <defs>
  <clipPath id="p5dd7902004">
   <rect x="37.56" y="79.52" width="314.82" height="175.104"/>
  </clipPath>
 </defs>
</svg>
