<?xml version="1.0" encoding="utf-8" standalone="no"?>
<!DOCTYPE svg PUBLIC "-//W3C//DTD SVG 1.1//EN"
  "http://www.w3.org/Graphics/SVG/1.1/DTD/svg11.dtd">
<svg xmlns:xlink="http://www.w3.org/1999/xlink" width="352.509531pt" height="209.423423pt" viewBox="0 0 352.509531 209.423423" xmlns="http://www.w3.org/2000/svg" version="1.1">
 <metadata>
  <rdf:RDF xmlns:dc="http://purl.org/dc/elements/1.1/" xmlns:cc="http://creativecommons.org/ns#" xmlns:rdf="http://www.w3.org/1999/02/22-rdf-syntax-ns#">
   <cc:Work>
    <dc:type rdf:resource="http://purl.org/dc/dcmitype/StillImage"/>
    <dc:date>2026-05-25T20:32:56.743572</dc:date>
    <dc:format>image/svg+xml</dc:format>
    <dc:creator>
     <cc:Agent>
      <dc:title>Matplotlib v3.10.9, https://matplotlib.org/</dc:title>
     </cc:Agent>
    </dc:creator>
   </cc:Work>
  </rdf:RDF>
 </metadata>
 <defs>
  <style type="text/css">*{stroke-linejoin: round; stroke-linecap: butt}</style>
 </defs>
 <g id="figure_1">
  <g id="patch_1">
   <path d="M -0 209.423423 
L 352.509531 209.423423 
L 352.509531 0 
L -0 0 
z
" style="fill: #f5f7fa"/>
  </g>
  <g id="axes_1">
   <g id="patch_2">
    <path d="M 42.119531 179.593298 
L 345.309531 179.593298 
L 345.309531 29.888298 
L 42.119531 29.888298 
z
" style="fill: #f5f7fa"/>
   </g>
   <g id="FillBetweenPolyCollection_1">
    <defs>
     <path id="mb37b7f20f5" d="M 55.900895 -36.634898 
L 55.900895 -115.969028 
L 90.354304 -123.45338 
L 124.807713 -129.440861 
L 159.261122 -136.925213 
L 193.714531 -144.409565 
L 228.16794 -150.397046 
L 262.621349 -159.378269 
L 297.074759 -165.36575 
L 331.528168 -172.730352 
L 331.528168 -36.634898 
L 331.528168 -36.634898 
L 297.074759 -36.634898 
L 262.621349 -36.634898 
L 228.16794 -36.634898 
L 193.714531 -36.634898 
L 159.261122 -36.634898 
L 124.807713 -36.634898 
L 90.354304 -36.634898 
L 55.900895 -36.634898 
z
" style="stroke: #d4a017; stroke-opacity: 0.1"/>
    </defs>
    <g clip-path="url(#p27d9480bc3)">
     <use xlink:href="#mb37b7f20f5" x="0" y="209.423423" style="fill: #d4a017; fill-opacity: 0.1; stroke: #d4a017; stroke-opacity: 0.1"/>
    </g>
   </g>
   <g id="matplotlib.axis_1">
    <g id="xtick_1">
     <g id="line2d_1">
      <defs>
       <path id="mc540292c5b" d="M 0 0 
L 0 3.5 
" style="stroke: #64748b; stroke-width: 0.8"/>
      </defs>
      <g>
       <use xlink:href="#mc540292c5b" x="55.900895" y="179.593298" style="fill: #64748b; stroke: #64748b; stroke-width: 0.8"/>
      </g>
     </g>
     <g id="text_1">
      <!-- 2025 -->
      <g style="fill: #64748b" transform="translate(48.60777 192.151735) scale(0.07 -0.07)">
       <defs>
        <path id="NotoSansSC-Thin-32" d="M 294 0 
L 294 147 
Q 1120 858 1613 1434 
Q 2106 2010 2323 2499 
Q 2541 2989 2541 3424 
Q 2541 3725 2435 3974 
Q 2330 4224 2106 4371 
Q 1882 4518 1523 4518 
Q 1210 4518 931 4352 
Q 653 4186 442 3923 
L 282 4070 
Q 525 4346 829 4538 
Q 1133 4730 1542 4730 
Q 1939 4730 2214 4566 
Q 2490 4403 2637 4112 
Q 2784 3821 2784 3424 
Q 2784 2918 2537 2406 
Q 2291 1894 1820 1347 
Q 1350 800 678 179 
Q 870 192 1062 201 
Q 1254 211 1440 211 
L 3014 211 
L 3014 0 
L 294 0 
z
" transform="scale(0.015625)"/>
        <path id="NotoSansSC-Thin-30" d="M 1670 -83 
Q 1261 -83 963 179 
Q 666 442 509 979 
Q 352 1517 352 2336 
Q 352 3149 509 3677 
Q 666 4205 963 4467 
Q 1261 4730 1670 4730 
Q 2080 4730 2371 4467 
Q 2662 4205 2822 3677 
Q 2982 3149 2982 2336 
Q 2982 1517 2822 979 
Q 2662 442 2371 179 
Q 2080 -83 1670 -83 
z
M 1670 128 
Q 1997 128 2240 384 
Q 2483 640 2614 1133 
Q 2746 1626 2746 2336 
Q 2746 3040 2614 3529 
Q 2483 4019 2240 4272 
Q 1997 4525 1670 4525 
Q 1344 4525 1101 4272 
Q 858 4019 723 3529 
Q 589 3040 589 2336 
Q 589 1626 723 1133 
Q 858 640 1101 384 
Q 1344 128 1670 128 
z
" transform="scale(0.015625)"/>
        <path id="NotoSansSC-Thin-35" d="M 1581 -83 
Q 1222 -83 963 9 
Q 704 102 515 240 
Q 326 378 186 518 
L 333 691 
Q 467 550 636 422 
Q 806 294 1040 211 
Q 1274 128 1594 128 
Q 1901 128 2166 294 
Q 2432 461 2592 765 
Q 2752 1069 2752 1466 
Q 2752 2061 2441 2406 
Q 2131 2752 1606 2752 
Q 1350 2752 1152 2665 
Q 954 2579 755 2445 
L 563 2560 
L 730 4646 
L 2758 4646 
L 2758 4435 
L 941 4435 
L 787 2726 
Q 966 2835 1168 2902 
Q 1370 2970 1626 2970 
Q 2010 2970 2320 2813 
Q 2630 2656 2812 2326 
Q 2995 1997 2995 1478 
Q 2995 979 2787 630 
Q 2579 282 2256 99 
Q 1933 -83 1581 -83 
z
" transform="scale(0.015625)"/>
       </defs>
       <use xlink:href="#NotoSansSC-Thin-32"/>
       <use xlink:href="#NotoSansSC-Thin-30" transform="translate(52.099991 0)"/>
       <use xlink:href="#NotoSansSC-Thin-32" transform="translate(104.199982 0)"/>
       <use xlink:href="#NotoSansSC-Thin-35" transform="translate(156.299973 0)"/>
      </g>
      <!-- 1月 -->
      <g style="fill: #64748b" transform="translate(50.577614 200.522641) scale(0.07 -0.07)">
       <defs>
        <path id="NotoSansSC-Thin-31" d="M 608 0 
L 608 211 
L 1677 211 
L 1677 4211 
L 864 4211 
L 864 4378 
Q 1133 4422 1344 4492 
Q 1555 4563 1702 4646 
L 1901 4646 
L 1901 211 
L 2899 211 
L 2899 0 
L 608 0 
z
" transform="scale(0.015625)"/>
        <path id="NotoSansSC-Thin-6708" d="M 1523 4941 
L 4998 4941 
L 4998 4755 
L 1523 4755 
L 1523 4941 
z
M 1517 3386 
L 5024 3386 
L 5024 3200 
L 1517 3200 
L 1517 3386 
z
M 1446 1811 
L 5005 1811 
L 5005 1626 
L 1446 1626 
L 1446 1811 
z
M 1453 4941 
L 1638 4941 
L 1638 3110 
Q 1638 2694 1596 2230 
Q 1555 1766 1427 1289 
Q 1299 813 1046 365 
Q 794 -83 371 -461 
Q 358 -435 336 -409 
Q 314 -384 288 -358 
Q 262 -333 237 -320 
Q 646 51 889 480 
Q 1133 909 1254 1360 
Q 1376 1811 1414 2259 
Q 1453 2707 1453 3110 
L 1453 4941 
z
M 4934 4941 
L 5126 4941 
L 5126 -6 
Q 5126 -179 5065 -259 
Q 5005 -339 4864 -371 
Q 4723 -397 4409 -403 
Q 4096 -410 3565 -410 
Q 3558 -378 3542 -342 
Q 3526 -307 3510 -272 
Q 3494 -237 3475 -205 
Q 3782 -211 4041 -211 
Q 4301 -211 4483 -208 
Q 4666 -205 4736 -205 
Q 4851 -198 4892 -156 
Q 4934 -115 4934 -6 
L 4934 4941 
z
" transform="scale(0.015625)"/>
       </defs>
       <use xlink:href="#NotoSansSC-Thin-31"/>
       <use xlink:href="#NotoSansSC-Thin-6708" transform="translate(52.099991 0)"/>
      </g>
     </g>
    </g>
    <g id="xtick_2">
     <g id="line2d_2">
      <g>
       <use xlink:href="#mc540292c5b" x="90.354304" y="179.593298" style="fill: #64748b; stroke: #64748b; stroke-width: 0.8"/>
      </g>
     </g>
     <g id="text_2">
      <!-- 3月 -->
      <g style="fill: #64748b" transform="translate(85.031023 192.151735) scale(0.07 -0.07)">
       <defs>
        <path id="NotoSansSC-Thin-33" d="M 1619 -83 
Q 1261 -83 998 13 
Q 736 109 544 256 
Q 352 403 211 550 
L 358 717 
Q 563 499 857 313 
Q 1152 128 1632 128 
Q 1952 128 2198 262 
Q 2445 397 2585 640 
Q 2726 883 2726 1210 
Q 2726 1542 2560 1795 
Q 2394 2048 2038 2189 
Q 1683 2330 1114 2330 
L 1114 2554 
Q 1651 2554 1964 2698 
Q 2278 2842 2416 3088 
Q 2554 3334 2554 3629 
Q 2554 4026 2298 4272 
Q 2042 4518 1606 4518 
Q 1293 4518 1017 4374 
Q 742 4230 557 4026 
L 410 4192 
Q 634 4410 925 4570 
Q 1216 4730 1606 4730 
Q 1939 4730 2211 4598 
Q 2483 4467 2643 4224 
Q 2803 3981 2803 3642 
Q 2803 3168 2550 2877 
Q 2298 2586 1926 2464 
L 1926 2438 
Q 2208 2381 2445 2221 
Q 2682 2061 2826 1808 
Q 2970 1555 2970 1222 
Q 2970 826 2790 531 
Q 2611 237 2307 77 
Q 2003 -83 1619 -83 
z
" transform="scale(0.015625)"/>
       </defs>
       <use xlink:href="#NotoSansSC-Thin-33"/>
       <use xlink:href="#NotoSansSC-Thin-6708" transform="translate(52.099991 0)"/>
      </g>
     </g>
    </g>
    <g id="xtick_3">
     <g id="line2d_3">
      <g>
       <use xlink:href="#mc540292c5b" x="124.807713" y="179.593298" style="fill: #64748b; stroke: #64748b; stroke-width: 0.8"/>
      </g>
     </g>
     <g id="text_3">
      <!-- 5月 -->
      <g style="fill: #64748b" transform="translate(119.484432 192.151735) scale(0.07 -0.07)">
       <use xlink:href="#NotoSansSC-Thin-35"/>
       <use xlink:href="#NotoSansSC-Thin-6708" transform="translate(52.099991 0)"/>
      </g>
     </g>
    </g>
    <g id="xtick_4">
     <g id="line2d_4">
      <g>
       <use xlink:href="#mc540292c5b" x="159.261122" y="179.593298" style="fill: #64748b; stroke: #64748b; stroke-width: 0.8"/>
      </g>
     </g>
     <g id="text_4">
      <!-- 7月 -->
      <g style="fill: #64748b" transform="translate(153.937841 192.151735) scale(0.07 -0.07)">
       <defs>
        <path id="NotoSansSC-Thin-37" d="M 1344 0 
Q 1376 717 1462 1318 
Q 1549 1920 1712 2445 
Q 1875 2970 2124 3459 
Q 2374 3949 2726 4435 
L 307 4435 
L 307 4646 
L 3034 4646 
L 3034 4512 
Q 2624 3955 2355 3436 
Q 2086 2918 1932 2384 
Q 1779 1850 1705 1267 
Q 1632 685 1606 0 
L 1344 0 
z
" transform="scale(0.015625)"/>
       </defs>
       <use xlink:href="#NotoSansSC-Thin-37"/>
       <use xlink:href="#NotoSansSC-Thin-6708" transform="translate(52.099991 0)"/>
      </g>
     </g>
    </g>
    <g id="xtick_5">
     <g id="line2d_5">
      <g>
       <use xlink:href="#mc540292c5b" x="193.714531" y="179.593298" style="fill: #64748b; stroke: #64748b; stroke-width: 0.8"/>
      </g>
     </g>
     <g id="text_5">
      <!-- 9月 -->
      <g style="fill: #64748b" transform="translate(188.39125 192.151735) scale(0.07 -0.07)">
       <defs>
        <path id="NotoSansSC-Thin-39" d="M 1370 -83 
Q 1050 -83 819 32 
Q 589 147 410 339 
L 557 506 
Q 723 314 934 221 
Q 1146 128 1389 128 
Q 1651 128 1891 256 
Q 2131 384 2316 675 
Q 2502 966 2611 1443 
Q 2720 1920 2720 2618 
Q 2720 3168 2592 3600 
Q 2464 4032 2195 4278 
Q 1926 4525 1498 4525 
Q 1229 4525 1014 4355 
Q 800 4186 675 3901 
Q 550 3616 550 3264 
Q 550 2912 652 2627 
Q 755 2342 979 2172 
Q 1203 2003 1555 2003 
Q 1830 2003 2137 2182 
Q 2445 2362 2739 2765 
L 2746 2470 
Q 2586 2278 2397 2128 
Q 2208 1978 1993 1891 
Q 1779 1805 1536 1805 
Q 1152 1805 877 1974 
Q 602 2144 454 2470 
Q 307 2797 307 3264 
Q 307 3686 473 4019 
Q 640 4352 912 4541 
Q 1184 4730 1510 4730 
Q 1850 4730 2118 4589 
Q 2387 4448 2572 4176 
Q 2758 3904 2857 3513 
Q 2957 3123 2957 2618 
Q 2957 1862 2825 1344 
Q 2694 826 2470 512 
Q 2246 198 1961 57 
Q 1677 -83 1370 -83 
z
" transform="scale(0.015625)"/>
       </defs>
       <use xlink:href="#NotoSansSC-Thin-39"/>
       <use xlink:href="#NotoSansSC-Thin-6708" transform="translate(52.099991 0)"/>
      </g>
     </g>
    </g>
    <g id="xtick_6">
     <g id="line2d_6">
      <g>
       <use xlink:href="#mc540292c5b" x="228.16794" y="179.593298" style="fill: #64748b; stroke: #64748b; stroke-width: 0.8"/>
      </g>
     </g>
     <g id="text_6">
      <!-- 11月 -->
      <g style="fill: #64748b" transform="translate(221.021378 192.151735) scale(0.07 -0.07)">
       <use xlink:href="#NotoSansSC-Thin-31"/>
       <use xlink:href="#NotoSansSC-Thin-31" transform="translate(52.099991 0)"/>
       <use xlink:href="#NotoSansSC-Thin-6708" transform="translate(104.199982 0)"/>
      </g>
     </g>
    </g>
    <g id="xtick_7">
     <g id="line2d_7">
      <g>
       <use xlink:href="#mc540292c5b" x="262.621349" y="179.593298" style="fill: #64748b; stroke: #64748b; stroke-width: 0.8"/>
      </g>
     </g>
     <g id="text_7">
      <!-- 2026 -->
      <g style="fill: #64748b" transform="translate(255.328224 192.151735) scale(0.07 -0.07)">
       <defs>
        <path id="NotoSansSC-Thin-36" d="M 1837 -83 
Q 1498 -83 1232 67 
Q 966 218 780 509 
Q 595 800 496 1216 
Q 397 1632 397 2170 
Q 397 2886 528 3379 
Q 659 3872 889 4169 
Q 1120 4467 1414 4598 
Q 1709 4730 2029 4730 
Q 2330 4730 2550 4614 
Q 2771 4499 2944 4307 
L 2790 4147 
Q 2643 4333 2444 4425 
Q 2246 4518 2022 4518 
Q 1651 4518 1334 4297 
Q 1018 4077 826 3561 
Q 634 3046 634 2170 
Q 634 1581 762 1120 
Q 890 659 1158 393 
Q 1427 128 1850 128 
Q 2125 128 2336 297 
Q 2547 467 2672 752 
Q 2797 1037 2797 1382 
Q 2797 1741 2694 2025 
Q 2592 2310 2368 2476 
Q 2144 2643 1779 2643 
Q 1523 2643 1209 2470 
Q 896 2298 602 1888 
L 602 2176 
Q 768 2381 957 2531 
Q 1146 2682 1360 2762 
Q 1574 2842 1792 2842 
Q 2189 2842 2467 2675 
Q 2746 2509 2893 2185 
Q 3040 1862 3040 1382 
Q 3040 960 2873 630 
Q 2707 301 2435 109 
Q 2163 -83 1837 -83 
z
" transform="scale(0.015625)"/>
       </defs>
       <use xlink:href="#NotoSansSC-Thin-32"/>
       <use xlink:href="#NotoSansSC-Thin-30" transform="translate(52.099991 0)"/>
       <use xlink:href="#NotoSansSC-Thin-32" transform="translate(104.199982 0)"/>
       <use xlink:href="#NotoSansSC-Thin-36" transform="translate(156.299973 0)"/>
      </g>
      <!-- 1月 -->
      <g style="fill: #64748b" transform="translate(257.298068 200.522641) scale(0.07 -0.07)">
       <use xlink:href="#NotoSansSC-Thin-31"/>
       <use xlink:href="#NotoSansSC-Thin-6708" transform="translate(52.099991 0)"/>
      </g>
     </g>
    </g>
   </g>
   <g id="matplotlib.axis_2">
    <g id="ytick_1">
     <g id="line2d_8">
      <path d="M 42.119531 172.788525 
L 345.309531 172.788525 
" clip-path="url(#p27d9480bc3)" style="fill: none; stroke: #64748b; stroke-opacity: 0.2; stroke-width: 0.8; stroke-linecap: square"/>
     </g>
     <g id="line2d_9">
      <defs>
       <path id="mbbe414ef42" d="M 0 0 
L -3.5 0 
" style="stroke: #64748b; stroke-width: 0.8"/>
      </defs>
      <g>
       <use xlink:href="#mbbe414ef42" x="42.119531" y="172.788525" style="fill: #64748b; stroke: #64748b; stroke-width: 0.8"/>
      </g>
     </g>
     <g id="text_8">
      <!-- 0 -->
      <g style="fill: #64748b" transform="translate(31.472969 175.567744) scale(0.07 -0.07)">
       <use xlink:href="#NotoSansSC-Thin-30"/>
      </g>
     </g>
    </g>
    <g id="ytick_2">
     <g id="line2d_10">
      <path d="M 42.119531 142.851117 
L 345.309531 142.851117 
" clip-path="url(#p27d9480bc3)" style="fill: none; stroke: #64748b; stroke-opacity: 0.2; stroke-width: 0.8; stroke-linecap: square"/>
     </g>
     <g id="line2d_11">
      <g>
       <use xlink:href="#mbbe414ef42" x="42.119531" y="142.851117" style="fill: #64748b; stroke: #64748b; stroke-width: 0.8"/>
      </g>
     </g>
     <g id="text_9">
      <!-- 1000 -->
      <g style="fill: #64748b" transform="translate(20.533281 145.630336) scale(0.07 -0.07)">
       <use xlink:href="#NotoSansSC-Thin-31"/>
       <use xlink:href="#NotoSansSC-Thin-30" transform="translate(52.099991 0)"/>
       <use xlink:href="#NotoSansSC-Thin-30" transform="translate(104.199982 0)"/>
       <use xlink:href="#NotoSansSC-Thin-30" transform="translate(156.299973 0)"/>
      </g>
     </g>
    </g>
    <g id="ytick_3">
     <g id="line2d_12">
      <path d="M 42.119531 112.91371 
L 345.309531 112.91371 
" clip-path="url(#p27d9480bc3)" style="fill: none; stroke: #64748b; stroke-opacity: 0.2; stroke-width: 0.8; stroke-linecap: square"/>
     </g>
     <g id="line2d_13">
      <g>
       <use xlink:href="#mbbe414ef42" x="42.119531" y="112.91371" style="fill: #64748b; stroke: #64748b; stroke-width: 0.8"/>
      </g>
     </g>
     <g id="text_10">
      <!-- 2000 -->
      <g style="fill: #64748b" transform="translate(20.533281 115.692929) scale(0.07 -0.07)">
       <use xlink:href="#NotoSansSC-Thin-32"/>
       <use xlink:href="#NotoSansSC-Thin-30" transform="translate(52.099991 0)"/>
       <use xlink:href="#NotoSansSC-Thin-30" transform="translate(104.199982 0)"/>
       <use xlink:href="#NotoSansSC-Thin-30" transform="translate(156.299973 0)"/>
      </g>
     </g>
    </g>
    <g id="ytick_4">
     <g id="line2d_14">
      <path d="M 42.119531 82.976302 
L 345.309531 82.976302 
" clip-path="url(#p27d9480bc3)" style="fill: none; stroke: #64748b; stroke-opacity: 0.2; stroke-width: 0.8; stroke-linecap: square"/>
     </g>
     <g id="line2d_15">
      <g>
       <use xlink:href="#mbbe414ef42" x="42.119531" y="82.976302" style="fill: #64748b; stroke: #64748b; stroke-width: 0.8"/>
      </g>
     </g>
     <g id="text_11">
      <!-- 3000 -->
      <g style="fill: #64748b" transform="translate(20.533281 85.755521) scale(0.07 -0.07)">
       <use xlink:href="#NotoSansSC-Thin-33"/>
       <use xlink:href="#NotoSansSC-Thin-30" transform="translate(52.099991 0)"/>
       <use xlink:href="#NotoSansSC-Thin-30" transform="translate(104.199982 0)"/>
       <use xlink:href="#NotoSansSC-Thin-30" transform="translate(156.299973 0)"/>
      </g>
     </g>
    </g>
    <g id="ytick_5">
     <g id="line2d_16">
      <path d="M 42.119531 53.038895 
L 345.309531 53.038895 
" clip-path="url(#p27d9480bc3)" style="fill: none; stroke: #64748b; stroke-opacity: 0.2; stroke-width: 0.8; stroke-linecap: square"/>
     </g>
     <g id="line2d_17">
      <g>
       <use xlink:href="#mbbe414ef42" x="42.119531" y="53.038895" style="fill: #64748b; stroke: #64748b; stroke-width: 0.8"/>
      </g>
     </g>
     <g id="text_12">
      <!-- 4000 -->
      <g style="fill: #64748b" transform="translate(20.533281 55.818114) scale(0.07 -0.07)">
       <defs>
        <path id="NotoSansSC-Thin-34" d="M 2195 0 
L 2195 3482 
Q 2195 3629 2204 3843 
Q 2214 4058 2227 4205 
L 2195 4205 
Q 2112 4058 2019 3901 
Q 1926 3744 1830 3590 
L 422 1568 
L 3110 1568 
L 3110 1363 
L 115 1363 
L 115 1485 
L 2259 4646 
L 2419 4646 
L 2419 0 
L 2195 0 
z
" transform="scale(0.015625)"/>
       </defs>
       <use xlink:href="#NotoSansSC-Thin-34"/>
       <use xlink:href="#NotoSansSC-Thin-30" transform="translate(52.099991 0)"/>
       <use xlink:href="#NotoSansSC-Thin-30" transform="translate(104.199982 0)"/>
       <use xlink:href="#NotoSansSC-Thin-30" transform="translate(156.299973 0)"/>
      </g>
     </g>
    </g>
    <g id="text_13">
     <!-- 美元/盎司 -->
     <g style="fill: #64748b" transform="translate(14.346563 124.522516) rotate(-90) scale(0.09 -0.09)">
      <defs>
       <path id="NotoSansSC-Thin-7f8e" d="M 659 4314 
L 5747 4314 
L 5747 4128 
L 659 4128 
L 659 4314 
z
M 998 3405 
L 5434 3405 
L 5434 3219 
L 998 3219 
L 998 3405 
z
M 538 1626 
L 5990 1626 
L 5990 1440 
L 538 1440 
L 538 1626 
z
M 403 2470 
L 6022 2470 
L 6022 2285 
L 403 2285 
L 403 2470 
z
M 3091 4250 
L 3283 4250 
L 3283 2387 
L 3091 2387 
L 3091 4250 
z
M 1517 5235 
L 1677 5318 
Q 1869 5120 2048 4873 
Q 2227 4627 2310 4442 
L 2138 4346 
Q 2054 4538 1878 4787 
Q 1702 5037 1517 5235 
z
M 4666 5318 
L 4838 5216 
Q 4678 4954 4473 4656 
Q 4269 4358 4096 4154 
L 3962 4243 
Q 4077 4384 4208 4576 
Q 4339 4768 4460 4963 
Q 4582 5158 4666 5318 
z
M 3110 2426 
L 3309 2426 
Q 3251 1946 3145 1549 
Q 3040 1152 2845 835 
Q 2650 518 2333 275 
Q 2016 32 1552 -141 
Q 1088 -314 442 -422 
Q 435 -403 416 -371 
Q 397 -339 377 -307 
Q 358 -275 339 -256 
Q 979 -154 1433 12 
Q 1888 179 2192 409 
Q 2496 640 2681 937 
Q 2867 1235 2966 1606 
Q 3066 1978 3110 2426 
z
M 3328 1581 
Q 3642 832 4349 381 
Q 5056 -70 6029 -237 
Q 6010 -256 5984 -288 
Q 5958 -320 5936 -352 
Q 5914 -384 5901 -416 
Q 5254 -282 4710 -29 
Q 4166 224 3766 611 
Q 3366 998 3142 1517 
L 3328 1581 
z
" transform="scale(0.015625)"/>
       <path id="NotoSansSC-Thin-5143" d="M 3872 2835 
L 4058 2835 
L 4058 109 
Q 4058 -45 4128 -93 
Q 4198 -141 4416 -141 
Q 4467 -141 4611 -141 
Q 4755 -141 4934 -141 
Q 5114 -141 5267 -141 
Q 5421 -141 5498 -141 
Q 5651 -141 5728 -51 
Q 5805 38 5833 300 
Q 5862 563 5869 1082 
Q 5901 1062 5933 1040 
Q 5965 1018 6000 1005 
Q 6035 992 6061 979 
Q 6048 461 6003 176 
Q 5958 -109 5846 -221 
Q 5734 -333 5498 -333 
Q 5459 -333 5302 -333 
Q 5146 -333 4957 -333 
Q 4768 -333 4614 -333 
Q 4461 -333 4422 -333 
Q 4211 -333 4089 -297 
Q 3968 -262 3920 -166 
Q 3872 -70 3872 109 
L 3872 2835 
z
M 422 2918 
L 5984 2918 
L 5984 2726 
L 422 2726 
L 422 2918 
z
M 960 4768 
L 5485 4768 
L 5485 4582 
L 960 4582 
L 960 4768 
z
M 2234 2784 
L 2426 2784 
Q 2381 2240 2285 1750 
Q 2189 1261 1987 845 
Q 1786 429 1437 102 
Q 1088 -224 544 -435 
Q 531 -410 489 -371 
Q 448 -333 416 -307 
Q 947 -102 1283 211 
Q 1619 525 1814 928 
Q 2010 1331 2102 1801 
Q 2195 2272 2234 2784 
z
" transform="scale(0.015625)"/>
       <path id="NotoSansSC-Thin-2f" d="M 58 -1126 
L 2298 5005 
L 2515 5005 
L 282 -1126 
L 58 -1126 
z
" transform="scale(0.015625)"/>
       <path id="NotoSansSC-Thin-76ce" d="M 314 -45 
L 6106 -45 
L 6106 -230 
L 314 -230 
L 314 -45 
z
M 1190 1626 
L 5216 1626 
L 5216 -154 
L 5024 -154 
L 5024 1440 
L 3930 1440 
L 3930 -154 
L 3738 -154 
L 3738 1440 
L 2650 1440 
L 2650 -154 
L 2458 -154 
L 2458 1440 
L 1382 1440 
L 1382 -154 
L 1190 -154 
L 1190 1626 
z
M 429 3302 
L 5965 3302 
L 5965 3110 
L 429 3110 
L 429 3302 
z
M 1254 4666 
L 5152 4666 
L 5152 3187 
L 4960 3187 
L 4960 4480 
L 1446 4480 
L 1446 3187 
L 1254 3187 
L 1254 4666 
z
M 3072 5312 
L 3264 5312 
L 3264 4115 
Q 3264 3840 3219 3552 
Q 3174 3264 3027 2979 
Q 2880 2694 2573 2419 
Q 2266 2144 1744 1897 
Q 1222 1651 422 1440 
Q 416 1466 397 1494 
Q 378 1523 355 1552 
Q 333 1581 314 1600 
Q 1094 1805 1606 2038 
Q 2118 2272 2416 2531 
Q 2714 2790 2854 3059 
Q 2995 3328 3033 3597 
Q 3072 3866 3072 4115 
L 3072 5312 
z
M 3430 3251 
Q 3738 2573 4442 2185 
Q 5146 1798 6112 1664 
Q 6093 1645 6067 1613 
Q 6042 1581 6019 1549 
Q 5997 1517 5984 1485 
Q 5338 1594 4797 1811 
Q 4256 2029 3859 2368 
Q 3462 2707 3245 3187 
L 3430 3251 
z
" transform="scale(0.015625)"/>
       <path id="NotoSansSC-Thin-53f8" d="M 621 4877 
L 5510 4877 
L 5510 4685 
L 621 4685 
L 621 4877 
z
M 646 3795 
L 4576 3795 
L 4576 3610 
L 646 3610 
L 646 3795 
z
M 5395 4877 
L 5574 4877 
L 5574 13 
Q 5574 -154 5526 -234 
Q 5478 -314 5344 -346 
Q 5210 -371 4918 -374 
Q 4627 -378 4205 -378 
Q 4198 -346 4182 -310 
Q 4166 -275 4150 -233 
Q 4134 -192 4115 -160 
Q 4378 -166 4608 -166 
Q 4838 -166 5004 -163 
Q 5171 -160 5242 -160 
Q 5331 -154 5363 -118 
Q 5395 -83 5395 6 
L 5395 4877 
z
M 1133 2701 
L 1318 2701 
L 1318 294 
L 1133 294 
L 1133 2701 
z
M 1229 2701 
L 4019 2701 
L 4019 781 
L 1229 781 
L 1229 966 
L 3834 966 
L 3834 2509 
L 1229 2509 
L 1229 2701 
z
" transform="scale(0.015625)"/>
      </defs>
      <use xlink:href="#NotoSansSC-Thin-7f8e"/>
      <use xlink:href="#NotoSansSC-Thin-5143" transform="translate(99.999985 0)"/>
      <use xlink:href="#NotoSansSC-Thin-2f" transform="translate(199.999969 0)"/>
      <use xlink:href="#NotoSansSC-Thin-76ce" transform="translate(239.59996 0)"/>
      <use xlink:href="#NotoSansSC-Thin-53f8" transform="translate(339.599945 0)"/>
     </g>
    </g>
   </g>
   <g id="patch_3">
    <path d="M 42.119531 179.593298 
L 42.119531 29.888298 
" style="fill: none; stroke: #e2e8f0; stroke-width: 0.8; stroke-linejoin: miter; stroke-linecap: square"/>
   </g>
   <g id="patch_4">
    <path d="M 42.119531 179.593298 
L 345.309531 179.593298 
" style="fill: none; stroke: #e2e8f0; stroke-width: 0.8; stroke-linejoin: miter; stroke-linecap: square"/>
   </g>
   <g id="line2d_18">
    <path d="M 55.900895 93.454395 
L 90.354304 85.970043 
L 124.807713 79.982562 
L 159.261122 72.49821 
L 193.714531 65.013858 
L 228.16794 59.026376 
L 262.621349 50.045154 
L 90.354304 44.057673 
L 124.807713 36.69307 
" clip-path="url(#p27d9480bc3)" style="fill: none; stroke: #d4a017; stroke-width: 2.5; stroke-linecap: square"/>
    <defs>
     <path id="m81b460d515" d="M 0 2.5 
C 0.663008 2.5 1.29895 2.236584 1.767767 1.767767 
C 2.236584 1.29895 2.5 0.663008 2.5 0 
C 2.5 -0.663008 2.236584 -1.29895 1.767767 -1.767767 
C 1.29895 -2.236584 0.663008 -2.5 0 -2.5 
C -0.663008 -2.5 -1.29895 -2.236584 -1.767767 -1.767767 
C -2.236584 -1.29895 -2.5 -0.663008 -2.5 0 
C -2.5 0.663008 -2.236584 1.29895 -1.767767 1.767767 
C -1.29895 2.236584 -0.663008 2.5 0 2.5 
z
" style="stroke: #d4a017"/>
    </defs>
    <g clip-path="url(#p27d9480bc3)">
     <use xlink:href="#m81b460d515" x="55.900895" y="93.454395" style="fill: #d4a017; stroke: #d4a017"/>
     <use xlink:href="#m81b460d515" x="90.354304" y="85.970043" style="fill: #d4a017; stroke: #d4a017"/>
     <use xlink:href="#m81b460d515" x="124.807713" y="79.982562" style="fill: #d4a017; stroke: #d4a017"/>
     <use xlink:href="#m81b460d515" x="159.261122" y="72.49821" style="fill: #d4a017; stroke: #d4a017"/>
     <use xlink:href="#m81b460d515" x="193.714531" y="65.013858" style="fill: #d4a017; stroke: #d4a017"/>
     <use xlink:href="#m81b460d515" x="228.16794" y="59.026376" style="fill: #d4a017; stroke: #d4a017"/>
     <use xlink:href="#m81b460d515" x="262.621349" y="50.045154" style="fill: #d4a017; stroke: #d4a017"/>
     <use xlink:href="#m81b460d515" x="90.354304" y="44.057673" style="fill: #d4a017; stroke: #d4a017"/>
     <use xlink:href="#m81b460d515" x="124.807713" y="36.69307" style="fill: #d4a017; stroke: #d4a017"/>
    </g>
   </g>
   <g id="patch_5">
    <path d="M 314.844306 28.734819 
Q 322.284021 32.283585 328.210071 35.110328 
" style="fill: none; stroke: #ef4444; stroke-width: 1.5; stroke-linecap: round"/>
    <path d="M 325.185907 31.230324 
L 328.210071 35.110328 
L 323.291569 35.201657 
" style="fill: none; stroke: #ef4444; stroke-width: 1.5; stroke-linecap: round"/>
   </g>
   <g id="text_14">
    <!-- $4,546 -->
    <g style="fill: #ef4444" transform="translate(279.848054 15.934687) scale(0.11 -0.11)">
     <defs>
      <path id="NotoSansSC-Thin-24" d="M 1715 -83 
Q 1446 -83 1206 0 
Q 966 83 771 208 
Q 576 333 435 467 
L 570 634 
Q 762 454 1053 291 
Q 1344 128 1715 128 
Q 2182 128 2425 381 
Q 2669 634 2669 1037 
Q 2669 1350 2557 1561 
Q 2445 1773 2262 1917 
Q 2080 2061 1862 2173 
Q 1645 2285 1427 2393 
Q 1210 2502 1027 2646 
Q 845 2790 733 2998 
Q 621 3206 621 3514 
Q 621 3827 768 4070 
Q 915 4314 1164 4451 
Q 1414 4589 1722 4589 
Q 2118 4589 2355 4445 
Q 2592 4301 2784 4096 
L 2637 3949 
Q 2438 4154 2243 4266 
Q 2048 4378 1709 4378 
Q 1331 4378 1094 4134 
Q 858 3891 858 3533 
Q 858 3251 970 3068 
Q 1082 2886 1264 2758 
Q 1446 2630 1664 2524 
Q 1882 2419 2099 2304 
Q 2317 2189 2499 2032 
Q 2682 1875 2794 1638 
Q 2906 1402 2906 1050 
Q 2906 698 2746 445 
Q 2586 192 2317 54 
Q 2048 -83 1715 -83 
z
M 1606 -774 
L 1606 -51 
L 1824 -51 
L 1824 -774 
L 1606 -774 
z
M 1606 4461 
L 1606 5280 
L 1824 5280 
L 1824 4461 
L 1606 4461 
z
" transform="scale(0.015625)"/>
      <path id="NotoSansSC-Thin-2c" d="M 422 -1062 
L 339 -890 
Q 563 -762 707 -541 
Q 851 -320 851 -13 
L 755 371 
L 992 70 
Q 947 0 889 -22 
Q 832 -45 768 -45 
Q 659 -45 582 25 
Q 506 96 506 218 
Q 506 346 586 413 
Q 666 480 768 480 
Q 909 480 995 358 
Q 1082 237 1082 32 
Q 1082 -326 893 -611 
Q 704 -896 422 -1062 
z
" transform="scale(0.015625)"/>
     </defs>
     <use xlink:href="#NotoSansSC-Thin-24"/>
     <use xlink:href="#NotoSansSC-Thin-34" transform="translate(52.099991 0)"/>
     <use xlink:href="#NotoSansSC-Thin-2c" transform="translate(104.199982 0)"/>
     <use xlink:href="#NotoSansSC-Thin-35" transform="translate(127.299973 0)"/>
     <use xlink:href="#NotoSansSC-Thin-34" transform="translate(179.399963 0)"/>
     <use xlink:href="#NotoSansSC-Thin-36" transform="translate(231.499954 0)"/>
    </g>
    <!-- 新高! -->
    <g style="fill: #ef4444" transform="translate(279.848054 29.088969) scale(0.11 -0.11)">
     <defs>
      <path id="NotoSansSC-Thin-65b0" d="M 3693 3110 
L 6074 3110 
L 6074 2925 
L 3693 2925 
L 3693 3110 
z
M 442 4608 
L 3213 4608 
L 3213 4422 
L 442 4422 
L 442 4608 
z
M 365 2080 
L 3277 2080 
L 3277 1888 
L 365 1888 
L 365 2080 
z
M 346 3110 
L 3315 3110 
L 3315 2925 
L 346 2925 
L 346 3110 
z
M 5075 3046 
L 5261 3046 
L 5261 -422 
L 5075 -422 
L 5075 3046 
z
M 934 4282 
L 1107 4314 
Q 1222 4064 1308 3766 
Q 1395 3469 1421 3258 
L 1235 3206 
Q 1210 3424 1130 3725 
Q 1050 4026 934 4282 
z
M 2579 4326 
L 2771 4269 
Q 2669 3955 2541 3593 
Q 2413 3232 2298 2982 
L 2131 3034 
Q 2208 3206 2291 3436 
Q 2374 3667 2451 3904 
Q 2528 4141 2579 4326 
z
M 5626 5146 
L 5818 4998 
Q 5542 4902 5177 4816 
Q 4813 4730 4416 4662 
Q 4019 4595 3648 4544 
Q 3642 4576 3619 4617 
Q 3597 4659 3571 4691 
Q 3936 4749 4326 4819 
Q 4717 4890 5059 4976 
Q 5402 5062 5626 5146 
z
M 1498 5267 
L 1677 5325 
Q 1805 5146 1936 4922 
Q 2067 4698 2125 4544 
L 1946 4467 
Q 1882 4627 1754 4854 
Q 1626 5082 1498 5267 
z
M 1754 3021 
L 1933 3021 
L 1933 -13 
Q 1933 -115 1904 -166 
Q 1875 -218 1805 -250 
Q 1734 -275 1593 -281 
Q 1453 -288 1248 -288 
Q 1242 -250 1219 -195 
Q 1197 -141 1165 -96 
Q 1357 -102 1491 -102 
Q 1626 -102 1677 -96 
Q 1754 -96 1754 -19 
L 1754 3021 
z
M 3571 4691 
L 3750 4691 
L 3750 2554 
Q 3750 2214 3728 1830 
Q 3706 1446 3635 1052 
Q 3565 659 3424 284 
Q 3283 -90 3046 -410 
Q 3034 -384 3005 -361 
Q 2976 -339 2950 -316 
Q 2925 -294 2899 -282 
Q 3206 128 3347 621 
Q 3488 1114 3529 1616 
Q 3571 2118 3571 2554 
L 3571 4691 
z
M 2336 1510 
L 2496 1574 
Q 2662 1318 2822 1008 
Q 2982 698 3053 474 
L 2886 397 
Q 2810 621 2653 937 
Q 2496 1254 2336 1510 
z
M 1011 1574 
L 1197 1530 
Q 1088 1178 909 842 
Q 730 506 531 262 
Q 506 288 451 326 
Q 397 365 358 384 
Q 570 621 736 931 
Q 902 1242 1011 1574 
z
" transform="scale(0.015625)"/>
      <path id="NotoSansSC-Thin-9ad8" d="M 410 4576 
L 5971 4576 
L 5971 4384 
L 410 4384 
L 410 4576 
z
M 1690 3718 
L 1690 2906 
L 4742 2906 
L 4742 3718 
L 1690 3718 
z
M 1498 3910 
L 4928 3910 
L 4928 2720 
L 1498 2720 
L 1498 3910 
z
M 698 2259 
L 5619 2259 
L 5619 2074 
L 883 2074 
L 883 -442 
L 698 -442 
L 698 2259 
z
M 5517 2259 
L 5702 2259 
L 5702 -134 
Q 5702 -237 5673 -285 
Q 5645 -333 5562 -365 
Q 5485 -390 5321 -393 
Q 5158 -397 4877 -397 
Q 4870 -358 4848 -310 
Q 4826 -262 4800 -230 
Q 4954 -230 5082 -230 
Q 5210 -230 5299 -230 
Q 5389 -230 5421 -230 
Q 5517 -224 5517 -141 
L 5517 2259 
z
M 2970 5286 
L 3110 5312 
Q 3194 5107 3270 4870 
Q 3347 4634 3379 4486 
L 3232 4429 
Q 3194 4595 3117 4838 
Q 3040 5082 2970 5286 
z
M 1926 1549 
L 4474 1549 
L 4474 346 
L 1926 346 
L 1926 531 
L 4288 531 
L 4288 1363 
L 1926 1363 
L 1926 1549 
z
M 1843 1549 
L 2035 1549 
L 2035 -32 
L 1843 -32 
L 1843 1549 
z
" transform="scale(0.015625)"/>
      <path id="NotoSansSC-Thin-21" d="M 787 1216 
L 762 4275 
L 762 4723 
L 998 4723 
L 998 4275 
L 973 1216 
L 787 1216 
z
M 877 -83 
Q 781 -83 701 -9 
Q 621 64 621 192 
Q 621 333 701 406 
Q 781 480 877 480 
Q 979 480 1059 406 
Q 1139 333 1139 192 
Q 1139 64 1059 -9 
Q 979 -83 877 -83 
z
" transform="scale(0.015625)"/>
     </defs>
     <use xlink:href="#NotoSansSC-Thin-65b0"/>
     <use xlink:href="#NotoSansSC-Thin-9ad8" transform="translate(99.999985 0)"/>
     <use xlink:href="#NotoSansSC-Thin-21" transform="translate(199.999969 0)"/>
    </g>
   </g>
   <g id="patch_6">
    <path d="M 246.004121 42.76444 
Q 253.397895 46.003966 259.767616 48.794812 
" style="fill: none; stroke: #1a56db; stroke-linecap: round"/>
    <path d="M 257.764819 46.388819 
L 259.767616 48.794812 
L 256.641143 48.953454 
" style="fill: none; stroke: #1a56db; stroke-linecap: round"/>
   </g>
   <g id="text_15">
    <!-- 央行 -->
    <g style="fill: #1a56db" transform="translate(221.16794 32.693026) scale(0.07 -0.07)">
     <defs>
      <path id="NotoSansSC-Thin-592e" d="M 378 2246 
L 6029 2246 
L 6029 2061 
L 378 2061 
L 378 2246 
z
M 1120 4365 
L 5344 4365 
L 5344 2138 
L 5158 2138 
L 5158 4179 
L 1306 4179 
L 1306 2138 
L 1120 2138 
L 1120 4365 
z
M 3386 2195 
Q 3686 1210 4387 576 
Q 5088 -58 6150 -301 
Q 6131 -320 6105 -349 
Q 6080 -378 6061 -406 
Q 6042 -435 6022 -461 
Q 5318 -282 4764 70 
Q 4211 422 3824 944 
Q 3437 1466 3226 2144 
L 3386 2195 
z
M 3072 5318 
L 3264 5318 
L 3264 3322 
Q 3264 2886 3213 2460 
Q 3162 2035 3005 1628 
Q 2848 1222 2541 848 
Q 2234 474 1728 141 
Q 1222 -192 461 -474 
Q 454 -448 435 -422 
Q 416 -397 393 -368 
Q 371 -339 346 -320 
Q 1088 -45 1581 275 
Q 2074 595 2374 953 
Q 2675 1312 2825 1702 
Q 2976 2093 3024 2499 
Q 3072 2906 3072 3322 
L 3072 5318 
z
" transform="scale(0.015625)"/>
      <path id="NotoSansSC-Thin-884c" d="M 2714 4909 
L 5875 4909 
L 5875 4717 
L 2714 4717 
L 2714 4909 
z
M 4832 3085 
L 5018 3085 
L 5018 -109 
Q 5018 -250 4966 -314 
Q 4915 -378 4806 -410 
Q 4685 -429 4419 -432 
Q 4154 -435 3642 -435 
Q 3635 -403 3612 -358 
Q 3590 -314 3558 -269 
Q 3834 -275 4061 -278 
Q 4288 -282 4445 -278 
Q 4602 -275 4659 -269 
Q 4755 -262 4793 -230 
Q 4832 -198 4832 -115 
L 4832 3085 
z
M 2426 3149 
L 6074 3149 
L 6074 2963 
L 2426 2963 
L 2426 3149 
z
M 1306 2912 
L 1478 3078 
L 1491 3066 
L 1491 -480 
L 1306 -480 
L 1306 2912 
z
M 2061 3974 
L 2240 3910 
Q 1997 3526 1686 3152 
Q 1376 2778 1040 2451 
Q 704 2125 371 1862 
Q 358 1882 329 1907 
Q 301 1933 272 1961 
Q 243 1990 218 2003 
Q 557 2246 893 2563 
Q 1229 2880 1529 3241 
Q 1830 3603 2061 3974 
z
M 1786 5325 
L 1971 5248 
Q 1779 4992 1516 4723 
Q 1254 4454 969 4204 
Q 685 3955 416 3757 
Q 403 3776 377 3801 
Q 352 3827 326 3856 
Q 301 3885 282 3898 
Q 550 4090 832 4330 
Q 1114 4570 1363 4829 
Q 1613 5088 1786 5325 
z
" transform="scale(0.015625)"/>
     </defs>
     <use xlink:href="#NotoSansSC-Thin-592e"/>
     <use xlink:href="#NotoSansSC-Thin-884c" transform="translate(99.999985 0)"/>
    </g>
    <!-- 连续买入 -->
    <g style="fill: #1a56db" transform="translate(214.16794 41.063932) scale(0.07 -0.07)">
     <defs>
      <path id="NotoSansSC-Thin-8fde" d="M 1466 3098 
L 1466 512 
L 1274 512 
L 1274 2912 
L 320 2912 
L 320 3098 
L 1466 3098 
z
M 608 5133 
L 762 5222 
Q 941 5050 1123 4842 
Q 1306 4634 1462 4432 
Q 1619 4230 1715 4077 
L 1555 3974 
Q 1466 4128 1309 4329 
Q 1152 4531 969 4742 
Q 787 4954 608 5133 
z
M 1350 634 
Q 1504 634 1641 499 
Q 1779 365 2054 173 
Q 2368 -45 2774 -105 
Q 3181 -166 3750 -166 
Q 4083 -166 4412 -156 
Q 4742 -147 5056 -134 
Q 5370 -122 5651 -106 
Q 5933 -90 6163 -77 
Q 6150 -96 6137 -134 
Q 6125 -173 6115 -217 
Q 6106 -262 6099 -301 
Q 5933 -307 5635 -320 
Q 5338 -333 4989 -342 
Q 4640 -352 4310 -358 
Q 3981 -365 3750 -365 
Q 3130 -365 2704 -291 
Q 2278 -218 1939 19 
Q 1760 160 1606 307 
Q 1453 454 1350 454 
Q 1248 454 1110 342 
Q 973 230 813 32 
Q 653 -166 474 -416 
L 314 -262 
Q 608 115 867 374 
Q 1126 634 1350 634 
z
M 4058 3955 
L 4256 3955 
L 4256 26 
L 4058 26 
L 4058 3955 
z
M 2022 1651 
L 5978 1651 
L 5978 1466 
L 2022 1466 
L 2022 1651 
z
M 2061 4614 
L 5818 4614 
L 5818 4429 
L 2061 4429 
L 2061 4614 
z
M 2419 2739 
L 2419 2931 
L 2611 3014 
L 5645 3014 
L 5645 2822 
L 2963 2822 
Q 2714 2822 2589 2800 
Q 2464 2778 2419 2739 
z
M 2419 2739 
Q 2419 2765 2409 2803 
Q 2400 2842 2384 2883 
Q 2368 2925 2355 2950 
Q 2426 2963 2506 3081 
Q 2586 3200 2682 3379 
Q 2733 3469 2832 3664 
Q 2931 3859 3049 4128 
Q 3168 4397 3286 4701 
Q 3405 5005 3494 5306 
L 3693 5248 
Q 3539 4819 3366 4393 
Q 3194 3968 3005 3581 
Q 2816 3194 2618 2880 
L 2618 2874 
Q 2618 2874 2589 2864 
Q 2560 2854 2518 2835 
Q 2477 2816 2448 2790 
Q 2419 2765 2419 2739 
z
" transform="scale(0.015625)"/>
      <path id="NotoSansSC-Thin-7eed" d="M 2822 4627 
L 5594 4627 
L 5594 4442 
L 2822 4442 
L 2822 4627 
z
M 4051 5312 
L 4250 5312 
L 4250 3590 
L 4051 3590 
L 4051 5312 
z
M 3104 2976 
L 3251 3091 
Q 3475 2963 3705 2780 
Q 3936 2598 4058 2445 
L 3917 2310 
Q 3789 2464 3558 2649 
Q 3328 2835 3104 2976 
z
M 2656 2368 
L 2778 2490 
Q 3002 2368 3238 2189 
Q 3475 2010 3603 1862 
L 3475 1722 
Q 3354 1869 3120 2051 
Q 2886 2234 2656 2368 
z
M 2566 3693 
L 5734 3693 
L 5734 3507 
L 2566 3507 
L 2566 3693 
z
M 5683 3693 
L 5728 3693 
L 5766 3706 
L 5888 3654 
Q 5779 3379 5654 3084 
Q 5530 2790 5408 2592 
L 5242 2669 
Q 5350 2854 5472 3123 
Q 5594 3392 5683 3648 
L 5683 3693 
z
M 2438 1472 
L 6003 1472 
L 6003 1286 
L 2438 1286 
L 2438 1472 
z
M 4275 3168 
L 4467 3168 
L 4467 2323 
Q 4467 1965 4406 1593 
Q 4346 1222 4150 864 
Q 3955 506 3552 170 
Q 3149 -166 2464 -461 
Q 2451 -435 2432 -409 
Q 2413 -384 2390 -358 
Q 2368 -333 2349 -314 
Q 3014 -32 3401 291 
Q 3789 614 3977 960 
Q 4166 1306 4220 1651 
Q 4275 1997 4275 2323 
L 4275 3168 
z
M 4429 768 
L 4557 883 
Q 4826 704 5114 486 
Q 5402 269 5651 51 
Q 5901 -166 6054 -333 
L 5926 -474 
Q 5766 -301 5516 -80 
Q 5267 141 4982 365 
Q 4698 589 4429 768 
z
M 442 1248 
Q 435 1274 422 1312 
Q 410 1350 397 1392 
Q 384 1434 371 1459 
Q 454 1472 563 1593 
Q 672 1715 813 1894 
Q 890 1984 1037 2185 
Q 1184 2387 1373 2668 
Q 1562 2950 1754 3273 
Q 1946 3597 2106 3923 
L 2291 3834 
Q 1920 3155 1488 2508 
Q 1056 1862 621 1389 
L 621 1382 
Q 621 1382 595 1369 
Q 570 1357 531 1337 
Q 493 1318 467 1296 
Q 442 1274 442 1248 
z
M 442 1248 
L 442 1434 
L 582 1536 
L 2221 1946 
Q 2227 1907 2233 1856 
Q 2240 1805 2246 1779 
Q 1670 1626 1324 1533 
Q 979 1440 800 1385 
Q 621 1331 550 1302 
Q 480 1274 442 1248 
z
M 403 2765 
Q 397 2790 384 2828 
Q 371 2867 358 2908 
Q 346 2950 333 2976 
Q 403 2989 492 3104 
Q 582 3219 685 3386 
Q 742 3475 854 3667 
Q 966 3859 1104 4121 
Q 1242 4384 1382 4685 
Q 1523 4986 1632 5286 
L 1818 5203 
Q 1645 4787 1443 4371 
Q 1242 3955 1021 3580 
Q 800 3206 576 2906 
L 576 2899 
Q 576 2899 550 2886 
Q 525 2874 489 2854 
Q 454 2835 428 2812 
Q 403 2790 403 2765 
z
M 403 2765 
L 403 2944 
L 544 3027 
L 1715 3174 
Q 1709 3136 1712 3085 
Q 1715 3034 1715 3002 
Q 1312 2944 1065 2905 
Q 819 2867 684 2841 
Q 550 2816 492 2800 
Q 435 2784 403 2765 
z
M 339 243 
Q 698 365 1197 544 
Q 1696 723 2227 909 
L 2253 730 
Q 1754 550 1264 374 
Q 774 198 397 58 
L 339 243 
z
" transform="scale(0.015625)"/>
      <path id="NotoSansSC-Thin-4e70" d="M 3456 4077 
L 3654 4077 
Q 3635 3283 3574 2640 
Q 3514 1997 3347 1491 
Q 3181 986 2848 605 
Q 2515 224 1958 -41 
Q 1402 -307 550 -474 
Q 544 -435 509 -384 
Q 474 -333 442 -301 
Q 1280 -147 1827 105 
Q 2374 358 2694 723 
Q 3014 1088 3171 1577 
Q 3328 2067 3382 2688 
Q 3437 3309 3456 4077 
z
M 467 1766 
L 5946 1766 
L 5946 1574 
L 467 1574 
L 467 1766 
z
M 3469 966 
L 3584 1094 
Q 4013 890 4432 653 
Q 4851 416 5222 176 
Q 5594 -64 5869 -282 
L 5734 -416 
Q 5466 -198 5101 38 
Q 4736 275 4320 512 
Q 3904 749 3469 966 
z
M 1542 3942 
L 1645 4070 
Q 1869 3987 2102 3868 
Q 2336 3750 2541 3622 
Q 2746 3494 2874 3379 
L 2771 3226 
Q 2643 3341 2438 3472 
Q 2234 3603 2000 3728 
Q 1766 3853 1542 3942 
z
M 864 2970 
L 966 3104 
Q 1197 3021 1443 2905 
Q 1690 2790 1904 2665 
Q 2118 2541 2253 2426 
L 2157 2272 
Q 2016 2387 1801 2515 
Q 1587 2643 1344 2761 
Q 1101 2880 864 2970 
z
M 781 4819 
L 5664 4819 
L 5664 4627 
L 781 4627 
L 781 4819 
z
M 5594 4832 
L 5638 4832 
L 5683 4845 
L 5811 4787 
Q 5651 4435 5478 4064 
Q 5306 3693 5139 3450 
L 4986 3539 
Q 5088 3693 5197 3901 
Q 5306 4109 5408 4336 
Q 5510 4563 5594 4781 
L 5594 4832 
z
" transform="scale(0.015625)"/>
      <path id="NotoSansSC-Thin-5165" d="M 2042 4922 
L 2157 5082 
Q 2598 4774 2908 4406 
Q 3219 4038 3446 3632 
Q 3674 3226 3866 2803 
Q 4058 2381 4256 1961 
Q 4454 1542 4697 1155 
Q 4941 768 5273 429 
Q 5606 90 6080 -179 
Q 6061 -205 6038 -240 
Q 6016 -275 6000 -310 
Q 5984 -346 5978 -378 
Q 5498 -109 5155 236 
Q 4813 582 4563 979 
Q 4314 1376 4109 1798 
Q 3904 2221 3712 2649 
Q 3520 3078 3293 3484 
Q 3066 3891 2765 4259 
Q 2464 4627 2042 4922 
z
M 3098 3866 
L 3302 3827 
Q 3072 2803 2704 2003 
Q 2336 1203 1795 601 
Q 1254 0 499 -435 
Q 480 -416 448 -390 
Q 416 -365 384 -336 
Q 352 -307 320 -288 
Q 1466 320 2118 1357 
Q 2771 2394 3098 3866 
z
" transform="scale(0.015625)"/>
     </defs>
     <use xlink:href="#NotoSansSC-Thin-8fde"/>
     <use xlink:href="#NotoSansSC-Thin-7eed" transform="translate(99.999985 0)"/>
     <use xlink:href="#NotoSansSC-Thin-4e70" transform="translate(199.999969 0)"/>
     <use xlink:href="#NotoSansSC-Thin-5165" transform="translate(299.999954 0)"/>
    </g>
   </g>
   <g id="text_16">
    <!-- COMEX黄金期货走势 ($/oz) -->
    <g style="fill: #1e293b" transform="translate(116.084219 17.888298) scale(0.13 -0.13)">
     <defs>
      <path id="NotoSansSC-Thin-43" d="M 2317 -83 
Q 1888 -83 1536 86 
Q 1184 256 928 576 
Q 672 896 534 1341 
Q 397 1786 397 2336 
Q 397 2886 537 3328 
Q 678 3770 934 4083 
Q 1190 4397 1552 4563 
Q 1914 4730 2355 4730 
Q 2758 4730 3059 4560 
Q 3360 4390 3539 4179 
L 3392 4019 
Q 3206 4237 2944 4371 
Q 2682 4506 2355 4506 
Q 1824 4506 1440 4240 
Q 1056 3974 851 3488 
Q 646 3002 646 2336 
Q 646 1670 851 1177 
Q 1056 685 1433 413 
Q 1811 141 2330 141 
Q 2694 141 2982 288 
Q 3270 435 3533 730 
L 3680 576 
Q 3418 269 3094 93 
Q 2771 -83 2317 -83 
z
" transform="scale(0.015625)"/>
      <path id="NotoSansSC-Thin-4f" d="M 2285 -83 
Q 1734 -83 1308 217 
Q 883 518 640 1062 
Q 397 1606 397 2336 
Q 397 3072 640 3606 
Q 883 4141 1308 4435 
Q 1734 4730 2285 4730 
Q 2835 4730 3260 4435 
Q 3686 4141 3929 3606 
Q 4173 3072 4173 2336 
Q 4173 1606 3929 1062 
Q 3686 518 3260 217 
Q 2835 -83 2285 -83 
z
M 2285 141 
Q 2778 141 3146 413 
Q 3514 685 3718 1177 
Q 3923 1670 3923 2336 
Q 3923 3002 3718 3488 
Q 3514 3974 3146 4240 
Q 2778 4506 2285 4506 
Q 1798 4506 1427 4240 
Q 1056 3974 851 3488 
Q 646 3002 646 2336 
Q 646 1670 851 1177 
Q 1056 685 1427 413 
Q 1798 141 2285 141 
z
" transform="scale(0.015625)"/>
      <path id="NotoSansSC-Thin-4d" d="M 704 0 
L 704 4646 
L 1082 4646 
L 2074 1843 
Q 2170 1587 2266 1321 
Q 2362 1056 2458 794 
L 2483 794 
Q 2579 1056 2668 1321 
Q 2758 1587 2848 1843 
L 3846 4646 
L 4224 4646 
L 4224 0 
L 3987 0 
L 3987 3213 
Q 3987 3398 3990 3606 
Q 3994 3814 4000 4028 
Q 4006 4243 4013 4429 
L 3987 4429 
L 3629 3405 
L 2586 518 
L 2336 518 
L 1286 3405 
L 922 4429 
L 896 4429 
Q 909 4243 915 4028 
Q 922 3814 925 3606 
Q 928 3398 928 3213 
L 928 0 
L 704 0 
z
" transform="scale(0.015625)"/>
      <path id="NotoSansSC-Thin-45" d="M 704 0 
L 704 4646 
L 3200 4646 
L 3200 4435 
L 941 4435 
L 941 2586 
L 2835 2586 
L 2835 2374 
L 941 2374 
L 941 211 
L 3270 211 
L 3270 0 
L 704 0 
z
" transform="scale(0.015625)"/>
      <path id="NotoSansSC-Thin-58" d="M 128 0 
L 1536 2406 
L 224 4646 
L 486 4646 
L 1286 3226 
Q 1382 3066 1465 2928 
Q 1549 2790 1670 2598 
L 1696 2598 
Q 1805 2790 1878 2928 
Q 1952 3066 2048 3226 
L 2861 4646 
L 3104 4646 
L 1792 2394 
L 3200 0 
L 2944 0 
L 2093 1485 
Q 1997 1651 1888 1830 
Q 1779 2010 1651 2221 
L 1626 2221 
Q 1510 2010 1411 1830 
Q 1312 1651 1216 1485 
L 371 0 
L 128 0 
z
" transform="scale(0.015625)"/>
      <path id="NotoSansSC-Thin-9ec4" d="M 378 3629 
L 6029 3629 
L 6029 3437 
L 378 3437 
L 378 3629 
z
M 851 4653 
L 5619 4653 
L 5619 4467 
L 851 4467 
L 851 4653 
z
M 2061 5318 
L 2246 5318 
L 2246 3539 
L 2061 3539 
L 2061 5318 
z
M 4173 5318 
L 4358 5318 
L 4358 3539 
L 4173 3539 
L 4173 5318 
z
M 3091 3546 
L 3283 3546 
L 3283 806 
L 3091 806 
L 3091 3546 
z
M 1318 1683 
L 1318 902 
L 5101 902 
L 5101 1683 
L 1318 1683 
z
M 1318 2637 
L 1318 1869 
L 5101 1869 
L 5101 2637 
L 1318 2637 
z
M 1133 2822 
L 5286 2822 
L 5286 717 
L 1133 717 
L 1133 2822 
z
M 3917 301 
L 4051 429 
Q 4416 314 4774 179 
Q 5133 45 5449 -83 
Q 5766 -211 6003 -326 
L 5837 -461 
Q 5613 -346 5305 -221 
Q 4998 -96 4643 38 
Q 4288 173 3917 301 
z
M 2323 448 
L 2534 346 
Q 2278 186 1942 35 
Q 1606 -115 1251 -243 
Q 896 -371 576 -467 
Q 557 -435 518 -387 
Q 480 -339 448 -314 
Q 768 -224 1123 -99 
Q 1478 26 1798 170 
Q 2118 314 2323 448 
z
" transform="scale(0.015625)"/>
      <path id="NotoSansSC-Thin-91d1" d="M 1613 3334 
L 4806 3334 
L 4806 3142 
L 1613 3142 
L 1613 3334 
z
M 717 2067 
L 5715 2067 
L 5715 1875 
L 717 1875 
L 717 2067 
z
M 454 -32 
L 5958 -32 
L 5958 -218 
L 454 -218 
L 454 -32 
z
M 3085 3270 
L 3277 3270 
L 3277 -147 
L 3085 -147 
L 3085 3270 
z
M 1382 1478 
L 1549 1536 
Q 1683 1344 1808 1117 
Q 1933 890 2035 675 
Q 2138 461 2189 294 
L 2016 224 
Q 1965 390 1865 608 
Q 1766 826 1641 1056 
Q 1517 1286 1382 1478 
z
M 4826 1555 
L 5005 1466 
Q 4832 1152 4614 803 
Q 4397 454 4205 211 
L 4058 288 
Q 4186 454 4326 678 
Q 4467 902 4601 1136 
Q 4736 1370 4826 1555 
z
M 3290 5107 
Q 3526 4806 3859 4512 
Q 4192 4218 4579 3952 
Q 4966 3686 5369 3475 
Q 5773 3264 6144 3130 
Q 6118 3110 6092 3081 
Q 6067 3053 6041 3024 
Q 6016 2995 5997 2963 
Q 5632 3110 5232 3331 
Q 4832 3552 4441 3827 
Q 4051 4102 3712 4409 
Q 3373 4717 3130 5024 
L 3290 5107 
z
M 3277 5363 
L 3443 5280 
Q 3117 4794 2633 4346 
Q 2150 3898 1577 3542 
Q 1005 3187 397 2957 
Q 371 2995 332 3046 
Q 294 3098 256 3123 
Q 858 3341 1434 3683 
Q 2010 4026 2490 4458 
Q 2970 4890 3277 5363 
z
" transform="scale(0.015625)"/>
      <path id="NotoSansSC-Thin-671f" d="M 3885 4966 
L 5779 4966 
L 5779 4781 
L 3885 4781 
L 3885 4966 
z
M 3885 3475 
L 5779 3475 
L 5779 3290 
L 3885 3290 
L 3885 3475 
z
M 3872 1952 
L 5798 1952 
L 5798 1766 
L 3872 1766 
L 3872 1952 
z
M 5683 4966 
L 5869 4966 
L 5869 -70 
Q 5869 -205 5827 -272 
Q 5786 -339 5677 -371 
Q 5574 -397 5360 -403 
Q 5146 -410 4800 -410 
Q 4794 -365 4768 -307 
Q 4742 -250 4717 -205 
Q 5018 -211 5248 -211 
Q 5478 -211 5555 -205 
Q 5626 -198 5654 -172 
Q 5683 -147 5683 -70 
L 5683 4966 
z
M 3802 4966 
L 3987 4966 
L 3987 2669 
Q 3987 2310 3964 1900 
Q 3942 1491 3875 1068 
Q 3808 646 3673 246 
Q 3539 -154 3309 -493 
Q 3296 -474 3267 -451 
Q 3238 -429 3206 -406 
Q 3174 -384 3149 -378 
Q 3450 70 3587 598 
Q 3725 1126 3763 1664 
Q 3802 2202 3802 2669 
L 3802 4966 
z
M 397 4365 
L 3392 4365 
L 3392 4179 
L 397 4179 
L 397 4365 
z
M 1062 3418 
L 2784 3418 
L 2784 3232 
L 1062 3232 
L 1062 3418 
z
M 1069 2387 
L 2790 2387 
L 2790 2195 
L 1069 2195 
L 1069 2387 
z
M 301 1331 
L 3437 1331 
L 3437 1146 
L 301 1146 
L 301 1331 
z
M 979 5235 
L 1165 5235 
L 1165 1229 
L 979 1229 
L 979 5235 
z
M 2694 5235 
L 2880 5235 
L 2880 1229 
L 2694 1229 
L 2694 5235 
z
M 1286 915 
L 1478 870 
Q 1306 499 1050 150 
Q 794 -198 531 -442 
Q 518 -429 486 -406 
Q 454 -384 422 -361 
Q 390 -339 365 -326 
Q 646 -90 889 236 
Q 1133 563 1286 915 
z
M 2176 806 
L 2336 883 
Q 2464 736 2585 560 
Q 2707 384 2809 217 
Q 2912 51 2970 -83 
L 2803 -179 
Q 2752 -45 2649 124 
Q 2547 294 2422 476 
Q 2298 659 2176 806 
z
" transform="scale(0.015625)"/>
      <path id="NotoSansSC-Thin-8d27" d="M 3085 2112 
L 3277 2112 
L 3277 1510 
Q 3277 1318 3232 1113 
Q 3187 909 3043 697 
Q 2899 486 2604 284 
Q 2310 83 1817 -99 
Q 1325 -282 576 -435 
Q 570 -416 554 -387 
Q 538 -358 518 -326 
Q 499 -294 480 -275 
Q 1210 -128 1686 45 
Q 2163 218 2444 403 
Q 2726 589 2864 781 
Q 3002 973 3043 1158 
Q 3085 1344 3085 1510 
L 3085 2112 
z
M 3341 550 
L 3456 685 
Q 3776 589 4118 470 
Q 4461 352 4797 221 
Q 5133 90 5427 -41 
Q 5722 -173 5933 -288 
L 5818 -442 
Q 5606 -326 5315 -195 
Q 5024 -64 4688 70 
Q 4352 205 4006 329 
Q 3661 454 3341 550 
z
M 1408 2630 
L 5094 2630 
L 5094 614 
L 4909 614 
L 4909 2438 
L 1594 2438 
L 1594 614 
L 1408 614 
L 1408 2630 
z
M 5626 5043 
L 5798 4915 
Q 5421 4710 4870 4528 
Q 4320 4346 3702 4198 
Q 3085 4051 2490 3936 
Q 2483 3968 2464 4006 
Q 2445 4045 2426 4077 
Q 2861 4166 3321 4272 
Q 3782 4378 4214 4499 
Q 4646 4621 5011 4758 
Q 5376 4896 5626 5043 
z
M 3462 5286 
L 3654 5286 
L 3654 3488 
Q 3654 3366 3728 3328 
Q 3802 3290 4058 3290 
Q 4122 3290 4304 3290 
Q 4486 3290 4710 3290 
Q 4934 3290 5126 3290 
Q 5318 3290 5402 3290 
Q 5542 3290 5609 3338 
Q 5677 3386 5705 3536 
Q 5734 3686 5747 4000 
Q 5786 3974 5837 3955 
Q 5888 3936 5933 3923 
Q 5920 3590 5875 3411 
Q 5830 3232 5724 3165 
Q 5619 3098 5408 3098 
Q 5376 3098 5241 3098 
Q 5107 3098 4924 3098 
Q 4742 3098 4560 3098 
Q 4378 3098 4243 3098 
Q 4109 3098 4077 3098 
Q 3840 3098 3705 3126 
Q 3571 3155 3516 3238 
Q 3462 3322 3462 3488 
L 3462 5286 
z
M 2266 5325 
L 2438 5261 
Q 2189 4947 1859 4659 
Q 1530 4371 1171 4128 
Q 813 3885 461 3693 
Q 448 3712 419 3737 
Q 390 3763 358 3788 
Q 326 3814 294 3827 
Q 659 4006 1024 4243 
Q 1389 4480 1709 4755 
Q 2029 5030 2266 5325 
z
M 1555 4538 
L 1747 4723 
L 1747 4717 
L 1747 2950 
L 1555 2950 
L 1555 4538 
z
" transform="scale(0.015625)"/>
      <path id="NotoSansSC-Thin-8d70" d="M 3200 1709 
L 5523 1709 
L 5523 1517 
L 3200 1517 
L 3200 1709 
z
M 1555 1632 
Q 1747 1062 2044 707 
Q 2342 352 2739 160 
Q 3136 -32 3616 -102 
Q 4096 -173 4653 -173 
Q 4691 -173 4832 -173 
Q 4973 -173 5165 -173 
Q 5357 -173 5552 -173 
Q 5747 -173 5900 -173 
Q 6054 -173 6112 -173 
Q 6093 -198 6073 -236 
Q 6054 -275 6041 -310 
Q 6029 -346 6022 -371 
L 5722 -371 
L 4653 -371 
Q 4058 -371 3552 -294 
Q 3046 -218 2636 -13 
Q 2227 192 1916 566 
Q 1606 941 1402 1542 
L 1555 1632 
z
M 998 4467 
L 5491 4467 
L 5491 4282 
L 998 4282 
L 998 4467 
z
M 454 3136 
L 5933 3136 
L 5933 2950 
L 454 2950 
L 454 3136 
z
M 3091 5299 
L 3283 5299 
L 3283 3066 
L 3091 3066 
L 3091 5299 
z
M 3098 3110 
L 3290 3110 
L 3290 -102 
L 3098 -58 
L 3098 3110 
z
M 1555 2438 
L 1766 2413 
Q 1709 1894 1558 1350 
Q 1408 806 1139 329 
Q 870 -147 442 -474 
Q 429 -454 403 -432 
Q 378 -410 352 -384 
Q 326 -358 301 -346 
Q 723 -26 982 438 
Q 1242 902 1376 1427 
Q 1510 1952 1555 2438 
z
" transform="scale(0.015625)"/>
      <path id="NotoSansSC-Thin-52bf" d="M 371 3392 
Q 653 3450 1024 3520 
Q 1395 3590 1820 3680 
Q 2246 3770 2682 3859 
L 2694 3661 
Q 2093 3539 1494 3414 
Q 896 3290 442 3194 
L 371 3392 
z
M 454 4614 
L 2662 4614 
L 2662 4429 
L 454 4429 
L 454 4614 
z
M 1530 5318 
L 1722 5318 
L 1722 2554 
Q 1722 2445 1686 2393 
Q 1651 2342 1562 2317 
Q 1478 2291 1302 2284 
Q 1126 2278 819 2285 
Q 813 2317 790 2368 
Q 768 2419 742 2451 
Q 998 2445 1184 2445 
Q 1370 2445 1427 2451 
Q 1530 2451 1530 2547 
L 1530 5318 
z
M 2790 4627 
L 5197 4627 
L 5197 4442 
L 2790 4442 
L 2790 4627 
z
M 2848 3872 
L 2970 4000 
Q 3290 3821 3635 3593 
Q 3981 3366 4291 3148 
Q 4602 2931 4800 2758 
L 4678 2605 
Q 4480 2778 4173 3002 
Q 3866 3226 3517 3456 
Q 3168 3686 2848 3872 
z
M 5101 4627 
L 5293 4627 
Q 5286 3866 5305 3389 
Q 5325 2912 5414 2691 
Q 5504 2470 5696 2470 
Q 5805 2470 5843 2592 
Q 5882 2714 5901 3066 
Q 5946 3040 5990 3017 
Q 6035 2995 6080 2982 
Q 6067 2707 6022 2553 
Q 5978 2400 5898 2339 
Q 5818 2278 5690 2278 
Q 5466 2278 5341 2435 
Q 5216 2592 5165 2893 
Q 5114 3194 5107 3629 
Q 5101 4064 5101 4627 
z
M 3923 5318 
L 4109 5318 
Q 4090 4691 4026 4204 
Q 3962 3718 3814 3350 
Q 3667 2982 3398 2720 
Q 3130 2458 2694 2278 
Q 2675 2310 2633 2348 
Q 2592 2387 2560 2406 
Q 2982 2579 3244 2828 
Q 3507 3078 3648 3430 
Q 3789 3782 3846 4249 
Q 3904 4717 3923 5318 
z
M 640 1728 
L 5299 1728 
L 5299 1542 
L 640 1542 
L 640 1728 
z
M 5242 1728 
L 5440 1728 
Q 5440 1728 5437 1705 
Q 5434 1683 5434 1654 
Q 5434 1626 5427 1606 
Q 5363 1011 5299 636 
Q 5235 262 5161 64 
Q 5088 -134 4986 -224 
Q 4915 -288 4832 -310 
Q 4749 -333 4608 -339 
Q 4474 -346 4202 -336 
Q 3930 -326 3622 -301 
Q 3616 -256 3603 -205 
Q 3590 -154 3558 -115 
Q 3891 -141 4179 -150 
Q 4467 -160 4570 -160 
Q 4678 -160 4736 -150 
Q 4794 -141 4838 -102 
Q 4922 -32 4992 163 
Q 5062 358 5123 729 
Q 5184 1101 5242 1690 
L 5242 1728 
z
M 2899 2253 
L 3098 2253 
Q 3014 1754 2854 1331 
Q 2694 909 2400 566 
Q 2106 224 1632 -32 
Q 1158 -288 448 -442 
Q 435 -410 403 -358 
Q 371 -307 339 -282 
Q 896 -166 1302 16 
Q 1709 198 1987 432 
Q 2266 666 2448 950 
Q 2630 1235 2736 1561 
Q 2842 1888 2899 2253 
z
" transform="scale(0.015625)"/>
      <path id="NotoSansSC-Thin-20" transform="scale(0.015625)"/>
      <path id="NotoSansSC-Thin-28" d="M 1562 -1222 
Q 1133 -525 883 252 
Q 634 1030 634 1958 
Q 634 2886 883 3667 
Q 1133 4448 1562 5146 
L 1696 5056 
Q 1274 4390 1059 3596 
Q 845 2803 845 1958 
Q 845 1114 1059 320 
Q 1274 -474 1696 -1139 
L 1562 -1222 
z
" transform="scale(0.015625)"/>
      <path id="NotoSansSC-Thin-6f" d="M 1875 -83 
Q 1472 -83 1129 125 
Q 787 333 582 726 
Q 378 1120 378 1677 
Q 378 2246 582 2643 
Q 787 3040 1129 3248 
Q 1472 3456 1875 3456 
Q 2176 3456 2448 3337 
Q 2720 3219 2928 2992 
Q 3136 2765 3254 2432 
Q 3373 2099 3373 1677 
Q 3373 1120 3165 726 
Q 2957 333 2617 125 
Q 2278 -83 1875 -83 
z
M 1875 128 
Q 2234 128 2518 323 
Q 2803 518 2969 867 
Q 3136 1216 3136 1677 
Q 3136 2144 2969 2496 
Q 2803 2848 2518 3046 
Q 2234 3245 1875 3245 
Q 1517 3245 1232 3046 
Q 947 2848 784 2496 
Q 621 2144 621 1677 
Q 621 1216 784 867 
Q 947 518 1232 323 
Q 1517 128 1875 128 
z
" transform="scale(0.015625)"/>
      <path id="NotoSansSC-Thin-7a" d="M 186 0 
L 186 122 
L 2246 3162 
L 410 3162 
L 410 3373 
L 2547 3373 
L 2547 3245 
L 486 211 
L 2618 211 
L 2618 0 
L 186 0 
z
" transform="scale(0.015625)"/>
      <path id="NotoSansSC-Thin-29" d="M 352 -1222 
L 211 -1139 
Q 634 -474 851 320 
Q 1069 1114 1069 1958 
Q 1069 2803 851 3596 
Q 634 4390 211 5056 
L 352 5146 
Q 787 4448 1033 3667 
Q 1280 2886 1280 1958 
Q 1280 1030 1033 252 
Q 787 -525 352 -1222 
z
" transform="scale(0.015625)"/>
     </defs>
     <use xlink:href="#NotoSansSC-Thin-43"/>
     <use xlink:href="#NotoSansSC-Thin-4f" transform="translate(61.899994 0)"/>
     <use xlink:href="#NotoSansSC-Thin-4d" transform="translate(133.299988 0)"/>
     <use xlink:href="#NotoSansSC-Thin-45" transform="translate(210.299973 0)"/>
     <use xlink:href="#NotoSansSC-Thin-58" transform="translate(266.499969 0)"/>
     <use xlink:href="#NotoSansSC-Thin-9ec4" transform="translate(318.399963 0)"/>
     <use xlink:href="#NotoSansSC-Thin-91d1" transform="translate(418.399948 0)"/>
     <use xlink:href="#NotoSansSC-Thin-671f" transform="translate(518.399933 0)"/>
     <use xlink:href="#NotoSansSC-Thin-8d27" transform="translate(618.399918 0)"/>
     <use xlink:href="#NotoSansSC-Thin-8d70" transform="translate(718.399902 0)"/>
     <use xlink:href="#NotoSansSC-Thin-52bf" transform="translate(818.399887 0)"/>
     <use xlink:href="#NotoSansSC-Thin-20" transform="translate(918.399872 0)"/>
     <use xlink:href="#NotoSansSC-Thin-28" transform="translate(940.399857 0)"/>
     <use xlink:href="#NotoSansSC-Thin-24" transform="translate(970.29985 0)"/>
     <use xlink:href="#NotoSansSC-Thin-2f" transform="translate(1022.399841 0)"/>
     <use xlink:href="#NotoSansSC-Thin-6f" transform="translate(1061.999832 0)"/>
     <use xlink:href="#NotoSansSC-Thin-7a" transform="translate(1120.599823 0)"/>
     <use xlink:href="#NotoSansSC-Thin-29" transform="translate(1164.399811 0)"/>
    </g>
   </g>
  </g>
 </g>
 <defs>
  <clipPath id="p27d9480bc3">
   <rect x="42.119531" y="29.888298" width="303.19" height="149.705"/>
  </clipPath>
 </defs>
</svg>
