<?xml version="1.0" encoding="utf-8" standalone="no"?>
<!DOCTYPE svg PUBLIC "-//W3C//DTD SVG 1.1//EN"
  "http://www.w3.org/Graphics/SVG/1.1/DTD/svg11.dtd">
<svg xmlns:xlink="http://www.w3.org/1999/xlink" width="364.452656pt" height="281.143562pt" viewBox="0 0 364.452656 281.143562" xmlns="http://www.w3.org/2000/svg" version="1.1">
 <metadata>
  <rdf:RDF xmlns:dc="http://purl.org/dc/elements/1.1/" xmlns:cc="http://creativecommons.org/ns#" xmlns:rdf="http://www.w3.org/1999/02/22-rdf-syntax-ns#">
   <cc:Work>
    <dc:type rdf:resource="http://purl.org/dc/dcmitype/StillImage"/>
    <dc:date>2026-06-14T16:28:46.665031</dc:date>
    <dc:format>image/svg+xml</dc:format>
    <dc:creator>
     <cc:Agent>
      <dc:title>Matplotlib v3.10.9, https://matplotlib.org/</dc:title>
     </cc:Agent>
    </dc:creator>
   </cc:Work>
  </rdf:RDF>
 </metadata>
 <defs>
  <style type="text/css">*{stroke-linejoin: round; stroke-linecap: butt}</style>
 </defs>
 <g id="figure_1">
  <g id="patch_1">
   <path d="M 0 281.143562 
L 364.452656 281.143562 
L 364.452656 0 
L 0 0 
z
" style="fill: #ffffff"/>
  </g>
  <g id="axes_1">
   <g id="patch_2">
    <path d="M 38.832656 255.295562 
L 353.652656 255.295562 
L 353.652656 80.191562 
L 38.832656 80.191562 
z
" style="fill: #ffffff"/>
   </g>
   <g id="patch_3">
    <path d="M 38.832656 177.471562 
L 353.652656 177.471562 
L 353.652656 115.212362 
L 38.832656 115.212362 
z
" clip-path="url(#p4b0ee8d592)" style="fill: #dc2626; opacity: 0.06; stroke: #dc2626; stroke-width: 1.5; stroke-linejoin: miter"/>
   </g>
   <g id="patch_4">
    <path d="M 38.832656 235.839562 
L 353.652656 235.839562 
L 353.652656 196.927562 
L 38.832656 196.927562 
z
" clip-path="url(#p4b0ee8d592)" style="fill: #16a34a; opacity: 0.06; stroke: #16a34a; stroke-width: 1.5; stroke-linejoin: miter"/>
   </g>
   <g id="matplotlib.axis_1">
    <g id="xtick_1">
     <g id="line2d_1"/>
     <g id="text_1">
      <!-- 25/1 -->
      <g style="fill: #94a3b8" transform="translate(42.69 265.989937) scale(0.09 -0.09)">
       <defs>
        <path id="MicrosoftYaHei-Bold-32" d="M 1500 841 
L 3553 841 
L 3553 0 
L 334 0 
L 334 359 
Q 334 738 473 1050 
Q 613 1363 856 1633 
Q 1100 1903 1613 2266 
Q 2081 2616 2268 2886 
Q 2456 3156 2456 3459 
Q 2456 4113 1744 4113 
Q 1119 4113 550 3613 
L 550 4513 
Q 1184 4922 1975 4922 
Q 2700 4922 3122 4551 
Q 3544 4181 3544 3531 
Q 3544 3169 3422 2876 
Q 3300 2584 3069 2328 
Q 2838 2072 2328 1713 
Q 1838 1363 1669 1172 
Q 1500 981 1500 841 
z
" transform="scale(0.015625)"/>
        <path id="MicrosoftYaHei-Bold-35" d="M 541 125 
L 541 997 
Q 1044 691 1613 691 
Q 2041 691 2283 902 
Q 2525 1113 2525 1472 
Q 2525 2225 1494 2225 
Q 1113 2225 616 2169 
L 797 4841 
L 3359 4841 
L 3359 4009 
L 1613 4009 
L 1544 2991 
Q 1803 3013 2022 3013 
Q 2731 3013 3142 2625 
Q 3553 2238 3553 1575 
Q 3553 844 3056 380 
Q 2559 -84 1706 -84 
Q 1016 -84 541 125 
z
" transform="scale(0.015625)"/>
        <path id="MicrosoftYaHei-Bold-2f" d="M 3100 4841 
L 747 -803 
L -156 -803 
L 2188 4841 
L 3100 4841 
z
" transform="scale(0.015625)"/>
        <path id="MicrosoftYaHei-Bold-31" d="M 2716 4947 
L 2716 0 
L 1700 0 
L 1700 3809 
Q 1513 3647 1188 3517 
Q 863 3388 591 3356 
L 591 4222 
Q 1447 4472 2072 4947 
L 2716 4947 
z
" transform="scale(0.015625)"/>
       </defs>
       <use xlink:href="#MicrosoftYaHei-Bold-32"/>
       <use xlink:href="#MicrosoftYaHei-Bold-35" transform="translate(61.669922 0)"/>
       <use xlink:href="#MicrosoftYaHei-Bold-2f" transform="translate(123.339844 0)"/>
       <use xlink:href="#MicrosoftYaHei-Bold-31" transform="translate(170.605469 0)"/>
      </g>
     </g>
    </g>
    <g id="xtick_2">
     <g id="line2d_2"/>
     <g id="text_2">
      <!-- 3 -->
      <g style="fill: #94a3b8" transform="translate(86.142422 265.989937) scale(0.09 -0.09)">
       <defs>
        <path id="MicrosoftYaHei-Bold-33" d="M 494 1053 
Q 978 691 1625 691 
Q 2034 691 2275 872 
Q 2516 1053 2516 1388 
Q 2516 1731 2230 1912 
Q 1944 2094 1428 2094 
L 997 2094 
L 997 2872 
L 1394 2872 
Q 2369 2872 2369 3528 
Q 2369 4147 1622 4147 
Q 1134 4147 675 3828 
L 675 4663 
Q 1175 4922 1853 4922 
Q 2541 4922 2969 4605 
Q 3397 4288 3397 3725 
Q 3397 2775 2434 2531 
L 2434 2516 
Q 2941 2459 3244 2145 
Q 3547 1831 3547 1381 
Q 3547 691 3042 303 
Q 2538 -84 1697 -84 
Q 950 -84 494 163 
L 494 1053 
z
" transform="scale(0.015625)"/>
       </defs>
       <use xlink:href="#MicrosoftYaHei-Bold-33"/>
      </g>
     </g>
    </g>
    <g id="xtick_3">
     <g id="line2d_3"/>
     <g id="text_3">
      <!-- 5 -->
      <g style="fill: #94a3b8" transform="translate(121.917422 265.989937) scale(0.09 -0.09)">
       <use xlink:href="#MicrosoftYaHei-Bold-35"/>
      </g>
     </g>
    </g>
    <g id="xtick_4">
     <g id="line2d_4"/>
     <g id="text_4">
      <!-- 7 -->
      <g style="fill: #94a3b8" transform="translate(157.692422 265.989937) scale(0.09 -0.09)">
       <defs>
        <path id="MicrosoftYaHei-Bold-37" d="M 3675 4225 
Q 3088 3172 2798 2528 
Q 2509 1884 2328 1275 
Q 2147 666 2050 0 
L 966 0 
Q 1122 947 1517 1917 
Q 1913 2888 2609 4009 
L 300 4009 
L 300 4841 
L 3675 4841 
L 3675 4225 
z
" transform="scale(0.015625)"/>
       </defs>
       <use xlink:href="#MicrosoftYaHei-Bold-37"/>
      </g>
     </g>
    </g>
    <g id="xtick_5">
     <g id="line2d_5"/>
     <g id="text_5">
      <!-- 9 -->
      <g style="fill: #94a3b8" transform="translate(193.467422 265.989937) scale(0.09 -0.09)">
       <defs>
        <path id="MicrosoftYaHei-Bold-39" d="M 544 941 
Q 931 691 1456 691 
Q 2628 691 2653 2216 
L 2634 2222 
Q 2316 1731 1650 1731 
Q 1047 1731 658 2154 
Q 269 2578 269 3222 
Q 269 3978 737 4450 
Q 1206 4922 1959 4922 
Q 2744 4922 3191 4325 
Q 3638 3728 3638 2659 
Q 3638 1391 3098 653 
Q 2559 -84 1547 -84 
Q 975 -84 544 100 
L 544 941 
z
M 1259 3313 
Q 1259 2928 1445 2709 
Q 1631 2491 1953 2491 
Q 2241 2491 2427 2700 
Q 2613 2909 2613 3219 
Q 2613 3591 2427 3869 
Q 2241 4147 1928 4147 
Q 1625 4147 1442 3906 
Q 1259 3666 1259 3313 
z
" transform="scale(0.015625)"/>
       </defs>
       <use xlink:href="#MicrosoftYaHei-Bold-39"/>
      </g>
     </g>
    </g>
    <g id="xtick_6">
     <g id="line2d_6"/>
     <g id="text_6">
      <!-- 11 -->
      <g style="fill: #94a3b8" transform="translate(226.467188 265.989937) scale(0.09 -0.09)">
       <use xlink:href="#MicrosoftYaHei-Bold-31"/>
       <use xlink:href="#MicrosoftYaHei-Bold-31" transform="translate(61.669922 0)"/>
      </g>
     </g>
    </g>
    <g id="xtick_7">
     <g id="line2d_7"/>
     <g id="text_7">
      <!-- 26/1 -->
      <g style="fill: #94a3b8" transform="translate(257.34 265.989937) scale(0.09 -0.09)">
       <defs>
        <path id="MicrosoftYaHei-Bold-36" d="M 3378 3938 
Q 3009 4147 2575 4147 
Q 2016 4147 1680 3708 
Q 1344 3269 1344 2572 
L 1363 2572 
Q 1709 3103 2391 3103 
Q 3000 3103 3358 2686 
Q 3716 2269 3716 1600 
Q 3716 869 3250 392 
Q 2784 -84 2059 -84 
Q 1228 -84 786 516 
Q 344 1116 344 2159 
Q 344 3388 917 4155 
Q 1491 4922 2513 4922 
Q 3063 4922 3378 4791 
L 3378 3938 
z
M 1378 1591 
Q 1378 1216 1565 953 
Q 1753 691 2059 691 
Q 2369 691 2547 931 
Q 2725 1172 2725 1534 
Q 2725 2350 2053 2350 
Q 1750 2350 1564 2134 
Q 1378 1919 1378 1591 
z
" transform="scale(0.015625)"/>
       </defs>
       <use xlink:href="#MicrosoftYaHei-Bold-32"/>
       <use xlink:href="#MicrosoftYaHei-Bold-36" transform="translate(61.669922 0)"/>
       <use xlink:href="#MicrosoftYaHei-Bold-2f" transform="translate(123.339844 0)"/>
       <use xlink:href="#MicrosoftYaHei-Bold-31" transform="translate(170.605469 0)"/>
      </g>
     </g>
    </g>
    <g id="xtick_8">
     <g id="line2d_8"/>
     <g id="text_8">
      <!-- 3 -->
      <g style="fill: #94a3b8" transform="translate(300.792422 265.989937) scale(0.09 -0.09)">
       <use xlink:href="#MicrosoftYaHei-Bold-33"/>
      </g>
     </g>
    </g>
    <g id="xtick_9">
     <g id="line2d_9"/>
     <g id="text_9">
      <!-- 5 -->
      <g style="fill: #94a3b8" transform="translate(336.567422 265.989937) scale(0.09 -0.09)">
       <use xlink:href="#MicrosoftYaHei-Bold-35"/>
      </g>
     </g>
    </g>
   </g>
   <g id="matplotlib.axis_2">
    <g id="ytick_1">
     <g id="line2d_10">
      <path d="M 38.832656 255.295562 
L 353.652656 255.295562 
" clip-path="url(#p4b0ee8d592)" style="fill: none; stroke: #e2e8f0; stroke-opacity: 0.6; stroke-width: 0.5; stroke-linecap: square"/>
     </g>
     <g id="line2d_11"/>
     <g id="text_10">
      <!-- 35 -->
      <g style="fill: #94a3b8" transform="translate(24.231719 258.89275) scale(0.09 -0.09)">
       <use xlink:href="#MicrosoftYaHei-Bold-33"/>
       <use xlink:href="#MicrosoftYaHei-Bold-35" transform="translate(61.669922 0)"/>
      </g>
     </g>
    </g>
    <g id="ytick_2">
     <g id="line2d_12">
      <path d="M 38.832656 235.839562 
L 353.652656 235.839562 
" clip-path="url(#p4b0ee8d592)" style="fill: none; stroke: #e2e8f0; stroke-opacity: 0.6; stroke-width: 0.5; stroke-linecap: square"/>
     </g>
     <g id="line2d_13"/>
     <g id="text_11">
      <!-- 40 -->
      <g style="fill: #94a3b8" transform="translate(24.231719 239.43675) scale(0.09 -0.09)">
       <defs>
        <path id="MicrosoftYaHei-Bold-34" d="M 3184 4841 
L 3184 1766 
L 3869 1766 
L 3869 1031 
L 3184 1031 
L 3184 0 
L 2266 0 
L 2266 1031 
L 103 1031 
L 103 1772 
Q 775 2522 1362 3359 
Q 1950 4197 2250 4841 
L 3184 4841 
z
M 997 1766 
L 2266 1766 
L 2266 3541 
Q 2116 3259 1836 2859 
Q 1556 2459 997 1766 
z
" transform="scale(0.015625)"/>
        <path id="MicrosoftYaHei-Bold-30" d="M 244 2341 
Q 244 3597 706 4259 
Q 1169 4922 2044 4922 
Q 3713 4922 3713 2453 
Q 3713 1238 3259 577 
Q 2806 -84 1950 -84 
Q 244 -84 244 2341 
z
M 1266 2366 
Q 1266 691 1981 691 
Q 2684 691 2684 2416 
Q 2684 4147 2000 4147 
Q 1266 4147 1266 2366 
z
" transform="scale(0.015625)"/>
       </defs>
       <use xlink:href="#MicrosoftYaHei-Bold-34"/>
       <use xlink:href="#MicrosoftYaHei-Bold-30" transform="translate(61.669922 0)"/>
      </g>
     </g>
    </g>
    <g id="ytick_3">
     <g id="line2d_14">
      <path d="M 38.832656 216.383562 
L 353.652656 216.383562 
" clip-path="url(#p4b0ee8d592)" style="fill: none; stroke: #e2e8f0; stroke-opacity: 0.6; stroke-width: 0.5; stroke-linecap: square"/>
     </g>
     <g id="line2d_15"/>
     <g id="text_12">
      <!-- 45 -->
      <g style="fill: #94a3b8" transform="translate(24.231719 219.98075) scale(0.09 -0.09)">
       <use xlink:href="#MicrosoftYaHei-Bold-34"/>
       <use xlink:href="#MicrosoftYaHei-Bold-35" transform="translate(61.669922 0)"/>
      </g>
     </g>
    </g>
    <g id="ytick_4">
     <g id="line2d_16">
      <path d="M 38.832656 196.927562 
L 353.652656 196.927562 
" clip-path="url(#p4b0ee8d592)" style="fill: none; stroke: #e2e8f0; stroke-opacity: 0.6; stroke-width: 0.5; stroke-linecap: square"/>
     </g>
     <g id="line2d_17"/>
     <g id="text_13">
      <!-- 50 -->
      <g style="fill: #94a3b8" transform="translate(24.231719 200.52475) scale(0.09 -0.09)">
       <use xlink:href="#MicrosoftYaHei-Bold-35"/>
       <use xlink:href="#MicrosoftYaHei-Bold-30" transform="translate(61.669922 0)"/>
      </g>
     </g>
    </g>
    <g id="ytick_5">
     <g id="line2d_18">
      <path d="M 38.832656 177.471562 
L 353.652656 177.471562 
" clip-path="url(#p4b0ee8d592)" style="fill: none; stroke: #e2e8f0; stroke-opacity: 0.6; stroke-width: 0.5; stroke-linecap: square"/>
     </g>
     <g id="line2d_19"/>
     <g id="text_14">
      <!-- 55 -->
      <g style="fill: #94a3b8" transform="translate(24.231719 181.06875) scale(0.09 -0.09)">
       <use xlink:href="#MicrosoftYaHei-Bold-35"/>
       <use xlink:href="#MicrosoftYaHei-Bold-35" transform="translate(61.669922 0)"/>
      </g>
     </g>
    </g>
    <g id="ytick_6">
     <g id="line2d_20">
      <path d="M 38.832656 158.015562 
L 353.652656 158.015562 
" clip-path="url(#p4b0ee8d592)" style="fill: none; stroke: #e2e8f0; stroke-opacity: 0.6; stroke-width: 0.5; stroke-linecap: square"/>
     </g>
     <g id="line2d_21"/>
     <g id="text_15">
      <!-- 60 -->
      <g style="fill: #94a3b8" transform="translate(24.231719 161.61275) scale(0.09 -0.09)">
       <use xlink:href="#MicrosoftYaHei-Bold-36"/>
       <use xlink:href="#MicrosoftYaHei-Bold-30" transform="translate(61.669922 0)"/>
      </g>
     </g>
    </g>
    <g id="ytick_7">
     <g id="line2d_22">
      <path d="M 38.832656 138.559562 
L 353.652656 138.559562 
" clip-path="url(#p4b0ee8d592)" style="fill: none; stroke: #e2e8f0; stroke-opacity: 0.6; stroke-width: 0.5; stroke-linecap: square"/>
     </g>
     <g id="line2d_23"/>
     <g id="text_16">
      <!-- 65 -->
      <g style="fill: #94a3b8" transform="translate(24.231719 142.15675) scale(0.09 -0.09)">
       <use xlink:href="#MicrosoftYaHei-Bold-36"/>
       <use xlink:href="#MicrosoftYaHei-Bold-35" transform="translate(61.669922 0)"/>
      </g>
     </g>
    </g>
    <g id="ytick_8">
     <g id="line2d_24">
      <path d="M 38.832656 119.103562 
L 353.652656 119.103562 
" clip-path="url(#p4b0ee8d592)" style="fill: none; stroke: #e2e8f0; stroke-opacity: 0.6; stroke-width: 0.5; stroke-linecap: square"/>
     </g>
     <g id="line2d_25"/>
     <g id="text_17">
      <!-- 70 -->
      <g style="fill: #94a3b8" transform="translate(24.231719 122.70075) scale(0.09 -0.09)">
       <use xlink:href="#MicrosoftYaHei-Bold-37"/>
       <use xlink:href="#MicrosoftYaHei-Bold-30" transform="translate(61.669922 0)"/>
      </g>
     </g>
    </g>
    <g id="ytick_9">
     <g id="line2d_26">
      <path d="M 38.832656 99.647562 
L 353.652656 99.647562 
" clip-path="url(#p4b0ee8d592)" style="fill: none; stroke: #e2e8f0; stroke-opacity: 0.6; stroke-width: 0.5; stroke-linecap: square"/>
     </g>
     <g id="line2d_27"/>
     <g id="text_18">
      <!-- 75 -->
      <g style="fill: #94a3b8" transform="translate(24.231719 103.24475) scale(0.09 -0.09)">
       <use xlink:href="#MicrosoftYaHei-Bold-37"/>
       <use xlink:href="#MicrosoftYaHei-Bold-35" transform="translate(61.669922 0)"/>
      </g>
     </g>
    </g>
    <g id="ytick_10">
     <g id="line2d_28">
      <path d="M 38.832656 80.191562 
L 353.652656 80.191562 
" clip-path="url(#p4b0ee8d592)" style="fill: none; stroke: #e2e8f0; stroke-opacity: 0.6; stroke-width: 0.5; stroke-linecap: square"/>
     </g>
     <g id="line2d_29"/>
     <g id="text_19">
      <!-- 80 -->
      <g style="fill: #94a3b8" transform="translate(24.231719 83.78875) scale(0.09 -0.09)">
       <defs>
        <path id="MicrosoftYaHei-Bold-38" d="M 269 1303 
Q 269 1725 512 2053 
Q 756 2381 1219 2534 
Q 850 2719 648 3003 
Q 447 3288 447 3634 
Q 447 3997 645 4292 
Q 844 4588 1200 4755 
Q 1556 4922 1997 4922 
Q 2441 4922 2800 4758 
Q 3159 4594 3359 4298 
Q 3559 4003 3559 3647 
Q 3559 3309 3339 3018 
Q 3119 2728 2747 2559 
Q 3200 2403 3453 2076 
Q 3706 1750 3706 1313 
Q 3706 697 3228 309 
Q 2750 -78 1988 -78 
Q 1225 -78 747 309 
Q 269 697 269 1303 
z
M 1278 1394 
Q 1278 1056 1472 853 
Q 1666 650 1991 650 
Q 2303 650 2503 853 
Q 2703 1056 2703 1394 
Q 2703 1709 2500 1920 
Q 2297 2131 1991 2131 
Q 1675 2131 1476 1920 
Q 1278 1709 1278 1394 
z
M 1428 3531 
Q 1428 3266 1592 3077 
Q 1756 2888 2006 2888 
Q 2247 2888 2415 3072 
Q 2584 3256 2584 3531 
Q 2584 3806 2420 3997 
Q 2256 4188 2006 4188 
Q 1750 4188 1589 3997 
Q 1428 3806 1428 3531 
z
" transform="scale(0.015625)"/>
       </defs>
       <use xlink:href="#MicrosoftYaHei-Bold-38"/>
       <use xlink:href="#MicrosoftYaHei-Bold-30" transform="translate(61.669922 0)"/>
      </g>
     </g>
    </g>
    <g id="text_20">
     <!-- 金油比 -->
     <g style="fill: #64748b" transform="translate(17.994375 181.243562) rotate(-90) scale(0.09 -0.09)">
      <defs>
       <path id="MicrosoftYaHei-91d1" d="M 300 -141 
L 2950 -141 
L 2950 1384 
L 713 1384 
L 713 1841 
L 2950 1841 
L 2950 2716 
L 1325 2716 
L 1325 3153 
Q 881 2872 363 2591 
Q 231 2828 50 3059 
Q 2131 4034 2994 5297 
L 3675 5297 
L 3531 5122 
Q 4525 3853 6344 3147 
Q 6175 2909 6013 2647 
Q 5525 2853 5069 3141 
L 5069 2716 
L 3450 2716 
L 3450 1841 
L 5675 1841 
L 5675 1384 
L 3450 1384 
L 3450 -141 
L 6113 -141 
L 6113 -603 
L 300 -603 
L 300 -141 
z
M 3206 4766 
Q 2563 3953 1350 3172 
L 5019 3172 
Q 4044 3791 3206 4766 
z
M 4094 284 
Q 4600 809 4950 1309 
L 5388 1028 
Q 4950 484 4469 -16 
L 4094 284 
z
M 1000 1003 
L 1369 1297 
Q 1825 834 2263 334 
L 1838 -3 
Q 1463 491 1000 1003 
z
" transform="scale(0.015625)"/>
       <path id="MicrosoftYaHei-6cb9" d="M 2025 4216 
L 3825 4216 
L 3825 5303 
L 4313 5303 
L 4313 4216 
L 6119 4216 
L 6119 -791 
L 5631 -791 
L 5631 -409 
L 2513 -409 
L 2513 -803 
L 2025 -803 
L 2025 4216 
z
M 4313 41 
L 5631 41 
L 5631 1759 
L 4313 1759 
L 4313 41 
z
M 2513 41 
L 3825 41 
L 3825 1759 
L 2513 1759 
L 2513 41 
z
M 5631 3766 
L 4313 3766 
L 4313 2197 
L 5631 2197 
L 5631 3766 
z
M 2513 2197 
L 3825 2197 
L 3825 3766 
L 2513 3766 
L 2513 2197 
z
M 981 1728 
Q 1275 1572 1475 1491 
Q 1106 291 769 -797 
L 244 -559 
Q 675 547 981 1728 
z
M 388 3559 
Q 1025 3097 1469 2716 
Q 1238 2434 1106 2291 
Q 581 2772 75 3184 
L 388 3559 
z
M 688 5178 
Q 1294 4716 1769 4297 
Q 1550 4059 1394 3897 
Q 938 4353 363 4834 
L 688 5178 
z
" transform="scale(0.015625)"/>
       <path id="MicrosoftYaHei-6bd4" d="M 3225 5316 
L 3744 5316 
L 3744 2672 
Q 4959 3550 5744 4509 
L 6188 4178 
Q 5175 3063 3744 2056 
L 3744 247 
Q 3744 -166 4106 -166 
L 5175 -166 
Q 5588 -166 5650 203 
Q 5725 678 5763 1247 
Q 6025 1147 6300 1066 
Q 6244 484 6150 22 
Q 6019 -622 5319 -622 
L 3944 -622 
Q 3225 -622 3225 159 
L 3225 5316 
z
M 1063 5153 
L 1063 3278 
L 2825 3278 
L 2825 2809 
L 1063 2809 
L 1063 153 
Q 1713 428 2763 928 
Q 2763 634 2788 366 
Q 1869 -3 1231 -328 
Q 956 -472 725 -672 
L 344 -184 
Q 544 -34 544 272 
L 544 5153 
L 1063 5153 
z
" transform="scale(0.015625)"/>
      </defs>
      <use xlink:href="#MicrosoftYaHei-91d1"/>
      <use xlink:href="#MicrosoftYaHei-6cb9" transform="translate(100 0)"/>
      <use xlink:href="#MicrosoftYaHei-6bd4" transform="translate(200 0)"/>
     </g>
    </g>
   </g>
   <g id="FillBetweenPolyCollection_1">
    <defs>
     <path id="ma3e6042885" d="M 53.142656 110.344 
L 53.142656 -103.672 
L 88.917656 -123.128 
L 124.692656 -134.8016 
L 160.467656 -154.2576 
L 196.242656 -164.37472 
L 232.017656 -142.584 
L 267.792656 -76.4336 
L 303.567656 -56.9776 
L 339.342656 -64.76 
L 339.342656 110.344 
L 339.342656 110.344 
L 303.567656 110.344 
L 267.792656 110.344 
L 232.017656 110.344 
L 196.242656 110.344 
L 160.467656 110.344 
L 124.692656 110.344 
L 88.917656 110.344 
L 53.142656 110.344 
z
" style="stroke: #ea580c; stroke-opacity: 0.1; stroke-width: 1.5"/>
    </defs>
    <g clip-path="url(#p4b0ee8d592)">
     <use xlink:href="#ma3e6042885" x="0" y="281.143562" style="fill: #ea580c; fill-opacity: 0.1; stroke: #ea580c; stroke-opacity: 0.1; stroke-width: 1.5"/>
    </g>
   </g>
   <g id="patch_5">
    <path d="M 183.518511 109.404937 
Q 189.015429 112.586195 193.351148 115.095426 
" style="fill: none; stroke: #dc2626; stroke-width: 1.2; stroke-linecap: round"/>
    <path d="M 191.259955 111.921011 
L 193.351148 115.095426 
L 189.5569 114.863732 
" style="fill: none; stroke: #dc2626; stroke-width: 1.2; stroke-linecap: round"/>
   </g>
   <g id="text_21">
    <!-- 峰值 70.6 -->
    <g style="fill: #dc2626" transform="translate(141.624883 93.272091) scale(0.085 -0.085)">
     <defs>
      <path id="MicrosoftYaHei-Bold-5cf0" d="M 2425 4241 
L 2425 2972 
Q 3169 3116 3738 3353 
Q 3538 3522 3375 3703 
Q 3188 3509 2994 3322 
Q 2756 3603 2531 3797 
Q 3188 4403 3750 5322 
L 4613 5222 
Q 4481 5034 4344 4859 
L 5869 4859 
L 5869 4253 
Q 5588 3759 5106 3372 
Q 5638 3216 6338 3134 
Q 6250 2847 6138 2416 
Q 5069 2603 4400 2916 
Q 3669 2541 2663 2309 
Q 2544 2628 2425 2884 
L 2425 -266 
L 1888 -266 
L 1888 9 
L 250 -116 
L 250 4241 
L 788 4241 
L 788 647 
L 1006 666 
L 1006 5253 
L 1669 5253 
L 1669 716 
L 1888 734 
L 1888 4241 
L 2425 4241 
z
M 2613 566 
L 4013 566 
L 4013 903 
L 2894 903 
L 2894 1428 
L 4013 1428 
L 4013 1766 
L 2794 1766 
L 2794 2291 
L 4013 2291 
L 4013 2584 
L 4788 2584 
L 4788 2291 
L 5994 2291 
L 5994 1766 
L 4788 1766 
L 4788 1428 
L 5925 1428 
L 5925 903 
L 4788 903 
L 4788 566 
L 6213 566 
L 6213 -16 
L 4788 -16 
L 4788 -847 
L 4013 -847 
L 4013 -16 
L 2613 -16 
L 2613 566 
z
M 4381 3691 
Q 4744 3922 4994 4209 
L 3825 4209 
Q 3813 4197 3806 4184 
Q 4038 3916 4381 3691 
z
" transform="scale(0.015625)"/>
      <path id="MicrosoftYaHei-Bold-503c" d="M 1638 3 
L 2100 3 
L 2100 3728 
L 3556 3728 
L 3556 4097 
L 1950 4097 
L 1950 4797 
L 3556 4797 
L 3556 5266 
L 4381 5266 
L 4381 4797 
L 6175 4797 
L 6175 4097 
L 4381 4097 
L 4381 3728 
L 5888 3728 
L 5888 3 
L 6325 3 
L 6325 -697 
L 1638 -697 
L 1638 3 
z
M 1125 5347 
L 1950 5128 
Q 1713 4378 1419 3666 
L 1419 -853 
L 625 -853 
L 625 2022 
Q 456 1716 275 1422 
Q 200 1916 69 2591 
Q 675 3803 1125 5347 
z
M 2888 1853 
L 5100 1853 
L 5100 2178 
L 2888 2178 
L 2888 1853 
z
M 2888 928 
L 5100 928 
L 5100 1253 
L 2888 1253 
L 2888 928 
z
M 5100 3103 
L 2888 3103 
L 2888 2778 
L 5100 2778 
L 5100 3103 
z
M 2888 3 
L 5100 3 
L 5100 328 
L 2888 328 
L 2888 3 
z
" transform="scale(0.015625)"/>
      <path id="MicrosoftYaHei-Bold-20" transform="scale(0.015625)"/>
      <path id="MicrosoftYaHei-Bold-2e" d="M 313 453 
Q 313 688 491 838 
Q 669 988 916 988 
Q 1166 988 1337 834 
Q 1509 681 1509 453 
Q 1509 213 1337 64 
Q 1166 -84 903 -84 
Q 659 -84 486 69 
Q 313 222 313 453 
z
" transform="scale(0.015625)"/>
     </defs>
     <use xlink:href="#MicrosoftYaHei-Bold-5cf0"/>
     <use xlink:href="#MicrosoftYaHei-Bold-503c" transform="translate(100 0)"/>
     <use xlink:href="#MicrosoftYaHei-Bold-20" transform="translate(200 0)"/>
     <use xlink:href="#MicrosoftYaHei-Bold-37" transform="translate(229.785156 0)"/>
     <use xlink:href="#MicrosoftYaHei-Bold-30" transform="translate(291.455078 0)"/>
     <use xlink:href="#MicrosoftYaHei-Bold-2e" transform="translate(353.125 0)"/>
     <use xlink:href="#MicrosoftYaHei-Bold-36" transform="translate(381.689453 0)"/>
    </g>
    <!-- 恐慌避险 -->
    <g style="fill: #dc2626" transform="translate(143.467656 103.538762) scale(0.085 -0.085)">
     <defs>
      <path id="MicrosoftYaHei-Bold-6050" d="M 88 2859 
Q 438 2909 850 2966 
L 850 4284 
L 200 4284 
L 200 4991 
L 2338 4991 
L 2338 4284 
L 1613 4284 
L 1613 3091 
Q 1950 3147 2331 3209 
Q 2313 2941 2306 2759 
Q 2675 3203 2675 3847 
L 2675 5097 
L 5306 5097 
L 5306 2716 
Q 5306 2572 5438 2572 
Q 5563 2572 5600 2747 
Q 5663 3022 5688 3428 
Q 6000 3328 6319 3259 
Q 6244 2772 6163 2378 
Q 5988 1828 5475 1828 
L 5244 1828 
Q 4550 1828 4550 2591 
L 4550 2984 
L 4050 2603 
Q 3706 3084 3413 3447 
Q 3294 2472 2594 1897 
Q 2356 2178 2069 2409 
Q 850 2197 256 2078 
L 88 2859 
z
M 4269 947 
Q 4756 709 5106 572 
Q 4956 9 4863 -209 
Q 4638 -753 3925 -753 
L 2463 -753 
Q 1531 -753 1531 141 
L 1531 1878 
L 2356 1878 
L 2356 428 
Q 2356 47 2706 41 
L 3706 41 
Q 4081 59 4150 347 
Q 4206 603 4269 947 
z
M 631 1609 
L 1425 1366 
Q 1056 247 813 -397 
L 31 -59 
Q 306 566 631 1609 
z
M 5338 1659 
Q 5919 1003 6363 409 
L 5681 -116 
Q 5206 572 4681 1209 
L 5338 1659 
z
M 3200 2141 
Q 3694 1616 4113 1128 
L 3444 628 
Q 3031 1184 2606 1703 
L 3200 2141 
z
M 3438 4391 
Q 3438 3884 3431 3666 
L 3831 3953 
Q 4181 3559 4550 3097 
L 4550 4391 
L 3438 4391 
z
" transform="scale(0.015625)"/>
      <path id="MicrosoftYaHei-Bold-614c" d="M 3081 1453 
L 3081 966 
Q 3081 -166 2088 -866 
Q 1706 -453 1531 -297 
L 1531 -847 
L 788 -847 
L 788 5291 
L 1531 5291 
L 1531 4203 
Q 1750 4122 2188 3959 
L 2025 3466 
L 3725 3466 
Q 3663 3697 3594 3934 
L 4375 4041 
Q 4419 3841 4500 3466 
L 6138 3466 
L 6138 2778 
L 3013 2778 
L 3013 2278 
L 5875 2278 
L 5875 1603 
L 2225 1603 
L 2225 2778 
L 1888 2778 
L 1888 3297 
Q 1731 3372 1531 3466 
L 1531 -241 
Q 2288 216 2288 1009 
L 2288 1453 
L 3081 1453 
z
M 1850 4878 
L 2738 4878 
L 2738 5303 
L 3525 5303 
L 3525 4878 
L 4575 4878 
L 4575 5303 
L 5356 5303 
L 5356 4878 
L 6275 4878 
L 6275 4191 
L 5356 4191 
L 5356 3791 
L 4575 3791 
L 4575 4191 
L 3525 4191 
L 3525 3791 
L 2738 3791 
L 2738 4191 
L 1850 4191 
L 1850 4878 
z
M 5794 1128 
Q 6069 1009 6300 928 
Q 6256 459 6181 -141 
Q 6081 -803 5519 -803 
L 5269 -803 
Q 4688 -803 4688 -103 
L 4688 1453 
L 5450 1453 
L 5450 116 
Q 5450 -103 5581 -103 
Q 5694 -103 5719 184 
Q 5775 722 5794 1128 
z
M 3488 1453 
L 4281 1453 
L 4281 -772 
L 3488 -772 
L 3488 1453 
z
M 19 2247 
Q 156 3041 263 4116 
L 750 4053 
Q 663 3078 538 2147 
Q 275 2209 19 2247 
z
" transform="scale(0.015625)"/>
      <path id="MicrosoftYaHei-Bold-907f" d="M 4038 4697 
L 4769 4697 
Q 4694 4981 4613 5216 
L 5356 5334 
Q 5441 5022 5513 4697 
L 6194 4697 
L 6194 4072 
L 4038 4072 
L 4038 4697 
z
M 894 5259 
Q 1375 4666 1706 4159 
L 1038 3703 
Q 738 4209 288 4847 
L 894 5259 
z
M 1844 5022 
L 3850 5022 
L 3850 2953 
L 2556 2953 
Q 2550 2891 2500 2497 
L 3856 2497 
L 3856 334 
L 2144 334 
L 2144 1763 
Q 1997 1241 1700 772 
Q 1556 975 1431 1138 
L 1431 550 
Q 1634 281 1970 147 
Q 2306 13 2672 -4 
Q 3038 -22 3997 -22 
Q 4978 -22 6319 -3 
Q 6119 -428 6006 -741 
Q 2988 -763 2277 -683 
Q 1566 -603 1138 -128 
Q 919 -328 431 -878 
L 81 9 
Q 391 306 694 550 
L 694 2309 
L 138 2309 
L 138 3134 
L 1431 3134 
L 1431 1575 
Q 1844 2222 1844 3384 
L 1844 5022 
z
M 3113 3591 
L 3113 4384 
L 2581 4384 
L 2581 3591 
L 3113 3591 
z
M 3244 997 
L 3244 1834 
L 2756 1834 
L 2756 997 
L 3244 997 
z
M 6325 2303 
L 5450 2303 
L 5450 1728 
L 6194 1728 
L 6194 1072 
L 5450 1072 
L 5450 153 
L 4713 153 
L 4713 1072 
L 4038 1072 
L 4038 1728 
L 4713 1728 
L 4713 2303 
L 3950 2303 
L 3950 2928 
L 4994 2928 
Q 5297 3444 5550 4053 
L 6225 3753 
Q 6028 3450 5666 2928 
L 6325 2928 
L 6325 2303 
z
M 4631 4047 
Q 4806 3741 5056 3241 
L 4469 2984 
Q 4238 3478 4056 3784 
L 4631 4047 
z
" transform="scale(0.015625)"/>
      <path id="MicrosoftYaHei-Bold-9669" d="M 1819 2728 
Q 2325 2122 2325 1291 
Q 2325 766 2081 522 
Q 1831 272 1219 272 
Q 1181 659 1069 1141 
Q 1213 1109 1306 1109 
Q 1563 1109 1563 1497 
Q 1563 2109 1088 2659 
Q 1344 3472 1531 4316 
L 1063 4316 
L 1063 -841 
L 331 -841 
L 331 5034 
L 2356 5034 
L 2356 4441 
Q 2081 3491 1819 2728 
z
M 5438 2653 
L 2925 2653 
L 2925 2959 
Q 2719 2784 2494 2616 
Q 2306 3009 2063 3409 
Q 3106 4128 3863 5303 
L 4775 5303 
L 4663 5097 
Q 5406 3997 6350 3484 
Q 6144 3147 5894 2703 
Q 5656 2853 5438 3028 
L 5438 2653 
z
M 2175 122 
L 4550 122 
Q 4938 1247 5150 2316 
L 5981 2116 
Q 5681 1116 5344 122 
L 6175 122 
L 6175 -641 
L 2175 -641 
L 2175 122 
z
M 3125 2234 
Q 3363 1453 3613 484 
L 2875 272 
Q 2681 1172 2419 2041 
L 3125 2234 
z
M 4288 2441 
Q 4519 1528 4688 759 
L 3956 591 
Q 3800 1441 3581 2284 
L 4288 2441 
z
M 4225 4409 
Q 3825 3866 3394 3403 
L 5025 3403 
Q 4569 3872 4225 4409 
z
" transform="scale(0.015625)"/>
     </defs>
     <use xlink:href="#MicrosoftYaHei-Bold-6050"/>
     <use xlink:href="#MicrosoftYaHei-Bold-614c" transform="translate(100 0)"/>
     <use xlink:href="#MicrosoftYaHei-Bold-907f" transform="translate(200 0)"/>
     <use xlink:href="#MicrosoftYaHei-Bold-9669" transform="translate(300 0)"/>
    </g>
   </g>
   <g id="patch_6">
    <path d="M 307.418324 218.881852 
Q 322.384803 217.710626 336.013731 216.644073 
" style="fill: none; stroke: #1a56db; stroke-width: 1.2; stroke-linecap: round"/>
    <path d="M 332.491464 215.214516 
L 336.013731 216.644073 
L 332.756725 218.604152 
" style="fill: none; stroke: #1a56db; stroke-width: 1.2; stroke-linecap: round"/>
   </g>
   <g id="text_22">
    <!-- ≈45 -->
    <g style="fill: #1a56db" transform="translate(277.19875 217.790491) scale(0.085 -0.085)">
     <defs>
      <path id="MicrosoftYaHei-Bold-2248" d="M 4213 3350 
Q 4191 2784 3909 2464 
Q 3628 2144 3169 2144 
Q 2816 2144 2297 2450 
Q 1928 2663 1766 2663 
Q 1344 2663 1325 2125 
L 666 2125 
Q 688 2709 969 3017 
Q 1250 3325 1716 3325 
Q 2100 3325 2522 3066 
Q 2950 2806 3134 2806 
Q 3319 2806 3431 2954 
Q 3544 3103 3550 3350 
L 4213 3350 
z
M 4213 1853 
Q 4191 1288 3911 966 
Q 3631 644 3169 644 
Q 2822 644 2297 953 
Q 1931 1169 1766 1169 
Q 1344 1169 1325 619 
L 666 619 
Q 688 1203 969 1518 
Q 1250 1834 1716 1834 
Q 2094 1834 2522 1572 
Q 2956 1306 3134 1306 
Q 3319 1306 3431 1456 
Q 3544 1606 3550 1853 
L 4213 1853 
z
" transform="scale(0.015625)"/>
     </defs>
     <use xlink:href="#MicrosoftYaHei-Bold-2248"/>
     <use xlink:href="#MicrosoftYaHei-Bold-34" transform="translate(76.220703 0)"/>
     <use xlink:href="#MicrosoftYaHei-Bold-35" transform="translate(137.890625 0)"/>
    </g>
    <!-- 滞胀交易 -->
    <g style="fill: #1a56db" transform="translate(268.680156 228.057162) scale(0.085 -0.085)">
     <defs>
      <path id="MicrosoftYaHei-Bold-6ede" d="M 669 5347 
Q 1056 5059 1556 4653 
L 981 4028 
Q 663 4334 156 4772 
L 669 5347 
z
M 1575 4666 
L 2069 4666 
L 2069 5303 
L 2850 5303 
L 2850 4666 
L 3494 4666 
L 3494 5303 
L 4281 5303 
L 4281 4666 
L 4925 4666 
L 4925 5303 
L 5700 5303 
L 5700 4666 
L 6188 4666 
L 6188 3978 
L 5700 3978 
L 5700 3353 
L 4925 3353 
L 4925 3978 
L 4281 3978 
L 4281 3353 
L 3494 3353 
L 3494 3978 
L 2850 3978 
L 2850 3353 
L 2069 3353 
L 2069 3978 
L 1575 3978 
L 1575 4666 
z
M 531 3716 
L 1450 2997 
L 863 2328 
L 31 3103 
L 531 3716 
z
M 1525 1872 
L 1525 3159 
L 6256 3159 
L 6256 1872 
L 5425 1872 
L 5425 2472 
L 2356 2472 
L 2356 1872 
L 1525 1872 
z
M 3463 2278 
L 4313 2278 
L 4313 1822 
L 5894 1822 
L 5894 403 
Q 5894 81 5756 -94 
Q 5619 -269 5386 -306 
Q 5153 -344 4431 -334 
Q 4394 38 4313 431 
L 4313 -859 
L 3463 -859 
L 3463 1147 
L 2731 1147 
L 2731 -422 
L 1900 -422 
L 1900 1822 
L 3463 1822 
L 3463 2278 
z
M 5050 1147 
L 4313 1147 
L 4313 456 
Q 4553 434 4819 434 
Q 5050 434 5050 641 
L 5050 1147 
z
M 806 1884 
Q 1131 1741 1581 1584 
L 981 -828 
Q 544 -659 181 -578 
Q 494 434 806 1884 
z
" transform="scale(0.015625)"/>
      <path id="MicrosoftYaHei-Bold-80c0" d="M 1138 1172 
Q 1125 -134 613 -891 
Q 394 -522 38 -172 
Q 400 491 425 2047 
L 425 5059 
L 2463 5059 
L 2463 28 
Q 2463 -616 1956 -722 
Q 1688 -772 1250 -784 
Q 1194 -403 1031 66 
Q 1119 47 1419 34 
Q 1713 16 1713 391 
L 1713 1172 
L 1138 1172 
z
M 4588 584 
Q 4600 53 4631 -241 
Q 3675 -622 3200 -878 
L 2750 -178 
Q 2994 28 2994 491 
L 2994 2078 
L 2588 2078 
L 2588 2903 
L 2994 2903 
L 2994 5272 
L 3806 5272 
L 3806 2903 
L 6225 2903 
L 6225 2078 
L 4906 2078 
Q 5325 822 6338 159 
Q 6019 -203 5750 -572 
Q 4556 384 4144 2078 
L 3806 2078 
L 3806 222 
Q 4219 397 4588 584 
z
M 6156 4653 
Q 5269 3778 4294 3091 
L 3825 3678 
Q 4681 4303 5506 5128 
L 6156 4653 
z
M 1169 1916 
L 1713 1916 
L 1713 2716 
L 1175 2716 
Q 1175 2284 1169 1916 
z
M 1713 4259 
L 1175 4259 
L 1175 3459 
L 1713 3459 
L 1713 4259 
z
" transform="scale(0.015625)"/>
      <path id="MicrosoftYaHei-Bold-4ea4" d="M 163 4559 
L 2684 4559 
Q 2559 4856 2463 5072 
L 3388 5353 
Q 3538 5056 3775 4559 
L 6194 4559 
L 6194 3772 
L 163 3772 
L 163 4559 
z
M 200 2322 
Q 1238 3016 2006 3759 
L 2681 3141 
Q 1788 2328 788 1597 
Q 581 1891 200 2322 
z
M 4331 3741 
Q 5363 3009 6188 2372 
L 5538 1653 
Q 4675 2441 3756 3134 
L 4331 3741 
z
M 2294 2503 
Q 2703 1794 3203 1309 
Q 3741 1819 4075 2516 
L 4813 2022 
Q 4419 1309 3909 769 
Q 4819 250 6300 78 
Q 5988 -447 5781 -816 
Q 4291 -613 3206 150 
Q 2128 -597 594 -841 
Q 438 -491 88 53 
Q 1525 234 2494 778 
Q 1978 1319 1594 1984 
L 2294 2503 
z
" transform="scale(0.015625)"/>
      <path id="MicrosoftYaHei-Bold-6613" d="M 806 5122 
L 5656 5122 
L 5656 2409 
L 2422 2409 
Q 2306 2238 2178 2078 
L 6031 2078 
L 5922 350 
Q 5884 -172 5689 -436 
Q 5494 -700 5284 -748 
Q 5075 -797 4106 -797 
Q 4022 -403 3881 41 
Q 3413 -488 2775 -872 
Q 2469 -634 2025 -353 
Q 3331 356 3781 1372 
L 3166 1372 
Q 2447 94 681 -666 
Q 456 -397 69 -34 
Q 1566 544 2141 1372 
L 1519 1372 
Q 1144 1031 706 747 
Q 494 972 94 1334 
Q 891 1738 1447 2409 
L 806 2409 
L 806 5122 
z
M 4788 4428 
L 1675 4428 
L 1675 4059 
L 4788 4059 
L 4788 4428 
z
M 4788 3103 
L 4788 3472 
L 1675 3472 
L 1675 3103 
L 4788 3103 
z
M 3916 78 
Q 4247 38 4550 38 
Q 4766 38 4844 77 
Q 4922 116 4976 211 
Q 5031 306 5068 679 
Q 5106 1053 5119 1372 
L 4703 1372 
Q 4403 644 3916 78 
z
" transform="scale(0.015625)"/>
     </defs>
     <use xlink:href="#MicrosoftYaHei-Bold-6ede"/>
     <use xlink:href="#MicrosoftYaHei-Bold-80c0" transform="translate(100 0)"/>
     <use xlink:href="#MicrosoftYaHei-Bold-4ea4" transform="translate(200 0)"/>
     <use xlink:href="#MicrosoftYaHei-Bold-6613" transform="translate(300 0)"/>
    </g>
   </g>
   <g id="text_23">
    <!-- ! 风险区间 -->
    <g style="fill: #dc2626" transform="translate(310.185006 90.088643) scale(0.08 -0.08)">
     <defs>
      <path id="MicrosoftYaHei-Bold-21" d="M 1641 4841 
L 1516 1491 
L 697 1491 
L 578 4841 
L 1641 4841 
z
M 522 463 
Q 522 697 694 847 
Q 866 997 1116 997 
Q 1369 997 1536 845 
Q 1703 694 1703 463 
Q 1703 238 1540 81 
Q 1378 -75 1150 -75 
Q 863 -75 692 81 
Q 522 238 522 463 
z
" transform="scale(0.015625)"/>
      <path id="MicrosoftYaHei-Bold-98ce" d="M 5594 128 
Q 5647 128 5678 165 
Q 5709 203 5750 472 
Q 5791 741 5831 1309 
Q 6125 1159 6381 1059 
Q 6284 -175 6095 -501 
Q 5906 -828 5544 -828 
Q 5053 -828 4803 -306 
Q 4553 216 4563 2466 
L 4563 4191 
L 1500 4191 
L 1500 2591 
Q 1500 1394 1331 615 
Q 1163 -163 663 -928 
Q 369 -572 25 -197 
Q 419 384 537 1001 
Q 656 1619 650 2953 
L 650 5041 
L 5413 5041 
L 5413 2372 
Q 5413 1013 5434 575 
Q 5456 138 5594 128 
z
M 2181 3841 
Q 2659 3225 3078 2659 
Q 3488 3294 3788 3953 
L 4531 3541 
Q 4128 2719 3606 1941 
Q 4178 1147 4625 459 
L 3913 -97 
Q 3509 550 3072 1197 
Q 2566 538 1969 -84 
Q 1650 272 1350 572 
Q 2028 1234 2563 1931 
Q 2059 2650 1513 3366 
L 2181 3841 
z
" transform="scale(0.015625)"/>
      <path id="MicrosoftYaHei-Bold-533a" d="M 1363 266 
L 6219 266 
L 6219 -578 
L 475 -578 
L 475 4972 
L 6025 4972 
L 6025 4128 
L 1363 4128 
L 1363 266 
z
M 1600 3422 
L 2200 4034 
L 3584 2831 
Q 4119 3428 4581 4091 
L 5356 3578 
Q 4834 2872 4253 2238 
L 5656 941 
L 4919 291 
Q 4278 947 3619 1581 
Q 2913 891 2131 297 
Q 1975 491 1506 966 
Q 2288 1531 2969 2194 
Q 2294 2819 1600 3422 
z
" transform="scale(0.015625)"/>
      <path id="MicrosoftYaHei-Bold-95f4" d="M 1088 5059 
L 1906 5347 
Q 2200 4884 2506 4334 
L 1638 4003 
Q 1356 4597 1088 5059 
z
M 6056 347 
Q 6056 -106 5904 -378 
Q 5753 -650 5422 -736 
Q 5091 -822 3950 -822 
Q 3875 -359 3750 53 
Q 4150 28 4769 28 
Q 5188 28 5188 397 
L 5188 4278 
L 2719 4278 
L 2719 5047 
L 6056 5047 
L 6056 347 
z
M 344 4522 
L 1213 4522 
L 1213 -803 
L 344 -803 
L 344 4522 
z
M 1788 3772 
L 4581 3772 
L 4581 484 
L 2575 484 
L 2575 141 
L 1788 141 
L 1788 3772 
z
M 3794 3072 
L 2575 3072 
L 2575 2478 
L 3794 2478 
L 3794 3072 
z
M 3794 1184 
L 3794 1778 
L 2575 1778 
L 2575 1184 
L 3794 1184 
z
" transform="scale(0.015625)"/>
     </defs>
     <use xlink:href="#MicrosoftYaHei-Bold-21"/>
     <use xlink:href="#MicrosoftYaHei-Bold-20" transform="translate(34.863281 0)"/>
     <use xlink:href="#MicrosoftYaHei-Bold-98ce" transform="translate(64.648438 0)"/>
     <use xlink:href="#MicrosoftYaHei-Bold-9669" transform="translate(164.648438 0)"/>
     <use xlink:href="#MicrosoftYaHei-Bold-533a" transform="translate(264.648438 0)"/>
     <use xlink:href="#MicrosoftYaHei-Bold-95f4" transform="translate(364.648438 0)"/>
    </g>
   </g>
   <g id="text_24">
    <!-- OK 正常区间 -->
    <g style="fill: #16a34a" transform="translate(300.883756 214.783932) scale(0.08 -0.08)">
     <defs>
      <path id="MicrosoftYaHei-Bold-4f" d="M 256 2356 
Q 256 3494 920 4208 
Q 1584 4922 2675 4922 
Q 3713 4922 4345 4231 
Q 4978 3541 4978 2456 
Q 4978 1325 4320 620 
Q 3663 -84 2597 -84 
Q 1556 -84 906 598 
Q 256 1281 256 2356 
z
M 1341 2413 
Q 1341 1706 1681 1257 
Q 2022 809 2616 809 
Q 3222 809 3559 1239 
Q 3897 1669 3897 2394 
Q 3897 3150 3569 3589 
Q 3241 4028 2644 4028 
Q 2038 4028 1689 3578 
Q 1341 3128 1341 2413 
z
" transform="scale(0.015625)"/>
      <path id="MicrosoftYaHei-Bold-4b" d="M 4506 0 
L 3200 0 
L 1734 2116 
Q 1678 2197 1606 2369 
L 1591 2369 
L 1591 0 
L 559 0 
L 559 4841 
L 1591 4841 
L 1591 2553 
L 1606 2553 
Q 1675 2703 1744 2813 
L 3131 4841 
L 4363 4841 
L 2631 2531 
L 4506 0 
z
" transform="scale(0.015625)"/>
      <path id="MicrosoftYaHei-Bold-6b63" d="M 138 303 
L 1050 303 
L 1050 3397 
L 1975 3397 
L 1975 303 
L 3056 303 
L 3056 4078 
L 388 4078 
L 388 4934 
L 6056 4934 
L 6056 4078 
L 4000 4078 
L 4000 2709 
L 5838 2709 
L 5838 1859 
L 4000 1859 
L 4000 303 
L 6263 303 
L 6263 -553 
L 138 -553 
L 138 303 
z
" transform="scale(0.015625)"/>
      <path id="MicrosoftYaHei-Bold-5e38" d="M 2788 5303 
L 3613 5303 
L 3613 4403 
L 4341 4403 
L 4150 4566 
Q 4556 4934 4925 5316 
L 5519 4891 
Q 5275 4659 4988 4403 
L 6144 4403 
L 6144 3022 
L 5381 3022 
L 5381 3741 
L 1031 3741 
L 1031 3022 
L 269 3022 
L 269 4403 
L 1391 4403 
Q 1159 4659 925 4891 
L 1456 5316 
Q 1831 4984 2200 4603 
L 1950 4403 
L 2788 4403 
L 2788 5303 
z
M 1431 -484 
L 606 -484 
L 606 1509 
L 2781 1509 
L 2781 1859 
L 1250 1859 
L 1250 3397 
L 5163 3397 
L 5163 1859 
L 3631 1859 
L 3631 1509 
L 5863 1509 
L 5863 284 
Q 5863 53 5789 -109 
Q 5716 -272 5569 -367 
Q 5422 -463 5253 -483 
Q 5084 -503 4338 -503 
Q 4269 -191 4144 203 
Q 4466 184 4759 184 
Q 5038 184 5038 516 
L 5038 847 
L 3631 847 
L 3631 -853 
L 2781 -853 
L 2781 847 
L 1431 847 
L 1431 -484 
z
M 2013 2434 
L 4400 2434 
L 4400 2822 
L 2013 2822 
L 2013 2434 
z
" transform="scale(0.015625)"/>
     </defs>
     <use xlink:href="#MicrosoftYaHei-Bold-4f"/>
     <use xlink:href="#MicrosoftYaHei-Bold-4b" transform="translate(81.835938 0)"/>
     <use xlink:href="#MicrosoftYaHei-Bold-20" transform="translate(151.123047 0)"/>
     <use xlink:href="#MicrosoftYaHei-Bold-6b63" transform="translate(180.908203 0)"/>
     <use xlink:href="#MicrosoftYaHei-Bold-5e38" transform="translate(280.908203 0)"/>
     <use xlink:href="#MicrosoftYaHei-Bold-533a" transform="translate(380.908203 0)"/>
     <use xlink:href="#MicrosoftYaHei-Bold-95f4" transform="translate(480.908203 0)"/>
    </g>
   </g>
   <g id="line2d_30">
    <path d="M 53.142656 177.471562 
L 88.917656 158.015562 
L 124.692656 146.341962 
L 160.467656 126.885962 
L 196.242656 116.768843 
L 232.017656 138.559562 
L 267.792656 204.709962 
L 303.567656 224.165962 
L 339.342656 216.383562 
" clip-path="url(#p4b0ee8d592)" style="fill: none; stroke: #ea580c; stroke-width: 2.8; stroke-linecap: square"/>
    <defs>
     <path id="m84f38c8490" d="M 0 3 
C 0.795609 3 1.55874 2.683901 2.12132 2.12132 
C 2.683901 1.55874 3 0.795609 3 0 
C 3 -0.795609 2.683901 -1.55874 2.12132 -2.12132 
C 1.55874 -2.683901 0.795609 -3 0 -3 
C -0.795609 -3 -1.55874 -2.683901 -2.12132 -2.12132 
C -2.683901 -1.55874 -3 -0.795609 -3 0 
C -3 0.795609 -2.683901 1.55874 -2.12132 2.12132 
C -1.55874 2.683901 -0.795609 3 0 3 
z
" style="stroke: #ea580c; stroke-width: 2"/>
    </defs>
    <g clip-path="url(#p4b0ee8d592)">
     <use xlink:href="#m84f38c8490" x="53.142656" y="177.471562" style="fill: #ffffff; stroke: #ea580c; stroke-width: 2"/>
     <use xlink:href="#m84f38c8490" x="88.917656" y="158.015562" style="fill: #ffffff; stroke: #ea580c; stroke-width: 2"/>
     <use xlink:href="#m84f38c8490" x="124.692656" y="146.341962" style="fill: #ffffff; stroke: #ea580c; stroke-width: 2"/>
     <use xlink:href="#m84f38c8490" x="160.467656" y="126.885962" style="fill: #ffffff; stroke: #ea580c; stroke-width: 2"/>
     <use xlink:href="#m84f38c8490" x="196.242656" y="116.768843" style="fill: #ffffff; stroke: #ea580c; stroke-width: 2"/>
     <use xlink:href="#m84f38c8490" x="232.017656" y="138.559562" style="fill: #ffffff; stroke: #ea580c; stroke-width: 2"/>
     <use xlink:href="#m84f38c8490" x="267.792656" y="204.709962" style="fill: #ffffff; stroke: #ea580c; stroke-width: 2"/>
     <use xlink:href="#m84f38c8490" x="303.567656" y="224.165962" style="fill: #ffffff; stroke: #ea580c; stroke-width: 2"/>
     <use xlink:href="#m84f38c8490" x="339.342656" y="216.383562" style="fill: #ffffff; stroke: #ea580c; stroke-width: 2"/>
    </g>
   </g>
  </g>
  <g id="text_25">
   <!-- 金油比趋势 -->
   <g style="fill: #1e293b" transform="translate(38.832656 21.99125) scale(0.14 -0.14)">
    <defs>
     <path id="MicrosoftYaHei-Bold-91d1" d="M 263 103 
L 1600 103 
Q 1356 428 981 878 
L 1706 1316 
Q 2031 941 2381 484 
L 1775 103 
L 2731 103 
L 2731 1328 
L 763 1328 
L 763 2091 
L 2731 2091 
L 2731 2616 
L 1538 2616 
L 1538 3122 
Q 1081 2828 569 2547 
Q 344 2916 50 3359 
Q 1938 4172 2813 5297 
L 4081 5297 
L 3800 5016 
Q 4769 4003 6350 3491 
Q 6056 3009 5844 2647 
Q 5331 2884 4888 3147 
L 4888 2616 
L 3663 2616 
L 3663 2091 
L 5638 2091 
L 5638 1328 
L 4700 1328 
L 5463 928 
Q 5119 484 4800 103 
L 6150 103 
L 6150 -659 
L 263 -659 
L 263 103 
z
M 3213 4478 
Q 2650 3903 1906 3378 
L 4519 3378 
Q 3763 3878 3213 4478 
z
M 4669 1328 
L 3663 1328 
L 3663 103 
L 4631 103 
L 4031 434 
Q 4375 884 4669 1328 
z
" transform="scale(0.015625)"/>
     <path id="MicrosoftYaHei-Bold-6cb9" d="M 713 5253 
Q 1194 4922 1763 4447 
L 1188 3809 
Q 681 4284 181 4697 
L 713 5253 
z
M 2013 -797 
L 2013 4328 
L 3650 4328 
L 3650 5241 
L 4419 5241 
L 4419 4328 
L 6056 4328 
L 6056 -797 
L 5231 -797 
L 5231 -359 
L 2838 -359 
L 2838 -797 
L 2013 -797 
z
M 5231 3528 
L 4419 3528 
L 4419 2378 
L 5231 2378 
L 5231 3528 
z
M 2838 2378 
L 3650 2378 
L 3650 3528 
L 2838 3528 
L 2838 2378 
z
M 2838 441 
L 3650 441 
L 3650 1628 
L 2838 1628 
L 2838 441 
z
M 4419 441 
L 5231 441 
L 5231 1628 
L 4419 1628 
L 4419 441 
z
M 644 3591 
Q 1200 3197 1663 2803 
L 1056 2153 
Q 675 2534 88 3003 
L 644 3591 
z
M 888 1903 
Q 1363 1697 1750 1572 
Q 1369 278 1013 -809 
Q 556 -641 144 -516 
Q 556 622 888 1903 
z
" transform="scale(0.015625)"/>
     <path id="MicrosoftYaHei-Bold-6bd4" d="M 5481 4441 
L 6294 3803 
Q 5234 2791 4119 1894 
L 4119 547 
Q 4119 153 4438 153 
L 4875 153 
Q 5119 153 5197 325 
Q 5275 497 5363 1597 
Q 5856 1409 6294 1278 
Q 6231 688 6131 248 
Q 6031 -191 5900 -358 
Q 5769 -525 5511 -617 
Q 5253 -709 4881 -709 
L 4094 -709 
Q 3194 -709 3194 247 
L 3194 5316 
L 4119 5316 
L 4119 3009 
Q 4797 3656 5481 4441 
z
M 1419 5241 
L 1419 3453 
L 2850 3453 
L 2850 2591 
L 1419 2591 
L 1419 372 
L 2869 866 
Q 2856 372 2888 -78 
Q 1500 -503 725 -922 
L 275 -184 
Q 494 -16 494 366 
L 494 5241 
L 1419 5241 
z
" transform="scale(0.015625)"/>
     <path id="MicrosoftYaHei-Bold-8d8b" d="M 3175 2366 
L 5175 2366 
L 5175 2903 
L 3125 2903 
L 3125 3241 
L 3038 3147 
Q 2669 3553 2513 3697 
Q 2569 3753 2625 3816 
L 1956 3816 
L 1956 3191 
L 2900 3191 
L 2900 2447 
L 2231 2447 
L 2231 1784 
L 2888 1784 
L 2888 1022 
L 2231 1022 
L 2231 163 
Q 2369 97 3875 97 
Q 4819 97 6306 122 
Q 6144 -359 6050 -716 
Q 3291 -716 2342 -667 
Q 1394 -619 959 72 
Q 853 -513 675 -853 
Q 400 -572 75 -259 
Q 394 503 400 2184 
L 1131 2184 
Q 1122 1647 1091 1191 
Q 1209 794 1469 544 
L 1469 2447 
L 125 2447 
L 125 3191 
L 1163 3191 
L 1163 3816 
L 300 3816 
L 300 4559 
L 1163 4559 
L 1163 5322 
L 1956 5322 
L 1956 4559 
L 2706 4559 
L 2706 3906 
Q 3225 4497 3669 5359 
L 4444 5197 
Q 4369 5031 4281 4872 
L 5631 4872 
L 5631 4247 
L 5188 3566 
L 5950 3566 
L 5950 503 
L 3038 503 
L 3038 1166 
L 5175 1166 
L 5175 1716 
L 3175 1716 
L 3175 2366 
z
M 3403 3566 
L 4306 3566 
L 4781 4209 
L 3888 4209 
Q 3666 3881 3403 3566 
z
" transform="scale(0.015625)"/>
     <path id="MicrosoftYaHei-Bold-52bf" d="M 3400 -766 
Q 3325 -309 3244 34 
Q 4075 -9 4269 -9 
Q 4475 -9 4628 87 
Q 4781 184 4815 401 
Q 4850 619 4875 909 
L 3038 909 
Q 2613 -469 538 -909 
Q 275 -372 88 -72 
Q 1763 169 2134 909 
L 538 909 
L 538 1628 
L 2353 1628 
Q 2372 1741 2388 1866 
L 2675 1866 
Q 2475 2138 2231 2397 
Q 2709 2638 2988 2997 
Q 2753 3131 2519 3259 
L 2850 3797 
L 3288 3584 
Q 3347 3791 3363 4022 
L 2713 4022 
L 2713 4722 
L 3391 4722 
Q 3400 5069 3400 5328 
L 4163 5328 
Q 4163 5063 4153 4722 
L 5500 4722 
L 5488 3453 
Q 5488 2653 5644 2653 
Q 5731 2653 5800 3478 
Q 6063 3384 6350 3309 
Q 6213 1828 5550 1828 
Q 5166 1828 4970 2093 
Q 4775 2359 4761 2871 
Q 4747 3384 4744 4022 
L 4122 4022 
Q 4084 3609 3959 3247 
L 4669 2878 
L 4231 2234 
L 3641 2606 
Q 3359 2188 2919 1866 
L 3231 1866 
Q 3219 1747 3200 1628 
L 5781 1628 
L 5684 263 
Q 5656 -88 5492 -336 
Q 5328 -584 5012 -684 
Q 4697 -784 3400 -766 
z
M 200 3491 
L 1088 3566 
L 1088 3947 
L 313 3947 
L 313 4647 
L 1088 4647 
L 1088 5316 
L 1850 5316 
L 1850 4647 
L 2475 4647 
L 2475 3947 
L 1850 3947 
L 1850 3647 
L 2494 3722 
Q 2500 3372 2500 3009 
L 1850 2938 
L 1850 2753 
Q 1850 2391 1719 2162 
Q 1588 1934 1355 1854 
Q 1122 1775 419 1766 
Q 363 2128 281 2447 
Q 419 2428 763 2428 
Q 1088 2428 1088 2766 
L 1088 2853 
L 313 2766 
L 200 3491 
z
" transform="scale(0.015625)"/>
    </defs>
    <use xlink:href="#MicrosoftYaHei-Bold-91d1"/>
    <use xlink:href="#MicrosoftYaHei-Bold-6cb9" transform="translate(100 0)"/>
    <use xlink:href="#MicrosoftYaHei-Bold-6bd4" transform="translate(200 0)"/>
    <use xlink:href="#MicrosoftYaHei-Bold-8d8b" transform="translate(300 0)"/>
    <use xlink:href="#MicrosoftYaHei-Bold-52bf" transform="translate(400 0)"/>
   </g>
  </g>
  <g id="text_26">
   <!-- 黄金(COMEX) / 原油(WTI) 比值 · 从恐慌避险到滞胀交易 -->
   <g style="fill: #64748b" transform="translate(38.832656 43.609938) scale(0.09 -0.09)">
    <defs>
     <path id="MicrosoftYaHei-9ec4" d="M 900 2759 
L 2963 2759 
L 2963 3303 
L 175 3303 
L 175 3728 
L 1869 3728 
L 1869 4328 
L 369 4328 
L 369 4753 
L 1869 4753 
L 1869 5341 
L 2344 5341 
L 2344 4753 
L 4069 4753 
L 4069 5341 
L 4544 5341 
L 4544 4753 
L 6044 4753 
L 6044 4328 
L 4544 4328 
L 4544 3728 
L 6250 3728 
L 6250 3303 
L 3438 3303 
L 3438 2759 
L 5506 2759 
L 5506 172 
L 5038 172 
L 5038 359 
L 1369 359 
L 1369 172 
L 900 172 
L 900 2759 
z
M 3744 -134 
L 3925 241 
Q 5250 -109 6156 -422 
L 5956 -847 
Q 4788 -453 3744 -134 
z
M 2344 3728 
L 4069 3728 
L 4069 4328 
L 2344 4328 
L 2344 3728 
z
M 2325 241 
L 2600 -153 
Q 1513 -622 456 -909 
Q 369 -722 238 -484 
Q 1363 -209 2325 241 
z
M 5038 2347 
L 3438 2347 
L 3438 1759 
L 5038 1759 
L 5038 2347 
z
M 3438 772 
L 5038 772 
L 5038 1359 
L 3438 1359 
L 3438 772 
z
M 1369 1759 
L 2963 1759 
L 2963 2347 
L 1369 2347 
L 1369 1759 
z
M 1369 772 
L 2963 772 
L 2963 1359 
L 1369 1359 
L 1369 772 
z
" transform="scale(0.015625)"/>
     <path id="MicrosoftYaHei-28" d="M 1531 -1100 
Q 478 100 478 1847 
Q 478 3594 1531 4841 
L 2072 4841 
Q 1016 3544 1016 1853 
Q 1016 166 2066 -1100 
L 1531 -1100 
z
" transform="scale(0.015625)"/>
     <path id="MicrosoftYaHei-43" d="M 3938 200 
Q 3403 -81 2597 -81 
Q 1556 -81 934 580 
Q 313 1241 313 2328 
Q 313 3497 1013 4209 
Q 1713 4922 2791 4922 
Q 3484 4922 3938 4725 
L 3938 4072 
Q 3419 4359 2797 4359 
Q 1988 4359 1478 3820 
Q 969 3281 969 2366 
Q 969 1497 1444 986 
Q 1919 475 2688 475 
Q 3406 475 3938 800 
L 3938 200 
z
" transform="scale(0.015625)"/>
     <path id="MicrosoftYaHei-4f" d="M 313 2363 
Q 313 3534 947 4228 
Q 1581 4922 2666 4922 
Q 3675 4922 4290 4244 
Q 4906 3566 4906 2478 
Q 4906 1300 4275 609 
Q 3644 -81 2588 -81 
Q 1556 -81 934 597 
Q 313 1275 313 2363 
z
M 969 2413 
Q 969 1534 1417 1004 
Q 1866 475 2588 475 
Q 3363 475 3805 983 
Q 4247 1491 4247 2403 
Q 4247 3341 3814 3850 
Q 3381 4359 2628 4359 
Q 1888 4359 1428 3821 
Q 969 3284 969 2413 
z
" transform="scale(0.015625)"/>
     <path id="MicrosoftYaHei-4d" d="M 5003 0 
L 5003 3206 
Q 5003 3603 5050 4159 
L 5034 4159 
Q 4953 3809 4891 3672 
L 3294 0 
L 2947 0 
L 1353 3644 
Q 1297 3769 1209 4159 
L 1191 4159 
Q 1222 3822 1222 3178 
L 1222 0 
L 625 0 
L 625 4841 
L 1472 4841 
L 2900 1522 
Q 3063 1141 3116 928 
L 3138 928 
Q 3300 1375 3366 1534 
L 4819 4841 
L 5625 4841 
L 5625 0 
L 5003 0 
z
" transform="scale(0.015625)"/>
     <path id="MicrosoftYaHei-45" d="M 3228 0 
L 625 0 
L 625 4841 
L 3119 4841 
L 3119 4284 
L 1250 4284 
L 1250 2734 
L 2981 2734 
L 2981 2181 
L 1250 2181 
L 1250 553 
L 3228 553 
L 3228 0 
z
" transform="scale(0.015625)"/>
     <path id="MicrosoftYaHei-58" d="M 4034 0 
L 3275 0 
L 2194 1822 
Q 2156 1884 2084 2072 
L 2069 2072 
Q 2063 2047 1956 1819 
L 844 0 
L 81 0 
L 1691 2431 
L 209 4841 
L 975 4841 
L 1931 3166 
Q 2016 3019 2100 2822 
L 2113 2822 
Q 2188 2991 2297 3181 
L 3297 4841 
L 4013 4841 
L 2500 2441 
L 4034 0 
z
" transform="scale(0.015625)"/>
     <path id="MicrosoftYaHei-29" d="M 78 -1100 
Q 1131 163 1131 1853 
Q 1131 3547 72 4841 
L 616 4841 
Q 1672 3603 1672 1847 
Q 1672 91 616 -1100 
L 78 -1100 
z
" transform="scale(0.015625)"/>
     <path id="MicrosoftYaHei-20" transform="scale(0.015625)"/>
     <path id="MicrosoftYaHei-2f" d="M 2791 4841 
L 469 -803 
L -103 -803 
L 2219 4841 
L 2791 4841 
z
" transform="scale(0.015625)"/>
     <path id="MicrosoftYaHei-539f" d="M 1950 3853 
L 3081 3853 
Q 3200 4153 3306 4472 
L 1256 4472 
L 1256 2772 
Q 1256 1322 1088 634 
Q 919 -103 394 -866 
Q 238 -653 44 -434 
Q 475 209 613 834 
Q 756 1428 756 2659 
L 756 4928 
L 6219 4928 
L 6219 4472 
L 3856 4472 
Q 3716 4134 3584 3853 
L 5719 3853 
L 5719 1291 
L 5250 1291 
L 5250 1416 
L 4094 1416 
L 4094 16 
Q 4094 -772 3381 -766 
Q 3163 -766 2594 -753 
Q 2569 -516 2513 -209 
Q 3000 -272 3281 -272 
Q 3594 -272 3594 91 
L 3594 1416 
L 2419 1416 
L 2419 1291 
L 1950 1291 
L 1950 3853 
z
M 2419 1834 
L 5250 1834 
L 5250 2434 
L 2419 2434 
L 2419 1834 
z
M 5250 3434 
L 2419 3434 
L 2419 2841 
L 5250 2841 
L 5250 3434 
z
M 2488 1172 
L 2919 891 
Q 2313 -9 1613 -703 
Q 1450 -566 1206 -397 
Q 1838 184 2488 1172 
z
M 4925 1159 
Q 5738 391 6313 -266 
L 5894 -641 
Q 5294 122 4556 859 
L 4925 1159 
z
" transform="scale(0.015625)"/>
     <path id="MicrosoftYaHei-57" d="M 6431 4841 
L 5075 0 
L 4347 0 
L 3372 3488 
Q 3306 3725 3294 3988 
L 3281 3988 
Q 3263 3728 3194 3494 
L 2209 0 
L 1488 0 
L 84 4841 
L 775 4841 
L 1763 1184 
Q 1828 938 1841 688 
L 1859 688 
Q 1875 875 1963 1184 
L 3009 4841 
L 3625 4841 
L 4625 1156 
Q 4675 975 4706 694 
L 4719 694 
Q 4734 897 4809 1169 
L 5759 4841 
L 6431 4841 
z
" transform="scale(0.015625)"/>
     <path id="MicrosoftYaHei-54" d="M 3550 4284 
L 2153 4284 
L 2153 0 
L 1525 0 
L 1525 4284 
L 134 4284 
L 134 4841 
L 3550 4841 
L 3550 4284 
z
" transform="scale(0.015625)"/>
     <path id="MicrosoftYaHei-49" d="M 1250 4841 
L 1250 0 
L 625 0 
L 625 4841 
L 1250 4841 
z
" transform="scale(0.015625)"/>
     <path id="MicrosoftYaHei-503c" d="M 1619 -216 
L 2250 -216 
L 2250 3653 
L 3725 3653 
L 3725 4222 
L 1913 4222 
L 1913 4647 
L 3725 4647 
L 3725 5309 
L 4200 5309 
L 4200 4647 
L 6169 4647 
L 6169 4222 
L 4200 4222 
L 4200 3653 
L 5713 3653 
L 5713 -216 
L 6306 -216 
L 6306 -641 
L 1619 -641 
L 1619 -216 
z
M 69 2247 
Q 906 3497 1369 5278 
L 1831 5141 
Q 1581 4334 1288 3628 
L 1288 -816 
L 831 -816 
L 831 2666 
Q 563 2166 263 1734 
Q 175 1997 69 2247 
z
M 2713 -216 
L 5250 -216 
L 5250 353 
L 2713 353 
L 2713 -216 
z
M 5250 3241 
L 2713 3241 
L 2713 2678 
L 5250 2678 
L 5250 3241 
z
M 2713 1716 
L 5250 1716 
L 5250 2278 
L 2713 2278 
L 2713 1716 
z
M 2713 753 
L 5250 753 
L 5250 1316 
L 2713 1316 
L 2713 753 
z
" transform="scale(0.015625)"/>
     <path id="MicrosoftYaHei-b7" d="M 372 2113 
Q 372 2278 490 2395 
Q 609 2513 775 2513 
Q 941 2513 1061 2397 
Q 1181 2281 1181 2113 
Q 1181 1950 1064 1831 
Q 947 1713 772 1713 
Q 600 1713 486 1831 
Q 372 1950 372 2113 
z
" transform="scale(0.015625)"/>
     <path id="MicrosoftYaHei-4ece" d="M 3831 5253 
L 4319 5253 
Q 4319 4534 4297 3634 
Q 4703 784 6325 -228 
Q 6100 -478 5919 -709 
Q 4613 244 4128 2325 
Q 3788 428 2181 -822 
Q 1975 -572 1819 -422 
Q 3388 747 3706 2647 
Q 3831 3528 3831 5253 
z
M 1350 5253 
L 1844 5253 
Q 1844 3956 1784 3041 
Q 2600 2163 3200 1453 
L 2819 1072 
Q 2369 1663 1731 2403 
Q 1550 647 419 -753 
Q 275 -578 56 -353 
Q 913 647 1181 2059 
Q 1344 2909 1350 5253 
z
" transform="scale(0.015625)"/>
     <path id="MicrosoftYaHei-6050" d="M 3281 4591 
L 3281 4247 
Q 3281 3078 3106 2666 
Q 2913 2172 2294 1634 
Q 2150 1791 1938 1991 
Q 2488 2447 2650 2866 
Q 2800 3247 2800 4241 
L 2800 5034 
L 5150 5034 
L 5150 2547 
Q 5150 2266 5388 2266 
L 5525 2266 
Q 5744 2266 5781 2566 
Q 5813 2859 5844 3422 
Q 6081 3316 6319 3241 
Q 6269 2741 6213 2391 
Q 6106 1809 5600 1809 
L 5300 1809 
Q 4669 1809 4669 2503 
L 4669 4591 
L 3281 4591 
z
M 88 2666 
Q 538 2759 1025 2878 
L 1025 4434 
L 175 4434 
L 175 4878 
L 2338 4878 
L 2338 4434 
L 1506 4434 
L 1506 2997 
Q 1894 3097 2306 3209 
Q 2288 2884 2288 2728 
Q 1669 2566 156 2141 
L 88 2666 
z
M 1638 1453 
L 2125 1453 
L 2125 241 
Q 2125 -228 2588 -228 
L 3875 -228 
Q 4256 -228 4338 141 
Q 4406 453 4450 872 
Q 4631 791 4931 684 
Q 4844 197 4756 -84 
Q 4594 -666 3919 -666 
L 2463 -666 
Q 1638 -666 1638 184 
L 1638 1453 
z
M 719 1597 
L 1219 1428 
Q 900 453 550 -278 
Q 350 -191 88 -72 
Q 456 709 719 1597 
z
M 4888 1278 
L 5244 1553 
Q 5931 784 6325 272 
L 5906 -59 
Q 5538 472 4888 1278 
z
M 2700 1722 
L 3081 1991 
Q 3556 1434 3944 941 
L 3525 628 
Q 3206 1084 2700 1722 
z
M 3375 3572 
L 3713 3822 
Q 4094 3403 4488 2897 
L 4119 2597 
Q 3819 3047 3375 3572 
z
" transform="scale(0.015625)"/>
     <path id="MicrosoftYaHei-614c" d="M 1888 3416 
L 3869 3416 
Q 3731 3684 3588 3922 
L 4025 4103 
Q 4238 3703 4369 3416 
L 6138 3416 
L 6138 3003 
L 2738 3003 
L 2738 2153 
L 5800 2153 
L 5800 1741 
L 2288 1741 
L 2288 3003 
L 1888 3003 
L 1888 3416 
z
M 888 5266 
L 1331 5266 
L 1331 4253 
L 1588 4416 
Q 1900 3984 2100 3659 
L 1738 3434 
Q 1550 3797 1331 4128 
L 1331 -841 
L 888 -841 
L 888 5266 
z
M 4713 5278 
L 5156 5278 
L 5156 4741 
L 6306 4741 
L 6306 4316 
L 5156 4316 
L 5156 3778 
L 4713 3778 
L 4713 4316 
L 3331 4316 
L 3331 3778 
L 2888 3778 
L 2888 4316 
L 1875 4316 
L 1875 4741 
L 2888 4741 
L 2888 5291 
L 3331 5291 
L 3331 4741 
L 4713 4741 
L 4713 5278 
z
M 4969 1447 
L 5413 1447 
L 5413 -78 
Q 5413 -297 5556 -297 
L 5650 -297 
Q 5806 -297 5838 9 
Q 5875 341 5894 809 
Q 6119 703 6325 628 
Q 6281 134 6238 -166 
Q 6150 -734 5681 -734 
L 5513 -734 
Q 4969 -734 4969 -97 
L 4969 1447 
z
M 2425 1447 
L 2875 1447 
Q 2881 403 2669 -9 
Q 2463 -478 1813 -891 
Q 1681 -709 1500 -516 
Q 2081 -159 2256 222 
Q 2438 566 2425 1447 
z
M 3700 1447 
L 4144 1447 
L 4144 -734 
L 3700 -734 
L 3700 1447 
z
M 331 3884 
L 725 3822 
Q 613 2953 469 2228 
Q 300 2272 69 2322 
Q 225 3028 331 3884 
z
" transform="scale(0.015625)"/>
     <path id="MicrosoftYaHei-907f" d="M 1963 4991 
L 3725 4991 
L 3725 2934 
L 3313 2934 
L 3313 3128 
L 2341 3128 
Q 2309 2753 2244 2416 
L 3769 2416 
L 3769 178 
L 3356 178 
L 3356 459 
L 2638 459 
L 2638 78 
L 2225 78 
L 2225 2313 
Q 2038 1413 1625 747 
Q 1500 934 1338 1147 
Q 1963 2141 1963 3941 
L 1963 4991 
z
M 2644 -203 
L 4069 -228 
L 6275 -178 
Q 6206 -384 6100 -672 
L 3838 -678 
L 2569 -647 
Q 1481 -641 1056 97 
Q 756 -222 313 -759 
L 56 -247 
Q 500 191 869 541 
L 869 2659 
L 119 2659 
L 119 3084 
L 1300 3084 
L 1300 500 
Q 1666 -191 2644 -203 
z
M 3969 1653 
L 4800 1653 
L 4800 2528 
L 3900 2528 
L 3900 2928 
L 6256 2928 
L 6256 2528 
L 5244 2528 
L 5244 1653 
L 6175 1653 
L 6175 1253 
L 5244 1253 
L 5244 16 
L 4800 16 
L 4800 1253 
L 3969 1253 
L 3969 1653 
z
M 3938 4509 
L 4966 4509 
Q 4791 4847 4581 5172 
L 4963 5372 
Q 5194 5034 5369 4691 
L 5028 4509 
L 6175 4509 
L 6175 4109 
L 3938 4109 
L 3938 4509 
z
M 3313 4591 
L 2375 4591 
Q 2375 3928 2366 3528 
L 3313 3528 
L 3313 4591 
z
M 3356 2016 
L 2638 2016 
L 2638 859 
L 3356 859 
L 3356 2016 
z
M 725 5116 
Q 1100 4659 1469 4116 
L 1088 3834 
Q 756 4384 381 4872 
L 725 5116 
z
M 5175 3228 
Q 5438 3578 5631 3978 
L 6006 3784 
Q 5806 3447 5506 3009 
L 5175 3228 
z
M 4075 3778 
L 4400 3966 
Q 4638 3641 4881 3247 
L 4531 3041 
Q 4319 3422 4075 3778 
z
" transform="scale(0.015625)"/>
     <path id="MicrosoftYaHei-9669" d="M 2094 1572 
Q 2288 372 1544 228 
Q 1338 184 969 222 
Q 919 447 850 672 
L 850 -822 
L 400 -822 
L 400 4972 
L 2156 4972 
L 2156 4534 
Q 1806 3403 1600 2797 
Q 2000 2216 2094 1572 
z
M 2013 -128 
L 4556 -128 
Q 5069 1228 5369 2216 
L 5888 2034 
Q 5656 1372 5088 -128 
L 6144 -128 
L 6144 -591 
L 2013 -591 
L 2013 -128 
z
M 4463 5278 
L 4381 5091 
Q 5113 3859 6319 3203 
Q 6113 2953 5975 2766 
Q 4831 3547 4138 4647 
Q 3438 3572 2250 2709 
Q 2131 2872 1925 3103 
Q 3288 4009 3956 5278 
L 4463 5278 
z
M 1363 678 
Q 1794 722 1638 1591 
Q 1550 2078 1113 2728 
Q 1388 3566 1663 4541 
L 850 4541 
L 850 722 
Q 1125 653 1363 678 
z
M 2663 3003 
L 5538 3003 
L 5538 2553 
L 2663 2553 
L 2663 3003 
z
M 2381 1934 
L 2806 2097 
Q 3131 1253 3400 347 
L 2913 191 
Q 2681 1122 2381 1934 
z
M 3619 2166 
L 4063 2303 
Q 4356 1409 4531 666 
L 4031 534 
Q 3875 1391 3619 2166 
z
" transform="scale(0.015625)"/>
     <path id="MicrosoftYaHei-5230" d="M 2856 4122 
Q 3356 3384 3794 2584 
Q 3556 2472 3313 2334 
Q 3203 2566 3088 2791 
Q 1741 2659 531 2534 
L 306 3053 
Q 669 3247 931 3672 
Q 1172 4034 1403 4484 
L 238 4484 
L 238 4947 
L 3825 4947 
L 3825 4484 
L 1994 4484 
Q 1528 3694 1050 3047 
Q 1941 3113 2863 3209 
Q 2656 3569 2431 3909 
L 2856 4122 
z
M 281 1734 
L 1750 1734 
L 1750 2509 
L 2250 2509 
L 2250 1734 
L 3681 1734 
L 3681 1272 
L 2250 1272 
L 2250 172 
Q 2988 266 3769 372 
Q 3769 153 3794 -116 
Q 2025 -334 238 -597 
L 94 -72 
Q 891 9 1750 113 
L 1750 1272 
L 281 1272 
L 281 1734 
z
M 5519 5322 
L 6038 5322 
L 6038 34 
Q 6038 -747 5281 -747 
Q 5025 -747 4369 -741 
Q 4331 -484 4275 -178 
Q 4825 -228 5125 -228 
Q 5519 -234 5519 178 
L 5519 5322 
z
M 4163 4647 
L 4669 4647 
L 4669 666 
L 4163 666 
L 4163 4647 
z
" transform="scale(0.015625)"/>
     <path id="MicrosoftYaHei-6ede" d="M 2525 -372 
L 2063 -372 
L 2063 1841 
L 3638 1841 
L 3638 2466 
L 4113 2466 
L 4113 1841 
L 5756 1841 
L 5756 359 
Q 5756 -328 5113 -334 
Q 4813 -341 4413 -328 
Q 4375 -109 4319 141 
Q 4706 103 4994 103 
Q 5294 103 5294 403 
L 5294 1403 
L 4113 1403 
L 4113 -847 
L 3638 -847 
L 3638 1403 
L 2525 1403 
L 2525 -372 
z
M 1681 4509 
L 2281 4509 
L 2281 5297 
L 2731 5297 
L 2731 4509 
L 3663 4509 
L 3663 5291 
L 4113 5291 
L 4113 4509 
L 5063 4509 
L 5063 5297 
L 5513 5297 
L 5513 4509 
L 6113 4509 
L 6113 4084 
L 5513 4084 
L 5513 3353 
L 5063 3353 
L 5063 4084 
L 4113 4084 
L 4113 3353 
L 3663 3353 
L 3663 4084 
L 2731 4084 
L 2731 3353 
L 2281 3353 
L 2281 4084 
L 1681 4084 
L 1681 4509 
z
M 1631 3116 
L 6163 3116 
L 6163 2022 
L 5688 2022 
L 5688 2678 
L 2106 2678 
L 2106 2028 
L 1631 2028 
L 1631 3116 
z
M 294 -591 
Q 638 441 938 1828 
Q 1213 1709 1444 1634 
Q 1181 609 844 -759 
L 294 -591 
z
M 88 3266 
L 406 3622 
Q 900 3272 1375 2866 
Q 1181 2678 1006 2466 
Q 563 2909 88 3266 
z
M 306 4909 
L 638 5228 
Q 1100 4872 1538 4447 
Q 1288 4247 1156 4091 
Q 788 4516 306 4909 
z
" transform="scale(0.015625)"/>
     <path id="MicrosoftYaHei-80c0" d="M 556 4972 
L 2331 4972 
L 2331 -147 
Q 2331 -672 1875 -741 
Q 1638 -778 1113 -747 
Q 1081 -497 1038 -284 
Q 1381 -322 1638 -322 
Q 1875 -322 1875 -41 
L 1875 1391 
L 1013 1391 
Q 1025 -59 456 -884 
Q 269 -684 69 -534 
Q 588 203 556 1559 
L 556 4972 
z
M 2525 2628 
L 3119 2628 
L 3119 5228 
L 3581 5228 
L 3581 2628 
L 6231 2628 
L 6231 2184 
L 4550 2184 
Q 4956 722 6313 -153 
Q 6113 -347 5938 -578 
Q 4538 484 4113 2184 
L 3581 2184 
L 3581 41 
Q 3988 253 4463 541 
Q 4500 272 4563 47 
Q 4063 -228 3575 -541 
Q 3381 -672 3225 -834 
L 2900 -403 
Q 3119 -184 3119 122 
L 3119 2184 
L 2525 2184 
L 2525 2628 
z
M 3788 3428 
Q 4831 4059 5713 4947 
L 6063 4609 
Q 5144 3722 4063 3041 
L 3788 3428 
z
M 1013 1803 
L 1875 1803 
L 1875 2984 
L 1013 2984 
L 1013 1803 
z
M 1875 4559 
L 1013 4559 
L 1013 3397 
L 1875 3397 
L 1875 4559 
z
" transform="scale(0.015625)"/>
     <path id="MicrosoftYaHei-4ea4" d="M 4194 2641 
L 4675 2434 
Q 4209 1375 3566 713 
Q 4503 19 6225 -278 
Q 5994 -591 5850 -803 
Q 4184 -378 3194 375 
Q 2334 -297 463 -847 
Q 325 -628 150 -366 
Q 1909 78 2803 713 
Q 2184 1344 1738 2359 
L 2156 2597 
Q 2566 1669 3194 1041 
Q 3766 1609 4194 2641 
z
M 194 4384 
L 3122 4384 
Q 2975 4691 2700 5128 
L 3163 5353 
Q 3431 4978 3638 4566 
L 3288 4384 
L 6194 4384 
L 6194 3922 
L 194 3922 
L 194 4384 
z
M 2044 3634 
L 2444 3309 
Q 1569 2391 625 1666 
Q 469 1859 275 2066 
Q 1219 2734 2044 3634 
z
M 4288 3666 
Q 5431 2766 6075 2159 
Q 5900 1984 5700 1753 
Q 4994 2478 3944 3341 
L 4288 3666 
z
" transform="scale(0.015625)"/>
     <path id="MicrosoftYaHei-6613" d="M 919 5022 
L 5519 5022 
L 5519 2422 
L 5031 2422 
L 5031 2672 
L 919 2672 
L 919 5022 
z
M 113 1091 
Q 1113 1634 1806 2566 
L 2250 2397 
Q 2125 2228 2000 2072 
L 5881 2072 
Q 5825 891 5763 247 
Q 5681 -759 4750 -766 
Q 4231 -772 3669 -766 
Q 3631 -497 3575 -234 
Q 4119 -284 4625 -284 
Q 5213 -284 5275 303 
Q 5344 866 5369 1634 
L 4406 1634 
Q 4025 -9 2188 -891 
Q 2025 -684 1838 -466 
Q 3588 253 3919 1634 
L 2969 1634 
Q 2513 303 556 -453 
Q 394 -247 206 -34 
Q 2050 653 2450 1634 
L 1606 1634 
Q 1075 1097 425 691 
Q 294 878 113 1091 
z
M 1406 3109 
L 5031 3109 
L 5031 3634 
L 1406 3634 
L 1406 3109 
z
M 5031 4584 
L 1406 4584 
L 1406 4072 
L 5031 4072 
L 5031 4584 
z
" transform="scale(0.015625)"/>
    </defs>
    <use xlink:href="#MicrosoftYaHei-9ec4"/>
    <use xlink:href="#MicrosoftYaHei-91d1" transform="translate(100 0)"/>
    <use xlink:href="#MicrosoftYaHei-28" transform="translate(200 0)"/>
    <use xlink:href="#MicrosoftYaHei-43" transform="translate(233.398438 0)"/>
    <use xlink:href="#MicrosoftYaHei-4f" transform="translate(298.917969 0)"/>
    <use xlink:href="#MicrosoftYaHei-4d" transform="translate(380.412109 0)"/>
    <use xlink:href="#MicrosoftYaHei-45" transform="translate(478.117188 0)"/>
    <use xlink:href="#MicrosoftYaHei-58" transform="translate(533.597656 0)"/>
    <use xlink:href="#MicrosoftYaHei-29" transform="translate(598.099609 0)"/>
    <use xlink:href="#MicrosoftYaHei-20" transform="translate(631.498047 0)"/>
    <use xlink:href="#MicrosoftYaHei-2f" transform="translate(661.087891 0)"/>
    <use xlink:href="#MicrosoftYaHei-20" transform="translate(703.8125 0)"/>
    <use xlink:href="#MicrosoftYaHei-539f" transform="translate(733.402344 0)"/>
    <use xlink:href="#MicrosoftYaHei-6cb9" transform="translate(833.402344 0)"/>
    <use xlink:href="#MicrosoftYaHei-28" transform="translate(933.402344 0)"/>
    <use xlink:href="#MicrosoftYaHei-57" transform="translate(966.800781 0)"/>
    <use xlink:href="#MicrosoftYaHei-54" transform="translate(1070.558594 0)"/>
    <use xlink:href="#MicrosoftYaHei-49" transform="translate(1127.882812 0)"/>
    <use xlink:href="#MicrosoftYaHei-29" transform="translate(1157.277344 0)"/>
    <use xlink:href="#MicrosoftYaHei-20" transform="translate(1190.675781 0)"/>
    <use xlink:href="#MicrosoftYaHei-6bd4" transform="translate(1220.265625 0)"/>
    <use xlink:href="#MicrosoftYaHei-503c" transform="translate(1320.265625 0)"/>
    <use xlink:href="#MicrosoftYaHei-20" transform="translate(1420.265625 0)"/>
    <use xlink:href="#MicrosoftYaHei-b7" transform="translate(1449.855469 0)"/>
    <use xlink:href="#MicrosoftYaHei-20" transform="translate(1473.927734 0)"/>
    <use xlink:href="#MicrosoftYaHei-4ece" transform="translate(1503.517578 0)"/>
    <use xlink:href="#MicrosoftYaHei-6050" transform="translate(1603.517578 0)"/>
    <use xlink:href="#MicrosoftYaHei-614c" transform="translate(1703.517578 0)"/>
    <use xlink:href="#MicrosoftYaHei-907f" transform="translate(1803.517578 0)"/>
    <use xlink:href="#MicrosoftYaHei-9669" transform="translate(1903.517578 0)"/>
    <use xlink:href="#MicrosoftYaHei-5230" transform="translate(2003.517578 0)"/>
    <use xlink:href="#MicrosoftYaHei-6ede" transform="translate(2103.517578 0)"/>
    <use xlink:href="#MicrosoftYaHei-80c0" transform="translate(2203.517578 0)"/>
    <use xlink:href="#MicrosoftYaHei-4ea4" transform="translate(2303.517578 0)"/>
    <use xlink:href="#MicrosoftYaHei-6613" transform="translate(2403.517578 0)"/>
   </g>
  </g>
  <g id="text_27">
   <!-- 来源: COMEX / NYMEX · 2026-05-26 -->
   <g style="fill: #94a3b8" transform="translate(38.832656 268.727703) scale(0.065 -0.065)">
    <defs>
     <path id="MicrosoftYaHei-6765" d="M 6325 141 
Q 6119 -122 5975 -334 
Q 4344 403 3438 1550 
L 3438 -841 
L 2963 -841 
L 2963 1584 
Q 2050 516 413 -409 
Q 281 -222 75 22 
Q 1706 841 2806 1922 
L 181 1922 
L 181 2359 
L 2963 2359 
L 2963 4003 
L 550 4003 
L 550 4441 
L 2963 4441 
L 2963 5341 
L 3438 5341 
L 3438 4441 
L 5900 4441 
L 5900 4003 
L 3438 4003 
L 3438 2359 
L 6225 2359 
L 6225 1922 
L 3566 1922 
Q 4594 778 6325 141 
z
M 4056 2766 
Q 4631 3378 4950 3828 
L 5381 3497 
Q 4913 2941 4419 2453 
L 4056 2766 
z
M 1075 3509 
L 1438 3803 
Q 1900 3347 2313 2828 
L 1900 2484 
Q 1581 2922 1075 3509 
z
" transform="scale(0.015625)"/>
     <path id="MicrosoftYaHei-6e90" d="M 2931 3741 
L 3744 3741 
Q 3878 4094 4006 4478 
L 2425 4478 
L 2425 2678 
Q 2425 222 1463 -841 
Q 1313 -647 1100 -453 
Q 1963 509 1963 2672 
L 1963 4903 
L 6300 4903 
L 6300 4478 
L 4547 4478 
Q 4375 4103 4194 3741 
L 5844 3741 
L 5844 1178 
L 5394 1178 
L 5394 1341 
L 4588 1341 
L 4588 -128 
Q 4588 -797 3938 -797 
Q 3725 -797 3394 -791 
Q 3363 -603 3306 -359 
Q 3619 -384 3850 -384 
Q 4138 -384 4138 -84 
L 4138 1341 
L 3381 1341 
L 3381 1178 
L 2931 1178 
L 2931 3741 
z
M 831 1878 
Q 1056 1734 1275 1666 
Q 1019 603 700 -766 
L 219 -603 
Q 581 678 831 1878 
z
M 3381 1753 
L 5394 1753 
L 5394 2347 
L 3381 2347 
L 3381 1753 
z
M 5394 3328 
L 3381 3328 
L 3381 2747 
L 5394 2747 
L 5394 3328 
z
M 6288 -241 
L 5894 -541 
Q 5450 128 4931 759 
L 5294 1016 
Q 5863 353 6288 -241 
z
M 2363 -297 
Q 2894 272 3306 984 
L 3706 741 
Q 3231 -16 2731 -584 
L 2363 -297 
z
M 400 3622 
Q 888 3272 1500 2784 
Q 1281 2522 1144 2378 
Q 544 2909 88 3266 
L 400 3622 
z
M 669 5228 
Q 1163 4859 1688 4384 
Q 1469 4172 1313 4003 
Q 769 4541 350 4884 
L 669 5228 
z
" transform="scale(0.015625)"/>
     <path id="MicrosoftYaHei-3a" d="M 372 3134 
Q 372 3303 490 3415 
Q 609 3528 775 3528 
Q 944 3528 1062 3414 
Q 1181 3300 1181 3134 
Q 1181 2969 1065 2853 
Q 950 2738 772 2738 
Q 603 2738 487 2853 
Q 372 2969 372 3134 
z
M 372 322 
Q 372 491 487 606 
Q 603 722 775 722 
Q 950 722 1065 605 
Q 1181 488 1181 322 
Q 1181 159 1065 42 
Q 950 -75 772 -75 
Q 600 -75 486 42 
Q 372 159 372 322 
z
" transform="scale(0.015625)"/>
     <path id="MicrosoftYaHei-4e" d="M 4578 0 
L 3838 0 
L 1403 3766 
Q 1300 3925 1238 4081 
L 1219 4081 
Q 1244 3919 1244 3403 
L 1244 0 
L 625 0 
L 625 4841 
L 1409 4841 
L 3778 1141 
Q 3947 878 3978 806 
L 3991 806 
Q 3959 1013 3959 1513 
L 3959 4841 
L 4578 4841 
L 4578 0 
z
" transform="scale(0.015625)"/>
     <path id="MicrosoftYaHei-59" d="M 3828 4841 
L 2234 1781 
L 2234 0 
L 1606 0 
L 1606 1766 
L 53 4841 
L 769 4841 
L 1816 2697 
Q 1819 2694 1931 2388 
L 1941 2388 
Q 1978 2519 2069 2694 
L 3163 4841 
L 3828 4841 
z
" transform="scale(0.015625)"/>
     <path id="MicrosoftYaHei-32" d="M 2666 3572 
Q 2666 3963 2419 4186 
Q 2172 4409 1747 4409 
Q 1447 4409 1140 4256 
Q 834 4103 569 3819 
L 569 4413 
Q 806 4659 1107 4790 
Q 1409 4922 1816 4922 
Q 2472 4922 2872 4570 
Q 3272 4219 3272 3619 
Q 3272 3084 3026 2693 
Q 2781 2303 2188 1894 
Q 1581 1475 1376 1294 
Q 1172 1113 1090 947 
Q 1009 781 1009 544 
L 3416 544 
L 3416 0 
L 372 0 
L 372 241 
Q 372 659 486 951 
Q 600 1244 862 1520 
Q 1125 1797 1681 2184 
Q 2250 2584 2458 2886 
Q 2666 3188 2666 3572 
z
" transform="scale(0.015625)"/>
     <path id="MicrosoftYaHei-30" d="M 284 2325 
Q 284 3606 709 4264 
Q 1134 4922 1941 4922 
Q 3478 4922 3478 2441 
Q 3478 1216 3045 567 
Q 2613 -81 1831 -81 
Q 1094 -81 689 534 
Q 284 1150 284 2325 
z
M 909 2353 
Q 909 425 1888 425 
Q 2850 425 2850 2384 
Q 2850 4413 1906 4413 
Q 909 4413 909 2353 
z
" transform="scale(0.015625)"/>
     <path id="MicrosoftYaHei-36" d="M 3181 4219 
Q 2803 4413 2391 4413 
Q 1763 4413 1381 3866 
Q 1000 3319 994 2372 
L 1009 2372 
Q 1353 3038 2106 3038 
Q 2734 3038 3109 2628 
Q 3484 2219 3484 1541 
Q 3484 831 3051 375 
Q 2619 -81 1947 -81 
Q 1209 -81 789 495 
Q 369 1072 369 2131 
Q 369 3413 920 4167 
Q 1472 4922 2372 4922 
Q 2888 4922 3181 4781 
L 3181 4219 
z
M 1031 1584 
Q 1031 1106 1286 765 
Q 1541 425 1963 425 
Q 2363 425 2613 719 
Q 2863 1013 2863 1475 
Q 2863 1975 2627 2253 
Q 2391 2531 1956 2531 
Q 1544 2531 1287 2250 
Q 1031 1969 1031 1584 
z
" transform="scale(0.015625)"/>
     <path id="MicrosoftYaHei-2d" d="M 2328 1681 
L 488 1681 
L 488 2153 
L 2328 2153 
L 2328 1681 
z
" transform="scale(0.015625)"/>
     <path id="MicrosoftYaHei-35" d="M 3294 1494 
Q 3294 784 2823 350 
Q 2353 -84 1559 -84 
Q 878 -84 544 119 
L 544 744 
Q 1034 425 1544 425 
Q 2050 425 2361 704 
Q 2672 984 2672 1447 
Q 2672 1909 2348 2167 
Q 2025 2425 1434 2425 
Q 978 2425 613 2384 
L 791 4841 
L 3053 4841 
L 3053 4303 
L 1306 4303 
L 1206 2931 
L 1647 2950 
Q 2416 2950 2855 2567 
Q 3294 2184 3294 1494 
z
" transform="scale(0.015625)"/>
    </defs>
    <use xlink:href="#MicrosoftYaHei-6765"/>
    <use xlink:href="#MicrosoftYaHei-6e90" transform="translate(100 0)"/>
    <use xlink:href="#MicrosoftYaHei-3a" transform="translate(200 0)"/>
    <use xlink:href="#MicrosoftYaHei-20" transform="translate(224.072266 0)"/>
    <use xlink:href="#MicrosoftYaHei-43" transform="translate(253.662109 0)"/>
    <use xlink:href="#MicrosoftYaHei-4f" transform="translate(319.181641 0)"/>
    <use xlink:href="#MicrosoftYaHei-4d" transform="translate(400.675781 0)"/>
    <use xlink:href="#MicrosoftYaHei-45" transform="translate(498.380859 0)"/>
    <use xlink:href="#MicrosoftYaHei-58" transform="translate(553.861328 0)"/>
    <use xlink:href="#MicrosoftYaHei-20" transform="translate(618.363281 0)"/>
    <use xlink:href="#MicrosoftYaHei-2f" transform="translate(647.953125 0)"/>
    <use xlink:href="#MicrosoftYaHei-20" transform="translate(690.677734 0)"/>
    <use xlink:href="#MicrosoftYaHei-4e" transform="translate(720.267578 0)"/>
    <use xlink:href="#MicrosoftYaHei-59" transform="translate(801.566406 0)"/>
    <use xlink:href="#MicrosoftYaHei-4d" transform="translate(861.917969 0)"/>
    <use xlink:href="#MicrosoftYaHei-45" transform="translate(959.623047 0)"/>
    <use xlink:href="#MicrosoftYaHei-58" transform="translate(1015.103516 0)"/>
    <use xlink:href="#MicrosoftYaHei-20" transform="translate(1079.605469 0)"/>
    <use xlink:href="#MicrosoftYaHei-b7" transform="translate(1109.195312 0)"/>
    <use xlink:href="#MicrosoftYaHei-20" transform="translate(1133.267578 0)"/>
    <use xlink:href="#MicrosoftYaHei-32" transform="translate(1162.857422 0)"/>
    <use xlink:href="#MicrosoftYaHei-30" transform="translate(1221.5 0)"/>
    <use xlink:href="#MicrosoftYaHei-32" transform="translate(1280.142578 0)"/>
    <use xlink:href="#MicrosoftYaHei-36" transform="translate(1338.785156 0)"/>
    <use xlink:href="#MicrosoftYaHei-2d" transform="translate(1397.427734 0)"/>
    <use xlink:href="#MicrosoftYaHei-30" transform="translate(1440.689453 0)"/>
    <use xlink:href="#MicrosoftYaHei-35" transform="translate(1499.332031 0)"/>
    <use xlink:href="#MicrosoftYaHei-2d" transform="translate(1557.974609 0)"/>
    <use xlink:href="#MicrosoftYaHei-32" transform="translate(1601.236328 0)"/>
    <use xlink:href="#MicrosoftYaHei-36" transform="translate(1659.878906 0)"/>
   </g>
  </g>
 </g>
 <defs>
  <clipPath id="p4b0ee8d592">
   <rect x="38.832656" y="80.191562" width="314.82" height="175.104"/>
  </clipPath>
 </defs>
</svg>
