<?xml version="1.0" encoding="utf-8" standalone="no"?>
<!DOCTYPE svg PUBLIC "-//W3C//DTD SVG 1.1//EN"
  "http://www.w3.org/Graphics/SVG/1.1/DTD/svg11.dtd">
<svg xmlns:xlink="http://www.w3.org/1999/xlink" width="370.003125pt" height="289.897875pt" viewBox="0 0 370.003125 289.897875" xmlns="http://www.w3.org/2000/svg" version="1.1">
 <metadata>
  <rdf:RDF xmlns:dc="http://purl.org/dc/elements/1.1/" xmlns:cc="http://creativecommons.org/ns#" xmlns:rdf="http://www.w3.org/1999/02/22-rdf-syntax-ns#">
   <cc:Work>
    <dc:type rdf:resource="http://purl.org/dc/dcmitype/StillImage"/>
    <dc:date>2026-06-03T17:34:21.954956</dc:date>
    <dc:format>image/svg+xml</dc:format>
    <dc:creator>
     <cc:Agent>
      <dc:title>Matplotlib v3.10.9, https://matplotlib.org/</dc:title>
     </cc:Agent>
    </dc:creator>
   </cc:Work>
  </rdf:RDF>
 </metadata>
 <defs>
  <style type="text/css">*{stroke-linejoin: round; stroke-linecap: butt}</style>
 </defs>
 <g id="figure_1">
  <g id="patch_1">
   <path d="M 0 289.897875 
L 370.003125 289.897875 
L 370.003125 0 
L 0 0 
z
" style="fill: #ffffff"/>
  </g>
  <g id="axes_1">
   <g id="patch_2">
    <path d="M 44.383125 255.295562 
L 359.203125 255.295562 
L 359.203125 80.191562 
L 44.383125 80.191562 
z
" style="fill: #ffffff"/>
   </g>
   <g id="matplotlib.axis_1">
    <g id="xtick_1">
     <g id="line2d_1"/>
     <g id="text_1">
      <!-- FY26 -->
      <g style="fill: #94a3b8" transform="translate(64.885125 265.989937) scale(0.09 -0.09)">
       <defs>
        <path id="MicrosoftYaHei-Bold-46" d="M 3319 3997 
L 1591 3997 
L 1591 2753 
L 3181 2753 
L 3181 1909 
L 1591 1909 
L 1591 0 
L 559 0 
L 559 4841 
L 3319 4841 
L 3319 3997 
z
" transform="scale(0.015625)"/>
        <path id="MicrosoftYaHei-Bold-59" d="M 4156 4841 
L 2575 1728 
L 2575 0 
L 1544 0 
L 1544 1709 
L 6 4841 
L 1184 4841 
L 1997 2991 
Q 2022 2934 2113 2609 
L 2125 2609 
Q 2163 2828 2228 2981 
L 3063 4841 
L 4156 4841 
z
" transform="scale(0.015625)"/>
        <path id="MicrosoftYaHei-Bold-32" d="M 1500 841 
L 3553 841 
L 3553 0 
L 334 0 
L 334 359 
Q 334 738 473 1050 
Q 613 1363 856 1633 
Q 1100 1903 1613 2266 
Q 2081 2616 2268 2886 
Q 2456 3156 2456 3459 
Q 2456 4113 1744 4113 
Q 1119 4113 550 3613 
L 550 4513 
Q 1184 4922 1975 4922 
Q 2700 4922 3122 4551 
Q 3544 4181 3544 3531 
Q 3544 3169 3422 2876 
Q 3300 2584 3069 2328 
Q 2838 2072 2328 1713 
Q 1838 1363 1669 1172 
Q 1500 981 1500 841 
z
" transform="scale(0.015625)"/>
        <path id="MicrosoftYaHei-Bold-36" d="M 3378 3938 
Q 3009 4147 2575 4147 
Q 2016 4147 1680 3708 
Q 1344 3269 1344 2572 
L 1363 2572 
Q 1709 3103 2391 3103 
Q 3000 3103 3358 2686 
Q 3716 2269 3716 1600 
Q 3716 869 3250 392 
Q 2784 -84 2059 -84 
Q 1228 -84 786 516 
Q 344 1116 344 2159 
Q 344 3388 917 4155 
Q 1491 4922 2513 4922 
Q 3063 4922 3378 4791 
L 3378 3938 
z
M 1378 1591 
Q 1378 1216 1565 953 
Q 1753 691 2059 691 
Q 2369 691 2547 931 
Q 2725 1172 2725 1534 
Q 2725 2350 2053 2350 
Q 1750 2350 1564 2134 
Q 1378 1919 1378 1591 
z
" transform="scale(0.015625)"/>
       </defs>
       <use xlink:href="#MicrosoftYaHei-Bold-46"/>
       <use xlink:href="#MicrosoftYaHei-Bold-59" transform="translate(55.810547 0)"/>
       <use xlink:href="#MicrosoftYaHei-Bold-32" transform="translate(120.654297 0)"/>
       <use xlink:href="#MicrosoftYaHei-Bold-36" transform="translate(182.324219 0)"/>
      </g>
      <!-- Q1 -->
      <g style="fill: #94a3b8" transform="translate(69.406922 276.860531) scale(0.09 -0.09)">
       <defs>
        <path id="MicrosoftYaHei-Bold-51" d="M 256 2356 
Q 256 3494 920 4208 
Q 1584 4922 2675 4922 
Q 3713 4922 4345 4231 
Q 4978 3541 4978 2456 
Q 4978 1325 4319 619 
Q 4278 575 4238 534 
L 5469 -653 
L 3941 -653 
L 3297 3 
Q 2972 -84 2597 -84 
Q 1556 -84 906 598 
Q 256 1281 256 2356 
z
M 1341 2413 
Q 1341 1706 1681 1257 
Q 2022 809 2616 809 
Q 3222 809 3559 1239 
Q 3897 1669 3897 2394 
Q 3897 3150 3569 3589 
Q 3241 4028 2644 4028 
Q 2038 4028 1689 3578 
Q 1341 3128 1341 2413 
z
" transform="scale(0.015625)"/>
        <path id="MicrosoftYaHei-Bold-31" d="M 2716 4947 
L 2716 0 
L 1700 0 
L 1700 3809 
Q 1513 3647 1188 3517 
Q 863 3388 591 3356 
L 591 4222 
Q 1447 4472 2072 4947 
L 2716 4947 
z
" transform="scale(0.015625)"/>
       </defs>
       <use xlink:href="#MicrosoftYaHei-Bold-51"/>
       <use xlink:href="#MicrosoftYaHei-Bold-31" transform="translate(81.835938 0)"/>
      </g>
     </g>
    </g>
    <g id="xtick_2">
     <g id="line2d_2"/>
     <g id="text_2">
      <!-- Q2 -->
      <g style="fill: #94a3b8" transform="translate(132.370922 265.989937) scale(0.09 -0.09)">
       <use xlink:href="#MicrosoftYaHei-Bold-51"/>
       <use xlink:href="#MicrosoftYaHei-Bold-32" transform="translate(81.835938 0)"/>
      </g>
     </g>
    </g>
    <g id="xtick_3">
     <g id="line2d_3"/>
     <g id="text_3">
      <!-- Q3 -->
      <g style="fill: #94a3b8" transform="translate(195.334922 265.989937) scale(0.09 -0.09)">
       <defs>
        <path id="MicrosoftYaHei-Bold-33" d="M 494 1053 
Q 978 691 1625 691 
Q 2034 691 2275 872 
Q 2516 1053 2516 1388 
Q 2516 1731 2230 1912 
Q 1944 2094 1428 2094 
L 997 2094 
L 997 2872 
L 1394 2872 
Q 2369 2872 2369 3528 
Q 2369 4147 1622 4147 
Q 1134 4147 675 3828 
L 675 4663 
Q 1175 4922 1853 4922 
Q 2541 4922 2969 4605 
Q 3397 4288 3397 3725 
Q 3397 2775 2434 2531 
L 2434 2516 
Q 2941 2459 3244 2145 
Q 3547 1831 3547 1381 
Q 3547 691 3042 303 
Q 2538 -84 1697 -84 
Q 950 -84 494 163 
L 494 1053 
z
" transform="scale(0.015625)"/>
       </defs>
       <use xlink:href="#MicrosoftYaHei-Bold-51"/>
       <use xlink:href="#MicrosoftYaHei-Bold-33" transform="translate(81.835938 0)"/>
      </g>
     </g>
    </g>
    <g id="xtick_4">
     <g id="line2d_4"/>
     <g id="text_4">
      <!-- Q4 -->
      <g style="fill: #94a3b8" transform="translate(258.298922 265.989937) scale(0.09 -0.09)">
       <defs>
        <path id="MicrosoftYaHei-Bold-34" d="M 3184 4841 
L 3184 1766 
L 3869 1766 
L 3869 1031 
L 3184 1031 
L 3184 0 
L 2266 0 
L 2266 1031 
L 103 1031 
L 103 1772 
Q 775 2522 1362 3359 
Q 1950 4197 2250 4841 
L 3184 4841 
z
M 997 1766 
L 2266 1766 
L 2266 3541 
Q 2116 3259 1836 2859 
Q 1556 2459 997 1766 
z
" transform="scale(0.015625)"/>
       </defs>
       <use xlink:href="#MicrosoftYaHei-Bold-51"/>
       <use xlink:href="#MicrosoftYaHei-Bold-34" transform="translate(81.835938 0)"/>
      </g>
     </g>
    </g>
    <g id="xtick_5">
     <g id="line2d_5"/>
     <g id="text_5">
      <!-- FY27 -->
      <g style="fill: #94a3b8" transform="translate(316.741125 265.989937) scale(0.09 -0.09)">
       <defs>
        <path id="MicrosoftYaHei-Bold-37" d="M 3675 4225 
Q 3088 3172 2798 2528 
Q 2509 1884 2328 1275 
Q 2147 666 2050 0 
L 966 0 
Q 1122 947 1517 1917 
Q 1913 2888 2609 4009 
L 300 4009 
L 300 4841 
L 3675 4841 
L 3675 4225 
z
" transform="scale(0.015625)"/>
       </defs>
       <use xlink:href="#MicrosoftYaHei-Bold-46"/>
       <use xlink:href="#MicrosoftYaHei-Bold-59" transform="translate(55.810547 0)"/>
       <use xlink:href="#MicrosoftYaHei-Bold-32" transform="translate(120.654297 0)"/>
       <use xlink:href="#MicrosoftYaHei-Bold-37" transform="translate(182.324219 0)"/>
      </g>
      <!-- Q1 -->
      <g style="fill: #94a3b8" transform="translate(321.262922 276.860531) scale(0.09 -0.09)">
       <use xlink:href="#MicrosoftYaHei-Bold-51"/>
       <use xlink:href="#MicrosoftYaHei-Bold-31" transform="translate(81.835938 0)"/>
      </g>
     </g>
    </g>
   </g>
   <g id="matplotlib.axis_2">
    <g id="ytick_1">
     <g id="line2d_6">
      <path d="M 44.383125 255.295562 
L 359.203125 255.295562 
" clip-path="url(#p36e7237850)" style="fill: none; stroke: #e2e8f0; stroke-opacity: 0.6; stroke-width: 0.5; stroke-linecap: square"/>
     </g>
     <g id="line2d_7"/>
     <g id="text_6">
      <!-- 0 -->
      <g style="fill: #94a3b8" transform="translate(35.332656 258.89275) scale(0.09 -0.09)">
       <defs>
        <path id="MicrosoftYaHei-Bold-30" d="M 244 2341 
Q 244 3597 706 4259 
Q 1169 4922 2044 4922 
Q 3713 4922 3713 2453 
Q 3713 1238 3259 577 
Q 2806 -84 1950 -84 
Q 244 -84 244 2341 
z
M 1266 2366 
Q 1266 691 1981 691 
Q 2684 691 2684 2416 
Q 2684 4147 2000 4147 
Q 1266 4147 1266 2366 
z
" transform="scale(0.015625)"/>
       </defs>
       <use xlink:href="#MicrosoftYaHei-Bold-30"/>
      </g>
     </g>
    </g>
    <g id="ytick_2">
     <g id="line2d_8">
      <path d="M 44.383125 223.458472 
L 359.203125 223.458472 
" clip-path="url(#p36e7237850)" style="fill: none; stroke: #e2e8f0; stroke-opacity: 0.6; stroke-width: 0.5; stroke-linecap: square"/>
     </g>
     <g id="line2d_9"/>
     <g id="text_7">
      <!-- 20 -->
      <g style="fill: #94a3b8" transform="translate(29.782187 227.055659) scale(0.09 -0.09)">
       <use xlink:href="#MicrosoftYaHei-Bold-32"/>
       <use xlink:href="#MicrosoftYaHei-Bold-30" transform="translate(61.669922 0)"/>
      </g>
     </g>
    </g>
    <g id="ytick_3">
     <g id="line2d_10">
      <path d="M 44.383125 191.621381 
L 359.203125 191.621381 
" clip-path="url(#p36e7237850)" style="fill: none; stroke: #e2e8f0; stroke-opacity: 0.6; stroke-width: 0.5; stroke-linecap: square"/>
     </g>
     <g id="line2d_11"/>
     <g id="text_8">
      <!-- 40 -->
      <g style="fill: #94a3b8" transform="translate(29.782187 195.218568) scale(0.09 -0.09)">
       <use xlink:href="#MicrosoftYaHei-Bold-34"/>
       <use xlink:href="#MicrosoftYaHei-Bold-30" transform="translate(61.669922 0)"/>
      </g>
     </g>
    </g>
    <g id="ytick_4">
     <g id="line2d_12">
      <path d="M 44.383125 159.78429 
L 359.203125 159.78429 
" clip-path="url(#p36e7237850)" style="fill: none; stroke: #e2e8f0; stroke-opacity: 0.6; stroke-width: 0.5; stroke-linecap: square"/>
     </g>
     <g id="line2d_13"/>
     <g id="text_9">
      <!-- 60 -->
      <g style="fill: #94a3b8" transform="translate(29.782187 163.381477) scale(0.09 -0.09)">
       <use xlink:href="#MicrosoftYaHei-Bold-36"/>
       <use xlink:href="#MicrosoftYaHei-Bold-30" transform="translate(61.669922 0)"/>
      </g>
     </g>
    </g>
    <g id="ytick_5">
     <g id="line2d_14">
      <path d="M 44.383125 127.947199 
L 359.203125 127.947199 
" clip-path="url(#p36e7237850)" style="fill: none; stroke: #e2e8f0; stroke-opacity: 0.6; stroke-width: 0.5; stroke-linecap: square"/>
     </g>
     <g id="line2d_15"/>
     <g id="text_10">
      <!-- 80 -->
      <g style="fill: #94a3b8" transform="translate(29.782187 131.544386) scale(0.09 -0.09)">
       <defs>
        <path id="MicrosoftYaHei-Bold-38" d="M 269 1303 
Q 269 1725 512 2053 
Q 756 2381 1219 2534 
Q 850 2719 648 3003 
Q 447 3288 447 3634 
Q 447 3997 645 4292 
Q 844 4588 1200 4755 
Q 1556 4922 1997 4922 
Q 2441 4922 2800 4758 
Q 3159 4594 3359 4298 
Q 3559 4003 3559 3647 
Q 3559 3309 3339 3018 
Q 3119 2728 2747 2559 
Q 3200 2403 3453 2076 
Q 3706 1750 3706 1313 
Q 3706 697 3228 309 
Q 2750 -78 1988 -78 
Q 1225 -78 747 309 
Q 269 697 269 1303 
z
M 1278 1394 
Q 1278 1056 1472 853 
Q 1666 650 1991 650 
Q 2303 650 2503 853 
Q 2703 1056 2703 1394 
Q 2703 1709 2500 1920 
Q 2297 2131 1991 2131 
Q 1675 2131 1476 1920 
Q 1278 1709 1278 1394 
z
M 1428 3531 
Q 1428 3266 1592 3077 
Q 1756 2888 2006 2888 
Q 2247 2888 2415 3072 
Q 2584 3256 2584 3531 
Q 2584 3806 2420 3997 
Q 2256 4188 2006 4188 
Q 1750 4188 1589 3997 
Q 1428 3806 1428 3531 
z
" transform="scale(0.015625)"/>
       </defs>
       <use xlink:href="#MicrosoftYaHei-Bold-38"/>
       <use xlink:href="#MicrosoftYaHei-Bold-30" transform="translate(61.669922 0)"/>
      </g>
     </g>
    </g>
    <g id="ytick_6">
     <g id="line2d_16">
      <path d="M 44.383125 96.110108 
L 359.203125 96.110108 
" clip-path="url(#p36e7237850)" style="fill: none; stroke: #e2e8f0; stroke-opacity: 0.6; stroke-width: 0.5; stroke-linecap: square"/>
     </g>
     <g id="line2d_17"/>
     <g id="text_11">
      <!-- 100 -->
      <g style="fill: #94a3b8" transform="translate(24.231719 99.707295) scale(0.09 -0.09)">
       <use xlink:href="#MicrosoftYaHei-Bold-31"/>
       <use xlink:href="#MicrosoftYaHei-Bold-30" transform="translate(61.669922 0)"/>
       <use xlink:href="#MicrosoftYaHei-Bold-30" transform="translate(123.339844 0)"/>
      </g>
     </g>
    </g>
    <g id="text_12">
     <!-- 营收 (十亿美元) -->
     <g style="fill: #64748b" transform="translate(17.994375 199.081844) rotate(-90) scale(0.09 -0.09)">
      <defs>
       <path id="MicrosoftYaHei-8425" d="M 863 1059 
L 5538 1059 
L 5538 -847 
L 5063 -847 
L 5063 -534 
L 1338 -534 
L 1338 -847 
L 863 -847 
L 863 1059 
z
M 1313 2984 
L 5088 2984 
L 5088 1422 
L 4613 1422 
L 4613 1566 
L 1788 1566 
L 1788 1422 
L 1313 1422 
L 1313 2984 
z
M 3938 5328 
L 4394 5328 
L 4394 4816 
L 6269 4816 
L 6269 4403 
L 4394 4403 
L 4394 4028 
L 3938 4028 
L 3938 4403 
L 2456 4403 
L 2456 4028 
L 2000 4028 
L 2000 4403 
L 150 4403 
L 150 4816 
L 2000 4816 
L 2000 5328 
L 2456 5328 
L 2456 4816 
L 3938 4816 
L 3938 5328 
z
M 338 3859 
L 6063 3859 
L 6063 2716 
L 5588 2716 
L 5588 3447 
L 813 3447 
L 813 2716 
L 338 2716 
L 338 3859 
z
M 5063 672 
L 1338 672 
L 1338 -147 
L 5063 -147 
L 5063 672 
z
M 4613 2597 
L 1788 2597 
L 1788 1953 
L 4613 1953 
L 4613 2597 
z
" transform="scale(0.015625)"/>
       <path id="MicrosoftYaHei-6536" d="M 2244 2659 
Q 3044 4047 3400 5341 
L 3906 5197 
Q 3706 4619 3488 4091 
L 6213 4091 
L 6213 3628 
L 5478 3628 
Q 5384 1819 4550 681 
Q 5184 119 6350 -297 
Q 6156 -541 5994 -797 
Q 4881 -322 4219 300 
Q 3616 -294 2550 -853 
Q 2419 -647 2231 -434 
Q 3297 100 3878 672 
Q 3156 1575 2944 2916 
Q 2769 2575 2581 2259 
Q 2463 2441 2244 2659 
z
M 1681 5291 
L 2156 5291 
L 2156 -816 
L 1681 -816 
L 1681 1113 
Q 1300 900 906 641 
Q 744 522 588 359 
L 231 778 
Q 425 984 425 1316 
L 425 4416 
L 900 4416 
L 900 1216 
Q 1272 1413 1681 1634 
L 1681 5291 
z
M 4984 3628 
L 3322 3628 
Q 3413 2103 4203 1059 
Q 4916 2063 4984 3628 
z
" transform="scale(0.015625)"/>
       <path id="MicrosoftYaHei-20" transform="scale(0.015625)"/>
       <path id="MicrosoftYaHei-28" d="M 1531 -1100 
Q 478 100 478 1847 
Q 478 3594 1531 4841 
L 2072 4841 
Q 1016 3544 1016 1853 
Q 1016 166 2066 -1100 
L 1531 -1100 
z
" transform="scale(0.015625)"/>
       <path id="MicrosoftYaHei-5341" d="M 156 2978 
L 2913 2978 
L 2913 5284 
L 3488 5284 
L 3488 2978 
L 6250 2978 
L 6250 2472 
L 3488 2472 
L 3488 -828 
L 2913 -828 
L 2913 2472 
L 156 2472 
L 156 2978 
z
" transform="scale(0.015625)"/>
       <path id="MicrosoftYaHei-4ebf" d="M 5794 1653 
Q 5950 1578 6319 1466 
Q 6263 772 6175 259 
Q 6038 -534 5069 -541 
Q 4075 -578 3181 -541 
Q 2350 -497 2175 -9 
Q 2013 491 2569 1266 
Q 3113 2009 5119 4328 
L 2350 4328 
L 2350 4822 
L 5769 4822 
L 5769 4241 
Q 4256 2591 3138 1178 
Q 2613 472 2675 216 
Q 2700 -47 3369 -66 
Q 4131 -97 4888 -59 
Q 5331 -41 5475 66 
Q 5638 172 5688 503 
Q 5750 847 5794 1653 
z
M 88 2209 
Q 1000 3472 1531 5303 
L 2044 5153 
Q 1788 4388 1488 3716 
L 1488 -797 
L 1000 -797 
L 1000 2741 
Q 672 2153 300 1659 
Q 213 1934 88 2209 
z
" transform="scale(0.015625)"/>
       <path id="MicrosoftYaHei-7f8e" d="M 150 2403 
L 2956 2403 
L 2956 2991 
L 663 2991 
L 663 3416 
L 2956 3416 
L 2956 3991 
L 288 3991 
L 288 4416 
L 2259 4416 
Q 1938 4694 1425 5084 
L 1713 5397 
Q 2256 5028 2619 4753 
L 2288 4416 
L 3950 4416 
L 3719 4678 
Q 4213 5022 4613 5372 
L 4981 5022 
Q 4581 4722 4116 4416 
L 6150 4416 
L 6150 3991 
L 3469 3991 
L 3469 3416 
L 5813 3416 
L 5813 2991 
L 3469 2991 
L 3469 2403 
L 6263 2403 
L 6263 1978 
L 150 1978 
L 150 2403 
z
M 6313 -303 
Q 6075 -622 5950 -822 
Q 3897 -419 3216 803 
Q 2606 -488 406 -872 
Q 281 -659 100 -397 
Q 2200 -106 2741 916 
L 238 916 
L 238 1341 
L 2913 1341 
Q 2975 1559 3013 1841 
L 3525 1841 
Q 3475 1566 3413 1341 
L 6200 1341 
L 6200 916 
L 3631 916 
Q 4363 -138 6313 -303 
z
" transform="scale(0.015625)"/>
       <path id="MicrosoftYaHei-5143" d="M 188 3084 
L 6225 3084 
L 6225 2609 
L 4250 2609 
L 4250 172 
Q 4250 -197 4625 -197 
L 5163 -197 
Q 5613 -197 5675 216 
Q 5731 566 5769 1103 
Q 6019 1016 6313 947 
Q 6250 409 6181 47 
Q 6056 -641 5275 -641 
L 4513 -641 
Q 3725 -641 3725 128 
L 3725 2609 
L 2450 2609 
L 2450 2409 
Q 2450 1084 2050 447 
Q 1650 -247 469 -847 
Q 244 -572 100 -428 
Q 1181 103 1556 691 
Q 1925 1253 1925 2384 
L 1925 2609 
L 188 2609 
L 188 3084 
z
M 788 4903 
L 5638 4903 
L 5638 4428 
L 788 4428 
L 788 4903 
z
" transform="scale(0.015625)"/>
       <path id="MicrosoftYaHei-29" d="M 78 -1100 
Q 1131 163 1131 1853 
Q 1131 3547 72 4841 
L 616 4841 
Q 1672 3603 1672 1847 
Q 1672 91 616 -1100 
L 78 -1100 
z
" transform="scale(0.015625)"/>
      </defs>
      <use xlink:href="#MicrosoftYaHei-8425"/>
      <use xlink:href="#MicrosoftYaHei-6536" transform="translate(100 0)"/>
      <use xlink:href="#MicrosoftYaHei-20" transform="translate(200 0)"/>
      <use xlink:href="#MicrosoftYaHei-28" transform="translate(229.589844 0)"/>
      <use xlink:href="#MicrosoftYaHei-5341" transform="translate(262.988281 0)"/>
      <use xlink:href="#MicrosoftYaHei-4ebf" transform="translate(362.988281 0)"/>
      <use xlink:href="#MicrosoftYaHei-7f8e" transform="translate(462.988281 0)"/>
      <use xlink:href="#MicrosoftYaHei-5143" transform="translate(562.988281 0)"/>
      <use xlink:href="#MicrosoftYaHei-29" transform="translate(662.988281 0)"/>
     </g>
    </g>
   </g>
   <g id="patch_3">
    <path d="M 58.550025 255.295562 
L 93.180225 255.295562 
L 93.180225 213.907344 
L 58.550025 213.907344 
z
" clip-path="url(#p36e7237850)" style="fill: #3b82f6; stroke: #ffffff; stroke-width: 1.2; stroke-linejoin: miter"/>
   </g>
   <g id="patch_4">
    <path d="M 121.514025 255.295562 
L 156.144225 255.295562 
L 156.144225 207.539926 
L 121.514025 207.539926 
z
" clip-path="url(#p36e7237850)" style="fill: #3b82f6; stroke: #ffffff; stroke-width: 1.2; stroke-linejoin: miter"/>
   </g>
   <g id="patch_5">
    <path d="M 184.478025 255.295562 
L 219.108225 255.295562 
L 219.108225 199.421468 
L 184.478025 199.421468 
z
" clip-path="url(#p36e7237850)" style="fill: #3b82f6; stroke: #ffffff; stroke-width: 1.2; stroke-linejoin: miter"/>
   </g>
   <g id="patch_6">
    <path d="M 247.442025 255.295562 
L 282.072225 255.295562 
L 282.072225 192.735679 
L 247.442025 192.735679 
z
" clip-path="url(#p36e7237850)" style="fill: #3b82f6; stroke: #ffffff; stroke-width: 1.2; stroke-linejoin: miter"/>
   </g>
   <g id="patch_7">
    <path d="M 310.406025 255.295562 
L 345.036225 255.295562 
L 345.036225 125.400232 
L 310.406025 125.400232 
z
" clip-path="url(#p36e7237850)" style="fill: #f59e0b; stroke: #ffffff; stroke-width: 1.2; stroke-linejoin: miter"/>
   </g>
   <g id="text_13">
    <!-- $26.0B -->
    <g style="fill: #1e293b" transform="translate(60.402703 208.804662) scale(0.09 -0.09)">
     <defs>
      <path id="MicrosoftYaHei-Bold-24" d="M 2253 -706 
L 1775 -706 
L 1775 6 
Q 1072 13 513 316 
L 513 1209 
Q 700 1053 1098 914 
Q 1497 775 1775 766 
L 1775 2050 
Q 1084 2297 757 2645 
Q 431 2994 431 3513 
Q 431 4034 809 4414 
Q 1188 4794 1775 4841 
L 1775 5466 
L 2253 5466 
L 2253 4853 
Q 2947 4822 3300 4631 
L 3300 3756 
Q 2838 4044 2253 4100 
L 2253 2766 
Q 2969 2494 3292 2166 
Q 3616 1838 3616 1334 
Q 3616 784 3253 439 
Q 2891 94 2253 28 
L 2253 -706 
z
M 1775 4088 
Q 1291 3997 1291 3569 
Q 1291 3209 1775 2959 
L 1775 4088 
z
M 2253 781 
Q 2753 859 2753 1288 
Q 2753 1634 2253 1863 
L 2253 781 
z
" transform="scale(0.015625)"/>
      <path id="MicrosoftYaHei-Bold-2e" d="M 313 453 
Q 313 688 491 838 
Q 669 988 916 988 
Q 1166 988 1337 834 
Q 1509 681 1509 453 
Q 1509 213 1337 64 
Q 1166 -84 903 -84 
Q 659 -84 486 69 
Q 313 222 313 453 
z
" transform="scale(0.015625)"/>
      <path id="MicrosoftYaHei-Bold-42" d="M 559 0 
L 559 4841 
L 2278 4841 
Q 3069 4841 3497 4541 
Q 3925 4241 3925 3709 
Q 3925 3316 3659 3019 
Q 3394 2722 2991 2609 
L 2991 2597 
Q 3497 2534 3808 2221 
Q 4119 1909 4119 1438 
Q 4119 778 3650 389 
Q 3181 0 2369 0 
L 559 0 
z
M 1591 4072 
L 1591 2875 
L 2081 2875 
Q 2434 2875 2637 3044 
Q 2841 3213 2841 3516 
Q 2841 4072 2028 4072 
L 1591 4072 
z
M 1591 2097 
L 1591 769 
L 2203 769 
Q 2594 769 2814 950 
Q 3034 1131 3034 1453 
Q 3034 1759 2815 1928 
Q 2597 2097 2194 2097 
L 1591 2097 
z
" transform="scale(0.015625)"/>
     </defs>
     <use xlink:href="#MicrosoftYaHei-Bold-24"/>
     <use xlink:href="#MicrosoftYaHei-Bold-32" transform="translate(61.669922 0)"/>
     <use xlink:href="#MicrosoftYaHei-Bold-36" transform="translate(123.339844 0)"/>
     <use xlink:href="#MicrosoftYaHei-Bold-2e" transform="translate(185.009766 0)"/>
     <use xlink:href="#MicrosoftYaHei-Bold-30" transform="translate(213.574219 0)"/>
     <use xlink:href="#MicrosoftYaHei-Bold-42" transform="translate(275.244141 0)"/>
    </g>
   </g>
   <g id="text_14">
    <!-- $30.0B -->
    <g style="fill: #1e293b" transform="translate(123.366703 202.437244) scale(0.09 -0.09)">
     <use xlink:href="#MicrosoftYaHei-Bold-24"/>
     <use xlink:href="#MicrosoftYaHei-Bold-33" transform="translate(61.669922 0)"/>
     <use xlink:href="#MicrosoftYaHei-Bold-30" transform="translate(123.339844 0)"/>
     <use xlink:href="#MicrosoftYaHei-Bold-2e" transform="translate(185.009766 0)"/>
     <use xlink:href="#MicrosoftYaHei-Bold-30" transform="translate(213.574219 0)"/>
     <use xlink:href="#MicrosoftYaHei-Bold-42" transform="translate(275.244141 0)"/>
    </g>
   </g>
   <g id="text_15">
    <!-- $35.1B -->
    <g style="fill: #1e293b" transform="translate(186.330703 194.318786) scale(0.09 -0.09)">
     <defs>
      <path id="MicrosoftYaHei-Bold-35" d="M 541 125 
L 541 997 
Q 1044 691 1613 691 
Q 2041 691 2283 902 
Q 2525 1113 2525 1472 
Q 2525 2225 1494 2225 
Q 1113 2225 616 2169 
L 797 4841 
L 3359 4841 
L 3359 4009 
L 1613 4009 
L 1544 2991 
Q 1803 3013 2022 3013 
Q 2731 3013 3142 2625 
Q 3553 2238 3553 1575 
Q 3553 844 3056 380 
Q 2559 -84 1706 -84 
Q 1016 -84 541 125 
z
" transform="scale(0.015625)"/>
     </defs>
     <use xlink:href="#MicrosoftYaHei-Bold-24"/>
     <use xlink:href="#MicrosoftYaHei-Bold-33" transform="translate(61.669922 0)"/>
     <use xlink:href="#MicrosoftYaHei-Bold-35" transform="translate(123.339844 0)"/>
     <use xlink:href="#MicrosoftYaHei-Bold-2e" transform="translate(185.009766 0)"/>
     <use xlink:href="#MicrosoftYaHei-Bold-31" transform="translate(213.574219 0)"/>
     <use xlink:href="#MicrosoftYaHei-Bold-42" transform="translate(275.244141 0)"/>
    </g>
   </g>
   <g id="text_16">
    <!-- $39.3B -->
    <g style="fill: #1e293b" transform="translate(249.294703 187.632997) scale(0.09 -0.09)">
     <defs>
      <path id="MicrosoftYaHei-Bold-39" d="M 544 941 
Q 931 691 1456 691 
Q 2628 691 2653 2216 
L 2634 2222 
Q 2316 1731 1650 1731 
Q 1047 1731 658 2154 
Q 269 2578 269 3222 
Q 269 3978 737 4450 
Q 1206 4922 1959 4922 
Q 2744 4922 3191 4325 
Q 3638 3728 3638 2659 
Q 3638 1391 3098 653 
Q 2559 -84 1547 -84 
Q 975 -84 544 100 
L 544 941 
z
M 1259 3313 
Q 1259 2928 1445 2709 
Q 1631 2491 1953 2491 
Q 2241 2491 2427 2700 
Q 2613 2909 2613 3219 
Q 2613 3591 2427 3869 
Q 2241 4147 1928 4147 
Q 1625 4147 1442 3906 
Q 1259 3666 1259 3313 
z
" transform="scale(0.015625)"/>
     </defs>
     <use xlink:href="#MicrosoftYaHei-Bold-24"/>
     <use xlink:href="#MicrosoftYaHei-Bold-33" transform="translate(61.669922 0)"/>
     <use xlink:href="#MicrosoftYaHei-Bold-39" transform="translate(123.339844 0)"/>
     <use xlink:href="#MicrosoftYaHei-Bold-2e" transform="translate(185.009766 0)"/>
     <use xlink:href="#MicrosoftYaHei-Bold-33" transform="translate(213.574219 0)"/>
     <use xlink:href="#MicrosoftYaHei-Bold-42" transform="translate(275.244141 0)"/>
    </g>
   </g>
   <g id="text_17">
    <!-- $81.6B -->
    <g style="fill: #1e293b" transform="translate(312.258703 120.29755) scale(0.09 -0.09)">
     <use xlink:href="#MicrosoftYaHei-Bold-24"/>
     <use xlink:href="#MicrosoftYaHei-Bold-38" transform="translate(61.669922 0)"/>
     <use xlink:href="#MicrosoftYaHei-Bold-31" transform="translate(123.339844 0)"/>
     <use xlink:href="#MicrosoftYaHei-Bold-2e" transform="translate(185.009766 0)"/>
     <use xlink:href="#MicrosoftYaHei-Bold-36" transform="translate(213.574219 0)"/>
     <use xlink:href="#MicrosoftYaHei-Bold-42" transform="translate(275.244141 0)"/>
    </g>
   </g>
   <g id="patch_8">
    <path d="M 317.516605 113.978739 
Q 321.952432 118.943575 325.270905 122.657803 
" style="fill: none; stroke: #dc2626; stroke-width: 1.5; stroke-linecap: round"/>
    <path d="M 324.097297 118.342407 
L 325.270905 122.657803 
L 321.114423 121.007452 
" style="fill: none; stroke: #dc2626; stroke-width: 1.5; stroke-linecap: round"/>
   </g>
   <g id="text_18">
    <!-- +85% YoY -->
    <g style="fill: #dc2626" transform="translate(283.646325 107.25309) scale(0.1 -0.1)">
     <defs>
      <path id="MicrosoftYaHei-Bold-2b" d="M 4072 1653 
L 2766 1653 
L 2766 347 
L 2109 347 
L 2109 1653 
L 797 1653 
L 797 2313 
L 2109 2313 
L 2109 3625 
L 2766 3625 
L 2766 2313 
L 4072 2313 
L 4072 1653 
z
" transform="scale(0.015625)"/>
      <path id="MicrosoftYaHei-Bold-25" d="M 297 3597 
Q 297 4191 626 4548 
Q 956 4906 1519 4906 
Q 2056 4906 2354 4581 
Q 2653 4256 2653 3684 
Q 2653 3097 2322 2744 
Q 1991 2391 1438 2391 
Q 919 2391 608 2722 
Q 297 3053 297 3597 
z
M 984 3631 
Q 984 2959 1478 2959 
Q 1981 2959 1981 3659 
Q 1981 4338 1500 4338 
Q 984 4338 984 3631 
z
M 4938 4841 
L 1791 -3 
L 1006 -3 
L 4147 4841 
L 4938 4841 
z
M 3297 1141 
Q 3297 1741 3631 2095 
Q 3966 2450 4522 2450 
Q 5059 2450 5357 2131 
Q 5656 1813 5656 1234 
Q 5656 641 5322 286 
Q 4988 -69 4438 -69 
Q 3922 -69 3609 264 
Q 3297 597 3297 1141 
z
M 3981 1175 
Q 3981 500 4478 500 
Q 4978 500 4978 1200 
Q 4978 1528 4845 1704 
Q 4713 1881 4491 1881 
Q 3981 1881 3981 1175 
z
" transform="scale(0.015625)"/>
      <path id="MicrosoftYaHei-Bold-20" transform="scale(0.015625)"/>
      <path id="MicrosoftYaHei-Bold-6f" d="M 253 1713 
Q 253 2566 764 3053 
Q 1275 3541 2138 3541 
Q 2972 3541 3462 3061 
Q 3953 2581 3953 1772 
Q 3953 922 3450 419 
Q 2947 -84 2088 -84 
Q 1244 -84 748 398 
Q 253 881 253 1713 
z
M 1275 1725 
Q 1275 691 2119 691 
Q 2928 691 2928 1753 
Q 2928 2766 2113 2766 
Q 1716 2766 1495 2494 
Q 1275 2222 1275 1725 
z
" transform="scale(0.015625)"/>
     </defs>
     <use xlink:href="#MicrosoftYaHei-Bold-2b"/>
     <use xlink:href="#MicrosoftYaHei-Bold-38" transform="translate(76.123047 0)"/>
     <use xlink:href="#MicrosoftYaHei-Bold-35" transform="translate(137.792969 0)"/>
     <use xlink:href="#MicrosoftYaHei-Bold-25" transform="translate(199.462891 0)"/>
     <use xlink:href="#MicrosoftYaHei-Bold-20" transform="translate(292.578125 0)"/>
     <use xlink:href="#MicrosoftYaHei-Bold-59" transform="translate(322.363281 0)"/>
     <use xlink:href="#MicrosoftYaHei-Bold-6f" transform="translate(377.457031 0)"/>
     <use xlink:href="#MicrosoftYaHei-Bold-59" transform="translate(443.179688 0)"/>
    </g>
   </g>
  </g>
  <g id="text_19">
   <!-- 英伟达单季营收 -->
   <g style="fill: #1e293b" transform="translate(44.383125 21.99125) scale(0.14 -0.14)">
    <defs>
     <path id="MicrosoftYaHei-Bold-82f1" d="M 144 4778 
L 1613 4778 
L 1613 5303 
L 2425 5303 
L 2425 4778 
L 3975 4778 
L 3975 5303 
L 4788 5303 
L 4788 4778 
L 6256 4778 
L 6256 4009 
L 4788 4009 
L 4788 3416 
L 3975 3416 
L 3975 4009 
L 2425 4009 
L 2425 3416 
L 1613 3416 
L 1613 4009 
L 144 4009 
L 144 4778 
z
M 163 1728 
L 838 1728 
L 838 3203 
L 2725 3203 
L 2725 3703 
L 3638 3703 
L 3638 3203 
L 5556 3203 
L 5556 1728 
L 6288 1728 
L 6288 959 
L 3816 959 
Q 4581 184 6263 -3 
L 5638 -834 
Q 3938 -506 3200 522 
Q 2522 -481 750 -853 
Q 494 -516 144 -78 
Q 2150 316 2450 959 
L 163 959 
L 163 1728 
z
M 3603 1728 
L 4650 1728 
L 4650 2466 
L 3638 2466 
Q 3638 2116 3603 1728 
z
M 2688 1728 
Q 2725 1994 2725 2466 
L 1744 2466 
L 1744 1728 
L 2688 1728 
z
" transform="scale(0.015625)"/>
     <path id="MicrosoftYaHei-Bold-4f1f" d="M 1238 5334 
L 2044 5109 
Q 1844 4447 1600 3834 
L 1600 -847 
L 775 -847 
L 775 2125 
Q 563 1759 331 1416 
Q 256 1916 94 2541 
Q 763 3616 1238 5334 
z
M 1781 2072 
L 3375 2072 
L 3375 2559 
L 2100 2559 
L 2100 3359 
L 3375 3359 
L 3375 3841 
L 1925 3841 
L 1925 4641 
L 3375 4641 
L 3375 5291 
L 4244 5291 
L 4244 4641 
L 5994 4641 
L 5994 3841 
L 4244 3841 
L 4244 3359 
L 5738 3359 
L 5738 2559 
L 4244 2559 
L 4244 2072 
L 6181 2072 
Q 6147 938 6117 619 
Q 6088 300 5947 97 
Q 5806 -106 5576 -186 
Q 5347 -266 4828 -266 
Q 4631 -266 4475 -253 
Q 4431 153 4363 584 
Q 4600 553 4944 553 
Q 5088 553 5181 617 
Q 5275 681 5284 873 
Q 5294 1066 5306 1266 
L 4244 1266 
L 4244 -847 
L 3375 -847 
L 3375 1266 
L 1781 1266 
L 1781 2072 
z
" transform="scale(0.015625)"/>
     <path id="MicrosoftYaHei-Bold-8fbe" d="M 3169 153 
Q 4625 122 6306 191 
Q 6144 -241 6000 -672 
Q 4244 -678 2744 -641 
Q 1781 -591 1231 9 
Q 988 -253 469 -828 
L 94 97 
Q 281 297 800 759 
L 800 2328 
L 175 2328 
L 175 3153 
L 1638 3153 
L 1638 691 
Q 2181 172 3169 153 
z
M 1875 4003 
L 3369 4003 
Q 3400 4547 3400 5278 
L 4269 5278 
Q 4269 4566 4244 4003 
L 6106 4003 
L 6106 3234 
L 4188 3234 
Q 4163 2991 4125 2791 
Q 5188 1928 6063 1172 
L 5419 441 
Q 4650 1191 3838 1866 
Q 3481 1191 2475 353 
Q 2138 759 1819 1059 
Q 2950 1922 3144 2572 
Q 3238 2791 3300 3234 
L 1875 3234 
L 1875 4003 
z
M 944 5278 
Q 1413 4672 1800 4109 
L 1050 3603 
Q 769 4109 269 4859 
L 944 5278 
z
" transform="scale(0.015625)"/>
     <path id="MicrosoftYaHei-Bold-5355" d="M 606 4403 
L 1750 4403 
Q 1534 4713 1306 5003 
L 2056 5341 
L 2706 4578 
L 2313 4403 
L 3569 4403 
Q 3944 4884 4244 5353 
L 5188 5016 
Q 4969 4781 4628 4403 
L 5806 4403 
L 5806 1297 
L 3644 1297 
L 3644 866 
L 6288 866 
L 6288 97 
L 3644 97 
L 3644 -834 
L 2769 -834 
L 2769 97 
L 113 97 
L 113 866 
L 2769 866 
L 2769 1297 
L 606 1297 
L 606 4403 
z
M 4981 3678 
L 3644 3678 
L 3644 3172 
L 4981 3172 
L 4981 3678 
z
M 1431 3172 
L 2769 3172 
L 2769 3678 
L 1431 3678 
L 1431 3172 
z
M 4981 2022 
L 4981 2528 
L 3644 2528 
L 3644 2022 
L 4981 2022 
z
M 1431 2022 
L 2769 2022 
L 2769 2528 
L 1431 2528 
L 1431 2022 
z
" transform="scale(0.015625)"/>
     <path id="MicrosoftYaHei-Bold-5b63" d="M 131 1091 
L 2850 1091 
L 2850 1253 
L 3594 1641 
L 1344 1641 
L 1344 2066 
Q 903 1841 381 1634 
Q 288 1959 94 2378 
Q 1325 2731 2100 3284 
L 225 3284 
L 225 3922 
L 2813 3922 
L 2813 4366 
L 669 4316 
Q 619 4628 544 4978 
Q 3200 5009 5731 5122 
Q 5738 5103 5856 4441 
L 3619 4384 
L 3619 3922 
L 6175 3922 
L 6175 3284 
L 4238 3284 
Q 5056 2678 6313 2441 
Q 6144 2003 6044 1672 
Q 5459 1847 4969 2091 
L 4969 1634 
L 3906 1091 
L 6263 1091 
L 6263 403 
L 3725 403 
L 3725 16 
Q 3725 -381 3522 -582 
Q 3319 -784 2972 -796 
Q 2625 -809 1863 -809 
Q 1763 -359 1638 -22 
Q 1994 -41 2456 -41 
Q 2850 -41 2850 353 
L 2850 403 
L 131 403 
L 131 1091 
z
M 3619 3081 
L 3619 2453 
L 2813 2453 
L 2813 3078 
Q 2372 2650 1722 2272 
L 4638 2272 
Q 4053 2619 3619 3081 
z
" transform="scale(0.015625)"/>
     <path id="MicrosoftYaHei-Bold-8425" d="M 313 3853 
L 6094 3853 
L 6094 2428 
L 5356 2428 
L 5356 3203 
L 1050 3203 
L 1050 2428 
L 313 2428 
L 313 3853 
z
M 669 1066 
L 5738 1066 
L 5738 -872 
L 4900 -872 
L 4900 -653 
L 1506 -653 
L 1506 -872 
L 669 -872 
L 669 1066 
z
M 1156 2903 
L 5250 2903 
L 5250 1359 
L 1156 1359 
L 1156 2903 
z
M 4900 466 
L 1506 466 
L 1506 -9 
L 4900 -9 
L 4900 466 
z
M 4463 2341 
L 1944 2341 
L 1944 1934 
L 4463 1934 
L 4463 2341 
z
M 4594 3966 
L 3756 3966 
L 3756 4297 
L 2613 4297 
L 2613 3966 
L 1775 3966 
L 1775 4297 
L 144 4297 
L 144 4941 
L 1775 4941 
L 1775 5316 
L 2613 5316 
L 2613 4941 
L 3756 4941 
L 3756 5316 
L 4594 5316 
L 4594 4941 
L 6263 4941 
L 6263 4297 
L 4594 4297 
L 4594 3966 
z
" transform="scale(0.015625)"/>
     <path id="MicrosoftYaHei-Bold-6536" d="M 2450 5297 
L 2450 2941 
Q 3141 3934 3506 5341 
L 4363 5191 
Q 4253 4766 4119 4366 
L 6263 4366 
L 6263 3534 
L 5841 3534 
Q 5647 1928 4963 866 
Q 5528 328 6325 22 
Q 6050 -347 5775 -828 
Q 4988 -416 4413 178 
Q 3806 -447 2950 -872 
Q 2744 -416 2469 -34 
Q 3272 363 3841 897 
Q 3409 1559 3172 2384 
Q 3075 2234 2975 2091 
Q 2756 2469 2450 2844 
L 2450 -841 
L 1638 -841 
L 1638 963 
Q 847 569 456 259 
L 100 1059 
Q 331 1241 331 1528 
L 331 4684 
L 1106 4684 
L 1106 1528 
L 1638 1819 
L 1638 5297 
L 2450 5297 
z
M 4381 1581 
Q 4828 2341 5034 3534 
L 3794 3534 
Q 3756 3450 3716 3366 
Q 3906 2328 4381 1581 
z
" transform="scale(0.015625)"/>
    </defs>
    <use xlink:href="#MicrosoftYaHei-Bold-82f1"/>
    <use xlink:href="#MicrosoftYaHei-Bold-4f1f" transform="translate(100 0)"/>
    <use xlink:href="#MicrosoftYaHei-Bold-8fbe" transform="translate(200 0)"/>
    <use xlink:href="#MicrosoftYaHei-Bold-5355" transform="translate(300 0)"/>
    <use xlink:href="#MicrosoftYaHei-Bold-5b63" transform="translate(400 0)"/>
    <use xlink:href="#MicrosoftYaHei-Bold-8425" transform="translate(500 0)"/>
    <use xlink:href="#MicrosoftYaHei-Bold-6536" transform="translate(600 0)"/>
   </g>
  </g>
  <g id="text_20">
   <!-- FY26 Q1 → FY27 Q1 · 单位: 十亿美元 -->
   <g style="fill: #64748b" transform="translate(44.383125 43.609937) scale(0.09 -0.09)">
    <defs>
     <path id="MicrosoftYaHei-46" d="M 3119 4284 
L 1250 4284 
L 1250 2666 
L 2981 2666 
L 2981 2116 
L 1250 2116 
L 1250 0 
L 625 0 
L 625 4841 
L 3119 4841 
L 3119 4284 
z
" transform="scale(0.015625)"/>
     <path id="MicrosoftYaHei-59" d="M 3828 4841 
L 2234 1781 
L 2234 0 
L 1606 0 
L 1606 1766 
L 53 4841 
L 769 4841 
L 1816 2697 
Q 1819 2694 1931 2388 
L 1941 2388 
Q 1978 2519 2069 2694 
L 3163 4841 
L 3828 4841 
z
" transform="scale(0.015625)"/>
     <path id="MicrosoftYaHei-32" d="M 2666 3572 
Q 2666 3963 2419 4186 
Q 2172 4409 1747 4409 
Q 1447 4409 1140 4256 
Q 834 4103 569 3819 
L 569 4413 
Q 806 4659 1107 4790 
Q 1409 4922 1816 4922 
Q 2472 4922 2872 4570 
Q 3272 4219 3272 3619 
Q 3272 3084 3026 2693 
Q 2781 2303 2188 1894 
Q 1581 1475 1376 1294 
Q 1172 1113 1090 947 
Q 1009 781 1009 544 
L 3416 544 
L 3416 0 
L 372 0 
L 372 241 
Q 372 659 486 951 
Q 600 1244 862 1520 
Q 1125 1797 1681 2184 
Q 2250 2584 2458 2886 
Q 2666 3188 2666 3572 
z
" transform="scale(0.015625)"/>
     <path id="MicrosoftYaHei-36" d="M 3181 4219 
Q 2803 4413 2391 4413 
Q 1763 4413 1381 3866 
Q 1000 3319 994 2372 
L 1009 2372 
Q 1353 3038 2106 3038 
Q 2734 3038 3109 2628 
Q 3484 2219 3484 1541 
Q 3484 831 3051 375 
Q 2619 -81 1947 -81 
Q 1209 -81 789 495 
Q 369 1072 369 2131 
Q 369 3413 920 4167 
Q 1472 4922 2372 4922 
Q 2888 4922 3181 4781 
L 3181 4219 
z
M 1031 1584 
Q 1031 1106 1286 765 
Q 1541 425 1963 425 
Q 2363 425 2613 719 
Q 2863 1013 2863 1475 
Q 2863 1975 2627 2253 
Q 2391 2531 1956 2531 
Q 1544 2531 1287 2250 
Q 1031 1969 1031 1584 
z
" transform="scale(0.015625)"/>
     <path id="MicrosoftYaHei-51" d="M 313 2363 
Q 313 3534 947 4228 
Q 1581 4922 2666 4922 
Q 3675 4922 4290 4244 
Q 4906 3566 4906 2478 
Q 4906 1300 4275 609 
Q 4125 447 3953 322 
L 5313 -653 
L 4284 -653 
L 3366 28 
Q 3009 -81 2588 -81 
Q 1556 -81 934 597 
Q 313 1275 313 2363 
z
M 969 2413 
Q 969 1534 1417 1004 
Q 1866 475 2588 475 
Q 3363 475 3805 983 
Q 4247 1491 4247 2403 
Q 4247 3341 3814 3850 
Q 3381 4359 2628 4359 
Q 1888 4359 1428 3821 
Q 969 3284 969 2413 
z
" transform="scale(0.015625)"/>
     <path id="MicrosoftYaHei-31" d="M 1781 0 
L 1781 4141 
Q 1638 3997 1295 3819 
Q 953 3641 663 3569 
L 663 4169 
Q 1047 4275 1484 4508 
Q 1922 4741 2156 4947 
L 2388 4947 
L 2388 0 
L 1781 0 
z
" transform="scale(0.015625)"/>
     <path id="MicrosoftYaHei-2192" d="M 4859 3766 
Q 5241 3344 5514 3125 
Q 5788 2906 6150 2713 
L 6150 2572 
Q 5788 2381 5517 2164 
Q 5247 1947 4859 1519 
L 4622 1519 
Q 4766 1822 4866 1983 
Q 4966 2144 5141 2369 
L 247 2369 
L 247 2916 
L 5141 2916 
Q 4972 3131 4869 3298 
Q 4766 3466 4622 3766 
L 4859 3766 
z
" transform="scale(0.015625)"/>
     <path id="MicrosoftYaHei-37" d="M 3422 4463 
Q 2659 3131 2223 1998 
Q 1788 866 1684 0 
L 1047 0 
Q 1163 853 1594 1947 
Q 2025 3041 2747 4300 
L 347 4300 
L 347 4841 
L 3422 4841 
L 3422 4463 
z
" transform="scale(0.015625)"/>
     <path id="MicrosoftYaHei-b7" d="M 372 2113 
Q 372 2278 490 2395 
Q 609 2513 775 2513 
Q 941 2513 1061 2397 
Q 1181 2281 1181 2113 
Q 1181 1950 1064 1831 
Q 947 1713 772 1713 
Q 600 1713 486 1831 
Q 372 1950 372 2113 
z
" transform="scale(0.015625)"/>
     <path id="MicrosoftYaHei-5355" d="M 125 909 
L 2956 909 
L 2956 1616 
L 1225 1616 
L 1225 1322 
L 750 1322 
L 750 4353 
L 2047 4353 
Q 1747 4703 1400 5072 
L 1756 5366 
Q 2219 4922 2569 4547 
L 2338 4353 
L 3803 4353 
Q 4147 4809 4500 5347 
L 5000 5078 
Q 4678 4688 4378 4353 
L 5656 4353 
L 5656 1322 
L 5181 1322 
L 5181 1616 
L 3444 1616 
L 3444 909 
L 6275 909 
L 6275 459 
L 3444 459 
L 3444 -859 
L 2956 -859 
L 2956 459 
L 125 459 
L 125 909 
z
M 3444 2053 
L 5181 2053 
L 5181 2778 
L 3444 2778 
L 3444 2053 
z
M 1225 2053 
L 2956 2053 
L 2956 2778 
L 1225 2778 
L 1225 2053 
z
M 5181 3916 
L 3444 3916 
L 3444 3203 
L 5181 3203 
L 5181 3916 
z
M 1225 3203 
L 2956 3203 
L 2956 3916 
L 1225 3916 
L 1225 3203 
z
" transform="scale(0.015625)"/>
     <path id="MicrosoftYaHei-4f4d" d="M 1788 -59 
L 4228 -59 
Q 4678 1144 5269 3372 
L 5831 3203 
Q 5453 2044 4756 -59 
L 6319 -59 
L 6319 -522 
L 1788 -522 
L 1788 -59 
z
M 81 2291 
Q 975 3641 1431 5322 
L 1963 5191 
Q 1703 4397 1406 3709 
L 1406 -853 
L 938 -853 
L 938 2731 
Q 644 2181 319 1716 
Q 231 1953 81 2291 
z
M 1919 4191 
L 4122 4191 
Q 3844 4659 3506 5059 
L 3931 5353 
Q 4206 5034 4613 4497 
L 4150 4191 
L 6206 4191 
L 6206 3728 
L 1919 3728 
L 1919 4191 
z
M 2769 3309 
Q 3181 2184 3669 584 
L 3150 434 
Q 2725 1966 2294 3147 
L 2769 3309 
z
" transform="scale(0.015625)"/>
     <path id="MicrosoftYaHei-3a" d="M 372 3134 
Q 372 3303 490 3415 
Q 609 3528 775 3528 
Q 944 3528 1062 3414 
Q 1181 3300 1181 3134 
Q 1181 2969 1065 2853 
Q 950 2738 772 2738 
Q 603 2738 487 2853 
Q 372 2969 372 3134 
z
M 372 322 
Q 372 491 487 606 
Q 603 722 775 722 
Q 950 722 1065 605 
Q 1181 488 1181 322 
Q 1181 159 1065 42 
Q 950 -75 772 -75 
Q 600 -75 486 42 
Q 372 159 372 322 
z
" transform="scale(0.015625)"/>
    </defs>
    <use xlink:href="#MicrosoftYaHei-46"/>
    <use xlink:href="#MicrosoftYaHei-59" transform="translate(53.125 0)"/>
    <use xlink:href="#MicrosoftYaHei-32" transform="translate(113.476562 0)"/>
    <use xlink:href="#MicrosoftYaHei-36" transform="translate(172.119141 0)"/>
    <use xlink:href="#MicrosoftYaHei-20" transform="translate(230.761719 0)"/>
    <use xlink:href="#MicrosoftYaHei-51" transform="translate(260.351562 0)"/>
    <use xlink:href="#MicrosoftYaHei-31" transform="translate(341.845703 0)"/>
    <use xlink:href="#MicrosoftYaHei-20" transform="translate(400.488281 0)"/>
    <use xlink:href="#MicrosoftYaHei-2192" transform="translate(430.078125 0)"/>
    <use xlink:href="#MicrosoftYaHei-20" transform="translate(530.078125 0)"/>
    <use xlink:href="#MicrosoftYaHei-46" transform="translate(559.667969 0)"/>
    <use xlink:href="#MicrosoftYaHei-59" transform="translate(612.792969 0)"/>
    <use xlink:href="#MicrosoftYaHei-32" transform="translate(673.144531 0)"/>
    <use xlink:href="#MicrosoftYaHei-37" transform="translate(731.787109 0)"/>
    <use xlink:href="#MicrosoftYaHei-20" transform="translate(790.429688 0)"/>
    <use xlink:href="#MicrosoftYaHei-51" transform="translate(820.019531 0)"/>
    <use xlink:href="#MicrosoftYaHei-31" transform="translate(901.513672 0)"/>
    <use xlink:href="#MicrosoftYaHei-20" transform="translate(960.15625 0)"/>
    <use xlink:href="#MicrosoftYaHei-b7" transform="translate(989.746094 0)"/>
    <use xlink:href="#MicrosoftYaHei-20" transform="translate(1013.818359 0)"/>
    <use xlink:href="#MicrosoftYaHei-5355" transform="translate(1043.408203 0)"/>
    <use xlink:href="#MicrosoftYaHei-4f4d" transform="translate(1143.408203 0)"/>
    <use xlink:href="#MicrosoftYaHei-3a" transform="translate(1243.408203 0)"/>
    <use xlink:href="#MicrosoftYaHei-20" transform="translate(1267.480469 0)"/>
    <use xlink:href="#MicrosoftYaHei-5341" transform="translate(1297.070312 0)"/>
    <use xlink:href="#MicrosoftYaHei-4ebf" transform="translate(1397.070312 0)"/>
    <use xlink:href="#MicrosoftYaHei-7f8e" transform="translate(1497.070312 0)"/>
    <use xlink:href="#MicrosoftYaHei-5143" transform="translate(1597.070312 0)"/>
   </g>
  </g>
  <g id="text_21">
   <!-- 来源: NVIDIA IR · 2026-05-27 -->
   <g style="fill: #94a3b8" transform="translate(44.383125 268.727703) scale(0.065 -0.065)">
    <defs>
     <path id="MicrosoftYaHei-6765" d="M 6325 141 
Q 6119 -122 5975 -334 
Q 4344 403 3438 1550 
L 3438 -841 
L 2963 -841 
L 2963 1584 
Q 2050 516 413 -409 
Q 281 -222 75 22 
Q 1706 841 2806 1922 
L 181 1922 
L 181 2359 
L 2963 2359 
L 2963 4003 
L 550 4003 
L 550 4441 
L 2963 4441 
L 2963 5341 
L 3438 5341 
L 3438 4441 
L 5900 4441 
L 5900 4003 
L 3438 4003 
L 3438 2359 
L 6225 2359 
L 6225 1922 
L 3566 1922 
Q 4594 778 6325 141 
z
M 4056 2766 
Q 4631 3378 4950 3828 
L 5381 3497 
Q 4913 2941 4419 2453 
L 4056 2766 
z
M 1075 3509 
L 1438 3803 
Q 1900 3347 2313 2828 
L 1900 2484 
Q 1581 2922 1075 3509 
z
" transform="scale(0.015625)"/>
     <path id="MicrosoftYaHei-6e90" d="M 2931 3741 
L 3744 3741 
Q 3878 4094 4006 4478 
L 2425 4478 
L 2425 2678 
Q 2425 222 1463 -841 
Q 1313 -647 1100 -453 
Q 1963 509 1963 2672 
L 1963 4903 
L 6300 4903 
L 6300 4478 
L 4547 4478 
Q 4375 4103 4194 3741 
L 5844 3741 
L 5844 1178 
L 5394 1178 
L 5394 1341 
L 4588 1341 
L 4588 -128 
Q 4588 -797 3938 -797 
Q 3725 -797 3394 -791 
Q 3363 -603 3306 -359 
Q 3619 -384 3850 -384 
Q 4138 -384 4138 -84 
L 4138 1341 
L 3381 1341 
L 3381 1178 
L 2931 1178 
L 2931 3741 
z
M 831 1878 
Q 1056 1734 1275 1666 
Q 1019 603 700 -766 
L 219 -603 
Q 581 678 831 1878 
z
M 3381 1753 
L 5394 1753 
L 5394 2347 
L 3381 2347 
L 3381 1753 
z
M 5394 3328 
L 3381 3328 
L 3381 2747 
L 5394 2747 
L 5394 3328 
z
M 6288 -241 
L 5894 -541 
Q 5450 128 4931 759 
L 5294 1016 
Q 5863 353 6288 -241 
z
M 2363 -297 
Q 2894 272 3306 984 
L 3706 741 
Q 3231 -16 2731 -584 
L 2363 -297 
z
M 400 3622 
Q 888 3272 1500 2784 
Q 1281 2522 1144 2378 
Q 544 2909 88 3266 
L 400 3622 
z
M 669 5228 
Q 1163 4859 1688 4384 
Q 1469 4172 1313 4003 
Q 769 4541 350 4884 
L 669 5228 
z
" transform="scale(0.015625)"/>
     <path id="MicrosoftYaHei-4e" d="M 4578 0 
L 3838 0 
L 1403 3766 
Q 1300 3925 1238 4081 
L 1219 4081 
Q 1244 3919 1244 3403 
L 1244 0 
L 625 0 
L 625 4841 
L 1409 4841 
L 3778 1141 
Q 3947 878 3978 806 
L 3991 806 
Q 3959 1013 3959 1513 
L 3959 4841 
L 4578 4841 
L 4578 0 
z
" transform="scale(0.015625)"/>
     <path id="MicrosoftYaHei-56" d="M 4272 4841 
L 2494 0 
L 1800 0 
L 56 4841 
L 750 4841 
L 2053 1056 
Q 2119 869 2150 622 
L 2166 622 
Q 2191 838 2275 1063 
L 3603 4841 
L 4272 4841 
z
" transform="scale(0.015625)"/>
     <path id="MicrosoftYaHei-49" d="M 1250 4841 
L 1250 0 
L 625 0 
L 625 4841 
L 1250 4841 
z
" transform="scale(0.015625)"/>
     <path id="MicrosoftYaHei-44" d="M 625 0 
L 625 4841 
L 2006 4841 
Q 3106 4841 3836 4200 
Q 4566 3559 4566 2481 
Q 4566 1356 3836 678 
Q 3106 0 1956 0 
L 625 0 
z
M 1250 4284 
L 1250 553 
L 1953 553 
Q 2875 553 3392 1056 
Q 3909 1559 3909 2466 
Q 3909 3372 3378 3828 
Q 2847 4284 1981 4284 
L 1250 4284 
z
" transform="scale(0.015625)"/>
     <path id="MicrosoftYaHei-41" d="M 4428 0 
L 3738 0 
L 3244 1325 
L 1228 1325 
L 763 0 
L 72 0 
L 1916 4841 
L 2584 4841 
L 4428 0 
z
M 3050 1872 
L 2319 3884 
Q 2284 3981 2244 4222 
L 2228 4222 
Q 2194 4003 2150 3884 
L 1425 1872 
L 3050 1872 
z
" transform="scale(0.015625)"/>
     <path id="MicrosoftYaHei-52" d="M 4159 0 
L 3422 0 
L 2619 1344 
Q 2378 1747 2178 1892 
Q 1978 2038 1700 2038 
L 1250 2038 
L 1250 0 
L 625 0 
L 625 4841 
L 2100 4841 
Q 2806 4841 3206 4500 
Q 3606 4159 3606 3547 
Q 3606 2541 2531 2241 
L 2531 2225 
Q 2731 2141 2876 1984 
Q 3022 1828 3253 1450 
L 4159 0 
z
M 1250 4294 
L 1250 2584 
L 1988 2584 
Q 2416 2584 2683 2834 
Q 2950 3084 2950 3491 
Q 2950 3869 2706 4081 
Q 2463 4294 1997 4294 
L 1250 4294 
z
" transform="scale(0.015625)"/>
     <path id="MicrosoftYaHei-30" d="M 284 2325 
Q 284 3606 709 4264 
Q 1134 4922 1941 4922 
Q 3478 4922 3478 2441 
Q 3478 1216 3045 567 
Q 2613 -81 1831 -81 
Q 1094 -81 689 534 
Q 284 1150 284 2325 
z
M 909 2353 
Q 909 425 1888 425 
Q 2850 425 2850 2384 
Q 2850 4413 1906 4413 
Q 909 4413 909 2353 
z
" transform="scale(0.015625)"/>
     <path id="MicrosoftYaHei-2d" d="M 2328 1681 
L 488 1681 
L 488 2153 
L 2328 2153 
L 2328 1681 
z
" transform="scale(0.015625)"/>
     <path id="MicrosoftYaHei-35" d="M 3294 1494 
Q 3294 784 2823 350 
Q 2353 -84 1559 -84 
Q 878 -84 544 119 
L 544 744 
Q 1034 425 1544 425 
Q 2050 425 2361 704 
Q 2672 984 2672 1447 
Q 2672 1909 2348 2167 
Q 2025 2425 1434 2425 
Q 978 2425 613 2384 
L 791 4841 
L 3053 4841 
L 3053 4303 
L 1306 4303 
L 1206 2931 
L 1647 2950 
Q 2416 2950 2855 2567 
Q 3294 2184 3294 1494 
z
" transform="scale(0.015625)"/>
    </defs>
    <use xlink:href="#MicrosoftYaHei-6765"/>
    <use xlink:href="#MicrosoftYaHei-6e90" transform="translate(100 0)"/>
    <use xlink:href="#MicrosoftYaHei-3a" transform="translate(200 0)"/>
    <use xlink:href="#MicrosoftYaHei-20" transform="translate(224.072266 0)"/>
    <use xlink:href="#MicrosoftYaHei-4e" transform="translate(253.662109 0)"/>
    <use xlink:href="#MicrosoftYaHei-56" transform="translate(334.960938 0)"/>
    <use xlink:href="#MicrosoftYaHei-49" transform="translate(402.587891 0)"/>
    <use xlink:href="#MicrosoftYaHei-44" transform="translate(431.982422 0)"/>
    <use xlink:href="#MicrosoftYaHei-49" transform="translate(508.154297 0)"/>
    <use xlink:href="#MicrosoftYaHei-41" transform="translate(537.548828 0)"/>
    <use xlink:href="#MicrosoftYaHei-20" transform="translate(607.910156 0)"/>
    <use xlink:href="#MicrosoftYaHei-49" transform="translate(637.5 0)"/>
    <use xlink:href="#MicrosoftYaHei-52" transform="translate(666.894531 0)"/>
    <use xlink:href="#MicrosoftYaHei-20" transform="translate(732.177734 0)"/>
    <use xlink:href="#MicrosoftYaHei-b7" transform="translate(761.767578 0)"/>
    <use xlink:href="#MicrosoftYaHei-20" transform="translate(785.839844 0)"/>
    <use xlink:href="#MicrosoftYaHei-32" transform="translate(815.429688 0)"/>
    <use xlink:href="#MicrosoftYaHei-30" transform="translate(874.072266 0)"/>
    <use xlink:href="#MicrosoftYaHei-32" transform="translate(932.714844 0)"/>
    <use xlink:href="#MicrosoftYaHei-36" transform="translate(991.357422 0)"/>
    <use xlink:href="#MicrosoftYaHei-2d" transform="translate(1050 0)"/>
    <use xlink:href="#MicrosoftYaHei-30" transform="translate(1093.261719 0)"/>
    <use xlink:href="#MicrosoftYaHei-35" transform="translate(1151.904297 0)"/>
    <use xlink:href="#MicrosoftYaHei-2d" transform="translate(1210.546875 0)"/>
    <use xlink:href="#MicrosoftYaHei-32" transform="translate(1253.808594 0)"/>
    <use xlink:href="#MicrosoftYaHei-37" transform="translate(1312.451172 0)"/>
   </g>
  </g>
 </g>
 <defs>
  <clipPath id="p36e7237850">
   <rect x="44.383125" y="80.191562" width="314.82" height="175.104"/>
  </clipPath>
 </defs>
</svg>
