<?xml version="1.0" encoding="utf-8" standalone="no"?>
<!DOCTYPE svg PUBLIC "-//W3C//DTD SVG 1.1//EN"
  "http://www.w3.org/Graphics/SVG/1.1/DTD/svg11.dtd">
<svg xmlns:xlink="http://www.w3.org/1999/xlink" width="352.378281pt" height="207.587312pt" viewBox="0 0 352.378281 207.587312" xmlns="http://www.w3.org/2000/svg" version="1.1">
 <metadata>
  <rdf:RDF xmlns:dc="http://purl.org/dc/elements/1.1/" xmlns:cc="http://creativecommons.org/ns#" xmlns:rdf="http://www.w3.org/1999/02/22-rdf-syntax-ns#">
   <cc:Work>
    <dc:type rdf:resource="http://purl.org/dc/dcmitype/StillImage"/>
    <dc:date>2026-05-21T18:16:16.530954</dc:date>
    <dc:format>image/svg+xml</dc:format>
    <dc:creator>
     <cc:Agent>
      <dc:title>Matplotlib v3.10.9, https://matplotlib.org/</dc:title>
     </cc:Agent>
    </dc:creator>
   </cc:Work>
  </rdf:RDF>
 </metadata>
 <defs>
  <style type="text/css">*{stroke-linejoin: round; stroke-linecap: butt}</style>
 </defs>
 <g id="figure_1">
  <g id="patch_1">
   <path d="M 0 207.587312 
L 352.378281 207.587312 
L 352.378281 0 
L 0 0 
z
" style="fill: #f5f7fa"/>
  </g>
  <g id="axes_1">
   <g id="patch_2">
    <path d="M 35.868281 175.524313 
L 345.178281 175.524313 
L 345.178281 29.522813 
L 35.868281 29.522813 
z
" style="fill: #f5f7fa"/>
   </g>
   <g id="patch_3">
    <path d="M 49.927827 175.524313 
L 86.604902 175.524313 
L 86.604902 147.634282 
L 49.927827 147.634282 
z
" clip-path="url(#pbd1072096d)" style="fill: #1a56db; stroke: #ffffff; stroke-width: 0.5; stroke-linejoin: miter"/>
   </g>
   <g id="patch_4">
    <path d="M 111.056285 175.524313 
L 147.73336 175.524313 
L 147.73336 144.452198 
L 111.056285 144.452198 
z
" clip-path="url(#pbd1072096d)" style="fill: #1a56db; stroke: #ffffff; stroke-width: 0.5; stroke-linejoin: miter"/>
   </g>
   <g id="patch_5">
    <path d="M 172.184744 175.524313 
L 208.861819 175.524313 
L 208.861819 139.3983 
L 172.184744 139.3983 
z
" clip-path="url(#pbd1072096d)" style="fill: #1a56db; stroke: #ffffff; stroke-width: 0.5; stroke-linejoin: miter"/>
   </g>
   <g id="patch_6">
    <path d="M 233.313202 175.524313 
L 269.990277 175.524313 
L 269.990277 134.157221 
L 233.313202 134.157221 
z
" clip-path="url(#pbd1072096d)" style="fill: #1a56db; stroke: #ffffff; stroke-width: 0.5; stroke-linejoin: miter"/>
   </g>
   <g id="patch_7">
    <path d="M 294.441661 175.524313 
L 331.118736 175.524313 
L 331.118736 66.39755 
L 294.441661 66.39755 
z
" clip-path="url(#pbd1072096d)" style="fill: #d4a017; stroke: #ffffff; stroke-width: 0.5; stroke-linejoin: miter"/>
   </g>
   <g id="matplotlib.axis_1">
    <g id="xtick_1">
     <g id="line2d_1">
      <defs>
       <path id="m5eb8f0229b" d="M 0 0 
L 0 3.5 
" style="stroke: #64748b; stroke-width: 0.8"/>
      </defs>
      <g>
       <use xlink:href="#m5eb8f0229b" x="68.266364" y="175.524313" style="fill: #64748b; stroke: #64748b; stroke-width: 0.8"/>
      </g>
     </g>
     <g id="text_1">
      <!-- FY26 -->
      <g style="fill: #64748b" transform="translate(60.098864 188.876812) scale(0.08 -0.08)">
       <defs>
        <path id="NotoSansSC-Thin-46" d="M 704 0 
L 704 4646 
L 3187 4646 
L 3187 4435 
L 941 4435 
L 941 2496 
L 2835 2496 
L 2835 2291 
L 941 2291 
L 941 0 
L 704 0 
z
" transform="scale(0.015625)"/>
        <path id="NotoSansSC-Thin-59" d="M 1421 0 
L 1421 1907 
L 26 4646 
L 282 4646 
L 1018 3149 
Q 1146 2893 1267 2646 
Q 1389 2400 1530 2144 
L 1555 2144 
Q 1696 2400 1827 2646 
Q 1958 2893 2074 3149 
L 2816 4646 
L 3053 4646 
L 1658 1907 
L 1658 0 
L 1421 0 
z
" transform="scale(0.015625)"/>
        <path id="NotoSansSC-Thin-32" d="M 294 0 
L 294 147 
Q 1120 858 1613 1434 
Q 2106 2010 2323 2499 
Q 2541 2989 2541 3424 
Q 2541 3725 2435 3974 
Q 2330 4224 2106 4371 
Q 1882 4518 1523 4518 
Q 1210 4518 931 4352 
Q 653 4186 442 3923 
L 282 4070 
Q 525 4346 829 4538 
Q 1133 4730 1542 4730 
Q 1939 4730 2214 4566 
Q 2490 4403 2637 4112 
Q 2784 3821 2784 3424 
Q 2784 2918 2537 2406 
Q 2291 1894 1820 1347 
Q 1350 800 678 179 
Q 870 192 1062 201 
Q 1254 211 1440 211 
L 3014 211 
L 3014 0 
L 294 0 
z
" transform="scale(0.015625)"/>
        <path id="NotoSansSC-Thin-36" d="M 1837 -83 
Q 1498 -83 1232 67 
Q 966 218 780 509 
Q 595 800 496 1216 
Q 397 1632 397 2170 
Q 397 2886 528 3379 
Q 659 3872 889 4169 
Q 1120 4467 1414 4598 
Q 1709 4730 2029 4730 
Q 2330 4730 2550 4614 
Q 2771 4499 2944 4307 
L 2790 4147 
Q 2643 4333 2444 4425 
Q 2246 4518 2022 4518 
Q 1651 4518 1334 4297 
Q 1018 4077 826 3561 
Q 634 3046 634 2170 
Q 634 1581 762 1120 
Q 890 659 1158 393 
Q 1427 128 1850 128 
Q 2125 128 2336 297 
Q 2547 467 2672 752 
Q 2797 1037 2797 1382 
Q 2797 1741 2694 2025 
Q 2592 2310 2368 2476 
Q 2144 2643 1779 2643 
Q 1523 2643 1209 2470 
Q 896 2298 602 1888 
L 602 2176 
Q 768 2381 957 2531 
Q 1146 2682 1360 2762 
Q 1574 2842 1792 2842 
Q 2189 2842 2467 2675 
Q 2746 2509 2893 2185 
Q 3040 1862 3040 1382 
Q 3040 960 2873 630 
Q 2707 301 2435 109 
Q 2163 -83 1837 -83 
z
" transform="scale(0.015625)"/>
       </defs>
       <use xlink:href="#NotoSansSC-Thin-46"/>
       <use xlink:href="#NotoSansSC-Thin-59" transform="translate(51.799988 0)"/>
       <use xlink:href="#NotoSansSC-Thin-32" transform="translate(99.999985 0)"/>
       <use xlink:href="#NotoSansSC-Thin-36" transform="translate(152.099976 0)"/>
      </g>
      <!-- Q1 -->
      <g style="fill: #64748b" transform="translate(63.326364 198.443562) scale(0.08 -0.08)">
       <defs>
        <path id="NotoSansSC-Thin-51" d="M 2285 -83 
Q 1734 -83 1308 217 
Q 883 518 640 1062 
Q 397 1606 397 2336 
Q 397 3072 640 3606 
Q 883 4141 1308 4435 
Q 1734 4730 2285 4730 
Q 2835 4730 3260 4435 
Q 3686 4141 3929 3606 
Q 4173 3072 4173 2336 
Q 4173 1606 3929 1062 
Q 3686 518 3260 217 
Q 2835 -83 2285 -83 
z
M 2285 128 
Q 2778 128 3146 403 
Q 3514 678 3718 1174 
Q 3923 1670 3923 2336 
Q 3923 3002 3718 3488 
Q 3514 3974 3146 4240 
Q 2778 4506 2285 4506 
Q 1798 4506 1427 4240 
Q 1056 3974 851 3488 
Q 646 3002 646 2336 
Q 646 1670 851 1174 
Q 1056 678 1427 403 
Q 1798 128 2285 128 
z
M 3622 -1075 
Q 3232 -1075 2928 -934 
Q 2624 -794 2419 -547 
Q 2214 -301 2112 0 
L 2381 0 
Q 2477 -262 2653 -451 
Q 2829 -640 3081 -739 
Q 3334 -838 3648 -838 
Q 3808 -838 3917 -822 
Q 4026 -806 4109 -781 
L 4166 -998 
Q 4083 -1024 3936 -1049 
Q 3789 -1075 3622 -1075 
z
" transform="scale(0.015625)"/>
        <path id="NotoSansSC-Thin-31" d="M 608 0 
L 608 211 
L 1677 211 
L 1677 4211 
L 864 4211 
L 864 4378 
Q 1133 4422 1344 4492 
Q 1555 4563 1702 4646 
L 1901 4646 
L 1901 211 
L 2899 211 
L 2899 0 
L 608 0 
z
" transform="scale(0.015625)"/>
       </defs>
       <use xlink:href="#NotoSansSC-Thin-51"/>
       <use xlink:href="#NotoSansSC-Thin-31" transform="translate(71.399994 0)"/>
      </g>
     </g>
    </g>
    <g id="xtick_2">
     <g id="line2d_2">
      <g>
       <use xlink:href="#m5eb8f0229b" x="129.394823" y="175.524313" style="fill: #64748b; stroke: #64748b; stroke-width: 0.8"/>
      </g>
     </g>
     <g id="text_2">
      <!-- Q2 -->
      <g style="fill: #64748b" transform="translate(124.454823 188.876812) scale(0.08 -0.08)">
       <use xlink:href="#NotoSansSC-Thin-51"/>
       <use xlink:href="#NotoSansSC-Thin-32" transform="translate(71.399994 0)"/>
      </g>
     </g>
    </g>
    <g id="xtick_3">
     <g id="line2d_3">
      <g>
       <use xlink:href="#m5eb8f0229b" x="190.523281" y="175.524313" style="fill: #64748b; stroke: #64748b; stroke-width: 0.8"/>
      </g>
     </g>
     <g id="text_3">
      <!-- Q3 -->
      <g style="fill: #64748b" transform="translate(185.583281 188.876812) scale(0.08 -0.08)">
       <defs>
        <path id="NotoSansSC-Thin-33" d="M 1619 -83 
Q 1261 -83 998 13 
Q 736 109 544 256 
Q 352 403 211 550 
L 358 717 
Q 563 499 857 313 
Q 1152 128 1632 128 
Q 1952 128 2198 262 
Q 2445 397 2585 640 
Q 2726 883 2726 1210 
Q 2726 1542 2560 1795 
Q 2394 2048 2038 2189 
Q 1683 2330 1114 2330 
L 1114 2554 
Q 1651 2554 1964 2698 
Q 2278 2842 2416 3088 
Q 2554 3334 2554 3629 
Q 2554 4026 2298 4272 
Q 2042 4518 1606 4518 
Q 1293 4518 1017 4374 
Q 742 4230 557 4026 
L 410 4192 
Q 634 4410 925 4570 
Q 1216 4730 1606 4730 
Q 1939 4730 2211 4598 
Q 2483 4467 2643 4224 
Q 2803 3981 2803 3642 
Q 2803 3168 2550 2877 
Q 2298 2586 1926 2464 
L 1926 2438 
Q 2208 2381 2445 2221 
Q 2682 2061 2826 1808 
Q 2970 1555 2970 1222 
Q 2970 826 2790 531 
Q 2611 237 2307 77 
Q 2003 -83 1619 -83 
z
" transform="scale(0.015625)"/>
       </defs>
       <use xlink:href="#NotoSansSC-Thin-51"/>
       <use xlink:href="#NotoSansSC-Thin-33" transform="translate(71.399994 0)"/>
      </g>
     </g>
    </g>
    <g id="xtick_4">
     <g id="line2d_4">
      <g>
       <use xlink:href="#m5eb8f0229b" x="251.65174" y="175.524313" style="fill: #64748b; stroke: #64748b; stroke-width: 0.8"/>
      </g>
     </g>
     <g id="text_4">
      <!-- Q4 -->
      <g style="fill: #64748b" transform="translate(246.71174 188.876812) scale(0.08 -0.08)">
       <defs>
        <path id="NotoSansSC-Thin-34" d="M 2195 0 
L 2195 3482 
Q 2195 3629 2204 3843 
Q 2214 4058 2227 4205 
L 2195 4205 
Q 2112 4058 2019 3901 
Q 1926 3744 1830 3590 
L 422 1568 
L 3110 1568 
L 3110 1363 
L 115 1363 
L 115 1485 
L 2259 4646 
L 2419 4646 
L 2419 0 
L 2195 0 
z
" transform="scale(0.015625)"/>
       </defs>
       <use xlink:href="#NotoSansSC-Thin-51"/>
       <use xlink:href="#NotoSansSC-Thin-34" transform="translate(71.399994 0)"/>
      </g>
     </g>
    </g>
    <g id="xtick_5">
     <g id="line2d_5">
      <g>
       <use xlink:href="#m5eb8f0229b" x="312.780198" y="175.524313" style="fill: #64748b; stroke: #64748b; stroke-width: 0.8"/>
      </g>
     </g>
     <g id="text_5">
      <!-- FY27 -->
      <g style="fill: #64748b" transform="translate(304.612698 188.876812) scale(0.08 -0.08)">
       <defs>
        <path id="NotoSansSC-Thin-37" d="M 1344 0 
Q 1376 717 1462 1318 
Q 1549 1920 1712 2445 
Q 1875 2970 2124 3459 
Q 2374 3949 2726 4435 
L 307 4435 
L 307 4646 
L 3034 4646 
L 3034 4512 
Q 2624 3955 2355 3436 
Q 2086 2918 1932 2384 
Q 1779 1850 1705 1267 
Q 1632 685 1606 0 
L 1344 0 
z
" transform="scale(0.015625)"/>
       </defs>
       <use xlink:href="#NotoSansSC-Thin-46"/>
       <use xlink:href="#NotoSansSC-Thin-59" transform="translate(51.799988 0)"/>
       <use xlink:href="#NotoSansSC-Thin-32" transform="translate(99.999985 0)"/>
       <use xlink:href="#NotoSansSC-Thin-37" transform="translate(152.099976 0)"/>
      </g>
      <!-- Q1 -->
      <g style="fill: #64748b" transform="translate(307.840198 198.443562) scale(0.08 -0.08)">
       <use xlink:href="#NotoSansSC-Thin-51"/>
       <use xlink:href="#NotoSansSC-Thin-31" transform="translate(71.399994 0)"/>
      </g>
     </g>
    </g>
   </g>
   <g id="matplotlib.axis_2">
    <g id="ytick_1">
     <g id="line2d_6">
      <path d="M 35.868281 175.524313 
L 345.178281 175.524313 
" clip-path="url(#pbd1072096d)" style="fill: none; stroke: #64748b; stroke-opacity: 0.2; stroke-width: 0.8; stroke-linecap: square"/>
     </g>
     <g id="line2d_7">
      <defs>
       <path id="m8404df28dc" d="M 0 0 
L -3.5 0 
" style="stroke: #64748b; stroke-width: 0.8"/>
      </defs>
      <g>
       <use xlink:href="#m8404df28dc" x="35.868281" y="175.524313" style="fill: #64748b; stroke: #64748b; stroke-width: 0.8"/>
      </g>
     </g>
     <g id="text_6">
      <!-- 0 -->
      <g style="fill: #64748b" transform="translate(24.700781 178.700562) scale(0.08 -0.08)">
       <defs>
        <path id="NotoSansSC-Thin-30" d="M 1670 -83 
Q 1261 -83 963 179 
Q 666 442 509 979 
Q 352 1517 352 2336 
Q 352 3149 509 3677 
Q 666 4205 963 4467 
Q 1261 4730 1670 4730 
Q 2080 4730 2371 4467 
Q 2662 4205 2822 3677 
Q 2982 3149 2982 2336 
Q 2982 1517 2822 979 
Q 2662 442 2371 179 
Q 2080 -83 1670 -83 
z
M 1670 128 
Q 1997 128 2240 384 
Q 2483 640 2614 1133 
Q 2746 1626 2746 2336 
Q 2746 3040 2614 3529 
Q 2483 4019 2240 4272 
Q 1997 4525 1670 4525 
Q 1344 4525 1101 4272 
Q 858 4019 723 3529 
Q 589 3040 589 2336 
Q 589 1626 723 1133 
Q 858 640 1101 384 
Q 1344 128 1670 128 
z
" transform="scale(0.015625)"/>
       </defs>
       <use xlink:href="#NotoSansSC-Thin-30"/>
      </g>
     </g>
    </g>
    <g id="ytick_2">
     <g id="line2d_8">
      <path d="M 35.868281 156.806171 
L 345.178281 156.806171 
" clip-path="url(#pbd1072096d)" style="fill: none; stroke: #64748b; stroke-opacity: 0.2; stroke-width: 0.8; stroke-linecap: square"/>
     </g>
     <g id="line2d_9">
      <g>
       <use xlink:href="#m8404df28dc" x="35.868281" y="156.806171" style="fill: #64748b; stroke: #64748b; stroke-width: 0.8"/>
      </g>
     </g>
     <g id="text_7">
      <!-- 10 -->
      <g style="fill: #64748b" transform="translate(20.533281 159.982421) scale(0.08 -0.08)">
       <use xlink:href="#NotoSansSC-Thin-31"/>
       <use xlink:href="#NotoSansSC-Thin-30" transform="translate(52.099991 0)"/>
      </g>
     </g>
    </g>
    <g id="ytick_3">
     <g id="line2d_10">
      <path d="M 35.868281 138.08803 
L 345.178281 138.08803 
" clip-path="url(#pbd1072096d)" style="fill: none; stroke: #64748b; stroke-opacity: 0.2; stroke-width: 0.8; stroke-linecap: square"/>
     </g>
     <g id="line2d_11">
      <g>
       <use xlink:href="#m8404df28dc" x="35.868281" y="138.08803" style="fill: #64748b; stroke: #64748b; stroke-width: 0.8"/>
      </g>
     </g>
     <g id="text_8">
      <!-- 20 -->
      <g style="fill: #64748b" transform="translate(20.533281 141.26428) scale(0.08 -0.08)">
       <use xlink:href="#NotoSansSC-Thin-32"/>
       <use xlink:href="#NotoSansSC-Thin-30" transform="translate(52.099991 0)"/>
      </g>
     </g>
    </g>
    <g id="ytick_4">
     <g id="line2d_12">
      <path d="M 35.868281 119.369889 
L 345.178281 119.369889 
" clip-path="url(#pbd1072096d)" style="fill: none; stroke: #64748b; stroke-opacity: 0.2; stroke-width: 0.8; stroke-linecap: square"/>
     </g>
     <g id="line2d_13">
      <g>
       <use xlink:href="#m8404df28dc" x="35.868281" y="119.369889" style="fill: #64748b; stroke: #64748b; stroke-width: 0.8"/>
      </g>
     </g>
     <g id="text_9">
      <!-- 30 -->
      <g style="fill: #64748b" transform="translate(20.533281 122.546139) scale(0.08 -0.08)">
       <use xlink:href="#NotoSansSC-Thin-33"/>
       <use xlink:href="#NotoSansSC-Thin-30" transform="translate(52.099991 0)"/>
      </g>
     </g>
    </g>
    <g id="ytick_5">
     <g id="line2d_14">
      <path d="M 35.868281 100.651748 
L 345.178281 100.651748 
" clip-path="url(#pbd1072096d)" style="fill: none; stroke: #64748b; stroke-opacity: 0.2; stroke-width: 0.8; stroke-linecap: square"/>
     </g>
     <g id="line2d_15">
      <g>
       <use xlink:href="#m8404df28dc" x="35.868281" y="100.651748" style="fill: #64748b; stroke: #64748b; stroke-width: 0.8"/>
      </g>
     </g>
     <g id="text_10">
      <!-- 40 -->
      <g style="fill: #64748b" transform="translate(20.533281 103.827998) scale(0.08 -0.08)">
       <use xlink:href="#NotoSansSC-Thin-34"/>
       <use xlink:href="#NotoSansSC-Thin-30" transform="translate(52.099991 0)"/>
      </g>
     </g>
    </g>
    <g id="ytick_6">
     <g id="line2d_16">
      <path d="M 35.868281 81.933607 
L 345.178281 81.933607 
" clip-path="url(#pbd1072096d)" style="fill: none; stroke: #64748b; stroke-opacity: 0.2; stroke-width: 0.8; stroke-linecap: square"/>
     </g>
     <g id="line2d_17">
      <g>
       <use xlink:href="#m8404df28dc" x="35.868281" y="81.933607" style="fill: #64748b; stroke: #64748b; stroke-width: 0.8"/>
      </g>
     </g>
     <g id="text_11">
      <!-- 50 -->
      <g style="fill: #64748b" transform="translate(20.533281 85.109857) scale(0.08 -0.08)">
       <defs>
        <path id="NotoSansSC-Thin-35" d="M 1581 -83 
Q 1222 -83 963 9 
Q 704 102 515 240 
Q 326 378 186 518 
L 333 691 
Q 467 550 636 422 
Q 806 294 1040 211 
Q 1274 128 1594 128 
Q 1901 128 2166 294 
Q 2432 461 2592 765 
Q 2752 1069 2752 1466 
Q 2752 2061 2441 2406 
Q 2131 2752 1606 2752 
Q 1350 2752 1152 2665 
Q 954 2579 755 2445 
L 563 2560 
L 730 4646 
L 2758 4646 
L 2758 4435 
L 941 4435 
L 787 2726 
Q 966 2835 1168 2902 
Q 1370 2970 1626 2970 
Q 2010 2970 2320 2813 
Q 2630 2656 2812 2326 
Q 2995 1997 2995 1478 
Q 2995 979 2787 630 
Q 2579 282 2256 99 
Q 1933 -83 1581 -83 
z
" transform="scale(0.015625)"/>
       </defs>
       <use xlink:href="#NotoSansSC-Thin-35"/>
       <use xlink:href="#NotoSansSC-Thin-30" transform="translate(52.099991 0)"/>
      </g>
     </g>
    </g>
    <g id="ytick_7">
     <g id="line2d_18">
      <path d="M 35.868281 63.215466 
L 345.178281 63.215466 
" clip-path="url(#pbd1072096d)" style="fill: none; stroke: #64748b; stroke-opacity: 0.2; stroke-width: 0.8; stroke-linecap: square"/>
     </g>
     <g id="line2d_19">
      <g>
       <use xlink:href="#m8404df28dc" x="35.868281" y="63.215466" style="fill: #64748b; stroke: #64748b; stroke-width: 0.8"/>
      </g>
     </g>
     <g id="text_12">
      <!-- 60 -->
      <g style="fill: #64748b" transform="translate(20.533281 66.391716) scale(0.08 -0.08)">
       <use xlink:href="#NotoSansSC-Thin-36"/>
       <use xlink:href="#NotoSansSC-Thin-30" transform="translate(52.099991 0)"/>
      </g>
     </g>
    </g>
    <g id="ytick_8">
     <g id="line2d_20">
      <path d="M 35.868281 44.497325 
L 345.178281 44.497325 
" clip-path="url(#pbd1072096d)" style="fill: none; stroke: #64748b; stroke-opacity: 0.2; stroke-width: 0.8; stroke-linecap: square"/>
     </g>
     <g id="line2d_21">
      <g>
       <use xlink:href="#m8404df28dc" x="35.868281" y="44.497325" style="fill: #64748b; stroke: #64748b; stroke-width: 0.8"/>
      </g>
     </g>
     <g id="text_13">
      <!-- 70 -->
      <g style="fill: #64748b" transform="translate(20.533281 47.673575) scale(0.08 -0.08)">
       <use xlink:href="#NotoSansSC-Thin-37"/>
       <use xlink:href="#NotoSansSC-Thin-30" transform="translate(52.099991 0)"/>
      </g>
     </g>
    </g>
    <g id="text_14">
     <!-- 净利润 (十亿美元) -->
     <g style="fill: #64748b" transform="translate(14.346563 137.705125) rotate(-90) scale(0.09 -0.09)">
      <defs>
       <path id="NotoSansSC-Thin-51c0" d="M 2810 4762 
L 4621 4762 
L 4621 4576 
L 2810 4576 
L 2810 4762 
z
M 2035 1427 
L 5427 1427 
L 5427 1235 
L 2035 1235 
L 2035 1427 
z
M 1664 2560 
L 6074 2560 
L 6074 2374 
L 1664 2374 
L 1664 2560 
z
M 2195 3661 
L 5498 3661 
L 5498 954 
L 5306 954 
L 5306 3469 
L 2195 3469 
L 2195 3661 
z
M 3635 3584 
L 3821 3584 
L 3821 -128 
Q 3821 -262 3776 -326 
Q 3731 -390 3629 -416 
Q 3526 -442 3305 -445 
Q 3085 -448 2707 -448 
Q 2701 -416 2675 -361 
Q 2650 -307 2624 -262 
Q 2944 -269 3181 -269 
Q 3418 -269 3501 -262 
Q 3578 -256 3606 -230 
Q 3635 -205 3635 -134 
L 3635 3584 
z
M 3046 5318 
L 3238 5267 
Q 3066 4877 2842 4502 
Q 2618 4128 2362 3798 
Q 2106 3469 1837 3213 
Q 1824 3232 1795 3257 
Q 1766 3283 1737 3308 
Q 1709 3334 1683 3347 
Q 1958 3590 2211 3907 
Q 2464 4224 2678 4585 
Q 2893 4947 3046 5318 
z
M 4557 4762 
L 4595 4762 
L 4627 4774 
L 4749 4691 
Q 4659 4480 4528 4265 
Q 4397 4051 4253 3859 
Q 4109 3667 3968 3520 
Q 3942 3546 3894 3571 
Q 3846 3597 3814 3616 
Q 3955 3757 4096 3942 
Q 4237 4128 4358 4333 
Q 4480 4538 4557 4717 
L 4557 4762 
z
M 397 4922 
L 544 5011 
Q 730 4806 915 4569 
Q 1101 4333 1257 4105 
Q 1414 3878 1504 3706 
L 1350 3603 
Q 1261 3776 1104 4006 
Q 947 4237 764 4480 
Q 582 4723 397 4922 
z
M 397 -19 
Q 544 237 726 595 
Q 909 954 1088 1344 
Q 1267 1734 1414 2093 
L 1555 1971 
Q 1421 1638 1248 1254 
Q 1075 870 899 508 
Q 723 147 563 -141 
L 397 -19 
z
" transform="scale(0.015625)"/>
       <path id="NotoSansSC-Thin-5229" d="M 358 3360 
L 3379 3360 
L 3379 3174 
L 358 3174 
L 358 3360 
z
M 3930 4570 
L 4115 4570 
L 4115 1094 
L 3930 1094 
L 3930 4570 
z
M 1818 4870 
L 2010 4870 
L 2010 -435 
L 1818 -435 
L 1818 4870 
z
M 5555 5197 
L 5747 5197 
L 5747 -109 
Q 5747 -269 5689 -336 
Q 5632 -403 5523 -429 
Q 5408 -454 5168 -460 
Q 4928 -467 4486 -461 
Q 4480 -435 4464 -406 
Q 4448 -378 4432 -342 
Q 4416 -307 4397 -282 
Q 4768 -288 5037 -288 
Q 5306 -288 5389 -282 
Q 5478 -275 5516 -240 
Q 5555 -205 5555 -115 
L 5555 5197 
z
M 3078 5267 
L 3245 5120 
Q 2912 4986 2435 4874 
Q 1958 4762 1430 4675 
Q 902 4589 410 4525 
Q 403 4563 384 4608 
Q 365 4653 339 4685 
Q 698 4736 1088 4797 
Q 1478 4858 1849 4931 
Q 2221 5005 2541 5088 
Q 2861 5171 3078 5267 
z
M 1792 3290 
L 1958 3226 
Q 1837 2861 1654 2473 
Q 1472 2086 1254 1721 
Q 1037 1357 803 1046 
Q 570 736 346 525 
Q 333 550 307 576 
Q 282 602 259 630 
Q 237 659 218 678 
Q 435 883 662 1177 
Q 890 1472 1104 1824 
Q 1318 2176 1497 2550 
Q 1677 2925 1792 3290 
z
M 1997 2611 
Q 2086 2541 2268 2384 
Q 2451 2227 2662 2041 
Q 2874 1856 3053 1696 
Q 3232 1536 3315 1466 
L 3194 1318 
Q 3104 1408 2928 1571 
Q 2752 1734 2547 1920 
Q 2342 2106 2160 2262 
Q 1978 2419 1869 2496 
L 1997 2611 
z
" transform="scale(0.015625)"/>
       <path id="NotoSansSC-Thin-6da6" d="M 2778 2259 
L 4928 2259 
L 4928 2067 
L 2778 2067 
L 2778 2259 
z
M 2694 3763 
L 5037 3763 
L 5037 3578 
L 2694 3578 
L 2694 3763 
z
M 2586 602 
L 5101 602 
L 5101 422 
L 2586 422 
L 2586 602 
z
M 589 5030 
L 710 5165 
Q 915 5062 1126 4931 
Q 1338 4800 1520 4662 
Q 1702 4525 1818 4403 
L 1702 4250 
Q 1587 4371 1404 4512 
Q 1222 4653 1008 4790 
Q 794 4928 589 5030 
z
M 307 3366 
L 416 3507 
Q 621 3430 829 3321 
Q 1037 3213 1216 3097 
Q 1395 2982 1510 2880 
L 1408 2720 
Q 1286 2822 1104 2940 
Q 922 3059 714 3171 
Q 506 3283 307 3366 
z
M 480 -186 
Q 621 58 787 400 
Q 954 742 1120 1120 
Q 1286 1498 1421 1843 
L 1568 1734 
Q 1440 1408 1283 1040 
Q 1126 672 960 320 
Q 794 -32 646 -307 
L 480 -186 
z
M 3770 3680 
L 3968 3680 
L 3968 525 
L 3770 525 
L 3770 3680 
z
M 5638 5011 
L 5830 5011 
L 5830 -51 
Q 5830 -211 5779 -284 
Q 5728 -358 5600 -390 
Q 5478 -416 5216 -419 
Q 4954 -422 4538 -422 
Q 4531 -397 4515 -361 
Q 4499 -326 4483 -284 
Q 4467 -243 4448 -211 
Q 4698 -218 4909 -221 
Q 5120 -224 5270 -221 
Q 5421 -218 5485 -218 
Q 5574 -211 5606 -176 
Q 5638 -141 5638 -51 
L 5638 5011 
z
M 1946 3981 
L 2131 3981 
L 2131 -416 
L 1946 -416 
L 1946 3981 
z
M 3149 5011 
L 5722 5011 
L 5722 4826 
L 3149 4826 
L 3149 5011 
z
M 1997 5229 
L 2144 5312 
Q 2298 5165 2458 4989 
Q 2618 4813 2752 4640 
Q 2886 4467 2970 4333 
L 2810 4237 
Q 2733 4371 2598 4544 
Q 2464 4717 2307 4899 
Q 2150 5082 1997 5229 
z
" transform="scale(0.015625)"/>
       <path id="NotoSansSC-Thin-20" transform="scale(0.015625)"/>
       <path id="NotoSansSC-Thin-28" d="M 1562 -1222 
Q 1133 -525 883 252 
Q 634 1030 634 1958 
Q 634 2886 883 3667 
Q 1133 4448 1562 5146 
L 1696 5056 
Q 1274 4390 1059 3596 
Q 845 2803 845 1958 
Q 845 1114 1059 320 
Q 1274 -474 1696 -1139 
L 1562 -1222 
z
" transform="scale(0.015625)"/>
       <path id="NotoSansSC-Thin-5341" d="M 397 2835 
L 6048 2835 
L 6048 2650 
L 397 2650 
L 397 2835 
z
M 3110 5306 
L 3302 5306 
L 3302 -448 
L 3110 -448 
L 3110 5306 
z
" transform="scale(0.015625)"/>
       <path id="NotoSansSC-Thin-4ebf" d="M 2515 4525 
L 5568 4525 
L 5568 4333 
L 2515 4333 
L 2515 4525 
z
M 5555 4525 
L 5581 4525 
L 5632 4538 
L 5766 4474 
Q 5760 4461 5744 4448 
Q 5728 4435 5715 4422 
Q 4986 3616 4470 3024 
Q 3955 2432 3612 2019 
Q 3270 1606 3072 1337 
Q 2874 1069 2778 902 
Q 2682 736 2653 637 
Q 2624 538 2624 467 
Q 2624 288 2803 208 
Q 2982 128 3245 128 
L 5229 122 
Q 5408 122 5497 230 
Q 5587 339 5622 640 
Q 5658 941 5677 1510 
Q 5709 1485 5769 1469 
Q 5830 1453 5869 1446 
Q 5850 960 5814 659 
Q 5779 358 5715 201 
Q 5651 45 5536 -9 
Q 5421 -64 5235 -64 
L 3283 -64 
Q 2854 -64 2643 70 
Q 2432 205 2432 461 
Q 2432 544 2457 653 
Q 2483 762 2579 934 
Q 2675 1107 2873 1388 
Q 3072 1670 3414 2089 
Q 3757 2509 4281 3107 
Q 4806 3706 5555 4525 
z
M 2003 5306 
L 2182 5254 
Q 1971 4717 1692 4205 
Q 1414 3693 1091 3248 
Q 768 2803 422 2451 
Q 410 2470 384 2499 
Q 358 2528 332 2560 
Q 307 2592 282 2605 
Q 627 2938 944 3370 
Q 1261 3802 1533 4298 
Q 1805 4794 2003 5306 
z
M 1370 3930 
L 1542 4102 
L 1555 4096 
L 1555 -429 
L 1370 -429 
L 1370 3930 
z
" transform="scale(0.015625)"/>
       <path id="NotoSansSC-Thin-7f8e" d="M 659 4314 
L 5747 4314 
L 5747 4128 
L 659 4128 
L 659 4314 
z
M 998 3405 
L 5434 3405 
L 5434 3219 
L 998 3219 
L 998 3405 
z
M 538 1626 
L 5990 1626 
L 5990 1440 
L 538 1440 
L 538 1626 
z
M 403 2470 
L 6022 2470 
L 6022 2285 
L 403 2285 
L 403 2470 
z
M 3091 4250 
L 3283 4250 
L 3283 2387 
L 3091 2387 
L 3091 4250 
z
M 1517 5235 
L 1677 5318 
Q 1869 5120 2048 4873 
Q 2227 4627 2310 4442 
L 2138 4346 
Q 2054 4538 1878 4787 
Q 1702 5037 1517 5235 
z
M 4666 5318 
L 4838 5216 
Q 4678 4954 4473 4656 
Q 4269 4358 4096 4154 
L 3962 4243 
Q 4077 4384 4208 4576 
Q 4339 4768 4460 4963 
Q 4582 5158 4666 5318 
z
M 3110 2426 
L 3309 2426 
Q 3251 1946 3145 1549 
Q 3040 1152 2845 835 
Q 2650 518 2333 275 
Q 2016 32 1552 -141 
Q 1088 -314 442 -422 
Q 435 -403 416 -371 
Q 397 -339 377 -307 
Q 358 -275 339 -256 
Q 979 -154 1433 12 
Q 1888 179 2192 409 
Q 2496 640 2681 937 
Q 2867 1235 2966 1606 
Q 3066 1978 3110 2426 
z
M 3328 1581 
Q 3642 832 4349 381 
Q 5056 -70 6029 -237 
Q 6010 -256 5984 -288 
Q 5958 -320 5936 -352 
Q 5914 -384 5901 -416 
Q 5254 -282 4710 -29 
Q 4166 224 3766 611 
Q 3366 998 3142 1517 
L 3328 1581 
z
" transform="scale(0.015625)"/>
       <path id="NotoSansSC-Thin-5143" d="M 3872 2835 
L 4058 2835 
L 4058 109 
Q 4058 -45 4128 -93 
Q 4198 -141 4416 -141 
Q 4467 -141 4611 -141 
Q 4755 -141 4934 -141 
Q 5114 -141 5267 -141 
Q 5421 -141 5498 -141 
Q 5651 -141 5728 -51 
Q 5805 38 5833 300 
Q 5862 563 5869 1082 
Q 5901 1062 5933 1040 
Q 5965 1018 6000 1005 
Q 6035 992 6061 979 
Q 6048 461 6003 176 
Q 5958 -109 5846 -221 
Q 5734 -333 5498 -333 
Q 5459 -333 5302 -333 
Q 5146 -333 4957 -333 
Q 4768 -333 4614 -333 
Q 4461 -333 4422 -333 
Q 4211 -333 4089 -297 
Q 3968 -262 3920 -166 
Q 3872 -70 3872 109 
L 3872 2835 
z
M 422 2918 
L 5984 2918 
L 5984 2726 
L 422 2726 
L 422 2918 
z
M 960 4768 
L 5485 4768 
L 5485 4582 
L 960 4582 
L 960 4768 
z
M 2234 2784 
L 2426 2784 
Q 2381 2240 2285 1750 
Q 2189 1261 1987 845 
Q 1786 429 1437 102 
Q 1088 -224 544 -435 
Q 531 -410 489 -371 
Q 448 -333 416 -307 
Q 947 -102 1283 211 
Q 1619 525 1814 928 
Q 2010 1331 2102 1801 
Q 2195 2272 2234 2784 
z
" transform="scale(0.015625)"/>
       <path id="NotoSansSC-Thin-29" d="M 352 -1222 
L 211 -1139 
Q 634 -474 851 320 
Q 1069 1114 1069 1958 
Q 1069 2803 851 3596 
Q 634 4390 211 5056 
L 352 5146 
Q 787 4448 1033 3667 
Q 1280 2886 1280 1958 
Q 1280 1030 1033 252 
Q 787 -525 352 -1222 
z
" transform="scale(0.015625)"/>
      </defs>
      <use xlink:href="#NotoSansSC-Thin-51c0"/>
      <use xlink:href="#NotoSansSC-Thin-5229" transform="translate(99.999985 0)"/>
      <use xlink:href="#NotoSansSC-Thin-6da6" transform="translate(199.999969 0)"/>
      <use xlink:href="#NotoSansSC-Thin-20" transform="translate(299.999954 0)"/>
      <use xlink:href="#NotoSansSC-Thin-28" transform="translate(321.999939 0)"/>
      <use xlink:href="#NotoSansSC-Thin-5341" transform="translate(351.899933 0)"/>
      <use xlink:href="#NotoSansSC-Thin-4ebf" transform="translate(451.899918 0)"/>
      <use xlink:href="#NotoSansSC-Thin-7f8e" transform="translate(551.899902 0)"/>
      <use xlink:href="#NotoSansSC-Thin-5143" transform="translate(651.899887 0)"/>
      <use xlink:href="#NotoSansSC-Thin-29" transform="translate(751.899872 0)"/>
     </g>
    </g>
   </g>
   <g id="patch_8">
    <path d="M 35.868281 175.524313 
L 35.868281 29.522813 
" style="fill: none; stroke: #e2e8f0; stroke-width: 0.8; stroke-linejoin: miter; stroke-linecap: square"/>
   </g>
   <g id="patch_9">
    <path d="M 35.868281 175.524313 
L 345.178281 175.524313 
" style="fill: none; stroke: #e2e8f0; stroke-width: 0.8; stroke-linejoin: miter; stroke-linecap: square"/>
   </g>
   <g id="text_15">
    <!-- $14.9B -->
    <g style="fill: #1e293b" transform="translate(55.00613 143.57575) scale(0.09 -0.09)">
     <defs>
      <path id="NotoSansSC-Thin-24" d="M 1715 -83 
Q 1446 -83 1206 0 
Q 966 83 771 208 
Q 576 333 435 467 
L 570 634 
Q 762 454 1053 291 
Q 1344 128 1715 128 
Q 2182 128 2425 381 
Q 2669 634 2669 1037 
Q 2669 1350 2557 1561 
Q 2445 1773 2262 1917 
Q 2080 2061 1862 2173 
Q 1645 2285 1427 2393 
Q 1210 2502 1027 2646 
Q 845 2790 733 2998 
Q 621 3206 621 3514 
Q 621 3827 768 4070 
Q 915 4314 1164 4451 
Q 1414 4589 1722 4589 
Q 2118 4589 2355 4445 
Q 2592 4301 2784 4096 
L 2637 3949 
Q 2438 4154 2243 4266 
Q 2048 4378 1709 4378 
Q 1331 4378 1094 4134 
Q 858 3891 858 3533 
Q 858 3251 970 3068 
Q 1082 2886 1264 2758 
Q 1446 2630 1664 2524 
Q 1882 2419 2099 2304 
Q 2317 2189 2499 2032 
Q 2682 1875 2794 1638 
Q 2906 1402 2906 1050 
Q 2906 698 2746 445 
Q 2586 192 2317 54 
Q 2048 -83 1715 -83 
z
M 1606 -774 
L 1606 -51 
L 1824 -51 
L 1824 -774 
L 1606 -774 
z
M 1606 4461 
L 1606 5280 
L 1824 5280 
L 1824 4461 
L 1606 4461 
z
" transform="scale(0.015625)"/>
      <path id="NotoSansSC-Thin-2e" d="M 736 -83 
Q 640 -83 560 -9 
Q 480 64 480 192 
Q 480 333 560 406 
Q 640 480 736 480 
Q 838 480 918 406 
Q 998 333 998 192 
Q 998 64 918 -9 
Q 838 -83 736 -83 
z
" transform="scale(0.015625)"/>
      <path id="NotoSansSC-Thin-39" d="M 1370 -83 
Q 1050 -83 819 32 
Q 589 147 410 339 
L 557 506 
Q 723 314 934 221 
Q 1146 128 1389 128 
Q 1651 128 1891 256 
Q 2131 384 2316 675 
Q 2502 966 2611 1443 
Q 2720 1920 2720 2618 
Q 2720 3168 2592 3600 
Q 2464 4032 2195 4278 
Q 1926 4525 1498 4525 
Q 1229 4525 1014 4355 
Q 800 4186 675 3901 
Q 550 3616 550 3264 
Q 550 2912 652 2627 
Q 755 2342 979 2172 
Q 1203 2003 1555 2003 
Q 1830 2003 2137 2182 
Q 2445 2362 2739 2765 
L 2746 2470 
Q 2586 2278 2397 2128 
Q 2208 1978 1993 1891 
Q 1779 1805 1536 1805 
Q 1152 1805 877 1974 
Q 602 2144 454 2470 
Q 307 2797 307 3264 
Q 307 3686 473 4019 
Q 640 4352 912 4541 
Q 1184 4730 1510 4730 
Q 1850 4730 2118 4589 
Q 2387 4448 2572 4176 
Q 2758 3904 2857 3513 
Q 2957 3123 2957 2618 
Q 2957 1862 2825 1344 
Q 2694 826 2470 512 
Q 2246 198 1961 57 
Q 1677 -83 1370 -83 
z
" transform="scale(0.015625)"/>
      <path id="NotoSansSC-Thin-42" d="M 704 0 
L 704 4646 
L 1920 4646 
Q 2387 4646 2723 4524 
Q 3059 4403 3244 4153 
Q 3430 3904 3430 3520 
Q 3430 3277 3347 3072 
Q 3264 2867 3104 2723 
Q 2944 2579 2701 2509 
L 2701 2477 
Q 3162 2406 3443 2121 
Q 3725 1837 3725 1350 
Q 3725 909 3513 608 
Q 3302 307 2918 153 
Q 2534 0 2003 0 
L 704 0 
z
M 941 2586 
L 1779 2586 
Q 2541 2586 2864 2832 
Q 3187 3078 3187 3507 
Q 3187 4019 2841 4230 
Q 2496 4442 1824 4442 
L 941 4442 
L 941 2586 
z
M 941 211 
L 1920 211 
Q 2643 211 3065 483 
Q 3488 755 3488 1338 
Q 3488 1869 3075 2121 
Q 2662 2374 1920 2374 
L 941 2374 
L 941 211 
z
" transform="scale(0.015625)"/>
     </defs>
     <use xlink:href="#NotoSansSC-Thin-24"/>
     <use xlink:href="#NotoSansSC-Thin-31" transform="translate(52.099991 0)"/>
     <use xlink:href="#NotoSansSC-Thin-34" transform="translate(104.199982 0)"/>
     <use xlink:href="#NotoSansSC-Thin-2e" transform="translate(156.299973 0)"/>
     <use xlink:href="#NotoSansSC-Thin-39" transform="translate(179.399963 0)"/>
     <use xlink:href="#NotoSansSC-Thin-42" transform="translate(231.499954 0)"/>
    </g>
   </g>
   <g id="text_16">
    <!-- $16.6B -->
    <g style="fill: #1e293b" transform="translate(116.134588 140.393666) scale(0.09 -0.09)">
     <use xlink:href="#NotoSansSC-Thin-24"/>
     <use xlink:href="#NotoSansSC-Thin-31" transform="translate(52.099991 0)"/>
     <use xlink:href="#NotoSansSC-Thin-36" transform="translate(104.199982 0)"/>
     <use xlink:href="#NotoSansSC-Thin-2e" transform="translate(156.299973 0)"/>
     <use xlink:href="#NotoSansSC-Thin-36" transform="translate(179.399963 0)"/>
     <use xlink:href="#NotoSansSC-Thin-42" transform="translate(231.499954 0)"/>
    </g>
   </g>
   <g id="text_17">
    <!-- $19.3B -->
    <g style="fill: #1e293b" transform="translate(177.263047 135.339767) scale(0.09 -0.09)">
     <use xlink:href="#NotoSansSC-Thin-24"/>
     <use xlink:href="#NotoSansSC-Thin-31" transform="translate(52.099991 0)"/>
     <use xlink:href="#NotoSansSC-Thin-39" transform="translate(104.199982 0)"/>
     <use xlink:href="#NotoSansSC-Thin-2e" transform="translate(156.299973 0)"/>
     <use xlink:href="#NotoSansSC-Thin-33" transform="translate(179.399963 0)"/>
     <use xlink:href="#NotoSansSC-Thin-42" transform="translate(231.499954 0)"/>
    </g>
   </g>
   <g id="text_18">
    <!-- $22.1B -->
    <g style="fill: #1e293b" transform="translate(238.391505 130.098688) scale(0.09 -0.09)">
     <use xlink:href="#NotoSansSC-Thin-24"/>
     <use xlink:href="#NotoSansSC-Thin-32" transform="translate(52.099991 0)"/>
     <use xlink:href="#NotoSansSC-Thin-32" transform="translate(104.199982 0)"/>
     <use xlink:href="#NotoSansSC-Thin-2e" transform="translate(156.299973 0)"/>
     <use xlink:href="#NotoSansSC-Thin-31" transform="translate(179.399963 0)"/>
     <use xlink:href="#NotoSansSC-Thin-42" transform="translate(231.499954 0)"/>
    </g>
   </g>
   <g id="text_19">
    <!-- $58.3B -->
    <g style="fill: #1e293b" transform="translate(299.519964 62.339017) scale(0.09 -0.09)">
     <defs>
      <path id="NotoSansSC-Thin-38" d="M 1696 -83 
Q 1286 -83 966 80 
Q 646 243 464 521 
Q 282 800 282 1152 
Q 282 1478 422 1744 
Q 563 2010 774 2202 
Q 986 2394 1197 2509 
L 1197 2534 
Q 954 2694 752 2953 
Q 550 3213 550 3578 
Q 550 3910 704 4163 
Q 858 4416 1117 4560 
Q 1376 4704 1696 4704 
Q 2080 4704 2345 4544 
Q 2611 4384 2752 4112 
Q 2893 3840 2893 3494 
Q 2893 3238 2784 3008 
Q 2675 2778 2528 2602 
Q 2381 2426 2253 2317 
L 2253 2285 
Q 2445 2170 2627 2010 
Q 2810 1850 2925 1626 
Q 3040 1402 3040 1082 
Q 3040 762 2870 496 
Q 2701 230 2400 73 
Q 2099 -83 1696 -83 
z
M 2035 2387 
Q 2336 2630 2499 2905 
Q 2662 3181 2662 3494 
Q 2662 3763 2550 3990 
Q 2438 4218 2220 4358 
Q 2003 4499 1696 4499 
Q 1293 4499 1040 4236 
Q 787 3974 787 3578 
Q 787 3238 972 3017 
Q 1158 2797 1446 2653 
Q 1734 2509 2035 2387 
z
M 1696 128 
Q 2035 128 2281 256 
Q 2528 384 2662 601 
Q 2797 819 2797 1082 
Q 2797 1370 2675 1574 
Q 2554 1779 2352 1923 
Q 2150 2067 1894 2182 
Q 1638 2298 1370 2400 
Q 998 2189 758 1875 
Q 518 1562 518 1152 
Q 518 870 668 636 
Q 819 403 1088 265 
Q 1357 128 1696 128 
z
" transform="scale(0.015625)"/>
     </defs>
     <use xlink:href="#NotoSansSC-Thin-24"/>
     <use xlink:href="#NotoSansSC-Thin-35" transform="translate(52.099991 0)"/>
     <use xlink:href="#NotoSansSC-Thin-38" transform="translate(104.199982 0)"/>
     <use xlink:href="#NotoSansSC-Thin-2e" transform="translate(156.299973 0)"/>
     <use xlink:href="#NotoSansSC-Thin-33" transform="translate(179.399963 0)"/>
     <use xlink:href="#NotoSansSC-Thin-42" transform="translate(231.499954 0)"/>
    </g>
   </g>
   <g id="patch_10">
    <path d="M 297.755914 53.946547 
Q 304.499602 59.535212 309.952022 64.05377 
" style="fill: none; stroke: #ef4444; stroke-width: 1.5; stroke-linecap: round"/>
    <path d="M 308.148345 59.961491 
L 309.952022 64.05377 
L 305.595993 63.041344 
" style="fill: none; stroke: #ef4444; stroke-width: 1.5; stroke-linecap: round"/>
   </g>
   <g id="text_20">
    <!-- +211% YoY -->
    <g style="fill: #ef4444" transform="translate(263.877431 48.240954) scale(0.1 -0.1)">
     <defs>
      <path id="NotoSansSC-Thin-2b" d="M 1549 787 
L 1549 2221 
L 237 2221 
L 237 2426 
L 1549 2426 
L 1549 3866 
L 1786 3866 
L 1786 2426 
L 3098 2426 
L 3098 2221 
L 1786 2221 
L 1786 787 
L 1549 787 
z
" transform="scale(0.015625)"/>
      <path id="NotoSansSC-Thin-25" d="M 1267 1818 
Q 966 1818 745 1987 
Q 525 2157 409 2483 
Q 294 2810 294 3283 
Q 294 3750 409 4070 
Q 525 4390 745 4560 
Q 966 4730 1267 4730 
Q 1574 4730 1795 4560 
Q 2016 4390 2131 4070 
Q 2246 3750 2246 3283 
Q 2246 2810 2131 2483 
Q 2016 2157 1795 1987 
Q 1574 1818 1267 1818 
z
M 1267 2003 
Q 1619 2003 1820 2342 
Q 2022 2682 2022 3283 
Q 2022 3885 1820 4214 
Q 1619 4544 1267 4544 
Q 922 4544 717 4214 
Q 512 3885 512 3283 
Q 512 2682 717 2342 
Q 922 2003 1267 2003 
z
M 1382 -83 
L 3987 4730 
L 4218 4730 
L 1619 -83 
L 1382 -83 
z
M 4365 -83 
Q 4058 -83 3840 86 
Q 3622 256 3504 582 
Q 3386 909 3386 1382 
Q 3386 1850 3504 2170 
Q 3622 2490 3840 2659 
Q 4058 2829 4365 2829 
Q 4666 2829 4883 2659 
Q 5101 2490 5219 2170 
Q 5338 1850 5338 1382 
Q 5338 909 5219 582 
Q 5101 256 4883 86 
Q 4666 -83 4365 -83 
z
M 4365 102 
Q 4704 102 4912 441 
Q 5120 781 5120 1382 
Q 5120 1984 4912 2313 
Q 4704 2643 4365 2643 
Q 4013 2643 3808 2313 
Q 3603 1984 3603 1382 
Q 3603 781 3808 441 
Q 4013 102 4365 102 
z
" transform="scale(0.015625)"/>
      <path id="NotoSansSC-Thin-6f" d="M 1875 -83 
Q 1472 -83 1129 125 
Q 787 333 582 726 
Q 378 1120 378 1677 
Q 378 2246 582 2643 
Q 787 3040 1129 3248 
Q 1472 3456 1875 3456 
Q 2176 3456 2448 3337 
Q 2720 3219 2928 2992 
Q 3136 2765 3254 2432 
Q 3373 2099 3373 1677 
Q 3373 1120 3165 726 
Q 2957 333 2617 125 
Q 2278 -83 1875 -83 
z
M 1875 128 
Q 2234 128 2518 323 
Q 2803 518 2969 867 
Q 3136 1216 3136 1677 
Q 3136 2144 2969 2496 
Q 2803 2848 2518 3046 
Q 2234 3245 1875 3245 
Q 1517 3245 1232 3046 
Q 947 2848 784 2496 
Q 621 2144 621 1677 
Q 621 1216 784 867 
Q 947 518 1232 323 
Q 1517 128 1875 128 
z
" transform="scale(0.015625)"/>
     </defs>
     <use xlink:href="#NotoSansSC-Thin-2b"/>
     <use xlink:href="#NotoSansSC-Thin-32" transform="translate(52.099991 0)"/>
     <use xlink:href="#NotoSansSC-Thin-31" transform="translate(104.199982 0)"/>
     <use xlink:href="#NotoSansSC-Thin-31" transform="translate(156.299973 0)"/>
     <use xlink:href="#NotoSansSC-Thin-25" transform="translate(208.399963 0)"/>
     <use xlink:href="#NotoSansSC-Thin-20" transform="translate(296.399948 0)"/>
     <use xlink:href="#NotoSansSC-Thin-59" transform="translate(318.399933 0)"/>
     <use xlink:href="#NotoSansSC-Thin-6f" transform="translate(366.59993 0)"/>
     <use xlink:href="#NotoSansSC-Thin-59" transform="translate(425.199921 0)"/>
    </g>
   </g>
   <g id="text_21">
    <!-- 英伟达净利润 ($B) -->
    <g style="fill: #1e293b" transform="translate(138.711172 17.522813) scale(0.13 -0.13)">
     <defs>
      <path id="NotoSansSC-Thin-82f1" d="M 416 1677 
L 6010 1677 
L 6010 1485 
L 416 1485 
L 416 1677 
z
M 1120 3206 
L 5318 3206 
L 5318 1619 
L 5133 1619 
L 5133 3021 
L 1306 3021 
L 1306 1619 
L 1120 1619 
L 1120 3206 
z
M 3072 4038 
L 3264 4038 
L 3264 2381 
Q 3264 2067 3222 1753 
Q 3181 1440 3033 1129 
Q 2886 819 2579 534 
Q 2272 250 1747 -6 
Q 1222 -262 422 -467 
Q 410 -442 390 -413 
Q 371 -384 352 -355 
Q 333 -326 314 -307 
Q 1101 -109 1613 134 
Q 2125 378 2422 650 
Q 2720 922 2857 1213 
Q 2995 1504 3033 1798 
Q 3072 2093 3072 2381 
L 3072 4038 
z
M 3430 1632 
Q 3731 819 4425 345 
Q 5120 -128 6144 -294 
Q 6118 -314 6092 -346 
Q 6067 -378 6048 -410 
Q 6029 -442 6010 -467 
Q 5325 -333 4777 -73 
Q 4230 186 3843 595 
Q 3456 1005 3245 1574 
L 3430 1632 
z
M 506 4627 
L 5869 4627 
L 5869 4442 
L 506 4442 
L 506 4627 
z
M 1965 5312 
L 2150 5312 
L 2150 3674 
L 1965 3674 
L 1965 5312 
z
M 4218 5312 
L 4403 5312 
L 4403 3674 
L 4218 3674 
L 4218 5312 
z
" transform="scale(0.015625)"/>
      <path id="NotoSansSC-Thin-4f1f" d="M 2099 4403 
L 5766 4403 
L 5766 4218 
L 2099 4218 
L 2099 4403 
z
M 2253 3277 
L 5606 3277 
L 5606 3085 
L 2253 3085 
L 2253 3277 
z
M 5741 2106 
L 5926 2106 
Q 5926 2106 5926 2061 
Q 5926 2016 5920 1984 
Q 5888 1395 5849 1036 
Q 5811 678 5763 496 
Q 5715 314 5645 243 
Q 5594 192 5530 166 
Q 5466 141 5357 141 
Q 5274 134 5130 140 
Q 4986 147 4826 154 
Q 4819 198 4806 246 
Q 4794 294 4768 339 
Q 4954 320 5107 317 
Q 5261 314 5325 314 
Q 5389 314 5430 323 
Q 5472 333 5498 365 
Q 5549 422 5590 601 
Q 5632 781 5670 1133 
Q 5709 1485 5741 2067 
L 5741 2106 
z
M 1901 2106 
L 5818 2106 
L 5818 1920 
L 1901 1920 
L 1901 2106 
z
M 3795 5306 
L 3987 5306 
L 3987 -448 
L 3795 -448 
L 3795 5306 
z
M 1939 5293 
L 2118 5242 
Q 1926 4704 1670 4195 
Q 1414 3686 1116 3241 
Q 819 2797 493 2438 
Q 480 2458 454 2486 
Q 429 2515 403 2544 
Q 378 2573 352 2592 
Q 672 2925 963 3360 
Q 1254 3795 1507 4288 
Q 1760 4781 1939 5293 
z
M 1222 3738 
L 1402 3917 
L 1414 3910 
L 1414 -461 
L 1222 -461 
L 1222 3738 
z
" transform="scale(0.015625)"/>
      <path id="NotoSansSC-Thin-8fbe" d="M 2035 3981 
L 6016 3981 
L 6016 3795 
L 2035 3795 
L 2035 3981 
z
M 646 5069 
L 806 5146 
Q 966 4960 1126 4745 
Q 1286 4531 1420 4326 
Q 1555 4122 1626 3962 
L 1466 3866 
Q 1389 4026 1254 4237 
Q 1120 4448 963 4665 
Q 806 4883 646 5069 
z
M 3891 5299 
L 4077 5299 
Q 4058 4755 4013 4214 
Q 3968 3674 3865 3162 
Q 3763 2650 3568 2192 
Q 3373 1734 3049 1360 
Q 2726 986 2234 717 
Q 2221 736 2192 761 
Q 2163 787 2134 809 
Q 2106 832 2086 845 
Q 2566 1101 2886 1465 
Q 3206 1830 3398 2278 
Q 3590 2726 3692 3228 
Q 3795 3731 3833 4256 
Q 3872 4781 3891 5299 
z
M 1574 2867 
L 1574 672 
L 1389 672 
L 1389 2682 
L 365 2682 
L 365 2867 
L 1574 2867 
z
M 1485 787 
Q 1594 787 1680 720 
Q 1766 653 1878 544 
Q 1990 435 2163 301 
Q 2464 77 2851 13 
Q 3238 -51 3802 -51 
Q 4122 -51 4438 -44 
Q 4755 -38 5052 -25 
Q 5350 -13 5612 3 
Q 5875 19 6093 38 
Q 6080 19 6067 -16 
Q 6054 -51 6048 -83 
Q 6042 -115 6035 -147 
Q 5875 -154 5587 -166 
Q 5299 -179 4960 -188 
Q 4621 -198 4310 -204 
Q 4000 -211 3802 -211 
Q 3200 -211 2787 -134 
Q 2374 -58 2054 192 
Q 1875 333 1734 483 
Q 1594 634 1485 634 
Q 1363 634 1206 522 
Q 1050 410 861 208 
Q 672 6 454 -262 
L 320 -141 
Q 659 256 953 521 
Q 1248 787 1485 787 
z
M 3744 3194 
L 3904 3296 
Q 4173 3008 4461 2688 
Q 4749 2368 5024 2045 
Q 5299 1722 5529 1427 
Q 5760 1133 5914 909 
L 5754 787 
Q 5594 1018 5357 1315 
Q 5120 1613 4848 1942 
Q 4576 2272 4291 2592 
Q 4006 2912 3744 3194 
z
" transform="scale(0.015625)"/>
     </defs>
     <use xlink:href="#NotoSansSC-Thin-82f1"/>
     <use xlink:href="#NotoSansSC-Thin-4f1f" transform="translate(99.999985 0)"/>
     <use xlink:href="#NotoSansSC-Thin-8fbe" transform="translate(199.999969 0)"/>
     <use xlink:href="#NotoSansSC-Thin-51c0" transform="translate(299.999954 0)"/>
     <use xlink:href="#NotoSansSC-Thin-5229" transform="translate(399.999939 0)"/>
     <use xlink:href="#NotoSansSC-Thin-6da6" transform="translate(499.999924 0)"/>
     <use xlink:href="#NotoSansSC-Thin-20" transform="translate(599.999908 0)"/>
     <use xlink:href="#NotoSansSC-Thin-28" transform="translate(621.999893 0)"/>
     <use xlink:href="#NotoSansSC-Thin-24" transform="translate(651.899887 0)"/>
     <use xlink:href="#NotoSansSC-Thin-42" transform="translate(703.999878 0)"/>
     <use xlink:href="#NotoSansSC-Thin-29" transform="translate(767.199875 0)"/>
    </g>
   </g>
  </g>
 </g>
 <defs>
  <clipPath id="pbd1072096d">
   <rect x="35.868281" y="29.522813" width="309.31" height="146.0015"/>
  </clipPath>
 </defs>
</svg>
