<?xml version="1.0" encoding="utf-8" standalone="no"?>
<!DOCTYPE svg PUBLIC "-//W3C//DTD SVG 1.1//EN"
  "http://www.w3.org/Graphics/SVG/1.1/DTD/svg11.dtd">
<svg xmlns:xlink="http://www.w3.org/1999/xlink" width="369.021563pt" height="287.562437pt" viewBox="0 0 369.021563 287.562437" xmlns="http://www.w3.org/2000/svg" version="1.1">
 <metadata>
  <rdf:RDF xmlns:dc="http://purl.org/dc/elements/1.1/" xmlns:cc="http://creativecommons.org/ns#" xmlns:rdf="http://www.w3.org/1999/02/22-rdf-syntax-ns#">
   <cc:Work>
    <dc:type rdf:resource="http://purl.org/dc/dcmitype/StillImage"/>
    <dc:date>2026-06-29T19:35:18.894865</dc:date>
    <dc:format>image/svg+xml</dc:format>
    <dc:creator>
     <cc:Agent>
      <dc:title>Matplotlib v3.11.0, https://matplotlib.org/</dc:title>
     </cc:Agent>
    </dc:creator>
   </cc:Work>
  </rdf:RDF>
 </metadata>
 <defs>
  <style type="text/css">*{stroke-linejoin: round; stroke-linecap: butt}</style>
 </defs>
 <g id="figure_1">
  <g id="patch_1">
   <path d="M 0 287.562437 
L 369.021563 287.562437 
L 369.021563 0 
L 0 0 
z
" style="fill: #ffffff"/>
  </g>
  <g id="axes_1">
   <g id="patch_2">
    <path d="M 43.401563 254.624 
L 358.221563 254.624 
L 358.221563 79.52 
L 43.401563 79.52 
z
" style="fill: #ffffff"/>
   </g>
   <g id="matplotlib.axis_1">
    <g id="xtick_1">
     <g id="line2d_1"/>
     <g id="text_1">
      <!-- FY26 -->
      <g style="fill: #94a3b8" transform="translate(64.736766 266.044) scale(0.09 -0.09)">
       <defs>
        <path id="NotoSansSC-Medium-27" d="M 621 0 
L 1363 0 
L 1363 2029 
L 3104 2029 
L 3104 2650 
L 1363 2650 
L 1363 4090 
L 3411 4090 
L 3411 4717 
L 621 4717 
L 621 0 
z
" transform="scale(0.015625)"/>
        <path id="NotoSansSC-Medium-3a" d="M 1395 0 
L 2138 0 
L 2138 1786 
L 3558 4717 
L 2784 4717 
L 2234 3462 
C 2093 3110 1939 2784 1786 2426 
L 1760 2426 
C 1600 2784 1466 3110 1318 3462 
L 774 4717 
L -19 4717 
L 1395 1786 
L 1395 0 
z
" transform="scale(0.015625)"/>
        <path id="NotoSansSC-Medium-76ec" d="M 282 0 
L 3322 0 
L 3322 627 
L 2125 627 
C 1894 627 1594 608 1357 582 
C 2336 1606 3098 2451 3098 3290 
C 3098 4122 2541 4672 1677 4672 
C 1062 4672 646 4403 243 3968 
L 659 3558 
C 909 3846 1216 4083 1587 4083 
C 2118 4083 2387 3750 2387 3251 
C 2387 2534 1594 1715 282 429 
L 282 0 
z
" transform="scale(0.015625)"/>
        <path id="NotoSansSC-Medium-76f0" d="M 1907 2285 
C 2406 2285 2688 1971 2688 1408 
C 2688 826 2362 480 1952 480 
C 1453 480 1114 877 1037 1728 
C 1318 2138 1645 2285 1907 2285 
z
M 1958 -83 
C 2726 -83 3366 506 3366 1408 
C 3366 2355 2829 2822 2042 2822 
C 1702 2822 1293 2611 1018 2272 
C 1050 3616 1549 4064 2144 4064 
C 2426 4064 2714 3923 2886 3718 
L 3290 4166 
C 3021 4448 2637 4672 2112 4672 
C 1178 4672 333 3942 333 2138 
C 333 627 1062 -83 1958 -83 
z
" transform="scale(0.015625)"/>
       </defs>
       <use xlink:href="#NotoSansSC-Medium-27"/>
       <use xlink:href="#NotoSansSC-Medium-3a" transform="translate(56.1875 0)"/>
       <use xlink:href="#NotoSansSC-Medium-76ec" transform="translate(111.484375 0)"/>
       <use xlink:href="#NotoSansSC-Medium-76f0" transform="translate(168.484375 0)"/>
      </g>
      <!-- Q1 -->
      <g style="fill: #94a3b8" transform="translate(68.925281 275.044) scale(0.09 -0.09)">
       <defs>
        <path id="NotoSansSC-Medium-32" d="M 2413 525 
C 1632 525 1126 1235 1126 2374 
C 1126 3482 1632 4154 2413 4154 
C 3194 4154 3706 3482 3706 2374 
C 3706 1235 3194 525 2413 525 
z
M 3891 -1222 
C 4198 -1222 4461 -1171 4614 -1101 
L 4474 -544 
C 4346 -582 4179 -614 3974 -614 
C 3501 -614 3066 -435 2854 -38 
C 3821 166 4467 1050 4467 2374 
C 4467 3891 3622 4800 2413 4800 
C 1203 4800 365 3891 365 2374 
C 365 1011 1043 115 2061 -58 
C 2349 -730 2976 -1222 3891 -1222 
z
" transform="scale(0.015625)"/>
        <path id="NotoSansSC-Medium-76eb" d="M 550 0 
L 3238 0 
L 3238 608 
L 2317 608 
L 2317 4582 
L 1760 4582 
C 1491 4416 1178 4301 736 4224 
L 736 3757 
L 1581 3757 
L 1581 608 
L 550 608 
L 550 0 
z
" transform="scale(0.015625)"/>
       </defs>
       <use xlink:href="#NotoSansSC-Medium-32"/>
       <use xlink:href="#NotoSansSC-Medium-76eb" transform="translate(75.40625 0)"/>
      </g>
     </g>
    </g>
    <g id="xtick_2">
     <g id="line2d_2"/>
     <g id="text_2">
      <!-- Q2 -->
      <g style="fill: #94a3b8" transform="translate(131.889281 266.044) scale(0.09 -0.09)">
       <use xlink:href="#NotoSansSC-Medium-32"/>
       <use xlink:href="#NotoSansSC-Medium-76ec" transform="translate(75.40625 0)"/>
      </g>
     </g>
    </g>
    <g id="xtick_3">
     <g id="line2d_3"/>
     <g id="text_3">
      <!-- Q3 -->
      <g style="fill: #94a3b8" transform="translate(194.853281 266.044) scale(0.09 -0.09)">
       <defs>
        <path id="NotoSansSC-Medium-76ed" d="M 1715 -83 
C 2579 -83 3290 403 3290 1229 
C 3290 1850 2861 2246 2317 2381 
L 2317 2413 
C 2816 2598 3130 2950 3130 3482 
C 3130 4237 2534 4672 1690 4672 
C 1146 4672 710 4435 339 4096 
L 723 3635 
C 992 3904 1299 4083 1664 4083 
C 2112 4083 2387 3834 2387 3424 
C 2387 2982 2080 2643 1152 2643 
L 1152 2099 
C 2214 2099 2547 1773 2547 1267 
C 2547 806 2182 518 1651 518 
C 1165 518 813 755 538 1037 
L 179 563 
C 493 211 973 -83 1715 -83 
z
" transform="scale(0.015625)"/>
       </defs>
       <use xlink:href="#NotoSansSC-Medium-32"/>
       <use xlink:href="#NotoSansSC-Medium-76ed" transform="translate(75.40625 0)"/>
      </g>
     </g>
    </g>
    <g id="xtick_4">
     <g id="line2d_4"/>
     <g id="text_4">
      <!-- Q4 -->
      <g style="fill: #94a3b8" transform="translate(257.817281 266.044) scale(0.09 -0.09)">
       <defs>
        <path id="NotoSansSC-Medium-76ee" d="M 870 1786 
L 1798 3181 
C 1933 3418 2061 3635 2176 3866 
L 2202 3866 
C 2189 3610 2170 3200 2170 2944 
L 2170 1786 
L 870 1786 
z
M 2170 0 
L 2861 0 
L 2861 1216 
L 3456 1216 
L 3456 1786 
L 2861 1786 
L 2861 4582 
L 2003 4582 
L 128 1709 
L 128 1216 
L 2170 1216 
L 2170 0 
z
" transform="scale(0.015625)"/>
       </defs>
       <use xlink:href="#NotoSansSC-Medium-32"/>
       <use xlink:href="#NotoSansSC-Medium-76ee" transform="translate(75.40625 0)"/>
      </g>
     </g>
    </g>
    <g id="xtick_5">
     <g id="line2d_5"/>
     <g id="text_5">
      <!-- FY27 -->
      <g style="fill: #94a3b8" transform="translate(316.592766 266.044) scale(0.09 -0.09)">
       <defs>
        <path id="NotoSansSC-Medium-76f1" d="M 1235 0 
L 1990 0 
C 2067 1786 2266 2784 3347 4134 
L 3347 4582 
L 314 4582 
L 314 3962 
L 2528 3962 
C 1638 2720 1318 1664 1235 0 
z
" transform="scale(0.015625)"/>
       </defs>
       <use xlink:href="#NotoSansSC-Medium-27"/>
       <use xlink:href="#NotoSansSC-Medium-3a" transform="translate(56.1875 0)"/>
       <use xlink:href="#NotoSansSC-Medium-76ec" transform="translate(111.484375 0)"/>
       <use xlink:href="#NotoSansSC-Medium-76f1" transform="translate(168.484375 0)"/>
      </g>
      <!-- Q1 -->
      <g style="fill: #94a3b8" transform="translate(320.781281 275.044) scale(0.09 -0.09)">
       <use xlink:href="#NotoSansSC-Medium-32"/>
       <use xlink:href="#NotoSansSC-Medium-76eb" transform="translate(75.40625 0)"/>
      </g>
     </g>
    </g>
   </g>
   <g id="matplotlib.axis_2">
    <g id="ytick_1">
     <g id="line2d_6">
      <path d="M 43.401563 254.624 
L 358.221563 254.624 
" clip-path="url(#p4471a8df98)" style="fill: none; stroke: #e2e8f0; stroke-opacity: 0.6; stroke-width: 0.5; stroke-linecap: square"/>
     </g>
     <g id="line2d_7"/>
     <g id="text_6">
      <!-- 0 -->
      <g style="fill: #94a3b8" transform="translate(34.771563 258.584) scale(0.09 -0.09)">
       <defs>
        <path id="NotoSansSC-Medium-11" d="M 1824 -83 
C 2746 -83 3347 736 3347 2374 
C 3347 4000 2746 4800 1824 4800 
C 902 4800 301 4006 301 2374 
C 301 736 902 -83 1824 -83 
z
M 1824 499 
C 1344 499 1005 1011 1005 2374 
C 1005 3725 1344 4218 1824 4218 
C 2304 4218 2643 3725 2643 2374 
C 2643 1011 2304 499 1824 499 
z
" transform="scale(0.015625)"/>
       </defs>
       <use xlink:href="#NotoSansSC-Medium-11"/>
      </g>
     </g>
    </g>
    <g id="ytick_2">
     <g id="line2d_8">
      <path d="M 43.401563 222.786909 
L 358.221563 222.786909 
" clip-path="url(#p4471a8df98)" style="fill: none; stroke: #e2e8f0; stroke-opacity: 0.6; stroke-width: 0.5; stroke-linecap: square"/>
     </g>
     <g id="line2d_9"/>
     <g id="text_7">
      <!-- 20 -->
      <g style="fill: #94a3b8" transform="translate(29.641563 226.746909) scale(0.09 -0.09)">
       <defs>
        <path id="NotoSansSC-Medium-13" d="M 282 0 
L 3322 0 
L 3322 627 
L 2144 627 
C 1914 627 1619 608 1376 582 
C 2374 1536 3098 2477 3098 3386 
C 3098 4237 2541 4800 1677 4800 
C 1062 4800 646 4538 243 4096 
L 659 3686 
C 909 3974 1216 4211 1587 4211 
C 2118 4211 2387 3859 2387 3347 
C 2387 2573 1670 1658 282 429 
L 282 0 
z
" transform="scale(0.015625)"/>
       </defs>
       <use xlink:href="#NotoSansSC-Medium-13"/>
       <use xlink:href="#NotoSansSC-Medium-11" transform="translate(57 0)"/>
      </g>
     </g>
    </g>
    <g id="ytick_3">
     <g id="line2d_10">
      <path d="M 43.401563 190.949818 
L 358.221563 190.949818 
" clip-path="url(#p4471a8df98)" style="fill: none; stroke: #e2e8f0; stroke-opacity: 0.6; stroke-width: 0.5; stroke-linecap: square"/>
     </g>
     <g id="line2d_11"/>
     <g id="text_8">
      <!-- 40 -->
      <g style="fill: #94a3b8" transform="translate(29.641563 194.909818) scale(0.09 -0.09)">
       <defs>
        <path id="NotoSansSC-Medium-15" d="M 870 1837 
L 1798 3258 
C 1933 3501 2061 3744 2176 3987 
L 2202 3987 
C 2189 3725 2170 3328 2170 3072 
L 2170 1837 
L 870 1837 
z
M 2170 0 
L 2861 0 
L 2861 1267 
L 3456 1267 
L 3456 1837 
L 2861 1837 
L 2861 4717 
L 2003 4717 
L 128 1760 
L 128 1267 
L 2170 1267 
L 2170 0 
z
" transform="scale(0.015625)"/>
       </defs>
       <use xlink:href="#NotoSansSC-Medium-15"/>
       <use xlink:href="#NotoSansSC-Medium-11" transform="translate(57 0)"/>
      </g>
     </g>
    </g>
    <g id="ytick_4">
     <g id="line2d_12">
      <path d="M 43.401563 159.112727 
L 358.221563 159.112727 
" clip-path="url(#p4471a8df98)" style="fill: none; stroke: #e2e8f0; stroke-opacity: 0.6; stroke-width: 0.5; stroke-linecap: square"/>
     </g>
     <g id="line2d_13"/>
     <g id="text_9">
      <!-- 60 -->
      <g style="fill: #94a3b8" transform="translate(29.641563 163.072727) scale(0.09 -0.09)">
       <defs>
        <path id="NotoSansSC-Medium-17" d="M 1914 2406 
C 2419 2406 2694 2067 2694 1466 
C 2694 851 2368 480 1958 480 
C 1453 480 1114 922 1037 1856 
C 1318 2259 1645 2406 1914 2406 
z
M 1965 -83 
C 2733 -83 3373 531 3373 1466 
C 3373 2458 2842 2944 2048 2944 
C 1709 2944 1299 2739 1024 2400 
C 1056 3744 1555 4198 2157 4198 
C 2432 4198 2720 4051 2893 3846 
L 3296 4294 
C 3027 4576 2643 4800 2118 4800 
C 1190 4800 339 4077 339 2266 
C 339 666 1069 -83 1965 -83 
z
" transform="scale(0.015625)"/>
       </defs>
       <use xlink:href="#NotoSansSC-Medium-17"/>
       <use xlink:href="#NotoSansSC-Medium-11" transform="translate(57 0)"/>
      </g>
     </g>
    </g>
    <g id="ytick_5">
     <g id="line2d_14">
      <path d="M 43.401563 127.275636 
L 358.221563 127.275636 
" clip-path="url(#p4471a8df98)" style="fill: none; stroke: #e2e8f0; stroke-opacity: 0.6; stroke-width: 0.5; stroke-linecap: square"/>
     </g>
     <g id="line2d_15"/>
     <g id="text_10">
      <!-- 80 -->
      <g style="fill: #94a3b8" transform="translate(29.641563 131.235636) scale(0.09 -0.09)">
       <defs>
        <path id="NotoSansSC-Medium-19" d="M 1830 -83 
C 2739 -83 3354 454 3354 1152 
C 3354 1792 2982 2163 2560 2400 
L 2560 2432 
C 2854 2650 3181 3059 3181 3539 
C 3181 4275 2669 4787 1850 4787 
C 1082 4787 506 4307 506 3571 
C 506 3072 787 2720 1139 2470 
L 1139 2438 
C 704 2208 294 1792 294 1171 
C 294 442 947 -83 1830 -83 
z
M 2138 2618 
C 1613 2822 1165 3059 1165 3571 
C 1165 3994 1453 4256 1837 4256 
C 2298 4256 2560 3930 2560 3494 
C 2560 3181 2419 2880 2138 2618 
z
M 1843 448 
C 1338 448 947 774 947 1242 
C 947 1651 1171 2003 1498 2227 
C 2138 1965 2656 1747 2656 1171 
C 2656 730 2330 448 1843 448 
z
" transform="scale(0.015625)"/>
       </defs>
       <use xlink:href="#NotoSansSC-Medium-19"/>
       <use xlink:href="#NotoSansSC-Medium-11" transform="translate(57 0)"/>
      </g>
     </g>
    </g>
    <g id="ytick_6">
     <g id="line2d_16">
      <path d="M 43.401563 95.438545 
L 358.221563 95.438545 
" clip-path="url(#p4471a8df98)" style="fill: none; stroke: #e2e8f0; stroke-opacity: 0.6; stroke-width: 0.5; stroke-linecap: square"/>
     </g>
     <g id="line2d_17"/>
     <g id="text_11">
      <!-- 100 -->
      <g style="fill: #94a3b8" transform="translate(24.511563 99.398545) scale(0.09 -0.09)">
       <defs>
        <path id="NotoSansSC-Medium-12" d="M 550 0 
L 3238 0 
L 3238 608 
L 2317 608 
L 2317 4717 
L 1760 4717 
C 1491 4544 1178 4435 736 4352 
L 736 3885 
L 1581 3885 
L 1581 608 
L 550 608 
L 550 0 
z
" transform="scale(0.015625)"/>
       </defs>
       <use xlink:href="#NotoSansSC-Medium-12"/>
       <use xlink:href="#NotoSansSC-Medium-11" transform="translate(57 0)"/>
       <use xlink:href="#NotoSansSC-Medium-11" transform="translate(114 0)"/>
      </g>
     </g>
    </g>
    <g id="text_12">
     <!-- 营收 (十亿美元) -->
     <g style="fill: #64748b" transform="translate(18.72 198.2795) rotate(-90) scale(0.09 -0.09)">
      <defs>
       <path id="NotoSansSC-Medium-57df" d="M 4832 838 
L 4832 186 
L 1638 186 
L 1638 838 
L 4832 838 
z
M 1075 -518 
L 1638 -518 
L 1638 -301 
L 4832 -301 
L 4832 -506 
L 5427 -506 
L 5427 1350 
L 1075 1350 
L 1075 -518 
z
M 4320 2093 
L 2106 2093 
L 2106 2579 
L 4320 2579 
L 4320 2093 
z
M 1549 2989 
L 1549 1683 
L 4902 1683 
L 4902 2989 
L 1549 2989 
z
M 576 2528 
L 1120 2528 
L 1120 3328 
L 5306 3328 
L 5306 2528 
L 5875 2528 
L 5875 3795 
L 576 3795 
L 576 2528 
z
M 4627 4877 
L 4627 5363 
L 4038 5363 
L 4038 4877 
L 2336 4877 
L 2336 5363 
L 1747 5363 
L 1747 4877 
L 416 4877 
L 416 4339 
L 1747 4339 
L 1747 3955 
L 2336 3955 
L 2336 4339 
L 4038 4339 
L 4038 3955 
L 4627 3955 
L 4627 4339 
L 6003 4339 
L 6003 4877 
L 4627 4877 
z
" transform="scale(0.015625)"/>
       <path id="NotoSansSC-Medium-3911" d="M 2048 1766 
L 1197 1498 
L 1197 4666 
L 614 4666 
L 614 1574 
C 614 1318 486 1203 390 1139 
C 474 1005 582 742 621 595 
C 755 698 954 806 2048 1190 
L 2048 -512 
L 2637 -512 
L 2637 5267 
L 2048 5267 
L 2048 1766 
z
M 3866 3597 
L 5094 3597 
C 4973 2854 4787 2214 4512 1677 
C 4211 2208 3981 2816 3814 3462 
L 3866 3597 
z
M 6118 3597 
L 6118 4160 
L 4045 4160 
C 4147 4518 4230 4890 4294 5267 
L 3686 5370 
C 3514 4282 3187 3258 2650 2624 
C 2778 2502 2982 2240 3066 2118 
C 3219 2304 3366 2522 3494 2771 
C 3680 2176 3910 1626 4192 1146 
C 3834 646 3373 256 2771 -32 
C 2886 -147 3085 -397 3149 -525 
C 3712 -218 4160 166 4525 627 
C 4870 173 5280 -205 5760 -480 
C 5856 -326 6035 -102 6176 0 
C 5658 262 5222 646 4864 1133 
C 5261 1805 5517 2618 5690 3597 
L 6118 3597 
z
" transform="scale(0.015625)"/>
       <path id="NotoSansSC-Medium-1" transform="scale(0.015625)"/>
       <path id="NotoSansSC-Medium-9" d="M 1517 -1274 
L 1978 -1069 
C 1427 -154 1171 928 1171 2003 
C 1171 3072 1427 4154 1978 5075 
L 1517 5274 
C 922 4307 570 3264 570 2003 
C 570 730 922 -301 1517 -1274 
z
" transform="scale(0.015625)"/>
       <path id="NotoSansSC-Medium-2736" d="M 6086 3034 
L 3533 3034 
L 3533 5370 
L 2886 5370 
L 2886 3034 
L 371 3034 
L 371 2419 
L 2886 2419 
L 2886 -506 
L 3533 -506 
L 3533 2419 
L 6086 2419 
L 6086 3034 
z
" transform="scale(0.015625)"/>
       <path id="NotoSansSC-Medium-22ba" d="M 1722 5344 
C 1376 4403 806 3475 205 2880 
C 307 2746 474 2426 531 2278 
C 730 2490 928 2733 1114 2995 
L 1114 -493 
L 1690 -493 
L 1690 3910 
C 1914 4320 2118 4749 2278 5178 
L 1722 5344 
z
M 3526 314 
C 3162 314 2938 416 2938 653 
C 2938 954 3098 1402 5811 4480 
C 5843 4512 5875 4550 5888 4582 
L 5517 4781 
L 5376 4755 
L 2496 4755 
L 2496 4192 
L 4787 4192 
C 2464 1466 2342 1005 2342 582 
C 2342 70 2720 -256 3552 -256 
L 5011 -256 
C 5709 -256 5946 -6 6022 1350 
C 5862 1376 5645 1459 5491 1549 
C 5459 499 5376 314 5043 314 
L 3526 314 
z
" transform="scale(0.015625)"/>
       <path id="NotoSansSC-Medium-5350" d="M 5971 1126 
L 5971 1658 
L 3366 1658 
C 3392 1792 3418 1933 3430 2080 
L 6074 2080 
L 6074 2605 
L 3494 2605 
L 3494 3059 
L 5498 3059 
L 5498 3565 
L 3494 3565 
L 3494 4000 
L 5760 4000 
L 5760 4525 
L 4499 4525 
C 4653 4730 4826 4986 4973 5222 
L 4339 5395 
C 4230 5139 4013 4781 3840 4525 
L 2278 4525 
L 2490 4621 
C 2400 4845 2182 5165 1965 5395 
L 1446 5190 
C 1600 4998 1773 4736 1875 4525 
L 640 4525 
L 640 4000 
L 2880 4000 
L 2880 3565 
L 947 3565 
L 947 3059 
L 2880 3059 
L 2880 2605 
L 378 2605 
L 378 2080 
L 2810 2080 
C 2790 1926 2765 1792 2739 1658 
L 550 1658 
L 550 1126 
L 2547 1126 
C 2253 582 1645 237 262 38 
C 378 -90 518 -333 563 -493 
C 2176 -230 2861 269 3187 1037 
C 3693 160 4518 -307 5798 -499 
C 5862 -326 6029 -77 6157 51 
C 5024 173 4237 512 3776 1126 
L 5971 1126 
z
" transform="scale(0.015625)"/>
       <path id="NotoSansSC-Medium-253e" d="M 5466 4896 
L 960 4896 
L 960 4320 
L 5466 4320 
L 5466 4896 
z
M 4550 166 
C 4320 166 4282 205 4282 435 
L 4282 2566 
L 6022 2566 
L 6022 3142 
L 397 3142 
L 397 2566 
L 1939 2566 
C 1850 1440 1632 486 294 -13 
C 429 -128 602 -339 666 -493 
C 2170 109 2458 1216 2573 2566 
L 3667 2566 
L 3667 429 
C 3667 -198 3834 -397 4467 -397 
L 5318 -397 
C 5914 -397 6067 -83 6131 1024 
C 5971 1069 5715 1171 5574 1280 
C 5549 333 5510 166 5274 166 
L 4550 166 
z
" transform="scale(0.015625)"/>
       <path id="NotoSansSC-Medium-a" d="M 755 -1274 
C 1357 -301 1709 730 1709 2003 
C 1709 3264 1357 4307 755 5274 
L 294 5075 
C 845 4154 1101 3072 1101 2003 
C 1101 928 845 -154 294 -1069 
L 755 -1274 
z
" transform="scale(0.015625)"/>
      </defs>
      <use xlink:href="#NotoSansSC-Medium-57df"/>
      <use xlink:href="#NotoSansSC-Medium-3911" transform="translate(100 0)"/>
      <use xlink:href="#NotoSansSC-Medium-1" transform="translate(200 0)"/>
      <use xlink:href="#NotoSansSC-Medium-9" transform="translate(222.5 0)"/>
      <use xlink:href="#NotoSansSC-Medium-2736" transform="translate(258 0)"/>
      <use xlink:href="#NotoSansSC-Medium-22ba" transform="translate(358 0)"/>
      <use xlink:href="#NotoSansSC-Medium-5350" transform="translate(458 0)"/>
      <use xlink:href="#NotoSansSC-Medium-253e" transform="translate(558 0)"/>
      <use xlink:href="#NotoSansSC-Medium-a" transform="translate(658 0)"/>
     </g>
    </g>
   </g>
   <g id="patch_3">
    <path d="M 57.568463 254.624 
L 92.198663 254.624 
L 92.198663 213.235782 
L 57.568463 213.235782 
z
" clip-path="url(#p4471a8df98)" style="fill: #3b82f6; stroke: #ffffff; stroke-width: 1.2; stroke-linejoin: miter"/>
   </g>
   <g id="patch_4">
    <path d="M 120.532463 254.624 
L 155.162663 254.624 
L 155.162663 206.868364 
L 120.532463 206.868364 
z
" clip-path="url(#p4471a8df98)" style="fill: #3b82f6; stroke: #ffffff; stroke-width: 1.2; stroke-linejoin: miter"/>
   </g>
   <g id="patch_5">
    <path d="M 183.496463 254.624 
L 218.126663 254.624 
L 218.126663 198.749905 
L 183.496463 198.749905 
z
" clip-path="url(#p4471a8df98)" style="fill: #3b82f6; stroke: #ffffff; stroke-width: 1.2; stroke-linejoin: miter"/>
   </g>
   <g id="patch_6">
    <path d="M 246.460463 254.624 
L 281.090663 254.624 
L 281.090663 192.064116 
L 246.460463 192.064116 
z
" clip-path="url(#p4471a8df98)" style="fill: #3b82f6; stroke: #ffffff; stroke-width: 1.2; stroke-linejoin: miter"/>
   </g>
   <g id="patch_7">
    <path d="M 309.424463 254.624 
L 344.054663 254.624 
L 344.054663 124.728669 
L 309.424463 124.728669 
z
" clip-path="url(#p4471a8df98)" style="fill: #f59e0b; stroke: #ffffff; stroke-width: 1.2; stroke-linejoin: miter"/>
   </g>
   <g id="text_13">
    <!-- $26.0B -->
    <g style="fill: #1e293b" transform="translate(60.281063 209.263725) scale(0.09 -0.09)">
     <defs>
      <path id="NotoSansSC-Medium-5" d="M 1587 -787 
L 2099 -787 
L 2099 -58 
C 2803 64 3213 550 3213 1235 
C 3213 2726 1235 2509 1235 3443 
C 1235 3834 1491 4064 1901 4064 
C 2266 4064 2483 3923 2752 3674 
L 3130 4102 
C 2867 4384 2560 4602 2099 4659 
L 2099 5376 
L 1587 5376 
L 1587 4653 
C 941 4544 525 4077 525 3411 
C 525 2042 2502 2221 2502 1184 
C 2502 768 2259 518 1760 518 
C 1357 518 1005 710 678 979 
L 346 474 
C 666 186 1139 -32 1587 -77 
L 1587 -787 
z
" transform="scale(0.015625)"/>
      <path id="NotoSansSC-Medium-f" d="M 954 -83 
C 1229 -83 1446 128 1446 429 
C 1446 736 1229 954 954 954 
C 678 954 461 736 461 429 
C 461 128 678 -83 954 -83 
z
" transform="scale(0.015625)"/>
      <path id="NotoSansSC-Medium-76ea" d="M 1824 -83 
C 2765 -83 3347 768 3347 2310 
C 3347 3846 2765 4672 1824 4672 
C 890 4672 301 3853 301 2310 
C 301 768 890 -83 1824 -83 
z
M 1824 499 
C 1344 499 1005 992 1005 2310 
C 1005 3629 1344 4090 1824 4090 
C 2304 4090 2643 3629 2643 2310 
C 2643 992 2304 499 1824 499 
z
" transform="scale(0.015625)"/>
      <path id="NotoSansSC-Medium-23" d="M 621 0 
L 2195 0 
C 3238 0 4000 448 4000 1382 
C 4000 2022 3610 2387 3072 2502 
L 3072 2534 
C 3494 2675 3744 3104 3744 3552 
C 3744 4403 3046 4717 2080 4717 
L 621 4717 
L 621 0 
z
M 1363 2746 
L 1363 4134 
L 2016 4134 
C 2682 4134 3014 3949 3014 3456 
C 3014 3014 2714 2746 1997 2746 
L 1363 2746 
z
M 1363 582 
L 1363 2189 
L 2112 2189 
C 2861 2189 3270 1952 3270 1421 
C 3270 845 2848 582 2112 582 
L 1363 582 
z
" transform="scale(0.015625)"/>
     </defs>
     <use xlink:href="#NotoSansSC-Medium-5"/>
     <use xlink:href="#NotoSansSC-Medium-76ec" transform="translate(57 0)"/>
     <use xlink:href="#NotoSansSC-Medium-76f0" transform="translate(114 0)"/>
     <use xlink:href="#NotoSansSC-Medium-f" transform="translate(171 0)"/>
     <use xlink:href="#NotoSansSC-Medium-76ea" transform="translate(200.796875 0)"/>
     <use xlink:href="#NotoSansSC-Medium-23" transform="translate(257.796875 0)"/>
    </g>
   </g>
   <g id="text_14">
    <!-- $30.0B -->
    <g style="fill: #1e293b" transform="translate(123.245063 202.896307) scale(0.09 -0.09)">
     <use xlink:href="#NotoSansSC-Medium-5"/>
     <use xlink:href="#NotoSansSC-Medium-76ed" transform="translate(57 0)"/>
     <use xlink:href="#NotoSansSC-Medium-76ea" transform="translate(114 0)"/>
     <use xlink:href="#NotoSansSC-Medium-f" transform="translate(171 0)"/>
     <use xlink:href="#NotoSansSC-Medium-76ea" transform="translate(200.796875 0)"/>
     <use xlink:href="#NotoSansSC-Medium-23" transform="translate(257.796875 0)"/>
    </g>
   </g>
   <g id="text_15">
    <!-- $35.1B -->
    <g style="fill: #1e293b" transform="translate(186.209063 194.777849) scale(0.09 -0.09)">
     <defs>
      <path id="NotoSansSC-Medium-76ef" d="M 1715 -83 
C 2541 -83 3302 480 3302 1485 
C 3302 2470 2656 2912 1869 2912 
C 1613 2912 1427 2854 1222 2752 
L 1331 3962 
L 3078 3962 
L 3078 4582 
L 691 4582 
L 550 2342 
L 909 2112 
C 1184 2291 1363 2381 1664 2381 
C 2202 2381 2560 2042 2560 1459 
C 2560 877 2157 518 1626 518 
C 1133 518 794 755 525 1024 
L 173 544 
C 506 218 973 -83 1715 -83 
z
" transform="scale(0.015625)"/>
     </defs>
     <use xlink:href="#NotoSansSC-Medium-5"/>
     <use xlink:href="#NotoSansSC-Medium-76ed" transform="translate(57 0)"/>
     <use xlink:href="#NotoSansSC-Medium-76ef" transform="translate(114 0)"/>
     <use xlink:href="#NotoSansSC-Medium-f" transform="translate(171 0)"/>
     <use xlink:href="#NotoSansSC-Medium-76eb" transform="translate(200.796875 0)"/>
     <use xlink:href="#NotoSansSC-Medium-23" transform="translate(257.796875 0)"/>
    </g>
   </g>
   <g id="text_16">
    <!-- $39.3B -->
    <g style="fill: #1e293b" transform="translate(249.173063 188.092059) scale(0.09 -0.09)">
     <defs>
      <path id="NotoSansSC-Medium-76f3" d="M 960 3181 
C 960 3763 1280 4102 1683 4102 
C 2182 4102 2528 3712 2611 2867 
C 2349 2464 2010 2298 1728 2298 
C 1229 2298 960 2618 960 3181 
z
M 1530 -83 
C 2458 -83 3309 640 3309 2445 
C 3309 3962 2579 4672 1677 4672 
C 915 4672 275 4083 275 3181 
C 275 2234 806 1766 1600 1766 
C 1946 1766 2355 1971 2630 2323 
C 2598 979 2093 518 1491 518 
C 1216 518 928 659 755 870 
L 352 416 
C 614 134 998 -83 1530 -83 
z
" transform="scale(0.015625)"/>
     </defs>
     <use xlink:href="#NotoSansSC-Medium-5"/>
     <use xlink:href="#NotoSansSC-Medium-76ed" transform="translate(57 0)"/>
     <use xlink:href="#NotoSansSC-Medium-76f3" transform="translate(114 0)"/>
     <use xlink:href="#NotoSansSC-Medium-f" transform="translate(171 0)"/>
     <use xlink:href="#NotoSansSC-Medium-76ed" transform="translate(200.796875 0)"/>
     <use xlink:href="#NotoSansSC-Medium-23" transform="translate(257.796875 0)"/>
    </g>
   </g>
   <g id="text_17">
    <!-- $81.6B -->
    <g style="fill: #1e293b" transform="translate(312.137063 120.756612) scale(0.09 -0.09)">
     <defs>
      <path id="NotoSansSC-Medium-76f2" d="M 1830 -83 
C 2739 -83 3354 454 3354 1152 
C 3354 1766 2976 2093 2560 2336 
L 2560 2368 
C 2848 2579 3181 2970 3181 3443 
C 3181 4166 2669 4672 1850 4672 
C 1082 4672 506 4198 506 3469 
C 506 2989 787 2650 1139 2400 
L 1139 2374 
C 704 2144 294 1754 294 1171 
C 294 442 947 -83 1830 -83 
z
M 2138 2554 
C 1613 2758 1165 2976 1165 3469 
C 1165 3885 1453 4141 1837 4141 
C 2298 4141 2560 3821 2560 3398 
C 2560 3091 2413 2810 2138 2554 
z
M 1843 448 
C 1338 448 947 774 947 1242 
C 947 1626 1178 1939 1498 2163 
C 2138 1901 2656 1715 2656 1171 
C 2656 730 2330 448 1843 448 
z
" transform="scale(0.015625)"/>
     </defs>
     <use xlink:href="#NotoSansSC-Medium-5"/>
     <use xlink:href="#NotoSansSC-Medium-76f2" transform="translate(57 0)"/>
     <use xlink:href="#NotoSansSC-Medium-76eb" transform="translate(114 0)"/>
     <use xlink:href="#NotoSansSC-Medium-f" transform="translate(171 0)"/>
     <use xlink:href="#NotoSansSC-Medium-76f0" transform="translate(200.796875 0)"/>
     <use xlink:href="#NotoSansSC-Medium-23" transform="translate(257.796875 0)"/>
    </g>
   </g>
   <g id="patch_8">
    <path d="M 314.149675 111.956652 
Q 319.742277 117.630159 324.157572 122.109327 
" style="fill: none; stroke: #dc2626; stroke-width: 1.5; stroke-linecap: round"/>
    <path d="M 322.773862 117.85664 
L 324.157572 122.109327 
L 319.925197 120.664683 
" style="fill: none; stroke: #dc2626; stroke-width: 1.5; stroke-linecap: round"/>
   </g>
   <g id="text_18">
    <!-- +85% YoY -->
    <g style="fill: #dc2626" transform="translate(282.664763 106.581527) scale(0.1 -0.1)">
     <defs>
      <path id="NotoSansSC-Medium-c" d="M 1542 730 
L 2106 730 
L 2106 2112 
L 3405 2112 
L 3405 2643 
L 2106 2643 
L 2106 4026 
L 1542 4026 
L 1542 2643 
L 243 2643 
L 243 2112 
L 1542 2112 
L 1542 730 
z
" transform="scale(0.015625)"/>
      <path id="NotoSansSC-Medium-6" d="M 1331 1818 
C 1990 1818 2438 2368 2438 3315 
C 2438 4262 1990 4800 1331 4800 
C 672 4800 230 4262 230 3315 
C 230 2368 672 1818 1331 1818 
z
M 1331 2253 
C 1005 2253 768 2592 768 3315 
C 768 4045 1005 4365 1331 4365 
C 1664 4365 1901 4045 1901 3315 
C 1901 2592 1664 2253 1331 2253 
z
M 1478 -83 
L 1946 -83 
L 4525 4800 
L 4058 4800 
L 1478 -83 
z
M 4678 -83 
C 5331 -83 5779 461 5779 1408 
C 5779 2355 5331 2893 4678 2893 
C 4019 2893 3571 2355 3571 1408 
C 3571 461 4019 -83 4678 -83 
z
M 4678 346 
C 4346 346 4115 685 4115 1408 
C 4115 2138 4346 2458 4678 2458 
C 5005 2458 5242 2138 5242 1408 
C 5242 685 5005 346 4678 346 
z
" transform="scale(0.015625)"/>
      <path id="NotoSansSC-Medium-50" d="M 1965 -83 
C 2835 -83 3622 589 3622 1760 
C 3622 2931 2835 3610 1965 3610 
C 1094 3610 307 2931 307 1760 
C 307 589 1094 -83 1965 -83 
z
M 1965 518 
C 1414 518 1069 1011 1069 1760 
C 1069 2502 1414 3002 1965 3002 
C 2522 3002 2867 2502 2867 1760 
C 2867 1011 2522 518 1965 518 
z
" transform="scale(0.015625)"/>
     </defs>
     <use xlink:href="#NotoSansSC-Medium-c"/>
     <use xlink:href="#NotoSansSC-Medium-76f2" transform="translate(57 0)"/>
     <use xlink:href="#NotoSansSC-Medium-76ef" transform="translate(114 0)"/>
     <use xlink:href="#NotoSansSC-Medium-6" transform="translate(171 0)"/>
     <use xlink:href="#NotoSansSC-Medium-1" transform="translate(264.90625 0)"/>
     <use xlink:href="#NotoSansSC-Medium-3a" transform="translate(287.40625 0)"/>
     <use xlink:href="#NotoSansSC-Medium-50" transform="translate(337.609375 0)"/>
     <use xlink:href="#NotoSansSC-Medium-3a" transform="translate(393.515625 0)"/>
    </g>
   </g>
  </g>
  <g id="text_19">
   <!-- 英伟达单季营收 -->
   <g style="fill: #1e293b" transform="translate(43.401563 23.12) scale(0.14 -0.14)">
    <defs>
     <path id="NotoSansSC-Medium-56ae" d="M 1747 3667 
L 2336 3667 
L 2336 4288 
L 4032 4288 
L 4032 3667 
L 4627 3667 
L 4627 4288 
L 5939 4288 
L 5939 4819 
L 4627 4819 
L 4627 5363 
L 4032 5363 
L 4032 4819 
L 2336 4819 
L 2336 5363 
L 1747 5363 
L 1747 4819 
L 442 4819 
L 442 4288 
L 1747 4288 
L 1747 3667 
z
M 1581 1824 
L 1581 2778 
L 2861 2778 
L 2861 2189 
C 2861 2067 2854 1946 2842 1824 
L 1581 1824 
z
M 4832 2778 
L 4832 1824 
L 3462 1824 
C 3475 1946 3482 2061 3482 2182 
L 3482 2778 
L 4832 2778 
z
M 6029 1274 
L 6029 1824 
L 5434 1824 
L 5434 3296 
L 3482 3296 
L 3482 3987 
L 2861 3987 
L 2861 3296 
L 1011 3296 
L 1011 1824 
L 371 1824 
L 371 1274 
L 2669 1274 
C 2387 755 1741 294 243 -19 
C 378 -147 544 -390 614 -518 
C 2163 -154 2906 390 3238 1024 
C 3757 173 4582 -314 5818 -518 
C 5894 -352 6054 -102 6189 32 
C 5005 179 4179 576 3712 1274 
L 6029 1274 
z
" transform="scale(0.015625)"/>
     <path id="NotoSansSC-Medium-231a" d="M 1690 5338 
C 1363 4410 826 3482 250 2880 
C 346 2739 518 2419 576 2278 
C 742 2458 909 2669 1069 2893 
L 1069 -506 
L 1632 -506 
L 1632 3808 
C 1869 4243 2086 4704 2253 5171 
L 1690 5338 
z
M 4237 2195 
L 4237 2835 
L 5715 2835 
L 5715 3386 
L 4237 3386 
L 4237 3994 
L 5926 3994 
L 5926 4544 
L 4237 4544 
L 4237 5363 
L 3667 5363 
L 3667 4544 
L 2176 4544 
L 2176 3994 
L 3667 3994 
L 3667 3386 
L 2336 3386 
L 2336 2835 
L 3667 2835 
L 3667 2195 
L 1984 2195 
L 1984 1638 
L 3667 1638 
L 3667 -499 
L 4237 -499 
L 4237 1638 
L 5498 1638 
C 5446 934 5376 646 5306 557 
C 5261 506 5216 493 5139 493 
C 5056 493 4902 493 4710 512 
C 4787 371 4838 154 4851 -6 
C 5075 -13 5286 -13 5402 6 
C 5555 26 5651 70 5754 186 
C 5907 358 5978 826 6054 1971 
C 6067 2048 6067 2195 6067 2195 
L 4237 2195 
z
" transform="scale(0.015625)"/>
     <path id="NotoSansSC-Medium-6370" d="M 6016 1062 
C 5626 1632 4819 2490 4122 3142 
C 4147 3283 4166 3430 4186 3571 
L 6003 3571 
L 6003 4147 
L 4243 4147 
C 4269 4531 4282 4934 4294 5344 
L 3674 5344 
C 3667 4934 3654 4531 3629 4147 
L 2099 4147 
L 2099 3571 
L 3578 3571 
C 3437 2509 3066 1651 2016 1120 
C 2150 1011 2336 794 2413 646 
C 3258 1088 3712 1734 3962 2515 
C 4563 1901 5190 1171 5510 685 
L 6016 1062 
z
M 1792 4032 
C 1651 4371 1306 4877 992 5248 
L 486 4986 
C 787 4608 1120 4077 1248 3744 
L 1792 4032 
z
M 1734 3034 
L 314 3034 
L 314 2458 
L 1139 2458 
L 1139 864 
C 864 742 544 480 224 128 
L 640 -442 
C 922 -13 1222 384 1421 384 
C 1562 384 1773 173 2048 6 
C 2496 -275 3027 -346 3834 -346 
C 4448 -346 5555 -307 5990 -282 
C 5997 -109 6086 192 6163 358 
C 5549 275 4576 218 3853 218 
C 3136 218 2586 262 2157 525 
C 1978 640 1850 742 1734 819 
L 1734 3034 
z
" transform="scale(0.015625)"/>
     <path id="NotoSansSC-Medium-2749" d="M 1523 2176 
L 1523 2752 
L 2880 2752 
L 2880 2176 
L 1523 2176 
z
M 1523 3789 
L 2880 3789 
L 2880 3219 
L 1523 3219 
L 1523 3789 
z
M 4915 3219 
L 3494 3219 
L 3494 3789 
L 4915 3789 
L 4915 3219 
z
M 4915 2176 
L 3494 2176 
L 3494 2752 
L 4915 2752 
L 4915 2176 
z
M 6054 1152 
L 3494 1152 
L 3494 1683 
L 5523 1683 
L 5523 4275 
L 4525 4275 
C 4717 4531 4922 4838 5107 5126 
L 4454 5331 
C 4314 5011 4070 4582 3853 4275 
L 2374 4275 
L 2656 4416 
C 2528 4672 2234 5062 1984 5344 
L 1472 5101 
C 1683 4858 1914 4525 2048 4275 
L 941 4275 
L 941 1683 
L 2880 1683 
L 2880 1152 
L 358 1152 
L 358 602 
L 2880 602 
L 2880 -499 
L 3494 -499 
L 3494 602 
L 6054 602 
L 6054 1152 
z
" transform="scale(0.015625)"/>
     <path id="NotoSansSC-Medium-2f48" d="M 3475 2579 
L 3475 3482 
C 4058 2861 4954 2310 5773 2029 
C 5856 2170 6029 2387 6144 2496 
C 5427 2707 4634 3098 4096 3558 
L 6010 3558 
L 6010 4064 
L 3475 4064 
L 3475 4634 
C 4179 4704 4845 4800 5376 4928 
L 4883 5350 
C 3962 5133 2240 5005 800 4966 
C 858 4845 922 4621 934 4493 
C 1555 4506 2234 4538 2893 4589 
L 2893 4064 
L 403 4064 
L 403 3558 
L 2291 3558 
C 1747 3091 960 2675 243 2458 
C 371 2342 538 2131 621 2003 
C 902 2099 1190 2240 1485 2394 
L 1485 1946 
L 3661 1946 
C 3424 1824 3162 1715 2925 1632 
L 2925 1267 
L 397 1267 
L 397 755 
L 2925 755 
L 2925 134 
C 2925 51 2893 26 2771 19 
C 2656 13 2227 13 1805 26 
C 1882 -122 1978 -339 2010 -493 
C 2554 -493 2938 -493 3187 -416 
C 3430 -333 3507 -192 3507 122 
L 3507 755 
L 6016 755 
L 6016 1267 
L 3507 1267 
L 3507 1395 
C 4000 1587 4506 1856 4883 2131 
L 4518 2445 
L 4390 2413 
L 1517 2413 
C 2029 2701 2515 3059 2893 3456 
L 2893 2579 
L 3475 2579 
z
" transform="scale(0.015625)"/>
    </defs>
    <use xlink:href="#NotoSansSC-Medium-56ae"/>
    <use xlink:href="#NotoSansSC-Medium-231a" transform="translate(100 0)"/>
    <use xlink:href="#NotoSansSC-Medium-6370" transform="translate(200 0)"/>
    <use xlink:href="#NotoSansSC-Medium-2749" transform="translate(300 0)"/>
    <use xlink:href="#NotoSansSC-Medium-2f48" transform="translate(400 0)"/>
    <use xlink:href="#NotoSansSC-Medium-57df" transform="translate(500 0)"/>
    <use xlink:href="#NotoSansSC-Medium-3911" transform="translate(600 0)"/>
   </g>
  </g>
  <g id="text_20">
   <!-- FY26 Q1 → FY27 Q1 · 单位: 十亿美元 -->
   <g style="fill: #64748b" transform="translate(43.401563 43.664) scale(0.09 -0.09)">
    <defs>
     <path id="NotoSansSC-Medium-217" d="M 5011 2701 
L 256 2701 
L 256 2163 
L 5011 2163 
C 4704 1939 4320 1555 4058 1190 
L 4525 928 
C 4960 1491 5600 2061 6176 2432 
C 5600 2803 4960 3373 4525 3936 
L 4058 3674 
C 4320 3309 4704 2925 5011 2701 
z
" transform="scale(0.015625)"/>
     <path id="NotoSansSC-Medium-561" d="M 3200 3174 
C 2790 3174 2458 2842 2458 2432 
C 2458 2022 2790 1690 3200 1690 
C 3610 1690 3942 2022 3942 2432 
C 3942 2842 3610 3174 3200 3174 
z
" transform="scale(0.015625)"/>
     <path id="NotoSansSC-Medium-2348" d="M 4480 4448 
C 4416 4723 4282 5120 4160 5434 
L 3597 5293 
C 3718 4973 3846 4550 3891 4282 
L 4480 4448 
z
M 5843 4250 
L 2355 4250 
L 2355 3674 
L 5843 3674 
L 5843 4250 
z
M 3750 742 
C 3686 1389 3488 2502 3290 3366 
L 2758 3245 
C 2938 2374 3110 1235 3162 570 
L 3750 742 
z
M 1773 5344 
C 1434 4410 864 3475 256 2880 
C 358 2739 531 2419 589 2278 
C 768 2464 947 2675 1114 2912 
L 1114 -493 
L 1715 -493 
L 1715 3846 
C 1952 4275 2170 4723 2336 5171 
L 1773 5344 
z
M 4870 326 
C 5101 1146 5344 2336 5517 3302 
L 4896 3405 
C 4787 2464 4550 1171 4320 326 
L 2099 326 
L 2099 -243 
L 6080 -243 
L 6080 326 
L 4870 326 
z
" transform="scale(0.015625)"/>
     <path id="NotoSansSC-Medium-1b" d="M 954 2432 
C 1229 2432 1446 2650 1446 2944 
C 1446 3245 1229 3469 954 3469 
C 678 3469 461 3245 461 2944 
C 461 2650 678 2432 954 2432 
z
M 954 -83 
C 1229 -83 1446 128 1446 429 
C 1446 736 1229 954 954 954 
C 678 954 461 736 461 429 
C 461 128 678 -83 954 -83 
z
" transform="scale(0.015625)"/>
    </defs>
    <use xlink:href="#NotoSansSC-Medium-27"/>
    <use xlink:href="#NotoSansSC-Medium-3a" transform="translate(56.1875 0)"/>
    <use xlink:href="#NotoSansSC-Medium-76ec" transform="translate(111.484375 0)"/>
    <use xlink:href="#NotoSansSC-Medium-76f0" transform="translate(168.484375 0)"/>
    <use xlink:href="#NotoSansSC-Medium-1" transform="translate(225.484375 0)"/>
    <use xlink:href="#NotoSansSC-Medium-32" transform="translate(247.984375 0)"/>
    <use xlink:href="#NotoSansSC-Medium-76eb" transform="translate(323.390625 0)"/>
    <use xlink:href="#NotoSansSC-Medium-1" transform="translate(380.390625 0)"/>
    <use xlink:href="#NotoSansSC-Medium-217" transform="translate(402.890625 0)"/>
    <use xlink:href="#NotoSansSC-Medium-1" transform="translate(502.890625 0)"/>
    <use xlink:href="#NotoSansSC-Medium-27" transform="translate(525.390625 0)"/>
    <use xlink:href="#NotoSansSC-Medium-3a" transform="translate(581.578125 0)"/>
    <use xlink:href="#NotoSansSC-Medium-76ec" transform="translate(636.875 0)"/>
    <use xlink:href="#NotoSansSC-Medium-76f1" transform="translate(693.875 0)"/>
    <use xlink:href="#NotoSansSC-Medium-1" transform="translate(750.875 0)"/>
    <use xlink:href="#NotoSansSC-Medium-32" transform="translate(773.375 0)"/>
    <use xlink:href="#NotoSansSC-Medium-76eb" transform="translate(848.78125 0)"/>
    <use xlink:href="#NotoSansSC-Medium-1" transform="translate(905.78125 0)"/>
    <use xlink:href="#NotoSansSC-Medium-561" transform="translate(928.28125 0)"/>
    <use xlink:href="#NotoSansSC-Medium-1" transform="translate(1028.28125 0)"/>
    <use xlink:href="#NotoSansSC-Medium-2749" transform="translate(1050.78125 0)"/>
    <use xlink:href="#NotoSansSC-Medium-2348" transform="translate(1150.78125 0)"/>
    <use xlink:href="#NotoSansSC-Medium-1b" transform="translate(1250.78125 0)"/>
    <use xlink:href="#NotoSansSC-Medium-1" transform="translate(1280.578125 0)"/>
    <use xlink:href="#NotoSansSC-Medium-2736" transform="translate(1303.078125 0)"/>
    <use xlink:href="#NotoSansSC-Medium-22ba" transform="translate(1403.078125 0)"/>
    <use xlink:href="#NotoSansSC-Medium-5350" transform="translate(1503.078125 0)"/>
    <use xlink:href="#NotoSansSC-Medium-253e" transform="translate(1603.078125 0)"/>
   </g>
  </g>
  <g id="text_21">
   <!-- 来源: NVIDIA IR · 2026-05-27 -->
   <g style="fill: #94a3b8" transform="translate(43.401563 268.892) scale(0.065 -0.065)">
    <defs>
     <path id="NotoSansSC-Medium-3b3c" d="M 6029 2003 
L 6029 2579 
L 3514 2579 
L 3514 4064 
L 5773 4064 
L 5773 4634 
L 3514 4634 
L 3514 5370 
L 2886 5370 
L 2886 4634 
L 678 4634 
L 678 4064 
L 2886 4064 
L 2886 2579 
L 378 2579 
L 378 2003 
L 2515 2003 
C 1939 1274 1056 595 224 243 
C 358 122 550 -102 646 -256 
C 1453 147 2285 851 2886 1638 
L 2886 -506 
L 3514 -506 
L 3514 1651 
C 4115 858 4947 134 5760 -275 
C 5856 -115 6048 109 6176 230 
C 5350 589 4467 1274 3904 2003 
L 6029 2003 
z
M 1158 3789 
C 1395 3418 1619 2912 1696 2598 
L 2259 2822 
C 2176 3142 1926 3622 1683 3987 
L 1158 3789 
z
M 4672 2592 
C 4890 2899 5158 3386 5382 3821 
L 4762 4006 
C 4621 3629 4371 3104 4160 2765 
L 4672 2592 
z
" transform="scale(0.015625)"/>
     <path id="NotoSansSC-Medium-4260" d="M 1965 4659 
C 1715 4838 1229 5120 902 5306 
L 550 4883 
C 890 4672 1363 4371 1600 4186 
L 1965 4659 
z
M 1658 2989 
C 1402 3162 922 3430 589 3603 
L 243 3181 
C 589 2982 1062 2688 1299 2515 
L 1658 2989 
z
M 1293 1958 
C 1011 1222 627 403 358 -96 
L 896 -422 
C 1190 186 1517 954 1766 1626 
L 1293 1958 
z
M 2733 4512 
L 6067 4512 
L 6067 5050 
L 2150 5050 
L 2150 3302 
C 2150 2266 2086 826 1370 -173 
C 1510 -237 1766 -390 1869 -486 
C 2618 570 2733 2189 2733 3302 
L 2733 4512 
z
M 3213 1312 
C 3046 902 2771 454 2496 154 
C 2630 83 2861 -58 2970 -134 
C 3232 186 3539 704 3744 1165 
L 3213 1312 
z
M 3571 2534 
L 5299 2534 
L 5299 2067 
L 3571 2067 
L 3571 2534 
z
M 3571 3418 
L 5299 3418 
L 5299 2957 
L 3571 2957 
L 3571 3418 
z
M 5856 1626 
L 5856 3866 
L 4544 3866 
C 4621 4019 4710 4179 4794 4352 
L 4128 4474 
C 4090 4301 4019 4064 3955 3866 
L 3040 3866 
L 3040 1626 
L 4122 1626 
L 4122 102 
C 4122 32 4096 6 4019 6 
C 3942 6 3680 0 3411 13 
C 3469 -134 3546 -352 3565 -499 
C 3981 -506 4262 -499 4448 -410 
C 4640 -333 4685 -186 4685 83 
L 4685 1626 
L 5856 1626 
z
M 5005 1178 
C 5235 774 5517 237 5651 -83 
L 6195 154 
C 6054 467 5754 986 5517 1370 
L 5005 1178 
z
" transform="scale(0.015625)"/>
     <path id="NotoSansSC-Medium-2f" d="M 621 0 
L 1325 0 
L 1325 2221 
C 1325 2733 1267 3277 1229 3763 
L 1261 3763 
L 1754 2778 
L 3315 0 
L 4077 0 
L 4077 4717 
L 3373 4717 
L 3373 2515 
C 3373 2003 3430 1434 3469 947 
L 3437 947 
L 2944 1946 
L 1382 4717 
L 621 4717 
L 621 0 
z
" transform="scale(0.015625)"/>
     <path id="NotoSansSC-Medium-37" d="M 1466 0 
L 2342 0 
L 3814 4717 
L 3059 4717 
L 2362 2272 
C 2208 1734 2099 1274 1933 730 
L 1901 730 
C 1741 1274 1632 1734 1472 2272 
L 774 4717 
L -13 4717 
L 1466 0 
z
" transform="scale(0.015625)"/>
     <path id="NotoSansSC-Medium-2a" d="M 621 0 
L 1363 0 
L 1363 4717 
L 621 4717 
L 621 0 
z
" transform="scale(0.015625)"/>
     <path id="NotoSansSC-Medium-25" d="M 621 0 
L 1882 0 
C 3290 0 4115 845 4115 2374 
C 4115 3910 3290 4717 1843 4717 
L 621 4717 
L 621 0 
z
M 1363 608 
L 1363 4109 
L 1792 4109 
C 2803 4109 3347 3552 3347 2374 
C 3347 1203 2803 608 1792 608 
L 1363 608 
z
" transform="scale(0.015625)"/>
     <path id="NotoSansSC-Medium-22" d="M 1523 2560 
C 1677 3072 1824 3590 1958 4128 
L 1990 4128 
C 2131 3597 2272 3072 2432 2560 
L 2618 1926 
L 1331 1926 
L 1523 2560 
z
M 0 0 
L 755 0 
L 1158 1344 
L 2797 1344 
L 3194 0 
L 3981 0 
L 2419 4717 
L 1562 4717 
L 0 0 
z
" transform="scale(0.015625)"/>
     <path id="NotoSansSC-Medium-33" d="M 621 0 
L 1363 0 
L 1363 1901 
L 2125 1901 
L 3194 0 
L 4032 0 
L 2880 1997 
C 3475 2182 3866 2618 3866 3347 
C 3866 4365 3136 4717 2163 4717 
L 621 4717 
L 621 0 
z
M 1363 2496 
L 1363 4115 
L 2074 4115 
C 2758 4115 3130 3917 3130 3347 
C 3130 2778 2758 2496 2074 2496 
L 1363 2496 
z
" transform="scale(0.015625)"/>
     <path id="NotoSansSC-Medium-e" d="M 301 1536 
L 1990 1536 
L 1990 2080 
L 301 2080 
L 301 1536 
z
" transform="scale(0.015625)"/>
    </defs>
    <use xlink:href="#NotoSansSC-Medium-3b3c"/>
    <use xlink:href="#NotoSansSC-Medium-4260" transform="translate(100 0)"/>
    <use xlink:href="#NotoSansSC-Medium-1b" transform="translate(200 0)"/>
    <use xlink:href="#NotoSansSC-Medium-1" transform="translate(229.796875 0)"/>
    <use xlink:href="#NotoSansSC-Medium-2f" transform="translate(252.296875 0)"/>
    <use xlink:href="#NotoSansSC-Medium-37" transform="translate(325.703125 0)"/>
    <use xlink:href="#NotoSansSC-Medium-2a" transform="translate(385.109375 0)"/>
    <use xlink:href="#NotoSansSC-Medium-25" transform="translate(416.015625 0)"/>
    <use xlink:href="#NotoSansSC-Medium-2a" transform="translate(485.921875 0)"/>
    <use xlink:href="#NotoSansSC-Medium-22" transform="translate(516.828125 0)"/>
    <use xlink:href="#NotoSansSC-Medium-1" transform="translate(579.03125 0)"/>
    <use xlink:href="#NotoSansSC-Medium-2a" transform="translate(601.53125 0)"/>
    <use xlink:href="#NotoSansSC-Medium-33" transform="translate(632.4375 0)"/>
    <use xlink:href="#NotoSansSC-Medium-1" transform="translate(698.03125 0)"/>
    <use xlink:href="#NotoSansSC-Medium-561" transform="translate(720.53125 0)"/>
    <use xlink:href="#NotoSansSC-Medium-1" transform="translate(820.53125 0)"/>
    <use xlink:href="#NotoSansSC-Medium-76ec" transform="translate(843.03125 0)"/>
    <use xlink:href="#NotoSansSC-Medium-76ea" transform="translate(900.03125 0)"/>
    <use xlink:href="#NotoSansSC-Medium-76ec" transform="translate(957.03125 0)"/>
    <use xlink:href="#NotoSansSC-Medium-76f0" transform="translate(1014.03125 0)"/>
    <use xlink:href="#NotoSansSC-Medium-e" transform="translate(1071.03125 0)"/>
    <use xlink:href="#NotoSansSC-Medium-76ea" transform="translate(1106.734375 0)"/>
    <use xlink:href="#NotoSansSC-Medium-76ef" transform="translate(1163.734375 0)"/>
    <use xlink:href="#NotoSansSC-Medium-e" transform="translate(1220.734375 0)"/>
    <use xlink:href="#NotoSansSC-Medium-76ec" transform="translate(1256.4375 0)"/>
    <use xlink:href="#NotoSansSC-Medium-76f1" transform="translate(1313.4375 0)"/>
   </g>
  </g>
 </g>
 <defs>
  <clipPath id="p4471a8df98">
   <rect x="43.401563" y="79.52" width="314.82" height="175.104"/>
  </clipPath>
 </defs>
</svg>
