<?xml version="1.0" encoding="utf-8" standalone="no"?>
<!DOCTYPE svg PUBLIC "-//W3C//DTD SVG 1.1//EN"
  "http://www.w3.org/Graphics/SVG/1.1/DTD/svg11.dtd">
<svg xmlns:xlink="http://www.w3.org/1999/xlink" width="336.096pt" height="316.468438pt" viewBox="0 0 336.096 316.468438" xmlns="http://www.w3.org/2000/svg" version="1.1">
 <metadata>
  <rdf:RDF xmlns:dc="http://purl.org/dc/elements/1.1/" xmlns:cc="http://creativecommons.org/ns#" xmlns:rdf="http://www.w3.org/1999/02/22-rdf-syntax-ns#">
   <cc:Work>
    <dc:type rdf:resource="http://purl.org/dc/dcmitype/StillImage"/>
    <dc:date>2026-06-02T14:44:36.085350</dc:date>
    <dc:format>image/svg+xml</dc:format>
    <dc:creator>
     <cc:Agent>
      <dc:title>Matplotlib v3.10.9, https://matplotlib.org/</dc:title>
     </cc:Agent>
    </dc:creator>
   </cc:Work>
  </rdf:RDF>
 </metadata>
 <defs>
  <style type="text/css">*{stroke-linejoin: round; stroke-linecap: butt}</style>
 </defs>
 <g id="figure_1">
  <g id="patch_1">
   <path d="M 0 316.468438 
L 336.096 316.468438 
L 336.096 0 
L 0 0 
z
" style="fill: #ffffff"/>
  </g>
  <g id="axes_1">
   <g id="patch_2">
    <path d="M 10.8 77.328 
L 325.296 77.328 
L 325.296 10.8 
L 10.8 10.8 
z
" style="fill: #ffffff"/>
   </g>
   <g id="matplotlib.axis_1"/>
   <g id="matplotlib.axis_2"/>
   <g id="text_1">
    <!-- WTI原油 · 实时KPI看板 -->
    <g style="fill: #1e293b" transform="translate(10.8 31.97045) scale(0.14 -0.14)">
     <defs>
      <path id="MicrosoftYaHei-Bold-57" d="M 6825 4841 
L 5534 0 
L 4388 0 
L 3563 3156 
Q 3497 3413 3484 3691 
L 3472 3691 
Q 3441 3366 3384 3156 
L 2541 0 
L 1350 0 
L 59 4841 
L 1191 4841 
L 1909 1559 
Q 1956 1344 1975 1016 
L 1997 1016 
Q 2013 1272 2094 1575 
L 2994 4841 
L 4091 4841 
L 4909 1534 
Q 4959 1338 4988 1022 
L 5003 1022 
Q 5016 1294 5075 1553 
L 5778 4841 
L 6825 4841 
z
" transform="scale(0.015625)"/>
      <path id="MicrosoftYaHei-Bold-54" d="M 3900 3997 
L 2519 3997 
L 2519 0 
L 1484 0 
L 1484 3997 
L 106 3997 
L 106 4841 
L 3900 4841 
L 3900 3997 
z
" transform="scale(0.015625)"/>
      <path id="MicrosoftYaHei-Bold-49" d="M 1588 4841 
L 1588 0 
L 556 0 
L 556 4841 
L 1588 4841 
z
" transform="scale(0.015625)"/>
      <path id="MicrosoftYaHei-Bold-539f" d="M 2450 1178 
L 3150 709 
Q 2894 375 2594 41 
Q 2922 9 3200 9 
Q 3525 9 3525 284 
L 3525 1253 
L 1950 1253 
L 1950 3872 
L 3006 3872 
Q 3106 4106 3184 4347 
L 1556 4347 
L 1556 2491 
Q 1556 216 775 -872 
Q 438 -528 69 -272 
Q 694 559 694 2603 
L 694 5078 
L 6250 5078 
L 6250 4347 
L 4106 4347 
Q 4003 4097 3888 3872 
L 5888 3872 
L 5888 1253 
L 4400 1253 
L 4400 34 
Q 4400 -344 4217 -547 
Q 4034 -750 3636 -767 
Q 3238 -784 2719 -778 
Q 2666 -359 2556 0 
Q 2266 -319 1938 -641 
L 1306 -84 
Q 1975 534 2450 1178 
z
M 5063 3234 
L 2775 3234 
L 2775 2853 
L 5063 2853 
L 5063 3234 
z
M 5063 1891 
L 5063 2278 
L 2775 2278 
L 2775 1891 
L 5063 1891 
z
M 5181 1203 
Q 5744 616 6325 -91 
L 5613 -609 
Q 5106 66 4531 759 
L 5181 1203 
z
" transform="scale(0.015625)"/>
      <path id="MicrosoftYaHei-Bold-6cb9" d="M 713 5253 
Q 1194 4922 1763 4447 
L 1188 3809 
Q 681 4284 181 4697 
L 713 5253 
z
M 2013 -797 
L 2013 4328 
L 3650 4328 
L 3650 5241 
L 4419 5241 
L 4419 4328 
L 6056 4328 
L 6056 -797 
L 5231 -797 
L 5231 -359 
L 2838 -359 
L 2838 -797 
L 2013 -797 
z
M 5231 3528 
L 4419 3528 
L 4419 2378 
L 5231 2378 
L 5231 3528 
z
M 2838 2378 
L 3650 2378 
L 3650 3528 
L 2838 3528 
L 2838 2378 
z
M 2838 441 
L 3650 441 
L 3650 1628 
L 2838 1628 
L 2838 441 
z
M 4419 441 
L 5231 441 
L 5231 1628 
L 4419 1628 
L 4419 441 
z
M 644 3591 
Q 1200 3197 1663 2803 
L 1056 2153 
Q 675 2534 88 3003 
L 644 3591 
z
M 888 1903 
Q 1363 1697 1750 1572 
Q 1369 278 1013 -809 
Q 556 -641 144 -516 
Q 556 622 888 1903 
z
" transform="scale(0.015625)"/>
      <path id="MicrosoftYaHei-Bold-20" transform="scale(0.015625)"/>
      <path id="MicrosoftYaHei-Bold-b7" d="M 1406 2959 
Q 1769 2959 2028 2700 
Q 2288 2441 2288 2078 
Q 2288 1713 2028 1455 
Q 1769 1197 1406 1197 
Q 1041 1197 783 1455 
Q 525 1713 525 2078 
Q 525 2441 783 2700 
Q 1041 2959 1406 2959 
z
" transform="scale(0.015625)"/>
      <path id="MicrosoftYaHei-Bold-5b9e" d="M 4219 3716 
Q 4181 2422 4056 1653 
L 6238 1653 
L 6238 878 
L 3863 878 
Q 3850 841 3813 766 
Q 5019 372 6206 -66 
L 5881 -847 
Q 4619 -316 3369 153 
Q 2550 -616 863 -916 
Q 556 -384 331 -78 
Q 2338 209 2894 878 
L 169 878 
L 169 1653 
L 2144 1653 
Q 1481 2053 931 2328 
L 1319 2934 
Q 1894 2659 2638 2247 
L 2244 1653 
L 3175 1653 
Q 3331 2453 3350 3716 
L 4219 3716 
z
M 300 3078 
L 300 4703 
L 2819 4703 
Q 2700 5009 2606 5228 
L 3675 5341 
Q 3769 5084 3888 4703 
L 6094 4703 
L 6094 3078 
L 5225 3078 
L 5225 3953 
L 1169 3953 
L 1169 3078 
L 300 3078 
z
M 1813 3772 
Q 2469 3484 3163 3134 
L 2769 2497 
Q 2031 2909 1450 3184 
L 1813 3772 
z
" transform="scale(0.015625)"/>
      <path id="MicrosoftYaHei-Bold-65f6" d="M 3038 4241 
L 4888 4241 
L 4888 5291 
L 5781 5291 
L 5781 4241 
L 6306 4241 
L 6306 3409 
L 5781 3409 
L 5781 316 
Q 5781 -209 5547 -478 
Q 5313 -747 4898 -762 
Q 4484 -778 3669 -778 
Q 3569 -209 3456 134 
Q 4344 109 4431 109 
Q 4888 109 4888 584 
L 4888 3409 
L 3038 3409 
L 3038 4241 
z
M 394 -497 
L 394 4897 
L 2856 4897 
L 2856 -459 
L 2031 -459 
L 2031 -28 
L 1219 -28 
L 1219 -497 
L 394 -497 
z
M 2031 4072 
L 1219 4072 
L 1219 2834 
L 2031 2834 
L 2031 4072 
z
M 1219 797 
L 2031 797 
L 2031 2034 
L 1219 2034 
L 1219 797 
z
M 3588 3072 
Q 4013 2541 4713 1559 
L 3956 1066 
Q 3388 2009 2938 2641 
L 3588 3072 
z
" transform="scale(0.015625)"/>
      <path id="MicrosoftYaHei-Bold-4b" d="M 4506 0 
L 3200 0 
L 1734 2116 
Q 1678 2197 1606 2369 
L 1591 2369 
L 1591 0 
L 559 0 
L 559 4841 
L 1591 4841 
L 1591 2553 
L 1606 2553 
Q 1675 2703 1744 2813 
L 3131 4841 
L 4363 4841 
L 2631 2531 
L 4506 0 
z
" transform="scale(0.015625)"/>
      <path id="MicrosoftYaHei-Bold-50" d="M 1591 1688 
L 1591 0 
L 559 0 
L 559 4841 
L 2225 4841 
Q 4031 4841 4031 3309 
Q 4031 2566 3486 2117 
Q 2941 1669 2122 1688 
L 1591 1688 
z
M 1591 4041 
L 1591 2478 
L 2038 2478 
Q 2947 2478 2947 3269 
Q 2947 4041 2047 4041 
L 1591 4041 
z
" transform="scale(0.015625)"/>
      <path id="MicrosoftYaHei-Bold-770b" d="M 1213 -847 
L 1213 1128 
Q 856 803 450 497 
Q 300 978 106 1409 
Q 1025 1972 1622 2691 
L 125 2691 
L 125 3259 
L 2031 3259 
Q 2125 3416 2209 3578 
L 600 3578 
L 600 4116 
L 2441 4116 
Q 2494 4259 2534 4406 
L 544 4359 
Q 506 4716 444 5028 
Q 3569 5047 5850 5178 
L 5981 4516 
L 3444 4431 
Q 3391 4272 3331 4116 
L 5825 4116 
L 5825 3578 
L 3097 3578 
Q 3019 3416 2931 3259 
L 6300 3259 
L 6300 2691 
L 2584 2691 
Q 2484 2544 2378 2403 
L 5681 2403 
L 5681 -847 
L 4825 -847 
L 4825 -609 
L 2069 -609 
L 2069 -847 
L 1213 -847 
z
M 4825 1816 
L 2069 1816 
L 2069 1497 
L 4825 1497 
L 4825 1816 
z
M 2069 741 
L 4825 741 
L 4825 1059 
L 2069 1059 
L 2069 741 
z
M 2069 -22 
L 4825 -22 
L 4825 303 
L 2069 303 
L 2069 -22 
z
" transform="scale(0.015625)"/>
      <path id="MicrosoftYaHei-Bold-677f" d="M 94 1559 
Q 653 2478 878 3297 
L 150 3297 
L 150 4116 
L 888 4116 
L 888 5272 
L 1700 5272 
L 1700 4116 
L 2363 4116 
L 2363 3297 
L 1700 3297 
L 1700 2734 
Q 2078 2544 2494 2309 
L 2100 1597 
Q 1916 1722 1700 1847 
L 1700 -828 
L 888 -828 
L 888 1569 
Q 650 1006 319 459 
Q 206 1066 94 1559 
z
M 5963 5191 
L 6238 4353 
Q 5231 4159 3325 4047 
L 3325 3453 
L 6056 3453 
L 6056 2653 
Q 5763 1528 5175 691 
Q 5663 250 6319 72 
Q 6031 -334 5756 -872 
Q 5100 -509 4609 16 
Q 4088 -500 3413 -866 
Q 3175 -428 2931 -66 
Q 3597 259 4072 713 
Q 3688 1328 3456 2103 
L 4063 2653 
L 3325 2653 
L 3325 2128 
Q 3325 359 2375 -872 
Q 2069 -484 1744 -159 
Q 2513 766 2513 2472 
L 2513 4859 
Q 4756 4966 5963 5191 
z
M 4619 1359 
Q 4997 1934 5156 2653 
L 4069 2653 
Q 4278 1903 4619 1359 
z
" transform="scale(0.015625)"/>
     </defs>
     <use xlink:href="#MicrosoftYaHei-Bold-57"/>
     <use xlink:href="#MicrosoftYaHei-Bold-54" transform="translate(109.242188 0)"/>
     <use xlink:href="#MicrosoftYaHei-Bold-49" transform="translate(171.791016 0)"/>
     <use xlink:href="#MicrosoftYaHei-Bold-539f" transform="translate(205.335938 0)"/>
     <use xlink:href="#MicrosoftYaHei-Bold-6cb9" transform="translate(305.335938 0)"/>
     <use xlink:href="#MicrosoftYaHei-Bold-20" transform="translate(405.335938 0)"/>
     <use xlink:href="#MicrosoftYaHei-Bold-b7" transform="translate(435.121094 0)"/>
     <use xlink:href="#MicrosoftYaHei-Bold-20" transform="translate(479.066406 0)"/>
     <use xlink:href="#MicrosoftYaHei-Bold-5b9e" transform="translate(508.851562 0)"/>
     <use xlink:href="#MicrosoftYaHei-Bold-65f6" transform="translate(608.851562 0)"/>
     <use xlink:href="#MicrosoftYaHei-Bold-4b" transform="translate(708.851562 0)"/>
     <use xlink:href="#MicrosoftYaHei-Bold-50" transform="translate(778.138672 0)"/>
     <use xlink:href="#MicrosoftYaHei-Bold-49" transform="translate(843.861328 0)"/>
     <use xlink:href="#MicrosoftYaHei-Bold-770b" transform="translate(877.40625 0)"/>
     <use xlink:href="#MicrosoftYaHei-Bold-677f" transform="translate(977.40625 0)"/>
    </g>
   </g>
   <g id="text_2">
    <!-- $88.90 -->
    <g style="fill: #dc2626" transform="translate(10.8 57.902238) scale(0.38 -0.38)">
     <defs>
      <path id="MicrosoftYaHei-Bold-24" d="M 2253 -706 
L 1775 -706 
L 1775 6 
Q 1072 13 513 316 
L 513 1209 
Q 700 1053 1098 914 
Q 1497 775 1775 766 
L 1775 2050 
Q 1084 2297 757 2645 
Q 431 2994 431 3513 
Q 431 4034 809 4414 
Q 1188 4794 1775 4841 
L 1775 5466 
L 2253 5466 
L 2253 4853 
Q 2947 4822 3300 4631 
L 3300 3756 
Q 2838 4044 2253 4100 
L 2253 2766 
Q 2969 2494 3292 2166 
Q 3616 1838 3616 1334 
Q 3616 784 3253 439 
Q 2891 94 2253 28 
L 2253 -706 
z
M 1775 4088 
Q 1291 3997 1291 3569 
Q 1291 3209 1775 2959 
L 1775 4088 
z
M 2253 781 
Q 2753 859 2753 1288 
Q 2753 1634 2253 1863 
L 2253 781 
z
" transform="scale(0.015625)"/>
      <path id="MicrosoftYaHei-Bold-38" d="M 269 1303 
Q 269 1725 512 2053 
Q 756 2381 1219 2534 
Q 850 2719 648 3003 
Q 447 3288 447 3634 
Q 447 3997 645 4292 
Q 844 4588 1200 4755 
Q 1556 4922 1997 4922 
Q 2441 4922 2800 4758 
Q 3159 4594 3359 4298 
Q 3559 4003 3559 3647 
Q 3559 3309 3339 3018 
Q 3119 2728 2747 2559 
Q 3200 2403 3453 2076 
Q 3706 1750 3706 1313 
Q 3706 697 3228 309 
Q 2750 -78 1988 -78 
Q 1225 -78 747 309 
Q 269 697 269 1303 
z
M 1278 1394 
Q 1278 1056 1472 853 
Q 1666 650 1991 650 
Q 2303 650 2503 853 
Q 2703 1056 2703 1394 
Q 2703 1709 2500 1920 
Q 2297 2131 1991 2131 
Q 1675 2131 1476 1920 
Q 1278 1709 1278 1394 
z
M 1428 3531 
Q 1428 3266 1592 3077 
Q 1756 2888 2006 2888 
Q 2247 2888 2415 3072 
Q 2584 3256 2584 3531 
Q 2584 3806 2420 3997 
Q 2256 4188 2006 4188 
Q 1750 4188 1589 3997 
Q 1428 3806 1428 3531 
z
" transform="scale(0.015625)"/>
      <path id="MicrosoftYaHei-Bold-2e" d="M 313 453 
Q 313 688 491 838 
Q 669 988 916 988 
Q 1166 988 1337 834 
Q 1509 681 1509 453 
Q 1509 213 1337 64 
Q 1166 -84 903 -84 
Q 659 -84 486 69 
Q 313 222 313 453 
z
" transform="scale(0.015625)"/>
      <path id="MicrosoftYaHei-Bold-39" d="M 544 941 
Q 931 691 1456 691 
Q 2628 691 2653 2216 
L 2634 2222 
Q 2316 1731 1650 1731 
Q 1047 1731 658 2154 
Q 269 2578 269 3222 
Q 269 3978 737 4450 
Q 1206 4922 1959 4922 
Q 2744 4922 3191 4325 
Q 3638 3728 3638 2659 
Q 3638 1391 3098 653 
Q 2559 -84 1547 -84 
Q 975 -84 544 100 
L 544 941 
z
M 1259 3313 
Q 1259 2928 1445 2709 
Q 1631 2491 1953 2491 
Q 2241 2491 2427 2700 
Q 2613 2909 2613 3219 
Q 2613 3591 2427 3869 
Q 2241 4147 1928 4147 
Q 1625 4147 1442 3906 
Q 1259 3666 1259 3313 
z
" transform="scale(0.015625)"/>
      <path id="MicrosoftYaHei-Bold-30" d="M 244 2341 
Q 244 3597 706 4259 
Q 1169 4922 2044 4922 
Q 3713 4922 3713 2453 
Q 3713 1238 3259 577 
Q 2806 -84 1950 -84 
Q 244 -84 244 2341 
z
M 1266 2366 
Q 1266 691 1981 691 
Q 2684 691 2684 2416 
Q 2684 4147 2000 4147 
Q 1266 4147 1266 2366 
z
" transform="scale(0.015625)"/>
     </defs>
     <use xlink:href="#MicrosoftYaHei-Bold-24"/>
     <use xlink:href="#MicrosoftYaHei-Bold-38" transform="translate(61.669922 0)"/>
     <use xlink:href="#MicrosoftYaHei-Bold-38" transform="translate(123.339844 0)"/>
     <use xlink:href="#MicrosoftYaHei-Bold-2e" transform="translate(185.009766 0)"/>
     <use xlink:href="#MicrosoftYaHei-Bold-39" transform="translate(213.574219 0)"/>
     <use xlink:href="#MicrosoftYaHei-Bold-30" transform="translate(275.244141 0)"/>
    </g>
   </g>
   <g id="text_3">
    <!-- 美元/桶 -->
    <g style="fill: #94a3b8" transform="translate(120.8736 64.117081) scale(0.13 -0.13)">
     <defs>
      <path id="MicrosoftYaHei-Bold-7f8e" d="M 150 2566 
L 2756 2566 
L 2756 2922 
L 663 2922 
L 663 3603 
L 2756 3603 
L 2756 3959 
L 288 3959 
L 288 4641 
L 1688 4641 
Q 1553 4934 1406 5178 
L 2300 5353 
Q 2500 5028 2716 4641 
L 3678 4641 
Q 3906 4953 4175 5359 
L 5106 5172 
L 4634 4641 
L 6150 4641 
L 6150 3959 
L 3644 3959 
L 3644 3603 
L 5813 3603 
L 5813 2922 
L 3644 2922 
L 3644 2566 
L 6263 2566 
L 6263 1884 
L 150 1884 
L 150 2566 
z
M 238 1466 
L 2669 1466 
Q 2709 1634 2731 1816 
L 3638 1816 
Q 3613 1634 3575 1466 
L 6200 1466 
L 6200 784 
L 3963 784 
Q 4641 100 6300 -3 
Q 6156 -228 5875 -872 
Q 4031 -688 3197 466 
Q 2519 -644 400 -859 
Q 313 -572 88 -66 
Q 1816 103 2372 784 
L 238 784 
L 238 1466 
z
" transform="scale(0.015625)"/>
      <path id="MicrosoftYaHei-Bold-5143" d="M 675 4953 
L 5725 4953 
L 5725 4103 
L 675 4103 
L 675 4953 
z
M 5425 1178 
Q 6006 959 6300 866 
Q 6181 269 6073 -103 
Q 5966 -475 5708 -614 
Q 5450 -753 5081 -747 
L 4475 -747 
Q 3481 -747 3481 197 
L 3481 2266 
L 2584 2266 
Q 2494 19 750 -847 
Q 513 -566 88 -109 
Q 1619 609 1694 2266 
L 163 2266 
L 163 3128 
L 6238 3128 
L 6238 2266 
L 4388 2266 
L 4388 509 
Q 4388 59 4769 59 
L 4975 59 
Q 5166 59 5247 217 
Q 5328 375 5425 1178 
z
" transform="scale(0.015625)"/>
      <path id="MicrosoftYaHei-Bold-2f" d="M 3100 4841 
L 747 -803 
L -156 -803 
L 2188 4841 
L 3100 4841 
z
" transform="scale(0.015625)"/>
      <path id="MicrosoftYaHei-Bold-6876" d="M 3081 -834 
L 2325 -834 
L 2325 2109 
L 1938 1622 
Q 1778 1834 1600 2044 
L 1600 -841 
L 838 -841 
L 838 1800 
Q 600 1197 269 609 
Q 163 1284 75 1753 
Q 522 2547 778 3416 
L 138 3416 
L 138 4228 
L 838 4228 
L 838 5303 
L 1600 5303 
L 1600 4228 
L 2244 4228 
L 2244 3416 
L 1600 3416 
L 1600 2988 
Q 1984 2675 2325 2359 
L 2325 3491 
L 3606 3491 
Q 3213 3747 2769 4009 
L 3188 4403 
L 2375 4403 
L 2375 5103 
L 5981 5103 
L 5981 4359 
L 4753 3491 
L 6031 3491 
L 6031 -128 
Q 6031 -481 5862 -654 
Q 5694 -828 5364 -831 
Q 5034 -834 4731 -834 
Q 4650 -434 4550 -66 
Q 4825 -84 5000 -84 
Q 5275 -84 5275 172 
L 5275 528 
L 4519 528 
L 4519 -709 
L 3781 -709 
L 3781 528 
L 3081 528 
L 3081 -834 
z
M 4881 4403 
L 3431 4403 
L 4194 3894 
L 4881 4403 
z
M 5275 2841 
L 4519 2841 
L 4519 2309 
L 5275 2309 
L 5275 2841 
z
M 3081 2309 
L 3781 2309 
L 3781 2841 
L 3081 2841 
L 3081 2309 
z
M 4519 1153 
L 5275 1153 
L 5275 1684 
L 4519 1684 
L 4519 1153 
z
M 3081 1153 
L 3781 1153 
L 3781 1684 
L 3081 1684 
L 3081 1153 
z
" transform="scale(0.015625)"/>
     </defs>
     <use xlink:href="#MicrosoftYaHei-Bold-7f8e"/>
     <use xlink:href="#MicrosoftYaHei-Bold-5143" transform="translate(100 0)"/>
     <use xlink:href="#MicrosoftYaHei-Bold-2f" transform="translate(200 0)"/>
     <use xlink:href="#MicrosoftYaHei-Bold-6876" transform="translate(247.265625 0)"/>
    </g>
   </g>
   <g id="text_4">
    <g id="patch_3">
     <path d="M 183.7728 58.261194 
L 251.171706 58.261194 
Q 255.071706 58.261194 255.071706 54.361194 
L 255.071706 40.7376 
Q 255.071706 36.8376 251.171706 36.8376 
L 183.7728 36.8376 
Q 179.8728 36.8376 179.8728 40.7376 
L 179.8728 54.361194 
Q 179.8728 58.261194 183.7728 58.261194 
z
" style="fill: #f0fdf4; opacity: 0.8; stroke: #bbf7d0; stroke-width: 1.5; stroke-linejoin: miter"/>
    </g>
    <!-- 今日 -0.6% -->
    <g style="fill: #16a34a" transform="translate(183.7728 51.129475) scale(0.13 -0.13)">
     <defs>
      <path id="MicrosoftYaHei-Bold-4eca" d="M 4031 5316 
L 3825 5109 
Q 4775 3828 6331 3147 
Q 6056 2791 5763 2391 
Q 4144 3184 3250 4466 
Q 2263 3184 619 2334 
Q 288 2859 56 3109 
Q 1719 3841 2819 5316 
L 4031 5316 
z
M 3056 3716 
Q 3600 3122 3956 2672 
L 3206 2178 
Q 2675 2891 2369 3247 
L 3056 3716 
z
M 5481 2103 
L 5481 1347 
Q 4794 366 3775 -878 
L 2938 -403 
Q 3613 353 4263 1266 
L 813 1266 
L 813 2103 
L 5481 2103 
z
" transform="scale(0.015625)"/>
      <path id="MicrosoftYaHei-Bold-65e5" d="M 750 -778 
L 750 4972 
L 5688 4972 
L 5688 -778 
L 4725 -778 
L 4725 -341 
L 1713 -341 
L 1713 -778 
L 750 -778 
z
M 4725 4084 
L 1713 4084 
L 1713 2772 
L 4725 2772 
L 4725 4084 
z
M 1713 547 
L 4725 547 
L 4725 1909 
L 1713 1909 
L 1713 547 
z
" transform="scale(0.015625)"/>
      <path id="MicrosoftYaHei-Bold-2d" d="M 2328 1497 
L 481 1497 
L 481 2209 
L 2328 2209 
L 2328 1497 
z
" transform="scale(0.015625)"/>
      <path id="MicrosoftYaHei-Bold-36" d="M 3378 3938 
Q 3009 4147 2575 4147 
Q 2016 4147 1680 3708 
Q 1344 3269 1344 2572 
L 1363 2572 
Q 1709 3103 2391 3103 
Q 3000 3103 3358 2686 
Q 3716 2269 3716 1600 
Q 3716 869 3250 392 
Q 2784 -84 2059 -84 
Q 1228 -84 786 516 
Q 344 1116 344 2159 
Q 344 3388 917 4155 
Q 1491 4922 2513 4922 
Q 3063 4922 3378 4791 
L 3378 3938 
z
M 1378 1591 
Q 1378 1216 1565 953 
Q 1753 691 2059 691 
Q 2369 691 2547 931 
Q 2725 1172 2725 1534 
Q 2725 2350 2053 2350 
Q 1750 2350 1564 2134 
Q 1378 1919 1378 1591 
z
" transform="scale(0.015625)"/>
      <path id="MicrosoftYaHei-Bold-25" d="M 297 3597 
Q 297 4191 626 4548 
Q 956 4906 1519 4906 
Q 2056 4906 2354 4581 
Q 2653 4256 2653 3684 
Q 2653 3097 2322 2744 
Q 1991 2391 1438 2391 
Q 919 2391 608 2722 
Q 297 3053 297 3597 
z
M 984 3631 
Q 984 2959 1478 2959 
Q 1981 2959 1981 3659 
Q 1981 4338 1500 4338 
Q 984 4338 984 3631 
z
M 4938 4841 
L 1791 -3 
L 1006 -3 
L 4147 4841 
L 4938 4841 
z
M 3297 1141 
Q 3297 1741 3631 2095 
Q 3966 2450 4522 2450 
Q 5059 2450 5357 2131 
Q 5656 1813 5656 1234 
Q 5656 641 5322 286 
Q 4988 -69 4438 -69 
Q 3922 -69 3609 264 
Q 3297 597 3297 1141 
z
M 3981 1175 
Q 3981 500 4478 500 
Q 4978 500 4978 1200 
Q 4978 1528 4845 1704 
Q 4713 1881 4491 1881 
Q 3981 1881 3981 1175 
z
" transform="scale(0.015625)"/>
     </defs>
     <use xlink:href="#MicrosoftYaHei-Bold-4eca"/>
     <use xlink:href="#MicrosoftYaHei-Bold-65e5" transform="translate(100 0)"/>
     <use xlink:href="#MicrosoftYaHei-Bold-20" transform="translate(200 0)"/>
     <use xlink:href="#MicrosoftYaHei-Bold-2d" transform="translate(229.785156 0)"/>
     <use xlink:href="#MicrosoftYaHei-Bold-30" transform="translate(273.4375 0)"/>
     <use xlink:href="#MicrosoftYaHei-Bold-2e" transform="translate(335.107422 0)"/>
     <use xlink:href="#MicrosoftYaHei-Bold-36" transform="translate(363.671875 0)"/>
     <use xlink:href="#MicrosoftYaHei-Bold-25" transform="translate(425.341797 0)"/>
    </g>
   </g>
   <g id="text_5">
    <!-- NYMEX -->
    <g style="fill: #94a3b8" transform="translate(290.956781 65.111456) scale(0.09 -0.09)">
     <defs>
      <path id="MicrosoftYaHei-Bold-4e" d="M 4863 0 
L 3806 0 
L 1756 3131 
Q 1597 3375 1525 3525 
L 1509 3525 
Q 1538 3275 1538 2753 
L 1538 0 
L 559 0 
L 559 4841 
L 1684 4841 
L 3659 1797 
Q 3856 1494 3900 1413 
L 3916 1413 
Q 3884 1588 3884 2081 
L 3884 4841 
L 4863 4841 
L 4863 0 
z
" transform="scale(0.015625)"/>
      <path id="MicrosoftYaHei-Bold-59" d="M 4156 4841 
L 2575 1728 
L 2575 0 
L 1544 0 
L 1544 1709 
L 6 4841 
L 1184 4841 
L 1997 2991 
Q 2022 2934 2113 2609 
L 2125 2609 
Q 2163 2828 2228 2981 
L 3063 4841 
L 4156 4841 
z
" transform="scale(0.015625)"/>
      <path id="MicrosoftYaHei-Bold-4d" d="M 4991 0 
L 4991 2938 
Q 4991 3344 5031 3959 
L 5006 3959 
Q 4913 3494 4856 3338 
L 3663 0 
L 2841 0 
L 1631 3306 
Q 1588 3425 1478 3959 
L 1450 3959 
Q 1491 3350 1491 2738 
L 1491 0 
L 559 0 
L 559 4841 
L 2059 4841 
L 3103 1916 
Q 3234 1553 3281 1234 
L 3303 1234 
Q 3400 1631 3503 1922 
L 4550 4841 
L 6009 4841 
L 6009 0 
L 4991 0 
z
" transform="scale(0.015625)"/>
      <path id="MicrosoftYaHei-Bold-45" d="M 3425 0 
L 559 0 
L 559 4841 
L 3313 4841 
L 3313 3997 
L 1591 3997 
L 1591 2856 
L 3191 2856 
L 3191 2016 
L 1591 2016 
L 1591 844 
L 3425 844 
L 3425 0 
z
" transform="scale(0.015625)"/>
      <path id="MicrosoftYaHei-Bold-58" d="M 4447 0 
L 3222 0 
L 2353 1606 
Q 2306 1694 2256 1922 
L 2244 1922 
Q 2219 1809 2131 1597 
L 1259 0 
L 25 0 
L 1578 2422 
L 159 4841 
L 1416 4841 
L 2138 3359 
Q 2225 3178 2288 2959 
L 2300 2959 
Q 2366 3156 2459 3375 
L 3256 4841 
L 4409 4841 
L 2947 2441 
L 4447 0 
z
" transform="scale(0.015625)"/>
     </defs>
     <use xlink:href="#MicrosoftYaHei-Bold-4e"/>
     <use xlink:href="#MicrosoftYaHei-Bold-59" transform="translate(84.814453 0)"/>
     <use xlink:href="#MicrosoftYaHei-Bold-4d" transform="translate(149.658203 0)"/>
     <use xlink:href="#MicrosoftYaHei-Bold-45" transform="translate(252.490234 0)"/>
     <use xlink:href="#MicrosoftYaHei-Bold-58" transform="translate(311.542969 0)"/>
    </g>
   </g>
  </g>
  <g id="axes_2">
   <g id="patch_4">
    <path d="M 10.8 143.856 
L 325.296 143.856 
L 325.296 92.448 
L 10.8 92.448 
z
" style="fill: #ffffff"/>
   </g>
   <g id="patch_5">
    <path d="M 10.8 141.519273 
L 325.296 141.519273 
L 325.296 94.784727 
L 10.8 94.784727 
z
" clip-path="url(#p4ef9424c6c)" style="fill: #bbf7d0; opacity: 0.3; stroke: #ffffff; stroke-width: 1.5; stroke-linejoin: miter"/>
   </g>
   <g id="patch_6">
    <path d="M 325.296 141.519273 
L 411.067636 141.519273 
L 411.067636 94.784727 
L 325.296 94.784727 
z
" clip-path="url(#p4ef9424c6c)" style="fill: #fee2e2; opacity: 0.4; stroke: #ffffff; stroke-width: 1.5; stroke-linejoin: miter"/>
   </g>
   <g id="patch_7">
    <path d="M 10.8 141.519273 
L 67.981091 141.519273 
L 67.981091 94.784727 
L 10.8 94.784727 
z
" clip-path="url(#p4ef9424c6c)" style="fill: #fef3c7; opacity: 0.5; stroke: #ffffff; stroke-width: 1.5; stroke-linejoin: miter"/>
   </g>
   <g id="matplotlib.axis_3"/>
   <g id="matplotlib.axis_4"/>
   <g id="text_6">
    <!-- 52周价格区间 -->
    <g style="fill: #1e293b" transform="translate(10.8 64.009469) scale(0.11 -0.11)">
     <defs>
      <path id="MicrosoftYaHei-Bold-35" d="M 541 125 
L 541 997 
Q 1044 691 1613 691 
Q 2041 691 2283 902 
Q 2525 1113 2525 1472 
Q 2525 2225 1494 2225 
Q 1113 2225 616 2169 
L 797 4841 
L 3359 4841 
L 3359 4009 
L 1613 4009 
L 1544 2991 
Q 1803 3013 2022 3013 
Q 2731 3013 3142 2625 
Q 3553 2238 3553 1575 
Q 3553 844 3056 380 
Q 2559 -84 1706 -84 
Q 1016 -84 541 125 
z
" transform="scale(0.015625)"/>
      <path id="MicrosoftYaHei-Bold-32" d="M 1500 841 
L 3553 841 
L 3553 0 
L 334 0 
L 334 359 
Q 334 738 473 1050 
Q 613 1363 856 1633 
Q 1100 1903 1613 2266 
Q 2081 2616 2268 2886 
Q 2456 3156 2456 3459 
Q 2456 4113 1744 4113 
Q 1119 4113 550 3613 
L 550 4513 
Q 1184 4922 1975 4922 
Q 2700 4922 3122 4551 
Q 3544 4181 3544 3531 
Q 3544 3169 3422 2876 
Q 3300 2584 3069 2328 
Q 2838 2072 2328 1713 
Q 1838 1363 1669 1172 
Q 1500 981 1500 841 
z
" transform="scale(0.015625)"/>
      <path id="MicrosoftYaHei-Bold-5468" d="M 1656 2897 
L 2900 2897 
L 2900 3322 
L 1819 3322 
L 1819 3922 
L 2900 3922 
L 2900 4353 
L 1481 4353 
L 1481 2253 
Q 1481 203 756 -903 
Q 394 -572 38 -303 
Q 625 553 619 2341 
L 619 5078 
L 5969 5078 
L 5969 472 
Q 5969 -131 5733 -439 
Q 5497 -747 5051 -762 
Q 4606 -778 4063 -772 
Q 3975 -322 3875 66 
Q 4163 41 4519 41 
Q 4966 41 5036 197 
Q 5106 353 5106 528 
L 5106 4353 
L 3713 4353 
L 3713 3922 
L 4794 3922 
L 4794 3322 
L 3713 3322 
L 3713 2897 
L 4944 2897 
L 4944 2284 
L 1656 2284 
L 1656 2897 
z
M 1956 1916 
L 4631 1916 
L 4631 234 
L 2750 234 
L 2750 -72 
L 1956 -72 
L 1956 1916 
z
M 3838 822 
L 3838 1328 
L 2750 1328 
L 2750 822 
L 3838 822 
z
" transform="scale(0.015625)"/>
      <path id="MicrosoftYaHei-Bold-4ef7" d="M 4525 2684 
L 5381 2684 
Q 4613 3391 4131 4291 
Q 3613 3428 2813 2678 
L 3625 2678 
Q 3625 2041 3613 1703 
Q 3613 -41 2606 -853 
Q 2375 -578 1938 -222 
Q 2688 484 2713 1591 
Q 2725 1903 2725 2591 
Q 2500 2384 2256 2191 
Q 2081 2553 1825 3028 
Q 2938 3884 3719 5184 
L 4744 5184 
L 4606 4984 
Q 5250 3859 6319 3147 
L 5900 2253 
Q 5650 2434 5431 2634 
L 5431 -766 
L 4525 -766 
L 4525 2684 
z
M 1394 5278 
L 2250 5022 
Q 2025 4322 1731 3666 
L 1731 -797 
L 875 -797 
L 875 2103 
Q 650 1753 400 1422 
Q 313 1809 88 2516 
Q 831 3547 1394 5278 
z
" transform="scale(0.015625)"/>
      <path id="MicrosoftYaHei-Bold-683c" d="M 75 1703 
Q 569 2522 809 3391 
L 119 3391 
L 119 4203 
L 863 4203 
L 863 5303 
L 1656 5303 
L 1656 4203 
L 2281 4203 
L 2281 3778 
Q 2950 4500 3369 5359 
L 4256 5222 
Q 4122 4959 3978 4716 
L 6013 4716 
L 6013 3997 
Q 5625 3306 5000 2831 
Q 5534 2656 6300 2534 
Q 6181 2153 6106 1728 
Q 4947 1975 4206 2356 
Q 3450 1997 2325 1728 
L 2256 1881 
L 2000 1553 
Q 1834 1697 1656 1844 
L 1656 -841 
L 863 -841 
L 863 1728 
Q 622 1134 275 559 
Q 175 1184 75 1703 
z
M 3472 3953 
Q 3791 3488 4206 3206 
Q 4716 3534 4994 3997 
L 3503 3997 
L 3472 3953 
z
M 2119 2469 
Q 2906 2634 3466 2847 
Q 3191 3078 2972 3353 
Q 2763 3128 2538 2928 
Q 2331 3191 2144 3391 
L 1656 3391 
L 1656 2778 
L 2119 2469 
z
M 2506 -834 
L 2506 1722 
L 5869 1722 
L 5869 -822 
L 5025 -822 
L 5025 -509 
L 3350 -509 
L 3350 -834 
L 2506 -834 
z
M 5025 947 
L 3350 947 
L 3350 266 
L 5025 266 
L 5025 947 
z
" transform="scale(0.015625)"/>
      <path id="MicrosoftYaHei-Bold-533a" d="M 1363 266 
L 6219 266 
L 6219 -578 
L 475 -578 
L 475 4972 
L 6025 4972 
L 6025 4128 
L 1363 4128 
L 1363 266 
z
M 1600 3422 
L 2200 4034 
L 3584 2831 
Q 4119 3428 4581 4091 
L 5356 3578 
Q 4834 2872 4253 2238 
L 5656 941 
L 4919 291 
Q 4278 947 3619 1581 
Q 2913 891 2131 297 
Q 1975 491 1506 966 
Q 2288 1531 2969 2194 
Q 2294 2819 1600 3422 
z
" transform="scale(0.015625)"/>
      <path id="MicrosoftYaHei-Bold-95f4" d="M 1088 5059 
L 1906 5347 
Q 2200 4884 2506 4334 
L 1638 4003 
Q 1356 4597 1088 5059 
z
M 6056 347 
Q 6056 -106 5904 -378 
Q 5753 -650 5422 -736 
Q 5091 -822 3950 -822 
Q 3875 -359 3750 53 
Q 4150 28 4769 28 
Q 5188 28 5188 397 
L 5188 4278 
L 2719 4278 
L 2719 5047 
L 6056 5047 
L 6056 347 
z
M 344 4522 
L 1213 4522 
L 1213 -803 
L 344 -803 
L 344 4522 
z
M 1788 3772 
L 4581 3772 
L 4581 484 
L 2575 484 
L 2575 141 
L 1788 141 
L 1788 3772 
z
M 3794 3072 
L 2575 3072 
L 2575 2478 
L 3794 2478 
L 3794 3072 
z
M 3794 1184 
L 3794 1778 
L 2575 1778 
L 2575 1184 
L 3794 1184 
z
" transform="scale(0.015625)"/>
     </defs>
     <use xlink:href="#MicrosoftYaHei-Bold-35"/>
     <use xlink:href="#MicrosoftYaHei-Bold-32" transform="translate(61.669922 0)"/>
     <use xlink:href="#MicrosoftYaHei-Bold-5468" transform="translate(123.339844 0)"/>
     <use xlink:href="#MicrosoftYaHei-Bold-4ef7" transform="translate(223.339844 0)"/>
     <use xlink:href="#MicrosoftYaHei-Bold-683c" transform="translate(323.339844 0)"/>
     <use xlink:href="#MicrosoftYaHei-Bold-533a" transform="translate(423.339844 0)"/>
     <use xlink:href="#MicrosoftYaHei-Bold-95f4" transform="translate(523.339844 0)"/>
    </g>
   </g>
   <g id="patch_8">
    <path d="M 10.8 134.509091 
L 176.053353 134.509091 
L 176.053353 101.794909 
L 10.8 101.794909 
z
" clip-path="url(#p4ef9424c6c)" style="fill: #1e293b; opacity: 0.9; stroke: #ffffff; stroke-width: 1.5; stroke-linejoin: miter"/>
   </g>
   <g id="text_7">
    <!-- 52周高 $104.1 -->
    <g style="fill: #dc2626" transform="translate(231.916502 59.833202) scale(0.09 -0.09)">
     <defs>
      <path id="MicrosoftYaHei-Bold-9ad8" d="M 138 4853 
L 2734 4853 
Q 2647 5063 2569 5234 
L 3575 5384 
Q 3688 5103 3778 4853 
L 6275 4853 
L 6275 4216 
L 138 4216 
L 138 4853 
z
M 1031 2553 
L 1031 3953 
L 5394 3953 
L 5394 2553 
L 1031 2553 
z
M 4556 3091 
L 4556 3416 
L 1869 3416 
L 1869 3091 
L 4556 3091 
z
M 438 2284 
L 6000 2284 
L 6000 222 
Q 6000 -225 5825 -469 
Q 5650 -713 5356 -764 
Q 5063 -816 4156 -816 
Q 4088 -434 3994 -84 
Q 4350 -116 4756 -116 
Q 5175 -116 5175 291 
L 5175 1659 
L 1263 1659 
L 1263 -797 
L 438 -797 
L 438 2284 
z
M 1806 -228 
L 1806 1384 
L 4619 1384 
L 4619 -34 
L 2556 -34 
L 2556 -228 
L 1806 -228 
z
M 3869 491 
L 3869 859 
L 2556 859 
L 2556 491 
L 3869 491 
z
" transform="scale(0.015625)"/>
      <path id="MicrosoftYaHei-Bold-31" d="M 2716 4947 
L 2716 0 
L 1700 0 
L 1700 3809 
Q 1513 3647 1188 3517 
Q 863 3388 591 3356 
L 591 4222 
Q 1447 4472 2072 4947 
L 2716 4947 
z
" transform="scale(0.015625)"/>
      <path id="MicrosoftYaHei-Bold-34" d="M 3184 4841 
L 3184 1766 
L 3869 1766 
L 3869 1031 
L 3184 1031 
L 3184 0 
L 2266 0 
L 2266 1031 
L 103 1031 
L 103 1772 
Q 775 2522 1362 3359 
Q 1950 4197 2250 4841 
L 3184 4841 
z
M 997 1766 
L 2266 1766 
L 2266 3541 
Q 2116 3259 1836 2859 
Q 1556 2459 997 1766 
z
" transform="scale(0.015625)"/>
     </defs>
     <use xlink:href="#MicrosoftYaHei-Bold-35"/>
     <use xlink:href="#MicrosoftYaHei-Bold-32" transform="translate(61.669922 0)"/>
     <use xlink:href="#MicrosoftYaHei-Bold-5468" transform="translate(123.339844 0)"/>
     <use xlink:href="#MicrosoftYaHei-Bold-9ad8" transform="translate(223.339844 0)"/>
     <use xlink:href="#MicrosoftYaHei-Bold-20" transform="translate(323.339844 0)"/>
     <use xlink:href="#MicrosoftYaHei-Bold-24" transform="translate(353.125 0)"/>
     <use xlink:href="#MicrosoftYaHei-Bold-31" transform="translate(414.794922 0)"/>
     <use xlink:href="#MicrosoftYaHei-Bold-30" transform="translate(476.464844 0)"/>
     <use xlink:href="#MicrosoftYaHei-Bold-34" transform="translate(538.134766 0)"/>
     <use xlink:href="#MicrosoftYaHei-Bold-2e" transform="translate(599.804688 0)"/>
     <use xlink:href="#MicrosoftYaHei-Bold-31" transform="translate(628.369141 0)"/>
    </g>
   </g>
   <g id="text_8">
    <!-- 52周低 $68.5 -->
    <g style="fill: #16a34a" transform="translate(31.127052 59.833202) scale(0.09 -0.09)">
     <defs>
      <path id="MicrosoftYaHei-Bold-4f4e" d="M 1331 5322 
L 2119 5072 
Q 1894 4341 1594 3669 
L 1594 -784 
L 788 -784 
L 788 2178 
Q 547 1806 281 1459 
Q 206 2009 81 2616 
Q 856 3759 1331 5322 
z
M 3000 741 
Q 3263 853 3975 1284 
Q 4013 903 4075 466 
Q 3969 409 3763 291 
Q 4022 -66 4281 -441 
L 3563 -859 
Q 3328 -416 3103 -88 
Q 2606 -366 2363 -572 
L 1919 147 
Q 2194 391 2194 884 
L 2194 4784 
Q 3606 4872 5850 5141 
Q 5950 4766 6044 4366 
Q 5503 4297 4759 4225 
Q 4759 3728 4800 3028 
L 6225 3028 
L 6225 2253 
L 4847 2253 
Q 4938 1047 5098 634 
Q 5259 222 5403 222 
Q 5469 222 5523 361 
Q 5578 500 5656 1366 
Q 5969 1184 6300 1041 
Q 6191 -94 6023 -412 
Q 5856 -731 5447 -731 
Q 4206 -731 4041 2253 
L 3000 2253 
L 3000 741 
z
M 3000 4072 
L 3000 3028 
L 4000 3028 
L 3956 4150 
L 3000 4072 
z
" transform="scale(0.015625)"/>
     </defs>
     <use xlink:href="#MicrosoftYaHei-Bold-35"/>
     <use xlink:href="#MicrosoftYaHei-Bold-32" transform="translate(61.669922 0)"/>
     <use xlink:href="#MicrosoftYaHei-Bold-5468" transform="translate(123.339844 0)"/>
     <use xlink:href="#MicrosoftYaHei-Bold-4f4e" transform="translate(223.339844 0)"/>
     <use xlink:href="#MicrosoftYaHei-Bold-20" transform="translate(323.339844 0)"/>
     <use xlink:href="#MicrosoftYaHei-Bold-24" transform="translate(353.125 0)"/>
     <use xlink:href="#MicrosoftYaHei-Bold-36" transform="translate(414.794922 0)"/>
     <use xlink:href="#MicrosoftYaHei-Bold-38" transform="translate(476.464844 0)"/>
     <use xlink:href="#MicrosoftYaHei-Bold-2e" transform="translate(538.134766 0)"/>
     <use xlink:href="#MicrosoftYaHei-Bold-35" transform="translate(566.699219 0)"/>
    </g>
   </g>
   <g id="text_9">
    <!-- 当前 $88.90 -->
    <g style="fill: #1e293b" transform="translate(147.718196 202.274182) scale(0.1 -0.1)">
     <defs>
      <path id="MicrosoftYaHei-Bold-5f53" d="M 344 278 
L 4975 278 
L 4975 891 
L 625 891 
L 625 1666 
L 4975 1666 
L 4975 2278 
L 425 2278 
L 425 3053 
L 2725 3053 
L 2725 5353 
L 3650 5353 
L 3650 3053 
L 5900 3053 
L 5900 -866 
L 4975 -866 
L 4975 -497 
L 344 -497 
L 344 278 
z
M 1188 5097 
L 2413 3816 
L 1731 3216 
Q 1138 3953 588 4528 
L 1188 5097 
z
M 5200 5091 
L 5900 4503 
L 4613 3203 
L 3969 3778 
Q 4669 4453 5200 5091 
z
" transform="scale(0.015625)"/>
      <path id="MicrosoftYaHei-Bold-524d" d="M 4256 5359 
L 5275 5103 
Q 5094 4878 4897 4653 
L 6294 4653 
L 6294 3916 
L 100 3916 
L 100 4653 
L 1428 4653 
Q 1288 4881 1138 5103 
L 2075 5359 
Q 2316 4997 2528 4653 
L 3797 4653 
Q 4038 5003 4256 5359 
z
M 5106 3647 
L 5950 3647 
L 5950 191 
Q 5950 -231 5765 -465 
Q 5581 -700 5250 -745 
Q 4919 -791 4063 -791 
Q 4006 -428 3881 91 
Q 4450 66 4744 66 
Q 5106 66 5106 459 
L 5106 3647 
z
M 1306 -784 
L 456 -784 
L 456 3572 
L 3425 3572 
L 3425 103 
Q 3425 -303 3237 -518 
Q 3050 -734 2706 -761 
Q 2363 -788 1881 -791 
Q 1781 -253 1706 41 
Q 2181 16 2269 16 
Q 2575 16 2575 359 
L 2575 559 
L 1306 559 
L 1306 -784 
z
M 2575 2809 
L 1306 2809 
L 1306 2359 
L 2575 2359 
L 2575 2809 
z
M 1306 1234 
L 2575 1234 
L 2575 1684 
L 1306 1684 
L 1306 1234 
z
M 3869 3466 
L 4650 3466 
L 4650 491 
L 3869 491 
L 3869 3466 
z
" transform="scale(0.015625)"/>
     </defs>
     <use xlink:href="#MicrosoftYaHei-Bold-5f53"/>
     <use xlink:href="#MicrosoftYaHei-Bold-524d" transform="translate(100 0)"/>
     <use xlink:href="#MicrosoftYaHei-Bold-20" transform="translate(200 0)"/>
     <use xlink:href="#MicrosoftYaHei-Bold-24" transform="translate(229.785156 0)"/>
     <use xlink:href="#MicrosoftYaHei-Bold-38" transform="translate(291.455078 0)"/>
     <use xlink:href="#MicrosoftYaHei-Bold-38" transform="translate(353.125 0)"/>
     <use xlink:href="#MicrosoftYaHei-Bold-2e" transform="translate(414.794922 0)"/>
     <use xlink:href="#MicrosoftYaHei-Bold-39" transform="translate(443.359375 0)"/>
     <use xlink:href="#MicrosoftYaHei-Bold-30" transform="translate(505.029297 0)"/>
    </g>
   </g>
   <g id="text_10">
    <!-- 处于52周 57% 分位 -->
    <g style="fill: #64748b" transform="translate(238.063736 64.506656) scale(0.09 -0.09)">
     <defs>
      <path id="MicrosoftYaHei-Bold-5904" d="M 1075 5353 
L 1881 5253 
Q 1781 4738 1666 4266 
L 3194 4266 
L 3194 3516 
Q 3194 3166 3006 2373 
Q 2819 1581 2384 859 
Q 3200 166 4925 166 
Q 5678 166 6325 216 
Q 6163 -153 6013 -709 
Q 4525 -691 3987 -639 
Q 3450 -588 2884 -372 
Q 2319 -156 1909 206 
Q 1381 -409 638 -872 
Q 256 -359 69 -178 
Q 847 259 1363 853 
Q 1069 1319 850 1988 
Q 672 1631 475 1322 
Q 281 1816 44 2266 
Q 725 3391 1075 5353 
z
M 1841 1534 
Q 2319 2391 2375 3491 
L 1447 3491 
Q 1388 3297 1322 3109 
Q 1500 2150 1841 1534 
z
M 3700 5291 
L 4550 5291 
L 4550 372 
L 3700 372 
L 3700 5291 
z
M 5194 3909 
Q 5744 3234 6313 2416 
L 5581 1909 
Q 5138 2678 4556 3484 
L 5194 3909 
z
" transform="scale(0.015625)"/>
      <path id="MicrosoftYaHei-Bold-4e8e" d="M 163 2841 
L 2800 2841 
L 2800 4078 
L 625 4078 
L 625 4966 
L 5800 4966 
L 5800 4078 
L 3750 4078 
L 3750 2841 
L 6244 2841 
L 6244 1953 
L 3750 1953 
L 3750 584 
Q 3750 -44 3495 -358 
Q 3241 -672 2755 -683 
Q 2269 -694 1438 -697 
Q 1350 -228 1213 253 
Q 1750 197 2281 197 
Q 2800 197 2800 716 
L 2800 1953 
L 163 1953 
L 163 2841 
z
" transform="scale(0.015625)"/>
      <path id="MicrosoftYaHei-Bold-37" d="M 3675 4225 
Q 3088 3172 2798 2528 
Q 2509 1884 2328 1275 
Q 2147 666 2050 0 
L 966 0 
Q 1122 947 1517 1917 
Q 1913 2888 2609 4009 
L 300 4009 
L 300 4841 
L 3675 4841 
L 3675 4225 
z
" transform="scale(0.015625)"/>
      <path id="MicrosoftYaHei-Bold-5206" d="M 6350 3028 
Q 6088 2703 5750 2228 
Q 5519 2409 5303 2603 
Q 5219 606 5172 190 
Q 5125 -225 4862 -451 
Q 4600 -678 4128 -678 
Q 3484 -678 2913 -659 
Q 2856 -141 2781 284 
Q 3594 216 3956 216 
Q 4172 216 4230 408 
Q 4288 600 4325 1978 
L 2781 1978 
Q 2728 1100 2529 631 
Q 2331 163 1907 -215 
Q 1484 -594 844 -872 
Q 456 -353 194 -78 
Q 750 144 1111 414 
Q 1472 684 1630 989 
Q 1788 1294 1841 1978 
L 950 1978 
L 950 2475 
Q 794 2356 631 2247 
Q 344 2653 63 2953 
Q 1475 3947 2194 5316 
L 3031 4953 
Q 2378 3722 1391 2841 
L 5047 2841 
Q 4088 3766 3463 4903 
L 4238 5303 
Q 5038 3922 6350 3028 
z
" transform="scale(0.015625)"/>
      <path id="MicrosoftYaHei-Bold-4f4d" d="M 2075 4297 
L 3725 4297 
Q 3584 4663 3381 5103 
L 4281 5347 
Q 4513 4878 4706 4428 
L 4213 4297 
L 6106 4297 
L 6106 3491 
L 2075 3491 
L 2075 4297 
z
M 1363 5297 
L 2163 5053 
Q 1919 4388 1669 3791 
L 1669 -866 
L 831 -866 
L 831 2050 
Q 597 1628 356 1259 
Q 263 1709 81 2328 
Q 719 3384 1363 5297 
z
M 1944 234 
L 4047 234 
Q 4566 1672 4925 3266 
L 5906 2991 
Q 5756 2584 4938 234 
L 6319 234 
L 6319 -572 
L 1944 -572 
L 1944 234 
z
M 3075 3228 
Q 3313 2597 3913 834 
L 3056 559 
Q 2619 2066 2288 2972 
L 3075 3228 
z
" transform="scale(0.015625)"/>
     </defs>
     <use xlink:href="#MicrosoftYaHei-Bold-5904"/>
     <use xlink:href="#MicrosoftYaHei-Bold-4e8e" transform="translate(100 0)"/>
     <use xlink:href="#MicrosoftYaHei-Bold-35" transform="translate(200 0)"/>
     <use xlink:href="#MicrosoftYaHei-Bold-32" transform="translate(261.669922 0)"/>
     <use xlink:href="#MicrosoftYaHei-Bold-5468" transform="translate(323.339844 0)"/>
     <use xlink:href="#MicrosoftYaHei-Bold-20" transform="translate(423.339844 0)"/>
     <use xlink:href="#MicrosoftYaHei-Bold-35" transform="translate(453.125 0)"/>
     <use xlink:href="#MicrosoftYaHei-Bold-37" transform="translate(514.794922 0)"/>
     <use xlink:href="#MicrosoftYaHei-Bold-25" transform="translate(576.464844 0)"/>
     <use xlink:href="#MicrosoftYaHei-Bold-20" transform="translate(669.580078 0)"/>
     <use xlink:href="#MicrosoftYaHei-Bold-5206" transform="translate(699.365234 0)"/>
     <use xlink:href="#MicrosoftYaHei-Bold-4f4d" transform="translate(799.365234 0)"/>
    </g>
   </g>
   <g id="PathCollection_1">
    <defs>
     <path id="mbabc639b25" d="M -0 4.1833 
L 4.1833 -4.1833 
L -4.1833 -4.1833 
z
" style="stroke: #dc2626; stroke-width: 1.5"/>
    </defs>
    <g clip-path="url(#p4ef9424c6c)">
     <use xlink:href="#mbabc639b25" x="262.968611" y="118.152" style="fill: #dc2626; stroke: #dc2626; stroke-width: 1.5"/>
    </g>
   </g>
   <g id="PathCollection_2">
    <defs>
     <path id="m9f4d2f6408" d="M 0 -4.1833 
L -4.1833 4.1833 
L 4.1833 4.1833 
z
" style="stroke: #16a34a; stroke-width: 1.5"/>
    </defs>
    <g clip-path="url(#p4ef9424c6c)">
     <use xlink:href="#m9f4d2f6408" x="59.403927" y="118.152" style="fill: #16a34a; stroke: #16a34a; stroke-width: 1.5"/>
    </g>
   </g>
   <g id="line2d_1">
    <path d="M 176.053353 143.856 
L 176.053353 92.448 
" clip-path="url(#p4ef9424c6c)" style="fill: none; stroke: #1e293b; stroke-opacity: 0.7; stroke-width: 2.5; stroke-linecap: square"/>
    <defs>
     <path id="md410303e8a" d="M 0 3 
C 0.795609 3 1.55874 2.683901 2.12132 2.12132 
C 2.683901 1.55874 3 0.795609 3 0 
C 3 -0.795609 2.683901 -1.55874 2.12132 -2.12132 
C 1.55874 -2.683901 0.795609 -3 0 -3 
C -0.795609 -3 -1.55874 -2.683901 -2.12132 -2.12132 
C -2.683901 -1.55874 -3 -0.795609 -3 0 
C -3 0.795609 -2.683901 1.55874 -2.12132 2.12132 
C -1.55874 2.683901 -0.795609 3 0 3 
z
" style="stroke: #1e293b; stroke-opacity: 0.7; stroke-width: 1.5"/>
    </defs>
    <g clip-path="url(#p4ef9424c6c)">
     <use xlink:href="#md410303e8a" x="176.053353" y="143.856" style="fill: #1e293b; fill-opacity: 0.7; stroke: #1e293b; stroke-opacity: 0.7; stroke-width: 1.5"/>
     <use xlink:href="#md410303e8a" x="176.053353" y="92.448" style="fill: #1e293b; fill-opacity: 0.7; stroke: #1e293b; stroke-opacity: 0.7; stroke-width: 1.5"/>
    </g>
   </g>
  </g>
  <g id="axes_3">
   <g id="patch_9">
    <path d="M 10.8 198.288 
L 325.296 198.288 
L 325.296 152.928 
L 10.8 152.928 
z
" style="fill: #ffffff"/>
   </g>
   <g id="matplotlib.axis_5"/>
   <g id="matplotlib.axis_6"/>
   <g id="text_11">
    <!-- 关键价位 -->
    <g style="fill: #1e293b" transform="translate(10.8 161.533469) scale(0.11 -0.11)">
     <defs>
      <path id="MicrosoftYaHei-Bold-5173" d="M 156 2459 
L 2725 2459 
Q 2725 2491 2741 3266 
L 481 3266 
L 481 4066 
L 1834 4066 
Q 1475 4538 1219 4841 
L 1925 5341 
Q 2188 5053 2813 4347 
L 2406 4066 
L 3488 4066 
Q 3975 4731 4331 5341 
L 5231 4872 
L 4550 4066 
L 5938 4066 
L 5938 3266 
L 3672 3266 
Q 3672 3009 3666 2459 
L 6250 2459 
L 6250 1659 
L 3819 1659 
Q 4416 441 6300 72 
Q 5856 -503 5663 -797 
Q 3906 -300 3203 1031 
Q 2600 -128 781 -866 
Q 488 -509 94 -72 
Q 2059 541 2556 1659 
L 156 1659 
L 156 2459 
z
" transform="scale(0.015625)"/>
      <path id="MicrosoftYaHei-Bold-952e" d="M 1894 3916 
L 1025 3916 
Q 928 3678 819 3453 
L 1831 3453 
L 1831 2803 
L 1300 2803 
L 1300 2253 
L 1988 2253 
L 1988 1731 
L 2263 1841 
Q 2378 1453 2534 1156 
Q 2675 1634 2675 2353 
L 1950 2353 
L 1950 2997 
L 2569 4297 
L 1975 4297 
L 1975 4947 
L 3294 4947 
L 3294 4284 
L 2688 2991 
L 3313 2991 
L 3313 2541 
Q 3313 1384 3003 541 
Q 3584 34 4719 34 
Q 5631 34 6325 66 
Q 6150 -428 6106 -684 
L 4819 -684 
Q 3391 -684 2713 -56 
Q 2450 -491 2063 -878 
Q 1744 -603 1438 -391 
Q 1981 106 2247 522 
Q 1972 972 1763 1603 
L 1300 1603 
L 1300 578 
Q 1544 753 1800 947 
Q 1813 591 1869 241 
Q 1306 -166 850 -634 
L 431 -97 
Q 606 78 606 478 
L 606 1603 
L 106 1603 
L 106 2253 
L 606 2253 
L 606 2803 
L 469 2803 
Q 381 2663 294 2528 
Q 194 3053 75 3528 
Q 469 4297 719 5359 
L 1456 5197 
Q 1369 4872 1266 4566 
L 1894 4566 
L 1894 3916 
z
M 3325 1234 
L 4213 1234 
L 4213 1566 
L 3438 1566 
L 3438 2153 
L 4213 2153 
L 4213 2478 
L 3475 2478 
L 3475 3041 
L 4213 3041 
L 4213 3397 
L 3250 3397 
L 3250 3972 
L 4213 3972 
L 4213 4322 
L 3488 4322 
L 3488 4884 
L 4213 4884 
L 4213 5322 
L 4913 5322 
L 4913 4884 
L 6006 4884 
L 6006 3972 
L 6244 3972 
L 6244 3397 
L 6006 3397 
L 6006 2478 
L 4913 2478 
L 4913 2153 
L 6038 2153 
L 6038 1566 
L 4913 1566 
L 4913 1234 
L 6131 1234 
L 6131 647 
L 4913 647 
L 4913 141 
L 4213 141 
L 4213 647 
L 3325 647 
L 3325 1234 
z
M 5431 4322 
L 4913 4322 
L 4913 3972 
L 5431 3972 
L 5431 4322 
z
M 5431 3041 
L 5431 3397 
L 4913 3397 
L 4913 3041 
L 5431 3041 
z
" transform="scale(0.015625)"/>
     </defs>
     <use xlink:href="#MicrosoftYaHei-Bold-5173"/>
     <use xlink:href="#MicrosoftYaHei-Bold-952e" transform="translate(100 0)"/>
     <use xlink:href="#MicrosoftYaHei-Bold-4ef7" transform="translate(200 0)"/>
     <use xlink:href="#MicrosoftYaHei-Bold-4f4d" transform="translate(300 0)"/>
    </g>
   </g>
   <g id="text_12">
    <!-- 阻力位 -->
    <g style="fill: #64748b" transform="translate(35.03952 178.086516) scale(0.09 -0.09)">
     <defs>
      <path id="MicrosoftYaHei-Bold-963b" d="M 1981 2778 
Q 2588 2134 2588 1203 
Q 2588 647 2264 415 
Q 1941 184 1344 184 
Q 1294 716 1181 1153 
Q 1319 1134 1406 1134 
Q 1750 1134 1750 1447 
Q 1750 2034 1194 2684 
Q 1456 3516 1663 4341 
L 1156 4341 
L 1156 -847 
L 331 -847 
L 331 5066 
L 2506 5066 
L 2506 4466 
Q 2294 3747 1981 2778 
z
M 6306 -691 
L 2200 -691 
L 2200 116 
L 2775 116 
L 2775 5059 
L 5925 5059 
L 5925 116 
L 6306 116 
L 6306 -691 
z
M 3625 3409 
L 5075 3409 
L 5075 4253 
L 3625 4253 
L 3625 3409 
z
M 3625 1778 
L 5075 1778 
L 5075 2622 
L 3625 2622 
L 3625 1778 
z
M 3625 116 
L 5075 116 
L 5075 991 
L 3625 991 
L 3625 116 
z
" transform="scale(0.015625)"/>
      <path id="MicrosoftYaHei-Bold-529b" d="M 2094 5309 
L 3063 5309 
L 3022 4066 
L 5988 4066 
L 5931 2203 
Q 5897 1225 5859 593 
Q 5822 -38 5489 -373 
Q 5156 -709 4611 -721 
Q 4066 -734 3225 -728 
Q 3138 -184 3038 247 
Q 3531 197 4188 197 
Q 4503 197 4665 320 
Q 4828 444 4876 623 
Q 4925 803 4964 1515 
Q 5003 2228 5025 3241 
L 2978 3241 
Q 2919 603 769 -891 
Q 444 -491 38 -84 
Q 1963 1059 2031 3241 
L 381 3241 
L 381 4066 
L 2075 4066 
Q 2097 4644 2094 5309 
z
" transform="scale(0.015625)"/>
     </defs>
     <use xlink:href="#MicrosoftYaHei-Bold-963b"/>
     <use xlink:href="#MicrosoftYaHei-Bold-529b" transform="translate(100 0)"/>
     <use xlink:href="#MicrosoftYaHei-Bold-4f4d" transform="translate(200 0)"/>
    </g>
   </g>
   <g id="text_13">
    <!-- $95 -->
    <g style="fill: #ef4444" transform="translate(37.438582 206.128688) scale(0.12 -0.12)">
     <use xlink:href="#MicrosoftYaHei-Bold-24"/>
     <use xlink:href="#MicrosoftYaHei-Bold-39" transform="translate(61.669922 0)"/>
     <use xlink:href="#MicrosoftYaHei-Bold-35" transform="translate(123.339844 0)"/>
    </g>
   </g>
   <g id="text_14">
    <!-- 当前价 -->
    <g style="fill: #64748b" transform="translate(104.22864 178.086516) scale(0.09 -0.09)">
     <use xlink:href="#MicrosoftYaHei-Bold-5f53"/>
     <use xlink:href="#MicrosoftYaHei-Bold-524d" transform="translate(100 0)"/>
     <use xlink:href="#MicrosoftYaHei-Bold-4ef7" transform="translate(200 0)"/>
    </g>
   </g>
   <g id="text_15">
    <!-- $88.90 -->
    <g style="fill: #1e293b" transform="translate(97.513327 206.128688) scale(0.12 -0.12)">
     <use xlink:href="#MicrosoftYaHei-Bold-24"/>
     <use xlink:href="#MicrosoftYaHei-Bold-38" transform="translate(61.669922 0)"/>
     <use xlink:href="#MicrosoftYaHei-Bold-38" transform="translate(123.339844 0)"/>
     <use xlink:href="#MicrosoftYaHei-Bold-2e" transform="translate(185.009766 0)"/>
     <use xlink:href="#MicrosoftYaHei-Bold-39" transform="translate(213.574219 0)"/>
     <use xlink:href="#MicrosoftYaHei-Bold-30" transform="translate(275.244141 0)"/>
    </g>
   </g>
   <g id="text_16">
    <!-- 支撑位 -->
    <g style="fill: #64748b" transform="translate(173.41776 178.086516) scale(0.09 -0.09)">
     <defs>
      <path id="MicrosoftYaHei-Bold-652f" d="M 5425 3066 
L 5425 2334 
Q 4878 1331 4031 625 
Q 5000 200 6256 84 
Q 5988 -353 5756 -828 
Q 4334 -634 3197 44 
Q 2081 -606 575 -872 
Q 331 -384 81 -16 
Q 1406 150 2391 616 
Q 1719 1175 1169 1941 
L 1725 2291 
L 738 2291 
L 738 3066 
L 2719 3066 
L 2719 3778 
L 263 3778 
L 263 4553 
L 2719 4553 
L 2719 5341 
L 3681 5341 
L 3681 4553 
L 6125 4553 
L 6125 3778 
L 3681 3778 
L 3681 3066 
L 5425 3066 
z
M 3194 1084 
Q 3891 1584 4350 2291 
L 1966 2291 
Q 2475 1572 3194 1084 
z
" transform="scale(0.015625)"/>
      <path id="MicrosoftYaHei-Bold-6491" d="M 2138 4553 
L 2838 4553 
Q 2644 4753 2469 4916 
L 2956 5322 
Q 3194 5128 3581 4778 
L 3313 4553 
L 3750 4553 
L 3750 5328 
L 4538 5328 
L 4538 4553 
L 4913 4553 
L 4713 4703 
Q 5006 5003 5275 5297 
L 5844 4934 
Q 5631 4709 5481 4553 
L 6150 4553 
L 6150 3716 
L 5438 3716 
L 5438 4003 
L 2850 4003 
L 2850 3716 
L 2138 3716 
L 2138 4553 
z
M 1825 678 
L 3750 678 
L 3750 941 
L 2300 941 
L 2300 1428 
L 3750 1428 
L 3750 1697 
Q 3119 1684 2319 1666 
Q 2281 1928 2225 2172 
Q 4463 2197 5913 2272 
Q 5950 2022 6006 1741 
Q 5644 1734 4538 1709 
L 4538 1428 
L 5963 1428 
L 5963 941 
L 4538 941 
L 4538 678 
L 6325 678 
L 6325 153 
L 4538 153 
L 4538 66 
Q 4538 -728 3838 -778 
Q 3488 -809 2844 -809 
Q 2788 -484 2675 -91 
Q 3200 -128 3481 -128 
Q 3750 -128 3750 153 
L 1825 153 
L 1825 678 
z
M 106 4341 
L 744 4341 
L 744 5309 
L 1538 5309 
L 1538 4341 
L 1950 4341 
L 1950 3572 
L 1538 3572 
L 1538 2672 
Q 1788 2772 2038 2878 
Q 2031 2378 2044 2034 
Q 1925 1991 1538 1834 
L 1538 3 
Q 1538 -709 1025 -772 
Q 731 -803 306 -803 
Q 256 -434 156 -3 
L 556 -3 
Q 744 -3 744 259 
L 744 1509 
Q 475 1403 156 1272 
L 44 2166 
Q 394 2266 744 2378 
L 744 3572 
L 106 3572 
L 106 4341 
z
M 4838 2859 
L 4838 3172 
L 3450 3172 
L 3450 2859 
L 4838 2859 
z
M 5594 3634 
L 5594 2403 
L 2688 2403 
L 2688 3634 
L 5594 3634 
z
" transform="scale(0.015625)"/>
     </defs>
     <use xlink:href="#MicrosoftYaHei-Bold-652f"/>
     <use xlink:href="#MicrosoftYaHei-Bold-6491" transform="translate(100 0)"/>
     <use xlink:href="#MicrosoftYaHei-Bold-4f4d" transform="translate(200 0)"/>
    </g>
   </g>
   <g id="text_17">
    <!-- $88 -->
    <g style="fill: #16a34a" transform="translate(175.816823 206.128688) scale(0.12 -0.12)">
     <use xlink:href="#MicrosoftYaHei-Bold-24"/>
     <use xlink:href="#MicrosoftYaHei-Bold-38" transform="translate(61.669922 0)"/>
     <use xlink:href="#MicrosoftYaHei-Bold-38" transform="translate(123.339844 0)"/>
    </g>
   </g>
   <g id="text_18">
    <!-- 强支撑 -->
    <g style="fill: #64748b" transform="translate(242.60688 178.086516) scale(0.09 -0.09)">
     <defs>
      <path id="MicrosoftYaHei-Bold-5f3a" d="M 163 1403 
L 325 3622 
L 1375 3622 
L 1375 4353 
L 194 4353 
L 194 5097 
L 2150 5097 
L 2150 2878 
L 1050 2878 
L 994 2147 
L 2081 2147 
Q 2056 622 2017 169 
Q 1978 -284 1847 -478 
Q 1716 -672 1497 -736 
Q 1278 -800 381 -784 
Q 331 -478 200 53 
Q 672 34 866 34 
Q 1113 34 1181 201 
Q 1250 369 1275 1403 
L 163 1403 
z
M 5716 816 
Q 6025 191 6344 -572 
L 5625 -859 
L 5463 -459 
Q 4025 -631 2325 -791 
L 2175 9 
L 3813 128 
L 3813 816 
L 2406 816 
L 2406 2797 
L 3813 2797 
L 3813 3228 
L 2613 3228 
L 2613 5091 
L 5813 5091 
L 5813 3228 
L 4613 3228 
L 4613 2797 
L 6031 2797 
L 6031 816 
L 5716 816 
z
M 5025 4403 
L 3400 4403 
L 3400 3916 
L 5025 3916 
L 5025 4403 
z
M 5256 1503 
L 5256 2109 
L 4613 2109 
L 4613 1503 
L 5256 1503 
z
M 3181 1503 
L 3813 1503 
L 3813 2109 
L 3181 2109 
L 3181 1503 
z
M 5709 816 
L 4613 816 
L 4613 200 
L 5150 253 
L 5013 553 
L 5709 816 
z
" transform="scale(0.015625)"/>
     </defs>
     <use xlink:href="#MicrosoftYaHei-Bold-5f3a"/>
     <use xlink:href="#MicrosoftYaHei-Bold-652f" transform="translate(100 0)"/>
     <use xlink:href="#MicrosoftYaHei-Bold-6491" transform="translate(200 0)"/>
    </g>
   </g>
   <g id="text_19">
    <!-- $85 -->
    <g style="fill: #059669" transform="translate(245.005943 206.128688) scale(0.12 -0.12)">
     <use xlink:href="#MicrosoftYaHei-Bold-24"/>
     <use xlink:href="#MicrosoftYaHei-Bold-38" transform="translate(61.669922 0)"/>
     <use xlink:href="#MicrosoftYaHei-Bold-35" transform="translate(123.339844 0)"/>
    </g>
   </g>
  </g>
  <g id="axes_4">
   <g id="patch_10">
    <path d="M 10.8 279.936 
L 325.296 279.936 
L 325.296 207.36 
L 10.8 207.36 
z
" style="fill: #ffffff"/>
   </g>
   <g id="patch_11">
    <path d="M 17.08992 279.936 
L 89.424 279.936 
L 89.424 214.6176 
L 17.08992 214.6176 
z
" clip-path="url(#pfe75426e3d)" style="fill: #f8f9fa; stroke: #e2e8f0; stroke-width: 0.8; stroke-linejoin: miter"/>
   </g>
   <g id="patch_12">
    <path d="M 94.14144 279.936 
L 166.47552 279.936 
L 166.47552 214.6176 
L 94.14144 214.6176 
z
" clip-path="url(#pfe75426e3d)" style="fill: #f8f9fa; stroke: #e2e8f0; stroke-width: 0.8; stroke-linejoin: miter"/>
   </g>
   <g id="patch_13">
    <path d="M 171.19296 279.936 
L 243.52704 279.936 
L 243.52704 214.6176 
L 171.19296 214.6176 
z
" clip-path="url(#pfe75426e3d)" style="fill: #f8f9fa; stroke: #e2e8f0; stroke-width: 0.8; stroke-linejoin: miter"/>
   </g>
   <g id="patch_14">
    <path d="M 248.24448 279.936 
L 320.57856 279.936 
L 320.57856 214.6176 
L 248.24448 214.6176 
z
" clip-path="url(#pfe75426e3d)" style="fill: #f8f9fa; stroke: #e2e8f0; stroke-width: 0.8; stroke-linejoin: miter"/>
   </g>
   <g id="matplotlib.axis_7"/>
   <g id="matplotlib.axis_8"/>
   <g id="text_20">
    <!-- 供需基本面 -->
    <g style="fill: #1e293b" transform="translate(10.8 215.511869) scale(0.11 -0.11)">
     <defs>
      <path id="MicrosoftYaHei-Bold-4f9b" d="M 1288 5278 
L 2081 5047 
Q 1869 4359 1613 3728 
L 1613 -778 
L 844 -778 
L 844 2141 
Q 613 1734 356 1359 
Q 275 1859 106 2484 
Q 806 3578 1288 5278 
z
M 1888 1991 
L 2769 1991 
L 2769 3328 
L 2088 3328 
L 2088 4128 
L 2769 4128 
L 2769 5253 
L 3619 5253 
L 3619 4128 
L 4588 4128 
L 4588 5253 
L 5438 5253 
L 5438 4128 
L 6131 4128 
L 6131 3328 
L 5438 3328 
L 5438 1991 
L 6306 1991 
L 6306 1191 
L 1888 1191 
L 1888 1991 
z
M 3619 1991 
L 4588 1991 
L 4588 3328 
L 3619 3328 
L 3619 1991 
z
M 1900 -291 
Q 2569 353 3106 1109 
L 3813 641 
Q 3275 -78 2538 -841 
Q 2281 -597 1900 -291 
z
M 4988 1084 
Q 5638 441 6288 -284 
L 5563 -828 
Q 5050 -116 4344 628 
L 4988 1084 
z
" transform="scale(0.015625)"/>
      <path id="MicrosoftYaHei-Bold-9700" d="M 313 4253 
L 2819 4253 
L 2819 4516 
L 588 4516 
L 588 5109 
L 5813 5109 
L 5813 4516 
L 3581 4516 
L 3581 4253 
L 6088 4253 
L 6088 2966 
L 5400 2966 
L 5400 3678 
L 3581 3678 
L 3581 2316 
L 2819 2316 
L 2819 3678 
L 1000 3678 
L 1000 2966 
L 313 2966 
L 313 4253 
z
M 1163 3434 
L 2538 3434 
L 2538 3047 
L 1163 3047 
L 1163 3434 
z
M 3875 3434 
L 5238 3434 
L 5238 3047 
L 3875 3047 
L 3875 3434 
z
M 913 2797 
L 2538 2797 
L 2538 2403 
L 913 2403 
L 913 2797 
z
M 3875 2797 
L 5488 2797 
L 5488 2403 
L 3875 2403 
L 3875 2797 
z
M 1444 -797 
L 669 -797 
L 669 1191 
L 2466 1191 
L 2581 1553 
L 175 1553 
L 175 2141 
L 6225 2141 
L 6225 1553 
L 3322 1553 
L 3203 1191 
L 5750 1191 
L 5750 -134 
Q 5750 -834 5063 -834 
L 4438 -834 
Q 4394 -459 4331 -109 
Q 4569 -122 4763 -122 
Q 4981 -122 4981 141 
L 4981 616 
L 4306 616 
L 4306 -647 
L 3550 -647 
L 3550 616 
L 2875 616 
L 2875 -647 
L 2119 -647 
L 2119 616 
L 1444 616 
L 1444 -797 
z
" transform="scale(0.015625)"/>
      <path id="MicrosoftYaHei-Bold-57fa" d="M 6319 853 
Q 6063 484 5856 159 
Q 5369 428 4925 791 
L 4925 384 
L 3631 384 
L 3631 3 
L 5875 3 
L 5875 -653 
L 525 -653 
L 525 3 
L 2775 3 
L 2775 384 
L 1450 384 
L 1450 766 
Q 1016 422 544 159 
Q 363 447 75 847 
Q 856 1141 1397 1584 
L 156 1584 
L 156 2241 
L 1244 2241 
L 1244 4141 
L 338 4141 
L 338 4797 
L 1244 4797 
L 1244 5341 
L 2100 5341 
L 2100 4797 
L 4313 4797 
L 4313 5341 
L 5163 5341 
L 5163 4797 
L 6069 4797 
L 6069 4141 
L 5163 4141 
L 5163 2241 
L 6244 2241 
L 6244 1584 
L 5013 1584 
Q 5675 1091 6319 853 
z
M 2100 3828 
L 4313 3828 
L 4313 4141 
L 2100 4141 
L 2100 3828 
z
M 2100 3028 
L 4313 3028 
L 4313 3341 
L 2100 3341 
L 2100 3028 
z
M 2100 2241 
L 4313 2241 
L 4313 2553 
L 2100 2553 
L 2100 2241 
z
M 2775 1466 
L 3631 1466 
L 3631 1028 
L 4647 1028 
Q 4359 1284 4091 1584 
L 2319 1584 
Q 2050 1284 1759 1028 
L 2775 1028 
L 2775 1466 
z
" transform="scale(0.015625)"/>
      <path id="MicrosoftYaHei-Bold-672c" d="M 356 4403 
L 2744 4403 
L 2744 5328 
L 3619 5328 
L 3619 4403 
L 6044 4403 
L 6044 3591 
L 3878 3591 
Q 4894 2006 6325 1166 
Q 6056 884 5656 366 
Q 4409 1409 3619 2741 
L 3619 1047 
L 4875 1047 
L 4875 259 
L 3619 259 
L 3619 -828 
L 2744 -828 
L 2744 259 
L 1481 259 
L 1481 1016 
Q 1119 634 713 291 
Q 369 741 75 1066 
Q 1553 2069 2506 3591 
L 356 3591 
L 356 4403 
z
M 1509 1047 
L 2744 1047 
L 2744 2681 
Q 2209 1794 1509 1047 
z
" transform="scale(0.015625)"/>
      <path id="MicrosoftYaHei-Bold-9762" d="M 181 4997 
L 6213 4997 
L 6213 4297 
L 3553 4297 
Q 3400 3950 3269 3678 
L 5881 3678 
L 5881 -828 
L 5081 -828 
L 5081 -503 
L 1319 -503 
L 1319 -828 
L 519 -828 
L 519 3678 
L 2272 3678 
Q 2388 3969 2500 4297 
L 181 4297 
L 181 4997 
z
M 5081 2984 
L 4500 2984 
L 4500 191 
L 5081 191 
L 5081 2984 
z
M 1319 191 
L 1869 191 
L 1869 2984 
L 1319 2984 
L 1319 191 
z
M 2656 2478 
L 3713 2478 
L 3713 2984 
L 2656 2984 
L 2656 2478 
z
M 2656 1341 
L 3713 1341 
L 3713 1847 
L 2656 1847 
L 2656 1341 
z
M 2656 191 
L 3713 191 
L 3713 709 
L 2656 709 
L 2656 191 
z
" transform="scale(0.015625)"/>
     </defs>
     <use xlink:href="#MicrosoftYaHei-Bold-4f9b"/>
     <use xlink:href="#MicrosoftYaHei-Bold-9700" transform="translate(100 0)"/>
     <use xlink:href="#MicrosoftYaHei-Bold-57fa" transform="translate(200 0)"/>
     <use xlink:href="#MicrosoftYaHei-Bold-672c" transform="translate(300 0)"/>
     <use xlink:href="#MicrosoftYaHei-Bold-9762" transform="translate(400 0)"/>
    </g>
   </g>
   <g id="text_21">
    <!-- 全球供应缺口 -->
    <g style="fill: #64748b" transform="translate(26.25696 231.611316) scale(0.09 -0.09)">
     <defs>
      <path id="MicrosoftYaHei-Bold-5168" d="M 369 184 
L 2731 184 
L 2731 934 
L 869 934 
L 869 1734 
L 2731 1734 
L 2731 2366 
L 1525 2366 
L 1525 2859 
Q 1113 2566 644 2284 
Q 463 2541 88 3016 
Q 2088 4091 2800 5316 
L 3894 5316 
L 3731 5078 
Q 4538 3922 6313 3091 
Q 5981 2678 5750 2353 
Q 5281 2603 4875 2878 
L 4875 2366 
L 3663 2366 
L 3663 1734 
L 5544 1734 
L 5544 934 
L 3663 934 
L 3663 184 
L 6031 184 
L 6031 -616 
L 369 -616 
L 369 184 
z
M 3200 4416 
Q 2688 3766 1925 3166 
L 4475 3166 
Q 3725 3741 3200 4416 
z
" transform="scale(0.015625)"/>
      <path id="MicrosoftYaHei-Bold-7403" d="M 5231 5322 
Q 5625 5034 6056 4634 
L 5728 4291 
L 6206 4291 
L 6206 3528 
L 4650 3528 
L 4650 3109 
Q 4772 2775 4916 2463 
Q 5331 2913 5638 3316 
L 6319 2797 
Q 5853 2294 5288 1772 
Q 5734 1050 6338 509 
Q 6063 91 5850 -341 
Q 5109 447 4650 1356 
L 4650 3 
Q 4650 -369 4484 -564 
Q 4319 -759 3964 -784 
Q 3609 -809 3006 -809 
Q 2931 -259 2838 41 
Q 3247 3 3441 3 
Q 3838 3 3825 428 
L 3825 1041 
Q 3231 641 2563 209 
L 2194 1053 
Q 2844 1403 3825 2025 
L 3825 3528 
L 2369 3528 
L 2369 4291 
L 3825 4291 
L 3825 5316 
L 4650 5316 
L 4650 4291 
L 5384 4291 
Q 5088 4575 4763 4841 
L 5231 5322 
z
M 250 -459 
L 75 428 
L 813 578 
L 813 2097 
L 206 2097 
L 206 2884 
L 813 2884 
L 813 4141 
L 150 4141 
L 150 4941 
L 2263 4941 
L 2263 4141 
L 1625 4141 
L 1625 2884 
L 2163 2884 
L 2163 2097 
L 1625 2097 
L 1625 750 
L 2256 884 
Q 2250 422 2269 41 
Q 1244 -178 250 -459 
z
M 2919 3322 
Q 3244 2872 3631 2203 
L 2931 1778 
Q 2588 2459 2269 2928 
L 2919 3322 
z
" transform="scale(0.015625)"/>
      <path id="MicrosoftYaHei-Bold-5e94" d="M 1438 2491 
Q 1438 119 794 -866 
Q 506 -597 88 -266 
Q 619 622 613 2603 
L 613 4566 
L 3009 4566 
Q 2894 4853 2781 5116 
L 3788 5353 
Q 3928 5016 4103 4566 
L 6225 4566 
L 6225 3797 
L 1438 3797 
L 1438 2491 
z
M 3013 3309 
L 3794 3541 
Q 4125 2678 4513 1316 
L 3669 1084 
Q 3300 2416 3013 3309 
z
M 1325 316 
L 4300 316 
Q 4681 1541 5200 3453 
L 6069 3228 
Q 5744 2006 5184 316 
L 6250 316 
L 6250 -553 
L 1325 -553 
L 1325 316 
z
M 1475 2984 
L 2225 3303 
Q 2775 2103 3244 828 
L 2406 516 
Q 2006 1684 1475 2984 
z
" transform="scale(0.015625)"/>
      <path id="MicrosoftYaHei-Bold-7f3a" d="M 3881 5309 
L 4631 5309 
L 4631 4316 
L 5900 4316 
L 5900 2391 
L 6213 2391 
L 6213 1703 
L 4719 1703 
Q 5163 509 6313 -134 
Q 5931 -547 5669 -816 
Q 4681 -53 4325 1028 
Q 3919 -84 3006 -878 
Q 2794 -609 2606 -403 
L 331 -491 
L 331 1822 
L 969 1822 
L 969 259 
L 1331 284 
L 1331 2222 
L 106 2222 
L 106 2934 
L 1331 2934 
L 1331 3909 
L 1100 3909 
Q 944 3447 781 3103 
Q 469 3266 113 3366 
Q 488 4228 706 5334 
L 1463 5209 
Q 1388 4897 1313 4622 
L 3006 4622 
L 3006 3909 
L 2106 3909 
L 2106 2934 
L 3131 2934 
L 3131 2391 
L 3844 2391 
Q 3875 2909 3881 3628 
L 3169 3628 
L 3169 4316 
L 3881 4316 
Q 3869 4816 3881 5309 
z
M 3056 1803 
L 3056 284 
Q 3619 909 3775 1703 
L 3081 1703 
L 3081 2222 
L 2106 2222 
L 2106 309 
L 2475 334 
L 2475 1803 
L 3056 1803 
z
M 4594 2391 
L 5175 2391 
L 5175 3628 
L 4625 3628 
Q 4613 2966 4594 2391 
z
" transform="scale(0.015625)"/>
      <path id="MicrosoftYaHei-Bold-53e3" d="M 538 -672 
L 538 4784 
L 5869 4784 
L 5869 -672 
L 4931 -672 
L 4931 -228 
L 1475 -228 
L 1475 -672 
L 538 -672 
z
M 4931 3928 
L 1475 3928 
L 1475 628 
L 4931 628 
L 4931 3928 
z
" transform="scale(0.015625)"/>
     </defs>
     <use xlink:href="#MicrosoftYaHei-Bold-5168"/>
     <use xlink:href="#MicrosoftYaHei-Bold-7403" transform="translate(100 0)"/>
     <use xlink:href="#MicrosoftYaHei-Bold-4f9b" transform="translate(200 0)"/>
     <use xlink:href="#MicrosoftYaHei-Bold-5e94" transform="translate(300 0)"/>
     <use xlink:href="#MicrosoftYaHei-Bold-7f3a" transform="translate(400 0)"/>
     <use xlink:href="#MicrosoftYaHei-Bold-53e3" transform="translate(500 0)"/>
    </g>
   </g>
   <g id="text_22">
    <!-- ~700万桶/日 -->
    <g style="fill: #dc2626" transform="translate(22.836648 264.545906) scale(0.1 -0.1)">
     <defs>
      <path id="MicrosoftYaHei-Bold-7e" d="M 4213 2597 
Q 4191 2041 3914 1716 
Q 3638 1391 3169 1391 
Q 2813 1391 2297 1694 
Q 1931 1909 1766 1909 
Q 1344 1909 1325 1366 
L 666 1366 
Q 688 1944 972 2258 
Q 1256 2572 1719 2572 
Q 2100 2572 2522 2313 
Q 2959 2044 3134 2044 
Q 3316 2044 3430 2195 
Q 3544 2347 3550 2597 
L 4213 2597 
z
" transform="scale(0.015625)"/>
      <path id="MicrosoftYaHei-Bold-4e07" d="M 2975 -753 
Q 2863 -191 2750 216 
Q 3509 184 3816 184 
Q 4041 184 4150 221 
Q 4259 259 4331 342 
Q 4403 425 4425 533 
Q 4447 641 4473 1255 
Q 4500 1869 4506 2341 
L 2556 2341 
Q 2459 341 775 -878 
Q 450 -459 94 -53 
Q 800 406 1158 982 
Q 1516 1559 1572 2092 
Q 1628 2625 1653 4072 
L 231 4072 
L 231 4934 
L 6175 4934 
L 6175 4072 
L 2609 4072 
L 2584 3166 
L 5494 3166 
L 5422 1219 
L 5394 659 
Q 5394 13 5166 -328 
Q 4938 -669 4531 -708 
Q 4125 -747 2975 -753 
z
" transform="scale(0.015625)"/>
     </defs>
     <use xlink:href="#MicrosoftYaHei-Bold-7e"/>
     <use xlink:href="#MicrosoftYaHei-Bold-37" transform="translate(76.123047 0)"/>
     <use xlink:href="#MicrosoftYaHei-Bold-30" transform="translate(137.792969 0)"/>
     <use xlink:href="#MicrosoftYaHei-Bold-30" transform="translate(199.462891 0)"/>
     <use xlink:href="#MicrosoftYaHei-Bold-4e07" transform="translate(261.132812 0)"/>
     <use xlink:href="#MicrosoftYaHei-Bold-6876" transform="translate(361.132812 0)"/>
     <use xlink:href="#MicrosoftYaHei-Bold-2f" transform="translate(461.132812 0)"/>
     <use xlink:href="#MicrosoftYaHei-Bold-65e5" transform="translate(508.398438 0)"/>
    </g>
   </g>
   <g id="text_23">
    <!-- ↑ -->
    <g style="fill: #dc2626" transform="translate(29.81472 272.354288) scale(0.12 -0.12)">
     <defs>
      <path id="MicrosoftYaHei-Bold-2191" d="M 478 3922 
Q 900 4303 1120 4576 
Q 1341 4850 1531 5213 
L 1672 5213 
Q 1863 4850 2080 4579 
Q 2297 4309 2725 3922 
L 2725 3684 
Q 2422 3828 2261 3928 
Q 2100 4028 1875 4203 
L 1875 -313 
L 1328 -313 
L 1328 4203 
Q 1113 4034 945 3931 
Q 778 3828 478 3684 
L 478 3922 
z
" transform="scale(0.015625)"/>
     </defs>
     <use xlink:href="#MicrosoftYaHei-Bold-2191"/>
    </g>
   </g>
   <g id="text_24">
    <!-- 美油库存 -->
    <g style="fill: #64748b" transform="translate(112.30848 231.611316) scale(0.09 -0.09)">
     <defs>
      <path id="MicrosoftYaHei-Bold-5e93" d="M 2875 5203 
L 3900 5316 
Q 3988 5097 4109 4759 
L 6231 4759 
L 6231 4034 
L 1431 4034 
L 1431 2528 
Q 1431 241 681 -866 
Q 369 -453 50 -116 
Q 594 778 581 2534 
L 581 4759 
L 3081 4759 
L 2875 5203 
z
M 1381 841 
L 3569 841 
L 3569 1278 
L 1763 1278 
L 1763 1991 
Q 1994 2366 2219 2772 
L 1581 2772 
L 1581 3497 
L 2603 3497 
Q 2734 3753 2863 4022 
L 3731 3891 
L 3525 3497 
L 6075 3497 
L 6075 2772 
L 3134 2772 
L 2694 1991 
L 3569 1991 
L 3569 2578 
L 4406 2578 
L 4406 1991 
L 5975 1991 
L 5975 1278 
L 4406 1278 
L 4406 841 
L 6269 841 
L 6269 116 
L 4406 116 
L 4406 -797 
L 3569 -797 
L 3569 116 
L 1381 116 
L 1381 841 
z
" transform="scale(0.015625)"/>
      <path id="MicrosoftYaHei-Bold-5b58" d="M 1731 -847 
L 888 -847 
L 888 1703 
Q 609 1406 306 1147 
L 94 2109 
Q 906 2959 1400 3978 
L 125 3978 
L 125 4759 
L 1722 4759 
Q 1822 5050 1900 5353 
L 2819 5191 
Q 2750 4972 2672 4759 
L 6281 4759 
L 6281 3978 
L 2359 3978 
Q 2078 3347 1731 2800 
L 1731 -847 
z
M 1913 1759 
L 3888 1759 
L 3888 2091 
Q 4431 2434 4794 2691 
L 2288 2691 
L 2288 3434 
L 6019 3434 
L 6019 2678 
Q 5394 2228 4775 1822 
L 4775 1759 
L 6319 1759 
L 6319 1003 
L 4775 1003 
L 4775 9 
Q 4775 -372 4567 -556 
Q 4359 -741 3992 -759 
Q 3625 -778 2850 -797 
Q 2769 -284 2681 22 
Q 2997 -6 3331 -6 
Q 3659 -6 3771 58 
Q 3884 122 3888 297 
L 3888 1003 
L 1913 1003 
L 1913 1759 
z
" transform="scale(0.015625)"/>
     </defs>
     <use xlink:href="#MicrosoftYaHei-Bold-7f8e"/>
     <use xlink:href="#MicrosoftYaHei-Bold-6cb9" transform="translate(100 0)"/>
     <use xlink:href="#MicrosoftYaHei-Bold-5e93" transform="translate(200 0)"/>
     <use xlink:href="#MicrosoftYaHei-Bold-5b58" transform="translate(300 0)"/>
    </g>
   </g>
   <g id="text_25">
    <!-- 连续6周下降 -->
    <g style="fill: #ea580c" transform="translate(102.224886 264.545906) scale(0.1 -0.1)">
     <defs>
      <path id="MicrosoftYaHei-Bold-8fde" d="M 1875 1603 
L 3825 1603 
L 3825 2197 
L 2044 2197 
L 2044 2866 
Q 2338 3359 2603 3953 
L 2000 3953 
L 2000 4691 
L 2909 4691 
Q 3034 5009 3150 5353 
L 4056 5216 
Q 3956 4963 3841 4691 
L 6050 4691 
L 6050 3953 
L 3506 3953 
Q 3278 3469 3000 2934 
L 3825 2934 
L 3825 3728 
L 4663 3728 
L 4663 2934 
L 6000 2934 
L 6000 2197 
L 4663 2197 
L 4663 1603 
L 6200 1603 
L 6200 866 
L 4663 866 
L 4663 166 
L 3825 166 
L 3825 866 
L 1875 866 
L 1875 1603 
z
M 1025 5228 
Q 1500 4616 1869 4078 
L 1138 3584 
Q 763 4234 356 4816 
L 1025 5228 
z
M 6306 141 
L 6031 -691 
Q 5216 -703 4453 -703 
Q 2734 -703 2439 -654 
Q 2144 -606 1842 -493 
Q 1541 -381 1238 -103 
L 513 -841 
L 156 109 
L 781 641 
L 781 2222 
L 200 2222 
L 200 3016 
L 1600 3016 
L 1600 628 
Q 2088 91 3156 91 
Q 5384 91 6306 141 
z
" transform="scale(0.015625)"/>
      <path id="MicrosoftYaHei-Bold-7eed" d="M 6281 3734 
L 6281 3066 
L 6075 2166 
L 5313 2291 
L 5550 3028 
L 2950 3028 
Q 3550 2803 4050 2578 
L 3738 2078 
Q 3206 2347 2556 2616 
L 2800 3028 
L 2288 3028 
L 2288 3516 
Q 1813 2659 1150 1734 
Q 1613 1778 2100 1847 
Q 2038 1447 2050 1109 
Q 994 1034 369 903 
L 156 1628 
Q 506 1978 938 2697 
Q 519 2666 294 2622 
L 69 3334 
Q 525 3972 1006 5347 
L 1788 5116 
Q 1363 4184 875 3403 
Q 1075 3409 1344 3422 
Q 1538 3791 1744 4228 
L 2494 3903 
Q 2450 3816 2406 3734 
L 3825 3734 
L 3825 4122 
L 2506 4122 
L 2506 4809 
L 3825 4809 
L 3825 5322 
L 4675 5322 
L 4675 4809 
L 5950 4809 
L 5950 4122 
L 4675 4122 
L 4675 3734 
L 6281 3734 
z
M 6288 609 
L 4669 609 
Q 5444 247 6319 -184 
L 5894 -872 
Q 5150 -428 4200 41 
Q 3619 -534 2506 -909 
Q 2263 -466 2056 -141 
Q 1150 -272 213 -453 
L 81 378 
Q 1306 522 2169 672 
Q 2156 278 2175 -28 
Q 3256 178 3675 609 
L 2238 609 
L 2238 1303 
L 3400 1303 
Q 2838 1597 2163 1872 
L 2444 2359 
Q 3125 2091 3706 1822 
L 3419 1303 
L 4038 1303 
Q 4188 1891 4169 2916 
L 4994 2916 
Q 5000 1978 4838 1303 
L 6288 1303 
L 6288 609 
z
" transform="scale(0.015625)"/>
      <path id="MicrosoftYaHei-Bold-4e0b" d="M 4038 3372 
Q 5050 2647 6069 1866 
L 5425 1078 
Q 4363 1997 3488 2647 
L 3488 -822 
L 2475 -822 
L 2475 4066 
L 175 4066 
L 175 4947 
L 6213 4947 
L 6213 4066 
L 3488 4066 
L 3488 2822 
L 4038 3372 
z
" transform="scale(0.015625)"/>
      <path id="MicrosoftYaHei-Bold-964d" d="M 6050 4853 
L 6050 4147 
Q 5675 3588 5194 3216 
Q 5728 3059 6381 3009 
Q 6213 2647 6063 2259 
Q 5081 2441 4394 2750 
Q 3650 2425 2531 2222 
Q 2338 2703 2219 2916 
Q 3025 2994 3647 3194 
Q 3400 3381 3178 3606 
Q 2994 3406 2794 3216 
Q 2569 3528 2306 3828 
Q 3125 4528 3506 5328 
L 4350 5222 
Q 4244 5034 4131 4853 
L 6050 4853 
z
M 4419 3531 
Q 4866 3794 5144 4166 
L 3653 4166 
Q 3644 4156 3638 4147 
Q 3975 3784 4419 3531 
z
M 1869 2722 
Q 2344 2122 2344 1247 
Q 2344 725 2097 483 
Q 1850 241 1250 241 
Q 1213 666 1113 1084 
Q 1244 1053 1344 1053 
Q 1613 1053 1613 1403 
Q 1613 2053 1131 2647 
L 1588 4328 
L 1100 4328 
L 1100 -828 
L 369 -828 
L 369 5047 
L 2400 5047 
L 2400 4453 
L 1869 2722 
z
M 3263 753 
L 4075 753 
L 4075 1403 
L 2513 1403 
L 2513 2103 
L 4075 2103 
L 4075 2503 
L 4825 2503 
L 4825 2103 
L 6056 2103 
L 6056 1403 
L 4825 1403 
L 4825 753 
L 6219 753 
L 6219 53 
L 4825 53 
L 4825 -822 
L 4075 -822 
L 4075 53 
L 2438 53 
L 2438 734 
L 2769 1328 
L 3544 1328 
L 3263 753 
z
" transform="scale(0.015625)"/>
     </defs>
     <use xlink:href="#MicrosoftYaHei-Bold-8fde"/>
     <use xlink:href="#MicrosoftYaHei-Bold-7eed" transform="translate(100 0)"/>
     <use xlink:href="#MicrosoftYaHei-Bold-36" transform="translate(200 0)"/>
     <use xlink:href="#MicrosoftYaHei-Bold-5468" transform="translate(261.669922 0)"/>
     <use xlink:href="#MicrosoftYaHei-Bold-4e0b" transform="translate(361.669922 0)"/>
     <use xlink:href="#MicrosoftYaHei-Bold-964d" transform="translate(461.669922 0)"/>
    </g>
   </g>
   <g id="text_26">
    <!-- ↓ -->
    <g style="fill: #ea580c" transform="translate(106.86624 272.354288) scale(0.12 -0.12)">
     <defs>
      <path id="MicrosoftYaHei-Bold-2193" d="M 2722 978 
Q 2300 597 2079 323 
Q 1859 50 1669 -313 
L 1528 -313 
Q 1338 50 1119 320 
Q 900 591 475 978 
L 475 1216 
Q 778 1072 939 972 
Q 1100 872 1325 697 
L 1325 5213 
L 1872 5213 
L 1872 697 
Q 2088 866 2255 969 
Q 2422 1072 2722 1216 
L 2722 978 
z
" transform="scale(0.015625)"/>
     </defs>
     <use xlink:href="#MicrosoftYaHei-Bold-2193"/>
    </g>
   </g>
   <g id="text_27">
    <!-- 美伊停火 -->
    <g style="fill: #64748b" transform="translate(189.36 231.611316) scale(0.09 -0.09)">
     <defs>
      <path id="MicrosoftYaHei-Bold-4f0a" d="M 1263 5284 
L 2119 5016 
Q 1903 4297 1631 3641 
L 1631 -778 
L 794 -778 
L 794 1994 
Q 584 1653 356 1334 
Q 281 1716 94 2466 
Q 806 3684 1263 5284 
z
M 2300 4953 
L 5881 4953 
L 5881 3459 
L 6313 3459 
L 6313 2753 
L 5881 2753 
L 5881 834 
L 5050 834 
L 5050 1253 
L 3913 1253 
Q 3681 -281 2594 -859 
Q 2388 -603 1975 -159 
Q 2781 281 3016 1253 
L 2150 1253 
L 2150 1966 
L 3109 1966 
Q 3109 2006 3125 2753 
L 1913 2753 
L 1913 3459 
L 3141 3459 
L 3153 4241 
L 2300 4241 
L 2300 4953 
z
M 4006 3459 
L 5050 3459 
L 5050 4241 
L 4022 4241 
L 4006 3459 
z
M 3994 2753 
L 3972 1966 
L 5050 1966 
L 5050 2753 
L 3994 2753 
z
" transform="scale(0.015625)"/>
      <path id="MicrosoftYaHei-Bold-505c" d="M 1681 1247 
L 1681 2228 
L 6300 2228 
L 6300 1247 
L 5488 1247 
L 5488 1603 
L 2494 1603 
L 2494 1247 
L 1681 1247 
z
M 1156 5309 
L 1931 5141 
Q 1731 4441 1494 3797 
L 1494 -828 
L 719 -828 
L 719 2078 
Q 525 1716 313 1384 
Q 231 1884 75 2509 
Q 688 3541 1156 5309 
z
M 2263 3903 
L 5769 3903 
L 5769 2478 
L 2263 2478 
L 2263 3903 
z
M 6263 4159 
L 1875 4159 
L 1875 4784 
L 3569 4784 
Q 3494 4959 3406 5166 
L 4325 5322 
Q 4425 5059 4525 4784 
L 6263 4784 
L 6263 4159 
z
M 4956 3028 
L 4956 3353 
L 3075 3353 
L 3075 3028 
L 4956 3028 
z
M 5925 1147 
L 5925 509 
L 4600 509 
L 4600 41 
Q 4600 -741 3944 -778 
Q 3563 -816 2869 -803 
Q 2825 -516 2719 -34 
Q 3044 -66 3475 -66 
Q 3781 -84 3781 272 
L 3781 509 
L 2113 509 
L 2113 1147 
L 5925 1147 
z
" transform="scale(0.015625)"/>
      <path id="MicrosoftYaHei-Bold-706b" d="M 2725 5303 
L 3669 5303 
Q 3663 4472 3594 3331 
Q 4022 831 6288 59 
Q 5894 -378 5575 -797 
Q 3875 -19 3203 1775 
Q 2659 116 813 -841 
Q 531 -509 106 -53 
Q 2025 856 2395 2068 
Q 2766 3281 2725 5303 
z
M 2213 2559 
L 1419 2022 
Q 694 3259 238 3884 
L 1006 4359 
Q 1506 3709 2213 2559 
z
M 3994 2559 
Q 4750 3403 5331 4328 
L 6113 3816 
Q 5388 2728 4738 1978 
Q 4425 2247 3994 2559 
z
" transform="scale(0.015625)"/>
     </defs>
     <use xlink:href="#MicrosoftYaHei-Bold-7f8e"/>
     <use xlink:href="#MicrosoftYaHei-Bold-4f0a" transform="translate(100 0)"/>
     <use xlink:href="#MicrosoftYaHei-Bold-505c" transform="translate(200 0)"/>
     <use xlink:href="#MicrosoftYaHei-Bold-706b" transform="translate(300 0)"/>
    </g>
   </g>
   <g id="text_28">
    <!-- 60天MOU框架 -->
    <g style="fill: #16a34a" transform="translate(173.077188 264.545906) scale(0.1 -0.1)">
     <defs>
      <path id="MicrosoftYaHei-Bold-5929" d="M 169 2966 
L 2628 2966 
Q 2706 3475 2728 4116 
L 513 4116 
L 513 4966 
L 5913 4966 
L 5913 4116 
L 3641 4116 
Q 3616 3569 3572 2966 
L 6231 2966 
L 6231 2103 
L 3841 2103 
Q 4531 525 6288 9 
Q 6031 -278 5563 -878 
Q 3913 -184 3163 1553 
Q 2606 125 806 -847 
Q 563 -534 100 -47 
Q 2100 859 2434 2103 
L 169 2103 
L 169 2966 
z
" transform="scale(0.015625)"/>
      <path id="MicrosoftYaHei-Bold-4f" d="M 256 2356 
Q 256 3494 920 4208 
Q 1584 4922 2675 4922 
Q 3713 4922 4345 4231 
Q 4978 3541 4978 2456 
Q 4978 1325 4320 620 
Q 3663 -84 2597 -84 
Q 1556 -84 906 598 
Q 256 1281 256 2356 
z
M 1341 2413 
Q 1341 1706 1681 1257 
Q 2022 809 2616 809 
Q 3222 809 3559 1239 
Q 3897 1669 3897 2394 
Q 3897 3150 3569 3589 
Q 3241 4028 2644 4028 
Q 2038 4028 1689 3578 
Q 1341 3128 1341 2413 
z
" transform="scale(0.015625)"/>
      <path id="MicrosoftYaHei-Bold-55" d="M 4466 2081 
Q 4466 -84 2453 -84 
Q 509 -84 509 2025 
L 509 4841 
L 1544 4841 
L 1544 2019 
Q 1544 809 2497 809 
Q 3434 809 3434 1975 
L 3434 4841 
L 4466 4841 
L 4466 2081 
z
" transform="scale(0.015625)"/>
      <path id="MicrosoftYaHei-Bold-6846" d="M 75 1697 
Q 572 2550 800 3416 
L 138 3416 
L 138 4203 
L 819 4203 
L 819 5303 
L 1613 5303 
L 1613 4203 
L 2175 4203 
L 2175 3416 
L 1613 3416 
L 1613 2797 
Q 1897 2634 2250 2422 
L 1925 1691 
Q 1769 1834 1613 1972 
L 1613 -847 
L 819 -847 
L 819 1656 
Q 594 1100 269 553 
Q 181 1141 75 1697 
z
M 2300 5041 
L 6163 5041 
L 6163 4309 
L 3081 4309 
L 3081 116 
L 6250 116 
L 6250 -616 
L 2300 -616 
L 2300 5041 
z
M 3244 1297 
L 4294 1297 
L 4294 1891 
L 3438 1891 
L 3438 2541 
L 4294 2541 
L 4294 3134 
L 3331 3134 
L 3331 3797 
L 6031 3797 
L 6031 3134 
L 5044 3134 
L 5044 2541 
L 5925 2541 
L 5925 1891 
L 5044 1891 
L 5044 1297 
L 6125 1297 
L 6125 634 
L 3244 634 
L 3244 1297 
z
" transform="scale(0.015625)"/>
      <path id="MicrosoftYaHei-Bold-67b6" d="M 1594 2191 
Q 1553 2438 1394 2866 
Q 1131 2372 663 1997 
Q 444 2234 88 2509 
Q 894 3178 981 4091 
L 300 4091 
L 300 4778 
L 1038 4778 
Q 1050 5028 1050 5316 
L 1806 5316 
Q 1806 5034 1794 4778 
L 3138 4778 
Q 3106 2888 3011 2661 
Q 2916 2434 2752 2318 
Q 2588 2203 1594 2191 
z
M 1738 4091 
Q 1638 3334 1419 2913 
Q 1781 2897 2013 2897 
Q 2203 2897 2256 3036 
Q 2309 3175 2331 4091 
L 1738 4091 
z
M 3525 4928 
L 5931 4928 
L 5931 2422 
L 3525 2422 
L 3525 4928 
z
M 5119 3097 
L 5119 4253 
L 4338 4253 
L 4338 3097 
L 5119 3097 
z
M 2756 2253 
L 3644 2253 
L 3644 1778 
L 6225 1778 
L 6225 1066 
L 4272 1066 
Q 5044 397 6306 22 
Q 6075 -366 5913 -778 
Q 4494 -247 3644 791 
L 3644 -859 
L 2756 -859 
L 2756 784 
Q 1956 -147 500 -753 
Q 313 -366 88 -53 
Q 1219 350 2059 1066 
L 200 1066 
L 200 1778 
L 2756 1778 
L 2756 2253 
z
" transform="scale(0.015625)"/>
     </defs>
     <use xlink:href="#MicrosoftYaHei-Bold-36"/>
     <use xlink:href="#MicrosoftYaHei-Bold-30" transform="translate(61.669922 0)"/>
     <use xlink:href="#MicrosoftYaHei-Bold-5929" transform="translate(123.339844 0)"/>
     <use xlink:href="#MicrosoftYaHei-Bold-4d" transform="translate(223.339844 0)"/>
     <use xlink:href="#MicrosoftYaHei-Bold-4f" transform="translate(326.171875 0)"/>
     <use xlink:href="#MicrosoftYaHei-Bold-55" transform="translate(408.007812 0)"/>
     <use xlink:href="#MicrosoftYaHei-Bold-6846" transform="translate(485.644531 0)"/>
     <use xlink:href="#MicrosoftYaHei-Bold-67b6" transform="translate(585.644531 0)"/>
    </g>
   </g>
   <g id="text_29">
    <!-- → -->
    <g style="fill: #16a34a" transform="translate(180.91776 272.354288) scale(0.12 -0.12)">
     <defs>
      <path id="MicrosoftYaHei-Bold-2192" d="M 4859 3766 
Q 5241 3344 5514 3125 
Q 5788 2906 6150 2713 
L 6150 2572 
Q 5788 2381 5517 2164 
Q 5247 1947 4859 1519 
L 4622 1519 
Q 4766 1822 4866 1983 
Q 4966 2144 5141 2369 
L 247 2369 
L 247 2916 
L 5141 2916 
Q 4972 3131 4869 3298 
Q 4766 3466 4622 3766 
L 4859 3766 
z
" transform="scale(0.015625)"/>
     </defs>
     <use xlink:href="#MicrosoftYaHei-Bold-2192"/>
    </g>
   </g>
   <g id="text_30">
    <!-- OPEC+产量 -->
    <g style="fill: #64748b" transform="translate(259.743083 231.611316) scale(0.09 -0.09)">
     <defs>
      <path id="MicrosoftYaHei-Bold-43" d="M 4013 175 
Q 3484 -84 2634 -84 
Q 1541 -84 898 570 
Q 256 1225 256 2316 
Q 256 3463 973 4192 
Q 1691 4922 2825 4922 
Q 3534 4922 4013 4738 
L 4013 3741 
Q 3522 4028 2900 4028 
Q 2191 4028 1766 3575 
Q 1341 3122 1341 2391 
Q 1341 1678 1744 1243 
Q 2147 809 2834 809 
Q 3481 809 4013 1122 
L 4013 175 
z
" transform="scale(0.015625)"/>
      <path id="MicrosoftYaHei-Bold-2b" d="M 4072 1653 
L 2766 1653 
L 2766 347 
L 2109 347 
L 2109 1653 
L 797 1653 
L 797 2313 
L 2109 2313 
L 2109 3625 
L 2766 3625 
L 2766 2313 
L 4072 2313 
L 4072 1653 
z
" transform="scale(0.015625)"/>
      <path id="MicrosoftYaHei-Bold-4ea7" d="M 725 2766 
L 1925 2766 
Q 1666 3084 1313 3491 
L 1963 3878 
L 313 3878 
L 313 4666 
L 2806 4666 
Q 2706 4947 2600 5216 
L 3588 5366 
L 3766 4666 
L 6200 4666 
L 6200 3878 
L 4469 3878 
L 5269 3491 
L 4628 2766 
L 6094 2766 
L 6094 1978 
L 1550 1978 
L 1550 1828 
Q 1550 447 731 -878 
Q 500 -622 69 -234 
Q 694 803 725 1934 
L 725 2766 
z
M 2881 2959 
L 2569 2766 
L 3609 2766 
Q 3975 3269 4369 3878 
L 2106 3878 
L 2881 2959 
z
" transform="scale(0.015625)"/>
      <path id="MicrosoftYaHei-Bold-91cf" d="M 725 5103 
L 5675 5103 
L 5675 3416 
L 725 3416 
L 725 5103 
z
M 4825 4666 
L 1575 4666 
L 1575 4447 
L 4825 4447 
L 4825 4666 
z
M 4825 3853 
L 4825 4072 
L 1575 4072 
L 1575 3853 
L 4825 3853 
z
M 138 3209 
L 6288 3209 
L 6288 2747 
L 138 2747 
L 138 3209 
z
M 113 -184 
L 2781 -184 
L 2781 53 
L 506 53 
L 506 491 
L 2781 491 
L 2781 716 
L 713 716 
L 713 2534 
L 5681 2534 
L 5681 716 
L 3606 716 
L 3606 491 
L 5925 491 
L 5925 53 
L 3606 53 
L 3606 -184 
L 6300 -184 
L 6300 -647 
L 113 -647 
L 113 -184 
z
M 4881 2097 
L 3606 2097 
L 3606 1816 
L 4881 1816 
L 4881 2097 
z
M 1513 1816 
L 2781 1816 
L 2781 2097 
L 1513 2097 
L 1513 1816 
z
M 4881 1153 
L 4881 1434 
L 3606 1434 
L 3606 1153 
L 4881 1153 
z
M 1513 1153 
L 2781 1153 
L 2781 1434 
L 1513 1434 
L 1513 1153 
z
" transform="scale(0.015625)"/>
     </defs>
     <use xlink:href="#MicrosoftYaHei-Bold-4f"/>
     <use xlink:href="#MicrosoftYaHei-Bold-50" transform="translate(81.835938 0)"/>
     <use xlink:href="#MicrosoftYaHei-Bold-45" transform="translate(147.558594 0)"/>
     <use xlink:href="#MicrosoftYaHei-Bold-43" transform="translate(204.736328 0)"/>
     <use xlink:href="#MicrosoftYaHei-Bold-2b" transform="translate(272.070312 0)"/>
     <use xlink:href="#MicrosoftYaHei-Bold-4ea7" transform="translate(348.193359 0)"/>
     <use xlink:href="#MicrosoftYaHei-Bold-91cf" transform="translate(448.193359 0)"/>
    </g>
   </g>
   <g id="text_31">
    <!-- 维持不变 -->
    <g style="fill: #64748b" transform="translate(264.41152 264.545906) scale(0.1 -0.1)">
     <defs>
      <path id="MicrosoftYaHei-Bold-7ef4" d="M 4650 5353 
Q 5025 4822 5244 4459 
L 4709 4178 
L 6175 4178 
L 6175 3503 
L 5100 3503 
L 5100 2853 
L 6125 2853 
L 6125 2209 
L 5100 2209 
L 5100 1559 
L 6125 1559 
L 6125 916 
L 5100 916 
L 5100 266 
L 6250 266 
L 6250 -397 
L 3363 -397 
L 3363 -834 
L 2538 -834 
L 2538 2238 
Q 2400 2034 2256 1847 
Q 2094 2366 1919 2678 
Q 2688 3859 3063 5328 
L 3863 5116 
Q 3716 4628 3541 4178 
L 4500 4178 
Q 4306 4566 4031 5009 
L 4650 5353 
z
M 3363 2853 
L 4275 2853 
L 4275 3503 
L 3363 3503 
L 3363 2853 
z
M 3363 1559 
L 4275 1559 
L 4275 2209 
L 3363 2209 
L 3363 1559 
z
M 3363 266 
L 4275 266 
L 4275 916 
L 3363 916 
L 3363 266 
z
M 913 3416 
Q 1053 3416 1272 3425 
Q 1459 3803 1669 4259 
L 2369 3997 
Q 1725 2653 1231 1816 
Q 1581 1847 2138 1922 
Q 2081 1622 2063 1172 
Q 994 1084 444 966 
L 231 1672 
Q 500 1966 909 2725 
L 300 2672 
L 88 3359 
Q 400 3722 1019 5353 
L 1788 5122 
Q 1319 4141 913 3416 
z
M 94 397 
Q 1006 516 2294 741 
Q 2263 216 2269 -128 
Q 1294 -278 219 -478 
L 94 397 
z
" transform="scale(0.015625)"/>
      <path id="MicrosoftYaHei-Bold-6301" d="M 138 4203 
L 788 4203 
L 788 5278 
L 1650 5278 
L 1650 4203 
L 2213 4203 
L 2213 3422 
L 1650 3422 
L 1650 2466 
L 2113 2553 
Q 2113 2272 2150 1728 
L 1650 1638 
L 1650 22 
Q 1650 -338 1508 -533 
Q 1366 -728 1075 -762 
Q 784 -797 300 -797 
Q 225 -391 131 34 
Q 466 16 606 16 
Q 788 16 788 266 
L 788 1466 
L 156 1328 
L 106 2216 
Q 422 2259 788 2319 
L 788 3422 
L 138 3422 
L 138 4203 
z
M 2213 3303 
L 3781 3303 
L 3781 3816 
L 2531 3816 
L 2531 4566 
L 3781 4566 
L 3781 5278 
L 4644 5278 
L 4644 4566 
L 5925 4566 
L 5925 3816 
L 4644 3816 
L 4644 3303 
L 6319 3303 
L 6319 2553 
L 2213 2553 
L 2213 3303 
z
M 2513 991 
L 2909 1291 
L 2250 1291 
L 2250 2041 
L 4656 2041 
L 4656 2428 
L 5519 2428 
L 5519 2041 
L 6250 2041 
L 6250 1291 
L 5519 1291 
L 5519 334 
Q 5519 -191 5297 -472 
Q 5075 -753 4692 -793 
Q 4309 -834 3600 -841 
Q 3519 -397 3425 -22 
Q 3875 -47 4238 -47 
Q 4656 -47 4656 466 
L 4656 1291 
L 3234 1291 
Q 3609 888 3888 516 
L 3231 53 
Q 2956 453 2513 991 
z
" transform="scale(0.015625)"/>
      <path id="MicrosoftYaHei-Bold-4e0d" d="M 350 4928 
L 6088 4928 
L 6088 4078 
L 3866 4078 
Q 3659 3556 3375 3072 
L 3675 3072 
L 3675 2341 
L 4300 2928 
Q 5144 2178 6338 1078 
L 5606 359 
Q 4809 1284 3675 2316 
L 3675 -853 
L 2731 -853 
L 2731 2141 
Q 1925 1138 725 303 
Q 525 591 88 1128 
Q 2069 2419 2813 4078 
L 350 4078 
L 350 4928 
z
" transform="scale(0.015625)"/>
      <path id="MicrosoftYaHei-Bold-53d8" d="M 231 4616 
L 2734 4616 
L 2525 5128 
L 3425 5353 
L 3741 4616 
L 6175 4616 
L 6175 3878 
L 4350 3878 
L 4350 2434 
L 3550 2434 
L 3550 3878 
L 2850 3878 
L 2850 2434 
L 2050 2434 
L 2050 3878 
L 231 3878 
L 231 4616 
z
M 1488 3778 
L 2019 3228 
Q 1338 2684 550 2184 
Q 325 2541 88 2828 
Q 844 3272 1488 3778 
z
M 4881 3728 
Q 5538 3328 6306 2778 
L 5769 2159 
Q 5119 2666 4406 3178 
L 4881 3728 
z
M 5300 2272 
L 5300 1566 
Q 4847 913 4144 422 
Q 5063 147 6288 84 
Q 6194 -84 5825 -822 
Q 4297 -663 3200 -116 
Q 2088 -634 544 -884 
Q 363 -497 94 -66 
Q 1359 84 2338 425 
Q 1741 894 1331 1534 
L 900 1534 
L 900 2272 
L 5300 2272 
z
M 3213 794 
Q 3834 1113 4300 1534 
L 2238 1534 
Q 2631 1100 3213 794 
z
" transform="scale(0.015625)"/>
     </defs>
     <use xlink:href="#MicrosoftYaHei-Bold-7ef4"/>
     <use xlink:href="#MicrosoftYaHei-Bold-6301" transform="translate(100 0)"/>
     <use xlink:href="#MicrosoftYaHei-Bold-4e0d" transform="translate(200 0)"/>
     <use xlink:href="#MicrosoftYaHei-Bold-53d8" transform="translate(300 0)"/>
    </g>
   </g>
   <g id="text_32">
    <!-- → -->
    <g style="fill: #64748b" transform="translate(257.96928 272.354288) scale(0.12 -0.12)">
     <use xlink:href="#MicrosoftYaHei-Bold-2192"/>
    </g>
   </g>
   <g id="text_33">
    <!-- 来源: NYMEX / Bloomberg · 2026-05-29 -->
    <g style="fill: #94a3b8" transform="translate(185.880062 303.894375) scale(0.07 -0.07)">
     <defs>
      <path id="MicrosoftYaHei-Bold-6765" d="M 513 4628 
L 2731 4628 
L 2731 5316 
L 3638 5316 
L 3638 4628 
L 5888 4628 
L 5888 3816 
L 4872 3816 
L 5494 3353 
Q 5078 2844 4722 2516 
L 6213 2516 
L 6213 1709 
L 4159 1709 
Q 5028 816 6269 347 
Q 5988 -22 5713 -441 
Q 4388 281 3638 1263 
L 3638 -809 
L 2731 -809 
L 2731 1256 
Q 1959 253 656 -478 
Q 369 -66 106 266 
Q 1325 794 2175 1709 
L 213 1709 
L 213 2516 
L 1609 2516 
Q 1363 2856 906 3378 
L 1488 3816 
L 513 3816 
L 513 4628 
z
M 4847 3816 
L 3638 3816 
L 3638 2516 
L 4638 2516 
L 4081 2984 
Q 4469 3347 4847 3816 
z
M 2294 2966 
L 1688 2516 
L 2731 2516 
L 2731 3816 
L 1531 3816 
Q 1897 3441 2294 2966 
z
" transform="scale(0.015625)"/>
      <path id="MicrosoftYaHei-Bold-6e90" d="M 719 5278 
Q 1425 4772 1744 4509 
L 1163 3878 
Q 719 4309 200 4734 
L 719 5278 
z
M 3281 1053 
L 3894 678 
Q 3688 344 3422 -22 
Q 3584 -47 3844 -53 
Q 4119 -16 4125 203 
L 4125 1191 
L 3019 1191 
L 3019 3834 
L 3691 3834 
Q 3803 4094 3888 4372 
L 2669 4372 
L 2669 2491 
Q 2669 141 1975 -884 
Q 1575 -484 1269 -284 
Q 1875 616 1869 2603 
L 1869 5072 
L 6250 5072 
L 6250 4372 
L 4709 4372 
Q 4634 4188 4459 3834 
L 5981 3834 
L 5981 1191 
L 4925 1191 
L 4925 9 
Q 4925 -347 4776 -547 
Q 4628 -747 4323 -790 
Q 4019 -834 3525 -822 
Q 3472 -481 3372 -91 
Q 3191 -334 2988 -591 
L 2406 -122 
Q 2863 359 3281 1053 
z
M 5206 3197 
L 3781 3197 
L 3781 2803 
L 5206 2803 
L 5206 3197 
z
M 5206 1828 
L 5206 2228 
L 3781 2228 
L 3781 1828 
L 5206 1828 
z
M 594 3666 
Q 1069 3322 1581 2878 
L 1019 2203 
Q 563 2647 81 3072 
L 594 3666 
z
M 781 1878 
Q 1250 1666 1550 1578 
L 988 -778 
Q 575 -622 163 -522 
Q 481 434 781 1878 
z
M 5569 1078 
Q 5963 566 6350 -91 
L 5706 -472 
Q 5406 103 4981 734 
L 5569 1078 
z
" transform="scale(0.015625)"/>
      <path id="MicrosoftYaHei-Bold-3a" d="M 313 2969 
Q 313 3200 491 3350 
Q 669 3500 916 3500 
Q 1166 3500 1337 3350 
Q 1509 3200 1509 2969 
Q 1509 2728 1337 2579 
Q 1166 2431 903 2431 
Q 653 2431 483 2584 
Q 313 2738 313 2969 
z
M 313 453 
Q 313 688 491 838 
Q 669 988 916 988 
Q 1166 988 1337 834 
Q 1509 681 1509 453 
Q 1509 213 1337 64 
Q 1166 -84 903 -84 
Q 659 -84 486 69 
Q 313 222 313 453 
z
" transform="scale(0.015625)"/>
      <path id="MicrosoftYaHei-Bold-42" d="M 559 0 
L 559 4841 
L 2278 4841 
Q 3069 4841 3497 4541 
Q 3925 4241 3925 3709 
Q 3925 3316 3659 3019 
Q 3394 2722 2991 2609 
L 2991 2597 
Q 3497 2534 3808 2221 
Q 4119 1909 4119 1438 
Q 4119 778 3650 389 
Q 3181 0 2369 0 
L 559 0 
z
M 1591 4072 
L 1591 2875 
L 2081 2875 
Q 2434 2875 2637 3044 
Q 2841 3213 2841 3516 
Q 2841 4072 2028 4072 
L 1591 4072 
z
M 1591 2097 
L 1591 769 
L 2203 769 
Q 2594 769 2814 950 
Q 3034 1131 3034 1453 
Q 3034 1759 2815 1928 
Q 2597 2097 2194 2097 
L 1591 2097 
z
" transform="scale(0.015625)"/>
      <path id="MicrosoftYaHei-Bold-6c" d="M 444 0 
L 444 5116 
L 1450 5116 
L 1450 0 
L 444 0 
z
" transform="scale(0.015625)"/>
      <path id="MicrosoftYaHei-Bold-6f" d="M 253 1713 
Q 253 2566 764 3053 
Q 1275 3541 2138 3541 
Q 2972 3541 3462 3061 
Q 3953 2581 3953 1772 
Q 3953 922 3450 419 
Q 2947 -84 2088 -84 
Q 1244 -84 748 398 
Q 253 881 253 1713 
z
M 1275 1725 
Q 1275 691 2119 691 
Q 2928 691 2928 1753 
Q 2928 2766 2113 2766 
Q 1716 2766 1495 2494 
Q 1275 2222 1275 1725 
z
" transform="scale(0.015625)"/>
      <path id="MicrosoftYaHei-Bold-6d" d="M 5881 0 
L 4875 0 
L 4875 1972 
Q 4875 2766 4297 2766 
Q 4028 2766 3850 2525 
Q 3672 2284 3672 1938 
L 3672 0 
L 2666 0 
L 2666 1997 
Q 2666 2766 2094 2766 
Q 1809 2766 1639 2536 
Q 1469 2306 1469 1928 
L 1469 0 
L 459 0 
L 459 3456 
L 1469 3456 
L 1469 2916 
L 1481 2916 
Q 1663 3213 1963 3377 
Q 2263 3541 2594 3541 
Q 3322 3541 3591 2888 
Q 3991 3541 4753 3541 
Q 5881 3541 5881 2147 
L 5881 0 
z
" transform="scale(0.015625)"/>
      <path id="MicrosoftYaHei-Bold-62" d="M 1469 416 
L 1469 0 
L 459 0 
L 459 5116 
L 1469 5116 
L 1469 2928 
L 1481 2928 
Q 1878 3541 2613 3541 
Q 3266 3541 3636 3084 
Q 4006 2628 4006 1825 
Q 4006 966 3581 441 
Q 3156 -84 2453 -84 
Q 1809 -84 1481 416 
L 1469 416 
z
M 1453 1494 
Q 1453 1153 1656 922 
Q 1859 691 2172 691 
Q 2550 691 2761 984 
Q 2972 1278 2972 1816 
Q 2972 2263 2780 2514 
Q 2588 2766 2231 2766 
Q 1894 2766 1673 2512 
Q 1453 2259 1453 1863 
L 1453 1494 
z
" transform="scale(0.015625)"/>
      <path id="MicrosoftYaHei-Bold-65" d="M 3528 1444 
L 1253 1444 
Q 1306 641 2222 641 
Q 2794 641 3231 922 
L 3231 181 
Q 2759 -84 1994 -84 
Q 1169 -84 711 381 
Q 253 847 253 1678 
Q 253 2506 740 3023 
Q 1228 3541 1966 3541 
Q 2700 3541 3114 3095 
Q 3528 2650 3528 1872 
L 3528 1444 
z
M 2588 2075 
Q 2588 2850 1959 2850 
Q 1700 2850 1500 2637 
Q 1300 2425 1250 2075 
L 2588 2075 
z
" transform="scale(0.015625)"/>
      <path id="MicrosoftYaHei-Bold-72" d="M 2663 2541 
Q 2478 2647 2216 2647 
Q 1872 2647 1670 2384 
Q 1469 2122 1469 1663 
L 1469 0 
L 459 0 
L 459 3456 
L 1469 3456 
L 1469 2806 
L 1481 2806 
Q 1731 3516 2391 3516 
Q 2569 3516 2663 3475 
L 2663 2541 
z
" transform="scale(0.015625)"/>
      <path id="MicrosoftYaHei-Bold-67" d="M 3800 381 
Q 3800 -581 3251 -1101 
Q 2703 -1622 1672 -1622 
Q 972 -1622 559 -1422 
L 559 -559 
Q 1097 -872 1644 -872 
Q 2184 -872 2489 -583 
Q 2794 -294 2794 219 
L 2794 506 
L 2778 506 
Q 2413 -84 1691 -84 
Q 1038 -84 645 381 
Q 253 847 253 1628 
Q 253 2500 686 3020 
Q 1119 3541 1822 3541 
Q 2459 3541 2778 3044 
L 2794 3044 
L 2794 3456 
L 3800 3456 
L 3800 381 
z
M 2803 1950 
Q 2803 2294 2595 2530 
Q 2388 2766 2072 2766 
Q 1703 2766 1489 2477 
Q 1275 2188 1275 1666 
Q 1275 1213 1481 952 
Q 1688 691 2028 691 
Q 2372 691 2587 956 
Q 2803 1222 2803 1647 
L 2803 1950 
z
" transform="scale(0.015625)"/>
     </defs>
     <use xlink:href="#MicrosoftYaHei-Bold-6765"/>
     <use xlink:href="#MicrosoftYaHei-Bold-6e90" transform="translate(100 0)"/>
     <use xlink:href="#MicrosoftYaHei-Bold-3a" transform="translate(200 0)"/>
     <use xlink:href="#MicrosoftYaHei-Bold-20" transform="translate(228.564453 0)"/>
     <use xlink:href="#MicrosoftYaHei-Bold-4e" transform="translate(258.349609 0)"/>
     <use xlink:href="#MicrosoftYaHei-Bold-59" transform="translate(343.164062 0)"/>
     <use xlink:href="#MicrosoftYaHei-Bold-4d" transform="translate(408.007812 0)"/>
     <use xlink:href="#MicrosoftYaHei-Bold-45" transform="translate(510.839844 0)"/>
     <use xlink:href="#MicrosoftYaHei-Bold-58" transform="translate(569.892578 0)"/>
     <use xlink:href="#MicrosoftYaHei-Bold-20" transform="translate(639.912109 0)"/>
     <use xlink:href="#MicrosoftYaHei-Bold-2f" transform="translate(669.697266 0)"/>
     <use xlink:href="#MicrosoftYaHei-Bold-20" transform="translate(716.962891 0)"/>
     <use xlink:href="#MicrosoftYaHei-Bold-42" transform="translate(746.748047 0)"/>
     <use xlink:href="#MicrosoftYaHei-Bold-6c" transform="translate(815.107422 0)"/>
     <use xlink:href="#MicrosoftYaHei-Bold-6f" transform="translate(844.697266 0)"/>
     <use xlink:href="#MicrosoftYaHei-Bold-6f" transform="translate(910.419922 0)"/>
     <use xlink:href="#MicrosoftYaHei-Bold-6d" transform="translate(976.142578 0)"/>
     <use xlink:href="#MicrosoftYaHei-Bold-62" transform="translate(1074.335938 0)"/>
     <use xlink:href="#MicrosoftYaHei-Bold-65" transform="translate(1140.9375 0)"/>
     <use xlink:href="#MicrosoftYaHei-Bold-72" transform="translate(1199.140625 0)"/>
     <use xlink:href="#MicrosoftYaHei-Bold-67" transform="translate(1241.023438 0)"/>
     <use xlink:href="#MicrosoftYaHei-Bold-20" transform="translate(1307.478516 0)"/>
     <use xlink:href="#MicrosoftYaHei-Bold-b7" transform="translate(1337.263672 0)"/>
     <use xlink:href="#MicrosoftYaHei-Bold-20" transform="translate(1381.208984 0)"/>
     <use xlink:href="#MicrosoftYaHei-Bold-32" transform="translate(1410.994141 0)"/>
     <use xlink:href="#MicrosoftYaHei-Bold-30" transform="translate(1472.664062 0)"/>
     <use xlink:href="#MicrosoftYaHei-Bold-32" transform="translate(1534.333984 0)"/>
     <use xlink:href="#MicrosoftYaHei-Bold-36" transform="translate(1596.003906 0)"/>
     <use xlink:href="#MicrosoftYaHei-Bold-2d" transform="translate(1657.673828 0)"/>
     <use xlink:href="#MicrosoftYaHei-Bold-30" transform="translate(1701.326172 0)"/>
     <use xlink:href="#MicrosoftYaHei-Bold-35" transform="translate(1762.996094 0)"/>
     <use xlink:href="#MicrosoftYaHei-Bold-2d" transform="translate(1824.666016 0)"/>
     <use xlink:href="#MicrosoftYaHei-Bold-32" transform="translate(1868.318359 0)"/>
     <use xlink:href="#MicrosoftYaHei-Bold-39" transform="translate(1929.988281 0)"/>
    </g>
   </g>
  </g>
 </g>
 <defs>
  <clipPath id="p4ef9424c6c">
   <rect x="10.8" y="92.448" width="314.496" height="51.408"/>
  </clipPath>
  <clipPath id="pfe75426e3d">
   <rect x="10.8" y="207.36" width="314.496" height="72.576"/>
  </clipPath>
 </defs>
</svg>
