<?xml version="1.0" encoding="utf-8" standalone="no"?>
<!DOCTYPE svg PUBLIC "-//W3C//DTD SVG 1.1//EN"
  "http://www.w3.org/Graphics/SVG/1.1/DTD/svg11.dtd">
<svg xmlns:xlink="http://www.w3.org/1999/xlink" width="336.096pt" height="316.769219pt" viewBox="0 0 336.096 316.769219" xmlns="http://www.w3.org/2000/svg" version="1.1">
 <metadata>
  <rdf:RDF xmlns:dc="http://purl.org/dc/elements/1.1/" xmlns:cc="http://creativecommons.org/ns#" xmlns:rdf="http://www.w3.org/1999/02/22-rdf-syntax-ns#">
   <cc:Work>
    <dc:type rdf:resource="http://purl.org/dc/dcmitype/StillImage"/>
    <dc:date>2026-06-23T21:30:41.659638</dc:date>
    <dc:format>image/svg+xml</dc:format>
    <dc:creator>
     <cc:Agent>
      <dc:title>Matplotlib v3.11.0, https://matplotlib.org/</dc:title>
     </cc:Agent>
    </dc:creator>
   </cc:Work>
  </rdf:RDF>
 </metadata>
 <defs>
  <style type="text/css">*{stroke-linejoin: round; stroke-linecap: butt}</style>
 </defs>
 <g id="figure_1">
  <g id="patch_1">
   <path d="M 0 316.769219 
L 336.096 316.769219 
L 336.096 0 
L 0 0 
z
" style="fill: #ffffff"/>
  </g>
  <g id="axes_1">
   <g id="patch_2">
    <path d="M 10.8 77.328 
L 325.296 77.328 
L 325.296 10.8 
L 10.8 10.8 
z
" style="fill: #ffffff"/>
   </g>
   <g id="matplotlib.axis_1"/>
   <g id="matplotlib.axis_2"/>
   <g id="text_1">
    <!-- WTI原油 · 实时KPI看板 -->
    <g style="fill: #1e293b" transform="translate(10.8 33.0992) scale(0.14 -0.14)">
     <defs>
      <path id="NotoSansSC-Medium-38" d="M 1107 0 
L 2003 0 
L 2624 2618 
C 2701 2989 2778 3341 2848 3699 
L 2874 3699 
C 2938 3341 3008 2989 3091 2618 
L 3725 0 
L 4640 0 
L 5568 4717 
L 4858 4717 
L 4410 2259 
C 4333 1766 4250 1261 4173 749 
L 4141 749 
C 4032 1261 3930 1766 3821 2259 
L 3213 4717 
L 2554 4717 
L 1946 2259 
C 1837 1760 1728 1254 1626 749 
L 1600 749 
C 1517 1254 1434 1760 1350 2259 
L 909 4717 
L 147 4717 
L 1107 0 
z
" transform="scale(0.015625)"/>
      <path id="NotoSansSC-Medium-35" d="M 1581 0 
L 2323 0 
L 2323 4090 
L 3712 4090 
L 3712 4717 
L 198 4717 
L 198 4090 
L 1581 4090 
L 1581 0 
z
" transform="scale(0.015625)"/>
      <path id="NotoSansSC-Medium-2a" d="M 621 0 
L 1363 0 
L 1363 4717 
L 621 4717 
L 621 0 
z
" transform="scale(0.015625)"/>
      <path id="NotoSansSC-Medium-2791" d="M 1402 4506 
L 6022 4506 
L 6022 5050 
L 813 5050 
L 813 3232 
C 813 2259 768 883 224 -70 
C 365 -122 627 -275 736 -371 
C 1312 646 1402 2189 1402 3232 
L 1402 4506 
z
M 2342 1293 
C 2074 870 1670 397 1299 77 
C 1446 0 1683 -154 1798 -250 
C 2150 96 2592 634 2912 1107 
L 2342 1293 
z
M 2490 2528 
L 4941 2528 
L 4941 2016 
L 2490 2016 
L 2490 2528 
z
M 2490 3469 
L 4941 3469 
L 4941 2957 
L 2490 2957 
L 2490 3469 
z
M 5549 1555 
L 5549 3930 
L 3763 3930 
C 3853 4070 3936 4218 4026 4365 
L 3322 4461 
C 3270 4307 3194 4115 3104 3930 
L 1907 3930 
L 1907 1555 
L 3424 1555 
L 3424 128 
C 3424 51 3398 26 3302 19 
C 3213 19 2893 19 2560 26 
C 2630 -122 2707 -339 2733 -499 
C 3206 -499 3526 -493 3738 -410 
C 3949 -326 4000 -173 4000 115 
L 4000 1555 
L 5549 1555 
z
M 4442 1037 
C 4800 627 5299 58 5530 -282 
L 6035 19 
C 5779 352 5274 896 4909 1293 
L 4442 1037 
z
" transform="scale(0.015625)"/>
      <path id="NotoSansSC-Medium-408e" d="M 1830 2906 
C 1549 3104 998 3386 608 3558 
L 288 3117 
C 685 2918 1235 2611 1498 2413 
L 1830 2906 
z
M 1018 -410 
C 1344 128 1702 800 1984 1395 
L 1536 1773 
C 1216 1126 794 403 506 -26 
L 1018 -410 
z
M 614 4851 
C 1024 4653 1581 4333 1850 4128 
L 2195 4614 
C 1920 4819 1357 5114 960 5293 
L 614 4851 
z
M 4378 467 
L 4378 1709 
L 5325 1709 
L 5325 467 
L 4378 467 
z
M 2886 1709 
L 3795 1709 
L 3795 467 
L 2886 467 
L 2886 1709 
z
M 3795 3482 
L 3795 2278 
L 2886 2278 
L 2886 3482 
L 3795 3482 
z
M 5325 3482 
L 5325 2278 
L 4378 2278 
L 4378 3482 
L 5325 3482 
z
M 4378 4051 
L 4378 5357 
L 3795 5357 
L 3795 4051 
L 2330 4051 
L 2330 -480 
L 2886 -480 
L 2886 -102 
L 5325 -102 
L 5325 -442 
L 5901 -442 
L 5901 4051 
L 4378 4051 
z
" transform="scale(0.015625)"/>
      <path id="NotoSansSC-Medium-1" transform="scale(0.015625)"/>
      <path id="NotoSansSC-Medium-561" d="M 3200 3174 
C 2790 3174 2458 2842 2458 2432 
C 2458 2022 2790 1690 3200 1690 
C 3610 1690 3942 2022 3942 2432 
C 3942 2842 3610 3174 3200 3174 
z
" transform="scale(0.015625)"/>
      <path id="NotoSansSC-Medium-2f83" d="M 1158 4147 
L 5229 4147 
L 5229 3341 
L 5850 3341 
L 5850 4704 
L 3680 4704 
C 3597 4922 3430 5203 3296 5427 
L 2694 5242 
C 2790 5082 2899 4883 2982 4704 
L 570 4704 
L 570 3341 
L 1158 3341 
L 1158 4147 
z
M 2829 3219 
C 2637 3443 2221 3725 1882 3904 
L 1530 3514 
C 1869 3322 2272 3014 2451 2797 
L 2829 3219 
z
M 896 2541 
C 1242 2355 1658 2054 1862 1837 
L 2227 2278 
C 2010 2496 1587 2778 1242 2944 
L 896 2541 
z
M 3418 595 
C 4250 307 5088 -109 5587 -474 
L 5952 0 
C 5434 346 4538 755 3699 1030 
L 3418 595 
z
M 3558 1696 
C 3718 2298 3763 3014 3789 3853 
L 3162 3853 
C 3136 2976 3110 2266 2912 1696 
L 474 1696 
L 474 1190 
L 2662 1190 
C 2310 653 1670 269 531 26 
C 659 -102 806 -333 864 -493 
C 2285 -160 2995 397 3366 1190 
L 5965 1190 
L 5965 1696 
L 3558 1696 
z
" transform="scale(0.015625)"/>
      <path id="NotoSansSC-Medium-39d0" d="M 2022 4314 
L 2022 3053 
L 1069 3053 
L 1069 4314 
L 2022 4314 
z
M 1069 1203 
L 1069 2528 
L 2022 2528 
L 2022 1203 
L 1069 1203 
z
M 2579 4851 
L 512 4851 
L 512 160 
L 1069 160 
L 1069 672 
L 2579 672 
L 2579 4851 
z
M 6150 4141 
L 5434 4141 
L 5434 5325 
L 4826 5325 
L 4826 4141 
L 2842 4141 
L 2842 3552 
L 4826 3552 
L 4826 339 
C 4826 205 4774 166 4646 160 
C 4506 160 4032 160 3565 173 
C 3654 6 3744 -262 3776 -429 
C 4410 -435 4832 -416 5088 -320 
C 5331 -230 5434 -58 5434 339 
L 5434 3552 
L 6150 3552 
L 6150 4141 
z
M 4461 1626 
C 4250 1997 3814 2624 3482 3085 
L 2995 2829 
C 3322 2349 3738 1696 3936 1318 
L 4461 1626 
z
" transform="scale(0.015625)"/>
      <path id="NotoSansSC-Medium-2c" d="M 621 0 
L 1363 0 
L 1363 1421 
L 2086 2310 
L 3418 0 
L 4243 0 
L 2541 2893 
L 4000 4717 
L 3174 4717 
L 1382 2483 
L 1363 2483 
L 1363 4717 
L 621 4717 
L 621 0 
z
" transform="scale(0.015625)"/>
      <path id="NotoSansSC-Medium-31" d="M 621 0 
L 1363 0 
L 1363 1786 
L 2074 1786 
C 3098 1786 3846 2259 3846 3290 
C 3846 4352 3098 4717 2048 4717 
L 621 4717 
L 621 0 
z
M 1363 2381 
L 1363 4115 
L 1978 4115 
C 2726 4115 3117 3910 3117 3290 
C 3117 2669 2758 2381 2003 2381 
L 1363 2381 
z
" transform="scale(0.015625)"/>
      <path id="NotoSansSC-Medium-4ad2" d="M 4794 1734 
L 2234 1734 
L 2234 2099 
L 4794 2099 
L 4794 1734 
z
M 2234 186 
L 2234 576 
L 4794 576 
L 4794 186 
L 2234 186 
z
M 2234 1338 
L 4794 1338 
L 4794 973 
L 2234 973 
L 2234 1338 
z
M 6003 2931 
L 6003 3405 
L 2746 3405 
C 2803 3526 2861 3661 2912 3789 
L 5645 3789 
L 5645 4256 
L 3072 4256 
C 3117 4390 3162 4518 3200 4653 
C 4090 4704 4941 4787 5600 4902 
L 5242 5331 
C 4205 5139 2317 5050 768 5043 
C 826 4922 877 4723 883 4589 
C 1414 4589 1978 4602 2541 4621 
C 2509 4499 2477 4378 2432 4256 
L 851 4256 
L 851 3789 
L 2272 3789 
C 2214 3661 2157 3526 2093 3405 
L 397 3405 
L 397 2931 
L 1837 2931 
C 1446 2285 915 1722 224 1331 
C 339 1222 512 1005 589 864 
C 998 1101 1357 1395 1664 1722 
L 1664 -525 
L 2234 -525 
L 2234 -282 
L 4794 -282 
L 4794 -525 
L 5389 -525 
L 5389 2560 
L 2304 2560 
C 2381 2682 2445 2803 2515 2931 
L 6003 2931 
z
" transform="scale(0.015625)"/>
      <path id="NotoSansSC-Medium-3b56" d="M 2509 2310 
C 2406 2496 1933 3213 1760 3437 
L 1760 3610 
L 2483 3610 
L 2483 4160 
L 1760 4160 
L 1760 5363 
L 1203 5363 
L 1203 4160 
L 371 4160 
L 371 3610 
L 1171 3610 
C 979 2778 608 1805 205 1312 
C 307 1165 429 890 486 723 
C 749 1120 1005 1747 1203 2419 
L 1203 -506 
L 1760 -506 
L 1760 2726 
C 1920 2419 2080 2067 2157 1862 
L 2509 2310 
z
M 5190 3008 
C 5050 2413 4832 1894 4557 1453 
C 4294 1914 4090 2438 3949 3008 
L 5190 3008 
z
M 5485 3565 
L 5376 3546 
L 3309 3546 
L 3309 4333 
C 4250 4397 5293 4531 5978 4800 
L 5581 5280 
C 4922 5011 3738 4870 2726 4813 
L 2726 3283 
C 2726 2272 2662 819 1952 -192 
C 2086 -256 2342 -429 2445 -531 
C 3130 454 3283 1926 3309 3008 
L 3418 3008 
C 3597 2227 3846 1536 4192 960 
C 3814 518 3366 186 2861 -19 
C 2976 -134 3136 -358 3213 -512 
C 3718 -275 4160 45 4538 461 
C 4877 38 5293 -288 5792 -525 
C 5875 -358 6054 -128 6189 -13 
C 5677 186 5261 512 4922 934 
C 5363 1581 5690 2406 5856 3450 
L 5485 3565 
z
" transform="scale(0.015625)"/>
     </defs>
     <use xlink:href="#NotoSansSC-Medium-38"/>
     <use xlink:href="#NotoSansSC-Medium-35" transform="translate(89.40625 0)"/>
     <use xlink:href="#NotoSansSC-Medium-2a" transform="translate(150.40625 0)"/>
     <use xlink:href="#NotoSansSC-Medium-2791" transform="translate(181.3125 0)"/>
     <use xlink:href="#NotoSansSC-Medium-408e" transform="translate(281.3125 0)"/>
     <use xlink:href="#NotoSansSC-Medium-1" transform="translate(381.3125 0)"/>
     <use xlink:href="#NotoSansSC-Medium-561" transform="translate(403.8125 0)"/>
     <use xlink:href="#NotoSansSC-Medium-1" transform="translate(503.8125 0)"/>
     <use xlink:href="#NotoSansSC-Medium-2f83" transform="translate(526.3125 0)"/>
     <use xlink:href="#NotoSansSC-Medium-39d0" transform="translate(626.3125 0)"/>
     <use xlink:href="#NotoSansSC-Medium-2c" transform="translate(726.3125 0)"/>
     <use xlink:href="#NotoSansSC-Medium-31" transform="translate(792.609375 0)"/>
     <use xlink:href="#NotoSansSC-Medium-2a" transform="translate(857.3125 0)"/>
     <use xlink:href="#NotoSansSC-Medium-4ad2" transform="translate(888.21875 0)"/>
     <use xlink:href="#NotoSansSC-Medium-3b56" transform="translate(988.21875 0)"/>
    </g>
   </g>
   <g id="text_2">
    <!-- $88.90 -->
    <g style="fill: #dc2626" transform="translate(10.8 62.675988) scale(0.38 -0.38)">
     <defs>
      <path id="NotoSansSC-Medium-5" d="M 1587 -787 
L 2099 -787 
L 2099 -58 
C 2803 64 3213 550 3213 1235 
C 3213 2726 1235 2509 1235 3443 
C 1235 3834 1491 4064 1901 4064 
C 2266 4064 2483 3923 2752 3674 
L 3130 4102 
C 2867 4384 2560 4602 2099 4659 
L 2099 5376 
L 1587 5376 
L 1587 4653 
C 941 4544 525 4077 525 3411 
C 525 2042 2502 2221 2502 1184 
C 2502 768 2259 518 1760 518 
C 1357 518 1005 710 678 979 
L 346 474 
C 666 186 1139 -32 1587 -77 
L 1587 -787 
z
" transform="scale(0.015625)"/>
      <path id="NotoSansSC-Medium-19" d="M 1830 -83 
C 2739 -83 3354 454 3354 1152 
C 3354 1792 2982 2163 2560 2400 
L 2560 2432 
C 2854 2650 3181 3059 3181 3539 
C 3181 4275 2669 4787 1850 4787 
C 1082 4787 506 4307 506 3571 
C 506 3072 787 2720 1139 2470 
L 1139 2438 
C 704 2208 294 1792 294 1171 
C 294 442 947 -83 1830 -83 
z
M 2138 2618 
C 1613 2822 1165 3059 1165 3571 
C 1165 3994 1453 4256 1837 4256 
C 2298 4256 2560 3930 2560 3494 
C 2560 3181 2419 2880 2138 2618 
z
M 1843 448 
C 1338 448 947 774 947 1242 
C 947 1651 1171 2003 1498 2227 
C 2138 1965 2656 1747 2656 1171 
C 2656 730 2330 448 1843 448 
z
" transform="scale(0.015625)"/>
      <path id="NotoSansSC-Medium-f" d="M 954 -83 
C 1229 -83 1446 128 1446 429 
C 1446 736 1229 954 954 954 
C 678 954 461 736 461 429 
C 461 128 678 -83 954 -83 
z
" transform="scale(0.015625)"/>
      <path id="NotoSansSC-Medium-1a" d="M 960 3251 
C 960 3866 1280 4230 1683 4230 
C 2195 4230 2547 3808 2618 2880 
C 2349 2477 2016 2304 1722 2304 
C 1229 2304 960 2650 960 3251 
z
M 1555 -83 
C 2464 -83 3309 659 3309 2515 
C 3309 4077 2579 4800 1677 4800 
C 915 4800 275 4186 275 3251 
C 275 2266 806 1773 1594 1773 
C 1952 1773 2355 1984 2630 2323 
C 2586 979 2093 518 1523 518 
C 1229 518 941 659 755 870 
L 352 416 
C 627 134 1011 -83 1555 -83 
z
" transform="scale(0.015625)"/>
      <path id="NotoSansSC-Medium-11" d="M 1824 -83 
C 2746 -83 3347 736 3347 2374 
C 3347 4000 2746 4800 1824 4800 
C 902 4800 301 4006 301 2374 
C 301 736 902 -83 1824 -83 
z
M 1824 499 
C 1344 499 1005 1011 1005 2374 
C 1005 3725 1344 4218 1824 4218 
C 2304 4218 2643 3725 2643 2374 
C 2643 1011 2304 499 1824 499 
z
" transform="scale(0.015625)"/>
     </defs>
     <use xlink:href="#NotoSansSC-Medium-5"/>
     <use xlink:href="#NotoSansSC-Medium-19" transform="translate(57 0)"/>
     <use xlink:href="#NotoSansSC-Medium-19" transform="translate(114 0)"/>
     <use xlink:href="#NotoSansSC-Medium-f" transform="translate(171 0)"/>
     <use xlink:href="#NotoSansSC-Medium-1a" transform="translate(200.796875 0)"/>
     <use xlink:href="#NotoSansSC-Medium-11" transform="translate(257.796875 0)"/>
    </g>
   </g>
   <g id="text_3">
    <!-- 美元/桶 -->
    <g style="fill: #94a3b8" transform="translate(120.8736 65.0088) scale(0.13 -0.13)">
     <defs>
      <path id="NotoSansSC-Medium-5350" d="M 5971 1126 
L 5971 1658 
L 3366 1658 
C 3392 1792 3418 1933 3430 2080 
L 6074 2080 
L 6074 2605 
L 3494 2605 
L 3494 3059 
L 5498 3059 
L 5498 3565 
L 3494 3565 
L 3494 4000 
L 5760 4000 
L 5760 4525 
L 4499 4525 
C 4653 4730 4826 4986 4973 5222 
L 4339 5395 
C 4230 5139 4013 4781 3840 4525 
L 2278 4525 
L 2490 4621 
C 2400 4845 2182 5165 1965 5395 
L 1446 5190 
C 1600 4998 1773 4736 1875 4525 
L 640 4525 
L 640 4000 
L 2880 4000 
L 2880 3565 
L 947 3565 
L 947 3059 
L 2880 3059 
L 2880 2605 
L 378 2605 
L 378 2080 
L 2810 2080 
C 2790 1926 2765 1792 2739 1658 
L 550 1658 
L 550 1126 
L 2547 1126 
C 2253 582 1645 237 262 38 
C 378 -90 518 -333 563 -493 
C 2176 -230 2861 269 3187 1037 
C 3693 160 4518 -307 5798 -499 
C 5862 -326 6029 -77 6157 51 
C 5024 173 4237 512 3776 1126 
L 5971 1126 
z
" transform="scale(0.015625)"/>
      <path id="NotoSansSC-Medium-253e" d="M 5466 4896 
L 960 4896 
L 960 4320 
L 5466 4320 
L 5466 4896 
z
M 4550 166 
C 4320 166 4282 205 4282 435 
L 4282 2566 
L 6022 2566 
L 6022 3142 
L 397 3142 
L 397 2566 
L 1939 2566 
C 1850 1440 1632 486 294 -13 
C 429 -128 602 -339 666 -493 
C 2170 109 2458 1216 2573 2566 
L 3667 2566 
L 3667 429 
C 3667 -198 3834 -397 4467 -397 
L 5318 -397 
C 5914 -397 6067 -83 6131 1024 
C 5971 1069 5715 1171 5574 1280 
C 5549 333 5510 166 5274 166 
L 4550 166 
z
" transform="scale(0.015625)"/>
      <path id="NotoSansSC-Medium-10" d="M 77 -1152 
L 589 -1152 
L 2368 5114 
L 1856 5114 
L 77 -1152 
z
" transform="scale(0.015625)"/>
      <path id="NotoSansSC-Medium-3c4d" d="M 1670 5363 
L 1120 5363 
L 1120 4160 
L 333 4160 
L 333 3610 
L 1069 3610 
C 896 2842 538 1946 154 1466 
C 250 1312 384 1043 442 877 
C 691 1222 934 1779 1120 2362 
L 1120 -506 
L 1670 -506 
L 1670 2630 
C 1811 2374 1939 2106 2010 1946 
L 2362 2355 
C 2266 2515 1856 3117 1670 3354 
L 1670 3610 
L 2368 3610 
L 2368 4160 
L 1670 4160 
L 1670 5363 
z
M 4384 1306 
L 4384 1901 
L 5293 1901 
L 5293 1306 
L 4384 1306 
z
M 2970 1306 
L 2970 1901 
L 3840 1901 
L 3840 1306 
L 2970 1306 
z
M 3840 2970 
L 3840 2413 
L 2970 2413 
L 2970 2970 
L 3840 2970 
z
M 5293 2413 
L 4384 2413 
L 4384 2970 
L 5293 2970 
L 5293 2413 
z
M 5850 3494 
L 4979 3494 
L 5062 3635 
C 4941 3712 4787 3795 4614 3885 
C 5056 4166 5478 4538 5779 4902 
L 5414 5171 
L 5299 5146 
L 2490 5146 
L 2490 4640 
L 4787 4640 
C 4576 4454 4326 4275 4083 4128 
C 3808 4250 3520 4358 3270 4435 
L 3008 4032 
C 3405 3898 3866 3693 4250 3494 
L 2432 3494 
L 2432 -499 
L 2970 -499 
L 2970 787 
L 3840 787 
L 3840 -461 
L 4384 -461 
L 4384 787 
L 5293 787 
L 5293 122 
C 5293 51 5267 26 5197 26 
C 5139 19 4915 19 4691 26 
C 4768 -109 4838 -352 4858 -499 
C 5222 -499 5459 -493 5632 -403 
C 5798 -314 5850 -154 5850 109 
L 5850 3494 
z
" transform="scale(0.015625)"/>
     </defs>
     <use xlink:href="#NotoSansSC-Medium-5350"/>
     <use xlink:href="#NotoSansSC-Medium-253e" transform="translate(100 0)"/>
     <use xlink:href="#NotoSansSC-Medium-10" transform="translate(200 0)"/>
     <use xlink:href="#NotoSansSC-Medium-3c4d" transform="translate(239 0)"/>
    </g>
   </g>
   <g id="text_4">
    <g id="patch_3">
     <path d="M 183.7728 57.6376 
L 248.240612 57.6376 
Q 252.140613 57.6376 252.140613 53.7376 
L 252.140613 40.7376 
Q 252.140613 36.8376 248.240612 36.8376 
L 183.7728 36.8376 
Q 179.8728 36.8376 179.8728 40.7376 
L 179.8728 53.7376 
Q 179.8728 57.6376 183.7728 57.6376 
z
" style="fill: #f0fdf4; opacity: 0.8; stroke: #bbf7d0; stroke-width: 1.5; stroke-linejoin: miter"/>
    </g>
    <!-- 今日 -0.6% -->
    <g style="fill: #16a34a" transform="translate(183.7728 52.1776) scale(0.13 -0.13)">
     <defs>
      <path id="NotoSansSC-Medium-22c5" d="M 4973 2272 
L 1037 2272 
L 1037 1664 
L 4454 1664 
C 4013 1082 3411 339 2899 -250 
L 3520 -538 
C 4186 288 5011 1331 5549 2080 
L 5082 2304 
L 4973 2272 
z
M 4115 2701 
C 3840 2982 3283 3405 2880 3693 
L 2483 3328 
C 2893 3014 3443 2560 3693 2278 
L 4115 2701 
z
M 3130 5421 
C 2502 4448 1363 3597 230 3091 
C 403 2950 595 2726 691 2554 
C 1626 3027 2541 3706 3232 4525 
C 3930 3763 4896 3034 5709 2611 
C 5811 2771 6022 3027 6176 3149 
C 5293 3533 4218 4269 3584 4960 
C 3629 5024 3674 5082 3712 5146 
L 3130 5421 
z
" transform="scale(0.015625)"/>
      <path id="NotoSansSC-Medium-39bf" d="M 1702 582 
L 1702 2208 
L 4717 2208 
L 4717 582 
L 1702 582 
z
M 4717 4358 
L 4717 2797 
L 1702 2797 
L 1702 4358 
L 4717 4358 
z
M 1094 4960 
L 1094 -435 
L 1702 -435 
L 1702 -19 
L 4717 -19 
L 4717 -410 
L 5350 -410 
L 5350 4960 
L 1094 4960 
z
" transform="scale(0.015625)"/>
      <path id="NotoSansSC-Medium-e" d="M 301 1536 
L 1990 1536 
L 1990 2080 
L 301 2080 
L 301 1536 
z
" transform="scale(0.015625)"/>
      <path id="NotoSansSC-Medium-17" d="M 1914 2406 
C 2419 2406 2694 2067 2694 1466 
C 2694 851 2368 480 1958 480 
C 1453 480 1114 922 1037 1856 
C 1318 2259 1645 2406 1914 2406 
z
M 1965 -83 
C 2733 -83 3373 531 3373 1466 
C 3373 2458 2842 2944 2048 2944 
C 1709 2944 1299 2739 1024 2400 
C 1056 3744 1555 4198 2157 4198 
C 2432 4198 2720 4051 2893 3846 
L 3296 4294 
C 3027 4576 2643 4800 2118 4800 
C 1190 4800 339 4077 339 2266 
C 339 666 1069 -83 1965 -83 
z
" transform="scale(0.015625)"/>
      <path id="NotoSansSC-Medium-6" d="M 1331 1818 
C 1990 1818 2438 2368 2438 3315 
C 2438 4262 1990 4800 1331 4800 
C 672 4800 230 4262 230 3315 
C 230 2368 672 1818 1331 1818 
z
M 1331 2253 
C 1005 2253 768 2592 768 3315 
C 768 4045 1005 4365 1331 4365 
C 1664 4365 1901 4045 1901 3315 
C 1901 2592 1664 2253 1331 2253 
z
M 1478 -83 
L 1946 -83 
L 4525 4800 
L 4058 4800 
L 1478 -83 
z
M 4678 -83 
C 5331 -83 5779 461 5779 1408 
C 5779 2355 5331 2893 4678 2893 
C 4019 2893 3571 2355 3571 1408 
C 3571 461 4019 -83 4678 -83 
z
M 4678 346 
C 4346 346 4115 685 4115 1408 
C 4115 2138 4346 2458 4678 2458 
C 5005 2458 5242 2138 5242 1408 
C 5242 685 5005 346 4678 346 
z
" transform="scale(0.015625)"/>
     </defs>
     <use xlink:href="#NotoSansSC-Medium-22c5"/>
     <use xlink:href="#NotoSansSC-Medium-39bf" transform="translate(100 0)"/>
     <use xlink:href="#NotoSansSC-Medium-1" transform="translate(200 0)"/>
     <use xlink:href="#NotoSansSC-Medium-e" transform="translate(222.5 0)"/>
     <use xlink:href="#NotoSansSC-Medium-11" transform="translate(258.203125 0)"/>
     <use xlink:href="#NotoSansSC-Medium-f" transform="translate(315.203125 0)"/>
     <use xlink:href="#NotoSansSC-Medium-17" transform="translate(345 0)"/>
     <use xlink:href="#NotoSansSC-Medium-6" transform="translate(402 0)"/>
    </g>
   </g>
   <g id="text_5">
    <!-- NYMEX -->
    <g style="fill: #94a3b8" transform="translate(295.479281 66.2688) scale(0.09 -0.09)">
     <defs>
      <path id="NotoSansSC-Medium-2f" d="M 621 0 
L 1325 0 
L 1325 2221 
C 1325 2733 1267 3277 1229 3763 
L 1261 3763 
L 1754 2778 
L 3315 0 
L 4077 0 
L 4077 4717 
L 3373 4717 
L 3373 2515 
C 3373 2003 3430 1434 3469 947 
L 3437 947 
L 2944 1946 
L 1382 4717 
L 621 4717 
L 621 0 
z
" transform="scale(0.015625)"/>
      <path id="NotoSansSC-Medium-3a" d="M 1395 0 
L 2138 0 
L 2138 1786 
L 3558 4717 
L 2784 4717 
L 2234 3462 
C 2093 3110 1939 2784 1786 2426 
L 1760 2426 
C 1600 2784 1466 3110 1318 3462 
L 774 4717 
L -19 4717 
L 1395 1786 
L 1395 0 
z
" transform="scale(0.015625)"/>
      <path id="NotoSansSC-Medium-2e" d="M 621 0 
L 1286 0 
L 1286 2330 
C 1286 2752 1229 3360 1197 3789 
L 1222 3789 
L 1594 2701 
L 2419 454 
L 2880 454 
L 3699 2701 
L 4077 3789 
L 4102 3789 
C 4064 3360 4006 2752 4006 2330 
L 4006 0 
L 4698 0 
L 4698 4717 
L 3840 4717 
L 2989 2330 
C 2880 2016 2790 1696 2682 1382 
L 2650 1382 
C 2541 1696 2445 2016 2336 2330 
L 1472 4717 
L 621 4717 
L 621 0 
z
" transform="scale(0.015625)"/>
      <path id="NotoSansSC-Medium-26" d="M 621 0 
L 3475 0 
L 3475 627 
L 1363 627 
L 1363 2150 
L 3091 2150 
L 3091 2778 
L 1363 2778 
L 1363 4090 
L 3405 4090 
L 3405 4717 
L 621 4717 
L 621 0 
z
" transform="scale(0.015625)"/>
      <path id="NotoSansSC-Medium-39" d="M 102 0 
L 890 0 
L 1491 1171 
C 1606 1414 1728 1651 1856 1939 
L 1882 1939 
C 2029 1651 2150 1414 2272 1171 
L 2893 0 
L 3718 0 
L 2362 2394 
L 3629 4717 
L 2848 4717 
L 2291 3610 
C 2182 3392 2093 3181 1971 2899 
L 1939 2899 
C 1798 3181 1696 3392 1581 3610 
L 1011 4717 
L 186 4717 
L 1453 2432 
L 102 0 
z
" transform="scale(0.015625)"/>
     </defs>
     <use xlink:href="#NotoSansSC-Medium-2f"/>
     <use xlink:href="#NotoSansSC-Medium-3a" transform="translate(73.40625 0)"/>
     <use xlink:href="#NotoSansSC-Medium-2e" transform="translate(128.703125 0)"/>
     <use xlink:href="#NotoSansSC-Medium-26" transform="translate(211.703125 0)"/>
     <use xlink:href="#NotoSansSC-Medium-39" transform="translate(271.703125 0)"/>
    </g>
   </g>
  </g>
  <g id="axes_2">
   <g id="patch_4">
    <path d="M 10.8 143.856 
L 325.296 143.856 
L 325.296 92.448 
L 10.8 92.448 
z
" style="fill: #ffffff"/>
   </g>
   <g id="patch_5">
    <path d="M 10.8 141.519273 
L 325.296 141.519273 
L 325.296 94.784727 
L 10.8 94.784727 
z
" clip-path="url(#p50392dab81)" style="fill: #bbf7d0; opacity: 0.3; stroke: #ffffff; stroke-width: 1.5; stroke-linejoin: miter"/>
   </g>
   <g id="patch_6">
    <path d="M 325.296 141.519273 
L 411.067636 141.519273 
L 411.067636 94.784727 
L 325.296 94.784727 
z
" clip-path="url(#p50392dab81)" style="fill: #fee2e2; opacity: 0.4; stroke: #ffffff; stroke-width: 1.5; stroke-linejoin: miter"/>
   </g>
   <g id="patch_7">
    <path d="M 10.8 141.519273 
L 67.981091 141.519273 
L 67.981091 94.784727 
L 10.8 94.784727 
z
" clip-path="url(#p50392dab81)" style="fill: #fef3c7; opacity: 0.5; stroke: #ffffff; stroke-width: 1.5; stroke-linejoin: miter"/>
   </g>
   <g id="matplotlib.axis_3"/>
   <g id="matplotlib.axis_4"/>
   <g id="text_6">
    <!-- 52周价格区间 -->
    <g style="fill: #1e293b" transform="translate(10.8 65.424) scale(0.11 -0.11)">
     <defs>
      <path id="NotoSansSC-Medium-16" d="M 1715 -83 
C 2541 -83 3302 506 3302 1549 
C 3302 2579 2656 3046 1869 3046 
C 1613 3046 1427 2982 1222 2880 
L 1331 4090 
L 3078 4090 
L 3078 4717 
L 691 4717 
L 550 2477 
L 909 2240 
C 1184 2419 1363 2509 1664 2509 
C 2202 2509 2560 2150 2560 1523 
C 2560 896 2157 518 1626 518 
C 1133 518 794 755 525 1024 
L 173 544 
C 506 218 973 -83 1715 -83 
z
" transform="scale(0.015625)"/>
      <path id="NotoSansSC-Medium-13" d="M 282 0 
L 3322 0 
L 3322 627 
L 2144 627 
C 1914 627 1619 608 1376 582 
C 2374 1536 3098 2477 3098 3386 
C 3098 4237 2541 4800 1677 4800 
C 1062 4800 646 4538 243 4096 
L 659 3686 
C 909 3974 1216 4211 1587 4211 
C 2118 4211 2387 3859 2387 3347 
C 2387 2573 1670 1658 282 429 
L 282 0 
z
" transform="scale(0.015625)"/>
      <path id="NotoSansSC-Medium-2859" d="M 1747 2912 
L 1747 2432 
L 4762 2432 
L 4762 2912 
L 3507 2912 
L 3507 3443 
L 4621 3443 
L 4621 3910 
L 3507 3910 
L 3507 4403 
L 2944 4403 
L 2944 3910 
L 1888 3910 
L 1888 3443 
L 2944 3443 
L 2944 2912 
L 1747 2912 
z
M 3923 1510 
L 3923 749 
L 2560 749 
L 2560 1510 
L 3923 1510 
z
M 4474 282 
L 4474 1971 
L 2022 1971 
L 2022 -77 
L 2560 -77 
L 2560 282 
L 4474 282 
z
M 5664 5062 
L 915 5062 
L 915 2944 
C 915 1997 851 730 211 -160 
C 346 -230 595 -429 698 -544 
C 1395 422 1504 1907 1504 2944 
L 1504 4506 
L 5069 4506 
L 5069 198 
C 5069 90 5030 51 4915 45 
C 4806 45 4416 38 4051 51 
C 4128 -90 4218 -352 4237 -499 
C 4800 -499 5146 -493 5363 -397 
C 5581 -307 5664 -141 5664 198 
L 5664 5062 
z
" transform="scale(0.015625)"/>
      <path id="NotoSansSC-Medium-22f2" d="M 1677 5363 
C 1350 4429 813 3501 237 2899 
C 339 2758 512 2438 563 2298 
C 723 2464 870 2662 1024 2867 
L 1024 -499 
L 1619 -499 
L 1619 3827 
C 1856 4269 2061 4730 2234 5197 
L 1677 5363 
z
M 2784 1997 
C 2784 1421 2714 480 1837 -134 
C 1990 -237 2182 -422 2285 -557 
C 3245 192 3386 1248 3386 1990 
L 3386 2854 
L 2784 2854 
L 2784 1997 
z
M 4550 -493 
L 5165 -493 
L 5165 2867 
L 4550 2867 
L 4550 -493 
z
M 3763 5389 
C 3456 4570 2784 3654 1651 3040 
C 1773 2931 1946 2707 2016 2554 
C 2906 3066 3533 3738 3968 4448 
C 4454 3712 5126 3040 5792 2643 
C 5888 2790 6074 3008 6208 3117 
C 5466 3501 4704 4243 4269 4986 
C 4314 5088 4358 5184 4390 5280 
L 3763 5389 
z
" transform="scale(0.015625)"/>
      <path id="NotoSansSC-Medium-3c13" d="M 3405 1837 
C 3731 2016 4038 2234 4320 2477 
C 4595 2240 4915 2016 5267 1837 
L 3405 1837 
z
M 3501 262 
L 3501 1331 
L 5082 1331 
L 5082 262 
L 3501 262 
z
M 2598 2317 
C 2477 2464 1978 3078 1805 3264 
L 1805 3482 
L 2355 3482 
L 2310 3443 
C 2445 3354 2675 3155 2771 3046 
C 2963 3219 3149 3418 3334 3642 
C 3494 3379 3686 3117 3917 2867 
C 3450 2470 2906 2163 2342 1965 
L 2598 2317 
z
M 4966 4179 
C 4794 3834 4570 3514 4307 3232 
C 4038 3507 3821 3802 3667 4090 
L 3725 4179 
L 4966 4179 
z
M 5344 4717 
L 5235 4691 
L 4019 4691 
C 4109 4864 4192 5043 4262 5222 
L 3693 5376 
C 3450 4736 3053 4134 2586 3686 
L 2586 4032 
L 1805 4032 
L 1805 5370 
L 1248 5370 
L 1248 4032 
L 346 4032 
L 346 3482 
L 1190 3482 
C 998 2656 602 1715 198 1184 
C 288 1050 435 819 486 653 
C 768 1037 1037 1632 1248 2266 
L 1248 -499 
L 1805 -499 
L 1805 2592 
C 1958 2362 2125 2106 2221 1926 
L 2182 1914 
C 2304 1792 2451 1574 2522 1434 
C 2669 1485 2810 1542 2950 1606 
L 2950 -506 
L 3501 -506 
L 3501 -256 
L 5082 -256 
L 5082 -486 
L 5658 -486 
L 5658 1658 
C 5728 1626 5798 1600 5869 1574 
C 5952 1722 6118 1958 6240 2074 
C 5645 2246 5133 2528 4717 2861 
C 5146 3328 5498 3885 5715 4544 
L 5344 4717 
z
" transform="scale(0.015625)"/>
      <path id="NotoSansSC-Medium-272f" d="M 1190 250 
L 1190 4486 
L 5914 4486 
L 5914 5056 
L 608 5056 
L 608 -320 
L 6074 -320 
L 6074 250 
L 1190 250 
z
M 5389 1062 
C 5056 1446 4557 1926 4006 2413 
C 4448 2906 4851 3437 5184 4000 
L 4627 4224 
C 4339 3718 3981 3238 3571 2790 
C 3072 3226 2554 3654 2099 4006 
L 1677 3654 
C 2150 3277 2669 2829 3174 2374 
C 2643 1862 2054 1414 1453 1075 
C 1587 973 1818 742 1920 627 
C 2496 992 3066 1453 3597 1990 
C 4134 1485 4608 1005 4915 627 
L 5389 1062 
z
" transform="scale(0.015625)"/>
      <path id="NotoSansSC-Medium-69a5" d="M 557 -506 
L 1171 -506 
L 1171 3898 
L 557 3898 
L 557 -506 
z
M 646 5018 
C 941 4730 1267 4320 1402 4058 
L 1907 4378 
C 1760 4646 1408 5037 1114 5299 
L 646 5018 
z
M 2502 1862 
L 3898 1862 
L 3898 1107 
L 2502 1107 
L 2502 1862 
z
M 2502 3085 
L 3898 3085 
L 3898 2342 
L 2502 2342 
L 2502 3085 
z
M 1965 627 
L 4454 627 
L 4454 3571 
L 1965 3571 
L 1965 627 
z
M 5875 5030 
L 2227 5030 
L 2227 4474 
L 5261 4474 
L 5261 173 
C 5261 90 5242 64 5152 58 
C 5082 58 4838 51 4595 64 
C 4666 -77 4749 -326 4774 -474 
C 5158 -474 5446 -467 5638 -371 
C 5818 -275 5875 -128 5875 173 
L 5875 5030 
z
" transform="scale(0.015625)"/>
     </defs>
     <use xlink:href="#NotoSansSC-Medium-16"/>
     <use xlink:href="#NotoSansSC-Medium-13" transform="translate(57 0)"/>
     <use xlink:href="#NotoSansSC-Medium-2859" transform="translate(114 0)"/>
     <use xlink:href="#NotoSansSC-Medium-22f2" transform="translate(214 0)"/>
     <use xlink:href="#NotoSansSC-Medium-3c13" transform="translate(314 0)"/>
     <use xlink:href="#NotoSansSC-Medium-272f" transform="translate(414 0)"/>
     <use xlink:href="#NotoSansSC-Medium-69a5" transform="translate(514 0)"/>
    </g>
   </g>
   <g id="patch_8">
    <path d="M 10.8 134.509091 
L 176.053353 134.509091 
L 176.053353 101.794909 
L 10.8 101.794909 
z
" clip-path="url(#p50392dab81)" style="fill: #1e293b; opacity: 0.9; stroke: #ffffff; stroke-width: 1.5; stroke-linejoin: miter"/>
   </g>
   <g id="text_7">
    <!-- 52周高 $104.1 -->
    <g style="fill: #dc2626" transform="translate(233.660252 60.963827) scale(0.09 -0.09)">
     <defs>
      <path id="NotoSansSC-Medium-6e85" d="M 3994 1062 
L 3994 570 
L 2355 570 
L 2355 1062 
L 3994 1062 
z
M 4518 141 
L 4518 1491 
L 1805 1491 
L 1805 -154 
L 2355 -154 
L 2355 141 
L 4518 141 
z
M 5805 2298 
L 602 2298 
L 602 -506 
L 1184 -506 
L 1184 1805 
L 5203 1805 
L 5203 83 
C 5203 6 5171 -19 5088 -19 
C 5018 -26 4698 -26 4429 -13 
C 4499 -141 4582 -320 4614 -454 
C 5043 -461 5338 -454 5536 -384 
C 5734 -307 5805 -198 5805 83 
L 5805 2298 
z
M 4525 3027 
L 1901 3027 
L 1901 3501 
L 4525 3501 
L 4525 3027 
z
M 1312 3917 
L 1312 2605 
L 5152 2605 
L 5152 3917 
L 1312 3917 
z
M 3610 4730 
C 3546 4934 3443 5190 3360 5395 
L 2758 5254 
C 2816 5094 2880 4902 2938 4730 
L 397 4730 
L 397 4224 
L 5978 4224 
L 5978 4730 
L 3610 4730 
z
" transform="scale(0.015625)"/>
      <path id="NotoSansSC-Medium-12" d="M 550 0 
L 3238 0 
L 3238 608 
L 2317 608 
L 2317 4717 
L 1760 4717 
C 1491 4544 1178 4435 736 4352 
L 736 3885 
L 1581 3885 
L 1581 608 
L 550 608 
L 550 0 
z
" transform="scale(0.015625)"/>
      <path id="NotoSansSC-Medium-15" d="M 870 1837 
L 1798 3258 
C 1933 3501 2061 3744 2176 3987 
L 2202 3987 
C 2189 3725 2170 3328 2170 3072 
L 2170 1837 
L 870 1837 
z
M 2170 0 
L 2861 0 
L 2861 1267 
L 3456 1267 
L 3456 1837 
L 2861 1837 
L 2861 4717 
L 2003 4717 
L 128 1760 
L 128 1267 
L 2170 1267 
L 2170 0 
z
" transform="scale(0.015625)"/>
     </defs>
     <use xlink:href="#NotoSansSC-Medium-16"/>
     <use xlink:href="#NotoSansSC-Medium-13" transform="translate(57 0)"/>
     <use xlink:href="#NotoSansSC-Medium-2859" transform="translate(114 0)"/>
     <use xlink:href="#NotoSansSC-Medium-6e85" transform="translate(214 0)"/>
     <use xlink:href="#NotoSansSC-Medium-1" transform="translate(314 0)"/>
     <use xlink:href="#NotoSansSC-Medium-5" transform="translate(336.5 0)"/>
     <use xlink:href="#NotoSansSC-Medium-12" transform="translate(393.5 0)"/>
     <use xlink:href="#NotoSansSC-Medium-11" transform="translate(450.5 0)"/>
     <use xlink:href="#NotoSansSC-Medium-15" transform="translate(507.5 0)"/>
     <use xlink:href="#NotoSansSC-Medium-f" transform="translate(564.5 0)"/>
     <use xlink:href="#NotoSansSC-Medium-12" transform="translate(594.296875 0)"/>
    </g>
   </g>
   <g id="text_8">
    <!-- 52周低 $68.5 -->
    <g style="fill: #16a34a" transform="translate(32.660568 60.963827) scale(0.09 -0.09)">
     <defs>
      <path id="NotoSansSC-Medium-2349" d="M 1645 5338 
C 1312 4371 762 3405 173 2778 
C 275 2630 442 2310 499 2170 
C 691 2381 883 2624 1062 2893 
L 1062 -499 
L 1632 -499 
L 1632 3866 
C 1850 4288 2048 4736 2208 5178 
L 1645 5338 
z
M 3667 877 
C 3872 461 4109 -83 4211 -416 
L 4659 -250 
C 4557 77 4301 614 4090 1011 
L 3667 877 
z
M 2957 2970 
L 2957 4237 
C 3360 4294 3763 4365 4166 4442 
C 4186 3923 4218 3437 4256 2970 
L 2957 2970 
z
M 6067 2413 
L 6067 2970 
L 4819 2970 
C 4774 3462 4749 4006 4730 4563 
C 5146 4659 5536 4762 5875 4883 
L 5389 5363 
C 4678 5088 3475 4838 2400 4691 
L 2406 4685 
L 2400 4685 
L 2400 352 
C 2400 102 2246 6 2144 -45 
C 2214 -160 2317 -397 2342 -538 
C 2464 -454 2650 -378 3763 -70 
C 3744 58 3738 288 3750 435 
L 2957 243 
L 2957 2413 
L 4307 2413 
C 4493 698 4864 -442 5549 -454 
C 5798 -454 6061 -192 6189 800 
C 6093 845 5862 998 5773 1114 
C 5728 563 5658 256 5549 256 
C 5267 269 5024 1146 4877 2413 
L 6067 2413 
z
" transform="scale(0.015625)"/>
     </defs>
     <use xlink:href="#NotoSansSC-Medium-16"/>
     <use xlink:href="#NotoSansSC-Medium-13" transform="translate(57 0)"/>
     <use xlink:href="#NotoSansSC-Medium-2859" transform="translate(114 0)"/>
     <use xlink:href="#NotoSansSC-Medium-2349" transform="translate(214 0)"/>
     <use xlink:href="#NotoSansSC-Medium-1" transform="translate(314 0)"/>
     <use xlink:href="#NotoSansSC-Medium-5" transform="translate(336.5 0)"/>
     <use xlink:href="#NotoSansSC-Medium-17" transform="translate(393.5 0)"/>
     <use xlink:href="#NotoSansSC-Medium-19" transform="translate(450.5 0)"/>
     <use xlink:href="#NotoSansSC-Medium-f" transform="translate(507.5 0)"/>
     <use xlink:href="#NotoSansSC-Medium-16" transform="translate(537.296875 0)"/>
    </g>
   </g>
   <g id="text_9">
    <!-- 当前 $88.90 -->
    <g style="fill: #1e293b" transform="translate(149.188509 202.274182) scale(0.1 -0.1)">
     <defs>
      <path id="NotoSansSC-Medium-3333" d="M 5024 5165 
C 4845 4666 4518 4000 4256 3578 
L 4781 3386 
C 5056 3789 5402 4403 5670 4954 
L 5024 5165 
z
M 2112 3667 
C 1978 4070 1645 4659 1299 5107 
L 762 4890 
C 1088 4442 1421 3827 1542 3418 
L 2112 3667 
z
M 3520 5370 
L 2874 5370 
L 2874 3149 
L 870 3149 
L 870 2554 
L 4947 2554 
L 4947 1773 
L 1088 1773 
L 1088 1203 
L 4947 1203 
L 4947 358 
L 742 358 
L 742 -237 
L 4947 -237 
L 4947 -506 
L 5581 -506 
L 5581 3149 
L 3520 3149 
L 3520 5370 
z
" transform="scale(0.015625)"/>
      <path id="NotoSansSC-Medium-2644" d="M 1286 1312 
L 1286 1856 
L 2554 1856 
L 2554 1312 
L 1286 1312 
z
M 2554 2835 
L 2554 2310 
L 1286 2310 
L 1286 2835 
L 2554 2835 
z
M 3123 3341 
L 730 3341 
L 730 -474 
L 1286 -474 
L 1286 858 
L 2554 858 
L 2554 134 
C 2554 51 2528 26 2438 19 
C 2362 13 2080 13 1798 26 
C 1875 -109 1958 -339 1997 -486 
C 2400 -486 2688 -480 2880 -384 
C 3066 -301 3123 -154 3123 122 
L 3123 3341 
z
M 5075 192 
C 5075 102 5043 77 4941 70 
C 4845 64 4499 64 4141 77 
C 4224 -70 4326 -326 4352 -486 
C 4832 -493 5165 -474 5376 -378 
C 5594 -288 5664 -128 5664 186 
L 5664 3462 
L 5075 3462 
L 5075 192 
z
M 4352 3283 
L 3802 3283 
L 3802 678 
L 4352 678 
L 4352 3283 
z
M 4653 4397 
C 4832 4640 5011 4922 5184 5197 
L 4538 5395 
C 4410 5094 4186 4698 3974 4397 
L 2131 4397 
L 2458 4518 
C 2349 4762 2080 5120 1843 5376 
L 1286 5184 
C 1485 4947 1709 4627 1818 4397 
L 352 4397 
L 352 3853 
L 6054 3853 
L 6054 4397 
L 4653 4397 
z
" transform="scale(0.015625)"/>
     </defs>
     <use xlink:href="#NotoSansSC-Medium-3333"/>
     <use xlink:href="#NotoSansSC-Medium-2644" transform="translate(100 0)"/>
     <use xlink:href="#NotoSansSC-Medium-1" transform="translate(200 0)"/>
     <use xlink:href="#NotoSansSC-Medium-5" transform="translate(222.5 0)"/>
     <use xlink:href="#NotoSansSC-Medium-19" transform="translate(279.5 0)"/>
     <use xlink:href="#NotoSansSC-Medium-19" transform="translate(336.5 0)"/>
     <use xlink:href="#NotoSansSC-Medium-f" transform="translate(393.5 0)"/>
     <use xlink:href="#NotoSansSC-Medium-1a" transform="translate(423.296875 0)"/>
     <use xlink:href="#NotoSansSC-Medium-11" transform="translate(480.296875 0)"/>
    </g>
   </g>
   <g id="text_10">
    <!-- 处于52周 57% 分位 -->
    <g style="fill: #64748b" transform="translate(240.984517 65.664) scale(0.09 -0.09)">
     <defs>
      <path id="NotoSansSC-Medium-2cea" d="M 4493 3213 
C 4883 2726 5280 2189 5485 1818 
L 6016 2144 
C 5734 2605 5146 3328 4672 3853 
L 4493 3744 
L 4493 5363 
L 3859 5363 
L 3859 672 
L 4493 672 
L 4493 3213 
z
M 2650 3821 
C 2534 3014 2349 2349 2086 1792 
C 1856 2195 1664 2694 1510 3328 
C 1568 3482 1619 3654 1670 3821 
L 2650 3821 
z
M 2918 4384 
L 2810 4365 
L 1818 4365 
C 1882 4640 1939 4928 1990 5210 
L 1370 5350 
C 1197 4102 813 2880 326 2234 
C 486 2150 704 1997 813 1894 
C 947 2080 1082 2310 1197 2560 
C 1363 2035 1549 1600 1773 1242 
C 1370 653 851 230 224 -58 
C 371 -154 614 -384 717 -518 
C 1274 -237 1760 160 2157 717 
C 2918 -141 3904 -339 4973 -339 
L 5952 -339 
C 5984 -173 6093 134 6189 288 
C 5914 282 5229 282 5005 282 
C 4070 282 3174 448 2477 1235 
C 2899 2010 3187 3008 3322 4275 
L 2918 4384 
z
" transform="scale(0.015625)"/>
      <path id="NotoSansSC-Medium-2289" d="M 6035 2874 
L 3578 2874 
L 3578 4346 
L 5600 4346 
L 5600 4934 
L 806 4934 
L 806 4346 
L 2950 4346 
L 2950 2874 
L 371 2874 
L 371 2285 
L 2950 2285 
L 2950 314 
C 2950 179 2893 141 2758 141 
C 2611 134 2125 128 1619 147 
C 1722 -19 1837 -301 1869 -480 
C 2509 -480 2950 -467 3213 -365 
C 3475 -269 3578 -90 3578 307 
L 3578 2285 
L 6035 2285 
L 6035 2874 
z
" transform="scale(0.015625)"/>
      <path id="NotoSansSC-Medium-18" d="M 1235 0 
L 1990 0 
C 2067 1843 2240 2886 3347 4262 
L 3347 4717 
L 314 4717 
L 314 4090 
L 2528 4090 
C 1619 2822 1318 1722 1235 0 
z
" transform="scale(0.015625)"/>
      <path id="NotoSansSC-Medium-25fd" d="M 3782 5050 
C 4128 4346 4640 3590 5152 3002 
L 1395 3002 
C 1907 3578 2362 4307 2675 5075 
L 2042 5261 
C 1677 4301 1030 3411 282 2874 
C 429 2765 678 2534 787 2406 
C 941 2534 1088 2675 1242 2835 
L 1242 2413 
L 2368 2413 
C 2234 1402 1882 474 422 -6 
C 557 -134 730 -371 794 -525 
C 2413 58 2829 1178 2995 2413 
L 4563 2413 
C 4493 954 4416 358 4269 211 
C 4205 147 4128 134 4006 134 
C 3853 134 3482 134 3098 166 
C 3206 0 3283 -256 3296 -429 
C 3686 -448 4064 -448 4282 -422 
C 4512 -403 4659 -346 4813 -173 
C 5024 77 5114 813 5197 2733 
C 5203 2784 5203 2874 5203 2944 
C 5363 2765 5517 2598 5677 2464 
C 5779 2624 5997 2848 6150 2970 
C 5491 3482 4723 4429 4333 5274 
L 3782 5050 
z
" transform="scale(0.015625)"/>
      <path id="NotoSansSC-Medium-2348" d="M 4480 4448 
C 4416 4723 4282 5120 4160 5434 
L 3597 5293 
C 3718 4973 3846 4550 3891 4282 
L 4480 4448 
z
M 5843 4250 
L 2355 4250 
L 2355 3674 
L 5843 3674 
L 5843 4250 
z
M 3750 742 
C 3686 1389 3488 2502 3290 3366 
L 2758 3245 
C 2938 2374 3110 1235 3162 570 
L 3750 742 
z
M 1773 5344 
C 1434 4410 864 3475 256 2880 
C 358 2739 531 2419 589 2278 
C 768 2464 947 2675 1114 2912 
L 1114 -493 
L 1715 -493 
L 1715 3846 
C 1952 4275 2170 4723 2336 5171 
L 1773 5344 
z
M 4870 326 
C 5101 1146 5344 2336 5517 3302 
L 4896 3405 
C 4787 2464 4550 1171 4320 326 
L 2099 326 
L 2099 -243 
L 6080 -243 
L 6080 326 
L 4870 326 
z
" transform="scale(0.015625)"/>
     </defs>
     <use xlink:href="#NotoSansSC-Medium-2cea"/>
     <use xlink:href="#NotoSansSC-Medium-2289" transform="translate(100 0)"/>
     <use xlink:href="#NotoSansSC-Medium-16" transform="translate(200 0)"/>
     <use xlink:href="#NotoSansSC-Medium-13" transform="translate(257 0)"/>
     <use xlink:href="#NotoSansSC-Medium-2859" transform="translate(314 0)"/>
     <use xlink:href="#NotoSansSC-Medium-1" transform="translate(414 0)"/>
     <use xlink:href="#NotoSansSC-Medium-16" transform="translate(436.5 0)"/>
     <use xlink:href="#NotoSansSC-Medium-18" transform="translate(493.5 0)"/>
     <use xlink:href="#NotoSansSC-Medium-6" transform="translate(550.5 0)"/>
     <use xlink:href="#NotoSansSC-Medium-1" transform="translate(644.40625 0)"/>
     <use xlink:href="#NotoSansSC-Medium-25fd" transform="translate(666.90625 0)"/>
     <use xlink:href="#NotoSansSC-Medium-2348" transform="translate(766.90625 0)"/>
    </g>
   </g>
   <g id="PathCollection_1">
    <defs>
     <path id="m9efe647f71" d="M -0 4.1833 
L 4.1833 -4.1833 
L -4.1833 -4.1833 
z
" style="stroke: #dc2626; stroke-width: 1.5"/>
    </defs>
    <g clip-path="url(#p50392dab81)">
     <use xlink:href="#m9efe647f71" x="262.968611" y="118.152" style="fill: #dc2626; stroke: #dc2626; stroke-width: 1.5"/>
    </g>
   </g>
   <g id="PathCollection_2">
    <defs>
     <path id="m69e2c82418" d="M 0 -4.1833 
L -4.1833 4.1833 
L 4.1833 4.1833 
z
" style="stroke: #16a34a; stroke-width: 1.5"/>
    </defs>
    <g clip-path="url(#p50392dab81)">
     <use xlink:href="#m69e2c82418" x="59.403927" y="118.152" style="fill: #16a34a; stroke: #16a34a; stroke-width: 1.5"/>
    </g>
   </g>
   <g id="line2d_1">
    <path d="M 176.053353 143.856 
L 176.053353 92.448 
" clip-path="url(#p50392dab81)" style="fill: none; stroke: #1e293b; stroke-opacity: 0.7; stroke-width: 2.5; stroke-linecap: square"/>
    <defs>
     <path id="m73168092ea" d="M 0 3 
C 0.795609 3 1.55874 2.683901 2.12132 2.12132 
C 2.683901 1.55874 3 0.795609 3 0 
C 3 -0.795609 2.683901 -1.55874 2.12132 -2.12132 
C 1.55874 -2.683901 0.795609 -3 0 -3 
C -0.795609 -3 -1.55874 -2.683901 -2.12132 -2.12132 
C -2.683901 -1.55874 -3 -0.795609 -3 0 
C -3 0.795609 -2.683901 1.55874 -2.12132 2.12132 
C -1.55874 2.683901 -0.795609 3 0 3 
z
" style="stroke: #1e293b; stroke-opacity: 0.7; stroke-width: 1.5"/>
    </defs>
    <g clip-path="url(#p50392dab81)">
     <use xlink:href="#m73168092ea" x="176.053353" y="143.856" style="fill: #1e293b; fill-opacity: 0.7; stroke: #1e293b; stroke-opacity: 0.7; stroke-width: 1.5"/>
     <use xlink:href="#m73168092ea" x="176.053353" y="92.448" style="fill: #1e293b; fill-opacity: 0.7; stroke: #1e293b; stroke-opacity: 0.7; stroke-width: 1.5"/>
    </g>
   </g>
  </g>
  <g id="axes_3">
   <g id="patch_9">
    <path d="M 10.8 198.288 
L 325.296 198.288 
L 325.296 152.928 
L 10.8 152.928 
z
" style="fill: #ffffff"/>
   </g>
   <g id="matplotlib.axis_5"/>
   <g id="matplotlib.axis_6"/>
   <g id="text_11">
    <!-- 关键价位 -->
    <g style="fill: #1e293b" transform="translate(10.8 162.948) scale(0.11 -0.11)">
     <defs>
      <path id="NotoSansSC-Medium-256e" d="M 5978 1850 
L 5978 2438 
L 3571 2438 
C 3578 2515 3578 2586 3578 2656 
L 3578 3456 
L 5638 3456 
L 5638 4045 
L 4461 4045 
C 4678 4371 4928 4774 5126 5139 
L 4486 5357 
C 4333 4954 4045 4429 3802 4045 
L 2157 4045 
L 2566 4269 
C 2445 4570 2170 5005 1901 5325 
L 1402 5075 
C 1638 4768 1888 4346 2010 4045 
L 851 4045 
L 851 3456 
L 2893 3456 
L 2893 2669 
C 2893 2598 2893 2522 2886 2438 
L 448 2438 
L 448 1850 
L 2765 1850 
C 2541 1210 1920 550 288 32 
C 454 -109 646 -358 730 -499 
C 2278 19 3002 691 3328 1382 
C 3859 480 4646 -154 5741 -467 
C 5837 -282 6022 -19 6163 122 
C 5024 384 4198 998 3712 1850 
L 5978 1850 
z
" transform="scale(0.015625)"/>
      <path id="NotoSansSC-Medium-68e0" d="M 5357 4461 
L 5357 4038 
L 4870 4038 
L 4870 4461 
L 5357 4461 
z
M 5357 3155 
L 4870 3155 
L 4870 3590 
L 5357 3590 
L 5357 3155 
z
M 4410 4038 
L 3533 4038 
L 3533 3590 
L 4410 3590 
L 4410 3155 
L 3718 3155 
L 3718 2739 
L 4410 2739 
L 4410 2330 
L 3699 2330 
L 3699 1875 
L 4410 1875 
L 4410 1434 
L 3546 1434 
L 3546 973 
L 4410 973 
L 4410 275 
L 4870 275 
L 4870 973 
L 6003 973 
L 6003 1434 
L 4870 1434 
L 4870 1875 
L 5869 1875 
L 5869 2330 
L 4870 2330 
L 4870 2739 
L 5779 2739 
L 5779 3590 
L 6157 3590 
L 6157 4038 
L 5779 4038 
L 5779 4883 
L 4870 4883 
L 4870 5344 
L 4410 5344 
L 4410 4883 
L 3718 4883 
L 3718 4461 
L 4410 4461 
L 4410 4038 
z
M 1523 582 
L 1523 1734 
L 2195 1734 
L 2195 2266 
L 1523 2266 
L 1523 3027 
L 2138 3027 
L 2138 3539 
L 698 3539 
C 838 3731 960 3942 1075 4173 
L 2150 4173 
L 2150 4710 
L 1318 4710 
C 1389 4883 1446 5069 1504 5248 
L 986 5389 
C 826 4774 531 4179 179 3782 
C 282 3667 448 3405 512 3302 
L 582 3386 
L 582 3027 
L 1030 3027 
L 1030 2266 
L 352 2266 
L 352 1734 
L 1030 1734 
L 1030 614 
C 1030 314 826 70 704 -19 
C 800 -115 960 -326 1011 -442 
C 1107 -314 1274 -186 2272 525 
C 2214 627 2138 832 2099 979 
L 1523 582 
z
M 3270 3181 
L 3181 3168 
L 2906 3168 
C 3155 3661 3411 4275 3610 4896 
L 3290 5101 
L 3136 5030 
L 2253 5030 
L 2253 4486 
L 2957 4486 
C 2784 3968 2573 3514 2496 3373 
C 2387 3168 2227 2982 2118 2957 
C 2189 2861 2317 2669 2362 2560 
C 2362 2598 2406 2643 2458 2682 
L 3066 2682 
C 3027 2227 2957 1824 2867 1472 
C 2784 1664 2707 1888 2650 2144 
L 2246 1990 
C 2362 1549 2496 1178 2662 877 
C 2470 416 2195 77 1862 -134 
C 1965 -243 2093 -422 2157 -557 
C 2496 -314 2771 -6 2976 410 
C 3526 -243 4256 -403 5101 -403 
L 6003 -403 
C 6035 -269 6106 -45 6176 83 
C 5946 77 5306 77 5133 77 
C 4371 83 3680 230 3187 890 
C 3386 1478 3507 2221 3558 3155 
L 3270 3181 
z
" transform="scale(0.015625)"/>
     </defs>
     <use xlink:href="#NotoSansSC-Medium-256e"/>
     <use xlink:href="#NotoSansSC-Medium-68e0" transform="translate(100 0)"/>
     <use xlink:href="#NotoSansSC-Medium-22f2" transform="translate(200 0)"/>
     <use xlink:href="#NotoSansSC-Medium-2348" transform="translate(300 0)"/>
    </g>
   </g>
   <g id="text_12">
    <!-- 阻力位 -->
    <g style="fill: #64748b" transform="translate(35.03952 179.028) scale(0.09 -0.09)">
     <defs>
      <path id="NotoSansSC-Medium-69ec" d="M 2176 5133 
L 2099 5107 
L 557 5107 
L 557 -486 
L 1114 -486 
L 1114 4576 
L 1875 4576 
C 1747 4160 1574 3616 1402 3194 
C 1856 2720 1965 2298 1971 1965 
C 1971 1773 1933 1613 1837 1549 
C 1786 1510 1715 1491 1632 1491 
C 1542 1485 1421 1485 1280 1498 
C 1363 1350 1414 1126 1421 979 
C 1568 979 1734 979 1862 992 
C 2003 1011 2118 1056 2221 1120 
C 2413 1261 2496 1530 2496 1907 
C 2490 2298 2387 2752 1926 3264 
C 2138 3757 2374 4378 2566 4909 
L 2176 5133 
z
M 3424 1344 
L 5043 1344 
L 5043 250 
L 3424 250 
L 3424 1344 
z
M 5043 4480 
L 5043 3475 
L 3424 3475 
L 3424 4480 
L 5043 4480 
z
M 5043 1882 
L 3424 1882 
L 3424 2938 
L 5043 2938 
L 5043 1882 
z
M 5632 250 
L 5632 5030 
L 2861 5030 
L 2861 250 
L 2176 250 
L 2176 -301 
L 6144 -301 
L 6144 250 
L 5632 250 
z
" transform="scale(0.015625)"/>
      <path id="NotoSansSC-Medium-2692" d="M 3181 4013 
L 3181 4173 
L 3181 5357 
L 2554 5357 
L 2554 4173 
L 2554 4013 
L 538 4013 
L 538 3405 
L 2522 3405 
C 2426 2253 2010 896 346 -58 
C 486 -166 710 -390 806 -538 
C 2624 538 3059 2086 3155 3405 
L 5158 3405 
C 5050 1312 4915 435 4698 230 
C 4621 154 4544 134 4403 134 
C 4243 134 3853 134 3430 173 
C 3546 -6 3629 -269 3642 -442 
C 4019 -461 4429 -467 4659 -442 
C 4909 -416 5075 -352 5248 -147 
C 5530 179 5651 1126 5792 3718 
C 5798 3802 5805 4013 5805 4013 
L 3181 4013 
z
" transform="scale(0.015625)"/>
     </defs>
     <use xlink:href="#NotoSansSC-Medium-69ec"/>
     <use xlink:href="#NotoSansSC-Medium-2692" transform="translate(100 0)"/>
     <use xlink:href="#NotoSansSC-Medium-2348" transform="translate(200 0)"/>
    </g>
   </g>
   <g id="text_13">
    <!-- $95 -->
    <g style="fill: #ef4444" transform="translate(38.27952 207.366188) scale(0.12 -0.12)">
     <use xlink:href="#NotoSansSC-Medium-5"/>
     <use xlink:href="#NotoSansSC-Medium-1a" transform="translate(57 0)"/>
     <use xlink:href="#NotoSansSC-Medium-16" transform="translate(114 0)"/>
    </g>
   </g>
   <g id="text_14">
    <!-- 当前价 -->
    <g style="fill: #64748b" transform="translate(104.22864 179.028) scale(0.09 -0.09)">
     <use xlink:href="#NotoSansSC-Medium-3333"/>
     <use xlink:href="#NotoSansSC-Medium-2644" transform="translate(100 0)"/>
     <use xlink:href="#NotoSansSC-Medium-22f2" transform="translate(200 0)"/>
    </g>
   </g>
   <g id="text_15">
    <!-- $88.90 -->
    <g style="fill: #1e293b" transform="translate(98.840827 207.366188) scale(0.12 -0.12)">
     <use xlink:href="#NotoSansSC-Medium-5"/>
     <use xlink:href="#NotoSansSC-Medium-19" transform="translate(57 0)"/>
     <use xlink:href="#NotoSansSC-Medium-19" transform="translate(114 0)"/>
     <use xlink:href="#NotoSansSC-Medium-f" transform="translate(171 0)"/>
     <use xlink:href="#NotoSansSC-Medium-1a" transform="translate(200.796875 0)"/>
     <use xlink:href="#NotoSansSC-Medium-11" transform="translate(257.796875 0)"/>
    </g>
   </g>
   <g id="text_16">
    <!-- 支撑位 -->
    <g style="fill: #64748b" transform="translate(173.41776 179.028) scale(0.09 -0.09)">
     <defs>
      <path id="NotoSansSC-Medium-390a" d="M 4538 2406 
C 4230 1843 3776 1402 3226 1050 
C 2675 1408 2240 1862 1939 2406 
L 4538 2406 
z
M 4992 3014 
L 4883 2989 
L 3488 2989 
L 3488 3866 
L 5875 3866 
L 5875 4454 
L 3488 4454 
L 3488 5363 
L 2874 5363 
L 2874 4454 
L 506 4454 
L 506 3866 
L 2874 3866 
L 2874 2989 
L 800 2989 
L 800 2406 
L 1542 2406 
L 1318 2323 
C 1651 1683 2093 1152 2637 730 
C 1926 403 1107 192 224 64 
C 339 -70 499 -346 544 -506 
C 1504 -333 2413 -64 3200 358 
C 3910 -51 4762 -320 5779 -467 
C 5856 -294 6022 -32 6150 109 
C 5248 218 4461 422 3802 736 
C 4506 1242 5062 1907 5408 2771 
L 4992 3014 
z
" transform="scale(0.015625)"/>
      <path id="NotoSansSC-Medium-386c" d="M 2746 4128 
L 5466 4128 
L 5466 3539 
L 6010 3539 
L 6010 4563 
L 5293 4563 
C 5421 4717 5581 4902 5728 5107 
L 5146 5286 
C 5069 5107 4915 4845 4794 4678 
L 5094 4563 
L 4384 4563 
L 4384 5363 
L 3821 5363 
L 3821 4563 
L 3232 4563 
L 3469 4672 
C 3386 4845 3219 5101 3040 5299 
L 2560 5101 
C 2682 4941 2816 4730 2906 4563 
L 2221 4563 
L 2221 3539 
L 2746 3539 
L 2746 4128 
z
M 3283 3469 
L 4909 3469 
L 4909 3072 
L 3283 3072 
L 3283 3469 
z
M 5446 2701 
L 5446 3840 
L 2771 3840 
L 2771 2701 
L 5446 2701 
z
M 2214 2163 
L 2138 2707 
C 1933 2643 1734 2586 1536 2528 
L 1536 3571 
L 2099 3571 
L 2099 4122 
L 1536 4122 
L 1536 5363 
L 986 5363 
L 986 4122 
L 269 4122 
L 269 3571 
L 986 3571 
L 986 2368 
C 685 2278 410 2208 186 2144 
L 326 1574 
C 525 1638 755 1709 986 1779 
L 986 154 
C 986 70 954 45 870 38 
C 800 38 563 38 307 45 
C 384 -109 454 -365 474 -512 
C 877 -512 1133 -493 1306 -397 
C 1478 -307 1536 -141 1536 154 
L 1536 1952 
L 2214 2163 
z
M 6150 922 
L 4429 922 
L 4429 1280 
L 5888 1280 
L 5888 1690 
L 4429 1690 
L 4429 2042 
C 4922 2080 5376 2138 5747 2208 
L 5421 2579 
C 4717 2451 3456 2381 2413 2362 
C 2464 2253 2522 2080 2534 1971 
C 2944 1971 3392 1984 3840 2003 
L 3840 1690 
L 2310 1690 
L 2310 1280 
L 3840 1280 
L 3840 922 
L 2067 922 
L 2067 499 
L 3840 499 
L 3840 70 
C 3840 -13 3808 -45 3699 -45 
C 3610 -51 3238 -51 2893 -38 
C 2963 -173 3053 -358 3085 -506 
C 3584 -506 3917 -506 4134 -429 
C 4352 -358 4429 -237 4429 58 
L 4429 499 
L 6150 499 
L 6150 922 
z
" transform="scale(0.015625)"/>
     </defs>
     <use xlink:href="#NotoSansSC-Medium-390a"/>
     <use xlink:href="#NotoSansSC-Medium-386c" transform="translate(100 0)"/>
     <use xlink:href="#NotoSansSC-Medium-2348" transform="translate(200 0)"/>
    </g>
   </g>
   <g id="text_17">
    <!-- $88 -->
    <g style="fill: #16a34a" transform="translate(176.65776 207.366188) scale(0.12 -0.12)">
     <use xlink:href="#NotoSansSC-Medium-5"/>
     <use xlink:href="#NotoSansSC-Medium-19" transform="translate(57 0)"/>
     <use xlink:href="#NotoSansSC-Medium-19" transform="translate(114 0)"/>
    </g>
   </g>
   <g id="text_18">
    <!-- 强支撑 -->
    <g style="fill: #64748b" transform="translate(242.60688 179.028) scale(0.09 -0.09)">
     <defs>
      <path id="NotoSansSC-Medium-331a" d="M 390 4499 
L 1837 4499 
L 1837 3629 
L 544 3629 
C 493 2989 390 2157 301 1638 
L 1773 1638 
C 1709 646 1638 237 1523 122 
C 1466 58 1402 51 1306 51 
C 1190 51 928 51 659 77 
C 749 -77 813 -307 819 -467 
C 1120 -480 1402 -480 1568 -461 
C 1760 -442 1894 -390 2016 -256 
C 2195 -51 2285 512 2368 1933 
C 2381 2010 2387 2170 2387 2170 
L 915 2170 
C 954 2458 986 2771 1018 3091 
L 2387 3091 
L 2387 5037 
L 390 5037 
L 390 4499 
z
M 3258 1600 
L 3258 2400 
L 3974 2400 
L 3974 1600 
L 3258 1600 
z
M 5267 2400 
L 5267 1600 
L 4538 1600 
L 4538 2400 
L 5267 2400 
z
M 3418 4544 
L 5062 4544 
L 5062 3878 
L 3418 3878 
L 3418 4544 
z
M 6176 -339 
C 6061 45 5734 627 5427 1069 
L 4941 877 
C 5043 723 5152 550 5242 378 
L 4538 333 
L 4538 1120 
L 5805 1120 
L 5805 2880 
L 4538 2880 
L 4538 3386 
L 5626 3386 
L 5626 5037 
L 2874 5037 
L 2874 3386 
L 3974 3386 
L 3974 2880 
L 2739 2880 
L 2739 1120 
L 3974 1120 
L 3974 301 
C 3398 269 2867 243 2458 224 
L 2534 -358 
C 3328 -307 4435 -230 5504 -141 
C 5574 -301 5632 -442 5664 -570 
L 6176 -339 
z
" transform="scale(0.015625)"/>
     </defs>
     <use xlink:href="#NotoSansSC-Medium-331a"/>
     <use xlink:href="#NotoSansSC-Medium-390a" transform="translate(100 0)"/>
     <use xlink:href="#NotoSansSC-Medium-386c" transform="translate(200 0)"/>
    </g>
   </g>
   <g id="text_19">
    <!-- $85 -->
    <g style="fill: #059669" transform="translate(245.84688 207.366188) scale(0.12 -0.12)">
     <use xlink:href="#NotoSansSC-Medium-5"/>
     <use xlink:href="#NotoSansSC-Medium-19" transform="translate(57 0)"/>
     <use xlink:href="#NotoSansSC-Medium-16" transform="translate(114 0)"/>
    </g>
   </g>
  </g>
  <g id="axes_4">
   <g id="patch_10">
    <path d="M 10.8 279.936 
L 325.296 279.936 
L 325.296 207.36 
L 10.8 207.36 
z
" style="fill: #ffffff"/>
   </g>
   <g id="patch_11">
    <path d="M 17.08992 279.936 
L 89.424 279.936 
L 89.424 214.6176 
L 17.08992 214.6176 
z
" clip-path="url(#p980216bab2)" style="fill: #f8f9fa; stroke: #e2e8f0; stroke-width: 0.8; stroke-linejoin: miter"/>
   </g>
   <g id="patch_12">
    <path d="M 94.14144 279.936 
L 166.47552 279.936 
L 166.47552 214.6176 
L 94.14144 214.6176 
z
" clip-path="url(#p980216bab2)" style="fill: #f8f9fa; stroke: #e2e8f0; stroke-width: 0.8; stroke-linejoin: miter"/>
   </g>
   <g id="patch_13">
    <path d="M 171.19296 279.936 
L 243.52704 279.936 
L 243.52704 214.6176 
L 171.19296 214.6176 
z
" clip-path="url(#p980216bab2)" style="fill: #f8f9fa; stroke: #e2e8f0; stroke-width: 0.8; stroke-linejoin: miter"/>
   </g>
   <g id="patch_14">
    <path d="M 248.24448 279.936 
L 320.57856 279.936 
L 320.57856 214.6176 
L 248.24448 214.6176 
z
" clip-path="url(#p980216bab2)" style="fill: #f8f9fa; stroke: #e2e8f0; stroke-width: 0.8; stroke-linejoin: miter"/>
   </g>
   <g id="matplotlib.axis_7"/>
   <g id="matplotlib.axis_8"/>
   <g id="text_20">
    <!-- 供需基本面 -->
    <g style="fill: #1e293b" transform="translate(10.8 216.9264) scale(0.11 -0.11)">
     <defs>
      <path id="NotoSansSC-Medium-2396" d="M 1670 5357 
C 1325 4416 755 3488 154 2893 
C 250 2752 422 2432 480 2285 
C 659 2477 838 2694 1011 2931 
L 1011 -499 
L 1594 -499 
L 1594 3846 
C 1837 4269 2054 4730 2227 5178 
L 1670 5357 
z
M 3085 1165 
C 2816 691 2381 205 1933 -109 
C 2067 -198 2298 -378 2406 -486 
C 2842 -128 3334 429 3648 986 
L 3085 1165 
z
M 4499 890 
C 4915 467 5370 -115 5581 -506 
L 6080 -186 
C 5856 192 5395 742 4979 1152 
L 4499 890 
z
M 3520 3494 
L 4621 3494 
L 4621 2054 
L 3520 2054 
L 3520 3494 
z
M 5203 2054 
L 5203 3494 
L 6074 3494 
L 6074 4064 
L 5203 4064 
L 5203 5318 
L 4621 5318 
L 4621 4064 
L 3520 4064 
L 3520 5306 
L 2938 5306 
L 2938 4064 
L 2170 4064 
L 2170 3494 
L 2938 3494 
L 2938 2054 
L 2016 2054 
L 2016 1472 
L 6138 1472 
L 6138 2054 
L 5203 2054 
z
" transform="scale(0.015625)"/>
      <path id="NotoSansSC-Medium-6ab0" d="M 1005 3949 
L 2899 3949 
L 2899 2502 
L 3469 2502 
L 3469 3949 
L 5382 3949 
L 5382 3130 
L 5933 3130 
L 5933 4358 
L 3469 4358 
L 3469 4672 
L 5523 4672 
L 5523 5139 
L 864 5139 
L 864 4672 
L 2899 4672 
L 2899 4358 
L 474 4358 
L 474 3130 
L 1005 3130 
L 1005 3949 
z
M 3750 2624 
L 5261 2624 
L 5261 3002 
L 3750 3002 
L 3750 2624 
z
M 3750 3654 
L 3750 3283 
L 5114 3283 
L 5114 3654 
L 3750 3654 
z
M 2618 3654 
L 1280 3654 
L 1280 3283 
L 2618 3283 
L 2618 3654 
z
M 1146 2624 
L 2618 2624 
L 2618 3002 
L 1146 3002 
L 1146 2624 
z
M 5997 1837 
L 5997 2310 
L 422 2310 
L 422 1837 
L 2848 1837 
C 2816 1709 2778 1574 2739 1446 
L 902 1446 
L 902 -486 
L 1472 -486 
L 1472 973 
L 2278 973 
L 2278 -448 
L 2822 -448 
L 2822 973 
L 3667 973 
L 3667 -448 
L 4211 -448 
L 4211 973 
L 5075 973 
L 5075 70 
C 5075 13 5056 -6 4986 -13 
C 4922 -13 4710 -13 4480 -6 
C 4557 -141 4634 -352 4659 -499 
C 4998 -499 5248 -493 5427 -416 
C 5606 -326 5645 -192 5645 64 
L 5645 1446 
L 3309 1446 
C 3360 1568 3411 1702 3456 1837 
L 5997 1837 
z
" transform="scale(0.015625)"/>
      <path id="NotoSansSC-Medium-2be4" d="M 2125 2726 
L 4301 2726 
L 4301 2342 
L 2125 2342 
L 2125 2726 
z
M 4301 4320 
L 4301 3962 
L 2125 3962 
L 2125 4320 
L 4301 4320 
z
M 2125 3526 
L 4301 3526 
L 4301 3162 
L 2125 3162 
L 2125 3526 
z
M 6112 1850 
L 6112 2342 
L 4909 2342 
L 4909 4320 
L 5824 4320 
L 5824 4806 
L 4909 4806 
L 4909 5357 
L 4301 5357 
L 4301 4806 
L 2125 4806 
L 2125 5363 
L 1530 5363 
L 1530 4806 
L 602 4806 
L 602 4320 
L 1530 4320 
L 1530 2342 
L 288 2342 
L 288 1850 
L 1606 1850 
C 1242 1453 730 1094 224 902 
C 352 800 525 589 608 448 
C 973 621 1344 864 1664 1152 
L 1664 730 
L 2886 730 
L 2886 160 
L 819 160 
L 819 -333 
L 5638 -333 
L 5638 160 
L 3488 160 
L 3488 730 
L 4755 730 
L 4755 1203 
L 3488 1203 
L 3488 1683 
L 2886 1683 
L 2886 1203 
L 1715 1203 
C 1926 1402 2125 1626 2278 1850 
L 4186 1850 
C 4576 1293 5190 787 5805 518 
C 5888 659 6067 870 6189 979 
C 5696 1152 5197 1478 4838 1850 
L 6112 1850 
z
" transform="scale(0.015625)"/>
      <path id="NotoSansSC-Medium-3b03" d="M 3507 1235 
L 3507 3475 
L 3578 3475 
C 3891 2643 4339 1850 4877 1235 
L 3507 1235 
z
M 1485 1235 
C 2029 1850 2483 2637 2797 3475 
L 2880 3475 
L 2880 1235 
L 1485 1235 
z
M 5990 3475 
L 5990 4077 
L 3507 4077 
L 3507 5370 
L 2880 5370 
L 2880 4077 
L 429 4077 
L 429 3475 
L 2195 3475 
C 1760 2445 1037 1472 230 960 
C 378 838 570 627 672 474 
C 947 678 1210 922 1466 1203 
L 1466 634 
L 2880 634 
L 2880 -499 
L 3507 -499 
L 3507 634 
L 4922 634 
L 4922 1190 
C 5158 922 5421 685 5696 493 
C 5798 666 6016 896 6163 1018 
C 5344 1517 4614 2464 4173 3475 
L 5990 3475 
z
" transform="scale(0.015625)"/>
      <path id="NotoSansSC-Medium-6b11" d="M 5133 371 
L 4294 371 
L 4294 3162 
L 5133 3162 
L 5133 371 
z
M 1235 3162 
L 2035 3162 
L 2035 371 
L 1235 371 
L 1235 3162 
z
M 3757 2560 
L 2566 2560 
L 2566 3162 
L 3757 3162 
L 3757 2560 
z
M 2566 1005 
L 3757 1005 
L 3757 371 
L 2566 371 
L 2566 1005 
z
M 3757 1478 
L 2566 1478 
L 2566 2086 
L 3757 2086 
L 3757 1478 
z
M 6042 4410 
L 6042 4973 
L 384 4973 
L 384 4410 
L 2771 4410 
C 2733 4179 2682 3923 2630 3706 
L 659 3706 
L 659 -512 
L 1235 -512 
L 1235 -179 
L 5133 -179 
L 5133 -512 
L 5741 -512 
L 5741 3706 
L 3245 3706 
C 3309 3923 3386 4173 3462 4410 
L 6042 4410 
z
" transform="scale(0.015625)"/>
     </defs>
     <use xlink:href="#NotoSansSC-Medium-2396"/>
     <use xlink:href="#NotoSansSC-Medium-6ab0" transform="translate(100 0)"/>
     <use xlink:href="#NotoSansSC-Medium-2be4" transform="translate(200 0)"/>
     <use xlink:href="#NotoSansSC-Medium-3b03" transform="translate(300 0)"/>
     <use xlink:href="#NotoSansSC-Medium-6b11" transform="translate(400 0)"/>
    </g>
   </g>
   <g id="text_21">
    <!-- 全球供应缺口 -->
    <g style="fill: #64748b" transform="translate(26.25696 232.5528) scale(0.09 -0.09)">
     <defs>
      <path id="NotoSansSC-Medium-2563" d="M 1446 3053 
C 2093 3482 2707 4000 3194 4582 
C 3750 3968 4339 3482 4979 3053 
L 1446 3053 
z
M 5158 2528 
L 5158 2931 
C 5376 2790 5606 2656 5843 2522 
C 5926 2701 6099 2906 6246 3034 
C 5222 3533 4307 4147 3533 5018 
C 3571 5075 3610 5126 3648 5184 
L 3117 5434 
C 2483 4435 1325 3546 173 3046 
C 326 2912 493 2707 582 2554 
C 813 2669 1050 2797 1274 2938 
L 1274 2528 
L 2886 2528 
L 2886 1638 
L 1338 1638 
L 1338 1120 
L 2886 1120 
L 2886 192 
L 512 192 
L 512 -339 
L 5926 -339 
L 5926 192 
L 3514 192 
L 3514 1120 
L 5133 1120 
L 5133 1638 
L 3514 1638 
L 3514 2528 
L 5158 2528 
z
" transform="scale(0.015625)"/>
      <path id="NotoSansSC-Medium-47ca" d="M 5862 4659 
C 5702 4851 5370 5126 5094 5312 
L 4762 5005 
C 5030 4806 5350 4512 5504 4307 
L 5862 4659 
z
M 5542 3437 
C 5350 3104 5050 2688 4774 2349 
C 4666 2682 4576 3053 4506 3488 
L 4506 3750 
L 6125 3750 
L 6125 4301 
L 4506 4301 
L 4506 5363 
L 3930 5363 
L 3930 4301 
L 2413 4301 
L 2413 3750 
L 3930 3750 
L 3930 2144 
C 3386 1677 2803 1184 2381 845 
L 2304 1318 
L 1574 1094 
L 1574 2592 
L 2176 2592 
L 2176 3142 
L 1574 3142 
L 1574 4416 
L 2272 4416 
L 2272 4966 
L 294 4966 
L 294 4416 
L 1024 4416 
L 1024 3142 
L 339 3142 
L 339 2592 
L 1024 2592 
L 1024 928 
C 723 838 442 755 218 698 
L 346 128 
C 883 294 1574 512 2234 730 
L 2144 659 
L 2509 141 
C 2931 525 3437 1005 3930 1498 
L 3930 192 
C 3930 90 3891 58 3789 51 
C 3693 51 3386 45 3040 58 
C 3117 -96 3219 -358 3245 -512 
C 3738 -512 4038 -493 4237 -390 
C 4429 -294 4506 -128 4506 192 
L 4506 1619 
C 4806 947 5235 429 5862 -45 
C 5926 122 6093 307 6227 416 
C 5651 819 5261 1261 4979 1850 
C 5312 2195 5722 2720 6061 3168 
L 5542 3437 
z
M 2483 3194 
C 2746 2829 3021 2342 3117 2022 
L 3610 2259 
C 3501 2573 3213 3046 2944 3398 
L 2483 3194 
z
" transform="scale(0.015625)"/>
      <path id="NotoSansSC-Medium-3274" d="M 6029 4026 
L 6029 4589 
L 3923 4589 
C 3840 4832 3693 5158 3552 5427 
L 2963 5280 
C 3066 5069 3168 4813 3251 4589 
L 768 4589 
L 768 2867 
C 768 1965 723 678 243 -218 
C 384 -275 653 -448 762 -557 
C 1286 410 1370 1882 1370 2867 
L 1370 4026 
L 6029 4026 
z
M 4109 1485 
C 4013 2074 3776 2950 3558 3642 
L 3014 3501 
C 3219 2810 3450 1907 3533 1318 
L 4109 1485 
z
M 2931 1178 
C 2790 1766 2490 2643 2208 3328 
L 1690 3130 
C 1946 2438 2253 1536 2374 941 
L 2931 1178 
z
M 4448 339 
C 5018 1299 5485 2419 5786 3456 
L 5158 3674 
C 4915 2592 4442 1306 3827 339 
L 1376 339 
L 1376 -224 
L 6106 -224 
L 6106 339 
L 4448 339 
z
" transform="scale(0.015625)"/>
      <path id="NotoSansSC-Medium-52fb" d="M 2323 710 
L 1888 659 
L 1888 2554 
L 2899 2554 
L 2899 3078 
L 1888 3078 
L 1888 4134 
L 2778 4134 
L 2778 4653 
L 1184 4653 
C 1248 4858 1299 5069 1344 5274 
L 832 5376 
C 710 4710 486 4019 192 3571 
C 320 3514 544 3386 646 3309 
C 774 3539 909 3821 1024 4134 
L 1363 4134 
L 1363 3078 
L 294 3078 
L 294 2554 
L 1363 2554 
L 1363 595 
L 934 550 
L 934 2150 
L 467 2150 
L 467 0 
C 998 77 1645 166 2323 275 
L 2323 -58 
L 2790 -58 
L 2790 2157 
L 2323 2157 
L 2323 710 
z
M 4589 3757 
L 5152 3757 
L 5152 2483 
L 4576 2483 
C 4582 2688 4589 2893 4589 3098 
L 4589 3757 
z
M 6054 1933 
L 6054 2483 
L 5709 2483 
L 5709 4314 
L 4589 4314 
L 4589 5370 
L 4019 5370 
L 4019 4314 
L 3162 4314 
L 3162 3757 
L 4019 3757 
L 4019 3098 
C 4019 2893 4013 2688 4000 2483 
L 3021 2483 
L 3021 1933 
L 3942 1933 
C 3834 1184 3539 480 2822 -83 
C 2963 -179 3181 -384 3270 -512 
C 3949 38 4282 710 4448 1434 
C 4736 602 5171 -83 5786 -493 
C 5875 -333 6074 -109 6208 13 
C 5568 384 5114 1107 4858 1933 
L 6054 1933 
z
" transform="scale(0.015625)"/>
      <path id="NotoSansSC-Medium-27d4" d="M 1402 774 
L 1402 4128 
L 4986 4128 
L 4986 774 
L 1402 774 
z
M 787 4730 
L 787 -365 
L 1402 -365 
L 1402 166 
L 4986 166 
L 4986 -339 
L 5632 -339 
L 5632 4730 
L 787 4730 
z
" transform="scale(0.015625)"/>
     </defs>
     <use xlink:href="#NotoSansSC-Medium-2563"/>
     <use xlink:href="#NotoSansSC-Medium-47ca" transform="translate(100 0)"/>
     <use xlink:href="#NotoSansSC-Medium-2396" transform="translate(200 0)"/>
     <use xlink:href="#NotoSansSC-Medium-3274" transform="translate(300 0)"/>
     <use xlink:href="#NotoSansSC-Medium-52fb" transform="translate(400 0)"/>
     <use xlink:href="#NotoSansSC-Medium-27d4" transform="translate(500 0)"/>
    </g>
   </g>
   <g id="text_22">
    <!-- ~700万桶/日 -->
    <g style="fill: #dc2626" transform="translate(24.90696 265.292) scale(0.1 -0.1)">
     <defs>
      <path id="NotoSansSC-Medium-5f" d="M 2451 1811 
C 2771 1811 3110 2010 3405 2483 
L 3002 2784 
C 2842 2483 2669 2349 2464 2349 
C 2061 2349 1773 2938 1197 2938 
C 870 2938 531 2746 243 2259 
L 640 1971 
C 800 2266 979 2400 1184 2400 
C 1587 2400 1875 1811 2451 1811 
z
" transform="scale(0.015625)"/>
      <path id="NotoSansSC-Medium-2202" d="M 5984 4326 
L 5984 4909 
L 422 4909 
L 422 4326 
L 2042 4326 
C 1990 2733 1920 890 211 -32 
C 365 -154 557 -352 640 -512 
C 1869 192 2330 1338 2515 2566 
L 4787 2566 
C 4704 1011 4608 339 4422 179 
C 4346 109 4269 96 4122 102 
C 3949 102 3494 102 3040 141 
C 3149 -26 3232 -269 3245 -442 
C 3680 -467 4115 -474 4358 -448 
C 4627 -422 4800 -371 4960 -186 
C 5210 90 5318 858 5427 2867 
C 5434 2950 5434 3142 5434 3142 
L 2592 3142 
C 2630 3539 2643 3936 2656 4326 
L 5984 4326 
z
" transform="scale(0.015625)"/>
     </defs>
     <use xlink:href="#NotoSansSC-Medium-5f"/>
     <use xlink:href="#NotoSansSC-Medium-18" transform="translate(57 0)"/>
     <use xlink:href="#NotoSansSC-Medium-11" transform="translate(114 0)"/>
     <use xlink:href="#NotoSansSC-Medium-11" transform="translate(171 0)"/>
     <use xlink:href="#NotoSansSC-Medium-2202" transform="translate(228 0)"/>
     <use xlink:href="#NotoSansSC-Medium-3c4d" transform="translate(328 0)"/>
     <use xlink:href="#NotoSansSC-Medium-10" transform="translate(428 0)"/>
     <use xlink:href="#NotoSansSC-Medium-39bf" transform="translate(467 0)"/>
    </g>
   </g>
   <g id="text_23">
    <!-- ↑ -->
    <g style="fill: #dc2626" transform="translate(26.81472 273.6096) scale(0.12 -0.12)">
     <defs>
      <path id="NotoSansSC-Medium-216" d="M 2931 4243 
L 2931 -512 
L 3469 -512 
L 3469 4243 
C 3693 3936 4077 3552 4442 3290 
L 4704 3757 
C 4141 4192 3571 4832 3200 5408 
C 2829 4832 2259 4192 1696 3757 
L 1958 3290 
C 2323 3552 2707 3936 2931 4243 
z
" transform="scale(0.015625)"/>
     </defs>
     <use xlink:href="#NotoSansSC-Medium-216"/>
    </g>
   </g>
   <g id="text_24">
    <!-- 美油库存 -->
    <g style="fill: #64748b" transform="translate(112.30848 232.5528) scale(0.09 -0.09)">
     <defs>
      <path id="NotoSansSC-Medium-3273" d="M 4326 1581 
L 5658 1581 
L 5664 2112 
L 4326 2112 
L 4326 2720 
L 3738 2720 
L 3738 2112 
L 2682 2112 
C 2854 2374 3034 2669 3200 2982 
L 5837 2982 
L 5837 3520 
L 3475 3520 
C 3539 3654 3590 3795 3648 3923 
L 3027 4128 
C 2970 3923 2886 3718 2803 3520 
L 1702 3520 
L 1702 2982 
L 2554 2982 
C 2419 2720 2304 2522 2246 2432 
C 2112 2227 2010 2093 1888 2061 
C 1958 1907 2061 1613 2093 1491 
C 2144 1549 2394 1581 2701 1581 
L 3738 1581 
L 3738 947 
L 1530 947 
L 1530 403 
L 3738 403 
L 3738 -499 
L 4326 -499 
L 4326 403 
L 6080 403 
L 6080 947 
L 4326 947 
L 4326 1581 
z
M 3898 4749 
C 3827 4947 3699 5197 3578 5382 
L 2989 5242 
C 3072 5094 3162 4909 3226 4749 
L 774 4749 
L 774 2938 
C 774 2010 730 717 211 -186 
C 346 -250 614 -422 710 -531 
C 1280 442 1363 1939 1363 2938 
L 1363 4192 
L 6080 4192 
L 6080 4749 
L 3898 4749 
z
" transform="scale(0.015625)"/>
      <path id="NotoSansSC-Medium-2f3d" d="M 5997 3968 
L 5997 4538 
L 2816 4538 
C 2893 4762 2976 4998 3046 5222 
L 2432 5370 
C 2355 5094 2266 4813 2163 4538 
L 410 4538 
L 410 3968 
L 1914 3968 
C 1510 3142 941 2374 198 1875 
C 294 1734 429 1478 493 1318 
C 736 1485 966 1677 1178 1888 
L 1178 -499 
L 1779 -499 
L 1779 2592 
C 2093 3014 2355 3488 2573 3968 
L 5997 3968 
z
M 6106 1734 
L 4493 1734 
L 4493 2048 
C 4941 2336 5402 2720 5734 3085 
L 5357 3386 
L 5235 3354 
L 2714 3354 
L 2714 2816 
L 4685 2816 
C 4442 2598 4154 2374 3891 2221 
L 3891 1734 
L 2195 1734 
L 2195 1178 
L 3891 1178 
L 3891 166 
C 3891 83 3866 58 3750 51 
C 3648 45 3270 45 2893 64 
C 2970 -102 3046 -339 3072 -506 
C 3597 -512 3962 -506 4192 -416 
C 4429 -333 4493 -166 4493 154 
L 4493 1178 
L 6106 1178 
L 6106 1734 
z
" transform="scale(0.015625)"/>
     </defs>
     <use xlink:href="#NotoSansSC-Medium-5350"/>
     <use xlink:href="#NotoSansSC-Medium-408e" transform="translate(100 0)"/>
     <use xlink:href="#NotoSansSC-Medium-3273" transform="translate(200 0)"/>
     <use xlink:href="#NotoSansSC-Medium-2f3d" transform="translate(300 0)"/>
    </g>
   </g>
   <g id="text_25">
    <!-- 连续6周下降 -->
    <g style="fill: #ea580c" transform="translate(102.45848 265.592) scale(0.1 -0.1)">
     <defs>
      <path id="NotoSansSC-Medium-6390" d="M 3942 307 
L 4557 307 
L 4557 1357 
L 6003 1357 
L 6003 1920 
L 4557 1920 
L 4557 2650 
L 5722 2650 
L 5722 3200 
L 4557 3200 
L 4557 3923 
L 3942 3923 
L 3942 3200 
L 3027 3200 
C 3200 3501 3373 3853 3526 4211 
L 5914 4211 
L 5914 4723 
L 3744 4723 
C 3802 4883 3859 5043 3917 5203 
L 3296 5376 
C 3238 5158 3162 4934 3091 4723 
L 2093 4723 
L 2093 4211 
L 2886 4211 
C 2758 3891 2630 3629 2566 3526 
C 2445 3302 2342 3149 2214 3117 
C 2285 2963 2387 2682 2419 2554 
C 2470 2618 2714 2650 3008 2650 
L 3942 2650 
L 3942 1920 
L 2035 1920 
L 2035 1357 
L 3942 1357 
L 3942 307 
z
M 1882 4186 
C 1702 4493 1306 4966 986 5306 
L 531 5011 
C 851 4653 1229 4160 1395 3846 
L 1882 4186 
z
M 1658 3238 
L 301 3238 
L 301 2688 
L 1088 2688 
L 1088 813 
C 813 698 493 416 179 45 
L 614 -538 
C 877 -122 1152 301 1344 301 
C 1485 301 1709 77 1978 -90 
C 2451 -371 2982 -442 3814 -442 
C 4467 -442 5594 -403 6042 -371 
C 6054 -192 6157 122 6227 294 
C 5587 205 4576 147 3834 147 
C 3098 147 2522 192 2099 454 
C 1907 576 1773 685 1658 755 
L 1658 3238 
z
" transform="scale(0.015625)"/>
      <path id="NotoSansSC-Medium-52ae" d="M 5574 2490 
C 5728 2810 5882 3309 6010 3750 
L 5632 3840 
L 5536 3821 
L 4499 3821 
L 4499 4320 
L 5664 4320 
L 5664 4819 
L 4499 4819 
L 4499 5363 
L 3917 5363 
L 3917 4819 
L 2803 4819 
L 2803 4320 
L 3917 4320 
L 3917 3821 
L 2573 3821 
L 2573 3315 
L 5350 3315 
C 5280 3053 5190 2790 5114 2598 
L 5574 2490 
z
M 4045 2611 
C 3878 2778 3533 2995 3264 3142 
L 3008 2848 
C 3283 2694 3610 2464 3770 2291 
L 4045 2611 
z
M 3629 2016 
C 3450 2195 3104 2432 2816 2579 
L 2541 2285 
C 2829 2125 3174 1869 3347 1683 
L 3629 2016 
z
M 1286 1978 
C 1702 2509 2093 3142 2426 3763 
L 1978 4038 
C 1869 3802 1741 3565 1619 3334 
L 966 3283 
C 1331 3814 1690 4480 1946 5120 
L 1427 5357 
C 1184 4608 742 3782 602 3578 
C 467 3360 358 3219 237 3187 
C 301 3040 390 2784 416 2675 
C 506 2720 659 2752 1312 2835 
C 1075 2464 858 2170 762 2054 
C 563 1811 429 1664 288 1632 
C 352 1498 435 1254 461 1146 
C 595 1242 813 1318 2285 1722 
C 2266 1830 2253 2061 2259 2214 
L 1286 1978 
z
M 2246 1133 
C 1517 870 774 602 275 442 
L 416 -109 
C 966 109 1677 378 2349 653 
L 2246 1133 
z
M 5978 1152 
L 5978 1664 
L 4576 1664 
C 4621 1907 4634 2144 4634 2368 
L 4634 3098 
L 4083 3098 
L 4083 2387 
C 4083 2157 4070 1914 4006 1664 
L 2438 1664 
L 2438 1152 
L 3821 1152 
C 3584 704 3130 269 2304 -77 
C 2413 -186 2586 -390 2656 -518 
C 3699 -64 4205 544 4442 1152 
L 5978 1152 
z
M 4384 653 
C 4870 314 5453 -186 5734 -518 
L 6118 -147 
C 5830 179 5222 653 4742 979 
L 4384 653 
z
" transform="scale(0.015625)"/>
      <path id="NotoSansSC-Medium-2206" d="M 6029 4301 
L 6029 4909 
L 378 4909 
L 378 4301 
L 2752 4301 
L 2752 -493 
L 3386 -493 
L 3386 2726 
C 4077 2342 4877 1843 5286 1498 
L 5722 2042 
C 5229 2426 4224 2995 3494 3347 
L 3386 3219 
L 3386 4301 
L 6029 4301 
z
" transform="scale(0.015625)"/>
      <path id="NotoSansSC-Medium-69fe" d="M 2035 5133 
L 1958 5107 
L 499 5107 
L 499 -486 
L 1018 -486 
L 1018 4576 
L 1728 4576 
C 1594 4154 1408 3616 1222 3200 
C 1702 2714 1824 2298 1824 1965 
C 1830 1773 1792 1613 1690 1549 
C 1632 1504 1568 1491 1485 1485 
C 1382 1485 1261 1485 1114 1498 
C 1203 1350 1254 1126 1261 979 
C 1414 979 1587 979 1715 992 
C 1856 1011 1971 1050 2074 1120 
C 2272 1261 2355 1536 2355 1907 
C 2355 2298 2246 2746 1766 3258 
C 1990 3757 2227 4378 2432 4909 
L 2035 5133 
z
M 4640 1702 
L 5837 1702 
L 5837 2214 
L 4640 2214 
L 4640 2656 
L 4064 2656 
L 4064 2214 
L 2662 2214 
L 2662 1702 
L 4064 1702 
L 4064 941 
L 3162 941 
C 3206 1120 3258 1306 3302 1478 
L 2771 1536 
C 2682 1171 2547 730 2438 429 
L 2682 429 
L 2682 422 
L 4064 422 
L 4064 -499 
L 4640 -499 
L 4640 422 
L 6022 422 
L 6022 941 
L 4640 941 
L 4640 1702 
z
M 3635 4352 
L 4915 4352 
C 4736 4102 4499 3878 4230 3680 
C 3974 3872 3763 4083 3603 4314 
L 3635 4352 
z
M 5350 4845 
L 5248 4819 
L 4000 4819 
C 4102 4966 4192 5101 4269 5248 
L 3680 5357 
C 3424 4890 2957 4326 2304 3904 
C 2426 3827 2605 3629 2688 3501 
C 2899 3642 3085 3802 3251 3955 
C 3411 3750 3584 3565 3782 3392 
C 3315 3136 2778 2944 2221 2829 
C 2330 2707 2464 2490 2522 2355 
C 3136 2509 3725 2733 4243 3053 
C 4704 2765 5242 2547 5837 2419 
C 5914 2566 6067 2790 6189 2906 
C 5645 2995 5139 3162 4710 3386 
C 5133 3731 5485 4154 5715 4666 
L 5350 4845 
z
" transform="scale(0.015625)"/>
     </defs>
     <use xlink:href="#NotoSansSC-Medium-6390"/>
     <use xlink:href="#NotoSansSC-Medium-52ae" transform="translate(100 0)"/>
     <use xlink:href="#NotoSansSC-Medium-17" transform="translate(200 0)"/>
     <use xlink:href="#NotoSansSC-Medium-2859" transform="translate(257 0)"/>
     <use xlink:href="#NotoSansSC-Medium-2206" transform="translate(357 0)"/>
     <use xlink:href="#NotoSansSC-Medium-69fe" transform="translate(457 0)"/>
    </g>
   </g>
   <g id="text_26">
    <!-- ↓ -->
    <g style="fill: #ea580c" transform="translate(103.86624 273.6096) scale(0.12 -0.12)">
     <defs>
      <path id="NotoSansSC-Medium-218" d="M 3469 621 
L 3469 5376 
L 2931 5376 
L 2931 621 
C 2707 928 2323 1312 1958 1574 
L 1696 1107 
C 2259 672 2829 32 3200 -544 
C 3571 32 4141 672 4704 1107 
L 4442 1574 
C 4077 1312 3693 928 3469 621 
z
" transform="scale(0.015625)"/>
     </defs>
     <use xlink:href="#NotoSansSC-Medium-218"/>
    </g>
   </g>
   <g id="text_27">
    <!-- 美伊停火 -->
    <g style="fill: #64748b" transform="translate(189.36 232.5528) scale(0.09 -0.09)">
     <defs>
      <path id="NotoSansSC-Medium-2305" d="M 1728 5357 
C 1370 4416 768 3494 141 2906 
C 243 2758 410 2438 467 2298 
C 678 2515 896 2765 1094 3046 
L 1094 -499 
L 1658 -499 
L 1658 3904 
C 1894 4307 2106 4742 2285 5171 
L 1728 5357 
z
M 5114 2003 
L 3974 2003 
C 4000 2227 4006 2438 4006 2656 
L 4006 2931 
L 5114 2931 
L 5114 2003 
z
M 4006 4397 
L 5114 4397 
L 5114 3482 
L 4006 3482 
L 4006 4397 
z
M 6131 3482 
L 5696 3482 
L 5696 4947 
L 2349 4947 
L 2349 4397 
L 3418 4397 
L 3418 3482 
L 1933 3482 
L 1933 2931 
L 3418 2931 
L 3418 2656 
C 3418 2445 3411 2227 3386 2003 
L 2278 2003 
L 2278 1446 
L 3283 1446 
C 3117 858 2733 301 1894 -70 
C 2029 -186 2214 -403 2298 -531 
C 3283 -32 3712 691 3885 1446 
L 5114 1446 
L 5114 1133 
L 5696 1133 
L 5696 2931 
L 6131 2931 
L 6131 3482 
z
" transform="scale(0.015625)"/>
      <path id="NotoSansSC-Medium-2456" d="M 2106 4832 
L 2106 4339 
L 6074 4339 
L 6074 4832 
L 4429 4832 
C 4358 5011 4237 5242 4128 5408 
L 3584 5254 
C 3654 5126 3731 4979 3795 4832 
L 2106 4832 
z
M 3072 3629 
L 5005 3629 
L 5005 3181 
L 3072 3181 
L 3072 3629 
z
M 5581 2765 
L 5581 4038 
L 2528 4038 
L 2528 2765 
L 5581 2765 
z
M 1626 5357 
C 1306 4416 774 3494 205 2893 
C 307 2746 474 2426 525 2291 
C 678 2458 832 2650 979 2861 
L 979 -506 
L 1523 -506 
L 1523 3744 
C 1773 4198 1990 4698 2163 5178 
L 1626 5357 
z
M 2579 1062 
L 3757 1062 
L 3757 128 
C 3757 51 3731 26 3629 26 
C 3533 19 3174 19 2829 32 
C 2906 -115 2976 -326 3008 -486 
C 3501 -486 3834 -486 4064 -410 
C 4294 -333 4358 -179 4358 109 
L 4358 1062 
L 5472 1062 
L 5472 1536 
L 2579 1536 
L 2579 1062 
z
M 1984 2432 
L 1984 1350 
L 2496 1350 
L 2496 1952 
L 5562 1952 
L 5562 1350 
L 6093 1350 
L 6093 2432 
L 1984 2432 
z
" transform="scale(0.015625)"/>
      <path id="NotoSansSC-Medium-4437" d="M 5216 4102 
C 5030 3533 4698 2771 4422 2298 
L 4934 2080 
C 5222 2528 5574 3245 5862 3853 
L 5216 4102 
z
M 1306 4102 
C 1165 3482 902 2784 518 2336 
L 1107 2054 
C 1491 2515 1741 3277 1888 3923 
L 1306 4102 
z
M 2861 5306 
C 2848 3078 2950 966 314 -13 
C 474 -134 653 -358 730 -512 
C 2106 26 2803 883 3155 1907 
C 3642 710 4429 -83 5760 -461 
C 5843 -294 6022 -38 6157 90 
C 4595 454 3770 1459 3398 2931 
C 3514 3686 3520 4499 3526 5306 
L 2861 5306 
z
" transform="scale(0.015625)"/>
     </defs>
     <use xlink:href="#NotoSansSC-Medium-5350"/>
     <use xlink:href="#NotoSansSC-Medium-2305" transform="translate(100 0)"/>
     <use xlink:href="#NotoSansSC-Medium-2456" transform="translate(200 0)"/>
     <use xlink:href="#NotoSansSC-Medium-4437" transform="translate(300 0)"/>
    </g>
   </g>
   <g id="text_28">
    <!-- 60天MOU框架 -->
    <g style="fill: #16a34a" transform="translate(175.074844 265.592) scale(0.1 -0.1)">
     <defs>
      <path id="NotoSansSC-Medium-2d0f" d="M 5965 2368 
L 5965 2976 
L 3437 2976 
C 3456 3187 3462 3398 3462 3590 
L 3462 4294 
L 5702 4294 
L 5702 4909 
L 678 4909 
L 678 4294 
L 2842 4294 
L 2842 3597 
C 2842 3405 2835 3194 2810 2976 
L 448 2976 
L 448 2368 
L 2694 2368 
C 2451 1510 1824 621 262 19 
C 397 -96 576 -339 653 -486 
C 2182 115 2893 992 3213 1888 
C 3731 736 4550 -70 5779 -480 
C 5862 -307 6048 -58 6182 70 
C 4915 416 4070 1248 3622 2368 
L 5965 2368 
z
" transform="scale(0.015625)"/>
      <path id="NotoSansSC-Medium-30" d="M 2413 -83 
C 3622 -83 4467 858 4467 2374 
C 4467 3891 3622 4800 2413 4800 
C 1203 4800 365 3891 365 2374 
C 365 858 1203 -83 2413 -83 
z
M 2413 563 
C 1632 563 1126 1274 1126 2374 
C 1126 3482 1632 4154 2413 4154 
C 3194 4154 3706 3482 3706 2374 
C 3706 1274 3194 563 2413 563 
z
" transform="scale(0.015625)"/>
      <path id="NotoSansSC-Medium-36" d="M 2349 -83 
C 3392 -83 4096 486 4096 2022 
L 4096 4717 
L 3379 4717 
L 3379 1971 
C 3379 909 2944 563 2349 563 
C 1760 563 1338 909 1338 1971 
L 1338 4717 
L 595 4717 
L 595 2022 
C 595 486 1306 -83 2349 -83 
z
" transform="scale(0.015625)"/>
      <path id="NotoSansSC-Medium-3c1d" d="M 1715 3539 
L 2362 3539 
L 2362 4090 
L 1715 4090 
L 1715 5382 
L 1165 5382 
L 1165 4090 
L 294 4090 
L 294 3539 
L 1133 3539 
C 947 2765 570 1888 179 1427 
C 275 1274 403 1011 461 851 
C 717 1203 966 1741 1165 2323 
L 1165 -486 
L 1715 -486 
L 1715 2701 
C 1894 2432 2099 2125 2195 1946 
L 2502 2458 
C 2394 2598 1914 3162 1715 3366 
L 1715 3539 
z
M 3078 339 
L 3078 4461 
L 6048 4461 
L 6048 4998 
L 2515 4998 
L 2515 -205 
L 6150 -205 
L 6150 339 
L 3078 339 
z
M 3277 1357 
L 3277 851 
L 5946 851 
L 5946 1357 
L 4851 1357 
L 4851 2221 
L 5773 2221 
L 5773 2714 
L 4851 2714 
L 4851 3488 
L 5894 3488 
L 5894 3994 
L 3328 3994 
L 3328 3488 
L 4294 3488 
L 4294 2714 
L 3430 2714 
L 3430 2221 
L 4294 2221 
L 4294 1357 
L 3277 1357 
z
" transform="scale(0.015625)"/>
      <path id="NotoSansSC-Medium-3b8d" d="M 5248 3155 
L 4109 3155 
L 4109 4352 
L 5248 4352 
L 5248 3155 
z
M 5843 4870 
L 3552 4870 
L 3552 2643 
L 5843 2643 
L 5843 4870 
z
M 2573 4198 
C 2528 3462 2477 3162 2394 3072 
C 2349 3021 2298 3008 2208 3008 
C 2112 3008 1907 3014 1683 3034 
C 1760 2893 1818 2669 1830 2509 
C 2093 2496 2349 2496 2483 2522 
C 2656 2541 2765 2586 2880 2707 
C 3034 2886 3091 3354 3155 4493 
C 3162 4570 3168 4717 3168 4717 
L 1856 4717 
C 1869 4922 1882 5139 1894 5363 
L 1325 5363 
C 1318 5139 1306 4915 1286 4717 
L 371 4717 
L 371 4198 
L 1222 4198 
C 1107 3552 851 3066 237 2739 
C 365 2637 531 2432 595 2285 
C 1350 2701 1658 3347 1792 4198 
L 2573 4198 
z
M 5958 1414 
L 5958 1939 
L 3494 1939 
L 3494 2490 
L 2880 2490 
L 2880 1939 
L 390 1939 
L 390 1414 
L 2502 1414 
C 1958 845 1082 326 256 77 
C 384 -38 557 -262 646 -403 
C 1453 -109 2298 442 2880 1088 
L 2880 -518 
L 3494 -518 
L 3494 1075 
C 4077 448 4915 -70 5734 -352 
C 5824 -198 6003 26 6131 147 
C 5286 378 4410 858 3872 1414 
L 5958 1414 
z
" transform="scale(0.015625)"/>
     </defs>
     <use xlink:href="#NotoSansSC-Medium-17"/>
     <use xlink:href="#NotoSansSC-Medium-11" transform="translate(57 0)"/>
     <use xlink:href="#NotoSansSC-Medium-2d0f" transform="translate(114 0)"/>
     <use xlink:href="#NotoSansSC-Medium-2e" transform="translate(214 0)"/>
     <use xlink:href="#NotoSansSC-Medium-30" transform="translate(297 0)"/>
     <use xlink:href="#NotoSansSC-Medium-36" transform="translate(372.40625 0)"/>
     <use xlink:href="#NotoSansSC-Medium-3c1d" transform="translate(445.703125 0)"/>
     <use xlink:href="#NotoSansSC-Medium-3b8d" transform="translate(545.703125 0)"/>
    </g>
   </g>
   <g id="text_29">
    <!-- → -->
    <g style="fill: #16a34a" transform="translate(180.91776 273.6096) scale(0.12 -0.12)">
     <defs>
      <path id="NotoSansSC-Medium-217" d="M 5011 2701 
L 256 2701 
L 256 2163 
L 5011 2163 
C 4704 1939 4320 1555 4058 1190 
L 4525 928 
C 4960 1491 5600 2061 6176 2432 
C 5600 2803 4960 3373 4525 3936 
L 4058 3674 
C 4320 3309 4704 2925 5011 2701 
z
" transform="scale(0.015625)"/>
     </defs>
     <use xlink:href="#NotoSansSC-Medium-217"/>
    </g>
   </g>
   <g id="text_30">
    <!-- OPEC+产量 -->
    <g style="fill: #64748b" transform="translate(260.934879 232.5528) scale(0.09 -0.09)">
     <defs>
      <path id="NotoSansSC-Medium-24" d="M 2458 -83 
C 3066 -83 3546 160 3923 595 
L 3526 1062 
C 3245 755 2918 563 2483 563 
C 1651 563 1126 1248 1126 2368 
C 1126 3475 1690 4154 2502 4154 
C 2886 4154 3181 3981 3424 3731 
L 3827 4205 
C 3539 4518 3078 4800 2490 4800 
C 1299 4800 365 3878 365 2342 
C 365 800 1274 -83 2458 -83 
z
" transform="scale(0.015625)"/>
      <path id="NotoSansSC-Medium-c" d="M 1542 730 
L 2106 730 
L 2106 2112 
L 3405 2112 
L 3405 2643 
L 2106 2643 
L 2106 4026 
L 1542 4026 
L 1542 2643 
L 243 2643 
L 243 2112 
L 1542 2112 
L 1542 730 
z
" transform="scale(0.015625)"/>
      <path id="NotoSansSC-Medium-22a2" d="M 5779 4653 
L 3725 4653 
C 3635 4858 3450 5165 3270 5389 
L 2669 5229 
C 2797 5062 2918 4838 3008 4653 
L 710 4653 
L 710 4083 
L 5779 4083 
L 5779 4653 
z
M 5939 2982 
L 4467 2982 
C 4640 3226 4826 3533 5011 3821 
L 4352 4032 
C 4243 3718 4032 3277 3859 2982 
L 2272 2982 
L 2726 3187 
C 2624 3437 2381 3808 2176 4070 
L 1658 3859 
C 1850 3590 2061 3232 2163 2982 
L 787 2982 
L 787 2112 
C 787 1453 730 525 230 -147 
C 358 -224 627 -448 723 -570 
C 1293 186 1408 1325 1408 2099 
L 1408 2400 
L 5939 2400 
L 5939 2982 
z
" transform="scale(0.015625)"/>
      <path id="NotoSansSC-Medium-6581" d="M 4646 4557 
L 1722 4557 
L 1722 4845 
L 4646 4845 
L 4646 4557 
z
M 4646 3949 
L 1722 3949 
L 1722 4243 
L 4646 4243 
L 4646 3949 
z
M 5248 5171 
L 1146 5171 
L 1146 3622 
L 5248 3622 
L 5248 5171 
z
M 6067 3379 
L 352 3379 
L 352 2944 
L 6067 2944 
L 6067 3379 
z
M 1594 1440 
L 1594 1741 
L 2906 1741 
L 2906 1440 
L 1594 1440 
z
M 1594 2362 
L 2906 2362 
L 2906 2067 
L 1594 2067 
L 1594 2362 
z
M 4838 2067 
L 3482 2067 
L 3482 2362 
L 4838 2362 
L 4838 2067 
z
M 4838 1440 
L 3482 1440 
L 3482 1741 
L 4838 1741 
L 4838 1440 
z
M 3482 102 
L 3482 410 
L 5549 410 
L 5549 813 
L 3482 813 
L 3482 1101 
L 5421 1101 
L 5421 2701 
L 1030 2701 
L 1030 1101 
L 2906 1101 
L 2906 813 
L 870 813 
L 870 410 
L 2906 410 
L 2906 102 
L 326 102 
L 326 -352 
L 6093 -352 
L 6093 102 
L 3482 102 
z
" transform="scale(0.015625)"/>
     </defs>
     <use xlink:href="#NotoSansSC-Medium-30"/>
     <use xlink:href="#NotoSansSC-Medium-31" transform="translate(75.40625 0)"/>
     <use xlink:href="#NotoSansSC-Medium-26" transform="translate(140.109375 0)"/>
     <use xlink:href="#NotoSansSC-Medium-24" transform="translate(200.109375 0)"/>
     <use xlink:href="#NotoSansSC-Medium-c" transform="translate(264.703125 0)"/>
     <use xlink:href="#NotoSansSC-Medium-22a2" transform="translate(321.703125 0)"/>
     <use xlink:href="#NotoSansSC-Medium-6581" transform="translate(421.703125 0)"/>
    </g>
   </g>
   <g id="text_31">
    <!-- 维持不变 -->
    <g style="fill: #64748b" transform="translate(264.41152 265.592) scale(0.1 -0.1)">
     <defs>
      <path id="NotoSansSC-Medium-52b5" d="M 1242 1894 
C 1709 2451 2163 3130 2534 3802 
L 2074 4083 
C 1952 3827 1811 3578 1664 3341 
L 960 3277 
C 1325 3821 1677 4480 1933 5120 
L 1402 5370 
C 1171 4614 730 3802 595 3597 
C 454 3386 346 3232 237 3206 
C 294 3066 390 2790 416 2675 
C 512 2726 659 2758 1344 2848 
C 1101 2477 883 2195 774 2074 
C 582 1837 435 1683 288 1645 
C 352 1510 442 1254 467 1146 
C 608 1229 845 1299 2400 1600 
C 2387 1715 2394 1939 2413 2093 
L 1242 1894 
z
M 397 -166 
C 1005 0 1805 198 2566 397 
L 2509 902 
C 1690 710 845 512 294 403 
L 397 -166 
z
M 3520 1229 
L 4435 1229 
L 4435 480 
L 3520 480 
L 3520 1229 
z
M 4435 2995 
L 3520 2995 
L 3520 3686 
L 4435 3686 
L 4435 2995 
z
M 4435 1760 
L 3520 1760 
L 3520 2458 
L 4435 2458 
L 4435 1760 
z
M 6112 480 
L 4986 480 
L 4986 1229 
L 5882 1229 
L 5882 1760 
L 4986 1760 
L 4986 2458 
L 5869 2458 
L 5869 2995 
L 4986 2995 
L 4986 3686 
L 6029 3686 
L 6029 4224 
L 4672 4224 
L 5178 4454 
C 5101 4698 4909 5056 4723 5331 
L 4224 5126 
C 4397 4845 4576 4467 4640 4224 
L 3661 4224 
C 3808 4544 3942 4864 4045 5171 
L 3469 5338 
C 3264 4608 2822 3674 2330 3091 
C 2419 2950 2547 2694 2605 2554 
C 2726 2688 2842 2842 2957 2995 
L 2957 -518 
L 3520 -518 
L 3520 -70 
L 6112 -70 
L 6112 480 
z
" transform="scale(0.015625)"/>
      <path id="NotoSansSC-Medium-36dc" d="M 2182 2637 
L 1613 2464 
L 1613 3571 
L 2227 3571 
L 2227 4122 
L 1613 4122 
L 1613 5357 
L 1062 5357 
L 1062 4122 
L 288 4122 
L 288 3571 
L 1062 3571 
L 1062 2310 
C 736 2214 435 2131 198 2067 
L 333 1491 
L 1062 1715 
L 1062 179 
C 1062 90 1030 64 954 64 
C 883 64 640 64 390 70 
C 461 -83 531 -339 550 -480 
C 954 -486 1210 -461 1382 -371 
C 1549 -275 1613 -122 1613 179 
L 1613 1888 
L 2259 2093 
L 2182 2637 
z
M 2803 1261 
C 3078 915 3379 448 3488 141 
L 3994 442 
C 3859 749 3546 1203 3277 1530 
L 2803 1261 
z
M 6138 2810 
L 6138 3354 
L 4525 3354 
L 4525 4045 
L 5843 4045 
L 5843 4589 
L 4525 4589 
L 4525 5344 
L 3955 5344 
L 3955 4589 
L 2624 4589 
L 2624 4045 
L 3955 4045 
L 3955 3354 
L 2323 3354 
L 2323 2810 
L 4781 2810 
L 4781 2189 
L 2394 2189 
L 2394 1645 
L 4781 1645 
L 4781 173 
C 4781 83 4755 58 4653 51 
C 4563 45 4230 45 3904 64 
C 3981 -96 4058 -339 4083 -506 
C 4544 -506 4864 -499 5075 -410 
C 5280 -320 5350 -160 5350 160 
L 5350 1645 
L 6099 1645 
L 6099 2189 
L 5350 2189 
L 5350 2810 
L 6138 2810 
z
" transform="scale(0.015625)"/>
      <path id="NotoSansSC-Medium-2208" d="M 5939 4326 
L 5939 4934 
L 461 4934 
L 461 4326 
L 3162 4326 
C 2547 3283 1498 2259 282 1664 
C 410 1536 595 1293 691 1133 
C 1517 1568 2259 2176 2874 2861 
L 2874 -499 
L 3520 -499 
L 3520 3667 
C 3674 3885 3808 4109 3942 4326 
L 5939 4326 
z
M 3546 2970 
C 4275 2451 5222 1690 5651 1197 
L 6150 1658 
C 5683 2150 4710 2874 3994 3354 
L 3546 2970 
z
" transform="scale(0.015625)"/>
      <path id="NotoSansSC-Medium-27ca" d="M 2150 2355 
L 2752 2355 
L 2752 4211 
L 3635 4211 
L 3635 2362 
L 4237 2362 
L 4237 4211 
L 5939 4211 
L 5939 4736 
L 3686 4736 
C 3597 4928 3430 5216 3296 5427 
L 2714 5286 
C 2816 5126 2931 4909 3002 4736 
L 461 4736 
L 461 4211 
L 2150 4211 
L 2150 2355 
z
M 4371 3699 
C 4749 3366 5216 2861 5440 2528 
L 5901 2842 
C 5677 3155 5216 3635 4806 3968 
L 4371 3699 
z
M 1357 3994 
C 1171 3558 858 3136 512 2848 
C 646 2771 877 2624 979 2528 
C 1318 2854 1677 3354 1888 3846 
L 1357 3994 
z
M 4416 1677 
C 4109 1306 3699 1011 3206 768 
C 2714 1011 2310 1318 2003 1677 
L 4416 1677 
z
M 4941 2221 
L 4832 2195 
L 845 2195 
L 845 1677 
L 1350 1677 
C 1677 1210 2093 826 2592 512 
C 1907 269 1126 102 326 6 
C 429 -115 563 -365 614 -518 
C 1523 -378 2406 -160 3187 179 
C 3923 -166 4794 -390 5766 -512 
C 5843 -358 5984 -122 6106 6 
C 5261 90 4486 256 3814 506 
C 4448 877 4973 1350 5318 1965 
L 4941 2221 
z
" transform="scale(0.015625)"/>
     </defs>
     <use xlink:href="#NotoSansSC-Medium-52b5"/>
     <use xlink:href="#NotoSansSC-Medium-36dc" transform="translate(100 0)"/>
     <use xlink:href="#NotoSansSC-Medium-2208" transform="translate(200 0)"/>
     <use xlink:href="#NotoSansSC-Medium-27ca" transform="translate(300 0)"/>
    </g>
   </g>
   <g id="text_32">
    <!-- → -->
    <g style="fill: #64748b" transform="translate(257.96928 273.6096) scale(0.12 -0.12)">
     <use xlink:href="#NotoSansSC-Medium-217"/>
    </g>
   </g>
   <g id="text_33">
    <!-- 来源: NYMEX / Bloomberg · 2026-05-29 -->
    <g style="fill: #94a3b8" transform="translate(194.358812 304.24) scale(0.07 -0.07)">
     <defs>
      <path id="NotoSansSC-Medium-3b3c" d="M 6029 2003 
L 6029 2579 
L 3514 2579 
L 3514 4064 
L 5773 4064 
L 5773 4634 
L 3514 4634 
L 3514 5370 
L 2886 5370 
L 2886 4634 
L 678 4634 
L 678 4064 
L 2886 4064 
L 2886 2579 
L 378 2579 
L 378 2003 
L 2515 2003 
C 1939 1274 1056 595 224 243 
C 358 122 550 -102 646 -256 
C 1453 147 2285 851 2886 1638 
L 2886 -506 
L 3514 -506 
L 3514 1651 
C 4115 858 4947 134 5760 -275 
C 5856 -115 6048 109 6176 230 
C 5350 589 4467 1274 3904 2003 
L 6029 2003 
z
M 1158 3789 
C 1395 3418 1619 2912 1696 2598 
L 2259 2822 
C 2176 3142 1926 3622 1683 3987 
L 1158 3789 
z
M 4672 2592 
C 4890 2899 5158 3386 5382 3821 
L 4762 4006 
C 4621 3629 4371 3104 4160 2765 
L 4672 2592 
z
" transform="scale(0.015625)"/>
      <path id="NotoSansSC-Medium-4260" d="M 1965 4659 
C 1715 4838 1229 5120 902 5306 
L 550 4883 
C 890 4672 1363 4371 1600 4186 
L 1965 4659 
z
M 1658 2989 
C 1402 3162 922 3430 589 3603 
L 243 3181 
C 589 2982 1062 2688 1299 2515 
L 1658 2989 
z
M 1293 1958 
C 1011 1222 627 403 358 -96 
L 896 -422 
C 1190 186 1517 954 1766 1626 
L 1293 1958 
z
M 2733 4512 
L 6067 4512 
L 6067 5050 
L 2150 5050 
L 2150 3302 
C 2150 2266 2086 826 1370 -173 
C 1510 -237 1766 -390 1869 -486 
C 2618 570 2733 2189 2733 3302 
L 2733 4512 
z
M 3213 1312 
C 3046 902 2771 454 2496 154 
C 2630 83 2861 -58 2970 -134 
C 3232 186 3539 704 3744 1165 
L 3213 1312 
z
M 3571 2534 
L 5299 2534 
L 5299 2067 
L 3571 2067 
L 3571 2534 
z
M 3571 3418 
L 5299 3418 
L 5299 2957 
L 3571 2957 
L 3571 3418 
z
M 5856 1626 
L 5856 3866 
L 4544 3866 
C 4621 4019 4710 4179 4794 4352 
L 4128 4474 
C 4090 4301 4019 4064 3955 3866 
L 3040 3866 
L 3040 1626 
L 4122 1626 
L 4122 102 
C 4122 32 4096 6 4019 6 
C 3942 6 3680 0 3411 13 
C 3469 -134 3546 -352 3565 -499 
C 3981 -506 4262 -499 4448 -410 
C 4640 -333 4685 -186 4685 83 
L 4685 1626 
L 5856 1626 
z
M 5005 1178 
C 5235 774 5517 237 5651 -83 
L 6195 154 
C 6054 467 5754 986 5517 1370 
L 5005 1178 
z
" transform="scale(0.015625)"/>
      <path id="NotoSansSC-Medium-1b" d="M 954 2432 
C 1229 2432 1446 2650 1446 2944 
C 1446 3245 1229 3469 954 3469 
C 678 3469 461 3245 461 2944 
C 461 2650 678 2432 954 2432 
z
M 954 -83 
C 1229 -83 1446 128 1446 429 
C 1446 736 1229 954 954 954 
C 678 954 461 736 461 429 
C 461 128 678 -83 954 -83 
z
" transform="scale(0.015625)"/>
      <path id="NotoSansSC-Medium-23" d="M 621 0 
L 2195 0 
C 3238 0 4000 448 4000 1382 
C 4000 2022 3610 2387 3072 2502 
L 3072 2534 
C 3494 2675 3744 3104 3744 3552 
C 3744 4403 3046 4717 2080 4717 
L 621 4717 
L 621 0 
z
M 1363 2746 
L 1363 4134 
L 2016 4134 
C 2682 4134 3014 3949 3014 3456 
C 3014 3014 2714 2746 1997 2746 
L 1363 2746 
z
M 1363 582 
L 1363 2189 
L 2112 2189 
C 2861 2189 3270 1952 3270 1421 
C 3270 845 2848 582 2112 582 
L 1363 582 
z
" transform="scale(0.015625)"/>
      <path id="NotoSansSC-Medium-4d" d="M 1286 -83 
C 1472 -83 1594 -58 1683 -26 
L 1587 531 
C 1523 518 1498 518 1466 518 
C 1376 518 1293 589 1293 787 
L 1293 5101 
L 557 5101 
L 557 826 
C 557 256 755 -83 1286 -83 
z
" transform="scale(0.015625)"/>
      <path id="NotoSansSC-Medium-50" d="M 1965 -83 
C 2835 -83 3622 589 3622 1760 
C 3622 2931 2835 3610 1965 3610 
C 1094 3610 307 2931 307 1760 
C 307 589 1094 -83 1965 -83 
z
M 1965 518 
C 1414 518 1069 1011 1069 1760 
C 1069 2502 1414 3002 1965 3002 
C 2522 3002 2867 2502 2867 1760 
C 2867 1011 2522 518 1965 518 
z
" transform="scale(0.015625)"/>
      <path id="NotoSansSC-Medium-4e" d="M 557 0 
L 1293 0 
L 1293 2496 
C 1581 2816 1843 2976 2080 2976 
C 2483 2976 2669 2733 2669 2125 
L 2669 0 
L 3405 0 
L 3405 2496 
C 3699 2816 3955 2976 4198 2976 
C 4595 2976 4787 2733 4787 2125 
L 4787 0 
L 5523 0 
L 5523 2214 
C 5523 3110 5178 3610 4442 3610 
C 4000 3610 3642 3334 3296 2963 
C 3142 3366 2848 3610 2323 3610 
C 1888 3610 1536 3347 1235 3027 
L 1216 3027 
L 1158 3520 
L 557 3520 
L 557 0 
z
" transform="scale(0.015625)"/>
      <path id="NotoSansSC-Medium-43" d="M 2195 -83 
C 2989 -83 3712 608 3712 1818 
C 3712 2899 3206 3610 2317 3610 
C 1946 3610 1568 3411 1267 3149 
L 1293 3750 
L 1293 5101 
L 557 5101 
L 557 0 
L 1133 0 
L 1203 365 
L 1222 365 
C 1523 83 1875 -83 2195 -83 
z
M 2054 525 
C 1837 525 1562 608 1293 845 
L 1293 2566 
C 1581 2854 1850 2995 2125 2995 
C 2714 2995 2950 2541 2950 1805 
C 2950 979 2566 525 2054 525 
z
" transform="scale(0.015625)"/>
      <path id="NotoSansSC-Medium-46" d="M 2022 -83 
C 2483 -83 2886 70 3213 288 
L 2957 755 
C 2701 589 2432 493 2118 493 
C 1510 493 1088 896 1030 1568 
L 3315 1568 
C 3334 1658 3354 1798 3354 1946 
C 3354 2938 2848 3610 1914 3610 
C 1094 3610 307 2899 307 1760 
C 307 595 1069 -83 2022 -83 
z
M 1024 2080 
C 1094 2694 1485 3034 1926 3034 
C 2438 3034 2714 2682 2714 2080 
L 1024 2080 
z
" transform="scale(0.015625)"/>
      <path id="NotoSansSC-Medium-53" d="M 557 0 
L 1293 0 
L 1293 2195 
C 1510 2752 1856 2950 2144 2950 
C 2285 2950 2374 2931 2496 2893 
L 2630 3533 
C 2522 3584 2406 3610 2234 3610 
C 1856 3610 1485 3341 1235 2886 
L 1216 2886 
L 1158 3520 
L 557 3520 
L 557 0 
z
" transform="scale(0.015625)"/>
      <path id="NotoSansSC-Medium-48" d="M 1760 -1581 
C 2886 -1581 3603 -1030 3603 -352 
C 3603 250 3168 506 2336 506 
L 1690 506 
C 1242 506 1101 640 1101 851 
C 1101 1024 1178 1120 1293 1222 
C 1446 1152 1626 1114 1786 1114 
C 2522 1114 3104 1555 3104 2323 
C 3104 2592 3008 2829 2874 2970 
L 3546 2970 
L 3546 3520 
L 2298 3520 
C 2163 3571 1984 3610 1786 3610 
C 1056 3610 422 3142 422 2349 
C 422 1926 646 1594 890 1408 
L 890 1382 
C 691 1242 493 1005 493 730 
C 493 442 634 256 813 147 
L 813 115 
C 486 -83 301 -358 301 -653 
C 301 -1267 915 -1581 1760 -1581 
z
M 1786 1587 
C 1421 1587 1120 1875 1120 2349 
C 1120 2822 1414 3091 1786 3091 
C 2157 3091 2451 2816 2451 2349 
C 2451 1875 2150 1587 1786 1587 
z
M 1869 -1094 
C 1286 -1094 928 -890 928 -544 
C 928 -365 1018 -186 1229 -32 
C 1376 -64 1536 -83 1702 -83 
L 2234 -83 
C 2662 -83 2893 -173 2893 -467 
C 2893 -794 2483 -1094 1869 -1094 
z
" transform="scale(0.015625)"/>
      <path id="NotoSansSC-Medium-76ec" d="M 282 0 
L 3322 0 
L 3322 627 
L 2125 627 
C 1894 627 1594 608 1357 582 
C 2336 1606 3098 2451 3098 3290 
C 3098 4122 2541 4672 1677 4672 
C 1062 4672 646 4403 243 3968 
L 659 3558 
C 909 3846 1216 4083 1587 4083 
C 2118 4083 2387 3750 2387 3251 
C 2387 2534 1594 1715 282 429 
L 282 0 
z
" transform="scale(0.015625)"/>
      <path id="NotoSansSC-Medium-76ea" d="M 1824 -83 
C 2765 -83 3347 768 3347 2310 
C 3347 3846 2765 4672 1824 4672 
C 890 4672 301 3853 301 2310 
C 301 768 890 -83 1824 -83 
z
M 1824 499 
C 1344 499 1005 992 1005 2310 
C 1005 3629 1344 4090 1824 4090 
C 2304 4090 2643 3629 2643 2310 
C 2643 992 2304 499 1824 499 
z
" transform="scale(0.015625)"/>
      <path id="NotoSansSC-Medium-76f0" d="M 1907 2285 
C 2406 2285 2688 1971 2688 1408 
C 2688 826 2362 480 1952 480 
C 1453 480 1114 877 1037 1728 
C 1318 2138 1645 2285 1907 2285 
z
M 1958 -83 
C 2726 -83 3366 506 3366 1408 
C 3366 2355 2829 2822 2042 2822 
C 1702 2822 1293 2611 1018 2272 
C 1050 3616 1549 4064 2144 4064 
C 2426 4064 2714 3923 2886 3718 
L 3290 4166 
C 3021 4448 2637 4672 2112 4672 
C 1178 4672 333 3942 333 2138 
C 333 627 1062 -83 1958 -83 
z
" transform="scale(0.015625)"/>
      <path id="NotoSansSC-Medium-76ef" d="M 1715 -83 
C 2541 -83 3302 480 3302 1485 
C 3302 2470 2656 2912 1869 2912 
C 1613 2912 1427 2854 1222 2752 
L 1331 3962 
L 3078 3962 
L 3078 4582 
L 691 4582 
L 550 2342 
L 909 2112 
C 1184 2291 1363 2381 1664 2381 
C 2202 2381 2560 2042 2560 1459 
C 2560 877 2157 518 1626 518 
C 1133 518 794 755 525 1024 
L 173 544 
C 506 218 973 -83 1715 -83 
z
" transform="scale(0.015625)"/>
      <path id="NotoSansSC-Medium-76f3" d="M 960 3181 
C 960 3763 1280 4102 1683 4102 
C 2182 4102 2528 3712 2611 2867 
C 2349 2464 2010 2298 1728 2298 
C 1229 2298 960 2618 960 3181 
z
M 1530 -83 
C 2458 -83 3309 640 3309 2445 
C 3309 3962 2579 4672 1677 4672 
C 915 4672 275 4083 275 3181 
C 275 2234 806 1766 1600 1766 
C 1946 1766 2355 1971 2630 2323 
C 2598 979 2093 518 1491 518 
C 1216 518 928 659 755 870 
L 352 416 
C 614 134 998 -83 1530 -83 
z
" transform="scale(0.015625)"/>
     </defs>
     <use xlink:href="#NotoSansSC-Medium-3b3c"/>
     <use xlink:href="#NotoSansSC-Medium-4260" transform="translate(100 0)"/>
     <use xlink:href="#NotoSansSC-Medium-1b" transform="translate(200 0)"/>
     <use xlink:href="#NotoSansSC-Medium-1" transform="translate(229.796875 0)"/>
     <use xlink:href="#NotoSansSC-Medium-2f" transform="translate(252.296875 0)"/>
     <use xlink:href="#NotoSansSC-Medium-3a" transform="translate(325.703125 0)"/>
     <use xlink:href="#NotoSansSC-Medium-2e" transform="translate(381 0)"/>
     <use xlink:href="#NotoSansSC-Medium-26" transform="translate(464 0)"/>
     <use xlink:href="#NotoSansSC-Medium-39" transform="translate(524 0)"/>
     <use xlink:href="#NotoSansSC-Medium-1" transform="translate(583.59375 0)"/>
     <use xlink:href="#NotoSansSC-Medium-10" transform="translate(606.09375 0)"/>
     <use xlink:href="#NotoSansSC-Medium-1" transform="translate(645.09375 0)"/>
     <use xlink:href="#NotoSansSC-Medium-23" transform="translate(667.59375 0)"/>
     <use xlink:href="#NotoSansSC-Medium-4d" transform="translate(734.296875 0)"/>
     <use xlink:href="#NotoSansSC-Medium-50" transform="translate(764.09375 0)"/>
     <use xlink:href="#NotoSansSC-Medium-50" transform="translate(825.5 0)"/>
     <use xlink:href="#NotoSansSC-Medium-4e" transform="translate(886.90625 0)"/>
     <use xlink:href="#NotoSansSC-Medium-43" transform="translate(981.109375 0)"/>
     <use xlink:href="#NotoSansSC-Medium-46" transform="translate(1044.015625 0)"/>
     <use xlink:href="#NotoSansSC-Medium-53" transform="translate(1100.515625 0)"/>
     <use xlink:href="#NotoSansSC-Medium-48" transform="translate(1140.328125 0)"/>
     <use xlink:href="#NotoSansSC-Medium-1" transform="translate(1198.125 0)"/>
     <use xlink:href="#NotoSansSC-Medium-561" transform="translate(1220.625 0)"/>
     <use xlink:href="#NotoSansSC-Medium-1" transform="translate(1320.625 0)"/>
     <use xlink:href="#NotoSansSC-Medium-76ec" transform="translate(1343.125 0)"/>
     <use xlink:href="#NotoSansSC-Medium-76ea" transform="translate(1400.125 0)"/>
     <use xlink:href="#NotoSansSC-Medium-76ec" transform="translate(1457.125 0)"/>
     <use xlink:href="#NotoSansSC-Medium-76f0" transform="translate(1514.125 0)"/>
     <use xlink:href="#NotoSansSC-Medium-e" transform="translate(1571.125 0)"/>
     <use xlink:href="#NotoSansSC-Medium-76ea" transform="translate(1606.828125 0)"/>
     <use xlink:href="#NotoSansSC-Medium-76ef" transform="translate(1663.828125 0)"/>
     <use xlink:href="#NotoSansSC-Medium-e" transform="translate(1720.828125 0)"/>
     <use xlink:href="#NotoSansSC-Medium-76ec" transform="translate(1756.53125 0)"/>
     <use xlink:href="#NotoSansSC-Medium-76f3" transform="translate(1813.53125 0)"/>
    </g>
   </g>
  </g>
 </g>
 <defs>
  <clipPath id="p50392dab81">
   <rect x="10.8" y="92.448" width="314.496" height="51.408"/>
  </clipPath>
  <clipPath id="p980216bab2">
   <rect x="10.8" y="207.36" width="314.496" height="72.576"/>
  </clipPath>
 </defs>
</svg>
