<?xml version="1.0" encoding="utf-8" standalone="no"?>
<!DOCTYPE svg PUBLIC "-//W3C//DTD SVG 1.1//EN"
  "http://www.w3.org/Graphics/SVG/1.1/DTD/svg11.dtd">
<svg xmlns:xlink="http://www.w3.org/1999/xlink" width="367.318594pt" height="280.990437pt" viewBox="0 0 367.318594 280.990437" xmlns="http://www.w3.org/2000/svg" version="1.1">
 <metadata>
  <rdf:RDF xmlns:dc="http://purl.org/dc/elements/1.1/" xmlns:cc="http://creativecommons.org/ns#" xmlns:rdf="http://www.w3.org/1999/02/22-rdf-syntax-ns#">
   <cc:Work>
    <dc:type rdf:resource="http://purl.org/dc/dcmitype/StillImage"/>
    <dc:date>2026-05-29T10:58:03.112631</dc:date>
    <dc:format>image/svg+xml</dc:format>
    <dc:creator>
     <cc:Agent>
      <dc:title>Matplotlib v3.10.9, https://matplotlib.org/</dc:title>
     </cc:Agent>
    </dc:creator>
   </cc:Work>
  </rdf:RDF>
 </metadata>
 <defs>
  <style type="text/css">*{stroke-linejoin: round; stroke-linecap: butt}</style>
 </defs>
 <g id="figure_1">
  <g id="patch_1">
   <path d="M 0 280.990437 
L 367.318594 280.990437 
L 367.318594 0 
L 0 0 
z
" style="fill: #f0f2f5"/>
  </g>
  <g id="axes_1">
   <g id="patch_2">
    <path d="M 41.698594 255.142437 
L 356.518594 255.142437 
L 356.518594 80.038437 
L 41.698594 80.038437 
z
" style="fill: #ffffff"/>
   </g>
   <g id="matplotlib.axis_1">
    <g id="xtick_1">
     <g id="line2d_1"/>
     <g id="text_1">
      <!-- 5/19 -->
      <g style="fill: #94a3b8" transform="translate(47.194219 265.789) scale(0.09 -0.09)">
       <defs>
        <path id="NotoSansSC-Thin-35" d="M 1581 -83 
Q 1222 -83 963 9 
Q 704 102 515 240 
Q 326 378 186 518 
L 333 691 
Q 467 550 636 422 
Q 806 294 1040 211 
Q 1274 128 1594 128 
Q 1901 128 2166 294 
Q 2432 461 2592 765 
Q 2752 1069 2752 1466 
Q 2752 2061 2441 2406 
Q 2131 2752 1606 2752 
Q 1350 2752 1152 2665 
Q 954 2579 755 2445 
L 563 2560 
L 730 4646 
L 2758 4646 
L 2758 4435 
L 941 4435 
L 787 2726 
Q 966 2835 1168 2902 
Q 1370 2970 1626 2970 
Q 2010 2970 2320 2813 
Q 2630 2656 2812 2326 
Q 2995 1997 2995 1478 
Q 2995 979 2787 630 
Q 2579 282 2256 99 
Q 1933 -83 1581 -83 
z
" transform="scale(0.015625)"/>
        <path id="NotoSansSC-Thin-2f" d="M 58 -1126 
L 2298 5005 
L 2515 5005 
L 282 -1126 
L 58 -1126 
z
" transform="scale(0.015625)"/>
        <path id="NotoSansSC-Thin-31" d="M 608 0 
L 608 211 
L 1677 211 
L 1677 4211 
L 864 4211 
L 864 4378 
Q 1133 4422 1344 4492 
Q 1555 4563 1702 4646 
L 1901 4646 
L 1901 211 
L 2899 211 
L 2899 0 
L 608 0 
z
" transform="scale(0.015625)"/>
        <path id="NotoSansSC-Thin-39" d="M 1370 -83 
Q 1050 -83 819 32 
Q 589 147 410 339 
L 557 506 
Q 723 314 934 221 
Q 1146 128 1389 128 
Q 1651 128 1891 256 
Q 2131 384 2316 675 
Q 2502 966 2611 1443 
Q 2720 1920 2720 2618 
Q 2720 3168 2592 3600 
Q 2464 4032 2195 4278 
Q 1926 4525 1498 4525 
Q 1229 4525 1014 4355 
Q 800 4186 675 3901 
Q 550 3616 550 3264 
Q 550 2912 652 2627 
Q 755 2342 979 2172 
Q 1203 2003 1555 2003 
Q 1830 2003 2137 2182 
Q 2445 2362 2739 2765 
L 2746 2470 
Q 2586 2278 2397 2128 
Q 2208 1978 1993 1891 
Q 1779 1805 1536 1805 
Q 1152 1805 877 1974 
Q 602 2144 454 2470 
Q 307 2797 307 3264 
Q 307 3686 473 4019 
Q 640 4352 912 4541 
Q 1184 4730 1510 4730 
Q 1850 4730 2118 4589 
Q 2387 4448 2572 4176 
Q 2758 3904 2857 3513 
Q 2957 3123 2957 2618 
Q 2957 1862 2825 1344 
Q 2694 826 2470 512 
Q 2246 198 1961 57 
Q 1677 -83 1370 -83 
z
" transform="scale(0.015625)"/>
       </defs>
       <use xlink:href="#NotoSansSC-Thin-35"/>
       <use xlink:href="#NotoSansSC-Thin-2f" transform="translate(52.099991 0)"/>
       <use xlink:href="#NotoSansSC-Thin-31" transform="translate(91.699982 0)"/>
       <use xlink:href="#NotoSansSC-Thin-39" transform="translate(143.799973 0)"/>
      </g>
     </g>
    </g>
    <g id="xtick_2">
     <g id="line2d_2"/>
     <g id="text_2">
      <!-- 5/20 -->
      <g style="fill: #94a3b8" transform="translate(88.079933 265.789) scale(0.09 -0.09)">
       <defs>
        <path id="NotoSansSC-Thin-32" d="M 294 0 
L 294 147 
Q 1120 858 1613 1434 
Q 2106 2010 2323 2499 
Q 2541 2989 2541 3424 
Q 2541 3725 2435 3974 
Q 2330 4224 2106 4371 
Q 1882 4518 1523 4518 
Q 1210 4518 931 4352 
Q 653 4186 442 3923 
L 282 4070 
Q 525 4346 829 4538 
Q 1133 4730 1542 4730 
Q 1939 4730 2214 4566 
Q 2490 4403 2637 4112 
Q 2784 3821 2784 3424 
Q 2784 2918 2537 2406 
Q 2291 1894 1820 1347 
Q 1350 800 678 179 
Q 870 192 1062 201 
Q 1254 211 1440 211 
L 3014 211 
L 3014 0 
L 294 0 
z
" transform="scale(0.015625)"/>
        <path id="NotoSansSC-Thin-30" d="M 1670 -83 
Q 1261 -83 963 179 
Q 666 442 509 979 
Q 352 1517 352 2336 
Q 352 3149 509 3677 
Q 666 4205 963 4467 
Q 1261 4730 1670 4730 
Q 2080 4730 2371 4467 
Q 2662 4205 2822 3677 
Q 2982 3149 2982 2336 
Q 2982 1517 2822 979 
Q 2662 442 2371 179 
Q 2080 -83 1670 -83 
z
M 1670 128 
Q 1997 128 2240 384 
Q 2483 640 2614 1133 
Q 2746 1626 2746 2336 
Q 2746 3040 2614 3529 
Q 2483 4019 2240 4272 
Q 1997 4525 1670 4525 
Q 1344 4525 1101 4272 
Q 858 4019 723 3529 
Q 589 3040 589 2336 
Q 589 1626 723 1133 
Q 858 640 1101 384 
Q 1344 128 1670 128 
z
" transform="scale(0.015625)"/>
       </defs>
       <use xlink:href="#NotoSansSC-Thin-35"/>
       <use xlink:href="#NotoSansSC-Thin-2f" transform="translate(52.099991 0)"/>
       <use xlink:href="#NotoSansSC-Thin-32" transform="translate(91.699982 0)"/>
       <use xlink:href="#NotoSansSC-Thin-30" transform="translate(143.799973 0)"/>
      </g>
     </g>
    </g>
    <g id="xtick_3">
     <g id="line2d_3"/>
     <g id="text_3">
      <!-- 5/21 -->
      <g style="fill: #94a3b8" transform="translate(128.965647 265.789) scale(0.09 -0.09)">
       <use xlink:href="#NotoSansSC-Thin-35"/>
       <use xlink:href="#NotoSansSC-Thin-2f" transform="translate(52.099991 0)"/>
       <use xlink:href="#NotoSansSC-Thin-32" transform="translate(91.699982 0)"/>
       <use xlink:href="#NotoSansSC-Thin-31" transform="translate(143.799973 0)"/>
      </g>
     </g>
    </g>
    <g id="xtick_4">
     <g id="line2d_4"/>
     <g id="text_4">
      <!-- 5/22 -->
      <g style="fill: #94a3b8" transform="translate(169.851362 265.789) scale(0.09 -0.09)">
       <use xlink:href="#NotoSansSC-Thin-35"/>
       <use xlink:href="#NotoSansSC-Thin-2f" transform="translate(52.099991 0)"/>
       <use xlink:href="#NotoSansSC-Thin-32" transform="translate(91.699982 0)"/>
       <use xlink:href="#NotoSansSC-Thin-32" transform="translate(143.799973 0)"/>
      </g>
     </g>
    </g>
    <g id="xtick_5">
     <g id="line2d_5"/>
     <g id="text_5">
      <!-- 5/23 -->
      <g style="fill: #94a3b8" transform="translate(210.737076 265.789) scale(0.09 -0.09)">
       <defs>
        <path id="NotoSansSC-Thin-33" d="M 1619 -83 
Q 1261 -83 998 13 
Q 736 109 544 256 
Q 352 403 211 550 
L 358 717 
Q 563 499 857 313 
Q 1152 128 1632 128 
Q 1952 128 2198 262 
Q 2445 397 2585 640 
Q 2726 883 2726 1210 
Q 2726 1542 2560 1795 
Q 2394 2048 2038 2189 
Q 1683 2330 1114 2330 
L 1114 2554 
Q 1651 2554 1964 2698 
Q 2278 2842 2416 3088 
Q 2554 3334 2554 3629 
Q 2554 4026 2298 4272 
Q 2042 4518 1606 4518 
Q 1293 4518 1017 4374 
Q 742 4230 557 4026 
L 410 4192 
Q 634 4410 925 4570 
Q 1216 4730 1606 4730 
Q 1939 4730 2211 4598 
Q 2483 4467 2643 4224 
Q 2803 3981 2803 3642 
Q 2803 3168 2550 2877 
Q 2298 2586 1926 2464 
L 1926 2438 
Q 2208 2381 2445 2221 
Q 2682 2061 2826 1808 
Q 2970 1555 2970 1222 
Q 2970 826 2790 531 
Q 2611 237 2307 77 
Q 2003 -83 1619 -83 
z
" transform="scale(0.015625)"/>
       </defs>
       <use xlink:href="#NotoSansSC-Thin-35"/>
       <use xlink:href="#NotoSansSC-Thin-2f" transform="translate(52.099991 0)"/>
       <use xlink:href="#NotoSansSC-Thin-32" transform="translate(91.699982 0)"/>
       <use xlink:href="#NotoSansSC-Thin-33" transform="translate(143.799973 0)"/>
      </g>
     </g>
    </g>
    <g id="xtick_6">
     <g id="line2d_6"/>
     <g id="text_6">
      <!-- 5/24 -->
      <g style="fill: #94a3b8" transform="translate(251.62279 265.789) scale(0.09 -0.09)">
       <defs>
        <path id="NotoSansSC-Thin-34" d="M 2195 0 
L 2195 3482 
Q 2195 3629 2204 3843 
Q 2214 4058 2227 4205 
L 2195 4205 
Q 2112 4058 2019 3901 
Q 1926 3744 1830 3590 
L 422 1568 
L 3110 1568 
L 3110 1363 
L 115 1363 
L 115 1485 
L 2259 4646 
L 2419 4646 
L 2419 0 
L 2195 0 
z
" transform="scale(0.015625)"/>
       </defs>
       <use xlink:href="#NotoSansSC-Thin-35"/>
       <use xlink:href="#NotoSansSC-Thin-2f" transform="translate(52.099991 0)"/>
       <use xlink:href="#NotoSansSC-Thin-32" transform="translate(91.699982 0)"/>
       <use xlink:href="#NotoSansSC-Thin-34" transform="translate(143.799973 0)"/>
      </g>
     </g>
    </g>
    <g id="xtick_7">
     <g id="line2d_7"/>
     <g id="text_7">
      <!-- 5/25 -->
      <g style="fill: #94a3b8" transform="translate(292.508504 265.789) scale(0.09 -0.09)">
       <use xlink:href="#NotoSansSC-Thin-35"/>
       <use xlink:href="#NotoSansSC-Thin-2f" transform="translate(52.099991 0)"/>
       <use xlink:href="#NotoSansSC-Thin-32" transform="translate(91.699982 0)"/>
       <use xlink:href="#NotoSansSC-Thin-35" transform="translate(143.799973 0)"/>
      </g>
     </g>
    </g>
    <g id="xtick_8">
     <g id="line2d_8"/>
     <g id="text_8">
      <!-- 5/26 -->
      <g style="fill: #94a3b8" transform="translate(333.394219 265.789) scale(0.09 -0.09)">
       <defs>
        <path id="NotoSansSC-Thin-36" d="M 1837 -83 
Q 1498 -83 1232 67 
Q 966 218 780 509 
Q 595 800 496 1216 
Q 397 1632 397 2170 
Q 397 2886 528 3379 
Q 659 3872 889 4169 
Q 1120 4467 1414 4598 
Q 1709 4730 2029 4730 
Q 2330 4730 2550 4614 
Q 2771 4499 2944 4307 
L 2790 4147 
Q 2643 4333 2444 4425 
Q 2246 4518 2022 4518 
Q 1651 4518 1334 4297 
Q 1018 4077 826 3561 
Q 634 3046 634 2170 
Q 634 1581 762 1120 
Q 890 659 1158 393 
Q 1427 128 1850 128 
Q 2125 128 2336 297 
Q 2547 467 2672 752 
Q 2797 1037 2797 1382 
Q 2797 1741 2694 2025 
Q 2592 2310 2368 2476 
Q 2144 2643 1779 2643 
Q 1523 2643 1209 2470 
Q 896 2298 602 1888 
L 602 2176 
Q 768 2381 957 2531 
Q 1146 2682 1360 2762 
Q 1574 2842 1792 2842 
Q 2189 2842 2467 2675 
Q 2746 2509 2893 2185 
Q 3040 1862 3040 1382 
Q 3040 960 2873 630 
Q 2707 301 2435 109 
Q 2163 -83 1837 -83 
z
" transform="scale(0.015625)"/>
       </defs>
       <use xlink:href="#NotoSansSC-Thin-35"/>
       <use xlink:href="#NotoSansSC-Thin-2f" transform="translate(52.099991 0)"/>
       <use xlink:href="#NotoSansSC-Thin-32" transform="translate(91.699982 0)"/>
       <use xlink:href="#NotoSansSC-Thin-36" transform="translate(143.799973 0)"/>
      </g>
     </g>
    </g>
   </g>
   <g id="matplotlib.axis_2">
    <g id="ytick_1">
     <g id="line2d_9">
      <path d="M 41.698594 255.142437 
L 356.518594 255.142437 
" clip-path="url(#p0c42dd16cc)" style="fill: none; stroke: #e2e8f0; stroke-opacity: 0.6; stroke-width: 0.5; stroke-linecap: square"/>
     </g>
     <g id="line2d_10"/>
     <g id="text_9">
      <!-- 85 -->
      <g style="fill: #94a3b8" transform="translate(28.821719 258.715719) scale(0.09 -0.09)">
       <defs>
        <path id="NotoSansSC-Thin-38" d="M 1696 -83 
Q 1286 -83 966 80 
Q 646 243 464 521 
Q 282 800 282 1152 
Q 282 1478 422 1744 
Q 563 2010 774 2202 
Q 986 2394 1197 2509 
L 1197 2534 
Q 954 2694 752 2953 
Q 550 3213 550 3578 
Q 550 3910 704 4163 
Q 858 4416 1117 4560 
Q 1376 4704 1696 4704 
Q 2080 4704 2345 4544 
Q 2611 4384 2752 4112 
Q 2893 3840 2893 3494 
Q 2893 3238 2784 3008 
Q 2675 2778 2528 2602 
Q 2381 2426 2253 2317 
L 2253 2285 
Q 2445 2170 2627 2010 
Q 2810 1850 2925 1626 
Q 3040 1402 3040 1082 
Q 3040 762 2870 496 
Q 2701 230 2400 73 
Q 2099 -83 1696 -83 
z
M 2035 2387 
Q 2336 2630 2499 2905 
Q 2662 3181 2662 3494 
Q 2662 3763 2550 3990 
Q 2438 4218 2220 4358 
Q 2003 4499 1696 4499 
Q 1293 4499 1040 4236 
Q 787 3974 787 3578 
Q 787 3238 972 3017 
Q 1158 2797 1446 2653 
Q 1734 2509 2035 2387 
z
M 1696 128 
Q 2035 128 2281 256 
Q 2528 384 2662 601 
Q 2797 819 2797 1082 
Q 2797 1370 2675 1574 
Q 2554 1779 2352 1923 
Q 2150 2067 1894 2182 
Q 1638 2298 1370 2400 
Q 998 2189 758 1875 
Q 518 1562 518 1152 
Q 518 870 668 636 
Q 819 403 1088 265 
Q 1357 128 1696 128 
z
" transform="scale(0.015625)"/>
       </defs>
       <use xlink:href="#NotoSansSC-Thin-38"/>
       <use xlink:href="#NotoSansSC-Thin-35" transform="translate(52.099991 0)"/>
      </g>
     </g>
    </g>
    <g id="ytick_2">
     <g id="line2d_11">
      <path d="M 41.698594 220.121638 
L 356.518594 220.121638 
" clip-path="url(#p0c42dd16cc)" style="fill: none; stroke: #e2e8f0; stroke-opacity: 0.6; stroke-width: 0.5; stroke-linecap: square"/>
     </g>
     <g id="line2d_12"/>
     <g id="text_10">
      <!-- 90 -->
      <g style="fill: #94a3b8" transform="translate(28.821719 223.694919) scale(0.09 -0.09)">
       <use xlink:href="#NotoSansSC-Thin-39"/>
       <use xlink:href="#NotoSansSC-Thin-30" transform="translate(52.099991 0)"/>
      </g>
     </g>
    </g>
    <g id="ytick_3">
     <g id="line2d_13">
      <path d="M 41.698594 185.100838 
L 356.518594 185.100838 
" clip-path="url(#p0c42dd16cc)" style="fill: none; stroke: #e2e8f0; stroke-opacity: 0.6; stroke-width: 0.5; stroke-linecap: square"/>
     </g>
     <g id="line2d_14"/>
     <g id="text_11">
      <!-- 95 -->
      <g style="fill: #94a3b8" transform="translate(28.821719 188.674119) scale(0.09 -0.09)">
       <use xlink:href="#NotoSansSC-Thin-39"/>
       <use xlink:href="#NotoSansSC-Thin-35" transform="translate(52.099991 0)"/>
      </g>
     </g>
    </g>
    <g id="ytick_4">
     <g id="line2d_15">
      <path d="M 41.698594 150.080038 
L 356.518594 150.080038 
" clip-path="url(#p0c42dd16cc)" style="fill: none; stroke: #e2e8f0; stroke-opacity: 0.6; stroke-width: 0.5; stroke-linecap: square"/>
     </g>
     <g id="line2d_16"/>
     <g id="text_12">
      <!-- 100 -->
      <g style="fill: #94a3b8" transform="translate(24.133281 153.653319) scale(0.09 -0.09)">
       <use xlink:href="#NotoSansSC-Thin-31"/>
       <use xlink:href="#NotoSansSC-Thin-30" transform="translate(52.099991 0)"/>
       <use xlink:href="#NotoSansSC-Thin-30" transform="translate(104.199982 0)"/>
      </g>
     </g>
    </g>
    <g id="ytick_5">
     <g id="line2d_17">
      <path d="M 41.698594 115.059237 
L 356.518594 115.059237 
" clip-path="url(#p0c42dd16cc)" style="fill: none; stroke: #e2e8f0; stroke-opacity: 0.6; stroke-width: 0.5; stroke-linecap: square"/>
     </g>
     <g id="line2d_18"/>
     <g id="text_13">
      <!-- 105 -->
      <g style="fill: #94a3b8" transform="translate(24.133281 118.632519) scale(0.09 -0.09)">
       <use xlink:href="#NotoSansSC-Thin-31"/>
       <use xlink:href="#NotoSansSC-Thin-30" transform="translate(52.099991 0)"/>
       <use xlink:href="#NotoSansSC-Thin-35" transform="translate(104.199982 0)"/>
      </g>
     </g>
    </g>
    <g id="ytick_6">
     <g id="line2d_19">
      <path d="M 41.698594 80.038437 
L 356.518594 80.038437 
" clip-path="url(#p0c42dd16cc)" style="fill: none; stroke: #e2e8f0; stroke-opacity: 0.6; stroke-width: 0.5; stroke-linecap: square"/>
     </g>
     <g id="line2d_20"/>
     <g id="text_14">
      <!-- 110 -->
      <g style="fill: #94a3b8" transform="translate(24.133281 83.611719) scale(0.09 -0.09)">
       <use xlink:href="#NotoSansSC-Thin-31"/>
       <use xlink:href="#NotoSansSC-Thin-31" transform="translate(52.099991 0)"/>
       <use xlink:href="#NotoSansSC-Thin-30" transform="translate(104.199982 0)"/>
      </g>
     </g>
    </g>
    <g id="text_15">
     <!-- 美元/桶 -->
     <g style="fill: #64748b" transform="translate(17.946563 182.872156) rotate(-90) scale(0.09 -0.09)">
      <defs>
       <path id="NotoSansSC-Thin-7f8e" d="M 659 4314 
L 5747 4314 
L 5747 4128 
L 659 4128 
L 659 4314 
z
M 998 3405 
L 5434 3405 
L 5434 3219 
L 998 3219 
L 998 3405 
z
M 538 1626 
L 5990 1626 
L 5990 1440 
L 538 1440 
L 538 1626 
z
M 403 2470 
L 6022 2470 
L 6022 2285 
L 403 2285 
L 403 2470 
z
M 3091 4250 
L 3283 4250 
L 3283 2387 
L 3091 2387 
L 3091 4250 
z
M 1517 5235 
L 1677 5318 
Q 1869 5120 2048 4873 
Q 2227 4627 2310 4442 
L 2138 4346 
Q 2054 4538 1878 4787 
Q 1702 5037 1517 5235 
z
M 4666 5318 
L 4838 5216 
Q 4678 4954 4473 4656 
Q 4269 4358 4096 4154 
L 3962 4243 
Q 4077 4384 4208 4576 
Q 4339 4768 4460 4963 
Q 4582 5158 4666 5318 
z
M 3110 2426 
L 3309 2426 
Q 3251 1946 3145 1549 
Q 3040 1152 2845 835 
Q 2650 518 2333 275 
Q 2016 32 1552 -141 
Q 1088 -314 442 -422 
Q 435 -403 416 -371 
Q 397 -339 377 -307 
Q 358 -275 339 -256 
Q 979 -154 1433 12 
Q 1888 179 2192 409 
Q 2496 640 2681 937 
Q 2867 1235 2966 1606 
Q 3066 1978 3110 2426 
z
M 3328 1581 
Q 3642 832 4349 381 
Q 5056 -70 6029 -237 
Q 6010 -256 5984 -288 
Q 5958 -320 5936 -352 
Q 5914 -384 5901 -416 
Q 5254 -282 4710 -29 
Q 4166 224 3766 611 
Q 3366 998 3142 1517 
L 3328 1581 
z
" transform="scale(0.015625)"/>
       <path id="NotoSansSC-Thin-5143" d="M 3872 2835 
L 4058 2835 
L 4058 109 
Q 4058 -45 4128 -93 
Q 4198 -141 4416 -141 
Q 4467 -141 4611 -141 
Q 4755 -141 4934 -141 
Q 5114 -141 5267 -141 
Q 5421 -141 5498 -141 
Q 5651 -141 5728 -51 
Q 5805 38 5833 300 
Q 5862 563 5869 1082 
Q 5901 1062 5933 1040 
Q 5965 1018 6000 1005 
Q 6035 992 6061 979 
Q 6048 461 6003 176 
Q 5958 -109 5846 -221 
Q 5734 -333 5498 -333 
Q 5459 -333 5302 -333 
Q 5146 -333 4957 -333 
Q 4768 -333 4614 -333 
Q 4461 -333 4422 -333 
Q 4211 -333 4089 -297 
Q 3968 -262 3920 -166 
Q 3872 -70 3872 109 
L 3872 2835 
z
M 422 2918 
L 5984 2918 
L 5984 2726 
L 422 2726 
L 422 2918 
z
M 960 4768 
L 5485 4768 
L 5485 4582 
L 960 4582 
L 960 4768 
z
M 2234 2784 
L 2426 2784 
Q 2381 2240 2285 1750 
Q 2189 1261 1987 845 
Q 1786 429 1437 102 
Q 1088 -224 544 -435 
Q 531 -410 489 -371 
Q 448 -333 416 -307 
Q 947 -102 1283 211 
Q 1619 525 1814 928 
Q 2010 1331 2102 1801 
Q 2195 2272 2234 2784 
z
" transform="scale(0.015625)"/>
       <path id="NotoSansSC-Thin-6876" d="M 403 4038 
L 2330 4038 
L 2330 3853 
L 403 3853 
L 403 4038 
z
M 1318 5318 
L 1504 5318 
L 1504 -435 
L 1318 -435 
L 1318 5318 
z
M 1306 3987 
L 1478 3949 
Q 1402 3571 1286 3155 
Q 1171 2739 1027 2339 
Q 883 1939 726 1593 
Q 570 1248 403 1011 
Q 390 1037 364 1065 
Q 339 1094 310 1120 
Q 282 1146 256 1158 
Q 410 1389 570 1715 
Q 730 2042 870 2426 
Q 1011 2810 1126 3213 
Q 1242 3616 1306 3987 
z
M 1466 3584 
Q 1517 3520 1625 3357 
Q 1734 3194 1862 3002 
Q 1990 2810 2096 2643 
Q 2202 2477 2246 2406 
L 2106 2234 
Q 2054 2330 1952 2509 
Q 1850 2688 1731 2886 
Q 1613 3085 1507 3248 
Q 1402 3411 1344 3488 
L 1466 3584 
z
M 2458 5050 
L 5568 5050 
L 5568 4864 
L 2458 4864 
L 2458 5050 
z
M 3078 4326 
L 3194 4467 
Q 3482 4346 3795 4182 
Q 4109 4019 4390 3856 
Q 4672 3693 4858 3558 
L 4742 3392 
Q 4563 3533 4284 3699 
Q 4006 3866 3689 4032 
Q 3373 4198 3078 4326 
z
M 2496 3482 
L 5709 3482 
L 5709 3296 
L 2688 3296 
L 2688 -448 
L 2496 -448 
L 2496 3482 
z
M 2586 2374 
L 5696 2374 
L 5696 2182 
L 2586 2182 
L 2586 2374 
z
M 2586 1229 
L 5696 1229 
L 5696 1043 
L 2586 1043 
L 2586 1229 
z
M 5587 3482 
L 5779 3482 
L 5779 -179 
Q 5779 -282 5747 -339 
Q 5715 -397 5626 -422 
Q 5542 -448 5372 -451 
Q 5203 -454 4922 -454 
Q 4915 -422 4892 -371 
Q 4870 -320 4845 -282 
Q 5082 -288 5258 -288 
Q 5434 -288 5485 -282 
Q 5587 -282 5587 -179 
L 5587 3482 
z
M 4013 3418 
L 4205 3418 
L 4205 -397 
L 4013 -397 
L 4013 3418 
z
M 5504 5050 
L 5549 5050 
L 5587 5062 
L 5728 4966 
Q 5530 4749 5261 4541 
Q 4992 4333 4701 4153 
Q 4410 3974 4134 3840 
Q 4109 3872 4070 3907 
Q 4032 3942 4000 3968 
Q 4275 4090 4556 4262 
Q 4838 4435 5088 4627 
Q 5338 4819 5504 5005 
L 5504 5050 
z
" transform="scale(0.015625)"/>
      </defs>
      <use xlink:href="#NotoSansSC-Thin-7f8e"/>
      <use xlink:href="#NotoSansSC-Thin-5143" transform="translate(99.999985 0)"/>
      <use xlink:href="#NotoSansSC-Thin-2f" transform="translate(199.999969 0)"/>
      <use xlink:href="#NotoSansSC-Thin-6876" transform="translate(239.59996 0)"/>
     </g>
    </g>
   </g>
   <g id="FillBetweenPolyCollection_1">
    <path d="M 56.008594 850.496037 
L 56.008594 123.464229 
L 96.894308 121.362982 
L 137.780022 162.267276 
L 178.665737 174.594597 
L 219.551451 190.704165 
L 260.437165 200.509989 
L 301.322879 209.615397 
L 342.208594 218.020389 
L 342.208594 850.496037 
L 342.208594 850.496037 
L 301.322879 850.496037 
L 260.437165 850.496037 
L 219.551451 850.496037 
L 178.665737 850.496037 
L 137.780022 850.496037 
L 96.894308 850.496037 
L 56.008594 850.496037 
z
" clip-path="url(#p0c42dd16cc)" style="fill: #ef4444; fill-opacity: 0.08; stroke: #ef4444; stroke-opacity: 0.08; stroke-width: 1.5"/>
   </g>
   <g id="patch_3">
    <path d="M 328.952965 223.200563 
Q 334.650361 220.974075 338.785743 219.358007 
" style="fill: none; stroke: #dc2626; stroke-width: 1.5; stroke-linecap: round"/>
    <path d="M 333.886796 218.910446 
L 338.785743 219.358007 
L 335.488326 223.008629 
" style="fill: none; stroke: #dc2626; stroke-width: 1.5; stroke-linecap: round"/>
   </g>
   <g id="text_16">
    <!-- $90.30 -->
    <g style="fill: #dc2626" transform="translate(293.145737 234.129957) scale(0.11 -0.11)">
     <defs>
      <path id="NotoSansSC-Thin-24" d="M 1715 -83 
Q 1446 -83 1206 0 
Q 966 83 771 208 
Q 576 333 435 467 
L 570 634 
Q 762 454 1053 291 
Q 1344 128 1715 128 
Q 2182 128 2425 381 
Q 2669 634 2669 1037 
Q 2669 1350 2557 1561 
Q 2445 1773 2262 1917 
Q 2080 2061 1862 2173 
Q 1645 2285 1427 2393 
Q 1210 2502 1027 2646 
Q 845 2790 733 2998 
Q 621 3206 621 3514 
Q 621 3827 768 4070 
Q 915 4314 1164 4451 
Q 1414 4589 1722 4589 
Q 2118 4589 2355 4445 
Q 2592 4301 2784 4096 
L 2637 3949 
Q 2438 4154 2243 4266 
Q 2048 4378 1709 4378 
Q 1331 4378 1094 4134 
Q 858 3891 858 3533 
Q 858 3251 970 3068 
Q 1082 2886 1264 2758 
Q 1446 2630 1664 2524 
Q 1882 2419 2099 2304 
Q 2317 2189 2499 2032 
Q 2682 1875 2794 1638 
Q 2906 1402 2906 1050 
Q 2906 698 2746 445 
Q 2586 192 2317 54 
Q 2048 -83 1715 -83 
z
M 1606 -774 
L 1606 -51 
L 1824 -51 
L 1824 -774 
L 1606 -774 
z
M 1606 4461 
L 1606 5280 
L 1824 5280 
L 1824 4461 
L 1606 4461 
z
" transform="scale(0.015625)"/>
      <path id="NotoSansSC-Thin-2e" d="M 736 -83 
Q 640 -83 560 -9 
Q 480 64 480 192 
Q 480 333 560 406 
Q 640 480 736 480 
Q 838 480 918 406 
Q 998 333 998 192 
Q 998 64 918 -9 
Q 838 -83 736 -83 
z
" transform="scale(0.015625)"/>
     </defs>
     <use xlink:href="#NotoSansSC-Thin-24"/>
     <use xlink:href="#NotoSansSC-Thin-39" transform="translate(52.099991 0)"/>
     <use xlink:href="#NotoSansSC-Thin-30" transform="translate(104.199982 0)"/>
     <use xlink:href="#NotoSansSC-Thin-2e" transform="translate(156.299973 0)"/>
     <use xlink:href="#NotoSansSC-Thin-33" transform="translate(179.399963 0)"/>
     <use xlink:href="#NotoSansSC-Thin-30" transform="translate(231.499954 0)"/>
    </g>
   </g>
   <g id="text_17">
    <g id="patch_4">
     <path d="M 47.994994 94.673799 
L 108.266869 94.673799 
Q 110.066869 94.673799 110.066869 92.873799 
L 110.066869 83.540518 
Q 110.066869 81.740518 108.266869 81.740518 
L 47.994994 81.740518 
Q 46.194994 81.740518 46.194994 83.540518 
L 46.194994 92.873799 
Q 46.194994 94.673799 47.994994 94.673799 
z
" style="fill: #fef2f2; opacity: 0.9; stroke: #fecaca; stroke-width: 1.5; stroke-linejoin: miter"/>
    </g>
    <!-- 本周累计 -6.5% -->
    <g style="fill: #dc2626" transform="translate(47.994994 90.68708) scale(0.09 -0.09)">
     <defs>
      <path id="NotoSansSC-Thin-672c" d="M 454 3859 
L 5958 3859 
L 5958 3667 
L 454 3667 
L 454 3859 
z
M 1453 1056 
L 4954 1056 
L 4954 864 
L 1453 864 
L 1453 1056 
z
M 3098 5306 
L 3290 5306 
L 3290 -448 
L 3098 -448 
L 3098 5306 
z
M 2816 3821 
L 2982 3757 
Q 2720 3104 2320 2502 
Q 1920 1901 1443 1414 
Q 966 928 467 627 
Q 454 653 428 681 
Q 403 710 377 736 
Q 352 762 326 781 
Q 826 1056 1299 1529 
Q 1773 2003 2169 2598 
Q 2566 3194 2816 3821 
z
M 3558 3802 
Q 3808 3162 4208 2570 
Q 4608 1978 5104 1514 
Q 5600 1050 6131 787 
Q 6106 768 6080 742 
Q 6054 717 6032 688 
Q 6010 659 5990 634 
Q 5459 915 4966 1395 
Q 4474 1875 4067 2480 
Q 3661 3085 3398 3744 
L 3558 3802 
z
" transform="scale(0.015625)"/>
      <path id="NotoSansSC-Thin-5468" d="M 1184 5005 
L 5370 5005 
L 5370 4819 
L 1184 4819 
L 1184 5005 
z
M 1766 3974 
L 4704 3974 
L 4704 3789 
L 1766 3789 
L 1766 3974 
z
M 1587 2938 
L 4896 2938 
L 4896 2746 
L 1587 2746 
L 1587 2938 
z
M 1082 5005 
L 1267 5005 
L 1267 3085 
Q 1267 2688 1238 2227 
Q 1210 1766 1126 1289 
Q 1043 813 873 358 
Q 704 -96 422 -493 
Q 403 -474 377 -448 
Q 352 -422 326 -400 
Q 301 -378 275 -365 
Q 550 19 710 457 
Q 870 896 950 1353 
Q 1030 1811 1056 2252 
Q 1082 2694 1082 3085 
L 1082 5005 
z
M 5299 5005 
L 5491 5005 
L 5491 -83 
Q 5491 -237 5436 -307 
Q 5382 -378 5261 -410 
Q 5146 -435 4893 -438 
Q 4640 -442 4192 -442 
Q 4186 -410 4160 -352 
Q 4134 -294 4109 -250 
Q 4358 -256 4569 -256 
Q 4781 -256 4928 -253 
Q 5075 -250 5133 -250 
Q 5222 -243 5260 -208 
Q 5299 -173 5299 -90 
L 5299 5005 
z
M 3104 4659 
L 3296 4659 
L 3296 2797 
L 3104 2797 
L 3104 4659 
z
M 2106 2035 
L 4480 2035 
L 4480 422 
L 2106 422 
L 2106 608 
L 4294 608 
L 4294 1843 
L 2106 1843 
L 2106 2035 
z
M 1984 2035 
L 2170 2035 
L 2170 58 
L 1984 58 
L 1984 2035 
z
" transform="scale(0.015625)"/>
      <path id="NotoSansSC-Thin-7d2f" d="M 3110 5018 
L 3302 5018 
L 3302 3123 
L 3110 3123 
L 3110 5018 
z
M 4058 685 
L 4198 806 
Q 4493 678 4813 508 
Q 5133 339 5414 166 
Q 5696 -6 5882 -160 
L 5741 -301 
Q 5562 -154 5280 25 
Q 4998 205 4678 377 
Q 4358 550 4058 685 
z
M 2003 819 
L 2182 749 
Q 1978 550 1712 358 
Q 1446 166 1164 0 
Q 883 -166 621 -294 
Q 608 -275 576 -249 
Q 544 -224 512 -198 
Q 480 -173 454 -160 
Q 870 26 1289 285 
Q 1709 544 2003 819 
z
M 1146 3968 
L 1146 3226 
L 5325 3226 
L 5325 3968 
L 1146 3968 
z
M 1146 4883 
L 1146 4154 
L 5325 4154 
L 5325 4883 
L 1146 4883 
z
M 954 5069 
L 5517 5069 
L 5517 3034 
L 954 3034 
L 954 5069 
z
M 4352 2125 
L 4493 2234 
Q 4710 2061 4940 1853 
Q 5171 1645 5369 1443 
Q 5568 1242 5683 1082 
L 5542 954 
Q 5414 1120 5216 1328 
Q 5018 1536 4790 1747 
Q 4563 1958 4352 2125 
z
M 768 1069 
Q 768 1101 755 1139 
Q 742 1178 729 1219 
Q 717 1261 704 1293 
Q 826 1299 1040 1360 
Q 1254 1421 1510 1517 
Q 1651 1568 1939 1686 
Q 2227 1805 2604 1977 
Q 2982 2150 3395 2361 
Q 3808 2573 4192 2803 
L 4371 2675 
Q 3488 2170 2643 1805 
Q 1798 1440 973 1178 
L 973 1165 
Q 973 1165 941 1158 
Q 909 1152 870 1139 
Q 832 1126 800 1107 
Q 768 1088 768 1069 
z
M 768 1069 
L 768 1222 
L 973 1325 
L 5190 1562 
Q 5197 1517 5206 1465 
Q 5216 1414 5229 1382 
Q 4230 1325 3520 1283 
Q 2810 1242 2333 1213 
Q 1856 1184 1565 1165 
Q 1274 1146 1114 1130 
Q 954 1114 883 1101 
Q 813 1088 768 1069 
z
M 1152 1984 
Q 1152 2010 1139 2051 
Q 1126 2093 1113 2134 
Q 1101 2176 1088 2202 
Q 1158 2208 1260 2243 
Q 1363 2278 1478 2342 
Q 1568 2387 1766 2508 
Q 1965 2630 2211 2803 
Q 2458 2976 2669 3168 
L 2861 3066 
Q 2477 2758 2093 2515 
Q 1709 2272 1344 2106 
L 1344 2099 
Q 1344 2099 1315 2089 
Q 1286 2080 1248 2064 
Q 1210 2048 1181 2029 
Q 1152 2010 1152 1984 
z
M 1152 1984 
L 1152 2144 
L 1318 2227 
L 3398 2342 
Q 3373 2298 3353 2243 
Q 3334 2189 3322 2157 
Q 2618 2118 2198 2089 
Q 1779 2061 1568 2045 
Q 1357 2029 1273 2016 
Q 1190 2003 1152 1984 
z
M 3130 1338 
L 3341 1338 
L 3341 -154 
Q 3341 -269 3305 -323 
Q 3270 -378 3174 -410 
Q 3078 -435 2876 -438 
Q 2675 -442 2349 -442 
Q 2342 -403 2316 -352 
Q 2291 -301 2259 -256 
Q 2458 -256 2614 -259 
Q 2771 -262 2876 -259 
Q 2982 -256 3027 -256 
Q 3091 -250 3110 -230 
Q 3130 -211 3130 -154 
L 3130 1338 
z
" transform="scale(0.015625)"/>
      <path id="NotoSansSC-Thin-8ba1" d="M 1018 5037 
L 1152 5158 
Q 1331 5011 1516 4835 
Q 1702 4659 1862 4489 
Q 2022 4320 2118 4186 
L 1990 4032 
Q 1888 4166 1728 4342 
Q 1568 4518 1382 4704 
Q 1197 4890 1018 5037 
z
M 1299 -230 
L 1293 -32 
L 1402 128 
L 2554 890 
Q 2566 870 2579 841 
Q 2592 813 2608 787 
Q 2624 762 2630 742 
Q 2208 454 1958 278 
Q 1709 102 1577 6 
Q 1446 -90 1388 -141 
Q 1331 -192 1299 -230 
z
M 346 3270 
L 1542 3270 
L 1542 3078 
L 346 3078 
L 346 3270 
z
M 2413 3085 
L 6086 3085 
L 6086 2899 
L 2413 2899 
L 2413 3085 
z
M 4122 5306 
L 4307 5306 
L 4307 -448 
L 4122 -448 
L 4122 5306 
z
M 1299 -230 
Q 1286 -205 1264 -173 
Q 1242 -141 1216 -112 
Q 1190 -83 1165 -64 
Q 1235 -19 1340 99 
Q 1446 218 1446 416 
L 1446 3270 
L 1632 3270 
L 1632 128 
Q 1632 128 1597 99 
Q 1562 70 1514 28 
Q 1466 -13 1418 -64 
Q 1370 -115 1334 -156 
Q 1299 -198 1299 -230 
z
" transform="scale(0.015625)"/>
      <path id="NotoSansSC-Thin-20" transform="scale(0.015625)"/>
      <path id="NotoSansSC-Thin-2d" d="M 282 1638 
L 282 1862 
L 1811 1862 
L 1811 1638 
L 282 1638 
z
" transform="scale(0.015625)"/>
      <path id="NotoSansSC-Thin-25" d="M 1267 1818 
Q 966 1818 745 1987 
Q 525 2157 409 2483 
Q 294 2810 294 3283 
Q 294 3750 409 4070 
Q 525 4390 745 4560 
Q 966 4730 1267 4730 
Q 1574 4730 1795 4560 
Q 2016 4390 2131 4070 
Q 2246 3750 2246 3283 
Q 2246 2810 2131 2483 
Q 2016 2157 1795 1987 
Q 1574 1818 1267 1818 
z
M 1267 2003 
Q 1619 2003 1820 2342 
Q 2022 2682 2022 3283 
Q 2022 3885 1820 4214 
Q 1619 4544 1267 4544 
Q 922 4544 717 4214 
Q 512 3885 512 3283 
Q 512 2682 717 2342 
Q 922 2003 1267 2003 
z
M 1382 -83 
L 3987 4730 
L 4218 4730 
L 1619 -83 
L 1382 -83 
z
M 4365 -83 
Q 4058 -83 3840 86 
Q 3622 256 3504 582 
Q 3386 909 3386 1382 
Q 3386 1850 3504 2170 
Q 3622 2490 3840 2659 
Q 4058 2829 4365 2829 
Q 4666 2829 4883 2659 
Q 5101 2490 5219 2170 
Q 5338 1850 5338 1382 
Q 5338 909 5219 582 
Q 5101 256 4883 86 
Q 4666 -83 4365 -83 
z
M 4365 102 
Q 4704 102 4912 441 
Q 5120 781 5120 1382 
Q 5120 1984 4912 2313 
Q 4704 2643 4365 2643 
Q 4013 2643 3808 2313 
Q 3603 1984 3603 1382 
Q 3603 781 3808 441 
Q 4013 102 4365 102 
z
" transform="scale(0.015625)"/>
     </defs>
     <use xlink:href="#NotoSansSC-Thin-672c"/>
     <use xlink:href="#NotoSansSC-Thin-5468" transform="translate(99.999985 0)"/>
     <use xlink:href="#NotoSansSC-Thin-7d2f" transform="translate(199.999969 0)"/>
     <use xlink:href="#NotoSansSC-Thin-8ba1" transform="translate(299.999954 0)"/>
     <use xlink:href="#NotoSansSC-Thin-20" transform="translate(399.999939 0)"/>
     <use xlink:href="#NotoSansSC-Thin-2d" transform="translate(421.999924 0)"/>
     <use xlink:href="#NotoSansSC-Thin-36" transform="translate(454.399918 0)"/>
     <use xlink:href="#NotoSansSC-Thin-2e" transform="translate(506.499908 0)"/>
     <use xlink:href="#NotoSansSC-Thin-35" transform="translate(529.599899 0)"/>
     <use xlink:href="#NotoSansSC-Thin-25" transform="translate(581.69989 0)"/>
    </g>
   </g>
   <g id="line2d_21">
    <path d="M 56.008594 123.464229 
L 96.894308 121.362982 
L 137.780022 162.267276 
L 178.665737 174.594597 
L 219.551451 190.704165 
L 260.437165 200.509989 
L 301.322879 209.615397 
L 342.208594 218.020389 
" clip-path="url(#p0c42dd16cc)" style="fill: none; stroke: #ef4444; stroke-width: 2.8; stroke-linecap: square"/>
    <defs>
     <path id="m21b4701dcd" d="M 0 3 
C 0.795609 3 1.55874 2.683901 2.12132 2.12132 
C 2.683901 1.55874 3 0.795609 3 0 
C 3 -0.795609 2.683901 -1.55874 2.12132 -2.12132 
C 1.55874 -2.683901 0.795609 -3 0 -3 
C -0.795609 -3 -1.55874 -2.683901 -2.12132 -2.12132 
C -2.683901 -1.55874 -3 -0.795609 -3 0 
C -3 0.795609 -2.683901 1.55874 -2.12132 2.12132 
C -1.55874 2.683901 -0.795609 3 0 3 
z
" style="stroke: #ef4444; stroke-width: 2"/>
    </defs>
    <g clip-path="url(#p0c42dd16cc)">
     <use xlink:href="#m21b4701dcd" x="56.008594" y="123.464229" style="fill: #ffffff; stroke: #ef4444; stroke-width: 2"/>
     <use xlink:href="#m21b4701dcd" x="96.894308" y="121.362982" style="fill: #ffffff; stroke: #ef4444; stroke-width: 2"/>
     <use xlink:href="#m21b4701dcd" x="137.780022" y="162.267276" style="fill: #ffffff; stroke: #ef4444; stroke-width: 2"/>
     <use xlink:href="#m21b4701dcd" x="178.665737" y="174.594597" style="fill: #ffffff; stroke: #ef4444; stroke-width: 2"/>
     <use xlink:href="#m21b4701dcd" x="219.551451" y="190.704165" style="fill: #ffffff; stroke: #ef4444; stroke-width: 2"/>
     <use xlink:href="#m21b4701dcd" x="260.437165" y="200.509989" style="fill: #ffffff; stroke: #ef4444; stroke-width: 2"/>
     <use xlink:href="#m21b4701dcd" x="301.322879" y="209.615397" style="fill: #ffffff; stroke: #ef4444; stroke-width: 2"/>
     <use xlink:href="#m21b4701dcd" x="342.208594" y="218.020389" style="fill: #ffffff; stroke: #ef4444; stroke-width: 2"/>
    </g>
   </g>
  </g>
  <g id="text_18">
   <!-- WTI原油期货 近期走势 -->
   <g style="fill: #1e293b" transform="translate(41.698594 21.916875) scale(0.14 -0.14)">
    <defs>
     <path id="NotoSansSC-Thin-57" d="M 1286 0 
L 211 4646 
L 461 4646 
L 1075 1843 
Q 1165 1466 1248 1085 
Q 1331 704 1414 320 
L 1440 320 
Q 1530 704 1622 1085 
Q 1715 1466 1811 1843 
L 2560 4646 
L 2829 4646 
L 3584 1843 
Q 3680 1466 3773 1085 
Q 3866 704 3962 320 
L 3994 320 
Q 4077 704 4153 1085 
Q 4230 1466 4307 1843 
L 4928 4646 
L 5165 4646 
L 4102 0 
L 3853 0 
L 2963 3315 
Q 2899 3597 2838 3840 
Q 2778 4083 2707 4358 
L 2682 4358 
Q 2618 4083 2547 3840 
Q 2477 3597 2413 3315 
L 1536 0 
L 1286 0 
z
" transform="scale(0.015625)"/>
     <path id="NotoSansSC-Thin-54" d="M 1709 0 
L 1709 4435 
L 211 4435 
L 211 4646 
L 3456 4646 
L 3456 4435 
L 1958 4435 
L 1958 0 
L 1709 0 
z
" transform="scale(0.015625)"/>
     <path id="NotoSansSC-Thin-49" d="M 704 0 
L 704 4646 
L 941 4646 
L 941 0 
L 704 0 
z
" transform="scale(0.015625)"/>
     <path id="NotoSansSC-Thin-539f" d="M 1069 4890 
L 5984 4890 
L 5984 4698 
L 1069 4698 
L 1069 4890 
z
M 966 4890 
L 1158 4890 
L 1158 3123 
Q 1158 2746 1136 2304 
Q 1114 1862 1040 1401 
Q 966 941 828 496 
Q 691 51 461 -333 
Q 448 -314 419 -291 
Q 390 -269 361 -246 
Q 333 -224 307 -218 
Q 531 160 662 585 
Q 794 1011 861 1456 
Q 928 1901 947 2326 
Q 966 2752 966 3123 
L 966 4890 
z
M 2080 2675 
L 2080 1882 
L 5222 1882 
L 5222 2675 
L 2080 2675 
z
M 2080 3642 
L 2080 2861 
L 5222 2861 
L 5222 3642 
L 2080 3642 
z
M 1888 3827 
L 5408 3827 
L 5408 1696 
L 1888 1696 
L 1888 3827 
z
M 3539 1869 
L 3725 1869 
L 3725 -141 
Q 3725 -262 3686 -320 
Q 3648 -378 3546 -410 
Q 3437 -435 3203 -435 
Q 2970 -435 2566 -435 
Q 2560 -403 2534 -355 
Q 2509 -307 2483 -262 
Q 2842 -269 3085 -272 
Q 3328 -275 3405 -269 
Q 3488 -262 3513 -236 
Q 3539 -211 3539 -147 
L 3539 1869 
z
M 3552 4563 
L 3744 4506 
Q 3661 4307 3568 4086 
Q 3475 3866 3386 3699 
L 3226 3744 
Q 3315 3917 3408 4150 
Q 3501 4384 3552 4563 
z
M 4506 1133 
L 4653 1216 
Q 4870 1018 5104 784 
Q 5338 550 5546 326 
Q 5754 102 5888 -58 
L 5734 -173 
Q 5600 -6 5392 221 
Q 5184 448 4950 688 
Q 4717 928 4506 1133 
z
M 2458 1248 
L 2643 1184 
Q 2470 960 2265 720 
Q 2061 480 1856 259 
Q 1651 38 1466 -134 
Q 1446 -122 1414 -99 
Q 1382 -77 1350 -54 
Q 1318 -32 1293 -19 
Q 1594 243 1907 582 
Q 2221 922 2458 1248 
z
" transform="scale(0.015625)"/>
     <path id="NotoSansSC-Thin-6cb9" d="M 2528 115 
L 5722 115 
L 5722 -77 
L 2528 -77 
L 2528 115 
z
M 2528 2074 
L 5722 2074 
L 5722 1882 
L 2528 1882 
L 2528 2074 
z
M 3987 5318 
L 4173 5318 
L 4173 38 
L 3987 38 
L 3987 5318 
z
M 2419 3962 
L 5805 3962 
L 5805 -416 
L 5613 -416 
L 5613 3770 
L 2611 3770 
L 2611 -448 
L 2419 -448 
L 2419 3962 
z
M 608 5094 
L 723 5235 
Q 947 5152 1177 5030 
Q 1408 4909 1613 4784 
Q 1818 4659 1946 4544 
L 1830 4371 
Q 1702 4486 1497 4617 
Q 1293 4749 1062 4877 
Q 832 5005 608 5094 
z
M 314 3354 
L 429 3494 
Q 640 3411 857 3292 
Q 1075 3174 1270 3049 
Q 1466 2925 1587 2816 
L 1478 2656 
Q 1350 2765 1158 2893 
Q 966 3021 745 3142 
Q 525 3264 314 3354 
z
M 518 -224 
Q 672 -6 861 301 
Q 1050 608 1242 947 
Q 1434 1286 1594 1600 
L 1734 1478 
Q 1581 1184 1398 854 
Q 1216 525 1030 211 
Q 845 -102 678 -358 
L 518 -224 
z
" transform="scale(0.015625)"/>
     <path id="NotoSansSC-Thin-671f" d="M 3885 4966 
L 5779 4966 
L 5779 4781 
L 3885 4781 
L 3885 4966 
z
M 3885 3475 
L 5779 3475 
L 5779 3290 
L 3885 3290 
L 3885 3475 
z
M 3872 1952 
L 5798 1952 
L 5798 1766 
L 3872 1766 
L 3872 1952 
z
M 5683 4966 
L 5869 4966 
L 5869 -70 
Q 5869 -205 5827 -272 
Q 5786 -339 5677 -371 
Q 5574 -397 5360 -403 
Q 5146 -410 4800 -410 
Q 4794 -365 4768 -307 
Q 4742 -250 4717 -205 
Q 5018 -211 5248 -211 
Q 5478 -211 5555 -205 
Q 5626 -198 5654 -172 
Q 5683 -147 5683 -70 
L 5683 4966 
z
M 3802 4966 
L 3987 4966 
L 3987 2669 
Q 3987 2310 3964 1900 
Q 3942 1491 3875 1068 
Q 3808 646 3673 246 
Q 3539 -154 3309 -493 
Q 3296 -474 3267 -451 
Q 3238 -429 3206 -406 
Q 3174 -384 3149 -378 
Q 3450 70 3587 598 
Q 3725 1126 3763 1664 
Q 3802 2202 3802 2669 
L 3802 4966 
z
M 397 4365 
L 3392 4365 
L 3392 4179 
L 397 4179 
L 397 4365 
z
M 1062 3418 
L 2784 3418 
L 2784 3232 
L 1062 3232 
L 1062 3418 
z
M 1069 2387 
L 2790 2387 
L 2790 2195 
L 1069 2195 
L 1069 2387 
z
M 301 1331 
L 3437 1331 
L 3437 1146 
L 301 1146 
L 301 1331 
z
M 979 5235 
L 1165 5235 
L 1165 1229 
L 979 1229 
L 979 5235 
z
M 2694 5235 
L 2880 5235 
L 2880 1229 
L 2694 1229 
L 2694 5235 
z
M 1286 915 
L 1478 870 
Q 1306 499 1050 150 
Q 794 -198 531 -442 
Q 518 -429 486 -406 
Q 454 -384 422 -361 
Q 390 -339 365 -326 
Q 646 -90 889 236 
Q 1133 563 1286 915 
z
M 2176 806 
L 2336 883 
Q 2464 736 2585 560 
Q 2707 384 2809 217 
Q 2912 51 2970 -83 
L 2803 -179 
Q 2752 -45 2649 124 
Q 2547 294 2422 476 
Q 2298 659 2176 806 
z
" transform="scale(0.015625)"/>
     <path id="NotoSansSC-Thin-8d27" d="M 3085 2112 
L 3277 2112 
L 3277 1510 
Q 3277 1318 3232 1113 
Q 3187 909 3043 697 
Q 2899 486 2604 284 
Q 2310 83 1817 -99 
Q 1325 -282 576 -435 
Q 570 -416 554 -387 
Q 538 -358 518 -326 
Q 499 -294 480 -275 
Q 1210 -128 1686 45 
Q 2163 218 2444 403 
Q 2726 589 2864 781 
Q 3002 973 3043 1158 
Q 3085 1344 3085 1510 
L 3085 2112 
z
M 3341 550 
L 3456 685 
Q 3776 589 4118 470 
Q 4461 352 4797 221 
Q 5133 90 5427 -41 
Q 5722 -173 5933 -288 
L 5818 -442 
Q 5606 -326 5315 -195 
Q 5024 -64 4688 70 
Q 4352 205 4006 329 
Q 3661 454 3341 550 
z
M 1408 2630 
L 5094 2630 
L 5094 614 
L 4909 614 
L 4909 2438 
L 1594 2438 
L 1594 614 
L 1408 614 
L 1408 2630 
z
M 5626 5043 
L 5798 4915 
Q 5421 4710 4870 4528 
Q 4320 4346 3702 4198 
Q 3085 4051 2490 3936 
Q 2483 3968 2464 4006 
Q 2445 4045 2426 4077 
Q 2861 4166 3321 4272 
Q 3782 4378 4214 4499 
Q 4646 4621 5011 4758 
Q 5376 4896 5626 5043 
z
M 3462 5286 
L 3654 5286 
L 3654 3488 
Q 3654 3366 3728 3328 
Q 3802 3290 4058 3290 
Q 4122 3290 4304 3290 
Q 4486 3290 4710 3290 
Q 4934 3290 5126 3290 
Q 5318 3290 5402 3290 
Q 5542 3290 5609 3338 
Q 5677 3386 5705 3536 
Q 5734 3686 5747 4000 
Q 5786 3974 5837 3955 
Q 5888 3936 5933 3923 
Q 5920 3590 5875 3411 
Q 5830 3232 5724 3165 
Q 5619 3098 5408 3098 
Q 5376 3098 5241 3098 
Q 5107 3098 4924 3098 
Q 4742 3098 4560 3098 
Q 4378 3098 4243 3098 
Q 4109 3098 4077 3098 
Q 3840 3098 3705 3126 
Q 3571 3155 3516 3238 
Q 3462 3322 3462 3488 
L 3462 5286 
z
M 2266 5325 
L 2438 5261 
Q 2189 4947 1859 4659 
Q 1530 4371 1171 4128 
Q 813 3885 461 3693 
Q 448 3712 419 3737 
Q 390 3763 358 3788 
Q 326 3814 294 3827 
Q 659 4006 1024 4243 
Q 1389 4480 1709 4755 
Q 2029 5030 2266 5325 
z
M 1555 4538 
L 1747 4723 
L 1747 4717 
L 1747 2950 
L 1555 2950 
L 1555 4538 
z
" transform="scale(0.015625)"/>
     <path id="NotoSansSC-Thin-8fd1" d="M 2829 3334 
L 6054 3334 
L 6054 3142 
L 2829 3142 
L 2829 3334 
z
M 4570 3226 
L 4755 3226 
L 4755 429 
L 4570 429 
L 4570 3226 
z
M 1574 2970 
L 1574 685 
L 1389 685 
L 1389 2778 
L 365 2778 
L 365 2970 
L 1574 2970 
z
M 2752 4922 
L 2944 4922 
L 2944 3494 
Q 2944 3155 2918 2764 
Q 2893 2374 2819 1968 
Q 2746 1562 2602 1171 
Q 2458 781 2221 442 
Q 2208 461 2179 483 
Q 2150 506 2121 525 
Q 2093 544 2074 557 
Q 2381 998 2525 1513 
Q 2669 2029 2710 2544 
Q 2752 3059 2752 3494 
L 2752 4922 
z
M 5645 5325 
L 5811 5178 
Q 5446 5075 4940 4995 
Q 4435 4915 3881 4857 
Q 3328 4800 2816 4762 
Q 2810 4794 2790 4842 
Q 2771 4890 2752 4922 
Q 3130 4954 3536 4992 
Q 3942 5030 4336 5084 
Q 4730 5139 5069 5200 
Q 5408 5261 5645 5325 
z
M 1485 749 
Q 1594 749 1680 688 
Q 1766 627 1878 528 
Q 1990 429 2163 307 
Q 2464 96 2854 38 
Q 3245 -19 3789 -19 
Q 4102 -19 4419 -12 
Q 4736 -6 5037 6 
Q 5338 19 5610 35 
Q 5882 51 6106 70 
Q 6093 45 6080 6 
Q 6067 -32 6060 -70 
Q 6054 -109 6048 -141 
Q 5875 -147 5587 -160 
Q 5299 -173 4963 -182 
Q 4627 -192 4313 -198 
Q 4000 -205 3789 -205 
Q 3206 -205 2793 -131 
Q 2381 -58 2061 166 
Q 1882 294 1738 435 
Q 1594 576 1485 576 
Q 1363 576 1209 470 
Q 1056 365 873 179 
Q 691 -6 480 -256 
L 339 -109 
Q 666 256 957 502 
Q 1248 749 1485 749 
z
M 646 5069 
L 794 5165 
Q 979 5005 1164 4816 
Q 1350 4627 1513 4441 
Q 1677 4256 1779 4115 
L 1626 4000 
Q 1530 4147 1366 4332 
Q 1203 4518 1017 4713 
Q 832 4909 646 5069 
z
" transform="scale(0.015625)"/>
     <path id="NotoSansSC-Thin-8d70" d="M 3200 1709 
L 5523 1709 
L 5523 1517 
L 3200 1517 
L 3200 1709 
z
M 1555 1632 
Q 1747 1062 2044 707 
Q 2342 352 2739 160 
Q 3136 -32 3616 -102 
Q 4096 -173 4653 -173 
Q 4691 -173 4832 -173 
Q 4973 -173 5165 -173 
Q 5357 -173 5552 -173 
Q 5747 -173 5900 -173 
Q 6054 -173 6112 -173 
Q 6093 -198 6073 -236 
Q 6054 -275 6041 -310 
Q 6029 -346 6022 -371 
L 5722 -371 
L 4653 -371 
Q 4058 -371 3552 -294 
Q 3046 -218 2636 -13 
Q 2227 192 1916 566 
Q 1606 941 1402 1542 
L 1555 1632 
z
M 998 4467 
L 5491 4467 
L 5491 4282 
L 998 4282 
L 998 4467 
z
M 454 3136 
L 5933 3136 
L 5933 2950 
L 454 2950 
L 454 3136 
z
M 3091 5299 
L 3283 5299 
L 3283 3066 
L 3091 3066 
L 3091 5299 
z
M 3098 3110 
L 3290 3110 
L 3290 -102 
L 3098 -58 
L 3098 3110 
z
M 1555 2438 
L 1766 2413 
Q 1709 1894 1558 1350 
Q 1408 806 1139 329 
Q 870 -147 442 -474 
Q 429 -454 403 -432 
Q 378 -410 352 -384 
Q 326 -358 301 -346 
Q 723 -26 982 438 
Q 1242 902 1376 1427 
Q 1510 1952 1555 2438 
z
" transform="scale(0.015625)"/>
     <path id="NotoSansSC-Thin-52bf" d="M 371 3392 
Q 653 3450 1024 3520 
Q 1395 3590 1820 3680 
Q 2246 3770 2682 3859 
L 2694 3661 
Q 2093 3539 1494 3414 
Q 896 3290 442 3194 
L 371 3392 
z
M 454 4614 
L 2662 4614 
L 2662 4429 
L 454 4429 
L 454 4614 
z
M 1530 5318 
L 1722 5318 
L 1722 2554 
Q 1722 2445 1686 2393 
Q 1651 2342 1562 2317 
Q 1478 2291 1302 2284 
Q 1126 2278 819 2285 
Q 813 2317 790 2368 
Q 768 2419 742 2451 
Q 998 2445 1184 2445 
Q 1370 2445 1427 2451 
Q 1530 2451 1530 2547 
L 1530 5318 
z
M 2790 4627 
L 5197 4627 
L 5197 4442 
L 2790 4442 
L 2790 4627 
z
M 2848 3872 
L 2970 4000 
Q 3290 3821 3635 3593 
Q 3981 3366 4291 3148 
Q 4602 2931 4800 2758 
L 4678 2605 
Q 4480 2778 4173 3002 
Q 3866 3226 3517 3456 
Q 3168 3686 2848 3872 
z
M 5101 4627 
L 5293 4627 
Q 5286 3866 5305 3389 
Q 5325 2912 5414 2691 
Q 5504 2470 5696 2470 
Q 5805 2470 5843 2592 
Q 5882 2714 5901 3066 
Q 5946 3040 5990 3017 
Q 6035 2995 6080 2982 
Q 6067 2707 6022 2553 
Q 5978 2400 5898 2339 
Q 5818 2278 5690 2278 
Q 5466 2278 5341 2435 
Q 5216 2592 5165 2893 
Q 5114 3194 5107 3629 
Q 5101 4064 5101 4627 
z
M 3923 5318 
L 4109 5318 
Q 4090 4691 4026 4204 
Q 3962 3718 3814 3350 
Q 3667 2982 3398 2720 
Q 3130 2458 2694 2278 
Q 2675 2310 2633 2348 
Q 2592 2387 2560 2406 
Q 2982 2579 3244 2828 
Q 3507 3078 3648 3430 
Q 3789 3782 3846 4249 
Q 3904 4717 3923 5318 
z
M 640 1728 
L 5299 1728 
L 5299 1542 
L 640 1542 
L 640 1728 
z
M 5242 1728 
L 5440 1728 
Q 5440 1728 5437 1705 
Q 5434 1683 5434 1654 
Q 5434 1626 5427 1606 
Q 5363 1011 5299 636 
Q 5235 262 5161 64 
Q 5088 -134 4986 -224 
Q 4915 -288 4832 -310 
Q 4749 -333 4608 -339 
Q 4474 -346 4202 -336 
Q 3930 -326 3622 -301 
Q 3616 -256 3603 -205 
Q 3590 -154 3558 -115 
Q 3891 -141 4179 -150 
Q 4467 -160 4570 -160 
Q 4678 -160 4736 -150 
Q 4794 -141 4838 -102 
Q 4922 -32 4992 163 
Q 5062 358 5123 729 
Q 5184 1101 5242 1690 
L 5242 1728 
z
M 2899 2253 
L 3098 2253 
Q 3014 1754 2854 1331 
Q 2694 909 2400 566 
Q 2106 224 1632 -32 
Q 1158 -288 448 -442 
Q 435 -410 403 -358 
Q 371 -307 339 -282 
Q 896 -166 1302 16 
Q 1709 198 1987 432 
Q 2266 666 2448 950 
Q 2630 1235 2736 1561 
Q 2842 1888 2899 2253 
z
" transform="scale(0.015625)"/>
    </defs>
    <use xlink:href="#NotoSansSC-Thin-57"/>
    <use xlink:href="#NotoSansSC-Thin-54" transform="translate(84.199982 0)"/>
    <use xlink:href="#NotoSansSC-Thin-49" transform="translate(141.499969 0)"/>
    <use xlink:href="#NotoSansSC-Thin-539f" transform="translate(167.199966 0)"/>
    <use xlink:href="#NotoSansSC-Thin-6cb9" transform="translate(267.199951 0)"/>
    <use xlink:href="#NotoSansSC-Thin-671f" transform="translate(367.199936 0)"/>
    <use xlink:href="#NotoSansSC-Thin-8d27" transform="translate(467.199921 0)"/>
    <use xlink:href="#NotoSansSC-Thin-20" transform="translate(567.199905 0)"/>
    <use xlink:href="#NotoSansSC-Thin-8fd1" transform="translate(589.19989 0)"/>
    <use xlink:href="#NotoSansSC-Thin-671f" transform="translate(689.199875 0)"/>
    <use xlink:href="#NotoSansSC-Thin-8d70" transform="translate(789.19986 0)"/>
    <use xlink:href="#NotoSansSC-Thin-52bf" transform="translate(889.199844 0)"/>
   </g>
  </g>
  <g id="text_19">
   <!-- 2026年5月19日 → 5月26日 · 单位: 美元/桶 -->
   <g style="fill: #64748b" transform="translate(41.698594 43.409) scale(0.09 -0.09)">
    <defs>
     <path id="NotoSansSC-Thin-5e74" d="M 1958 5338 
L 2144 5286 
Q 1958 4819 1712 4384 
Q 1466 3949 1178 3577 
Q 890 3206 576 2918 
Q 557 2931 528 2953 
Q 499 2976 467 2998 
Q 435 3021 403 3034 
Q 730 3315 1018 3676 
Q 1306 4038 1546 4464 
Q 1786 4890 1958 5338 
z
M 1626 4474 
L 5811 4474 
L 5811 4288 
L 1530 4288 
L 1626 4474 
z
M 1453 3085 
L 5670 3085 
L 5670 2899 
L 1638 2899 
L 1638 1216 
L 1453 1216 
L 1453 3085 
z
M 352 1318 
L 6061 1318 
L 6061 1133 
L 352 1133 
L 352 1318 
z
M 3405 4371 
L 3597 4371 
L 3597 -454 
L 3405 -454 
L 3405 4371 
z
" transform="scale(0.015625)"/>
     <path id="NotoSansSC-Thin-6708" d="M 1523 4941 
L 4998 4941 
L 4998 4755 
L 1523 4755 
L 1523 4941 
z
M 1517 3386 
L 5024 3386 
L 5024 3200 
L 1517 3200 
L 1517 3386 
z
M 1446 1811 
L 5005 1811 
L 5005 1626 
L 1446 1626 
L 1446 1811 
z
M 1453 4941 
L 1638 4941 
L 1638 3110 
Q 1638 2694 1596 2230 
Q 1555 1766 1427 1289 
Q 1299 813 1046 365 
Q 794 -83 371 -461 
Q 358 -435 336 -409 
Q 314 -384 288 -358 
Q 262 -333 237 -320 
Q 646 51 889 480 
Q 1133 909 1254 1360 
Q 1376 1811 1414 2259 
Q 1453 2707 1453 3110 
L 1453 4941 
z
M 4934 4941 
L 5126 4941 
L 5126 -6 
Q 5126 -179 5065 -259 
Q 5005 -339 4864 -371 
Q 4723 -397 4409 -403 
Q 4096 -410 3565 -410 
Q 3558 -378 3542 -342 
Q 3526 -307 3510 -272 
Q 3494 -237 3475 -205 
Q 3782 -211 4041 -211 
Q 4301 -211 4483 -208 
Q 4666 -205 4736 -205 
Q 4851 -198 4892 -156 
Q 4934 -115 4934 -6 
L 4934 4941 
z
" transform="scale(0.015625)"/>
     <path id="NotoSansSC-Thin-65e5" d="M 1274 4832 
L 5197 4832 
L 5197 -333 
L 5005 -333 
L 5005 4640 
L 1466 4640 
L 1466 -384 
L 1274 -384 
L 1274 4832 
z
M 1389 2547 
L 5088 2547 
L 5088 2362 
L 1389 2362 
L 1389 2547 
z
M 1376 218 
L 5107 218 
L 5107 32 
L 1376 32 
L 1376 218 
z
" transform="scale(0.015625)"/>
     <path id="NotoSansSC-Thin-2192" d="M 5606 2547 
Q 5312 2771 4973 3094 
Q 4634 3418 4371 3757 
L 4563 3891 
Q 4781 3610 5046 3341 
Q 5312 3072 5603 2841 
Q 5894 2611 6176 2432 
Q 5894 2259 5603 2025 
Q 5312 1792 5046 1523 
Q 4781 1254 4563 973 
L 4371 1107 
Q 4634 1446 4973 1772 
Q 5312 2099 5606 2317 
L 256 2317 
L 256 2547 
L 5606 2547 
z
" transform="scale(0.015625)"/>
     <path id="NotoSansSC-Thin-b7" d="M 3200 2976 
Q 3354 2976 3475 2902 
Q 3597 2829 3670 2707 
Q 3744 2586 3744 2432 
Q 3744 2285 3670 2160 
Q 3597 2035 3475 1961 
Q 3354 1888 3200 1888 
Q 3053 1888 2928 1961 
Q 2803 2035 2729 2160 
Q 2656 2285 2656 2432 
Q 2656 2586 2729 2707 
Q 2803 2829 2928 2902 
Q 3053 2976 3200 2976 
z
" transform="scale(0.015625)"/>
     <path id="NotoSansSC-Thin-5355" d="M 3085 4115 
L 3283 4115 
L 3283 -454 
L 3085 -454 
L 3085 4115 
z
M 1210 2893 
L 1210 1952 
L 5242 1952 
L 5242 2893 
L 1210 2893 
z
M 1210 4006 
L 1210 3078 
L 5242 3078 
L 5242 4006 
L 1210 4006 
z
M 1024 4198 
L 5434 4198 
L 5434 1766 
L 1024 1766 
L 1024 4198 
z
M 384 973 
L 6035 973 
L 6035 787 
L 384 787 
L 384 973 
z
M 1632 5203 
L 1786 5286 
Q 1990 5062 2195 4790 
Q 2400 4518 2496 4320 
L 2342 4218 
Q 2240 4416 2038 4697 
Q 1837 4979 1632 5203 
z
M 4710 5306 
L 4896 5216 
Q 4717 4922 4489 4595 
Q 4262 4269 4064 4038 
L 3923 4122 
Q 4051 4275 4198 4486 
Q 4346 4698 4483 4915 
Q 4621 5133 4710 5306 
z
" transform="scale(0.015625)"/>
     <path id="NotoSansSC-Thin-4f4d" d="M 2400 4064 
L 5792 4064 
L 5792 3878 
L 2400 3878 
L 2400 4064 
z
M 2867 3264 
L 3046 3302 
Q 3136 2950 3216 2560 
Q 3296 2170 3363 1786 
Q 3430 1402 3481 1069 
Q 3533 736 3558 486 
L 3360 429 
Q 3341 685 3293 1027 
Q 3245 1370 3177 1757 
Q 3110 2144 3030 2531 
Q 2950 2918 2867 3264 
z
M 5062 3379 
L 5267 3334 
Q 5197 2944 5110 2493 
Q 5024 2042 4925 1578 
Q 4826 1114 4723 688 
Q 4621 262 4525 -77 
L 4346 -19 
Q 4442 314 4544 742 
Q 4646 1171 4742 1638 
Q 4838 2106 4921 2557 
Q 5005 3008 5062 3379 
z
M 2086 13 
L 6099 13 
L 6099 -173 
L 2086 -173 
L 2086 13 
z
M 3757 5254 
L 3930 5312 
Q 4019 5069 4115 4784 
Q 4211 4499 4256 4294 
L 4070 4230 
Q 4026 4435 3939 4723 
Q 3853 5011 3757 5254 
z
M 2010 5293 
L 2189 5242 
Q 1978 4704 1699 4192 
Q 1421 3680 1097 3235 
Q 774 2790 429 2438 
Q 416 2458 390 2486 
Q 365 2515 339 2547 
Q 314 2579 288 2592 
Q 634 2925 950 3357 
Q 1267 3789 1539 4285 
Q 1811 4781 2010 5293 
z
M 1293 3763 
L 1472 3942 
L 1478 3936 
L 1478 -435 
L 1293 -435 
L 1293 3763 
z
" transform="scale(0.015625)"/>
     <path id="NotoSansSC-Thin-3a" d="M 736 2656 
Q 640 2656 560 2726 
Q 480 2797 480 2931 
Q 480 3072 560 3145 
Q 640 3219 736 3219 
Q 838 3219 918 3145 
Q 998 3072 998 2931 
Q 998 2797 918 2726 
Q 838 2656 736 2656 
z
M 736 -83 
Q 640 -83 560 -9 
Q 480 64 480 192 
Q 480 333 560 406 
Q 640 480 736 480 
Q 838 480 918 406 
Q 998 333 998 192 
Q 998 64 918 -9 
Q 838 -83 736 -83 
z
" transform="scale(0.015625)"/>
    </defs>
    <use xlink:href="#NotoSansSC-Thin-32"/>
    <use xlink:href="#NotoSansSC-Thin-30" transform="translate(52.099991 0)"/>
    <use xlink:href="#NotoSansSC-Thin-32" transform="translate(104.199982 0)"/>
    <use xlink:href="#NotoSansSC-Thin-36" transform="translate(156.299973 0)"/>
    <use xlink:href="#NotoSansSC-Thin-5e74" transform="translate(208.399963 0)"/>
    <use xlink:href="#NotoSansSC-Thin-35" transform="translate(308.399948 0)"/>
    <use xlink:href="#NotoSansSC-Thin-6708" transform="translate(360.499939 0)"/>
    <use xlink:href="#NotoSansSC-Thin-31" transform="translate(460.499924 0)"/>
    <use xlink:href="#NotoSansSC-Thin-39" transform="translate(512.599915 0)"/>
    <use xlink:href="#NotoSansSC-Thin-65e5" transform="translate(564.699905 0)"/>
    <use xlink:href="#NotoSansSC-Thin-20" transform="translate(664.69989 0)"/>
    <use xlink:href="#NotoSansSC-Thin-2192" transform="translate(686.699875 0)"/>
    <use xlink:href="#NotoSansSC-Thin-20" transform="translate(786.69986 0)"/>
    <use xlink:href="#NotoSansSC-Thin-35" transform="translate(808.699844 0)"/>
    <use xlink:href="#NotoSansSC-Thin-6708" transform="translate(860.799835 0)"/>
    <use xlink:href="#NotoSansSC-Thin-32" transform="translate(960.79982 0)"/>
    <use xlink:href="#NotoSansSC-Thin-36" transform="translate(1012.899811 0)"/>
    <use xlink:href="#NotoSansSC-Thin-65e5" transform="translate(1064.999802 0)"/>
    <use xlink:href="#NotoSansSC-Thin-20" transform="translate(1164.999786 0)"/>
    <use xlink:href="#NotoSansSC-Thin-b7" transform="translate(1186.999771 0)"/>
    <use xlink:href="#NotoSansSC-Thin-20" transform="translate(1286.999756 0)"/>
    <use xlink:href="#NotoSansSC-Thin-5355" transform="translate(1308.999741 0)"/>
    <use xlink:href="#NotoSansSC-Thin-4f4d" transform="translate(1408.999725 0)"/>
    <use xlink:href="#NotoSansSC-Thin-3a" transform="translate(1508.99971 0)"/>
    <use xlink:href="#NotoSansSC-Thin-20" transform="translate(1532.099701 0)"/>
    <use xlink:href="#NotoSansSC-Thin-7f8e" transform="translate(1554.099686 0)"/>
    <use xlink:href="#NotoSansSC-Thin-5143" transform="translate(1654.09967 0)"/>
    <use xlink:href="#NotoSansSC-Thin-2f" transform="translate(1754.099655 0)"/>
    <use xlink:href="#NotoSansSC-Thin-6876" transform="translate(1793.699646 0)"/>
   </g>
  </g>
  <g id="text_20">
   <!-- 来源: NYMEX / Bloomberg · 2026-05-26 -->
   <g style="fill: #94a3b8" transform="translate(41.698594 268.519734) scale(0.065 -0.065)">
    <defs>
     <path id="NotoSansSC-Thin-6765" d="M 397 2432 
L 6016 2432 
L 6016 2246 
L 397 2246 
L 397 2432 
z
M 704 4467 
L 5734 4467 
L 5734 4282 
L 704 4282 
L 704 4467 
z
M 3091 5306 
L 3283 5306 
L 3283 -448 
L 3091 -448 
L 3091 5306 
z
M 4979 4026 
L 5171 3949 
Q 5062 3725 4928 3475 
Q 4794 3226 4656 2995 
Q 4518 2765 4390 2586 
L 4237 2656 
Q 4365 2835 4502 3078 
Q 4640 3322 4768 3574 
Q 4896 3827 4979 4026 
z
M 1312 3923 
L 1478 3981 
Q 1619 3782 1753 3548 
Q 1888 3315 1993 3094 
Q 2099 2874 2144 2701 
L 1971 2624 
Q 1920 2797 1817 3024 
Q 1715 3251 1584 3488 
Q 1453 3725 1312 3923 
z
M 2963 2374 
L 3123 2298 
Q 2893 1926 2579 1571 
Q 2266 1216 1901 896 
Q 1536 576 1161 317 
Q 787 58 429 -115 
Q 416 -90 390 -64 
Q 365 -38 339 -12 
Q 314 13 288 32 
Q 646 192 1024 445 
Q 1402 698 1763 1011 
Q 2125 1325 2435 1673 
Q 2746 2022 2963 2374 
z
M 3411 2381 
Q 3635 2029 3952 1677 
Q 4269 1325 4637 1005 
Q 5005 685 5389 432 
Q 5773 179 6138 13 
Q 6118 -6 6092 -35 
Q 6067 -64 6041 -89 
Q 6016 -115 5997 -141 
Q 5638 32 5254 297 
Q 4870 563 4499 889 
Q 4128 1216 3808 1577 
Q 3488 1939 3258 2304 
L 3411 2381 
z
" transform="scale(0.015625)"/>
     <path id="NotoSansSC-Thin-6e90" d="M 2304 5024 
L 6035 5024 
L 6035 4838 
L 2304 4838 
L 2304 5024 
z
M 2214 5024 
L 2406 5024 
L 2406 3283 
Q 2406 2874 2377 2400 
Q 2349 1926 2262 1436 
Q 2176 947 2006 476 
Q 1837 6 1555 -397 
Q 1542 -378 1513 -358 
Q 1485 -339 1456 -320 
Q 1427 -301 1402 -294 
Q 1677 102 1840 560 
Q 2003 1018 2083 1491 
Q 2163 1965 2188 2422 
Q 2214 2880 2214 3283 
L 2214 5024 
z
M 3110 2765 
L 3110 1990 
L 5542 1990 
L 5542 2765 
L 3110 2765 
z
M 3110 3718 
L 3110 2957 
L 5542 2957 
L 5542 3718 
L 3110 3718 
z
M 2925 3910 
L 5728 3910 
L 5728 1798 
L 2925 1798 
L 2925 3910 
z
M 3270 1338 
L 3456 1286 
Q 3341 1050 3193 810 
Q 3046 570 2886 355 
Q 2726 141 2566 -26 
Q 2554 -6 2522 13 
Q 2490 32 2458 57 
Q 2426 83 2400 96 
Q 2650 339 2880 665 
Q 3110 992 3270 1338 
z
M 5075 1293 
L 5242 1363 
Q 5395 1165 5555 937 
Q 5715 710 5856 499 
Q 5997 288 6086 134 
L 5907 38 
Q 5824 198 5683 412 
Q 5542 627 5385 860 
Q 5229 1094 5075 1293 
z
M 4218 4634 
L 4410 4570 
Q 4346 4365 4272 4144 
Q 4198 3923 4128 3770 
L 3981 3827 
Q 4038 3994 4108 4227 
Q 4179 4461 4218 4634 
z
M 4211 1939 
L 4397 1939 
L 4397 -173 
Q 4397 -282 4361 -336 
Q 4326 -390 4237 -416 
Q 4141 -442 3939 -448 
Q 3738 -454 3398 -448 
Q 3392 -416 3373 -368 
Q 3354 -320 3328 -275 
Q 3616 -282 3824 -282 
Q 4032 -282 4096 -282 
Q 4211 -275 4211 -173 
L 4211 1939 
z
M 627 5101 
L 749 5222 
Q 934 5107 1139 4972 
Q 1344 4838 1526 4707 
Q 1709 4576 1830 4480 
L 1715 4326 
Q 1594 4429 1408 4563 
Q 1222 4698 1017 4842 
Q 813 4986 627 5101 
z
M 307 3379 
L 422 3507 
Q 614 3405 822 3280 
Q 1030 3155 1219 3036 
Q 1408 2918 1536 2822 
L 1427 2669 
Q 1299 2765 1110 2889 
Q 922 3014 710 3145 
Q 499 3277 307 3379 
z
M 493 -224 
Q 646 26 832 374 
Q 1018 723 1203 1110 
Q 1389 1498 1542 1843 
L 1690 1728 
Q 1549 1395 1369 1020 
Q 1190 646 1004 288 
Q 819 -70 653 -352 
L 493 -224 
z
" transform="scale(0.015625)"/>
     <path id="NotoSansSC-Thin-4e" d="M 704 0 
L 704 4646 
L 954 4646 
L 3002 1261 
L 3533 346 
L 3565 346 
Q 3546 685 3536 1008 
Q 3526 1331 3526 1658 
L 3526 4646 
L 3757 4646 
L 3757 0 
L 3501 0 
L 1459 3386 
L 928 4301 
L 902 4301 
Q 915 3974 921 3667 
Q 928 3360 928 3027 
L 928 0 
L 704 0 
z
" transform="scale(0.015625)"/>
     <path id="NotoSansSC-Thin-59" d="M 1421 0 
L 1421 1907 
L 26 4646 
L 282 4646 
L 1018 3149 
Q 1146 2893 1267 2646 
Q 1389 2400 1530 2144 
L 1555 2144 
Q 1696 2400 1827 2646 
Q 1958 2893 2074 3149 
L 2816 4646 
L 3053 4646 
L 1658 1907 
L 1658 0 
L 1421 0 
z
" transform="scale(0.015625)"/>
     <path id="NotoSansSC-Thin-4d" d="M 704 0 
L 704 4646 
L 1082 4646 
L 2074 1843 
Q 2170 1587 2266 1321 
Q 2362 1056 2458 794 
L 2483 794 
Q 2579 1056 2668 1321 
Q 2758 1587 2848 1843 
L 3846 4646 
L 4224 4646 
L 4224 0 
L 3987 0 
L 3987 3213 
Q 3987 3398 3990 3606 
Q 3994 3814 4000 4028 
Q 4006 4243 4013 4429 
L 3987 4429 
L 3629 3405 
L 2586 518 
L 2336 518 
L 1286 3405 
L 922 4429 
L 896 4429 
Q 909 4243 915 4028 
Q 922 3814 925 3606 
Q 928 3398 928 3213 
L 928 0 
L 704 0 
z
" transform="scale(0.015625)"/>
     <path id="NotoSansSC-Thin-45" d="M 704 0 
L 704 4646 
L 3200 4646 
L 3200 4435 
L 941 4435 
L 941 2586 
L 2835 2586 
L 2835 2374 
L 941 2374 
L 941 211 
L 3270 211 
L 3270 0 
L 704 0 
z
" transform="scale(0.015625)"/>
     <path id="NotoSansSC-Thin-58" d="M 128 0 
L 1536 2406 
L 224 4646 
L 486 4646 
L 1286 3226 
Q 1382 3066 1465 2928 
Q 1549 2790 1670 2598 
L 1696 2598 
Q 1805 2790 1878 2928 
Q 1952 3066 2048 3226 
L 2861 4646 
L 3104 4646 
L 1792 2394 
L 3200 0 
L 2944 0 
L 2093 1485 
Q 1997 1651 1888 1830 
Q 1779 2010 1651 2221 
L 1626 2221 
Q 1510 2010 1411 1830 
Q 1312 1651 1216 1485 
L 371 0 
L 128 0 
z
" transform="scale(0.015625)"/>
     <path id="NotoSansSC-Thin-42" d="M 704 0 
L 704 4646 
L 1920 4646 
Q 2387 4646 2723 4524 
Q 3059 4403 3244 4153 
Q 3430 3904 3430 3520 
Q 3430 3277 3347 3072 
Q 3264 2867 3104 2723 
Q 2944 2579 2701 2509 
L 2701 2477 
Q 3162 2406 3443 2121 
Q 3725 1837 3725 1350 
Q 3725 909 3513 608 
Q 3302 307 2918 153 
Q 2534 0 2003 0 
L 704 0 
z
M 941 2586 
L 1779 2586 
Q 2541 2586 2864 2832 
Q 3187 3078 3187 3507 
Q 3187 4019 2841 4230 
Q 2496 4442 1824 4442 
L 941 4442 
L 941 2586 
z
M 941 211 
L 1920 211 
Q 2643 211 3065 483 
Q 3488 755 3488 1338 
Q 3488 1869 3075 2121 
Q 2662 2374 1920 2374 
L 941 2374 
L 941 211 
z
" transform="scale(0.015625)"/>
     <path id="NotoSansSC-Thin-6c" d="M 1018 -83 
Q 909 -83 832 -35 
Q 755 13 713 115 
Q 672 218 672 378 
L 672 5082 
L 902 5082 
L 902 339 
Q 902 237 940 182 
Q 979 128 1043 128 
Q 1062 128 1088 131 
Q 1114 134 1165 141 
L 1210 -58 
Q 1165 -64 1126 -73 
Q 1088 -83 1018 -83 
z
" transform="scale(0.015625)"/>
     <path id="NotoSansSC-Thin-6f" d="M 1875 -83 
Q 1472 -83 1129 125 
Q 787 333 582 726 
Q 378 1120 378 1677 
Q 378 2246 582 2643 
Q 787 3040 1129 3248 
Q 1472 3456 1875 3456 
Q 2176 3456 2448 3337 
Q 2720 3219 2928 2992 
Q 3136 2765 3254 2432 
Q 3373 2099 3373 1677 
Q 3373 1120 3165 726 
Q 2957 333 2617 125 
Q 2278 -83 1875 -83 
z
M 1875 128 
Q 2234 128 2518 323 
Q 2803 518 2969 867 
Q 3136 1216 3136 1677 
Q 3136 2144 2969 2496 
Q 2803 2848 2518 3046 
Q 2234 3245 1875 3245 
Q 1517 3245 1232 3046 
Q 947 2848 784 2496 
Q 621 2144 621 1677 
Q 621 1216 784 867 
Q 947 518 1232 323 
Q 1517 128 1875 128 
z
" transform="scale(0.015625)"/>
     <path id="NotoSansSC-Thin-6d" d="M 672 0 
L 672 3373 
L 864 3373 
L 902 2835 
L 915 2835 
Q 1146 3098 1427 3277 
Q 1709 3456 1984 3456 
Q 2400 3456 2614 3264 
Q 2829 3072 2912 2752 
Q 3213 3078 3497 3267 
Q 3782 3456 4070 3456 
Q 4563 3456 4816 3139 
Q 5069 2822 5069 2170 
L 5069 0 
L 4845 0 
L 4845 2138 
Q 4845 2694 4649 2969 
Q 4454 3245 4045 3245 
Q 3795 3245 3539 3078 
Q 3283 2912 2982 2579 
L 2982 0 
L 2758 0 
L 2758 2138 
Q 2758 2694 2566 2969 
Q 2374 3245 1965 3245 
Q 1722 3245 1456 3078 
Q 1190 2912 902 2579 
L 902 0 
L 672 0 
z
" transform="scale(0.015625)"/>
     <path id="NotoSansSC-Thin-62" d="M 1933 -83 
Q 1696 -83 1424 32 
Q 1152 147 915 339 
L 896 339 
L 864 0 
L 672 0 
L 672 5082 
L 902 5082 
L 902 3584 
L 883 2906 
Q 1146 3130 1453 3293 
Q 1760 3456 2074 3456 
Q 2534 3456 2835 3241 
Q 3136 3027 3283 2643 
Q 3430 2259 3430 1734 
Q 3430 1165 3222 755 
Q 3014 346 2675 131 
Q 2336 -83 1933 -83 
z
M 1952 128 
Q 2310 128 2588 333 
Q 2867 538 3027 902 
Q 3187 1267 3187 1734 
Q 3187 2163 3075 2505 
Q 2963 2848 2716 3046 
Q 2470 3245 2054 3245 
Q 1798 3245 1507 3094 
Q 1216 2944 902 2662 
L 902 582 
Q 1190 333 1472 230 
Q 1754 128 1952 128 
z
" transform="scale(0.015625)"/>
     <path id="NotoSansSC-Thin-65" d="M 1920 -83 
Q 1498 -83 1146 128 
Q 794 339 586 732 
Q 378 1126 378 1677 
Q 378 2093 496 2419 
Q 614 2746 822 2979 
Q 1030 3213 1289 3334 
Q 1549 3456 1830 3456 
Q 2221 3456 2505 3277 
Q 2790 3098 2947 2749 
Q 3104 2400 3104 1901 
Q 3104 1850 3104 1795 
Q 3104 1741 3091 1670 
L 621 1670 
Q 621 1229 784 880 
Q 947 531 1241 329 
Q 1536 128 1933 128 
Q 2221 128 2445 211 
Q 2669 294 2861 435 
L 2963 237 
Q 2771 122 2534 19 
Q 2298 -83 1920 -83 
z
M 621 1882 
L 2880 1882 
Q 2880 2566 2592 2905 
Q 2304 3245 1830 3245 
Q 1530 3245 1267 3081 
Q 1005 2918 832 2614 
Q 659 2310 621 1882 
z
" transform="scale(0.015625)"/>
     <path id="NotoSansSC-Thin-72" d="M 672 0 
L 672 3373 
L 864 3373 
L 902 2739 
L 915 2739 
Q 1082 3046 1325 3251 
Q 1568 3456 1869 3456 
Q 1958 3456 2035 3443 
Q 2112 3430 2195 3386 
L 2138 3174 
Q 2054 3206 1996 3219 
Q 1939 3232 1837 3232 
Q 1613 3232 1357 3030 
Q 1101 2829 902 2330 
L 902 0 
L 672 0 
z
" transform="scale(0.015625)"/>
     <path id="NotoSansSC-Thin-67" d="M 1760 -1645 
Q 1331 -1645 1020 -1526 
Q 710 -1408 544 -1197 
Q 378 -986 378 -704 
Q 378 -480 515 -259 
Q 653 -38 890 128 
L 890 154 
Q 762 230 675 364 
Q 589 499 589 691 
Q 589 922 720 1078 
Q 851 1235 960 1312 
L 960 1338 
Q 800 1478 665 1718 
Q 531 1958 531 2266 
Q 531 2611 684 2880 
Q 838 3149 1104 3302 
Q 1370 3456 1690 3456 
Q 1837 3456 1949 3430 
Q 2061 3405 2131 3373 
L 3258 3373 
L 3258 3162 
L 2451 3162 
Q 2630 3014 2739 2784 
Q 2848 2554 2848 2266 
Q 2848 1933 2694 1661 
Q 2541 1389 2278 1229 
Q 2016 1069 1690 1069 
Q 1549 1069 1392 1110 
Q 1235 1152 1120 1222 
Q 1005 1133 915 1008 
Q 826 883 826 710 
Q 826 518 960 380 
Q 1094 243 1485 243 
L 2234 243 
Q 2790 243 3052 60 
Q 3315 -122 3315 -512 
Q 3315 -794 3123 -1056 
Q 2931 -1318 2582 -1481 
Q 2234 -1645 1760 -1645 
z
M 1690 1280 
Q 1939 1280 2147 1405 
Q 2355 1530 2483 1754 
Q 2611 1978 2611 2266 
Q 2611 2566 2486 2787 
Q 2362 3008 2154 3126 
Q 1946 3245 1690 3245 
Q 1440 3245 1232 3126 
Q 1024 3008 899 2790 
Q 774 2573 774 2266 
Q 774 1978 902 1754 
Q 1030 1530 1238 1405 
Q 1446 1280 1690 1280 
z
M 1773 -1440 
Q 2176 -1440 2467 -1305 
Q 2758 -1171 2918 -963 
Q 3078 -755 3078 -538 
Q 3078 -237 2870 -112 
Q 2662 13 2266 13 
L 1498 13 
Q 1466 13 1347 25 
Q 1229 38 1088 70 
Q 838 -96 729 -297 
Q 621 -499 621 -685 
Q 621 -1018 921 -1229 
Q 1222 -1440 1773 -1440 
z
" transform="scale(0.015625)"/>
    </defs>
    <use xlink:href="#NotoSansSC-Thin-6765"/>
    <use xlink:href="#NotoSansSC-Thin-6e90" transform="translate(99.999985 0)"/>
    <use xlink:href="#NotoSansSC-Thin-3a" transform="translate(199.999969 0)"/>
    <use xlink:href="#NotoSansSC-Thin-20" transform="translate(223.09996 0)"/>
    <use xlink:href="#NotoSansSC-Thin-4e" transform="translate(245.099945 0)"/>
    <use xlink:href="#NotoSansSC-Thin-59" transform="translate(314.699936 0)"/>
    <use xlink:href="#NotoSansSC-Thin-4d" transform="translate(362.899933 0)"/>
    <use xlink:href="#NotoSansSC-Thin-45" transform="translate(439.899918 0)"/>
    <use xlink:href="#NotoSansSC-Thin-58" transform="translate(496.099915 0)"/>
    <use xlink:href="#NotoSansSC-Thin-20" transform="translate(547.999908 0)"/>
    <use xlink:href="#NotoSansSC-Thin-2f" transform="translate(569.999893 0)"/>
    <use xlink:href="#NotoSansSC-Thin-20" transform="translate(609.599884 0)"/>
    <use xlink:href="#NotoSansSC-Thin-42" transform="translate(631.599869 0)"/>
    <use xlink:href="#NotoSansSC-Thin-6c" transform="translate(694.799866 0)"/>
    <use xlink:href="#NotoSansSC-Thin-6f" transform="translate(720.19986 0)"/>
    <use xlink:href="#NotoSansSC-Thin-6f" transform="translate(778.79985 0)"/>
    <use xlink:href="#NotoSansSC-Thin-6d" transform="translate(837.399841 0)"/>
    <use xlink:href="#NotoSansSC-Thin-62" transform="translate(926.299835 0)"/>
    <use xlink:href="#NotoSansSC-Thin-65" transform="translate(985.599823 0)"/>
    <use xlink:href="#NotoSansSC-Thin-72" transform="translate(1038.29982 0)"/>
    <use xlink:href="#NotoSansSC-Thin-67" transform="translate(1072.199814 0)"/>
    <use xlink:href="#NotoSansSC-Thin-20" transform="translate(1125.199799 0)"/>
    <use xlink:href="#NotoSansSC-Thin-b7" transform="translate(1147.199783 0)"/>
    <use xlink:href="#NotoSansSC-Thin-20" transform="translate(1247.199768 0)"/>
    <use xlink:href="#NotoSansSC-Thin-32" transform="translate(1269.199753 0)"/>
    <use xlink:href="#NotoSansSC-Thin-30" transform="translate(1321.299744 0)"/>
    <use xlink:href="#NotoSansSC-Thin-32" transform="translate(1373.399734 0)"/>
    <use xlink:href="#NotoSansSC-Thin-36" transform="translate(1425.499725 0)"/>
    <use xlink:href="#NotoSansSC-Thin-2d" transform="translate(1477.599716 0)"/>
    <use xlink:href="#NotoSansSC-Thin-30" transform="translate(1509.99971 0)"/>
    <use xlink:href="#NotoSansSC-Thin-35" transform="translate(1562.099701 0)"/>
    <use xlink:href="#NotoSansSC-Thin-2d" transform="translate(1614.199692 0)"/>
    <use xlink:href="#NotoSansSC-Thin-32" transform="translate(1646.599686 0)"/>
    <use xlink:href="#NotoSansSC-Thin-36" transform="translate(1698.699677 0)"/>
   </g>
  </g>
 </g>
 <defs>
  <clipPath id="p0c42dd16cc">
   <rect x="41.698594" y="80.038437" width="314.82" height="175.104"/>
  </clipPath>
 </defs>
</svg>
