<?xml version="1.0" encoding="utf-8" standalone="no"?>
<!DOCTYPE svg PUBLIC "-//W3C//DTD SVG 1.1//EN"
  "http://www.w3.org/Graphics/SVG/1.1/DTD/svg11.dtd">
<svg xmlns:xlink="http://www.w3.org/1999/xlink" width="374.151563pt" height="280.472pt" viewBox="0 0 374.151563 280.472" xmlns="http://www.w3.org/2000/svg" version="1.1">
 <metadata>
  <rdf:RDF xmlns:dc="http://purl.org/dc/elements/1.1/" xmlns:cc="http://creativecommons.org/ns#" xmlns:rdf="http://www.w3.org/1999/02/22-rdf-syntax-ns#">
   <cc:Work>
    <dc:type rdf:resource="http://purl.org/dc/dcmitype/StillImage"/>
    <dc:date>2026-06-23T21:30:41.490078</dc:date>
    <dc:format>image/svg+xml</dc:format>
    <dc:creator>
     <cc:Agent>
      <dc:title>Matplotlib v3.11.0, https://matplotlib.org/</dc:title>
     </cc:Agent>
    </dc:creator>
   </cc:Work>
  </rdf:RDF>
 </metadata>
 <defs>
  <style type="text/css">*{stroke-linejoin: round; stroke-linecap: butt}</style>
 </defs>
 <g id="figure_1">
  <g id="patch_1">
   <path d="M 0 280.472 
L 374.151563 280.472 
L 374.151563 -0 
L 0 -0 
z
" style="fill: #ffffff"/>
  </g>
  <g id="axes_1">
   <g id="patch_2">
    <path d="M 48.531563 254.624 
L 363.351563 254.624 
L 363.351563 79.52 
L 48.531563 79.52 
z
" style="fill: #ffffff"/>
   </g>
   <g id="matplotlib.axis_1">
    <g id="xtick_1">
     <g id="line2d_1"/>
     <g id="text_1">
      <!-- 24/12 -->
      <g style="fill: #94a3b8" transform="translate(50.826563 266.044) scale(0.09 -0.09)">
       <defs>
        <path id="NotoSansSC-Medium-13" d="M 282 0 
L 3322 0 
L 3322 627 
L 2144 627 
C 1914 627 1619 608 1376 582 
C 2374 1536 3098 2477 3098 3386 
C 3098 4237 2541 4800 1677 4800 
C 1062 4800 646 4538 243 4096 
L 659 3686 
C 909 3974 1216 4211 1587 4211 
C 2118 4211 2387 3859 2387 3347 
C 2387 2573 1670 1658 282 429 
L 282 0 
z
" transform="scale(0.015625)"/>
        <path id="NotoSansSC-Medium-15" d="M 870 1837 
L 1798 3258 
C 1933 3501 2061 3744 2176 3987 
L 2202 3987 
C 2189 3725 2170 3328 2170 3072 
L 2170 1837 
L 870 1837 
z
M 2170 0 
L 2861 0 
L 2861 1267 
L 3456 1267 
L 3456 1837 
L 2861 1837 
L 2861 4717 
L 2003 4717 
L 128 1760 
L 128 1267 
L 2170 1267 
L 2170 0 
z
" transform="scale(0.015625)"/>
        <path id="NotoSansSC-Medium-10" d="M 77 -1152 
L 589 -1152 
L 2368 5114 
L 1856 5114 
L 77 -1152 
z
" transform="scale(0.015625)"/>
        <path id="NotoSansSC-Medium-12" d="M 550 0 
L 3238 0 
L 3238 608 
L 2317 608 
L 2317 4717 
L 1760 4717 
C 1491 4544 1178 4435 736 4352 
L 736 3885 
L 1581 3885 
L 1581 608 
L 550 608 
L 550 0 
z
" transform="scale(0.015625)"/>
       </defs>
       <use xlink:href="#NotoSansSC-Medium-13"/>
       <use xlink:href="#NotoSansSC-Medium-15" transform="translate(57 0)"/>
       <use xlink:href="#NotoSansSC-Medium-10" transform="translate(114 0)"/>
       <use xlink:href="#NotoSansSC-Medium-12" transform="translate(153 0)"/>
       <use xlink:href="#NotoSansSC-Medium-13" transform="translate(210 0)"/>
      </g>
     </g>
    </g>
    <g id="xtick_2">
     <g id="line2d_2"/>
     <g id="text_2">
      <!-- 25/3 -->
      <g style="fill: #94a3b8" transform="translate(101.091563 266.044) scale(0.09 -0.09)">
       <defs>
        <path id="NotoSansSC-Medium-16" d="M 1715 -83 
C 2541 -83 3302 506 3302 1549 
C 3302 2579 2656 3046 1869 3046 
C 1613 3046 1427 2982 1222 2880 
L 1331 4090 
L 3078 4090 
L 3078 4717 
L 691 4717 
L 550 2477 
L 909 2240 
C 1184 2419 1363 2509 1664 2509 
C 2202 2509 2560 2150 2560 1523 
C 2560 896 2157 518 1626 518 
C 1133 518 794 755 525 1024 
L 173 544 
C 506 218 973 -83 1715 -83 
z
" transform="scale(0.015625)"/>
        <path id="NotoSansSC-Medium-14" d="M 1715 -83 
C 2579 -83 3290 416 3290 1267 
C 3290 1901 2861 2310 2317 2445 
L 2317 2477 
C 2816 2662 3130 3040 3130 3584 
C 3130 4358 2534 4800 1690 4800 
C 1146 4800 710 4563 339 4230 
L 723 3770 
C 992 4032 1299 4205 1664 4211 
C 2112 4205 2387 3949 2387 3533 
C 2387 3059 2080 2707 1152 2707 
L 1152 2163 
C 2214 2163 2547 1824 2547 1306 
C 2547 813 2182 518 1651 518 
C 1165 518 813 755 538 1037 
L 179 563 
C 493 211 973 -83 1715 -83 
z
" transform="scale(0.015625)"/>
       </defs>
       <use xlink:href="#NotoSansSC-Medium-13"/>
       <use xlink:href="#NotoSansSC-Medium-16" transform="translate(57 0)"/>
       <use xlink:href="#NotoSansSC-Medium-10" transform="translate(114 0)"/>
       <use xlink:href="#NotoSansSC-Medium-14" transform="translate(153 0)"/>
      </g>
     </g>
    </g>
    <g id="xtick_3">
     <g id="line2d_3"/>
     <g id="text_3">
      <!-- 6 -->
      <g style="fill: #94a3b8" transform="translate(155.676563 266.044) scale(0.09 -0.09)">
       <defs>
        <path id="NotoSansSC-Medium-17" d="M 1914 2406 
C 2419 2406 2694 2067 2694 1466 
C 2694 851 2368 480 1958 480 
C 1453 480 1114 922 1037 1856 
C 1318 2259 1645 2406 1914 2406 
z
M 1965 -83 
C 2733 -83 3373 531 3373 1466 
C 3373 2458 2842 2944 2048 2944 
C 1709 2944 1299 2739 1024 2400 
C 1056 3744 1555 4198 2157 4198 
C 2432 4198 2720 4051 2893 3846 
L 3296 4294 
C 3027 4576 2643 4800 2118 4800 
C 1190 4800 339 4077 339 2266 
C 339 666 1069 -83 1965 -83 
z
" transform="scale(0.015625)"/>
       </defs>
       <use xlink:href="#NotoSansSC-Medium-17"/>
      </g>
     </g>
    </g>
    <g id="xtick_4">
     <g id="line2d_4"/>
     <g id="text_4">
      <!-- 9 -->
      <g style="fill: #94a3b8" transform="translate(203.376563 266.044) scale(0.09 -0.09)">
       <defs>
        <path id="NotoSansSC-Medium-1a" d="M 960 3251 
C 960 3866 1280 4230 1683 4230 
C 2195 4230 2547 3808 2618 2880 
C 2349 2477 2016 2304 1722 2304 
C 1229 2304 960 2650 960 3251 
z
M 1555 -83 
C 2464 -83 3309 659 3309 2515 
C 3309 4077 2579 4800 1677 4800 
C 915 4800 275 4186 275 3251 
C 275 2266 806 1773 1594 1773 
C 1952 1773 2355 1984 2630 2323 
C 2586 979 2093 518 1523 518 
C 1229 518 941 659 755 870 
L 352 416 
C 627 134 1011 -83 1555 -83 
z
" transform="scale(0.015625)"/>
       </defs>
       <use xlink:href="#NotoSansSC-Medium-1a"/>
      </g>
     </g>
    </g>
    <g id="xtick_5">
     <g id="line2d_5"/>
     <g id="text_5">
      <!-- 12 -->
      <g style="fill: #94a3b8" transform="translate(248.511563 266.044) scale(0.09 -0.09)">
       <use xlink:href="#NotoSansSC-Medium-12"/>
       <use xlink:href="#NotoSansSC-Medium-13" transform="translate(57 0)"/>
      </g>
     </g>
    </g>
    <g id="xtick_6">
     <g id="line2d_6"/>
     <g id="text_6">
      <!-- 26/3 -->
      <g style="fill: #94a3b8" transform="translate(291.891563 266.044) scale(0.09 -0.09)">
       <use xlink:href="#NotoSansSC-Medium-13"/>
       <use xlink:href="#NotoSansSC-Medium-17" transform="translate(57 0)"/>
       <use xlink:href="#NotoSansSC-Medium-10" transform="translate(114 0)"/>
       <use xlink:href="#NotoSansSC-Medium-14" transform="translate(153 0)"/>
      </g>
     </g>
    </g>
    <g id="xtick_7">
     <g id="line2d_7"/>
     <g id="text_7">
      <!-- 4 -->
      <g style="fill: #94a3b8" transform="translate(346.476563 266.044) scale(0.09 -0.09)">
       <use xlink:href="#NotoSansSC-Medium-15"/>
      </g>
     </g>
    </g>
   </g>
   <g id="matplotlib.axis_2">
    <g id="ytick_1">
     <g id="line2d_8">
      <path d="M 48.531563 254.624 
L 363.351563 254.624 
" clip-path="url(#p78a58de025)" style="fill: none; stroke: #e2e8f0; stroke-opacity: 0.6; stroke-width: 0.5; stroke-linecap: square"/>
     </g>
     <g id="line2d_9"/>
     <g id="text_8">
      <!-- 2100 -->
      <g style="fill: #94a3b8" transform="translate(24.511563 258.584) scale(0.09 -0.09)">
       <defs>
        <path id="NotoSansSC-Medium-11" d="M 1824 -83 
C 2746 -83 3347 736 3347 2374 
C 3347 4000 2746 4800 1824 4800 
C 902 4800 301 4006 301 2374 
C 301 736 902 -83 1824 -83 
z
M 1824 499 
C 1344 499 1005 1011 1005 2374 
C 1005 3725 1344 4218 1824 4218 
C 2304 4218 2643 3725 2643 2374 
C 2643 1011 2304 499 1824 499 
z
" transform="scale(0.015625)"/>
       </defs>
       <use xlink:href="#NotoSansSC-Medium-13"/>
       <use xlink:href="#NotoSansSC-Medium-12" transform="translate(57 0)"/>
       <use xlink:href="#NotoSansSC-Medium-11" transform="translate(114 0)"/>
       <use xlink:href="#NotoSansSC-Medium-11" transform="translate(171 0)"/>
      </g>
     </g>
    </g>
    <g id="ytick_2">
     <g id="line2d_10">
      <path d="M 48.531563 220.950154 
L 363.351563 220.950154 
" clip-path="url(#p78a58de025)" style="fill: none; stroke: #e2e8f0; stroke-opacity: 0.6; stroke-width: 0.5; stroke-linecap: square"/>
     </g>
     <g id="line2d_11"/>
     <g id="text_9">
      <!-- 2150 -->
      <g style="fill: #94a3b8" transform="translate(24.511563 224.910154) scale(0.09 -0.09)">
       <use xlink:href="#NotoSansSC-Medium-13"/>
       <use xlink:href="#NotoSansSC-Medium-12" transform="translate(57 0)"/>
       <use xlink:href="#NotoSansSC-Medium-16" transform="translate(114 0)"/>
       <use xlink:href="#NotoSansSC-Medium-11" transform="translate(171 0)"/>
      </g>
     </g>
    </g>
    <g id="ytick_3">
     <g id="line2d_12">
      <path d="M 48.531563 187.276308 
L 363.351563 187.276308 
" clip-path="url(#p78a58de025)" style="fill: none; stroke: #e2e8f0; stroke-opacity: 0.6; stroke-width: 0.5; stroke-linecap: square"/>
     </g>
     <g id="line2d_13"/>
     <g id="text_10">
      <!-- 2200 -->
      <g style="fill: #94a3b8" transform="translate(24.511563 191.236308) scale(0.09 -0.09)">
       <use xlink:href="#NotoSansSC-Medium-13"/>
       <use xlink:href="#NotoSansSC-Medium-13" transform="translate(57 0)"/>
       <use xlink:href="#NotoSansSC-Medium-11" transform="translate(114 0)"/>
       <use xlink:href="#NotoSansSC-Medium-11" transform="translate(171 0)"/>
      </g>
     </g>
    </g>
    <g id="ytick_4">
     <g id="line2d_14">
      <path d="M 48.531563 153.602462 
L 363.351563 153.602462 
" clip-path="url(#p78a58de025)" style="fill: none; stroke: #e2e8f0; stroke-opacity: 0.6; stroke-width: 0.5; stroke-linecap: square"/>
     </g>
     <g id="line2d_15"/>
     <g id="text_11">
      <!-- 2250 -->
      <g style="fill: #94a3b8" transform="translate(24.511563 157.562462) scale(0.09 -0.09)">
       <use xlink:href="#NotoSansSC-Medium-13"/>
       <use xlink:href="#NotoSansSC-Medium-13" transform="translate(57 0)"/>
       <use xlink:href="#NotoSansSC-Medium-16" transform="translate(114 0)"/>
       <use xlink:href="#NotoSansSC-Medium-11" transform="translate(171 0)"/>
      </g>
     </g>
    </g>
    <g id="ytick_5">
     <g id="line2d_16">
      <path d="M 48.531563 119.928615 
L 363.351563 119.928615 
" clip-path="url(#p78a58de025)" style="fill: none; stroke: #e2e8f0; stroke-opacity: 0.6; stroke-width: 0.5; stroke-linecap: square"/>
     </g>
     <g id="line2d_17"/>
     <g id="text_12">
      <!-- 2300 -->
      <g style="fill: #94a3b8" transform="translate(24.511563 123.888615) scale(0.09 -0.09)">
       <use xlink:href="#NotoSansSC-Medium-13"/>
       <use xlink:href="#NotoSansSC-Medium-14" transform="translate(57 0)"/>
       <use xlink:href="#NotoSansSC-Medium-11" transform="translate(114 0)"/>
       <use xlink:href="#NotoSansSC-Medium-11" transform="translate(171 0)"/>
      </g>
     </g>
    </g>
    <g id="ytick_6">
     <g id="line2d_18">
      <path d="M 48.531563 86.254769 
L 363.351563 86.254769 
" clip-path="url(#p78a58de025)" style="fill: none; stroke: #e2e8f0; stroke-opacity: 0.6; stroke-width: 0.5; stroke-linecap: square"/>
     </g>
     <g id="line2d_19"/>
     <g id="text_13">
      <!-- 2350 -->
      <g style="fill: #94a3b8" transform="translate(24.511563 90.214769) scale(0.09 -0.09)">
       <use xlink:href="#NotoSansSC-Medium-13"/>
       <use xlink:href="#NotoSansSC-Medium-14" transform="translate(57 0)"/>
       <use xlink:href="#NotoSansSC-Medium-16" transform="translate(114 0)"/>
       <use xlink:href="#NotoSansSC-Medium-11" transform="translate(171 0)"/>
      </g>
     </g>
    </g>
    <g id="text_14">
     <!-- 储备量 (吨) -->
     <g style="fill: #64748b" transform="translate(18.72 189.2795) rotate(-90) scale(0.09 -0.09)">
      <defs>
       <path id="NotoSansSC-Medium-24a2" d="M 2976 4122 
C 2842 4378 2515 4749 2234 5011 
L 1830 4742 
C 2106 4467 2419 4077 2554 3814 
L 2976 4122 
z
M 1318 5389 
C 1069 4442 653 3482 166 2854 
C 256 2720 403 2419 448 2285 
C 589 2470 723 2675 851 2893 
L 851 -486 
L 1370 -486 
L 1370 3949 
C 1542 4378 1702 4819 1824 5248 
L 1318 5389 
z
M 2688 666 
L 2688 3373 
L 1594 3373 
L 1594 2803 
L 2182 2803 
L 2182 717 
C 2182 448 2029 269 1926 198 
C 2022 90 2163 -147 2208 -282 
C 2310 -160 2470 -45 3386 512 
C 3347 627 3283 832 3251 979 
L 2688 666 
z
M 5338 1299 
L 4109 1299 
L 4109 1843 
L 5338 1843 
L 5338 1299 
z
M 4109 294 
L 4109 858 
L 5338 858 
L 5338 294 
L 4109 294 
z
M 4499 4192 
L 5069 4192 
C 4928 3942 4768 3706 4602 3482 
L 4499 3482 
L 4499 4192 
z
M 6131 2950 
L 6131 3482 
L 5254 3482 
C 5581 3968 5862 4499 6086 5062 
L 5562 5203 
C 5446 4915 5318 4634 5171 4365 
L 5171 4691 
L 4499 4691 
L 4499 5370 
L 3955 5370 
L 3955 4691 
L 3194 4691 
L 3194 4192 
L 3955 4192 
L 3955 3482 
L 3002 3482 
L 3002 2950 
L 4134 2950 
C 3750 2541 3309 2195 2835 1926 
C 2944 1824 3136 1594 3213 1478 
C 3347 1562 3469 1651 3597 1741 
L 3597 -480 
L 4109 -480 
L 4109 -186 
L 5338 -186 
L 5338 -454 
L 5862 -454 
L 5862 2323 
L 4275 2323 
C 4480 2515 4672 2733 4858 2950 
L 6131 2950 
z
" transform="scale(0.015625)"/>
       <path id="NotoSansSC-Medium-2ced" d="M 2874 1766 
L 2874 1254 
L 1670 1254 
L 1670 1766 
L 2874 1766 
z
M 4653 1254 
L 3488 1254 
L 3488 1766 
L 4653 1766 
L 4653 1254 
z
M 3488 205 
L 3488 787 
L 4653 787 
L 4653 205 
L 3488 205 
z
M 1670 205 
L 1670 787 
L 2874 787 
L 2874 205 
L 1670 205 
z
M 1056 -506 
L 1670 -506 
L 1670 -314 
L 4653 -314 
L 4653 -493 
L 5299 -493 
L 5299 2278 
L 1056 2278 
L 1056 -506 
z
M 2202 4320 
L 4243 4320 
C 3962 4038 3597 3795 3181 3584 
C 2765 3782 2419 4006 2150 4269 
L 2202 4320 
z
M 4826 4864 
L 4730 4838 
L 2688 4838 
C 2790 4979 2893 5114 2989 5261 
L 2349 5389 
C 2022 4845 1402 4243 474 3821 
C 602 3731 787 3526 877 3386 
C 1190 3546 1478 3725 1728 3917 
C 1965 3693 2240 3482 2547 3302 
C 1818 3027 998 2835 198 2746 
C 288 2605 410 2349 454 2182 
C 1389 2330 2349 2579 3187 2976 
C 3974 2624 4896 2387 5856 2266 
C 5939 2432 6093 2682 6227 2816 
C 5370 2899 4538 3072 3834 3322 
C 4403 3674 4890 4109 5222 4634 
L 4826 4864 
z
" transform="scale(0.015625)"/>
       <path id="NotoSansSC-Medium-6581" d="M 4646 4557 
L 1722 4557 
L 1722 4845 
L 4646 4845 
L 4646 4557 
z
M 4646 3949 
L 1722 3949 
L 1722 4243 
L 4646 4243 
L 4646 3949 
z
M 5248 5171 
L 1146 5171 
L 1146 3622 
L 5248 3622 
L 5248 5171 
z
M 6067 3379 
L 352 3379 
L 352 2944 
L 6067 2944 
L 6067 3379 
z
M 1594 1440 
L 1594 1741 
L 2906 1741 
L 2906 1440 
L 1594 1440 
z
M 1594 2362 
L 2906 2362 
L 2906 2067 
L 1594 2067 
L 1594 2362 
z
M 4838 2067 
L 3482 2067 
L 3482 2362 
L 4838 2362 
L 4838 2067 
z
M 4838 1440 
L 3482 1440 
L 3482 1741 
L 4838 1741 
L 4838 1440 
z
M 3482 102 
L 3482 410 
L 5549 410 
L 5549 813 
L 3482 813 
L 3482 1101 
L 5421 1101 
L 5421 2701 
L 1030 2701 
L 1030 1101 
L 2906 1101 
L 2906 813 
L 870 813 
L 870 410 
L 2906 410 
L 2906 102 
L 326 102 
L 326 -352 
L 6093 -352 
L 6093 102 
L 3482 102 
z
" transform="scale(0.015625)"/>
       <path id="NotoSansSC-Medium-1" transform="scale(0.015625)"/>
       <path id="NotoSansSC-Medium-9" d="M 1517 -1274 
L 1978 -1069 
C 1427 -154 1171 928 1171 2003 
C 1171 3072 1427 4154 1978 5075 
L 1517 5274 
C 922 4307 570 3264 570 2003 
C 570 730 922 -301 1517 -1274 
z
" transform="scale(0.015625)"/>
       <path id="NotoSansSC-Medium-2819" d="M 1613 4237 
L 1613 1715 
L 1018 1715 
L 1018 4237 
L 1613 4237 
z
M 2144 4787 
L 480 4787 
L 480 576 
L 1018 576 
L 1018 1165 
L 2144 1165 
L 2144 4787 
z
M 4774 77 
C 4678 77 4621 83 4550 109 
C 4486 141 4461 256 4461 422 
L 4461 1203 
L 5216 1203 
L 5216 902 
L 5786 902 
L 5786 3501 
L 5216 3501 
L 5216 1747 
L 4461 1747 
L 4461 3981 
L 6086 3981 
L 6086 4531 
L 4461 4531 
L 4461 5357 
L 3866 5357 
L 3866 4531 
L 2368 4531 
L 2368 3981 
L 3866 3981 
L 3866 1747 
L 3123 1747 
L 3123 3501 
L 2560 3501 
L 2560 1203 
L 3866 1203 
L 3866 448 
C 3866 -102 3949 -237 4096 -339 
C 4243 -435 4467 -474 4646 -474 
L 5242 -474 
C 5414 -474 5606 -454 5734 -416 
C 5888 -365 5984 -288 6042 -154 
C 6099 -26 6150 275 6157 538 
C 5965 595 5754 691 5619 813 
C 5613 544 5594 326 5568 243 
C 5549 147 5491 115 5434 96 
C 5382 83 5286 77 5190 77 
L 4774 77 
z
" transform="scale(0.015625)"/>
       <path id="NotoSansSC-Medium-a" d="M 755 -1274 
C 1357 -301 1709 730 1709 2003 
C 1709 3264 1357 4307 755 5274 
L 294 5075 
C 845 4154 1101 3072 1101 2003 
C 1101 928 845 -154 294 -1069 
L 755 -1274 
z
" transform="scale(0.015625)"/>
      </defs>
      <use xlink:href="#NotoSansSC-Medium-24a2"/>
      <use xlink:href="#NotoSansSC-Medium-2ced" transform="translate(100 0)"/>
      <use xlink:href="#NotoSansSC-Medium-6581" transform="translate(200 0)"/>
      <use xlink:href="#NotoSansSC-Medium-1" transform="translate(300 0)"/>
      <use xlink:href="#NotoSansSC-Medium-9" transform="translate(322.5 0)"/>
      <use xlink:href="#NotoSansSC-Medium-2819" transform="translate(358 0)"/>
      <use xlink:href="#NotoSansSC-Medium-a" transform="translate(458 0)"/>
     </g>
    </g>
   </g>
   <g id="FillBetweenPolyCollection_1">
    <path d="M 62.841563 1668.925538 
L 62.841563 227.684923 
L 110.541563 200.745846 
L 158.241563 180.541538 
L 205.941563 160.337231 
L 253.641563 140.132923 
L 301.341563 113.193846 
L 349.041563 105.408453 
L 349.041563 1668.925538 
L 349.041563 1668.925538 
L 301.341563 1668.925538 
L 253.641563 1668.925538 
L 205.941563 1668.925538 
L 158.241563 1668.925538 
L 110.541563 1668.925538 
L 62.841563 1668.925538 
z
" clip-path="url(#p78a58de025)" style="fill: #d4a017; fill-opacity: 0.1; stroke: #d4a017; stroke-opacity: 0.1; stroke-width: 1.5"/>
   </g>
   <g id="patch_3">
    <path d="M 315.090373 92.721516 
Q 331.127254 98.714204 345.907373 104.237264 
" style="fill: none; stroke: #d4a017; stroke-width: 1.2; stroke-linecap: round"/>
    <path d="M 343.165202 101.290996 
L 345.907373 104.237264 
L 341.905056 104.66324 
" style="fill: none; stroke: #d4a017; stroke-width: 1.2; stroke-linecap: round"/>
   </g>
   <g id="text_15">
    <!-- 2321.6吨 -->
    <g style="fill: #1e293b" transform="translate(273.135703 82.938914) scale(0.09 -0.09)">
     <defs>
      <path id="NotoSansSC-Medium-f" d="M 954 -83 
C 1229 -83 1446 128 1446 429 
C 1446 736 1229 954 954 954 
C 678 954 461 736 461 429 
C 461 128 678 -83 954 -83 
z
" transform="scale(0.015625)"/>
     </defs>
     <use xlink:href="#NotoSansSC-Medium-13"/>
     <use xlink:href="#NotoSansSC-Medium-14" transform="translate(57 0)"/>
     <use xlink:href="#NotoSansSC-Medium-13" transform="translate(114 0)"/>
     <use xlink:href="#NotoSansSC-Medium-12" transform="translate(171 0)"/>
     <use xlink:href="#NotoSansSC-Medium-f" transform="translate(228 0)"/>
     <use xlink:href="#NotoSansSC-Medium-17" transform="translate(257.796875 0)"/>
     <use xlink:href="#NotoSansSC-Medium-2819" transform="translate(314.796875 0)"/>
    </g>
    <!-- +8.09吨 -->
    <g style="fill: #1e293b" transform="translate(275.700703 91.938914) scale(0.09 -0.09)">
     <defs>
      <path id="NotoSansSC-Medium-c" d="M 1542 730 
L 2106 730 
L 2106 2112 
L 3405 2112 
L 3405 2643 
L 2106 2643 
L 2106 4026 
L 1542 4026 
L 1542 2643 
L 243 2643 
L 243 2112 
L 1542 2112 
L 1542 730 
z
" transform="scale(0.015625)"/>
      <path id="NotoSansSC-Medium-19" d="M 1830 -83 
C 2739 -83 3354 454 3354 1152 
C 3354 1792 2982 2163 2560 2400 
L 2560 2432 
C 2854 2650 3181 3059 3181 3539 
C 3181 4275 2669 4787 1850 4787 
C 1082 4787 506 4307 506 3571 
C 506 3072 787 2720 1139 2470 
L 1139 2438 
C 704 2208 294 1792 294 1171 
C 294 442 947 -83 1830 -83 
z
M 2138 2618 
C 1613 2822 1165 3059 1165 3571 
C 1165 3994 1453 4256 1837 4256 
C 2298 4256 2560 3930 2560 3494 
C 2560 3181 2419 2880 2138 2618 
z
M 1843 448 
C 1338 448 947 774 947 1242 
C 947 1651 1171 2003 1498 2227 
C 2138 1965 2656 1747 2656 1171 
C 2656 730 2330 448 1843 448 
z
" transform="scale(0.015625)"/>
     </defs>
     <use xlink:href="#NotoSansSC-Medium-c"/>
     <use xlink:href="#NotoSansSC-Medium-19" transform="translate(57 0)"/>
     <use xlink:href="#NotoSansSC-Medium-f" transform="translate(114 0)"/>
     <use xlink:href="#NotoSansSC-Medium-11" transform="translate(143.796875 0)"/>
     <use xlink:href="#NotoSansSC-Medium-1a" transform="translate(200.796875 0)"/>
     <use xlink:href="#NotoSansSC-Medium-2819" transform="translate(257.796875 0)"/>
    </g>
   </g>
   <g id="text_16">
    <g id="patch_4">
     <path d="M 283.350563 243.31568 
L 347.610563 243.31568 
Q 350.310563 243.31568 350.310563 240.61568 
L 350.310563 231.61568 
Q 350.310563 228.91568 347.610563 228.91568 
L 283.350563 228.91568 
Q 280.650563 228.91568 280.650563 231.61568 
L 280.650563 240.61568 
Q 280.650563 243.31568 283.350563 243.31568 
z
" style="fill: #fef2f2; opacity: 0.9; stroke: #dc2626; stroke-width: 1.5; stroke-linejoin: miter"/>
    </g>
    <!-- 连续18个月增持 -->
    <g style="fill: #dc2626" transform="translate(283.350563 239.53568) scale(0.09 -0.09)">
     <defs>
      <path id="NotoSansSC-Medium-6390" d="M 3942 307 
L 4557 307 
L 4557 1357 
L 6003 1357 
L 6003 1920 
L 4557 1920 
L 4557 2650 
L 5722 2650 
L 5722 3200 
L 4557 3200 
L 4557 3923 
L 3942 3923 
L 3942 3200 
L 3027 3200 
C 3200 3501 3373 3853 3526 4211 
L 5914 4211 
L 5914 4723 
L 3744 4723 
C 3802 4883 3859 5043 3917 5203 
L 3296 5376 
C 3238 5158 3162 4934 3091 4723 
L 2093 4723 
L 2093 4211 
L 2886 4211 
C 2758 3891 2630 3629 2566 3526 
C 2445 3302 2342 3149 2214 3117 
C 2285 2963 2387 2682 2419 2554 
C 2470 2618 2714 2650 3008 2650 
L 3942 2650 
L 3942 1920 
L 2035 1920 
L 2035 1357 
L 3942 1357 
L 3942 307 
z
M 1882 4186 
C 1702 4493 1306 4966 986 5306 
L 531 5011 
C 851 4653 1229 4160 1395 3846 
L 1882 4186 
z
M 1658 3238 
L 301 3238 
L 301 2688 
L 1088 2688 
L 1088 813 
C 813 698 493 416 179 45 
L 614 -538 
C 877 -122 1152 301 1344 301 
C 1485 301 1709 77 1978 -90 
C 2451 -371 2982 -442 3814 -442 
C 4467 -442 5594 -403 6042 -371 
C 6054 -192 6157 122 6227 294 
C 5587 205 4576 147 3834 147 
C 3098 147 2522 192 2099 454 
C 1907 576 1773 685 1658 755 
L 1658 3238 
z
" transform="scale(0.015625)"/>
      <path id="NotoSansSC-Medium-52ae" d="M 5574 2490 
C 5728 2810 5882 3309 6010 3750 
L 5632 3840 
L 5536 3821 
L 4499 3821 
L 4499 4320 
L 5664 4320 
L 5664 4819 
L 4499 4819 
L 4499 5363 
L 3917 5363 
L 3917 4819 
L 2803 4819 
L 2803 4320 
L 3917 4320 
L 3917 3821 
L 2573 3821 
L 2573 3315 
L 5350 3315 
C 5280 3053 5190 2790 5114 2598 
L 5574 2490 
z
M 4045 2611 
C 3878 2778 3533 2995 3264 3142 
L 3008 2848 
C 3283 2694 3610 2464 3770 2291 
L 4045 2611 
z
M 3629 2016 
C 3450 2195 3104 2432 2816 2579 
L 2541 2285 
C 2829 2125 3174 1869 3347 1683 
L 3629 2016 
z
M 1286 1978 
C 1702 2509 2093 3142 2426 3763 
L 1978 4038 
C 1869 3802 1741 3565 1619 3334 
L 966 3283 
C 1331 3814 1690 4480 1946 5120 
L 1427 5357 
C 1184 4608 742 3782 602 3578 
C 467 3360 358 3219 237 3187 
C 301 3040 390 2784 416 2675 
C 506 2720 659 2752 1312 2835 
C 1075 2464 858 2170 762 2054 
C 563 1811 429 1664 288 1632 
C 352 1498 435 1254 461 1146 
C 595 1242 813 1318 2285 1722 
C 2266 1830 2253 2061 2259 2214 
L 1286 1978 
z
M 2246 1133 
C 1517 870 774 602 275 442 
L 416 -109 
C 966 109 1677 378 2349 653 
L 2246 1133 
z
M 5978 1152 
L 5978 1664 
L 4576 1664 
C 4621 1907 4634 2144 4634 2368 
L 4634 3098 
L 4083 3098 
L 4083 2387 
C 4083 2157 4070 1914 4006 1664 
L 2438 1664 
L 2438 1152 
L 3821 1152 
C 3584 704 3130 269 2304 -77 
C 2413 -186 2586 -390 2656 -518 
C 3699 -64 4205 544 4442 1152 
L 5978 1152 
z
M 4384 653 
C 4870 314 5453 -186 5734 -518 
L 6118 -147 
C 5830 179 5222 653 4742 979 
L 4384 653 
z
" transform="scale(0.015625)"/>
      <path id="NotoSansSC-Medium-2225" d="M 2886 -499 
L 3501 -499 
L 3501 3418 
L 2886 3418 
L 2886 -499 
z
M 3219 5376 
C 2579 4301 1427 3443 224 2957 
C 390 2797 563 2566 666 2394 
C 1613 2835 2522 3514 3213 4352 
C 4128 3360 4934 2803 5766 2381 
C 5856 2573 6042 2803 6202 2938 
C 5338 3328 4448 3866 3565 4826 
C 3635 4922 3693 5024 3750 5126 
L 3219 5376 
z
" transform="scale(0.015625)"/>
      <path id="NotoSansSC-Medium-3ae0" d="M 1843 2010 
C 1882 2342 1901 2662 1901 2957 
L 4653 2957 
L 4653 2010 
L 1843 2010 
z
M 4653 4474 
L 4653 3526 
L 1901 3526 
L 1901 4474 
L 4653 4474 
z
M 5280 5050 
L 1293 5050 
L 1293 3040 
C 1293 2035 1197 781 198 -77 
C 333 -166 563 -384 653 -512 
C 1261 6 1581 717 1747 1434 
L 4653 1434 
L 4653 314 
C 4653 179 4602 128 4461 128 
C 4307 122 3795 115 3296 141 
C 3398 -26 3514 -314 3552 -486 
C 4218 -486 4653 -474 4922 -365 
C 5178 -269 5280 -83 5280 301 
L 5280 5050 
z
" transform="scale(0.015625)"/>
      <path id="NotoSansSC-Medium-2c86" d="M 1536 1344 
L 1536 3283 
L 2150 3283 
L 2150 3834 
L 1536 3834 
L 1536 5293 
L 992 5293 
L 992 3834 
L 352 3834 
L 352 3283 
L 992 3283 
L 992 1152 
C 717 1056 474 966 262 902 
L 454 314 
C 973 518 1632 781 2240 1037 
L 2131 1562 
L 1536 1344 
z
M 4973 1523 
L 4973 1082 
L 3245 1082 
L 3245 1523 
L 4973 1523 
z
M 3245 256 
L 3245 653 
L 4973 653 
L 4973 256 
L 3245 256 
z
M 2707 -499 
L 3245 -499 
L 3245 -192 
L 4973 -192 
L 4973 -499 
L 5536 -499 
L 5536 1971 
L 2707 1971 
L 2707 -499 
z
M 3008 3776 
C 3181 3494 3354 3123 3398 2874 
L 3744 3008 
C 3686 3251 3507 3622 3328 3891 
L 3008 3776 
z
M 4704 2867 
C 4858 3098 5062 3437 5235 3750 
L 4851 3885 
C 4762 3622 4563 3226 4410 2989 
L 4704 2867 
z
M 5318 2714 
L 4326 2714 
L 4326 4045 
L 5318 4045 
L 5318 2714 
z
M 2867 4045 
L 3872 4045 
L 3872 2714 
L 2867 2714 
L 2867 4045 
z
M 5018 4454 
C 5184 4666 5357 4934 5530 5184 
L 4915 5389 
C 4806 5107 4589 4717 4416 4454 
L 3341 4454 
L 3757 4653 
C 3667 4851 3475 5152 3296 5370 
L 2790 5158 
C 2950 4941 3117 4659 3213 4454 
L 2387 4454 
L 2387 2304 
L 5824 2304 
L 5824 4454 
L 5018 4454 
z
" transform="scale(0.015625)"/>
      <path id="NotoSansSC-Medium-36dc" d="M 2182 2637 
L 1613 2464 
L 1613 3571 
L 2227 3571 
L 2227 4122 
L 1613 4122 
L 1613 5357 
L 1062 5357 
L 1062 4122 
L 288 4122 
L 288 3571 
L 1062 3571 
L 1062 2310 
C 736 2214 435 2131 198 2067 
L 333 1491 
L 1062 1715 
L 1062 179 
C 1062 90 1030 64 954 64 
C 883 64 640 64 390 70 
C 461 -83 531 -339 550 -480 
C 954 -486 1210 -461 1382 -371 
C 1549 -275 1613 -122 1613 179 
L 1613 1888 
L 2259 2093 
L 2182 2637 
z
M 2803 1261 
C 3078 915 3379 448 3488 141 
L 3994 442 
C 3859 749 3546 1203 3277 1530 
L 2803 1261 
z
M 6138 2810 
L 6138 3354 
L 4525 3354 
L 4525 4045 
L 5843 4045 
L 5843 4589 
L 4525 4589 
L 4525 5344 
L 3955 5344 
L 3955 4589 
L 2624 4589 
L 2624 4045 
L 3955 4045 
L 3955 3354 
L 2323 3354 
L 2323 2810 
L 4781 2810 
L 4781 2189 
L 2394 2189 
L 2394 1645 
L 4781 1645 
L 4781 173 
C 4781 83 4755 58 4653 51 
C 4563 45 4230 45 3904 64 
C 3981 -96 4058 -339 4083 -506 
C 4544 -506 4864 -499 5075 -410 
C 5280 -320 5350 -160 5350 160 
L 5350 1645 
L 6099 1645 
L 6099 2189 
L 5350 2189 
L 5350 2810 
L 6138 2810 
z
" transform="scale(0.015625)"/>
     </defs>
     <use xlink:href="#NotoSansSC-Medium-6390"/>
     <use xlink:href="#NotoSansSC-Medium-52ae" transform="translate(100 0)"/>
     <use xlink:href="#NotoSansSC-Medium-12" transform="translate(200 0)"/>
     <use xlink:href="#NotoSansSC-Medium-19" transform="translate(257 0)"/>
     <use xlink:href="#NotoSansSC-Medium-2225" transform="translate(314 0)"/>
     <use xlink:href="#NotoSansSC-Medium-3ae0" transform="translate(414 0)"/>
     <use xlink:href="#NotoSansSC-Medium-2c86" transform="translate(514 0)"/>
     <use xlink:href="#NotoSansSC-Medium-36dc" transform="translate(614 0)"/>
    </g>
   </g>
   <g id="line2d_20">
    <path d="M 62.841563 227.684923 
L 110.541563 200.745846 
L 158.241563 180.541538 
L 205.941563 160.337231 
L 253.641563 140.132923 
L 301.341563 113.193846 
L 349.041563 105.408453 
" clip-path="url(#p78a58de025)" style="fill: none; stroke: #d4a017; stroke-width: 2.8; stroke-linecap: square"/>
    <defs>
     <path id="m8edc7154fa" d="M -3 3 
L 3 3 
L 3 -3 
L -3 -3 
z
" style="stroke: #d4a017; stroke-width: 2; stroke-linejoin: miter"/>
    </defs>
    <g clip-path="url(#p78a58de025)">
     <use xlink:href="#m8edc7154fa" x="62.841563" y="227.684923" style="fill: #ffffff; stroke: #d4a017; stroke-width: 2; stroke-linejoin: miter"/>
     <use xlink:href="#m8edc7154fa" x="110.541563" y="200.745846" style="fill: #ffffff; stroke: #d4a017; stroke-width: 2; stroke-linejoin: miter"/>
     <use xlink:href="#m8edc7154fa" x="158.241563" y="180.541538" style="fill: #ffffff; stroke: #d4a017; stroke-width: 2; stroke-linejoin: miter"/>
     <use xlink:href="#m8edc7154fa" x="205.941563" y="160.337231" style="fill: #ffffff; stroke: #d4a017; stroke-width: 2; stroke-linejoin: miter"/>
     <use xlink:href="#m8edc7154fa" x="253.641563" y="140.132923" style="fill: #ffffff; stroke: #d4a017; stroke-width: 2; stroke-linejoin: miter"/>
     <use xlink:href="#m8edc7154fa" x="301.341563" y="113.193846" style="fill: #ffffff; stroke: #d4a017; stroke-width: 2; stroke-linejoin: miter"/>
     <use xlink:href="#m8edc7154fa" x="349.041563" y="105.408453" style="fill: #ffffff; stroke: #d4a017; stroke-width: 2; stroke-linejoin: miter"/>
    </g>
   </g>
  </g>
  <g id="text_17">
   <!-- 中国人民银行黄金储备 -->
   <g style="fill: #1e293b" transform="translate(48.531563 23.12) scale(0.14 -0.14)">
    <defs>
     <path id="NotoSansSC-Medium-2228" d="M 3494 2118 
L 3494 3667 
L 5158 3667 
L 5158 2118 
L 3494 2118 
z
M 1216 2118 
L 1216 3667 
L 2874 3667 
L 2874 2118 
L 1216 2118 
z
M 3494 4250 
L 3494 5363 
L 2874 5363 
L 2874 4250 
L 621 4250 
L 621 1158 
L 1216 1158 
L 1216 1536 
L 2874 1536 
L 2874 -499 
L 3494 -499 
L 3494 1536 
L 5158 1536 
L 5158 1190 
L 5779 1190 
L 5779 4250 
L 3494 4250 
z
" transform="scale(0.015625)"/>
     <path id="NotoSansSC-Medium-2ae8" d="M 4339 1344 
L 4730 1581 
C 4608 1760 4352 2048 4134 2246 
L 3757 2042 
C 3968 1830 4211 1542 4326 1344 
L 3443 1344 
L 3443 2291 
L 4640 2291 
L 4640 2797 
L 3443 2797 
L 3443 3571 
L 4781 3571 
L 4781 4096 
L 1587 4096 
L 1587 3571 
L 2886 3571 
L 2886 2797 
L 1754 2797 
L 1754 2291 
L 2886 2291 
L 2886 1344 
L 1498 1344 
L 1498 851 
L 4909 851 
L 4909 1344 
L 4339 1344 
z
M 1152 358 
L 1152 4544 
L 5210 4544 
L 5210 358 
L 1152 358 
z
M 550 5094 
L 550 -506 
L 1152 -506 
L 1152 -192 
L 5210 -192 
L 5210 -506 
L 5843 -506 
L 5843 5094 
L 550 5094 
z
" transform="scale(0.015625)"/>
     <path id="NotoSansSC-Medium-22b5" d="M 2829 5350 
C 2810 4326 2880 1344 262 -13 
C 461 -141 653 -333 755 -486 
C 2202 314 2880 1606 3200 2810 
C 3539 1664 4237 256 5741 -454 
C 5824 -294 6003 -83 6176 51 
C 3942 1043 3552 3597 3462 4397 
C 3494 4774 3501 5107 3507 5350 
L 2829 5350 
z
" transform="scale(0.015625)"/>
     <path id="NotoSansSC-Medium-3fe6" d="M 1370 2259 
L 1370 3123 
L 2925 3123 
C 2944 2829 2982 2534 3040 2259 
L 1370 2259 
z
M 4710 4506 
L 4710 3674 
L 1370 3674 
L 1370 4506 
L 4710 4506 
z
M 5779 1702 
L 5779 2259 
L 3661 2259 
C 3603 2528 3558 2829 3539 3123 
L 5312 3123 
L 5312 5056 
L 755 5056 
L 755 493 
C 755 224 582 64 448 -6 
C 550 -128 678 -384 723 -544 
C 902 -429 1178 -365 3098 166 
C 3072 301 3040 557 3034 723 
L 1370 301 
L 1370 1702 
L 3168 1702 
C 3533 454 4243 -435 5075 -435 
C 5581 -435 5811 -198 5907 787 
C 5741 838 5517 954 5382 1075 
C 5344 422 5274 154 5101 154 
C 4627 147 4122 781 3814 1702 
L 5779 1702 
z
" transform="scale(0.015625)"/>
     <path id="NotoSansSC-Medium-68a8" d="M 1811 480 
L 1811 1709 
L 2675 1709 
L 2675 2240 
L 1811 2240 
L 1811 3002 
L 2541 3002 
L 2541 3539 
L 762 3539 
C 902 3718 1043 3910 1165 4122 
L 2611 4122 
L 2611 4691 
L 1466 4691 
C 1549 4858 1619 5030 1670 5197 
L 1146 5357 
C 954 4774 614 4224 237 3853 
C 333 3718 474 3411 525 3283 
C 608 3360 685 3443 762 3539 
L 762 3002 
L 1248 3002 
L 1248 2240 
L 410 2240 
L 410 1709 
L 1248 1709 
L 1248 454 
C 1248 205 1094 77 979 13 
C 1069 -102 1178 -339 1216 -480 
C 1338 -365 1530 -262 2739 346 
C 2701 467 2656 704 2643 864 
L 1811 480 
z
M 3552 3443 
L 5210 3443 
L 5210 2784 
L 3552 2784 
L 3552 3443 
z
M 5210 4576 
L 5210 3930 
L 3552 3930 
L 3552 4576 
L 5210 4576 
z
M 5709 2118 
C 5491 1894 5139 1613 4838 1408 
C 4710 1670 4602 1965 4512 2272 
L 5754 2272 
L 5754 5094 
L 2970 5094 
L 2970 461 
C 2970 186 2822 32 2714 -32 
C 2797 -141 2931 -378 2976 -512 
C 3110 -416 3322 -346 4602 -6 
C 4582 128 4576 365 4576 538 
L 3552 301 
L 3552 2272 
L 4026 2272 
C 4326 1011 4864 32 5805 -461 
C 5888 -307 6054 -70 6182 45 
C 5728 243 5370 570 5088 986 
C 5408 1178 5786 1453 6080 1702 
L 5709 2118 
z
" transform="scale(0.015625)"/>
     <path id="NotoSansSC-Medium-5bfe" d="M 5920 4998 
L 2816 4998 
L 2816 4429 
L 5920 4429 
L 5920 4998 
z
M 1690 5376 
C 1376 4915 762 4346 230 4000 
C 339 3885 499 3654 570 3520 
C 1158 3936 1824 4570 2259 5139 
L 1690 5376 
z
M 1939 4006 
C 1510 3283 819 2554 166 2086 
C 288 1971 499 1709 576 1581 
C 781 1747 998 1946 1210 2157 
L 1210 -518 
L 1805 -518 
L 1805 2816 
C 2067 3136 2304 3469 2502 3795 
L 1939 4006 
z
M 6099 3251 
L 2547 3251 
L 2547 2682 
L 4570 2682 
L 4570 224 
C 4570 134 4531 102 4410 102 
C 4294 96 3866 96 3456 109 
C 3539 -64 3622 -314 3648 -486 
C 4243 -486 4621 -480 4858 -390 
C 5101 -294 5178 -122 5178 218 
L 5178 2682 
L 6099 2682 
L 6099 3251 
z
" transform="scale(0.015625)"/>
     <path id="NotoSansSC-Medium-726b" d="M 2240 621 
C 1830 358 1024 51 378 -109 
C 512 -218 691 -410 794 -525 
C 1440 -358 2246 -45 2752 269 
L 2240 621 
z
M 3725 250 
C 4429 6 5152 -294 5581 -506 
L 6010 -109 
C 5542 102 4768 397 4070 627 
L 3725 250 
z
M 2515 4320 
L 3904 4320 
L 3904 3802 
L 2515 3802 
L 2515 4320 
z
M 4832 2438 
L 4832 1971 
L 3507 1971 
L 3507 2438 
L 4832 2438 
z
M 4832 1088 
L 3507 1088 
L 3507 1568 
L 4832 1568 
L 4832 1088 
z
M 1606 1568 
L 2893 1568 
L 2893 1088 
L 1606 1088 
L 1606 1568 
z
M 1606 2438 
L 2893 2438 
L 2893 1971 
L 1606 1971 
L 1606 2438 
z
M 4518 3802 
L 4518 4320 
L 5626 4320 
L 5626 4845 
L 4518 4845 
L 4518 5363 
L 3904 5363 
L 3904 4845 
L 2515 4845 
L 2515 5363 
L 1907 5363 
L 1907 4845 
L 826 4845 
L 826 4320 
L 1907 4320 
L 1907 3802 
L 371 3802 
L 371 3264 
L 2893 3264 
L 2893 2867 
L 1030 2867 
L 1030 659 
L 5427 659 
L 5427 2867 
L 3507 2867 
L 3507 3264 
L 6054 3264 
L 6054 3802 
L 4518 3802 
z
" transform="scale(0.015625)"/>
     <path id="NotoSansSC-Medium-6583" d="M 1920 3494 
C 2400 3782 2835 4128 3206 4531 
C 3590 4147 4064 3795 4563 3494 
L 1920 3494 
z
M 4851 2944 
L 4851 3334 
C 5171 3162 5491 3008 5805 2899 
C 5894 3053 6080 3290 6214 3418 
C 5254 3699 4179 4307 3552 4934 
C 3610 5011 3661 5094 3718 5178 
L 3162 5427 
C 2554 4486 1395 3782 205 3418 
C 352 3270 518 3040 602 2867 
C 922 2982 1229 3123 1530 3277 
L 1530 2944 
L 2867 2944 
L 2867 2170 
L 755 2170 
L 755 1632 
L 2867 1632 
L 2867 205 
L 461 205 
L 461 -339 
L 5952 -339 
L 5952 205 
L 3501 205 
L 3501 1632 
L 5645 1632 
L 5645 2170 
L 3501 2170 
L 3501 2944 
L 4851 2944 
z
M 4442 230 
C 4659 518 4941 954 5184 1357 
L 4608 1568 
C 4474 1216 4205 730 3987 422 
L 4442 230 
z
M 1242 1376 
C 1472 1018 1722 538 1811 237 
L 2330 461 
C 2227 762 1971 1229 1728 1568 
L 1242 1376 
z
" transform="scale(0.015625)"/>
    </defs>
    <use xlink:href="#NotoSansSC-Medium-2228"/>
    <use xlink:href="#NotoSansSC-Medium-2ae8" transform="translate(100 0)"/>
    <use xlink:href="#NotoSansSC-Medium-22b5" transform="translate(200 0)"/>
    <use xlink:href="#NotoSansSC-Medium-3fe6" transform="translate(300 0)"/>
    <use xlink:href="#NotoSansSC-Medium-68a8" transform="translate(400 0)"/>
    <use xlink:href="#NotoSansSC-Medium-5bfe" transform="translate(500 0)"/>
    <use xlink:href="#NotoSansSC-Medium-726b" transform="translate(600 0)"/>
    <use xlink:href="#NotoSansSC-Medium-6583" transform="translate(700 0)"/>
    <use xlink:href="#NotoSansSC-Medium-24a2" transform="translate(800 0)"/>
    <use xlink:href="#NotoSansSC-Medium-2ced" transform="translate(900 0)"/>
   </g>
  </g>
  <g id="text_18">
   <!-- 连续18个月增持 · 单位: 吨 -->
   <g style="fill: #64748b" transform="translate(48.531563 43.664) scale(0.09 -0.09)">
    <defs>
     <path id="NotoSansSC-Medium-561" d="M 3200 3174 
C 2790 3174 2458 2842 2458 2432 
C 2458 2022 2790 1690 3200 1690 
C 3610 1690 3942 2022 3942 2432 
C 3942 2842 3610 3174 3200 3174 
z
" transform="scale(0.015625)"/>
     <path id="NotoSansSC-Medium-2749" d="M 1523 2176 
L 1523 2752 
L 2880 2752 
L 2880 2176 
L 1523 2176 
z
M 1523 3789 
L 2880 3789 
L 2880 3219 
L 1523 3219 
L 1523 3789 
z
M 4915 3219 
L 3494 3219 
L 3494 3789 
L 4915 3789 
L 4915 3219 
z
M 4915 2176 
L 3494 2176 
L 3494 2752 
L 4915 2752 
L 4915 2176 
z
M 6054 1152 
L 3494 1152 
L 3494 1683 
L 5523 1683 
L 5523 4275 
L 4525 4275 
C 4717 4531 4922 4838 5107 5126 
L 4454 5331 
C 4314 5011 4070 4582 3853 4275 
L 2374 4275 
L 2656 4416 
C 2528 4672 2234 5062 1984 5344 
L 1472 5101 
C 1683 4858 1914 4525 2048 4275 
L 941 4275 
L 941 1683 
L 2880 1683 
L 2880 1152 
L 358 1152 
L 358 602 
L 2880 602 
L 2880 -499 
L 3494 -499 
L 3494 602 
L 6054 602 
L 6054 1152 
z
" transform="scale(0.015625)"/>
     <path id="NotoSansSC-Medium-2348" d="M 4480 4448 
C 4416 4723 4282 5120 4160 5434 
L 3597 5293 
C 3718 4973 3846 4550 3891 4282 
L 4480 4448 
z
M 5843 4250 
L 2355 4250 
L 2355 3674 
L 5843 3674 
L 5843 4250 
z
M 3750 742 
C 3686 1389 3488 2502 3290 3366 
L 2758 3245 
C 2938 2374 3110 1235 3162 570 
L 3750 742 
z
M 1773 5344 
C 1434 4410 864 3475 256 2880 
C 358 2739 531 2419 589 2278 
C 768 2464 947 2675 1114 2912 
L 1114 -493 
L 1715 -493 
L 1715 3846 
C 1952 4275 2170 4723 2336 5171 
L 1773 5344 
z
M 4870 326 
C 5101 1146 5344 2336 5517 3302 
L 4896 3405 
C 4787 2464 4550 1171 4320 326 
L 2099 326 
L 2099 -243 
L 6080 -243 
L 6080 326 
L 4870 326 
z
" transform="scale(0.015625)"/>
     <path id="NotoSansSC-Medium-1b" d="M 954 2432 
C 1229 2432 1446 2650 1446 2944 
C 1446 3245 1229 3469 954 3469 
C 678 3469 461 3245 461 2944 
C 461 2650 678 2432 954 2432 
z
M 954 -83 
C 1229 -83 1446 128 1446 429 
C 1446 736 1229 954 954 954 
C 678 954 461 736 461 429 
C 461 128 678 -83 954 -83 
z
" transform="scale(0.015625)"/>
    </defs>
    <use xlink:href="#NotoSansSC-Medium-6390"/>
    <use xlink:href="#NotoSansSC-Medium-52ae" transform="translate(100 0)"/>
    <use xlink:href="#NotoSansSC-Medium-12" transform="translate(200 0)"/>
    <use xlink:href="#NotoSansSC-Medium-19" transform="translate(257 0)"/>
    <use xlink:href="#NotoSansSC-Medium-2225" transform="translate(314 0)"/>
    <use xlink:href="#NotoSansSC-Medium-3ae0" transform="translate(414 0)"/>
    <use xlink:href="#NotoSansSC-Medium-2c86" transform="translate(514 0)"/>
    <use xlink:href="#NotoSansSC-Medium-36dc" transform="translate(614 0)"/>
    <use xlink:href="#NotoSansSC-Medium-1" transform="translate(714 0)"/>
    <use xlink:href="#NotoSansSC-Medium-561" transform="translate(736.5 0)"/>
    <use xlink:href="#NotoSansSC-Medium-1" transform="translate(836.5 0)"/>
    <use xlink:href="#NotoSansSC-Medium-2749" transform="translate(859 0)"/>
    <use xlink:href="#NotoSansSC-Medium-2348" transform="translate(959 0)"/>
    <use xlink:href="#NotoSansSC-Medium-1b" transform="translate(1059 0)"/>
    <use xlink:href="#NotoSansSC-Medium-1" transform="translate(1088.796875 0)"/>
    <use xlink:href="#NotoSansSC-Medium-2819" transform="translate(1111.296875 0)"/>
   </g>
  </g>
  <g id="text_19">
   <!-- 来源: 中国人民银行 · 2026-05-27 -->
   <g style="fill: #94a3b8" transform="translate(48.531563 268.892) scale(0.065 -0.065)">
    <defs>
     <path id="NotoSansSC-Medium-3b3c" d="M 6029 2003 
L 6029 2579 
L 3514 2579 
L 3514 4064 
L 5773 4064 
L 5773 4634 
L 3514 4634 
L 3514 5370 
L 2886 5370 
L 2886 4634 
L 678 4634 
L 678 4064 
L 2886 4064 
L 2886 2579 
L 378 2579 
L 378 2003 
L 2515 2003 
C 1939 1274 1056 595 224 243 
C 358 122 550 -102 646 -256 
C 1453 147 2285 851 2886 1638 
L 2886 -506 
L 3514 -506 
L 3514 1651 
C 4115 858 4947 134 5760 -275 
C 5856 -115 6048 109 6176 230 
C 5350 589 4467 1274 3904 2003 
L 6029 2003 
z
M 1158 3789 
C 1395 3418 1619 2912 1696 2598 
L 2259 2822 
C 2176 3142 1926 3622 1683 3987 
L 1158 3789 
z
M 4672 2592 
C 4890 2899 5158 3386 5382 3821 
L 4762 4006 
C 4621 3629 4371 3104 4160 2765 
L 4672 2592 
z
" transform="scale(0.015625)"/>
     <path id="NotoSansSC-Medium-4260" d="M 1965 4659 
C 1715 4838 1229 5120 902 5306 
L 550 4883 
C 890 4672 1363 4371 1600 4186 
L 1965 4659 
z
M 1658 2989 
C 1402 3162 922 3430 589 3603 
L 243 3181 
C 589 2982 1062 2688 1299 2515 
L 1658 2989 
z
M 1293 1958 
C 1011 1222 627 403 358 -96 
L 896 -422 
C 1190 186 1517 954 1766 1626 
L 1293 1958 
z
M 2733 4512 
L 6067 4512 
L 6067 5050 
L 2150 5050 
L 2150 3302 
C 2150 2266 2086 826 1370 -173 
C 1510 -237 1766 -390 1869 -486 
C 2618 570 2733 2189 2733 3302 
L 2733 4512 
z
M 3213 1312 
C 3046 902 2771 454 2496 154 
C 2630 83 2861 -58 2970 -134 
C 3232 186 3539 704 3744 1165 
L 3213 1312 
z
M 3571 2534 
L 5299 2534 
L 5299 2067 
L 3571 2067 
L 3571 2534 
z
M 3571 3418 
L 5299 3418 
L 5299 2957 
L 3571 2957 
L 3571 3418 
z
M 5856 1626 
L 5856 3866 
L 4544 3866 
C 4621 4019 4710 4179 4794 4352 
L 4128 4474 
C 4090 4301 4019 4064 3955 3866 
L 3040 3866 
L 3040 1626 
L 4122 1626 
L 4122 102 
C 4122 32 4096 6 4019 6 
C 3942 6 3680 0 3411 13 
C 3469 -134 3546 -352 3565 -499 
C 3981 -506 4262 -499 4448 -410 
C 4640 -333 4685 -186 4685 83 
L 4685 1626 
L 5856 1626 
z
M 5005 1178 
C 5235 774 5517 237 5651 -83 
L 6195 154 
C 6054 467 5754 986 5517 1370 
L 5005 1178 
z
" transform="scale(0.015625)"/>
     <path id="NotoSansSC-Medium-e" d="M 301 1536 
L 1990 1536 
L 1990 2080 
L 301 2080 
L 301 1536 
z
" transform="scale(0.015625)"/>
     <path id="NotoSansSC-Medium-18" d="M 1235 0 
L 1990 0 
C 2067 1843 2240 2886 3347 4262 
L 3347 4717 
L 314 4717 
L 314 4090 
L 2528 4090 
C 1619 2822 1318 1722 1235 0 
z
" transform="scale(0.015625)"/>
    </defs>
    <use xlink:href="#NotoSansSC-Medium-3b3c"/>
    <use xlink:href="#NotoSansSC-Medium-4260" transform="translate(100 0)"/>
    <use xlink:href="#NotoSansSC-Medium-1b" transform="translate(200 0)"/>
    <use xlink:href="#NotoSansSC-Medium-1" transform="translate(229.796875 0)"/>
    <use xlink:href="#NotoSansSC-Medium-2228" transform="translate(252.296875 0)"/>
    <use xlink:href="#NotoSansSC-Medium-2ae8" transform="translate(352.296875 0)"/>
    <use xlink:href="#NotoSansSC-Medium-22b5" transform="translate(452.296875 0)"/>
    <use xlink:href="#NotoSansSC-Medium-3fe6" transform="translate(552.296875 0)"/>
    <use xlink:href="#NotoSansSC-Medium-68a8" transform="translate(652.296875 0)"/>
    <use xlink:href="#NotoSansSC-Medium-5bfe" transform="translate(752.296875 0)"/>
    <use xlink:href="#NotoSansSC-Medium-1" transform="translate(852.296875 0)"/>
    <use xlink:href="#NotoSansSC-Medium-561" transform="translate(874.796875 0)"/>
    <use xlink:href="#NotoSansSC-Medium-1" transform="translate(974.796875 0)"/>
    <use xlink:href="#NotoSansSC-Medium-13" transform="translate(997.296875 0)"/>
    <use xlink:href="#NotoSansSC-Medium-11" transform="translate(1054.296875 0)"/>
    <use xlink:href="#NotoSansSC-Medium-13" transform="translate(1111.296875 0)"/>
    <use xlink:href="#NotoSansSC-Medium-17" transform="translate(1168.296875 0)"/>
    <use xlink:href="#NotoSansSC-Medium-e" transform="translate(1225.296875 0)"/>
    <use xlink:href="#NotoSansSC-Medium-11" transform="translate(1261 0)"/>
    <use xlink:href="#NotoSansSC-Medium-16" transform="translate(1318 0)"/>
    <use xlink:href="#NotoSansSC-Medium-e" transform="translate(1375 0)"/>
    <use xlink:href="#NotoSansSC-Medium-13" transform="translate(1410.703125 0)"/>
    <use xlink:href="#NotoSansSC-Medium-18" transform="translate(1467.703125 0)"/>
   </g>
  </g>
 </g>
 <defs>
  <clipPath id="p78a58de025">
   <rect x="48.531563" y="79.52" width="314.82" height="175.104"/>
  </clipPath>
 </defs>
</svg>
