<?xml version="1.0" encoding="utf-8" standalone="no"?>
<!DOCTYPE svg PUBLIC "-//W3C//DTD SVG 1.1//EN"
  "http://www.w3.org/Graphics/SVG/1.1/DTD/svg11.dtd">
<svg xmlns:xlink="http://www.w3.org/1999/xlink" width="372.007031pt" height="280.990437pt" viewBox="0 0 372.007031 280.990437" xmlns="http://www.w3.org/2000/svg" version="1.1">
 <metadata>
  <rdf:RDF xmlns:dc="http://purl.org/dc/elements/1.1/" xmlns:cc="http://creativecommons.org/ns#" xmlns:rdf="http://www.w3.org/1999/02/22-rdf-syntax-ns#">
   <cc:Work>
    <dc:type rdf:resource="http://purl.org/dc/dcmitype/StillImage"/>
    <dc:date>2026-05-28T22:50:41.879528</dc:date>
    <dc:format>image/svg+xml</dc:format>
    <dc:creator>
     <cc:Agent>
      <dc:title>Matplotlib v3.10.9, https://matplotlib.org/</dc:title>
     </cc:Agent>
    </dc:creator>
   </cc:Work>
  </rdf:RDF>
 </metadata>
 <defs>
  <style type="text/css">*{stroke-linejoin: round; stroke-linecap: butt}</style>
 </defs>
 <g id="figure_1">
  <g id="patch_1">
   <path d="M 0 280.990437 
L 372.007031 280.990437 
L 372.007031 0 
L 0 0 
z
" style="fill: #f0f2f5"/>
  </g>
  <g id="axes_1">
   <g id="patch_2">
    <path d="M 46.387031 255.142437 
L 361.207031 255.142437 
L 361.207031 80.038437 
L 46.387031 80.038437 
z
" style="fill: #ffffff"/>
   </g>
   <g id="matplotlib.axis_1">
    <g id="xtick_1">
     <g id="line2d_1"/>
     <g id="text_1">
      <!-- 24/12 -->
      <g style="fill: #94a3b8" transform="translate(49.538438 265.789) scale(0.09 -0.09)">
       <defs>
        <path id="NotoSansSC-Thin-32" d="M 294 0 
L 294 147 
Q 1120 858 1613 1434 
Q 2106 2010 2323 2499 
Q 2541 2989 2541 3424 
Q 2541 3725 2435 3974 
Q 2330 4224 2106 4371 
Q 1882 4518 1523 4518 
Q 1210 4518 931 4352 
Q 653 4186 442 3923 
L 282 4070 
Q 525 4346 829 4538 
Q 1133 4730 1542 4730 
Q 1939 4730 2214 4566 
Q 2490 4403 2637 4112 
Q 2784 3821 2784 3424 
Q 2784 2918 2537 2406 
Q 2291 1894 1820 1347 
Q 1350 800 678 179 
Q 870 192 1062 201 
Q 1254 211 1440 211 
L 3014 211 
L 3014 0 
L 294 0 
z
" transform="scale(0.015625)"/>
        <path id="NotoSansSC-Thin-34" d="M 2195 0 
L 2195 3482 
Q 2195 3629 2204 3843 
Q 2214 4058 2227 4205 
L 2195 4205 
Q 2112 4058 2019 3901 
Q 1926 3744 1830 3590 
L 422 1568 
L 3110 1568 
L 3110 1363 
L 115 1363 
L 115 1485 
L 2259 4646 
L 2419 4646 
L 2419 0 
L 2195 0 
z
" transform="scale(0.015625)"/>
        <path id="NotoSansSC-Thin-2f" d="M 58 -1126 
L 2298 5005 
L 2515 5005 
L 282 -1126 
L 58 -1126 
z
" transform="scale(0.015625)"/>
        <path id="NotoSansSC-Thin-31" d="M 608 0 
L 608 211 
L 1677 211 
L 1677 4211 
L 864 4211 
L 864 4378 
Q 1133 4422 1344 4492 
Q 1555 4563 1702 4646 
L 1901 4646 
L 1901 211 
L 2899 211 
L 2899 0 
L 608 0 
z
" transform="scale(0.015625)"/>
       </defs>
       <use xlink:href="#NotoSansSC-Thin-32"/>
       <use xlink:href="#NotoSansSC-Thin-34" transform="translate(52.099991 0)"/>
       <use xlink:href="#NotoSansSC-Thin-2f" transform="translate(104.199982 0)"/>
       <use xlink:href="#NotoSansSC-Thin-31" transform="translate(143.799973 0)"/>
       <use xlink:href="#NotoSansSC-Thin-32" transform="translate(195.899963 0)"/>
      </g>
     </g>
    </g>
    <g id="xtick_2">
     <g id="line2d_2"/>
     <g id="text_2">
      <!-- 25/3 -->
      <g style="fill: #94a3b8" transform="translate(99.582656 265.789) scale(0.09 -0.09)">
       <defs>
        <path id="NotoSansSC-Thin-35" d="M 1581 -83 
Q 1222 -83 963 9 
Q 704 102 515 240 
Q 326 378 186 518 
L 333 691 
Q 467 550 636 422 
Q 806 294 1040 211 
Q 1274 128 1594 128 
Q 1901 128 2166 294 
Q 2432 461 2592 765 
Q 2752 1069 2752 1466 
Q 2752 2061 2441 2406 
Q 2131 2752 1606 2752 
Q 1350 2752 1152 2665 
Q 954 2579 755 2445 
L 563 2560 
L 730 4646 
L 2758 4646 
L 2758 4435 
L 941 4435 
L 787 2726 
Q 966 2835 1168 2902 
Q 1370 2970 1626 2970 
Q 2010 2970 2320 2813 
Q 2630 2656 2812 2326 
Q 2995 1997 2995 1478 
Q 2995 979 2787 630 
Q 2579 282 2256 99 
Q 1933 -83 1581 -83 
z
" transform="scale(0.015625)"/>
        <path id="NotoSansSC-Thin-33" d="M 1619 -83 
Q 1261 -83 998 13 
Q 736 109 544 256 
Q 352 403 211 550 
L 358 717 
Q 563 499 857 313 
Q 1152 128 1632 128 
Q 1952 128 2198 262 
Q 2445 397 2585 640 
Q 2726 883 2726 1210 
Q 2726 1542 2560 1795 
Q 2394 2048 2038 2189 
Q 1683 2330 1114 2330 
L 1114 2554 
Q 1651 2554 1964 2698 
Q 2278 2842 2416 3088 
Q 2554 3334 2554 3629 
Q 2554 4026 2298 4272 
Q 2042 4518 1606 4518 
Q 1293 4518 1017 4374 
Q 742 4230 557 4026 
L 410 4192 
Q 634 4410 925 4570 
Q 1216 4730 1606 4730 
Q 1939 4730 2211 4598 
Q 2483 4467 2643 4224 
Q 2803 3981 2803 3642 
Q 2803 3168 2550 2877 
Q 2298 2586 1926 2464 
L 1926 2438 
Q 2208 2381 2445 2221 
Q 2682 2061 2826 1808 
Q 2970 1555 2970 1222 
Q 2970 826 2790 531 
Q 2611 237 2307 77 
Q 2003 -83 1619 -83 
z
" transform="scale(0.015625)"/>
       </defs>
       <use xlink:href="#NotoSansSC-Thin-32"/>
       <use xlink:href="#NotoSansSC-Thin-35" transform="translate(52.099991 0)"/>
       <use xlink:href="#NotoSansSC-Thin-2f" transform="translate(104.199982 0)"/>
       <use xlink:href="#NotoSansSC-Thin-33" transform="translate(143.799973 0)"/>
      </g>
     </g>
    </g>
    <g id="xtick_3">
     <g id="line2d_3"/>
     <g id="text_3">
      <!-- 6 -->
      <g style="fill: #94a3b8" transform="translate(153.752813 265.789) scale(0.09 -0.09)">
       <defs>
        <path id="NotoSansSC-Thin-36" d="M 1837 -83 
Q 1498 -83 1232 67 
Q 966 218 780 509 
Q 595 800 496 1216 
Q 397 1632 397 2170 
Q 397 2886 528 3379 
Q 659 3872 889 4169 
Q 1120 4467 1414 4598 
Q 1709 4730 2029 4730 
Q 2330 4730 2550 4614 
Q 2771 4499 2944 4307 
L 2790 4147 
Q 2643 4333 2444 4425 
Q 2246 4518 2022 4518 
Q 1651 4518 1334 4297 
Q 1018 4077 826 3561 
Q 634 3046 634 2170 
Q 634 1581 762 1120 
Q 890 659 1158 393 
Q 1427 128 1850 128 
Q 2125 128 2336 297 
Q 2547 467 2672 752 
Q 2797 1037 2797 1382 
Q 2797 1741 2694 2025 
Q 2592 2310 2368 2476 
Q 2144 2643 1779 2643 
Q 1523 2643 1209 2470 
Q 896 2298 602 1888 
L 602 2176 
Q 768 2381 957 2531 
Q 1146 2682 1360 2762 
Q 1574 2842 1792 2842 
Q 2189 2842 2467 2675 
Q 2746 2509 2893 2185 
Q 3040 1862 3040 1382 
Q 3040 960 2873 630 
Q 2707 301 2435 109 
Q 2163 -83 1837 -83 
z
" transform="scale(0.015625)"/>
       </defs>
       <use xlink:href="#NotoSansSC-Thin-36"/>
      </g>
     </g>
    </g>
    <g id="xtick_4">
     <g id="line2d_4"/>
     <g id="text_4">
      <!-- 9 -->
      <g style="fill: #94a3b8" transform="translate(201.452813 265.789) scale(0.09 -0.09)">
       <defs>
        <path id="NotoSansSC-Thin-39" d="M 1370 -83 
Q 1050 -83 819 32 
Q 589 147 410 339 
L 557 506 
Q 723 314 934 221 
Q 1146 128 1389 128 
Q 1651 128 1891 256 
Q 2131 384 2316 675 
Q 2502 966 2611 1443 
Q 2720 1920 2720 2618 
Q 2720 3168 2592 3600 
Q 2464 4032 2195 4278 
Q 1926 4525 1498 4525 
Q 1229 4525 1014 4355 
Q 800 4186 675 3901 
Q 550 3616 550 3264 
Q 550 2912 652 2627 
Q 755 2342 979 2172 
Q 1203 2003 1555 2003 
Q 1830 2003 2137 2182 
Q 2445 2362 2739 2765 
L 2746 2470 
Q 2586 2278 2397 2128 
Q 2208 1978 1993 1891 
Q 1779 1805 1536 1805 
Q 1152 1805 877 1974 
Q 602 2144 454 2470 
Q 307 2797 307 3264 
Q 307 3686 473 4019 
Q 640 4352 912 4541 
Q 1184 4730 1510 4730 
Q 1850 4730 2118 4589 
Q 2387 4448 2572 4176 
Q 2758 3904 2857 3513 
Q 2957 3123 2957 2618 
Q 2957 1862 2825 1344 
Q 2694 826 2470 512 
Q 2246 198 1961 57 
Q 1677 -83 1370 -83 
z
" transform="scale(0.015625)"/>
       </defs>
       <use xlink:href="#NotoSansSC-Thin-39"/>
      </g>
     </g>
    </g>
    <g id="xtick_5">
     <g id="line2d_5"/>
     <g id="text_5">
      <!-- 12 -->
      <g style="fill: #94a3b8" transform="translate(246.808594 265.789) scale(0.09 -0.09)">
       <use xlink:href="#NotoSansSC-Thin-31"/>
       <use xlink:href="#NotoSansSC-Thin-32" transform="translate(52.099991 0)"/>
      </g>
     </g>
    </g>
    <g id="xtick_6">
     <g id="line2d_6"/>
     <g id="text_6">
      <!-- 26/3 -->
      <g style="fill: #94a3b8" transform="translate(290.382656 265.789) scale(0.09 -0.09)">
       <use xlink:href="#NotoSansSC-Thin-32"/>
       <use xlink:href="#NotoSansSC-Thin-36" transform="translate(52.099991 0)"/>
       <use xlink:href="#NotoSansSC-Thin-2f" transform="translate(104.199982 0)"/>
       <use xlink:href="#NotoSansSC-Thin-33" transform="translate(143.799973 0)"/>
      </g>
     </g>
    </g>
    <g id="xtick_7">
     <g id="line2d_7"/>
     <g id="text_7">
      <!-- 4 -->
      <g style="fill: #94a3b8" transform="translate(344.552813 265.789) scale(0.09 -0.09)">
       <use xlink:href="#NotoSansSC-Thin-34"/>
      </g>
     </g>
    </g>
   </g>
   <g id="matplotlib.axis_2">
    <g id="ytick_1">
     <g id="line2d_8">
      <path d="M 46.387031 255.142437 
L 361.207031 255.142437 
" clip-path="url(#p7c98720cbc)" style="fill: none; stroke: #e2e8f0; stroke-opacity: 0.6; stroke-width: 0.5; stroke-linecap: square"/>
     </g>
     <g id="line2d_9"/>
     <g id="text_8">
      <!-- 2100 -->
      <g style="fill: #94a3b8" transform="translate(24.133281 258.715719) scale(0.09 -0.09)">
       <defs>
        <path id="NotoSansSC-Thin-30" d="M 1670 -83 
Q 1261 -83 963 179 
Q 666 442 509 979 
Q 352 1517 352 2336 
Q 352 3149 509 3677 
Q 666 4205 963 4467 
Q 1261 4730 1670 4730 
Q 2080 4730 2371 4467 
Q 2662 4205 2822 3677 
Q 2982 3149 2982 2336 
Q 2982 1517 2822 979 
Q 2662 442 2371 179 
Q 2080 -83 1670 -83 
z
M 1670 128 
Q 1997 128 2240 384 
Q 2483 640 2614 1133 
Q 2746 1626 2746 2336 
Q 2746 3040 2614 3529 
Q 2483 4019 2240 4272 
Q 1997 4525 1670 4525 
Q 1344 4525 1101 4272 
Q 858 4019 723 3529 
Q 589 3040 589 2336 
Q 589 1626 723 1133 
Q 858 640 1101 384 
Q 1344 128 1670 128 
z
" transform="scale(0.015625)"/>
       </defs>
       <use xlink:href="#NotoSansSC-Thin-32"/>
       <use xlink:href="#NotoSansSC-Thin-31" transform="translate(52.099991 0)"/>
       <use xlink:href="#NotoSansSC-Thin-30" transform="translate(104.199982 0)"/>
       <use xlink:href="#NotoSansSC-Thin-30" transform="translate(156.299973 0)"/>
      </g>
     </g>
    </g>
    <g id="ytick_2">
     <g id="line2d_10">
      <path d="M 46.387031 221.468591 
L 361.207031 221.468591 
" clip-path="url(#p7c98720cbc)" style="fill: none; stroke: #e2e8f0; stroke-opacity: 0.6; stroke-width: 0.5; stroke-linecap: square"/>
     </g>
     <g id="line2d_11"/>
     <g id="text_9">
      <!-- 2150 -->
      <g style="fill: #94a3b8" transform="translate(24.133281 225.041873) scale(0.09 -0.09)">
       <use xlink:href="#NotoSansSC-Thin-32"/>
       <use xlink:href="#NotoSansSC-Thin-31" transform="translate(52.099991 0)"/>
       <use xlink:href="#NotoSansSC-Thin-35" transform="translate(104.199982 0)"/>
       <use xlink:href="#NotoSansSC-Thin-30" transform="translate(156.299973 0)"/>
      </g>
     </g>
    </g>
    <g id="ytick_3">
     <g id="line2d_12">
      <path d="M 46.387031 187.794745 
L 361.207031 187.794745 
" clip-path="url(#p7c98720cbc)" style="fill: none; stroke: #e2e8f0; stroke-opacity: 0.6; stroke-width: 0.5; stroke-linecap: square"/>
     </g>
     <g id="line2d_13"/>
     <g id="text_10">
      <!-- 2200 -->
      <g style="fill: #94a3b8" transform="translate(24.133281 191.368026) scale(0.09 -0.09)">
       <use xlink:href="#NotoSansSC-Thin-32"/>
       <use xlink:href="#NotoSansSC-Thin-32" transform="translate(52.099991 0)"/>
       <use xlink:href="#NotoSansSC-Thin-30" transform="translate(104.199982 0)"/>
       <use xlink:href="#NotoSansSC-Thin-30" transform="translate(156.299973 0)"/>
      </g>
     </g>
    </g>
    <g id="ytick_4">
     <g id="line2d_14">
      <path d="M 46.387031 154.120899 
L 361.207031 154.120899 
" clip-path="url(#p7c98720cbc)" style="fill: none; stroke: #e2e8f0; stroke-opacity: 0.6; stroke-width: 0.5; stroke-linecap: square"/>
     </g>
     <g id="line2d_15"/>
     <g id="text_11">
      <!-- 2250 -->
      <g style="fill: #94a3b8" transform="translate(24.133281 157.69418) scale(0.09 -0.09)">
       <use xlink:href="#NotoSansSC-Thin-32"/>
       <use xlink:href="#NotoSansSC-Thin-32" transform="translate(52.099991 0)"/>
       <use xlink:href="#NotoSansSC-Thin-35" transform="translate(104.199982 0)"/>
       <use xlink:href="#NotoSansSC-Thin-30" transform="translate(156.299973 0)"/>
      </g>
     </g>
    </g>
    <g id="ytick_5">
     <g id="line2d_16">
      <path d="M 46.387031 120.447053 
L 361.207031 120.447053 
" clip-path="url(#p7c98720cbc)" style="fill: none; stroke: #e2e8f0; stroke-opacity: 0.6; stroke-width: 0.5; stroke-linecap: square"/>
     </g>
     <g id="line2d_17"/>
     <g id="text_12">
      <!-- 2300 -->
      <g style="fill: #94a3b8" transform="translate(24.133281 124.020334) scale(0.09 -0.09)">
       <use xlink:href="#NotoSansSC-Thin-32"/>
       <use xlink:href="#NotoSansSC-Thin-33" transform="translate(52.099991 0)"/>
       <use xlink:href="#NotoSansSC-Thin-30" transform="translate(104.199982 0)"/>
       <use xlink:href="#NotoSansSC-Thin-30" transform="translate(156.299973 0)"/>
      </g>
     </g>
    </g>
    <g id="ytick_6">
     <g id="line2d_18">
      <path d="M 46.387031 86.773207 
L 361.207031 86.773207 
" clip-path="url(#p7c98720cbc)" style="fill: none; stroke: #e2e8f0; stroke-opacity: 0.6; stroke-width: 0.5; stroke-linecap: square"/>
     </g>
     <g id="line2d_19"/>
     <g id="text_13">
      <!-- 2350 -->
      <g style="fill: #94a3b8" transform="translate(24.133281 90.346488) scale(0.09 -0.09)">
       <use xlink:href="#NotoSansSC-Thin-32"/>
       <use xlink:href="#NotoSansSC-Thin-33" transform="translate(52.099991 0)"/>
       <use xlink:href="#NotoSansSC-Thin-35" transform="translate(104.199982 0)"/>
       <use xlink:href="#NotoSansSC-Thin-30" transform="translate(156.299973 0)"/>
      </g>
     </g>
    </g>
    <g id="text_14">
     <!-- 储备量 (吨) -->
     <g style="fill: #64748b" transform="translate(17.946562 189.272) rotate(-90) scale(0.09 -0.09)">
      <defs>
       <path id="NotoSansSC-Thin-50a8" d="M 4237 5318 
L 4422 5318 
L 4422 3174 
L 4237 3174 
L 4237 5318 
z
M 5811 5005 
L 5990 4941 
Q 5466 3891 4678 3056 
Q 3891 2221 2976 1651 
Q 2963 1670 2937 1702 
Q 2912 1734 2886 1766 
Q 2861 1798 2835 1811 
Q 3450 2163 4003 2652 
Q 4557 3142 5021 3737 
Q 5485 4333 5811 5005 
z
M 3232 4493 
L 5325 4493 
L 5325 4301 
L 3232 4301 
L 3232 4493 
z
M 3072 3270 
L 6074 3270 
L 6074 3078 
L 3072 3078 
L 3072 3270 
z
M 3738 1235 
L 5664 1235 
L 5664 1050 
L 3738 1050 
L 3738 1235 
z
M 3648 2285 
L 5754 2285 
L 5754 -397 
L 5562 -397 
L 5562 2093 
L 3834 2093 
L 3834 -416 
L 3648 -416 
L 3648 2285 
z
M 3738 160 
L 5664 160 
L 5664 -32 
L 3738 -32 
L 3738 160 
z
M 1933 4858 
L 2086 4960 
Q 2291 4762 2492 4522 
Q 2694 4282 2797 4102 
L 2643 3974 
Q 2541 4160 2339 4409 
Q 2138 4659 1933 4858 
z
M 1581 3219 
L 2458 3219 
L 2458 3034 
L 1581 3034 
L 1581 3219 
z
M 2253 -205 
Q 2246 -179 2224 -144 
Q 2202 -109 2179 -73 
Q 2157 -38 2131 -13 
Q 2182 19 2246 105 
Q 2310 192 2310 378 
L 2310 3219 
L 2502 3219 
L 2502 77 
Q 2502 77 2464 48 
Q 2426 19 2378 -25 
Q 2330 -70 2291 -118 
Q 2253 -166 2253 -205 
z
M 2253 -205 
L 2246 0 
L 2355 154 
L 3251 698 
Q 3264 653 3283 601 
Q 3302 550 3309 525 
Q 2989 314 2790 186 
Q 2592 58 2486 -12 
Q 2381 -83 2333 -124 
Q 2285 -166 2253 -205 
z
M 1574 5306 
L 1760 5261 
Q 1594 4723 1376 4204 
Q 1158 3686 899 3228 
Q 640 2771 358 2406 
Q 346 2426 320 2451 
Q 294 2477 268 2505 
Q 243 2534 224 2554 
Q 506 2899 755 3340 
Q 1005 3782 1213 4284 
Q 1421 4787 1574 5306 
z
M 1043 3802 
L 1222 3981 
L 1229 3974 
L 1229 -429 
L 1043 -429 
L 1043 3802 
z
" transform="scale(0.015625)"/>
       <path id="NotoSansSC-Thin-5907" d="M 2042 4730 
L 4838 4730 
L 4838 4544 
L 2042 4544 
L 2042 4730 
z
M 4787 4730 
L 4832 4730 
L 4877 4742 
L 4998 4646 
Q 4723 4269 4316 3942 
Q 3910 3616 3427 3344 
Q 2944 3072 2419 2857 
Q 1894 2643 1372 2489 
Q 851 2336 378 2240 
Q 371 2272 352 2310 
Q 333 2349 313 2381 
Q 294 2413 275 2432 
Q 742 2515 1257 2662 
Q 1773 2810 2288 3014 
Q 2803 3219 3276 3478 
Q 3750 3738 4140 4042 
Q 4531 4346 4787 4691 
L 4787 4730 
z
M 1990 4493 
Q 2374 3955 3011 3552 
Q 3648 3149 4454 2889 
Q 5261 2630 6138 2515 
Q 6118 2496 6092 2464 
Q 6067 2432 6048 2403 
Q 6029 2374 6016 2342 
Q 5152 2470 4339 2739 
Q 3526 3008 2870 3424 
Q 2214 3840 1811 4403 
L 1990 4493 
z
M 1229 2304 
L 5203 2304 
L 5203 -429 
L 5011 -429 
L 5011 2112 
L 1421 2112 
L 1421 -454 
L 1229 -454 
L 1229 2304 
z
M 1254 1171 
L 5158 1171 
L 5158 986 
L 1254 986 
L 1254 1171 
z
M 1254 -32 
L 5158 -32 
L 5158 -218 
L 1254 -218 
L 1254 -32 
z
M 3110 2170 
L 3302 2170 
L 3302 -141 
L 3110 -141 
L 3110 2170 
z
M 2419 5318 
L 2630 5280 
Q 2374 4813 1907 4320 
Q 1440 3827 749 3443 
Q 730 3469 704 3494 
Q 678 3520 652 3542 
Q 627 3565 602 3578 
Q 1056 3814 1411 4108 
Q 1766 4403 2019 4720 
Q 2272 5037 2419 5318 
z
" transform="scale(0.015625)"/>
       <path id="NotoSansSC-Thin-91cf" d="M 1350 4250 
L 1350 3757 
L 5056 3757 
L 5056 4250 
L 1350 4250 
z
M 1350 4915 
L 1350 4435 
L 5056 4435 
L 5056 4915 
L 1350 4915 
z
M 1165 5101 
L 5242 5101 
L 5242 3571 
L 1165 3571 
L 1165 5101 
z
M 1235 1779 
L 1235 1274 
L 5267 1274 
L 5267 1779 
L 1235 1779 
z
M 1235 2464 
L 1235 1971 
L 5267 1971 
L 5267 2464 
L 1235 2464 
z
M 1050 2656 
L 5459 2656 
L 5459 1088 
L 1050 1088 
L 1050 2656 
z
M 3091 2573 
L 3283 2573 
L 3283 -192 
L 3091 -192 
L 3091 2573 
z
M 378 3226 
L 6029 3226 
L 6029 3034 
L 378 3034 
L 378 3226 
z
M 819 595 
L 5619 595 
L 5619 410 
L 819 410 
L 819 595 
z
M 320 -102 
L 6086 -102 
L 6086 -288 
L 320 -288 
L 320 -102 
z
" transform="scale(0.015625)"/>
       <path id="NotoSansSC-Thin-20" transform="scale(0.015625)"/>
       <path id="NotoSansSC-Thin-28" d="M 1562 -1222 
Q 1133 -525 883 252 
Q 634 1030 634 1958 
Q 634 2886 883 3667 
Q 1133 4448 1562 5146 
L 1696 5056 
Q 1274 4390 1059 3596 
Q 845 2803 845 1958 
Q 845 1114 1059 320 
Q 1274 -474 1696 -1139 
L 1562 -1222 
z
" transform="scale(0.015625)"/>
       <path id="NotoSansSC-Thin-5428" d="M 5382 3430 
L 5568 3430 
L 5568 838 
L 5382 838 
L 5382 3430 
z
M 3962 5299 
L 4147 5299 
L 4147 224 
Q 4147 45 4182 -70 
Q 4218 -186 4301 -218 
Q 4454 -256 4621 -256 
Q 4723 -256 4908 -256 
Q 5094 -256 5235 -256 
Q 5350 -256 5465 -249 
Q 5581 -243 5638 -230 
Q 5702 -211 5760 -172 
Q 5818 -134 5837 -64 
Q 5856 19 5865 182 
Q 5875 346 5882 582 
Q 5926 550 5980 528 
Q 6035 506 6080 493 
Q 6080 307 6061 99 
Q 6042 -109 6010 -186 
Q 5978 -275 5910 -326 
Q 5843 -378 5754 -403 
Q 5658 -422 5520 -432 
Q 5382 -442 5242 -442 
Q 5197 -442 5065 -442 
Q 4934 -442 4803 -442 
Q 4672 -442 4627 -442 
Q 4525 -442 4397 -426 
Q 4269 -410 4166 -378 
Q 4096 -346 4048 -285 
Q 4000 -224 3981 -86 
Q 3962 51 3962 314 
L 3962 5299 
z
M 2234 4314 
L 5990 4314 
L 5990 4128 
L 2234 4128 
L 2234 4314 
z
M 2547 3424 
L 2733 3424 
L 2733 1504 
L 5536 1504 
L 5536 1318 
L 2547 1318 
L 2547 3424 
z
M 608 4653 
L 1933 4653 
L 1933 1274 
L 608 1274 
L 608 1466 
L 1747 1466 
L 1747 4467 
L 608 4467 
L 608 4653 
z
M 538 4653 
L 730 4653 
L 730 614 
L 538 614 
L 538 4653 
z
" transform="scale(0.015625)"/>
       <path id="NotoSansSC-Thin-29" d="M 352 -1222 
L 211 -1139 
Q 634 -474 851 320 
Q 1069 1114 1069 1958 
Q 1069 2803 851 3596 
Q 634 4390 211 5056 
L 352 5146 
Q 787 4448 1033 3667 
Q 1280 2886 1280 1958 
Q 1280 1030 1033 252 
Q 787 -525 352 -1222 
z
" transform="scale(0.015625)"/>
      </defs>
      <use xlink:href="#NotoSansSC-Thin-50a8"/>
      <use xlink:href="#NotoSansSC-Thin-5907" transform="translate(99.999985 0)"/>
      <use xlink:href="#NotoSansSC-Thin-91cf" transform="translate(199.999969 0)"/>
      <use xlink:href="#NotoSansSC-Thin-20" transform="translate(299.999954 0)"/>
      <use xlink:href="#NotoSansSC-Thin-28" transform="translate(321.999939 0)"/>
      <use xlink:href="#NotoSansSC-Thin-5428" transform="translate(351.899933 0)"/>
      <use xlink:href="#NotoSansSC-Thin-29" transform="translate(451.899918 0)"/>
     </g>
    </g>
   </g>
   <g id="FillBetweenPolyCollection_1">
    <path d="M 60.697031 1669.443976 
L 60.697031 228.203361 
L 108.397031 201.264284 
L 156.097031 181.059976 
L 203.797031 160.855668 
L 251.497031 140.651361 
L 299.197031 113.712284 
L 346.897031 105.92689 
L 346.897031 1669.443976 
L 346.897031 1669.443976 
L 299.197031 1669.443976 
L 251.497031 1669.443976 
L 203.797031 1669.443976 
L 156.097031 1669.443976 
L 108.397031 1669.443976 
L 60.697031 1669.443976 
z
" clip-path="url(#p7c98720cbc)" style="fill: #d4a017; fill-opacity: 0.1; stroke: #d4a017; stroke-opacity: 0.1; stroke-width: 1.5"/>
   </g>
   <g id="patch_3">
    <path d="M 311.542224 92.751754 
Q 328.280947 98.989518 343.762486 104.758787 
" style="fill: none; stroke: #d4a017; stroke-width: 1.2; stroke-linecap: round"/>
    <path d="M 341.01766 101.814992 
L 343.762486 104.758787 
L 339.760554 105.188371 
" style="fill: none; stroke: #d4a017; stroke-width: 1.2; stroke-linecap: round"/>
   </g>
   <g id="text_15">
    <!-- 2321.6吨 -->
    <g style="fill: #1e293b" transform="translate(272.396719 81.694758) scale(0.09 -0.09)">
     <defs>
      <path id="NotoSansSC-Thin-2e" d="M 736 -83 
Q 640 -83 560 -9 
Q 480 64 480 192 
Q 480 333 560 406 
Q 640 480 736 480 
Q 838 480 918 406 
Q 998 333 998 192 
Q 998 64 918 -9 
Q 838 -83 736 -83 
z
" transform="scale(0.015625)"/>
     </defs>
     <use xlink:href="#NotoSansSC-Thin-32"/>
     <use xlink:href="#NotoSansSC-Thin-33" transform="translate(52.099991 0)"/>
     <use xlink:href="#NotoSansSC-Thin-32" transform="translate(104.199982 0)"/>
     <use xlink:href="#NotoSansSC-Thin-31" transform="translate(156.299973 0)"/>
     <use xlink:href="#NotoSansSC-Thin-2e" transform="translate(208.399963 0)"/>
     <use xlink:href="#NotoSansSC-Thin-36" transform="translate(231.499954 0)"/>
     <use xlink:href="#NotoSansSC-Thin-5428" transform="translate(283.599945 0)"/>
    </g>
    <!-- +8.09吨 -->
    <g style="fill: #1e293b" transform="translate(274.740938 92.457352) scale(0.09 -0.09)">
     <defs>
      <path id="NotoSansSC-Thin-2b" d="M 1549 787 
L 1549 2221 
L 237 2221 
L 237 2426 
L 1549 2426 
L 1549 3866 
L 1786 3866 
L 1786 2426 
L 3098 2426 
L 3098 2221 
L 1786 2221 
L 1786 787 
L 1549 787 
z
" transform="scale(0.015625)"/>
      <path id="NotoSansSC-Thin-38" d="M 1696 -83 
Q 1286 -83 966 80 
Q 646 243 464 521 
Q 282 800 282 1152 
Q 282 1478 422 1744 
Q 563 2010 774 2202 
Q 986 2394 1197 2509 
L 1197 2534 
Q 954 2694 752 2953 
Q 550 3213 550 3578 
Q 550 3910 704 4163 
Q 858 4416 1117 4560 
Q 1376 4704 1696 4704 
Q 2080 4704 2345 4544 
Q 2611 4384 2752 4112 
Q 2893 3840 2893 3494 
Q 2893 3238 2784 3008 
Q 2675 2778 2528 2602 
Q 2381 2426 2253 2317 
L 2253 2285 
Q 2445 2170 2627 2010 
Q 2810 1850 2925 1626 
Q 3040 1402 3040 1082 
Q 3040 762 2870 496 
Q 2701 230 2400 73 
Q 2099 -83 1696 -83 
z
M 2035 2387 
Q 2336 2630 2499 2905 
Q 2662 3181 2662 3494 
Q 2662 3763 2550 3990 
Q 2438 4218 2220 4358 
Q 2003 4499 1696 4499 
Q 1293 4499 1040 4236 
Q 787 3974 787 3578 
Q 787 3238 972 3017 
Q 1158 2797 1446 2653 
Q 1734 2509 2035 2387 
z
M 1696 128 
Q 2035 128 2281 256 
Q 2528 384 2662 601 
Q 2797 819 2797 1082 
Q 2797 1370 2675 1574 
Q 2554 1779 2352 1923 
Q 2150 2067 1894 2182 
Q 1638 2298 1370 2400 
Q 998 2189 758 1875 
Q 518 1562 518 1152 
Q 518 870 668 636 
Q 819 403 1088 265 
Q 1357 128 1696 128 
z
" transform="scale(0.015625)"/>
     </defs>
     <use xlink:href="#NotoSansSC-Thin-2b"/>
     <use xlink:href="#NotoSansSC-Thin-38" transform="translate(52.099991 0)"/>
     <use xlink:href="#NotoSansSC-Thin-2e" transform="translate(104.199982 0)"/>
     <use xlink:href="#NotoSansSC-Thin-30" transform="translate(127.299973 0)"/>
     <use xlink:href="#NotoSansSC-Thin-39" transform="translate(179.399963 0)"/>
     <use xlink:href="#NotoSansSC-Thin-5428" transform="translate(231.499954 0)"/>
    </g>
   </g>
   <g id="text_16">
    <g id="patch_4">
     <path d="M 282.089156 243.834117 
L 345.466031 243.834117 
Q 348.166031 243.834117 348.166031 241.134118 
L 348.166031 231.800836 
Q 348.166031 229.100836 345.466031 229.100836 
L 282.089156 229.100836 
Q 279.389156 229.100836 279.389156 231.800836 
L 279.389156 241.134118 
Q 279.389156 243.834117 282.089156 243.834117 
z
" style="fill: #fef2f2; opacity: 0.9; stroke: #dc2626; stroke-width: 1.5; stroke-linejoin: miter"/>
    </g>
    <!-- 连续18个月增持 -->
    <g style="fill: #dc2626" transform="translate(282.089156 238.947399) scale(0.09 -0.09)">
     <defs>
      <path id="NotoSansSC-Thin-8fde" d="M 1466 3098 
L 1466 512 
L 1274 512 
L 1274 2912 
L 320 2912 
L 320 3098 
L 1466 3098 
z
M 608 5133 
L 762 5222 
Q 941 5050 1123 4842 
Q 1306 4634 1462 4432 
Q 1619 4230 1715 4077 
L 1555 3974 
Q 1466 4128 1309 4329 
Q 1152 4531 969 4742 
Q 787 4954 608 5133 
z
M 1350 634 
Q 1504 634 1641 499 
Q 1779 365 2054 173 
Q 2368 -45 2774 -105 
Q 3181 -166 3750 -166 
Q 4083 -166 4412 -156 
Q 4742 -147 5056 -134 
Q 5370 -122 5651 -106 
Q 5933 -90 6163 -77 
Q 6150 -96 6137 -134 
Q 6125 -173 6115 -217 
Q 6106 -262 6099 -301 
Q 5933 -307 5635 -320 
Q 5338 -333 4989 -342 
Q 4640 -352 4310 -358 
Q 3981 -365 3750 -365 
Q 3130 -365 2704 -291 
Q 2278 -218 1939 19 
Q 1760 160 1606 307 
Q 1453 454 1350 454 
Q 1248 454 1110 342 
Q 973 230 813 32 
Q 653 -166 474 -416 
L 314 -262 
Q 608 115 867 374 
Q 1126 634 1350 634 
z
M 4058 3955 
L 4256 3955 
L 4256 26 
L 4058 26 
L 4058 3955 
z
M 2022 1651 
L 5978 1651 
L 5978 1466 
L 2022 1466 
L 2022 1651 
z
M 2061 4614 
L 5818 4614 
L 5818 4429 
L 2061 4429 
L 2061 4614 
z
M 2419 2739 
L 2419 2931 
L 2611 3014 
L 5645 3014 
L 5645 2822 
L 2963 2822 
Q 2714 2822 2589 2800 
Q 2464 2778 2419 2739 
z
M 2419 2739 
Q 2419 2765 2409 2803 
Q 2400 2842 2384 2883 
Q 2368 2925 2355 2950 
Q 2426 2963 2506 3081 
Q 2586 3200 2682 3379 
Q 2733 3469 2832 3664 
Q 2931 3859 3049 4128 
Q 3168 4397 3286 4701 
Q 3405 5005 3494 5306 
L 3693 5248 
Q 3539 4819 3366 4393 
Q 3194 3968 3005 3581 
Q 2816 3194 2618 2880 
L 2618 2874 
Q 2618 2874 2589 2864 
Q 2560 2854 2518 2835 
Q 2477 2816 2448 2790 
Q 2419 2765 2419 2739 
z
" transform="scale(0.015625)"/>
      <path id="NotoSansSC-Thin-7eed" d="M 2822 4627 
L 5594 4627 
L 5594 4442 
L 2822 4442 
L 2822 4627 
z
M 4051 5312 
L 4250 5312 
L 4250 3590 
L 4051 3590 
L 4051 5312 
z
M 3104 2976 
L 3251 3091 
Q 3475 2963 3705 2780 
Q 3936 2598 4058 2445 
L 3917 2310 
Q 3789 2464 3558 2649 
Q 3328 2835 3104 2976 
z
M 2656 2368 
L 2778 2490 
Q 3002 2368 3238 2189 
Q 3475 2010 3603 1862 
L 3475 1722 
Q 3354 1869 3120 2051 
Q 2886 2234 2656 2368 
z
M 2566 3693 
L 5734 3693 
L 5734 3507 
L 2566 3507 
L 2566 3693 
z
M 5683 3693 
L 5728 3693 
L 5766 3706 
L 5888 3654 
Q 5779 3379 5654 3084 
Q 5530 2790 5408 2592 
L 5242 2669 
Q 5350 2854 5472 3123 
Q 5594 3392 5683 3648 
L 5683 3693 
z
M 2438 1472 
L 6003 1472 
L 6003 1286 
L 2438 1286 
L 2438 1472 
z
M 4275 3168 
L 4467 3168 
L 4467 2323 
Q 4467 1965 4406 1593 
Q 4346 1222 4150 864 
Q 3955 506 3552 170 
Q 3149 -166 2464 -461 
Q 2451 -435 2432 -409 
Q 2413 -384 2390 -358 
Q 2368 -333 2349 -314 
Q 3014 -32 3401 291 
Q 3789 614 3977 960 
Q 4166 1306 4220 1651 
Q 4275 1997 4275 2323 
L 4275 3168 
z
M 4429 768 
L 4557 883 
Q 4826 704 5114 486 
Q 5402 269 5651 51 
Q 5901 -166 6054 -333 
L 5926 -474 
Q 5766 -301 5516 -80 
Q 5267 141 4982 365 
Q 4698 589 4429 768 
z
M 442 1248 
Q 435 1274 422 1312 
Q 410 1350 397 1392 
Q 384 1434 371 1459 
Q 454 1472 563 1593 
Q 672 1715 813 1894 
Q 890 1984 1037 2185 
Q 1184 2387 1373 2668 
Q 1562 2950 1754 3273 
Q 1946 3597 2106 3923 
L 2291 3834 
Q 1920 3155 1488 2508 
Q 1056 1862 621 1389 
L 621 1382 
Q 621 1382 595 1369 
Q 570 1357 531 1337 
Q 493 1318 467 1296 
Q 442 1274 442 1248 
z
M 442 1248 
L 442 1434 
L 582 1536 
L 2221 1946 
Q 2227 1907 2233 1856 
Q 2240 1805 2246 1779 
Q 1670 1626 1324 1533 
Q 979 1440 800 1385 
Q 621 1331 550 1302 
Q 480 1274 442 1248 
z
M 403 2765 
Q 397 2790 384 2828 
Q 371 2867 358 2908 
Q 346 2950 333 2976 
Q 403 2989 492 3104 
Q 582 3219 685 3386 
Q 742 3475 854 3667 
Q 966 3859 1104 4121 
Q 1242 4384 1382 4685 
Q 1523 4986 1632 5286 
L 1818 5203 
Q 1645 4787 1443 4371 
Q 1242 3955 1021 3580 
Q 800 3206 576 2906 
L 576 2899 
Q 576 2899 550 2886 
Q 525 2874 489 2854 
Q 454 2835 428 2812 
Q 403 2790 403 2765 
z
M 403 2765 
L 403 2944 
L 544 3027 
L 1715 3174 
Q 1709 3136 1712 3085 
Q 1715 3034 1715 3002 
Q 1312 2944 1065 2905 
Q 819 2867 684 2841 
Q 550 2816 492 2800 
Q 435 2784 403 2765 
z
M 339 243 
Q 698 365 1197 544 
Q 1696 723 2227 909 
L 2253 730 
Q 1754 550 1264 374 
Q 774 198 397 58 
L 339 243 
z
" transform="scale(0.015625)"/>
      <path id="NotoSansSC-Thin-4e2a" d="M 3290 5318 
L 3450 5242 
Q 3123 4704 2649 4179 
Q 2176 3654 1609 3212 
Q 1043 2771 448 2470 
Q 422 2502 380 2540 
Q 339 2579 301 2605 
Q 902 2899 1465 3334 
Q 2029 3770 2502 4282 
Q 2976 4794 3290 5318 
z
M 3270 5050 
Q 3590 4550 4009 4121 
Q 4429 3693 4957 3321 
Q 5485 2950 6118 2605 
Q 6080 2579 6041 2537 
Q 6003 2496 5978 2458 
Q 5338 2816 4813 3203 
Q 4288 3590 3869 4032 
Q 3450 4474 3117 4986 
L 3270 5050 
z
M 3104 3616 
L 3296 3616 
L 3296 -448 
L 3104 -448 
L 3104 3616 
z
" transform="scale(0.015625)"/>
      <path id="NotoSansSC-Thin-6708" d="M 1523 4941 
L 4998 4941 
L 4998 4755 
L 1523 4755 
L 1523 4941 
z
M 1517 3386 
L 5024 3386 
L 5024 3200 
L 1517 3200 
L 1517 3386 
z
M 1446 1811 
L 5005 1811 
L 5005 1626 
L 1446 1626 
L 1446 1811 
z
M 1453 4941 
L 1638 4941 
L 1638 3110 
Q 1638 2694 1596 2230 
Q 1555 1766 1427 1289 
Q 1299 813 1046 365 
Q 794 -83 371 -461 
Q 358 -435 336 -409 
Q 314 -384 288 -358 
Q 262 -333 237 -320 
Q 646 51 889 480 
Q 1133 909 1254 1360 
Q 1376 1811 1414 2259 
Q 1453 2707 1453 3110 
L 1453 4941 
z
M 4934 4941 
L 5126 4941 
L 5126 -6 
Q 5126 -179 5065 -259 
Q 5005 -339 4864 -371 
Q 4723 -397 4409 -403 
Q 4096 -410 3565 -410 
Q 3558 -378 3542 -342 
Q 3526 -307 3510 -272 
Q 3494 -237 3475 -205 
Q 3782 -211 4041 -211 
Q 4301 -211 4483 -208 
Q 4666 -205 4736 -205 
Q 4851 -198 4892 -156 
Q 4934 -115 4934 -6 
L 4934 4941 
z
" transform="scale(0.015625)"/>
      <path id="NotoSansSC-Thin-589e" d="M 397 3718 
L 2099 3718 
L 2099 3533 
L 397 3533 
L 397 3718 
z
M 1184 5254 
L 1376 5254 
L 1376 966 
L 1184 966 
L 1184 5254 
z
M 346 691 
Q 685 806 1158 988 
Q 1632 1171 2125 1363 
L 2157 1178 
Q 1690 998 1235 822 
Q 781 646 416 499 
L 346 691 
z
M 2925 5203 
L 3078 5274 
Q 3226 5114 3360 4922 
Q 3494 4730 3558 4589 
L 3386 4493 
Q 3322 4640 3187 4838 
Q 3053 5037 2925 5203 
z
M 5056 5325 
L 5242 5229 
Q 5094 4992 4915 4726 
Q 4736 4461 4576 4275 
L 4429 4352 
Q 4531 4480 4649 4653 
Q 4768 4826 4877 5005 
Q 4986 5184 5056 5325 
z
M 3981 4314 
L 4166 4314 
L 4166 2509 
L 3981 2509 
L 3981 4314 
z
M 2880 922 
L 5254 922 
L 5254 736 
L 2880 736 
L 2880 922 
z
M 2867 77 
L 5242 77 
L 5242 -109 
L 2867 -109 
L 2867 77 
z
M 2771 1830 
L 5350 1830 
L 5350 -416 
L 5165 -416 
L 5165 1645 
L 2963 1645 
L 2963 -416 
L 2771 -416 
L 2771 1830 
z
M 2598 4192 
L 2598 2547 
L 5504 2547 
L 5504 4192 
L 2598 4192 
z
M 2413 4378 
L 5690 4378 
L 5690 2362 
L 2413 2362 
L 2413 4378 
z
M 2944 3859 
L 3098 3923 
Q 3264 3712 3411 3449 
Q 3558 3187 3622 3002 
L 3456 2918 
Q 3392 3110 3251 3376 
Q 3110 3642 2944 3859 
z
M 5037 3930 
L 5216 3840 
Q 5069 3597 4889 3331 
Q 4710 3066 4557 2880 
L 4410 2957 
Q 4512 3085 4630 3257 
Q 4749 3430 4857 3609 
Q 4966 3789 5037 3930 
z
" transform="scale(0.015625)"/>
      <path id="NotoSansSC-Thin-6301" d="M 2707 4384 
L 5747 4384 
L 5747 4198 
L 2707 4198 
L 2707 4384 
z
M 2413 2029 
L 6048 2029 
L 6048 1837 
L 2413 1837 
L 2413 2029 
z
M 2323 3136 
L 6080 3136 
L 6080 2950 
L 2323 2950 
L 2323 3136 
z
M 4122 5280 
L 4307 5280 
L 4307 3027 
L 4122 3027 
L 4122 5280 
z
M 4979 3021 
L 5171 3021 
L 5171 -96 
Q 5171 -237 5129 -304 
Q 5088 -371 4979 -403 
Q 4877 -429 4656 -432 
Q 4435 -435 4070 -435 
Q 4064 -390 4041 -332 
Q 4019 -275 3994 -230 
Q 4314 -237 4547 -237 
Q 4781 -237 4858 -230 
Q 4928 -224 4953 -195 
Q 4979 -166 4979 -102 
L 4979 3021 
z
M 3014 1421 
L 3149 1510 
Q 3296 1338 3440 1136 
Q 3584 934 3705 739 
Q 3827 544 3898 390 
L 3750 275 
Q 3686 435 3568 633 
Q 3450 832 3306 1040 
Q 3162 1248 3014 1421 
z
M 224 1760 
Q 582 1882 1107 2064 
Q 1632 2246 2176 2445 
L 2208 2253 
Q 1702 2074 1200 1891 
Q 698 1709 301 1562 
L 224 1760 
z
M 301 3949 
L 2227 3949 
L 2227 3757 
L 301 3757 
L 301 3949 
z
M 1229 5312 
L 1421 5312 
L 1421 -147 
Q 1421 -275 1376 -332 
Q 1331 -390 1242 -416 
Q 1158 -442 988 -448 
Q 819 -454 518 -448 
Q 512 -416 489 -365 
Q 467 -314 442 -269 
Q 685 -275 870 -275 
Q 1056 -275 1114 -269 
Q 1171 -269 1200 -243 
Q 1229 -218 1229 -147 
L 1229 5312 
z
" transform="scale(0.015625)"/>
     </defs>
     <use xlink:href="#NotoSansSC-Thin-8fde"/>
     <use xlink:href="#NotoSansSC-Thin-7eed" transform="translate(99.999985 0)"/>
     <use xlink:href="#NotoSansSC-Thin-31" transform="translate(199.999969 0)"/>
     <use xlink:href="#NotoSansSC-Thin-38" transform="translate(252.09996 0)"/>
     <use xlink:href="#NotoSansSC-Thin-4e2a" transform="translate(304.199951 0)"/>
     <use xlink:href="#NotoSansSC-Thin-6708" transform="translate(404.199936 0)"/>
     <use xlink:href="#NotoSansSC-Thin-589e" transform="translate(504.199921 0)"/>
     <use xlink:href="#NotoSansSC-Thin-6301" transform="translate(604.199905 0)"/>
    </g>
   </g>
   <g id="line2d_20">
    <path d="M 60.697031 228.203361 
L 108.397031 201.264284 
L 156.097031 181.059976 
L 203.797031 160.855668 
L 251.497031 140.651361 
L 299.197031 113.712284 
L 346.897031 105.92689 
" clip-path="url(#p7c98720cbc)" style="fill: none; stroke: #d4a017; stroke-width: 2.8; stroke-linecap: square"/>
    <defs>
     <path id="mbaa379e90f" d="M -3 3 
L 3 3 
L 3 -3 
L -3 -3 
z
" style="stroke: #d4a017; stroke-width: 2; stroke-linejoin: miter"/>
    </defs>
    <g clip-path="url(#p7c98720cbc)">
     <use xlink:href="#mbaa379e90f" x="60.697031" y="228.203361" style="fill: #ffffff; stroke: #d4a017; stroke-width: 2; stroke-linejoin: miter"/>
     <use xlink:href="#mbaa379e90f" x="108.397031" y="201.264284" style="fill: #ffffff; stroke: #d4a017; stroke-width: 2; stroke-linejoin: miter"/>
     <use xlink:href="#mbaa379e90f" x="156.097031" y="181.059976" style="fill: #ffffff; stroke: #d4a017; stroke-width: 2; stroke-linejoin: miter"/>
     <use xlink:href="#mbaa379e90f" x="203.797031" y="160.855668" style="fill: #ffffff; stroke: #d4a017; stroke-width: 2; stroke-linejoin: miter"/>
     <use xlink:href="#mbaa379e90f" x="251.497031" y="140.651361" style="fill: #ffffff; stroke: #d4a017; stroke-width: 2; stroke-linejoin: miter"/>
     <use xlink:href="#mbaa379e90f" x="299.197031" y="113.712284" style="fill: #ffffff; stroke: #d4a017; stroke-width: 2; stroke-linejoin: miter"/>
     <use xlink:href="#mbaa379e90f" x="346.897031" y="105.92689" style="fill: #ffffff; stroke: #d4a017; stroke-width: 2; stroke-linejoin: miter"/>
    </g>
   </g>
  </g>
  <g id="text_17">
   <!-- 中国人民银行黄金储备 -->
   <g style="fill: #1e293b" transform="translate(46.387031 21.916875) scale(0.14 -0.14)">
    <defs>
     <path id="NotoSansSC-Thin-4e2d" d="M 672 4141 
L 5696 4141 
L 5696 1331 
L 5510 1331 
L 5510 3955 
L 858 3955 
L 858 1299 
L 672 1299 
L 672 4141 
z
M 781 1926 
L 5638 1926 
L 5638 1741 
L 781 1741 
L 781 1926 
z
M 3085 5318 
L 3277 5318 
L 3277 -435 
L 3085 -435 
L 3085 5318 
z
" transform="scale(0.015625)"/>
     <path id="NotoSansSC-Thin-56fd" d="M 1510 4051 
L 4928 4051 
L 4928 3866 
L 1510 3866 
L 1510 4051 
z
M 1702 2650 
L 4755 2650 
L 4755 2458 
L 1702 2458 
L 1702 2650 
z
M 1395 1056 
L 5094 1056 
L 5094 864 
L 1395 864 
L 1395 1056 
z
M 3072 3994 
L 3264 3994 
L 3264 947 
L 3072 947 
L 3072 3994 
z
M 3859 2093 
L 3994 2182 
Q 4218 2010 4435 1789 
Q 4653 1568 4768 1402 
L 4621 1293 
Q 4506 1459 4288 1686 
Q 4070 1914 3859 2093 
z
M 608 4986 
L 5805 4986 
L 5805 -461 
L 5613 -461 
L 5613 4800 
L 800 4800 
L 800 -461 
L 608 -461 
L 608 4986 
z
M 704 51 
L 5702 51 
L 5702 -134 
L 704 -134 
L 704 51 
z
" transform="scale(0.015625)"/>
     <path id="NotoSansSC-Thin-4eba" d="M 3155 5280 
L 3347 5280 
Q 3341 5043 3318 4627 
Q 3296 4211 3216 3683 
Q 3136 3155 2957 2579 
Q 2778 2003 2467 1443 
Q 2157 883 1677 400 
Q 1197 -83 506 -416 
Q 480 -384 438 -345 
Q 397 -307 365 -282 
Q 1050 45 1523 518 
Q 1997 992 2301 1542 
Q 2605 2093 2777 2659 
Q 2950 3226 3030 3741 
Q 3110 4256 3132 4659 
Q 3155 5062 3155 5280 
z
M 3296 4480 
Q 3315 4384 3360 4073 
Q 3405 3763 3513 3321 
Q 3622 2880 3814 2374 
Q 4006 1869 4310 1369 
Q 4614 870 5056 444 
Q 5498 19 6099 -250 
Q 6067 -275 6025 -320 
Q 5984 -365 5958 -403 
Q 5350 -122 4905 310 
Q 4461 742 4157 1251 
Q 3853 1760 3657 2275 
Q 3462 2790 3353 3244 
Q 3245 3699 3193 4025 
Q 3142 4352 3123 4467 
L 3296 4480 
z
" transform="scale(0.015625)"/>
     <path id="NotoSansSC-Thin-6c11" d="M 2938 3347 
L 3130 3347 
Q 3162 2579 3350 1929 
Q 3539 1280 3840 803 
Q 4141 326 4512 64 
Q 4883 -198 5286 -192 
Q 5466 -186 5533 32 
Q 5600 250 5626 781 
Q 5664 755 5715 729 
Q 5766 704 5811 691 
Q 5792 288 5734 54 
Q 5677 -179 5571 -281 
Q 5466 -384 5286 -384 
Q 4826 -384 4416 -96 
Q 4006 192 3686 704 
Q 3366 1216 3171 1894 
Q 2976 2573 2938 3347 
z
M 858 2086 
L 5722 2086 
L 5722 1894 
L 858 1894 
L 858 2086 
z
M 883 4941 
L 5222 4941 
L 5222 3315 
L 883 3315 
L 883 3501 
L 5030 3501 
L 5030 4755 
L 883 4755 
L 883 4941 
z
M 653 -474 
L 653 -294 
L 800 -166 
L 2848 525 
Q 2848 506 2854 474 
Q 2861 442 2867 410 
Q 2874 378 2880 358 
Q 2304 160 1920 22 
Q 1536 -115 1299 -198 
Q 1062 -282 934 -333 
Q 806 -384 748 -416 
Q 691 -448 653 -474 
z
M 653 -474 
Q 646 -448 624 -413 
Q 602 -378 579 -346 
Q 557 -314 538 -288 
Q 602 -256 691 -166 
Q 781 -77 781 102 
L 781 4941 
L 966 4941 
L 966 -192 
Q 966 -192 934 -214 
Q 902 -237 857 -269 
Q 813 -301 765 -339 
Q 717 -378 685 -413 
Q 653 -448 653 -474 
z
" transform="scale(0.015625)"/>
     <path id="NotoSansSC-Thin-94f6" d="M 3046 5005 
L 5670 5005 
L 5670 2349 
L 3046 2349 
L 3046 2534 
L 5485 2534 
L 5485 4819 
L 3046 4819 
L 3046 5005 
z
M 3091 3770 
L 5581 3770 
L 5581 3584 
L 3091 3584 
L 3091 3770 
z
M 4115 2438 
Q 4269 1805 4544 1277 
Q 4819 749 5225 368 
Q 5632 -13 6157 -211 
Q 6131 -230 6105 -262 
Q 6080 -294 6057 -323 
Q 6035 -352 6016 -384 
Q 5485 -160 5075 240 
Q 4666 640 4384 1190 
Q 4102 1741 3942 2400 
L 4115 2438 
z
M 5888 1978 
L 6029 1850 
Q 5837 1683 5590 1513 
Q 5344 1344 5091 1193 
Q 4838 1043 4621 922 
L 4506 1056 
Q 4717 1178 4973 1334 
Q 5229 1491 5472 1660 
Q 5715 1830 5888 1978 
z
M 2880 -435 
L 2874 -250 
L 3021 -134 
L 4506 256 
Q 4506 218 4509 166 
Q 4512 115 4518 83 
Q 4000 -70 3689 -160 
Q 3379 -250 3216 -301 
Q 3053 -352 2985 -381 
Q 2918 -410 2880 -435 
z
M 2880 -435 
Q 2874 -410 2854 -378 
Q 2835 -346 2812 -307 
Q 2790 -269 2771 -243 
Q 2822 -218 2886 -144 
Q 2950 -70 2950 109 
L 2950 5005 
L 3136 5005 
L 3136 -186 
Q 3136 -186 3110 -205 
Q 3085 -224 3046 -253 
Q 3008 -282 2969 -314 
Q 2931 -346 2905 -378 
Q 2880 -410 2880 -435 
z
M 1184 5293 
L 1376 5248 
Q 1267 4922 1113 4605 
Q 960 4288 774 4009 
Q 589 3731 390 3507 
Q 378 3526 352 3555 
Q 326 3584 300 3616 
Q 275 3648 250 3661 
Q 544 3962 790 4394 
Q 1037 4826 1184 5293 
z
M 928 4474 
L 2573 4474 
L 2573 4288 
L 890 4288 
L 928 4474 
z
M 640 3386 
L 2445 3386 
L 2445 3200 
L 640 3200 
L 640 3386 
z
M 358 2093 
L 2592 2093 
L 2592 1901 
L 358 1901 
L 358 2093 
z
M 1293 -358 
L 1293 -160 
L 1408 -19 
L 2637 621 
Q 2650 582 2666 537 
Q 2682 493 2694 467 
Q 2253 224 1987 77 
Q 1722 -70 1584 -153 
Q 1446 -237 1385 -278 
Q 1325 -320 1293 -358 
z
M 1293 -358 
Q 1286 -333 1267 -294 
Q 1248 -256 1229 -221 
Q 1210 -186 1190 -160 
Q 1242 -134 1306 -70 
Q 1370 -6 1370 173 
L 1370 3270 
L 1555 3270 
L 1555 -122 
Q 1555 -122 1529 -138 
Q 1504 -154 1465 -179 
Q 1427 -205 1385 -237 
Q 1344 -269 1318 -301 
Q 1293 -333 1293 -358 
z
" transform="scale(0.015625)"/>
     <path id="NotoSansSC-Thin-884c" d="M 2714 4909 
L 5875 4909 
L 5875 4717 
L 2714 4717 
L 2714 4909 
z
M 4832 3085 
L 5018 3085 
L 5018 -109 
Q 5018 -250 4966 -314 
Q 4915 -378 4806 -410 
Q 4685 -429 4419 -432 
Q 4154 -435 3642 -435 
Q 3635 -403 3612 -358 
Q 3590 -314 3558 -269 
Q 3834 -275 4061 -278 
Q 4288 -282 4445 -278 
Q 4602 -275 4659 -269 
Q 4755 -262 4793 -230 
Q 4832 -198 4832 -115 
L 4832 3085 
z
M 2426 3149 
L 6074 3149 
L 6074 2963 
L 2426 2963 
L 2426 3149 
z
M 1306 2912 
L 1478 3078 
L 1491 3066 
L 1491 -480 
L 1306 -480 
L 1306 2912 
z
M 2061 3974 
L 2240 3910 
Q 1997 3526 1686 3152 
Q 1376 2778 1040 2451 
Q 704 2125 371 1862 
Q 358 1882 329 1907 
Q 301 1933 272 1961 
Q 243 1990 218 2003 
Q 557 2246 893 2563 
Q 1229 2880 1529 3241 
Q 1830 3603 2061 3974 
z
M 1786 5325 
L 1971 5248 
Q 1779 4992 1516 4723 
Q 1254 4454 969 4204 
Q 685 3955 416 3757 
Q 403 3776 377 3801 
Q 352 3827 326 3856 
Q 301 3885 282 3898 
Q 550 4090 832 4330 
Q 1114 4570 1363 4829 
Q 1613 5088 1786 5325 
z
" transform="scale(0.015625)"/>
     <path id="NotoSansSC-Thin-9ec4" d="M 378 3629 
L 6029 3629 
L 6029 3437 
L 378 3437 
L 378 3629 
z
M 851 4653 
L 5619 4653 
L 5619 4467 
L 851 4467 
L 851 4653 
z
M 2061 5318 
L 2246 5318 
L 2246 3539 
L 2061 3539 
L 2061 5318 
z
M 4173 5318 
L 4358 5318 
L 4358 3539 
L 4173 3539 
L 4173 5318 
z
M 3091 3546 
L 3283 3546 
L 3283 806 
L 3091 806 
L 3091 3546 
z
M 1318 1683 
L 1318 902 
L 5101 902 
L 5101 1683 
L 1318 1683 
z
M 1318 2637 
L 1318 1869 
L 5101 1869 
L 5101 2637 
L 1318 2637 
z
M 1133 2822 
L 5286 2822 
L 5286 717 
L 1133 717 
L 1133 2822 
z
M 3917 301 
L 4051 429 
Q 4416 314 4774 179 
Q 5133 45 5449 -83 
Q 5766 -211 6003 -326 
L 5837 -461 
Q 5613 -346 5305 -221 
Q 4998 -96 4643 38 
Q 4288 173 3917 301 
z
M 2323 448 
L 2534 346 
Q 2278 186 1942 35 
Q 1606 -115 1251 -243 
Q 896 -371 576 -467 
Q 557 -435 518 -387 
Q 480 -339 448 -314 
Q 768 -224 1123 -99 
Q 1478 26 1798 170 
Q 2118 314 2323 448 
z
" transform="scale(0.015625)"/>
     <path id="NotoSansSC-Thin-91d1" d="M 1613 3334 
L 4806 3334 
L 4806 3142 
L 1613 3142 
L 1613 3334 
z
M 717 2067 
L 5715 2067 
L 5715 1875 
L 717 1875 
L 717 2067 
z
M 454 -32 
L 5958 -32 
L 5958 -218 
L 454 -218 
L 454 -32 
z
M 3085 3270 
L 3277 3270 
L 3277 -147 
L 3085 -147 
L 3085 3270 
z
M 1382 1478 
L 1549 1536 
Q 1683 1344 1808 1117 
Q 1933 890 2035 675 
Q 2138 461 2189 294 
L 2016 224 
Q 1965 390 1865 608 
Q 1766 826 1641 1056 
Q 1517 1286 1382 1478 
z
M 4826 1555 
L 5005 1466 
Q 4832 1152 4614 803 
Q 4397 454 4205 211 
L 4058 288 
Q 4186 454 4326 678 
Q 4467 902 4601 1136 
Q 4736 1370 4826 1555 
z
M 3290 5107 
Q 3526 4806 3859 4512 
Q 4192 4218 4579 3952 
Q 4966 3686 5369 3475 
Q 5773 3264 6144 3130 
Q 6118 3110 6092 3081 
Q 6067 3053 6041 3024 
Q 6016 2995 5997 2963 
Q 5632 3110 5232 3331 
Q 4832 3552 4441 3827 
Q 4051 4102 3712 4409 
Q 3373 4717 3130 5024 
L 3290 5107 
z
M 3277 5363 
L 3443 5280 
Q 3117 4794 2633 4346 
Q 2150 3898 1577 3542 
Q 1005 3187 397 2957 
Q 371 2995 332 3046 
Q 294 3098 256 3123 
Q 858 3341 1434 3683 
Q 2010 4026 2490 4458 
Q 2970 4890 3277 5363 
z
" transform="scale(0.015625)"/>
    </defs>
    <use xlink:href="#NotoSansSC-Thin-4e2d"/>
    <use xlink:href="#NotoSansSC-Thin-56fd" transform="translate(99.999985 0)"/>
    <use xlink:href="#NotoSansSC-Thin-4eba" transform="translate(199.999969 0)"/>
    <use xlink:href="#NotoSansSC-Thin-6c11" transform="translate(299.999954 0)"/>
    <use xlink:href="#NotoSansSC-Thin-94f6" transform="translate(399.999939 0)"/>
    <use xlink:href="#NotoSansSC-Thin-884c" transform="translate(499.999924 0)"/>
    <use xlink:href="#NotoSansSC-Thin-9ec4" transform="translate(599.999908 0)"/>
    <use xlink:href="#NotoSansSC-Thin-91d1" transform="translate(699.999893 0)"/>
    <use xlink:href="#NotoSansSC-Thin-50a8" transform="translate(799.999878 0)"/>
    <use xlink:href="#NotoSansSC-Thin-5907" transform="translate(899.999863 0)"/>
   </g>
  </g>
  <g id="text_18">
   <!-- 连续18个月增持 · 单位: 吨 -->
   <g style="fill: #64748b" transform="translate(46.387031 43.409) scale(0.09 -0.09)">
    <defs>
     <path id="NotoSansSC-Thin-b7" d="M 3200 2976 
Q 3354 2976 3475 2902 
Q 3597 2829 3670 2707 
Q 3744 2586 3744 2432 
Q 3744 2285 3670 2160 
Q 3597 2035 3475 1961 
Q 3354 1888 3200 1888 
Q 3053 1888 2928 1961 
Q 2803 2035 2729 2160 
Q 2656 2285 2656 2432 
Q 2656 2586 2729 2707 
Q 2803 2829 2928 2902 
Q 3053 2976 3200 2976 
z
" transform="scale(0.015625)"/>
     <path id="NotoSansSC-Thin-5355" d="M 3085 4115 
L 3283 4115 
L 3283 -454 
L 3085 -454 
L 3085 4115 
z
M 1210 2893 
L 1210 1952 
L 5242 1952 
L 5242 2893 
L 1210 2893 
z
M 1210 4006 
L 1210 3078 
L 5242 3078 
L 5242 4006 
L 1210 4006 
z
M 1024 4198 
L 5434 4198 
L 5434 1766 
L 1024 1766 
L 1024 4198 
z
M 384 973 
L 6035 973 
L 6035 787 
L 384 787 
L 384 973 
z
M 1632 5203 
L 1786 5286 
Q 1990 5062 2195 4790 
Q 2400 4518 2496 4320 
L 2342 4218 
Q 2240 4416 2038 4697 
Q 1837 4979 1632 5203 
z
M 4710 5306 
L 4896 5216 
Q 4717 4922 4489 4595 
Q 4262 4269 4064 4038 
L 3923 4122 
Q 4051 4275 4198 4486 
Q 4346 4698 4483 4915 
Q 4621 5133 4710 5306 
z
" transform="scale(0.015625)"/>
     <path id="NotoSansSC-Thin-4f4d" d="M 2400 4064 
L 5792 4064 
L 5792 3878 
L 2400 3878 
L 2400 4064 
z
M 2867 3264 
L 3046 3302 
Q 3136 2950 3216 2560 
Q 3296 2170 3363 1786 
Q 3430 1402 3481 1069 
Q 3533 736 3558 486 
L 3360 429 
Q 3341 685 3293 1027 
Q 3245 1370 3177 1757 
Q 3110 2144 3030 2531 
Q 2950 2918 2867 3264 
z
M 5062 3379 
L 5267 3334 
Q 5197 2944 5110 2493 
Q 5024 2042 4925 1578 
Q 4826 1114 4723 688 
Q 4621 262 4525 -77 
L 4346 -19 
Q 4442 314 4544 742 
Q 4646 1171 4742 1638 
Q 4838 2106 4921 2557 
Q 5005 3008 5062 3379 
z
M 2086 13 
L 6099 13 
L 6099 -173 
L 2086 -173 
L 2086 13 
z
M 3757 5254 
L 3930 5312 
Q 4019 5069 4115 4784 
Q 4211 4499 4256 4294 
L 4070 4230 
Q 4026 4435 3939 4723 
Q 3853 5011 3757 5254 
z
M 2010 5293 
L 2189 5242 
Q 1978 4704 1699 4192 
Q 1421 3680 1097 3235 
Q 774 2790 429 2438 
Q 416 2458 390 2486 
Q 365 2515 339 2547 
Q 314 2579 288 2592 
Q 634 2925 950 3357 
Q 1267 3789 1539 4285 
Q 1811 4781 2010 5293 
z
M 1293 3763 
L 1472 3942 
L 1478 3936 
L 1478 -435 
L 1293 -435 
L 1293 3763 
z
" transform="scale(0.015625)"/>
     <path id="NotoSansSC-Thin-3a" d="M 736 2656 
Q 640 2656 560 2726 
Q 480 2797 480 2931 
Q 480 3072 560 3145 
Q 640 3219 736 3219 
Q 838 3219 918 3145 
Q 998 3072 998 2931 
Q 998 2797 918 2726 
Q 838 2656 736 2656 
z
M 736 -83 
Q 640 -83 560 -9 
Q 480 64 480 192 
Q 480 333 560 406 
Q 640 480 736 480 
Q 838 480 918 406 
Q 998 333 998 192 
Q 998 64 918 -9 
Q 838 -83 736 -83 
z
" transform="scale(0.015625)"/>
    </defs>
    <use xlink:href="#NotoSansSC-Thin-8fde"/>
    <use xlink:href="#NotoSansSC-Thin-7eed" transform="translate(99.999985 0)"/>
    <use xlink:href="#NotoSansSC-Thin-31" transform="translate(199.999969 0)"/>
    <use xlink:href="#NotoSansSC-Thin-38" transform="translate(252.09996 0)"/>
    <use xlink:href="#NotoSansSC-Thin-4e2a" transform="translate(304.199951 0)"/>
    <use xlink:href="#NotoSansSC-Thin-6708" transform="translate(404.199936 0)"/>
    <use xlink:href="#NotoSansSC-Thin-589e" transform="translate(504.199921 0)"/>
    <use xlink:href="#NotoSansSC-Thin-6301" transform="translate(604.199905 0)"/>
    <use xlink:href="#NotoSansSC-Thin-20" transform="translate(704.19989 0)"/>
    <use xlink:href="#NotoSansSC-Thin-b7" transform="translate(726.199875 0)"/>
    <use xlink:href="#NotoSansSC-Thin-20" transform="translate(826.19986 0)"/>
    <use xlink:href="#NotoSansSC-Thin-5355" transform="translate(848.199844 0)"/>
    <use xlink:href="#NotoSansSC-Thin-4f4d" transform="translate(948.199829 0)"/>
    <use xlink:href="#NotoSansSC-Thin-3a" transform="translate(1048.199814 0)"/>
    <use xlink:href="#NotoSansSC-Thin-20" transform="translate(1071.299805 0)"/>
    <use xlink:href="#NotoSansSC-Thin-5428" transform="translate(1093.299789 0)"/>
   </g>
  </g>
  <g id="text_19">
   <!-- 来源: 中国人民银行 · 2026-05-27 -->
   <g style="fill: #94a3b8" transform="translate(46.387031 268.611141) scale(0.065 -0.065)">
    <defs>
     <path id="NotoSansSC-Thin-6765" d="M 397 2432 
L 6016 2432 
L 6016 2246 
L 397 2246 
L 397 2432 
z
M 704 4467 
L 5734 4467 
L 5734 4282 
L 704 4282 
L 704 4467 
z
M 3091 5306 
L 3283 5306 
L 3283 -448 
L 3091 -448 
L 3091 5306 
z
M 4979 4026 
L 5171 3949 
Q 5062 3725 4928 3475 
Q 4794 3226 4656 2995 
Q 4518 2765 4390 2586 
L 4237 2656 
Q 4365 2835 4502 3078 
Q 4640 3322 4768 3574 
Q 4896 3827 4979 4026 
z
M 1312 3923 
L 1478 3981 
Q 1619 3782 1753 3548 
Q 1888 3315 1993 3094 
Q 2099 2874 2144 2701 
L 1971 2624 
Q 1920 2797 1817 3024 
Q 1715 3251 1584 3488 
Q 1453 3725 1312 3923 
z
M 2963 2374 
L 3123 2298 
Q 2893 1926 2579 1571 
Q 2266 1216 1901 896 
Q 1536 576 1161 317 
Q 787 58 429 -115 
Q 416 -90 390 -64 
Q 365 -38 339 -12 
Q 314 13 288 32 
Q 646 192 1024 445 
Q 1402 698 1763 1011 
Q 2125 1325 2435 1673 
Q 2746 2022 2963 2374 
z
M 3411 2381 
Q 3635 2029 3952 1677 
Q 4269 1325 4637 1005 
Q 5005 685 5389 432 
Q 5773 179 6138 13 
Q 6118 -6 6092 -35 
Q 6067 -64 6041 -89 
Q 6016 -115 5997 -141 
Q 5638 32 5254 297 
Q 4870 563 4499 889 
Q 4128 1216 3808 1577 
Q 3488 1939 3258 2304 
L 3411 2381 
z
" transform="scale(0.015625)"/>
     <path id="NotoSansSC-Thin-6e90" d="M 2304 5024 
L 6035 5024 
L 6035 4838 
L 2304 4838 
L 2304 5024 
z
M 2214 5024 
L 2406 5024 
L 2406 3283 
Q 2406 2874 2377 2400 
Q 2349 1926 2262 1436 
Q 2176 947 2006 476 
Q 1837 6 1555 -397 
Q 1542 -378 1513 -358 
Q 1485 -339 1456 -320 
Q 1427 -301 1402 -294 
Q 1677 102 1840 560 
Q 2003 1018 2083 1491 
Q 2163 1965 2188 2422 
Q 2214 2880 2214 3283 
L 2214 5024 
z
M 3110 2765 
L 3110 1990 
L 5542 1990 
L 5542 2765 
L 3110 2765 
z
M 3110 3718 
L 3110 2957 
L 5542 2957 
L 5542 3718 
L 3110 3718 
z
M 2925 3910 
L 5728 3910 
L 5728 1798 
L 2925 1798 
L 2925 3910 
z
M 3270 1338 
L 3456 1286 
Q 3341 1050 3193 810 
Q 3046 570 2886 355 
Q 2726 141 2566 -26 
Q 2554 -6 2522 13 
Q 2490 32 2458 57 
Q 2426 83 2400 96 
Q 2650 339 2880 665 
Q 3110 992 3270 1338 
z
M 5075 1293 
L 5242 1363 
Q 5395 1165 5555 937 
Q 5715 710 5856 499 
Q 5997 288 6086 134 
L 5907 38 
Q 5824 198 5683 412 
Q 5542 627 5385 860 
Q 5229 1094 5075 1293 
z
M 4218 4634 
L 4410 4570 
Q 4346 4365 4272 4144 
Q 4198 3923 4128 3770 
L 3981 3827 
Q 4038 3994 4108 4227 
Q 4179 4461 4218 4634 
z
M 4211 1939 
L 4397 1939 
L 4397 -173 
Q 4397 -282 4361 -336 
Q 4326 -390 4237 -416 
Q 4141 -442 3939 -448 
Q 3738 -454 3398 -448 
Q 3392 -416 3373 -368 
Q 3354 -320 3328 -275 
Q 3616 -282 3824 -282 
Q 4032 -282 4096 -282 
Q 4211 -275 4211 -173 
L 4211 1939 
z
M 627 5101 
L 749 5222 
Q 934 5107 1139 4972 
Q 1344 4838 1526 4707 
Q 1709 4576 1830 4480 
L 1715 4326 
Q 1594 4429 1408 4563 
Q 1222 4698 1017 4842 
Q 813 4986 627 5101 
z
M 307 3379 
L 422 3507 
Q 614 3405 822 3280 
Q 1030 3155 1219 3036 
Q 1408 2918 1536 2822 
L 1427 2669 
Q 1299 2765 1110 2889 
Q 922 3014 710 3145 
Q 499 3277 307 3379 
z
M 493 -224 
Q 646 26 832 374 
Q 1018 723 1203 1110 
Q 1389 1498 1542 1843 
L 1690 1728 
Q 1549 1395 1369 1020 
Q 1190 646 1004 288 
Q 819 -70 653 -352 
L 493 -224 
z
" transform="scale(0.015625)"/>
     <path id="NotoSansSC-Thin-2d" d="M 282 1638 
L 282 1862 
L 1811 1862 
L 1811 1638 
L 282 1638 
z
" transform="scale(0.015625)"/>
     <path id="NotoSansSC-Thin-37" d="M 1344 0 
Q 1376 717 1462 1318 
Q 1549 1920 1712 2445 
Q 1875 2970 2124 3459 
Q 2374 3949 2726 4435 
L 307 4435 
L 307 4646 
L 3034 4646 
L 3034 4512 
Q 2624 3955 2355 3436 
Q 2086 2918 1932 2384 
Q 1779 1850 1705 1267 
Q 1632 685 1606 0 
L 1344 0 
z
" transform="scale(0.015625)"/>
    </defs>
    <use xlink:href="#NotoSansSC-Thin-6765"/>
    <use xlink:href="#NotoSansSC-Thin-6e90" transform="translate(99.999985 0)"/>
    <use xlink:href="#NotoSansSC-Thin-3a" transform="translate(199.999969 0)"/>
    <use xlink:href="#NotoSansSC-Thin-20" transform="translate(223.09996 0)"/>
    <use xlink:href="#NotoSansSC-Thin-4e2d" transform="translate(245.099945 0)"/>
    <use xlink:href="#NotoSansSC-Thin-56fd" transform="translate(345.09993 0)"/>
    <use xlink:href="#NotoSansSC-Thin-4eba" transform="translate(445.099915 0)"/>
    <use xlink:href="#NotoSansSC-Thin-6c11" transform="translate(545.099899 0)"/>
    <use xlink:href="#NotoSansSC-Thin-94f6" transform="translate(645.099884 0)"/>
    <use xlink:href="#NotoSansSC-Thin-884c" transform="translate(745.099869 0)"/>
    <use xlink:href="#NotoSansSC-Thin-20" transform="translate(845.099854 0)"/>
    <use xlink:href="#NotoSansSC-Thin-b7" transform="translate(867.099838 0)"/>
    <use xlink:href="#NotoSansSC-Thin-20" transform="translate(967.099823 0)"/>
    <use xlink:href="#NotoSansSC-Thin-32" transform="translate(989.099808 0)"/>
    <use xlink:href="#NotoSansSC-Thin-30" transform="translate(1041.199799 0)"/>
    <use xlink:href="#NotoSansSC-Thin-32" transform="translate(1093.299789 0)"/>
    <use xlink:href="#NotoSansSC-Thin-36" transform="translate(1145.39978 0)"/>
    <use xlink:href="#NotoSansSC-Thin-2d" transform="translate(1197.499771 0)"/>
    <use xlink:href="#NotoSansSC-Thin-30" transform="translate(1229.899765 0)"/>
    <use xlink:href="#NotoSansSC-Thin-35" transform="translate(1281.999756 0)"/>
    <use xlink:href="#NotoSansSC-Thin-2d" transform="translate(1334.099747 0)"/>
    <use xlink:href="#NotoSansSC-Thin-32" transform="translate(1366.499741 0)"/>
    <use xlink:href="#NotoSansSC-Thin-37" transform="translate(1418.599731 0)"/>
   </g>
  </g>
 </g>
 <defs>
  <clipPath id="p7c98720cbc">
   <rect x="46.387031" y="80.038437" width="314.82" height="175.104"/>
  </clipPath>
 </defs>
</svg>
