<?xml version="1.0" encoding="utf-8" standalone="no"?>
<!DOCTYPE svg PUBLIC "-//W3C//DTD SVG 1.1//EN"
  "http://www.w3.org/Graphics/SVG/1.1/DTD/svg11.dtd">
<svg xmlns:xlink="http://www.w3.org/1999/xlink" width="375.553594pt" height="281.143562pt" viewBox="0 0 375.553594 281.143562" xmlns="http://www.w3.org/2000/svg" version="1.1">
 <metadata>
  <rdf:RDF xmlns:dc="http://purl.org/dc/elements/1.1/" xmlns:cc="http://creativecommons.org/ns#" xmlns:rdf="http://www.w3.org/1999/02/22-rdf-syntax-ns#">
   <cc:Work>
    <dc:type rdf:resource="http://purl.org/dc/dcmitype/StillImage"/>
    <dc:date>2026-06-15T13:22:51.109385</dc:date>
    <dc:format>image/svg+xml</dc:format>
    <dc:creator>
     <cc:Agent>
      <dc:title>Matplotlib v3.10.9, https://matplotlib.org/</dc:title>
     </cc:Agent>
    </dc:creator>
   </cc:Work>
  </rdf:RDF>
 </metadata>
 <defs>
  <style type="text/css">*{stroke-linejoin: round; stroke-linecap: butt}</style>
 </defs>
 <g id="figure_1">
  <g id="patch_1">
   <path d="M 0 281.143562 
L 375.553594 281.143562 
L 375.553594 0 
L 0 0 
z
" style="fill: #ffffff"/>
  </g>
  <g id="axes_1">
   <g id="patch_2">
    <path d="M 49.933594 255.295562 
L 364.753594 255.295562 
L 364.753594 80.191562 
L 49.933594 80.191562 
z
" style="fill: #ffffff"/>
   </g>
   <g id="matplotlib.axis_1">
    <g id="xtick_1">
     <g id="line2d_1"/>
     <g id="text_1">
      <!-- 24/12 -->
      <g style="fill: #94a3b8" transform="translate(51.015703 265.989937) scale(0.09 -0.09)">
       <defs>
        <path id="MicrosoftYaHei-Bold-32" d="M 1500 841 
L 3553 841 
L 3553 0 
L 334 0 
L 334 359 
Q 334 738 473 1050 
Q 613 1363 856 1633 
Q 1100 1903 1613 2266 
Q 2081 2616 2268 2886 
Q 2456 3156 2456 3459 
Q 2456 4113 1744 4113 
Q 1119 4113 550 3613 
L 550 4513 
Q 1184 4922 1975 4922 
Q 2700 4922 3122 4551 
Q 3544 4181 3544 3531 
Q 3544 3169 3422 2876 
Q 3300 2584 3069 2328 
Q 2838 2072 2328 1713 
Q 1838 1363 1669 1172 
Q 1500 981 1500 841 
z
" transform="scale(0.015625)"/>
        <path id="MicrosoftYaHei-Bold-34" d="M 3184 4841 
L 3184 1766 
L 3869 1766 
L 3869 1031 
L 3184 1031 
L 3184 0 
L 2266 0 
L 2266 1031 
L 103 1031 
L 103 1772 
Q 775 2522 1362 3359 
Q 1950 4197 2250 4841 
L 3184 4841 
z
M 997 1766 
L 2266 1766 
L 2266 3541 
Q 2116 3259 1836 2859 
Q 1556 2459 997 1766 
z
" transform="scale(0.015625)"/>
        <path id="MicrosoftYaHei-Bold-2f" d="M 3100 4841 
L 747 -803 
L -156 -803 
L 2188 4841 
L 3100 4841 
z
" transform="scale(0.015625)"/>
        <path id="MicrosoftYaHei-Bold-31" d="M 2716 4947 
L 2716 0 
L 1700 0 
L 1700 3809 
Q 1513 3647 1188 3517 
Q 863 3388 591 3356 
L 591 4222 
Q 1447 4472 2072 4947 
L 2716 4947 
z
" transform="scale(0.015625)"/>
       </defs>
       <use xlink:href="#MicrosoftYaHei-Bold-32"/>
       <use xlink:href="#MicrosoftYaHei-Bold-34" transform="translate(61.669922 0)"/>
       <use xlink:href="#MicrosoftYaHei-Bold-2f" transform="translate(123.339844 0)"/>
       <use xlink:href="#MicrosoftYaHei-Bold-31" transform="translate(170.605469 0)"/>
       <use xlink:href="#MicrosoftYaHei-Bold-32" transform="translate(232.275391 0)"/>
      </g>
     </g>
    </g>
    <g id="xtick_2">
     <g id="line2d_2"/>
     <g id="text_2">
      <!-- 25/3 -->
      <g style="fill: #94a3b8" transform="translate(101.490938 265.989937) scale(0.09 -0.09)">
       <defs>
        <path id="MicrosoftYaHei-Bold-35" d="M 541 125 
L 541 997 
Q 1044 691 1613 691 
Q 2041 691 2283 902 
Q 2525 1113 2525 1472 
Q 2525 2225 1494 2225 
Q 1113 2225 616 2169 
L 797 4841 
L 3359 4841 
L 3359 4009 
L 1613 4009 
L 1544 2991 
Q 1803 3013 2022 3013 
Q 2731 3013 3142 2625 
Q 3553 2238 3553 1575 
Q 3553 844 3056 380 
Q 2559 -84 1706 -84 
Q 1016 -84 541 125 
z
" transform="scale(0.015625)"/>
        <path id="MicrosoftYaHei-Bold-33" d="M 494 1053 
Q 978 691 1625 691 
Q 2034 691 2275 872 
Q 2516 1053 2516 1388 
Q 2516 1731 2230 1912 
Q 1944 2094 1428 2094 
L 997 2094 
L 997 2872 
L 1394 2872 
Q 2369 2872 2369 3528 
Q 2369 4147 1622 4147 
Q 1134 4147 675 3828 
L 675 4663 
Q 1175 4922 1853 4922 
Q 2541 4922 2969 4605 
Q 3397 4288 3397 3725 
Q 3397 2775 2434 2531 
L 2434 2516 
Q 2941 2459 3244 2145 
Q 3547 1831 3547 1381 
Q 3547 691 3042 303 
Q 2538 -84 1697 -84 
Q 950 -84 494 163 
L 494 1053 
z
" transform="scale(0.015625)"/>
       </defs>
       <use xlink:href="#MicrosoftYaHei-Bold-32"/>
       <use xlink:href="#MicrosoftYaHei-Bold-35" transform="translate(61.669922 0)"/>
       <use xlink:href="#MicrosoftYaHei-Bold-2f" transform="translate(123.339844 0)"/>
       <use xlink:href="#MicrosoftYaHei-Bold-33" transform="translate(170.605469 0)"/>
      </g>
     </g>
    </g>
    <g id="xtick_3">
     <g id="line2d_3"/>
     <g id="text_3">
      <!-- 6 -->
      <g style="fill: #94a3b8" transform="translate(156.868359 265.989937) scale(0.09 -0.09)">
       <defs>
        <path id="MicrosoftYaHei-Bold-36" d="M 3378 3938 
Q 3009 4147 2575 4147 
Q 2016 4147 1680 3708 
Q 1344 3269 1344 2572 
L 1363 2572 
Q 1709 3103 2391 3103 
Q 3000 3103 3358 2686 
Q 3716 2269 3716 1600 
Q 3716 869 3250 392 
Q 2784 -84 2059 -84 
Q 1228 -84 786 516 
Q 344 1116 344 2159 
Q 344 3388 917 4155 
Q 1491 4922 2513 4922 
Q 3063 4922 3378 4791 
L 3378 3938 
z
M 1378 1591 
Q 1378 1216 1565 953 
Q 1753 691 2059 691 
Q 2369 691 2547 931 
Q 2725 1172 2725 1534 
Q 2725 2350 2053 2350 
Q 1750 2350 1564 2134 
Q 1378 1919 1378 1591 
z
" transform="scale(0.015625)"/>
       </defs>
       <use xlink:href="#MicrosoftYaHei-Bold-36"/>
      </g>
     </g>
    </g>
    <g id="xtick_4">
     <g id="line2d_4"/>
     <g id="text_4">
      <!-- 9 -->
      <g style="fill: #94a3b8" transform="translate(204.568359 265.989937) scale(0.09 -0.09)">
       <defs>
        <path id="MicrosoftYaHei-Bold-39" d="M 544 941 
Q 931 691 1456 691 
Q 2628 691 2653 2216 
L 2634 2222 
Q 2316 1731 1650 1731 
Q 1047 1731 658 2154 
Q 269 2578 269 3222 
Q 269 3978 737 4450 
Q 1206 4922 1959 4922 
Q 2744 4922 3191 4325 
Q 3638 3728 3638 2659 
Q 3638 1391 3098 653 
Q 2559 -84 1547 -84 
Q 975 -84 544 100 
L 544 941 
z
M 1259 3313 
Q 1259 2928 1445 2709 
Q 1631 2491 1953 2491 
Q 2241 2491 2427 2700 
Q 2613 2909 2613 3219 
Q 2613 3591 2427 3869 
Q 2241 4147 1928 4147 
Q 1625 4147 1442 3906 
Q 1259 3666 1259 3313 
z
" transform="scale(0.015625)"/>
       </defs>
       <use xlink:href="#MicrosoftYaHei-Bold-39"/>
      </g>
     </g>
    </g>
    <g id="xtick_5">
     <g id="line2d_5"/>
     <g id="text_5">
      <!-- 12 -->
      <g style="fill: #94a3b8" transform="translate(249.493125 265.989937) scale(0.09 -0.09)">
       <use xlink:href="#MicrosoftYaHei-Bold-31"/>
       <use xlink:href="#MicrosoftYaHei-Bold-32" transform="translate(61.669922 0)"/>
      </g>
     </g>
    </g>
    <g id="xtick_6">
     <g id="line2d_6"/>
     <g id="text_6">
      <!-- 26/3 -->
      <g style="fill: #94a3b8" transform="translate(292.290938 265.989937) scale(0.09 -0.09)">
       <use xlink:href="#MicrosoftYaHei-Bold-32"/>
       <use xlink:href="#MicrosoftYaHei-Bold-36" transform="translate(61.669922 0)"/>
       <use xlink:href="#MicrosoftYaHei-Bold-2f" transform="translate(123.339844 0)"/>
       <use xlink:href="#MicrosoftYaHei-Bold-33" transform="translate(170.605469 0)"/>
      </g>
     </g>
    </g>
    <g id="xtick_7">
     <g id="line2d_7"/>
     <g id="text_7">
      <!-- 4 -->
      <g style="fill: #94a3b8" transform="translate(347.668359 265.989937) scale(0.09 -0.09)">
       <use xlink:href="#MicrosoftYaHei-Bold-34"/>
      </g>
     </g>
    </g>
   </g>
   <g id="matplotlib.axis_2">
    <g id="ytick_1">
     <g id="line2d_8">
      <path d="M 49.933594 255.295562 
L 364.753594 255.295562 
" clip-path="url(#p7cec7f8739)" style="fill: none; stroke: #e2e8f0; stroke-opacity: 0.6; stroke-width: 0.5; stroke-linecap: square"/>
     </g>
     <g id="line2d_9"/>
     <g id="text_8">
      <!-- 2100 -->
      <g style="fill: #94a3b8" transform="translate(24.231719 258.89275) scale(0.09 -0.09)">
       <defs>
        <path id="MicrosoftYaHei-Bold-30" d="M 244 2341 
Q 244 3597 706 4259 
Q 1169 4922 2044 4922 
Q 3713 4922 3713 2453 
Q 3713 1238 3259 577 
Q 2806 -84 1950 -84 
Q 244 -84 244 2341 
z
M 1266 2366 
Q 1266 691 1981 691 
Q 2684 691 2684 2416 
Q 2684 4147 2000 4147 
Q 1266 4147 1266 2366 
z
" transform="scale(0.015625)"/>
       </defs>
       <use xlink:href="#MicrosoftYaHei-Bold-32"/>
       <use xlink:href="#MicrosoftYaHei-Bold-31" transform="translate(61.669922 0)"/>
       <use xlink:href="#MicrosoftYaHei-Bold-30" transform="translate(123.339844 0)"/>
       <use xlink:href="#MicrosoftYaHei-Bold-30" transform="translate(185.009766 0)"/>
      </g>
     </g>
    </g>
    <g id="ytick_2">
     <g id="line2d_10">
      <path d="M 49.933594 221.621716 
L 364.753594 221.621716 
" clip-path="url(#p7cec7f8739)" style="fill: none; stroke: #e2e8f0; stroke-opacity: 0.6; stroke-width: 0.5; stroke-linecap: square"/>
     </g>
     <g id="line2d_11"/>
     <g id="text_9">
      <!-- 2150 -->
      <g style="fill: #94a3b8" transform="translate(24.231719 225.218904) scale(0.09 -0.09)">
       <use xlink:href="#MicrosoftYaHei-Bold-32"/>
       <use xlink:href="#MicrosoftYaHei-Bold-31" transform="translate(61.669922 0)"/>
       <use xlink:href="#MicrosoftYaHei-Bold-35" transform="translate(123.339844 0)"/>
       <use xlink:href="#MicrosoftYaHei-Bold-30" transform="translate(185.009766 0)"/>
      </g>
     </g>
    </g>
    <g id="ytick_3">
     <g id="line2d_12">
      <path d="M 49.933594 187.94787 
L 364.753594 187.94787 
" clip-path="url(#p7cec7f8739)" style="fill: none; stroke: #e2e8f0; stroke-opacity: 0.6; stroke-width: 0.5; stroke-linecap: square"/>
     </g>
     <g id="line2d_13"/>
     <g id="text_10">
      <!-- 2200 -->
      <g style="fill: #94a3b8" transform="translate(24.231719 191.545058) scale(0.09 -0.09)">
       <use xlink:href="#MicrosoftYaHei-Bold-32"/>
       <use xlink:href="#MicrosoftYaHei-Bold-32" transform="translate(61.669922 0)"/>
       <use xlink:href="#MicrosoftYaHei-Bold-30" transform="translate(123.339844 0)"/>
       <use xlink:href="#MicrosoftYaHei-Bold-30" transform="translate(185.009766 0)"/>
      </g>
     </g>
    </g>
    <g id="ytick_4">
     <g id="line2d_14">
      <path d="M 49.933594 154.274024 
L 364.753594 154.274024 
" clip-path="url(#p7cec7f8739)" style="fill: none; stroke: #e2e8f0; stroke-opacity: 0.6; stroke-width: 0.5; stroke-linecap: square"/>
     </g>
     <g id="line2d_15"/>
     <g id="text_11">
      <!-- 2250 -->
      <g style="fill: #94a3b8" transform="translate(24.231719 157.871212) scale(0.09 -0.09)">
       <use xlink:href="#MicrosoftYaHei-Bold-32"/>
       <use xlink:href="#MicrosoftYaHei-Bold-32" transform="translate(61.669922 0)"/>
       <use xlink:href="#MicrosoftYaHei-Bold-35" transform="translate(123.339844 0)"/>
       <use xlink:href="#MicrosoftYaHei-Bold-30" transform="translate(185.009766 0)"/>
      </g>
     </g>
    </g>
    <g id="ytick_5">
     <g id="line2d_16">
      <path d="M 49.933594 120.600178 
L 364.753594 120.600178 
" clip-path="url(#p7cec7f8739)" style="fill: none; stroke: #e2e8f0; stroke-opacity: 0.6; stroke-width: 0.5; stroke-linecap: square"/>
     </g>
     <g id="line2d_17"/>
     <g id="text_12">
      <!-- 2300 -->
      <g style="fill: #94a3b8" transform="translate(24.231719 124.197365) scale(0.09 -0.09)">
       <use xlink:href="#MicrosoftYaHei-Bold-32"/>
       <use xlink:href="#MicrosoftYaHei-Bold-33" transform="translate(61.669922 0)"/>
       <use xlink:href="#MicrosoftYaHei-Bold-30" transform="translate(123.339844 0)"/>
       <use xlink:href="#MicrosoftYaHei-Bold-30" transform="translate(185.009766 0)"/>
      </g>
     </g>
    </g>
    <g id="ytick_6">
     <g id="line2d_18">
      <path d="M 49.933594 86.926332 
L 364.753594 86.926332 
" clip-path="url(#p7cec7f8739)" style="fill: none; stroke: #e2e8f0; stroke-opacity: 0.6; stroke-width: 0.5; stroke-linecap: square"/>
     </g>
     <g id="line2d_19"/>
     <g id="text_13">
      <!-- 2350 -->
      <g style="fill: #94a3b8" transform="translate(24.231719 90.523519) scale(0.09 -0.09)">
       <use xlink:href="#MicrosoftYaHei-Bold-32"/>
       <use xlink:href="#MicrosoftYaHei-Bold-33" transform="translate(61.669922 0)"/>
       <use xlink:href="#MicrosoftYaHei-Bold-35" transform="translate(123.339844 0)"/>
       <use xlink:href="#MicrosoftYaHei-Bold-30" transform="translate(185.009766 0)"/>
      </g>
     </g>
    </g>
    <g id="text_14">
     <!-- 储备量 (吨) -->
     <g style="fill: #64748b" transform="translate(17.994375 190.081844) rotate(-90) scale(0.09 -0.09)">
      <defs>
       <path id="MicrosoftYaHei-50a8" d="M 2850 3216 
L 3956 3216 
L 3956 4097 
L 3063 4097 
L 3063 4497 
L 3956 4497 
L 3956 5303 
L 4406 5303 
L 4406 4497 
L 5281 4497 
L 5281 4097 
L 4406 4097 
L 4406 3216 
L 4581 3216 
Q 5250 3928 5719 4816 
L 6125 4609 
Q 5722 3869 5150 3216 
L 6294 3216 
L 6294 2816 
L 4778 2816 
Q 4481 2519 4147 2241 
L 5825 2241 
L 5825 -791 
L 5400 -791 
L 5400 -366 
L 3938 -366 
L 3938 -797 
L 3513 -797 
L 3513 1756 
Q 3200 1538 2863 1334 
Q 2756 1528 2625 1722 
Q 3491 2191 4175 2816 
L 2850 2816 
L 2850 3216 
z
M 44 2266 
Q 856 3697 1169 5328 
L 1631 5241 
Q 1466 4541 1250 3906 
L 1250 -816 
L 813 -816 
L 813 2806 
Q 556 2247 250 1753 
Q 163 1997 44 2266 
z
M 3125 897 
Q 3144 584 3169 372 
Q 2613 9 2094 -409 
L 1825 -9 
Q 2019 172 2019 472 
L 2019 2816 
L 1425 2816 
L 1425 3247 
L 2463 3247 
L 2463 403 
Q 2869 691 3125 897 
z
M 3938 3 
L 5400 3 
L 5400 784 
L 3938 784 
L 3938 3 
z
M 5400 1859 
L 3938 1859 
L 3938 1153 
L 5400 1153 
L 5400 1859 
z
M 2181 5103 
Q 2550 4447 2781 3984 
L 2356 3747 
Q 2144 4234 1794 4903 
L 2181 5103 
z
" transform="scale(0.015625)"/>
       <path id="MicrosoftYaHei-5907" d="M 975 2097 
L 5425 2097 
L 5425 -816 
L 4975 -816 
L 4975 -541 
L 1425 -541 
L 1425 -816 
L 975 -816 
L 975 2097 
z
M 1869 5403 
L 2338 5203 
Q 2200 4975 2041 4753 
L 5425 4753 
L 5425 4334 
Q 4847 3638 3869 3119 
Q 4903 2772 6338 2697 
Q 6131 2403 5988 2172 
Q 4372 2366 3278 2838 
Q 2038 2306 281 2003 
Q 169 2222 19 2453 
Q 1569 2678 2719 3119 
Q 1981 3547 1559 4138 
Q 1094 3603 506 3109 
Q 338 3297 163 3453 
Q 1281 4353 1869 5403 
z
M 4756 4341 
L 1953 4341 
Q 2456 3741 3275 3353 
Q 4156 3772 4756 4341 
z
M 1425 953 
L 2975 953 
L 2975 1722 
L 1425 1722 
L 1425 953 
z
M 4975 1722 
L 3425 1722 
L 3425 953 
L 4975 953 
L 4975 1722 
z
M 3425 -166 
L 4975 -166 
L 4975 597 
L 3425 597 
L 3425 -166 
z
M 1425 -166 
L 2975 -166 
L 2975 597 
L 1425 597 
L 1425 -166 
z
" transform="scale(0.015625)"/>
       <path id="MicrosoftYaHei-91cf" d="M 113 -278 
L 2981 -278 
L 2981 78 
L 475 78 
L 475 403 
L 2981 403 
L 2981 759 
L 1494 759 
L 1494 597 
L 1069 597 
L 1069 2516 
L 5350 2516 
L 5350 597 
L 4925 597 
L 4925 759 
L 3419 759 
L 3419 403 
L 5931 403 
L 5931 78 
L 3419 78 
L 3419 -278 
L 6288 -278 
L 6288 -616 
L 113 -616 
L 113 -278 
z
M 1119 5072 
L 5306 5072 
L 5306 3284 
L 4881 3284 
L 4881 3453 
L 1544 3453 
L 1544 3284 
L 1119 3284 
L 1119 5072 
z
M 163 3153 
L 6263 3153 
L 6263 2816 
L 163 2816 
L 163 3153 
z
M 1544 3778 
L 4881 3778 
L 4881 4116 
L 1544 4116 
L 1544 3778 
z
M 4881 4747 
L 1544 4747 
L 1544 4416 
L 4881 4416 
L 4881 4747 
z
M 3419 1084 
L 4925 1084 
L 4925 1491 
L 3419 1491 
L 3419 1084 
z
M 1494 1084 
L 2981 1084 
L 2981 1491 
L 1494 1491 
L 1494 1084 
z
M 4925 2191 
L 3419 2191 
L 3419 1791 
L 4925 1791 
L 4925 2191 
z
M 1494 1791 
L 2981 1791 
L 2981 2191 
L 1494 2191 
L 1494 1791 
z
" transform="scale(0.015625)"/>
       <path id="MicrosoftYaHei-20" transform="scale(0.015625)"/>
       <path id="MicrosoftYaHei-28" d="M 1531 -1100 
Q 478 100 478 1847 
Q 478 3594 1531 4841 
L 2072 4841 
Q 1016 3544 1016 1853 
Q 1016 166 2066 -1100 
L 1531 -1100 
z
" transform="scale(0.015625)"/>
       <path id="MicrosoftYaHei-5428" d="M 2313 4509 
L 3950 4509 
L 3950 5297 
L 4413 5297 
L 4413 4509 
L 6138 4509 
L 6138 4059 
L 4413 4059 
L 4413 1834 
L 5325 1834 
L 5325 3528 
L 5775 3528 
L 5775 1141 
L 5325 1141 
L 5325 1397 
L 4413 1397 
L 4413 216 
Q 4413 -197 4750 -197 
L 5369 -197 
Q 5713 -197 5756 141 
Q 5813 566 5850 1059 
Q 6106 947 6319 859 
Q 6256 341 6194 -34 
Q 6100 -647 5375 -647 
L 4644 -647 
Q 3950 -647 3950 147 
L 3950 1397 
L 2594 1397 
L 2594 3522 
L 3044 3522 
L 3044 1834 
L 3950 1834 
L 3950 4059 
L 2313 4059 
L 2313 4509 
z
M 450 4634 
L 2069 4634 
L 2069 353 
L 1619 353 
L 1619 684 
L 900 684 
L 900 253 
L 450 253 
L 450 4634 
z
M 1619 4197 
L 900 4197 
L 900 1122 
L 1619 1122 
L 1619 4197 
z
" transform="scale(0.015625)"/>
       <path id="MicrosoftYaHei-29" d="M 78 -1100 
Q 1131 163 1131 1853 
Q 1131 3547 72 4841 
L 616 4841 
Q 1672 3603 1672 1847 
Q 1672 91 616 -1100 
L 78 -1100 
z
" transform="scale(0.015625)"/>
      </defs>
      <use xlink:href="#MicrosoftYaHei-50a8"/>
      <use xlink:href="#MicrosoftYaHei-5907" transform="translate(100 0)"/>
      <use xlink:href="#MicrosoftYaHei-91cf" transform="translate(200 0)"/>
      <use xlink:href="#MicrosoftYaHei-20" transform="translate(300 0)"/>
      <use xlink:href="#MicrosoftYaHei-28" transform="translate(329.589844 0)"/>
      <use xlink:href="#MicrosoftYaHei-5428" transform="translate(362.988281 0)"/>
      <use xlink:href="#MicrosoftYaHei-29" transform="translate(462.988281 0)"/>
     </g>
    </g>
   </g>
   <g id="FillBetweenPolyCollection_1">
    <path d="M 64.243594 1669.597101 
L 64.243594 228.356486 
L 111.943594 201.417409 
L 159.643594 181.213101 
L 207.343594 161.008793 
L 255.043594 140.804486 
L 302.743594 113.865409 
L 350.443594 106.080015 
L 350.443594 1669.597101 
L 350.443594 1669.597101 
L 302.743594 1669.597101 
L 255.043594 1669.597101 
L 207.343594 1669.597101 
L 159.643594 1669.597101 
L 111.943594 1669.597101 
L 64.243594 1669.597101 
z
" clip-path="url(#p7cec7f8739)" style="fill: #d4a017; fill-opacity: 0.1; stroke: #d4a017; stroke-opacity: 0.1; stroke-width: 1.5"/>
   </g>
   <g id="patch_3">
    <path d="M 317.490281 93.769529 
Q 333.031678 99.575384 347.316269 104.91173 
" style="fill: none; stroke: #d4a017; stroke-width: 1.2; stroke-linecap: round"/>
    <path d="M 344.573818 101.965722 
L 347.316269 104.91173 
L 343.313992 105.338086 
" style="fill: none; stroke: #d4a017; stroke-width: 1.2; stroke-linecap: round"/>
   </g>
   <g id="text_15">
    <!-- 2321.6吨 -->
    <g style="fill: #1e293b" transform="translate(273.542109 81.739883) scale(0.09 -0.09)">
     <defs>
      <path id="MicrosoftYaHei-Bold-2e" d="M 313 453 
Q 313 688 491 838 
Q 669 988 916 988 
Q 1166 988 1337 834 
Q 1509 681 1509 453 
Q 1509 213 1337 64 
Q 1166 -84 903 -84 
Q 659 -84 486 69 
Q 313 222 313 453 
z
" transform="scale(0.015625)"/>
      <path id="MicrosoftYaHei-Bold-5428" d="M 5569 1103 
Q 5938 903 6350 741 
Q 6244 78 6150 -191 
Q 5981 -716 5313 -716 
L 4625 -716 
Q 3838 -716 3838 47 
L 3838 1203 
L 2513 1203 
L 2513 3453 
L 3300 3453 
L 3300 1978 
L 3838 1978 
L 3838 3866 
L 2363 3866 
L 2363 4641 
L 3838 4641 
L 3838 5316 
L 4663 5316 
L 4663 4641 
L 6213 4641 
L 6213 3866 
L 4663 3866 
L 4663 1978 
L 5213 1978 
L 5213 3453 
L 6000 3453 
L 6000 1203 
L 4663 1203 
L 4663 291 
Q 4663 41 4925 41 
L 5150 41 
Q 5381 41 5450 278 
Q 5519 591 5569 1103 
z
M 338 4803 
L 2213 4803 
L 2213 78 
L 1488 78 
L 1488 478 
L 1063 478 
L 1063 -97 
L 338 -97 
L 338 4803 
z
M 1488 4003 
L 1063 4003 
L 1063 1278 
L 1488 1278 
L 1488 4003 
z
" transform="scale(0.015625)"/>
     </defs>
     <use xlink:href="#MicrosoftYaHei-Bold-32"/>
     <use xlink:href="#MicrosoftYaHei-Bold-33" transform="translate(61.669922 0)"/>
     <use xlink:href="#MicrosoftYaHei-Bold-32" transform="translate(123.339844 0)"/>
     <use xlink:href="#MicrosoftYaHei-Bold-31" transform="translate(185.009766 0)"/>
     <use xlink:href="#MicrosoftYaHei-Bold-2e" transform="translate(246.679688 0)"/>
     <use xlink:href="#MicrosoftYaHei-Bold-36" transform="translate(275.244141 0)"/>
     <use xlink:href="#MicrosoftYaHei-Bold-5428" transform="translate(336.914062 0)"/>
    </g>
    <!-- +8.09吨 -->
    <g style="fill: #1e293b" transform="translate(275.666953 92.610477) scale(0.09 -0.09)">
     <defs>
      <path id="MicrosoftYaHei-Bold-2b" d="M 4072 1653 
L 2766 1653 
L 2766 347 
L 2109 347 
L 2109 1653 
L 797 1653 
L 797 2313 
L 2109 2313 
L 2109 3625 
L 2766 3625 
L 2766 2313 
L 4072 2313 
L 4072 1653 
z
" transform="scale(0.015625)"/>
      <path id="MicrosoftYaHei-Bold-38" d="M 269 1303 
Q 269 1725 512 2053 
Q 756 2381 1219 2534 
Q 850 2719 648 3003 
Q 447 3288 447 3634 
Q 447 3997 645 4292 
Q 844 4588 1200 4755 
Q 1556 4922 1997 4922 
Q 2441 4922 2800 4758 
Q 3159 4594 3359 4298 
Q 3559 4003 3559 3647 
Q 3559 3309 3339 3018 
Q 3119 2728 2747 2559 
Q 3200 2403 3453 2076 
Q 3706 1750 3706 1313 
Q 3706 697 3228 309 
Q 2750 -78 1988 -78 
Q 1225 -78 747 309 
Q 269 697 269 1303 
z
M 1278 1394 
Q 1278 1056 1472 853 
Q 1666 650 1991 650 
Q 2303 650 2503 853 
Q 2703 1056 2703 1394 
Q 2703 1709 2500 1920 
Q 2297 2131 1991 2131 
Q 1675 2131 1476 1920 
Q 1278 1709 1278 1394 
z
M 1428 3531 
Q 1428 3266 1592 3077 
Q 1756 2888 2006 2888 
Q 2247 2888 2415 3072 
Q 2584 3256 2584 3531 
Q 2584 3806 2420 3997 
Q 2256 4188 2006 4188 
Q 1750 4188 1589 3997 
Q 1428 3806 1428 3531 
z
" transform="scale(0.015625)"/>
     </defs>
     <use xlink:href="#MicrosoftYaHei-Bold-2b"/>
     <use xlink:href="#MicrosoftYaHei-Bold-38" transform="translate(76.123047 0)"/>
     <use xlink:href="#MicrosoftYaHei-Bold-2e" transform="translate(137.792969 0)"/>
     <use xlink:href="#MicrosoftYaHei-Bold-30" transform="translate(166.357422 0)"/>
     <use xlink:href="#MicrosoftYaHei-Bold-39" transform="translate(228.027344 0)"/>
     <use xlink:href="#MicrosoftYaHei-Bold-5428" transform="translate(289.697266 0)"/>
    </g>
   </g>
   <g id="text_16">
    <g id="patch_4">
     <path d="M 283.911656 243.987242 
L 349.012594 243.987242 
Q 351.712594 243.987242 351.712594 241.287242 
L 351.712594 231.855524 
Q 351.712594 229.155524 349.012594 229.155524 
L 283.911656 229.155524 
Q 281.211656 229.155524 281.211656 231.855524 
L 281.211656 241.287242 
Q 281.211656 243.987242 283.911656 243.987242 
z
" style="fill: #fef2f2; opacity: 0.9; stroke: #dc2626; stroke-width: 1.5; stroke-linejoin: miter"/>
    </g>
    <!-- 连续18个月增持 -->
    <g style="fill: #dc2626" transform="translate(283.911656 239.049899) scale(0.09 -0.09)">
     <defs>
      <path id="MicrosoftYaHei-Bold-8fde" d="M 1875 1603 
L 3825 1603 
L 3825 2197 
L 2044 2197 
L 2044 2866 
Q 2338 3359 2603 3953 
L 2000 3953 
L 2000 4691 
L 2909 4691 
Q 3034 5009 3150 5353 
L 4056 5216 
Q 3956 4963 3841 4691 
L 6050 4691 
L 6050 3953 
L 3506 3953 
Q 3278 3469 3000 2934 
L 3825 2934 
L 3825 3728 
L 4663 3728 
L 4663 2934 
L 6000 2934 
L 6000 2197 
L 4663 2197 
L 4663 1603 
L 6200 1603 
L 6200 866 
L 4663 866 
L 4663 166 
L 3825 166 
L 3825 866 
L 1875 866 
L 1875 1603 
z
M 1025 5228 
Q 1500 4616 1869 4078 
L 1138 3584 
Q 763 4234 356 4816 
L 1025 5228 
z
M 6306 141 
L 6031 -691 
Q 5216 -703 4453 -703 
Q 2734 -703 2439 -654 
Q 2144 -606 1842 -493 
Q 1541 -381 1238 -103 
L 513 -841 
L 156 109 
L 781 641 
L 781 2222 
L 200 2222 
L 200 3016 
L 1600 3016 
L 1600 628 
Q 2088 91 3156 91 
Q 5384 91 6306 141 
z
" transform="scale(0.015625)"/>
      <path id="MicrosoftYaHei-Bold-7eed" d="M 6281 3734 
L 6281 3066 
L 6075 2166 
L 5313 2291 
L 5550 3028 
L 2950 3028 
Q 3550 2803 4050 2578 
L 3738 2078 
Q 3206 2347 2556 2616 
L 2800 3028 
L 2288 3028 
L 2288 3516 
Q 1813 2659 1150 1734 
Q 1613 1778 2100 1847 
Q 2038 1447 2050 1109 
Q 994 1034 369 903 
L 156 1628 
Q 506 1978 938 2697 
Q 519 2666 294 2622 
L 69 3334 
Q 525 3972 1006 5347 
L 1788 5116 
Q 1363 4184 875 3403 
Q 1075 3409 1344 3422 
Q 1538 3791 1744 4228 
L 2494 3903 
Q 2450 3816 2406 3734 
L 3825 3734 
L 3825 4122 
L 2506 4122 
L 2506 4809 
L 3825 4809 
L 3825 5322 
L 4675 5322 
L 4675 4809 
L 5950 4809 
L 5950 4122 
L 4675 4122 
L 4675 3734 
L 6281 3734 
z
M 6288 609 
L 4669 609 
Q 5444 247 6319 -184 
L 5894 -872 
Q 5150 -428 4200 41 
Q 3619 -534 2506 -909 
Q 2263 -466 2056 -141 
Q 1150 -272 213 -453 
L 81 378 
Q 1306 522 2169 672 
Q 2156 278 2175 -28 
Q 3256 178 3675 609 
L 2238 609 
L 2238 1303 
L 3400 1303 
Q 2838 1597 2163 1872 
L 2444 2359 
Q 3125 2091 3706 1822 
L 3419 1303 
L 4038 1303 
Q 4188 1891 4169 2916 
L 4994 2916 
Q 5000 1978 4838 1303 
L 6288 1303 
L 6288 609 
z
" transform="scale(0.015625)"/>
      <path id="MicrosoftYaHei-Bold-4e2a" d="M 2719 2966 
L 3675 2966 
L 3675 -841 
L 2719 -841 
L 2719 2966 
z
M 3788 5241 
L 3681 5066 
Q 4575 3622 6319 2684 
Q 5956 2197 5725 1841 
Q 4000 2822 3206 4241 
Q 2425 2891 675 1759 
Q 494 2047 94 2584 
Q 1894 3672 2819 5241 
L 3788 5241 
z
" transform="scale(0.015625)"/>
      <path id="MicrosoftYaHei-Bold-6708" d="M 1038 -866 
Q 625 -497 225 -178 
Q 784 388 932 936 
Q 1081 1484 1081 2603 
L 1081 5034 
L 5681 5034 
L 5681 366 
Q 5681 -181 5450 -465 
Q 5219 -750 4808 -775 
Q 4397 -800 3431 -791 
Q 3338 -303 3188 172 
Q 3806 134 4269 134 
Q 4756 134 4756 591 
L 4756 1041 
L 1947 1041 
Q 1872 353 1648 -56 
Q 1425 -466 1038 -866 
z
M 4756 4191 
L 2006 4191 
L 2006 3459 
L 4756 3459 
L 4756 4191 
z
M 1997 1884 
L 4756 1884 
L 4756 2616 
L 2006 2616 
Q 2006 2434 1997 1884 
z
" transform="scale(0.015625)"/>
      <path id="MicrosoftYaHei-Bold-589e" d="M 3325 5341 
Q 3553 4994 3763 4653 
L 4397 4653 
L 4794 5347 
L 5575 5091 
L 5241 4653 
L 6069 4653 
L 6069 2241 
L 2056 2241 
L 2056 4653 
L 2900 4653 
Q 2766 4856 2613 5078 
L 3325 5341 
z
M 5369 2891 
L 5369 4016 
L 4400 4016 
L 4400 2891 
L 5369 2891 
z
M 4875 3934 
L 5313 3703 
Q 5100 3284 4894 2947 
Q 4663 3091 4456 3191 
Q 4706 3591 4875 3934 
z
M 2756 2891 
L 3725 2891 
L 3725 4016 
L 2756 4016 
L 2756 2891 
z
M 3238 3928 
Q 3425 3609 3644 3191 
Q 3369 3053 3181 2941 
Q 2988 3359 2788 3691 
L 3238 3928 
z
M 263 -372 
L 100 572 
L 650 725 
L 650 2859 
L 200 2859 
L 200 3716 
L 650 3716 
L 650 5266 
L 1463 5266 
L 1463 3716 
L 1850 3716 
L 1850 2859 
L 1463 2859 
L 1463 966 
Q 1734 1047 2006 1134 
Q 1994 913 1994 694 
Q 1994 472 2006 253 
Q 1238 -9 263 -372 
z
M 2331 -847 
L 2331 1959 
L 5781 1959 
L 5781 -847 
L 5000 -847 
L 5000 -597 
L 3125 -597 
L 3125 -847 
L 2331 -847 
z
M 5000 1341 
L 3125 1341 
L 3125 966 
L 5000 966 
L 5000 1341 
z
M 3125 16 
L 5000 16 
L 5000 391 
L 3125 391 
L 3125 16 
z
" transform="scale(0.015625)"/>
      <path id="MicrosoftYaHei-Bold-6301" d="M 138 4203 
L 788 4203 
L 788 5278 
L 1650 5278 
L 1650 4203 
L 2213 4203 
L 2213 3422 
L 1650 3422 
L 1650 2466 
L 2113 2553 
Q 2113 2272 2150 1728 
L 1650 1638 
L 1650 22 
Q 1650 -338 1508 -533 
Q 1366 -728 1075 -762 
Q 784 -797 300 -797 
Q 225 -391 131 34 
Q 466 16 606 16 
Q 788 16 788 266 
L 788 1466 
L 156 1328 
L 106 2216 
Q 422 2259 788 2319 
L 788 3422 
L 138 3422 
L 138 4203 
z
M 2213 3303 
L 3781 3303 
L 3781 3816 
L 2531 3816 
L 2531 4566 
L 3781 4566 
L 3781 5278 
L 4644 5278 
L 4644 4566 
L 5925 4566 
L 5925 3816 
L 4644 3816 
L 4644 3303 
L 6319 3303 
L 6319 2553 
L 2213 2553 
L 2213 3303 
z
M 2513 991 
L 2909 1291 
L 2250 1291 
L 2250 2041 
L 4656 2041 
L 4656 2428 
L 5519 2428 
L 5519 2041 
L 6250 2041 
L 6250 1291 
L 5519 1291 
L 5519 334 
Q 5519 -191 5297 -472 
Q 5075 -753 4692 -793 
Q 4309 -834 3600 -841 
Q 3519 -397 3425 -22 
Q 3875 -47 4238 -47 
Q 4656 -47 4656 466 
L 4656 1291 
L 3234 1291 
Q 3609 888 3888 516 
L 3231 53 
Q 2956 453 2513 991 
z
" transform="scale(0.015625)"/>
     </defs>
     <use xlink:href="#MicrosoftYaHei-Bold-8fde"/>
     <use xlink:href="#MicrosoftYaHei-Bold-7eed" transform="translate(100 0)"/>
     <use xlink:href="#MicrosoftYaHei-Bold-31" transform="translate(200 0)"/>
     <use xlink:href="#MicrosoftYaHei-Bold-38" transform="translate(261.669922 0)"/>
     <use xlink:href="#MicrosoftYaHei-Bold-4e2a" transform="translate(323.339844 0)"/>
     <use xlink:href="#MicrosoftYaHei-Bold-6708" transform="translate(423.339844 0)"/>
     <use xlink:href="#MicrosoftYaHei-Bold-589e" transform="translate(523.339844 0)"/>
     <use xlink:href="#MicrosoftYaHei-Bold-6301" transform="translate(623.339844 0)"/>
    </g>
   </g>
   <g id="line2d_20">
    <path d="M 64.243594 228.356486 
L 111.943594 201.417409 
L 159.643594 181.213101 
L 207.343594 161.008793 
L 255.043594 140.804486 
L 302.743594 113.865409 
L 350.443594 106.080015 
" clip-path="url(#p7cec7f8739)" style="fill: none; stroke: #d4a017; stroke-width: 2.8; stroke-linecap: square"/>
    <defs>
     <path id="m3e54a32a57" d="M -3 3 
L 3 3 
L 3 -3 
L -3 -3 
z
" style="stroke: #d4a017; stroke-width: 2; stroke-linejoin: miter"/>
    </defs>
    <g clip-path="url(#p7cec7f8739)">
     <use xlink:href="#m3e54a32a57" x="64.243594" y="228.356486" style="fill: #ffffff; stroke: #d4a017; stroke-width: 2; stroke-linejoin: miter"/>
     <use xlink:href="#m3e54a32a57" x="111.943594" y="201.417409" style="fill: #ffffff; stroke: #d4a017; stroke-width: 2; stroke-linejoin: miter"/>
     <use xlink:href="#m3e54a32a57" x="159.643594" y="181.213101" style="fill: #ffffff; stroke: #d4a017; stroke-width: 2; stroke-linejoin: miter"/>
     <use xlink:href="#m3e54a32a57" x="207.343594" y="161.008793" style="fill: #ffffff; stroke: #d4a017; stroke-width: 2; stroke-linejoin: miter"/>
     <use xlink:href="#m3e54a32a57" x="255.043594" y="140.804486" style="fill: #ffffff; stroke: #d4a017; stroke-width: 2; stroke-linejoin: miter"/>
     <use xlink:href="#m3e54a32a57" x="302.743594" y="113.865409" style="fill: #ffffff; stroke: #d4a017; stroke-width: 2; stroke-linejoin: miter"/>
     <use xlink:href="#m3e54a32a57" x="350.443594" y="106.080015" style="fill: #ffffff; stroke: #d4a017; stroke-width: 2; stroke-linejoin: miter"/>
    </g>
   </g>
  </g>
  <g id="text_17">
   <!-- 中国人民银行黄金储备 -->
   <g style="fill: #1e293b" transform="translate(49.933594 21.99125) scale(0.14 -0.14)">
    <defs>
     <path id="MicrosoftYaHei-Bold-4e2d" d="M 2719 5341 
L 3669 5341 
L 3669 4234 
L 6000 4234 
L 6000 728 
L 5075 728 
L 5075 1159 
L 3669 1159 
L 3669 -853 
L 2719 -853 
L 2719 1159 
L 1313 1159 
L 1313 709 
L 388 709 
L 388 4234 
L 2719 4234 
L 2719 5341 
z
M 5075 3372 
L 3669 3372 
L 3669 2022 
L 5075 2022 
L 5075 3372 
z
M 1313 2022 
L 2719 2022 
L 2719 3372 
L 1313 3372 
L 1313 2022 
z
" transform="scale(0.015625)"/>
     <path id="MicrosoftYaHei-Bold-56fd" d="M 356 -797 
L 356 5078 
L 6044 5078 
L 6044 -791 
L 5150 -791 
L 5150 -572 
L 1250 -572 
L 1250 -797 
L 356 -797 
z
M 5150 4309 
L 1250 4309 
L 1250 197 
L 5150 197 
L 5150 4309 
z
M 4800 2047 
L 4334 2047 
Q 4594 1822 4856 1566 
L 4525 1266 
L 4950 1266 
L 4950 534 
L 1419 534 
L 1419 1266 
L 2694 1266 
L 2694 2047 
L 1581 2047 
L 1581 2778 
L 2694 2778 
L 2694 3222 
L 1481 3222 
L 1481 3953 
L 4888 3953 
L 4888 3222 
L 3531 3222 
L 3531 2778 
L 4800 2778 
L 4800 2047 
z
M 3706 1734 
L 4069 2047 
L 3531 2047 
L 3531 1266 
L 4144 1266 
Q 3897 1547 3706 1734 
z
" transform="scale(0.015625)"/>
     <path id="MicrosoftYaHei-Bold-4eba" d="M 2731 5297 
L 3644 5297 
Q 3647 4619 3584 3984 
Q 4053 1066 6300 147 
Q 5806 -434 5581 -759 
Q 3900 94 3206 2147 
Q 2547 313 719 -822 
Q 525 -478 88 72 
Q 1491 872 2117 2009 
Q 2744 3147 2731 5297 
z
" transform="scale(0.015625)"/>
     <path id="MicrosoftYaHei-Bold-6c11" d="M 1544 309 
Q 2175 528 2975 822 
Q 2950 322 2950 -128 
Q 1528 -553 919 -909 
L 400 -166 
Q 669 116 669 584 
L 669 5084 
L 5869 5084 
L 5869 2878 
L 4038 2878 
Q 4081 2484 4138 2147 
L 6225 2147 
L 6225 1372 
L 4300 1372 
Q 4456 797 4661 487 
Q 4866 178 5069 178 
Q 5266 178 5353 422 
Q 5441 666 5475 1147 
Q 5900 903 6313 697 
Q 6097 -841 5188 -841 
Q 3938 -841 3384 1372 
L 1544 1372 
L 1544 309 
z
M 1544 4309 
L 1544 3653 
L 4994 3653 
L 4994 4309 
L 1544 4309 
z
M 1544 2147 
L 3225 2147 
Q 3169 2491 3128 2878 
L 1544 2878 
L 1544 2147 
z
" transform="scale(0.015625)"/>
     <path id="MicrosoftYaHei-Bold-94f6" d="M 2363 3872 
L 1197 3872 
Q 1100 3634 994 3416 
L 2163 3416 
L 2163 2709 
L 1656 2709 
L 1656 2078 
L 2338 2078 
L 2338 1372 
L 1656 1372 
L 1656 459 
Q 1931 622 2213 797 
Q 2225 403 2281 -28 
Q 1234 -688 1106 -847 
L 656 -228 
Q 844 9 844 347 
L 844 1372 
L 144 1372 
L 144 2078 
L 844 2078 
L 844 2709 
L 609 2709 
Q 481 2500 344 2309 
Q 219 2884 100 3309 
Q 638 4297 863 5347 
Q 1644 5184 1650 5184 
Q 1559 4869 1459 4572 
L 2363 4572 
L 2363 3872 
z
M 5766 1816 
L 6250 1128 
L 5200 591 
Q 5666 209 6381 66 
Q 6113 -353 5888 -741 
Q 4969 -441 4450 150 
Q 4444 -94 4444 -247 
Q 3250 -628 2756 -916 
L 2375 -253 
Q 2556 3 2556 391 
L 2556 5078 
L 5963 5078 
L 5963 1816 
L 5766 1816 
z
M 5138 4303 
L 3381 4303 
L 3381 3797 
L 5138 3797 
L 5138 4303 
z
M 5138 2591 
L 5138 3097 
L 3381 3097 
L 3381 2591 
L 5138 2591 
z
M 3600 1816 
L 3381 1816 
L 3381 197 
Q 3766 338 4175 503 
Q 3803 1050 3600 1816 
z
M 5731 1816 
L 4422 1816 
Q 4547 1431 4731 1134 
Q 5231 1456 5731 1816 
z
" transform="scale(0.015625)"/>
     <path id="MicrosoftYaHei-Bold-884c" d="M 1663 5347 
Q 2063 5072 2413 4809 
Q 1756 4047 669 3178 
Q 438 3528 113 3916 
Q 1163 4716 1663 5347 
z
M 2788 4903 
L 6038 4903 
L 6038 4091 
L 2788 4091 
L 2788 4903 
z
M 1763 3722 
L 2494 3253 
Q 2219 2850 1894 2463 
L 1894 -778 
L 1025 -778 
L 1025 1525 
Q 738 1247 425 978 
Q 300 1328 81 1847 
Q 1044 2678 1763 3722 
z
M 2581 3116 
L 6313 3116 
L 6313 2303 
L 5338 2303 
L 5338 291 
Q 5338 -209 5105 -473 
Q 4872 -738 4445 -766 
Q 4019 -794 3181 -803 
Q 3094 -391 2950 72 
Q 3600 28 3975 28 
Q 4431 28 4431 509 
L 4431 2303 
L 2581 2303 
L 2581 3116 
z
" transform="scale(0.015625)"/>
     <path id="MicrosoftYaHei-Bold-9ec4" d="M 781 2828 
L 2813 2828 
L 2813 3147 
L 175 3147 
L 175 3797 
L 1688 3797 
L 1688 4178 
L 425 4178 
L 425 4803 
L 1688 4803 
L 1688 5347 
L 2513 5347 
L 2513 4803 
L 3888 4803 
L 3888 5347 
L 4713 5347 
L 4713 4803 
L 5975 4803 
L 5975 4178 
L 4713 4178 
L 4713 3797 
L 6250 3797 
L 6250 3147 
L 3588 3147 
L 3588 2828 
L 5613 2828 
L 5613 384 
L 781 384 
L 781 2828 
z
M 2513 3797 
L 3888 3797 
L 3888 4178 
L 2513 4178 
L 2513 3797 
z
M 4781 2241 
L 3588 2241 
L 3588 1878 
L 4781 1878 
L 4781 2241 
z
M 1619 1878 
L 2813 1878 
L 2813 2241 
L 1619 2241 
L 1619 1878 
z
M 4781 978 
L 4781 1341 
L 3588 1341 
L 3588 978 
L 4781 978 
z
M 1619 978 
L 2813 978 
L 2813 1341 
L 1619 1341 
L 1619 978 
z
M 2363 341 
L 2788 -309 
Q 1713 -603 544 -859 
Q 406 -528 200 -109 
Q 1350 97 2363 341 
z
M 3988 328 
Q 5150 128 6213 -109 
L 5881 -859 
Q 5013 -622 3631 -334 
L 3988 328 
z
" transform="scale(0.015625)"/>
     <path id="MicrosoftYaHei-Bold-91d1" d="M 263 103 
L 1600 103 
Q 1356 428 981 878 
L 1706 1316 
Q 2031 941 2381 484 
L 1775 103 
L 2731 103 
L 2731 1328 
L 763 1328 
L 763 2091 
L 2731 2091 
L 2731 2616 
L 1538 2616 
L 1538 3122 
Q 1081 2828 569 2547 
Q 344 2916 50 3359 
Q 1938 4172 2813 5297 
L 4081 5297 
L 3800 5016 
Q 4769 4003 6350 3491 
Q 6056 3009 5844 2647 
Q 5331 2884 4888 3147 
L 4888 2616 
L 3663 2616 
L 3663 2091 
L 5638 2091 
L 5638 1328 
L 4700 1328 
L 5463 928 
Q 5119 484 4800 103 
L 6150 103 
L 6150 -659 
L 263 -659 
L 263 103 
z
M 3213 4478 
Q 2650 3903 1906 3378 
L 4519 3378 
Q 3763 3878 3213 4478 
z
M 4669 1328 
L 3663 1328 
L 3663 103 
L 4631 103 
L 4031 434 
Q 4375 884 4669 1328 
z
" transform="scale(0.015625)"/>
     <path id="MicrosoftYaHei-Bold-50a8" d="M 5669 4834 
L 6306 4466 
Q 6006 3919 5588 3409 
L 6288 3409 
L 6288 2753 
L 4988 2753 
Q 4744 2513 4469 2278 
L 5963 2278 
L 5963 -822 
L 5200 -822 
L 5200 -522 
L 4125 -522 
L 4125 -834 
L 3363 -834 
L 3363 1450 
Q 3172 1325 2975 1203 
Q 2850 1500 2650 1916 
L 2650 772 
Q 2850 903 3106 1091 
Q 3119 653 3175 259 
Q 2575 -178 2163 -578 
L 1731 -9 
Q 1900 147 1900 472 
L 1900 2584 
L 1538 2584 
L 1538 3309 
L 2650 3309 
L 2650 1963 
Q 3331 2306 3900 2753 
L 2875 2753 
L 2875 3409 
L 3794 3409 
L 3794 3978 
L 3081 3978 
L 3081 4634 
L 3794 4634 
L 3794 5353 
L 4575 5353 
L 4575 4634 
L 5244 4634 
L 5244 4156 
Q 5475 4478 5669 4834 
z
M 5113 3978 
L 4575 3978 
L 4575 3409 
L 4628 3409 
Q 4888 3678 5113 3978 
z
M 5200 1628 
L 4125 1628 
L 4125 1197 
L 5200 1197 
L 5200 1628 
z
M 4125 128 
L 5200 128 
L 5200 572 
L 4125 572 
L 4125 128 
z
M 1050 5347 
L 1806 5203 
Q 1647 4509 1438 3875 
L 1438 -803 
L 688 -803 
L 688 2075 
Q 503 1722 300 1391 
Q 238 1778 88 2559 
Q 731 3816 1050 5347 
z
M 2431 5122 
Q 2713 4516 2919 3947 
L 2181 3653 
Q 1988 4228 1738 4859 
L 2431 5122 
z
" transform="scale(0.015625)"/>
     <path id="MicrosoftYaHei-Bold-5907" d="M 5669 4847 
L 5669 4203 
Q 5119 3644 4275 3213 
Q 5159 3019 6306 2972 
Q 6088 2528 5944 2172 
Q 4325 2325 3194 2750 
Q 2184 2391 884 2153 
L 5600 2153 
L 5600 -828 
L 4738 -828 
L 4738 -584 
L 1663 -584 
L 1663 -828 
L 800 -828 
L 800 2138 
Q 609 2103 413 2072 
Q 269 2416 88 2816 
Q 1294 2978 2219 3219 
Q 1797 3481 1484 3800 
Q 1091 3469 663 3209 
Q 481 3422 119 3759 
Q 1156 4384 1900 5347 
L 2794 5247 
Q 2647 5041 2494 4847 
L 5669 4847 
z
M 3206 3534 
Q 3959 3825 4431 4197 
L 2116 4197 
Q 2550 3803 3206 3534 
z
M 4738 1522 
L 3606 1522 
L 3606 1072 
L 4738 1072 
L 4738 1522 
z
M 1663 1072 
L 2794 1072 
L 2794 1522 
L 1663 1522 
L 1663 1072 
z
M 3606 47 
L 4738 47 
L 4738 497 
L 3606 497 
L 3606 47 
z
M 1663 47 
L 2794 47 
L 2794 497 
L 1663 497 
L 1663 47 
z
" transform="scale(0.015625)"/>
    </defs>
    <use xlink:href="#MicrosoftYaHei-Bold-4e2d"/>
    <use xlink:href="#MicrosoftYaHei-Bold-56fd" transform="translate(100 0)"/>
    <use xlink:href="#MicrosoftYaHei-Bold-4eba" transform="translate(200 0)"/>
    <use xlink:href="#MicrosoftYaHei-Bold-6c11" transform="translate(300 0)"/>
    <use xlink:href="#MicrosoftYaHei-Bold-94f6" transform="translate(400 0)"/>
    <use xlink:href="#MicrosoftYaHei-Bold-884c" transform="translate(500 0)"/>
    <use xlink:href="#MicrosoftYaHei-Bold-9ec4" transform="translate(600 0)"/>
    <use xlink:href="#MicrosoftYaHei-Bold-91d1" transform="translate(700 0)"/>
    <use xlink:href="#MicrosoftYaHei-Bold-50a8" transform="translate(800 0)"/>
    <use xlink:href="#MicrosoftYaHei-Bold-5907" transform="translate(900 0)"/>
   </g>
  </g>
  <g id="text_18">
   <!-- 连续18个月增持 · 单位: 吨 -->
   <g style="fill: #64748b" transform="translate(49.933594 43.609938) scale(0.09 -0.09)">
    <defs>
     <path id="MicrosoftYaHei-8fde" d="M 1850 1391 
L 3950 1391 
L 3950 2259 
L 2131 2259 
L 2131 2703 
Q 2513 3369 2825 4116 
L 1925 4116 
L 1925 4553 
L 3000 4553 
Q 3150 4947 3281 5359 
L 3806 5247 
Q 3672 4894 3531 4553 
L 6088 4553 
L 6088 4116 
L 3350 4116 
Q 3031 3372 2694 2697 
L 3950 2697 
L 3950 3778 
L 4450 3778 
L 4450 2697 
L 6050 2697 
L 6050 2259 
L 4450 2259 
L 4450 1391 
L 6225 1391 
L 6225 953 
L 4450 953 
L 4450 -78 
L 3950 -78 
L 3950 953 
L 1850 953 
L 1850 1391 
z
M 2650 -216 
L 3931 -247 
L 6319 -191 
Q 6213 -441 6113 -672 
L 3944 -697 
L 2594 -666 
Q 1588 -653 1088 47 
Q 906 -97 356 -753 
L 88 -222 
Q 478 131 863 459 
L 863 2641 
L 150 2641 
L 150 3097 
L 1350 3097 
L 1350 369 
Q 1806 -188 2650 -216 
z
M 856 5203 
Q 1288 4659 1688 4084 
L 1244 3772 
Q 875 4359 456 4934 
L 856 5203 
z
" transform="scale(0.015625)"/>
     <path id="MicrosoftYaHei-7eed" d="M 2263 3584 
L 3975 3584 
L 3975 4216 
L 2506 4216 
L 2506 4641 
L 3975 4641 
L 3975 5303 
L 4450 5303 
L 4450 4641 
L 5938 4641 
L 5938 4216 
L 4450 4216 
L 4450 3584 
L 6231 3584 
L 6231 3159 
Q 5944 2609 5644 2191 
Q 5400 2303 5194 2359 
Q 5494 2759 5719 3159 
L 2263 3159 
L 2263 3584 
z
M 2238 1141 
L 4119 1141 
Q 4263 1716 4250 2941 
L 4706 2941 
Q 4706 1753 4588 1141 
L 6238 1141 
L 6238 716 
L 4588 716 
Q 5444 147 6294 -478 
L 5944 -866 
Q 5206 -222 4306 391 
Q 3744 -491 2281 -903 
Q 2175 -691 2019 -466 
Q 3556 -47 3956 716 
L 2238 716 
L 2238 1141 
z
M 838 1672 
Q 1519 1734 2113 1822 
Q 2088 1553 2069 1397 
Q 1338 1309 294 1159 
L 194 1616 
Q 581 1947 1144 2903 
Q 569 2866 213 2834 
L 88 3247 
Q 563 3897 1131 5278 
L 1606 5103 
Q 1044 4003 606 3284 
Q 938 3284 1363 3297 
Q 1581 3697 1825 4184 
L 2263 3978 
Q 1469 2572 838 1672 
z
M 131 172 
Q 1113 334 2150 547 
Q 2125 209 2125 84 
Q 1213 -97 269 -303 
L 131 172 
z
M 2338 1953 
L 2588 2247 
Q 3200 1866 3531 1578 
L 3244 1234 
Q 2963 1503 2338 1953 
z
M 2775 2647 
L 3031 2947 
Q 3531 2666 3963 2316 
L 3681 1978 
Q 3281 2303 2775 2647 
z
" transform="scale(0.015625)"/>
     <path id="MicrosoftYaHei-31" d="M 1781 0 
L 1781 4141 
Q 1638 3997 1295 3819 
Q 953 3641 663 3569 
L 663 4169 
Q 1047 4275 1484 4508 
Q 1922 4741 2156 4947 
L 2388 4947 
L 2388 0 
L 1781 0 
z
" transform="scale(0.015625)"/>
     <path id="MicrosoftYaHei-38" d="M 306 1350 
Q 306 1769 556 2122 
Q 806 2475 1200 2625 
Q 884 2803 700 3081 
Q 516 3359 516 3684 
Q 516 4028 692 4312 
Q 869 4597 1183 4759 
Q 1497 4922 1875 4922 
Q 2256 4922 2572 4761 
Q 2888 4600 3063 4315 
Q 3238 4031 3238 3684 
Q 3238 3366 3058 3086 
Q 2878 2806 2559 2625 
Q 2953 2472 3200 2119 
Q 3447 1766 3447 1350 
Q 3447 938 3250 611 
Q 3053 284 2690 103 
Q 2328 -78 1875 -78 
Q 1425 -78 1065 103 
Q 706 284 506 612 
Q 306 941 306 1350 
z
M 906 1378 
Q 906 947 1172 687 
Q 1438 428 1878 428 
Q 2309 428 2582 692 
Q 2856 956 2856 1378 
Q 2856 1778 2579 2051 
Q 2303 2325 1878 2325 
Q 1456 2325 1181 2058 
Q 906 1791 906 1378 
z
M 1081 3634 
Q 1081 3309 1312 3076 
Q 1544 2844 1878 2844 
Q 2206 2844 2445 3078 
Q 2684 3313 2684 3634 
Q 2684 3963 2454 4191 
Q 2225 4419 1878 4419 
Q 1534 4419 1307 4195 
Q 1081 3972 1081 3634 
z
" transform="scale(0.015625)"/>
     <path id="MicrosoftYaHei-4e2a" d="M 2913 3028 
L 3481 3028 
L 3481 -841 
L 2913 -841 
L 2913 3028 
z
M 3600 5178 
L 3506 5034 
Q 4519 3366 6319 2647 
Q 6125 2341 5988 2084 
Q 4150 3047 3206 4566 
Q 2281 3122 400 1997 
Q 263 2222 81 2491 
Q 2031 3572 2981 5178 
L 3600 5178 
z
" transform="scale(0.015625)"/>
     <path id="MicrosoftYaHei-6708" d="M 1603 1284 
Q 1463 78 663 -897 
Q 463 -703 231 -522 
Q 838 134 1044 1041 
Q 1188 1709 1188 2891 
L 1188 5053 
L 5363 5053 
L 5363 178 
Q 5363 -747 4481 -747 
Q 4113 -747 3531 -734 
Q 3500 -509 3438 -209 
Q 4013 -247 4344 -247 
Q 4850 -247 4850 247 
L 4850 1284 
L 1603 1284 
z
M 1653 1741 
L 4850 1741 
L 4850 2941 
L 1700 2941 
Q 1700 2316 1653 1741 
z
M 1700 4584 
L 1700 3397 
L 4850 3397 
L 4850 4584 
L 1700 4584 
z
" transform="scale(0.015625)"/>
     <path id="MicrosoftYaHei-589e" d="M 2188 4459 
L 3259 4459 
Q 3041 4781 2775 5116 
L 3131 5366 
Q 3456 4991 3694 4666 
L 3403 4459 
L 4453 4459 
Q 4759 4888 5050 5372 
L 5500 5116 
Q 5234 4772 4978 4459 
L 6038 4459 
L 6038 2122 
L 5600 2122 
L 5600 2309 
L 2625 2309 
L 2625 2122 
L 2188 2122 
L 2188 4459 
z
M 2438 1797 
L 5788 1797 
L 5788 -847 
L 5338 -847 
L 5338 -547 
L 2888 -547 
L 2888 -847 
L 2438 -847 
L 2438 1797 
z
M 81 428 
Q 466 538 894 672 
L 894 3253 
L 144 3253 
L 144 3697 
L 894 3697 
L 894 5259 
L 1356 5259 
L 1356 3697 
L 2000 3697 
L 2000 3253 
L 1356 3253 
L 1356 819 
Q 1709 931 2094 1059 
Q 2106 759 2125 553 
Q 1306 316 250 -53 
L 81 428 
z
M 5600 4084 
L 4325 4084 
L 4325 2684 
L 5600 2684 
L 5600 4084 
z
M 2625 2684 
L 3894 2684 
L 3894 4084 
L 2625 4084 
L 2625 2684 
z
M 5338 1409 
L 2888 1409 
L 2888 809 
L 5338 809 
L 5338 1409 
z
M 2888 -159 
L 5338 -159 
L 5338 434 
L 2888 434 
L 2888 -159 
z
M 5350 3609 
Q 5006 3066 4856 2884 
L 4519 3084 
Q 4744 3391 4981 3828 
L 5350 3609 
z
M 2863 3597 
L 3181 3803 
Q 3463 3441 3669 3122 
L 3319 2897 
Q 3119 3228 2863 3597 
z
" transform="scale(0.015625)"/>
     <path id="MicrosoftYaHei-6301" d="M 88 1978 
Q 563 2084 963 2181 
L 963 3647 
L 144 3647 
L 144 4097 
L 963 4097 
L 963 5303 
L 1450 5303 
L 1450 4097 
L 2250 4097 
L 2250 3647 
L 1450 3647 
L 1450 2303 
Q 1841 2406 2138 2497 
Q 2144 2272 2181 2009 
Q 1791 1906 1450 1813 
L 1450 -72 
Q 1450 -772 813 -772 
Q 619 -772 219 -759 
Q 194 -503 138 -241 
Q 531 -284 706 -284 
Q 963 -284 963 9 
L 963 1678 
Q 500 1547 150 1441 
L 88 1978 
z
M 2175 3097 
L 3975 3097 
L 3975 3972 
L 2531 3972 
L 2531 4422 
L 3975 4422 
L 3975 5303 
L 4463 5303 
L 4463 4422 
L 5925 4422 
L 5925 3972 
L 4463 3972 
L 4463 3097 
L 6319 3097 
L 6319 2647 
L 2175 2647 
L 2175 3097 
z
M 2200 1797 
L 4844 1797 
L 4844 2434 
L 5331 2434 
L 5331 1797 
L 6263 1797 
L 6263 1347 
L 5331 1347 
L 5331 -72 
Q 5331 -759 4688 -766 
Q 4300 -772 3763 -759 
Q 3738 -553 3694 -266 
Q 4169 -316 4544 -316 
Q 4844 -316 4844 22 
L 4844 1347 
L 2200 1347 
L 2200 1797 
z
M 2594 972 
L 2944 1228 
Q 3406 741 3731 309 
L 3313 16 
Q 3006 491 2594 972 
z
" transform="scale(0.015625)"/>
     <path id="MicrosoftYaHei-b7" d="M 372 2113 
Q 372 2278 490 2395 
Q 609 2513 775 2513 
Q 941 2513 1061 2397 
Q 1181 2281 1181 2113 
Q 1181 1950 1064 1831 
Q 947 1713 772 1713 
Q 600 1713 486 1831 
Q 372 1950 372 2113 
z
" transform="scale(0.015625)"/>
     <path id="MicrosoftYaHei-5355" d="M 125 909 
L 2956 909 
L 2956 1616 
L 1225 1616 
L 1225 1322 
L 750 1322 
L 750 4353 
L 2047 4353 
Q 1747 4703 1400 5072 
L 1756 5366 
Q 2219 4922 2569 4547 
L 2338 4353 
L 3803 4353 
Q 4147 4809 4500 5347 
L 5000 5078 
Q 4678 4688 4378 4353 
L 5656 4353 
L 5656 1322 
L 5181 1322 
L 5181 1616 
L 3444 1616 
L 3444 909 
L 6275 909 
L 6275 459 
L 3444 459 
L 3444 -859 
L 2956 -859 
L 2956 459 
L 125 459 
L 125 909 
z
M 3444 2053 
L 5181 2053 
L 5181 2778 
L 3444 2778 
L 3444 2053 
z
M 1225 2053 
L 2956 2053 
L 2956 2778 
L 1225 2778 
L 1225 2053 
z
M 5181 3916 
L 3444 3916 
L 3444 3203 
L 5181 3203 
L 5181 3916 
z
M 1225 3203 
L 2956 3203 
L 2956 3916 
L 1225 3916 
L 1225 3203 
z
" transform="scale(0.015625)"/>
     <path id="MicrosoftYaHei-4f4d" d="M 1788 -59 
L 4228 -59 
Q 4678 1144 5269 3372 
L 5831 3203 
Q 5453 2044 4756 -59 
L 6319 -59 
L 6319 -522 
L 1788 -522 
L 1788 -59 
z
M 81 2291 
Q 975 3641 1431 5322 
L 1963 5191 
Q 1703 4397 1406 3709 
L 1406 -853 
L 938 -853 
L 938 2731 
Q 644 2181 319 1716 
Q 231 1953 81 2291 
z
M 1919 4191 
L 4122 4191 
Q 3844 4659 3506 5059 
L 3931 5353 
Q 4206 5034 4613 4497 
L 4150 4191 
L 6206 4191 
L 6206 3728 
L 1919 3728 
L 1919 4191 
z
M 2769 3309 
Q 3181 2184 3669 584 
L 3150 434 
Q 2725 1966 2294 3147 
L 2769 3309 
z
" transform="scale(0.015625)"/>
     <path id="MicrosoftYaHei-3a" d="M 372 3134 
Q 372 3303 490 3415 
Q 609 3528 775 3528 
Q 944 3528 1062 3414 
Q 1181 3300 1181 3134 
Q 1181 2969 1065 2853 
Q 950 2738 772 2738 
Q 603 2738 487 2853 
Q 372 2969 372 3134 
z
M 372 322 
Q 372 491 487 606 
Q 603 722 775 722 
Q 950 722 1065 605 
Q 1181 488 1181 322 
Q 1181 159 1065 42 
Q 950 -75 772 -75 
Q 600 -75 486 42 
Q 372 159 372 322 
z
" transform="scale(0.015625)"/>
    </defs>
    <use xlink:href="#MicrosoftYaHei-8fde"/>
    <use xlink:href="#MicrosoftYaHei-7eed" transform="translate(100 0)"/>
    <use xlink:href="#MicrosoftYaHei-31" transform="translate(200 0)"/>
    <use xlink:href="#MicrosoftYaHei-38" transform="translate(258.642578 0)"/>
    <use xlink:href="#MicrosoftYaHei-4e2a" transform="translate(317.285156 0)"/>
    <use xlink:href="#MicrosoftYaHei-6708" transform="translate(417.285156 0)"/>
    <use xlink:href="#MicrosoftYaHei-589e" transform="translate(517.285156 0)"/>
    <use xlink:href="#MicrosoftYaHei-6301" transform="translate(617.285156 0)"/>
    <use xlink:href="#MicrosoftYaHei-20" transform="translate(717.285156 0)"/>
    <use xlink:href="#MicrosoftYaHei-b7" transform="translate(746.875 0)"/>
    <use xlink:href="#MicrosoftYaHei-20" transform="translate(770.947266 0)"/>
    <use xlink:href="#MicrosoftYaHei-5355" transform="translate(800.537109 0)"/>
    <use xlink:href="#MicrosoftYaHei-4f4d" transform="translate(900.537109 0)"/>
    <use xlink:href="#MicrosoftYaHei-3a" transform="translate(1000.537109 0)"/>
    <use xlink:href="#MicrosoftYaHei-20" transform="translate(1024.609375 0)"/>
    <use xlink:href="#MicrosoftYaHei-5428" transform="translate(1054.199219 0)"/>
   </g>
  </g>
  <g id="text_19">
   <!-- 来源: 中国人民银行 · 2026-05-27 -->
   <g style="fill: #94a3b8" transform="translate(49.933594 268.727703) scale(0.065 -0.065)">
    <defs>
     <path id="MicrosoftYaHei-6765" d="M 6325 141 
Q 6119 -122 5975 -334 
Q 4344 403 3438 1550 
L 3438 -841 
L 2963 -841 
L 2963 1584 
Q 2050 516 413 -409 
Q 281 -222 75 22 
Q 1706 841 2806 1922 
L 181 1922 
L 181 2359 
L 2963 2359 
L 2963 4003 
L 550 4003 
L 550 4441 
L 2963 4441 
L 2963 5341 
L 3438 5341 
L 3438 4441 
L 5900 4441 
L 5900 4003 
L 3438 4003 
L 3438 2359 
L 6225 2359 
L 6225 1922 
L 3566 1922 
Q 4594 778 6325 141 
z
M 4056 2766 
Q 4631 3378 4950 3828 
L 5381 3497 
Q 4913 2941 4419 2453 
L 4056 2766 
z
M 1075 3509 
L 1438 3803 
Q 1900 3347 2313 2828 
L 1900 2484 
Q 1581 2922 1075 3509 
z
" transform="scale(0.015625)"/>
     <path id="MicrosoftYaHei-6e90" d="M 2931 3741 
L 3744 3741 
Q 3878 4094 4006 4478 
L 2425 4478 
L 2425 2678 
Q 2425 222 1463 -841 
Q 1313 -647 1100 -453 
Q 1963 509 1963 2672 
L 1963 4903 
L 6300 4903 
L 6300 4478 
L 4547 4478 
Q 4375 4103 4194 3741 
L 5844 3741 
L 5844 1178 
L 5394 1178 
L 5394 1341 
L 4588 1341 
L 4588 -128 
Q 4588 -797 3938 -797 
Q 3725 -797 3394 -791 
Q 3363 -603 3306 -359 
Q 3619 -384 3850 -384 
Q 4138 -384 4138 -84 
L 4138 1341 
L 3381 1341 
L 3381 1178 
L 2931 1178 
L 2931 3741 
z
M 831 1878 
Q 1056 1734 1275 1666 
Q 1019 603 700 -766 
L 219 -603 
Q 581 678 831 1878 
z
M 3381 1753 
L 5394 1753 
L 5394 2347 
L 3381 2347 
L 3381 1753 
z
M 5394 3328 
L 3381 3328 
L 3381 2747 
L 5394 2747 
L 5394 3328 
z
M 6288 -241 
L 5894 -541 
Q 5450 128 4931 759 
L 5294 1016 
Q 5863 353 6288 -241 
z
M 2363 -297 
Q 2894 272 3306 984 
L 3706 741 
Q 3231 -16 2731 -584 
L 2363 -297 
z
M 400 3622 
Q 888 3272 1500 2784 
Q 1281 2522 1144 2378 
Q 544 2909 88 3266 
L 400 3622 
z
M 669 5228 
Q 1163 4859 1688 4384 
Q 1469 4172 1313 4003 
Q 769 4541 350 4884 
L 669 5228 
z
" transform="scale(0.015625)"/>
     <path id="MicrosoftYaHei-4e2d" d="M 525 3972 
L 2931 3972 
L 2931 5334 
L 3469 5334 
L 3469 3972 
L 5900 3972 
L 5900 1122 
L 5388 1122 
L 5388 1459 
L 3469 1459 
L 3469 -866 
L 2931 -866 
L 2931 1459 
L 1038 1459 
L 1038 1122 
L 525 1122 
L 525 3972 
z
M 5388 3509 
L 3469 3509 
L 3469 1922 
L 5388 1922 
L 5388 3509 
z
M 1038 1922 
L 2931 1922 
L 2931 3509 
L 1038 3509 
L 1038 1922 
z
" transform="scale(0.015625)"/>
     <path id="MicrosoftYaHei-56fd" d="M 469 4997 
L 5938 4997 
L 5938 -834 
L 5456 -834 
L 5456 -522 
L 950 -522 
L 950 -841 
L 469 -841 
L 469 4997 
z
M 5456 4553 
L 950 4553 
L 950 -78 
L 5456 -78 
L 5456 4553 
z
M 1238 1009 
L 2963 1009 
L 2963 2247 
L 1456 2247 
L 1456 2672 
L 2963 2672 
L 2963 3509 
L 1338 3509 
L 1338 3934 
L 5063 3934 
L 5063 3509 
L 3425 3509 
L 3425 2672 
L 4938 2672 
L 4938 2247 
L 3425 2247 
L 3425 1009 
L 5163 1009 
L 5163 584 
L 1238 584 
L 1238 1009 
z
M 3750 1847 
L 4100 2109 
Q 4444 1753 4688 1441 
L 4319 1159 
Q 4019 1566 3750 1847 
z
" transform="scale(0.015625)"/>
     <path id="MicrosoftYaHei-4eba" d="M 100 -303 
Q 2825 1272 2981 5222 
L 3531 5222 
Q 3497 4553 3400 3947 
Q 4175 822 6313 -166 
Q 6050 -453 5850 -709 
Q 3994 341 3203 3006 
Q 2519 431 494 -778 
Q 325 -547 100 -303 
z
" transform="scale(0.015625)"/>
     <path id="MicrosoftYaHei-6c11" d="M 725 5059 
L 5731 5059 
L 5731 2778 
L 5238 2778 
L 5238 3053 
L 3834 3053 
Q 3888 2438 3994 1928 
L 6219 1928 
L 6219 1478 
L 4106 1478 
Q 4425 384 5056 -128 
Q 5369 -384 5544 -28 
Q 5694 278 5769 1034 
Q 6056 909 6250 853 
Q 6144 147 5994 -253 
Q 5788 -784 5375 -784 
Q 5000 -784 4638 -466 
Q 3950 122 3600 1478 
L 1213 1478 
L 1213 -153 
Q 1931 72 2744 416 
Q 2719 128 2738 -134 
Q 1725 -478 1056 -747 
Q 981 -784 825 -866 
L 550 -403 
Q 725 -278 725 -53 
L 725 5059 
z
M 5238 4609 
L 1213 4609 
L 1213 3503 
L 5238 3503 
L 5238 4609 
z
M 3334 3053 
L 1213 3053 
L 1213 1928 
L 3500 1928 
Q 3397 2444 3334 3053 
z
" transform="scale(0.015625)"/>
     <path id="MicrosoftYaHei-94f6" d="M 5769 1772 
L 6088 1409 
Q 5475 978 4875 609 
Q 5444 9 6338 -241 
Q 6144 -503 6013 -716 
Q 4194 -34 3663 1959 
L 3075 1959 
L 3075 -78 
Q 3575 159 4169 484 
Q 4175 197 4200 -22 
Q 3719 -253 3006 -653 
Q 2919 -709 2744 -866 
L 2413 -434 
Q 2613 -228 2613 28 
L 2613 5016 
L 5706 5016 
L 5706 1803 
L 5250 1803 
L 5250 1959 
L 4119 1959 
Q 4300 1372 4613 928 
Q 5225 1328 5769 1772 
z
M 2338 584 
Q 2344 309 2369 78 
Q 1913 -178 1381 -541 
Q 1225 -653 1081 -797 
L 750 -366 
Q 956 -166 956 103 
L 956 1491 
L 100 1491 
L 100 1922 
L 956 1922 
L 956 2834 
L 531 2834 
L 531 3259 
Q 431 3103 325 2959 
Q 206 3184 56 3384 
Q 669 4241 1025 5316 
L 1481 5166 
Q 1325 4741 1138 4353 
L 2288 4353 
L 2288 3922 
L 919 3922 
Q 738 3578 531 3266 
L 2138 3266 
L 2138 2834 
L 1406 2834 
L 1406 1922 
L 2313 1922 
L 2313 1491 
L 1406 1491 
L 1406 3 
Q 1794 241 2338 584 
z
M 5250 2384 
L 5250 3284 
L 3075 3284 
L 3075 2384 
L 5250 2384 
z
M 5250 4591 
L 3075 4591 
L 3075 3697 
L 5250 3697 
L 5250 4591 
z
" transform="scale(0.015625)"/>
     <path id="MicrosoftYaHei-884c" d="M 2363 2978 
L 6319 2978 
L 6319 2509 
L 5106 2509 
L 5106 66 
Q 5106 -709 4325 -709 
Q 3800 -709 3256 -703 
Q 3219 -453 3163 -141 
Q 3650 -191 4144 -191 
Q 4575 -191 4575 234 
L 4575 2509 
L 2363 2509 
L 2363 2978 
z
M 100 1578 
Q 1069 2372 1863 3809 
L 2300 3541 
Q 1978 2984 1619 2500 
L 1619 -809 
L 1100 -809 
L 1100 1856 
Q 725 1431 319 1072 
Q 219 1334 100 1578 
z
M 2725 4866 
L 5969 4866 
L 5969 4397 
L 2725 4397 
L 2725 4866 
z
M 131 3559 
Q 1125 4328 1731 5347 
L 2181 5072 
Q 1456 3959 381 3078 
Q 269 3316 131 3559 
z
" transform="scale(0.015625)"/>
     <path id="MicrosoftYaHei-32" d="M 2666 3572 
Q 2666 3963 2419 4186 
Q 2172 4409 1747 4409 
Q 1447 4409 1140 4256 
Q 834 4103 569 3819 
L 569 4413 
Q 806 4659 1107 4790 
Q 1409 4922 1816 4922 
Q 2472 4922 2872 4570 
Q 3272 4219 3272 3619 
Q 3272 3084 3026 2693 
Q 2781 2303 2188 1894 
Q 1581 1475 1376 1294 
Q 1172 1113 1090 947 
Q 1009 781 1009 544 
L 3416 544 
L 3416 0 
L 372 0 
L 372 241 
Q 372 659 486 951 
Q 600 1244 862 1520 
Q 1125 1797 1681 2184 
Q 2250 2584 2458 2886 
Q 2666 3188 2666 3572 
z
" transform="scale(0.015625)"/>
     <path id="MicrosoftYaHei-30" d="M 284 2325 
Q 284 3606 709 4264 
Q 1134 4922 1941 4922 
Q 3478 4922 3478 2441 
Q 3478 1216 3045 567 
Q 2613 -81 1831 -81 
Q 1094 -81 689 534 
Q 284 1150 284 2325 
z
M 909 2353 
Q 909 425 1888 425 
Q 2850 425 2850 2384 
Q 2850 4413 1906 4413 
Q 909 4413 909 2353 
z
" transform="scale(0.015625)"/>
     <path id="MicrosoftYaHei-36" d="M 3181 4219 
Q 2803 4413 2391 4413 
Q 1763 4413 1381 3866 
Q 1000 3319 994 2372 
L 1009 2372 
Q 1353 3038 2106 3038 
Q 2734 3038 3109 2628 
Q 3484 2219 3484 1541 
Q 3484 831 3051 375 
Q 2619 -81 1947 -81 
Q 1209 -81 789 495 
Q 369 1072 369 2131 
Q 369 3413 920 4167 
Q 1472 4922 2372 4922 
Q 2888 4922 3181 4781 
L 3181 4219 
z
M 1031 1584 
Q 1031 1106 1286 765 
Q 1541 425 1963 425 
Q 2363 425 2613 719 
Q 2863 1013 2863 1475 
Q 2863 1975 2627 2253 
Q 2391 2531 1956 2531 
Q 1544 2531 1287 2250 
Q 1031 1969 1031 1584 
z
" transform="scale(0.015625)"/>
     <path id="MicrosoftYaHei-2d" d="M 2328 1681 
L 488 1681 
L 488 2153 
L 2328 2153 
L 2328 1681 
z
" transform="scale(0.015625)"/>
     <path id="MicrosoftYaHei-35" d="M 3294 1494 
Q 3294 784 2823 350 
Q 2353 -84 1559 -84 
Q 878 -84 544 119 
L 544 744 
Q 1034 425 1544 425 
Q 2050 425 2361 704 
Q 2672 984 2672 1447 
Q 2672 1909 2348 2167 
Q 2025 2425 1434 2425 
Q 978 2425 613 2384 
L 791 4841 
L 3053 4841 
L 3053 4303 
L 1306 4303 
L 1206 2931 
L 1647 2950 
Q 2416 2950 2855 2567 
Q 3294 2184 3294 1494 
z
" transform="scale(0.015625)"/>
     <path id="MicrosoftYaHei-37" d="M 3422 4463 
Q 2659 3131 2223 1998 
Q 1788 866 1684 0 
L 1047 0 
Q 1163 853 1594 1947 
Q 2025 3041 2747 4300 
L 347 4300 
L 347 4841 
L 3422 4841 
L 3422 4463 
z
" transform="scale(0.015625)"/>
    </defs>
    <use xlink:href="#MicrosoftYaHei-6765"/>
    <use xlink:href="#MicrosoftYaHei-6e90" transform="translate(100 0)"/>
    <use xlink:href="#MicrosoftYaHei-3a" transform="translate(200 0)"/>
    <use xlink:href="#MicrosoftYaHei-20" transform="translate(224.072266 0)"/>
    <use xlink:href="#MicrosoftYaHei-4e2d" transform="translate(253.662109 0)"/>
    <use xlink:href="#MicrosoftYaHei-56fd" transform="translate(353.662109 0)"/>
    <use xlink:href="#MicrosoftYaHei-4eba" transform="translate(453.662109 0)"/>
    <use xlink:href="#MicrosoftYaHei-6c11" transform="translate(553.662109 0)"/>
    <use xlink:href="#MicrosoftYaHei-94f6" transform="translate(653.662109 0)"/>
    <use xlink:href="#MicrosoftYaHei-884c" transform="translate(753.662109 0)"/>
    <use xlink:href="#MicrosoftYaHei-20" transform="translate(853.662109 0)"/>
    <use xlink:href="#MicrosoftYaHei-b7" transform="translate(883.251953 0)"/>
    <use xlink:href="#MicrosoftYaHei-20" transform="translate(907.324219 0)"/>
    <use xlink:href="#MicrosoftYaHei-32" transform="translate(936.914062 0)"/>
    <use xlink:href="#MicrosoftYaHei-30" transform="translate(995.556641 0)"/>
    <use xlink:href="#MicrosoftYaHei-32" transform="translate(1054.199219 0)"/>
    <use xlink:href="#MicrosoftYaHei-36" transform="translate(1112.841797 0)"/>
    <use xlink:href="#MicrosoftYaHei-2d" transform="translate(1171.484375 0)"/>
    <use xlink:href="#MicrosoftYaHei-30" transform="translate(1214.746094 0)"/>
    <use xlink:href="#MicrosoftYaHei-35" transform="translate(1273.388672 0)"/>
    <use xlink:href="#MicrosoftYaHei-2d" transform="translate(1332.03125 0)"/>
    <use xlink:href="#MicrosoftYaHei-32" transform="translate(1375.292969 0)"/>
    <use xlink:href="#MicrosoftYaHei-37" transform="translate(1433.935547 0)"/>
   </g>
  </g>
 </g>
 <defs>
  <clipPath id="p7cec7f8739">
   <rect x="49.933594" y="80.191562" width="314.82" height="175.104"/>
  </clipPath>
 </defs>
</svg>
