<?xml version="1.0" encoding="utf-8" standalone="no"?>
<!DOCTYPE svg PUBLIC "-//W3C//DTD SVG 1.1//EN"
  "http://www.w3.org/Graphics/SVG/1.1/DTD/svg11.dtd">
<svg xmlns:xlink="http://www.w3.org/1999/xlink" width="271.08pt" height="297.0176pt" viewBox="0 0 271.08 297.0176" xmlns="http://www.w3.org/2000/svg" version="1.1">
 <metadata>
  <rdf:RDF xmlns:dc="http://purl.org/dc/elements/1.1/" xmlns:cc="http://creativecommons.org/ns#" xmlns:rdf="http://www.w3.org/1999/02/22-rdf-syntax-ns#">
   <cc:Work>
    <dc:type rdf:resource="http://purl.org/dc/dcmitype/StillImage"/>
    <dc:date>2026-05-29T19:24:38.857273</dc:date>
    <dc:format>image/svg+xml</dc:format>
    <dc:creator>
     <cc:Agent>
      <dc:title>Matplotlib v3.10.9, https://matplotlib.org/</dc:title>
     </cc:Agent>
    </dc:creator>
   </cc:Work>
  </rdf:RDF>
 </metadata>
 <defs>
  <style type="text/css">*{stroke-linejoin: round; stroke-linecap: butt}</style>
 </defs>
 <g id="figure_1">
  <g id="patch_1">
   <path d="M 0 297.0176 
L 271.08 297.0176 
L 271.08 0 
L 0 0 
z
" style="fill: #ffffff"/>
  </g>
  <g id="axes_1">
   <g id="patch_2">
    <path d="M 260.28 135.54 
C 260.28 119.159293 257.053358 102.937868 250.784733 87.804069 
C 244.516108 72.670269 235.327409 58.918409 223.7445 47.3355 
C 212.161591 35.752591 198.409731 26.563892 183.275931 20.295267 
C 168.142132 14.026642 151.920707 10.8 135.54 10.8 
C 119.159293 10.8 102.937868 14.026642 87.804069 20.295267 
C 72.670269 26.563892 58.918409 35.752591 47.3355 47.3355 
C 35.752591 58.918409 26.563892 72.670269 20.295267 87.804069 
C 14.026642 102.937868 10.8 119.159293 10.8 135.54 
C 10.8 151.920707 14.026642 168.142132 20.295267 183.275931 
C 26.563892 198.409731 35.752591 212.161591 47.3355 223.7445 
C 58.918409 235.327409 72.670269 244.516108 87.804069 250.784733 
C 102.937868 257.053358 119.159293 260.28 135.54 260.28 
C 151.920707 260.28 168.142132 257.053358 183.275931 250.784733 
C 198.409731 244.516108 212.161591 235.327409 223.7445 223.7445 
C 235.327409 212.161591 244.516108 198.409731 250.784733 183.275931 
C 257.053358 168.142132 260.28 151.920707 260.28 135.54 
M 135.54 135.54 
C 135.54 135.54 135.54 135.54 135.54 135.54 
C 135.54 135.54 135.54 135.54 135.54 135.54 
C 135.54 135.54 135.54 135.54 135.54 135.54 
C 135.54 135.54 135.54 135.54 135.54 135.54 
C 135.54 135.54 135.54 135.54 135.54 135.54 
C 135.54 135.54 135.54 135.54 135.54 135.54 
C 135.54 135.54 135.54 135.54 135.54 135.54 
C 135.54 135.54 135.54 135.54 135.54 135.54 
C 135.54 135.54 135.54 135.54 135.54 135.54 
C 135.54 135.54 135.54 135.54 135.54 135.54 
C 135.54 135.54 135.54 135.54 135.54 135.54 
C 135.54 135.54 135.54 135.54 135.54 135.54 
C 135.54 135.54 135.54 135.54 135.54 135.54 
C 135.54 135.54 135.54 135.54 135.54 135.54 
C 135.54 135.54 135.54 135.54 135.54 135.54 
C 135.54 135.54 135.54 135.54 135.54 135.54 
z
" style="fill: #ffffff"/>
   </g>
   <g id="patch_3">
    <path d="M 213.5025 135.54 
L 153.462499 117.617501 
L 135.54 111.621716 
L 127.504325 127.504325 
L 128.856367 135.54 
L 134.782711 136.297289 
L 135.54 137.20595 
L 143.351293 143.351293 
L 213.5025 135.54 
z
" clip-path="url(#p4d9d6d5054)" style="fill: none; opacity: 0.65"/>
   </g>
   <g id="patch_4">
    <path d="M 135.54 135.54 
L 213.5025 135.54 
L 190.667812 80.412188 
L 135.54 135.54 
z
" clip-path="url(#p4d9d6d5054)" style="fill: #064e3b; opacity: 0.75; stroke: #ffffff; stroke-width: 1.5; stroke-linejoin: miter"/>
   </g>
   <g id="patch_5">
    <path d="M 135.54 135.54 
L 153.462499 117.617501 
L 135.54 110.193759 
L 135.54 135.54 
z
" clip-path="url(#p4d9d6d5054)" style="fill: #059669; opacity: 0.75; stroke: #ffffff; stroke-width: 1.5; stroke-linejoin: miter"/>
   </g>
   <g id="patch_6">
    <path d="M 135.54 135.54 
L 135.54 111.621716 
L 118.627219 118.627219 
L 135.54 135.54 
z
" clip-path="url(#p4d9d6d5054)" style="fill: #059669; opacity: 0.75; stroke: #ffffff; stroke-width: 1.5; stroke-linejoin: miter"/>
   </g>
   <g id="patch_7">
    <path d="M 135.54 135.54 
L 127.504325 127.504325 
L 124.17584 135.54 
L 135.54 135.54 
z
" clip-path="url(#p4d9d6d5054)" style="fill: #34d399; opacity: 0.75; stroke: #ffffff; stroke-width: 1.5; stroke-linejoin: miter"/>
   </g>
   <g id="patch_8">
    <path d="M 135.54 135.54 
L 128.856367 135.54 
L 130.813958 140.266042 
L 135.54 135.54 
z
" clip-path="url(#p4d9d6d5054)" style="fill: #6ee7b7; opacity: 0.75; stroke: #ffffff; stroke-width: 1.5; stroke-linejoin: miter"/>
   </g>
   <g id="patch_9">
    <path d="M 135.54 135.54 
L 134.782711 136.297289 
L 135.54 136.610968 
L 135.54 135.54 
z
" clip-path="url(#p4d9d6d5054)" style="fill: #fca5a5; opacity: 0.75; stroke: #ffffff; stroke-width: 1.5; stroke-linejoin: miter"/>
   </g>
   <g id="patch_10">
    <path d="M 135.54 135.54 
L 135.54 137.20595 
L 136.718005 136.718005 
L 135.54 135.54 
z
" clip-path="url(#p4d9d6d5054)" style="fill: #f87171; opacity: 0.75; stroke: #ffffff; stroke-width: 1.5; stroke-linejoin: miter"/>
   </g>
   <g id="patch_11">
    <path d="M 135.54 135.54 
L 143.351293 143.351293 
L 146.586836 135.54 
L 135.54 135.54 
z
" clip-path="url(#p4d9d6d5054)" style="fill: #991b1b; opacity: 0.75; stroke: #ffffff; stroke-width: 1.5; stroke-linejoin: miter"/>
   </g>
   <g id="line2d_1">
    <path d="M 135.54 135.54 
L 213.5025 135.54 
" clip-path="url(#p4d9d6d5054)" style="fill: none; stroke: #e2e8f0; stroke-opacity: 0.5; stroke-width: 0.6; stroke-linecap: square"/>
    <defs>
     <path id="md442e21eab" d="M 0 3 
C 0.795609 3 1.55874 2.683901 2.12132 2.12132 
C 2.683901 1.55874 3 0.795609 3 0 
C 3 -0.795609 2.683901 -1.55874 2.12132 -2.12132 
C 1.55874 -2.683901 0.795609 -3 0 -3 
C -0.795609 -3 -1.55874 -2.683901 -2.12132 -2.12132 
C -2.683901 -1.55874 -3 -0.795609 -3 0 
C -3 0.795609 -2.683901 1.55874 -2.12132 2.12132 
C -1.55874 2.683901 -0.795609 3 0 3 
z
" style="stroke: #e2e8f0; stroke-opacity: 0.5; stroke-width: 1.5"/>
    </defs>
    <g clip-path="url(#p4d9d6d5054)">
     <use xlink:href="#md442e21eab" x="135.54" y="135.54" style="fill: #e2e8f0; fill-opacity: 0.5; stroke: #e2e8f0; stroke-opacity: 0.5; stroke-width: 1.5"/>
     <use xlink:href="#md442e21eab" x="213.5025" y="135.54" style="fill: #e2e8f0; fill-opacity: 0.5; stroke: #e2e8f0; stroke-opacity: 0.5; stroke-width: 1.5"/>
    </g>
   </g>
   <g id="line2d_2">
    <path d="M 135.54 135.54 
L 153.462499 117.617501 
" clip-path="url(#p4d9d6d5054)" style="fill: none; stroke: #e2e8f0; stroke-opacity: 0.5; stroke-width: 0.6; stroke-linecap: square"/>
    <g clip-path="url(#p4d9d6d5054)">
     <use xlink:href="#md442e21eab" x="135.54" y="135.54" style="fill: #e2e8f0; fill-opacity: 0.5; stroke: #e2e8f0; stroke-opacity: 0.5; stroke-width: 1.5"/>
     <use xlink:href="#md442e21eab" x="153.462499" y="117.617501" style="fill: #e2e8f0; fill-opacity: 0.5; stroke: #e2e8f0; stroke-opacity: 0.5; stroke-width: 1.5"/>
    </g>
   </g>
   <g id="line2d_3">
    <path d="M 135.54 135.54 
L 135.54 111.621716 
" clip-path="url(#p4d9d6d5054)" style="fill: none; stroke: #e2e8f0; stroke-opacity: 0.5; stroke-width: 0.6; stroke-linecap: square"/>
    <g clip-path="url(#p4d9d6d5054)">
     <use xlink:href="#md442e21eab" x="135.54" y="135.54" style="fill: #e2e8f0; fill-opacity: 0.5; stroke: #e2e8f0; stroke-opacity: 0.5; stroke-width: 1.5"/>
     <use xlink:href="#md442e21eab" x="135.54" y="111.621716" style="fill: #e2e8f0; fill-opacity: 0.5; stroke: #e2e8f0; stroke-opacity: 0.5; stroke-width: 1.5"/>
    </g>
   </g>
   <g id="line2d_4">
    <path d="M 135.54 135.54 
L 127.504325 127.504325 
" clip-path="url(#p4d9d6d5054)" style="fill: none; stroke: #e2e8f0; stroke-opacity: 0.5; stroke-width: 0.6; stroke-linecap: square"/>
    <g clip-path="url(#p4d9d6d5054)">
     <use xlink:href="#md442e21eab" x="135.54" y="135.54" style="fill: #e2e8f0; fill-opacity: 0.5; stroke: #e2e8f0; stroke-opacity: 0.5; stroke-width: 1.5"/>
     <use xlink:href="#md442e21eab" x="127.504325" y="127.504325" style="fill: #e2e8f0; fill-opacity: 0.5; stroke: #e2e8f0; stroke-opacity: 0.5; stroke-width: 1.5"/>
    </g>
   </g>
   <g id="line2d_5">
    <path d="M 135.54 135.54 
L 128.856367 135.54 
" clip-path="url(#p4d9d6d5054)" style="fill: none; stroke: #e2e8f0; stroke-opacity: 0.5; stroke-width: 0.6; stroke-linecap: square"/>
    <g clip-path="url(#p4d9d6d5054)">
     <use xlink:href="#md442e21eab" x="135.54" y="135.54" style="fill: #e2e8f0; fill-opacity: 0.5; stroke: #e2e8f0; stroke-opacity: 0.5; stroke-width: 1.5"/>
     <use xlink:href="#md442e21eab" x="128.856367" y="135.54" style="fill: #e2e8f0; fill-opacity: 0.5; stroke: #e2e8f0; stroke-opacity: 0.5; stroke-width: 1.5"/>
    </g>
   </g>
   <g id="line2d_6">
    <path d="M 135.54 135.54 
L 134.782711 136.297289 
" clip-path="url(#p4d9d6d5054)" style="fill: none; stroke: #e2e8f0; stroke-opacity: 0.5; stroke-width: 0.6; stroke-linecap: square"/>
    <g clip-path="url(#p4d9d6d5054)">
     <use xlink:href="#md442e21eab" x="135.54" y="135.54" style="fill: #e2e8f0; fill-opacity: 0.5; stroke: #e2e8f0; stroke-opacity: 0.5; stroke-width: 1.5"/>
     <use xlink:href="#md442e21eab" x="134.782711" y="136.297289" style="fill: #e2e8f0; fill-opacity: 0.5; stroke: #e2e8f0; stroke-opacity: 0.5; stroke-width: 1.5"/>
    </g>
   </g>
   <g id="line2d_7">
    <path d="M 135.54 135.54 
L 135.54 137.20595 
" clip-path="url(#p4d9d6d5054)" style="fill: none; stroke: #e2e8f0; stroke-opacity: 0.5; stroke-width: 0.6; stroke-linecap: square"/>
    <g clip-path="url(#p4d9d6d5054)">
     <use xlink:href="#md442e21eab" x="135.54" y="135.54" style="fill: #e2e8f0; fill-opacity: 0.5; stroke: #e2e8f0; stroke-opacity: 0.5; stroke-width: 1.5"/>
     <use xlink:href="#md442e21eab" x="135.54" y="137.20595" style="fill: #e2e8f0; fill-opacity: 0.5; stroke: #e2e8f0; stroke-opacity: 0.5; stroke-width: 1.5"/>
    </g>
   </g>
   <g id="line2d_8">
    <path d="M 135.54 135.54 
L 143.351293 143.351293 
" clip-path="url(#p4d9d6d5054)" style="fill: none; stroke: #e2e8f0; stroke-opacity: 0.5; stroke-width: 0.6; stroke-linecap: square"/>
    <g clip-path="url(#p4d9d6d5054)">
     <use xlink:href="#md442e21eab" x="135.54" y="135.54" style="fill: #e2e8f0; fill-opacity: 0.5; stroke: #e2e8f0; stroke-opacity: 0.5; stroke-width: 1.5"/>
     <use xlink:href="#md442e21eab" x="143.351293" y="143.351293" style="fill: #e2e8f0; fill-opacity: 0.5; stroke: #e2e8f0; stroke-opacity: 0.5; stroke-width: 1.5"/>
    </g>
   </g>
   <g id="line2d_9">
    <path d="M 135.54 135.54 
L 213.5025 135.54 
" clip-path="url(#p4d9d6d5054)" style="fill: none; stroke: #e2e8f0; stroke-opacity: 0.5; stroke-width: 0.6; stroke-linecap: square"/>
    <g clip-path="url(#p4d9d6d5054)">
     <use xlink:href="#md442e21eab" x="135.54" y="135.54" style="fill: #e2e8f0; fill-opacity: 0.5; stroke: #e2e8f0; stroke-opacity: 0.5; stroke-width: 1.5"/>
     <use xlink:href="#md442e21eab" x="213.5025" y="135.54" style="fill: #e2e8f0; fill-opacity: 0.5; stroke: #e2e8f0; stroke-opacity: 0.5; stroke-width: 1.5"/>
    </g>
   </g>
   <g id="matplotlib.axis_1"/>
   <g id="matplotlib.axis_2"/>
   <g id="line2d_10">
    <path d="M 213.5025 135.54 
L 190.667812 80.412188 
" clip-path="url(#p4d9d6d5054)" style="fill: none; stroke: #064e3b; stroke-opacity: 0.9; stroke-width: 2.5; stroke-linecap: square"/>
    <defs>
     <path id="md94d3d7a15" d="M 0 3 
C 0.795609 3 1.55874 2.683901 2.12132 2.12132 
C 2.683901 1.55874 3 0.795609 3 0 
C 3 -0.795609 2.683901 -1.55874 2.12132 -2.12132 
C 1.55874 -2.683901 0.795609 -3 0 -3 
C -0.795609 -3 -1.55874 -2.683901 -2.12132 -2.12132 
C -2.683901 -1.55874 -3 -0.795609 -3 0 
C -3 0.795609 -2.683901 1.55874 -2.12132 2.12132 
C -1.55874 2.683901 -0.795609 3 0 3 
z
" style="stroke: #064e3b; stroke-opacity: 0.9; stroke-width: 1.5"/>
    </defs>
    <g clip-path="url(#p4d9d6d5054)">
     <use xlink:href="#md94d3d7a15" x="213.5025" y="135.54" style="fill: #064e3b; fill-opacity: 0.9; stroke: #064e3b; stroke-opacity: 0.9; stroke-width: 1.5"/>
     <use xlink:href="#md94d3d7a15" x="190.667812" y="80.412188" style="fill: #064e3b; fill-opacity: 0.9; stroke: #064e3b; stroke-opacity: 0.9; stroke-width: 1.5"/>
    </g>
   </g>
   <g id="line2d_11">
    <path d="M 153.462499 117.617501 
L 135.54 110.193759 
" clip-path="url(#p4d9d6d5054)" style="fill: none; stroke: #059669; stroke-opacity: 0.9; stroke-width: 2.5; stroke-linecap: square"/>
    <defs>
     <path id="m097f6e3a4d" d="M 0 3 
C 0.795609 3 1.55874 2.683901 2.12132 2.12132 
C 2.683901 1.55874 3 0.795609 3 0 
C 3 -0.795609 2.683901 -1.55874 2.12132 -2.12132 
C 1.55874 -2.683901 0.795609 -3 0 -3 
C -0.795609 -3 -1.55874 -2.683901 -2.12132 -2.12132 
C -2.683901 -1.55874 -3 -0.795609 -3 0 
C -3 0.795609 -2.683901 1.55874 -2.12132 2.12132 
C -1.55874 2.683901 -0.795609 3 0 3 
z
" style="stroke: #059669; stroke-opacity: 0.9; stroke-width: 1.5"/>
    </defs>
    <g clip-path="url(#p4d9d6d5054)">
     <use xlink:href="#m097f6e3a4d" x="153.462499" y="117.617501" style="fill: #059669; fill-opacity: 0.9; stroke: #059669; stroke-opacity: 0.9; stroke-width: 1.5"/>
     <use xlink:href="#m097f6e3a4d" x="135.54" y="110.193759" style="fill: #059669; fill-opacity: 0.9; stroke: #059669; stroke-opacity: 0.9; stroke-width: 1.5"/>
    </g>
   </g>
   <g id="line2d_12">
    <path d="M 135.54 111.621716 
L 118.627219 118.627219 
" clip-path="url(#p4d9d6d5054)" style="fill: none; stroke: #059669; stroke-opacity: 0.9; stroke-width: 2.5; stroke-linecap: square"/>
    <g clip-path="url(#p4d9d6d5054)">
     <use xlink:href="#m097f6e3a4d" x="135.54" y="111.621716" style="fill: #059669; fill-opacity: 0.9; stroke: #059669; stroke-opacity: 0.9; stroke-width: 1.5"/>
     <use xlink:href="#m097f6e3a4d" x="118.627219" y="118.627219" style="fill: #059669; fill-opacity: 0.9; stroke: #059669; stroke-opacity: 0.9; stroke-width: 1.5"/>
    </g>
   </g>
   <g id="line2d_13">
    <path d="M 127.504325 127.504325 
L 124.17584 135.54 
" clip-path="url(#p4d9d6d5054)" style="fill: none; stroke: #34d399; stroke-opacity: 0.9; stroke-width: 2.5; stroke-linecap: square"/>
    <defs>
     <path id="mbdd30f71ec" d="M 0 3 
C 0.795609 3 1.55874 2.683901 2.12132 2.12132 
C 2.683901 1.55874 3 0.795609 3 0 
C 3 -0.795609 2.683901 -1.55874 2.12132 -2.12132 
C 1.55874 -2.683901 0.795609 -3 0 -3 
C -0.795609 -3 -1.55874 -2.683901 -2.12132 -2.12132 
C -2.683901 -1.55874 -3 -0.795609 -3 0 
C -3 0.795609 -2.683901 1.55874 -2.12132 2.12132 
C -1.55874 2.683901 -0.795609 3 0 3 
z
" style="stroke: #34d399; stroke-opacity: 0.9; stroke-width: 1.5"/>
    </defs>
    <g clip-path="url(#p4d9d6d5054)">
     <use xlink:href="#mbdd30f71ec" x="127.504325" y="127.504325" style="fill: #34d399; fill-opacity: 0.9; stroke: #34d399; stroke-opacity: 0.9; stroke-width: 1.5"/>
     <use xlink:href="#mbdd30f71ec" x="124.17584" y="135.54" style="fill: #34d399; fill-opacity: 0.9; stroke: #34d399; stroke-opacity: 0.9; stroke-width: 1.5"/>
    </g>
   </g>
   <g id="line2d_14">
    <path d="M 128.856367 135.54 
L 130.813958 140.266042 
" clip-path="url(#p4d9d6d5054)" style="fill: none; stroke: #6ee7b7; stroke-opacity: 0.9; stroke-width: 2.5; stroke-linecap: square"/>
    <defs>
     <path id="m612117f2b1" d="M 0 3 
C 0.795609 3 1.55874 2.683901 2.12132 2.12132 
C 2.683901 1.55874 3 0.795609 3 0 
C 3 -0.795609 2.683901 -1.55874 2.12132 -2.12132 
C 1.55874 -2.683901 0.795609 -3 0 -3 
C -0.795609 -3 -1.55874 -2.683901 -2.12132 -2.12132 
C -2.683901 -1.55874 -3 -0.795609 -3 0 
C -3 0.795609 -2.683901 1.55874 -2.12132 2.12132 
C -1.55874 2.683901 -0.795609 3 0 3 
z
" style="stroke: #6ee7b7; stroke-opacity: 0.9; stroke-width: 1.5"/>
    </defs>
    <g clip-path="url(#p4d9d6d5054)">
     <use xlink:href="#m612117f2b1" x="128.856367" y="135.54" style="fill: #6ee7b7; fill-opacity: 0.9; stroke: #6ee7b7; stroke-opacity: 0.9; stroke-width: 1.5"/>
     <use xlink:href="#m612117f2b1" x="130.813958" y="140.266042" style="fill: #6ee7b7; fill-opacity: 0.9; stroke: #6ee7b7; stroke-opacity: 0.9; stroke-width: 1.5"/>
    </g>
   </g>
   <g id="line2d_15">
    <path d="M 134.782711 136.297289 
L 135.54 136.610968 
" clip-path="url(#p4d9d6d5054)" style="fill: none; stroke: #fca5a5; stroke-opacity: 0.9; stroke-width: 2.5; stroke-linecap: square"/>
    <defs>
     <path id="mb5d83ddfb3" d="M 0 3 
C 0.795609 3 1.55874 2.683901 2.12132 2.12132 
C 2.683901 1.55874 3 0.795609 3 0 
C 3 -0.795609 2.683901 -1.55874 2.12132 -2.12132 
C 1.55874 -2.683901 0.795609 -3 0 -3 
C -0.795609 -3 -1.55874 -2.683901 -2.12132 -2.12132 
C -2.683901 -1.55874 -3 -0.795609 -3 0 
C -3 0.795609 -2.683901 1.55874 -2.12132 2.12132 
C -1.55874 2.683901 -0.795609 3 0 3 
z
" style="stroke: #fca5a5; stroke-opacity: 0.9; stroke-width: 1.5"/>
    </defs>
    <g clip-path="url(#p4d9d6d5054)">
     <use xlink:href="#mb5d83ddfb3" x="134.782711" y="136.297289" style="fill: #fca5a5; fill-opacity: 0.9; stroke: #fca5a5; stroke-opacity: 0.9; stroke-width: 1.5"/>
     <use xlink:href="#mb5d83ddfb3" x="135.54" y="136.610968" style="fill: #fca5a5; fill-opacity: 0.9; stroke: #fca5a5; stroke-opacity: 0.9; stroke-width: 1.5"/>
    </g>
   </g>
   <g id="line2d_16">
    <path d="M 135.54 137.20595 
L 136.718005 136.718005 
" clip-path="url(#p4d9d6d5054)" style="fill: none; stroke: #f87171; stroke-opacity: 0.9; stroke-width: 2.5; stroke-linecap: square"/>
    <defs>
     <path id="mba40e0801d" d="M 0 3 
C 0.795609 3 1.55874 2.683901 2.12132 2.12132 
C 2.683901 1.55874 3 0.795609 3 0 
C 3 -0.795609 2.683901 -1.55874 2.12132 -2.12132 
C 1.55874 -2.683901 0.795609 -3 0 -3 
C -0.795609 -3 -1.55874 -2.683901 -2.12132 -2.12132 
C -2.683901 -1.55874 -3 -0.795609 -3 0 
C -3 0.795609 -2.683901 1.55874 -2.12132 2.12132 
C -1.55874 2.683901 -0.795609 3 0 3 
z
" style="stroke: #f87171; stroke-opacity: 0.9; stroke-width: 1.5"/>
    </defs>
    <g clip-path="url(#p4d9d6d5054)">
     <use xlink:href="#mba40e0801d" x="135.54" y="137.20595" style="fill: #f87171; fill-opacity: 0.9; stroke: #f87171; stroke-opacity: 0.9; stroke-width: 1.5"/>
     <use xlink:href="#mba40e0801d" x="136.718005" y="136.718005" style="fill: #f87171; fill-opacity: 0.9; stroke: #f87171; stroke-opacity: 0.9; stroke-width: 1.5"/>
    </g>
   </g>
   <g id="line2d_17">
    <path d="M 143.351293 143.351293 
L 146.586836 135.54 
" clip-path="url(#p4d9d6d5054)" style="fill: none; stroke: #991b1b; stroke-opacity: 0.9; stroke-width: 2.5; stroke-linecap: square"/>
    <defs>
     <path id="m71857caffa" d="M 0 3 
C 0.795609 3 1.55874 2.683901 2.12132 2.12132 
C 2.683901 1.55874 3 0.795609 3 0 
C 3 -0.795609 2.683901 -1.55874 2.12132 -2.12132 
C 1.55874 -2.683901 0.795609 -3 0 -3 
C -0.795609 -3 -1.55874 -2.683901 -2.12132 -2.12132 
C -2.683901 -1.55874 -3 -0.795609 -3 0 
C -3 0.795609 -2.683901 1.55874 -2.12132 2.12132 
C -1.55874 2.683901 -0.795609 3 0 3 
z
" style="stroke: #991b1b; stroke-opacity: 0.9; stroke-width: 1.5"/>
    </defs>
    <g clip-path="url(#p4d9d6d5054)">
     <use xlink:href="#m71857caffa" x="143.351293" y="143.351293" style="fill: #991b1b; fill-opacity: 0.9; stroke: #991b1b; stroke-opacity: 0.9; stroke-width: 1.5"/>
     <use xlink:href="#m71857caffa" x="146.586836" y="135.54" style="fill: #991b1b; fill-opacity: 0.9; stroke: #991b1b; stroke-opacity: 0.9; stroke-width: 1.5"/>
    </g>
   </g>
   <g id="line2d_18"/>
   <g id="line2d_19"/>
   <g id="text_1">
    <!-- 电子/半导体 -->
    <g style="fill: #1e293b" transform="translate(203.822934 109.344031) rotate(-22.5) scale(0.07 -0.07)">
     <defs>
      <path id="NotoSansSC-Thin-7535" d="M 1030 2982 
L 5325 2982 
L 5325 2790 
L 1030 2790 
L 1030 2982 
z
M 3040 5331 
L 3226 5331 
L 3226 326 
Q 3226 154 3267 61 
Q 3309 -32 3417 -70 
Q 3526 -109 3731 -109 
Q 3795 -109 3958 -109 
Q 4122 -109 4330 -109 
Q 4538 -109 4749 -109 
Q 4960 -109 5136 -109 
Q 5312 -109 5395 -109 
Q 5587 -109 5686 -9 
Q 5786 90 5824 339 
Q 5862 589 5882 1037 
Q 5926 1005 5980 979 
Q 6035 954 6080 941 
Q 6054 474 6000 202 
Q 5946 -70 5805 -185 
Q 5664 -301 5370 -301 
Q 5331 -301 5168 -301 
Q 5005 -301 4784 -301 
Q 4563 -301 4342 -301 
Q 4122 -301 3958 -301 
Q 3795 -301 3757 -301 
Q 3482 -301 3325 -249 
Q 3168 -198 3104 -57 
Q 3040 83 3040 339 
L 3040 5331 
z
M 992 4378 
L 5459 4378 
L 5459 1350 
L 992 1350 
L 992 1536 
L 5267 1536 
L 5267 4192 
L 992 4192 
L 992 4378 
z
M 902 4378 
L 1107 4378 
L 1107 934 
L 902 934 
L 902 4378 
z
" transform="scale(0.015625)"/>
      <path id="NotoSansSC-Thin-5b50" d="M 358 2400 
L 6067 2400 
L 6067 2208 
L 358 2208 
L 358 2400 
z
M 1005 4819 
L 5325 4819 
L 5325 4627 
L 1005 4627 
L 1005 4819 
z
M 5248 4819 
L 5293 4819 
L 5338 4832 
L 5478 4730 
Q 5197 4454 4813 4176 
Q 4429 3898 4019 3654 
Q 3610 3411 3251 3238 
Q 3238 3264 3212 3286 
Q 3187 3309 3164 3331 
Q 3142 3354 3117 3366 
Q 3482 3533 3882 3769 
Q 4282 4006 4643 4268 
Q 5005 4531 5248 4774 
L 5248 4819 
z
M 3117 3366 
L 3309 3366 
L 3309 -96 
Q 3309 -256 3254 -323 
Q 3200 -390 3059 -416 
Q 2931 -442 2636 -448 
Q 2342 -454 1856 -454 
Q 1850 -429 1834 -397 
Q 1818 -365 1805 -326 
Q 1792 -288 1773 -256 
Q 2067 -262 2307 -265 
Q 2547 -269 2713 -265 
Q 2880 -262 2950 -262 
Q 3046 -250 3081 -218 
Q 3117 -186 3117 -102 
L 3117 3366 
z
" transform="scale(0.015625)"/>
      <path id="NotoSansSC-Thin-2f" d="M 58 -1126 
L 2298 5005 
L 2515 5005 
L 282 -1126 
L 58 -1126 
z
" transform="scale(0.015625)"/>
      <path id="NotoSansSC-Thin-534a" d="M 1056 5037 
L 1216 5114 
Q 1382 4883 1545 4617 
Q 1709 4352 1843 4102 
Q 1978 3853 2048 3661 
L 1882 3571 
Q 1811 3763 1680 4019 
Q 1549 4275 1385 4544 
Q 1222 4813 1056 5037 
z
M 5165 5120 
L 5350 5024 
Q 5216 4787 5053 4515 
Q 4890 4243 4723 3987 
Q 4557 3731 4403 3533 
L 4256 3616 
Q 4410 3808 4576 4073 
Q 4742 4339 4899 4617 
Q 5056 4896 5165 5120 
z
M 819 3174 
L 5619 3174 
L 5619 2989 
L 819 2989 
L 819 3174 
z
M 378 1690 
L 6029 1690 
L 6029 1498 
L 378 1498 
L 378 1690 
z
M 3085 5318 
L 3277 5318 
L 3277 -435 
L 3085 -435 
L 3085 5318 
z
" transform="scale(0.015625)"/>
      <path id="NotoSansSC-Thin-5bfc" d="M 429 1741 
L 6022 1741 
L 6022 1549 
L 429 1549 
L 429 1741 
z
M 4339 2368 
L 4531 2368 
L 4531 -90 
Q 4531 -218 4486 -282 
Q 4442 -346 4320 -371 
Q 4205 -397 3936 -403 
Q 3667 -410 3187 -410 
Q 3181 -371 3155 -323 
Q 3130 -275 3104 -230 
Q 3379 -237 3600 -237 
Q 3821 -237 3974 -233 
Q 4128 -230 4186 -230 
Q 4275 -224 4307 -195 
Q 4339 -166 4339 -96 
L 4339 2368 
z
M 1491 1344 
L 1638 1440 
Q 1837 1254 2032 1027 
Q 2227 800 2387 582 
Q 2547 365 2637 192 
L 2477 83 
Q 2394 262 2234 483 
Q 2074 704 1882 931 
Q 1690 1158 1491 1344 
z
M 954 4973 
L 1146 4973 
L 1146 3085 
Q 1146 2950 1210 2873 
Q 1274 2797 1456 2765 
Q 1638 2733 2003 2733 
Q 2093 2733 2307 2733 
Q 2522 2733 2810 2733 
Q 3098 2733 3418 2733 
Q 3738 2733 4038 2733 
Q 4339 2733 4572 2733 
Q 4806 2733 4928 2733 
Q 5203 2733 5337 2787 
Q 5472 2842 5526 3002 
Q 5581 3162 5600 3462 
Q 5651 3437 5705 3414 
Q 5760 3392 5805 3379 
Q 5779 3053 5705 2870 
Q 5632 2688 5453 2617 
Q 5274 2547 4922 2547 
Q 4870 2547 4652 2547 
Q 4435 2547 4128 2547 
Q 3821 2547 3481 2547 
Q 3142 2547 2835 2547 
Q 2528 2547 2317 2547 
Q 2106 2547 2061 2547 
Q 1632 2547 1389 2588 
Q 1146 2630 1050 2745 
Q 954 2861 954 3091 
L 954 4973 
z
M 1043 3859 
L 5088 3859 
L 5088 4787 
L 954 4787 
L 954 4973 
L 5274 4973 
L 5274 3667 
L 1043 3667 
L 1043 3859 
z
" transform="scale(0.015625)"/>
      <path id="NotoSansSC-Thin-4f53" d="M 1792 5293 
L 1971 5248 
Q 1792 4710 1552 4201 
Q 1312 3693 1033 3245 
Q 755 2797 448 2438 
Q 435 2458 409 2486 
Q 384 2515 355 2544 
Q 326 2573 301 2592 
Q 602 2925 880 3360 
Q 1158 3795 1388 4288 
Q 1619 4781 1792 5293 
z
M 1152 3763 
L 1325 3942 
L 1338 3936 
L 1338 -435 
L 1152 -435 
L 1152 3763 
z
M 3808 5306 
L 3994 5306 
L 3994 -422 
L 3808 -422 
L 3808 5306 
z
M 1818 3872 
L 6061 3872 
L 6061 3680 
L 1818 3680 
L 1818 3872 
z
M 2541 1043 
L 5203 1043 
L 5203 851 
L 2541 851 
L 2541 1043 
z
M 4186 3808 
Q 4384 3206 4688 2630 
Q 4992 2054 5366 1584 
Q 5741 1114 6138 838 
Q 6099 813 6054 768 
Q 6010 723 5978 685 
Q 5581 986 5206 1469 
Q 4832 1952 4521 2541 
Q 4211 3130 4006 3750 
L 4186 3808 
z
M 3642 3802 
L 3802 3744 
Q 3590 3123 3267 2534 
Q 2944 1946 2566 1462 
Q 2189 979 1798 666 
Q 1786 691 1763 720 
Q 1741 749 1712 774 
Q 1683 800 1658 813 
Q 2048 1094 2422 1568 
Q 2797 2042 3117 2621 
Q 3437 3200 3642 3802 
z
" transform="scale(0.015625)"/>
     </defs>
     <use xlink:href="#NotoSansSC-Thin-7535"/>
     <use xlink:href="#NotoSansSC-Thin-5b50" transform="translate(99.999985 0)"/>
     <use xlink:href="#NotoSansSC-Thin-2f" transform="translate(199.999969 0)"/>
     <use xlink:href="#NotoSansSC-Thin-534a" transform="translate(239.59996 0)"/>
     <use xlink:href="#NotoSansSC-Thin-5bfc" transform="translate(339.599945 0)"/>
     <use xlink:href="#NotoSansSC-Thin-4f53" transform="translate(439.59993 0)"/>
    </g>
   </g>
   <g id="text_2">
    <!-- 388亿 -->
    <g style="fill: #ffffff" transform="translate(166.826236 120.921828) scale(0.065 -0.065)">
     <defs>
      <path id="NotoSansSC-Thin-33" d="M 1619 -83 
Q 1261 -83 998 13 
Q 736 109 544 256 
Q 352 403 211 550 
L 358 717 
Q 563 499 857 313 
Q 1152 128 1632 128 
Q 1952 128 2198 262 
Q 2445 397 2585 640 
Q 2726 883 2726 1210 
Q 2726 1542 2560 1795 
Q 2394 2048 2038 2189 
Q 1683 2330 1114 2330 
L 1114 2554 
Q 1651 2554 1964 2698 
Q 2278 2842 2416 3088 
Q 2554 3334 2554 3629 
Q 2554 4026 2298 4272 
Q 2042 4518 1606 4518 
Q 1293 4518 1017 4374 
Q 742 4230 557 4026 
L 410 4192 
Q 634 4410 925 4570 
Q 1216 4730 1606 4730 
Q 1939 4730 2211 4598 
Q 2483 4467 2643 4224 
Q 2803 3981 2803 3642 
Q 2803 3168 2550 2877 
Q 2298 2586 1926 2464 
L 1926 2438 
Q 2208 2381 2445 2221 
Q 2682 2061 2826 1808 
Q 2970 1555 2970 1222 
Q 2970 826 2790 531 
Q 2611 237 2307 77 
Q 2003 -83 1619 -83 
z
" transform="scale(0.015625)"/>
      <path id="NotoSansSC-Thin-38" d="M 1696 -83 
Q 1286 -83 966 80 
Q 646 243 464 521 
Q 282 800 282 1152 
Q 282 1478 422 1744 
Q 563 2010 774 2202 
Q 986 2394 1197 2509 
L 1197 2534 
Q 954 2694 752 2953 
Q 550 3213 550 3578 
Q 550 3910 704 4163 
Q 858 4416 1117 4560 
Q 1376 4704 1696 4704 
Q 2080 4704 2345 4544 
Q 2611 4384 2752 4112 
Q 2893 3840 2893 3494 
Q 2893 3238 2784 3008 
Q 2675 2778 2528 2602 
Q 2381 2426 2253 2317 
L 2253 2285 
Q 2445 2170 2627 2010 
Q 2810 1850 2925 1626 
Q 3040 1402 3040 1082 
Q 3040 762 2870 496 
Q 2701 230 2400 73 
Q 2099 -83 1696 -83 
z
M 2035 2387 
Q 2336 2630 2499 2905 
Q 2662 3181 2662 3494 
Q 2662 3763 2550 3990 
Q 2438 4218 2220 4358 
Q 2003 4499 1696 4499 
Q 1293 4499 1040 4236 
Q 787 3974 787 3578 
Q 787 3238 972 3017 
Q 1158 2797 1446 2653 
Q 1734 2509 2035 2387 
z
M 1696 128 
Q 2035 128 2281 256 
Q 2528 384 2662 601 
Q 2797 819 2797 1082 
Q 2797 1370 2675 1574 
Q 2554 1779 2352 1923 
Q 2150 2067 1894 2182 
Q 1638 2298 1370 2400 
Q 998 2189 758 1875 
Q 518 1562 518 1152 
Q 518 870 668 636 
Q 819 403 1088 265 
Q 1357 128 1696 128 
z
" transform="scale(0.015625)"/>
      <path id="NotoSansSC-Thin-4ebf" d="M 2515 4525 
L 5568 4525 
L 5568 4333 
L 2515 4333 
L 2515 4525 
z
M 5555 4525 
L 5581 4525 
L 5632 4538 
L 5766 4474 
Q 5760 4461 5744 4448 
Q 5728 4435 5715 4422 
Q 4986 3616 4470 3024 
Q 3955 2432 3612 2019 
Q 3270 1606 3072 1337 
Q 2874 1069 2778 902 
Q 2682 736 2653 637 
Q 2624 538 2624 467 
Q 2624 288 2803 208 
Q 2982 128 3245 128 
L 5229 122 
Q 5408 122 5497 230 
Q 5587 339 5622 640 
Q 5658 941 5677 1510 
Q 5709 1485 5769 1469 
Q 5830 1453 5869 1446 
Q 5850 960 5814 659 
Q 5779 358 5715 201 
Q 5651 45 5536 -9 
Q 5421 -64 5235 -64 
L 3283 -64 
Q 2854 -64 2643 70 
Q 2432 205 2432 461 
Q 2432 544 2457 653 
Q 2483 762 2579 934 
Q 2675 1107 2873 1388 
Q 3072 1670 3414 2089 
Q 3757 2509 4281 3107 
Q 4806 3706 5555 4525 
z
M 2003 5306 
L 2182 5254 
Q 1971 4717 1692 4205 
Q 1414 3693 1091 3248 
Q 768 2803 422 2451 
Q 410 2470 384 2499 
Q 358 2528 332 2560 
Q 307 2592 282 2605 
Q 627 2938 944 3370 
Q 1261 3802 1533 4298 
Q 1805 4794 2003 5306 
z
M 1370 3930 
L 1542 4102 
L 1555 4096 
L 1555 -429 
L 1370 -429 
L 1370 3930 
z
" transform="scale(0.015625)"/>
     </defs>
     <use xlink:href="#NotoSansSC-Thin-33"/>
     <use xlink:href="#NotoSansSC-Thin-38" transform="translate(52.099991 0)"/>
     <use xlink:href="#NotoSansSC-Thin-38" transform="translate(104.199982 0)"/>
     <use xlink:href="#NotoSansSC-Thin-4ebf" transform="translate(156.299973 0)"/>
    </g>
   </g>
   <g id="text_3">
    <!-- 通信 -->
    <g style="fill: #1e293b" transform="translate(149.7131 106.363381) rotate(-67.5) scale(0.07 -0.07)">
     <defs>
      <path id="NotoSansSC-Thin-901a" d="M 1523 2963 
L 1523 544 
L 1338 544 
L 1338 2771 
L 339 2771 
L 339 2963 
L 1523 2963 
z
M 538 4941 
L 678 5037 
Q 877 4877 1078 4681 
Q 1280 4486 1456 4297 
Q 1632 4109 1747 3962 
L 1594 3846 
Q 1485 3994 1309 4186 
Q 1133 4378 931 4576 
Q 730 4774 538 4941 
z
M 2982 4410 
L 3104 4544 
Q 3424 4429 3773 4281 
Q 4122 4134 4438 3984 
Q 4755 3834 4966 3699 
L 4845 3546 
Q 4640 3674 4326 3830 
Q 4013 3987 3661 4140 
Q 3309 4294 2982 4410 
z
M 2342 3706 
L 5702 3706 
L 5702 3520 
L 2528 3520 
L 2528 390 
L 2342 390 
L 2342 3706 
z
M 5606 3706 
L 5798 3706 
L 5798 685 
Q 5798 563 5760 508 
Q 5722 454 5626 422 
Q 5523 397 5318 390 
Q 5114 384 4755 384 
Q 4749 429 4726 480 
Q 4704 531 4678 570 
Q 4979 563 5200 563 
Q 5421 563 5491 563 
Q 5562 570 5584 595 
Q 5606 621 5606 685 
L 5606 3706 
z
M 2291 5050 
L 5626 5050 
L 5626 4864 
L 2291 4864 
L 2291 5050 
z
M 2438 2739 
L 5722 2739 
L 5722 2554 
L 2438 2554 
L 2438 2739 
z
M 2438 1754 
L 5722 1754 
L 5722 1562 
L 2438 1562 
L 2438 1754 
z
M 3949 3661 
L 4134 3661 
L 4134 416 
L 3949 416 
L 3949 3661 
z
M 5581 5050 
L 5626 5050 
L 5670 5062 
L 5811 4966 
Q 5510 4672 5065 4409 
Q 4621 4147 4192 3981 
Q 4166 4013 4131 4054 
Q 4096 4096 4064 4122 
Q 4346 4224 4630 4368 
Q 4915 4512 5164 4678 
Q 5414 4845 5581 5005 
L 5581 5050 
z
M 1408 646 
Q 1568 646 1715 528 
Q 1862 410 2144 218 
Q 2477 13 2880 -48 
Q 3283 -109 3827 -109 
Q 4134 -109 4444 -102 
Q 4755 -96 5056 -83 
Q 5357 -70 5638 -57 
Q 5920 -45 6163 -26 
Q 6150 -51 6137 -86 
Q 6125 -122 6115 -160 
Q 6106 -198 6099 -230 
Q 5952 -237 5680 -249 
Q 5408 -262 5078 -268 
Q 4749 -275 4422 -281 
Q 4096 -288 3834 -288 
Q 3245 -288 2816 -211 
Q 2387 -134 2048 83 
Q 1856 205 1689 342 
Q 1523 480 1408 480 
Q 1293 480 1145 371 
Q 998 262 832 76 
Q 666 -109 480 -346 
L 339 -205 
Q 646 154 912 400 
Q 1178 646 1408 646 
z
" transform="scale(0.015625)"/>
      <path id="NotoSansSC-Thin-4fe1" d="M 2438 3322 
L 5440 3322 
L 5440 3130 
L 2438 3130 
L 2438 3322 
z
M 2438 2438 
L 5440 2438 
L 5440 2253 
L 2438 2253 
L 2438 2438 
z
M 2458 32 
L 5402 32 
L 5402 -154 
L 2458 -154 
L 2458 32 
z
M 1965 4198 
L 5978 4198 
L 5978 4006 
L 1965 4006 
L 1965 4198 
z
M 2368 1523 
L 5491 1523 
L 5491 -442 
L 5299 -442 
L 5299 1338 
L 2554 1338 
L 2554 -461 
L 2368 -461 
L 2368 1523 
z
M 3475 5229 
L 3661 5299 
Q 3802 5107 3933 4880 
Q 4064 4653 4128 4486 
L 3936 4397 
Q 3872 4563 3741 4796 
Q 3610 5030 3475 5229 
z
M 1773 5293 
L 1952 5248 
Q 1766 4710 1523 4201 
Q 1280 3693 995 3245 
Q 710 2797 403 2438 
Q 390 2458 364 2486 
Q 339 2515 310 2544 
Q 282 2573 256 2592 
Q 563 2925 844 3360 
Q 1126 3795 1363 4288 
Q 1600 4781 1773 5293 
z
M 1152 3731 
L 1325 3910 
L 1338 3904 
L 1338 -467 
L 1152 -467 
L 1152 3731 
z
" transform="scale(0.015625)"/>
     </defs>
     <use xlink:href="#NotoSansSC-Thin-901a"/>
     <use xlink:href="#NotoSansSC-Thin-4fe1" transform="translate(99.999985 0)"/>
    </g>
   </g>
   <g id="text_4">
    <!-- 123亿 -->
    <g style="fill: #ffffff" transform="translate(132.545632 124.451774) scale(0.065 -0.065)">
     <defs>
      <path id="NotoSansSC-Thin-31" d="M 608 0 
L 608 211 
L 1677 211 
L 1677 4211 
L 864 4211 
L 864 4378 
Q 1133 4422 1344 4492 
Q 1555 4563 1702 4646 
L 1901 4646 
L 1901 211 
L 2899 211 
L 2899 0 
L 608 0 
z
" transform="scale(0.015625)"/>
      <path id="NotoSansSC-Thin-32" d="M 294 0 
L 294 147 
Q 1120 858 1613 1434 
Q 2106 2010 2323 2499 
Q 2541 2989 2541 3424 
Q 2541 3725 2435 3974 
Q 2330 4224 2106 4371 
Q 1882 4518 1523 4518 
Q 1210 4518 931 4352 
Q 653 4186 442 3923 
L 282 4070 
Q 525 4346 829 4538 
Q 1133 4730 1542 4730 
Q 1939 4730 2214 4566 
Q 2490 4403 2637 4112 
Q 2784 3821 2784 3424 
Q 2784 2918 2537 2406 
Q 2291 1894 1820 1347 
Q 1350 800 678 179 
Q 870 192 1062 201 
Q 1254 211 1440 211 
L 3014 211 
L 3014 0 
L 294 0 
z
" transform="scale(0.015625)"/>
     </defs>
     <use xlink:href="#NotoSansSC-Thin-31"/>
     <use xlink:href="#NotoSansSC-Thin-32" transform="translate(52.099991 0)"/>
     <use xlink:href="#NotoSansSC-Thin-33" transform="translate(104.199982 0)"/>
     <use xlink:href="#NotoSansSC-Thin-4ebf" transform="translate(156.299973 0)"/>
    </g>
   </g>
   <g id="text_5">
    <!-- 计算机 -->
    <g style="fill: #1e293b" transform="translate(115.216396 91.51475) rotate(-292.5) scale(0.07 -0.07)">
     <defs>
      <path id="NotoSansSC-Thin-8ba1" d="M 1018 5037 
L 1152 5158 
Q 1331 5011 1516 4835 
Q 1702 4659 1862 4489 
Q 2022 4320 2118 4186 
L 1990 4032 
Q 1888 4166 1728 4342 
Q 1568 4518 1382 4704 
Q 1197 4890 1018 5037 
z
M 1299 -230 
L 1293 -32 
L 1402 128 
L 2554 890 
Q 2566 870 2579 841 
Q 2592 813 2608 787 
Q 2624 762 2630 742 
Q 2208 454 1958 278 
Q 1709 102 1577 6 
Q 1446 -90 1388 -141 
Q 1331 -192 1299 -230 
z
M 346 3270 
L 1542 3270 
L 1542 3078 
L 346 3078 
L 346 3270 
z
M 2413 3085 
L 6086 3085 
L 6086 2899 
L 2413 2899 
L 2413 3085 
z
M 4122 5306 
L 4307 5306 
L 4307 -448 
L 4122 -448 
L 4122 5306 
z
M 1299 -230 
Q 1286 -205 1264 -173 
Q 1242 -141 1216 -112 
Q 1190 -83 1165 -64 
Q 1235 -19 1340 99 
Q 1446 218 1446 416 
L 1446 3270 
L 1632 3270 
L 1632 128 
Q 1632 128 1597 99 
Q 1562 70 1514 28 
Q 1466 -13 1418 -64 
Q 1370 -115 1334 -156 
Q 1299 -198 1299 -230 
z
" transform="scale(0.015625)"/>
      <path id="NotoSansSC-Thin-7b97" d="M 410 864 
L 6029 864 
L 6029 678 
L 410 678 
L 410 864 
z
M 1402 3021 
L 1402 2502 
L 5107 2502 
L 5107 3021 
L 1402 3021 
z
M 1402 2317 
L 1402 1786 
L 5107 1786 
L 5107 2317 
L 1402 2317 
z
M 1402 3712 
L 1402 3206 
L 5107 3206 
L 5107 3712 
L 1402 3712 
z
M 1210 3904 
L 5293 3904 
L 5293 1600 
L 1210 1600 
L 1210 3904 
z
M 4262 1645 
L 4448 1645 
L 4448 -442 
L 4262 -442 
L 4262 1645 
z
M 1005 4781 
L 3123 4781 
L 3123 4595 
L 1005 4595 
L 1005 4781 
z
M 3398 4781 
L 5946 4781 
L 5946 4595 
L 3398 4595 
L 3398 4781 
z
M 1222 5325 
L 1408 5280 
Q 1242 4870 995 4489 
Q 749 4109 480 3840 
Q 467 3853 435 3875 
Q 403 3898 371 3920 
Q 339 3942 314 3955 
Q 595 4218 835 4576 
Q 1075 4934 1222 5325 
z
M 3654 5325 
L 3840 5286 
Q 3699 4883 3459 4531 
Q 3219 4179 2944 3936 
Q 2931 3955 2899 3977 
Q 2867 4000 2835 4022 
Q 2803 4045 2778 4058 
Q 3059 4294 3289 4624 
Q 3520 4954 3654 5325 
z
M 1568 4621 
L 1741 4678 
Q 1850 4531 1965 4342 
Q 2080 4154 2125 4019 
L 1958 3949 
Q 1901 4083 1795 4275 
Q 1690 4467 1568 4621 
z
M 4134 4653 
L 4294 4736 
Q 4454 4589 4611 4390 
Q 4768 4192 4845 4038 
L 4685 3949 
Q 4614 4096 4457 4297 
Q 4301 4499 4134 4653 
z
M 2150 1651 
L 2349 1651 
L 2349 1229 
Q 2349 1043 2301 825 
Q 2253 608 2086 384 
Q 1920 160 1581 -57 
Q 1242 -275 653 -461 
Q 627 -429 595 -381 
Q 563 -333 531 -307 
Q 1101 -141 1427 54 
Q 1754 250 1907 461 
Q 2061 672 2105 870 
Q 2150 1069 2150 1235 
L 2150 1651 
z
" transform="scale(0.015625)"/>
      <path id="NotoSansSC-Thin-673a" d="M 3360 4954 
L 5171 4954 
L 5171 4768 
L 3360 4768 
L 3360 4954 
z
M 3251 4954 
L 3437 4954 
L 3437 2918 
Q 3437 2528 3401 2086 
Q 3366 1645 3264 1197 
Q 3162 749 2957 326 
Q 2752 -96 2413 -461 
Q 2400 -442 2374 -419 
Q 2349 -397 2320 -371 
Q 2291 -346 2266 -333 
Q 2598 19 2796 425 
Q 2995 832 3091 1261 
Q 3187 1690 3219 2112 
Q 3251 2534 3251 2918 
L 3251 4954 
z
M 5050 4954 
L 5242 4954 
L 5242 269 
Q 5242 83 5254 -29 
Q 5267 -141 5299 -166 
Q 5376 -205 5459 -205 
Q 5510 -205 5584 -205 
Q 5658 -205 5722 -205 
Q 5850 -205 5907 -147 
Q 5939 -115 5961 -64 
Q 5984 -13 5990 109 
Q 6003 224 6009 486 
Q 6016 749 6022 1107 
Q 6061 1062 6112 1036 
Q 6163 1011 6208 998 
Q 6208 813 6201 605 
Q 6195 397 6188 227 
Q 6182 58 6176 -13 
Q 6138 -250 6029 -326 
Q 5965 -358 5901 -374 
Q 5837 -390 5741 -390 
Q 5690 -390 5597 -390 
Q 5504 -390 5453 -390 
Q 5382 -390 5305 -374 
Q 5229 -358 5165 -314 
Q 5120 -282 5094 -227 
Q 5069 -173 5059 -35 
Q 5050 102 5050 371 
L 5050 4954 
z
M 378 3891 
L 2810 3891 
L 2810 3699 
L 378 3699 
L 378 3891 
z
M 1555 5318 
L 1747 5318 
L 1747 -435 
L 1555 -435 
L 1555 5318 
z
M 1555 3814 
L 1728 3763 
Q 1632 3373 1481 2957 
Q 1331 2541 1145 2144 
Q 960 1747 761 1408 
Q 563 1069 365 838 
Q 339 870 297 915 
Q 256 960 224 986 
Q 416 1210 614 1530 
Q 813 1850 992 2230 
Q 1171 2611 1318 3017 
Q 1466 3424 1555 3814 
z
M 1715 2970 
Q 1786 2906 1939 2752 
Q 2093 2598 2269 2416 
Q 2445 2234 2592 2077 
Q 2739 1920 2797 1850 
L 2643 1683 
Q 2573 1773 2432 1936 
Q 2291 2099 2124 2284 
Q 1958 2470 1811 2627 
Q 1664 2784 1581 2861 
L 1715 2970 
z
" transform="scale(0.015625)"/>
     </defs>
     <use xlink:href="#NotoSansSC-Thin-8ba1"/>
     <use xlink:href="#NotoSansSC-Thin-7b97" transform="translate(99.999985 0)"/>
     <use xlink:href="#NotoSansSC-Thin-673a" transform="translate(199.999969 0)"/>
    </g>
   </g>
   <g id="text_6">
    <!-- 116亿 -->
    <g style="fill: #ffffff" transform="translate(122.176637 125.177367) scale(0.065 -0.065)">
     <defs>
      <path id="NotoSansSC-Thin-36" d="M 1837 -83 
Q 1498 -83 1232 67 
Q 966 218 780 509 
Q 595 800 496 1216 
Q 397 1632 397 2170 
Q 397 2886 528 3379 
Q 659 3872 889 4169 
Q 1120 4467 1414 4598 
Q 1709 4730 2029 4730 
Q 2330 4730 2550 4614 
Q 2771 4499 2944 4307 
L 2790 4147 
Q 2643 4333 2444 4425 
Q 2246 4518 2022 4518 
Q 1651 4518 1334 4297 
Q 1018 4077 826 3561 
Q 634 3046 634 2170 
Q 634 1581 762 1120 
Q 890 659 1158 393 
Q 1427 128 1850 128 
Q 2125 128 2336 297 
Q 2547 467 2672 752 
Q 2797 1037 2797 1382 
Q 2797 1741 2694 2025 
Q 2592 2310 2368 2476 
Q 2144 2643 1779 2643 
Q 1523 2643 1209 2470 
Q 896 2298 602 1888 
L 602 2176 
Q 768 2381 957 2531 
Q 1146 2682 1360 2762 
Q 1574 2842 1792 2842 
Q 2189 2842 2467 2675 
Q 2746 2509 2893 2185 
Q 3040 1862 3040 1382 
Q 3040 960 2873 630 
Q 2707 301 2435 109 
Q 2163 -83 1837 -83 
z
" transform="scale(0.015625)"/>
     </defs>
     <use xlink:href="#NotoSansSC-Thin-31"/>
     <use xlink:href="#NotoSansSC-Thin-31" transform="translate(52.099991 0)"/>
     <use xlink:href="#NotoSansSC-Thin-36" transform="translate(104.199982 0)"/>
     <use xlink:href="#NotoSansSC-Thin-4ebf" transform="translate(156.299973 0)"/>
    </g>
   </g>
   <g id="text_7">
    <!-- 机械设备 -->
    <g style="fill: #1e293b" transform="translate(98.403409 122.245269) rotate(-337.5) scale(0.07 -0.07)">
     <defs>
      <path id="NotoSansSC-Thin-68b0" d="M 2355 4045 
L 6029 4045 
L 6029 3859 
L 2355 3859 
L 2355 4045 
z
M 2381 2240 
L 4326 2240 
L 4326 2054 
L 2381 2054 
L 2381 2240 
z
M 3686 3430 
L 3878 3430 
L 3878 160 
L 3686 160 
L 3686 3430 
z
M 4915 5043 
L 5037 5146 
Q 5242 5005 5440 4816 
Q 5638 4627 5741 4480 
L 5606 4358 
Q 5504 4512 5309 4707 
Q 5114 4902 4915 5043 
z
M 4358 5312 
L 4557 5312 
Q 4563 4333 4643 3481 
Q 4723 2630 4851 1945 
Q 4979 1261 5132 768 
Q 5286 275 5443 12 
Q 5600 -250 5734 -250 
Q 5824 -250 5872 3 
Q 5920 256 5946 794 
Q 5978 762 6029 739 
Q 6080 717 6118 704 
Q 6099 288 6057 35 
Q 6016 -218 5936 -330 
Q 5856 -442 5722 -442 
Q 5555 -442 5395 -237 
Q 5235 -32 5088 345 
Q 4941 723 4816 1244 
Q 4691 1766 4592 2409 
Q 4493 3053 4435 3785 
Q 4378 4518 4358 5312 
z
M 2835 3430 
L 3027 3430 
L 3027 2336 
Q 3027 1907 2976 1468 
Q 2925 1030 2761 620 
Q 2598 211 2253 -147 
Q 2227 -115 2182 -83 
Q 2138 -51 2106 -26 
Q 2438 320 2592 713 
Q 2746 1107 2790 1523 
Q 2835 1939 2835 2336 
L 2835 3430 
z
M 5773 3226 
L 5952 3187 
Q 5651 1997 5123 1097 
Q 4595 198 3808 -410 
Q 3795 -390 3766 -368 
Q 3738 -346 3709 -320 
Q 3680 -294 3654 -282 
Q 4448 288 4969 1187 
Q 5491 2086 5773 3226 
z
M 474 3866 
L 2086 3866 
L 2086 3674 
L 474 3674 
L 474 3866 
z
M 1267 5318 
L 1459 5318 
L 1459 -435 
L 1267 -435 
L 1267 5318 
z
M 1280 3814 
L 1453 3770 
Q 1382 3398 1270 2985 
Q 1158 2573 1024 2173 
Q 890 1773 739 1427 
Q 589 1082 435 845 
Q 422 870 396 896 
Q 371 922 345 947 
Q 320 973 294 986 
Q 442 1210 589 1536 
Q 736 1862 870 2246 
Q 1005 2630 1110 3033 
Q 1216 3437 1280 3814 
z
M 1440 3430 
Q 1478 3373 1564 3222 
Q 1651 3072 1753 2893 
Q 1856 2714 1939 2560 
Q 2022 2406 2061 2336 
L 1914 2170 
Q 1875 2266 1792 2429 
Q 1709 2592 1616 2777 
Q 1523 2963 1440 3116 
Q 1357 3270 1312 3341 
L 1440 3430 
z
" transform="scale(0.015625)"/>
      <path id="NotoSansSC-Thin-8bbe" d="M 915 5037 
L 1050 5158 
Q 1222 5018 1401 4848 
Q 1581 4678 1734 4515 
Q 1888 4352 1984 4224 
L 1850 4070 
Q 1754 4205 1600 4371 
Q 1446 4538 1267 4714 
Q 1088 4890 915 5037 
z
M 1184 -282 
L 1178 -90 
L 1293 64 
L 2426 742 
Q 2438 704 2457 659 
Q 2477 614 2490 582 
Q 2080 326 1833 169 
Q 1587 13 1459 -70 
Q 1331 -154 1273 -198 
Q 1216 -243 1184 -282 
z
M 333 3270 
L 1446 3270 
L 1446 3078 
L 333 3078 
L 333 3270 
z
M 3360 5056 
L 4966 5056 
L 4966 4870 
L 3360 4870 
L 3360 5056 
z
M 2477 2438 
L 5536 2438 
L 5536 2253 
L 2477 2253 
L 2477 2438 
z
M 5466 2438 
L 5510 2438 
L 5549 2451 
L 5670 2387 
Q 5472 1811 5133 1347 
Q 4794 883 4362 531 
Q 3930 179 3446 -70 
Q 2963 -320 2483 -467 
Q 2470 -429 2435 -377 
Q 2400 -326 2368 -294 
Q 2835 -160 3305 77 
Q 3776 314 4198 650 
Q 4621 986 4950 1424 
Q 5280 1862 5466 2394 
L 5466 2438 
z
M 2931 2349 
Q 3187 1683 3638 1145 
Q 4090 608 4710 237 
Q 5331 -134 6093 -307 
Q 6067 -326 6041 -358 
Q 6016 -390 5993 -419 
Q 5971 -448 5958 -480 
Q 4819 -198 3990 522 
Q 3162 1242 2765 2285 
L 2931 2349 
z
M 3283 5056 
L 3469 5056 
L 3469 4333 
Q 3469 4058 3379 3754 
Q 3290 3450 3046 3165 
Q 2803 2880 2336 2650 
Q 2323 2675 2300 2700 
Q 2278 2726 2256 2755 
Q 2234 2784 2214 2797 
Q 2656 3014 2886 3273 
Q 3117 3533 3200 3808 
Q 3283 4083 3283 4333 
L 3283 5056 
z
M 4877 5056 
L 5062 5056 
L 5062 3488 
Q 5062 3354 5084 3309 
Q 5107 3264 5184 3264 
Q 5229 3264 5344 3264 
Q 5459 3264 5577 3264 
Q 5696 3264 5741 3264 
Q 5798 3264 5872 3270 
Q 5946 3277 5997 3283 
Q 6003 3245 6012 3184 
Q 6022 3123 6029 3091 
Q 5984 3085 5907 3078 
Q 5830 3072 5747 3072 
Q 5702 3072 5577 3072 
Q 5453 3072 5337 3072 
Q 5222 3072 5190 3072 
Q 5062 3072 4995 3110 
Q 4928 3149 4902 3241 
Q 4877 3334 4877 3494 
L 4877 5056 
z
M 1184 -282 
Q 1171 -256 1148 -227 
Q 1126 -198 1100 -166 
Q 1075 -134 1050 -115 
Q 1101 -83 1174 -12 
Q 1248 58 1309 166 
Q 1370 275 1370 416 
L 1370 3270 
L 1555 3270 
L 1555 122 
Q 1555 122 1497 74 
Q 1440 26 1369 -41 
Q 1299 -109 1241 -176 
Q 1184 -243 1184 -282 
z
" transform="scale(0.015625)"/>
      <path id="NotoSansSC-Thin-5907" d="M 2042 4730 
L 4838 4730 
L 4838 4544 
L 2042 4544 
L 2042 4730 
z
M 4787 4730 
L 4832 4730 
L 4877 4742 
L 4998 4646 
Q 4723 4269 4316 3942 
Q 3910 3616 3427 3344 
Q 2944 3072 2419 2857 
Q 1894 2643 1372 2489 
Q 851 2336 378 2240 
Q 371 2272 352 2310 
Q 333 2349 313 2381 
Q 294 2413 275 2432 
Q 742 2515 1257 2662 
Q 1773 2810 2288 3014 
Q 2803 3219 3276 3478 
Q 3750 3738 4140 4042 
Q 4531 4346 4787 4691 
L 4787 4730 
z
M 1990 4493 
Q 2374 3955 3011 3552 
Q 3648 3149 4454 2889 
Q 5261 2630 6138 2515 
Q 6118 2496 6092 2464 
Q 6067 2432 6048 2403 
Q 6029 2374 6016 2342 
Q 5152 2470 4339 2739 
Q 3526 3008 2870 3424 
Q 2214 3840 1811 4403 
L 1990 4493 
z
M 1229 2304 
L 5203 2304 
L 5203 -429 
L 5011 -429 
L 5011 2112 
L 1421 2112 
L 1421 -454 
L 1229 -454 
L 1229 2304 
z
M 1254 1171 
L 5158 1171 
L 5158 986 
L 1254 986 
L 1254 1171 
z
M 1254 -32 
L 5158 -32 
L 5158 -218 
L 1254 -218 
L 1254 -32 
z
M 3110 2170 
L 3302 2170 
L 3302 -141 
L 3110 -141 
L 3110 2170 
z
M 2419 5318 
L 2630 5280 
Q 2374 4813 1907 4320 
Q 1440 3827 749 3443 
Q 730 3469 704 3494 
Q 678 3520 652 3542 
Q 627 3565 602 3578 
Q 1056 3814 1411 4108 
Q 1766 4403 2019 4720 
Q 2272 5037 2419 5318 
z
" transform="scale(0.015625)"/>
     </defs>
     <use xlink:href="#NotoSansSC-Thin-673a"/>
     <use xlink:href="#NotoSansSC-Thin-68b0" transform="translate(99.999985 0)"/>
     <use xlink:href="#NotoSansSC-Thin-8bbe" transform="translate(199.999969 0)"/>
     <use xlink:href="#NotoSansSC-Thin-5907" transform="translate(299.999954 0)"/>
    </g>
   </g>
   <g id="text_8">
    <!-- 52亿 -->
    <g style="fill: #ffffff" transform="translate(123.129393 134.939173) scale(0.065 -0.065)">
     <defs>
      <path id="NotoSansSC-Thin-35" d="M 1581 -83 
Q 1222 -83 963 9 
Q 704 102 515 240 
Q 326 378 186 518 
L 333 691 
Q 467 550 636 422 
Q 806 294 1040 211 
Q 1274 128 1594 128 
Q 1901 128 2166 294 
Q 2432 461 2592 765 
Q 2752 1069 2752 1466 
Q 2752 2061 2441 2406 
Q 2131 2752 1606 2752 
Q 1350 2752 1152 2665 
Q 954 2579 755 2445 
L 563 2560 
L 730 4646 
L 2758 4646 
L 2758 4435 
L 941 4435 
L 787 2726 
Q 966 2835 1168 2902 
Q 1370 2970 1626 2970 
Q 2010 2970 2320 2813 
Q 2630 2656 2812 2326 
Q 2995 1997 2995 1478 
Q 2995 979 2787 630 
Q 2579 282 2256 99 
Q 1933 -83 1581 -83 
z
" transform="scale(0.015625)"/>
     </defs>
     <use xlink:href="#NotoSansSC-Thin-35"/>
     <use xlink:href="#NotoSansSC-Thin-32" transform="translate(52.099991 0)"/>
     <use xlink:href="#NotoSansSC-Thin-4ebf" transform="translate(104.199982 0)"/>
    </g>
   </g>
   <g id="text_9">
    <!-- 基础化工 -->
    <g style="fill: #1e293b" transform="translate(104.203913 150.607581) rotate(-22.5) scale(0.07 -0.07)">
     <defs>
      <path id="NotoSansSC-Thin-57fa" d="M 634 4563 
L 5779 4563 
L 5779 4371 
L 634 4371 
L 634 4563 
z
M 806 -96 
L 5606 -96 
L 5606 -282 
L 806 -282 
L 806 -96 
z
M 1818 3795 
L 4595 3795 
L 4595 3610 
L 1818 3610 
L 1818 3795 
z
M 1818 3002 
L 4595 3002 
L 4595 2810 
L 1818 2810 
L 1818 3002 
z
M 378 2176 
L 6029 2176 
L 6029 1990 
L 378 1990 
L 378 2176 
z
M 1606 1043 
L 4800 1043 
L 4800 851 
L 1606 851 
L 1606 1043 
z
M 1702 5312 
L 1888 5312 
L 1888 2067 
L 1702 2067 
L 1702 5312 
z
M 4538 5312 
L 4723 5312 
L 4723 2067 
L 4538 2067 
L 4538 5312 
z
M 3091 1715 
L 3283 1715 
L 3283 -179 
L 3091 -179 
L 3091 1715 
z
M 1984 2131 
L 2144 2067 
Q 1965 1747 1683 1446 
Q 1402 1146 1078 902 
Q 755 659 448 506 
Q 435 531 409 556 
Q 384 582 358 608 
Q 333 634 307 653 
Q 621 787 937 1017 
Q 1254 1248 1529 1539 
Q 1805 1830 1984 2131 
z
M 4442 2131 
Q 4608 1837 4873 1568 
Q 5139 1299 5462 1088 
Q 5786 877 6118 755 
Q 6099 736 6073 710 
Q 6048 685 6025 656 
Q 6003 627 5984 602 
Q 5651 736 5324 966 
Q 4998 1197 4729 1481 
Q 4461 1766 4288 2074 
L 4442 2131 
z
" transform="scale(0.015625)"/>
      <path id="NotoSansSC-Thin-7840" d="M 371 4915 
L 2464 4915 
L 2464 4730 
L 371 4730 
L 371 4915 
z
M 909 2970 
L 2291 2970 
L 2291 384 
L 909 384 
L 909 570 
L 2106 570 
L 2106 2778 
L 909 2778 
L 909 2970 
z
M 1274 4845 
L 1472 4813 
Q 1363 4211 1212 3657 
Q 1062 3104 864 2630 
Q 666 2157 403 1786 
Q 390 1805 358 1827 
Q 326 1850 294 1872 
Q 262 1894 237 1907 
Q 634 2438 883 3206 
Q 1133 3974 1274 4845 
z
M 819 2970 
L 1005 2970 
L 1005 -166 
L 819 -166 
L 819 2970 
z
M 2912 4736 
L 3098 4736 
L 3098 3002 
L 5491 3002 
L 5491 4736 
L 5677 4736 
L 5677 2810 
L 2912 2810 
L 2912 4736 
z
M 4224 5267 
L 4410 5267 
L 4410 77 
L 4224 77 
L 4224 5267 
z
M 5690 2195 
L 5875 2195 
L 5875 -346 
L 5690 -346 
L 5690 2195 
z
M 2739 2189 
L 2944 2189 
L 2944 186 
L 5786 186 
L 5786 -6 
L 2739 -6 
L 2739 2189 
z
" transform="scale(0.015625)"/>
      <path id="NotoSansSC-Thin-5316" d="M 3405 5184 
L 3597 5184 
L 3597 275 
Q 3597 26 3683 -54 
Q 3770 -134 4038 -134 
Q 4109 -134 4294 -134 
Q 4480 -134 4704 -134 
Q 4928 -134 5123 -134 
Q 5318 -134 5408 -134 
Q 5606 -134 5702 -12 
Q 5798 109 5840 419 
Q 5882 730 5901 1293 
Q 5933 1274 5965 1251 
Q 5997 1229 6029 1216 
Q 6061 1203 6093 1190 
Q 6067 614 6016 284 
Q 5965 -45 5824 -185 
Q 5683 -326 5389 -326 
Q 5350 -326 5216 -326 
Q 5082 -326 4902 -326 
Q 4723 -326 4540 -326 
Q 4358 -326 4227 -326 
Q 4096 -326 4058 -326 
Q 3808 -326 3667 -275 
Q 3526 -224 3465 -93 
Q 3405 38 3405 288 
L 3405 5184 
z
M 5683 4288 
L 5875 4186 
Q 5466 3597 4893 3053 
Q 4320 2509 3667 2041 
Q 3014 1574 2355 1210 
Q 2336 1235 2313 1257 
Q 2291 1280 2265 1305 
Q 2240 1331 2214 1350 
Q 2874 1696 3523 2157 
Q 4173 2618 4736 3162 
Q 5299 3706 5683 4288 
z
M 2182 5293 
L 2362 5242 
Q 2138 4704 1840 4192 
Q 1542 3680 1203 3235 
Q 864 2790 506 2438 
Q 493 2458 464 2486 
Q 435 2515 409 2547 
Q 384 2579 358 2592 
Q 723 2925 1062 3353 
Q 1402 3782 1690 4278 
Q 1978 4774 2182 5293 
z
M 1498 3904 
L 1677 4077 
L 1690 4070 
L 1690 -454 
L 1498 -454 
L 1498 3904 
z
" transform="scale(0.015625)"/>
      <path id="NotoSansSC-Thin-5de5" d="M 691 4538 
L 5747 4538 
L 5747 4346 
L 691 4346 
L 691 4538 
z
M 378 275 
L 6029 275 
L 6029 90 
L 378 90 
L 378 275 
z
M 3098 4474 
L 3290 4474 
L 3290 186 
L 3098 186 
L 3098 4474 
z
" transform="scale(0.015625)"/>
     </defs>
     <use xlink:href="#NotoSansSC-Thin-57fa"/>
     <use xlink:href="#NotoSansSC-Thin-7840" transform="translate(99.999985 0)"/>
     <use xlink:href="#NotoSansSC-Thin-5316" transform="translate(199.999969 0)"/>
     <use xlink:href="#NotoSansSC-Thin-5de5" transform="translate(299.999954 0)"/>
    </g>
   </g>
   <g id="text_10">
    <!-- 29亿 -->
    <g style="fill: #1e293b" transform="translate(125.507727 138.737798) scale(0.065 -0.065)">
     <defs>
      <path id="NotoSansSC-Thin-39" d="M 1370 -83 
Q 1050 -83 819 32 
Q 589 147 410 339 
L 557 506 
Q 723 314 934 221 
Q 1146 128 1389 128 
Q 1651 128 1891 256 
Q 2131 384 2316 675 
Q 2502 966 2611 1443 
Q 2720 1920 2720 2618 
Q 2720 3168 2592 3600 
Q 2464 4032 2195 4278 
Q 1926 4525 1498 4525 
Q 1229 4525 1014 4355 
Q 800 4186 675 3901 
Q 550 3616 550 3264 
Q 550 2912 652 2627 
Q 755 2342 979 2172 
Q 1203 2003 1555 2003 
Q 1830 2003 2137 2182 
Q 2445 2362 2739 2765 
L 2746 2470 
Q 2586 2278 2397 2128 
Q 2208 1978 1993 1891 
Q 1779 1805 1536 1805 
Q 1152 1805 877 1974 
Q 602 2144 454 2470 
Q 307 2797 307 3264 
Q 307 3686 473 4019 
Q 640 4352 912 4541 
Q 1184 4730 1510 4730 
Q 1850 4730 2118 4589 
Q 2387 4448 2572 4176 
Q 2758 3904 2857 3513 
Q 2957 3123 2957 2618 
Q 2957 1862 2825 1344 
Q 2694 826 2470 512 
Q 2246 198 1961 57 
Q 1677 -83 1370 -83 
z
" transform="scale(0.015625)"/>
     </defs>
     <use xlink:href="#NotoSansSC-Thin-32"/>
     <use xlink:href="#NotoSansSC-Thin-39" transform="translate(52.099991 0)"/>
     <use xlink:href="#NotoSansSC-Thin-4ebf" transform="translate(104.199982 0)"/>
    </g>
   </g>
   <g id="text_11">
    <!-- 银行 -->
    <g style="fill: #1e293b" transform="translate(128.863087 156.699765) rotate(-67.5) scale(0.07 -0.07)">
     <defs>
      <path id="NotoSansSC-Thin-94f6" d="M 3046 5005 
L 5670 5005 
L 5670 2349 
L 3046 2349 
L 3046 2534 
L 5485 2534 
L 5485 4819 
L 3046 4819 
L 3046 5005 
z
M 3091 3770 
L 5581 3770 
L 5581 3584 
L 3091 3584 
L 3091 3770 
z
M 4115 2438 
Q 4269 1805 4544 1277 
Q 4819 749 5225 368 
Q 5632 -13 6157 -211 
Q 6131 -230 6105 -262 
Q 6080 -294 6057 -323 
Q 6035 -352 6016 -384 
Q 5485 -160 5075 240 
Q 4666 640 4384 1190 
Q 4102 1741 3942 2400 
L 4115 2438 
z
M 5888 1978 
L 6029 1850 
Q 5837 1683 5590 1513 
Q 5344 1344 5091 1193 
Q 4838 1043 4621 922 
L 4506 1056 
Q 4717 1178 4973 1334 
Q 5229 1491 5472 1660 
Q 5715 1830 5888 1978 
z
M 2880 -435 
L 2874 -250 
L 3021 -134 
L 4506 256 
Q 4506 218 4509 166 
Q 4512 115 4518 83 
Q 4000 -70 3689 -160 
Q 3379 -250 3216 -301 
Q 3053 -352 2985 -381 
Q 2918 -410 2880 -435 
z
M 2880 -435 
Q 2874 -410 2854 -378 
Q 2835 -346 2812 -307 
Q 2790 -269 2771 -243 
Q 2822 -218 2886 -144 
Q 2950 -70 2950 109 
L 2950 5005 
L 3136 5005 
L 3136 -186 
Q 3136 -186 3110 -205 
Q 3085 -224 3046 -253 
Q 3008 -282 2969 -314 
Q 2931 -346 2905 -378 
Q 2880 -410 2880 -435 
z
M 1184 5293 
L 1376 5248 
Q 1267 4922 1113 4605 
Q 960 4288 774 4009 
Q 589 3731 390 3507 
Q 378 3526 352 3555 
Q 326 3584 300 3616 
Q 275 3648 250 3661 
Q 544 3962 790 4394 
Q 1037 4826 1184 5293 
z
M 928 4474 
L 2573 4474 
L 2573 4288 
L 890 4288 
L 928 4474 
z
M 640 3386 
L 2445 3386 
L 2445 3200 
L 640 3200 
L 640 3386 
z
M 358 2093 
L 2592 2093 
L 2592 1901 
L 358 1901 
L 358 2093 
z
M 1293 -358 
L 1293 -160 
L 1408 -19 
L 2637 621 
Q 2650 582 2666 537 
Q 2682 493 2694 467 
Q 2253 224 1987 77 
Q 1722 -70 1584 -153 
Q 1446 -237 1385 -278 
Q 1325 -320 1293 -358 
z
M 1293 -358 
Q 1286 -333 1267 -294 
Q 1248 -256 1229 -221 
Q 1210 -186 1190 -160 
Q 1242 -134 1306 -70 
Q 1370 -6 1370 173 
L 1370 3270 
L 1555 3270 
L 1555 -122 
Q 1555 -122 1529 -138 
Q 1504 -154 1465 -179 
Q 1427 -205 1385 -237 
Q 1344 -269 1318 -301 
Q 1293 -333 1293 -358 
z
" transform="scale(0.015625)"/>
      <path id="NotoSansSC-Thin-884c" d="M 2714 4909 
L 5875 4909 
L 5875 4717 
L 2714 4717 
L 2714 4909 
z
M 4832 3085 
L 5018 3085 
L 5018 -109 
Q 5018 -250 4966 -314 
Q 4915 -378 4806 -410 
Q 4685 -429 4419 -432 
Q 4154 -435 3642 -435 
Q 3635 -403 3612 -358 
Q 3590 -314 3558 -269 
Q 3834 -275 4061 -278 
Q 4288 -282 4445 -278 
Q 4602 -275 4659 -269 
Q 4755 -262 4793 -230 
Q 4832 -198 4832 -115 
L 4832 3085 
z
M 2426 3149 
L 6074 3149 
L 6074 2963 
L 2426 2963 
L 2426 3149 
z
M 1306 2912 
L 1478 3078 
L 1491 3066 
L 1491 -480 
L 1306 -480 
L 1306 2912 
z
M 2061 3974 
L 2240 3910 
Q 1997 3526 1686 3152 
Q 1376 2778 1040 2451 
Q 704 2125 371 1862 
Q 358 1882 329 1907 
Q 301 1933 272 1961 
Q 243 1990 218 2003 
Q 557 2246 893 2563 
Q 1229 2880 1529 3241 
Q 1830 3603 2061 3974 
z
M 1786 5325 
L 1971 5248 
Q 1779 4992 1516 4723 
Q 1254 4454 969 4204 
Q 685 3955 416 3757 
Q 403 3776 377 3801 
Q 352 3827 326 3856 
Q 301 3885 282 3898 
Q 550 4090 832 4330 
Q 1114 4570 1363 4829 
Q 1613 5088 1786 5325 
z
" transform="scale(0.015625)"/>
     </defs>
     <use xlink:href="#NotoSansSC-Thin-94f6"/>
     <use xlink:href="#NotoSansSC-Thin-884c" transform="translate(99.999985 0)"/>
    </g>
   </g>
   <g id="text_12">
    <!-- +0.4亿 -->
    <g style="fill: #1e293b" transform="translate(126.2349 137.87525) scale(0.065 -0.065)">
     <defs>
      <path id="NotoSansSC-Thin-2b" d="M 1549 787 
L 1549 2221 
L 237 2221 
L 237 2426 
L 1549 2426 
L 1549 3866 
L 1786 3866 
L 1786 2426 
L 3098 2426 
L 3098 2221 
L 1786 2221 
L 1786 787 
L 1549 787 
z
" transform="scale(0.015625)"/>
      <path id="NotoSansSC-Thin-30" d="M 1670 -83 
Q 1261 -83 963 179 
Q 666 442 509 979 
Q 352 1517 352 2336 
Q 352 3149 509 3677 
Q 666 4205 963 4467 
Q 1261 4730 1670 4730 
Q 2080 4730 2371 4467 
Q 2662 4205 2822 3677 
Q 2982 3149 2982 2336 
Q 2982 1517 2822 979 
Q 2662 442 2371 179 
Q 2080 -83 1670 -83 
z
M 1670 128 
Q 1997 128 2240 384 
Q 2483 640 2614 1133 
Q 2746 1626 2746 2336 
Q 2746 3040 2614 3529 
Q 2483 4019 2240 4272 
Q 1997 4525 1670 4525 
Q 1344 4525 1101 4272 
Q 858 4019 723 3529 
Q 589 3040 589 2336 
Q 589 1626 723 1133 
Q 858 640 1101 384 
Q 1344 128 1670 128 
z
" transform="scale(0.015625)"/>
      <path id="NotoSansSC-Thin-2e" d="M 736 -83 
Q 640 -83 560 -9 
Q 480 64 480 192 
Q 480 333 560 406 
Q 640 480 736 480 
Q 838 480 918 406 
Q 998 333 998 192 
Q 998 64 918 -9 
Q 838 -83 736 -83 
z
" transform="scale(0.015625)"/>
      <path id="NotoSansSC-Thin-34" d="M 2195 0 
L 2195 3482 
Q 2195 3629 2204 3843 
Q 2214 4058 2227 4205 
L 2195 4205 
Q 2112 4058 2019 3901 
Q 1926 3744 1830 3590 
L 422 1568 
L 3110 1568 
L 3110 1363 
L 115 1363 
L 115 1485 
L 2259 4646 
L 2419 4646 
L 2419 0 
L 2195 0 
z
" transform="scale(0.015625)"/>
     </defs>
     <use xlink:href="#NotoSansSC-Thin-2b"/>
     <use xlink:href="#NotoSansSC-Thin-30" transform="translate(52.099991 0)"/>
     <use xlink:href="#NotoSansSC-Thin-2e" transform="translate(104.199982 0)"/>
     <use xlink:href="#NotoSansSC-Thin-34" transform="translate(127.299973 0)"/>
     <use xlink:href="#NotoSansSC-Thin-4ebf" transform="translate(179.399963 0)"/>
    </g>
   </g>
   <g id="text_13">
    <!-- 非银金融 -->
    <g style="fill: #1e293b" transform="translate(134.408251 137.847987) rotate(-292.5) scale(0.07 -0.07)">
     <defs>
      <path id="NotoSansSC-Thin-975e" d="M 3930 4218 
L 5965 4218 
L 5965 4026 
L 3930 4026 
L 3930 4218 
z
M 3923 1376 
L 6074 1376 
L 6074 1184 
L 3923 1184 
L 3923 1376 
z
M 3923 2816 
L 5850 2816 
L 5850 2630 
L 3923 2630 
L 3923 2816 
z
M 576 4224 
L 2528 4224 
L 2528 4032 
L 576 4032 
L 576 4224 
z
M 698 2822 
L 2534 2822 
L 2534 2637 
L 698 2637 
L 698 2822 
z
M 3821 5280 
L 4006 5280 
L 4006 -448 
L 3821 -448 
L 3821 5280 
z
M 2445 5280 
L 2637 5280 
L 2637 -448 
L 2445 -448 
L 2445 5280 
z
M 429 1414 
L 2579 1414 
L 2579 1222 
L 429 1222 
L 429 1414 
z
" transform="scale(0.015625)"/>
      <path id="NotoSansSC-Thin-91d1" d="M 1613 3334 
L 4806 3334 
L 4806 3142 
L 1613 3142 
L 1613 3334 
z
M 717 2067 
L 5715 2067 
L 5715 1875 
L 717 1875 
L 717 2067 
z
M 454 -32 
L 5958 -32 
L 5958 -218 
L 454 -218 
L 454 -32 
z
M 3085 3270 
L 3277 3270 
L 3277 -147 
L 3085 -147 
L 3085 3270 
z
M 1382 1478 
L 1549 1536 
Q 1683 1344 1808 1117 
Q 1933 890 2035 675 
Q 2138 461 2189 294 
L 2016 224 
Q 1965 390 1865 608 
Q 1766 826 1641 1056 
Q 1517 1286 1382 1478 
z
M 4826 1555 
L 5005 1466 
Q 4832 1152 4614 803 
Q 4397 454 4205 211 
L 4058 288 
Q 4186 454 4326 678 
Q 4467 902 4601 1136 
Q 4736 1370 4826 1555 
z
M 3290 5107 
Q 3526 4806 3859 4512 
Q 4192 4218 4579 3952 
Q 4966 3686 5369 3475 
Q 5773 3264 6144 3130 
Q 6118 3110 6092 3081 
Q 6067 3053 6041 3024 
Q 6016 2995 5997 2963 
Q 5632 3110 5232 3331 
Q 4832 3552 4441 3827 
Q 4051 4102 3712 4409 
Q 3373 4717 3130 5024 
L 3290 5107 
z
M 3277 5363 
L 3443 5280 
Q 3117 4794 2633 4346 
Q 2150 3898 1577 3542 
Q 1005 3187 397 2957 
Q 371 2995 332 3046 
Q 294 3098 256 3123 
Q 858 3341 1434 3683 
Q 2010 4026 2490 4458 
Q 2970 4890 3277 5363 
z
" transform="scale(0.015625)"/>
      <path id="NotoSansSC-Thin-878d" d="M 4653 5318 
L 4845 5318 
L 4845 3878 
L 4653 3878 
L 4653 5318 
z
M 3488 -102 
Q 3930 -38 4560 67 
Q 5190 173 5856 282 
L 5869 102 
Q 5248 -13 4640 -118 
Q 4032 -224 3565 -307 
L 3488 -102 
z
M 5325 1254 
L 5504 1312 
Q 5658 1043 5786 729 
Q 5914 416 6006 125 
Q 6099 -166 6131 -384 
L 5939 -454 
Q 5907 -230 5814 64 
Q 5722 358 5597 672 
Q 5472 986 5325 1254 
z
M 3802 3802 
L 3802 1971 
L 5651 1971 
L 5651 3802 
L 3802 3802 
z
M 3616 3987 
L 5843 3987 
L 5843 1779 
L 3616 1779 
L 3616 3987 
z
M 4653 3917 
L 4845 3917 
L 4845 1869 
L 4845 1869 
L 4845 -13 
L 4653 -13 
L 4653 1869 
L 4653 1869 
L 4653 3917 
z
M 1792 1242 
L 1978 1242 
L 1978 -314 
L 1792 -314 
L 1792 1242 
z
M 922 4115 
L 922 3283 
L 2771 3283 
L 2771 4115 
L 922 4115 
z
M 736 4301 
L 2963 4301 
L 2963 3091 
L 736 3091 
L 736 4301 
z
M 422 4992 
L 3277 4992 
L 3277 4806 
L 422 4806 
L 422 4992 
z
M 928 1293 
L 2765 1293 
L 2765 1107 
L 928 1107 
L 928 1293 
z
M 512 2605 
L 3149 2605 
L 3149 2413 
L 698 2413 
L 698 -422 
L 512 -422 
L 512 2605 
z
M 3034 2605 
L 3219 2605 
L 3219 -115 
Q 3219 -218 3190 -272 
Q 3162 -326 3072 -358 
Q 2995 -384 2832 -387 
Q 2669 -390 2406 -390 
Q 2400 -352 2377 -301 
Q 2355 -250 2330 -205 
Q 2554 -211 2720 -211 
Q 2886 -211 2938 -211 
Q 3034 -205 3034 -115 
L 3034 2605 
z
M 1120 2189 
L 1280 2246 
Q 1414 2048 1536 1814 
Q 1658 1581 1709 1414 
L 1542 1344 
Q 1498 1510 1373 1750 
Q 1248 1990 1120 2189 
z
M 2477 2272 
L 2656 2182 
Q 2528 1926 2371 1648 
Q 2214 1370 2080 1165 
L 1933 1242 
Q 2022 1382 2124 1564 
Q 2227 1747 2323 1936 
Q 2419 2125 2477 2272 
z
" transform="scale(0.015625)"/>
     </defs>
     <use xlink:href="#NotoSansSC-Thin-975e"/>
     <use xlink:href="#NotoSansSC-Thin-94f6" transform="translate(99.999985 0)"/>
     <use xlink:href="#NotoSansSC-Thin-91d1" transform="translate(199.999969 0)"/>
     <use xlink:href="#NotoSansSC-Thin-878d" transform="translate(299.999954 0)"/>
    </g>
   </g>
   <g id="text_14">
    <!-- +3.4亿 -->
    <g style="fill: #1e293b" transform="translate(126.810955 138.17758) scale(0.065 -0.065)">
     <use xlink:href="#NotoSansSC-Thin-2b"/>
     <use xlink:href="#NotoSansSC-Thin-33" transform="translate(52.099991 0)"/>
     <use xlink:href="#NotoSansSC-Thin-2e" transform="translate(104.199982 0)"/>
     <use xlink:href="#NotoSansSC-Thin-34" transform="translate(127.299973 0)"/>
     <use xlink:href="#NotoSansSC-Thin-4ebf" transform="translate(179.399963 0)"/>
    </g>
   </g>
   <g id="text_15">
    <!-- 有色金属 -->
    <g style="fill: #1e293b" transform="translate(98.696578 122.366703) rotate(-337.5) scale(0.07 -0.07)">
     <defs>
      <path id="NotoSansSC-Thin-6709" d="M 461 4429 
L 5965 4429 
L 5965 4243 
L 461 4243 
L 461 4429 
z
M 1862 2163 
L 5088 2163 
L 5088 1978 
L 1862 1978 
L 1862 2163 
z
M 1754 3264 
L 5050 3264 
L 5050 3072 
L 1939 3072 
L 1939 -448 
L 1754 -448 
L 1754 3264 
z
M 4986 3264 
L 5178 3264 
L 5178 -83 
Q 5178 -224 5133 -291 
Q 5088 -358 4960 -390 
Q 4838 -416 4572 -416 
Q 4307 -416 3872 -416 
Q 3866 -378 3840 -323 
Q 3814 -269 3789 -224 
Q 4051 -230 4262 -233 
Q 4474 -237 4624 -233 
Q 4774 -230 4838 -230 
Q 4928 -224 4957 -192 
Q 4986 -160 4986 -83 
L 4986 3264 
z
M 2669 5312 
L 2848 5261 
Q 2637 4582 2307 3920 
Q 1978 3258 1517 2682 
Q 1056 2106 461 1677 
Q 454 1702 432 1728 
Q 410 1754 390 1779 
Q 371 1805 352 1824 
Q 787 2131 1148 2528 
Q 1510 2925 1801 3379 
Q 2093 3834 2310 4323 
Q 2528 4813 2669 5312 
z
M 1862 1056 
L 5088 1056 
L 5088 864 
L 1862 864 
L 1862 1056 
z
" transform="scale(0.015625)"/>
      <path id="NotoSansSC-Thin-8272" d="M 3168 3494 
L 3360 3494 
L 3360 1798 
L 3168 1798 
L 3168 3494 
z
M 2067 4691 
L 4186 4691 
L 4186 4506 
L 1971 4506 
L 2067 4691 
z
M 4102 4691 
L 4147 4691 
L 4192 4704 
L 4326 4621 
Q 4198 4397 4025 4163 
Q 3853 3930 3667 3725 
Q 3482 3520 3309 3360 
Q 3283 3392 3241 3421 
Q 3200 3450 3168 3475 
Q 3341 3622 3517 3824 
Q 3693 4026 3846 4240 
Q 4000 4454 4102 4640 
L 4102 4691 
z
M 1216 3546 
L 1408 3546 
L 1408 326 
Q 1408 141 1475 32 
Q 1542 -77 1728 -121 
Q 1914 -166 2266 -166 
Q 2374 -166 2646 -166 
Q 2918 -166 3273 -166 
Q 3629 -166 3993 -166 
Q 4358 -166 4656 -166 
Q 4954 -166 5101 -166 
Q 5427 -166 5587 -76 
Q 5747 13 5814 256 
Q 5882 499 5914 947 
Q 5965 915 6019 892 
Q 6074 870 6118 858 
Q 6086 506 6035 269 
Q 5984 32 5878 -105 
Q 5773 -243 5577 -300 
Q 5382 -358 5069 -358 
Q 5018 -358 4813 -358 
Q 4608 -358 4310 -358 
Q 4013 -358 3689 -358 
Q 3366 -358 3072 -358 
Q 2778 -358 2573 -358 
Q 2368 -358 2323 -358 
Q 1907 -358 1664 -304 
Q 1421 -250 1318 -96 
Q 1216 58 1216 339 
L 1216 3546 
z
M 2387 5306 
L 2566 5248 
Q 2330 4768 1994 4329 
Q 1658 3891 1267 3526 
Q 877 3162 461 2880 
Q 454 2899 432 2931 
Q 410 2963 384 2998 
Q 358 3034 333 3046 
Q 742 3309 1129 3657 
Q 1517 4006 1840 4425 
Q 2163 4845 2387 5306 
z
M 1293 3546 
L 5453 3546 
L 5453 1350 
L 5254 1350 
L 5254 3354 
L 1293 3354 
L 1293 3546 
z
M 1293 1894 
L 5363 1894 
L 5363 1709 
L 1293 1709 
L 1293 1894 
z
" transform="scale(0.015625)"/>
      <path id="NotoSansSC-Thin-5c5e" d="M 973 5018 
L 1165 5018 
L 1165 3162 
Q 1165 2765 1139 2307 
Q 1114 1850 1040 1373 
Q 966 896 819 441 
Q 672 -13 422 -403 
Q 403 -384 374 -365 
Q 346 -346 317 -326 
Q 288 -307 262 -301 
Q 506 83 646 528 
Q 787 973 857 1430 
Q 928 1888 950 2333 
Q 973 2778 973 3162 
L 973 5018 
z
M 1069 5018 
L 5568 5018 
L 5568 3859 
L 1069 3859 
L 1069 4045 
L 5382 4045 
L 5382 4832 
L 1069 4832 
L 1069 5018 
z
M 3494 3347 
L 3680 3347 
L 3680 352 
L 3494 352 
L 3494 3347 
z
M 1997 2592 
L 1997 1984 
L 5222 1984 
L 5222 2592 
L 1997 2592 
z
M 1805 2778 
L 5408 2778 
L 5408 1792 
L 1805 1792 
L 1805 2778 
z
M 1542 1293 
L 5606 1293 
L 5606 1107 
L 1734 1107 
L 1734 -461 
L 1542 -461 
L 1542 1293 
z
M 5491 1293 
L 5677 1293 
L 5677 -173 
Q 5677 -275 5645 -326 
Q 5613 -378 5523 -410 
Q 5427 -435 5225 -438 
Q 5024 -442 4678 -442 
Q 4672 -410 4649 -362 
Q 4627 -314 4608 -269 
Q 4902 -275 5107 -278 
Q 5312 -282 5382 -275 
Q 5453 -269 5472 -246 
Q 5491 -224 5491 -173 
L 5491 1293 
z
M 2106 416 
Q 2598 429 3308 454 
Q 4019 480 4774 512 
L 4768 333 
Q 4032 301 3331 269 
Q 2630 237 2118 218 
L 2106 416 
z
M 5088 3590 
L 5242 3430 
Q 4915 3379 4492 3334 
Q 4070 3290 3593 3261 
Q 3117 3232 2633 3213 
Q 2150 3194 1696 3187 
Q 1690 3226 1674 3274 
Q 1658 3322 1638 3354 
Q 2080 3360 2563 3379 
Q 3046 3398 3516 3430 
Q 3987 3462 4393 3504 
Q 4800 3546 5088 3590 
z
M 4256 870 
L 4390 947 
Q 4531 806 4684 646 
Q 4838 486 4976 332 
Q 5114 179 5203 64 
L 5062 -38 
Q 4973 83 4838 240 
Q 4704 397 4550 563 
Q 4397 730 4256 870 
z
" transform="scale(0.015625)"/>
     </defs>
     <use xlink:href="#NotoSansSC-Thin-6709"/>
     <use xlink:href="#NotoSansSC-Thin-8272" transform="translate(99.999985 0)"/>
     <use xlink:href="#NotoSansSC-Thin-91d1" transform="translate(199.999969 0)"/>
     <use xlink:href="#NotoSansSC-Thin-5c5e" transform="translate(299.999954 0)"/>
    </g>
   </g>
   <g id="text_16">
    <!-- +50.7亿 -->
    <g style="fill: #ffffff" transform="translate(119.153995 135.005962) scale(0.065 -0.065)">
     <defs>
      <path id="NotoSansSC-Thin-37" d="M 1344 0 
Q 1376 717 1462 1318 
Q 1549 1920 1712 2445 
Q 1875 2970 2124 3459 
Q 2374 3949 2726 4435 
L 307 4435 
L 307 4646 
L 3034 4646 
L 3034 4512 
Q 2624 3955 2355 3436 
Q 2086 2918 1932 2384 
Q 1779 1850 1705 1267 
Q 1632 685 1606 0 
L 1344 0 
z
" transform="scale(0.015625)"/>
     </defs>
     <use xlink:href="#NotoSansSC-Thin-2b"/>
     <use xlink:href="#NotoSansSC-Thin-35" transform="translate(52.099991 0)"/>
     <use xlink:href="#NotoSansSC-Thin-30" transform="translate(104.199982 0)"/>
     <use xlink:href="#NotoSansSC-Thin-2e" transform="translate(156.299973 0)"/>
     <use xlink:href="#NotoSansSC-Thin-37" transform="translate(179.399963 0)"/>
     <use xlink:href="#NotoSansSC-Thin-4ebf" transform="translate(231.499954 0)"/>
    </g>
   </g>
   <g id="patch_12">
    <path d="M 216.434305 71.627309 
Q 212.252771 87.699004 208.352754 102.688688 
" style="fill: none; stroke: #064e3b; stroke-linecap: round"/>
    <path d="M 210.412677 100.33142 
L 208.352754 102.688688 
L 207.702893 99.626388 
" style="fill: none; stroke: #064e3b; stroke-linecap: round"/>
   </g>
   <g id="text_17">
    <g id="patch_13">
     <path d="M 196.17362 68.937385 
L 242.88987 68.937385 
Q 244.28987 68.937385 244.28987 67.537385 
L 244.28987 51.90726 
Q 244.28987 50.50726 242.88987 50.50726 
L 196.17362 50.50726 
Q 194.77362 50.50726 194.77362 51.90726 
L 194.77362 67.537385 
Q 194.77362 68.937385 196.17362 68.937385 
z
" style="fill: #ecfdf5; opacity: 0.85; stroke: #064e3b; stroke-width: 1.5; stroke-linejoin: miter"/>
    </g>
    <!-- ⚠ 极端集中 -->
    <g style="fill: #064e3b" transform="translate(201.261745 57.465697) scale(0.07 -0.07)">
     <defs>
      <path id="NotoSansSC-Thin-26a0" d="M 1472 26 
Q 934 26 630 208 
Q 326 390 326 730 
Q 326 973 506 1293 
L 2342 4486 
Q 2554 4851 2758 5033 
Q 2963 5216 3200 5216 
Q 3398 5216 3577 5097 
Q 3757 4979 3917 4698 
L 5766 1491 
Q 5888 1293 5961 1097 
Q 6035 902 6035 685 
Q 6035 410 5833 218 
Q 5632 26 5165 26 
L 1472 26 
z
M 1402 205 
L 5178 205 
Q 5491 205 5670 342 
Q 5850 480 5850 678 
Q 5850 864 5802 1021 
Q 5754 1178 5664 1338 
L 3757 4621 
Q 3648 4826 3497 4922 
Q 3347 5018 3200 5018 
Q 3027 5018 2854 4874 
Q 2682 4730 2534 4467 
L 653 1197 
Q 531 979 531 774 
Q 531 486 761 345 
Q 992 205 1402 205 
z
M 3200 762 
Q 3104 762 3027 835 
Q 2950 909 2950 1030 
Q 2950 1165 3027 1235 
Q 3104 1306 3200 1306 
Q 3296 1306 3376 1235 
Q 3456 1165 3456 1030 
Q 3456 909 3376 835 
Q 3296 762 3200 762 
z
M 3104 1837 
L 3072 3571 
L 3072 3981 
L 3334 3981 
L 3334 3571 
L 3302 1837 
L 3104 1837 
z
" transform="scale(0.015625)"/>
      <path id="NotoSansSC-Thin-20" transform="scale(0.015625)"/>
      <path id="NotoSansSC-Thin-6781" d="M 486 4038 
L 2464 4038 
L 2464 3853 
L 486 3853 
L 486 4038 
z
M 1446 5318 
L 1632 5318 
L 1632 -435 
L 1446 -435 
L 1446 5318 
z
M 1434 3987 
L 1600 3942 
Q 1517 3558 1389 3145 
Q 1261 2733 1104 2333 
Q 947 1933 774 1590 
Q 602 1248 429 1011 
Q 416 1037 390 1065 
Q 365 1094 336 1120 
Q 307 1146 282 1158 
Q 454 1382 624 1708 
Q 794 2035 950 2419 
Q 1107 2803 1232 3206 
Q 1357 3610 1434 3987 
z
M 1619 3597 
Q 1670 3533 1782 3369 
Q 1894 3206 2019 3011 
Q 2144 2816 2253 2653 
Q 2362 2490 2406 2413 
L 2266 2246 
Q 2214 2342 2108 2521 
Q 2003 2701 1884 2899 
Q 1766 3098 1660 3261 
Q 1555 3424 1498 3501 
L 1619 3597 
z
M 3360 4845 
L 3565 4838 
Q 3526 3910 3456 3126 
Q 3386 2342 3235 1692 
Q 3085 1043 2819 512 
Q 2554 -19 2125 -454 
Q 2112 -435 2080 -412 
Q 2048 -390 2016 -368 
Q 1984 -346 1958 -333 
Q 2528 205 2816 957 
Q 3104 1709 3216 2681 
Q 3328 3654 3360 4845 
z
M 2509 4883 
L 5056 4883 
L 5056 4691 
L 2509 4691 
L 2509 4883 
z
M 4570 3034 
L 5728 3034 
L 5728 2842 
L 4486 2842 
L 4570 3034 
z
M 5651 3034 
L 5696 3034 
L 5741 3040 
L 5862 2982 
Q 5658 2074 5267 1402 
Q 4877 730 4361 272 
Q 3846 -186 3251 -467 
Q 3238 -442 3212 -413 
Q 3187 -384 3158 -355 
Q 3130 -326 3104 -314 
Q 3699 -45 4208 396 
Q 4717 838 5091 1481 
Q 5466 2125 5651 2982 
L 5651 3034 
z
M 3469 3507 
Q 3674 2637 4029 1878 
Q 4384 1120 4909 563 
Q 5434 6 6125 -269 
Q 6099 -288 6073 -317 
Q 6048 -346 6022 -374 
Q 5997 -403 5978 -429 
Q 5280 -128 4755 441 
Q 4230 1011 3872 1785 
Q 3514 2560 3302 3462 
L 3469 3507 
z
M 4979 4883 
L 5190 4883 
Q 5101 4557 4995 4179 
Q 4890 3802 4787 3450 
Q 4685 3098 4602 2842 
L 4397 2842 
Q 4493 3104 4598 3459 
Q 4704 3814 4806 4192 
Q 4909 4570 4979 4883 
z
" transform="scale(0.015625)"/>
      <path id="NotoSansSC-Thin-7aef" d="M 2438 2970 
L 6086 2970 
L 6086 2778 
L 2438 2778 
L 2438 2970 
z
M 3680 1939 
L 3872 1939 
L 3872 -378 
L 3680 -378 
L 3680 1939 
z
M 4704 1939 
L 4896 1939 
L 4896 -352 
L 4704 -352 
L 4704 1939 
z
M 4147 5312 
L 4333 5312 
L 4333 3674 
L 4147 3674 
L 4147 5312 
z
M 2701 2010 
L 5824 2010 
L 5824 1818 
L 2886 1818 
L 2886 -448 
L 2701 -448 
L 2701 2010 
z
M 5734 2010 
L 5920 2010 
L 5920 -211 
Q 5920 -301 5897 -349 
Q 5875 -397 5805 -416 
Q 5728 -442 5603 -448 
Q 5478 -454 5254 -454 
Q 5248 -422 5222 -374 
Q 5197 -326 5171 -288 
Q 5350 -294 5481 -294 
Q 5613 -294 5658 -288 
Q 5734 -288 5734 -211 
L 5734 2010 
z
M 4173 2912 
L 4378 2874 
Q 4320 2630 4265 2358 
Q 4211 2086 4154 1901 
L 3981 1939 
Q 4032 2138 4089 2422 
Q 4147 2707 4173 2912 
z
M 2765 4986 
L 2957 4986 
L 2957 3776 
L 5651 3776 
L 5651 4986 
L 5843 4986 
L 5843 3590 
L 2765 3590 
L 2765 4986 
z
M 378 4026 
L 2522 4026 
L 2522 3840 
L 378 3840 
L 378 4026 
z
M 371 448 
Q 787 544 1372 704 
Q 1958 864 2573 1024 
L 2598 838 
Q 2016 678 1446 524 
Q 877 371 435 250 
L 371 448 
z
M 634 3437 
L 813 3469 
Q 902 3078 976 2636 
Q 1050 2195 1104 1772 
Q 1158 1350 1171 1011 
L 998 986 
Q 979 1325 928 1747 
Q 877 2170 800 2611 
Q 723 3053 634 3437 
z
M 2054 3546 
L 2246 3494 
Q 2195 3168 2134 2793 
Q 2074 2419 2003 2035 
Q 1933 1651 1865 1302 
Q 1798 954 1728 685 
L 1568 736 
Q 1638 1005 1705 1357 
Q 1773 1709 1840 2096 
Q 1907 2483 1961 2857 
Q 2016 3232 2054 3546 
z
M 1075 5184 
L 1242 5248 
Q 1389 5024 1526 4755 
Q 1664 4486 1728 4288 
L 1549 4211 
Q 1485 4410 1344 4685 
Q 1203 4960 1075 5184 
z
" transform="scale(0.015625)"/>
      <path id="NotoSansSC-Thin-96c6" d="M 378 1421 
L 6029 1421 
L 6029 1229 
L 378 1229 
L 378 1421 
z
M 1299 3789 
L 5338 3789 
L 5338 3603 
L 1299 3603 
L 1299 3789 
z
M 1299 3014 
L 5370 3014 
L 5370 2822 
L 1299 2822 
L 1299 3014 
z
M 3194 4416 
L 3379 4416 
L 3379 2074 
L 3194 2074 
L 3194 4416 
z
M 3091 1952 
L 3283 1952 
L 3283 -448 
L 3091 -448 
L 3091 1952 
z
M 2944 1382 
L 3117 1286 
Q 2886 1030 2566 787 
Q 2246 544 1878 326 
Q 1510 109 1136 -64 
Q 762 -237 422 -352 
Q 397 -307 355 -256 
Q 314 -205 275 -179 
Q 621 -70 998 93 
Q 1376 256 1737 464 
Q 2099 672 2412 905 
Q 2726 1139 2944 1382 
z
M 3424 1370 
Q 3648 1133 3965 905 
Q 4282 678 4650 486 
Q 5018 294 5402 140 
Q 5786 -13 6144 -109 
Q 6125 -128 6099 -160 
Q 6074 -192 6051 -221 
Q 6029 -250 6010 -282 
Q 5658 -173 5270 -13 
Q 4883 147 4508 352 
Q 4134 557 3811 790 
Q 3488 1024 3258 1274 
L 3424 1370 
z
M 1734 5325 
L 1946 5293 
Q 1709 4832 1325 4294 
Q 941 3757 410 3309 
Q 390 3328 361 3347 
Q 333 3366 304 3385 
Q 275 3405 250 3418 
Q 602 3706 886 4038 
Q 1171 4371 1385 4707 
Q 1600 5043 1734 5325 
z
M 3008 5267 
L 3174 5325 
Q 3302 5146 3427 4928 
Q 3552 4710 3616 4563 
L 3437 4493 
Q 3379 4646 3257 4867 
Q 3136 5088 3008 5267 
z
M 1254 2214 
L 5837 2214 
L 5837 2029 
L 1254 2029 
L 1254 2214 
z
M 1376 4570 
L 5574 4570 
L 5574 4378 
L 1376 4378 
L 1376 1798 
L 1184 1798 
L 1184 4371 
L 1370 4570 
L 1376 4570 
z
" transform="scale(0.015625)"/>
      <path id="NotoSansSC-Thin-4e2d" d="M 672 4141 
L 5696 4141 
L 5696 1331 
L 5510 1331 
L 5510 3955 
L 858 3955 
L 858 1299 
L 672 1299 
L 672 4141 
z
M 781 1926 
L 5638 1926 
L 5638 1741 
L 781 1741 
L 781 1926 
z
M 3085 5318 
L 3277 5318 
L 3277 -435 
L 3085 -435 
L 3085 5318 
z
" transform="scale(0.015625)"/>
     </defs>
     <use xlink:href="#NotoSansSC-Thin-26a0"/>
     <use xlink:href="#NotoSansSC-Thin-20" transform="translate(99.999985 0)"/>
     <use xlink:href="#NotoSansSC-Thin-6781" transform="translate(121.999969 0)"/>
     <use xlink:href="#NotoSansSC-Thin-7aef" transform="translate(221.999954 0)"/>
     <use xlink:href="#NotoSansSC-Thin-96c6" transform="translate(321.999939 0)"/>
     <use xlink:href="#NotoSansSC-Thin-4e2d" transform="translate(421.999924 0)"/>
    </g>
    <!-- 占总流出54.6% -->
    <g style="fill: #064e3b" transform="translate(196.17362 65.836604) scale(0.07 -0.07)">
     <defs>
      <path id="NotoSansSC-Thin-5360" d="M 3053 3987 
L 5856 3987 
L 5856 3802 
L 3053 3802 
L 3053 3987 
z
M 1222 218 
L 5184 218 
L 5184 32 
L 1222 32 
L 1222 218 
z
M 2976 5318 
L 3162 5318 
L 3162 2240 
L 2976 2240 
L 2976 5318 
z
M 1126 2362 
L 5280 2362 
L 5280 -422 
L 5094 -422 
L 5094 2170 
L 1312 2170 
L 1312 -448 
L 1126 -448 
L 1126 2362 
z
" transform="scale(0.015625)"/>
      <path id="NotoSansSC-Thin-603b" d="M 4947 1370 
L 5094 1459 
Q 5286 1248 5468 1001 
Q 5651 755 5798 518 
Q 5946 282 6016 96 
L 5869 -19 
Q 5792 173 5645 416 
Q 5498 659 5315 908 
Q 5133 1158 4947 1370 
z
M 2592 1837 
L 2733 1952 
Q 2963 1798 3200 1600 
Q 3437 1402 3645 1203 
Q 3853 1005 3974 845 
L 3827 717 
Q 3706 883 3501 1081 
Q 3296 1280 3059 1481 
Q 2822 1683 2592 1837 
z
M 1894 1478 
L 2086 1478 
L 2086 26 
Q 2086 -109 2179 -153 
Q 2272 -198 2598 -198 
Q 2656 -198 2816 -198 
Q 2976 -198 3184 -198 
Q 3392 -198 3606 -198 
Q 3821 -198 3993 -198 
Q 4166 -198 4250 -198 
Q 4416 -198 4499 -147 
Q 4582 -96 4614 61 
Q 4646 218 4659 531 
Q 4685 518 4717 505 
Q 4749 493 4781 480 
Q 4813 467 4838 461 
Q 4819 128 4771 -54 
Q 4723 -237 4604 -304 
Q 4486 -371 4256 -371 
Q 4218 -371 4051 -371 
Q 3885 -371 3657 -371 
Q 3430 -371 3206 -371 
Q 2982 -371 2819 -371 
Q 2656 -371 2624 -371 
Q 2336 -371 2179 -342 
Q 2022 -314 1958 -227 
Q 1894 -141 1894 26 
L 1894 1478 
z
M 1030 1370 
L 1203 1331 
Q 1094 973 918 582 
Q 742 192 518 -70 
L 352 32 
Q 499 192 627 413 
Q 755 634 857 883 
Q 960 1133 1030 1370 
z
M 1792 5197 
L 1952 5267 
Q 2170 5011 2371 4704 
Q 2573 4397 2669 4173 
L 2502 4077 
Q 2445 4230 2333 4425 
Q 2221 4621 2080 4822 
Q 1939 5024 1792 5197 
z
M 4531 5286 
L 4710 5216 
Q 4525 4877 4291 4509 
Q 4058 4141 3840 3859 
L 3674 3942 
Q 3821 4122 3977 4362 
Q 4134 4602 4281 4845 
Q 4429 5088 4531 5286 
z
M 1491 3776 
L 1491 2323 
L 4928 2323 
L 4928 3776 
L 1491 3776 
z
M 1306 3968 
L 5114 3968 
L 5114 2131 
L 1306 2131 
L 1306 3968 
z
" transform="scale(0.015625)"/>
      <path id="NotoSansSC-Thin-6d41" d="M 1990 4416 
L 6029 4416 
L 6029 4230 
L 1990 4230 
L 1990 4416 
z
M 3770 2336 
L 3962 2336 
L 3962 -179 
L 3770 -179 
L 3770 2336 
z
M 2586 2355 
L 2771 2355 
L 2771 1632 
Q 2771 1363 2742 1091 
Q 2714 819 2618 550 
Q 2522 282 2330 29 
Q 2138 -224 1811 -448 
Q 1798 -429 1776 -406 
Q 1754 -384 1725 -358 
Q 1696 -333 1670 -320 
Q 2086 -38 2281 294 
Q 2477 627 2531 969 
Q 2586 1312 2586 1632 
L 2586 2355 
z
M 4602 3866 
L 4755 3955 
Q 4973 3738 5200 3475 
Q 5427 3213 5622 2966 
Q 5818 2720 5939 2528 
L 5779 2419 
Q 5664 2611 5469 2860 
Q 5274 3110 5046 3376 
Q 4819 3642 4602 3866 
z
M 4979 2355 
L 5171 2355 
L 5171 115 
Q 5171 -6 5180 -64 
Q 5190 -122 5222 -147 
Q 5242 -160 5280 -166 
Q 5318 -173 5363 -173 
Q 5408 -173 5488 -173 
Q 5568 -173 5626 -173 
Q 5683 -173 5737 -166 
Q 5792 -160 5818 -141 
Q 5875 -102 5901 38 
Q 5914 122 5917 298 
Q 5920 474 5926 717 
Q 5958 691 6000 668 
Q 6042 646 6086 634 
Q 6080 429 6070 211 
Q 6061 -6 6042 -83 
Q 6016 -224 5907 -294 
Q 5869 -320 5795 -333 
Q 5722 -346 5651 -346 
Q 5606 -346 5494 -346 
Q 5382 -346 5350 -346 
Q 5280 -346 5203 -330 
Q 5126 -314 5075 -282 
Q 5018 -237 4998 -150 
Q 4979 -64 4979 192 
L 4979 2355 
z
M 2170 2669 
Q 2163 2694 2150 2736 
Q 2138 2778 2125 2816 
Q 2112 2854 2099 2880 
Q 2170 2899 2269 2931 
Q 2368 2963 2445 3034 
Q 2509 3098 2649 3267 
Q 2790 3437 2960 3648 
Q 3130 3859 3280 4051 
Q 3430 4243 3507 4358 
L 3750 4358 
Q 3648 4218 3488 4006 
Q 3328 3795 3149 3568 
Q 2970 3341 2806 3145 
Q 2643 2950 2534 2829 
Q 2534 2829 2496 2819 
Q 2458 2810 2406 2797 
Q 2355 2784 2300 2761 
Q 2246 2739 2208 2716 
Q 2170 2694 2170 2669 
z
M 2170 2669 
L 2170 2835 
L 2362 2931 
L 5402 3117 
Q 5414 3072 5440 3021 
Q 5466 2970 5485 2938 
Q 4608 2880 4029 2838 
Q 3450 2797 3098 2771 
Q 2746 2746 2560 2730 
Q 2374 2714 2294 2698 
Q 2214 2682 2170 2669 
z
M 3635 5254 
L 3795 5299 
Q 3923 5069 4035 4797 
Q 4147 4525 4192 4339 
L 4019 4275 
Q 3974 4461 3862 4739 
Q 3750 5018 3635 5254 
z
M 627 5107 
L 762 5222 
Q 947 5094 1142 4940 
Q 1338 4787 1507 4630 
Q 1677 4474 1779 4346 
L 1651 4211 
Q 1542 4339 1372 4499 
Q 1203 4659 1008 4819 
Q 813 4979 627 5107 
z
M 314 3354 
L 429 3488 
Q 634 3398 848 3276 
Q 1062 3155 1251 3027 
Q 1440 2899 1562 2790 
L 1453 2630 
Q 1331 2746 1139 2877 
Q 947 3008 732 3133 
Q 518 3258 314 3354 
z
M 518 -224 
Q 691 26 908 381 
Q 1126 736 1344 1129 
Q 1562 1523 1741 1882 
L 1875 1760 
Q 1709 1421 1501 1037 
Q 1293 653 1078 291 
Q 864 -70 678 -358 
L 518 -224 
z
" transform="scale(0.015625)"/>
      <path id="NotoSansSC-Thin-51fa" d="M 3104 5312 
L 3296 5312 
L 3296 90 
L 3104 90 
L 3104 5312 
z
M 5453 2138 
L 5638 2138 
L 5638 -429 
L 5453 -429 
L 5453 2138 
z
M 1037 4698 
L 1222 4698 
L 1222 2803 
L 5197 2803 
L 5197 4698 
L 5382 4698 
L 5382 2618 
L 1037 2618 
L 1037 4698 
z
M 794 2144 
L 986 2144 
L 986 141 
L 5562 141 
L 5562 -51 
L 794 -51 
L 794 2144 
z
" transform="scale(0.015625)"/>
      <path id="NotoSansSC-Thin-25" d="M 1267 1818 
Q 966 1818 745 1987 
Q 525 2157 409 2483 
Q 294 2810 294 3283 
Q 294 3750 409 4070 
Q 525 4390 745 4560 
Q 966 4730 1267 4730 
Q 1574 4730 1795 4560 
Q 2016 4390 2131 4070 
Q 2246 3750 2246 3283 
Q 2246 2810 2131 2483 
Q 2016 2157 1795 1987 
Q 1574 1818 1267 1818 
z
M 1267 2003 
Q 1619 2003 1820 2342 
Q 2022 2682 2022 3283 
Q 2022 3885 1820 4214 
Q 1619 4544 1267 4544 
Q 922 4544 717 4214 
Q 512 3885 512 3283 
Q 512 2682 717 2342 
Q 922 2003 1267 2003 
z
M 1382 -83 
L 3987 4730 
L 4218 4730 
L 1619 -83 
L 1382 -83 
z
M 4365 -83 
Q 4058 -83 3840 86 
Q 3622 256 3504 582 
Q 3386 909 3386 1382 
Q 3386 1850 3504 2170 
Q 3622 2490 3840 2659 
Q 4058 2829 4365 2829 
Q 4666 2829 4883 2659 
Q 5101 2490 5219 2170 
Q 5338 1850 5338 1382 
Q 5338 909 5219 582 
Q 5101 256 4883 86 
Q 4666 -83 4365 -83 
z
M 4365 102 
Q 4704 102 4912 441 
Q 5120 781 5120 1382 
Q 5120 1984 4912 2313 
Q 4704 2643 4365 2643 
Q 4013 2643 3808 2313 
Q 3603 1984 3603 1382 
Q 3603 781 3808 441 
Q 4013 102 4365 102 
z
" transform="scale(0.015625)"/>
     </defs>
     <use xlink:href="#NotoSansSC-Thin-5360"/>
     <use xlink:href="#NotoSansSC-Thin-603b" transform="translate(99.999985 0)"/>
     <use xlink:href="#NotoSansSC-Thin-6d41" transform="translate(199.999969 0)"/>
     <use xlink:href="#NotoSansSC-Thin-51fa" transform="translate(299.999954 0)"/>
     <use xlink:href="#NotoSansSC-Thin-35" transform="translate(399.999939 0)"/>
     <use xlink:href="#NotoSansSC-Thin-34" transform="translate(452.09993 0)"/>
     <use xlink:href="#NotoSansSC-Thin-2e" transform="translate(504.199921 0)"/>
     <use xlink:href="#NotoSansSC-Thin-36" transform="translate(527.299911 0)"/>
     <use xlink:href="#NotoSansSC-Thin-25" transform="translate(579.399902 0)"/>
    </g>
   </g>
   <g id="legend_1">
    <g id="line2d_20">
     <path d="M 95.54 278.27385 
L 101.54 278.27385 
L 107.54 278.27385 
" style="fill: none; stroke: #059669; stroke-opacity: 0.75; stroke-width: 8; stroke-linecap: square"/>
     <defs>
      <path id="m21639bde9c" d="M 0 3 
C 0.795609 3 1.55874 2.683901 2.12132 2.12132 
C 2.683901 1.55874 3 0.795609 3 0 
C 3 -0.795609 2.683901 -1.55874 2.12132 -2.12132 
C 1.55874 -2.683901 0.795609 -3 0 -3 
C -0.795609 -3 -1.55874 -2.683901 -2.12132 -2.12132 
C -2.683901 -1.55874 -3 -0.795609 -3 0 
C -3 0.795609 -2.683901 1.55874 -2.12132 2.12132 
C -1.55874 2.683901 -0.795609 3 0 3 
z
" style="stroke: #059669; stroke-opacity: 0.75; stroke-width: 1.5"/>
     </defs>
     <g>
      <use xlink:href="#m21639bde9c" x="101.54" y="278.27385" style="fill: #059669; fill-opacity: 0.75; stroke: #059669; stroke-opacity: 0.75; stroke-width: 1.5"/>
     </g>
    </g>
    <g id="text_18">
     <!-- 流出 -->
     <g style="fill: #1e293b" transform="translate(111.54 281.07385) scale(0.08 -0.08)">
      <use xlink:href="#NotoSansSC-Thin-6d41"/>
      <use xlink:href="#NotoSansSC-Thin-51fa" transform="translate(99.999985 0)"/>
     </g>
    </g>
    <g id="line2d_21">
     <path d="M 143.54 278.27385 
L 149.54 278.27385 
L 155.54 278.27385 
" style="fill: none; stroke: #dc2626; stroke-opacity: 0.75; stroke-width: 8; stroke-linecap: square"/>
     <defs>
      <path id="m3cf9e83528" d="M 0 3 
C 0.795609 3 1.55874 2.683901 2.12132 2.12132 
C 2.683901 1.55874 3 0.795609 3 0 
C 3 -0.795609 2.683901 -1.55874 2.12132 -2.12132 
C 1.55874 -2.683901 0.795609 -3 0 -3 
C -0.795609 -3 -1.55874 -2.683901 -2.12132 -2.12132 
C -2.683901 -1.55874 -3 -0.795609 -3 0 
C -3 0.795609 -2.683901 1.55874 -2.12132 2.12132 
C -1.55874 2.683901 -0.795609 3 0 3 
z
" style="stroke: #dc2626; stroke-opacity: 0.75; stroke-width: 1.5"/>
     </defs>
     <g>
      <use xlink:href="#m3cf9e83528" x="149.54" y="278.27385" style="fill: #dc2626; fill-opacity: 0.75; stroke: #dc2626; stroke-opacity: 0.75; stroke-width: 1.5"/>
     </g>
    </g>
    <g id="text_19">
     <!-- 流入 -->
     <g style="fill: #1e293b" transform="translate(159.54 281.07385) scale(0.08 -0.08)">
      <defs>
       <path id="NotoSansSC-Thin-5165" d="M 2042 4922 
L 2157 5082 
Q 2598 4774 2908 4406 
Q 3219 4038 3446 3632 
Q 3674 3226 3866 2803 
Q 4058 2381 4256 1961 
Q 4454 1542 4697 1155 
Q 4941 768 5273 429 
Q 5606 90 6080 -179 
Q 6061 -205 6038 -240 
Q 6016 -275 6000 -310 
Q 5984 -346 5978 -378 
Q 5498 -109 5155 236 
Q 4813 582 4563 979 
Q 4314 1376 4109 1798 
Q 3904 2221 3712 2649 
Q 3520 3078 3293 3484 
Q 3066 3891 2765 4259 
Q 2464 4627 2042 4922 
z
M 3098 3866 
L 3302 3827 
Q 3072 2803 2704 2003 
Q 2336 1203 1795 601 
Q 1254 0 499 -435 
Q 480 -416 448 -390 
Q 416 -365 384 -336 
Q 352 -307 320 -288 
Q 1466 320 2118 1357 
Q 2771 2394 3098 3866 
z
" transform="scale(0.015625)"/>
      </defs>
      <use xlink:href="#NotoSansSC-Thin-6d41"/>
      <use xlink:href="#NotoSansSC-Thin-5165" transform="translate(99.999985 0)"/>
     </g>
    </g>
   </g>
  </g>
 </g>
 <defs>
  <clipPath id="p4d9d6d5054">
   <path d="M 260.28 135.54 
C 260.28 119.159293 257.053358 102.937868 250.784733 87.804069 
C 244.516108 72.670269 235.327409 58.918409 223.7445 47.3355 
C 212.161591 35.752591 198.409731 26.563892 183.275931 20.295267 
C 168.142132 14.026642 151.920707 10.8 135.54 10.8 
C 119.159293 10.8 102.937868 14.026642 87.804069 20.295267 
C 72.670269 26.563892 58.918409 35.752591 47.3355 47.3355 
C 35.752591 58.918409 26.563892 72.670269 20.295267 87.804069 
C 14.026642 102.937868 10.8 119.159293 10.8 135.54 
C 10.8 151.920707 14.026642 168.142132 20.295267 183.275931 
C 26.563892 198.409731 35.752591 212.161591 47.3355 223.7445 
C 58.918409 235.327409 72.670269 244.516108 87.804069 250.784733 
C 102.937868 257.053358 119.159293 260.28 135.54 260.28 
C 151.920707 260.28 168.142132 257.053358 183.275931 250.784733 
C 198.409731 244.516108 212.161591 235.327409 223.7445 223.7445 
C 235.327409 212.161591 244.516108 198.409731 250.784733 183.275931 
C 257.053358 168.142132 260.28 151.920707 260.28 135.54 
M 135.54 135.54 
C 135.54 135.54 135.54 135.54 135.54 135.54 
C 135.54 135.54 135.54 135.54 135.54 135.54 
C 135.54 135.54 135.54 135.54 135.54 135.54 
C 135.54 135.54 135.54 135.54 135.54 135.54 
C 135.54 135.54 135.54 135.54 135.54 135.54 
C 135.54 135.54 135.54 135.54 135.54 135.54 
C 135.54 135.54 135.54 135.54 135.54 135.54 
C 135.54 135.54 135.54 135.54 135.54 135.54 
C 135.54 135.54 135.54 135.54 135.54 135.54 
C 135.54 135.54 135.54 135.54 135.54 135.54 
C 135.54 135.54 135.54 135.54 135.54 135.54 
C 135.54 135.54 135.54 135.54 135.54 135.54 
C 135.54 135.54 135.54 135.54 135.54 135.54 
C 135.54 135.54 135.54 135.54 135.54 135.54 
C 135.54 135.54 135.54 135.54 135.54 135.54 
C 135.54 135.54 135.54 135.54 135.54 135.54 
z
"/>
  </clipPath>
 </defs>
</svg>
