<?xml version="1.0" encoding="utf-8" standalone="no"?>
<!DOCTYPE svg PUBLIC "-//W3C//DTD SVG 1.1//EN"
  "http://www.w3.org/Graphics/SVG/1.1/DTD/svg11.dtd">
<svg xmlns:xlink="http://www.w3.org/1999/xlink" width="395.516094pt" height="292.109pt" viewBox="0 0 395.516094 292.109" xmlns="http://www.w3.org/2000/svg" version="1.1">
 <metadata>
  <rdf:RDF xmlns:dc="http://purl.org/dc/elements/1.1/" xmlns:cc="http://creativecommons.org/ns#" xmlns:rdf="http://www.w3.org/1999/02/22-rdf-syntax-ns#">
   <cc:Work>
    <dc:type rdf:resource="http://purl.org/dc/dcmitype/StillImage"/>
    <dc:date>2026-05-29T19:10:30.453598</dc:date>
    <dc:format>image/svg+xml</dc:format>
    <dc:creator>
     <cc:Agent>
      <dc:title>Matplotlib v3.10.9, https://matplotlib.org/</dc:title>
     </cc:Agent>
    </dc:creator>
   </cc:Work>
  </rdf:RDF>
 </metadata>
 <defs>
  <style type="text/css">*{stroke-linejoin: round; stroke-linecap: butt}</style>
 </defs>
 <g id="figure_1">
  <g id="patch_1">
   <path d="M 0 292.109 
L 395.516094 292.109 
L 395.516094 0 
L 0 0 
z
" style="fill: #f0f2f5"/>
  </g>
  <g id="axes_1">
   <g id="patch_2">
    <path d="M 62.863438 255.142437 
L 377.683438 255.142437 
L 377.683438 80.038437 
L 62.863438 80.038437 
z
" style="fill: #ffffff"/>
   </g>
   <g id="matplotlib.axis_1">
    <g id="xtick_1">
     <g id="line2d_1">
      <path d="M 86.183437 255.142437 
L 86.183437 80.038437 
" clip-path="url(#paa02fe8555)" style="fill: none; stroke: #e2e8f0; stroke-opacity: 0.4; stroke-width: 0.5; stroke-linecap: square"/>
     </g>
     <g id="line2d_2"/>
     <g id="text_1">
      <!-- -400 -->
      <g style="fill: #94a3b8" transform="translate(77.6925 265.789) scale(0.09 -0.09)">
       <defs>
        <path id="NotoSansSC-Thin-2d" d="M 282 1638 
L 282 1862 
L 1811 1862 
L 1811 1638 
L 282 1638 
z
" transform="scale(0.015625)"/>
        <path id="NotoSansSC-Thin-34" d="M 2195 0 
L 2195 3482 
Q 2195 3629 2204 3843 
Q 2214 4058 2227 4205 
L 2195 4205 
Q 2112 4058 2019 3901 
Q 1926 3744 1830 3590 
L 422 1568 
L 3110 1568 
L 3110 1363 
L 115 1363 
L 115 1485 
L 2259 4646 
L 2419 4646 
L 2419 0 
L 2195 0 
z
" transform="scale(0.015625)"/>
        <path id="NotoSansSC-Thin-30" d="M 1670 -83 
Q 1261 -83 963 179 
Q 666 442 509 979 
Q 352 1517 352 2336 
Q 352 3149 509 3677 
Q 666 4205 963 4467 
Q 1261 4730 1670 4730 
Q 2080 4730 2371 4467 
Q 2662 4205 2822 3677 
Q 2982 3149 2982 2336 
Q 2982 1517 2822 979 
Q 2662 442 2371 179 
Q 2080 -83 1670 -83 
z
M 1670 128 
Q 1997 128 2240 384 
Q 2483 640 2614 1133 
Q 2746 1626 2746 2336 
Q 2746 3040 2614 3529 
Q 2483 4019 2240 4272 
Q 1997 4525 1670 4525 
Q 1344 4525 1101 4272 
Q 858 4019 723 3529 
Q 589 3040 589 2336 
Q 589 1626 723 1133 
Q 858 640 1101 384 
Q 1344 128 1670 128 
z
" transform="scale(0.015625)"/>
       </defs>
       <use xlink:href="#NotoSansSC-Thin-2d"/>
       <use xlink:href="#NotoSansSC-Thin-34" transform="translate(32.399994 0)"/>
       <use xlink:href="#NotoSansSC-Thin-30" transform="translate(84.499985 0)"/>
       <use xlink:href="#NotoSansSC-Thin-30" transform="translate(136.599976 0)"/>
      </g>
     </g>
    </g>
    <g id="xtick_2">
     <g id="line2d_3">
      <path d="M 144.483437 255.142437 
L 144.483437 80.038437 
" clip-path="url(#paa02fe8555)" style="fill: none; stroke: #e2e8f0; stroke-opacity: 0.4; stroke-width: 0.5; stroke-linecap: square"/>
     </g>
     <g id="line2d_4"/>
     <g id="text_2">
      <!-- -300 -->
      <g style="fill: #94a3b8" transform="translate(135.9925 265.789) scale(0.09 -0.09)">
       <defs>
        <path id="NotoSansSC-Thin-33" d="M 1619 -83 
Q 1261 -83 998 13 
Q 736 109 544 256 
Q 352 403 211 550 
L 358 717 
Q 563 499 857 313 
Q 1152 128 1632 128 
Q 1952 128 2198 262 
Q 2445 397 2585 640 
Q 2726 883 2726 1210 
Q 2726 1542 2560 1795 
Q 2394 2048 2038 2189 
Q 1683 2330 1114 2330 
L 1114 2554 
Q 1651 2554 1964 2698 
Q 2278 2842 2416 3088 
Q 2554 3334 2554 3629 
Q 2554 4026 2298 4272 
Q 2042 4518 1606 4518 
Q 1293 4518 1017 4374 
Q 742 4230 557 4026 
L 410 4192 
Q 634 4410 925 4570 
Q 1216 4730 1606 4730 
Q 1939 4730 2211 4598 
Q 2483 4467 2643 4224 
Q 2803 3981 2803 3642 
Q 2803 3168 2550 2877 
Q 2298 2586 1926 2464 
L 1926 2438 
Q 2208 2381 2445 2221 
Q 2682 2061 2826 1808 
Q 2970 1555 2970 1222 
Q 2970 826 2790 531 
Q 2611 237 2307 77 
Q 2003 -83 1619 -83 
z
" transform="scale(0.015625)"/>
       </defs>
       <use xlink:href="#NotoSansSC-Thin-2d"/>
       <use xlink:href="#NotoSansSC-Thin-33" transform="translate(32.399994 0)"/>
       <use xlink:href="#NotoSansSC-Thin-30" transform="translate(84.499985 0)"/>
       <use xlink:href="#NotoSansSC-Thin-30" transform="translate(136.599976 0)"/>
      </g>
     </g>
    </g>
    <g id="xtick_3">
     <g id="line2d_5">
      <path d="M 202.783437 255.142437 
L 202.783437 80.038437 
" clip-path="url(#paa02fe8555)" style="fill: none; stroke: #e2e8f0; stroke-opacity: 0.4; stroke-width: 0.5; stroke-linecap: square"/>
     </g>
     <g id="line2d_6"/>
     <g id="text_3">
      <!-- -200 -->
      <g style="fill: #94a3b8" transform="translate(194.2925 265.789) scale(0.09 -0.09)">
       <defs>
        <path id="NotoSansSC-Thin-32" d="M 294 0 
L 294 147 
Q 1120 858 1613 1434 
Q 2106 2010 2323 2499 
Q 2541 2989 2541 3424 
Q 2541 3725 2435 3974 
Q 2330 4224 2106 4371 
Q 1882 4518 1523 4518 
Q 1210 4518 931 4352 
Q 653 4186 442 3923 
L 282 4070 
Q 525 4346 829 4538 
Q 1133 4730 1542 4730 
Q 1939 4730 2214 4566 
Q 2490 4403 2637 4112 
Q 2784 3821 2784 3424 
Q 2784 2918 2537 2406 
Q 2291 1894 1820 1347 
Q 1350 800 678 179 
Q 870 192 1062 201 
Q 1254 211 1440 211 
L 3014 211 
L 3014 0 
L 294 0 
z
" transform="scale(0.015625)"/>
       </defs>
       <use xlink:href="#NotoSansSC-Thin-2d"/>
       <use xlink:href="#NotoSansSC-Thin-32" transform="translate(32.399994 0)"/>
       <use xlink:href="#NotoSansSC-Thin-30" transform="translate(84.499985 0)"/>
       <use xlink:href="#NotoSansSC-Thin-30" transform="translate(136.599976 0)"/>
      </g>
     </g>
    </g>
    <g id="xtick_4">
     <g id="line2d_7">
      <path d="M 261.083438 255.142437 
L 261.083438 80.038437 
" clip-path="url(#paa02fe8555)" style="fill: none; stroke: #e2e8f0; stroke-opacity: 0.4; stroke-width: 0.5; stroke-linecap: square"/>
     </g>
     <g id="line2d_8"/>
     <g id="text_4">
      <!-- -100 -->
      <g style="fill: #94a3b8" transform="translate(252.5925 265.789) scale(0.09 -0.09)">
       <defs>
        <path id="NotoSansSC-Thin-31" d="M 608 0 
L 608 211 
L 1677 211 
L 1677 4211 
L 864 4211 
L 864 4378 
Q 1133 4422 1344 4492 
Q 1555 4563 1702 4646 
L 1901 4646 
L 1901 211 
L 2899 211 
L 2899 0 
L 608 0 
z
" transform="scale(0.015625)"/>
       </defs>
       <use xlink:href="#NotoSansSC-Thin-2d"/>
       <use xlink:href="#NotoSansSC-Thin-31" transform="translate(32.399994 0)"/>
       <use xlink:href="#NotoSansSC-Thin-30" transform="translate(84.499985 0)"/>
       <use xlink:href="#NotoSansSC-Thin-30" transform="translate(136.599976 0)"/>
      </g>
     </g>
    </g>
    <g id="xtick_5">
     <g id="line2d_9">
      <path d="M 319.383438 255.142437 
L 319.383438 80.038437 
" clip-path="url(#paa02fe8555)" style="fill: none; stroke: #e2e8f0; stroke-opacity: 0.4; stroke-width: 0.5; stroke-linecap: square"/>
     </g>
     <g id="line2d_10"/>
     <g id="text_5">
      <!-- 0 -->
      <g style="fill: #94a3b8" transform="translate(317.039219 265.789) scale(0.09 -0.09)">
       <use xlink:href="#NotoSansSC-Thin-30"/>
      </g>
     </g>
    </g>
    <g id="xtick_6">
     <g id="line2d_11">
      <path d="M 377.683438 255.142437 
L 377.683438 80.038437 
" clip-path="url(#paa02fe8555)" style="fill: none; stroke: #e2e8f0; stroke-opacity: 0.4; stroke-width: 0.5; stroke-linecap: square"/>
     </g>
     <g id="line2d_12"/>
     <g id="text_6">
      <!-- 100 -->
      <g style="fill: #94a3b8" transform="translate(370.650781 265.789) scale(0.09 -0.09)">
       <use xlink:href="#NotoSansSC-Thin-31"/>
       <use xlink:href="#NotoSansSC-Thin-30" transform="translate(52.099991 0)"/>
       <use xlink:href="#NotoSansSC-Thin-30" transform="translate(104.199982 0)"/>
      </g>
     </g>
    </g>
    <g id="text_7">
     <!-- 资金净流向 (亿元) -->
     <g style="fill: #64748b" transform="translate(185.091875 279.122281) scale(0.09 -0.09)">
      <defs>
       <path id="NotoSansSC-Thin-8d44" d="M 627 4864 
L 736 5011 
Q 986 4934 1248 4825 
Q 1510 4717 1740 4592 
Q 1971 4467 2118 4352 
L 2016 4179 
Q 1869 4294 1635 4422 
Q 1402 4550 1139 4665 
Q 877 4781 627 4864 
z
M 352 3040 
Q 698 3142 1178 3289 
Q 1658 3437 2182 3597 
L 2202 3411 
Q 1722 3264 1251 3120 
Q 781 2976 410 2854 
L 352 3040 
z
M 3232 5318 
L 3424 5293 
Q 3264 4928 2982 4525 
Q 2701 4122 2285 3782 
Q 2266 3808 2240 3827 
Q 2214 3846 2188 3865 
Q 2163 3885 2138 3898 
Q 2547 4205 2819 4595 
Q 3091 4986 3232 5318 
z
M 2976 4678 
L 5658 4678 
L 5658 4493 
L 2842 4493 
L 2976 4678 
z
M 5600 4678 
L 5645 4678 
L 5683 4691 
L 5811 4634 
Q 5664 4397 5513 4153 
Q 5363 3910 5229 3744 
L 5069 3814 
Q 5197 3974 5341 4198 
Q 5485 4422 5600 4640 
L 5600 4678 
z
M 1286 2362 
L 5178 2362 
L 5178 576 
L 4986 576 
L 4986 2170 
L 1478 2170 
L 1478 557 
L 1286 557 
L 1286 2362 
z
M 3206 1958 
L 3405 1958 
Q 3328 1421 3152 1014 
Q 2976 608 2653 317 
Q 2330 26 1808 -163 
Q 1286 -352 512 -461 
Q 506 -435 490 -409 
Q 474 -384 458 -358 
Q 442 -333 422 -314 
Q 1184 -211 1693 -28 
Q 2202 154 2509 429 
Q 2816 704 2979 1081 
Q 3142 1459 3206 1958 
z
M 3360 646 
L 3450 806 
Q 3770 698 4115 566 
Q 4461 435 4793 294 
Q 5126 154 5414 16 
Q 5702 -122 5907 -237 
L 5824 -422 
Q 5613 -307 5321 -166 
Q 5030 -26 4697 118 
Q 4365 262 4022 400 
Q 3680 538 3360 646 
z
M 4006 4570 
L 4211 4570 
Q 4128 4230 3971 3929 
Q 3814 3629 3574 3376 
Q 3334 3123 2985 2924 
Q 2637 2726 2163 2592 
Q 2144 2624 2112 2669 
Q 2080 2714 2048 2733 
Q 2515 2854 2851 3043 
Q 3187 3232 3417 3472 
Q 3648 3712 3789 3990 
Q 3930 4269 4006 4570 
z
M 3987 4070 
Q 4173 3763 4486 3504 
Q 4800 3245 5193 3056 
Q 5587 2867 6010 2771 
Q 5978 2746 5942 2701 
Q 5907 2656 5882 2618 
Q 5459 2733 5062 2934 
Q 4666 3136 4342 3411 
Q 4019 3686 3827 4006 
L 3987 4070 
z
" transform="scale(0.015625)"/>
       <path id="NotoSansSC-Thin-91d1" d="M 1613 3334 
L 4806 3334 
L 4806 3142 
L 1613 3142 
L 1613 3334 
z
M 717 2067 
L 5715 2067 
L 5715 1875 
L 717 1875 
L 717 2067 
z
M 454 -32 
L 5958 -32 
L 5958 -218 
L 454 -218 
L 454 -32 
z
M 3085 3270 
L 3277 3270 
L 3277 -147 
L 3085 -147 
L 3085 3270 
z
M 1382 1478 
L 1549 1536 
Q 1683 1344 1808 1117 
Q 1933 890 2035 675 
Q 2138 461 2189 294 
L 2016 224 
Q 1965 390 1865 608 
Q 1766 826 1641 1056 
Q 1517 1286 1382 1478 
z
M 4826 1555 
L 5005 1466 
Q 4832 1152 4614 803 
Q 4397 454 4205 211 
L 4058 288 
Q 4186 454 4326 678 
Q 4467 902 4601 1136 
Q 4736 1370 4826 1555 
z
M 3290 5107 
Q 3526 4806 3859 4512 
Q 4192 4218 4579 3952 
Q 4966 3686 5369 3475 
Q 5773 3264 6144 3130 
Q 6118 3110 6092 3081 
Q 6067 3053 6041 3024 
Q 6016 2995 5997 2963 
Q 5632 3110 5232 3331 
Q 4832 3552 4441 3827 
Q 4051 4102 3712 4409 
Q 3373 4717 3130 5024 
L 3290 5107 
z
M 3277 5363 
L 3443 5280 
Q 3117 4794 2633 4346 
Q 2150 3898 1577 3542 
Q 1005 3187 397 2957 
Q 371 2995 332 3046 
Q 294 3098 256 3123 
Q 858 3341 1434 3683 
Q 2010 4026 2490 4458 
Q 2970 4890 3277 5363 
z
" transform="scale(0.015625)"/>
       <path id="NotoSansSC-Thin-51c0" d="M 2810 4762 
L 4621 4762 
L 4621 4576 
L 2810 4576 
L 2810 4762 
z
M 2035 1427 
L 5427 1427 
L 5427 1235 
L 2035 1235 
L 2035 1427 
z
M 1664 2560 
L 6074 2560 
L 6074 2374 
L 1664 2374 
L 1664 2560 
z
M 2195 3661 
L 5498 3661 
L 5498 954 
L 5306 954 
L 5306 3469 
L 2195 3469 
L 2195 3661 
z
M 3635 3584 
L 3821 3584 
L 3821 -128 
Q 3821 -262 3776 -326 
Q 3731 -390 3629 -416 
Q 3526 -442 3305 -445 
Q 3085 -448 2707 -448 
Q 2701 -416 2675 -361 
Q 2650 -307 2624 -262 
Q 2944 -269 3181 -269 
Q 3418 -269 3501 -262 
Q 3578 -256 3606 -230 
Q 3635 -205 3635 -134 
L 3635 3584 
z
M 3046 5318 
L 3238 5267 
Q 3066 4877 2842 4502 
Q 2618 4128 2362 3798 
Q 2106 3469 1837 3213 
Q 1824 3232 1795 3257 
Q 1766 3283 1737 3308 
Q 1709 3334 1683 3347 
Q 1958 3590 2211 3907 
Q 2464 4224 2678 4585 
Q 2893 4947 3046 5318 
z
M 4557 4762 
L 4595 4762 
L 4627 4774 
L 4749 4691 
Q 4659 4480 4528 4265 
Q 4397 4051 4253 3859 
Q 4109 3667 3968 3520 
Q 3942 3546 3894 3571 
Q 3846 3597 3814 3616 
Q 3955 3757 4096 3942 
Q 4237 4128 4358 4333 
Q 4480 4538 4557 4717 
L 4557 4762 
z
M 397 4922 
L 544 5011 
Q 730 4806 915 4569 
Q 1101 4333 1257 4105 
Q 1414 3878 1504 3706 
L 1350 3603 
Q 1261 3776 1104 4006 
Q 947 4237 764 4480 
Q 582 4723 397 4922 
z
M 397 -19 
Q 544 237 726 595 
Q 909 954 1088 1344 
Q 1267 1734 1414 2093 
L 1555 1971 
Q 1421 1638 1248 1254 
Q 1075 870 899 508 
Q 723 147 563 -141 
L 397 -19 
z
" transform="scale(0.015625)"/>
       <path id="NotoSansSC-Thin-6d41" d="M 1990 4416 
L 6029 4416 
L 6029 4230 
L 1990 4230 
L 1990 4416 
z
M 3770 2336 
L 3962 2336 
L 3962 -179 
L 3770 -179 
L 3770 2336 
z
M 2586 2355 
L 2771 2355 
L 2771 1632 
Q 2771 1363 2742 1091 
Q 2714 819 2618 550 
Q 2522 282 2330 29 
Q 2138 -224 1811 -448 
Q 1798 -429 1776 -406 
Q 1754 -384 1725 -358 
Q 1696 -333 1670 -320 
Q 2086 -38 2281 294 
Q 2477 627 2531 969 
Q 2586 1312 2586 1632 
L 2586 2355 
z
M 4602 3866 
L 4755 3955 
Q 4973 3738 5200 3475 
Q 5427 3213 5622 2966 
Q 5818 2720 5939 2528 
L 5779 2419 
Q 5664 2611 5469 2860 
Q 5274 3110 5046 3376 
Q 4819 3642 4602 3866 
z
M 4979 2355 
L 5171 2355 
L 5171 115 
Q 5171 -6 5180 -64 
Q 5190 -122 5222 -147 
Q 5242 -160 5280 -166 
Q 5318 -173 5363 -173 
Q 5408 -173 5488 -173 
Q 5568 -173 5626 -173 
Q 5683 -173 5737 -166 
Q 5792 -160 5818 -141 
Q 5875 -102 5901 38 
Q 5914 122 5917 298 
Q 5920 474 5926 717 
Q 5958 691 6000 668 
Q 6042 646 6086 634 
Q 6080 429 6070 211 
Q 6061 -6 6042 -83 
Q 6016 -224 5907 -294 
Q 5869 -320 5795 -333 
Q 5722 -346 5651 -346 
Q 5606 -346 5494 -346 
Q 5382 -346 5350 -346 
Q 5280 -346 5203 -330 
Q 5126 -314 5075 -282 
Q 5018 -237 4998 -150 
Q 4979 -64 4979 192 
L 4979 2355 
z
M 2170 2669 
Q 2163 2694 2150 2736 
Q 2138 2778 2125 2816 
Q 2112 2854 2099 2880 
Q 2170 2899 2269 2931 
Q 2368 2963 2445 3034 
Q 2509 3098 2649 3267 
Q 2790 3437 2960 3648 
Q 3130 3859 3280 4051 
Q 3430 4243 3507 4358 
L 3750 4358 
Q 3648 4218 3488 4006 
Q 3328 3795 3149 3568 
Q 2970 3341 2806 3145 
Q 2643 2950 2534 2829 
Q 2534 2829 2496 2819 
Q 2458 2810 2406 2797 
Q 2355 2784 2300 2761 
Q 2246 2739 2208 2716 
Q 2170 2694 2170 2669 
z
M 2170 2669 
L 2170 2835 
L 2362 2931 
L 5402 3117 
Q 5414 3072 5440 3021 
Q 5466 2970 5485 2938 
Q 4608 2880 4029 2838 
Q 3450 2797 3098 2771 
Q 2746 2746 2560 2730 
Q 2374 2714 2294 2698 
Q 2214 2682 2170 2669 
z
M 3635 5254 
L 3795 5299 
Q 3923 5069 4035 4797 
Q 4147 4525 4192 4339 
L 4019 4275 
Q 3974 4461 3862 4739 
Q 3750 5018 3635 5254 
z
M 627 5107 
L 762 5222 
Q 947 5094 1142 4940 
Q 1338 4787 1507 4630 
Q 1677 4474 1779 4346 
L 1651 4211 
Q 1542 4339 1372 4499 
Q 1203 4659 1008 4819 
Q 813 4979 627 5107 
z
M 314 3354 
L 429 3488 
Q 634 3398 848 3276 
Q 1062 3155 1251 3027 
Q 1440 2899 1562 2790 
L 1453 2630 
Q 1331 2746 1139 2877 
Q 947 3008 732 3133 
Q 518 3258 314 3354 
z
M 518 -224 
Q 691 26 908 381 
Q 1126 736 1344 1129 
Q 1562 1523 1741 1882 
L 1875 1760 
Q 1709 1421 1501 1037 
Q 1293 653 1078 291 
Q 864 -70 678 -358 
L 518 -224 
z
" transform="scale(0.015625)"/>
       <path id="NotoSansSC-Thin-5411" d="M 710 4179 
L 5632 4179 
L 5632 3987 
L 896 3987 
L 896 -454 
L 710 -454 
L 710 4179 
z
M 5549 4179 
L 5734 4179 
L 5734 -64 
Q 5734 -224 5683 -304 
Q 5632 -384 5498 -416 
Q 5357 -442 5065 -445 
Q 4774 -448 4326 -448 
Q 4320 -416 4307 -381 
Q 4294 -346 4278 -304 
Q 4262 -262 4243 -230 
Q 4518 -237 4752 -240 
Q 4986 -243 5149 -240 
Q 5312 -237 5382 -237 
Q 5485 -230 5517 -195 
Q 5549 -160 5549 -70 
L 5549 4179 
z
M 2950 5344 
L 3155 5286 
Q 3034 4986 2883 4640 
Q 2733 4294 2592 4045 
L 2419 4102 
Q 2509 4269 2608 4489 
Q 2707 4710 2800 4937 
Q 2893 5165 2950 5344 
z
M 1952 2912 
L 2138 2912 
L 2138 397 
L 1952 397 
L 1952 2912 
z
M 2061 2912 
L 4454 2912 
L 4454 870 
L 2061 870 
L 2061 1062 
L 4269 1062 
L 4269 2720 
L 2061 2720 
L 2061 2912 
z
" transform="scale(0.015625)"/>
       <path id="NotoSansSC-Thin-20" transform="scale(0.015625)"/>
       <path id="NotoSansSC-Thin-28" d="M 1562 -1222 
Q 1133 -525 883 252 
Q 634 1030 634 1958 
Q 634 2886 883 3667 
Q 1133 4448 1562 5146 
L 1696 5056 
Q 1274 4390 1059 3596 
Q 845 2803 845 1958 
Q 845 1114 1059 320 
Q 1274 -474 1696 -1139 
L 1562 -1222 
z
" transform="scale(0.015625)"/>
       <path id="NotoSansSC-Thin-4ebf" d="M 2515 4525 
L 5568 4525 
L 5568 4333 
L 2515 4333 
L 2515 4525 
z
M 5555 4525 
L 5581 4525 
L 5632 4538 
L 5766 4474 
Q 5760 4461 5744 4448 
Q 5728 4435 5715 4422 
Q 4986 3616 4470 3024 
Q 3955 2432 3612 2019 
Q 3270 1606 3072 1337 
Q 2874 1069 2778 902 
Q 2682 736 2653 637 
Q 2624 538 2624 467 
Q 2624 288 2803 208 
Q 2982 128 3245 128 
L 5229 122 
Q 5408 122 5497 230 
Q 5587 339 5622 640 
Q 5658 941 5677 1510 
Q 5709 1485 5769 1469 
Q 5830 1453 5869 1446 
Q 5850 960 5814 659 
Q 5779 358 5715 201 
Q 5651 45 5536 -9 
Q 5421 -64 5235 -64 
L 3283 -64 
Q 2854 -64 2643 70 
Q 2432 205 2432 461 
Q 2432 544 2457 653 
Q 2483 762 2579 934 
Q 2675 1107 2873 1388 
Q 3072 1670 3414 2089 
Q 3757 2509 4281 3107 
Q 4806 3706 5555 4525 
z
M 2003 5306 
L 2182 5254 
Q 1971 4717 1692 4205 
Q 1414 3693 1091 3248 
Q 768 2803 422 2451 
Q 410 2470 384 2499 
Q 358 2528 332 2560 
Q 307 2592 282 2605 
Q 627 2938 944 3370 
Q 1261 3802 1533 4298 
Q 1805 4794 2003 5306 
z
M 1370 3930 
L 1542 4102 
L 1555 4096 
L 1555 -429 
L 1370 -429 
L 1370 3930 
z
" transform="scale(0.015625)"/>
       <path id="NotoSansSC-Thin-5143" d="M 3872 2835 
L 4058 2835 
L 4058 109 
Q 4058 -45 4128 -93 
Q 4198 -141 4416 -141 
Q 4467 -141 4611 -141 
Q 4755 -141 4934 -141 
Q 5114 -141 5267 -141 
Q 5421 -141 5498 -141 
Q 5651 -141 5728 -51 
Q 5805 38 5833 300 
Q 5862 563 5869 1082 
Q 5901 1062 5933 1040 
Q 5965 1018 6000 1005 
Q 6035 992 6061 979 
Q 6048 461 6003 176 
Q 5958 -109 5846 -221 
Q 5734 -333 5498 -333 
Q 5459 -333 5302 -333 
Q 5146 -333 4957 -333 
Q 4768 -333 4614 -333 
Q 4461 -333 4422 -333 
Q 4211 -333 4089 -297 
Q 3968 -262 3920 -166 
Q 3872 -70 3872 109 
L 3872 2835 
z
M 422 2918 
L 5984 2918 
L 5984 2726 
L 422 2726 
L 422 2918 
z
M 960 4768 
L 5485 4768 
L 5485 4582 
L 960 4582 
L 960 4768 
z
M 2234 2784 
L 2426 2784 
Q 2381 2240 2285 1750 
Q 2189 1261 1987 845 
Q 1786 429 1437 102 
Q 1088 -224 544 -435 
Q 531 -410 489 -371 
Q 448 -333 416 -307 
Q 947 -102 1283 211 
Q 1619 525 1814 928 
Q 2010 1331 2102 1801 
Q 2195 2272 2234 2784 
z
" transform="scale(0.015625)"/>
       <path id="NotoSansSC-Thin-29" d="M 352 -1222 
L 211 -1139 
Q 634 -474 851 320 
Q 1069 1114 1069 1958 
Q 1069 2803 851 3596 
Q 634 4390 211 5056 
L 352 5146 
Q 787 4448 1033 3667 
Q 1280 2886 1280 1958 
Q 1280 1030 1033 252 
Q 787 -525 352 -1222 
z
" transform="scale(0.015625)"/>
      </defs>
      <use xlink:href="#NotoSansSC-Thin-8d44"/>
      <use xlink:href="#NotoSansSC-Thin-91d1" transform="translate(99.999985 0)"/>
      <use xlink:href="#NotoSansSC-Thin-51c0" transform="translate(199.999969 0)"/>
      <use xlink:href="#NotoSansSC-Thin-6d41" transform="translate(299.999954 0)"/>
      <use xlink:href="#NotoSansSC-Thin-5411" transform="translate(399.999939 0)"/>
      <use xlink:href="#NotoSansSC-Thin-20" transform="translate(499.999924 0)"/>
      <use xlink:href="#NotoSansSC-Thin-28" transform="translate(521.999908 0)"/>
      <use xlink:href="#NotoSansSC-Thin-4ebf" transform="translate(551.899902 0)"/>
      <use xlink:href="#NotoSansSC-Thin-5143" transform="translate(651.899887 0)"/>
      <use xlink:href="#NotoSansSC-Thin-29" transform="translate(751.899872 0)"/>
     </g>
    </g>
   </g>
   <g id="matplotlib.axis_2">
    <g id="ytick_1">
     <g id="line2d_13">
      <path d="M 62.863438 240.611288 
L 377.683438 240.611288 
" clip-path="url(#paa02fe8555)" style="fill: none; stroke: #e2e8f0; stroke-opacity: 0.6; stroke-width: 0.5; stroke-linecap: square"/>
     </g>
     <g id="line2d_14"/>
     <g id="text_8">
      <!-- 电子/半导体 -->
      <g style="fill: #94a3b8" transform="translate(10.8 244.184569) scale(0.09 -0.09)">
       <defs>
        <path id="NotoSansSC-Thin-7535" d="M 1030 2982 
L 5325 2982 
L 5325 2790 
L 1030 2790 
L 1030 2982 
z
M 3040 5331 
L 3226 5331 
L 3226 326 
Q 3226 154 3267 61 
Q 3309 -32 3417 -70 
Q 3526 -109 3731 -109 
Q 3795 -109 3958 -109 
Q 4122 -109 4330 -109 
Q 4538 -109 4749 -109 
Q 4960 -109 5136 -109 
Q 5312 -109 5395 -109 
Q 5587 -109 5686 -9 
Q 5786 90 5824 339 
Q 5862 589 5882 1037 
Q 5926 1005 5980 979 
Q 6035 954 6080 941 
Q 6054 474 6000 202 
Q 5946 -70 5805 -185 
Q 5664 -301 5370 -301 
Q 5331 -301 5168 -301 
Q 5005 -301 4784 -301 
Q 4563 -301 4342 -301 
Q 4122 -301 3958 -301 
Q 3795 -301 3757 -301 
Q 3482 -301 3325 -249 
Q 3168 -198 3104 -57 
Q 3040 83 3040 339 
L 3040 5331 
z
M 992 4378 
L 5459 4378 
L 5459 1350 
L 992 1350 
L 992 1536 
L 5267 1536 
L 5267 4192 
L 992 4192 
L 992 4378 
z
M 902 4378 
L 1107 4378 
L 1107 934 
L 902 934 
L 902 4378 
z
" transform="scale(0.015625)"/>
        <path id="NotoSansSC-Thin-5b50" d="M 358 2400 
L 6067 2400 
L 6067 2208 
L 358 2208 
L 358 2400 
z
M 1005 4819 
L 5325 4819 
L 5325 4627 
L 1005 4627 
L 1005 4819 
z
M 5248 4819 
L 5293 4819 
L 5338 4832 
L 5478 4730 
Q 5197 4454 4813 4176 
Q 4429 3898 4019 3654 
Q 3610 3411 3251 3238 
Q 3238 3264 3212 3286 
Q 3187 3309 3164 3331 
Q 3142 3354 3117 3366 
Q 3482 3533 3882 3769 
Q 4282 4006 4643 4268 
Q 5005 4531 5248 4774 
L 5248 4819 
z
M 3117 3366 
L 3309 3366 
L 3309 -96 
Q 3309 -256 3254 -323 
Q 3200 -390 3059 -416 
Q 2931 -442 2636 -448 
Q 2342 -454 1856 -454 
Q 1850 -429 1834 -397 
Q 1818 -365 1805 -326 
Q 1792 -288 1773 -256 
Q 2067 -262 2307 -265 
Q 2547 -269 2713 -265 
Q 2880 -262 2950 -262 
Q 3046 -250 3081 -218 
Q 3117 -186 3117 -102 
L 3117 3366 
z
" transform="scale(0.015625)"/>
        <path id="NotoSansSC-Thin-2f" d="M 58 -1126 
L 2298 5005 
L 2515 5005 
L 282 -1126 
L 58 -1126 
z
" transform="scale(0.015625)"/>
        <path id="NotoSansSC-Thin-534a" d="M 1056 5037 
L 1216 5114 
Q 1382 4883 1545 4617 
Q 1709 4352 1843 4102 
Q 1978 3853 2048 3661 
L 1882 3571 
Q 1811 3763 1680 4019 
Q 1549 4275 1385 4544 
Q 1222 4813 1056 5037 
z
M 5165 5120 
L 5350 5024 
Q 5216 4787 5053 4515 
Q 4890 4243 4723 3987 
Q 4557 3731 4403 3533 
L 4256 3616 
Q 4410 3808 4576 4073 
Q 4742 4339 4899 4617 
Q 5056 4896 5165 5120 
z
M 819 3174 
L 5619 3174 
L 5619 2989 
L 819 2989 
L 819 3174 
z
M 378 1690 
L 6029 1690 
L 6029 1498 
L 378 1498 
L 378 1690 
z
M 3085 5318 
L 3277 5318 
L 3277 -435 
L 3085 -435 
L 3085 5318 
z
" transform="scale(0.015625)"/>
        <path id="NotoSansSC-Thin-5bfc" d="M 429 1741 
L 6022 1741 
L 6022 1549 
L 429 1549 
L 429 1741 
z
M 4339 2368 
L 4531 2368 
L 4531 -90 
Q 4531 -218 4486 -282 
Q 4442 -346 4320 -371 
Q 4205 -397 3936 -403 
Q 3667 -410 3187 -410 
Q 3181 -371 3155 -323 
Q 3130 -275 3104 -230 
Q 3379 -237 3600 -237 
Q 3821 -237 3974 -233 
Q 4128 -230 4186 -230 
Q 4275 -224 4307 -195 
Q 4339 -166 4339 -96 
L 4339 2368 
z
M 1491 1344 
L 1638 1440 
Q 1837 1254 2032 1027 
Q 2227 800 2387 582 
Q 2547 365 2637 192 
L 2477 83 
Q 2394 262 2234 483 
Q 2074 704 1882 931 
Q 1690 1158 1491 1344 
z
M 954 4973 
L 1146 4973 
L 1146 3085 
Q 1146 2950 1210 2873 
Q 1274 2797 1456 2765 
Q 1638 2733 2003 2733 
Q 2093 2733 2307 2733 
Q 2522 2733 2810 2733 
Q 3098 2733 3418 2733 
Q 3738 2733 4038 2733 
Q 4339 2733 4572 2733 
Q 4806 2733 4928 2733 
Q 5203 2733 5337 2787 
Q 5472 2842 5526 3002 
Q 5581 3162 5600 3462 
Q 5651 3437 5705 3414 
Q 5760 3392 5805 3379 
Q 5779 3053 5705 2870 
Q 5632 2688 5453 2617 
Q 5274 2547 4922 2547 
Q 4870 2547 4652 2547 
Q 4435 2547 4128 2547 
Q 3821 2547 3481 2547 
Q 3142 2547 2835 2547 
Q 2528 2547 2317 2547 
Q 2106 2547 2061 2547 
Q 1632 2547 1389 2588 
Q 1146 2630 1050 2745 
Q 954 2861 954 3091 
L 954 4973 
z
M 1043 3859 
L 5088 3859 
L 5088 4787 
L 954 4787 
L 954 4973 
L 5274 4973 
L 5274 3667 
L 1043 3667 
L 1043 3859 
z
" transform="scale(0.015625)"/>
        <path id="NotoSansSC-Thin-4f53" d="M 1792 5293 
L 1971 5248 
Q 1792 4710 1552 4201 
Q 1312 3693 1033 3245 
Q 755 2797 448 2438 
Q 435 2458 409 2486 
Q 384 2515 355 2544 
Q 326 2573 301 2592 
Q 602 2925 880 3360 
Q 1158 3795 1388 4288 
Q 1619 4781 1792 5293 
z
M 1152 3763 
L 1325 3942 
L 1338 3936 
L 1338 -435 
L 1152 -435 
L 1152 3763 
z
M 3808 5306 
L 3994 5306 
L 3994 -422 
L 3808 -422 
L 3808 5306 
z
M 1818 3872 
L 6061 3872 
L 6061 3680 
L 1818 3680 
L 1818 3872 
z
M 2541 1043 
L 5203 1043 
L 5203 851 
L 2541 851 
L 2541 1043 
z
M 4186 3808 
Q 4384 3206 4688 2630 
Q 4992 2054 5366 1584 
Q 5741 1114 6138 838 
Q 6099 813 6054 768 
Q 6010 723 5978 685 
Q 5581 986 5206 1469 
Q 4832 1952 4521 2541 
Q 4211 3130 4006 3750 
L 4186 3808 
z
M 3642 3802 
L 3802 3744 
Q 3590 3123 3267 2534 
Q 2944 1946 2566 1462 
Q 2189 979 1798 666 
Q 1786 691 1763 720 
Q 1741 749 1712 774 
Q 1683 800 1658 813 
Q 2048 1094 2422 1568 
Q 2797 2042 3117 2621 
Q 3437 3200 3642 3802 
z
" transform="scale(0.015625)"/>
       </defs>
       <use xlink:href="#NotoSansSC-Thin-7535"/>
       <use xlink:href="#NotoSansSC-Thin-5b50" transform="translate(99.999985 0)"/>
       <use xlink:href="#NotoSansSC-Thin-2f" transform="translate(199.999969 0)"/>
       <use xlink:href="#NotoSansSC-Thin-534a" transform="translate(239.59996 0)"/>
       <use xlink:href="#NotoSansSC-Thin-5bfc" transform="translate(339.599945 0)"/>
       <use xlink:href="#NotoSansSC-Thin-4f53" transform="translate(439.59993 0)"/>
      </g>
     </g>
    </g>
    <g id="ytick_2">
     <g id="line2d_15">
      <path d="M 62.863438 211.402948 
L 377.683438 211.402948 
" clip-path="url(#paa02fe8555)" style="fill: none; stroke: #e2e8f0; stroke-opacity: 0.6; stroke-width: 0.5; stroke-linecap: square"/>
     </g>
     <g id="line2d_16"/>
     <g id="text_9">
      <!-- 通信 -->
      <g style="fill: #94a3b8" transform="translate(41.363438 214.976229) scale(0.09 -0.09)">
       <defs>
        <path id="NotoSansSC-Thin-901a" d="M 1523 2963 
L 1523 544 
L 1338 544 
L 1338 2771 
L 339 2771 
L 339 2963 
L 1523 2963 
z
M 538 4941 
L 678 5037 
Q 877 4877 1078 4681 
Q 1280 4486 1456 4297 
Q 1632 4109 1747 3962 
L 1594 3846 
Q 1485 3994 1309 4186 
Q 1133 4378 931 4576 
Q 730 4774 538 4941 
z
M 2982 4410 
L 3104 4544 
Q 3424 4429 3773 4281 
Q 4122 4134 4438 3984 
Q 4755 3834 4966 3699 
L 4845 3546 
Q 4640 3674 4326 3830 
Q 4013 3987 3661 4140 
Q 3309 4294 2982 4410 
z
M 2342 3706 
L 5702 3706 
L 5702 3520 
L 2528 3520 
L 2528 390 
L 2342 390 
L 2342 3706 
z
M 5606 3706 
L 5798 3706 
L 5798 685 
Q 5798 563 5760 508 
Q 5722 454 5626 422 
Q 5523 397 5318 390 
Q 5114 384 4755 384 
Q 4749 429 4726 480 
Q 4704 531 4678 570 
Q 4979 563 5200 563 
Q 5421 563 5491 563 
Q 5562 570 5584 595 
Q 5606 621 5606 685 
L 5606 3706 
z
M 2291 5050 
L 5626 5050 
L 5626 4864 
L 2291 4864 
L 2291 5050 
z
M 2438 2739 
L 5722 2739 
L 5722 2554 
L 2438 2554 
L 2438 2739 
z
M 2438 1754 
L 5722 1754 
L 5722 1562 
L 2438 1562 
L 2438 1754 
z
M 3949 3661 
L 4134 3661 
L 4134 416 
L 3949 416 
L 3949 3661 
z
M 5581 5050 
L 5626 5050 
L 5670 5062 
L 5811 4966 
Q 5510 4672 5065 4409 
Q 4621 4147 4192 3981 
Q 4166 4013 4131 4054 
Q 4096 4096 4064 4122 
Q 4346 4224 4630 4368 
Q 4915 4512 5164 4678 
Q 5414 4845 5581 5005 
L 5581 5050 
z
M 1408 646 
Q 1568 646 1715 528 
Q 1862 410 2144 218 
Q 2477 13 2880 -48 
Q 3283 -109 3827 -109 
Q 4134 -109 4444 -102 
Q 4755 -96 5056 -83 
Q 5357 -70 5638 -57 
Q 5920 -45 6163 -26 
Q 6150 -51 6137 -86 
Q 6125 -122 6115 -160 
Q 6106 -198 6099 -230 
Q 5952 -237 5680 -249 
Q 5408 -262 5078 -268 
Q 4749 -275 4422 -281 
Q 4096 -288 3834 -288 
Q 3245 -288 2816 -211 
Q 2387 -134 2048 83 
Q 1856 205 1689 342 
Q 1523 480 1408 480 
Q 1293 480 1145 371 
Q 998 262 832 76 
Q 666 -109 480 -346 
L 339 -205 
Q 646 154 912 400 
Q 1178 646 1408 646 
z
" transform="scale(0.015625)"/>
        <path id="NotoSansSC-Thin-4fe1" d="M 2438 3322 
L 5440 3322 
L 5440 3130 
L 2438 3130 
L 2438 3322 
z
M 2438 2438 
L 5440 2438 
L 5440 2253 
L 2438 2253 
L 2438 2438 
z
M 2458 32 
L 5402 32 
L 5402 -154 
L 2458 -154 
L 2458 32 
z
M 1965 4198 
L 5978 4198 
L 5978 4006 
L 1965 4006 
L 1965 4198 
z
M 2368 1523 
L 5491 1523 
L 5491 -442 
L 5299 -442 
L 5299 1338 
L 2554 1338 
L 2554 -461 
L 2368 -461 
L 2368 1523 
z
M 3475 5229 
L 3661 5299 
Q 3802 5107 3933 4880 
Q 4064 4653 4128 4486 
L 3936 4397 
Q 3872 4563 3741 4796 
Q 3610 5030 3475 5229 
z
M 1773 5293 
L 1952 5248 
Q 1766 4710 1523 4201 
Q 1280 3693 995 3245 
Q 710 2797 403 2438 
Q 390 2458 364 2486 
Q 339 2515 310 2544 
Q 282 2573 256 2592 
Q 563 2925 844 3360 
Q 1126 3795 1363 4288 
Q 1600 4781 1773 5293 
z
M 1152 3731 
L 1325 3910 
L 1338 3904 
L 1338 -467 
L 1152 -467 
L 1152 3731 
z
" transform="scale(0.015625)"/>
       </defs>
       <use xlink:href="#NotoSansSC-Thin-901a"/>
       <use xlink:href="#NotoSansSC-Thin-4fe1" transform="translate(99.999985 0)"/>
      </g>
     </g>
    </g>
    <g id="ytick_3">
     <g id="line2d_17">
      <path d="M 62.863438 182.194608 
L 377.683438 182.194608 
" clip-path="url(#paa02fe8555)" style="fill: none; stroke: #e2e8f0; stroke-opacity: 0.6; stroke-width: 0.5; stroke-linecap: square"/>
     </g>
     <g id="line2d_18"/>
     <g id="text_10">
      <!-- 计算机 -->
      <g style="fill: #94a3b8" transform="translate(32.363438 185.767889) scale(0.09 -0.09)">
       <defs>
        <path id="NotoSansSC-Thin-8ba1" d="M 1018 5037 
L 1152 5158 
Q 1331 5011 1516 4835 
Q 1702 4659 1862 4489 
Q 2022 4320 2118 4186 
L 1990 4032 
Q 1888 4166 1728 4342 
Q 1568 4518 1382 4704 
Q 1197 4890 1018 5037 
z
M 1299 -230 
L 1293 -32 
L 1402 128 
L 2554 890 
Q 2566 870 2579 841 
Q 2592 813 2608 787 
Q 2624 762 2630 742 
Q 2208 454 1958 278 
Q 1709 102 1577 6 
Q 1446 -90 1388 -141 
Q 1331 -192 1299 -230 
z
M 346 3270 
L 1542 3270 
L 1542 3078 
L 346 3078 
L 346 3270 
z
M 2413 3085 
L 6086 3085 
L 6086 2899 
L 2413 2899 
L 2413 3085 
z
M 4122 5306 
L 4307 5306 
L 4307 -448 
L 4122 -448 
L 4122 5306 
z
M 1299 -230 
Q 1286 -205 1264 -173 
Q 1242 -141 1216 -112 
Q 1190 -83 1165 -64 
Q 1235 -19 1340 99 
Q 1446 218 1446 416 
L 1446 3270 
L 1632 3270 
L 1632 128 
Q 1632 128 1597 99 
Q 1562 70 1514 28 
Q 1466 -13 1418 -64 
Q 1370 -115 1334 -156 
Q 1299 -198 1299 -230 
z
" transform="scale(0.015625)"/>
        <path id="NotoSansSC-Thin-7b97" d="M 410 864 
L 6029 864 
L 6029 678 
L 410 678 
L 410 864 
z
M 1402 3021 
L 1402 2502 
L 5107 2502 
L 5107 3021 
L 1402 3021 
z
M 1402 2317 
L 1402 1786 
L 5107 1786 
L 5107 2317 
L 1402 2317 
z
M 1402 3712 
L 1402 3206 
L 5107 3206 
L 5107 3712 
L 1402 3712 
z
M 1210 3904 
L 5293 3904 
L 5293 1600 
L 1210 1600 
L 1210 3904 
z
M 4262 1645 
L 4448 1645 
L 4448 -442 
L 4262 -442 
L 4262 1645 
z
M 1005 4781 
L 3123 4781 
L 3123 4595 
L 1005 4595 
L 1005 4781 
z
M 3398 4781 
L 5946 4781 
L 5946 4595 
L 3398 4595 
L 3398 4781 
z
M 1222 5325 
L 1408 5280 
Q 1242 4870 995 4489 
Q 749 4109 480 3840 
Q 467 3853 435 3875 
Q 403 3898 371 3920 
Q 339 3942 314 3955 
Q 595 4218 835 4576 
Q 1075 4934 1222 5325 
z
M 3654 5325 
L 3840 5286 
Q 3699 4883 3459 4531 
Q 3219 4179 2944 3936 
Q 2931 3955 2899 3977 
Q 2867 4000 2835 4022 
Q 2803 4045 2778 4058 
Q 3059 4294 3289 4624 
Q 3520 4954 3654 5325 
z
M 1568 4621 
L 1741 4678 
Q 1850 4531 1965 4342 
Q 2080 4154 2125 4019 
L 1958 3949 
Q 1901 4083 1795 4275 
Q 1690 4467 1568 4621 
z
M 4134 4653 
L 4294 4736 
Q 4454 4589 4611 4390 
Q 4768 4192 4845 4038 
L 4685 3949 
Q 4614 4096 4457 4297 
Q 4301 4499 4134 4653 
z
M 2150 1651 
L 2349 1651 
L 2349 1229 
Q 2349 1043 2301 825 
Q 2253 608 2086 384 
Q 1920 160 1581 -57 
Q 1242 -275 653 -461 
Q 627 -429 595 -381 
Q 563 -333 531 -307 
Q 1101 -141 1427 54 
Q 1754 250 1907 461 
Q 2061 672 2105 870 
Q 2150 1069 2150 1235 
L 2150 1651 
z
" transform="scale(0.015625)"/>
        <path id="NotoSansSC-Thin-673a" d="M 3360 4954 
L 5171 4954 
L 5171 4768 
L 3360 4768 
L 3360 4954 
z
M 3251 4954 
L 3437 4954 
L 3437 2918 
Q 3437 2528 3401 2086 
Q 3366 1645 3264 1197 
Q 3162 749 2957 326 
Q 2752 -96 2413 -461 
Q 2400 -442 2374 -419 
Q 2349 -397 2320 -371 
Q 2291 -346 2266 -333 
Q 2598 19 2796 425 
Q 2995 832 3091 1261 
Q 3187 1690 3219 2112 
Q 3251 2534 3251 2918 
L 3251 4954 
z
M 5050 4954 
L 5242 4954 
L 5242 269 
Q 5242 83 5254 -29 
Q 5267 -141 5299 -166 
Q 5376 -205 5459 -205 
Q 5510 -205 5584 -205 
Q 5658 -205 5722 -205 
Q 5850 -205 5907 -147 
Q 5939 -115 5961 -64 
Q 5984 -13 5990 109 
Q 6003 224 6009 486 
Q 6016 749 6022 1107 
Q 6061 1062 6112 1036 
Q 6163 1011 6208 998 
Q 6208 813 6201 605 
Q 6195 397 6188 227 
Q 6182 58 6176 -13 
Q 6138 -250 6029 -326 
Q 5965 -358 5901 -374 
Q 5837 -390 5741 -390 
Q 5690 -390 5597 -390 
Q 5504 -390 5453 -390 
Q 5382 -390 5305 -374 
Q 5229 -358 5165 -314 
Q 5120 -282 5094 -227 
Q 5069 -173 5059 -35 
Q 5050 102 5050 371 
L 5050 4954 
z
M 378 3891 
L 2810 3891 
L 2810 3699 
L 378 3699 
L 378 3891 
z
M 1555 5318 
L 1747 5318 
L 1747 -435 
L 1555 -435 
L 1555 5318 
z
M 1555 3814 
L 1728 3763 
Q 1632 3373 1481 2957 
Q 1331 2541 1145 2144 
Q 960 1747 761 1408 
Q 563 1069 365 838 
Q 339 870 297 915 
Q 256 960 224 986 
Q 416 1210 614 1530 
Q 813 1850 992 2230 
Q 1171 2611 1318 3017 
Q 1466 3424 1555 3814 
z
M 1715 2970 
Q 1786 2906 1939 2752 
Q 2093 2598 2269 2416 
Q 2445 2234 2592 2077 
Q 2739 1920 2797 1850 
L 2643 1683 
Q 2573 1773 2432 1936 
Q 2291 2099 2124 2284 
Q 1958 2470 1811 2627 
Q 1664 2784 1581 2861 
L 1715 2970 
z
" transform="scale(0.015625)"/>
       </defs>
       <use xlink:href="#NotoSansSC-Thin-8ba1"/>
       <use xlink:href="#NotoSansSC-Thin-7b97" transform="translate(99.999985 0)"/>
       <use xlink:href="#NotoSansSC-Thin-673a" transform="translate(199.999969 0)"/>
      </g>
     </g>
    </g>
    <g id="ytick_4">
     <g id="line2d_19">
      <path d="M 62.863438 152.986267 
L 377.683438 152.986267 
" clip-path="url(#paa02fe8555)" style="fill: none; stroke: #e2e8f0; stroke-opacity: 0.6; stroke-width: 0.5; stroke-linecap: square"/>
     </g>
     <g id="line2d_20"/>
     <g id="text_11">
      <!-- 银行 -->
      <g style="fill: #94a3b8" transform="translate(41.363438 156.559549) scale(0.09 -0.09)">
       <defs>
        <path id="NotoSansSC-Thin-94f6" d="M 3046 5005 
L 5670 5005 
L 5670 2349 
L 3046 2349 
L 3046 2534 
L 5485 2534 
L 5485 4819 
L 3046 4819 
L 3046 5005 
z
M 3091 3770 
L 5581 3770 
L 5581 3584 
L 3091 3584 
L 3091 3770 
z
M 4115 2438 
Q 4269 1805 4544 1277 
Q 4819 749 5225 368 
Q 5632 -13 6157 -211 
Q 6131 -230 6105 -262 
Q 6080 -294 6057 -323 
Q 6035 -352 6016 -384 
Q 5485 -160 5075 240 
Q 4666 640 4384 1190 
Q 4102 1741 3942 2400 
L 4115 2438 
z
M 5888 1978 
L 6029 1850 
Q 5837 1683 5590 1513 
Q 5344 1344 5091 1193 
Q 4838 1043 4621 922 
L 4506 1056 
Q 4717 1178 4973 1334 
Q 5229 1491 5472 1660 
Q 5715 1830 5888 1978 
z
M 2880 -435 
L 2874 -250 
L 3021 -134 
L 4506 256 
Q 4506 218 4509 166 
Q 4512 115 4518 83 
Q 4000 -70 3689 -160 
Q 3379 -250 3216 -301 
Q 3053 -352 2985 -381 
Q 2918 -410 2880 -435 
z
M 2880 -435 
Q 2874 -410 2854 -378 
Q 2835 -346 2812 -307 
Q 2790 -269 2771 -243 
Q 2822 -218 2886 -144 
Q 2950 -70 2950 109 
L 2950 5005 
L 3136 5005 
L 3136 -186 
Q 3136 -186 3110 -205 
Q 3085 -224 3046 -253 
Q 3008 -282 2969 -314 
Q 2931 -346 2905 -378 
Q 2880 -410 2880 -435 
z
M 1184 5293 
L 1376 5248 
Q 1267 4922 1113 4605 
Q 960 4288 774 4009 
Q 589 3731 390 3507 
Q 378 3526 352 3555 
Q 326 3584 300 3616 
Q 275 3648 250 3661 
Q 544 3962 790 4394 
Q 1037 4826 1184 5293 
z
M 928 4474 
L 2573 4474 
L 2573 4288 
L 890 4288 
L 928 4474 
z
M 640 3386 
L 2445 3386 
L 2445 3200 
L 640 3200 
L 640 3386 
z
M 358 2093 
L 2592 2093 
L 2592 1901 
L 358 1901 
L 358 2093 
z
M 1293 -358 
L 1293 -160 
L 1408 -19 
L 2637 621 
Q 2650 582 2666 537 
Q 2682 493 2694 467 
Q 2253 224 1987 77 
Q 1722 -70 1584 -153 
Q 1446 -237 1385 -278 
Q 1325 -320 1293 -358 
z
M 1293 -358 
Q 1286 -333 1267 -294 
Q 1248 -256 1229 -221 
Q 1210 -186 1190 -160 
Q 1242 -134 1306 -70 
Q 1370 -6 1370 173 
L 1370 3270 
L 1555 3270 
L 1555 -122 
Q 1555 -122 1529 -138 
Q 1504 -154 1465 -179 
Q 1427 -205 1385 -237 
Q 1344 -269 1318 -301 
Q 1293 -333 1293 -358 
z
" transform="scale(0.015625)"/>
        <path id="NotoSansSC-Thin-884c" d="M 2714 4909 
L 5875 4909 
L 5875 4717 
L 2714 4717 
L 2714 4909 
z
M 4832 3085 
L 5018 3085 
L 5018 -109 
Q 5018 -250 4966 -314 
Q 4915 -378 4806 -410 
Q 4685 -429 4419 -432 
Q 4154 -435 3642 -435 
Q 3635 -403 3612 -358 
Q 3590 -314 3558 -269 
Q 3834 -275 4061 -278 
Q 4288 -282 4445 -278 
Q 4602 -275 4659 -269 
Q 4755 -262 4793 -230 
Q 4832 -198 4832 -115 
L 4832 3085 
z
M 2426 3149 
L 6074 3149 
L 6074 2963 
L 2426 2963 
L 2426 3149 
z
M 1306 2912 
L 1478 3078 
L 1491 3066 
L 1491 -480 
L 1306 -480 
L 1306 2912 
z
M 2061 3974 
L 2240 3910 
Q 1997 3526 1686 3152 
Q 1376 2778 1040 2451 
Q 704 2125 371 1862 
Q 358 1882 329 1907 
Q 301 1933 272 1961 
Q 243 1990 218 2003 
Q 557 2246 893 2563 
Q 1229 2880 1529 3241 
Q 1830 3603 2061 3974 
z
M 1786 5325 
L 1971 5248 
Q 1779 4992 1516 4723 
Q 1254 4454 969 4204 
Q 685 3955 416 3757 
Q 403 3776 377 3801 
Q 352 3827 326 3856 
Q 301 3885 282 3898 
Q 550 4090 832 4330 
Q 1114 4570 1363 4829 
Q 1613 5088 1786 5325 
z
" transform="scale(0.015625)"/>
       </defs>
       <use xlink:href="#NotoSansSC-Thin-94f6"/>
       <use xlink:href="#NotoSansSC-Thin-884c" transform="translate(99.999985 0)"/>
      </g>
     </g>
    </g>
    <g id="ytick_5">
     <g id="line2d_21">
      <path d="M 62.863438 123.777927 
L 377.683438 123.777927 
" clip-path="url(#paa02fe8555)" style="fill: none; stroke: #e2e8f0; stroke-opacity: 0.6; stroke-width: 0.5; stroke-linecap: square"/>
     </g>
     <g id="line2d_22"/>
     <g id="text_12">
      <!-- 非银金融 -->
      <g style="fill: #94a3b8" transform="translate(23.363438 127.351208) scale(0.09 -0.09)">
       <defs>
        <path id="NotoSansSC-Thin-975e" d="M 3930 4218 
L 5965 4218 
L 5965 4026 
L 3930 4026 
L 3930 4218 
z
M 3923 1376 
L 6074 1376 
L 6074 1184 
L 3923 1184 
L 3923 1376 
z
M 3923 2816 
L 5850 2816 
L 5850 2630 
L 3923 2630 
L 3923 2816 
z
M 576 4224 
L 2528 4224 
L 2528 4032 
L 576 4032 
L 576 4224 
z
M 698 2822 
L 2534 2822 
L 2534 2637 
L 698 2637 
L 698 2822 
z
M 3821 5280 
L 4006 5280 
L 4006 -448 
L 3821 -448 
L 3821 5280 
z
M 2445 5280 
L 2637 5280 
L 2637 -448 
L 2445 -448 
L 2445 5280 
z
M 429 1414 
L 2579 1414 
L 2579 1222 
L 429 1222 
L 429 1414 
z
" transform="scale(0.015625)"/>
        <path id="NotoSansSC-Thin-878d" d="M 4653 5318 
L 4845 5318 
L 4845 3878 
L 4653 3878 
L 4653 5318 
z
M 3488 -102 
Q 3930 -38 4560 67 
Q 5190 173 5856 282 
L 5869 102 
Q 5248 -13 4640 -118 
Q 4032 -224 3565 -307 
L 3488 -102 
z
M 5325 1254 
L 5504 1312 
Q 5658 1043 5786 729 
Q 5914 416 6006 125 
Q 6099 -166 6131 -384 
L 5939 -454 
Q 5907 -230 5814 64 
Q 5722 358 5597 672 
Q 5472 986 5325 1254 
z
M 3802 3802 
L 3802 1971 
L 5651 1971 
L 5651 3802 
L 3802 3802 
z
M 3616 3987 
L 5843 3987 
L 5843 1779 
L 3616 1779 
L 3616 3987 
z
M 4653 3917 
L 4845 3917 
L 4845 1869 
L 4845 1869 
L 4845 -13 
L 4653 -13 
L 4653 1869 
L 4653 1869 
L 4653 3917 
z
M 1792 1242 
L 1978 1242 
L 1978 -314 
L 1792 -314 
L 1792 1242 
z
M 922 4115 
L 922 3283 
L 2771 3283 
L 2771 4115 
L 922 4115 
z
M 736 4301 
L 2963 4301 
L 2963 3091 
L 736 3091 
L 736 4301 
z
M 422 4992 
L 3277 4992 
L 3277 4806 
L 422 4806 
L 422 4992 
z
M 928 1293 
L 2765 1293 
L 2765 1107 
L 928 1107 
L 928 1293 
z
M 512 2605 
L 3149 2605 
L 3149 2413 
L 698 2413 
L 698 -422 
L 512 -422 
L 512 2605 
z
M 3034 2605 
L 3219 2605 
L 3219 -115 
Q 3219 -218 3190 -272 
Q 3162 -326 3072 -358 
Q 2995 -384 2832 -387 
Q 2669 -390 2406 -390 
Q 2400 -352 2377 -301 
Q 2355 -250 2330 -205 
Q 2554 -211 2720 -211 
Q 2886 -211 2938 -211 
Q 3034 -205 3034 -115 
L 3034 2605 
z
M 1120 2189 
L 1280 2246 
Q 1414 2048 1536 1814 
Q 1658 1581 1709 1414 
L 1542 1344 
Q 1498 1510 1373 1750 
Q 1248 1990 1120 2189 
z
M 2477 2272 
L 2656 2182 
Q 2528 1926 2371 1648 
Q 2214 1370 2080 1165 
L 1933 1242 
Q 2022 1382 2124 1564 
Q 2227 1747 2323 1936 
Q 2419 2125 2477 2272 
z
" transform="scale(0.015625)"/>
       </defs>
       <use xlink:href="#NotoSansSC-Thin-975e"/>
       <use xlink:href="#NotoSansSC-Thin-94f6" transform="translate(99.999985 0)"/>
       <use xlink:href="#NotoSansSC-Thin-91d1" transform="translate(199.999969 0)"/>
       <use xlink:href="#NotoSansSC-Thin-878d" transform="translate(299.999954 0)"/>
      </g>
     </g>
    </g>
    <g id="ytick_6">
     <g id="line2d_23">
      <path d="M 62.863438 94.569587 
L 377.683438 94.569587 
" clip-path="url(#paa02fe8555)" style="fill: none; stroke: #e2e8f0; stroke-opacity: 0.6; stroke-width: 0.5; stroke-linecap: square"/>
     </g>
     <g id="line2d_24"/>
     <g id="text_13">
      <!-- 有色金属 -->
      <g style="fill: #94a3b8" transform="translate(23.363438 98.142868) scale(0.09 -0.09)">
       <defs>
        <path id="NotoSansSC-Thin-6709" d="M 461 4429 
L 5965 4429 
L 5965 4243 
L 461 4243 
L 461 4429 
z
M 1862 2163 
L 5088 2163 
L 5088 1978 
L 1862 1978 
L 1862 2163 
z
M 1754 3264 
L 5050 3264 
L 5050 3072 
L 1939 3072 
L 1939 -448 
L 1754 -448 
L 1754 3264 
z
M 4986 3264 
L 5178 3264 
L 5178 -83 
Q 5178 -224 5133 -291 
Q 5088 -358 4960 -390 
Q 4838 -416 4572 -416 
Q 4307 -416 3872 -416 
Q 3866 -378 3840 -323 
Q 3814 -269 3789 -224 
Q 4051 -230 4262 -233 
Q 4474 -237 4624 -233 
Q 4774 -230 4838 -230 
Q 4928 -224 4957 -192 
Q 4986 -160 4986 -83 
L 4986 3264 
z
M 2669 5312 
L 2848 5261 
Q 2637 4582 2307 3920 
Q 1978 3258 1517 2682 
Q 1056 2106 461 1677 
Q 454 1702 432 1728 
Q 410 1754 390 1779 
Q 371 1805 352 1824 
Q 787 2131 1148 2528 
Q 1510 2925 1801 3379 
Q 2093 3834 2310 4323 
Q 2528 4813 2669 5312 
z
M 1862 1056 
L 5088 1056 
L 5088 864 
L 1862 864 
L 1862 1056 
z
" transform="scale(0.015625)"/>
        <path id="NotoSansSC-Thin-8272" d="M 3168 3494 
L 3360 3494 
L 3360 1798 
L 3168 1798 
L 3168 3494 
z
M 2067 4691 
L 4186 4691 
L 4186 4506 
L 1971 4506 
L 2067 4691 
z
M 4102 4691 
L 4147 4691 
L 4192 4704 
L 4326 4621 
Q 4198 4397 4025 4163 
Q 3853 3930 3667 3725 
Q 3482 3520 3309 3360 
Q 3283 3392 3241 3421 
Q 3200 3450 3168 3475 
Q 3341 3622 3517 3824 
Q 3693 4026 3846 4240 
Q 4000 4454 4102 4640 
L 4102 4691 
z
M 1216 3546 
L 1408 3546 
L 1408 326 
Q 1408 141 1475 32 
Q 1542 -77 1728 -121 
Q 1914 -166 2266 -166 
Q 2374 -166 2646 -166 
Q 2918 -166 3273 -166 
Q 3629 -166 3993 -166 
Q 4358 -166 4656 -166 
Q 4954 -166 5101 -166 
Q 5427 -166 5587 -76 
Q 5747 13 5814 256 
Q 5882 499 5914 947 
Q 5965 915 6019 892 
Q 6074 870 6118 858 
Q 6086 506 6035 269 
Q 5984 32 5878 -105 
Q 5773 -243 5577 -300 
Q 5382 -358 5069 -358 
Q 5018 -358 4813 -358 
Q 4608 -358 4310 -358 
Q 4013 -358 3689 -358 
Q 3366 -358 3072 -358 
Q 2778 -358 2573 -358 
Q 2368 -358 2323 -358 
Q 1907 -358 1664 -304 
Q 1421 -250 1318 -96 
Q 1216 58 1216 339 
L 1216 3546 
z
M 2387 5306 
L 2566 5248 
Q 2330 4768 1994 4329 
Q 1658 3891 1267 3526 
Q 877 3162 461 2880 
Q 454 2899 432 2931 
Q 410 2963 384 2998 
Q 358 3034 333 3046 
Q 742 3309 1129 3657 
Q 1517 4006 1840 4425 
Q 2163 4845 2387 5306 
z
M 1293 3546 
L 5453 3546 
L 5453 1350 
L 5254 1350 
L 5254 3354 
L 1293 3354 
L 1293 3546 
z
M 1293 1894 
L 5363 1894 
L 5363 1709 
L 1293 1709 
L 1293 1894 
z
" transform="scale(0.015625)"/>
        <path id="NotoSansSC-Thin-5c5e" d="M 973 5018 
L 1165 5018 
L 1165 3162 
Q 1165 2765 1139 2307 
Q 1114 1850 1040 1373 
Q 966 896 819 441 
Q 672 -13 422 -403 
Q 403 -384 374 -365 
Q 346 -346 317 -326 
Q 288 -307 262 -301 
Q 506 83 646 528 
Q 787 973 857 1430 
Q 928 1888 950 2333 
Q 973 2778 973 3162 
L 973 5018 
z
M 1069 5018 
L 5568 5018 
L 5568 3859 
L 1069 3859 
L 1069 4045 
L 5382 4045 
L 5382 4832 
L 1069 4832 
L 1069 5018 
z
M 3494 3347 
L 3680 3347 
L 3680 352 
L 3494 352 
L 3494 3347 
z
M 1997 2592 
L 1997 1984 
L 5222 1984 
L 5222 2592 
L 1997 2592 
z
M 1805 2778 
L 5408 2778 
L 5408 1792 
L 1805 1792 
L 1805 2778 
z
M 1542 1293 
L 5606 1293 
L 5606 1107 
L 1734 1107 
L 1734 -461 
L 1542 -461 
L 1542 1293 
z
M 5491 1293 
L 5677 1293 
L 5677 -173 
Q 5677 -275 5645 -326 
Q 5613 -378 5523 -410 
Q 5427 -435 5225 -438 
Q 5024 -442 4678 -442 
Q 4672 -410 4649 -362 
Q 4627 -314 4608 -269 
Q 4902 -275 5107 -278 
Q 5312 -282 5382 -275 
Q 5453 -269 5472 -246 
Q 5491 -224 5491 -173 
L 5491 1293 
z
M 2106 416 
Q 2598 429 3308 454 
Q 4019 480 4774 512 
L 4768 333 
Q 4032 301 3331 269 
Q 2630 237 2118 218 
L 2106 416 
z
M 5088 3590 
L 5242 3430 
Q 4915 3379 4492 3334 
Q 4070 3290 3593 3261 
Q 3117 3232 2633 3213 
Q 2150 3194 1696 3187 
Q 1690 3226 1674 3274 
Q 1658 3322 1638 3354 
Q 2080 3360 2563 3379 
Q 3046 3398 3516 3430 
Q 3987 3462 4393 3504 
Q 4800 3546 5088 3590 
z
M 4256 870 
L 4390 947 
Q 4531 806 4684 646 
Q 4838 486 4976 332 
Q 5114 179 5203 64 
L 5062 -38 
Q 4973 83 4838 240 
Q 4704 397 4550 563 
Q 4397 730 4256 870 
z
" transform="scale(0.015625)"/>
       </defs>
       <use xlink:href="#NotoSansSC-Thin-6709"/>
       <use xlink:href="#NotoSansSC-Thin-8272" transform="translate(99.999985 0)"/>
       <use xlink:href="#NotoSansSC-Thin-91d1" transform="translate(199.999969 0)"/>
       <use xlink:href="#NotoSansSC-Thin-5c5e" transform="translate(299.999954 0)"/>
      </g>
     </g>
    </g>
   </g>
   <g id="line2d_25">
    <path d="M 319.383438 255.142437 
L 319.383438 80.038437 
" clip-path="url(#paa02fe8555)" style="fill: none; stroke: #334155; stroke-width: 0.8; stroke-linecap: square"/>
    <defs>
     <path id="maff18336a9" d="M 0 3 
C 0.795609 3 1.55874 2.683901 2.12132 2.12132 
C 2.683901 1.55874 3 0.795609 3 0 
C 3 -0.795609 2.683901 -1.55874 2.12132 -2.12132 
C 1.55874 -2.683901 0.795609 -3 0 -3 
C -0.795609 -3 -1.55874 -2.683901 -2.12132 -2.12132 
C -2.683901 -1.55874 -3 -0.795609 -3 0 
C -3 0.795609 -2.683901 1.55874 -2.12132 2.12132 
C -1.55874 2.683901 -0.795609 3 0 3 
z
" style="stroke: #334155; stroke-width: 1.5"/>
    </defs>
    <g clip-path="url(#paa02fe8555)">
     <use xlink:href="#maff18336a9" x="319.383438" y="255.142437" style="fill: #334155; stroke: #334155; stroke-width: 1.5"/>
     <use xlink:href="#maff18336a9" x="319.383438" y="80.038437" style="fill: #334155; stroke: #334155; stroke-width: 1.5"/>
    </g>
   </g>
   <g id="patch_3">
    <path d="M 319.383438 247.183165 
L 93.121137 247.183165 
L 93.121137 234.039412 
L 319.383438 234.039412 
z
" clip-path="url(#paa02fe8555)" style="fill: #15803d; stroke: #ffffff; stroke-width: 1.5; stroke-linejoin: miter"/>
   </g>
   <g id="patch_4">
    <path d="M 319.383438 217.974824 
L 247.791038 217.974824 
L 247.791038 204.831071 
L 319.383438 204.831071 
z
" clip-path="url(#paa02fe8555)" style="fill: #16a34a; stroke: #ffffff; stroke-width: 1.5; stroke-linejoin: miter"/>
   </g>
   <g id="patch_5">
    <path d="M 319.383438 188.766484 
L 251.988638 188.766484 
L 251.988638 175.622731 
L 319.383438 175.622731 
z
" clip-path="url(#paa02fe8555)" style="fill: #16a34a; stroke: #ffffff; stroke-width: 1.5; stroke-linejoin: miter"/>
   </g>
   <g id="patch_6">
    <path d="M 319.383438 159.558144 
L 319.616638 159.558144 
L 319.616638 146.414391 
L 319.383438 146.414391 
z
" clip-path="url(#paa02fe8555)" style="fill: #ef4444; stroke: #ffffff; stroke-width: 1.5; stroke-linejoin: miter"/>
   </g>
   <g id="patch_7">
    <path d="M 319.383438 130.349804 
L 321.365637 130.349804 
L 321.365637 117.206051 
L 319.383438 117.206051 
z
" clip-path="url(#paa02fe8555)" style="fill: #ef4444; stroke: #ffffff; stroke-width: 1.5; stroke-linejoin: miter"/>
   </g>
   <g id="patch_8">
    <path d="M 319.383438 101.141463 
L 348.941538 101.141463 
L 348.941538 87.99771 
L 319.383438 87.99771 
z
" clip-path="url(#paa02fe8555)" style="fill: #b91c1c; stroke: #ffffff; stroke-width: 1.5; stroke-linejoin: miter"/>
   </g>
   <g id="text_14">
    <!-- -388.1亿 -->
    <g style="fill: #ffffff" transform="translate(61.608762 242.953437) scale(0.085 -0.085)">
     <defs>
      <path id="NotoSansSC-Thin-38" d="M 1696 -83 
Q 1286 -83 966 80 
Q 646 243 464 521 
Q 282 800 282 1152 
Q 282 1478 422 1744 
Q 563 2010 774 2202 
Q 986 2394 1197 2509 
L 1197 2534 
Q 954 2694 752 2953 
Q 550 3213 550 3578 
Q 550 3910 704 4163 
Q 858 4416 1117 4560 
Q 1376 4704 1696 4704 
Q 2080 4704 2345 4544 
Q 2611 4384 2752 4112 
Q 2893 3840 2893 3494 
Q 2893 3238 2784 3008 
Q 2675 2778 2528 2602 
Q 2381 2426 2253 2317 
L 2253 2285 
Q 2445 2170 2627 2010 
Q 2810 1850 2925 1626 
Q 3040 1402 3040 1082 
Q 3040 762 2870 496 
Q 2701 230 2400 73 
Q 2099 -83 1696 -83 
z
M 2035 2387 
Q 2336 2630 2499 2905 
Q 2662 3181 2662 3494 
Q 2662 3763 2550 3990 
Q 2438 4218 2220 4358 
Q 2003 4499 1696 4499 
Q 1293 4499 1040 4236 
Q 787 3974 787 3578 
Q 787 3238 972 3017 
Q 1158 2797 1446 2653 
Q 1734 2509 2035 2387 
z
M 1696 128 
Q 2035 128 2281 256 
Q 2528 384 2662 601 
Q 2797 819 2797 1082 
Q 2797 1370 2675 1574 
Q 2554 1779 2352 1923 
Q 2150 2067 1894 2182 
Q 1638 2298 1370 2400 
Q 998 2189 758 1875 
Q 518 1562 518 1152 
Q 518 870 668 636 
Q 819 403 1088 265 
Q 1357 128 1696 128 
z
" transform="scale(0.015625)"/>
      <path id="NotoSansSC-Thin-2e" d="M 736 -83 
Q 640 -83 560 -9 
Q 480 64 480 192 
Q 480 333 560 406 
Q 640 480 736 480 
Q 838 480 918 406 
Q 998 333 998 192 
Q 998 64 918 -9 
Q 838 -83 736 -83 
z
" transform="scale(0.015625)"/>
     </defs>
     <use xlink:href="#NotoSansSC-Thin-2d"/>
     <use xlink:href="#NotoSansSC-Thin-33" transform="translate(32.399994 0)"/>
     <use xlink:href="#NotoSansSC-Thin-38" transform="translate(84.499985 0)"/>
     <use xlink:href="#NotoSansSC-Thin-38" transform="translate(136.599976 0)"/>
     <use xlink:href="#NotoSansSC-Thin-2e" transform="translate(188.699966 0)"/>
     <use xlink:href="#NotoSansSC-Thin-31" transform="translate(211.799957 0)"/>
     <use xlink:href="#NotoSansSC-Thin-4ebf" transform="translate(263.899948 0)"/>
    </g>
   </g>
   <g id="text_15">
    <!-- -122.8亿 -->
    <g style="fill: #ffffff" transform="translate(216.278662 213.745096) scale(0.085 -0.085)">
     <use xlink:href="#NotoSansSC-Thin-2d"/>
     <use xlink:href="#NotoSansSC-Thin-31" transform="translate(32.399994 0)"/>
     <use xlink:href="#NotoSansSC-Thin-32" transform="translate(84.499985 0)"/>
     <use xlink:href="#NotoSansSC-Thin-32" transform="translate(136.599976 0)"/>
     <use xlink:href="#NotoSansSC-Thin-2e" transform="translate(188.699966 0)"/>
     <use xlink:href="#NotoSansSC-Thin-38" transform="translate(211.799957 0)"/>
     <use xlink:href="#NotoSansSC-Thin-4ebf" transform="translate(263.899948 0)"/>
    </g>
   </g>
   <g id="text_16">
    <!-- -115.6亿 -->
    <g style="fill: #ffffff" transform="translate(220.476263 184.536756) scale(0.085 -0.085)">
     <defs>
      <path id="NotoSansSC-Thin-35" d="M 1581 -83 
Q 1222 -83 963 9 
Q 704 102 515 240 
Q 326 378 186 518 
L 333 691 
Q 467 550 636 422 
Q 806 294 1040 211 
Q 1274 128 1594 128 
Q 1901 128 2166 294 
Q 2432 461 2592 765 
Q 2752 1069 2752 1466 
Q 2752 2061 2441 2406 
Q 2131 2752 1606 2752 
Q 1350 2752 1152 2665 
Q 954 2579 755 2445 
L 563 2560 
L 730 4646 
L 2758 4646 
L 2758 4435 
L 941 4435 
L 787 2726 
Q 966 2835 1168 2902 
Q 1370 2970 1626 2970 
Q 2010 2970 2320 2813 
Q 2630 2656 2812 2326 
Q 2995 1997 2995 1478 
Q 2995 979 2787 630 
Q 2579 282 2256 99 
Q 1933 -83 1581 -83 
z
" transform="scale(0.015625)"/>
      <path id="NotoSansSC-Thin-36" d="M 1837 -83 
Q 1498 -83 1232 67 
Q 966 218 780 509 
Q 595 800 496 1216 
Q 397 1632 397 2170 
Q 397 2886 528 3379 
Q 659 3872 889 4169 
Q 1120 4467 1414 4598 
Q 1709 4730 2029 4730 
Q 2330 4730 2550 4614 
Q 2771 4499 2944 4307 
L 2790 4147 
Q 2643 4333 2444 4425 
Q 2246 4518 2022 4518 
Q 1651 4518 1334 4297 
Q 1018 4077 826 3561 
Q 634 3046 634 2170 
Q 634 1581 762 1120 
Q 890 659 1158 393 
Q 1427 128 1850 128 
Q 2125 128 2336 297 
Q 2547 467 2672 752 
Q 2797 1037 2797 1382 
Q 2797 1741 2694 2025 
Q 2592 2310 2368 2476 
Q 2144 2643 1779 2643 
Q 1523 2643 1209 2470 
Q 896 2298 602 1888 
L 602 2176 
Q 768 2381 957 2531 
Q 1146 2682 1360 2762 
Q 1574 2842 1792 2842 
Q 2189 2842 2467 2675 
Q 2746 2509 2893 2185 
Q 3040 1862 3040 1382 
Q 3040 960 2873 630 
Q 2707 301 2435 109 
Q 2163 -83 1837 -83 
z
" transform="scale(0.015625)"/>
     </defs>
     <use xlink:href="#NotoSansSC-Thin-2d"/>
     <use xlink:href="#NotoSansSC-Thin-31" transform="translate(32.399994 0)"/>
     <use xlink:href="#NotoSansSC-Thin-31" transform="translate(84.499985 0)"/>
     <use xlink:href="#NotoSansSC-Thin-35" transform="translate(136.599976 0)"/>
     <use xlink:href="#NotoSansSC-Thin-2e" transform="translate(188.699966 0)"/>
     <use xlink:href="#NotoSansSC-Thin-36" transform="translate(211.799957 0)"/>
     <use xlink:href="#NotoSansSC-Thin-4ebf" transform="translate(263.899948 0)"/>
    </g>
   </g>
   <g id="text_17">
    <!-- +0.4亿 -->
    <g style="fill: #dc2626" transform="translate(319.908138 155.328416) scale(0.085 -0.085)">
     <defs>
      <path id="NotoSansSC-Thin-2b" d="M 1549 787 
L 1549 2221 
L 237 2221 
L 237 2426 
L 1549 2426 
L 1549 3866 
L 1786 3866 
L 1786 2426 
L 3098 2426 
L 3098 2221 
L 1786 2221 
L 1786 787 
L 1549 787 
z
" transform="scale(0.015625)"/>
     </defs>
     <use xlink:href="#NotoSansSC-Thin-2b"/>
     <use xlink:href="#NotoSansSC-Thin-30" transform="translate(52.099991 0)"/>
     <use xlink:href="#NotoSansSC-Thin-2e" transform="translate(104.199982 0)"/>
     <use xlink:href="#NotoSansSC-Thin-34" transform="translate(127.299973 0)"/>
     <use xlink:href="#NotoSansSC-Thin-4ebf" transform="translate(179.399963 0)"/>
    </g>
   </g>
   <g id="text_18">
    <!-- +3.4亿 -->
    <g style="fill: #dc2626" transform="translate(321.657138 126.120076) scale(0.085 -0.085)">
     <use xlink:href="#NotoSansSC-Thin-2b"/>
     <use xlink:href="#NotoSansSC-Thin-33" transform="translate(52.099991 0)"/>
     <use xlink:href="#NotoSansSC-Thin-2e" transform="translate(104.199982 0)"/>
     <use xlink:href="#NotoSansSC-Thin-34" transform="translate(127.299973 0)"/>
     <use xlink:href="#NotoSansSC-Thin-4ebf" transform="translate(179.399963 0)"/>
    </g>
   </g>
   <g id="text_19">
    <!-- +50.7亿 -->
    <g style="fill: #dc2626" transform="translate(349.524538 96.911735) scale(0.085 -0.085)">
     <defs>
      <path id="NotoSansSC-Thin-37" d="M 1344 0 
Q 1376 717 1462 1318 
Q 1549 1920 1712 2445 
Q 1875 2970 2124 3459 
Q 2374 3949 2726 4435 
L 307 4435 
L 307 4646 
L 3034 4646 
L 3034 4512 
Q 2624 3955 2355 3436 
Q 2086 2918 1932 2384 
Q 1779 1850 1705 1267 
Q 1632 685 1606 0 
L 1344 0 
z
" transform="scale(0.015625)"/>
     </defs>
     <use xlink:href="#NotoSansSC-Thin-2b"/>
     <use xlink:href="#NotoSansSC-Thin-35" transform="translate(52.099991 0)"/>
     <use xlink:href="#NotoSansSC-Thin-30" transform="translate(104.199982 0)"/>
     <use xlink:href="#NotoSansSC-Thin-2e" transform="translate(156.299973 0)"/>
     <use xlink:href="#NotoSansSC-Thin-37" transform="translate(179.399963 0)"/>
     <use xlink:href="#NotoSansSC-Thin-4ebf" transform="translate(231.499954 0)"/>
    </g>
   </g>
  </g>
  <g id="text_20">
   <!-- A股板块资金流向 -->
   <g style="fill: #1e293b" transform="translate(62.863438 21.916875) scale(0.14 -0.14)">
    <defs>
     <path id="NotoSansSC-Thin-41" d="M 70 0 
L 1728 4646 
L 1939 4646 
L 3603 0 
L 3347 0 
L 2381 2784 
Q 2234 3206 2106 3587 
Q 1978 3968 1850 4403 
L 1824 4403 
Q 1696 3968 1565 3587 
Q 1434 3206 1286 2784 
L 307 0 
L 70 0 
z
M 787 1651 
L 787 1856 
L 2861 1856 
L 2861 1651 
L 787 1651 
z
" transform="scale(0.015625)"/>
     <path id="NotoSansSC-Thin-80a1" d="M 954 5069 
L 2259 5069 
L 2259 4883 
L 954 4883 
L 954 5069 
z
M 954 3526 
L 2259 3526 
L 2259 3341 
L 954 3341 
L 954 3526 
z
M 934 1946 
L 2266 1946 
L 2266 1760 
L 934 1760 
L 934 1946 
z
M 832 5069 
L 1018 5069 
L 1018 2797 
Q 1018 2432 998 2013 
Q 979 1594 921 1158 
Q 864 723 745 310 
Q 627 -102 435 -454 
Q 422 -435 390 -416 
Q 358 -397 329 -381 
Q 301 -365 275 -352 
Q 467 -6 579 394 
Q 691 794 745 1210 
Q 800 1626 816 2032 
Q 832 2438 832 2797 
L 832 5069 
z
M 2214 5069 
L 2400 5069 
L 2400 -90 
Q 2400 -211 2355 -272 
Q 2310 -333 2221 -365 
Q 2131 -390 1942 -393 
Q 1754 -397 1427 -397 
Q 1421 -371 1405 -339 
Q 1389 -307 1376 -272 
Q 1363 -237 1344 -211 
Q 1619 -218 1824 -218 
Q 2029 -218 2093 -218 
Q 2214 -211 2214 -90 
L 2214 5069 
z
M 3430 5056 
L 5043 5056 
L 5043 4870 
L 3430 4870 
L 3430 5056 
z
M 2694 2438 
L 5523 2438 
L 5523 2253 
L 2694 2253 
L 2694 2438 
z
M 5453 2438 
L 5498 2438 
L 5536 2451 
L 5651 2394 
Q 5459 1824 5129 1363 
Q 4800 902 4384 547 
Q 3968 192 3504 -57 
Q 3040 -307 2579 -461 
Q 2560 -422 2525 -374 
Q 2490 -326 2458 -294 
Q 2912 -160 3366 80 
Q 3821 320 4230 659 
Q 4640 998 4957 1436 
Q 5274 1875 5453 2400 
L 5453 2438 
z
M 3181 2349 
Q 3418 1696 3834 1158 
Q 4250 621 4822 246 
Q 5395 -128 6099 -307 
Q 6080 -326 6054 -355 
Q 6029 -384 6006 -413 
Q 5984 -442 5965 -474 
Q 4909 -179 4147 544 
Q 3386 1267 3021 2291 
L 3181 2349 
z
M 3386 5056 
L 3578 5056 
L 3578 4339 
Q 3578 4077 3507 3782 
Q 3437 3488 3248 3203 
Q 3059 2918 2701 2682 
Q 2688 2701 2665 2726 
Q 2643 2752 2617 2781 
Q 2592 2810 2573 2822 
Q 2912 3046 3088 3305 
Q 3264 3565 3325 3833 
Q 3386 4102 3386 4339 
L 3386 5056 
z
M 4947 5056 
L 5139 5056 
L 5139 3488 
Q 5139 3354 5158 3309 
Q 5178 3264 5242 3264 
Q 5286 3264 5395 3264 
Q 5504 3264 5613 3264 
Q 5722 3264 5760 3264 
Q 5811 3264 5878 3270 
Q 5946 3277 6003 3283 
Q 6010 3245 6016 3184 
Q 6022 3123 6029 3091 
Q 5984 3085 5910 3078 
Q 5837 3072 5760 3072 
Q 5722 3072 5610 3072 
Q 5498 3072 5389 3072 
Q 5280 3072 5248 3072 
Q 5126 3072 5062 3107 
Q 4998 3142 4972 3235 
Q 4947 3328 4947 3494 
L 4947 5056 
z
" transform="scale(0.015625)"/>
     <path id="NotoSansSC-Thin-677f" d="M 442 4038 
L 2477 4038 
L 2477 3853 
L 442 3853 
L 442 4038 
z
M 1446 5318 
L 1632 5318 
L 1632 -435 
L 1446 -435 
L 1446 5318 
z
M 1434 3987 
L 1600 3942 
Q 1517 3558 1389 3145 
Q 1261 2733 1104 2333 
Q 947 1933 774 1590 
Q 602 1248 429 1011 
Q 416 1037 390 1065 
Q 365 1094 336 1120 
Q 307 1146 282 1158 
Q 454 1382 624 1708 
Q 794 2035 950 2419 
Q 1107 2803 1232 3206 
Q 1357 3610 1434 3987 
z
M 1594 3610 
Q 1645 3546 1757 3382 
Q 1869 3219 1993 3024 
Q 2118 2829 2227 2665 
Q 2336 2502 2381 2426 
L 2240 2259 
Q 2189 2355 2086 2534 
Q 1984 2714 1865 2912 
Q 1747 3110 1641 3273 
Q 1536 3437 1478 3514 
L 1594 3610 
z
M 2784 4602 
L 2976 4602 
L 2976 3002 
Q 2976 2618 2947 2176 
Q 2918 1734 2835 1273 
Q 2752 813 2592 371 
Q 2432 -70 2163 -448 
Q 2144 -429 2115 -409 
Q 2086 -390 2060 -371 
Q 2035 -352 2010 -346 
Q 2272 32 2429 457 
Q 2586 883 2662 1331 
Q 2739 1779 2761 2208 
Q 2784 2637 2784 3008 
L 2784 4602 
z
M 2893 3302 
L 5574 3302 
L 5574 3110 
L 2893 3110 
L 2893 3302 
z
M 5517 3302 
L 5555 3302 
L 5587 3315 
L 5709 3264 
Q 5498 2266 5069 1533 
Q 4640 800 4070 313 
Q 3501 -173 2867 -448 
Q 2854 -422 2832 -396 
Q 2810 -371 2787 -342 
Q 2765 -314 2739 -294 
Q 3354 -38 3914 432 
Q 4474 902 4896 1606 
Q 5318 2310 5517 3251 
L 5517 3302 
z
M 3501 3226 
Q 3706 2419 4064 1712 
Q 4422 1005 4934 486 
Q 5446 -32 6106 -288 
Q 6080 -307 6054 -336 
Q 6029 -365 6003 -393 
Q 5978 -422 5958 -448 
Q 5299 -166 4787 368 
Q 4275 902 3916 1622 
Q 3558 2342 3347 3181 
L 3501 3226 
z
M 5670 5114 
L 5798 4960 
Q 5555 4851 5203 4768 
Q 4851 4685 4448 4621 
Q 4045 4557 3632 4512 
Q 3219 4467 2842 4435 
Q 2835 4474 2819 4522 
Q 2803 4570 2784 4602 
Q 3149 4634 3558 4678 
Q 3968 4723 4368 4787 
Q 4768 4851 5107 4931 
Q 5446 5011 5670 5114 
z
" transform="scale(0.015625)"/>
     <path id="NotoSansSC-Thin-5757" d="M 2573 4166 
L 5581 4166 
L 5581 2163 
L 5395 2163 
L 5395 3974 
L 2573 3974 
L 2573 4166 
z
M 2349 2298 
L 6080 2298 
L 6080 2106 
L 2349 2106 
L 2349 2298 
z
M 4256 2227 
Q 4474 1318 4957 662 
Q 5440 6 6182 -294 
Q 6163 -314 6137 -346 
Q 6112 -378 6089 -406 
Q 6067 -435 6048 -461 
Q 5542 -237 5155 140 
Q 4768 518 4496 1033 
Q 4224 1549 4070 2182 
L 4256 2227 
z
M 3955 5248 
L 4141 5248 
L 4141 3155 
Q 4141 2643 4077 2150 
Q 4013 1658 3811 1194 
Q 3610 730 3200 314 
Q 2790 -102 2106 -454 
Q 2099 -435 2076 -409 
Q 2054 -384 2028 -358 
Q 2003 -333 1978 -314 
Q 2650 26 3043 429 
Q 3437 832 3635 1277 
Q 3834 1722 3894 2195 
Q 3955 2669 3955 3155 
L 3955 5248 
z
M 384 3718 
L 2221 3718 
L 2221 3533 
L 384 3533 
L 384 3718 
z
M 1242 5254 
L 1434 5254 
L 1434 1190 
L 1242 1190 
L 1242 5254 
z
M 288 870 
Q 538 966 861 1100 
Q 1184 1235 1545 1388 
Q 1907 1542 2272 1696 
L 2310 1517 
Q 1792 1293 1280 1072 
Q 768 851 365 685 
L 288 870 
z
" transform="scale(0.015625)"/>
    </defs>
    <use xlink:href="#NotoSansSC-Thin-41"/>
    <use xlink:href="#NotoSansSC-Thin-80a1" transform="translate(57.399994 0)"/>
    <use xlink:href="#NotoSansSC-Thin-677f" transform="translate(157.399979 0)"/>
    <use xlink:href="#NotoSansSC-Thin-5757" transform="translate(257.399963 0)"/>
    <use xlink:href="#NotoSansSC-Thin-8d44" transform="translate(357.399948 0)"/>
    <use xlink:href="#NotoSansSC-Thin-91d1" transform="translate(457.399933 0)"/>
    <use xlink:href="#NotoSansSC-Thin-6d41" transform="translate(557.399918 0)"/>
    <use xlink:href="#NotoSansSC-Thin-5411" transform="translate(657.399902 0)"/>
   </g>
  </g>
  <g id="text_21">
   <!-- 2026年5月26日 · 红=流入 绿=流出 · 单位: 亿元 -->
   <g style="fill: #64748b" transform="translate(62.863438 43.409) scale(0.09 -0.09)">
    <defs>
     <path id="NotoSansSC-Thin-5e74" d="M 1958 5338 
L 2144 5286 
Q 1958 4819 1712 4384 
Q 1466 3949 1178 3577 
Q 890 3206 576 2918 
Q 557 2931 528 2953 
Q 499 2976 467 2998 
Q 435 3021 403 3034 
Q 730 3315 1018 3676 
Q 1306 4038 1546 4464 
Q 1786 4890 1958 5338 
z
M 1626 4474 
L 5811 4474 
L 5811 4288 
L 1530 4288 
L 1626 4474 
z
M 1453 3085 
L 5670 3085 
L 5670 2899 
L 1638 2899 
L 1638 1216 
L 1453 1216 
L 1453 3085 
z
M 352 1318 
L 6061 1318 
L 6061 1133 
L 352 1133 
L 352 1318 
z
M 3405 4371 
L 3597 4371 
L 3597 -454 
L 3405 -454 
L 3405 4371 
z
" transform="scale(0.015625)"/>
     <path id="NotoSansSC-Thin-6708" d="M 1523 4941 
L 4998 4941 
L 4998 4755 
L 1523 4755 
L 1523 4941 
z
M 1517 3386 
L 5024 3386 
L 5024 3200 
L 1517 3200 
L 1517 3386 
z
M 1446 1811 
L 5005 1811 
L 5005 1626 
L 1446 1626 
L 1446 1811 
z
M 1453 4941 
L 1638 4941 
L 1638 3110 
Q 1638 2694 1596 2230 
Q 1555 1766 1427 1289 
Q 1299 813 1046 365 
Q 794 -83 371 -461 
Q 358 -435 336 -409 
Q 314 -384 288 -358 
Q 262 -333 237 -320 
Q 646 51 889 480 
Q 1133 909 1254 1360 
Q 1376 1811 1414 2259 
Q 1453 2707 1453 3110 
L 1453 4941 
z
M 4934 4941 
L 5126 4941 
L 5126 -6 
Q 5126 -179 5065 -259 
Q 5005 -339 4864 -371 
Q 4723 -397 4409 -403 
Q 4096 -410 3565 -410 
Q 3558 -378 3542 -342 
Q 3526 -307 3510 -272 
Q 3494 -237 3475 -205 
Q 3782 -211 4041 -211 
Q 4301 -211 4483 -208 
Q 4666 -205 4736 -205 
Q 4851 -198 4892 -156 
Q 4934 -115 4934 -6 
L 4934 4941 
z
" transform="scale(0.015625)"/>
     <path id="NotoSansSC-Thin-65e5" d="M 1274 4832 
L 5197 4832 
L 5197 -333 
L 5005 -333 
L 5005 4640 
L 1466 4640 
L 1466 -384 
L 1274 -384 
L 1274 4832 
z
M 1389 2547 
L 5088 2547 
L 5088 2362 
L 1389 2362 
L 1389 2547 
z
M 1376 218 
L 5107 218 
L 5107 32 
L 1376 32 
L 1376 218 
z
" transform="scale(0.015625)"/>
     <path id="NotoSansSC-Thin-b7" d="M 3200 2976 
Q 3354 2976 3475 2902 
Q 3597 2829 3670 2707 
Q 3744 2586 3744 2432 
Q 3744 2285 3670 2160 
Q 3597 2035 3475 1961 
Q 3354 1888 3200 1888 
Q 3053 1888 2928 1961 
Q 2803 2035 2729 2160 
Q 2656 2285 2656 2432 
Q 2656 2586 2729 2707 
Q 2803 2829 2928 2902 
Q 3053 2976 3200 2976 
z
" transform="scale(0.015625)"/>
     <path id="NotoSansSC-Thin-7ea2" d="M 422 1267 
Q 416 1293 403 1331 
Q 390 1370 377 1408 
Q 365 1446 352 1472 
Q 442 1485 563 1603 
Q 685 1722 845 1901 
Q 928 1984 1097 2182 
Q 1267 2381 1481 2656 
Q 1696 2931 1920 3248 
Q 2144 3565 2342 3891 
L 2522 3795 
Q 2074 3117 1584 2493 
Q 1094 1869 602 1402 
L 602 1395 
Q 602 1395 576 1385 
Q 550 1376 512 1357 
Q 474 1338 448 1315 
Q 422 1293 422 1267 
z
M 422 1267 
L 422 1440 
L 576 1536 
L 2534 1811 
Q 2528 1779 2531 1724 
Q 2534 1670 2541 1638 
Q 1856 1536 1449 1472 
Q 1043 1408 835 1369 
Q 627 1331 544 1308 
Q 461 1286 422 1267 
z
M 384 2784 
Q 378 2810 365 2851 
Q 352 2893 339 2934 
Q 326 2976 314 3002 
Q 390 3014 486 3126 
Q 582 3238 704 3405 
Q 768 3488 896 3680 
Q 1024 3872 1181 4131 
Q 1338 4390 1501 4688 
Q 1664 4986 1792 5286 
L 1990 5203 
Q 1779 4781 1545 4371 
Q 1312 3962 1065 3594 
Q 819 3226 563 2925 
L 563 2925 
Q 563 2925 537 2912 
Q 512 2899 473 2876 
Q 435 2854 409 2832 
Q 384 2810 384 2784 
z
M 384 2784 
L 384 2957 
L 538 3040 
L 1907 3187 
Q 1901 3142 1904 3091 
Q 1907 3040 1907 3014 
Q 1427 2957 1139 2918 
Q 851 2880 700 2857 
Q 550 2835 483 2819 
Q 416 2803 384 2784 
z
M 320 205 
Q 602 256 966 326 
Q 1331 397 1747 480 
Q 2163 563 2586 646 
L 2598 467 
Q 1990 346 1398 224 
Q 806 102 365 6 
L 320 205 
z
M 2707 4646 
L 5952 4646 
L 5952 4461 
L 2707 4461 
L 2707 4646 
z
M 2643 192 
L 6093 192 
L 6093 0 
L 2643 0 
L 2643 192 
z
M 4256 4595 
L 4448 4595 
L 4448 77 
L 4256 77 
L 4256 4595 
z
" transform="scale(0.015625)"/>
     <path id="NotoSansSC-Thin-3d" d="M 237 2931 
L 237 3130 
L 3098 3130 
L 3098 2931 
L 237 2931 
z
M 237 1517 
L 237 1722 
L 3098 1722 
L 3098 1517 
L 237 1517 
z
" transform="scale(0.015625)"/>
     <path id="NotoSansSC-Thin-5165" d="M 2042 4922 
L 2157 5082 
Q 2598 4774 2908 4406 
Q 3219 4038 3446 3632 
Q 3674 3226 3866 2803 
Q 4058 2381 4256 1961 
Q 4454 1542 4697 1155 
Q 4941 768 5273 429 
Q 5606 90 6080 -179 
Q 6061 -205 6038 -240 
Q 6016 -275 6000 -310 
Q 5984 -346 5978 -378 
Q 5498 -109 5155 236 
Q 4813 582 4563 979 
Q 4314 1376 4109 1798 
Q 3904 2221 3712 2649 
Q 3520 3078 3293 3484 
Q 3066 3891 2765 4259 
Q 2464 4627 2042 4922 
z
M 3098 3866 
L 3302 3827 
Q 3072 2803 2704 2003 
Q 2336 1203 1795 601 
Q 1254 0 499 -435 
Q 480 -416 448 -390 
Q 416 -365 384 -336 
Q 352 -307 320 -288 
Q 1466 320 2118 1357 
Q 2771 2394 3098 3866 
z
" transform="scale(0.015625)"/>
     <path id="NotoSansSC-Thin-7eff" d="M 5818 2477 
L 5971 2368 
Q 5702 2093 5350 1795 
Q 4998 1498 4698 1293 
L 4576 1402 
Q 4768 1542 4998 1728 
Q 5229 1914 5446 2112 
Q 5664 2310 5818 2477 
z
M 2746 2374 
L 2893 2477 
Q 3066 2349 3238 2182 
Q 3411 2016 3555 1856 
Q 3699 1696 3782 1562 
L 3642 1440 
Q 3514 1645 3261 1907 
Q 3008 2170 2746 2374 
z
M 3002 4058 
L 5402 4058 
L 5402 3872 
L 3002 3872 
L 3002 4058 
z
M 2618 3059 
L 6067 3059 
L 6067 2874 
L 2618 2874 
L 2618 3059 
z
M 4224 2899 
L 4410 2899 
L 4410 -141 
Q 4410 -256 4378 -310 
Q 4346 -365 4262 -397 
Q 4179 -416 4009 -422 
Q 3840 -429 3571 -429 
Q 3565 -390 3542 -336 
Q 3520 -282 3494 -237 
Q 3731 -243 3897 -243 
Q 4064 -243 4128 -243 
Q 4224 -237 4224 -147 
L 4224 2899 
z
M 2445 269 
Q 2682 416 2989 614 
Q 3296 813 3635 1040 
Q 3974 1267 4307 1498 
L 4371 1344 
Q 3904 1011 3430 688 
Q 2957 365 2579 109 
L 2445 269 
z
M 4390 1907 
Q 4544 1536 4809 1200 
Q 5075 864 5414 605 
Q 5754 346 6131 211 
Q 6093 186 6054 144 
Q 6016 102 5990 64 
Q 5619 218 5280 490 
Q 4941 762 4675 1114 
Q 4410 1466 4243 1850 
L 4390 1907 
z
M 2835 4992 
L 5408 4992 
L 5408 4806 
L 2835 4806 
L 2835 4992 
z
M 5357 4986 
L 5376 4986 
L 5414 5005 
L 5549 4986 
Q 5542 4717 5529 4355 
Q 5517 3994 5497 3622 
Q 5478 3251 5453 2938 
L 5261 2950 
Q 5280 3181 5296 3456 
Q 5312 3731 5325 4012 
Q 5338 4294 5347 4537 
Q 5357 4781 5357 4947 
L 5357 4986 
z
M 416 1248 
Q 410 1274 397 1315 
Q 384 1357 371 1398 
Q 358 1440 346 1466 
Q 429 1478 541 1600 
Q 653 1722 794 1901 
Q 870 1990 1020 2195 
Q 1171 2400 1360 2678 
Q 1549 2957 1744 3280 
Q 1939 3603 2106 3930 
L 2298 3834 
Q 1914 3155 1475 2512 
Q 1037 1869 595 1389 
L 595 1382 
Q 595 1382 569 1369 
Q 544 1357 505 1337 
Q 467 1318 441 1296 
Q 416 1274 416 1248 
z
M 416 1248 
L 416 1427 
L 557 1523 
L 2150 1837 
Q 2150 1792 2153 1744 
Q 2157 1696 2163 1664 
Q 1606 1549 1273 1475 
Q 941 1402 768 1360 
Q 595 1318 524 1292 
Q 454 1267 416 1248 
z
M 378 2765 
Q 371 2790 358 2832 
Q 346 2874 333 2918 
Q 320 2963 301 2989 
Q 378 3002 464 3117 
Q 550 3232 653 3398 
Q 710 3488 819 3680 
Q 928 3872 1065 4134 
Q 1203 4397 1337 4697 
Q 1472 4998 1581 5299 
L 1786 5216 
Q 1613 4794 1414 4378 
Q 1216 3962 998 3587 
Q 781 3213 557 2912 
L 557 2906 
Q 557 2906 531 2893 
Q 506 2880 467 2857 
Q 429 2835 403 2812 
Q 378 2790 378 2765 
z
M 378 2765 
L 378 2944 
L 525 3034 
L 1722 3181 
Q 1715 3142 1718 3091 
Q 1722 3040 1728 3008 
Q 1306 2944 1053 2905 
Q 800 2867 665 2841 
Q 531 2816 470 2800 
Q 410 2784 378 2765 
z
M 314 243 
Q 672 320 1165 441 
Q 1658 563 2189 685 
L 2208 506 
Q 1702 384 1219 265 
Q 736 147 358 51 
L 314 243 
z
" transform="scale(0.015625)"/>
     <path id="NotoSansSC-Thin-51fa" d="M 3104 5312 
L 3296 5312 
L 3296 90 
L 3104 90 
L 3104 5312 
z
M 5453 2138 
L 5638 2138 
L 5638 -429 
L 5453 -429 
L 5453 2138 
z
M 1037 4698 
L 1222 4698 
L 1222 2803 
L 5197 2803 
L 5197 4698 
L 5382 4698 
L 5382 2618 
L 1037 2618 
L 1037 4698 
z
M 794 2144 
L 986 2144 
L 986 141 
L 5562 141 
L 5562 -51 
L 794 -51 
L 794 2144 
z
" transform="scale(0.015625)"/>
     <path id="NotoSansSC-Thin-5355" d="M 3085 4115 
L 3283 4115 
L 3283 -454 
L 3085 -454 
L 3085 4115 
z
M 1210 2893 
L 1210 1952 
L 5242 1952 
L 5242 2893 
L 1210 2893 
z
M 1210 4006 
L 1210 3078 
L 5242 3078 
L 5242 4006 
L 1210 4006 
z
M 1024 4198 
L 5434 4198 
L 5434 1766 
L 1024 1766 
L 1024 4198 
z
M 384 973 
L 6035 973 
L 6035 787 
L 384 787 
L 384 973 
z
M 1632 5203 
L 1786 5286 
Q 1990 5062 2195 4790 
Q 2400 4518 2496 4320 
L 2342 4218 
Q 2240 4416 2038 4697 
Q 1837 4979 1632 5203 
z
M 4710 5306 
L 4896 5216 
Q 4717 4922 4489 4595 
Q 4262 4269 4064 4038 
L 3923 4122 
Q 4051 4275 4198 4486 
Q 4346 4698 4483 4915 
Q 4621 5133 4710 5306 
z
" transform="scale(0.015625)"/>
     <path id="NotoSansSC-Thin-4f4d" d="M 2400 4064 
L 5792 4064 
L 5792 3878 
L 2400 3878 
L 2400 4064 
z
M 2867 3264 
L 3046 3302 
Q 3136 2950 3216 2560 
Q 3296 2170 3363 1786 
Q 3430 1402 3481 1069 
Q 3533 736 3558 486 
L 3360 429 
Q 3341 685 3293 1027 
Q 3245 1370 3177 1757 
Q 3110 2144 3030 2531 
Q 2950 2918 2867 3264 
z
M 5062 3379 
L 5267 3334 
Q 5197 2944 5110 2493 
Q 5024 2042 4925 1578 
Q 4826 1114 4723 688 
Q 4621 262 4525 -77 
L 4346 -19 
Q 4442 314 4544 742 
Q 4646 1171 4742 1638 
Q 4838 2106 4921 2557 
Q 5005 3008 5062 3379 
z
M 2086 13 
L 6099 13 
L 6099 -173 
L 2086 -173 
L 2086 13 
z
M 3757 5254 
L 3930 5312 
Q 4019 5069 4115 4784 
Q 4211 4499 4256 4294 
L 4070 4230 
Q 4026 4435 3939 4723 
Q 3853 5011 3757 5254 
z
M 2010 5293 
L 2189 5242 
Q 1978 4704 1699 4192 
Q 1421 3680 1097 3235 
Q 774 2790 429 2438 
Q 416 2458 390 2486 
Q 365 2515 339 2547 
Q 314 2579 288 2592 
Q 634 2925 950 3357 
Q 1267 3789 1539 4285 
Q 1811 4781 2010 5293 
z
M 1293 3763 
L 1472 3942 
L 1478 3936 
L 1478 -435 
L 1293 -435 
L 1293 3763 
z
" transform="scale(0.015625)"/>
     <path id="NotoSansSC-Thin-3a" d="M 736 2656 
Q 640 2656 560 2726 
Q 480 2797 480 2931 
Q 480 3072 560 3145 
Q 640 3219 736 3219 
Q 838 3219 918 3145 
Q 998 3072 998 2931 
Q 998 2797 918 2726 
Q 838 2656 736 2656 
z
M 736 -83 
Q 640 -83 560 -9 
Q 480 64 480 192 
Q 480 333 560 406 
Q 640 480 736 480 
Q 838 480 918 406 
Q 998 333 998 192 
Q 998 64 918 -9 
Q 838 -83 736 -83 
z
" transform="scale(0.015625)"/>
    </defs>
    <use xlink:href="#NotoSansSC-Thin-32"/>
    <use xlink:href="#NotoSansSC-Thin-30" transform="translate(52.099991 0)"/>
    <use xlink:href="#NotoSansSC-Thin-32" transform="translate(104.199982 0)"/>
    <use xlink:href="#NotoSansSC-Thin-36" transform="translate(156.299973 0)"/>
    <use xlink:href="#NotoSansSC-Thin-5e74" transform="translate(208.399963 0)"/>
    <use xlink:href="#NotoSansSC-Thin-35" transform="translate(308.399948 0)"/>
    <use xlink:href="#NotoSansSC-Thin-6708" transform="translate(360.499939 0)"/>
    <use xlink:href="#NotoSansSC-Thin-32" transform="translate(460.499924 0)"/>
    <use xlink:href="#NotoSansSC-Thin-36" transform="translate(512.599915 0)"/>
    <use xlink:href="#NotoSansSC-Thin-65e5" transform="translate(564.699905 0)"/>
    <use xlink:href="#NotoSansSC-Thin-20" transform="translate(664.69989 0)"/>
    <use xlink:href="#NotoSansSC-Thin-b7" transform="translate(686.699875 0)"/>
    <use xlink:href="#NotoSansSC-Thin-20" transform="translate(786.69986 0)"/>
    <use xlink:href="#NotoSansSC-Thin-7ea2" transform="translate(808.699844 0)"/>
    <use xlink:href="#NotoSansSC-Thin-3d" transform="translate(908.699829 0)"/>
    <use xlink:href="#NotoSansSC-Thin-6d41" transform="translate(960.79982 0)"/>
    <use xlink:href="#NotoSansSC-Thin-5165" transform="translate(1060.799805 0)"/>
    <use xlink:href="#NotoSansSC-Thin-20" transform="translate(1160.799789 0)"/>
    <use xlink:href="#NotoSansSC-Thin-7eff" transform="translate(1182.799774 0)"/>
    <use xlink:href="#NotoSansSC-Thin-3d" transform="translate(1282.799759 0)"/>
    <use xlink:href="#NotoSansSC-Thin-6d41" transform="translate(1334.89975 0)"/>
    <use xlink:href="#NotoSansSC-Thin-51fa" transform="translate(1434.899734 0)"/>
    <use xlink:href="#NotoSansSC-Thin-20" transform="translate(1534.899719 0)"/>
    <use xlink:href="#NotoSansSC-Thin-b7" transform="translate(1556.899704 0)"/>
    <use xlink:href="#NotoSansSC-Thin-20" transform="translate(1656.899689 0)"/>
    <use xlink:href="#NotoSansSC-Thin-5355" transform="translate(1678.899673 0)"/>
    <use xlink:href="#NotoSansSC-Thin-4f4d" transform="translate(1778.899658 0)"/>
    <use xlink:href="#NotoSansSC-Thin-3a" transform="translate(1878.899643 0)"/>
    <use xlink:href="#NotoSansSC-Thin-20" transform="translate(1901.999634 0)"/>
    <use xlink:href="#NotoSansSC-Thin-4ebf" transform="translate(1923.999619 0)"/>
    <use xlink:href="#NotoSansSC-Thin-5143" transform="translate(2023.999603 0)"/>
   </g>
  </g>
  <g id="text_22">
   <!-- 来源: 东方财富 Choice · 2026-05-26 -->
   <g style="fill: #94a3b8" transform="translate(62.863438 268.611141) scale(0.065 -0.065)">
    <defs>
     <path id="NotoSansSC-Thin-6765" d="M 397 2432 
L 6016 2432 
L 6016 2246 
L 397 2246 
L 397 2432 
z
M 704 4467 
L 5734 4467 
L 5734 4282 
L 704 4282 
L 704 4467 
z
M 3091 5306 
L 3283 5306 
L 3283 -448 
L 3091 -448 
L 3091 5306 
z
M 4979 4026 
L 5171 3949 
Q 5062 3725 4928 3475 
Q 4794 3226 4656 2995 
Q 4518 2765 4390 2586 
L 4237 2656 
Q 4365 2835 4502 3078 
Q 4640 3322 4768 3574 
Q 4896 3827 4979 4026 
z
M 1312 3923 
L 1478 3981 
Q 1619 3782 1753 3548 
Q 1888 3315 1993 3094 
Q 2099 2874 2144 2701 
L 1971 2624 
Q 1920 2797 1817 3024 
Q 1715 3251 1584 3488 
Q 1453 3725 1312 3923 
z
M 2963 2374 
L 3123 2298 
Q 2893 1926 2579 1571 
Q 2266 1216 1901 896 
Q 1536 576 1161 317 
Q 787 58 429 -115 
Q 416 -90 390 -64 
Q 365 -38 339 -12 
Q 314 13 288 32 
Q 646 192 1024 445 
Q 1402 698 1763 1011 
Q 2125 1325 2435 1673 
Q 2746 2022 2963 2374 
z
M 3411 2381 
Q 3635 2029 3952 1677 
Q 4269 1325 4637 1005 
Q 5005 685 5389 432 
Q 5773 179 6138 13 
Q 6118 -6 6092 -35 
Q 6067 -64 6041 -89 
Q 6016 -115 5997 -141 
Q 5638 32 5254 297 
Q 4870 563 4499 889 
Q 4128 1216 3808 1577 
Q 3488 1939 3258 2304 
L 3411 2381 
z
" transform="scale(0.015625)"/>
     <path id="NotoSansSC-Thin-6e90" d="M 2304 5024 
L 6035 5024 
L 6035 4838 
L 2304 4838 
L 2304 5024 
z
M 2214 5024 
L 2406 5024 
L 2406 3283 
Q 2406 2874 2377 2400 
Q 2349 1926 2262 1436 
Q 2176 947 2006 476 
Q 1837 6 1555 -397 
Q 1542 -378 1513 -358 
Q 1485 -339 1456 -320 
Q 1427 -301 1402 -294 
Q 1677 102 1840 560 
Q 2003 1018 2083 1491 
Q 2163 1965 2188 2422 
Q 2214 2880 2214 3283 
L 2214 5024 
z
M 3110 2765 
L 3110 1990 
L 5542 1990 
L 5542 2765 
L 3110 2765 
z
M 3110 3718 
L 3110 2957 
L 5542 2957 
L 5542 3718 
L 3110 3718 
z
M 2925 3910 
L 5728 3910 
L 5728 1798 
L 2925 1798 
L 2925 3910 
z
M 3270 1338 
L 3456 1286 
Q 3341 1050 3193 810 
Q 3046 570 2886 355 
Q 2726 141 2566 -26 
Q 2554 -6 2522 13 
Q 2490 32 2458 57 
Q 2426 83 2400 96 
Q 2650 339 2880 665 
Q 3110 992 3270 1338 
z
M 5075 1293 
L 5242 1363 
Q 5395 1165 5555 937 
Q 5715 710 5856 499 
Q 5997 288 6086 134 
L 5907 38 
Q 5824 198 5683 412 
Q 5542 627 5385 860 
Q 5229 1094 5075 1293 
z
M 4218 4634 
L 4410 4570 
Q 4346 4365 4272 4144 
Q 4198 3923 4128 3770 
L 3981 3827 
Q 4038 3994 4108 4227 
Q 4179 4461 4218 4634 
z
M 4211 1939 
L 4397 1939 
L 4397 -173 
Q 4397 -282 4361 -336 
Q 4326 -390 4237 -416 
Q 4141 -442 3939 -448 
Q 3738 -454 3398 -448 
Q 3392 -416 3373 -368 
Q 3354 -320 3328 -275 
Q 3616 -282 3824 -282 
Q 4032 -282 4096 -282 
Q 4211 -275 4211 -173 
L 4211 1939 
z
M 627 5101 
L 749 5222 
Q 934 5107 1139 4972 
Q 1344 4838 1526 4707 
Q 1709 4576 1830 4480 
L 1715 4326 
Q 1594 4429 1408 4563 
Q 1222 4698 1017 4842 
Q 813 4986 627 5101 
z
M 307 3379 
L 422 3507 
Q 614 3405 822 3280 
Q 1030 3155 1219 3036 
Q 1408 2918 1536 2822 
L 1427 2669 
Q 1299 2765 1110 2889 
Q 922 3014 710 3145 
Q 499 3277 307 3379 
z
M 493 -224 
Q 646 26 832 374 
Q 1018 723 1203 1110 
Q 1389 1498 1542 1843 
L 1690 1728 
Q 1549 1395 1369 1020 
Q 1190 646 1004 288 
Q 819 -70 653 -352 
L 493 -224 
z
" transform="scale(0.015625)"/>
     <path id="NotoSansSC-Thin-4e1c" d="M 1210 2221 
L 1210 2406 
L 1402 2490 
L 5523 2490 
L 5523 2304 
L 1843 2304 
Q 1638 2304 1510 2294 
Q 1382 2285 1315 2265 
Q 1248 2246 1210 2221 
z
M 3366 3558 
L 3558 3558 
L 3558 -58 
Q 3558 -192 3516 -256 
Q 3475 -320 3366 -352 
Q 3264 -378 3043 -384 
Q 2822 -390 2490 -390 
Q 2483 -358 2467 -320 
Q 2451 -282 2438 -246 
Q 2426 -211 2406 -179 
Q 2714 -186 2941 -186 
Q 3168 -186 3251 -179 
Q 3322 -173 3344 -147 
Q 3366 -122 3366 -58 
L 3366 3558 
z
M 1805 1677 
L 1990 1626 
Q 1830 1299 1622 982 
Q 1414 666 1177 387 
Q 941 109 704 -109 
Q 691 -96 662 -70 
Q 634 -45 602 -19 
Q 570 6 544 19 
Q 915 333 1251 771 
Q 1587 1210 1805 1677 
z
M 4282 1594 
L 4422 1690 
Q 4698 1440 4979 1145 
Q 5261 851 5501 566 
Q 5741 282 5882 58 
L 5728 -64 
Q 5587 166 5350 457 
Q 5114 749 4835 1046 
Q 4557 1344 4282 1594 
z
M 538 4435 
L 5766 4435 
L 5766 4250 
L 538 4250 
L 538 4435 
z
M 1210 2221 
Q 1203 2246 1190 2288 
Q 1178 2330 1165 2368 
Q 1152 2406 1139 2432 
Q 1216 2451 1325 2598 
Q 1434 2746 1568 2963 
Q 1638 3072 1782 3309 
Q 1926 3546 2105 3875 
Q 2285 4205 2464 4579 
Q 2643 4954 2784 5331 
L 2950 5203 
Q 2739 4704 2486 4192 
Q 2234 3680 1958 3213 
Q 1683 2746 1395 2368 
L 1395 2362 
Q 1395 2362 1366 2349 
Q 1338 2336 1302 2313 
Q 1267 2291 1238 2268 
Q 1210 2246 1210 2221 
z
" transform="scale(0.015625)"/>
     <path id="NotoSansSC-Thin-65b9" d="M 538 4128 
L 5901 4128 
L 5901 3942 
L 538 3942 
L 538 4128 
z
M 2426 2669 
L 5088 2669 
L 5088 2477 
L 2426 2477 
L 2426 2669 
z
M 5024 2669 
L 5222 2669 
Q 5222 2669 5219 2643 
Q 5216 2618 5216 2589 
Q 5216 2560 5210 2534 
Q 5139 1594 5068 1024 
Q 4998 454 4912 160 
Q 4826 -134 4704 -250 
Q 4627 -333 4534 -358 
Q 4442 -384 4294 -390 
Q 4141 -397 3853 -384 
Q 3565 -371 3238 -346 
Q 3232 -301 3219 -249 
Q 3206 -198 3174 -160 
Q 3533 -192 3837 -201 
Q 4141 -211 4256 -211 
Q 4365 -211 4432 -198 
Q 4499 -186 4550 -141 
Q 4653 -45 4736 246 
Q 4819 538 4889 1114 
Q 4960 1690 5024 2624 
L 5024 2669 
z
M 2413 4051 
L 2611 4051 
Q 2586 3552 2531 3027 
Q 2477 2502 2355 1996 
Q 2234 1491 2010 1030 
Q 1786 570 1421 189 
Q 1056 -192 512 -454 
Q 486 -422 441 -384 
Q 397 -346 365 -320 
Q 902 -70 1260 301 
Q 1619 672 1840 1120 
Q 2061 1568 2176 2064 
Q 2291 2560 2339 3065 
Q 2387 3571 2413 4051 
z
M 2976 5235 
L 3142 5312 
Q 3277 5075 3411 4803 
Q 3546 4531 3610 4333 
L 3424 4250 
Q 3360 4448 3232 4723 
Q 3104 4998 2976 5235 
z
" transform="scale(0.015625)"/>
     <path id="NotoSansSC-Thin-8d22" d="M 1555 4230 
L 1747 4230 
L 1747 2477 
Q 1747 2131 1712 1744 
Q 1677 1357 1545 960 
Q 1414 563 1145 198 
Q 877 -166 403 -454 
Q 384 -422 345 -377 
Q 307 -333 275 -307 
Q 730 -38 989 307 
Q 1248 653 1369 1030 
Q 1491 1408 1523 1782 
Q 1555 2157 1555 2477 
L 1555 4230 
z
M 1766 902 
L 1914 1011 
Q 2074 832 2234 624 
Q 2394 416 2531 224 
Q 2669 32 2746 -115 
L 2592 -256 
Q 2509 -102 2374 99 
Q 2240 301 2083 512 
Q 1926 723 1766 902 
z
M 646 4954 
L 2566 4954 
L 2566 1133 
L 2381 1133 
L 2381 4768 
L 838 4768 
L 838 1133 
L 646 1133 
L 646 4954 
z
M 2963 4045 
L 6042 4045 
L 6042 3859 
L 2963 3859 
L 2963 4045 
z
M 4992 5312 
L 5184 5312 
L 5184 -102 
Q 5184 -250 5136 -317 
Q 5088 -384 4979 -416 
Q 4883 -442 4675 -445 
Q 4467 -448 4141 -448 
Q 4134 -422 4118 -387 
Q 4102 -352 4086 -313 
Q 4070 -275 4051 -243 
Q 4339 -250 4566 -250 
Q 4794 -250 4870 -243 
Q 4941 -237 4966 -211 
Q 4992 -186 4992 -102 
L 4992 5312 
z
M 4979 4000 
L 5139 3917 
Q 4979 3418 4745 2912 
Q 4512 2406 4227 1939 
Q 3942 1472 3628 1081 
Q 3315 691 2989 416 
Q 2963 454 2928 496 
Q 2893 538 2854 570 
Q 3174 832 3488 1213 
Q 3802 1594 4083 2051 
Q 4365 2509 4595 3008 
Q 4826 3507 4979 4000 
z
" transform="scale(0.015625)"/>
     <path id="NotoSansSC-Thin-5bcc" d="M 3078 1677 
L 3270 1677 
L 3270 -77 
L 3078 -77 
L 3078 1677 
z
M 1286 4000 
L 5133 4000 
L 5133 3814 
L 1286 3814 
L 1286 4000 
z
M 1670 3142 
L 1670 2477 
L 4723 2477 
L 4723 3142 
L 1670 3142 
z
M 1478 3334 
L 4915 3334 
L 4915 2291 
L 1478 2291 
L 1478 3334 
z
M 1094 1786 
L 5389 1786 
L 5389 -416 
L 5203 -416 
L 5203 1600 
L 1280 1600 
L 1280 -461 
L 1094 -461 
L 1094 1786 
z
M 1216 902 
L 5344 902 
L 5344 717 
L 1216 717 
L 1216 902 
z
M 1229 -6 
L 5325 -6 
L 5325 -192 
L 1229 -192 
L 1229 -6 
z
M 576 4730 
L 5843 4730 
L 5843 3699 
L 5651 3699 
L 5651 4544 
L 768 4544 
L 768 3699 
L 576 3699 
L 576 4730 
z
M 2822 5286 
L 2995 5363 
Q 3117 5197 3241 5001 
Q 3366 4806 3430 4672 
L 3251 4582 
Q 3187 4723 3065 4924 
Q 2944 5126 2822 5286 
z
" transform="scale(0.015625)"/>
     <path id="NotoSansSC-Thin-43" d="M 2317 -83 
Q 1888 -83 1536 86 
Q 1184 256 928 576 
Q 672 896 534 1341 
Q 397 1786 397 2336 
Q 397 2886 537 3328 
Q 678 3770 934 4083 
Q 1190 4397 1552 4563 
Q 1914 4730 2355 4730 
Q 2758 4730 3059 4560 
Q 3360 4390 3539 4179 
L 3392 4019 
Q 3206 4237 2944 4371 
Q 2682 4506 2355 4506 
Q 1824 4506 1440 4240 
Q 1056 3974 851 3488 
Q 646 3002 646 2336 
Q 646 1670 851 1177 
Q 1056 685 1433 413 
Q 1811 141 2330 141 
Q 2694 141 2982 288 
Q 3270 435 3533 730 
L 3680 576 
Q 3418 269 3094 93 
Q 2771 -83 2317 -83 
z
" transform="scale(0.015625)"/>
     <path id="NotoSansSC-Thin-68" d="M 672 0 
L 672 5082 
L 902 5082 
L 902 3584 
L 902 2822 
Q 1171 3098 1449 3277 
Q 1728 3456 2080 3456 
Q 2598 3456 2848 3139 
Q 3098 2822 3098 2170 
L 3098 0 
L 2867 0 
L 2867 2138 
Q 2867 2694 2678 2969 
Q 2490 3245 2054 3245 
Q 1741 3245 1481 3078 
Q 1222 2912 902 2579 
L 902 0 
L 672 0 
z
" transform="scale(0.015625)"/>
     <path id="NotoSansSC-Thin-6f" d="M 1875 -83 
Q 1472 -83 1129 125 
Q 787 333 582 726 
Q 378 1120 378 1677 
Q 378 2246 582 2643 
Q 787 3040 1129 3248 
Q 1472 3456 1875 3456 
Q 2176 3456 2448 3337 
Q 2720 3219 2928 2992 
Q 3136 2765 3254 2432 
Q 3373 2099 3373 1677 
Q 3373 1120 3165 726 
Q 2957 333 2617 125 
Q 2278 -83 1875 -83 
z
M 1875 128 
Q 2234 128 2518 323 
Q 2803 518 2969 867 
Q 3136 1216 3136 1677 
Q 3136 2144 2969 2496 
Q 2803 2848 2518 3046 
Q 2234 3245 1875 3245 
Q 1517 3245 1232 3046 
Q 947 2848 784 2496 
Q 621 2144 621 1677 
Q 621 1216 784 867 
Q 947 518 1232 323 
Q 1517 128 1875 128 
z
" transform="scale(0.015625)"/>
     <path id="NotoSansSC-Thin-69" d="M 672 0 
L 672 3373 
L 902 3373 
L 902 0 
L 672 0 
z
M 794 4224 
Q 691 4224 627 4294 
Q 563 4365 563 4486 
Q 563 4595 627 4662 
Q 691 4730 794 4730 
Q 890 4730 957 4662 
Q 1024 4595 1024 4486 
Q 1024 4365 957 4294 
Q 890 4224 794 4224 
z
" transform="scale(0.015625)"/>
     <path id="NotoSansSC-Thin-63" d="M 1888 -83 
Q 1459 -83 1116 125 
Q 774 333 576 726 
Q 378 1120 378 1677 
Q 378 2246 589 2643 
Q 800 3040 1145 3248 
Q 1491 3456 1894 3456 
Q 2240 3456 2477 3325 
Q 2714 3194 2880 3034 
L 2733 2867 
Q 2566 3027 2361 3136 
Q 2157 3245 1894 3245 
Q 1536 3245 1248 3046 
Q 960 2848 790 2496 
Q 621 2144 621 1677 
Q 621 1216 781 867 
Q 941 518 1225 323 
Q 1510 128 1894 128 
Q 2176 128 2413 246 
Q 2650 365 2829 531 
L 2963 365 
Q 2752 179 2483 48 
Q 2214 -83 1888 -83 
z
" transform="scale(0.015625)"/>
     <path id="NotoSansSC-Thin-65" d="M 1920 -83 
Q 1498 -83 1146 128 
Q 794 339 586 732 
Q 378 1126 378 1677 
Q 378 2093 496 2419 
Q 614 2746 822 2979 
Q 1030 3213 1289 3334 
Q 1549 3456 1830 3456 
Q 2221 3456 2505 3277 
Q 2790 3098 2947 2749 
Q 3104 2400 3104 1901 
Q 3104 1850 3104 1795 
Q 3104 1741 3091 1670 
L 621 1670 
Q 621 1229 784 880 
Q 947 531 1241 329 
Q 1536 128 1933 128 
Q 2221 128 2445 211 
Q 2669 294 2861 435 
L 2963 237 
Q 2771 122 2534 19 
Q 2298 -83 1920 -83 
z
M 621 1882 
L 2880 1882 
Q 2880 2566 2592 2905 
Q 2304 3245 1830 3245 
Q 1530 3245 1267 3081 
Q 1005 2918 832 2614 
Q 659 2310 621 1882 
z
" transform="scale(0.015625)"/>
    </defs>
    <use xlink:href="#NotoSansSC-Thin-6765"/>
    <use xlink:href="#NotoSansSC-Thin-6e90" transform="translate(99.999985 0)"/>
    <use xlink:href="#NotoSansSC-Thin-3a" transform="translate(199.999969 0)"/>
    <use xlink:href="#NotoSansSC-Thin-20" transform="translate(223.09996 0)"/>
    <use xlink:href="#NotoSansSC-Thin-4e1c" transform="translate(245.099945 0)"/>
    <use xlink:href="#NotoSansSC-Thin-65b9" transform="translate(345.09993 0)"/>
    <use xlink:href="#NotoSansSC-Thin-8d22" transform="translate(445.099915 0)"/>
    <use xlink:href="#NotoSansSC-Thin-5bcc" transform="translate(545.099899 0)"/>
    <use xlink:href="#NotoSansSC-Thin-20" transform="translate(645.099884 0)"/>
    <use xlink:href="#NotoSansSC-Thin-43" transform="translate(667.099869 0)"/>
    <use xlink:href="#NotoSansSC-Thin-68" transform="translate(728.999863 0)"/>
    <use xlink:href="#NotoSansSC-Thin-6f" transform="translate(786.499847 0)"/>
    <use xlink:href="#NotoSansSC-Thin-69" transform="translate(845.099838 0)"/>
    <use xlink:href="#NotoSansSC-Thin-63" transform="translate(869.599823 0)"/>
    <use xlink:href="#NotoSansSC-Thin-65" transform="translate(918.79982 0)"/>
    <use xlink:href="#NotoSansSC-Thin-20" transform="translate(971.499817 0)"/>
    <use xlink:href="#NotoSansSC-Thin-b7" transform="translate(993.499802 0)"/>
    <use xlink:href="#NotoSansSC-Thin-20" transform="translate(1093.499786 0)"/>
    <use xlink:href="#NotoSansSC-Thin-32" transform="translate(1115.499771 0)"/>
    <use xlink:href="#NotoSansSC-Thin-30" transform="translate(1167.599762 0)"/>
    <use xlink:href="#NotoSansSC-Thin-32" transform="translate(1219.699753 0)"/>
    <use xlink:href="#NotoSansSC-Thin-36" transform="translate(1271.799744 0)"/>
    <use xlink:href="#NotoSansSC-Thin-2d" transform="translate(1323.899734 0)"/>
    <use xlink:href="#NotoSansSC-Thin-30" transform="translate(1356.299728 0)"/>
    <use xlink:href="#NotoSansSC-Thin-35" transform="translate(1408.399719 0)"/>
    <use xlink:href="#NotoSansSC-Thin-2d" transform="translate(1460.49971 0)"/>
    <use xlink:href="#NotoSansSC-Thin-32" transform="translate(1492.899704 0)"/>
    <use xlink:href="#NotoSansSC-Thin-36" transform="translate(1544.999695 0)"/>
   </g>
  </g>
 </g>
 <defs>
  <clipPath id="paa02fe8555">
   <rect x="62.863438" y="80.038437" width="314.82" height="175.104"/>
  </clipPath>
 </defs>
</svg>
