<?xml version="1.0" encoding="utf-8" standalone="no"?>
<!DOCTYPE svg PUBLIC "-//W3C//DTD SVG 1.1//EN"
  "http://www.w3.org/Graphics/SVG/1.1/DTD/svg11.dtd">
<svg xmlns:xlink="http://www.w3.org/1999/xlink" width="352.666406pt" height="204.401375pt" viewBox="0 0 352.666406 204.401375" xmlns="http://www.w3.org/2000/svg" version="1.1">
 <metadata>
  <rdf:RDF xmlns:dc="http://purl.org/dc/elements/1.1/" xmlns:cc="http://creativecommons.org/ns#" xmlns:rdf="http://www.w3.org/1999/02/22-rdf-syntax-ns#">
   <cc:Work>
    <dc:type rdf:resource="http://purl.org/dc/dcmitype/StillImage"/>
    <dc:date>2026-05-25T08:51:38.754073</dc:date>
    <dc:format>image/svg+xml</dc:format>
    <dc:creator>
     <cc:Agent>
      <dc:title>Matplotlib v3.10.9, https://matplotlib.org/</dc:title>
     </cc:Agent>
    </dc:creator>
   </cc:Work>
  </rdf:RDF>
 </metadata>
 <defs>
  <style type="text/css">*{stroke-linejoin: round; stroke-linecap: butt}</style>
 </defs>
 <g id="figure_1">
  <g id="patch_1">
   <path d="M 0 204.401375 
L 352.666406 204.401375 
L 352.666406 0 
L 0 0 
z
" style="fill: #f5f7fa"/>
  </g>
  <g id="axes_1">
   <g id="patch_2">
    <path d="M 84.626406 167.534812 
L 345.466406 167.534812 
L 345.466406 29.522812 
L 84.626406 29.522812 
z
" style="fill: #f5f7fa"/>
   </g>
   <g id="patch_3">
    <path d="M 254.172406 161.26154 
L 128.969206 161.26154 
L 128.969206 149.855589 
L 254.172406 149.855589 
z
" clip-path="url(#p3e08a865fb)" style="fill: #ef4444; stroke: #ffffff; stroke-width: 0.8; stroke-linejoin: miter"/>
   </g>
   <g id="patch_4">
    <path d="M 254.172406 138.449639 
L 170.703606 138.449639 
L 170.703606 127.043689 
L 254.172406 127.043689 
z
" clip-path="url(#p3e08a865fb)" style="fill: #ef4444; stroke: #ffffff; stroke-width: 0.8; stroke-linejoin: miter"/>
   </g>
   <g id="patch_5">
    <path d="M 254.172406 115.637738 
L 199.396006 115.637738 
L 199.396006 104.231788 
L 254.172406 104.231788 
z
" clip-path="url(#p3e08a865fb)" style="fill: #f87171; stroke: #ffffff; stroke-width: 0.8; stroke-linejoin: miter"/>
   </g>
   <g id="patch_6">
    <path d="M 254.172406 92.825837 
L 275.039606 92.825837 
L 275.039606 81.419887 
L 254.172406 81.419887 
z
" clip-path="url(#p3e08a865fb)" style="fill: #1a56db; stroke: #ffffff; stroke-width: 0.8; stroke-linejoin: miter"/>
   </g>
   <g id="patch_7">
    <path d="M 254.172406 70.013936 
L 293.298406 70.013936 
L 293.298406 58.607986 
L 254.172406 58.607986 
z
" clip-path="url(#p3e08a865fb)" style="fill: #10b981; stroke: #ffffff; stroke-width: 0.8; stroke-linejoin: miter"/>
   </g>
   <g id="patch_8">
    <path d="M 254.172406 47.202036 
L 301.123606 47.202036 
L 301.123606 35.796085 
L 254.172406 35.796085 
z
" clip-path="url(#p3e08a865fb)" style="fill: #059669; stroke: #ffffff; stroke-width: 0.8; stroke-linejoin: miter"/>
   </g>
   <g id="matplotlib.axis_1">
    <g id="xtick_1">
     <g id="line2d_1">
      <path d="M 97.668406 167.534812 
L 97.668406 29.522812 
" clip-path="url(#p3e08a865fb)" style="fill: none; stroke: #64748b; stroke-opacity: 0.2; stroke-width: 0.8; stroke-linecap: square"/>
     </g>
     <g id="line2d_2">
      <defs>
       <path id="mdc9cf9f4a9" d="M 0 0 
L 0 3.5 
" style="stroke: #64748b; stroke-width: 0.8"/>
      </defs>
      <g>
       <use xlink:href="#mdc9cf9f4a9" x="97.668406" y="167.534812" style="fill: #64748b; stroke: #64748b; stroke-width: 0.8"/>
      </g>
     </g>
     <g id="text_1">
      <!-- -6 -->
      <g style="fill: #64748b" transform="translate(93.865906 181.681375) scale(0.09 -0.09)">
       <defs>
        <path id="NotoSansSC-Thin-2d" d="M 282 1638 
L 282 1862 
L 1811 1862 
L 1811 1638 
L 282 1638 
z
" transform="scale(0.015625)"/>
        <path id="NotoSansSC-Thin-36" d="M 1837 -83 
Q 1498 -83 1232 67 
Q 966 218 780 509 
Q 595 800 496 1216 
Q 397 1632 397 2170 
Q 397 2886 528 3379 
Q 659 3872 889 4169 
Q 1120 4467 1414 4598 
Q 1709 4730 2029 4730 
Q 2330 4730 2550 4614 
Q 2771 4499 2944 4307 
L 2790 4147 
Q 2643 4333 2444 4425 
Q 2246 4518 2022 4518 
Q 1651 4518 1334 4297 
Q 1018 4077 826 3561 
Q 634 3046 634 2170 
Q 634 1581 762 1120 
Q 890 659 1158 393 
Q 1427 128 1850 128 
Q 2125 128 2336 297 
Q 2547 467 2672 752 
Q 2797 1037 2797 1382 
Q 2797 1741 2694 2025 
Q 2592 2310 2368 2476 
Q 2144 2643 1779 2643 
Q 1523 2643 1209 2470 
Q 896 2298 602 1888 
L 602 2176 
Q 768 2381 957 2531 
Q 1146 2682 1360 2762 
Q 1574 2842 1792 2842 
Q 2189 2842 2467 2675 
Q 2746 2509 2893 2185 
Q 3040 1862 3040 1382 
Q 3040 960 2873 630 
Q 2707 301 2435 109 
Q 2163 -83 1837 -83 
z
" transform="scale(0.015625)"/>
       </defs>
       <use xlink:href="#NotoSansSC-Thin-2d"/>
       <use xlink:href="#NotoSansSC-Thin-36" transform="translate(32.399994 0)"/>
      </g>
     </g>
    </g>
    <g id="xtick_2">
     <g id="line2d_3">
      <path d="M 149.836406 167.534812 
L 149.836406 29.522812 
" clip-path="url(#p3e08a865fb)" style="fill: none; stroke: #64748b; stroke-opacity: 0.2; stroke-width: 0.8; stroke-linecap: square"/>
     </g>
     <g id="line2d_4">
      <g>
       <use xlink:href="#mdc9cf9f4a9" x="149.836406" y="167.534812" style="fill: #64748b; stroke: #64748b; stroke-width: 0.8"/>
      </g>
     </g>
     <g id="text_2">
      <!-- -4 -->
      <g style="fill: #64748b" transform="translate(146.033906 181.681375) scale(0.09 -0.09)">
       <defs>
        <path id="NotoSansSC-Thin-34" d="M 2195 0 
L 2195 3482 
Q 2195 3629 2204 3843 
Q 2214 4058 2227 4205 
L 2195 4205 
Q 2112 4058 2019 3901 
Q 1926 3744 1830 3590 
L 422 1568 
L 3110 1568 
L 3110 1363 
L 115 1363 
L 115 1485 
L 2259 4646 
L 2419 4646 
L 2419 0 
L 2195 0 
z
" transform="scale(0.015625)"/>
       </defs>
       <use xlink:href="#NotoSansSC-Thin-2d"/>
       <use xlink:href="#NotoSansSC-Thin-34" transform="translate(32.399994 0)"/>
      </g>
     </g>
    </g>
    <g id="xtick_3">
     <g id="line2d_5">
      <path d="M 202.004406 167.534812 
L 202.004406 29.522812 
" clip-path="url(#p3e08a865fb)" style="fill: none; stroke: #64748b; stroke-opacity: 0.2; stroke-width: 0.8; stroke-linecap: square"/>
     </g>
     <g id="line2d_6">
      <g>
       <use xlink:href="#mdc9cf9f4a9" x="202.004406" y="167.534812" style="fill: #64748b; stroke: #64748b; stroke-width: 0.8"/>
      </g>
     </g>
     <g id="text_3">
      <!-- -2 -->
      <g style="fill: #64748b" transform="translate(198.201906 181.681375) scale(0.09 -0.09)">
       <defs>
        <path id="NotoSansSC-Thin-32" d="M 294 0 
L 294 147 
Q 1120 858 1613 1434 
Q 2106 2010 2323 2499 
Q 2541 2989 2541 3424 
Q 2541 3725 2435 3974 
Q 2330 4224 2106 4371 
Q 1882 4518 1523 4518 
Q 1210 4518 931 4352 
Q 653 4186 442 3923 
L 282 4070 
Q 525 4346 829 4538 
Q 1133 4730 1542 4730 
Q 1939 4730 2214 4566 
Q 2490 4403 2637 4112 
Q 2784 3821 2784 3424 
Q 2784 2918 2537 2406 
Q 2291 1894 1820 1347 
Q 1350 800 678 179 
Q 870 192 1062 201 
Q 1254 211 1440 211 
L 3014 211 
L 3014 0 
L 294 0 
z
" transform="scale(0.015625)"/>
       </defs>
       <use xlink:href="#NotoSansSC-Thin-2d"/>
       <use xlink:href="#NotoSansSC-Thin-32" transform="translate(32.399994 0)"/>
      </g>
     </g>
    </g>
    <g id="xtick_4">
     <g id="line2d_7">
      <path d="M 254.172406 167.534812 
L 254.172406 29.522812 
" clip-path="url(#p3e08a865fb)" style="fill: none; stroke: #64748b; stroke-opacity: 0.2; stroke-width: 0.8; stroke-linecap: square"/>
     </g>
     <g id="line2d_8">
      <g>
       <use xlink:href="#mdc9cf9f4a9" x="254.172406" y="167.534812" style="fill: #64748b; stroke: #64748b; stroke-width: 0.8"/>
      </g>
     </g>
     <g id="text_4">
      <!-- 0 -->
      <g style="fill: #64748b" transform="translate(251.828187 181.681375) scale(0.09 -0.09)">
       <defs>
        <path id="NotoSansSC-Thin-30" d="M 1670 -83 
Q 1261 -83 963 179 
Q 666 442 509 979 
Q 352 1517 352 2336 
Q 352 3149 509 3677 
Q 666 4205 963 4467 
Q 1261 4730 1670 4730 
Q 2080 4730 2371 4467 
Q 2662 4205 2822 3677 
Q 2982 3149 2982 2336 
Q 2982 1517 2822 979 
Q 2662 442 2371 179 
Q 2080 -83 1670 -83 
z
M 1670 128 
Q 1997 128 2240 384 
Q 2483 640 2614 1133 
Q 2746 1626 2746 2336 
Q 2746 3040 2614 3529 
Q 2483 4019 2240 4272 
Q 1997 4525 1670 4525 
Q 1344 4525 1101 4272 
Q 858 4019 723 3529 
Q 589 3040 589 2336 
Q 589 1626 723 1133 
Q 858 640 1101 384 
Q 1344 128 1670 128 
z
" transform="scale(0.015625)"/>
       </defs>
       <use xlink:href="#NotoSansSC-Thin-30"/>
      </g>
     </g>
    </g>
    <g id="xtick_5">
     <g id="line2d_9">
      <path d="M 306.340406 167.534812 
L 306.340406 29.522812 
" clip-path="url(#p3e08a865fb)" style="fill: none; stroke: #64748b; stroke-opacity: 0.2; stroke-width: 0.8; stroke-linecap: square"/>
     </g>
     <g id="line2d_10">
      <g>
       <use xlink:href="#mdc9cf9f4a9" x="306.340406" y="167.534812" style="fill: #64748b; stroke: #64748b; stroke-width: 0.8"/>
      </g>
     </g>
     <g id="text_5">
      <!-- 2 -->
      <g style="fill: #64748b" transform="translate(303.996188 181.681375) scale(0.09 -0.09)">
       <use xlink:href="#NotoSansSC-Thin-32"/>
      </g>
     </g>
    </g>
    <g id="text_6">
     <!-- 周涨跌幅 (%) -->
     <g style="fill: #64748b" transform="translate(189.404844 195.014656) scale(0.09 -0.09)">
      <defs>
       <path id="NotoSansSC-Thin-5468" d="M 1184 5005 
L 5370 5005 
L 5370 4819 
L 1184 4819 
L 1184 5005 
z
M 1766 3974 
L 4704 3974 
L 4704 3789 
L 1766 3789 
L 1766 3974 
z
M 1587 2938 
L 4896 2938 
L 4896 2746 
L 1587 2746 
L 1587 2938 
z
M 1082 5005 
L 1267 5005 
L 1267 3085 
Q 1267 2688 1238 2227 
Q 1210 1766 1126 1289 
Q 1043 813 873 358 
Q 704 -96 422 -493 
Q 403 -474 377 -448 
Q 352 -422 326 -400 
Q 301 -378 275 -365 
Q 550 19 710 457 
Q 870 896 950 1353 
Q 1030 1811 1056 2252 
Q 1082 2694 1082 3085 
L 1082 5005 
z
M 5299 5005 
L 5491 5005 
L 5491 -83 
Q 5491 -237 5436 -307 
Q 5382 -378 5261 -410 
Q 5146 -435 4893 -438 
Q 4640 -442 4192 -442 
Q 4186 -410 4160 -352 
Q 4134 -294 4109 -250 
Q 4358 -256 4569 -256 
Q 4781 -256 4928 -253 
Q 5075 -250 5133 -250 
Q 5222 -243 5260 -208 
Q 5299 -173 5299 -90 
L 5299 5005 
z
M 3104 4659 
L 3296 4659 
L 3296 2797 
L 3104 2797 
L 3104 4659 
z
M 2106 2035 
L 4480 2035 
L 4480 422 
L 2106 422 
L 2106 608 
L 4294 608 
L 4294 1843 
L 2106 1843 
L 2106 2035 
z
M 1984 2035 
L 2170 2035 
L 2170 58 
L 1984 58 
L 1984 2035 
z
" transform="scale(0.015625)"/>
       <path id="NotoSansSC-Thin-6da8" d="M 2803 2118 
L 3002 2118 
Q 3002 2118 3002 2073 
Q 3002 2029 2995 1997 
Q 2957 1216 2912 752 
Q 2867 288 2809 54 
Q 2752 -179 2669 -269 
Q 2605 -339 2528 -364 
Q 2451 -390 2323 -397 
Q 2208 -403 1987 -396 
Q 1766 -390 1530 -371 
Q 1523 -326 1510 -275 
Q 1498 -224 1472 -179 
Q 1741 -205 1971 -208 
Q 2202 -211 2285 -211 
Q 2445 -218 2509 -154 
Q 2579 -83 2630 150 
Q 2682 384 2726 848 
Q 2771 1312 2803 2080 
L 2803 2118 
z
M 1779 3565 
L 1965 3565 
Q 1946 3302 1920 2998 
Q 1894 2694 1865 2412 
Q 1837 2131 1805 1926 
L 1619 1926 
Q 1651 2138 1683 2422 
Q 1715 2707 1740 3008 
Q 1766 3309 1779 3565 
z
M 1728 2118 
L 2861 2118 
L 2861 1926 
L 1709 1926 
L 1728 2118 
z
M 1856 3565 
L 2867 3565 
L 2867 4806 
L 1638 4806 
L 1638 4992 
L 3053 4992 
L 3053 3373 
L 1856 3373 
L 1856 3565 
z
M 3590 -448 
Q 3584 -422 3565 -390 
Q 3546 -358 3523 -323 
Q 3501 -288 3482 -262 
Q 3552 -230 3645 -153 
Q 3738 -77 3738 102 
L 3738 5254 
L 3930 5254 
L 3930 -192 
Q 3930 -192 3878 -221 
Q 3827 -250 3760 -291 
Q 3693 -333 3641 -374 
Q 3590 -416 3590 -448 
z
M 518 5043 
L 646 5158 
Q 806 5050 969 4918 
Q 1133 4787 1273 4656 
Q 1414 4525 1498 4422 
L 1370 4288 
Q 1280 4397 1139 4531 
Q 998 4666 838 4800 
Q 678 4934 518 5043 
z
M 294 3251 
L 429 3366 
Q 582 3264 739 3142 
Q 896 3021 1033 2899 
Q 1171 2778 1254 2675 
L 1126 2534 
Q 1037 2637 899 2765 
Q 762 2893 605 3021 
Q 448 3149 294 3251 
z
M 448 -262 
Q 550 -26 665 297 
Q 781 621 899 976 
Q 1018 1331 1107 1658 
L 1274 1549 
Q 1190 1242 1078 896 
Q 966 550 854 220 
Q 742 -109 634 -378 
L 448 -262 
z
M 3091 2771 
L 6093 2771 
L 6093 2579 
L 3091 2579 
L 3091 2771 
z
M 4659 2694 
Q 4781 2061 4985 1497 
Q 5190 934 5478 499 
Q 5766 64 6138 -192 
Q 6106 -218 6064 -262 
Q 6022 -307 5997 -346 
Q 5626 -58 5331 396 
Q 5037 851 4829 1430 
Q 4621 2010 4493 2656 
L 4659 2694 
z
M 5613 5197 
L 5805 5146 
Q 5626 4730 5389 4346 
Q 5152 3962 4873 3632 
Q 4595 3302 4301 3046 
Q 4288 3059 4259 3084 
Q 4230 3110 4198 3136 
Q 4166 3162 4141 3174 
Q 4589 3539 4976 4070 
Q 5363 4602 5613 5197 
z
M 3590 -448 
L 3590 -269 
L 3706 -134 
L 4998 339 
Q 5005 301 5014 256 
Q 5024 211 5030 192 
Q 4570 0 4294 -115 
Q 4019 -230 3878 -294 
Q 3738 -358 3680 -390 
Q 3622 -422 3590 -448 
z
" transform="scale(0.015625)"/>
       <path id="NotoSansSC-Thin-8dcc" d="M 838 4819 
L 838 3398 
L 2214 3398 
L 2214 4819 
L 838 4819 
z
M 646 5005 
L 2406 5005 
L 2406 3213 
L 646 3213 
L 646 5005 
z
M 1498 3341 
L 1690 3341 
L 1690 346 
L 1498 346 
L 1498 3341 
z
M 685 2458 
L 870 2458 
L 870 147 
L 685 147 
L 685 2458 
z
M 314 122 
Q 589 186 944 278 
Q 1299 371 1705 483 
Q 2112 595 2522 704 
L 2541 525 
Q 1958 365 1382 208 
Q 806 51 371 -70 
L 314 122 
z
M 1549 2106 
L 2483 2106 
L 2483 1920 
L 1549 1920 
L 1549 2106 
z
M 2643 2336 
L 6003 2336 
L 6003 2144 
L 2643 2144 
L 2643 2336 
z
M 3213 4096 
L 5894 4096 
L 5894 3910 
L 3155 3910 
L 3213 4096 
z
M 3277 5050 
L 3469 5018 
Q 3366 4416 3200 3865 
Q 3034 3315 2790 2918 
Q 2771 2938 2742 2957 
Q 2714 2976 2682 2995 
Q 2650 3014 2618 3027 
Q 2867 3405 3027 3939 
Q 3187 4474 3277 5050 
z
M 4224 5306 
L 4410 5306 
L 4410 3450 
Q 4410 3091 4387 2688 
Q 4365 2285 4272 1869 
Q 4179 1453 3980 1040 
Q 3782 627 3440 243 
Q 3098 -141 2560 -474 
Q 2547 -448 2524 -425 
Q 2502 -403 2476 -377 
Q 2451 -352 2426 -333 
Q 2957 -19 3293 352 
Q 3629 723 3821 1123 
Q 4013 1523 4099 1926 
Q 4186 2330 4205 2717 
Q 4224 3104 4224 3450 
L 4224 5306 
z
M 4416 2323 
Q 4531 1715 4752 1196 
Q 4973 678 5305 297 
Q 5638 -83 6086 -282 
Q 6061 -301 6035 -326 
Q 6010 -352 5987 -381 
Q 5965 -410 5946 -435 
Q 5261 -96 4848 614 
Q 4435 1325 4250 2285 
L 4416 2323 
z
" transform="scale(0.015625)"/>
       <path id="NotoSansSC-Thin-5e45" d="M 1376 5306 
L 1562 5306 
L 1562 -448 
L 1376 -448 
L 1376 5306 
z
M 531 4064 
L 2381 4064 
L 2381 3878 
L 717 3878 
L 717 858 
L 531 858 
L 531 4064 
z
M 2266 4064 
L 2451 4064 
L 2451 1158 
Q 2451 1075 2428 1024 
Q 2406 973 2342 941 
Q 2278 915 2163 908 
Q 2048 902 1882 902 
Q 1875 941 1849 995 
Q 1824 1050 1792 1094 
Q 1946 1088 2051 1088 
Q 2157 1088 2202 1088 
Q 2266 1094 2266 1158 
L 2266 4064 
z
M 2714 4928 
L 6074 4928 
L 6074 4742 
L 2714 4742 
L 2714 4928 
z
M 3283 3962 
L 3283 2957 
L 5453 2957 
L 5453 3962 
L 3283 3962 
z
M 3091 4147 
L 5638 4147 
L 5638 2765 
L 3091 2765 
L 3091 4147 
z
M 2912 1037 
L 5856 1037 
L 5856 845 
L 2912 845 
L 2912 1037 
z
M 2912 -32 
L 5856 -32 
L 5856 -218 
L 2912 -218 
L 2912 -32 
z
M 2790 2112 
L 5933 2112 
L 5933 -429 
L 5747 -429 
L 5747 1926 
L 2982 1926 
L 2982 -454 
L 2790 -454 
L 2790 2112 
z
M 4218 1997 
L 4403 1997 
L 4403 -147 
L 4218 -147 
L 4218 1997 
z
" transform="scale(0.015625)"/>
       <path id="NotoSansSC-Thin-20" transform="scale(0.015625)"/>
       <path id="NotoSansSC-Thin-28" d="M 1562 -1222 
Q 1133 -525 883 252 
Q 634 1030 634 1958 
Q 634 2886 883 3667 
Q 1133 4448 1562 5146 
L 1696 5056 
Q 1274 4390 1059 3596 
Q 845 2803 845 1958 
Q 845 1114 1059 320 
Q 1274 -474 1696 -1139 
L 1562 -1222 
z
" transform="scale(0.015625)"/>
       <path id="NotoSansSC-Thin-25" d="M 1267 1818 
Q 966 1818 745 1987 
Q 525 2157 409 2483 
Q 294 2810 294 3283 
Q 294 3750 409 4070 
Q 525 4390 745 4560 
Q 966 4730 1267 4730 
Q 1574 4730 1795 4560 
Q 2016 4390 2131 4070 
Q 2246 3750 2246 3283 
Q 2246 2810 2131 2483 
Q 2016 2157 1795 1987 
Q 1574 1818 1267 1818 
z
M 1267 2003 
Q 1619 2003 1820 2342 
Q 2022 2682 2022 3283 
Q 2022 3885 1820 4214 
Q 1619 4544 1267 4544 
Q 922 4544 717 4214 
Q 512 3885 512 3283 
Q 512 2682 717 2342 
Q 922 2003 1267 2003 
z
M 1382 -83 
L 3987 4730 
L 4218 4730 
L 1619 -83 
L 1382 -83 
z
M 4365 -83 
Q 4058 -83 3840 86 
Q 3622 256 3504 582 
Q 3386 909 3386 1382 
Q 3386 1850 3504 2170 
Q 3622 2490 3840 2659 
Q 4058 2829 4365 2829 
Q 4666 2829 4883 2659 
Q 5101 2490 5219 2170 
Q 5338 1850 5338 1382 
Q 5338 909 5219 582 
Q 5101 256 4883 86 
Q 4666 -83 4365 -83 
z
M 4365 102 
Q 4704 102 4912 441 
Q 5120 781 5120 1382 
Q 5120 1984 4912 2313 
Q 4704 2643 4365 2643 
Q 4013 2643 3808 2313 
Q 3603 1984 3603 1382 
Q 3603 781 3808 441 
Q 4013 102 4365 102 
z
" transform="scale(0.015625)"/>
       <path id="NotoSansSC-Thin-29" d="M 352 -1222 
L 211 -1139 
Q 634 -474 851 320 
Q 1069 1114 1069 1958 
Q 1069 2803 851 3596 
Q 634 4390 211 5056 
L 352 5146 
Q 787 4448 1033 3667 
Q 1280 2886 1280 1958 
Q 1280 1030 1033 252 
Q 787 -525 352 -1222 
z
" transform="scale(0.015625)"/>
      </defs>
      <use xlink:href="#NotoSansSC-Thin-5468"/>
      <use xlink:href="#NotoSansSC-Thin-6da8" transform="translate(99.999985 0)"/>
      <use xlink:href="#NotoSansSC-Thin-8dcc" transform="translate(199.999969 0)"/>
      <use xlink:href="#NotoSansSC-Thin-5e45" transform="translate(299.999954 0)"/>
      <use xlink:href="#NotoSansSC-Thin-20" transform="translate(399.999939 0)"/>
      <use xlink:href="#NotoSansSC-Thin-28" transform="translate(421.999924 0)"/>
      <use xlink:href="#NotoSansSC-Thin-25" transform="translate(451.899918 0)"/>
      <use xlink:href="#NotoSansSC-Thin-29" transform="translate(539.899902 0)"/>
     </g>
    </g>
   </g>
   <g id="matplotlib.axis_2">
    <g id="ytick_1">
     <g id="line2d_11">
      <defs>
       <path id="md8d366a367" d="M 0 0 
L -3.5 0 
" style="stroke: #64748b; stroke-width: 0.8"/>
      </defs>
      <g>
       <use xlink:href="#md8d366a367" x="84.626406" y="155.558565" style="fill: #64748b; stroke: #64748b; stroke-width: 0.8"/>
      </g>
     </g>
     <g id="text_7">
      <!-- AI算力(通信/电子) -->
      <g style="fill: #64748b" transform="translate(7.2 159.131846) scale(0.09 -0.09)">
       <defs>
        <path id="NotoSansSC-Thin-41" d="M 70 0 
L 1728 4646 
L 1939 4646 
L 3603 0 
L 3347 0 
L 2381 2784 
Q 2234 3206 2106 3587 
Q 1978 3968 1850 4403 
L 1824 4403 
Q 1696 3968 1565 3587 
Q 1434 3206 1286 2784 
L 307 0 
L 70 0 
z
M 787 1651 
L 787 1856 
L 2861 1856 
L 2861 1651 
L 787 1651 
z
" transform="scale(0.015625)"/>
        <path id="NotoSansSC-Thin-49" d="M 704 0 
L 704 4646 
L 941 4646 
L 941 0 
L 704 0 
z
" transform="scale(0.015625)"/>
        <path id="NotoSansSC-Thin-7b97" d="M 410 864 
L 6029 864 
L 6029 678 
L 410 678 
L 410 864 
z
M 1402 3021 
L 1402 2502 
L 5107 2502 
L 5107 3021 
L 1402 3021 
z
M 1402 2317 
L 1402 1786 
L 5107 1786 
L 5107 2317 
L 1402 2317 
z
M 1402 3712 
L 1402 3206 
L 5107 3206 
L 5107 3712 
L 1402 3712 
z
M 1210 3904 
L 5293 3904 
L 5293 1600 
L 1210 1600 
L 1210 3904 
z
M 4262 1645 
L 4448 1645 
L 4448 -442 
L 4262 -442 
L 4262 1645 
z
M 1005 4781 
L 3123 4781 
L 3123 4595 
L 1005 4595 
L 1005 4781 
z
M 3398 4781 
L 5946 4781 
L 5946 4595 
L 3398 4595 
L 3398 4781 
z
M 1222 5325 
L 1408 5280 
Q 1242 4870 995 4489 
Q 749 4109 480 3840 
Q 467 3853 435 3875 
Q 403 3898 371 3920 
Q 339 3942 314 3955 
Q 595 4218 835 4576 
Q 1075 4934 1222 5325 
z
M 3654 5325 
L 3840 5286 
Q 3699 4883 3459 4531 
Q 3219 4179 2944 3936 
Q 2931 3955 2899 3977 
Q 2867 4000 2835 4022 
Q 2803 4045 2778 4058 
Q 3059 4294 3289 4624 
Q 3520 4954 3654 5325 
z
M 1568 4621 
L 1741 4678 
Q 1850 4531 1965 4342 
Q 2080 4154 2125 4019 
L 1958 3949 
Q 1901 4083 1795 4275 
Q 1690 4467 1568 4621 
z
M 4134 4653 
L 4294 4736 
Q 4454 4589 4611 4390 
Q 4768 4192 4845 4038 
L 4685 3949 
Q 4614 4096 4457 4297 
Q 4301 4499 4134 4653 
z
M 2150 1651 
L 2349 1651 
L 2349 1229 
Q 2349 1043 2301 825 
Q 2253 608 2086 384 
Q 1920 160 1581 -57 
Q 1242 -275 653 -461 
Q 627 -429 595 -381 
Q 563 -333 531 -307 
Q 1101 -141 1427 54 
Q 1754 250 1907 461 
Q 2061 672 2105 870 
Q 2150 1069 2150 1235 
L 2150 1651 
z
" transform="scale(0.015625)"/>
        <path id="NotoSansSC-Thin-529b" d="M 576 3853 
L 5606 3853 
L 5606 3661 
L 576 3661 
L 576 3853 
z
M 5549 3853 
L 5741 3853 
Q 5741 3853 5741 3824 
Q 5741 3795 5737 3763 
Q 5734 3731 5734 3712 
Q 5670 2688 5612 1974 
Q 5555 1261 5488 806 
Q 5421 352 5341 99 
Q 5261 -154 5152 -262 
Q 5062 -365 4963 -393 
Q 4864 -422 4704 -429 
Q 4557 -435 4269 -422 
Q 3981 -410 3680 -390 
Q 3674 -346 3664 -294 
Q 3654 -243 3622 -198 
Q 3974 -230 4272 -240 
Q 4570 -250 4678 -250 
Q 4787 -250 4857 -234 
Q 4928 -218 4979 -160 
Q 5075 -64 5155 185 
Q 5235 435 5302 892 
Q 5370 1350 5430 2064 
Q 5491 2778 5549 3802 
L 5549 3853 
z
M 2797 5306 
L 2989 5306 
L 2989 4403 
Q 2989 3962 2950 3475 
Q 2912 2989 2787 2480 
Q 2662 1971 2396 1462 
Q 2131 954 1680 464 
Q 1229 -26 538 -467 
Q 525 -442 502 -419 
Q 480 -397 454 -371 
Q 429 -346 403 -333 
Q 1082 102 1523 579 
Q 1965 1056 2224 1552 
Q 2483 2048 2604 2541 
Q 2726 3034 2761 3504 
Q 2797 3974 2797 4403 
L 2797 5306 
z
" transform="scale(0.015625)"/>
        <path id="NotoSansSC-Thin-901a" d="M 1523 2963 
L 1523 544 
L 1338 544 
L 1338 2771 
L 339 2771 
L 339 2963 
L 1523 2963 
z
M 538 4941 
L 678 5037 
Q 877 4877 1078 4681 
Q 1280 4486 1456 4297 
Q 1632 4109 1747 3962 
L 1594 3846 
Q 1485 3994 1309 4186 
Q 1133 4378 931 4576 
Q 730 4774 538 4941 
z
M 2982 4410 
L 3104 4544 
Q 3424 4429 3773 4281 
Q 4122 4134 4438 3984 
Q 4755 3834 4966 3699 
L 4845 3546 
Q 4640 3674 4326 3830 
Q 4013 3987 3661 4140 
Q 3309 4294 2982 4410 
z
M 2342 3706 
L 5702 3706 
L 5702 3520 
L 2528 3520 
L 2528 390 
L 2342 390 
L 2342 3706 
z
M 5606 3706 
L 5798 3706 
L 5798 685 
Q 5798 563 5760 508 
Q 5722 454 5626 422 
Q 5523 397 5318 390 
Q 5114 384 4755 384 
Q 4749 429 4726 480 
Q 4704 531 4678 570 
Q 4979 563 5200 563 
Q 5421 563 5491 563 
Q 5562 570 5584 595 
Q 5606 621 5606 685 
L 5606 3706 
z
M 2291 5050 
L 5626 5050 
L 5626 4864 
L 2291 4864 
L 2291 5050 
z
M 2438 2739 
L 5722 2739 
L 5722 2554 
L 2438 2554 
L 2438 2739 
z
M 2438 1754 
L 5722 1754 
L 5722 1562 
L 2438 1562 
L 2438 1754 
z
M 3949 3661 
L 4134 3661 
L 4134 416 
L 3949 416 
L 3949 3661 
z
M 5581 5050 
L 5626 5050 
L 5670 5062 
L 5811 4966 
Q 5510 4672 5065 4409 
Q 4621 4147 4192 3981 
Q 4166 4013 4131 4054 
Q 4096 4096 4064 4122 
Q 4346 4224 4630 4368 
Q 4915 4512 5164 4678 
Q 5414 4845 5581 5005 
L 5581 5050 
z
M 1408 646 
Q 1568 646 1715 528 
Q 1862 410 2144 218 
Q 2477 13 2880 -48 
Q 3283 -109 3827 -109 
Q 4134 -109 4444 -102 
Q 4755 -96 5056 -83 
Q 5357 -70 5638 -57 
Q 5920 -45 6163 -26 
Q 6150 -51 6137 -86 
Q 6125 -122 6115 -160 
Q 6106 -198 6099 -230 
Q 5952 -237 5680 -249 
Q 5408 -262 5078 -268 
Q 4749 -275 4422 -281 
Q 4096 -288 3834 -288 
Q 3245 -288 2816 -211 
Q 2387 -134 2048 83 
Q 1856 205 1689 342 
Q 1523 480 1408 480 
Q 1293 480 1145 371 
Q 998 262 832 76 
Q 666 -109 480 -346 
L 339 -205 
Q 646 154 912 400 
Q 1178 646 1408 646 
z
" transform="scale(0.015625)"/>
        <path id="NotoSansSC-Thin-4fe1" d="M 2438 3322 
L 5440 3322 
L 5440 3130 
L 2438 3130 
L 2438 3322 
z
M 2438 2438 
L 5440 2438 
L 5440 2253 
L 2438 2253 
L 2438 2438 
z
M 2458 32 
L 5402 32 
L 5402 -154 
L 2458 -154 
L 2458 32 
z
M 1965 4198 
L 5978 4198 
L 5978 4006 
L 1965 4006 
L 1965 4198 
z
M 2368 1523 
L 5491 1523 
L 5491 -442 
L 5299 -442 
L 5299 1338 
L 2554 1338 
L 2554 -461 
L 2368 -461 
L 2368 1523 
z
M 3475 5229 
L 3661 5299 
Q 3802 5107 3933 4880 
Q 4064 4653 4128 4486 
L 3936 4397 
Q 3872 4563 3741 4796 
Q 3610 5030 3475 5229 
z
M 1773 5293 
L 1952 5248 
Q 1766 4710 1523 4201 
Q 1280 3693 995 3245 
Q 710 2797 403 2438 
Q 390 2458 364 2486 
Q 339 2515 310 2544 
Q 282 2573 256 2592 
Q 563 2925 844 3360 
Q 1126 3795 1363 4288 
Q 1600 4781 1773 5293 
z
M 1152 3731 
L 1325 3910 
L 1338 3904 
L 1338 -467 
L 1152 -467 
L 1152 3731 
z
" transform="scale(0.015625)"/>
        <path id="NotoSansSC-Thin-2f" d="M 58 -1126 
L 2298 5005 
L 2515 5005 
L 282 -1126 
L 58 -1126 
z
" transform="scale(0.015625)"/>
        <path id="NotoSansSC-Thin-7535" d="M 1030 2982 
L 5325 2982 
L 5325 2790 
L 1030 2790 
L 1030 2982 
z
M 3040 5331 
L 3226 5331 
L 3226 326 
Q 3226 154 3267 61 
Q 3309 -32 3417 -70 
Q 3526 -109 3731 -109 
Q 3795 -109 3958 -109 
Q 4122 -109 4330 -109 
Q 4538 -109 4749 -109 
Q 4960 -109 5136 -109 
Q 5312 -109 5395 -109 
Q 5587 -109 5686 -9 
Q 5786 90 5824 339 
Q 5862 589 5882 1037 
Q 5926 1005 5980 979 
Q 6035 954 6080 941 
Q 6054 474 6000 202 
Q 5946 -70 5805 -185 
Q 5664 -301 5370 -301 
Q 5331 -301 5168 -301 
Q 5005 -301 4784 -301 
Q 4563 -301 4342 -301 
Q 4122 -301 3958 -301 
Q 3795 -301 3757 -301 
Q 3482 -301 3325 -249 
Q 3168 -198 3104 -57 
Q 3040 83 3040 339 
L 3040 5331 
z
M 992 4378 
L 5459 4378 
L 5459 1350 
L 992 1350 
L 992 1536 
L 5267 1536 
L 5267 4192 
L 992 4192 
L 992 4378 
z
M 902 4378 
L 1107 4378 
L 1107 934 
L 902 934 
L 902 4378 
z
" transform="scale(0.015625)"/>
        <path id="NotoSansSC-Thin-5b50" d="M 358 2400 
L 6067 2400 
L 6067 2208 
L 358 2208 
L 358 2400 
z
M 1005 4819 
L 5325 4819 
L 5325 4627 
L 1005 4627 
L 1005 4819 
z
M 5248 4819 
L 5293 4819 
L 5338 4832 
L 5478 4730 
Q 5197 4454 4813 4176 
Q 4429 3898 4019 3654 
Q 3610 3411 3251 3238 
Q 3238 3264 3212 3286 
Q 3187 3309 3164 3331 
Q 3142 3354 3117 3366 
Q 3482 3533 3882 3769 
Q 4282 4006 4643 4268 
Q 5005 4531 5248 4774 
L 5248 4819 
z
M 3117 3366 
L 3309 3366 
L 3309 -96 
Q 3309 -256 3254 -323 
Q 3200 -390 3059 -416 
Q 2931 -442 2636 -448 
Q 2342 -454 1856 -454 
Q 1850 -429 1834 -397 
Q 1818 -365 1805 -326 
Q 1792 -288 1773 -256 
Q 2067 -262 2307 -265 
Q 2547 -269 2713 -265 
Q 2880 -262 2950 -262 
Q 3046 -250 3081 -218 
Q 3117 -186 3117 -102 
L 3117 3366 
z
" transform="scale(0.015625)"/>
       </defs>
       <use xlink:href="#NotoSansSC-Thin-41"/>
       <use xlink:href="#NotoSansSC-Thin-49" transform="translate(57.399994 0)"/>
       <use xlink:href="#NotoSansSC-Thin-7b97" transform="translate(83.099991 0)"/>
       <use xlink:href="#NotoSansSC-Thin-529b" transform="translate(183.099976 0)"/>
       <use xlink:href="#NotoSansSC-Thin-28" transform="translate(283.09996 0)"/>
       <use xlink:href="#NotoSansSC-Thin-901a" transform="translate(312.999954 0)"/>
       <use xlink:href="#NotoSansSC-Thin-4fe1" transform="translate(412.999939 0)"/>
       <use xlink:href="#NotoSansSC-Thin-2f" transform="translate(512.999924 0)"/>
       <use xlink:href="#NotoSansSC-Thin-7535" transform="translate(552.599915 0)"/>
       <use xlink:href="#NotoSansSC-Thin-5b50" transform="translate(652.599899 0)"/>
       <use xlink:href="#NotoSansSC-Thin-29" transform="translate(752.599884 0)"/>
      </g>
     </g>
    </g>
    <g id="ytick_2">
     <g id="line2d_12">
      <g>
       <use xlink:href="#md8d366a367" x="84.626406" y="132.746664" style="fill: #64748b; stroke: #64748b; stroke-width: 0.8"/>
      </g>
     </g>
     <g id="text_8">
      <!-- 半导体 -->
      <g style="fill: #64748b" transform="translate(50.626406 136.319945) scale(0.09 -0.09)">
       <defs>
        <path id="NotoSansSC-Thin-534a" d="M 1056 5037 
L 1216 5114 
Q 1382 4883 1545 4617 
Q 1709 4352 1843 4102 
Q 1978 3853 2048 3661 
L 1882 3571 
Q 1811 3763 1680 4019 
Q 1549 4275 1385 4544 
Q 1222 4813 1056 5037 
z
M 5165 5120 
L 5350 5024 
Q 5216 4787 5053 4515 
Q 4890 4243 4723 3987 
Q 4557 3731 4403 3533 
L 4256 3616 
Q 4410 3808 4576 4073 
Q 4742 4339 4899 4617 
Q 5056 4896 5165 5120 
z
M 819 3174 
L 5619 3174 
L 5619 2989 
L 819 2989 
L 819 3174 
z
M 378 1690 
L 6029 1690 
L 6029 1498 
L 378 1498 
L 378 1690 
z
M 3085 5318 
L 3277 5318 
L 3277 -435 
L 3085 -435 
L 3085 5318 
z
" transform="scale(0.015625)"/>
        <path id="NotoSansSC-Thin-5bfc" d="M 429 1741 
L 6022 1741 
L 6022 1549 
L 429 1549 
L 429 1741 
z
M 4339 2368 
L 4531 2368 
L 4531 -90 
Q 4531 -218 4486 -282 
Q 4442 -346 4320 -371 
Q 4205 -397 3936 -403 
Q 3667 -410 3187 -410 
Q 3181 -371 3155 -323 
Q 3130 -275 3104 -230 
Q 3379 -237 3600 -237 
Q 3821 -237 3974 -233 
Q 4128 -230 4186 -230 
Q 4275 -224 4307 -195 
Q 4339 -166 4339 -96 
L 4339 2368 
z
M 1491 1344 
L 1638 1440 
Q 1837 1254 2032 1027 
Q 2227 800 2387 582 
Q 2547 365 2637 192 
L 2477 83 
Q 2394 262 2234 483 
Q 2074 704 1882 931 
Q 1690 1158 1491 1344 
z
M 954 4973 
L 1146 4973 
L 1146 3085 
Q 1146 2950 1210 2873 
Q 1274 2797 1456 2765 
Q 1638 2733 2003 2733 
Q 2093 2733 2307 2733 
Q 2522 2733 2810 2733 
Q 3098 2733 3418 2733 
Q 3738 2733 4038 2733 
Q 4339 2733 4572 2733 
Q 4806 2733 4928 2733 
Q 5203 2733 5337 2787 
Q 5472 2842 5526 3002 
Q 5581 3162 5600 3462 
Q 5651 3437 5705 3414 
Q 5760 3392 5805 3379 
Q 5779 3053 5705 2870 
Q 5632 2688 5453 2617 
Q 5274 2547 4922 2547 
Q 4870 2547 4652 2547 
Q 4435 2547 4128 2547 
Q 3821 2547 3481 2547 
Q 3142 2547 2835 2547 
Q 2528 2547 2317 2547 
Q 2106 2547 2061 2547 
Q 1632 2547 1389 2588 
Q 1146 2630 1050 2745 
Q 954 2861 954 3091 
L 954 4973 
z
M 1043 3859 
L 5088 3859 
L 5088 4787 
L 954 4787 
L 954 4973 
L 5274 4973 
L 5274 3667 
L 1043 3667 
L 1043 3859 
z
" transform="scale(0.015625)"/>
        <path id="NotoSansSC-Thin-4f53" d="M 1792 5293 
L 1971 5248 
Q 1792 4710 1552 4201 
Q 1312 3693 1033 3245 
Q 755 2797 448 2438 
Q 435 2458 409 2486 
Q 384 2515 355 2544 
Q 326 2573 301 2592 
Q 602 2925 880 3360 
Q 1158 3795 1388 4288 
Q 1619 4781 1792 5293 
z
M 1152 3763 
L 1325 3942 
L 1338 3936 
L 1338 -435 
L 1152 -435 
L 1152 3763 
z
M 3808 5306 
L 3994 5306 
L 3994 -422 
L 3808 -422 
L 3808 5306 
z
M 1818 3872 
L 6061 3872 
L 6061 3680 
L 1818 3680 
L 1818 3872 
z
M 2541 1043 
L 5203 1043 
L 5203 851 
L 2541 851 
L 2541 1043 
z
M 4186 3808 
Q 4384 3206 4688 2630 
Q 4992 2054 5366 1584 
Q 5741 1114 6138 838 
Q 6099 813 6054 768 
Q 6010 723 5978 685 
Q 5581 986 5206 1469 
Q 4832 1952 4521 2541 
Q 4211 3130 4006 3750 
L 4186 3808 
z
M 3642 3802 
L 3802 3744 
Q 3590 3123 3267 2534 
Q 2944 1946 2566 1462 
Q 2189 979 1798 666 
Q 1786 691 1763 720 
Q 1741 749 1712 774 
Q 1683 800 1658 813 
Q 2048 1094 2422 1568 
Q 2797 2042 3117 2621 
Q 3437 3200 3642 3802 
z
" transform="scale(0.015625)"/>
       </defs>
       <use xlink:href="#NotoSansSC-Thin-534a"/>
       <use xlink:href="#NotoSansSC-Thin-5bfc" transform="translate(99.999985 0)"/>
       <use xlink:href="#NotoSansSC-Thin-4f53" transform="translate(199.999969 0)"/>
      </g>
     </g>
    </g>
    <g id="ytick_3">
     <g id="line2d_13">
      <g>
       <use xlink:href="#md8d366a367" x="84.626406" y="109.934763" style="fill: #64748b; stroke: #64748b; stroke-width: 0.8"/>
      </g>
     </g>
     <g id="text_9">
      <!-- 计算机软件 -->
      <g style="fill: #64748b" transform="translate(32.626406 113.508044) scale(0.09 -0.09)">
       <defs>
        <path id="NotoSansSC-Thin-8ba1" d="M 1018 5037 
L 1152 5158 
Q 1331 5011 1516 4835 
Q 1702 4659 1862 4489 
Q 2022 4320 2118 4186 
L 1990 4032 
Q 1888 4166 1728 4342 
Q 1568 4518 1382 4704 
Q 1197 4890 1018 5037 
z
M 1299 -230 
L 1293 -32 
L 1402 128 
L 2554 890 
Q 2566 870 2579 841 
Q 2592 813 2608 787 
Q 2624 762 2630 742 
Q 2208 454 1958 278 
Q 1709 102 1577 6 
Q 1446 -90 1388 -141 
Q 1331 -192 1299 -230 
z
M 346 3270 
L 1542 3270 
L 1542 3078 
L 346 3078 
L 346 3270 
z
M 2413 3085 
L 6086 3085 
L 6086 2899 
L 2413 2899 
L 2413 3085 
z
M 4122 5306 
L 4307 5306 
L 4307 -448 
L 4122 -448 
L 4122 5306 
z
M 1299 -230 
Q 1286 -205 1264 -173 
Q 1242 -141 1216 -112 
Q 1190 -83 1165 -64 
Q 1235 -19 1340 99 
Q 1446 218 1446 416 
L 1446 3270 
L 1632 3270 
L 1632 128 
Q 1632 128 1597 99 
Q 1562 70 1514 28 
Q 1466 -13 1418 -64 
Q 1370 -115 1334 -156 
Q 1299 -198 1299 -230 
z
" transform="scale(0.015625)"/>
        <path id="NotoSansSC-Thin-673a" d="M 3360 4954 
L 5171 4954 
L 5171 4768 
L 3360 4768 
L 3360 4954 
z
M 3251 4954 
L 3437 4954 
L 3437 2918 
Q 3437 2528 3401 2086 
Q 3366 1645 3264 1197 
Q 3162 749 2957 326 
Q 2752 -96 2413 -461 
Q 2400 -442 2374 -419 
Q 2349 -397 2320 -371 
Q 2291 -346 2266 -333 
Q 2598 19 2796 425 
Q 2995 832 3091 1261 
Q 3187 1690 3219 2112 
Q 3251 2534 3251 2918 
L 3251 4954 
z
M 5050 4954 
L 5242 4954 
L 5242 269 
Q 5242 83 5254 -29 
Q 5267 -141 5299 -166 
Q 5376 -205 5459 -205 
Q 5510 -205 5584 -205 
Q 5658 -205 5722 -205 
Q 5850 -205 5907 -147 
Q 5939 -115 5961 -64 
Q 5984 -13 5990 109 
Q 6003 224 6009 486 
Q 6016 749 6022 1107 
Q 6061 1062 6112 1036 
Q 6163 1011 6208 998 
Q 6208 813 6201 605 
Q 6195 397 6188 227 
Q 6182 58 6176 -13 
Q 6138 -250 6029 -326 
Q 5965 -358 5901 -374 
Q 5837 -390 5741 -390 
Q 5690 -390 5597 -390 
Q 5504 -390 5453 -390 
Q 5382 -390 5305 -374 
Q 5229 -358 5165 -314 
Q 5120 -282 5094 -227 
Q 5069 -173 5059 -35 
Q 5050 102 5050 371 
L 5050 4954 
z
M 378 3891 
L 2810 3891 
L 2810 3699 
L 378 3699 
L 378 3891 
z
M 1555 5318 
L 1747 5318 
L 1747 -435 
L 1555 -435 
L 1555 5318 
z
M 1555 3814 
L 1728 3763 
Q 1632 3373 1481 2957 
Q 1331 2541 1145 2144 
Q 960 1747 761 1408 
Q 563 1069 365 838 
Q 339 870 297 915 
Q 256 960 224 986 
Q 416 1210 614 1530 
Q 813 1850 992 2230 
Q 1171 2611 1318 3017 
Q 1466 3424 1555 3814 
z
M 1715 2970 
Q 1786 2906 1939 2752 
Q 2093 2598 2269 2416 
Q 2445 2234 2592 2077 
Q 2739 1920 2797 1850 
L 2643 1683 
Q 2573 1773 2432 1936 
Q 2291 2099 2124 2284 
Q 1958 2470 1811 2627 
Q 1664 2784 1581 2861 
L 1715 2970 
z
" transform="scale(0.015625)"/>
        <path id="NotoSansSC-Thin-8f6f" d="M 3763 4262 
L 5914 4262 
L 5914 4070 
L 3763 4070 
L 3763 4262 
z
M 3917 5318 
L 4115 5286 
Q 4032 4762 3907 4278 
Q 3782 3795 3616 3382 
Q 3450 2970 3226 2650 
Q 3213 2662 3177 2681 
Q 3142 2701 3107 2717 
Q 3072 2733 3046 2746 
Q 3277 3059 3443 3465 
Q 3610 3872 3725 4342 
Q 3840 4813 3917 5318 
z
M 5862 4256 
L 5894 4256 
L 5939 4269 
L 6061 4218 
Q 5997 3942 5926 3641 
Q 5856 3341 5779 3069 
Q 5702 2797 5626 2598 
L 5472 2669 
Q 5536 2861 5606 3120 
Q 5677 3379 5744 3660 
Q 5811 3942 5862 4198 
L 5862 4256 
z
M 4378 3437 
L 4570 3437 
L 4570 3149 
Q 4570 2758 4525 2307 
Q 4480 1856 4326 1382 
Q 4173 909 3843 441 
Q 3514 -26 2944 -448 
Q 2931 -429 2905 -406 
Q 2880 -384 2851 -361 
Q 2822 -339 2797 -326 
Q 3360 90 3680 544 
Q 4000 998 4150 1459 
Q 4301 1920 4339 2349 
Q 4378 2778 4378 3142 
L 4378 3437 
z
M 4557 2643 
Q 4666 1990 4867 1401 
Q 5069 813 5373 371 
Q 5677 -70 6086 -301 
Q 6067 -320 6038 -345 
Q 6010 -371 5987 -396 
Q 5965 -422 5946 -448 
Q 5530 -192 5222 265 
Q 4915 723 4713 1324 
Q 4512 1926 4397 2605 
L 4557 2643 
z
M 384 4493 
L 3066 4493 
L 3066 4301 
L 384 4301 
L 384 4493 
z
M 1888 3546 
L 2080 3546 
L 2080 -410 
L 1888 -410 
L 1888 3546 
z
M 333 954 
Q 672 1005 1117 1069 
Q 1562 1133 2067 1209 
Q 2573 1286 3078 1363 
L 3085 1178 
Q 2355 1062 1638 947 
Q 922 832 384 755 
L 333 954 
z
M 672 2259 
Q 666 2285 653 2323 
Q 640 2362 627 2397 
Q 614 2432 602 2458 
Q 672 2470 752 2620 
Q 832 2771 928 2989 
Q 979 3091 1081 3328 
Q 1184 3565 1305 3885 
Q 1427 4205 1545 4573 
Q 1664 4941 1754 5306 
L 1952 5248 
Q 1805 4742 1625 4230 
Q 1446 3718 1248 3251 
Q 1050 2784 845 2406 
L 845 2400 
Q 845 2400 819 2387 
Q 794 2374 758 2352 
Q 723 2330 697 2307 
Q 672 2285 672 2259 
z
M 672 2259 
L 672 2451 
L 858 2528 
L 3053 2528 
L 3053 2342 
L 1139 2342 
Q 941 2342 825 2316 
Q 710 2291 672 2259 
z
" transform="scale(0.015625)"/>
        <path id="NotoSansSC-Thin-4ef6" d="M 3974 5242 
L 4160 5242 
L 4160 -454 
L 3974 -454 
L 3974 5242 
z
M 2854 5024 
L 3040 4992 
Q 2957 4531 2835 4099 
Q 2714 3667 2554 3296 
Q 2394 2925 2195 2630 
Q 2182 2643 2153 2665 
Q 2125 2688 2096 2707 
Q 2067 2726 2042 2739 
Q 2240 3021 2397 3385 
Q 2554 3750 2669 4166 
Q 2784 4582 2854 5024 
z
M 2733 3936 
L 5754 3936 
L 5754 3744 
L 2682 3744 
L 2733 3936 
z
M 2029 2029 
L 6010 2029 
L 6010 1837 
L 2029 1837 
L 2029 2029 
z
M 1875 5293 
L 2061 5242 
Q 1862 4704 1606 4195 
Q 1350 3686 1052 3241 
Q 755 2797 429 2438 
Q 416 2458 390 2486 
Q 365 2515 339 2544 
Q 314 2573 288 2592 
Q 608 2925 899 3360 
Q 1190 3795 1443 4288 
Q 1696 4781 1875 5293 
z
M 1216 3763 
L 1395 3942 
L 1408 3936 
L 1408 -435 
L 1216 -435 
L 1216 3763 
z
" transform="scale(0.015625)"/>
       </defs>
       <use xlink:href="#NotoSansSC-Thin-8ba1"/>
       <use xlink:href="#NotoSansSC-Thin-7b97" transform="translate(99.999985 0)"/>
       <use xlink:href="#NotoSansSC-Thin-673a" transform="translate(199.999969 0)"/>
       <use xlink:href="#NotoSansSC-Thin-8f6f" transform="translate(299.999954 0)"/>
       <use xlink:href="#NotoSansSC-Thin-4ef6" transform="translate(399.999939 0)"/>
      </g>
     </g>
    </g>
    <g id="ytick_4">
     <g id="line2d_14">
      <g>
       <use xlink:href="#md8d366a367" x="84.626406" y="87.122862" style="fill: #64748b; stroke: #64748b; stroke-width: 0.8"/>
      </g>
     </g>
     <g id="text_10">
      <!-- 军工 -->
      <g style="fill: #64748b" transform="translate(59.626406 90.696143) scale(0.09 -0.09)">
       <defs>
        <path id="NotoSansSC-Thin-519b" d="M 550 5011 
L 5862 5011 
L 5862 3802 
L 5670 3802 
L 5670 4826 
L 742 4826 
L 742 3802 
L 550 3802 
L 550 5011 
z
M 1158 3622 
L 5229 3622 
L 5229 3430 
L 1158 3430 
L 1158 3622 
z
M 499 934 
L 5978 934 
L 5978 749 
L 499 749 
L 499 934 
z
M 3309 3046 
L 3494 3046 
L 3494 -448 
L 3309 -448 
L 3309 3046 
z
M 1299 1843 
Q 1299 1869 1286 1907 
Q 1274 1946 1261 1984 
Q 1248 2022 1235 2048 
Q 1306 2061 1392 2179 
Q 1478 2298 1581 2477 
Q 1638 2566 1747 2768 
Q 1856 2970 1993 3245 
Q 2131 3520 2268 3830 
Q 2406 4141 2509 4454 
L 2707 4397 
Q 2528 3955 2326 3516 
Q 2125 3078 1910 2688 
Q 1696 2298 1472 1984 
L 1472 1978 
Q 1472 1978 1446 1965 
Q 1421 1952 1385 1933 
Q 1350 1914 1324 1891 
Q 1299 1869 1299 1843 
z
M 1299 1843 
L 1299 2035 
L 1485 2112 
L 5414 2112 
L 5414 1926 
L 1920 1926 
Q 1619 1926 1484 1904 
Q 1350 1882 1299 1843 
z
" transform="scale(0.015625)"/>
        <path id="NotoSansSC-Thin-5de5" d="M 691 4538 
L 5747 4538 
L 5747 4346 
L 691 4346 
L 691 4538 
z
M 378 275 
L 6029 275 
L 6029 90 
L 378 90 
L 378 275 
z
M 3098 4474 
L 3290 4474 
L 3290 186 
L 3098 186 
L 3098 4474 
z
" transform="scale(0.015625)"/>
       </defs>
       <use xlink:href="#NotoSansSC-Thin-519b"/>
       <use xlink:href="#NotoSansSC-Thin-5de5" transform="translate(99.999985 0)"/>
      </g>
     </g>
    </g>
    <g id="ytick_5">
     <g id="line2d_15">
      <g>
       <use xlink:href="#md8d366a367" x="84.626406" y="64.310961" style="fill: #64748b; stroke: #64748b; stroke-width: 0.8"/>
      </g>
     </g>
     <g id="text_11">
      <!-- 银行 -->
      <g style="fill: #64748b" transform="translate(59.626406 67.884243) scale(0.09 -0.09)">
       <defs>
        <path id="NotoSansSC-Thin-94f6" d="M 3046 5005 
L 5670 5005 
L 5670 2349 
L 3046 2349 
L 3046 2534 
L 5485 2534 
L 5485 4819 
L 3046 4819 
L 3046 5005 
z
M 3091 3770 
L 5581 3770 
L 5581 3584 
L 3091 3584 
L 3091 3770 
z
M 4115 2438 
Q 4269 1805 4544 1277 
Q 4819 749 5225 368 
Q 5632 -13 6157 -211 
Q 6131 -230 6105 -262 
Q 6080 -294 6057 -323 
Q 6035 -352 6016 -384 
Q 5485 -160 5075 240 
Q 4666 640 4384 1190 
Q 4102 1741 3942 2400 
L 4115 2438 
z
M 5888 1978 
L 6029 1850 
Q 5837 1683 5590 1513 
Q 5344 1344 5091 1193 
Q 4838 1043 4621 922 
L 4506 1056 
Q 4717 1178 4973 1334 
Q 5229 1491 5472 1660 
Q 5715 1830 5888 1978 
z
M 2880 -435 
L 2874 -250 
L 3021 -134 
L 4506 256 
Q 4506 218 4509 166 
Q 4512 115 4518 83 
Q 4000 -70 3689 -160 
Q 3379 -250 3216 -301 
Q 3053 -352 2985 -381 
Q 2918 -410 2880 -435 
z
M 2880 -435 
Q 2874 -410 2854 -378 
Q 2835 -346 2812 -307 
Q 2790 -269 2771 -243 
Q 2822 -218 2886 -144 
Q 2950 -70 2950 109 
L 2950 5005 
L 3136 5005 
L 3136 -186 
Q 3136 -186 3110 -205 
Q 3085 -224 3046 -253 
Q 3008 -282 2969 -314 
Q 2931 -346 2905 -378 
Q 2880 -410 2880 -435 
z
M 1184 5293 
L 1376 5248 
Q 1267 4922 1113 4605 
Q 960 4288 774 4009 
Q 589 3731 390 3507 
Q 378 3526 352 3555 
Q 326 3584 300 3616 
Q 275 3648 250 3661 
Q 544 3962 790 4394 
Q 1037 4826 1184 5293 
z
M 928 4474 
L 2573 4474 
L 2573 4288 
L 890 4288 
L 928 4474 
z
M 640 3386 
L 2445 3386 
L 2445 3200 
L 640 3200 
L 640 3386 
z
M 358 2093 
L 2592 2093 
L 2592 1901 
L 358 1901 
L 358 2093 
z
M 1293 -358 
L 1293 -160 
L 1408 -19 
L 2637 621 
Q 2650 582 2666 537 
Q 2682 493 2694 467 
Q 2253 224 1987 77 
Q 1722 -70 1584 -153 
Q 1446 -237 1385 -278 
Q 1325 -320 1293 -358 
z
M 1293 -358 
Q 1286 -333 1267 -294 
Q 1248 -256 1229 -221 
Q 1210 -186 1190 -160 
Q 1242 -134 1306 -70 
Q 1370 -6 1370 173 
L 1370 3270 
L 1555 3270 
L 1555 -122 
Q 1555 -122 1529 -138 
Q 1504 -154 1465 -179 
Q 1427 -205 1385 -237 
Q 1344 -269 1318 -301 
Q 1293 -333 1293 -358 
z
" transform="scale(0.015625)"/>
        <path id="NotoSansSC-Thin-884c" d="M 2714 4909 
L 5875 4909 
L 5875 4717 
L 2714 4717 
L 2714 4909 
z
M 4832 3085 
L 5018 3085 
L 5018 -109 
Q 5018 -250 4966 -314 
Q 4915 -378 4806 -410 
Q 4685 -429 4419 -432 
Q 4154 -435 3642 -435 
Q 3635 -403 3612 -358 
Q 3590 -314 3558 -269 
Q 3834 -275 4061 -278 
Q 4288 -282 4445 -278 
Q 4602 -275 4659 -269 
Q 4755 -262 4793 -230 
Q 4832 -198 4832 -115 
L 4832 3085 
z
M 2426 3149 
L 6074 3149 
L 6074 2963 
L 2426 2963 
L 2426 3149 
z
M 1306 2912 
L 1478 3078 
L 1491 3066 
L 1491 -480 
L 1306 -480 
L 1306 2912 
z
M 2061 3974 
L 2240 3910 
Q 1997 3526 1686 3152 
Q 1376 2778 1040 2451 
Q 704 2125 371 1862 
Q 358 1882 329 1907 
Q 301 1933 272 1961 
Q 243 1990 218 2003 
Q 557 2246 893 2563 
Q 1229 2880 1529 3241 
Q 1830 3603 2061 3974 
z
M 1786 5325 
L 1971 5248 
Q 1779 4992 1516 4723 
Q 1254 4454 969 4204 
Q 685 3955 416 3757 
Q 403 3776 377 3801 
Q 352 3827 326 3856 
Q 301 3885 282 3898 
Q 550 4090 832 4330 
Q 1114 4570 1363 4829 
Q 1613 5088 1786 5325 
z
" transform="scale(0.015625)"/>
       </defs>
       <use xlink:href="#NotoSansSC-Thin-94f6"/>
       <use xlink:href="#NotoSansSC-Thin-884c" transform="translate(99.999985 0)"/>
      </g>
     </g>
    </g>
    <g id="ytick_6">
     <g id="line2d_16">
      <g>
       <use xlink:href="#md8d366a367" x="84.626406" y="41.49906" style="fill: #64748b; stroke: #64748b; stroke-width: 0.8"/>
      </g>
     </g>
     <g id="text_12">
      <!-- 高股息红利 -->
      <g style="fill: #64748b" transform="translate(32.626406 45.072342) scale(0.09 -0.09)">
       <defs>
        <path id="NotoSansSC-Thin-9ad8" d="M 410 4576 
L 5971 4576 
L 5971 4384 
L 410 4384 
L 410 4576 
z
M 1690 3718 
L 1690 2906 
L 4742 2906 
L 4742 3718 
L 1690 3718 
z
M 1498 3910 
L 4928 3910 
L 4928 2720 
L 1498 2720 
L 1498 3910 
z
M 698 2259 
L 5619 2259 
L 5619 2074 
L 883 2074 
L 883 -442 
L 698 -442 
L 698 2259 
z
M 5517 2259 
L 5702 2259 
L 5702 -134 
Q 5702 -237 5673 -285 
Q 5645 -333 5562 -365 
Q 5485 -390 5321 -393 
Q 5158 -397 4877 -397 
Q 4870 -358 4848 -310 
Q 4826 -262 4800 -230 
Q 4954 -230 5082 -230 
Q 5210 -230 5299 -230 
Q 5389 -230 5421 -230 
Q 5517 -224 5517 -141 
L 5517 2259 
z
M 2970 5286 
L 3110 5312 
Q 3194 5107 3270 4870 
Q 3347 4634 3379 4486 
L 3232 4429 
Q 3194 4595 3117 4838 
Q 3040 5082 2970 5286 
z
M 1926 1549 
L 4474 1549 
L 4474 346 
L 1926 346 
L 1926 531 
L 4288 531 
L 4288 1363 
L 1926 1363 
L 1926 1549 
z
M 1843 1549 
L 2035 1549 
L 2035 -32 
L 1843 -32 
L 1843 1549 
z
" transform="scale(0.015625)"/>
        <path id="NotoSansSC-Thin-80a1" d="M 954 5069 
L 2259 5069 
L 2259 4883 
L 954 4883 
L 954 5069 
z
M 954 3526 
L 2259 3526 
L 2259 3341 
L 954 3341 
L 954 3526 
z
M 934 1946 
L 2266 1946 
L 2266 1760 
L 934 1760 
L 934 1946 
z
M 832 5069 
L 1018 5069 
L 1018 2797 
Q 1018 2432 998 2013 
Q 979 1594 921 1158 
Q 864 723 745 310 
Q 627 -102 435 -454 
Q 422 -435 390 -416 
Q 358 -397 329 -381 
Q 301 -365 275 -352 
Q 467 -6 579 394 
Q 691 794 745 1210 
Q 800 1626 816 2032 
Q 832 2438 832 2797 
L 832 5069 
z
M 2214 5069 
L 2400 5069 
L 2400 -90 
Q 2400 -211 2355 -272 
Q 2310 -333 2221 -365 
Q 2131 -390 1942 -393 
Q 1754 -397 1427 -397 
Q 1421 -371 1405 -339 
Q 1389 -307 1376 -272 
Q 1363 -237 1344 -211 
Q 1619 -218 1824 -218 
Q 2029 -218 2093 -218 
Q 2214 -211 2214 -90 
L 2214 5069 
z
M 3430 5056 
L 5043 5056 
L 5043 4870 
L 3430 4870 
L 3430 5056 
z
M 2694 2438 
L 5523 2438 
L 5523 2253 
L 2694 2253 
L 2694 2438 
z
M 5453 2438 
L 5498 2438 
L 5536 2451 
L 5651 2394 
Q 5459 1824 5129 1363 
Q 4800 902 4384 547 
Q 3968 192 3504 -57 
Q 3040 -307 2579 -461 
Q 2560 -422 2525 -374 
Q 2490 -326 2458 -294 
Q 2912 -160 3366 80 
Q 3821 320 4230 659 
Q 4640 998 4957 1436 
Q 5274 1875 5453 2400 
L 5453 2438 
z
M 3181 2349 
Q 3418 1696 3834 1158 
Q 4250 621 4822 246 
Q 5395 -128 6099 -307 
Q 6080 -326 6054 -355 
Q 6029 -384 6006 -413 
Q 5984 -442 5965 -474 
Q 4909 -179 4147 544 
Q 3386 1267 3021 2291 
L 3181 2349 
z
M 3386 5056 
L 3578 5056 
L 3578 4339 
Q 3578 4077 3507 3782 
Q 3437 3488 3248 3203 
Q 3059 2918 2701 2682 
Q 2688 2701 2665 2726 
Q 2643 2752 2617 2781 
Q 2592 2810 2573 2822 
Q 2912 3046 3088 3305 
Q 3264 3565 3325 3833 
Q 3386 4102 3386 4339 
L 3386 5056 
z
M 4947 5056 
L 5139 5056 
L 5139 3488 
Q 5139 3354 5158 3309 
Q 5178 3264 5242 3264 
Q 5286 3264 5395 3264 
Q 5504 3264 5613 3264 
Q 5722 3264 5760 3264 
Q 5811 3264 5878 3270 
Q 5946 3277 6003 3283 
Q 6010 3245 6016 3184 
Q 6022 3123 6029 3091 
Q 5984 3085 5910 3078 
Q 5837 3072 5760 3072 
Q 5722 3072 5610 3072 
Q 5498 3072 5389 3072 
Q 5280 3072 5248 3072 
Q 5126 3072 5062 3107 
Q 4998 3142 4972 3235 
Q 4947 3328 4947 3494 
L 4947 5056 
z
" transform="scale(0.015625)"/>
        <path id="NotoSansSC-Thin-606f" d="M 1504 3597 
L 1504 2861 
L 4902 2861 
L 4902 3597 
L 1504 3597 
z
M 1504 2675 
L 1504 1933 
L 4902 1933 
L 4902 2675 
L 1504 2675 
z
M 1504 4506 
L 1504 3782 
L 4902 3782 
L 4902 4506 
L 1504 4506 
z
M 1318 4691 
L 5088 4691 
L 5088 1747 
L 1318 1747 
L 1318 4691 
z
M 3149 5376 
L 3334 5299 
Q 3245 5114 3142 4918 
Q 3040 4723 2950 4582 
L 2797 4640 
Q 2886 4794 2988 5008 
Q 3091 5222 3149 5376 
z
M 1741 1261 
L 1926 1261 
L 1926 64 
Q 1926 -58 2025 -99 
Q 2125 -141 2458 -141 
Q 2522 -141 2691 -141 
Q 2861 -141 3081 -141 
Q 3302 -141 3526 -141 
Q 3750 -141 3932 -141 
Q 4115 -141 4205 -141 
Q 4397 -141 4486 -86 
Q 4576 -32 4611 137 
Q 4646 307 4659 653 
Q 4691 634 4723 614 
Q 4755 595 4790 585 
Q 4826 576 4858 570 
Q 4838 205 4784 9 
Q 4730 -186 4598 -259 
Q 4467 -333 4211 -333 
Q 4173 -333 3997 -333 
Q 3821 -333 3584 -333 
Q 3347 -333 3107 -333 
Q 2867 -333 2694 -333 
Q 2522 -333 2483 -333 
Q 2195 -333 2032 -304 
Q 1869 -275 1805 -188 
Q 1741 -102 1741 64 
L 1741 1261 
z
M 2714 1555 
L 2861 1651 
Q 3040 1504 3225 1325 
Q 3411 1146 3568 970 
Q 3725 794 3821 653 
L 3667 538 
Q 3571 685 3414 864 
Q 3258 1043 3075 1225 
Q 2893 1408 2714 1555 
z
M 5011 1190 
L 5184 1267 
Q 5344 1088 5494 870 
Q 5645 653 5766 445 
Q 5888 237 5952 70 
L 5779 -13 
Q 5715 154 5593 365 
Q 5472 576 5321 793 
Q 5171 1011 5011 1190 
z
M 1088 1178 
L 1235 1114 
Q 1152 928 1043 697 
Q 934 467 809 243 
Q 685 19 550 -160 
L 390 -83 
Q 531 90 659 317 
Q 787 544 899 774 
Q 1011 1005 1088 1178 
z
" transform="scale(0.015625)"/>
        <path id="NotoSansSC-Thin-7ea2" d="M 422 1267 
Q 416 1293 403 1331 
Q 390 1370 377 1408 
Q 365 1446 352 1472 
Q 442 1485 563 1603 
Q 685 1722 845 1901 
Q 928 1984 1097 2182 
Q 1267 2381 1481 2656 
Q 1696 2931 1920 3248 
Q 2144 3565 2342 3891 
L 2522 3795 
Q 2074 3117 1584 2493 
Q 1094 1869 602 1402 
L 602 1395 
Q 602 1395 576 1385 
Q 550 1376 512 1357 
Q 474 1338 448 1315 
Q 422 1293 422 1267 
z
M 422 1267 
L 422 1440 
L 576 1536 
L 2534 1811 
Q 2528 1779 2531 1724 
Q 2534 1670 2541 1638 
Q 1856 1536 1449 1472 
Q 1043 1408 835 1369 
Q 627 1331 544 1308 
Q 461 1286 422 1267 
z
M 384 2784 
Q 378 2810 365 2851 
Q 352 2893 339 2934 
Q 326 2976 314 3002 
Q 390 3014 486 3126 
Q 582 3238 704 3405 
Q 768 3488 896 3680 
Q 1024 3872 1181 4131 
Q 1338 4390 1501 4688 
Q 1664 4986 1792 5286 
L 1990 5203 
Q 1779 4781 1545 4371 
Q 1312 3962 1065 3594 
Q 819 3226 563 2925 
L 563 2925 
Q 563 2925 537 2912 
Q 512 2899 473 2876 
Q 435 2854 409 2832 
Q 384 2810 384 2784 
z
M 384 2784 
L 384 2957 
L 538 3040 
L 1907 3187 
Q 1901 3142 1904 3091 
Q 1907 3040 1907 3014 
Q 1427 2957 1139 2918 
Q 851 2880 700 2857 
Q 550 2835 483 2819 
Q 416 2803 384 2784 
z
M 320 205 
Q 602 256 966 326 
Q 1331 397 1747 480 
Q 2163 563 2586 646 
L 2598 467 
Q 1990 346 1398 224 
Q 806 102 365 6 
L 320 205 
z
M 2707 4646 
L 5952 4646 
L 5952 4461 
L 2707 4461 
L 2707 4646 
z
M 2643 192 
L 6093 192 
L 6093 0 
L 2643 0 
L 2643 192 
z
M 4256 4595 
L 4448 4595 
L 4448 77 
L 4256 77 
L 4256 4595 
z
" transform="scale(0.015625)"/>
        <path id="NotoSansSC-Thin-5229" d="M 358 3360 
L 3379 3360 
L 3379 3174 
L 358 3174 
L 358 3360 
z
M 3930 4570 
L 4115 4570 
L 4115 1094 
L 3930 1094 
L 3930 4570 
z
M 1818 4870 
L 2010 4870 
L 2010 -435 
L 1818 -435 
L 1818 4870 
z
M 5555 5197 
L 5747 5197 
L 5747 -109 
Q 5747 -269 5689 -336 
Q 5632 -403 5523 -429 
Q 5408 -454 5168 -460 
Q 4928 -467 4486 -461 
Q 4480 -435 4464 -406 
Q 4448 -378 4432 -342 
Q 4416 -307 4397 -282 
Q 4768 -288 5037 -288 
Q 5306 -288 5389 -282 
Q 5478 -275 5516 -240 
Q 5555 -205 5555 -115 
L 5555 5197 
z
M 3078 5267 
L 3245 5120 
Q 2912 4986 2435 4874 
Q 1958 4762 1430 4675 
Q 902 4589 410 4525 
Q 403 4563 384 4608 
Q 365 4653 339 4685 
Q 698 4736 1088 4797 
Q 1478 4858 1849 4931 
Q 2221 5005 2541 5088 
Q 2861 5171 3078 5267 
z
M 1792 3290 
L 1958 3226 
Q 1837 2861 1654 2473 
Q 1472 2086 1254 1721 
Q 1037 1357 803 1046 
Q 570 736 346 525 
Q 333 550 307 576 
Q 282 602 259 630 
Q 237 659 218 678 
Q 435 883 662 1177 
Q 890 1472 1104 1824 
Q 1318 2176 1497 2550 
Q 1677 2925 1792 3290 
z
M 1997 2611 
Q 2086 2541 2268 2384 
Q 2451 2227 2662 2041 
Q 2874 1856 3053 1696 
Q 3232 1536 3315 1466 
L 3194 1318 
Q 3104 1408 2928 1571 
Q 2752 1734 2547 1920 
Q 2342 2106 2160 2262 
Q 1978 2419 1869 2496 
L 1997 2611 
z
" transform="scale(0.015625)"/>
       </defs>
       <use xlink:href="#NotoSansSC-Thin-9ad8"/>
       <use xlink:href="#NotoSansSC-Thin-80a1" transform="translate(99.999985 0)"/>
       <use xlink:href="#NotoSansSC-Thin-606f" transform="translate(199.999969 0)"/>
       <use xlink:href="#NotoSansSC-Thin-7ea2" transform="translate(299.999954 0)"/>
       <use xlink:href="#NotoSansSC-Thin-5229" transform="translate(399.999939 0)"/>
      </g>
     </g>
    </g>
   </g>
   <g id="line2d_17">
    <path d="M 254.172406 167.534812 
L 254.172406 29.522812 
" clip-path="url(#p3e08a865fb)" style="fill: none; stroke: #1e293b; stroke-width: 0.8; stroke-linecap: square"/>
   </g>
   <g id="patch_9">
    <path d="M 84.626406 167.534812 
L 84.626406 29.522812 
" style="fill: none; stroke: #e2e8f0; stroke-width: 0.8; stroke-linejoin: miter; stroke-linecap: square"/>
   </g>
   <g id="patch_10">
    <path d="M 84.626406 167.534812 
L 345.466406 167.534812 
" style="fill: none; stroke: #e2e8f0; stroke-width: 0.8; stroke-linejoin: miter; stroke-linecap: square"/>
   </g>
   <g id="text_13">
    <!-- -4.8% -->
    <g style="fill: #ffffff" transform="translate(102.764731 158.038486) scale(0.09 -0.09)">
     <defs>
      <path id="NotoSansSC-Thin-2e" d="M 736 -83 
Q 640 -83 560 -9 
Q 480 64 480 192 
Q 480 333 560 406 
Q 640 480 736 480 
Q 838 480 918 406 
Q 998 333 998 192 
Q 998 64 918 -9 
Q 838 -83 736 -83 
z
" transform="scale(0.015625)"/>
      <path id="NotoSansSC-Thin-38" d="M 1696 -83 
Q 1286 -83 966 80 
Q 646 243 464 521 
Q 282 800 282 1152 
Q 282 1478 422 1744 
Q 563 2010 774 2202 
Q 986 2394 1197 2509 
L 1197 2534 
Q 954 2694 752 2953 
Q 550 3213 550 3578 
Q 550 3910 704 4163 
Q 858 4416 1117 4560 
Q 1376 4704 1696 4704 
Q 2080 4704 2345 4544 
Q 2611 4384 2752 4112 
Q 2893 3840 2893 3494 
Q 2893 3238 2784 3008 
Q 2675 2778 2528 2602 
Q 2381 2426 2253 2317 
L 2253 2285 
Q 2445 2170 2627 2010 
Q 2810 1850 2925 1626 
Q 3040 1402 3040 1082 
Q 3040 762 2870 496 
Q 2701 230 2400 73 
Q 2099 -83 1696 -83 
z
M 2035 2387 
Q 2336 2630 2499 2905 
Q 2662 3181 2662 3494 
Q 2662 3763 2550 3990 
Q 2438 4218 2220 4358 
Q 2003 4499 1696 4499 
Q 1293 4499 1040 4236 
Q 787 3974 787 3578 
Q 787 3238 972 3017 
Q 1158 2797 1446 2653 
Q 1734 2509 2035 2387 
z
M 1696 128 
Q 2035 128 2281 256 
Q 2528 384 2662 601 
Q 2797 819 2797 1082 
Q 2797 1370 2675 1574 
Q 2554 1779 2352 1923 
Q 2150 2067 1894 2182 
Q 1638 2298 1370 2400 
Q 998 2189 758 1875 
Q 518 1562 518 1152 
Q 518 870 668 636 
Q 819 403 1088 265 
Q 1357 128 1696 128 
z
" transform="scale(0.015625)"/>
     </defs>
     <use xlink:href="#NotoSansSC-Thin-2d"/>
     <use xlink:href="#NotoSansSC-Thin-34" transform="translate(32.399994 0)"/>
     <use xlink:href="#NotoSansSC-Thin-2e" transform="translate(84.499985 0)"/>
     <use xlink:href="#NotoSansSC-Thin-38" transform="translate(107.599976 0)"/>
     <use xlink:href="#NotoSansSC-Thin-25" transform="translate(159.699966 0)"/>
    </g>
   </g>
   <g id="text_14">
    <!-- -3.2% -->
    <g style="fill: #ffffff" transform="translate(144.499131 135.226586) scale(0.09 -0.09)">
     <defs>
      <path id="NotoSansSC-Thin-33" d="M 1619 -83 
Q 1261 -83 998 13 
Q 736 109 544 256 
Q 352 403 211 550 
L 358 717 
Q 563 499 857 313 
Q 1152 128 1632 128 
Q 1952 128 2198 262 
Q 2445 397 2585 640 
Q 2726 883 2726 1210 
Q 2726 1542 2560 1795 
Q 2394 2048 2038 2189 
Q 1683 2330 1114 2330 
L 1114 2554 
Q 1651 2554 1964 2698 
Q 2278 2842 2416 3088 
Q 2554 3334 2554 3629 
Q 2554 4026 2298 4272 
Q 2042 4518 1606 4518 
Q 1293 4518 1017 4374 
Q 742 4230 557 4026 
L 410 4192 
Q 634 4410 925 4570 
Q 1216 4730 1606 4730 
Q 1939 4730 2211 4598 
Q 2483 4467 2643 4224 
Q 2803 3981 2803 3642 
Q 2803 3168 2550 2877 
Q 2298 2586 1926 2464 
L 1926 2438 
Q 2208 2381 2445 2221 
Q 2682 2061 2826 1808 
Q 2970 1555 2970 1222 
Q 2970 826 2790 531 
Q 2611 237 2307 77 
Q 2003 -83 1619 -83 
z
" transform="scale(0.015625)"/>
     </defs>
     <use xlink:href="#NotoSansSC-Thin-2d"/>
     <use xlink:href="#NotoSansSC-Thin-33" transform="translate(32.399994 0)"/>
     <use xlink:href="#NotoSansSC-Thin-2e" transform="translate(84.499985 0)"/>
     <use xlink:href="#NotoSansSC-Thin-32" transform="translate(107.599976 0)"/>
     <use xlink:href="#NotoSansSC-Thin-25" transform="translate(159.699966 0)"/>
    </g>
   </g>
   <g id="text_15">
    <!-- -2.1% -->
    <g style="fill: #ffffff" transform="translate(173.191531 112.414685) scale(0.09 -0.09)">
     <defs>
      <path id="NotoSansSC-Thin-31" d="M 608 0 
L 608 211 
L 1677 211 
L 1677 4211 
L 864 4211 
L 864 4378 
Q 1133 4422 1344 4492 
Q 1555 4563 1702 4646 
L 1901 4646 
L 1901 211 
L 2899 211 
L 2899 0 
L 608 0 
z
" transform="scale(0.015625)"/>
     </defs>
     <use xlink:href="#NotoSansSC-Thin-2d"/>
     <use xlink:href="#NotoSansSC-Thin-32" transform="translate(32.399994 0)"/>
     <use xlink:href="#NotoSansSC-Thin-2e" transform="translate(84.499985 0)"/>
     <use xlink:href="#NotoSansSC-Thin-31" transform="translate(107.599976 0)"/>
     <use xlink:href="#NotoSansSC-Thin-25" transform="translate(159.699966 0)"/>
    </g>
   </g>
   <g id="text_16">
    <!-- +0.8% -->
    <g style="fill: #10b981" transform="translate(277.126326 89.602784) scale(0.09 -0.09)">
     <defs>
      <path id="NotoSansSC-Thin-2b" d="M 1549 787 
L 1549 2221 
L 237 2221 
L 237 2426 
L 1549 2426 
L 1549 3866 
L 1786 3866 
L 1786 2426 
L 3098 2426 
L 3098 2221 
L 1786 2221 
L 1786 787 
L 1549 787 
z
" transform="scale(0.015625)"/>
     </defs>
     <use xlink:href="#NotoSansSC-Thin-2b"/>
     <use xlink:href="#NotoSansSC-Thin-30" transform="translate(52.099991 0)"/>
     <use xlink:href="#NotoSansSC-Thin-2e" transform="translate(104.199982 0)"/>
     <use xlink:href="#NotoSansSC-Thin-38" transform="translate(127.299973 0)"/>
     <use xlink:href="#NotoSansSC-Thin-25" transform="translate(179.399963 0)"/>
    </g>
   </g>
   <g id="text_17">
    <!-- +1.5% -->
    <g style="fill: #10b981" transform="translate(295.385126 66.790883) scale(0.09 -0.09)">
     <defs>
      <path id="NotoSansSC-Thin-35" d="M 1581 -83 
Q 1222 -83 963 9 
Q 704 102 515 240 
Q 326 378 186 518 
L 333 691 
Q 467 550 636 422 
Q 806 294 1040 211 
Q 1274 128 1594 128 
Q 1901 128 2166 294 
Q 2432 461 2592 765 
Q 2752 1069 2752 1466 
Q 2752 2061 2441 2406 
Q 2131 2752 1606 2752 
Q 1350 2752 1152 2665 
Q 954 2579 755 2445 
L 563 2560 
L 730 4646 
L 2758 4646 
L 2758 4435 
L 941 4435 
L 787 2726 
Q 966 2835 1168 2902 
Q 1370 2970 1626 2970 
Q 2010 2970 2320 2813 
Q 2630 2656 2812 2326 
Q 2995 1997 2995 1478 
Q 2995 979 2787 630 
Q 2579 282 2256 99 
Q 1933 -83 1581 -83 
z
" transform="scale(0.015625)"/>
     </defs>
     <use xlink:href="#NotoSansSC-Thin-2b"/>
     <use xlink:href="#NotoSansSC-Thin-31" transform="translate(52.099991 0)"/>
     <use xlink:href="#NotoSansSC-Thin-2e" transform="translate(104.199982 0)"/>
     <use xlink:href="#NotoSansSC-Thin-35" transform="translate(127.299973 0)"/>
     <use xlink:href="#NotoSansSC-Thin-25" transform="translate(179.399963 0)"/>
    </g>
   </g>
   <g id="text_18">
    <!-- +1.8% -->
    <g style="fill: #10b981" transform="translate(303.210326 43.978982) scale(0.09 -0.09)">
     <use xlink:href="#NotoSansSC-Thin-2b"/>
     <use xlink:href="#NotoSansSC-Thin-31" transform="translate(52.099991 0)"/>
     <use xlink:href="#NotoSansSC-Thin-2e" transform="translate(104.199982 0)"/>
     <use xlink:href="#NotoSansSC-Thin-38" transform="translate(127.299973 0)"/>
     <use xlink:href="#NotoSansSC-Thin-25" transform="translate(179.399963 0)"/>
    </g>
   </g>
   <g id="text_19">
    <!-- AI交易拥挤度触顶 → 资金高低切换 -->
    <g style="fill: #64748b" transform="translate(153.962031 194.589112) scale(0.08 -0.08)">
     <defs>
      <path id="NotoSansSC-Thin-4ea4" d="M 4294 2758 
L 4486 2701 
Q 4160 1798 3587 1184 
Q 3014 570 2224 173 
Q 1434 -224 442 -480 
Q 435 -454 412 -419 
Q 390 -384 364 -352 
Q 339 -320 314 -294 
Q 1312 -70 2093 314 
Q 2874 698 3430 1296 
Q 3987 1894 4294 2758 
z
M 2176 3821 
L 2355 3750 
Q 2138 3482 1859 3210 
Q 1581 2938 1283 2698 
Q 986 2458 710 2266 
Q 698 2285 669 2313 
Q 640 2342 614 2374 
Q 589 2406 563 2419 
Q 845 2598 1139 2825 
Q 1434 3053 1706 3309 
Q 1978 3565 2176 3821 
z
M 2125 2720 
Q 2592 1536 3613 787 
Q 4634 38 6118 -218 
Q 6099 -237 6073 -269 
Q 6048 -301 6025 -336 
Q 6003 -371 5984 -403 
Q 4992 -211 4201 192 
Q 3411 595 2844 1212 
Q 2278 1830 1952 2656 
L 2125 2720 
z
M 480 4352 
L 5901 4352 
L 5901 4166 
L 480 4166 
L 480 4352 
z
M 4096 3686 
L 4243 3795 
Q 4550 3590 4867 3337 
Q 5184 3085 5459 2835 
Q 5734 2586 5907 2381 
L 5760 2253 
Q 5594 2464 5322 2717 
Q 5050 2970 4730 3226 
Q 4410 3482 4096 3686 
z
M 2784 5293 
L 2957 5357 
Q 3098 5178 3235 4950 
Q 3373 4723 3437 4570 
L 3264 4486 
Q 3200 4653 3065 4880 
Q 2931 5107 2784 5293 
z
" transform="scale(0.015625)"/>
      <path id="NotoSansSC-Thin-6613" d="M 1446 3757 
L 1446 2880 
L 5075 2880 
L 5075 3757 
L 1446 3757 
z
M 1446 4813 
L 1446 3949 
L 5075 3949 
L 5075 4813 
L 1446 4813 
z
M 1254 4998 
L 5261 4998 
L 5261 2694 
L 1254 2694 
L 1254 4998 
z
M 1574 1984 
L 5504 1984 
L 5504 1792 
L 1574 1792 
L 1574 1984 
z
M 5434 1984 
L 5626 1984 
Q 5626 1984 5622 1961 
Q 5619 1939 5619 1907 
Q 5619 1875 5613 1856 
Q 5562 1114 5504 666 
Q 5446 218 5379 -12 
Q 5312 -243 5216 -339 
Q 5152 -403 5072 -428 
Q 4992 -454 4870 -454 
Q 4755 -461 4537 -454 
Q 4320 -448 4083 -429 
Q 4077 -390 4064 -339 
Q 4051 -288 4019 -243 
Q 4288 -269 4518 -275 
Q 4749 -282 4832 -282 
Q 4922 -282 4973 -272 
Q 5024 -262 5062 -218 
Q 5146 -141 5206 86 
Q 5267 314 5324 762 
Q 5382 1210 5434 1939 
L 5434 1984 
z
M 2150 2758 
L 2342 2701 
Q 2112 2342 1814 2009 
Q 1517 1677 1187 1392 
Q 858 1107 525 890 
Q 512 909 480 934 
Q 448 960 416 985 
Q 384 1011 352 1024 
Q 870 1344 1353 1798 
Q 1837 2253 2150 2758 
z
M 2918 1958 
L 3104 1901 
Q 2867 1446 2544 1036 
Q 2221 627 1853 281 
Q 1485 -64 1094 -333 
Q 1082 -314 1050 -288 
Q 1018 -262 986 -233 
Q 954 -205 928 -192 
Q 1530 186 2054 749 
Q 2579 1312 2918 1958 
z
M 4256 1939 
L 4448 1894 
Q 4192 1158 3789 550 
Q 3386 -58 2893 -474 
Q 2880 -454 2848 -432 
Q 2816 -410 2787 -384 
Q 2758 -358 2733 -346 
Q 3232 58 3625 650 
Q 4019 1242 4256 1939 
z
" transform="scale(0.015625)"/>
      <path id="NotoSansSC-Thin-62e5" d="M 2707 4858 
L 5728 4858 
L 5728 4666 
L 2707 4666 
L 2707 4858 
z
M 2694 3341 
L 5715 3341 
L 5715 3149 
L 2694 3149 
L 2694 3341 
z
M 2637 1850 
L 5747 1850 
L 5747 1664 
L 2637 1664 
L 2637 1850 
z
M 2586 4858 
L 2771 4858 
L 2771 2528 
Q 2771 2182 2745 1795 
Q 2720 1408 2640 1014 
Q 2560 621 2403 249 
Q 2246 -122 1984 -435 
Q 1971 -416 1945 -390 
Q 1920 -365 1891 -339 
Q 1862 -314 1837 -301 
Q 2176 109 2336 595 
Q 2496 1082 2541 1581 
Q 2586 2080 2586 2528 
L 2586 4858 
z
M 5670 4858 
L 5869 4858 
L 5869 -102 
Q 5869 -237 5824 -304 
Q 5779 -371 5670 -403 
Q 5568 -429 5353 -432 
Q 5139 -435 4800 -435 
Q 4787 -403 4764 -342 
Q 4742 -282 4717 -237 
Q 5018 -243 5242 -243 
Q 5466 -243 5542 -237 
Q 5613 -230 5641 -204 
Q 5670 -179 5670 -102 
L 5670 4858 
z
M 4115 4800 
L 4301 4800 
L 4301 -371 
L 4115 -371 
L 4115 4800 
z
M 224 1760 
Q 582 1882 1107 2064 
Q 1632 2246 2176 2445 
L 2208 2253 
Q 1702 2074 1200 1891 
Q 698 1709 301 1562 
L 224 1760 
z
M 301 3949 
L 2227 3949 
L 2227 3757 
L 301 3757 
L 301 3949 
z
M 1210 5312 
L 1402 5312 
L 1402 -147 
Q 1402 -275 1357 -332 
Q 1312 -390 1222 -416 
Q 1139 -442 969 -448 
Q 800 -454 499 -448 
Q 493 -416 470 -365 
Q 448 -314 422 -269 
Q 666 -275 851 -275 
Q 1037 -275 1094 -269 
Q 1152 -269 1181 -243 
Q 1210 -218 1210 -147 
L 1210 5312 
z
" transform="scale(0.015625)"/>
      <path id="NotoSansSC-Thin-6324" d="M 2202 4518 
L 6016 4518 
L 6016 4326 
L 2202 4326 
L 2202 4518 
z
M 3718 5267 
L 3885 5318 
Q 4006 5114 4118 4867 
Q 4230 4621 4275 4454 
L 4109 4384 
Q 4064 4563 3955 4812 
Q 3846 5062 3718 5267 
z
M 5114 4461 
L 5306 4429 
Q 5139 3738 4729 3290 
Q 4320 2842 3715 2576 
Q 3110 2310 2349 2157 
Q 2342 2182 2326 2217 
Q 2310 2253 2291 2288 
Q 2272 2323 2253 2342 
Q 3002 2470 3590 2713 
Q 4179 2957 4569 3382 
Q 4960 3808 5114 4461 
z
M 4806 2138 
L 4992 2138 
L 4992 -403 
L 4806 -403 
L 4806 2138 
z
M 3200 2138 
L 3386 2138 
L 3386 1459 
Q 3386 1229 3338 989 
Q 3290 749 3162 512 
Q 3034 275 2794 54 
Q 2554 -166 2176 -358 
Q 2157 -333 2131 -310 
Q 2106 -288 2077 -265 
Q 2048 -243 2022 -230 
Q 2522 6 2774 294 
Q 3027 582 3113 886 
Q 3200 1190 3200 1459 
L 3200 2138 
z
M 3110 4435 
Q 3430 3526 4204 3011 
Q 4979 2496 6144 2330 
Q 6118 2310 6092 2278 
Q 6067 2246 6048 2214 
Q 6029 2182 6016 2150 
Q 5242 2285 4627 2563 
Q 4013 2842 3584 3293 
Q 3155 3744 2931 4378 
L 3110 4435 
z
M 288 1798 
Q 614 1926 1078 2121 
Q 1542 2317 2029 2515 
L 2067 2330 
Q 1619 2138 1177 1949 
Q 736 1760 378 1613 
L 288 1798 
z
M 371 3949 
L 2099 3949 
L 2099 3757 
L 371 3757 
L 371 3949 
z
M 1178 5312 
L 1370 5312 
L 1370 -102 
Q 1370 -224 1331 -278 
Q 1293 -333 1210 -365 
Q 1126 -390 972 -396 
Q 819 -403 557 -403 
Q 550 -365 531 -310 
Q 512 -256 486 -211 
Q 704 -218 864 -218 
Q 1024 -218 1075 -211 
Q 1133 -211 1155 -192 
Q 1178 -173 1178 -109 
L 1178 5312 
z
" transform="scale(0.015625)"/>
      <path id="NotoSansSC-Thin-5ea6" d="M 1280 3526 
L 5939 3526 
L 5939 3341 
L 1280 3341 
L 1280 3526 
z
M 1408 1658 
L 5222 1658 
L 5222 1466 
L 1408 1466 
L 1408 1658 
z
M 2470 4218 
L 2662 4218 
L 2662 2406 
L 4608 2406 
L 4608 4218 
L 4794 4218 
L 4794 2221 
L 2470 2221 
L 2470 4218 
z
M 5165 1658 
L 5210 1658 
L 5248 1670 
L 5370 1587 
Q 5101 1107 4653 761 
Q 4205 416 3641 182 
Q 3078 -51 2454 -195 
Q 1830 -339 1197 -416 
Q 1190 -384 1164 -333 
Q 1139 -282 1114 -243 
Q 1722 -179 2336 -44 
Q 2950 90 3500 310 
Q 4051 531 4483 854 
Q 4915 1178 5165 1613 
L 5165 1658 
z
M 2374 1459 
Q 2701 966 3264 608 
Q 3827 250 4553 26 
Q 5280 -198 6093 -288 
Q 6074 -307 6051 -339 
Q 6029 -371 6009 -400 
Q 5990 -429 5978 -454 
Q 5171 -346 4438 -112 
Q 3706 122 3126 493 
Q 2547 864 2208 1382 
L 2374 1459 
z
M 992 4595 
L 6022 4595 
L 6022 4403 
L 992 4403 
L 992 4595 
z
M 902 4595 
L 1094 4595 
L 1094 2822 
Q 1094 2464 1072 2045 
Q 1050 1626 986 1187 
Q 922 749 800 326 
Q 678 -96 474 -461 
Q 461 -442 429 -422 
Q 397 -403 368 -384 
Q 339 -365 314 -358 
Q 518 0 633 409 
Q 749 819 809 1241 
Q 870 1664 886 2067 
Q 902 2470 902 2822 
L 902 4595 
z
M 3098 5274 
L 3277 5331 
Q 3398 5152 3523 4934 
Q 3648 4717 3706 4570 
L 3526 4493 
Q 3462 4646 3344 4870 
Q 3226 5094 3098 5274 
z
" transform="scale(0.015625)"/>
      <path id="NotoSansSC-Thin-89e6" d="M 864 3712 
L 2790 3712 
L 2790 3526 
L 864 3526 
L 864 3712 
z
M 864 2586 
L 2790 2586 
L 2790 2400 
L 864 2400 
L 864 2586 
z
M 864 1434 
L 2790 1434 
L 2790 1242 
L 864 1242 
L 864 1434 
z
M 1216 4768 
L 2464 4768 
L 2464 4582 
L 1216 4582 
L 1216 4768 
z
M 1722 3642 
L 1907 3642 
L 1907 -288 
L 1722 -288 
L 1722 3642 
z
M 1344 5318 
L 1542 5274 
Q 1363 4634 1081 4067 
Q 800 3501 461 3098 
Q 448 3117 413 3139 
Q 378 3162 342 3184 
Q 307 3206 282 3219 
Q 640 3603 912 4156 
Q 1184 4710 1344 5318 
z
M 768 3712 
L 954 3712 
L 954 2003 
Q 954 1728 934 1405 
Q 915 1082 864 752 
Q 813 422 710 112 
Q 608 -198 442 -461 
Q 429 -442 397 -426 
Q 365 -410 336 -390 
Q 307 -371 282 -365 
Q 499 -19 601 393 
Q 704 806 736 1225 
Q 768 1645 768 2003 
L 768 3712 
z
M 2694 3712 
L 2880 3712 
L 2880 -128 
Q 2880 -224 2848 -275 
Q 2816 -326 2746 -352 
Q 2682 -378 2547 -384 
Q 2413 -390 2202 -390 
Q 2195 -352 2172 -301 
Q 2150 -250 2125 -211 
Q 2304 -218 2435 -218 
Q 2566 -218 2611 -211 
Q 2694 -211 2694 -128 
L 2694 3712 
z
M 2400 4768 
L 2438 4768 
L 2477 4781 
L 2611 4691 
Q 2502 4397 2342 4093 
Q 2182 3789 2035 3578 
Q 2010 3603 1962 3628 
Q 1914 3654 1875 3661 
Q 1978 3802 2074 3984 
Q 2170 4166 2256 4361 
Q 2342 4557 2400 4723 
L 2400 4768 
z
M 5133 1248 
L 5293 1312 
Q 5472 1043 5638 732 
Q 5805 422 5933 131 
Q 6061 -160 6125 -378 
L 5946 -461 
Q 5888 -237 5760 57 
Q 5632 352 5469 665 
Q 5306 979 5133 1248 
z
M 3046 -6 
Q 3379 38 3817 99 
Q 4256 160 4758 237 
Q 5261 314 5773 390 
L 5779 205 
Q 5286 134 4793 57 
Q 4301 -19 3862 -83 
Q 3424 -147 3078 -198 
L 3046 -6 
z
M 3462 3827 
L 3462 1978 
L 5574 1978 
L 5574 3827 
L 3462 3827 
z
M 3277 4013 
L 5766 4013 
L 5766 1786 
L 3277 1786 
L 3277 4013 
z
M 4416 5299 
L 4608 5299 
L 4608 3917 
L 4416 3917 
L 4416 5299 
z
M 4416 3917 
L 4608 3917 
L 4608 1888 
L 4608 1888 
L 4608 70 
L 4416 70 
L 4416 1888 
L 4416 1888 
L 4416 3917 
z
" transform="scale(0.015625)"/>
      <path id="NotoSansSC-Thin-9876" d="M 2867 4992 
L 6093 4992 
L 6093 4806 
L 2867 4806 
L 2867 4992 
z
M 4378 4928 
L 4595 4883 
Q 4506 4634 4410 4358 
Q 4314 4083 4224 3885 
L 4038 3930 
Q 4128 4134 4224 4422 
Q 4320 4710 4378 4928 
z
M 4390 3302 
L 4582 3302 
L 4582 1894 
Q 4582 1600 4531 1280 
Q 4480 960 4304 646 
Q 4128 333 3763 48 
Q 3398 -237 2771 -461 
Q 2765 -435 2745 -409 
Q 2726 -384 2704 -355 
Q 2682 -326 2662 -307 
Q 3270 -102 3619 163 
Q 3968 429 4134 723 
Q 4301 1018 4345 1318 
Q 4390 1619 4390 1894 
L 4390 3302 
z
M 4557 691 
L 4691 819 
Q 4941 653 5200 451 
Q 5459 250 5686 51 
Q 5914 -147 6061 -307 
L 5920 -454 
Q 5773 -294 5545 -92 
Q 5318 109 5059 317 
Q 4800 525 4557 691 
z
M 3149 3974 
L 5824 3974 
L 5824 1024 
L 5632 1024 
L 5632 3782 
L 3341 3782 
L 3341 1024 
L 3149 1024 
L 3149 3974 
z
M 352 4813 
L 2752 4813 
L 2752 4621 
L 352 4621 
L 352 4813 
z
M 1510 4755 
L 1702 4755 
L 1702 192 
Q 1702 45 1651 -19 
Q 1600 -83 1491 -109 
Q 1389 -134 1161 -140 
Q 934 -147 538 -141 
Q 531 -115 515 -86 
Q 499 -58 486 -22 
Q 474 13 454 38 
Q 787 32 1036 32 
Q 1286 32 1363 38 
Q 1453 45 1481 73 
Q 1510 102 1510 186 
L 1510 4755 
z
" transform="scale(0.015625)"/>
      <path id="NotoSansSC-Thin-2192" d="M 5606 2547 
Q 5312 2771 4973 3094 
Q 4634 3418 4371 3757 
L 4563 3891 
Q 4781 3610 5046 3341 
Q 5312 3072 5603 2841 
Q 5894 2611 6176 2432 
Q 5894 2259 5603 2025 
Q 5312 1792 5046 1523 
Q 4781 1254 4563 973 
L 4371 1107 
Q 4634 1446 4973 1772 
Q 5312 2099 5606 2317 
L 256 2317 
L 256 2547 
L 5606 2547 
z
" transform="scale(0.015625)"/>
      <path id="NotoSansSC-Thin-8d44" d="M 627 4864 
L 736 5011 
Q 986 4934 1248 4825 
Q 1510 4717 1740 4592 
Q 1971 4467 2118 4352 
L 2016 4179 
Q 1869 4294 1635 4422 
Q 1402 4550 1139 4665 
Q 877 4781 627 4864 
z
M 352 3040 
Q 698 3142 1178 3289 
Q 1658 3437 2182 3597 
L 2202 3411 
Q 1722 3264 1251 3120 
Q 781 2976 410 2854 
L 352 3040 
z
M 3232 5318 
L 3424 5293 
Q 3264 4928 2982 4525 
Q 2701 4122 2285 3782 
Q 2266 3808 2240 3827 
Q 2214 3846 2188 3865 
Q 2163 3885 2138 3898 
Q 2547 4205 2819 4595 
Q 3091 4986 3232 5318 
z
M 2976 4678 
L 5658 4678 
L 5658 4493 
L 2842 4493 
L 2976 4678 
z
M 5600 4678 
L 5645 4678 
L 5683 4691 
L 5811 4634 
Q 5664 4397 5513 4153 
Q 5363 3910 5229 3744 
L 5069 3814 
Q 5197 3974 5341 4198 
Q 5485 4422 5600 4640 
L 5600 4678 
z
M 1286 2362 
L 5178 2362 
L 5178 576 
L 4986 576 
L 4986 2170 
L 1478 2170 
L 1478 557 
L 1286 557 
L 1286 2362 
z
M 3206 1958 
L 3405 1958 
Q 3328 1421 3152 1014 
Q 2976 608 2653 317 
Q 2330 26 1808 -163 
Q 1286 -352 512 -461 
Q 506 -435 490 -409 
Q 474 -384 458 -358 
Q 442 -333 422 -314 
Q 1184 -211 1693 -28 
Q 2202 154 2509 429 
Q 2816 704 2979 1081 
Q 3142 1459 3206 1958 
z
M 3360 646 
L 3450 806 
Q 3770 698 4115 566 
Q 4461 435 4793 294 
Q 5126 154 5414 16 
Q 5702 -122 5907 -237 
L 5824 -422 
Q 5613 -307 5321 -166 
Q 5030 -26 4697 118 
Q 4365 262 4022 400 
Q 3680 538 3360 646 
z
M 4006 4570 
L 4211 4570 
Q 4128 4230 3971 3929 
Q 3814 3629 3574 3376 
Q 3334 3123 2985 2924 
Q 2637 2726 2163 2592 
Q 2144 2624 2112 2669 
Q 2080 2714 2048 2733 
Q 2515 2854 2851 3043 
Q 3187 3232 3417 3472 
Q 3648 3712 3789 3990 
Q 3930 4269 4006 4570 
z
M 3987 4070 
Q 4173 3763 4486 3504 
Q 4800 3245 5193 3056 
Q 5587 2867 6010 2771 
Q 5978 2746 5942 2701 
Q 5907 2656 5882 2618 
Q 5459 2733 5062 2934 
Q 4666 3136 4342 3411 
Q 4019 3686 3827 4006 
L 3987 4070 
z
" transform="scale(0.015625)"/>
      <path id="NotoSansSC-Thin-91d1" d="M 1613 3334 
L 4806 3334 
L 4806 3142 
L 1613 3142 
L 1613 3334 
z
M 717 2067 
L 5715 2067 
L 5715 1875 
L 717 1875 
L 717 2067 
z
M 454 -32 
L 5958 -32 
L 5958 -218 
L 454 -218 
L 454 -32 
z
M 3085 3270 
L 3277 3270 
L 3277 -147 
L 3085 -147 
L 3085 3270 
z
M 1382 1478 
L 1549 1536 
Q 1683 1344 1808 1117 
Q 1933 890 2035 675 
Q 2138 461 2189 294 
L 2016 224 
Q 1965 390 1865 608 
Q 1766 826 1641 1056 
Q 1517 1286 1382 1478 
z
M 4826 1555 
L 5005 1466 
Q 4832 1152 4614 803 
Q 4397 454 4205 211 
L 4058 288 
Q 4186 454 4326 678 
Q 4467 902 4601 1136 
Q 4736 1370 4826 1555 
z
M 3290 5107 
Q 3526 4806 3859 4512 
Q 4192 4218 4579 3952 
Q 4966 3686 5369 3475 
Q 5773 3264 6144 3130 
Q 6118 3110 6092 3081 
Q 6067 3053 6041 3024 
Q 6016 2995 5997 2963 
Q 5632 3110 5232 3331 
Q 4832 3552 4441 3827 
Q 4051 4102 3712 4409 
Q 3373 4717 3130 5024 
L 3290 5107 
z
M 3277 5363 
L 3443 5280 
Q 3117 4794 2633 4346 
Q 2150 3898 1577 3542 
Q 1005 3187 397 2957 
Q 371 2995 332 3046 
Q 294 3098 256 3123 
Q 858 3341 1434 3683 
Q 2010 4026 2490 4458 
Q 2970 4890 3277 5363 
z
" transform="scale(0.015625)"/>
      <path id="NotoSansSC-Thin-4f4e" d="M 1862 5293 
L 2048 5242 
Q 1837 4704 1555 4192 
Q 1274 3680 950 3235 
Q 627 2790 282 2438 
Q 269 2458 246 2486 
Q 224 2515 198 2547 
Q 173 2579 147 2592 
Q 493 2925 809 3357 
Q 1126 3789 1398 4285 
Q 1670 4781 1862 5293 
z
M 1152 3763 
L 1325 3942 
L 1338 3936 
L 1338 -435 
L 1152 -435 
L 1152 3763 
z
M 2547 2771 
L 6054 2771 
L 6054 2586 
L 2547 2586 
L 2547 2771 
z
M 5421 5274 
L 5619 5133 
Q 5235 4998 4720 4873 
Q 4205 4749 3638 4643 
Q 3072 4538 2528 4454 
Q 2522 4486 2499 4534 
Q 2477 4582 2458 4608 
Q 2989 4691 3552 4800 
Q 4115 4909 4608 5030 
Q 5101 5152 5421 5274 
z
M 4186 4883 
L 4371 4883 
Q 4403 3846 4499 2934 
Q 4595 2022 4748 1331 
Q 4902 640 5120 240 
Q 5338 -160 5619 -173 
Q 5734 -179 5814 102 
Q 5894 384 5939 890 
Q 5965 877 5993 861 
Q 6022 845 6051 835 
Q 6080 826 6106 819 
Q 6061 365 5993 99 
Q 5926 -166 5836 -278 
Q 5747 -390 5626 -390 
Q 5331 -384 5107 -102 
Q 4883 179 4723 672 
Q 4563 1165 4457 1827 
Q 4352 2490 4285 3267 
Q 4218 4045 4186 4883 
z
M 2298 -467 
L 2298 -301 
L 2426 -192 
L 3789 186 
Q 3789 154 3792 106 
Q 3795 58 3802 26 
Q 3322 -115 3037 -204 
Q 2752 -294 2605 -342 
Q 2458 -390 2394 -419 
Q 2330 -448 2298 -467 
z
M 2298 -467 
Q 2291 -442 2272 -406 
Q 2253 -371 2230 -336 
Q 2208 -301 2189 -275 
Q 2259 -250 2358 -173 
Q 2458 -96 2458 83 
L 2458 4608 
L 2650 4557 
L 2650 -211 
Q 2650 -211 2595 -240 
Q 2541 -269 2473 -310 
Q 2406 -352 2352 -393 
Q 2298 -435 2298 -467 
z
M 3770 787 
L 3936 838 
Q 4058 666 4173 464 
Q 4288 262 4387 73 
Q 4486 -115 4538 -262 
L 4365 -333 
Q 4320 -186 4224 9 
Q 4128 205 4009 409 
Q 3891 614 3770 787 
z
" transform="scale(0.015625)"/>
      <path id="NotoSansSC-Thin-5207" d="M 2739 4666 
L 5875 4666 
L 5875 4480 
L 2739 4480 
L 2739 4666 
z
M 5760 4666 
L 5946 4666 
Q 5946 4666 5946 4637 
Q 5946 4608 5946 4573 
Q 5946 4538 5946 4518 
Q 5907 3264 5868 2409 
Q 5830 1555 5779 1024 
Q 5728 493 5661 208 
Q 5594 -77 5498 -192 
Q 5414 -294 5318 -332 
Q 5222 -371 5082 -378 
Q 4941 -378 4694 -371 
Q 4448 -365 4192 -346 
Q 4186 -294 4176 -240 
Q 4166 -186 4134 -147 
Q 4448 -173 4704 -179 
Q 4960 -186 5062 -186 
Q 5152 -186 5209 -170 
Q 5267 -154 5318 -90 
Q 5408 6 5472 291 
Q 5536 576 5587 1117 
Q 5638 1658 5680 2515 
Q 5722 3373 5760 4608 
L 5760 4666 
z
M 224 3232 
L 2701 3808 
L 2739 3642 
L 262 3059 
L 224 3232 
z
M 3917 4602 
L 4102 4602 
Q 4090 4006 4054 3414 
Q 4019 2822 3916 2259 
Q 3814 1696 3609 1197 
Q 3405 698 3056 288 
Q 2707 -122 2170 -410 
Q 2144 -378 2096 -336 
Q 2048 -294 2010 -275 
Q 2541 0 2886 397 
Q 3232 794 3437 1286 
Q 3642 1779 3741 2326 
Q 3840 2874 3872 3453 
Q 3904 4032 3917 4602 
z
M 1030 608 
L 1024 806 
L 1158 941 
L 2778 1632 
Q 2790 1594 2806 1546 
Q 2822 1498 2829 1466 
Q 2253 1210 1910 1056 
Q 1568 902 1392 816 
Q 1216 730 1142 688 
Q 1069 646 1030 608 
z
M 1030 608 
Q 1024 634 1001 669 
Q 979 704 956 739 
Q 934 774 915 800 
Q 979 832 1059 915 
Q 1139 998 1139 1178 
L 1139 5069 
L 1325 5069 
L 1325 890 
Q 1325 890 1296 870 
Q 1267 851 1222 816 
Q 1178 781 1133 745 
Q 1088 710 1059 672 
Q 1030 634 1030 608 
z
" transform="scale(0.015625)"/>
      <path id="NotoSansSC-Thin-6362" d="M 307 1760 
Q 646 1869 1123 2038 
Q 1600 2208 2106 2394 
L 2138 2195 
Q 1670 2029 1209 1862 
Q 749 1696 390 1562 
L 307 1760 
z
M 371 3949 
L 2074 3949 
L 2074 3757 
L 371 3757 
L 371 3949 
z
M 1197 5312 
L 1408 5312 
L 1408 -160 
Q 1408 -282 1369 -342 
Q 1331 -403 1248 -429 
Q 1171 -454 1020 -460 
Q 870 -467 621 -467 
Q 608 -429 585 -371 
Q 563 -314 538 -269 
Q 742 -275 896 -275 
Q 1050 -275 1101 -269 
Q 1197 -269 1197 -166 
L 1197 5312 
z
M 3251 4736 
L 5062 4736 
L 5062 4550 
L 3251 4550 
L 3251 4736 
z
M 3514 5350 
L 3725 5318 
Q 3526 4864 3190 4339 
Q 2854 3814 2355 3379 
Q 2336 3405 2307 3427 
Q 2278 3450 2249 3469 
Q 2221 3488 2195 3501 
Q 2522 3776 2778 4096 
Q 3034 4416 3219 4742 
Q 3405 5069 3514 5350 
z
M 4992 4736 
L 5037 4736 
L 5075 4749 
L 5210 4653 
Q 5088 4461 4928 4265 
Q 4768 4070 4595 3897 
Q 4422 3725 4262 3597 
Q 4237 3622 4195 3644 
Q 4154 3667 4122 3680 
Q 4275 3808 4441 3981 
Q 4608 4154 4752 4342 
Q 4896 4531 4992 4691 
L 4992 4736 
z
M 2106 1786 
L 5978 1786 
L 5978 1600 
L 2106 1600 
L 2106 1786 
z
M 2643 3718 
L 5459 3718 
L 5459 1658 
L 5267 1658 
L 5267 3533 
L 2829 3533 
L 2829 1658 
L 2643 1658 
L 2643 3718 
z
M 4147 1722 
Q 4333 1274 4627 880 
Q 4922 486 5299 188 
Q 5677 -109 6099 -282 
Q 6061 -314 6019 -362 
Q 5978 -410 5952 -448 
Q 5536 -256 5152 61 
Q 4768 378 4464 787 
Q 4160 1197 3968 1658 
L 4147 1722 
z
M 4000 3603 
L 4192 3603 
L 4192 2893 
Q 4192 2605 4160 2278 
Q 4128 1952 4009 1603 
Q 3891 1254 3644 899 
Q 3398 544 2972 201 
Q 2547 -141 1888 -454 
Q 1862 -422 1827 -380 
Q 1792 -339 1760 -314 
Q 2406 -13 2825 316 
Q 3245 646 3485 988 
Q 3725 1331 3833 1664 
Q 3942 1997 3971 2310 
Q 4000 2624 4000 2893 
L 4000 3603 
z
" transform="scale(0.015625)"/>
     </defs>
     <use xlink:href="#NotoSansSC-Thin-41"/>
     <use xlink:href="#NotoSansSC-Thin-49" transform="translate(57.399994 0)"/>
     <use xlink:href="#NotoSansSC-Thin-4ea4" transform="translate(83.099991 0)"/>
     <use xlink:href="#NotoSansSC-Thin-6613" transform="translate(183.099976 0)"/>
     <use xlink:href="#NotoSansSC-Thin-62e5" transform="translate(283.09996 0)"/>
     <use xlink:href="#NotoSansSC-Thin-6324" transform="translate(383.099945 0)"/>
     <use xlink:href="#NotoSansSC-Thin-5ea6" transform="translate(483.09993 0)"/>
     <use xlink:href="#NotoSansSC-Thin-89e6" transform="translate(583.099915 0)"/>
     <use xlink:href="#NotoSansSC-Thin-9876" transform="translate(683.099899 0)"/>
     <use xlink:href="#NotoSansSC-Thin-20" transform="translate(783.099884 0)"/>
     <use xlink:href="#NotoSansSC-Thin-2192" transform="translate(805.099869 0)"/>
     <use xlink:href="#NotoSansSC-Thin-20" transform="translate(905.099854 0)"/>
     <use xlink:href="#NotoSansSC-Thin-8d44" transform="translate(927.099838 0)"/>
     <use xlink:href="#NotoSansSC-Thin-91d1" transform="translate(1027.099823 0)"/>
     <use xlink:href="#NotoSansSC-Thin-9ad8" transform="translate(1127.099808 0)"/>
     <use xlink:href="#NotoSansSC-Thin-4f4e" transform="translate(1227.099792 0)"/>
     <use xlink:href="#NotoSansSC-Thin-5207" transform="translate(1327.099777 0)"/>
     <use xlink:href="#NotoSansSC-Thin-6362" transform="translate(1427.099762 0)"/>
    </g>
   </g>
   <g id="text_20">
    <!-- A股板块轮动 — 资金从高估值向低估值迁移 -->
    <g style="fill: #1e293b" transform="translate(92.228906 17.522812) scale(0.13 -0.13)">
     <defs>
      <path id="NotoSansSC-Thin-677f" d="M 442 4038 
L 2477 4038 
L 2477 3853 
L 442 3853 
L 442 4038 
z
M 1446 5318 
L 1632 5318 
L 1632 -435 
L 1446 -435 
L 1446 5318 
z
M 1434 3987 
L 1600 3942 
Q 1517 3558 1389 3145 
Q 1261 2733 1104 2333 
Q 947 1933 774 1590 
Q 602 1248 429 1011 
Q 416 1037 390 1065 
Q 365 1094 336 1120 
Q 307 1146 282 1158 
Q 454 1382 624 1708 
Q 794 2035 950 2419 
Q 1107 2803 1232 3206 
Q 1357 3610 1434 3987 
z
M 1594 3610 
Q 1645 3546 1757 3382 
Q 1869 3219 1993 3024 
Q 2118 2829 2227 2665 
Q 2336 2502 2381 2426 
L 2240 2259 
Q 2189 2355 2086 2534 
Q 1984 2714 1865 2912 
Q 1747 3110 1641 3273 
Q 1536 3437 1478 3514 
L 1594 3610 
z
M 2784 4602 
L 2976 4602 
L 2976 3002 
Q 2976 2618 2947 2176 
Q 2918 1734 2835 1273 
Q 2752 813 2592 371 
Q 2432 -70 2163 -448 
Q 2144 -429 2115 -409 
Q 2086 -390 2060 -371 
Q 2035 -352 2010 -346 
Q 2272 32 2429 457 
Q 2586 883 2662 1331 
Q 2739 1779 2761 2208 
Q 2784 2637 2784 3008 
L 2784 4602 
z
M 2893 3302 
L 5574 3302 
L 5574 3110 
L 2893 3110 
L 2893 3302 
z
M 5517 3302 
L 5555 3302 
L 5587 3315 
L 5709 3264 
Q 5498 2266 5069 1533 
Q 4640 800 4070 313 
Q 3501 -173 2867 -448 
Q 2854 -422 2832 -396 
Q 2810 -371 2787 -342 
Q 2765 -314 2739 -294 
Q 3354 -38 3914 432 
Q 4474 902 4896 1606 
Q 5318 2310 5517 3251 
L 5517 3302 
z
M 3501 3226 
Q 3706 2419 4064 1712 
Q 4422 1005 4934 486 
Q 5446 -32 6106 -288 
Q 6080 -307 6054 -336 
Q 6029 -365 6003 -393 
Q 5978 -422 5958 -448 
Q 5299 -166 4787 368 
Q 4275 902 3916 1622 
Q 3558 2342 3347 3181 
L 3501 3226 
z
M 5670 5114 
L 5798 4960 
Q 5555 4851 5203 4768 
Q 4851 4685 4448 4621 
Q 4045 4557 3632 4512 
Q 3219 4467 2842 4435 
Q 2835 4474 2819 4522 
Q 2803 4570 2784 4602 
Q 3149 4634 3558 4678 
Q 3968 4723 4368 4787 
Q 4768 4851 5107 4931 
Q 5446 5011 5670 5114 
z
" transform="scale(0.015625)"/>
      <path id="NotoSansSC-Thin-5757" d="M 2573 4166 
L 5581 4166 
L 5581 2163 
L 5395 2163 
L 5395 3974 
L 2573 3974 
L 2573 4166 
z
M 2349 2298 
L 6080 2298 
L 6080 2106 
L 2349 2106 
L 2349 2298 
z
M 4256 2227 
Q 4474 1318 4957 662 
Q 5440 6 6182 -294 
Q 6163 -314 6137 -346 
Q 6112 -378 6089 -406 
Q 6067 -435 6048 -461 
Q 5542 -237 5155 140 
Q 4768 518 4496 1033 
Q 4224 1549 4070 2182 
L 4256 2227 
z
M 3955 5248 
L 4141 5248 
L 4141 3155 
Q 4141 2643 4077 2150 
Q 4013 1658 3811 1194 
Q 3610 730 3200 314 
Q 2790 -102 2106 -454 
Q 2099 -435 2076 -409 
Q 2054 -384 2028 -358 
Q 2003 -333 1978 -314 
Q 2650 26 3043 429 
Q 3437 832 3635 1277 
Q 3834 1722 3894 2195 
Q 3955 2669 3955 3155 
L 3955 5248 
z
M 384 3718 
L 2221 3718 
L 2221 3533 
L 384 3533 
L 384 3718 
z
M 1242 5254 
L 1434 5254 
L 1434 1190 
L 1242 1190 
L 1242 5254 
z
M 288 870 
Q 538 966 861 1100 
Q 1184 1235 1545 1388 
Q 1907 1542 2272 1696 
L 2310 1517 
Q 1792 1293 1280 1072 
Q 768 851 365 685 
L 288 870 
z
" transform="scale(0.015625)"/>
      <path id="NotoSansSC-Thin-8f6e" d="M 4301 5062 
Q 4506 4672 4800 4275 
Q 5094 3878 5427 3545 
Q 5760 3213 6061 3014 
Q 6035 2995 6009 2969 
Q 5984 2944 5958 2915 
Q 5933 2886 5914 2861 
Q 5619 3085 5286 3433 
Q 4954 3782 4653 4192 
Q 4352 4602 4147 4992 
L 4301 5062 
z
M 4256 5318 
L 4454 5286 
Q 4301 4896 4048 4457 
Q 3795 4019 3440 3593 
Q 3085 3168 2618 2816 
Q 2598 2842 2572 2864 
Q 2547 2886 2521 2905 
Q 2496 2925 2470 2938 
Q 2931 3270 3283 3683 
Q 3635 4096 3878 4525 
Q 4122 4954 4256 5318 
z
M 3360 3014 
L 3546 3014 
L 3546 154 
Q 3546 -6 3626 -57 
Q 3706 -109 3962 -109 
Q 4019 -109 4195 -109 
Q 4371 -109 4585 -109 
Q 4800 -109 4989 -109 
Q 5178 -109 5261 -109 
Q 5408 -109 5481 -45 
Q 5555 19 5584 208 
Q 5613 397 5626 768 
Q 5664 742 5715 720 
Q 5766 698 5811 685 
Q 5798 294 5753 83 
Q 5709 -128 5597 -211 
Q 5485 -294 5261 -294 
Q 5229 -294 5097 -294 
Q 4966 -294 4790 -294 
Q 4614 -294 4438 -294 
Q 4262 -294 4134 -294 
Q 4006 -294 3974 -294 
Q 3731 -294 3596 -259 
Q 3462 -224 3411 -128 
Q 3360 -32 3360 154 
L 3360 3014 
z
M 5363 2662 
L 5510 2509 
Q 5235 2298 4883 2074 
Q 4531 1850 4172 1642 
Q 3814 1434 3507 1280 
L 3386 1421 
Q 3693 1574 4054 1788 
Q 4416 2003 4765 2233 
Q 5114 2464 5363 2662 
z
M 358 4493 
L 2509 4493 
L 2509 4301 
L 358 4301 
L 358 4493 
z
M 1581 3590 
L 1773 3590 
L 1773 -416 
L 1581 -416 
L 1581 3590 
z
M 333 954 
Q 621 1011 989 1084 
Q 1357 1158 1773 1244 
Q 2189 1331 2611 1421 
L 2630 1242 
Q 2029 1114 1437 982 
Q 845 851 390 755 
L 333 954 
z
M 557 2259 
Q 550 2285 540 2323 
Q 531 2362 518 2397 
Q 506 2432 493 2458 
Q 557 2470 621 2624 
Q 685 2778 762 2995 
Q 800 3098 880 3334 
Q 960 3571 1049 3894 
Q 1139 4218 1225 4582 
Q 1312 4947 1363 5306 
L 1562 5254 
Q 1472 4755 1341 4243 
Q 1210 3731 1053 3260 
Q 896 2790 730 2406 
L 730 2400 
Q 730 2400 704 2387 
Q 678 2374 643 2352 
Q 608 2330 582 2307 
Q 557 2285 557 2259 
z
M 557 2259 
L 557 2451 
L 749 2528 
L 2496 2528 
L 2496 2342 
L 979 2342 
Q 819 2342 707 2316 
Q 595 2291 557 2259 
z
" transform="scale(0.015625)"/>
      <path id="NotoSansSC-Thin-52a8" d="M 3270 3750 
L 5894 3750 
L 5894 3565 
L 3270 3565 
L 3270 3750 
z
M 5818 3750 
L 6003 3750 
Q 6003 3750 6003 3724 
Q 6003 3699 6003 3667 
Q 6003 3635 6003 3610 
Q 5965 2605 5926 1917 
Q 5888 1229 5840 797 
Q 5792 365 5731 128 
Q 5670 -109 5581 -205 
Q 5504 -294 5414 -329 
Q 5325 -365 5184 -371 
Q 5043 -371 4787 -364 
Q 4531 -358 4269 -333 
Q 4262 -288 4249 -237 
Q 4237 -186 4205 -141 
Q 4518 -166 4784 -172 
Q 5050 -179 5152 -179 
Q 5242 -186 5306 -170 
Q 5370 -154 5414 -102 
Q 5491 -19 5548 214 
Q 5606 448 5654 886 
Q 5702 1325 5740 2013 
Q 5779 2701 5818 3699 
L 5818 3750 
z
M 4403 5210 
L 4595 5210 
Q 4589 4621 4569 3987 
Q 4550 3354 4480 2720 
Q 4410 2086 4266 1500 
Q 4122 915 3862 419 
Q 3603 -77 3206 -442 
Q 3187 -422 3155 -403 
Q 3123 -384 3091 -365 
Q 3059 -346 3034 -339 
Q 3430 6 3683 496 
Q 3936 986 4083 1568 
Q 4230 2150 4297 2774 
Q 4365 3398 4384 4022 
Q 4403 4646 4403 5210 
z
M 627 4762 
L 3059 4762 
L 3059 4576 
L 627 4576 
L 627 4762 
z
M 384 3200 
L 3181 3200 
L 3181 3014 
L 384 3014 
L 384 3200 
z
M 2310 2272 
L 2483 2317 
Q 2611 2016 2745 1667 
Q 2880 1318 2998 995 
Q 3117 672 3181 448 
L 3002 371 
Q 2938 608 2822 934 
Q 2707 1261 2572 1613 
Q 2438 1965 2310 2272 
z
M 563 429 
L 563 595 
L 723 698 
L 2848 1094 
Q 2854 1056 2860 1001 
Q 2867 947 2874 915 
Q 2272 800 1872 723 
Q 1472 646 1225 598 
Q 979 550 848 518 
Q 717 486 656 467 
Q 595 448 563 429 
z
M 563 435 
Q 557 461 547 499 
Q 538 538 525 576 
Q 512 614 499 640 
Q 563 653 624 784 
Q 685 915 768 1107 
Q 806 1197 883 1408 
Q 960 1619 1056 1904 
Q 1152 2189 1241 2515 
Q 1331 2842 1395 3162 
L 1581 3078 
Q 1478 2643 1344 2192 
Q 1210 1741 1056 1328 
Q 902 915 736 576 
L 736 570 
Q 736 570 710 557 
Q 685 544 649 525 
Q 614 506 588 483 
Q 563 461 563 435 
z
" transform="scale(0.015625)"/>
      <path id="NotoSansSC-Thin-2014" d="M 282 1664 
L 282 1862 
L 5350 1862 
L 5350 1664 
L 282 1664 
z
" transform="scale(0.015625)"/>
      <path id="NotoSansSC-Thin-4ece" d="M 1709 3110 
L 1843 3232 
Q 2099 2912 2358 2534 
Q 2618 2157 2835 1798 
Q 3053 1440 3174 1158 
L 3027 1037 
Q 2893 1318 2675 1680 
Q 2458 2042 2205 2416 
Q 1952 2790 1709 3110 
z
M 4211 3072 
Q 4288 2656 4432 2189 
Q 4576 1722 4793 1267 
Q 5011 813 5318 416 
Q 5626 19 6035 -256 
Q 6016 -269 5990 -297 
Q 5965 -326 5942 -355 
Q 5920 -384 5901 -410 
Q 5498 -115 5190 288 
Q 4883 691 4662 1148 
Q 4442 1606 4298 2060 
Q 4154 2515 4070 2918 
L 4211 3072 
z
M 1850 5120 
L 2048 5107 
Q 1971 3859 1824 2835 
Q 1677 1811 1379 992 
Q 1082 173 538 -461 
Q 525 -442 496 -419 
Q 467 -397 432 -374 
Q 397 -352 371 -339 
Q 915 250 1212 1066 
Q 1510 1882 1648 2902 
Q 1786 3923 1850 5120 
z
M 4288 5133 
L 4480 5120 
Q 4403 4141 4278 3318 
Q 4154 2496 3942 1814 
Q 3731 1133 3388 576 
Q 3046 19 2534 -422 
Q 2515 -410 2486 -387 
Q 2458 -365 2426 -339 
Q 2394 -314 2368 -301 
Q 3053 256 3437 1046 
Q 3821 1837 4009 2857 
Q 4198 3878 4288 5133 
z
" transform="scale(0.015625)"/>
      <path id="NotoSansSC-Thin-4f30" d="M 1862 5293 
L 2048 5242 
Q 1837 4704 1555 4192 
Q 1274 3680 950 3235 
Q 627 2790 282 2438 
Q 269 2458 246 2486 
Q 224 2515 198 2547 
Q 173 2579 147 2592 
Q 493 2925 809 3357 
Q 1126 3789 1398 4285 
Q 1670 4781 1862 5293 
z
M 1152 3763 
L 1325 3942 
L 1338 3936 
L 1338 -435 
L 1152 -435 
L 1152 3763 
z
M 2490 2118 
L 5658 2118 
L 5658 -422 
L 5472 -422 
L 5472 1933 
L 2682 1933 
L 2682 -448 
L 2490 -448 
L 2490 2118 
z
M 3955 5312 
L 4141 5312 
L 4141 2010 
L 3955 2010 
L 3955 5312 
z
M 2048 3814 
L 6086 3814 
L 6086 3629 
L 2048 3629 
L 2048 3814 
z
M 2579 19 
L 5574 19 
L 5574 -166 
L 2579 -166 
L 2579 19 
z
" transform="scale(0.015625)"/>
      <path id="NotoSansSC-Thin-503c" d="M 2074 4589 
L 5830 4589 
L 5830 4397 
L 2074 4397 
L 2074 4589 
z
M 1805 -13 
L 6074 -13 
L 6074 -198 
L 1805 -198 
L 1805 -13 
z
M 2477 3642 
L 5414 3642 
L 5414 -128 
L 5229 -128 
L 5229 3450 
L 2669 3450 
L 2669 -128 
L 2477 -128 
L 2477 3642 
z
M 2573 2720 
L 5312 2720 
L 5312 2534 
L 2573 2534 
L 2573 2720 
z
M 2566 1798 
L 5338 1798 
L 5338 1613 
L 2566 1613 
L 2566 1798 
z
M 2586 870 
L 5325 870 
L 5325 685 
L 2586 685 
L 2586 870 
z
M 3917 5325 
L 4128 5286 
Q 4077 5018 4009 4701 
Q 3942 4384 3875 4086 
Q 3808 3789 3738 3571 
L 3565 3610 
Q 3629 3827 3696 4134 
Q 3763 4442 3824 4758 
Q 3885 5075 3917 5325 
z
M 1862 5318 
L 2048 5267 
Q 1850 4730 1594 4221 
Q 1338 3712 1040 3267 
Q 742 2822 416 2464 
Q 403 2483 377 2512 
Q 352 2541 326 2569 
Q 301 2598 275 2618 
Q 595 2950 886 3382 
Q 1178 3814 1430 4310 
Q 1683 4806 1862 5318 
z
M 1152 3744 
L 1325 3923 
L 1338 3917 
L 1338 -454 
L 1152 -454 
L 1152 3744 
z
" transform="scale(0.015625)"/>
      <path id="NotoSansSC-Thin-5411" d="M 710 4179 
L 5632 4179 
L 5632 3987 
L 896 3987 
L 896 -454 
L 710 -454 
L 710 4179 
z
M 5549 4179 
L 5734 4179 
L 5734 -64 
Q 5734 -224 5683 -304 
Q 5632 -384 5498 -416 
Q 5357 -442 5065 -445 
Q 4774 -448 4326 -448 
Q 4320 -416 4307 -381 
Q 4294 -346 4278 -304 
Q 4262 -262 4243 -230 
Q 4518 -237 4752 -240 
Q 4986 -243 5149 -240 
Q 5312 -237 5382 -237 
Q 5485 -230 5517 -195 
Q 5549 -160 5549 -70 
L 5549 4179 
z
M 2950 5344 
L 3155 5286 
Q 3034 4986 2883 4640 
Q 2733 4294 2592 4045 
L 2419 4102 
Q 2509 4269 2608 4489 
Q 2707 4710 2800 4937 
Q 2893 5165 2950 5344 
z
M 1952 2912 
L 2138 2912 
L 2138 397 
L 1952 397 
L 1952 2912 
z
M 2061 2912 
L 4454 2912 
L 4454 870 
L 2061 870 
L 2061 1062 
L 4269 1062 
L 4269 2720 
L 2061 2720 
L 2061 2912 
z
" transform="scale(0.015625)"/>
      <path id="NotoSansSC-Thin-8fc1" d="M 1965 3002 
L 6035 3002 
L 6035 2810 
L 1965 2810 
L 1965 3002 
z
M 3827 4749 
L 4013 4749 
L 4013 256 
L 3827 256 
L 3827 4749 
z
M 5395 5210 
L 5594 5069 
Q 5184 4934 4611 4822 
Q 4038 4710 3401 4624 
Q 2765 4538 2163 4480 
Q 2157 4512 2137 4560 
Q 2118 4608 2106 4634 
Q 2547 4678 3014 4739 
Q 3482 4800 3926 4873 
Q 4371 4947 4752 5030 
Q 5133 5114 5395 5210 
z
M 525 4966 
L 666 5056 
Q 851 4902 1040 4710 
Q 1229 4518 1392 4336 
Q 1555 4154 1651 4006 
L 1498 3904 
Q 1402 4051 1238 4236 
Q 1075 4422 889 4614 
Q 704 4806 525 4966 
z
M 1574 2733 
L 1574 582 
L 1389 582 
L 1389 2547 
L 346 2547 
L 346 2733 
L 1574 2733 
z
M 1485 691 
Q 1645 691 1773 563 
Q 1901 435 2157 250 
Q 2458 45 2845 -16 
Q 3232 -77 3776 -77 
Q 4090 -77 4406 -70 
Q 4723 -64 5024 -51 
Q 5325 -38 5597 -22 
Q 5869 -6 6093 6 
Q 6080 -13 6067 -45 
Q 6054 -77 6048 -112 
Q 6042 -147 6035 -179 
Q 5862 -186 5574 -198 
Q 5286 -211 4950 -217 
Q 4614 -224 4304 -230 
Q 3994 -237 3782 -237 
Q 3200 -237 2787 -166 
Q 2374 -96 2061 134 
Q 1882 262 1738 400 
Q 1594 538 1485 538 
Q 1363 538 1209 435 
Q 1056 333 870 147 
Q 685 -38 474 -288 
L 346 -160 
Q 678 198 963 444 
Q 1248 691 1485 691 
z
" transform="scale(0.015625)"/>
      <path id="NotoSansSC-Thin-79fb" d="M 1421 4902 
L 1606 4902 
L 1606 -461 
L 1421 -461 
L 1421 4902 
z
M 390 3456 
L 2451 3456 
L 2451 3270 
L 390 3270 
L 390 3456 
z
M 1459 3405 
L 1606 3354 
Q 1517 3021 1385 2659 
Q 1254 2298 1094 1949 
Q 934 1600 764 1302 
Q 595 1005 435 794 
Q 410 826 368 867 
Q 326 909 294 934 
Q 512 1197 736 1609 
Q 960 2022 1152 2496 
Q 1344 2970 1459 3405 
z
M 2202 5235 
L 2362 5094 
Q 2138 4986 1824 4890 
Q 1510 4794 1171 4720 
Q 832 4646 518 4589 
Q 512 4621 489 4662 
Q 467 4704 442 4742 
Q 755 4806 1088 4883 
Q 1421 4960 1715 5049 
Q 2010 5139 2202 5235 
z
M 1587 3098 
Q 1638 3034 1750 2883 
Q 1862 2733 1990 2553 
Q 2118 2374 2227 2224 
Q 2336 2074 2381 2003 
L 2234 1850 
Q 2189 1939 2086 2102 
Q 1984 2266 1862 2451 
Q 1741 2637 1635 2790 
Q 1530 2944 1472 3014 
L 1587 3098 
z
M 4173 5318 
L 4384 5286 
Q 4141 4877 3712 4451 
Q 3283 4026 2656 3686 
Q 2637 3712 2611 3734 
Q 2586 3757 2560 3779 
Q 2534 3802 2509 3814 
Q 3117 4128 3542 4537 
Q 3968 4947 4173 5318 
z
M 4608 3027 
L 4826 2989 
Q 4538 2515 4013 2019 
Q 3488 1523 2726 1152 
Q 2707 1171 2681 1193 
Q 2656 1216 2630 1241 
Q 2605 1267 2579 1280 
Q 3078 1517 3475 1811 
Q 3872 2106 4160 2422 
Q 4448 2739 4608 3027 
z
M 3789 4666 
L 5434 4666 
L 5434 4480 
L 3622 4480 
L 3789 4666 
z
M 5408 4659 
L 5453 4659 
L 5491 4672 
L 5606 4602 
Q 5402 4173 5075 3833 
Q 4749 3494 4339 3235 
Q 3930 2976 3478 2793 
Q 3027 2611 2573 2496 
Q 2560 2534 2528 2579 
Q 2496 2624 2464 2656 
Q 2906 2758 3347 2931 
Q 3789 3104 4189 3347 
Q 4589 3590 4905 3907 
Q 5222 4224 5408 4614 
L 5408 4659 
z
M 4269 2406 
L 5907 2406 
L 5907 2221 
L 4077 2221 
L 4269 2406 
z
M 5837 2406 
L 5875 2406 
L 5914 2419 
L 6035 2355 
Q 5824 1722 5446 1245 
Q 5069 768 4576 432 
Q 4083 96 3523 -125 
Q 2963 -346 2387 -474 
Q 2374 -429 2342 -381 
Q 2310 -333 2278 -301 
Q 2842 -192 3392 16 
Q 3942 224 4422 547 
Q 4902 870 5270 1321 
Q 5638 1773 5837 2368 
L 5837 2406 
z
M 3328 3885 
L 3462 3987 
Q 3686 3846 3923 3660 
Q 4160 3475 4294 3328 
L 4147 3200 
Q 4026 3347 3789 3542 
Q 3552 3738 3328 3885 
z
M 3610 1363 
L 3750 1466 
Q 4019 1293 4288 1056 
Q 4557 819 4698 634 
L 4557 512 
Q 4416 698 4147 941 
Q 3878 1184 3610 1363 
z
" transform="scale(0.015625)"/>
     </defs>
     <use xlink:href="#NotoSansSC-Thin-41"/>
     <use xlink:href="#NotoSansSC-Thin-80a1" transform="translate(57.399994 0)"/>
     <use xlink:href="#NotoSansSC-Thin-677f" transform="translate(157.399979 0)"/>
     <use xlink:href="#NotoSansSC-Thin-5757" transform="translate(257.399963 0)"/>
     <use xlink:href="#NotoSansSC-Thin-8f6e" transform="translate(357.399948 0)"/>
     <use xlink:href="#NotoSansSC-Thin-52a8" transform="translate(457.399933 0)"/>
     <use xlink:href="#NotoSansSC-Thin-20" transform="translate(557.399918 0)"/>
     <use xlink:href="#NotoSansSC-Thin-2014" transform="translate(579.399902 0)"/>
     <use xlink:href="#NotoSansSC-Thin-20" transform="translate(667.499893 0)"/>
     <use xlink:href="#NotoSansSC-Thin-8d44" transform="translate(689.499878 0)"/>
     <use xlink:href="#NotoSansSC-Thin-91d1" transform="translate(789.499863 0)"/>
     <use xlink:href="#NotoSansSC-Thin-4ece" transform="translate(889.499847 0)"/>
     <use xlink:href="#NotoSansSC-Thin-9ad8" transform="translate(989.499832 0)"/>
     <use xlink:href="#NotoSansSC-Thin-4f30" transform="translate(1089.499817 0)"/>
     <use xlink:href="#NotoSansSC-Thin-503c" transform="translate(1189.499802 0)"/>
     <use xlink:href="#NotoSansSC-Thin-5411" transform="translate(1289.499786 0)"/>
     <use xlink:href="#NotoSansSC-Thin-4f4e" transform="translate(1389.499771 0)"/>
     <use xlink:href="#NotoSansSC-Thin-4f30" transform="translate(1489.499756 0)"/>
     <use xlink:href="#NotoSansSC-Thin-503c" transform="translate(1589.499741 0)"/>
     <use xlink:href="#NotoSansSC-Thin-8fc1" transform="translate(1689.499725 0)"/>
     <use xlink:href="#NotoSansSC-Thin-79fb" transform="translate(1789.49971 0)"/>
    </g>
   </g>
  </g>
 </g>
 <defs>
  <clipPath id="p3e08a865fb">
   <rect x="84.626406" y="29.522812" width="260.84" height="138.012"/>
  </clipPath>
 </defs>
</svg>
