<?xml version="1.0" encoding="utf-8" standalone="no"?>
<!DOCTYPE svg PUBLIC "-//W3C//DTD SVG 1.1//EN"
  "http://www.w3.org/Graphics/SVG/1.1/DTD/svg11.dtd">
<svg xmlns:xlink="http://www.w3.org/1999/xlink" width="352.271614pt" height="221.949375pt" viewBox="0 0 352.271614 221.949375" xmlns="http://www.w3.org/2000/svg" version="1.1">
 <metadata>
  <rdf:RDF xmlns:dc="http://purl.org/dc/elements/1.1/" xmlns:cc="http://creativecommons.org/ns#" xmlns:rdf="http://www.w3.org/1999/02/22-rdf-syntax-ns#">
   <cc:Work>
    <dc:type rdf:resource="http://purl.org/dc/dcmitype/StillImage"/>
    <dc:date>2026-05-26T20:39:59.335410</dc:date>
    <dc:format>image/svg+xml</dc:format>
    <dc:creator>
     <cc:Agent>
      <dc:title>Matplotlib v3.10.9, https://matplotlib.org/</dc:title>
     </cc:Agent>
    </dc:creator>
   </cc:Work>
  </rdf:RDF>
 </metadata>
 <defs>
  <style type="text/css">*{stroke-linejoin: round; stroke-linecap: butt}</style>
 </defs>
 <g id="figure_1">
  <g id="patch_1">
   <path d="M 0 221.949375 
L 352.271614 221.949375 
L 352.271614 0 
L 0 0 
z
" style="fill: #f5f7fa"/>
  </g>
  <g id="axes_1">
   <g id="patch_2">
    <path d="M 53.763438 185.082812 
L 339.139687 185.082812 
L 339.139687 29.522812 
L 53.763438 29.522812 
z
" style="fill: #f5f7fa"/>
   </g>
   <g id="patch_3">
    <path d="M 296.33325 178.011903 
L 91.361758 178.011903 
L 91.361758 165.155705 
L 296.33325 165.155705 
z
" clip-path="url(#p1b69fa074c)" style="fill: #dc2626; stroke: #ffffff; stroke-width: 0.5; stroke-linejoin: miter"/>
   </g>
   <g id="patch_4">
    <path d="M 296.33325 152.299507 
L 227.272197 152.299507 
L 227.272197 139.443308 
L 296.33325 139.443308 
z
" clip-path="url(#p1b69fa074c)" style="fill: #ef4444; stroke: #ffffff; stroke-width: 0.5; stroke-linejoin: miter"/>
   </g>
   <g id="patch_5">
    <path d="M 296.33325 126.58711 
L 240.399505 126.58711 
L 240.399505 113.730912 
L 296.33325 113.730912 
z
" clip-path="url(#p1b69fa074c)" style="fill: #f87171; stroke: #ffffff; stroke-width: 0.5; stroke-linejoin: miter"/>
   </g>
   <g id="patch_6">
    <path d="M 296.33325 100.874713 
L 299.329701 100.874713 
L 299.329701 88.018515 
L 296.33325 88.018515 
z
" clip-path="url(#p1b69fa074c)" style="fill: #10b981; stroke: #ffffff; stroke-width: 0.5; stroke-linejoin: miter"/>
   </g>
   <g id="patch_7">
    <path d="M 296.33325 75.162317 
L 302.540183 75.162317 
L 302.540183 62.306118 
L 296.33325 62.306118 
z
" clip-path="url(#p1b69fa074c)" style="fill: #10b981; stroke: #ffffff; stroke-width: 0.5; stroke-linejoin: miter"/>
   </g>
   <g id="patch_8">
    <path d="M 296.33325 49.44992 
L 313.099105 49.44992 
L 313.099105 36.593722 
L 296.33325 36.593722 
z
" clip-path="url(#p1b69fa074c)" style="fill: #10b981; stroke: #ffffff; stroke-width: 0.5; stroke-linejoin: miter"/>
   </g>
   <g id="matplotlib.axis_1">
    <g id="xtick_1">
     <g id="line2d_1">
      <path d="M 82.301062 185.082812 
L 82.301062 29.522812 
" clip-path="url(#p1b69fa074c)" style="fill: none; stroke: #64748b; stroke-opacity: 0.2; stroke-width: 0.8; stroke-linecap: square"/>
     </g>
     <g id="line2d_2">
      <defs>
       <path id="m8fc60b406d" d="M 0 0 
L 0 3.5 
" style="stroke: #64748b; stroke-width: 0.8"/>
      </defs>
      <g>
       <use xlink:href="#m8fc60b406d" x="82.301062" y="185.082812" style="fill: #64748b; stroke: #64748b; stroke-width: 0.8"/>
      </g>
     </g>
     <g id="text_1">
      <!-- -300 -->
      <g style="fill: #64748b" transform="translate(73.810125 199.229375) scale(0.09 -0.09)">
       <defs>
        <path id="NotoSansSC-Thin-2d" d="M 282 1638 
L 282 1862 
L 1811 1862 
L 1811 1638 
L 282 1638 
z
" transform="scale(0.015625)"/>
        <path id="NotoSansSC-Thin-33" d="M 1619 -83 
Q 1261 -83 998 13 
Q 736 109 544 256 
Q 352 403 211 550 
L 358 717 
Q 563 499 857 313 
Q 1152 128 1632 128 
Q 1952 128 2198 262 
Q 2445 397 2585 640 
Q 2726 883 2726 1210 
Q 2726 1542 2560 1795 
Q 2394 2048 2038 2189 
Q 1683 2330 1114 2330 
L 1114 2554 
Q 1651 2554 1964 2698 
Q 2278 2842 2416 3088 
Q 2554 3334 2554 3629 
Q 2554 4026 2298 4272 
Q 2042 4518 1606 4518 
Q 1293 4518 1017 4374 
Q 742 4230 557 4026 
L 410 4192 
Q 634 4410 925 4570 
Q 1216 4730 1606 4730 
Q 1939 4730 2211 4598 
Q 2483 4467 2643 4224 
Q 2803 3981 2803 3642 
Q 2803 3168 2550 2877 
Q 2298 2586 1926 2464 
L 1926 2438 
Q 2208 2381 2445 2221 
Q 2682 2061 2826 1808 
Q 2970 1555 2970 1222 
Q 2970 826 2790 531 
Q 2611 237 2307 77 
Q 2003 -83 1619 -83 
z
" transform="scale(0.015625)"/>
        <path id="NotoSansSC-Thin-30" d="M 1670 -83 
Q 1261 -83 963 179 
Q 666 442 509 979 
Q 352 1517 352 2336 
Q 352 3149 509 3677 
Q 666 4205 963 4467 
Q 1261 4730 1670 4730 
Q 2080 4730 2371 4467 
Q 2662 4205 2822 3677 
Q 2982 3149 2982 2336 
Q 2982 1517 2822 979 
Q 2662 442 2371 179 
Q 2080 -83 1670 -83 
z
M 1670 128 
Q 1997 128 2240 384 
Q 2483 640 2614 1133 
Q 2746 1626 2746 2336 
Q 2746 3040 2614 3529 
Q 2483 4019 2240 4272 
Q 1997 4525 1670 4525 
Q 1344 4525 1101 4272 
Q 858 4019 723 3529 
Q 589 3040 589 2336 
Q 589 1626 723 1133 
Q 858 640 1101 384 
Q 1344 128 1670 128 
z
" transform="scale(0.015625)"/>
       </defs>
       <use xlink:href="#NotoSansSC-Thin-2d"/>
       <use xlink:href="#NotoSansSC-Thin-33" transform="translate(32.399994 0)"/>
       <use xlink:href="#NotoSansSC-Thin-30" transform="translate(84.499985 0)"/>
       <use xlink:href="#NotoSansSC-Thin-30" transform="translate(136.599976 0)"/>
      </g>
     </g>
    </g>
    <g id="xtick_2">
     <g id="line2d_3">
      <path d="M 117.973094 185.082812 
L 117.973094 29.522812 
" clip-path="url(#p1b69fa074c)" style="fill: none; stroke: #64748b; stroke-opacity: 0.2; stroke-width: 0.8; stroke-linecap: square"/>
     </g>
     <g id="line2d_4">
      <g>
       <use xlink:href="#m8fc60b406d" x="117.973094" y="185.082812" style="fill: #64748b; stroke: #64748b; stroke-width: 0.8"/>
      </g>
     </g>
     <g id="text_2">
      <!-- -250 -->
      <g style="fill: #64748b" transform="translate(109.482156 199.229375) scale(0.09 -0.09)">
       <defs>
        <path id="NotoSansSC-Thin-32" d="M 294 0 
L 294 147 
Q 1120 858 1613 1434 
Q 2106 2010 2323 2499 
Q 2541 2989 2541 3424 
Q 2541 3725 2435 3974 
Q 2330 4224 2106 4371 
Q 1882 4518 1523 4518 
Q 1210 4518 931 4352 
Q 653 4186 442 3923 
L 282 4070 
Q 525 4346 829 4538 
Q 1133 4730 1542 4730 
Q 1939 4730 2214 4566 
Q 2490 4403 2637 4112 
Q 2784 3821 2784 3424 
Q 2784 2918 2537 2406 
Q 2291 1894 1820 1347 
Q 1350 800 678 179 
Q 870 192 1062 201 
Q 1254 211 1440 211 
L 3014 211 
L 3014 0 
L 294 0 
z
" transform="scale(0.015625)"/>
        <path id="NotoSansSC-Thin-35" d="M 1581 -83 
Q 1222 -83 963 9 
Q 704 102 515 240 
Q 326 378 186 518 
L 333 691 
Q 467 550 636 422 
Q 806 294 1040 211 
Q 1274 128 1594 128 
Q 1901 128 2166 294 
Q 2432 461 2592 765 
Q 2752 1069 2752 1466 
Q 2752 2061 2441 2406 
Q 2131 2752 1606 2752 
Q 1350 2752 1152 2665 
Q 954 2579 755 2445 
L 563 2560 
L 730 4646 
L 2758 4646 
L 2758 4435 
L 941 4435 
L 787 2726 
Q 966 2835 1168 2902 
Q 1370 2970 1626 2970 
Q 2010 2970 2320 2813 
Q 2630 2656 2812 2326 
Q 2995 1997 2995 1478 
Q 2995 979 2787 630 
Q 2579 282 2256 99 
Q 1933 -83 1581 -83 
z
" transform="scale(0.015625)"/>
       </defs>
       <use xlink:href="#NotoSansSC-Thin-2d"/>
       <use xlink:href="#NotoSansSC-Thin-32" transform="translate(32.399994 0)"/>
       <use xlink:href="#NotoSansSC-Thin-35" transform="translate(84.499985 0)"/>
       <use xlink:href="#NotoSansSC-Thin-30" transform="translate(136.599976 0)"/>
      </g>
     </g>
    </g>
    <g id="xtick_3">
     <g id="line2d_5">
      <path d="M 153.645125 185.082812 
L 153.645125 29.522812 
" clip-path="url(#p1b69fa074c)" style="fill: none; stroke: #64748b; stroke-opacity: 0.2; stroke-width: 0.8; stroke-linecap: square"/>
     </g>
     <g id="line2d_6">
      <g>
       <use xlink:href="#m8fc60b406d" x="153.645125" y="185.082812" style="fill: #64748b; stroke: #64748b; stroke-width: 0.8"/>
      </g>
     </g>
     <g id="text_3">
      <!-- -200 -->
      <g style="fill: #64748b" transform="translate(145.154187 199.229375) scale(0.09 -0.09)">
       <use xlink:href="#NotoSansSC-Thin-2d"/>
       <use xlink:href="#NotoSansSC-Thin-32" transform="translate(32.399994 0)"/>
       <use xlink:href="#NotoSansSC-Thin-30" transform="translate(84.499985 0)"/>
       <use xlink:href="#NotoSansSC-Thin-30" transform="translate(136.599976 0)"/>
      </g>
     </g>
    </g>
    <g id="xtick_4">
     <g id="line2d_7">
      <path d="M 189.317156 185.082812 
L 189.317156 29.522812 
" clip-path="url(#p1b69fa074c)" style="fill: none; stroke: #64748b; stroke-opacity: 0.2; stroke-width: 0.8; stroke-linecap: square"/>
     </g>
     <g id="line2d_8">
      <g>
       <use xlink:href="#m8fc60b406d" x="189.317156" y="185.082812" style="fill: #64748b; stroke: #64748b; stroke-width: 0.8"/>
      </g>
     </g>
     <g id="text_4">
      <!-- -150 -->
      <g style="fill: #64748b" transform="translate(180.826219 199.229375) scale(0.09 -0.09)">
       <defs>
        <path id="NotoSansSC-Thin-31" d="M 608 0 
L 608 211 
L 1677 211 
L 1677 4211 
L 864 4211 
L 864 4378 
Q 1133 4422 1344 4492 
Q 1555 4563 1702 4646 
L 1901 4646 
L 1901 211 
L 2899 211 
L 2899 0 
L 608 0 
z
" transform="scale(0.015625)"/>
       </defs>
       <use xlink:href="#NotoSansSC-Thin-2d"/>
       <use xlink:href="#NotoSansSC-Thin-31" transform="translate(32.399994 0)"/>
       <use xlink:href="#NotoSansSC-Thin-35" transform="translate(84.499985 0)"/>
       <use xlink:href="#NotoSansSC-Thin-30" transform="translate(136.599976 0)"/>
      </g>
     </g>
    </g>
    <g id="xtick_5">
     <g id="line2d_9">
      <path d="M 224.989187 185.082812 
L 224.989187 29.522812 
" clip-path="url(#p1b69fa074c)" style="fill: none; stroke: #64748b; stroke-opacity: 0.2; stroke-width: 0.8; stroke-linecap: square"/>
     </g>
     <g id="line2d_10">
      <g>
       <use xlink:href="#m8fc60b406d" x="224.989187" y="185.082812" style="fill: #64748b; stroke: #64748b; stroke-width: 0.8"/>
      </g>
     </g>
     <g id="text_5">
      <!-- -100 -->
      <g style="fill: #64748b" transform="translate(216.49825 199.229375) scale(0.09 -0.09)">
       <use xlink:href="#NotoSansSC-Thin-2d"/>
       <use xlink:href="#NotoSansSC-Thin-31" transform="translate(32.399994 0)"/>
       <use xlink:href="#NotoSansSC-Thin-30" transform="translate(84.499985 0)"/>
       <use xlink:href="#NotoSansSC-Thin-30" transform="translate(136.599976 0)"/>
      </g>
     </g>
    </g>
    <g id="xtick_6">
     <g id="line2d_11">
      <path d="M 260.661219 185.082812 
L 260.661219 29.522812 
" clip-path="url(#p1b69fa074c)" style="fill: none; stroke: #64748b; stroke-opacity: 0.2; stroke-width: 0.8; stroke-linecap: square"/>
     </g>
     <g id="line2d_12">
      <g>
       <use xlink:href="#m8fc60b406d" x="260.661219" y="185.082812" style="fill: #64748b; stroke: #64748b; stroke-width: 0.8"/>
      </g>
     </g>
     <g id="text_6">
      <!-- -50 -->
      <g style="fill: #64748b" transform="translate(254.5145 199.229375) scale(0.09 -0.09)">
       <use xlink:href="#NotoSansSC-Thin-2d"/>
       <use xlink:href="#NotoSansSC-Thin-35" transform="translate(32.399994 0)"/>
       <use xlink:href="#NotoSansSC-Thin-30" transform="translate(84.499985 0)"/>
      </g>
     </g>
    </g>
    <g id="xtick_7">
     <g id="line2d_13">
      <path d="M 296.33325 185.082812 
L 296.33325 29.522812 
" clip-path="url(#p1b69fa074c)" style="fill: none; stroke: #64748b; stroke-opacity: 0.2; stroke-width: 0.8; stroke-linecap: square"/>
     </g>
     <g id="line2d_14">
      <g>
       <use xlink:href="#m8fc60b406d" x="296.33325" y="185.082812" style="fill: #64748b; stroke: #64748b; stroke-width: 0.8"/>
      </g>
     </g>
     <g id="text_7">
      <!-- 0 -->
      <g style="fill: #64748b" transform="translate(293.989031 199.229375) scale(0.09 -0.09)">
       <use xlink:href="#NotoSansSC-Thin-30"/>
      </g>
     </g>
    </g>
    <g id="xtick_8">
     <g id="line2d_15">
      <path d="M 332.005281 185.082812 
L 332.005281 29.522812 
" clip-path="url(#p1b69fa074c)" style="fill: none; stroke: #64748b; stroke-opacity: 0.2; stroke-width: 0.8; stroke-linecap: square"/>
     </g>
     <g id="line2d_16">
      <g>
       <use xlink:href="#m8fc60b406d" x="332.005281" y="185.082812" style="fill: #64748b; stroke: #64748b; stroke-width: 0.8"/>
      </g>
     </g>
     <g id="text_8">
      <!-- 50 -->
      <g style="fill: #64748b" transform="translate(327.316844 199.229375) scale(0.09 -0.09)">
       <use xlink:href="#NotoSansSC-Thin-35"/>
       <use xlink:href="#NotoSansSC-Thin-30" transform="translate(52.099991 0)"/>
      </g>
     </g>
    </g>
    <g id="text_9">
     <!-- 资金净流向 (亿元) -->
     <g style="fill: #64748b" transform="translate(161.27 212.562656) scale(0.09 -0.09)">
      <defs>
       <path id="NotoSansSC-Thin-8d44" d="M 627 4864 
L 736 5011 
Q 986 4934 1248 4825 
Q 1510 4717 1740 4592 
Q 1971 4467 2118 4352 
L 2016 4179 
Q 1869 4294 1635 4422 
Q 1402 4550 1139 4665 
Q 877 4781 627 4864 
z
M 352 3040 
Q 698 3142 1178 3289 
Q 1658 3437 2182 3597 
L 2202 3411 
Q 1722 3264 1251 3120 
Q 781 2976 410 2854 
L 352 3040 
z
M 3232 5318 
L 3424 5293 
Q 3264 4928 2982 4525 
Q 2701 4122 2285 3782 
Q 2266 3808 2240 3827 
Q 2214 3846 2188 3865 
Q 2163 3885 2138 3898 
Q 2547 4205 2819 4595 
Q 3091 4986 3232 5318 
z
M 2976 4678 
L 5658 4678 
L 5658 4493 
L 2842 4493 
L 2976 4678 
z
M 5600 4678 
L 5645 4678 
L 5683 4691 
L 5811 4634 
Q 5664 4397 5513 4153 
Q 5363 3910 5229 3744 
L 5069 3814 
Q 5197 3974 5341 4198 
Q 5485 4422 5600 4640 
L 5600 4678 
z
M 1286 2362 
L 5178 2362 
L 5178 576 
L 4986 576 
L 4986 2170 
L 1478 2170 
L 1478 557 
L 1286 557 
L 1286 2362 
z
M 3206 1958 
L 3405 1958 
Q 3328 1421 3152 1014 
Q 2976 608 2653 317 
Q 2330 26 1808 -163 
Q 1286 -352 512 -461 
Q 506 -435 490 -409 
Q 474 -384 458 -358 
Q 442 -333 422 -314 
Q 1184 -211 1693 -28 
Q 2202 154 2509 429 
Q 2816 704 2979 1081 
Q 3142 1459 3206 1958 
z
M 3360 646 
L 3450 806 
Q 3770 698 4115 566 
Q 4461 435 4793 294 
Q 5126 154 5414 16 
Q 5702 -122 5907 -237 
L 5824 -422 
Q 5613 -307 5321 -166 
Q 5030 -26 4697 118 
Q 4365 262 4022 400 
Q 3680 538 3360 646 
z
M 4006 4570 
L 4211 4570 
Q 4128 4230 3971 3929 
Q 3814 3629 3574 3376 
Q 3334 3123 2985 2924 
Q 2637 2726 2163 2592 
Q 2144 2624 2112 2669 
Q 2080 2714 2048 2733 
Q 2515 2854 2851 3043 
Q 3187 3232 3417 3472 
Q 3648 3712 3789 3990 
Q 3930 4269 4006 4570 
z
M 3987 4070 
Q 4173 3763 4486 3504 
Q 4800 3245 5193 3056 
Q 5587 2867 6010 2771 
Q 5978 2746 5942 2701 
Q 5907 2656 5882 2618 
Q 5459 2733 5062 2934 
Q 4666 3136 4342 3411 
Q 4019 3686 3827 4006 
L 3987 4070 
z
" transform="scale(0.015625)"/>
       <path id="NotoSansSC-Thin-91d1" d="M 1613 3334 
L 4806 3334 
L 4806 3142 
L 1613 3142 
L 1613 3334 
z
M 717 2067 
L 5715 2067 
L 5715 1875 
L 717 1875 
L 717 2067 
z
M 454 -32 
L 5958 -32 
L 5958 -218 
L 454 -218 
L 454 -32 
z
M 3085 3270 
L 3277 3270 
L 3277 -147 
L 3085 -147 
L 3085 3270 
z
M 1382 1478 
L 1549 1536 
Q 1683 1344 1808 1117 
Q 1933 890 2035 675 
Q 2138 461 2189 294 
L 2016 224 
Q 1965 390 1865 608 
Q 1766 826 1641 1056 
Q 1517 1286 1382 1478 
z
M 4826 1555 
L 5005 1466 
Q 4832 1152 4614 803 
Q 4397 454 4205 211 
L 4058 288 
Q 4186 454 4326 678 
Q 4467 902 4601 1136 
Q 4736 1370 4826 1555 
z
M 3290 5107 
Q 3526 4806 3859 4512 
Q 4192 4218 4579 3952 
Q 4966 3686 5369 3475 
Q 5773 3264 6144 3130 
Q 6118 3110 6092 3081 
Q 6067 3053 6041 3024 
Q 6016 2995 5997 2963 
Q 5632 3110 5232 3331 
Q 4832 3552 4441 3827 
Q 4051 4102 3712 4409 
Q 3373 4717 3130 5024 
L 3290 5107 
z
M 3277 5363 
L 3443 5280 
Q 3117 4794 2633 4346 
Q 2150 3898 1577 3542 
Q 1005 3187 397 2957 
Q 371 2995 332 3046 
Q 294 3098 256 3123 
Q 858 3341 1434 3683 
Q 2010 4026 2490 4458 
Q 2970 4890 3277 5363 
z
" transform="scale(0.015625)"/>
       <path id="NotoSansSC-Thin-51c0" d="M 2810 4762 
L 4621 4762 
L 4621 4576 
L 2810 4576 
L 2810 4762 
z
M 2035 1427 
L 5427 1427 
L 5427 1235 
L 2035 1235 
L 2035 1427 
z
M 1664 2560 
L 6074 2560 
L 6074 2374 
L 1664 2374 
L 1664 2560 
z
M 2195 3661 
L 5498 3661 
L 5498 954 
L 5306 954 
L 5306 3469 
L 2195 3469 
L 2195 3661 
z
M 3635 3584 
L 3821 3584 
L 3821 -128 
Q 3821 -262 3776 -326 
Q 3731 -390 3629 -416 
Q 3526 -442 3305 -445 
Q 3085 -448 2707 -448 
Q 2701 -416 2675 -361 
Q 2650 -307 2624 -262 
Q 2944 -269 3181 -269 
Q 3418 -269 3501 -262 
Q 3578 -256 3606 -230 
Q 3635 -205 3635 -134 
L 3635 3584 
z
M 3046 5318 
L 3238 5267 
Q 3066 4877 2842 4502 
Q 2618 4128 2362 3798 
Q 2106 3469 1837 3213 
Q 1824 3232 1795 3257 
Q 1766 3283 1737 3308 
Q 1709 3334 1683 3347 
Q 1958 3590 2211 3907 
Q 2464 4224 2678 4585 
Q 2893 4947 3046 5318 
z
M 4557 4762 
L 4595 4762 
L 4627 4774 
L 4749 4691 
Q 4659 4480 4528 4265 
Q 4397 4051 4253 3859 
Q 4109 3667 3968 3520 
Q 3942 3546 3894 3571 
Q 3846 3597 3814 3616 
Q 3955 3757 4096 3942 
Q 4237 4128 4358 4333 
Q 4480 4538 4557 4717 
L 4557 4762 
z
M 397 4922 
L 544 5011 
Q 730 4806 915 4569 
Q 1101 4333 1257 4105 
Q 1414 3878 1504 3706 
L 1350 3603 
Q 1261 3776 1104 4006 
Q 947 4237 764 4480 
Q 582 4723 397 4922 
z
M 397 -19 
Q 544 237 726 595 
Q 909 954 1088 1344 
Q 1267 1734 1414 2093 
L 1555 1971 
Q 1421 1638 1248 1254 
Q 1075 870 899 508 
Q 723 147 563 -141 
L 397 -19 
z
" transform="scale(0.015625)"/>
       <path id="NotoSansSC-Thin-6d41" d="M 1990 4416 
L 6029 4416 
L 6029 4230 
L 1990 4230 
L 1990 4416 
z
M 3770 2336 
L 3962 2336 
L 3962 -179 
L 3770 -179 
L 3770 2336 
z
M 2586 2355 
L 2771 2355 
L 2771 1632 
Q 2771 1363 2742 1091 
Q 2714 819 2618 550 
Q 2522 282 2330 29 
Q 2138 -224 1811 -448 
Q 1798 -429 1776 -406 
Q 1754 -384 1725 -358 
Q 1696 -333 1670 -320 
Q 2086 -38 2281 294 
Q 2477 627 2531 969 
Q 2586 1312 2586 1632 
L 2586 2355 
z
M 4602 3866 
L 4755 3955 
Q 4973 3738 5200 3475 
Q 5427 3213 5622 2966 
Q 5818 2720 5939 2528 
L 5779 2419 
Q 5664 2611 5469 2860 
Q 5274 3110 5046 3376 
Q 4819 3642 4602 3866 
z
M 4979 2355 
L 5171 2355 
L 5171 115 
Q 5171 -6 5180 -64 
Q 5190 -122 5222 -147 
Q 5242 -160 5280 -166 
Q 5318 -173 5363 -173 
Q 5408 -173 5488 -173 
Q 5568 -173 5626 -173 
Q 5683 -173 5737 -166 
Q 5792 -160 5818 -141 
Q 5875 -102 5901 38 
Q 5914 122 5917 298 
Q 5920 474 5926 717 
Q 5958 691 6000 668 
Q 6042 646 6086 634 
Q 6080 429 6070 211 
Q 6061 -6 6042 -83 
Q 6016 -224 5907 -294 
Q 5869 -320 5795 -333 
Q 5722 -346 5651 -346 
Q 5606 -346 5494 -346 
Q 5382 -346 5350 -346 
Q 5280 -346 5203 -330 
Q 5126 -314 5075 -282 
Q 5018 -237 4998 -150 
Q 4979 -64 4979 192 
L 4979 2355 
z
M 2170 2669 
Q 2163 2694 2150 2736 
Q 2138 2778 2125 2816 
Q 2112 2854 2099 2880 
Q 2170 2899 2269 2931 
Q 2368 2963 2445 3034 
Q 2509 3098 2649 3267 
Q 2790 3437 2960 3648 
Q 3130 3859 3280 4051 
Q 3430 4243 3507 4358 
L 3750 4358 
Q 3648 4218 3488 4006 
Q 3328 3795 3149 3568 
Q 2970 3341 2806 3145 
Q 2643 2950 2534 2829 
Q 2534 2829 2496 2819 
Q 2458 2810 2406 2797 
Q 2355 2784 2300 2761 
Q 2246 2739 2208 2716 
Q 2170 2694 2170 2669 
z
M 2170 2669 
L 2170 2835 
L 2362 2931 
L 5402 3117 
Q 5414 3072 5440 3021 
Q 5466 2970 5485 2938 
Q 4608 2880 4029 2838 
Q 3450 2797 3098 2771 
Q 2746 2746 2560 2730 
Q 2374 2714 2294 2698 
Q 2214 2682 2170 2669 
z
M 3635 5254 
L 3795 5299 
Q 3923 5069 4035 4797 
Q 4147 4525 4192 4339 
L 4019 4275 
Q 3974 4461 3862 4739 
Q 3750 5018 3635 5254 
z
M 627 5107 
L 762 5222 
Q 947 5094 1142 4940 
Q 1338 4787 1507 4630 
Q 1677 4474 1779 4346 
L 1651 4211 
Q 1542 4339 1372 4499 
Q 1203 4659 1008 4819 
Q 813 4979 627 5107 
z
M 314 3354 
L 429 3488 
Q 634 3398 848 3276 
Q 1062 3155 1251 3027 
Q 1440 2899 1562 2790 
L 1453 2630 
Q 1331 2746 1139 2877 
Q 947 3008 732 3133 
Q 518 3258 314 3354 
z
M 518 -224 
Q 691 26 908 381 
Q 1126 736 1344 1129 
Q 1562 1523 1741 1882 
L 1875 1760 
Q 1709 1421 1501 1037 
Q 1293 653 1078 291 
Q 864 -70 678 -358 
L 518 -224 
z
" transform="scale(0.015625)"/>
       <path id="NotoSansSC-Thin-5411" d="M 710 4179 
L 5632 4179 
L 5632 3987 
L 896 3987 
L 896 -454 
L 710 -454 
L 710 4179 
z
M 5549 4179 
L 5734 4179 
L 5734 -64 
Q 5734 -224 5683 -304 
Q 5632 -384 5498 -416 
Q 5357 -442 5065 -445 
Q 4774 -448 4326 -448 
Q 4320 -416 4307 -381 
Q 4294 -346 4278 -304 
Q 4262 -262 4243 -230 
Q 4518 -237 4752 -240 
Q 4986 -243 5149 -240 
Q 5312 -237 5382 -237 
Q 5485 -230 5517 -195 
Q 5549 -160 5549 -70 
L 5549 4179 
z
M 2950 5344 
L 3155 5286 
Q 3034 4986 2883 4640 
Q 2733 4294 2592 4045 
L 2419 4102 
Q 2509 4269 2608 4489 
Q 2707 4710 2800 4937 
Q 2893 5165 2950 5344 
z
M 1952 2912 
L 2138 2912 
L 2138 397 
L 1952 397 
L 1952 2912 
z
M 2061 2912 
L 4454 2912 
L 4454 870 
L 2061 870 
L 2061 1062 
L 4269 1062 
L 4269 2720 
L 2061 2720 
L 2061 2912 
z
" transform="scale(0.015625)"/>
       <path id="NotoSansSC-Thin-20" transform="scale(0.015625)"/>
       <path id="NotoSansSC-Thin-28" d="M 1562 -1222 
Q 1133 -525 883 252 
Q 634 1030 634 1958 
Q 634 2886 883 3667 
Q 1133 4448 1562 5146 
L 1696 5056 
Q 1274 4390 1059 3596 
Q 845 2803 845 1958 
Q 845 1114 1059 320 
Q 1274 -474 1696 -1139 
L 1562 -1222 
z
" transform="scale(0.015625)"/>
       <path id="NotoSansSC-Thin-4ebf" d="M 2515 4525 
L 5568 4525 
L 5568 4333 
L 2515 4333 
L 2515 4525 
z
M 5555 4525 
L 5581 4525 
L 5632 4538 
L 5766 4474 
Q 5760 4461 5744 4448 
Q 5728 4435 5715 4422 
Q 4986 3616 4470 3024 
Q 3955 2432 3612 2019 
Q 3270 1606 3072 1337 
Q 2874 1069 2778 902 
Q 2682 736 2653 637 
Q 2624 538 2624 467 
Q 2624 288 2803 208 
Q 2982 128 3245 128 
L 5229 122 
Q 5408 122 5497 230 
Q 5587 339 5622 640 
Q 5658 941 5677 1510 
Q 5709 1485 5769 1469 
Q 5830 1453 5869 1446 
Q 5850 960 5814 659 
Q 5779 358 5715 201 
Q 5651 45 5536 -9 
Q 5421 -64 5235 -64 
L 3283 -64 
Q 2854 -64 2643 70 
Q 2432 205 2432 461 
Q 2432 544 2457 653 
Q 2483 762 2579 934 
Q 2675 1107 2873 1388 
Q 3072 1670 3414 2089 
Q 3757 2509 4281 3107 
Q 4806 3706 5555 4525 
z
M 2003 5306 
L 2182 5254 
Q 1971 4717 1692 4205 
Q 1414 3693 1091 3248 
Q 768 2803 422 2451 
Q 410 2470 384 2499 
Q 358 2528 332 2560 
Q 307 2592 282 2605 
Q 627 2938 944 3370 
Q 1261 3802 1533 4298 
Q 1805 4794 2003 5306 
z
M 1370 3930 
L 1542 4102 
L 1555 4096 
L 1555 -429 
L 1370 -429 
L 1370 3930 
z
" transform="scale(0.015625)"/>
       <path id="NotoSansSC-Thin-5143" d="M 3872 2835 
L 4058 2835 
L 4058 109 
Q 4058 -45 4128 -93 
Q 4198 -141 4416 -141 
Q 4467 -141 4611 -141 
Q 4755 -141 4934 -141 
Q 5114 -141 5267 -141 
Q 5421 -141 5498 -141 
Q 5651 -141 5728 -51 
Q 5805 38 5833 300 
Q 5862 563 5869 1082 
Q 5901 1062 5933 1040 
Q 5965 1018 6000 1005 
Q 6035 992 6061 979 
Q 6048 461 6003 176 
Q 5958 -109 5846 -221 
Q 5734 -333 5498 -333 
Q 5459 -333 5302 -333 
Q 5146 -333 4957 -333 
Q 4768 -333 4614 -333 
Q 4461 -333 4422 -333 
Q 4211 -333 4089 -297 
Q 3968 -262 3920 -166 
Q 3872 -70 3872 109 
L 3872 2835 
z
M 422 2918 
L 5984 2918 
L 5984 2726 
L 422 2726 
L 422 2918 
z
M 960 4768 
L 5485 4768 
L 5485 4582 
L 960 4582 
L 960 4768 
z
M 2234 2784 
L 2426 2784 
Q 2381 2240 2285 1750 
Q 2189 1261 1987 845 
Q 1786 429 1437 102 
Q 1088 -224 544 -435 
Q 531 -410 489 -371 
Q 448 -333 416 -307 
Q 947 -102 1283 211 
Q 1619 525 1814 928 
Q 2010 1331 2102 1801 
Q 2195 2272 2234 2784 
z
" transform="scale(0.015625)"/>
       <path id="NotoSansSC-Thin-29" d="M 352 -1222 
L 211 -1139 
Q 634 -474 851 320 
Q 1069 1114 1069 1958 
Q 1069 2803 851 3596 
Q 634 4390 211 5056 
L 352 5146 
Q 787 4448 1033 3667 
Q 1280 2886 1280 1958 
Q 1280 1030 1033 252 
Q 787 -525 352 -1222 
z
" transform="scale(0.015625)"/>
      </defs>
      <use xlink:href="#NotoSansSC-Thin-8d44"/>
      <use xlink:href="#NotoSansSC-Thin-91d1" transform="translate(99.999985 0)"/>
      <use xlink:href="#NotoSansSC-Thin-51c0" transform="translate(199.999969 0)"/>
      <use xlink:href="#NotoSansSC-Thin-6d41" transform="translate(299.999954 0)"/>
      <use xlink:href="#NotoSansSC-Thin-5411" transform="translate(399.999939 0)"/>
      <use xlink:href="#NotoSansSC-Thin-20" transform="translate(499.999924 0)"/>
      <use xlink:href="#NotoSansSC-Thin-28" transform="translate(521.999908 0)"/>
      <use xlink:href="#NotoSansSC-Thin-4ebf" transform="translate(551.899902 0)"/>
      <use xlink:href="#NotoSansSC-Thin-5143" transform="translate(651.899887 0)"/>
      <use xlink:href="#NotoSansSC-Thin-29" transform="translate(751.899872 0)"/>
     </g>
    </g>
   </g>
   <g id="matplotlib.axis_2">
    <g id="ytick_1">
     <g id="line2d_17">
      <defs>
       <path id="m8dcd6d83d9" d="M 0 0 
L -3.5 0 
" style="stroke: #64748b; stroke-width: 0.8"/>
      </defs>
      <g>
       <use xlink:href="#m8dcd6d83d9" x="53.763438" y="171.583804" style="fill: #64748b; stroke: #64748b; stroke-width: 0.8"/>
      </g>
     </g>
     <g id="text_10">
      <!-- 半导体 -->
      <g style="fill: #64748b" transform="translate(19.763438 175.157085) scale(0.09 -0.09)">
       <defs>
        <path id="NotoSansSC-Thin-534a" d="M 1056 5037 
L 1216 5114 
Q 1382 4883 1545 4617 
Q 1709 4352 1843 4102 
Q 1978 3853 2048 3661 
L 1882 3571 
Q 1811 3763 1680 4019 
Q 1549 4275 1385 4544 
Q 1222 4813 1056 5037 
z
M 5165 5120 
L 5350 5024 
Q 5216 4787 5053 4515 
Q 4890 4243 4723 3987 
Q 4557 3731 4403 3533 
L 4256 3616 
Q 4410 3808 4576 4073 
Q 4742 4339 4899 4617 
Q 5056 4896 5165 5120 
z
M 819 3174 
L 5619 3174 
L 5619 2989 
L 819 2989 
L 819 3174 
z
M 378 1690 
L 6029 1690 
L 6029 1498 
L 378 1498 
L 378 1690 
z
M 3085 5318 
L 3277 5318 
L 3277 -435 
L 3085 -435 
L 3085 5318 
z
" transform="scale(0.015625)"/>
        <path id="NotoSansSC-Thin-5bfc" d="M 429 1741 
L 6022 1741 
L 6022 1549 
L 429 1549 
L 429 1741 
z
M 4339 2368 
L 4531 2368 
L 4531 -90 
Q 4531 -218 4486 -282 
Q 4442 -346 4320 -371 
Q 4205 -397 3936 -403 
Q 3667 -410 3187 -410 
Q 3181 -371 3155 -323 
Q 3130 -275 3104 -230 
Q 3379 -237 3600 -237 
Q 3821 -237 3974 -233 
Q 4128 -230 4186 -230 
Q 4275 -224 4307 -195 
Q 4339 -166 4339 -96 
L 4339 2368 
z
M 1491 1344 
L 1638 1440 
Q 1837 1254 2032 1027 
Q 2227 800 2387 582 
Q 2547 365 2637 192 
L 2477 83 
Q 2394 262 2234 483 
Q 2074 704 1882 931 
Q 1690 1158 1491 1344 
z
M 954 4973 
L 1146 4973 
L 1146 3085 
Q 1146 2950 1210 2873 
Q 1274 2797 1456 2765 
Q 1638 2733 2003 2733 
Q 2093 2733 2307 2733 
Q 2522 2733 2810 2733 
Q 3098 2733 3418 2733 
Q 3738 2733 4038 2733 
Q 4339 2733 4572 2733 
Q 4806 2733 4928 2733 
Q 5203 2733 5337 2787 
Q 5472 2842 5526 3002 
Q 5581 3162 5600 3462 
Q 5651 3437 5705 3414 
Q 5760 3392 5805 3379 
Q 5779 3053 5705 2870 
Q 5632 2688 5453 2617 
Q 5274 2547 4922 2547 
Q 4870 2547 4652 2547 
Q 4435 2547 4128 2547 
Q 3821 2547 3481 2547 
Q 3142 2547 2835 2547 
Q 2528 2547 2317 2547 
Q 2106 2547 2061 2547 
Q 1632 2547 1389 2588 
Q 1146 2630 1050 2745 
Q 954 2861 954 3091 
L 954 4973 
z
M 1043 3859 
L 5088 3859 
L 5088 4787 
L 954 4787 
L 954 4973 
L 5274 4973 
L 5274 3667 
L 1043 3667 
L 1043 3859 
z
" transform="scale(0.015625)"/>
        <path id="NotoSansSC-Thin-4f53" d="M 1792 5293 
L 1971 5248 
Q 1792 4710 1552 4201 
Q 1312 3693 1033 3245 
Q 755 2797 448 2438 
Q 435 2458 409 2486 
Q 384 2515 355 2544 
Q 326 2573 301 2592 
Q 602 2925 880 3360 
Q 1158 3795 1388 4288 
Q 1619 4781 1792 5293 
z
M 1152 3763 
L 1325 3942 
L 1338 3936 
L 1338 -435 
L 1152 -435 
L 1152 3763 
z
M 3808 5306 
L 3994 5306 
L 3994 -422 
L 3808 -422 
L 3808 5306 
z
M 1818 3872 
L 6061 3872 
L 6061 3680 
L 1818 3680 
L 1818 3872 
z
M 2541 1043 
L 5203 1043 
L 5203 851 
L 2541 851 
L 2541 1043 
z
M 4186 3808 
Q 4384 3206 4688 2630 
Q 4992 2054 5366 1584 
Q 5741 1114 6138 838 
Q 6099 813 6054 768 
Q 6010 723 5978 685 
Q 5581 986 5206 1469 
Q 4832 1952 4521 2541 
Q 4211 3130 4006 3750 
L 4186 3808 
z
M 3642 3802 
L 3802 3744 
Q 3590 3123 3267 2534 
Q 2944 1946 2566 1462 
Q 2189 979 1798 666 
Q 1786 691 1763 720 
Q 1741 749 1712 774 
Q 1683 800 1658 813 
Q 2048 1094 2422 1568 
Q 2797 2042 3117 2621 
Q 3437 3200 3642 3802 
z
" transform="scale(0.015625)"/>
       </defs>
       <use xlink:href="#NotoSansSC-Thin-534a"/>
       <use xlink:href="#NotoSansSC-Thin-5bfc" transform="translate(99.999985 0)"/>
       <use xlink:href="#NotoSansSC-Thin-4f53" transform="translate(199.999969 0)"/>
      </g>
     </g>
    </g>
    <g id="ytick_2">
     <g id="line2d_18">
      <g>
       <use xlink:href="#m8dcd6d83d9" x="53.763438" y="145.871408" style="fill: #64748b; stroke: #64748b; stroke-width: 0.8"/>
      </g>
     </g>
     <g id="text_11">
      <!-- 通信设备 -->
      <g style="fill: #64748b" transform="translate(10.763438 149.444689) scale(0.09 -0.09)">
       <defs>
        <path id="NotoSansSC-Thin-901a" d="M 1523 2963 
L 1523 544 
L 1338 544 
L 1338 2771 
L 339 2771 
L 339 2963 
L 1523 2963 
z
M 538 4941 
L 678 5037 
Q 877 4877 1078 4681 
Q 1280 4486 1456 4297 
Q 1632 4109 1747 3962 
L 1594 3846 
Q 1485 3994 1309 4186 
Q 1133 4378 931 4576 
Q 730 4774 538 4941 
z
M 2982 4410 
L 3104 4544 
Q 3424 4429 3773 4281 
Q 4122 4134 4438 3984 
Q 4755 3834 4966 3699 
L 4845 3546 
Q 4640 3674 4326 3830 
Q 4013 3987 3661 4140 
Q 3309 4294 2982 4410 
z
M 2342 3706 
L 5702 3706 
L 5702 3520 
L 2528 3520 
L 2528 390 
L 2342 390 
L 2342 3706 
z
M 5606 3706 
L 5798 3706 
L 5798 685 
Q 5798 563 5760 508 
Q 5722 454 5626 422 
Q 5523 397 5318 390 
Q 5114 384 4755 384 
Q 4749 429 4726 480 
Q 4704 531 4678 570 
Q 4979 563 5200 563 
Q 5421 563 5491 563 
Q 5562 570 5584 595 
Q 5606 621 5606 685 
L 5606 3706 
z
M 2291 5050 
L 5626 5050 
L 5626 4864 
L 2291 4864 
L 2291 5050 
z
M 2438 2739 
L 5722 2739 
L 5722 2554 
L 2438 2554 
L 2438 2739 
z
M 2438 1754 
L 5722 1754 
L 5722 1562 
L 2438 1562 
L 2438 1754 
z
M 3949 3661 
L 4134 3661 
L 4134 416 
L 3949 416 
L 3949 3661 
z
M 5581 5050 
L 5626 5050 
L 5670 5062 
L 5811 4966 
Q 5510 4672 5065 4409 
Q 4621 4147 4192 3981 
Q 4166 4013 4131 4054 
Q 4096 4096 4064 4122 
Q 4346 4224 4630 4368 
Q 4915 4512 5164 4678 
Q 5414 4845 5581 5005 
L 5581 5050 
z
M 1408 646 
Q 1568 646 1715 528 
Q 1862 410 2144 218 
Q 2477 13 2880 -48 
Q 3283 -109 3827 -109 
Q 4134 -109 4444 -102 
Q 4755 -96 5056 -83 
Q 5357 -70 5638 -57 
Q 5920 -45 6163 -26 
Q 6150 -51 6137 -86 
Q 6125 -122 6115 -160 
Q 6106 -198 6099 -230 
Q 5952 -237 5680 -249 
Q 5408 -262 5078 -268 
Q 4749 -275 4422 -281 
Q 4096 -288 3834 -288 
Q 3245 -288 2816 -211 
Q 2387 -134 2048 83 
Q 1856 205 1689 342 
Q 1523 480 1408 480 
Q 1293 480 1145 371 
Q 998 262 832 76 
Q 666 -109 480 -346 
L 339 -205 
Q 646 154 912 400 
Q 1178 646 1408 646 
z
" transform="scale(0.015625)"/>
        <path id="NotoSansSC-Thin-4fe1" d="M 2438 3322 
L 5440 3322 
L 5440 3130 
L 2438 3130 
L 2438 3322 
z
M 2438 2438 
L 5440 2438 
L 5440 2253 
L 2438 2253 
L 2438 2438 
z
M 2458 32 
L 5402 32 
L 5402 -154 
L 2458 -154 
L 2458 32 
z
M 1965 4198 
L 5978 4198 
L 5978 4006 
L 1965 4006 
L 1965 4198 
z
M 2368 1523 
L 5491 1523 
L 5491 -442 
L 5299 -442 
L 5299 1338 
L 2554 1338 
L 2554 -461 
L 2368 -461 
L 2368 1523 
z
M 3475 5229 
L 3661 5299 
Q 3802 5107 3933 4880 
Q 4064 4653 4128 4486 
L 3936 4397 
Q 3872 4563 3741 4796 
Q 3610 5030 3475 5229 
z
M 1773 5293 
L 1952 5248 
Q 1766 4710 1523 4201 
Q 1280 3693 995 3245 
Q 710 2797 403 2438 
Q 390 2458 364 2486 
Q 339 2515 310 2544 
Q 282 2573 256 2592 
Q 563 2925 844 3360 
Q 1126 3795 1363 4288 
Q 1600 4781 1773 5293 
z
M 1152 3731 
L 1325 3910 
L 1338 3904 
L 1338 -467 
L 1152 -467 
L 1152 3731 
z
" transform="scale(0.015625)"/>
        <path id="NotoSansSC-Thin-8bbe" d="M 915 5037 
L 1050 5158 
Q 1222 5018 1401 4848 
Q 1581 4678 1734 4515 
Q 1888 4352 1984 4224 
L 1850 4070 
Q 1754 4205 1600 4371 
Q 1446 4538 1267 4714 
Q 1088 4890 915 5037 
z
M 1184 -282 
L 1178 -90 
L 1293 64 
L 2426 742 
Q 2438 704 2457 659 
Q 2477 614 2490 582 
Q 2080 326 1833 169 
Q 1587 13 1459 -70 
Q 1331 -154 1273 -198 
Q 1216 -243 1184 -282 
z
M 333 3270 
L 1446 3270 
L 1446 3078 
L 333 3078 
L 333 3270 
z
M 3360 5056 
L 4966 5056 
L 4966 4870 
L 3360 4870 
L 3360 5056 
z
M 2477 2438 
L 5536 2438 
L 5536 2253 
L 2477 2253 
L 2477 2438 
z
M 5466 2438 
L 5510 2438 
L 5549 2451 
L 5670 2387 
Q 5472 1811 5133 1347 
Q 4794 883 4362 531 
Q 3930 179 3446 -70 
Q 2963 -320 2483 -467 
Q 2470 -429 2435 -377 
Q 2400 -326 2368 -294 
Q 2835 -160 3305 77 
Q 3776 314 4198 650 
Q 4621 986 4950 1424 
Q 5280 1862 5466 2394 
L 5466 2438 
z
M 2931 2349 
Q 3187 1683 3638 1145 
Q 4090 608 4710 237 
Q 5331 -134 6093 -307 
Q 6067 -326 6041 -358 
Q 6016 -390 5993 -419 
Q 5971 -448 5958 -480 
Q 4819 -198 3990 522 
Q 3162 1242 2765 2285 
L 2931 2349 
z
M 3283 5056 
L 3469 5056 
L 3469 4333 
Q 3469 4058 3379 3754 
Q 3290 3450 3046 3165 
Q 2803 2880 2336 2650 
Q 2323 2675 2300 2700 
Q 2278 2726 2256 2755 
Q 2234 2784 2214 2797 
Q 2656 3014 2886 3273 
Q 3117 3533 3200 3808 
Q 3283 4083 3283 4333 
L 3283 5056 
z
M 4877 5056 
L 5062 5056 
L 5062 3488 
Q 5062 3354 5084 3309 
Q 5107 3264 5184 3264 
Q 5229 3264 5344 3264 
Q 5459 3264 5577 3264 
Q 5696 3264 5741 3264 
Q 5798 3264 5872 3270 
Q 5946 3277 5997 3283 
Q 6003 3245 6012 3184 
Q 6022 3123 6029 3091 
Q 5984 3085 5907 3078 
Q 5830 3072 5747 3072 
Q 5702 3072 5577 3072 
Q 5453 3072 5337 3072 
Q 5222 3072 5190 3072 
Q 5062 3072 4995 3110 
Q 4928 3149 4902 3241 
Q 4877 3334 4877 3494 
L 4877 5056 
z
M 1184 -282 
Q 1171 -256 1148 -227 
Q 1126 -198 1100 -166 
Q 1075 -134 1050 -115 
Q 1101 -83 1174 -12 
Q 1248 58 1309 166 
Q 1370 275 1370 416 
L 1370 3270 
L 1555 3270 
L 1555 122 
Q 1555 122 1497 74 
Q 1440 26 1369 -41 
Q 1299 -109 1241 -176 
Q 1184 -243 1184 -282 
z
" transform="scale(0.015625)"/>
        <path id="NotoSansSC-Thin-5907" d="M 2042 4730 
L 4838 4730 
L 4838 4544 
L 2042 4544 
L 2042 4730 
z
M 4787 4730 
L 4832 4730 
L 4877 4742 
L 4998 4646 
Q 4723 4269 4316 3942 
Q 3910 3616 3427 3344 
Q 2944 3072 2419 2857 
Q 1894 2643 1372 2489 
Q 851 2336 378 2240 
Q 371 2272 352 2310 
Q 333 2349 313 2381 
Q 294 2413 275 2432 
Q 742 2515 1257 2662 
Q 1773 2810 2288 3014 
Q 2803 3219 3276 3478 
Q 3750 3738 4140 4042 
Q 4531 4346 4787 4691 
L 4787 4730 
z
M 1990 4493 
Q 2374 3955 3011 3552 
Q 3648 3149 4454 2889 
Q 5261 2630 6138 2515 
Q 6118 2496 6092 2464 
Q 6067 2432 6048 2403 
Q 6029 2374 6016 2342 
Q 5152 2470 4339 2739 
Q 3526 3008 2870 3424 
Q 2214 3840 1811 4403 
L 1990 4493 
z
M 1229 2304 
L 5203 2304 
L 5203 -429 
L 5011 -429 
L 5011 2112 
L 1421 2112 
L 1421 -454 
L 1229 -454 
L 1229 2304 
z
M 1254 1171 
L 5158 1171 
L 5158 986 
L 1254 986 
L 1254 1171 
z
M 1254 -32 
L 5158 -32 
L 5158 -218 
L 1254 -218 
L 1254 -32 
z
M 3110 2170 
L 3302 2170 
L 3302 -141 
L 3110 -141 
L 3110 2170 
z
M 2419 5318 
L 2630 5280 
Q 2374 4813 1907 4320 
Q 1440 3827 749 3443 
Q 730 3469 704 3494 
Q 678 3520 652 3542 
Q 627 3565 602 3578 
Q 1056 3814 1411 4108 
Q 1766 4403 2019 4720 
Q 2272 5037 2419 5318 
z
" transform="scale(0.015625)"/>
       </defs>
       <use xlink:href="#NotoSansSC-Thin-901a"/>
       <use xlink:href="#NotoSansSC-Thin-4fe1" transform="translate(99.999985 0)"/>
       <use xlink:href="#NotoSansSC-Thin-8bbe" transform="translate(199.999969 0)"/>
       <use xlink:href="#NotoSansSC-Thin-5907" transform="translate(299.999954 0)"/>
      </g>
     </g>
    </g>
    <g id="ytick_3">
     <g id="line2d_19">
      <g>
       <use xlink:href="#m8dcd6d83d9" x="53.763438" y="120.159011" style="fill: #64748b; stroke: #64748b; stroke-width: 0.8"/>
      </g>
     </g>
     <g id="text_12">
      <!-- 计算机 -->
      <g style="fill: #64748b" transform="translate(19.763438 123.732292) scale(0.09 -0.09)">
       <defs>
        <path id="NotoSansSC-Thin-8ba1" d="M 1018 5037 
L 1152 5158 
Q 1331 5011 1516 4835 
Q 1702 4659 1862 4489 
Q 2022 4320 2118 4186 
L 1990 4032 
Q 1888 4166 1728 4342 
Q 1568 4518 1382 4704 
Q 1197 4890 1018 5037 
z
M 1299 -230 
L 1293 -32 
L 1402 128 
L 2554 890 
Q 2566 870 2579 841 
Q 2592 813 2608 787 
Q 2624 762 2630 742 
Q 2208 454 1958 278 
Q 1709 102 1577 6 
Q 1446 -90 1388 -141 
Q 1331 -192 1299 -230 
z
M 346 3270 
L 1542 3270 
L 1542 3078 
L 346 3078 
L 346 3270 
z
M 2413 3085 
L 6086 3085 
L 6086 2899 
L 2413 2899 
L 2413 3085 
z
M 4122 5306 
L 4307 5306 
L 4307 -448 
L 4122 -448 
L 4122 5306 
z
M 1299 -230 
Q 1286 -205 1264 -173 
Q 1242 -141 1216 -112 
Q 1190 -83 1165 -64 
Q 1235 -19 1340 99 
Q 1446 218 1446 416 
L 1446 3270 
L 1632 3270 
L 1632 128 
Q 1632 128 1597 99 
Q 1562 70 1514 28 
Q 1466 -13 1418 -64 
Q 1370 -115 1334 -156 
Q 1299 -198 1299 -230 
z
" transform="scale(0.015625)"/>
        <path id="NotoSansSC-Thin-7b97" d="M 410 864 
L 6029 864 
L 6029 678 
L 410 678 
L 410 864 
z
M 1402 3021 
L 1402 2502 
L 5107 2502 
L 5107 3021 
L 1402 3021 
z
M 1402 2317 
L 1402 1786 
L 5107 1786 
L 5107 2317 
L 1402 2317 
z
M 1402 3712 
L 1402 3206 
L 5107 3206 
L 5107 3712 
L 1402 3712 
z
M 1210 3904 
L 5293 3904 
L 5293 1600 
L 1210 1600 
L 1210 3904 
z
M 4262 1645 
L 4448 1645 
L 4448 -442 
L 4262 -442 
L 4262 1645 
z
M 1005 4781 
L 3123 4781 
L 3123 4595 
L 1005 4595 
L 1005 4781 
z
M 3398 4781 
L 5946 4781 
L 5946 4595 
L 3398 4595 
L 3398 4781 
z
M 1222 5325 
L 1408 5280 
Q 1242 4870 995 4489 
Q 749 4109 480 3840 
Q 467 3853 435 3875 
Q 403 3898 371 3920 
Q 339 3942 314 3955 
Q 595 4218 835 4576 
Q 1075 4934 1222 5325 
z
M 3654 5325 
L 3840 5286 
Q 3699 4883 3459 4531 
Q 3219 4179 2944 3936 
Q 2931 3955 2899 3977 
Q 2867 4000 2835 4022 
Q 2803 4045 2778 4058 
Q 3059 4294 3289 4624 
Q 3520 4954 3654 5325 
z
M 1568 4621 
L 1741 4678 
Q 1850 4531 1965 4342 
Q 2080 4154 2125 4019 
L 1958 3949 
Q 1901 4083 1795 4275 
Q 1690 4467 1568 4621 
z
M 4134 4653 
L 4294 4736 
Q 4454 4589 4611 4390 
Q 4768 4192 4845 4038 
L 4685 3949 
Q 4614 4096 4457 4297 
Q 4301 4499 4134 4653 
z
M 2150 1651 
L 2349 1651 
L 2349 1229 
Q 2349 1043 2301 825 
Q 2253 608 2086 384 
Q 1920 160 1581 -57 
Q 1242 -275 653 -461 
Q 627 -429 595 -381 
Q 563 -333 531 -307 
Q 1101 -141 1427 54 
Q 1754 250 1907 461 
Q 2061 672 2105 870 
Q 2150 1069 2150 1235 
L 2150 1651 
z
" transform="scale(0.015625)"/>
        <path id="NotoSansSC-Thin-673a" d="M 3360 4954 
L 5171 4954 
L 5171 4768 
L 3360 4768 
L 3360 4954 
z
M 3251 4954 
L 3437 4954 
L 3437 2918 
Q 3437 2528 3401 2086 
Q 3366 1645 3264 1197 
Q 3162 749 2957 326 
Q 2752 -96 2413 -461 
Q 2400 -442 2374 -419 
Q 2349 -397 2320 -371 
Q 2291 -346 2266 -333 
Q 2598 19 2796 425 
Q 2995 832 3091 1261 
Q 3187 1690 3219 2112 
Q 3251 2534 3251 2918 
L 3251 4954 
z
M 5050 4954 
L 5242 4954 
L 5242 269 
Q 5242 83 5254 -29 
Q 5267 -141 5299 -166 
Q 5376 -205 5459 -205 
Q 5510 -205 5584 -205 
Q 5658 -205 5722 -205 
Q 5850 -205 5907 -147 
Q 5939 -115 5961 -64 
Q 5984 -13 5990 109 
Q 6003 224 6009 486 
Q 6016 749 6022 1107 
Q 6061 1062 6112 1036 
Q 6163 1011 6208 998 
Q 6208 813 6201 605 
Q 6195 397 6188 227 
Q 6182 58 6176 -13 
Q 6138 -250 6029 -326 
Q 5965 -358 5901 -374 
Q 5837 -390 5741 -390 
Q 5690 -390 5597 -390 
Q 5504 -390 5453 -390 
Q 5382 -390 5305 -374 
Q 5229 -358 5165 -314 
Q 5120 -282 5094 -227 
Q 5069 -173 5059 -35 
Q 5050 102 5050 371 
L 5050 4954 
z
M 378 3891 
L 2810 3891 
L 2810 3699 
L 378 3699 
L 378 3891 
z
M 1555 5318 
L 1747 5318 
L 1747 -435 
L 1555 -435 
L 1555 5318 
z
M 1555 3814 
L 1728 3763 
Q 1632 3373 1481 2957 
Q 1331 2541 1145 2144 
Q 960 1747 761 1408 
Q 563 1069 365 838 
Q 339 870 297 915 
Q 256 960 224 986 
Q 416 1210 614 1530 
Q 813 1850 992 2230 
Q 1171 2611 1318 3017 
Q 1466 3424 1555 3814 
z
M 1715 2970 
Q 1786 2906 1939 2752 
Q 2093 2598 2269 2416 
Q 2445 2234 2592 2077 
Q 2739 1920 2797 1850 
L 2643 1683 
Q 2573 1773 2432 1936 
Q 2291 2099 2124 2284 
Q 1958 2470 1811 2627 
Q 1664 2784 1581 2861 
L 1715 2970 
z
" transform="scale(0.015625)"/>
       </defs>
       <use xlink:href="#NotoSansSC-Thin-8ba1"/>
       <use xlink:href="#NotoSansSC-Thin-7b97" transform="translate(99.999985 0)"/>
       <use xlink:href="#NotoSansSC-Thin-673a" transform="translate(199.999969 0)"/>
      </g>
     </g>
    </g>
    <g id="ytick_4">
     <g id="line2d_20">
      <g>
       <use xlink:href="#m8dcd6d83d9" x="53.763438" y="94.446614" style="fill: #64748b; stroke: #64748b; stroke-width: 0.8"/>
      </g>
     </g>
     <g id="text_13">
      <!-- 白酒 -->
      <g style="fill: #64748b" transform="translate(28.763438 98.019895) scale(0.09 -0.09)">
       <defs>
        <path id="NotoSansSC-Thin-767d" d="M 1133 243 
L 5280 243 
L 5280 58 
L 1133 58 
L 1133 243 
z
M 1082 2234 
L 5286 2234 
L 5286 2048 
L 1082 2048 
L 1082 2234 
z
M 1056 4198 
L 5350 4198 
L 5350 -410 
L 5165 -410 
L 5165 4006 
L 1242 4006 
L 1242 -454 
L 1056 -454 
L 1056 4198 
z
M 3040 5338 
L 3226 5254 
Q 3104 4960 2966 4627 
Q 2829 4294 2701 4051 
L 2534 4122 
Q 2624 4288 2717 4502 
Q 2810 4717 2896 4937 
Q 2982 5158 3040 5338 
z
" transform="scale(0.015625)"/>
        <path id="NotoSansSC-Thin-9152" d="M 1850 4954 
L 6093 4954 
L 6093 4768 
L 1850 4768 
L 1850 4954 
z
M 2253 1274 
L 5702 1274 
L 5702 1088 
L 2253 1088 
L 2253 1274 
z
M 2253 83 
L 5702 83 
L 5702 -102 
L 2253 -102 
L 2253 83 
z
M 2150 3642 
L 5792 3642 
L 5792 -416 
L 5600 -416 
L 5600 3450 
L 2342 3450 
L 2342 -448 
L 2150 -448 
L 2150 3642 
z
M 538 5069 
L 646 5197 
Q 826 5094 1018 4972 
Q 1210 4851 1382 4736 
Q 1555 4621 1670 4531 
L 1555 4378 
Q 1440 4474 1267 4595 
Q 1094 4717 902 4841 
Q 710 4966 538 5069 
z
M 282 3341 
L 390 3469 
Q 576 3379 781 3264 
Q 986 3149 1174 3037 
Q 1363 2925 1485 2835 
L 1382 2682 
Q 1261 2771 1072 2883 
Q 883 2995 678 3116 
Q 474 3238 282 3341 
z
M 416 -224 
Q 582 32 780 387 
Q 979 742 1184 1132 
Q 1389 1523 1555 1882 
L 1696 1766 
Q 1542 1427 1347 1043 
Q 1152 659 950 294 
Q 749 -70 576 -352 
L 416 -224 
z
M 3302 4851 
L 3488 4851 
L 3488 3552 
L 3302 3552 
L 3302 4851 
z
M 4301 4870 
L 4486 4870 
L 4486 3539 
L 4301 3539 
L 4301 4870 
z
M 3302 3558 
L 3488 3558 
L 3488 3155 
Q 3488 2931 3408 2678 
Q 3328 2426 3120 2182 
Q 2912 1939 2534 1734 
Q 2522 1760 2499 1785 
Q 2477 1811 2454 1836 
Q 2432 1862 2413 1875 
Q 2765 2067 2957 2284 
Q 3149 2502 3225 2729 
Q 3302 2957 3302 3155 
L 3302 3558 
z
M 4301 3546 
L 4486 3546 
L 4486 2394 
Q 4486 2323 4524 2300 
Q 4563 2278 4704 2278 
Q 4742 2278 4841 2278 
Q 4941 2278 5065 2278 
Q 5190 2278 5299 2278 
Q 5408 2278 5453 2278 
Q 5536 2278 5565 2281 
Q 5594 2285 5600 2291 
Q 5632 2266 5683 2250 
Q 5734 2234 5779 2221 
Q 5766 2157 5702 2125 
Q 5638 2093 5491 2093 
Q 5466 2093 5354 2093 
Q 5242 2093 5101 2093 
Q 4960 2093 4848 2093 
Q 4736 2093 4710 2093 
Q 4550 2093 4460 2112 
Q 4371 2131 4336 2195 
Q 4301 2259 4301 2394 
L 4301 3546 
z
" transform="scale(0.015625)"/>
       </defs>
       <use xlink:href="#NotoSansSC-Thin-767d"/>
       <use xlink:href="#NotoSansSC-Thin-9152" transform="translate(99.999985 0)"/>
      </g>
     </g>
    </g>
    <g id="ytick_5">
     <g id="line2d_21">
      <g>
       <use xlink:href="#m8dcd6d83d9" x="53.763438" y="68.734217" style="fill: #64748b; stroke: #64748b; stroke-width: 0.8"/>
      </g>
     </g>
     <g id="text_14">
      <!-- 航运/机场 -->
      <g style="fill: #64748b" transform="translate(7.2 72.307499) scale(0.09 -0.09)">
       <defs>
        <path id="NotoSansSC-Thin-822a" d="M 2746 4198 
L 5997 4198 
L 5997 4006 
L 2746 4006 
L 2746 4198 
z
M 3501 3226 
L 5171 3226 
L 5171 3034 
L 3501 3034 
L 3501 3226 
z
M 3418 3226 
L 3610 3226 
L 3610 1773 
Q 3610 1510 3578 1216 
Q 3546 922 3462 624 
Q 3379 326 3219 44 
Q 3059 -237 2803 -474 
Q 2790 -454 2768 -432 
Q 2746 -410 2717 -387 
Q 2688 -365 2662 -352 
Q 2995 -45 3155 320 
Q 3315 685 3366 1062 
Q 3418 1440 3418 1779 
L 3418 3226 
z
M 5030 3226 
L 5222 3226 
L 5222 160 
Q 5222 -122 5267 -160 
Q 5312 -186 5408 -186 
Q 5446 -186 5520 -186 
Q 5594 -186 5645 -186 
Q 5696 -186 5747 -179 
Q 5798 -173 5824 -154 
Q 5882 -115 5901 19 
Q 5914 109 5920 285 
Q 5926 461 5933 704 
Q 5971 672 6016 649 
Q 6061 627 6106 614 
Q 6099 410 6089 192 
Q 6080 -26 6061 -102 
Q 6022 -256 5926 -314 
Q 5882 -339 5814 -352 
Q 5747 -365 5670 -365 
Q 5626 -365 5530 -365 
Q 5434 -365 5395 -365 
Q 5325 -365 5254 -352 
Q 5184 -339 5126 -294 
Q 5069 -250 5049 -154 
Q 5030 -58 5030 243 
L 5030 3226 
z
M 864 4550 
L 2400 4550 
L 2400 4358 
L 864 4358 
L 864 4550 
z
M 2317 4550 
L 2502 4550 
L 2502 -77 
Q 2502 -192 2464 -253 
Q 2426 -314 2342 -339 
Q 2253 -365 2077 -371 
Q 1901 -378 1594 -378 
Q 1587 -339 1561 -284 
Q 1536 -230 1510 -192 
Q 1766 -198 1952 -198 
Q 2138 -198 2195 -192 
Q 2317 -186 2317 -83 
L 2317 4550 
z
M 794 4550 
L 979 4550 
L 979 2150 
Q 979 1843 960 1497 
Q 941 1152 886 800 
Q 832 448 726 121 
Q 621 -205 442 -480 
Q 429 -461 400 -441 
Q 371 -422 339 -403 
Q 307 -384 282 -378 
Q 518 -13 624 422 
Q 730 858 762 1306 
Q 794 1754 794 2144 
L 794 4550 
z
M 1312 3827 
L 1472 3891 
Q 1594 3667 1722 3401 
Q 1850 3136 1914 2950 
L 1754 2874 
Q 1690 3066 1565 3334 
Q 1440 3603 1312 3827 
z
M 1587 5382 
L 1792 5312 
Q 1715 5094 1622 4848 
Q 1530 4602 1453 4435 
L 1293 4493 
Q 1370 4672 1456 4931 
Q 1542 5190 1587 5382 
z
M 320 2458 
L 2419 2458 
L 2419 2272 
L 320 2272 
L 320 2458 
z
M 1306 1862 
L 1459 1933 
Q 1606 1690 1763 1402 
Q 1920 1114 2003 909 
L 1837 832 
Q 1760 1037 1606 1328 
Q 1453 1619 1306 1862 
z
M 3827 5306 
L 3974 5389 
Q 4122 5152 4278 4867 
Q 4435 4582 4518 4384 
L 4358 4288 
Q 4275 4499 4124 4784 
Q 3974 5069 3827 5306 
z
" transform="scale(0.015625)"/>
        <path id="NotoSansSC-Thin-8fd0" d="M 2426 4838 
L 5594 4838 
L 5594 4646 
L 2426 4646 
L 2426 4838 
z
M 2010 3328 
L 6080 3328 
L 6080 3136 
L 2010 3136 
L 2010 3328 
z
M 4448 2618 
L 4608 2694 
Q 4826 2368 5059 1993 
Q 5293 1619 5497 1276 
Q 5702 934 5830 691 
L 5664 589 
Q 5536 838 5334 1190 
Q 5133 1542 4902 1920 
Q 4672 2298 4448 2618 
z
M 1478 3027 
L 1478 410 
L 1293 410 
L 1293 2835 
L 314 2835 
L 314 3027 
L 1478 3027 
z
M 525 4736 
L 653 4864 
Q 851 4742 1065 4595 
Q 1280 4448 1478 4310 
Q 1677 4173 1805 4064 
L 1677 3917 
Q 1549 4026 1350 4170 
Q 1152 4314 937 4464 
Q 723 4614 525 4736 
z
M 1389 557 
Q 1549 557 1696 438 
Q 1843 320 2125 134 
Q 2451 -70 2851 -134 
Q 3251 -198 3795 -198 
Q 4096 -198 4400 -192 
Q 4704 -186 5005 -173 
Q 5306 -160 5581 -144 
Q 5856 -128 6099 -109 
Q 6086 -134 6070 -169 
Q 6054 -205 6048 -243 
Q 6042 -282 6035 -320 
Q 5888 -326 5619 -339 
Q 5350 -352 5024 -358 
Q 4698 -365 4374 -371 
Q 4051 -378 3795 -378 
Q 3213 -378 2787 -301 
Q 2362 -224 2022 -6 
Q 1843 122 1673 256 
Q 1504 390 1389 390 
Q 1274 390 1130 281 
Q 986 173 816 -9 
Q 646 -192 461 -429 
L 320 -294 
Q 525 -51 710 141 
Q 896 333 1065 445 
Q 1235 557 1389 557 
z
M 2368 806 
Q 2362 832 2349 870 
Q 2336 909 2323 947 
Q 2310 986 2298 1011 
Q 2368 1024 2448 1136 
Q 2528 1248 2630 1414 
Q 2682 1491 2784 1676 
Q 2886 1862 3017 2118 
Q 3149 2374 3277 2665 
Q 3405 2957 3507 3251 
L 3693 3162 
Q 3533 2765 3344 2361 
Q 3155 1958 2953 1596 
Q 2752 1235 2541 941 
L 2541 934 
Q 2541 934 2515 921 
Q 2490 909 2454 889 
Q 2419 870 2393 848 
Q 2368 826 2368 806 
z
M 2368 806 
L 2368 966 
L 2547 1062 
L 5446 1280 
Q 5453 1235 5465 1187 
Q 5478 1139 5485 1107 
Q 4659 1037 4112 992 
Q 3565 947 3235 918 
Q 2906 890 2733 870 
Q 2560 851 2483 835 
Q 2406 819 2368 806 
z
" transform="scale(0.015625)"/>
        <path id="NotoSansSC-Thin-2f" d="M 58 -1126 
L 2298 5005 
L 2515 5005 
L 282 -1126 
L 58 -1126 
z
" transform="scale(0.015625)"/>
        <path id="NotoSansSC-Thin-573a" d="M 384 3718 
L 2221 3718 
L 2221 3533 
L 384 3533 
L 384 3718 
z
M 1254 5254 
L 1446 5254 
L 1446 966 
L 1254 966 
L 1254 5254 
z
M 288 691 
Q 538 774 851 892 
Q 1165 1011 1517 1148 
Q 1869 1286 2227 1421 
L 2259 1242 
Q 1754 1043 1254 848 
Q 755 653 358 499 
L 288 691 
z
M 2406 4998 
L 5062 4998 
L 5062 4813 
L 2406 4813 
L 2406 4998 
z
M 5709 3187 
L 5901 3187 
Q 5901 3187 5897 3161 
Q 5894 3136 5894 3104 
Q 5894 3072 5888 3046 
Q 5837 2189 5782 1600 
Q 5728 1011 5670 636 
Q 5613 262 5542 57 
Q 5472 -147 5389 -243 
Q 5318 -326 5238 -358 
Q 5158 -390 5037 -390 
Q 4941 -397 4771 -390 
Q 4602 -384 4416 -371 
Q 4416 -326 4403 -272 
Q 4390 -218 4365 -179 
Q 4576 -198 4755 -201 
Q 4934 -205 5011 -205 
Q 5088 -211 5136 -195 
Q 5184 -179 5229 -128 
Q 5331 -26 5411 313 
Q 5491 653 5564 1334 
Q 5638 2016 5709 3136 
L 5709 3187 
z
M 2560 2944 
Q 2554 2970 2538 3005 
Q 2522 3040 2506 3075 
Q 2490 3110 2470 3136 
Q 2573 3149 2736 3232 
Q 2899 3315 3085 3437 
Q 3187 3501 3395 3648 
Q 3603 3795 3868 4000 
Q 4134 4205 4416 4448 
Q 4698 4691 4954 4941 
L 4954 4966 
L 5062 5024 
L 5242 4915 
Q 4557 4320 3945 3856 
Q 3334 3392 2746 3059 
L 2746 3053 
Q 2746 3053 2717 3043 
Q 2688 3034 2653 3018 
Q 2618 3002 2589 2982 
Q 2560 2963 2560 2944 
z
M 2560 2944 
L 2560 3130 
L 2746 3187 
L 5786 3187 
L 5786 3002 
L 3098 3002 
Q 2848 3002 2726 2989 
Q 2605 2976 2560 2944 
z
M 4902 3130 
L 5082 3085 
Q 4717 1862 4077 976 
Q 3437 90 2502 -480 
Q 2490 -461 2461 -435 
Q 2432 -410 2403 -387 
Q 2374 -365 2349 -346 
Q 3296 198 3926 1075 
Q 4557 1952 4902 3130 
z
M 3994 3117 
L 4179 3072 
Q 3949 2400 3529 1875 
Q 3110 1350 2598 992 
Q 2586 1011 2557 1036 
Q 2528 1062 2496 1088 
Q 2464 1114 2438 1126 
Q 2963 1459 3369 1968 
Q 3776 2477 3994 3117 
z
" transform="scale(0.015625)"/>
       </defs>
       <use xlink:href="#NotoSansSC-Thin-822a"/>
       <use xlink:href="#NotoSansSC-Thin-8fd0" transform="translate(99.999985 0)"/>
       <use xlink:href="#NotoSansSC-Thin-2f" transform="translate(199.999969 0)"/>
       <use xlink:href="#NotoSansSC-Thin-673a" transform="translate(239.59996 0)"/>
       <use xlink:href="#NotoSansSC-Thin-573a" transform="translate(339.599945 0)"/>
      </g>
     </g>
    </g>
    <g id="ytick_6">
     <g id="line2d_22">
      <g>
       <use xlink:href="#m8dcd6d83d9" x="53.763438" y="43.021821" style="fill: #64748b; stroke: #64748b; stroke-width: 0.8"/>
      </g>
     </g>
     <g id="text_15">
      <!-- 银行 -->
      <g style="fill: #64748b" transform="translate(28.763438 46.595102) scale(0.09 -0.09)">
       <defs>
        <path id="NotoSansSC-Thin-94f6" d="M 3046 5005 
L 5670 5005 
L 5670 2349 
L 3046 2349 
L 3046 2534 
L 5485 2534 
L 5485 4819 
L 3046 4819 
L 3046 5005 
z
M 3091 3770 
L 5581 3770 
L 5581 3584 
L 3091 3584 
L 3091 3770 
z
M 4115 2438 
Q 4269 1805 4544 1277 
Q 4819 749 5225 368 
Q 5632 -13 6157 -211 
Q 6131 -230 6105 -262 
Q 6080 -294 6057 -323 
Q 6035 -352 6016 -384 
Q 5485 -160 5075 240 
Q 4666 640 4384 1190 
Q 4102 1741 3942 2400 
L 4115 2438 
z
M 5888 1978 
L 6029 1850 
Q 5837 1683 5590 1513 
Q 5344 1344 5091 1193 
Q 4838 1043 4621 922 
L 4506 1056 
Q 4717 1178 4973 1334 
Q 5229 1491 5472 1660 
Q 5715 1830 5888 1978 
z
M 2880 -435 
L 2874 -250 
L 3021 -134 
L 4506 256 
Q 4506 218 4509 166 
Q 4512 115 4518 83 
Q 4000 -70 3689 -160 
Q 3379 -250 3216 -301 
Q 3053 -352 2985 -381 
Q 2918 -410 2880 -435 
z
M 2880 -435 
Q 2874 -410 2854 -378 
Q 2835 -346 2812 -307 
Q 2790 -269 2771 -243 
Q 2822 -218 2886 -144 
Q 2950 -70 2950 109 
L 2950 5005 
L 3136 5005 
L 3136 -186 
Q 3136 -186 3110 -205 
Q 3085 -224 3046 -253 
Q 3008 -282 2969 -314 
Q 2931 -346 2905 -378 
Q 2880 -410 2880 -435 
z
M 1184 5293 
L 1376 5248 
Q 1267 4922 1113 4605 
Q 960 4288 774 4009 
Q 589 3731 390 3507 
Q 378 3526 352 3555 
Q 326 3584 300 3616 
Q 275 3648 250 3661 
Q 544 3962 790 4394 
Q 1037 4826 1184 5293 
z
M 928 4474 
L 2573 4474 
L 2573 4288 
L 890 4288 
L 928 4474 
z
M 640 3386 
L 2445 3386 
L 2445 3200 
L 640 3200 
L 640 3386 
z
M 358 2093 
L 2592 2093 
L 2592 1901 
L 358 1901 
L 358 2093 
z
M 1293 -358 
L 1293 -160 
L 1408 -19 
L 2637 621 
Q 2650 582 2666 537 
Q 2682 493 2694 467 
Q 2253 224 1987 77 
Q 1722 -70 1584 -153 
Q 1446 -237 1385 -278 
Q 1325 -320 1293 -358 
z
M 1293 -358 
Q 1286 -333 1267 -294 
Q 1248 -256 1229 -221 
Q 1210 -186 1190 -160 
Q 1242 -134 1306 -70 
Q 1370 -6 1370 173 
L 1370 3270 
L 1555 3270 
L 1555 -122 
Q 1555 -122 1529 -138 
Q 1504 -154 1465 -179 
Q 1427 -205 1385 -237 
Q 1344 -269 1318 -301 
Q 1293 -333 1293 -358 
z
" transform="scale(0.015625)"/>
        <path id="NotoSansSC-Thin-884c" d="M 2714 4909 
L 5875 4909 
L 5875 4717 
L 2714 4717 
L 2714 4909 
z
M 4832 3085 
L 5018 3085 
L 5018 -109 
Q 5018 -250 4966 -314 
Q 4915 -378 4806 -410 
Q 4685 -429 4419 -432 
Q 4154 -435 3642 -435 
Q 3635 -403 3612 -358 
Q 3590 -314 3558 -269 
Q 3834 -275 4061 -278 
Q 4288 -282 4445 -278 
Q 4602 -275 4659 -269 
Q 4755 -262 4793 -230 
Q 4832 -198 4832 -115 
L 4832 3085 
z
M 2426 3149 
L 6074 3149 
L 6074 2963 
L 2426 2963 
L 2426 3149 
z
M 1306 2912 
L 1478 3078 
L 1491 3066 
L 1491 -480 
L 1306 -480 
L 1306 2912 
z
M 2061 3974 
L 2240 3910 
Q 1997 3526 1686 3152 
Q 1376 2778 1040 2451 
Q 704 2125 371 1862 
Q 358 1882 329 1907 
Q 301 1933 272 1961 
Q 243 1990 218 2003 
Q 557 2246 893 2563 
Q 1229 2880 1529 3241 
Q 1830 3603 2061 3974 
z
M 1786 5325 
L 1971 5248 
Q 1779 4992 1516 4723 
Q 1254 4454 969 4204 
Q 685 3955 416 3757 
Q 403 3776 377 3801 
Q 352 3827 326 3856 
Q 301 3885 282 3898 
Q 550 4090 832 4330 
Q 1114 4570 1363 4829 
Q 1613 5088 1786 5325 
z
" transform="scale(0.015625)"/>
       </defs>
       <use xlink:href="#NotoSansSC-Thin-94f6"/>
       <use xlink:href="#NotoSansSC-Thin-884c" transform="translate(99.999985 0)"/>
      </g>
     </g>
    </g>
   </g>
   <g id="line2d_23">
    <path d="M 296.33325 185.082812 
L 296.33325 29.522812 
" clip-path="url(#p1b69fa074c)" style="fill: none; stroke: #1e293b; stroke-width: 0.8; stroke-linecap: square"/>
   </g>
   <g id="patch_9">
    <path d="M 53.763438 185.082812 
L 53.763438 29.522812 
" style="fill: none; stroke: #e2e8f0; stroke-width: 0.8; stroke-linejoin: miter; stroke-linecap: square"/>
   </g>
   <g id="patch_10">
    <path d="M 53.763437 185.082812 
L 339.139687 185.082812 
" style="fill: none; stroke: #e2e8f0; stroke-width: 0.8; stroke-linejoin: miter; stroke-linecap: square"/>
   </g>
   <g id="text_16">
    <!-- -287.3亿 -->
    <g style="fill: #ffffff" transform="translate(56.472687 174.063726) scale(0.09 -0.09)">
     <defs>
      <path id="NotoSansSC-Thin-38" d="M 1696 -83 
Q 1286 -83 966 80 
Q 646 243 464 521 
Q 282 800 282 1152 
Q 282 1478 422 1744 
Q 563 2010 774 2202 
Q 986 2394 1197 2509 
L 1197 2534 
Q 954 2694 752 2953 
Q 550 3213 550 3578 
Q 550 3910 704 4163 
Q 858 4416 1117 4560 
Q 1376 4704 1696 4704 
Q 2080 4704 2345 4544 
Q 2611 4384 2752 4112 
Q 2893 3840 2893 3494 
Q 2893 3238 2784 3008 
Q 2675 2778 2528 2602 
Q 2381 2426 2253 2317 
L 2253 2285 
Q 2445 2170 2627 2010 
Q 2810 1850 2925 1626 
Q 3040 1402 3040 1082 
Q 3040 762 2870 496 
Q 2701 230 2400 73 
Q 2099 -83 1696 -83 
z
M 2035 2387 
Q 2336 2630 2499 2905 
Q 2662 3181 2662 3494 
Q 2662 3763 2550 3990 
Q 2438 4218 2220 4358 
Q 2003 4499 1696 4499 
Q 1293 4499 1040 4236 
Q 787 3974 787 3578 
Q 787 3238 972 3017 
Q 1158 2797 1446 2653 
Q 1734 2509 2035 2387 
z
M 1696 128 
Q 2035 128 2281 256 
Q 2528 384 2662 601 
Q 2797 819 2797 1082 
Q 2797 1370 2675 1574 
Q 2554 1779 2352 1923 
Q 2150 2067 1894 2182 
Q 1638 2298 1370 2400 
Q 998 2189 758 1875 
Q 518 1562 518 1152 
Q 518 870 668 636 
Q 819 403 1088 265 
Q 1357 128 1696 128 
z
" transform="scale(0.015625)"/>
      <path id="NotoSansSC-Thin-37" d="M 1344 0 
Q 1376 717 1462 1318 
Q 1549 1920 1712 2445 
Q 1875 2970 2124 3459 
Q 2374 3949 2726 4435 
L 307 4435 
L 307 4646 
L 3034 4646 
L 3034 4512 
Q 2624 3955 2355 3436 
Q 2086 2918 1932 2384 
Q 1779 1850 1705 1267 
Q 1632 685 1606 0 
L 1344 0 
z
" transform="scale(0.015625)"/>
      <path id="NotoSansSC-Thin-2e" d="M 736 -83 
Q 640 -83 560 -9 
Q 480 64 480 192 
Q 480 333 560 406 
Q 640 480 736 480 
Q 838 480 918 406 
Q 998 333 998 192 
Q 998 64 918 -9 
Q 838 -83 736 -83 
z
" transform="scale(0.015625)"/>
     </defs>
     <use xlink:href="#NotoSansSC-Thin-2d"/>
     <use xlink:href="#NotoSansSC-Thin-32" transform="translate(32.399994 0)"/>
     <use xlink:href="#NotoSansSC-Thin-38" transform="translate(84.499985 0)"/>
     <use xlink:href="#NotoSansSC-Thin-37" transform="translate(136.599976 0)"/>
     <use xlink:href="#NotoSansSC-Thin-2e" transform="translate(188.699966 0)"/>
     <use xlink:href="#NotoSansSC-Thin-33" transform="translate(211.799957 0)"/>
     <use xlink:href="#NotoSansSC-Thin-4ebf" transform="translate(263.899948 0)"/>
    </g>
   </g>
   <g id="text_17">
    <!-- -96.8亿 -->
    <g style="fill: #ffffff" transform="translate(197.071563 148.351329) scale(0.09 -0.09)">
     <defs>
      <path id="NotoSansSC-Thin-39" d="M 1370 -83 
Q 1050 -83 819 32 
Q 589 147 410 339 
L 557 506 
Q 723 314 934 221 
Q 1146 128 1389 128 
Q 1651 128 1891 256 
Q 2131 384 2316 675 
Q 2502 966 2611 1443 
Q 2720 1920 2720 2618 
Q 2720 3168 2592 3600 
Q 2464 4032 2195 4278 
Q 1926 4525 1498 4525 
Q 1229 4525 1014 4355 
Q 800 4186 675 3901 
Q 550 3616 550 3264 
Q 550 2912 652 2627 
Q 755 2342 979 2172 
Q 1203 2003 1555 2003 
Q 1830 2003 2137 2182 
Q 2445 2362 2739 2765 
L 2746 2470 
Q 2586 2278 2397 2128 
Q 2208 1978 1993 1891 
Q 1779 1805 1536 1805 
Q 1152 1805 877 1974 
Q 602 2144 454 2470 
Q 307 2797 307 3264 
Q 307 3686 473 4019 
Q 640 4352 912 4541 
Q 1184 4730 1510 4730 
Q 1850 4730 2118 4589 
Q 2387 4448 2572 4176 
Q 2758 3904 2857 3513 
Q 2957 3123 2957 2618 
Q 2957 1862 2825 1344 
Q 2694 826 2470 512 
Q 2246 198 1961 57 
Q 1677 -83 1370 -83 
z
" transform="scale(0.015625)"/>
      <path id="NotoSansSC-Thin-36" d="M 1837 -83 
Q 1498 -83 1232 67 
Q 966 218 780 509 
Q 595 800 496 1216 
Q 397 1632 397 2170 
Q 397 2886 528 3379 
Q 659 3872 889 4169 
Q 1120 4467 1414 4598 
Q 1709 4730 2029 4730 
Q 2330 4730 2550 4614 
Q 2771 4499 2944 4307 
L 2790 4147 
Q 2643 4333 2444 4425 
Q 2246 4518 2022 4518 
Q 1651 4518 1334 4297 
Q 1018 4077 826 3561 
Q 634 3046 634 2170 
Q 634 1581 762 1120 
Q 890 659 1158 393 
Q 1427 128 1850 128 
Q 2125 128 2336 297 
Q 2547 467 2672 752 
Q 2797 1037 2797 1382 
Q 2797 1741 2694 2025 
Q 2592 2310 2368 2476 
Q 2144 2643 1779 2643 
Q 1523 2643 1209 2470 
Q 896 2298 602 1888 
L 602 2176 
Q 768 2381 957 2531 
Q 1146 2682 1360 2762 
Q 1574 2842 1792 2842 
Q 2189 2842 2467 2675 
Q 2746 2509 2893 2185 
Q 3040 1862 3040 1382 
Q 3040 960 2873 630 
Q 2707 301 2435 109 
Q 2163 -83 1837 -83 
z
" transform="scale(0.015625)"/>
     </defs>
     <use xlink:href="#NotoSansSC-Thin-2d"/>
     <use xlink:href="#NotoSansSC-Thin-39" transform="translate(32.399994 0)"/>
     <use xlink:href="#NotoSansSC-Thin-36" transform="translate(84.499985 0)"/>
     <use xlink:href="#NotoSansSC-Thin-2e" transform="translate(136.599976 0)"/>
     <use xlink:href="#NotoSansSC-Thin-38" transform="translate(159.699966 0)"/>
     <use xlink:href="#NotoSansSC-Thin-4ebf" transform="translate(211.799957 0)"/>
    </g>
   </g>
   <g id="text_18">
    <!-- -78.4亿 -->
    <g style="fill: #ffffff" transform="translate(210.198871 122.638933) scale(0.09 -0.09)">
     <defs>
      <path id="NotoSansSC-Thin-34" d="M 2195 0 
L 2195 3482 
Q 2195 3629 2204 3843 
Q 2214 4058 2227 4205 
L 2195 4205 
Q 2112 4058 2019 3901 
Q 1926 3744 1830 3590 
L 422 1568 
L 3110 1568 
L 3110 1363 
L 115 1363 
L 115 1485 
L 2259 4646 
L 2419 4646 
L 2419 0 
L 2195 0 
z
" transform="scale(0.015625)"/>
     </defs>
     <use xlink:href="#NotoSansSC-Thin-2d"/>
     <use xlink:href="#NotoSansSC-Thin-37" transform="translate(32.399994 0)"/>
     <use xlink:href="#NotoSansSC-Thin-38" transform="translate(84.499985 0)"/>
     <use xlink:href="#NotoSansSC-Thin-2e" transform="translate(136.599976 0)"/>
     <use xlink:href="#NotoSansSC-Thin-34" transform="translate(159.699966 0)"/>
     <use xlink:href="#NotoSansSC-Thin-4ebf" transform="translate(211.799957 0)"/>
    </g>
   </g>
   <g id="text_19">
    <!-- +4.2亿 -->
    <g style="fill: #10b981" transform="translate(301.470022 96.926536) scale(0.09 -0.09)">
     <defs>
      <path id="NotoSansSC-Thin-2b" d="M 1549 787 
L 1549 2221 
L 237 2221 
L 237 2426 
L 1549 2426 
L 1549 3866 
L 1786 3866 
L 1786 2426 
L 3098 2426 
L 3098 2221 
L 1786 2221 
L 1786 787 
L 1549 787 
z
" transform="scale(0.015625)"/>
     </defs>
     <use xlink:href="#NotoSansSC-Thin-2b"/>
     <use xlink:href="#NotoSansSC-Thin-34" transform="translate(52.099991 0)"/>
     <use xlink:href="#NotoSansSC-Thin-2e" transform="translate(104.199982 0)"/>
     <use xlink:href="#NotoSansSC-Thin-32" transform="translate(127.299973 0)"/>
     <use xlink:href="#NotoSansSC-Thin-4ebf" transform="translate(179.399963 0)"/>
    </g>
   </g>
   <g id="text_20">
    <!-- +8.7亿 -->
    <g style="fill: #10b981" transform="translate(304.680505 71.214139) scale(0.09 -0.09)">
     <use xlink:href="#NotoSansSC-Thin-2b"/>
     <use xlink:href="#NotoSansSC-Thin-38" transform="translate(52.099991 0)"/>
     <use xlink:href="#NotoSansSC-Thin-2e" transform="translate(104.199982 0)"/>
     <use xlink:href="#NotoSansSC-Thin-37" transform="translate(127.299973 0)"/>
     <use xlink:href="#NotoSansSC-Thin-4ebf" transform="translate(179.399963 0)"/>
    </g>
   </g>
   <g id="text_21">
    <!-- +23.5亿 -->
    <g style="fill: #10b981" transform="translate(315.239427 45.501743) scale(0.09 -0.09)">
     <use xlink:href="#NotoSansSC-Thin-2b"/>
     <use xlink:href="#NotoSansSC-Thin-32" transform="translate(52.099991 0)"/>
     <use xlink:href="#NotoSansSC-Thin-33" transform="translate(104.199982 0)"/>
     <use xlink:href="#NotoSansSC-Thin-2e" transform="translate(156.299973 0)"/>
     <use xlink:href="#NotoSansSC-Thin-35" transform="translate(179.399963 0)"/>
     <use xlink:href="#NotoSansSC-Thin-4ebf" transform="translate(231.499954 0)"/>
    </g>
   </g>
   <g id="text_22">
    <!-- A股板块资金流向 2026.05.21 -->
    <g style="fill: #1e293b" transform="translate(115.699219 17.522812) scale(0.13 -0.13)">
     <defs>
      <path id="NotoSansSC-Thin-41" d="M 70 0 
L 1728 4646 
L 1939 4646 
L 3603 0 
L 3347 0 
L 2381 2784 
Q 2234 3206 2106 3587 
Q 1978 3968 1850 4403 
L 1824 4403 
Q 1696 3968 1565 3587 
Q 1434 3206 1286 2784 
L 307 0 
L 70 0 
z
M 787 1651 
L 787 1856 
L 2861 1856 
L 2861 1651 
L 787 1651 
z
" transform="scale(0.015625)"/>
      <path id="NotoSansSC-Thin-80a1" d="M 954 5069 
L 2259 5069 
L 2259 4883 
L 954 4883 
L 954 5069 
z
M 954 3526 
L 2259 3526 
L 2259 3341 
L 954 3341 
L 954 3526 
z
M 934 1946 
L 2266 1946 
L 2266 1760 
L 934 1760 
L 934 1946 
z
M 832 5069 
L 1018 5069 
L 1018 2797 
Q 1018 2432 998 2013 
Q 979 1594 921 1158 
Q 864 723 745 310 
Q 627 -102 435 -454 
Q 422 -435 390 -416 
Q 358 -397 329 -381 
Q 301 -365 275 -352 
Q 467 -6 579 394 
Q 691 794 745 1210 
Q 800 1626 816 2032 
Q 832 2438 832 2797 
L 832 5069 
z
M 2214 5069 
L 2400 5069 
L 2400 -90 
Q 2400 -211 2355 -272 
Q 2310 -333 2221 -365 
Q 2131 -390 1942 -393 
Q 1754 -397 1427 -397 
Q 1421 -371 1405 -339 
Q 1389 -307 1376 -272 
Q 1363 -237 1344 -211 
Q 1619 -218 1824 -218 
Q 2029 -218 2093 -218 
Q 2214 -211 2214 -90 
L 2214 5069 
z
M 3430 5056 
L 5043 5056 
L 5043 4870 
L 3430 4870 
L 3430 5056 
z
M 2694 2438 
L 5523 2438 
L 5523 2253 
L 2694 2253 
L 2694 2438 
z
M 5453 2438 
L 5498 2438 
L 5536 2451 
L 5651 2394 
Q 5459 1824 5129 1363 
Q 4800 902 4384 547 
Q 3968 192 3504 -57 
Q 3040 -307 2579 -461 
Q 2560 -422 2525 -374 
Q 2490 -326 2458 -294 
Q 2912 -160 3366 80 
Q 3821 320 4230 659 
Q 4640 998 4957 1436 
Q 5274 1875 5453 2400 
L 5453 2438 
z
M 3181 2349 
Q 3418 1696 3834 1158 
Q 4250 621 4822 246 
Q 5395 -128 6099 -307 
Q 6080 -326 6054 -355 
Q 6029 -384 6006 -413 
Q 5984 -442 5965 -474 
Q 4909 -179 4147 544 
Q 3386 1267 3021 2291 
L 3181 2349 
z
M 3386 5056 
L 3578 5056 
L 3578 4339 
Q 3578 4077 3507 3782 
Q 3437 3488 3248 3203 
Q 3059 2918 2701 2682 
Q 2688 2701 2665 2726 
Q 2643 2752 2617 2781 
Q 2592 2810 2573 2822 
Q 2912 3046 3088 3305 
Q 3264 3565 3325 3833 
Q 3386 4102 3386 4339 
L 3386 5056 
z
M 4947 5056 
L 5139 5056 
L 5139 3488 
Q 5139 3354 5158 3309 
Q 5178 3264 5242 3264 
Q 5286 3264 5395 3264 
Q 5504 3264 5613 3264 
Q 5722 3264 5760 3264 
Q 5811 3264 5878 3270 
Q 5946 3277 6003 3283 
Q 6010 3245 6016 3184 
Q 6022 3123 6029 3091 
Q 5984 3085 5910 3078 
Q 5837 3072 5760 3072 
Q 5722 3072 5610 3072 
Q 5498 3072 5389 3072 
Q 5280 3072 5248 3072 
Q 5126 3072 5062 3107 
Q 4998 3142 4972 3235 
Q 4947 3328 4947 3494 
L 4947 5056 
z
" transform="scale(0.015625)"/>
      <path id="NotoSansSC-Thin-677f" d="M 442 4038 
L 2477 4038 
L 2477 3853 
L 442 3853 
L 442 4038 
z
M 1446 5318 
L 1632 5318 
L 1632 -435 
L 1446 -435 
L 1446 5318 
z
M 1434 3987 
L 1600 3942 
Q 1517 3558 1389 3145 
Q 1261 2733 1104 2333 
Q 947 1933 774 1590 
Q 602 1248 429 1011 
Q 416 1037 390 1065 
Q 365 1094 336 1120 
Q 307 1146 282 1158 
Q 454 1382 624 1708 
Q 794 2035 950 2419 
Q 1107 2803 1232 3206 
Q 1357 3610 1434 3987 
z
M 1594 3610 
Q 1645 3546 1757 3382 
Q 1869 3219 1993 3024 
Q 2118 2829 2227 2665 
Q 2336 2502 2381 2426 
L 2240 2259 
Q 2189 2355 2086 2534 
Q 1984 2714 1865 2912 
Q 1747 3110 1641 3273 
Q 1536 3437 1478 3514 
L 1594 3610 
z
M 2784 4602 
L 2976 4602 
L 2976 3002 
Q 2976 2618 2947 2176 
Q 2918 1734 2835 1273 
Q 2752 813 2592 371 
Q 2432 -70 2163 -448 
Q 2144 -429 2115 -409 
Q 2086 -390 2060 -371 
Q 2035 -352 2010 -346 
Q 2272 32 2429 457 
Q 2586 883 2662 1331 
Q 2739 1779 2761 2208 
Q 2784 2637 2784 3008 
L 2784 4602 
z
M 2893 3302 
L 5574 3302 
L 5574 3110 
L 2893 3110 
L 2893 3302 
z
M 5517 3302 
L 5555 3302 
L 5587 3315 
L 5709 3264 
Q 5498 2266 5069 1533 
Q 4640 800 4070 313 
Q 3501 -173 2867 -448 
Q 2854 -422 2832 -396 
Q 2810 -371 2787 -342 
Q 2765 -314 2739 -294 
Q 3354 -38 3914 432 
Q 4474 902 4896 1606 
Q 5318 2310 5517 3251 
L 5517 3302 
z
M 3501 3226 
Q 3706 2419 4064 1712 
Q 4422 1005 4934 486 
Q 5446 -32 6106 -288 
Q 6080 -307 6054 -336 
Q 6029 -365 6003 -393 
Q 5978 -422 5958 -448 
Q 5299 -166 4787 368 
Q 4275 902 3916 1622 
Q 3558 2342 3347 3181 
L 3501 3226 
z
M 5670 5114 
L 5798 4960 
Q 5555 4851 5203 4768 
Q 4851 4685 4448 4621 
Q 4045 4557 3632 4512 
Q 3219 4467 2842 4435 
Q 2835 4474 2819 4522 
Q 2803 4570 2784 4602 
Q 3149 4634 3558 4678 
Q 3968 4723 4368 4787 
Q 4768 4851 5107 4931 
Q 5446 5011 5670 5114 
z
" transform="scale(0.015625)"/>
      <path id="NotoSansSC-Thin-5757" d="M 2573 4166 
L 5581 4166 
L 5581 2163 
L 5395 2163 
L 5395 3974 
L 2573 3974 
L 2573 4166 
z
M 2349 2298 
L 6080 2298 
L 6080 2106 
L 2349 2106 
L 2349 2298 
z
M 4256 2227 
Q 4474 1318 4957 662 
Q 5440 6 6182 -294 
Q 6163 -314 6137 -346 
Q 6112 -378 6089 -406 
Q 6067 -435 6048 -461 
Q 5542 -237 5155 140 
Q 4768 518 4496 1033 
Q 4224 1549 4070 2182 
L 4256 2227 
z
M 3955 5248 
L 4141 5248 
L 4141 3155 
Q 4141 2643 4077 2150 
Q 4013 1658 3811 1194 
Q 3610 730 3200 314 
Q 2790 -102 2106 -454 
Q 2099 -435 2076 -409 
Q 2054 -384 2028 -358 
Q 2003 -333 1978 -314 
Q 2650 26 3043 429 
Q 3437 832 3635 1277 
Q 3834 1722 3894 2195 
Q 3955 2669 3955 3155 
L 3955 5248 
z
M 384 3718 
L 2221 3718 
L 2221 3533 
L 384 3533 
L 384 3718 
z
M 1242 5254 
L 1434 5254 
L 1434 1190 
L 1242 1190 
L 1242 5254 
z
M 288 870 
Q 538 966 861 1100 
Q 1184 1235 1545 1388 
Q 1907 1542 2272 1696 
L 2310 1517 
Q 1792 1293 1280 1072 
Q 768 851 365 685 
L 288 870 
z
" transform="scale(0.015625)"/>
     </defs>
     <use xlink:href="#NotoSansSC-Thin-41"/>
     <use xlink:href="#NotoSansSC-Thin-80a1" transform="translate(57.399994 0)"/>
     <use xlink:href="#NotoSansSC-Thin-677f" transform="translate(157.399979 0)"/>
     <use xlink:href="#NotoSansSC-Thin-5757" transform="translate(257.399963 0)"/>
     <use xlink:href="#NotoSansSC-Thin-8d44" transform="translate(357.399948 0)"/>
     <use xlink:href="#NotoSansSC-Thin-91d1" transform="translate(457.399933 0)"/>
     <use xlink:href="#NotoSansSC-Thin-6d41" transform="translate(557.399918 0)"/>
     <use xlink:href="#NotoSansSC-Thin-5411" transform="translate(657.399902 0)"/>
     <use xlink:href="#NotoSansSC-Thin-20" transform="translate(757.399887 0)"/>
     <use xlink:href="#NotoSansSC-Thin-32" transform="translate(779.399872 0)"/>
     <use xlink:href="#NotoSansSC-Thin-30" transform="translate(831.499863 0)"/>
     <use xlink:href="#NotoSansSC-Thin-32" transform="translate(883.599854 0)"/>
     <use xlink:href="#NotoSansSC-Thin-36" transform="translate(935.699844 0)"/>
     <use xlink:href="#NotoSansSC-Thin-2e" transform="translate(987.799835 0)"/>
     <use xlink:href="#NotoSansSC-Thin-30" transform="translate(1010.899826 0)"/>
     <use xlink:href="#NotoSansSC-Thin-35" transform="translate(1062.999817 0)"/>
     <use xlink:href="#NotoSansSC-Thin-2e" transform="translate(1115.099808 0)"/>
     <use xlink:href="#NotoSansSC-Thin-32" transform="translate(1138.199799 0)"/>
     <use xlink:href="#NotoSansSC-Thin-31" transform="translate(1190.299789 0)"/>
    </g>
   </g>
  </g>
 </g>
 <defs>
  <clipPath id="p1b69fa074c">
   <rect x="53.763438" y="29.522812" width="285.37625" height="155.56"/>
  </clipPath>
 </defs>
</svg>
