<?xml version="1.0" encoding="utf-8" standalone="no"?>
<!DOCTYPE svg PUBLIC "-//W3C//DTD SVG 1.1//EN"
  "http://www.w3.org/Graphics/SVG/1.1/DTD/svg11.dtd">
<svg xmlns:xlink="http://www.w3.org/1999/xlink" width="384.92pt" height="291.635562pt" viewBox="0 0 384.92 291.635562" xmlns="http://www.w3.org/2000/svg" version="1.1">
 <metadata>
  <rdf:RDF xmlns:dc="http://purl.org/dc/elements/1.1/" xmlns:cc="http://creativecommons.org/ns#" xmlns:rdf="http://www.w3.org/1999/02/22-rdf-syntax-ns#">
   <cc:Work>
    <dc:type rdf:resource="http://purl.org/dc/dcmitype/StillImage"/>
    <dc:date>2026-06-23T21:30:41.767951</dc:date>
    <dc:format>image/svg+xml</dc:format>
    <dc:creator>
     <cc:Agent>
      <dc:title>Matplotlib v3.11.0, https://matplotlib.org/</dc:title>
     </cc:Agent>
    </dc:creator>
   </cc:Work>
  </rdf:RDF>
 </metadata>
 <defs>
  <style type="text/css">*{stroke-linejoin: round; stroke-linecap: butt}</style>
 </defs>
 <g id="figure_1">
  <g id="patch_1">
   <path d="M 0 291.635562 
L 384.92 291.635562 
L 384.92 0 
L 0 0 
z
" style="fill: #ffffff"/>
  </g>
  <g id="axes_1">
   <g id="patch_2">
    <path d="M 59.3 254.624 
L 374.12 254.624 
L 374.12 79.52 
L 59.3 79.52 
z
" style="fill: #ffffff"/>
   </g>
   <g id="matplotlib.axis_1">
    <g id="xtick_1">
     <g id="line2d_1">
      <path d="M 59.3 254.624 
L 59.3 79.52 
" clip-path="url(#p3aa7386edd)" style="fill: none; stroke: #e2e8f0; stroke-opacity: 0.4; stroke-width: 0.5; stroke-linecap: square"/>
     </g>
     <g id="line2d_2"/>
     <g id="text_1">
      <!-- 0 -->
      <g style="fill: #94a3b8" transform="translate(56.735 266.044) scale(0.09 -0.09)">
       <defs>
        <path id="NotoSansSC-Medium-11" d="M 1824 -83 
C 2746 -83 3347 736 3347 2374 
C 3347 4000 2746 4800 1824 4800 
C 902 4800 301 4006 301 2374 
C 301 736 902 -83 1824 -83 
z
M 1824 499 
C 1344 499 1005 1011 1005 2374 
C 1005 3725 1344 4218 1824 4218 
C 2304 4218 2643 3725 2643 2374 
C 2643 1011 2304 499 1824 499 
z
" transform="scale(0.015625)"/>
       </defs>
       <use xlink:href="#NotoSansSC-Medium-11"/>
      </g>
     </g>
    </g>
    <g id="xtick_2">
     <g id="line2d_3">
      <path d="M 124.8875 254.624 
L 124.8875 79.52 
" clip-path="url(#p3aa7386edd)" style="fill: none; stroke: #e2e8f0; stroke-opacity: 0.4; stroke-width: 0.5; stroke-linecap: square"/>
     </g>
     <g id="line2d_4"/>
     <g id="text_2">
      <!-- 5 -->
      <g style="fill: #94a3b8" transform="translate(122.3225 266.044) scale(0.09 -0.09)">
       <defs>
        <path id="NotoSansSC-Medium-16" d="M 1715 -83 
C 2541 -83 3302 506 3302 1549 
C 3302 2579 2656 3046 1869 3046 
C 1613 3046 1427 2982 1222 2880 
L 1331 4090 
L 3078 4090 
L 3078 4717 
L 691 4717 
L 550 2477 
L 909 2240 
C 1184 2419 1363 2509 1664 2509 
C 2202 2509 2560 2150 2560 1523 
C 2560 896 2157 518 1626 518 
C 1133 518 794 755 525 1024 
L 173 544 
C 506 218 973 -83 1715 -83 
z
" transform="scale(0.015625)"/>
       </defs>
       <use xlink:href="#NotoSansSC-Medium-16"/>
      </g>
     </g>
    </g>
    <g id="xtick_3">
     <g id="line2d_5">
      <path d="M 190.475 254.624 
L 190.475 79.52 
" clip-path="url(#p3aa7386edd)" style="fill: none; stroke: #e2e8f0; stroke-opacity: 0.4; stroke-width: 0.5; stroke-linecap: square"/>
     </g>
     <g id="line2d_6"/>
     <g id="text_3">
      <!-- 10 -->
      <g style="fill: #94a3b8" transform="translate(185.345 266.044) scale(0.09 -0.09)">
       <defs>
        <path id="NotoSansSC-Medium-12" d="M 550 0 
L 3238 0 
L 3238 608 
L 2317 608 
L 2317 4717 
L 1760 4717 
C 1491 4544 1178 4435 736 4352 
L 736 3885 
L 1581 3885 
L 1581 608 
L 550 608 
L 550 0 
z
" transform="scale(0.015625)"/>
       </defs>
       <use xlink:href="#NotoSansSC-Medium-12"/>
       <use xlink:href="#NotoSansSC-Medium-11" transform="translate(57 0)"/>
      </g>
     </g>
    </g>
    <g id="xtick_4">
     <g id="line2d_7">
      <path d="M 256.0625 254.624 
L 256.0625 79.52 
" clip-path="url(#p3aa7386edd)" style="fill: none; stroke: #e2e8f0; stroke-opacity: 0.4; stroke-width: 0.5; stroke-linecap: square"/>
     </g>
     <g id="line2d_8"/>
     <g id="text_4">
      <!-- 15 -->
      <g style="fill: #94a3b8" transform="translate(250.9325 266.044) scale(0.09 -0.09)">
       <use xlink:href="#NotoSansSC-Medium-12"/>
       <use xlink:href="#NotoSansSC-Medium-16" transform="translate(57 0)"/>
      </g>
     </g>
    </g>
    <g id="xtick_5">
     <g id="line2d_9">
      <path d="M 321.65 254.624 
L 321.65 79.52 
" clip-path="url(#p3aa7386edd)" style="fill: none; stroke: #e2e8f0; stroke-opacity: 0.4; stroke-width: 0.5; stroke-linecap: square"/>
     </g>
     <g id="line2d_10"/>
     <g id="text_5">
      <!-- 20 -->
      <g style="fill: #94a3b8" transform="translate(316.52 266.044) scale(0.09 -0.09)">
       <defs>
        <path id="NotoSansSC-Medium-13" d="M 282 0 
L 3322 0 
L 3322 627 
L 2144 627 
C 1914 627 1619 608 1376 582 
C 2374 1536 3098 2477 3098 3386 
C 3098 4237 2541 4800 1677 4800 
C 1062 4800 646 4538 243 4096 
L 659 3686 
C 909 3974 1216 4211 1587 4211 
C 2118 4211 2387 3859 2387 3347 
C 2387 2573 1670 1658 282 429 
L 282 0 
z
" transform="scale(0.015625)"/>
       </defs>
       <use xlink:href="#NotoSansSC-Medium-13"/>
       <use xlink:href="#NotoSansSC-Medium-11" transform="translate(57 0)"/>
      </g>
     </g>
    </g>
    <g id="text_6">
     <!-- 涨跌幅 (%) -->
     <g style="fill: #64748b" transform="translate(194.776719 279.044) scale(0.09 -0.09)">
      <defs>
       <path id="NotoSansSC-Medium-417c" d="M 5478 5184 
C 5210 4512 4742 3866 4256 3450 
C 4371 3354 4576 3149 4653 3053 
C 5165 3533 5670 4275 5990 5037 
L 5478 5184 
z
M 1658 4429 
C 1485 4659 1114 5005 813 5235 
L 422 4928 
C 723 4672 1088 4307 1248 4070 
L 1658 4429 
z
M 864 -410 
C 1050 192 1261 966 1414 1645 
L 947 1907 
C 781 1171 538 346 346 -160 
L 864 -410 
z
M 218 3232 
C 518 2989 890 2630 1056 2400 
L 1453 2771 
C 1267 3002 890 3334 589 3565 
L 218 3232 
z
M 2125 2221 
C 2150 2522 2176 2867 2195 3200 
L 3155 3200 
L 3155 5171 
L 1664 5171 
L 1664 4634 
L 2662 4634 
L 2662 3744 
L 1728 3744 
C 1702 3091 1645 2246 1581 1728 
L 2624 1728 
C 2560 646 2490 230 2400 122 
C 2349 58 2298 45 2202 45 
C 2112 51 1888 51 1645 70 
C 1728 -77 1779 -301 1792 -461 
C 2061 -474 2323 -474 2464 -448 
C 2630 -429 2739 -384 2842 -256 
C 3014 -64 3078 525 3155 1997 
C 3162 2067 3168 2221 3168 2221 
L 2125 2221 
z
M 6144 2413 
L 6144 2957 
L 4205 2957 
L 4205 5293 
L 3661 5293 
L 3661 2957 
L 3194 2957 
L 3194 2413 
L 3661 2413 
L 3661 422 
C 3661 160 3501 38 3379 -26 
C 3469 -141 3578 -378 3610 -518 
C 3718 -422 3904 -339 5024 109 
C 4998 230 4979 454 4979 614 
L 4205 339 
L 4205 2413 
L 4563 2413 
C 4781 1229 5184 192 5818 -410 
C 5907 -275 6074 -83 6202 13 
C 5638 486 5267 1402 5056 2413 
L 6144 2413 
z
" transform="scale(0.015625)"/>
       <path id="NotoSansSC-Medium-617d" d="M 1050 4595 
L 1965 4595 
L 1965 3610 
L 1050 3610 
L 1050 4595 
z
M 2547 954 
L 1907 781 
L 1907 1786 
L 2528 1786 
L 2528 2304 
L 1907 2304 
L 1907 3104 
L 2509 3104 
L 2509 5107 
L 544 5107 
L 544 3104 
L 1389 3104 
L 1389 646 
L 1018 550 
L 1018 2560 
L 531 2560 
L 531 422 
C 422 397 320 378 224 358 
L 365 -205 
C 998 -26 1830 211 2624 442 
L 2547 954 
z
M 6054 1997 
L 6054 2560 
L 4640 2560 
C 4659 2784 4666 3002 4666 3213 
L 4666 3712 
L 5933 3712 
L 5933 4256 
L 4666 4256 
L 4666 5318 
L 4083 5318 
L 4083 4256 
L 3558 4256 
C 3616 4506 3654 4762 3686 5018 
L 3136 5107 
C 3046 4365 2880 3610 2592 3136 
C 2720 3066 2970 2925 3072 2835 
C 3213 3078 3322 3379 3424 3712 
L 4083 3712 
L 4083 3219 
C 4083 3008 4083 2784 4064 2560 
L 2662 2560 
L 2662 1997 
L 3987 1997 
C 3834 1229 3430 467 2387 -77 
C 2534 -186 2720 -397 2803 -525 
C 3667 -32 4134 614 4384 1293 
C 4691 512 5139 -115 5792 -480 
C 5882 -320 6074 -96 6202 13 
C 5453 365 4960 1107 4691 1997 
L 6054 1997 
z
" transform="scale(0.015625)"/>
       <path id="NotoSansSC-Medium-3225" d="M 2586 4179 
L 1741 4179 
L 1741 5363 
L 1235 5363 
L 1235 4179 
L 410 4179 
L 410 806 
L 858 806 
L 858 3654 
L 1235 3654 
L 1235 -506 
L 1741 -506 
L 1741 3654 
L 2150 3654 
L 2150 1440 
C 2150 1382 2138 1370 2093 1370 
L 1805 1370 
C 1882 1235 1946 1011 1952 870 
C 2176 870 2323 883 2438 979 
C 2560 1062 2586 1229 2586 1427 
L 2586 4179 
z
M 4109 1760 
L 4109 1203 
L 3334 1203 
L 3334 1760 
L 4109 1760 
z
M 5459 1203 
L 4614 1203 
L 4614 1760 
L 5459 1760 
L 5459 1203 
z
M 4614 173 
L 4614 736 
L 5459 736 
L 5459 173 
L 4614 173 
z
M 3334 173 
L 3334 736 
L 4109 736 
L 4109 173 
L 3334 173 
z
M 2803 -499 
L 3334 -499 
L 3334 -294 
L 5459 -294 
L 5459 -486 
L 6010 -486 
L 6010 2234 
L 2803 2234 
L 2803 -499 
z
M 5235 3104 
L 3597 3104 
L 3597 3725 
L 5235 3725 
L 5235 3104 
z
M 3085 4179 
L 3085 2656 
L 5766 2656 
L 5766 4179 
L 3085 4179 
z
M 2784 5062 
L 2784 4576 
L 6067 4576 
L 6067 5062 
L 2784 5062 
z
" transform="scale(0.015625)"/>
       <path id="NotoSansSC-Medium-1" transform="scale(0.015625)"/>
       <path id="NotoSansSC-Medium-9" d="M 1517 -1274 
L 1978 -1069 
C 1427 -154 1171 928 1171 2003 
C 1171 3072 1427 4154 1978 5075 
L 1517 5274 
C 922 4307 570 3264 570 2003 
C 570 730 922 -301 1517 -1274 
z
" transform="scale(0.015625)"/>
       <path id="NotoSansSC-Medium-6" d="M 1331 1818 
C 1990 1818 2438 2368 2438 3315 
C 2438 4262 1990 4800 1331 4800 
C 672 4800 230 4262 230 3315 
C 230 2368 672 1818 1331 1818 
z
M 1331 2253 
C 1005 2253 768 2592 768 3315 
C 768 4045 1005 4365 1331 4365 
C 1664 4365 1901 4045 1901 3315 
C 1901 2592 1664 2253 1331 2253 
z
M 1478 -83 
L 1946 -83 
L 4525 4800 
L 4058 4800 
L 1478 -83 
z
M 4678 -83 
C 5331 -83 5779 461 5779 1408 
C 5779 2355 5331 2893 4678 2893 
C 4019 2893 3571 2355 3571 1408 
C 3571 461 4019 -83 4678 -83 
z
M 4678 346 
C 4346 346 4115 685 4115 1408 
C 4115 2138 4346 2458 4678 2458 
C 5005 2458 5242 2138 5242 1408 
C 5242 685 5005 346 4678 346 
z
" transform="scale(0.015625)"/>
       <path id="NotoSansSC-Medium-a" d="M 755 -1274 
C 1357 -301 1709 730 1709 2003 
C 1709 3264 1357 4307 755 5274 
L 294 5075 
C 845 4154 1101 3072 1101 2003 
C 1101 928 845 -154 294 -1069 
L 755 -1274 
z
" transform="scale(0.015625)"/>
      </defs>
      <use xlink:href="#NotoSansSC-Medium-417c"/>
      <use xlink:href="#NotoSansSC-Medium-617d" transform="translate(100 0)"/>
      <use xlink:href="#NotoSansSC-Medium-3225" transform="translate(200 0)"/>
      <use xlink:href="#NotoSansSC-Medium-1" transform="translate(300 0)"/>
      <use xlink:href="#NotoSansSC-Medium-9" transform="translate(322.5 0)"/>
      <use xlink:href="#NotoSansSC-Medium-6" transform="translate(358 0)"/>
      <use xlink:href="#NotoSansSC-Medium-a" transform="translate(451.90625 0)"/>
     </g>
    </g>
   </g>
   <g id="matplotlib.axis_2">
    <g id="ytick_1">
     <g id="line2d_11">
      <path d="M 59.3 240.092851 
L 374.12 240.092851 
" clip-path="url(#p3aa7386edd)" style="fill: none; stroke: #e2e8f0; stroke-opacity: 0.6; stroke-width: 0.5; stroke-linecap: square"/>
     </g>
     <g id="line2d_12"/>
     <g id="text_7">
      <!-- 美光科技 -->
      <g style="fill: #94a3b8" transform="translate(19.8 244.052851) scale(0.09 -0.09)">
       <defs>
        <path id="NotoSansSC-Medium-5350" d="M 5971 1126 
L 5971 1658 
L 3366 1658 
C 3392 1792 3418 1933 3430 2080 
L 6074 2080 
L 6074 2605 
L 3494 2605 
L 3494 3059 
L 5498 3059 
L 5498 3565 
L 3494 3565 
L 3494 4000 
L 5760 4000 
L 5760 4525 
L 4499 4525 
C 4653 4730 4826 4986 4973 5222 
L 4339 5395 
C 4230 5139 4013 4781 3840 4525 
L 2278 4525 
L 2490 4621 
C 2400 4845 2182 5165 1965 5395 
L 1446 5190 
C 1600 4998 1773 4736 1875 4525 
L 640 4525 
L 640 4000 
L 2880 4000 
L 2880 3565 
L 947 3565 
L 947 3059 
L 2880 3059 
L 2880 2605 
L 378 2605 
L 378 2080 
L 2810 2080 
C 2790 1926 2765 1792 2739 1658 
L 550 1658 
L 550 1126 
L 2547 1126 
C 2253 582 1645 237 262 38 
C 378 -90 518 -333 563 -493 
C 2176 -230 2861 269 3187 1037 
C 3693 160 4518 -307 5798 -499 
C 5862 -326 6029 -77 6157 51 
C 5024 173 4237 512 3776 1126 
L 5971 1126 
z
" transform="scale(0.015625)"/>
        <path id="NotoSansSC-Medium-2544" d="M 4998 5139 
C 4826 4627 4499 3955 4230 3526 
L 4742 3328 
C 5011 3725 5350 4358 5619 4915 
L 4998 5139 
z
M 2150 3526 
C 2042 3955 1715 4595 1402 5075 
L 864 4877 
C 1165 4378 1472 3712 1574 3302 
L 2150 3526 
z
M 4563 70 
C 4333 70 4294 115 4294 326 
L 4294 2426 
L 6048 2426 
L 6048 2995 
L 3482 2995 
L 3482 5370 
L 2880 5370 
L 2880 2995 
L 365 2995 
L 365 2426 
L 2003 2426 
C 1901 1293 1690 454 218 6 
C 352 -109 525 -352 589 -506 
C 2214 32 2515 1062 2637 2426 
L 3693 2426 
L 3693 326 
C 3693 -301 3859 -486 4486 -486 
L 5338 -486 
C 5914 -486 6067 -205 6138 858 
C 5971 902 5715 1011 5587 1114 
C 5555 218 5523 70 5286 70 
L 4563 70 
z
" transform="scale(0.015625)"/>
        <path id="NotoSansSC-Medium-4d95" d="M 4563 4064 
C 4352 4333 3910 4704 3546 4954 
L 3155 4614 
C 3520 4346 3955 3955 4147 3686 
L 4563 4064 
z
M 4390 2394 
C 4166 2662 3680 3046 3296 3302 
L 2918 2957 
C 3309 2688 3776 2278 3987 2003 
L 4390 2394 
z
M 2739 1920 
C 2618 2086 2074 2739 1882 2938 
L 1882 3027 
L 2778 3027 
L 2778 3584 
L 1882 3584 
L 1882 4563 
C 2182 4634 2464 4710 2707 4806 
L 2368 5293 
C 1869 5075 1050 4890 333 4774 
C 397 4653 480 4442 499 4314 
C 755 4352 1030 4390 1306 4442 
L 1306 3584 
L 282 3584 
L 282 3027 
L 1222 3027 
C 986 2349 576 1587 198 1152 
C 288 1005 429 762 486 602 
C 781 966 1069 1510 1306 2093 
L 1306 -499 
L 1882 -499 
L 1882 2298 
C 2074 2003 2291 1645 2381 1453 
L 2739 1920 
z
M 6170 1274 
L 6080 1830 
L 5382 1715 
L 5382 5370 
L 4794 5370 
L 4794 1619 
L 2688 1267 
L 2778 698 
L 4794 1037 
L 4794 -499 
L 5382 -499 
L 5382 1139 
L 6170 1274 
z
" transform="scale(0.015625)"/>
        <path id="NotoSansSC-Medium-365f" d="M 2342 2611 
L 1690 2438 
L 1690 3565 
L 2362 3565 
L 2362 4115 
L 1690 4115 
L 1690 5363 
L 1107 5363 
L 1107 4115 
L 320 4115 
L 320 3565 
L 1107 3565 
L 1107 2278 
C 787 2202 493 2131 250 2074 
L 403 1504 
C 627 1562 858 1626 1107 1696 
L 1107 179 
C 1107 90 1069 58 979 58 
C 902 51 634 51 352 58 
C 429 -90 506 -339 531 -480 
C 966 -486 1254 -467 1440 -378 
C 1626 -288 1690 -128 1690 179 
L 1690 1862 
C 1933 1933 2176 2003 2419 2074 
L 2342 2611 
z
M 5114 2445 
C 4902 1933 4576 1491 4179 1126 
C 3814 1504 3526 1939 3322 2445 
L 5114 2445 
z
M 5485 3008 
L 5382 2989 
L 4474 2989 
L 4474 3866 
L 5952 3866 
L 5952 4410 
L 4474 4410 
L 4474 5370 
L 3885 5370 
L 3885 4410 
L 2451 4410 
L 2451 3866 
L 3885 3866 
L 3885 2989 
L 2566 2989 
L 2566 2445 
L 2822 2445 
L 2739 2419 
C 2982 1779 3315 1229 3731 768 
C 3245 429 2682 186 2086 38 
C 2195 -90 2342 -346 2406 -499 
C 3046 -314 3642 -32 4160 352 
C 4621 -32 5171 -326 5811 -512 
C 5894 -358 6061 -122 6195 -6 
C 5587 154 5062 403 4621 736 
C 5184 1274 5613 1971 5869 2854 
L 5485 3008 
z
" transform="scale(0.015625)"/>
       </defs>
       <use xlink:href="#NotoSansSC-Medium-5350"/>
       <use xlink:href="#NotoSansSC-Medium-2544" transform="translate(100 0)"/>
       <use xlink:href="#NotoSansSC-Medium-4d95" transform="translate(200 0)"/>
       <use xlink:href="#NotoSansSC-Medium-365f" transform="translate(300 0)"/>
      </g>
     </g>
    </g>
    <g id="ytick_2">
     <g id="line2d_13">
      <path d="M 59.3 210.88451 
L 374.12 210.88451 
" clip-path="url(#p3aa7386edd)" style="fill: none; stroke: #e2e8f0; stroke-opacity: 0.6; stroke-width: 0.5; stroke-linecap: square"/>
     </g>
     <g id="line2d_14"/>
     <g id="text_8">
      <!-- SK海力士 -->
      <g style="fill: #94a3b8" transform="translate(17.361562 214.84451) scale(0.09 -0.09)">
       <defs>
        <path id="NotoSansSC-Medium-34" d="M 1965 -83 
C 2995 -83 3622 531 3622 1286 
C 3622 1978 3219 2323 2662 2560 
L 2016 2835 
C 1632 2989 1254 3142 1254 3552 
C 1254 3923 1568 4154 2048 4154 
C 2464 4154 2790 3994 3085 3731 
L 3475 4205 
C 3117 4570 2598 4800 2048 4800 
C 1152 4800 499 4243 499 3501 
C 499 2816 1005 2458 1459 2266 
L 2112 1984 
C 2547 1792 2867 1658 2867 1229 
C 2867 832 2547 563 1978 563 
C 1523 563 1062 781 723 1120 
L 288 608 
C 717 173 1318 -83 1965 -83 
z
" transform="scale(0.015625)"/>
        <path id="NotoSansSC-Medium-2c" d="M 621 0 
L 1363 0 
L 1363 1421 
L 2086 2310 
L 3418 0 
L 4243 0 
L 2541 2893 
L 4000 4717 
L 3174 4717 
L 1382 2483 
L 1363 2483 
L 1363 4717 
L 621 4717 
L 621 0 
z
" transform="scale(0.015625)"/>
        <path id="NotoSansSC-Medium-414b" d="M 5997 4154 
L 5997 4685 
L 3168 4685 
C 3245 4864 3315 5050 3379 5229 
L 2803 5376 
C 2579 4646 2189 3910 1760 3450 
C 1894 3373 2157 3213 2272 3117 
C 2502 3392 2726 3757 2925 4154 
L 5997 4154 
z
M 2080 4634 
C 1830 4838 1338 5114 960 5280 
L 627 4870 
C 1005 4685 1491 4390 1728 4179 
L 2080 4634 
z
M 1658 2822 
C 1434 3021 966 3283 614 3450 
L 288 3046 
C 640 2867 1101 2573 1318 2368 
L 1658 2822 
z
M 979 -397 
C 1254 205 1562 979 1805 1651 
L 1338 1978 
C 1082 1248 717 422 467 -83 
L 979 -397 
z
M 4237 947 
L 4486 1120 
C 4346 1318 4058 1594 3802 1792 
L 5094 1792 
C 5075 1453 5050 1171 5024 947 
L 4237 947 
z
M 3699 1792 
L 3424 1619 
C 3654 1427 3930 1152 4083 947 
L 2854 947 
C 2899 1203 2938 1491 2982 1792 
L 3699 1792 
z
M 3827 3104 
L 3584 2944 
C 3795 2771 4045 2528 4192 2336 
L 3053 2336 
C 3085 2592 3123 2854 3142 3104 
L 3827 3104 
z
M 5165 3104 
C 5152 2829 5139 2566 5126 2336 
L 4352 2336 
L 4576 2496 
C 4454 2669 4198 2918 3968 3104 
L 5165 3104 
z
M 6163 1792 
L 6163 2336 
L 5677 2336 
C 5690 2637 5709 2976 5722 3354 
C 5728 3430 5734 3616 5734 3616 
L 2643 3616 
C 2605 3232 2560 2784 2502 2336 
L 1850 2336 
L 1850 1792 
L 2426 1792 
C 2355 1286 2272 806 2202 435 
L 4941 435 
C 4909 275 4864 173 4819 122 
C 4755 38 4698 26 4582 26 
C 4461 26 4186 26 3878 58 
C 3968 -83 4019 -301 4032 -442 
C 4339 -461 4653 -467 4832 -442 
C 5030 -416 5178 -365 5306 -186 
C 5389 -90 5453 102 5504 435 
L 5990 435 
L 5990 947 
L 5574 947 
C 5600 1184 5619 1459 5638 1792 
L 6163 1792 
z
" transform="scale(0.015625)"/>
        <path id="NotoSansSC-Medium-2692" d="M 3181 4013 
L 3181 4173 
L 3181 5357 
L 2554 5357 
L 2554 4173 
L 2554 4013 
L 538 4013 
L 538 3405 
L 2522 3405 
C 2426 2253 2010 896 346 -58 
C 486 -166 710 -390 806 -538 
C 2624 538 3059 2086 3155 3405 
L 5158 3405 
C 5050 1312 4915 435 4698 230 
C 4621 154 4544 134 4403 134 
C 4243 134 3853 134 3430 173 
C 3546 -6 3629 -269 3642 -442 
C 4019 -461 4429 -467 4659 -442 
C 4909 -416 5075 -352 5248 -147 
C 5530 179 5651 1126 5792 3718 
C 5798 3802 5805 4013 5805 4013 
L 3181 4013 
z
" transform="scale(0.015625)"/>
        <path id="NotoSansSC-Medium-2cd2" d="M 6067 2816 
L 6067 3405 
L 3507 3405 
L 3507 5357 
L 2874 5357 
L 2874 3405 
L 352 3405 
L 352 2816 
L 2874 2816 
L 2874 410 
L 704 410 
L 704 -186 
L 5728 -186 
L 5728 410 
L 3507 410 
L 3507 2816 
L 6067 2816 
z
" transform="scale(0.015625)"/>
       </defs>
       <use xlink:href="#NotoSansSC-Medium-34"/>
       <use xlink:href="#NotoSansSC-Medium-2c" transform="translate(60.796875 0)"/>
       <use xlink:href="#NotoSansSC-Medium-414b" transform="translate(127.09375 0)"/>
       <use xlink:href="#NotoSansSC-Medium-2692" transform="translate(227.09375 0)"/>
       <use xlink:href="#NotoSansSC-Medium-2cd2" transform="translate(327.09375 0)"/>
      </g>
     </g>
    </g>
    <g id="ytick_3">
     <g id="line2d_15">
      <path d="M 59.3 181.67617 
L 374.12 181.67617 
" clip-path="url(#p3aa7386edd)" style="fill: none; stroke: #e2e8f0; stroke-opacity: 0.6; stroke-width: 0.5; stroke-linecap: square"/>
     </g>
     <g id="line2d_16"/>
     <g id="text_9">
      <!-- 西部数据 -->
      <g style="fill: #94a3b8" transform="translate(19.8 185.63617) scale(0.09 -0.09)">
       <defs>
        <path id="NotoSansSC-Medium-5d32" d="M 3584 3584 
L 2771 3584 
L 2771 4410 
L 3584 4410 
L 3584 3584 
z
M 5146 3040 
L 5146 1978 
C 5120 1971 5082 1965 5024 1965 
L 4371 1965 
C 4173 1965 4147 1990 4147 2176 
L 4147 3040 
L 5146 3040 
z
M 1293 448 
L 1293 1542 
C 1395 1434 1510 1286 1562 1203 
C 2496 1645 2733 2368 2765 3040 
L 3584 3040 
L 3584 2170 
C 3584 1568 3718 1408 4294 1408 
L 5082 1408 
L 5146 1408 
L 5146 448 
L 1293 448 
z
M 2227 3040 
C 2195 2534 2029 2035 1293 1664 
L 1293 3040 
L 2227 3040 
z
M 6003 4410 
L 6003 4986 
L 384 4986 
L 384 4410 
L 2234 4410 
L 2234 3584 
L 717 3584 
L 717 -480 
L 1293 -480 
L 1293 -102 
L 5146 -102 
L 5146 -467 
L 5747 -467 
L 5747 3584 
L 4147 3584 
L 4147 4410 
L 6003 4410 
z
" transform="scale(0.015625)"/>
        <path id="NotoSansSC-Medium-649a" d="M 2810 1331 
L 2810 339 
L 1229 339 
L 1229 1331 
L 2810 1331 
z
M 666 -474 
L 1229 -474 
L 1229 -179 
L 2810 -179 
L 2810 -429 
L 3398 -429 
L 3398 1869 
L 666 1869 
L 666 -474 
z
M 3526 4640 
L 2394 4640 
C 2323 4864 2195 5165 2074 5408 
L 1536 5254 
C 1619 5069 1709 4838 1773 4640 
L 506 4640 
L 506 4109 
L 3526 4109 
L 3526 4640 
z
M 2682 4109 
C 2592 3757 2419 3270 2259 2931 
L 1312 2931 
L 1779 3066 
C 1715 3347 1562 3770 1382 4090 
L 870 3955 
C 1024 3635 1178 3213 1235 2931 
L 333 2931 
L 333 2394 
L 3674 2394 
L 3674 2931 
L 2829 2931 
C 2970 3238 3130 3622 3270 3974 
L 2682 4109 
z
M 5677 5075 
L 5587 5050 
L 3962 5050 
L 3962 -480 
L 4486 -480 
L 4486 4512 
L 5370 4512 
C 5216 4019 4979 3354 4768 2842 
C 5299 2298 5453 1843 5453 1466 
C 5453 1248 5414 1069 5293 992 
C 5229 954 5139 934 5043 928 
C 4934 928 4781 928 4614 947 
C 4704 787 4755 538 4762 384 
C 4947 378 5139 378 5293 397 
C 5440 416 5581 461 5690 538 
C 5907 691 5997 998 5997 1408 
C 5997 1830 5875 2330 5331 2912 
C 5587 3488 5869 4218 6093 4813 
L 5677 5075 
z
" transform="scale(0.015625)"/>
        <path id="NotoSansSC-Medium-394a" d="M 2784 5267 
C 2675 5018 2483 4666 2330 4435 
L 2714 4262 
C 2886 4461 3091 4768 3283 5056 
L 2784 5267 
z
M 1363 4422 
C 1306 4653 1133 4986 966 5229 
L 531 5050 
C 698 4794 858 4448 909 4224 
L 1363 4422 
z
M 1600 2573 
L 2144 2573 
L 2144 3366 
C 2426 3155 2752 2893 2906 2746 
L 3226 3168 
C 3091 3258 2624 3552 2310 3738 
L 3405 3738 
L 3405 4211 
L 2144 4211 
L 2144 5370 
L 1600 5370 
L 1600 4211 
L 333 4211 
L 333 3738 
L 1414 3738 
C 1107 3366 653 3021 237 2854 
C 352 2739 486 2541 550 2406 
C 909 2598 1293 2912 1600 3245 
L 1600 2573 
z
M 2534 1613 
C 2400 1331 2221 1088 2010 877 
C 1798 986 1587 1088 1376 1178 
C 1453 1312 1536 1459 1619 1613 
L 2534 1613 
z
M 2957 326 
C 2822 422 2643 525 2458 634 
C 2790 998 3046 1446 3206 1997 
L 2886 2125 
L 2790 2099 
L 1850 2099 
C 1894 2202 1939 2298 1978 2394 
L 1446 2496 
C 1408 2368 1350 2240 1286 2099 
L 454 2099 
L 454 1613 
L 1043 1613 
C 909 1382 781 1152 653 979 
C 954 858 1286 710 1594 544 
C 1203 282 749 102 256 -13 
C 358 -122 474 -333 525 -461 
C 1107 -307 1632 -70 2074 275 
C 2278 160 2458 38 2598 -70 
L 2957 326 
z
M 5094 3610 
C 5005 2957 4870 2394 4685 1894 
C 4474 2419 4314 2995 4205 3610 
L 5094 3610 
z
M 6061 3610 
L 6061 4166 
L 4307 4166 
C 4390 4512 4461 4877 4512 5248 
L 3968 5325 
C 3821 4205 3533 3142 3034 2470 
C 3162 2387 3386 2202 3475 2099 
C 3616 2304 3750 2541 3866 2810 
C 3994 2246 4166 1734 4378 1274 
C 4032 698 3552 269 2886 -45 
C 2982 -160 3149 -410 3200 -531 
C 3827 -205 4301 211 4666 730 
C 4973 243 5350 -166 5818 -448 
C 5907 -307 6074 -90 6208 13 
C 5702 294 5299 723 4986 1267 
C 5312 1907 5510 2682 5645 3610 
L 6061 3610 
z
" transform="scale(0.015625)"/>
        <path id="NotoSansSC-Medium-3749" d="M 2272 2093 
L 2189 2630 
L 1574 2451 
L 1574 3571 
L 2259 3571 
L 2259 4122 
L 1574 4122 
L 1574 5357 
L 1030 5357 
L 1030 4122 
L 288 4122 
L 288 3571 
L 1030 3571 
L 1030 2298 
C 717 2208 435 2125 205 2067 
L 339 1491 
L 1030 1702 
L 1030 211 
C 1030 122 998 96 915 96 
C 845 96 608 96 352 102 
C 429 -51 499 -307 512 -448 
C 915 -448 1171 -429 1344 -333 
C 1517 -243 1574 -83 1574 211 
L 1574 1875 
L 2272 2093 
z
M 3072 2733 
C 3078 2893 3078 3040 3078 3181 
L 3078 3373 
L 4186 3373 
L 4186 2733 
L 3072 2733 
z
M 5338 4582 
L 5338 3891 
L 3078 3891 
L 3078 4582 
L 5338 4582 
z
M 5389 198 
L 3616 198 
L 3616 1024 
L 5389 1024 
L 5389 198 
z
M 6099 2234 
L 6099 2733 
L 4742 2733 
L 4742 3373 
L 5901 3373 
L 5901 5101 
L 2502 5101 
L 2502 3181 
C 2502 2176 2445 794 1792 -166 
C 1933 -224 2176 -410 2285 -506 
C 2790 243 2976 1299 3046 2234 
L 4186 2234 
L 4186 1523 
L 3098 1523 
L 3098 -506 
L 3616 -506 
L 3616 -282 
L 5389 -282 
L 5389 -486 
L 5926 -486 
L 5926 1523 
L 4742 1523 
L 4742 2234 
L 6099 2234 
z
" transform="scale(0.015625)"/>
       </defs>
       <use xlink:href="#NotoSansSC-Medium-5d32"/>
       <use xlink:href="#NotoSansSC-Medium-649a" transform="translate(100 0)"/>
       <use xlink:href="#NotoSansSC-Medium-394a" transform="translate(200 0)"/>
       <use xlink:href="#NotoSansSC-Medium-3749" transform="translate(300 0)"/>
      </g>
     </g>
    </g>
    <g id="ytick_4">
     <g id="line2d_17">
      <path d="M 59.3 152.46783 
L 374.12 152.46783 
" clip-path="url(#p3aa7386edd)" style="fill: none; stroke: #e2e8f0; stroke-opacity: 0.6; stroke-width: 0.5; stroke-linecap: square"/>
     </g>
     <g id="line2d_18"/>
     <g id="text_10">
      <!-- 闪迪 -->
      <g style="fill: #94a3b8" transform="translate(37.8 156.42783) scale(0.09 -0.09)">
       <defs>
        <path id="NotoSansSC-Medium-699b" d="M 2195 4147 
C 1990 4474 1549 4966 1210 5325 
L 749 5037 
C 1094 4672 1523 4147 1709 3821 
L 2195 4147 
z
M 512 -512 
L 1101 -512 
L 1101 3930 
L 512 3930 
L 512 -512 
z
M 4883 1133 
C 4576 1606 3949 2310 3360 2854 
C 3482 3187 3578 3539 3648 3910 
L 3059 4006 
C 2816 2726 2298 1728 1408 1139 
C 1523 1011 1696 730 1760 595 
C 2355 1018 2803 1587 3130 2291 
C 3654 1754 4198 1101 4467 653 
L 4883 1133 
z
M 5869 5107 
L 2310 5107 
L 2310 4531 
L 5274 4531 
L 5274 250 
C 5274 134 5235 96 5114 90 
C 4986 90 4550 83 4141 102 
C 4230 -58 4326 -339 4352 -506 
C 4928 -506 5318 -499 5555 -397 
C 5786 -301 5869 -115 5869 250 
L 5869 5107 
z
" transform="scale(0.015625)"/>
        <path id="NotoSansSC-Medium-639c" d="M 5146 2829 
L 4282 2829 
L 4282 3782 
L 5146 3782 
L 5146 2829 
z
M 5146 1382 
L 4282 1382 
L 4282 2349 
L 5146 2349 
L 5146 1382 
z
M 2886 2349 
L 3706 2349 
L 3706 1382 
L 2886 1382 
L 2886 2349 
z
M 2886 3782 
L 3706 3782 
L 3706 2829 
L 2886 2829 
L 2886 3782 
z
M 5715 4294 
L 4282 4294 
L 4282 5312 
L 3706 5312 
L 3706 4294 
L 2342 4294 
L 2342 864 
L 5715 864 
L 5715 4294 
z
M 1965 4205 
C 1715 4448 1210 4794 838 5030 
L 429 4659 
C 806 4410 1299 4038 1536 3789 
L 1965 4205 
z
M 1696 3174 
L 339 3174 
L 339 2624 
L 1114 2624 
L 1114 704 
C 845 576 544 320 256 13 
L 640 -512 
C 947 -102 1254 275 1459 275 
C 1600 275 1818 70 2067 -83 
C 2502 -339 3027 -422 3802 -422 
C 4474 -422 5523 -384 5971 -352 
C 5978 -192 6074 96 6144 256 
C 5498 179 4512 122 3814 122 
C 3123 122 2579 166 2163 422 
C 1952 550 1818 659 1696 730 
L 1696 3174 
z
" transform="scale(0.015625)"/>
       </defs>
       <use xlink:href="#NotoSansSC-Medium-699b"/>
       <use xlink:href="#NotoSansSC-Medium-639c" transform="translate(100 0)"/>
      </g>
     </g>
    </g>
    <g id="ytick_5">
     <g id="line2d_19">
      <path d="M 59.3 123.25949 
L 374.12 123.25949 
" clip-path="url(#p3aa7386edd)" style="fill: none; stroke: #e2e8f0; stroke-opacity: 0.6; stroke-width: 0.5; stroke-linecap: square"/>
     </g>
     <g id="line2d_20"/>
     <g id="text_11">
      <!-- 费城半导体 -->
      <g style="fill: #94a3b8" transform="translate(10.8 127.21949) scale(0.09 -0.09)">
       <defs>
        <path id="NotoSansSC-Medium-60eb" d="M 2227 3789 
C 2214 3654 2189 3526 2144 3405 
L 1338 3405 
C 1363 3533 1382 3654 1402 3789 
L 2227 3789 
z
M 2778 4582 
L 3661 4582 
L 3661 4205 
L 2778 4205 
L 2778 4582 
z
M 5037 4582 
L 5037 4205 
L 4224 4205 
L 4224 4582 
L 5037 4582 
z
M 3661 3405 
L 2714 3405 
C 2746 3533 2765 3654 2771 3789 
L 3661 3789 
L 3661 3405 
z
M 1178 435 
L 1754 435 
L 1754 1696 
L 4659 1696 
L 4659 493 
L 5261 493 
L 5261 2189 
L 1574 2189 
C 2093 2406 2400 2682 2566 2995 
L 3661 2995 
L 3661 2330 
L 4224 2330 
L 4224 2995 
L 5376 2995 
C 5357 2854 5331 2784 5306 2746 
C 5267 2707 5229 2707 5158 2707 
C 5088 2701 4941 2707 4755 2726 
C 4813 2618 4858 2451 4864 2336 
C 5101 2323 5325 2323 5440 2330 
C 5574 2336 5690 2374 5773 2464 
C 5875 2579 5920 2797 5958 3219 
C 5965 3290 5971 3405 5971 3405 
L 4224 3405 
L 4224 3789 
L 5581 3789 
L 5581 4998 
L 4224 4998 
L 4224 5370 
L 3661 5370 
L 3661 4998 
L 2778 4998 
L 2778 5370 
L 2240 5370 
L 2240 4998 
L 710 4998 
L 710 4582 
L 2240 4582 
L 2240 4205 
L 1146 4205 
L 1146 4198 
L 922 4198 
C 877 3802 800 3322 730 2995 
L 1862 2995 
C 1594 2739 1133 2528 371 2362 
C 474 2266 621 2042 672 1914 
C 851 1958 1018 2003 1178 2048 
L 1178 435 
z
M 2982 1459 
C 2778 614 2272 205 275 6 
C 378 -115 493 -352 531 -499 
C 2701 -230 3334 346 3578 1459 
L 2982 1459 
z
M 3322 333 
C 4122 122 5203 -250 5741 -506 
L 6074 -45 
C 5498 211 4416 550 3635 736 
L 3322 333 
z
" transform="scale(0.015625)"/>
        <path id="NotoSansSC-Medium-2bb9" d="M 5472 3219 
C 5350 2701 5190 2214 4979 1792 
C 4896 2387 4832 3104 4800 3891 
L 6080 3891 
L 6080 4429 
L 5651 4429 
L 5965 4634 
C 5830 4845 5530 5152 5267 5363 
L 4858 5114 
C 5082 4909 5338 4634 5485 4429 
L 4787 4429 
C 4781 4742 4774 5056 4781 5376 
L 4218 5376 
C 4218 5062 4224 4742 4237 4429 
L 2317 4429 
L 2317 2413 
C 2317 1984 2298 1504 2195 1030 
L 2086 1549 
L 1523 1344 
L 1523 3283 
L 2086 3283 
L 2086 3834 
L 1523 3834 
L 1523 5293 
L 973 5293 
L 973 3834 
L 352 3834 
L 352 3283 
L 973 3283 
L 973 1146 
C 710 1050 467 966 262 902 
L 454 314 
C 960 518 1587 768 2189 1018 
C 2093 589 1920 186 1626 -154 
C 1747 -224 1978 -410 2067 -525 
C 2752 256 2867 1491 2867 2406 
L 2867 2624 
L 3533 2624 
C 3520 1562 3494 1178 3430 1088 
C 3392 1030 3354 1011 3277 1011 
C 3200 1011 3034 1011 2835 1037 
C 2912 902 2963 691 2976 544 
C 3194 531 3405 538 3533 557 
C 3680 576 3782 627 3872 742 
C 3987 909 4013 1453 4032 2899 
C 4038 2963 4038 3110 4038 3110 
L 2867 3110 
L 2867 3891 
L 4256 3891 
C 4301 2816 4390 1818 4557 1050 
C 4224 589 3814 205 3328 -90 
C 3443 -186 3661 -390 3738 -499 
C 4109 -250 4442 58 4730 403 
C 4928 -122 5178 -435 5517 -435 
C 5971 -435 6131 -154 6208 813 
C 6074 870 5894 992 5779 1120 
C 5760 422 5696 115 5594 115 
C 5421 115 5267 429 5133 960 
C 5517 1574 5811 2298 6010 3123 
L 5472 3219 
z
" transform="scale(0.015625)"/>
        <path id="NotoSansSC-Medium-273f" d="M 4890 5242 
C 4723 4787 4410 4179 4160 3802 
L 4698 3603 
C 4947 3968 5267 4525 5523 5037 
L 4890 5242 
z
M 2189 3821 
C 2074 4205 1754 4781 1459 5216 
L 915 5005 
C 1203 4557 1498 3955 1606 3578 
L 2189 3821 
z
M 6054 1850 
L 3494 1850 
L 3494 2758 
L 5702 2758 
L 5702 3347 
L 3494 3347 
L 3494 5376 
L 2867 5376 
L 2867 3347 
L 755 3347 
L 755 2758 
L 2867 2758 
L 2867 1850 
L 358 1850 
L 358 1254 
L 2867 1254 
L 2867 -493 
L 3494 -493 
L 3494 1254 
L 6054 1254 
L 6054 1850 
z
" transform="scale(0.015625)"/>
        <path id="NotoSansSC-Medium-2fe1" d="M 4678 4634 
L 4678 4077 
L 1472 4077 
L 1472 4634 
L 4678 4634 
z
M 4723 2509 
C 5562 2509 5805 2650 5894 3302 
C 5722 3328 5478 3398 5331 3482 
C 5274 3066 5171 2989 4672 2989 
L 2291 2989 
C 1606 2989 1472 3053 1472 3315 
L 1472 3565 
L 5261 3565 
L 5261 5152 
L 851 5152 
L 851 3309 
C 851 2650 1197 2509 2317 2509 
L 4723 2509 
z
M 6016 1920 
L 4666 1920 
L 4666 2362 
L 4051 2362 
L 4051 1920 
L 403 1920 
L 403 1370 
L 1606 1370 
L 1312 1107 
C 1709 787 2176 320 2368 0 
L 2803 403 
C 2611 698 2214 1075 1850 1370 
L 4051 1370 
L 4051 160 
C 4051 64 4013 32 3885 32 
C 3763 26 3283 26 2854 38 
C 2931 -109 3027 -339 3059 -493 
C 3661 -493 4064 -486 4320 -410 
C 4576 -333 4666 -179 4666 147 
L 4666 1370 
L 6016 1370 
L 6016 1920 
z
" transform="scale(0.015625)"/>
        <path id="NotoSansSC-Medium-234e" d="M 1542 5338 
C 1235 4410 736 3475 186 2874 
C 288 2739 461 2413 518 2272 
C 678 2464 832 2669 992 2899 
L 992 -493 
L 1562 -493 
L 1562 3885 
C 1766 4307 1958 4742 2099 5178 
L 1542 5338 
z
M 6086 3584 
L 6086 4147 
L 4256 4147 
L 4256 5338 
L 3674 5338 
L 3674 4147 
L 1958 4147 
L 1958 3584 
L 3360 3584 
C 2982 2534 2355 1491 1677 928 
C 1805 826 2010 621 2099 474 
C 2726 1075 3283 2042 3674 3091 
L 3674 1165 
L 2720 1165 
L 2720 627 
L 3674 627 
L 3674 -467 
L 4256 -467 
L 4256 627 
L 5203 627 
L 5203 1165 
L 4256 1165 
L 4256 3130 
C 4634 2086 5184 1088 5786 493 
C 5894 653 6093 858 6240 966 
C 5581 1523 4954 2554 4589 3584 
L 6086 3584 
z
" transform="scale(0.015625)"/>
       </defs>
       <use xlink:href="#NotoSansSC-Medium-60eb"/>
       <use xlink:href="#NotoSansSC-Medium-2bb9" transform="translate(100 0)"/>
       <use xlink:href="#NotoSansSC-Medium-273f" transform="translate(200 0)"/>
       <use xlink:href="#NotoSansSC-Medium-2fe1" transform="translate(300 0)"/>
       <use xlink:href="#NotoSansSC-Medium-234e" transform="translate(400 0)"/>
      </g>
     </g>
    </g>
    <g id="ytick_6">
     <g id="line2d_21">
      <path d="M 59.3 94.051149 
L 374.12 94.051149 
" clip-path="url(#p3aa7386edd)" style="fill: none; stroke: #e2e8f0; stroke-opacity: 0.6; stroke-width: 0.5; stroke-linecap: square"/>
     </g>
     <g id="line2d_22"/>
     <g id="text_12">
      <!-- 三星电子 -->
      <g style="fill: #94a3b8" transform="translate(19.8 98.011149) scale(0.09 -0.09)">
       <defs>
        <path id="NotoSansSC-Medium-2204" d="M 806 4762 
L 806 4154 
L 5606 4154 
L 5606 4762 
L 806 4762 
z
M 1222 2707 
L 1222 2099 
L 5107 2099 
L 5107 2707 
L 1222 2707 
z
M 442 525 
L 442 -77 
L 5946 -77 
L 5946 525 
L 442 525 
z
" transform="scale(0.015625)"/>
        <path id="NotoSansSC-Medium-39f9" d="M 1651 3763 
L 4723 3763 
L 4723 3290 
L 1651 3290 
L 1651 3763 
z
M 1651 4659 
L 4723 4659 
L 4723 4205 
L 1651 4205 
L 1651 4659 
z
M 3520 173 
L 3520 762 
L 5306 762 
L 5306 1229 
L 3520 1229 
L 3520 1734 
L 5581 1734 
L 5581 2234 
L 3520 2234 
L 3520 2694 
L 2906 2694 
L 2906 2234 
L 1786 2234 
C 1869 2381 1958 2528 2029 2675 
L 1530 2822 
L 5338 2822 
L 5338 5126 
L 1069 5126 
L 1069 2822 
L 1434 2822 
C 1190 2291 768 1773 314 1434 
C 461 1357 704 1171 819 1069 
C 1024 1248 1235 1478 1440 1734 
L 2906 1734 
L 2906 1229 
L 1190 1229 
L 1190 762 
L 2906 762 
L 2906 173 
L 429 173 
L 429 -339 
L 5984 -339 
L 5984 173 
L 3520 173 
z
" transform="scale(0.015625)"/>
        <path id="NotoSansSC-Medium-48fc" d="M 1408 1760 
L 1408 2541 
L 2835 2541 
L 2835 1760 
L 1408 1760 
z
M 2835 3866 
L 2835 3085 
L 1408 3085 
L 1408 3866 
L 2835 3866 
z
M 4934 3866 
L 4934 3085 
L 3469 3085 
L 3469 3866 
L 4934 3866 
z
M 3469 1760 
L 3469 2541 
L 4934 2541 
L 4934 1760 
L 3469 1760 
z
M 3898 186 
C 3526 186 3469 256 3469 640 
L 3469 1178 
L 5542 1178 
L 5542 4448 
L 3469 4448 
L 3469 5344 
L 2835 5344 
L 2835 4448 
L 794 4448 
L 794 800 
L 1408 800 
L 1408 1178 
L 2835 1178 
L 2835 653 
C 2835 -192 3053 -410 3840 -410 
L 5158 -410 
C 5882 -410 6067 -64 6157 915 
C 5978 960 5715 1062 5568 1171 
C 5517 384 5453 186 5114 186 
L 3898 186 
z
" transform="scale(0.015625)"/>
        <path id="NotoSansSC-Medium-2f35" d="M 6080 2579 
L 3539 2579 
L 3539 3168 
C 4269 3552 5056 4128 5600 4653 
L 5152 4998 
L 5018 4966 
L 973 4966 
L 973 4384 
L 4365 4384 
C 3949 4051 3392 3706 2918 3482 
L 2918 2579 
L 339 2579 
L 339 1984 
L 2918 1984 
L 2918 250 
C 2918 134 2880 102 2746 96 
C 2605 90 2125 90 1638 109 
C 1741 -58 1856 -333 1894 -506 
C 2490 -506 2912 -493 3181 -397 
C 3450 -307 3539 -128 3539 237 
L 3539 1984 
L 6080 1984 
L 6080 2579 
z
" transform="scale(0.015625)"/>
       </defs>
       <use xlink:href="#NotoSansSC-Medium-2204"/>
       <use xlink:href="#NotoSansSC-Medium-39f9" transform="translate(100 0)"/>
       <use xlink:href="#NotoSansSC-Medium-48fc" transform="translate(200 0)"/>
       <use xlink:href="#NotoSansSC-Medium-2f35" transform="translate(300 0)"/>
      </g>
     </g>
    </g>
   </g>
   <g id="patch_3">
    <path d="M 59.3 246.664727 
L 312.46775 246.664727 
L 312.46775 233.520974 
L 59.3 233.520974 
z
" clip-path="url(#p3aa7386edd)" style="fill: #6d28d9; stroke: #ffffff; stroke-width: 1.5; stroke-linejoin: miter"/>
   </g>
   <g id="patch_4">
    <path d="M 59.3 217.456387 
L 203.5925 217.456387 
L 203.5925 204.312634 
L 59.3 204.312634 
z
" clip-path="url(#p3aa7386edd)" style="fill: #7c3aed; stroke: #ffffff; stroke-width: 1.5; stroke-linejoin: miter"/>
   </g>
   <g id="patch_5">
    <path d="M 59.3 188.248047 
L 177.3575 188.248047 
L 177.3575 175.104294 
L 59.3 175.104294 
z
" clip-path="url(#p3aa7386edd)" style="fill: #8b5cf6; stroke: #ffffff; stroke-width: 1.5; stroke-linejoin: miter"/>
   </g>
   <g id="patch_6">
    <path d="M 59.3 159.039706 
L 151.1225 159.039706 
L 151.1225 145.895953 
L 59.3 145.895953 
z
" clip-path="url(#p3aa7386edd)" style="fill: #a78bfa; stroke: #ffffff; stroke-width: 1.5; stroke-linejoin: miter"/>
   </g>
   <g id="patch_7">
    <path d="M 59.3 129.831366 
L 127.511 129.831366 
L 127.511 116.687613 
L 59.3 116.687613 
z
" clip-path="url(#p3aa7386edd)" style="fill: #8b5cf6; stroke: #ffffff; stroke-width: 1.5; stroke-linejoin: miter"/>
   </g>
   <g id="patch_8">
    <path d="M 59.3 100.623026 
L 124.8875 100.623026 
L 124.8875 87.479273 
L 59.3 87.479273 
z
" clip-path="url(#p3aa7386edd)" style="fill: #a78bfa; stroke: #ffffff; stroke-width: 1.5; stroke-linejoin: miter"/>
   </g>
   <g id="text_13">
    <!-- +19.3% -->
    <g style="fill: #1e293b" transform="translate(316.403 243.512851) scale(0.09 -0.09)">
     <defs>
      <path id="NotoSansSC-Medium-c" d="M 1542 730 
L 2106 730 
L 2106 2112 
L 3405 2112 
L 3405 2643 
L 2106 2643 
L 2106 4026 
L 1542 4026 
L 1542 2643 
L 243 2643 
L 243 2112 
L 1542 2112 
L 1542 730 
z
" transform="scale(0.015625)"/>
      <path id="NotoSansSC-Medium-1a" d="M 960 3251 
C 960 3866 1280 4230 1683 4230 
C 2195 4230 2547 3808 2618 2880 
C 2349 2477 2016 2304 1722 2304 
C 1229 2304 960 2650 960 3251 
z
M 1555 -83 
C 2464 -83 3309 659 3309 2515 
C 3309 4077 2579 4800 1677 4800 
C 915 4800 275 4186 275 3251 
C 275 2266 806 1773 1594 1773 
C 1952 1773 2355 1984 2630 2323 
C 2586 979 2093 518 1523 518 
C 1229 518 941 659 755 870 
L 352 416 
C 627 134 1011 -83 1555 -83 
z
" transform="scale(0.015625)"/>
      <path id="NotoSansSC-Medium-f" d="M 954 -83 
C 1229 -83 1446 128 1446 429 
C 1446 736 1229 954 954 954 
C 678 954 461 736 461 429 
C 461 128 678 -83 954 -83 
z
" transform="scale(0.015625)"/>
      <path id="NotoSansSC-Medium-14" d="M 1715 -83 
C 2579 -83 3290 416 3290 1267 
C 3290 1901 2861 2310 2317 2445 
L 2317 2477 
C 2816 2662 3130 3040 3130 3584 
C 3130 4358 2534 4800 1690 4800 
C 1146 4800 710 4563 339 4230 
L 723 3770 
C 992 4032 1299 4205 1664 4211 
C 2112 4205 2387 3949 2387 3533 
C 2387 3059 2080 2707 1152 2707 
L 1152 2163 
C 2214 2163 2547 1824 2547 1306 
C 2547 813 2182 518 1651 518 
C 1165 518 813 755 538 1037 
L 179 563 
C 493 211 973 -83 1715 -83 
z
" transform="scale(0.015625)"/>
     </defs>
     <use xlink:href="#NotoSansSC-Medium-c"/>
     <use xlink:href="#NotoSansSC-Medium-12" transform="translate(57 0)"/>
     <use xlink:href="#NotoSansSC-Medium-1a" transform="translate(114 0)"/>
     <use xlink:href="#NotoSansSC-Medium-f" transform="translate(171 0)"/>
     <use xlink:href="#NotoSansSC-Medium-14" transform="translate(200.796875 0)"/>
     <use xlink:href="#NotoSansSC-Medium-6" transform="translate(257.796875 0)"/>
    </g>
   </g>
   <g id="text_14">
    <!-- +11.0% -->
    <g style="fill: #1e293b" transform="translate(207.52775 214.30451) scale(0.09 -0.09)">
     <use xlink:href="#NotoSansSC-Medium-c"/>
     <use xlink:href="#NotoSansSC-Medium-12" transform="translate(57 0)"/>
     <use xlink:href="#NotoSansSC-Medium-12" transform="translate(114 0)"/>
     <use xlink:href="#NotoSansSC-Medium-f" transform="translate(171 0)"/>
     <use xlink:href="#NotoSansSC-Medium-11" transform="translate(200.796875 0)"/>
     <use xlink:href="#NotoSansSC-Medium-6" transform="translate(257.796875 0)"/>
    </g>
   </g>
   <g id="text_15">
    <!-- +9.0% -->
    <g style="fill: #1e293b" transform="translate(181.29275 185.09617) scale(0.09 -0.09)">
     <use xlink:href="#NotoSansSC-Medium-c"/>
     <use xlink:href="#NotoSansSC-Medium-1a" transform="translate(57 0)"/>
     <use xlink:href="#NotoSansSC-Medium-f" transform="translate(114 0)"/>
     <use xlink:href="#NotoSansSC-Medium-11" transform="translate(143.796875 0)"/>
     <use xlink:href="#NotoSansSC-Medium-6" transform="translate(200.796875 0)"/>
    </g>
   </g>
   <g id="text_16">
    <!-- +7.0% -->
    <g style="fill: #1e293b" transform="translate(155.05775 155.88783) scale(0.09 -0.09)">
     <defs>
      <path id="NotoSansSC-Medium-18" d="M 1235 0 
L 1990 0 
C 2067 1843 2240 2886 3347 4262 
L 3347 4717 
L 314 4717 
L 314 4090 
L 2528 4090 
C 1619 2822 1318 1722 1235 0 
z
" transform="scale(0.015625)"/>
     </defs>
     <use xlink:href="#NotoSansSC-Medium-c"/>
     <use xlink:href="#NotoSansSC-Medium-18" transform="translate(57 0)"/>
     <use xlink:href="#NotoSansSC-Medium-f" transform="translate(114 0)"/>
     <use xlink:href="#NotoSansSC-Medium-11" transform="translate(143.796875 0)"/>
     <use xlink:href="#NotoSansSC-Medium-6" transform="translate(200.796875 0)"/>
    </g>
   </g>
   <g id="text_17">
    <!-- +5.2% -->
    <g style="fill: #1e293b" transform="translate(131.44625 126.67949) scale(0.09 -0.09)">
     <use xlink:href="#NotoSansSC-Medium-c"/>
     <use xlink:href="#NotoSansSC-Medium-16" transform="translate(57 0)"/>
     <use xlink:href="#NotoSansSC-Medium-f" transform="translate(114 0)"/>
     <use xlink:href="#NotoSansSC-Medium-13" transform="translate(143.796875 0)"/>
     <use xlink:href="#NotoSansSC-Medium-6" transform="translate(200.796875 0)"/>
    </g>
   </g>
   <g id="text_18">
    <!-- +5.0% -->
    <g style="fill: #1e293b" transform="translate(128.82275 97.471149) scale(0.09 -0.09)">
     <use xlink:href="#NotoSansSC-Medium-c"/>
     <use xlink:href="#NotoSansSC-Medium-16" transform="translate(57 0)"/>
     <use xlink:href="#NotoSansSC-Medium-f" transform="translate(114 0)"/>
     <use xlink:href="#NotoSansSC-Medium-11" transform="translate(143.796875 0)"/>
     <use xlink:href="#NotoSansSC-Medium-6" transform="translate(200.796875 0)"/>
    </g>
   </g>
   <g id="text_19">
    <g id="patch_9">
     <path d="M 277.904 248.8688 
L 358.379 248.8688 
Q 361.379 248.8688 361.379 245.8688 
L 361.379 230.2688 
Q 361.379 227.2688 358.379 227.2688 
L 277.904 227.2688 
Q 274.904 227.2688 274.904 230.2688 
L 274.904 245.8688 
Q 274.904 248.8688 277.904 248.8688 
z
" style="fill: #f5f3ff; opacity: 0.9; stroke: #ddd6fe; stroke-width: 1.5; stroke-linejoin: miter"/>
    </g>
    <!-- 美光HBM产能全年售罄 -->
    <g style="fill: #1e293b" transform="translate(281.601266 236.8688) scale(0.075 -0.075)">
     <defs>
      <path id="NotoSansSC-Medium-29" d="M 621 0 
L 1363 0 
L 1363 2144 
L 3379 2144 
L 3379 0 
L 4122 0 
L 4122 4717 
L 3379 4717 
L 3379 2790 
L 1363 2790 
L 1363 4717 
L 621 4717 
L 621 0 
z
" transform="scale(0.015625)"/>
      <path id="NotoSansSC-Medium-23" d="M 621 0 
L 2195 0 
C 3238 0 4000 448 4000 1382 
C 4000 2022 3610 2387 3072 2502 
L 3072 2534 
C 3494 2675 3744 3104 3744 3552 
C 3744 4403 3046 4717 2080 4717 
L 621 4717 
L 621 0 
z
M 1363 2746 
L 1363 4134 
L 2016 4134 
C 2682 4134 3014 3949 3014 3456 
C 3014 3014 2714 2746 1997 2746 
L 1363 2746 
z
M 1363 582 
L 1363 2189 
L 2112 2189 
C 2861 2189 3270 1952 3270 1421 
C 3270 845 2848 582 2112 582 
L 1363 582 
z
" transform="scale(0.015625)"/>
      <path id="NotoSansSC-Medium-2e" d="M 621 0 
L 1286 0 
L 1286 2330 
C 1286 2752 1229 3360 1197 3789 
L 1222 3789 
L 1594 2701 
L 2419 454 
L 2880 454 
L 3699 2701 
L 4077 3789 
L 4102 3789 
C 4064 3360 4006 2752 4006 2330 
L 4006 0 
L 4698 0 
L 4698 4717 
L 3840 4717 
L 2989 2330 
C 2880 2016 2790 1696 2682 1382 
L 2650 1382 
C 2541 1696 2445 2016 2336 2330 
L 1472 4717 
L 621 4717 
L 621 0 
z
" transform="scale(0.015625)"/>
      <path id="NotoSansSC-Medium-22a2" d="M 5779 4653 
L 3725 4653 
C 3635 4858 3450 5165 3270 5389 
L 2669 5229 
C 2797 5062 2918 4838 3008 4653 
L 710 4653 
L 710 4083 
L 5779 4083 
L 5779 4653 
z
M 5939 2982 
L 4467 2982 
C 4640 3226 4826 3533 5011 3821 
L 4352 4032 
C 4243 3718 4032 3277 3859 2982 
L 2272 2982 
L 2726 3187 
C 2624 3437 2381 3808 2176 4070 
L 1658 3859 
C 1850 3590 2061 3232 2163 2982 
L 787 2982 
L 787 2112 
C 787 1453 730 525 230 -147 
C 358 -224 627 -448 723 -570 
C 1293 186 1408 1325 1408 2099 
L 1408 2400 
L 5939 2400 
L 5939 2982 
z
" transform="scale(0.015625)"/>
      <path id="NotoSansSC-Medium-54bb" d="M 5344 2566 
C 5882 2566 6042 2778 6112 3565 
C 5952 3603 5709 3693 5587 3789 
C 5562 3194 5517 3091 5286 3091 
L 4410 3091 
C 4141 3091 4096 3130 4096 3334 
L 4096 3872 
C 4685 4045 5338 4256 5824 4493 
L 5440 4922 
C 5101 4742 4595 4525 4096 4352 
L 4096 5357 
L 3514 5357 
L 3514 3328 
C 3514 2739 3674 2566 4339 2566 
L 5344 2566 
z
M 1197 1210 
L 1197 1690 
L 2374 1690 
L 2374 1210 
L 1197 1210 
z
M 2374 2605 
L 2374 2150 
L 1197 2150 
L 1197 2605 
L 2374 2605 
z
M 2963 3104 
L 640 3104 
L 640 -499 
L 1197 -499 
L 1197 749 
L 2374 749 
L 2374 141 
C 2374 64 2355 38 2272 38 
C 2182 32 1920 32 1651 45 
C 1734 -102 1818 -339 1850 -493 
C 2240 -493 2522 -486 2720 -390 
C 2906 -301 2963 -147 2963 134 
L 2963 3104 
z
M 1990 4794 
C 2131 4595 2259 4378 2381 4154 
L 1184 4077 
C 1446 4403 1715 4819 1920 5210 
L 1299 5389 
C 1101 4902 781 4422 672 4294 
C 570 4160 474 4064 371 4045 
C 448 3885 538 3603 570 3482 
C 723 3546 954 3578 2598 3706 
C 2656 3584 2701 3475 2733 3373 
L 3264 3597 
C 3136 3987 2803 4557 2490 4986 
L 1990 4794 
z
M 4429 64 
C 4154 64 4102 102 4102 314 
L 4102 954 
C 4717 1139 5402 1370 5888 1651 
L 5498 2093 
C 5158 1862 4627 1632 4102 1446 
L 4102 2400 
L 3514 2400 
L 3514 314 
C 3514 -282 3686 -454 4358 -454 
L 5370 -454 
C 5933 -454 6093 -224 6163 646 
C 6003 685 5766 781 5638 870 
C 5606 186 5562 64 5318 64 
L 4429 64 
z
" transform="scale(0.015625)"/>
      <path id="NotoSansSC-Medium-2563" d="M 1446 3053 
C 2093 3482 2707 4000 3194 4582 
C 3750 3968 4339 3482 4979 3053 
L 1446 3053 
z
M 5158 2528 
L 5158 2931 
C 5376 2790 5606 2656 5843 2522 
C 5926 2701 6099 2906 6246 3034 
C 5222 3533 4307 4147 3533 5018 
C 3571 5075 3610 5126 3648 5184 
L 3117 5434 
C 2483 4435 1325 3546 173 3046 
C 326 2912 493 2707 582 2554 
C 813 2669 1050 2797 1274 2938 
L 1274 2528 
L 2886 2528 
L 2886 1638 
L 1338 1638 
L 1338 1120 
L 2886 1120 
L 2886 192 
L 512 192 
L 512 -339 
L 5926 -339 
L 5926 192 
L 3514 192 
L 3514 1120 
L 5133 1120 
L 5133 1638 
L 3514 1638 
L 3514 2528 
L 5158 2528 
z
" transform="scale(0.015625)"/>
      <path id="NotoSansSC-Medium-3254" d="M 1939 1485 
L 1939 2618 
L 3226 2618 
L 3226 1485 
L 1939 1485 
z
M 6086 1485 
L 3840 1485 
L 3840 2618 
L 5626 2618 
L 5626 3174 
L 3840 3174 
L 3840 4058 
L 5773 4058 
L 5773 4634 
L 2067 4634 
C 2150 4826 2240 5037 2317 5235 
L 1715 5395 
C 1421 4544 909 3731 320 3226 
C 467 3136 723 2944 838 2842 
C 1165 3162 1485 3584 1760 4058 
L 3226 4058 
L 3226 3174 
L 1344 3174 
L 1344 1485 
L 314 1485 
L 314 909 
L 3226 909 
L 3226 -506 
L 3840 -506 
L 3840 909 
L 6086 909 
L 6086 1485 
z
" transform="scale(0.015625)"/>
      <path id="NotoSansSC-Medium-291e" d="M 4800 979 
L 4800 243 
L 1690 243 
L 1690 979 
L 4800 979 
z
M 1101 -518 
L 1690 -518 
L 1690 -230 
L 4800 -230 
L 4800 -518 
L 5421 -518 
L 5421 1459 
L 1101 1459 
L 1101 -518 
z
M 1696 2720 
L 3194 2720 
L 3194 2317 
L 1696 2317 
L 1696 2720 
z
M 3194 3891 
L 1696 3891 
L 1696 4262 
L 3194 4262 
L 3194 3891 
z
M 3194 3123 
L 1696 3123 
L 1696 3488 
L 3194 3488 
L 3194 3123 
z
M 3776 2317 
L 3776 2720 
L 5338 2720 
L 5338 3123 
L 3776 3123 
L 3776 3488 
L 5325 3488 
L 5325 3891 
L 3776 3891 
L 3776 4262 
L 5638 4262 
L 5638 4698 
L 3846 4698 
C 3763 4909 3629 5171 3501 5382 
L 2957 5222 
C 3046 5062 3130 4870 3206 4698 
L 1894 4698 
C 1990 4864 2086 5043 2157 5210 
L 1606 5389 
C 1286 4672 762 3962 211 3507 
C 326 3398 538 3168 621 3053 
C 781 3206 954 3379 1114 3565 
L 1114 1632 
L 1696 1632 
L 1696 1862 
L 5792 1862 
L 5792 2317 
L 3776 2317 
z
" transform="scale(0.015625)"/>
      <path id="NotoSansSC-Medium-5305" d="M 1542 4378 
L 582 4378 
L 582 4013 
L 3008 4013 
L 3008 4378 
L 2067 4378 
L 2067 4640 
L 3187 4640 
L 3187 5011 
L 2067 5011 
L 2067 5370 
L 1542 5370 
L 1542 5011 
L 410 5011 
L 410 4640 
L 1542 4640 
L 1542 4378 
z
M 1619 3450 
L 1619 3059 
L 1114 3059 
C 1120 3123 1120 3187 1120 3245 
L 1120 3450 
L 1619 3450 
z
M 2528 3059 
L 2016 3059 
L 2016 3450 
L 2528 3450 
L 2528 3059 
z
M 3008 2720 
L 3008 3795 
L 653 3795 
L 653 3258 
C 653 2906 595 2477 218 2138 
C 320 2080 512 1907 582 1818 
C 864 2067 1005 2400 1069 2720 
L 3008 2720 
z
M 1338 1242 
C 1466 1357 1594 1498 1715 1645 
L 2893 1645 
L 2893 1242 
L 1338 1242 
z
M 3469 1645 
L 5312 1645 
L 5312 2086 
L 2016 2086 
C 2080 2202 2144 2310 2202 2419 
L 1670 2566 
C 1517 2208 1203 1766 870 1498 
C 979 1434 1139 1331 1248 1242 
L 371 1242 
L 371 794 
L 2893 794 
L 2893 141 
L 1568 141 
L 1568 666 
L 979 666 
L 979 -326 
L 4826 -326 
L 4826 -512 
L 5402 -512 
L 5402 646 
L 4826 646 
L 4826 141 
L 3469 141 
L 3469 794 
L 6035 794 
L 6035 1242 
L 3469 1242 
L 3469 1645 
z
M 5011 3424 
C 4877 3258 4698 3110 4499 2982 
C 4288 3110 4109 3258 3981 3424 
L 5011 3424 
z
M 5395 3827 
L 5299 3808 
L 3507 3808 
C 3949 4051 4051 4410 4051 4730 
L 4051 4755 
L 4806 4755 
L 4806 4480 
C 4806 4115 4877 3936 5267 3936 
L 5696 3936 
C 5811 3936 5946 3942 6022 3968 
C 6003 4090 5997 4211 5990 4333 
C 5914 4314 5760 4307 5677 4307 
L 5389 4307 
C 5299 4307 5286 4352 5286 4474 
L 5286 5171 
L 3584 5171 
L 3584 4749 
C 3584 4512 3514 4275 3059 4083 
C 3142 4026 3290 3904 3386 3808 
L 3290 3808 
L 3290 3424 
L 3597 3424 
L 3488 3392 
C 3635 3155 3821 2950 4045 2771 
C 3744 2650 3405 2573 3059 2522 
C 3142 2419 3245 2246 3290 2125 
C 3712 2208 4115 2330 4474 2496 
C 4851 2298 5299 2150 5805 2067 
C 5869 2202 6003 2400 6112 2502 
C 5677 2554 5280 2643 4941 2771 
C 5261 3008 5523 3315 5683 3712 
L 5395 3827 
z
" transform="scale(0.015625)"/>
     </defs>
     <use xlink:href="#NotoSansSC-Medium-5350"/>
     <use xlink:href="#NotoSansSC-Medium-2544" transform="translate(100 0)"/>
     <use xlink:href="#NotoSansSC-Medium-29" transform="translate(200 0)"/>
     <use xlink:href="#NotoSansSC-Medium-23" transform="translate(274 0)"/>
     <use xlink:href="#NotoSansSC-Medium-2e" transform="translate(340.703125 0)"/>
     <use xlink:href="#NotoSansSC-Medium-22a2" transform="translate(423.703125 0)"/>
     <use xlink:href="#NotoSansSC-Medium-54bb" transform="translate(523.703125 0)"/>
     <use xlink:href="#NotoSansSC-Medium-2563" transform="translate(623.703125 0)"/>
     <use xlink:href="#NotoSansSC-Medium-3254" transform="translate(723.703125 0)"/>
     <use xlink:href="#NotoSansSC-Medium-291e" transform="translate(823.703125 0)"/>
     <use xlink:href="#NotoSansSC-Medium-5305" transform="translate(923.703125 0)"/>
    </g>
    <!-- 瑞银目标价 $535→$1,625 -->
    <g style="fill: #1e293b" transform="translate(277.904 244.3688) scale(0.075 -0.075)">
     <defs>
      <path id="NotoSansSC-Medium-4825" d="M 5882 5101 
L 5318 5101 
L 5318 4077 
L 4442 4077 
L 4442 5370 
L 3891 5370 
L 3891 4077 
L 3053 4077 
L 3053 5101 
L 2515 5101 
L 2515 3558 
L 5882 3558 
L 5882 5101 
z
M 1491 2592 
L 2003 2592 
L 2003 3142 
L 1491 3142 
L 1491 4416 
L 2131 4416 
L 2131 4966 
L 307 4966 
L 307 4416 
L 947 4416 
L 947 3142 
L 358 3142 
L 358 2592 
L 947 2592 
L 947 896 
C 698 826 474 774 275 730 
L 397 160 
C 922 307 1581 499 2208 691 
L 2131 1229 
C 1920 1165 1696 1101 1491 1050 
L 1491 2592 
z
M 6106 2605 
L 6106 3136 
L 2253 3136 
L 2253 2605 
L 3834 2605 
C 3808 2426 3763 2246 3718 2074 
L 2451 2074 
L 2451 -506 
L 2989 -506 
L 2989 1568 
L 3462 1568 
L 3462 -461 
L 3949 -461 
L 3949 1568 
L 4454 1568 
L 4454 -461 
L 4941 -461 
L 4941 1568 
L 5453 1568 
L 5453 83 
C 5453 26 5440 13 5382 6 
C 5331 6 5190 6 5024 13 
C 5101 -128 5197 -358 5210 -518 
C 5478 -518 5664 -499 5811 -403 
C 5958 -314 5997 -160 5997 64 
L 5997 2074 
L 4262 2074 
C 4320 2240 4378 2419 4435 2605 
L 6106 2605 
z
" transform="scale(0.015625)"/>
      <path id="NotoSansSC-Medium-68a8" d="M 1811 480 
L 1811 1709 
L 2675 1709 
L 2675 2240 
L 1811 2240 
L 1811 3002 
L 2541 3002 
L 2541 3539 
L 762 3539 
C 902 3718 1043 3910 1165 4122 
L 2611 4122 
L 2611 4691 
L 1466 4691 
C 1549 4858 1619 5030 1670 5197 
L 1146 5357 
C 954 4774 614 4224 237 3853 
C 333 3718 474 3411 525 3283 
C 608 3360 685 3443 762 3539 
L 762 3002 
L 1248 3002 
L 1248 2240 
L 410 2240 
L 410 1709 
L 1248 1709 
L 1248 454 
C 1248 205 1094 77 979 13 
C 1069 -102 1178 -339 1216 -480 
C 1338 -365 1530 -262 2739 346 
C 2701 467 2656 704 2643 864 
L 1811 480 
z
M 3552 3443 
L 5210 3443 
L 5210 2784 
L 3552 2784 
L 3552 3443 
z
M 5210 4576 
L 5210 3930 
L 3552 3930 
L 3552 4576 
L 5210 4576 
z
M 5709 2118 
C 5491 1894 5139 1613 4838 1408 
C 4710 1670 4602 1965 4512 2272 
L 5754 2272 
L 5754 5094 
L 2970 5094 
L 2970 461 
C 2970 186 2822 32 2714 -32 
C 2797 -141 2931 -378 2976 -512 
C 3110 -416 3322 -346 4602 -6 
C 4582 128 4576 365 4576 538 
L 3552 301 
L 3552 2272 
L 4026 2272 
C 4326 1011 4864 32 5805 -461 
C 5888 -307 6054 -70 6182 45 
C 5728 243 5370 570 5088 986 
C 5408 1178 5786 1453 6080 1702 
L 5709 2118 
z
" transform="scale(0.015625)"/>
      <path id="NotoSansSC-Medium-4ab5" d="M 1587 544 
L 1587 1459 
L 4749 1459 
L 4749 544 
L 1587 544 
z
M 4749 2944 
L 4749 2022 
L 1587 2022 
L 1587 2944 
L 4749 2944 
z
M 4749 4416 
L 4749 3507 
L 1587 3507 
L 1587 4416 
L 4749 4416 
z
M 986 4998 
L 986 -461 
L 1587 -461 
L 1587 -38 
L 4749 -38 
L 4749 -461 
L 5376 -461 
L 5376 4998 
L 986 4998 
z
" transform="scale(0.015625)"/>
      <path id="NotoSansSC-Medium-3bde" d="M 5754 4922 
L 2982 4922 
L 2982 4365 
L 5754 4365 
L 5754 4922 
z
M 2669 2310 
C 2554 2470 2016 3149 1824 3360 
L 1824 3514 
L 2611 3514 
L 2611 4064 
L 1824 4064 
L 1824 5370 
L 1235 5370 
L 1235 4064 
L 307 4064 
L 307 3514 
L 1114 3514 
C 922 2758 550 1888 160 1414 
C 269 1267 422 1005 480 845 
C 762 1229 1030 1818 1235 2445 
L 1235 -506 
L 1824 -506 
L 1824 2682 
C 2016 2387 2240 2035 2336 1837 
L 2669 2310 
z
M 3072 2202 
C 2912 1536 2630 845 2291 403 
C 2426 333 2662 179 2765 90 
C 3104 582 3424 1338 3610 2074 
L 3072 2202 
z
M 6099 2854 
L 6099 3411 
L 2701 3411 
L 2701 2854 
L 4006 2854 
L 4006 237 
C 4006 154 3981 128 3891 128 
C 3808 122 3526 122 3226 134 
C 3309 -45 3386 -307 3405 -480 
C 3846 -480 4147 -467 4352 -365 
C 4557 -269 4614 -90 4614 224 
L 4614 2854 
L 6099 2854 
z
M 4947 2054 
C 5235 1414 5510 582 5594 70 
L 6138 275 
C 6035 781 5741 1594 5446 2221 
L 4947 2054 
z
" transform="scale(0.015625)"/>
      <path id="NotoSansSC-Medium-22f2" d="M 1677 5363 
C 1350 4429 813 3501 237 2899 
C 339 2758 512 2438 563 2298 
C 723 2464 870 2662 1024 2867 
L 1024 -499 
L 1619 -499 
L 1619 3827 
C 1856 4269 2061 4730 2234 5197 
L 1677 5363 
z
M 2784 1997 
C 2784 1421 2714 480 1837 -134 
C 1990 -237 2182 -422 2285 -557 
C 3245 192 3386 1248 3386 1990 
L 3386 2854 
L 2784 2854 
L 2784 1997 
z
M 4550 -493 
L 5165 -493 
L 5165 2867 
L 4550 2867 
L 4550 -493 
z
M 3763 5389 
C 3456 4570 2784 3654 1651 3040 
C 1773 2931 1946 2707 2016 2554 
C 2906 3066 3533 3738 3968 4448 
C 4454 3712 5126 3040 5792 2643 
C 5888 2790 6074 3008 6208 3117 
C 5466 3501 4704 4243 4269 4986 
C 4314 5088 4358 5184 4390 5280 
L 3763 5389 
z
" transform="scale(0.015625)"/>
      <path id="DejaVuSans-Bold-18" d="M 678 4666 
L 3669 4666 
L 3669 3781 
L 1638 3781 
L 1638 3059 
Q 1775 3097 1914 3117 
Q 2053 3138 2203 3138 
Q 3056 3138 3531 2711 
Q 4006 2284 4006 1522 
Q 4006 766 3489 337 
Q 2972 -91 2053 -91 
Q 1656 -91 1267 -14 
Q 878 63 494 219 
L 494 1166 
Q 875 947 1217 837 
Q 1559 728 1863 728 
Q 2300 728 2551 942 
Q 2803 1156 2803 1522 
Q 2803 1891 2551 2103 
Q 2300 2316 1863 2316 
Q 1603 2316 1309 2248 
Q 1016 2181 678 2041 
L 678 4666 
z
" transform="scale(0.015625)"/>
      <path id="DejaVuSans-Bold-16" d="M 2981 2516 
Q 3453 2394 3698 2092 
Q 3944 1791 3944 1325 
Q 3944 631 3412 270 
Q 2881 -91 1863 -91 
Q 1503 -91 1142 -33 
Q 781 25 428 141 
L 428 1069 
Q 766 900 1098 814 
Q 1431 728 1753 728 
Q 2231 728 2486 893 
Q 2741 1059 2741 1369 
Q 2741 1688 2480 1852 
Q 2219 2016 1709 2016 
L 1228 2016 
L 1228 2791 
L 1734 2791 
Q 2188 2791 2409 2933 
Q 2631 3075 2631 3366 
Q 2631 3634 2415 3781 
Q 2200 3928 1806 3928 
Q 1516 3928 1219 3862 
Q 922 3797 628 3669 
L 628 4550 
Q 984 4650 1334 4700 
Q 1684 4750 2022 4750 
Q 2931 4750 3382 4451 
Q 3834 4153 3834 3553 
Q 3834 3144 3618 2883 
Q 3403 2622 2981 2516 
z
" transform="scale(0.015625)"/>
      <path id="DejaVuSans-Bold-c1c" d="M 5050 2225 
L 5050 1788 
L 3822 559 
L 3369 1013 
L 3988 1631 
L 366 1631 
L 366 2381 
L 3988 2381 
L 3369 3000 
L 3822 3453 
L 5050 2225 
z
" transform="scale(0.015625)"/>
      <path id="NotoSansSC-Medium-d" d="M 506 -1280 
C 1165 -1030 1555 -512 1555 160 
C 1555 653 1344 954 986 954 
C 704 954 474 768 474 480 
C 474 173 704 6 966 6 
C 992 6 1011 6 1037 13 
C 1037 -358 781 -685 339 -864 
L 506 -1280 
z
" transform="scale(0.015625)"/>
      <path id="NotoSansSC-Medium-17" d="M 1914 2406 
C 2419 2406 2694 2067 2694 1466 
C 2694 851 2368 480 1958 480 
C 1453 480 1114 922 1037 1856 
C 1318 2259 1645 2406 1914 2406 
z
M 1965 -83 
C 2733 -83 3373 531 3373 1466 
C 3373 2458 2842 2944 2048 2944 
C 1709 2944 1299 2739 1024 2400 
C 1056 3744 1555 4198 2157 4198 
C 2432 4198 2720 4051 2893 3846 
L 3296 4294 
C 3027 4576 2643 4800 2118 4800 
C 1190 4800 339 4077 339 2266 
C 339 666 1069 -83 1965 -83 
z
" transform="scale(0.015625)"/>
     </defs>
     <use xlink:href="#NotoSansSC-Medium-4825" transform="translate(0 0.796875)"/>
     <use xlink:href="#NotoSansSC-Medium-68a8" transform="translate(99.999908 0.796875)"/>
     <use xlink:href="#NotoSansSC-Medium-4ab5" transform="translate(199.999817 0.796875)"/>
     <use xlink:href="#NotoSansSC-Medium-3bde" transform="translate(299.999725 0.796875)"/>
     <use xlink:href="#NotoSansSC-Medium-22f2" transform="translate(399.999634 0.796875)"/>
     <use xlink:href="#NotoSansSC-Medium-1" transform="translate(499.999542 0.796875)"/>
     <use xlink:href="#DejaVuSans-Bold-18" transform="translate(522.499527 0.796875)"/>
     <use xlink:href="#DejaVuSans-Bold-16" transform="translate(592.079605 0.796875)"/>
     <use xlink:href="#DejaVuSans-Bold-18" transform="translate(661.659683 0.796875)"/>
     <use xlink:href="#DejaVuSans-Bold-c1c" transform="translate(731.239761 0.796875)"/>
     <use xlink:href="#NotoSansSC-Medium-12" transform="translate(815.028824 0.796875)"/>
     <use xlink:href="#NotoSansSC-Medium-d" transform="translate(872.028763 0.796875)"/>
     <use xlink:href="#NotoSansSC-Medium-17" transform="translate(901.828735 0.796875)"/>
     <use xlink:href="#NotoSansSC-Medium-13" transform="translate(958.828674 0.796875)"/>
     <use xlink:href="#NotoSansSC-Medium-16" transform="translate(1015.828613 0.796875)"/>
    </g>
   </g>
  </g>
  <g id="text_20">
   <!-- 全球半导体板块引爆 -->
   <g style="fill: #1e293b" transform="translate(59.3 23.12) scale(0.14 -0.14)">
    <defs>
     <path id="NotoSansSC-Medium-47ca" d="M 5862 4659 
C 5702 4851 5370 5126 5094 5312 
L 4762 5005 
C 5030 4806 5350 4512 5504 4307 
L 5862 4659 
z
M 5542 3437 
C 5350 3104 5050 2688 4774 2349 
C 4666 2682 4576 3053 4506 3488 
L 4506 3750 
L 6125 3750 
L 6125 4301 
L 4506 4301 
L 4506 5363 
L 3930 5363 
L 3930 4301 
L 2413 4301 
L 2413 3750 
L 3930 3750 
L 3930 2144 
C 3386 1677 2803 1184 2381 845 
L 2304 1318 
L 1574 1094 
L 1574 2592 
L 2176 2592 
L 2176 3142 
L 1574 3142 
L 1574 4416 
L 2272 4416 
L 2272 4966 
L 294 4966 
L 294 4416 
L 1024 4416 
L 1024 3142 
L 339 3142 
L 339 2592 
L 1024 2592 
L 1024 928 
C 723 838 442 755 218 698 
L 346 128 
C 883 294 1574 512 2234 730 
L 2144 659 
L 2509 141 
C 2931 525 3437 1005 3930 1498 
L 3930 192 
C 3930 90 3891 58 3789 51 
C 3693 51 3386 45 3040 58 
C 3117 -96 3219 -358 3245 -512 
C 3738 -512 4038 -493 4237 -390 
C 4429 -294 4506 -128 4506 192 
L 4506 1619 
C 4806 947 5235 429 5862 -45 
C 5926 122 6093 307 6227 416 
C 5651 819 5261 1261 4979 1850 
C 5312 2195 5722 2720 6061 3168 
L 5542 3437 
z
M 2483 3194 
C 2746 2829 3021 2342 3117 2022 
L 3610 2259 
C 3501 2573 3213 3046 2944 3398 
L 2483 3194 
z
" transform="scale(0.015625)"/>
     <path id="NotoSansSC-Medium-3b56" d="M 2509 2310 
C 2406 2496 1933 3213 1760 3437 
L 1760 3610 
L 2483 3610 
L 2483 4160 
L 1760 4160 
L 1760 5363 
L 1203 5363 
L 1203 4160 
L 371 4160 
L 371 3610 
L 1171 3610 
C 979 2778 608 1805 205 1312 
C 307 1165 429 890 486 723 
C 749 1120 1005 1747 1203 2419 
L 1203 -506 
L 1760 -506 
L 1760 2726 
C 1920 2419 2080 2067 2157 1862 
L 2509 2310 
z
M 5190 3008 
C 5050 2413 4832 1894 4557 1453 
C 4294 1914 4090 2438 3949 3008 
L 5190 3008 
z
M 5485 3565 
L 5376 3546 
L 3309 3546 
L 3309 4333 
C 4250 4397 5293 4531 5978 4800 
L 5581 5280 
C 4922 5011 3738 4870 2726 4813 
L 2726 3283 
C 2726 2272 2662 819 1952 -192 
C 2086 -256 2342 -429 2445 -531 
C 3130 454 3283 1926 3309 3008 
L 3418 3008 
C 3597 2227 3846 1536 4192 960 
C 3814 518 3366 186 2861 -19 
C 2976 -134 3136 -358 3213 -512 
C 3718 -275 4160 45 4538 461 
C 4877 38 5293 -288 5792 -525 
C 5875 -358 6054 -128 6189 -13 
C 5677 186 5261 512 4922 934 
C 5363 1581 5690 2406 5856 3450 
L 5485 3565 
z
" transform="scale(0.015625)"/>
     <path id="NotoSansSC-Medium-2b42" d="M 2272 1958 
C 2061 1862 1837 1773 1626 1683 
L 1626 3302 
L 2298 3302 
L 2298 3866 
L 1626 3866 
L 1626 5286 
L 1075 5286 
L 1075 3866 
L 346 3866 
L 346 3302 
L 1075 3302 
L 1075 1453 
C 762 1325 474 1210 243 1133 
L 474 531 
C 1037 787 1747 1114 2413 1434 
L 2272 1958 
z
M 4211 3770 
L 5069 3770 
L 5069 2483 
L 4192 2483 
C 4205 2688 4211 2899 4211 3104 
L 4211 3770 
z
M 6054 1920 
L 6054 2483 
L 5626 2483 
L 5626 4326 
L 4211 4326 
L 4211 5299 
L 3635 5299 
L 3635 4326 
L 2579 4326 
L 2579 3770 
L 3635 3770 
L 3635 3110 
C 3635 2906 3629 2688 3610 2483 
L 2400 2483 
L 2400 1920 
L 3526 1920 
C 3347 1152 2899 454 1811 -64 
C 1946 -160 2131 -384 2214 -518 
C 3360 38 3853 806 4064 1645 
C 4390 659 4922 -102 5754 -512 
C 5837 -352 6029 -115 6163 13 
C 5357 346 4819 1043 4525 1920 
L 6054 1920 
z
" transform="scale(0.015625)"/>
     <path id="NotoSansSC-Medium-32f5" d="M 1286 2240 
C 1338 2509 1389 2816 1440 3110 
L 3501 3110 
L 3501 5107 
L 717 5107 
L 717 4557 
L 2912 4557 
L 2912 3667 
L 909 3667 
C 832 3027 685 2208 563 1690 
L 2899 1690 
C 2816 736 2726 314 2586 192 
C 2509 134 2432 122 2298 122 
C 2138 122 1728 128 1318 166 
C 1440 -13 1523 -262 1536 -448 
C 1939 -474 2330 -474 2534 -454 
C 2784 -435 2944 -390 3098 -224 
C 3315 0 3424 589 3533 1978 
C 3546 2061 3552 2240 3552 2240 
L 1286 2240 
z
M 4909 5286 
L 4909 -506 
L 5504 -506 
L 5504 5286 
L 4909 5286 
z
" transform="scale(0.015625)"/>
     <path id="NotoSansSC-Medium-45d1" d="M 1920 4243 
C 1856 3853 1722 3270 1613 2912 
L 1933 2784 
C 2054 3117 2208 3654 2349 4077 
L 1920 4243 
z
M 512 4058 
C 486 3552 390 2886 243 2490 
L 614 2355 
C 768 2797 864 3501 877 4019 
L 512 4058 
z
M 2266 576 
C 2144 749 1677 1466 1466 1754 
C 1523 2214 1536 2675 1536 3142 
L 1536 5325 
L 1043 5325 
L 1043 3149 
C 1043 2010 960 832 237 -96 
C 346 -173 525 -346 595 -461 
C 992 19 1222 550 1357 1120 
C 1549 794 1766 416 1882 186 
L 2266 576 
z
M 5018 1286 
C 4902 1126 4717 902 4557 723 
L 4403 781 
L 4403 1683 
L 3878 1683 
L 3878 781 
C 3238 531 2592 288 2150 134 
L 2349 -282 
C 2784 -96 3341 134 3878 378 
L 3878 6 
C 3878 -64 3853 -77 3782 -83 
C 3712 -90 3475 -90 3232 -77 
C 3302 -198 3379 -378 3411 -512 
C 3782 -512 4019 -512 4192 -435 
C 4365 -365 4403 -250 4403 -6 
L 4403 346 
C 4870 134 5325 -109 5606 -307 
L 5926 45 
C 5677 198 5312 390 4922 563 
C 5075 710 5235 896 5376 1062 
L 5018 1286 
z
M 3680 883 
C 3597 1024 3418 1222 3264 1350 
L 2912 1126 
C 3066 979 3232 768 3309 634 
L 3680 883 
z
M 3686 2675 
L 4544 2675 
L 4544 2291 
L 3686 2291 
L 3686 2675 
z
M 3686 3430 
L 4544 3430 
L 4544 3098 
L 3686 3098 
L 3686 3430 
z
M 3059 4128 
L 5229 4128 
L 5229 3814 
L 3059 3814 
L 3059 4128 
z
M 3059 4813 
L 5229 4813 
L 5229 4493 
L 3059 4493 
L 3059 4813 
z
M 6080 1862 
L 6080 2291 
L 5088 2291 
L 5088 2675 
L 5901 2675 
L 5901 3098 
L 5088 3098 
L 5088 3430 
L 5766 3430 
L 5766 5197 
L 2541 5197 
L 2541 3430 
L 3149 3430 
L 3149 3098 
L 2368 3098 
L 2368 2675 
L 3149 2675 
L 3149 2291 
L 2157 2291 
L 2157 1862 
L 3053 1862 
C 2765 1626 2374 1402 2035 1280 
C 2138 1197 2285 1030 2355 915 
C 2797 1107 3315 1498 3610 1862 
L 4768 1862 
C 5037 1472 5498 1082 5926 877 
C 5997 992 6138 1146 6240 1235 
C 5894 1363 5510 1606 5248 1862 
L 6080 1862 
z
" transform="scale(0.015625)"/>
    </defs>
    <use xlink:href="#NotoSansSC-Medium-2563"/>
    <use xlink:href="#NotoSansSC-Medium-47ca" transform="translate(100 0)"/>
    <use xlink:href="#NotoSansSC-Medium-273f" transform="translate(200 0)"/>
    <use xlink:href="#NotoSansSC-Medium-2fe1" transform="translate(300 0)"/>
    <use xlink:href="#NotoSansSC-Medium-234e" transform="translate(400 0)"/>
    <use xlink:href="#NotoSansSC-Medium-3b56" transform="translate(500 0)"/>
    <use xlink:href="#NotoSansSC-Medium-2b42" transform="translate(600 0)"/>
    <use xlink:href="#NotoSansSC-Medium-32f5" transform="translate(700 0)"/>
    <use xlink:href="#NotoSansSC-Medium-45d1" transform="translate(800 0)"/>
   </g>
  </g>
  <g id="text_21">
   <!-- 2026年5月26-27日 · 美光HBM产能全年售罄 -->
   <g style="fill: #64748b" transform="translate(59.3 43.664) scale(0.09 -0.09)">
    <defs>
     <path id="NotoSansSC-Medium-3ae0" d="M 1843 2010 
C 1882 2342 1901 2662 1901 2957 
L 4653 2957 
L 4653 2010 
L 1843 2010 
z
M 4653 4474 
L 4653 3526 
L 1901 3526 
L 1901 4474 
L 4653 4474 
z
M 5280 5050 
L 1293 5050 
L 1293 3040 
C 1293 2035 1197 781 198 -77 
C 333 -166 563 -384 653 -512 
C 1261 6 1581 717 1747 1434 
L 4653 1434 
L 4653 314 
C 4653 179 4602 128 4461 128 
C 4307 122 3795 115 3296 141 
C 3398 -26 3514 -314 3552 -486 
C 4218 -486 4653 -474 4922 -365 
C 5178 -269 5280 -83 5280 301 
L 5280 5050 
z
" transform="scale(0.015625)"/>
     <path id="NotoSansSC-Medium-e" d="M 301 1536 
L 1990 1536 
L 1990 2080 
L 301 2080 
L 301 1536 
z
" transform="scale(0.015625)"/>
     <path id="NotoSansSC-Medium-39bf" d="M 1702 582 
L 1702 2208 
L 4717 2208 
L 4717 582 
L 1702 582 
z
M 4717 4358 
L 4717 2797 
L 1702 2797 
L 1702 4358 
L 4717 4358 
z
M 1094 4960 
L 1094 -435 
L 1702 -435 
L 1702 -19 
L 4717 -19 
L 4717 -410 
L 5350 -410 
L 5350 4960 
L 1094 4960 
z
" transform="scale(0.015625)"/>
     <path id="NotoSansSC-Medium-561" d="M 3200 3174 
C 2790 3174 2458 2842 2458 2432 
C 2458 2022 2790 1690 3200 1690 
C 3610 1690 3942 2022 3942 2432 
C 3942 2842 3610 3174 3200 3174 
z
" transform="scale(0.015625)"/>
    </defs>
    <use xlink:href="#NotoSansSC-Medium-13"/>
    <use xlink:href="#NotoSansSC-Medium-11" transform="translate(57 0)"/>
    <use xlink:href="#NotoSansSC-Medium-13" transform="translate(114 0)"/>
    <use xlink:href="#NotoSansSC-Medium-17" transform="translate(171 0)"/>
    <use xlink:href="#NotoSansSC-Medium-3254" transform="translate(228 0)"/>
    <use xlink:href="#NotoSansSC-Medium-16" transform="translate(328 0)"/>
    <use xlink:href="#NotoSansSC-Medium-3ae0" transform="translate(385 0)"/>
    <use xlink:href="#NotoSansSC-Medium-13" transform="translate(485 0)"/>
    <use xlink:href="#NotoSansSC-Medium-17" transform="translate(542 0)"/>
    <use xlink:href="#NotoSansSC-Medium-e" transform="translate(599 0)"/>
    <use xlink:href="#NotoSansSC-Medium-13" transform="translate(634.703125 0)"/>
    <use xlink:href="#NotoSansSC-Medium-18" transform="translate(691.703125 0)"/>
    <use xlink:href="#NotoSansSC-Medium-39bf" transform="translate(748.703125 0)"/>
    <use xlink:href="#NotoSansSC-Medium-1" transform="translate(848.703125 0)"/>
    <use xlink:href="#NotoSansSC-Medium-561" transform="translate(871.203125 0)"/>
    <use xlink:href="#NotoSansSC-Medium-1" transform="translate(971.203125 0)"/>
    <use xlink:href="#NotoSansSC-Medium-5350" transform="translate(993.703125 0)"/>
    <use xlink:href="#NotoSansSC-Medium-2544" transform="translate(1093.703125 0)"/>
    <use xlink:href="#NotoSansSC-Medium-29" transform="translate(1193.703125 0)"/>
    <use xlink:href="#NotoSansSC-Medium-23" transform="translate(1267.703125 0)"/>
    <use xlink:href="#NotoSansSC-Medium-2e" transform="translate(1334.40625 0)"/>
    <use xlink:href="#NotoSansSC-Medium-22a2" transform="translate(1417.40625 0)"/>
    <use xlink:href="#NotoSansSC-Medium-54bb" transform="translate(1517.40625 0)"/>
    <use xlink:href="#NotoSansSC-Medium-2563" transform="translate(1617.40625 0)"/>
    <use xlink:href="#NotoSansSC-Medium-3254" transform="translate(1717.40625 0)"/>
    <use xlink:href="#NotoSansSC-Medium-291e" transform="translate(1817.40625 0)"/>
    <use xlink:href="#NotoSansSC-Medium-5305" transform="translate(1917.40625 0)"/>
   </g>
  </g>
  <g id="text_22">
   <!-- 来源: 各公司披露 / Bloomberg · 2026-05-27 -->
   <g style="fill: #94a3b8" transform="translate(59.3 268.066297) scale(0.065 -0.065)">
    <defs>
     <path id="NotoSansSC-Medium-3b3c" d="M 6029 2003 
L 6029 2579 
L 3514 2579 
L 3514 4064 
L 5773 4064 
L 5773 4634 
L 3514 4634 
L 3514 5370 
L 2886 5370 
L 2886 4634 
L 678 4634 
L 678 4064 
L 2886 4064 
L 2886 2579 
L 378 2579 
L 378 2003 
L 2515 2003 
C 1939 1274 1056 595 224 243 
C 358 122 550 -102 646 -256 
C 1453 147 2285 851 2886 1638 
L 2886 -506 
L 3514 -506 
L 3514 1651 
C 4115 858 4947 134 5760 -275 
C 5856 -115 6048 109 6176 230 
C 5350 589 4467 1274 3904 2003 
L 6029 2003 
z
M 1158 3789 
C 1395 3418 1619 2912 1696 2598 
L 2259 2822 
C 2176 3142 1926 3622 1683 3987 
L 1158 3789 
z
M 4672 2592 
C 4890 2899 5158 3386 5382 3821 
L 4762 4006 
C 4621 3629 4371 3104 4160 2765 
L 4672 2592 
z
" transform="scale(0.015625)"/>
     <path id="NotoSansSC-Medium-4260" d="M 1965 4659 
C 1715 4838 1229 5120 902 5306 
L 550 4883 
C 890 4672 1363 4371 1600 4186 
L 1965 4659 
z
M 1658 2989 
C 1402 3162 922 3430 589 3603 
L 243 3181 
C 589 2982 1062 2688 1299 2515 
L 1658 2989 
z
M 1293 1958 
C 1011 1222 627 403 358 -96 
L 896 -422 
C 1190 186 1517 954 1766 1626 
L 1293 1958 
z
M 2733 4512 
L 6067 4512 
L 6067 5050 
L 2150 5050 
L 2150 3302 
C 2150 2266 2086 826 1370 -173 
C 1510 -237 1766 -390 1869 -486 
C 2618 570 2733 2189 2733 3302 
L 2733 4512 
z
M 3213 1312 
C 3046 902 2771 454 2496 154 
C 2630 83 2861 -58 2970 -134 
C 3232 186 3539 704 3744 1165 
L 3213 1312 
z
M 3571 2534 
L 5299 2534 
L 5299 2067 
L 3571 2067 
L 3571 2534 
z
M 3571 3418 
L 5299 3418 
L 5299 2957 
L 3571 2957 
L 3571 3418 
z
M 5856 1626 
L 5856 3866 
L 4544 3866 
C 4621 4019 4710 4179 4794 4352 
L 4128 4474 
C 4090 4301 4019 4064 3955 3866 
L 3040 3866 
L 3040 1626 
L 4122 1626 
L 4122 102 
C 4122 32 4096 6 4019 6 
C 3942 6 3680 0 3411 13 
C 3469 -134 3546 -352 3565 -499 
C 3981 -506 4262 -499 4448 -410 
C 4640 -333 4685 -186 4685 83 
L 4685 1626 
L 5856 1626 
z
M 5005 1178 
C 5235 774 5517 237 5651 -83 
L 6195 154 
C 6054 467 5754 986 5517 1370 
L 5005 1178 
z
" transform="scale(0.015625)"/>
     <path id="NotoSansSC-Medium-1b" d="M 954 2432 
C 1229 2432 1446 2650 1446 2944 
C 1446 3245 1229 3469 954 3469 
C 678 3469 461 3245 461 2944 
C 461 2650 678 2432 954 2432 
z
M 954 -83 
C 1229 -83 1446 128 1446 429 
C 1446 736 1229 954 954 954 
C 678 954 461 736 461 429 
C 461 128 678 -83 954 -83 
z
" transform="scale(0.015625)"/>
     <path id="NotoSansSC-Medium-27f5" d="M 4480 1267 
L 4480 275 
L 1907 275 
L 1907 1267 
L 4480 1267 
z
M 1306 -518 
L 1907 -518 
L 1907 -250 
L 4480 -250 
L 4480 -499 
L 5114 -499 
L 5114 1805 
L 1306 1805 
L 1306 -518 
z
M 2163 4211 
L 4365 4211 
C 4064 3872 3674 3571 3238 3302 
C 2810 3565 2438 3866 2144 4186 
L 2163 4211 
z
M 4915 4762 
L 4813 4730 
L 2605 4730 
C 2726 4890 2842 5062 2944 5229 
L 2381 5427 
C 1933 4653 1158 3949 358 3514 
C 493 3411 710 3187 806 3072 
C 1133 3277 1453 3526 1760 3808 
C 2042 3514 2349 3238 2694 2995 
C 1907 2605 1030 2317 205 2150 
C 314 2022 442 1773 499 1619 
C 1421 1824 2387 2163 3238 2637 
C 4006 2182 4896 1843 5824 1651 
C 5901 1811 6074 2061 6208 2202 
C 5350 2349 4525 2624 3808 2982 
C 4435 3398 4966 3904 5331 4486 
L 4915 4762 
z
" transform="scale(0.015625)"/>
     <path id="NotoSansSC-Medium-2567" d="M 2010 5197 
C 1651 4269 1024 3366 326 2816 
C 480 2714 762 2509 877 2387 
C 1562 3008 2240 3987 2656 5024 
L 2010 5197 
z
M 3853 1747 
C 4077 1459 4314 1120 4538 787 
L 1843 627 
C 2451 1338 3059 2246 3552 3181 
L 2906 3456 
C 2413 2400 1638 1293 1382 1011 
C 1146 723 979 544 794 499 
C 883 320 992 -6 1030 -134 
C 1299 -26 1683 -6 4902 237 
C 5075 -26 5216 -282 5318 -486 
L 5907 -160 
C 5594 422 4966 1318 4422 2003 
L 3853 1747 
z
M 3725 5011 
C 4211 4070 5005 3021 5658 2387 
C 5773 2547 5997 2778 6150 2899 
C 5504 3437 4717 4416 4314 5248 
L 3725 5011 
z
" transform="scale(0.015625)"/>
     <path id="NotoSansSC-Medium-27e9" d="M 3424 2195 
L 3424 1152 
L 1568 1152 
L 1568 2195 
L 3424 2195 
z
M 4006 634 
L 4006 2707 
L 992 2707 
L 992 166 
L 1568 166 
L 1568 634 
L 4006 634 
z
M 4403 3827 
L 621 3827 
L 621 3302 
L 4403 3302 
L 4403 3827 
z
M 5702 4973 
L 570 4973 
L 570 4403 
L 5094 4403 
L 5094 320 
C 5094 198 5056 166 4934 160 
C 4813 154 4384 154 3974 173 
C 4058 0 4154 -301 4179 -474 
C 4749 -480 5146 -467 5389 -358 
C 5626 -262 5702 -64 5702 314 
L 5702 4973 
z
" transform="scale(0.015625)"/>
     <path id="NotoSansSC-Medium-368a" d="M 2272 2080 
L 2195 2618 
L 1626 2458 
L 1626 3571 
L 2246 3571 
L 2246 4122 
L 1626 4122 
L 1626 5357 
L 1082 5357 
L 1082 4122 
L 326 4122 
L 326 3571 
L 1082 3571 
L 1082 2298 
C 762 2208 474 2125 237 2067 
L 378 1491 
L 1082 1709 
L 1082 211 
C 1082 122 1050 96 973 96 
C 902 96 659 96 403 102 
C 480 -51 550 -307 570 -448 
C 966 -448 1229 -429 1402 -333 
C 1568 -243 1626 -83 1626 211 
L 1626 1882 
L 2272 2080 
z
M 3923 3910 
L 3923 2899 
L 3059 2899 
L 3059 3910 
L 3923 3910 
z
M 5126 2374 
C 4954 1888 4691 1466 4371 1107 
C 4045 1472 3782 1894 3603 2374 
L 5126 2374 
z
M 5466 2925 
L 5357 2899 
L 4499 2899 
L 4499 3910 
L 5370 3910 
C 5306 3642 5235 3379 5165 3181 
L 5683 3066 
C 5824 3405 5978 3930 6099 4390 
L 5664 4486 
L 5574 4467 
L 4499 4467 
L 4499 5363 
L 3923 5363 
L 3923 4467 
L 2496 4467 
L 2496 2784 
C 2496 1914 2432 736 1773 -83 
C 1901 -154 2138 -352 2227 -461 
C 2848 301 3014 1440 3053 2349 
C 3277 1722 3578 1171 3968 717 
C 3565 384 3091 141 2598 -19 
C 2707 -134 2854 -352 2918 -499 
C 3450 -307 3942 -38 4358 314 
C 4768 -38 5254 -314 5818 -493 
C 5901 -326 6067 -90 6202 19 
C 5651 173 5184 410 4787 723 
C 5267 1248 5626 1926 5837 2778 
L 5466 2925 
z
" transform="scale(0.015625)"/>
     <path id="NotoSansSC-Medium-6ae2" d="M 1011 4045 
L 2893 4045 
L 2893 2854 
L 3469 2854 
L 3469 4045 
L 5370 4045 
L 5370 3334 
L 5920 3334 
L 5920 4435 
L 3469 4435 
L 3469 4704 
L 5523 4704 
L 5523 5133 
L 883 5133 
L 883 4704 
L 2893 4704 
L 2893 4435 
L 480 4435 
L 480 3334 
L 1011 3334 
L 1011 4045 
z
M 3782 2950 
L 5197 2950 
L 5197 3264 
L 3782 3264 
L 3782 2950 
z
M 3782 3821 
L 3782 3507 
L 5062 3507 
L 5062 3821 
L 3782 3821 
z
M 2586 3821 
L 1318 3821 
L 1318 3507 
L 2586 3507 
L 2586 3821 
z
M 1178 2950 
L 2579 2950 
L 2579 3264 
L 1178 3264 
L 1178 2950 
z
M 3712 902 
C 3974 1005 4237 1126 4480 1267 
C 4730 1120 5005 998 5293 902 
L 3712 902 
z
M 3930 26 
L 3930 531 
L 5030 531 
L 5030 26 
L 3930 26 
z
M 2061 1094 
L 2061 1459 
L 2810 1459 
L 2810 1914 
C 2918 1850 3053 1722 3130 1619 
C 3309 1722 3475 1837 3622 1958 
C 3757 1805 3904 1664 4070 1536 
C 3686 1338 3251 1184 2829 1094 
L 2061 1094 
z
M 1229 2310 
L 2304 2310 
L 2304 1843 
L 1229 1843 
L 1229 2310 
z
M 5024 2253 
C 4877 2080 4685 1914 4474 1773 
C 4256 1907 4070 2061 3923 2227 
L 3949 2253 
L 5024 2253 
z
M 5408 2650 
L 5325 2624 
L 4256 2624 
C 4314 2701 4365 2778 4410 2854 
L 3949 2931 
C 3744 2579 3354 2202 2810 1926 
L 2810 2701 
L 749 2701 
L 749 1459 
L 1549 1459 
L 1549 102 
L 1146 70 
L 1146 1261 
L 691 1261 
L 691 32 
L 365 6 
L 416 -454 
C 1107 -397 2080 -301 3008 -198 
L 3002 237 
L 2061 154 
L 2061 678 
L 2842 678 
L 2842 998 
C 2918 902 3002 781 3040 685 
C 3168 717 3290 755 3418 800 
L 3418 -506 
L 3930 -506 
L 3930 -358 
L 5030 -358 
L 5030 -493 
L 5555 -493 
L 5555 826 
C 5670 794 5786 768 5907 742 
C 5971 877 6112 1069 6214 1165 
C 5741 1235 5293 1370 4902 1542 
C 5242 1805 5536 2112 5728 2477 
L 5408 2650 
z
" transform="scale(0.015625)"/>
     <path id="NotoSansSC-Medium-10" d="M 77 -1152 
L 589 -1152 
L 2368 5114 
L 1856 5114 
L 77 -1152 
z
" transform="scale(0.015625)"/>
     <path id="NotoSansSC-Medium-4d" d="M 1286 -83 
C 1472 -83 1594 -58 1683 -26 
L 1587 531 
C 1523 518 1498 518 1466 518 
C 1376 518 1293 589 1293 787 
L 1293 5101 
L 557 5101 
L 557 826 
C 557 256 755 -83 1286 -83 
z
" transform="scale(0.015625)"/>
     <path id="NotoSansSC-Medium-50" d="M 1965 -83 
C 2835 -83 3622 589 3622 1760 
C 3622 2931 2835 3610 1965 3610 
C 1094 3610 307 2931 307 1760 
C 307 589 1094 -83 1965 -83 
z
M 1965 518 
C 1414 518 1069 1011 1069 1760 
C 1069 2502 1414 3002 1965 3002 
C 2522 3002 2867 2502 2867 1760 
C 2867 1011 2522 518 1965 518 
z
" transform="scale(0.015625)"/>
     <path id="NotoSansSC-Medium-4e" d="M 557 0 
L 1293 0 
L 1293 2496 
C 1581 2816 1843 2976 2080 2976 
C 2483 2976 2669 2733 2669 2125 
L 2669 0 
L 3405 0 
L 3405 2496 
C 3699 2816 3955 2976 4198 2976 
C 4595 2976 4787 2733 4787 2125 
L 4787 0 
L 5523 0 
L 5523 2214 
C 5523 3110 5178 3610 4442 3610 
C 4000 3610 3642 3334 3296 2963 
C 3142 3366 2848 3610 2323 3610 
C 1888 3610 1536 3347 1235 3027 
L 1216 3027 
L 1158 3520 
L 557 3520 
L 557 0 
z
" transform="scale(0.015625)"/>
     <path id="NotoSansSC-Medium-43" d="M 2195 -83 
C 2989 -83 3712 608 3712 1818 
C 3712 2899 3206 3610 2317 3610 
C 1946 3610 1568 3411 1267 3149 
L 1293 3750 
L 1293 5101 
L 557 5101 
L 557 0 
L 1133 0 
L 1203 365 
L 1222 365 
C 1523 83 1875 -83 2195 -83 
z
M 2054 525 
C 1837 525 1562 608 1293 845 
L 1293 2566 
C 1581 2854 1850 2995 2125 2995 
C 2714 2995 2950 2541 2950 1805 
C 2950 979 2566 525 2054 525 
z
" transform="scale(0.015625)"/>
     <path id="NotoSansSC-Medium-46" d="M 2022 -83 
C 2483 -83 2886 70 3213 288 
L 2957 755 
C 2701 589 2432 493 2118 493 
C 1510 493 1088 896 1030 1568 
L 3315 1568 
C 3334 1658 3354 1798 3354 1946 
C 3354 2938 2848 3610 1914 3610 
C 1094 3610 307 2899 307 1760 
C 307 595 1069 -83 2022 -83 
z
M 1024 2080 
C 1094 2694 1485 3034 1926 3034 
C 2438 3034 2714 2682 2714 2080 
L 1024 2080 
z
" transform="scale(0.015625)"/>
     <path id="NotoSansSC-Medium-53" d="M 557 0 
L 1293 0 
L 1293 2195 
C 1510 2752 1856 2950 2144 2950 
C 2285 2950 2374 2931 2496 2893 
L 2630 3533 
C 2522 3584 2406 3610 2234 3610 
C 1856 3610 1485 3341 1235 2886 
L 1216 2886 
L 1158 3520 
L 557 3520 
L 557 0 
z
" transform="scale(0.015625)"/>
     <path id="NotoSansSC-Medium-48" d="M 1760 -1581 
C 2886 -1581 3603 -1030 3603 -352 
C 3603 250 3168 506 2336 506 
L 1690 506 
C 1242 506 1101 640 1101 851 
C 1101 1024 1178 1120 1293 1222 
C 1446 1152 1626 1114 1786 1114 
C 2522 1114 3104 1555 3104 2323 
C 3104 2592 3008 2829 2874 2970 
L 3546 2970 
L 3546 3520 
L 2298 3520 
C 2163 3571 1984 3610 1786 3610 
C 1056 3610 422 3142 422 2349 
C 422 1926 646 1594 890 1408 
L 890 1382 
C 691 1242 493 1005 493 730 
C 493 442 634 256 813 147 
L 813 115 
C 486 -83 301 -358 301 -653 
C 301 -1267 915 -1581 1760 -1581 
z
M 1786 1587 
C 1421 1587 1120 1875 1120 2349 
C 1120 2822 1414 3091 1786 3091 
C 2157 3091 2451 2816 2451 2349 
C 2451 1875 2150 1587 1786 1587 
z
M 1869 -1094 
C 1286 -1094 928 -890 928 -544 
C 928 -365 1018 -186 1229 -32 
C 1376 -64 1536 -83 1702 -83 
L 2234 -83 
C 2662 -83 2893 -173 2893 -467 
C 2893 -794 2483 -1094 1869 -1094 
z
" transform="scale(0.015625)"/>
     <path id="NotoSansSC-Medium-76ec" d="M 282 0 
L 3322 0 
L 3322 627 
L 2125 627 
C 1894 627 1594 608 1357 582 
C 2336 1606 3098 2451 3098 3290 
C 3098 4122 2541 4672 1677 4672 
C 1062 4672 646 4403 243 3968 
L 659 3558 
C 909 3846 1216 4083 1587 4083 
C 2118 4083 2387 3750 2387 3251 
C 2387 2534 1594 1715 282 429 
L 282 0 
z
" transform="scale(0.015625)"/>
     <path id="NotoSansSC-Medium-76ea" d="M 1824 -83 
C 2765 -83 3347 768 3347 2310 
C 3347 3846 2765 4672 1824 4672 
C 890 4672 301 3853 301 2310 
C 301 768 890 -83 1824 -83 
z
M 1824 499 
C 1344 499 1005 992 1005 2310 
C 1005 3629 1344 4090 1824 4090 
C 2304 4090 2643 3629 2643 2310 
C 2643 992 2304 499 1824 499 
z
" transform="scale(0.015625)"/>
     <path id="NotoSansSC-Medium-76f0" d="M 1907 2285 
C 2406 2285 2688 1971 2688 1408 
C 2688 826 2362 480 1952 480 
C 1453 480 1114 877 1037 1728 
C 1318 2138 1645 2285 1907 2285 
z
M 1958 -83 
C 2726 -83 3366 506 3366 1408 
C 3366 2355 2829 2822 2042 2822 
C 1702 2822 1293 2611 1018 2272 
C 1050 3616 1549 4064 2144 4064 
C 2426 4064 2714 3923 2886 3718 
L 3290 4166 
C 3021 4448 2637 4672 2112 4672 
C 1178 4672 333 3942 333 2138 
C 333 627 1062 -83 1958 -83 
z
" transform="scale(0.015625)"/>
     <path id="NotoSansSC-Medium-76ef" d="M 1715 -83 
C 2541 -83 3302 480 3302 1485 
C 3302 2470 2656 2912 1869 2912 
C 1613 2912 1427 2854 1222 2752 
L 1331 3962 
L 3078 3962 
L 3078 4582 
L 691 4582 
L 550 2342 
L 909 2112 
C 1184 2291 1363 2381 1664 2381 
C 2202 2381 2560 2042 2560 1459 
C 2560 877 2157 518 1626 518 
C 1133 518 794 755 525 1024 
L 173 544 
C 506 218 973 -83 1715 -83 
z
" transform="scale(0.015625)"/>
     <path id="NotoSansSC-Medium-76f1" d="M 1235 0 
L 1990 0 
C 2067 1786 2266 2784 3347 4134 
L 3347 4582 
L 314 4582 
L 314 3962 
L 2528 3962 
C 1638 2720 1318 1664 1235 0 
z
" transform="scale(0.015625)"/>
    </defs>
    <use xlink:href="#NotoSansSC-Medium-3b3c"/>
    <use xlink:href="#NotoSansSC-Medium-4260" transform="translate(100 0)"/>
    <use xlink:href="#NotoSansSC-Medium-1b" transform="translate(200 0)"/>
    <use xlink:href="#NotoSansSC-Medium-1" transform="translate(229.796875 0)"/>
    <use xlink:href="#NotoSansSC-Medium-27f5" transform="translate(252.296875 0)"/>
    <use xlink:href="#NotoSansSC-Medium-2567" transform="translate(352.296875 0)"/>
    <use xlink:href="#NotoSansSC-Medium-27e9" transform="translate(452.296875 0)"/>
    <use xlink:href="#NotoSansSC-Medium-368a" transform="translate(552.296875 0)"/>
    <use xlink:href="#NotoSansSC-Medium-6ae2" transform="translate(652.296875 0)"/>
    <use xlink:href="#NotoSansSC-Medium-1" transform="translate(752.296875 0)"/>
    <use xlink:href="#NotoSansSC-Medium-10" transform="translate(774.796875 0)"/>
    <use xlink:href="#NotoSansSC-Medium-1" transform="translate(813.796875 0)"/>
    <use xlink:href="#NotoSansSC-Medium-23" transform="translate(836.296875 0)"/>
    <use xlink:href="#NotoSansSC-Medium-4d" transform="translate(903 0)"/>
    <use xlink:href="#NotoSansSC-Medium-50" transform="translate(932.796875 0)"/>
    <use xlink:href="#NotoSansSC-Medium-50" transform="translate(994.203125 0)"/>
    <use xlink:href="#NotoSansSC-Medium-4e" transform="translate(1055.609375 0)"/>
    <use xlink:href="#NotoSansSC-Medium-43" transform="translate(1149.8125 0)"/>
    <use xlink:href="#NotoSansSC-Medium-46" transform="translate(1212.71875 0)"/>
    <use xlink:href="#NotoSansSC-Medium-53" transform="translate(1269.21875 0)"/>
    <use xlink:href="#NotoSansSC-Medium-48" transform="translate(1309.03125 0)"/>
    <use xlink:href="#NotoSansSC-Medium-1" transform="translate(1366.828125 0)"/>
    <use xlink:href="#NotoSansSC-Medium-561" transform="translate(1389.328125 0)"/>
    <use xlink:href="#NotoSansSC-Medium-1" transform="translate(1489.328125 0)"/>
    <use xlink:href="#NotoSansSC-Medium-76ec" transform="translate(1511.828125 0)"/>
    <use xlink:href="#NotoSansSC-Medium-76ea" transform="translate(1568.828125 0)"/>
    <use xlink:href="#NotoSansSC-Medium-76ec" transform="translate(1625.828125 0)"/>
    <use xlink:href="#NotoSansSC-Medium-76f0" transform="translate(1682.828125 0)"/>
    <use xlink:href="#NotoSansSC-Medium-e" transform="translate(1739.828125 0)"/>
    <use xlink:href="#NotoSansSC-Medium-76ea" transform="translate(1775.53125 0)"/>
    <use xlink:href="#NotoSansSC-Medium-76ef" transform="translate(1832.53125 0)"/>
    <use xlink:href="#NotoSansSC-Medium-e" transform="translate(1889.53125 0)"/>
    <use xlink:href="#NotoSansSC-Medium-76ec" transform="translate(1925.234375 0)"/>
    <use xlink:href="#NotoSansSC-Medium-76f1" transform="translate(1982.234375 0)"/>
   </g>
  </g>
 </g>
 <defs>
  <clipPath id="p3aa7386edd">
   <rect x="59.3" y="79.52" width="314.82" height="175.104"/>
  </clipPath>
 </defs>
</svg>
