<?xml version="1.0" encoding="utf-8" standalone="no"?>
<!DOCTYPE svg PUBLIC "-//W3C//DTD SVG 1.1//EN"
  "http://www.w3.org/Graphics/SVG/1.1/DTD/svg11.dtd">
<svg xmlns:xlink="http://www.w3.org/1999/xlink" width="388.75pt" height="243.952344pt" viewBox="0 0 388.75 243.952344" xmlns="http://www.w3.org/2000/svg" version="1.1">
 <metadata>
  <rdf:RDF xmlns:dc="http://purl.org/dc/elements/1.1/" xmlns:cc="http://creativecommons.org/ns#" xmlns:rdf="http://www.w3.org/1999/02/22-rdf-syntax-ns#">
   <cc:Work>
    <dc:type rdf:resource="http://purl.org/dc/dcmitype/StillImage"/>
    <dc:date>2026-05-27T13:34:19.724624</dc:date>
    <dc:format>image/svg+xml</dc:format>
    <dc:creator>
     <cc:Agent>
      <dc:title>Matplotlib v3.10.9, https://matplotlib.org/</dc:title>
     </cc:Agent>
    </dc:creator>
   </cc:Work>
  </rdf:RDF>
 </metadata>
 <defs>
  <style type="text/css">*{stroke-linejoin: round; stroke-linecap: butt}</style>
 </defs>
 <g id="figure_1">
  <g id="patch_1">
   <path d="M 0 243.952344 
L 388.75 243.952344 
L 388.75 0 
L 0 0 
z
" style="fill: #f8fafc"/>
  </g>
  <g id="axes_1">
   <g id="patch_2">
    <path d="M 53.7 208.622813 
L 381.55 208.622813 
L 381.55 31.522813 
L 53.7 31.522813 
z
" style="fill: #f8fafc"/>
   </g>
   <g id="matplotlib.axis_1">
    <g id="xtick_1">
     <g id="line2d_1">
      <path d="M 53.7 208.622813 
L 53.7 31.522813 
" clip-path="url(#pd148a078fa)" style="fill: none; stroke: #64748b; stroke-opacity: 0.15; stroke-width: 0.5; stroke-linecap: square"/>
     </g>
     <g id="line2d_2">
      <defs>
       <path id="mac5f4ccd05" d="M 0 0 
L 0 3 
" style="stroke: #64748b; stroke-width: 0.5"/>
      </defs>
      <g>
       <use xlink:href="#mac5f4ccd05" x="53.7" y="208.622813" style="fill: #64748b; stroke: #64748b; stroke-width: 0.5"/>
      </g>
     </g>
     <g id="text_1">
      <!-- 0 -->
      <g style="fill: #64748b" transform="translate(51.61625 221.475313) scale(0.08 -0.08)">
       <defs>
        <path id="NotoSansSC-Thin-30" d="M 1670 -83 
Q 1261 -83 963 179 
Q 666 442 509 979 
Q 352 1517 352 2336 
Q 352 3149 509 3677 
Q 666 4205 963 4467 
Q 1261 4730 1670 4730 
Q 2080 4730 2371 4467 
Q 2662 4205 2822 3677 
Q 2982 3149 2982 2336 
Q 2982 1517 2822 979 
Q 2662 442 2371 179 
Q 2080 -83 1670 -83 
z
M 1670 128 
Q 1997 128 2240 384 
Q 2483 640 2614 1133 
Q 2746 1626 2746 2336 
Q 2746 3040 2614 3529 
Q 2483 4019 2240 4272 
Q 1997 4525 1670 4525 
Q 1344 4525 1101 4272 
Q 858 4019 723 3529 
Q 589 3040 589 2336 
Q 589 1626 723 1133 
Q 858 640 1101 384 
Q 1344 128 1670 128 
z
" transform="scale(0.015625)"/>
       </defs>
       <use xlink:href="#NotoSansSC-Thin-30"/>
      </g>
     </g>
    </g>
    <g id="xtick_2">
     <g id="line2d_3">
      <path d="M 122.002083 208.622813 
L 122.002083 31.522813 
" clip-path="url(#pd148a078fa)" style="fill: none; stroke: #64748b; stroke-opacity: 0.15; stroke-width: 0.5; stroke-linecap: square"/>
     </g>
     <g id="line2d_4">
      <g>
       <use xlink:href="#mac5f4ccd05" x="122.002083" y="208.622813" style="fill: #64748b; stroke: #64748b; stroke-width: 0.5"/>
      </g>
     </g>
     <g id="text_2">
      <!-- 5 -->
      <g style="fill: #64748b" transform="translate(119.918333 221.475313) scale(0.08 -0.08)">
       <defs>
        <path id="NotoSansSC-Thin-35" d="M 1581 -83 
Q 1222 -83 963 9 
Q 704 102 515 240 
Q 326 378 186 518 
L 333 691 
Q 467 550 636 422 
Q 806 294 1040 211 
Q 1274 128 1594 128 
Q 1901 128 2166 294 
Q 2432 461 2592 765 
Q 2752 1069 2752 1466 
Q 2752 2061 2441 2406 
Q 2131 2752 1606 2752 
Q 1350 2752 1152 2665 
Q 954 2579 755 2445 
L 563 2560 
L 730 4646 
L 2758 4646 
L 2758 4435 
L 941 4435 
L 787 2726 
Q 966 2835 1168 2902 
Q 1370 2970 1626 2970 
Q 2010 2970 2320 2813 
Q 2630 2656 2812 2326 
Q 2995 1997 2995 1478 
Q 2995 979 2787 630 
Q 2579 282 2256 99 
Q 1933 -83 1581 -83 
z
" transform="scale(0.015625)"/>
       </defs>
       <use xlink:href="#NotoSansSC-Thin-35"/>
      </g>
     </g>
    </g>
    <g id="xtick_3">
     <g id="line2d_5">
      <path d="M 190.304167 208.622813 
L 190.304167 31.522813 
" clip-path="url(#pd148a078fa)" style="fill: none; stroke: #64748b; stroke-opacity: 0.15; stroke-width: 0.5; stroke-linecap: square"/>
     </g>
     <g id="line2d_6">
      <g>
       <use xlink:href="#mac5f4ccd05" x="190.304167" y="208.622813" style="fill: #64748b; stroke: #64748b; stroke-width: 0.5"/>
      </g>
     </g>
     <g id="text_3">
      <!-- 10 -->
      <g style="fill: #64748b" transform="translate(186.136667 221.475313) scale(0.08 -0.08)">
       <defs>
        <path id="NotoSansSC-Thin-31" d="M 608 0 
L 608 211 
L 1677 211 
L 1677 4211 
L 864 4211 
L 864 4378 
Q 1133 4422 1344 4492 
Q 1555 4563 1702 4646 
L 1901 4646 
L 1901 211 
L 2899 211 
L 2899 0 
L 608 0 
z
" transform="scale(0.015625)"/>
       </defs>
       <use xlink:href="#NotoSansSC-Thin-31"/>
       <use xlink:href="#NotoSansSC-Thin-30" transform="translate(52.099991 0)"/>
      </g>
     </g>
    </g>
    <g id="xtick_4">
     <g id="line2d_7">
      <path d="M 258.60625 208.622813 
L 258.60625 31.522813 
" clip-path="url(#pd148a078fa)" style="fill: none; stroke: #64748b; stroke-opacity: 0.15; stroke-width: 0.5; stroke-linecap: square"/>
     </g>
     <g id="line2d_8">
      <g>
       <use xlink:href="#mac5f4ccd05" x="258.60625" y="208.622813" style="fill: #64748b; stroke: #64748b; stroke-width: 0.5"/>
      </g>
     </g>
     <g id="text_4">
      <!-- 15 -->
      <g style="fill: #64748b" transform="translate(254.43875 221.475313) scale(0.08 -0.08)">
       <use xlink:href="#NotoSansSC-Thin-31"/>
       <use xlink:href="#NotoSansSC-Thin-35" transform="translate(52.099991 0)"/>
      </g>
     </g>
    </g>
    <g id="xtick_5">
     <g id="line2d_9">
      <path d="M 326.908333 208.622813 
L 326.908333 31.522813 
" clip-path="url(#pd148a078fa)" style="fill: none; stroke: #64748b; stroke-opacity: 0.15; stroke-width: 0.5; stroke-linecap: square"/>
     </g>
     <g id="line2d_10">
      <g>
       <use xlink:href="#mac5f4ccd05" x="326.908333" y="208.622813" style="fill: #64748b; stroke: #64748b; stroke-width: 0.5"/>
      </g>
     </g>
     <g id="text_5">
      <!-- 20 -->
      <g style="fill: #64748b" transform="translate(322.740833 221.475313) scale(0.08 -0.08)">
       <defs>
        <path id="NotoSansSC-Thin-32" d="M 294 0 
L 294 147 
Q 1120 858 1613 1434 
Q 2106 2010 2323 2499 
Q 2541 2989 2541 3424 
Q 2541 3725 2435 3974 
Q 2330 4224 2106 4371 
Q 1882 4518 1523 4518 
Q 1210 4518 931 4352 
Q 653 4186 442 3923 
L 282 4070 
Q 525 4346 829 4538 
Q 1133 4730 1542 4730 
Q 1939 4730 2214 4566 
Q 2490 4403 2637 4112 
Q 2784 3821 2784 3424 
Q 2784 2918 2537 2406 
Q 2291 1894 1820 1347 
Q 1350 800 678 179 
Q 870 192 1062 201 
Q 1254 211 1440 211 
L 3014 211 
L 3014 0 
L 294 0 
z
" transform="scale(0.015625)"/>
       </defs>
       <use xlink:href="#NotoSansSC-Thin-32"/>
       <use xlink:href="#NotoSansSC-Thin-30" transform="translate(52.099991 0)"/>
      </g>
     </g>
    </g>
    <g id="text_6">
     <!-- 涨跌幅 (%) -->
     <g style="fill: #64748b" transform="translate(196.483438 234.565625) scale(0.09 -0.09)">
      <defs>
       <path id="NotoSansSC-Thin-6da8" d="M 2803 2118 
L 3002 2118 
Q 3002 2118 3002 2073 
Q 3002 2029 2995 1997 
Q 2957 1216 2912 752 
Q 2867 288 2809 54 
Q 2752 -179 2669 -269 
Q 2605 -339 2528 -364 
Q 2451 -390 2323 -397 
Q 2208 -403 1987 -396 
Q 1766 -390 1530 -371 
Q 1523 -326 1510 -275 
Q 1498 -224 1472 -179 
Q 1741 -205 1971 -208 
Q 2202 -211 2285 -211 
Q 2445 -218 2509 -154 
Q 2579 -83 2630 150 
Q 2682 384 2726 848 
Q 2771 1312 2803 2080 
L 2803 2118 
z
M 1779 3565 
L 1965 3565 
Q 1946 3302 1920 2998 
Q 1894 2694 1865 2412 
Q 1837 2131 1805 1926 
L 1619 1926 
Q 1651 2138 1683 2422 
Q 1715 2707 1740 3008 
Q 1766 3309 1779 3565 
z
M 1728 2118 
L 2861 2118 
L 2861 1926 
L 1709 1926 
L 1728 2118 
z
M 1856 3565 
L 2867 3565 
L 2867 4806 
L 1638 4806 
L 1638 4992 
L 3053 4992 
L 3053 3373 
L 1856 3373 
L 1856 3565 
z
M 3590 -448 
Q 3584 -422 3565 -390 
Q 3546 -358 3523 -323 
Q 3501 -288 3482 -262 
Q 3552 -230 3645 -153 
Q 3738 -77 3738 102 
L 3738 5254 
L 3930 5254 
L 3930 -192 
Q 3930 -192 3878 -221 
Q 3827 -250 3760 -291 
Q 3693 -333 3641 -374 
Q 3590 -416 3590 -448 
z
M 518 5043 
L 646 5158 
Q 806 5050 969 4918 
Q 1133 4787 1273 4656 
Q 1414 4525 1498 4422 
L 1370 4288 
Q 1280 4397 1139 4531 
Q 998 4666 838 4800 
Q 678 4934 518 5043 
z
M 294 3251 
L 429 3366 
Q 582 3264 739 3142 
Q 896 3021 1033 2899 
Q 1171 2778 1254 2675 
L 1126 2534 
Q 1037 2637 899 2765 
Q 762 2893 605 3021 
Q 448 3149 294 3251 
z
M 448 -262 
Q 550 -26 665 297 
Q 781 621 899 976 
Q 1018 1331 1107 1658 
L 1274 1549 
Q 1190 1242 1078 896 
Q 966 550 854 220 
Q 742 -109 634 -378 
L 448 -262 
z
M 3091 2771 
L 6093 2771 
L 6093 2579 
L 3091 2579 
L 3091 2771 
z
M 4659 2694 
Q 4781 2061 4985 1497 
Q 5190 934 5478 499 
Q 5766 64 6138 -192 
Q 6106 -218 6064 -262 
Q 6022 -307 5997 -346 
Q 5626 -58 5331 396 
Q 5037 851 4829 1430 
Q 4621 2010 4493 2656 
L 4659 2694 
z
M 5613 5197 
L 5805 5146 
Q 5626 4730 5389 4346 
Q 5152 3962 4873 3632 
Q 4595 3302 4301 3046 
Q 4288 3059 4259 3084 
Q 4230 3110 4198 3136 
Q 4166 3162 4141 3174 
Q 4589 3539 4976 4070 
Q 5363 4602 5613 5197 
z
M 3590 -448 
L 3590 -269 
L 3706 -134 
L 4998 339 
Q 5005 301 5014 256 
Q 5024 211 5030 192 
Q 4570 0 4294 -115 
Q 4019 -230 3878 -294 
Q 3738 -358 3680 -390 
Q 3622 -422 3590 -448 
z
" transform="scale(0.015625)"/>
       <path id="NotoSansSC-Thin-8dcc" d="M 838 4819 
L 838 3398 
L 2214 3398 
L 2214 4819 
L 838 4819 
z
M 646 5005 
L 2406 5005 
L 2406 3213 
L 646 3213 
L 646 5005 
z
M 1498 3341 
L 1690 3341 
L 1690 346 
L 1498 346 
L 1498 3341 
z
M 685 2458 
L 870 2458 
L 870 147 
L 685 147 
L 685 2458 
z
M 314 122 
Q 589 186 944 278 
Q 1299 371 1705 483 
Q 2112 595 2522 704 
L 2541 525 
Q 1958 365 1382 208 
Q 806 51 371 -70 
L 314 122 
z
M 1549 2106 
L 2483 2106 
L 2483 1920 
L 1549 1920 
L 1549 2106 
z
M 2643 2336 
L 6003 2336 
L 6003 2144 
L 2643 2144 
L 2643 2336 
z
M 3213 4096 
L 5894 4096 
L 5894 3910 
L 3155 3910 
L 3213 4096 
z
M 3277 5050 
L 3469 5018 
Q 3366 4416 3200 3865 
Q 3034 3315 2790 2918 
Q 2771 2938 2742 2957 
Q 2714 2976 2682 2995 
Q 2650 3014 2618 3027 
Q 2867 3405 3027 3939 
Q 3187 4474 3277 5050 
z
M 4224 5306 
L 4410 5306 
L 4410 3450 
Q 4410 3091 4387 2688 
Q 4365 2285 4272 1869 
Q 4179 1453 3980 1040 
Q 3782 627 3440 243 
Q 3098 -141 2560 -474 
Q 2547 -448 2524 -425 
Q 2502 -403 2476 -377 
Q 2451 -352 2426 -333 
Q 2957 -19 3293 352 
Q 3629 723 3821 1123 
Q 4013 1523 4099 1926 
Q 4186 2330 4205 2717 
Q 4224 3104 4224 3450 
L 4224 5306 
z
M 4416 2323 
Q 4531 1715 4752 1196 
Q 4973 678 5305 297 
Q 5638 -83 6086 -282 
Q 6061 -301 6035 -326 
Q 6010 -352 5987 -381 
Q 5965 -410 5946 -435 
Q 5261 -96 4848 614 
Q 4435 1325 4250 2285 
L 4416 2323 
z
" transform="scale(0.015625)"/>
       <path id="NotoSansSC-Thin-5e45" d="M 1376 5306 
L 1562 5306 
L 1562 -448 
L 1376 -448 
L 1376 5306 
z
M 531 4064 
L 2381 4064 
L 2381 3878 
L 717 3878 
L 717 858 
L 531 858 
L 531 4064 
z
M 2266 4064 
L 2451 4064 
L 2451 1158 
Q 2451 1075 2428 1024 
Q 2406 973 2342 941 
Q 2278 915 2163 908 
Q 2048 902 1882 902 
Q 1875 941 1849 995 
Q 1824 1050 1792 1094 
Q 1946 1088 2051 1088 
Q 2157 1088 2202 1088 
Q 2266 1094 2266 1158 
L 2266 4064 
z
M 2714 4928 
L 6074 4928 
L 6074 4742 
L 2714 4742 
L 2714 4928 
z
M 3283 3962 
L 3283 2957 
L 5453 2957 
L 5453 3962 
L 3283 3962 
z
M 3091 4147 
L 5638 4147 
L 5638 2765 
L 3091 2765 
L 3091 4147 
z
M 2912 1037 
L 5856 1037 
L 5856 845 
L 2912 845 
L 2912 1037 
z
M 2912 -32 
L 5856 -32 
L 5856 -218 
L 2912 -218 
L 2912 -32 
z
M 2790 2112 
L 5933 2112 
L 5933 -429 
L 5747 -429 
L 5747 1926 
L 2982 1926 
L 2982 -454 
L 2790 -454 
L 2790 2112 
z
M 4218 1997 
L 4403 1997 
L 4403 -147 
L 4218 -147 
L 4218 1997 
z
" transform="scale(0.015625)"/>
       <path id="NotoSansSC-Thin-20" transform="scale(0.015625)"/>
       <path id="NotoSansSC-Thin-28" d="M 1562 -1222 
Q 1133 -525 883 252 
Q 634 1030 634 1958 
Q 634 2886 883 3667 
Q 1133 4448 1562 5146 
L 1696 5056 
Q 1274 4390 1059 3596 
Q 845 2803 845 1958 
Q 845 1114 1059 320 
Q 1274 -474 1696 -1139 
L 1562 -1222 
z
" transform="scale(0.015625)"/>
       <path id="NotoSansSC-Thin-25" d="M 1267 1818 
Q 966 1818 745 1987 
Q 525 2157 409 2483 
Q 294 2810 294 3283 
Q 294 3750 409 4070 
Q 525 4390 745 4560 
Q 966 4730 1267 4730 
Q 1574 4730 1795 4560 
Q 2016 4390 2131 4070 
Q 2246 3750 2246 3283 
Q 2246 2810 2131 2483 
Q 2016 2157 1795 1987 
Q 1574 1818 1267 1818 
z
M 1267 2003 
Q 1619 2003 1820 2342 
Q 2022 2682 2022 3283 
Q 2022 3885 1820 4214 
Q 1619 4544 1267 4544 
Q 922 4544 717 4214 
Q 512 3885 512 3283 
Q 512 2682 717 2342 
Q 922 2003 1267 2003 
z
M 1382 -83 
L 3987 4730 
L 4218 4730 
L 1619 -83 
L 1382 -83 
z
M 4365 -83 
Q 4058 -83 3840 86 
Q 3622 256 3504 582 
Q 3386 909 3386 1382 
Q 3386 1850 3504 2170 
Q 3622 2490 3840 2659 
Q 4058 2829 4365 2829 
Q 4666 2829 4883 2659 
Q 5101 2490 5219 2170 
Q 5338 1850 5338 1382 
Q 5338 909 5219 582 
Q 5101 256 4883 86 
Q 4666 -83 4365 -83 
z
M 4365 102 
Q 4704 102 4912 441 
Q 5120 781 5120 1382 
Q 5120 1984 4912 2313 
Q 4704 2643 4365 2643 
Q 4013 2643 3808 2313 
Q 3603 1984 3603 1382 
Q 3603 781 3808 441 
Q 4013 102 4365 102 
z
" transform="scale(0.015625)"/>
       <path id="NotoSansSC-Thin-29" d="M 352 -1222 
L 211 -1139 
Q 634 -474 851 320 
Q 1069 1114 1069 1958 
Q 1069 2803 851 3596 
Q 634 4390 211 5056 
L 352 5146 
Q 787 4448 1033 3667 
Q 1280 2886 1280 1958 
Q 1280 1030 1033 252 
Q 787 -525 352 -1222 
z
" transform="scale(0.015625)"/>
      </defs>
      <use xlink:href="#NotoSansSC-Thin-6da8"/>
      <use xlink:href="#NotoSansSC-Thin-8dcc" transform="translate(99.999985 0)"/>
      <use xlink:href="#NotoSansSC-Thin-5e45" transform="translate(199.999969 0)"/>
      <use xlink:href="#NotoSansSC-Thin-20" transform="translate(299.999954 0)"/>
      <use xlink:href="#NotoSansSC-Thin-28" transform="translate(321.999939 0)"/>
      <use xlink:href="#NotoSansSC-Thin-25" transform="translate(351.899933 0)"/>
      <use xlink:href="#NotoSansSC-Thin-29" transform="translate(439.899918 0)"/>
     </g>
    </g>
   </g>
   <g id="matplotlib.axis_2">
    <g id="ytick_1">
     <g id="line2d_11">
      <path d="M 53.7 193.926024 
L 381.55 193.926024 
" clip-path="url(#pd148a078fa)" style="fill: none; stroke: #e2e8f0; stroke-opacity: 0.15; stroke-width: 0.5; stroke-linecap: square"/>
     </g>
     <g id="line2d_12">
      <defs>
       <path id="m2b781402e7" d="M 0 0 
L -3 0 
" style="stroke: #64748b; stroke-width: 0.5"/>
      </defs>
      <g>
       <use xlink:href="#m2b781402e7" x="53.7" y="193.926024" style="fill: #64748b; stroke: #64748b; stroke-width: 0.5"/>
      </g>
     </g>
     <g id="text_7">
      <!-- 美光科技 -->
      <g style="fill: #64748b" transform="translate(15.2 197.102274) scale(0.08 -0.08)">
       <defs>
        <path id="NotoSansSC-Thin-7f8e" d="M 659 4314 
L 5747 4314 
L 5747 4128 
L 659 4128 
L 659 4314 
z
M 998 3405 
L 5434 3405 
L 5434 3219 
L 998 3219 
L 998 3405 
z
M 538 1626 
L 5990 1626 
L 5990 1440 
L 538 1440 
L 538 1626 
z
M 403 2470 
L 6022 2470 
L 6022 2285 
L 403 2285 
L 403 2470 
z
M 3091 4250 
L 3283 4250 
L 3283 2387 
L 3091 2387 
L 3091 4250 
z
M 1517 5235 
L 1677 5318 
Q 1869 5120 2048 4873 
Q 2227 4627 2310 4442 
L 2138 4346 
Q 2054 4538 1878 4787 
Q 1702 5037 1517 5235 
z
M 4666 5318 
L 4838 5216 
Q 4678 4954 4473 4656 
Q 4269 4358 4096 4154 
L 3962 4243 
Q 4077 4384 4208 4576 
Q 4339 4768 4460 4963 
Q 4582 5158 4666 5318 
z
M 3110 2426 
L 3309 2426 
Q 3251 1946 3145 1549 
Q 3040 1152 2845 835 
Q 2650 518 2333 275 
Q 2016 32 1552 -141 
Q 1088 -314 442 -422 
Q 435 -403 416 -371 
Q 397 -339 377 -307 
Q 358 -275 339 -256 
Q 979 -154 1433 12 
Q 1888 179 2192 409 
Q 2496 640 2681 937 
Q 2867 1235 2966 1606 
Q 3066 1978 3110 2426 
z
M 3328 1581 
Q 3642 832 4349 381 
Q 5056 -70 6029 -237 
Q 6010 -256 5984 -288 
Q 5958 -320 5936 -352 
Q 5914 -384 5901 -416 
Q 5254 -282 4710 -29 
Q 4166 224 3766 611 
Q 3366 998 3142 1517 
L 3328 1581 
z
" transform="scale(0.015625)"/>
        <path id="NotoSansSC-Thin-5149" d="M 3898 2669 
L 4083 2669 
L 4083 -19 
Q 4083 -160 4150 -211 
Q 4218 -262 4435 -262 
Q 4493 -262 4640 -262 
Q 4787 -262 4966 -262 
Q 5146 -262 5302 -262 
Q 5459 -262 5530 -262 
Q 5677 -262 5750 -179 
Q 5824 -96 5853 147 
Q 5882 390 5894 870 
Q 5920 851 5952 835 
Q 5984 819 6019 806 
Q 6054 794 6086 781 
Q 6067 294 6025 25 
Q 5984 -243 5872 -345 
Q 5760 -448 5536 -448 
Q 5498 -448 5338 -448 
Q 5178 -448 4986 -448 
Q 4794 -448 4640 -448 
Q 4486 -448 4448 -448 
Q 4237 -448 4115 -416 
Q 3994 -384 3946 -291 
Q 3898 -198 3898 -19 
L 3898 2669 
z
M 2246 2637 
L 2438 2637 
Q 2394 2074 2288 1594 
Q 2182 1114 1968 723 
Q 1754 333 1379 41 
Q 1005 -250 422 -442 
Q 410 -422 387 -393 
Q 365 -365 339 -336 
Q 314 -307 288 -294 
Q 864 -115 1229 166 
Q 1594 448 1802 822 
Q 2010 1197 2106 1651 
Q 2202 2106 2246 2637 
z
M 992 4902 
L 1165 4960 
Q 1344 4710 1517 4419 
Q 1690 4128 1824 3849 
Q 1958 3571 2022 3354 
L 1843 3290 
Q 1779 3501 1648 3782 
Q 1517 4064 1347 4358 
Q 1178 4653 992 4902 
z
M 5261 5056 
L 5440 4973 
Q 5312 4704 5155 4393 
Q 4998 4083 4835 3795 
Q 4672 3507 4525 3290 
L 4378 3360 
Q 4525 3584 4688 3881 
Q 4851 4179 5004 4492 
Q 5158 4806 5261 5056 
z
M 384 2771 
L 6035 2771 
L 6035 2586 
L 384 2586 
L 384 2771 
z
M 3091 5318 
L 3283 5318 
L 3283 2694 
L 3091 2694 
L 3091 5318 
z
" transform="scale(0.015625)"/>
        <path id="NotoSansSC-Thin-79d1" d="M 1536 4851 
L 1728 4851 
L 1728 -429 
L 1536 -429 
L 1536 4851 
z
M 346 3507 
L 2778 3507 
L 2778 3322 
L 346 3322 
L 346 3507 
z
M 1542 3450 
L 1696 3392 
Q 1594 3059 1443 2700 
Q 1293 2342 1113 1996 
Q 934 1651 745 1353 
Q 557 1056 371 851 
Q 352 883 310 928 
Q 269 973 237 998 
Q 416 1190 605 1472 
Q 794 1754 973 2086 
Q 1152 2419 1299 2771 
Q 1446 3123 1542 3450 
z
M 2438 5197 
L 2598 5050 
Q 2342 4941 1984 4841 
Q 1626 4742 1235 4665 
Q 845 4589 486 4531 
Q 480 4563 457 4608 
Q 435 4653 416 4685 
Q 774 4749 1158 4825 
Q 1542 4902 1881 4998 
Q 2221 5094 2438 5197 
z
M 1690 3187 
Q 1754 3110 1894 2928 
Q 2035 2746 2195 2531 
Q 2355 2317 2489 2128 
Q 2624 1939 2682 1856 
L 2534 1709 
Q 2477 1818 2349 2013 
Q 2221 2208 2067 2425 
Q 1914 2643 1779 2825 
Q 1645 3008 1574 3091 
L 1690 3187 
z
M 5030 5318 
L 5222 5318 
L 5222 -435 
L 5030 -435 
L 5030 5318 
z
M 2733 1114 
L 6086 1613 
L 6118 1446 
L 2758 934 
L 2733 1114 
z
M 3354 4685 
L 3469 4813 
Q 3680 4704 3891 4557 
Q 4102 4410 4284 4259 
Q 4467 4109 4582 3974 
L 4454 3834 
Q 4346 3962 4163 4115 
Q 3981 4269 3769 4419 
Q 3558 4570 3354 4685 
z
M 3078 3034 
L 3194 3155 
Q 3424 3040 3664 2883 
Q 3904 2726 4109 2566 
Q 4314 2406 4442 2272 
L 4326 2131 
Q 4198 2272 3990 2435 
Q 3782 2598 3545 2755 
Q 3309 2912 3078 3034 
z
" transform="scale(0.015625)"/>
        <path id="NotoSansSC-Thin-6280" d="M 2368 4218 
L 5843 4218 
L 5843 4026 
L 2368 4026 
L 2368 4218 
z
M 2515 2867 
L 5427 2867 
L 5427 2682 
L 2515 2682 
L 2515 2867 
z
M 4006 5318 
L 4198 5318 
L 4198 2746 
L 4006 2746 
L 4006 5318 
z
M 2925 2778 
Q 3302 1645 4102 838 
Q 4902 32 6061 -288 
Q 6035 -307 6009 -339 
Q 5984 -371 5961 -400 
Q 5939 -429 5920 -454 
Q 4768 -102 3958 720 
Q 3149 1542 2752 2720 
L 2925 2778 
z
M 5427 2867 
L 5466 2867 
L 5510 2880 
L 5626 2810 
Q 5408 2150 5033 1619 
Q 4659 1088 4185 681 
Q 3712 275 3181 -6 
Q 2650 -288 2112 -454 
Q 2106 -429 2086 -397 
Q 2067 -365 2044 -333 
Q 2022 -301 2003 -282 
Q 2522 -134 3043 134 
Q 3565 403 4032 793 
Q 4499 1184 4864 1693 
Q 5229 2202 5427 2822 
L 5427 2867 
z
M 294 1792 
Q 550 1869 876 1968 
Q 1203 2067 1568 2185 
Q 1933 2304 2304 2419 
L 2330 2246 
Q 1811 2074 1299 1904 
Q 787 1734 378 1600 
L 294 1792 
z
M 371 3949 
L 2266 3949 
L 2266 3757 
L 371 3757 
L 371 3949 
z
M 1286 5312 
L 1478 5312 
L 1478 -134 
Q 1478 -269 1430 -329 
Q 1382 -390 1293 -416 
Q 1203 -442 1024 -448 
Q 845 -454 525 -448 
Q 518 -416 492 -365 
Q 467 -314 442 -269 
Q 704 -275 902 -275 
Q 1101 -275 1165 -269 
Q 1286 -269 1286 -141 
L 1286 5312 
z
" transform="scale(0.015625)"/>
       </defs>
       <use xlink:href="#NotoSansSC-Thin-7f8e"/>
       <use xlink:href="#NotoSansSC-Thin-5149" transform="translate(99.999985 0)"/>
       <use xlink:href="#NotoSansSC-Thin-79d1" transform="translate(199.999969 0)"/>
       <use xlink:href="#NotoSansSC-Thin-6280" transform="translate(299.999954 0)"/>
      </g>
     </g>
    </g>
    <g id="ytick_2">
     <g id="line2d_13">
      <path d="M 53.7 164.384739 
L 381.55 164.384739 
" clip-path="url(#pd148a078fa)" style="fill: none; stroke: #e2e8f0; stroke-opacity: 0.15; stroke-width: 0.5; stroke-linecap: square"/>
     </g>
     <g id="line2d_14">
      <g>
       <use xlink:href="#m2b781402e7" x="53.7" y="164.384739" style="fill: #64748b; stroke: #64748b; stroke-width: 0.5"/>
      </g>
     </g>
     <g id="text_8">
      <!-- SK海力士 -->
      <g style="fill: #64748b" transform="translate(13.79125 167.560989) scale(0.08 -0.08)">
       <defs>
        <path id="NotoSansSC-Thin-53" d="M 1888 -83 
Q 1376 -83 989 115 
Q 602 314 339 621 
L 499 787 
Q 755 493 1113 317 
Q 1472 141 1888 141 
Q 2445 141 2774 416 
Q 3104 691 3104 1126 
Q 3104 1440 2985 1625 
Q 2867 1811 2675 1929 
Q 2483 2048 2246 2150 
L 1536 2470 
Q 1338 2560 1117 2694 
Q 896 2829 742 3049 
Q 589 3270 589 3610 
Q 589 3949 761 4198 
Q 934 4448 1232 4589 
Q 1530 4730 1907 4730 
Q 2330 4730 2653 4566 
Q 2976 4403 3174 4179 
L 3027 4019 
Q 2829 4237 2547 4371 
Q 2266 4506 1907 4506 
Q 1421 4506 1126 4269 
Q 832 4032 832 3635 
Q 832 3347 966 3164 
Q 1101 2982 1293 2876 
Q 1485 2771 1645 2694 
L 2355 2374 
Q 2618 2259 2842 2108 
Q 3066 1958 3203 1731 
Q 3341 1504 3341 1146 
Q 3341 794 3161 515 
Q 2982 237 2656 77 
Q 2330 -83 1888 -83 
z
" transform="scale(0.015625)"/>
        <path id="NotoSansSC-Thin-4b" d="M 704 0 
L 704 4646 
L 941 4646 
L 941 1984 
L 954 1984 
L 3302 4646 
L 3603 4646 
L 2112 2944 
L 3802 0 
L 3520 0 
L 1933 2758 
L 941 1638 
L 941 0 
L 704 0 
z
" transform="scale(0.015625)"/>
        <path id="NotoSansSC-Thin-6d77" d="M 2624 3514 
L 2816 3514 
Q 2771 3155 2716 2739 
Q 2662 2323 2601 1904 
Q 2541 1485 2486 1110 
Q 2432 736 2381 461 
L 2176 461 
Q 2234 742 2298 1123 
Q 2362 1504 2419 1923 
Q 2477 2342 2531 2755 
Q 2586 3168 2624 3514 
z
M 3520 3117 
L 3667 3219 
Q 3910 3046 4147 2812 
Q 4384 2579 4506 2394 
L 4352 2278 
Q 4237 2464 4000 2701 
Q 3763 2938 3520 3117 
z
M 3360 1715 
L 3507 1805 
Q 3750 1613 3990 1363 
Q 4230 1114 4352 915 
L 4198 806 
Q 4077 1005 3840 1261 
Q 3603 1517 3360 1715 
z
M 2624 4512 
L 5958 4512 
L 5958 4320 
L 2624 4320 
L 2624 4512 
z
M 2752 3514 
L 5498 3514 
L 5498 3328 
L 2752 3328 
L 2752 3514 
z
M 1798 2131 
L 6099 2131 
L 6099 1946 
L 1798 1946 
L 1798 2131 
z
M 2291 646 
L 5907 646 
L 5907 461 
L 2291 461 
L 2291 646 
z
M 2906 5318 
L 3091 5274 
Q 2957 4870 2777 4483 
Q 2598 4096 2387 3760 
Q 2176 3424 1946 3162 
Q 1926 3174 1894 3196 
Q 1862 3219 1830 3238 
Q 1798 3258 1773 3270 
Q 2016 3526 2227 3852 
Q 2438 4179 2611 4553 
Q 2784 4928 2906 5318 
z
M 5421 3514 
L 5606 3514 
Q 5606 3514 5606 3485 
Q 5606 3456 5606 3424 
Q 5606 3392 5606 3373 
Q 5568 2426 5526 1773 
Q 5485 1120 5433 713 
Q 5382 307 5321 83 
Q 5261 -141 5178 -237 
Q 5101 -326 5011 -358 
Q 4922 -390 4794 -397 
Q 4666 -403 4442 -393 
Q 4218 -384 3981 -365 
Q 3974 -320 3961 -265 
Q 3949 -211 3917 -173 
Q 4198 -198 4435 -204 
Q 4672 -211 4762 -211 
Q 4851 -211 4905 -195 
Q 4960 -179 5005 -128 
Q 5082 -51 5139 173 
Q 5197 397 5248 809 
Q 5299 1222 5340 1872 
Q 5382 2522 5421 3462 
L 5421 3514 
z
M 627 5107 
L 749 5235 
Q 947 5158 1155 5049 
Q 1363 4941 1548 4825 
Q 1734 4710 1850 4608 
L 1734 4454 
Q 1613 4557 1430 4675 
Q 1248 4794 1037 4909 
Q 826 5024 627 5107 
z
M 314 3200 
L 422 3341 
Q 614 3258 812 3152 
Q 1011 3046 1184 2934 
Q 1357 2822 1472 2726 
L 1363 2566 
Q 1248 2662 1072 2777 
Q 896 2893 697 3005 
Q 499 3117 314 3200 
z
M 518 -224 
Q 653 32 809 387 
Q 966 742 1123 1132 
Q 1280 1523 1402 1882 
L 1549 1773 
Q 1434 1434 1283 1053 
Q 1133 672 979 307 
Q 826 -58 691 -346 
L 518 -224 
z
" transform="scale(0.015625)"/>
        <path id="NotoSansSC-Thin-529b" d="M 576 3853 
L 5606 3853 
L 5606 3661 
L 576 3661 
L 576 3853 
z
M 5549 3853 
L 5741 3853 
Q 5741 3853 5741 3824 
Q 5741 3795 5737 3763 
Q 5734 3731 5734 3712 
Q 5670 2688 5612 1974 
Q 5555 1261 5488 806 
Q 5421 352 5341 99 
Q 5261 -154 5152 -262 
Q 5062 -365 4963 -393 
Q 4864 -422 4704 -429 
Q 4557 -435 4269 -422 
Q 3981 -410 3680 -390 
Q 3674 -346 3664 -294 
Q 3654 -243 3622 -198 
Q 3974 -230 4272 -240 
Q 4570 -250 4678 -250 
Q 4787 -250 4857 -234 
Q 4928 -218 4979 -160 
Q 5075 -64 5155 185 
Q 5235 435 5302 892 
Q 5370 1350 5430 2064 
Q 5491 2778 5549 3802 
L 5549 3853 
z
M 2797 5306 
L 2989 5306 
L 2989 4403 
Q 2989 3962 2950 3475 
Q 2912 2989 2787 2480 
Q 2662 1971 2396 1462 
Q 2131 954 1680 464 
Q 1229 -26 538 -467 
Q 525 -442 502 -419 
Q 480 -397 454 -371 
Q 429 -346 403 -333 
Q 1082 102 1523 579 
Q 1965 1056 2224 1552 
Q 2483 2048 2604 2541 
Q 2726 3034 2761 3504 
Q 2797 3974 2797 4403 
L 2797 5306 
z
" transform="scale(0.015625)"/>
        <path id="NotoSansSC-Thin-58eb" d="M 742 160 
L 5683 160 
L 5683 -32 
L 742 -32 
L 742 160 
z
M 378 3162 
L 6029 3162 
L 6029 2976 
L 378 2976 
L 378 3162 
z
M 3091 5286 
L 3283 5286 
L 3283 -19 
L 3091 -19 
L 3091 5286 
z
" transform="scale(0.015625)"/>
       </defs>
       <use xlink:href="#NotoSansSC-Thin-53"/>
       <use xlink:href="#NotoSansSC-Thin-4b" transform="translate(56.899994 0)"/>
       <use xlink:href="#NotoSansSC-Thin-6d77" transform="translate(117.599991 0)"/>
       <use xlink:href="#NotoSansSC-Thin-529b" transform="translate(217.599976 0)"/>
       <use xlink:href="#NotoSansSC-Thin-58eb" transform="translate(317.59996 0)"/>
      </g>
     </g>
    </g>
    <g id="ytick_3">
     <g id="line2d_15">
      <path d="M 53.7 134.843455 
L 381.55 134.843455 
" clip-path="url(#pd148a078fa)" style="fill: none; stroke: #e2e8f0; stroke-opacity: 0.15; stroke-width: 0.5; stroke-linecap: square"/>
     </g>
     <g id="line2d_16">
      <g>
       <use xlink:href="#m2b781402e7" x="53.7" y="134.843455" style="fill: #64748b; stroke: #64748b; stroke-width: 0.5"/>
      </g>
     </g>
     <g id="text_9">
      <!-- 西部数据 -->
      <g style="fill: #64748b" transform="translate(15.2 138.019705) scale(0.08 -0.08)">
       <defs>
        <path id="NotoSansSC-Thin-897f" d="M 928 198 
L 5510 198 
L 5510 6 
L 928 6 
L 928 198 
z
M 813 3482 
L 5600 3482 
L 5600 -390 
L 5414 -390 
L 5414 3296 
L 998 3296 
L 998 -422 
L 813 -422 
L 813 3482 
z
M 448 4832 
L 5952 4832 
L 5952 4640 
L 448 4640 
L 448 4832 
z
M 2406 4730 
L 2592 4730 
L 2592 3456 
Q 2592 3091 2499 2700 
Q 2406 2310 2131 1945 
Q 1856 1581 1306 1286 
Q 1299 1312 1276 1344 
Q 1254 1376 1232 1405 
Q 1210 1434 1190 1446 
Q 1715 1722 1974 2061 
Q 2234 2400 2320 2758 
Q 2406 3117 2406 3456 
L 2406 4730 
z
M 3763 4742 
L 3962 4742 
L 3962 1958 
Q 3962 1856 4006 1824 
Q 4051 1792 4250 1792 
Q 4294 1792 4432 1792 
Q 4570 1792 4742 1792 
Q 4915 1792 5062 1792 
Q 5210 1792 5274 1792 
Q 5363 1792 5392 1795 
Q 5421 1798 5427 1805 
Q 5466 1779 5517 1763 
Q 5568 1747 5613 1734 
Q 5600 1670 5536 1635 
Q 5472 1600 5286 1600 
Q 5261 1600 5107 1600 
Q 4954 1600 4768 1600 
Q 4582 1600 4432 1600 
Q 4282 1600 4256 1600 
Q 4064 1600 3958 1625 
Q 3853 1651 3808 1728 
Q 3763 1805 3763 1958 
L 3763 4742 
z
" transform="scale(0.015625)"/>
        <path id="NotoSansSC-Thin-90e8" d="M 4128 4934 
L 5760 4934 
L 5760 4749 
L 4314 4749 
L 4314 -461 
L 4128 -461 
L 4128 4934 
z
M 5734 4934 
L 5773 4934 
L 5811 4947 
L 5939 4858 
Q 5760 4429 5529 3917 
Q 5299 3405 5075 2931 
Q 5555 2458 5724 2070 
Q 5894 1683 5894 1338 
Q 5894 1120 5840 915 
Q 5786 710 5645 621 
Q 5581 576 5485 550 
Q 5389 525 5280 512 
Q 5146 499 4986 502 
Q 4826 506 4678 512 
Q 4672 550 4653 608 
Q 4634 666 4602 710 
Q 4774 691 4940 688 
Q 5107 685 5229 691 
Q 5312 704 5385 720 
Q 5459 736 5517 768 
Q 5626 838 5667 1001 
Q 5709 1165 5702 1338 
Q 5702 1670 5523 2044 
Q 5344 2419 4851 2906 
Q 4979 3168 5104 3433 
Q 5229 3699 5344 3958 
Q 5459 4218 5558 4458 
Q 5658 4698 5734 4896 
L 5734 4934 
z
M 595 4512 
L 3539 4512 
L 3539 4320 
L 595 4320 
L 595 4512 
z
M 384 2771 
L 3686 2771 
L 3686 2586 
L 384 2586 
L 384 2771 
z
M 1043 4128 
L 1216 4186 
Q 1382 3891 1513 3548 
Q 1645 3206 1690 2957 
L 1498 2893 
Q 1453 3149 1321 3491 
Q 1190 3834 1043 4128 
z
M 2995 4205 
L 3200 4141 
Q 3110 3904 3004 3635 
Q 2899 3366 2790 3113 
Q 2682 2861 2579 2669 
L 2406 2720 
Q 2509 2918 2621 3180 
Q 2733 3443 2832 3715 
Q 2931 3987 2995 4205 
z
M 934 141 
L 3258 141 
L 3258 -51 
L 934 -51 
L 934 141 
z
M 832 1875 
L 3341 1875 
L 3341 -314 
L 3149 -314 
L 3149 1690 
L 1018 1690 
L 1018 -378 
L 832 -378 
L 832 1875 
z
M 1722 5274 
L 1882 5318 
Q 1997 5120 2102 4880 
Q 2208 4640 2259 4480 
L 2093 4410 
Q 2042 4576 1936 4822 
Q 1830 5069 1722 5274 
z
" transform="scale(0.015625)"/>
        <path id="NotoSansSC-Thin-6570" d="M 512 1990 
L 2970 1990 
L 2970 1798 
L 512 1798 
L 512 1990 
z
M 365 4064 
L 3386 4064 
L 3386 3878 
L 365 3878 
L 365 4064 
z
M 2957 5146 
L 3123 5050 
Q 3002 4826 2845 4586 
Q 2688 4346 2554 4173 
L 2419 4256 
Q 2509 4371 2608 4531 
Q 2707 4691 2800 4854 
Q 2893 5018 2957 5146 
z
M 1792 5318 
L 1984 5318 
L 1984 2611 
L 1792 2611 
L 1792 5318 
z
M 691 5043 
L 845 5101 
Q 992 4902 1117 4662 
Q 1242 4422 1286 4250 
L 1139 4179 
Q 1088 4352 960 4598 
Q 832 4845 691 5043 
z
M 1792 3987 
L 1946 3904 
Q 1798 3622 1561 3344 
Q 1325 3066 1046 2832 
Q 768 2598 486 2445 
Q 467 2490 428 2538 
Q 390 2586 358 2618 
Q 634 2746 909 2960 
Q 1184 3174 1417 3443 
Q 1651 3712 1792 3987 
z
M 1946 3866 
Q 2029 3814 2205 3696 
Q 2381 3578 2585 3443 
Q 2790 3309 2960 3190 
Q 3130 3072 3200 3021 
L 3072 2854 
Q 2995 2925 2832 3049 
Q 2669 3174 2473 3315 
Q 2278 3456 2105 3574 
Q 1933 3693 1830 3750 
L 1946 3866 
z
M 3962 4013 
L 5997 4013 
L 5997 3827 
L 3962 3827 
L 3962 4013 
z
M 4128 5222 
L 4314 5190 
Q 4218 4614 4083 4086 
Q 3949 3558 3766 3100 
Q 3584 2643 3354 2285 
Q 3341 2298 3309 2320 
Q 3277 2342 3241 2361 
Q 3206 2381 3181 2394 
Q 3424 2733 3603 3184 
Q 3782 3635 3913 4153 
Q 4045 4672 4128 5222 
z
M 5357 3936 
L 5549 3910 
Q 5382 2829 5084 2006 
Q 4787 1184 4291 579 
Q 3795 -26 3040 -454 
Q 3027 -435 3004 -406 
Q 2982 -378 2956 -349 
Q 2931 -320 2906 -301 
Q 3654 90 4140 678 
Q 4627 1267 4915 2076 
Q 5203 2886 5357 3936 
z
M 3994 3789 
Q 4147 2874 4425 2070 
Q 4704 1267 5133 668 
Q 5562 70 6150 -243 
Q 6112 -269 6073 -313 
Q 6035 -358 6010 -397 
Q 5414 -51 4985 563 
Q 4557 1178 4275 1997 
Q 3994 2816 3834 3757 
L 3994 3789 
z
M 896 1018 
L 1050 1152 
Q 1370 1037 1722 873 
Q 2074 710 2387 544 
Q 2701 378 2906 230 
L 2752 90 
Q 2554 237 2240 406 
Q 1926 576 1574 739 
Q 1222 902 896 1018 
z
M 2880 1990 
L 2918 1990 
L 2963 2003 
L 3066 1946 
Q 2874 1286 2474 825 
Q 2074 365 1552 80 
Q 1030 -205 467 -358 
Q 454 -320 422 -272 
Q 390 -224 358 -198 
Q 902 -64 1411 205 
Q 1920 474 2310 906 
Q 2701 1338 2880 1946 
L 2880 1990 
z
M 896 1018 
Q 1030 1210 1168 1453 
Q 1306 1696 1427 1952 
Q 1549 2208 1632 2438 
L 1811 2406 
Q 1722 2170 1597 1910 
Q 1472 1651 1341 1414 
Q 1210 1178 1094 1005 
L 896 1018 
z
" transform="scale(0.015625)"/>
        <path id="NotoSansSC-Thin-636e" d="M 2714 5011 
L 5843 5011 
L 5843 3558 
L 2714 3558 
L 2714 3744 
L 5651 3744 
L 5651 4826 
L 2714 4826 
L 2714 5011 
z
M 2618 5011 
L 2803 5011 
L 2803 3104 
Q 2803 2714 2777 2256 
Q 2752 1798 2675 1328 
Q 2598 858 2441 406 
Q 2285 -45 2022 -429 
Q 2003 -410 1974 -394 
Q 1946 -378 1914 -358 
Q 1882 -339 1856 -333 
Q 2118 51 2268 486 
Q 2419 922 2496 1379 
Q 2573 1837 2595 2278 
Q 2618 2720 2618 3104 
L 2618 5011 
z
M 2765 2714 
L 6106 2714 
L 6106 2522 
L 2765 2522 
L 2765 2714 
z
M 3187 64 
L 5702 64 
L 5702 -122 
L 3187 -122 
L 3187 64 
z
M 4352 3597 
L 4544 3597 
L 4544 1472 
L 4352 1472 
L 4352 3597 
z
M 3085 1549 
L 5856 1549 
L 5856 -422 
L 5664 -422 
L 5664 1363 
L 3277 1363 
L 3277 -461 
L 3085 -461 
L 3085 1549 
z
M 237 1760 
Q 602 1882 1126 2064 
Q 1651 2246 2195 2445 
L 2227 2253 
Q 1722 2074 1219 1891 
Q 717 1709 320 1562 
L 237 1760 
z
M 301 3949 
L 2227 3949 
L 2227 3757 
L 301 3757 
L 301 3949 
z
M 1229 5312 
L 1421 5312 
L 1421 -147 
Q 1421 -275 1376 -332 
Q 1331 -390 1242 -416 
Q 1158 -442 988 -448 
Q 819 -454 518 -448 
Q 512 -416 489 -365 
Q 467 -314 442 -269 
Q 685 -275 870 -275 
Q 1056 -275 1114 -269 
Q 1171 -269 1200 -243 
Q 1229 -218 1229 -147 
L 1229 5312 
z
" transform="scale(0.015625)"/>
       </defs>
       <use xlink:href="#NotoSansSC-Thin-897f"/>
       <use xlink:href="#NotoSansSC-Thin-90e8" transform="translate(99.999985 0)"/>
       <use xlink:href="#NotoSansSC-Thin-6570" transform="translate(199.999969 0)"/>
       <use xlink:href="#NotoSansSC-Thin-636e" transform="translate(299.999954 0)"/>
      </g>
     </g>
    </g>
    <g id="ytick_4">
     <g id="line2d_17">
      <path d="M 53.7 105.30217 
L 381.55 105.30217 
" clip-path="url(#pd148a078fa)" style="fill: none; stroke: #e2e8f0; stroke-opacity: 0.15; stroke-width: 0.5; stroke-linecap: square"/>
     </g>
     <g id="line2d_18">
      <g>
       <use xlink:href="#m2b781402e7" x="53.7" y="105.30217" style="fill: #64748b; stroke: #64748b; stroke-width: 0.5"/>
      </g>
     </g>
     <g id="text_10">
      <!-- 闪迪 -->
      <g style="fill: #64748b" transform="translate(31.2 108.47842) scale(0.08 -0.08)">
       <defs>
        <path id="NotoSansSC-Thin-95ea" d="M 5638 5011 
L 5830 5011 
L 5830 -77 
Q 5830 -237 5779 -310 
Q 5728 -384 5600 -416 
Q 5478 -442 5216 -445 
Q 4954 -448 4538 -448 
Q 4531 -422 4515 -387 
Q 4499 -352 4483 -313 
Q 4467 -275 4448 -243 
Q 4691 -250 4902 -250 
Q 5114 -250 5267 -246 
Q 5421 -243 5485 -243 
Q 5574 -237 5606 -201 
Q 5638 -166 5638 -83 
L 5638 5011 
z
M 614 3827 
L 806 3827 
L 806 -442 
L 614 -442 
L 614 3827 
z
M 2259 5011 
L 5766 5011 
L 5766 4826 
L 2259 4826 
L 2259 5011 
z
M 909 5152 
L 1062 5229 
Q 1248 5056 1433 4845 
Q 1619 4634 1776 4429 
Q 1933 4224 2029 4064 
L 1862 3968 
Q 1773 4128 1619 4336 
Q 1466 4544 1280 4758 
Q 1094 4973 909 5152 
z
M 3021 2714 
L 3162 2835 
Q 3507 2554 3843 2211 
Q 4179 1869 4457 1533 
Q 4736 1197 4896 922 
L 4730 774 
Q 4570 1056 4294 1398 
Q 4019 1741 3686 2086 
Q 3354 2432 3021 2714 
z
M 3347 3917 
L 3565 3878 
Q 3315 2790 2819 2012 
Q 2323 1235 1542 736 
Q 1530 755 1501 787 
Q 1472 819 1443 851 
Q 1414 883 1389 902 
Q 2150 1363 2633 2121 
Q 3117 2880 3347 3917 
z
" transform="scale(0.015625)"/>
        <path id="NotoSansSC-Thin-8fea" d="M 3878 5312 
L 4064 5312 
L 4064 934 
L 3878 934 
L 3878 5312 
z
M 1478 3027 
L 1478 410 
L 1293 410 
L 1293 2835 
L 339 2835 
L 339 3027 
L 1478 3027 
z
M 525 4736 
L 653 4870 
Q 858 4755 1075 4614 
Q 1293 4474 1485 4330 
Q 1677 4186 1798 4070 
L 1670 3917 
Q 1549 4038 1357 4182 
Q 1165 4326 947 4473 
Q 730 4621 525 4736 
z
M 1389 557 
Q 1549 557 1696 438 
Q 1843 320 2125 134 
Q 2451 -70 2851 -134 
Q 3251 -198 3795 -198 
Q 4096 -198 4400 -192 
Q 4704 -186 5005 -173 
Q 5306 -160 5581 -144 
Q 5856 -128 6099 -109 
Q 6086 -134 6070 -169 
Q 6054 -205 6048 -243 
Q 6042 -282 6035 -320 
Q 5888 -326 5619 -339 
Q 5350 -352 5024 -358 
Q 4698 -365 4374 -371 
Q 4051 -378 3795 -378 
Q 3213 -378 2787 -301 
Q 2362 -224 2022 -6 
Q 1843 122 1673 256 
Q 1504 390 1389 390 
Q 1274 390 1130 281 
Q 986 173 816 -9 
Q 646 -192 461 -429 
L 320 -294 
Q 627 70 892 313 
Q 1158 557 1389 557 
z
M 2560 2400 
L 2560 1005 
L 5466 1005 
L 5466 2400 
L 2560 2400 
z
M 2560 3955 
L 2560 2586 
L 5466 2586 
L 5466 3955 
L 2560 3955 
z
M 2374 4141 
L 5651 4141 
L 5651 819 
L 2374 819 
L 2374 4141 
z
" transform="scale(0.015625)"/>
       </defs>
       <use xlink:href="#NotoSansSC-Thin-95ea"/>
       <use xlink:href="#NotoSansSC-Thin-8fea" transform="translate(99.999985 0)"/>
      </g>
     </g>
    </g>
    <g id="ytick_5">
     <g id="line2d_19">
      <path d="M 53.7 75.760886 
L 381.55 75.760886 
" clip-path="url(#pd148a078fa)" style="fill: none; stroke: #e2e8f0; stroke-opacity: 0.15; stroke-width: 0.5; stroke-linecap: square"/>
     </g>
     <g id="line2d_20">
      <g>
       <use xlink:href="#m2b781402e7" x="53.7" y="75.760886" style="fill: #64748b; stroke: #64748b; stroke-width: 0.5"/>
      </g>
     </g>
     <g id="text_11">
      <!-- 费城半导体 -->
      <g style="fill: #64748b" transform="translate(7.2 78.937136) scale(0.08 -0.08)">
       <defs>
        <path id="NotoSansSC-Thin-8d39" d="M 1114 4013 
L 5344 4013 
L 5344 4640 
L 704 4640 
L 704 4832 
L 5536 4832 
L 5536 3827 
L 1114 3827 
L 1114 4013 
z
M 1037 3149 
L 5754 3149 
L 5754 2963 
L 979 2963 
L 1037 3149 
z
M 5715 3149 
L 5894 3149 
Q 5894 3149 5891 3107 
Q 5888 3066 5882 3034 
Q 5843 2739 5801 2595 
Q 5760 2451 5690 2394 
Q 5638 2355 5580 2339 
Q 5523 2323 5434 2323 
Q 5363 2317 5219 2323 
Q 5075 2330 4922 2336 
Q 4915 2374 4902 2422 
Q 4890 2470 4870 2509 
Q 5050 2490 5200 2486 
Q 5350 2483 5402 2483 
Q 5466 2483 5501 2489 
Q 5536 2496 5562 2522 
Q 5606 2560 5641 2691 
Q 5677 2822 5715 3117 
L 5715 3149 
z
M 2387 5312 
L 2573 5312 
L 2573 4122 
Q 2573 3789 2509 3475 
Q 2445 3162 2243 2880 
Q 2042 2598 1638 2352 
Q 1235 2106 557 1901 
Q 550 1926 534 1955 
Q 518 1984 499 2013 
Q 480 2042 461 2061 
Q 1114 2253 1501 2486 
Q 1888 2720 2077 2985 
Q 2266 3251 2326 3536 
Q 2387 3821 2387 4122 
L 2387 5312 
z
M 3910 5312 
L 4102 5312 
L 4102 2291 
L 3910 2291 
L 3910 5312 
z
M 1286 2099 
L 5178 2099 
L 5178 320 
L 4986 320 
L 4986 1914 
L 1478 1914 
L 1478 301 
L 1286 301 
L 1286 2099 
z
M 3142 1594 
L 3347 1594 
Q 3264 1101 3081 749 
Q 2899 397 2569 157 
Q 2240 -83 1721 -230 
Q 1203 -378 448 -461 
Q 442 -435 429 -409 
Q 416 -384 400 -355 
Q 384 -326 365 -307 
Q 1107 -230 1609 -89 
Q 2112 51 2425 275 
Q 2739 499 2908 822 
Q 3078 1146 3142 1594 
z
M 3360 512 
L 3462 659 
Q 3776 570 4115 454 
Q 4454 339 4787 214 
Q 5120 90 5408 -35 
Q 5696 -160 5907 -269 
L 5805 -442 
Q 5594 -333 5306 -208 
Q 5018 -83 4688 45 
Q 4358 173 4016 294 
Q 3674 416 3360 512 
z
M 1050 4013 
L 1235 4013 
Q 1197 3750 1149 3459 
Q 1101 3168 1056 2963 
L 858 2963 
Q 909 3181 963 3469 
Q 1018 3757 1050 4013 
z
" transform="scale(0.015625)"/>
        <path id="NotoSansSC-Thin-57ce" d="M 397 3718 
L 2099 3718 
L 2099 3533 
L 397 3533 
L 397 3718 
z
M 1184 5254 
L 1376 5254 
L 1376 966 
L 1184 966 
L 1184 5254 
z
M 346 691 
Q 685 806 1158 988 
Q 1632 1171 2125 1363 
L 2157 1178 
Q 1690 998 1235 822 
Q 781 646 416 499 
L 346 691 
z
M 2490 4243 
L 6054 4243 
L 6054 4051 
L 2490 4051 
L 2490 4243 
z
M 2541 3014 
L 3846 3014 
L 3846 2822 
L 2541 2822 
L 2541 3014 
z
M 2438 4243 
L 2630 4243 
L 2630 2387 
Q 2630 2061 2601 1689 
Q 2573 1318 2493 940 
Q 2413 563 2259 204 
Q 2106 -154 1856 -461 
Q 1843 -435 1814 -412 
Q 1786 -390 1760 -371 
Q 1734 -352 1709 -339 
Q 2042 58 2195 531 
Q 2349 1005 2393 1485 
Q 2438 1965 2438 2387 
L 2438 4243 
z
M 3750 3014 
L 3949 3014 
Q 3949 3014 3949 2966 
Q 3949 2918 3942 2886 
Q 3936 2131 3920 1692 
Q 3904 1254 3875 1043 
Q 3846 832 3789 762 
Q 3738 698 3670 669 
Q 3603 640 3488 634 
Q 3392 634 3222 637 
Q 3053 640 2874 653 
Q 2867 698 2854 752 
Q 2842 806 2810 838 
Q 3021 826 3203 822 
Q 3386 819 3450 819 
Q 3584 819 3622 870 
Q 3661 928 3686 1136 
Q 3712 1344 3728 1785 
Q 3744 2227 3750 2970 
L 3750 3014 
z
M 4365 5318 
L 4563 5318 
Q 4563 4461 4598 3721 
Q 4634 2982 4701 2368 
Q 4768 1754 4864 1280 
Q 4960 806 5085 476 
Q 5210 147 5363 -22 
Q 5517 -192 5690 -192 
Q 5818 -192 5872 73 
Q 5926 339 5952 954 
Q 5984 928 6038 902 
Q 6093 877 6131 864 
Q 6112 403 6067 128 
Q 6022 -147 5929 -268 
Q 5837 -390 5670 -390 
Q 5446 -390 5260 -201 
Q 5075 -13 4934 345 
Q 4794 704 4688 1213 
Q 4582 1722 4515 2358 
Q 4448 2995 4409 3740 
Q 4371 4486 4365 5318 
z
M 4806 5094 
L 4928 5216 
Q 5171 5069 5433 4870 
Q 5696 4672 5843 4525 
L 5715 4378 
Q 5574 4538 5312 4739 
Q 5050 4941 4806 5094 
z
M 5658 3264 
L 5850 3226 
Q 5523 2003 4947 1104 
Q 4371 205 3514 -390 
Q 3501 -371 3472 -342 
Q 3443 -314 3414 -285 
Q 3386 -256 3360 -243 
Q 4224 314 4787 1203 
Q 5350 2093 5658 3264 
z
" transform="scale(0.015625)"/>
        <path id="NotoSansSC-Thin-534a" d="M 1056 5037 
L 1216 5114 
Q 1382 4883 1545 4617 
Q 1709 4352 1843 4102 
Q 1978 3853 2048 3661 
L 1882 3571 
Q 1811 3763 1680 4019 
Q 1549 4275 1385 4544 
Q 1222 4813 1056 5037 
z
M 5165 5120 
L 5350 5024 
Q 5216 4787 5053 4515 
Q 4890 4243 4723 3987 
Q 4557 3731 4403 3533 
L 4256 3616 
Q 4410 3808 4576 4073 
Q 4742 4339 4899 4617 
Q 5056 4896 5165 5120 
z
M 819 3174 
L 5619 3174 
L 5619 2989 
L 819 2989 
L 819 3174 
z
M 378 1690 
L 6029 1690 
L 6029 1498 
L 378 1498 
L 378 1690 
z
M 3085 5318 
L 3277 5318 
L 3277 -435 
L 3085 -435 
L 3085 5318 
z
" transform="scale(0.015625)"/>
        <path id="NotoSansSC-Thin-5bfc" d="M 429 1741 
L 6022 1741 
L 6022 1549 
L 429 1549 
L 429 1741 
z
M 4339 2368 
L 4531 2368 
L 4531 -90 
Q 4531 -218 4486 -282 
Q 4442 -346 4320 -371 
Q 4205 -397 3936 -403 
Q 3667 -410 3187 -410 
Q 3181 -371 3155 -323 
Q 3130 -275 3104 -230 
Q 3379 -237 3600 -237 
Q 3821 -237 3974 -233 
Q 4128 -230 4186 -230 
Q 4275 -224 4307 -195 
Q 4339 -166 4339 -96 
L 4339 2368 
z
M 1491 1344 
L 1638 1440 
Q 1837 1254 2032 1027 
Q 2227 800 2387 582 
Q 2547 365 2637 192 
L 2477 83 
Q 2394 262 2234 483 
Q 2074 704 1882 931 
Q 1690 1158 1491 1344 
z
M 954 4973 
L 1146 4973 
L 1146 3085 
Q 1146 2950 1210 2873 
Q 1274 2797 1456 2765 
Q 1638 2733 2003 2733 
Q 2093 2733 2307 2733 
Q 2522 2733 2810 2733 
Q 3098 2733 3418 2733 
Q 3738 2733 4038 2733 
Q 4339 2733 4572 2733 
Q 4806 2733 4928 2733 
Q 5203 2733 5337 2787 
Q 5472 2842 5526 3002 
Q 5581 3162 5600 3462 
Q 5651 3437 5705 3414 
Q 5760 3392 5805 3379 
Q 5779 3053 5705 2870 
Q 5632 2688 5453 2617 
Q 5274 2547 4922 2547 
Q 4870 2547 4652 2547 
Q 4435 2547 4128 2547 
Q 3821 2547 3481 2547 
Q 3142 2547 2835 2547 
Q 2528 2547 2317 2547 
Q 2106 2547 2061 2547 
Q 1632 2547 1389 2588 
Q 1146 2630 1050 2745 
Q 954 2861 954 3091 
L 954 4973 
z
M 1043 3859 
L 5088 3859 
L 5088 4787 
L 954 4787 
L 954 4973 
L 5274 4973 
L 5274 3667 
L 1043 3667 
L 1043 3859 
z
" transform="scale(0.015625)"/>
        <path id="NotoSansSC-Thin-4f53" d="M 1792 5293 
L 1971 5248 
Q 1792 4710 1552 4201 
Q 1312 3693 1033 3245 
Q 755 2797 448 2438 
Q 435 2458 409 2486 
Q 384 2515 355 2544 
Q 326 2573 301 2592 
Q 602 2925 880 3360 
Q 1158 3795 1388 4288 
Q 1619 4781 1792 5293 
z
M 1152 3763 
L 1325 3942 
L 1338 3936 
L 1338 -435 
L 1152 -435 
L 1152 3763 
z
M 3808 5306 
L 3994 5306 
L 3994 -422 
L 3808 -422 
L 3808 5306 
z
M 1818 3872 
L 6061 3872 
L 6061 3680 
L 1818 3680 
L 1818 3872 
z
M 2541 1043 
L 5203 1043 
L 5203 851 
L 2541 851 
L 2541 1043 
z
M 4186 3808 
Q 4384 3206 4688 2630 
Q 4992 2054 5366 1584 
Q 5741 1114 6138 838 
Q 6099 813 6054 768 
Q 6010 723 5978 685 
Q 5581 986 5206 1469 
Q 4832 1952 4521 2541 
Q 4211 3130 4006 3750 
L 4186 3808 
z
M 3642 3802 
L 3802 3744 
Q 3590 3123 3267 2534 
Q 2944 1946 2566 1462 
Q 2189 979 1798 666 
Q 1786 691 1763 720 
Q 1741 749 1712 774 
Q 1683 800 1658 813 
Q 2048 1094 2422 1568 
Q 2797 2042 3117 2621 
Q 3437 3200 3642 3802 
z
" transform="scale(0.015625)"/>
       </defs>
       <use xlink:href="#NotoSansSC-Thin-8d39"/>
       <use xlink:href="#NotoSansSC-Thin-57ce" transform="translate(99.999985 0)"/>
       <use xlink:href="#NotoSansSC-Thin-534a" transform="translate(199.999969 0)"/>
       <use xlink:href="#NotoSansSC-Thin-5bfc" transform="translate(299.999954 0)"/>
       <use xlink:href="#NotoSansSC-Thin-4f53" transform="translate(399.999939 0)"/>
      </g>
     </g>
    </g>
    <g id="ytick_6">
     <g id="line2d_21">
      <path d="M 53.7 46.219601 
L 381.55 46.219601 
" clip-path="url(#pd148a078fa)" style="fill: none; stroke: #e2e8f0; stroke-opacity: 0.15; stroke-width: 0.5; stroke-linecap: square"/>
     </g>
     <g id="line2d_22">
      <g>
       <use xlink:href="#m2b781402e7" x="53.7" y="46.219601" style="fill: #64748b; stroke: #64748b; stroke-width: 0.5"/>
      </g>
     </g>
     <g id="text_12">
      <!-- 三星电子 -->
      <g style="fill: #64748b" transform="translate(15.2 49.395851) scale(0.08 -0.08)">
       <defs>
        <path id="NotoSansSC-Thin-4e09" d="M 813 4685 
L 5613 4685 
L 5613 4499 
L 813 4499 
L 813 4685 
z
M 1190 2560 
L 5120 2560 
L 5120 2374 
L 1190 2374 
L 1190 2560 
z
M 435 282 
L 5971 282 
L 5971 96 
L 435 96 
L 435 282 
z
" transform="scale(0.015625)"/>
        <path id="NotoSansSC-Thin-661f" d="M 1165 1050 
L 5312 1050 
L 5312 858 
L 1165 858 
L 1165 1050 
z
M 1267 2054 
L 5562 2054 
L 5562 1862 
L 1267 1862 
L 1267 2054 
z
M 448 -102 
L 5952 -102 
L 5952 -288 
L 448 -288 
L 448 -102 
z
M 3091 2701 
L 3283 2701 
L 3283 -211 
L 3091 -211 
L 3091 2701 
z
M 1344 3853 
L 1344 3046 
L 5114 3046 
L 5114 3853 
L 1344 3853 
z
M 1344 4832 
L 1344 4038 
L 5114 4038 
L 5114 4832 
L 1344 4832 
z
M 1158 5018 
L 5299 5018 
L 5299 2861 
L 1158 2861 
L 1158 5018 
z
M 1658 2784 
L 1843 2733 
Q 1690 2413 1482 2112 
Q 1274 1811 1043 1548 
Q 813 1286 570 1082 
Q 557 1101 528 1123 
Q 499 1146 467 1168 
Q 435 1190 403 1203 
Q 781 1498 1110 1914 
Q 1440 2330 1658 2784 
z
" transform="scale(0.015625)"/>
        <path id="NotoSansSC-Thin-7535" d="M 1030 2982 
L 5325 2982 
L 5325 2790 
L 1030 2790 
L 1030 2982 
z
M 3040 5331 
L 3226 5331 
L 3226 326 
Q 3226 154 3267 61 
Q 3309 -32 3417 -70 
Q 3526 -109 3731 -109 
Q 3795 -109 3958 -109 
Q 4122 -109 4330 -109 
Q 4538 -109 4749 -109 
Q 4960 -109 5136 -109 
Q 5312 -109 5395 -109 
Q 5587 -109 5686 -9 
Q 5786 90 5824 339 
Q 5862 589 5882 1037 
Q 5926 1005 5980 979 
Q 6035 954 6080 941 
Q 6054 474 6000 202 
Q 5946 -70 5805 -185 
Q 5664 -301 5370 -301 
Q 5331 -301 5168 -301 
Q 5005 -301 4784 -301 
Q 4563 -301 4342 -301 
Q 4122 -301 3958 -301 
Q 3795 -301 3757 -301 
Q 3482 -301 3325 -249 
Q 3168 -198 3104 -57 
Q 3040 83 3040 339 
L 3040 5331 
z
M 992 4378 
L 5459 4378 
L 5459 1350 
L 992 1350 
L 992 1536 
L 5267 1536 
L 5267 4192 
L 992 4192 
L 992 4378 
z
M 902 4378 
L 1107 4378 
L 1107 934 
L 902 934 
L 902 4378 
z
" transform="scale(0.015625)"/>
        <path id="NotoSansSC-Thin-5b50" d="M 358 2400 
L 6067 2400 
L 6067 2208 
L 358 2208 
L 358 2400 
z
M 1005 4819 
L 5325 4819 
L 5325 4627 
L 1005 4627 
L 1005 4819 
z
M 5248 4819 
L 5293 4819 
L 5338 4832 
L 5478 4730 
Q 5197 4454 4813 4176 
Q 4429 3898 4019 3654 
Q 3610 3411 3251 3238 
Q 3238 3264 3212 3286 
Q 3187 3309 3164 3331 
Q 3142 3354 3117 3366 
Q 3482 3533 3882 3769 
Q 4282 4006 4643 4268 
Q 5005 4531 5248 4774 
L 5248 4819 
z
M 3117 3366 
L 3309 3366 
L 3309 -96 
Q 3309 -256 3254 -323 
Q 3200 -390 3059 -416 
Q 2931 -442 2636 -448 
Q 2342 -454 1856 -454 
Q 1850 -429 1834 -397 
Q 1818 -365 1805 -326 
Q 1792 -288 1773 -256 
Q 2067 -262 2307 -265 
Q 2547 -269 2713 -265 
Q 2880 -262 2950 -262 
Q 3046 -250 3081 -218 
Q 3117 -186 3117 -102 
L 3117 3366 
z
" transform="scale(0.015625)"/>
       </defs>
       <use xlink:href="#NotoSansSC-Thin-4e09"/>
       <use xlink:href="#NotoSansSC-Thin-661f" transform="translate(99.999985 0)"/>
       <use xlink:href="#NotoSansSC-Thin-7535" transform="translate(199.999969 0)"/>
       <use xlink:href="#NotoSansSC-Thin-5b50" transform="translate(299.999954 0)"/>
      </g>
     </g>
    </g>
   </g>
   <g id="patch_3">
    <path d="M 53.7 208.622813 
L 53.7 31.522813 
" style="fill: none; stroke: #e2e8f0; stroke-width: 0.5; stroke-linejoin: miter; stroke-linecap: square"/>
   </g>
   <g id="patch_4">
    <path d="M 53.7 208.622813 
L 381.55 208.622813 
" style="fill: none; stroke: #e2e8f0; stroke-width: 0.5; stroke-linejoin: miter; stroke-linecap: square"/>
   </g>
   <g id="patch_5">
    <path d="M 53.7 200.572812 
L 317.346042 200.572812 
L 317.346042 187.279235 
L 53.7 187.279235 
z
" clip-path="url(#pd148a078fa)" style="fill: #6d28d9; stroke: #ffffff; stroke-width: 1.5; stroke-linejoin: miter"/>
   </g>
   <g id="patch_6">
    <path d="M 53.7 171.031528 
L 203.964583 171.031528 
L 203.964583 157.73795 
L 53.7 157.73795 
z
" clip-path="url(#pd148a078fa)" style="fill: #7c3aed; stroke: #ffffff; stroke-width: 1.5; stroke-linejoin: miter"/>
   </g>
   <g id="patch_7">
    <path d="M 53.7 141.490244 
L 176.64375 141.490244 
L 176.64375 128.196666 
L 53.7 128.196666 
z
" clip-path="url(#pd148a078fa)" style="fill: #8b5cf6; stroke: #ffffff; stroke-width: 1.5; stroke-linejoin: miter"/>
   </g>
   <g id="patch_8">
    <path d="M 53.7 111.948959 
L 149.322917 111.948959 
L 149.322917 98.655381 
L 53.7 98.655381 
z
" clip-path="url(#pd148a078fa)" style="fill: #a78bfa; stroke: #ffffff; stroke-width: 1.5; stroke-linejoin: miter"/>
   </g>
   <g id="patch_9">
    <path d="M 53.7 82.407675 
L 124.734167 82.407675 
L 124.734167 69.114097 
L 53.7 69.114097 
z
" clip-path="url(#pd148a078fa)" style="fill: #8b5cf6; stroke: #ffffff; stroke-width: 1.5; stroke-linejoin: miter"/>
   </g>
   <g id="patch_10">
    <path d="M 53.7 52.86639 
L 122.002083 52.86639 
L 122.002083 39.572813 
L 53.7 39.572813 
z
" clip-path="url(#pd148a078fa)" style="fill: #a78bfa; stroke: #ffffff; stroke-width: 1.5; stroke-linejoin: miter"/>
   </g>
   <g id="text_13">
    <!-- +19.3% -->
    <g style="fill: #1e293b" transform="translate(321.444167 196.405945) scale(0.09 -0.09)">
     <defs>
      <path id="NotoSansSC-Thin-2b" d="M 1549 787 
L 1549 2221 
L 237 2221 
L 237 2426 
L 1549 2426 
L 1549 3866 
L 1786 3866 
L 1786 2426 
L 3098 2426 
L 3098 2221 
L 1786 2221 
L 1786 787 
L 1549 787 
z
" transform="scale(0.015625)"/>
      <path id="NotoSansSC-Thin-39" d="M 1370 -83 
Q 1050 -83 819 32 
Q 589 147 410 339 
L 557 506 
Q 723 314 934 221 
Q 1146 128 1389 128 
Q 1651 128 1891 256 
Q 2131 384 2316 675 
Q 2502 966 2611 1443 
Q 2720 1920 2720 2618 
Q 2720 3168 2592 3600 
Q 2464 4032 2195 4278 
Q 1926 4525 1498 4525 
Q 1229 4525 1014 4355 
Q 800 4186 675 3901 
Q 550 3616 550 3264 
Q 550 2912 652 2627 
Q 755 2342 979 2172 
Q 1203 2003 1555 2003 
Q 1830 2003 2137 2182 
Q 2445 2362 2739 2765 
L 2746 2470 
Q 2586 2278 2397 2128 
Q 2208 1978 1993 1891 
Q 1779 1805 1536 1805 
Q 1152 1805 877 1974 
Q 602 2144 454 2470 
Q 307 2797 307 3264 
Q 307 3686 473 4019 
Q 640 4352 912 4541 
Q 1184 4730 1510 4730 
Q 1850 4730 2118 4589 
Q 2387 4448 2572 4176 
Q 2758 3904 2857 3513 
Q 2957 3123 2957 2618 
Q 2957 1862 2825 1344 
Q 2694 826 2470 512 
Q 2246 198 1961 57 
Q 1677 -83 1370 -83 
z
" transform="scale(0.015625)"/>
      <path id="NotoSansSC-Thin-2e" d="M 736 -83 
Q 640 -83 560 -9 
Q 480 64 480 192 
Q 480 333 560 406 
Q 640 480 736 480 
Q 838 480 918 406 
Q 998 333 998 192 
Q 998 64 918 -9 
Q 838 -83 736 -83 
z
" transform="scale(0.015625)"/>
      <path id="NotoSansSC-Thin-33" d="M 1619 -83 
Q 1261 -83 998 13 
Q 736 109 544 256 
Q 352 403 211 550 
L 358 717 
Q 563 499 857 313 
Q 1152 128 1632 128 
Q 1952 128 2198 262 
Q 2445 397 2585 640 
Q 2726 883 2726 1210 
Q 2726 1542 2560 1795 
Q 2394 2048 2038 2189 
Q 1683 2330 1114 2330 
L 1114 2554 
Q 1651 2554 1964 2698 
Q 2278 2842 2416 3088 
Q 2554 3334 2554 3629 
Q 2554 4026 2298 4272 
Q 2042 4518 1606 4518 
Q 1293 4518 1017 4374 
Q 742 4230 557 4026 
L 410 4192 
Q 634 4410 925 4570 
Q 1216 4730 1606 4730 
Q 1939 4730 2211 4598 
Q 2483 4467 2643 4224 
Q 2803 3981 2803 3642 
Q 2803 3168 2550 2877 
Q 2298 2586 1926 2464 
L 1926 2438 
Q 2208 2381 2445 2221 
Q 2682 2061 2826 1808 
Q 2970 1555 2970 1222 
Q 2970 826 2790 531 
Q 2611 237 2307 77 
Q 2003 -83 1619 -83 
z
" transform="scale(0.015625)"/>
     </defs>
     <use xlink:href="#NotoSansSC-Thin-2b"/>
     <use xlink:href="#NotoSansSC-Thin-31" transform="translate(52.099991 0)"/>
     <use xlink:href="#NotoSansSC-Thin-39" transform="translate(104.199982 0)"/>
     <use xlink:href="#NotoSansSC-Thin-2e" transform="translate(156.299973 0)"/>
     <use xlink:href="#NotoSansSC-Thin-33" transform="translate(179.399963 0)"/>
     <use xlink:href="#NotoSansSC-Thin-25" transform="translate(231.499954 0)"/>
    </g>
   </g>
   <g id="text_14">
    <!-- +11.0% -->
    <g style="fill: #1e293b" transform="translate(208.062708 166.864661) scale(0.09 -0.09)">
     <use xlink:href="#NotoSansSC-Thin-2b"/>
     <use xlink:href="#NotoSansSC-Thin-31" transform="translate(52.099991 0)"/>
     <use xlink:href="#NotoSansSC-Thin-31" transform="translate(104.199982 0)"/>
     <use xlink:href="#NotoSansSC-Thin-2e" transform="translate(156.299973 0)"/>
     <use xlink:href="#NotoSansSC-Thin-30" transform="translate(179.399963 0)"/>
     <use xlink:href="#NotoSansSC-Thin-25" transform="translate(231.499954 0)"/>
    </g>
   </g>
   <g id="text_15">
    <!-- +9.0% -->
    <g style="fill: #1e293b" transform="translate(180.741875 137.323377) scale(0.09 -0.09)">
     <use xlink:href="#NotoSansSC-Thin-2b"/>
     <use xlink:href="#NotoSansSC-Thin-39" transform="translate(52.099991 0)"/>
     <use xlink:href="#NotoSansSC-Thin-2e" transform="translate(104.199982 0)"/>
     <use xlink:href="#NotoSansSC-Thin-30" transform="translate(127.299973 0)"/>
     <use xlink:href="#NotoSansSC-Thin-25" transform="translate(179.399963 0)"/>
    </g>
   </g>
   <g id="text_16">
    <!-- +7.0% -->
    <g style="fill: #1e293b" transform="translate(153.421042 107.782092) scale(0.09 -0.09)">
     <defs>
      <path id="NotoSansSC-Thin-37" d="M 1344 0 
Q 1376 717 1462 1318 
Q 1549 1920 1712 2445 
Q 1875 2970 2124 3459 
Q 2374 3949 2726 4435 
L 307 4435 
L 307 4646 
L 3034 4646 
L 3034 4512 
Q 2624 3955 2355 3436 
Q 2086 2918 1932 2384 
Q 1779 1850 1705 1267 
Q 1632 685 1606 0 
L 1344 0 
z
" transform="scale(0.015625)"/>
     </defs>
     <use xlink:href="#NotoSansSC-Thin-2b"/>
     <use xlink:href="#NotoSansSC-Thin-37" transform="translate(52.099991 0)"/>
     <use xlink:href="#NotoSansSC-Thin-2e" transform="translate(104.199982 0)"/>
     <use xlink:href="#NotoSansSC-Thin-30" transform="translate(127.299973 0)"/>
     <use xlink:href="#NotoSansSC-Thin-25" transform="translate(179.399963 0)"/>
    </g>
   </g>
   <g id="text_17">
    <!-- +5.2% -->
    <g style="fill: #1e293b" transform="translate(128.832292 78.240808) scale(0.09 -0.09)">
     <use xlink:href="#NotoSansSC-Thin-2b"/>
     <use xlink:href="#NotoSansSC-Thin-35" transform="translate(52.099991 0)"/>
     <use xlink:href="#NotoSansSC-Thin-2e" transform="translate(104.199982 0)"/>
     <use xlink:href="#NotoSansSC-Thin-32" transform="translate(127.299973 0)"/>
     <use xlink:href="#NotoSansSC-Thin-25" transform="translate(179.399963 0)"/>
    </g>
   </g>
   <g id="text_18">
    <!-- +5.0% -->
    <g style="fill: #1e293b" transform="translate(126.100208 48.699523) scale(0.09 -0.09)">
     <use xlink:href="#NotoSansSC-Thin-2b"/>
     <use xlink:href="#NotoSansSC-Thin-35" transform="translate(52.099991 0)"/>
     <use xlink:href="#NotoSansSC-Thin-2e" transform="translate(104.199982 0)"/>
     <use xlink:href="#NotoSansSC-Thin-30" transform="translate(127.299973 0)"/>
     <use xlink:href="#NotoSansSC-Thin-25" transform="translate(179.399963 0)"/>
    </g>
   </g>
   <g id="text_19">
    <g id="patch_11">
     <path d="M 287.9825 202.767812 
L 365.1575 202.767812 
Q 368.1575 202.767812 368.1575 199.767812 
L 368.1575 183.02125 
Q 368.1575 180.02125 365.1575 180.02125 
L 287.9825 180.02125 
Q 284.9825 180.02125 284.9825 183.02125 
L 284.9825 199.767812 
Q 284.9825 202.767812 287.9825 202.767812 
z
" style="fill: #f5f3ff; opacity: 0.9; stroke: #ddd6fe; stroke-width: 1.5; stroke-linejoin: miter"/>
    </g>
    <!-- 美光HBM产能全年售罄 -->
    <g style="fill: #1e293b" transform="translate(289.4075 188.976719) scale(0.075 -0.075)">
     <defs>
      <path id="NotoSansSC-Thin-48" d="M 704 0 
L 704 4646 
L 941 4646 
L 941 2586 
L 3526 2586 
L 3526 4646 
L 3770 4646 
L 3770 0 
L 3526 0 
L 3526 2374 
L 941 2374 
L 941 0 
L 704 0 
z
" transform="scale(0.015625)"/>
      <path id="NotoSansSC-Thin-42" d="M 704 0 
L 704 4646 
L 1920 4646 
Q 2387 4646 2723 4524 
Q 3059 4403 3244 4153 
Q 3430 3904 3430 3520 
Q 3430 3277 3347 3072 
Q 3264 2867 3104 2723 
Q 2944 2579 2701 2509 
L 2701 2477 
Q 3162 2406 3443 2121 
Q 3725 1837 3725 1350 
Q 3725 909 3513 608 
Q 3302 307 2918 153 
Q 2534 0 2003 0 
L 704 0 
z
M 941 2586 
L 1779 2586 
Q 2541 2586 2864 2832 
Q 3187 3078 3187 3507 
Q 3187 4019 2841 4230 
Q 2496 4442 1824 4442 
L 941 4442 
L 941 2586 
z
M 941 211 
L 1920 211 
Q 2643 211 3065 483 
Q 3488 755 3488 1338 
Q 3488 1869 3075 2121 
Q 2662 2374 1920 2374 
L 941 2374 
L 941 211 
z
" transform="scale(0.015625)"/>
      <path id="NotoSansSC-Thin-4d" d="M 704 0 
L 704 4646 
L 1082 4646 
L 2074 1843 
Q 2170 1587 2266 1321 
Q 2362 1056 2458 794 
L 2483 794 
Q 2579 1056 2668 1321 
Q 2758 1587 2848 1843 
L 3846 4646 
L 4224 4646 
L 4224 0 
L 3987 0 
L 3987 3213 
Q 3987 3398 3990 3606 
Q 3994 3814 4000 4028 
Q 4006 4243 4013 4429 
L 3987 4429 
L 3629 3405 
L 2586 518 
L 2336 518 
L 1286 3405 
L 922 4429 
L 896 4429 
Q 909 4243 915 4028 
Q 922 3814 925 3606 
Q 928 3398 928 3213 
L 928 0 
L 704 0 
z
" transform="scale(0.015625)"/>
      <path id="NotoSansSC-Thin-4ea7" d="M 1005 2912 
L 5888 2912 
L 5888 2720 
L 1005 2720 
L 1005 2912 
z
M 755 4435 
L 5696 4435 
L 5696 4250 
L 755 4250 
L 755 4435 
z
M 883 2912 
L 1075 2912 
L 1075 2048 
Q 1075 1779 1049 1459 
Q 1024 1139 957 803 
Q 890 467 768 140 
Q 646 -186 448 -467 
Q 435 -448 406 -425 
Q 378 -403 349 -380 
Q 320 -358 294 -352 
Q 550 13 675 441 
Q 800 870 841 1289 
Q 883 1709 883 2054 
L 883 2912 
z
M 1792 4026 
L 1952 4083 
Q 2118 3866 2288 3597 
Q 2458 3328 2541 3142 
L 2381 3066 
Q 2298 3264 2131 3536 
Q 1965 3808 1792 4026 
z
M 4518 4070 
L 4698 3994 
Q 4563 3706 4390 3376 
Q 4218 3046 4058 2816 
L 3917 2886 
Q 4019 3040 4131 3251 
Q 4243 3462 4345 3680 
Q 4448 3898 4518 4070 
z
M 2867 5229 
L 3027 5306 
Q 3187 5126 3334 4902 
Q 3482 4678 3558 4512 
L 3379 4422 
Q 3315 4589 3168 4819 
Q 3021 5050 2867 5229 
z
" transform="scale(0.015625)"/>
      <path id="NotoSansSC-Thin-80fd" d="M 710 3066 
L 2733 3066 
L 2733 2880 
L 896 2880 
L 896 -442 
L 710 -442 
L 710 3066 
z
M 2662 3066 
L 2848 3066 
L 2848 -115 
Q 2848 -237 2813 -301 
Q 2778 -365 2682 -397 
Q 2579 -422 2377 -425 
Q 2176 -429 1862 -429 
Q 1856 -390 1833 -332 
Q 1811 -275 1786 -230 
Q 2067 -237 2272 -237 
Q 2477 -237 2554 -230 
Q 2624 -230 2643 -208 
Q 2662 -186 2662 -122 
L 2662 3066 
z
M 813 2118 
L 2733 2118 
L 2733 1933 
L 813 1933 
L 813 2118 
z
M 813 1139 
L 2733 1139 
L 2733 947 
L 813 947 
L 813 1139 
z
M 3552 5318 
L 3738 5318 
L 3738 3002 
Q 3738 2861 3814 2813 
Q 3891 2765 4147 2765 
Q 4205 2765 4384 2765 
Q 4563 2765 4784 2765 
Q 5005 2765 5200 2765 
Q 5395 2765 5478 2765 
Q 5626 2765 5699 2825 
Q 5773 2886 5801 3062 
Q 5830 3238 5843 3590 
Q 5875 3558 5929 3536 
Q 5984 3514 6029 3501 
Q 6016 3136 5971 2934 
Q 5926 2733 5814 2656 
Q 5702 2579 5485 2579 
Q 5453 2579 5318 2579 
Q 5184 2579 5001 2579 
Q 4819 2579 4640 2579 
Q 4461 2579 4329 2579 
Q 4198 2579 4166 2579 
Q 3930 2579 3795 2611 
Q 3661 2643 3606 2736 
Q 3552 2829 3552 3002 
L 3552 5318 
z
M 5555 4755 
L 5709 4602 
Q 5446 4486 5110 4364 
Q 4774 4243 4412 4131 
Q 4051 4019 3706 3917 
Q 3699 3949 3680 3990 
Q 3661 4032 3635 4064 
Q 3968 4166 4326 4288 
Q 4685 4410 5008 4531 
Q 5331 4653 5555 4755 
z
M 3552 2355 
L 3738 2355 
L 3738 38 
Q 3738 -102 3818 -150 
Q 3898 -198 4160 -198 
Q 4224 -198 4406 -198 
Q 4589 -198 4809 -198 
Q 5030 -198 5225 -198 
Q 5421 -198 5510 -198 
Q 5664 -198 5741 -134 
Q 5818 -70 5850 128 
Q 5882 326 5894 723 
Q 5933 698 5984 675 
Q 6035 653 6080 640 
Q 6067 230 6019 9 
Q 5971 -211 5856 -297 
Q 5741 -384 5510 -384 
Q 5478 -384 5344 -384 
Q 5210 -384 5027 -384 
Q 4845 -384 4662 -384 
Q 4480 -384 4345 -384 
Q 4211 -384 4179 -384 
Q 3936 -384 3798 -352 
Q 3661 -320 3606 -227 
Q 3552 -134 3552 45 
L 3552 2355 
z
M 5658 1926 
L 5792 1773 
Q 5549 1619 5200 1484 
Q 4851 1350 4464 1235 
Q 4077 1120 3718 1024 
Q 3712 1056 3689 1101 
Q 3667 1146 3648 1178 
Q 4000 1274 4384 1395 
Q 4768 1517 5104 1651 
Q 5440 1786 5658 1926 
z
M 2042 4870 
L 2182 4941 
Q 2368 4730 2547 4483 
Q 2726 4237 2873 3997 
Q 3021 3757 3098 3571 
L 2957 3475 
Q 2874 3667 2726 3910 
Q 2579 4154 2403 4406 
Q 2227 4659 2042 4870 
z
M 512 3654 
Q 512 3674 499 3712 
Q 486 3750 473 3788 
Q 461 3827 448 3853 
Q 518 3866 582 3933 
Q 646 4000 730 4102 
Q 794 4173 928 4365 
Q 1062 4557 1216 4809 
Q 1370 5062 1485 5325 
L 1664 5235 
Q 1517 4960 1353 4697 
Q 1190 4435 1024 4201 
Q 858 3968 685 3782 
L 685 3776 
Q 685 3776 659 3766 
Q 634 3757 598 3737 
Q 563 3718 537 3696 
Q 512 3674 512 3654 
z
M 512 3654 
L 512 3802 
L 672 3885 
L 2854 3994 
Q 2848 3962 2845 3914 
Q 2842 3866 2848 3834 
Q 2240 3795 1833 3769 
Q 1427 3744 1177 3725 
Q 928 3706 797 3693 
Q 666 3680 605 3673 
Q 544 3667 512 3654 
z
" transform="scale(0.015625)"/>
      <path id="NotoSansSC-Thin-5168" d="M 1267 1466 
L 5229 1466 
L 5229 1274 
L 1267 1274 
L 1267 1466 
z
M 1274 2912 
L 5178 2912 
L 5178 2720 
L 1274 2720 
L 1274 2912 
z
M 486 -64 
L 5933 -64 
L 5933 -250 
L 486 -250 
L 486 -64 
z
M 3104 2854 
L 3296 2854 
L 3296 -166 
L 3104 -166 
L 3104 2854 
z
M 3245 5395 
L 3405 5318 
Q 3072 4794 2589 4278 
Q 2106 3763 1539 3328 
Q 973 2893 378 2592 
Q 352 2624 310 2665 
Q 269 2707 230 2733 
Q 826 3027 1395 3452 
Q 1965 3878 2445 4380 
Q 2925 4883 3245 5395 
z
M 3264 5222 
Q 3878 4435 4630 3830 
Q 5382 3226 6189 2720 
Q 6157 2701 6112 2656 
Q 6067 2611 6042 2573 
Q 5504 2925 4992 3312 
Q 4480 3699 4009 4150 
Q 3539 4602 3104 5139 
L 3264 5222 
z
" transform="scale(0.015625)"/>
      <path id="NotoSansSC-Thin-5e74" d="M 1958 5338 
L 2144 5286 
Q 1958 4819 1712 4384 
Q 1466 3949 1178 3577 
Q 890 3206 576 2918 
Q 557 2931 528 2953 
Q 499 2976 467 2998 
Q 435 3021 403 3034 
Q 730 3315 1018 3676 
Q 1306 4038 1546 4464 
Q 1786 4890 1958 5338 
z
M 1626 4474 
L 5811 4474 
L 5811 4288 
L 1530 4288 
L 1626 4474 
z
M 1453 3085 
L 5670 3085 
L 5670 2899 
L 1638 2899 
L 1638 1216 
L 1453 1216 
L 1453 3085 
z
M 352 1318 
L 6061 1318 
L 6061 1133 
L 352 1133 
L 352 1318 
z
M 3405 4371 
L 3597 4371 
L 3597 -454 
L 3405 -454 
L 3405 4371 
z
" transform="scale(0.015625)"/>
      <path id="NotoSansSC-Thin-552e" d="M 3046 5261 
L 3213 5312 
Q 3347 5120 3481 4883 
Q 3616 4646 3680 4480 
L 3507 4410 
Q 3443 4576 3312 4819 
Q 3181 5062 3046 5261 
z
M 1267 90 
L 5197 90 
L 5197 -102 
L 1267 -102 
L 1267 90 
z
M 1261 3770 
L 5242 3770 
L 5242 3584 
L 1261 3584 
L 1261 3770 
z
M 1261 2982 
L 5274 2982 
L 5274 2790 
L 1261 2790 
L 1261 2982 
z
M 1203 1370 
L 5286 1370 
L 5286 -454 
L 5101 -454 
L 5101 1178 
L 1395 1178 
L 1395 -454 
L 1203 -454 
L 1203 1370 
z
M 1632 5312 
L 1818 5261 
Q 1651 4890 1430 4534 
Q 1210 4179 957 3872 
Q 704 3565 442 3328 
Q 429 3341 397 3363 
Q 365 3386 333 3408 
Q 301 3430 275 3443 
Q 550 3674 803 3971 
Q 1056 4269 1267 4611 
Q 1478 4954 1632 5312 
z
M 3328 4486 
L 3514 4486 
L 3514 2029 
L 3328 2029 
L 3328 4486 
z
M 1382 4550 
L 5536 4550 
L 5536 4358 
L 1382 4358 
L 1382 1664 
L 1190 1664 
L 1190 4352 
L 1376 4550 
L 1382 4550 
z
M 1286 2144 
L 5664 2144 
L 5664 1958 
L 1286 1958 
L 1286 2144 
z
" transform="scale(0.015625)"/>
      <path id="NotoSansSC-Thin-7f44" d="M 3757 5088 
L 5088 5088 
L 5088 4902 
L 3757 4902 
L 3757 5088 
z
M 3322 3718 
L 5440 3718 
L 5440 3533 
L 3322 3533 
L 3322 3718 
z
M 5357 3718 
L 5402 3718 
L 5446 3731 
L 5568 3661 
Q 5370 3213 4986 2899 
Q 4602 2586 4118 2390 
Q 3635 2195 3130 2093 
Q 3117 2125 3085 2176 
Q 3053 2227 3021 2259 
Q 3507 2349 3974 2528 
Q 4442 2707 4810 2992 
Q 5178 3277 5357 3674 
L 5357 3718 
z
M 3757 3635 
Q 3936 3277 4278 2992 
Q 4621 2707 5081 2518 
Q 5542 2330 6086 2253 
Q 6054 2221 6016 2169 
Q 5978 2118 5952 2080 
Q 5139 2227 4508 2611 
Q 3878 2995 3597 3578 
L 3757 3635 
z
M 3661 5088 
L 3846 5088 
L 3846 4640 
Q 3846 4499 3798 4342 
Q 3750 4186 3619 4038 
Q 3488 3891 3238 3770 
Q 3226 3795 3203 3820 
Q 3181 3846 3155 3872 
Q 3130 3898 3104 3910 
Q 3341 4019 3459 4140 
Q 3578 4262 3619 4390 
Q 3661 4518 3661 4646 
L 3661 5088 
z
M 461 4902 
L 3200 4902 
L 3200 4710 
L 461 4710 
L 461 4902 
z
M 659 4294 
L 3008 4294 
L 3008 4109 
L 659 4109 
L 659 4294 
z
M 1760 5318 
L 1946 5318 
L 1946 4160 
L 1760 4160 
L 1760 5318 
z
M 3098 1907 
L 3290 1907 
L 3290 -122 
L 3098 -122 
L 3098 1907 
z
M 5178 691 
L 5363 691 
L 5363 -467 
L 5178 -467 
L 5178 691 
z
M 1760 3731 
L 1946 3731 
L 1946 2886 
L 1760 2886 
L 1760 3731 
z
M 819 3789 
L 2989 3789 
L 2989 2822 
L 819 2822 
L 819 3014 
L 2797 3014 
L 2797 3603 
L 819 3603 
L 819 3789 
z
M 730 3789 
L 915 3789 
L 915 3181 
Q 915 2989 876 2758 
Q 838 2528 732 2304 
Q 627 2080 422 1888 
Q 403 1914 377 1936 
Q 352 1958 323 1977 
Q 294 1997 269 2003 
Q 563 2278 646 2595 
Q 730 2912 730 3187 
L 730 3789 
z
M 1504 1965 
L 5350 1965 
L 5350 1779 
L 1504 1779 
L 1504 1965 
z
M 384 1133 
L 6035 1133 
L 6035 941 
L 384 941 
L 384 1133 
z
M 1792 2515 
L 1990 2458 
Q 1837 2150 1590 1814 
Q 1344 1478 1082 1235 
Q 1056 1261 1011 1293 
Q 966 1325 934 1350 
Q 1190 1581 1427 1901 
Q 1664 2221 1792 2515 
z
M 4986 5088 
L 5178 5088 
L 5178 4256 
Q 5178 4154 5194 4125 
Q 5210 4096 5274 4096 
Q 5312 4096 5411 4096 
Q 5510 4096 5609 4096 
Q 5709 4096 5747 4096 
Q 5798 4096 5875 4099 
Q 5952 4102 6003 4109 
Q 6003 4077 6006 4032 
Q 6010 3987 6016 3955 
Q 5978 3949 5907 3945 
Q 5837 3942 5760 3942 
Q 5722 3942 5610 3942 
Q 5498 3942 5389 3942 
Q 5280 3942 5248 3942 
Q 5139 3942 5081 3971 
Q 5024 4000 5005 4070 
Q 4986 4141 4986 4262 
L 4986 5088 
z
M 1082 717 
L 1274 717 
L 1274 -19 
L 5306 -19 
L 5306 -205 
L 1082 -205 
L 1082 717 
z
" transform="scale(0.015625)"/>
     </defs>
     <use xlink:href="#NotoSansSC-Thin-7f8e"/>
     <use xlink:href="#NotoSansSC-Thin-5149" transform="translate(99.999985 0)"/>
     <use xlink:href="#NotoSansSC-Thin-48" transform="translate(199.999969 0)"/>
     <use xlink:href="#NotoSansSC-Thin-42" transform="translate(269.799957 0)"/>
     <use xlink:href="#NotoSansSC-Thin-4d" transform="translate(332.999954 0)"/>
     <use xlink:href="#NotoSansSC-Thin-4ea7" transform="translate(409.999939 0)"/>
     <use xlink:href="#NotoSansSC-Thin-80fd" transform="translate(509.999924 0)"/>
     <use xlink:href="#NotoSansSC-Thin-5168" transform="translate(609.999908 0)"/>
     <use xlink:href="#NotoSansSC-Thin-5e74" transform="translate(709.999893 0)"/>
     <use xlink:href="#NotoSansSC-Thin-552e" transform="translate(809.999878 0)"/>
     <use xlink:href="#NotoSansSC-Thin-7f44" transform="translate(909.999863 0)"/>
    </g>
    <!-- 瑞银目标价 $535→$1,625 -->
    <g style="fill: #1e293b" transform="translate(287.9825 197.945547) scale(0.075 -0.075)">
     <defs>
      <path id="NotoSansSC-Thin-745e" d="M 346 4819 
L 2074 4819 
L 2074 4627 
L 346 4627 
L 346 4819 
z
M 410 2957 
L 1939 2957 
L 1939 2765 
L 410 2765 
L 410 2957 
z
M 333 486 
Q 678 582 1161 739 
Q 1645 896 2150 1062 
L 2182 870 
Q 1702 717 1235 563 
Q 768 410 397 288 
L 333 486 
z
M 1139 4704 
L 1325 4704 
L 1325 704 
L 1139 640 
L 1139 4704 
z
M 2675 5056 
L 2861 5056 
L 2861 3891 
L 5651 3891 
L 5651 5056 
L 5843 5056 
L 5843 3699 
L 2675 3699 
L 2675 5056 
z
M 4115 5312 
L 4301 5312 
L 4301 3757 
L 4115 3757 
L 4115 5312 
z
M 2323 3034 
L 6080 3034 
L 6080 2848 
L 2323 2848 
L 2323 3034 
z
M 4102 2938 
L 4301 2899 
Q 4230 2656 4144 2384 
Q 4058 2112 3974 1926 
L 3802 1965 
Q 3885 2163 3971 2448 
Q 4058 2733 4102 2938 
z
M 2637 2035 
L 5779 2035 
L 5779 1843 
L 2822 1843 
L 2822 -448 
L 2637 -448 
L 2637 2035 
z
M 5702 2035 
L 5888 2035 
L 5888 -186 
Q 5888 -282 5865 -333 
Q 5843 -384 5766 -416 
Q 5696 -442 5561 -445 
Q 5427 -448 5222 -448 
Q 5216 -410 5190 -358 
Q 5165 -307 5139 -262 
Q 5325 -269 5453 -269 
Q 5581 -269 5626 -262 
Q 5702 -262 5702 -186 
L 5702 2035 
z
M 3635 1971 
L 3821 1971 
L 3821 -429 
L 3635 -429 
L 3635 1971 
z
M 4659 1971 
L 4851 1971 
L 4851 -429 
L 4659 -429 
L 4659 1971 
z
" transform="scale(0.015625)"/>
      <path id="NotoSansSC-Thin-94f6" d="M 3046 5005 
L 5670 5005 
L 5670 2349 
L 3046 2349 
L 3046 2534 
L 5485 2534 
L 5485 4819 
L 3046 4819 
L 3046 5005 
z
M 3091 3770 
L 5581 3770 
L 5581 3584 
L 3091 3584 
L 3091 3770 
z
M 4115 2438 
Q 4269 1805 4544 1277 
Q 4819 749 5225 368 
Q 5632 -13 6157 -211 
Q 6131 -230 6105 -262 
Q 6080 -294 6057 -323 
Q 6035 -352 6016 -384 
Q 5485 -160 5075 240 
Q 4666 640 4384 1190 
Q 4102 1741 3942 2400 
L 4115 2438 
z
M 5888 1978 
L 6029 1850 
Q 5837 1683 5590 1513 
Q 5344 1344 5091 1193 
Q 4838 1043 4621 922 
L 4506 1056 
Q 4717 1178 4973 1334 
Q 5229 1491 5472 1660 
Q 5715 1830 5888 1978 
z
M 2880 -435 
L 2874 -250 
L 3021 -134 
L 4506 256 
Q 4506 218 4509 166 
Q 4512 115 4518 83 
Q 4000 -70 3689 -160 
Q 3379 -250 3216 -301 
Q 3053 -352 2985 -381 
Q 2918 -410 2880 -435 
z
M 2880 -435 
Q 2874 -410 2854 -378 
Q 2835 -346 2812 -307 
Q 2790 -269 2771 -243 
Q 2822 -218 2886 -144 
Q 2950 -70 2950 109 
L 2950 5005 
L 3136 5005 
L 3136 -186 
Q 3136 -186 3110 -205 
Q 3085 -224 3046 -253 
Q 3008 -282 2969 -314 
Q 2931 -346 2905 -378 
Q 2880 -410 2880 -435 
z
M 1184 5293 
L 1376 5248 
Q 1267 4922 1113 4605 
Q 960 4288 774 4009 
Q 589 3731 390 3507 
Q 378 3526 352 3555 
Q 326 3584 300 3616 
Q 275 3648 250 3661 
Q 544 3962 790 4394 
Q 1037 4826 1184 5293 
z
M 928 4474 
L 2573 4474 
L 2573 4288 
L 890 4288 
L 928 4474 
z
M 640 3386 
L 2445 3386 
L 2445 3200 
L 640 3200 
L 640 3386 
z
M 358 2093 
L 2592 2093 
L 2592 1901 
L 358 1901 
L 358 2093 
z
M 1293 -358 
L 1293 -160 
L 1408 -19 
L 2637 621 
Q 2650 582 2666 537 
Q 2682 493 2694 467 
Q 2253 224 1987 77 
Q 1722 -70 1584 -153 
Q 1446 -237 1385 -278 
Q 1325 -320 1293 -358 
z
M 1293 -358 
Q 1286 -333 1267 -294 
Q 1248 -256 1229 -221 
Q 1210 -186 1190 -160 
Q 1242 -134 1306 -70 
Q 1370 -6 1370 173 
L 1370 3270 
L 1555 3270 
L 1555 -122 
Q 1555 -122 1529 -138 
Q 1504 -154 1465 -179 
Q 1427 -205 1385 -237 
Q 1344 -269 1318 -301 
Q 1293 -333 1293 -358 
z
" transform="scale(0.015625)"/>
      <path id="NotoSansSC-Thin-76ee" d="M 1229 3328 
L 5158 3328 
L 5158 3136 
L 1229 3136 
L 1229 3328 
z
M 1229 1779 
L 5158 1779 
L 5158 1587 
L 1229 1587 
L 1229 1779 
z
M 1229 211 
L 5158 211 
L 5158 26 
L 1229 26 
L 1229 211 
z
M 1120 4870 
L 5248 4870 
L 5248 -448 
L 5062 -448 
L 5062 4678 
L 1306 4678 
L 1306 -448 
L 1120 -448 
L 1120 4870 
z
" transform="scale(0.015625)"/>
      <path id="NotoSansSC-Thin-6807" d="M 2970 4736 
L 5734 4736 
L 5734 4550 
L 2970 4550 
L 2970 4736 
z
M 2707 3206 
L 6067 3206 
L 6067 3021 
L 2707 3021 
L 2707 3206 
z
M 4186 3117 
L 4378 3117 
L 4378 -115 
Q 4378 -243 4336 -304 
Q 4294 -365 4192 -397 
Q 4090 -422 3875 -425 
Q 3661 -429 3315 -429 
Q 3309 -390 3283 -336 
Q 3258 -282 3232 -237 
Q 3539 -243 3766 -243 
Q 3994 -243 4058 -237 
Q 4134 -230 4160 -204 
Q 4186 -179 4186 -115 
L 4186 3117 
z
M 5030 2138 
L 5216 2182 
Q 5382 1882 5539 1536 
Q 5696 1190 5824 867 
Q 5952 544 6016 301 
L 5824 237 
Q 5760 480 5635 806 
Q 5510 1133 5353 1485 
Q 5197 1837 5030 2138 
z
M 3315 2176 
L 3501 2138 
Q 3398 1773 3257 1424 
Q 3117 1075 2953 768 
Q 2790 461 2605 218 
Q 2592 230 2560 252 
Q 2528 275 2493 297 
Q 2458 320 2432 333 
Q 2720 685 2947 1168 
Q 3174 1651 3315 2176 
z
M 416 3866 
L 2598 3866 
L 2598 3674 
L 416 3674 
L 416 3866 
z
M 1478 5318 
L 1670 5318 
L 1670 -435 
L 1478 -435 
L 1478 5318 
z
M 1459 3814 
L 1645 3763 
Q 1549 3424 1408 3056 
Q 1267 2688 1094 2333 
Q 922 1978 733 1670 
Q 544 1363 352 1152 
Q 333 1178 304 1206 
Q 275 1235 249 1260 
Q 224 1286 198 1299 
Q 442 1568 685 1984 
Q 928 2400 1133 2883 
Q 1338 3366 1459 3814 
z
M 1638 3507 
Q 1696 3443 1824 3276 
Q 1952 3110 2102 2912 
Q 2253 2714 2381 2547 
Q 2509 2381 2560 2304 
L 2400 2144 
Q 2342 2240 2220 2419 
Q 2099 2598 1958 2800 
Q 1818 3002 1690 3168 
Q 1562 3334 1491 3411 
L 1638 3507 
z
" transform="scale(0.015625)"/>
      <path id="NotoSansSC-Thin-4ef7" d="M 4774 2918 
L 4960 2918 
L 4960 -442 
L 4774 -442 
L 4774 2918 
z
M 2899 2918 
L 3085 2918 
L 3085 2042 
Q 3085 1773 3053 1453 
Q 3021 1133 2909 790 
Q 2797 448 2563 118 
Q 2330 -211 1926 -499 
Q 1901 -467 1862 -428 
Q 1824 -390 1792 -365 
Q 2182 -102 2406 211 
Q 2630 525 2736 851 
Q 2842 1178 2870 1485 
Q 2899 1792 2899 2042 
L 2899 2918 
z
M 3962 5062 
Q 4205 4646 4569 4233 
Q 4934 3821 5347 3478 
Q 5760 3136 6144 2931 
Q 6125 2912 6099 2886 
Q 6074 2861 6048 2832 
Q 6022 2803 6003 2778 
Q 5626 3002 5210 3357 
Q 4794 3712 4422 4137 
Q 4051 4563 3802 4986 
L 3962 5062 
z
M 3942 5325 
L 4147 5286 
Q 3942 4870 3616 4406 
Q 3290 3942 2838 3494 
Q 2387 3046 1811 2688 
Q 1798 2707 1776 2729 
Q 1754 2752 1728 2774 
Q 1702 2797 1677 2810 
Q 2240 3155 2685 3590 
Q 3130 4026 3450 4480 
Q 3770 4934 3942 5325 
z
M 1862 5312 
L 2048 5267 
Q 1856 4730 1606 4221 
Q 1357 3712 1072 3264 
Q 787 2816 474 2458 
Q 461 2477 432 2505 
Q 403 2534 377 2563 
Q 352 2592 326 2611 
Q 640 2944 925 3379 
Q 1210 3814 1450 4307 
Q 1690 4800 1862 5312 
z
M 1216 3744 
L 1395 3923 
L 1408 3917 
L 1408 -454 
L 1216 -454 
L 1216 3744 
z
" transform="scale(0.015625)"/>
      <path id="DejaVuSans-35" d="M 691 4666 
L 3169 4666 
L 3169 4134 
L 1269 4134 
L 1269 2991 
Q 1406 3038 1543 3061 
Q 1681 3084 1819 3084 
Q 2600 3084 3056 2656 
Q 3513 2228 3513 1497 
Q 3513 744 3044 326 
Q 2575 -91 1722 -91 
Q 1428 -91 1123 -41 
Q 819 9 494 109 
L 494 744 
Q 775 591 1075 516 
Q 1375 441 1709 441 
Q 2250 441 2565 725 
Q 2881 1009 2881 1497 
Q 2881 1984 2565 2268 
Q 2250 2553 1709 2553 
Q 1456 2553 1204 2497 
Q 953 2441 691 2322 
L 691 4666 
z
" transform="scale(0.015625)"/>
      <path id="DejaVuSans-33" d="M 2597 2516 
Q 3050 2419 3304 2112 
Q 3559 1806 3559 1356 
Q 3559 666 3084 287 
Q 2609 -91 1734 -91 
Q 1441 -91 1130 -33 
Q 819 25 488 141 
L 488 750 
Q 750 597 1062 519 
Q 1375 441 1716 441 
Q 2309 441 2620 675 
Q 2931 909 2931 1356 
Q 2931 1769 2642 2001 
Q 2353 2234 1838 2234 
L 1294 2234 
L 1294 2753 
L 1863 2753 
Q 2328 2753 2575 2939 
Q 2822 3125 2822 3475 
Q 2822 3834 2567 4026 
Q 2313 4219 1838 4219 
Q 1578 4219 1281 4162 
Q 984 4106 628 3988 
L 628 4550 
Q 988 4650 1302 4700 
Q 1616 4750 1894 4750 
Q 2613 4750 3031 4423 
Q 3450 4097 3450 3541 
Q 3450 3153 3228 2886 
Q 3006 2619 2597 2516 
z
" transform="scale(0.015625)"/>
      <path id="DejaVuSans-2192" d="M 5050 2147 
L 5050 1866 
L 3822 638 
L 3447 1013 
L 4175 1741 
L 366 1741 
L 366 2272 
L 4175 2272 
L 3447 3000 
L 3822 3375 
L 5050 2147 
z
" transform="scale(0.015625)"/>
      <path id="NotoSansSC-Thin-2c" d="M 422 -1062 
L 339 -890 
Q 563 -762 707 -541 
Q 851 -320 851 -13 
L 755 371 
L 992 70 
Q 947 0 889 -22 
Q 832 -45 768 -45 
Q 659 -45 582 25 
Q 506 96 506 218 
Q 506 346 586 413 
Q 666 480 768 480 
Q 909 480 995 358 
Q 1082 237 1082 32 
Q 1082 -326 893 -611 
Q 704 -896 422 -1062 
z
" transform="scale(0.015625)"/>
      <path id="NotoSansSC-Thin-36" d="M 1837 -83 
Q 1498 -83 1232 67 
Q 966 218 780 509 
Q 595 800 496 1216 
Q 397 1632 397 2170 
Q 397 2886 528 3379 
Q 659 3872 889 4169 
Q 1120 4467 1414 4598 
Q 1709 4730 2029 4730 
Q 2330 4730 2550 4614 
Q 2771 4499 2944 4307 
L 2790 4147 
Q 2643 4333 2444 4425 
Q 2246 4518 2022 4518 
Q 1651 4518 1334 4297 
Q 1018 4077 826 3561 
Q 634 3046 634 2170 
Q 634 1581 762 1120 
Q 890 659 1158 393 
Q 1427 128 1850 128 
Q 2125 128 2336 297 
Q 2547 467 2672 752 
Q 2797 1037 2797 1382 
Q 2797 1741 2694 2025 
Q 2592 2310 2368 2476 
Q 2144 2643 1779 2643 
Q 1523 2643 1209 2470 
Q 896 2298 602 1888 
L 602 2176 
Q 768 2381 957 2531 
Q 1146 2682 1360 2762 
Q 1574 2842 1792 2842 
Q 2189 2842 2467 2675 
Q 2746 2509 2893 2185 
Q 3040 1862 3040 1382 
Q 3040 960 2873 630 
Q 2707 301 2435 109 
Q 2163 -83 1837 -83 
z
" transform="scale(0.015625)"/>
     </defs>
     <use xlink:href="#NotoSansSC-Thin-745e" transform="translate(0 0.796875)"/>
     <use xlink:href="#NotoSansSC-Thin-94f6" transform="translate(99.999985 0.796875)"/>
     <use xlink:href="#NotoSansSC-Thin-76ee" transform="translate(199.999969 0.796875)"/>
     <use xlink:href="#NotoSansSC-Thin-6807" transform="translate(299.999954 0.796875)"/>
     <use xlink:href="#NotoSansSC-Thin-4ef7" transform="translate(399.999939 0.796875)"/>
     <use xlink:href="#NotoSansSC-Thin-20" transform="translate(499.999924 0.796875)"/>
     <use xlink:href="#DejaVuSans-35" transform="translate(521.999908 0.796875)"/>
     <use xlink:href="#DejaVuSans-33" transform="translate(585.622955 0.796875)"/>
     <use xlink:href="#DejaVuSans-35" transform="translate(649.246002 0.796875)"/>
     <use xlink:href="#DejaVuSans-2192" transform="translate(712.869049 0.796875)"/>
     <use xlink:href="#NotoSansSC-Thin-31" transform="translate(796.658112 0.796875)"/>
     <use xlink:href="#NotoSansSC-Thin-2c" transform="translate(848.758102 0.796875)"/>
     <use xlink:href="#NotoSansSC-Thin-36" transform="translate(871.858093 0.796875)"/>
     <use xlink:href="#NotoSansSC-Thin-32" transform="translate(923.958084 0.796875)"/>
     <use xlink:href="#NotoSansSC-Thin-35" transform="translate(976.058075 0.796875)"/>
    </g>
   </g>
   <g id="text_20">
    <!-- 全球半导体板块引爆 — 2026.05.26/27 -->
    <g style="fill: #1e293b" transform="translate(111.102188 17.522813) scale(0.13 -0.13)">
     <defs>
      <path id="NotoSansSC-Thin-7403" d="M 2432 4122 
L 6080 4122 
L 6080 3936 
L 2432 3936 
L 2432 4122 
z
M 4096 5312 
L 4288 5312 
L 4288 -109 
Q 4288 -262 4233 -326 
Q 4179 -390 4077 -416 
Q 3974 -442 3756 -448 
Q 3539 -454 3142 -454 
Q 3136 -429 3120 -397 
Q 3104 -365 3091 -329 
Q 3078 -294 3059 -269 
Q 3386 -275 3629 -275 
Q 3872 -275 3949 -269 
Q 4026 -262 4061 -230 
Q 4096 -198 4096 -115 
L 4096 5312 
z
M 2221 307 
Q 2464 531 2777 832 
Q 3091 1133 3443 1478 
Q 3795 1824 4141 2170 
L 4230 2016 
Q 3744 1523 3248 1030 
Q 2752 538 2362 166 
L 2221 307 
z
M 2586 3334 
L 2739 3411 
Q 2906 3219 3059 2995 
Q 3213 2771 3341 2553 
Q 3469 2336 3533 2163 
L 3360 2074 
Q 3302 2246 3177 2464 
Q 3053 2682 2899 2912 
Q 2746 3142 2586 3334 
z
M 5766 3462 
L 5933 3360 
Q 5766 3104 5555 2816 
Q 5344 2528 5129 2259 
Q 4915 1990 4723 1786 
L 4589 1875 
Q 4774 2080 4992 2358 
Q 5210 2637 5418 2931 
Q 5626 3226 5766 3462 
z
M 4710 5101 
L 4845 5210 
Q 5062 5062 5283 4860 
Q 5504 4659 5613 4506 
L 5485 4371 
Q 5363 4538 5148 4742 
Q 4934 4947 4710 5101 
z
M 4275 3840 
Q 4365 3142 4505 2592 
Q 4646 2042 4864 1603 
Q 5082 1165 5408 806 
Q 5734 448 6182 122 
Q 6150 96 6112 57 
Q 6074 19 6048 -26 
Q 5587 307 5260 681 
Q 4934 1056 4707 1510 
Q 4480 1965 4339 2531 
Q 4198 3098 4109 3814 
L 4275 3840 
z
M 358 4819 
L 2253 4819 
L 2253 4627 
L 358 4627 
L 358 4819 
z
M 422 2957 
L 2144 2957 
L 2144 2765 
L 422 2765 
L 422 2957 
z
M 294 486 
Q 550 563 880 665 
Q 1210 768 1587 889 
Q 1965 1011 2349 1133 
L 2374 941 
Q 1830 768 1299 595 
Q 768 422 358 288 
L 294 486 
z
M 1222 4704 
L 1414 4704 
L 1414 704 
L 1222 640 
L 1222 4704 
z
" transform="scale(0.015625)"/>
      <path id="NotoSansSC-Thin-677f" d="M 442 4038 
L 2477 4038 
L 2477 3853 
L 442 3853 
L 442 4038 
z
M 1446 5318 
L 1632 5318 
L 1632 -435 
L 1446 -435 
L 1446 5318 
z
M 1434 3987 
L 1600 3942 
Q 1517 3558 1389 3145 
Q 1261 2733 1104 2333 
Q 947 1933 774 1590 
Q 602 1248 429 1011 
Q 416 1037 390 1065 
Q 365 1094 336 1120 
Q 307 1146 282 1158 
Q 454 1382 624 1708 
Q 794 2035 950 2419 
Q 1107 2803 1232 3206 
Q 1357 3610 1434 3987 
z
M 1594 3610 
Q 1645 3546 1757 3382 
Q 1869 3219 1993 3024 
Q 2118 2829 2227 2665 
Q 2336 2502 2381 2426 
L 2240 2259 
Q 2189 2355 2086 2534 
Q 1984 2714 1865 2912 
Q 1747 3110 1641 3273 
Q 1536 3437 1478 3514 
L 1594 3610 
z
M 2784 4602 
L 2976 4602 
L 2976 3002 
Q 2976 2618 2947 2176 
Q 2918 1734 2835 1273 
Q 2752 813 2592 371 
Q 2432 -70 2163 -448 
Q 2144 -429 2115 -409 
Q 2086 -390 2060 -371 
Q 2035 -352 2010 -346 
Q 2272 32 2429 457 
Q 2586 883 2662 1331 
Q 2739 1779 2761 2208 
Q 2784 2637 2784 3008 
L 2784 4602 
z
M 2893 3302 
L 5574 3302 
L 5574 3110 
L 2893 3110 
L 2893 3302 
z
M 5517 3302 
L 5555 3302 
L 5587 3315 
L 5709 3264 
Q 5498 2266 5069 1533 
Q 4640 800 4070 313 
Q 3501 -173 2867 -448 
Q 2854 -422 2832 -396 
Q 2810 -371 2787 -342 
Q 2765 -314 2739 -294 
Q 3354 -38 3914 432 
Q 4474 902 4896 1606 
Q 5318 2310 5517 3251 
L 5517 3302 
z
M 3501 3226 
Q 3706 2419 4064 1712 
Q 4422 1005 4934 486 
Q 5446 -32 6106 -288 
Q 6080 -307 6054 -336 
Q 6029 -365 6003 -393 
Q 5978 -422 5958 -448 
Q 5299 -166 4787 368 
Q 4275 902 3916 1622 
Q 3558 2342 3347 3181 
L 3501 3226 
z
M 5670 5114 
L 5798 4960 
Q 5555 4851 5203 4768 
Q 4851 4685 4448 4621 
Q 4045 4557 3632 4512 
Q 3219 4467 2842 4435 
Q 2835 4474 2819 4522 
Q 2803 4570 2784 4602 
Q 3149 4634 3558 4678 
Q 3968 4723 4368 4787 
Q 4768 4851 5107 4931 
Q 5446 5011 5670 5114 
z
" transform="scale(0.015625)"/>
      <path id="NotoSansSC-Thin-5757" d="M 2573 4166 
L 5581 4166 
L 5581 2163 
L 5395 2163 
L 5395 3974 
L 2573 3974 
L 2573 4166 
z
M 2349 2298 
L 6080 2298 
L 6080 2106 
L 2349 2106 
L 2349 2298 
z
M 4256 2227 
Q 4474 1318 4957 662 
Q 5440 6 6182 -294 
Q 6163 -314 6137 -346 
Q 6112 -378 6089 -406 
Q 6067 -435 6048 -461 
Q 5542 -237 5155 140 
Q 4768 518 4496 1033 
Q 4224 1549 4070 2182 
L 4256 2227 
z
M 3955 5248 
L 4141 5248 
L 4141 3155 
Q 4141 2643 4077 2150 
Q 4013 1658 3811 1194 
Q 3610 730 3200 314 
Q 2790 -102 2106 -454 
Q 2099 -435 2076 -409 
Q 2054 -384 2028 -358 
Q 2003 -333 1978 -314 
Q 2650 26 3043 429 
Q 3437 832 3635 1277 
Q 3834 1722 3894 2195 
Q 3955 2669 3955 3155 
L 3955 5248 
z
M 384 3718 
L 2221 3718 
L 2221 3533 
L 384 3533 
L 384 3718 
z
M 1242 5254 
L 1434 5254 
L 1434 1190 
L 1242 1190 
L 1242 5254 
z
M 288 870 
Q 538 966 861 1100 
Q 1184 1235 1545 1388 
Q 1907 1542 2272 1696 
L 2310 1517 
Q 1792 1293 1280 1072 
Q 768 851 365 685 
L 288 870 
z
" transform="scale(0.015625)"/>
      <path id="NotoSansSC-Thin-5f15" d="M 3219 2099 
L 3411 2099 
Q 3411 2099 3408 2076 
Q 3405 2054 3405 2025 
Q 3405 1997 3398 1978 
Q 3341 1222 3280 761 
Q 3219 301 3145 57 
Q 3072 -186 2970 -282 
Q 2893 -358 2806 -384 
Q 2720 -410 2579 -410 
Q 2438 -416 2156 -406 
Q 1875 -397 1555 -371 
Q 1549 -326 1536 -278 
Q 1523 -230 1491 -186 
Q 1837 -218 2134 -224 
Q 2432 -230 2534 -230 
Q 2650 -230 2707 -220 
Q 2765 -211 2810 -166 
Q 2906 -90 2976 147 
Q 3046 384 3104 848 
Q 3162 1312 3219 2067 
L 3219 2099 
z
M 986 3526 
L 1178 3526 
Q 1133 3270 1075 2969 
Q 1018 2669 960 2393 
Q 902 2118 851 1914 
L 653 1914 
Q 710 2125 771 2406 
Q 832 2688 889 2982 
Q 947 3277 986 3526 
z
M 5184 5280 
L 5370 5280 
L 5370 -448 
L 5184 -448 
L 5184 5280 
z
M 845 2099 
L 3302 2099 
L 3302 1914 
L 806 1914 
L 845 2099 
z
M 1069 3526 
L 3219 3526 
L 3219 4845 
L 672 4845 
L 672 5030 
L 3405 5030 
L 3405 3341 
L 1069 3341 
L 1069 3526 
z
" transform="scale(0.015625)"/>
      <path id="NotoSansSC-Thin-7206" d="M 1139 5318 
L 1325 5318 
L 1325 3117 
Q 1325 2477 1267 1849 
Q 1210 1222 1021 640 
Q 832 58 435 -461 
Q 422 -442 393 -422 
Q 365 -403 336 -384 
Q 307 -365 282 -352 
Q 672 154 851 723 
Q 1030 1293 1084 1897 
Q 1139 2502 1139 3117 
L 1139 5318 
z
M 659 4032 
L 832 4006 
Q 819 3770 777 3485 
Q 736 3200 675 2925 
Q 614 2650 525 2432 
L 352 2522 
Q 435 2720 496 2979 
Q 557 3238 598 3513 
Q 640 3789 659 4032 
z
M 1965 4096 
L 2144 4006 
Q 2080 3802 2003 3562 
Q 1926 3322 1846 3098 
Q 1766 2874 1690 2707 
L 1542 2778 
Q 1619 2950 1696 3184 
Q 1773 3418 1846 3661 
Q 1920 3904 1965 4096 
z
M 1203 1626 
Q 1254 1574 1344 1462 
Q 1434 1350 1542 1209 
Q 1651 1069 1760 928 
Q 1869 787 1955 675 
Q 2042 563 2086 506 
L 1933 346 
Q 1875 442 1760 605 
Q 1645 768 1510 950 
Q 1376 1133 1257 1286 
Q 1139 1440 1069 1517 
L 1203 1626 
z
M 4678 3552 
L 4870 3552 
L 4870 2029 
L 4678 2029 
L 4678 3552 
z
M 3962 1754 
L 4147 1754 
L 4147 -179 
Q 4147 -282 4115 -333 
Q 4083 -384 3994 -410 
Q 3910 -435 3734 -438 
Q 3558 -442 3238 -435 
Q 3232 -403 3206 -358 
Q 3181 -314 3155 -275 
Q 3418 -282 3606 -282 
Q 3795 -282 3853 -275 
Q 3962 -269 3962 -179 
L 3962 1754 
z
M 4890 2080 
Q 5030 1862 5241 1648 
Q 5453 1434 5699 1261 
Q 5946 1088 6182 986 
Q 6150 960 6112 915 
Q 6074 870 6042 838 
Q 5805 954 5555 1142 
Q 5306 1331 5091 1558 
Q 4877 1786 4730 2010 
L 4890 2080 
z
M 4013 544 
L 4109 685 
Q 4448 582 4781 457 
Q 5114 333 5408 198 
Q 5702 64 5914 -64 
L 5792 -211 
Q 5581 -83 5293 48 
Q 5005 179 4678 307 
Q 4352 435 4013 544 
z
M 4998 1306 
L 5178 1210 
Q 5030 1011 4854 800 
Q 4678 589 4525 442 
L 4378 525 
Q 4531 678 4713 908 
Q 4896 1139 4998 1306 
z
M 2336 2970 
L 5869 2970 
L 5869 2778 
L 2336 2778 
L 2336 2970 
z
M 2080 2150 
L 6061 2150 
L 6061 1965 
L 2080 1965 
L 2080 2150 
z
M 3219 3552 
L 3405 3552 
L 3405 2054 
L 3219 2054 
L 3219 3552 
z
M 2042 -13 
Q 2419 115 2953 310 
Q 3488 506 4032 710 
L 4064 557 
Q 3558 358 3056 163 
Q 2554 -32 2144 -179 
L 2042 -13 
z
M 3315 2093 
L 3462 2022 
Q 3315 1811 3094 1600 
Q 2874 1389 2627 1206 
Q 2381 1024 2157 909 
Q 2131 947 2096 988 
Q 2061 1030 2022 1056 
Q 2246 1158 2489 1324 
Q 2733 1491 2953 1692 
Q 3174 1894 3315 2093 
z
M 2906 1254 
L 3059 1344 
Q 3206 1216 3347 1056 
Q 3488 896 3565 774 
L 3398 672 
Q 3328 800 3187 963 
Q 3046 1126 2906 1254 
z
M 2720 4205 
L 2720 3667 
L 5485 3667 
L 5485 4205 
L 2720 4205 
z
M 2720 4915 
L 2720 4390 
L 5485 4390 
L 5485 4915 
L 2720 4915 
z
M 2528 5101 
L 5670 5101 
L 5670 3482 
L 2528 3482 
L 2528 5101 
z
" transform="scale(0.015625)"/>
      <path id="NotoSansSC-Thin-2014" d="M 282 1664 
L 282 1862 
L 5350 1862 
L 5350 1664 
L 282 1664 
z
" transform="scale(0.015625)"/>
      <path id="NotoSansSC-Thin-2f" d="M 58 -1126 
L 2298 5005 
L 2515 5005 
L 282 -1126 
L 58 -1126 
z
" transform="scale(0.015625)"/>
     </defs>
     <use xlink:href="#NotoSansSC-Thin-5168"/>
     <use xlink:href="#NotoSansSC-Thin-7403" transform="translate(99.999985 0)"/>
     <use xlink:href="#NotoSansSC-Thin-534a" transform="translate(199.999969 0)"/>
     <use xlink:href="#NotoSansSC-Thin-5bfc" transform="translate(299.999954 0)"/>
     <use xlink:href="#NotoSansSC-Thin-4f53" transform="translate(399.999939 0)"/>
     <use xlink:href="#NotoSansSC-Thin-677f" transform="translate(499.999924 0)"/>
     <use xlink:href="#NotoSansSC-Thin-5757" transform="translate(599.999908 0)"/>
     <use xlink:href="#NotoSansSC-Thin-5f15" transform="translate(699.999893 0)"/>
     <use xlink:href="#NotoSansSC-Thin-7206" transform="translate(799.999878 0)"/>
     <use xlink:href="#NotoSansSC-Thin-20" transform="translate(899.999863 0)"/>
     <use xlink:href="#NotoSansSC-Thin-2014" transform="translate(921.999847 0)"/>
     <use xlink:href="#NotoSansSC-Thin-20" transform="translate(1010.099838 0)"/>
     <use xlink:href="#NotoSansSC-Thin-32" transform="translate(1032.099823 0)"/>
     <use xlink:href="#NotoSansSC-Thin-30" transform="translate(1084.199814 0)"/>
     <use xlink:href="#NotoSansSC-Thin-32" transform="translate(1136.299805 0)"/>
     <use xlink:href="#NotoSansSC-Thin-36" transform="translate(1188.399796 0)"/>
     <use xlink:href="#NotoSansSC-Thin-2e" transform="translate(1240.499786 0)"/>
     <use xlink:href="#NotoSansSC-Thin-30" transform="translate(1263.599777 0)"/>
     <use xlink:href="#NotoSansSC-Thin-35" transform="translate(1315.699768 0)"/>
     <use xlink:href="#NotoSansSC-Thin-2e" transform="translate(1367.799759 0)"/>
     <use xlink:href="#NotoSansSC-Thin-32" transform="translate(1390.89975 0)"/>
     <use xlink:href="#NotoSansSC-Thin-36" transform="translate(1442.999741 0)"/>
     <use xlink:href="#NotoSansSC-Thin-2f" transform="translate(1495.099731 0)"/>
     <use xlink:href="#NotoSansSC-Thin-32" transform="translate(1534.699722 0)"/>
     <use xlink:href="#NotoSansSC-Thin-37" transform="translate(1586.799713 0)"/>
    </g>
   </g>
  </g>
 </g>
 <defs>
  <clipPath id="pd148a078fa">
   <rect x="53.7" y="31.522813" width="327.85" height="177.1"/>
  </clipPath>
 </defs>
</svg>
