<?xml version="1.0" encoding="utf-8" standalone="no"?>
<!DOCTYPE svg PUBLIC "-//W3C//DTD SVG 1.1//EN"
  "http://www.w3.org/Graphics/SVG/1.1/DTD/svg11.dtd">
<svg xmlns:xlink="http://www.w3.org/1999/xlink" width="384.92pt" height="292.459pt" viewBox="0 0 384.92 292.459" xmlns="http://www.w3.org/2000/svg" version="1.1">
 <metadata>
  <rdf:RDF xmlns:dc="http://purl.org/dc/elements/1.1/" xmlns:cc="http://creativecommons.org/ns#" xmlns:rdf="http://www.w3.org/1999/02/22-rdf-syntax-ns#">
   <cc:Work>
    <dc:type rdf:resource="http://purl.org/dc/dcmitype/StillImage"/>
    <dc:date>2026-06-17T13:03:36.259257</dc:date>
    <dc:format>image/svg+xml</dc:format>
    <dc:creator>
     <cc:Agent>
      <dc:title>Matplotlib v3.10.9, https://matplotlib.org/</dc:title>
     </cc:Agent>
    </dc:creator>
   </cc:Work>
  </rdf:RDF>
 </metadata>
 <defs>
  <style type="text/css">*{stroke-linejoin: round; stroke-linecap: butt}</style>
 </defs>
 <g id="figure_1">
  <g id="patch_1">
   <path d="M 0 292.459 
L 384.92 292.459 
L 384.92 0 
L 0 0 
z
" style="fill: #ffffff"/>
  </g>
  <g id="axes_1">
   <g id="patch_2">
    <path d="M 59.3 255.295562 
L 374.12 255.295562 
L 374.12 80.191562 
L 59.3 80.191562 
z
" style="fill: #ffffff"/>
   </g>
   <g id="matplotlib.axis_1">
    <g id="xtick_1">
     <g id="line2d_1">
      <path d="M 59.3 255.295562 
L 59.3 80.191562 
" clip-path="url(#p4a904955c6)" style="fill: none; stroke: #e2e8f0; stroke-opacity: 0.4; stroke-width: 0.5; stroke-linecap: square"/>
     </g>
     <g id="line2d_2"/>
     <g id="text_1">
      <!-- 0 -->
      <g style="fill: #94a3b8" transform="translate(56.524766 265.989937) scale(0.09 -0.09)">
       <defs>
        <path id="MicrosoftYaHei-Bold-30" d="M 244 2341 
Q 244 3597 706 4259 
Q 1169 4922 2044 4922 
Q 3713 4922 3713 2453 
Q 3713 1238 3259 577 
Q 2806 -84 1950 -84 
Q 244 -84 244 2341 
z
M 1266 2366 
Q 1266 691 1981 691 
Q 2684 691 2684 2416 
Q 2684 4147 2000 4147 
Q 1266 4147 1266 2366 
z
" transform="scale(0.015625)"/>
       </defs>
       <use xlink:href="#MicrosoftYaHei-Bold-30"/>
      </g>
     </g>
    </g>
    <g id="xtick_2">
     <g id="line2d_3">
      <path d="M 124.8875 255.295562 
L 124.8875 80.191562 
" clip-path="url(#p4a904955c6)" style="fill: none; stroke: #e2e8f0; stroke-opacity: 0.4; stroke-width: 0.5; stroke-linecap: square"/>
     </g>
     <g id="line2d_4"/>
     <g id="text_2">
      <!-- 5 -->
      <g style="fill: #94a3b8" transform="translate(122.112266 265.989937) scale(0.09 -0.09)">
       <defs>
        <path id="MicrosoftYaHei-Bold-35" d="M 541 125 
L 541 997 
Q 1044 691 1613 691 
Q 2041 691 2283 902 
Q 2525 1113 2525 1472 
Q 2525 2225 1494 2225 
Q 1113 2225 616 2169 
L 797 4841 
L 3359 4841 
L 3359 4009 
L 1613 4009 
L 1544 2991 
Q 1803 3013 2022 3013 
Q 2731 3013 3142 2625 
Q 3553 2238 3553 1575 
Q 3553 844 3056 380 
Q 2559 -84 1706 -84 
Q 1016 -84 541 125 
z
" transform="scale(0.015625)"/>
       </defs>
       <use xlink:href="#MicrosoftYaHei-Bold-35"/>
      </g>
     </g>
    </g>
    <g id="xtick_3">
     <g id="line2d_5">
      <path d="M 190.475 255.295562 
L 190.475 80.191562 
" clip-path="url(#p4a904955c6)" style="fill: none; stroke: #e2e8f0; stroke-opacity: 0.4; stroke-width: 0.5; stroke-linecap: square"/>
     </g>
     <g id="line2d_6"/>
     <g id="text_3">
      <!-- 10 -->
      <g style="fill: #94a3b8" transform="translate(184.924531 265.989937) scale(0.09 -0.09)">
       <defs>
        <path id="MicrosoftYaHei-Bold-31" d="M 2716 4947 
L 2716 0 
L 1700 0 
L 1700 3809 
Q 1513 3647 1188 3517 
Q 863 3388 591 3356 
L 591 4222 
Q 1447 4472 2072 4947 
L 2716 4947 
z
" transform="scale(0.015625)"/>
       </defs>
       <use xlink:href="#MicrosoftYaHei-Bold-31"/>
       <use xlink:href="#MicrosoftYaHei-Bold-30" transform="translate(61.669922 0)"/>
      </g>
     </g>
    </g>
    <g id="xtick_4">
     <g id="line2d_7">
      <path d="M 256.0625 255.295562 
L 256.0625 80.191562 
" clip-path="url(#p4a904955c6)" style="fill: none; stroke: #e2e8f0; stroke-opacity: 0.4; stroke-width: 0.5; stroke-linecap: square"/>
     </g>
     <g id="line2d_8"/>
     <g id="text_4">
      <!-- 15 -->
      <g style="fill: #94a3b8" transform="translate(250.512031 265.989937) scale(0.09 -0.09)">
       <use xlink:href="#MicrosoftYaHei-Bold-31"/>
       <use xlink:href="#MicrosoftYaHei-Bold-35" transform="translate(61.669922 0)"/>
      </g>
     </g>
    </g>
    <g id="xtick_5">
     <g id="line2d_9">
      <path d="M 321.65 255.295562 
L 321.65 80.191562 
" clip-path="url(#p4a904955c6)" style="fill: none; stroke: #e2e8f0; stroke-opacity: 0.4; stroke-width: 0.5; stroke-linecap: square"/>
     </g>
     <g id="line2d_10"/>
     <g id="text_5">
      <!-- 20 -->
      <g style="fill: #94a3b8" transform="translate(316.099531 265.989937) scale(0.09 -0.09)">
       <defs>
        <path id="MicrosoftYaHei-Bold-32" d="M 1500 841 
L 3553 841 
L 3553 0 
L 334 0 
L 334 359 
Q 334 738 473 1050 
Q 613 1363 856 1633 
Q 1100 1903 1613 2266 
Q 2081 2616 2268 2886 
Q 2456 3156 2456 3459 
Q 2456 4113 1744 4113 
Q 1119 4113 550 3613 
L 550 4513 
Q 1184 4922 1975 4922 
Q 2700 4922 3122 4551 
Q 3544 4181 3544 3531 
Q 3544 3169 3422 2876 
Q 3300 2584 3069 2328 
Q 2838 2072 2328 1713 
Q 1838 1363 1669 1172 
Q 1500 981 1500 841 
z
" transform="scale(0.015625)"/>
       </defs>
       <use xlink:href="#MicrosoftYaHei-Bold-32"/>
       <use xlink:href="#MicrosoftYaHei-Bold-30" transform="translate(61.669922 0)"/>
      </g>
     </g>
    </g>
    <g id="text_6">
     <!-- 涨跌幅 (%) -->
     <g style="fill: #64748b" transform="translate(194.868125 279.421656) scale(0.09 -0.09)">
      <defs>
       <path id="MicrosoftYaHei-6da8" d="M 3088 2622 
L 3550 2622 
L 3550 5278 
L 3994 5278 
L 3994 2622 
L 6250 2622 
L 6250 2172 
L 5031 2172 
Q 5294 503 6369 -184 
Q 6156 -353 5956 -566 
Q 4863 291 4619 2172 
L 3994 2172 
L 3994 -59 
Q 4375 109 4888 347 
Q 4906 97 4950 -128 
Q 4319 -397 3900 -616 
Q 3731 -703 3606 -809 
L 3338 -359 
Q 3550 -191 3550 103 
L 3550 2172 
L 3088 2172 
L 3088 2622 
z
M 1475 4966 
L 2931 4966 
L 2931 2866 
L 2494 2866 
L 2494 3059 
L 1956 3059 
L 1856 1978 
L 2919 1978 
Q 2881 984 2838 366 
Q 2800 -291 2556 -534 
Q 2356 -734 1894 -734 
Q 1725 -734 1388 -728 
Q 1350 -484 1281 -222 
Q 1600 -247 1825 -247 
Q 2131 -247 2231 -147 
Q 2375 -3 2394 359 
Q 2444 978 2463 1553 
L 1381 1553 
L 1563 3484 
L 2494 3484 
L 2494 4541 
L 1475 4541 
L 1475 4966 
z
M 794 1803 
Q 1038 1697 1275 1616 
Q 944 234 713 -791 
L 194 -622 
Q 531 503 794 1803 
z
M 5700 5034 
L 6106 4766 
Q 5388 3847 4588 2934 
Q 4400 3097 4231 3222 
Q 5006 4047 5700 5034 
z
M 394 3591 
Q 844 3259 1363 2828 
L 1031 2434 
Q 456 2972 88 3253 
L 394 3591 
z
M 613 5172 
Q 1100 4797 1531 4403 
L 1175 4034 
Q 763 4466 313 4847 
L 613 5172 
z
" transform="scale(0.015625)"/>
       <path id="MicrosoftYaHei-8dcc" d="M 2650 2372 
L 4225 2372 
Q 4269 2866 4275 3572 
L 3413 3572 
Q 3275 3078 3125 2653 
Q 2863 2766 2688 2822 
Q 3069 3753 3263 4884 
L 3713 4784 
Q 3625 4384 3531 4016 
L 4281 4016 
Q 4294 4666 4294 5266 
L 4738 5266 
Q 4738 4641 4738 4016 
L 6106 4016 
L 6106 3572 
L 4738 3572 
Q 4731 2834 4694 2372 
L 6288 2372 
L 6288 1916 
L 4769 1916 
Q 5200 372 6388 -409 
Q 6181 -597 6013 -834 
Q 4888 47 4494 1422 
Q 4113 47 2663 -872 
Q 2513 -653 2338 -447 
Q 3856 378 4163 1916 
L 2650 1916 
L 2650 2372 
z
M 69 -16 
Q 213 9 375 34 
L 375 2366 
L 813 2366 
L 813 109 
Q 1075 159 1369 209 
L 1369 2991 
L 863 2991 
L 863 2803 
L 425 2803 
L 425 4934 
L 2475 4934 
L 2475 2991 
L 1806 2991 
L 1806 1916 
L 2550 1916 
L 2550 1491 
L 1806 1491 
L 1806 291 
Q 2188 359 2613 441 
Q 2613 203 2625 3 
Q 1688 -153 181 -484 
L 69 -16 
z
M 2038 3416 
L 2038 4509 
L 863 4509 
L 863 3416 
L 2038 3416 
z
" transform="scale(0.015625)"/>
       <path id="MicrosoftYaHei-5e45" d="M 2725 2197 
L 6094 2197 
L 6094 -822 
L 5681 -822 
L 5681 -459 
L 3138 -459 
L 3138 -816 
L 2725 -816 
L 2725 2197 
z
M 331 4222 
L 1131 4222 
L 1131 5297 
L 1544 5297 
L 1544 4222 
L 2388 4222 
L 2388 978 
Q 2388 472 1900 472 
L 1700 472 
Q 1663 659 1594 872 
Q 1719 859 1831 859 
Q 1988 859 1988 1028 
L 1988 3822 
L 1544 3822 
L 1544 -816 
L 1131 -816 
L 1131 3822 
L 731 3822 
L 731 384 
L 331 384 
L 331 4222 
z
M 3031 4178 
L 5813 4178 
L 5813 2478 
L 5400 2478 
L 5400 2703 
L 3444 2703 
L 3444 2478 
L 3031 2478 
L 3031 4178 
z
M 2588 5009 
L 6250 5009 
L 6250 4609 
L 2588 4609 
L 2588 5009 
z
M 5400 3791 
L 3444 3791 
L 3444 3091 
L 5400 3091 
L 5400 3791 
z
M 5681 1809 
L 4606 1809 
L 4606 1053 
L 5681 1053 
L 5681 1809 
z
M 3138 1053 
L 4206 1053 
L 4206 1809 
L 3138 1809 
L 3138 1053 
z
M 4606 -72 
L 5681 -72 
L 5681 678 
L 4606 678 
L 4606 -72 
z
M 3138 -72 
L 4206 -72 
L 4206 678 
L 3138 678 
L 3138 -72 
z
" transform="scale(0.015625)"/>
       <path id="MicrosoftYaHei-20" transform="scale(0.015625)"/>
       <path id="MicrosoftYaHei-28" d="M 1531 -1100 
Q 478 100 478 1847 
Q 478 3594 1531 4841 
L 2072 4841 
Q 1016 3544 1016 1853 
Q 1016 166 2066 -1100 
L 1531 -1100 
z
" transform="scale(0.015625)"/>
       <path id="MicrosoftYaHei-25" d="M 272 3619 
Q 272 4213 589 4563 
Q 906 4913 1444 4913 
Q 1959 4913 2248 4591 
Q 2538 4269 2538 3694 
Q 2538 3122 2219 2765 
Q 1900 2409 1372 2409 
Q 872 2409 572 2740 
Q 272 3072 272 3619 
z
M 753 3650 
Q 753 3247 928 3028 
Q 1103 2809 1406 2809 
Q 1719 2809 1889 3036 
Q 2059 3263 2059 3675 
Q 2059 4078 1892 4298 
Q 1725 4519 1422 4519 
Q 1113 4519 933 4289 
Q 753 4059 753 3650 
z
M 4647 4841 
L 1538 -31 
L 1016 -31 
L 4125 4841 
L 4647 4841 
z
M 3172 1134 
Q 3172 1728 3489 2083 
Q 3806 2438 4341 2438 
Q 4853 2438 5143 2114 
Q 5434 1791 5434 1203 
Q 5434 634 5112 279 
Q 4791 -75 4272 -75 
Q 3769 -75 3470 261 
Q 3172 597 3172 1134 
z
M 3650 1163 
Q 3650 769 3825 548 
Q 4000 328 4303 328 
Q 4616 328 4786 556 
Q 4956 784 4956 1194 
Q 4956 1600 4786 1815 
Q 4616 2031 4319 2031 
Q 4000 2031 3825 1801 
Q 3650 1572 3650 1163 
z
" transform="scale(0.015625)"/>
       <path id="MicrosoftYaHei-29" d="M 78 -1100 
Q 1131 163 1131 1853 
Q 1131 3547 72 4841 
L 616 4841 
Q 1672 3603 1672 1847 
Q 1672 91 616 -1100 
L 78 -1100 
z
" transform="scale(0.015625)"/>
      </defs>
      <use xlink:href="#MicrosoftYaHei-6da8"/>
      <use xlink:href="#MicrosoftYaHei-8dcc" transform="translate(100 0)"/>
      <use xlink:href="#MicrosoftYaHei-5e45" transform="translate(200 0)"/>
      <use xlink:href="#MicrosoftYaHei-20" transform="translate(300 0)"/>
      <use xlink:href="#MicrosoftYaHei-28" transform="translate(329.589844 0)"/>
      <use xlink:href="#MicrosoftYaHei-25" transform="translate(362.988281 0)"/>
      <use xlink:href="#MicrosoftYaHei-29" transform="translate(451.953125 0)"/>
     </g>
    </g>
   </g>
   <g id="matplotlib.axis_2">
    <g id="ytick_1">
     <g id="line2d_11">
      <path d="M 59.3 240.764413 
L 374.12 240.764413 
" clip-path="url(#p4a904955c6)" style="fill: none; stroke: #e2e8f0; stroke-opacity: 0.6; stroke-width: 0.5; stroke-linecap: square"/>
     </g>
     <g id="line2d_12"/>
     <g id="text_7">
      <!-- 美光科技 -->
      <g style="fill: #94a3b8" transform="translate(19.8 244.361601) scale(0.09 -0.09)">
       <defs>
        <path id="MicrosoftYaHei-Bold-7f8e" d="M 150 2566 
L 2756 2566 
L 2756 2922 
L 663 2922 
L 663 3603 
L 2756 3603 
L 2756 3959 
L 288 3959 
L 288 4641 
L 1688 4641 
Q 1553 4934 1406 5178 
L 2300 5353 
Q 2500 5028 2716 4641 
L 3678 4641 
Q 3906 4953 4175 5359 
L 5106 5172 
L 4634 4641 
L 6150 4641 
L 6150 3959 
L 3644 3959 
L 3644 3603 
L 5813 3603 
L 5813 2922 
L 3644 2922 
L 3644 2566 
L 6263 2566 
L 6263 1884 
L 150 1884 
L 150 2566 
z
M 238 1466 
L 2669 1466 
Q 2709 1634 2731 1816 
L 3638 1816 
Q 3613 1634 3575 1466 
L 6200 1466 
L 6200 784 
L 3963 784 
Q 4641 100 6300 -3 
Q 6156 -228 5875 -872 
Q 4031 -688 3197 466 
Q 2519 -644 400 -859 
Q 313 -572 88 -66 
Q 1816 103 2372 784 
L 238 784 
L 238 1466 
z
" transform="scale(0.015625)"/>
        <path id="MicrosoftYaHei-Bold-5149" d="M 5381 1547 
Q 5919 1366 6294 1259 
Q 6131 -197 5873 -469 
Q 5616 -741 5056 -741 
L 4450 -741 
Q 3444 -741 3444 284 
L 3444 2047 
L 2703 2047 
Q 2700 -172 763 -853 
Q 406 -403 81 -109 
Q 1763 528 1722 2047 
L 188 2047 
L 188 2916 
L 2700 2916 
L 2700 5322 
L 3650 5322 
L 3650 2916 
L 6213 2916 
L 6213 2047 
L 4369 2047 
L 4369 478 
Q 4369 78 4706 78 
L 4856 78 
Q 5113 78 5203 297 
Q 5294 516 5381 1547 
z
M 5163 4978 
L 5956 4403 
Q 5150 3466 4688 3034 
L 4000 3622 
Q 4525 4128 5163 4978 
z
M 1156 4978 
Q 1906 4222 2369 3678 
L 1613 3103 
Q 988 3891 463 4447 
L 1156 4978 
z
" transform="scale(0.015625)"/>
        <path id="MicrosoftYaHei-Bold-79d1" d="M 2494 1316 
L 4525 1500 
L 4525 5309 
L 5406 5309 
L 5406 1581 
L 6256 1659 
L 6325 866 
L 5406 781 
L 5406 -834 
L 4525 -834 
L 4525 703 
L 2600 528 
L 2494 1316 
z
M 88 1128 
Q 684 1850 1009 2709 
L 144 2709 
L 144 3516 
L 1038 3516 
L 1038 4216 
L 281 4147 
Q 219 4572 138 4891 
Q 1431 4991 2525 5147 
L 2763 4416 
Q 2341 4356 1850 4300 
L 1850 3516 
L 2663 3516 
L 2663 2709 
L 1850 2709 
L 1850 2172 
L 2150 2453 
Q 2600 2053 2913 1728 
L 2388 1253 
Q 2078 1616 1850 1863 
L 1850 -834 
L 1038 -834 
L 1038 1278 
Q 744 659 375 128 
Q 269 541 88 1128 
z
M 3419 4866 
Q 3894 4516 4475 3991 
L 3894 3416 
Q 3425 3916 2894 4334 
L 3419 4866 
z
M 3206 3278 
Q 3756 2872 4275 2397 
L 3688 1828 
Q 3263 2278 2675 2734 
L 3206 3278 
z
" transform="scale(0.015625)"/>
        <path id="MicrosoftYaHei-Bold-6280" d="M 6169 3678 
L 4644 3678 
L 4644 2984 
L 6013 2984 
L 6013 2228 
Q 5634 1319 4900 613 
Q 5525 256 6306 22 
Q 6000 -509 5800 -822 
Q 4919 -494 4188 31 
Q 3441 -484 2444 -859 
Q 2238 -509 1950 -47 
Q 2825 244 3472 625 
Q 2947 1128 2519 1759 
L 3225 2178 
Q 3606 1578 4169 1116 
Q 4738 1603 5025 2203 
L 2356 2203 
L 2356 2984 
L 3744 2984 
L 3744 3678 
L 2369 3678 
L 2369 4428 
L 3744 4428 
L 3744 5322 
L 4644 5322 
L 4644 4428 
L 6169 4428 
L 6169 3678 
z
M 163 4222 
L 863 4222 
L 863 5322 
L 1669 5322 
L 1669 4222 
L 2200 4222 
L 2200 3409 
L 1669 3409 
L 1669 2469 
L 2231 2591 
Q 2200 2053 2206 1772 
L 1669 1641 
L 1669 3 
Q 1669 -406 1466 -611 
Q 1263 -816 369 -816 
Q 306 -503 156 34 
Q 400 16 575 16 
Q 744 16 803 84 
Q 863 153 863 322 
L 863 1444 
L 188 1272 
L 100 2166 
L 863 2306 
L 863 3409 
L 163 3409 
L 163 4222 
z
" transform="scale(0.015625)"/>
       </defs>
       <use xlink:href="#MicrosoftYaHei-Bold-7f8e"/>
       <use xlink:href="#MicrosoftYaHei-Bold-5149" transform="translate(100 0)"/>
       <use xlink:href="#MicrosoftYaHei-Bold-79d1" transform="translate(200 0)"/>
       <use xlink:href="#MicrosoftYaHei-Bold-6280" transform="translate(300 0)"/>
      </g>
     </g>
    </g>
    <g id="ytick_2">
     <g id="line2d_13">
      <path d="M 59.3 211.556073 
L 374.12 211.556073 
" clip-path="url(#p4a904955c6)" style="fill: none; stroke: #e2e8f0; stroke-opacity: 0.6; stroke-width: 0.5; stroke-linecap: square"/>
     </g>
     <g id="line2d_14"/>
     <g id="text_8">
      <!-- SK海力士 -->
      <g style="fill: #94a3b8" transform="translate(17.150625 215.15326) scale(0.09 -0.09)">
       <defs>
        <path id="MicrosoftYaHei-Bold-53" d="M 338 1219 
Q 922 734 1666 734 
Q 2088 734 2300 879 
Q 2513 1025 2513 1253 
Q 2513 1450 2344 1625 
Q 2175 1800 1453 2100 
Q 319 2581 319 3500 
Q 319 4175 833 4548 
Q 1347 4922 2194 4922 
Q 2903 4922 3384 4738 
L 3384 3769 
Q 2897 4100 2244 4100 
Q 1863 4100 1634 3961 
Q 1406 3822 1406 3588 
Q 1406 3400 1562 3242 
Q 1719 3084 2334 2816 
Q 3056 2506 3326 2162 
Q 3597 1819 3597 1344 
Q 3597 647 3103 281 
Q 2609 -84 1700 -84 
Q 869 -84 338 184 
L 338 1219 
z
" transform="scale(0.015625)"/>
        <path id="MicrosoftYaHei-Bold-4b" d="M 4506 0 
L 3200 0 
L 1734 2116 
Q 1678 2197 1606 2369 
L 1591 2369 
L 1591 0 
L 559 0 
L 559 4841 
L 1591 4841 
L 1591 2553 
L 1606 2553 
Q 1675 2703 1744 2813 
L 3131 4841 
L 4363 4841 
L 2631 2531 
L 4506 0 
z
" transform="scale(0.015625)"/>
        <path id="MicrosoftYaHei-Bold-6d77" d="M 1500 2247 
L 2066 2247 
L 2163 3247 
Q 2019 3091 1869 2941 
Q 1663 3228 1350 3597 
Q 2188 4434 2613 5328 
L 3488 5216 
Q 3403 5031 3306 4853 
L 6163 4853 
L 6163 4184 
L 2903 4184 
Q 2759 3972 2597 3766 
L 5825 3766 
L 5800 2247 
L 6300 2247 
L 6300 1603 
L 5788 1603 
L 5769 747 
L 6244 747 
L 6244 109 
L 5753 109 
Q 5731 -372 5550 -551 
Q 5369 -731 5028 -770 
Q 4688 -809 3675 -822 
Q 3588 -497 3488 -166 
Q 4088 -184 4431 -184 
Q 4622 -184 4761 -145 
Q 4900 -106 4913 109 
L 1863 109 
L 2006 1603 
L 1500 1603 
L 1500 2247 
z
M 4544 2647 
L 4138 2247 
L 4963 2247 
L 4975 3128 
L 3838 3128 
Q 4100 2953 4544 2647 
z
M 3275 2772 
L 3656 3128 
L 2975 3128 
L 2888 2247 
L 3953 2247 
L 3275 2772 
z
M 3256 1241 
L 3650 1603 
L 2825 1603 
L 2744 747 
L 3909 747 
Q 3575 1009 3256 1241 
z
M 4531 1122 
L 4150 747 
L 4934 747 
L 4953 1603 
L 3816 1603 
Q 4078 1431 4531 1122 
z
M 800 5309 
Q 1288 4953 1806 4509 
L 1225 3878 
Q 794 4303 263 4734 
L 800 5309 
z
M 606 3647 
Q 1081 3303 1594 2859 
L 1031 2184 
Q 838 2378 94 3053 
L 606 3647 
z
M 825 1784 
Q 1213 1616 1631 1491 
Q 1344 434 1050 -822 
Q 644 -678 225 -566 
Q 544 459 825 1784 
z
" transform="scale(0.015625)"/>
        <path id="MicrosoftYaHei-Bold-529b" d="M 2094 5309 
L 3063 5309 
L 3022 4066 
L 5988 4066 
L 5931 2203 
Q 5897 1225 5859 593 
Q 5822 -38 5489 -373 
Q 5156 -709 4611 -721 
Q 4066 -734 3225 -728 
Q 3138 -184 3038 247 
Q 3531 197 4188 197 
Q 4503 197 4665 320 
Q 4828 444 4876 623 
Q 4925 803 4964 1515 
Q 5003 2228 5025 3241 
L 2978 3241 
Q 2919 603 769 -891 
Q 444 -491 38 -84 
Q 1963 1059 2031 3241 
L 381 3241 
L 381 4066 
L 2075 4066 
Q 2097 4644 2094 5309 
z
" transform="scale(0.015625)"/>
        <path id="MicrosoftYaHei-Bold-58eb" d="M 500 384 
L 2700 384 
L 2700 2653 
L 163 2653 
L 163 3541 
L 2700 3541 
L 2700 5316 
L 3688 5316 
L 3688 3541 
L 6244 3541 
L 6244 2653 
L 3688 2653 
L 3688 384 
L 5925 384 
L 5925 -491 
L 500 -491 
L 500 384 
z
" transform="scale(0.015625)"/>
       </defs>
       <use xlink:href="#MicrosoftYaHei-Bold-53"/>
       <use xlink:href="#MicrosoftYaHei-Bold-4b" transform="translate(60.15625 0)"/>
       <use xlink:href="#MicrosoftYaHei-Bold-6d77" transform="translate(129.443359 0)"/>
       <use xlink:href="#MicrosoftYaHei-Bold-529b" transform="translate(229.443359 0)"/>
       <use xlink:href="#MicrosoftYaHei-Bold-58eb" transform="translate(329.443359 0)"/>
      </g>
     </g>
    </g>
    <g id="ytick_3">
     <g id="line2d_15">
      <path d="M 59.3 182.347733 
L 374.12 182.347733 
" clip-path="url(#p4a904955c6)" style="fill: none; stroke: #e2e8f0; stroke-opacity: 0.6; stroke-width: 0.5; stroke-linecap: square"/>
     </g>
     <g id="line2d_16"/>
     <g id="text_9">
      <!-- 西部数据 -->
      <g style="fill: #94a3b8" transform="translate(19.8 185.94492) scale(0.09 -0.09)">
       <defs>
        <path id="MicrosoftYaHei-Bold-897f" d="M 388 -809 
L 388 3491 
L 2019 3491 
L 2019 4203 
L 150 4203 
L 150 4991 
L 6250 4991 
L 6250 4203 
L 4294 4203 
L 4294 3491 
L 6013 3491 
L 6013 -803 
L 5138 -803 
L 5138 -397 
L 1263 -397 
L 1263 -809 
L 388 -809 
z
M 2844 3491 
L 3463 3491 
L 3463 4203 
L 2844 4203 
L 2844 3491 
z
M 3463 1772 
L 3463 2703 
L 2844 2703 
Q 2844 1341 1944 622 
Q 1581 925 1263 1138 
L 1263 391 
L 5138 391 
L 5138 1028 
L 4200 1028 
Q 3463 1028 3463 1772 
z
M 1263 1197 
Q 2019 1741 2019 2703 
L 1263 2703 
L 1263 1197 
z
M 5138 2703 
L 4294 2703 
L 4294 2122 
Q 4294 1822 4600 1822 
L 5138 1822 
L 5138 2703 
z
" transform="scale(0.015625)"/>
        <path id="MicrosoftYaHei-Bold-90e8" d="M 3488 3941 
L 2666 3941 
L 3344 3666 
Q 3141 3347 2903 3003 
L 3625 3003 
L 3625 2303 
L 119 2303 
L 119 3003 
L 866 3003 
Q 684 3284 450 3591 
L 1059 3941 
L 263 3941 
L 263 4641 
L 1475 4641 
Q 1375 4931 1256 5191 
L 2194 5347 
Q 2316 5028 2422 4641 
L 3488 4641 
L 3488 3941 
z
M 1706 3241 
L 1278 3003 
L 1969 3003 
Q 2278 3475 2484 3941 
L 1159 3941 
Q 1525 3522 1706 3241 
z
M 5500 2716 
Q 6294 1922 6294 997 
Q 6294 481 6017 192 
Q 5741 -97 4875 -84 
Q 4831 359 4719 816 
Q 4959 778 5066 778 
Q 5450 778 5450 1159 
Q 5450 1859 4700 2641 
Q 5025 3409 5313 4291 
L 4631 4291 
L 4631 -847 
L 3831 -847 
L 3831 5016 
L 6175 5016 
L 6175 4416 
Q 5956 3816 5500 2716 
z
M 400 -703 
L 400 1828 
L 3344 1828 
L 3344 -666 
L 2556 -666 
L 2556 -347 
L 1188 -347 
L 1188 -703 
L 400 -703 
z
M 2556 1128 
L 1188 1128 
L 1188 353 
L 2556 353 
L 2556 1128 
z
" transform="scale(0.015625)"/>
        <path id="MicrosoftYaHei-Bold-6570" d="M 238 4091 
L 725 4091 
Q 559 4425 281 4803 
L 844 5153 
Q 1038 4922 1369 4428 
L 806 4091 
L 1506 4091 
L 1506 5316 
L 2300 5316 
L 2300 4091 
L 2956 4091 
L 2438 4428 
Q 2750 4809 2963 5172 
L 3550 4822 
Q 3341 4466 3031 4091 
L 3394 4091 
L 3394 3453 
L 2300 3453 
L 2300 3016 
L 2513 3303 
Q 2903 3094 3253 2891 
Q 3766 3841 4138 5347 
L 4994 5266 
Q 4869 4781 4728 4341 
L 6294 4341 
L 6294 3578 
L 6041 3578 
Q 5906 1922 5338 856 
Q 5738 391 6319 53 
Q 6094 -203 5775 -778 
Q 5228 -413 4828 109 
Q 4313 -497 3631 -872 
Q 3378 -513 3072 -197 
L 2850 -566 
Q 2475 -350 2031 -128 
Q 1347 -584 394 -778 
Q 281 -434 63 -9 
Q 716 59 1213 253 
Q 781 444 300 641 
Q 513 950 681 1259 
L 169 1259 
L 169 1897 
L 991 1897 
Q 1094 2144 1169 2391 
L 1506 2359 
L 1506 2959 
Q 1044 2472 344 2053 
Q 213 2472 50 2803 
Q 672 3044 1172 3453 
L 238 3453 
L 238 4091 
z
M 4394 3400 
Q 4519 2359 4831 1659 
Q 5203 2478 5275 3578 
L 4463 3578 
Q 4431 3488 4394 3400 
z
M 2300 2216 
L 1984 2216 
Q 1913 2063 1825 1897 
L 3281 1897 
L 3281 1316 
Q 3038 806 2672 413 
L 3294 166 
L 3169 -38 
Q 3859 322 4347 894 
Q 4041 1522 3878 2300 
Q 3769 2103 3656 1922 
Q 3513 2172 3322 2438 
L 3138 2159 
Q 2750 2422 2300 2691 
L 2300 2216 
z
M 1300 934 
L 1950 691 
Q 2231 934 2413 1259 
L 1484 1259 
L 1300 934 
z
" transform="scale(0.015625)"/>
        <path id="MicrosoftYaHei-Bold-636e" d="M 6294 1916 
L 4869 1916 
L 4869 1391 
L 5919 1391 
L 5919 -853 
L 5181 -853 
L 5181 -541 
L 3788 -541 
L 3788 -853 
L 3050 -853 
L 3050 1391 
L 4081 1391 
L 4081 1916 
L 2988 1916 
Q 2875 203 2188 -803 
Q 1925 -459 1625 -166 
Q 2250 928 2250 2803 
L 2250 5084 
L 6031 5084 
L 6031 3128 
L 4869 3128 
L 4869 2572 
L 6294 2572 
L 6294 1916 
z
M 169 4147 
L 763 4147 
L 763 5253 
L 1519 5253 
L 1519 4147 
L 2056 4147 
L 2056 3347 
L 1519 3347 
L 1519 2472 
Q 1788 2528 2088 2603 
Q 2056 2103 2063 1791 
Q 1788 1722 1519 1653 
L 1519 -59 
Q 1519 -753 950 -772 
Q 619 -803 313 -791 
Q 250 -422 131 22 
Q 338 16 550 9 
Q 763 3 763 309 
L 763 1459 
Q 463 1378 163 1303 
L 94 2166 
Q 375 2222 763 2303 
L 763 3347 
L 169 3347 
L 169 4147 
z
M 5263 3784 
L 5263 4428 
L 3013 4428 
L 3013 3784 
L 5263 3784 
z
M 5181 734 
L 3788 734 
L 3788 116 
L 5181 116 
L 5181 734 
z
M 4081 2572 
L 4081 3128 
L 3013 3128 
L 3013 2572 
L 4081 2572 
z
" transform="scale(0.015625)"/>
       </defs>
       <use xlink:href="#MicrosoftYaHei-Bold-897f"/>
       <use xlink:href="#MicrosoftYaHei-Bold-90e8" transform="translate(100 0)"/>
       <use xlink:href="#MicrosoftYaHei-Bold-6570" transform="translate(200 0)"/>
       <use xlink:href="#MicrosoftYaHei-Bold-636e" transform="translate(300 0)"/>
      </g>
     </g>
    </g>
    <g id="ytick_4">
     <g id="line2d_17">
      <path d="M 59.3 153.139392 
L 374.12 153.139392 
" clip-path="url(#p4a904955c6)" style="fill: none; stroke: #e2e8f0; stroke-opacity: 0.6; stroke-width: 0.5; stroke-linecap: square"/>
     </g>
     <g id="line2d_18"/>
     <g id="text_10">
      <!-- 闪迪 -->
      <g style="fill: #94a3b8" transform="translate(37.8 156.73658) scale(0.09 -0.09)">
       <defs>
        <path id="MicrosoftYaHei-Bold-95ea" d="M 1194 5072 
L 1988 5359 
Q 2363 4734 2681 4047 
L 1813 3734 
Q 1525 4409 1194 5072 
z
M 6019 378 
Q 6019 -122 5823 -400 
Q 5628 -678 5265 -743 
Q 4903 -809 3625 -809 
Q 3531 -341 3394 116 
Q 3875 84 4334 84 
Q 4872 84 4992 243 
Q 5113 403 5113 609 
L 5113 4097 
L 2844 4097 
L 2844 4922 
L 6019 4922 
L 6019 378 
z
M 369 4453 
L 1275 4453 
L 1275 -766 
L 369 -766 
L 369 4453 
z
M 2725 3759 
L 3600 3759 
Q 3600 3222 3525 2775 
Q 4366 1953 5056 1209 
L 4444 553 
Q 3834 1303 3269 1894 
Q 2891 1100 1919 372 
Q 1650 716 1294 1066 
Q 2066 1581 2395 2157 
Q 2725 2734 2725 3759 
z
" transform="scale(0.015625)"/>
        <path id="MicrosoftYaHei-Bold-8fea" d="M 2138 4453 
L 3669 4453 
L 3669 5316 
L 4494 5316 
L 4494 4453 
L 6025 4453 
L 6025 559 
L 2138 559 
L 2138 4453 
z
M 5238 3703 
L 4494 3703 
L 4494 2878 
L 5238 2878 
L 5238 3703 
z
M 2925 2878 
L 3669 2878 
L 3669 3703 
L 2925 3703 
L 2925 2878 
z
M 5238 1309 
L 5238 2166 
L 4494 2166 
L 4494 1309 
L 5238 1309 
z
M 2925 1309 
L 3669 1309 
L 3669 2166 
L 2925 2166 
L 2925 1309 
z
M 1025 5228 
Q 1494 4616 1869 4078 
L 1138 3584 
Q 763 4234 356 4816 
L 1025 5228 
z
M 6306 97 
L 6056 -716 
Q 3447 -716 2915 -697 
Q 2384 -678 1946 -528 
Q 1509 -378 1238 -97 
L 513 -847 
L 138 84 
Q 481 372 781 634 
L 781 2222 
L 200 2222 
L 200 3016 
L 1600 3016 
L 1600 594 
Q 2088 72 3106 72 
L 4297 66 
Q 5006 66 6306 97 
z
" transform="scale(0.015625)"/>
       </defs>
       <use xlink:href="#MicrosoftYaHei-Bold-95ea"/>
       <use xlink:href="#MicrosoftYaHei-Bold-8fea" transform="translate(100 0)"/>
      </g>
     </g>
    </g>
    <g id="ytick_5">
     <g id="line2d_19">
      <path d="M 59.3 123.931052 
L 374.12 123.931052 
" clip-path="url(#p4a904955c6)" style="fill: none; stroke: #e2e8f0; stroke-opacity: 0.6; stroke-width: 0.5; stroke-linecap: square"/>
     </g>
     <g id="line2d_20"/>
     <g id="text_11">
      <!-- 费城半导体 -->
      <g style="fill: #94a3b8" transform="translate(10.8 127.52824) scale(0.09 -0.09)">
       <defs>
        <path id="MicrosoftYaHei-Bold-8d39" d="M 1088 291 
L 1088 1344 
Q 809 1225 481 1116 
Q 331 1416 94 1772 
Q 1222 2050 1638 2503 
L 413 2503 
L 650 4003 
L 2100 4003 
Q 2106 4147 2106 4353 
L 438 4353 
L 438 4928 
L 2106 4928 
L 2106 5341 
L 2881 5341 
L 2881 4928 
L 3663 4928 
L 3663 5341 
L 4438 5341 
L 4438 4928 
L 5913 4928 
L 5913 3428 
L 4438 3428 
L 4438 3078 
L 6150 3078 
Q 6138 2588 6105 2239 
Q 6072 1891 5917 1730 
Q 5763 1569 5450 1556 
L 5450 416 
L 4663 416 
L 4663 1384 
L 1875 1384 
L 1875 291 
L 1088 291 
z
M 2875 4003 
L 3663 4003 
L 3663 4353 
L 2881 4353 
Q 2881 4241 2875 4003 
z
M 5175 4003 
L 5175 4353 
L 4438 4353 
L 4438 4003 
L 5175 4003 
z
M 2759 3078 
L 3663 3078 
L 3663 3428 
L 2828 3428 
Q 2800 3241 2759 3078 
z
M 1300 3428 
L 1231 3078 
L 1963 3078 
Q 2009 3234 2044 3428 
L 1300 3428 
z
M 4769 2147 
Q 5238 2131 5292 2164 
Q 5347 2197 5373 2275 
Q 5400 2353 5400 2503 
L 4438 2503 
L 4438 2028 
L 3663 2028 
L 3663 2503 
L 2544 2503 
Q 2313 2116 2075 1928 
L 4838 1928 
L 4769 2147 
z
M 2881 1216 
L 3681 1216 
Q 3659 872 3575 594 
Q 4731 275 6188 -197 
L 5806 -878 
Q 4647 -441 3266 0 
Q 2713 -684 663 -866 
Q 525 -522 325 -116 
Q 1681 -41 2270 214 
Q 2859 469 2881 1216 
z
" transform="scale(0.015625)"/>
        <path id="MicrosoftYaHei-Bold-57ce" d="M 3956 1216 
Q 3931 409 3356 347 
Q 3131 316 2738 316 
Q 2713 484 2663 703 
Q 2519 -284 2150 -872 
Q 1813 -509 1525 -259 
Q 1719 66 1838 491 
Q 1063 241 238 -41 
L 75 872 
Q 381 947 663 1016 
L 663 2978 
L 200 2978 
L 200 3791 
L 663 3791 
L 663 5278 
L 1450 5278 
L 1450 3791 
L 1888 3791 
L 1888 2978 
L 1450 2978 
L 1450 1234 
Q 1663 1297 1850 1359 
Q 1831 1016 1844 522 
Q 2044 1216 2044 2159 
L 2044 4278 
L 4119 4278 
Q 4106 4759 4100 5303 
L 4863 5303 
Q 4869 4759 4881 4278 
L 5506 4278 
Q 5250 4622 4950 4972 
L 5500 5316 
Q 5844 4928 6125 4572 
L 5656 4278 
L 6300 4278 
L 6300 3528 
L 4900 3528 
Q 4938 2584 4988 1909 
Q 5263 2447 5494 3084 
L 6244 2728 
Q 5731 1578 5156 703 
Q 5294 78 5475 78 
Q 5625 78 5694 1166 
Q 6069 978 6369 853 
Q 6275 66 6131 -397 
Q 5969 -859 5475 -859 
Q 4881 -859 4581 -72 
Q 4169 -578 3725 -928 
Q 3444 -559 3194 -309 
Q 3825 116 4356 853 
Q 4206 1784 4144 3528 
L 2763 3528 
L 2763 2816 
L 4006 2816 
Q 3981 2116 3956 1216 
z
M 2706 1022 
Q 2869 1009 2931 1009 
Q 3213 1003 3213 1309 
Q 3225 1666 3231 2103 
L 2763 2103 
Q 2756 1516 2706 1022 
z
" transform="scale(0.015625)"/>
        <path id="MicrosoftYaHei-Bold-534a" d="M 131 1478 
L 2706 1478 
L 2706 2266 
L 388 2266 
L 388 3091 
L 2706 3091 
L 2706 5291 
L 3688 5291 
L 3688 3091 
L 6013 3091 
L 6013 2266 
L 3688 2266 
L 3688 1478 
L 6269 1478 
L 6269 653 
L 3688 653 
L 3688 -822 
L 2706 -822 
L 2706 653 
L 131 653 
L 131 1478 
z
M 5225 5153 
L 5950 4603 
Q 5363 3941 4644 3222 
L 4031 3766 
Q 4663 4391 5225 5153 
z
M 1075 5128 
Q 1725 4466 2288 3791 
L 1594 3228 
Q 1056 3922 431 4597 
L 1075 5128 
z
" transform="scale(0.015625)"/>
        <path id="MicrosoftYaHei-Bold-5bfc" d="M 2038 2703 
L 4850 2703 
Q 5103 2703 5250 2793 
Q 5397 2884 5437 3054 
Q 5478 3225 5531 3678 
Q 5800 3578 6294 3434 
Q 6159 2741 6089 2531 
Q 6019 2322 5878 2198 
Q 5738 2075 5514 2014 
Q 5291 1953 4988 1953 
L 1875 1953 
Q 675 1953 675 3041 
L 675 5091 
L 5419 5091 
L 5419 3191 
L 1550 3191 
L 1550 3128 
Q 1550 2703 2038 2703 
z
M 1550 4347 
L 1550 3878 
L 4544 3878 
L 4544 4347 
L 1550 4347 
z
M 1194 572 
L 1375 766 
L 94 766 
L 94 1541 
L 4325 1541 
L 4325 1816 
L 5200 1816 
L 5200 1541 
L 6313 1541 
L 6313 766 
L 5200 766 
L 5200 241 
Q 5200 -219 4964 -473 
Q 4728 -728 4312 -759 
Q 3897 -791 3119 -791 
Q 3006 -297 2900 47 
Q 3516 9 3844 9 
Q 4331 9 4325 484 
L 4325 766 
L 2081 766 
Q 2363 531 2656 266 
L 2119 -303 
Q 1694 116 1194 572 
z
" transform="scale(0.015625)"/>
        <path id="MicrosoftYaHei-Bold-4f53" d="M 1100 5309 
L 1906 5103 
Q 1697 4303 1450 3613 
L 1450 1072 
Q 2450 2116 2934 3516 
L 1806 3516 
L 1806 4297 
L 3438 4297 
L 3438 5309 
L 4263 5309 
L 4263 4297 
L 6063 4297 
L 6063 3516 
L 4716 3516 
Q 5191 2188 6313 1166 
Q 6044 759 5769 278 
Q 5519 538 5300 853 
L 5300 209 
L 4263 209 
L 4263 -841 
L 3438 -841 
L 3438 209 
L 2431 209 
L 2431 878 
Q 2191 519 1906 191 
Q 1722 491 1450 900 
L 1450 -828 
L 700 -828 
L 700 1922 
Q 500 1563 288 1253 
Q 213 1822 88 2434 
Q 581 3359 1100 5309 
z
M 2509 997 
L 3438 997 
L 3438 3163 
Q 3138 1972 2509 997 
z
M 4263 3128 
L 4263 997 
L 5203 997 
Q 4634 1866 4263 3128 
z
" transform="scale(0.015625)"/>
       </defs>
       <use xlink:href="#MicrosoftYaHei-Bold-8d39"/>
       <use xlink:href="#MicrosoftYaHei-Bold-57ce" transform="translate(100 0)"/>
       <use xlink:href="#MicrosoftYaHei-Bold-534a" transform="translate(200 0)"/>
       <use xlink:href="#MicrosoftYaHei-Bold-5bfc" transform="translate(300 0)"/>
       <use xlink:href="#MicrosoftYaHei-Bold-4f53" transform="translate(400 0)"/>
      </g>
     </g>
    </g>
    <g id="ytick_6">
     <g id="line2d_21">
      <path d="M 59.3 94.722712 
L 374.12 94.722712 
" clip-path="url(#p4a904955c6)" style="fill: none; stroke: #e2e8f0; stroke-opacity: 0.6; stroke-width: 0.5; stroke-linecap: square"/>
     </g>
     <g id="line2d_22"/>
     <g id="text_12">
      <!-- 三星电子 -->
      <g style="fill: #94a3b8" transform="translate(19.8 98.319899) scale(0.09 -0.09)">
       <defs>
        <path id="MicrosoftYaHei-Bold-4e09" d="M 575 4803 
L 5813 4803 
L 5813 3878 
L 575 3878 
L 575 4803 
z
M 856 2691 
L 5531 2691 
L 5531 1791 
L 856 1791 
L 856 2691 
z
M 188 466 
L 6225 466 
L 6225 -459 
L 188 -459 
L 188 466 
z
" transform="scale(0.015625)"/>
        <path id="MicrosoftYaHei-Bold-661f" d="M 213 47 
L 2925 47 
L 2925 441 
L 1088 441 
L 1088 1066 
Q 906 828 713 609 
Q 456 828 88 1072 
Q 713 1781 1066 2522 
L 750 2522 
L 750 5103 
L 5706 5103 
L 5706 2522 
L 3800 2522 
L 3800 2141 
L 5975 2141 
L 5975 1466 
L 3800 1466 
L 3800 1091 
L 5800 1091 
L 5800 441 
L 3800 441 
L 3800 47 
L 6250 47 
L 6250 -628 
L 213 -628 
L 213 47 
z
M 4844 4416 
L 1613 4416 
L 1613 4084 
L 4844 4084 
L 4844 4416 
z
M 4844 3209 
L 4844 3541 
L 1613 3541 
L 1613 3209 
L 4844 3209 
z
M 1900 2378 
Q 1838 2256 1775 2141 
L 2925 2141 
L 2925 2522 
L 1559 2522 
L 1900 2378 
z
M 1103 1091 
L 2925 1091 
L 2925 1466 
L 1369 1466 
Q 1241 1272 1103 1091 
z
" transform="scale(0.015625)"/>
        <path id="MicrosoftYaHei-Bold-7535" d="M 5563 4522 
L 5563 1125 
Q 5866 997 6300 878 
Q 6131 -222 5828 -447 
Q 5525 -672 5025 -672 
L 3525 -672 
Q 2506 -672 2506 253 
L 2506 878 
L 1281 878 
L 1281 391 
L 381 391 
L 381 4522 
L 2506 4522 
L 2506 5291 
L 3413 5291 
L 3413 4522 
L 5563 4522 
z
M 4663 3734 
L 3413 3734 
L 3413 3097 
L 4663 3097 
L 4663 3734 
z
M 1281 3734 
L 1281 3097 
L 2506 3097 
L 2506 3734 
L 1281 3734 
z
M 4663 1666 
L 4663 2309 
L 3413 2309 
L 3413 1666 
L 4663 1666 
z
M 1281 1666 
L 2506 1666 
L 2506 2309 
L 1281 2309 
L 1281 1666 
z
M 3794 103 
L 4731 103 
Q 4963 103 5097 183 
Q 5231 263 5270 402 
Q 5309 541 5366 878 
L 3413 878 
L 3413 434 
Q 3413 103 3794 103 
z
" transform="scale(0.015625)"/>
        <path id="MicrosoftYaHei-Bold-5b50" d="M 144 2572 
L 2819 2572 
L 2819 3303 
L 4338 4147 
L 569 4147 
L 569 4978 
L 5831 4978 
L 5831 4147 
L 3769 2916 
L 3769 2572 
L 6275 2572 
L 6275 1722 
L 3769 1722 
L 3769 528 
Q 3769 -113 3487 -425 
Q 3206 -738 2609 -738 
L 1456 -728 
Q 1369 -266 1225 222 
Q 1788 159 2306 159 
Q 2825 159 2819 709 
L 2819 1722 
L 144 1722 
L 144 2572 
z
" transform="scale(0.015625)"/>
       </defs>
       <use xlink:href="#MicrosoftYaHei-Bold-4e09"/>
       <use xlink:href="#MicrosoftYaHei-Bold-661f" transform="translate(100 0)"/>
       <use xlink:href="#MicrosoftYaHei-Bold-7535" transform="translate(200 0)"/>
       <use xlink:href="#MicrosoftYaHei-Bold-5b50" transform="translate(300 0)"/>
      </g>
     </g>
    </g>
   </g>
   <g id="patch_3">
    <path d="M 59.3 247.33629 
L 312.46775 247.33629 
L 312.46775 234.192537 
L 59.3 234.192537 
z
" clip-path="url(#p4a904955c6)" style="fill: #6d28d9; stroke: #ffffff; stroke-width: 1.5; stroke-linejoin: miter"/>
   </g>
   <g id="patch_4">
    <path d="M 59.3 218.127949 
L 203.5925 218.127949 
L 203.5925 204.984196 
L 59.3 204.984196 
z
" clip-path="url(#p4a904955c6)" style="fill: #7c3aed; stroke: #ffffff; stroke-width: 1.5; stroke-linejoin: miter"/>
   </g>
   <g id="patch_5">
    <path d="M 59.3 188.919609 
L 177.3575 188.919609 
L 177.3575 175.775856 
L 59.3 175.775856 
z
" clip-path="url(#p4a904955c6)" style="fill: #8b5cf6; stroke: #ffffff; stroke-width: 1.5; stroke-linejoin: miter"/>
   </g>
   <g id="patch_6">
    <path d="M 59.3 159.711269 
L 151.1225 159.711269 
L 151.1225 146.567516 
L 59.3 146.567516 
z
" clip-path="url(#p4a904955c6)" style="fill: #a78bfa; stroke: #ffffff; stroke-width: 1.5; stroke-linejoin: miter"/>
   </g>
   <g id="patch_7">
    <path d="M 59.3 130.502929 
L 127.511 130.502929 
L 127.511 117.359176 
L 59.3 117.359176 
z
" clip-path="url(#p4a904955c6)" style="fill: #8b5cf6; stroke: #ffffff; stroke-width: 1.5; stroke-linejoin: miter"/>
   </g>
   <g id="patch_8">
    <path d="M 59.3 101.294588 
L 124.8875 101.294588 
L 124.8875 88.150835 
L 59.3 88.150835 
z
" clip-path="url(#p4a904955c6)" style="fill: #a78bfa; stroke: #ffffff; stroke-width: 1.5; stroke-linejoin: miter"/>
   </g>
   <g id="text_13">
    <!-- +19.3% -->
    <g style="fill: #1e293b" transform="translate(316.403 243.242929) scale(0.09 -0.09)">
     <defs>
      <path id="MicrosoftYaHei-Bold-2b" d="M 4072 1653 
L 2766 1653 
L 2766 347 
L 2109 347 
L 2109 1653 
L 797 1653 
L 797 2313 
L 2109 2313 
L 2109 3625 
L 2766 3625 
L 2766 2313 
L 4072 2313 
L 4072 1653 
z
" transform="scale(0.015625)"/>
      <path id="MicrosoftYaHei-Bold-39" d="M 544 941 
Q 931 691 1456 691 
Q 2628 691 2653 2216 
L 2634 2222 
Q 2316 1731 1650 1731 
Q 1047 1731 658 2154 
Q 269 2578 269 3222 
Q 269 3978 737 4450 
Q 1206 4922 1959 4922 
Q 2744 4922 3191 4325 
Q 3638 3728 3638 2659 
Q 3638 1391 3098 653 
Q 2559 -84 1547 -84 
Q 975 -84 544 100 
L 544 941 
z
M 1259 3313 
Q 1259 2928 1445 2709 
Q 1631 2491 1953 2491 
Q 2241 2491 2427 2700 
Q 2613 2909 2613 3219 
Q 2613 3591 2427 3869 
Q 2241 4147 1928 4147 
Q 1625 4147 1442 3906 
Q 1259 3666 1259 3313 
z
" transform="scale(0.015625)"/>
      <path id="MicrosoftYaHei-Bold-2e" d="M 313 453 
Q 313 688 491 838 
Q 669 988 916 988 
Q 1166 988 1337 834 
Q 1509 681 1509 453 
Q 1509 213 1337 64 
Q 1166 -84 903 -84 
Q 659 -84 486 69 
Q 313 222 313 453 
z
" transform="scale(0.015625)"/>
      <path id="MicrosoftYaHei-Bold-33" d="M 494 1053 
Q 978 691 1625 691 
Q 2034 691 2275 872 
Q 2516 1053 2516 1388 
Q 2516 1731 2230 1912 
Q 1944 2094 1428 2094 
L 997 2094 
L 997 2872 
L 1394 2872 
Q 2369 2872 2369 3528 
Q 2369 4147 1622 4147 
Q 1134 4147 675 3828 
L 675 4663 
Q 1175 4922 1853 4922 
Q 2541 4922 2969 4605 
Q 3397 4288 3397 3725 
Q 3397 2775 2434 2531 
L 2434 2516 
Q 2941 2459 3244 2145 
Q 3547 1831 3547 1381 
Q 3547 691 3042 303 
Q 2538 -84 1697 -84 
Q 950 -84 494 163 
L 494 1053 
z
" transform="scale(0.015625)"/>
      <path id="MicrosoftYaHei-Bold-25" d="M 297 3597 
Q 297 4191 626 4548 
Q 956 4906 1519 4906 
Q 2056 4906 2354 4581 
Q 2653 4256 2653 3684 
Q 2653 3097 2322 2744 
Q 1991 2391 1438 2391 
Q 919 2391 608 2722 
Q 297 3053 297 3597 
z
M 984 3631 
Q 984 2959 1478 2959 
Q 1981 2959 1981 3659 
Q 1981 4338 1500 4338 
Q 984 4338 984 3631 
z
M 4938 4841 
L 1791 -3 
L 1006 -3 
L 4147 4841 
L 4938 4841 
z
M 3297 1141 
Q 3297 1741 3631 2095 
Q 3966 2450 4522 2450 
Q 5059 2450 5357 2131 
Q 5656 1813 5656 1234 
Q 5656 641 5322 286 
Q 4988 -69 4438 -69 
Q 3922 -69 3609 264 
Q 3297 597 3297 1141 
z
M 3981 1175 
Q 3981 500 4478 500 
Q 4978 500 4978 1200 
Q 4978 1528 4845 1704 
Q 4713 1881 4491 1881 
Q 3981 1881 3981 1175 
z
" transform="scale(0.015625)"/>
     </defs>
     <use xlink:href="#MicrosoftYaHei-Bold-2b"/>
     <use xlink:href="#MicrosoftYaHei-Bold-31" transform="translate(76.123047 0)"/>
     <use xlink:href="#MicrosoftYaHei-Bold-39" transform="translate(137.792969 0)"/>
     <use xlink:href="#MicrosoftYaHei-Bold-2e" transform="translate(199.462891 0)"/>
     <use xlink:href="#MicrosoftYaHei-Bold-33" transform="translate(228.027344 0)"/>
     <use xlink:href="#MicrosoftYaHei-Bold-25" transform="translate(289.697266 0)"/>
    </g>
   </g>
   <g id="text_14">
    <!-- +11.0% -->
    <g style="fill: #1e293b" transform="translate(207.52775 214.034589) scale(0.09 -0.09)">
     <use xlink:href="#MicrosoftYaHei-Bold-2b"/>
     <use xlink:href="#MicrosoftYaHei-Bold-31" transform="translate(76.123047 0)"/>
     <use xlink:href="#MicrosoftYaHei-Bold-31" transform="translate(137.792969 0)"/>
     <use xlink:href="#MicrosoftYaHei-Bold-2e" transform="translate(199.462891 0)"/>
     <use xlink:href="#MicrosoftYaHei-Bold-30" transform="translate(228.027344 0)"/>
     <use xlink:href="#MicrosoftYaHei-Bold-25" transform="translate(289.697266 0)"/>
    </g>
   </g>
   <g id="text_15">
    <!-- +9.0% -->
    <g style="fill: #1e293b" transform="translate(181.29275 184.826248) scale(0.09 -0.09)">
     <use xlink:href="#MicrosoftYaHei-Bold-2b"/>
     <use xlink:href="#MicrosoftYaHei-Bold-39" transform="translate(76.123047 0)"/>
     <use xlink:href="#MicrosoftYaHei-Bold-2e" transform="translate(137.792969 0)"/>
     <use xlink:href="#MicrosoftYaHei-Bold-30" transform="translate(166.357422 0)"/>
     <use xlink:href="#MicrosoftYaHei-Bold-25" transform="translate(228.027344 0)"/>
    </g>
   </g>
   <g id="text_16">
    <!-- +7.0% -->
    <g style="fill: #1e293b" transform="translate(155.05775 155.617908) scale(0.09 -0.09)">
     <defs>
      <path id="MicrosoftYaHei-Bold-37" d="M 3675 4225 
Q 3088 3172 2798 2528 
Q 2509 1884 2328 1275 
Q 2147 666 2050 0 
L 966 0 
Q 1122 947 1517 1917 
Q 1913 2888 2609 4009 
L 300 4009 
L 300 4841 
L 3675 4841 
L 3675 4225 
z
" transform="scale(0.015625)"/>
     </defs>
     <use xlink:href="#MicrosoftYaHei-Bold-2b"/>
     <use xlink:href="#MicrosoftYaHei-Bold-37" transform="translate(76.123047 0)"/>
     <use xlink:href="#MicrosoftYaHei-Bold-2e" transform="translate(137.792969 0)"/>
     <use xlink:href="#MicrosoftYaHei-Bold-30" transform="translate(166.357422 0)"/>
     <use xlink:href="#MicrosoftYaHei-Bold-25" transform="translate(228.027344 0)"/>
    </g>
   </g>
   <g id="text_17">
    <!-- +5.2% -->
    <g style="fill: #1e293b" transform="translate(131.44625 126.409568) scale(0.09 -0.09)">
     <use xlink:href="#MicrosoftYaHei-Bold-2b"/>
     <use xlink:href="#MicrosoftYaHei-Bold-35" transform="translate(76.123047 0)"/>
     <use xlink:href="#MicrosoftYaHei-Bold-2e" transform="translate(137.792969 0)"/>
     <use xlink:href="#MicrosoftYaHei-Bold-32" transform="translate(166.357422 0)"/>
     <use xlink:href="#MicrosoftYaHei-Bold-25" transform="translate(228.027344 0)"/>
    </g>
   </g>
   <g id="text_18">
    <!-- +5.0% -->
    <g style="fill: #1e293b" transform="translate(128.82275 97.201227) scale(0.09 -0.09)">
     <use xlink:href="#MicrosoftYaHei-Bold-2b"/>
     <use xlink:href="#MicrosoftYaHei-Bold-35" transform="translate(76.123047 0)"/>
     <use xlink:href="#MicrosoftYaHei-Bold-2e" transform="translate(137.792969 0)"/>
     <use xlink:href="#MicrosoftYaHei-Bold-30" transform="translate(166.357422 0)"/>
     <use xlink:href="#MicrosoftYaHei-Bold-25" transform="translate(228.027344 0)"/>
    </g>
   </g>
   <g id="text_19">
    <g id="patch_9">
     <path d="M 276.254 249.540362 
L 358.379 249.540362 
Q 361.379 249.540362 361.379 246.540362 
L 361.379 229.621769 
Q 361.379 226.621769 358.379 226.621769 
L 276.254 226.621769 
Q 273.254 226.621769 273.254 229.621769 
L 273.254 246.540362 
Q 273.254 249.540362 276.254 249.540362 
z
" style="fill: #f5f3ff; opacity: 0.9; stroke: #ddd6fe; stroke-width: 1.5; stroke-linejoin: miter"/>
    </g>
    <!-- 美光HBM产能全年售罄 -->
    <g style="fill: #1e293b" transform="translate(279.380562 235.617081) scale(0.075 -0.075)">
     <defs>
      <path id="MicrosoftYaHei-Bold-48" d="M 4684 0 
L 3653 0 
L 3653 1997 
L 1591 1997 
L 1591 0 
L 559 0 
L 559 4841 
L 1591 4841 
L 1591 2888 
L 3653 2888 
L 3653 4841 
L 4684 4841 
L 4684 0 
z
" transform="scale(0.015625)"/>
      <path id="MicrosoftYaHei-Bold-42" d="M 559 0 
L 559 4841 
L 2278 4841 
Q 3069 4841 3497 4541 
Q 3925 4241 3925 3709 
Q 3925 3316 3659 3019 
Q 3394 2722 2991 2609 
L 2991 2597 
Q 3497 2534 3808 2221 
Q 4119 1909 4119 1438 
Q 4119 778 3650 389 
Q 3181 0 2369 0 
L 559 0 
z
M 1591 4072 
L 1591 2875 
L 2081 2875 
Q 2434 2875 2637 3044 
Q 2841 3213 2841 3516 
Q 2841 4072 2028 4072 
L 1591 4072 
z
M 1591 2097 
L 1591 769 
L 2203 769 
Q 2594 769 2814 950 
Q 3034 1131 3034 1453 
Q 3034 1759 2815 1928 
Q 2597 2097 2194 2097 
L 1591 2097 
z
" transform="scale(0.015625)"/>
      <path id="MicrosoftYaHei-Bold-4d" d="M 4991 0 
L 4991 2938 
Q 4991 3344 5031 3959 
L 5006 3959 
Q 4913 3494 4856 3338 
L 3663 0 
L 2841 0 
L 1631 3306 
Q 1588 3425 1478 3959 
L 1450 3959 
Q 1491 3350 1491 2738 
L 1491 0 
L 559 0 
L 559 4841 
L 2059 4841 
L 3103 1916 
Q 3234 1553 3281 1234 
L 3303 1234 
Q 3400 1631 3503 1922 
L 4550 4841 
L 6009 4841 
L 6009 0 
L 4991 0 
z
" transform="scale(0.015625)"/>
      <path id="MicrosoftYaHei-Bold-4ea7" d="M 725 2766 
L 1925 2766 
Q 1666 3084 1313 3491 
L 1963 3878 
L 313 3878 
L 313 4666 
L 2806 4666 
Q 2706 4947 2600 5216 
L 3588 5366 
L 3766 4666 
L 6200 4666 
L 6200 3878 
L 4469 3878 
L 5269 3491 
L 4628 2766 
L 6094 2766 
L 6094 1978 
L 1550 1978 
L 1550 1828 
Q 1550 447 731 -878 
Q 500 -622 69 -234 
Q 694 803 725 1934 
L 725 2766 
z
M 2881 2959 
L 2569 2766 
L 3609 2766 
Q 3975 3269 4369 3878 
L 2106 3878 
L 2881 2959 
z
" transform="scale(0.015625)"/>
      <path id="MicrosoftYaHei-Bold-80fd" d="M 2644 4797 
Q 3100 4172 3569 3447 
Q 3188 3222 2906 3066 
L 2731 3369 
L 319 3197 
L 100 3897 
Q 519 4116 1331 5353 
L 2125 5053 
L 1213 3947 
L 2353 3994 
Q 2200 4238 2044 4472 
L 2644 4797 
z
M 5513 3916 
Q 5981 3697 6288 3597 
Q 6200 3228 6114 2942 
Q 6028 2656 5798 2520 
Q 5569 2384 5200 2384 
L 4556 2384 
Q 3594 2384 3588 3322 
L 3588 5291 
L 4381 5291 
L 4381 4347 
Q 5153 4700 5681 5003 
L 6231 4366 
Q 5553 4056 4381 3616 
L 4381 3422 
Q 4381 3072 4800 3072 
L 5000 3072 
Q 5341 3072 5392 3269 
Q 5444 3466 5513 3916 
z
M 1213 -797 
L 431 -797 
L 431 2978 
L 3106 2978 
L 3106 41 
Q 3106 -325 2972 -525 
Q 2838 -725 2566 -759 
Q 2294 -794 1681 -784 
Q 1594 -422 1481 -41 
Q 1791 -59 1969 -59 
Q 2213 -59 2269 28 
Q 2325 116 2325 228 
L 2325 378 
L 1213 378 
L 1213 -797 
z
M 2325 2303 
L 1213 2303 
L 1213 1947 
L 2325 1947 
L 2325 2303 
z
M 1213 984 
L 2325 984 
L 2325 1341 
L 1213 1341 
L 1213 984 
z
M 5531 953 
Q 5913 797 6313 647 
Q 6194 -78 6081 -287 
Q 5969 -497 5750 -605 
Q 5531 -713 5206 -716 
L 4550 -716 
Q 3588 -716 3588 228 
L 3588 2216 
L 4381 2216 
L 4381 1438 
Q 5072 1781 5675 2147 
L 6225 1491 
Q 5372 1084 4381 672 
L 4381 353 
Q 4381 -28 4738 -28 
L 5000 -28 
Q 5275 -28 5365 90 
Q 5456 209 5531 953 
z
" transform="scale(0.015625)"/>
      <path id="MicrosoftYaHei-Bold-5168" d="M 369 184 
L 2731 184 
L 2731 934 
L 869 934 
L 869 1734 
L 2731 1734 
L 2731 2366 
L 1525 2366 
L 1525 2859 
Q 1113 2566 644 2284 
Q 463 2541 88 3016 
Q 2088 4091 2800 5316 
L 3894 5316 
L 3731 5078 
Q 4538 3922 6313 3091 
Q 5981 2678 5750 2353 
Q 5281 2603 4875 2878 
L 4875 2366 
L 3663 2366 
L 3663 1734 
L 5544 1734 
L 5544 934 
L 3663 934 
L 3663 184 
L 6031 184 
L 6031 -616 
L 369 -616 
L 369 184 
z
M 3200 4416 
Q 2688 3766 1925 3166 
L 4475 3166 
Q 3725 3741 3200 4416 
z
" transform="scale(0.015625)"/>
      <path id="MicrosoftYaHei-Bold-5e74" d="M 5819 3059 
L 5819 2266 
L 4050 2266 
L 4050 1284 
L 6244 1284 
L 6244 491 
L 4050 491 
L 4050 -828 
L 3138 -828 
L 3138 491 
L 175 491 
L 175 1284 
L 1050 1284 
L 1050 2813 
Q 881 2634 700 2466 
Q 463 2822 138 3266 
Q 1088 4047 1600 5353 
L 2569 5209 
Q 2459 4938 2334 4678 
L 6056 4678 
L 6056 3884 
L 4050 3884 
L 4050 3059 
L 5819 3059 
z
M 1272 3059 
L 3138 3059 
L 3138 3884 
L 1888 3884 
Q 1606 3450 1272 3059 
z
M 1925 1284 
L 3138 1284 
L 3138 2266 
L 1925 2266 
L 1925 1284 
z
" transform="scale(0.015625)"/>
      <path id="MicrosoftYaHei-Bold-552e" d="M 3744 5378 
Q 3913 5053 4075 4697 
L 5963 4697 
L 5963 4141 
L 3931 4141 
L 3931 3797 
L 5738 3797 
L 5738 3278 
L 3931 3278 
L 3931 2934 
L 5738 2934 
L 5738 2416 
L 3931 2416 
L 3931 2066 
L 6050 2066 
L 6050 1497 
L 1613 1497 
L 1613 1328 
L 788 1328 
L 788 3059 
Q 613 2859 431 2678 
Q 269 3203 81 3616 
Q 831 4347 1325 5309 
L 2194 5116 
Q 2081 4903 1963 4697 
L 3113 4697 
Q 3000 4947 2869 5209 
L 3744 5378 
z
M 813 -828 
L 813 1216 
L 5650 1216 
L 5650 -828 
L 4750 -828 
L 4750 -584 
L 1713 -584 
L 1713 -828 
L 813 -828 
z
M 4750 559 
L 1713 559 
L 1713 72 
L 4750 72 
L 4750 559 
z
M 1613 2066 
L 3106 2066 
L 3106 2416 
L 1613 2416 
L 1613 2066 
z
M 1613 2934 
L 3106 2934 
L 3106 3278 
L 1613 3278 
L 1613 2934 
z
M 1613 4141 
L 1613 3797 
L 3106 3797 
L 3106 4141 
L 1613 4141 
z
" transform="scale(0.015625)"/>
      <path id="MicrosoftYaHei-Bold-7f44" d="M 3450 3278 
L 3450 3834 
L 3663 3834 
Q 3506 4009 3319 4191 
Q 3756 4422 3756 4822 
L 3756 5116 
L 5713 5116 
L 5713 4641 
Q 5713 4484 5906 4484 
L 6338 4484 
Q 6256 4197 6219 3997 
L 5438 3997 
Q 5013 3997 5000 4353 
L 5000 4534 
L 4369 4534 
Q 4369 4153 3963 3834 
L 6019 3834 
L 6019 3278 
Q 5725 2866 5350 2572 
Q 5831 2434 6363 2459 
L 6094 1828 
Q 5288 1909 4694 2178 
Q 4131 1922 3431 1847 
Q 3369 2016 3269 2216 
L 3269 2172 
L 1000 2172 
Q 875 1722 563 1328 
Q 281 1641 50 1834 
Q 463 2291 469 2934 
L 469 3541 
L 3269 3541 
L 3269 2491 
Q 3681 2509 4031 2591 
Q 3744 2828 3544 3141 
L 3694 3278 
L 3450 3278 
z
M 150 966 
L 1156 966 
Q 919 1147 656 1322 
Q 1331 1791 1625 2141 
L 2388 2022 
Q 2281 1897 2156 1766 
L 5400 1766 
L 5400 1253 
L 3613 1253 
L 3613 966 
L 6275 966 
L 6275 391 
L 3613 391 
L 3613 -122 
L 4806 -122 
L 4806 241 
L 5631 241 
L 5631 -797 
L 4806 -797 
L 4806 -647 
L 750 -647 
L 750 241 
L 1581 241 
L 1581 -122 
L 2775 -122 
L 2775 391 
L 150 391 
L 150 966 
z
M 413 4253 
L 1463 4253 
L 1463 4491 
L 163 4491 
L 163 5022 
L 1463 5022 
L 1463 5334 
L 2250 5334 
L 2250 5022 
L 3481 5022 
L 3481 4491 
L 2250 4491 
L 2250 4253 
L 3263 4253 
L 3263 3772 
L 413 3772 
L 413 4253 
z
M 1194 966 
L 2775 966 
L 2775 1253 
L 1575 1253 
Q 1400 1109 1194 966 
z
M 5313 3278 
L 4150 3278 
Q 4431 3016 4738 2841 
Q 5069 3016 5313 3278 
z
M 1069 2672 
L 1519 2672 
L 1519 3041 
L 1088 3041 
Q 1081 2847 1069 2672 
z
M 2631 2672 
L 2631 3041 
L 2194 3041 
L 2194 2672 
L 2631 2672 
z
" transform="scale(0.015625)"/>
     </defs>
     <use xlink:href="#MicrosoftYaHei-Bold-7f8e"/>
     <use xlink:href="#MicrosoftYaHei-Bold-5149" transform="translate(100 0)"/>
     <use xlink:href="#MicrosoftYaHei-Bold-48" transform="translate(200 0)"/>
     <use xlink:href="#MicrosoftYaHei-Bold-42" transform="translate(282.128906 0)"/>
     <use xlink:href="#MicrosoftYaHei-Bold-4d" transform="translate(350.488281 0)"/>
     <use xlink:href="#MicrosoftYaHei-Bold-4ea7" transform="translate(453.320312 0)"/>
     <use xlink:href="#MicrosoftYaHei-Bold-80fd" transform="translate(553.320312 0)"/>
     <use xlink:href="#MicrosoftYaHei-Bold-5168" transform="translate(653.320312 0)"/>
     <use xlink:href="#MicrosoftYaHei-Bold-5e74" transform="translate(753.320312 0)"/>
     <use xlink:href="#MicrosoftYaHei-Bold-552e" transform="translate(853.320312 0)"/>
     <use xlink:href="#MicrosoftYaHei-Bold-7f44" transform="translate(953.320312 0)"/>
    </g>
    <!-- 瑞银目标价 $535→$1,625 -->
    <g style="fill: #1e293b" transform="translate(276.254 244.675909) scale(0.075 -0.075)">
     <defs>
      <path id="MicrosoftYaHei-Bold-745e" d="M 2338 3541 
L 2338 4966 
L 3125 4966 
L 3125 4266 
L 3744 4266 
L 3744 5359 
L 4563 5359 
L 4563 4266 
L 5188 4266 
L 5188 4966 
L 5975 4966 
L 5975 3541 
L 2338 3541 
z
M 150 2878 
L 731 2878 
L 731 4128 
L 106 4128 
L 106 4928 
L 2088 4928 
L 2088 4128 
L 1544 4128 
L 1544 2878 
L 2013 2878 
L 2013 2091 
L 1544 2091 
L 1544 725 
L 2125 841 
Q 2106 522 2094 3 
Q 1531 -103 225 -391 
L 88 459 
L 731 572 
L 731 2091 
L 150 2091 
L 150 2878 
z
M 2175 3184 
L 6256 3184 
L 6256 2447 
L 4413 2447 
L 4313 2047 
L 6106 2047 
L 6106 -291 
Q 6106 -556 5962 -689 
Q 5819 -822 5537 -822 
Q 5256 -822 4888 -816 
L 4847 -503 
L 4356 -503 
L 4356 1309 
L 3994 1309 
L 3994 -503 
L 3375 -503 
L 3375 1309 
L 3013 1309 
L 3013 -834 
L 2263 -834 
L 2263 2047 
L 3506 2047 
L 3591 2447 
L 2175 2447 
L 2175 3184 
z
M 5200 -141 
Q 5356 -122 5363 66 
L 5363 1309 
L 4975 1309 
L 4975 -125 
Q 5094 -138 5200 -141 
z
" transform="scale(0.015625)"/>
      <path id="MicrosoftYaHei-Bold-94f6" d="M 2363 3872 
L 1197 3872 
Q 1100 3634 994 3416 
L 2163 3416 
L 2163 2709 
L 1656 2709 
L 1656 2078 
L 2338 2078 
L 2338 1372 
L 1656 1372 
L 1656 459 
Q 1931 622 2213 797 
Q 2225 403 2281 -28 
Q 1234 -688 1106 -847 
L 656 -228 
Q 844 9 844 347 
L 844 1372 
L 144 1372 
L 144 2078 
L 844 2078 
L 844 2709 
L 609 2709 
Q 481 2500 344 2309 
Q 219 2884 100 3309 
Q 638 4297 863 5347 
Q 1644 5184 1650 5184 
Q 1559 4869 1459 4572 
L 2363 4572 
L 2363 3872 
z
M 5766 1816 
L 6250 1128 
L 5200 591 
Q 5666 209 6381 66 
Q 6113 -353 5888 -741 
Q 4969 -441 4450 150 
Q 4444 -94 4444 -247 
Q 3250 -628 2756 -916 
L 2375 -253 
Q 2556 3 2556 391 
L 2556 5078 
L 5963 5078 
L 5963 1816 
L 5766 1816 
z
M 5138 4303 
L 3381 4303 
L 3381 3797 
L 5138 3797 
L 5138 4303 
z
M 5138 2591 
L 5138 3097 
L 3381 3097 
L 3381 2591 
L 5138 2591 
z
M 3600 1816 
L 3381 1816 
L 3381 197 
Q 3766 338 4175 503 
Q 3803 1050 3600 1816 
z
M 5731 1816 
L 4422 1816 
Q 4547 1431 4731 1134 
Q 5231 1456 5731 1816 
z
" transform="scale(0.015625)"/>
      <path id="MicrosoftYaHei-Bold-76ee" d="M 738 -834 
L 738 4941 
L 5663 4941 
L 5663 -834 
L 4775 -834 
L 4775 -409 
L 1625 -409 
L 1625 -834 
L 738 -834 
z
M 4775 4116 
L 1625 4116 
L 1625 3428 
L 4775 3428 
L 4775 4116 
z
M 1625 1941 
L 4775 1941 
L 4775 2628 
L 1625 2628 
L 1625 1941 
z
M 1625 416 
L 4775 416 
L 4775 1141 
L 1625 1141 
L 1625 416 
z
" transform="scale(0.015625)"/>
      <path id="MicrosoftYaHei-Bold-6807" d="M 69 1703 
Q 550 2538 781 3391 
L 113 3391 
L 113 4209 
L 831 4209 
L 831 5303 
L 1600 5303 
L 1600 4209 
L 2200 4209 
L 2200 3391 
L 1600 3391 
L 1600 2669 
Q 2003 2444 2369 2228 
L 1981 1522 
Q 1850 1634 1600 1803 
L 1600 -841 
L 831 -841 
L 831 1734 
Q 594 1122 269 559 
Q 163 1209 69 1703 
z
M 2469 4978 
L 6000 4978 
L 6000 4166 
L 2469 4166 
L 2469 4978 
z
M 2219 3416 
L 6238 3416 
L 6238 2603 
L 4663 2603 
L 4663 -72 
Q 4663 -406 4478 -586 
Q 4294 -766 3948 -787 
Q 3603 -809 3006 -809 
Q 2919 -303 2838 59 
Q 3169 28 3431 28 
Q 3794 28 3794 366 
L 3794 2603 
L 2219 2603 
L 2219 3416 
z
M 2719 2209 
L 3463 1997 
Q 3081 784 2681 -97 
Q 2288 103 1944 203 
Q 2356 1047 2719 2209 
z
M 5575 2159 
Q 5969 1216 6331 178 
L 5563 -116 
Q 5200 991 4831 1891 
L 5575 2159 
z
" transform="scale(0.015625)"/>
      <path id="MicrosoftYaHei-Bold-4ef7" d="M 4525 2684 
L 5381 2684 
Q 4613 3391 4131 4291 
Q 3613 3428 2813 2678 
L 3625 2678 
Q 3625 2041 3613 1703 
Q 3613 -41 2606 -853 
Q 2375 -578 1938 -222 
Q 2688 484 2713 1591 
Q 2725 1903 2725 2591 
Q 2500 2384 2256 2191 
Q 2081 2553 1825 3028 
Q 2938 3884 3719 5184 
L 4744 5184 
L 4606 4984 
Q 5250 3859 6319 3147 
L 5900 2253 
Q 5650 2434 5431 2634 
L 5431 -766 
L 4525 -766 
L 4525 2684 
z
M 1394 5278 
L 2250 5022 
Q 2025 4322 1731 3666 
L 1731 -797 
L 875 -797 
L 875 2103 
Q 650 1753 400 1422 
Q 313 1809 88 2516 
Q 831 3547 1394 5278 
z
" transform="scale(0.015625)"/>
      <path id="MicrosoftYaHei-Bold-20" transform="scale(0.015625)"/>
      <path id="DejaVuSans-Bold-35" d="M 678 4666 
L 3669 4666 
L 3669 3781 
L 1638 3781 
L 1638 3059 
Q 1775 3097 1914 3117 
Q 2053 3138 2203 3138 
Q 3056 3138 3531 2711 
Q 4006 2284 4006 1522 
Q 4006 766 3489 337 
Q 2972 -91 2053 -91 
Q 1656 -91 1267 -14 
Q 878 63 494 219 
L 494 1166 
Q 875 947 1217 837 
Q 1559 728 1863 728 
Q 2300 728 2551 942 
Q 2803 1156 2803 1522 
Q 2803 1891 2551 2103 
Q 2300 2316 1863 2316 
Q 1603 2316 1309 2248 
Q 1016 2181 678 2041 
L 678 4666 
z
" transform="scale(0.015625)"/>
      <path id="DejaVuSans-Bold-33" d="M 2981 2516 
Q 3453 2394 3698 2092 
Q 3944 1791 3944 1325 
Q 3944 631 3412 270 
Q 2881 -91 1863 -91 
Q 1503 -91 1142 -33 
Q 781 25 428 141 
L 428 1069 
Q 766 900 1098 814 
Q 1431 728 1753 728 
Q 2231 728 2486 893 
Q 2741 1059 2741 1369 
Q 2741 1688 2480 1852 
Q 2219 2016 1709 2016 
L 1228 2016 
L 1228 2791 
L 1734 2791 
Q 2188 2791 2409 2933 
Q 2631 3075 2631 3366 
Q 2631 3634 2415 3781 
Q 2200 3928 1806 3928 
Q 1516 3928 1219 3862 
Q 922 3797 628 3669 
L 628 4550 
Q 984 4650 1334 4700 
Q 1684 4750 2022 4750 
Q 2931 4750 3382 4451 
Q 3834 4153 3834 3553 
Q 3834 3144 3618 2883 
Q 3403 2622 2981 2516 
z
" transform="scale(0.015625)"/>
      <path id="DejaVuSans-Bold-2192" d="M 5050 2225 
L 5050 1788 
L 3822 559 
L 3369 1013 
L 3988 1631 
L 366 1631 
L 366 2381 
L 3988 2381 
L 3369 3000 
L 3822 3453 
L 5050 2225 
z
" transform="scale(0.015625)"/>
      <path id="MicrosoftYaHei-Bold-2c" d="M 1419 841 
L 916 -859 
L 134 -859 
L 484 841 
L 1419 841 
z
" transform="scale(0.015625)"/>
      <path id="MicrosoftYaHei-Bold-36" d="M 3378 3938 
Q 3009 4147 2575 4147 
Q 2016 4147 1680 3708 
Q 1344 3269 1344 2572 
L 1363 2572 
Q 1709 3103 2391 3103 
Q 3000 3103 3358 2686 
Q 3716 2269 3716 1600 
Q 3716 869 3250 392 
Q 2784 -84 2059 -84 
Q 1228 -84 786 516 
Q 344 1116 344 2159 
Q 344 3388 917 4155 
Q 1491 4922 2513 4922 
Q 3063 4922 3378 4791 
L 3378 3938 
z
M 1378 1591 
Q 1378 1216 1565 953 
Q 1753 691 2059 691 
Q 2369 691 2547 931 
Q 2725 1172 2725 1534 
Q 2725 2350 2053 2350 
Q 1750 2350 1564 2134 
Q 1378 1919 1378 1591 
z
" transform="scale(0.015625)"/>
     </defs>
     <use xlink:href="#MicrosoftYaHei-Bold-745e" transform="translate(0 0.265625)"/>
     <use xlink:href="#MicrosoftYaHei-Bold-94f6" transform="translate(100 0.265625)"/>
     <use xlink:href="#MicrosoftYaHei-Bold-76ee" transform="translate(200 0.265625)"/>
     <use xlink:href="#MicrosoftYaHei-Bold-6807" transform="translate(300 0.265625)"/>
     <use xlink:href="#MicrosoftYaHei-Bold-4ef7" transform="translate(400 0.265625)"/>
     <use xlink:href="#MicrosoftYaHei-Bold-20" transform="translate(500 0.265625)"/>
     <use xlink:href="#DejaVuSans-Bold-35" transform="translate(529.785156 0.265625)"/>
     <use xlink:href="#DejaVuSans-Bold-33" transform="translate(599.365234 0.265625)"/>
     <use xlink:href="#DejaVuSans-Bold-35" transform="translate(668.945312 0.265625)"/>
     <use xlink:href="#DejaVuSans-Bold-2192" transform="translate(738.525391 0.265625)"/>
     <use xlink:href="#MicrosoftYaHei-Bold-31" transform="translate(822.314453 0.265625)"/>
     <use xlink:href="#MicrosoftYaHei-Bold-2c" transform="translate(883.984375 0.265625)"/>
     <use xlink:href="#MicrosoftYaHei-Bold-36" transform="translate(912.548828 0.265625)"/>
     <use xlink:href="#MicrosoftYaHei-Bold-32" transform="translate(974.21875 0.265625)"/>
     <use xlink:href="#MicrosoftYaHei-Bold-35" transform="translate(1033.138672 0.265625)"/>
    </g>
   </g>
  </g>
  <g id="text_20">
   <!-- 全球半导体板块引爆 -->
   <g style="fill: #1e293b" transform="translate(59.3 21.99125) scale(0.14 -0.14)">
    <defs>
     <path id="MicrosoftYaHei-Bold-7403" d="M 5231 5322 
Q 5625 5034 6056 4634 
L 5728 4291 
L 6206 4291 
L 6206 3528 
L 4650 3528 
L 4650 3109 
Q 4772 2775 4916 2463 
Q 5331 2913 5638 3316 
L 6319 2797 
Q 5853 2294 5288 1772 
Q 5734 1050 6338 509 
Q 6063 91 5850 -341 
Q 5109 447 4650 1356 
L 4650 3 
Q 4650 -369 4484 -564 
Q 4319 -759 3964 -784 
Q 3609 -809 3006 -809 
Q 2931 -259 2838 41 
Q 3247 3 3441 3 
Q 3838 3 3825 428 
L 3825 1041 
Q 3231 641 2563 209 
L 2194 1053 
Q 2844 1403 3825 2025 
L 3825 3528 
L 2369 3528 
L 2369 4291 
L 3825 4291 
L 3825 5316 
L 4650 5316 
L 4650 4291 
L 5384 4291 
Q 5088 4575 4763 4841 
L 5231 5322 
z
M 250 -459 
L 75 428 
L 813 578 
L 813 2097 
L 206 2097 
L 206 2884 
L 813 2884 
L 813 4141 
L 150 4141 
L 150 4941 
L 2263 4941 
L 2263 4141 
L 1625 4141 
L 1625 2884 
L 2163 2884 
L 2163 2097 
L 1625 2097 
L 1625 750 
L 2256 884 
Q 2250 422 2269 41 
Q 1244 -178 250 -459 
z
M 2919 3322 
Q 3244 2872 3631 2203 
L 2931 1778 
Q 2588 2459 2269 2928 
L 2919 3322 
z
" transform="scale(0.015625)"/>
     <path id="MicrosoftYaHei-Bold-677f" d="M 94 1559 
Q 653 2478 878 3297 
L 150 3297 
L 150 4116 
L 888 4116 
L 888 5272 
L 1700 5272 
L 1700 4116 
L 2363 4116 
L 2363 3297 
L 1700 3297 
L 1700 2734 
Q 2078 2544 2494 2309 
L 2100 1597 
Q 1916 1722 1700 1847 
L 1700 -828 
L 888 -828 
L 888 1569 
Q 650 1006 319 459 
Q 206 1066 94 1559 
z
M 5963 5191 
L 6238 4353 
Q 5231 4159 3325 4047 
L 3325 3453 
L 6056 3453 
L 6056 2653 
Q 5763 1528 5175 691 
Q 5663 250 6319 72 
Q 6031 -334 5756 -872 
Q 5100 -509 4609 16 
Q 4088 -500 3413 -866 
Q 3175 -428 2931 -66 
Q 3597 259 4072 713 
Q 3688 1328 3456 2103 
L 4063 2653 
L 3325 2653 
L 3325 2128 
Q 3325 359 2375 -872 
Q 2069 -484 1744 -159 
Q 2513 766 2513 2472 
L 2513 4859 
Q 4756 4966 5963 5191 
z
M 4619 1359 
Q 4997 1934 5156 2653 
L 4069 2653 
Q 4278 1903 4619 1359 
z
" transform="scale(0.015625)"/>
     <path id="MicrosoftYaHei-Bold-5757" d="M 338 -141 
L 63 697 
Q 450 800 825 909 
L 825 2984 
L 175 2984 
L 175 3816 
L 825 3816 
L 825 5328 
L 1656 5328 
L 1656 3816 
L 2294 3816 
L 2294 2984 
L 1656 2984 
L 1656 1156 
L 2288 1359 
Q 2306 947 2369 547 
Q 1338 209 338 -141 
z
M 2075 2341 
L 3375 2341 
Q 3419 2816 3444 3572 
L 2450 3572 
L 2450 4366 
L 3459 4366 
L 3469 5291 
L 4281 5291 
L 4272 4366 
L 5800 4366 
L 5800 2341 
L 6238 2341 
L 6238 1547 
L 4478 1547 
Q 5016 425 6238 -34 
Q 6031 -341 5731 -834 
Q 4469 -338 3903 1116 
Q 3544 6 2106 -903 
Q 1831 -497 1531 -103 
Q 2906 541 3234 1547 
L 2075 1547 
L 2075 2341 
z
M 5000 3572 
L 4253 3572 
Q 4231 2803 4194 2341 
L 5000 2341 
L 5000 3572 
z
" transform="scale(0.015625)"/>
     <path id="MicrosoftYaHei-Bold-5f15" d="M 4769 5209 
L 5688 5209 
L 5688 -778 
L 4769 -778 
L 4769 5209 
z
M 1350 1991 
L 3700 1991 
L 3597 375 
Q 3566 -47 3402 -311 
Q 3238 -575 2947 -676 
Q 2656 -778 1206 -778 
Q 1094 -303 950 128 
Q 1425 103 1897 103 
Q 2278 103 2417 161 
Q 2556 219 2603 356 
Q 2650 494 2694 1184 
L 356 1184 
L 563 3484 
L 2763 3484 
L 2763 4197 
L 381 4197 
L 381 5003 
L 3681 5003 
L 3681 2678 
L 1400 2678 
L 1350 1991 
z
" transform="scale(0.015625)"/>
     <path id="MicrosoftYaHei-Bold-7206" d="M 1906 4266 
L 2206 3956 
L 2206 5116 
L 5888 5116 
L 5888 3159 
L 5250 3159 
L 5250 2859 
L 6038 2859 
L 6038 2322 
L 5250 2322 
L 5250 2022 
L 6250 2022 
L 6250 1484 
L 5203 1484 
Q 5703 1034 6375 853 
Q 6188 572 5969 203 
Q 5550 419 5216 700 
Q 5069 588 4909 475 
L 6106 -141 
L 5744 -722 
Q 5175 -372 4444 41 
L 4753 497 
L 4456 897 
Q 4641 1016 4791 1119 
Q 4644 1294 4519 1484 
L 3553 1484 
Q 3438 1334 3313 1197 
Q 3516 1072 3738 928 
L 3478 556 
Q 3581 297 3688 78 
L 3034 -263 
Q 3331 -284 3513 -284 
Q 3781 -284 3781 -3 
L 3781 1322 
L 4431 1322 
L 4431 3 
Q 4431 -372 4312 -564 
Q 4194 -756 3997 -806 
Q 3800 -856 3113 -847 
Q 3053 -534 2984 -291 
L 2219 -697 
L 1938 -66 
Q 2541 175 3263 503 
L 2900 778 
Q 2519 428 2063 147 
L 1947 328 
L 1675 16 
Q 1497 369 1331 678 
Q 1081 -225 594 -872 
Q 400 -597 63 -253 
Q 1013 1003 925 3416 
L 925 5284 
L 1606 5284 
L 1606 3806 
Q 1791 4075 1906 4266 
z
M 5200 4622 
L 2894 4622 
L 2894 4353 
L 5200 4353 
L 5200 4622 
z
M 5200 3653 
L 5200 3922 
L 2894 3922 
L 2894 3653 
L 5200 3653 
z
M 1888 2022 
L 2856 2022 
L 2856 2322 
L 2088 2322 
L 2088 2859 
L 2856 2859 
L 2856 3159 
L 2206 3159 
L 2206 3525 
L 1606 2869 
Q 1594 2078 1519 1591 
L 2025 888 
Q 2456 1138 2831 1484 
L 1888 1484 
L 1888 2022 
z
M 3544 2859 
L 4563 2859 
L 4563 3159 
L 3544 3159 
L 3544 2859 
z
M 3544 2022 
L 4563 2022 
L 4563 2322 
L 3544 2322 
L 3544 2022 
z
M 644 4178 
L 825 2216 
L 300 2147 
Q 194 3334 94 4097 
L 644 4178 
z
" transform="scale(0.015625)"/>
    </defs>
    <use xlink:href="#MicrosoftYaHei-Bold-5168"/>
    <use xlink:href="#MicrosoftYaHei-Bold-7403" transform="translate(100 0)"/>
    <use xlink:href="#MicrosoftYaHei-Bold-534a" transform="translate(200 0)"/>
    <use xlink:href="#MicrosoftYaHei-Bold-5bfc" transform="translate(300 0)"/>
    <use xlink:href="#MicrosoftYaHei-Bold-4f53" transform="translate(400 0)"/>
    <use xlink:href="#MicrosoftYaHei-Bold-677f" transform="translate(500 0)"/>
    <use xlink:href="#MicrosoftYaHei-Bold-5757" transform="translate(600 0)"/>
    <use xlink:href="#MicrosoftYaHei-Bold-5f15" transform="translate(700 0)"/>
    <use xlink:href="#MicrosoftYaHei-Bold-7206" transform="translate(800 0)"/>
   </g>
  </g>
  <g id="text_21">
   <!-- 2026年5月26-27日 · 美光HBM产能全年售罄 -->
   <g style="fill: #64748b" transform="translate(59.3 43.609937) scale(0.09 -0.09)">
    <defs>
     <path id="MicrosoftYaHei-32" d="M 2666 3572 
Q 2666 3963 2419 4186 
Q 2172 4409 1747 4409 
Q 1447 4409 1140 4256 
Q 834 4103 569 3819 
L 569 4413 
Q 806 4659 1107 4790 
Q 1409 4922 1816 4922 
Q 2472 4922 2872 4570 
Q 3272 4219 3272 3619 
Q 3272 3084 3026 2693 
Q 2781 2303 2188 1894 
Q 1581 1475 1376 1294 
Q 1172 1113 1090 947 
Q 1009 781 1009 544 
L 3416 544 
L 3416 0 
L 372 0 
L 372 241 
Q 372 659 486 951 
Q 600 1244 862 1520 
Q 1125 1797 1681 2184 
Q 2250 2584 2458 2886 
Q 2666 3188 2666 3572 
z
" transform="scale(0.015625)"/>
     <path id="MicrosoftYaHei-30" d="M 284 2325 
Q 284 3606 709 4264 
Q 1134 4922 1941 4922 
Q 3478 4922 3478 2441 
Q 3478 1216 3045 567 
Q 2613 -81 1831 -81 
Q 1094 -81 689 534 
Q 284 1150 284 2325 
z
M 909 2353 
Q 909 425 1888 425 
Q 2850 425 2850 2384 
Q 2850 4413 1906 4413 
Q 909 4413 909 2353 
z
" transform="scale(0.015625)"/>
     <path id="MicrosoftYaHei-36" d="M 3181 4219 
Q 2803 4413 2391 4413 
Q 1763 4413 1381 3866 
Q 1000 3319 994 2372 
L 1009 2372 
Q 1353 3038 2106 3038 
Q 2734 3038 3109 2628 
Q 3484 2219 3484 1541 
Q 3484 831 3051 375 
Q 2619 -81 1947 -81 
Q 1209 -81 789 495 
Q 369 1072 369 2131 
Q 369 3413 920 4167 
Q 1472 4922 2372 4922 
Q 2888 4922 3181 4781 
L 3181 4219 
z
M 1031 1584 
Q 1031 1106 1286 765 
Q 1541 425 1963 425 
Q 2363 425 2613 719 
Q 2863 1013 2863 1475 
Q 2863 1975 2627 2253 
Q 2391 2531 1956 2531 
Q 1544 2531 1287 2250 
Q 1031 1969 1031 1584 
z
" transform="scale(0.015625)"/>
     <path id="MicrosoftYaHei-5e74" d="M 119 1278 
L 1125 1278 
L 1125 3066 
L 3338 3066 
L 3338 4178 
L 1500 4178 
Q 1078 3419 556 2778 
Q 394 2953 169 3128 
Q 1056 4128 1500 5372 
L 2013 5228 
Q 1881 4919 1738 4628 
L 6038 4628 
L 6038 4178 
L 3844 4178 
L 3844 3066 
L 5931 3066 
L 5931 2628 
L 3844 2628 
L 3844 1278 
L 6319 1278 
L 6319 828 
L 3844 828 
L 3844 -859 
L 3338 -859 
L 3338 828 
L 119 828 
L 119 1278 
z
M 1619 1278 
L 3338 1278 
L 3338 2628 
L 1619 2628 
L 1619 1278 
z
" transform="scale(0.015625)"/>
     <path id="MicrosoftYaHei-35" d="M 3294 1494 
Q 3294 784 2823 350 
Q 2353 -84 1559 -84 
Q 878 -84 544 119 
L 544 744 
Q 1034 425 1544 425 
Q 2050 425 2361 704 
Q 2672 984 2672 1447 
Q 2672 1909 2348 2167 
Q 2025 2425 1434 2425 
Q 978 2425 613 2384 
L 791 4841 
L 3053 4841 
L 3053 4303 
L 1306 4303 
L 1206 2931 
L 1647 2950 
Q 2416 2950 2855 2567 
Q 3294 2184 3294 1494 
z
" transform="scale(0.015625)"/>
     <path id="MicrosoftYaHei-6708" d="M 1603 1284 
Q 1463 78 663 -897 
Q 463 -703 231 -522 
Q 838 134 1044 1041 
Q 1188 1709 1188 2891 
L 1188 5053 
L 5363 5053 
L 5363 178 
Q 5363 -747 4481 -747 
Q 4113 -747 3531 -734 
Q 3500 -509 3438 -209 
Q 4013 -247 4344 -247 
Q 4850 -247 4850 247 
L 4850 1284 
L 1603 1284 
z
M 1653 1741 
L 4850 1741 
L 4850 2941 
L 1700 2941 
Q 1700 2316 1653 1741 
z
M 1700 4584 
L 1700 3397 
L 4850 3397 
L 4850 4584 
L 1700 4584 
z
" transform="scale(0.015625)"/>
     <path id="MicrosoftYaHei-2d" d="M 2328 1681 
L 488 1681 
L 488 2153 
L 2328 2153 
L 2328 1681 
z
" transform="scale(0.015625)"/>
     <path id="MicrosoftYaHei-37" d="M 3422 4463 
Q 2659 3131 2223 1998 
Q 1788 866 1684 0 
L 1047 0 
Q 1163 853 1594 1947 
Q 2025 3041 2747 4300 
L 347 4300 
L 347 4841 
L 3422 4841 
L 3422 4463 
z
" transform="scale(0.015625)"/>
     <path id="MicrosoftYaHei-65e5" d="M 975 4909 
L 5431 4909 
L 5431 -766 
L 4900 -766 
L 4900 -322 
L 1506 -322 
L 1506 -766 
L 975 -766 
L 975 4909 
z
M 1506 2103 
L 1506 134 
L 4900 134 
L 4900 2103 
L 1506 2103 
z
M 1506 4441 
L 1506 2572 
L 4900 2572 
L 4900 4441 
L 1506 4441 
z
" transform="scale(0.015625)"/>
     <path id="MicrosoftYaHei-b7" d="M 372 2113 
Q 372 2278 490 2395 
Q 609 2513 775 2513 
Q 941 2513 1061 2397 
Q 1181 2281 1181 2113 
Q 1181 1950 1064 1831 
Q 947 1713 772 1713 
Q 600 1713 486 1831 
Q 372 1950 372 2113 
z
" transform="scale(0.015625)"/>
     <path id="MicrosoftYaHei-7f8e" d="M 150 2403 
L 2956 2403 
L 2956 2991 
L 663 2991 
L 663 3416 
L 2956 3416 
L 2956 3991 
L 288 3991 
L 288 4416 
L 2259 4416 
Q 1938 4694 1425 5084 
L 1713 5397 
Q 2256 5028 2619 4753 
L 2288 4416 
L 3950 4416 
L 3719 4678 
Q 4213 5022 4613 5372 
L 4981 5022 
Q 4581 4722 4116 4416 
L 6150 4416 
L 6150 3991 
L 3469 3991 
L 3469 3416 
L 5813 3416 
L 5813 2991 
L 3469 2991 
L 3469 2403 
L 6263 2403 
L 6263 1978 
L 150 1978 
L 150 2403 
z
M 6313 -303 
Q 6075 -622 5950 -822 
Q 3897 -419 3216 803 
Q 2606 -488 406 -872 
Q 281 -659 100 -397 
Q 2200 -106 2741 916 
L 238 916 
L 238 1341 
L 2913 1341 
Q 2975 1559 3013 1841 
L 3525 1841 
Q 3475 1566 3413 1341 
L 6200 1341 
L 6200 916 
L 3631 916 
Q 4363 -138 6313 -303 
z
" transform="scale(0.015625)"/>
     <path id="MicrosoftYaHei-5149" d="M 169 2691 
L 2931 2691 
L 2931 5309 
L 3444 5309 
L 3444 2691 
L 6256 2691 
L 6256 2228 
L 4206 2228 
L 4206 216 
Q 4206 -22 4269 -116 
Q 4356 -241 4638 -241 
L 5256 -241 
Q 5706 -241 5750 91 
Q 5794 428 5819 984 
Q 6056 884 6344 797 
Q 6288 153 6231 -122 
Q 6175 -441 5963 -559 
Q 5763 -678 5281 -678 
L 4538 -678 
Q 4056 -678 3863 -466 
Q 3700 -284 3700 141 
L 3700 2228 
L 2491 2228 
Q 2466 931 1988 266 
Q 1469 -459 369 -841 
Q 244 -647 50 -397 
Q 1150 -16 1569 603 
Q 1966 1134 1991 2228 
L 169 2228 
L 169 2691 
z
M 4094 3397 
Q 4813 4084 5369 4828 
L 5825 4503 
Q 5200 3766 4481 3059 
L 4094 3397 
z
M 619 4528 
L 1000 4828 
Q 1631 4134 2213 3434 
L 1756 3084 
Q 1188 3866 619 4528 
z
" transform="scale(0.015625)"/>
     <path id="MicrosoftYaHei-48" d="M 4325 0 
L 3700 0 
L 3700 2181 
L 1250 2181 
L 1250 0 
L 625 0 
L 625 4841 
L 1250 4841 
L 1250 2738 
L 3700 2738 
L 3700 4841 
L 4325 4841 
L 4325 0 
z
" transform="scale(0.015625)"/>
     <path id="MicrosoftYaHei-42" d="M 625 0 
L 625 4841 
L 2047 4841 
Q 2684 4841 3065 4536 
Q 3447 4231 3447 3728 
Q 3447 3328 3220 3022 
Q 2994 2716 2597 2588 
L 2597 2575 
Q 3091 2519 3386 2201 
Q 3681 1884 3681 1397 
Q 3681 772 3232 386 
Q 2784 0 2084 0 
L 625 0 
z
M 1250 4294 
L 1250 2778 
L 1819 2778 
Q 2272 2778 2530 2998 
Q 2788 3219 2788 3609 
Q 2788 4294 1875 4294 
L 1250 4294 
z
M 1250 2234 
L 1250 547 
L 2000 547 
Q 2491 547 2758 773 
Q 3025 1000 3025 1403 
Q 3025 2234 1897 2234 
L 1250 2234 
z
" transform="scale(0.015625)"/>
     <path id="MicrosoftYaHei-4d" d="M 5003 0 
L 5003 3206 
Q 5003 3603 5050 4159 
L 5034 4159 
Q 4953 3809 4891 3672 
L 3294 0 
L 2947 0 
L 1353 3644 
Q 1297 3769 1209 4159 
L 1191 4159 
Q 1222 3822 1222 3178 
L 1222 0 
L 625 0 
L 625 4841 
L 1472 4841 
L 2900 1522 
Q 3063 1141 3116 928 
L 3138 928 
Q 3300 1375 3366 1534 
L 4819 4841 
L 5625 4841 
L 5625 0 
L 5003 0 
z
" transform="scale(0.015625)"/>
     <path id="MicrosoftYaHei-4ea7" d="M 744 2809 
L 3700 2809 
Q 4122 3431 4456 4047 
L 4938 3741 
Q 4606 3275 4244 2809 
L 6094 2809 
L 6094 2372 
L 1250 2372 
L 1250 1934 
Q 1250 828 1081 284 
Q 906 -322 419 -853 
Q 256 -653 81 -428 
Q 450 -34 600 497 
Q 744 1016 744 1934 
L 744 2809 
z
M 231 4597 
L 3084 4597 
Q 2947 4853 2781 5122 
L 3244 5353 
Q 3447 5022 3659 4597 
L 6256 4597 
L 6256 4153 
L 231 4153 
L 231 4597 
z
M 1538 3797 
L 1950 4072 
Q 2338 3584 2638 3147 
L 2194 2841 
Q 1950 3253 1538 3797 
z
" transform="scale(0.015625)"/>
     <path id="MicrosoftYaHei-80fd" d="M 950 -759 
L 463 -759 
L 463 2928 
L 3000 2928 
L 3000 -28 
Q 3000 -703 2375 -703 
Q 2100 -709 1669 -709 
Q 1638 -516 1575 -234 
Q 1969 -266 2206 -266 
Q 2513 -266 2513 53 
L 2513 572 
L 950 572 
L 950 -759 
z
M 3606 2253 
L 4094 2253 
L 4094 1222 
Q 4981 1553 5950 2091 
L 6231 1659 
Q 5209 1122 4094 706 
L 4094 166 
Q 4094 -228 4400 -228 
L 5319 -228 
Q 5638 -228 5688 78 
Q 5731 353 5763 897 
Q 6000 803 6250 722 
Q 6200 172 6144 -109 
Q 6063 -659 5363 -659 
L 4319 -659 
Q 3606 -659 3606 72 
L 3606 2253 
z
M 3619 5303 
L 4106 5303 
L 4106 4231 
Q 4966 4572 5813 5053 
L 6094 4622 
Q 5119 4128 4106 3719 
L 4106 3359 
Q 4106 2941 4438 2941 
L 5231 2941 
Q 5625 2941 5675 3266 
Q 5719 3534 5750 4047 
Q 5988 3953 6238 3866 
Q 6188 3366 6131 3053 
Q 6038 2509 5288 2509 
L 4375 2509 
Q 3619 2509 3619 3259 
L 3619 5303 
z
M 2463 4772 
Q 3031 4034 3450 3353 
Q 3213 3191 3019 3066 
Q 2897 3281 2759 3506 
Q 1231 3394 313 3303 
L 113 3828 
Q 388 3978 719 4391 
Q 1063 4841 1394 5397 
L 1888 5216 
Q 1369 4466 794 3797 
Q 1731 3856 2497 3919 
Q 2300 4216 2075 4528 
L 2463 4772 
z
M 950 947 
L 2513 947 
L 2513 1553 
L 950 1553 
L 950 947 
z
M 2513 2528 
L 950 2528 
L 950 1928 
L 2513 1928 
L 2513 2528 
z
" transform="scale(0.015625)"/>
     <path id="MicrosoftYaHei-5168" d="M 369 -103 
L 2950 -103 
L 2950 984 
L 925 984 
L 925 1441 
L 2950 1441 
L 2950 2403 
L 1156 2403 
L 1156 2859 
L 5269 2859 
L 5269 2403 
L 3469 2403 
L 3469 1441 
L 5500 1441 
L 5500 984 
L 3469 984 
L 3469 -103 
L 6044 -103 
L 6044 -566 
L 369 -566 
L 369 -103 
z
M 3656 5234 
L 3531 5078 
Q 4581 3703 6319 3009 
Q 6125 2734 5988 2509 
Q 4338 3322 3219 4691 
Q 2263 3453 394 2428 
Q 269 2641 81 2897 
Q 2013 3866 3000 5234 
L 3656 5234 
z
" transform="scale(0.015625)"/>
     <path id="MicrosoftYaHei-552e" d="M 3100 5147 
L 3500 5384 
Q 3775 5028 3994 4703 
L 3756 4559 
L 6044 4559 
L 6044 4172 
L 3825 4172 
L 3825 3722 
L 5850 3722 
L 5850 3334 
L 3825 3334 
L 3825 2884 
L 5850 2884 
L 5850 2497 
L 3825 2497 
L 3825 2034 
L 6169 2034 
L 6169 1647 
L 1319 1647 
L 1319 1403 
L 856 1403 
L 856 3522 
Q 600 3222 331 2953 
Q 206 3147 38 3347 
Q 969 4216 1500 5341 
L 1950 5178 
Q 1775 4853 1594 4559 
L 3494 4559 
Q 3319 4847 3100 5147 
z
M 869 1159 
L 5594 1159 
L 5594 -853 
L 5131 -853 
L 5131 -534 
L 1331 -534 
L 1331 -853 
L 869 -853 
L 869 1159 
z
M 5131 759 
L 1331 759 
L 1331 -134 
L 5131 -134 
L 5131 759 
z
M 1319 2034 
L 3363 2034 
L 3363 2497 
L 1319 2497 
L 1319 2034 
z
M 1319 2884 
L 3363 2884 
L 3363 3334 
L 1319 3334 
L 1319 2884 
z
M 1319 3722 
L 3363 3722 
L 3363 4172 
L 1344 4172 
L 1319 4134 
L 1319 3722 
z
" transform="scale(0.015625)"/>
     <path id="MicrosoftYaHei-7f44" d="M 5050 284 
L 5494 284 
L 5494 -878 
L 5050 -878 
L 5050 -653 
L 975 -653 
L 975 284 
L 1419 284 
L 1419 -284 
L 3013 -284 
L 3013 441 
L 150 441 
L 150 809 
L 3013 809 
L 3013 1309 
L 1700 1309 
Q 1538 1103 1331 909 
Q 1188 1053 1013 1184 
Q 1450 1553 1694 2059 
L 2175 2059 
Q 2081 1859 1963 1672 
L 5331 1672 
L 5331 1309 
L 3456 1309 
L 3456 809 
L 6269 809 
L 6269 441 
L 3456 441 
L 3456 -284 
L 5050 -284 
L 5050 284 
z
M 400 1178 
Q 275 1309 94 1466 
Q 563 1928 563 2709 
L 563 3472 
L 3188 3472 
L 3188 2253 
L 925 2253 
Q 819 1597 400 1178 
z
M 3475 3278 
L 3475 3628 
L 5931 3628 
L 5931 3297 
Q 5613 2834 5100 2484 
Q 5625 2247 6325 2184 
Q 6206 1934 6138 1766 
Q 5294 1934 4719 2253 
Q 4150 1953 3400 1759 
Q 3325 1941 3194 2147 
Q 3844 2266 4350 2491 
Q 3919 2822 3694 3278 
L 3475 3278 
z
M 413 4159 
L 1650 4159 
L 1650 4553 
L 163 4553 
L 163 4897 
L 1650 4897 
L 1650 5316 
L 2075 5316 
L 2075 4897 
L 3481 4897 
L 3481 4553 
L 2075 4553 
L 2075 4159 
L 3263 4159 
L 3263 3816 
L 413 3816 
L 413 4159 
z
M 4238 4722 
L 4238 4603 
Q 4238 4034 3638 3691 
Q 3500 3841 3344 3991 
Q 3844 4228 3844 4641 
L 3844 5078 
L 5619 5078 
L 5619 4391 
Q 5619 4228 5794 4228 
L 6319 4228 
Q 6263 4041 6213 3859 
L 5631 3859 
Q 5225 3859 5225 4303 
L 5225 4722 
L 4238 4722 
z
M 5413 3278 
L 4113 3278 
Q 4369 2928 4725 2691 
Q 5131 2941 5413 3278 
z
M 2794 2591 
L 2794 3134 
L 2063 3134 
L 2063 2591 
L 2794 2591 
z
M 956 3134 
L 956 2591 
L 1681 2591 
L 1681 3134 
L 956 3134 
z
" transform="scale(0.015625)"/>
    </defs>
    <use xlink:href="#MicrosoftYaHei-32"/>
    <use xlink:href="#MicrosoftYaHei-30" transform="translate(58.642578 0)"/>
    <use xlink:href="#MicrosoftYaHei-32" transform="translate(117.285156 0)"/>
    <use xlink:href="#MicrosoftYaHei-36" transform="translate(175.927734 0)"/>
    <use xlink:href="#MicrosoftYaHei-5e74" transform="translate(234.570312 0)"/>
    <use xlink:href="#MicrosoftYaHei-35" transform="translate(334.570312 0)"/>
    <use xlink:href="#MicrosoftYaHei-6708" transform="translate(393.212891 0)"/>
    <use xlink:href="#MicrosoftYaHei-32" transform="translate(493.212891 0)"/>
    <use xlink:href="#MicrosoftYaHei-36" transform="translate(551.855469 0)"/>
    <use xlink:href="#MicrosoftYaHei-2d" transform="translate(610.498047 0)"/>
    <use xlink:href="#MicrosoftYaHei-32" transform="translate(653.759766 0)"/>
    <use xlink:href="#MicrosoftYaHei-37" transform="translate(712.402344 0)"/>
    <use xlink:href="#MicrosoftYaHei-65e5" transform="translate(771.044922 0)"/>
    <use xlink:href="#MicrosoftYaHei-20" transform="translate(871.044922 0)"/>
    <use xlink:href="#MicrosoftYaHei-b7" transform="translate(900.634766 0)"/>
    <use xlink:href="#MicrosoftYaHei-20" transform="translate(924.707031 0)"/>
    <use xlink:href="#MicrosoftYaHei-7f8e" transform="translate(954.296875 0)"/>
    <use xlink:href="#MicrosoftYaHei-5149" transform="translate(1054.296875 0)"/>
    <use xlink:href="#MicrosoftYaHei-48" transform="translate(1154.296875 0)"/>
    <use xlink:href="#MicrosoftYaHei-42" transform="translate(1231.640625 0)"/>
    <use xlink:href="#MicrosoftYaHei-4d" transform="translate(1294.384766 0)"/>
    <use xlink:href="#MicrosoftYaHei-4ea7" transform="translate(1392.089844 0)"/>
    <use xlink:href="#MicrosoftYaHei-80fd" transform="translate(1492.089844 0)"/>
    <use xlink:href="#MicrosoftYaHei-5168" transform="translate(1592.089844 0)"/>
    <use xlink:href="#MicrosoftYaHei-5e74" transform="translate(1692.089844 0)"/>
    <use xlink:href="#MicrosoftYaHei-552e" transform="translate(1792.089844 0)"/>
    <use xlink:href="#MicrosoftYaHei-7f44" transform="translate(1892.089844 0)"/>
   </g>
  </g>
  <g id="text_22">
   <!-- 来源: 各公司披露 / Bloomberg · 2026-05-27 -->
   <g style="fill: #94a3b8" transform="translate(59.3 268.690125) scale(0.065 -0.065)">
    <defs>
     <path id="MicrosoftYaHei-6765" d="M 6325 141 
Q 6119 -122 5975 -334 
Q 4344 403 3438 1550 
L 3438 -841 
L 2963 -841 
L 2963 1584 
Q 2050 516 413 -409 
Q 281 -222 75 22 
Q 1706 841 2806 1922 
L 181 1922 
L 181 2359 
L 2963 2359 
L 2963 4003 
L 550 4003 
L 550 4441 
L 2963 4441 
L 2963 5341 
L 3438 5341 
L 3438 4441 
L 5900 4441 
L 5900 4003 
L 3438 4003 
L 3438 2359 
L 6225 2359 
L 6225 1922 
L 3566 1922 
Q 4594 778 6325 141 
z
M 4056 2766 
Q 4631 3378 4950 3828 
L 5381 3497 
Q 4913 2941 4419 2453 
L 4056 2766 
z
M 1075 3509 
L 1438 3803 
Q 1900 3347 2313 2828 
L 1900 2484 
Q 1581 2922 1075 3509 
z
" transform="scale(0.015625)"/>
     <path id="MicrosoftYaHei-6e90" d="M 2931 3741 
L 3744 3741 
Q 3878 4094 4006 4478 
L 2425 4478 
L 2425 2678 
Q 2425 222 1463 -841 
Q 1313 -647 1100 -453 
Q 1963 509 1963 2672 
L 1963 4903 
L 6300 4903 
L 6300 4478 
L 4547 4478 
Q 4375 4103 4194 3741 
L 5844 3741 
L 5844 1178 
L 5394 1178 
L 5394 1341 
L 4588 1341 
L 4588 -128 
Q 4588 -797 3938 -797 
Q 3725 -797 3394 -791 
Q 3363 -603 3306 -359 
Q 3619 -384 3850 -384 
Q 4138 -384 4138 -84 
L 4138 1341 
L 3381 1341 
L 3381 1178 
L 2931 1178 
L 2931 3741 
z
M 831 1878 
Q 1056 1734 1275 1666 
Q 1019 603 700 -766 
L 219 -603 
Q 581 678 831 1878 
z
M 3381 1753 
L 5394 1753 
L 5394 2347 
L 3381 2347 
L 3381 1753 
z
M 5394 3328 
L 3381 3328 
L 3381 2747 
L 5394 2747 
L 5394 3328 
z
M 6288 -241 
L 5894 -541 
Q 5450 128 4931 759 
L 5294 1016 
Q 5863 353 6288 -241 
z
M 2363 -297 
Q 2894 272 3306 984 
L 3706 741 
Q 3231 -16 2731 -584 
L 2363 -297 
z
M 400 3622 
Q 888 3272 1500 2784 
Q 1281 2522 1144 2378 
Q 544 2909 88 3266 
L 400 3622 
z
M 669 5228 
Q 1163 4859 1688 4384 
Q 1469 4172 1313 4003 
Q 769 4541 350 4884 
L 669 5228 
z
" transform="scale(0.015625)"/>
     <path id="MicrosoftYaHei-3a" d="M 372 3134 
Q 372 3303 490 3415 
Q 609 3528 775 3528 
Q 944 3528 1062 3414 
Q 1181 3300 1181 3134 
Q 1181 2969 1065 2853 
Q 950 2738 772 2738 
Q 603 2738 487 2853 
Q 372 2969 372 3134 
z
M 372 322 
Q 372 491 487 606 
Q 603 722 775 722 
Q 950 722 1065 605 
Q 1181 488 1181 322 
Q 1181 159 1065 42 
Q 950 -75 772 -75 
Q 600 -75 486 42 
Q 372 159 372 322 
z
" transform="scale(0.015625)"/>
     <path id="MicrosoftYaHei-5404" d="M 1838 5366 
L 2325 5191 
Q 2191 4934 2038 4691 
L 5463 4691 
L 5463 4234 
Q 4819 3428 3806 2831 
Q 4881 2366 6375 2266 
Q 6169 1953 6025 1703 
Q 4388 1947 3272 2544 
Q 2022 1925 300 1578 
Q 169 1828 31 2059 
Q 1591 2303 2775 2844 
Q 2041 3347 1588 4038 
Q 1138 3444 569 2916 
Q 400 3122 225 3278 
Q 1288 4191 1838 5366 
z
M 1100 1666 
L 5363 1666 
L 5363 -803 
L 4875 -803 
L 4875 -441 
L 1588 -441 
L 1588 -803 
L 1100 -803 
L 1100 1666 
z
M 4875 1216 
L 1588 1216 
L 1588 -3 
L 4875 -3 
L 4875 1216 
z
M 4794 4241 
L 1988 4241 
Q 2494 3547 3275 3094 
Q 4153 3575 4794 4241 
z
" transform="scale(0.015625)"/>
     <path id="MicrosoftYaHei-516c" d="M 4144 1591 
Q 5044 422 5663 -534 
L 5188 -847 
Q 5013 -559 4816 -250 
Q 2753 -350 1463 -453 
Q 1225 -478 888 -559 
L 613 -28 
Q 894 84 1131 316 
Q 1863 1159 2719 2809 
L 3256 2566 
Q 2481 1234 1600 78 
Q 2891 119 4522 194 
Q 4166 734 3738 1334 
L 4144 1591 
z
M 3606 4953 
L 4069 5134 
Q 4675 3503 6325 2547 
Q 6156 2372 5938 2059 
Q 4213 3247 3606 4953 
z
M 75 2366 
Q 1469 3503 2156 5047 
L 2650 4841 
Q 1806 3084 475 1966 
Q 313 2172 75 2366 
z
" transform="scale(0.015625)"/>
     <path id="MicrosoftYaHei-53f8" d="M 800 2566 
L 4081 2566 
L 4081 353 
L 1294 353 
L 1294 -103 
L 800 -103 
L 800 2566 
z
M 538 4528 
L 538 4991 
L 5938 4991 
L 5938 128 
Q 5938 -759 5138 -759 
Q 4688 -759 3906 -753 
Q 3888 -541 3800 -216 
Q 4563 -259 4994 -259 
Q 5425 -259 5425 241 
L 5425 4528 
L 538 4528 
z
M 3588 803 
L 3588 2116 
L 1294 2116 
L 1294 803 
L 3588 803 
z
M 181 3766 
L 4944 3766 
L 4944 3303 
L 181 3303 
L 181 3766 
z
" transform="scale(0.015625)"/>
     <path id="MicrosoftYaHei-62ab" d="M 2331 4441 
L 4000 4441 
L 4000 5297 
L 4463 5297 
L 4463 4441 
L 6169 4441 
L 6169 3978 
L 5869 3134 
Q 5613 3209 5419 3253 
L 5681 3978 
L 4463 3978 
L 4463 2772 
L 5775 2772 
L 5775 2322 
Q 5344 1213 4681 513 
Q 5300 59 6306 -353 
Q 6138 -616 6006 -828 
Q 4997 -372 4306 169 
Q 3566 -422 2575 -859 
Q 2463 -672 2300 -434 
Q 3266 0 3928 503 
Q 3263 1200 3041 2316 
L 2794 2316 
L 2794 1991 
Q 2794 216 1794 -853 
Q 1613 -666 1425 -491 
Q 2331 384 2331 1997 
L 2331 4441 
z
M 88 1997 
Q 481 2113 919 2259 
L 919 3697 
L 144 3697 
L 144 4122 
L 919 4122 
L 919 5284 
L 1381 5284 
L 1381 4122 
L 2125 4122 
L 2125 3697 
L 1381 3697 
L 1381 2419 
Q 1716 2538 2075 2672 
Q 2081 2366 2088 2178 
Q 2025 2156 1381 1919 
L 1381 -109 
Q 1388 -753 794 -766 
Q 531 -778 219 -766 
Q 206 -672 144 -259 
Q 475 -297 681 -297 
Q 919 -297 919 -28 
L 919 1750 
Q 584 1628 156 1472 
L 88 1997 
z
M 5263 2316 
L 3513 2316 
Q 3709 1409 4306 825 
Q 4891 1406 5263 2316 
z
M 2794 2772 
L 4000 2772 
L 4000 3978 
L 2794 3978 
L 2794 2772 
z
" transform="scale(0.015625)"/>
     <path id="MicrosoftYaHei-9732" d="M 313 4372 
L 2969 4372 
L 2969 4753 
L 700 4753 
L 700 5103 
L 5700 5103 
L 5700 4753 
L 3431 4753 
L 3431 4372 
L 6088 4372 
L 6088 3253 
L 5638 3253 
L 5638 4022 
L 3431 4022 
L 3431 2903 
L 2969 2903 
L 2969 4022 
L 763 4022 
L 763 3266 
L 313 3266 
L 313 4372 
z
M 88 -228 
Q 278 -216 469 -203 
L 469 972 
L 869 972 
L 869 -175 
Q 1159 -153 1444 -131 
L 1444 1316 
L 988 1316 
L 988 1166 
L 588 1166 
L 588 2628 
L 2544 2628 
L 2544 1316 
L 1856 1316 
L 1856 859 
L 2594 859 
L 2594 522 
L 1856 522 
L 1856 -94 
Q 2294 -56 2725 -9 
Q 2700 -222 2700 -397 
Q 1294 -516 181 -647 
L 88 -228 
z
M 2650 1753 
Q 3238 2216 3475 2797 
L 3894 2797 
Q 3838 2656 3772 2522 
L 5694 2522 
L 5694 2184 
Q 5359 1756 4856 1450 
Q 5500 1241 6306 1228 
Q 6300 1222 6294 1203 
Q 6163 972 6106 803 
Q 5128 919 4425 1219 
Q 3731 903 2788 766 
Q 2731 934 2575 1153 
Q 3397 1216 4003 1428 
Q 3644 1638 3378 1909 
Q 3188 1669 2950 1447 
Q 2844 1572 2650 1753 
z
M 3106 709 
L 5706 709 
L 5706 -847 
L 5294 -847 
L 5294 -609 
L 3519 -609 
L 3519 -847 
L 3106 -847 
L 3106 709 
z
M 5294 359 
L 3519 359 
L 3519 -259 
L 5294 -259 
L 5294 359 
z
M 2144 1653 
L 2144 2291 
L 988 2291 
L 988 1653 
L 2144 1653 
z
M 5169 2184 
L 3600 2184 
Q 3966 1838 4438 1616 
Q 4878 1847 5169 2184 
z
M 1063 3203 
L 2663 3203 
L 2663 2891 
L 1063 2891 
L 1063 3203 
z
M 3738 3772 
L 5338 3772 
L 5338 3459 
L 3738 3459 
L 3738 3772 
z
M 3738 3203 
L 5338 3203 
L 5338 2891 
L 3738 2891 
L 3738 3203 
z
M 1063 3772 
L 2663 3772 
L 2663 3459 
L 1063 3459 
L 1063 3772 
z
" transform="scale(0.015625)"/>
     <path id="MicrosoftYaHei-2f" d="M 2791 4841 
L 469 -803 
L -103 -803 
L 2219 4841 
L 2791 4841 
z
" transform="scale(0.015625)"/>
     <path id="MicrosoftYaHei-6c" d="M 544 0 
L 544 5116 
L 1156 5116 
L 1156 0 
L 544 0 
z
" transform="scale(0.015625)"/>
     <path id="MicrosoftYaHei-6f" d="M 316 1691 
Q 316 2547 794 3042 
Q 1272 3538 2091 3538 
Q 2869 3538 3311 3061 
Q 3753 2584 3753 1744 
Q 3753 925 3281 422 
Q 2809 -81 2016 -81 
Q 1241 -81 778 406 
Q 316 894 316 1691 
z
M 941 1709 
Q 941 1113 1242 769 
Q 1544 425 2053 425 
Q 2578 425 2853 761 
Q 3128 1097 3128 1725 
Q 3128 2356 2853 2693 
Q 2578 3031 2053 3031 
Q 1538 3031 1239 2678 
Q 941 2325 941 1709 
z
" transform="scale(0.015625)"/>
     <path id="MicrosoftYaHei-6d" d="M 5522 0 
L 4909 0 
L 4909 1984 
Q 4909 2547 4734 2789 
Q 4559 3031 4159 3031 
Q 3822 3031 3581 2715 
Q 3341 2400 3341 1969 
L 3341 0 
L 2728 0 
L 2728 2047 
Q 2728 3031 1969 3031 
Q 1619 3031 1389 2731 
Q 1159 2431 1159 1966 
L 1159 0 
L 547 0 
L 547 3456 
L 1159 3456 
L 1159 2909 
L 1172 2909 
Q 1541 3538 2250 3538 
Q 2597 3538 2862 3347 
Q 3128 3156 3231 2831 
Q 3616 3538 4381 3538 
Q 5522 3538 5522 2131 
L 5522 0 
z
" transform="scale(0.015625)"/>
     <path id="MicrosoftYaHei-62" d="M 1159 488 
L 1159 0 
L 547 0 
L 547 5116 
L 1159 5116 
L 1159 2859 
L 1172 2859 
Q 1578 3538 2359 3538 
Q 3009 3538 3392 3080 
Q 3775 2622 3775 1828 
Q 3775 953 3345 436 
Q 2916 -81 2200 -81 
Q 1525 -81 1172 488 
L 1159 488 
z
M 1156 1422 
Q 1156 1003 1428 714 
Q 1700 425 2109 425 
Q 2597 425 2872 800 
Q 3147 1175 3147 1838 
Q 3147 2384 2890 2707 
Q 2634 3031 2191 3031 
Q 1741 3031 1448 2709 
Q 1156 2388 1156 1891 
L 1156 1422 
z
" transform="scale(0.015625)"/>
     <path id="MicrosoftYaHei-65" d="M 3363 1572 
L 944 1572 
Q 959 1019 1246 717 
Q 1534 416 2050 416 
Q 2631 416 3116 788 
L 3116 241 
Q 2659 -81 1906 -81 
Q 1156 -81 736 394 
Q 316 869 316 1713 
Q 316 2506 777 3022 
Q 1238 3538 1922 3538 
Q 2600 3538 2981 3102 
Q 3363 2666 3363 1881 
L 3363 1572 
z
M 2750 2063 
Q 2747 2531 2528 2787 
Q 2309 3044 1913 3044 
Q 1547 3044 1280 2772 
Q 1013 2500 944 2063 
L 2750 2063 
z
" transform="scale(0.015625)"/>
     <path id="MicrosoftYaHei-72" d="M 2400 2850 
Q 2247 2959 1978 2959 
Q 1622 2959 1390 2626 
Q 1159 2294 1159 1750 
L 1159 0 
L 547 0 
L 547 3456 
L 1159 3456 
L 1159 2753 
L 1172 2753 
Q 1434 3516 2078 3516 
Q 2288 3516 2400 3469 
L 2400 2850 
z
" transform="scale(0.015625)"/>
     <path id="MicrosoftYaHei-67" d="M 3547 291 
Q 3547 -1628 1684 -1628 
Q 1041 -1628 566 -1388 
L 566 -797 
Q 1144 -1119 1675 -1119 
Q 2934 -1119 2934 206 
L 2934 572 
L 2922 572 
Q 2528 -81 1747 -81 
Q 1097 -81 706 384 
Q 316 850 316 1619 
Q 316 2503 747 3020 
Q 1178 3538 1897 3538 
Q 2588 3538 2922 2988 
L 2934 2988 
L 2934 3456 
L 3547 3456 
L 3547 291 
z
M 2934 2056 
Q 2938 2456 2666 2743 
Q 2394 3031 1997 3031 
Q 1497 3031 1219 2664 
Q 941 2297 941 1656 
Q 941 1106 1209 765 
Q 1478 425 1922 425 
Q 2369 425 2653 750 
Q 2938 1075 2934 1575 
L 2934 2056 
z
" transform="scale(0.015625)"/>
    </defs>
    <use xlink:href="#MicrosoftYaHei-6765"/>
    <use xlink:href="#MicrosoftYaHei-6e90" transform="translate(100 0)"/>
    <use xlink:href="#MicrosoftYaHei-3a" transform="translate(200 0)"/>
    <use xlink:href="#MicrosoftYaHei-20" transform="translate(224.072266 0)"/>
    <use xlink:href="#MicrosoftYaHei-5404" transform="translate(253.662109 0)"/>
    <use xlink:href="#MicrosoftYaHei-516c" transform="translate(353.662109 0)"/>
    <use xlink:href="#MicrosoftYaHei-53f8" transform="translate(453.662109 0)"/>
    <use xlink:href="#MicrosoftYaHei-62ab" transform="translate(553.662109 0)"/>
    <use xlink:href="#MicrosoftYaHei-9732" transform="translate(653.662109 0)"/>
    <use xlink:href="#MicrosoftYaHei-20" transform="translate(753.662109 0)"/>
    <use xlink:href="#MicrosoftYaHei-2f" transform="translate(783.251953 0)"/>
    <use xlink:href="#MicrosoftYaHei-20" transform="translate(825.976562 0)"/>
    <use xlink:href="#MicrosoftYaHei-42" transform="translate(855.566406 0)"/>
    <use xlink:href="#MicrosoftYaHei-6c" transform="translate(918.310547 0)"/>
    <use xlink:href="#MicrosoftYaHei-6f" transform="translate(944.921875 0)"/>
    <use xlink:href="#MicrosoftYaHei-6f" transform="translate(1008.496094 0)"/>
    <use xlink:href="#MicrosoftYaHei-6d" transform="translate(1072.070312 0)"/>
    <use xlink:href="#MicrosoftYaHei-62" transform="translate(1165.771484 0)"/>
    <use xlink:href="#MicrosoftYaHei-65" transform="translate(1229.638672 0)"/>
    <use xlink:href="#MicrosoftYaHei-72" transform="translate(1286.376953 0)"/>
    <use xlink:href="#MicrosoftYaHei-67" transform="translate(1323.185547 0)"/>
    <use xlink:href="#MicrosoftYaHei-20" transform="translate(1387.150391 0)"/>
    <use xlink:href="#MicrosoftYaHei-b7" transform="translate(1416.740234 0)"/>
    <use xlink:href="#MicrosoftYaHei-20" transform="translate(1440.8125 0)"/>
    <use xlink:href="#MicrosoftYaHei-32" transform="translate(1470.402344 0)"/>
    <use xlink:href="#MicrosoftYaHei-30" transform="translate(1529.044922 0)"/>
    <use xlink:href="#MicrosoftYaHei-32" transform="translate(1587.6875 0)"/>
    <use xlink:href="#MicrosoftYaHei-36" transform="translate(1646.330078 0)"/>
    <use xlink:href="#MicrosoftYaHei-2d" transform="translate(1704.972656 0)"/>
    <use xlink:href="#MicrosoftYaHei-30" transform="translate(1748.234375 0)"/>
    <use xlink:href="#MicrosoftYaHei-35" transform="translate(1806.876953 0)"/>
    <use xlink:href="#MicrosoftYaHei-2d" transform="translate(1865.519531 0)"/>
    <use xlink:href="#MicrosoftYaHei-32" transform="translate(1908.78125 0)"/>
    <use xlink:href="#MicrosoftYaHei-37" transform="translate(1967.423828 0)"/>
   </g>
  </g>
 </g>
 <defs>
  <clipPath id="p4a904955c6">
   <rect x="59.3" y="80.191562" width="314.82" height="175.104"/>
  </clipPath>
 </defs>
</svg>
