<?xml version="1.0" encoding="utf-8" standalone="no"?>
<!DOCTYPE svg PUBLIC "-//W3C//DTD SVG 1.1//EN"
  "http://www.w3.org/Graphics/SVG/1.1/DTD/svg11.dtd">
<svg xmlns:xlink="http://www.w3.org/1999/xlink" width="350.156198pt" height="206.645931pt" viewBox="0 0 350.156198 206.645931" xmlns="http://www.w3.org/2000/svg" version="1.1">
 <metadata>
  <rdf:RDF xmlns:dc="http://purl.org/dc/elements/1.1/" xmlns:cc="http://creativecommons.org/ns#" xmlns:rdf="http://www.w3.org/1999/02/22-rdf-syntax-ns#">
   <cc:Work>
    <dc:type rdf:resource="http://purl.org/dc/dcmitype/StillImage"/>
    <dc:date>2026-05-25T08:51:38.557073</dc:date>
    <dc:format>image/svg+xml</dc:format>
    <dc:creator>
     <cc:Agent>
      <dc:title>Matplotlib v3.10.9, https://matplotlib.org/</dc:title>
     </cc:Agent>
    </dc:creator>
   </cc:Work>
  </rdf:RDF>
 </metadata>
 <defs>
  <style type="text/css">*{stroke-linejoin: round; stroke-linecap: butt}</style>
 </defs>
 <g id="figure_1">
  <g id="patch_1">
   <path d="M 0 206.645931 
L 350.156198 206.645931 
L 350.156198 0 
L 0 0 
z
" style="fill: #f5f7fa"/>
  </g>
  <g id="axes_1">
   <g id="patch_2">
    <path d="M 41.576875 169.779369 
L 328.896075 169.779369 
L 328.896075 59.549369 
L 41.576875 59.549369 
z
" style="fill: #f5f7fa"/>
   </g>
   <g id="patch_3">
    <path d="M 41.576875 164.768914 
L 195.579966 164.768914 
L 195.579966 150.45333 
L 41.576875 150.45333 
z
" clip-path="url(#p182910eb98)" style="fill: #10b981; stroke: #ffffff; stroke-width: 0.8; stroke-linejoin: miter"/>
   </g>
   <g id="patch_4">
    <path d="M 41.576875 136.137746 
L 205.540365 136.137746 
L 205.540365 121.822161 
L 41.576875 121.822161 
z
" clip-path="url(#p182910eb98)" style="fill: #1a56db; stroke: #ffffff; stroke-width: 0.8; stroke-linejoin: miter"/>
   </g>
   <g id="patch_5">
    <path d="M 41.576875 107.506577 
L 216.266949 107.506577 
L 216.266949 93.190992 
L 41.576875 93.190992 
z
" clip-path="url(#p182910eb98)" style="fill: #ea580c; stroke: #ffffff; stroke-width: 0.8; stroke-linejoin: miter"/>
   </g>
   <g id="patch_6">
    <path d="M 41.576875 78.875408 
L 235.574799 78.875408 
L 235.574799 64.559823 
L 41.576875 64.559823 
z
" clip-path="url(#p182910eb98)" style="fill: #ef4444; stroke: #ffffff; stroke-width: 0.8; stroke-linejoin: miter"/>
   </g>
   <g id="matplotlib.axis_1">
    <g id="xtick_1">
     <g id="line2d_1">
      <path d="M 41.576875 169.779369 
L 41.576875 59.549369 
" clip-path="url(#p182910eb98)" style="fill: none; stroke: #64748b; stroke-opacity: 0.2; stroke-width: 0.8; stroke-linecap: square"/>
     </g>
     <g id="line2d_2">
      <defs>
       <path id="m5bc63b3ff7" d="M 0 0 
L 0 3.5 
" style="stroke: #64748b; stroke-width: 0.8"/>
      </defs>
      <g>
       <use xlink:href="#m5bc63b3ff7" x="41.576875" y="169.779369" style="fill: #64748b; stroke: #64748b; stroke-width: 0.8"/>
      </g>
     </g>
     <g id="text_1">
      <!-- 0 -->
      <g style="fill: #64748b" transform="translate(39.232656 183.925931) scale(0.09 -0.09)">
       <defs>
        <path id="NotoSansSC-Thin-30" d="M 1670 -83 
Q 1261 -83 963 179 
Q 666 442 509 979 
Q 352 1517 352 2336 
Q 352 3149 509 3677 
Q 666 4205 963 4467 
Q 1261 4730 1670 4730 
Q 2080 4730 2371 4467 
Q 2662 4205 2822 3677 
Q 2982 3149 2982 2336 
Q 2982 1517 2822 979 
Q 2662 442 2371 179 
Q 2080 -83 1670 -83 
z
M 1670 128 
Q 1997 128 2240 384 
Q 2483 640 2614 1133 
Q 2746 1626 2746 2336 
Q 2746 3040 2614 3529 
Q 2483 4019 2240 4272 
Q 1997 4525 1670 4525 
Q 1344 4525 1101 4272 
Q 858 4019 723 3529 
Q 589 3040 589 2336 
Q 589 1626 723 1133 
Q 858 640 1101 384 
Q 1344 128 1670 128 
z
" transform="scale(0.015625)"/>
       </defs>
       <use xlink:href="#NotoSansSC-Thin-30"/>
      </g>
     </g>
    </g>
    <g id="xtick_2">
     <g id="line2d_3">
      <path d="M 79.886102 169.779369 
L 79.886102 59.549369 
" clip-path="url(#p182910eb98)" style="fill: none; stroke: #64748b; stroke-opacity: 0.2; stroke-width: 0.8; stroke-linecap: square"/>
     </g>
     <g id="line2d_4">
      <g>
       <use xlink:href="#m5bc63b3ff7" x="79.886102" y="169.779369" style="fill: #64748b; stroke: #64748b; stroke-width: 0.8"/>
      </g>
     </g>
     <g id="text_2">
      <!-- 1 -->
      <g style="fill: #64748b" transform="translate(77.541883 183.925931) scale(0.09 -0.09)">
       <defs>
        <path id="NotoSansSC-Thin-31" d="M 608 0 
L 608 211 
L 1677 211 
L 1677 4211 
L 864 4211 
L 864 4378 
Q 1133 4422 1344 4492 
Q 1555 4563 1702 4646 
L 1901 4646 
L 1901 211 
L 2899 211 
L 2899 0 
L 608 0 
z
" transform="scale(0.015625)"/>
       </defs>
       <use xlink:href="#NotoSansSC-Thin-31"/>
      </g>
     </g>
    </g>
    <g id="xtick_3">
     <g id="line2d_5">
      <path d="M 118.195328 169.779369 
L 118.195328 59.549369 
" clip-path="url(#p182910eb98)" style="fill: none; stroke: #64748b; stroke-opacity: 0.2; stroke-width: 0.8; stroke-linecap: square"/>
     </g>
     <g id="line2d_6">
      <g>
       <use xlink:href="#m5bc63b3ff7" x="118.195328" y="169.779369" style="fill: #64748b; stroke: #64748b; stroke-width: 0.8"/>
      </g>
     </g>
     <g id="text_3">
      <!-- 2 -->
      <g style="fill: #64748b" transform="translate(115.85111 183.925931) scale(0.09 -0.09)">
       <defs>
        <path id="NotoSansSC-Thin-32" d="M 294 0 
L 294 147 
Q 1120 858 1613 1434 
Q 2106 2010 2323 2499 
Q 2541 2989 2541 3424 
Q 2541 3725 2435 3974 
Q 2330 4224 2106 4371 
Q 1882 4518 1523 4518 
Q 1210 4518 931 4352 
Q 653 4186 442 3923 
L 282 4070 
Q 525 4346 829 4538 
Q 1133 4730 1542 4730 
Q 1939 4730 2214 4566 
Q 2490 4403 2637 4112 
Q 2784 3821 2784 3424 
Q 2784 2918 2537 2406 
Q 2291 1894 1820 1347 
Q 1350 800 678 179 
Q 870 192 1062 201 
Q 1254 211 1440 211 
L 3014 211 
L 3014 0 
L 294 0 
z
" transform="scale(0.015625)"/>
       </defs>
       <use xlink:href="#NotoSansSC-Thin-32"/>
      </g>
     </g>
    </g>
    <g id="xtick_4">
     <g id="line2d_7">
      <path d="M 156.504555 169.779369 
L 156.504555 59.549369 
" clip-path="url(#p182910eb98)" style="fill: none; stroke: #64748b; stroke-opacity: 0.2; stroke-width: 0.8; stroke-linecap: square"/>
     </g>
     <g id="line2d_8">
      <g>
       <use xlink:href="#m5bc63b3ff7" x="156.504555" y="169.779369" style="fill: #64748b; stroke: #64748b; stroke-width: 0.8"/>
      </g>
     </g>
     <g id="text_4">
      <!-- 3 -->
      <g style="fill: #64748b" transform="translate(154.160336 183.925931) scale(0.09 -0.09)">
       <defs>
        <path id="NotoSansSC-Thin-33" d="M 1619 -83 
Q 1261 -83 998 13 
Q 736 109 544 256 
Q 352 403 211 550 
L 358 717 
Q 563 499 857 313 
Q 1152 128 1632 128 
Q 1952 128 2198 262 
Q 2445 397 2585 640 
Q 2726 883 2726 1210 
Q 2726 1542 2560 1795 
Q 2394 2048 2038 2189 
Q 1683 2330 1114 2330 
L 1114 2554 
Q 1651 2554 1964 2698 
Q 2278 2842 2416 3088 
Q 2554 3334 2554 3629 
Q 2554 4026 2298 4272 
Q 2042 4518 1606 4518 
Q 1293 4518 1017 4374 
Q 742 4230 557 4026 
L 410 4192 
Q 634 4410 925 4570 
Q 1216 4730 1606 4730 
Q 1939 4730 2211 4598 
Q 2483 4467 2643 4224 
Q 2803 3981 2803 3642 
Q 2803 3168 2550 2877 
Q 2298 2586 1926 2464 
L 1926 2438 
Q 2208 2381 2445 2221 
Q 2682 2061 2826 1808 
Q 2970 1555 2970 1222 
Q 2970 826 2790 531 
Q 2611 237 2307 77 
Q 2003 -83 1619 -83 
z
" transform="scale(0.015625)"/>
       </defs>
       <use xlink:href="#NotoSansSC-Thin-33"/>
      </g>
     </g>
    </g>
    <g id="xtick_5">
     <g id="line2d_9">
      <path d="M 194.813782 169.779369 
L 194.813782 59.549369 
" clip-path="url(#p182910eb98)" style="fill: none; stroke: #64748b; stroke-opacity: 0.2; stroke-width: 0.8; stroke-linecap: square"/>
     </g>
     <g id="line2d_10">
      <g>
       <use xlink:href="#m5bc63b3ff7" x="194.813782" y="169.779369" style="fill: #64748b; stroke: #64748b; stroke-width: 0.8"/>
      </g>
     </g>
     <g id="text_5">
      <!-- 4 -->
      <g style="fill: #64748b" transform="translate(192.469563 183.925931) scale(0.09 -0.09)">
       <defs>
        <path id="NotoSansSC-Thin-34" d="M 2195 0 
L 2195 3482 
Q 2195 3629 2204 3843 
Q 2214 4058 2227 4205 
L 2195 4205 
Q 2112 4058 2019 3901 
Q 1926 3744 1830 3590 
L 422 1568 
L 3110 1568 
L 3110 1363 
L 115 1363 
L 115 1485 
L 2259 4646 
L 2419 4646 
L 2419 0 
L 2195 0 
z
" transform="scale(0.015625)"/>
       </defs>
       <use xlink:href="#NotoSansSC-Thin-34"/>
      </g>
     </g>
    </g>
    <g id="xtick_6">
     <g id="line2d_11">
      <path d="M 233.123008 169.779369 
L 233.123008 59.549369 
" clip-path="url(#p182910eb98)" style="fill: none; stroke: #64748b; stroke-opacity: 0.2; stroke-width: 0.8; stroke-linecap: square"/>
     </g>
     <g id="line2d_12">
      <g>
       <use xlink:href="#m5bc63b3ff7" x="233.123008" y="169.779369" style="fill: #64748b; stroke: #64748b; stroke-width: 0.8"/>
      </g>
     </g>
     <g id="text_6">
      <!-- 5 -->
      <g style="fill: #64748b" transform="translate(230.77879 183.925931) scale(0.09 -0.09)">
       <defs>
        <path id="NotoSansSC-Thin-35" d="M 1581 -83 
Q 1222 -83 963 9 
Q 704 102 515 240 
Q 326 378 186 518 
L 333 691 
Q 467 550 636 422 
Q 806 294 1040 211 
Q 1274 128 1594 128 
Q 1901 128 2166 294 
Q 2432 461 2592 765 
Q 2752 1069 2752 1466 
Q 2752 2061 2441 2406 
Q 2131 2752 1606 2752 
Q 1350 2752 1152 2665 
Q 954 2579 755 2445 
L 563 2560 
L 730 4646 
L 2758 4646 
L 2758 4435 
L 941 4435 
L 787 2726 
Q 966 2835 1168 2902 
Q 1370 2970 1626 2970 
Q 2010 2970 2320 2813 
Q 2630 2656 2812 2326 
Q 2995 1997 2995 1478 
Q 2995 979 2787 630 
Q 2579 282 2256 99 
Q 1933 -83 1581 -83 
z
" transform="scale(0.015625)"/>
       </defs>
       <use xlink:href="#NotoSansSC-Thin-35"/>
      </g>
     </g>
    </g>
    <g id="xtick_7">
     <g id="line2d_13">
      <path d="M 271.432235 169.779369 
L 271.432235 59.549369 
" clip-path="url(#p182910eb98)" style="fill: none; stroke: #64748b; stroke-opacity: 0.2; stroke-width: 0.8; stroke-linecap: square"/>
     </g>
     <g id="line2d_14">
      <g>
       <use xlink:href="#m5bc63b3ff7" x="271.432235" y="169.779369" style="fill: #64748b; stroke: #64748b; stroke-width: 0.8"/>
      </g>
     </g>
     <g id="text_7">
      <!-- 6 -->
      <g style="fill: #64748b" transform="translate(269.088016 183.925931) scale(0.09 -0.09)">
       <defs>
        <path id="NotoSansSC-Thin-36" d="M 1837 -83 
Q 1498 -83 1232 67 
Q 966 218 780 509 
Q 595 800 496 1216 
Q 397 1632 397 2170 
Q 397 2886 528 3379 
Q 659 3872 889 4169 
Q 1120 4467 1414 4598 
Q 1709 4730 2029 4730 
Q 2330 4730 2550 4614 
Q 2771 4499 2944 4307 
L 2790 4147 
Q 2643 4333 2444 4425 
Q 2246 4518 2022 4518 
Q 1651 4518 1334 4297 
Q 1018 4077 826 3561 
Q 634 3046 634 2170 
Q 634 1581 762 1120 
Q 890 659 1158 393 
Q 1427 128 1850 128 
Q 2125 128 2336 297 
Q 2547 467 2672 752 
Q 2797 1037 2797 1382 
Q 2797 1741 2694 2025 
Q 2592 2310 2368 2476 
Q 2144 2643 1779 2643 
Q 1523 2643 1209 2470 
Q 896 2298 602 1888 
L 602 2176 
Q 768 2381 957 2531 
Q 1146 2682 1360 2762 
Q 1574 2842 1792 2842 
Q 2189 2842 2467 2675 
Q 2746 2509 2893 2185 
Q 3040 1862 3040 1382 
Q 3040 960 2873 630 
Q 2707 301 2435 109 
Q 2163 -83 1837 -83 
z
" transform="scale(0.015625)"/>
       </defs>
       <use xlink:href="#NotoSansSC-Thin-36"/>
      </g>
     </g>
    </g>
    <g id="xtick_8">
     <g id="line2d_15">
      <path d="M 309.741462 169.779369 
L 309.741462 59.549369 
" clip-path="url(#p182910eb98)" style="fill: none; stroke: #64748b; stroke-opacity: 0.2; stroke-width: 0.8; stroke-linecap: square"/>
     </g>
     <g id="line2d_16">
      <g>
       <use xlink:href="#m5bc63b3ff7" x="309.741462" y="169.779369" style="fill: #64748b; stroke: #64748b; stroke-width: 0.8"/>
      </g>
     </g>
     <g id="text_8">
      <!-- 7 -->
      <g style="fill: #64748b" transform="translate(307.397243 183.925931) scale(0.09 -0.09)">
       <defs>
        <path id="NotoSansSC-Thin-37" d="M 1344 0 
Q 1376 717 1462 1318 
Q 1549 1920 1712 2445 
Q 1875 2970 2124 3459 
Q 2374 3949 2726 4435 
L 307 4435 
L 307 4646 
L 3034 4646 
L 3034 4512 
Q 2624 3955 2355 3436 
Q 2086 2918 1932 2384 
Q 1779 1850 1705 1267 
Q 1632 685 1606 0 
L 1344 0 
z
" transform="scale(0.015625)"/>
       </defs>
       <use xlink:href="#NotoSansSC-Thin-37"/>
      </g>
     </g>
    </g>
    <g id="text_9">
     <!-- 收益率 (%) -->
     <g style="fill: #64748b" transform="translate(164.094913 197.259213) scale(0.09 -0.09)">
      <defs>
       <path id="NotoSansSC-Thin-6536" d="M 3462 4013 
L 6035 4013 
L 6035 3827 
L 3462 3827 
L 3462 4013 
z
M 3706 5312 
L 3898 5280 
Q 3782 4678 3616 4131 
Q 3450 3584 3229 3113 
Q 3008 2643 2726 2272 
Q 2714 2291 2685 2316 
Q 2656 2342 2627 2368 
Q 2598 2394 2573 2406 
Q 2854 2752 3068 3209 
Q 3283 3667 3443 4201 
Q 3603 4736 3706 5312 
z
M 5274 3955 
L 5472 3923 
Q 5286 2835 4956 2009 
Q 4627 1184 4099 582 
Q 3571 -19 2778 -442 
Q 2765 -422 2742 -393 
Q 2720 -365 2697 -333 
Q 2675 -301 2650 -282 
Q 3437 109 3955 694 
Q 4474 1280 4787 2089 
Q 5101 2899 5274 3955 
z
M 3514 3840 
Q 3725 2918 4077 2099 
Q 4429 1280 4931 665 
Q 5434 51 6093 -275 
Q 6067 -294 6038 -320 
Q 6010 -346 5987 -371 
Q 5965 -397 5946 -422 
Q 5286 -77 4780 553 
Q 4275 1184 3920 2016 
Q 3565 2848 3347 3802 
L 3514 3840 
z
M 2170 5222 
L 2362 5222 
L 2362 -454 
L 2170 -454 
L 2170 5222 
z
M 582 800 
L 576 992 
L 717 1126 
L 2253 1677 
Q 2253 1632 2262 1581 
Q 2272 1530 2278 1498 
Q 1741 1293 1417 1168 
Q 1094 1043 928 972 
Q 762 902 691 867 
Q 621 832 582 800 
z
M 582 800 
Q 570 826 550 858 
Q 531 890 512 922 
Q 493 954 474 979 
Q 525 1011 608 1107 
Q 691 1203 691 1389 
L 691 4582 
L 877 4582 
L 877 1094 
Q 877 1094 832 1062 
Q 787 1030 729 979 
Q 672 928 627 880 
Q 582 832 582 800 
z
" transform="scale(0.015625)"/>
       <path id="NotoSansSC-Thin-76ca" d="M 314 -77 
L 6106 -77 
L 6106 -262 
L 314 -262 
L 314 -77 
z
M 467 4013 
L 5914 4013 
L 5914 3827 
L 467 3827 
L 467 4013 
z
M 1242 2067 
L 5235 2067 
L 5235 -192 
L 5043 -192 
L 5043 1875 
L 3955 1875 
L 3955 -192 
L 3763 -192 
L 3763 1875 
L 2694 1875 
L 2694 -192 
L 2502 -192 
L 2502 1875 
L 1434 1875 
L 1434 -192 
L 1242 -192 
L 1242 2067 
z
M 1542 5216 
L 1702 5286 
Q 1914 5030 2112 4720 
Q 2310 4410 2400 4186 
L 2227 4096 
Q 2170 4250 2061 4445 
Q 1952 4640 1817 4845 
Q 1683 5050 1542 5216 
z
M 4742 5306 
L 4922 5229 
Q 4755 4947 4547 4627 
Q 4339 4307 4154 4077 
L 4000 4147 
Q 4128 4301 4265 4505 
Q 4403 4710 4531 4921 
Q 4659 5133 4742 5306 
z
M 3866 3130 
L 3936 3277 
Q 4186 3187 4454 3075 
Q 4723 2963 4982 2848 
Q 5242 2733 5466 2621 
Q 5690 2509 5850 2413 
L 5786 2240 
Q 5619 2336 5392 2451 
Q 5165 2566 4905 2688 
Q 4646 2810 4380 2922 
Q 4115 3034 3866 3130 
z
M 2234 3322 
L 2368 3226 
Q 2182 3034 1894 2819 
Q 1606 2605 1292 2413 
Q 979 2221 710 2080 
Q 685 2112 643 2144 
Q 602 2176 563 2202 
Q 832 2323 1149 2512 
Q 1466 2701 1760 2915 
Q 2054 3130 2234 3322 
z
" transform="scale(0.015625)"/>
       <path id="NotoSansSC-Thin-7387" d="M 3104 1888 
L 3296 1888 
L 3296 -454 
L 3104 -454 
L 3104 1888 
z
M 378 1267 
L 6029 1267 
L 6029 1082 
L 378 1082 
L 378 1267 
z
M 467 4672 
L 6003 4672 
L 6003 4486 
L 467 4486 
L 467 4672 
z
M 5382 4115 
L 5549 4000 
Q 5325 3776 5049 3552 
Q 4774 3328 4531 3162 
L 4390 3277 
Q 4550 3386 4732 3533 
Q 4915 3680 5088 3833 
Q 5261 3987 5382 4115 
z
M 3539 2867 
L 3693 2963 
Q 3853 2810 4009 2624 
Q 4166 2438 4300 2262 
Q 4435 2086 4512 1946 
L 4346 1830 
Q 4275 1971 4144 2153 
Q 4013 2336 3856 2525 
Q 3699 2714 3539 2867 
z
M 461 2048 
Q 755 2189 1177 2406 
Q 1600 2624 2029 2854 
L 2080 2694 
Q 1690 2477 1296 2265 
Q 902 2054 576 1888 
L 461 2048 
z
M 653 3987 
L 794 4102 
Q 973 3994 1161 3859 
Q 1350 3725 1513 3590 
Q 1677 3456 1786 3341 
L 1638 3206 
Q 1536 3322 1373 3459 
Q 1210 3597 1021 3737 
Q 832 3878 653 3987 
z
M 4384 2714 
L 4544 2822 
Q 4768 2688 5008 2521 
Q 5248 2355 5465 2188 
Q 5683 2022 5824 1888 
L 5664 1766 
Q 5530 1901 5315 2067 
Q 5101 2234 4857 2403 
Q 4614 2573 4384 2714 
z
M 2118 3226 
Q 2112 3251 2102 3292 
Q 2093 3334 2080 3372 
Q 2067 3411 2054 3437 
Q 2118 3450 2185 3501 
Q 2253 3552 2330 3635 
Q 2387 3693 2515 3846 
Q 2643 4000 2796 4211 
Q 2950 4422 3066 4634 
L 3264 4550 
Q 3046 4198 2796 3891 
Q 2547 3584 2304 3360 
L 2304 3354 
Q 2304 3354 2275 3344 
Q 2246 3334 2211 3315 
Q 2176 3296 2147 3273 
Q 2118 3251 2118 3226 
z
M 2118 3226 
L 2118 3392 
L 2272 3475 
L 3590 3584 
Q 3571 3546 3555 3488 
Q 3539 3430 3526 3398 
Q 3085 3360 2819 3331 
Q 2554 3302 2413 3286 
Q 2272 3270 2211 3254 
Q 2150 3238 2118 3226 
z
M 1990 1952 
Q 1984 1978 1971 2016 
Q 1958 2054 1945 2096 
Q 1933 2138 1920 2170 
Q 2010 2182 2138 2272 
Q 2266 2362 2419 2496 
Q 2509 2566 2681 2729 
Q 2854 2893 3075 3113 
Q 3296 3334 3529 3593 
Q 3763 3853 3974 4122 
L 4166 4019 
Q 3680 3456 3177 2953 
Q 2675 2451 2176 2086 
L 2176 2080 
Q 2176 2080 2147 2070 
Q 2118 2061 2083 2041 
Q 2048 2022 2019 2000 
Q 1990 1978 1990 1952 
z
M 1990 1952 
L 1990 2118 
L 2150 2208 
L 4154 2387 
Q 4160 2342 4173 2291 
Q 4186 2240 4198 2208 
Q 3482 2138 3059 2096 
Q 2637 2054 2419 2028 
Q 2202 2003 2115 1987 
Q 2029 1971 1990 1952 
z
M 2950 5306 
L 3104 5370 
Q 3232 5210 3350 5008 
Q 3469 4806 3526 4659 
L 3360 4582 
Q 3302 4730 3184 4934 
Q 3066 5139 2950 5306 
z
" transform="scale(0.015625)"/>
       <path id="NotoSansSC-Thin-20" transform="scale(0.015625)"/>
       <path id="NotoSansSC-Thin-28" d="M 1562 -1222 
Q 1133 -525 883 252 
Q 634 1030 634 1958 
Q 634 2886 883 3667 
Q 1133 4448 1562 5146 
L 1696 5056 
Q 1274 4390 1059 3596 
Q 845 2803 845 1958 
Q 845 1114 1059 320 
Q 1274 -474 1696 -1139 
L 1562 -1222 
z
" transform="scale(0.015625)"/>
       <path id="NotoSansSC-Thin-25" d="M 1267 1818 
Q 966 1818 745 1987 
Q 525 2157 409 2483 
Q 294 2810 294 3283 
Q 294 3750 409 4070 
Q 525 4390 745 4560 
Q 966 4730 1267 4730 
Q 1574 4730 1795 4560 
Q 2016 4390 2131 4070 
Q 2246 3750 2246 3283 
Q 2246 2810 2131 2483 
Q 2016 2157 1795 1987 
Q 1574 1818 1267 1818 
z
M 1267 2003 
Q 1619 2003 1820 2342 
Q 2022 2682 2022 3283 
Q 2022 3885 1820 4214 
Q 1619 4544 1267 4544 
Q 922 4544 717 4214 
Q 512 3885 512 3283 
Q 512 2682 717 2342 
Q 922 2003 1267 2003 
z
M 1382 -83 
L 3987 4730 
L 4218 4730 
L 1619 -83 
L 1382 -83 
z
M 4365 -83 
Q 4058 -83 3840 86 
Q 3622 256 3504 582 
Q 3386 909 3386 1382 
Q 3386 1850 3504 2170 
Q 3622 2490 3840 2659 
Q 4058 2829 4365 2829 
Q 4666 2829 4883 2659 
Q 5101 2490 5219 2170 
Q 5338 1850 5338 1382 
Q 5338 909 5219 582 
Q 5101 256 4883 86 
Q 4666 -83 4365 -83 
z
M 4365 102 
Q 4704 102 4912 441 
Q 5120 781 5120 1382 
Q 5120 1984 4912 2313 
Q 4704 2643 4365 2643 
Q 4013 2643 3808 2313 
Q 3603 1984 3603 1382 
Q 3603 781 3808 441 
Q 4013 102 4365 102 
z
" transform="scale(0.015625)"/>
       <path id="NotoSansSC-Thin-29" d="M 352 -1222 
L 211 -1139 
Q 634 -474 851 320 
Q 1069 1114 1069 1958 
Q 1069 2803 851 3596 
Q 634 4390 211 5056 
L 352 5146 
Q 787 4448 1033 3667 
Q 1280 2886 1280 1958 
Q 1280 1030 1033 252 
Q 787 -525 352 -1222 
z
" transform="scale(0.015625)"/>
      </defs>
      <use xlink:href="#NotoSansSC-Thin-6536"/>
      <use xlink:href="#NotoSansSC-Thin-76ca" transform="translate(99.999985 0)"/>
      <use xlink:href="#NotoSansSC-Thin-7387" transform="translate(199.999969 0)"/>
      <use xlink:href="#NotoSansSC-Thin-20" transform="translate(299.999954 0)"/>
      <use xlink:href="#NotoSansSC-Thin-28" transform="translate(321.999939 0)"/>
      <use xlink:href="#NotoSansSC-Thin-25" transform="translate(351.899933 0)"/>
      <use xlink:href="#NotoSansSC-Thin-29" transform="translate(439.899918 0)"/>
     </g>
    </g>
   </g>
   <g id="matplotlib.axis_2">
    <g id="ytick_1">
     <g id="line2d_17">
      <defs>
       <path id="m5302cd51f0" d="M 0 0 
L -3.5 0 
" style="stroke: #64748b; stroke-width: 0.8"/>
      </defs>
      <g>
       <use xlink:href="#m5302cd51f0" x="41.576875" y="157.611122" style="fill: #64748b; stroke: #64748b; stroke-width: 0.8"/>
      </g>
     </g>
     <g id="text_10">
      <!-- 2年期 -->
      <g style="fill: #64748b" transform="translate(11.888438 161.184403) scale(0.09 -0.09)">
       <defs>
        <path id="NotoSansSC-Thin-5e74" d="M 1958 5338 
L 2144 5286 
Q 1958 4819 1712 4384 
Q 1466 3949 1178 3577 
Q 890 3206 576 2918 
Q 557 2931 528 2953 
Q 499 2976 467 2998 
Q 435 3021 403 3034 
Q 730 3315 1018 3676 
Q 1306 4038 1546 4464 
Q 1786 4890 1958 5338 
z
M 1626 4474 
L 5811 4474 
L 5811 4288 
L 1530 4288 
L 1626 4474 
z
M 1453 3085 
L 5670 3085 
L 5670 2899 
L 1638 2899 
L 1638 1216 
L 1453 1216 
L 1453 3085 
z
M 352 1318 
L 6061 1318 
L 6061 1133 
L 352 1133 
L 352 1318 
z
M 3405 4371 
L 3597 4371 
L 3597 -454 
L 3405 -454 
L 3405 4371 
z
" transform="scale(0.015625)"/>
        <path id="NotoSansSC-Thin-671f" d="M 3885 4966 
L 5779 4966 
L 5779 4781 
L 3885 4781 
L 3885 4966 
z
M 3885 3475 
L 5779 3475 
L 5779 3290 
L 3885 3290 
L 3885 3475 
z
M 3872 1952 
L 5798 1952 
L 5798 1766 
L 3872 1766 
L 3872 1952 
z
M 5683 4966 
L 5869 4966 
L 5869 -70 
Q 5869 -205 5827 -272 
Q 5786 -339 5677 -371 
Q 5574 -397 5360 -403 
Q 5146 -410 4800 -410 
Q 4794 -365 4768 -307 
Q 4742 -250 4717 -205 
Q 5018 -211 5248 -211 
Q 5478 -211 5555 -205 
Q 5626 -198 5654 -172 
Q 5683 -147 5683 -70 
L 5683 4966 
z
M 3802 4966 
L 3987 4966 
L 3987 2669 
Q 3987 2310 3964 1900 
Q 3942 1491 3875 1068 
Q 3808 646 3673 246 
Q 3539 -154 3309 -493 
Q 3296 -474 3267 -451 
Q 3238 -429 3206 -406 
Q 3174 -384 3149 -378 
Q 3450 70 3587 598 
Q 3725 1126 3763 1664 
Q 3802 2202 3802 2669 
L 3802 4966 
z
M 397 4365 
L 3392 4365 
L 3392 4179 
L 397 4179 
L 397 4365 
z
M 1062 3418 
L 2784 3418 
L 2784 3232 
L 1062 3232 
L 1062 3418 
z
M 1069 2387 
L 2790 2387 
L 2790 2195 
L 1069 2195 
L 1069 2387 
z
M 301 1331 
L 3437 1331 
L 3437 1146 
L 301 1146 
L 301 1331 
z
M 979 5235 
L 1165 5235 
L 1165 1229 
L 979 1229 
L 979 5235 
z
M 2694 5235 
L 2880 5235 
L 2880 1229 
L 2694 1229 
L 2694 5235 
z
M 1286 915 
L 1478 870 
Q 1306 499 1050 150 
Q 794 -198 531 -442 
Q 518 -429 486 -406 
Q 454 -384 422 -361 
Q 390 -339 365 -326 
Q 646 -90 889 236 
Q 1133 563 1286 915 
z
M 2176 806 
L 2336 883 
Q 2464 736 2585 560 
Q 2707 384 2809 217 
Q 2912 51 2970 -83 
L 2803 -179 
Q 2752 -45 2649 124 
Q 2547 294 2422 476 
Q 2298 659 2176 806 
z
" transform="scale(0.015625)"/>
       </defs>
       <use xlink:href="#NotoSansSC-Thin-32"/>
       <use xlink:href="#NotoSansSC-Thin-5e74" transform="translate(52.099991 0)"/>
       <use xlink:href="#NotoSansSC-Thin-671f" transform="translate(152.099976 0)"/>
      </g>
     </g>
    </g>
    <g id="ytick_2">
     <g id="line2d_18">
      <g>
       <use xlink:href="#m5302cd51f0" x="41.576875" y="128.979953" style="fill: #64748b; stroke: #64748b; stroke-width: 0.8"/>
      </g>
     </g>
     <g id="text_11">
      <!-- 5年期 -->
      <g style="fill: #64748b" transform="translate(11.888438 132.553235) scale(0.09 -0.09)">
       <use xlink:href="#NotoSansSC-Thin-35"/>
       <use xlink:href="#NotoSansSC-Thin-5e74" transform="translate(52.099991 0)"/>
       <use xlink:href="#NotoSansSC-Thin-671f" transform="translate(152.099976 0)"/>
      </g>
     </g>
    </g>
    <g id="ytick_3">
     <g id="line2d_19">
      <g>
       <use xlink:href="#m5302cd51f0" x="41.576875" y="100.348784" style="fill: #64748b; stroke: #64748b; stroke-width: 0.8"/>
      </g>
     </g>
     <g id="text_12">
      <!-- 10年期 -->
      <g style="fill: #64748b" transform="translate(7.2 103.922066) scale(0.09 -0.09)">
       <use xlink:href="#NotoSansSC-Thin-31"/>
       <use xlink:href="#NotoSansSC-Thin-30" transform="translate(52.099991 0)"/>
       <use xlink:href="#NotoSansSC-Thin-5e74" transform="translate(104.199982 0)"/>
       <use xlink:href="#NotoSansSC-Thin-671f" transform="translate(204.199966 0)"/>
      </g>
     </g>
    </g>
    <g id="ytick_4">
     <g id="line2d_20">
      <g>
       <use xlink:href="#m5302cd51f0" x="41.576875" y="71.717616" style="fill: #64748b; stroke: #64748b; stroke-width: 0.8"/>
      </g>
     </g>
     <g id="text_13">
      <!-- 30年期 -->
      <g style="fill: #64748b" transform="translate(7.2 75.290897) scale(0.09 -0.09)">
       <use xlink:href="#NotoSansSC-Thin-33"/>
       <use xlink:href="#NotoSansSC-Thin-30" transform="translate(52.099991 0)"/>
       <use xlink:href="#NotoSansSC-Thin-5e74" transform="translate(104.199982 0)"/>
       <use xlink:href="#NotoSansSC-Thin-671f" transform="translate(204.199966 0)"/>
      </g>
     </g>
    </g>
   </g>
   <g id="line2d_21">
    <path d="M 129.688096 169.779369 
L 129.688096 59.549369 
" clip-path="url(#p182910eb98)" style="fill: none; stroke-dasharray: 3.7,1.6; stroke-dashoffset: 0; stroke: #d4a017; stroke-opacity: 0.6"/>
   </g>
   <g id="patch_7">
    <path d="M 41.576875 169.779369 
L 41.576875 59.549369 
" style="fill: none; stroke: #e2e8f0; stroke-width: 0.8; stroke-linejoin: miter; stroke-linecap: square"/>
   </g>
   <g id="patch_8">
    <path d="M 41.576875 169.779369 
L 328.896075 169.779369 
" style="fill: none; stroke: #e2e8f0; stroke-width: 0.8; stroke-linejoin: miter; stroke-linecap: square"/>
   </g>
   <g id="text_14">
    <!-- 4.020% -->
    <g style="fill: #1e293b" transform="translate(197.495428 160.091044) scale(0.09 -0.09)">
     <defs>
      <path id="NotoSansSC-Thin-2e" d="M 736 -83 
Q 640 -83 560 -9 
Q 480 64 480 192 
Q 480 333 560 406 
Q 640 480 736 480 
Q 838 480 918 406 
Q 998 333 998 192 
Q 998 64 918 -9 
Q 838 -83 736 -83 
z
" transform="scale(0.015625)"/>
     </defs>
     <use xlink:href="#NotoSansSC-Thin-34"/>
     <use xlink:href="#NotoSansSC-Thin-2e" transform="translate(52.099991 0)"/>
     <use xlink:href="#NotoSansSC-Thin-30" transform="translate(75.199982 0)"/>
     <use xlink:href="#NotoSansSC-Thin-32" transform="translate(127.299973 0)"/>
     <use xlink:href="#NotoSansSC-Thin-30" transform="translate(179.399963 0)"/>
     <use xlink:href="#NotoSansSC-Thin-25" transform="translate(231.499954 0)"/>
    </g>
   </g>
   <g id="text_15">
    <!-- 4.280% -->
    <g style="fill: #1e293b" transform="translate(207.455826 131.459875) scale(0.09 -0.09)">
     <defs>
      <path id="NotoSansSC-Thin-38" d="M 1696 -83 
Q 1286 -83 966 80 
Q 646 243 464 521 
Q 282 800 282 1152 
Q 282 1478 422 1744 
Q 563 2010 774 2202 
Q 986 2394 1197 2509 
L 1197 2534 
Q 954 2694 752 2953 
Q 550 3213 550 3578 
Q 550 3910 704 4163 
Q 858 4416 1117 4560 
Q 1376 4704 1696 4704 
Q 2080 4704 2345 4544 
Q 2611 4384 2752 4112 
Q 2893 3840 2893 3494 
Q 2893 3238 2784 3008 
Q 2675 2778 2528 2602 
Q 2381 2426 2253 2317 
L 2253 2285 
Q 2445 2170 2627 2010 
Q 2810 1850 2925 1626 
Q 3040 1402 3040 1082 
Q 3040 762 2870 496 
Q 2701 230 2400 73 
Q 2099 -83 1696 -83 
z
M 2035 2387 
Q 2336 2630 2499 2905 
Q 2662 3181 2662 3494 
Q 2662 3763 2550 3990 
Q 2438 4218 2220 4358 
Q 2003 4499 1696 4499 
Q 1293 4499 1040 4236 
Q 787 3974 787 3578 
Q 787 3238 972 3017 
Q 1158 2797 1446 2653 
Q 1734 2509 2035 2387 
z
M 1696 128 
Q 2035 128 2281 256 
Q 2528 384 2662 601 
Q 2797 819 2797 1082 
Q 2797 1370 2675 1574 
Q 2554 1779 2352 1923 
Q 2150 2067 1894 2182 
Q 1638 2298 1370 2400 
Q 998 2189 758 1875 
Q 518 1562 518 1152 
Q 518 870 668 636 
Q 819 403 1088 265 
Q 1357 128 1696 128 
z
" transform="scale(0.015625)"/>
     </defs>
     <use xlink:href="#NotoSansSC-Thin-34"/>
     <use xlink:href="#NotoSansSC-Thin-2e" transform="translate(52.099991 0)"/>
     <use xlink:href="#NotoSansSC-Thin-32" transform="translate(75.199982 0)"/>
     <use xlink:href="#NotoSansSC-Thin-38" transform="translate(127.299973 0)"/>
     <use xlink:href="#NotoSansSC-Thin-30" transform="translate(179.399963 0)"/>
     <use xlink:href="#NotoSansSC-Thin-25" transform="translate(231.499954 0)"/>
    </g>
   </g>
   <g id="text_16">
    <!-- 4.560% -->
    <g style="fill: #1e293b" transform="translate(218.18241 102.828706) scale(0.09 -0.09)">
     <use xlink:href="#NotoSansSC-Thin-34"/>
     <use xlink:href="#NotoSansSC-Thin-2e" transform="translate(52.099991 0)"/>
     <use xlink:href="#NotoSansSC-Thin-35" transform="translate(75.199982 0)"/>
     <use xlink:href="#NotoSansSC-Thin-36" transform="translate(127.299973 0)"/>
     <use xlink:href="#NotoSansSC-Thin-30" transform="translate(179.399963 0)"/>
     <use xlink:href="#NotoSansSC-Thin-25" transform="translate(231.499954 0)"/>
    </g>
   </g>
   <g id="text_17">
    <!-- 5.064% ⬆ 2007年以来最高 -->
    <g style="fill: #1e293b" transform="translate(237.49026 74.197538) scale(0.09 -0.09)">
     <defs>
      <path id="NotoSansSC-Thin-2b06" d="M 2138 2906 
L 1018 2906 
L 1018 2925 
L 3200 5408 
L 5382 2925 
L 5382 2906 
L 4262 2906 
L 4262 -448 
L 2138 -448 
L 2138 2906 
z
" transform="scale(0.015625)"/>
      <path id="NotoSansSC-Thin-4ee5" d="M 2496 4704 
L 2656 4781 
Q 2854 4544 3049 4265 
Q 3245 3987 3411 3721 
Q 3578 3456 3674 3251 
L 3507 3162 
Q 3411 3373 3248 3645 
Q 3085 3917 2889 4195 
Q 2694 4474 2496 4704 
z
M 4288 1350 
L 4435 1453 
Q 4749 1184 5065 861 
Q 5382 538 5654 227 
Q 5926 -83 6093 -326 
L 5926 -442 
Q 5766 -198 5500 115 
Q 5235 429 4918 755 
Q 4602 1082 4288 1350 
z
M 4998 5094 
L 5197 5082 
Q 5120 3930 4966 3043 
Q 4813 2157 4502 1491 
Q 4192 826 3661 339 
Q 3130 -147 2304 -499 
Q 2291 -474 2268 -445 
Q 2246 -416 2220 -387 
Q 2195 -358 2170 -339 
Q 2989 -19 3513 451 
Q 4038 922 4339 1574 
Q 4640 2227 4787 3100 
Q 4934 3974 4998 5094 
z
M 947 301 
L 947 493 
L 1094 621 
L 3072 1472 
Q 3085 1446 3104 1395 
Q 3123 1344 3130 1312 
Q 2566 1069 2192 905 
Q 1818 742 1587 636 
Q 1357 531 1232 470 
Q 1107 410 1046 371 
Q 986 333 947 301 
z
M 947 301 
Q 934 326 912 358 
Q 890 390 870 425 
Q 851 461 832 480 
Q 877 506 947 560 
Q 1018 614 1075 704 
Q 1133 794 1133 915 
L 1133 4762 
L 1318 4762 
L 1318 627 
Q 1318 627 1280 601 
Q 1242 576 1187 537 
Q 1133 499 1078 454 
Q 1024 410 985 368 
Q 947 326 947 301 
z
" transform="scale(0.015625)"/>
      <path id="NotoSansSC-Thin-6765" d="M 397 2432 
L 6016 2432 
L 6016 2246 
L 397 2246 
L 397 2432 
z
M 704 4467 
L 5734 4467 
L 5734 4282 
L 704 4282 
L 704 4467 
z
M 3091 5306 
L 3283 5306 
L 3283 -448 
L 3091 -448 
L 3091 5306 
z
M 4979 4026 
L 5171 3949 
Q 5062 3725 4928 3475 
Q 4794 3226 4656 2995 
Q 4518 2765 4390 2586 
L 4237 2656 
Q 4365 2835 4502 3078 
Q 4640 3322 4768 3574 
Q 4896 3827 4979 4026 
z
M 1312 3923 
L 1478 3981 
Q 1619 3782 1753 3548 
Q 1888 3315 1993 3094 
Q 2099 2874 2144 2701 
L 1971 2624 
Q 1920 2797 1817 3024 
Q 1715 3251 1584 3488 
Q 1453 3725 1312 3923 
z
M 2963 2374 
L 3123 2298 
Q 2893 1926 2579 1571 
Q 2266 1216 1901 896 
Q 1536 576 1161 317 
Q 787 58 429 -115 
Q 416 -90 390 -64 
Q 365 -38 339 -12 
Q 314 13 288 32 
Q 646 192 1024 445 
Q 1402 698 1763 1011 
Q 2125 1325 2435 1673 
Q 2746 2022 2963 2374 
z
M 3411 2381 
Q 3635 2029 3952 1677 
Q 4269 1325 4637 1005 
Q 5005 685 5389 432 
Q 5773 179 6138 13 
Q 6118 -6 6092 -35 
Q 6067 -64 6041 -89 
Q 6016 -115 5997 -141 
Q 5638 32 5254 297 
Q 4870 563 4499 889 
Q 4128 1216 3808 1577 
Q 3488 1939 3258 2304 
L 3411 2381 
z
" transform="scale(0.015625)"/>
      <path id="NotoSansSC-Thin-6700" d="M 1376 4109 
L 1376 3469 
L 5082 3469 
L 5082 4109 
L 1376 4109 
z
M 1376 4922 
L 1376 4294 
L 5082 4294 
L 5082 4922 
L 1376 4922 
z
M 1184 5114 
L 5267 5114 
L 5267 3283 
L 1184 3283 
L 1184 5114 
z
M 352 2797 
L 6029 2797 
L 6029 2611 
L 352 2611 
L 352 2797 
z
M 3168 2048 
L 5626 2048 
L 5626 1856 
L 3168 1856 
L 3168 2048 
z
M 1101 2003 
L 2797 2003 
L 2797 1811 
L 1101 1811 
L 1101 2003 
z
M 1101 1171 
L 2797 1171 
L 2797 986 
L 1101 986 
L 1101 1171 
z
M 3686 1926 
Q 3981 1114 4608 531 
Q 5235 -51 6099 -288 
Q 6067 -314 6032 -358 
Q 5997 -403 5971 -442 
Q 5107 -179 4470 422 
Q 3834 1024 3526 1869 
L 3686 1926 
z
M 5555 2048 
L 5594 2048 
L 5638 2061 
L 5754 1997 
Q 5536 1357 5123 873 
Q 4710 390 4195 67 
Q 3680 -256 3149 -429 
Q 3136 -397 3104 -349 
Q 3072 -301 3040 -275 
Q 3546 -122 4051 188 
Q 4557 499 4957 956 
Q 5357 1414 5555 2003 
L 5555 2048 
z
M 326 147 
Q 698 186 1174 246 
Q 1651 307 2188 380 
Q 2726 454 3270 525 
L 3270 358 
Q 2746 288 2224 211 
Q 1702 134 1225 67 
Q 749 0 365 -51 
L 326 147 
z
M 2688 2739 
L 2874 2739 
L 2874 -448 
L 2688 -448 
L 2688 2739 
z
M 1018 2739 
L 1203 2739 
L 1203 147 
L 1018 147 
L 1018 2739 
z
" transform="scale(0.015625)"/>
      <path id="NotoSansSC-Thin-9ad8" d="M 410 4576 
L 5971 4576 
L 5971 4384 
L 410 4384 
L 410 4576 
z
M 1690 3718 
L 1690 2906 
L 4742 2906 
L 4742 3718 
L 1690 3718 
z
M 1498 3910 
L 4928 3910 
L 4928 2720 
L 1498 2720 
L 1498 3910 
z
M 698 2259 
L 5619 2259 
L 5619 2074 
L 883 2074 
L 883 -442 
L 698 -442 
L 698 2259 
z
M 5517 2259 
L 5702 2259 
L 5702 -134 
Q 5702 -237 5673 -285 
Q 5645 -333 5562 -365 
Q 5485 -390 5321 -393 
Q 5158 -397 4877 -397 
Q 4870 -358 4848 -310 
Q 4826 -262 4800 -230 
Q 4954 -230 5082 -230 
Q 5210 -230 5299 -230 
Q 5389 -230 5421 -230 
Q 5517 -224 5517 -141 
L 5517 2259 
z
M 2970 5286 
L 3110 5312 
Q 3194 5107 3270 4870 
Q 3347 4634 3379 4486 
L 3232 4429 
Q 3194 4595 3117 4838 
Q 3040 5082 2970 5286 
z
M 1926 1549 
L 4474 1549 
L 4474 346 
L 1926 346 
L 1926 531 
L 4288 531 
L 4288 1363 
L 1926 1363 
L 1926 1549 
z
M 1843 1549 
L 2035 1549 
L 2035 -32 
L 1843 -32 
L 1843 1549 
z
" transform="scale(0.015625)"/>
     </defs>
     <use xlink:href="#NotoSansSC-Thin-35"/>
     <use xlink:href="#NotoSansSC-Thin-2e" transform="translate(52.099991 0)"/>
     <use xlink:href="#NotoSansSC-Thin-30" transform="translate(75.199982 0)"/>
     <use xlink:href="#NotoSansSC-Thin-36" transform="translate(127.299973 0)"/>
     <use xlink:href="#NotoSansSC-Thin-34" transform="translate(179.399963 0)"/>
     <use xlink:href="#NotoSansSC-Thin-25" transform="translate(231.499954 0)"/>
     <use xlink:href="#NotoSansSC-Thin-20" transform="translate(319.499939 0)"/>
     <use xlink:href="#NotoSansSC-Thin-2b06" transform="translate(341.499924 0)"/>
     <use xlink:href="#NotoSansSC-Thin-20" transform="translate(441.499908 0)"/>
     <use xlink:href="#NotoSansSC-Thin-32" transform="translate(463.499893 0)"/>
     <use xlink:href="#NotoSansSC-Thin-30" transform="translate(515.599884 0)"/>
     <use xlink:href="#NotoSansSC-Thin-30" transform="translate(567.699875 0)"/>
     <use xlink:href="#NotoSansSC-Thin-37" transform="translate(619.799866 0)"/>
     <use xlink:href="#NotoSansSC-Thin-5e74" transform="translate(671.899857 0)"/>
     <use xlink:href="#NotoSansSC-Thin-4ee5" transform="translate(771.899841 0)"/>
     <use xlink:href="#NotoSansSC-Thin-6765" transform="translate(871.899826 0)"/>
     <use xlink:href="#NotoSansSC-Thin-6700" transform="translate(971.899811 0)"/>
     <use xlink:href="#NotoSansSC-Thin-9ad8" transform="translate(1071.899796 0)"/>
    </g>
   </g>
   <g id="patch_9">
    <path d="M 255.022355 148.116435 
Q 246.197124 152.42509 238.577521 156.145133 
" style="fill: none; stroke: #ef4444; stroke-width: 1.2; stroke-linecap: round"/>
    <path d="M 242.155069 156.179007 
L 238.577521 156.145133 
L 240.751149 153.303419 
" style="fill: none; stroke: #ef4444; stroke-width: 1.2; stroke-linecap: round"/>
   </g>
   <g id="text_18">
    <!-- Warsh缩表预期 -->
    <g style="fill: #ef4444" transform="translate(252.277622 133.728788) scale(0.08 -0.08)">
     <defs>
      <path id="NotoSansSC-Thin-57" d="M 1286 0 
L 211 4646 
L 461 4646 
L 1075 1843 
Q 1165 1466 1248 1085 
Q 1331 704 1414 320 
L 1440 320 
Q 1530 704 1622 1085 
Q 1715 1466 1811 1843 
L 2560 4646 
L 2829 4646 
L 3584 1843 
Q 3680 1466 3773 1085 
Q 3866 704 3962 320 
L 3994 320 
Q 4077 704 4153 1085 
Q 4230 1466 4307 1843 
L 4928 4646 
L 5165 4646 
L 4102 0 
L 3853 0 
L 2963 3315 
Q 2899 3597 2838 3840 
Q 2778 4083 2707 4358 
L 2682 4358 
Q 2618 4083 2547 3840 
Q 2477 3597 2413 3315 
L 1536 0 
L 1286 0 
z
" transform="scale(0.015625)"/>
      <path id="NotoSansSC-Thin-61" d="M 1395 -83 
Q 1133 -83 912 13 
Q 691 109 556 310 
Q 422 512 422 832 
Q 422 1395 953 1686 
Q 1485 1978 2624 2106 
Q 2637 2381 2576 2640 
Q 2515 2899 2336 3072 
Q 2157 3245 1805 3245 
Q 1446 3245 1158 3104 
Q 870 2963 704 2835 
L 589 3021 
Q 698 3098 880 3200 
Q 1062 3302 1302 3379 
Q 1542 3456 1818 3456 
Q 2214 3456 2441 3280 
Q 2669 3104 2761 2816 
Q 2854 2528 2854 2182 
L 2854 0 
L 2662 0 
L 2630 448 
L 2611 448 
Q 2355 237 2044 77 
Q 1734 -83 1395 -83 
z
M 1414 128 
Q 1715 128 2003 272 
Q 2291 416 2624 698 
L 2624 1907 
Q 1894 1830 1462 1686 
Q 1030 1542 844 1334 
Q 659 1126 659 838 
Q 659 448 883 288 
Q 1107 128 1414 128 
z
" transform="scale(0.015625)"/>
      <path id="NotoSansSC-Thin-72" d="M 672 0 
L 672 3373 
L 864 3373 
L 902 2739 
L 915 2739 
Q 1082 3046 1325 3251 
Q 1568 3456 1869 3456 
Q 1958 3456 2035 3443 
Q 2112 3430 2195 3386 
L 2138 3174 
Q 2054 3206 1996 3219 
Q 1939 3232 1837 3232 
Q 1613 3232 1357 3030 
Q 1101 2829 902 2330 
L 902 0 
L 672 0 
z
" transform="scale(0.015625)"/>
      <path id="NotoSansSC-Thin-73" d="M 1466 -83 
Q 1088 -83 774 54 
Q 461 192 237 378 
L 384 563 
Q 595 384 851 256 
Q 1107 128 1478 128 
Q 1901 128 2115 339 
Q 2330 550 2330 838 
Q 2330 1062 2202 1209 
Q 2074 1357 1878 1453 
Q 1683 1549 1485 1619 
Q 1229 1715 985 1824 
Q 742 1933 582 2112 
Q 422 2291 422 2579 
Q 422 2816 544 3014 
Q 666 3213 902 3334 
Q 1139 3456 1485 3456 
Q 1741 3456 1990 3360 
Q 2240 3264 2419 3110 
L 2285 2938 
Q 2118 3066 1926 3155 
Q 1734 3245 1472 3245 
Q 1056 3245 857 3043 
Q 659 2842 659 2592 
Q 659 2394 771 2262 
Q 883 2131 1065 2044 
Q 1248 1958 1446 1882 
Q 1651 1805 1849 1725 
Q 2048 1645 2208 1536 
Q 2368 1427 2467 1264 
Q 2566 1101 2566 851 
Q 2566 602 2438 387 
Q 2310 173 2067 45 
Q 1824 -83 1466 -83 
z
" transform="scale(0.015625)"/>
      <path id="NotoSansSC-Thin-68" d="M 672 0 
L 672 5082 
L 902 5082 
L 902 3584 
L 902 2822 
Q 1171 3098 1449 3277 
Q 1728 3456 2080 3456 
Q 2598 3456 2848 3139 
Q 3098 2822 3098 2170 
L 3098 0 
L 2867 0 
L 2867 2138 
Q 2867 2694 2678 2969 
Q 2490 3245 2054 3245 
Q 1741 3245 1481 3078 
Q 1222 2912 902 2579 
L 902 0 
L 672 0 
z
" transform="scale(0.015625)"/>
      <path id="NotoSansSC-Thin-7f29" d="M 454 1248 
Q 448 1274 435 1312 
Q 422 1350 409 1392 
Q 397 1434 384 1459 
Q 467 1466 572 1584 
Q 678 1702 819 1882 
Q 890 1971 1034 2169 
Q 1178 2368 1360 2643 
Q 1542 2918 1728 3235 
Q 1914 3552 2074 3866 
L 2253 3776 
Q 1882 3110 1466 2483 
Q 1050 1856 627 1382 
L 627 1376 
Q 627 1376 601 1366 
Q 576 1357 541 1337 
Q 506 1318 480 1296 
Q 454 1274 454 1248 
z
M 454 1248 
L 454 1434 
L 589 1530 
L 1971 1837 
Q 1971 1792 1977 1744 
Q 1984 1696 1990 1664 
Q 1504 1549 1213 1475 
Q 922 1402 768 1360 
Q 614 1318 550 1292 
Q 486 1267 454 1248 
z
M 422 2765 
Q 416 2790 406 2828 
Q 397 2867 384 2905 
Q 371 2944 352 2970 
Q 429 2982 515 3097 
Q 602 3213 710 3379 
Q 768 3462 880 3654 
Q 992 3846 1133 4105 
Q 1274 4365 1414 4662 
Q 1555 4960 1670 5254 
L 1856 5178 
Q 1670 4762 1465 4352 
Q 1261 3942 1043 3574 
Q 826 3206 595 2906 
L 595 2899 
Q 595 2899 569 2886 
Q 544 2874 509 2854 
Q 474 2835 448 2812 
Q 422 2790 422 2765 
z
M 422 2765 
L 422 2944 
L 563 3027 
L 1741 3155 
Q 1734 3110 1737 3059 
Q 1741 3008 1741 2976 
Q 1331 2925 1084 2889 
Q 838 2854 704 2832 
Q 570 2810 512 2794 
Q 454 2778 422 2765 
z
M 352 243 
Q 710 358 1196 537 
Q 1683 717 2208 902 
L 2240 723 
Q 1747 544 1267 368 
Q 787 192 410 58 
L 352 243 
z
M 4531 3597 
L 4736 3539 
Q 4672 3277 4598 2985 
Q 4525 2694 4454 2490 
L 4275 2541 
Q 4320 2682 4371 2870 
Q 4422 3059 4464 3254 
Q 4506 3450 4531 3597 
z
M 2362 4659 
L 6022 4659 
L 6022 3827 
L 5837 3827 
L 5837 4474 
L 2547 4474 
L 2547 3738 
L 2362 3738 
L 2362 4659 
z
M 3085 3917 
L 3290 3866 
Q 3181 3507 3017 3113 
Q 2854 2720 2636 2358 
Q 2419 1997 2157 1715 
Q 2131 1741 2089 1776 
Q 2048 1811 2016 1830 
Q 2272 2106 2480 2461 
Q 2688 2816 2841 3193 
Q 2995 3571 3085 3917 
z
M 3411 3629 
L 5901 3629 
L 5901 3437 
L 3411 3437 
L 3411 3629 
z
M 3597 1389 
L 5734 1389 
L 5734 1197 
L 3597 1197 
L 3597 1389 
z
M 3520 2605 
L 5818 2605 
L 5818 -416 
L 5626 -416 
L 5626 2413 
L 3706 2413 
L 3706 -448 
L 3520 -448 
L 3520 2605 
z
M 2701 2701 
L 2874 2874 
L 2886 2861 
L 2886 -461 
L 2701 -461 
L 2701 2701 
z
M 3846 5235 
L 3987 5312 
Q 4096 5152 4208 4953 
Q 4320 4755 4371 4614 
L 4218 4531 
Q 4160 4672 4057 4873 
Q 3955 5075 3846 5235 
z
M 3616 77 
L 5741 77 
L 5741 -109 
L 3616 -109 
L 3616 77 
z
" transform="scale(0.015625)"/>
      <path id="NotoSansSC-Thin-8868" d="M 710 4640 
L 5741 4640 
L 5741 4454 
L 710 4454 
L 710 4640 
z
M 1043 3712 
L 5421 3712 
L 5421 3526 
L 1043 3526 
L 1043 3712 
z
M 474 2739 
L 5920 2739 
L 5920 2554 
L 474 2554 
L 474 2739 
z
M 3091 5318 
L 3283 5318 
L 3283 2579 
L 3091 2579 
L 3091 5318 
z
M 2995 2694 
L 3149 2605 
Q 2918 2336 2598 2080 
Q 2278 1824 1913 1593 
Q 1549 1363 1174 1177 
Q 800 992 461 870 
Q 448 896 422 925 
Q 397 954 374 982 
Q 352 1011 326 1030 
Q 672 1146 1046 1322 
Q 1421 1498 1782 1718 
Q 2144 1939 2457 2188 
Q 2771 2438 2995 2694 
z
M 3334 2694 
Q 3565 2042 3968 1501 
Q 4371 960 4915 573 
Q 5459 186 6118 -13 
Q 6099 -32 6073 -61 
Q 6048 -90 6025 -115 
Q 6003 -141 5984 -173 
Q 5325 45 4777 445 
Q 4230 845 3820 1401 
Q 3411 1958 3162 2637 
L 3334 2694 
z
M 5517 2182 
L 5670 2093 
Q 5376 1811 5001 1516 
Q 4627 1222 4301 1005 
L 4166 1107 
Q 4384 1248 4633 1437 
Q 4883 1626 5116 1821 
Q 5350 2016 5517 2182 
z
M 1722 -442 
L 1722 -275 
L 1856 -147 
L 3718 454 
Q 3718 416 3728 371 
Q 3738 326 3744 294 
Q 3091 70 2704 -64 
Q 2317 -198 2118 -268 
Q 1920 -339 1840 -374 
Q 1760 -410 1722 -442 
z
M 1722 -442 
Q 1715 -416 1696 -381 
Q 1677 -346 1657 -310 
Q 1638 -275 1619 -250 
Q 1670 -224 1731 -157 
Q 1792 -90 1792 83 
L 1792 1702 
L 1984 1702 
L 1984 -211 
Q 1984 -211 1958 -227 
Q 1933 -243 1894 -268 
Q 1856 -294 1814 -326 
Q 1773 -358 1747 -387 
Q 1722 -416 1722 -442 
z
" transform="scale(0.015625)"/>
      <path id="NotoSansSC-Thin-9884" d="M 442 4966 
L 2560 4966 
L 2560 4781 
L 442 4781 
L 442 4966 
z
M 314 2963 
L 2771 2963 
L 2771 2771 
L 314 2771 
L 314 2963 
z
M 1472 2912 
L 1658 2912 
L 1658 -141 
Q 1658 -262 1619 -320 
Q 1581 -378 1485 -403 
Q 1389 -429 1193 -432 
Q 998 -435 659 -435 
Q 653 -403 630 -352 
Q 608 -301 582 -256 
Q 870 -262 1078 -262 
Q 1286 -262 1350 -256 
Q 1421 -250 1446 -227 
Q 1472 -205 1472 -141 
L 1472 2912 
z
M 2496 4966 
L 2541 4966 
L 2579 4979 
L 2714 4902 
Q 2566 4659 2371 4419 
Q 2176 4179 1965 3964 
Q 1754 3750 1555 3590 
Q 1530 3622 1494 3648 
Q 1459 3674 1427 3699 
Q 1619 3853 1820 4061 
Q 2022 4269 2201 4496 
Q 2381 4723 2496 4922 
L 2496 4966 
z
M 2726 2963 
L 2765 2963 
L 2803 2976 
L 2931 2918 
Q 2784 2579 2621 2224 
Q 2458 1869 2310 1632 
L 2144 1696 
Q 2240 1850 2342 2054 
Q 2445 2259 2544 2483 
Q 2643 2707 2726 2912 
L 2726 2963 
z
M 691 4064 
L 826 4179 
Q 1075 4006 1347 3801 
Q 1619 3597 1868 3405 
Q 2118 3213 2278 3066 
L 2144 2925 
Q 1984 3072 1737 3270 
Q 1491 3469 1216 3680 
Q 941 3891 691 4064 
z
M 3014 4992 
L 6067 4992 
L 6067 4806 
L 3014 4806 
L 3014 4992 
z
M 4550 4928 
L 4762 4883 
Q 4672 4634 4579 4358 
Q 4486 4083 4390 3885 
L 4211 3930 
Q 4301 4134 4397 4422 
Q 4493 4710 4550 4928 
z
M 4416 3283 
L 4608 3283 
L 4608 1894 
Q 4608 1606 4557 1289 
Q 4506 973 4326 665 
Q 4147 358 3785 80 
Q 3424 -198 2797 -422 
Q 2778 -390 2749 -345 
Q 2720 -301 2688 -269 
Q 3296 -70 3645 192 
Q 3994 454 4157 745 
Q 4320 1037 4368 1331 
Q 4416 1626 4416 1894 
L 4416 3283 
z
M 4646 704 
L 4787 832 
Q 5011 672 5251 473 
Q 5491 275 5699 83 
Q 5907 -109 6035 -256 
L 5894 -410 
Q 5766 -256 5558 -61 
Q 5350 134 5113 336 
Q 4877 538 4646 704 
z
M 3270 3974 
L 5805 3974 
L 5805 973 
L 5613 973 
L 5613 3782 
L 3456 3782 
L 3456 973 
L 3270 973 
L 3270 3974 
z
" transform="scale(0.015625)"/>
     </defs>
     <use xlink:href="#NotoSansSC-Thin-57"/>
     <use xlink:href="#NotoSansSC-Thin-61" transform="translate(84.199982 0)"/>
     <use xlink:href="#NotoSansSC-Thin-72" transform="translate(137.799973 0)"/>
     <use xlink:href="#NotoSansSC-Thin-73" transform="translate(171.699966 0)"/>
     <use xlink:href="#NotoSansSC-Thin-68" transform="translate(215.799957 0)"/>
     <use xlink:href="#NotoSansSC-Thin-7f29" transform="translate(273.299942 0)"/>
     <use xlink:href="#NotoSansSC-Thin-8868" transform="translate(373.299927 0)"/>
     <use xlink:href="#NotoSansSC-Thin-9884" transform="translate(473.299911 0)"/>
     <use xlink:href="#NotoSansSC-Thin-671f" transform="translate(573.299896 0)"/>
    </g>
    <!-- 推升长端利率 -->
    <g style="fill: #ef4444" transform="translate(252.277622 143.295538) scale(0.08 -0.08)">
     <defs>
      <path id="NotoSansSC-Thin-63a8" d="M 262 1747 
Q 627 1869 1148 2051 
Q 1670 2234 2221 2432 
L 2253 2240 
Q 1747 2061 1241 1878 
Q 736 1696 346 1549 
L 262 1747 
z
M 301 3949 
L 2227 3949 
L 2227 3757 
L 301 3757 
L 301 3949 
z
M 1229 5312 
L 1421 5312 
L 1421 -147 
Q 1421 -275 1376 -332 
Q 1331 -390 1242 -416 
Q 1158 -442 988 -448 
Q 819 -454 518 -448 
Q 512 -416 489 -365 
Q 467 -314 442 -269 
Q 685 -275 870 -275 
Q 1056 -275 1114 -269 
Q 1171 -269 1200 -243 
Q 1229 -218 1229 -147 
L 1229 5312 
z
M 2848 2848 
L 5792 2848 
L 5792 2662 
L 2848 2662 
L 2848 2848 
z
M 2848 1549 
L 5792 1549 
L 5792 1363 
L 2848 1363 
L 2848 1549 
z
M 2835 230 
L 6029 230 
L 6029 45 
L 2835 45 
L 2835 230 
z
M 3213 5280 
L 3398 5235 
Q 3238 4749 3036 4281 
Q 2835 3814 2601 3404 
Q 2368 2995 2106 2675 
Q 2086 2688 2054 2710 
Q 2022 2733 1990 2755 
Q 1958 2778 1933 2790 
Q 2202 3098 2438 3498 
Q 2675 3898 2873 4352 
Q 3072 4806 3213 5280 
z
M 2938 4134 
L 5914 4134 
L 5914 3949 
L 2938 3949 
L 2938 -442 
L 2746 -442 
L 2746 3974 
L 2893 4134 
L 2938 4134 
z
M 4307 4026 
L 4499 4026 
L 4499 134 
L 4307 134 
L 4307 4026 
z
M 4102 5203 
L 4269 5261 
Q 4429 5030 4576 4758 
Q 4723 4486 4787 4288 
L 4614 4211 
Q 4544 4416 4397 4694 
Q 4250 4973 4102 5203 
z
" transform="scale(0.015625)"/>
      <path id="NotoSansSC-Thin-5347" d="M 1894 4525 
L 2086 4525 
L 2086 2726 
Q 2086 2278 2032 1846 
Q 1978 1414 1814 1004 
Q 1651 595 1324 224 
Q 998 -147 448 -467 
Q 435 -442 412 -419 
Q 390 -397 364 -371 
Q 339 -346 314 -333 
Q 851 -19 1168 339 
Q 1485 698 1641 1088 
Q 1798 1478 1846 1891 
Q 1894 2304 1894 2726 
L 1894 4525 
z
M 4371 5165 
L 4563 5165 
L 4563 -454 
L 4371 -454 
L 4371 5165 
z
M 378 2688 
L 6029 2688 
L 6029 2496 
L 378 2496 
L 378 2688 
z
M 3290 5152 
L 3469 5011 
Q 3123 4819 2633 4643 
Q 2144 4467 1600 4316 
Q 1056 4166 531 4045 
Q 525 4077 502 4121 
Q 480 4166 454 4198 
Q 966 4320 1507 4470 
Q 2048 4621 2521 4793 
Q 2995 4966 3290 5152 
z
" transform="scale(0.015625)"/>
      <path id="NotoSansSC-Thin-957f" d="M 1638 -435 
Q 1632 -410 1613 -374 
Q 1594 -339 1578 -300 
Q 1562 -262 1542 -237 
Q 1600 -218 1677 -157 
Q 1754 -96 1754 70 
L 1754 5267 
L 1939 5267 
L 1939 -224 
Q 1939 -224 1910 -240 
Q 1882 -256 1837 -278 
Q 1792 -301 1744 -329 
Q 1696 -358 1667 -387 
Q 1638 -416 1638 -435 
z
M 1638 -435 
L 1638 -269 
L 1786 -147 
L 3654 371 
Q 3654 333 3660 285 
Q 3667 237 3674 211 
Q 3014 19 2627 -99 
Q 2240 -218 2041 -282 
Q 1843 -346 1760 -378 
Q 1677 -410 1638 -435 
z
M 390 2720 
L 6010 2720 
L 6010 2528 
L 390 2528 
L 390 2720 
z
M 3302 2669 
Q 3546 1997 3955 1443 
Q 4365 890 4921 493 
Q 5478 96 6144 -115 
Q 6118 -134 6092 -163 
Q 6067 -192 6044 -221 
Q 6022 -250 6003 -282 
Q 5338 -51 4778 361 
Q 4218 774 3798 1344 
Q 3379 1914 3123 2611 
L 3302 2669 
z
M 5037 5152 
L 5216 5082 
Q 4896 4685 4483 4326 
Q 4070 3968 3616 3664 
Q 3162 3360 2707 3123 
Q 2694 3142 2662 3168 
Q 2630 3194 2598 3222 
Q 2566 3251 2534 3264 
Q 3008 3482 3469 3776 
Q 3930 4070 4333 4422 
Q 4736 4774 5037 5152 
z
" transform="scale(0.015625)"/>
      <path id="NotoSansSC-Thin-7aef" d="M 2438 2970 
L 6086 2970 
L 6086 2778 
L 2438 2778 
L 2438 2970 
z
M 3680 1939 
L 3872 1939 
L 3872 -378 
L 3680 -378 
L 3680 1939 
z
M 4704 1939 
L 4896 1939 
L 4896 -352 
L 4704 -352 
L 4704 1939 
z
M 4147 5312 
L 4333 5312 
L 4333 3674 
L 4147 3674 
L 4147 5312 
z
M 2701 2010 
L 5824 2010 
L 5824 1818 
L 2886 1818 
L 2886 -448 
L 2701 -448 
L 2701 2010 
z
M 5734 2010 
L 5920 2010 
L 5920 -211 
Q 5920 -301 5897 -349 
Q 5875 -397 5805 -416 
Q 5728 -442 5603 -448 
Q 5478 -454 5254 -454 
Q 5248 -422 5222 -374 
Q 5197 -326 5171 -288 
Q 5350 -294 5481 -294 
Q 5613 -294 5658 -288 
Q 5734 -288 5734 -211 
L 5734 2010 
z
M 4173 2912 
L 4378 2874 
Q 4320 2630 4265 2358 
Q 4211 2086 4154 1901 
L 3981 1939 
Q 4032 2138 4089 2422 
Q 4147 2707 4173 2912 
z
M 2765 4986 
L 2957 4986 
L 2957 3776 
L 5651 3776 
L 5651 4986 
L 5843 4986 
L 5843 3590 
L 2765 3590 
L 2765 4986 
z
M 378 4026 
L 2522 4026 
L 2522 3840 
L 378 3840 
L 378 4026 
z
M 371 448 
Q 787 544 1372 704 
Q 1958 864 2573 1024 
L 2598 838 
Q 2016 678 1446 524 
Q 877 371 435 250 
L 371 448 
z
M 634 3437 
L 813 3469 
Q 902 3078 976 2636 
Q 1050 2195 1104 1772 
Q 1158 1350 1171 1011 
L 998 986 
Q 979 1325 928 1747 
Q 877 2170 800 2611 
Q 723 3053 634 3437 
z
M 2054 3546 
L 2246 3494 
Q 2195 3168 2134 2793 
Q 2074 2419 2003 2035 
Q 1933 1651 1865 1302 
Q 1798 954 1728 685 
L 1568 736 
Q 1638 1005 1705 1357 
Q 1773 1709 1840 2096 
Q 1907 2483 1961 2857 
Q 2016 3232 2054 3546 
z
M 1075 5184 
L 1242 5248 
Q 1389 5024 1526 4755 
Q 1664 4486 1728 4288 
L 1549 4211 
Q 1485 4410 1344 4685 
Q 1203 4960 1075 5184 
z
" transform="scale(0.015625)"/>
      <path id="NotoSansSC-Thin-5229" d="M 358 3360 
L 3379 3360 
L 3379 3174 
L 358 3174 
L 358 3360 
z
M 3930 4570 
L 4115 4570 
L 4115 1094 
L 3930 1094 
L 3930 4570 
z
M 1818 4870 
L 2010 4870 
L 2010 -435 
L 1818 -435 
L 1818 4870 
z
M 5555 5197 
L 5747 5197 
L 5747 -109 
Q 5747 -269 5689 -336 
Q 5632 -403 5523 -429 
Q 5408 -454 5168 -460 
Q 4928 -467 4486 -461 
Q 4480 -435 4464 -406 
Q 4448 -378 4432 -342 
Q 4416 -307 4397 -282 
Q 4768 -288 5037 -288 
Q 5306 -288 5389 -282 
Q 5478 -275 5516 -240 
Q 5555 -205 5555 -115 
L 5555 5197 
z
M 3078 5267 
L 3245 5120 
Q 2912 4986 2435 4874 
Q 1958 4762 1430 4675 
Q 902 4589 410 4525 
Q 403 4563 384 4608 
Q 365 4653 339 4685 
Q 698 4736 1088 4797 
Q 1478 4858 1849 4931 
Q 2221 5005 2541 5088 
Q 2861 5171 3078 5267 
z
M 1792 3290 
L 1958 3226 
Q 1837 2861 1654 2473 
Q 1472 2086 1254 1721 
Q 1037 1357 803 1046 
Q 570 736 346 525 
Q 333 550 307 576 
Q 282 602 259 630 
Q 237 659 218 678 
Q 435 883 662 1177 
Q 890 1472 1104 1824 
Q 1318 2176 1497 2550 
Q 1677 2925 1792 3290 
z
M 1997 2611 
Q 2086 2541 2268 2384 
Q 2451 2227 2662 2041 
Q 2874 1856 3053 1696 
Q 3232 1536 3315 1466 
L 3194 1318 
Q 3104 1408 2928 1571 
Q 2752 1734 2547 1920 
Q 2342 2106 2160 2262 
Q 1978 2419 1869 2496 
L 1997 2611 
z
" transform="scale(0.015625)"/>
     </defs>
     <use xlink:href="#NotoSansSC-Thin-63a8"/>
     <use xlink:href="#NotoSansSC-Thin-5347" transform="translate(99.999985 0)"/>
     <use xlink:href="#NotoSansSC-Thin-957f" transform="translate(199.999969 0)"/>
     <use xlink:href="#NotoSansSC-Thin-7aef" transform="translate(299.999954 0)"/>
     <use xlink:href="#NotoSansSC-Thin-5229" transform="translate(399.999939 0)"/>
     <use xlink:href="#NotoSansSC-Thin-7387" transform="translate(499.999924 0)"/>
    </g>
   </g>
   <g id="text_19">
    <!-- 中国10年期 2.3% -->
    <g style="fill: #d4a017; opacity: 0.7" transform="translate(135.246534 59.102813) rotate(-90) scale(0.07 -0.07)">
     <defs>
      <path id="NotoSansSC-Thin-4e2d" d="M 672 4141 
L 5696 4141 
L 5696 1331 
L 5510 1331 
L 5510 3955 
L 858 3955 
L 858 1299 
L 672 1299 
L 672 4141 
z
M 781 1926 
L 5638 1926 
L 5638 1741 
L 781 1741 
L 781 1926 
z
M 3085 5318 
L 3277 5318 
L 3277 -435 
L 3085 -435 
L 3085 5318 
z
" transform="scale(0.015625)"/>
      <path id="NotoSansSC-Thin-56fd" d="M 1510 4051 
L 4928 4051 
L 4928 3866 
L 1510 3866 
L 1510 4051 
z
M 1702 2650 
L 4755 2650 
L 4755 2458 
L 1702 2458 
L 1702 2650 
z
M 1395 1056 
L 5094 1056 
L 5094 864 
L 1395 864 
L 1395 1056 
z
M 3072 3994 
L 3264 3994 
L 3264 947 
L 3072 947 
L 3072 3994 
z
M 3859 2093 
L 3994 2182 
Q 4218 2010 4435 1789 
Q 4653 1568 4768 1402 
L 4621 1293 
Q 4506 1459 4288 1686 
Q 4070 1914 3859 2093 
z
M 608 4986 
L 5805 4986 
L 5805 -461 
L 5613 -461 
L 5613 4800 
L 800 4800 
L 800 -461 
L 608 -461 
L 608 4986 
z
M 704 51 
L 5702 51 
L 5702 -134 
L 704 -134 
L 704 51 
z
" transform="scale(0.015625)"/>
     </defs>
     <use xlink:href="#NotoSansSC-Thin-4e2d"/>
     <use xlink:href="#NotoSansSC-Thin-56fd" transform="translate(99.999985 0)"/>
     <use xlink:href="#NotoSansSC-Thin-31" transform="translate(199.999969 0)"/>
     <use xlink:href="#NotoSansSC-Thin-30" transform="translate(252.09996 0)"/>
     <use xlink:href="#NotoSansSC-Thin-5e74" transform="translate(304.199951 0)"/>
     <use xlink:href="#NotoSansSC-Thin-671f" transform="translate(404.199936 0)"/>
     <use xlink:href="#NotoSansSC-Thin-20" transform="translate(504.199921 0)"/>
     <use xlink:href="#NotoSansSC-Thin-32" transform="translate(526.199905 0)"/>
     <use xlink:href="#NotoSansSC-Thin-2e" transform="translate(578.299896 0)"/>
     <use xlink:href="#NotoSansSC-Thin-33" transform="translate(601.399887 0)"/>
     <use xlink:href="#NotoSansSC-Thin-25" transform="translate(653.499878 0)"/>
    </g>
   </g>
   <g id="text_20">
    <!-- 美国国债收益率 — 2026.05.22收盘 -->
    <g style="fill: #1e293b" transform="translate(88.059444 47.549369) scale(0.13 -0.13)">
     <defs>
      <path id="NotoSansSC-Thin-7f8e" d="M 659 4314 
L 5747 4314 
L 5747 4128 
L 659 4128 
L 659 4314 
z
M 998 3405 
L 5434 3405 
L 5434 3219 
L 998 3219 
L 998 3405 
z
M 538 1626 
L 5990 1626 
L 5990 1440 
L 538 1440 
L 538 1626 
z
M 403 2470 
L 6022 2470 
L 6022 2285 
L 403 2285 
L 403 2470 
z
M 3091 4250 
L 3283 4250 
L 3283 2387 
L 3091 2387 
L 3091 4250 
z
M 1517 5235 
L 1677 5318 
Q 1869 5120 2048 4873 
Q 2227 4627 2310 4442 
L 2138 4346 
Q 2054 4538 1878 4787 
Q 1702 5037 1517 5235 
z
M 4666 5318 
L 4838 5216 
Q 4678 4954 4473 4656 
Q 4269 4358 4096 4154 
L 3962 4243 
Q 4077 4384 4208 4576 
Q 4339 4768 4460 4963 
Q 4582 5158 4666 5318 
z
M 3110 2426 
L 3309 2426 
Q 3251 1946 3145 1549 
Q 3040 1152 2845 835 
Q 2650 518 2333 275 
Q 2016 32 1552 -141 
Q 1088 -314 442 -422 
Q 435 -403 416 -371 
Q 397 -339 377 -307 
Q 358 -275 339 -256 
Q 979 -154 1433 12 
Q 1888 179 2192 409 
Q 2496 640 2681 937 
Q 2867 1235 2966 1606 
Q 3066 1978 3110 2426 
z
M 3328 1581 
Q 3642 832 4349 381 
Q 5056 -70 6029 -237 
Q 6010 -256 5984 -288 
Q 5958 -320 5936 -352 
Q 5914 -384 5901 -416 
Q 5254 -282 4710 -29 
Q 4166 224 3766 611 
Q 3366 998 3142 1517 
L 3328 1581 
z
" transform="scale(0.015625)"/>
      <path id="NotoSansSC-Thin-503a" d="M 2150 4698 
L 5658 4698 
L 5658 4512 
L 2150 4512 
L 2150 4698 
z
M 2342 3974 
L 5491 3974 
L 5491 3789 
L 2342 3789 
L 2342 3974 
z
M 1990 3168 
L 5920 3168 
L 5920 2982 
L 1990 2982 
L 1990 3168 
z
M 3885 5318 
L 4070 5318 
L 4070 3034 
L 3885 3034 
L 3885 5318 
z
M 3814 1792 
L 4000 1792 
L 4000 1126 
Q 4000 928 3939 717 
Q 3878 506 3676 294 
Q 3475 83 3065 -105 
Q 2656 -294 1965 -442 
Q 1952 -410 1920 -362 
Q 1888 -314 1856 -282 
Q 2528 -147 2921 22 
Q 3315 192 3507 384 
Q 3699 576 3756 765 
Q 3814 954 3814 1126 
L 3814 1792 
z
M 4134 442 
L 4262 563 
Q 4563 454 4896 310 
Q 5229 166 5526 19 
Q 5824 -128 6029 -256 
L 5901 -410 
Q 5709 -275 5411 -121 
Q 5114 32 4778 179 
Q 4442 326 4134 442 
z
M 2387 2451 
L 5555 2451 
L 5555 653 
L 5363 653 
L 5363 2266 
L 2573 2266 
L 2573 653 
L 2387 653 
L 2387 2451 
z
M 1741 5293 
L 1920 5248 
Q 1747 4717 1520 4208 
Q 1293 3699 1030 3248 
Q 768 2797 480 2438 
Q 467 2458 438 2486 
Q 410 2515 384 2544 
Q 358 2573 333 2592 
Q 621 2931 880 3366 
Q 1139 3802 1360 4294 
Q 1581 4787 1741 5293 
z
M 1152 3763 
L 1325 3942 
L 1338 3936 
L 1338 -435 
L 1152 -435 
L 1152 3763 
z
" transform="scale(0.015625)"/>
      <path id="NotoSansSC-Thin-2014" d="M 282 1664 
L 282 1862 
L 5350 1862 
L 5350 1664 
L 282 1664 
z
" transform="scale(0.015625)"/>
      <path id="NotoSansSC-Thin-76d8" d="M 1568 4819 
L 5018 4819 
L 5018 4627 
L 1568 4627 
L 1568 4819 
z
M 358 3450 
L 6093 3450 
L 6093 3264 
L 358 3264 
L 358 3450 
z
M 1485 4819 
L 1677 4819 
L 1677 3680 
Q 1677 3360 1603 3001 
Q 1530 2643 1315 2300 
Q 1101 1958 678 1677 
Q 666 1702 643 1728 
Q 621 1754 598 1779 
Q 576 1805 550 1818 
Q 954 2086 1155 2403 
Q 1357 2720 1421 3049 
Q 1485 3379 1485 3680 
L 1485 4819 
z
M 4902 4819 
L 5088 4819 
L 5088 2163 
Q 5088 2061 5053 2003 
Q 5018 1946 4928 1914 
Q 4845 1888 4656 1881 
Q 4467 1875 4154 1875 
Q 4147 1920 4121 1968 
Q 4096 2016 4070 2061 
Q 4339 2054 4534 2054 
Q 4730 2054 4794 2061 
Q 4902 2067 4902 2157 
L 4902 4819 
z
M 3091 5389 
L 3283 5325 
Q 3200 5146 3117 4966 
Q 3034 4787 2957 4653 
L 2797 4710 
Q 2874 4858 2960 5053 
Q 3046 5248 3091 5389 
z
M 2592 4333 
L 2720 4442 
Q 2880 4352 3040 4233 
Q 3200 4115 3341 3993 
Q 3482 3872 3571 3763 
L 3443 3648 
Q 3360 3750 3219 3875 
Q 3078 4000 2915 4121 
Q 2752 4243 2592 4333 
z
M 2586 2912 
L 2714 3021 
Q 2893 2918 3075 2784 
Q 3258 2650 3418 2515 
Q 3578 2381 3674 2266 
L 3552 2144 
Q 3456 2266 3296 2403 
Q 3136 2541 2950 2675 
Q 2765 2810 2586 2912 
z
M 307 -77 
L 6099 -77 
L 6099 -262 
L 307 -262 
L 307 -77 
z
M 1062 1632 
L 5312 1632 
L 5312 -166 
L 5126 -166 
L 5126 1446 
L 3955 1446 
L 3955 -166 
L 3763 -166 
L 3763 1446 
L 2598 1446 
L 2598 -166 
L 2413 -166 
L 2413 1446 
L 1248 1446 
L 1248 -166 
L 1062 -166 
L 1062 1632 
z
" transform="scale(0.015625)"/>
     </defs>
     <use xlink:href="#NotoSansSC-Thin-7f8e"/>
     <use xlink:href="#NotoSansSC-Thin-56fd" transform="translate(99.999985 0)"/>
     <use xlink:href="#NotoSansSC-Thin-56fd" transform="translate(199.999969 0)"/>
     <use xlink:href="#NotoSansSC-Thin-503a" transform="translate(299.999954 0)"/>
     <use xlink:href="#NotoSansSC-Thin-6536" transform="translate(399.999939 0)"/>
     <use xlink:href="#NotoSansSC-Thin-76ca" transform="translate(499.999924 0)"/>
     <use xlink:href="#NotoSansSC-Thin-7387" transform="translate(599.999908 0)"/>
     <use xlink:href="#NotoSansSC-Thin-20" transform="translate(699.999893 0)"/>
     <use xlink:href="#NotoSansSC-Thin-2014" transform="translate(721.999878 0)"/>
     <use xlink:href="#NotoSansSC-Thin-20" transform="translate(810.099869 0)"/>
     <use xlink:href="#NotoSansSC-Thin-32" transform="translate(832.099854 0)"/>
     <use xlink:href="#NotoSansSC-Thin-30" transform="translate(884.199844 0)"/>
     <use xlink:href="#NotoSansSC-Thin-32" transform="translate(936.299835 0)"/>
     <use xlink:href="#NotoSansSC-Thin-36" transform="translate(988.399826 0)"/>
     <use xlink:href="#NotoSansSC-Thin-2e" transform="translate(1040.499817 0)"/>
     <use xlink:href="#NotoSansSC-Thin-30" transform="translate(1063.599808 0)"/>
     <use xlink:href="#NotoSansSC-Thin-35" transform="translate(1115.699799 0)"/>
     <use xlink:href="#NotoSansSC-Thin-2e" transform="translate(1167.799789 0)"/>
     <use xlink:href="#NotoSansSC-Thin-32" transform="translate(1190.89978 0)"/>
     <use xlink:href="#NotoSansSC-Thin-32" transform="translate(1242.999771 0)"/>
     <use xlink:href="#NotoSansSC-Thin-6536" transform="translate(1295.099762 0)"/>
     <use xlink:href="#NotoSansSC-Thin-76d8" transform="translate(1395.099747 0)"/>
    </g>
   </g>
  </g>
 </g>
 <defs>
  <clipPath id="p182910eb98">
   <rect x="41.576875" y="59.549369" width="287.3192" height="110.23"/>
  </clipPath>
 </defs>
</svg>
