<?xml version="1.0" encoding="utf-8" standalone="no"?>
<!DOCTYPE svg PUBLIC "-//W3C//DTD SVG 1.1//EN"
  "http://www.w3.org/Graphics/SVG/1.1/DTD/svg11.dtd">
<svg xmlns:xlink="http://www.w3.org/1999/xlink" width="379.573295pt" height="185.923469pt" viewBox="0 0 379.573295 185.923469" xmlns="http://www.w3.org/2000/svg" version="1.1">
 <metadata>
  <rdf:RDF xmlns:dc="http://purl.org/dc/elements/1.1/" xmlns:cc="http://creativecommons.org/ns#" xmlns:rdf="http://www.w3.org/1999/02/22-rdf-syntax-ns#">
   <cc:Work>
    <dc:type rdf:resource="http://purl.org/dc/dcmitype/StillImage"/>
    <dc:date>2026-06-29T19:35:13.644349</dc:date>
    <dc:format>image/svg+xml</dc:format>
    <dc:creator>
     <cc:Agent>
      <dc:title>Matplotlib v3.11.0, https://matplotlib.org/</dc:title>
     </cc:Agent>
    </dc:creator>
   </cc:Work>
  </rdf:RDF>
 </metadata>
 <defs>
  <style type="text/css">*{stroke-linejoin: round; stroke-linecap: butt}</style>
 </defs>
 <g id="figure_1">
  <g id="patch_1">
   <path d="M 0 185.923469 
L 379.573295 185.923469 
L 379.573295 0 
L 0 0 
z
" style="fill: #ffffff"/>
  </g>
  <g id="axes_1">
   <g id="patch_2">
    <path d="M 23.08 148.73625 
L 352.87 148.73625 
L 352.87 25.76 
L 23.08 25.76 
z
" style="fill: #ffffff"/>
   </g>
   <g id="patch_3">
    <path d="M 23.08 143.14642 
L 352.87 143.14642 
L 352.87 88.258969 
L 23.08 88.258969 
z
" clip-path="url(#p314ad0b327)" style="fill: #16a34a; opacity: 0.06"/>
   </g>
   <g id="patch_4">
    <path d="M 23.08 88.258969 
L 352.87 88.258969 
L 352.87 69.963152 
L 23.08 69.963152 
z
" clip-path="url(#p314ad0b327)" style="fill: #d4a017; opacity: 0.06"/>
   </g>
   <g id="patch_5">
    <path d="M 23.08 69.963152 
L 352.87 69.963152 
L 352.87 31.34983 
L 23.08 31.34983 
z
" clip-path="url(#p314ad0b327)" style="fill: #dc2626; opacity: 0.06"/>
   </g>
   <g id="matplotlib.axis_1">
    <g id="xtick_1">
     <g id="line2d_1">
      <defs>
       <path id="mecdc390e90" d="M 0 0 
L 0 3.5 
" style="stroke: #64748b; stroke-width: 0.8"/>
      </defs>
      <g>
       <use xlink:href="#mecdc390e90" x="38.070455" y="148.73625" style="fill: #64748b; stroke: #64748b; stroke-width: 0.8"/>
      </g>
     </g>
     <g id="text_1">
      <!-- 06/05 -->
      <g style="fill: #64748b" transform="translate(27.62233 162.77625) scale(0.08 -0.08)">
       <defs>
        <path id="NotoSansSC-Regular-11" d="M 1779 -83 
C 2669 -83 3238 730 3238 2362 
C 3238 3987 2669 4781 1779 4781 
C 883 4781 314 3994 314 2362 
C 314 730 883 -83 1779 -83 
z
M 1779 384 
C 1242 384 883 979 883 2362 
C 883 3731 1242 4314 1779 4314 
C 2310 4314 2669 3731 2669 2362 
C 2669 979 2310 384 1779 384 
z
" transform="scale(0.015625)"/>
        <path id="NotoSansSC-Regular-17" d="M 1875 2477 
C 2445 2477 2726 2074 2726 1440 
C 2726 800 2374 371 1926 371 
C 1338 371 986 902 915 1875 
C 1203 2304 1581 2477 1875 2477 
z
M 1926 -83 
C 2656 -83 3270 531 3270 1440 
C 3270 2419 2765 2912 1971 2912 
C 1600 2912 1190 2694 902 2342 
C 928 3802 1472 4294 2112 4294 
C 2400 4294 2682 4160 2867 3936 
L 3187 4301 
C 2931 4576 2579 4781 2093 4781 
C 1184 4781 358 4077 358 2240 
C 358 691 1024 -83 1926 -83 
z
" transform="scale(0.015625)"/>
        <path id="NotoSansSC-Regular-10" d="M 70 -1146 
L 499 -1146 
L 2413 5082 
L 1990 5082 
L 70 -1146 
z
" transform="scale(0.015625)"/>
        <path id="NotoSansSC-Regular-16" d="M 1670 -83 
C 2464 -83 3206 499 3206 1530 
C 3206 2560 2573 3021 1792 3021 
C 1510 3021 1306 2950 1094 2835 
L 1210 4192 
L 2982 4192 
L 2982 4698 
L 698 4698 
L 550 2496 
L 864 2304 
C 1133 2483 1331 2579 1645 2579 
C 2234 2579 2618 2182 2618 1510 
C 2618 826 2170 403 1619 403 
C 1075 403 736 653 467 922 
L 179 538 
C 493 224 941 -83 1670 -83 
z
" transform="scale(0.015625)"/>
       </defs>
       <use xlink:href="#NotoSansSC-Regular-11"/>
       <use xlink:href="#NotoSansSC-Regular-17" transform="translate(55.5 0)"/>
       <use xlink:href="#NotoSansSC-Regular-10" transform="translate(111 0)"/>
       <use xlink:href="#NotoSansSC-Regular-11" transform="translate(150.203125 0)"/>
       <use xlink:href="#NotoSansSC-Regular-16" transform="translate(205.703125 0)"/>
      </g>
     </g>
    </g>
    <g id="xtick_2">
     <g id="line2d_2">
      <g>
       <use xlink:href="#mecdc390e90" x="98.032273" y="148.73625" style="fill: #64748b; stroke: #64748b; stroke-width: 0.8"/>
      </g>
     </g>
     <g id="text_2">
      <!-- 06/07 -->
      <g style="fill: #64748b" transform="translate(87.584148 162.77625) scale(0.08 -0.08)">
       <defs>
        <path id="NotoSansSC-Regular-18" d="M 1267 0 
L 1875 0 
C 1946 1837 2150 2931 3251 4339 
L 3251 4698 
L 314 4698 
L 314 4192 
L 2586 4192 
C 1670 2912 1344 1779 1267 0 
z
" transform="scale(0.015625)"/>
       </defs>
       <use xlink:href="#NotoSansSC-Regular-11"/>
       <use xlink:href="#NotoSansSC-Regular-17" transform="translate(55.5 0)"/>
       <use xlink:href="#NotoSansSC-Regular-10" transform="translate(111 0)"/>
       <use xlink:href="#NotoSansSC-Regular-11" transform="translate(150.203125 0)"/>
       <use xlink:href="#NotoSansSC-Regular-18" transform="translate(205.703125 0)"/>
      </g>
     </g>
    </g>
    <g id="xtick_3">
     <g id="line2d_3">
      <g>
       <use xlink:href="#mecdc390e90" x="157.994091" y="148.73625" style="fill: #64748b; stroke: #64748b; stroke-width: 0.8"/>
      </g>
     </g>
     <g id="text_3">
      <!-- 06/09 -->
      <g style="fill: #64748b" transform="translate(147.545966 162.77625) scale(0.08 -0.08)">
       <defs>
        <path id="NotoSansSC-Regular-1a" d="M 832 3258 
C 832 3898 1178 4320 1626 4320 
C 2227 4320 2586 3808 2650 2842 
C 2349 2400 1990 2214 1670 2214 
C 1114 2214 832 2624 832 3258 
z
M 1498 -83 
C 2381 -83 3200 646 3200 2547 
C 3200 4038 2528 4781 1626 4781 
C 896 4781 282 4166 282 3258 
C 282 2285 794 1779 1574 1779 
C 1965 1779 2368 2003 2656 2355 
C 2611 902 2086 403 1478 403 
C 1178 403 890 538 698 762 
L 371 397 
C 634 122 992 -83 1498 -83 
z
" transform="scale(0.015625)"/>
       </defs>
       <use xlink:href="#NotoSansSC-Regular-11"/>
       <use xlink:href="#NotoSansSC-Regular-17" transform="translate(55.5 0)"/>
       <use xlink:href="#NotoSansSC-Regular-10" transform="translate(111 0)"/>
       <use xlink:href="#NotoSansSC-Regular-11" transform="translate(150.203125 0)"/>
       <use xlink:href="#NotoSansSC-Regular-1a" transform="translate(205.703125 0)"/>
      </g>
     </g>
    </g>
    <g id="xtick_4">
     <g id="line2d_4">
      <g>
       <use xlink:href="#mecdc390e90" x="217.955909" y="148.73625" style="fill: #64748b; stroke: #64748b; stroke-width: 0.8"/>
      </g>
     </g>
     <g id="text_4">
      <!-- 06/11 -->
      <g style="fill: #64748b" transform="translate(207.507784 162.77625) scale(0.08 -0.08)">
       <defs>
        <path id="NotoSansSC-Regular-12" d="M 563 0 
L 3136 0 
L 3136 486 
L 2195 486 
L 2195 4698 
L 1747 4698 
C 1491 4544 1190 4435 774 4358 
L 774 3987 
L 1606 3987 
L 1606 486 
L 563 486 
L 563 0 
z
" transform="scale(0.015625)"/>
       </defs>
       <use xlink:href="#NotoSansSC-Regular-11"/>
       <use xlink:href="#NotoSansSC-Regular-17" transform="translate(55.5 0)"/>
       <use xlink:href="#NotoSansSC-Regular-10" transform="translate(111 0)"/>
       <use xlink:href="#NotoSansSC-Regular-12" transform="translate(150.203125 0)"/>
       <use xlink:href="#NotoSansSC-Regular-12" transform="translate(205.703125 0)"/>
      </g>
     </g>
    </g>
    <g id="xtick_5">
     <g id="line2d_5">
      <g>
       <use xlink:href="#mecdc390e90" x="277.917727" y="148.73625" style="fill: #64748b; stroke: #64748b; stroke-width: 0.8"/>
      </g>
     </g>
     <g id="text_5">
      <!-- 06/13 -->
      <g style="fill: #64748b" transform="translate(267.469602 162.77625) scale(0.08 -0.08)">
       <defs>
        <path id="NotoSansSC-Regular-14" d="M 1690 -83 
C 2522 -83 3194 416 3194 1254 
C 3194 1894 2752 2317 2202 2445 
L 2202 2470 
C 2694 2656 3034 3034 3034 3603 
C 3034 4346 2458 4781 1670 4781 
C 1126 4781 710 4544 358 4218 
L 672 3846 
C 934 4115 1267 4301 1645 4301 
C 2131 4301 2438 4006 2438 3558 
C 2438 3053 2106 2662 1139 2662 
L 1139 2214 
C 2221 2214 2598 1837 2598 1280 
C 2598 736 2202 403 1645 403 
C 1114 403 755 653 480 941 
L 186 557 
C 493 224 954 -83 1690 -83 
z
" transform="scale(0.015625)"/>
       </defs>
       <use xlink:href="#NotoSansSC-Regular-11"/>
       <use xlink:href="#NotoSansSC-Regular-17" transform="translate(55.5 0)"/>
       <use xlink:href="#NotoSansSC-Regular-10" transform="translate(111 0)"/>
       <use xlink:href="#NotoSansSC-Regular-12" transform="translate(150.203125 0)"/>
       <use xlink:href="#NotoSansSC-Regular-14" transform="translate(205.703125 0)"/>
      </g>
     </g>
    </g>
    <g id="xtick_6">
     <g id="line2d_6">
      <g>
       <use xlink:href="#mecdc390e90" x="337.879545" y="148.73625" style="fill: #64748b; stroke: #64748b; stroke-width: 0.8"/>
      </g>
     </g>
     <g id="text_6">
      <!-- 06/15 -->
      <g style="fill: #64748b" transform="translate(327.43142 162.77625) scale(0.08 -0.08)">
       <use xlink:href="#NotoSansSC-Regular-11"/>
       <use xlink:href="#NotoSansSC-Regular-17" transform="translate(55.5 0)"/>
       <use xlink:href="#NotoSansSC-Regular-10" transform="translate(111 0)"/>
       <use xlink:href="#NotoSansSC-Regular-12" transform="translate(150.203125 0)"/>
       <use xlink:href="#NotoSansSC-Regular-16" transform="translate(205.703125 0)"/>
      </g>
     </g>
    </g>
   </g>
   <g id="matplotlib.axis_2">
    <g id="ytick_1">
     <g id="line2d_7">
      <path d="M 23.08 143.14642 
L 352.87 143.14642 
" clip-path="url(#p314ad0b327)" style="fill: none; stroke: #64748b; stroke-opacity: 0.12; stroke-width: 0.5; stroke-linecap: square"/>
     </g>
     <g id="line2d_8">
      <defs>
       <path id="m96f9680505" d="M 0 0 
L -3.5 0 
" style="stroke: #64748b; stroke-width: 0.8"/>
      </defs>
      <g>
       <use xlink:href="#m96f9680505" x="23.08" y="143.14642" style="fill: #64748b; stroke: #64748b; stroke-width: 0.8"/>
      </g>
     </g>
     <g id="text_7">
      <!-- 0 -->
      <g style="fill: #64748b" transform="translate(11.64 146.66642) scale(0.08 -0.08)">
       <use xlink:href="#NotoSansSC-Regular-11"/>
      </g>
     </g>
    </g>
    <g id="ytick_2">
     <g id="line2d_9">
      <path d="M 23.08 124.850603 
L 352.87 124.850603 
" clip-path="url(#p314ad0b327)" style="fill: none; stroke: #64748b; stroke-opacity: 0.12; stroke-width: 0.5; stroke-linecap: square"/>
     </g>
     <g id="line2d_10">
      <g>
       <use xlink:href="#m96f9680505" x="23.08" y="124.850603" style="fill: #64748b; stroke: #64748b; stroke-width: 0.8"/>
      </g>
     </g>
     <g id="text_8">
      <!-- 5 -->
      <g style="fill: #64748b" transform="translate(11.64 128.370603) scale(0.08 -0.08)">
       <use xlink:href="#NotoSansSC-Regular-16"/>
      </g>
     </g>
    </g>
    <g id="ytick_3">
     <g id="line2d_11">
      <path d="M 23.08 106.554786 
L 352.87 106.554786 
" clip-path="url(#p314ad0b327)" style="fill: none; stroke: #64748b; stroke-opacity: 0.12; stroke-width: 0.5; stroke-linecap: square"/>
     </g>
     <g id="line2d_12">
      <g>
       <use xlink:href="#m96f9680505" x="23.08" y="106.554786" style="fill: #64748b; stroke: #64748b; stroke-width: 0.8"/>
      </g>
     </g>
     <g id="text_9">
      <!-- 10 -->
      <g style="fill: #64748b" transform="translate(7.2 110.074786) scale(0.08 -0.08)">
       <use xlink:href="#NotoSansSC-Regular-12"/>
       <use xlink:href="#NotoSansSC-Regular-11" transform="translate(55.5 0)"/>
      </g>
     </g>
    </g>
    <g id="ytick_4">
     <g id="line2d_13">
      <path d="M 23.08 88.258969 
L 352.87 88.258969 
" clip-path="url(#p314ad0b327)" style="fill: none; stroke: #64748b; stroke-opacity: 0.12; stroke-width: 0.5; stroke-linecap: square"/>
     </g>
     <g id="line2d_14">
      <g>
       <use xlink:href="#m96f9680505" x="23.08" y="88.258969" style="fill: #64748b; stroke: #64748b; stroke-width: 0.8"/>
      </g>
     </g>
     <g id="text_10">
      <!-- 15 -->
      <g style="fill: #64748b" transform="translate(7.2 91.778969) scale(0.08 -0.08)">
       <use xlink:href="#NotoSansSC-Regular-12"/>
       <use xlink:href="#NotoSansSC-Regular-16" transform="translate(55.5 0)"/>
      </g>
     </g>
    </g>
    <g id="ytick_5">
     <g id="line2d_15">
      <path d="M 23.08 69.963152 
L 352.87 69.963152 
" clip-path="url(#p314ad0b327)" style="fill: none; stroke: #64748b; stroke-opacity: 0.12; stroke-width: 0.5; stroke-linecap: square"/>
     </g>
     <g id="line2d_16">
      <g>
       <use xlink:href="#m96f9680505" x="23.08" y="69.963152" style="fill: #64748b; stroke: #64748b; stroke-width: 0.8"/>
      </g>
     </g>
     <g id="text_11">
      <!-- 20 -->
      <g style="fill: #64748b" transform="translate(7.2 73.483152) scale(0.08 -0.08)">
       <defs>
        <path id="NotoSansSC-Regular-13" d="M 282 0 
L 3232 0 
L 3232 506 
L 1933 506 
C 1696 506 1408 480 1165 461 
C 2266 1504 3002 2458 3002 3392 
C 3002 4230 2477 4781 1638 4781 
C 1043 4781 640 4506 256 4090 
L 595 3757 
C 851 4064 1184 4301 1568 4301 
C 2150 4301 2432 3910 2432 3373 
C 2432 2566 1754 1632 282 346 
L 282 0 
z
" transform="scale(0.015625)"/>
       </defs>
       <use xlink:href="#NotoSansSC-Regular-13"/>
       <use xlink:href="#NotoSansSC-Regular-11" transform="translate(55.5 0)"/>
      </g>
     </g>
    </g>
    <g id="ytick_6">
     <g id="line2d_17">
      <path d="M 23.08 51.667335 
L 352.87 51.667335 
" clip-path="url(#p314ad0b327)" style="fill: none; stroke: #64748b; stroke-opacity: 0.12; stroke-width: 0.5; stroke-linecap: square"/>
     </g>
     <g id="line2d_18">
      <g>
       <use xlink:href="#m96f9680505" x="23.08" y="51.667335" style="fill: #64748b; stroke: #64748b; stroke-width: 0.8"/>
      </g>
     </g>
     <g id="text_12">
      <!-- 25 -->
      <g style="fill: #64748b" transform="translate(7.2 55.187335) scale(0.08 -0.08)">
       <use xlink:href="#NotoSansSC-Regular-13"/>
       <use xlink:href="#NotoSansSC-Regular-16" transform="translate(55.5 0)"/>
      </g>
     </g>
    </g>
    <g id="ytick_7">
     <g id="line2d_19">
      <path d="M 23.08 33.371517 
L 352.87 33.371517 
" clip-path="url(#p314ad0b327)" style="fill: none; stroke: #64748b; stroke-opacity: 0.12; stroke-width: 0.5; stroke-linecap: square"/>
     </g>
     <g id="line2d_20">
      <g>
       <use xlink:href="#m96f9680505" x="23.08" y="33.371517" style="fill: #64748b; stroke: #64748b; stroke-width: 0.8"/>
      </g>
     </g>
     <g id="text_13">
      <!-- 30 -->
      <g style="fill: #64748b" transform="translate(7.2 36.891517) scale(0.08 -0.08)">
       <use xlink:href="#NotoSansSC-Regular-14"/>
       <use xlink:href="#NotoSansSC-Regular-11" transform="translate(55.5 0)"/>
      </g>
     </g>
    </g>
   </g>
   <g id="FillBetweenPolyCollection_1">
    <defs>
     <path id="m873804fc71" d="M 38.070455 -42.777048 
L 38.070455 -121.485654 
L 128.013182 -112.118195 
L 157.994091 -115.484626 
L 187.975 -124.08366 
L 217.955909 -113.911186 
L 247.936818 -107.471058 
L 337.879545 -104.214402 
L 337.879545 -42.777048 
L 337.879545 -42.777048 
L 247.936818 -42.777048 
L 217.955909 -42.777048 
L 187.975 -42.777048 
L 157.994091 -42.777048 
L 128.013182 -42.777048 
L 38.070455 -42.777048 
z
" style="stroke: #1a56db; stroke-opacity: 0.1"/>
    </defs>
    <g clip-path="url(#p314ad0b327)">
     <use xlink:href="#m873804fc71" x="0" y="185.923469" style="fill: #1a56db; fill-opacity: 0.1; stroke: #1a56db; stroke-opacity: 0.1"/>
    </g>
   </g>
   <g id="line2d_21">
    <path d="M 23.08 88.258969 
L 352.87 88.258969 
" clip-path="url(#p314ad0b327)" style="fill: none; stroke-dasharray: 2.96,1.28; stroke-dashoffset: 0; stroke: #16a34a; stroke-opacity: 0.4; stroke-width: 0.8"/>
   </g>
   <g id="line2d_22">
    <path d="M 23.08 69.963152 
L 352.87 69.963152 
" clip-path="url(#p314ad0b327)" style="fill: none; stroke-dasharray: 2.96,1.28; stroke-dashoffset: 0; stroke: #dc2626; stroke-opacity: 0.4; stroke-width: 0.8"/>
   </g>
   <g id="patch_6">
    <path d="M 23.08 148.73625 
L 23.08 25.76 
" style="fill: none; stroke: #e2e8f0; stroke-width: 0.5; stroke-linejoin: miter; stroke-linecap: square"/>
   </g>
   <g id="patch_7">
    <path d="M 23.08 148.73625 
L 352.87 148.73625 
" style="fill: none; stroke: #e2e8f0; stroke-width: 0.5; stroke-linejoin: miter; stroke-linecap: square"/>
   </g>
   <g id="text_14">
    <g id="patch_8">
     <path d="M 26.3779 127.092187 
L 58.280712 127.092187 
Q 60.880713 127.092187 60.880713 124.492187 
L 60.880713 111.492187 
Q 60.880713 108.892187 58.280712 108.892187 
L 26.3779 108.892187 
Q 23.7779 108.892187 23.7779 111.492187 
L 23.7779 124.492187 
Q 23.7779 127.092187 26.3779 127.092187 
z
" style="fill: #ffffff; opacity: 0.85"/>
    </g>
    <!--   平静 -->
    <g style="fill: #16a34a" transform="translate(26.3779 122.932187) scale(0.13 -0.13)">
     <defs>
      <path id="NotoSansSC-Bold-1" transform="scale(0.015625)"/>
      <path id="NotoSansSC-Bold-3253" d="M 6112 2330 
L 3597 2330 
L 3597 4269 
L 5741 4269 
L 5741 5024 
L 646 5024 
L 646 4269 
L 2803 4269 
L 2803 2330 
L 314 2330 
L 314 1562 
L 2803 1562 
L 2803 -557 
L 3597 -557 
L 3597 1562 
L 6112 1562 
L 6112 2330 
z
M 1037 3859 
C 1242 3430 1440 2874 1504 2528 
L 2246 2758 
C 2176 3117 1946 3654 1734 4064 
L 1037 3859 
z
M 4774 2541 
C 4992 2867 5248 3386 5478 3878 
L 4666 4083 
C 4544 3667 4314 3104 4109 2733 
L 4774 2541 
z
" transform="scale(0.015625)"/>
      <path id="NotoSansSC-Bold-6b09" d="M 1210 979 
L 1210 1267 
L 2144 1267 
L 2144 979 
L 1210 979 
z
M 2144 2048 
L 2144 1766 
L 1210 1766 
L 1210 2048 
L 2144 2048 
z
M 2822 2598 
L 550 2598 
L 550 -557 
L 1210 -557 
L 1210 480 
L 2144 480 
L 2144 141 
C 2144 77 2125 58 2054 51 
C 1990 51 1786 51 1594 58 
C 1677 -109 1766 -365 1798 -550 
C 2150 -550 2387 -544 2579 -435 
C 2771 -333 2822 -160 2822 134 
L 2822 2598 
z
M 5171 1523 
L 4672 1523 
L 4672 2016 
L 5171 2016 
L 5171 1523 
z
M 4672 3110 
L 5171 3110 
L 5171 2643 
L 4672 2643 
L 4672 3110 
z
M 4589 4250 
C 4486 4070 4371 3885 4262 3725 
L 3635 3725 
C 3757 3885 3878 4058 3987 4250 
L 4589 4250 
z
M 6208 2643 
L 5856 2643 
L 5856 3725 
L 5005 3725 
C 5203 3994 5395 4294 5530 4557 
L 5069 4851 
L 4960 4826 
L 4282 4826 
C 4346 4973 4403 5120 4454 5267 
L 3789 5421 
C 3597 4858 3277 4301 2893 3923 
L 2893 4141 
L 2029 4141 
L 2029 4371 
L 3040 4371 
L 3040 4902 
L 2029 4902 
L 2029 5421 
L 1325 5421 
L 1325 4902 
L 320 4902 
L 320 4371 
L 1325 4371 
L 1325 4141 
L 474 4141 
L 474 3622 
L 1325 3622 
L 1325 3373 
L 218 3373 
L 218 2829 
L 3104 2829 
L 3104 3373 
L 2029 3373 
L 2029 3622 
L 2893 3622 
L 2893 3802 
C 3014 3712 3168 3590 3277 3501 
L 3277 3110 
L 3962 3110 
L 3962 2643 
L 3027 2643 
L 3027 2016 
L 3962 2016 
L 3962 1523 
L 3238 1523 
L 3238 909 
L 3962 909 
L 3962 250 
C 3962 166 3936 147 3859 147 
C 3770 147 3520 147 3251 160 
C 3354 -38 3462 -339 3488 -544 
C 3891 -544 4179 -518 4397 -403 
C 4614 -294 4672 -96 4672 243 
L 4672 909 
L 5171 909 
L 5171 666 
L 5856 666 
L 5856 2016 
L 6208 2016 
L 6208 2643 
z
" transform="scale(0.015625)"/>
     </defs>
     <use xlink:href="#NotoSansSC-Bold-1"/>
     <use xlink:href="#NotoSansSC-Bold-1" transform="translate(22.703125 0)"/>
     <use xlink:href="#NotoSansSC-Bold-3253" transform="translate(45.40625 0)"/>
     <use xlink:href="#NotoSansSC-Bold-6b09" transform="translate(145.40625 0)"/>
    </g>
   </g>
   <g id="text_15">
    <g id="patch_9">
     <path d="M 26.3779 90.199312 
L 58.280712 90.199312 
Q 60.880713 90.199312 60.880713 87.599312 
L 60.880713 74.599312 
Q 60.880713 71.999312 58.280712 71.999312 
L 26.3779 71.999312 
Q 23.7779 71.999312 23.7779 74.599312 
L 23.7779 87.599312 
Q 23.7779 90.199312 26.3779 90.199312 
z
" style="fill: #ffffff; opacity: 0.85"/>
    </g>
    <!--   焦虑 -->
    <g style="fill: #d4a017" transform="translate(26.3779 86.039312) scale(0.13 -0.13)">
     <defs>
      <path id="NotoSansSC-Bold-44f2" d="M 3315 3642 
L 1914 3642 
L 1914 3987 
L 3315 3987 
L 3315 3642 
z
M 3315 2701 
L 1914 2701 
L 1914 3046 
L 3315 3046 
L 3315 2701 
z
M 3315 1728 
L 1914 1728 
L 1914 2112 
L 3315 2112 
L 3315 1728 
z
M 1914 1101 
L 5946 1101 
L 5946 1728 
L 4070 1728 
L 4070 2112 
L 5626 2112 
L 5626 2701 
L 4070 2701 
L 4070 3046 
L 5619 3046 
L 5619 3642 
L 4070 3642 
L 4070 3987 
L 5933 3987 
L 5933 4634 
L 4173 4634 
C 4090 4877 3930 5203 3789 5459 
L 3104 5216 
C 3194 5037 3283 4832 3360 4634 
L 2202 4634 
C 2317 4826 2419 5018 2509 5216 
L 1760 5446 
C 1408 4627 800 3821 147 3334 
C 320 3206 621 2931 755 2790 
C 890 2906 1024 3040 1165 3194 
L 1165 909 
L 979 954 
C 819 506 525 6 243 -269 
L 973 -563 
C 1274 -230 1555 294 1722 774 
L 1184 902 
L 1914 902 
L 1914 1101 
z
M 2086 710 
C 2157 307 2208 -211 2208 -518 
L 2957 -416 
C 2950 -102 2874 397 2790 781 
L 2086 710 
z
M 3398 723 
C 3546 326 3693 -186 3725 -493 
L 4486 -352 
C 4429 -32 4275 467 4115 838 
L 3398 723 
z
M 4666 755 
C 4954 346 5280 -224 5414 -563 
L 6182 -314 
C 6016 45 5658 582 5376 973 
L 4666 755 
z
" transform="scale(0.015625)"/>
      <path id="NotoSansSC-Bold-5a07" d="M 1510 3469 
L 2758 3469 
L 2758 3053 
L 1683 2963 
L 1747 2432 
L 2758 2515 
C 2758 1914 2982 1741 3834 1741 
L 5094 1741 
C 5709 1741 5914 1894 5997 2483 
C 5805 2522 5523 2605 5376 2701 
C 5344 2368 5293 2310 5030 2310 
L 3898 2310 
C 3539 2310 3475 2336 3475 2528 
L 3475 2579 
L 4928 2694 
L 4864 3213 
L 3475 3110 
L 3475 3469 
L 5139 3469 
C 5094 3309 5056 3162 5011 3046 
L 5677 2797 
C 5824 3104 5984 3558 6093 3968 
L 5510 4141 
L 5402 4109 
L 3533 4109 
L 3533 4442 
L 5568 4442 
L 5568 5056 
L 3533 5056 
L 3533 5395 
L 2765 5395 
L 2765 4109 
L 781 4109 
L 781 2662 
C 781 1837 730 672 205 -134 
C 384 -205 704 -397 851 -518 
C 1408 358 1510 1728 1510 2656 
L 1510 3469 
z
M 3270 1350 
C 3590 1101 3968 749 4141 506 
L 4608 915 
C 4422 1152 4026 1485 3712 1715 
L 3270 1350 
z
M 1933 -218 
C 2189 115 2381 608 2515 1024 
L 1946 1254 
C 1824 858 1606 384 1363 83 
L 1933 -218 
z
M 3622 134 
C 3392 134 3354 160 3354 326 
L 3354 1190 
L 2662 1190 
L 2662 320 
C 2662 -250 2829 -429 3526 -429 
L 4390 -429 
C 4902 -429 5075 -256 5152 378 
C 4966 416 4698 512 4563 602 
C 4538 205 4499 134 4314 134 
L 3622 134 
z
M 4742 1101 
C 5075 704 5427 154 5555 -205 
L 6189 102 
C 6042 467 5670 992 5325 1376 
L 4742 1101 
z
" transform="scale(0.015625)"/>
     </defs>
     <use xlink:href="#NotoSansSC-Bold-1"/>
     <use xlink:href="#NotoSansSC-Bold-1" transform="translate(22.703125 0)"/>
     <use xlink:href="#NotoSansSC-Bold-44f2" transform="translate(45.40625 0)"/>
     <use xlink:href="#NotoSansSC-Bold-5a07" transform="translate(145.40625 0)"/>
    </g>
   </g>
   <g id="text_16">
    <g id="patch_10">
     <path d="M 26.3779 56.995725 
L 58.280712 56.995725 
Q 60.880713 56.995725 60.880713 54.395725 
L 60.880713 41.395725 
Q 60.880713 38.795725 58.280712 38.795725 
L 26.3779 38.795725 
Q 23.7779 38.795725 23.7779 41.395725 
L 23.7779 54.395725 
Q 23.7779 56.995725 26.3779 56.995725 
z
" style="fill: #ffffff; opacity: 0.85"/>
    </g>
    <!--   恐慌 -->
    <g style="fill: #dc2626" transform="translate(26.3779 52.835725) scale(0.13 -0.13)">
     <defs>
      <path id="NotoSansSC-Bold-342f" d="M 4653 4512 
L 4653 3392 
C 4474 3616 4224 3885 4038 4090 
L 3667 3872 
L 3667 3942 
L 3667 4512 
L 4653 4512 
z
M 435 2106 
C 1082 2298 1914 2560 2688 2816 
C 2560 2618 2368 2438 2093 2298 
C 2240 2182 2458 1939 2554 1786 
C 3315 2234 3578 2912 3648 3558 
C 3872 3302 4115 3002 4224 2803 
L 4653 3066 
L 4653 2726 
C 4653 2278 4698 2144 4806 2029 
C 4915 1920 5094 1869 5242 1869 
L 5587 1869 
C 5702 1869 5843 1894 5933 1939 
C 6042 1990 6112 2074 6157 2189 
C 6202 2304 6234 2579 6246 2816 
C 6054 2874 5818 2995 5683 3117 
C 5677 2893 5670 2720 5651 2643 
C 5645 2566 5626 2528 5606 2515 
C 5594 2496 5562 2490 5530 2490 
L 5440 2490 
C 5421 2490 5395 2502 5376 2522 
C 5363 2547 5363 2611 5363 2733 
L 5363 5178 
L 2963 5178 
L 2963 3949 
C 2963 3616 2931 3232 2733 2886 
L 2643 3475 
C 2381 3398 2125 3328 1869 3251 
L 1869 4416 
L 2662 4416 
L 2662 5082 
L 352 5082 
L 352 4416 
L 1165 4416 
L 1165 3059 
C 819 2963 493 2880 230 2816 
L 435 2106 
z
M 4160 1114 
C 3987 1376 3622 1792 3360 2080 
L 2758 1747 
C 3027 1434 3373 1005 3526 730 
L 4160 1114 
z
M 858 -186 
C 1139 275 1363 966 1523 1530 
L 851 1773 
C 717 1216 461 582 179 166 
L 858 -186 
z
M 2880 250 
C 2547 250 2496 282 2496 486 
L 2496 1805 
L 1741 1805 
L 1741 480 
C 1741 -224 1952 -442 2810 -442 
L 3917 -442 
C 4614 -442 4819 -205 4915 723 
C 4710 768 4384 890 4224 1005 
C 4186 352 4141 250 3859 250 
L 2880 250 
z
M 4602 1459 
C 4986 973 5414 307 5594 -115 
L 6278 218 
C 6080 646 5626 1286 5235 1754 
L 4602 1459 
z
" transform="scale(0.015625)"/>
      <path id="NotoSansSC-Bold-352b" d="M 2989 4077 
L 3686 4077 
L 3686 4384 
L 4621 4384 
L 4621 4077 
L 5318 4077 
L 5318 4384 
L 6176 4384 
L 6176 5024 
L 5318 5024 
L 5318 5421 
L 4621 5421 
L 4621 5024 
L 3686 5024 
L 3686 5421 
L 2989 5421 
L 2989 5024 
L 2170 5024 
L 2170 4384 
L 2989 4384 
L 2989 4077 
z
M 378 4230 
C 378 3674 307 2899 173 2438 
L 672 2266 
C 813 2790 877 3597 864 4179 
L 378 4230 
z
M 2246 3290 
L 2246 3117 
L 2611 3117 
L 2611 2054 
L 5939 2054 
L 5939 2662 
L 3341 2662 
L 3341 3117 
L 6125 3117 
L 6125 3712 
L 4582 3712 
C 4512 3872 4422 4051 4333 4198 
L 3706 4051 
C 3757 3955 3814 3834 3866 3712 
L 2381 3712 
C 2310 3949 2221 4211 2138 4435 
L 1683 4275 
L 1683 5421 
L 973 5421 
L 973 -550 
L 1683 -550 
L 1683 4045 
C 1786 3731 1875 3386 1914 3155 
L 2246 3290 
z
M 2611 1242 
C 2611 794 2534 269 1901 -115 
C 2080 -218 2342 -442 2464 -589 
C 3194 -102 3283 602 3283 1216 
L 3283 1830 
L 2611 1830 
L 2611 1242 
z
M 3706 -474 
L 4384 -474 
L 4384 1805 
L 3706 1805 
L 3706 -474 
z
M 5536 77 
C 5510 77 5498 83 5485 102 
C 5472 128 5478 179 5478 275 
L 5478 1818 
L 4806 1818 
L 4806 288 
C 4806 -109 4838 -237 4941 -339 
C 5043 -448 5197 -493 5338 -493 
L 5632 -493 
C 5734 -493 5862 -474 5946 -422 
C 6029 -371 6093 -282 6138 -173 
C 6170 -64 6195 218 6208 461 
C 6048 512 5837 627 5722 730 
C 5722 493 5715 314 5702 230 
C 5690 147 5683 109 5664 96 
C 5645 83 5626 77 5600 77 
L 5536 77 
z
" transform="scale(0.015625)"/>
     </defs>
     <use xlink:href="#NotoSansSC-Bold-1"/>
     <use xlink:href="#NotoSansSC-Bold-1" transform="translate(22.703125 0)"/>
     <use xlink:href="#NotoSansSC-Bold-342f" transform="translate(45.40625 0)"/>
     <use xlink:href="#NotoSansSC-Bold-352b" transform="translate(145.40625 0)"/>
    </g>
   </g>
   <g id="line2d_23">
    <path d="M 38.070455 64.437815 
L 128.013182 73.805273 
L 157.994091 70.438843 
L 187.975 61.839809 
L 217.955909 72.012283 
L 247.936818 78.452411 
L 337.879545 81.709066 
" clip-path="url(#p314ad0b327)" style="fill: none; stroke: #1a56db; stroke-width: 2; stroke-linecap: square"/>
    <defs>
     <path id="m7569f6f306" d="M 0 2.5 
C 0.663008 2.5 1.29895 2.236584 1.767767 1.767767 
C 2.236584 1.29895 2.5 0.663008 2.5 0 
C 2.5 -0.663008 2.236584 -1.29895 1.767767 -1.767767 
C 1.29895 -2.236584 0.663008 -2.5 0 -2.5 
C -0.663008 -2.5 -1.29895 -2.236584 -1.767767 -1.767767 
C -2.236584 -1.29895 -2.5 -0.663008 -2.5 0 
C -2.5 0.663008 -2.236584 1.29895 -1.767767 1.767767 
C -1.29895 2.236584 -0.663008 2.5 0 2.5 
z
" style="stroke: #ffffff; stroke-width: 1.5"/>
    </defs>
    <g clip-path="url(#p314ad0b327)">
     <use xlink:href="#m7569f6f306" x="38.070455" y="64.437815" style="fill: #1a56db; stroke: #ffffff; stroke-width: 1.5"/>
     <use xlink:href="#m7569f6f306" x="128.013182" y="73.805273" style="fill: #1a56db; stroke: #ffffff; stroke-width: 1.5"/>
     <use xlink:href="#m7569f6f306" x="157.994091" y="70.438843" style="fill: #1a56db; stroke: #ffffff; stroke-width: 1.5"/>
     <use xlink:href="#m7569f6f306" x="187.975" y="61.839809" style="fill: #1a56db; stroke: #ffffff; stroke-width: 1.5"/>
     <use xlink:href="#m7569f6f306" x="217.955909" y="72.012283" style="fill: #1a56db; stroke: #ffffff; stroke-width: 1.5"/>
     <use xlink:href="#m7569f6f306" x="247.936818" y="78.452411" style="fill: #1a56db; stroke: #ffffff; stroke-width: 1.5"/>
     <use xlink:href="#m7569f6f306" x="337.879545" y="81.709066" style="fill: #1a56db; stroke: #ffffff; stroke-width: 1.5"/>
    </g>
   </g>
   <g id="text_17">
    <g id="patch_11">
     <path d="M 342.879545 73.229066 
L 372.373295 73.229066 
Q 374.573295 73.229066 374.573295 71.029066 
L 374.573295 60.029066 
Q 374.573295 57.829066 372.373295 57.829066 
L 342.879545 57.829066 
Q 340.679545 57.829066 340.679545 60.029066 
L 340.679545 71.029066 
Q 340.679545 73.229066 342.879545 73.229066 
z
" style="fill: #ffffff; stroke: #1a56db; stroke-width: 0.8; stroke-linejoin: miter"/>
    </g>
    <!-- 16.79 -->
    <g style="fill: #1a56db" transform="translate(342.879545 69.709066) scale(0.11 -0.11)">
     <defs>
      <path id="NotoSansSC-Bold-12" d="M 525 0 
L 3373 0 
L 3373 762 
L 2483 762 
L 2483 4742 
L 1786 4742 
C 1485 4550 1158 4429 685 4339 
L 685 3757 
L 1542 3757 
L 1542 762 
L 525 762 
L 525 0 
z
" transform="scale(0.015625)"/>
      <path id="NotoSansSC-Bold-17" d="M 1971 2317 
C 2381 2317 2650 2054 2650 1498 
C 2650 915 2355 621 2003 621 
C 1606 621 1286 954 1197 1818 
C 1414 2176 1715 2317 1971 2317 
z
M 2022 -90 
C 2829 -90 3507 525 3507 1498 
C 3507 2509 2944 2982 2150 2982 
C 1843 2982 1434 2790 1178 2470 
C 1216 3661 1664 4070 2208 4070 
C 2483 4070 2771 3917 2938 3725 
L 3437 4288 
C 3149 4582 2733 4826 2150 4826 
C 1197 4826 320 4070 320 2304 
C 320 634 1120 -90 2022 -90 
z
" transform="scale(0.015625)"/>
      <path id="NotoSansSC-Bold-f" d="M 1037 -90 
C 1376 -90 1626 179 1626 525 
C 1626 877 1376 1139 1037 1139 
C 704 1139 454 877 454 525 
C 454 179 704 -90 1037 -90 
z
" transform="scale(0.015625)"/>
      <path id="NotoSansSC-Bold-18" d="M 1190 0 
L 2144 0 
C 2221 1856 2368 2822 3469 4166 
L 3469 4742 
L 320 4742 
L 320 3949 
L 2451 3949 
C 1549 2694 1274 1645 1190 0 
z
" transform="scale(0.015625)"/>
      <path id="NotoSansSC-Bold-1a" d="M 1120 3245 
C 1120 3827 1408 4115 1760 4115 
C 2163 4115 2490 3795 2573 2938 
C 2355 2573 2054 2426 1792 2426 
C 1382 2426 1120 2688 1120 3245 
z
M 1632 -90 
C 2573 -90 3450 685 3450 2477 
C 3450 4122 2643 4826 1747 4826 
C 934 4826 256 4218 256 3245 
C 256 2240 826 1754 1613 1754 
C 1933 1754 2336 1946 2586 2266 
C 2541 1082 2106 678 1574 678 
C 1293 678 1005 826 832 1018 
L 333 448 
C 614 160 1043 -90 1632 -90 
z
" transform="scale(0.015625)"/>
     </defs>
     <use xlink:href="#NotoSansSC-Bold-12"/>
     <use xlink:href="#NotoSansSC-Bold-17" transform="translate(58.90625 0)"/>
     <use xlink:href="#NotoSansSC-Bold-f" transform="translate(117.8125 0)"/>
     <use xlink:href="#NotoSansSC-Bold-18" transform="translate(150.3125 0)"/>
     <use xlink:href="#NotoSansSC-Bold-1a" transform="translate(209.21875 0)"/>
    </g>
   </g>
   <g id="text_18">
    <!-- VIX 恐慌指数 · 近1周 -->
    <g style="fill: #1e293b" transform="translate(128.904063 17.76) scale(0.12 -0.12)">
     <defs>
      <path id="NotoSansSC-Bold-37" d="M 1414 0 
L 2547 0 
L 3994 4742 
L 3034 4742 
L 2419 2432 
C 2272 1907 2170 1434 2016 902 
L 1984 902 
C 1837 1434 1734 1907 1587 2432 
L 960 4742 
L -32 4742 
L 1414 0 
z
" transform="scale(0.015625)"/>
      <path id="NotoSansSC-Bold-2a" d="M 582 0 
L 1530 0 
L 1530 4742 
L 582 4742 
L 582 0 
z
" transform="scale(0.015625)"/>
      <path id="NotoSansSC-Bold-39" d="M 90 0 
L 1094 0 
L 1600 1050 
C 1715 1293 1830 1542 1946 1830 
L 1971 1830 
C 2112 1542 2221 1293 2342 1050 
L 2874 0 
L 3923 0 
L 2592 2400 
L 3840 4742 
L 2842 4742 
L 2394 3763 
C 2291 3539 2195 3309 2080 3014 
L 2048 3014 
C 1907 3309 1811 3539 1696 3763 
L 1222 4742 
L 173 4742 
L 1421 2445 
L 90 0 
z
" transform="scale(0.015625)"/>
      <path id="NotoSansSC-Bold-36e2" d="M 2458 2726 
C 2240 2669 2016 2611 1792 2554 
L 1792 3514 
L 2445 3514 
L 2445 4218 
L 1792 4218 
L 1792 5414 
L 1043 5414 
L 1043 4218 
L 250 4218 
L 250 3514 
L 1043 3514 
L 1043 2374 
C 717 2298 410 2227 154 2176 
L 333 1446 
L 1043 1632 
L 1043 262 
C 1043 173 1011 147 922 141 
C 838 141 582 141 333 154 
C 422 -45 525 -352 544 -544 
C 992 -544 1299 -525 1510 -410 
C 1728 -288 1792 -109 1792 269 
L 1792 1824 
C 2048 1894 2298 1965 2547 2035 
L 2458 2726 
z
M 5120 1734 
L 5120 1344 
L 3488 1344 
L 3488 1734 
L 5120 1734 
z
M 3488 326 
L 3488 749 
L 5120 749 
L 5120 326 
L 3488 326 
z
M 2765 -557 
L 3488 -557 
L 3488 -282 
L 5120 -282 
L 5120 -531 
L 5875 -531 
L 5875 2362 
L 2765 2362 
L 2765 -557 
z
M 3974 3411 
C 3603 3411 3539 3443 3539 3686 
L 3539 3955 
C 4301 4109 5152 4326 5805 4589 
L 5242 5139 
C 4819 4941 4179 4736 3539 4576 
L 3539 5414 
L 2778 5414 
L 2778 3680 
C 2778 2944 3008 2726 3898 2726 
L 5139 2726 
C 5869 2726 6093 2970 6189 3872 
C 5978 3910 5658 4032 5498 4147 
C 5453 3514 5402 3411 5082 3411 
L 3974 3411 
z
" transform="scale(0.015625)"/>
      <path id="NotoSansSC-Bold-394a" d="M 2720 5338 
C 2618 5101 2445 4755 2298 4531 
L 2784 4314 
C 2950 4512 3149 4800 3360 5088 
L 2720 5338 
z
M 1504 2547 
L 2208 2547 
L 2208 3245 
C 2451 3053 2701 2842 2842 2707 
L 3238 3238 
C 3130 3315 2771 3526 2483 3693 
L 3418 3693 
L 3418 4294 
L 2208 4294 
L 2208 5421 
L 1504 5421 
L 1504 4294 
L 858 4294 
L 1376 4525 
C 1325 4742 1165 5075 992 5312 
L 454 5088 
C 595 4838 742 4512 794 4294 
L 294 4294 
L 294 3693 
L 1242 3693 
C 941 3379 538 3098 160 2944 
C 301 2803 467 2554 550 2387 
C 870 2560 1210 2829 1504 3123 
L 1504 2547 
z
M 2406 1530 
C 2291 1306 2138 1107 1958 928 
C 1792 1018 1613 1107 1440 1190 
C 1504 1293 1568 1408 1632 1530 
L 2406 1530 
z
M 2982 333 
C 2854 422 2701 518 2528 614 
C 2854 986 3110 1446 3264 2010 
L 2854 2163 
L 2739 2144 
L 1926 2144 
C 1965 2227 2003 2310 2035 2394 
L 1363 2515 
C 1318 2394 1267 2272 1210 2144 
L 410 2144 
L 410 1530 
L 896 1530 
C 768 1312 646 1114 531 947 
C 819 826 1139 678 1440 518 
C 1075 294 646 128 186 26 
C 314 -102 461 -371 531 -544 
C 1107 -384 1619 -154 2048 173 
C 2240 58 2406 -58 2534 -154 
L 2982 333 
z
M 5011 3539 
C 4947 2995 4845 2515 4698 2080 
C 4531 2534 4403 3027 4307 3539 
L 5011 3539 
z
M 6118 3539 
L 6118 4243 
L 4416 4243 
C 4493 4582 4557 4941 4608 5299 
L 3917 5402 
C 3770 4262 3488 3174 2976 2509 
C 3130 2400 3418 2150 3520 2022 
C 3642 2195 3757 2387 3859 2592 
C 3987 2106 4128 1658 4314 1254 
C 3987 723 3514 320 2867 32 
C 3002 -115 3200 -435 3270 -589 
C 3866 -288 4326 96 4691 582 
C 4979 134 5331 -230 5773 -506 
C 5875 -314 6099 -38 6266 96 
C 5786 358 5395 762 5101 1267 
C 5402 1894 5594 2643 5715 3539 
L 6118 3539 
z
" transform="scale(0.015625)"/>
      <path id="NotoSansSC-Bold-561" d="M 3200 3251 
C 2752 3251 2381 2880 2381 2432 
C 2381 1984 2752 1613 3200 1613 
C 3648 1613 4019 1984 4019 2432 
C 4019 2880 3648 3251 3200 3251 
z
" transform="scale(0.015625)"/>
      <path id="NotoSansSC-Bold-6383" d="M 4294 2931 
L 4294 582 
L 5050 582 
L 5050 2931 
L 6112 2931 
L 6112 3635 
L 3341 3635 
L 3341 3642 
L 3341 4429 
C 4282 4480 5299 4602 6048 4838 
L 5427 5408 
C 4762 5203 3597 5082 2566 5050 
L 2566 3648 
C 2566 2854 2522 1754 2003 986 
C 2176 902 2528 659 2662 531 
C 3104 1178 3264 2112 3322 2931 
L 4294 2931 
z
M 1965 4192 
C 1760 4512 1325 4979 986 5318 
L 403 4934 
C 736 4582 1158 4077 1338 3763 
L 1965 4192 
z
M 1779 3142 
L 314 3142 
L 314 2394 
L 1037 2394 
L 1037 851 
C 762 730 461 499 166 186 
L 678 -538 
C 902 -160 1184 256 1376 256 
C 1517 256 1734 51 2029 -96 
C 2496 -358 3034 -429 3846 -429 
C 4499 -429 5555 -390 6003 -365 
C 6016 -147 6138 224 6227 435 
C 5587 339 4550 282 3872 282 
C 3162 282 2573 320 2144 563 
C 1997 640 1882 717 1779 781 
L 1779 3142 
z
" transform="scale(0.015625)"/>
      <path id="NotoSansSC-Bold-2859" d="M 1792 2906 
L 1792 2310 
L 4730 2310 
L 4730 2906 
L 3597 2906 
L 3597 3315 
L 4602 3315 
L 4602 3891 
L 3597 3891 
L 3597 4314 
L 2874 4314 
L 2874 3891 
L 1920 3891 
L 1920 3315 
L 2874 3315 
L 2874 2906 
L 1792 2906 
z
M 3782 1370 
L 3782 781 
L 2714 781 
L 2714 1370 
L 3782 1370 
z
M 4486 211 
L 4486 1946 
L 2022 1946 
L 2022 -134 
L 2714 -134 
L 2714 211 
L 4486 211 
z
M 5760 5114 
L 826 5114 
L 826 2899 
C 826 1965 774 736 166 -102 
C 333 -186 653 -442 781 -582 
C 1478 346 1581 1850 1581 2899 
L 1581 4410 
L 4998 4410 
L 4998 294 
C 4998 186 4954 147 4845 147 
C 4736 147 4358 141 4032 160 
C 4134 -32 4237 -346 4262 -550 
C 4813 -550 5184 -538 5427 -422 
C 5677 -294 5760 -109 5760 288 
L 5760 5114 
z
" transform="scale(0.015625)"/>
     </defs>
     <use xlink:href="#NotoSansSC-Bold-37"/>
     <use xlink:href="#NotoSansSC-Bold-2a" transform="translate(61.796875 0)"/>
     <use xlink:href="#NotoSansSC-Bold-39" transform="translate(94.796875 0)"/>
     <use xlink:href="#NotoSansSC-Bold-1" transform="translate(157.5 0)"/>
     <use xlink:href="#NotoSansSC-Bold-342f" transform="translate(180.203125 0)"/>
     <use xlink:href="#NotoSansSC-Bold-352b" transform="translate(280.203125 0)"/>
     <use xlink:href="#NotoSansSC-Bold-36e2" transform="translate(380.203125 0)"/>
     <use xlink:href="#NotoSansSC-Bold-394a" transform="translate(480.203125 0)"/>
     <use xlink:href="#NotoSansSC-Bold-1" transform="translate(580.203125 0)"/>
     <use xlink:href="#NotoSansSC-Bold-561" transform="translate(602.90625 0)"/>
     <use xlink:href="#NotoSansSC-Bold-1" transform="translate(702.90625 0)"/>
     <use xlink:href="#NotoSansSC-Bold-6383" transform="translate(725.609375 0)"/>
     <use xlink:href="#NotoSansSC-Bold-12" transform="translate(825.609375 0)"/>
     <use xlink:href="#NotoSansSC-Bold-2859" transform="translate(884.515625 0)"/>
    </g>
   </g>
  </g>
  <g id="text_19">
   <!-- 备用数据 (近1月走势参考) -->
   <g style="fill: #94a3b8" transform="translate(150.3475 177.34425) scale(0.07 -0.07)">
    <defs>
     <path id="NotoSansSC-Regular-2ced" d="M 2950 1869 
L 2950 1229 
L 1594 1229 
L 1594 1869 
L 2950 1869 
z
M 4768 1229 
L 3430 1229 
L 3430 1869 
L 4768 1869 
L 4768 1229 
z
M 3430 134 
L 3430 838 
L 4768 838 
L 4768 134 
L 3430 134 
z
M 1594 134 
L 1594 838 
L 2950 838 
L 2950 134 
L 1594 134 
z
M 1114 -486 
L 1594 -486 
L 1594 -282 
L 4768 -282 
L 4768 -474 
L 5267 -474 
L 5267 2291 
L 1114 2291 
L 1114 -486 
z
M 2176 4384 
L 4378 4384 
C 4070 4064 3654 3782 3194 3546 
C 2758 3763 2387 4019 2112 4320 
L 2176 4384 
z
M 4845 4832 
L 4762 4806 
L 2547 4806 
C 2675 4960 2784 5114 2874 5274 
L 2368 5370 
C 2054 4819 1434 4186 518 3750 
C 627 3674 768 3520 838 3405 
C 1197 3597 1504 3802 1779 4026 
C 2042 3757 2349 3520 2701 3315 
C 1920 2989 1043 2765 224 2656 
C 301 2547 390 2336 435 2202 
C 1350 2355 2336 2630 3194 3046 
C 3987 2675 4928 2426 5907 2291 
C 5971 2426 6093 2624 6195 2733 
C 5293 2829 4429 3027 3693 3322 
C 4294 3667 4813 4109 5152 4634 
L 4845 4832 
z
" transform="scale(0.015625)"/>
     <path id="NotoSansSC-Regular-48ef" d="M 3469 1914 
L 3469 2976 
L 5190 2976 
L 5190 1914 
L 3469 1914 
z
M 1440 1914 
C 1459 2150 1466 2387 1466 2598 
L 1466 2976 
L 2995 2976 
L 2995 1914 
L 1440 1914 
z
M 2995 4448 
L 2995 3424 
L 1466 3424 
L 1466 4448 
L 2995 4448 
z
M 5190 3424 
L 3469 3424 
L 3469 4448 
L 5190 4448 
L 5190 3424 
z
M 5658 4902 
L 998 4902 
L 998 2598 
C 998 1709 934 582 230 -211 
C 333 -269 525 -429 595 -525 
C 1082 19 1299 749 1395 1459 
L 2995 1459 
L 2995 -429 
L 3469 -429 
L 3469 1459 
L 5190 1459 
L 5190 160 
C 5190 38 5146 0 5018 -6 
C 4902 -6 4467 -13 4019 6 
C 4083 -122 4160 -326 4179 -454 
C 4781 -461 5152 -454 5370 -378 
C 5574 -294 5658 -154 5658 154 
L 5658 4902 
z
" transform="scale(0.015625)"/>
     <path id="NotoSansSC-Regular-394a" d="M 2842 5235 
C 2733 4979 2522 4614 2362 4384 
L 2669 4237 
C 2848 4448 3053 4768 3238 5056 
L 2842 5235 
z
M 1344 4371 
C 1280 4608 1107 4947 928 5197 
L 582 5056 
C 755 4794 922 4442 979 4218 
L 1344 4371 
z
M 1658 2579 
L 2099 2579 
L 2099 3456 
C 2406 3238 2803 2925 2957 2778 
L 3219 3123 
C 3072 3232 2522 3590 2202 3776 
L 3405 3776 
L 3405 4173 
L 2099 4173 
L 2099 5357 
L 1658 5357 
L 1658 4173 
L 339 4173 
L 339 3776 
L 1510 3776 
C 1197 3360 723 2970 275 2778 
C 365 2688 480 2528 531 2419 
C 922 2624 1338 2976 1658 3354 
L 1658 2579 
z
M 2630 1664 
C 2490 1331 2285 1050 2035 819 
C 1805 934 1549 1056 1312 1158 
C 1402 1306 1498 1485 1594 1664 
L 2630 1664 
z
M 2944 288 
C 2803 390 2611 506 2406 621 
C 2746 979 3008 1427 3174 1978 
L 2906 2086 
L 2835 2067 
L 1792 2067 
C 1843 2182 1882 2291 1926 2400 
L 1504 2477 
C 1459 2342 1402 2208 1338 2067 
L 474 2067 
L 474 1664 
L 1139 1664 
C 1005 1414 864 1178 730 986 
C 1043 870 1389 710 1709 544 
C 1293 250 806 45 288 -70 
C 371 -160 467 -333 512 -435 
C 1094 -282 1638 -32 2093 333 
C 2310 211 2502 83 2650 -26 
L 2944 288 
z
M 5165 3680 
C 5069 2944 4915 2304 4685 1766 
C 4442 2336 4262 2989 4141 3680 
L 5165 3680 
z
M 6042 3680 
L 6042 4122 
L 4237 4122 
C 4326 4480 4403 4851 4454 5229 
L 4019 5293 
C 3859 4186 3571 3117 3085 2445 
C 3187 2381 3366 2234 3443 2157 
C 3603 2400 3750 2682 3878 2995 
C 4019 2362 4198 1786 4442 1286 
C 4083 678 3584 211 2893 -128 
C 2976 -218 3110 -410 3155 -512 
C 3808 -160 4294 282 4672 838 
C 4986 301 5389 -134 5882 -435 
C 5952 -314 6086 -154 6195 -64 
C 5670 218 5248 685 4922 1274 
C 5261 1933 5472 2720 5619 3680 
L 6042 3680 
z
" transform="scale(0.015625)"/>
     <path id="NotoSansSC-Regular-3749" d="M 2259 2138 
L 2195 2573 
L 1530 2362 
L 1530 3629 
L 2253 3629 
L 2253 4070 
L 1530 4070 
L 1530 5350 
L 1088 5350 
L 1088 4070 
L 294 4070 
L 294 3629 
L 1088 3629 
L 1088 2227 
C 755 2131 454 2042 218 1971 
L 333 1517 
C 563 1587 819 1664 1088 1754 
L 1088 109 
C 1088 13 1056 -13 979 -13 
C 909 -13 653 -13 378 -6 
C 442 -141 499 -333 518 -448 
C 922 -454 1165 -435 1312 -358 
C 1472 -282 1530 -160 1530 102 
L 1530 1901 
L 2259 2138 
z
M 2989 2726 
C 2995 2880 2995 3014 2995 3155 
L 2995 3430 
L 4230 3430 
L 4230 2726 
L 2989 2726 
z
M 5434 4659 
L 5434 3846 
L 2995 3846 
L 2995 4659 
L 5434 4659 
z
M 5478 160 
L 3514 160 
L 3514 1126 
L 5478 1126 
L 5478 160 
z
M 6106 2317 
L 6106 2726 
L 4685 2726 
L 4685 3430 
L 5888 3430 
L 5888 5075 
L 2534 5075 
L 2534 3155 
C 2534 2144 2477 755 1818 -224 
C 1926 -269 2125 -403 2202 -493 
C 2739 294 2912 1370 2970 2317 
L 4230 2317 
L 4230 1530 
L 3098 1530 
L 3098 -499 
L 3514 -499 
L 3514 -237 
L 5478 -237 
L 5478 -474 
L 5914 -474 
L 5914 1530 
L 4685 1530 
L 4685 2317 
L 6106 2317 
z
" transform="scale(0.015625)"/>
     <path id="NotoSansSC-Regular-1" transform="scale(0.015625)"/>
     <path id="NotoSansSC-Regular-9" d="M 1530 -1261 
L 1894 -1088 
C 1338 -179 1075 902 1075 1990 
C 1075 3078 1338 4154 1894 5069 
L 1530 5235 
C 941 4282 589 3245 589 1990 
C 589 730 941 -301 1530 -1261 
z
" transform="scale(0.015625)"/>
     <path id="NotoSansSC-Regular-6383" d="M 4422 3034 
L 4422 518 
L 4890 518 
L 4890 3034 
L 6067 3034 
L 6067 3475 
L 3142 3475 
L 3142 3565 
L 3142 4589 
C 4109 4653 5190 4781 5914 4998 
L 5523 5350 
C 4877 5152 3674 5030 2669 4973 
L 2669 3565 
C 2669 2733 2605 1600 2048 781 
C 2157 730 2362 582 2445 499 
C 2938 1210 3098 2202 3136 3034 
L 4422 3034 
z
M 1875 4147 
C 1677 4442 1248 4896 902 5222 
L 538 4992 
C 890 4653 1306 4173 1491 3878 
L 1875 4147 
z
M 1690 3053 
L 352 3053 
L 352 2586 
L 1222 2586 
L 1222 813 
C 934 704 602 422 269 51 
L 589 -378 
C 915 51 1222 435 1446 435 
C 1581 435 1792 218 2048 45 
C 2502 -230 3021 -301 3814 -301 
C 4422 -301 5562 -262 6010 -237 
C 6016 -96 6093 141 6144 269 
C 5530 198 4582 147 3827 147 
C 3110 147 2573 192 2163 448 
C 1946 576 1811 698 1690 774 
L 1690 3053 
z
" transform="scale(0.015625)"/>
     <path id="NotoSansSC-Regular-3ae0" d="M 1747 1958 
C 1798 2336 1818 2701 1818 3034 
L 4742 3034 
L 4742 1958 
L 1747 1958 
z
M 4742 4550 
L 4742 3488 
L 1818 3488 
L 1818 4550 
L 4742 4550 
z
M 5235 5018 
L 1338 5018 
L 1338 3059 
C 1338 2042 1235 742 218 -154 
C 314 -224 506 -397 570 -499 
C 1190 45 1510 768 1670 1491 
L 4742 1491 
L 4742 211 
C 4742 70 4691 26 4544 19 
C 4397 19 3885 13 3354 32 
C 3430 -102 3520 -326 3552 -461 
C 4237 -461 4659 -454 4902 -371 
C 5139 -294 5235 -128 5235 205 
L 5235 5018 
z
" transform="scale(0.015625)"/>
     <path id="NotoSansSC-Regular-6122" d="M 3424 1402 
L 5549 1402 
L 5549 1837 
L 3424 1837 
L 3424 2835 
L 5971 2835 
L 5971 3283 
L 3424 3283 
L 3424 4160 
L 5498 4160 
L 5498 4602 
L 3424 4602 
L 3424 5338 
L 2944 5338 
L 2944 4602 
L 973 4602 
L 973 4160 
L 2944 4160 
L 2944 3283 
L 422 3283 
L 422 2835 
L 2944 2835 
L 2944 294 
C 2426 506 2010 877 1741 1523 
C 1811 1818 1869 2112 1907 2394 
L 1421 2458 
C 1325 1517 1018 403 250 -192 
C 346 -262 518 -416 602 -506 
C 1043 -147 1350 378 1562 947 
C 2202 -173 3232 -410 4595 -410 
L 5965 -410 
C 5990 -275 6074 -58 6138 58 
C 5862 51 4826 45 4614 51 
C 4192 51 3789 77 3424 154 
L 3424 1402 
z
" transform="scale(0.015625)"/>
     <path id="NotoSansSC-Regular-26b6" d="M 429 3085 
L 1389 3251 
L 1389 2688 
C 1389 2618 1363 2592 1280 2592 
C 1203 2592 928 2592 634 2598 
C 691 2477 749 2310 774 2195 
C 1190 2189 1446 2202 1606 2266 
C 1779 2336 1824 2445 1824 2688 
L 1824 3328 
C 2112 3379 2406 3430 2694 3488 
L 2669 3898 
C 2387 3853 2099 3802 1824 3757 
L 1824 4307 
L 2650 4307 
L 2650 4730 
L 1824 4730 
L 1824 5350 
L 1389 5350 
L 1389 4730 
L 429 4730 
L 429 4307 
L 1389 4307 
L 1389 3686 
C 992 3622 627 3571 339 3526 
L 429 3085 
z
M 4160 4730 
C 4173 4922 4179 5139 4186 5357 
L 3744 5357 
C 3738 5133 3731 4922 3718 4730 
L 2784 4730 
L 2784 4320 
L 3680 4320 
C 3654 4090 3616 3878 3558 3686 
C 3366 3802 3181 3910 3008 4013 
L 2758 3686 
C 2963 3571 3181 3430 3392 3296 
C 3219 2976 2944 2733 2515 2541 
C 2605 2470 2720 2342 2771 2240 
L 2733 2240 
C 2707 2080 2682 1939 2650 1792 
L 602 1792 
L 602 1370 
L 2515 1370 
C 2240 685 1664 179 307 -90 
C 403 -192 518 -371 563 -499 
C 2099 -154 2726 493 3021 1370 
L 4986 1370 
C 4896 544 4794 173 4653 58 
C 4589 6 4518 -6 4378 -6 
C 4230 -6 3814 0 3398 38 
C 3482 -83 3539 -262 3546 -397 
C 3955 -422 4346 -429 4550 -416 
C 4774 -403 4909 -365 5050 -237 
C 5248 -45 5370 429 5478 1581 
C 5491 1651 5498 1792 5498 1792 
L 3136 1792 
C 3168 1939 3194 2086 3219 2240 
L 2861 2240 
C 3283 2445 3565 2714 3763 3046 
C 4058 2848 4320 2656 4506 2496 
L 4762 2874 
C 4563 3027 4269 3238 3942 3443 
C 4032 3699 4090 3994 4122 4320 
L 4909 4320 
C 4902 3027 4947 2234 5587 2234 
C 5939 2234 6080 2406 6131 3034 
C 6022 3066 5875 3142 5773 3213 
C 5754 2797 5715 2656 5606 2656 
C 5331 2650 5325 3347 5357 4730 
L 4160 4730 
z
" transform="scale(0.015625)"/>
     <path id="NotoSansSC-Regular-27b4" d="M 4851 1139 
C 4141 448 2701 70 1146 -96 
C 1235 -205 1331 -384 1370 -506 
C 3008 -301 4480 128 5286 928 
L 4851 1139 
z
M 4058 1818 
C 3501 1408 2445 1069 1536 902 
C 1638 806 1747 646 1805 538 
C 2765 749 3821 1126 4454 1619 
L 4058 1818 
z
M 3507 2560 
C 3072 2253 2266 1971 1638 1811 
C 1747 1722 1869 1581 1946 1478 
C 2592 1664 3386 1984 3891 2355 
L 3507 2560 
z
M 6048 2874 
L 6048 3302 
L 2835 3302 
C 2944 3494 3040 3706 3130 3917 
L 3110 3923 
L 4902 4006 
C 5069 3859 5210 3725 5312 3603 
L 5702 3885 
C 5357 4269 4646 4806 4070 5158 
L 3699 4909 
C 3942 4755 4205 4570 4454 4378 
L 1997 4282 
C 2400 4525 2810 4819 3187 5146 
L 2758 5389 
C 2298 4934 1670 4525 1472 4416 
C 1299 4307 1146 4237 1024 4224 
C 1069 4102 1139 3866 1158 3770 
C 1306 3821 1498 3846 2598 3898 
C 2509 3693 2400 3488 2285 3302 
L 358 3302 
L 358 2874 
L 1978 2874 
C 1530 2336 947 1907 275 1619 
C 384 1530 563 1338 634 1242 
C 1395 1619 2061 2163 2566 2874 
L 3866 2874 
C 4346 2208 5107 1606 5837 1286 
C 5907 1408 6048 1574 6157 1670 
C 5523 1907 4851 2368 4410 2874 
L 6048 2874 
z
" transform="scale(0.015625)"/>
     <path id="NotoSansSC-Regular-53c5" d="M 5990 3059 
L 5990 3469 
L 4339 3469 
C 4851 3885 5306 4352 5702 4838 
L 5331 5056 
C 4870 4474 4307 3942 3674 3469 
L 3136 3469 
L 3136 4198 
L 4518 4198 
L 4518 4595 
L 3136 4595 
L 3136 5350 
L 2669 5350 
L 2669 4595 
L 1037 4595 
L 1037 4198 
L 2669 4198 
L 2669 3469 
L 474 3469 
L 474 3059 
L 3098 3059 
C 2227 2483 1261 2003 282 1658 
C 352 1555 461 1338 499 1229 
C 1075 1459 1645 1722 2202 2022 
C 2048 1664 1875 1274 1715 998 
L 4544 998 
C 4454 416 4346 128 4218 32 
C 4141 -19 4058 -26 3904 -26 
C 3725 -26 3219 -13 2746 32 
C 2835 -96 2893 -275 2906 -416 
C 3373 -442 3814 -448 4032 -442 
C 4288 -429 4435 -397 4582 -269 
C 4787 -96 4922 307 5056 1184 
C 5075 1248 5088 1395 5088 1395 
L 2406 1395 
C 2502 1594 2592 1818 2688 2029 
L 5389 2029 
L 5389 2413 
L 2874 2413 
C 3200 2611 3520 2835 3827 3059 
L 5990 3059 
z
" transform="scale(0.015625)"/>
     <path id="NotoSansSC-Regular-a" d="M 634 -1261 
C 1229 -301 1581 730 1581 1990 
C 1581 3245 1229 4282 634 5235 
L 275 5069 
C 826 4154 1094 3078 1094 1990 
C 1094 902 826 -179 275 -1088 
L 634 -1261 
z
" transform="scale(0.015625)"/>
    </defs>
    <use xlink:href="#NotoSansSC-Regular-2ced"/>
    <use xlink:href="#NotoSansSC-Regular-48ef" transform="translate(100 0)"/>
    <use xlink:href="#NotoSansSC-Regular-394a" transform="translate(200 0)"/>
    <use xlink:href="#NotoSansSC-Regular-3749" transform="translate(300 0)"/>
    <use xlink:href="#NotoSansSC-Regular-1" transform="translate(400 0)"/>
    <use xlink:href="#NotoSansSC-Regular-9" transform="translate(422.40625 0)"/>
    <use xlink:href="#NotoSansSC-Regular-6383" transform="translate(456.203125 0)"/>
    <use xlink:href="#NotoSansSC-Regular-12" transform="translate(556.203125 0)"/>
    <use xlink:href="#NotoSansSC-Regular-3ae0" transform="translate(611.703125 0)"/>
    <use xlink:href="#NotoSansSC-Regular-6122" transform="translate(711.703125 0)"/>
    <use xlink:href="#NotoSansSC-Regular-26b6" transform="translate(811.703125 0)"/>
    <use xlink:href="#NotoSansSC-Regular-27b4" transform="translate(911.703125 0)"/>
    <use xlink:href="#NotoSansSC-Regular-53c5" transform="translate(1011.703125 0)"/>
    <use xlink:href="#NotoSansSC-Regular-a" transform="translate(1111.703125 0)"/>
   </g>
  </g>
 </g>
 <defs>
  <clipPath id="p314ad0b327">
   <rect x="23.08" y="25.76" width="329.79" height="122.97625"/>
  </clipPath>
 </defs>
</svg>
