<?xml version="1.0" encoding="utf-8" standalone="no"?>
<!DOCTYPE svg PUBLIC "-//W3C//DTD SVG 1.1//EN"
  "http://www.w3.org/Graphics/SVG/1.1/DTD/svg11.dtd">
<svg xmlns:xlink="http://www.w3.org/1999/xlink" width="380.920195pt" height="343.27775pt" viewBox="0 0 380.920195 343.27775" xmlns="http://www.w3.org/2000/svg" version="1.1">
 <metadata>
  <rdf:RDF xmlns:dc="http://purl.org/dc/elements/1.1/" xmlns:cc="http://creativecommons.org/ns#" xmlns:rdf="http://www.w3.org/1999/02/22-rdf-syntax-ns#">
   <cc:Work>
    <dc:type rdf:resource="http://purl.org/dc/dcmitype/StillImage"/>
    <dc:date>2026-06-04T10:34:57.337332</dc:date>
    <dc:format>image/svg+xml</dc:format>
    <dc:creator>
     <cc:Agent>
      <dc:title>Matplotlib v3.10.9, https://matplotlib.org/</dc:title>
     </cc:Agent>
    </dc:creator>
   </cc:Work>
  </rdf:RDF>
 </metadata>
 <defs>
  <style type="text/css">*{stroke-linejoin: round; stroke-linecap: butt}</style>
 </defs>
 <g id="figure_1">
  <g id="patch_1">
   <path d="M 0 343.27775 
L 380.920195 343.27775 
L 380.920195 0 
L 0 0 
z
" style="fill: #ffffff"/>
  </g>
  <g id="axes_1">
   <g id="patch_2">
    <path d="M 22.535 130.521763 
L 347.23375 130.521763 
L 347.23375 24.72875 
L 22.535 24.72875 
z
" style="fill: #ffffff"/>
   </g>
   <g id="patch_3">
    <path d="M 22.535 125.712989 
L 347.23375 125.712989 
L 347.23375 61.596012 
L 22.535 61.596012 
z
" clip-path="url(#pce3ff30bdb)" style="fill: #16a34a; opacity: 0.06"/>
   </g>
   <g id="patch_4">
    <path d="M 22.535 61.596012 
L 347.23375 61.596012 
L 347.23375 29.537523 
L 22.535 29.537523 
z
" clip-path="url(#pce3ff30bdb)" style="fill: #d4a017; opacity: 0.06"/>
   </g>
   <g id="patch_5">
    <path d="M 22.535 29.537523 
L 347.23375 29.537523 
L 347.23375 47.161677 
L 22.535 47.161677 
z
" clip-path="url(#pce3ff30bdb)" style="fill: #dc2626; opacity: 0.06"/>
   </g>
   <g id="matplotlib.axis_1">
    <g id="xtick_1">
     <g id="line2d_1">
      <defs>
       <path id="m4aff3a8cc0" d="M 0 0 
L 0 3.5 
" style="stroke: #64748b; stroke-width: 0.8"/>
      </defs>
      <g>
       <use xlink:href="#m4aff3a8cc0" x="37.294034" y="130.521763" style="fill: #64748b; stroke: #64748b; stroke-width: 0.8"/>
      </g>
     </g>
     <g id="text_1">
      <!-- 05/26 -->
      <g style="fill: #64748b" transform="translate(27.375284 143.874263) scale(0.08 -0.08)">
       <defs>
        <path id="NotoSansSC-Thin-30" d="M 1670 -83 
Q 1261 -83 963 179 
Q 666 442 509 979 
Q 352 1517 352 2336 
Q 352 3149 509 3677 
Q 666 4205 963 4467 
Q 1261 4730 1670 4730 
Q 2080 4730 2371 4467 
Q 2662 4205 2822 3677 
Q 2982 3149 2982 2336 
Q 2982 1517 2822 979 
Q 2662 442 2371 179 
Q 2080 -83 1670 -83 
z
M 1670 128 
Q 1997 128 2240 384 
Q 2483 640 2614 1133 
Q 2746 1626 2746 2336 
Q 2746 3040 2614 3529 
Q 2483 4019 2240 4272 
Q 1997 4525 1670 4525 
Q 1344 4525 1101 4272 
Q 858 4019 723 3529 
Q 589 3040 589 2336 
Q 589 1626 723 1133 
Q 858 640 1101 384 
Q 1344 128 1670 128 
z
" transform="scale(0.015625)"/>
        <path id="NotoSansSC-Thin-35" d="M 1581 -83 
Q 1222 -83 963 9 
Q 704 102 515 240 
Q 326 378 186 518 
L 333 691 
Q 467 550 636 422 
Q 806 294 1040 211 
Q 1274 128 1594 128 
Q 1901 128 2166 294 
Q 2432 461 2592 765 
Q 2752 1069 2752 1466 
Q 2752 2061 2441 2406 
Q 2131 2752 1606 2752 
Q 1350 2752 1152 2665 
Q 954 2579 755 2445 
L 563 2560 
L 730 4646 
L 2758 4646 
L 2758 4435 
L 941 4435 
L 787 2726 
Q 966 2835 1168 2902 
Q 1370 2970 1626 2970 
Q 2010 2970 2320 2813 
Q 2630 2656 2812 2326 
Q 2995 1997 2995 1478 
Q 2995 979 2787 630 
Q 2579 282 2256 99 
Q 1933 -83 1581 -83 
z
" transform="scale(0.015625)"/>
        <path id="NotoSansSC-Thin-2f" d="M 58 -1126 
L 2298 5005 
L 2515 5005 
L 282 -1126 
L 58 -1126 
z
" transform="scale(0.015625)"/>
        <path id="NotoSansSC-Thin-32" d="M 294 0 
L 294 147 
Q 1120 858 1613 1434 
Q 2106 2010 2323 2499 
Q 2541 2989 2541 3424 
Q 2541 3725 2435 3974 
Q 2330 4224 2106 4371 
Q 1882 4518 1523 4518 
Q 1210 4518 931 4352 
Q 653 4186 442 3923 
L 282 4070 
Q 525 4346 829 4538 
Q 1133 4730 1542 4730 
Q 1939 4730 2214 4566 
Q 2490 4403 2637 4112 
Q 2784 3821 2784 3424 
Q 2784 2918 2537 2406 
Q 2291 1894 1820 1347 
Q 1350 800 678 179 
Q 870 192 1062 201 
Q 1254 211 1440 211 
L 3014 211 
L 3014 0 
L 294 0 
z
" transform="scale(0.015625)"/>
        <path id="NotoSansSC-Thin-36" d="M 1837 -83 
Q 1498 -83 1232 67 
Q 966 218 780 509 
Q 595 800 496 1216 
Q 397 1632 397 2170 
Q 397 2886 528 3379 
Q 659 3872 889 4169 
Q 1120 4467 1414 4598 
Q 1709 4730 2029 4730 
Q 2330 4730 2550 4614 
Q 2771 4499 2944 4307 
L 2790 4147 
Q 2643 4333 2444 4425 
Q 2246 4518 2022 4518 
Q 1651 4518 1334 4297 
Q 1018 4077 826 3561 
Q 634 3046 634 2170 
Q 634 1581 762 1120 
Q 890 659 1158 393 
Q 1427 128 1850 128 
Q 2125 128 2336 297 
Q 2547 467 2672 752 
Q 2797 1037 2797 1382 
Q 2797 1741 2694 2025 
Q 2592 2310 2368 2476 
Q 2144 2643 1779 2643 
Q 1523 2643 1209 2470 
Q 896 2298 602 1888 
L 602 2176 
Q 768 2381 957 2531 
Q 1146 2682 1360 2762 
Q 1574 2842 1792 2842 
Q 2189 2842 2467 2675 
Q 2746 2509 2893 2185 
Q 3040 1862 3040 1382 
Q 3040 960 2873 630 
Q 2707 301 2435 109 
Q 2163 -83 1837 -83 
z
" transform="scale(0.015625)"/>
       </defs>
       <use xlink:href="#NotoSansSC-Thin-30"/>
       <use xlink:href="#NotoSansSC-Thin-35" transform="translate(52.099991 0)"/>
       <use xlink:href="#NotoSansSC-Thin-2f" transform="translate(104.199982 0)"/>
       <use xlink:href="#NotoSansSC-Thin-32" transform="translate(143.799973 0)"/>
       <use xlink:href="#NotoSansSC-Thin-36" transform="translate(195.899963 0)"/>
      </g>
     </g>
    </g>
    <g id="xtick_2">
     <g id="line2d_2">
      <g>
       <use xlink:href="#m4aff3a8cc0" x="74.191619" y="130.521763" style="fill: #64748b; stroke: #64748b; stroke-width: 0.8"/>
      </g>
     </g>
     <g id="text_2">
      <!-- 05/27 -->
      <g style="fill: #64748b" transform="translate(64.272869 143.874263) scale(0.08 -0.08)">
       <defs>
        <path id="NotoSansSC-Thin-37" d="M 1344 0 
Q 1376 717 1462 1318 
Q 1549 1920 1712 2445 
Q 1875 2970 2124 3459 
Q 2374 3949 2726 4435 
L 307 4435 
L 307 4646 
L 3034 4646 
L 3034 4512 
Q 2624 3955 2355 3436 
Q 2086 2918 1932 2384 
Q 1779 1850 1705 1267 
Q 1632 685 1606 0 
L 1344 0 
z
" transform="scale(0.015625)"/>
       </defs>
       <use xlink:href="#NotoSansSC-Thin-30"/>
       <use xlink:href="#NotoSansSC-Thin-35" transform="translate(52.099991 0)"/>
       <use xlink:href="#NotoSansSC-Thin-2f" transform="translate(104.199982 0)"/>
       <use xlink:href="#NotoSansSC-Thin-32" transform="translate(143.799973 0)"/>
       <use xlink:href="#NotoSansSC-Thin-37" transform="translate(195.899963 0)"/>
      </g>
     </g>
    </g>
    <g id="xtick_3">
     <g id="line2d_3">
      <g>
       <use xlink:href="#m4aff3a8cc0" x="111.089205" y="130.521763" style="fill: #64748b; stroke: #64748b; stroke-width: 0.8"/>
      </g>
     </g>
     <g id="text_3">
      <!-- 05/28 -->
      <g style="fill: #64748b" transform="translate(101.170455 143.874263) scale(0.08 -0.08)">
       <defs>
        <path id="NotoSansSC-Thin-38" d="M 1696 -83 
Q 1286 -83 966 80 
Q 646 243 464 521 
Q 282 800 282 1152 
Q 282 1478 422 1744 
Q 563 2010 774 2202 
Q 986 2394 1197 2509 
L 1197 2534 
Q 954 2694 752 2953 
Q 550 3213 550 3578 
Q 550 3910 704 4163 
Q 858 4416 1117 4560 
Q 1376 4704 1696 4704 
Q 2080 4704 2345 4544 
Q 2611 4384 2752 4112 
Q 2893 3840 2893 3494 
Q 2893 3238 2784 3008 
Q 2675 2778 2528 2602 
Q 2381 2426 2253 2317 
L 2253 2285 
Q 2445 2170 2627 2010 
Q 2810 1850 2925 1626 
Q 3040 1402 3040 1082 
Q 3040 762 2870 496 
Q 2701 230 2400 73 
Q 2099 -83 1696 -83 
z
M 2035 2387 
Q 2336 2630 2499 2905 
Q 2662 3181 2662 3494 
Q 2662 3763 2550 3990 
Q 2438 4218 2220 4358 
Q 2003 4499 1696 4499 
Q 1293 4499 1040 4236 
Q 787 3974 787 3578 
Q 787 3238 972 3017 
Q 1158 2797 1446 2653 
Q 1734 2509 2035 2387 
z
M 1696 128 
Q 2035 128 2281 256 
Q 2528 384 2662 601 
Q 2797 819 2797 1082 
Q 2797 1370 2675 1574 
Q 2554 1779 2352 1923 
Q 2150 2067 1894 2182 
Q 1638 2298 1370 2400 
Q 998 2189 758 1875 
Q 518 1562 518 1152 
Q 518 870 668 636 
Q 819 403 1088 265 
Q 1357 128 1696 128 
z
" transform="scale(0.015625)"/>
       </defs>
       <use xlink:href="#NotoSansSC-Thin-30"/>
       <use xlink:href="#NotoSansSC-Thin-35" transform="translate(52.099991 0)"/>
       <use xlink:href="#NotoSansSC-Thin-2f" transform="translate(104.199982 0)"/>
       <use xlink:href="#NotoSansSC-Thin-32" transform="translate(143.799973 0)"/>
       <use xlink:href="#NotoSansSC-Thin-38" transform="translate(195.899963 0)"/>
      </g>
     </g>
    </g>
    <g id="xtick_4">
     <g id="line2d_4">
      <g>
       <use xlink:href="#m4aff3a8cc0" x="147.98679" y="130.521763" style="fill: #64748b; stroke: #64748b; stroke-width: 0.8"/>
      </g>
     </g>
     <g id="text_4">
      <!-- 05/29 -->
      <g style="fill: #64748b" transform="translate(138.06804 143.874263) scale(0.08 -0.08)">
       <defs>
        <path id="NotoSansSC-Thin-39" d="M 1370 -83 
Q 1050 -83 819 32 
Q 589 147 410 339 
L 557 506 
Q 723 314 934 221 
Q 1146 128 1389 128 
Q 1651 128 1891 256 
Q 2131 384 2316 675 
Q 2502 966 2611 1443 
Q 2720 1920 2720 2618 
Q 2720 3168 2592 3600 
Q 2464 4032 2195 4278 
Q 1926 4525 1498 4525 
Q 1229 4525 1014 4355 
Q 800 4186 675 3901 
Q 550 3616 550 3264 
Q 550 2912 652 2627 
Q 755 2342 979 2172 
Q 1203 2003 1555 2003 
Q 1830 2003 2137 2182 
Q 2445 2362 2739 2765 
L 2746 2470 
Q 2586 2278 2397 2128 
Q 2208 1978 1993 1891 
Q 1779 1805 1536 1805 
Q 1152 1805 877 1974 
Q 602 2144 454 2470 
Q 307 2797 307 3264 
Q 307 3686 473 4019 
Q 640 4352 912 4541 
Q 1184 4730 1510 4730 
Q 1850 4730 2118 4589 
Q 2387 4448 2572 4176 
Q 2758 3904 2857 3513 
Q 2957 3123 2957 2618 
Q 2957 1862 2825 1344 
Q 2694 826 2470 512 
Q 2246 198 1961 57 
Q 1677 -83 1370 -83 
z
" transform="scale(0.015625)"/>
       </defs>
       <use xlink:href="#NotoSansSC-Thin-30"/>
       <use xlink:href="#NotoSansSC-Thin-35" transform="translate(52.099991 0)"/>
       <use xlink:href="#NotoSansSC-Thin-2f" transform="translate(104.199982 0)"/>
       <use xlink:href="#NotoSansSC-Thin-32" transform="translate(143.799973 0)"/>
       <use xlink:href="#NotoSansSC-Thin-39" transform="translate(195.899963 0)"/>
      </g>
     </g>
    </g>
    <g id="xtick_5">
     <g id="line2d_5">
      <g>
       <use xlink:href="#m4aff3a8cc0" x="184.884375" y="130.521763" style="fill: #64748b; stroke: #64748b; stroke-width: 0.8"/>
      </g>
     </g>
     <g id="text_5">
      <!-- 05/30 -->
      <g style="fill: #64748b" transform="translate(174.965625 143.874263) scale(0.08 -0.08)">
       <defs>
        <path id="NotoSansSC-Thin-33" d="M 1619 -83 
Q 1261 -83 998 13 
Q 736 109 544 256 
Q 352 403 211 550 
L 358 717 
Q 563 499 857 313 
Q 1152 128 1632 128 
Q 1952 128 2198 262 
Q 2445 397 2585 640 
Q 2726 883 2726 1210 
Q 2726 1542 2560 1795 
Q 2394 2048 2038 2189 
Q 1683 2330 1114 2330 
L 1114 2554 
Q 1651 2554 1964 2698 
Q 2278 2842 2416 3088 
Q 2554 3334 2554 3629 
Q 2554 4026 2298 4272 
Q 2042 4518 1606 4518 
Q 1293 4518 1017 4374 
Q 742 4230 557 4026 
L 410 4192 
Q 634 4410 925 4570 
Q 1216 4730 1606 4730 
Q 1939 4730 2211 4598 
Q 2483 4467 2643 4224 
Q 2803 3981 2803 3642 
Q 2803 3168 2550 2877 
Q 2298 2586 1926 2464 
L 1926 2438 
Q 2208 2381 2445 2221 
Q 2682 2061 2826 1808 
Q 2970 1555 2970 1222 
Q 2970 826 2790 531 
Q 2611 237 2307 77 
Q 2003 -83 1619 -83 
z
" transform="scale(0.015625)"/>
       </defs>
       <use xlink:href="#NotoSansSC-Thin-30"/>
       <use xlink:href="#NotoSansSC-Thin-35" transform="translate(52.099991 0)"/>
       <use xlink:href="#NotoSansSC-Thin-2f" transform="translate(104.199982 0)"/>
       <use xlink:href="#NotoSansSC-Thin-33" transform="translate(143.799973 0)"/>
       <use xlink:href="#NotoSansSC-Thin-30" transform="translate(195.899963 0)"/>
      </g>
     </g>
    </g>
    <g id="xtick_6">
     <g id="line2d_6">
      <g>
       <use xlink:href="#m4aff3a8cc0" x="221.78196" y="130.521763" style="fill: #64748b; stroke: #64748b; stroke-width: 0.8"/>
      </g>
     </g>
     <g id="text_6">
      <!-- 05/31 -->
      <g style="fill: #64748b" transform="translate(211.86321 143.874263) scale(0.08 -0.08)">
       <defs>
        <path id="NotoSansSC-Thin-31" d="M 608 0 
L 608 211 
L 1677 211 
L 1677 4211 
L 864 4211 
L 864 4378 
Q 1133 4422 1344 4492 
Q 1555 4563 1702 4646 
L 1901 4646 
L 1901 211 
L 2899 211 
L 2899 0 
L 608 0 
z
" transform="scale(0.015625)"/>
       </defs>
       <use xlink:href="#NotoSansSC-Thin-30"/>
       <use xlink:href="#NotoSansSC-Thin-35" transform="translate(52.099991 0)"/>
       <use xlink:href="#NotoSansSC-Thin-2f" transform="translate(104.199982 0)"/>
       <use xlink:href="#NotoSansSC-Thin-33" transform="translate(143.799973 0)"/>
       <use xlink:href="#NotoSansSC-Thin-31" transform="translate(195.899963 0)"/>
      </g>
     </g>
    </g>
    <g id="xtick_7">
     <g id="line2d_7">
      <g>
       <use xlink:href="#m4aff3a8cc0" x="258.679545" y="130.521763" style="fill: #64748b; stroke: #64748b; stroke-width: 0.8"/>
      </g>
     </g>
     <g id="text_7">
      <!-- 06/01 -->
      <g style="fill: #64748b" transform="translate(248.760795 143.874263) scale(0.08 -0.08)">
       <use xlink:href="#NotoSansSC-Thin-30"/>
       <use xlink:href="#NotoSansSC-Thin-36" transform="translate(52.099991 0)"/>
       <use xlink:href="#NotoSansSC-Thin-2f" transform="translate(104.199982 0)"/>
       <use xlink:href="#NotoSansSC-Thin-30" transform="translate(143.799973 0)"/>
       <use xlink:href="#NotoSansSC-Thin-31" transform="translate(195.899963 0)"/>
      </g>
     </g>
    </g>
    <g id="xtick_8">
     <g id="line2d_8">
      <g>
       <use xlink:href="#m4aff3a8cc0" x="295.577131" y="130.521763" style="fill: #64748b; stroke: #64748b; stroke-width: 0.8"/>
      </g>
     </g>
     <g id="text_8">
      <!-- 06/02 -->
      <g style="fill: #64748b" transform="translate(285.658381 143.874263) scale(0.08 -0.08)">
       <use xlink:href="#NotoSansSC-Thin-30"/>
       <use xlink:href="#NotoSansSC-Thin-36" transform="translate(52.099991 0)"/>
       <use xlink:href="#NotoSansSC-Thin-2f" transform="translate(104.199982 0)"/>
       <use xlink:href="#NotoSansSC-Thin-30" transform="translate(143.799973 0)"/>
       <use xlink:href="#NotoSansSC-Thin-32" transform="translate(195.899963 0)"/>
      </g>
     </g>
    </g>
    <g id="xtick_9">
     <g id="line2d_9">
      <g>
       <use xlink:href="#m4aff3a8cc0" x="332.474716" y="130.521763" style="fill: #64748b; stroke: #64748b; stroke-width: 0.8"/>
      </g>
     </g>
     <g id="text_9">
      <!-- 06/03 -->
      <g style="fill: #64748b" transform="translate(322.555966 143.874263) scale(0.08 -0.08)">
       <use xlink:href="#NotoSansSC-Thin-30"/>
       <use xlink:href="#NotoSansSC-Thin-36" transform="translate(52.099991 0)"/>
       <use xlink:href="#NotoSansSC-Thin-2f" transform="translate(104.199982 0)"/>
       <use xlink:href="#NotoSansSC-Thin-30" transform="translate(143.799973 0)"/>
       <use xlink:href="#NotoSansSC-Thin-33" transform="translate(195.899963 0)"/>
      </g>
     </g>
    </g>
   </g>
   <g id="matplotlib.axis_2">
    <g id="ytick_1">
     <g id="line2d_10">
      <path d="M 22.535 125.712989 
L 347.23375 125.712989 
" clip-path="url(#pce3ff30bdb)" style="fill: none; stroke: #64748b; stroke-opacity: 0.12; stroke-width: 0.5; stroke-linecap: square"/>
     </g>
     <g id="line2d_11">
      <defs>
       <path id="m5a77d21c7b" d="M 0 0 
L -3.5 0 
" style="stroke: #64748b; stroke-width: 0.8"/>
      </defs>
      <g>
       <use xlink:href="#m5a77d21c7b" x="22.535" y="125.712989" style="fill: #64748b; stroke: #64748b; stroke-width: 0.8"/>
      </g>
     </g>
     <g id="text_10">
      <!-- 0 -->
      <g style="fill: #64748b" transform="translate(11.3675 128.889239) scale(0.08 -0.08)">
       <use xlink:href="#NotoSansSC-Thin-30"/>
      </g>
     </g>
    </g>
    <g id="ytick_2">
     <g id="line2d_12">
      <path d="M 22.535 93.654501 
L 347.23375 93.654501 
" clip-path="url(#pce3ff30bdb)" style="fill: none; stroke: #64748b; stroke-opacity: 0.12; stroke-width: 0.5; stroke-linecap: square"/>
     </g>
     <g id="line2d_13">
      <g>
       <use xlink:href="#m5a77d21c7b" x="22.535" y="93.654501" style="fill: #64748b; stroke: #64748b; stroke-width: 0.8"/>
      </g>
     </g>
     <g id="text_11">
      <!-- 10 -->
      <g style="fill: #64748b" transform="translate(7.2 96.830751) scale(0.08 -0.08)">
       <use xlink:href="#NotoSansSC-Thin-31"/>
       <use xlink:href="#NotoSansSC-Thin-30" transform="translate(52.099991 0)"/>
      </g>
     </g>
    </g>
    <g id="ytick_3">
     <g id="line2d_14">
      <path d="M 22.535 61.596012 
L 347.23375 61.596012 
" clip-path="url(#pce3ff30bdb)" style="fill: none; stroke: #64748b; stroke-opacity: 0.12; stroke-width: 0.5; stroke-linecap: square"/>
     </g>
     <g id="line2d_15">
      <g>
       <use xlink:href="#m5a77d21c7b" x="22.535" y="61.596012" style="fill: #64748b; stroke: #64748b; stroke-width: 0.8"/>
      </g>
     </g>
     <g id="text_12">
      <!-- 20 -->
      <g style="fill: #64748b" transform="translate(7.2 64.772262) scale(0.08 -0.08)">
       <use xlink:href="#NotoSansSC-Thin-32"/>
       <use xlink:href="#NotoSansSC-Thin-30" transform="translate(52.099991 0)"/>
      </g>
     </g>
    </g>
    <g id="ytick_4">
     <g id="line2d_16">
      <path d="M 22.535 29.537523 
L 347.23375 29.537523 
" clip-path="url(#pce3ff30bdb)" style="fill: none; stroke: #64748b; stroke-opacity: 0.12; stroke-width: 0.5; stroke-linecap: square"/>
     </g>
     <g id="line2d_17">
      <g>
       <use xlink:href="#m5a77d21c7b" x="22.535" y="29.537523" style="fill: #64748b; stroke: #64748b; stroke-width: 0.8"/>
      </g>
     </g>
     <g id="text_13">
      <!-- 30 -->
      <g style="fill: #64748b" transform="translate(7.2 32.713773) scale(0.08 -0.08)">
       <use xlink:href="#NotoSansSC-Thin-33"/>
       <use xlink:href="#NotoSansSC-Thin-30" transform="translate(52.099991 0)"/>
      </g>
     </g>
    </g>
   </g>
   <g id="FillBetweenPolyCollection_1">
    <defs>
     <path id="m9ef420ed89" d="M 37.294034 -217.564761 
L 37.294034 -262.061943 
L 74.191619 -264.24192 
L 111.089205 -265.973079 
L 147.98679 -267.960705 
L 258.679545 -270.108624 
L 295.577131 -270.268916 
L 332.474716 -274.692987 
L 332.474716 -217.564761 
L 332.474716 -217.564761 
L 295.577131 -217.564761 
L 258.679545 -217.564761 
L 147.98679 -217.564761 
L 111.089205 -217.564761 
L 74.191619 -217.564761 
L 37.294034 -217.564761 
z
" style="stroke: #1a56db; stroke-opacity: 0.1"/>
    </defs>
    <g clip-path="url(#pce3ff30bdb)">
     <use xlink:href="#m9ef420ed89" x="0" y="343.27775" style="fill: #1a56db; fill-opacity: 0.1; stroke: #1a56db; stroke-opacity: 0.1"/>
    </g>
   </g>
   <g id="line2d_18">
    <path d="M 22.535 61.596012 
L 347.23375 61.596012 
" clip-path="url(#pce3ff30bdb)" style="fill: none; stroke-dasharray: 2.96,1.28; stroke-dashoffset: 0; stroke: #16a34a; stroke-opacity: 0.4; stroke-width: 0.8"/>
   </g>
   <g id="line2d_19">
    <path d="M 22.535 29.537523 
L 347.23375 29.537523 
" clip-path="url(#pce3ff30bdb)" style="fill: none; stroke-dasharray: 2.96,1.28; stroke-dashoffset: 0; stroke: #dc2626; stroke-opacity: 0.4; stroke-width: 0.8"/>
   </g>
   <g id="patch_6">
    <path d="M 22.535 130.521763 
L 22.535 24.72875 
" style="fill: none; stroke: #e2e8f0; stroke-width: 0.5; stroke-linejoin: miter; stroke-linecap: square"/>
   </g>
   <g id="patch_7">
    <path d="M 22.535 130.521763 
L 347.23375 130.521763 
" style="fill: none; stroke: #e2e8f0; stroke-width: 0.5; stroke-linejoin: miter; stroke-linecap: square"/>
   </g>
   <g id="text_14">
    <!-- 贪婪 -->
    <g style="fill: #16a34a; opacity: 0.6" transform="translate(355.720195 96.134423) scale(0.09 -0.09)">
     <defs>
      <path id="NotoSansSC-Thin-8d2a" d="M 1216 3514 
L 4896 3514 
L 4896 3328 
L 1216 3328 
L 1216 3514 
z
M 3264 5331 
L 3482 5254 
Q 2995 4742 2198 4323 
Q 1402 3904 461 3603 
Q 448 3622 422 3648 
Q 397 3674 368 3699 
Q 339 3725 314 3744 
Q 941 3942 1507 4192 
Q 2074 4442 2528 4730 
Q 2982 5018 3264 5331 
z
M 3296 5178 
Q 3488 4998 3792 4803 
Q 4096 4608 4477 4422 
Q 4858 4237 5277 4083 
Q 5696 3930 6118 3827 
Q 6099 3808 6073 3776 
Q 6048 3744 6025 3712 
Q 6003 3680 5984 3654 
Q 5568 3763 5155 3926 
Q 4742 4090 4364 4278 
Q 3987 4467 3680 4662 
Q 3373 4858 3168 5030 
L 3296 5178 
z
M 2803 4371 
L 2925 4493 
Q 3149 4333 3366 4128 
Q 3584 3923 3699 3776 
L 3571 3642 
Q 3450 3795 3232 4003 
Q 3014 4211 2803 4371 
z
M 4851 3514 
L 4902 3514 
L 4934 3533 
L 5075 3437 
Q 4877 3219 4630 2963 
Q 4384 2707 4147 2477 
L 3968 2592 
Q 4211 2816 4454 3065 
Q 4698 3315 4851 3475 
L 4851 3514 
z
M 3085 2003 
L 3277 2003 
L 3277 1542 
Q 3277 1357 3235 1149 
Q 3194 941 3059 726 
Q 2925 512 2646 301 
Q 2368 90 1897 -105 
Q 1427 -301 710 -474 
Q 698 -448 678 -419 
Q 659 -390 636 -361 
Q 614 -333 595 -314 
Q 1299 -154 1756 28 
Q 2214 211 2483 406 
Q 2752 602 2880 800 
Q 3008 998 3046 1187 
Q 3085 1376 3085 1542 
L 3085 2003 
z
M 3341 550 
L 3456 698 
Q 3744 602 4054 480 
Q 4365 358 4669 227 
Q 4973 96 5238 -32 
Q 5504 -160 5696 -269 
L 5574 -435 
Q 5389 -326 5126 -198 
Q 4864 -70 4560 64 
Q 4256 198 3942 323 
Q 3629 448 3341 550 
z
M 1299 2432 
L 5120 2432 
L 5120 634 
L 4928 634 
L 4928 2246 
L 1478 2246 
L 1478 634 
L 1299 634 
L 1299 2432 
z
" transform="scale(0.015625)"/>
      <path id="NotoSansSC-Thin-5a6a" d="M 442 1818 
L 5946 1818 
L 5946 1632 
L 442 1632 
L 442 1818 
z
M 4608 1760 
L 4787 1683 
Q 4608 1184 4253 809 
Q 3898 435 3363 176 
Q 2829 -83 2105 -236 
Q 1382 -390 467 -454 
Q 461 -416 435 -365 
Q 410 -314 378 -269 
Q 1594 -192 2445 41 
Q 3296 275 3827 697 
Q 4358 1120 4608 1760 
z
M 1312 704 
L 1478 845 
Q 2106 736 2723 605 
Q 3341 474 3913 323 
Q 4486 173 4985 13 
Q 5485 -147 5869 -314 
L 5677 -461 
Q 5184 -250 4499 -42 
Q 3814 166 3001 358 
Q 2189 550 1312 704 
z
M 390 4467 
L 2963 4467 
L 2963 4282 
L 390 4282 
L 390 4467 
z
M 1638 5312 
L 1824 5312 
L 1824 2349 
L 1638 2349 
L 1638 5312 
z
M 3200 4467 
L 6029 4467 
L 6029 4282 
L 3200 4282 
L 3200 4467 
z
M 4371 5312 
L 4563 5312 
L 4563 2349 
L 4371 2349 
L 4371 5312 
z
M 4704 4403 
Q 4851 4077 5075 3757 
Q 5299 3437 5571 3177 
Q 5843 2918 6112 2765 
Q 6080 2739 6038 2697 
Q 5997 2656 5971 2618 
Q 5702 2790 5433 3062 
Q 5165 3334 4934 3667 
Q 4704 4000 4550 4339 
L 4704 4403 
z
M 1606 4390 
L 1760 4326 
Q 1619 3994 1398 3658 
Q 1178 3322 925 3043 
Q 672 2765 422 2586 
Q 397 2624 355 2662 
Q 314 2701 282 2726 
Q 531 2886 784 3152 
Q 1037 3418 1254 3741 
Q 1472 4064 1606 4390 
z
M 4237 4416 
L 4384 4352 
Q 4243 4019 4025 3689 
Q 3808 3360 3552 3085 
Q 3296 2810 3046 2637 
Q 3021 2675 2982 2713 
Q 2944 2752 2912 2778 
Q 3162 2931 3414 3193 
Q 3667 3456 3884 3776 
Q 4102 4096 4237 4416 
z
M 1786 4294 
Q 1856 4230 2009 4083 
Q 2163 3936 2342 3760 
Q 2522 3584 2669 3437 
Q 2816 3290 2880 3219 
L 2733 3072 
Q 2669 3162 2525 3318 
Q 2381 3475 2211 3651 
Q 2042 3827 1894 3974 
Q 1747 4122 1664 4198 
L 1786 4294 
z
M 1312 704 
Q 1530 941 1773 1254 
Q 2016 1568 2240 1901 
Q 2464 2234 2618 2528 
L 2803 2477 
Q 2643 2176 2422 1843 
Q 2202 1510 1968 1212 
Q 1734 915 1542 704 
L 1312 704 
z
" transform="scale(0.015625)"/>
     </defs>
     <use xlink:href="#NotoSansSC-Thin-8d2a"/>
     <use xlink:href="#NotoSansSC-Thin-5a6a" transform="translate(99.999985 0)"/>
    </g>
   </g>
   <g id="text_15">
    <!-- 中性 -->
    <g style="fill: #d4a017; opacity: 0.6" transform="translate(355.720195 48.04669) scale(0.09 -0.09)">
     <defs>
      <path id="NotoSansSC-Thin-4e2d" d="M 672 4141 
L 5696 4141 
L 5696 1331 
L 5510 1331 
L 5510 3955 
L 858 3955 
L 858 1299 
L 672 1299 
L 672 4141 
z
M 781 1926 
L 5638 1926 
L 5638 1741 
L 781 1741 
L 781 1926 
z
M 3085 5318 
L 3277 5318 
L 3277 -435 
L 3085 -435 
L 3085 5318 
z
" transform="scale(0.015625)"/>
      <path id="NotoSansSC-Thin-6027" d="M 1248 5318 
L 1440 5318 
L 1440 -435 
L 1248 -435 
L 1248 5318 
z
M 608 4115 
L 787 4083 
Q 768 3840 723 3542 
Q 678 3245 608 2953 
Q 538 2662 442 2438 
L 256 2496 
Q 352 2707 422 2988 
Q 493 3270 541 3568 
Q 589 3866 608 4115 
z
M 1683 4243 
L 1837 4314 
Q 1997 4045 2137 3728 
Q 2278 3411 2336 3206 
L 2170 3104 
Q 2131 3251 2054 3446 
Q 1978 3642 1882 3853 
Q 1786 4064 1683 4243 
z
M 3085 5018 
L 3277 4979 
Q 3174 4525 3033 4089 
Q 2893 3654 2726 3273 
Q 2560 2893 2368 2592 
Q 2349 2605 2317 2624 
Q 2285 2643 2249 2659 
Q 2214 2675 2189 2688 
Q 2394 2982 2563 3356 
Q 2733 3731 2864 4156 
Q 2995 4582 3085 5018 
z
M 2867 3898 
L 5869 3898 
L 5869 3706 
L 2790 3706 
L 2867 3898 
z
M 4064 5306 
L 4262 5306 
L 4262 -109 
L 4064 -109 
L 4064 5306 
z
M 2586 2093 
L 5722 2093 
L 5722 1907 
L 2586 1907 
L 2586 2093 
z
M 2106 -13 
L 5978 -13 
L 5978 -198 
L 2106 -198 
L 2106 -13 
z
" transform="scale(0.015625)"/>
     </defs>
     <use xlink:href="#NotoSansSC-Thin-4e2d"/>
     <use xlink:href="#NotoSansSC-Thin-6027" transform="translate(99.999985 0)"/>
    </g>
   </g>
   <g id="text_16">
    <!-- 恐慌 -->
    <g style="fill: #dc2626; opacity: 0.6" transform="translate(355.720195 15.988201) scale(0.09 -0.09)">
     <defs>
      <path id="NotoSansSC-Thin-6050" d="M 1971 1830 
L 2157 1830 
L 2157 77 
Q 2157 -58 2246 -99 
Q 2336 -141 2630 -141 
Q 2701 -141 2905 -141 
Q 3110 -141 3360 -141 
Q 3610 -141 3830 -141 
Q 4051 -141 4147 -141 
Q 4320 -141 4403 -80 
Q 4486 -19 4524 166 
Q 4563 352 4576 736 
Q 4602 717 4630 701 
Q 4659 685 4694 672 
Q 4730 659 4762 646 
Q 4742 256 4694 41 
Q 4646 -173 4521 -253 
Q 4397 -333 4154 -333 
Q 4115 -333 3961 -333 
Q 3808 -333 3600 -333 
Q 3392 -333 3187 -333 
Q 2982 -333 2832 -333 
Q 2682 -333 2650 -333 
Q 2387 -333 2236 -301 
Q 2086 -269 2028 -179 
Q 1971 -90 1971 83 
L 1971 1830 
z
M 2931 2003 
L 3072 2080 
Q 3264 1907 3449 1696 
Q 3635 1485 3788 1277 
Q 3942 1069 4026 902 
L 3878 813 
Q 3795 979 3641 1187 
Q 3488 1395 3305 1609 
Q 3123 1824 2931 2003 
z
M 3597 3994 
L 3738 4102 
Q 3923 3981 4102 3827 
Q 4282 3674 4432 3514 
Q 4582 3354 4666 3213 
L 4518 3091 
Q 4435 3232 4288 3392 
Q 4141 3552 3961 3712 
Q 3782 3872 3597 3994 
z
M 4851 1555 
L 4998 1626 
Q 5210 1389 5424 1104 
Q 5638 819 5824 550 
Q 6010 282 6118 77 
L 5958 -13 
Q 5850 192 5667 467 
Q 5485 742 5273 1027 
Q 5062 1312 4851 1555 
z
M 1082 1395 
L 1242 1331 
Q 1171 1094 1072 816 
Q 973 538 845 275 
Q 717 13 563 -186 
L 397 -102 
Q 557 90 685 352 
Q 813 614 915 889 
Q 1018 1165 1082 1395 
z
M 435 4845 
L 2701 4845 
L 2701 4653 
L 435 4653 
L 435 4845 
z
M 3270 4992 
L 5082 4992 
L 5082 4806 
L 3270 4806 
L 3270 4992 
z
M 1504 4787 
L 1696 4787 
L 1696 2778 
L 1504 2778 
L 1504 4787 
z
M 307 2560 
Q 614 2637 1011 2742 
Q 1408 2848 1853 2966 
Q 2298 3085 2746 3206 
L 2765 3040 
Q 2125 2861 1491 2681 
Q 858 2502 365 2374 
L 307 2560 
z
M 3168 4992 
L 3360 4992 
L 3360 4013 
Q 3360 3782 3325 3520 
Q 3290 3258 3171 2986 
Q 3053 2714 2813 2461 
Q 2573 2208 2163 1997 
Q 2144 2035 2112 2076 
Q 2080 2118 2048 2144 
Q 2432 2330 2659 2566 
Q 2886 2803 2995 3056 
Q 3104 3309 3136 3552 
Q 3168 3795 3168 4006 
L 3168 4992 
z
M 4960 4992 
L 5152 4992 
L 5152 2560 
Q 5152 2317 5203 2285 
Q 5254 2259 5357 2259 
Q 5408 2259 5491 2259 
Q 5574 2259 5638 2259 
Q 5696 2259 5757 2265 
Q 5818 2272 5843 2285 
Q 5869 2298 5894 2336 
Q 5920 2374 5926 2432 
Q 5939 2502 5948 2652 
Q 5958 2803 5958 3021 
Q 5997 2995 6038 2972 
Q 6080 2950 6125 2938 
Q 6118 2758 6108 2572 
Q 6099 2387 6080 2317 
Q 6042 2182 5933 2131 
Q 5888 2106 5814 2096 
Q 5741 2086 5664 2086 
Q 5619 2086 5500 2086 
Q 5382 2086 5344 2086 
Q 5267 2086 5193 2099 
Q 5120 2112 5062 2150 
Q 4998 2189 4979 2278 
Q 4960 2368 4960 2630 
L 4960 4992 
z
" transform="scale(0.015625)"/>
      <path id="NotoSansSC-Thin-614c" d="M 1984 4730 
L 6080 4730 
L 6080 4544 
L 1984 4544 
L 1984 4730 
z
M 3046 5318 
L 3238 5318 
L 3238 4077 
L 3046 4077 
L 3046 5318 
z
M 3872 1792 
L 4064 1792 
L 4064 -461 
L 3872 -461 
L 3872 1792 
z
M 4678 5318 
L 4870 5318 
L 4870 4077 
L 4678 4077 
L 4678 5318 
z
M 2067 3590 
L 6080 3590 
L 6080 3398 
L 2067 3398 
L 2067 3590 
z
M 2720 1824 
L 2906 1824 
L 2906 1274 
Q 2906 973 2845 662 
Q 2784 352 2576 64 
Q 2368 -224 1926 -474 
Q 1914 -448 1888 -422 
Q 1862 -397 1836 -374 
Q 1811 -352 1792 -339 
Q 2214 -109 2409 166 
Q 2605 442 2662 726 
Q 2720 1011 2720 1274 
L 2720 1824 
z
M 5069 1811 
L 5254 1811 
L 5254 6 
Q 5254 -90 5260 -144 
Q 5267 -198 5293 -218 
Q 5325 -243 5414 -243 
Q 5453 -243 5520 -243 
Q 5587 -243 5632 -243 
Q 5683 -243 5728 -236 
Q 5773 -230 5798 -218 
Q 5850 -186 5869 -77 
Q 5882 -6 5885 134 
Q 5888 275 5894 474 
Q 5926 448 5968 429 
Q 6010 410 6048 397 
Q 6042 230 6032 51 
Q 6022 -128 6010 -192 
Q 5971 -320 5882 -371 
Q 5850 -390 5786 -400 
Q 5722 -410 5664 -410 
Q 5626 -410 5526 -410 
Q 5427 -410 5395 -410 
Q 5331 -410 5267 -397 
Q 5203 -384 5152 -346 
Q 5101 -307 5085 -227 
Q 5069 -147 5069 77 
L 5069 1811 
z
M 1101 5318 
L 1286 5318 
L 1286 -435 
L 1101 -435 
L 1101 5318 
z
M 666 4115 
L 845 4083 
Q 826 3846 778 3545 
Q 730 3245 662 2953 
Q 595 2662 506 2438 
L 320 2496 
Q 410 2714 477 2995 
Q 544 3277 592 3571 
Q 640 3866 666 4115 
z
M 1466 4243 
L 1638 4294 
Q 1722 4096 1795 3865 
Q 1869 3635 1920 3424 
Q 1971 3213 1990 3059 
L 1798 2976 
Q 1773 3219 1677 3577 
Q 1581 3936 1466 4243 
z
M 2592 3494 
L 2778 3494 
L 2778 2342 
L 5805 2342 
L 5805 2150 
L 2592 2150 
L 2592 3494 
z
M 3590 4147 
L 3718 4256 
Q 3904 4096 4070 3901 
Q 4237 3706 4320 3558 
L 4173 3437 
Q 4090 3590 3923 3792 
Q 3757 3994 3590 4147 
z
" transform="scale(0.015625)"/>
     </defs>
     <use xlink:href="#NotoSansSC-Thin-6050"/>
     <use xlink:href="#NotoSansSC-Thin-614c" transform="translate(99.999985 0)"/>
    </g>
   </g>
   <g id="line2d_20">
    <path d="M 37.294034 81.215807 
L 74.191619 79.03583 
L 111.089205 77.304671 
L 147.98679 75.317045 
L 258.679545 73.169126 
L 295.577131 73.008834 
L 332.474716 68.584763 
" clip-path="url(#pce3ff30bdb)" style="fill: none; stroke: #1a56db; stroke-width: 2; stroke-linecap: square"/>
    <defs>
     <path id="me7de34ef6a" d="M 0 2.5 
C 0.663008 2.5 1.29895 2.236584 1.767767 1.767767 
C 2.236584 1.29895 2.5 0.663008 2.5 0 
C 2.5 -0.663008 2.236584 -1.29895 1.767767 -1.767767 
C 1.29895 -2.236584 0.663008 -2.5 0 -2.5 
C -0.663008 -2.5 -1.29895 -2.236584 -1.767767 -1.767767 
C -2.236584 -1.29895 -2.5 -0.663008 -2.5 0 
C -2.5 0.663008 -2.236584 1.29895 -1.767767 1.767767 
C -1.29895 2.236584 -0.663008 2.5 0 2.5 
z
" style="stroke: #ffffff; stroke-width: 1.5"/>
    </defs>
    <g clip-path="url(#pce3ff30bdb)">
     <use xlink:href="#me7de34ef6a" x="37.294034" y="81.215807" style="fill: #1a56db; stroke: #ffffff; stroke-width: 1.5"/>
     <use xlink:href="#me7de34ef6a" x="74.191619" y="79.03583" style="fill: #1a56db; stroke: #ffffff; stroke-width: 1.5"/>
     <use xlink:href="#me7de34ef6a" x="111.089205" y="77.304671" style="fill: #1a56db; stroke: #ffffff; stroke-width: 1.5"/>
     <use xlink:href="#me7de34ef6a" x="147.98679" y="75.317045" style="fill: #1a56db; stroke: #ffffff; stroke-width: 1.5"/>
     <use xlink:href="#me7de34ef6a" x="258.679545" y="73.169126" style="fill: #1a56db; stroke: #ffffff; stroke-width: 1.5"/>
     <use xlink:href="#me7de34ef6a" x="295.577131" y="73.008834" style="fill: #1a56db; stroke: #ffffff; stroke-width: 1.5"/>
     <use xlink:href="#me7de34ef6a" x="332.474716" y="68.584763" style="fill: #1a56db; stroke: #ffffff; stroke-width: 1.5"/>
    </g>
   </g>
   <g id="text_17">
    <g id="patch_8">
     <path d="M 337.474716 61.457419 
L 362.936278 61.457419 
Q 365.136278 61.457419 365.136278 59.257419 
L 365.136278 47.850075 
Q 365.136278 45.650075 362.936278 45.650075 
L 337.474716 45.650075 
Q 335.274716 45.650075 335.274716 47.850075 
L 335.274716 59.257419 
Q 335.274716 61.457419 337.474716 61.457419 
z
" style="fill: #ffffff; stroke: #1a56db; stroke-width: 0.8; stroke-linejoin: miter"/>
    </g>
    <!-- 17.82 -->
    <g style="fill: #1a56db" transform="translate(337.474716 56.584763) scale(0.11 -0.11)">
     <defs>
      <path id="NotoSansSC-Thin-2e" d="M 736 -83 
Q 640 -83 560 -9 
Q 480 64 480 192 
Q 480 333 560 406 
Q 640 480 736 480 
Q 838 480 918 406 
Q 998 333 998 192 
Q 998 64 918 -9 
Q 838 -83 736 -83 
z
" transform="scale(0.015625)"/>
     </defs>
     <use xlink:href="#NotoSansSC-Thin-31"/>
     <use xlink:href="#NotoSansSC-Thin-37" transform="translate(52.099991 0)"/>
     <use xlink:href="#NotoSansSC-Thin-2e" transform="translate(104.199982 0)"/>
     <use xlink:href="#NotoSansSC-Thin-38" transform="translate(127.299973 0)"/>
     <use xlink:href="#NotoSansSC-Thin-32" transform="translate(179.399963 0)"/>
    </g>
   </g>
   <g id="text_18">
    <!-- VIX 恐慌指数 · 近 1 周 -->
    <g style="fill: #1e293b" transform="translate(125.31 16.72875) scale(0.12 -0.12)">
     <defs>
      <path id="NotoSansSC-Thin-56" d="M 1587 0 
L 45 4646 
L 294 4646 
L 1190 1869 
Q 1325 1440 1437 1085 
Q 1549 730 1696 301 
L 1722 301 
Q 1869 730 1981 1085 
Q 2093 1440 2234 1869 
L 3123 4646 
L 3366 4646 
L 1830 0 
L 1587 0 
z
" transform="scale(0.015625)"/>
      <path id="NotoSansSC-Thin-49" d="M 704 0 
L 704 4646 
L 941 4646 
L 941 0 
L 704 0 
z
" transform="scale(0.015625)"/>
      <path id="NotoSansSC-Thin-58" d="M 128 0 
L 1536 2406 
L 224 4646 
L 486 4646 
L 1286 3226 
Q 1382 3066 1465 2928 
Q 1549 2790 1670 2598 
L 1696 2598 
Q 1805 2790 1878 2928 
Q 1952 3066 2048 3226 
L 2861 4646 
L 3104 4646 
L 1792 2394 
L 3200 0 
L 2944 0 
L 2093 1485 
Q 1997 1651 1888 1830 
Q 1779 2010 1651 2221 
L 1626 2221 
Q 1510 2010 1411 1830 
Q 1312 1651 1216 1485 
L 371 0 
L 128 0 
z
" transform="scale(0.015625)"/>
      <path id="NotoSansSC-Thin-20" transform="scale(0.015625)"/>
      <path id="NotoSansSC-Thin-6307" d="M 2867 5274 
L 3053 5274 
L 3053 3373 
Q 3053 3226 3155 3174 
Q 3258 3123 3597 3123 
Q 3661 3123 3830 3123 
Q 4000 3123 4224 3123 
Q 4448 3123 4675 3123 
Q 4902 3123 5088 3123 
Q 5274 3123 5363 3123 
Q 5562 3123 5658 3187 
Q 5754 3251 5792 3440 
Q 5830 3629 5850 4000 
Q 5882 3974 5936 3955 
Q 5990 3936 6035 3923 
Q 6016 3526 5961 3312 
Q 5907 3098 5769 3018 
Q 5632 2938 5363 2938 
Q 5325 2938 5149 2938 
Q 4973 2938 4733 2938 
Q 4493 2938 4253 2938 
Q 4013 2938 3837 2938 
Q 3661 2938 3622 2938 
Q 3334 2938 3168 2970 
Q 3002 3002 2934 3098 
Q 2867 3194 2867 3379 
L 2867 5274 
z
M 5459 4832 
L 5626 4678 
Q 5299 4550 4857 4432 
Q 4416 4314 3933 4208 
Q 3450 4102 2995 4019 
Q 2989 4051 2966 4096 
Q 2944 4141 2918 4179 
Q 3366 4262 3846 4368 
Q 4326 4474 4752 4595 
Q 5178 4717 5459 4832 
z
M 2880 2234 
L 5792 2234 
L 5792 -416 
L 5600 -416 
L 5600 2048 
L 3066 2048 
L 3066 -442 
L 2880 -442 
L 2880 2234 
z
M 2970 1165 
L 5683 1165 
L 5683 979 
L 2970 979 
L 2970 1165 
z
M 2970 58 
L 5709 58 
L 5709 -128 
L 2970 -128 
L 2970 58 
z
M 262 1792 
Q 531 1875 880 1987 
Q 1229 2099 1625 2230 
Q 2022 2362 2419 2496 
L 2451 2310 
Q 1894 2125 1337 1933 
Q 781 1741 352 1600 
L 262 1792 
z
M 326 3936 
L 2368 3936 
L 2368 3744 
L 326 3744 
L 326 3936 
z
M 1318 5312 
L 1504 5312 
L 1504 -141 
Q 1504 -269 1462 -329 
Q 1421 -390 1331 -416 
Q 1242 -442 1069 -448 
Q 896 -454 595 -448 
Q 589 -416 563 -365 
Q 538 -314 518 -269 
Q 768 -275 953 -275 
Q 1139 -275 1197 -269 
Q 1261 -269 1289 -243 
Q 1318 -218 1318 -147 
L 1318 5312 
z
" transform="scale(0.015625)"/>
      <path id="NotoSansSC-Thin-6570" d="M 512 1990 
L 2970 1990 
L 2970 1798 
L 512 1798 
L 512 1990 
z
M 365 4064 
L 3386 4064 
L 3386 3878 
L 365 3878 
L 365 4064 
z
M 2957 5146 
L 3123 5050 
Q 3002 4826 2845 4586 
Q 2688 4346 2554 4173 
L 2419 4256 
Q 2509 4371 2608 4531 
Q 2707 4691 2800 4854 
Q 2893 5018 2957 5146 
z
M 1792 5318 
L 1984 5318 
L 1984 2611 
L 1792 2611 
L 1792 5318 
z
M 691 5043 
L 845 5101 
Q 992 4902 1117 4662 
Q 1242 4422 1286 4250 
L 1139 4179 
Q 1088 4352 960 4598 
Q 832 4845 691 5043 
z
M 1792 3987 
L 1946 3904 
Q 1798 3622 1561 3344 
Q 1325 3066 1046 2832 
Q 768 2598 486 2445 
Q 467 2490 428 2538 
Q 390 2586 358 2618 
Q 634 2746 909 2960 
Q 1184 3174 1417 3443 
Q 1651 3712 1792 3987 
z
M 1946 3866 
Q 2029 3814 2205 3696 
Q 2381 3578 2585 3443 
Q 2790 3309 2960 3190 
Q 3130 3072 3200 3021 
L 3072 2854 
Q 2995 2925 2832 3049 
Q 2669 3174 2473 3315 
Q 2278 3456 2105 3574 
Q 1933 3693 1830 3750 
L 1946 3866 
z
M 3962 4013 
L 5997 4013 
L 5997 3827 
L 3962 3827 
L 3962 4013 
z
M 4128 5222 
L 4314 5190 
Q 4218 4614 4083 4086 
Q 3949 3558 3766 3100 
Q 3584 2643 3354 2285 
Q 3341 2298 3309 2320 
Q 3277 2342 3241 2361 
Q 3206 2381 3181 2394 
Q 3424 2733 3603 3184 
Q 3782 3635 3913 4153 
Q 4045 4672 4128 5222 
z
M 5357 3936 
L 5549 3910 
Q 5382 2829 5084 2006 
Q 4787 1184 4291 579 
Q 3795 -26 3040 -454 
Q 3027 -435 3004 -406 
Q 2982 -378 2956 -349 
Q 2931 -320 2906 -301 
Q 3654 90 4140 678 
Q 4627 1267 4915 2076 
Q 5203 2886 5357 3936 
z
M 3994 3789 
Q 4147 2874 4425 2070 
Q 4704 1267 5133 668 
Q 5562 70 6150 -243 
Q 6112 -269 6073 -313 
Q 6035 -358 6010 -397 
Q 5414 -51 4985 563 
Q 4557 1178 4275 1997 
Q 3994 2816 3834 3757 
L 3994 3789 
z
M 896 1018 
L 1050 1152 
Q 1370 1037 1722 873 
Q 2074 710 2387 544 
Q 2701 378 2906 230 
L 2752 90 
Q 2554 237 2240 406 
Q 1926 576 1574 739 
Q 1222 902 896 1018 
z
M 2880 1990 
L 2918 1990 
L 2963 2003 
L 3066 1946 
Q 2874 1286 2474 825 
Q 2074 365 1552 80 
Q 1030 -205 467 -358 
Q 454 -320 422 -272 
Q 390 -224 358 -198 
Q 902 -64 1411 205 
Q 1920 474 2310 906 
Q 2701 1338 2880 1946 
L 2880 1990 
z
M 896 1018 
Q 1030 1210 1168 1453 
Q 1306 1696 1427 1952 
Q 1549 2208 1632 2438 
L 1811 2406 
Q 1722 2170 1597 1910 
Q 1472 1651 1341 1414 
Q 1210 1178 1094 1005 
L 896 1018 
z
" transform="scale(0.015625)"/>
      <path id="NotoSansSC-Thin-b7" d="M 3200 2976 
Q 3354 2976 3475 2902 
Q 3597 2829 3670 2707 
Q 3744 2586 3744 2432 
Q 3744 2285 3670 2160 
Q 3597 2035 3475 1961 
Q 3354 1888 3200 1888 
Q 3053 1888 2928 1961 
Q 2803 2035 2729 2160 
Q 2656 2285 2656 2432 
Q 2656 2586 2729 2707 
Q 2803 2829 2928 2902 
Q 3053 2976 3200 2976 
z
" transform="scale(0.015625)"/>
      <path id="NotoSansSC-Thin-8fd1" d="M 2829 3334 
L 6054 3334 
L 6054 3142 
L 2829 3142 
L 2829 3334 
z
M 4570 3226 
L 4755 3226 
L 4755 429 
L 4570 429 
L 4570 3226 
z
M 1574 2970 
L 1574 685 
L 1389 685 
L 1389 2778 
L 365 2778 
L 365 2970 
L 1574 2970 
z
M 2752 4922 
L 2944 4922 
L 2944 3494 
Q 2944 3155 2918 2764 
Q 2893 2374 2819 1968 
Q 2746 1562 2602 1171 
Q 2458 781 2221 442 
Q 2208 461 2179 483 
Q 2150 506 2121 525 
Q 2093 544 2074 557 
Q 2381 998 2525 1513 
Q 2669 2029 2710 2544 
Q 2752 3059 2752 3494 
L 2752 4922 
z
M 5645 5325 
L 5811 5178 
Q 5446 5075 4940 4995 
Q 4435 4915 3881 4857 
Q 3328 4800 2816 4762 
Q 2810 4794 2790 4842 
Q 2771 4890 2752 4922 
Q 3130 4954 3536 4992 
Q 3942 5030 4336 5084 
Q 4730 5139 5069 5200 
Q 5408 5261 5645 5325 
z
M 1485 749 
Q 1594 749 1680 688 
Q 1766 627 1878 528 
Q 1990 429 2163 307 
Q 2464 96 2854 38 
Q 3245 -19 3789 -19 
Q 4102 -19 4419 -12 
Q 4736 -6 5037 6 
Q 5338 19 5610 35 
Q 5882 51 6106 70 
Q 6093 45 6080 6 
Q 6067 -32 6060 -70 
Q 6054 -109 6048 -141 
Q 5875 -147 5587 -160 
Q 5299 -173 4963 -182 
Q 4627 -192 4313 -198 
Q 4000 -205 3789 -205 
Q 3206 -205 2793 -131 
Q 2381 -58 2061 166 
Q 1882 294 1738 435 
Q 1594 576 1485 576 
Q 1363 576 1209 470 
Q 1056 365 873 179 
Q 691 -6 480 -256 
L 339 -109 
Q 666 256 957 502 
Q 1248 749 1485 749 
z
M 646 5069 
L 794 5165 
Q 979 5005 1164 4816 
Q 1350 4627 1513 4441 
Q 1677 4256 1779 4115 
L 1626 4000 
Q 1530 4147 1366 4332 
Q 1203 4518 1017 4713 
Q 832 4909 646 5069 
z
" transform="scale(0.015625)"/>
      <path id="NotoSansSC-Thin-5468" d="M 1184 5005 
L 5370 5005 
L 5370 4819 
L 1184 4819 
L 1184 5005 
z
M 1766 3974 
L 4704 3974 
L 4704 3789 
L 1766 3789 
L 1766 3974 
z
M 1587 2938 
L 4896 2938 
L 4896 2746 
L 1587 2746 
L 1587 2938 
z
M 1082 5005 
L 1267 5005 
L 1267 3085 
Q 1267 2688 1238 2227 
Q 1210 1766 1126 1289 
Q 1043 813 873 358 
Q 704 -96 422 -493 
Q 403 -474 377 -448 
Q 352 -422 326 -400 
Q 301 -378 275 -365 
Q 550 19 710 457 
Q 870 896 950 1353 
Q 1030 1811 1056 2252 
Q 1082 2694 1082 3085 
L 1082 5005 
z
M 5299 5005 
L 5491 5005 
L 5491 -83 
Q 5491 -237 5436 -307 
Q 5382 -378 5261 -410 
Q 5146 -435 4893 -438 
Q 4640 -442 4192 -442 
Q 4186 -410 4160 -352 
Q 4134 -294 4109 -250 
Q 4358 -256 4569 -256 
Q 4781 -256 4928 -253 
Q 5075 -250 5133 -250 
Q 5222 -243 5260 -208 
Q 5299 -173 5299 -90 
L 5299 5005 
z
M 3104 4659 
L 3296 4659 
L 3296 2797 
L 3104 2797 
L 3104 4659 
z
M 2106 2035 
L 4480 2035 
L 4480 422 
L 2106 422 
L 2106 608 
L 4294 608 
L 4294 1843 
L 2106 1843 
L 2106 2035 
z
M 1984 2035 
L 2170 2035 
L 2170 58 
L 1984 58 
L 1984 2035 
z
" transform="scale(0.015625)"/>
     </defs>
     <use xlink:href="#NotoSansSC-Thin-56"/>
     <use xlink:href="#NotoSansSC-Thin-49" transform="translate(53.199997 0)"/>
     <use xlink:href="#NotoSansSC-Thin-58" transform="translate(78.899994 0)"/>
     <use xlink:href="#NotoSansSC-Thin-20" transform="translate(130.799988 0)"/>
     <use xlink:href="#NotoSansSC-Thin-6050" transform="translate(152.799973 0)"/>
     <use xlink:href="#NotoSansSC-Thin-614c" transform="translate(252.799957 0)"/>
     <use xlink:href="#NotoSansSC-Thin-6307" transform="translate(352.799942 0)"/>
     <use xlink:href="#NotoSansSC-Thin-6570" transform="translate(452.799927 0)"/>
     <use xlink:href="#NotoSansSC-Thin-20" transform="translate(552.799911 0)"/>
     <use xlink:href="#NotoSansSC-Thin-b7" transform="translate(574.799896 0)"/>
     <use xlink:href="#NotoSansSC-Thin-20" transform="translate(674.799881 0)"/>
     <use xlink:href="#NotoSansSC-Thin-8fd1" transform="translate(696.799866 0)"/>
     <use xlink:href="#NotoSansSC-Thin-20" transform="translate(796.79985 0)"/>
     <use xlink:href="#NotoSansSC-Thin-31" transform="translate(818.799835 0)"/>
     <use xlink:href="#NotoSansSC-Thin-20" transform="translate(870.899826 0)"/>
     <use xlink:href="#NotoSansSC-Thin-5468" transform="translate(892.899811 0)"/>
    </g>
   </g>
  </g>
  <g id="axes_2">
   <g id="patch_9">
    <path d="M 22.535 306.96875 
L 347.23375 306.96875 
L 347.23375 180.017135 
L 22.535 180.017135 
z
" style="fill: #ffffff"/>
   </g>
   <g id="patch_10">
    <path d="M 22.535 301.198222 
L 347.23375 301.198222 
L 347.23375 224.257849 
L 22.535 224.257849 
z
" clip-path="url(#p67d1d34ff0)" style="fill: #16a34a; opacity: 0.06"/>
   </g>
   <g id="patch_11">
    <path d="M 22.535 224.257849 
L 347.23375 224.257849 
L 347.23375 185.787663 
L 22.535 185.787663 
z
" clip-path="url(#p67d1d34ff0)" style="fill: #d4a017; opacity: 0.06"/>
   </g>
   <g id="patch_12">
    <path d="M 22.535 185.787663 
L 347.23375 185.787663 
L 347.23375 206.936648 
L 22.535 206.936648 
z
" clip-path="url(#p67d1d34ff0)" style="fill: #dc2626; opacity: 0.06"/>
   </g>
   <g id="matplotlib.axis_3">
    <g id="xtick_10">
     <g id="line2d_21">
      <g>
       <use xlink:href="#m4aff3a8cc0" x="37.294034" y="306.96875" style="fill: #64748b; stroke: #64748b; stroke-width: 0.8"/>
      </g>
     </g>
     <g id="text_19">
      <!-- 05/13 -->
      <g style="fill: #64748b" transform="translate(27.375284 320.32125) scale(0.08 -0.08)">
       <use xlink:href="#NotoSansSC-Thin-30"/>
       <use xlink:href="#NotoSansSC-Thin-35" transform="translate(52.099991 0)"/>
       <use xlink:href="#NotoSansSC-Thin-2f" transform="translate(104.199982 0)"/>
       <use xlink:href="#NotoSansSC-Thin-31" transform="translate(143.799973 0)"/>
       <use xlink:href="#NotoSansSC-Thin-33" transform="translate(195.899963 0)"/>
      </g>
     </g>
    </g>
    <g id="xtick_11">
     <g id="line2d_22">
      <g>
       <use xlink:href="#m4aff3a8cc0" x="93.518926" y="306.96875" style="fill: #64748b; stroke: #64748b; stroke-width: 0.8"/>
      </g>
     </g>
     <g id="text_20">
      <!-- 05/17 -->
      <g style="fill: #64748b" transform="translate(83.600176 320.32125) scale(0.08 -0.08)">
       <use xlink:href="#NotoSansSC-Thin-30"/>
       <use xlink:href="#NotoSansSC-Thin-35" transform="translate(52.099991 0)"/>
       <use xlink:href="#NotoSansSC-Thin-2f" transform="translate(104.199982 0)"/>
       <use xlink:href="#NotoSansSC-Thin-31" transform="translate(143.799973 0)"/>
       <use xlink:href="#NotoSansSC-Thin-37" transform="translate(195.899963 0)"/>
      </g>
     </g>
    </g>
    <g id="xtick_12">
     <g id="line2d_23">
      <g>
       <use xlink:href="#m4aff3a8cc0" x="149.743818" y="306.96875" style="fill: #64748b; stroke: #64748b; stroke-width: 0.8"/>
      </g>
     </g>
     <g id="text_21">
      <!-- 05/21 -->
      <g style="fill: #64748b" transform="translate(139.825068 320.32125) scale(0.08 -0.08)">
       <use xlink:href="#NotoSansSC-Thin-30"/>
       <use xlink:href="#NotoSansSC-Thin-35" transform="translate(52.099991 0)"/>
       <use xlink:href="#NotoSansSC-Thin-2f" transform="translate(104.199982 0)"/>
       <use xlink:href="#NotoSansSC-Thin-32" transform="translate(143.799973 0)"/>
       <use xlink:href="#NotoSansSC-Thin-31" transform="translate(195.899963 0)"/>
      </g>
     </g>
    </g>
    <g id="xtick_13">
     <g id="line2d_24">
      <g>
       <use xlink:href="#m4aff3a8cc0" x="205.968709" y="306.96875" style="fill: #64748b; stroke: #64748b; stroke-width: 0.8"/>
      </g>
     </g>
     <g id="text_22">
      <!-- 05/25 -->
      <g style="fill: #64748b" transform="translate(196.049959 320.32125) scale(0.08 -0.08)">
       <use xlink:href="#NotoSansSC-Thin-30"/>
       <use xlink:href="#NotoSansSC-Thin-35" transform="translate(52.099991 0)"/>
       <use xlink:href="#NotoSansSC-Thin-2f" transform="translate(104.199982 0)"/>
       <use xlink:href="#NotoSansSC-Thin-32" transform="translate(143.799973 0)"/>
       <use xlink:href="#NotoSansSC-Thin-35" transform="translate(195.899963 0)"/>
      </g>
     </g>
    </g>
    <g id="xtick_14">
     <g id="line2d_25">
      <g>
       <use xlink:href="#m4aff3a8cc0" x="262.193601" y="306.96875" style="fill: #64748b; stroke: #64748b; stroke-width: 0.8"/>
      </g>
     </g>
     <g id="text_23">
      <!-- 05/29 -->
      <g style="fill: #64748b" transform="translate(252.274851 320.32125) scale(0.08 -0.08)">
       <use xlink:href="#NotoSansSC-Thin-30"/>
       <use xlink:href="#NotoSansSC-Thin-35" transform="translate(52.099991 0)"/>
       <use xlink:href="#NotoSansSC-Thin-2f" transform="translate(104.199982 0)"/>
       <use xlink:href="#NotoSansSC-Thin-32" transform="translate(143.799973 0)"/>
       <use xlink:href="#NotoSansSC-Thin-39" transform="translate(195.899963 0)"/>
      </g>
     </g>
    </g>
    <g id="xtick_15">
     <g id="line2d_26">
      <g>
       <use xlink:href="#m4aff3a8cc0" x="304.36227" y="306.96875" style="fill: #64748b; stroke: #64748b; stroke-width: 0.8"/>
      </g>
     </g>
     <g id="text_24">
      <!-- 06/01 -->
      <g style="fill: #64748b" transform="translate(294.44352 320.32125) scale(0.08 -0.08)">
       <use xlink:href="#NotoSansSC-Thin-30"/>
       <use xlink:href="#NotoSansSC-Thin-36" transform="translate(52.099991 0)"/>
       <use xlink:href="#NotoSansSC-Thin-2f" transform="translate(104.199982 0)"/>
       <use xlink:href="#NotoSansSC-Thin-30" transform="translate(143.799973 0)"/>
       <use xlink:href="#NotoSansSC-Thin-31" transform="translate(195.899963 0)"/>
      </g>
     </g>
    </g>
   </g>
   <g id="matplotlib.axis_4">
    <g id="ytick_5">
     <g id="line2d_27">
      <path d="M 22.535 301.198222 
L 347.23375 301.198222 
" clip-path="url(#p67d1d34ff0)" style="fill: none; stroke: #64748b; stroke-opacity: 0.12; stroke-width: 0.5; stroke-linecap: square"/>
     </g>
     <g id="line2d_28">
      <g>
       <use xlink:href="#m5a77d21c7b" x="22.535" y="301.198222" style="fill: #64748b; stroke: #64748b; stroke-width: 0.8"/>
      </g>
     </g>
     <g id="text_25">
      <!-- 0 -->
      <g style="fill: #64748b" transform="translate(11.3675 304.374472) scale(0.08 -0.08)">
       <use xlink:href="#NotoSansSC-Thin-30"/>
      </g>
     </g>
    </g>
    <g id="ytick_6">
     <g id="line2d_29">
      <path d="M 22.535 281.963129 
L 347.23375 281.963129 
" clip-path="url(#p67d1d34ff0)" style="fill: none; stroke: #64748b; stroke-opacity: 0.12; stroke-width: 0.5; stroke-linecap: square"/>
     </g>
     <g id="line2d_30">
      <g>
       <use xlink:href="#m5a77d21c7b" x="22.535" y="281.963129" style="fill: #64748b; stroke: #64748b; stroke-width: 0.8"/>
      </g>
     </g>
     <g id="text_26">
      <!-- 5 -->
      <g style="fill: #64748b" transform="translate(11.3675 285.139379) scale(0.08 -0.08)">
       <use xlink:href="#NotoSansSC-Thin-35"/>
      </g>
     </g>
    </g>
    <g id="ytick_7">
     <g id="line2d_31">
      <path d="M 22.535 262.728036 
L 347.23375 262.728036 
" clip-path="url(#p67d1d34ff0)" style="fill: none; stroke: #64748b; stroke-opacity: 0.12; stroke-width: 0.5; stroke-linecap: square"/>
     </g>
     <g id="line2d_32">
      <g>
       <use xlink:href="#m5a77d21c7b" x="22.535" y="262.728036" style="fill: #64748b; stroke: #64748b; stroke-width: 0.8"/>
      </g>
     </g>
     <g id="text_27">
      <!-- 10 -->
      <g style="fill: #64748b" transform="translate(7.2 265.904286) scale(0.08 -0.08)">
       <use xlink:href="#NotoSansSC-Thin-31"/>
       <use xlink:href="#NotoSansSC-Thin-30" transform="translate(52.099991 0)"/>
      </g>
     </g>
    </g>
    <g id="ytick_8">
     <g id="line2d_33">
      <path d="M 22.535 243.492942 
L 347.23375 243.492942 
" clip-path="url(#p67d1d34ff0)" style="fill: none; stroke: #64748b; stroke-opacity: 0.12; stroke-width: 0.5; stroke-linecap: square"/>
     </g>
     <g id="line2d_34">
      <g>
       <use xlink:href="#m5a77d21c7b" x="22.535" y="243.492942" style="fill: #64748b; stroke: #64748b; stroke-width: 0.8"/>
      </g>
     </g>
     <g id="text_28">
      <!-- 15 -->
      <g style="fill: #64748b" transform="translate(7.2 246.669192) scale(0.08 -0.08)">
       <use xlink:href="#NotoSansSC-Thin-31"/>
       <use xlink:href="#NotoSansSC-Thin-35" transform="translate(52.099991 0)"/>
      </g>
     </g>
    </g>
    <g id="ytick_9">
     <g id="line2d_35">
      <path d="M 22.535 224.257849 
L 347.23375 224.257849 
" clip-path="url(#p67d1d34ff0)" style="fill: none; stroke: #64748b; stroke-opacity: 0.12; stroke-width: 0.5; stroke-linecap: square"/>
     </g>
     <g id="line2d_36">
      <g>
       <use xlink:href="#m5a77d21c7b" x="22.535" y="224.257849" style="fill: #64748b; stroke: #64748b; stroke-width: 0.8"/>
      </g>
     </g>
     <g id="text_29">
      <!-- 20 -->
      <g style="fill: #64748b" transform="translate(7.2 227.434099) scale(0.08 -0.08)">
       <use xlink:href="#NotoSansSC-Thin-32"/>
       <use xlink:href="#NotoSansSC-Thin-30" transform="translate(52.099991 0)"/>
      </g>
     </g>
    </g>
    <g id="ytick_10">
     <g id="line2d_37">
      <path d="M 22.535 205.022756 
L 347.23375 205.022756 
" clip-path="url(#p67d1d34ff0)" style="fill: none; stroke: #64748b; stroke-opacity: 0.12; stroke-width: 0.5; stroke-linecap: square"/>
     </g>
     <g id="line2d_38">
      <g>
       <use xlink:href="#m5a77d21c7b" x="22.535" y="205.022756" style="fill: #64748b; stroke: #64748b; stroke-width: 0.8"/>
      </g>
     </g>
     <g id="text_30">
      <!-- 25 -->
      <g style="fill: #64748b" transform="translate(7.2 208.199006) scale(0.08 -0.08)">
       <use xlink:href="#NotoSansSC-Thin-32"/>
       <use xlink:href="#NotoSansSC-Thin-35" transform="translate(52.099991 0)"/>
      </g>
     </g>
    </g>
    <g id="ytick_11">
     <g id="line2d_39">
      <path d="M 22.535 185.787663 
L 347.23375 185.787663 
" clip-path="url(#p67d1d34ff0)" style="fill: none; stroke: #64748b; stroke-opacity: 0.12; stroke-width: 0.5; stroke-linecap: square"/>
     </g>
     <g id="line2d_40">
      <g>
       <use xlink:href="#m5a77d21c7b" x="22.535" y="185.787663" style="fill: #64748b; stroke: #64748b; stroke-width: 0.8"/>
      </g>
     </g>
     <g id="text_31">
      <!-- 30 -->
      <g style="fill: #64748b" transform="translate(7.2 188.963913) scale(0.08 -0.08)">
       <use xlink:href="#NotoSansSC-Thin-33"/>
       <use xlink:href="#NotoSansSC-Thin-30" transform="translate(52.099991 0)"/>
      </g>
     </g>
    </g>
   </g>
   <g id="FillBetweenPolyCollection_2">
    <defs>
     <path id="mbc079a0c33" d="M 37.294034 -42.079528 
L 37.294034 -89.590208 
L 51.350257 -88.936215 
L 65.40648 -88.051401 
L 107.575149 -89.8595 
L 121.631372 -92.129241 
L 135.687595 -94.283571 
L 149.743818 -95.514617 
L 163.800041 -96.784133 
L 205.968709 -96.13014 
L 220.024932 -95.476147 
L 234.081155 -98.092119 
L 248.137378 -100.16951 
L 262.193601 -102.554661 
L 304.36227 -105.132164 
L 318.418493 -105.324515 
L 332.474716 -110.6334 
L 332.474716 -42.079528 
L 332.474716 -42.079528 
L 318.418493 -42.079528 
L 304.36227 -42.079528 
L 262.193601 -42.079528 
L 248.137378 -42.079528 
L 234.081155 -42.079528 
L 220.024932 -42.079528 
L 205.968709 -42.079528 
L 163.800041 -42.079528 
L 149.743818 -42.079528 
L 135.687595 -42.079528 
L 121.631372 -42.079528 
L 107.575149 -42.079528 
L 65.40648 -42.079528 
L 51.350257 -42.079528 
L 37.294034 -42.079528 
z
" style="stroke: #1a56db; stroke-opacity: 0.1"/>
    </defs>
    <g clip-path="url(#p67d1d34ff0)">
     <use xlink:href="#mbc079a0c33" x="0" y="343.27775" style="fill: #1a56db; fill-opacity: 0.1; stroke: #1a56db; stroke-opacity: 0.1"/>
    </g>
   </g>
   <g id="line2d_41">
    <path d="M 22.535 224.257849 
L 347.23375 224.257849 
" clip-path="url(#p67d1d34ff0)" style="fill: none; stroke-dasharray: 2.96,1.28; stroke-dashoffset: 0; stroke: #16a34a; stroke-opacity: 0.4; stroke-width: 0.8"/>
   </g>
   <g id="line2d_42">
    <path d="M 22.535 185.787663 
L 347.23375 185.787663 
" clip-path="url(#p67d1d34ff0)" style="fill: none; stroke-dasharray: 2.96,1.28; stroke-dashoffset: 0; stroke: #dc2626; stroke-opacity: 0.4; stroke-width: 0.8"/>
   </g>
   <g id="patch_13">
    <path d="M 22.535 306.96875 
L 22.535 180.017135 
" style="fill: none; stroke: #e2e8f0; stroke-width: 0.5; stroke-linejoin: miter; stroke-linecap: square"/>
   </g>
   <g id="patch_14">
    <path d="M 22.535 306.96875 
L 347.23375 306.96875 
" style="fill: none; stroke: #e2e8f0; stroke-width: 0.5; stroke-linejoin: miter; stroke-linecap: square"/>
   </g>
   <g id="text_32">
    <!-- 贪婪 -->
    <g style="fill: #16a34a; opacity: 0.6" transform="translate(341.330136 265.207957) scale(0.09 -0.09)">
     <use xlink:href="#NotoSansSC-Thin-8d2a"/>
     <use xlink:href="#NotoSansSC-Thin-5a6a" transform="translate(99.999985 0)"/>
    </g>
   </g>
   <g id="text_33">
    <!-- 中性 -->
    <g style="fill: #d4a017; opacity: 0.6" transform="translate(341.330136 207.502678) scale(0.09 -0.09)">
     <use xlink:href="#NotoSansSC-Thin-4e2d"/>
     <use xlink:href="#NotoSansSC-Thin-6027" transform="translate(99.999985 0)"/>
    </g>
   </g>
   <g id="text_34">
    <!-- 恐慌 -->
    <g style="fill: #dc2626; opacity: 0.6" transform="translate(341.330136 169.032491) scale(0.09 -0.09)">
     <use xlink:href="#NotoSansSC-Thin-6050"/>
     <use xlink:href="#NotoSansSC-Thin-614c" transform="translate(99.999985 0)"/>
    </g>
   </g>
   <g id="line2d_43">
    <path d="M 37.294034 253.687542 
L 51.350257 254.341535 
L 65.40648 255.226349 
L 107.575149 253.41825 
L 121.631372 251.148509 
L 135.687595 248.994179 
L 149.743818 247.763133 
L 163.800041 246.493617 
L 205.968709 247.14761 
L 220.024932 247.801603 
L 234.081155 245.185631 
L 248.137378 243.10824 
L 262.193601 240.723089 
L 304.36227 238.145586 
L 318.418493 237.953235 
L 332.474716 232.64435 
" clip-path="url(#p67d1d34ff0)" style="fill: none; stroke: #1a56db; stroke-width: 1.8; stroke-linecap: square"/>
    <defs>
     <path id="m48a7dc95c9" d="M 0 2 
C 0.530406 2 1.03916 1.789267 1.414214 1.414214 
C 1.789267 1.03916 2 0.530406 2 0 
C 2 -0.530406 1.789267 -1.03916 1.414214 -1.414214 
C 1.03916 -1.789267 0.530406 -2 0 -2 
C -0.530406 -2 -1.03916 -1.789267 -1.414214 -1.414214 
C -1.789267 -1.03916 -2 -0.530406 -2 0 
C -2 0.530406 -1.789267 1.03916 -1.414214 1.414214 
C -1.03916 1.789267 -0.530406 2 0 2 
z
" style="stroke: #ffffff; stroke-width: 1.2"/>
    </defs>
    <g clip-path="url(#p67d1d34ff0)">
     <use xlink:href="#m48a7dc95c9" x="37.294034" y="253.687542" style="fill: #1a56db; stroke: #ffffff; stroke-width: 1.2"/>
     <use xlink:href="#m48a7dc95c9" x="51.350257" y="254.341535" style="fill: #1a56db; stroke: #ffffff; stroke-width: 1.2"/>
     <use xlink:href="#m48a7dc95c9" x="65.40648" y="255.226349" style="fill: #1a56db; stroke: #ffffff; stroke-width: 1.2"/>
     <use xlink:href="#m48a7dc95c9" x="107.575149" y="253.41825" style="fill: #1a56db; stroke: #ffffff; stroke-width: 1.2"/>
     <use xlink:href="#m48a7dc95c9" x="121.631372" y="251.148509" style="fill: #1a56db; stroke: #ffffff; stroke-width: 1.2"/>
     <use xlink:href="#m48a7dc95c9" x="135.687595" y="248.994179" style="fill: #1a56db; stroke: #ffffff; stroke-width: 1.2"/>
     <use xlink:href="#m48a7dc95c9" x="149.743818" y="247.763133" style="fill: #1a56db; stroke: #ffffff; stroke-width: 1.2"/>
     <use xlink:href="#m48a7dc95c9" x="163.800041" y="246.493617" style="fill: #1a56db; stroke: #ffffff; stroke-width: 1.2"/>
     <use xlink:href="#m48a7dc95c9" x="205.968709" y="247.14761" style="fill: #1a56db; stroke: #ffffff; stroke-width: 1.2"/>
     <use xlink:href="#m48a7dc95c9" x="220.024932" y="247.801603" style="fill: #1a56db; stroke: #ffffff; stroke-width: 1.2"/>
     <use xlink:href="#m48a7dc95c9" x="234.081155" y="245.185631" style="fill: #1a56db; stroke: #ffffff; stroke-width: 1.2"/>
     <use xlink:href="#m48a7dc95c9" x="248.137378" y="243.10824" style="fill: #1a56db; stroke: #ffffff; stroke-width: 1.2"/>
     <use xlink:href="#m48a7dc95c9" x="262.193601" y="240.723089" style="fill: #1a56db; stroke: #ffffff; stroke-width: 1.2"/>
     <use xlink:href="#m48a7dc95c9" x="304.36227" y="238.145586" style="fill: #1a56db; stroke: #ffffff; stroke-width: 1.2"/>
     <use xlink:href="#m48a7dc95c9" x="318.418493" y="237.953235" style="fill: #1a56db; stroke: #ffffff; stroke-width: 1.2"/>
     <use xlink:href="#m48a7dc95c9" x="332.474716" y="232.64435" style="fill: #1a56db; stroke: #ffffff; stroke-width: 1.2"/>
    </g>
   </g>
   <g id="text_35">
    <g id="patch_15">
     <path d="M 337.474716 225.517006 
L 362.936278 225.517006 
Q 365.136278 225.517006 365.136278 223.317006 
L 365.136278 211.909662 
Q 365.136278 209.709662 362.936278 209.709662 
L 337.474716 209.709662 
Q 335.274716 209.709662 335.274716 211.909662 
L 335.274716 223.317006 
Q 335.274716 225.517006 337.474716 225.517006 
z
" style="fill: #ffffff; stroke: #1a56db; stroke-width: 0.8; stroke-linejoin: miter"/>
    </g>
    <!-- 17.82 -->
    <g style="fill: #1a56db" transform="translate(337.474716 220.64435) scale(0.11 -0.11)">
     <use xlink:href="#NotoSansSC-Thin-31"/>
     <use xlink:href="#NotoSansSC-Thin-37" transform="translate(52.099991 0)"/>
     <use xlink:href="#NotoSansSC-Thin-2e" transform="translate(104.199982 0)"/>
     <use xlink:href="#NotoSansSC-Thin-38" transform="translate(127.299973 0)"/>
     <use xlink:href="#NotoSansSC-Thin-32" transform="translate(179.399963 0)"/>
    </g>
   </g>
   <g id="text_36">
    <!-- VIX 恐慌指数 · 近 1 月 -->
    <g style="fill: #1e293b" transform="translate(125.31 172.017135) scale(0.12 -0.12)">
     <defs>
      <path id="NotoSansSC-Thin-6708" d="M 1523 4941 
L 4998 4941 
L 4998 4755 
L 1523 4755 
L 1523 4941 
z
M 1517 3386 
L 5024 3386 
L 5024 3200 
L 1517 3200 
L 1517 3386 
z
M 1446 1811 
L 5005 1811 
L 5005 1626 
L 1446 1626 
L 1446 1811 
z
M 1453 4941 
L 1638 4941 
L 1638 3110 
Q 1638 2694 1596 2230 
Q 1555 1766 1427 1289 
Q 1299 813 1046 365 
Q 794 -83 371 -461 
Q 358 -435 336 -409 
Q 314 -384 288 -358 
Q 262 -333 237 -320 
Q 646 51 889 480 
Q 1133 909 1254 1360 
Q 1376 1811 1414 2259 
Q 1453 2707 1453 3110 
L 1453 4941 
z
M 4934 4941 
L 5126 4941 
L 5126 -6 
Q 5126 -179 5065 -259 
Q 5005 -339 4864 -371 
Q 4723 -397 4409 -403 
Q 4096 -410 3565 -410 
Q 3558 -378 3542 -342 
Q 3526 -307 3510 -272 
Q 3494 -237 3475 -205 
Q 3782 -211 4041 -211 
Q 4301 -211 4483 -208 
Q 4666 -205 4736 -205 
Q 4851 -198 4892 -156 
Q 4934 -115 4934 -6 
L 4934 4941 
z
" transform="scale(0.015625)"/>
     </defs>
     <use xlink:href="#NotoSansSC-Thin-56"/>
     <use xlink:href="#NotoSansSC-Thin-49" transform="translate(53.199997 0)"/>
     <use xlink:href="#NotoSansSC-Thin-58" transform="translate(78.899994 0)"/>
     <use xlink:href="#NotoSansSC-Thin-20" transform="translate(130.799988 0)"/>
     <use xlink:href="#NotoSansSC-Thin-6050" transform="translate(152.799973 0)"/>
     <use xlink:href="#NotoSansSC-Thin-614c" transform="translate(252.799957 0)"/>
     <use xlink:href="#NotoSansSC-Thin-6307" transform="translate(352.799942 0)"/>
     <use xlink:href="#NotoSansSC-Thin-6570" transform="translate(452.799927 0)"/>
     <use xlink:href="#NotoSansSC-Thin-20" transform="translate(552.799911 0)"/>
     <use xlink:href="#NotoSansSC-Thin-b7" transform="translate(574.799896 0)"/>
     <use xlink:href="#NotoSansSC-Thin-20" transform="translate(674.799881 0)"/>
     <use xlink:href="#NotoSansSC-Thin-8fd1" transform="translate(696.799866 0)"/>
     <use xlink:href="#NotoSansSC-Thin-20" transform="translate(796.79985 0)"/>
     <use xlink:href="#NotoSansSC-Thin-31" transform="translate(818.799835 0)"/>
     <use xlink:href="#NotoSansSC-Thin-20" transform="translate(870.899826 0)"/>
     <use xlink:href="#NotoSansSC-Thin-6708" transform="translate(892.899811 0)"/>
    </g>
   </g>
  </g>
  <g id="text_37">
   <!-- 数据来源: Yahoo Finance | 扬说财经 -->
   <g style="fill: #94a3b8" transform="translate(135.666484 334.15275) scale(0.07 -0.07)">
    <defs>
     <path id="NotoSansSC-Thin-636e" d="M 2714 5011 
L 5843 5011 
L 5843 3558 
L 2714 3558 
L 2714 3744 
L 5651 3744 
L 5651 4826 
L 2714 4826 
L 2714 5011 
z
M 2618 5011 
L 2803 5011 
L 2803 3104 
Q 2803 2714 2777 2256 
Q 2752 1798 2675 1328 
Q 2598 858 2441 406 
Q 2285 -45 2022 -429 
Q 2003 -410 1974 -394 
Q 1946 -378 1914 -358 
Q 1882 -339 1856 -333 
Q 2118 51 2268 486 
Q 2419 922 2496 1379 
Q 2573 1837 2595 2278 
Q 2618 2720 2618 3104 
L 2618 5011 
z
M 2765 2714 
L 6106 2714 
L 6106 2522 
L 2765 2522 
L 2765 2714 
z
M 3187 64 
L 5702 64 
L 5702 -122 
L 3187 -122 
L 3187 64 
z
M 4352 3597 
L 4544 3597 
L 4544 1472 
L 4352 1472 
L 4352 3597 
z
M 3085 1549 
L 5856 1549 
L 5856 -422 
L 5664 -422 
L 5664 1363 
L 3277 1363 
L 3277 -461 
L 3085 -461 
L 3085 1549 
z
M 237 1760 
Q 602 1882 1126 2064 
Q 1651 2246 2195 2445 
L 2227 2253 
Q 1722 2074 1219 1891 
Q 717 1709 320 1562 
L 237 1760 
z
M 301 3949 
L 2227 3949 
L 2227 3757 
L 301 3757 
L 301 3949 
z
M 1229 5312 
L 1421 5312 
L 1421 -147 
Q 1421 -275 1376 -332 
Q 1331 -390 1242 -416 
Q 1158 -442 988 -448 
Q 819 -454 518 -448 
Q 512 -416 489 -365 
Q 467 -314 442 -269 
Q 685 -275 870 -275 
Q 1056 -275 1114 -269 
Q 1171 -269 1200 -243 
Q 1229 -218 1229 -147 
L 1229 5312 
z
" transform="scale(0.015625)"/>
     <path id="NotoSansSC-Thin-6765" d="M 397 2432 
L 6016 2432 
L 6016 2246 
L 397 2246 
L 397 2432 
z
M 704 4467 
L 5734 4467 
L 5734 4282 
L 704 4282 
L 704 4467 
z
M 3091 5306 
L 3283 5306 
L 3283 -448 
L 3091 -448 
L 3091 5306 
z
M 4979 4026 
L 5171 3949 
Q 5062 3725 4928 3475 
Q 4794 3226 4656 2995 
Q 4518 2765 4390 2586 
L 4237 2656 
Q 4365 2835 4502 3078 
Q 4640 3322 4768 3574 
Q 4896 3827 4979 4026 
z
M 1312 3923 
L 1478 3981 
Q 1619 3782 1753 3548 
Q 1888 3315 1993 3094 
Q 2099 2874 2144 2701 
L 1971 2624 
Q 1920 2797 1817 3024 
Q 1715 3251 1584 3488 
Q 1453 3725 1312 3923 
z
M 2963 2374 
L 3123 2298 
Q 2893 1926 2579 1571 
Q 2266 1216 1901 896 
Q 1536 576 1161 317 
Q 787 58 429 -115 
Q 416 -90 390 -64 
Q 365 -38 339 -12 
Q 314 13 288 32 
Q 646 192 1024 445 
Q 1402 698 1763 1011 
Q 2125 1325 2435 1673 
Q 2746 2022 2963 2374 
z
M 3411 2381 
Q 3635 2029 3952 1677 
Q 4269 1325 4637 1005 
Q 5005 685 5389 432 
Q 5773 179 6138 13 
Q 6118 -6 6092 -35 
Q 6067 -64 6041 -89 
Q 6016 -115 5997 -141 
Q 5638 32 5254 297 
Q 4870 563 4499 889 
Q 4128 1216 3808 1577 
Q 3488 1939 3258 2304 
L 3411 2381 
z
" transform="scale(0.015625)"/>
     <path id="NotoSansSC-Thin-6e90" d="M 2304 5024 
L 6035 5024 
L 6035 4838 
L 2304 4838 
L 2304 5024 
z
M 2214 5024 
L 2406 5024 
L 2406 3283 
Q 2406 2874 2377 2400 
Q 2349 1926 2262 1436 
Q 2176 947 2006 476 
Q 1837 6 1555 -397 
Q 1542 -378 1513 -358 
Q 1485 -339 1456 -320 
Q 1427 -301 1402 -294 
Q 1677 102 1840 560 
Q 2003 1018 2083 1491 
Q 2163 1965 2188 2422 
Q 2214 2880 2214 3283 
L 2214 5024 
z
M 3110 2765 
L 3110 1990 
L 5542 1990 
L 5542 2765 
L 3110 2765 
z
M 3110 3718 
L 3110 2957 
L 5542 2957 
L 5542 3718 
L 3110 3718 
z
M 2925 3910 
L 5728 3910 
L 5728 1798 
L 2925 1798 
L 2925 3910 
z
M 3270 1338 
L 3456 1286 
Q 3341 1050 3193 810 
Q 3046 570 2886 355 
Q 2726 141 2566 -26 
Q 2554 -6 2522 13 
Q 2490 32 2458 57 
Q 2426 83 2400 96 
Q 2650 339 2880 665 
Q 3110 992 3270 1338 
z
M 5075 1293 
L 5242 1363 
Q 5395 1165 5555 937 
Q 5715 710 5856 499 
Q 5997 288 6086 134 
L 5907 38 
Q 5824 198 5683 412 
Q 5542 627 5385 860 
Q 5229 1094 5075 1293 
z
M 4218 4634 
L 4410 4570 
Q 4346 4365 4272 4144 
Q 4198 3923 4128 3770 
L 3981 3827 
Q 4038 3994 4108 4227 
Q 4179 4461 4218 4634 
z
M 4211 1939 
L 4397 1939 
L 4397 -173 
Q 4397 -282 4361 -336 
Q 4326 -390 4237 -416 
Q 4141 -442 3939 -448 
Q 3738 -454 3398 -448 
Q 3392 -416 3373 -368 
Q 3354 -320 3328 -275 
Q 3616 -282 3824 -282 
Q 4032 -282 4096 -282 
Q 4211 -275 4211 -173 
L 4211 1939 
z
M 627 5101 
L 749 5222 
Q 934 5107 1139 4972 
Q 1344 4838 1526 4707 
Q 1709 4576 1830 4480 
L 1715 4326 
Q 1594 4429 1408 4563 
Q 1222 4698 1017 4842 
Q 813 4986 627 5101 
z
M 307 3379 
L 422 3507 
Q 614 3405 822 3280 
Q 1030 3155 1219 3036 
Q 1408 2918 1536 2822 
L 1427 2669 
Q 1299 2765 1110 2889 
Q 922 3014 710 3145 
Q 499 3277 307 3379 
z
M 493 -224 
Q 646 26 832 374 
Q 1018 723 1203 1110 
Q 1389 1498 1542 1843 
L 1690 1728 
Q 1549 1395 1369 1020 
Q 1190 646 1004 288 
Q 819 -70 653 -352 
L 493 -224 
z
" transform="scale(0.015625)"/>
     <path id="NotoSansSC-Thin-3a" d="M 736 2656 
Q 640 2656 560 2726 
Q 480 2797 480 2931 
Q 480 3072 560 3145 
Q 640 3219 736 3219 
Q 838 3219 918 3145 
Q 998 3072 998 2931 
Q 998 2797 918 2726 
Q 838 2656 736 2656 
z
M 736 -83 
Q 640 -83 560 -9 
Q 480 64 480 192 
Q 480 333 560 406 
Q 640 480 736 480 
Q 838 480 918 406 
Q 998 333 998 192 
Q 998 64 918 -9 
Q 838 -83 736 -83 
z
" transform="scale(0.015625)"/>
     <path id="NotoSansSC-Thin-59" d="M 1421 0 
L 1421 1907 
L 26 4646 
L 282 4646 
L 1018 3149 
Q 1146 2893 1267 2646 
Q 1389 2400 1530 2144 
L 1555 2144 
Q 1696 2400 1827 2646 
Q 1958 2893 2074 3149 
L 2816 4646 
L 3053 4646 
L 1658 1907 
L 1658 0 
L 1421 0 
z
" transform="scale(0.015625)"/>
     <path id="NotoSansSC-Thin-61" d="M 1395 -83 
Q 1133 -83 912 13 
Q 691 109 556 310 
Q 422 512 422 832 
Q 422 1395 953 1686 
Q 1485 1978 2624 2106 
Q 2637 2381 2576 2640 
Q 2515 2899 2336 3072 
Q 2157 3245 1805 3245 
Q 1446 3245 1158 3104 
Q 870 2963 704 2835 
L 589 3021 
Q 698 3098 880 3200 
Q 1062 3302 1302 3379 
Q 1542 3456 1818 3456 
Q 2214 3456 2441 3280 
Q 2669 3104 2761 2816 
Q 2854 2528 2854 2182 
L 2854 0 
L 2662 0 
L 2630 448 
L 2611 448 
Q 2355 237 2044 77 
Q 1734 -83 1395 -83 
z
M 1414 128 
Q 1715 128 2003 272 
Q 2291 416 2624 698 
L 2624 1907 
Q 1894 1830 1462 1686 
Q 1030 1542 844 1334 
Q 659 1126 659 838 
Q 659 448 883 288 
Q 1107 128 1414 128 
z
" transform="scale(0.015625)"/>
     <path id="NotoSansSC-Thin-68" d="M 672 0 
L 672 5082 
L 902 5082 
L 902 3584 
L 902 2822 
Q 1171 3098 1449 3277 
Q 1728 3456 2080 3456 
Q 2598 3456 2848 3139 
Q 3098 2822 3098 2170 
L 3098 0 
L 2867 0 
L 2867 2138 
Q 2867 2694 2678 2969 
Q 2490 3245 2054 3245 
Q 1741 3245 1481 3078 
Q 1222 2912 902 2579 
L 902 0 
L 672 0 
z
" transform="scale(0.015625)"/>
     <path id="NotoSansSC-Thin-6f" d="M 1875 -83 
Q 1472 -83 1129 125 
Q 787 333 582 726 
Q 378 1120 378 1677 
Q 378 2246 582 2643 
Q 787 3040 1129 3248 
Q 1472 3456 1875 3456 
Q 2176 3456 2448 3337 
Q 2720 3219 2928 2992 
Q 3136 2765 3254 2432 
Q 3373 2099 3373 1677 
Q 3373 1120 3165 726 
Q 2957 333 2617 125 
Q 2278 -83 1875 -83 
z
M 1875 128 
Q 2234 128 2518 323 
Q 2803 518 2969 867 
Q 3136 1216 3136 1677 
Q 3136 2144 2969 2496 
Q 2803 2848 2518 3046 
Q 2234 3245 1875 3245 
Q 1517 3245 1232 3046 
Q 947 2848 784 2496 
Q 621 2144 621 1677 
Q 621 1216 784 867 
Q 947 518 1232 323 
Q 1517 128 1875 128 
z
" transform="scale(0.015625)"/>
     <path id="NotoSansSC-Thin-46" d="M 704 0 
L 704 4646 
L 3187 4646 
L 3187 4435 
L 941 4435 
L 941 2496 
L 2835 2496 
L 2835 2291 
L 941 2291 
L 941 0 
L 704 0 
z
" transform="scale(0.015625)"/>
     <path id="NotoSansSC-Thin-69" d="M 672 0 
L 672 3373 
L 902 3373 
L 902 0 
L 672 0 
z
M 794 4224 
Q 691 4224 627 4294 
Q 563 4365 563 4486 
Q 563 4595 627 4662 
Q 691 4730 794 4730 
Q 890 4730 957 4662 
Q 1024 4595 1024 4486 
Q 1024 4365 957 4294 
Q 890 4224 794 4224 
z
" transform="scale(0.015625)"/>
     <path id="NotoSansSC-Thin-6e" d="M 672 0 
L 672 3373 
L 864 3373 
L 902 2835 
L 915 2835 
Q 1178 3098 1453 3277 
Q 1728 3456 2080 3456 
Q 2598 3456 2848 3139 
Q 3098 2822 3098 2170 
L 3098 0 
L 2867 0 
L 2867 2138 
Q 2867 2694 2678 2969 
Q 2490 3245 2054 3245 
Q 1741 3245 1481 3078 
Q 1222 2912 902 2579 
L 902 0 
L 672 0 
z
" transform="scale(0.015625)"/>
     <path id="NotoSansSC-Thin-63" d="M 1888 -83 
Q 1459 -83 1116 125 
Q 774 333 576 726 
Q 378 1120 378 1677 
Q 378 2246 589 2643 
Q 800 3040 1145 3248 
Q 1491 3456 1894 3456 
Q 2240 3456 2477 3325 
Q 2714 3194 2880 3034 
L 2733 2867 
Q 2566 3027 2361 3136 
Q 2157 3245 1894 3245 
Q 1536 3245 1248 3046 
Q 960 2848 790 2496 
Q 621 2144 621 1677 
Q 621 1216 781 867 
Q 941 518 1225 323 
Q 1510 128 1894 128 
Q 2176 128 2413 246 
Q 2650 365 2829 531 
L 2963 365 
Q 2752 179 2483 48 
Q 2214 -83 1888 -83 
z
" transform="scale(0.015625)"/>
     <path id="NotoSansSC-Thin-65" d="M 1920 -83 
Q 1498 -83 1146 128 
Q 794 339 586 732 
Q 378 1126 378 1677 
Q 378 2093 496 2419 
Q 614 2746 822 2979 
Q 1030 3213 1289 3334 
Q 1549 3456 1830 3456 
Q 2221 3456 2505 3277 
Q 2790 3098 2947 2749 
Q 3104 2400 3104 1901 
Q 3104 1850 3104 1795 
Q 3104 1741 3091 1670 
L 621 1670 
Q 621 1229 784 880 
Q 947 531 1241 329 
Q 1536 128 1933 128 
Q 2221 128 2445 211 
Q 2669 294 2861 435 
L 2963 237 
Q 2771 122 2534 19 
Q 2298 -83 1920 -83 
z
M 621 1882 
L 2880 1882 
Q 2880 2566 2592 2905 
Q 2304 3245 1830 3245 
Q 1530 3245 1267 3081 
Q 1005 2918 832 2614 
Q 659 2310 621 1882 
z
" transform="scale(0.015625)"/>
     <path id="NotoSansSC-Thin-7c" d="M 678 -1760 
L 678 5286 
L 877 5286 
L 877 -1760 
L 678 -1760 
z
" transform="scale(0.015625)"/>
     <path id="NotoSansSC-Thin-626c" d="M 282 1760 
Q 659 1882 1200 2074 
Q 1741 2266 2310 2470 
L 2342 2278 
Q 1818 2093 1293 1901 
Q 768 1709 365 1562 
L 282 1760 
z
M 352 3936 
L 2362 3936 
L 2362 3744 
L 352 3744 
L 352 3936 
z
M 1280 5312 
L 1472 5312 
L 1472 -147 
Q 1472 -275 1427 -332 
Q 1382 -390 1293 -416 
Q 1210 -442 1037 -448 
Q 864 -454 563 -448 
Q 557 -416 537 -365 
Q 518 -314 493 -269 
Q 736 -275 921 -275 
Q 1107 -275 1165 -269 
Q 1222 -269 1251 -243 
Q 1280 -218 1280 -147 
L 1280 5312 
z
M 2438 4998 
L 5101 4998 
L 5101 4813 
L 2438 4813 
L 2438 4998 
z
M 5747 3187 
L 5939 3187 
Q 5939 3187 5936 3161 
Q 5933 3136 5933 3104 
Q 5933 3072 5926 3046 
Q 5875 2189 5820 1600 
Q 5766 1011 5708 636 
Q 5651 262 5580 57 
Q 5510 -147 5427 -243 
Q 5357 -326 5277 -358 
Q 5197 -390 5075 -390 
Q 4973 -397 4806 -390 
Q 4640 -384 4454 -371 
Q 4454 -326 4441 -272 
Q 4429 -218 4403 -179 
Q 4614 -198 4790 -201 
Q 4966 -205 5050 -205 
Q 5126 -211 5174 -195 
Q 5222 -179 5261 -128 
Q 5363 -26 5446 313 
Q 5530 653 5603 1334 
Q 5677 2016 5747 3136 
L 5747 3187 
z
M 2598 2944 
Q 2592 2970 2576 3005 
Q 2560 3040 2544 3075 
Q 2528 3110 2509 3136 
Q 2618 3149 2790 3238 
Q 2963 3328 3149 3450 
Q 3251 3514 3452 3661 
Q 3654 3808 3913 4009 
Q 4173 4211 4454 4451 
Q 4736 4691 4992 4941 
L 4992 4966 
L 5101 5024 
L 5280 4915 
Q 4608 4326 4013 3852 
Q 3418 3379 2810 3053 
L 2810 3046 
Q 2810 3046 2778 3040 
Q 2746 3034 2704 3021 
Q 2662 3008 2630 2989 
Q 2598 2970 2598 2944 
z
M 2598 2944 
L 2598 3130 
L 2784 3187 
L 5824 3187 
L 5824 3002 
L 3136 3002 
Q 2886 3002 2764 2989 
Q 2643 2976 2598 2944 
z
M 4934 3130 
L 5120 3085 
Q 4749 1862 4112 976 
Q 3475 90 2541 -480 
Q 2528 -461 2499 -435 
Q 2470 -410 2441 -387 
Q 2413 -365 2387 -346 
Q 3334 198 3964 1075 
Q 4595 1952 4934 3130 
z
M 3782 3104 
L 3968 3059 
Q 3738 2387 3318 1862 
Q 2899 1338 2387 979 
Q 2374 998 2345 1024 
Q 2317 1050 2285 1075 
Q 2253 1101 2227 1114 
Q 2752 1446 3158 1955 
Q 3565 2464 3782 3104 
z
" transform="scale(0.015625)"/>
     <path id="NotoSansSC-Thin-8bf4" d="M 883 5018 
L 1018 5139 
Q 1190 4992 1372 4816 
Q 1555 4640 1712 4473 
Q 1869 4307 1965 4179 
L 1830 4026 
Q 1734 4160 1577 4333 
Q 1421 4506 1238 4688 
Q 1056 4870 883 5018 
z
M 333 3270 
L 1523 3270 
L 1523 3078 
L 333 3078 
L 333 3270 
z
M 1229 -51 
L 1222 147 
L 1331 307 
L 2445 1018 
Q 2458 992 2467 966 
Q 2477 941 2489 915 
Q 2502 890 2509 870 
Q 2099 595 1856 425 
Q 1613 256 1485 163 
Q 1357 70 1305 25 
Q 1254 -19 1229 -51 
z
M 1229 -51 
Q 1216 -26 1193 3 
Q 1171 32 1148 64 
Q 1126 96 1101 115 
Q 1146 147 1219 214 
Q 1293 282 1353 384 
Q 1414 486 1414 621 
L 1414 3270 
L 1600 3270 
L 1600 326 
Q 1600 326 1561 297 
Q 1523 269 1468 224 
Q 1414 179 1360 128 
Q 1306 77 1267 29 
Q 1229 -19 1229 -51 
z
M 2842 5229 
L 3002 5293 
Q 3187 5037 3360 4729 
Q 3533 4422 3610 4205 
L 3437 4122 
Q 3392 4269 3296 4464 
Q 3200 4659 3081 4860 
Q 2963 5062 2842 5229 
z
M 5107 5318 
L 5286 5242 
Q 5146 4909 4973 4528 
Q 4800 4147 4634 3866 
L 4467 3949 
Q 4576 4134 4694 4377 
Q 4813 4621 4921 4870 
Q 5030 5120 5107 5318 
z
M 2707 3827 
L 2707 2336 
L 5248 2336 
L 5248 3827 
L 2707 3827 
z
M 2515 4013 
L 5440 4013 
L 5440 2144 
L 2515 2144 
L 2515 4013 
z
M 3443 2221 
L 3642 2221 
Q 3603 1722 3516 1302 
Q 3430 883 3264 550 
Q 3098 218 2813 -35 
Q 2528 -288 2086 -461 
Q 2067 -429 2022 -387 
Q 1978 -346 1946 -320 
Q 2374 -160 2652 83 
Q 2931 326 3094 643 
Q 3258 960 3334 1357 
Q 3411 1754 3443 2221 
z
M 4358 2214 
L 4550 2214 
L 4550 13 
Q 4550 -90 4598 -125 
Q 4646 -160 4813 -160 
Q 4851 -160 4960 -160 
Q 5069 -160 5203 -160 
Q 5338 -160 5453 -160 
Q 5568 -160 5619 -160 
Q 5722 -160 5773 -105 
Q 5824 -51 5846 128 
Q 5869 307 5869 672 
Q 5901 653 5933 637 
Q 5965 621 5997 608 
Q 6029 595 6061 582 
Q 6048 211 6013 6 
Q 5978 -198 5891 -275 
Q 5805 -352 5632 -352 
Q 5606 -352 5488 -352 
Q 5370 -352 5226 -352 
Q 5082 -352 4963 -352 
Q 4845 -352 4813 -352 
Q 4640 -352 4541 -323 
Q 4442 -294 4400 -217 
Q 4358 -141 4358 13 
L 4358 2214 
z
" transform="scale(0.015625)"/>
     <path id="NotoSansSC-Thin-8d22" d="M 1555 4230 
L 1747 4230 
L 1747 2477 
Q 1747 2131 1712 1744 
Q 1677 1357 1545 960 
Q 1414 563 1145 198 
Q 877 -166 403 -454 
Q 384 -422 345 -377 
Q 307 -333 275 -307 
Q 730 -38 989 307 
Q 1248 653 1369 1030 
Q 1491 1408 1523 1782 
Q 1555 2157 1555 2477 
L 1555 4230 
z
M 1766 902 
L 1914 1011 
Q 2074 832 2234 624 
Q 2394 416 2531 224 
Q 2669 32 2746 -115 
L 2592 -256 
Q 2509 -102 2374 99 
Q 2240 301 2083 512 
Q 1926 723 1766 902 
z
M 646 4954 
L 2566 4954 
L 2566 1133 
L 2381 1133 
L 2381 4768 
L 838 4768 
L 838 1133 
L 646 1133 
L 646 4954 
z
M 2963 4045 
L 6042 4045 
L 6042 3859 
L 2963 3859 
L 2963 4045 
z
M 4992 5312 
L 5184 5312 
L 5184 -102 
Q 5184 -250 5136 -317 
Q 5088 -384 4979 -416 
Q 4883 -442 4675 -445 
Q 4467 -448 4141 -448 
Q 4134 -422 4118 -387 
Q 4102 -352 4086 -313 
Q 4070 -275 4051 -243 
Q 4339 -250 4566 -250 
Q 4794 -250 4870 -243 
Q 4941 -237 4966 -211 
Q 4992 -186 4992 -102 
L 4992 5312 
z
M 4979 4000 
L 5139 3917 
Q 4979 3418 4745 2912 
Q 4512 2406 4227 1939 
Q 3942 1472 3628 1081 
Q 3315 691 2989 416 
Q 2963 454 2928 496 
Q 2893 538 2854 570 
Q 3174 832 3488 1213 
Q 3802 1594 4083 2051 
Q 4365 2509 4595 3008 
Q 4826 3507 4979 4000 
z
" transform="scale(0.015625)"/>
     <path id="NotoSansSC-Thin-7ecf" d="M 416 1248 
Q 410 1274 397 1312 
Q 384 1350 371 1392 
Q 358 1434 346 1459 
Q 435 1472 553 1590 
Q 672 1709 826 1888 
Q 909 1978 1072 2179 
Q 1235 2381 1443 2662 
Q 1651 2944 1865 3267 
Q 2080 3590 2266 3923 
L 2445 3827 
Q 2016 3136 1542 2496 
Q 1069 1856 595 1382 
L 595 1376 
Q 595 1376 569 1366 
Q 544 1357 505 1337 
Q 467 1318 441 1296 
Q 416 1274 416 1248 
z
M 416 1248 
L 416 1434 
L 563 1536 
L 2381 1882 
Q 2381 1843 2384 1792 
Q 2387 1741 2394 1709 
Q 1760 1574 1382 1494 
Q 1005 1414 809 1369 
Q 614 1325 534 1299 
Q 454 1274 416 1248 
z
M 378 2765 
Q 371 2790 358 2832 
Q 346 2874 333 2915 
Q 320 2957 307 2982 
Q 384 2995 477 3107 
Q 570 3219 672 3392 
Q 730 3475 851 3667 
Q 973 3859 1117 4121 
Q 1261 4384 1411 4685 
Q 1562 4986 1677 5286 
L 1869 5210 
Q 1677 4787 1462 4371 
Q 1248 3955 1021 3580 
Q 794 3206 557 2906 
L 557 2899 
Q 557 2899 531 2886 
Q 506 2874 467 2854 
Q 429 2835 403 2812 
Q 378 2790 378 2765 
z
M 378 2765 
L 378 2944 
L 531 3034 
L 1882 3206 
Q 1875 3162 1878 3114 
Q 1882 3066 1882 3034 
Q 1408 2963 1123 2918 
Q 838 2874 688 2845 
Q 538 2816 474 2800 
Q 410 2784 378 2765 
z
M 314 243 
Q 582 301 921 381 
Q 1261 461 1645 553 
Q 2029 646 2426 742 
L 2438 557 
Q 1875 422 1324 291 
Q 774 160 358 51 
L 314 243 
z
M 2714 4947 
L 5370 4947 
L 5370 4762 
L 2714 4762 
L 2714 4947 
z
M 5286 4947 
L 5331 4947 
L 5376 4960 
L 5517 4883 
Q 5286 4454 4934 4086 
Q 4582 3718 4160 3408 
Q 3738 3098 3290 2858 
Q 2842 2618 2419 2451 
Q 2406 2477 2380 2502 
Q 2355 2528 2332 2553 
Q 2310 2579 2285 2598 
Q 2701 2752 3139 2985 
Q 3578 3219 3987 3516 
Q 4397 3814 4736 4163 
Q 5075 4512 5286 4902 
L 5286 4947 
z
M 2368 -58 
L 6099 -58 
L 6099 -243 
L 2368 -243 
L 2368 -58 
z
M 4141 1971 
L 4326 1971 
L 4326 -173 
L 4141 -173 
L 4141 1971 
z
M 2758 2093 
L 5818 2093 
L 5818 1901 
L 2758 1901 
L 2758 2093 
z
M 4102 3443 
L 4205 3584 
Q 4538 3456 4893 3293 
Q 5248 3130 5565 2966 
Q 5882 2803 6093 2669 
L 5990 2496 
Q 5779 2637 5462 2806 
Q 5146 2976 4790 3145 
Q 4435 3315 4102 3443 
z
" transform="scale(0.015625)"/>
    </defs>
    <use xlink:href="#NotoSansSC-Thin-6570"/>
    <use xlink:href="#NotoSansSC-Thin-636e" transform="translate(99.999985 0)"/>
    <use xlink:href="#NotoSansSC-Thin-6765" transform="translate(199.999969 0)"/>
    <use xlink:href="#NotoSansSC-Thin-6e90" transform="translate(299.999954 0)"/>
    <use xlink:href="#NotoSansSC-Thin-3a" transform="translate(399.999939 0)"/>
    <use xlink:href="#NotoSansSC-Thin-20" transform="translate(423.09993 0)"/>
    <use xlink:href="#NotoSansSC-Thin-59" transform="translate(445.099915 0)"/>
    <use xlink:href="#NotoSansSC-Thin-61" transform="translate(493.299911 0)"/>
    <use xlink:href="#NotoSansSC-Thin-68" transform="translate(546.899902 0)"/>
    <use xlink:href="#NotoSansSC-Thin-6f" transform="translate(604.399887 0)"/>
    <use xlink:href="#NotoSansSC-Thin-6f" transform="translate(662.999878 0)"/>
    <use xlink:href="#NotoSansSC-Thin-20" transform="translate(721.599869 0)"/>
    <use xlink:href="#NotoSansSC-Thin-46" transform="translate(743.599854 0)"/>
    <use xlink:href="#NotoSansSC-Thin-69" transform="translate(795.399841 0)"/>
    <use xlink:href="#NotoSansSC-Thin-6e" transform="translate(819.899826 0)"/>
    <use xlink:href="#NotoSansSC-Thin-61" transform="translate(877.899811 0)"/>
    <use xlink:href="#NotoSansSC-Thin-6e" transform="translate(931.499802 0)"/>
    <use xlink:href="#NotoSansSC-Thin-63" transform="translate(989.499786 0)"/>
    <use xlink:href="#NotoSansSC-Thin-65" transform="translate(1038.699783 0)"/>
    <use xlink:href="#NotoSansSC-Thin-20" transform="translate(1091.39978 0)"/>
    <use xlink:href="#NotoSansSC-Thin-7c" transform="translate(1113.399765 0)"/>
    <use xlink:href="#NotoSansSC-Thin-20" transform="translate(1137.699753 0)"/>
    <use xlink:href="#NotoSansSC-Thin-626c" transform="translate(1159.699738 0)"/>
    <use xlink:href="#NotoSansSC-Thin-8bf4" transform="translate(1259.699722 0)"/>
    <use xlink:href="#NotoSansSC-Thin-8d22" transform="translate(1359.699707 0)"/>
    <use xlink:href="#NotoSansSC-Thin-7ecf" transform="translate(1459.699692 0)"/>
   </g>
  </g>
 </g>
 <defs>
  <clipPath id="pce3ff30bdb">
   <rect x="22.535" y="24.72875" width="324.69875" height="105.793013"/>
  </clipPath>
  <clipPath id="p67d1d34ff0">
   <rect x="22.535" y="180.017135" width="324.69875" height="126.951615"/>
  </clipPath>
 </defs>
</svg>
