<?xml version="1.0" encoding="utf-8" standalone="no"?>
<!DOCTYPE svg PUBLIC "-//W3C//DTD SVG 1.1//EN"
  "http://www.w3.org/Graphics/SVG/1.1/DTD/svg11.dtd">
<svg xmlns:xlink="http://www.w3.org/1999/xlink" width="379.119744pt" height="186.237531pt" viewBox="0 0 379.119744 186.237531" xmlns="http://www.w3.org/2000/svg" version="1.1">
 <metadata>
  <rdf:RDF xmlns:dc="http://purl.org/dc/elements/1.1/" xmlns:cc="http://creativecommons.org/ns#" xmlns:rdf="http://www.w3.org/1999/02/22-rdf-syntax-ns#">
   <cc:Work>
    <dc:type rdf:resource="http://purl.org/dc/dcmitype/StillImage"/>
    <dc:date>2026-06-15T11:06:06.770829</dc:date>
    <dc:format>image/svg+xml</dc:format>
    <dc:creator>
     <cc:Agent>
      <dc:title>Matplotlib v3.10.9, https://matplotlib.org/</dc:title>
     </cc:Agent>
    </dc:creator>
   </cc:Work>
  </rdf:RDF>
 </metadata>
 <defs>
  <style type="text/css">*{stroke-linejoin: round; stroke-linecap: butt}</style>
 </defs>
 <g id="figure_1">
  <g id="patch_1">
   <path d="M 0 186.237531 
L 379.119744 186.237531 
L 379.119744 0 
L 0 0 
z
" style="fill: #ffffff"/>
  </g>
  <g id="axes_1">
   <g id="patch_2">
    <path d="M 22.535 148.56875 
L 356.645 148.56875 
L 356.645 24.72875 
L 22.535 24.72875 
z
" style="fill: #ffffff"/>
   </g>
   <g id="patch_3">
    <path d="M 22.535 142.939659 
L 356.645 142.939659 
L 356.645 87.666694 
L 22.535 87.666694 
z
" clip-path="url(#p4f5281cbf5)" style="fill: #16a34a; opacity: 0.06"/>
   </g>
   <g id="patch_4">
    <path d="M 22.535 87.666694 
L 356.645 87.666694 
L 356.645 69.242372 
L 22.535 69.242372 
z
" clip-path="url(#p4f5281cbf5)" style="fill: #d4a017; opacity: 0.06"/>
   </g>
   <g id="patch_5">
    <path d="M 22.535 69.242372 
L 356.645 69.242372 
L 356.645 30.357841 
L 22.535 30.357841 
z
" clip-path="url(#p4f5281cbf5)" style="fill: #dc2626; opacity: 0.06"/>
   </g>
   <g id="matplotlib.axis_1">
    <g id="xtick_1">
     <g id="line2d_1">
      <defs>
       <path id="mf7a7484cf1" d="M 0 0 
L 0 3.5 
" style="stroke: #64748b; stroke-width: 0.8"/>
      </defs>
      <g>
       <use xlink:href="#mf7a7484cf1" x="37.721818" y="148.56875" style="fill: #64748b; stroke: #64748b; stroke-width: 0.8"/>
      </g>
     </g>
     <g id="text_1">
      <!-- 06/03 -->
      <g style="fill: #64748b" transform="translate(27.803068 161.92125) scale(0.08 -0.08)">
       <defs>
        <path id="NotoSansSC-Thin-30" d="M 1670 -83 
Q 1261 -83 963 179 
Q 666 442 509 979 
Q 352 1517 352 2336 
Q 352 3149 509 3677 
Q 666 4205 963 4467 
Q 1261 4730 1670 4730 
Q 2080 4730 2371 4467 
Q 2662 4205 2822 3677 
Q 2982 3149 2982 2336 
Q 2982 1517 2822 979 
Q 2662 442 2371 179 
Q 2080 -83 1670 -83 
z
M 1670 128 
Q 1997 128 2240 384 
Q 2483 640 2614 1133 
Q 2746 1626 2746 2336 
Q 2746 3040 2614 3529 
Q 2483 4019 2240 4272 
Q 1997 4525 1670 4525 
Q 1344 4525 1101 4272 
Q 858 4019 723 3529 
Q 589 3040 589 2336 
Q 589 1626 723 1133 
Q 858 640 1101 384 
Q 1344 128 1670 128 
z
" transform="scale(0.015625)"/>
        <path id="NotoSansSC-Thin-36" d="M 1837 -83 
Q 1498 -83 1232 67 
Q 966 218 780 509 
Q 595 800 496 1216 
Q 397 1632 397 2170 
Q 397 2886 528 3379 
Q 659 3872 889 4169 
Q 1120 4467 1414 4598 
Q 1709 4730 2029 4730 
Q 2330 4730 2550 4614 
Q 2771 4499 2944 4307 
L 2790 4147 
Q 2643 4333 2444 4425 
Q 2246 4518 2022 4518 
Q 1651 4518 1334 4297 
Q 1018 4077 826 3561 
Q 634 3046 634 2170 
Q 634 1581 762 1120 
Q 890 659 1158 393 
Q 1427 128 1850 128 
Q 2125 128 2336 297 
Q 2547 467 2672 752 
Q 2797 1037 2797 1382 
Q 2797 1741 2694 2025 
Q 2592 2310 2368 2476 
Q 2144 2643 1779 2643 
Q 1523 2643 1209 2470 
Q 896 2298 602 1888 
L 602 2176 
Q 768 2381 957 2531 
Q 1146 2682 1360 2762 
Q 1574 2842 1792 2842 
Q 2189 2842 2467 2675 
Q 2746 2509 2893 2185 
Q 3040 1862 3040 1382 
Q 3040 960 2873 630 
Q 2707 301 2435 109 
Q 2163 -83 1837 -83 
z
" transform="scale(0.015625)"/>
        <path id="NotoSansSC-Thin-2f" d="M 58 -1126 
L 2298 5005 
L 2515 5005 
L 282 -1126 
L 58 -1126 
z
" transform="scale(0.015625)"/>
        <path id="NotoSansSC-Thin-33" d="M 1619 -83 
Q 1261 -83 998 13 
Q 736 109 544 256 
Q 352 403 211 550 
L 358 717 
Q 563 499 857 313 
Q 1152 128 1632 128 
Q 1952 128 2198 262 
Q 2445 397 2585 640 
Q 2726 883 2726 1210 
Q 2726 1542 2560 1795 
Q 2394 2048 2038 2189 
Q 1683 2330 1114 2330 
L 1114 2554 
Q 1651 2554 1964 2698 
Q 2278 2842 2416 3088 
Q 2554 3334 2554 3629 
Q 2554 4026 2298 4272 
Q 2042 4518 1606 4518 
Q 1293 4518 1017 4374 
Q 742 4230 557 4026 
L 410 4192 
Q 634 4410 925 4570 
Q 1216 4730 1606 4730 
Q 1939 4730 2211 4598 
Q 2483 4467 2643 4224 
Q 2803 3981 2803 3642 
Q 2803 3168 2550 2877 
Q 2298 2586 1926 2464 
L 1926 2438 
Q 2208 2381 2445 2221 
Q 2682 2061 2826 1808 
Q 2970 1555 2970 1222 
Q 2970 826 2790 531 
Q 2611 237 2307 77 
Q 2003 -83 1619 -83 
z
" transform="scale(0.015625)"/>
       </defs>
       <use xlink:href="#NotoSansSC-Thin-30"/>
       <use xlink:href="#NotoSansSC-Thin-36" transform="translate(52.099991 0)"/>
       <use xlink:href="#NotoSansSC-Thin-2f" transform="translate(104.199982 0)"/>
       <use xlink:href="#NotoSansSC-Thin-30" transform="translate(143.799973 0)"/>
       <use xlink:href="#NotoSansSC-Thin-33" transform="translate(195.899963 0)"/>
      </g>
     </g>
    </g>
    <g id="xtick_2">
     <g id="line2d_2">
      <g>
       <use xlink:href="#mf7a7484cf1" x="75.688864" y="148.56875" style="fill: #64748b; stroke: #64748b; stroke-width: 0.8"/>
      </g>
     </g>
     <g id="text_2">
      <!-- 06/04 -->
      <g style="fill: #64748b" transform="translate(65.770114 161.92125) scale(0.08 -0.08)">
       <defs>
        <path id="NotoSansSC-Thin-34" d="M 2195 0 
L 2195 3482 
Q 2195 3629 2204 3843 
Q 2214 4058 2227 4205 
L 2195 4205 
Q 2112 4058 2019 3901 
Q 1926 3744 1830 3590 
L 422 1568 
L 3110 1568 
L 3110 1363 
L 115 1363 
L 115 1485 
L 2259 4646 
L 2419 4646 
L 2419 0 
L 2195 0 
z
" transform="scale(0.015625)"/>
       </defs>
       <use xlink:href="#NotoSansSC-Thin-30"/>
       <use xlink:href="#NotoSansSC-Thin-36" transform="translate(52.099991 0)"/>
       <use xlink:href="#NotoSansSC-Thin-2f" transform="translate(104.199982 0)"/>
       <use xlink:href="#NotoSansSC-Thin-30" transform="translate(143.799973 0)"/>
       <use xlink:href="#NotoSansSC-Thin-34" transform="translate(195.899963 0)"/>
      </g>
     </g>
    </g>
    <g id="xtick_3">
     <g id="line2d_3">
      <g>
       <use xlink:href="#mf7a7484cf1" x="113.655909" y="148.56875" style="fill: #64748b; stroke: #64748b; stroke-width: 0.8"/>
      </g>
     </g>
     <g id="text_3">
      <!-- 06/05 -->
      <g style="fill: #64748b" transform="translate(103.737159 161.92125) scale(0.08 -0.08)">
       <defs>
        <path id="NotoSansSC-Thin-35" d="M 1581 -83 
Q 1222 -83 963 9 
Q 704 102 515 240 
Q 326 378 186 518 
L 333 691 
Q 467 550 636 422 
Q 806 294 1040 211 
Q 1274 128 1594 128 
Q 1901 128 2166 294 
Q 2432 461 2592 765 
Q 2752 1069 2752 1466 
Q 2752 2061 2441 2406 
Q 2131 2752 1606 2752 
Q 1350 2752 1152 2665 
Q 954 2579 755 2445 
L 563 2560 
L 730 4646 
L 2758 4646 
L 2758 4435 
L 941 4435 
L 787 2726 
Q 966 2835 1168 2902 
Q 1370 2970 1626 2970 
Q 2010 2970 2320 2813 
Q 2630 2656 2812 2326 
Q 2995 1997 2995 1478 
Q 2995 979 2787 630 
Q 2579 282 2256 99 
Q 1933 -83 1581 -83 
z
" transform="scale(0.015625)"/>
       </defs>
       <use xlink:href="#NotoSansSC-Thin-30"/>
       <use xlink:href="#NotoSansSC-Thin-36" transform="translate(52.099991 0)"/>
       <use xlink:href="#NotoSansSC-Thin-2f" transform="translate(104.199982 0)"/>
       <use xlink:href="#NotoSansSC-Thin-30" transform="translate(143.799973 0)"/>
       <use xlink:href="#NotoSansSC-Thin-35" transform="translate(195.899963 0)"/>
      </g>
     </g>
    </g>
    <g id="xtick_4">
     <g id="line2d_4">
      <g>
       <use xlink:href="#mf7a7484cf1" x="151.622955" y="148.56875" style="fill: #64748b; stroke: #64748b; stroke-width: 0.8"/>
      </g>
     </g>
     <g id="text_4">
      <!-- 06/06 -->
      <g style="fill: #64748b" transform="translate(141.704205 161.92125) scale(0.08 -0.08)">
       <use xlink:href="#NotoSansSC-Thin-30"/>
       <use xlink:href="#NotoSansSC-Thin-36" transform="translate(52.099991 0)"/>
       <use xlink:href="#NotoSansSC-Thin-2f" transform="translate(104.199982 0)"/>
       <use xlink:href="#NotoSansSC-Thin-30" transform="translate(143.799973 0)"/>
       <use xlink:href="#NotoSansSC-Thin-36" transform="translate(195.899963 0)"/>
      </g>
     </g>
    </g>
    <g id="xtick_5">
     <g id="line2d_5">
      <g>
       <use xlink:href="#mf7a7484cf1" x="189.59" y="148.56875" style="fill: #64748b; stroke: #64748b; stroke-width: 0.8"/>
      </g>
     </g>
     <g id="text_5">
      <!-- 06/07 -->
      <g style="fill: #64748b" transform="translate(179.67125 161.92125) scale(0.08 -0.08)">
       <defs>
        <path id="NotoSansSC-Thin-37" d="M 1344 0 
Q 1376 717 1462 1318 
Q 1549 1920 1712 2445 
Q 1875 2970 2124 3459 
Q 2374 3949 2726 4435 
L 307 4435 
L 307 4646 
L 3034 4646 
L 3034 4512 
Q 2624 3955 2355 3436 
Q 2086 2918 1932 2384 
Q 1779 1850 1705 1267 
Q 1632 685 1606 0 
L 1344 0 
z
" transform="scale(0.015625)"/>
       </defs>
       <use xlink:href="#NotoSansSC-Thin-30"/>
       <use xlink:href="#NotoSansSC-Thin-36" transform="translate(52.099991 0)"/>
       <use xlink:href="#NotoSansSC-Thin-2f" transform="translate(104.199982 0)"/>
       <use xlink:href="#NotoSansSC-Thin-30" transform="translate(143.799973 0)"/>
       <use xlink:href="#NotoSansSC-Thin-37" transform="translate(195.899963 0)"/>
      </g>
     </g>
    </g>
    <g id="xtick_6">
     <g id="line2d_6">
      <g>
       <use xlink:href="#mf7a7484cf1" x="227.557045" y="148.56875" style="fill: #64748b; stroke: #64748b; stroke-width: 0.8"/>
      </g>
     </g>
     <g id="text_6">
      <!-- 06/08 -->
      <g style="fill: #64748b" transform="translate(217.638295 161.92125) scale(0.08 -0.08)">
       <defs>
        <path id="NotoSansSC-Thin-38" d="M 1696 -83 
Q 1286 -83 966 80 
Q 646 243 464 521 
Q 282 800 282 1152 
Q 282 1478 422 1744 
Q 563 2010 774 2202 
Q 986 2394 1197 2509 
L 1197 2534 
Q 954 2694 752 2953 
Q 550 3213 550 3578 
Q 550 3910 704 4163 
Q 858 4416 1117 4560 
Q 1376 4704 1696 4704 
Q 2080 4704 2345 4544 
Q 2611 4384 2752 4112 
Q 2893 3840 2893 3494 
Q 2893 3238 2784 3008 
Q 2675 2778 2528 2602 
Q 2381 2426 2253 2317 
L 2253 2285 
Q 2445 2170 2627 2010 
Q 2810 1850 2925 1626 
Q 3040 1402 3040 1082 
Q 3040 762 2870 496 
Q 2701 230 2400 73 
Q 2099 -83 1696 -83 
z
M 2035 2387 
Q 2336 2630 2499 2905 
Q 2662 3181 2662 3494 
Q 2662 3763 2550 3990 
Q 2438 4218 2220 4358 
Q 2003 4499 1696 4499 
Q 1293 4499 1040 4236 
Q 787 3974 787 3578 
Q 787 3238 972 3017 
Q 1158 2797 1446 2653 
Q 1734 2509 2035 2387 
z
M 1696 128 
Q 2035 128 2281 256 
Q 2528 384 2662 601 
Q 2797 819 2797 1082 
Q 2797 1370 2675 1574 
Q 2554 1779 2352 1923 
Q 2150 2067 1894 2182 
Q 1638 2298 1370 2400 
Q 998 2189 758 1875 
Q 518 1562 518 1152 
Q 518 870 668 636 
Q 819 403 1088 265 
Q 1357 128 1696 128 
z
" transform="scale(0.015625)"/>
       </defs>
       <use xlink:href="#NotoSansSC-Thin-30"/>
       <use xlink:href="#NotoSansSC-Thin-36" transform="translate(52.099991 0)"/>
       <use xlink:href="#NotoSansSC-Thin-2f" transform="translate(104.199982 0)"/>
       <use xlink:href="#NotoSansSC-Thin-30" transform="translate(143.799973 0)"/>
       <use xlink:href="#NotoSansSC-Thin-38" transform="translate(195.899963 0)"/>
      </g>
     </g>
    </g>
    <g id="xtick_7">
     <g id="line2d_7">
      <g>
       <use xlink:href="#mf7a7484cf1" x="265.524091" y="148.56875" style="fill: #64748b; stroke: #64748b; stroke-width: 0.8"/>
      </g>
     </g>
     <g id="text_7">
      <!-- 06/09 -->
      <g style="fill: #64748b" transform="translate(255.605341 161.92125) scale(0.08 -0.08)">
       <defs>
        <path id="NotoSansSC-Thin-39" d="M 1370 -83 
Q 1050 -83 819 32 
Q 589 147 410 339 
L 557 506 
Q 723 314 934 221 
Q 1146 128 1389 128 
Q 1651 128 1891 256 
Q 2131 384 2316 675 
Q 2502 966 2611 1443 
Q 2720 1920 2720 2618 
Q 2720 3168 2592 3600 
Q 2464 4032 2195 4278 
Q 1926 4525 1498 4525 
Q 1229 4525 1014 4355 
Q 800 4186 675 3901 
Q 550 3616 550 3264 
Q 550 2912 652 2627 
Q 755 2342 979 2172 
Q 1203 2003 1555 2003 
Q 1830 2003 2137 2182 
Q 2445 2362 2739 2765 
L 2746 2470 
Q 2586 2278 2397 2128 
Q 2208 1978 1993 1891 
Q 1779 1805 1536 1805 
Q 1152 1805 877 1974 
Q 602 2144 454 2470 
Q 307 2797 307 3264 
Q 307 3686 473 4019 
Q 640 4352 912 4541 
Q 1184 4730 1510 4730 
Q 1850 4730 2118 4589 
Q 2387 4448 2572 4176 
Q 2758 3904 2857 3513 
Q 2957 3123 2957 2618 
Q 2957 1862 2825 1344 
Q 2694 826 2470 512 
Q 2246 198 1961 57 
Q 1677 -83 1370 -83 
z
" transform="scale(0.015625)"/>
       </defs>
       <use xlink:href="#NotoSansSC-Thin-30"/>
       <use xlink:href="#NotoSansSC-Thin-36" transform="translate(52.099991 0)"/>
       <use xlink:href="#NotoSansSC-Thin-2f" transform="translate(104.199982 0)"/>
       <use xlink:href="#NotoSansSC-Thin-30" transform="translate(143.799973 0)"/>
       <use xlink:href="#NotoSansSC-Thin-39" transform="translate(195.899963 0)"/>
      </g>
     </g>
    </g>
    <g id="xtick_8">
     <g id="line2d_8">
      <g>
       <use xlink:href="#mf7a7484cf1" x="303.491136" y="148.56875" style="fill: #64748b; stroke: #64748b; stroke-width: 0.8"/>
      </g>
     </g>
     <g id="text_8">
      <!-- 06/10 -->
      <g style="fill: #64748b" transform="translate(293.572386 161.92125) scale(0.08 -0.08)">
       <defs>
        <path id="NotoSansSC-Thin-31" d="M 608 0 
L 608 211 
L 1677 211 
L 1677 4211 
L 864 4211 
L 864 4378 
Q 1133 4422 1344 4492 
Q 1555 4563 1702 4646 
L 1901 4646 
L 1901 211 
L 2899 211 
L 2899 0 
L 608 0 
z
" transform="scale(0.015625)"/>
       </defs>
       <use xlink:href="#NotoSansSC-Thin-30"/>
       <use xlink:href="#NotoSansSC-Thin-36" transform="translate(52.099991 0)"/>
       <use xlink:href="#NotoSansSC-Thin-2f" transform="translate(104.199982 0)"/>
       <use xlink:href="#NotoSansSC-Thin-31" transform="translate(143.799973 0)"/>
       <use xlink:href="#NotoSansSC-Thin-30" transform="translate(195.899963 0)"/>
      </g>
     </g>
    </g>
    <g id="xtick_9">
     <g id="line2d_9">
      <g>
       <use xlink:href="#mf7a7484cf1" x="341.458182" y="148.56875" style="fill: #64748b; stroke: #64748b; stroke-width: 0.8"/>
      </g>
     </g>
     <g id="text_9">
      <!-- 06/11 -->
      <g style="fill: #64748b" transform="translate(331.539432 161.92125) scale(0.08 -0.08)">
       <use xlink:href="#NotoSansSC-Thin-30"/>
       <use xlink:href="#NotoSansSC-Thin-36" transform="translate(52.099991 0)"/>
       <use xlink:href="#NotoSansSC-Thin-2f" transform="translate(104.199982 0)"/>
       <use xlink:href="#NotoSansSC-Thin-31" transform="translate(143.799973 0)"/>
       <use xlink:href="#NotoSansSC-Thin-31" transform="translate(195.899963 0)"/>
      </g>
     </g>
    </g>
   </g>
   <g id="matplotlib.axis_2">
    <g id="ytick_1">
     <g id="line2d_10">
      <path d="M 22.535 142.939659 
L 356.645 142.939659 
" clip-path="url(#p4f5281cbf5)" style="fill: none; stroke: #64748b; stroke-opacity: 0.12; stroke-width: 0.5; stroke-linecap: square"/>
     </g>
     <g id="line2d_11">
      <defs>
       <path id="m564c97ef1b" d="M 0 0 
L -3.5 0 
" style="stroke: #64748b; stroke-width: 0.8"/>
      </defs>
      <g>
       <use xlink:href="#m564c97ef1b" x="22.535" y="142.939659" style="fill: #64748b; stroke: #64748b; stroke-width: 0.8"/>
      </g>
     </g>
     <g id="text_10">
      <!-- 0 -->
      <g style="fill: #64748b" transform="translate(11.3675 146.115909) scale(0.08 -0.08)">
       <use xlink:href="#NotoSansSC-Thin-30"/>
      </g>
     </g>
    </g>
    <g id="ytick_2">
     <g id="line2d_12">
      <path d="M 22.535 124.515337 
L 356.645 124.515337 
" clip-path="url(#p4f5281cbf5)" style="fill: none; stroke: #64748b; stroke-opacity: 0.12; stroke-width: 0.5; stroke-linecap: square"/>
     </g>
     <g id="line2d_13">
      <g>
       <use xlink:href="#m564c97ef1b" x="22.535" y="124.515337" style="fill: #64748b; stroke: #64748b; stroke-width: 0.8"/>
      </g>
     </g>
     <g id="text_11">
      <!-- 5 -->
      <g style="fill: #64748b" transform="translate(11.3675 127.691587) scale(0.08 -0.08)">
       <use xlink:href="#NotoSansSC-Thin-35"/>
      </g>
     </g>
    </g>
    <g id="ytick_3">
     <g id="line2d_14">
      <path d="M 22.535 106.091016 
L 356.645 106.091016 
" clip-path="url(#p4f5281cbf5)" style="fill: none; stroke: #64748b; stroke-opacity: 0.12; stroke-width: 0.5; stroke-linecap: square"/>
     </g>
     <g id="line2d_15">
      <g>
       <use xlink:href="#m564c97ef1b" x="22.535" y="106.091016" style="fill: #64748b; stroke: #64748b; stroke-width: 0.8"/>
      </g>
     </g>
     <g id="text_12">
      <!-- 10 -->
      <g style="fill: #64748b" transform="translate(7.2 109.267266) scale(0.08 -0.08)">
       <use xlink:href="#NotoSansSC-Thin-31"/>
       <use xlink:href="#NotoSansSC-Thin-30" transform="translate(52.099991 0)"/>
      </g>
     </g>
    </g>
    <g id="ytick_4">
     <g id="line2d_16">
      <path d="M 22.535 87.666694 
L 356.645 87.666694 
" clip-path="url(#p4f5281cbf5)" style="fill: none; stroke: #64748b; stroke-opacity: 0.12; stroke-width: 0.5; stroke-linecap: square"/>
     </g>
     <g id="line2d_17">
      <g>
       <use xlink:href="#m564c97ef1b" x="22.535" y="87.666694" style="fill: #64748b; stroke: #64748b; stroke-width: 0.8"/>
      </g>
     </g>
     <g id="text_13">
      <!-- 15 -->
      <g style="fill: #64748b" transform="translate(7.2 90.842944) scale(0.08 -0.08)">
       <use xlink:href="#NotoSansSC-Thin-31"/>
       <use xlink:href="#NotoSansSC-Thin-35" transform="translate(52.099991 0)"/>
      </g>
     </g>
    </g>
    <g id="ytick_5">
     <g id="line2d_18">
      <path d="M 22.535 69.242372 
L 356.645 69.242372 
" clip-path="url(#p4f5281cbf5)" style="fill: none; stroke: #64748b; stroke-opacity: 0.12; stroke-width: 0.5; stroke-linecap: square"/>
     </g>
     <g id="line2d_19">
      <g>
       <use xlink:href="#m564c97ef1b" x="22.535" y="69.242372" style="fill: #64748b; stroke: #64748b; stroke-width: 0.8"/>
      </g>
     </g>
     <g id="text_14">
      <!-- 20 -->
      <g style="fill: #64748b" transform="translate(7.2 72.418622) scale(0.08 -0.08)">
       <defs>
        <path id="NotoSansSC-Thin-32" d="M 294 0 
L 294 147 
Q 1120 858 1613 1434 
Q 2106 2010 2323 2499 
Q 2541 2989 2541 3424 
Q 2541 3725 2435 3974 
Q 2330 4224 2106 4371 
Q 1882 4518 1523 4518 
Q 1210 4518 931 4352 
Q 653 4186 442 3923 
L 282 4070 
Q 525 4346 829 4538 
Q 1133 4730 1542 4730 
Q 1939 4730 2214 4566 
Q 2490 4403 2637 4112 
Q 2784 3821 2784 3424 
Q 2784 2918 2537 2406 
Q 2291 1894 1820 1347 
Q 1350 800 678 179 
Q 870 192 1062 201 
Q 1254 211 1440 211 
L 3014 211 
L 3014 0 
L 294 0 
z
" transform="scale(0.015625)"/>
       </defs>
       <use xlink:href="#NotoSansSC-Thin-32"/>
       <use xlink:href="#NotoSansSC-Thin-30" transform="translate(52.099991 0)"/>
      </g>
     </g>
    </g>
    <g id="ytick_6">
     <g id="line2d_20">
      <path d="M 22.535 50.81805 
L 356.645 50.81805 
" clip-path="url(#p4f5281cbf5)" style="fill: none; stroke: #64748b; stroke-opacity: 0.12; stroke-width: 0.5; stroke-linecap: square"/>
     </g>
     <g id="line2d_21">
      <g>
       <use xlink:href="#m564c97ef1b" x="22.535" y="50.81805" style="fill: #64748b; stroke: #64748b; stroke-width: 0.8"/>
      </g>
     </g>
     <g id="text_15">
      <!-- 25 -->
      <g style="fill: #64748b" transform="translate(7.2 53.9943) scale(0.08 -0.08)">
       <use xlink:href="#NotoSansSC-Thin-32"/>
       <use xlink:href="#NotoSansSC-Thin-35" transform="translate(52.099991 0)"/>
      </g>
     </g>
    </g>
    <g id="ytick_7">
     <g id="line2d_22">
      <path d="M 22.535 32.393728 
L 356.645 32.393728 
" clip-path="url(#p4f5281cbf5)" style="fill: none; stroke: #64748b; stroke-opacity: 0.12; stroke-width: 0.5; stroke-linecap: square"/>
     </g>
     <g id="line2d_23">
      <g>
       <use xlink:href="#m564c97ef1b" x="22.535" y="32.393728" style="fill: #64748b; stroke: #64748b; stroke-width: 0.8"/>
      </g>
     </g>
     <g id="text_16">
      <!-- 30 -->
      <g style="fill: #64748b" transform="translate(7.2 35.569978) scale(0.08 -0.08)">
       <use xlink:href="#NotoSansSC-Thin-33"/>
       <use xlink:href="#NotoSansSC-Thin-30" transform="translate(52.099991 0)"/>
      </g>
     </g>
    </g>
   </g>
   <g id="FillBetweenPolyCollection_1">
    <defs>
     <path id="m49310feea8" d="M 37.721818 -43.297872 
L 37.721818 -108.962155 
L 75.688864 -99.492054 
L 113.655909 -122.559304 
L 227.557045 -113.126052 
L 265.524091 -116.516127 
L 303.491136 -125.175558 
L 341.458182 -114.931635 
L 341.458182 -43.297872 
L 341.458182 -43.297872 
L 303.491136 -43.297872 
L 265.524091 -43.297872 
L 227.557045 -43.297872 
L 113.655909 -43.297872 
L 75.688864 -43.297872 
L 37.721818 -43.297872 
z
" style="stroke: #1a56db; stroke-opacity: 0.1"/>
    </defs>
    <g clip-path="url(#p4f5281cbf5)">
     <use xlink:href="#m49310feea8" x="0" y="186.237531" style="fill: #1a56db; fill-opacity: 0.1; stroke: #1a56db; stroke-opacity: 0.1"/>
    </g>
   </g>
   <g id="line2d_24">
    <path d="M 22.535 87.666694 
L 356.645 87.666694 
" clip-path="url(#p4f5281cbf5)" style="fill: none; stroke-dasharray: 2.96,1.28; stroke-dashoffset: 0; stroke: #16a34a; stroke-opacity: 0.4; stroke-width: 0.8"/>
   </g>
   <g id="line2d_25">
    <path d="M 22.535 69.242372 
L 356.645 69.242372 
" clip-path="url(#p4f5281cbf5)" style="fill: none; stroke-dasharray: 2.96,1.28; stroke-dashoffset: 0; stroke: #dc2626; stroke-opacity: 0.4; stroke-width: 0.8"/>
   </g>
   <g id="patch_6">
    <path d="M 22.535 148.56875 
L 22.535 24.72875 
" style="fill: none; stroke: #e2e8f0; stroke-width: 0.5; stroke-linejoin: miter; stroke-linecap: square"/>
   </g>
   <g id="patch_7">
    <path d="M 22.535 148.56875 
L 356.645 148.56875 
" style="fill: none; stroke: #e2e8f0; stroke-width: 0.5; stroke-linejoin: miter; stroke-linecap: square"/>
   </g>
   <g id="text_17">
    <g id="patch_8">
     <path d="M 25.8761 126.949453 
L 57.5961 126.949453 
Q 60.1961 126.949453 60.1961 124.349453 
L 60.1961 110.868047 
Q 60.1961 108.268047 57.5961 108.268047 
L 25.8761 108.268047 
Q 23.2761 108.268047 23.2761 110.868047 
L 23.2761 124.349453 
Q 23.2761 126.949453 25.8761 126.949453 
z
" style="fill: #ffffff; opacity: 0.85"/>
    </g>
    <!--   平静 -->
    <g style="fill: #16a34a" transform="translate(25.8761 121.190859) scale(0.13 -0.13)">
     <defs>
      <path id="NotoSansSC-Thin-20" transform="scale(0.015625)"/>
      <path id="NotoSansSC-Thin-5e73" d="M 704 4851 
L 5677 4851 
L 5677 4659 
L 704 4659 
L 704 4851 
z
M 378 2125 
L 6029 2125 
L 6029 1939 
L 378 1939 
L 378 2125 
z
M 1210 4192 
L 1376 4250 
Q 1523 3994 1664 3699 
Q 1805 3405 1917 3129 
Q 2029 2854 2080 2656 
L 1907 2579 
Q 1850 2790 1741 3065 
Q 1632 3341 1494 3638 
Q 1357 3936 1210 4192 
z
M 4992 4288 
L 5190 4218 
Q 5069 3942 4918 3635 
Q 4768 3328 4614 3037 
Q 4461 2746 4314 2528 
L 4160 2598 
Q 4301 2816 4457 3113 
Q 4614 3411 4755 3724 
Q 4896 4038 4992 4288 
z
M 3085 4800 
L 3277 4800 
L 3277 -448 
L 3085 -448 
L 3085 4800 
z
" transform="scale(0.015625)"/>
      <path id="NotoSansSC-Thin-9759" d="M 461 4691 
L 3008 4691 
L 3008 4506 
L 461 4506 
L 461 4691 
z
M 3904 4717 
L 5235 4717 
L 5235 4531 
L 3904 4531 
L 3904 4717 
z
M 3315 1376 
L 5658 1376 
L 5658 1184 
L 3315 1184 
L 3315 1376 
z
M 538 3974 
L 2918 3974 
L 2918 3789 
L 538 3789 
L 538 3974 
z
M 326 3219 
L 3098 3219 
L 3098 3034 
L 326 3034 
L 326 3219 
z
M 2976 2496 
L 6170 2496 
L 6170 2310 
L 2976 2310 
L 2976 2496 
z
M 832 1728 
L 2643 1728 
L 2643 1536 
L 832 1536 
L 832 1728 
z
M 832 902 
L 2643 902 
L 2643 717 
L 832 717 
L 832 902 
z
M 1619 5318 
L 1805 5318 
L 1805 3085 
L 1619 3085 
L 1619 5318 
z
M 742 2528 
L 2637 2528 
L 2637 2342 
L 928 2342 
L 928 -454 
L 742 -454 
L 742 2528 
z
M 2560 2528 
L 2746 2528 
L 2746 -179 
Q 2746 -282 2714 -339 
Q 2682 -397 2592 -416 
Q 2502 -442 2323 -448 
Q 2144 -454 1824 -454 
Q 1818 -422 1795 -374 
Q 1773 -326 1747 -282 
Q 2010 -288 2202 -288 
Q 2394 -288 2451 -288 
Q 2560 -282 2560 -179 
L 2560 2528 
z
M 3354 3597 
L 5728 3597 
L 5728 915 
L 5542 915 
L 5542 3405 
L 3354 3405 
L 3354 3597 
z
M 4365 3520 
L 4557 3520 
L 4557 -147 
Q 4557 -275 4515 -336 
Q 4474 -397 4371 -422 
Q 4275 -448 4070 -451 
Q 3866 -454 3514 -454 
Q 3507 -422 3484 -368 
Q 3462 -314 3437 -269 
Q 3738 -275 3955 -275 
Q 4173 -275 4243 -275 
Q 4314 -269 4339 -243 
Q 4365 -218 4365 -147 
L 4365 3520 
z
M 4134 5318 
L 4314 5274 
Q 4109 4762 3805 4291 
Q 3501 3821 3162 3482 
Q 3149 3501 3120 3523 
Q 3091 3546 3062 3571 
Q 3034 3597 3008 3610 
Q 3347 3930 3644 4381 
Q 3942 4832 4134 5318 
z
M 5178 4717 
L 5216 4717 
L 5248 4730 
L 5370 4646 
Q 5274 4429 5136 4205 
Q 4998 3981 4851 3782 
Q 4704 3584 4570 3430 
Q 4544 3450 4502 3472 
Q 4461 3494 4429 3507 
Q 4563 3654 4704 3856 
Q 4845 4058 4969 4272 
Q 5094 4486 5178 4672 
L 5178 4717 
z
" transform="scale(0.015625)"/>
     </defs>
     <use xlink:href="#NotoSansSC-Thin-20"/>
     <use xlink:href="#NotoSansSC-Thin-20" transform="translate(21.999985 0)"/>
     <use xlink:href="#NotoSansSC-Thin-5e73" transform="translate(43.999969 0)"/>
     <use xlink:href="#NotoSansSC-Thin-9759" transform="translate(143.999954 0)"/>
    </g>
   </g>
   <g id="text_18">
    <g id="patch_9">
     <path d="M 25.8761 89.797453 
L 57.5961 89.797453 
Q 60.1961 89.797453 60.1961 87.197453 
L 60.1961 73.716047 
Q 60.1961 71.116047 57.5961 71.116047 
L 25.8761 71.116047 
Q 23.2761 71.116047 23.2761 73.716047 
L 23.2761 87.197453 
Q 23.2761 89.797453 25.8761 89.797453 
z
" style="fill: #ffffff; opacity: 0.85"/>
    </g>
    <!--   焦虑 -->
    <g style="fill: #d4a017" transform="translate(25.8761 84.038859) scale(0.13 -0.13)">
     <defs>
      <path id="NotoSansSC-Thin-7126" d="M 1920 5338 
L 2106 5286 
Q 1907 4838 1638 4422 
Q 1370 4006 1066 3648 
Q 762 3290 435 3014 
Q 422 3027 390 3049 
Q 358 3072 326 3097 
Q 294 3123 269 3136 
Q 602 3398 909 3747 
Q 1216 4096 1475 4502 
Q 1734 4909 1920 5338 
z
M 3418 4288 
L 3610 4288 
L 3610 1293 
L 3418 1293 
L 3418 4288 
z
M 1344 3373 
L 5382 3373 
L 5382 3187 
L 1344 3187 
L 1344 3373 
z
M 1344 2445 
L 5414 2445 
L 5414 2259 
L 1344 2259 
L 1344 2445 
z
M 2298 723 
L 2470 730 
Q 2534 454 2576 140 
Q 2618 -173 2624 -378 
L 2438 -403 
Q 2438 -256 2419 -64 
Q 2400 128 2371 336 
Q 2342 544 2298 723 
z
M 3635 736 
L 3808 774 
Q 3904 595 3993 387 
Q 4083 179 4153 -16 
Q 4224 -211 4256 -358 
L 4077 -410 
Q 4019 -186 3897 137 
Q 3776 461 3635 736 
z
M 4973 787 
L 5139 858 
Q 5318 672 5494 445 
Q 5670 218 5820 0 
Q 5971 -218 6061 -384 
L 5888 -467 
Q 5805 -301 5654 -80 
Q 5504 141 5328 368 
Q 5152 595 4973 787 
z
M 1210 832 
L 1376 787 
Q 1248 474 1056 128 
Q 864 -218 634 -448 
L 480 -378 
Q 704 -154 896 179 
Q 1088 512 1210 832 
z
M 3162 5254 
L 3322 5338 
Q 3462 5139 3587 4902 
Q 3712 4666 3770 4499 
L 3616 4390 
Q 3552 4563 3427 4809 
Q 3302 5056 3162 5254 
z
M 1325 1427 
L 5677 1427 
L 5677 1235 
L 1325 1235 
L 1325 1427 
z
M 1446 4326 
L 5837 4326 
L 5837 4141 
L 1446 4141 
L 1446 979 
L 1261 979 
L 1261 4102 
L 1472 4326 
L 1446 4326 
z
" transform="scale(0.015625)"/>
      <path id="NotoSansSC-Thin-8651" d="M 3104 4710 
L 5542 4710 
L 5542 4525 
L 3104 4525 
L 3104 4710 
z
M 998 3910 
L 5773 3910 
L 5773 3718 
L 998 3718 
L 998 3910 
z
M 3021 5312 
L 3206 5312 
L 3206 3846 
L 3021 3846 
L 3021 5312 
z
M 1478 2790 
L 5101 3168 
L 5126 2989 
L 1498 2611 
L 1478 2790 
z
M 3021 3802 
L 3206 3802 
L 3206 2381 
Q 3206 2259 3292 2214 
Q 3379 2170 3693 2170 
Q 3750 2170 3907 2170 
Q 4064 2170 4272 2170 
Q 4480 2170 4688 2170 
Q 4896 2170 5065 2170 
Q 5235 2170 5318 2170 
Q 5472 2170 5545 2211 
Q 5619 2253 5648 2374 
Q 5677 2496 5690 2746 
Q 5734 2720 5785 2704 
Q 5837 2688 5875 2675 
Q 5862 2394 5817 2243 
Q 5773 2093 5661 2038 
Q 5549 1984 5331 1984 
Q 5293 1984 5129 1984 
Q 4966 1984 4745 1984 
Q 4525 1984 4301 1984 
Q 4077 1984 3913 1984 
Q 3750 1984 3712 1984 
Q 3443 1984 3292 2013 
Q 3142 2042 3081 2128 
Q 3021 2214 3021 2381 
L 3021 3802 
z
M 883 3910 
L 1075 3910 
L 1075 2368 
Q 1075 2061 1052 1709 
Q 1030 1357 966 989 
Q 902 621 780 269 
Q 659 -83 461 -390 
Q 448 -371 419 -348 
Q 390 -326 361 -304 
Q 333 -282 307 -275 
Q 499 19 614 355 
Q 730 691 787 1043 
Q 845 1395 864 1734 
Q 883 2074 883 2374 
L 883 3910 
z
M 5722 3910 
L 5760 3910 
L 5805 3923 
L 5920 3872 
Q 5837 3654 5741 3424 
Q 5645 3194 5555 3034 
L 5395 3098 
Q 5485 3245 5571 3456 
Q 5658 3667 5722 3866 
L 5722 3910 
z
M 2637 1203 
L 2822 1203 
L 2822 70 
Q 2822 -32 2896 -67 
Q 2970 -102 3226 -102 
Q 3283 -102 3462 -102 
Q 3642 -102 3859 -102 
Q 4077 -102 4265 -102 
Q 4454 -102 4538 -102 
Q 4672 -102 4739 -60 
Q 4806 -19 4835 118 
Q 4864 256 4870 538 
Q 4915 512 4963 493 
Q 5011 474 5056 461 
Q 5043 160 4998 -3 
Q 4954 -166 4854 -227 
Q 4755 -288 4557 -288 
Q 4525 -288 4390 -288 
Q 4256 -288 4077 -288 
Q 3898 -288 3718 -288 
Q 3539 -288 3404 -288 
Q 3270 -288 3238 -288 
Q 3002 -288 2870 -262 
Q 2739 -237 2688 -160 
Q 2637 -83 2637 70 
L 2637 1203 
z
M 3155 1581 
L 3290 1702 
Q 3475 1600 3670 1469 
Q 3866 1338 4035 1206 
Q 4205 1075 4314 966 
L 4186 832 
Q 4077 941 3904 1075 
Q 3731 1210 3536 1344 
Q 3341 1478 3155 1581 
z
M 5005 1242 
L 5171 1325 
Q 5363 1139 5548 918 
Q 5734 698 5888 480 
Q 6042 262 6131 90 
L 5958 -13 
Q 5875 166 5724 384 
Q 5574 602 5385 829 
Q 5197 1056 5005 1242 
z
M 1933 1261 
L 2093 1190 
Q 1965 896 1782 550 
Q 1600 205 1357 -38 
L 1190 51 
Q 1357 205 1497 416 
Q 1638 627 1750 848 
Q 1862 1069 1933 1261 
z
" transform="scale(0.015625)"/>
     </defs>
     <use xlink:href="#NotoSansSC-Thin-20"/>
     <use xlink:href="#NotoSansSC-Thin-20" transform="translate(21.999985 0)"/>
     <use xlink:href="#NotoSansSC-Thin-7126" transform="translate(43.999969 0)"/>
     <use xlink:href="#NotoSansSC-Thin-8651" transform="translate(143.999954 0)"/>
    </g>
   </g>
   <g id="text_19">
    <g id="patch_10">
     <path d="M 25.8761 56.360653 
L 57.5961 56.360653 
Q 60.1961 56.360653 60.1961 53.760653 
L 60.1961 40.279247 
Q 60.1961 37.679247 57.5961 37.679247 
L 25.8761 37.679247 
Q 23.2761 37.679247 23.2761 40.279247 
L 23.2761 53.760653 
Q 23.2761 56.360653 25.8761 56.360653 
z
" style="fill: #ffffff; opacity: 0.85"/>
    </g>
    <!--   恐慌 -->
    <g style="fill: #dc2626" transform="translate(25.8761 50.602059) scale(0.13 -0.13)">
     <defs>
      <path id="NotoSansSC-Thin-6050" d="M 1971 1830 
L 2157 1830 
L 2157 77 
Q 2157 -58 2246 -99 
Q 2336 -141 2630 -141 
Q 2701 -141 2905 -141 
Q 3110 -141 3360 -141 
Q 3610 -141 3830 -141 
Q 4051 -141 4147 -141 
Q 4320 -141 4403 -80 
Q 4486 -19 4524 166 
Q 4563 352 4576 736 
Q 4602 717 4630 701 
Q 4659 685 4694 672 
Q 4730 659 4762 646 
Q 4742 256 4694 41 
Q 4646 -173 4521 -253 
Q 4397 -333 4154 -333 
Q 4115 -333 3961 -333 
Q 3808 -333 3600 -333 
Q 3392 -333 3187 -333 
Q 2982 -333 2832 -333 
Q 2682 -333 2650 -333 
Q 2387 -333 2236 -301 
Q 2086 -269 2028 -179 
Q 1971 -90 1971 83 
L 1971 1830 
z
M 2931 2003 
L 3072 2080 
Q 3264 1907 3449 1696 
Q 3635 1485 3788 1277 
Q 3942 1069 4026 902 
L 3878 813 
Q 3795 979 3641 1187 
Q 3488 1395 3305 1609 
Q 3123 1824 2931 2003 
z
M 3597 3994 
L 3738 4102 
Q 3923 3981 4102 3827 
Q 4282 3674 4432 3514 
Q 4582 3354 4666 3213 
L 4518 3091 
Q 4435 3232 4288 3392 
Q 4141 3552 3961 3712 
Q 3782 3872 3597 3994 
z
M 4851 1555 
L 4998 1626 
Q 5210 1389 5424 1104 
Q 5638 819 5824 550 
Q 6010 282 6118 77 
L 5958 -13 
Q 5850 192 5667 467 
Q 5485 742 5273 1027 
Q 5062 1312 4851 1555 
z
M 1082 1395 
L 1242 1331 
Q 1171 1094 1072 816 
Q 973 538 845 275 
Q 717 13 563 -186 
L 397 -102 
Q 557 90 685 352 
Q 813 614 915 889 
Q 1018 1165 1082 1395 
z
M 435 4845 
L 2701 4845 
L 2701 4653 
L 435 4653 
L 435 4845 
z
M 3270 4992 
L 5082 4992 
L 5082 4806 
L 3270 4806 
L 3270 4992 
z
M 1504 4787 
L 1696 4787 
L 1696 2778 
L 1504 2778 
L 1504 4787 
z
M 307 2560 
Q 614 2637 1011 2742 
Q 1408 2848 1853 2966 
Q 2298 3085 2746 3206 
L 2765 3040 
Q 2125 2861 1491 2681 
Q 858 2502 365 2374 
L 307 2560 
z
M 3168 4992 
L 3360 4992 
L 3360 4013 
Q 3360 3782 3325 3520 
Q 3290 3258 3171 2986 
Q 3053 2714 2813 2461 
Q 2573 2208 2163 1997 
Q 2144 2035 2112 2076 
Q 2080 2118 2048 2144 
Q 2432 2330 2659 2566 
Q 2886 2803 2995 3056 
Q 3104 3309 3136 3552 
Q 3168 3795 3168 4006 
L 3168 4992 
z
M 4960 4992 
L 5152 4992 
L 5152 2560 
Q 5152 2317 5203 2285 
Q 5254 2259 5357 2259 
Q 5408 2259 5491 2259 
Q 5574 2259 5638 2259 
Q 5696 2259 5757 2265 
Q 5818 2272 5843 2285 
Q 5869 2298 5894 2336 
Q 5920 2374 5926 2432 
Q 5939 2502 5948 2652 
Q 5958 2803 5958 3021 
Q 5997 2995 6038 2972 
Q 6080 2950 6125 2938 
Q 6118 2758 6108 2572 
Q 6099 2387 6080 2317 
Q 6042 2182 5933 2131 
Q 5888 2106 5814 2096 
Q 5741 2086 5664 2086 
Q 5619 2086 5500 2086 
Q 5382 2086 5344 2086 
Q 5267 2086 5193 2099 
Q 5120 2112 5062 2150 
Q 4998 2189 4979 2278 
Q 4960 2368 4960 2630 
L 4960 4992 
z
" transform="scale(0.015625)"/>
      <path id="NotoSansSC-Thin-614c" d="M 1984 4730 
L 6080 4730 
L 6080 4544 
L 1984 4544 
L 1984 4730 
z
M 3046 5318 
L 3238 5318 
L 3238 4077 
L 3046 4077 
L 3046 5318 
z
M 3872 1792 
L 4064 1792 
L 4064 -461 
L 3872 -461 
L 3872 1792 
z
M 4678 5318 
L 4870 5318 
L 4870 4077 
L 4678 4077 
L 4678 5318 
z
M 2067 3590 
L 6080 3590 
L 6080 3398 
L 2067 3398 
L 2067 3590 
z
M 2720 1824 
L 2906 1824 
L 2906 1274 
Q 2906 973 2845 662 
Q 2784 352 2576 64 
Q 2368 -224 1926 -474 
Q 1914 -448 1888 -422 
Q 1862 -397 1836 -374 
Q 1811 -352 1792 -339 
Q 2214 -109 2409 166 
Q 2605 442 2662 726 
Q 2720 1011 2720 1274 
L 2720 1824 
z
M 5069 1811 
L 5254 1811 
L 5254 6 
Q 5254 -90 5260 -144 
Q 5267 -198 5293 -218 
Q 5325 -243 5414 -243 
Q 5453 -243 5520 -243 
Q 5587 -243 5632 -243 
Q 5683 -243 5728 -236 
Q 5773 -230 5798 -218 
Q 5850 -186 5869 -77 
Q 5882 -6 5885 134 
Q 5888 275 5894 474 
Q 5926 448 5968 429 
Q 6010 410 6048 397 
Q 6042 230 6032 51 
Q 6022 -128 6010 -192 
Q 5971 -320 5882 -371 
Q 5850 -390 5786 -400 
Q 5722 -410 5664 -410 
Q 5626 -410 5526 -410 
Q 5427 -410 5395 -410 
Q 5331 -410 5267 -397 
Q 5203 -384 5152 -346 
Q 5101 -307 5085 -227 
Q 5069 -147 5069 77 
L 5069 1811 
z
M 1101 5318 
L 1286 5318 
L 1286 -435 
L 1101 -435 
L 1101 5318 
z
M 666 4115 
L 845 4083 
Q 826 3846 778 3545 
Q 730 3245 662 2953 
Q 595 2662 506 2438 
L 320 2496 
Q 410 2714 477 2995 
Q 544 3277 592 3571 
Q 640 3866 666 4115 
z
M 1466 4243 
L 1638 4294 
Q 1722 4096 1795 3865 
Q 1869 3635 1920 3424 
Q 1971 3213 1990 3059 
L 1798 2976 
Q 1773 3219 1677 3577 
Q 1581 3936 1466 4243 
z
M 2592 3494 
L 2778 3494 
L 2778 2342 
L 5805 2342 
L 5805 2150 
L 2592 2150 
L 2592 3494 
z
M 3590 4147 
L 3718 4256 
Q 3904 4096 4070 3901 
Q 4237 3706 4320 3558 
L 4173 3437 
Q 4090 3590 3923 3792 
Q 3757 3994 3590 4147 
z
" transform="scale(0.015625)"/>
     </defs>
     <use xlink:href="#NotoSansSC-Thin-20"/>
     <use xlink:href="#NotoSansSC-Thin-20" transform="translate(21.999985 0)"/>
     <use xlink:href="#NotoSansSC-Thin-6050" transform="translate(43.999969 0)"/>
     <use xlink:href="#NotoSansSC-Thin-614c" transform="translate(143.999954 0)"/>
    </g>
   </g>
   <g id="line2d_26">
    <path d="M 37.721818 77.275376 
L 75.688864 86.745478 
L 113.655909 63.678227 
L 227.557045 73.11148 
L 265.524091 69.721404 
L 303.491136 61.061973 
L 341.458182 71.305896 
" clip-path="url(#p4f5281cbf5)" style="fill: none; stroke: #1a56db; stroke-width: 2; stroke-linecap: square"/>
    <defs>
     <path id="mfa38f33ba9" d="M 0 2.5 
C 0.663008 2.5 1.29895 2.236584 1.767767 1.767767 
C 2.236584 1.29895 2.5 0.663008 2.5 0 
C 2.5 -0.663008 2.236584 -1.29895 1.767767 -1.767767 
C 1.29895 -2.236584 0.663008 -2.5 0 -2.5 
C -0.663008 -2.5 -1.29895 -2.236584 -1.767767 -1.767767 
C -2.236584 -1.29895 -2.5 -0.663008 -2.5 0 
C -2.5 0.663008 -2.236584 1.29895 -1.767767 1.767767 
C -1.29895 2.236584 -0.663008 2.5 0 2.5 
z
" style="stroke: #ffffff; stroke-width: 1.5"/>
    </defs>
    <g clip-path="url(#p4f5281cbf5)">
     <use xlink:href="#mfa38f33ba9" x="37.721818" y="77.275376" style="fill: #1a56db; stroke: #ffffff; stroke-width: 1.5"/>
     <use xlink:href="#mfa38f33ba9" x="75.688864" y="86.745478" style="fill: #1a56db; stroke: #ffffff; stroke-width: 1.5"/>
     <use xlink:href="#mfa38f33ba9" x="113.655909" y="63.678227" style="fill: #1a56db; stroke: #ffffff; stroke-width: 1.5"/>
     <use xlink:href="#mfa38f33ba9" x="227.557045" y="73.11148" style="fill: #1a56db; stroke: #ffffff; stroke-width: 1.5"/>
     <use xlink:href="#mfa38f33ba9" x="265.524091" y="69.721404" style="fill: #1a56db; stroke: #ffffff; stroke-width: 1.5"/>
     <use xlink:href="#mfa38f33ba9" x="303.491136" y="61.061973" style="fill: #1a56db; stroke: #ffffff; stroke-width: 1.5"/>
     <use xlink:href="#mfa38f33ba9" x="341.458182" y="71.305896" style="fill: #1a56db; stroke: #ffffff; stroke-width: 1.5"/>
    </g>
   </g>
   <g id="text_20">
    <g id="patch_11">
     <path d="M 346.458182 64.178552 
L 371.919744 64.178552 
Q 374.119744 64.178552 374.119744 61.978552 
L 374.119744 50.571209 
Q 374.119744 48.371209 371.919744 48.371209 
L 346.458182 48.371209 
Q 344.258182 48.371209 344.258182 50.571209 
L 344.258182 61.978552 
Q 344.258182 64.178552 346.458182 64.178552 
z
" style="fill: #ffffff; stroke: #1a56db; stroke-width: 0.8; stroke-linejoin: miter"/>
    </g>
    <!-- 19.44 -->
    <g style="fill: #1a56db" transform="translate(346.458182 59.305896) scale(0.11 -0.11)">
     <defs>
      <path id="NotoSansSC-Thin-2e" d="M 736 -83 
Q 640 -83 560 -9 
Q 480 64 480 192 
Q 480 333 560 406 
Q 640 480 736 480 
Q 838 480 918 406 
Q 998 333 998 192 
Q 998 64 918 -9 
Q 838 -83 736 -83 
z
" transform="scale(0.015625)"/>
     </defs>
     <use xlink:href="#NotoSansSC-Thin-31"/>
     <use xlink:href="#NotoSansSC-Thin-39" transform="translate(52.099991 0)"/>
     <use xlink:href="#NotoSansSC-Thin-2e" transform="translate(104.199982 0)"/>
     <use xlink:href="#NotoSansSC-Thin-34" transform="translate(127.299973 0)"/>
     <use xlink:href="#NotoSansSC-Thin-34" transform="translate(179.399963 0)"/>
    </g>
   </g>
   <g id="text_21">
    <!-- VIX 恐慌指数 · 近1周 -->
    <g style="fill: #1e293b" transform="translate(132.655625 16.72875) scale(0.12 -0.12)">
     <defs>
      <path id="NotoSansSC-Thin-56" d="M 1587 0 
L 45 4646 
L 294 4646 
L 1190 1869 
Q 1325 1440 1437 1085 
Q 1549 730 1696 301 
L 1722 301 
Q 1869 730 1981 1085 
Q 2093 1440 2234 1869 
L 3123 4646 
L 3366 4646 
L 1830 0 
L 1587 0 
z
" transform="scale(0.015625)"/>
      <path id="NotoSansSC-Thin-49" d="M 704 0 
L 704 4646 
L 941 4646 
L 941 0 
L 704 0 
z
" transform="scale(0.015625)"/>
      <path id="NotoSansSC-Thin-58" d="M 128 0 
L 1536 2406 
L 224 4646 
L 486 4646 
L 1286 3226 
Q 1382 3066 1465 2928 
Q 1549 2790 1670 2598 
L 1696 2598 
Q 1805 2790 1878 2928 
Q 1952 3066 2048 3226 
L 2861 4646 
L 3104 4646 
L 1792 2394 
L 3200 0 
L 2944 0 
L 2093 1485 
Q 1997 1651 1888 1830 
Q 1779 2010 1651 2221 
L 1626 2221 
Q 1510 2010 1411 1830 
Q 1312 1651 1216 1485 
L 371 0 
L 128 0 
z
" transform="scale(0.015625)"/>
      <path id="NotoSansSC-Thin-6307" d="M 2867 5274 
L 3053 5274 
L 3053 3373 
Q 3053 3226 3155 3174 
Q 3258 3123 3597 3123 
Q 3661 3123 3830 3123 
Q 4000 3123 4224 3123 
Q 4448 3123 4675 3123 
Q 4902 3123 5088 3123 
Q 5274 3123 5363 3123 
Q 5562 3123 5658 3187 
Q 5754 3251 5792 3440 
Q 5830 3629 5850 4000 
Q 5882 3974 5936 3955 
Q 5990 3936 6035 3923 
Q 6016 3526 5961 3312 
Q 5907 3098 5769 3018 
Q 5632 2938 5363 2938 
Q 5325 2938 5149 2938 
Q 4973 2938 4733 2938 
Q 4493 2938 4253 2938 
Q 4013 2938 3837 2938 
Q 3661 2938 3622 2938 
Q 3334 2938 3168 2970 
Q 3002 3002 2934 3098 
Q 2867 3194 2867 3379 
L 2867 5274 
z
M 5459 4832 
L 5626 4678 
Q 5299 4550 4857 4432 
Q 4416 4314 3933 4208 
Q 3450 4102 2995 4019 
Q 2989 4051 2966 4096 
Q 2944 4141 2918 4179 
Q 3366 4262 3846 4368 
Q 4326 4474 4752 4595 
Q 5178 4717 5459 4832 
z
M 2880 2234 
L 5792 2234 
L 5792 -416 
L 5600 -416 
L 5600 2048 
L 3066 2048 
L 3066 -442 
L 2880 -442 
L 2880 2234 
z
M 2970 1165 
L 5683 1165 
L 5683 979 
L 2970 979 
L 2970 1165 
z
M 2970 58 
L 5709 58 
L 5709 -128 
L 2970 -128 
L 2970 58 
z
M 262 1792 
Q 531 1875 880 1987 
Q 1229 2099 1625 2230 
Q 2022 2362 2419 2496 
L 2451 2310 
Q 1894 2125 1337 1933 
Q 781 1741 352 1600 
L 262 1792 
z
M 326 3936 
L 2368 3936 
L 2368 3744 
L 326 3744 
L 326 3936 
z
M 1318 5312 
L 1504 5312 
L 1504 -141 
Q 1504 -269 1462 -329 
Q 1421 -390 1331 -416 
Q 1242 -442 1069 -448 
Q 896 -454 595 -448 
Q 589 -416 563 -365 
Q 538 -314 518 -269 
Q 768 -275 953 -275 
Q 1139 -275 1197 -269 
Q 1261 -269 1289 -243 
Q 1318 -218 1318 -147 
L 1318 5312 
z
" transform="scale(0.015625)"/>
      <path id="NotoSansSC-Thin-6570" d="M 512 1990 
L 2970 1990 
L 2970 1798 
L 512 1798 
L 512 1990 
z
M 365 4064 
L 3386 4064 
L 3386 3878 
L 365 3878 
L 365 4064 
z
M 2957 5146 
L 3123 5050 
Q 3002 4826 2845 4586 
Q 2688 4346 2554 4173 
L 2419 4256 
Q 2509 4371 2608 4531 
Q 2707 4691 2800 4854 
Q 2893 5018 2957 5146 
z
M 1792 5318 
L 1984 5318 
L 1984 2611 
L 1792 2611 
L 1792 5318 
z
M 691 5043 
L 845 5101 
Q 992 4902 1117 4662 
Q 1242 4422 1286 4250 
L 1139 4179 
Q 1088 4352 960 4598 
Q 832 4845 691 5043 
z
M 1792 3987 
L 1946 3904 
Q 1798 3622 1561 3344 
Q 1325 3066 1046 2832 
Q 768 2598 486 2445 
Q 467 2490 428 2538 
Q 390 2586 358 2618 
Q 634 2746 909 2960 
Q 1184 3174 1417 3443 
Q 1651 3712 1792 3987 
z
M 1946 3866 
Q 2029 3814 2205 3696 
Q 2381 3578 2585 3443 
Q 2790 3309 2960 3190 
Q 3130 3072 3200 3021 
L 3072 2854 
Q 2995 2925 2832 3049 
Q 2669 3174 2473 3315 
Q 2278 3456 2105 3574 
Q 1933 3693 1830 3750 
L 1946 3866 
z
M 3962 4013 
L 5997 4013 
L 5997 3827 
L 3962 3827 
L 3962 4013 
z
M 4128 5222 
L 4314 5190 
Q 4218 4614 4083 4086 
Q 3949 3558 3766 3100 
Q 3584 2643 3354 2285 
Q 3341 2298 3309 2320 
Q 3277 2342 3241 2361 
Q 3206 2381 3181 2394 
Q 3424 2733 3603 3184 
Q 3782 3635 3913 4153 
Q 4045 4672 4128 5222 
z
M 5357 3936 
L 5549 3910 
Q 5382 2829 5084 2006 
Q 4787 1184 4291 579 
Q 3795 -26 3040 -454 
Q 3027 -435 3004 -406 
Q 2982 -378 2956 -349 
Q 2931 -320 2906 -301 
Q 3654 90 4140 678 
Q 4627 1267 4915 2076 
Q 5203 2886 5357 3936 
z
M 3994 3789 
Q 4147 2874 4425 2070 
Q 4704 1267 5133 668 
Q 5562 70 6150 -243 
Q 6112 -269 6073 -313 
Q 6035 -358 6010 -397 
Q 5414 -51 4985 563 
Q 4557 1178 4275 1997 
Q 3994 2816 3834 3757 
L 3994 3789 
z
M 896 1018 
L 1050 1152 
Q 1370 1037 1722 873 
Q 2074 710 2387 544 
Q 2701 378 2906 230 
L 2752 90 
Q 2554 237 2240 406 
Q 1926 576 1574 739 
Q 1222 902 896 1018 
z
M 2880 1990 
L 2918 1990 
L 2963 2003 
L 3066 1946 
Q 2874 1286 2474 825 
Q 2074 365 1552 80 
Q 1030 -205 467 -358 
Q 454 -320 422 -272 
Q 390 -224 358 -198 
Q 902 -64 1411 205 
Q 1920 474 2310 906 
Q 2701 1338 2880 1946 
L 2880 1990 
z
M 896 1018 
Q 1030 1210 1168 1453 
Q 1306 1696 1427 1952 
Q 1549 2208 1632 2438 
L 1811 2406 
Q 1722 2170 1597 1910 
Q 1472 1651 1341 1414 
Q 1210 1178 1094 1005 
L 896 1018 
z
" transform="scale(0.015625)"/>
      <path id="NotoSansSC-Thin-b7" d="M 3200 2976 
Q 3354 2976 3475 2902 
Q 3597 2829 3670 2707 
Q 3744 2586 3744 2432 
Q 3744 2285 3670 2160 
Q 3597 2035 3475 1961 
Q 3354 1888 3200 1888 
Q 3053 1888 2928 1961 
Q 2803 2035 2729 2160 
Q 2656 2285 2656 2432 
Q 2656 2586 2729 2707 
Q 2803 2829 2928 2902 
Q 3053 2976 3200 2976 
z
" transform="scale(0.015625)"/>
      <path id="NotoSansSC-Thin-8fd1" d="M 2829 3334 
L 6054 3334 
L 6054 3142 
L 2829 3142 
L 2829 3334 
z
M 4570 3226 
L 4755 3226 
L 4755 429 
L 4570 429 
L 4570 3226 
z
M 1574 2970 
L 1574 685 
L 1389 685 
L 1389 2778 
L 365 2778 
L 365 2970 
L 1574 2970 
z
M 2752 4922 
L 2944 4922 
L 2944 3494 
Q 2944 3155 2918 2764 
Q 2893 2374 2819 1968 
Q 2746 1562 2602 1171 
Q 2458 781 2221 442 
Q 2208 461 2179 483 
Q 2150 506 2121 525 
Q 2093 544 2074 557 
Q 2381 998 2525 1513 
Q 2669 2029 2710 2544 
Q 2752 3059 2752 3494 
L 2752 4922 
z
M 5645 5325 
L 5811 5178 
Q 5446 5075 4940 4995 
Q 4435 4915 3881 4857 
Q 3328 4800 2816 4762 
Q 2810 4794 2790 4842 
Q 2771 4890 2752 4922 
Q 3130 4954 3536 4992 
Q 3942 5030 4336 5084 
Q 4730 5139 5069 5200 
Q 5408 5261 5645 5325 
z
M 1485 749 
Q 1594 749 1680 688 
Q 1766 627 1878 528 
Q 1990 429 2163 307 
Q 2464 96 2854 38 
Q 3245 -19 3789 -19 
Q 4102 -19 4419 -12 
Q 4736 -6 5037 6 
Q 5338 19 5610 35 
Q 5882 51 6106 70 
Q 6093 45 6080 6 
Q 6067 -32 6060 -70 
Q 6054 -109 6048 -141 
Q 5875 -147 5587 -160 
Q 5299 -173 4963 -182 
Q 4627 -192 4313 -198 
Q 4000 -205 3789 -205 
Q 3206 -205 2793 -131 
Q 2381 -58 2061 166 
Q 1882 294 1738 435 
Q 1594 576 1485 576 
Q 1363 576 1209 470 
Q 1056 365 873 179 
Q 691 -6 480 -256 
L 339 -109 
Q 666 256 957 502 
Q 1248 749 1485 749 
z
M 646 5069 
L 794 5165 
Q 979 5005 1164 4816 
Q 1350 4627 1513 4441 
Q 1677 4256 1779 4115 
L 1626 4000 
Q 1530 4147 1366 4332 
Q 1203 4518 1017 4713 
Q 832 4909 646 5069 
z
" transform="scale(0.015625)"/>
      <path id="NotoSansSC-Thin-5468" d="M 1184 5005 
L 5370 5005 
L 5370 4819 
L 1184 4819 
L 1184 5005 
z
M 1766 3974 
L 4704 3974 
L 4704 3789 
L 1766 3789 
L 1766 3974 
z
M 1587 2938 
L 4896 2938 
L 4896 2746 
L 1587 2746 
L 1587 2938 
z
M 1082 5005 
L 1267 5005 
L 1267 3085 
Q 1267 2688 1238 2227 
Q 1210 1766 1126 1289 
Q 1043 813 873 358 
Q 704 -96 422 -493 
Q 403 -474 377 -448 
Q 352 -422 326 -400 
Q 301 -378 275 -365 
Q 550 19 710 457 
Q 870 896 950 1353 
Q 1030 1811 1056 2252 
Q 1082 2694 1082 3085 
L 1082 5005 
z
M 5299 5005 
L 5491 5005 
L 5491 -83 
Q 5491 -237 5436 -307 
Q 5382 -378 5261 -410 
Q 5146 -435 4893 -438 
Q 4640 -442 4192 -442 
Q 4186 -410 4160 -352 
Q 4134 -294 4109 -250 
Q 4358 -256 4569 -256 
Q 4781 -256 4928 -253 
Q 5075 -250 5133 -250 
Q 5222 -243 5260 -208 
Q 5299 -173 5299 -90 
L 5299 5005 
z
M 3104 4659 
L 3296 4659 
L 3296 2797 
L 3104 2797 
L 3104 4659 
z
M 2106 2035 
L 4480 2035 
L 4480 422 
L 2106 422 
L 2106 608 
L 4294 608 
L 4294 1843 
L 2106 1843 
L 2106 2035 
z
M 1984 2035 
L 2170 2035 
L 2170 58 
L 1984 58 
L 1984 2035 
z
" transform="scale(0.015625)"/>
     </defs>
     <use xlink:href="#NotoSansSC-Thin-56"/>
     <use xlink:href="#NotoSansSC-Thin-49" transform="translate(53.199997 0)"/>
     <use xlink:href="#NotoSansSC-Thin-58" transform="translate(78.899994 0)"/>
     <use xlink:href="#NotoSansSC-Thin-20" transform="translate(130.799988 0)"/>
     <use xlink:href="#NotoSansSC-Thin-6050" transform="translate(152.799973 0)"/>
     <use xlink:href="#NotoSansSC-Thin-614c" transform="translate(252.799957 0)"/>
     <use xlink:href="#NotoSansSC-Thin-6307" transform="translate(352.799942 0)"/>
     <use xlink:href="#NotoSansSC-Thin-6570" transform="translate(452.799927 0)"/>
     <use xlink:href="#NotoSansSC-Thin-20" transform="translate(552.799911 0)"/>
     <use xlink:href="#NotoSansSC-Thin-b7" transform="translate(574.799896 0)"/>
     <use xlink:href="#NotoSansSC-Thin-20" transform="translate(674.799881 0)"/>
     <use xlink:href="#NotoSansSC-Thin-8fd1" transform="translate(696.799866 0)"/>
     <use xlink:href="#NotoSansSC-Thin-31" transform="translate(796.79985 0)"/>
     <use xlink:href="#NotoSansSC-Thin-5468" transform="translate(848.899841 0)"/>
    </g>
   </g>
  </g>
  <g id="text_22">
   <!-- 备用数据 (近1月走势参考) -->
   <g style="fill: #94a3b8" transform="translate(150.568281 177.33675) scale(0.07 -0.07)">
    <defs>
     <path id="NotoSansSC-Thin-5907" d="M 2042 4730 
L 4838 4730 
L 4838 4544 
L 2042 4544 
L 2042 4730 
z
M 4787 4730 
L 4832 4730 
L 4877 4742 
L 4998 4646 
Q 4723 4269 4316 3942 
Q 3910 3616 3427 3344 
Q 2944 3072 2419 2857 
Q 1894 2643 1372 2489 
Q 851 2336 378 2240 
Q 371 2272 352 2310 
Q 333 2349 313 2381 
Q 294 2413 275 2432 
Q 742 2515 1257 2662 
Q 1773 2810 2288 3014 
Q 2803 3219 3276 3478 
Q 3750 3738 4140 4042 
Q 4531 4346 4787 4691 
L 4787 4730 
z
M 1990 4493 
Q 2374 3955 3011 3552 
Q 3648 3149 4454 2889 
Q 5261 2630 6138 2515 
Q 6118 2496 6092 2464 
Q 6067 2432 6048 2403 
Q 6029 2374 6016 2342 
Q 5152 2470 4339 2739 
Q 3526 3008 2870 3424 
Q 2214 3840 1811 4403 
L 1990 4493 
z
M 1229 2304 
L 5203 2304 
L 5203 -429 
L 5011 -429 
L 5011 2112 
L 1421 2112 
L 1421 -454 
L 1229 -454 
L 1229 2304 
z
M 1254 1171 
L 5158 1171 
L 5158 986 
L 1254 986 
L 1254 1171 
z
M 1254 -32 
L 5158 -32 
L 5158 -218 
L 1254 -218 
L 1254 -32 
z
M 3110 2170 
L 3302 2170 
L 3302 -141 
L 3110 -141 
L 3110 2170 
z
M 2419 5318 
L 2630 5280 
Q 2374 4813 1907 4320 
Q 1440 3827 749 3443 
Q 730 3469 704 3494 
Q 678 3520 652 3542 
Q 627 3565 602 3578 
Q 1056 3814 1411 4108 
Q 1766 4403 2019 4720 
Q 2272 5037 2419 5318 
z
" transform="scale(0.015625)"/>
     <path id="NotoSansSC-Thin-7528" d="M 1158 4845 
L 5510 4845 
L 5510 4653 
L 1158 4653 
L 1158 4845 
z
M 1158 3334 
L 5478 3334 
L 5478 3142 
L 1158 3142 
L 1158 3334 
z
M 1101 1786 
L 5478 1786 
L 5478 1600 
L 1101 1600 
L 1101 1786 
z
M 1056 4845 
L 1242 4845 
L 1242 2502 
Q 1242 2157 1213 1766 
Q 1184 1376 1101 979 
Q 1018 582 851 211 
Q 685 -160 403 -480 
Q 390 -454 364 -428 
Q 339 -403 313 -380 
Q 288 -358 262 -346 
Q 531 -38 691 317 
Q 851 672 928 1046 
Q 1005 1421 1030 1792 
Q 1056 2163 1056 2502 
L 1056 4845 
z
M 5395 4845 
L 5581 4845 
L 5581 -45 
Q 5581 -205 5526 -281 
Q 5472 -358 5344 -390 
Q 5222 -416 4944 -419 
Q 4666 -422 4192 -416 
Q 4186 -384 4160 -326 
Q 4134 -269 4109 -224 
Q 4378 -230 4608 -230 
Q 4838 -230 4998 -227 
Q 5158 -224 5222 -224 
Q 5318 -218 5356 -182 
Q 5395 -147 5395 -51 
L 5395 4845 
z
M 3104 4787 
L 3296 4787 
L 3296 -410 
L 3104 -410 
L 3104 4787 
z
" transform="scale(0.015625)"/>
     <path id="NotoSansSC-Thin-636e" d="M 2714 5011 
L 5843 5011 
L 5843 3558 
L 2714 3558 
L 2714 3744 
L 5651 3744 
L 5651 4826 
L 2714 4826 
L 2714 5011 
z
M 2618 5011 
L 2803 5011 
L 2803 3104 
Q 2803 2714 2777 2256 
Q 2752 1798 2675 1328 
Q 2598 858 2441 406 
Q 2285 -45 2022 -429 
Q 2003 -410 1974 -394 
Q 1946 -378 1914 -358 
Q 1882 -339 1856 -333 
Q 2118 51 2268 486 
Q 2419 922 2496 1379 
Q 2573 1837 2595 2278 
Q 2618 2720 2618 3104 
L 2618 5011 
z
M 2765 2714 
L 6106 2714 
L 6106 2522 
L 2765 2522 
L 2765 2714 
z
M 3187 64 
L 5702 64 
L 5702 -122 
L 3187 -122 
L 3187 64 
z
M 4352 3597 
L 4544 3597 
L 4544 1472 
L 4352 1472 
L 4352 3597 
z
M 3085 1549 
L 5856 1549 
L 5856 -422 
L 5664 -422 
L 5664 1363 
L 3277 1363 
L 3277 -461 
L 3085 -461 
L 3085 1549 
z
M 237 1760 
Q 602 1882 1126 2064 
Q 1651 2246 2195 2445 
L 2227 2253 
Q 1722 2074 1219 1891 
Q 717 1709 320 1562 
L 237 1760 
z
M 301 3949 
L 2227 3949 
L 2227 3757 
L 301 3757 
L 301 3949 
z
M 1229 5312 
L 1421 5312 
L 1421 -147 
Q 1421 -275 1376 -332 
Q 1331 -390 1242 -416 
Q 1158 -442 988 -448 
Q 819 -454 518 -448 
Q 512 -416 489 -365 
Q 467 -314 442 -269 
Q 685 -275 870 -275 
Q 1056 -275 1114 -269 
Q 1171 -269 1200 -243 
Q 1229 -218 1229 -147 
L 1229 5312 
z
" transform="scale(0.015625)"/>
     <path id="NotoSansSC-Thin-28" d="M 1562 -1222 
Q 1133 -525 883 252 
Q 634 1030 634 1958 
Q 634 2886 883 3667 
Q 1133 4448 1562 5146 
L 1696 5056 
Q 1274 4390 1059 3596 
Q 845 2803 845 1958 
Q 845 1114 1059 320 
Q 1274 -474 1696 -1139 
L 1562 -1222 
z
" transform="scale(0.015625)"/>
     <path id="NotoSansSC-Thin-6708" d="M 1523 4941 
L 4998 4941 
L 4998 4755 
L 1523 4755 
L 1523 4941 
z
M 1517 3386 
L 5024 3386 
L 5024 3200 
L 1517 3200 
L 1517 3386 
z
M 1446 1811 
L 5005 1811 
L 5005 1626 
L 1446 1626 
L 1446 1811 
z
M 1453 4941 
L 1638 4941 
L 1638 3110 
Q 1638 2694 1596 2230 
Q 1555 1766 1427 1289 
Q 1299 813 1046 365 
Q 794 -83 371 -461 
Q 358 -435 336 -409 
Q 314 -384 288 -358 
Q 262 -333 237 -320 
Q 646 51 889 480 
Q 1133 909 1254 1360 
Q 1376 1811 1414 2259 
Q 1453 2707 1453 3110 
L 1453 4941 
z
M 4934 4941 
L 5126 4941 
L 5126 -6 
Q 5126 -179 5065 -259 
Q 5005 -339 4864 -371 
Q 4723 -397 4409 -403 
Q 4096 -410 3565 -410 
Q 3558 -378 3542 -342 
Q 3526 -307 3510 -272 
Q 3494 -237 3475 -205 
Q 3782 -211 4041 -211 
Q 4301 -211 4483 -208 
Q 4666 -205 4736 -205 
Q 4851 -198 4892 -156 
Q 4934 -115 4934 -6 
L 4934 4941 
z
" transform="scale(0.015625)"/>
     <path id="NotoSansSC-Thin-8d70" d="M 3200 1709 
L 5523 1709 
L 5523 1517 
L 3200 1517 
L 3200 1709 
z
M 1555 1632 
Q 1747 1062 2044 707 
Q 2342 352 2739 160 
Q 3136 -32 3616 -102 
Q 4096 -173 4653 -173 
Q 4691 -173 4832 -173 
Q 4973 -173 5165 -173 
Q 5357 -173 5552 -173 
Q 5747 -173 5900 -173 
Q 6054 -173 6112 -173 
Q 6093 -198 6073 -236 
Q 6054 -275 6041 -310 
Q 6029 -346 6022 -371 
L 5722 -371 
L 4653 -371 
Q 4058 -371 3552 -294 
Q 3046 -218 2636 -13 
Q 2227 192 1916 566 
Q 1606 941 1402 1542 
L 1555 1632 
z
M 998 4467 
L 5491 4467 
L 5491 4282 
L 998 4282 
L 998 4467 
z
M 454 3136 
L 5933 3136 
L 5933 2950 
L 454 2950 
L 454 3136 
z
M 3091 5299 
L 3283 5299 
L 3283 3066 
L 3091 3066 
L 3091 5299 
z
M 3098 3110 
L 3290 3110 
L 3290 -102 
L 3098 -58 
L 3098 3110 
z
M 1555 2438 
L 1766 2413 
Q 1709 1894 1558 1350 
Q 1408 806 1139 329 
Q 870 -147 442 -474 
Q 429 -454 403 -432 
Q 378 -410 352 -384 
Q 326 -358 301 -346 
Q 723 -26 982 438 
Q 1242 902 1376 1427 
Q 1510 1952 1555 2438 
z
" transform="scale(0.015625)"/>
     <path id="NotoSansSC-Thin-52bf" d="M 371 3392 
Q 653 3450 1024 3520 
Q 1395 3590 1820 3680 
Q 2246 3770 2682 3859 
L 2694 3661 
Q 2093 3539 1494 3414 
Q 896 3290 442 3194 
L 371 3392 
z
M 454 4614 
L 2662 4614 
L 2662 4429 
L 454 4429 
L 454 4614 
z
M 1530 5318 
L 1722 5318 
L 1722 2554 
Q 1722 2445 1686 2393 
Q 1651 2342 1562 2317 
Q 1478 2291 1302 2284 
Q 1126 2278 819 2285 
Q 813 2317 790 2368 
Q 768 2419 742 2451 
Q 998 2445 1184 2445 
Q 1370 2445 1427 2451 
Q 1530 2451 1530 2547 
L 1530 5318 
z
M 2790 4627 
L 5197 4627 
L 5197 4442 
L 2790 4442 
L 2790 4627 
z
M 2848 3872 
L 2970 4000 
Q 3290 3821 3635 3593 
Q 3981 3366 4291 3148 
Q 4602 2931 4800 2758 
L 4678 2605 
Q 4480 2778 4173 3002 
Q 3866 3226 3517 3456 
Q 3168 3686 2848 3872 
z
M 5101 4627 
L 5293 4627 
Q 5286 3866 5305 3389 
Q 5325 2912 5414 2691 
Q 5504 2470 5696 2470 
Q 5805 2470 5843 2592 
Q 5882 2714 5901 3066 
Q 5946 3040 5990 3017 
Q 6035 2995 6080 2982 
Q 6067 2707 6022 2553 
Q 5978 2400 5898 2339 
Q 5818 2278 5690 2278 
Q 5466 2278 5341 2435 
Q 5216 2592 5165 2893 
Q 5114 3194 5107 3629 
Q 5101 4064 5101 4627 
z
M 3923 5318 
L 4109 5318 
Q 4090 4691 4026 4204 
Q 3962 3718 3814 3350 
Q 3667 2982 3398 2720 
Q 3130 2458 2694 2278 
Q 2675 2310 2633 2348 
Q 2592 2387 2560 2406 
Q 2982 2579 3244 2828 
Q 3507 3078 3648 3430 
Q 3789 3782 3846 4249 
Q 3904 4717 3923 5318 
z
M 640 1728 
L 5299 1728 
L 5299 1542 
L 640 1542 
L 640 1728 
z
M 5242 1728 
L 5440 1728 
Q 5440 1728 5437 1705 
Q 5434 1683 5434 1654 
Q 5434 1626 5427 1606 
Q 5363 1011 5299 636 
Q 5235 262 5161 64 
Q 5088 -134 4986 -224 
Q 4915 -288 4832 -310 
Q 4749 -333 4608 -339 
Q 4474 -346 4202 -336 
Q 3930 -326 3622 -301 
Q 3616 -256 3603 -205 
Q 3590 -154 3558 -115 
Q 3891 -141 4179 -150 
Q 4467 -160 4570 -160 
Q 4678 -160 4736 -150 
Q 4794 -141 4838 -102 
Q 4922 -32 4992 163 
Q 5062 358 5123 729 
Q 5184 1101 5242 1690 
L 5242 1728 
z
M 2899 2253 
L 3098 2253 
Q 3014 1754 2854 1331 
Q 2694 909 2400 566 
Q 2106 224 1632 -32 
Q 1158 -288 448 -442 
Q 435 -410 403 -358 
Q 371 -307 339 -282 
Q 896 -166 1302 16 
Q 1709 198 1987 432 
Q 2266 666 2448 950 
Q 2630 1235 2736 1561 
Q 2842 1888 2899 2253 
z
" transform="scale(0.015625)"/>
     <path id="NotoSansSC-Thin-53c2" d="M 3834 4966 
L 3974 5088 
Q 4282 4915 4595 4691 
Q 4909 4467 5181 4240 
Q 5453 4013 5619 3821 
L 5478 3680 
Q 5312 3872 5040 4102 
Q 4768 4333 4454 4560 
Q 4141 4787 3834 4966 
z
M 378 3232 
L 6029 3232 
L 6029 3040 
L 378 3040 
L 378 3232 
z
M 3603 2611 
L 3770 2528 
Q 3533 2323 3206 2134 
Q 2880 1946 2521 1789 
Q 2163 1632 1824 1517 
Q 1798 1549 1760 1593 
Q 1722 1638 1683 1664 
Q 2022 1766 2377 1913 
Q 2733 2061 3056 2240 
Q 3379 2419 3603 2611 
z
M 4211 1843 
L 4378 1760 
Q 4070 1504 3635 1283 
Q 3200 1062 2707 886 
Q 2214 710 1734 589 
Q 1709 621 1673 669 
Q 1638 717 1606 742 
Q 2080 851 2569 1017 
Q 3059 1184 3488 1395 
Q 3917 1606 4211 1843 
z
M 5062 1114 
L 5229 1018 
Q 4864 634 4262 342 
Q 3661 51 2915 -150 
Q 2170 -352 1357 -467 
Q 1338 -429 1312 -381 
Q 1286 -333 1254 -301 
Q 2067 -198 2800 -6 
Q 3533 186 4118 464 
Q 4704 742 5062 1114 
z
M 2867 4013 
L 3053 3968 
Q 2682 3072 2010 2438 
Q 1338 1805 506 1408 
Q 493 1427 467 1452 
Q 442 1478 410 1507 
Q 378 1536 352 1555 
Q 1197 1933 1856 2547 
Q 2515 3162 2867 4013 
z
M 4006 3200 
Q 4237 2874 4582 2570 
Q 4928 2266 5328 2022 
Q 5728 1779 6112 1638 
Q 6093 1619 6064 1590 
Q 6035 1562 6012 1533 
Q 5990 1504 5971 1478 
Q 5594 1638 5190 1894 
Q 4787 2150 4432 2467 
Q 4077 2784 3840 3117 
L 4006 3200 
z
M 1197 3891 
Q 1197 3917 1187 3958 
Q 1178 4000 1165 4041 
Q 1152 4083 1139 4109 
Q 1216 4115 1328 4163 
Q 1440 4211 1562 4288 
Q 1658 4346 1878 4499 
Q 2099 4653 2364 4864 
Q 2630 5075 2861 5299 
L 3046 5197 
Q 2630 4826 2214 4525 
Q 1798 4224 1395 4013 
L 1395 4006 
Q 1395 4006 1366 3996 
Q 1338 3987 1296 3971 
Q 1254 3955 1225 3936 
Q 1197 3917 1197 3891 
z
M 1197 3891 
L 1197 4045 
L 1395 4141 
L 5018 4314 
Q 5024 4275 5040 4224 
Q 5056 4173 5069 4141 
Q 4032 4090 3350 4054 
Q 2669 4019 2259 3993 
Q 1850 3968 1635 3952 
Q 1421 3936 1334 3923 
Q 1248 3910 1197 3891 
z
" transform="scale(0.015625)"/>
     <path id="NotoSansSC-Thin-8003" d="M 4787 1312 
L 4979 1312 
Q 4979 1312 4976 1289 
Q 4973 1267 4973 1238 
Q 4973 1210 4966 1190 
Q 4870 499 4771 176 
Q 4672 -147 4531 -269 
Q 4448 -333 4361 -352 
Q 4275 -371 4128 -378 
Q 3981 -378 3657 -368 
Q 3334 -358 2963 -333 
Q 2957 -288 2944 -237 
Q 2931 -186 2899 -141 
Q 3155 -166 3398 -179 
Q 3642 -192 3824 -195 
Q 4006 -198 4083 -198 
Q 4211 -198 4278 -188 
Q 4346 -179 4390 -147 
Q 4518 -51 4604 269 
Q 4691 589 4787 1280 
L 4787 1312 
z
M 2003 1312 
L 4858 1312 
L 4858 1126 
L 1958 1126 
L 2003 1312 
z
M 2355 2310 
L 5408 2310 
L 5408 2118 
L 2266 2118 
L 2355 2310 
z
M 467 3322 
L 5971 3322 
L 5971 3130 
L 467 3130 
L 467 3322 
z
M 1062 4467 
L 4512 4467 
L 4512 4282 
L 1062 4282 
L 1062 4467 
z
M 2829 5318 
L 3021 5318 
L 3021 3232 
L 2829 3232 
L 2829 5318 
z
M 5485 4979 
L 5645 4883 
Q 5158 4288 4563 3769 
Q 3968 3251 3296 2803 
Q 2624 2355 1904 1984 
Q 1184 1613 435 1318 
Q 422 1344 396 1373 
Q 371 1402 342 1434 
Q 314 1466 282 1485 
Q 1043 1766 1776 2131 
Q 2509 2496 3181 2941 
Q 3853 3386 4435 3898 
Q 5018 4410 5485 4979 
z
M 2304 2310 
L 2509 2310 
Q 2400 2010 2265 1680 
Q 2131 1350 2029 1126 
L 1824 1126 
Q 1946 1370 2074 1699 
Q 2202 2029 2304 2310 
z
" transform="scale(0.015625)"/>
     <path id="NotoSansSC-Thin-29" d="M 352 -1222 
L 211 -1139 
Q 634 -474 851 320 
Q 1069 1114 1069 1958 
Q 1069 2803 851 3596 
Q 634 4390 211 5056 
L 352 5146 
Q 787 4448 1033 3667 
Q 1280 2886 1280 1958 
Q 1280 1030 1033 252 
Q 787 -525 352 -1222 
z
" transform="scale(0.015625)"/>
    </defs>
    <use xlink:href="#NotoSansSC-Thin-5907"/>
    <use xlink:href="#NotoSansSC-Thin-7528" transform="translate(99.999985 0)"/>
    <use xlink:href="#NotoSansSC-Thin-6570" transform="translate(199.999969 0)"/>
    <use xlink:href="#NotoSansSC-Thin-636e" transform="translate(299.999954 0)"/>
    <use xlink:href="#NotoSansSC-Thin-20" transform="translate(399.999939 0)"/>
    <use xlink:href="#NotoSansSC-Thin-28" transform="translate(421.999924 0)"/>
    <use xlink:href="#NotoSansSC-Thin-8fd1" transform="translate(451.899918 0)"/>
    <use xlink:href="#NotoSansSC-Thin-31" transform="translate(551.899902 0)"/>
    <use xlink:href="#NotoSansSC-Thin-6708" transform="translate(603.999893 0)"/>
    <use xlink:href="#NotoSansSC-Thin-8d70" transform="translate(703.999878 0)"/>
    <use xlink:href="#NotoSansSC-Thin-52bf" transform="translate(803.999863 0)"/>
    <use xlink:href="#NotoSansSC-Thin-53c2" transform="translate(903.999847 0)"/>
    <use xlink:href="#NotoSansSC-Thin-8003" transform="translate(1003.999832 0)"/>
    <use xlink:href="#NotoSansSC-Thin-29" transform="translate(1103.999817 0)"/>
   </g>
  </g>
 </g>
 <defs>
  <clipPath id="p4f5281cbf5">
   <rect x="22.535" y="24.72875" width="334.11" height="123.84"/>
  </clipPath>
 </defs>
</svg>
