<svg xmlns="http://www.w3.org/2000/svg" viewBox="0 0 48 48">
  <defs>
    <filter id="sd" x="-20%" y="-20%" width="140%" height="140%">
      <feDropShadow dx="0.3" dy="0.6" stdDeviation="0.8" flood-color="#05162E" flood-opacity="0.35"/>
    </filter>
  </defs>
  <g fill="none" stroke-linecap="round" stroke-linejoin="round" filter="url(#sd)">
    <g stroke="#05162E" opacity="0.30" transform="translate(1.2,1.5)">
      <path d="M8.5 12.5 Q13.5 10.5 21 12.5" stroke-width="3.4"/>
      <path d="M14.5 12 Q15 27 13.5 37.5 Q13 39.5 9.5 38.5" stroke-width="3.8"/>
      <path d="M9 28.5 Q14 22 21 18" stroke-width="3"/>
      <path d="M22.5 12 L28 11.5 Q28.5 16 25 20 L37 19 Q37 24 33 30 Q28 36 22 34.5" stroke-width="3.2"/>
      <path d="M28 12.5 Q25 20 21.5 31" stroke-width="2.6"/>
      <path d="M35 12.5 Q32 21 28 29.5" stroke-width="2.2"/>
    </g>
    <g stroke="#0A2342">
      <path d="M8.5 12.5 Q13.5 10.5 21 12.5" stroke-width="3.4"/>
      <path d="M14.5 12 Q15 27 13.5 37.5 Q13 39.5 9.5 38.5" stroke-width="3.8"/>
      <path d="M9 28.5 Q14 22 21 18" stroke-width="3"/>
      <path d="M22.5 12 L28 11.5 Q28.5 16 25 20 L37 19 Q37 24 33 30 Q28 36 22 34.5" stroke-width="3.2"/>
      <path d="M28 12.5 Q25 20 21.5 31" stroke-width="2.6"/>
      <path d="M35 12.5 Q32 21 28 29.5" stroke-width="2.2"/>
    </g>
    <g stroke="#F5F0E8" opacity="0.12" transform="translate(-0.3,-0.3)">
      <path d="M8.5 12.5 Q13.5 10.5 21 12.5" stroke-width="1.2"/>
      <path d="M14.5 12 Q15 20 14.5 25" stroke-width="1"/>
    </g>
  </g>
  <circle cx="39.5" cy="13" r="2" fill="#C8963E" opacity="0.9"/>
  <circle cx="39.5" cy="13" r="3.5" fill="#C8963E" opacity="0.2"/>
</svg>
