<?xml version="1.0" encoding="UTF-8"?>
<svg xmlns="http://www.w3.org/2000/svg" viewBox="0 0 300 220">
  <rect width="300" height="220" fill="#FAFAFA"/>
  <!-- Mountain peak -->
  <polyline points="15,185 40,155 60,160 85,130 105,135 130,100 150,108 175,80 195,88 220,55 240,65 265,40" fill="none" stroke="#1E293B" stroke-width="2.8"/>
  <!-- Flag at peak -->
  <line x1="265" y1="40" x2="265" y2="25" stroke="#1E293B" stroke-width="2"/>
  <polygon points="265,25 280,30 265,35" fill="#D4A017"/>
  <!-- "50000" on flag -->
  <text x="272" y="28" font-family="'Noto Sans SC',sans-serif" font-size="7" font-weight="700" fill="#D4A017">50000</text>
  <!-- Previous peak silhouette -->
  <polyline points="20,190 30,175 45,178 55,160 70,165 80,145" fill="none" stroke="#CBD5E1" stroke-width="1.5"/>
  <text x="50" y="145" text-anchor="middle" font-family="'Noto Sans SC',sans-serif" font-size="6" fill="#94A3B8">40000</text>
  <!-- Annotation -->
  <text x="265" y="15" text-anchor="middle" font-family="'Noto Sans SC',sans-serif" font-size="9" font-weight="700" fill="#16A34A">历史新高</text>
  <!-- Dow indicator -->
  <line x1="10" y1="200" x2="290" y2="200" stroke="#E2E8F0" stroke-width="0.8"/>
  <text x="150" y="212" text-anchor="middle" font-family="'Noto Sans SC',sans-serif" font-size="10" font-weight="700" fill="#1E293B">道琼斯 50,285.66</text>
  <text x="150" y="195" text-anchor="end" font-family="'Noto Sans SC',sans-serif" font-size="7" fill="#64748B">+0.55%</text>
</svg>
