<?xml version="1.0" encoding="UTF-8"?>
<svg xmlns="http://www.w3.org/2000/svg" viewBox="0 0 300 220">
<defs>
    <!-- 主投影滤镜 -->
    <filter id="drop-shadow" x="-10%" y="-10%" width="130%" height="130%">
      <feDropShadow dx="0" dy="2" stdDeviation="3" flood-color="#1E293B" flood-opacity="0.12"/>
    </filter>
    <!-- 柔和投影 -->
    <filter id="soft-shadow" x="-20%" y="-20%" width="140%" height="140%">
      <feDropShadow dx="0" dy="1" stdDeviation="2" flood-color="#1E293B" flood-opacity="0.08"/>
    </filter>
    <!-- 品牌蓝色渐变 -->
    <linearGradient id="brand-blue" x1="0%" y1="0%" x2="100%" y2="100%">
      <stop offset="0%" stop-color="#1A56DB"/>
      <stop offset="100%" stop-color="#1E3A7A"/>
    </linearGradient>
    <!-- 品牌金色渐变 -->
    <linearGradient id="brand-gold" x1="0%" y1="0%" x2="100%" y2="0%">
      <stop offset="0%" stop-color="#D4A017"/>
      <stop offset="100%" stop-color="#B8860B"/>
    </linearGradient>
    <!-- 对话框渐变 -->
    <linearGradient id="bubble-bg" x1="0%" y1="0%" x2="0%" y2="100%">
      <stop offset="0%" stop-color="#FFFFFF"/>
      <stop offset="100%" stop-color="#F8F9FA"/>
    </linearGradient>
    <!-- 高光渐变 -->
    <linearGradient id="brand-glow" x1="0%" y1="0%" x2="100%" y2="100%">
      <stop offset="0%" stop-color="rgba(26,86,219,0.15)"/>
      <stop offset="100%" stop-color="rgba(26,86,219,0.02)"/>
    </linearGradient>
    <!-- 背景网格图案 -->
    <pattern id="dot-grid" width="12" height="12" patternUnits="userSpaceOnUse">
      <circle cx="1" cy="1" r="0.5" fill="#E2E8F0" opacity="0.3"/>
    </pattern>
  </defs>

  <rect width="300" height="220" fill="#FAFAFA"/>
  <!-- Balance scale -->
  <line x1="150" y1="85" x2="150" y2="170" stroke="#1E293B" stroke-width="3"/>
  <line x1="75" y1="55" x2="225" y2="55" stroke="#1E293B" stroke-width="2.5"/>
  <!-- Left pan: slightly lighter -->
  <path d="M60,55 Q45,70 60,85 Q75,70 60,55" fill="none" stroke="#D4A017" stroke-width="2"/>
  <rect x="52" y="64" width="6" height="10" fill="#D4A017" stroke="none"/>
  <text x="52" y="46" text-anchor="middle" font-family="'Noto Sans SC',sans-serif" font-size="7" fill="#D4A017">避险退</text>
  <!-- Right pan: price still heavy -->
  <path d="M240,55 Q255,70 240,85 Q225,70 240,55" fill="none" stroke="#1E293B" stroke-width="2"/>
  <text x="240" y="72" text-anchor="middle" font-family="'Noto Sans SC',sans-serif" font-size="11" font-weight="800" fill="#1E293B">$4542</text>
  <!-- Price chart mini -->
  <polyline points="20,175 40,168 60,175 80,162 100,170 120,158 140,166 160,152 180,160 200,148 220,155 240,142 260,150 280,138" fill="none" stroke="#D4A017" stroke-width="2"/>
  <!-- Annotations -->
  <text x="150" y="110" text-anchor="middle" font-family="'Noto Sans SC',sans-serif" font-size="7" fill="#16A34A">震荡下行</text>
  <line x1="150" y1="113" x2="150" y2="120" stroke="#16A34A" stroke-width="0.5"/>
  <!-- China prices -->
  <text x="230" y="200" text-anchor="middle" font-family="'Noto Sans SC',sans-serif" font-size="8" font-weight="700" fill="#1E293B">国内 ¥985-998</text>
  <text x="230" y="212" text-anchor="middle" font-family="'Noto Sans SC',sans-serif" font-size="7" fill="#64748B">上海金交所 / 克</text>
</svg>
