<?xml version="1.0" encoding="UTF-8"?>
<svg xmlns="http://www.w3.org/2000/svg" viewBox="0 0 300 220">
  <rect width="300" height="220" fill="#FAFAFA"/>
  <!-- Storm cloud -->
  <ellipse cx="150" cy="55" rx="80" ry="30" fill="none" stroke="#1E293B" stroke-width="2.5"/>
  <ellipse cx="120" cy="45" rx="40" ry="22" fill="none" stroke="#1E293B" stroke-width="2"/>
  <ellipse cx="180" cy="48" rx="35" ry="20" fill="none" stroke="#1E293B" stroke-width="2"/>
  <!-- Lightning bolts -->
  <polyline points="130,70 125,90 140,90 130,120" fill="none" stroke="#D4A017" stroke-width="2.5" stroke-linejoin="round"/>
  <polyline points="170,75 165,92 180,92 170,115" fill="none" stroke="#D4A017" stroke-width="2" stroke-linejoin="round"/>
  <!-- Fed building silhouette -->
  <rect x="60" y="110" width="70" height="55" fill="none" stroke="#1E293B" stroke-width="2.2"/>
  <rect x="70" y="115" width="12" height="15" fill="none" stroke="#94A3B8" stroke-width="1"/>
  <rect x="88" y="115" width="12" height="15" fill="none" stroke="#94A3B8" stroke-width="1"/>
  <rect x="106" y="115" width="12" height="15" fill="none" stroke="#94A3B8" stroke-width="1"/>
  <text x="95" y="180" text-anchor="middle" font-family="'Noto Sans SC',sans-serif" font-size="9" font-weight="700" fill="#1E293B">美联储</text>
  <!-- Bond yields -->
  <rect x="170" y="120" width="90" height="35" fill="none" stroke="#D4A017" stroke-width="2"/>
  <text x="215" y="137" text-anchor="middle" font-family="'Noto Sans SC',sans-serif" font-size="8" font-weight="700" fill="#B8860B">10Y</text>
  <text x="215" y="148" text-anchor="middle" font-family="'Noto Sans SC',sans-serif" font-size="8" fill="#1E293B">&gt; 4.57%</text>
  <!-- Labels -->
  <text x="215" y="180" text-anchor="middle" font-family="'Noto Sans SC',sans-serif" font-size="9" font-weight="700" fill="#DC2626">沃什今晚就职</text>
  <text x="215" y="195" text-anchor="middle" font-family="'Noto Sans SC',sans-serif" font-size="7" fill="#64748B">12月加息概率42%</text>
</svg>
