<?xml version="1.0" encoding="utf-8" standalone="no"?>
<!DOCTYPE svg PUBLIC "-//W3C//DTD SVG 1.1//EN"
  "http://www.w3.org/Graphics/SVG/1.1/DTD/svg11.dtd">
<svg xmlns:xlink="http://www.w3.org/1999/xlink" width="488.4pt" height="237.437844pt" viewBox="0 0 488.4 237.437844" xmlns="http://www.w3.org/2000/svg" version="1.1">
 <metadata>
  <rdf:RDF xmlns:dc="http://purl.org/dc/elements/1.1/" xmlns:cc="http://creativecommons.org/ns#" xmlns:rdf="http://www.w3.org/1999/02/22-rdf-syntax-ns#">
   <cc:Work>
    <dc:type rdf:resource="http://purl.org/dc/dcmitype/StillImage"/>
    <dc:date>2026-06-12T20:41:30.874077</dc:date>
    <dc:format>image/svg+xml</dc:format>
    <dc:creator>
     <cc:Agent>
      <dc:title>Matplotlib v3.10.9, https://matplotlib.org/</dc:title>
     </cc:Agent>
    </dc:creator>
   </cc:Work>
  </rdf:RDF>
 </metadata>
 <defs>
  <style type="text/css">*{stroke-linejoin: round; stroke-linecap: butt}</style>
 </defs>
 <g id="figure_1">
  <g id="patch_1">
   <path d="M 0 237.437844 
L 488.4 237.437844 
L 488.4 0 
L 0 0 
z
" style="fill: #ffffff"/>
  </g>
  <g id="axes_1">
   <g id="patch_2">
    <path d="M 30.9 159.588564 
L 196.8 159.588564 
Q 197.748 159.588564 197.748 158.633844 
L 197.748 15.425844 
Q 197.748 14.471124 196.8 14.471124 
L 30.9 14.471124 
Q 29.952 14.471124 29.952 15.425844 
L 29.952 158.633844 
Q 29.952 159.588564 30.9 159.588564 
z
" clip-path="url(#p2183155b89)" style="fill: #dc2626; opacity: 0.15; stroke: #dc2626; stroke-width: 2; stroke-linejoin: miter"/>
   </g>
   <g id="patch_3">
    <path d="M 125.7 183.456564 
L 291.6 183.456564 
Q 292.548 183.456564 292.548 182.501844 
L 292.548 15.425844 
Q 292.548 14.471124 291.6 14.471124 
L 125.7 14.471124 
Q 124.752 14.471124 124.752 15.425844 
L 124.752 182.501844 
Q 124.752 183.456564 125.7 183.456564 
z
" clip-path="url(#p2183155b89)" style="fill: #d97706; opacity: 0.15; stroke: #d97706; stroke-width: 2; stroke-linejoin: miter"/>
   </g>
   <g id="patch_4">
    <path d="M 220.5 207.324564 
L 386.4 207.324564 
Q 387.348 207.324564 387.348 206.369844 
L 387.348 15.425844 
Q 387.348 14.471124 386.4 14.471124 
L 220.5 14.471124 
Q 219.552 14.471124 219.552 15.425844 
L 219.552 206.369844 
Q 219.552 207.324564 220.5 207.324564 
z
" clip-path="url(#p2183155b89)" style="fill: #2563eb; opacity: 0.15; stroke: #2563eb; stroke-width: 2; stroke-linejoin: miter"/>
   </g>
   <g id="patch_5">
    <path d="M 315.3 183.456564 
L 481.2 183.456564 
Q 482.148 183.456564 482.148 182.501844 
L 482.148 15.425844 
Q 482.148 14.471124 481.2 14.471124 
L 315.3 14.471124 
Q 314.352 14.471124 314.352 15.425844 
L 314.352 182.501844 
Q 314.352 183.456564 315.3 183.456564 
z
" clip-path="url(#p2183155b89)" style="fill: #7c3aed; opacity: 0.15; stroke: #7c3aed; stroke-width: 2; stroke-linejoin: miter"/>
   </g>
   <g id="text_1">
    <!-- GPU功耗↑ -->
    <g style="fill: #dc2626" transform="translate(88.006875 90.059141) scale(0.11 -0.11)">
     <defs>
      <path id="MicrosoftYaHei-Bold-47" d="M 4494 325 
Q 3784 -84 2750 -84 
Q 1594 -84 925 566 
Q 256 1216 256 2344 
Q 256 3488 992 4205 
Q 1728 4922 2931 4922 
Q 3706 4922 4284 4703 
L 4284 3725 
Q 3722 4053 2909 4053 
Q 2209 4053 1775 3597 
Q 1341 3141 1341 2394 
Q 1341 1634 1733 1209 
Q 2125 784 2803 784 
Q 3206 784 3463 909 
L 3463 1903 
L 2484 1903 
L 2484 2731 
L 4494 2731 
L 4494 325 
z
" transform="scale(0.015625)"/>
      <path id="MicrosoftYaHei-Bold-50" d="M 1591 1688 
L 1591 0 
L 559 0 
L 559 4841 
L 2225 4841 
Q 4031 4841 4031 3309 
Q 4031 2566 3486 2117 
Q 2941 1669 2122 1688 
L 1591 1688 
z
M 1591 4041 
L 1591 2478 
L 2038 2478 
Q 2947 2478 2947 3269 
Q 2947 4041 2047 4041 
L 1591 4041 
z
" transform="scale(0.015625)"/>
      <path id="MicrosoftYaHei-Bold-55" d="M 4466 2081 
Q 4466 -84 2453 -84 
Q 509 -84 509 2025 
L 509 4841 
L 1544 4841 
L 1544 2019 
Q 1544 809 2497 809 
Q 3434 809 3434 1975 
L 3434 4841 
L 4466 4841 
L 4466 2081 
z
" transform="scale(0.015625)"/>
      <path id="MicrosoftYaHei-Bold-529f" d="M 4038 -753 
Q 3925 -191 3813 184 
Q 4253 166 4625 166 
Q 5056 166 5095 556 
Q 5134 947 5163 3441 
L 4181 3441 
Q 4141 1638 3672 658 
Q 3203 -322 2450 -884 
Q 2119 -534 1756 -203 
Q 3350 803 3353 3441 
L 2650 3441 
L 2650 4266 
L 3375 4266 
Q 3384 4750 3381 5322 
L 4213 5322 
L 4200 4266 
L 6038 4266 
L 5969 713 
Q 5950 72 5887 -129 
Q 5825 -331 5664 -478 
Q 5503 -625 5264 -684 
Q 5025 -744 4038 -753 
z
M 306 41 
L 94 972 
L 950 1194 
L 950 3916 
L 169 3916 
L 169 4772 
L 2525 4772 
L 2525 3916 
L 1806 3916 
L 1806 1428 
L 2650 1672 
Q 2634 1444 2634 1234 
Q 2634 984 2656 759 
Q 1369 397 306 41 
z
" transform="scale(0.015625)"/>
      <path id="MicrosoftYaHei-Bold-8017" d="M 100 2428 
L 1125 2428 
L 1125 2816 
L 275 2816 
L 275 3516 
L 1125 3516 
L 1125 3903 
L 175 3903 
L 175 4603 
L 1125 4603 
L 1125 5297 
L 1931 5297 
L 1931 4603 
L 2625 4603 
L 2625 3903 
L 1931 3903 
L 1931 3516 
L 2538 3516 
L 2538 2816 
L 1931 2816 
L 1931 2428 
L 2713 2428 
L 2713 1822 
L 3706 1897 
L 3706 2606 
L 2819 2541 
L 2775 3322 
L 3706 3394 
L 3706 4103 
Q 3334 4066 2944 4034 
Q 2869 4409 2706 4822 
Q 4169 4891 5800 5141 
L 6044 4391 
Q 5353 4284 4550 4191 
L 4550 3459 
L 5906 3566 
L 5950 2778 
L 4550 2672 
L 4550 1963 
L 6169 2091 
L 6206 1309 
L 4550 1181 
L 4550 322 
Q 4550 34 4844 34 
L 5050 34 
Q 5228 34 5336 153 
Q 5444 272 5488 1116 
Q 6006 897 6325 809 
Q 6200 -281 5884 -492 
Q 5569 -703 5119 -703 
L 4519 -703 
Q 3706 -703 3706 128 
L 3706 1119 
L 2675 1041 
L 2641 1728 
L 1931 1728 
L 1931 1172 
L 2213 1428 
Q 2663 1028 3025 684 
L 2469 147 
Q 2275 381 1931 725 
L 1931 -828 
L 1125 -828 
L 1125 713 
Q 816 103 369 -441 
L 81 491 
Q 634 1066 991 1728 
L 100 1728 
L 100 2428 
z
" transform="scale(0.015625)"/>
      <path id="MicrosoftYaHei-Bold-2191" d="M 478 3922 
Q 900 4303 1120 4576 
Q 1341 4850 1531 5213 
L 1672 5213 
Q 1863 4850 2080 4579 
Q 2297 4309 2725 3922 
L 2725 3684 
Q 2422 3828 2261 3928 
Q 2100 4028 1875 4203 
L 1875 -313 
L 1328 -313 
L 1328 4203 
Q 1113 4034 945 3931 
Q 778 3828 478 3684 
L 478 3922 
z
" transform="scale(0.015625)"/>
     </defs>
     <use xlink:href="#MicrosoftYaHei-Bold-47"/>
     <use xlink:href="#MicrosoftYaHei-Bold-50" transform="translate(76.513672 0)"/>
     <use xlink:href="#MicrosoftYaHei-Bold-55" transform="translate(142.236328 0)"/>
     <use xlink:href="#MicrosoftYaHei-Bold-529f" transform="translate(219.873047 0)"/>
     <use xlink:href="#MicrosoftYaHei-Bold-8017" transform="translate(319.873047 0)"/>
     <use xlink:href="#MicrosoftYaHei-Bold-2191" transform="translate(419.873047 0)"/>
    </g>
   </g>
   <g id="text_2">
    <!-- 电流需求↑ -->
    <g style="fill: #d97706" transform="translate(183.9 101.993141) scale(0.11 -0.11)">
     <defs>
      <path id="MicrosoftYaHei-Bold-7535" d="M 5563 4522 
L 5563 1125 
Q 5866 997 6300 878 
Q 6131 -222 5828 -447 
Q 5525 -672 5025 -672 
L 3525 -672 
Q 2506 -672 2506 253 
L 2506 878 
L 1281 878 
L 1281 391 
L 381 391 
L 381 4522 
L 2506 4522 
L 2506 5291 
L 3413 5291 
L 3413 4522 
L 5563 4522 
z
M 4663 3734 
L 3413 3734 
L 3413 3097 
L 4663 3097 
L 4663 3734 
z
M 1281 3734 
L 1281 3097 
L 2506 3097 
L 2506 3734 
L 1281 3734 
z
M 4663 1666 
L 4663 2309 
L 3413 2309 
L 3413 1666 
L 4663 1666 
z
M 1281 1666 
L 2506 1666 
L 2506 2309 
L 1281 2309 
L 1281 1666 
z
M 3794 103 
L 4731 103 
Q 4963 103 5097 183 
Q 5231 263 5270 402 
Q 5309 541 5366 878 
L 3413 878 
L 3413 434 
Q 3413 103 3794 103 
z
" transform="scale(0.015625)"/>
      <path id="MicrosoftYaHei-Bold-6d41" d="M 1775 4666 
L 3359 4666 
Q 3256 4906 3131 5172 
L 4063 5341 
Q 4228 5003 4375 4666 
L 6038 4666 
L 6038 3928 
L 3925 3928 
Q 3528 3463 3088 3016 
L 4728 3088 
Q 4572 3278 4419 3453 
L 5094 3884 
Q 5756 3153 6275 2528 
L 5550 2022 
L 5266 2403 
Q 2725 2313 2006 2216 
L 1744 2909 
Q 2163 3056 2825 3928 
L 1775 3928 
L 1775 4666 
z
M 700 5253 
Q 1188 4909 1725 4447 
L 1163 3809 
Q 619 4347 181 4697 
L 700 5253 
z
M 631 3591 
Q 1206 3178 1656 2784 
L 1069 2134 
Q 669 2528 88 3003 
L 631 3591 
z
M 5694 1253 
Q 6000 1128 6306 1022 
Q 6241 141 6189 -156 
Q 6138 -453 5945 -618 
Q 5753 -784 5419 -784 
L 5194 -784 
Q 4475 -784 4475 -3 
L 4475 2103 
L 5281 2103 
L 5281 103 
Q 5281 -84 5406 -84 
L 5450 -84 
Q 5578 -84 5614 100 
Q 5650 284 5694 1253 
z
M 3000 2084 
L 3000 1422 
Q 3000 -128 2000 -859 
Q 1738 -591 1375 -284 
Q 2194 322 2194 1597 
L 2194 2084 
L 3000 2084 
z
M 3319 2084 
L 4125 2084 
L 4125 -709 
L 3319 -709 
L 3319 2084 
z
M 813 1916 
Q 1219 1728 1631 1591 
L 969 -803 
Q 519 -634 119 -509 
Q 481 528 813 1916 
z
" transform="scale(0.015625)"/>
      <path id="MicrosoftYaHei-Bold-9700" d="M 313 4253 
L 2819 4253 
L 2819 4516 
L 588 4516 
L 588 5109 
L 5813 5109 
L 5813 4516 
L 3581 4516 
L 3581 4253 
L 6088 4253 
L 6088 2966 
L 5400 2966 
L 5400 3678 
L 3581 3678 
L 3581 2316 
L 2819 2316 
L 2819 3678 
L 1000 3678 
L 1000 2966 
L 313 2966 
L 313 4253 
z
M 1163 3434 
L 2538 3434 
L 2538 3047 
L 1163 3047 
L 1163 3434 
z
M 3875 3434 
L 5238 3434 
L 5238 3047 
L 3875 3047 
L 3875 3434 
z
M 913 2797 
L 2538 2797 
L 2538 2403 
L 913 2403 
L 913 2797 
z
M 3875 2797 
L 5488 2797 
L 5488 2403 
L 3875 2403 
L 3875 2797 
z
M 1444 -797 
L 669 -797 
L 669 1191 
L 2466 1191 
L 2581 1553 
L 175 1553 
L 175 2141 
L 6225 2141 
L 6225 1553 
L 3322 1553 
L 3203 1191 
L 5750 1191 
L 5750 -134 
Q 5750 -834 5063 -834 
L 4438 -834 
Q 4394 -459 4331 -109 
Q 4569 -122 4763 -122 
Q 4981 -122 4981 141 
L 4981 616 
L 4306 616 
L 4306 -647 
L 3550 -647 
L 3550 616 
L 2875 616 
L 2875 -647 
L 2119 -647 
L 2119 616 
L 1444 616 
L 1444 -797 
z
" transform="scale(0.015625)"/>
      <path id="MicrosoftYaHei-Bold-6c42" d="M 6119 2716 
L 4691 1650 
Q 5353 1041 6306 722 
Q 6050 316 5788 -178 
Q 4369 459 3600 1766 
L 3600 309 
Q 3600 -191 3372 -461 
Q 3144 -731 2651 -764 
Q 2159 -797 1700 -797 
Q 1606 -297 1475 159 
Q 1900 134 2206 134 
Q 2725 134 2725 641 
L 2725 1216 
Q 1434 544 506 9 
L 94 834 
Q 1531 1438 2725 2081 
L 2725 3516 
L 200 3516 
L 200 4291 
L 2725 4291 
L 2725 5328 
L 3600 5328 
L 3600 4291 
L 4950 4291 
Q 4581 4578 4169 4847 
L 4719 5347 
Q 5175 5066 5656 4703 
L 5203 4291 
L 6213 4291 
L 6213 3516 
L 3600 3516 
L 3600 3294 
Q 3828 2694 4178 2219 
Q 4894 2763 5506 3359 
L 6119 2716 
z
M 1044 3303 
Q 1681 2841 2263 2341 
L 1688 1759 
Q 1144 2253 513 2753 
L 1044 3303 
z
" transform="scale(0.015625)"/>
     </defs>
     <use xlink:href="#MicrosoftYaHei-Bold-7535"/>
     <use xlink:href="#MicrosoftYaHei-Bold-6d41" transform="translate(100 0)"/>
     <use xlink:href="#MicrosoftYaHei-Bold-9700" transform="translate(200 0)"/>
     <use xlink:href="#MicrosoftYaHei-Bold-6c42" transform="translate(300 0)"/>
     <use xlink:href="#MicrosoftYaHei-Bold-2191" transform="translate(400 0)"/>
    </g>
   </g>
   <g id="text_3">
    <!-- 电压纹波↑ -->
    <g style="fill: #2563eb" transform="translate(278.7 107.284) scale(0.11 -0.11)">
     <defs>
      <path id="MicrosoftYaHei-Bold-538b" d="M 1563 2459 
Q 1563 322 681 -803 
Q 356 -278 69 59 
Q 688 959 688 2428 
L 688 4922 
L 6219 4922 
L 6219 4109 
L 1563 4109 
L 1563 2459 
z
M 5994 1953 
L 4188 1953 
L 4188 259 
L 6250 259 
L 6250 -541 
L 1363 -541 
L 1363 259 
L 3288 259 
L 3288 1953 
L 1825 1953 
L 1825 2728 
L 3288 2728 
L 3288 3953 
L 4188 3953 
L 4188 2728 
L 5994 2728 
L 5994 1953 
z
M 4469 1409 
L 5050 1884 
Q 5525 1397 5994 872 
L 5350 353 
Q 4944 866 4469 1409 
z
" transform="scale(0.015625)"/>
      <path id="MicrosoftYaHei-Bold-7eb9" d="M 1350 1847 
L 2425 1966 
Q 2375 1572 2363 1216 
Q 1144 1084 400 947 
L 194 1647 
Q 638 2050 1091 2700 
Q 691 2669 319 2616 
L 31 3328 
Q 613 4028 1181 5366 
L 2006 5072 
Q 1488 4109 988 3397 
Q 1272 3406 1556 3422 
Q 1744 3731 1931 4084 
L 2325 3906 
L 2325 4441 
L 3788 4441 
Q 3688 4763 3544 5178 
L 4481 5341 
L 4728 4441 
L 6219 4441 
L 6219 3678 
L 5869 3678 
Q 5609 2028 4813 931 
Q 5400 447 6288 28 
Q 6025 -347 5769 -797 
Q 4869 -347 4206 275 
Q 3478 -375 2519 -859 
Q 2319 -494 2072 -116 
L 244 -453 
L 94 403 
Q 1344 572 2550 797 
Q 2500 475 2484 134 
Q 3128 472 3631 916 
Q 2938 1856 2581 3322 
L 3344 3591 
Q 3619 2353 4216 1547 
Q 4800 2353 5019 3678 
L 2675 3678 
Q 1934 2591 1350 1847 
z
" transform="scale(0.015625)"/>
      <path id="MicrosoftYaHei-Bold-6ce2" d="M 3688 5328 
L 4538 5328 
L 4538 4597 
L 6125 4597 
L 6125 3878 
L 5988 3128 
L 5169 3128 
L 5294 3834 
L 4538 3834 
L 4538 2891 
L 5938 2891 
L 5938 2141 
Q 5672 1238 5025 519 
Q 5578 163 6306 -34 
Q 6038 -416 5756 -866 
Q 5006 -588 4369 -81 
Q 3806 -506 3019 -866 
Q 2784 -494 2556 -156 
Q 2422 -522 2200 -872 
Q 1806 -578 1438 -353 
Q 1756 131 1897 784 
Q 2038 1438 2038 2503 
L 2038 4597 
L 3688 4597 
L 3688 5328 
z
M 2850 2891 
L 3688 2891 
L 3688 3834 
L 2850 3834 
L 2850 2891 
z
M 3631 2153 
Q 3950 1497 4350 1072 
Q 4825 1572 5006 2159 
L 2847 2159 
Q 2831 566 2600 -31 
Q 3244 234 3709 544 
Q 3241 1072 2988 1691 
L 3631 2153 
z
M 819 5284 
Q 1244 4984 1850 4491 
L 1256 3859 
Q 806 4291 275 4716 
L 819 5284 
z
M 625 3622 
Q 1100 3284 1631 2834 
L 1056 2159 
Q 619 2572 100 3028 
L 625 3622 
z
M 869 1834 
Q 1288 1666 1688 1541 
L 1081 -828 
Q 631 -672 238 -572 
Q 569 453 869 1834 
z
" transform="scale(0.015625)"/>
     </defs>
     <use xlink:href="#MicrosoftYaHei-Bold-7535"/>
     <use xlink:href="#MicrosoftYaHei-Bold-538b" transform="translate(100 0)"/>
     <use xlink:href="#MicrosoftYaHei-Bold-7eb9" transform="translate(200 0)"/>
     <use xlink:href="#MicrosoftYaHei-Bold-6ce2" transform="translate(300 0)"/>
     <use xlink:href="#MicrosoftYaHei-Bold-2191" transform="translate(400 0)"/>
    </g>
    <!-- 需要更多电容 -->
    <g style="fill: #2563eb" transform="translate(270.45 120.570281) scale(0.11 -0.11)">
     <defs>
      <path id="MicrosoftYaHei-Bold-8981" d="M 106 1741 
L 1947 1741 
Q 2088 1950 2203 2153 
L 413 2153 
L 413 3991 
L 2031 3991 
L 2031 4422 
L 219 4422 
L 219 5084 
L 6181 5084 
L 6181 4422 
L 4363 4422 
L 4363 3991 
L 5981 3991 
L 5981 2153 
L 3113 2153 
Q 2981 1938 2853 1741 
L 6288 1741 
L 6288 1078 
L 5094 1078 
Q 4769 650 4322 309 
L 6000 -116 
L 5619 -878 
Q 4469 -475 3503 -181 
Q 2322 -731 569 -878 
Q 475 -522 281 -141 
Q 1525 -84 2406 131 
Q 1591 350 938 472 
Q 1219 778 1459 1078 
L 106 1078 
L 106 1741 
z
M 2781 3991 
L 3613 3991 
L 3613 4422 
L 2781 4422 
L 2781 3991 
z
M 2781 2791 
L 3613 2791 
L 3613 3353 
L 2781 3353 
L 2781 2791 
z
M 1200 2791 
L 2031 2791 
L 2031 3353 
L 1200 3353 
L 1200 2791 
z
M 5194 2791 
L 5194 3353 
L 4363 3353 
L 4363 2791 
L 5194 2791 
z
M 2169 784 
Q 2678 694 3447 519 
Q 3872 756 4147 1078 
L 2397 1078 
Q 2281 922 2169 784 
z
" transform="scale(0.015625)"/>
      <path id="MicrosoftYaHei-Bold-66f4" d="M 700 3984 
L 2788 3984 
L 2788 4359 
L 219 4359 
L 219 5066 
L 6181 5066 
L 6181 4359 
L 3650 4359 
L 3650 3984 
L 5738 3984 
L 5738 872 
L 4900 872 
L 4900 1222 
L 3638 1222 
Q 3594 719 3403 375 
Q 4519 116 6288 84 
L 5806 -772 
Q 3775 -681 2716 -263 
Q 2047 -619 688 -866 
Q 475 -534 94 -41 
Q 1228 66 1822 241 
Q 1375 550 1038 903 
L 1497 1222 
L 700 1222 
L 700 3984 
z
M 4900 3316 
L 3650 3316 
L 3650 2909 
L 4900 2909 
L 4900 3316 
z
M 1538 2909 
L 2788 2909 
L 2788 3316 
L 1538 3316 
L 1538 2909 
z
M 1538 1891 
L 2788 1891 
L 2788 2297 
L 1538 2297 
L 1538 1891 
z
M 4900 1891 
L 4900 2297 
L 3650 2297 
L 3650 1891 
L 4900 1891 
z
M 2766 1222 
L 1684 1222 
Q 2044 888 2547 659 
Q 2716 875 2766 1222 
z
" transform="scale(0.015625)"/>
      <path id="MicrosoftYaHei-Bold-591a" d="M 5650 4922 
L 5650 4278 
Q 4819 3466 3531 2847 
L 4556 2847 
Q 4331 2603 4088 2378 
L 6063 2378 
L 6063 1747 
Q 4269 -466 569 -922 
Q 400 -478 181 -116 
Q 1481 -3 2556 347 
Q 2331 634 2013 972 
Q 1463 703 856 491 
Q 631 884 356 1253 
Q 2306 1778 3525 2841 
Q 2250 2228 531 1809 
Q 350 2272 138 2628 
Q 1206 2797 2138 3103 
Q 1888 3391 1575 3697 
Q 1206 3472 800 3266 
Q 581 3609 244 3972 
Q 1513 4441 2431 5334 
L 3456 5334 
Q 3288 5122 3100 4922 
L 5650 4922 
z
M 2188 4109 
Q 2575 3759 2919 3403 
Q 3663 3697 4444 4222 
L 2325 4222 
Q 2256 4166 2188 4109 
z
M 2663 1322 
Q 3025 978 3319 641 
Q 4244 1066 4931 1678 
L 3213 1678 
Q 2944 1491 2663 1322 
z
" transform="scale(0.015625)"/>
      <path id="MicrosoftYaHei-Bold-5bb9" d="M 1125 -866 
L 1125 1034 
Q 825 897 500 766 
Q 344 1109 100 1503 
Q 1769 2003 2900 3122 
L 3706 3122 
L 3625 3009 
Q 4731 1941 6319 1547 
Q 6100 1159 5925 766 
Q 5588 884 5281 1022 
L 5281 -866 
L 4469 -866 
L 4469 -541 
L 1938 -541 
L 1938 -866 
L 1125 -866 
z
M 2550 5216 
L 3581 5341 
Q 3669 5122 3806 4766 
L 6050 4766 
L 6050 3397 
L 5144 3397 
L 5144 4047 
L 1256 4047 
L 1256 3397 
L 350 3397 
L 350 4766 
L 2738 4766 
Q 2631 5028 2550 5216 
z
M 4469 878 
L 1938 878 
L 1938 159 
L 4469 159 
L 4469 878 
z
M 2381 3972 
L 2869 3403 
Q 2013 2791 819 2216 
Q 669 2491 388 2928 
Q 1431 3347 2381 3972 
z
M 3994 3928 
Q 4981 3466 6025 2903 
L 5581 2197 
Q 4706 2778 3594 3372 
L 3994 3928 
z
M 3200 2441 
Q 2763 1984 2119 1578 
L 4244 1578 
Q 3638 1966 3200 2441 
z
" transform="scale(0.015625)"/>
     </defs>
     <use xlink:href="#MicrosoftYaHei-Bold-9700"/>
     <use xlink:href="#MicrosoftYaHei-Bold-8981" transform="translate(100 0)"/>
     <use xlink:href="#MicrosoftYaHei-Bold-66f4" transform="translate(200 0)"/>
     <use xlink:href="#MicrosoftYaHei-Bold-591a" transform="translate(300 0)"/>
     <use xlink:href="#MicrosoftYaHei-Bold-7535" transform="translate(400 0)"/>
     <use xlink:href="#MicrosoftYaHei-Bold-5bb9" transform="translate(500 0)"/>
    </g>
   </g>
   <g id="text_4">
    <!-- MLCC用量↑ -->
    <g style="fill: #7c3aed" transform="translate(368.753672 95.35) scale(0.11 -0.11)">
     <defs>
      <path id="MicrosoftYaHei-Bold-4d" d="M 4991 0 
L 4991 2938 
Q 4991 3344 5031 3959 
L 5006 3959 
Q 4913 3494 4856 3338 
L 3663 0 
L 2841 0 
L 1631 3306 
Q 1588 3425 1478 3959 
L 1450 3959 
Q 1491 3350 1491 2738 
L 1491 0 
L 559 0 
L 559 4841 
L 2059 4841 
L 3103 1916 
Q 3234 1553 3281 1234 
L 3303 1234 
Q 3400 1631 3503 1922 
L 4550 4841 
L 6009 4841 
L 6009 0 
L 4991 0 
z
" transform="scale(0.015625)"/>
      <path id="MicrosoftYaHei-Bold-4c" d="M 3400 0 
L 559 0 
L 559 4841 
L 1591 4841 
L 1591 844 
L 3400 844 
L 3400 0 
z
" transform="scale(0.015625)"/>
      <path id="MicrosoftYaHei-Bold-43" d="M 4013 175 
Q 3484 -84 2634 -84 
Q 1541 -84 898 570 
Q 256 1225 256 2316 
Q 256 3463 973 4192 
Q 1691 4922 2825 4922 
Q 3534 4922 4013 4738 
L 4013 3741 
Q 3522 4028 2900 4028 
Q 2191 4028 1766 3575 
Q 1341 3122 1341 2391 
Q 1341 1678 1744 1243 
Q 2147 809 2834 809 
Q 3481 809 4013 1122 
L 4013 175 
z
" transform="scale(0.015625)"/>
      <path id="MicrosoftYaHei-Bold-7528" d="M 5925 134 
Q 5925 -263 5744 -480 
Q 5563 -697 5189 -736 
Q 4816 -775 4206 -766 
Q 4100 -284 3956 141 
Q 4600 103 4656 103 
Q 5050 103 5050 484 
L 5050 1053 
L 3750 1053 
L 3750 -697 
L 2869 -697 
L 2869 1053 
L 1516 1053 
Q 1419 -325 988 -872 
Q 588 -584 181 -347 
Q 688 341 669 2097 
L 669 5041 
L 5925 5041 
L 5925 134 
z
M 1544 3441 
L 2869 3441 
L 2869 4216 
L 1544 4216 
L 1544 3441 
z
M 5050 4216 
L 3750 4216 
L 3750 3441 
L 5050 3441 
L 5050 4216 
z
M 1544 1859 
L 2869 1859 
L 2869 2634 
L 1544 2634 
L 1544 1859 
z
M 3750 1859 
L 5050 1859 
L 5050 2634 
L 3750 2634 
L 3750 1859 
z
" transform="scale(0.015625)"/>
      <path id="MicrosoftYaHei-Bold-91cf" d="M 725 5103 
L 5675 5103 
L 5675 3416 
L 725 3416 
L 725 5103 
z
M 4825 4666 
L 1575 4666 
L 1575 4447 
L 4825 4447 
L 4825 4666 
z
M 4825 3853 
L 4825 4072 
L 1575 4072 
L 1575 3853 
L 4825 3853 
z
M 138 3209 
L 6288 3209 
L 6288 2747 
L 138 2747 
L 138 3209 
z
M 113 -184 
L 2781 -184 
L 2781 53 
L 506 53 
L 506 491 
L 2781 491 
L 2781 716 
L 713 716 
L 713 2534 
L 5681 2534 
L 5681 716 
L 3606 716 
L 3606 491 
L 5925 491 
L 5925 53 
L 3606 53 
L 3606 -184 
L 6300 -184 
L 6300 -647 
L 113 -647 
L 113 -184 
z
M 4881 2097 
L 3606 2097 
L 3606 1816 
L 4881 1816 
L 4881 2097 
z
M 1513 1816 
L 2781 1816 
L 2781 2097 
L 1513 2097 
L 1513 1816 
z
M 4881 1153 
L 4881 1434 
L 3606 1434 
L 3606 1153 
L 4881 1153 
z
M 1513 1153 
L 2781 1153 
L 2781 1434 
L 1513 1434 
L 1513 1153 
z
" transform="scale(0.015625)"/>
     </defs>
     <use xlink:href="#MicrosoftYaHei-Bold-4d"/>
     <use xlink:href="#MicrosoftYaHei-Bold-4c" transform="translate(102.832031 0)"/>
     <use xlink:href="#MicrosoftYaHei-Bold-43" transform="translate(154.769531 0)"/>
     <use xlink:href="#MicrosoftYaHei-Bold-43" transform="translate(218.978516 0)"/>
     <use xlink:href="#MicrosoftYaHei-Bold-7528" transform="translate(286.3125 0)"/>
     <use xlink:href="#MicrosoftYaHei-Bold-91cf" transform="translate(386.3125 0)"/>
     <use xlink:href="#MicrosoftYaHei-Bold-2191" transform="translate(486.3125 0)"/>
    </g>
    <!-- (稳压/滤波) -->
    <g style="fill: #7c3aed" transform="translate(369.363828 108.636281) scale(0.11 -0.11)">
     <defs>
      <path id="MicrosoftYaHei-Bold-28" d="M 1606 -1100 
Q 525 97 525 1853 
Q 525 3550 1606 4841 
L 2431 4841 
Q 1406 3497 1406 1853 
Q 1406 216 2438 -1100 
L 1606 -1100 
z
" transform="scale(0.015625)"/>
      <path id="MicrosoftYaHei-Bold-7a33" d="M 150 3566 
L 975 3566 
L 975 4272 
Q 638 4241 275 4222 
Q 244 4541 163 4991 
Q 1131 5041 2294 5253 
L 2469 4497 
Q 2138 4422 1763 4366 
L 1763 3566 
L 2413 3566 
L 2413 2822 
L 1763 2822 
L 1763 2400 
L 1838 2466 
Q 2094 2231 2506 1822 
L 2506 1884 
L 5213 1884 
L 5213 2203 
L 2631 2203 
L 2631 2741 
L 5213 2741 
L 5213 3059 
L 2563 3059 
L 2563 3569 
Q 2366 3759 2175 3909 
Q 2781 4478 3213 5303 
L 4063 5303 
Q 3919 5031 3769 4784 
L 5625 4784 
L 5625 4259 
L 5241 3716 
L 6000 3716 
L 6000 1228 
L 4650 1228 
Q 4763 978 4869 716 
L 4200 459 
Q 4056 888 3931 1228 
L 2506 1228 
L 2506 1700 
L 2088 1228 
Q 1916 1466 1763 1666 
L 1763 -866 
L 975 -866 
L 975 1638 
Q 747 919 425 272 
Q 325 741 138 1322 
Q 534 1900 859 2822 
L 150 2822 
L 150 3566 
z
M 3006 3716 
L 4416 3716 
L 4681 4097 
L 3309 4097 
Q 3163 3894 3006 3716 
z
M 4831 597 
Q 5103 475 5434 350 
L 5263 916 
L 5925 1066 
Q 6175 328 6344 -266 
L 5663 -434 
L 5509 97 
Q 5319 -538 5050 -677 
Q 4781 -816 4463 -816 
L 3906 -816 
Q 3031 -816 3031 9 
L 3031 1034 
L 3788 1034 
L 3788 241 
Q 3788 -122 4138 -122 
L 4375 -122 
Q 4584 -122 4670 -17 
Q 4756 88 4831 597 
z
M 2313 934 
L 2963 728 
Q 2781 197 2488 -528 
Q 2181 -391 1850 -266 
Q 2119 328 2313 934 
z
" transform="scale(0.015625)"/>
      <path id="MicrosoftYaHei-Bold-2f" d="M 3100 4841 
L 747 -803 
L -156 -803 
L 2188 4841 
L 3100 4841 
z
" transform="scale(0.015625)"/>
      <path id="MicrosoftYaHei-Bold-6ee4" d="M 3406 5309 
L 4194 5309 
L 4194 4978 
L 6050 4978 
L 6050 4416 
L 4194 4416 
L 4194 4134 
L 6238 4134 
L 6238 3522 
L 6069 2853 
Q 5650 2972 5294 3028 
L 5456 3509 
L 2538 3509 
L 2538 2328 
Q 2538 453 1869 -816 
Q 1544 -497 1213 -216 
Q 1800 791 1775 2316 
L 1775 4134 
L 3406 4134 
L 3406 5309 
z
M 2744 1178 
L 3244 1028 
L 3244 1341 
L 3981 1341 
L 3981 266 
Q 3981 -34 4288 -34 
L 4431 -34 
Q 4669 -34 4731 166 
Q 4794 397 4831 722 
Q 5081 597 5413 478 
Q 5306 828 5181 1216 
L 5831 1391 
Q 6125 534 6331 -216 
L 5663 -409 
Q 5594 -128 5506 172 
Q 5438 -47 5344 -284 
Q 5144 -772 4506 -772 
L 4031 -772 
Q 3244 -772 3244 -97 
L 3244 903 
Q 3025 141 2750 -553 
Q 2488 -434 2194 -334 
Q 2525 391 2744 1178 
z
M 2600 2984 
L 3369 3034 
L 3369 3397 
L 4156 3397 
L 4156 3091 
L 5125 3166 
L 5175 2622 
L 4156 2534 
L 4156 2397 
Q 4156 2184 4444 2184 
L 4863 2184 
Q 5206 2184 5250 2397 
Q 5288 2603 5306 2872 
Q 5619 2728 5988 2622 
Q 5956 2384 5894 2109 
Q 5769 1553 5063 1553 
L 4675 1553 
Q 4856 1147 4956 847 
L 4206 609 
Q 4069 1197 3925 1553 
Q 3369 1597 3369 2191 
L 3369 2472 
L 2650 2416 
L 2600 2984 
z
M 781 1866 
Q 1238 1653 1538 1566 
Q 1300 566 981 -791 
Q 575 -641 169 -534 
Q 438 266 781 1866 
z
M 594 3653 
Q 1069 3309 1581 2866 
L 1019 2191 
Q 606 2591 81 3059 
L 594 3653 
z
M 719 5266 
Q 1425 4759 1744 4497 
L 1163 3866 
Q 719 4297 200 4722 
L 719 5266 
z
" transform="scale(0.015625)"/>
      <path id="MicrosoftYaHei-Bold-29" d="M 59 -1100 
Q 1097 216 1097 1853 
Q 1097 3484 59 4841 
L 888 4841 
Q 1978 3544 1978 1853 
Q 1978 113 881 -1100 
L 59 -1100 
z
" transform="scale(0.015625)"/>
     </defs>
     <use xlink:href="#MicrosoftYaHei-Bold-28"/>
     <use xlink:href="#MicrosoftYaHei-Bold-7a33" transform="translate(38.964844 0)"/>
     <use xlink:href="#MicrosoftYaHei-Bold-538b" transform="translate(138.964844 0)"/>
     <use xlink:href="#MicrosoftYaHei-Bold-2f" transform="translate(238.964844 0)"/>
     <use xlink:href="#MicrosoftYaHei-Bold-6ee4" transform="translate(286.230469 0)"/>
     <use xlink:href="#MicrosoftYaHei-Bold-6ce2" transform="translate(386.230469 0)"/>
     <use xlink:href="#MicrosoftYaHei-Bold-29" transform="translate(486.230469 0)"/>
    </g>
   </g>
   <g id="patch_6">
    <path d="M 198.799109 110.897844 
Q 208.649544 110.897844 216.263911 110.897844 
" style="fill: none; stroke: #94a3b8; stroke-width: 2; stroke-linecap: round"/>
    <path d="M 212.263911 108.897844 
L 216.263911 110.897844 
L 212.263911 112.897844 
" style="fill: none; stroke: #94a3b8; stroke-width: 2; stroke-linecap: round"/>
   </g>
   <g id="patch_7">
    <path d="M 293.599109 110.897844 
Q 303.449544 110.897844 311.063911 110.897844 
" style="fill: none; stroke: #94a3b8; stroke-width: 2; stroke-linecap: round"/>
    <path d="M 307.063911 108.897844 
L 311.063911 110.897844 
L 307.063911 112.897844 
" style="fill: none; stroke: #94a3b8; stroke-width: 2; stroke-linecap: round"/>
   </g>
   <g id="patch_8">
    <path d="M 103.999109 110.897844 
Q 113.849544 110.897844 121.463911 110.897844 
" style="fill: none; stroke: #94a3b8; stroke-width: 2; stroke-linecap: round"/>
    <path d="M 117.463911 108.897844 
L 121.463911 110.897844 
L 117.463911 112.897844 
" style="fill: none; stroke: #94a3b8; stroke-width: 2; stroke-linecap: round"/>
   </g>
   <g id="text_5">
    <!-- AI算力 → MLCC需求 传导链 -->
    <g style="fill: #1e293b" transform="translate(7.2 17.591875) scale(0.13 -0.13)">
     <defs>
      <path id="MicrosoftYaHei-Bold-41" d="M 4759 0 
L 3634 0 
L 3272 1109 
L 1513 1109 
L 1156 0 
L 38 0 
L 1809 4841 
L 3022 4841 
L 4759 0 
z
M 3028 1906 
L 2478 3584 
Q 2425 3744 2403 4006 
L 2375 4006 
Q 2356 3794 2291 3597 
L 1738 1906 
L 3028 1906 
z
" transform="scale(0.015625)"/>
      <path id="MicrosoftYaHei-Bold-49" d="M 1588 4841 
L 1588 0 
L 556 0 
L 556 4841 
L 1588 4841 
z
" transform="scale(0.015625)"/>
      <path id="MicrosoftYaHei-Bold-7b97" d="M 100 697 
L 1575 697 
Q 1603 844 1613 1003 
L 706 1003 
L 706 3694 
Q 572 3581 431 3478 
Q 325 3803 75 4228 
Q 700 4634 1119 5341 
L 2006 5341 
Q 1888 5122 1759 4922 
L 3113 4922 
L 3113 4381 
Q 3563 4788 3800 5347 
L 4619 5347 
Q 4541 5125 4450 4922 
L 6213 4922 
L 6213 4347 
L 5338 4347 
L 5513 3972 
L 4738 3816 
L 5719 3816 
L 5719 1003 
L 4906 1003 
L 4906 697 
L 6300 697 
L 6300 97 
L 4906 97 
L 4906 -809 
L 4081 -809 
L 4081 97 
L 2281 97 
Q 2050 -534 1388 -897 
Q 994 -616 581 -384 
Q 1031 -209 1291 97 
L 100 97 
L 100 697 
z
M 2575 3972 
L 1800 3816 
L 3519 3816 
Q 3203 4013 2856 4178 
Q 2969 4259 3069 4347 
L 2403 4347 
Q 2494 4156 2575 3972 
z
M 3694 3816 
L 4703 3816 
Q 4603 4106 4484 4347 
L 4131 4347 
Q 3934 4056 3694 3816 
z
M 841 3816 
L 1766 3816 
Q 1703 4031 1572 4347 
L 1344 4347 
Q 1106 4059 841 3816 
z
M 4900 3303 
L 1525 3303 
L 1525 2991 
L 4900 2991 
L 4900 3303 
z
M 1525 2253 
L 4900 2253 
L 4900 2566 
L 1525 2566 
L 1525 2253 
z
M 4900 1516 
L 4900 1828 
L 1525 1828 
L 1525 1516 
L 4900 1516 
z
M 2406 697 
L 4081 697 
L 4081 1003 
L 2428 1003 
Q 2425 856 2406 697 
z
" transform="scale(0.015625)"/>
      <path id="MicrosoftYaHei-Bold-529b" d="M 2094 5309 
L 3063 5309 
L 3022 4066 
L 5988 4066 
L 5931 2203 
Q 5897 1225 5859 593 
Q 5822 -38 5489 -373 
Q 5156 -709 4611 -721 
Q 4066 -734 3225 -728 
Q 3138 -184 3038 247 
Q 3531 197 4188 197 
Q 4503 197 4665 320 
Q 4828 444 4876 623 
Q 4925 803 4964 1515 
Q 5003 2228 5025 3241 
L 2978 3241 
Q 2919 603 769 -891 
Q 444 -491 38 -84 
Q 1963 1059 2031 3241 
L 381 3241 
L 381 4066 
L 2075 4066 
Q 2097 4644 2094 5309 
z
" transform="scale(0.015625)"/>
      <path id="MicrosoftYaHei-Bold-20" transform="scale(0.015625)"/>
      <path id="MicrosoftYaHei-Bold-2192" d="M 4859 3766 
Q 5241 3344 5514 3125 
Q 5788 2906 6150 2713 
L 6150 2572 
Q 5788 2381 5517 2164 
Q 5247 1947 4859 1519 
L 4622 1519 
Q 4766 1822 4866 1983 
Q 4966 2144 5141 2369 
L 247 2369 
L 247 2916 
L 5141 2916 
Q 4972 3131 4869 3298 
Q 4766 3466 4622 3766 
L 4859 3766 
z
" transform="scale(0.015625)"/>
      <path id="MicrosoftYaHei-Bold-4f20" d="M 1306 5347 
L 2131 5128 
Q 1891 4375 1600 3681 
L 1600 -853 
L 806 -853 
L 806 2041 
Q 556 1597 281 1178 
Q 206 1672 75 2347 
Q 856 3609 1306 5347 
z
M 2325 334 
L 2738 1009 
Q 3278 816 4028 516 
L 4819 1297 
L 2450 1297 
L 2450 1978 
Q 2550 2263 2647 2559 
L 1875 2559 
L 1875 3272 
L 2866 3272 
L 3025 3828 
L 2175 3828 
L 2175 4528 
L 3209 4528 
L 3388 5278 
L 4319 5278 
L 4134 4528 
L 6075 4528 
L 6075 3828 
L 3950 3828 
L 3794 3272 
L 6300 3272 
L 6300 2559 
L 3578 2559 
Q 3488 2269 3394 1997 
L 6019 1997 
L 6019 1341 
L 4872 169 
L 5650 -159 
L 5206 -897 
Q 4088 -359 2325 334 
z
" transform="scale(0.015625)"/>
      <path id="MicrosoftYaHei-Bold-5bfc" d="M 2038 2703 
L 4850 2703 
Q 5103 2703 5250 2793 
Q 5397 2884 5437 3054 
Q 5478 3225 5531 3678 
Q 5800 3578 6294 3434 
Q 6159 2741 6089 2531 
Q 6019 2322 5878 2198 
Q 5738 2075 5514 2014 
Q 5291 1953 4988 1953 
L 1875 1953 
Q 675 1953 675 3041 
L 675 5091 
L 5419 5091 
L 5419 3191 
L 1550 3191 
L 1550 3128 
Q 1550 2703 2038 2703 
z
M 1550 4347 
L 1550 3878 
L 4544 3878 
L 4544 4347 
L 1550 4347 
z
M 1194 572 
L 1375 766 
L 94 766 
L 94 1541 
L 4325 1541 
L 4325 1816 
L 5200 1816 
L 5200 1541 
L 6313 1541 
L 6313 766 
L 5200 766 
L 5200 241 
Q 5200 -219 4964 -473 
Q 4728 -728 4312 -759 
Q 3897 -791 3119 -791 
Q 3006 -297 2900 47 
Q 3516 9 3844 9 
Q 4331 9 4325 484 
L 4325 766 
L 2081 766 
Q 2363 531 2656 266 
L 2119 -303 
Q 1694 116 1194 572 
z
" transform="scale(0.015625)"/>
      <path id="MicrosoftYaHei-Bold-94fe" d="M 3463 1566 
L 4588 1566 
L 4588 2128 
L 3488 2128 
L 3488 2797 
Q 3647 3247 3841 3966 
L 3444 3966 
L 3444 4691 
L 4028 4691 
L 4188 5347 
L 4925 5241 
Q 4850 4959 4772 4691 
L 6163 4691 
L 6163 3966 
L 4569 3966 
L 4238 2853 
L 4588 2853 
L 4588 3678 
L 5313 3678 
L 5313 2853 
L 6106 2853 
L 6106 2128 
L 5313 2128 
L 5313 1566 
L 6225 1566 
L 6225 841 
L 5313 841 
L 5313 166 
L 4588 166 
L 4588 841 
L 3463 841 
L 3463 1566 
z
M 6306 78 
Q 6156 -403 6088 -697 
L 4363 -700 
Q 3713 -694 3375 -522 
Q 3038 -350 2888 -78 
Q 2638 -434 2388 -841 
L 1966 -103 
Q 1247 -575 1000 -847 
L 575 -228 
Q 744 -28 744 347 
L 744 1372 
L 100 1372 
L 100 2078 
L 744 2078 
L 744 2709 
L 547 2709 
Q 428 2503 300 2316 
Q 194 2853 81 3316 
Q 556 4216 788 5341 
L 1525 5178 
Q 1441 4863 1347 4566 
L 2156 4566 
L 2156 3866 
L 1100 3866 
Q 1009 3634 909 3416 
L 1944 3416 
L 1944 2709 
L 1488 2709 
L 1488 2078 
L 2113 2078 
L 2113 1372 
L 1488 1372 
L 1488 428 
Q 1756 591 2025 772 
Q 2041 400 2072 106 
Q 2275 350 2469 572 
L 2469 2328 
L 2094 2328 
L 2094 3128 
L 3244 3128 
L 3244 559 
Q 3522 53 4416 53 
Q 5066 53 6306 78 
z
M 2894 5297 
Q 3125 4628 3338 3834 
L 2581 3622 
Q 2394 4403 2163 5097 
L 2894 5297 
z
" transform="scale(0.015625)"/>
     </defs>
     <use xlink:href="#MicrosoftYaHei-Bold-41"/>
     <use xlink:href="#MicrosoftYaHei-Bold-49" transform="translate(75.195312 0)"/>
     <use xlink:href="#MicrosoftYaHei-Bold-7b97" transform="translate(108.740234 0)"/>
     <use xlink:href="#MicrosoftYaHei-Bold-529b" transform="translate(208.740234 0)"/>
     <use xlink:href="#MicrosoftYaHei-Bold-20" transform="translate(308.740234 0)"/>
     <use xlink:href="#MicrosoftYaHei-Bold-2192" transform="translate(338.525391 0)"/>
     <use xlink:href="#MicrosoftYaHei-Bold-20" transform="translate(438.525391 0)"/>
     <use xlink:href="#MicrosoftYaHei-Bold-4d" transform="translate(468.310547 0)"/>
     <use xlink:href="#MicrosoftYaHei-Bold-4c" transform="translate(571.142578 0)"/>
     <use xlink:href="#MicrosoftYaHei-Bold-43" transform="translate(623.080078 0)"/>
     <use xlink:href="#MicrosoftYaHei-Bold-43" transform="translate(687.289062 0)"/>
     <use xlink:href="#MicrosoftYaHei-Bold-9700" transform="translate(754.623047 0)"/>
     <use xlink:href="#MicrosoftYaHei-Bold-6c42" transform="translate(854.623047 0)"/>
     <use xlink:href="#MicrosoftYaHei-Bold-20" transform="translate(954.623047 0)"/>
     <use xlink:href="#MicrosoftYaHei-Bold-4f20" transform="translate(984.408203 0)"/>
     <use xlink:href="#MicrosoftYaHei-Bold-5bfc" transform="translate(1084.408203 0)"/>
     <use xlink:href="#MicrosoftYaHei-Bold-94fe" transform="translate(1184.408203 0)"/>
    </g>
    <!-- GPU功耗↑ → 电流↑ → 纹波↑ → 电容需求↑ -->
    <g style="fill: #1e293b" transform="translate(7.2 33.293844) scale(0.13 -0.13)">
     <use xlink:href="#MicrosoftYaHei-Bold-47"/>
     <use xlink:href="#MicrosoftYaHei-Bold-50" transform="translate(76.513672 0)"/>
     <use xlink:href="#MicrosoftYaHei-Bold-55" transform="translate(142.236328 0)"/>
     <use xlink:href="#MicrosoftYaHei-Bold-529f" transform="translate(219.873047 0)"/>
     <use xlink:href="#MicrosoftYaHei-Bold-8017" transform="translate(319.873047 0)"/>
     <use xlink:href="#MicrosoftYaHei-Bold-2191" transform="translate(419.873047 0)"/>
     <use xlink:href="#MicrosoftYaHei-Bold-20" transform="translate(469.873047 0)"/>
     <use xlink:href="#MicrosoftYaHei-Bold-2192" transform="translate(499.658203 0)"/>
     <use xlink:href="#MicrosoftYaHei-Bold-20" transform="translate(599.658203 0)"/>
     <use xlink:href="#MicrosoftYaHei-Bold-7535" transform="translate(629.443359 0)"/>
     <use xlink:href="#MicrosoftYaHei-Bold-6d41" transform="translate(729.443359 0)"/>
     <use xlink:href="#MicrosoftYaHei-Bold-2191" transform="translate(829.443359 0)"/>
     <use xlink:href="#MicrosoftYaHei-Bold-20" transform="translate(879.443359 0)"/>
     <use xlink:href="#MicrosoftYaHei-Bold-2192" transform="translate(909.228516 0)"/>
     <use xlink:href="#MicrosoftYaHei-Bold-20" transform="translate(1009.228516 0)"/>
     <use xlink:href="#MicrosoftYaHei-Bold-7eb9" transform="translate(1039.013672 0)"/>
     <use xlink:href="#MicrosoftYaHei-Bold-6ce2" transform="translate(1139.013672 0)"/>
     <use xlink:href="#MicrosoftYaHei-Bold-2191" transform="translate(1239.013672 0)"/>
     <use xlink:href="#MicrosoftYaHei-Bold-20" transform="translate(1289.013672 0)"/>
     <use xlink:href="#MicrosoftYaHei-Bold-2192" transform="translate(1318.798828 0)"/>
     <use xlink:href="#MicrosoftYaHei-Bold-20" transform="translate(1418.798828 0)"/>
     <use xlink:href="#MicrosoftYaHei-Bold-7535" transform="translate(1448.583984 0)"/>
     <use xlink:href="#MicrosoftYaHei-Bold-5bb9" transform="translate(1548.583984 0)"/>
     <use xlink:href="#MicrosoftYaHei-Bold-9700" transform="translate(1648.583984 0)"/>
     <use xlink:href="#MicrosoftYaHei-Bold-6c42" transform="translate(1748.583984 0)"/>
     <use xlink:href="#MicrosoftYaHei-Bold-2191" transform="translate(1848.583984 0)"/>
    </g>
   </g>
  </g>
 </g>
 <defs>
  <clipPath id="p2183155b89">
   <rect x="7.2" y="39.293844" width="474" height="190.944"/>
  </clipPath>
 </defs>
</svg>
