<?xml version="1.0" encoding="utf-8" standalone="no"?>
<!DOCTYPE svg PUBLIC "-//W3C//DTD SVG 1.1//EN"
  "http://www.w3.org/Graphics/SVG/1.1/DTD/svg11.dtd">
<svg xmlns:xlink="http://www.w3.org/1999/xlink" width="521.06207pt" height="244.69125pt" viewBox="0 0 521.06207 244.69125" xmlns="http://www.w3.org/2000/svg" version="1.1">
 <metadata>
  <rdf:RDF xmlns:dc="http://purl.org/dc/elements/1.1/" xmlns:cc="http://creativecommons.org/ns#" xmlns:rdf="http://www.w3.org/1999/02/22-rdf-syntax-ns#">
   <cc:Work>
    <dc:type rdf:resource="http://purl.org/dc/dcmitype/StillImage"/>
    <dc:date>2026-06-12T23:07:54.791636</dc:date>
    <dc:format>image/svg+xml</dc:format>
    <dc:creator>
     <cc:Agent>
      <dc:title>Matplotlib v3.10.9, https://matplotlib.org/</dc:title>
     </cc:Agent>
    </dc:creator>
   </cc:Work>
  </rdf:RDF>
 </metadata>
 <defs>
  <style type="text/css">*{stroke-linejoin: round; stroke-linecap: butt}</style>
 </defs>
 <g id="figure_1">
  <g id="patch_1">
   <path d="M 0 244.69125 
L 521.06207 244.69125 
L 521.06207 0 
L 0 0 
z
" style="fill: #ffffff"/>
  </g>
  <g id="axes_1">
   <g id="patch_2">
    <path d="M 121.76406 55.381025 
C 108.417221 55.381025 95.326914 59.072874 83.946864 66.046579 
C 72.566813 73.020284 63.334478 83.00777 57.275142 94.899891 
C 51.215805 106.792012 48.562394 120.131626 49.609577 133.43732 
C 50.656761 146.743015 55.364285 159.503309 63.209363 170.301126 
L 121.76406 127.758625 
z
" style="fill: #2563eb"/>
   </g>
   <g id="patch_3">
    <path d="M 63.209364 170.301128 
C 73.566052 184.555876 88.779902 194.549503 105.975404 198.393145 
C 123.170904 202.236783 141.191865 199.672021 156.632248 191.183593 
L 121.76406 127.758625 
z
" style="fill: #3b82f6"/>
   </g>
   <g id="patch_4">
    <path d="M 156.632248 191.183593 
C 166.640882 185.681297 175.206419 177.887252 181.626182 168.440848 
C 188.045946 158.994444 192.139466 148.161255 193.570943 136.829934 
L 121.76406 127.758625 
z
" style="fill: #60a5fa"/>
   </g>
   <g id="patch_5">
    <path d="M 193.570943 136.829934 
C 194.52284 129.294904 194.282798 121.656789 192.859652 114.196397 
C 191.436506 106.736005 188.8479 99.545903 185.189019 92.890426 
L 121.76406 127.758625 
z
" style="fill: #93c5fd"/>
   </g>
   <g id="patch_6">
    <path d="M 185.189019 92.890426 
C 182.630474 88.236452 179.567436 83.878196 176.055276 79.894433 
C 172.543115 75.910671 168.603119 72.325556 164.306511 69.20389 
L 121.76406 127.758625 
z
" style="fill: #bfdbfe"/>
   </g>
   <g id="patch_7">
    <path d="M 164.306511 69.20389 
C 158.162095 64.739716 151.353145 61.270386 144.129954 58.923431 
C 136.906763 56.576476 129.358948 55.381025 121.764036 55.381025 
L 121.76406 127.758625 
z
" style="fill: #f59e0b"/>
   </g>
   <g id="matplotlib.axis_1"/>
   <g id="matplotlib.axis_2"/>
   <g id="text_1">
    <!-- Murata村田 -->
    <g transform="translate(7.2 93.817142) scale(0.08 -0.08)">
     <defs>
      <path id="MicrosoftYaHei-4d" d="M 5003 0 
L 5003 3206 
Q 5003 3603 5050 4159 
L 5034 4159 
Q 4953 3809 4891 3672 
L 3294 0 
L 2947 0 
L 1353 3644 
Q 1297 3769 1209 4159 
L 1191 4159 
Q 1222 3822 1222 3178 
L 1222 0 
L 625 0 
L 625 4841 
L 1472 4841 
L 2900 1522 
Q 3063 1141 3116 928 
L 3138 928 
Q 3300 1375 3366 1534 
L 4819 4841 
L 5625 4841 
L 5625 0 
L 5003 0 
z
" transform="scale(0.015625)"/>
      <path id="MicrosoftYaHei-75" d="M 3400 0 
L 2784 0 
L 2784 544 
L 2772 544 
Q 2425 -81 1706 -81 
Q 478 -81 478 1388 
L 478 3456 
L 1084 3456 
L 1084 1478 
Q 1084 425 1891 425 
Q 2291 425 2537 720 
Q 2784 1016 2784 1466 
L 2784 3456 
L 3400 3456 
L 3400 0 
z
" transform="scale(0.015625)"/>
      <path id="MicrosoftYaHei-72" d="M 2400 2850 
Q 2247 2959 1978 2959 
Q 1622 2959 1390 2626 
Q 1159 2294 1159 1750 
L 1159 0 
L 547 0 
L 547 3456 
L 1159 3456 
L 1159 2753 
L 1172 2753 
Q 1434 3516 2078 3516 
Q 2288 3516 2400 3469 
L 2400 2850 
z
" transform="scale(0.015625)"/>
      <path id="MicrosoftYaHei-61" d="M 628 3216 
Q 1144 3538 1819 3538 
Q 3069 3538 3069 2225 
L 3069 0 
L 2463 0 
L 2463 534 
L 2447 534 
Q 2088 -81 1388 -81 
Q 884 -81 587 191 
Q 291 463 291 925 
Q 291 1894 1438 2053 
L 2463 2197 
Q 2463 3044 1763 3044 
Q 1141 3044 628 2625 
L 628 3216 
z
M 1653 1625 
Q 1228 1569 1067 1412 
Q 906 1256 906 975 
Q 906 728 1081 572 
Q 1256 416 1544 416 
Q 1944 416 2203 697 
Q 2463 978 2463 1403 
L 2463 1734 
L 1653 1625 
z
" transform="scale(0.015625)"/>
      <path id="MicrosoftYaHei-74" d="M 2206 34 
Q 2006 -75 1666 -75 
Q 738 -75 738 953 
L 738 2950 
L 144 2950 
L 144 3456 
L 738 3456 
L 738 4288 
L 1347 4481 
L 1347 3456 
L 2206 3456 
L 2206 2950 
L 1347 2950 
L 1347 1063 
Q 1347 722 1462 575 
Q 1578 428 1847 428 
Q 2053 428 2206 544 
L 2206 34 
z
" transform="scale(0.015625)"/>
      <path id="MicrosoftYaHei-6751" d="M 88 1334 
Q 847 2359 1150 3597 
L 188 3597 
L 188 4041 
L 1219 4041 
L 1219 5303 
L 1700 5303 
L 1700 4041 
L 2606 4041 
L 2606 3597 
L 1700 3597 
L 1700 2525 
L 2019 2759 
Q 2325 2391 2869 1734 
L 2475 1409 
Q 2059 1997 1700 2450 
L 1700 -809 
L 1219 -809 
L 1219 2606 
Q 866 1503 331 784 
Q 219 1053 88 1334 
z
M 2863 4022 
L 4925 4022 
L 4925 5303 
L 5419 5303 
L 5419 4022 
L 6306 4022 
L 6306 3566 
L 5419 3566 
L 5419 178 
Q 5419 -691 4600 -691 
Q 4238 -691 3519 -684 
Q 3481 -459 3419 -134 
Q 4138 -178 4419 -178 
Q 4925 -178 4925 241 
L 4925 3566 
L 2863 3566 
L 2863 4022 
z
M 2981 2691 
L 3375 2934 
Q 3881 2191 4269 1491 
L 3813 1222 
Q 3444 1928 2981 2691 
z
" transform="scale(0.015625)"/>
      <path id="MicrosoftYaHei-7530" d="M 613 4878 
L 5800 4878 
L 5800 -684 
L 5313 -684 
L 5313 -234 
L 1100 -234 
L 1100 -684 
L 613 -684 
L 613 4878 
z
M 3444 241 
L 5313 241 
L 5313 2116 
L 3444 2116 
L 3444 241 
z
M 1100 241 
L 2963 241 
L 2963 2116 
L 1100 2116 
L 1100 241 
z
M 5313 4403 
L 3444 4403 
L 3444 2591 
L 5313 2591 
L 5313 4403 
z
M 1100 2591 
L 2963 2591 
L 2963 4403 
L 1100 4403 
L 1100 2591 
z
" transform="scale(0.015625)"/>
     </defs>
     <use xlink:href="#MicrosoftYaHei-4d"/>
     <use xlink:href="#MicrosoftYaHei-75" transform="translate(97.705078 0)"/>
     <use xlink:href="#MicrosoftYaHei-72" transform="translate(159.326172 0)"/>
     <use xlink:href="#MicrosoftYaHei-61" transform="translate(197.509766 0)"/>
     <use xlink:href="#MicrosoftYaHei-74" transform="translate(252.783203 0)"/>
     <use xlink:href="#MicrosoftYaHei-61" transform="translate(290.039062 0)"/>
     <use xlink:href="#MicrosoftYaHei-6751" transform="translate(345.3125 0)"/>
     <use xlink:href="#MicrosoftYaHei-7530" transform="translate(445.3125 0)"/>
    </g>
   </g>
   <g id="text_2">
    <!-- 35% -->
    <g transform="translate(73.330318 110.5219) scale(0.09 -0.09)">
     <defs>
      <path id="MicrosoftYaHei-Bold-33" d="M 494 1053 
Q 978 691 1625 691 
Q 2034 691 2275 872 
Q 2516 1053 2516 1388 
Q 2516 1731 2230 1912 
Q 1944 2094 1428 2094 
L 997 2094 
L 997 2872 
L 1394 2872 
Q 2369 2872 2369 3528 
Q 2369 4147 1622 4147 
Q 1134 4147 675 3828 
L 675 4663 
Q 1175 4922 1853 4922 
Q 2541 4922 2969 4605 
Q 3397 4288 3397 3725 
Q 3397 2775 2434 2531 
L 2434 2516 
Q 2941 2459 3244 2145 
Q 3547 1831 3547 1381 
Q 3547 691 3042 303 
Q 2538 -84 1697 -84 
Q 950 -84 494 163 
L 494 1053 
z
" transform="scale(0.015625)"/>
      <path id="MicrosoftYaHei-Bold-35" d="M 541 125 
L 541 997 
Q 1044 691 1613 691 
Q 2041 691 2283 902 
Q 2525 1113 2525 1472 
Q 2525 2225 1494 2225 
Q 1113 2225 616 2169 
L 797 4841 
L 3359 4841 
L 3359 4009 
L 1613 4009 
L 1544 2991 
Q 1803 3013 2022 3013 
Q 2731 3013 3142 2625 
Q 3553 2238 3553 1575 
Q 3553 844 3056 380 
Q 2559 -84 1706 -84 
Q 1016 -84 541 125 
z
" transform="scale(0.015625)"/>
      <path id="MicrosoftYaHei-Bold-25" d="M 297 3597 
Q 297 4191 626 4548 
Q 956 4906 1519 4906 
Q 2056 4906 2354 4581 
Q 2653 4256 2653 3684 
Q 2653 3097 2322 2744 
Q 1991 2391 1438 2391 
Q 919 2391 608 2722 
Q 297 3053 297 3597 
z
M 984 3631 
Q 984 2959 1478 2959 
Q 1981 2959 1981 3659 
Q 1981 4338 1500 4338 
Q 984 4338 984 3631 
z
M 4938 4841 
L 1791 -3 
L 1006 -3 
L 4147 4841 
L 4938 4841 
z
M 3297 1141 
Q 3297 1741 3631 2095 
Q 3966 2450 4522 2450 
Q 5059 2450 5357 2131 
Q 5656 1813 5656 1234 
Q 5656 641 5322 286 
Q 4988 -69 4438 -69 
Q 3922 -69 3609 264 
Q 3297 597 3297 1141 
z
M 3981 1175 
Q 3981 500 4478 500 
Q 4978 500 4978 1200 
Q 4978 1528 4845 1704 
Q 4713 1881 4491 1881 
Q 3981 1881 3981 1175 
z
" transform="scale(0.015625)"/>
     </defs>
     <use xlink:href="#MicrosoftYaHei-Bold-33"/>
     <use xlink:href="#MicrosoftYaHei-Bold-35" transform="translate(61.669922 0)"/>
     <use xlink:href="#MicrosoftYaHei-Bold-25" transform="translate(123.339844 0)"/>
    </g>
   </g>
   <g id="text_3">
    <!-- 三星电机 -->
    <g transform="translate(72.396538 207.659721) scale(0.08 -0.08)">
     <defs>
      <path id="MicrosoftYaHei-4e09" d="M 575 4691 
L 5813 4691 
L 5813 4153 
L 575 4153 
L 575 4691 
z
M 188 166 
L 6225 166 
L 6225 -359 
L 188 -359 
L 188 166 
z
M 856 2547 
L 5531 2547 
L 5531 2016 
L 856 2016 
L 856 2547 
z
" transform="scale(0.015625)"/>
      <path id="MicrosoftYaHei-661f" d="M 900 5047 
L 5600 5047 
L 5600 2422 
L 5125 2422 
L 5125 2641 
L 900 2641 
L 900 5047 
z
M 275 -141 
L 3113 -141 
L 3113 472 
L 1075 472 
L 1075 922 
L 3113 922 
L 3113 1497 
L 1294 1497 
Q 928 963 506 516 
Q 356 684 144 884 
Q 863 1597 1338 2547 
L 1813 2347 
Q 1700 2141 1584 1947 
L 3113 1947 
L 3113 2503 
L 3613 2503 
L 3613 1947 
L 5963 1947 
L 5963 1497 
L 3613 1497 
L 3613 922 
L 5794 922 
L 5794 472 
L 3613 472 
L 3613 -141 
L 6250 -141 
L 6250 -591 
L 275 -591 
L 275 -141 
z
M 1375 3078 
L 5125 3078 
L 5125 3634 
L 1375 3634 
L 1375 3078 
z
M 5125 4609 
L 1375 4609 
L 1375 4059 
L 5125 4059 
L 5125 4609 
z
" transform="scale(0.015625)"/>
      <path id="MicrosoftYaHei-7535" d="M 406 4497 
L 2713 4497 
L 2713 5297 
L 3231 5297 
L 3231 4497 
L 5544 4497 
L 5544 984 
L 3231 984 
L 3231 253 
Q 3231 -128 3631 -128 
L 5094 -128 
Q 5519 -128 5613 153 
Q 5713 459 5756 1034 
Q 5938 953 6275 841 
Q 6200 341 6106 -16 
Q 5950 -603 5256 -603 
L 3594 -603 
Q 2713 -603 2713 259 
L 2713 984 
L 925 984 
L 925 553 
L 406 553 
L 406 4497 
z
M 5025 1453 
L 5025 2522 
L 3231 2522 
L 3231 1453 
L 5025 1453 
z
M 925 1453 
L 2713 1453 
L 2713 2522 
L 925 2522 
L 925 1453 
z
M 5025 4028 
L 3231 4028 
L 3231 2966 
L 5025 2966 
L 5025 4028 
z
M 925 2966 
L 2713 2966 
L 2713 4028 
L 925 4028 
L 925 2966 
z
" transform="scale(0.015625)"/>
      <path id="MicrosoftYaHei-673a" d="M 3375 4434 
L 3375 2366 
Q 3375 128 2256 -878 
Q 2081 -666 1888 -453 
Q 2875 416 2875 2253 
L 2875 4909 
L 5200 4909 
L 5200 209 
Q 5200 -103 5419 -103 
L 5563 -103 
Q 5763 -103 5819 247 
Q 5881 728 5906 1284 
Q 6125 1178 6381 1084 
Q 6325 466 6269 72 
Q 6169 -591 5631 -591 
L 5300 -591 
Q 4700 -591 4700 122 
L 4700 4434 
L 3375 4434 
z
M 81 1403 
Q 781 2447 1078 3653 
L 144 3653 
L 144 4078 
L 1119 4078 
L 1119 5309 
L 1569 5309 
L 1569 4078 
L 2444 4078 
L 2444 3653 
L 1569 3653 
L 1569 2616 
L 1819 2866 
Q 2300 2428 2575 2153 
L 2238 1809 
Q 1853 2234 1569 2516 
L 1569 -784 
L 1119 -784 
L 1119 2566 
Q 784 1506 288 853 
Q 188 1134 81 1403 
z
" transform="scale(0.015625)"/>
     </defs>
     <use xlink:href="#MicrosoftYaHei-4e09"/>
     <use xlink:href="#MicrosoftYaHei-661f" transform="translate(100 0)"/>
     <use xlink:href="#MicrosoftYaHei-7535" transform="translate(200 0)"/>
     <use xlink:href="#MicrosoftYaHei-673a" transform="translate(300 0)"/>
    </g>
   </g>
   <g id="text_4">
    <!-- 23% -->
    <g transform="translate(102.550476 172.617852) scale(0.09 -0.09)">
     <defs>
      <path id="MicrosoftYaHei-Bold-32" d="M 1500 841 
L 3553 841 
L 3553 0 
L 334 0 
L 334 359 
Q 334 738 473 1050 
Q 613 1363 856 1633 
Q 1100 1903 1613 2266 
Q 2081 2616 2268 2886 
Q 2456 3156 2456 3459 
Q 2456 4113 1744 4113 
Q 1119 4113 550 3613 
L 550 4513 
Q 1184 4922 1975 4922 
Q 2700 4922 3122 4551 
Q 3544 4181 3544 3531 
Q 3544 3169 3422 2876 
Q 3300 2584 3069 2328 
Q 2838 2072 2328 1713 
Q 1838 1363 1669 1172 
Q 1500 981 1500 841 
z
" transform="scale(0.015625)"/>
     </defs>
     <use xlink:href="#MicrosoftYaHei-Bold-32"/>
     <use xlink:href="#MicrosoftYaHei-Bold-33" transform="translate(61.669922 0)"/>
     <use xlink:href="#MicrosoftYaHei-Bold-25" transform="translate(123.339844 0)"/>
    </g>
   </g>
   <g id="text_5">
    <!-- 国巨Yageo -->
    <g transform="translate(187.612396 174.665944) scale(0.08 -0.08)">
     <defs>
      <path id="MicrosoftYaHei-56fd" d="M 469 4997 
L 5938 4997 
L 5938 -834 
L 5456 -834 
L 5456 -522 
L 950 -522 
L 950 -841 
L 469 -841 
L 469 4997 
z
M 5456 4553 
L 950 4553 
L 950 -78 
L 5456 -78 
L 5456 4553 
z
M 1238 1009 
L 2963 1009 
L 2963 2247 
L 1456 2247 
L 1456 2672 
L 2963 2672 
L 2963 3509 
L 1338 3509 
L 1338 3934 
L 5063 3934 
L 5063 3509 
L 3425 3509 
L 3425 2672 
L 4938 2672 
L 4938 2247 
L 3425 2247 
L 3425 1009 
L 5163 1009 
L 5163 584 
L 1238 584 
L 1238 1009 
z
M 3750 1847 
L 4100 2109 
Q 4444 1753 4688 1441 
L 4319 1159 
Q 4019 1566 3750 1847 
z
" transform="scale(0.015625)"/>
      <path id="MicrosoftYaHei-5de8" d="M 650 4897 
L 6175 4897 
L 6175 4403 
L 1163 4403 
L 1163 3353 
L 5375 3353 
L 5375 841 
L 4869 841 
L 4869 1116 
L 1163 1116 
L 1163 -9 
L 6200 -9 
L 6200 -491 
L 650 -491 
L 650 4897 
z
M 4869 2891 
L 1163 2891 
L 1163 1578 
L 4869 1578 
L 4869 2891 
z
" transform="scale(0.015625)"/>
      <path id="MicrosoftYaHei-59" d="M 3828 4841 
L 2234 1781 
L 2234 0 
L 1606 0 
L 1606 1766 
L 53 4841 
L 769 4841 
L 1816 2697 
Q 1819 2694 1931 2388 
L 1941 2388 
Q 1978 2519 2069 2694 
L 3163 4841 
L 3828 4841 
z
" transform="scale(0.015625)"/>
      <path id="MicrosoftYaHei-67" d="M 3547 291 
Q 3547 -1628 1684 -1628 
Q 1041 -1628 566 -1388 
L 566 -797 
Q 1144 -1119 1675 -1119 
Q 2934 -1119 2934 206 
L 2934 572 
L 2922 572 
Q 2528 -81 1747 -81 
Q 1097 -81 706 384 
Q 316 850 316 1619 
Q 316 2503 747 3020 
Q 1178 3538 1897 3538 
Q 2588 3538 2922 2988 
L 2934 2988 
L 2934 3456 
L 3547 3456 
L 3547 291 
z
M 2934 2056 
Q 2938 2456 2666 2743 
Q 2394 3031 1997 3031 
Q 1497 3031 1219 2664 
Q 941 2297 941 1656 
Q 941 1106 1209 765 
Q 1478 425 1922 425 
Q 2369 425 2653 750 
Q 2938 1075 2934 1575 
L 2934 2056 
z
" transform="scale(0.015625)"/>
      <path id="MicrosoftYaHei-65" d="M 3363 1572 
L 944 1572 
Q 959 1019 1246 717 
Q 1534 416 2050 416 
Q 2631 416 3116 788 
L 3116 241 
Q 2659 -81 1906 -81 
Q 1156 -81 736 394 
Q 316 869 316 1713 
Q 316 2506 777 3022 
Q 1238 3538 1922 3538 
Q 2600 3538 2981 3102 
Q 3363 2666 3363 1881 
L 3363 1572 
z
M 2750 2063 
Q 2747 2531 2528 2787 
Q 2309 3044 1913 3044 
Q 1547 3044 1280 2772 
Q 1013 2500 944 2063 
L 2750 2063 
z
" transform="scale(0.015625)"/>
      <path id="MicrosoftYaHei-6f" d="M 316 1691 
Q 316 2547 794 3042 
Q 1272 3538 2091 3538 
Q 2869 3538 3311 3061 
Q 3753 2584 3753 1744 
Q 3753 925 3281 422 
Q 2809 -81 2016 -81 
Q 1241 -81 778 406 
Q 316 894 316 1691 
z
M 941 1709 
Q 941 1113 1242 769 
Q 1544 425 2053 425 
Q 2578 425 2853 761 
Q 3128 1097 3128 1725 
Q 3128 2356 2853 2693 
Q 2578 3031 2053 3031 
Q 1538 3031 1239 2678 
Q 941 2325 941 1709 
z
" transform="scale(0.015625)"/>
     </defs>
     <use xlink:href="#MicrosoftYaHei-56fd"/>
     <use xlink:href="#MicrosoftYaHei-5de8" transform="translate(100 0)"/>
     <use xlink:href="#MicrosoftYaHei-59" transform="translate(200 0)"/>
     <use xlink:href="#MicrosoftYaHei-61" transform="translate(249.851562 0)"/>
     <use xlink:href="#MicrosoftYaHei-67" transform="translate(305.125 0)"/>
     <use xlink:href="#MicrosoftYaHei-65" transform="translate(369.089844 0)"/>
     <use xlink:href="#MicrosoftYaHei-6f" transform="translate(425.828125 0)"/>
    </g>
   </g>
   <g id="text_6">
    <!-- 15% -->
    <g transform="translate(147.940944 154.646473) scale(0.09 -0.09)">
     <defs>
      <path id="MicrosoftYaHei-Bold-31" d="M 2716 4947 
L 2716 0 
L 1700 0 
L 1700 3809 
Q 1513 3647 1188 3517 
Q 863 3388 591 3356 
L 591 4222 
Q 1447 4472 2072 4947 
L 2716 4947 
z
" transform="scale(0.015625)"/>
     </defs>
     <use xlink:href="#MicrosoftYaHei-Bold-31"/>
     <use xlink:href="#MicrosoftYaHei-Bold-35" transform="translate(61.669922 0)"/>
     <use xlink:href="#MicrosoftYaHei-Bold-25" transform="translate(123.339844 0)"/>
    </g>
   </g>
   <g id="text_7">
    <!-- 太阳诱电 -->
    <g transform="translate(199.969216 115.043337) scale(0.08 -0.08)">
     <defs>
      <path id="MicrosoftYaHei-592a" d="M 81 -347 
Q 2525 969 2834 3284 
L 200 3284 
L 200 3772 
L 2878 3772 
Q 2900 4397 2900 5291 
L 3444 5291 
Q 3444 4494 3425 3772 
L 6194 3772 
L 6194 3284 
L 3453 3284 
Q 4106 747 6306 -197 
Q 6006 -491 5850 -697 
Q 3831 441 3197 2638 
Q 2675 488 469 -816 
Q 344 -653 81 -347 
z
M 2481 478 
L 2881 791 
Q 3331 309 3763 -178 
L 3319 -534 
Q 2931 -41 2481 478 
z
" transform="scale(0.015625)"/>
      <path id="MicrosoftYaHei-9633" d="M 2750 -809 
L 2750 4941 
L 5994 4941 
L 5994 -803 
L 5500 -803 
L 5500 -397 
L 3244 -397 
L 3244 -809 
L 2750 -809 
z
M 2338 1616 
Q 2506 428 1744 272 
Q 1438 228 1075 266 
Q 1025 522 938 791 
Q 1281 709 1550 741 
Q 1981 822 1838 1634 
Q 1750 2141 1275 2759 
Q 1556 3603 1838 4578 
L 875 4578 
L 875 -841 
L 400 -841 
L 400 5016 
L 2338 5016 
L 2338 4578 
Q 2106 3816 1769 2841 
Q 2269 2159 2338 1616 
z
M 3244 66 
L 5500 66 
L 5500 2091 
L 3244 2091 
L 3244 66 
z
M 5500 4478 
L 3244 4478 
L 3244 2541 
L 5500 2541 
L 5500 4478 
z
" transform="scale(0.015625)"/>
      <path id="MicrosoftYaHei-8bf1" d="M 1619 2397 
Q 2638 2756 3416 3428 
L 2000 3428 
L 2000 3841 
L 3744 3841 
L 3744 4497 
Q 3059 4472 2238 4447 
Q 2194 4678 2131 4909 
Q 4019 4941 5663 5053 
L 5769 4591 
Q 5131 4553 4200 4516 
L 4200 3841 
L 6025 3841 
L 6025 3428 
L 4519 3428 
Q 5213 2763 6319 2509 
Q 6131 2272 6013 2053 
Q 4881 2469 4200 3241 
L 4200 2159 
L 3744 2159 
L 3744 3247 
Q 2966 2456 1900 1991 
Q 1863 2072 1619 2397 
z
M 1538 -422 
Q 2388 -28 2681 422 
Q 2953 819 3000 1591 
L 2300 1591 
L 2300 2003 
L 5038 2003 
L 4906 1134 
L 5900 1134 
Q 5831 422 5756 -34 
Q 5656 -716 4913 -722 
Q 4444 -728 3950 -722 
Q 3919 -559 3806 -209 
Q 4338 -272 4881 -272 
Q 5250 -272 5313 97 
Q 5356 347 5400 722 
L 4381 722 
L 4525 1591 
L 3453 1591 
Q 3400 675 3081 159 
Q 2700 -428 1850 -859 
Q 1763 -691 1538 -422 
z
M 2050 1441 
Q 2094 1166 2169 922 
Q 1344 97 1025 -272 
L 669 134 
Q 856 384 856 784 
L 856 2797 
L 100 2797 
L 100 3234 
L 1319 3234 
L 1319 703 
Q 1669 1022 2050 1441 
z
M 706 5172 
Q 1363 4503 1650 4184 
L 1244 3841 
Q 825 4378 350 4859 
L 706 5172 
z
" transform="scale(0.015625)"/>
     </defs>
     <use xlink:href="#MicrosoftYaHei-592a"/>
     <use xlink:href="#MicrosoftYaHei-9633" transform="translate(100 0)"/>
     <use xlink:href="#MicrosoftYaHei-8bf1" transform="translate(200 0)"/>
     <use xlink:href="#MicrosoftYaHei-7535" transform="translate(300 0)"/>
    </g>
   </g>
   <g id="text_8">
    <!-- 10% -->
    <g transform="translate(154.681027 122.099824) scale(0.09 -0.09)">
     <defs>
      <path id="MicrosoftYaHei-Bold-30" d="M 244 2341 
Q 244 3597 706 4259 
Q 1169 4922 2044 4922 
Q 3713 4922 3713 2453 
Q 3713 1238 3259 577 
Q 2806 -84 1950 -84 
Q 244 -84 244 2341 
z
M 1266 2366 
Q 1266 691 1981 691 
Q 2684 691 2684 2416 
Q 2684 4147 2000 4147 
Q 1266 4147 1266 2366 
z
" transform="scale(0.015625)"/>
     </defs>
     <use xlink:href="#MicrosoftYaHei-Bold-31"/>
     <use xlink:href="#MicrosoftYaHei-Bold-30" transform="translate(61.669922 0)"/>
     <use xlink:href="#MicrosoftYaHei-Bold-25" transform="translate(123.339844 0)"/>
    </g>
   </g>
   <g id="text_9">
    <!-- TDK -->
    <g transform="translate(181.484398 77.31114) scale(0.08 -0.08)">
     <defs>
      <path id="MicrosoftYaHei-54" d="M 3550 4284 
L 2153 4284 
L 2153 0 
L 1525 0 
L 1525 4284 
L 134 4284 
L 134 4841 
L 3550 4841 
L 3550 4284 
z
" transform="scale(0.015625)"/>
      <path id="MicrosoftYaHei-44" d="M 625 0 
L 625 4841 
L 2006 4841 
Q 3106 4841 3836 4200 
Q 4566 3559 4566 2481 
Q 4566 1356 3836 678 
Q 3106 0 1956 0 
L 625 0 
z
M 1250 4284 
L 1250 553 
L 1953 553 
Q 2875 553 3392 1056 
Q 3909 1559 3909 2466 
Q 3909 3372 3378 3828 
Q 2847 4284 1981 4284 
L 1250 4284 
z
" transform="scale(0.015625)"/>
      <path id="MicrosoftYaHei-4b" d="M 4069 0 
L 3213 0 
L 1394 2200 
Q 1300 2316 1266 2381 
L 1250 2381 
L 1250 0 
L 625 0 
L 625 4841 
L 1250 4841 
L 1250 2563 
L 1266 2563 
Q 1319 2647 1394 2741 
L 3150 4841 
L 3922 4841 
L 1891 2519 
L 4069 0 
z
" transform="scale(0.015625)"/>
     </defs>
     <use xlink:href="#MicrosoftYaHei-54"/>
     <use xlink:href="#MicrosoftYaHei-44" transform="translate(57.324219 0)"/>
     <use xlink:href="#MicrosoftYaHei-4b" transform="translate(133.496094 0)"/>
    </g>
   </g>
   <g id="text_10">
    <!-- 7% -->
    <g transform="translate(147.373634 101.518626) scale(0.09 -0.09)">
     <defs>
      <path id="MicrosoftYaHei-Bold-37" d="M 3675 4225 
Q 3088 3172 2798 2528 
Q 2509 1884 2328 1275 
Q 2147 666 2050 0 
L 966 0 
Q 1122 947 1517 1917 
Q 1913 2888 2609 4009 
L 300 4009 
L 300 4841 
L 3675 4841 
L 3675 4225 
z
" transform="scale(0.015625)"/>
     </defs>
     <use xlink:href="#MicrosoftYaHei-Bold-37"/>
     <use xlink:href="#MicrosoftYaHei-Bold-25" transform="translate(61.669922 0)"/>
    </g>
   </g>
   <g id="text_11">
    <!-- 中国厂商 -->
    <g transform="translate(146.366507 54.243026) scale(0.08 -0.08)">
     <defs>
      <path id="MicrosoftYaHei-4e2d" d="M 525 3972 
L 2931 3972 
L 2931 5334 
L 3469 5334 
L 3469 3972 
L 5900 3972 
L 5900 1122 
L 5388 1122 
L 5388 1459 
L 3469 1459 
L 3469 -866 
L 2931 -866 
L 2931 1459 
L 1038 1459 
L 1038 1122 
L 525 1122 
L 525 3972 
z
M 5388 3509 
L 3469 3509 
L 3469 1922 
L 5388 1922 
L 5388 3509 
z
M 1038 1922 
L 2931 1922 
L 2931 3509 
L 1038 3509 
L 1038 1922 
z
" transform="scale(0.015625)"/>
      <path id="MicrosoftYaHei-5382" d="M 1000 4866 
L 6213 4866 
L 6213 4353 
L 1563 4353 
L 1563 2884 
Q 1563 1491 1356 759 
Q 1156 16 550 -759 
Q 406 -603 94 -366 
Q 650 316 825 947 
Q 1000 1541 1000 2772 
L 1000 4866 
z
" transform="scale(0.015625)"/>
      <path id="MicrosoftYaHei-5546" d="M 600 3309 
L 2119 3309 
Q 1903 3625 1650 3934 
L 2031 4191 
Q 2331 3841 2575 3541 
L 2238 3309 
L 3656 3309 
Q 3972 3716 4238 4166 
L 4713 3891 
Q 4416 3538 4213 3309 
L 5769 3309 
L 5769 34 
Q 5769 -753 5050 -759 
Q 4663 -766 4175 -753 
Q 4125 -391 4081 -228 
Q 4575 -278 4894 -278 
Q 5300 -278 5300 172 
L 5300 2878 
L 1069 2878 
L 1069 -834 
L 600 -834 
L 600 3309 
z
M 1950 -216 
L 1950 1797 
L 4456 1797 
L 4456 116 
L 2400 116 
L 2400 -216 
L 1950 -216 
z
M 144 4647 
L 2997 4647 
Q 2878 4869 2706 5141 
L 3188 5359 
Q 3375 5038 3581 4647 
L 6275 4647 
L 6275 4203 
L 144 4203 
L 144 4647 
z
M 4006 516 
L 4006 1397 
L 2400 1397 
L 2400 516 
L 4006 516 
z
M 2431 2809 
L 2769 2484 
Q 2038 1859 1400 1384 
Q 1213 1641 1106 1753 
Q 1794 2209 2431 2809 
z
M 3531 2466 
L 3806 2809 
Q 4731 2228 5206 1878 
L 4894 1484 
Q 4275 1984 3531 2466 
z
" transform="scale(0.015625)"/>
     </defs>
     <use xlink:href="#MicrosoftYaHei-4e2d"/>
     <use xlink:href="#MicrosoftYaHei-56fd" transform="translate(100 0)"/>
     <use xlink:href="#MicrosoftYaHei-5382" transform="translate(200 0)"/>
     <use xlink:href="#MicrosoftYaHei-5546" transform="translate(300 0)"/>
    </g>
   </g>
   <g id="text_12">
    <!-- 10% -->
    <g transform="translate(125.443186 88.936019) scale(0.09 -0.09)">
     <use xlink:href="#MicrosoftYaHei-Bold-31"/>
     <use xlink:href="#MicrosoftYaHei-Bold-30" transform="translate(61.669922 0)"/>
     <use xlink:href="#MicrosoftYaHei-Bold-25" transform="translate(123.339844 0)"/>
    </g>
   </g>
   <g id="text_13">
    <!-- 整体市场 -->
    <g style="fill: #1e293b" transform="translate(97.76406 31.286625) scale(0.12 -0.12)">
     <defs>
      <path id="MicrosoftYaHei-Bold-6574" d="M 150 -66 
L 1106 -66 
L 1106 903 
L 1944 903 
L 1944 -66 
L 2844 -66 
L 2844 1091 
L 513 1091 
L 513 1572 
L 444 1534 
Q 269 1809 44 2128 
Q 669 2366 1156 2791 
L 356 2791 
L 356 4141 
L 1488 4141 
L 1488 4397 
L 213 4397 
L 213 4966 
L 1488 4966 
L 1488 5309 
L 2194 5309 
L 2194 4966 
L 3425 4966 
L 3425 4397 
L 2194 4397 
L 2194 4141 
L 3325 4141 
L 3325 3803 
Q 3781 4509 4006 5347 
L 4744 5209 
Q 4663 4972 4581 4759 
L 6263 4759 
L 6263 4103 
L 5956 4103 
Q 5744 3297 5356 2784 
Q 5788 2516 6369 2416 
Q 6188 2153 5963 1716 
Q 5294 1922 4825 2259 
Q 4413 1947 3744 1666 
Q 3625 1828 3338 2216 
L 3044 1722 
Q 2600 2009 2194 2191 
L 2194 1784 
L 1488 1784 
L 1488 2378 
Q 1094 1947 638 1653 
L 5900 1653 
L 5900 1091 
L 3681 1091 
L 3681 778 
L 5531 778 
L 5531 247 
L 3681 247 
L 3681 -66 
L 6263 -66 
L 6263 -678 
L 150 -678 
L 150 -66 
z
M 2194 2791 
L 2194 2403 
L 2413 2753 
Q 2888 2547 3344 2309 
Q 3913 2484 4306 2747 
Q 4075 3022 3900 3384 
Q 3813 3259 3731 3153 
Q 3600 3253 3325 3441 
L 3325 2791 
L 2194 2791 
z
M 5225 4103 
L 4319 4103 
Q 4506 3597 4819 3234 
Q 5075 3597 5225 4103 
z
M 1019 3278 
L 1488 3278 
L 1488 3653 
L 1019 3653 
L 1019 3278 
z
M 2663 3278 
L 2663 3653 
L 2194 3653 
L 2194 3278 
L 2663 3278 
z
" transform="scale(0.015625)"/>
      <path id="MicrosoftYaHei-Bold-4f53" d="M 1100 5309 
L 1906 5103 
Q 1697 4303 1450 3613 
L 1450 1072 
Q 2450 2116 2934 3516 
L 1806 3516 
L 1806 4297 
L 3438 4297 
L 3438 5309 
L 4263 5309 
L 4263 4297 
L 6063 4297 
L 6063 3516 
L 4716 3516 
Q 5191 2188 6313 1166 
Q 6044 759 5769 278 
Q 5519 538 5300 853 
L 5300 209 
L 4263 209 
L 4263 -841 
L 3438 -841 
L 3438 209 
L 2431 209 
L 2431 878 
Q 2191 519 1906 191 
Q 1722 491 1450 900 
L 1450 -828 
L 700 -828 
L 700 1922 
Q 500 1563 288 1253 
Q 213 1822 88 2434 
Q 581 3359 1100 5309 
z
M 2509 997 
L 3438 997 
L 3438 3163 
Q 3138 1972 2509 997 
z
M 4263 3128 
L 4263 997 
L 5203 997 
Q 4634 1866 4263 3128 
z
" transform="scale(0.015625)"/>
      <path id="MicrosoftYaHei-Bold-5e02" d="M 1513 -191 
L 663 -191 
L 663 3003 
L 2750 3003 
L 2750 3728 
L 231 3728 
L 231 4541 
L 2678 4541 
Q 2556 4856 2444 5128 
L 3438 5359 
Q 3588 4969 3728 4541 
L 6200 4541 
L 6200 3728 
L 3650 3728 
L 3650 3003 
L 5888 3003 
L 5888 784 
Q 5888 509 5802 309 
Q 5716 109 5547 -9 
Q 5378 -128 5156 -161 
Q 4934 -194 4125 -203 
Q 4025 209 3894 609 
Q 4238 584 4600 584 
Q 5038 584 5038 1003 
L 5038 2216 
L 3650 2216 
L 3650 -853 
L 2750 -853 
L 2750 2216 
L 1513 2216 
L 1513 -191 
z
" transform="scale(0.015625)"/>
      <path id="MicrosoftYaHei-Bold-573a" d="M 3869 3053 
L 6113 3053 
Q 6113 1753 6038 378 
Q 5994 -659 5094 -722 
Q 4756 -747 4294 -759 
Q 4250 -391 4138 109 
Q 3781 -403 3300 -816 
Q 2944 -541 2544 -278 
Q 3906 759 4225 2303 
L 3719 2303 
Q 3375 1041 2550 284 
Q 2400 416 2256 534 
Q 2250 322 2256 72 
Q 1150 -153 244 -366 
L 81 528 
Q 444 591 813 659 
L 813 2866 
L 144 2866 
L 144 3722 
L 813 3722 
L 813 5303 
L 1644 5303 
L 1644 3722 
L 2238 3722 
L 2238 2866 
L 1644 2866 
L 1644 822 
Q 1794 853 1938 884 
Q 2631 1434 2925 2303 
L 2369 2303 
L 2369 3047 
L 4231 4253 
L 2363 4253 
L 2363 5003 
L 5700 5003 
L 5700 4284 
L 3869 3053 
z
M 4694 116 
Q 5213 116 5244 559 
Q 5300 1203 5325 2303 
L 5000 2303 
Q 4769 1047 4156 134 
Q 4450 116 4694 116 
z
" transform="scale(0.015625)"/>
     </defs>
     <use xlink:href="#MicrosoftYaHei-Bold-6574"/>
     <use xlink:href="#MicrosoftYaHei-Bold-4f53" transform="translate(100 0)"/>
     <use xlink:href="#MicrosoftYaHei-Bold-5e02" transform="translate(200 0)"/>
     <use xlink:href="#MicrosoftYaHei-Bold-573a" transform="translate(300 0)"/>
    </g>
   </g>
  </g>
  <g id="axes_2">
   <g id="patch_8">
    <path d="M 402.403814 55.381025 
C 386.344274 55.381025 370.732604 60.726094 358.043077 70.569098 
C 345.35355 80.412102 336.29394 94.204037 332.300092 109.759037 
C 328.306245 125.314036 329.600921 141.764502 335.97893 156.50322 
C 342.356939 171.241939 353.462539 183.446841 367.535619 191.183588 
L 402.403814 127.758625 
z
" style="fill: #1d4ed8"/>
   </g>
   <g id="patch_9">
    <path d="M 367.535626 191.183593 
C 376.199918 195.946829 385.749074 198.884536 395.592479 199.81501 
C 405.435882 200.745488 415.366332 199.649152 424.769699 196.593819 
C 434.173067 193.538486 442.851379 188.588469 450.267945 182.049897 
C 457.684511 175.511324 463.683202 167.521819 467.893008 158.57554 
L 402.403814 127.758625 
z
" style="fill: #2563eb"/>
   </g>
   <g id="patch_10">
    <path d="M 467.893008 158.57554 
C 471.777004 150.321636 474.06581 141.407356 474.638593 132.303276 
C 475.211377 123.199195 474.057889 114.068378 471.239017 105.392761 
L 402.403814 127.758625 
z
" style="fill: #3b82f6"/>
   </g>
   <g id="patch_11">
    <path d="M 471.239017 105.392761 
C 469.362836 99.618456 466.767513 94.103108 463.514265 88.976802 
C 460.261016 83.850495 456.375618 79.153851 451.949714 74.997647 
L 402.403814 127.758625 
z
" style="fill: #60a5fa"/>
   </g>
   <g id="patch_12">
    <path d="M 451.949714 74.997647 
C 448.078229 71.36208 443.818324 68.16365 439.247002 65.460178 
C 434.67568 62.756707 429.82065 60.564578 424.769676 58.923422 
L 402.403814 127.758625 
z
" style="fill: #93c5fd"/>
   </g>
   <g id="patch_13">
    <path d="M 424.769676 58.923422 
C 421.163631 57.75175 417.471084 56.865249 413.726146 56.272112 
C 409.981207 55.678974 406.195443 55.381025 402.403824 55.381025 
L 402.403814 127.758625 
z
" style="fill: #f59e0b"/>
   </g>
   <g id="matplotlib.axis_3"/>
   <g id="matplotlib.axis_4"/>
   <g id="text_14">
    <!-- Murata村田 -->
    <g transform="translate(281.663467 110.162214) scale(0.08 -0.08)">
     <use xlink:href="#MicrosoftYaHei-4d"/>
     <use xlink:href="#MicrosoftYaHei-75" transform="translate(97.705078 0)"/>
     <use xlink:href="#MicrosoftYaHei-72" transform="translate(159.326172 0)"/>
     <use xlink:href="#MicrosoftYaHei-61" transform="translate(197.509766 0)"/>
     <use xlink:href="#MicrosoftYaHei-74" transform="translate(252.783203 0)"/>
     <use xlink:href="#MicrosoftYaHei-61" transform="translate(290.039062 0)"/>
     <use xlink:href="#MicrosoftYaHei-6751" transform="translate(345.3125 0)"/>
     <use xlink:href="#MicrosoftYaHei-7530" transform="translate(445.3125 0)"/>
    </g>
   </g>
   <g id="text_15">
    <!-- 42% -->
    <g transform="translate(350.601189 119.437394) scale(0.09 -0.09)">
     <defs>
      <path id="MicrosoftYaHei-Bold-34" d="M 3184 4841 
L 3184 1766 
L 3869 1766 
L 3869 1031 
L 3184 1031 
L 3184 0 
L 2266 0 
L 2266 1031 
L 103 1031 
L 103 1772 
Q 775 2522 1362 3359 
Q 1950 4197 2250 4841 
L 3184 4841 
z
M 997 1766 
L 2266 1766 
L 2266 3541 
Q 2116 3259 1836 2859 
Q 1556 2459 997 1766 
z
" transform="scale(0.015625)"/>
     </defs>
     <use xlink:href="#MicrosoftYaHei-Bold-34"/>
     <use xlink:href="#MicrosoftYaHei-Bold-32" transform="translate(61.669922 0)"/>
     <use xlink:href="#MicrosoftYaHei-Bold-25" transform="translate(123.339844 0)"/>
    </g>
   </g>
   <g id="text_16">
    <!-- 三星电机 -->
    <g transform="translate(427.006288 205.680465) scale(0.08 -0.08)">
     <use xlink:href="#MicrosoftYaHei-4e09"/>
     <use xlink:href="#MicrosoftYaHei-661f" transform="translate(100 0)"/>
     <use xlink:href="#MicrosoftYaHei-7535" transform="translate(200 0)"/>
     <use xlink:href="#MicrosoftYaHei-673a" transform="translate(300 0)"/>
    </g>
   </g>
   <g id="text_17">
    <!-- 26% -->
    <g transform="translate(406.082955 171.538258) scale(0.09 -0.09)">
     <defs>
      <path id="MicrosoftYaHei-Bold-36" d="M 3378 3938 
Q 3009 4147 2575 4147 
Q 2016 4147 1680 3708 
Q 1344 3269 1344 2572 
L 1363 2572 
Q 1709 3103 2391 3103 
Q 3000 3103 3358 2686 
Q 3716 2269 3716 1600 
Q 3716 869 3250 392 
Q 2784 -84 2059 -84 
Q 1228 -84 786 516 
Q 344 1116 344 2159 
Q 344 3388 917 4155 
Q 1491 4922 2513 4922 
Q 3063 4922 3378 4791 
L 3378 3938 
z
M 1378 1591 
Q 1378 1216 1565 953 
Q 1753 691 2059 691 
Q 2369 691 2547 931 
Q 2725 1172 2725 1534 
Q 2725 2350 2053 2350 
Q 1750 2350 1564 2134 
Q 1378 1919 1378 1591 
z
" transform="scale(0.015625)"/>
     </defs>
     <use xlink:href="#MicrosoftYaHei-Bold-32"/>
     <use xlink:href="#MicrosoftYaHei-Bold-36" transform="translate(61.669922 0)"/>
     <use xlink:href="#MicrosoftYaHei-Bold-25" transform="translate(123.339844 0)"/>
    </g>
   </g>
   <g id="text_18">
    <!-- 太阳诱电 -->
    <g transform="translate(481.86207 134.960866) scale(0.08 -0.08)">
     <use xlink:href="#MicrosoftYaHei-592a"/>
     <use xlink:href="#MicrosoftYaHei-9633" transform="translate(100 0)"/>
     <use xlink:href="#MicrosoftYaHei-8bf1" transform="translate(200 0)"/>
     <use xlink:href="#MicrosoftYaHei-7535" transform="translate(300 0)"/>
    </g>
   </g>
   <g id="text_19">
    <!-- 12% -->
    <g transform="translate(436.00429 132.963931) scale(0.09 -0.09)">
     <use xlink:href="#MicrosoftYaHei-Bold-31"/>
     <use xlink:href="#MicrosoftYaHei-Bold-32" transform="translate(61.669922 0)"/>
     <use xlink:href="#MicrosoftYaHei-Bold-25" transform="translate(123.339844 0)"/>
    </g>
   </g>
   <g id="text_20">
    <!-- TDK -->
    <g transform="translate(469.625309 87.301744) scale(0.08 -0.08)">
     <use xlink:href="#MicrosoftYaHei-54"/>
     <use xlink:href="#MicrosoftYaHei-44" transform="translate(57.324219 0)"/>
     <use xlink:href="#MicrosoftYaHei-4b" transform="translate(133.496094 0)"/>
    </g>
   </g>
   <g id="text_21">
    <!-- 8% -->
    <g transform="translate(432.104928 106.968046) scale(0.09 -0.09)">
     <defs>
      <path id="MicrosoftYaHei-Bold-38" d="M 269 1303 
Q 269 1725 512 2053 
Q 756 2381 1219 2534 
Q 850 2719 648 3003 
Q 447 3288 447 3634 
Q 447 3997 645 4292 
Q 844 4588 1200 4755 
Q 1556 4922 1997 4922 
Q 2441 4922 2800 4758 
Q 3159 4594 3359 4298 
Q 3559 4003 3559 3647 
Q 3559 3309 3339 3018 
Q 3119 2728 2747 2559 
Q 3200 2403 3453 2076 
Q 3706 1750 3706 1313 
Q 3706 697 3228 309 
Q 2750 -78 1988 -78 
Q 1225 -78 747 309 
Q 269 697 269 1303 
z
M 1278 1394 
Q 1278 1056 1472 853 
Q 1666 650 1991 650 
Q 2303 650 2503 853 
Q 2703 1056 2703 1394 
Q 2703 1709 2500 1920 
Q 2297 2131 1991 2131 
Q 1675 2131 1476 1920 
Q 1278 1709 1278 1394 
z
M 1428 3531 
Q 1428 3266 1592 3077 
Q 1756 2888 2006 2888 
Q 2247 2888 2415 3072 
Q 2584 3256 2584 3531 
Q 2584 3806 2420 3997 
Q 2256 4188 2006 4188 
Q 1750 4188 1589 3997 
Q 1428 3806 1428 3531 
z
" transform="scale(0.015625)"/>
     </defs>
     <use xlink:href="#MicrosoftYaHei-Bold-38"/>
     <use xlink:href="#MicrosoftYaHei-Bold-25" transform="translate(61.669922 0)"/>
    </g>
   </g>
   <g id="text_22">
    <!-- 国巨Yageo -->
    <g transform="translate(442.931321 61.387209) scale(0.08 -0.08)">
     <use xlink:href="#MicrosoftYaHei-56fd"/>
     <use xlink:href="#MicrosoftYaHei-5de8" transform="translate(100 0)"/>
     <use xlink:href="#MicrosoftYaHei-59" transform="translate(200 0)"/>
     <use xlink:href="#MicrosoftYaHei-61" transform="translate(249.851562 0)"/>
     <use xlink:href="#MicrosoftYaHei-67" transform="translate(305.125 0)"/>
     <use xlink:href="#MicrosoftYaHei-65" transform="translate(369.089844 0)"/>
     <use xlink:href="#MicrosoftYaHei-6f" transform="translate(425.828125 0)"/>
    </g>
   </g>
   <g id="text_23">
    <!-- 7% -->
    <g transform="translate(417.544571 92.858073) scale(0.09 -0.09)">
     <use xlink:href="#MicrosoftYaHei-Bold-37"/>
     <use xlink:href="#MicrosoftYaHei-Bold-25" transform="translate(61.669922 0)"/>
    </g>
   </g>
   <g id="text_24">
    <!-- 中国厂商 -->
    <g transform="translate(414.858379 51.326584) scale(0.08 -0.08)">
     <use xlink:href="#MicrosoftYaHei-4e2d"/>
     <use xlink:href="#MicrosoftYaHei-56fd" transform="translate(100 0)"/>
     <use xlink:href="#MicrosoftYaHei-5382" transform="translate(200 0)"/>
     <use xlink:href="#MicrosoftYaHei-5546" transform="translate(300 0)"/>
    </g>
   </g>
   <g id="text_25">
    <!-- 5% -->
    <g transform="translate(402.232057 87.345232) scale(0.09 -0.09)">
     <use xlink:href="#MicrosoftYaHei-Bold-35"/>
     <use xlink:href="#MicrosoftYaHei-Bold-25" transform="translate(61.669922 0)"/>
    </g>
   </g>
   <g id="text_26">
    <!-- 高端市场 -->
    <g style="fill: #1e293b" transform="translate(378.403814 16.7925) scale(0.12 -0.12)">
     <defs>
      <path id="MicrosoftYaHei-Bold-9ad8" d="M 138 4853 
L 2734 4853 
Q 2647 5063 2569 5234 
L 3575 5384 
Q 3688 5103 3778 4853 
L 6275 4853 
L 6275 4216 
L 138 4216 
L 138 4853 
z
M 1031 2553 
L 1031 3953 
L 5394 3953 
L 5394 2553 
L 1031 2553 
z
M 4556 3091 
L 4556 3416 
L 1869 3416 
L 1869 3091 
L 4556 3091 
z
M 438 2284 
L 6000 2284 
L 6000 222 
Q 6000 -225 5825 -469 
Q 5650 -713 5356 -764 
Q 5063 -816 4156 -816 
Q 4088 -434 3994 -84 
Q 4350 -116 4756 -116 
Q 5175 -116 5175 291 
L 5175 1659 
L 1263 1659 
L 1263 -797 
L 438 -797 
L 438 2284 
z
M 1806 -228 
L 1806 1384 
L 4619 1384 
L 4619 -34 
L 2556 -34 
L 2556 -228 
L 1806 -228 
z
M 3869 491 
L 3869 859 
L 2556 859 
L 2556 491 
L 3869 491 
z
" transform="scale(0.015625)"/>
      <path id="MicrosoftYaHei-Bold-7aef" d="M 2513 3541 
L 2513 4966 
L 3238 4966 
L 3238 4266 
L 3813 4266 
L 3813 5359 
L 4619 5359 
L 4619 4266 
L 5200 4266 
L 5200 4966 
L 5925 4966 
L 5925 3541 
L 2513 3541 
z
M 156 4241 
L 909 4241 
Q 703 4738 538 5059 
L 1275 5353 
Q 1444 5047 1731 4472 
L 1159 4241 
L 2225 4241 
L 2225 3453 
L 156 3453 
L 156 4241 
z
M 1438 3322 
L 2194 3228 
L 1766 728 
L 2194 803 
Q 2169 603 2138 16 
Q 1263 -134 225 -359 
L 88 459 
L 1116 622 
Q 1294 1909 1438 3322 
z
M 838 3297 
L 1163 1034 
L 469 916 
Q 344 2078 163 3184 
L 838 3297 
z
M 2288 3184 
L 6175 3184 
L 6175 2447 
L 4488 2447 
L 4388 2053 
L 6088 2053 
L 6088 -322 
Q 6088 -650 5878 -747 
Q 5669 -844 5384 -844 
Q 5178 -844 4969 -809 
L 4928 -497 
L 4381 -497 
L 4381 1316 
L 4025 1316 
L 4025 -497 
L 3413 -497 
L 3413 1316 
L 3056 1316 
L 3056 -809 
L 2319 -809 
L 2319 2053 
L 3609 2053 
L 3691 2447 
L 2288 2447 
L 2288 3184 
z
M 5350 1316 
L 4994 1316 
L 4994 -116 
Q 5169 -134 5216 -134 
Q 5356 -134 5350 22 
L 5350 1316 
z
" transform="scale(0.015625)"/>
     </defs>
     <use xlink:href="#MicrosoftYaHei-Bold-9ad8"/>
     <use xlink:href="#MicrosoftYaHei-Bold-7aef" transform="translate(100 0)"/>
     <use xlink:href="#MicrosoftYaHei-Bold-5e02" transform="translate(200 0)"/>
     <use xlink:href="#MicrosoftYaHei-Bold-573a" transform="translate(300 0)"/>
    </g>
    <!-- (01005/008004等微型规格) -->
    <g style="fill: #1e293b" transform="translate(324.188189 31.286625) scale(0.12 -0.12)">
     <defs>
      <path id="MicrosoftYaHei-Bold-28" d="M 1606 -1100 
Q 525 97 525 1853 
Q 525 3550 1606 4841 
L 2431 4841 
Q 1406 3497 1406 1853 
Q 1406 216 2438 -1100 
L 1606 -1100 
z
" transform="scale(0.015625)"/>
      <path id="MicrosoftYaHei-Bold-2f" d="M 3100 4841 
L 747 -803 
L -156 -803 
L 2188 4841 
L 3100 4841 
z
" transform="scale(0.015625)"/>
      <path id="MicrosoftYaHei-Bold-7b49" d="M 338 1328 
L 4069 1328 
L 4069 1666 
L 125 1666 
L 125 2328 
L 2750 2328 
L 2750 2703 
L 563 2703 
L 563 3366 
L 2750 3366 
L 2750 3822 
L 3516 3822 
L 3181 4047 
Q 3247 4131 3313 4222 
L 2144 4222 
Q 2403 3938 2531 3784 
L 1950 3378 
Q 1825 3559 1463 3997 
L 1769 4222 
L 1272 4222 
Q 981 3838 656 3503 
Q 425 3753 81 4053 
Q 675 4653 1063 5347 
L 2000 5347 
Q 1847 5072 1684 4816 
L 3363 4816 
L 3363 4291 
Q 3722 4797 3975 5347 
L 4931 5347 
Q 4803 5069 4666 4816 
L 6225 4816 
L 6225 4222 
L 5231 4222 
Q 5434 4013 5625 3803 
L 5031 3397 
Q 4731 3778 4488 4047 
L 4734 4222 
L 4309 4222 
Q 4084 3881 3838 3591 
Q 3756 3653 3606 3759 
L 3606 3366 
L 5850 3366 
L 5850 2703 
L 3606 2703 
L 3606 2328 
L 6288 2328 
L 6288 1666 
L 4938 1666 
L 4938 1328 
L 6075 1328 
L 6075 653 
L 4938 653 
L 4938 16 
Q 4938 -375 4758 -576 
Q 4578 -778 4236 -790 
Q 3894 -803 3019 -809 
Q 2956 -434 2850 59 
Q 3566 28 3728 28 
Q 4069 28 4069 416 
L 4069 653 
L 2225 653 
Q 2463 341 2675 47 
L 1931 -441 
Q 1609 94 1231 653 
L 338 653 
L 338 1328 
z
" transform="scale(0.015625)"/>
      <path id="MicrosoftYaHei-Bold-5fae" d="M 4275 728 
Q 4288 466 4306 253 
Q 4566 541 4766 884 
Q 4488 1613 4397 2528 
Q 4316 2394 4231 2266 
Q 4113 2597 3919 2959 
Q 3953 3019 3988 3084 
L 1878 3084 
Q 1663 2728 1431 2394 
L 1431 -834 
L 694 -834 
L 694 1428 
Q 509 1213 319 1009 
Q 219 1359 25 1872 
Q 744 2672 1294 3622 
L 1756 3281 
L 1756 4659 
Q 1166 3869 506 3222 
Q 275 3591 38 3922 
Q 713 4534 1263 5322 
L 1906 4866 
Q 1859 4800 1809 4734 
L 2363 4734 
L 2363 3647 
L 2613 3647 
L 2613 5266 
L 3219 5266 
L 3219 3647 
L 3469 3647 
L 3469 4734 
L 4075 4734 
L 4075 3259 
Q 4463 4075 4731 5347 
L 5463 5191 
Q 5350 4719 5203 4278 
L 6306 4278 
L 6306 3534 
L 6094 3534 
Q 6003 1991 5563 881 
Q 5866 378 6313 47 
Q 6075 -497 5975 -834 
Q 5500 -444 5166 81 
Q 4831 -463 4381 -866 
Q 4247 -509 4063 -216 
Q 3659 -494 3388 -716 
L 3031 -247 
Q 3175 -72 3169 134 
L 3169 1053 
L 2613 1053 
Q 2625 -228 1950 -822 
Q 1769 -566 1481 -284 
Q 1672 -109 1784 134 
Q 1897 378 1926 622 
Q 1956 866 1956 1678 
L 3838 1678 
L 3838 403 
Q 3975 497 4275 728 
z
M 5156 1809 
Q 5384 2572 5413 3534 
L 4916 3534 
L 4903 3503 
Q 4938 2547 5156 1809 
z
M 1806 2691 
L 4019 2691 
L 4019 2072 
L 1806 2072 
L 1806 2691 
z
" transform="scale(0.015625)"/>
      <path id="MicrosoftYaHei-Bold-578b" d="M 5963 5216 
L 5963 2547 
Q 5963 2141 5752 1928 
Q 5541 1716 5095 1700 
Q 4650 1684 4269 1684 
Q 4231 2059 4150 2447 
Q 4469 2428 4813 2428 
Q 5150 2428 5150 2709 
L 5150 5216 
L 5963 5216 
z
M 150 3491 
L 891 3491 
Q 900 3616 900 4341 
L 325 4341 
L 325 5066 
L 3625 5066 
L 3625 4341 
L 3113 4341 
L 3113 3491 
L 3750 3491 
L 3750 2766 
L 3113 2766 
L 3113 2091 
L 3656 2091 
L 3656 1441 
L 5781 1441 
L 5781 678 
L 3656 678 
L 3656 103 
L 6294 103 
L 6294 -647 
L 138 -647 
L 138 103 
L 2763 103 
L 2763 678 
L 650 678 
L 650 1441 
L 2763 1441 
L 2763 1766 
L 2350 1766 
L 2350 2766 
L 1559 2766 
Q 1375 2016 888 1522 
Q 675 1697 275 2009 
Q 584 2334 741 2766 
L 150 2766 
L 150 3491 
z
M 1663 3491 
L 2350 3491 
L 2350 4341 
L 1669 4341 
Q 1669 3753 1663 3491 
z
M 3900 4866 
L 4650 4866 
L 4650 2753 
L 3900 2753 
L 3900 4866 
z
" transform="scale(0.015625)"/>
      <path id="MicrosoftYaHei-Bold-89c4" d="M 88 2766 
L 894 2766 
L 894 3516 
L 188 3516 
L 188 4291 
L 894 4291 
L 894 5284 
L 1694 5284 
L 1694 4291 
L 2400 4291 
L 2400 3516 
L 1694 3516 
L 1694 2766 
L 2488 2766 
L 2488 1984 
L 1675 1984 
Q 1666 1816 1647 1656 
Q 2091 1247 2650 666 
Q 2306 341 2088 91 
Q 1869 369 1506 788 
Q 1278 -194 769 -878 
Q 369 -447 75 -178 
Q 747 550 866 1984 
L 88 1984 
L 88 2766 
z
M 2650 1128 
L 2650 5066 
L 5913 5066 
L 5913 1197 
L 5100 1197 
L 5100 4259 
L 3463 4259 
L 3463 1128 
L 2650 1128 
z
M 5525 978 
Q 6000 747 6306 628 
Q 6184 -291 6031 -522 
Q 5878 -753 5469 -753 
L 4906 -753 
Q 4188 -753 4188 -78 
L 4188 644 
Q 3728 -297 2613 -884 
Q 2394 -572 2044 -172 
Q 3225 394 3540 1169 
Q 3856 1944 3856 3872 
L 4688 3872 
Q 4675 2513 4506 1641 
L 4931 1641 
L 4931 222 
Q 4931 -28 5150 -28 
L 5219 -28 
Q 5369 -28 5417 112 
Q 5466 253 5525 978 
z
" transform="scale(0.015625)"/>
      <path id="MicrosoftYaHei-Bold-683c" d="M 75 1703 
Q 569 2522 809 3391 
L 119 3391 
L 119 4203 
L 863 4203 
L 863 5303 
L 1656 5303 
L 1656 4203 
L 2281 4203 
L 2281 3778 
Q 2950 4500 3369 5359 
L 4256 5222 
Q 4122 4959 3978 4716 
L 6013 4716 
L 6013 3997 
Q 5625 3306 5000 2831 
Q 5534 2656 6300 2534 
Q 6181 2153 6106 1728 
Q 4947 1975 4206 2356 
Q 3450 1997 2325 1728 
L 2256 1881 
L 2000 1553 
Q 1834 1697 1656 1844 
L 1656 -841 
L 863 -841 
L 863 1728 
Q 622 1134 275 559 
Q 175 1184 75 1703 
z
M 3472 3953 
Q 3791 3488 4206 3206 
Q 4716 3534 4994 3997 
L 3503 3997 
L 3472 3953 
z
M 2119 2469 
Q 2906 2634 3466 2847 
Q 3191 3078 2972 3353 
Q 2763 3128 2538 2928 
Q 2331 3191 2144 3391 
L 1656 3391 
L 1656 2778 
L 2119 2469 
z
M 2506 -834 
L 2506 1722 
L 5869 1722 
L 5869 -822 
L 5025 -822 
L 5025 -509 
L 3350 -509 
L 3350 -834 
L 2506 -834 
z
M 5025 947 
L 3350 947 
L 3350 266 
L 5025 266 
L 5025 947 
z
" transform="scale(0.015625)"/>
      <path id="MicrosoftYaHei-Bold-29" d="M 59 -1100 
Q 1097 216 1097 1853 
Q 1097 3484 59 4841 
L 888 4841 
Q 1978 3544 1978 1853 
Q 1978 113 881 -1100 
L 59 -1100 
z
" transform="scale(0.015625)"/>
     </defs>
     <use xlink:href="#MicrosoftYaHei-Bold-28"/>
     <use xlink:href="#MicrosoftYaHei-Bold-30" transform="translate(38.964844 0)"/>
     <use xlink:href="#MicrosoftYaHei-Bold-31" transform="translate(100.634766 0)"/>
     <use xlink:href="#MicrosoftYaHei-Bold-30" transform="translate(162.304688 0)"/>
     <use xlink:href="#MicrosoftYaHei-Bold-30" transform="translate(223.974609 0)"/>
     <use xlink:href="#MicrosoftYaHei-Bold-35" transform="translate(285.644531 0)"/>
     <use xlink:href="#MicrosoftYaHei-Bold-2f" transform="translate(347.314453 0)"/>
     <use xlink:href="#MicrosoftYaHei-Bold-30" transform="translate(394.580078 0)"/>
     <use xlink:href="#MicrosoftYaHei-Bold-30" transform="translate(456.25 0)"/>
     <use xlink:href="#MicrosoftYaHei-Bold-38" transform="translate(517.919922 0)"/>
     <use xlink:href="#MicrosoftYaHei-Bold-30" transform="translate(579.589844 0)"/>
     <use xlink:href="#MicrosoftYaHei-Bold-30" transform="translate(641.259766 0)"/>
     <use xlink:href="#MicrosoftYaHei-Bold-34" transform="translate(702.929688 0)"/>
     <use xlink:href="#MicrosoftYaHei-Bold-7b49" transform="translate(764.599609 0)"/>
     <use xlink:href="#MicrosoftYaHei-Bold-5fae" transform="translate(864.599609 0)"/>
     <use xlink:href="#MicrosoftYaHei-Bold-578b" transform="translate(964.599609 0)"/>
     <use xlink:href="#MicrosoftYaHei-Bold-89c4" transform="translate(1064.599609 0)"/>
     <use xlink:href="#MicrosoftYaHei-Bold-683c" transform="translate(1164.599609 0)"/>
     <use xlink:href="#MicrosoftYaHei-Bold-29" transform="translate(1264.599609 0)"/>
    </g>
   </g>
  </g>
  <g id="text_27">
   <!-- 数据来源：TrendForce集邦咨询、各公司公开财报 | 中国厂商市占率为行业共识区间 -->
   <g style="fill: #94a3b8" transform="translate(130.827263 235.710625) scale(0.07 -0.07)">
    <defs>
     <path id="MicrosoftYaHei-6570" d="M 4175 5303 
L 4675 5228 
Q 4544 4622 4369 4097 
L 6281 4097 
L 6281 3672 
L 5888 3672 
Q 5731 1834 5088 753 
Q 5594 66 6375 -372 
Q 6175 -647 6038 -866 
Q 5275 -372 4769 309 
Q 4194 -403 3400 -928 
Q 3263 -747 3044 -534 
Q 3919 41 4463 772 
Q 3956 1647 3794 2791 
Q 3663 2559 3519 2359 
Q 3394 2541 3206 2759 
Q 3931 3803 4175 5303 
z
M 150 1697 
L 1100 1697 
Q 1238 1934 1369 2184 
L 1819 2041 
Q 1719 1866 1619 1697 
L 3150 1697 
L 3150 1291 
Q 2913 678 2431 216 
Q 2775 53 3131 -109 
L 2856 -541 
Q 2469 -322 2050 -103 
Q 1344 -609 269 -903 
Q 169 -703 56 -466 
Q 969 -259 1600 128 
Q 1063 403 475 691 
Q 675 978 863 1284 
L 150 1284 
L 150 1697 
z
M 219 3847 
L 1656 3847 
L 1656 5247 
L 2119 5247 
L 2119 3847 
L 3319 3847 
L 3319 3434 
L 2119 3434 
L 2119 3053 
L 2306 3266 
Q 2888 2841 3281 2516 
L 2981 2166 
Q 2638 2491 2119 2897 
L 2119 2184 
L 1656 2184 
L 1656 3059 
Q 1088 2466 331 2016 
Q 213 2197 63 2397 
Q 850 2822 1506 3434 
L 219 3434 
L 219 3847 
z
M 5388 3672 
L 4219 3672 
Q 4188 3591 4150 3516 
Q 4263 2191 4775 1247 
Q 5275 2159 5388 3672 
z
M 1088 834 
Q 1531 634 2000 416 
Q 2431 784 2675 1284 
L 1375 1284 
Q 1231 1053 1088 834 
z
M 3038 5091 
L 3425 4834 
Q 3081 4384 2738 4003 
Q 2594 4128 2400 4266 
Q 2725 4647 3038 5091 
z
M 381 4816 
L 738 5059 
Q 1019 4716 1319 4322 
L 931 4047 
Q 656 4453 381 4816 
z
" transform="scale(0.015625)"/>
     <path id="MicrosoftYaHei-636e" d="M 2900 1334 
L 4188 1334 
L 4188 2128 
L 2731 2128 
Q 2663 206 1844 -841 
Q 1694 -647 1506 -447 
Q 2288 516 2288 2509 
L 2288 4947 
L 5975 4947 
L 5975 3134 
L 5525 3134 
L 5525 3328 
L 2738 3328 
L 2738 2553 
L 4188 2553 
L 4188 3209 
L 4638 3209 
L 4638 2553 
L 6288 2553 
L 6288 2128 
L 4638 2128 
L 4638 1334 
L 5938 1334 
L 5938 -778 
L 5488 -778 
L 5488 -416 
L 3350 -416 
L 3350 -778 
L 2900 -778 
L 2900 1334 
z
M 100 1966 
Q 544 2088 963 2213 
L 963 3641 
L 175 3641 
L 175 4091 
L 963 4091 
L 963 5284 
L 1425 5284 
L 1425 4091 
L 2106 4091 
L 2106 3641 
L 1425 3641 
L 1425 2356 
Q 1722 2450 2006 2547 
Q 2013 2266 2044 2059 
Q 1722 1956 1425 1856 
L 1425 -34 
Q 1425 -741 806 -753 
Q 613 -759 231 -747 
Q 206 -497 156 -228 
Q 500 -266 681 -266 
Q 963 -266 963 53 
L 963 1703 
Q 534 1559 163 1428 
L 100 1966 
z
M 5525 4534 
L 2738 4534 
L 2738 3741 
L 5525 3741 
L 5525 4534 
z
M 5488 922 
L 3350 922 
L 3350 -9 
L 5488 -9 
L 5488 922 
z
" transform="scale(0.015625)"/>
     <path id="MicrosoftYaHei-6765" d="M 6325 141 
Q 6119 -122 5975 -334 
Q 4344 403 3438 1550 
L 3438 -841 
L 2963 -841 
L 2963 1584 
Q 2050 516 413 -409 
Q 281 -222 75 22 
Q 1706 841 2806 1922 
L 181 1922 
L 181 2359 
L 2963 2359 
L 2963 4003 
L 550 4003 
L 550 4441 
L 2963 4441 
L 2963 5341 
L 3438 5341 
L 3438 4441 
L 5900 4441 
L 5900 4003 
L 3438 4003 
L 3438 2359 
L 6225 2359 
L 6225 1922 
L 3566 1922 
Q 4594 778 6325 141 
z
M 4056 2766 
Q 4631 3378 4950 3828 
L 5381 3497 
Q 4913 2941 4419 2453 
L 4056 2766 
z
M 1075 3509 
L 1438 3803 
Q 1900 3347 2313 2828 
L 1900 2484 
Q 1581 2922 1075 3509 
z
" transform="scale(0.015625)"/>
     <path id="MicrosoftYaHei-6e90" d="M 2931 3741 
L 3744 3741 
Q 3878 4094 4006 4478 
L 2425 4478 
L 2425 2678 
Q 2425 222 1463 -841 
Q 1313 -647 1100 -453 
Q 1963 509 1963 2672 
L 1963 4903 
L 6300 4903 
L 6300 4478 
L 4547 4478 
Q 4375 4103 4194 3741 
L 5844 3741 
L 5844 1178 
L 5394 1178 
L 5394 1341 
L 4588 1341 
L 4588 -128 
Q 4588 -797 3938 -797 
Q 3725 -797 3394 -791 
Q 3363 -603 3306 -359 
Q 3619 -384 3850 -384 
Q 4138 -384 4138 -84 
L 4138 1341 
L 3381 1341 
L 3381 1178 
L 2931 1178 
L 2931 3741 
z
M 831 1878 
Q 1056 1734 1275 1666 
Q 1019 603 700 -766 
L 219 -603 
Q 581 678 831 1878 
z
M 3381 1753 
L 5394 1753 
L 5394 2347 
L 3381 2347 
L 3381 1753 
z
M 5394 3328 
L 3381 3328 
L 3381 2747 
L 5394 2747 
L 5394 3328 
z
M 6288 -241 
L 5894 -541 
Q 5450 128 4931 759 
L 5294 1016 
Q 5863 353 6288 -241 
z
M 2363 -297 
Q 2894 272 3306 984 
L 3706 741 
Q 3231 -16 2731 -584 
L 2363 -297 
z
M 400 3622 
Q 888 3272 1500 2784 
Q 1281 2522 1144 2378 
Q 544 2909 88 3266 
L 400 3622 
z
M 669 5228 
Q 1163 4859 1688 4384 
Q 1469 4172 1313 4003 
Q 769 4541 350 4884 
L 669 5228 
z
" transform="scale(0.015625)"/>
     <path id="MicrosoftYaHei-ff1a" d="M 1606 3531 
Q 1772 3531 1890 3415 
Q 2009 3300 2009 3138 
Q 2009 2975 1893 2858 
Q 1778 2741 1606 2741 
Q 1434 2741 1318 2858 
Q 1203 2975 1203 3138 
Q 1203 3300 1322 3415 
Q 1441 3531 1606 3531 
z
M 1606 716 
Q 1772 716 1890 600 
Q 2009 484 2009 319 
Q 2009 150 1890 36 
Q 1772 -78 1606 -78 
Q 1441 -78 1322 36 
Q 1203 150 1203 319 
Q 1203 484 1322 600 
Q 1441 716 1606 716 
z
" transform="scale(0.015625)"/>
     <path id="MicrosoftYaHei-6e" d="M 3469 0 
L 2859 0 
L 2859 1966 
Q 2859 3031 2081 3031 
Q 1678 3031 1418 2731 
Q 1159 2431 1159 1972 
L 1159 0 
L 547 0 
L 547 3456 
L 1159 3456 
L 1159 2884 
L 1172 2884 
Q 1563 3538 2306 3538 
Q 2875 3538 3172 3173 
Q 3469 2809 3469 2113 
L 3469 0 
z
" transform="scale(0.015625)"/>
     <path id="MicrosoftYaHei-64" d="M 3547 0 
L 2934 0 
L 2934 575 
L 2922 575 
Q 2544 -81 1747 -81 
Q 1091 -81 703 386 
Q 316 853 316 1647 
Q 316 2503 753 3020 
Q 1191 3538 1897 3538 
Q 2603 3538 2922 2988 
L 2934 2988 
L 2934 5116 
L 3547 5116 
L 3547 0 
z
M 2938 2056 
Q 2938 2472 2664 2751 
Q 2391 3031 1991 3031 
Q 1503 3031 1222 2667 
Q 941 2303 941 1675 
Q 941 1097 1211 761 
Q 1481 425 1931 425 
Q 2375 425 2656 754 
Q 2938 1084 2938 1575 
L 2938 2056 
z
" transform="scale(0.015625)"/>
     <path id="MicrosoftYaHei-46" d="M 3119 4284 
L 1250 4284 
L 1250 2666 
L 2981 2666 
L 2981 2116 
L 1250 2116 
L 1250 0 
L 625 0 
L 625 4841 
L 3119 4841 
L 3119 4284 
z
" transform="scale(0.015625)"/>
     <path id="MicrosoftYaHei-63" d="M 2934 156 
Q 2538 -81 1978 -81 
Q 1228 -81 772 400 
Q 316 881 316 1647 
Q 316 2497 808 3017 
Q 1300 3538 2125 3538 
Q 2600 3538 2938 3369 
L 2938 2763 
Q 2572 3031 2125 3031 
Q 1600 3031 1270 2667 
Q 941 2303 941 1697 
Q 941 1100 1252 762 
Q 1563 425 2091 425 
Q 2538 425 2934 719 
L 2934 156 
z
" transform="scale(0.015625)"/>
     <path id="MicrosoftYaHei-96c6" d="M 3056 5134 
L 3425 5359 
Q 3719 5034 3906 4722 
L 3619 4541 
L 6013 4541 
L 6013 4153 
L 3644 4153 
L 3644 3709 
L 5738 3709 
L 5738 3347 
L 3644 3347 
L 3644 2903 
L 5738 2903 
L 5738 2541 
L 3644 2541 
L 3644 2084 
L 6031 2084 
L 6031 1697 
L 1475 1697 
L 1475 1459 
L 1038 1459 
L 1038 3684 
Q 716 3309 381 3009 
Q 281 3191 81 3422 
Q 988 4178 1613 5284 
L 2044 5091 
Q 1869 4803 1688 4541 
L 3456 4541 
Q 3288 4825 3056 5134 
z
M 288 1141 
L 2981 1141 
L 2981 1566 
L 3419 1566 
L 3419 1141 
L 6106 1141 
L 6106 741 
L 3906 741 
Q 5000 -31 6338 -303 
Q 6169 -566 6044 -766 
Q 4519 -325 3419 631 
L 3419 -834 
L 2981 -834 
L 2981 638 
Q 1844 -313 356 -778 
Q 225 -584 63 -384 
Q 1406 -56 2475 741 
L 288 741 
L 288 1141 
z
M 1475 2084 
L 3206 2084 
L 3206 2541 
L 1475 2541 
L 1475 2084 
z
M 1475 2903 
L 3206 2903 
L 3206 3347 
L 1475 3347 
L 1475 2903 
z
M 1475 3709 
L 3206 3709 
L 3206 4153 
L 1475 4153 
L 1475 3709 
z
" transform="scale(0.015625)"/>
     <path id="MicrosoftYaHei-90a6" d="M 6225 1284 
Q 6222 156 5244 103 
Q 4866 94 4513 172 
Q 4484 425 4419 728 
Q 4831 628 5122 628 
Q 5700 628 5694 1359 
Q 5663 2041 4788 2741 
Q 5263 3753 5556 4553 
L 4213 4553 
L 4213 -816 
L 3713 -816 
L 3713 5003 
L 6094 5003 
L 6094 4491 
Q 5644 3403 5363 2853 
Q 6225 2097 6225 1284 
z
M 188 1553 
L 1513 1553 
Q 1566 2038 1578 2591 
L 456 2591 
L 456 3041 
L 1581 3041 
L 1581 4041 
L 300 4041 
L 300 4491 
L 1581 4491 
L 1581 5247 
L 2081 5247 
L 2081 4491 
L 3363 4491 
L 3363 4041 
L 2081 4041 
L 2081 3041 
L 3244 3041 
L 3244 2591 
L 2078 2591 
Q 2066 2019 2016 1553 
L 3413 1553 
L 3413 1103 
L 1950 1103 
Q 1691 -219 644 -866 
Q 481 -678 250 -472 
Q 1203 75 1441 1103 
L 188 1103 
L 188 1553 
z
" transform="scale(0.015625)"/>
     <path id="MicrosoftYaHei-54a8" d="M 1000 1572 
L 5413 1572 
L 5413 -866 
L 4925 -866 
L 4925 -522 
L 1488 -522 
L 1488 -878 
L 1000 -878 
L 1000 1572 
z
M 1781 3578 
Q 2488 4303 2763 5309 
L 3269 5309 
Q 3169 4966 3044 4653 
L 5969 4653 
L 5969 4222 
Q 5725 3828 5450 3353 
Q 5194 3459 4969 3509 
Q 5213 3866 5413 4222 
L 2850 4222 
Q 2581 3684 2219 3266 
Q 2056 3416 1781 3578 
z
M 4925 1134 
L 1488 1134 
L 1488 -84 
L 4925 -84 
L 4925 1134 
z
M 1319 3778 
Q 1525 3591 1738 3434 
Q 1188 2628 581 1684 
L 138 2016 
Q 731 2791 1319 3778 
z
M 713 5291 
Q 1231 4853 1688 4422 
Q 1475 4222 1300 4053 
Q 863 4522 363 4972 
L 713 5291 
z
M 3631 4103 
Q 3850 4103 4069 4103 
Q 4063 4041 4038 3859 
Q 4631 2491 6338 2166 
Q 6181 1928 6038 1684 
Q 4444 2178 3888 3303 
Q 3375 2128 1681 1678 
Q 1581 1872 1394 2141 
Q 3438 2559 3631 4103 
z
" transform="scale(0.015625)"/>
     <path id="MicrosoftYaHei-8be2" d="M 2381 3353 
L 4669 3353 
L 4669 503 
L 2831 503 
L 2831 134 
L 2381 134 
L 2381 3353 
z
M 1600 3278 
Q 2375 4178 2894 5366 
L 3369 5184 
Q 3203 4847 3034 4541 
L 6081 4541 
Q 6006 1684 5956 403 
Q 5906 -722 4981 -722 
Q 4413 -722 3963 -691 
Q 3925 -441 3856 -141 
Q 4413 -228 4863 -228 
Q 5425 -228 5469 497 
Q 5531 1903 5575 4091 
L 2775 4091 
Q 2403 3478 2006 2997 
Q 1856 3122 1600 3278 
z
M 2031 647 
Q 2050 322 2075 109 
Q 1281 -409 913 -722 
L 619 -303 
Q 831 -122 831 234 
L 831 2716 
L 100 2716 
L 100 3166 
L 1313 3166 
L 1313 147 
Q 1669 384 2031 647 
z
M 4219 928 
L 4219 1734 
L 2831 1734 
L 2831 928 
L 4219 928 
z
M 4219 2928 
L 2831 2928 
L 2831 2147 
L 4219 2147 
L 4219 2928 
z
M 725 5209 
Q 1406 4509 1713 4172 
L 1288 3816 
Q 894 4334 356 4891 
L 725 5209 
z
" transform="scale(0.015625)"/>
     <path id="MicrosoftYaHei-3001" d="M 1931 -413 
L 1556 -791 
Q 1028 -216 397 306 
L 728 650 
Q 1506 22 1931 -413 
z
" transform="scale(0.015625)"/>
     <path id="MicrosoftYaHei-5404" d="M 1838 5366 
L 2325 5191 
Q 2191 4934 2038 4691 
L 5463 4691 
L 5463 4234 
Q 4819 3428 3806 2831 
Q 4881 2366 6375 2266 
Q 6169 1953 6025 1703 
Q 4388 1947 3272 2544 
Q 2022 1925 300 1578 
Q 169 1828 31 2059 
Q 1591 2303 2775 2844 
Q 2041 3347 1588 4038 
Q 1138 3444 569 2916 
Q 400 3122 225 3278 
Q 1288 4191 1838 5366 
z
M 1100 1666 
L 5363 1666 
L 5363 -803 
L 4875 -803 
L 4875 -441 
L 1588 -441 
L 1588 -803 
L 1100 -803 
L 1100 1666 
z
M 4875 1216 
L 1588 1216 
L 1588 -3 
L 4875 -3 
L 4875 1216 
z
M 4794 4241 
L 1988 4241 
Q 2494 3547 3275 3094 
Q 4153 3575 4794 4241 
z
" transform="scale(0.015625)"/>
     <path id="MicrosoftYaHei-516c" d="M 4144 1591 
Q 5044 422 5663 -534 
L 5188 -847 
Q 5013 -559 4816 -250 
Q 2753 -350 1463 -453 
Q 1225 -478 888 -559 
L 613 -28 
Q 894 84 1131 316 
Q 1863 1159 2719 2809 
L 3256 2566 
Q 2481 1234 1600 78 
Q 2891 119 4522 194 
Q 4166 734 3738 1334 
L 4144 1591 
z
M 3606 4953 
L 4069 5134 
Q 4675 3503 6325 2547 
Q 6156 2372 5938 2059 
Q 4213 3247 3606 4953 
z
M 75 2366 
Q 1469 3503 2156 5047 
L 2650 4841 
Q 1806 3084 475 1966 
Q 313 2172 75 2366 
z
" transform="scale(0.015625)"/>
     <path id="MicrosoftYaHei-53f8" d="M 800 2566 
L 4081 2566 
L 4081 353 
L 1294 353 
L 1294 -103 
L 800 -103 
L 800 2566 
z
M 538 4528 
L 538 4991 
L 5938 4991 
L 5938 128 
Q 5938 -759 5138 -759 
Q 4688 -759 3906 -753 
Q 3888 -541 3800 -216 
Q 4563 -259 4994 -259 
Q 5425 -259 5425 241 
L 5425 4528 
L 538 4528 
z
M 3588 803 
L 3588 2116 
L 1294 2116 
L 1294 803 
L 3588 803 
z
M 181 3766 
L 4944 3766 
L 4944 3303 
L 181 3303 
L 181 3766 
z
" transform="scale(0.015625)"/>
     <path id="MicrosoftYaHei-5f00" d="M 125 2553 
L 1756 2553 
L 1756 4372 
L 400 4372 
L 400 4866 
L 6006 4866 
L 6006 4372 
L 4731 4372 
L 4731 2553 
L 6275 2553 
L 6275 2059 
L 4731 2059 
L 4731 -791 
L 4219 -791 
L 4219 2059 
L 2266 2059 
Q 2244 916 1938 359 
Q 1631 -253 531 -872 
Q 369 -647 175 -434 
Q 1131 53 1450 584 
Q 1734 1013 1753 2059 
L 125 2059 
L 125 2553 
z
M 2269 2553 
L 4219 2553 
L 4219 4372 
L 2269 4372 
L 2269 2553 
z
" transform="scale(0.015625)"/>
     <path id="MicrosoftYaHei-8d22" d="M 3125 3972 
L 5031 3972 
L 5031 5284 
L 5506 5284 
L 5506 3972 
L 6313 3972 
L 6313 3516 
L 5506 3516 
L 5506 147 
Q 5506 -709 4713 -709 
Q 4525 -709 3838 -703 
Q 3800 -441 3744 -172 
Q 4338 -216 4625 -216 
Q 5031 -216 5031 247 
L 5031 2828 
Q 4188 1284 3100 322 
Q 2956 503 2738 691 
Q 4069 1847 4894 3516 
L 3125 3516 
L 3125 3972 
z
M 431 4997 
L 2831 4997 
L 2831 1078 
L 2381 1078 
L 2381 4541 
L 881 4541 
L 881 1041 
L 431 1041 
L 431 4997 
z
M 1406 4022 
L 1856 4022 
L 1856 2691 
Q 1856 1528 1713 891 
L 1919 1072 
Q 2406 547 3088 -216 
Q 3056 -241 2669 -553 
Q 2213 47 1656 666 
Q 1438 -66 475 -809 
Q 325 -609 125 -397 
Q 931 122 1163 691 
Q 1406 1222 1406 2509 
L 1406 4022 
z
" transform="scale(0.015625)"/>
     <path id="MicrosoftYaHei-62a5" d="M 2469 4984 
L 5925 4984 
Q 5894 4347 5869 4022 
Q 5825 3247 4956 3247 
Q 4594 3247 3900 3259 
Q 3856 3497 3800 3759 
Q 4488 3697 4900 3697 
Q 5369 3697 5400 4078 
Q 5419 4278 5425 4547 
L 2956 4547 
L 2956 2759 
L 5963 2759 
L 5963 2328 
Q 5659 1209 4947 441 
Q 5519 -25 6325 -303 
Q 6106 -578 5963 -766 
Q 5163 -381 4591 109 
Q 4006 -375 3244 -816 
Q 3131 -628 2969 -391 
Q 3706 9 4241 447 
Q 3597 1169 3334 2322 
L 2956 2322 
L 2956 -859 
L 2469 -859 
L 2469 4984 
z
M 94 1997 
Q 566 2128 1006 2256 
L 1006 3609 
L 175 3609 
L 175 4041 
L 1006 4041 
L 1006 5259 
L 1488 5259 
L 1488 4041 
L 2231 4041 
L 2231 3609 
L 1488 3609 
L 1488 2403 
Q 1866 2522 2219 2641 
Q 2219 2341 2231 2153 
Q 1869 2038 1488 1913 
L 1488 -66 
Q 1488 -741 881 -753 
Q 631 -759 263 -753 
Q 225 -491 181 -222 
Q 550 -259 738 -259 
Q 1006 -259 1006 47 
L 1006 1756 
Q 591 1622 156 1478 
L 94 1997 
z
M 5456 2322 
L 3775 2322 
Q 3988 1409 4591 766 
Q 5213 1419 5456 2322 
z
" transform="scale(0.015625)"/>
     <path id="MicrosoftYaHei-20" transform="scale(0.015625)"/>
     <path id="MicrosoftYaHei-7c" d="M 1134 -1628 
L 597 -1628 
L 597 5284 
L 1134 5284 
L 1134 -1628 
z
" transform="scale(0.015625)"/>
     <path id="MicrosoftYaHei-5e02" d="M 1206 -191 
L 719 -191 
L 719 3041 
L 2950 3041 
L 2950 3903 
L 188 3903 
L 188 4378 
L 3103 4378 
Q 2909 4769 2650 5166 
L 3131 5391 
Q 3400 4997 3625 4584 
L 3213 4378 
L 6238 4378 
L 6238 3903 
L 3450 3903 
L 3450 3041 
L 5719 3041 
L 5719 703 
Q 5719 -84 4975 -84 
Q 4631 -84 4081 -72 
Q 4050 134 3994 428 
Q 4513 397 4825 397 
Q 5231 397 5231 809 
L 5231 2578 
L 3450 2578 
L 3450 -841 
L 2950 -841 
L 2950 2578 
L 1206 2578 
L 1206 -191 
z
" transform="scale(0.015625)"/>
     <path id="MicrosoftYaHei-5360" d="M 863 2434 
L 2775 2434 
L 2775 5259 
L 3288 5259 
L 3288 4209 
L 6150 4209 
L 6150 3747 
L 3288 3747 
L 3288 2434 
L 5525 2434 
L 5525 -841 
L 5025 -841 
L 5025 -453 
L 1363 -453 
L 1363 -853 
L 863 -853 
L 863 2434 
z
M 5025 1984 
L 1363 1984 
L 1363 -9 
L 5025 -9 
L 5025 1984 
z
" transform="scale(0.015625)"/>
     <path id="MicrosoftYaHei-7387" d="M 2525 2009 
Q 2622 2016 3928 2081 
Q 3772 2300 3625 2491 
L 3963 2703 
Q 4413 2203 4794 1653 
L 4394 1403 
Q 4284 1569 4178 1725 
Q 2991 1659 2213 1597 
Q 2075 1584 1881 1541 
L 1725 1966 
Q 1913 2028 2006 2084 
Q 2534 2441 3050 2913 
Q 2597 2894 2275 2866 
Q 2144 2847 1988 2809 
L 1800 3191 
Q 1956 3247 2088 3366 
Q 2509 3722 2875 4228 
L 231 4228 
L 231 4666 
L 3031 4666 
Q 2878 4944 2744 5153 
L 3194 5372 
Q 3438 5000 3616 4666 
L 6175 4666 
L 6175 4228 
L 3053 4228 
L 3350 4072 
Q 2844 3553 2494 3247 
Q 2850 3256 3425 3269 
Q 3675 3519 3925 3797 
L 4356 3547 
Q 3363 2603 2525 2009 
z
M 144 991 
L 2994 991 
L 2994 1541 
L 3488 1541 
L 3488 991 
L 6275 991 
L 6275 553 
L 3488 553 
L 3488 -853 
L 2994 -853 
L 2994 553 
L 144 553 
L 144 991 
z
M 1719 2672 
L 1944 2303 
Q 1200 1866 425 1409 
L 163 1828 
Q 813 2134 1719 2672 
z
M 4856 2678 
Q 5750 2172 6250 1816 
L 5975 1409 
Q 5331 1909 4600 2341 
L 4856 2678 
z
M 5994 3591 
Q 5519 3178 4963 2809 
L 4644 3141 
Q 5244 3534 5638 3928 
L 5994 3591 
z
M 363 3634 
L 681 3941 
Q 1200 3528 1588 3159 
L 1238 2816 
Q 875 3197 363 3634 
z
" transform="scale(0.015625)"/>
     <path id="MicrosoftYaHei-4e3a" d="M 356 3684 
L 2703 3684 
Q 2794 4450 2794 5341 
L 3331 5341 
Q 3331 4413 3244 3684 
L 5900 3684 
Q 5863 1753 5788 497 
Q 5725 -672 4550 -672 
Q 4063 -672 3394 -641 
Q 3369 -397 3300 -59 
Q 3888 -141 4456 -141 
Q 5206 -141 5244 597 
Q 5331 1822 5356 3197 
L 3175 3197 
Q 2716 441 606 -903 
Q 431 -684 225 -441 
Q 2169 706 2628 3197 
L 356 3197 
L 356 3684 
z
M 3325 2072 
L 3669 2378 
Q 4269 1822 4756 1284 
L 4369 934 
Q 3888 1503 3325 2072 
z
M 800 4922 
L 1138 5234 
Q 1656 4784 2138 4309 
L 1756 3953 
Q 1294 4459 800 4922 
z
" transform="scale(0.015625)"/>
     <path id="MicrosoftYaHei-884c" d="M 2363 2978 
L 6319 2978 
L 6319 2509 
L 5106 2509 
L 5106 66 
Q 5106 -709 4325 -709 
Q 3800 -709 3256 -703 
Q 3219 -453 3163 -141 
Q 3650 -191 4144 -191 
Q 4575 -191 4575 234 
L 4575 2509 
L 2363 2509 
L 2363 2978 
z
M 100 1578 
Q 1069 2372 1863 3809 
L 2300 3541 
Q 1978 2984 1619 2500 
L 1619 -809 
L 1100 -809 
L 1100 1856 
Q 725 1431 319 1072 
Q 219 1334 100 1578 
z
M 2725 4866 
L 5969 4866 
L 5969 4397 
L 2725 4397 
L 2725 4866 
z
M 131 3559 
Q 1125 4328 1731 5347 
L 2181 5072 
Q 1456 3959 381 3078 
Q 269 3316 131 3559 
z
" transform="scale(0.015625)"/>
     <path id="MicrosoftYaHei-4e1a" d="M 119 47 
L 2125 47 
L 2125 5209 
L 2650 5209 
L 2650 47 
L 3744 47 
L 3744 5209 
L 4269 5209 
L 4269 47 
L 6294 47 
L 6294 -416 
L 119 -416 
L 119 47 
z
M 844 3984 
Q 1356 2778 1838 1422 
L 1325 1191 
Q 906 2509 388 3784 
L 844 3984 
z
M 4494 1366 
Q 5119 2691 5544 3928 
L 6050 3728 
Q 5469 2234 4944 1159 
L 4494 1366 
z
" transform="scale(0.015625)"/>
     <path id="MicrosoftYaHei-5171" d="M 125 1847 
L 1738 1847 
L 1738 3572 
L 375 3572 
L 375 4047 
L 1738 4047 
L 1738 5247 
L 2250 5247 
L 2250 4047 
L 4144 4047 
L 4144 5253 
L 4656 5253 
L 4656 4047 
L 6025 4047 
L 6025 3572 
L 4656 3572 
L 4656 1847 
L 6275 1847 
L 6275 1372 
L 125 1372 
L 125 1847 
z
M 2250 1847 
L 4144 1847 
L 4144 3572 
L 2250 3572 
L 2250 1847 
z
M 2219 1053 
L 2606 653 
Q 1569 -103 444 -747 
Q 306 -547 113 -316 
Q 1206 266 2219 1053 
z
M 3744 622 
L 4063 1016 
Q 5138 378 6131 -303 
L 5769 -759 
Q 4781 -16 3744 622 
z
" transform="scale(0.015625)"/>
     <path id="MicrosoftYaHei-8bc6" d="M 2431 4884 
L 5875 4884 
L 5875 1597 
L 5394 1597 
L 5394 1972 
L 2913 1972 
L 2913 1597 
L 2431 1597 
L 2431 4884 
z
M 5394 4447 
L 2913 4447 
L 2913 2409 
L 5394 2409 
L 5394 4447 
z
M 2313 1309 
Q 2344 1047 2394 791 
Q 1831 372 1325 -41 
Q 1200 -153 1050 -328 
L 681 59 
Q 881 259 881 609 
L 881 2772 
L 88 2772 
L 88 3222 
L 1363 3222 
L 1363 566 
Q 1875 947 2313 1309 
z
M 4469 997 
L 4875 1297 
Q 5619 503 6381 -422 
L 5931 -759 
Q 5225 153 4469 997 
z
M 3306 1322 
L 3725 1022 
Q 2981 116 2063 -784 
Q 1906 -634 1681 -447 
Q 2544 334 3306 1322 
z
M 1025 5203 
Q 1638 4578 2000 4172 
L 1569 3816 
Q 1088 4434 656 4891 
L 1025 5203 
z
" transform="scale(0.015625)"/>
     <path id="MicrosoftYaHei-533a" d="M 600 4872 
L 5975 4872 
L 5975 4384 
L 1131 4384 
L 1131 22 
L 6075 22 
L 6075 -453 
L 600 -453 
L 600 4872 
z
M 1613 3697 
L 1963 4028 
Q 2744 3384 3597 2616 
Q 4250 3322 4850 4153 
L 5306 3847 
Q 4650 2997 3975 2272 
Q 4753 1563 5588 753 
L 5156 316 
Q 4400 1106 3600 1878 
Q 2697 963 1763 266 
Q 1613 459 1363 672 
Q 2344 1341 3228 2231 
Q 2444 2972 1613 3697 
z
" transform="scale(0.015625)"/>
     <path id="MicrosoftYaHei-95f4" d="M 1863 3647 
L 4513 3647 
L 4513 553 
L 2313 553 
L 2313 166 
L 1863 166 
L 1863 3647 
z
M 2388 4453 
L 2388 4922 
L 6013 4922 
L 6013 -28 
Q 6013 -816 5119 -816 
Q 4756 -816 4169 -803 
Q 4144 -616 4069 -297 
Q 4588 -334 5056 -334 
Q 5525 -334 5525 122 
L 5525 4453 
L 2388 4453 
z
M 419 4084 
L 906 4084 
L 906 -816 
L 419 -816 
L 419 4084 
z
M 2313 997 
L 4063 997 
L 4063 1884 
L 2313 1884 
L 2313 997 
z
M 4063 3203 
L 2313 3203 
L 2313 2328 
L 4063 2328 
L 4063 3203 
z
M 744 5003 
L 1100 5322 
Q 1575 4872 1981 4447 
L 1575 4091 
Q 1194 4541 744 5003 
z
" transform="scale(0.015625)"/>
    </defs>
    <use xlink:href="#MicrosoftYaHei-6570"/>
    <use xlink:href="#MicrosoftYaHei-636e" transform="translate(100 0)"/>
    <use xlink:href="#MicrosoftYaHei-6765" transform="translate(200 0)"/>
    <use xlink:href="#MicrosoftYaHei-6e90" transform="translate(300 0)"/>
    <use xlink:href="#MicrosoftYaHei-ff1a" transform="translate(400 0)"/>
    <use xlink:href="#MicrosoftYaHei-54" transform="translate(500 0)"/>
    <use xlink:href="#MicrosoftYaHei-72" transform="translate(547.949219 0)"/>
    <use xlink:href="#MicrosoftYaHei-65" transform="translate(584.757812 0)"/>
    <use xlink:href="#MicrosoftYaHei-6e" transform="translate(641.496094 0)"/>
    <use xlink:href="#MicrosoftYaHei-64" transform="translate(703.117188 0)"/>
    <use xlink:href="#MicrosoftYaHei-46" transform="translate(767.082031 0)"/>
    <use xlink:href="#MicrosoftYaHei-6f" transform="translate(820.207031 0)"/>
    <use xlink:href="#MicrosoftYaHei-72" transform="translate(883.78125 0)"/>
    <use xlink:href="#MicrosoftYaHei-63" transform="translate(920.589844 0)"/>
    <use xlink:href="#MicrosoftYaHei-65" transform="translate(970.736328 0)"/>
    <use xlink:href="#MicrosoftYaHei-96c6" transform="translate(1027.474609 0)"/>
    <use xlink:href="#MicrosoftYaHei-90a6" transform="translate(1127.474609 0)"/>
    <use xlink:href="#MicrosoftYaHei-54a8" transform="translate(1227.474609 0)"/>
    <use xlink:href="#MicrosoftYaHei-8be2" transform="translate(1327.474609 0)"/>
    <use xlink:href="#MicrosoftYaHei-3001" transform="translate(1427.474609 0)"/>
    <use xlink:href="#MicrosoftYaHei-5404" transform="translate(1527.474609 0)"/>
    <use xlink:href="#MicrosoftYaHei-516c" transform="translate(1627.474609 0)"/>
    <use xlink:href="#MicrosoftYaHei-53f8" transform="translate(1727.474609 0)"/>
    <use xlink:href="#MicrosoftYaHei-516c" transform="translate(1827.474609 0)"/>
    <use xlink:href="#MicrosoftYaHei-5f00" transform="translate(1927.474609 0)"/>
    <use xlink:href="#MicrosoftYaHei-8d22" transform="translate(2027.474609 0)"/>
    <use xlink:href="#MicrosoftYaHei-62a5" transform="translate(2127.474609 0)"/>
    <use xlink:href="#MicrosoftYaHei-20" transform="translate(2227.474609 0)"/>
    <use xlink:href="#MicrosoftYaHei-7c" transform="translate(2257.064453 0)"/>
    <use xlink:href="#MicrosoftYaHei-20" transform="translate(2283.96875 0)"/>
    <use xlink:href="#MicrosoftYaHei-4e2d" transform="translate(2313.558594 0)"/>
    <use xlink:href="#MicrosoftYaHei-56fd" transform="translate(2413.558594 0)"/>
    <use xlink:href="#MicrosoftYaHei-5382" transform="translate(2513.558594 0)"/>
    <use xlink:href="#MicrosoftYaHei-5546" transform="translate(2613.558594 0)"/>
    <use xlink:href="#MicrosoftYaHei-5e02" transform="translate(2713.558594 0)"/>
    <use xlink:href="#MicrosoftYaHei-5360" transform="translate(2813.558594 0)"/>
    <use xlink:href="#MicrosoftYaHei-7387" transform="translate(2913.558594 0)"/>
    <use xlink:href="#MicrosoftYaHei-4e3a" transform="translate(3013.558594 0)"/>
    <use xlink:href="#MicrosoftYaHei-884c" transform="translate(3113.558594 0)"/>
    <use xlink:href="#MicrosoftYaHei-4e1a" transform="translate(3213.558594 0)"/>
    <use xlink:href="#MicrosoftYaHei-5171" transform="translate(3313.558594 0)"/>
    <use xlink:href="#MicrosoftYaHei-8bc6" transform="translate(3413.558594 0)"/>
    <use xlink:href="#MicrosoftYaHei-533a" transform="translate(3513.558594 0)"/>
    <use xlink:href="#MicrosoftYaHei-95f4" transform="translate(3613.558594 0)"/>
   </g>
  </g>
 </g>
</svg>
