<?xml version="1.0" encoding="utf-8" standalone="no"?>
<!DOCTYPE svg PUBLIC "-//W3C//DTD SVG 1.1//EN"
  "http://www.w3.org/Graphics/SVG/1.1/DTD/svg11.dtd">
<svg xmlns:xlink="http://www.w3.org/1999/xlink" width="477.385pt" height="243.777969pt" viewBox="0 0 477.385 243.777969" xmlns="http://www.w3.org/2000/svg" version="1.1">
 <metadata>
  <rdf:RDF xmlns:dc="http://purl.org/dc/elements/1.1/" xmlns:cc="http://creativecommons.org/ns#" xmlns:rdf="http://www.w3.org/1999/02/22-rdf-syntax-ns#">
   <cc:Work>
    <dc:type rdf:resource="http://purl.org/dc/dcmitype/StillImage"/>
    <dc:date>2026-06-12T23:07:54.857760</dc:date>
    <dc:format>image/svg+xml</dc:format>
    <dc:creator>
     <cc:Agent>
      <dc:title>Matplotlib v3.10.9, https://matplotlib.org/</dc:title>
     </cc:Agent>
    </dc:creator>
   </cc:Work>
  </rdf:RDF>
 </metadata>
 <defs>
  <style type="text/css">*{stroke-linejoin: round; stroke-linecap: butt}</style>
 </defs>
 <g id="figure_1">
  <g id="patch_1">
   <path d="M 0 243.777969 
L 477.385 243.777969 
L 477.385 0 
L 0 0 
z
" style="fill: #ffffff"/>
  </g>
  <g id="axes_1">
   <g id="patch_2">
    <path d="M 39.235 203.477344 
L 470.185 203.477344 
L 470.185 39.293844 
L 39.235 39.293844 
z
" style="fill: #ffffff"/>
   </g>
   <g id="FillBetweenPolyCollection_1">
    <defs>
     <path id="ma37c13d4a5" d="M 58.823636 -47.763511 
L 58.823636 -114.490495 
L 107.795227 -128.538281 
L 156.766818 -121.514388 
L 205.738409 -114.490495 
L 254.71 -125.026335 
L 303.681591 -139.074121 
L 352.653182 -154.87788 
L 401.624773 -174.193586 
L 450.596364 -197.021239 
L 450.596364 -47.763511 
L 450.596364 -47.763511 
L 401.624773 -47.763511 
L 352.653182 -47.763511 
L 303.681591 -47.763511 
L 254.71 -47.763511 
L 205.738409 -47.763511 
L 156.766818 -47.763511 
L 107.795227 -47.763511 
L 58.823636 -47.763511 
z
" style="stroke: #1a56db; stroke-opacity: 0.12"/>
    </defs>
    <g clip-path="url(#pafce13be36)">
     <use xlink:href="#ma37c13d4a5" x="0" y="243.777969" style="fill: #1a56db; fill-opacity: 0.12; stroke: #1a56db; stroke-opacity: 0.12"/>
    </g>
   </g>
   <g id="matplotlib.axis_1">
    <g id="xtick_1">
     <g id="line2d_1">
      <defs>
       <path id="mf2ec5abb0c" d="M 0 0 
L 0 3.5 
" style="stroke: #94a3b8; stroke-width: 0.8"/>
      </defs>
      <g>
       <use xlink:href="#mf2ec5abb0c" x="58.823636" y="203.477344" style="fill: #94a3b8; stroke: #94a3b8; stroke-width: 0.8"/>
      </g>
     </g>
     <g id="text_1">
      <!-- 2020 -->
      <g style="fill: #94a3b8" transform="translate(48.268324 217.671719) scale(0.09 -0.09)">
       <defs>
        <path id="MicrosoftYaHei-32" d="M 2666 3572 
Q 2666 3963 2419 4186 
Q 2172 4409 1747 4409 
Q 1447 4409 1140 4256 
Q 834 4103 569 3819 
L 569 4413 
Q 806 4659 1107 4790 
Q 1409 4922 1816 4922 
Q 2472 4922 2872 4570 
Q 3272 4219 3272 3619 
Q 3272 3084 3026 2693 
Q 2781 2303 2188 1894 
Q 1581 1475 1376 1294 
Q 1172 1113 1090 947 
Q 1009 781 1009 544 
L 3416 544 
L 3416 0 
L 372 0 
L 372 241 
Q 372 659 486 951 
Q 600 1244 862 1520 
Q 1125 1797 1681 2184 
Q 2250 2584 2458 2886 
Q 2666 3188 2666 3572 
z
" transform="scale(0.015625)"/>
        <path id="MicrosoftYaHei-30" d="M 284 2325 
Q 284 3606 709 4264 
Q 1134 4922 1941 4922 
Q 3478 4922 3478 2441 
Q 3478 1216 3045 567 
Q 2613 -81 1831 -81 
Q 1094 -81 689 534 
Q 284 1150 284 2325 
z
M 909 2353 
Q 909 425 1888 425 
Q 2850 425 2850 2384 
Q 2850 4413 1906 4413 
Q 909 4413 909 2353 
z
" transform="scale(0.015625)"/>
       </defs>
       <use xlink:href="#MicrosoftYaHei-32"/>
       <use xlink:href="#MicrosoftYaHei-30" transform="translate(58.642578 0)"/>
       <use xlink:href="#MicrosoftYaHei-32" transform="translate(117.285156 0)"/>
       <use xlink:href="#MicrosoftYaHei-30" transform="translate(175.927734 0)"/>
      </g>
     </g>
    </g>
    <g id="xtick_2">
     <g id="line2d_2">
      <g>
       <use xlink:href="#mf2ec5abb0c" x="107.795227" y="203.477344" style="fill: #94a3b8; stroke: #94a3b8; stroke-width: 0.8"/>
      </g>
     </g>
     <g id="text_2">
      <!-- 2021 -->
      <g style="fill: #94a3b8" transform="translate(97.239915 217.671719) scale(0.09 -0.09)">
       <defs>
        <path id="MicrosoftYaHei-31" d="M 1781 0 
L 1781 4141 
Q 1638 3997 1295 3819 
Q 953 3641 663 3569 
L 663 4169 
Q 1047 4275 1484 4508 
Q 1922 4741 2156 4947 
L 2388 4947 
L 2388 0 
L 1781 0 
z
" transform="scale(0.015625)"/>
       </defs>
       <use xlink:href="#MicrosoftYaHei-32"/>
       <use xlink:href="#MicrosoftYaHei-30" transform="translate(58.642578 0)"/>
       <use xlink:href="#MicrosoftYaHei-32" transform="translate(117.285156 0)"/>
       <use xlink:href="#MicrosoftYaHei-31" transform="translate(175.927734 0)"/>
      </g>
     </g>
    </g>
    <g id="xtick_3">
     <g id="line2d_3">
      <g>
       <use xlink:href="#mf2ec5abb0c" x="156.766818" y="203.477344" style="fill: #94a3b8; stroke: #94a3b8; stroke-width: 0.8"/>
      </g>
     </g>
     <g id="text_3">
      <!-- 2022 -->
      <g style="fill: #94a3b8" transform="translate(146.211506 217.671719) scale(0.09 -0.09)">
       <use xlink:href="#MicrosoftYaHei-32"/>
       <use xlink:href="#MicrosoftYaHei-30" transform="translate(58.642578 0)"/>
       <use xlink:href="#MicrosoftYaHei-32" transform="translate(117.285156 0)"/>
       <use xlink:href="#MicrosoftYaHei-32" transform="translate(175.927734 0)"/>
      </g>
     </g>
    </g>
    <g id="xtick_4">
     <g id="line2d_4">
      <g>
       <use xlink:href="#mf2ec5abb0c" x="205.738409" y="203.477344" style="fill: #94a3b8; stroke: #94a3b8; stroke-width: 0.8"/>
      </g>
     </g>
     <g id="text_4">
      <!-- 2023 -->
      <g style="fill: #94a3b8" transform="translate(195.183097 217.671719) scale(0.09 -0.09)">
       <defs>
        <path id="MicrosoftYaHei-33" d="M 447 809 
Q 944 425 1569 425 
Q 2069 425 2361 670 
Q 2653 916 2653 1328 
Q 2653 2247 1338 2247 
L 934 2247 
L 934 2753 
L 1319 2753 
Q 2484 2753 2484 3616 
Q 2484 4413 1594 4413 
Q 1084 4413 634 4069 
L 634 4647 
Q 1109 4922 1744 4922 
Q 2363 4922 2738 4598 
Q 3113 4275 3113 3759 
Q 3113 2809 2144 2538 
L 2144 2525 
Q 2669 2469 2973 2155 
Q 3278 1841 3278 1372 
Q 3278 719 2808 319 
Q 2338 -81 1556 -81 
Q 869 -81 447 175 
L 447 809 
z
" transform="scale(0.015625)"/>
       </defs>
       <use xlink:href="#MicrosoftYaHei-32"/>
       <use xlink:href="#MicrosoftYaHei-30" transform="translate(58.642578 0)"/>
       <use xlink:href="#MicrosoftYaHei-32" transform="translate(117.285156 0)"/>
       <use xlink:href="#MicrosoftYaHei-33" transform="translate(175.927734 0)"/>
      </g>
     </g>
    </g>
    <g id="xtick_5">
     <g id="line2d_5">
      <g>
       <use xlink:href="#mf2ec5abb0c" x="254.71" y="203.477344" style="fill: #94a3b8; stroke: #94a3b8; stroke-width: 0.8"/>
      </g>
     </g>
     <g id="text_5">
      <!-- 2024 -->
      <g style="fill: #94a3b8" transform="translate(244.154687 217.671719) scale(0.09 -0.09)">
       <defs>
        <path id="MicrosoftYaHei-34" d="M 2906 4841 
L 2906 1644 
L 3631 1644 
L 3631 1138 
L 2906 1138 
L 2906 0 
L 2313 0 
L 2313 1138 
L 53 1138 
L 53 1616 
Q 656 2294 1265 3178 
Q 1875 4063 2272 4841 
L 2906 4841 
z
M 741 1644 
L 2313 1644 
L 2313 3950 
Q 1988 3366 1616 2817 
Q 1244 2269 741 1644 
z
" transform="scale(0.015625)"/>
       </defs>
       <use xlink:href="#MicrosoftYaHei-32"/>
       <use xlink:href="#MicrosoftYaHei-30" transform="translate(58.642578 0)"/>
       <use xlink:href="#MicrosoftYaHei-32" transform="translate(117.285156 0)"/>
       <use xlink:href="#MicrosoftYaHei-34" transform="translate(175.927734 0)"/>
      </g>
     </g>
    </g>
    <g id="xtick_6">
     <g id="line2d_6">
      <g>
       <use xlink:href="#mf2ec5abb0c" x="303.681591" y="203.477344" style="fill: #94a3b8; stroke: #94a3b8; stroke-width: 0.8"/>
      </g>
     </g>
     <g id="text_6">
      <!-- 2025E -->
      <g style="fill: #94a3b8" transform="translate(290.651982 217.671719) scale(0.09 -0.09)">
       <defs>
        <path id="MicrosoftYaHei-35" d="M 3294 1494 
Q 3294 784 2823 350 
Q 2353 -84 1559 -84 
Q 878 -84 544 119 
L 544 744 
Q 1034 425 1544 425 
Q 2050 425 2361 704 
Q 2672 984 2672 1447 
Q 2672 1909 2348 2167 
Q 2025 2425 1434 2425 
Q 978 2425 613 2384 
L 791 4841 
L 3053 4841 
L 3053 4303 
L 1306 4303 
L 1206 2931 
L 1647 2950 
Q 2416 2950 2855 2567 
Q 3294 2184 3294 1494 
z
" transform="scale(0.015625)"/>
        <path id="MicrosoftYaHei-45" d="M 3228 0 
L 625 0 
L 625 4841 
L 3119 4841 
L 3119 4284 
L 1250 4284 
L 1250 2734 
L 2981 2734 
L 2981 2181 
L 1250 2181 
L 1250 553 
L 3228 553 
L 3228 0 
z
" transform="scale(0.015625)"/>
       </defs>
       <use xlink:href="#MicrosoftYaHei-32"/>
       <use xlink:href="#MicrosoftYaHei-30" transform="translate(58.642578 0)"/>
       <use xlink:href="#MicrosoftYaHei-32" transform="translate(117.285156 0)"/>
       <use xlink:href="#MicrosoftYaHei-35" transform="translate(175.927734 0)"/>
       <use xlink:href="#MicrosoftYaHei-45" transform="translate(234.570312 0)"/>
      </g>
     </g>
    </g>
    <g id="xtick_7">
     <g id="line2d_7">
      <g>
       <use xlink:href="#mf2ec5abb0c" x="352.653182" y="203.477344" style="fill: #94a3b8; stroke: #94a3b8; stroke-width: 0.8"/>
      </g>
     </g>
     <g id="text_7">
      <!-- 2026E -->
      <g style="fill: #94a3b8" transform="translate(339.623572 217.671719) scale(0.09 -0.09)">
       <defs>
        <path id="MicrosoftYaHei-36" d="M 3181 4219 
Q 2803 4413 2391 4413 
Q 1763 4413 1381 3866 
Q 1000 3319 994 2372 
L 1009 2372 
Q 1353 3038 2106 3038 
Q 2734 3038 3109 2628 
Q 3484 2219 3484 1541 
Q 3484 831 3051 375 
Q 2619 -81 1947 -81 
Q 1209 -81 789 495 
Q 369 1072 369 2131 
Q 369 3413 920 4167 
Q 1472 4922 2372 4922 
Q 2888 4922 3181 4781 
L 3181 4219 
z
M 1031 1584 
Q 1031 1106 1286 765 
Q 1541 425 1963 425 
Q 2363 425 2613 719 
Q 2863 1013 2863 1475 
Q 2863 1975 2627 2253 
Q 2391 2531 1956 2531 
Q 1544 2531 1287 2250 
Q 1031 1969 1031 1584 
z
" transform="scale(0.015625)"/>
       </defs>
       <use xlink:href="#MicrosoftYaHei-32"/>
       <use xlink:href="#MicrosoftYaHei-30" transform="translate(58.642578 0)"/>
       <use xlink:href="#MicrosoftYaHei-32" transform="translate(117.285156 0)"/>
       <use xlink:href="#MicrosoftYaHei-36" transform="translate(175.927734 0)"/>
       <use xlink:href="#MicrosoftYaHei-45" transform="translate(234.570312 0)"/>
      </g>
     </g>
    </g>
    <g id="xtick_8">
     <g id="line2d_8">
      <g>
       <use xlink:href="#mf2ec5abb0c" x="401.624773" y="203.477344" style="fill: #94a3b8; stroke: #94a3b8; stroke-width: 0.8"/>
      </g>
     </g>
     <g id="text_8">
      <!-- 2027E -->
      <g style="fill: #94a3b8" transform="translate(388.595163 217.671719) scale(0.09 -0.09)">
       <defs>
        <path id="MicrosoftYaHei-37" d="M 3422 4463 
Q 2659 3131 2223 1998 
Q 1788 866 1684 0 
L 1047 0 
Q 1163 853 1594 1947 
Q 2025 3041 2747 4300 
L 347 4300 
L 347 4841 
L 3422 4841 
L 3422 4463 
z
" transform="scale(0.015625)"/>
       </defs>
       <use xlink:href="#MicrosoftYaHei-32"/>
       <use xlink:href="#MicrosoftYaHei-30" transform="translate(58.642578 0)"/>
       <use xlink:href="#MicrosoftYaHei-32" transform="translate(117.285156 0)"/>
       <use xlink:href="#MicrosoftYaHei-37" transform="translate(175.927734 0)"/>
       <use xlink:href="#MicrosoftYaHei-45" transform="translate(234.570312 0)"/>
      </g>
     </g>
    </g>
    <g id="xtick_9">
     <g id="line2d_9">
      <g>
       <use xlink:href="#mf2ec5abb0c" x="450.596364" y="203.477344" style="fill: #94a3b8; stroke: #94a3b8; stroke-width: 0.8"/>
      </g>
     </g>
     <g id="text_9">
      <!-- 2028E -->
      <g style="fill: #94a3b8" transform="translate(437.566754 217.671719) scale(0.09 -0.09)">
       <defs>
        <path id="MicrosoftYaHei-38" d="M 306 1350 
Q 306 1769 556 2122 
Q 806 2475 1200 2625 
Q 884 2803 700 3081 
Q 516 3359 516 3684 
Q 516 4028 692 4312 
Q 869 4597 1183 4759 
Q 1497 4922 1875 4922 
Q 2256 4922 2572 4761 
Q 2888 4600 3063 4315 
Q 3238 4031 3238 3684 
Q 3238 3366 3058 3086 
Q 2878 2806 2559 2625 
Q 2953 2472 3200 2119 
Q 3447 1766 3447 1350 
Q 3447 938 3250 611 
Q 3053 284 2690 103 
Q 2328 -78 1875 -78 
Q 1425 -78 1065 103 
Q 706 284 506 612 
Q 306 941 306 1350 
z
M 906 1378 
Q 906 947 1172 687 
Q 1438 428 1878 428 
Q 2309 428 2582 692 
Q 2856 956 2856 1378 
Q 2856 1778 2579 2051 
Q 2303 2325 1878 2325 
Q 1456 2325 1181 2058 
Q 906 1791 906 1378 
z
M 1081 3634 
Q 1081 3309 1312 3076 
Q 1544 2844 1878 2844 
Q 2206 2844 2445 3078 
Q 2684 3313 2684 3634 
Q 2684 3963 2454 4191 
Q 2225 4419 1878 4419 
Q 1534 4419 1307 4195 
Q 1081 3972 1081 3634 
z
" transform="scale(0.015625)"/>
       </defs>
       <use xlink:href="#MicrosoftYaHei-32"/>
       <use xlink:href="#MicrosoftYaHei-30" transform="translate(58.642578 0)"/>
       <use xlink:href="#MicrosoftYaHei-32" transform="translate(117.285156 0)"/>
       <use xlink:href="#MicrosoftYaHei-38" transform="translate(175.927734 0)"/>
       <use xlink:href="#MicrosoftYaHei-45" transform="translate(234.570312 0)"/>
      </g>
     </g>
    </g>
   </g>
   <g id="matplotlib.axis_2">
    <g id="ytick_1">
     <g id="line2d_10">
      <path d="M 39.235 196.014457 
L 470.185 196.014457 
" clip-path="url(#pafce13be36)" style="fill: none; stroke: #94a3b8; stroke-opacity: 0.15; stroke-width: 0.8; stroke-linecap: square"/>
     </g>
     <g id="line2d_11">
      <defs>
       <path id="m21609d6875" d="M 0 0 
L -3.5 0 
" style="stroke: #94a3b8; stroke-width: 0.8"/>
      </defs>
      <g>
       <use xlink:href="#m21609d6875" x="39.235" y="196.014457" style="fill: #94a3b8; stroke: #94a3b8; stroke-width: 0.8"/>
      </g>
     </g>
     <g id="text_10">
      <!-- 0 -->
      <g style="fill: #94a3b8" transform="translate(26.957344 199.611645) scale(0.09 -0.09)">
       <use xlink:href="#MicrosoftYaHei-30"/>
      </g>
     </g>
    </g>
    <g id="ytick_2">
     <g id="line2d_12">
      <path d="M 39.235 160.894992 
L 470.185 160.894992 
" clip-path="url(#pafce13be36)" style="fill: none; stroke: #94a3b8; stroke-opacity: 0.15; stroke-width: 0.8; stroke-linecap: square"/>
     </g>
     <g id="line2d_13">
      <g>
       <use xlink:href="#m21609d6875" x="39.235" y="160.894992" style="fill: #94a3b8; stroke: #94a3b8; stroke-width: 0.8"/>
      </g>
     </g>
     <g id="text_11">
      <!-- 20 -->
      <g style="fill: #94a3b8" transform="translate(21.679688 164.49218) scale(0.09 -0.09)">
       <use xlink:href="#MicrosoftYaHei-32"/>
       <use xlink:href="#MicrosoftYaHei-30" transform="translate(58.642578 0)"/>
      </g>
     </g>
    </g>
    <g id="ytick_3">
     <g id="line2d_14">
      <path d="M 39.235 125.775527 
L 470.185 125.775527 
" clip-path="url(#pafce13be36)" style="fill: none; stroke: #94a3b8; stroke-opacity: 0.15; stroke-width: 0.8; stroke-linecap: square"/>
     </g>
     <g id="line2d_15">
      <g>
       <use xlink:href="#m21609d6875" x="39.235" y="125.775527" style="fill: #94a3b8; stroke: #94a3b8; stroke-width: 0.8"/>
      </g>
     </g>
     <g id="text_12">
      <!-- 40 -->
      <g style="fill: #94a3b8" transform="translate(21.679688 129.372714) scale(0.09 -0.09)">
       <use xlink:href="#MicrosoftYaHei-34"/>
       <use xlink:href="#MicrosoftYaHei-30" transform="translate(58.642578 0)"/>
      </g>
     </g>
    </g>
    <g id="ytick_4">
     <g id="line2d_16">
      <path d="M 39.235 90.656062 
L 470.185 90.656062 
" clip-path="url(#pafce13be36)" style="fill: none; stroke: #94a3b8; stroke-opacity: 0.15; stroke-width: 0.8; stroke-linecap: square"/>
     </g>
     <g id="line2d_17">
      <g>
       <use xlink:href="#m21609d6875" x="39.235" y="90.656062" style="fill: #94a3b8; stroke: #94a3b8; stroke-width: 0.8"/>
      </g>
     </g>
     <g id="text_13">
      <!-- 60 -->
      <g style="fill: #94a3b8" transform="translate(21.679688 94.253249) scale(0.09 -0.09)">
       <use xlink:href="#MicrosoftYaHei-36"/>
       <use xlink:href="#MicrosoftYaHei-30" transform="translate(58.642578 0)"/>
      </g>
     </g>
    </g>
    <g id="ytick_5">
     <g id="line2d_18">
      <path d="M 39.235 55.536596 
L 470.185 55.536596 
" clip-path="url(#pafce13be36)" style="fill: none; stroke: #94a3b8; stroke-opacity: 0.15; stroke-width: 0.8; stroke-linecap: square"/>
     </g>
     <g id="line2d_19">
      <g>
       <use xlink:href="#m21609d6875" x="39.235" y="55.536596" style="fill: #94a3b8; stroke: #94a3b8; stroke-width: 0.8"/>
      </g>
     </g>
     <g id="text_14">
      <!-- 80 -->
      <g style="fill: #94a3b8" transform="translate(21.679688 59.133784) scale(0.09 -0.09)">
       <use xlink:href="#MicrosoftYaHei-38"/>
       <use xlink:href="#MicrosoftYaHei-30" transform="translate(58.642578 0)"/>
      </g>
     </g>
    </g>
    <g id="text_15">
     <!-- 市场规模（亿美元） -->
     <g style="fill: #1e293b" transform="translate(15.19375 166.385594) rotate(-90) scale(0.1 -0.1)">
      <defs>
       <path id="MicrosoftYaHei-5e02" d="M 1206 -191 
L 719 -191 
L 719 3041 
L 2950 3041 
L 2950 3903 
L 188 3903 
L 188 4378 
L 3103 4378 
Q 2909 4769 2650 5166 
L 3131 5391 
Q 3400 4997 3625 4584 
L 3213 4378 
L 6238 4378 
L 6238 3903 
L 3450 3903 
L 3450 3041 
L 5719 3041 
L 5719 703 
Q 5719 -84 4975 -84 
Q 4631 -84 4081 -72 
Q 4050 134 3994 428 
Q 4513 397 4825 397 
Q 5231 397 5231 809 
L 5231 2578 
L 3450 2578 
L 3450 -841 
L 2950 -841 
L 2950 2578 
L 1206 2578 
L 1206 -191 
z
" transform="scale(0.015625)"/>
       <path id="MicrosoftYaHei-573a" d="M 4800 4491 
L 2363 4491 
L 2363 4941 
L 5688 4941 
L 5688 4484 
L 3225 2928 
L 6063 2928 
Q 5988 1197 5919 253 
Q 5838 -703 5038 -703 
Q 4763 -703 4194 -684 
Q 4150 -372 4088 -141 
Q 4519 -209 4962 -209 
Q 5406 -209 5450 322 
Q 5513 1103 5575 2478 
L 4906 2478 
Q 4628 375 2963 -853 
Q 2788 -634 2613 -472 
Q 4163 600 4441 2478 
L 3641 2478 
Q 3281 913 1863 -103 
Q 1713 78 1538 259 
Q 2831 1144 3175 2478 
L 2431 2478 
L 2431 2953 
L 4800 4491 
z
M 94 703 
Q 547 888 1006 1088 
L 1006 3247 
L 169 3247 
L 169 3697 
L 1006 3697 
L 1006 5259 
L 1469 5259 
L 1469 3697 
L 2231 3697 
L 2231 3247 
L 1469 3247 
L 1469 1294 
Q 1819 1453 2175 1622 
Q 2188 1359 2231 1153 
Q 1319 741 288 222 
L 94 703 
z
" transform="scale(0.015625)"/>
       <path id="MicrosoftYaHei-89c4" d="M 4006 4047 
L 4469 4047 
L 4469 3116 
Q 4469 2272 4344 1653 
L 4756 1653 
L 4756 109 
Q 4756 -253 5100 -253 
L 5406 -253 
Q 5719 -253 5756 66 
Q 5800 428 5819 903 
Q 6113 778 6313 709 
Q 6269 266 6219 -84 
Q 6119 -691 5494 -691 
L 4975 -691 
Q 4300 -691 4300 34 
L 4300 1459 
Q 4019 234 2581 -878 
Q 2331 -597 2200 -478 
Q 3313 334 3669 1109 
Q 4006 1778 4006 3122 
L 4006 4047 
z
M 138 2559 
L 1100 2559 
Q 1113 2859 1113 3678 
L 219 3678 
L 219 4103 
L 1113 4103 
L 1113 5266 
L 1581 5266 
L 1581 4103 
L 2481 4103 
L 2481 3678 
L 1581 3678 
Q 1581 3216 1569 2559 
L 2581 2559 
L 2581 2134 
L 1544 2134 
Q 1538 1934 1513 1728 
Q 2106 1178 2788 491 
L 2400 128 
Q 1938 709 1431 1241 
Q 1144 59 394 -822 
Q 281 -653 94 -384 
Q 1038 791 1075 2134 
L 138 2134 
L 138 2559 
z
M 2763 5003 
L 5794 5003 
L 5794 1259 
L 5331 1259 
L 5331 4559 
L 3225 4559 
L 3225 1172 
L 2763 1172 
L 2763 5003 
z
" transform="scale(0.015625)"/>
       <path id="MicrosoftYaHei-6a21" d="M 2050 984 
L 3859 984 
Q 3900 1213 3913 1547 
L 2950 1547 
L 2950 1372 
L 2500 1372 
L 2500 3634 
L 5844 3634 
L 5844 1372 
L 5394 1372 
L 5394 1547 
L 4344 1547 
Q 4325 1203 4288 984 
L 6250 984 
L 6250 584 
L 4525 584 
Q 5203 -175 6319 -341 
Q 6144 -572 6013 -809 
Q 4803 -456 4128 466 
Q 3681 -431 2075 -847 
Q 1969 -628 1831 -416 
Q 3303 -106 3713 584 
L 2050 584 
L 2050 984 
z
M 63 1409 
Q 603 2316 922 3509 
L 138 3509 
L 138 3922 
L 1006 3922 
L 1006 5309 
L 1444 5309 
L 1444 3922 
L 2256 3922 
L 2256 3509 
L 1444 3509 
L 1444 2684 
L 1688 2884 
Q 2044 2503 2350 2116 
L 2006 1828 
Q 1719 2244 1444 2563 
L 1444 -822 
L 1006 -822 
L 1006 2581 
Q 672 1438 275 859 
Q 188 1128 63 1409 
z
M 4713 5303 
L 5150 5303 
L 5150 4703 
L 6225 4703 
L 6225 4303 
L 5150 4303 
L 5150 3797 
L 4713 3797 
L 4713 4303 
L 3600 4303 
L 3600 3797 
L 3163 3797 
L 3163 4303 
L 2175 4303 
L 2175 4703 
L 3163 4703 
L 3163 5309 
L 3600 5309 
L 3600 4703 
L 4713 4703 
L 4713 5303 
z
M 5394 3247 
L 2950 3247 
L 2950 2778 
L 5394 2778 
L 5394 3247 
z
M 2950 1934 
L 5394 1934 
L 5394 2403 
L 2950 2403 
L 2950 1934 
z
" transform="scale(0.015625)"/>
       <path id="MicrosoftYaHei-ff08" d="M 5288 -1100 
Q 4172 119 4172 1850 
Q 4172 3603 5288 4838 
L 5825 4838 
Q 4716 3572 4716 1856 
Q 4716 166 5819 -1100 
L 5288 -1100 
z
" transform="scale(0.015625)"/>
       <path id="MicrosoftYaHei-4ebf" d="M 5794 1653 
Q 5950 1578 6319 1466 
Q 6263 772 6175 259 
Q 6038 -534 5069 -541 
Q 4075 -578 3181 -541 
Q 2350 -497 2175 -9 
Q 2013 491 2569 1266 
Q 3113 2009 5119 4328 
L 2350 4328 
L 2350 4822 
L 5769 4822 
L 5769 4241 
Q 4256 2591 3138 1178 
Q 2613 472 2675 216 
Q 2700 -47 3369 -66 
Q 4131 -97 4888 -59 
Q 5331 -41 5475 66 
Q 5638 172 5688 503 
Q 5750 847 5794 1653 
z
M 88 2209 
Q 1000 3472 1531 5303 
L 2044 5153 
Q 1788 4388 1488 3716 
L 1488 -797 
L 1000 -797 
L 1000 2741 
Q 672 2153 300 1659 
Q 213 1934 88 2209 
z
" transform="scale(0.015625)"/>
       <path id="MicrosoftYaHei-7f8e" d="M 150 2403 
L 2956 2403 
L 2956 2991 
L 663 2991 
L 663 3416 
L 2956 3416 
L 2956 3991 
L 288 3991 
L 288 4416 
L 2259 4416 
Q 1938 4694 1425 5084 
L 1713 5397 
Q 2256 5028 2619 4753 
L 2288 4416 
L 3950 4416 
L 3719 4678 
Q 4213 5022 4613 5372 
L 4981 5022 
Q 4581 4722 4116 4416 
L 6150 4416 
L 6150 3991 
L 3469 3991 
L 3469 3416 
L 5813 3416 
L 5813 2991 
L 3469 2991 
L 3469 2403 
L 6263 2403 
L 6263 1978 
L 150 1978 
L 150 2403 
z
M 6313 -303 
Q 6075 -622 5950 -822 
Q 3897 -419 3216 803 
Q 2606 -488 406 -872 
Q 281 -659 100 -397 
Q 2200 -106 2741 916 
L 238 916 
L 238 1341 
L 2913 1341 
Q 2975 1559 3013 1841 
L 3525 1841 
Q 3475 1566 3413 1341 
L 6200 1341 
L 6200 916 
L 3631 916 
Q 4363 -138 6313 -303 
z
" transform="scale(0.015625)"/>
       <path id="MicrosoftYaHei-5143" d="M 188 3084 
L 6225 3084 
L 6225 2609 
L 4250 2609 
L 4250 172 
Q 4250 -197 4625 -197 
L 5163 -197 
Q 5613 -197 5675 216 
Q 5731 566 5769 1103 
Q 6019 1016 6313 947 
Q 6250 409 6181 47 
Q 6056 -641 5275 -641 
L 4513 -641 
Q 3725 -641 3725 128 
L 3725 2609 
L 2450 2609 
L 2450 2409 
Q 2450 1084 2050 447 
Q 1650 -247 469 -847 
Q 244 -572 100 -428 
Q 1181 103 1556 691 
Q 1925 1253 1925 2384 
L 1925 2609 
L 188 2609 
L 188 3084 
z
M 788 4903 
L 5638 4903 
L 5638 4428 
L 788 4428 
L 788 4903 
z
" transform="scale(0.015625)"/>
       <path id="MicrosoftYaHei-ff09" d="M 1113 -1100 
L 575 -1100 
Q 1684 163 1684 1888 
Q 1684 3581 581 4838 
L 1113 4838 
Q 2222 3628 2222 1888 
Q 2222 128 1113 -1100 
z
" transform="scale(0.015625)"/>
      </defs>
      <use xlink:href="#MicrosoftYaHei-5e02"/>
      <use xlink:href="#MicrosoftYaHei-573a" transform="translate(100 0)"/>
      <use xlink:href="#MicrosoftYaHei-89c4" transform="translate(200 0)"/>
      <use xlink:href="#MicrosoftYaHei-6a21" transform="translate(300 0)"/>
      <use xlink:href="#MicrosoftYaHei-ff08" transform="translate(400 0)"/>
      <use xlink:href="#MicrosoftYaHei-4ebf" transform="translate(500 0)"/>
      <use xlink:href="#MicrosoftYaHei-7f8e" transform="translate(600 0)"/>
      <use xlink:href="#MicrosoftYaHei-5143" transform="translate(700 0)"/>
      <use xlink:href="#MicrosoftYaHei-ff09" transform="translate(800 0)"/>
     </g>
    </g>
   </g>
   <g id="patch_3">
    <path d="M 39.235 203.477344 
L 39.235 39.293844 
" style="fill: none; stroke: #000000; stroke-width: 0.8; stroke-linejoin: miter; stroke-linecap: square"/>
   </g>
   <g id="patch_4">
    <path d="M 39.235 203.477344 
L 470.185 203.477344 
" style="fill: none; stroke: #000000; stroke-width: 0.8; stroke-linejoin: miter; stroke-linecap: square"/>
   </g>
   <g id="line2d_20">
    <path d="M 58.823636 129.287473 
L 107.795227 115.239687 
L 156.766818 122.26358 
L 205.738409 129.287473 
L 254.71 118.751634 
L 303.681591 104.703848 
L 352.653182 88.900088 
L 401.624773 69.584383 
L 450.596364 46.75673 
" clip-path="url(#pafce13be36)" style="fill: none; stroke: #1a56db; stroke-width: 2.5; stroke-linecap: square"/>
    <defs>
     <path id="m3ba54a76c0" d="M 0 3 
C 0.795609 3 1.55874 2.683901 2.12132 2.12132 
C 2.683901 1.55874 3 0.795609 3 0 
C 3 -0.795609 2.683901 -1.55874 2.12132 -2.12132 
C 1.55874 -2.683901 0.795609 -3 0 -3 
C -0.795609 -3 -1.55874 -2.683901 -2.12132 -2.12132 
C -2.683901 -1.55874 -3 -0.795609 -3 0 
C -3 0.795609 -2.683901 1.55874 -2.12132 2.12132 
C -1.55874 2.683901 -0.795609 3 0 3 
z
" style="stroke: #1a56db"/>
    </defs>
    <g clip-path="url(#pafce13be36)">
     <use xlink:href="#m3ba54a76c0" x="58.823636" y="129.287473" style="fill: #1a56db; stroke: #1a56db"/>
     <use xlink:href="#m3ba54a76c0" x="107.795227" y="115.239687" style="fill: #1a56db; stroke: #1a56db"/>
     <use xlink:href="#m3ba54a76c0" x="156.766818" y="122.26358" style="fill: #1a56db; stroke: #1a56db"/>
     <use xlink:href="#m3ba54a76c0" x="205.738409" y="129.287473" style="fill: #1a56db; stroke: #1a56db"/>
     <use xlink:href="#m3ba54a76c0" x="254.71" y="118.751634" style="fill: #1a56db; stroke: #1a56db"/>
     <use xlink:href="#m3ba54a76c0" x="303.681591" y="104.703848" style="fill: #1a56db; stroke: #1a56db"/>
     <use xlink:href="#m3ba54a76c0" x="352.653182" y="88.900088" style="fill: #1a56db; stroke: #1a56db"/>
     <use xlink:href="#m3ba54a76c0" x="401.624773" y="69.584383" style="fill: #1a56db; stroke: #1a56db"/>
     <use xlink:href="#m3ba54a76c0" x="450.596364" y="46.75673" style="fill: #1a56db; stroke: #1a56db"/>
    </g>
   </g>
   <g id="text_16">
    <!-- 38 -->
    <g style="fill: #1a56db" transform="translate(53.273168 119.287473) scale(0.09 -0.09)">
     <defs>
      <path id="MicrosoftYaHei-Bold-33" d="M 494 1053 
Q 978 691 1625 691 
Q 2034 691 2275 872 
Q 2516 1053 2516 1388 
Q 2516 1731 2230 1912 
Q 1944 2094 1428 2094 
L 997 2094 
L 997 2872 
L 1394 2872 
Q 2369 2872 2369 3528 
Q 2369 4147 1622 4147 
Q 1134 4147 675 3828 
L 675 4663 
Q 1175 4922 1853 4922 
Q 2541 4922 2969 4605 
Q 3397 4288 3397 3725 
Q 3397 2775 2434 2531 
L 2434 2516 
Q 2941 2459 3244 2145 
Q 3547 1831 3547 1381 
Q 3547 691 3042 303 
Q 2538 -84 1697 -84 
Q 950 -84 494 163 
L 494 1053 
z
" transform="scale(0.015625)"/>
      <path id="MicrosoftYaHei-Bold-38" d="M 269 1303 
Q 269 1725 512 2053 
Q 756 2381 1219 2534 
Q 850 2719 648 3003 
Q 447 3288 447 3634 
Q 447 3997 645 4292 
Q 844 4588 1200 4755 
Q 1556 4922 1997 4922 
Q 2441 4922 2800 4758 
Q 3159 4594 3359 4298 
Q 3559 4003 3559 3647 
Q 3559 3309 3339 3018 
Q 3119 2728 2747 2559 
Q 3200 2403 3453 2076 
Q 3706 1750 3706 1313 
Q 3706 697 3228 309 
Q 2750 -78 1988 -78 
Q 1225 -78 747 309 
Q 269 697 269 1303 
z
M 1278 1394 
Q 1278 1056 1472 853 
Q 1666 650 1991 650 
Q 2303 650 2503 853 
Q 2703 1056 2703 1394 
Q 2703 1709 2500 1920 
Q 2297 2131 1991 2131 
Q 1675 2131 1476 1920 
Q 1278 1709 1278 1394 
z
M 1428 3531 
Q 1428 3266 1592 3077 
Q 1756 2888 2006 2888 
Q 2247 2888 2415 3072 
Q 2584 3256 2584 3531 
Q 2584 3806 2420 3997 
Q 2256 4188 2006 4188 
Q 1750 4188 1589 3997 
Q 1428 3806 1428 3531 
z
" transform="scale(0.015625)"/>
     </defs>
     <use xlink:href="#MicrosoftYaHei-Bold-33"/>
     <use xlink:href="#MicrosoftYaHei-Bold-38" transform="translate(61.669922 0)"/>
    </g>
   </g>
   <g id="text_17">
    <!-- 46 -->
    <g style="fill: #1a56db" transform="translate(102.244759 105.239687) scale(0.09 -0.09)">
     <defs>
      <path id="MicrosoftYaHei-Bold-34" d="M 3184 4841 
L 3184 1766 
L 3869 1766 
L 3869 1031 
L 3184 1031 
L 3184 0 
L 2266 0 
L 2266 1031 
L 103 1031 
L 103 1772 
Q 775 2522 1362 3359 
Q 1950 4197 2250 4841 
L 3184 4841 
z
M 997 1766 
L 2266 1766 
L 2266 3541 
Q 2116 3259 1836 2859 
Q 1556 2459 997 1766 
z
" transform="scale(0.015625)"/>
      <path id="MicrosoftYaHei-Bold-36" d="M 3378 3938 
Q 3009 4147 2575 4147 
Q 2016 4147 1680 3708 
Q 1344 3269 1344 2572 
L 1363 2572 
Q 1709 3103 2391 3103 
Q 3000 3103 3358 2686 
Q 3716 2269 3716 1600 
Q 3716 869 3250 392 
Q 2784 -84 2059 -84 
Q 1228 -84 786 516 
Q 344 1116 344 2159 
Q 344 3388 917 4155 
Q 1491 4922 2513 4922 
Q 3063 4922 3378 4791 
L 3378 3938 
z
M 1378 1591 
Q 1378 1216 1565 953 
Q 1753 691 2059 691 
Q 2369 691 2547 931 
Q 2725 1172 2725 1534 
Q 2725 2350 2053 2350 
Q 1750 2350 1564 2134 
Q 1378 1919 1378 1591 
z
" transform="scale(0.015625)"/>
     </defs>
     <use xlink:href="#MicrosoftYaHei-Bold-34"/>
     <use xlink:href="#MicrosoftYaHei-Bold-36" transform="translate(61.669922 0)"/>
    </g>
   </g>
   <g id="text_18">
    <!-- 42 -->
    <g style="fill: #1a56db" transform="translate(151.216349 112.26358) scale(0.09 -0.09)">
     <defs>
      <path id="MicrosoftYaHei-Bold-32" d="M 1500 841 
L 3553 841 
L 3553 0 
L 334 0 
L 334 359 
Q 334 738 473 1050 
Q 613 1363 856 1633 
Q 1100 1903 1613 2266 
Q 2081 2616 2268 2886 
Q 2456 3156 2456 3459 
Q 2456 4113 1744 4113 
Q 1119 4113 550 3613 
L 550 4513 
Q 1184 4922 1975 4922 
Q 2700 4922 3122 4551 
Q 3544 4181 3544 3531 
Q 3544 3169 3422 2876 
Q 3300 2584 3069 2328 
Q 2838 2072 2328 1713 
Q 1838 1363 1669 1172 
Q 1500 981 1500 841 
z
" transform="scale(0.015625)"/>
     </defs>
     <use xlink:href="#MicrosoftYaHei-Bold-34"/>
     <use xlink:href="#MicrosoftYaHei-Bold-32" transform="translate(61.669922 0)"/>
    </g>
   </g>
   <g id="text_19">
    <!-- 38 -->
    <g style="fill: #1a56db" transform="translate(200.18794 119.287473) scale(0.09 -0.09)">
     <use xlink:href="#MicrosoftYaHei-Bold-33"/>
     <use xlink:href="#MicrosoftYaHei-Bold-38" transform="translate(61.669922 0)"/>
    </g>
   </g>
   <g id="text_20">
    <!-- 44 -->
    <g style="fill: #1a56db" transform="translate(249.159531 108.751634) scale(0.09 -0.09)">
     <use xlink:href="#MicrosoftYaHei-Bold-34"/>
     <use xlink:href="#MicrosoftYaHei-Bold-34" transform="translate(61.669922 0)"/>
    </g>
   </g>
   <g id="text_21">
    <!-- 52 -->
    <g style="fill: #1a56db" transform="translate(298.131122 94.703848) scale(0.09 -0.09)">
     <defs>
      <path id="MicrosoftYaHei-Bold-35" d="M 541 125 
L 541 997 
Q 1044 691 1613 691 
Q 2041 691 2283 902 
Q 2525 1113 2525 1472 
Q 2525 2225 1494 2225 
Q 1113 2225 616 2169 
L 797 4841 
L 3359 4841 
L 3359 4009 
L 1613 4009 
L 1544 2991 
Q 1803 3013 2022 3013 
Q 2731 3013 3142 2625 
Q 3553 2238 3553 1575 
Q 3553 844 3056 380 
Q 2559 -84 1706 -84 
Q 1016 -84 541 125 
z
" transform="scale(0.015625)"/>
     </defs>
     <use xlink:href="#MicrosoftYaHei-Bold-35"/>
     <use xlink:href="#MicrosoftYaHei-Bold-32" transform="translate(61.669922 0)"/>
    </g>
   </g>
   <g id="text_22">
    <!-- 61 -->
    <g style="fill: #1a56db" transform="translate(347.102713 78.900088) scale(0.09 -0.09)">
     <defs>
      <path id="MicrosoftYaHei-Bold-31" d="M 2716 4947 
L 2716 0 
L 1700 0 
L 1700 3809 
Q 1513 3647 1188 3517 
Q 863 3388 591 3356 
L 591 4222 
Q 1447 4472 2072 4947 
L 2716 4947 
z
" transform="scale(0.015625)"/>
     </defs>
     <use xlink:href="#MicrosoftYaHei-Bold-36"/>
     <use xlink:href="#MicrosoftYaHei-Bold-31" transform="translate(61.669922 0)"/>
    </g>
   </g>
   <g id="text_23">
    <!-- 72 -->
    <g style="fill: #1a56db" transform="translate(396.074304 59.584383) scale(0.09 -0.09)">
     <defs>
      <path id="MicrosoftYaHei-Bold-37" d="M 3675 4225 
Q 3088 3172 2798 2528 
Q 2509 1884 2328 1275 
Q 2147 666 2050 0 
L 966 0 
Q 1122 947 1517 1917 
Q 1913 2888 2609 4009 
L 300 4009 
L 300 4841 
L 3675 4841 
L 3675 4225 
z
" transform="scale(0.015625)"/>
     </defs>
     <use xlink:href="#MicrosoftYaHei-Bold-37"/>
     <use xlink:href="#MicrosoftYaHei-Bold-32" transform="translate(61.669922 0)"/>
    </g>
   </g>
   <g id="text_24">
    <!-- 85 -->
    <g style="fill: #1a56db" transform="translate(445.045895 36.75673) scale(0.09 -0.09)">
     <use xlink:href="#MicrosoftYaHei-Bold-38"/>
     <use xlink:href="#MicrosoftYaHei-Bold-35" transform="translate(61.669922 0)"/>
    </g>
   </g>
   <g id="text_25">
    <!-- 全球MLCC市场规模趋势 (2020-2028E) -->
    <g style="fill: #1e293b" transform="translate(39.235 17.591875) scale(0.13 -0.13)">
     <defs>
      <path id="MicrosoftYaHei-Bold-5168" d="M 369 184 
L 2731 184 
L 2731 934 
L 869 934 
L 869 1734 
L 2731 1734 
L 2731 2366 
L 1525 2366 
L 1525 2859 
Q 1113 2566 644 2284 
Q 463 2541 88 3016 
Q 2088 4091 2800 5316 
L 3894 5316 
L 3731 5078 
Q 4538 3922 6313 3091 
Q 5981 2678 5750 2353 
Q 5281 2603 4875 2878 
L 4875 2366 
L 3663 2366 
L 3663 1734 
L 5544 1734 
L 5544 934 
L 3663 934 
L 3663 184 
L 6031 184 
L 6031 -616 
L 369 -616 
L 369 184 
z
M 3200 4416 
Q 2688 3766 1925 3166 
L 4475 3166 
Q 3725 3741 3200 4416 
z
" transform="scale(0.015625)"/>
      <path id="MicrosoftYaHei-Bold-7403" d="M 5231 5322 
Q 5625 5034 6056 4634 
L 5728 4291 
L 6206 4291 
L 6206 3528 
L 4650 3528 
L 4650 3109 
Q 4772 2775 4916 2463 
Q 5331 2913 5638 3316 
L 6319 2797 
Q 5853 2294 5288 1772 
Q 5734 1050 6338 509 
Q 6063 91 5850 -341 
Q 5109 447 4650 1356 
L 4650 3 
Q 4650 -369 4484 -564 
Q 4319 -759 3964 -784 
Q 3609 -809 3006 -809 
Q 2931 -259 2838 41 
Q 3247 3 3441 3 
Q 3838 3 3825 428 
L 3825 1041 
Q 3231 641 2563 209 
L 2194 1053 
Q 2844 1403 3825 2025 
L 3825 3528 
L 2369 3528 
L 2369 4291 
L 3825 4291 
L 3825 5316 
L 4650 5316 
L 4650 4291 
L 5384 4291 
Q 5088 4575 4763 4841 
L 5231 5322 
z
M 250 -459 
L 75 428 
L 813 578 
L 813 2097 
L 206 2097 
L 206 2884 
L 813 2884 
L 813 4141 
L 150 4141 
L 150 4941 
L 2263 4941 
L 2263 4141 
L 1625 4141 
L 1625 2884 
L 2163 2884 
L 2163 2097 
L 1625 2097 
L 1625 750 
L 2256 884 
Q 2250 422 2269 41 
Q 1244 -178 250 -459 
z
M 2919 3322 
Q 3244 2872 3631 2203 
L 2931 1778 
Q 2588 2459 2269 2928 
L 2919 3322 
z
" transform="scale(0.015625)"/>
      <path id="MicrosoftYaHei-Bold-4d" d="M 4991 0 
L 4991 2938 
Q 4991 3344 5031 3959 
L 5006 3959 
Q 4913 3494 4856 3338 
L 3663 0 
L 2841 0 
L 1631 3306 
Q 1588 3425 1478 3959 
L 1450 3959 
Q 1491 3350 1491 2738 
L 1491 0 
L 559 0 
L 559 4841 
L 2059 4841 
L 3103 1916 
Q 3234 1553 3281 1234 
L 3303 1234 
Q 3400 1631 3503 1922 
L 4550 4841 
L 6009 4841 
L 6009 0 
L 4991 0 
z
" transform="scale(0.015625)"/>
      <path id="MicrosoftYaHei-Bold-4c" d="M 3400 0 
L 559 0 
L 559 4841 
L 1591 4841 
L 1591 844 
L 3400 844 
L 3400 0 
z
" transform="scale(0.015625)"/>
      <path id="MicrosoftYaHei-Bold-43" d="M 4013 175 
Q 3484 -84 2634 -84 
Q 1541 -84 898 570 
Q 256 1225 256 2316 
Q 256 3463 973 4192 
Q 1691 4922 2825 4922 
Q 3534 4922 4013 4738 
L 4013 3741 
Q 3522 4028 2900 4028 
Q 2191 4028 1766 3575 
Q 1341 3122 1341 2391 
Q 1341 1678 1744 1243 
Q 2147 809 2834 809 
Q 3481 809 4013 1122 
L 4013 175 
z
" transform="scale(0.015625)"/>
      <path id="MicrosoftYaHei-Bold-5e02" d="M 1513 -191 
L 663 -191 
L 663 3003 
L 2750 3003 
L 2750 3728 
L 231 3728 
L 231 4541 
L 2678 4541 
Q 2556 4856 2444 5128 
L 3438 5359 
Q 3588 4969 3728 4541 
L 6200 4541 
L 6200 3728 
L 3650 3728 
L 3650 3003 
L 5888 3003 
L 5888 784 
Q 5888 509 5802 309 
Q 5716 109 5547 -9 
Q 5378 -128 5156 -161 
Q 4934 -194 4125 -203 
Q 4025 209 3894 609 
Q 4238 584 4600 584 
Q 5038 584 5038 1003 
L 5038 2216 
L 3650 2216 
L 3650 -853 
L 2750 -853 
L 2750 2216 
L 1513 2216 
L 1513 -191 
z
" transform="scale(0.015625)"/>
      <path id="MicrosoftYaHei-Bold-573a" d="M 3869 3053 
L 6113 3053 
Q 6113 1753 6038 378 
Q 5994 -659 5094 -722 
Q 4756 -747 4294 -759 
Q 4250 -391 4138 109 
Q 3781 -403 3300 -816 
Q 2944 -541 2544 -278 
Q 3906 759 4225 2303 
L 3719 2303 
Q 3375 1041 2550 284 
Q 2400 416 2256 534 
Q 2250 322 2256 72 
Q 1150 -153 244 -366 
L 81 528 
Q 444 591 813 659 
L 813 2866 
L 144 2866 
L 144 3722 
L 813 3722 
L 813 5303 
L 1644 5303 
L 1644 3722 
L 2238 3722 
L 2238 2866 
L 1644 2866 
L 1644 822 
Q 1794 853 1938 884 
Q 2631 1434 2925 2303 
L 2369 2303 
L 2369 3047 
L 4231 4253 
L 2363 4253 
L 2363 5003 
L 5700 5003 
L 5700 4284 
L 3869 3053 
z
M 4694 116 
Q 5213 116 5244 559 
Q 5300 1203 5325 2303 
L 5000 2303 
Q 4769 1047 4156 134 
Q 4450 116 4694 116 
z
" transform="scale(0.015625)"/>
      <path id="MicrosoftYaHei-Bold-89c4" d="M 88 2766 
L 894 2766 
L 894 3516 
L 188 3516 
L 188 4291 
L 894 4291 
L 894 5284 
L 1694 5284 
L 1694 4291 
L 2400 4291 
L 2400 3516 
L 1694 3516 
L 1694 2766 
L 2488 2766 
L 2488 1984 
L 1675 1984 
Q 1666 1816 1647 1656 
Q 2091 1247 2650 666 
Q 2306 341 2088 91 
Q 1869 369 1506 788 
Q 1278 -194 769 -878 
Q 369 -447 75 -178 
Q 747 550 866 1984 
L 88 1984 
L 88 2766 
z
M 2650 1128 
L 2650 5066 
L 5913 5066 
L 5913 1197 
L 5100 1197 
L 5100 4259 
L 3463 4259 
L 3463 1128 
L 2650 1128 
z
M 5525 978 
Q 6000 747 6306 628 
Q 6184 -291 6031 -522 
Q 5878 -753 5469 -753 
L 4906 -753 
Q 4188 -753 4188 -78 
L 4188 644 
Q 3728 -297 2613 -884 
Q 2394 -572 2044 -172 
Q 3225 394 3540 1169 
Q 3856 1944 3856 3872 
L 4688 3872 
Q 4675 2513 4506 1641 
L 4931 1641 
L 4931 222 
Q 4931 -28 5150 -28 
L 5219 -28 
Q 5369 -28 5417 112 
Q 5466 253 5525 978 
z
" transform="scale(0.015625)"/>
      <path id="MicrosoftYaHei-Bold-6a21" d="M 6250 534 
L 4825 534 
Q 5419 84 6325 -53 
Q 6131 -403 5913 -859 
Q 4769 -522 4169 334 
Q 3694 -503 2406 -897 
Q 2206 -509 1925 -159 
Q 3013 66 3419 534 
L 2088 534 
L 2088 1141 
L 3719 1141 
Q 3756 1284 3769 1459 
L 2425 1459 
L 2425 2134 
L 1944 1659 
Q 1800 1878 1638 2109 
L 1638 -841 
L 863 -841 
L 863 1803 
Q 619 1141 275 547 
Q 213 978 75 1691 
Q 525 2453 788 3328 
L 138 3328 
L 138 4066 
L 863 4066 
L 863 5291 
L 1638 5291 
L 1638 4066 
L 2219 4066 
L 2219 3328 
L 1638 3328 
L 1638 2972 
Q 2081 2559 2425 2209 
L 2425 3703 
L 6025 3703 
L 6025 1459 
L 4556 1459 
Q 4544 1291 4519 1141 
L 6250 1141 
L 6250 534 
z
M 5250 2009 
L 5250 2353 
L 3200 2353 
L 3200 2009 
L 5250 2009 
z
M 5250 3147 
L 3200 3147 
L 3200 2816 
L 5250 2816 
L 5250 3147 
z
M 5413 3853 
L 4675 3853 
L 4675 4203 
L 3719 4203 
L 3719 3853 
L 2981 3853 
L 2981 4203 
L 2175 4203 
L 2175 4822 
L 2981 4822 
L 2981 5291 
L 3719 5291 
L 3719 4822 
L 4675 4822 
L 4675 5291 
L 5413 5291 
L 5413 4822 
L 6275 4822 
L 6275 4203 
L 5413 4203 
L 5413 3853 
z
" transform="scale(0.015625)"/>
      <path id="MicrosoftYaHei-Bold-8d8b" d="M 3175 2366 
L 5175 2366 
L 5175 2903 
L 3125 2903 
L 3125 3241 
L 3038 3147 
Q 2669 3553 2513 3697 
Q 2569 3753 2625 3816 
L 1956 3816 
L 1956 3191 
L 2900 3191 
L 2900 2447 
L 2231 2447 
L 2231 1784 
L 2888 1784 
L 2888 1022 
L 2231 1022 
L 2231 163 
Q 2369 97 3875 97 
Q 4819 97 6306 122 
Q 6144 -359 6050 -716 
Q 3291 -716 2342 -667 
Q 1394 -619 959 72 
Q 853 -513 675 -853 
Q 400 -572 75 -259 
Q 394 503 400 2184 
L 1131 2184 
Q 1122 1647 1091 1191 
Q 1209 794 1469 544 
L 1469 2447 
L 125 2447 
L 125 3191 
L 1163 3191 
L 1163 3816 
L 300 3816 
L 300 4559 
L 1163 4559 
L 1163 5322 
L 1956 5322 
L 1956 4559 
L 2706 4559 
L 2706 3906 
Q 3225 4497 3669 5359 
L 4444 5197 
Q 4369 5031 4281 4872 
L 5631 4872 
L 5631 4247 
L 5188 3566 
L 5950 3566 
L 5950 503 
L 3038 503 
L 3038 1166 
L 5175 1166 
L 5175 1716 
L 3175 1716 
L 3175 2366 
z
M 3403 3566 
L 4306 3566 
L 4781 4209 
L 3888 4209 
Q 3666 3881 3403 3566 
z
" transform="scale(0.015625)"/>
      <path id="MicrosoftYaHei-Bold-52bf" d="M 3400 -766 
Q 3325 -309 3244 34 
Q 4075 -9 4269 -9 
Q 4475 -9 4628 87 
Q 4781 184 4815 401 
Q 4850 619 4875 909 
L 3038 909 
Q 2613 -469 538 -909 
Q 275 -372 88 -72 
Q 1763 169 2134 909 
L 538 909 
L 538 1628 
L 2353 1628 
Q 2372 1741 2388 1866 
L 2675 1866 
Q 2475 2138 2231 2397 
Q 2709 2638 2988 2997 
Q 2753 3131 2519 3259 
L 2850 3797 
L 3288 3584 
Q 3347 3791 3363 4022 
L 2713 4022 
L 2713 4722 
L 3391 4722 
Q 3400 5069 3400 5328 
L 4163 5328 
Q 4163 5063 4153 4722 
L 5500 4722 
L 5488 3453 
Q 5488 2653 5644 2653 
Q 5731 2653 5800 3478 
Q 6063 3384 6350 3309 
Q 6213 1828 5550 1828 
Q 5166 1828 4970 2093 
Q 4775 2359 4761 2871 
Q 4747 3384 4744 4022 
L 4122 4022 
Q 4084 3609 3959 3247 
L 4669 2878 
L 4231 2234 
L 3641 2606 
Q 3359 2188 2919 1866 
L 3231 1866 
Q 3219 1747 3200 1628 
L 5781 1628 
L 5684 263 
Q 5656 -88 5492 -336 
Q 5328 -584 5012 -684 
Q 4697 -784 3400 -766 
z
M 200 3491 
L 1088 3566 
L 1088 3947 
L 313 3947 
L 313 4647 
L 1088 4647 
L 1088 5316 
L 1850 5316 
L 1850 4647 
L 2475 4647 
L 2475 3947 
L 1850 3947 
L 1850 3647 
L 2494 3722 
Q 2500 3372 2500 3009 
L 1850 2938 
L 1850 2753 
Q 1850 2391 1719 2162 
Q 1588 1934 1355 1854 
Q 1122 1775 419 1766 
Q 363 2128 281 2447 
Q 419 2428 763 2428 
Q 1088 2428 1088 2766 
L 1088 2853 
L 313 2766 
L 200 3491 
z
" transform="scale(0.015625)"/>
      <path id="MicrosoftYaHei-Bold-20" transform="scale(0.015625)"/>
      <path id="MicrosoftYaHei-Bold-28" d="M 1606 -1100 
Q 525 97 525 1853 
Q 525 3550 1606 4841 
L 2431 4841 
Q 1406 3497 1406 1853 
Q 1406 216 2438 -1100 
L 1606 -1100 
z
" transform="scale(0.015625)"/>
      <path id="MicrosoftYaHei-Bold-30" d="M 244 2341 
Q 244 3597 706 4259 
Q 1169 4922 2044 4922 
Q 3713 4922 3713 2453 
Q 3713 1238 3259 577 
Q 2806 -84 1950 -84 
Q 244 -84 244 2341 
z
M 1266 2366 
Q 1266 691 1981 691 
Q 2684 691 2684 2416 
Q 2684 4147 2000 4147 
Q 1266 4147 1266 2366 
z
" transform="scale(0.015625)"/>
      <path id="MicrosoftYaHei-Bold-2d" d="M 2328 1497 
L 481 1497 
L 481 2209 
L 2328 2209 
L 2328 1497 
z
" transform="scale(0.015625)"/>
      <path id="MicrosoftYaHei-Bold-45" d="M 3425 0 
L 559 0 
L 559 4841 
L 3313 4841 
L 3313 3997 
L 1591 3997 
L 1591 2856 
L 3191 2856 
L 3191 2016 
L 1591 2016 
L 1591 844 
L 3425 844 
L 3425 0 
z
" transform="scale(0.015625)"/>
      <path id="MicrosoftYaHei-Bold-29" d="M 59 -1100 
Q 1097 216 1097 1853 
Q 1097 3484 59 4841 
L 888 4841 
Q 1978 3544 1978 1853 
Q 1978 113 881 -1100 
L 59 -1100 
z
" transform="scale(0.015625)"/>
     </defs>
     <use xlink:href="#MicrosoftYaHei-Bold-5168"/>
     <use xlink:href="#MicrosoftYaHei-Bold-7403" transform="translate(100 0)"/>
     <use xlink:href="#MicrosoftYaHei-Bold-4d" transform="translate(200 0)"/>
     <use xlink:href="#MicrosoftYaHei-Bold-4c" transform="translate(302.832031 0)"/>
     <use xlink:href="#MicrosoftYaHei-Bold-43" transform="translate(354.769531 0)"/>
     <use xlink:href="#MicrosoftYaHei-Bold-43" transform="translate(418.978516 0)"/>
     <use xlink:href="#MicrosoftYaHei-Bold-5e02" transform="translate(486.3125 0)"/>
     <use xlink:href="#MicrosoftYaHei-Bold-573a" transform="translate(586.3125 0)"/>
     <use xlink:href="#MicrosoftYaHei-Bold-89c4" transform="translate(686.3125 0)"/>
     <use xlink:href="#MicrosoftYaHei-Bold-6a21" transform="translate(786.3125 0)"/>
     <use xlink:href="#MicrosoftYaHei-Bold-8d8b" transform="translate(886.3125 0)"/>
     <use xlink:href="#MicrosoftYaHei-Bold-52bf" transform="translate(986.3125 0)"/>
     <use xlink:href="#MicrosoftYaHei-Bold-20" transform="translate(1086.3125 0)"/>
     <use xlink:href="#MicrosoftYaHei-Bold-28" transform="translate(1116.097656 0)"/>
     <use xlink:href="#MicrosoftYaHei-Bold-32" transform="translate(1155.0625 0)"/>
     <use xlink:href="#MicrosoftYaHei-Bold-30" transform="translate(1216.732422 0)"/>
     <use xlink:href="#MicrosoftYaHei-Bold-32" transform="translate(1278.402344 0)"/>
     <use xlink:href="#MicrosoftYaHei-Bold-30" transform="translate(1340.072266 0)"/>
     <use xlink:href="#MicrosoftYaHei-Bold-2d" transform="translate(1401.742188 0)"/>
     <use xlink:href="#MicrosoftYaHei-Bold-32" transform="translate(1445.394531 0)"/>
     <use xlink:href="#MicrosoftYaHei-Bold-30" transform="translate(1507.064453 0)"/>
     <use xlink:href="#MicrosoftYaHei-Bold-32" transform="translate(1568.734375 0)"/>
     <use xlink:href="#MicrosoftYaHei-Bold-38" transform="translate(1630.404297 0)"/>
     <use xlink:href="#MicrosoftYaHei-Bold-45" transform="translate(1692.074219 0)"/>
     <use xlink:href="#MicrosoftYaHei-Bold-29" transform="translate(1749.251953 0)"/>
    </g>
    <!-- 高端化+AI驱动下，2028年预计突破850亿美元 -->
    <g style="fill: #1e293b" transform="translate(39.235 33.293844) scale(0.13 -0.13)">
     <defs>
      <path id="MicrosoftYaHei-Bold-9ad8" d="M 138 4853 
L 2734 4853 
Q 2647 5063 2569 5234 
L 3575 5384 
Q 3688 5103 3778 4853 
L 6275 4853 
L 6275 4216 
L 138 4216 
L 138 4853 
z
M 1031 2553 
L 1031 3953 
L 5394 3953 
L 5394 2553 
L 1031 2553 
z
M 4556 3091 
L 4556 3416 
L 1869 3416 
L 1869 3091 
L 4556 3091 
z
M 438 2284 
L 6000 2284 
L 6000 222 
Q 6000 -225 5825 -469 
Q 5650 -713 5356 -764 
Q 5063 -816 4156 -816 
Q 4088 -434 3994 -84 
Q 4350 -116 4756 -116 
Q 5175 -116 5175 291 
L 5175 1659 
L 1263 1659 
L 1263 -797 
L 438 -797 
L 438 2284 
z
M 1806 -228 
L 1806 1384 
L 4619 1384 
L 4619 -34 
L 2556 -34 
L 2556 -228 
L 1806 -228 
z
M 3869 491 
L 3869 859 
L 2556 859 
L 2556 491 
L 3869 491 
z
" transform="scale(0.015625)"/>
      <path id="MicrosoftYaHei-Bold-7aef" d="M 2513 3541 
L 2513 4966 
L 3238 4966 
L 3238 4266 
L 3813 4266 
L 3813 5359 
L 4619 5359 
L 4619 4266 
L 5200 4266 
L 5200 4966 
L 5925 4966 
L 5925 3541 
L 2513 3541 
z
M 156 4241 
L 909 4241 
Q 703 4738 538 5059 
L 1275 5353 
Q 1444 5047 1731 4472 
L 1159 4241 
L 2225 4241 
L 2225 3453 
L 156 3453 
L 156 4241 
z
M 1438 3322 
L 2194 3228 
L 1766 728 
L 2194 803 
Q 2169 603 2138 16 
Q 1263 -134 225 -359 
L 88 459 
L 1116 622 
Q 1294 1909 1438 3322 
z
M 838 3297 
L 1163 1034 
L 469 916 
Q 344 2078 163 3184 
L 838 3297 
z
M 2288 3184 
L 6175 3184 
L 6175 2447 
L 4488 2447 
L 4388 2053 
L 6088 2053 
L 6088 -322 
Q 6088 -650 5878 -747 
Q 5669 -844 5384 -844 
Q 5178 -844 4969 -809 
L 4928 -497 
L 4381 -497 
L 4381 1316 
L 4025 1316 
L 4025 -497 
L 3413 -497 
L 3413 1316 
L 3056 1316 
L 3056 -809 
L 2319 -809 
L 2319 2053 
L 3609 2053 
L 3691 2447 
L 2288 2447 
L 2288 3184 
z
M 5350 1316 
L 4994 1316 
L 4994 -116 
Q 5169 -134 5216 -134 
Q 5356 -134 5350 22 
L 5350 1316 
z
" transform="scale(0.015625)"/>
      <path id="MicrosoftYaHei-Bold-5316" d="M 1625 5297 
L 2494 5009 
Q 2200 4284 1856 3641 
L 1856 -797 
L 956 -797 
L 956 2191 
Q 653 1775 325 1403 
Q 219 1991 88 2497 
Q 1063 3728 1625 5297 
z
M 5456 4447 
L 6238 3847 
Q 5306 2809 4106 1900 
L 4106 622 
Q 4106 153 4513 153 
L 4781 153 
Q 5091 153 5189 359 
Q 5288 566 5350 1597 
Q 5863 1434 6300 1322 
Q 6188 419 6105 37 
Q 6022 -344 5705 -542 
Q 5388 -741 4831 -741 
L 4294 -741 
Q 3169 -741 3169 378 
L 3169 1234 
Q 2806 994 2425 766 
Q 2225 1097 1875 1584 
Q 2553 1947 3169 2378 
L 3169 5272 
L 4106 5272 
L 4106 3100 
Q 4834 3719 5456 4447 
z
" transform="scale(0.015625)"/>
      <path id="MicrosoftYaHei-Bold-2b" d="M 4072 1653 
L 2766 1653 
L 2766 347 
L 2109 347 
L 2109 1653 
L 797 1653 
L 797 2313 
L 2109 2313 
L 2109 3625 
L 2766 3625 
L 2766 2313 
L 4072 2313 
L 4072 1653 
z
" transform="scale(0.015625)"/>
      <path id="MicrosoftYaHei-Bold-41" d="M 4759 0 
L 3634 0 
L 3272 1109 
L 1513 1109 
L 1156 0 
L 38 0 
L 1809 4841 
L 3022 4841 
L 4759 0 
z
M 3028 1906 
L 2478 3584 
Q 2425 3744 2403 4006 
L 2375 4006 
Q 2356 3794 2291 3597 
L 1738 1906 
L 3028 1906 
z
" transform="scale(0.015625)"/>
      <path id="MicrosoftYaHei-Bold-49" d="M 1588 4841 
L 1588 0 
L 556 0 
L 556 4841 
L 1588 4841 
z
" transform="scale(0.015625)"/>
      <path id="MicrosoftYaHei-Bold-9a71" d="M 1169 4066 
L 1000 2503 
L 1419 2503 
L 1563 4241 
L 225 4241 
L 225 4991 
L 2413 4991 
L 2206 2503 
L 2569 2503 
Q 2519 950 2475 431 
Q 2431 -88 2354 -266 
Q 2278 -444 2123 -550 
Q 1969 -656 1819 -670 
Q 1669 -684 656 -684 
Q 600 -247 525 147 
Q 1134 91 1413 91 
Q 1706 91 1731 348 
Q 1756 606 1800 1753 
L 181 1753 
L 406 4066 
L 1169 4066 
z
M 2750 4941 
L 6163 4941 
L 6163 4191 
L 3575 4191 
L 3575 3688 
L 4131 4009 
L 4831 2869 
Q 5141 3472 5375 4091 
L 6056 3841 
Q 5688 2919 5272 2131 
L 6075 741 
L 5375 353 
L 4831 1350 
Q 4497 806 4138 341 
L 3575 744 
L 3575 166 
L 6250 166 
L 6250 -584 
L 2750 -584 
L 2750 4941 
z
M 4409 2106 
L 3575 3572 
L 3575 859 
Q 4034 1475 4409 2106 
z
M 75 1228 
Q 794 1291 1550 1391 
L 1563 641 
Q 806 547 175 441 
L 75 1228 
z
" transform="scale(0.015625)"/>
      <path id="MicrosoftYaHei-Bold-52a8" d="M 2469 2178 
L 3134 603 
Q 3563 1378 3553 3441 
L 2919 3441 
L 2919 4266 
L 3572 4266 
L 3581 5328 
L 4413 5328 
L 4400 4266 
L 6038 4266 
L 5966 734 
Q 5947 22 5905 -156 
Q 5863 -334 5731 -473 
Q 5600 -613 5387 -675 
Q 5175 -738 4269 -747 
Q 4169 -272 4044 191 
Q 4456 166 4728 166 
Q 4909 166 5006 237 
Q 5103 309 5120 445 
Q 5138 581 5161 1404 
Q 5184 2228 5194 3441 
L 4384 3441 
Q 4356 2047 4272 1445 
Q 4188 844 3925 228 
Q 3663 -388 3244 -866 
Q 2888 -584 2481 -341 
Q 2663 -156 2813 50 
L 1078 -97 
Q 688 -144 481 -228 
L 94 528 
Q 422 794 897 2491 
L 119 2491 
L 119 3291 
L 3006 3291 
L 3006 2491 
L 1806 2491 
Q 1516 1594 1188 747 
Q 1756 763 2216 788 
Q 1991 1416 1775 1947 
L 2469 2178 
z
M 2788 4066 
L 388 4066 
L 388 4866 
L 2788 4866 
L 2788 4066 
z
" transform="scale(0.015625)"/>
      <path id="MicrosoftYaHei-Bold-4e0b" d="M 4038 3372 
Q 5050 2647 6069 1866 
L 5425 1078 
Q 4363 1997 3488 2647 
L 3488 -822 
L 2475 -822 
L 2475 4066 
L 175 4066 
L 175 4947 
L 6213 4947 
L 6213 4066 
L 3488 4066 
L 3488 2822 
L 4038 3372 
z
" transform="scale(0.015625)"/>
      <path id="MicrosoftYaHei-Bold-ff0c" d="M 2075 831 
L 1569 -863 
L 831 -863 
L 1191 831 
L 2075 831 
z
" transform="scale(0.015625)"/>
      <path id="MicrosoftYaHei-Bold-5e74" d="M 5819 3059 
L 5819 2266 
L 4050 2266 
L 4050 1284 
L 6244 1284 
L 6244 491 
L 4050 491 
L 4050 -828 
L 3138 -828 
L 3138 491 
L 175 491 
L 175 1284 
L 1050 1284 
L 1050 2813 
Q 881 2634 700 2466 
Q 463 2822 138 3266 
Q 1088 4047 1600 5353 
L 2569 5209 
Q 2459 4938 2334 4678 
L 6056 4678 
L 6056 3884 
L 4050 3884 
L 4050 3059 
L 5819 3059 
z
M 1272 3059 
L 3138 3059 
L 3138 3884 
L 1888 3884 
Q 1606 3450 1272 3059 
z
M 1925 1284 
L 3138 1284 
L 3138 2266 
L 1925 2266 
L 1925 1284 
z
" transform="scale(0.015625)"/>
      <path id="MicrosoftYaHei-Bold-9884" d="M 2725 2984 
L 2525 903 
L 1963 903 
L 2088 2209 
L 1663 2209 
L 1663 -66 
Q 1663 -778 981 -822 
Q 763 -841 288 -841 
Q 213 -459 119 -34 
Q 319 -47 506 -47 
Q 850 -47 850 316 
L 850 2209 
L 75 2209 
L 75 2984 
L 938 2984 
Q 538 3266 181 3509 
L 625 4066 
Q 956 3797 1288 3516 
L 1800 4253 
L 175 4253 
L 175 5003 
L 2638 5003 
L 2638 4203 
L 1800 2984 
L 2725 2984 
z
M 2938 703 
L 2938 3703 
L 3913 3703 
L 4013 4241 
L 2813 4241 
L 2813 5016 
L 6188 5016 
L 6188 4241 
L 4856 4241 
L 4738 3703 
L 6081 3703 
L 6081 703 
L 5275 703 
L 5275 2928 
L 3744 2928 
L 3744 703 
L 2938 703 
z
M 4119 2603 
L 4906 2603 
L 4906 2422 
Q 4906 1447 4756 872 
Q 5606 278 6319 -303 
L 5731 -903 
Q 5175 -366 4450 191 
Q 4050 -366 3006 -909 
Q 2744 -509 2488 -178 
Q 3600 316 3881 878 
Q 4125 1366 4119 2422 
L 4119 2603 
z
" transform="scale(0.015625)"/>
      <path id="MicrosoftYaHei-Bold-8ba1" d="M 1194 5334 
Q 1681 4678 2019 4172 
L 1219 3691 
Q 913 4241 463 4916 
L 1194 5334 
z
M 2175 3428 
L 3763 3428 
L 3763 5328 
L 4700 5328 
L 4700 3428 
L 6300 3428 
L 6300 2591 
L 4700 2591 
L 4700 -847 
L 3763 -847 
L 3763 2591 
L 2175 2591 
L 2175 3428 
z
M 2481 1341 
Q 2531 759 2588 416 
Q 1388 -366 1063 -722 
L 600 -109 
Q 756 78 756 416 
L 756 2422 
L 119 2422 
L 119 3234 
L 1588 3234 
L 1588 766 
Q 1844 916 2481 1341 
z
" transform="scale(0.015625)"/>
      <path id="MicrosoftYaHei-Bold-7a81" d="M 3519 5334 
Q 3669 4934 3775 4578 
L 6163 4578 
L 6163 3316 
L 5363 3316 
L 5363 3841 
L 1050 3841 
L 1050 3316 
L 250 3316 
L 250 4578 
L 2806 4578 
Q 2719 4872 2581 5234 
L 3519 5334 
z
M 275 1941 
L 2678 1941 
Q 2713 2341 2725 2941 
L 3594 2941 
Q 3594 2488 3572 1941 
L 4213 1941 
Q 4125 2222 4038 2478 
L 4791 2631 
Q 4222 2900 3600 3166 
L 3950 3791 
Q 5094 3309 6006 2834 
L 5669 2197 
Q 5253 2409 4809 2622 
Q 4922 2259 5013 1941 
L 6150 1941 
L 6150 1203 
L 3856 1203 
Q 4681 150 6288 -84 
Q 6106 -453 5925 -884 
Q 4059 -456 3206 853 
Q 2666 -178 525 -878 
Q 356 -516 100 -84 
Q 1838 316 2409 1203 
L 275 1203 
L 275 1941 
z
M 2413 3772 
L 2813 3134 
L 800 2172 
Q 650 2459 425 2809 
Q 1406 3241 2413 3772 
z
" transform="scale(0.015625)"/>
      <path id="MicrosoftYaHei-Bold-7834" d="M 2388 4191 
L 1644 4191 
Q 1522 3669 1341 3178 
L 2206 3178 
L 2206 225 
Q 2566 1081 2544 2503 
L 2544 4597 
L 3981 4597 
L 3981 5366 
L 4794 5366 
L 4794 4597 
L 6200 4597 
L 6200 3878 
L 6069 3128 
L 5288 3128 
L 5406 3834 
L 4794 3834 
L 4794 2891 
L 6050 2891 
L 6050 2116 
Q 5763 1219 5178 516 
Q 5666 184 6306 16 
Q 6038 -378 5781 -816 
Q 5103 -528 4578 -88 
Q 4069 -522 3406 -859 
Q 3200 -500 2956 -134 
Q 2803 -534 2581 -884 
Q 2341 -469 2119 -116 
L 1244 -116 
L 1244 -509 
L 556 -509 
L 556 1569 
Q 459 1416 356 1266 
Q 250 1778 38 2228 
Q 616 3106 859 4191 
L 250 4191 
L 250 4891 
L 2388 4891 
L 2388 4191 
z
M 3306 2891 
L 3981 2891 
L 3981 3834 
L 3306 3834 
L 3306 2891 
z
M 1569 566 
L 1569 2497 
L 1194 2497 
L 1194 566 
L 1569 566 
z
M 4569 1059 
Q 4966 1534 5194 2159 
L 3947 2159 
Q 4175 1522 4569 1059 
z
M 3300 1697 
L 3875 2159 
L 3306 2159 
Q 3306 1891 3300 1697 
z
M 3300 1694 
Q 3269 741 2997 -25 
Q 3556 191 3991 513 
Q 3575 1031 3300 1694 
z
" transform="scale(0.015625)"/>
      <path id="MicrosoftYaHei-Bold-4ebf" d="M 1406 5359 
L 2275 5128 
Q 2013 4394 1700 3706 
L 1700 -853 
L 850 -853 
L 850 2103 
Q 628 1738 388 1391 
Q 269 1903 88 2572 
Q 850 3766 1406 5359 
z
M 5813 4891 
L 5813 4066 
Q 3153 1228 3153 475 
Q 3153 141 4050 141 
L 4631 141 
Q 4944 141 5125 308 
Q 5306 475 5353 787 
Q 5400 1100 5456 1716 
Q 5619 1647 6313 1391 
Q 6119 -88 5769 -386 
Q 5419 -684 4850 -684 
L 3781 -684 
Q 2209 -684 2209 428 
Q 2209 1372 4556 4034 
L 2350 4034 
L 2350 4891 
L 5813 4891 
z
" transform="scale(0.015625)"/>
      <path id="MicrosoftYaHei-Bold-7f8e" d="M 150 2566 
L 2756 2566 
L 2756 2922 
L 663 2922 
L 663 3603 
L 2756 3603 
L 2756 3959 
L 288 3959 
L 288 4641 
L 1688 4641 
Q 1553 4934 1406 5178 
L 2300 5353 
Q 2500 5028 2716 4641 
L 3678 4641 
Q 3906 4953 4175 5359 
L 5106 5172 
L 4634 4641 
L 6150 4641 
L 6150 3959 
L 3644 3959 
L 3644 3603 
L 5813 3603 
L 5813 2922 
L 3644 2922 
L 3644 2566 
L 6263 2566 
L 6263 1884 
L 150 1884 
L 150 2566 
z
M 238 1466 
L 2669 1466 
Q 2709 1634 2731 1816 
L 3638 1816 
Q 3613 1634 3575 1466 
L 6200 1466 
L 6200 784 
L 3963 784 
Q 4641 100 6300 -3 
Q 6156 -228 5875 -872 
Q 4031 -688 3197 466 
Q 2519 -644 400 -859 
Q 313 -572 88 -66 
Q 1816 103 2372 784 
L 238 784 
L 238 1466 
z
" transform="scale(0.015625)"/>
      <path id="MicrosoftYaHei-Bold-5143" d="M 675 4953 
L 5725 4953 
L 5725 4103 
L 675 4103 
L 675 4953 
z
M 5425 1178 
Q 6006 959 6300 866 
Q 6181 269 6073 -103 
Q 5966 -475 5708 -614 
Q 5450 -753 5081 -747 
L 4475 -747 
Q 3481 -747 3481 197 
L 3481 2266 
L 2584 2266 
Q 2494 19 750 -847 
Q 513 -566 88 -109 
Q 1619 609 1694 2266 
L 163 2266 
L 163 3128 
L 6238 3128 
L 6238 2266 
L 4388 2266 
L 4388 509 
Q 4388 59 4769 59 
L 4975 59 
Q 5166 59 5247 217 
Q 5328 375 5425 1178 
z
" transform="scale(0.015625)"/>
     </defs>
     <use xlink:href="#MicrosoftYaHei-Bold-9ad8"/>
     <use xlink:href="#MicrosoftYaHei-Bold-7aef" transform="translate(100 0)"/>
     <use xlink:href="#MicrosoftYaHei-Bold-5316" transform="translate(200 0)"/>
     <use xlink:href="#MicrosoftYaHei-Bold-2b" transform="translate(300 0)"/>
     <use xlink:href="#MicrosoftYaHei-Bold-41" transform="translate(376.123047 0)"/>
     <use xlink:href="#MicrosoftYaHei-Bold-49" transform="translate(451.318359 0)"/>
     <use xlink:href="#MicrosoftYaHei-Bold-9a71" transform="translate(484.863281 0)"/>
     <use xlink:href="#MicrosoftYaHei-Bold-52a8" transform="translate(584.863281 0)"/>
     <use xlink:href="#MicrosoftYaHei-Bold-4e0b" transform="translate(684.863281 0)"/>
     <use xlink:href="#MicrosoftYaHei-Bold-ff0c" transform="translate(784.863281 0)"/>
     <use xlink:href="#MicrosoftYaHei-Bold-32" transform="translate(884.863281 0)"/>
     <use xlink:href="#MicrosoftYaHei-Bold-30" transform="translate(946.533203 0)"/>
     <use xlink:href="#MicrosoftYaHei-Bold-32" transform="translate(1008.203125 0)"/>
     <use xlink:href="#MicrosoftYaHei-Bold-38" transform="translate(1069.873047 0)"/>
     <use xlink:href="#MicrosoftYaHei-Bold-5e74" transform="translate(1131.542969 0)"/>
     <use xlink:href="#MicrosoftYaHei-Bold-9884" transform="translate(1231.542969 0)"/>
     <use xlink:href="#MicrosoftYaHei-Bold-8ba1" transform="translate(1331.542969 0)"/>
     <use xlink:href="#MicrosoftYaHei-Bold-7a81" transform="translate(1431.542969 0)"/>
     <use xlink:href="#MicrosoftYaHei-Bold-7834" transform="translate(1531.542969 0)"/>
     <use xlink:href="#MicrosoftYaHei-Bold-38" transform="translate(1631.542969 0)"/>
     <use xlink:href="#MicrosoftYaHei-Bold-35" transform="translate(1693.212891 0)"/>
     <use xlink:href="#MicrosoftYaHei-Bold-30" transform="translate(1754.882812 0)"/>
     <use xlink:href="#MicrosoftYaHei-Bold-4ebf" transform="translate(1816.552734 0)"/>
     <use xlink:href="#MicrosoftYaHei-Bold-7f8e" transform="translate(1916.552734 0)"/>
     <use xlink:href="#MicrosoftYaHei-Bold-5143" transform="translate(2016.552734 0)"/>
    </g>
   </g>
  </g>
  <g id="text_26">
   <!-- 数据来源：ECIA、华经产业研究院、中国电子元件行业协会 | E=预测值 -->
   <g style="fill: #94a3b8" transform="translate(128.394375 234.797344) scale(0.07 -0.07)">
    <defs>
     <path id="MicrosoftYaHei-6570" d="M 4175 5303 
L 4675 5228 
Q 4544 4622 4369 4097 
L 6281 4097 
L 6281 3672 
L 5888 3672 
Q 5731 1834 5088 753 
Q 5594 66 6375 -372 
Q 6175 -647 6038 -866 
Q 5275 -372 4769 309 
Q 4194 -403 3400 -928 
Q 3263 -747 3044 -534 
Q 3919 41 4463 772 
Q 3956 1647 3794 2791 
Q 3663 2559 3519 2359 
Q 3394 2541 3206 2759 
Q 3931 3803 4175 5303 
z
M 150 1697 
L 1100 1697 
Q 1238 1934 1369 2184 
L 1819 2041 
Q 1719 1866 1619 1697 
L 3150 1697 
L 3150 1291 
Q 2913 678 2431 216 
Q 2775 53 3131 -109 
L 2856 -541 
Q 2469 -322 2050 -103 
Q 1344 -609 269 -903 
Q 169 -703 56 -466 
Q 969 -259 1600 128 
Q 1063 403 475 691 
Q 675 978 863 1284 
L 150 1284 
L 150 1697 
z
M 219 3847 
L 1656 3847 
L 1656 5247 
L 2119 5247 
L 2119 3847 
L 3319 3847 
L 3319 3434 
L 2119 3434 
L 2119 3053 
L 2306 3266 
Q 2888 2841 3281 2516 
L 2981 2166 
Q 2638 2491 2119 2897 
L 2119 2184 
L 1656 2184 
L 1656 3059 
Q 1088 2466 331 2016 
Q 213 2197 63 2397 
Q 850 2822 1506 3434 
L 219 3434 
L 219 3847 
z
M 5388 3672 
L 4219 3672 
Q 4188 3591 4150 3516 
Q 4263 2191 4775 1247 
Q 5275 2159 5388 3672 
z
M 1088 834 
Q 1531 634 2000 416 
Q 2431 784 2675 1284 
L 1375 1284 
Q 1231 1053 1088 834 
z
M 3038 5091 
L 3425 4834 
Q 3081 4384 2738 4003 
Q 2594 4128 2400 4266 
Q 2725 4647 3038 5091 
z
M 381 4816 
L 738 5059 
Q 1019 4716 1319 4322 
L 931 4047 
Q 656 4453 381 4816 
z
" transform="scale(0.015625)"/>
     <path id="MicrosoftYaHei-636e" d="M 2900 1334 
L 4188 1334 
L 4188 2128 
L 2731 2128 
Q 2663 206 1844 -841 
Q 1694 -647 1506 -447 
Q 2288 516 2288 2509 
L 2288 4947 
L 5975 4947 
L 5975 3134 
L 5525 3134 
L 5525 3328 
L 2738 3328 
L 2738 2553 
L 4188 2553 
L 4188 3209 
L 4638 3209 
L 4638 2553 
L 6288 2553 
L 6288 2128 
L 4638 2128 
L 4638 1334 
L 5938 1334 
L 5938 -778 
L 5488 -778 
L 5488 -416 
L 3350 -416 
L 3350 -778 
L 2900 -778 
L 2900 1334 
z
M 100 1966 
Q 544 2088 963 2213 
L 963 3641 
L 175 3641 
L 175 4091 
L 963 4091 
L 963 5284 
L 1425 5284 
L 1425 4091 
L 2106 4091 
L 2106 3641 
L 1425 3641 
L 1425 2356 
Q 1722 2450 2006 2547 
Q 2013 2266 2044 2059 
Q 1722 1956 1425 1856 
L 1425 -34 
Q 1425 -741 806 -753 
Q 613 -759 231 -747 
Q 206 -497 156 -228 
Q 500 -266 681 -266 
Q 963 -266 963 53 
L 963 1703 
Q 534 1559 163 1428 
L 100 1966 
z
M 5525 4534 
L 2738 4534 
L 2738 3741 
L 5525 3741 
L 5525 4534 
z
M 5488 922 
L 3350 922 
L 3350 -9 
L 5488 -9 
L 5488 922 
z
" transform="scale(0.015625)"/>
     <path id="MicrosoftYaHei-6765" d="M 6325 141 
Q 6119 -122 5975 -334 
Q 4344 403 3438 1550 
L 3438 -841 
L 2963 -841 
L 2963 1584 
Q 2050 516 413 -409 
Q 281 -222 75 22 
Q 1706 841 2806 1922 
L 181 1922 
L 181 2359 
L 2963 2359 
L 2963 4003 
L 550 4003 
L 550 4441 
L 2963 4441 
L 2963 5341 
L 3438 5341 
L 3438 4441 
L 5900 4441 
L 5900 4003 
L 3438 4003 
L 3438 2359 
L 6225 2359 
L 6225 1922 
L 3566 1922 
Q 4594 778 6325 141 
z
M 4056 2766 
Q 4631 3378 4950 3828 
L 5381 3497 
Q 4913 2941 4419 2453 
L 4056 2766 
z
M 1075 3509 
L 1438 3803 
Q 1900 3347 2313 2828 
L 1900 2484 
Q 1581 2922 1075 3509 
z
" transform="scale(0.015625)"/>
     <path id="MicrosoftYaHei-6e90" d="M 2931 3741 
L 3744 3741 
Q 3878 4094 4006 4478 
L 2425 4478 
L 2425 2678 
Q 2425 222 1463 -841 
Q 1313 -647 1100 -453 
Q 1963 509 1963 2672 
L 1963 4903 
L 6300 4903 
L 6300 4478 
L 4547 4478 
Q 4375 4103 4194 3741 
L 5844 3741 
L 5844 1178 
L 5394 1178 
L 5394 1341 
L 4588 1341 
L 4588 -128 
Q 4588 -797 3938 -797 
Q 3725 -797 3394 -791 
Q 3363 -603 3306 -359 
Q 3619 -384 3850 -384 
Q 4138 -384 4138 -84 
L 4138 1341 
L 3381 1341 
L 3381 1178 
L 2931 1178 
L 2931 3741 
z
M 831 1878 
Q 1056 1734 1275 1666 
Q 1019 603 700 -766 
L 219 -603 
Q 581 678 831 1878 
z
M 3381 1753 
L 5394 1753 
L 5394 2347 
L 3381 2347 
L 3381 1753 
z
M 5394 3328 
L 3381 3328 
L 3381 2747 
L 5394 2747 
L 5394 3328 
z
M 6288 -241 
L 5894 -541 
Q 5450 128 4931 759 
L 5294 1016 
Q 5863 353 6288 -241 
z
M 2363 -297 
Q 2894 272 3306 984 
L 3706 741 
Q 3231 -16 2731 -584 
L 2363 -297 
z
M 400 3622 
Q 888 3272 1500 2784 
Q 1281 2522 1144 2378 
Q 544 2909 88 3266 
L 400 3622 
z
M 669 5228 
Q 1163 4859 1688 4384 
Q 1469 4172 1313 4003 
Q 769 4541 350 4884 
L 669 5228 
z
" transform="scale(0.015625)"/>
     <path id="MicrosoftYaHei-ff1a" d="M 1606 3531 
Q 1772 3531 1890 3415 
Q 2009 3300 2009 3138 
Q 2009 2975 1893 2858 
Q 1778 2741 1606 2741 
Q 1434 2741 1318 2858 
Q 1203 2975 1203 3138 
Q 1203 3300 1322 3415 
Q 1441 3531 1606 3531 
z
M 1606 716 
Q 1772 716 1890 600 
Q 2009 484 2009 319 
Q 2009 150 1890 36 
Q 1772 -78 1606 -78 
Q 1441 -78 1322 36 
Q 1203 150 1203 319 
Q 1203 484 1322 600 
Q 1441 716 1606 716 
z
" transform="scale(0.015625)"/>
     <path id="MicrosoftYaHei-43" d="M 3938 200 
Q 3403 -81 2597 -81 
Q 1556 -81 934 580 
Q 313 1241 313 2328 
Q 313 3497 1013 4209 
Q 1713 4922 2791 4922 
Q 3484 4922 3938 4725 
L 3938 4072 
Q 3419 4359 2797 4359 
Q 1988 4359 1478 3820 
Q 969 3281 969 2366 
Q 969 1497 1444 986 
Q 1919 475 2688 475 
Q 3406 475 3938 800 
L 3938 200 
z
" transform="scale(0.015625)"/>
     <path id="MicrosoftYaHei-49" d="M 1250 4841 
L 1250 0 
L 625 0 
L 625 4841 
L 1250 4841 
z
" transform="scale(0.015625)"/>
     <path id="MicrosoftYaHei-41" d="M 4428 0 
L 3738 0 
L 3244 1325 
L 1228 1325 
L 763 0 
L 72 0 
L 1916 4841 
L 2584 4841 
L 4428 0 
z
M 3050 1872 
L 2319 3884 
Q 2284 3981 2244 4222 
L 2228 4222 
Q 2194 4003 2150 3884 
L 1425 1872 
L 3050 1872 
z
" transform="scale(0.015625)"/>
     <path id="MicrosoftYaHei-3001" d="M 1931 -413 
L 1556 -791 
Q 1028 -216 397 306 
L 728 650 
Q 1506 22 1931 -413 
z
" transform="scale(0.015625)"/>
     <path id="MicrosoftYaHei-534e" d="M 1950 3153 
Q 2756 3366 3456 3663 
L 3456 5234 
L 3944 5234 
L 3944 3884 
Q 4859 4338 5569 4947 
L 5900 4572 
Q 5063 3922 3944 3384 
L 3944 2872 
Q 3944 2453 4463 2453 
L 5125 2453 
Q 5600 2453 5669 2859 
Q 5738 3209 5756 3584 
Q 6063 3453 6244 3397 
Q 6188 2991 6125 2697 
Q 6006 2009 5231 2009 
L 4288 2009 
Q 3456 2009 3456 2784 
L 3456 3163 
Q 2875 2909 2225 2684 
Q 2113 2916 1950 3153 
z
M 181 1178 
L 2944 1178 
L 2944 2009 
L 3444 2009 
L 3444 1178 
L 6213 1178 
L 6213 728 
L 3444 728 
L 3444 -866 
L 2944 -866 
L 2944 728 
L 181 728 
L 181 1178 
z
M 138 3434 
Q 1250 4209 1906 5347 
L 2350 5122 
Q 2075 4678 1756 4281 
L 1756 1841 
L 1269 1841 
L 1269 3734 
Q 856 3316 381 2966 
Q 269 3203 138 3434 
z
" transform="scale(0.015625)"/>
     <path id="MicrosoftYaHei-7ecf" d="M 2550 4572 
L 2550 5022 
L 5563 5022 
L 5563 4566 
Q 5156 3981 4606 3481 
Q 5547 2997 6319 2528 
L 6000 2103 
Q 5200 2653 4253 3178 
Q 3509 2569 2356 2116 
Q 2231 2341 2056 2547 
Q 3875 3141 4988 4572 
L 2550 4572 
z
M 2150 -84 
L 3931 -84 
L 3931 1441 
L 2575 1441 
L 2575 1891 
L 5750 1891 
L 5750 1441 
L 4425 1441 
L 4425 -84 
L 6175 -84 
L 6175 -534 
L 2150 -534 
L 2150 -84 
z
M 888 1591 
Q 1500 1672 2231 1791 
Q 2194 1528 2175 1328 
Q 1406 1222 313 1034 
L 200 1497 
Q 684 1997 1188 2756 
Q 581 2719 250 2691 
L 131 3116 
Q 813 4022 1394 5347 
L 1869 5159 
Q 1288 4041 694 3153 
Q 1091 3163 1453 3172 
Q 1697 3569 1944 4028 
L 2406 3797 
Q 1600 2497 888 1591 
z
M 125 141 
Q 1425 403 2319 628 
Q 2300 372 2300 166 
Q 1450 -9 269 -322 
L 125 141 
z
" transform="scale(0.015625)"/>
     <path id="MicrosoftYaHei-4ea7" d="M 744 2809 
L 3700 2809 
Q 4122 3431 4456 4047 
L 4938 3741 
Q 4606 3275 4244 2809 
L 6094 2809 
L 6094 2372 
L 1250 2372 
L 1250 1934 
Q 1250 828 1081 284 
Q 906 -322 419 -853 
Q 256 -653 81 -428 
Q 450 -34 600 497 
Q 744 1016 744 1934 
L 744 2809 
z
M 231 4597 
L 3084 4597 
Q 2947 4853 2781 5122 
L 3244 5353 
Q 3447 5022 3659 4597 
L 6256 4597 
L 6256 4153 
L 231 4153 
L 231 4597 
z
M 1538 3797 
L 1950 4072 
Q 2338 3584 2638 3147 
L 2194 2841 
Q 1950 3253 1538 3797 
z
" transform="scale(0.015625)"/>
     <path id="MicrosoftYaHei-4e1a" d="M 119 47 
L 2125 47 
L 2125 5209 
L 2650 5209 
L 2650 47 
L 3744 47 
L 3744 5209 
L 4269 5209 
L 4269 47 
L 6294 47 
L 6294 -416 
L 119 -416 
L 119 47 
z
M 844 3984 
Q 1356 2778 1838 1422 
L 1325 1191 
Q 906 2509 388 3784 
L 844 3984 
z
M 4494 1366 
Q 5119 2691 5544 3928 
L 6050 3728 
Q 5469 2234 4944 1159 
L 4494 1366 
z
" transform="scale(0.015625)"/>
     <path id="MicrosoftYaHei-7814" d="M 2506 2616 
L 3259 2616 
Q 3263 2763 3263 4478 
L 2756 4478 
L 2756 4941 
L 6063 4941 
L 6063 4478 
L 5431 4478 
L 5431 2616 
L 6288 2616 
L 6288 2153 
L 5431 2153 
L 5431 -803 
L 4950 -803 
L 4950 2153 
L 3728 2153 
Q 3713 303 2525 -853 
Q 2331 -659 2113 -491 
Q 3225 553 3241 2153 
L 2506 2153 
L 2506 2616 
z
M 238 4916 
L 2519 4916 
L 2519 4478 
L 1613 4478 
Q 1459 3725 1209 3059 
L 2263 3059 
L 2263 128 
L 1088 128 
L 1088 -391 
L 650 -391 
L 650 1875 
Q 522 1656 381 1453 
Q 238 1678 81 1841 
Q 872 3022 1147 4478 
L 238 4478 
L 238 4916 
z
M 3741 2616 
L 4950 2616 
L 4950 4478 
L 3744 4478 
Q 3744 2859 3741 2616 
z
M 1825 559 
L 1825 2628 
L 1088 2628 
L 1088 559 
L 1825 559 
z
" transform="scale(0.015625)"/>
     <path id="MicrosoftYaHei-7a76" d="M 4613 2053 
L 4613 266 
Q 4613 -147 4944 -147 
L 5394 -147 
Q 5694 -147 5731 159 
Q 5775 466 5806 997 
Q 6019 897 6294 809 
Q 6269 478 6200 9 
Q 6125 -616 5525 -616 
L 4806 -616 
Q 4106 -616 4106 222 
L 4106 1603 
L 2700 1603 
Q 2466 -219 456 -834 
Q 269 -528 156 -391 
Q 2000 156 2200 1603 
L 606 1603 
L 606 2053 
L 2250 2053 
Q 2281 2409 2306 2934 
L 2800 2934 
Q 2778 2431 2747 2053 
L 4613 2053 
z
M 388 4528 
L 3028 4528 
Q 2841 4884 2688 5128 
L 3131 5359 
Q 3338 5047 3563 4659 
L 3288 4528 
L 6031 4528 
L 6031 3291 
L 5531 3291 
L 5531 4066 
L 888 4066 
L 888 3291 
L 388 3291 
L 388 4528 
z
M 3938 3834 
Q 4950 3241 5988 2559 
L 5663 2134 
Q 4656 2866 3638 3484 
L 3938 3834 
z
M 2244 3847 
L 2588 3509 
Q 1600 2734 588 2172 
Q 406 2428 281 2572 
Q 1400 3128 2244 3847 
z
" transform="scale(0.015625)"/>
     <path id="MicrosoftYaHei-9662" d="M 2169 1628 
Q 2350 428 1594 278 
Q 1344 228 988 266 
Q 944 522 856 772 
L 856 -816 
L 400 -816 
L 400 4953 
L 2144 4953 
L 2144 4516 
Q 1888 3534 1638 2816 
Q 2113 2153 2169 1628 
z
M 2300 2103 
L 6113 2103 
L 6113 1672 
L 4863 1672 
L 4863 72 
Q 4863 -222 5075 -222 
L 5494 -222 
Q 5713 -222 5756 72 
Q 5794 366 5819 903 
Q 6025 816 6313 709 
Q 6263 228 6206 -122 
Q 6138 -659 5569 -659 
L 4919 -659 
Q 4394 -659 4394 -59 
L 4394 1672 
L 3713 1672 
Q 3703 650 3400 184 
Q 3069 -359 2094 -834 
Q 1850 -516 1750 -409 
Q 2588 -78 2950 416 
Q 3250 847 3244 1672 
L 2300 1672 
L 2300 2103 
z
M 2325 4528 
L 4047 4528 
Q 3881 4816 3669 5134 
L 4069 5366 
Q 4325 4997 4513 4691 
L 4231 4528 
L 6044 4528 
L 6044 3528 
L 5569 3528 
L 5569 4097 
L 2800 4097 
L 2800 3528 
L 2325 3528 
L 2325 4528 
z
M 1419 741 
Q 1838 822 1694 1634 
Q 1625 2091 1150 2734 
Q 1500 3941 1650 4516 
L 856 4516 
L 856 791 
Q 1175 709 1419 741 
z
M 2588 3316 
L 5800 3316 
L 5800 2884 
L 2588 2884 
L 2588 3316 
z
" transform="scale(0.015625)"/>
     <path id="MicrosoftYaHei-4e2d" d="M 525 3972 
L 2931 3972 
L 2931 5334 
L 3469 5334 
L 3469 3972 
L 5900 3972 
L 5900 1122 
L 5388 1122 
L 5388 1459 
L 3469 1459 
L 3469 -866 
L 2931 -866 
L 2931 1459 
L 1038 1459 
L 1038 1122 
L 525 1122 
L 525 3972 
z
M 5388 3509 
L 3469 3509 
L 3469 1922 
L 5388 1922 
L 5388 3509 
z
M 1038 1922 
L 2931 1922 
L 2931 3509 
L 1038 3509 
L 1038 1922 
z
" transform="scale(0.015625)"/>
     <path id="MicrosoftYaHei-56fd" d="M 469 4997 
L 5938 4997 
L 5938 -834 
L 5456 -834 
L 5456 -522 
L 950 -522 
L 950 -841 
L 469 -841 
L 469 4997 
z
M 5456 4553 
L 950 4553 
L 950 -78 
L 5456 -78 
L 5456 4553 
z
M 1238 1009 
L 2963 1009 
L 2963 2247 
L 1456 2247 
L 1456 2672 
L 2963 2672 
L 2963 3509 
L 1338 3509 
L 1338 3934 
L 5063 3934 
L 5063 3509 
L 3425 3509 
L 3425 2672 
L 4938 2672 
L 4938 2247 
L 3425 2247 
L 3425 1009 
L 5163 1009 
L 5163 584 
L 1238 584 
L 1238 1009 
z
M 3750 1847 
L 4100 2109 
Q 4444 1753 4688 1441 
L 4319 1159 
Q 4019 1566 3750 1847 
z
" transform="scale(0.015625)"/>
     <path id="MicrosoftYaHei-7535" d="M 406 4497 
L 2713 4497 
L 2713 5297 
L 3231 5297 
L 3231 4497 
L 5544 4497 
L 5544 984 
L 3231 984 
L 3231 253 
Q 3231 -128 3631 -128 
L 5094 -128 
Q 5519 -128 5613 153 
Q 5713 459 5756 1034 
Q 5938 953 6275 841 
Q 6200 341 6106 -16 
Q 5950 -603 5256 -603 
L 3594 -603 
Q 2713 -603 2713 259 
L 2713 984 
L 925 984 
L 925 553 
L 406 553 
L 406 4497 
z
M 5025 1453 
L 5025 2522 
L 3231 2522 
L 3231 1453 
L 5025 1453 
z
M 925 1453 
L 2713 1453 
L 2713 2522 
L 925 2522 
L 925 1453 
z
M 5025 4028 
L 3231 4028 
L 3231 2966 
L 5025 2966 
L 5025 4028 
z
M 925 2966 
L 2713 2966 
L 2713 4028 
L 925 4028 
L 925 2966 
z
" transform="scale(0.015625)"/>
     <path id="MicrosoftYaHei-5b50" d="M 125 2497 
L 3031 2497 
L 3031 3184 
L 4825 4491 
L 781 4491 
L 781 4959 
L 5656 4959 
L 5656 4472 
L 3563 2941 
L 3563 2497 
L 6300 2497 
L 6300 2028 
L 3563 2028 
L 3563 59 
Q 3563 -778 2688 -778 
Q 2400 -778 1700 -766 
Q 1675 -516 1625 -197 
Q 2081 -253 2588 -259 
Q 3031 -259 3031 191 
L 3031 2028 
L 125 2028 
L 125 2497 
z
" transform="scale(0.015625)"/>
     <path id="MicrosoftYaHei-4ef6" d="M 1950 1816 
L 4119 1816 
L 4119 3397 
L 2928 3397 
Q 2675 2725 2375 2197 
Q 2194 2372 1963 2528 
Q 2556 3572 2838 4859 
L 3344 4716 
Q 3222 4250 3081 3834 
L 4119 3834 
L 4119 5284 
L 4619 5284 
L 4619 3834 
L 6113 3834 
L 6113 3397 
L 4619 3397 
L 4619 1816 
L 6319 1816 
L 6319 1378 
L 4619 1378 
L 4619 -809 
L 4119 -809 
L 4119 1378 
L 1950 1378 
L 1950 1816 
z
M 69 2191 
Q 931 3466 1456 5278 
L 1969 5128 
Q 1738 4400 1469 3763 
L 1469 -816 
L 975 -816 
L 975 2731 
Q 656 2141 294 1647 
Q 200 1916 69 2191 
z
" transform="scale(0.015625)"/>
     <path id="MicrosoftYaHei-884c" d="M 2363 2978 
L 6319 2978 
L 6319 2509 
L 5106 2509 
L 5106 66 
Q 5106 -709 4325 -709 
Q 3800 -709 3256 -703 
Q 3219 -453 3163 -141 
Q 3650 -191 4144 -191 
Q 4575 -191 4575 234 
L 4575 2509 
L 2363 2509 
L 2363 2978 
z
M 100 1578 
Q 1069 2372 1863 3809 
L 2300 3541 
Q 1978 2984 1619 2500 
L 1619 -809 
L 1100 -809 
L 1100 1856 
Q 725 1431 319 1072 
Q 219 1334 100 1578 
z
M 2725 4866 
L 5969 4866 
L 5969 4397 
L 2725 4397 
L 2725 4866 
z
M 131 3559 
Q 1125 4328 1731 5347 
L 2181 5072 
Q 1456 3959 381 3078 
Q 269 3316 131 3559 
z
" transform="scale(0.015625)"/>
     <path id="MicrosoftYaHei-534f" d="M 2206 4022 
L 3291 4022 
Q 3313 4659 3313 5278 
L 3800 5278 
Q 3794 4697 3772 4022 
L 5294 4022 
Q 5231 1716 5150 172 
Q 5113 -691 4281 -691 
Q 4075 -691 3594 -678 
Q 3550 -391 3488 -134 
Q 3894 -191 4200 -191 
Q 4650 -197 4675 291 
Q 4750 1784 4794 3534 
L 3756 3534 
Q 3722 2138 3538 1322 
Q 3219 84 2225 -778 
Q 2069 -603 1863 -409 
Q 2756 378 3056 1453 
Q 3250 2184 3278 3534 
L 2206 3534 
L 2206 4022 
z
M 94 3484 
L 775 3484 
L 775 5272 
L 1256 5272 
L 1256 3484 
L 1863 3484 
L 1863 3028 
L 1256 3028 
L 1256 -803 
L 775 -803 
L 775 3028 
L 94 3028 
L 94 3484 
z
M 2394 2916 
L 2813 2759 
Q 2500 1934 2088 997 
Q 1894 1103 1669 1191 
Q 2075 1978 2394 2916 
z
M 5331 2791 
L 5750 2922 
Q 6063 2047 6319 1278 
L 5863 1122 
Q 5600 2053 5331 2791 
z
" transform="scale(0.015625)"/>
     <path id="MicrosoftYaHei-4f1a" d="M 4144 972 
Q 5050 166 5706 -541 
L 5300 -903 
Q 5100 -672 4838 -391 
Q 3281 -484 1656 -603 
Q 1394 -628 1125 -741 
L 844 -222 
Q 1150 -109 1363 78 
Q 1906 609 2413 1322 
L 331 1322 
L 331 1784 
L 6069 1784 
L 6069 1322 
L 3044 1322 
Q 2406 516 1800 -109 
Q 3181 -41 4438 22 
Q 4150 316 3806 659 
L 4144 972 
z
M 3200 4747 
Q 1950 3272 394 2372 
Q 244 2597 50 2828 
Q 1844 3747 2956 5253 
L 3625 5253 
L 3506 5097 
Q 4588 3653 6363 2978 
Q 6175 2728 6013 2447 
Q 4200 3328 3200 4747 
z
M 1463 3072 
L 4913 3072 
L 4913 2609 
L 1463 2609 
L 1463 3072 
z
" transform="scale(0.015625)"/>
     <path id="MicrosoftYaHei-20" transform="scale(0.015625)"/>
     <path id="MicrosoftYaHei-7c" d="M 1134 -1628 
L 597 -1628 
L 597 5284 
L 1134 5284 
L 1134 -1628 
z
" transform="scale(0.015625)"/>
     <path id="MicrosoftYaHei-3d" d="M 3972 2497 
L 788 2497 
L 788 2969 
L 3972 2969 
L 3972 2497 
z
M 3972 1053 
L 788 1053 
L 788 1525 
L 3972 1525 
L 3972 1053 
z
" transform="scale(0.015625)"/>
     <path id="MicrosoftYaHei-9884" d="M 531 3872 
L 844 4147 
Q 1069 3947 1275 3747 
L 1938 4553 
L 175 4553 
L 175 4991 
L 2513 4991 
L 2513 4553 
L 1588 3434 
Q 1694 3322 1794 3216 
L 1544 2997 
L 2681 2997 
L 2681 2578 
Q 2581 2097 2369 1466 
Q 2175 1534 1938 1609 
Q 2094 2003 2213 2559 
L 1588 2559 
L 1588 -72 
Q 1588 -784 888 -784 
L 225 -784 
Q 194 -559 138 -278 
Q 450 -316 769 -316 
Q 1119 -316 1119 84 
L 1119 2559 
L 113 2559 
L 113 2997 
L 1344 2997 
Q 938 3484 531 3872 
z
M 2969 3716 
L 4025 3716 
L 4181 4572 
L 2744 4572 
L 2744 5009 
L 6294 5009 
L 6294 4572 
L 4688 4572 
L 4506 3716 
L 6006 3716 
L 6006 641 
L 5550 641 
L 5550 3284 
L 3425 3284 
L 3425 641 
L 2969 641 
L 2969 3716 
z
M 4244 3028 
L 4706 3028 
L 4706 2097 
Q 4706 1366 4519 841 
Q 5500 184 6306 -441 
L 5963 -847 
Q 5200 -197 4325 428 
Q 4263 334 4200 247 
Q 3694 -397 2613 -897 
Q 2413 -641 2263 -484 
Q 3381 -22 3831 572 
Q 4244 1109 4244 2128 
L 4244 3028 
z
" transform="scale(0.015625)"/>
     <path id="MicrosoftYaHei-6d4b" d="M 875 1753 
Q 1175 1597 1369 1522 
Q 950 -41 763 -784 
L 250 -547 
Q 619 497 875 1753 
z
M 638 5166 
Q 1019 4847 1588 4303 
Q 1381 4103 1213 3928 
Q 756 4434 313 4853 
L 638 5166 
z
M 356 3559 
Q 881 3134 1350 2716 
Q 1188 2547 988 2322 
Q 425 2878 50 3216 
L 356 3559 
z
M 5575 5284 
L 6031 5284 
L 6031 -34 
Q 6031 -753 5338 -753 
Q 5038 -753 4625 -741 
Q 4600 -509 4538 -228 
Q 4938 -272 5219 -272 
Q 5575 -272 5575 84 
L 5575 5284 
z
M 5038 634 
L 4600 634 
L 4600 4778 
L 5038 4778 
L 5038 634 
z
M 1706 4941 
L 4063 4941 
L 4063 991 
L 3613 991 
L 3613 4503 
L 2156 4503 
L 2156 991 
L 1706 991 
L 1706 4941 
z
M 2681 3966 
L 3138 3966 
L 3138 2416 
Q 3138 1466 2963 891 
Q 3775 266 4375 -234 
L 4038 -616 
Q 3538 -141 2800 472 
Q 2413 -297 1406 -884 
Q 1269 -684 1100 -484 
Q 2031 53 2375 709 
Q 2681 1278 2681 2403 
L 2681 3966 
z
" transform="scale(0.015625)"/>
     <path id="MicrosoftYaHei-503c" d="M 1619 -216 
L 2250 -216 
L 2250 3653 
L 3725 3653 
L 3725 4222 
L 1913 4222 
L 1913 4647 
L 3725 4647 
L 3725 5309 
L 4200 5309 
L 4200 4647 
L 6169 4647 
L 6169 4222 
L 4200 4222 
L 4200 3653 
L 5713 3653 
L 5713 -216 
L 6306 -216 
L 6306 -641 
L 1619 -641 
L 1619 -216 
z
M 69 2247 
Q 906 3497 1369 5278 
L 1831 5141 
Q 1581 4334 1288 3628 
L 1288 -816 
L 831 -816 
L 831 2666 
Q 563 2166 263 1734 
Q 175 1997 69 2247 
z
M 2713 -216 
L 5250 -216 
L 5250 353 
L 2713 353 
L 2713 -216 
z
M 5250 3241 
L 2713 3241 
L 2713 2678 
L 5250 2678 
L 5250 3241 
z
M 2713 1716 
L 5250 1716 
L 5250 2278 
L 2713 2278 
L 2713 1716 
z
M 2713 753 
L 5250 753 
L 5250 1316 
L 2713 1316 
L 2713 753 
z
" transform="scale(0.015625)"/>
    </defs>
    <use xlink:href="#MicrosoftYaHei-6570"/>
    <use xlink:href="#MicrosoftYaHei-636e" transform="translate(100 0)"/>
    <use xlink:href="#MicrosoftYaHei-6765" transform="translate(200 0)"/>
    <use xlink:href="#MicrosoftYaHei-6e90" transform="translate(300 0)"/>
    <use xlink:href="#MicrosoftYaHei-ff1a" transform="translate(400 0)"/>
    <use xlink:href="#MicrosoftYaHei-45" transform="translate(500 0)"/>
    <use xlink:href="#MicrosoftYaHei-43" transform="translate(554.980469 0)"/>
    <use xlink:href="#MicrosoftYaHei-49" transform="translate(621.875 0)"/>
    <use xlink:href="#MicrosoftYaHei-41" transform="translate(651.269531 0)"/>
    <use xlink:href="#MicrosoftYaHei-3001" transform="translate(721.630859 0)"/>
    <use xlink:href="#MicrosoftYaHei-534e" transform="translate(821.630859 0)"/>
    <use xlink:href="#MicrosoftYaHei-7ecf" transform="translate(921.630859 0)"/>
    <use xlink:href="#MicrosoftYaHei-4ea7" transform="translate(1021.630859 0)"/>
    <use xlink:href="#MicrosoftYaHei-4e1a" transform="translate(1121.630859 0)"/>
    <use xlink:href="#MicrosoftYaHei-7814" transform="translate(1221.630859 0)"/>
    <use xlink:href="#MicrosoftYaHei-7a76" transform="translate(1321.630859 0)"/>
    <use xlink:href="#MicrosoftYaHei-9662" transform="translate(1421.630859 0)"/>
    <use xlink:href="#MicrosoftYaHei-3001" transform="translate(1521.630859 0)"/>
    <use xlink:href="#MicrosoftYaHei-4e2d" transform="translate(1621.630859 0)"/>
    <use xlink:href="#MicrosoftYaHei-56fd" transform="translate(1721.630859 0)"/>
    <use xlink:href="#MicrosoftYaHei-7535" transform="translate(1821.630859 0)"/>
    <use xlink:href="#MicrosoftYaHei-5b50" transform="translate(1921.630859 0)"/>
    <use xlink:href="#MicrosoftYaHei-5143" transform="translate(2021.630859 0)"/>
    <use xlink:href="#MicrosoftYaHei-4ef6" transform="translate(2121.630859 0)"/>
    <use xlink:href="#MicrosoftYaHei-884c" transform="translate(2221.630859 0)"/>
    <use xlink:href="#MicrosoftYaHei-4e1a" transform="translate(2321.630859 0)"/>
    <use xlink:href="#MicrosoftYaHei-534f" transform="translate(2421.630859 0)"/>
    <use xlink:href="#MicrosoftYaHei-4f1a" transform="translate(2521.630859 0)"/>
    <use xlink:href="#MicrosoftYaHei-20" transform="translate(2621.630859 0)"/>
    <use xlink:href="#MicrosoftYaHei-7c" transform="translate(2651.220703 0)"/>
    <use xlink:href="#MicrosoftYaHei-20" transform="translate(2678.125 0)"/>
    <use xlink:href="#MicrosoftYaHei-45" transform="translate(2707.714844 0)"/>
    <use xlink:href="#MicrosoftYaHei-3d" transform="translate(2762.695312 0)"/>
    <use xlink:href="#MicrosoftYaHei-9884" transform="translate(2836.865234 0)"/>
    <use xlink:href="#MicrosoftYaHei-6d4b" transform="translate(2936.865234 0)"/>
    <use xlink:href="#MicrosoftYaHei-503c" transform="translate(3036.865234 0)"/>
   </g>
  </g>
 </g>
 <defs>
  <clipPath id="pafce13be36">
   <rect x="39.235" y="39.293844" width="430.95" height="164.1835"/>
  </clipPath>
 </defs>
</svg>
