<?xml version="1.0" encoding="utf-8" standalone="no"?>
<!DOCTYPE svg PUBLIC "-//W3C//DTD SVG 1.1//EN"
  "http://www.w3.org/Graphics/SVG/1.1/DTD/svg11.dtd">
<svg xmlns:xlink="http://www.w3.org/1999/xlink" width="477.442656pt" height="244.178469pt" viewBox="0 0 477.442656 244.178469" xmlns="http://www.w3.org/2000/svg" version="1.1">
 <metadata>
  <rdf:RDF xmlns:dc="http://purl.org/dc/elements/1.1/" xmlns:cc="http://creativecommons.org/ns#" xmlns:rdf="http://www.w3.org/1999/02/22-rdf-syntax-ns#">
   <cc:Work>
    <dc:type rdf:resource="http://purl.org/dc/dcmitype/StillImage"/>
    <dc:date>2026-06-12T20:41:30.714221</dc:date>
    <dc:format>image/svg+xml</dc:format>
    <dc:creator>
     <cc:Agent>
      <dc:title>Matplotlib v3.10.9, https://matplotlib.org/</dc:title>
     </cc:Agent>
    </dc:creator>
   </cc:Work>
  </rdf:RDF>
 </metadata>
 <defs>
  <style type="text/css">*{stroke-linejoin: round; stroke-linecap: butt}</style>
 </defs>
 <g id="figure_1">
  <g id="patch_1">
   <path d="M 0 244.178469 
L 477.442656 244.178469 
L 477.442656 0 
L 0 0 
z
" style="fill: #ffffff"/>
  </g>
  <g id="axes_1">
   <g id="patch_2">
    <path d="M 44.512656 192.438844 
L 470.242656 192.438844 
L 470.242656 39.293844 
L 44.512656 39.293844 
z
" style="fill: #ffffff"/>
   </g>
   <g id="patch_3">
    <path d="M 63.86402 192.438844 
L 92.6852 192.438844 
L 92.6852 192.347686 
L 63.86402 192.347686 
z
" clip-path="url(#p71a906eee6)" style="fill: #93c5fd; stroke: #ffffff; stroke-width: 0.5; stroke-linejoin: miter"/>
   </g>
   <g id="patch_4">
    <path d="M 146.210248 192.438844 
L 175.031428 192.438844 
L 175.031428 192.074213 
L 146.210248 192.074213 
z
" clip-path="url(#p71a906eee6)" style="fill: #93c5fd; stroke: #ffffff; stroke-width: 0.5; stroke-linejoin: miter"/>
   </g>
   <g id="patch_5">
    <path d="M 228.556476 192.438844 
L 257.377656 192.438844 
L 257.377656 189.704112 
L 228.556476 189.704112 
z
" clip-path="url(#p71a906eee6)" style="fill: #93c5fd; stroke: #ffffff; stroke-width: 0.5; stroke-linejoin: miter"/>
   </g>
   <g id="patch_6">
    <path d="M 310.902705 192.438844 
L 339.723884 192.438844 
L 339.723884 177.853606 
L 310.902705 177.853606 
z
" clip-path="url(#p71a906eee6)" style="fill: #93c5fd; stroke: #ffffff; stroke-width: 0.5; stroke-linejoin: miter"/>
   </g>
   <g id="patch_7">
    <path d="M 393.248933 192.438844 
L 422.070113 192.438844 
L 422.070113 155.975749 
L 393.248933 155.975749 
z
" clip-path="url(#p71a906eee6)" style="fill: #93c5fd; stroke: #ffffff; stroke-width: 0.5; stroke-linejoin: miter"/>
   </g>
   <g id="patch_8">
    <path d="M 92.6852 192.438844 
L 121.50638 192.438844 
L 121.50638 192.074213 
L 92.6852 192.074213 
z
" clip-path="url(#p71a906eee6)" style="fill: #2563eb; stroke: #ffffff; stroke-width: 0.5; stroke-linejoin: miter"/>
   </g>
   <g id="patch_9">
    <path d="M 175.031428 192.438844 
L 203.852608 192.438844 
L 203.852608 190.98032 
L 175.031428 190.98032 
z
" clip-path="url(#p71a906eee6)" style="fill: #2563eb; stroke: #ffffff; stroke-width: 0.5; stroke-linejoin: miter"/>
   </g>
   <g id="patch_10">
    <path d="M 257.377656 192.438844 
L 286.198836 192.438844 
L 286.198836 183.32307 
L 257.377656 183.32307 
z
" clip-path="url(#p71a906eee6)" style="fill: #2563eb; stroke: #ffffff; stroke-width: 0.5; stroke-linejoin: miter"/>
   </g>
   <g id="patch_11">
    <path d="M 339.723884 192.438844 
L 368.545064 192.438844 
L 368.545064 146.859975 
L 339.723884 146.859975 
z
" clip-path="url(#p71a906eee6)" style="fill: #2563eb; stroke: #ffffff; stroke-width: 0.5; stroke-linejoin: miter"/>
   </g>
   <g id="patch_12">
    <path d="M 422.070113 192.438844 
L 450.891293 192.438844 
L 450.891293 46.586463 
L 422.070113 46.586463 
z
" clip-path="url(#p71a906eee6)" style="fill: #2563eb; stroke: #ffffff; stroke-width: 0.5; stroke-linejoin: miter"/>
   </g>
   <g id="matplotlib.axis_1">
    <g id="xtick_1">
     <g id="line2d_1">
      <defs>
       <path id="meaf50c8002" d="M 0 0 
L 0 3.5 
" style="stroke: #94a3b8; stroke-width: 0.8"/>
      </defs>
      <g>
       <use xlink:href="#meaf50c8002" x="92.6852" y="192.438844" style="fill: #94a3b8; stroke: #94a3b8; stroke-width: 0.8"/>
      </g>
     </g>
     <g id="text_1">
      <!-- 通用0402 -->
      <g style="fill: #94a3b8" transform="translate(73.129887 206.633219) scale(0.09 -0.09)">
       <defs>
        <path id="MicrosoftYaHei-901a" d="M 2594 147 
L 2150 147 
L 2150 3666 
L 3656 3666 
Q 3188 3906 2688 4147 
L 2944 4447 
Q 3434 4209 3866 3994 
L 4981 4578 
L 2050 4578 
L 2050 4978 
L 5806 4978 
L 5806 4559 
L 4297 3775 
Q 4406 3719 4509 3666 
L 5850 3666 
L 5850 841 
Q 5850 128 5194 128 
Q 4869 128 4488 147 
Q 4456 384 4394 628 
Q 4788 584 5069 584 
Q 5406 584 5406 909 
L 5406 1216 
L 4213 1216 
L 4213 241 
L 3769 241 
L 3769 1216 
L 2594 1216 
L 2594 147 
z
M 2663 -197 
L 4219 -222 
L 6300 -172 
Q 6231 -378 6125 -666 
L 4056 -678 
L 2569 -641 
Q 1506 -628 1081 91 
Q 825 -147 331 -747 
L 75 -228 
Q 628 306 875 538 
L 875 2641 
L 131 2641 
L 131 3103 
L 1356 3103 
L 1356 431 
Q 1741 -191 2663 -197 
z
M 856 5203 
Q 1175 4816 1731 4022 
L 1288 3709 
Q 781 4503 456 4934 
L 856 5203 
z
M 5406 3266 
L 4213 3266 
L 4213 2641 
L 5406 2641 
L 5406 3266 
z
M 4213 1616 
L 5406 1616 
L 5406 2241 
L 4213 2241 
L 4213 1616 
z
M 2594 2641 
L 3769 2641 
L 3769 3266 
L 2594 3266 
L 2594 2641 
z
M 2594 1616 
L 3769 1616 
L 3769 2241 
L 2594 2241 
L 2594 1616 
z
" transform="scale(0.015625)"/>
        <path id="MicrosoftYaHei-7528" d="M 3088 -734 
L 3088 1253 
L 1269 1253 
Q 1163 -47 513 -903 
Q 350 -697 144 -472 
Q 550 103 694 803 
Q 831 1478 831 2716 
L 831 4947 
L 5925 4947 
L 5925 -22 
Q 5925 -766 5219 -766 
Q 4788 -766 4250 -747 
Q 4219 -541 4156 -228 
Q 4700 -266 5038 -266 
Q 5425 -266 5425 103 
L 5425 1253 
L 3588 1253 
L 3588 -734 
L 3088 -734 
z
M 3588 1703 
L 5425 1703 
L 5425 2872 
L 3588 2872 
L 3588 1703 
z
M 5425 4484 
L 3588 4484 
L 3588 3322 
L 5425 3322 
L 5425 4484 
z
M 1303 1703 
L 3088 1703 
L 3088 2872 
L 1331 2872 
Q 1350 2266 1303 1703 
z
M 1331 4484 
L 1331 3322 
L 3088 3322 
L 3088 4484 
L 1331 4484 
z
" transform="scale(0.015625)"/>
        <path id="MicrosoftYaHei-30" d="M 284 2325 
Q 284 3606 709 4264 
Q 1134 4922 1941 4922 
Q 3478 4922 3478 2441 
Q 3478 1216 3045 567 
Q 2613 -81 1831 -81 
Q 1094 -81 689 534 
Q 284 1150 284 2325 
z
M 909 2353 
Q 909 425 1888 425 
Q 2850 425 2850 2384 
Q 2850 4413 1906 4413 
Q 909 4413 909 2353 
z
" transform="scale(0.015625)"/>
        <path id="MicrosoftYaHei-34" d="M 2906 4841 
L 2906 1644 
L 3631 1644 
L 3631 1138 
L 2906 1138 
L 2906 0 
L 2313 0 
L 2313 1138 
L 53 1138 
L 53 1616 
Q 656 2294 1265 3178 
Q 1875 4063 2272 4841 
L 2906 4841 
z
M 741 1644 
L 2313 1644 
L 2313 3950 
Q 1988 3366 1616 2817 
Q 1244 2269 741 1644 
z
" transform="scale(0.015625)"/>
        <path id="MicrosoftYaHei-32" d="M 2666 3572 
Q 2666 3963 2419 4186 
Q 2172 4409 1747 4409 
Q 1447 4409 1140 4256 
Q 834 4103 569 3819 
L 569 4413 
Q 806 4659 1107 4790 
Q 1409 4922 1816 4922 
Q 2472 4922 2872 4570 
Q 3272 4219 3272 3619 
Q 3272 3084 3026 2693 
Q 2781 2303 2188 1894 
Q 1581 1475 1376 1294 
Q 1172 1113 1090 947 
Q 1009 781 1009 544 
L 3416 544 
L 3416 0 
L 372 0 
L 372 241 
Q 372 659 486 951 
Q 600 1244 862 1520 
Q 1125 1797 1681 2184 
Q 2250 2584 2458 2886 
Q 2666 3188 2666 3572 
z
" transform="scale(0.015625)"/>
       </defs>
       <use xlink:href="#MicrosoftYaHei-901a"/>
       <use xlink:href="#MicrosoftYaHei-7528" transform="translate(100 0)"/>
       <use xlink:href="#MicrosoftYaHei-30" transform="translate(200 0)"/>
       <use xlink:href="#MicrosoftYaHei-34" transform="translate(258.642578 0)"/>
       <use xlink:href="#MicrosoftYaHei-30" transform="translate(317.285156 0)"/>
       <use xlink:href="#MicrosoftYaHei-32" transform="translate(375.927734 0)"/>
      </g>
      <!-- (1uF/6.3V) -->
      <g style="fill: #94a3b8" transform="translate(70.549419 217.503812) scale(0.09 -0.09)">
       <defs>
        <path id="MicrosoftYaHei-28" d="M 1531 -1100 
Q 478 100 478 1847 
Q 478 3594 1531 4841 
L 2072 4841 
Q 1016 3544 1016 1853 
Q 1016 166 2066 -1100 
L 1531 -1100 
z
" transform="scale(0.015625)"/>
        <path id="MicrosoftYaHei-31" d="M 1781 0 
L 1781 4141 
Q 1638 3997 1295 3819 
Q 953 3641 663 3569 
L 663 4169 
Q 1047 4275 1484 4508 
Q 1922 4741 2156 4947 
L 2388 4947 
L 2388 0 
L 1781 0 
z
" transform="scale(0.015625)"/>
        <path id="MicrosoftYaHei-75" d="M 3400 0 
L 2784 0 
L 2784 544 
L 2772 544 
Q 2425 -81 1706 -81 
Q 478 -81 478 1388 
L 478 3456 
L 1084 3456 
L 1084 1478 
Q 1084 425 1891 425 
Q 2291 425 2537 720 
Q 2784 1016 2784 1466 
L 2784 3456 
L 3400 3456 
L 3400 0 
z
" transform="scale(0.015625)"/>
        <path id="MicrosoftYaHei-46" d="M 3119 4284 
L 1250 4284 
L 1250 2666 
L 2981 2666 
L 2981 2116 
L 1250 2116 
L 1250 0 
L 625 0 
L 625 4841 
L 3119 4841 
L 3119 4284 
z
" transform="scale(0.015625)"/>
        <path id="MicrosoftYaHei-2f" d="M 2791 4841 
L 469 -803 
L -103 -803 
L 2219 4841 
L 2791 4841 
z
" transform="scale(0.015625)"/>
        <path id="MicrosoftYaHei-36" d="M 3181 4219 
Q 2803 4413 2391 4413 
Q 1763 4413 1381 3866 
Q 1000 3319 994 2372 
L 1009 2372 
Q 1353 3038 2106 3038 
Q 2734 3038 3109 2628 
Q 3484 2219 3484 1541 
Q 3484 831 3051 375 
Q 2619 -81 1947 -81 
Q 1209 -81 789 495 
Q 369 1072 369 2131 
Q 369 3413 920 4167 
Q 1472 4922 2372 4922 
Q 2888 4922 3181 4781 
L 3181 4219 
z
M 1031 1584 
Q 1031 1106 1286 765 
Q 1541 425 1963 425 
Q 2363 425 2613 719 
Q 2863 1013 2863 1475 
Q 2863 1975 2627 2253 
Q 2391 2531 1956 2531 
Q 1544 2531 1287 2250 
Q 1031 1969 1031 1584 
z
" transform="scale(0.015625)"/>
        <path id="MicrosoftYaHei-2e" d="M 372 322 
Q 372 491 487 606 
Q 603 722 775 722 
Q 950 722 1065 605 
Q 1181 488 1181 322 
Q 1181 159 1065 42 
Q 950 -75 772 -75 
Q 600 -75 486 42 
Q 372 159 372 322 
z
" transform="scale(0.015625)"/>
        <path id="MicrosoftYaHei-33" d="M 447 809 
Q 944 425 1569 425 
Q 2069 425 2361 670 
Q 2653 916 2653 1328 
Q 2653 2247 1338 2247 
L 934 2247 
L 934 2753 
L 1319 2753 
Q 2484 2753 2484 3616 
Q 2484 4413 1594 4413 
Q 1084 4413 634 4069 
L 634 4647 
Q 1109 4922 1744 4922 
Q 2363 4922 2738 4598 
Q 3113 4275 3113 3759 
Q 3113 2809 2144 2538 
L 2144 2525 
Q 2669 2469 2973 2155 
Q 3278 1841 3278 1372 
Q 3278 719 2808 319 
Q 2338 -81 1556 -81 
Q 869 -81 447 175 
L 447 809 
z
" transform="scale(0.015625)"/>
        <path id="MicrosoftYaHei-56" d="M 4272 4841 
L 2494 0 
L 1800 0 
L 56 4841 
L 750 4841 
L 2053 1056 
Q 2119 869 2150 622 
L 2166 622 
Q 2191 838 2275 1063 
L 3603 4841 
L 4272 4841 
z
" transform="scale(0.015625)"/>
        <path id="MicrosoftYaHei-29" d="M 78 -1100 
Q 1131 163 1131 1853 
Q 1131 3547 72 4841 
L 616 4841 
Q 1672 3603 1672 1847 
Q 1672 91 616 -1100 
L 78 -1100 
z
" transform="scale(0.015625)"/>
       </defs>
       <use xlink:href="#MicrosoftYaHei-28"/>
       <use xlink:href="#MicrosoftYaHei-31" transform="translate(33.398438 0)"/>
       <use xlink:href="#MicrosoftYaHei-75" transform="translate(92.041016 0)"/>
       <use xlink:href="#MicrosoftYaHei-46" transform="translate(153.662109 0)"/>
       <use xlink:href="#MicrosoftYaHei-2f" transform="translate(206.787109 0)"/>
       <use xlink:href="#MicrosoftYaHei-36" transform="translate(249.511719 0)"/>
       <use xlink:href="#MicrosoftYaHei-2e" transform="translate(308.154297 0)"/>
       <use xlink:href="#MicrosoftYaHei-33" transform="translate(332.226562 0)"/>
       <use xlink:href="#MicrosoftYaHei-56" transform="translate(390.869141 0)"/>
       <use xlink:href="#MicrosoftYaHei-29" transform="translate(458.496094 0)"/>
      </g>
     </g>
    </g>
    <g id="xtick_2">
     <g id="line2d_2">
      <g>
       <use xlink:href="#meaf50c8002" x="175.031428" y="192.438844" style="fill: #94a3b8; stroke: #94a3b8; stroke-width: 0.8"/>
      </g>
     </g>
     <g id="text_2">
      <!-- 通用0603 -->
      <g style="fill: #94a3b8" transform="translate(155.476116 206.633219) scale(0.09 -0.09)">
       <use xlink:href="#MicrosoftYaHei-901a"/>
       <use xlink:href="#MicrosoftYaHei-7528" transform="translate(100 0)"/>
       <use xlink:href="#MicrosoftYaHei-30" transform="translate(200 0)"/>
       <use xlink:href="#MicrosoftYaHei-36" transform="translate(258.642578 0)"/>
       <use xlink:href="#MicrosoftYaHei-30" transform="translate(317.285156 0)"/>
       <use xlink:href="#MicrosoftYaHei-33" transform="translate(375.927734 0)"/>
      </g>
      <!-- (10uF/10V) -->
      <g style="fill: #94a3b8" transform="translate(151.340334 217.503812) scale(0.09 -0.09)">
       <use xlink:href="#MicrosoftYaHei-28"/>
       <use xlink:href="#MicrosoftYaHei-31" transform="translate(33.398438 0)"/>
       <use xlink:href="#MicrosoftYaHei-30" transform="translate(92.041016 0)"/>
       <use xlink:href="#MicrosoftYaHei-75" transform="translate(150.683594 0)"/>
       <use xlink:href="#MicrosoftYaHei-46" transform="translate(212.304688 0)"/>
       <use xlink:href="#MicrosoftYaHei-2f" transform="translate(265.429688 0)"/>
       <use xlink:href="#MicrosoftYaHei-31" transform="translate(308.154297 0)"/>
       <use xlink:href="#MicrosoftYaHei-30" transform="translate(366.796875 0)"/>
       <use xlink:href="#MicrosoftYaHei-56" transform="translate(425.439453 0)"/>
       <use xlink:href="#MicrosoftYaHei-29" transform="translate(493.066406 0)"/>
      </g>
     </g>
    </g>
    <g id="xtick_3">
     <g id="line2d_3">
      <g>
       <use xlink:href="#meaf50c8002" x="257.377656" y="192.438844" style="fill: #94a3b8; stroke: #94a3b8; stroke-width: 0.8"/>
      </g>
     </g>
     <g id="text_3">
      <!-- 车规0805 -->
      <g style="fill: #94a3b8" transform="translate(237.822344 206.633219) scale(0.09 -0.09)">
       <defs>
        <path id="MicrosoftYaHei-8f66" d="M 163 922 
L 3206 922 
L 3206 1991 
L 913 1991 
L 913 2447 
Q 1334 3200 1688 3909 
L 400 3909 
L 400 4372 
L 1913 4372 
Q 2156 4878 2363 5359 
L 2831 5216 
Q 2625 4772 2434 4372 
L 5950 4372 
L 5950 3909 
L 2209 3909 
Q 1797 3063 1456 2441 
L 3206 2441 
L 3206 3647 
L 3694 3647 
L 3694 2441 
L 5500 2441 
L 5500 1991 
L 3694 1991 
L 3694 922 
L 6188 922 
L 6188 459 
L 3694 459 
L 3694 -853 
L 3206 -853 
L 3206 459 
L 163 459 
L 163 922 
z
" transform="scale(0.015625)"/>
        <path id="MicrosoftYaHei-89c4" d="M 4006 4047 
L 4469 4047 
L 4469 3116 
Q 4469 2272 4344 1653 
L 4756 1653 
L 4756 109 
Q 4756 -253 5100 -253 
L 5406 -253 
Q 5719 -253 5756 66 
Q 5800 428 5819 903 
Q 6113 778 6313 709 
Q 6269 266 6219 -84 
Q 6119 -691 5494 -691 
L 4975 -691 
Q 4300 -691 4300 34 
L 4300 1459 
Q 4019 234 2581 -878 
Q 2331 -597 2200 -478 
Q 3313 334 3669 1109 
Q 4006 1778 4006 3122 
L 4006 4047 
z
M 138 2559 
L 1100 2559 
Q 1113 2859 1113 3678 
L 219 3678 
L 219 4103 
L 1113 4103 
L 1113 5266 
L 1581 5266 
L 1581 4103 
L 2481 4103 
L 2481 3678 
L 1581 3678 
Q 1581 3216 1569 2559 
L 2581 2559 
L 2581 2134 
L 1544 2134 
Q 1538 1934 1513 1728 
Q 2106 1178 2788 491 
L 2400 128 
Q 1938 709 1431 1241 
Q 1144 59 394 -822 
Q 281 -653 94 -384 
Q 1038 791 1075 2134 
L 138 2134 
L 138 2559 
z
M 2763 5003 
L 5794 5003 
L 5794 1259 
L 5331 1259 
L 5331 4559 
L 3225 4559 
L 3225 1172 
L 2763 1172 
L 2763 5003 
z
" transform="scale(0.015625)"/>
        <path id="MicrosoftYaHei-38" d="M 306 1350 
Q 306 1769 556 2122 
Q 806 2475 1200 2625 
Q 884 2803 700 3081 
Q 516 3359 516 3684 
Q 516 4028 692 4312 
Q 869 4597 1183 4759 
Q 1497 4922 1875 4922 
Q 2256 4922 2572 4761 
Q 2888 4600 3063 4315 
Q 3238 4031 3238 3684 
Q 3238 3366 3058 3086 
Q 2878 2806 2559 2625 
Q 2953 2472 3200 2119 
Q 3447 1766 3447 1350 
Q 3447 938 3250 611 
Q 3053 284 2690 103 
Q 2328 -78 1875 -78 
Q 1425 -78 1065 103 
Q 706 284 506 612 
Q 306 941 306 1350 
z
M 906 1378 
Q 906 947 1172 687 
Q 1438 428 1878 428 
Q 2309 428 2582 692 
Q 2856 956 2856 1378 
Q 2856 1778 2579 2051 
Q 2303 2325 1878 2325 
Q 1456 2325 1181 2058 
Q 906 1791 906 1378 
z
M 1081 3634 
Q 1081 3309 1312 3076 
Q 1544 2844 1878 2844 
Q 2206 2844 2445 3078 
Q 2684 3313 2684 3634 
Q 2684 3963 2454 4191 
Q 2225 4419 1878 4419 
Q 1534 4419 1307 4195 
Q 1081 3972 1081 3634 
z
" transform="scale(0.015625)"/>
        <path id="MicrosoftYaHei-35" d="M 3294 1494 
Q 3294 784 2823 350 
Q 2353 -84 1559 -84 
Q 878 -84 544 119 
L 544 744 
Q 1034 425 1544 425 
Q 2050 425 2361 704 
Q 2672 984 2672 1447 
Q 2672 1909 2348 2167 
Q 2025 2425 1434 2425 
Q 978 2425 613 2384 
L 791 4841 
L 3053 4841 
L 3053 4303 
L 1306 4303 
L 1206 2931 
L 1647 2950 
Q 2416 2950 2855 2567 
Q 3294 2184 3294 1494 
z
" transform="scale(0.015625)"/>
       </defs>
       <use xlink:href="#MicrosoftYaHei-8f66"/>
       <use xlink:href="#MicrosoftYaHei-89c4" transform="translate(100 0)"/>
       <use xlink:href="#MicrosoftYaHei-30" transform="translate(200 0)"/>
       <use xlink:href="#MicrosoftYaHei-38" transform="translate(258.642578 0)"/>
       <use xlink:href="#MicrosoftYaHei-30" transform="translate(317.285156 0)"/>
       <use xlink:href="#MicrosoftYaHei-35" transform="translate(375.927734 0)"/>
      </g>
      <!-- (47uF/25V) -->
      <g style="fill: #94a3b8" transform="translate(233.686562 217.503812) scale(0.09 -0.09)">
       <defs>
        <path id="MicrosoftYaHei-37" d="M 3422 4463 
Q 2659 3131 2223 1998 
Q 1788 866 1684 0 
L 1047 0 
Q 1163 853 1594 1947 
Q 2025 3041 2747 4300 
L 347 4300 
L 347 4841 
L 3422 4841 
L 3422 4463 
z
" transform="scale(0.015625)"/>
       </defs>
       <use xlink:href="#MicrosoftYaHei-28"/>
       <use xlink:href="#MicrosoftYaHei-34" transform="translate(33.398438 0)"/>
       <use xlink:href="#MicrosoftYaHei-37" transform="translate(92.041016 0)"/>
       <use xlink:href="#MicrosoftYaHei-75" transform="translate(150.683594 0)"/>
       <use xlink:href="#MicrosoftYaHei-46" transform="translate(212.304688 0)"/>
       <use xlink:href="#MicrosoftYaHei-2f" transform="translate(265.429688 0)"/>
       <use xlink:href="#MicrosoftYaHei-32" transform="translate(308.154297 0)"/>
       <use xlink:href="#MicrosoftYaHei-35" transform="translate(366.796875 0)"/>
       <use xlink:href="#MicrosoftYaHei-56" transform="translate(425.439453 0)"/>
       <use xlink:href="#MicrosoftYaHei-29" transform="translate(493.066406 0)"/>
      </g>
     </g>
    </g>
    <g id="xtick_4">
     <g id="line2d_4">
      <g>
       <use xlink:href="#meaf50c8002" x="339.723884" y="192.438844" style="fill: #94a3b8; stroke: #94a3b8; stroke-width: 0.8"/>
      </g>
     </g>
     <g id="text_4">
      <!-- 高端1005 -->
      <g style="fill: #94a3b8" transform="translate(320.168572 206.633219) scale(0.09 -0.09)">
       <defs>
        <path id="MicrosoftYaHei-9ad8" d="M 1194 3922 
L 5250 3922 
L 5250 2397 
L 4775 2397 
L 4775 2597 
L 1669 2597 
L 1669 2403 
L 1194 2403 
L 1194 3922 
z
M 969 -784 
L 494 -784 
L 494 2147 
L 5956 2147 
L 5956 22 
Q 5956 -747 5231 -747 
Q 4825 -747 4319 -734 
Q 4281 -522 4219 -241 
Q 4794 -284 5100 -284 
Q 5481 -284 5481 97 
L 5481 1747 
L 969 1747 
L 969 -784 
z
M 1813 1334 
L 4638 1334 
L 4638 28 
L 2263 28 
L 2263 -241 
L 1813 -241 
L 1813 1334 
z
M 125 4747 
L 2988 4747 
Q 2850 5013 2725 5216 
L 3194 5403 
Q 3372 5094 3541 4747 
L 6275 4747 
L 6275 4334 
L 125 4334 
L 125 4747 
z
M 4775 3534 
L 1669 3534 
L 1669 2984 
L 4775 2984 
L 4775 3534 
z
M 4188 416 
L 4188 947 
L 2263 947 
L 2263 416 
L 4188 416 
z
" transform="scale(0.015625)"/>
        <path id="MicrosoftYaHei-7aef" d="M 2263 2953 
L 6306 2953 
L 6306 2547 
L 4431 2547 
L 4259 1866 
L 6013 1866 
L 6013 -209 
Q 6013 -747 5538 -747 
Q 5375 -747 5081 -741 
Q 5038 -484 4956 -278 
Q 5169 -297 5388 -297 
Q 5575 -297 5575 -103 
L 5575 1478 
L 4931 1478 
L 4931 -484 
L 4513 -484 
L 4513 1478 
L 3894 1478 
L 3894 -447 
L 3475 -447 
L 3475 1478 
L 2850 1478 
L 2850 -803 
L 2413 -803 
L 2413 1866 
L 3806 1866 
L 3950 2547 
L 2263 2547 
L 2263 2953 
z
M 5406 3359 
L 5406 3553 
L 2581 3553 
L 2581 4959 
L 3019 4959 
L 3019 3941 
L 3988 3941 
L 3988 5353 
L 4438 5353 
L 4438 3941 
L 5406 3941 
L 5406 4959 
L 5844 4959 
L 5844 3359 
L 5406 3359 
z
M 2088 3178 
Q 1969 2256 1644 584 
Q 1966 653 2238 722 
Q 2231 478 2244 278 
Q 1538 103 181 -172 
L 88 297 
Q 716 400 1231 500 
Q 1538 2378 1644 3259 
L 2088 3178 
z
M 238 3091 
L 663 3184 
Q 869 2291 1075 991 
L 644 878 
Q 475 2128 238 3091 
z
M 156 4072 
L 2300 4072 
L 2300 3666 
L 156 3666 
L 156 4072 
z
M 669 5091 
L 1050 5316 
Q 1419 4859 1681 4378 
L 1269 4128 
Q 1044 4566 669 5091 
z
" transform="scale(0.015625)"/>
       </defs>
       <use xlink:href="#MicrosoftYaHei-9ad8"/>
       <use xlink:href="#MicrosoftYaHei-7aef" transform="translate(100 0)"/>
       <use xlink:href="#MicrosoftYaHei-31" transform="translate(200 0)"/>
       <use xlink:href="#MicrosoftYaHei-30" transform="translate(258.642578 0)"/>
       <use xlink:href="#MicrosoftYaHei-30" transform="translate(317.285156 0)"/>
       <use xlink:href="#MicrosoftYaHei-35" transform="translate(375.927734 0)"/>
      </g>
      <!-- (100uF/6.3V) -->
      <g style="fill: #94a3b8" transform="translate(312.310447 217.503812) scale(0.09 -0.09)">
       <use xlink:href="#MicrosoftYaHei-28"/>
       <use xlink:href="#MicrosoftYaHei-31" transform="translate(33.398438 0)"/>
       <use xlink:href="#MicrosoftYaHei-30" transform="translate(92.041016 0)"/>
       <use xlink:href="#MicrosoftYaHei-30" transform="translate(150.683594 0)"/>
       <use xlink:href="#MicrosoftYaHei-75" transform="translate(209.326172 0)"/>
       <use xlink:href="#MicrosoftYaHei-46" transform="translate(270.947266 0)"/>
       <use xlink:href="#MicrosoftYaHei-2f" transform="translate(324.072266 0)"/>
       <use xlink:href="#MicrosoftYaHei-36" transform="translate(366.796875 0)"/>
       <use xlink:href="#MicrosoftYaHei-2e" transform="translate(425.439453 0)"/>
       <use xlink:href="#MicrosoftYaHei-33" transform="translate(449.511719 0)"/>
       <use xlink:href="#MicrosoftYaHei-56" transform="translate(508.154297 0)"/>
       <use xlink:href="#MicrosoftYaHei-29" transform="translate(575.78125 0)"/>
      </g>
     </g>
    </g>
    <g id="xtick_5">
     <g id="line2d_5">
      <g>
       <use xlink:href="#meaf50c8002" x="422.070113" y="192.438844" style="fill: #94a3b8; stroke: #94a3b8; stroke-width: 0.8"/>
      </g>
     </g>
     <g id="text_5">
      <!-- AI服务器 -->
      <g style="fill: #94a3b8" transform="translate(404.081363 206.633219) scale(0.09 -0.09)">
       <defs>
        <path id="MicrosoftYaHei-41" d="M 4428 0 
L 3738 0 
L 3244 1325 
L 1228 1325 
L 763 0 
L 72 0 
L 1916 4841 
L 2584 4841 
L 4428 0 
z
M 3050 1872 
L 2319 3884 
Q 2284 3981 2244 4222 
L 2228 4222 
Q 2194 4003 2150 3884 
L 1425 1872 
L 3050 1872 
z
" transform="scale(0.015625)"/>
        <path id="MicrosoftYaHei-49" d="M 1250 4841 
L 1250 0 
L 625 0 
L 625 4841 
L 1250 4841 
z
" transform="scale(0.015625)"/>
        <path id="MicrosoftYaHei-670d" d="M 2819 4941 
L 5906 4941 
Q 5875 4434 5856 4141 
Q 5806 3172 4869 3191 
Q 4613 3197 4063 3216 
Q 4025 3459 3981 3709 
Q 4444 3653 4813 3641 
Q 5350 3622 5394 4153 
Q 5413 4316 5425 4509 
L 3294 4509 
L 3294 2709 
L 5931 2709 
L 5931 2341 
Q 5681 1244 5016 431 
Q 5556 -81 6356 -366 
Q 6144 -616 5994 -816 
Q 5225 -456 4691 78 
Q 4213 -394 3569 -753 
Q 3450 -547 3313 -341 
Q 3938 -22 4391 422 
Q 3781 1203 3588 2303 
L 3294 2303 
L 3294 -803 
L 2819 -803 
L 2819 4941 
z
M 538 4966 
L 2300 4966 
L 2300 -103 
Q 2300 -728 1719 -728 
Q 1400 -728 1125 -709 
Q 1100 -522 1050 -266 
Q 1369 -316 1600 -316 
Q 1856 -316 1856 -59 
L 1856 1378 
L 981 1378 
Q 1000 -59 463 -816 
Q 325 -634 119 -466 
Q 538 178 538 1359 
L 538 4966 
z
M 5438 2303 
L 4016 2303 
Q 4209 1403 4706 772 
Q 5222 1425 5438 2303 
z
M 981 1766 
L 1856 1766 
L 1856 2972 
L 981 2972 
L 981 1766 
z
M 1856 4559 
L 981 4559 
L 981 3359 
L 1856 3359 
L 1856 4559 
z
" transform="scale(0.015625)"/>
        <path id="MicrosoftYaHei-52a1" d="M 1900 5391 
L 2369 5191 
Q 2228 4959 2075 4741 
L 5456 4741 
L 5456 4322 
Q 4875 3616 3866 3088 
Q 4916 2706 6369 2616 
Q 6169 2334 6019 2091 
Q 4391 2306 3288 2819 
Q 2047 2291 288 1984 
Q 181 2178 31 2422 
Q 1597 2663 2750 3103 
Q 2038 3538 1609 4131 
Q 1125 3556 538 3066 
Q 350 3266 194 3403 
Q 1344 4316 1900 5391 
z
M 588 1728 
L 2406 1728 
Q 2450 2031 2481 2403 
L 2988 2403 
Q 2947 2031 2903 1728 
L 5425 1728 
Q 5363 609 5306 159 
Q 5206 -722 4256 -728 
Q 3888 -734 3150 -703 
Q 3113 -472 3056 -184 
Q 3775 -247 4244 -253 
Q 4775 -241 4831 284 
Q 4888 753 4913 1284 
L 2828 1284 
Q 2497 -219 500 -897 
Q 356 -691 194 -478 
Q 1988 103 2319 1284 
L 588 1284 
L 588 1728 
z
M 4788 4328 
L 1997 4328 
Q 2500 3725 3291 3334 
Q 4194 3756 4788 4328 
z
" transform="scale(0.015625)"/>
        <path id="MicrosoftYaHei-5668" d="M 300 2691 
L 2825 2691 
Q 2922 2925 2950 3234 
L 3400 3172 
Q 3363 2909 3291 2691 
L 4653 2691 
Q 4403 2872 4125 3047 
L 4381 3328 
Q 4794 3084 5125 2841 
L 4984 2691 
L 6150 2691 
L 6150 2278 
L 3738 2278 
Q 4459 1572 6300 1609 
Q 6150 1353 6044 1128 
Q 5878 1141 5725 1156 
L 5725 -753 
L 5288 -753 
L 5288 -409 
L 3950 -409 
L 3950 -747 
L 3513 -747 
L 3513 1184 
L 5503 1184 
Q 3716 1425 3219 2278 
L 3106 2278 
Q 2756 1534 838 1184 
L 2838 1184 
L 2838 -747 
L 2400 -747 
L 2400 -409 
L 1081 -409 
L 1081 -753 
L 644 -753 
L 644 1147 
Q 478 1116 300 1084 
Q 206 1272 56 1528 
Q 2144 1797 2563 2278 
L 300 2278 
L 300 2691 
z
M 3506 4966 
L 5719 4966 
L 5719 3122 
L 5281 3122 
L 5281 3341 
L 3944 3341 
L 3944 3147 
L 3506 3147 
L 3506 4966 
z
M 638 4966 
L 2831 4966 
L 2831 3147 
L 2394 3147 
L 2394 3341 
L 1075 3341 
L 1075 3084 
L 638 3084 
L 638 4966 
z
M 5281 4578 
L 3944 4578 
L 3944 3728 
L 5281 3728 
L 5281 4578 
z
M 2394 4578 
L 1075 4578 
L 1075 3728 
L 2394 3728 
L 2394 4578 
z
M 5288 797 
L 3950 797 
L 3950 -22 
L 5288 -22 
L 5288 797 
z
M 2400 797 
L 1081 797 
L 1081 -22 
L 2400 -22 
L 2400 797 
z
" transform="scale(0.015625)"/>
       </defs>
       <use xlink:href="#MicrosoftYaHei-41"/>
       <use xlink:href="#MicrosoftYaHei-49" transform="translate(70.361328 0)"/>
       <use xlink:href="#MicrosoftYaHei-670d" transform="translate(99.755859 0)"/>
       <use xlink:href="#MicrosoftYaHei-52a1" transform="translate(199.755859 0)"/>
       <use xlink:href="#MicrosoftYaHei-5668" transform="translate(299.755859 0)"/>
      </g>
      <!-- 专用大容量 -->
      <g style="fill: #94a3b8" transform="translate(399.570113 217.503812) scale(0.09 -0.09)">
       <defs>
        <path id="MicrosoftYaHei-4e13" d="M 1644 1041 
Q 2472 672 3431 219 
L 4844 1441 
L 1344 1441 
L 1344 1903 
L 1647 2678 
L 156 2678 
L 156 3153 
L 1834 3153 
L 2172 4009 
L 538 4009 
L 538 4484 
L 2359 4484 
L 2688 5316 
L 3256 5316 
L 2928 4484 
L 5888 4484 
L 5888 4009 
L 2741 4009 
L 2403 3153 
L 6288 3153 
L 6288 2678 
L 2216 2678 
L 1913 1909 
L 5556 1909 
L 5556 1422 
L 3894 0 
Q 4313 -200 4756 -416 
L 4450 -891 
Q 2881 -66 1381 622 
L 1644 1041 
z
" transform="scale(0.015625)"/>
        <path id="MicrosoftYaHei-5927" d="M 88 -341 
Q 2666 806 2869 3103 
L 200 3103 
L 200 3591 
L 2891 3591 
Q 2906 4431 2906 5284 
L 3450 5284 
Q 3450 4444 3434 3591 
L 6206 3591 
L 6206 3103 
L 3425 3103 
Q 3869 606 6338 -191 
Q 6019 -497 5863 -697 
Q 3828 122 3203 2219 
Q 2716 322 475 -822 
Q 350 -653 88 -341 
z
" transform="scale(0.015625)"/>
        <path id="MicrosoftYaHei-5bb9" d="M 3550 3147 
Q 3500 3091 3444 3022 
Q 4644 1872 6313 1447 
Q 6106 1134 6006 916 
Q 5594 1066 5225 1247 
L 5225 -859 
L 4725 -859 
L 4725 -578 
L 1669 -578 
L 1669 -859 
L 1169 -859 
L 1169 1191 
Q 763 972 338 797 
Q 225 1028 63 1241 
Q 2000 2059 3025 3228 
L 3550 3147 
z
M 363 4572 
L 3038 4572 
Q 2900 4822 2725 5109 
L 3206 5328 
Q 3438 4972 3644 4572 
L 6031 4572 
L 6031 3522 
L 5525 3522 
L 5525 4122 
L 863 4122 
L 863 3497 
L 363 3497 
L 363 4572 
z
M 4725 934 
L 1669 934 
L 1669 -128 
L 4725 -128 
L 4725 934 
z
M 3163 2684 
Q 2394 1928 1494 1384 
L 4950 1384 
Q 3869 1953 3163 2684 
z
M 2338 3847 
L 2638 3441 
Q 1488 2734 706 2359 
Q 594 2566 419 2791 
Q 1494 3259 2338 3847 
z
M 4006 3841 
Q 4944 3409 5938 2859 
L 5650 2416 
Q 4875 2891 3744 3453 
L 4006 3841 
z
" transform="scale(0.015625)"/>
        <path id="MicrosoftYaHei-91cf" d="M 113 -278 
L 2981 -278 
L 2981 78 
L 475 78 
L 475 403 
L 2981 403 
L 2981 759 
L 1494 759 
L 1494 597 
L 1069 597 
L 1069 2516 
L 5350 2516 
L 5350 597 
L 4925 597 
L 4925 759 
L 3419 759 
L 3419 403 
L 5931 403 
L 5931 78 
L 3419 78 
L 3419 -278 
L 6288 -278 
L 6288 -616 
L 113 -616 
L 113 -278 
z
M 1119 5072 
L 5306 5072 
L 5306 3284 
L 4881 3284 
L 4881 3453 
L 1544 3453 
L 1544 3284 
L 1119 3284 
L 1119 5072 
z
M 163 3153 
L 6263 3153 
L 6263 2816 
L 163 2816 
L 163 3153 
z
M 1544 3778 
L 4881 3778 
L 4881 4116 
L 1544 4116 
L 1544 3778 
z
M 4881 4747 
L 1544 4747 
L 1544 4416 
L 4881 4416 
L 4881 4747 
z
M 3419 1084 
L 4925 1084 
L 4925 1491 
L 3419 1491 
L 3419 1084 
z
M 1494 1084 
L 2981 1084 
L 2981 1491 
L 1494 1491 
L 1494 1084 
z
M 4925 2191 
L 3419 2191 
L 3419 1791 
L 4925 1791 
L 4925 2191 
z
M 1494 1791 
L 2981 1791 
L 2981 2191 
L 1494 2191 
L 1494 1791 
z
" transform="scale(0.015625)"/>
       </defs>
       <use xlink:href="#MicrosoftYaHei-4e13"/>
       <use xlink:href="#MicrosoftYaHei-7528" transform="translate(100 0)"/>
       <use xlink:href="#MicrosoftYaHei-5927" transform="translate(200 0)"/>
       <use xlink:href="#MicrosoftYaHei-5bb9" transform="translate(300 0)"/>
       <use xlink:href="#MicrosoftYaHei-91cf" transform="translate(400 0)"/>
      </g>
     </g>
    </g>
   </g>
   <g id="matplotlib.axis_2">
    <g id="ytick_1">
     <g id="line2d_6">
      <path d="M 44.512656 192.438844 
L 470.242656 192.438844 
" clip-path="url(#p71a906eee6)" style="fill: none; stroke: #94a3b8; stroke-opacity: 0.15; stroke-width: 0.8; stroke-linecap: square"/>
     </g>
     <g id="line2d_7">
      <defs>
       <path id="m45b065f471" d="M 0 0 
L -3.5 0 
" style="stroke: #94a3b8; stroke-width: 0.8"/>
      </defs>
      <g>
       <use xlink:href="#m45b065f471" x="44.512656" y="192.438844" style="fill: #94a3b8; stroke: #94a3b8; stroke-width: 0.8"/>
      </g>
     </g>
     <g id="text_6">
      <!-- 0 -->
      <g style="fill: #94a3b8" transform="translate(32.235 196.036031) scale(0.09 -0.09)">
       <use xlink:href="#MicrosoftYaHei-30"/>
      </g>
     </g>
    </g>
    <g id="ytick_2">
     <g id="line2d_8">
      <path d="M 44.512656 155.975749 
L 470.242656 155.975749 
" clip-path="url(#p71a906eee6)" style="fill: none; stroke: #94a3b8; stroke-opacity: 0.15; stroke-width: 0.8; stroke-linecap: square"/>
     </g>
     <g id="line2d_9">
      <g>
       <use xlink:href="#m45b065f471" x="44.512656" y="155.975749" style="fill: #94a3b8; stroke: #94a3b8; stroke-width: 0.8"/>
      </g>
     </g>
     <g id="text_7">
      <!-- 200 -->
      <g style="fill: #94a3b8" transform="translate(21.679688 159.572936) scale(0.09 -0.09)">
       <use xlink:href="#MicrosoftYaHei-32"/>
       <use xlink:href="#MicrosoftYaHei-30" transform="translate(58.642578 0)"/>
       <use xlink:href="#MicrosoftYaHei-30" transform="translate(117.285156 0)"/>
      </g>
     </g>
    </g>
    <g id="ytick_3">
     <g id="line2d_10">
      <path d="M 44.512656 119.512653 
L 470.242656 119.512653 
" clip-path="url(#p71a906eee6)" style="fill: none; stroke: #94a3b8; stroke-opacity: 0.15; stroke-width: 0.8; stroke-linecap: square"/>
     </g>
     <g id="line2d_11">
      <g>
       <use xlink:href="#m45b065f471" x="44.512656" y="119.512653" style="fill: #94a3b8; stroke: #94a3b8; stroke-width: 0.8"/>
      </g>
     </g>
     <g id="text_8">
      <!-- 400 -->
      <g style="fill: #94a3b8" transform="translate(21.679688 123.109841) scale(0.09 -0.09)">
       <use xlink:href="#MicrosoftYaHei-34"/>
       <use xlink:href="#MicrosoftYaHei-30" transform="translate(58.642578 0)"/>
       <use xlink:href="#MicrosoftYaHei-30" transform="translate(117.285156 0)"/>
      </g>
     </g>
    </g>
    <g id="ytick_4">
     <g id="line2d_12">
      <path d="M 44.512656 83.049558 
L 470.242656 83.049558 
" clip-path="url(#p71a906eee6)" style="fill: none; stroke: #94a3b8; stroke-opacity: 0.15; stroke-width: 0.8; stroke-linecap: square"/>
     </g>
     <g id="line2d_13">
      <g>
       <use xlink:href="#m45b065f471" x="44.512656" y="83.049558" style="fill: #94a3b8; stroke: #94a3b8; stroke-width: 0.8"/>
      </g>
     </g>
     <g id="text_9">
      <!-- 600 -->
      <g style="fill: #94a3b8" transform="translate(21.679688 86.646746) scale(0.09 -0.09)">
       <use xlink:href="#MicrosoftYaHei-36"/>
       <use xlink:href="#MicrosoftYaHei-30" transform="translate(58.642578 0)"/>
       <use xlink:href="#MicrosoftYaHei-30" transform="translate(117.285156 0)"/>
      </g>
     </g>
    </g>
    <g id="ytick_5">
     <g id="line2d_14">
      <path d="M 44.512656 46.586463 
L 470.242656 46.586463 
" clip-path="url(#p71a906eee6)" style="fill: none; stroke: #94a3b8; stroke-opacity: 0.15; stroke-width: 0.8; stroke-linecap: square"/>
     </g>
     <g id="line2d_15">
      <g>
       <use xlink:href="#m45b065f471" x="44.512656" y="46.586463" style="fill: #94a3b8; stroke: #94a3b8; stroke-width: 0.8"/>
      </g>
     </g>
     <g id="text_10">
      <!-- 800 -->
      <g style="fill: #94a3b8" transform="translate(21.679688 50.18365) scale(0.09 -0.09)">
       <use xlink:href="#MicrosoftYaHei-38"/>
       <use xlink:href="#MicrosoftYaHei-30" transform="translate(58.642578 0)"/>
       <use xlink:href="#MicrosoftYaHei-30" transform="translate(117.285156 0)"/>
      </g>
     </g>
    </g>
    <g id="text_11">
     <!-- 单价（美分/颗） -->
     <g style="fill: #1e293b" transform="translate(15.19375 153.002281) rotate(-90) scale(0.1 -0.1)">
      <defs>
       <path id="MicrosoftYaHei-5355" d="M 125 909 
L 2956 909 
L 2956 1616 
L 1225 1616 
L 1225 1322 
L 750 1322 
L 750 4353 
L 2047 4353 
Q 1747 4703 1400 5072 
L 1756 5366 
Q 2219 4922 2569 4547 
L 2338 4353 
L 3803 4353 
Q 4147 4809 4500 5347 
L 5000 5078 
Q 4678 4688 4378 4353 
L 5656 4353 
L 5656 1322 
L 5181 1322 
L 5181 1616 
L 3444 1616 
L 3444 909 
L 6275 909 
L 6275 459 
L 3444 459 
L 3444 -859 
L 2956 -859 
L 2956 459 
L 125 459 
L 125 909 
z
M 3444 2053 
L 5181 2053 
L 5181 2778 
L 3444 2778 
L 3444 2053 
z
M 1225 2053 
L 2956 2053 
L 2956 2778 
L 1225 2778 
L 1225 2053 
z
M 5181 3916 
L 3444 3916 
L 3444 3203 
L 5181 3203 
L 5181 3916 
z
M 1225 3203 
L 2956 3203 
L 2956 3916 
L 1225 3916 
L 1225 3203 
z
" transform="scale(0.015625)"/>
       <path id="MicrosoftYaHei-4ef7" d="M 69 2166 
Q 913 3484 1388 5259 
L 1875 5109 
Q 1650 4391 1400 3766 
L 1400 -853 
L 931 -853 
L 931 2722 
Q 619 2109 281 1622 
Q 163 1959 69 2166 
z
M 4319 5272 
L 4231 5116 
Q 5006 3747 6319 3141 
Q 6156 2953 5975 2703 
Q 4706 3434 3975 4703 
Q 3275 3497 2000 2603 
Q 1850 2822 1675 2997 
Q 3088 3884 3756 5272 
L 4319 5272 
z
M 3313 2828 
L 3313 1941 
Q 3313 134 2275 -891 
Q 2094 -709 1856 -541 
Q 2825 347 2825 1897 
L 2825 2828 
L 3313 2828 
z
M 4631 2828 
L 5119 2828 
L 5119 -828 
L 4631 -828 
L 4631 2828 
z
" transform="scale(0.015625)"/>
       <path id="MicrosoftYaHei-ff08" d="M 5288 -1100 
Q 4172 119 4172 1850 
Q 4172 3603 5288 4838 
L 5825 4838 
Q 4716 3572 4716 1856 
Q 4716 166 5819 -1100 
L 5288 -1100 
z
" transform="scale(0.015625)"/>
       <path id="MicrosoftYaHei-7f8e" d="M 150 2403 
L 2956 2403 
L 2956 2991 
L 663 2991 
L 663 3416 
L 2956 3416 
L 2956 3991 
L 288 3991 
L 288 4416 
L 2259 4416 
Q 1938 4694 1425 5084 
L 1713 5397 
Q 2256 5028 2619 4753 
L 2288 4416 
L 3950 4416 
L 3719 4678 
Q 4213 5022 4613 5372 
L 4981 5022 
Q 4581 4722 4116 4416 
L 6150 4416 
L 6150 3991 
L 3469 3991 
L 3469 3416 
L 5813 3416 
L 5813 2991 
L 3469 2991 
L 3469 2403 
L 6263 2403 
L 6263 1978 
L 150 1978 
L 150 2403 
z
M 6313 -303 
Q 6075 -622 5950 -822 
Q 3897 -419 3216 803 
Q 2606 -488 406 -872 
Q 281 -659 100 -397 
Q 2200 -106 2741 916 
L 238 916 
L 238 1341 
L 2913 1341 
Q 2975 1559 3013 1841 
L 3525 1841 
Q 3475 1566 3413 1341 
L 6200 1341 
L 6200 916 
L 3631 916 
Q 4363 -138 6313 -303 
z
" transform="scale(0.015625)"/>
       <path id="MicrosoftYaHei-5206" d="M 900 2559 
L 5056 2559 
Q 5025 1497 4963 484 
Q 4888 -684 3856 -678 
Q 3350 -684 2788 -647 
Q 2750 -384 2700 -116 
Q 3181 -184 3775 -191 
Q 4400 -203 4463 541 
Q 4513 1216 4538 2097 
L 2616 2097 
Q 2541 1053 2181 416 
Q 1706 -422 588 -878 
Q 425 -666 231 -459 
Q 1269 -72 1725 666 
Q 2053 1225 2103 2097 
L 900 2097 
L 900 2559 
z
M 3488 5159 
L 3938 5353 
Q 4625 3678 6350 2847 
Q 6069 2553 5944 2372 
Q 4225 3366 3488 5159 
z
M 50 2766 
Q 1338 3678 2250 5253 
L 2694 5009 
Q 1744 3347 413 2341 
Q 281 2534 50 2766 
z
" transform="scale(0.015625)"/>
       <path id="MicrosoftYaHei-9897" d="M 169 1659 
L 1444 1659 
L 1444 2341 
L 806 2341 
L 806 2147 
L 388 2147 
L 388 4922 
L 2931 4922 
L 2931 2147 
L 2513 2147 
L 2513 2341 
L 1875 2341 
L 1875 1659 
L 3119 1659 
L 3119 1259 
L 1875 1259 
L 1875 891 
L 2031 1066 
Q 2588 691 3094 272 
L 2800 -59 
Q 2344 359 1875 703 
L 1875 -809 
L 1444 -809 
L 1444 822 
Q 981 28 294 -559 
Q 188 -291 81 -109 
Q 794 391 1313 1259 
L 169 1259 
L 169 1659 
z
M 3369 3747 
L 4194 3747 
L 4356 4516 
L 3206 4516 
L 3206 4922 
L 6238 4922 
L 6238 4516 
L 4844 4516 
L 4656 3747 
L 6019 3747 
L 6019 509 
L 5594 509 
L 5594 3366 
L 3794 3366 
L 3794 509 
L 3369 509 
L 3369 3747 
z
M 4494 2984 
L 4925 2984 
L 4925 2166 
Q 4925 1334 4763 797 
Q 5556 203 6256 -428 
L 5913 -797 
Q 5294 -153 4594 391 
Q 4588 378 4581 366 
Q 4206 -316 3213 -859 
Q 3044 -634 2888 -478 
Q 3838 -22 4175 559 
Q 4494 1072 4494 2172 
L 4494 2984 
z
M 806 2728 
L 1444 2728 
L 1444 3441 
L 806 3441 
L 806 2728 
z
M 1875 2728 
L 2513 2728 
L 2513 3441 
L 1875 3441 
L 1875 2728 
z
M 2513 4534 
L 1875 4534 
L 1875 3828 
L 2513 3828 
L 2513 4534 
z
M 806 3828 
L 1444 3828 
L 1444 4534 
L 806 4534 
L 806 3828 
z
" transform="scale(0.015625)"/>
       <path id="MicrosoftYaHei-ff09" d="M 1113 -1100 
L 575 -1100 
Q 1684 163 1684 1888 
Q 1684 3581 581 4838 
L 1113 4838 
Q 2222 3628 2222 1888 
Q 2222 128 1113 -1100 
z
" transform="scale(0.015625)"/>
      </defs>
      <use xlink:href="#MicrosoftYaHei-5355"/>
      <use xlink:href="#MicrosoftYaHei-4ef7" transform="translate(100 0)"/>
      <use xlink:href="#MicrosoftYaHei-ff08" transform="translate(200 0)"/>
      <use xlink:href="#MicrosoftYaHei-7f8e" transform="translate(300 0)"/>
      <use xlink:href="#MicrosoftYaHei-5206" transform="translate(400 0)"/>
      <use xlink:href="#MicrosoftYaHei-2f" transform="translate(500 0)"/>
      <use xlink:href="#MicrosoftYaHei-9897" transform="translate(542.724609 0)"/>
      <use xlink:href="#MicrosoftYaHei-ff09" transform="translate(642.724609 0)"/>
     </g>
    </g>
   </g>
   <g id="patch_13">
    <path d="M 44.512656 192.438844 
L 44.512656 39.293844 
" style="fill: none; stroke: #000000; stroke-width: 0.8; stroke-linejoin: miter; stroke-linecap: square"/>
   </g>
   <g id="patch_14">
    <path d="M 44.512656 192.438844 
L 470.242656 192.438844 
" style="fill: none; stroke: #000000; stroke-width: 0.8; stroke-linejoin: miter; stroke-linecap: square"/>
   </g>
   <g id="text_12">
    <!-- 4x -->
    <g style="fill: #d97706" transform="translate(87.277465 182.958439) scale(0.09 -0.09)">
     <defs>
      <path id="MicrosoftYaHei-Bold-34" d="M 3184 4841 
L 3184 1766 
L 3869 1766 
L 3869 1031 
L 3184 1031 
L 3184 0 
L 2266 0 
L 2266 1031 
L 103 1031 
L 103 1772 
Q 775 2522 1362 3359 
Q 1950 4197 2250 4841 
L 3184 4841 
z
M 997 1766 
L 2266 1766 
L 2266 3541 
Q 2116 3259 1836 2859 
Q 1556 2459 997 1766 
z
" transform="scale(0.015625)"/>
      <path id="MicrosoftYaHei-Bold-78" d="M 3706 3456 
L 2563 1772 
L 3697 0 
L 2531 0 
L 2016 953 
Q 1909 1150 1869 1263 
L 1856 1263 
Q 1800 1113 1716 963 
L 1191 0 
L 31 0 
L 1200 1719 
L 100 3456 
L 1269 3456 
L 1781 2463 
Q 1856 2319 1922 2144 
L 1934 2144 
Q 1966 2250 2078 2466 
L 2606 3456 
L 3706 3456 
z
" transform="scale(0.015625)"/>
     </defs>
     <use xlink:href="#MicrosoftYaHei-Bold-34"/>
     <use xlink:href="#MicrosoftYaHei-Bold-78" transform="translate(61.669922 0)"/>
    </g>
   </g>
   <g id="text_13">
    <!-- 4x -->
    <g style="fill: #d97706" transform="translate(169.623694 181.864546) scale(0.09 -0.09)">
     <use xlink:href="#MicrosoftYaHei-Bold-34"/>
     <use xlink:href="#MicrosoftYaHei-Bold-78" transform="translate(61.669922 0)"/>
    </g>
   </g>
   <g id="text_14">
    <!-- 3x -->
    <g style="fill: #d97706" transform="translate(251.969922 174.207296) scale(0.09 -0.09)">
     <defs>
      <path id="MicrosoftYaHei-Bold-33" d="M 494 1053 
Q 978 691 1625 691 
Q 2034 691 2275 872 
Q 2516 1053 2516 1388 
Q 2516 1731 2230 1912 
Q 1944 2094 1428 2094 
L 997 2094 
L 997 2872 
L 1394 2872 
Q 2369 2872 2369 3528 
Q 2369 4147 1622 4147 
Q 1134 4147 675 3828 
L 675 4663 
Q 1175 4922 1853 4922 
Q 2541 4922 2969 4605 
Q 3397 4288 3397 3725 
Q 3397 2775 2434 2531 
L 2434 2516 
Q 2941 2459 3244 2145 
Q 3547 1831 3547 1381 
Q 3547 691 3042 303 
Q 2538 -84 1697 -84 
Q 950 -84 494 163 
L 494 1053 
z
" transform="scale(0.015625)"/>
     </defs>
     <use xlink:href="#MicrosoftYaHei-Bold-33"/>
     <use xlink:href="#MicrosoftYaHei-Bold-78" transform="translate(61.669922 0)"/>
    </g>
   </g>
   <g id="text_15">
    <!-- 3x -->
    <g style="fill: #d97706" transform="translate(334.31615 137.744201) scale(0.09 -0.09)">
     <use xlink:href="#MicrosoftYaHei-Bold-33"/>
     <use xlink:href="#MicrosoftYaHei-Bold-78" transform="translate(61.669922 0)"/>
    </g>
   </g>
   <g id="text_16">
    <!-- MLCC标准品 vs 高端品单价对比 -->
    <g style="fill: #1e293b" transform="translate(44.512656 17.591875) scale(0.13 -0.13)">
     <defs>
      <path id="MicrosoftYaHei-Bold-4d" d="M 4991 0 
L 4991 2938 
Q 4991 3344 5031 3959 
L 5006 3959 
Q 4913 3494 4856 3338 
L 3663 0 
L 2841 0 
L 1631 3306 
Q 1588 3425 1478 3959 
L 1450 3959 
Q 1491 3350 1491 2738 
L 1491 0 
L 559 0 
L 559 4841 
L 2059 4841 
L 3103 1916 
Q 3234 1553 3281 1234 
L 3303 1234 
Q 3400 1631 3503 1922 
L 4550 4841 
L 6009 4841 
L 6009 0 
L 4991 0 
z
" transform="scale(0.015625)"/>
      <path id="MicrosoftYaHei-Bold-4c" d="M 3400 0 
L 559 0 
L 559 4841 
L 1591 4841 
L 1591 844 
L 3400 844 
L 3400 0 
z
" transform="scale(0.015625)"/>
      <path id="MicrosoftYaHei-Bold-43" d="M 4013 175 
Q 3484 -84 2634 -84 
Q 1541 -84 898 570 
Q 256 1225 256 2316 
Q 256 3463 973 4192 
Q 1691 4922 2825 4922 
Q 3534 4922 4013 4738 
L 4013 3741 
Q 3522 4028 2900 4028 
Q 2191 4028 1766 3575 
Q 1341 3122 1341 2391 
Q 1341 1678 1744 1243 
Q 2147 809 2834 809 
Q 3481 809 4013 1122 
L 4013 175 
z
" transform="scale(0.015625)"/>
      <path id="MicrosoftYaHei-Bold-6807" d="M 69 1703 
Q 550 2538 781 3391 
L 113 3391 
L 113 4209 
L 831 4209 
L 831 5303 
L 1600 5303 
L 1600 4209 
L 2200 4209 
L 2200 3391 
L 1600 3391 
L 1600 2669 
Q 2003 2444 2369 2228 
L 1981 1522 
Q 1850 1634 1600 1803 
L 1600 -841 
L 831 -841 
L 831 1734 
Q 594 1122 269 559 
Q 163 1209 69 1703 
z
M 2469 4978 
L 6000 4978 
L 6000 4166 
L 2469 4166 
L 2469 4978 
z
M 2219 3416 
L 6238 3416 
L 6238 2603 
L 4663 2603 
L 4663 -72 
Q 4663 -406 4478 -586 
Q 4294 -766 3948 -787 
Q 3603 -809 3006 -809 
Q 2919 -303 2838 59 
Q 3169 28 3431 28 
Q 3794 28 3794 366 
L 3794 2603 
L 2219 2603 
L 2219 3416 
z
M 2719 2209 
L 3463 1997 
Q 3081 784 2681 -97 
Q 2288 103 1944 203 
Q 2356 1047 2719 2209 
z
M 5575 2159 
Q 5969 1216 6331 178 
L 5563 -116 
Q 5200 991 4831 1891 
L 5575 2159 
z
" transform="scale(0.015625)"/>
      <path id="MicrosoftYaHei-Bold-51c6" d="M 2594 5328 
L 3406 5116 
Q 3250 4675 3066 4266 
L 4350 4266 
Q 4100 4581 3781 4941 
L 4406 5384 
Q 4819 4966 5175 4541 
L 4778 4266 
L 6181 4266 
L 6181 3591 
L 4906 3591 
L 4906 2916 
L 6131 2916 
L 6131 2272 
L 4906 2272 
L 4906 1597 
L 6131 1597 
L 6131 953 
L 4906 953 
L 4906 266 
L 6250 266 
L 6250 -397 
L 2963 -397 
L 2963 -847 
L 2113 -847 
L 2113 2588 
Q 1941 2350 1756 2122 
Q 1550 2603 1356 2959 
Q 2188 3959 2594 5328 
z
M 2963 2916 
L 4056 2916 
L 4056 3591 
L 2963 3591 
L 2963 2916 
z
M 2963 1597 
L 4056 1597 
L 4056 2272 
L 2963 2272 
L 2963 1597 
z
M 2963 266 
L 4056 266 
L 4056 953 
L 2963 953 
L 2963 266 
z
M 731 5022 
Q 1200 4422 1700 3709 
L 956 3203 
Q 525 3903 38 4572 
L 731 5022 
z
M 925 2472 
Q 1344 2241 1738 2059 
L 825 -609 
Q 481 -353 44 -109 
Q 475 966 925 2472 
z
" transform="scale(0.015625)"/>
      <path id="MicrosoftYaHei-Bold-54c1" d="M 963 5078 
L 5463 5078 
L 5463 2691 
L 963 2691 
L 963 5078 
z
M 4538 4291 
L 1888 4291 
L 1888 3478 
L 4538 3478 
L 4538 4291 
z
M 2113 -434 
L 1238 -434 
L 1238 -728 
L 375 -728 
L 375 2203 
L 2975 2203 
L 2975 -728 
L 2113 -728 
L 2113 -434 
z
M 1238 328 
L 2113 328 
L 2113 1441 
L 1238 1441 
L 1238 328 
z
M 4300 -434 
L 4300 -728 
L 3438 -728 
L 3438 2203 
L 6044 2203 
L 6044 -728 
L 5181 -728 
L 5181 -434 
L 4300 -434 
z
M 5181 328 
L 5181 1441 
L 4300 1441 
L 4300 328 
L 5181 328 
z
" transform="scale(0.015625)"/>
      <path id="MicrosoftYaHei-Bold-20" transform="scale(0.015625)"/>
      <path id="MicrosoftYaHei-Bold-76" d="M 3688 3456 
L 2391 0 
L 1250 0 
L 16 3456 
L 1097 3456 
L 1731 1281 
Q 1834 925 1847 684 
L 1863 684 
Q 1888 931 1984 1263 
L 2631 3456 
L 3688 3456 
z
" transform="scale(0.015625)"/>
      <path id="MicrosoftYaHei-Bold-73" d="M 369 928 
Q 888 613 1384 613 
Q 2009 613 2009 947 
Q 2009 1184 1494 1344 
Q 850 1544 609 1789 
Q 369 2034 369 2453 
Q 369 2963 781 3252 
Q 1194 3541 1863 3541 
Q 2338 3541 2778 3400 
L 2778 2606 
Q 2375 2844 1891 2844 
Q 1650 2844 1503 2758 
Q 1356 2672 1356 2531 
Q 1356 2294 1794 2147 
Q 2263 1991 2498 1862 
Q 2734 1734 2857 1525 
Q 2981 1316 2981 1041 
Q 2981 506 2553 211 
Q 2125 -84 1409 -84 
Q 847 -84 369 94 
L 369 928 
z
" transform="scale(0.015625)"/>
      <path id="MicrosoftYaHei-Bold-9ad8" d="M 138 4853 
L 2734 4853 
Q 2647 5063 2569 5234 
L 3575 5384 
Q 3688 5103 3778 4853 
L 6275 4853 
L 6275 4216 
L 138 4216 
L 138 4853 
z
M 1031 2553 
L 1031 3953 
L 5394 3953 
L 5394 2553 
L 1031 2553 
z
M 4556 3091 
L 4556 3416 
L 1869 3416 
L 1869 3091 
L 4556 3091 
z
M 438 2284 
L 6000 2284 
L 6000 222 
Q 6000 -225 5825 -469 
Q 5650 -713 5356 -764 
Q 5063 -816 4156 -816 
Q 4088 -434 3994 -84 
Q 4350 -116 4756 -116 
Q 5175 -116 5175 291 
L 5175 1659 
L 1263 1659 
L 1263 -797 
L 438 -797 
L 438 2284 
z
M 1806 -228 
L 1806 1384 
L 4619 1384 
L 4619 -34 
L 2556 -34 
L 2556 -228 
L 1806 -228 
z
M 3869 491 
L 3869 859 
L 2556 859 
L 2556 491 
L 3869 491 
z
" transform="scale(0.015625)"/>
      <path id="MicrosoftYaHei-Bold-7aef" d="M 2513 3541 
L 2513 4966 
L 3238 4966 
L 3238 4266 
L 3813 4266 
L 3813 5359 
L 4619 5359 
L 4619 4266 
L 5200 4266 
L 5200 4966 
L 5925 4966 
L 5925 3541 
L 2513 3541 
z
M 156 4241 
L 909 4241 
Q 703 4738 538 5059 
L 1275 5353 
Q 1444 5047 1731 4472 
L 1159 4241 
L 2225 4241 
L 2225 3453 
L 156 3453 
L 156 4241 
z
M 1438 3322 
L 2194 3228 
L 1766 728 
L 2194 803 
Q 2169 603 2138 16 
Q 1263 -134 225 -359 
L 88 459 
L 1116 622 
Q 1294 1909 1438 3322 
z
M 838 3297 
L 1163 1034 
L 469 916 
Q 344 2078 163 3184 
L 838 3297 
z
M 2288 3184 
L 6175 3184 
L 6175 2447 
L 4488 2447 
L 4388 2053 
L 6088 2053 
L 6088 -322 
Q 6088 -650 5878 -747 
Q 5669 -844 5384 -844 
Q 5178 -844 4969 -809 
L 4928 -497 
L 4381 -497 
L 4381 1316 
L 4025 1316 
L 4025 -497 
L 3413 -497 
L 3413 1316 
L 3056 1316 
L 3056 -809 
L 2319 -809 
L 2319 2053 
L 3609 2053 
L 3691 2447 
L 2288 2447 
L 2288 3184 
z
M 5350 1316 
L 4994 1316 
L 4994 -116 
Q 5169 -134 5216 -134 
Q 5356 -134 5350 22 
L 5350 1316 
z
" transform="scale(0.015625)"/>
      <path id="MicrosoftYaHei-Bold-5355" d="M 606 4403 
L 1750 4403 
Q 1534 4713 1306 5003 
L 2056 5341 
L 2706 4578 
L 2313 4403 
L 3569 4403 
Q 3944 4884 4244 5353 
L 5188 5016 
Q 4969 4781 4628 4403 
L 5806 4403 
L 5806 1297 
L 3644 1297 
L 3644 866 
L 6288 866 
L 6288 97 
L 3644 97 
L 3644 -834 
L 2769 -834 
L 2769 97 
L 113 97 
L 113 866 
L 2769 866 
L 2769 1297 
L 606 1297 
L 606 4403 
z
M 4981 3678 
L 3644 3678 
L 3644 3172 
L 4981 3172 
L 4981 3678 
z
M 1431 3172 
L 2769 3172 
L 2769 3678 
L 1431 3678 
L 1431 3172 
z
M 4981 2022 
L 4981 2528 
L 3644 2528 
L 3644 2022 
L 4981 2022 
z
M 1431 2022 
L 2769 2022 
L 2769 2528 
L 1431 2528 
L 1431 2022 
z
" transform="scale(0.015625)"/>
      <path id="MicrosoftYaHei-Bold-4ef7" d="M 4525 2684 
L 5381 2684 
Q 4613 3391 4131 4291 
Q 3613 3428 2813 2678 
L 3625 2678 
Q 3625 2041 3613 1703 
Q 3613 -41 2606 -853 
Q 2375 -578 1938 -222 
Q 2688 484 2713 1591 
Q 2725 1903 2725 2591 
Q 2500 2384 2256 2191 
Q 2081 2553 1825 3028 
Q 2938 3884 3719 5184 
L 4744 5184 
L 4606 4984 
Q 5250 3859 6319 3147 
L 5900 2253 
Q 5650 2434 5431 2634 
L 5431 -766 
L 4525 -766 
L 4525 2684 
z
M 1394 5278 
L 2250 5022 
Q 2025 4322 1731 3666 
L 1731 -797 
L 875 -797 
L 875 2103 
Q 650 1753 400 1422 
Q 313 1809 88 2516 
Q 831 3547 1394 5278 
z
" transform="scale(0.015625)"/>
      <path id="MicrosoftYaHei-Bold-5bf9" d="M 3050 4234 
L 4850 4234 
L 4850 5309 
L 5744 5309 
L 5744 4234 
L 6319 4234 
L 6319 3409 
L 5744 3409 
L 5744 216 
Q 5744 -250 5539 -490 
Q 5334 -731 4987 -754 
Q 4641 -778 3656 -778 
Q 3594 -359 3450 147 
Q 3931 109 4409 109 
Q 4850 109 4850 516 
L 4850 3409 
L 3050 3409 
L 3050 4234 
z
M 863 3772 
L 1691 2509 
Q 1934 3206 2025 4016 
L 188 4016 
L 188 4834 
L 2900 4834 
L 2900 4028 
Q 2709 2722 2247 1669 
L 3169 278 
L 2394 -228 
L 1781 778 
Q 1269 -47 550 -684 
Q 369 -316 88 153 
Q 816 772 1278 1594 
L 181 3341 
L 863 3772 
z
M 3463 3047 
Q 4069 2278 4588 1528 
L 3844 1041 
Q 3375 1841 2813 2609 
L 3463 3047 
z
" transform="scale(0.015625)"/>
      <path id="MicrosoftYaHei-Bold-6bd4" d="M 5481 4441 
L 6294 3803 
Q 5234 2791 4119 1894 
L 4119 547 
Q 4119 153 4438 153 
L 4875 153 
Q 5119 153 5197 325 
Q 5275 497 5363 1597 
Q 5856 1409 6294 1278 
Q 6231 688 6131 248 
Q 6031 -191 5900 -358 
Q 5769 -525 5511 -617 
Q 5253 -709 4881 -709 
L 4094 -709 
Q 3194 -709 3194 247 
L 3194 5316 
L 4119 5316 
L 4119 3009 
Q 4797 3656 5481 4441 
z
M 1419 5241 
L 1419 3453 
L 2850 3453 
L 2850 2591 
L 1419 2591 
L 1419 372 
L 2869 866 
Q 2856 372 2888 -78 
Q 1500 -503 725 -922 
L 275 -184 
Q 494 -16 494 366 
L 494 5241 
L 1419 5241 
z
" transform="scale(0.015625)"/>
     </defs>
     <use xlink:href="#MicrosoftYaHei-Bold-4d"/>
     <use xlink:href="#MicrosoftYaHei-Bold-4c" transform="translate(102.832031 0)"/>
     <use xlink:href="#MicrosoftYaHei-Bold-43" transform="translate(154.769531 0)"/>
     <use xlink:href="#MicrosoftYaHei-Bold-43" transform="translate(218.978516 0)"/>
     <use xlink:href="#MicrosoftYaHei-Bold-6807" transform="translate(286.3125 0)"/>
     <use xlink:href="#MicrosoftYaHei-Bold-51c6" transform="translate(386.3125 0)"/>
     <use xlink:href="#MicrosoftYaHei-Bold-54c1" transform="translate(486.3125 0)"/>
     <use xlink:href="#MicrosoftYaHei-Bold-20" transform="translate(586.3125 0)"/>
     <use xlink:href="#MicrosoftYaHei-Bold-76" transform="translate(616.097656 0)"/>
     <use xlink:href="#MicrosoftYaHei-Bold-73" transform="translate(673.8125 0)"/>
     <use xlink:href="#MicrosoftYaHei-Bold-20" transform="translate(723.177734 0)"/>
     <use xlink:href="#MicrosoftYaHei-Bold-9ad8" transform="translate(752.962891 0)"/>
     <use xlink:href="#MicrosoftYaHei-Bold-7aef" transform="translate(852.962891 0)"/>
     <use xlink:href="#MicrosoftYaHei-Bold-54c1" transform="translate(952.962891 0)"/>
     <use xlink:href="#MicrosoftYaHei-Bold-5355" transform="translate(1052.962891 0)"/>
     <use xlink:href="#MicrosoftYaHei-Bold-4ef7" transform="translate(1152.962891 0)"/>
     <use xlink:href="#MicrosoftYaHei-Bold-5bf9" transform="translate(1252.962891 0)"/>
     <use xlink:href="#MicrosoftYaHei-Bold-6bd4" transform="translate(1352.962891 0)"/>
    </g>
    <!-- 高端品价格是标准品的3-10倍，AI服务器规格是普通100倍 -->
    <g style="fill: #1e293b" transform="translate(44.512656 33.293844) scale(0.13 -0.13)">
     <defs>
      <path id="MicrosoftYaHei-Bold-683c" d="M 75 1703 
Q 569 2522 809 3391 
L 119 3391 
L 119 4203 
L 863 4203 
L 863 5303 
L 1656 5303 
L 1656 4203 
L 2281 4203 
L 2281 3778 
Q 2950 4500 3369 5359 
L 4256 5222 
Q 4122 4959 3978 4716 
L 6013 4716 
L 6013 3997 
Q 5625 3306 5000 2831 
Q 5534 2656 6300 2534 
Q 6181 2153 6106 1728 
Q 4947 1975 4206 2356 
Q 3450 1997 2325 1728 
L 2256 1881 
L 2000 1553 
Q 1834 1697 1656 1844 
L 1656 -841 
L 863 -841 
L 863 1728 
Q 622 1134 275 559 
Q 175 1184 75 1703 
z
M 3472 3953 
Q 3791 3488 4206 3206 
Q 4716 3534 4994 3997 
L 3503 3997 
L 3472 3953 
z
M 2119 2469 
Q 2906 2634 3466 2847 
Q 3191 3078 2972 3353 
Q 2763 3128 2538 2928 
Q 2331 3191 2144 3391 
L 1656 3391 
L 1656 2778 
L 2119 2469 
z
M 2506 -834 
L 2506 1722 
L 5869 1722 
L 5869 -822 
L 5025 -822 
L 5025 -509 
L 3350 -509 
L 3350 -834 
L 2506 -834 
z
M 5025 947 
L 3350 947 
L 3350 266 
L 5025 266 
L 5025 947 
z
" transform="scale(0.015625)"/>
      <path id="MicrosoftYaHei-Bold-662f" d="M 838 5134 
L 5569 5134 
L 5569 2522 
L 838 2522 
L 838 5134 
z
M 4700 4441 
L 1706 4441 
L 1706 4103 
L 4700 4103 
L 4700 4441 
z
M 4700 3216 
L 4700 3553 
L 1706 3553 
L 1706 3216 
L 4700 3216 
z
M 819 -866 
Q 494 -616 106 -353 
Q 806 316 1178 1503 
L 119 1503 
L 119 2222 
L 6294 2222 
L 6294 1503 
L 3688 1503 
L 3688 1122 
L 5813 1122 
L 5813 441 
L 3688 441 
L 3688 44 
Q 4097 34 4694 34 
Q 5375 34 6306 47 
Q 6150 -359 6063 -691 
Q 5606 -700 4463 -684 
L 3550 -672 
Q 2113 -672 1463 3 
Q 1175 -509 819 -866 
z
M 2844 113 
L 2844 1503 
L 1194 1503 
L 1981 1209 
Q 1891 931 1788 681 
Q 2194 253 2844 113 
z
" transform="scale(0.015625)"/>
      <path id="MicrosoftYaHei-Bold-7684" d="M 1250 5303 
L 2181 5159 
L 1900 4309 
L 2963 4309 
L 2963 3091 
Q 3466 3934 3925 5316 
L 4788 5091 
Q 4650 4675 4494 4278 
L 6106 4278 
L 6034 681 
Q 6019 100 5937 -133 
Q 5856 -366 5684 -512 
Q 5513 -659 5205 -712 
Q 4897 -766 3863 -766 
Q 3769 -216 3625 178 
Q 4088 141 4609 141 
Q 4759 141 4868 175 
Q 4978 209 5048 279 
Q 5119 350 5144 437 
Q 5169 525 5184 1206 
L 5213 2484 
Q 5225 3081 5225 3453 
L 4138 3453 
Q 3931 3016 3700 2603 
Q 3403 2797 2963 2988 
L 2963 -734 
L 2094 -734 
L 2094 -284 
L 1206 -284 
L 1206 -772 
L 338 -772 
L 338 4309 
L 997 4309 
Q 1178 4922 1250 5303 
z
M 2094 3491 
L 1206 3491 
L 1206 2422 
L 2094 2422 
L 2094 3491 
z
M 1206 534 
L 2094 534 
L 2094 1603 
L 1206 1603 
L 1206 534 
z
M 3944 2703 
Q 4394 2166 4913 1397 
L 4125 872 
Q 3650 1653 3219 2203 
L 3944 2703 
z
" transform="scale(0.015625)"/>
      <path id="MicrosoftYaHei-Bold-2d" d="M 2328 1497 
L 481 1497 
L 481 2209 
L 2328 2209 
L 2328 1497 
z
" transform="scale(0.015625)"/>
      <path id="MicrosoftYaHei-Bold-31" d="M 2716 4947 
L 2716 0 
L 1700 0 
L 1700 3809 
Q 1513 3647 1188 3517 
Q 863 3388 591 3356 
L 591 4222 
Q 1447 4472 2072 4947 
L 2716 4947 
z
" transform="scale(0.015625)"/>
      <path id="MicrosoftYaHei-Bold-30" d="M 244 2341 
Q 244 3597 706 4259 
Q 1169 4922 2044 4922 
Q 3713 4922 3713 2453 
Q 3713 1238 3259 577 
Q 2806 -84 1950 -84 
Q 244 -84 244 2341 
z
M 1266 2366 
Q 1266 691 1981 691 
Q 2684 691 2684 2416 
Q 2684 4147 2000 4147 
Q 1266 4147 1266 2366 
z
" transform="scale(0.015625)"/>
      <path id="MicrosoftYaHei-Bold-500d" d="M 1900 2978 
L 2869 2978 
Q 2575 3419 2400 3647 
L 2778 3891 
L 2100 3891 
L 2100 4603 
L 3584 4603 
Q 3469 4878 3325 5184 
L 4256 5353 
Q 4409 5066 4603 4603 
L 6075 4603 
L 6075 3891 
L 5325 3891 
L 5744 3653 
Q 5509 3334 5228 2978 
L 6300 2978 
L 6300 2241 
L 1900 2241 
L 1900 2978 
z
M 3769 3159 
L 3478 2978 
L 4506 2978 
L 4319 3097 
Q 4591 3447 4897 3891 
L 3209 3891 
Q 3547 3472 3769 3159 
z
M 1363 5341 
L 2163 5103 
Q 1913 4334 1625 3647 
L 1625 -809 
L 800 -809 
L 800 1981 
Q 588 1619 363 1291 
Q 250 1809 81 2472 
Q 900 3766 1363 5341 
z
M 2225 -797 
L 2225 1778 
L 5913 1778 
L 5913 -797 
L 5063 -797 
L 5063 -484 
L 3075 -484 
L 3075 -797 
L 2225 -797 
z
M 5063 1066 
L 3075 1066 
L 3075 228 
L 5063 228 
L 5063 1066 
z
" transform="scale(0.015625)"/>
      <path id="MicrosoftYaHei-Bold-ff0c" d="M 2075 831 
L 1569 -863 
L 831 -863 
L 1191 831 
L 2075 831 
z
" transform="scale(0.015625)"/>
      <path id="MicrosoftYaHei-Bold-41" d="M 4759 0 
L 3634 0 
L 3272 1109 
L 1513 1109 
L 1156 0 
L 38 0 
L 1809 4841 
L 3022 4841 
L 4759 0 
z
M 3028 1906 
L 2478 3584 
Q 2425 3744 2403 4006 
L 2375 4006 
Q 2356 3794 2291 3597 
L 1738 1906 
L 3028 1906 
z
" transform="scale(0.015625)"/>
      <path id="MicrosoftYaHei-Bold-49" d="M 1588 4841 
L 1588 0 
L 556 0 
L 556 4841 
L 1588 4841 
z
" transform="scale(0.015625)"/>
      <path id="MicrosoftYaHei-Bold-670d" d="M 6144 2841 
L 6144 2122 
Q 5900 1228 5441 534 
Q 5825 231 6319 34 
Q 6069 -322 5794 -803 
Q 5303 -522 4903 -134 
Q 4509 -541 4013 -853 
Q 3847 -522 3638 -200 
L 3638 -809 
L 2838 -809 
L 2838 5078 
L 6063 5078 
Q 6063 4119 6002 3826 
Q 5941 3534 5781 3367 
Q 5622 3200 5400 3154 
Q 5178 3109 4150 3122 
Q 4094 3491 3988 3884 
Q 4528 3847 4788 3847 
Q 4966 3847 5073 3923 
Q 5181 4000 5181 4341 
L 3638 4341 
L 3638 2841 
L 6144 2841 
z
M 4381 2059 
Q 4566 1541 4863 1138 
Q 5147 1566 5313 2109 
L 3638 2109 
L 3638 44 
Q 4028 250 4338 528 
Q 3950 1078 3688 1772 
L 4381 2059 
z
M 663 -872 
Q 400 -472 88 -159 
Q 322 334 395 946 
Q 469 1559 469 2941 
L 469 5072 
L 2494 5072 
L 2494 22 
Q 2494 -328 2309 -543 
Q 2125 -759 1294 -772 
Q 1213 -316 1075 78 
Q 1281 47 1456 47 
Q 1756 47 1756 409 
L 1756 1184 
L 1188 1184 
Q 1144 -181 663 -872 
z
M 1756 4272 
L 1219 4272 
L 1219 3472 
L 1756 3472 
L 1756 4272 
z
M 1213 1928 
L 1756 1928 
L 1756 2728 
L 1219 2728 
Q 1219 2294 1213 1928 
z
" transform="scale(0.015625)"/>
      <path id="MicrosoftYaHei-Bold-52a1" d="M 5775 4797 
L 5775 4122 
Q 5175 3553 4331 3116 
Q 5219 2919 6300 2897 
Q 6106 2434 5963 2066 
Q 4363 2216 3216 2641 
Q 2006 2213 438 1984 
Q 306 2316 100 2766 
Q 1266 2875 2213 3113 
Q 1772 3378 1434 3700 
Q 1069 3403 656 3147 
Q 444 3434 150 3778 
Q 1363 4472 1956 5328 
L 2900 5328 
Q 2722 5053 2519 4797 
L 5775 4797 
z
M 3259 3444 
Q 3981 3722 4525 4103 
L 2091 4103 
Q 2603 3709 3259 3444 
z
M 2363 2303 
L 3256 2303 
Q 3225 2003 3172 1716 
L 5813 1716 
L 5706 291 
Q 5675 -66 5497 -297 
Q 5319 -528 5009 -639 
Q 4700 -750 3797 -750 
Q 3484 -750 3138 -734 
Q 3081 -366 2938 109 
Q 3628 53 4144 53 
Q 4413 53 4563 134 
Q 4713 216 4748 362 
Q 4784 509 4806 959 
L 2981 959 
Q 2503 -359 681 -859 
Q 438 -528 94 -141 
Q 1531 203 2000 959 
L 313 959 
L 313 1716 
L 2266 1716 
Q 2325 1991 2363 2303 
z
" transform="scale(0.015625)"/>
      <path id="MicrosoftYaHei-Bold-5668" d="M 506 5059 
L 2956 5059 
L 2956 3297 
L 506 3297 
L 506 5059 
z
M 2194 3934 
L 2194 4422 
L 1269 4422 
L 1269 3934 
L 2194 3934 
z
M 3444 5059 
L 5888 5059 
L 5888 3297 
L 3444 3297 
L 3444 5059 
z
M 5125 3934 
L 5125 4422 
L 4213 4422 
L 4213 3934 
L 5125 3934 
z
M 3438 -797 
L 3438 1228 
L 4738 1228 
Q 3700 1456 3194 1984 
Q 2763 1466 1522 1228 
L 2950 1228 
L 2950 -809 
L 2225 -809 
L 2225 -572 
L 1231 -572 
L 1231 -809 
L 506 -809 
L 506 1097 
Q 372 1084 231 1078 
Q 194 1378 100 1716 
Q 2025 1766 2428 2253 
L 181 2253 
L 181 2891 
L 2728 2891 
Q 2756 3034 2769 3203 
L 3644 3203 
Q 3628 3038 3600 2891 
L 4444 2891 
L 4344 3134 
L 5144 3234 
L 5288 2891 
L 6231 2891 
L 6231 2253 
L 3772 2253 
Q 4438 1738 6306 1709 
Q 6200 1359 6144 1066 
Q 6013 1069 5888 1078 
L 5888 -809 
L 5163 -809 
L 5163 -572 
L 4163 -572 
L 4163 -797 
L 3438 -797 
z
M 5163 591 
L 4163 591 
L 4163 66 
L 5163 66 
L 5163 591 
z
M 2225 591 
L 1231 591 
L 1231 66 
L 2225 66 
L 2225 591 
z
" transform="scale(0.015625)"/>
      <path id="MicrosoftYaHei-Bold-89c4" d="M 88 2766 
L 894 2766 
L 894 3516 
L 188 3516 
L 188 4291 
L 894 4291 
L 894 5284 
L 1694 5284 
L 1694 4291 
L 2400 4291 
L 2400 3516 
L 1694 3516 
L 1694 2766 
L 2488 2766 
L 2488 1984 
L 1675 1984 
Q 1666 1816 1647 1656 
Q 2091 1247 2650 666 
Q 2306 341 2088 91 
Q 1869 369 1506 788 
Q 1278 -194 769 -878 
Q 369 -447 75 -178 
Q 747 550 866 1984 
L 88 1984 
L 88 2766 
z
M 2650 1128 
L 2650 5066 
L 5913 5066 
L 5913 1197 
L 5100 1197 
L 5100 4259 
L 3463 4259 
L 3463 1128 
L 2650 1128 
z
M 5525 978 
Q 6000 747 6306 628 
Q 6184 -291 6031 -522 
Q 5878 -753 5469 -753 
L 4906 -753 
Q 4188 -753 4188 -78 
L 4188 644 
Q 3728 -297 2613 -884 
Q 2394 -572 2044 -172 
Q 3225 394 3540 1169 
Q 3856 1944 3856 3872 
L 4688 3872 
Q 4675 2513 4506 1641 
L 4931 1641 
L 4931 222 
Q 4931 -28 5150 -28 
L 5219 -28 
Q 5369 -28 5417 112 
Q 5466 253 5525 978 
z
" transform="scale(0.015625)"/>
      <path id="MicrosoftYaHei-Bold-666e" d="M 131 3091 
L 1113 3091 
Q 881 3394 569 3734 
L 1081 4103 
L 375 4103 
L 375 4747 
L 1694 4747 
Q 1559 4947 1388 5178 
L 2281 5353 
L 2650 4747 
L 3753 4747 
L 4175 5359 
L 5106 5172 
L 4728 4747 
L 6050 4747 
L 6050 4103 
L 5341 4103 
L 5875 3697 
Q 5616 3447 5275 3091 
L 6288 3091 
L 6288 2453 
L 131 2453 
L 131 3091 
z
M 2919 3091 
L 3488 3091 
L 3488 4103 
L 2919 4103 
L 2919 3091 
z
M 1788 3422 
L 1359 3091 
L 2069 3091 
L 2069 4103 
L 1156 4103 
Q 1425 3822 1788 3422 
z
M 5216 4103 
L 4338 4103 
L 4338 3091 
L 4988 3091 
L 4600 3403 
Q 4941 3759 5216 4103 
z
M 850 -822 
L 850 2097 
L 5569 2097 
L 5569 -822 
L 4719 -822 
L 4719 -566 
L 1700 -566 
L 1700 -822 
L 850 -822 
z
M 4719 1453 
L 1700 1453 
L 1700 1059 
L 4719 1059 
L 4719 1453 
z
M 1700 78 
L 4719 78 
L 4719 472 
L 1700 472 
L 1700 78 
z
" transform="scale(0.015625)"/>
      <path id="MicrosoftYaHei-Bold-901a" d="M 913 5328 
Q 1450 4678 1781 4184 
L 1044 3697 
Q 625 4366 238 4884 
L 913 5328 
z
M 5944 5103 
L 5944 4384 
L 4644 3666 
L 5950 3666 
L 5950 972 
Q 5950 675 5833 503 
Q 5716 331 5503 278 
Q 5291 225 4569 234 
Q 4513 516 4406 878 
Q 4706 859 4900 859 
Q 5163 859 5163 1134 
L 5163 1241 
L 4319 1241 
L 4319 303 
L 3569 303 
L 3569 1241 
L 2750 1241 
L 2750 297 
L 1963 297 
L 1963 3666 
L 3150 3666 
L 2475 4084 
L 2794 4453 
L 1913 4453 
L 1913 5103 
L 5944 5103 
z
M 4863 4453 
L 3025 4453 
Q 3413 4231 3900 3938 
L 4863 4453 
z
M 5163 3103 
L 4319 3103 
L 4319 2722 
L 5163 2722 
L 5163 3103 
z
M 2750 2722 
L 3569 2722 
L 3569 3103 
L 2750 3103 
L 2750 2722 
z
M 4319 1791 
L 5163 1791 
L 5163 2172 
L 4319 2172 
L 4319 1791 
z
M 2750 1791 
L 3569 1791 
L 3569 2172 
L 2750 2172 
L 2750 1791 
z
M 6313 66 
Q 6119 -416 6006 -741 
L 2719 -716 
Q 2134 -700 1759 -542 
Q 1384 -384 1138 -103 
L 456 -884 
L 94 84 
L 694 597 
L 694 2309 
L 138 2309 
L 138 3134 
L 1475 3134 
L 1475 578 
Q 1847 59 2800 59 
L 4216 41 
Q 5144 41 6313 66 
z
" transform="scale(0.015625)"/>
     </defs>
     <use xlink:href="#MicrosoftYaHei-Bold-9ad8"/>
     <use xlink:href="#MicrosoftYaHei-Bold-7aef" transform="translate(100 0)"/>
     <use xlink:href="#MicrosoftYaHei-Bold-54c1" transform="translate(200 0)"/>
     <use xlink:href="#MicrosoftYaHei-Bold-4ef7" transform="translate(300 0)"/>
     <use xlink:href="#MicrosoftYaHei-Bold-683c" transform="translate(400 0)"/>
     <use xlink:href="#MicrosoftYaHei-Bold-662f" transform="translate(500 0)"/>
     <use xlink:href="#MicrosoftYaHei-Bold-6807" transform="translate(600 0)"/>
     <use xlink:href="#MicrosoftYaHei-Bold-51c6" transform="translate(700 0)"/>
     <use xlink:href="#MicrosoftYaHei-Bold-54c1" transform="translate(800 0)"/>
     <use xlink:href="#MicrosoftYaHei-Bold-7684" transform="translate(900 0)"/>
     <use xlink:href="#MicrosoftYaHei-Bold-33" transform="translate(1000 0)"/>
     <use xlink:href="#MicrosoftYaHei-Bold-2d" transform="translate(1061.669922 0)"/>
     <use xlink:href="#MicrosoftYaHei-Bold-31" transform="translate(1105.322266 0)"/>
     <use xlink:href="#MicrosoftYaHei-Bold-30" transform="translate(1166.992188 0)"/>
     <use xlink:href="#MicrosoftYaHei-Bold-500d" transform="translate(1228.662109 0)"/>
     <use xlink:href="#MicrosoftYaHei-Bold-ff0c" transform="translate(1328.662109 0)"/>
     <use xlink:href="#MicrosoftYaHei-Bold-41" transform="translate(1428.662109 0)"/>
     <use xlink:href="#MicrosoftYaHei-Bold-49" transform="translate(1503.857422 0)"/>
     <use xlink:href="#MicrosoftYaHei-Bold-670d" transform="translate(1537.402344 0)"/>
     <use xlink:href="#MicrosoftYaHei-Bold-52a1" transform="translate(1637.402344 0)"/>
     <use xlink:href="#MicrosoftYaHei-Bold-5668" transform="translate(1737.402344 0)"/>
     <use xlink:href="#MicrosoftYaHei-Bold-89c4" transform="translate(1837.402344 0)"/>
     <use xlink:href="#MicrosoftYaHei-Bold-683c" transform="translate(1937.402344 0)"/>
     <use xlink:href="#MicrosoftYaHei-Bold-662f" transform="translate(2037.402344 0)"/>
     <use xlink:href="#MicrosoftYaHei-Bold-666e" transform="translate(2137.402344 0)"/>
     <use xlink:href="#MicrosoftYaHei-Bold-901a" transform="translate(2237.402344 0)"/>
     <use xlink:href="#MicrosoftYaHei-Bold-31" transform="translate(2337.402344 0)"/>
     <use xlink:href="#MicrosoftYaHei-Bold-30" transform="translate(2399.072266 0)"/>
     <use xlink:href="#MicrosoftYaHei-Bold-30" transform="translate(2460.742188 0)"/>
     <use xlink:href="#MicrosoftYaHei-Bold-500d" transform="translate(2522.412109 0)"/>
    </g>
   </g>
   <g id="legend_1">
    <g id="patch_15">
     <path d="M 50.812656 74.357281 
L 106.612656 74.357281 
Q 108.412656 74.357281 108.412656 72.557281 
L 108.412656 45.593844 
Q 108.412656 43.793844 106.612656 43.793844 
L 50.812656 43.793844 
Q 49.012656 43.793844 49.012656 45.593844 
L 49.012656 72.557281 
Q 49.012656 74.357281 50.812656 74.357281 
z
" style="fill: #ffffff; opacity: 0.8; stroke: #cccccc; stroke-linejoin: miter"/>
    </g>
    <g id="patch_16">
     <path d="M 52.612656 54.588219 
L 70.612656 54.588219 
L 70.612656 48.288219 
L 52.612656 48.288219 
z
" style="fill: #93c5fd; stroke: #ffffff; stroke-width: 0.5; stroke-linejoin: miter"/>
    </g>
    <g id="text_17">
     <!-- 标准品 -->
     <g transform="translate(77.812656 54.588219) scale(0.09 -0.09)">
      <defs>
       <path id="MicrosoftYaHei-6807" d="M 75 1409 
Q 769 2478 1025 3647 
L 119 3647 
L 119 4072 
L 1069 4072 
L 1069 5297 
L 1506 5297 
L 1506 4072 
L 2356 4072 
L 2356 3647 
L 1506 3647 
L 1506 2541 
L 1775 2822 
Q 2175 2478 2481 2159 
L 2150 1816 
Q 1850 2156 1506 2503 
L 1506 -797 
L 1069 -797 
L 1069 2588 
Q 738 1513 281 859 
Q 194 1128 75 1409 
z
M 2350 3097 
L 6250 3097 
L 6250 2659 
L 4525 2659 
L 4525 47 
Q 4525 -734 3806 -734 
Q 3469 -741 2975 -728 
Q 2944 -503 2888 -209 
Q 3319 -259 3675 -259 
Q 4050 -259 4050 203 
L 4050 2659 
L 2350 2659 
L 2350 3097 
z
M 2638 4928 
L 5963 4928 
L 5963 4491 
L 2638 4491 
L 2638 4928 
z
M 4938 1853 
L 5381 2066 
Q 5975 928 6369 72 
L 5869 -147 
Q 5463 822 4938 1853 
z
M 2931 2066 
L 3400 1878 
Q 2888 734 2381 -153 
Q 2188 -41 1925 66 
Q 2425 872 2931 2066 
z
" transform="scale(0.015625)"/>
       <path id="MicrosoftYaHei-51c6" d="M 1413 2766 
Q 2313 3866 2869 5334 
L 3331 5172 
Q 3128 4694 2906 4253 
L 6194 4253 
L 6194 3822 
L 4675 3822 
L 4675 2891 
L 6025 2891 
L 6025 2459 
L 4675 2459 
L 4675 1528 
L 6038 1528 
L 6038 1097 
L 4675 1097 
L 4675 78 
L 6275 78 
L 6275 -341 
L 2769 -341 
L 2769 -841 
L 2281 -841 
L 2281 3131 
Q 2034 2738 1769 2384 
Q 1631 2578 1413 2766 
z
M 2769 78 
L 4188 78 
L 4188 1097 
L 2769 1097 
L 2769 78 
z
M 1081 2422 
Q 1325 2291 1556 2209 
Q 1113 916 681 -372 
L 169 -141 
Q 650 1003 1081 2422 
z
M 2769 1528 
L 4188 1528 
L 4188 2459 
L 2769 2459 
L 2769 1528 
z
M 2769 2891 
L 4188 2891 
L 4188 3822 
L 2769 3822 
L 2769 2891 
z
M 531 4991 
Q 1050 4384 1581 3709 
Q 1538 3678 1150 3341 
Q 681 3997 138 4672 
L 531 4991 
z
M 3919 5116 
L 4325 5372 
Q 4569 5072 4881 4622 
L 4450 4334 
Q 4156 4784 3919 5116 
z
" transform="scale(0.015625)"/>
       <path id="MicrosoftYaHei-54c1" d="M 1044 5047 
L 5356 5047 
L 5356 2572 
L 4856 2572 
L 4856 2772 
L 1544 2772 
L 1544 2572 
L 1044 2572 
L 1044 5047 
z
M 3588 2059 
L 5975 2059 
L 5975 -828 
L 5500 -828 
L 5500 -403 
L 4063 -403 
L 4063 -828 
L 3588 -828 
L 3588 2059 
z
M 431 2059 
L 2813 2059 
L 2813 -828 
L 2338 -828 
L 2338 -409 
L 906 -409 
L 906 -828 
L 431 -828 
L 431 2059 
z
M 4856 4609 
L 1544 4609 
L 1544 3209 
L 4856 3209 
L 4856 4609 
z
M 5500 1622 
L 4063 1622 
L 4063 3 
L 5500 3 
L 5500 1622 
z
M 2338 1622 
L 906 1622 
L 906 16 
L 2338 16 
L 2338 1622 
z
" transform="scale(0.015625)"/>
      </defs>
      <use xlink:href="#MicrosoftYaHei-6807"/>
      <use xlink:href="#MicrosoftYaHei-51c6" transform="translate(100 0)"/>
      <use xlink:href="#MicrosoftYaHei-54c1" transform="translate(200 0)"/>
     </g>
    </g>
    <g id="patch_17">
     <path d="M 52.612656 68.519937 
L 70.612656 68.519937 
L 70.612656 62.219937 
L 52.612656 62.219937 
z
" style="fill: #2563eb; stroke: #ffffff; stroke-width: 0.5; stroke-linejoin: miter"/>
    </g>
    <g id="text_18">
     <!-- 高端品 -->
     <g transform="translate(77.812656 68.519937) scale(0.09 -0.09)">
      <use xlink:href="#MicrosoftYaHei-9ad8"/>
      <use xlink:href="#MicrosoftYaHei-7aef" transform="translate(100 0)"/>
      <use xlink:href="#MicrosoftYaHei-54c1" transform="translate(200 0)"/>
     </g>
    </g>
   </g>
  </g>
  <g id="text_19">
   <!-- 数据来源：国巨/村田官网报价、DigiKey分销商公开价格、行业研究报告（2024-2025年均价） -->
   <g style="fill: #94a3b8" transform="translate(90.533906 235.197844) scale(0.07 -0.07)">
    <defs>
     <path id="MicrosoftYaHei-6570" d="M 4175 5303 
L 4675 5228 
Q 4544 4622 4369 4097 
L 6281 4097 
L 6281 3672 
L 5888 3672 
Q 5731 1834 5088 753 
Q 5594 66 6375 -372 
Q 6175 -647 6038 -866 
Q 5275 -372 4769 309 
Q 4194 -403 3400 -928 
Q 3263 -747 3044 -534 
Q 3919 41 4463 772 
Q 3956 1647 3794 2791 
Q 3663 2559 3519 2359 
Q 3394 2541 3206 2759 
Q 3931 3803 4175 5303 
z
M 150 1697 
L 1100 1697 
Q 1238 1934 1369 2184 
L 1819 2041 
Q 1719 1866 1619 1697 
L 3150 1697 
L 3150 1291 
Q 2913 678 2431 216 
Q 2775 53 3131 -109 
L 2856 -541 
Q 2469 -322 2050 -103 
Q 1344 -609 269 -903 
Q 169 -703 56 -466 
Q 969 -259 1600 128 
Q 1063 403 475 691 
Q 675 978 863 1284 
L 150 1284 
L 150 1697 
z
M 219 3847 
L 1656 3847 
L 1656 5247 
L 2119 5247 
L 2119 3847 
L 3319 3847 
L 3319 3434 
L 2119 3434 
L 2119 3053 
L 2306 3266 
Q 2888 2841 3281 2516 
L 2981 2166 
Q 2638 2491 2119 2897 
L 2119 2184 
L 1656 2184 
L 1656 3059 
Q 1088 2466 331 2016 
Q 213 2197 63 2397 
Q 850 2822 1506 3434 
L 219 3434 
L 219 3847 
z
M 5388 3672 
L 4219 3672 
Q 4188 3591 4150 3516 
Q 4263 2191 4775 1247 
Q 5275 2159 5388 3672 
z
M 1088 834 
Q 1531 634 2000 416 
Q 2431 784 2675 1284 
L 1375 1284 
Q 1231 1053 1088 834 
z
M 3038 5091 
L 3425 4834 
Q 3081 4384 2738 4003 
Q 2594 4128 2400 4266 
Q 2725 4647 3038 5091 
z
M 381 4816 
L 738 5059 
Q 1019 4716 1319 4322 
L 931 4047 
Q 656 4453 381 4816 
z
" transform="scale(0.015625)"/>
     <path id="MicrosoftYaHei-636e" d="M 2900 1334 
L 4188 1334 
L 4188 2128 
L 2731 2128 
Q 2663 206 1844 -841 
Q 1694 -647 1506 -447 
Q 2288 516 2288 2509 
L 2288 4947 
L 5975 4947 
L 5975 3134 
L 5525 3134 
L 5525 3328 
L 2738 3328 
L 2738 2553 
L 4188 2553 
L 4188 3209 
L 4638 3209 
L 4638 2553 
L 6288 2553 
L 6288 2128 
L 4638 2128 
L 4638 1334 
L 5938 1334 
L 5938 -778 
L 5488 -778 
L 5488 -416 
L 3350 -416 
L 3350 -778 
L 2900 -778 
L 2900 1334 
z
M 100 1966 
Q 544 2088 963 2213 
L 963 3641 
L 175 3641 
L 175 4091 
L 963 4091 
L 963 5284 
L 1425 5284 
L 1425 4091 
L 2106 4091 
L 2106 3641 
L 1425 3641 
L 1425 2356 
Q 1722 2450 2006 2547 
Q 2013 2266 2044 2059 
Q 1722 1956 1425 1856 
L 1425 -34 
Q 1425 -741 806 -753 
Q 613 -759 231 -747 
Q 206 -497 156 -228 
Q 500 -266 681 -266 
Q 963 -266 963 53 
L 963 1703 
Q 534 1559 163 1428 
L 100 1966 
z
M 5525 4534 
L 2738 4534 
L 2738 3741 
L 5525 3741 
L 5525 4534 
z
M 5488 922 
L 3350 922 
L 3350 -9 
L 5488 -9 
L 5488 922 
z
" transform="scale(0.015625)"/>
     <path id="MicrosoftYaHei-6765" d="M 6325 141 
Q 6119 -122 5975 -334 
Q 4344 403 3438 1550 
L 3438 -841 
L 2963 -841 
L 2963 1584 
Q 2050 516 413 -409 
Q 281 -222 75 22 
Q 1706 841 2806 1922 
L 181 1922 
L 181 2359 
L 2963 2359 
L 2963 4003 
L 550 4003 
L 550 4441 
L 2963 4441 
L 2963 5341 
L 3438 5341 
L 3438 4441 
L 5900 4441 
L 5900 4003 
L 3438 4003 
L 3438 2359 
L 6225 2359 
L 6225 1922 
L 3566 1922 
Q 4594 778 6325 141 
z
M 4056 2766 
Q 4631 3378 4950 3828 
L 5381 3497 
Q 4913 2941 4419 2453 
L 4056 2766 
z
M 1075 3509 
L 1438 3803 
Q 1900 3347 2313 2828 
L 1900 2484 
Q 1581 2922 1075 3509 
z
" transform="scale(0.015625)"/>
     <path id="MicrosoftYaHei-6e90" d="M 2931 3741 
L 3744 3741 
Q 3878 4094 4006 4478 
L 2425 4478 
L 2425 2678 
Q 2425 222 1463 -841 
Q 1313 -647 1100 -453 
Q 1963 509 1963 2672 
L 1963 4903 
L 6300 4903 
L 6300 4478 
L 4547 4478 
Q 4375 4103 4194 3741 
L 5844 3741 
L 5844 1178 
L 5394 1178 
L 5394 1341 
L 4588 1341 
L 4588 -128 
Q 4588 -797 3938 -797 
Q 3725 -797 3394 -791 
Q 3363 -603 3306 -359 
Q 3619 -384 3850 -384 
Q 4138 -384 4138 -84 
L 4138 1341 
L 3381 1341 
L 3381 1178 
L 2931 1178 
L 2931 3741 
z
M 831 1878 
Q 1056 1734 1275 1666 
Q 1019 603 700 -766 
L 219 -603 
Q 581 678 831 1878 
z
M 3381 1753 
L 5394 1753 
L 5394 2347 
L 3381 2347 
L 3381 1753 
z
M 5394 3328 
L 3381 3328 
L 3381 2747 
L 5394 2747 
L 5394 3328 
z
M 6288 -241 
L 5894 -541 
Q 5450 128 4931 759 
L 5294 1016 
Q 5863 353 6288 -241 
z
M 2363 -297 
Q 2894 272 3306 984 
L 3706 741 
Q 3231 -16 2731 -584 
L 2363 -297 
z
M 400 3622 
Q 888 3272 1500 2784 
Q 1281 2522 1144 2378 
Q 544 2909 88 3266 
L 400 3622 
z
M 669 5228 
Q 1163 4859 1688 4384 
Q 1469 4172 1313 4003 
Q 769 4541 350 4884 
L 669 5228 
z
" transform="scale(0.015625)"/>
     <path id="MicrosoftYaHei-ff1a" d="M 1606 3531 
Q 1772 3531 1890 3415 
Q 2009 3300 2009 3138 
Q 2009 2975 1893 2858 
Q 1778 2741 1606 2741 
Q 1434 2741 1318 2858 
Q 1203 2975 1203 3138 
Q 1203 3300 1322 3415 
Q 1441 3531 1606 3531 
z
M 1606 716 
Q 1772 716 1890 600 
Q 2009 484 2009 319 
Q 2009 150 1890 36 
Q 1772 -78 1606 -78 
Q 1441 -78 1322 36 
Q 1203 150 1203 319 
Q 1203 484 1322 600 
Q 1441 716 1606 716 
z
" transform="scale(0.015625)"/>
     <path id="MicrosoftYaHei-56fd" d="M 469 4997 
L 5938 4997 
L 5938 -834 
L 5456 -834 
L 5456 -522 
L 950 -522 
L 950 -841 
L 469 -841 
L 469 4997 
z
M 5456 4553 
L 950 4553 
L 950 -78 
L 5456 -78 
L 5456 4553 
z
M 1238 1009 
L 2963 1009 
L 2963 2247 
L 1456 2247 
L 1456 2672 
L 2963 2672 
L 2963 3509 
L 1338 3509 
L 1338 3934 
L 5063 3934 
L 5063 3509 
L 3425 3509 
L 3425 2672 
L 4938 2672 
L 4938 2247 
L 3425 2247 
L 3425 1009 
L 5163 1009 
L 5163 584 
L 1238 584 
L 1238 1009 
z
M 3750 1847 
L 4100 2109 
Q 4444 1753 4688 1441 
L 4319 1159 
Q 4019 1566 3750 1847 
z
" transform="scale(0.015625)"/>
     <path id="MicrosoftYaHei-5de8" d="M 650 4897 
L 6175 4897 
L 6175 4403 
L 1163 4403 
L 1163 3353 
L 5375 3353 
L 5375 841 
L 4869 841 
L 4869 1116 
L 1163 1116 
L 1163 -9 
L 6200 -9 
L 6200 -491 
L 650 -491 
L 650 4897 
z
M 4869 2891 
L 1163 2891 
L 1163 1578 
L 4869 1578 
L 4869 2891 
z
" transform="scale(0.015625)"/>
     <path id="MicrosoftYaHei-6751" d="M 88 1334 
Q 847 2359 1150 3597 
L 188 3597 
L 188 4041 
L 1219 4041 
L 1219 5303 
L 1700 5303 
L 1700 4041 
L 2606 4041 
L 2606 3597 
L 1700 3597 
L 1700 2525 
L 2019 2759 
Q 2325 2391 2869 1734 
L 2475 1409 
Q 2059 1997 1700 2450 
L 1700 -809 
L 1219 -809 
L 1219 2606 
Q 866 1503 331 784 
Q 219 1053 88 1334 
z
M 2863 4022 
L 4925 4022 
L 4925 5303 
L 5419 5303 
L 5419 4022 
L 6306 4022 
L 6306 3566 
L 5419 3566 
L 5419 178 
Q 5419 -691 4600 -691 
Q 4238 -691 3519 -684 
Q 3481 -459 3419 -134 
Q 4138 -178 4419 -178 
Q 4925 -178 4925 241 
L 4925 3566 
L 2863 3566 
L 2863 4022 
z
M 2981 2691 
L 3375 2934 
Q 3881 2191 4269 1491 
L 3813 1222 
Q 3444 1928 2981 2691 
z
" transform="scale(0.015625)"/>
     <path id="MicrosoftYaHei-7530" d="M 613 4878 
L 5800 4878 
L 5800 -684 
L 5313 -684 
L 5313 -234 
L 1100 -234 
L 1100 -684 
L 613 -684 
L 613 4878 
z
M 3444 241 
L 5313 241 
L 5313 2116 
L 3444 2116 
L 3444 241 
z
M 1100 241 
L 2963 241 
L 2963 2116 
L 1100 2116 
L 1100 241 
z
M 5313 4403 
L 3444 4403 
L 3444 2591 
L 5313 2591 
L 5313 4403 
z
M 1100 2591 
L 2963 2591 
L 2963 4403 
L 1100 4403 
L 1100 2591 
z
" transform="scale(0.015625)"/>
     <path id="MicrosoftYaHei-5b98" d="M 5431 1272 
L 5431 -847 
L 4950 -847 
L 4950 -478 
L 1688 -478 
L 1688 -841 
L 1200 -841 
L 1200 3491 
L 5194 3491 
L 5194 1666 
L 4713 1666 
L 4713 1872 
L 1688 1872 
L 1688 1272 
L 5431 1272 
z
M 363 4509 
L 3197 4509 
Q 3006 4838 2806 5122 
L 3238 5366 
Q 3450 5091 3706 4678 
L 3413 4509 
L 6044 4509 
L 6044 3372 
L 5556 3372 
L 5556 4078 
L 850 4078 
L 850 3372 
L 363 3372 
L 363 4509 
z
M 4950 853 
L 1688 853 
L 1688 -66 
L 4950 -66 
L 4950 853 
z
M 4713 3072 
L 1688 3072 
L 1688 2291 
L 4713 2291 
L 4713 3072 
z
" transform="scale(0.015625)"/>
     <path id="MicrosoftYaHei-7f51" d="M 1075 3641 
L 1444 3834 
Q 1816 3244 2184 2628 
Q 2488 3281 2706 3928 
L 3131 3772 
Q 2822 2931 2450 2175 
Q 2809 1563 3163 922 
L 2738 697 
Q 2478 1191 2203 1691 
Q 1819 969 1375 328 
L 1000 544 
L 1000 -759 
L 531 -759 
L 531 4953 
L 5856 4953 
L 5856 -59 
Q 5856 -728 5138 -728 
Q 4738 -728 4181 -716 
Q 4150 -516 4094 -228 
Q 4619 -272 4988 -272 
Q 5388 -272 5388 72 
L 5388 4503 
L 1000 4503 
L 1000 572 
Q 1538 1363 1947 2150 
Q 1531 2891 1075 3641 
z
M 3156 3341 
L 3519 3553 
Q 3831 3047 4166 2481 
Q 4525 3197 4775 3891 
L 5200 3728 
Q 4847 2838 4428 2028 
Q 4822 1353 5244 597 
L 4825 359 
Q 4513 953 4175 1559 
Q 3788 866 3350 241 
L 2969 484 
Q 3506 1263 3919 2016 
Q 3553 2672 3156 3341 
z
" transform="scale(0.015625)"/>
     <path id="MicrosoftYaHei-62a5" d="M 2469 4984 
L 5925 4984 
Q 5894 4347 5869 4022 
Q 5825 3247 4956 3247 
Q 4594 3247 3900 3259 
Q 3856 3497 3800 3759 
Q 4488 3697 4900 3697 
Q 5369 3697 5400 4078 
Q 5419 4278 5425 4547 
L 2956 4547 
L 2956 2759 
L 5963 2759 
L 5963 2328 
Q 5659 1209 4947 441 
Q 5519 -25 6325 -303 
Q 6106 -578 5963 -766 
Q 5163 -381 4591 109 
Q 4006 -375 3244 -816 
Q 3131 -628 2969 -391 
Q 3706 9 4241 447 
Q 3597 1169 3334 2322 
L 2956 2322 
L 2956 -859 
L 2469 -859 
L 2469 4984 
z
M 94 1997 
Q 566 2128 1006 2256 
L 1006 3609 
L 175 3609 
L 175 4041 
L 1006 4041 
L 1006 5259 
L 1488 5259 
L 1488 4041 
L 2231 4041 
L 2231 3609 
L 1488 3609 
L 1488 2403 
Q 1866 2522 2219 2641 
Q 2219 2341 2231 2153 
Q 1869 2038 1488 1913 
L 1488 -66 
Q 1488 -741 881 -753 
Q 631 -759 263 -753 
Q 225 -491 181 -222 
Q 550 -259 738 -259 
Q 1006 -259 1006 47 
L 1006 1756 
Q 591 1622 156 1478 
L 94 1997 
z
M 5456 2322 
L 3775 2322 
Q 3988 1409 4591 766 
Q 5213 1419 5456 2322 
z
" transform="scale(0.015625)"/>
     <path id="MicrosoftYaHei-3001" d="M 1931 -413 
L 1556 -791 
Q 1028 -216 397 306 
L 728 650 
Q 1506 22 1931 -413 
z
" transform="scale(0.015625)"/>
     <path id="MicrosoftYaHei-44" d="M 625 0 
L 625 4841 
L 2006 4841 
Q 3106 4841 3836 4200 
Q 4566 3559 4566 2481 
Q 4566 1356 3836 678 
Q 3106 0 1956 0 
L 625 0 
z
M 1250 4284 
L 1250 553 
L 1953 553 
Q 2875 553 3392 1056 
Q 3909 1559 3909 2466 
Q 3909 3372 3378 3828 
Q 2847 4284 1981 4284 
L 1250 4284 
z
" transform="scale(0.015625)"/>
     <path id="MicrosoftYaHei-69" d="M 472 4675 
Q 472 4838 583 4948 
Q 694 5059 856 5059 
Q 1022 5059 1136 4950 
Q 1250 4841 1250 4675 
Q 1250 4513 1136 4405 
Q 1022 4297 856 4297 
Q 691 4297 581 4405 
Q 472 4513 472 4675 
z
M 544 0 
L 544 3456 
L 1156 3456 
L 1156 0 
L 544 0 
z
" transform="scale(0.015625)"/>
     <path id="MicrosoftYaHei-67" d="M 3547 291 
Q 3547 -1628 1684 -1628 
Q 1041 -1628 566 -1388 
L 566 -797 
Q 1144 -1119 1675 -1119 
Q 2934 -1119 2934 206 
L 2934 572 
L 2922 572 
Q 2528 -81 1747 -81 
Q 1097 -81 706 384 
Q 316 850 316 1619 
Q 316 2503 747 3020 
Q 1178 3538 1897 3538 
Q 2588 3538 2922 2988 
L 2934 2988 
L 2934 3456 
L 3547 3456 
L 3547 291 
z
M 2934 2056 
Q 2938 2456 2666 2743 
Q 2394 3031 1997 3031 
Q 1497 3031 1219 2664 
Q 941 2297 941 1656 
Q 941 1106 1209 765 
Q 1478 425 1922 425 
Q 2369 425 2653 750 
Q 2938 1075 2934 1575 
L 2934 2056 
z
" transform="scale(0.015625)"/>
     <path id="MicrosoftYaHei-4b" d="M 4069 0 
L 3213 0 
L 1394 2200 
Q 1300 2316 1266 2381 
L 1250 2381 
L 1250 0 
L 625 0 
L 625 4841 
L 1250 4841 
L 1250 2563 
L 1266 2563 
Q 1319 2647 1394 2741 
L 3150 4841 
L 3922 4841 
L 1891 2519 
L 4069 0 
z
" transform="scale(0.015625)"/>
     <path id="MicrosoftYaHei-65" d="M 3363 1572 
L 944 1572 
Q 959 1019 1246 717 
Q 1534 416 2050 416 
Q 2631 416 3116 788 
L 3116 241 
Q 2659 -81 1906 -81 
Q 1156 -81 736 394 
Q 316 869 316 1713 
Q 316 2506 777 3022 
Q 1238 3538 1922 3538 
Q 2600 3538 2981 3102 
Q 3363 2666 3363 1881 
L 3363 1572 
z
M 2750 2063 
Q 2747 2531 2528 2787 
Q 2309 3044 1913 3044 
Q 1547 3044 1280 2772 
Q 1013 2500 944 2063 
L 2750 2063 
z
" transform="scale(0.015625)"/>
     <path id="MicrosoftYaHei-79" d="M 3359 3456 
L 1791 -522 
Q 1353 -1628 556 -1628 
Q 328 -1628 166 -1578 
L 166 -1041 
Q 344 -1109 509 -1109 
Q 925 -1109 1131 -622 
L 1397 6 
L 41 3456 
L 719 3456 
L 1622 859 
L 1697 575 
L 1713 575 
Q 1731 672 1788 853 
L 2731 3456 
L 3359 3456 
z
" transform="scale(0.015625)"/>
     <path id="MicrosoftYaHei-9500" d="M 2981 -841 
L 2525 -841 
L 2525 3534 
L 3956 3534 
L 3956 5309 
L 4438 5309 
L 4438 3534 
L 5931 3534 
L 5931 -91 
Q 5931 -816 5250 -816 
Q 4900 -816 4256 -797 
Q 4219 -566 4169 -284 
Q 4756 -322 5063 -322 
Q 5475 -322 5475 28 
L 5475 622 
L 2981 622 
L 2981 -841 
z
M 2275 541 
Q 2275 266 2306 22 
Q 1906 -172 1375 -491 
Q 1263 -553 1113 -703 
L 781 -272 
Q 981 -91 981 197 
L 981 1559 
L 144 1559 
L 144 1991 
L 981 1991 
L 981 2834 
L 575 2834 
L 575 3266 
L 2169 3266 
L 2169 2834 
L 1438 2834 
L 1438 1991 
L 2313 1991 
L 2313 1559 
L 1438 1559 
L 1438 72 
Q 1894 316 2275 541 
z
M 2981 1072 
L 5475 1072 
L 5475 1847 
L 2981 1847 
L 2981 1072 
z
M 5475 3066 
L 2981 3066 
L 2981 2297 
L 5475 2297 
L 5475 3066 
z
M 88 3384 
Q 694 4253 1056 5316 
L 1525 5159 
Q 1356 4741 1163 4353 
L 2319 4353 
L 2319 3922 
L 944 3922 
Q 669 3416 350 2959 
Q 231 3184 88 3384 
z
M 4825 4041 
Q 5269 4522 5688 5103 
L 6100 4791 
Q 5719 4328 5163 3747 
L 4825 4041 
z
M 2319 4859 
L 2663 5122 
Q 3113 4678 3550 4122 
L 3156 3803 
Q 2725 4409 2319 4859 
z
" transform="scale(0.015625)"/>
     <path id="MicrosoftYaHei-5546" d="M 600 3309 
L 2119 3309 
Q 1903 3625 1650 3934 
L 2031 4191 
Q 2331 3841 2575 3541 
L 2238 3309 
L 3656 3309 
Q 3972 3716 4238 4166 
L 4713 3891 
Q 4416 3538 4213 3309 
L 5769 3309 
L 5769 34 
Q 5769 -753 5050 -759 
Q 4663 -766 4175 -753 
Q 4125 -391 4081 -228 
Q 4575 -278 4894 -278 
Q 5300 -278 5300 172 
L 5300 2878 
L 1069 2878 
L 1069 -834 
L 600 -834 
L 600 3309 
z
M 1950 -216 
L 1950 1797 
L 4456 1797 
L 4456 116 
L 2400 116 
L 2400 -216 
L 1950 -216 
z
M 144 4647 
L 2997 4647 
Q 2878 4869 2706 5141 
L 3188 5359 
Q 3375 5038 3581 4647 
L 6275 4647 
L 6275 4203 
L 144 4203 
L 144 4647 
z
M 4006 516 
L 4006 1397 
L 2400 1397 
L 2400 516 
L 4006 516 
z
M 2431 2809 
L 2769 2484 
Q 2038 1859 1400 1384 
Q 1213 1641 1106 1753 
Q 1794 2209 2431 2809 
z
M 3531 2466 
L 3806 2809 
Q 4731 2228 5206 1878 
L 4894 1484 
Q 4275 1984 3531 2466 
z
" transform="scale(0.015625)"/>
     <path id="MicrosoftYaHei-516c" d="M 4144 1591 
Q 5044 422 5663 -534 
L 5188 -847 
Q 5013 -559 4816 -250 
Q 2753 -350 1463 -453 
Q 1225 -478 888 -559 
L 613 -28 
Q 894 84 1131 316 
Q 1863 1159 2719 2809 
L 3256 2566 
Q 2481 1234 1600 78 
Q 2891 119 4522 194 
Q 4166 734 3738 1334 
L 4144 1591 
z
M 3606 4953 
L 4069 5134 
Q 4675 3503 6325 2547 
Q 6156 2372 5938 2059 
Q 4213 3247 3606 4953 
z
M 75 2366 
Q 1469 3503 2156 5047 
L 2650 4841 
Q 1806 3084 475 1966 
Q 313 2172 75 2366 
z
" transform="scale(0.015625)"/>
     <path id="MicrosoftYaHei-5f00" d="M 125 2553 
L 1756 2553 
L 1756 4372 
L 400 4372 
L 400 4866 
L 6006 4866 
L 6006 4372 
L 4731 4372 
L 4731 2553 
L 6275 2553 
L 6275 2059 
L 4731 2059 
L 4731 -791 
L 4219 -791 
L 4219 2059 
L 2266 2059 
Q 2244 916 1938 359 
Q 1631 -253 531 -872 
Q 369 -647 175 -434 
Q 1131 53 1450 584 
Q 1734 1013 1753 2059 
L 125 2059 
L 125 2553 
z
M 2269 2553 
L 4219 2553 
L 4219 4372 
L 2269 4372 
L 2269 2553 
z
" transform="scale(0.015625)"/>
     <path id="MicrosoftYaHei-683c" d="M 2250 3278 
Q 3063 4309 3438 5341 
L 3906 5184 
Q 3788 4903 3644 4628 
L 5906 4628 
L 5906 4184 
Q 5481 3447 4731 2809 
Q 5450 2409 6313 2247 
Q 6169 1947 6106 1703 
Q 5163 1991 4313 2503 
Q 3481 1972 2306 1528 
Q 2206 1759 2094 1966 
Q 3088 2284 3919 2816 
Q 3450 3253 3163 3791 
Q 2888 3366 2563 2947 
Q 2444 3084 2250 3278 
z
M 2713 1559 
L 5800 1559 
L 5800 -872 
L 5319 -872 
L 5319 -559 
L 3194 -559 
L 3194 -872 
L 2713 -872 
L 2713 1559 
z
M 88 1378 
Q 756 2422 1025 3641 
L 131 3641 
L 131 4078 
L 1031 4078 
L 1031 5297 
L 1500 5297 
L 1500 4078 
L 2300 4078 
L 2300 3641 
L 1500 3641 
L 1500 2953 
L 1675 3122 
Q 2013 2797 2419 2384 
L 2094 2078 
Q 1763 2466 1500 2747 
L 1500 -866 
L 1031 -866 
L 1031 2453 
Q 713 1422 288 828 
Q 206 1097 88 1378 
z
M 5319 1109 
L 3194 1109 
L 3194 -109 
L 5319 -109 
L 5319 1109 
z
M 5338 4203 
L 3413 4203 
Q 3775 3491 4300 3078 
Q 4938 3566 5338 4203 
z
" transform="scale(0.015625)"/>
     <path id="MicrosoftYaHei-884c" d="M 2363 2978 
L 6319 2978 
L 6319 2509 
L 5106 2509 
L 5106 66 
Q 5106 -709 4325 -709 
Q 3800 -709 3256 -703 
Q 3219 -453 3163 -141 
Q 3650 -191 4144 -191 
Q 4575 -191 4575 234 
L 4575 2509 
L 2363 2509 
L 2363 2978 
z
M 100 1578 
Q 1069 2372 1863 3809 
L 2300 3541 
Q 1978 2984 1619 2500 
L 1619 -809 
L 1100 -809 
L 1100 1856 
Q 725 1431 319 1072 
Q 219 1334 100 1578 
z
M 2725 4866 
L 5969 4866 
L 5969 4397 
L 2725 4397 
L 2725 4866 
z
M 131 3559 
Q 1125 4328 1731 5347 
L 2181 5072 
Q 1456 3959 381 3078 
Q 269 3316 131 3559 
z
" transform="scale(0.015625)"/>
     <path id="MicrosoftYaHei-4e1a" d="M 119 47 
L 2125 47 
L 2125 5209 
L 2650 5209 
L 2650 47 
L 3744 47 
L 3744 5209 
L 4269 5209 
L 4269 47 
L 6294 47 
L 6294 -416 
L 119 -416 
L 119 47 
z
M 844 3984 
Q 1356 2778 1838 1422 
L 1325 1191 
Q 906 2509 388 3784 
L 844 3984 
z
M 4494 1366 
Q 5119 2691 5544 3928 
L 6050 3728 
Q 5469 2234 4944 1159 
L 4494 1366 
z
" transform="scale(0.015625)"/>
     <path id="MicrosoftYaHei-7814" d="M 2506 2616 
L 3259 2616 
Q 3263 2763 3263 4478 
L 2756 4478 
L 2756 4941 
L 6063 4941 
L 6063 4478 
L 5431 4478 
L 5431 2616 
L 6288 2616 
L 6288 2153 
L 5431 2153 
L 5431 -803 
L 4950 -803 
L 4950 2153 
L 3728 2153 
Q 3713 303 2525 -853 
Q 2331 -659 2113 -491 
Q 3225 553 3241 2153 
L 2506 2153 
L 2506 2616 
z
M 238 4916 
L 2519 4916 
L 2519 4478 
L 1613 4478 
Q 1459 3725 1209 3059 
L 2263 3059 
L 2263 128 
L 1088 128 
L 1088 -391 
L 650 -391 
L 650 1875 
Q 522 1656 381 1453 
Q 238 1678 81 1841 
Q 872 3022 1147 4478 
L 238 4478 
L 238 4916 
z
M 3741 2616 
L 4950 2616 
L 4950 4478 
L 3744 4478 
Q 3744 2859 3741 2616 
z
M 1825 559 
L 1825 2628 
L 1088 2628 
L 1088 559 
L 1825 559 
z
" transform="scale(0.015625)"/>
     <path id="MicrosoftYaHei-7a76" d="M 4613 2053 
L 4613 266 
Q 4613 -147 4944 -147 
L 5394 -147 
Q 5694 -147 5731 159 
Q 5775 466 5806 997 
Q 6019 897 6294 809 
Q 6269 478 6200 9 
Q 6125 -616 5525 -616 
L 4806 -616 
Q 4106 -616 4106 222 
L 4106 1603 
L 2700 1603 
Q 2466 -219 456 -834 
Q 269 -528 156 -391 
Q 2000 156 2200 1603 
L 606 1603 
L 606 2053 
L 2250 2053 
Q 2281 2409 2306 2934 
L 2800 2934 
Q 2778 2431 2747 2053 
L 4613 2053 
z
M 388 4528 
L 3028 4528 
Q 2841 4884 2688 5128 
L 3131 5359 
Q 3338 5047 3563 4659 
L 3288 4528 
L 6031 4528 
L 6031 3291 
L 5531 3291 
L 5531 4066 
L 888 4066 
L 888 3291 
L 388 3291 
L 388 4528 
z
M 3938 3834 
Q 4950 3241 5988 2559 
L 5663 2134 
Q 4656 2866 3638 3484 
L 3938 3834 
z
M 2244 3847 
L 2588 3509 
Q 1600 2734 588 2172 
Q 406 2428 281 2572 
Q 1400 3128 2244 3847 
z
" transform="scale(0.015625)"/>
     <path id="MicrosoftYaHei-544a" d="M 1013 1728 
L 5456 1728 
L 5456 -778 
L 4956 -778 
L 4956 -453 
L 1513 -453 
L 1513 -778 
L 1013 -778 
L 1013 1728 
z
M 175 2859 
L 3138 2859 
L 3138 3891 
L 1450 3891 
Q 1191 3394 894 2978 
Q 688 3122 431 3272 
Q 1119 4172 1450 5222 
L 1969 5072 
Q 1828 4697 1675 4353 
L 3138 4353 
L 3138 5334 
L 3650 5334 
L 3650 4353 
L 5813 4353 
L 5813 3891 
L 3650 3891 
L 3650 2859 
L 6281 2859 
L 6281 2397 
L 175 2397 
L 175 2859 
z
M 4956 1278 
L 1513 1278 
L 1513 -9 
L 4956 -9 
L 4956 1278 
z
" transform="scale(0.015625)"/>
     <path id="MicrosoftYaHei-2d" d="M 2328 1681 
L 488 1681 
L 488 2153 
L 2328 2153 
L 2328 1681 
z
" transform="scale(0.015625)"/>
     <path id="MicrosoftYaHei-5e74" d="M 119 1278 
L 1125 1278 
L 1125 3066 
L 3338 3066 
L 3338 4178 
L 1500 4178 
Q 1078 3419 556 2778 
Q 394 2953 169 3128 
Q 1056 4128 1500 5372 
L 2013 5228 
Q 1881 4919 1738 4628 
L 6038 4628 
L 6038 4178 
L 3844 4178 
L 3844 3066 
L 5931 3066 
L 5931 2628 
L 3844 2628 
L 3844 1278 
L 6319 1278 
L 6319 828 
L 3844 828 
L 3844 -859 
L 3338 -859 
L 3338 828 
L 119 828 
L 119 1278 
z
M 1619 1278 
L 3338 1278 
L 3338 2628 
L 1619 2628 
L 1619 1278 
z
" transform="scale(0.015625)"/>
     <path id="MicrosoftYaHei-5747" d="M 2244 2803 
Q 2931 3953 3338 5322 
L 3838 5172 
Q 3691 4744 3531 4347 
L 6013 4347 
Q 5925 1053 5875 297 
Q 5831 -697 4806 -697 
Q 4188 -697 3706 -672 
Q 3669 -422 3606 -141 
L 3625 -141 
Q 4250 -209 4775 -209 
Q 5350 -209 5394 378 
Q 5456 1447 5513 3891 
L 3341 3891 
Q 3028 3172 2675 2572 
Q 2481 2691 2244 2803 
z
M 81 428 
Q 559 600 1006 769 
L 1006 3253 
L 169 3253 
L 169 3697 
L 1006 3697 
L 1006 5259 
L 1469 5259 
L 1469 3697 
L 2281 3697 
L 2281 3253 
L 1469 3253 
L 1469 947 
Q 1922 1125 2338 1303 
Q 2350 991 2369 784 
Q 1363 403 250 -53 
L 81 428 
z
M 2513 853 
Q 3769 1353 5119 1934 
Q 5150 1641 5188 1434 
Q 4031 947 2706 359 
L 2513 853 
z
M 3138 2909 
L 3481 3216 
Q 4025 2716 4531 2216 
L 4125 1859 
Q 3644 2409 3138 2909 
z
" transform="scale(0.015625)"/>
    </defs>
    <use xlink:href="#MicrosoftYaHei-6570"/>
    <use xlink:href="#MicrosoftYaHei-636e" transform="translate(100 0)"/>
    <use xlink:href="#MicrosoftYaHei-6765" transform="translate(200 0)"/>
    <use xlink:href="#MicrosoftYaHei-6e90" transform="translate(300 0)"/>
    <use xlink:href="#MicrosoftYaHei-ff1a" transform="translate(400 0)"/>
    <use xlink:href="#MicrosoftYaHei-56fd" transform="translate(500 0)"/>
    <use xlink:href="#MicrosoftYaHei-5de8" transform="translate(600 0)"/>
    <use xlink:href="#MicrosoftYaHei-2f" transform="translate(700 0)"/>
    <use xlink:href="#MicrosoftYaHei-6751" transform="translate(742.724609 0)"/>
    <use xlink:href="#MicrosoftYaHei-7530" transform="translate(842.724609 0)"/>
    <use xlink:href="#MicrosoftYaHei-5b98" transform="translate(942.724609 0)"/>
    <use xlink:href="#MicrosoftYaHei-7f51" transform="translate(1042.724609 0)"/>
    <use xlink:href="#MicrosoftYaHei-62a5" transform="translate(1142.724609 0)"/>
    <use xlink:href="#MicrosoftYaHei-4ef7" transform="translate(1242.724609 0)"/>
    <use xlink:href="#MicrosoftYaHei-3001" transform="translate(1342.724609 0)"/>
    <use xlink:href="#MicrosoftYaHei-44" transform="translate(1442.724609 0)"/>
    <use xlink:href="#MicrosoftYaHei-69" transform="translate(1518.896484 0)"/>
    <use xlink:href="#MicrosoftYaHei-67" transform="translate(1545.507812 0)"/>
    <use xlink:href="#MicrosoftYaHei-69" transform="translate(1609.472656 0)"/>
    <use xlink:href="#MicrosoftYaHei-4b" transform="translate(1636.083984 0)"/>
    <use xlink:href="#MicrosoftYaHei-65" transform="translate(1698.185547 0)"/>
    <use xlink:href="#MicrosoftYaHei-79" transform="translate(1754.923828 0)"/>
    <use xlink:href="#MicrosoftYaHei-5206" transform="translate(1807.853516 0)"/>
    <use xlink:href="#MicrosoftYaHei-9500" transform="translate(1907.853516 0)"/>
    <use xlink:href="#MicrosoftYaHei-5546" transform="translate(2007.853516 0)"/>
    <use xlink:href="#MicrosoftYaHei-516c" transform="translate(2107.853516 0)"/>
    <use xlink:href="#MicrosoftYaHei-5f00" transform="translate(2207.853516 0)"/>
    <use xlink:href="#MicrosoftYaHei-4ef7" transform="translate(2307.853516 0)"/>
    <use xlink:href="#MicrosoftYaHei-683c" transform="translate(2407.853516 0)"/>
    <use xlink:href="#MicrosoftYaHei-3001" transform="translate(2507.853516 0)"/>
    <use xlink:href="#MicrosoftYaHei-884c" transform="translate(2607.853516 0)"/>
    <use xlink:href="#MicrosoftYaHei-4e1a" transform="translate(2707.853516 0)"/>
    <use xlink:href="#MicrosoftYaHei-7814" transform="translate(2807.853516 0)"/>
    <use xlink:href="#MicrosoftYaHei-7a76" transform="translate(2907.853516 0)"/>
    <use xlink:href="#MicrosoftYaHei-62a5" transform="translate(3007.853516 0)"/>
    <use xlink:href="#MicrosoftYaHei-544a" transform="translate(3107.853516 0)"/>
    <use xlink:href="#MicrosoftYaHei-ff08" transform="translate(3207.853516 0)"/>
    <use xlink:href="#MicrosoftYaHei-32" transform="translate(3307.853516 0)"/>
    <use xlink:href="#MicrosoftYaHei-30" transform="translate(3366.496094 0)"/>
    <use xlink:href="#MicrosoftYaHei-32" transform="translate(3425.138672 0)"/>
    <use xlink:href="#MicrosoftYaHei-34" transform="translate(3483.78125 0)"/>
    <use xlink:href="#MicrosoftYaHei-2d" transform="translate(3542.423828 0)"/>
    <use xlink:href="#MicrosoftYaHei-32" transform="translate(3585.685547 0)"/>
    <use xlink:href="#MicrosoftYaHei-30" transform="translate(3644.328125 0)"/>
    <use xlink:href="#MicrosoftYaHei-32" transform="translate(3702.970703 0)"/>
    <use xlink:href="#MicrosoftYaHei-35" transform="translate(3761.613281 0)"/>
    <use xlink:href="#MicrosoftYaHei-5e74" transform="translate(3820.255859 0)"/>
    <use xlink:href="#MicrosoftYaHei-5747" transform="translate(3920.255859 0)"/>
    <use xlink:href="#MicrosoftYaHei-4ef7" transform="translate(4020.255859 0)"/>
    <use xlink:href="#MicrosoftYaHei-ff09" transform="translate(4120.255859 0)"/>
   </g>
  </g>
 </g>
 <defs>
  <clipPath id="p71a906eee6">
   <rect x="44.512656" y="39.293844" width="425.73" height="153.145"/>
  </clipPath>
 </defs>
</svg>
