<?xml version="1.0" encoding="UTF-8" standalone="no"?>
<!DOCTYPE svg PUBLIC "-//W3C//DTD SVG 1.1//EN"
 "http://www.w3.org/Graphics/SVG/1.1/DTD/svg11.dtd">
<!-- Generated by graphviz version 15.0.0 (20260523.1842)
 -->
<!-- Title: MLCC_Supply_Chain Pages: 1 -->
<svg width="3444pt" height="712pt"
 viewBox="0.00 0.00 3444.00 712.00" xmlns="http://www.w3.org/2000/svg" xmlns:xlink="http://www.w3.org/1999/xlink">
<g id="graph0" class="graph" transform="scale(1 1) rotate(0) translate(4 708.13)">
<title>MLCC_Supply_Chain</title>
<polygon fill="#ffffff" stroke="none" points="-4,4 -4,-708.13 3440,-708.13 3440,4 -4,4"/>
<g id="clust1" class="cluster">
<title>cluster_material</title>
<polygon fill="#eff6ff" stroke="#2563eb" stroke-width="1.5" points="963,-473.65 963,-696.13 1631,-696.13 1631,-473.65 963,-473.65"/>
<text xml:space="preserve" text-anchor="middle" x="1297" y="-679.78" font-family="Microsoft YaHei" font-size="13.00">上游：陶瓷粉末 &amp; 电极材料</text>
</g>
<g id="clust2" class="cluster">
<title>cluster_equipment</title>
<polygon fill="#fff7ed" stroke="#f59e0b" stroke-width="1.5" points="2394,-312.17 2394,-413.17 3428,-413.17 3428,-312.17 2394,-312.17"/>
<text xml:space="preserve" text-anchor="middle" x="2911" y="-396.82" font-family="Microsoft YaHei" font-size="13.00">上游：制造设备</text>
</g>
<g id="clust3" class="cluster">
<title>cluster_manufacturing</title>
<polygon fill="#f0fdf4" stroke="#059669" stroke-width="1.5" points="8,-140.74 8,-421.15 2116,-421.15 2116,-140.74 8,-140.74"/>
<text xml:space="preserve" text-anchor="middle" x="1062" y="-404.8" font-family="Microsoft YaHei" font-size="13.00">中游：MLCC制造 (日韩台主导，国产追赶)</text>
</g>
<g id="clust4" class="cluster">
<title>cluster_application</title>
<polygon fill="#f8fafc" stroke="#64748b" stroke-width="1.5" points="701,-8 701,-103.74 1628,-103.74 1628,-8 701,-8"/>
<text xml:space="preserve" text-anchor="middle" x="1164.5" y="-87.39" font-family="Microsoft YaHei" font-size="13.00">下游应用</text>
</g>
<!-- batio3 -->
<g id="node1" class="node">
<title>batio3</title>
<ellipse fill="#dbeafe" stroke="#2563eb" stroke-width="0.5" cx="1397" cy="-508.52" rx="64.35" ry="26.87"/>
<text xml:space="preserve" text-anchor="middle" x="1397" y="-513.07" font-family="Microsoft YaHei" font-size="11.00">钛酸钡 BaTiO3</text>
<text xml:space="preserve" text-anchor="middle" x="1397" y="-498.07" font-family="Microsoft YaHei" font-size="11.00">(陶瓷介质核心)</text>
</g>
<!-- murata -->
<g id="node14" class="node">
<title>murata</title>
<ellipse fill="#dbeafe" stroke="#1d4ed8" stroke-width="2" cx="2037" cy="-186.22" rx="70.71" ry="37.48"/>
<text xml:space="preserve" text-anchor="middle" x="2037" y="-198.27" font-family="Microsoft YaHei" font-size="11.00">村田 Murata</text>
<text xml:space="preserve" text-anchor="middle" x="2037" y="-183.27" font-family="Microsoft YaHei" font-size="11.00">全球第一(~31%)</text>
<text xml:space="preserve" text-anchor="middle" x="2037" y="-168.27" font-family="Microsoft YaHei" font-size="11.00">高容/车规领先</text>
</g>
<!-- batio3&#45;&gt;murata -->
<g id="edge1" class="edge">
<title>batio3&#45;&gt;murata</title>
<path fill="none" stroke="#94a3b8" stroke-width="0.8" d="M1447.04,-491.38C1474.08,-482.65 1502,-473.65 1502,-473.65 1502,-473.65 2137,-421.15 2137,-421.15 2137,-421.15 2137,-312.17 2137,-312.17 2137,-312.17 2104,-259.69 2104,-259.69 2104,-259.69 2088.96,-243.42 2073.13,-226.3"/>
<polygon fill="#94a3b8" stroke="#94a3b8" stroke-width="0.8" points="2075.13,-224.85 2068.58,-221.37 2071.53,-228.18 2075.13,-224.85"/>
</g>
<!-- semco -->
<g id="node15" class="node">
<title>semco</title>
<ellipse fill="#dbeafe" stroke="#3b82f6" stroke-width="0.5" cx="984" cy="-349.67" rx="72.83" ry="37.48"/>
<text xml:space="preserve" text-anchor="middle" x="984" y="-361.72" font-family="Microsoft YaHei" font-size="11.00">三星电机 SEMCO</text>
<text xml:space="preserve" text-anchor="middle" x="984" y="-346.72" font-family="Microsoft YaHei" font-size="11.00">全球第二(~22%)</text>
<text xml:space="preserve" text-anchor="middle" x="984" y="-331.72" font-family="Microsoft YaHei" font-size="11.00">消费电子为主</text>
</g>
<!-- batio3&#45;&gt;semco -->
<g id="edge2" class="edge">
<title>batio3&#45;&gt;semco</title>
<path fill="none" stroke="#94a3b8" stroke-width="0.8" d="M1344.59,-492.96C1255.96,-468.35 1086,-421.15 1086,-421.15 1086,-421.15 1059.33,-402.72 1033.26,-384.71"/>
<polygon fill="#94a3b8" stroke="#94a3b8" stroke-width="0.8" points="1034.81,-382.8 1027.66,-380.84 1032.03,-386.83 1034.81,-382.8"/>
</g>
<!-- taiyo -->
<g id="node16" class="node">
<title>taiyo</title>
<ellipse fill="#dbeafe" stroke="#60a5fa" stroke-width="0.5" cx="764" cy="-349.67" rx="88.74" ry="37.48"/>
<text xml:space="preserve" text-anchor="middle" x="764" y="-361.72" font-family="Microsoft YaHei" font-size="11.00">太阳诱电 Taiyo Yuden</text>
<text xml:space="preserve" text-anchor="middle" x="764" y="-346.72" font-family="Microsoft YaHei" font-size="11.00">全球第三(~11%)</text>
<text xml:space="preserve" text-anchor="middle" x="764" y="-331.72" font-family="Microsoft YaHei" font-size="11.00">高容+通信</text>
</g>
<!-- batio3&#45;&gt;taiyo -->
<g id="edge3" class="edge">
<title>batio3&#45;&gt;taiyo</title>
<path fill="none" stroke="#94a3b8" stroke-width="0.8" d="M1337.92,-497.61C1202.65,-474.92 882,-421.15 882,-421.15 882,-421.15 851.28,-402.8 821.19,-384.83"/>
<polygon fill="#94a3b8" stroke="#94a3b8" stroke-width="0.8" points="822.69,-382.87 815.42,-381.38 820.18,-387.08 822.69,-382.87"/>
</g>
<!-- ni -->
<g id="node2" class="node">
<title>ni</title>
<ellipse fill="#dbeafe" stroke="#2563eb" stroke-width="0.5" cx="1574" cy="-508.52" rx="43.13" ry="26.87"/>
<text xml:space="preserve" text-anchor="middle" x="1574" y="-513.07" font-family="Microsoft YaHei" font-size="11.00">镍粉 (Ni)</text>
<text xml:space="preserve" text-anchor="middle" x="1574" y="-498.07" font-family="Microsoft YaHei" font-size="11.00">(内电极)</text>
</g>
<!-- ni&#45;&gt;murata -->
<g id="edge4" class="edge">
<title>ni&#45;&gt;murata</title>
<path fill="none" stroke="#94a3b8" stroke-width="0.8" d="M1616.42,-503.58C1763.12,-489.95 2240,-445.65 2240,-445.65 2240,-445.65 2240,-259.69 2240,-259.69 2240,-259.69 2162.45,-232 2103.21,-210.86"/>
<polygon fill="#94a3b8" stroke="#94a3b8" stroke-width="0.8" points="2104.27,-208.63 2096.86,-208.59 2102.62,-213.25 2104.27,-208.63"/>
</g>
<!-- ni&#45;&gt;semco -->
<g id="edge5" class="edge">
<title>ni&#45;&gt;semco</title>
<path fill="none" stroke="#94a3b8" stroke-width="0.8" d="M1538.38,-493.15C1515.48,-483.92 1490,-473.65 1490,-473.65 1490,-473.65 1188,-429.15 1188,-429.15 1188,-429.15 1086,-421.15 1086,-421.15 1086,-421.15 1059.33,-402.72 1033.26,-384.71"/>
<polygon fill="#94a3b8" stroke="#94a3b8" stroke-width="0.8" points="1034.81,-382.8 1027.66,-380.84 1032.03,-386.83 1034.81,-382.8"/>
</g>
<!-- additive -->
<g id="node3" class="node">
<title>additive</title>
<ellipse fill="#dbeafe" stroke="#2563eb" stroke-width="0.5" cx="1044" cy="-635.26" rx="73.36" ry="26.87"/>
<text xml:space="preserve" text-anchor="middle" x="1044" y="-639.81" font-family="Microsoft YaHei" font-size="11.00">稀土/镁/锰添加剂</text>
<text xml:space="preserve" text-anchor="middle" x="1044" y="-624.81" font-family="Microsoft YaHei" font-size="11.00">(温度特性调控)</text>
</g>
<!-- cu_ag -->
<g id="node4" class="node">
<title>cu_ag</title>
<ellipse fill="#dbeafe" stroke="#2563eb" stroke-width="0.5" cx="1222" cy="-635.26" rx="46.32" ry="26.87"/>
<text xml:space="preserve" text-anchor="middle" x="1222" y="-639.81" font-family="Microsoft YaHei" font-size="11.00">铜/银浆料</text>
<text xml:space="preserve" text-anchor="middle" x="1222" y="-624.81" font-family="Microsoft YaHei" font-size="11.00">(端电极)</text>
</g>
<!-- batio3_supplier -->
<g id="node5" class="node">
<title>batio3_supplier</title>
<polygon fill="#f0f5ff" stroke="#93c5fd" stroke-width="0.5" points="1461.25,-658.38 1326.75,-658.38 1326.75,-612.13 1467.25,-612.13 1467.25,-652.38 1461.25,-658.38"/>
<polyline fill="none" stroke="#93c5fd" stroke-width="0.5" points="1461.25,-658.38 1461.25,-652.38"/>
<polyline fill="none" stroke="#93c5fd" stroke-width="0.5" points="1467.25,-652.38 1461.25,-652.38"/>
<text xml:space="preserve" text-anchor="middle" x="1397" y="-645.83" font-family="Microsoft YaHei" font-size="9.00">供应商:</text>
<text xml:space="preserve" text-anchor="middle" x="1397" y="-633.08" font-family="Microsoft YaHei" font-size="9.00">村田(自制)、国瓷材料(300285)</text>
<text xml:space="preserve" text-anchor="middle" x="1397" y="-620.33" font-family="Microsoft YaHei" font-size="9.00">堺化学、昭荣化学</text>
</g>
<!-- batio3_supplier&#45;&gt;batio3 -->
<g id="edge6" class="edge">
<title>batio3_supplier&#45;&gt;batio3</title>
<path fill="none" stroke="#93c5fd" stroke-width="0.8" stroke-dasharray="5,2" d="M1397,-611.96C1397,-592.94 1397,-565.31 1397,-543.54"/>
<polygon fill="#93c5fd" stroke="#93c5fd" stroke-width="0.8" points="1399.45,-543.72 1397,-536.72 1394.55,-543.72 1399.45,-543.72"/>
</g>
<!-- ni_supplier -->
<g id="node6" class="node">
<title>ni_supplier</title>
<polygon fill="#f0f5ff" stroke="#93c5fd" stroke-width="0.5" points="1616.5,-658.38 1525.5,-658.38 1525.5,-612.13 1622.5,-612.13 1622.5,-652.38 1616.5,-658.38"/>
<polyline fill="none" stroke="#93c5fd" stroke-width="0.5" points="1616.5,-658.38 1616.5,-652.38"/>
<polyline fill="none" stroke="#93c5fd" stroke-width="0.5" points="1622.5,-652.38 1616.5,-652.38"/>
<text xml:space="preserve" text-anchor="middle" x="1574" y="-645.83" font-family="Microsoft YaHei" font-size="9.00">供应商:</text>
<text xml:space="preserve" text-anchor="middle" x="1574" y="-633.08" font-family="Microsoft YaHei" font-size="9.00">昭荣化学、住友金属</text>
<text xml:space="preserve" text-anchor="middle" x="1574" y="-620.33" font-family="Microsoft YaHei" font-size="9.00">日本为主(高纯镍粉)</text>
</g>
<!-- ni_supplier&#45;&gt;ni -->
<g id="edge7" class="edge">
<title>ni_supplier&#45;&gt;ni</title>
<path fill="none" stroke="#93c5fd" stroke-width="0.8" stroke-dasharray="5,2" d="M1574,-611.96C1574,-592.94 1574,-565.31 1574,-543.54"/>
<polygon fill="#93c5fd" stroke="#93c5fd" stroke-width="0.8" points="1576.45,-543.72 1574,-536.72 1571.55,-543.72 1576.45,-543.72"/>
</g>
<!-- casting -->
<g id="node7" class="node">
<title>casting</title>
<ellipse fill="#fef3c7" stroke="#f59e0b" stroke-width="0.5" cx="2640" cy="-349.67" rx="32.33" ry="18"/>
<text xml:space="preserve" text-anchor="middle" x="2640" y="-346.72" font-family="Microsoft YaHei" font-size="11.00">流延机</text>
</g>
<!-- casting&#45;&gt;murata -->
<g id="edge10" class="edge">
<title>casting&#45;&gt;murata</title>
<path fill="none" stroke="#fcd34d" stroke-width="0.8" stroke-dasharray="1,5" d="M2618.67,-335.9C2601.07,-325.38 2579,-312.17 2579,-312.17 2579,-312.17 2412,-259.69 2412,-259.69 2412,-259.69 2221.05,-222.79 2111.66,-201.65"/>
<polygon fill="#fcd34d" stroke="#fcd34d" stroke-width="0.8" points="2112.14,-199.24 2104.8,-200.32 2111.21,-204.05 2112.14,-199.24"/>
</g>
<!-- printer -->
<g id="node8" class="node">
<title>printer</title>
<ellipse fill="#fef3c7" stroke="#f59e0b" stroke-width="0.5" cx="2797" cy="-349.67" rx="66.46" ry="18"/>
<text xml:space="preserve" text-anchor="middle" x="2797" y="-346.72" font-family="Microsoft YaHei" font-size="11.00">丝印机(电极印刷)</text>
</g>
<!-- printer&#45;&gt;murata -->
<g id="edge11" class="edge">
<title>printer&#45;&gt;murata</title>
<path fill="none" stroke="#fcd34d" stroke-width="0.8" stroke-dasharray="1,5" d="M2759.88,-334.56C2732.87,-324.29 2701,-312.17 2701,-312.17 2701,-312.17 2481,-259.69 2481,-259.69 2481,-259.69 2239.51,-220.27 2112.73,-199.58"/>
<polygon fill="#fcd34d" stroke="#fcd34d" stroke-width="0.8" points="2113.42,-197.21 2106.11,-198.5 2112.63,-202.04 2113.42,-197.21"/>
</g>
<!-- stacker -->
<g id="node9" class="node">
<title>stacker</title>
<ellipse fill="#fef3c7" stroke="#f59e0b" stroke-width="0.5" cx="3091" cy="-349.67" rx="32.33" ry="18"/>
<text xml:space="preserve" text-anchor="middle" x="3091" y="-346.72" font-family="Microsoft YaHei" font-size="11.00">叠层机</text>
</g>
<!-- stacker&#45;&gt;murata -->
<g id="edge12" class="edge">
<title>stacker&#45;&gt;murata</title>
<path fill="none" stroke="#fcd34d" stroke-width="0.8" stroke-dasharray="1,5" d="M3069.67,-335.9C3052.07,-325.38 3030,-312.17 3030,-312.17 3030,-312.17 2347.51,-226.29 2114.15,-196.92"/>
<polygon fill="#fcd34d" stroke="#fcd34d" stroke-width="0.8" points="2114.49,-194.5 2107.24,-196.06 2113.88,-199.36 2114.49,-194.5"/>
</g>
<!-- press -->
<g id="node10" class="node">
<title>press</title>
<ellipse fill="#fef3c7" stroke="#f59e0b" stroke-width="0.5" cx="2961" cy="-349.67" rx="39.65" ry="18"/>
<text xml:space="preserve" text-anchor="middle" x="2961" y="-346.72" font-family="Microsoft YaHei" font-size="11.00">等静压机</text>
</g>
<!-- furnace -->
<g id="node11" class="node">
<title>furnace</title>
<ellipse fill="#fef3c7" stroke="#f59e0b" stroke-width="0.5" cx="2476" cy="-349.67" rx="73.77" ry="18"/>
<text xml:space="preserve" text-anchor="middle" x="2476" y="-346.72" font-family="Microsoft YaHei" font-size="11.00">烧结炉(高温隧道炉)</text>
</g>
<!-- furnace&#45;&gt;murata -->
<g id="edge13" class="edge">
<title>furnace&#45;&gt;murata</title>
<path fill="none" stroke="#fcd34d" stroke-width="0.8" stroke-dasharray="1,5" d="M2454.36,-332.35C2420.29,-306.66 2358,-259.69 2358,-259.69 2358,-259.69 2204.93,-225.13 2110.19,-203.74"/>
<polygon fill="#fcd34d" stroke="#fcd34d" stroke-width="0.8" points="2110.89,-201.39 2103.53,-202.24 2109.82,-206.17 2110.89,-201.39"/>
</g>
<!-- plater -->
<g id="node12" class="node">
<title>plater</title>
<ellipse fill="#fef3c7" stroke="#f59e0b" stroke-width="0.5" cx="3214" cy="-349.67" rx="32.33" ry="18"/>
<text xml:space="preserve" text-anchor="middle" x="3214" y="-346.72" font-family="Microsoft YaHei" font-size="11.00">电镀线</text>
</g>
<!-- equip_note -->
<g id="node13" class="node">
<title>equip_note</title>
<polygon fill="#fff7ed" stroke="#fcd34d" stroke-width="0.5" points="3413.88,-379.17 3304.12,-379.17 3304.12,-320.17 3419.88,-320.17 3419.88,-373.17 3413.88,-379.17"/>
<polyline fill="none" stroke="#fcd34d" stroke-width="0.5" points="3413.88,-379.17 3413.88,-373.17"/>
<polyline fill="none" stroke="#fcd34d" stroke-width="0.5" points="3419.88,-373.17 3413.88,-373.17"/>
<text xml:space="preserve" text-anchor="middle" x="3362" y="-366.62" font-family="Microsoft YaHei" font-size="9.00">关键设备:</text>
<text xml:space="preserve" text-anchor="middle" x="3362" y="-353.87" font-family="Microsoft YaHei" font-size="9.00">叠层机 → 日本/韩国为主</text>
<text xml:space="preserve" text-anchor="middle" x="3362" y="-341.12" font-family="Microsoft YaHei" font-size="9.00">烧结炉 → 日本/德国</text>
<text xml:space="preserve" text-anchor="middle" x="3362" y="-328.37" font-family="Microsoft YaHei" font-size="9.00">国产设备正在追赶</text>
</g>
<!-- smartphone -->
<g id="node25" class="node">
<title>smartphone</title>
<ellipse fill="#f1f5f9" stroke="#64748b" stroke-width="0.5" cx="934" cy="-42.87" rx="67" ry="26.87"/>
<text xml:space="preserve" text-anchor="middle" x="934" y="-47.42" font-family="Microsoft YaHei" font-size="11.00">智能手机</text>
<text xml:space="preserve" text-anchor="middle" x="934" y="-32.42" font-family="Microsoft YaHei" font-size="11.00">800&#45;1200颗/台</text>
</g>
<!-- murata&#45;&gt;smartphone -->
<g id="edge14" class="edge">
<title>murata&#45;&gt;smartphone</title>
<path fill="none" stroke="#94a3b8" stroke-width="0.8" d="M1966.59,-179.52C1737.8,-161.01 1030,-103.74 1030,-103.74 1030,-103.74 1001.86,-86.19 976.04,-70.09"/>
<polygon fill="#94a3b8" stroke="#94a3b8" stroke-width="0.8" points="977.47,-68.09 970.23,-66.46 974.87,-72.25 977.47,-68.09"/>
</g>
<!-- auto -->
<g id="node26" class="node">
<title>auto</title>
<ellipse fill="#fef3c7" stroke="#f59e0b" stroke-width="0.5" cx="1539" cy="-42.87" rx="81.32" ry="26.87"/>
<text xml:space="preserve" text-anchor="middle" x="1539" y="-47.42" font-family="Microsoft YaHei" font-size="11.00">汽车(燃油→电动)</text>
<text xml:space="preserve" text-anchor="middle" x="1539" y="-32.42" font-family="Microsoft YaHei" font-size="11.00">3000→18000颗/台</text>
</g>
<!-- murata&#45;&gt;auto -->
<g id="edge15" class="edge">
<title>murata&#45;&gt;auto</title>
<path fill="none" stroke="#94a3b8" stroke-width="0.8" d="M1982.11,-161.77C1931.77,-140.26 1865,-111.74 1865,-111.74 1865,-111.74 1710.83,-79.64 1614.53,-59.59"/>
<polygon fill="#94a3b8" stroke="#94a3b8" stroke-width="0.8" points="1615.09,-57.21 1607.73,-58.18 1614.09,-62 1615.09,-57.21"/>
</g>
<!-- server -->
<g id="node27" class="node">
<title>server</title>
<ellipse fill="#dbeafe" stroke="#2563eb" stroke-width="2" cx="1318" cy="-42.87" rx="81.32" ry="26.87"/>
<text xml:space="preserve" text-anchor="middle" x="1318" y="-47.42" font-family="Microsoft YaHei" font-size="11.00">服务器→AI服务器</text>
<text xml:space="preserve" text-anchor="middle" x="1318" y="-32.42" font-family="Microsoft YaHei" font-size="11.00">2000→20000颗/台</text>
</g>
<!-- murata&#45;&gt;server -->
<g id="edge16" class="edge">
<title>murata&#45;&gt;server</title>
<path fill="none" stroke="#94a3b8" stroke-width="0.8" d="M1968.14,-175.99C1808.96,-154.66 1429,-103.74 1429,-103.74 1429,-103.74 1396.99,-86.47 1367.35,-70.49"/>
<polygon fill="#94a3b8" stroke="#94a3b8" stroke-width="0.8" points="1368.67,-68.42 1361.35,-67.25 1366.34,-72.73 1368.67,-68.42"/>
</g>
<!-- semco&#45;&gt;smartphone -->
<g id="edge17" class="edge">
<title>semco&#45;&gt;smartphone</title>
<path fill="none" stroke="#94a3b8" stroke-width="0.8" d="M978.02,-312.21C968.26,-252.72 949.05,-135.63 939.57,-77.81"/>
<polygon fill="#94a3b8" stroke="#94a3b8" stroke-width="0.8" points="941.99,-77.43 938.44,-70.92 937.15,-78.22 941.99,-77.43"/>
</g>
<!-- semco&#45;&gt;server -->
<g id="edge18" class="edge">
<title>semco&#45;&gt;server</title>
<path fill="none" stroke="#94a3b8" stroke-width="0.8" d="M1019.11,-316.63C1083.85,-257.55 1221.19,-132.22 1284.61,-74.34"/>
<polygon fill="#94a3b8" stroke="#94a3b8" stroke-width="0.8" points="1286.1,-76.3 1289.62,-69.77 1282.8,-72.68 1286.1,-76.3"/>
</g>
<!-- taiyo&#45;&gt;smartphone -->
<g id="edge19" class="edge">
<title>taiyo&#45;&gt;smartphone</title>
<path fill="none" stroke="#94a3b8" stroke-width="0.8" d="M785.97,-313.28C797.4,-294.88 809,-276.19 809,-276.19 809,-276.19 882.23,-140.08 916.59,-76.22"/>
<polygon fill="#94a3b8" stroke="#94a3b8" stroke-width="0.8" points="918.65,-77.57 919.81,-70.24 914.34,-75.24 918.65,-77.57"/>
</g>
<!-- tdk -->
<g id="node17" class="node">
<title>tdk</title>
<ellipse fill="#dbeafe" stroke="#93c5fd" stroke-width="0.5" cx="1605" cy="-349.67" rx="65.94" ry="37.48"/>
<text xml:space="preserve" text-anchor="middle" x="1605" y="-361.72" font-family="Microsoft YaHei" font-size="11.00">TDK</text>
<text xml:space="preserve" text-anchor="middle" x="1605" y="-346.72" font-family="Microsoft YaHei" font-size="11.00">全球第四(~9%)</text>
<text xml:space="preserve" text-anchor="middle" x="1605" y="-331.72" font-family="Microsoft YaHei" font-size="11.00">车规优势</text>
</g>
<!-- tdk&#45;&gt;auto -->
<g id="edge20" class="edge">
<title>tdk&#45;&gt;auto</title>
<path fill="none" stroke="#94a3b8" stroke-width="0.8" d="M1597.17,-312.51C1584.29,-253.02 1558.81,-135.35 1546.29,-77.53"/>
<polygon fill="#94a3b8" stroke="#94a3b8" stroke-width="0.8" points="1548.74,-77.29 1544.87,-70.97 1543.95,-78.33 1548.74,-77.29"/>
</g>
<!-- yageo -->
<g id="node18" class="node">
<title>yageo</title>
<ellipse fill="#bfdbfe" stroke="#2563eb" stroke-width="0.5" cx="529" cy="-349.67" rx="88.74" ry="37.48"/>
<text xml:space="preserve" text-anchor="middle" x="529" y="-361.72" font-family="Microsoft YaHei" font-size="11.00">国巨 Yageo</text>
<text xml:space="preserve" text-anchor="middle" x="529" y="-346.72" font-family="Microsoft YaHei" font-size="11.00">台湾龙头(~13%)</text>
<text xml:space="preserve" text-anchor="middle" x="529" y="-331.72" font-family="Microsoft YaHei" font-size="11.00">标准品为主+并购基美</text>
</g>
<!-- yageo&#45;&gt;smartphone -->
<g id="edge21" class="edge">
<title>yageo&#45;&gt;smartphone</title>
<path fill="none" stroke="#94a3b8" stroke-width="0.8" d="M574.44,-317.3C602.82,-297.71 634,-276.19 634,-276.19 634,-276.19 817.78,-133.87 897.65,-72.02"/>
<polygon fill="#94a3b8" stroke="#94a3b8" stroke-width="0.8" points="899.15,-73.96 903.18,-67.74 896.15,-70.09 899.15,-73.96"/>
</g>
<!-- consumer -->
<g id="node29" class="node">
<title>consumer</title>
<ellipse fill="#f1f5f9" stroke="#64748b" stroke-width="0.5" cx="759" cy="-42.87" rx="50.37" ry="18"/>
<text xml:space="preserve" text-anchor="middle" x="759" y="-39.92" font-family="Microsoft YaHei" font-size="11.00">PC/家电/IoT</text>
</g>
<!-- yageo&#45;&gt;consumer -->
<g id="edge22" class="edge">
<title>yageo&#45;&gt;consumer</title>
<path fill="none" stroke="#94a3b8" stroke-width="0.8" d="M555.38,-313.71C602.91,-250.72 701.67,-119.85 741.64,-66.87"/>
<polygon fill="#94a3b8" stroke="#94a3b8" stroke-width="0.8" points="743.45,-68.54 745.71,-61.48 739.54,-65.59 743.45,-68.54"/>
</g>
<!-- sanhuan -->
<g id="node19" class="node">
<title>sanhuan</title>
<ellipse fill="#fef3c7" stroke="#f59e0b" stroke-width="0.5" cx="305" cy="-349.67" rx="77.07" ry="26.87"/>
<text xml:space="preserve" text-anchor="middle" x="305" y="-354.22" font-family="Microsoft YaHei" font-size="11.00">三环集团(300408)</text>
<text xml:space="preserve" text-anchor="middle" x="305" y="-339.22" font-family="Microsoft YaHei" font-size="11.00">国内技术领先</text>
</g>
<!-- sanhuan&#45;&gt;smartphone -->
<g id="edge24" class="edge">
<title>sanhuan&#45;&gt;smartphone</title>
<path fill="none" stroke="#94a3b8" stroke-width="0.8" d="M345.63,-326.61C444.19,-273.1 688,-140.74 688,-140.74 688,-140.74 838,-103.74 838,-103.74 838,-103.74 866.14,-86.19 891.96,-70.09"/>
<polygon fill="#94a3b8" stroke="#94a3b8" stroke-width="0.8" points="893.13,-72.25 897.77,-66.46 890.53,-68.09 893.13,-72.25"/>
</g>
<!-- sanhuan&#45;&gt;consumer -->
<g id="edge23" class="edge">
<title>sanhuan&#45;&gt;consumer</title>
<path fill="none" stroke="#94a3b8" stroke-width="0.8" d="M335.82,-324.83C369.88,-298.47 420,-259.69 420,-259.69 420,-259.69 645.23,-116.3 728.52,-63.28"/>
<polygon fill="#94a3b8" stroke="#94a3b8" stroke-width="0.8" points="729.82,-65.35 734.41,-59.53 727.19,-61.22 729.82,-65.35"/>
</g>
<!-- fenghua -->
<g id="node20" class="node">
<title>fenghua</title>
<ellipse fill="#fef3c7" stroke="#f59e0b" stroke-width="0.5" cx="93" cy="-349.67" rx="77.07" ry="26.87"/>
<text xml:space="preserve" text-anchor="middle" x="93" y="-354.22" font-family="Microsoft YaHei" font-size="11.00">风华高科(000636)</text>
<text xml:space="preserve" text-anchor="middle" x="93" y="-339.22" font-family="Microsoft YaHei" font-size="11.00">国内产能最大</text>
</g>
<!-- fenghua&#45;&gt;smartphone -->
<g id="edge26" class="edge">
<title>fenghua&#45;&gt;smartphone</title>
<path fill="none" stroke="#94a3b8" stroke-width="0.8" d="M139.58,-328.17C220.15,-292.72 377,-223.69 377,-223.69 377,-223.69 527,-140.74 527,-140.74 527,-140.74 838,-103.74 838,-103.74 838,-103.74 866.14,-86.19 891.96,-70.09"/>
<polygon fill="#94a3b8" stroke="#94a3b8" stroke-width="0.8" points="893.13,-72.25 897.77,-66.46 890.53,-68.09 893.13,-72.25"/>
</g>
<!-- fenghua&#45;&gt;consumer -->
<g id="edge25" class="edge">
<title>fenghua&#45;&gt;consumer</title>
<path fill="none" stroke="#94a3b8" stroke-width="0.8" d="M120.87,-324.59C151.38,-298.24 196,-259.69 196,-259.69 196,-259.69 463,-140.74 463,-140.74 463,-140.74 632.97,-85.11 715.31,-58.17"/>
<polygon fill="#94a3b8" stroke="#94a3b8" stroke-width="0.8" points="715.96,-60.53 721.85,-56.03 714.43,-55.88 715.96,-60.53"/>
</g>
<!-- hongyuan -->
<g id="node21" class="node">
<title>hongyuan</title>
<ellipse fill="#fef3c7" stroke="#f59e0b" stroke-width="0.5" cx="1404" cy="-349.67" rx="77.07" ry="26.87"/>
<text xml:space="preserve" text-anchor="middle" x="1404" y="-354.22" font-family="Microsoft YaHei" font-size="11.00">鸿远电子(603267)</text>
<text xml:space="preserve" text-anchor="middle" x="1404" y="-339.22" font-family="Microsoft YaHei" font-size="11.00">特种/军工</text>
</g>
<!-- industrial -->
<g id="node28" class="node">
<title>industrial</title>
<ellipse fill="#f1f5f9" stroke="#64748b" stroke-width="0.5" cx="1119" cy="-42.87" rx="60.12" ry="18"/>
<text xml:space="preserve" text-anchor="middle" x="1119" y="-39.92" font-family="Microsoft YaHei" font-size="11.00">工业/医疗/基站</text>
</g>
<!-- hongyuan&#45;&gt;industrial -->
<g id="edge27" class="edge">
<title>hongyuan&#45;&gt;industrial</title>
<path fill="none" stroke="#94a3b8" stroke-width="0.8" d="M1380.92,-323.99C1326.58,-265.87 1191.28,-121.17 1139.55,-65.85"/>
<polygon fill="#94a3b8" stroke="#94a3b8" stroke-width="0.8" points="1141.64,-64.49 1135.07,-61.05 1138.06,-67.84 1141.64,-64.49"/>
</g>
<!-- huoju -->
<g id="node22" class="node">
<title>huoju</title>
<ellipse fill="#fef3c7" stroke="#f59e0b" stroke-width="0.5" cx="1192" cy="-349.67" rx="77.07" ry="26.87"/>
<text xml:space="preserve" text-anchor="middle" x="1192" y="-354.22" font-family="Microsoft YaHei" font-size="11.00">火炬电子(603678)</text>
<text xml:space="preserve" text-anchor="middle" x="1192" y="-339.22" font-family="Microsoft YaHei" font-size="11.00">特种/军工</text>
</g>
<!-- huoju&#45;&gt;industrial -->
<g id="edge28" class="edge">
<title>huoju&#45;&gt;industrial</title>
<path fill="none" stroke="#94a3b8" stroke-width="0.8" d="M1185.78,-322.68C1171.91,-264.78 1138.62,-125.78 1124.98,-68.84"/>
<polygon fill="#94a3b8" stroke="#94a3b8" stroke-width="0.8" points="1127.41,-68.47 1123.4,-62.23 1122.65,-69.61 1127.41,-68.47"/>
</g>
<!-- guoci -->
<g id="node23" class="node">
<title>guoci</title>
<ellipse fill="#fde68a" stroke="#d97706" stroke-width="0.5" cx="1812" cy="-349.67" rx="83.44" ry="26.87"/>
<text xml:space="preserve" text-anchor="middle" x="1812" y="-354.22" font-family="Microsoft YaHei" font-size="11.00">国瓷材料(300285)</text>
<text xml:space="preserve" text-anchor="middle" x="1812" y="-339.22" font-family="Microsoft YaHei" font-size="11.00">MLCC陶瓷粉/配方粉</text>
</g>
<!-- guoci&#45;&gt;batio3 -->
<g id="edge8" class="edge">
<title>guoci&#45;&gt;batio3</title>
<path fill="none" stroke="#d97706" stroke-width="0.8" stroke-dasharray="5,2" d="M1775.02,-373.94C1742.39,-394.47 1700,-421.15 1700,-421.15 1700,-421.15 1502,-473.65 1502,-473.65 1502,-473.65 1479.07,-481.04 1454.65,-488.92"/>
<polygon fill="#d97706" stroke="#d97706" stroke-width="0.8" points="1454.1,-486.52 1448.19,-491 1455.61,-491.19 1454.1,-486.52"/>
<text xml:space="preserve" text-anchor="middle" x="1729.06" y="-432.35" font-family="Times New Roman,serif" font-size="14.00"> 陶瓷粉国产替代</text>
</g>
<!-- jiemei -->
<g id="node24" class="node">
<title>jiemei</title>
<ellipse fill="#fde68a" stroke="#d97706" stroke-width="0.5" cx="2031" cy="-349.67" rx="77.07" ry="26.87"/>
<text xml:space="preserve" text-anchor="middle" x="2031" y="-354.22" font-family="Microsoft YaHei" font-size="11.00">洁美科技(002859)</text>
<text xml:space="preserve" text-anchor="middle" x="2031" y="-339.22" font-family="Microsoft YaHei" font-size="11.00">离型膜/载带</text>
</g>
<!-- jiemei&#45;&gt;murata -->
<g id="edge9" class="edge">
<title>jiemei&#45;&gt;murata</title>
<path fill="none" stroke="#d97706" stroke-width="0.8" stroke-dasharray="5,2" d="M2031.96,-322.73C2032.87,-298.45 2034.23,-261.65 2035.32,-232.52"/>
<polygon fill="#d97706" stroke="#d97706" stroke-width="0.8" points="2037.76,-232.82 2035.57,-225.74 2032.86,-232.64 2037.76,-232.82"/>
<text xml:space="preserve" text-anchor="middle" x="2061.93" y="-262.89" font-family="Times New Roman,serif" font-size="14.00"> 离型膜</text>
</g>
</g>
</svg>
