<?xml version="1.0" encoding="utf-8" standalone="no"?>
<!DOCTYPE svg PUBLIC "-//W3C//DTD SVG 1.1//EN"
  "http://www.w3.org/Graphics/SVG/1.1/DTD/svg11.dtd">
<svg xmlns:xlink="http://www.w3.org/1999/xlink" width="488.4pt" height="236.711875pt" viewBox="0 0 488.4 236.711875" xmlns="http://www.w3.org/2000/svg" version="1.1">
 <metadata>
  <rdf:RDF xmlns:dc="http://purl.org/dc/elements/1.1/" xmlns:cc="http://creativecommons.org/ns#" xmlns:rdf="http://www.w3.org/1999/02/22-rdf-syntax-ns#">
   <cc:Work>
    <dc:type rdf:resource="http://purl.org/dc/dcmitype/StillImage"/>
    <dc:date>2026-06-12T23:34:36.157287</dc:date>
    <dc:format>image/svg+xml</dc:format>
    <dc:creator>
     <cc:Agent>
      <dc:title>Matplotlib v3.10.9, https://matplotlib.org/</dc:title>
     </cc:Agent>
    </dc:creator>
   </cc:Work>
  </rdf:RDF>
 </metadata>
 <defs>
  <style type="text/css">*{stroke-linejoin: round; stroke-linecap: butt}</style>
 </defs>
 <g id="figure_1">
  <g id="patch_1">
   <path d="M 0 236.711875 
L 488.4 236.711875 
L 488.4 0 
L 0 0 
z
" style="fill: #ffffff"/>
  </g>
  <g id="axes_1">
   <g id="line2d_1">
    <defs>
     <path id="m4eec785108" d="M 0 14 
C 3.712843 14 7.274118 12.524872 9.899495 9.899495 
C 12.524872 7.274118 14 3.712843 14 0 
C 14 -3.712843 12.524872 -7.274118 9.899495 -9.899495 
C 7.274118 -12.524872 3.712843 -14 0 -14 
C -3.712843 -14 -7.274118 -12.524872 -9.899495 -9.899495 
C -12.524872 -7.274118 -14 -3.712843 -14 0 
C -14 3.712843 -12.524872 7.274118 -9.899495 9.899495 
C -7.274118 12.524872 -3.712843 14 0 14 
z
" style="stroke: #ffffff; stroke-opacity: 0.8; stroke-width: 2"/>
    </defs>
    <g clip-path="url(#p057a262597)">
     <use xlink:href="#m4eec785108" x="54.6" y="75.071875" style="fill: #1a56db; fill-opacity: 0.8; stroke: #ffffff; stroke-opacity: 0.8; stroke-width: 2"/>
    </g>
   </g>
   <g id="line2d_2">
    <g clip-path="url(#p057a262597)">
     <use xlink:href="#m4eec785108" x="54.6" y="152.291875" style="fill: #1a56db; fill-opacity: 0.8; stroke: #ffffff; stroke-opacity: 0.8; stroke-width: 2"/>
    </g>
   </g>
   <g id="line2d_3">
    <defs>
     <path id="m3a6b0f4946" d="M 0 14 
C 3.712843 14 7.274118 12.524872 9.899495 9.899495 
C 12.524872 7.274118 14 3.712843 14 0 
C 14 -3.712843 12.524872 -7.274118 9.899495 -9.899495 
C 7.274118 -12.524872 3.712843 -14 0 -14 
C -3.712843 -14 -7.274118 -12.524872 -9.899495 -9.899495 
C -12.524872 -7.274118 -14 -3.712843 -14 0 
C -14 3.712843 -12.524872 7.274118 -9.899495 9.899495 
C -7.274118 12.524872 -3.712843 14 0 14 
z
" style="stroke: #ffffff; stroke-opacity: 0.8; stroke-width: 2"/>
    </defs>
    <g clip-path="url(#p057a262597)">
     <use xlink:href="#m3a6b0f4946" x="149.4" y="116.255875" style="fill: #2563eb; fill-opacity: 0.8; stroke: #ffffff; stroke-opacity: 0.8; stroke-width: 2"/>
    </g>
   </g>
   <g id="line2d_4">
    <defs>
     <path id="mfc2c4c68a1" d="M 0 14 
C 3.712843 14 7.274118 12.524872 9.899495 9.899495 
C 12.524872 7.274118 14 3.712843 14 0 
C 14 -3.712843 12.524872 -7.274118 9.899495 -9.899495 
C 7.274118 -12.524872 3.712843 -14 0 -14 
C -3.712843 -14 -7.274118 -12.524872 -9.899495 -9.899495 
C -12.524872 -7.274118 -14 -3.712843 -14 0 
C -14 3.712843 -12.524872 7.274118 -9.899495 9.899495 
C -7.274118 12.524872 -3.712843 14 0 14 
z
" style="stroke: #ffffff; stroke-opacity: 0.8; stroke-width: 2"/>
    </defs>
    <g clip-path="url(#p057a262597)">
     <use xlink:href="#mfc2c4c68a1" x="244.2" y="75.071875" style="fill: #0f766e; fill-opacity: 0.8; stroke: #ffffff; stroke-opacity: 0.8; stroke-width: 2"/>
    </g>
   </g>
   <g id="line2d_5">
    <g clip-path="url(#p057a262597)">
     <use xlink:href="#mfc2c4c68a1" x="244.2" y="152.291875" style="fill: #0f766e; fill-opacity: 0.8; stroke: #ffffff; stroke-opacity: 0.8; stroke-width: 2"/>
    </g>
   </g>
   <g id="line2d_6">
    <defs>
     <path id="md4728555c0" d="M 0 14 
C 3.712843 14 7.274118 12.524872 9.899495 9.899495 
C 12.524872 7.274118 14 3.712843 14 0 
C 14 -3.712843 12.524872 -7.274118 9.899495 -9.899495 
C 7.274118 -12.524872 3.712843 -14 0 -14 
C -3.712843 -14 -7.274118 -12.524872 -9.899495 -9.899495 
C -12.524872 -7.274118 -14 -3.712843 -14 0 
C -14 3.712843 -12.524872 7.274118 -9.899495 9.899495 
C -7.274118 12.524872 -3.712843 14 0 14 
z
" style="stroke: #ffffff; stroke-opacity: 0.8; stroke-width: 2"/>
    </defs>
    <g clip-path="url(#p057a262597)">
     <use xlink:href="#md4728555c0" x="339" y="116.255875" style="fill: #d4a017; fill-opacity: 0.8; stroke: #ffffff; stroke-opacity: 0.8; stroke-width: 2"/>
    </g>
   </g>
   <g id="line2d_7">
    <defs>
     <path id="m5e284bd156" d="M 0 14 
C 3.712843 14 7.274118 12.524872 9.899495 9.899495 
C 12.524872 7.274118 14 3.712843 14 0 
C 14 -3.712843 12.524872 -7.274118 9.899495 -9.899495 
C 7.274118 -12.524872 3.712843 -14 0 -14 
C -3.712843 -14 -7.274118 -12.524872 -9.899495 -9.899495 
C -12.524872 -7.274118 -14 -3.712843 -14 0 
C -14 3.712843 -12.524872 7.274118 -9.899495 9.899495 
C -7.274118 12.524872 -3.712843 14 0 14 
z
" style="stroke: #ffffff; stroke-opacity: 0.8; stroke-width: 2"/>
    </defs>
    <g clip-path="url(#p057a262597)">
     <use xlink:href="#m5e284bd156" x="433.8" y="116.255875" style="fill: #dc2626; fill-opacity: 0.8; stroke: #ffffff; stroke-opacity: 0.8; stroke-width: 2"/>
    </g>
   </g>
   <g id="text_1">
    <!-- 陶瓷粉末 -->
    <g style="fill: #ffffff" transform="translate(42.6 73.100688) scale(0.06 -0.06)">
     <defs>
      <path id="MicrosoftYaHei-Bold-9676" d="M 6119 4791 
L 6091 1963 
Q 6075 641 6042 275 
Q 6009 -91 5848 -339 
Q 5688 -588 5402 -689 
Q 5116 -791 3838 -791 
Q 3769 -447 3644 -34 
Q 4094 -66 4775 -66 
Q 5172 -66 5255 261 
Q 5338 588 5338 4066 
L 3038 4066 
Q 2794 3644 2475 3203 
Q 2216 3413 1994 3556 
L 1850 2891 
Q 2269 2066 2269 1228 
Q 2269 191 1438 191 
L 1188 191 
Q 1138 597 1069 916 
L 1069 -822 
L 331 -822 
L 331 5053 
L 2194 5053 
L 2194 4491 
L 2050 3822 
Q 2653 4678 2906 5353 
L 3581 5178 
Q 3509 4988 3419 4791 
L 6119 4791 
z
M 1150 2816 
L 1444 4297 
L 1069 4297 
L 1069 941 
Q 1219 909 1306 909 
Q 1569 909 1569 1253 
Q 1569 2047 1150 2816 
z
M 2538 1641 
L 3113 1641 
L 3113 884 
L 3431 884 
L 3431 1828 
L 2325 1828 
L 2325 2428 
L 3431 2428 
L 3431 2934 
L 3234 2934 
Q 3109 2719 2975 2528 
Q 2738 2672 2450 2797 
Q 2788 3228 3119 3916 
L 3675 3847 
Q 3609 3684 3541 3534 
L 4950 3534 
L 4950 2934 
L 4156 2934 
L 4156 2428 
L 5163 2428 
L 5163 1828 
L 4156 1828 
L 4156 884 
L 4475 884 
L 4475 1647 
L 5025 1647 
L 5025 259 
L 2538 259 
L 2538 1641 
z
" transform="scale(0.015625)"/>
      <path id="MicrosoftYaHei-Bold-74f7" d="M 200 2416 
L 6150 2416 
L 6150 1791 
L 1900 1791 
L 1844 1491 
L 5131 1491 
L 5088 209 
Q 5081 -72 5300 -72 
L 5381 -72 
Q 5606 -72 5638 184 
Q 5656 359 5681 828 
Q 5944 716 6325 597 
Q 6263 41 6169 -309 
Q 6025 -778 5388 -778 
L 5094 -778 
Q 4175 -778 4231 147 
L 4269 903 
L 2281 903 
Q 3206 741 3913 572 
L 3731 78 
Q 3863 84 4000 97 
Q 3938 -184 3919 -541 
Q 2925 -591 1538 -697 
Q 1063 -734 756 -828 
L 475 -191 
Q 744 -53 813 372 
L 1063 1791 
L 200 1791 
L 200 2416 
z
M 6138 4934 
L 6138 4372 
L 5719 3653 
L 5063 3884 
L 5263 4284 
L 4350 4284 
Q 4325 4166 4294 4059 
Q 4869 3291 6313 3166 
Q 6069 2734 5950 2441 
Q 4519 2622 3969 3409 
Q 3369 2566 2019 2441 
Q 1881 2678 1613 3097 
Q 3319 3291 3531 4284 
L 2850 4284 
Q 2619 3916 2363 3622 
Q 2094 3803 1663 4034 
Q 2250 4616 2531 5347 
L 3388 5291 
Q 3300 5103 3219 4934 
L 6138 4934 
z
M 469 2466 
L 100 3272 
Q 1056 3753 1525 4059 
Q 1756 3578 1881 3316 
Q 1106 2872 469 2466 
z
M 225 4722 
L 738 5328 
Q 1419 4903 1731 4672 
L 1175 4009 
Q 744 4378 225 4722 
z
M 2006 397 
L 2200 903 
L 1738 903 
L 1563 -16 
Q 2531 9 3494 66 
Q 2806 234 2006 397 
z
" transform="scale(0.015625)"/>
      <path id="MicrosoftYaHei-Bold-7c89" d="M 5188 5322 
Q 5594 3897 6313 3234 
Q 6113 2828 5913 2259 
Q 5816 2344 5722 2438 
L 5647 228 
Q 5631 -188 5475 -402 
Q 5319 -616 5112 -662 
Q 4906 -709 3988 -709 
Q 3894 -203 3788 184 
Q 4403 153 4434 153 
Q 4703 153 4773 379 
Q 4844 606 4856 2103 
L 4138 2103 
Q 4119 1753 4087 1343 
Q 4056 934 3898 526 
Q 3741 119 3467 -228 
Q 3194 -575 2806 -859 
Q 2469 -509 2094 -147 
Q 2500 91 2900 584 
Q 3300 1078 3309 2103 
L 2994 2103 
L 2994 2441 
Q 2919 2347 2844 2259 
Q 2675 2734 2444 3203 
Q 3150 4122 3456 5259 
L 4263 5059 
Q 3906 3803 3306 2878 
L 5350 2878 
Q 4738 3728 4406 5103 
L 5188 5322 
z
M 113 3109 
L 975 3109 
L 975 3581 
L 400 3378 
Q 244 4078 81 4691 
L 600 4872 
Q 813 4253 975 3609 
L 975 5297 
L 1788 5297 
L 1788 3644 
Q 2038 4259 2256 4941 
L 2831 4728 
Q 2575 4072 2313 3441 
L 1788 3631 
L 1788 3109 
L 2463 3109 
L 2463 2366 
L 1788 2366 
L 1788 1756 
L 2175 2041 
L 2906 1222 
Q 2606 997 2300 741 
Q 2119 1009 1788 1416 
L 1788 -828 
L 975 -828 
L 975 1019 
Q 716 422 369 -103 
Q 256 284 75 834 
Q 588 1594 891 2366 
L 113 2366 
L 113 3109 
z
" transform="scale(0.015625)"/>
      <path id="MicrosoftYaHei-Bold-672b" d="M 550 2797 
L 2750 2797 
L 2750 3647 
L 225 3647 
L 225 4459 
L 2750 4459 
L 2750 5316 
L 3625 5316 
L 3625 4459 
L 6175 4459 
L 6175 3647 
L 3625 3647 
L 3625 2797 
L 5875 2797 
L 5875 1984 
L 3931 1984 
Q 4838 934 6313 384 
Q 5913 -91 5681 -441 
Q 4475 200 3625 1319 
L 3625 -809 
L 2750 -809 
L 2750 1341 
Q 1988 325 706 -484 
Q 381 -47 94 284 
Q 1503 981 2375 1984 
L 550 1984 
L 550 2797 
z
" transform="scale(0.015625)"/>
     </defs>
     <use xlink:href="#MicrosoftYaHei-Bold-9676"/>
     <use xlink:href="#MicrosoftYaHei-Bold-74f7" transform="translate(100 0)"/>
     <use xlink:href="#MicrosoftYaHei-Bold-7c89" transform="translate(200 0)"/>
     <use xlink:href="#MicrosoftYaHei-Bold-672b" transform="translate(300 0)"/>
    </g>
    <!-- (钛酸钡) -->
    <g style="fill: #ffffff" transform="translate(43.261875 80.34775) scale(0.06 -0.06)">
     <defs>
      <path id="MicrosoftYaHei-Bold-28" d="M 1606 -1100 
Q 525 97 525 1853 
Q 525 3550 1606 4841 
L 2431 4841 
Q 1406 3497 1406 1853 
Q 1406 216 2438 -1100 
L 1606 -1100 
z
" transform="scale(0.015625)"/>
      <path id="MicrosoftYaHei-Bold-949b" d="M 2625 3928 
L 3794 3928 
Q 3825 4622 3831 5303 
L 4644 5303 
Q 4644 4516 4625 3928 
L 6200 3928 
L 6200 3166 
L 4781 3166 
Q 5213 1022 6338 -16 
Q 6063 -403 5781 -809 
Q 4788 241 4350 2266 
Q 4219 1541 3938 897 
Q 4388 334 4750 -191 
L 4069 -684 
Q 3850 -234 3581 203 
Q 3238 -359 2769 -853 
Q 2588 -628 2125 -166 
Q 3500 1097 3744 3166 
L 2625 3166 
L 2625 3928 
z
M 2488 3866 
L 1125 3866 
Q 1019 3634 900 3409 
L 2313 3409 
L 2313 2703 
L 1688 2703 
L 1688 2072 
L 2538 2072 
L 2538 1366 
L 1688 1366 
L 1688 634 
Q 1994 866 2306 1097 
Q 2363 722 2463 259 
Q 1738 -272 1113 -828 
L 638 -234 
Q 863 -3 863 334 
L 863 1366 
L 106 1366 
L 106 2072 
L 863 2072 
L 863 2703 
L 469 2703 
Q 400 2603 331 2509 
Q 213 3059 81 3478 
Q 544 4234 819 5359 
L 1600 5209 
Q 1513 4878 1400 4566 
L 2488 4566 
L 2488 3866 
z
" transform="scale(0.015625)"/>
      <path id="MicrosoftYaHei-Bold-9178" d="M 5938 2147 
L 5938 1528 
Q 5638 872 5169 353 
Q 5663 84 6369 -41 
Q 6213 -428 6069 -828 
Q 5225 -578 4644 -128 
Q 4056 -584 3250 -878 
Q 3138 -522 2988 -159 
Q 3656 34 4144 334 
Q 3894 628 3700 991 
Q 3525 791 3338 584 
Q 3150 822 2938 1041 
L 2938 -834 
L 2350 -834 
L 2350 -403 
L 894 -403 
L 894 -859 
L 306 -859 
L 306 3734 
L 1019 3734 
L 1019 4278 
L 188 4278 
L 188 4991 
L 3100 4991 
L 3100 4278 
L 2225 4278 
L 2225 3734 
L 2938 3734 
L 2938 2534 
Q 3456 2878 3969 3366 
L 4425 2941 
Q 3850 2428 3256 1972 
Q 3088 2209 2938 2391 
L 2938 1066 
Q 3725 1909 3969 2491 
L 4731 2491 
Q 4644 2316 4538 2147 
L 5938 2147 
z
M 5394 4853 
Q 5938 4328 6375 3803 
Q 6163 3528 5963 3234 
Q 5844 3366 5731 3503 
Q 3731 3397 3313 3291 
L 3038 4028 
Q 3231 4122 3375 4266 
Q 3681 4572 4156 5334 
L 4956 5078 
Q 4456 4491 3963 3997 
Q 4538 4028 5244 4072 
Q 5075 4272 4906 4472 
L 5394 4853 
z
M 1200 1384 
Q 1038 1541 894 1678 
L 894 1253 
L 2350 1253 
L 2350 1622 
L 2238 1622 
Q 1750 1622 1750 2178 
L 1750 3078 
L 1500 3078 
Q 1481 1934 1200 1384 
z
M 5213 3397 
Q 5775 3053 6344 2634 
L 5994 2122 
Q 5450 2547 4838 2953 
L 5213 3397 
z
M 894 247 
L 2350 247 
L 2350 634 
L 894 634 
L 894 247 
z
M 4088 1478 
Q 4331 1022 4650 722 
Q 5013 1072 5188 1522 
L 4119 1522 
Q 4100 1497 4088 1478 
z
M 2419 2141 
L 2456 2141 
L 2456 3078 
L 2225 3078 
L 2225 2378 
Q 2225 2141 2419 2141 
z
M 800 1922 
Q 1013 2291 1013 3078 
L 800 3078 
L 800 1922 
z
M 1506 3734 
L 1750 3734 
L 1750 4278 
L 1506 4278 
L 1506 3734 
z
" transform="scale(0.015625)"/>
      <path id="MicrosoftYaHei-Bold-94a1" d="M 2538 5053 
L 6019 5053 
L 6019 1084 
L 5175 1084 
L 5175 4266 
L 3381 4266 
L 3381 1084 
L 2538 1084 
L 2538 5053 
z
M 2300 3866 
L 1163 3866 
Q 1063 3628 956 3409 
L 2175 3409 
L 2175 2703 
L 1588 2703 
L 1588 2072 
L 2275 2072 
L 2275 1366 
L 1588 1366 
L 1588 616 
Q 1944 803 2288 1016 
Q 2319 553 2350 178 
Q 1781 -153 1306 -478 
Q 1094 -634 1025 -709 
L 581 -91 
Q 775 134 775 478 
L 775 1366 
L 100 1366 
L 100 2072 
L 775 2072 
L 775 2703 
L 575 2703 
Q 450 2491 313 2303 
Q 188 2909 81 3303 
Q 588 4247 831 5341 
L 1619 5178 
Q 1525 4859 1425 4566 
L 2300 4566 
L 2300 3866 
z
M 3856 3878 
L 4700 3878 
Q 4700 3478 4681 2528 
Q 4681 1616 4525 1059 
Q 5519 416 6338 -184 
L 5806 -872 
Q 5225 -391 4194 359 
Q 3700 -359 2538 -884 
Q 2350 -628 1950 -122 
Q 3175 322 3556 959 
Q 3844 1378 3850 2641 
Q 3869 3278 3856 3878 
z
" transform="scale(0.015625)"/>
      <path id="MicrosoftYaHei-Bold-29" d="M 59 -1100 
Q 1097 216 1097 1853 
Q 1097 3484 59 4841 
L 888 4841 
Q 1978 3544 1978 1853 
Q 1978 113 881 -1100 
L 59 -1100 
z
" transform="scale(0.015625)"/>
     </defs>
     <use xlink:href="#MicrosoftYaHei-Bold-28"/>
     <use xlink:href="#MicrosoftYaHei-Bold-949b" transform="translate(38.964844 0)"/>
     <use xlink:href="#MicrosoftYaHei-Bold-9178" transform="translate(138.964844 0)"/>
     <use xlink:href="#MicrosoftYaHei-Bold-94a1" transform="translate(238.964844 0)"/>
     <use xlink:href="#MicrosoftYaHei-Bold-29" transform="translate(338.964844 0)"/>
    </g>
   </g>
   <g id="text_2">
    <!-- 电极材料 -->
    <g style="fill: #ffffff" transform="translate(42.6 150.320688) scale(0.06 -0.06)">
     <defs>
      <path id="MicrosoftYaHei-Bold-7535" d="M 5563 4522 
L 5563 1125 
Q 5866 997 6300 878 
Q 6131 -222 5828 -447 
Q 5525 -672 5025 -672 
L 3525 -672 
Q 2506 -672 2506 253 
L 2506 878 
L 1281 878 
L 1281 391 
L 381 391 
L 381 4522 
L 2506 4522 
L 2506 5291 
L 3413 5291 
L 3413 4522 
L 5563 4522 
z
M 4663 3734 
L 3413 3734 
L 3413 3097 
L 4663 3097 
L 4663 3734 
z
M 1281 3734 
L 1281 3097 
L 2506 3097 
L 2506 3734 
L 1281 3734 
z
M 4663 1666 
L 4663 2309 
L 3413 2309 
L 3413 1666 
L 4663 1666 
z
M 1281 1666 
L 2506 1666 
L 2506 2309 
L 1281 2309 
L 1281 1666 
z
M 3794 103 
L 4731 103 
Q 4963 103 5097 183 
Q 5231 263 5270 402 
Q 5309 541 5366 878 
L 3413 878 
L 3413 434 
Q 3413 103 3794 103 
z
" transform="scale(0.015625)"/>
      <path id="MicrosoftYaHei-Bold-6781" d="M 75 1703 
Q 569 2522 809 3391 
L 119 3391 
L 119 4203 
L 875 4203 
L 875 5303 
L 1669 5303 
L 1669 4203 
L 2313 4203 
L 2313 3391 
L 1669 3391 
L 1669 2819 
Q 2125 2534 2469 2284 
L 2106 1534 
Q 1941 1681 1669 1894 
L 1669 -841 
L 875 -841 
L 875 1759 
Q 631 1150 275 559 
Q 213 991 75 1703 
z
M 6075 3284 
L 6075 2541 
Q 5859 1506 5225 678 
Q 5719 228 6319 -3 
Q 5963 -466 5756 -791 
Q 5153 -409 4675 72 
Q 4122 -450 3363 -872 
Q 3106 -453 2844 -103 
Q 3597 269 4116 731 
Q 3663 1356 3375 2113 
Q 3169 213 2263 -847 
Q 1969 -428 1681 -116 
Q 2056 278 2293 889 
Q 2531 1500 2622 2248 
Q 2713 2997 2719 4222 
L 2281 4222 
L 2281 4991 
L 5688 4991 
L 5688 4272 
L 5206 3284 
L 6075 3284 
z
M 3538 3703 
Q 3966 2238 4650 1316 
Q 5059 1869 5194 2528 
L 4288 2528 
L 4288 3284 
L 4725 4222 
L 3544 4222 
L 3538 3703 
z
" transform="scale(0.015625)"/>
      <path id="MicrosoftYaHei-Bold-6750" d="M 75 1509 
Q 656 2359 1038 3378 
L 188 3378 
L 188 4209 
L 1088 4209 
L 1088 5328 
L 1900 5328 
L 1900 4209 
L 2713 4209 
L 2713 3378 
L 1900 3378 
L 1900 2847 
Q 2466 2544 2981 2234 
L 2544 1472 
Q 2219 1716 1900 1944 
L 1900 -809 
L 1088 -809 
L 1088 1744 
Q 772 1006 369 403 
L 75 1509 
z
M 2963 4234 
L 4756 4234 
L 4756 5297 
L 5631 5297 
L 5631 4234 
L 6300 4234 
L 6300 3409 
L 5631 3409 
L 5631 272 
Q 5631 -222 5403 -476 
Q 5175 -731 4779 -751 
Q 4384 -772 3569 -772 
Q 3488 -322 3363 116 
Q 3788 91 4275 91 
Q 4756 91 4756 553 
L 4756 2606 
Q 3950 1006 2763 -28 
Q 2456 391 2144 716 
Q 3484 1728 4306 3409 
L 2963 3409 
L 2963 4234 
z
" transform="scale(0.015625)"/>
      <path id="MicrosoftYaHei-Bold-6599" d="M 113 3047 
L 1125 3047 
L 1125 5284 
L 1938 5284 
L 1938 3047 
L 2913 3047 
L 2913 2303 
L 1938 2303 
L 1938 1709 
L 2194 1941 
Q 2469 1697 2894 1297 
L 2875 1409 
L 4694 1578 
L 4694 3997 
Q 4369 3691 4169 3478 
Q 3744 3928 3225 4347 
L 3750 4878 
Q 4206 4534 4694 4103 
L 4694 5297 
L 5575 5297 
L 5575 1659 
L 6269 1728 
L 6331 947 
L 5575 872 
L 5575 -847 
L 4694 -847 
L 4694 791 
L 2981 628 
L 2919 1109 
Q 2650 859 2450 659 
Q 2263 884 1938 1209 
L 1938 -841 
L 1125 -841 
L 1125 997 
Q 825 428 388 -116 
Q 275 278 100 822 
Q 663 1516 1038 2303 
L 113 2303 
L 113 3047 
z
M 3513 3259 
Q 4000 2897 4513 2434 
Q 4150 2084 3931 1859 
Q 3506 2309 2988 2728 
L 3513 3259 
z
M 2481 4828 
Q 2569 4797 3113 4603 
Q 2838 3884 2594 3316 
L 2013 3528 
Q 2263 4128 2481 4828 
z
M 619 4834 
Q 813 4309 1019 3553 
L 438 3372 
Q 200 4197 50 4666 
L 619 4834 
z
" transform="scale(0.015625)"/>
     </defs>
     <use xlink:href="#MicrosoftYaHei-Bold-7535"/>
     <use xlink:href="#MicrosoftYaHei-Bold-6781" transform="translate(100 0)"/>
     <use xlink:href="#MicrosoftYaHei-Bold-6750" transform="translate(200 0)"/>
     <use xlink:href="#MicrosoftYaHei-Bold-6599" transform="translate(300 0)"/>
    </g>
    <!-- (镍粉) -->
    <g style="fill: #ffffff" transform="translate(46.261875 157.56775) scale(0.06 -0.06)">
     <defs>
      <path id="MicrosoftYaHei-Bold-954d" d="M 3600 5353 
L 4513 5272 
Q 4441 5056 4350 4822 
L 5944 4822 
L 5944 1728 
L 4600 1728 
L 4600 1397 
L 6200 1397 
L 6200 778 
L 4888 778 
Q 5466 256 6313 16 
Q 6081 -322 5875 -659 
Q 5100 -284 4600 288 
L 4600 -828 
L 3813 -828 
L 3813 369 
Q 3263 -238 2475 -709 
Q 2250 -403 2038 -131 
Q 1169 -678 1013 -859 
L 563 -241 
Q 750 -3 750 334 
L 750 1422 
L 100 1422 
L 100 2128 
L 750 2128 
L 750 2703 
L 550 2703 
Q 434 2522 313 2359 
Q 206 2897 81 3359 
Q 575 4191 831 5341 
L 1619 5178 
Q 1528 4859 1425 4566 
L 2306 4566 
L 2306 3866 
L 1159 3866 
Q 1059 3628 950 3409 
L 2175 3409 
L 2175 2703 
L 1563 2703 
L 1563 2128 
L 2263 2128 
L 2263 1422 
L 1563 1422 
L 1563 447 
Q 1850 616 2119 784 
Q 2131 409 2181 3 
Q 2931 322 3441 778 
L 2269 778 
L 2269 1397 
L 3813 1397 
L 3813 1728 
L 2506 1728 
L 2506 4822 
L 3494 4822 
Q 3566 5134 3600 5353 
z
M 5156 4247 
L 3294 4247 
L 3294 3941 
L 5156 3941 
L 5156 4247 
z
M 3294 3122 
L 5156 3122 
L 5156 3428 
L 3294 3428 
L 3294 3122 
z
M 5156 2303 
L 5156 2609 
L 3294 2609 
L 3294 2303 
L 5156 2303 
z
" transform="scale(0.015625)"/>
     </defs>
     <use xlink:href="#MicrosoftYaHei-Bold-28"/>
     <use xlink:href="#MicrosoftYaHei-Bold-954d" transform="translate(38.964844 0)"/>
     <use xlink:href="#MicrosoftYaHei-Bold-7c89" transform="translate(138.964844 0)"/>
     <use xlink:href="#MicrosoftYaHei-Bold-29" transform="translate(238.964844 0)"/>
    </g>
   </g>
   <g id="text_3">
    <!-- MLCC制造 -->
    <g style="fill: #ffffff" transform="translate(134.811094 114.284688) scale(0.06 -0.06)">
     <defs>
      <path id="MicrosoftYaHei-Bold-4d" d="M 4991 0 
L 4991 2938 
Q 4991 3344 5031 3959 
L 5006 3959 
Q 4913 3494 4856 3338 
L 3663 0 
L 2841 0 
L 1631 3306 
Q 1588 3425 1478 3959 
L 1450 3959 
Q 1491 3350 1491 2738 
L 1491 0 
L 559 0 
L 559 4841 
L 2059 4841 
L 3103 1916 
Q 3234 1553 3281 1234 
L 3303 1234 
Q 3400 1631 3503 1922 
L 4550 4841 
L 6009 4841 
L 6009 0 
L 4991 0 
z
" transform="scale(0.015625)"/>
      <path id="MicrosoftYaHei-Bold-4c" d="M 3400 0 
L 559 0 
L 559 4841 
L 1591 4841 
L 1591 844 
L 3400 844 
L 3400 0 
z
" transform="scale(0.015625)"/>
      <path id="MicrosoftYaHei-Bold-43" d="M 4013 175 
Q 3484 -84 2634 -84 
Q 1541 -84 898 570 
Q 256 1225 256 2316 
Q 256 3463 973 4192 
Q 1691 4922 2825 4922 
Q 3534 4922 4013 4738 
L 4013 3741 
Q 3522 4028 2900 4028 
Q 2191 4028 1766 3575 
Q 1341 3122 1341 2391 
Q 1341 1678 1744 1243 
Q 2147 809 2834 809 
Q 3481 809 4013 1122 
L 4013 175 
z
" transform="scale(0.015625)"/>
      <path id="MicrosoftYaHei-Bold-5236" d="M 1113 -447 
L 363 -447 
L 363 1997 
L 1650 1997 
L 1650 2478 
L 119 2478 
L 119 3191 
L 1650 3191 
L 1650 3747 
L 978 3747 
Q 900 3472 813 3234 
Q 544 3353 163 3491 
Q 419 4241 588 5103 
L 1269 4966 
L 1163 4459 
L 1650 4459 
L 1650 5328 
L 2475 5328 
L 2475 4459 
L 3725 4459 
L 3725 3747 
L 2475 3747 
L 2475 3191 
L 3906 3191 
L 3906 2478 
L 2475 2478 
L 2475 1997 
L 3763 1997 
L 3763 303 
Q 3763 -47 3617 -245 
Q 3472 -444 3155 -455 
Q 2838 -466 2694 -466 
Q 2631 -128 2519 316 
Q 2681 297 2825 297 
Q 3013 297 3013 503 
L 3013 1278 
L 2475 1278 
L 2475 -853 
L 1650 -853 
L 1650 1278 
L 1113 1278 
L 1113 -447 
z
M 5213 5322 
L 6013 5322 
L 6013 159 
Q 6013 -309 5797 -546 
Q 5581 -784 5187 -796 
Q 4794 -809 4281 -809 
Q 4231 -441 4119 72 
Q 4613 41 4888 41 
Q 5213 41 5213 428 
L 5213 5322 
z
M 4094 4834 
L 4856 4834 
L 4856 653 
L 4094 653 
L 4094 4834 
z
" transform="scale(0.015625)"/>
      <path id="MicrosoftYaHei-Bold-9020" d="M 1869 3341 
L 3775 3341 
L 3775 3841 
L 2900 3841 
Q 2794 3578 2688 3353 
Q 2381 3503 1988 3684 
Q 2319 4328 2581 5216 
L 3313 4984 
Q 3238 4753 3163 4541 
L 3775 4541 
L 3775 5316 
L 4606 5316 
L 4606 4541 
L 5963 4541 
L 5963 3841 
L 4606 3841 
L 4606 3341 
L 6194 3341 
L 6194 2641 
L 1869 2641 
L 1869 3341 
z
M 1025 5228 
Q 1494 4616 1869 4078 
L 1138 3584 
Q 763 4234 356 4816 
L 1025 5228 
z
M 6281 103 
L 6031 -703 
Q 3603 -722 2712 -678 
Q 1822 -634 1238 -103 
Q 813 -528 513 -847 
L 138 84 
L 781 634 
L 781 2222 
L 200 2222 
L 200 3016 
L 1600 3016 
L 1600 591 
Q 2088 66 3100 66 
Q 5166 66 6281 103 
z
M 2350 2341 
L 5819 2341 
L 5819 453 
L 2350 453 
L 2350 2341 
z
M 5000 1653 
L 3169 1653 
L 3169 1141 
L 5000 1141 
L 5000 1653 
z
" transform="scale(0.015625)"/>
     </defs>
     <use xlink:href="#MicrosoftYaHei-Bold-4d"/>
     <use xlink:href="#MicrosoftYaHei-Bold-4c" transform="translate(102.832031 0)"/>
     <use xlink:href="#MicrosoftYaHei-Bold-43" transform="translate(154.769531 0)"/>
     <use xlink:href="#MicrosoftYaHei-Bold-43" transform="translate(218.978516 0)"/>
     <use xlink:href="#MicrosoftYaHei-Bold-5236" transform="translate(286.3125 0)"/>
     <use xlink:href="#MicrosoftYaHei-Bold-9020" transform="translate(386.3125 0)"/>
    </g>
    <!-- (村田/三星/国巨) -->
    <g style="fill: #ffffff" transform="translate(126.225938 121.53175) scale(0.06 -0.06)">
     <defs>
      <path id="MicrosoftYaHei-Bold-6751" d="M 2850 4191 
L 4631 4191 
L 4631 5316 
L 5519 5316 
L 5519 4191 
L 6288 4191 
L 6288 3328 
L 5519 3328 
L 5519 303 
Q 5519 -253 5234 -531 
Q 4950 -809 4334 -825 
L 3538 -841 
Q 3463 -409 3363 41 
Q 3800 16 4188 16 
Q 4631 16 4631 472 
L 4631 3328 
L 2850 3328 
L 2850 4191 
z
M 169 4203 
L 1013 4203 
L 1013 5309 
L 1825 5309 
L 1825 4203 
L 2600 4203 
L 2600 3384 
L 1825 3384 
L 1825 2481 
L 2125 2709 
Q 2581 2191 2919 1728 
L 2269 1234 
Q 2056 1572 1825 1897 
L 1825 -834 
L 1013 -834 
L 1013 1728 
Q 725 1091 325 528 
Q 213 1128 88 1678 
Q 653 2450 981 3384 
L 169 3384 
L 169 4203 
z
M 2825 2566 
L 3531 2953 
Q 3981 2272 4375 1547 
L 3613 1128 
Q 3356 1678 2825 2566 
z
" transform="scale(0.015625)"/>
      <path id="MicrosoftYaHei-Bold-7530" d="M 444 -784 
L 444 4966 
L 5956 4966 
L 5956 -778 
L 5056 -778 
L 5056 -359 
L 1344 -359 
L 1344 -784 
L 444 -784 
z
M 5056 4116 
L 3650 4116 
L 3650 2728 
L 5056 2728 
L 5056 4116 
z
M 1344 2728 
L 2750 2728 
L 2750 4116 
L 1344 4116 
L 1344 2728 
z
M 1344 491 
L 2750 491 
L 2750 1878 
L 1344 1878 
L 1344 491 
z
M 3650 491 
L 5056 491 
L 5056 1878 
L 3650 1878 
L 3650 491 
z
" transform="scale(0.015625)"/>
      <path id="MicrosoftYaHei-Bold-2f" d="M 3100 4841 
L 747 -803 
L -156 -803 
L 2188 4841 
L 3100 4841 
z
" transform="scale(0.015625)"/>
      <path id="MicrosoftYaHei-Bold-4e09" d="M 575 4803 
L 5813 4803 
L 5813 3878 
L 575 3878 
L 575 4803 
z
M 856 2691 
L 5531 2691 
L 5531 1791 
L 856 1791 
L 856 2691 
z
M 188 466 
L 6225 466 
L 6225 -459 
L 188 -459 
L 188 466 
z
" transform="scale(0.015625)"/>
      <path id="MicrosoftYaHei-Bold-661f" d="M 213 47 
L 2925 47 
L 2925 441 
L 1088 441 
L 1088 1066 
Q 906 828 713 609 
Q 456 828 88 1072 
Q 713 1781 1066 2522 
L 750 2522 
L 750 5103 
L 5706 5103 
L 5706 2522 
L 3800 2522 
L 3800 2141 
L 5975 2141 
L 5975 1466 
L 3800 1466 
L 3800 1091 
L 5800 1091 
L 5800 441 
L 3800 441 
L 3800 47 
L 6250 47 
L 6250 -628 
L 213 -628 
L 213 47 
z
M 4844 4416 
L 1613 4416 
L 1613 4084 
L 4844 4084 
L 4844 4416 
z
M 4844 3209 
L 4844 3541 
L 1613 3541 
L 1613 3209 
L 4844 3209 
z
M 1900 2378 
Q 1838 2256 1775 2141 
L 2925 2141 
L 2925 2522 
L 1559 2522 
L 1900 2378 
z
M 1103 1091 
L 2925 1091 
L 2925 1466 
L 1369 1466 
Q 1241 1272 1103 1091 
z
" transform="scale(0.015625)"/>
      <path id="MicrosoftYaHei-Bold-56fd" d="M 356 -797 
L 356 5078 
L 6044 5078 
L 6044 -791 
L 5150 -791 
L 5150 -572 
L 1250 -572 
L 1250 -797 
L 356 -797 
z
M 5150 4309 
L 1250 4309 
L 1250 197 
L 5150 197 
L 5150 4309 
z
M 4800 2047 
L 4334 2047 
Q 4594 1822 4856 1566 
L 4525 1266 
L 4950 1266 
L 4950 534 
L 1419 534 
L 1419 1266 
L 2694 1266 
L 2694 2047 
L 1581 2047 
L 1581 2778 
L 2694 2778 
L 2694 3222 
L 1481 3222 
L 1481 3953 
L 4888 3953 
L 4888 3222 
L 3531 3222 
L 3531 2778 
L 4800 2778 
L 4800 2047 
z
M 3706 1734 
L 4069 2047 
L 3531 2047 
L 3531 1266 
L 4144 1266 
Q 3897 1547 3706 1734 
z
" transform="scale(0.015625)"/>
      <path id="MicrosoftYaHei-Bold-5de8" d="M 5588 978 
L 1488 978 
L 1488 278 
L 6188 278 
L 6188 -547 
L 575 -547 
L 575 5003 
L 6125 5003 
L 6125 4178 
L 1488 4178 
L 1488 3466 
L 5588 3466 
L 5588 978 
z
M 4700 1741 
L 4700 2703 
L 1488 2703 
L 1488 1741 
L 4700 1741 
z
" transform="scale(0.015625)"/>
     </defs>
     <use xlink:href="#MicrosoftYaHei-Bold-28"/>
     <use xlink:href="#MicrosoftYaHei-Bold-6751" transform="translate(38.964844 0)"/>
     <use xlink:href="#MicrosoftYaHei-Bold-7530" transform="translate(138.964844 0)"/>
     <use xlink:href="#MicrosoftYaHei-Bold-2f" transform="translate(238.964844 0)"/>
     <use xlink:href="#MicrosoftYaHei-Bold-4e09" transform="translate(286.230469 0)"/>
     <use xlink:href="#MicrosoftYaHei-Bold-661f" transform="translate(386.230469 0)"/>
     <use xlink:href="#MicrosoftYaHei-Bold-2f" transform="translate(486.230469 0)"/>
     <use xlink:href="#MicrosoftYaHei-Bold-56fd" transform="translate(533.496094 0)"/>
     <use xlink:href="#MicrosoftYaHei-Bold-5de8" transform="translate(633.496094 0)"/>
     <use xlink:href="#MicrosoftYaHei-Bold-29" transform="translate(733.496094 0)"/>
    </g>
   </g>
   <g id="text_4">
    <!-- PCB组装 -->
    <g style="fill: #ffffff" transform="translate(232.157813 73.100688) scale(0.06 -0.06)">
     <defs>
      <path id="MicrosoftYaHei-Bold-50" d="M 1591 1688 
L 1591 0 
L 559 0 
L 559 4841 
L 2225 4841 
Q 4031 4841 4031 3309 
Q 4031 2566 3486 2117 
Q 2941 1669 2122 1688 
L 1591 1688 
z
M 1591 4041 
L 1591 2478 
L 2038 2478 
Q 2947 2478 2947 3269 
Q 2947 4041 2047 4041 
L 1591 4041 
z
" transform="scale(0.015625)"/>
      <path id="MicrosoftYaHei-Bold-42" d="M 559 0 
L 559 4841 
L 2278 4841 
Q 3069 4841 3497 4541 
Q 3925 4241 3925 3709 
Q 3925 3316 3659 3019 
Q 3394 2722 2991 2609 
L 2991 2597 
Q 3497 2534 3808 2221 
Q 4119 1909 4119 1438 
Q 4119 778 3650 389 
Q 3181 0 2369 0 
L 559 0 
z
M 1591 4072 
L 1591 2875 
L 2081 2875 
Q 2434 2875 2637 3044 
Q 2841 3213 2841 3516 
Q 2841 4072 2028 4072 
L 1591 4072 
z
M 1591 2097 
L 1591 769 
L 2203 769 
Q 2594 769 2814 950 
Q 3034 1131 3034 1453 
Q 3034 1759 2815 1928 
Q 2597 2097 2194 2097 
L 1591 2097 
z
" transform="scale(0.015625)"/>
      <path id="MicrosoftYaHei-Bold-7ec4" d="M 244 -559 
L 94 272 
Q 1200 397 2388 566 
Q 2375 384 2369 203 
L 2694 203 
L 2694 3769 
Q 2003 2625 1363 1728 
L 2463 1859 
Q 2406 1409 2394 1109 
Q 788 941 488 834 
L 181 1584 
Q 500 1766 1144 2734 
Q 538 2703 325 2634 
L 75 3366 
Q 413 3578 1231 5366 
L 2025 5059 
Q 1513 4153 1038 3409 
L 1584 3438 
Q 1791 3788 1994 4172 
L 2694 3838 
L 2694 5059 
L 5913 5059 
L 5913 203 
L 6306 203 
L 6306 -603 
L 2256 -603 
L 2256 -263 
L 244 -559 
z
M 5038 4253 
L 3569 4253 
L 3569 3434 
L 5038 3434 
L 5038 4253 
z
M 3569 1828 
L 5038 1828 
L 5038 2647 
L 3569 2647 
L 3569 1828 
z
M 3569 203 
L 5038 203 
L 5038 1041 
L 3569 1041 
L 3569 203 
z
" transform="scale(0.015625)"/>
      <path id="MicrosoftYaHei-Bold-88c5" d="M 350 2541 
L 88 3366 
Q 944 3666 1681 3975 
L 1681 5328 
L 2488 5328 
L 2488 2566 
L 1681 2566 
L 1681 3106 
Q 1025 2844 350 2541 
z
M 2806 3441 
L 4000 3441 
L 4000 3966 
L 2644 3966 
L 2644 4659 
L 4000 4659 
L 4000 5316 
L 4831 5316 
L 4831 4659 
L 6181 4659 
L 6181 3966 
L 4831 3966 
L 4831 3441 
L 6038 3441 
L 6038 2747 
L 2806 2747 
L 2806 3441 
z
M 806 5184 
Q 1094 4934 1613 4434 
L 1013 3909 
Q 550 4428 250 4722 
L 806 5184 
z
M 5863 916 
Q 5459 741 4903 525 
Q 5475 256 6306 97 
Q 5944 -391 5731 -728 
Q 4475 -316 3784 331 
Q 3734 -116 3731 -384 
Q 2194 -641 1800 -859 
L 1406 -166 
Q 1650 9 1663 222 
L 1663 334 
Q 1134 47 488 -222 
Q 319 172 88 572 
Q 1431 975 2309 1578 
L 131 1578 
L 131 2272 
L 2816 2272 
Q 2769 2409 2725 2528 
L 3594 2641 
L 3709 2272 
L 6263 2272 
L 6263 1578 
L 5434 1578 
L 5863 916 
z
M 4216 969 
Q 4934 1303 5378 1578 
L 3691 1578 
Q 3931 1222 4216 969 
z
M 3034 1291 
Q 2784 1056 2469 831 
L 2469 203 
Q 2813 266 3650 466 
Q 3297 828 3034 1291 
z
" transform="scale(0.015625)"/>
     </defs>
     <use xlink:href="#MicrosoftYaHei-Bold-50"/>
     <use xlink:href="#MicrosoftYaHei-Bold-43" transform="translate(65.722656 0)"/>
     <use xlink:href="#MicrosoftYaHei-Bold-42" transform="translate(133.056641 0)"/>
     <use xlink:href="#MicrosoftYaHei-Bold-7ec4" transform="translate(201.416016 0)"/>
     <use xlink:href="#MicrosoftYaHei-Bold-88c5" transform="translate(301.416016 0)"/>
    </g>
    <!-- (富士康/伟创力) -->
    <g style="fill: #ffffff" transform="translate(222.443906 80.34775) scale(0.06 -0.06)">
     <defs>
      <path id="MicrosoftYaHei-Bold-5bcc" d="M 2563 5266 
L 3619 5353 
Q 3691 5159 3781 4872 
L 6125 4872 
L 6125 3428 
L 5288 3428 
L 5288 4253 
L 1138 4253 
L 1138 3428 
L 300 3428 
L 300 4872 
L 2725 4872 
Q 2638 5097 2563 5266 
z
M 5138 3459 
L 1281 3459 
L 1281 3991 
L 5138 3991 
L 5138 3459 
z
M 1075 3197 
L 5325 3197 
L 5325 1853 
L 1075 1853 
L 1075 3197 
z
M 4475 2666 
L 1925 2666 
L 1925 2384 
L 4475 2384 
L 4475 2666 
z
M 569 1584 
L 5831 1584 
L 5831 -872 
L 5000 -872 
L 5000 -622 
L 1406 -622 
L 1406 -872 
L 569 -872 
L 569 1584 
z
M 5000 1053 
L 3619 1053 
L 3619 741 
L 5000 741 
L 5000 1053 
z
M 1406 741 
L 2781 741 
L 2781 1053 
L 1406 1053 
L 1406 741 
z
M 3619 -91 
L 5000 -91 
L 5000 222 
L 3619 222 
L 3619 -91 
z
M 1406 -91 
L 2781 -91 
L 2781 222 
L 1406 222 
L 1406 -91 
z
" transform="scale(0.015625)"/>
      <path id="MicrosoftYaHei-Bold-58eb" d="M 500 384 
L 2700 384 
L 2700 2653 
L 163 2653 
L 163 3541 
L 2700 3541 
L 2700 5316 
L 3688 5316 
L 3688 3541 
L 6244 3541 
L 6244 2653 
L 3688 2653 
L 3688 384 
L 5925 384 
L 5925 -491 
L 500 -491 
L 500 384 
z
" transform="scale(0.015625)"/>
      <path id="MicrosoftYaHei-Bold-5eb7" d="M 6094 1066 
Q 5663 828 5206 597 
Q 5706 353 6319 216 
Q 6088 -128 5825 -597 
Q 4794 -184 4075 491 
L 4075 9 
Q 4075 -822 3363 -866 
Q 2956 -891 2563 -891 
Q 2488 -441 2406 -109 
Q 2663 -141 2975 -147 
Q 3275 -134 3275 209 
L 3275 347 
Q 2388 -59 1513 -484 
L 1213 184 
Q 1056 -447 794 -878 
Q 400 -503 88 -284 
Q 638 691 613 2591 
L 613 4866 
L 2925 4866 
Q 2844 5034 2725 5253 
L 3831 5353 
Q 3906 5172 4038 4866 
L 6225 4866 
L 6225 4191 
L 4075 4191 
L 4075 3847 
L 5763 3847 
L 5763 3003 
L 6275 3003 
L 6275 2378 
L 5763 2378 
L 5763 1534 
L 5713 1534 
L 6094 1066 
z
M 1763 3847 
L 3275 3847 
L 3275 4191 
L 1438 4191 
L 1438 3003 
L 3275 3003 
L 3275 3309 
L 1763 3309 
L 1763 3847 
z
M 1669 2072 
L 3275 2072 
L 3275 2378 
L 1438 2378 
Q 1438 1128 1231 253 
Q 1781 447 2306 653 
Q 1944 916 1594 1134 
L 1906 1534 
L 1669 1534 
L 1669 2072 
z
M 4544 997 
Q 5013 1253 5425 1534 
L 4075 1534 
L 4075 1409 
Q 4288 1184 4544 997 
z
M 3275 1053 
L 3275 1534 
L 2188 1534 
Q 2550 1334 2950 1078 
L 2744 828 
Q 3013 941 3275 1053 
z
M 4988 3309 
L 4075 3309 
L 4075 3003 
L 4988 3003 
L 4988 3309 
z
M 4988 2072 
L 4988 2378 
L 4075 2378 
L 4075 2072 
L 4988 2072 
z
" transform="scale(0.015625)"/>
      <path id="MicrosoftYaHei-Bold-4f1f" d="M 1238 5334 
L 2044 5109 
Q 1844 4447 1600 3834 
L 1600 -847 
L 775 -847 
L 775 2125 
Q 563 1759 331 1416 
Q 256 1916 94 2541 
Q 763 3616 1238 5334 
z
M 1781 2072 
L 3375 2072 
L 3375 2559 
L 2100 2559 
L 2100 3359 
L 3375 3359 
L 3375 3841 
L 1925 3841 
L 1925 4641 
L 3375 4641 
L 3375 5291 
L 4244 5291 
L 4244 4641 
L 5994 4641 
L 5994 3841 
L 4244 3841 
L 4244 3359 
L 5738 3359 
L 5738 2559 
L 4244 2559 
L 4244 2072 
L 6181 2072 
Q 6147 938 6117 619 
Q 6088 300 5947 97 
Q 5806 -106 5576 -186 
Q 5347 -266 4828 -266 
Q 4631 -266 4475 -253 
Q 4431 153 4363 584 
Q 4600 553 4944 553 
Q 5088 553 5181 617 
Q 5275 681 5284 873 
Q 5294 1066 5306 1266 
L 4244 1266 
L 4244 -847 
L 3375 -847 
L 3375 1266 
L 1781 1266 
L 1781 2072 
z
" transform="scale(0.015625)"/>
      <path id="MicrosoftYaHei-Bold-521b" d="M 2581 5266 
L 2463 5116 
Q 3063 4491 3694 3759 
L 3025 3153 
Q 2556 3834 2038 4434 
Q 1631 3803 913 3141 
L 3294 3141 
Q 3281 2822 3238 1797 
Q 3213 878 2288 878 
Q 1975 866 1713 878 
Q 1650 1472 1619 1641 
Q 1794 1622 2244 1616 
Q 2431 1628 2438 1859 
Q 2456 2047 2469 2391 
L 1400 2391 
L 1400 478 
Q 1400 84 1750 91 
L 2419 91 
Q 2719 91 2756 384 
Q 2775 509 2813 884 
Q 3238 784 3688 703 
Q 3606 216 3531 -72 
Q 3400 -653 2575 -653 
L 1625 -653 
Q 581 -653 581 203 
L 581 2841 
Q 494 2766 400 2691 
Q 294 2966 31 3484 
Q 1131 4428 1538 5266 
L 2581 5266 
z
M 5163 5228 
L 5994 5228 
L 5994 416 
Q 5994 -728 5219 -759 
Q 4731 -772 4288 -772 
Q 4238 -347 4106 116 
Q 4369 103 4825 103 
Q 5163 103 5163 559 
L 5163 5228 
z
M 4675 878 
L 3850 878 
L 3850 4653 
L 4675 4653 
L 4675 878 
z
" transform="scale(0.015625)"/>
      <path id="MicrosoftYaHei-Bold-529b" d="M 2094 5309 
L 3063 5309 
L 3022 4066 
L 5988 4066 
L 5931 2203 
Q 5897 1225 5859 593 
Q 5822 -38 5489 -373 
Q 5156 -709 4611 -721 
Q 4066 -734 3225 -728 
Q 3138 -184 3038 247 
Q 3531 197 4188 197 
Q 4503 197 4665 320 
Q 4828 444 4876 623 
Q 4925 803 4964 1515 
Q 5003 2228 5025 3241 
L 2978 3241 
Q 2919 603 769 -891 
Q 444 -491 38 -84 
Q 1963 1059 2031 3241 
L 381 3241 
L 381 4066 
L 2075 4066 
Q 2097 4644 2094 5309 
z
" transform="scale(0.015625)"/>
     </defs>
     <use xlink:href="#MicrosoftYaHei-Bold-28"/>
     <use xlink:href="#MicrosoftYaHei-Bold-5bcc" transform="translate(38.964844 0)"/>
     <use xlink:href="#MicrosoftYaHei-Bold-58eb" transform="translate(138.964844 0)"/>
     <use xlink:href="#MicrosoftYaHei-Bold-5eb7" transform="translate(238.964844 0)"/>
     <use xlink:href="#MicrosoftYaHei-Bold-2f" transform="translate(338.964844 0)"/>
     <use xlink:href="#MicrosoftYaHei-Bold-4f1f" transform="translate(386.230469 0)"/>
     <use xlink:href="#MicrosoftYaHei-Bold-521b" transform="translate(486.230469 0)"/>
     <use xlink:href="#MicrosoftYaHei-Bold-529b" transform="translate(586.230469 0)"/>
     <use xlink:href="#MicrosoftYaHei-Bold-29" transform="translate(686.230469 0)"/>
    </g>
   </g>
   <g id="text_5">
    <!-- 模组厂 -->
    <g style="fill: #ffffff" transform="translate(235.2 150.320688) scale(0.06 -0.06)">
     <defs>
      <path id="MicrosoftYaHei-Bold-6a21" d="M 6250 534 
L 4825 534 
Q 5419 84 6325 -53 
Q 6131 -403 5913 -859 
Q 4769 -522 4169 334 
Q 3694 -503 2406 -897 
Q 2206 -509 1925 -159 
Q 3013 66 3419 534 
L 2088 534 
L 2088 1141 
L 3719 1141 
Q 3756 1284 3769 1459 
L 2425 1459 
L 2425 2134 
L 1944 1659 
Q 1800 1878 1638 2109 
L 1638 -841 
L 863 -841 
L 863 1803 
Q 619 1141 275 547 
Q 213 978 75 1691 
Q 525 2453 788 3328 
L 138 3328 
L 138 4066 
L 863 4066 
L 863 5291 
L 1638 5291 
L 1638 4066 
L 2219 4066 
L 2219 3328 
L 1638 3328 
L 1638 2972 
Q 2081 2559 2425 2209 
L 2425 3703 
L 6025 3703 
L 6025 1459 
L 4556 1459 
Q 4544 1291 4519 1141 
L 6250 1141 
L 6250 534 
z
M 5250 2009 
L 5250 2353 
L 3200 2353 
L 3200 2009 
L 5250 2009 
z
M 5250 3147 
L 3200 3147 
L 3200 2816 
L 5250 2816 
L 5250 3147 
z
M 5413 3853 
L 4675 3853 
L 4675 4203 
L 3719 4203 
L 3719 3853 
L 2981 3853 
L 2981 4203 
L 2175 4203 
L 2175 4822 
L 2981 4822 
L 2981 5291 
L 3719 5291 
L 3719 4822 
L 4675 4822 
L 4675 5291 
L 5413 5291 
L 5413 4822 
L 6275 4822 
L 6275 4203 
L 5413 4203 
L 5413 3853 
z
" transform="scale(0.015625)"/>
      <path id="MicrosoftYaHei-Bold-5382" d="M 838 4978 
L 6250 4978 
L 6250 4078 
L 1800 4078 
L 1800 2409 
Q 1800 309 844 -847 
Q 419 -341 119 -59 
Q 838 797 838 2509 
L 838 4978 
z
" transform="scale(0.015625)"/>
     </defs>
     <use xlink:href="#MicrosoftYaHei-Bold-6a21"/>
     <use xlink:href="#MicrosoftYaHei-Bold-7ec4" transform="translate(100 0)"/>
     <use xlink:href="#MicrosoftYaHei-Bold-5382" transform="translate(200 0)"/>
    </g>
    <!-- (安费诺/泰科) -->
    <g style="fill: #ffffff" transform="translate(225.443906 157.56775) scale(0.06 -0.06)">
     <defs>
      <path id="MicrosoftYaHei-Bold-5b89" d="M 2581 5134 
L 3613 5341 
L 3850 4672 
L 6069 4672 
L 6069 3309 
L 5163 3309 
L 5163 3897 
L 1263 3897 
L 1263 3334 
L 356 3334 
L 356 4672 
L 2756 4672 
Q 2669 4916 2581 5134 
z
M 113 2847 
L 2006 2847 
Q 2222 3303 2413 3784 
L 3419 3522 
L 3050 2847 
L 6294 2847 
L 6294 2059 
L 5156 2059 
Q 4863 1197 4328 647 
L 6125 -34 
L 5675 -872 
L 3547 59 
Q 2484 -528 550 -847 
Q 294 -328 106 -9 
Q 1584 172 2488 506 
Q 1663 844 1006 1091 
Q 1322 1556 1600 2059 
L 113 2059 
L 113 2847 
z
M 2219 1434 
L 3413 991 
Q 3894 1369 4153 2059 
L 2600 2059 
Q 2400 1719 2219 1434 
z
" transform="scale(0.015625)"/>
      <path id="MicrosoftYaHei-Bold-8d39" d="M 1088 291 
L 1088 1344 
Q 809 1225 481 1116 
Q 331 1416 94 1772 
Q 1222 2050 1638 2503 
L 413 2503 
L 650 4003 
L 2100 4003 
Q 2106 4147 2106 4353 
L 438 4353 
L 438 4928 
L 2106 4928 
L 2106 5341 
L 2881 5341 
L 2881 4928 
L 3663 4928 
L 3663 5341 
L 4438 5341 
L 4438 4928 
L 5913 4928 
L 5913 3428 
L 4438 3428 
L 4438 3078 
L 6150 3078 
Q 6138 2588 6105 2239 
Q 6072 1891 5917 1730 
Q 5763 1569 5450 1556 
L 5450 416 
L 4663 416 
L 4663 1384 
L 1875 1384 
L 1875 291 
L 1088 291 
z
M 2875 4003 
L 3663 4003 
L 3663 4353 
L 2881 4353 
Q 2881 4241 2875 4003 
z
M 5175 4003 
L 5175 4353 
L 4438 4353 
L 4438 4003 
L 5175 4003 
z
M 2759 3078 
L 3663 3078 
L 3663 3428 
L 2828 3428 
Q 2800 3241 2759 3078 
z
M 1300 3428 
L 1231 3078 
L 1963 3078 
Q 2009 3234 2044 3428 
L 1300 3428 
z
M 4769 2147 
Q 5238 2131 5292 2164 
Q 5347 2197 5373 2275 
Q 5400 2353 5400 2503 
L 4438 2503 
L 4438 2028 
L 3663 2028 
L 3663 2503 
L 2544 2503 
Q 2313 2116 2075 1928 
L 4838 1928 
L 4769 2147 
z
M 2881 1216 
L 3681 1216 
Q 3659 872 3575 594 
Q 4731 275 6188 -197 
L 5806 -878 
Q 4647 -441 3266 0 
Q 2713 -684 663 -866 
Q 525 -522 325 -116 
Q 1681 -41 2270 214 
Q 2859 469 2881 1216 
z
" transform="scale(0.015625)"/>
      <path id="MicrosoftYaHei-Bold-8bfa" d="M 2625 5347 
L 3450 5347 
L 3450 4678 
L 4656 4678 
L 4656 5347 
L 5481 5347 
L 5481 4678 
L 6250 4678 
L 6250 3966 
L 5481 3966 
L 5481 3328 
L 4656 3328 
L 4656 3966 
L 3450 3966 
L 3450 3328 
L 2625 3328 
L 2625 3966 
L 1863 3966 
L 1863 4678 
L 2625 4678 
L 2625 5347 
z
M 938 5259 
Q 1369 4697 1744 4116 
Q 1456 3934 1013 3678 
Q 663 4316 263 4866 
L 938 5259 
z
M 2500 -853 
L 2500 866 
Q 2347 738 2188 616 
Q 2075 791 1956 956 
Q 1981 669 2050 197 
Q 1344 -334 913 -784 
L 463 -172 
Q 631 3 631 353 
L 631 2441 
L 100 2441 
L 100 3253 
L 1469 3253 
L 1469 734 
Q 1694 922 1866 1078 
Q 1772 1203 1675 1322 
Q 2372 1759 2881 2353 
L 1800 2353 
L 1800 3066 
L 3397 3066 
Q 3600 3403 3756 3778 
L 4513 3503 
Q 4406 3278 4291 3066 
L 6288 3066 
L 6288 2353 
L 3853 2353 
Q 3650 2059 3422 1791 
L 6000 1791 
L 6000 -847 
L 5150 -847 
L 5150 -509 
L 3350 -509 
L 3350 -853 
L 2500 -853 
z
M 5150 1078 
L 3350 1078 
L 3350 203 
L 5150 203 
L 5150 1078 
z
" transform="scale(0.015625)"/>
      <path id="MicrosoftYaHei-Bold-6cf0" d="M 2819 2128 
L 3663 2128 
L 3663 353 
L 3944 909 
L 4081 866 
L 3719 1434 
Q 4022 1603 4316 1781 
Q 4084 2022 3891 2303 
L 2597 2303 
Q 2381 2044 2113 1794 
L 2700 1441 
Q 2516 1184 2297 863 
Q 2406 897 2513 934 
L 2788 272 
Q 2056 34 750 -347 
Q 613 9 413 391 
Q 1353 566 2250 847 
Q 1888 1116 1550 1331 
Q 1141 1031 644 753 
Q 369 1103 88 1416 
Q 975 1800 1544 2303 
L 156 2303 
L 156 2953 
L 2113 2953 
Q 2219 3109 2297 3278 
L 625 3278 
L 625 3928 
L 2538 3928 
Q 2581 4084 2616 4253 
L 400 4253 
L 400 4903 
L 2709 4903 
Q 2728 5116 2738 5347 
L 3631 5347 
Q 3613 5116 3588 4903 
L 5994 4903 
L 5994 4253 
L 3484 4253 
Q 3450 4084 3409 3928 
L 5781 3928 
L 5781 3278 
L 3188 3278 
Q 3122 3113 3038 2953 
L 6250 2953 
L 6250 2303 
L 4775 2303 
Q 5391 1769 6306 1509 
Q 6081 1153 5888 759 
Q 5344 972 4903 1281 
L 4094 863 
Q 5203 519 6013 222 
L 5675 -528 
Q 4859 -156 3663 294 
L 3663 -34 
Q 3663 -406 3495 -600 
Q 3328 -794 2979 -808 
Q 2631 -822 2013 -822 
Q 1963 -434 1850 -91 
Q 2256 -116 2531 -116 
Q 2819 -116 2819 197 
L 2819 2128 
z
" transform="scale(0.015625)"/>
      <path id="MicrosoftYaHei-Bold-79d1" d="M 2494 1316 
L 4525 1500 
L 4525 5309 
L 5406 5309 
L 5406 1581 
L 6256 1659 
L 6325 866 
L 5406 781 
L 5406 -834 
L 4525 -834 
L 4525 703 
L 2600 528 
L 2494 1316 
z
M 88 1128 
Q 684 1850 1009 2709 
L 144 2709 
L 144 3516 
L 1038 3516 
L 1038 4216 
L 281 4147 
Q 219 4572 138 4891 
Q 1431 4991 2525 5147 
L 2763 4416 
Q 2341 4356 1850 4300 
L 1850 3516 
L 2663 3516 
L 2663 2709 
L 1850 2709 
L 1850 2172 
L 2150 2453 
Q 2600 2053 2913 1728 
L 2388 1253 
Q 2078 1616 1850 1863 
L 1850 -834 
L 1038 -834 
L 1038 1278 
Q 744 659 375 128 
Q 269 541 88 1128 
z
M 3419 4866 
Q 3894 4516 4475 3991 
L 3894 3416 
Q 3425 3916 2894 4334 
L 3419 4866 
z
M 3206 3278 
Q 3756 2872 4275 2397 
L 3688 1828 
Q 3263 2278 2675 2734 
L 3206 3278 
z
" transform="scale(0.015625)"/>
     </defs>
     <use xlink:href="#MicrosoftYaHei-Bold-28"/>
     <use xlink:href="#MicrosoftYaHei-Bold-5b89" transform="translate(38.964844 0)"/>
     <use xlink:href="#MicrosoftYaHei-Bold-8d39" transform="translate(138.964844 0)"/>
     <use xlink:href="#MicrosoftYaHei-Bold-8bfa" transform="translate(238.964844 0)"/>
     <use xlink:href="#MicrosoftYaHei-Bold-2f" transform="translate(338.964844 0)"/>
     <use xlink:href="#MicrosoftYaHei-Bold-6cf0" transform="translate(386.230469 0)"/>
     <use xlink:href="#MicrosoftYaHei-Bold-79d1" transform="translate(486.230469 0)"/>
     <use xlink:href="#MicrosoftYaHei-Bold-29" transform="translate(586.230469 0)"/>
    </g>
   </g>
   <g id="text_6">
    <!-- 服务器OEM -->
    <g style="fill: #ffffff" transform="translate(322.744688 114.284688) scale(0.06 -0.06)">
     <defs>
      <path id="MicrosoftYaHei-Bold-670d" d="M 6144 2841 
L 6144 2122 
Q 5900 1228 5441 534 
Q 5825 231 6319 34 
Q 6069 -322 5794 -803 
Q 5303 -522 4903 -134 
Q 4509 -541 4013 -853 
Q 3847 -522 3638 -200 
L 3638 -809 
L 2838 -809 
L 2838 5078 
L 6063 5078 
Q 6063 4119 6002 3826 
Q 5941 3534 5781 3367 
Q 5622 3200 5400 3154 
Q 5178 3109 4150 3122 
Q 4094 3491 3988 3884 
Q 4528 3847 4788 3847 
Q 4966 3847 5073 3923 
Q 5181 4000 5181 4341 
L 3638 4341 
L 3638 2841 
L 6144 2841 
z
M 4381 2059 
Q 4566 1541 4863 1138 
Q 5147 1566 5313 2109 
L 3638 2109 
L 3638 44 
Q 4028 250 4338 528 
Q 3950 1078 3688 1772 
L 4381 2059 
z
M 663 -872 
Q 400 -472 88 -159 
Q 322 334 395 946 
Q 469 1559 469 2941 
L 469 5072 
L 2494 5072 
L 2494 22 
Q 2494 -328 2309 -543 
Q 2125 -759 1294 -772 
Q 1213 -316 1075 78 
Q 1281 47 1456 47 
Q 1756 47 1756 409 
L 1756 1184 
L 1188 1184 
Q 1144 -181 663 -872 
z
M 1756 4272 
L 1219 4272 
L 1219 3472 
L 1756 3472 
L 1756 4272 
z
M 1213 1928 
L 1756 1928 
L 1756 2728 
L 1219 2728 
Q 1219 2294 1213 1928 
z
" transform="scale(0.015625)"/>
      <path id="MicrosoftYaHei-Bold-52a1" d="M 5775 4797 
L 5775 4122 
Q 5175 3553 4331 3116 
Q 5219 2919 6300 2897 
Q 6106 2434 5963 2066 
Q 4363 2216 3216 2641 
Q 2006 2213 438 1984 
Q 306 2316 100 2766 
Q 1266 2875 2213 3113 
Q 1772 3378 1434 3700 
Q 1069 3403 656 3147 
Q 444 3434 150 3778 
Q 1363 4472 1956 5328 
L 2900 5328 
Q 2722 5053 2519 4797 
L 5775 4797 
z
M 3259 3444 
Q 3981 3722 4525 4103 
L 2091 4103 
Q 2603 3709 3259 3444 
z
M 2363 2303 
L 3256 2303 
Q 3225 2003 3172 1716 
L 5813 1716 
L 5706 291 
Q 5675 -66 5497 -297 
Q 5319 -528 5009 -639 
Q 4700 -750 3797 -750 
Q 3484 -750 3138 -734 
Q 3081 -366 2938 109 
Q 3628 53 4144 53 
Q 4413 53 4563 134 
Q 4713 216 4748 362 
Q 4784 509 4806 959 
L 2981 959 
Q 2503 -359 681 -859 
Q 438 -528 94 -141 
Q 1531 203 2000 959 
L 313 959 
L 313 1716 
L 2266 1716 
Q 2325 1991 2363 2303 
z
" transform="scale(0.015625)"/>
      <path id="MicrosoftYaHei-Bold-5668" d="M 506 5059 
L 2956 5059 
L 2956 3297 
L 506 3297 
L 506 5059 
z
M 2194 3934 
L 2194 4422 
L 1269 4422 
L 1269 3934 
L 2194 3934 
z
M 3444 5059 
L 5888 5059 
L 5888 3297 
L 3444 3297 
L 3444 5059 
z
M 5125 3934 
L 5125 4422 
L 4213 4422 
L 4213 3934 
L 5125 3934 
z
M 3438 -797 
L 3438 1228 
L 4738 1228 
Q 3700 1456 3194 1984 
Q 2763 1466 1522 1228 
L 2950 1228 
L 2950 -809 
L 2225 -809 
L 2225 -572 
L 1231 -572 
L 1231 -809 
L 506 -809 
L 506 1097 
Q 372 1084 231 1078 
Q 194 1378 100 1716 
Q 2025 1766 2428 2253 
L 181 2253 
L 181 2891 
L 2728 2891 
Q 2756 3034 2769 3203 
L 3644 3203 
Q 3628 3038 3600 2891 
L 4444 2891 
L 4344 3134 
L 5144 3234 
L 5288 2891 
L 6231 2891 
L 6231 2253 
L 3772 2253 
Q 4438 1738 6306 1709 
Q 6200 1359 6144 1066 
Q 6013 1069 5888 1078 
L 5888 -809 
L 5163 -809 
L 5163 -572 
L 4163 -572 
L 4163 -797 
L 3438 -797 
z
M 5163 591 
L 4163 591 
L 4163 66 
L 5163 66 
L 5163 591 
z
M 2225 591 
L 1231 591 
L 1231 66 
L 2225 66 
L 2225 591 
z
" transform="scale(0.015625)"/>
      <path id="MicrosoftYaHei-Bold-4f" d="M 256 2356 
Q 256 3494 920 4208 
Q 1584 4922 2675 4922 
Q 3713 4922 4345 4231 
Q 4978 3541 4978 2456 
Q 4978 1325 4320 620 
Q 3663 -84 2597 -84 
Q 1556 -84 906 598 
Q 256 1281 256 2356 
z
M 1341 2413 
Q 1341 1706 1681 1257 
Q 2022 809 2616 809 
Q 3222 809 3559 1239 
Q 3897 1669 3897 2394 
Q 3897 3150 3569 3589 
Q 3241 4028 2644 4028 
Q 2038 4028 1689 3578 
Q 1341 3128 1341 2413 
z
" transform="scale(0.015625)"/>
      <path id="MicrosoftYaHei-Bold-45" d="M 3425 0 
L 559 0 
L 559 4841 
L 3313 4841 
L 3313 3997 
L 1591 3997 
L 1591 2856 
L 3191 2856 
L 3191 2016 
L 1591 2016 
L 1591 844 
L 3425 844 
L 3425 0 
z
" transform="scale(0.015625)"/>
     </defs>
     <use xlink:href="#MicrosoftYaHei-Bold-670d"/>
     <use xlink:href="#MicrosoftYaHei-Bold-52a1" transform="translate(100 0)"/>
     <use xlink:href="#MicrosoftYaHei-Bold-5668" transform="translate(200 0)"/>
     <use xlink:href="#MicrosoftYaHei-Bold-4f" transform="translate(300 0)"/>
     <use xlink:href="#MicrosoftYaHei-Bold-45" transform="translate(381.835938 0)"/>
     <use xlink:href="#MicrosoftYaHei-Bold-4d" transform="translate(439.013672 0)"/>
    </g>
    <!-- (戴尔/惠普/超微) -->
    <g style="fill: #ffffff" transform="translate(315.825938 121.53175) scale(0.06 -0.06)">
     <defs>
      <path id="MicrosoftYaHei-Bold-6234" d="M 156 653 
L 1031 653 
L 1031 959 
L 319 959 
L 319 1447 
L 1031 1447 
L 1031 1728 
L 400 1728 
L 400 3316 
L 3650 3316 
L 3650 1728 
L 3013 1728 
L 3013 1447 
L 3706 1447 
L 3706 959 
L 3013 959 
L 3013 653 
L 3669 653 
Q 3950 897 4194 1153 
Q 4028 2066 3975 3541 
L 113 3541 
L 113 4091 
L 1656 4091 
L 1656 4366 
L 394 4366 
L 394 4891 
L 1656 4891 
L 1656 5309 
L 2444 5309 
L 2444 4891 
L 3513 4891 
L 3513 4366 
L 2444 4366 
L 2444 4091 
L 3959 4091 
Q 3947 4659 3950 5303 
L 4694 5303 
Q 4688 4656 4697 4091 
L 5513 4091 
Q 5131 4544 4800 4828 
L 5344 5278 
Q 5800 4884 6150 4516 
L 5650 4091 
L 6288 4091 
L 6288 3541 
L 4713 3541 
Q 4747 2625 4831 1941 
Q 5263 2572 5500 3272 
L 6181 2966 
Q 5719 1816 5019 931 
Q 5225 203 5413 209 
Q 5475 219 5514 267 
Q 5553 316 5589 575 
Q 5625 834 5638 1197 
Q 5938 1003 6325 847 
Q 6209 -184 6017 -473 
Q 5825 -763 5500 -797 
Q 4816 -750 4425 272 
Q 4197 47 3950 -153 
Q 3828 3 3691 166 
L 2734 166 
Q 3369 -91 3775 -291 
L 3438 -859 
Q 2931 -578 2200 -241 
L 2463 166 
L 1559 166 
L 1831 -247 
Q 1144 -597 450 -872 
Q 344 -603 163 -309 
Q 744 -100 1306 166 
L 156 166 
L 156 653 
z
M 3050 2928 
L 2306 2928 
L 2306 2691 
L 3050 2691 
L 3050 2928 
z
M 1000 2691 
L 1744 2691 
L 1744 2928 
L 1000 2928 
L 1000 2691 
z
M 3050 2116 
L 3050 2353 
L 2306 2353 
L 2306 2116 
L 3050 2116 
z
M 1000 2116 
L 1744 2116 
L 1744 2353 
L 1000 2353 
L 1000 2116 
z
M 1656 1447 
L 2388 1447 
L 2388 1728 
L 1656 1728 
L 1656 1447 
z
M 1656 653 
L 2388 653 
L 2388 959 
L 1656 959 
L 1656 653 
z
" transform="scale(0.015625)"/>
      <path id="MicrosoftYaHei-Bold-5c14" d="M 1444 5341 
L 2350 5222 
Q 2241 4934 2119 4659 
L 6150 4659 
L 6150 3853 
Q 5856 3272 5481 2628 
L 4725 2991 
Q 5044 3534 5200 3853 
L 1716 3853 
Q 1263 3041 681 2366 
Q 431 2716 125 3047 
Q 1025 4134 1444 5341 
z
M 2788 3591 
L 3719 3591 
L 3719 366 
Q 3719 -109 3542 -370 
Q 3366 -631 3070 -689 
Q 2775 -747 1794 -753 
Q 1706 -291 1569 153 
Q 2047 97 2400 97 
Q 2788 97 2788 528 
L 2788 3591 
z
M 1644 2741 
L 2425 2391 
Q 1669 953 881 -159 
Q 581 72 194 334 
Q 988 1422 1644 2741 
z
M 4688 2697 
Q 5581 1472 6306 347 
L 5494 -134 
Q 4731 1159 4000 2284 
L 4688 2697 
z
" transform="scale(0.015625)"/>
      <path id="MicrosoftYaHei-Bold-60e0" d="M 131 1622 
Q 1344 1591 2813 1584 
L 2813 1909 
L 625 1909 
L 625 4059 
L 2813 4059 
L 2813 4353 
L 250 4353 
L 250 4978 
L 2813 4978 
L 2813 5359 
L 3600 5359 
L 3600 4978 
L 6150 4978 
L 6150 4353 
L 3600 4353 
L 3600 4059 
L 5800 4059 
L 5800 1909 
L 5225 1909 
Q 5775 1503 6313 1066 
L 5791 684 
Q 6075 303 6319 -97 
L 5619 -522 
Q 5263 128 4931 597 
L 5472 884 
L 5284 1066 
L 3509 1031 
Q 3709 797 3875 572 
L 3250 134 
Q 3000 509 2681 916 
L 2841 1019 
L 175 991 
L 131 1622 
z
M 5025 3516 
L 3600 3516 
L 3600 3216 
L 5025 3216 
L 5025 3516 
z
M 1400 3216 
L 2813 3216 
L 2813 3516 
L 1400 3516 
L 1400 3216 
z
M 5025 2453 
L 5025 2753 
L 3600 2753 
L 3600 2453 
L 5025 2453 
z
M 1400 2453 
L 2813 2453 
L 2813 2753 
L 1400 2753 
L 1400 2453 
z
M 4719 1591 
L 4488 1797 
L 4647 1909 
L 3600 1909 
L 3600 1584 
L 4719 1591 
z
M 631 953 
L 1406 666 
Q 1094 -128 813 -634 
L 88 -291 
Q 406 297 631 953 
z
M 4213 766 
Q 4463 616 4994 391 
Q 4809 -303 4571 -518 
Q 4334 -734 3825 -734 
L 2506 -734 
Q 1594 -734 1594 72 
L 1594 878 
L 2419 878 
L 2419 284 
Q 2419 -28 2750 -28 
L 3563 -28 
Q 3763 -28 3913 26 
Q 4063 81 4105 206 
Q 4147 331 4213 766 
z
" transform="scale(0.015625)"/>
      <path id="MicrosoftYaHei-Bold-666e" d="M 131 3091 
L 1113 3091 
Q 881 3394 569 3734 
L 1081 4103 
L 375 4103 
L 375 4747 
L 1694 4747 
Q 1559 4947 1388 5178 
L 2281 5353 
L 2650 4747 
L 3753 4747 
L 4175 5359 
L 5106 5172 
L 4728 4747 
L 6050 4747 
L 6050 4103 
L 5341 4103 
L 5875 3697 
Q 5616 3447 5275 3091 
L 6288 3091 
L 6288 2453 
L 131 2453 
L 131 3091 
z
M 2919 3091 
L 3488 3091 
L 3488 4103 
L 2919 4103 
L 2919 3091 
z
M 1788 3422 
L 1359 3091 
L 2069 3091 
L 2069 4103 
L 1156 4103 
Q 1425 3822 1788 3422 
z
M 5216 4103 
L 4338 4103 
L 4338 3091 
L 4988 3091 
L 4600 3403 
Q 4941 3759 5216 4103 
z
M 850 -822 
L 850 2097 
L 5569 2097 
L 5569 -822 
L 4719 -822 
L 4719 -566 
L 1700 -566 
L 1700 -822 
L 850 -822 
z
M 4719 1453 
L 1700 1453 
L 1700 1059 
L 4719 1059 
L 4719 1453 
z
M 1700 78 
L 4719 78 
L 4719 472 
L 1700 472 
L 1700 78 
z
" transform="scale(0.015625)"/>
      <path id="MicrosoftYaHei-Bold-8d85" d="M 2863 2447 
L 2269 2447 
L 2269 1753 
L 2894 1753 
L 2894 991 
L 2269 991 
L 2269 156 
Q 2381 91 3781 91 
Q 4741 91 6306 122 
Q 6144 -359 6050 -716 
Q 3569 -716 2808 -692 
Q 2047 -669 1619 -480 
Q 1191 -291 959 72 
Q 850 -503 675 -853 
Q 400 -572 75 -259 
Q 394 509 400 2184 
L 1131 2184 
Q 1125 1644 1094 1184 
Q 1216 788 1488 538 
L 1488 2447 
L 125 2447 
L 125 3209 
L 1175 3209 
L 1175 3778 
L 300 3778 
L 300 4541 
L 1175 4541 
L 1175 5322 
L 1981 5322 
L 1981 4541 
L 2769 4541 
L 2769 3778 
L 1981 3778 
L 1981 3209 
L 2863 3209 
L 2863 2447 
z
M 4456 2872 
Q 4413 3134 4238 3572 
Q 4525 3559 4688 3559 
Q 4963 3559 5045 3659 
Q 5128 3759 5144 4409 
L 4453 4409 
Q 4313 3194 3294 2728 
Q 3131 2972 2850 3334 
Q 3528 3622 3666 4409 
L 2969 4409 
L 2969 5109 
L 6013 5109 
Q 5956 3825 5922 3572 
Q 5888 3319 5750 3151 
Q 5613 2984 5386 2934 
Q 5159 2884 4456 2872 
z
M 3175 2641 
L 5913 2641 
L 5913 453 
L 3175 453 
L 3175 2641 
z
M 5119 1153 
L 5119 1941 
L 3969 1941 
L 3969 1153 
L 5119 1153 
z
" transform="scale(0.015625)"/>
      <path id="MicrosoftYaHei-Bold-5fae" d="M 4275 728 
Q 4288 466 4306 253 
Q 4566 541 4766 884 
Q 4488 1613 4397 2528 
Q 4316 2394 4231 2266 
Q 4113 2597 3919 2959 
Q 3953 3019 3988 3084 
L 1878 3084 
Q 1663 2728 1431 2394 
L 1431 -834 
L 694 -834 
L 694 1428 
Q 509 1213 319 1009 
Q 219 1359 25 1872 
Q 744 2672 1294 3622 
L 1756 3281 
L 1756 4659 
Q 1166 3869 506 3222 
Q 275 3591 38 3922 
Q 713 4534 1263 5322 
L 1906 4866 
Q 1859 4800 1809 4734 
L 2363 4734 
L 2363 3647 
L 2613 3647 
L 2613 5266 
L 3219 5266 
L 3219 3647 
L 3469 3647 
L 3469 4734 
L 4075 4734 
L 4075 3259 
Q 4463 4075 4731 5347 
L 5463 5191 
Q 5350 4719 5203 4278 
L 6306 4278 
L 6306 3534 
L 6094 3534 
Q 6003 1991 5563 881 
Q 5866 378 6313 47 
Q 6075 -497 5975 -834 
Q 5500 -444 5166 81 
Q 4831 -463 4381 -866 
Q 4247 -509 4063 -216 
Q 3659 -494 3388 -716 
L 3031 -247 
Q 3175 -72 3169 134 
L 3169 1053 
L 2613 1053 
Q 2625 -228 1950 -822 
Q 1769 -566 1481 -284 
Q 1672 -109 1784 134 
Q 1897 378 1926 622 
Q 1956 866 1956 1678 
L 3838 1678 
L 3838 403 
Q 3975 497 4275 728 
z
M 5156 1809 
Q 5384 2572 5413 3534 
L 4916 3534 
L 4903 3503 
Q 4938 2547 5156 1809 
z
M 1806 2691 
L 4019 2691 
L 4019 2072 
L 1806 2072 
L 1806 2691 
z
" transform="scale(0.015625)"/>
     </defs>
     <use xlink:href="#MicrosoftYaHei-Bold-28"/>
     <use xlink:href="#MicrosoftYaHei-Bold-6234" transform="translate(38.964844 0)"/>
     <use xlink:href="#MicrosoftYaHei-Bold-5c14" transform="translate(138.964844 0)"/>
     <use xlink:href="#MicrosoftYaHei-Bold-2f" transform="translate(238.964844 0)"/>
     <use xlink:href="#MicrosoftYaHei-Bold-60e0" transform="translate(286.230469 0)"/>
     <use xlink:href="#MicrosoftYaHei-Bold-666e" transform="translate(386.230469 0)"/>
     <use xlink:href="#MicrosoftYaHei-Bold-2f" transform="translate(486.230469 0)"/>
     <use xlink:href="#MicrosoftYaHei-Bold-8d85" transform="translate(533.496094 0)"/>
     <use xlink:href="#MicrosoftYaHei-Bold-5fae" transform="translate(633.496094 0)"/>
     <use xlink:href="#MicrosoftYaHei-Bold-29" transform="translate(733.496094 0)"/>
    </g>
   </g>
   <g id="text_7">
    <!-- 云厂商 -->
    <g style="fill: #ffffff" transform="translate(424.8 114.284688) scale(0.06 -0.06)">
     <defs>
      <path id="MicrosoftYaHei-Bold-4e91" d="M 800 4978 
L 5650 4978 
L 5650 4116 
L 800 4116 
L 800 4978 
z
M 225 3041 
L 6225 3041 
L 6225 2178 
L 3322 2178 
Q 2859 1506 1863 409 
Q 3178 419 4397 484 
L 3550 1528 
L 4300 1984 
Q 5531 597 6219 -328 
L 5400 -853 
Q 5263 -647 5047 -353 
Q 1366 -475 819 -616 
L 419 216 
Q 1391 1013 2144 2178 
L 225 2178 
L 225 3041 
z
" transform="scale(0.015625)"/>
      <path id="MicrosoftYaHei-Bold-5546" d="M 238 4791 
L 2694 4791 
L 2563 5303 
L 3613 5341 
L 3675 4791 
L 6175 4791 
L 6175 4103 
L 238 4103 
L 238 4791 
z
M 475 3516 
L 1713 3516 
L 1356 3953 
L 2375 3953 
L 2703 3516 
L 3697 3516 
Q 3931 3797 4050 3953 
L 5063 3953 
Q 4863 3728 4666 3516 
L 5956 3516 
L 5956 303 
Q 5956 -131 5786 -389 
Q 5616 -647 5314 -720 
Q 5013 -794 4025 -803 
Q 3938 -303 3863 -22 
Q 4219 -59 4556 -59 
Q 5125 -59 5125 466 
L 5125 1594 
L 4925 1341 
L 4469 1659 
L 4469 109 
L 2713 109 
L 2713 -191 
L 1950 -191 
L 1950 1581 
L 1550 1297 
Q 1541 1313 1300 1625 
L 1300 -797 
L 475 -797 
L 475 3516 
z
M 2494 2816 
L 2944 2322 
Q 2694 2128 2441 1941 
L 4056 1941 
L 3475 2322 
L 3881 2797 
Q 4519 2438 5125 2056 
L 5125 2853 
L 1300 2853 
L 1300 1969 
Q 1956 2413 2494 2816 
z
M 3706 797 
L 3706 1291 
L 2713 1291 
L 2713 797 
L 3706 797 
z
" transform="scale(0.015625)"/>
     </defs>
     <use xlink:href="#MicrosoftYaHei-Bold-4e91"/>
     <use xlink:href="#MicrosoftYaHei-Bold-5382" transform="translate(100 0)"/>
     <use xlink:href="#MicrosoftYaHei-Bold-5546" transform="translate(200 0)"/>
    </g>
    <!-- (AWS/GCP/Azure) -->
    <g style="fill: #ffffff" transform="translate(406.414219 121.53175) scale(0.06 -0.06)">
     <defs>
      <path id="MicrosoftYaHei-Bold-41" d="M 4759 0 
L 3634 0 
L 3272 1109 
L 1513 1109 
L 1156 0 
L 38 0 
L 1809 4841 
L 3022 4841 
L 4759 0 
z
M 3028 1906 
L 2478 3584 
Q 2425 3744 2403 4006 
L 2375 4006 
Q 2356 3794 2291 3597 
L 1738 1906 
L 3028 1906 
z
" transform="scale(0.015625)"/>
      <path id="MicrosoftYaHei-Bold-57" d="M 6825 4841 
L 5534 0 
L 4388 0 
L 3563 3156 
Q 3497 3413 3484 3691 
L 3472 3691 
Q 3441 3366 3384 3156 
L 2541 0 
L 1350 0 
L 59 4841 
L 1191 4841 
L 1909 1559 
Q 1956 1344 1975 1016 
L 1997 1016 
Q 2013 1272 2094 1575 
L 2994 4841 
L 4091 4841 
L 4909 1534 
Q 4959 1338 4988 1022 
L 5003 1022 
Q 5016 1294 5075 1553 
L 5778 4841 
L 6825 4841 
z
" transform="scale(0.015625)"/>
      <path id="MicrosoftYaHei-Bold-53" d="M 338 1219 
Q 922 734 1666 734 
Q 2088 734 2300 879 
Q 2513 1025 2513 1253 
Q 2513 1450 2344 1625 
Q 2175 1800 1453 2100 
Q 319 2581 319 3500 
Q 319 4175 833 4548 
Q 1347 4922 2194 4922 
Q 2903 4922 3384 4738 
L 3384 3769 
Q 2897 4100 2244 4100 
Q 1863 4100 1634 3961 
Q 1406 3822 1406 3588 
Q 1406 3400 1562 3242 
Q 1719 3084 2334 2816 
Q 3056 2506 3326 2162 
Q 3597 1819 3597 1344 
Q 3597 647 3103 281 
Q 2609 -84 1700 -84 
Q 869 -84 338 184 
L 338 1219 
z
" transform="scale(0.015625)"/>
      <path id="MicrosoftYaHei-Bold-47" d="M 4494 325 
Q 3784 -84 2750 -84 
Q 1594 -84 925 566 
Q 256 1216 256 2344 
Q 256 3488 992 4205 
Q 1728 4922 2931 4922 
Q 3706 4922 4284 4703 
L 4284 3725 
Q 3722 4053 2909 4053 
Q 2209 4053 1775 3597 
Q 1341 3141 1341 2394 
Q 1341 1634 1733 1209 
Q 2125 784 2803 784 
Q 3206 784 3463 909 
L 3463 1903 
L 2484 1903 
L 2484 2731 
L 4494 2731 
L 4494 325 
z
" transform="scale(0.015625)"/>
      <path id="MicrosoftYaHei-Bold-7a" d="M 3159 0 
L 88 0 
L 88 409 
L 1856 2703 
L 263 2703 
L 263 3456 
L 3150 3456 
L 3150 2969 
L 1459 753 
L 3159 753 
L 3159 0 
z
" transform="scale(0.015625)"/>
      <path id="MicrosoftYaHei-Bold-75" d="M 3691 0 
L 2688 0 
L 2688 528 
L 2672 528 
Q 2284 -84 1613 -84 
Q 406 -84 406 1372 
L 406 3456 
L 1416 3456 
L 1416 1466 
Q 1416 691 2022 691 
Q 2325 691 2506 903 
Q 2688 1116 2688 1478 
L 2688 3456 
L 3691 3456 
L 3691 0 
z
" transform="scale(0.015625)"/>
      <path id="MicrosoftYaHei-Bold-72" d="M 2663 2541 
Q 2478 2647 2216 2647 
Q 1872 2647 1670 2384 
Q 1469 2122 1469 1663 
L 1469 0 
L 459 0 
L 459 3456 
L 1469 3456 
L 1469 2806 
L 1481 2806 
Q 1731 3516 2391 3516 
Q 2569 3516 2663 3475 
L 2663 2541 
z
" transform="scale(0.015625)"/>
      <path id="MicrosoftYaHei-Bold-65" d="M 3528 1444 
L 1253 1444 
Q 1306 641 2222 641 
Q 2794 641 3231 922 
L 3231 181 
Q 2759 -84 1994 -84 
Q 1169 -84 711 381 
Q 253 847 253 1678 
Q 253 2506 740 3023 
Q 1228 3541 1966 3541 
Q 2700 3541 3114 3095 
Q 3528 2650 3528 1872 
L 3528 1444 
z
M 2588 2075 
Q 2588 2850 1959 2850 
Q 1700 2850 1500 2637 
Q 1300 2425 1250 2075 
L 2588 2075 
z
" transform="scale(0.015625)"/>
     </defs>
     <use xlink:href="#MicrosoftYaHei-Bold-28"/>
     <use xlink:href="#MicrosoftYaHei-Bold-41" transform="translate(38.964844 0)"/>
     <use xlink:href="#MicrosoftYaHei-Bold-57" transform="translate(110.535156 0)"/>
     <use xlink:href="#MicrosoftYaHei-Bold-53" transform="translate(218.152344 0)"/>
     <use xlink:href="#MicrosoftYaHei-Bold-2f" transform="translate(278.308594 0)"/>
     <use xlink:href="#MicrosoftYaHei-Bold-47" transform="translate(325.574219 0)"/>
     <use xlink:href="#MicrosoftYaHei-Bold-43" transform="translate(402.087891 0)"/>
     <use xlink:href="#MicrosoftYaHei-Bold-50" transform="translate(469.421875 0)"/>
     <use xlink:href="#MicrosoftYaHei-Bold-2f" transform="translate(535.144531 0)"/>
     <use xlink:href="#MicrosoftYaHei-Bold-41" transform="translate(582.410156 0)"/>
     <use xlink:href="#MicrosoftYaHei-Bold-7a" transform="translate(657.605469 0)"/>
     <use xlink:href="#MicrosoftYaHei-Bold-75" transform="translate(708.972656 0)"/>
     <use xlink:href="#MicrosoftYaHei-Bold-72" transform="translate(773.767578 0)"/>
     <use xlink:href="#MicrosoftYaHei-Bold-65" transform="translate(815.650391 0)"/>
     <use xlink:href="#MicrosoftYaHei-Bold-29" transform="translate(873.853516 0)"/>
    </g>
   </g>
   <g id="patch_2">
    <path d="M 56.437097 75.869966 
Q 102.000778 95.664213 146.026288 114.790232 
" style="fill: none; opacity: 0.5; stroke: #94a3b8; stroke-width: 1.5; stroke-linecap: round"/>
    <path d="M 143.154444 111.362038 
L 146.026288 114.790232 
L 141.560627 115.030791 
" style="fill: none; opacity: 0.5; stroke: #94a3b8; stroke-width: 1.5; stroke-linecap: round"/>
   </g>
   <g id="patch_3">
    <path d="M 56.471814 151.580349 
Q 102.001464 134.273319 145.9635 117.56218 
" style="fill: none; opacity: 0.5; stroke: #94a3b8; stroke-width: 1.5; stroke-linecap: round"/>
    <path d="M 141.51388 117.113976 
L 145.9635 117.56218 
L 142.935165 120.852953 
" style="fill: none; opacity: 0.5; stroke: #94a3b8; stroke-width: 1.5; stroke-linecap: round"/>
   </g>
   <g id="patch_4">
    <path d="M 151.237097 115.457784 
Q 196.800778 95.663537 240.826288 76.537518 
" style="fill: none; opacity: 0.5; stroke: #94a3b8; stroke-width: 1.5; stroke-linecap: round"/>
    <path d="M 236.360627 76.296959 
L 240.826288 76.537518 
L 237.954444 79.965712 
" style="fill: none; opacity: 0.5; stroke: #94a3b8; stroke-width: 1.5; stroke-linecap: round"/>
   </g>
   <g id="patch_5">
    <path d="M 151.271814 116.967401 
Q 196.801464 134.274431 240.7635 150.98557 
" style="fill: none; opacity: 0.5; stroke: #94a3b8; stroke-width: 1.5; stroke-linecap: round"/>
    <path d="M 237.735165 147.694797 
L 240.7635 150.98557 
L 236.31388 151.433774 
" style="fill: none; opacity: 0.5; stroke: #94a3b8; stroke-width: 1.5; stroke-linecap: round"/>
   </g>
   <g id="patch_6">
    <path d="M 246.037097 75.869966 
Q 291.600778 95.664213 335.626288 114.790232 
" style="fill: none; opacity: 0.5; stroke: #94a3b8; stroke-width: 1.5; stroke-linecap: round"/>
    <path d="M 332.754444 111.362038 
L 335.626288 114.790232 
L 331.160627 115.030791 
" style="fill: none; opacity: 0.5; stroke: #94a3b8; stroke-width: 1.5; stroke-linecap: round"/>
   </g>
   <g id="patch_7">
    <path d="M 246.071814 151.580349 
Q 291.601464 134.273319 335.5635 117.56218 
" style="fill: none; opacity: 0.5; stroke: #94a3b8; stroke-width: 1.5; stroke-linecap: round"/>
    <path d="M 331.11388 117.113976 
L 335.5635 117.56218 
L 332.535165 120.852953 
" style="fill: none; opacity: 0.5; stroke: #94a3b8; stroke-width: 1.5; stroke-linecap: round"/>
   </g>
   <g id="patch_8">
    <path d="M 340.999109 116.255875 
Q 386.398422 116.255875 430.120684 116.255875 
" style="fill: none; opacity: 0.5; stroke: #94a3b8; stroke-width: 1.5; stroke-linecap: round"/>
    <path d="M 426.120684 114.255875 
L 430.120684 116.255875 
L 426.120684 118.255875 
" style="fill: none; opacity: 0.5; stroke: #94a3b8; stroke-width: 1.5; stroke-linecap: round"/>
   </g>
   <g id="text_8">
    <!-- MLCC供应链全景：从原材料到云厂商 -->
    <g style="fill: #1e293b" transform="translate(7.2 17.591875) scale(0.13 -0.13)">
     <defs>
      <path id="MicrosoftYaHei-Bold-4f9b" d="M 1288 5278 
L 2081 5047 
Q 1869 4359 1613 3728 
L 1613 -778 
L 844 -778 
L 844 2141 
Q 613 1734 356 1359 
Q 275 1859 106 2484 
Q 806 3578 1288 5278 
z
M 1888 1991 
L 2769 1991 
L 2769 3328 
L 2088 3328 
L 2088 4128 
L 2769 4128 
L 2769 5253 
L 3619 5253 
L 3619 4128 
L 4588 4128 
L 4588 5253 
L 5438 5253 
L 5438 4128 
L 6131 4128 
L 6131 3328 
L 5438 3328 
L 5438 1991 
L 6306 1991 
L 6306 1191 
L 1888 1191 
L 1888 1991 
z
M 3619 1991 
L 4588 1991 
L 4588 3328 
L 3619 3328 
L 3619 1991 
z
M 1900 -291 
Q 2569 353 3106 1109 
L 3813 641 
Q 3275 -78 2538 -841 
Q 2281 -597 1900 -291 
z
M 4988 1084 
Q 5638 441 6288 -284 
L 5563 -828 
Q 5050 -116 4344 628 
L 4988 1084 
z
" transform="scale(0.015625)"/>
      <path id="MicrosoftYaHei-Bold-5e94" d="M 1438 2491 
Q 1438 119 794 -866 
Q 506 -597 88 -266 
Q 619 622 613 2603 
L 613 4566 
L 3009 4566 
Q 2894 4853 2781 5116 
L 3788 5353 
Q 3928 5016 4103 4566 
L 6225 4566 
L 6225 3797 
L 1438 3797 
L 1438 2491 
z
M 3013 3309 
L 3794 3541 
Q 4125 2678 4513 1316 
L 3669 1084 
Q 3300 2416 3013 3309 
z
M 1325 316 
L 4300 316 
Q 4681 1541 5200 3453 
L 6069 3228 
Q 5744 2006 5184 316 
L 6250 316 
L 6250 -553 
L 1325 -553 
L 1325 316 
z
M 1475 2984 
L 2225 3303 
Q 2775 2103 3244 828 
L 2406 516 
Q 2006 1684 1475 2984 
z
" transform="scale(0.015625)"/>
      <path id="MicrosoftYaHei-Bold-94fe" d="M 3463 1566 
L 4588 1566 
L 4588 2128 
L 3488 2128 
L 3488 2797 
Q 3647 3247 3841 3966 
L 3444 3966 
L 3444 4691 
L 4028 4691 
L 4188 5347 
L 4925 5241 
Q 4850 4959 4772 4691 
L 6163 4691 
L 6163 3966 
L 4569 3966 
L 4238 2853 
L 4588 2853 
L 4588 3678 
L 5313 3678 
L 5313 2853 
L 6106 2853 
L 6106 2128 
L 5313 2128 
L 5313 1566 
L 6225 1566 
L 6225 841 
L 5313 841 
L 5313 166 
L 4588 166 
L 4588 841 
L 3463 841 
L 3463 1566 
z
M 6306 78 
Q 6156 -403 6088 -697 
L 4363 -700 
Q 3713 -694 3375 -522 
Q 3038 -350 2888 -78 
Q 2638 -434 2388 -841 
L 1966 -103 
Q 1247 -575 1000 -847 
L 575 -228 
Q 744 -28 744 347 
L 744 1372 
L 100 1372 
L 100 2078 
L 744 2078 
L 744 2709 
L 547 2709 
Q 428 2503 300 2316 
Q 194 2853 81 3316 
Q 556 4216 788 5341 
L 1525 5178 
Q 1441 4863 1347 4566 
L 2156 4566 
L 2156 3866 
L 1100 3866 
Q 1009 3634 909 3416 
L 1944 3416 
L 1944 2709 
L 1488 2709 
L 1488 2078 
L 2113 2078 
L 2113 1372 
L 1488 1372 
L 1488 428 
Q 1756 591 2025 772 
Q 2041 400 2072 106 
Q 2275 350 2469 572 
L 2469 2328 
L 2094 2328 
L 2094 3128 
L 3244 3128 
L 3244 559 
Q 3522 53 4416 53 
Q 5066 53 6306 78 
z
M 2894 5297 
Q 3125 4628 3338 3834 
L 2581 3622 
Q 2394 4403 2163 5097 
L 2894 5297 
z
" transform="scale(0.015625)"/>
      <path id="MicrosoftYaHei-Bold-5168" d="M 369 184 
L 2731 184 
L 2731 934 
L 869 934 
L 869 1734 
L 2731 1734 
L 2731 2366 
L 1525 2366 
L 1525 2859 
Q 1113 2566 644 2284 
Q 463 2541 88 3016 
Q 2088 4091 2800 5316 
L 3894 5316 
L 3731 5078 
Q 4538 3922 6313 3091 
Q 5981 2678 5750 2353 
Q 5281 2603 4875 2878 
L 4875 2366 
L 3663 2366 
L 3663 1734 
L 5544 1734 
L 5544 934 
L 3663 934 
L 3663 184 
L 6031 184 
L 6031 -616 
L 369 -616 
L 369 184 
z
M 3200 4416 
Q 2688 3766 1925 3166 
L 4475 3166 
Q 3725 3741 3200 4416 
z
" transform="scale(0.015625)"/>
      <path id="MicrosoftYaHei-Bold-666f" d="M 113 2853 
L 2734 2853 
L 2613 3134 
L 750 3134 
L 750 5109 
L 5650 5109 
L 5650 3134 
L 3675 3134 
L 3775 2853 
L 6306 2853 
L 6306 2241 
L 113 2241 
L 113 2853 
z
M 4788 4609 
L 1613 4609 
L 1613 4341 
L 4788 4341 
L 4788 4609 
z
M 4788 3634 
L 4788 3903 
L 1613 3903 
L 1613 3634 
L 4788 3634 
z
M 925 1978 
L 5500 1978 
L 5500 616 
L 3731 616 
L 3731 -153 
Q 3731 -469 3559 -634 
Q 3388 -800 3030 -811 
Q 2672 -822 2206 -822 
Q 2156 -522 2044 -128 
L 2063 -128 
L 2550 -150 
Q 2738 -150 2811 -92 
Q 2884 -34 2888 109 
L 2888 616 
L 925 616 
L 925 1978 
z
M 4650 1128 
L 4650 1466 
L 1775 1466 
L 1775 1128 
L 4650 1128 
z
M 1819 559 
L 2225 -9 
Q 1338 -434 513 -791 
Q 338 -478 94 -122 
Q 963 159 1819 559 
z
M 4488 509 
Q 5394 209 6256 -116 
L 5888 -772 
Q 5131 -453 4138 -78 
L 4488 509 
z
" transform="scale(0.015625)"/>
      <path id="MicrosoftYaHei-Bold-ff1a" d="M 1594 3506 
Q 1831 3506 2000 3354 
Q 2169 3203 2169 2981 
Q 2169 2766 2003 2614 
Q 1838 2463 1594 2463 
Q 1353 2463 1189 2616 
Q 1025 2769 1025 2981 
Q 1025 3200 1192 3353 
Q 1359 3506 1594 3506 
z
M 1594 959 
Q 1831 959 2000 806 
Q 2169 653 2169 434 
Q 2169 222 2000 69 
Q 1831 -84 1594 -84 
Q 1356 -84 1190 69 
Q 1025 222 1025 434 
Q 1025 653 1190 806 
Q 1356 959 1594 959 
z
" transform="scale(0.015625)"/>
      <path id="MicrosoftYaHei-Bold-4ece" d="M 3763 5266 
L 4638 5266 
Q 4641 4069 4572 3209 
Q 5066 922 6319 -203 
Q 6206 -284 5556 -878 
Q 4784 -156 4269 1497 
Q 3944 444 2813 -859 
Q 2519 -578 2075 -247 
Q 2309 -6 2854 733 
Q 3400 1472 3584 2394 
Q 3769 3316 3763 5266 
z
M 1281 5266 
L 2163 5266 
Q 2169 3988 2094 3069 
L 3269 1759 
L 2625 1122 
Q 2284 1569 1956 1975 
Q 1706 572 675 -816 
Q 306 -253 69 9 
Q 866 1122 1077 2101 
Q 1288 3081 1281 5266 
z
" transform="scale(0.015625)"/>
      <path id="MicrosoftYaHei-Bold-539f" d="M 2450 1178 
L 3150 709 
Q 2894 375 2594 41 
Q 2922 9 3200 9 
Q 3525 9 3525 284 
L 3525 1253 
L 1950 1253 
L 1950 3872 
L 3006 3872 
Q 3106 4106 3184 4347 
L 1556 4347 
L 1556 2491 
Q 1556 216 775 -872 
Q 438 -528 69 -272 
Q 694 559 694 2603 
L 694 5078 
L 6250 5078 
L 6250 4347 
L 4106 4347 
Q 4003 4097 3888 3872 
L 5888 3872 
L 5888 1253 
L 4400 1253 
L 4400 34 
Q 4400 -344 4217 -547 
Q 4034 -750 3636 -767 
Q 3238 -784 2719 -778 
Q 2666 -359 2556 0 
Q 2266 -319 1938 -641 
L 1306 -84 
Q 1975 534 2450 1178 
z
M 5063 3234 
L 2775 3234 
L 2775 2853 
L 5063 2853 
L 5063 3234 
z
M 5063 1891 
L 5063 2278 
L 2775 2278 
L 2775 1891 
L 5063 1891 
z
M 5181 1203 
Q 5744 616 6325 -91 
L 5613 -609 
Q 5106 66 4531 759 
L 5181 1203 
z
" transform="scale(0.015625)"/>
      <path id="MicrosoftYaHei-Bold-5230" d="M 5125 5266 
L 5981 5266 
L 5981 166 
Q 5981 -297 5787 -537 
Q 5594 -778 5136 -800 
Q 4678 -822 4194 -822 
Q 4144 -547 3975 59 
Q 4506 47 4794 47 
Q 5125 47 5125 403 
L 5125 5266 
z
M 169 4984 
L 3625 4984 
L 3625 4222 
L 2063 4222 
Q 1681 3684 1306 3216 
Q 1578 3219 2491 3256 
Q 2303 3556 2175 3747 
L 2806 4097 
Q 3231 3509 3775 2666 
L 3106 2228 
L 2909 2563 
L 1725 2509 
Q 909 2469 765 2448 
Q 622 2428 413 2384 
L 150 3103 
Q 509 3284 1097 4222 
L 169 4222 
L 169 4984 
z
M 3844 4653 
L 4675 4653 
L 4675 659 
L 3844 659 
L 3844 4653 
z
M 313 1728 
L 1500 1728 
L 1500 2347 
L 2331 2347 
L 2331 1728 
L 3425 1728 
L 3425 966 
L 2331 966 
L 2331 328 
L 3613 422 
L 3563 -397 
Q 1650 -522 169 -653 
L 106 197 
L 1500 272 
L 1500 966 
L 313 966 
L 313 1728 
z
" transform="scale(0.015625)"/>
     </defs>
     <use xlink:href="#MicrosoftYaHei-Bold-4d"/>
     <use xlink:href="#MicrosoftYaHei-Bold-4c" transform="translate(102.832031 0)"/>
     <use xlink:href="#MicrosoftYaHei-Bold-43" transform="translate(154.769531 0)"/>
     <use xlink:href="#MicrosoftYaHei-Bold-43" transform="translate(218.978516 0)"/>
     <use xlink:href="#MicrosoftYaHei-Bold-4f9b" transform="translate(286.3125 0)"/>
     <use xlink:href="#MicrosoftYaHei-Bold-5e94" transform="translate(386.3125 0)"/>
     <use xlink:href="#MicrosoftYaHei-Bold-94fe" transform="translate(486.3125 0)"/>
     <use xlink:href="#MicrosoftYaHei-Bold-5168" transform="translate(586.3125 0)"/>
     <use xlink:href="#MicrosoftYaHei-Bold-666f" transform="translate(686.3125 0)"/>
     <use xlink:href="#MicrosoftYaHei-Bold-ff1a" transform="translate(786.3125 0)"/>
     <use xlink:href="#MicrosoftYaHei-Bold-4ece" transform="translate(886.3125 0)"/>
     <use xlink:href="#MicrosoftYaHei-Bold-539f" transform="translate(986.3125 0)"/>
     <use xlink:href="#MicrosoftYaHei-Bold-6750" transform="translate(1086.3125 0)"/>
     <use xlink:href="#MicrosoftYaHei-Bold-6599" transform="translate(1186.3125 0)"/>
     <use xlink:href="#MicrosoftYaHei-Bold-5230" transform="translate(1286.3125 0)"/>
     <use xlink:href="#MicrosoftYaHei-Bold-4e91" transform="translate(1386.3125 0)"/>
     <use xlink:href="#MicrosoftYaHei-Bold-5382" transform="translate(1486.3125 0)"/>
     <use xlink:href="#MicrosoftYaHei-Bold-5546" transform="translate(1586.3125 0)"/>
    </g>
   </g>
  </g>
 </g>
 <defs>
  <clipPath id="p057a262597">
   <rect x="7.2" y="23.591875" width="474" height="205.92"/>
  </clipPath>
 </defs>
</svg>
