<?xml version="1.0" encoding="utf-8" standalone="no"?>
<!DOCTYPE svg PUBLIC "-//W3C//DTD SVG 1.1//EN"
  "http://www.w3.org/Graphics/SVG/1.1/DTD/svg11.dtd">
<svg xmlns:xlink="http://www.w3.org/1999/xlink" width="476.485313pt" height="244.133469pt" viewBox="0 0 476.485313 244.133469" xmlns="http://www.w3.org/2000/svg" version="1.1">
 <metadata>
  <rdf:RDF xmlns:dc="http://purl.org/dc/elements/1.1/" xmlns:cc="http://creativecommons.org/ns#" xmlns:rdf="http://www.w3.org/1999/02/22-rdf-syntax-ns#">
   <cc:Work>
    <dc:type rdf:resource="http://purl.org/dc/dcmitype/StillImage"/>
    <dc:date>2026-06-12T23:34:36.028223</dc:date>
    <dc:format>image/svg+xml</dc:format>
    <dc:creator>
     <cc:Agent>
      <dc:title>Matplotlib v3.10.9, https://matplotlib.org/</dc:title>
     </cc:Agent>
    </dc:creator>
   </cc:Work>
  </rdf:RDF>
 </metadata>
 <defs>
  <style type="text/css">*{stroke-linejoin: round; stroke-linecap: butt}</style>
 </defs>
 <g id="figure_1">
  <g id="patch_1">
   <path d="M 0 244.133469 
L 476.485313 244.133469 
L 476.485313 0 
L 0 0 
z
" style="fill: #ffffff"/>
  </g>
  <g id="axes_1">
   <g id="patch_2">
    <path d="M 49.790313 192.614344 
L 437.250313 192.614344 
L 437.250313 39.293844 
L 49.790313 39.293844 
z
" style="fill: #ffffff"/>
   </g>
   <g id="matplotlib.axis_1">
    <g id="xtick_1">
     <g id="line2d_1">
      <defs>
       <path id="m668d645934" d="M 0 0 
L 0 3.5 
" style="stroke: #94a3b8; stroke-width: 0.8"/>
      </defs>
      <g>
       <use xlink:href="#m668d645934" x="90.374067" y="192.614344" style="fill: #94a3b8; stroke: #94a3b8; stroke-width: 0.8"/>
      </g>
     </g>
     <g id="text_1">
      <!-- 1990s -->
      <g style="fill: #94a3b8" transform="translate(77.735396 206.808719) scale(0.09 -0.09)">
       <defs>
        <path id="MicrosoftYaHei-31" d="M 1781 0 
L 1781 4141 
Q 1638 3997 1295 3819 
Q 953 3641 663 3569 
L 663 4169 
Q 1047 4275 1484 4508 
Q 1922 4741 2156 4947 
L 2388 4947 
L 2388 0 
L 1781 0 
z
" transform="scale(0.015625)"/>
        <path id="MicrosoftYaHei-39" d="M 578 656 
Q 978 425 1441 425 
Q 2091 425 2448 937 
Q 2806 1450 2806 2394 
Q 2800 2388 2794 2394 
Q 2475 1788 1722 1788 
Q 1113 1788 713 2206 
Q 313 2625 313 3294 
Q 313 4006 750 4464 
Q 1188 4922 1884 4922 
Q 2606 4922 3012 4355 
Q 3419 3788 3419 2703 
Q 3419 1363 2894 641 
Q 2369 -81 1441 -81 
Q 931 -81 578 84 
L 578 656 
z
M 931 3372 
Q 931 2884 1181 2598 
Q 1431 2313 1872 2313 
Q 2253 2313 2512 2573 
Q 2772 2834 2772 3206 
Q 2772 3728 2514 4070 
Q 2256 4413 1834 4413 
Q 1444 4413 1187 4116 
Q 931 3819 931 3372 
z
" transform="scale(0.015625)"/>
        <path id="MicrosoftYaHei-30" d="M 284 2325 
Q 284 3606 709 4264 
Q 1134 4922 1941 4922 
Q 3478 4922 3478 2441 
Q 3478 1216 3045 567 
Q 2613 -81 1831 -81 
Q 1094 -81 689 534 
Q 284 1150 284 2325 
z
M 909 2353 
Q 909 425 1888 425 
Q 2850 425 2850 2384 
Q 2850 4413 1906 4413 
Q 909 4413 909 2353 
z
" transform="scale(0.015625)"/>
        <path id="MicrosoftYaHei-73" d="M 353 747 
Q 816 413 1350 413 
Q 2066 413 2066 881 
Q 2066 1081 1909 1211 
Q 1753 1341 1275 1519 
Q 700 1750 528 1976 
Q 356 2203 356 2525 
Q 356 2984 745 3261 
Q 1134 3538 1703 3538 
Q 2144 3538 2522 3384 
L 2522 2794 
Q 2134 3044 1644 3044 
Q 1350 3044 1165 2916 
Q 981 2788 981 2578 
Q 981 2372 1114 2256 
Q 1247 2141 1703 1959 
Q 2281 1744 2484 1512 
Q 2688 1281 2688 941 
Q 2688 466 2298 192 
Q 1909 -81 1291 -81 
Q 753 -81 353 122 
L 353 747 
z
" transform="scale(0.015625)"/>
       </defs>
       <use xlink:href="#MicrosoftYaHei-31"/>
       <use xlink:href="#MicrosoftYaHei-39" transform="translate(58.642578 0)"/>
       <use xlink:href="#MicrosoftYaHei-39" transform="translate(117.285156 0)"/>
       <use xlink:href="#MicrosoftYaHei-30" transform="translate(175.927734 0)"/>
       <use xlink:href="#MicrosoftYaHei-73" transform="translate(234.570312 0)"/>
      </g>
      <!-- 通用型 -->
      <g style="fill: #94a3b8" transform="translate(76.874067 217.679312) scale(0.09 -0.09)">
       <defs>
        <path id="MicrosoftYaHei-901a" d="M 2594 147 
L 2150 147 
L 2150 3666 
L 3656 3666 
Q 3188 3906 2688 4147 
L 2944 4447 
Q 3434 4209 3866 3994 
L 4981 4578 
L 2050 4578 
L 2050 4978 
L 5806 4978 
L 5806 4559 
L 4297 3775 
Q 4406 3719 4509 3666 
L 5850 3666 
L 5850 841 
Q 5850 128 5194 128 
Q 4869 128 4488 147 
Q 4456 384 4394 628 
Q 4788 584 5069 584 
Q 5406 584 5406 909 
L 5406 1216 
L 4213 1216 
L 4213 241 
L 3769 241 
L 3769 1216 
L 2594 1216 
L 2594 147 
z
M 2663 -197 
L 4219 -222 
L 6300 -172 
Q 6231 -378 6125 -666 
L 4056 -678 
L 2569 -641 
Q 1506 -628 1081 91 
Q 825 -147 331 -747 
L 75 -228 
Q 628 306 875 538 
L 875 2641 
L 131 2641 
L 131 3103 
L 1356 3103 
L 1356 431 
Q 1741 -191 2663 -197 
z
M 856 5203 
Q 1175 4816 1731 4022 
L 1288 3709 
Q 781 4503 456 4934 
L 856 5203 
z
M 5406 3266 
L 4213 3266 
L 4213 2641 
L 5406 2641 
L 5406 3266 
z
M 4213 1616 
L 5406 1616 
L 5406 2241 
L 4213 2241 
L 4213 1616 
z
M 2594 2641 
L 3769 2641 
L 3769 3266 
L 2594 3266 
L 2594 2641 
z
M 2594 1616 
L 3769 1616 
L 3769 2241 
L 2594 2241 
L 2594 1616 
z
" transform="scale(0.015625)"/>
        <path id="MicrosoftYaHei-7528" d="M 3088 -734 
L 3088 1253 
L 1269 1253 
Q 1163 -47 513 -903 
Q 350 -697 144 -472 
Q 550 103 694 803 
Q 831 1478 831 2716 
L 831 4947 
L 5925 4947 
L 5925 -22 
Q 5925 -766 5219 -766 
Q 4788 -766 4250 -747 
Q 4219 -541 4156 -228 
Q 4700 -266 5038 -266 
Q 5425 -266 5425 103 
L 5425 1253 
L 3588 1253 
L 3588 -734 
L 3088 -734 
z
M 3588 1703 
L 5425 1703 
L 5425 2872 
L 3588 2872 
L 3588 1703 
z
M 5425 4484 
L 3588 4484 
L 3588 3322 
L 5425 3322 
L 5425 4484 
z
M 1303 1703 
L 3088 1703 
L 3088 2872 
L 1331 2872 
Q 1350 2266 1303 1703 
z
M 1331 4484 
L 1331 3322 
L 3088 3322 
L 3088 4484 
L 1331 4484 
z
" transform="scale(0.015625)"/>
        <path id="MicrosoftYaHei-578b" d="M 150 3503 
L 1100 3503 
Q 1106 3638 1106 4547 
L 413 4547 
L 413 4959 
L 3675 4959 
L 3675 4547 
L 2994 4547 
L 2994 3503 
L 3881 3503 
L 3881 3091 
L 2994 3091 
L 2994 1747 
L 2538 1747 
L 2538 3091 
L 1528 3091 
Q 1450 2191 638 1534 
Q 475 1716 294 1897 
Q 1013 2453 1066 3091 
L 150 3091 
L 150 3503 
z
M 138 -103 
L 2938 -103 
L 2938 741 
L 706 741 
L 706 1172 
L 2938 1172 
L 2938 1659 
L 3425 1659 
L 3425 1172 
L 5713 1172 
L 5713 741 
L 3425 741 
L 3425 -103 
L 6256 -103 
L 6256 -534 
L 138 -534 
L 138 -103 
z
M 5856 5209 
L 5856 2334 
Q 5856 1672 5200 1659 
Q 4825 1647 4331 1659 
Q 4306 1897 4256 2153 
Q 4781 2122 5044 2122 
Q 5400 2122 5400 2516 
L 5400 5209 
L 5856 5209 
z
M 1556 3503 
L 2538 3503 
L 2538 4547 
L 1563 4547 
Q 1563 3791 1556 3503 
z
M 4138 4859 
L 4588 4859 
L 4588 2697 
L 4138 2697 
L 4138 4859 
z
" transform="scale(0.015625)"/>
       </defs>
       <use xlink:href="#MicrosoftYaHei-901a"/>
       <use xlink:href="#MicrosoftYaHei-7528" transform="translate(100 0)"/>
       <use xlink:href="#MicrosoftYaHei-578b" transform="translate(200 0)"/>
      </g>
     </g>
    </g>
    <g id="xtick_2">
     <g id="line2d_2">
      <g>
       <use xlink:href="#m668d645934" x="166.94719" y="192.614344" style="fill: #94a3b8; stroke: #94a3b8; stroke-width: 0.8"/>
      </g>
     </g>
     <g id="text_2">
      <!-- 2000s -->
      <g style="fill: #94a3b8" transform="translate(154.308518 206.808719) scale(0.09 -0.09)">
       <defs>
        <path id="MicrosoftYaHei-32" d="M 2666 3572 
Q 2666 3963 2419 4186 
Q 2172 4409 1747 4409 
Q 1447 4409 1140 4256 
Q 834 4103 569 3819 
L 569 4413 
Q 806 4659 1107 4790 
Q 1409 4922 1816 4922 
Q 2472 4922 2872 4570 
Q 3272 4219 3272 3619 
Q 3272 3084 3026 2693 
Q 2781 2303 2188 1894 
Q 1581 1475 1376 1294 
Q 1172 1113 1090 947 
Q 1009 781 1009 544 
L 3416 544 
L 3416 0 
L 372 0 
L 372 241 
Q 372 659 486 951 
Q 600 1244 862 1520 
Q 1125 1797 1681 2184 
Q 2250 2584 2458 2886 
Q 2666 3188 2666 3572 
z
" transform="scale(0.015625)"/>
       </defs>
       <use xlink:href="#MicrosoftYaHei-32"/>
       <use xlink:href="#MicrosoftYaHei-30" transform="translate(58.642578 0)"/>
       <use xlink:href="#MicrosoftYaHei-30" transform="translate(117.285156 0)"/>
       <use xlink:href="#MicrosoftYaHei-30" transform="translate(175.927734 0)"/>
       <use xlink:href="#MicrosoftYaHei-73" transform="translate(234.570312 0)"/>
      </g>
      <!-- 高容型 -->
      <g style="fill: #94a3b8" transform="translate(153.44719 217.679312) scale(0.09 -0.09)">
       <defs>
        <path id="MicrosoftYaHei-9ad8" d="M 1194 3922 
L 5250 3922 
L 5250 2397 
L 4775 2397 
L 4775 2597 
L 1669 2597 
L 1669 2403 
L 1194 2403 
L 1194 3922 
z
M 969 -784 
L 494 -784 
L 494 2147 
L 5956 2147 
L 5956 22 
Q 5956 -747 5231 -747 
Q 4825 -747 4319 -734 
Q 4281 -522 4219 -241 
Q 4794 -284 5100 -284 
Q 5481 -284 5481 97 
L 5481 1747 
L 969 1747 
L 969 -784 
z
M 1813 1334 
L 4638 1334 
L 4638 28 
L 2263 28 
L 2263 -241 
L 1813 -241 
L 1813 1334 
z
M 125 4747 
L 2988 4747 
Q 2850 5013 2725 5216 
L 3194 5403 
Q 3372 5094 3541 4747 
L 6275 4747 
L 6275 4334 
L 125 4334 
L 125 4747 
z
M 4775 3534 
L 1669 3534 
L 1669 2984 
L 4775 2984 
L 4775 3534 
z
M 4188 416 
L 4188 947 
L 2263 947 
L 2263 416 
L 4188 416 
z
" transform="scale(0.015625)"/>
        <path id="MicrosoftYaHei-5bb9" d="M 3550 3147 
Q 3500 3091 3444 3022 
Q 4644 1872 6313 1447 
Q 6106 1134 6006 916 
Q 5594 1066 5225 1247 
L 5225 -859 
L 4725 -859 
L 4725 -578 
L 1669 -578 
L 1669 -859 
L 1169 -859 
L 1169 1191 
Q 763 972 338 797 
Q 225 1028 63 1241 
Q 2000 2059 3025 3228 
L 3550 3147 
z
M 363 4572 
L 3038 4572 
Q 2900 4822 2725 5109 
L 3206 5328 
Q 3438 4972 3644 4572 
L 6031 4572 
L 6031 3522 
L 5525 3522 
L 5525 4122 
L 863 4122 
L 863 3497 
L 363 3497 
L 363 4572 
z
M 4725 934 
L 1669 934 
L 1669 -128 
L 4725 -128 
L 4725 934 
z
M 3163 2684 
Q 2394 1928 1494 1384 
L 4950 1384 
Q 3869 1953 3163 2684 
z
M 2338 3847 
L 2638 3441 
Q 1488 2734 706 2359 
Q 594 2566 419 2791 
Q 1494 3259 2338 3847 
z
M 4006 3841 
Q 4944 3409 5938 2859 
L 5650 2416 
Q 4875 2891 3744 3453 
L 4006 3841 
z
" transform="scale(0.015625)"/>
       </defs>
       <use xlink:href="#MicrosoftYaHei-9ad8"/>
       <use xlink:href="#MicrosoftYaHei-5bb9" transform="translate(100 0)"/>
       <use xlink:href="#MicrosoftYaHei-578b" transform="translate(200 0)"/>
      </g>
     </g>
    </g>
    <g id="xtick_3">
     <g id="line2d_3">
      <g>
       <use xlink:href="#m668d645934" x="243.520313" y="192.614344" style="fill: #94a3b8; stroke: #94a3b8; stroke-width: 0.8"/>
      </g>
     </g>
     <g id="text_3">
      <!-- 2010s -->
      <g style="fill: #94a3b8" transform="translate(230.881641 206.808719) scale(0.09 -0.09)">
       <use xlink:href="#MicrosoftYaHei-32"/>
       <use xlink:href="#MicrosoftYaHei-30" transform="translate(58.642578 0)"/>
       <use xlink:href="#MicrosoftYaHei-31" transform="translate(117.285156 0)"/>
       <use xlink:href="#MicrosoftYaHei-30" transform="translate(175.927734 0)"/>
       <use xlink:href="#MicrosoftYaHei-73" transform="translate(234.570312 0)"/>
      </g>
      <!-- 超薄型 -->
      <g style="fill: #94a3b8" transform="translate(230.020313 217.679312) scale(0.09 -0.09)">
       <defs>
        <path id="MicrosoftYaHei-8d85" d="M 106 -266 
Q 581 566 619 2241 
L 1081 2216 
Q 1059 1606 991 1091 
Q 1213 603 1581 306 
L 1581 2616 
L 138 2616 
L 138 3072 
L 1388 3072 
L 1388 3966 
L 356 3966 
L 356 4422 
L 1388 4422 
L 1388 5309 
L 1875 5309 
L 1875 4422 
L 2806 4422 
L 2806 3966 
L 1875 3966 
L 1875 3072 
L 2888 3072 
L 2888 2616 
L 2050 2616 
L 2050 1647 
L 2944 1647 
L 2944 1197 
L 2050 1197 
L 2050 28 
Q 2500 -159 3094 -166 
Q 4281 -184 6313 -141 
Q 6200 -422 6138 -634 
Q 4250 -641 2938 -616 
Q 1428 -584 884 472 
Q 706 -341 381 -853 
Q 256 -559 106 -266 
z
M 3275 2447 
L 5888 2447 
L 5888 209 
L 5425 209 
L 5425 478 
L 3738 478 
L 3738 172 
L 3275 172 
L 3275 2447 
z
M 2969 4616 
L 2969 5041 
L 5956 5041 
Q 5925 4184 5869 3603 
Q 5800 2884 5125 2866 
Q 4788 2859 4344 2884 
Q 4306 3116 4250 3384 
Q 4713 3309 5031 3316 
Q 5388 3316 5425 3716 
Q 5469 4072 5488 4616 
L 4303 4616 
Q 4250 3203 3250 2641 
Q 3131 2834 2944 3041 
Q 3813 3516 3831 4616 
L 2969 4616 
z
M 5425 2022 
L 3738 2022 
L 3738 903 
L 5425 903 
L 5425 2022 
z
" transform="scale(0.015625)"/>
        <path id="MicrosoftYaHei-8584" d="M 2338 953 
L 1925 953 
L 1925 3066 
L 3625 3066 
L 3625 3441 
L 1681 3441 
L 1681 3797 
L 3625 3797 
L 3625 4103 
L 4050 4103 
L 4050 3797 
L 5038 3797 
Q 4928 3959 4806 4122 
L 5138 4316 
Q 5313 4081 5491 3797 
L 6156 3797 
L 6156 3441 
L 4050 3441 
L 4050 3066 
L 5769 3066 
L 5769 1059 
L 5356 1059 
L 5356 1322 
L 4050 1322 
L 4050 966 
L 3625 966 
L 3625 1322 
L 2338 1322 
L 2338 953 
z
M 2269 159 
L 2559 403 
L 1450 403 
L 1450 778 
L 4888 778 
L 4888 1047 
L 5338 1047 
L 5338 778 
L 6288 778 
L 6288 403 
L 5338 403 
L 5338 -3 
Q 5338 -753 4581 -753 
Q 4281 -753 3706 -747 
Q 3675 -528 3619 -259 
Q 4094 -309 4488 -309 
Q 4888 -309 4888 78 
L 4888 403 
L 2600 403 
Q 3000 25 3288 -291 
L 2950 -578 
Q 2600 -134 2269 159 
z
M 125 4816 
L 2000 4816 
L 2000 5303 
L 2438 5303 
L 2438 4816 
L 4000 4816 
L 4000 5303 
L 4438 5303 
L 4438 4816 
L 6288 4816 
L 6288 4441 
L 4438 4441 
L 4438 4191 
L 4000 4191 
L 4000 4441 
L 2438 4441 
L 2438 4078 
L 2000 4078 
L 2000 4441 
L 125 4441 
L 125 4816 
z
M 250 -634 
Q 613 316 950 1528 
Q 1150 1409 1369 1316 
Q 1013 216 713 -822 
L 250 -634 
z
M 5356 2722 
L 4050 2722 
L 4050 2353 
L 5356 2353 
L 5356 2722 
z
M 4050 1653 
L 5356 1653 
L 5356 2022 
L 4050 2022 
L 4050 1653 
z
M 2338 1653 
L 3625 1653 
L 3625 2022 
L 2338 2022 
L 2338 1653 
z
M 2338 2353 
L 3625 2353 
L 3625 2722 
L 2338 2722 
L 2338 2353 
z
M 88 2547 
L 344 2872 
Q 781 2584 1244 2228 
L 963 1872 
Q 531 2247 88 2547 
z
M 431 3709 
L 694 4028 
Q 1119 3747 1575 3391 
L 1281 3034 
Q 850 3422 431 3709 
z
" transform="scale(0.015625)"/>
       </defs>
       <use xlink:href="#MicrosoftYaHei-8d85"/>
       <use xlink:href="#MicrosoftYaHei-8584" transform="translate(100 0)"/>
       <use xlink:href="#MicrosoftYaHei-578b" transform="translate(200 0)"/>
      </g>
     </g>
    </g>
    <g id="xtick_4">
     <g id="line2d_4">
      <g>
       <use xlink:href="#m668d645934" x="320.093435" y="192.614344" style="fill: #94a3b8; stroke: #94a3b8; stroke-width: 0.8"/>
      </g>
     </g>
     <g id="text_4">
      <!-- 2020s -->
      <g style="fill: #94a3b8" transform="translate(307.454763 206.808719) scale(0.09 -0.09)">
       <use xlink:href="#MicrosoftYaHei-32"/>
       <use xlink:href="#MicrosoftYaHei-30" transform="translate(58.642578 0)"/>
       <use xlink:href="#MicrosoftYaHei-32" transform="translate(117.285156 0)"/>
       <use xlink:href="#MicrosoftYaHei-30" transform="translate(175.927734 0)"/>
       <use xlink:href="#MicrosoftYaHei-73" transform="translate(234.570312 0)"/>
      </g>
      <!-- 车规型 -->
      <g style="fill: #94a3b8" transform="translate(306.593435 217.679312) scale(0.09 -0.09)">
       <defs>
        <path id="MicrosoftYaHei-8f66" d="M 163 922 
L 3206 922 
L 3206 1991 
L 913 1991 
L 913 2447 
Q 1334 3200 1688 3909 
L 400 3909 
L 400 4372 
L 1913 4372 
Q 2156 4878 2363 5359 
L 2831 5216 
Q 2625 4772 2434 4372 
L 5950 4372 
L 5950 3909 
L 2209 3909 
Q 1797 3063 1456 2441 
L 3206 2441 
L 3206 3647 
L 3694 3647 
L 3694 2441 
L 5500 2441 
L 5500 1991 
L 3694 1991 
L 3694 922 
L 6188 922 
L 6188 459 
L 3694 459 
L 3694 -853 
L 3206 -853 
L 3206 459 
L 163 459 
L 163 922 
z
" transform="scale(0.015625)"/>
        <path id="MicrosoftYaHei-89c4" d="M 4006 4047 
L 4469 4047 
L 4469 3116 
Q 4469 2272 4344 1653 
L 4756 1653 
L 4756 109 
Q 4756 -253 5100 -253 
L 5406 -253 
Q 5719 -253 5756 66 
Q 5800 428 5819 903 
Q 6113 778 6313 709 
Q 6269 266 6219 -84 
Q 6119 -691 5494 -691 
L 4975 -691 
Q 4300 -691 4300 34 
L 4300 1459 
Q 4019 234 2581 -878 
Q 2331 -597 2200 -478 
Q 3313 334 3669 1109 
Q 4006 1778 4006 3122 
L 4006 4047 
z
M 138 2559 
L 1100 2559 
Q 1113 2859 1113 3678 
L 219 3678 
L 219 4103 
L 1113 4103 
L 1113 5266 
L 1581 5266 
L 1581 4103 
L 2481 4103 
L 2481 3678 
L 1581 3678 
Q 1581 3216 1569 2559 
L 2581 2559 
L 2581 2134 
L 1544 2134 
Q 1538 1934 1513 1728 
Q 2106 1178 2788 491 
L 2400 128 
Q 1938 709 1431 1241 
Q 1144 59 394 -822 
Q 281 -653 94 -384 
Q 1038 791 1075 2134 
L 138 2134 
L 138 2559 
z
M 2763 5003 
L 5794 5003 
L 5794 1259 
L 5331 1259 
L 5331 4559 
L 3225 4559 
L 3225 1172 
L 2763 1172 
L 2763 5003 
z
" transform="scale(0.015625)"/>
       </defs>
       <use xlink:href="#MicrosoftYaHei-8f66"/>
       <use xlink:href="#MicrosoftYaHei-89c4" transform="translate(100 0)"/>
       <use xlink:href="#MicrosoftYaHei-578b" transform="translate(200 0)"/>
      </g>
     </g>
    </g>
    <g id="xtick_5">
     <g id="line2d_5">
      <g>
       <use xlink:href="#m668d645934" x="396.666558" y="192.614344" style="fill: #94a3b8; stroke: #94a3b8; stroke-width: 0.8"/>
      </g>
     </g>
     <g id="text_5">
      <!-- 2025+ -->
      <g style="fill: #94a3b8" transform="translate(382.773511 206.808719) scale(0.09 -0.09)">
       <defs>
        <path id="MicrosoftYaHei-35" d="M 3294 1494 
Q 3294 784 2823 350 
Q 2353 -84 1559 -84 
Q 878 -84 544 119 
L 544 744 
Q 1034 425 1544 425 
Q 2050 425 2361 704 
Q 2672 984 2672 1447 
Q 2672 1909 2348 2167 
Q 2025 2425 1434 2425 
Q 978 2425 613 2384 
L 791 4841 
L 3053 4841 
L 3053 4303 
L 1306 4303 
L 1206 2931 
L 1647 2950 
Q 2416 2950 2855 2567 
Q 3294 2184 3294 1494 
z
" transform="scale(0.015625)"/>
        <path id="MicrosoftYaHei-2b" d="M 3972 1772 
L 2613 1772 
L 2613 419 
L 2141 419 
L 2141 1772 
L 788 1772 
L 788 2250 
L 2141 2250 
L 2141 3603 
L 2613 3603 
L 2613 2250 
L 3972 2250 
L 3972 1772 
z
" transform="scale(0.015625)"/>
       </defs>
       <use xlink:href="#MicrosoftYaHei-32"/>
       <use xlink:href="#MicrosoftYaHei-30" transform="translate(58.642578 0)"/>
       <use xlink:href="#MicrosoftYaHei-32" transform="translate(117.285156 0)"/>
       <use xlink:href="#MicrosoftYaHei-35" transform="translate(175.927734 0)"/>
       <use xlink:href="#MicrosoftYaHei-2b" transform="translate(234.570312 0)"/>
      </g>
      <!-- AI专用 -->
      <g style="fill: #94a3b8" transform="translate(383.177808 217.679312) scale(0.09 -0.09)">
       <defs>
        <path id="MicrosoftYaHei-41" d="M 4428 0 
L 3738 0 
L 3244 1325 
L 1228 1325 
L 763 0 
L 72 0 
L 1916 4841 
L 2584 4841 
L 4428 0 
z
M 3050 1872 
L 2319 3884 
Q 2284 3981 2244 4222 
L 2228 4222 
Q 2194 4003 2150 3884 
L 1425 1872 
L 3050 1872 
z
" transform="scale(0.015625)"/>
        <path id="MicrosoftYaHei-49" d="M 1250 4841 
L 1250 0 
L 625 0 
L 625 4841 
L 1250 4841 
z
" transform="scale(0.015625)"/>
        <path id="MicrosoftYaHei-4e13" d="M 1644 1041 
Q 2472 672 3431 219 
L 4844 1441 
L 1344 1441 
L 1344 1903 
L 1647 2678 
L 156 2678 
L 156 3153 
L 1834 3153 
L 2172 4009 
L 538 4009 
L 538 4484 
L 2359 4484 
L 2688 5316 
L 3256 5316 
L 2928 4484 
L 5888 4484 
L 5888 4009 
L 2741 4009 
L 2403 3153 
L 6288 3153 
L 6288 2678 
L 2216 2678 
L 1913 1909 
L 5556 1909 
L 5556 1422 
L 3894 0 
Q 4313 -200 4756 -416 
L 4450 -891 
Q 2881 -66 1381 622 
L 1644 1041 
z
" transform="scale(0.015625)"/>
       </defs>
       <use xlink:href="#MicrosoftYaHei-41"/>
       <use xlink:href="#MicrosoftYaHei-49" transform="translate(70.361328 0)"/>
       <use xlink:href="#MicrosoftYaHei-4e13" transform="translate(99.755859 0)"/>
       <use xlink:href="#MicrosoftYaHei-7528" transform="translate(199.755859 0)"/>
      </g>
     </g>
    </g>
   </g>
   <g id="matplotlib.axis_2">
    <g id="ytick_1">
     <g id="line2d_6">
      <defs>
       <path id="m08538c58b0" d="M 0 0 
L -3.5 0 
" style="stroke: #94a3b8; stroke-width: 0.8"/>
      </defs>
      <g>
       <use xlink:href="#m08538c58b0" x="49.790313" y="192.614344" style="fill: #94a3b8; stroke: #94a3b8; stroke-width: 0.8"/>
      </g>
     </g>
     <g id="text_6">
      <!-- 0 -->
      <g style="fill: #94a3b8" transform="translate(37.512656 196.211531) scale(0.09 -0.09)">
       <use xlink:href="#MicrosoftYaHei-30"/>
      </g>
     </g>
    </g>
    <g id="ytick_2">
     <g id="line2d_7">
      <g>
       <use xlink:href="#m08538c58b0" x="49.790313" y="163.410439" style="fill: #94a3b8; stroke: #94a3b8; stroke-width: 0.8"/>
      </g>
     </g>
     <g id="text_7">
      <!-- 200 -->
      <g style="fill: #94a3b8" transform="translate(26.957344 167.007626) scale(0.09 -0.09)">
       <use xlink:href="#MicrosoftYaHei-32"/>
       <use xlink:href="#MicrosoftYaHei-30" transform="translate(58.642578 0)"/>
       <use xlink:href="#MicrosoftYaHei-30" transform="translate(117.285156 0)"/>
      </g>
     </g>
    </g>
    <g id="ytick_3">
     <g id="line2d_8">
      <g>
       <use xlink:href="#m08538c58b0" x="49.790313" y="134.206534" style="fill: #94a3b8; stroke: #94a3b8; stroke-width: 0.8"/>
      </g>
     </g>
     <g id="text_8">
      <!-- 400 -->
      <g style="fill: #94a3b8" transform="translate(26.957344 137.803722) scale(0.09 -0.09)">
       <defs>
        <path id="MicrosoftYaHei-34" d="M 2906 4841 
L 2906 1644 
L 3631 1644 
L 3631 1138 
L 2906 1138 
L 2906 0 
L 2313 0 
L 2313 1138 
L 53 1138 
L 53 1616 
Q 656 2294 1265 3178 
Q 1875 4063 2272 4841 
L 2906 4841 
z
M 741 1644 
L 2313 1644 
L 2313 3950 
Q 1988 3366 1616 2817 
Q 1244 2269 741 1644 
z
" transform="scale(0.015625)"/>
       </defs>
       <use xlink:href="#MicrosoftYaHei-34"/>
       <use xlink:href="#MicrosoftYaHei-30" transform="translate(58.642578 0)"/>
       <use xlink:href="#MicrosoftYaHei-30" transform="translate(117.285156 0)"/>
      </g>
     </g>
    </g>
    <g id="ytick_4">
     <g id="line2d_9">
      <g>
       <use xlink:href="#m08538c58b0" x="49.790313" y="105.002629" style="fill: #94a3b8; stroke: #94a3b8; stroke-width: 0.8"/>
      </g>
     </g>
     <g id="text_9">
      <!-- 600 -->
      <g style="fill: #94a3b8" transform="translate(26.957344 108.599817) scale(0.09 -0.09)">
       <defs>
        <path id="MicrosoftYaHei-36" d="M 3181 4219 
Q 2803 4413 2391 4413 
Q 1763 4413 1381 3866 
Q 1000 3319 994 2372 
L 1009 2372 
Q 1353 3038 2106 3038 
Q 2734 3038 3109 2628 
Q 3484 2219 3484 1541 
Q 3484 831 3051 375 
Q 2619 -81 1947 -81 
Q 1209 -81 789 495 
Q 369 1072 369 2131 
Q 369 3413 920 4167 
Q 1472 4922 2372 4922 
Q 2888 4922 3181 4781 
L 3181 4219 
z
M 1031 1584 
Q 1031 1106 1286 765 
Q 1541 425 1963 425 
Q 2363 425 2613 719 
Q 2863 1013 2863 1475 
Q 2863 1975 2627 2253 
Q 2391 2531 1956 2531 
Q 1544 2531 1287 2250 
Q 1031 1969 1031 1584 
z
" transform="scale(0.015625)"/>
       </defs>
       <use xlink:href="#MicrosoftYaHei-36"/>
       <use xlink:href="#MicrosoftYaHei-30" transform="translate(58.642578 0)"/>
       <use xlink:href="#MicrosoftYaHei-30" transform="translate(117.285156 0)"/>
      </g>
     </g>
    </g>
    <g id="ytick_5">
     <g id="line2d_10">
      <g>
       <use xlink:href="#m08538c58b0" x="49.790313" y="75.798725" style="fill: #94a3b8; stroke: #94a3b8; stroke-width: 0.8"/>
      </g>
     </g>
     <g id="text_10">
      <!-- 800 -->
      <g style="fill: #94a3b8" transform="translate(26.957344 79.395912) scale(0.09 -0.09)">
       <defs>
        <path id="MicrosoftYaHei-38" d="M 306 1350 
Q 306 1769 556 2122 
Q 806 2475 1200 2625 
Q 884 2803 700 3081 
Q 516 3359 516 3684 
Q 516 4028 692 4312 
Q 869 4597 1183 4759 
Q 1497 4922 1875 4922 
Q 2256 4922 2572 4761 
Q 2888 4600 3063 4315 
Q 3238 4031 3238 3684 
Q 3238 3366 3058 3086 
Q 2878 2806 2559 2625 
Q 2953 2472 3200 2119 
Q 3447 1766 3447 1350 
Q 3447 938 3250 611 
Q 3053 284 2690 103 
Q 2328 -78 1875 -78 
Q 1425 -78 1065 103 
Q 706 284 506 612 
Q 306 941 306 1350 
z
M 906 1378 
Q 906 947 1172 687 
Q 1438 428 1878 428 
Q 2309 428 2582 692 
Q 2856 956 2856 1378 
Q 2856 1778 2579 2051 
Q 2303 2325 1878 2325 
Q 1456 2325 1181 2058 
Q 906 1791 906 1378 
z
M 1081 3634 
Q 1081 3309 1312 3076 
Q 1544 2844 1878 2844 
Q 2206 2844 2445 3078 
Q 2684 3313 2684 3634 
Q 2684 3963 2454 4191 
Q 2225 4419 1878 4419 
Q 1534 4419 1307 4195 
Q 1081 3972 1081 3634 
z
" transform="scale(0.015625)"/>
       </defs>
       <use xlink:href="#MicrosoftYaHei-38"/>
       <use xlink:href="#MicrosoftYaHei-30" transform="translate(58.642578 0)"/>
       <use xlink:href="#MicrosoftYaHei-30" transform="translate(117.285156 0)"/>
      </g>
     </g>
    </g>
    <g id="ytick_6">
     <g id="line2d_11">
      <g>
       <use xlink:href="#m08538c58b0" x="49.790313" y="46.59482" style="fill: #94a3b8; stroke: #94a3b8; stroke-width: 0.8"/>
      </g>
     </g>
     <g id="text_11">
      <!-- 1000 -->
      <g style="fill: #94a3b8" transform="translate(21.679688 50.192007) scale(0.09 -0.09)">
       <use xlink:href="#MicrosoftYaHei-31"/>
       <use xlink:href="#MicrosoftYaHei-30" transform="translate(58.642578 0)"/>
       <use xlink:href="#MicrosoftYaHei-30" transform="translate(117.285156 0)"/>
       <use xlink:href="#MicrosoftYaHei-30" transform="translate(175.927734 0)"/>
      </g>
     </g>
    </g>
    <g id="text_12">
     <!-- 堆叠层数 -->
     <g style="fill: #1a56db" transform="translate(15.19375 135.954094) rotate(-90) scale(0.1 -0.1)">
      <defs>
       <path id="MicrosoftYaHei-5806" d="M 1963 2691 
Q 2700 3716 3288 5278 
L 3744 5134 
Q 3528 4591 3300 4097 
L 6206 4097 
L 6206 3672 
L 4863 3672 
L 4863 2728 
L 6088 2728 
L 6088 2328 
L 4863 2328 
L 4863 1384 
L 6081 1384 
L 6081 984 
L 4863 984 
L 4863 34 
L 6275 34 
L 6275 -366 
L 3250 -366 
L 3250 -828 
L 2775 -828 
L 2775 3066 
Q 2547 2659 2306 2291 
Q 2181 2472 1963 2691 
z
M 81 478 
Q 519 588 1006 722 
L 1006 3316 
L 169 3316 
L 169 3759 
L 1006 3759 
L 1006 5259 
L 1469 5259 
L 1469 3759 
L 2275 3759 
L 2275 3316 
L 1469 3316 
L 1469 850 
Q 1919 978 2413 1128 
Q 2425 841 2444 634 
Q 1313 316 250 -16 
L 81 478 
z
M 3250 34 
L 4388 34 
L 4388 984 
L 3250 984 
L 3250 34 
z
M 3250 1384 
L 4388 1384 
L 4388 2328 
L 3250 2328 
L 3250 1384 
z
M 3250 2728 
L 4388 2728 
L 4388 3672 
L 3250 3672 
L 3250 2728 
z
M 4156 5097 
L 4544 5303 
Q 4900 4772 5138 4353 
L 4706 4116 
Q 4450 4616 4156 5097 
z
" transform="scale(0.015625)"/>
       <path id="MicrosoftYaHei-53e0" d="M 131 -309 
L 1188 -309 
L 1188 1534 
L 5206 1534 
L 5206 -309 
L 6263 -309 
L 6263 -622 
L 131 -622 
L 131 -309 
z
M 969 4416 
L 1094 4691 
Q 2100 4581 3375 4397 
Q 3972 4563 4538 4791 
L 869 4791 
L 869 5103 
L 5294 5103 
L 5294 4753 
Q 4709 4491 4063 4288 
Q 4819 4159 5638 3997 
L 5513 3653 
Q 4453 3919 3406 4100 
Q 2166 3784 713 3672 
Q 644 3841 550 3984 
Q 1634 4016 2638 4219 
Q 1828 4334 969 4416 
z
M 3288 2934 
L 3413 3209 
Q 4078 3072 4681 2916 
Q 5097 3078 5425 3297 
L 3350 3297 
L 3350 3584 
L 5956 3584 
L 5956 3284 
Q 5591 3006 5144 2794 
Q 5675 2644 6188 2484 
L 6025 2184 
Q 5372 2422 4719 2609 
Q 4094 2372 3338 2241 
Q 3256 2391 3150 2547 
Q 3703 2619 4172 2747 
Q 3766 2841 3288 2934 
z
M 375 2172 
L 6025 2172 
L 6025 1334 
L 5588 1334 
L 5588 1859 
L 813 1859 
L 813 1334 
L 375 1334 
L 375 2172 
z
M 363 2966 
L 494 3234 
Q 1094 3091 1775 2913 
Q 2166 3075 2506 3297 
L 338 3297 
L 338 3584 
L 2988 3584 
L 2988 3284 
Q 2625 3003 2209 2791 
Q 2597 2675 2975 2559 
L 2850 2247 
Q 2341 2438 1791 2600 
Q 1134 2331 356 2209 
Q 281 2359 175 2509 
Q 772 2581 1288 2741 
Q 809 2863 363 2966 
z
M 1600 297 
L 4794 297 
L 4794 622 
L 1600 622 
L 1600 297 
z
M 4794 1234 
L 1600 1234 
L 1600 909 
L 4794 909 
L 4794 1234 
z
M 1600 -309 
L 4794 -309 
L 4794 9 
L 1600 9 
L 1600 -309 
z
" transform="scale(0.015625)"/>
       <path id="MicrosoftYaHei-5c42" d="M 394 -847 
Q 213 -603 50 -409 
Q 825 678 825 2709 
L 825 5022 
L 5963 5022 
L 5963 3053 
L 5488 3053 
L 5488 3284 
L 1300 3284 
L 1300 2609 
Q 1300 497 394 -847 
z
M 4294 559 
L 4631 853 
Q 5556 53 6100 -528 
L 5713 -872 
Q 5522 -656 5328 -453 
Q 3425 -463 2219 -553 
Q 2044 -566 1775 -634 
L 1563 -172 
Q 1938 -28 2144 147 
Q 2500 497 2906 1034 
L 1375 1034 
L 1375 1472 
L 6288 1472 
L 6288 1034 
L 3550 1034 
Q 3022 388 2569 -66 
Q 3741 -59 4922 -34 
Q 4613 272 4294 559 
z
M 1300 4584 
L 1300 3722 
L 5488 3722 
L 5488 4584 
L 1300 4584 
z
M 1819 2603 
L 5731 2603 
L 5731 2166 
L 1819 2166 
L 1819 2603 
z
" transform="scale(0.015625)"/>
       <path id="MicrosoftYaHei-6570" d="M 4175 5303 
L 4675 5228 
Q 4544 4622 4369 4097 
L 6281 4097 
L 6281 3672 
L 5888 3672 
Q 5731 1834 5088 753 
Q 5594 66 6375 -372 
Q 6175 -647 6038 -866 
Q 5275 -372 4769 309 
Q 4194 -403 3400 -928 
Q 3263 -747 3044 -534 
Q 3919 41 4463 772 
Q 3956 1647 3794 2791 
Q 3663 2559 3519 2359 
Q 3394 2541 3206 2759 
Q 3931 3803 4175 5303 
z
M 150 1697 
L 1100 1697 
Q 1238 1934 1369 2184 
L 1819 2041 
Q 1719 1866 1619 1697 
L 3150 1697 
L 3150 1291 
Q 2913 678 2431 216 
Q 2775 53 3131 -109 
L 2856 -541 
Q 2469 -322 2050 -103 
Q 1344 -609 269 -903 
Q 169 -703 56 -466 
Q 969 -259 1600 128 
Q 1063 403 475 691 
Q 675 978 863 1284 
L 150 1284 
L 150 1697 
z
M 219 3847 
L 1656 3847 
L 1656 5247 
L 2119 5247 
L 2119 3847 
L 3319 3847 
L 3319 3434 
L 2119 3434 
L 2119 3053 
L 2306 3266 
Q 2888 2841 3281 2516 
L 2981 2166 
Q 2638 2491 2119 2897 
L 2119 2184 
L 1656 2184 
L 1656 3059 
Q 1088 2466 331 2016 
Q 213 2197 63 2397 
Q 850 2822 1506 3434 
L 219 3434 
L 219 3847 
z
M 5388 3672 
L 4219 3672 
Q 4188 3591 4150 3516 
Q 4263 2191 4775 1247 
Q 5275 2159 5388 3672 
z
M 1088 834 
Q 1531 634 2000 416 
Q 2431 784 2675 1284 
L 1375 1284 
Q 1231 1053 1088 834 
z
M 3038 5091 
L 3425 4834 
Q 3081 4384 2738 4003 
Q 2594 4128 2400 4266 
Q 2725 4647 3038 5091 
z
M 381 4816 
L 738 5059 
Q 1019 4716 1319 4322 
L 931 4047 
Q 656 4453 381 4816 
z
" transform="scale(0.015625)"/>
      </defs>
      <use xlink:href="#MicrosoftYaHei-5806"/>
      <use xlink:href="#MicrosoftYaHei-53e0" transform="translate(100 0)"/>
      <use xlink:href="#MicrosoftYaHei-5c42" transform="translate(200 0)"/>
      <use xlink:href="#MicrosoftYaHei-6570" transform="translate(300 0)"/>
     </g>
    </g>
   </g>
   <g id="patch_3">
    <path d="M 49.790313 192.614344 
L 49.790313 39.293844 
" style="fill: none; stroke: #000000; stroke-width: 0.8; stroke-linejoin: miter; stroke-linecap: square"/>
   </g>
   <g id="patch_4">
    <path d="M 49.790313 192.614344 
L 437.250313 192.614344 
" style="fill: none; stroke: #000000; stroke-width: 0.8; stroke-linejoin: miter; stroke-linecap: square"/>
   </g>
   <g id="patch_5">
    <path d="M 67.402131 192.614344 
L 113.346004 192.614344 
L 113.346004 185.313368 
L 67.402131 185.313368 
z
" clip-path="url(#pa430a156fa)" style="fill: #bfdbfe"/>
   </g>
   <g id="patch_6">
    <path d="M 143.975253 192.614344 
L 189.919127 192.614344 
L 189.919127 163.410439 
L 143.975253 163.410439 
z
" clip-path="url(#pa430a156fa)" style="fill: #93c5fd"/>
   </g>
   <g id="patch_7">
    <path d="M 220.548376 192.614344 
L 266.492249 192.614344 
L 266.492249 119.604582 
L 220.548376 119.604582 
z
" clip-path="url(#pa430a156fa)" style="fill: #60a5fa"/>
   </g>
   <g id="patch_8">
    <path d="M 297.121498 192.614344 
L 343.065372 192.614344 
L 343.065372 75.798725 
L 297.121498 75.798725 
z
" clip-path="url(#pa430a156fa)" style="fill: #3b82f6"/>
   </g>
   <g id="patch_9">
    <path d="M 373.694621 192.614344 
L 419.638494 192.614344 
L 419.638494 46.59482 
L 373.694621 46.59482 
z
" clip-path="url(#pa430a156fa)" style="fill: #1d4ed8"/>
   </g>
   <g id="text_13">
    <!-- 50层 -->
    <g style="fill: #1a56db" transform="translate(80.323599 183.123075) scale(0.09 -0.09)">
     <defs>
      <path id="MicrosoftYaHei-Bold-35" d="M 541 125 
L 541 997 
Q 1044 691 1613 691 
Q 2041 691 2283 902 
Q 2525 1113 2525 1472 
Q 2525 2225 1494 2225 
Q 1113 2225 616 2169 
L 797 4841 
L 3359 4841 
L 3359 4009 
L 1613 4009 
L 1544 2991 
Q 1803 3013 2022 3013 
Q 2731 3013 3142 2625 
Q 3553 2238 3553 1575 
Q 3553 844 3056 380 
Q 2559 -84 1706 -84 
Q 1016 -84 541 125 
z
" transform="scale(0.015625)"/>
      <path id="MicrosoftYaHei-Bold-30" d="M 244 2341 
Q 244 3597 706 4259 
Q 1169 4922 2044 4922 
Q 3713 4922 3713 2453 
Q 3713 1238 3259 577 
Q 2806 -84 1950 -84 
Q 244 -84 244 2341 
z
M 1266 2366 
Q 1266 691 1981 691 
Q 2684 691 2684 2416 
Q 2684 4147 2000 4147 
Q 1266 4147 1266 2366 
z
" transform="scale(0.015625)"/>
      <path id="MicrosoftYaHei-Bold-5c42" d="M 650 5072 
L 5975 5072 
L 5975 3166 
L 1525 3166 
Q 1519 2228 1475 1591 
L 6288 1591 
L 6288 878 
L 4806 878 
Q 5672 122 6194 -391 
L 5575 -903 
L 5244 -559 
Q 2244 -694 1838 -803 
L 1488 -128 
Q 1988 175 2528 878 
L 1400 878 
Q 1288 41 763 -778 
Q 388 -328 94 -41 
Q 356 419 500 1014 
Q 644 1609 650 3091 
L 650 5072 
z
M 5100 3878 
L 5100 4359 
L 1525 4359 
L 1525 3878 
L 5100 3878 
z
M 4119 553 
L 4509 878 
L 3528 878 
Q 3144 406 2838 53 
L 4563 119 
L 4119 553 
z
M 1825 2753 
L 5838 2753 
L 5838 2041 
L 1825 2041 
L 1825 2753 
z
" transform="scale(0.015625)"/>
     </defs>
     <use xlink:href="#MicrosoftYaHei-Bold-35"/>
     <use xlink:href="#MicrosoftYaHei-Bold-30" transform="translate(61.669922 0)"/>
     <use xlink:href="#MicrosoftYaHei-Bold-5c42" transform="translate(123.339844 0)"/>
    </g>
   </g>
   <g id="text_14">
    <!-- 200层 -->
    <g style="fill: #1a56db" transform="translate(154.121487 161.220146) scale(0.09 -0.09)">
     <defs>
      <path id="MicrosoftYaHei-Bold-32" d="M 1500 841 
L 3553 841 
L 3553 0 
L 334 0 
L 334 359 
Q 334 738 473 1050 
Q 613 1363 856 1633 
Q 1100 1903 1613 2266 
Q 2081 2616 2268 2886 
Q 2456 3156 2456 3459 
Q 2456 4113 1744 4113 
Q 1119 4113 550 3613 
L 550 4513 
Q 1184 4922 1975 4922 
Q 2700 4922 3122 4551 
Q 3544 4181 3544 3531 
Q 3544 3169 3422 2876 
Q 3300 2584 3069 2328 
Q 2838 2072 2328 1713 
Q 1838 1363 1669 1172 
Q 1500 981 1500 841 
z
" transform="scale(0.015625)"/>
     </defs>
     <use xlink:href="#MicrosoftYaHei-Bold-32"/>
     <use xlink:href="#MicrosoftYaHei-Bold-30" transform="translate(61.669922 0)"/>
     <use xlink:href="#MicrosoftYaHei-Bold-30" transform="translate(123.339844 0)"/>
     <use xlink:href="#MicrosoftYaHei-Bold-5c42" transform="translate(185.009766 0)"/>
    </g>
   </g>
   <g id="text_15">
    <!-- 500层 -->
    <g style="fill: #1a56db" transform="translate(230.694609 117.414289) scale(0.09 -0.09)">
     <use xlink:href="#MicrosoftYaHei-Bold-35"/>
     <use xlink:href="#MicrosoftYaHei-Bold-30" transform="translate(61.669922 0)"/>
     <use xlink:href="#MicrosoftYaHei-Bold-30" transform="translate(123.339844 0)"/>
     <use xlink:href="#MicrosoftYaHei-Bold-5c42" transform="translate(185.009766 0)"/>
    </g>
   </g>
   <g id="text_16">
    <!-- 800层 -->
    <g style="fill: #1a56db" transform="translate(307.267732 73.608432) scale(0.09 -0.09)">
     <defs>
      <path id="MicrosoftYaHei-Bold-38" d="M 269 1303 
Q 269 1725 512 2053 
Q 756 2381 1219 2534 
Q 850 2719 648 3003 
Q 447 3288 447 3634 
Q 447 3997 645 4292 
Q 844 4588 1200 4755 
Q 1556 4922 1997 4922 
Q 2441 4922 2800 4758 
Q 3159 4594 3359 4298 
Q 3559 4003 3559 3647 
Q 3559 3309 3339 3018 
Q 3119 2728 2747 2559 
Q 3200 2403 3453 2076 
Q 3706 1750 3706 1313 
Q 3706 697 3228 309 
Q 2750 -78 1988 -78 
Q 1225 -78 747 309 
Q 269 697 269 1303 
z
M 1278 1394 
Q 1278 1056 1472 853 
Q 1666 650 1991 650 
Q 2303 650 2503 853 
Q 2703 1056 2703 1394 
Q 2703 1709 2500 1920 
Q 2297 2131 1991 2131 
Q 1675 2131 1476 1920 
Q 1278 1709 1278 1394 
z
M 1428 3531 
Q 1428 3266 1592 3077 
Q 1756 2888 2006 2888 
Q 2247 2888 2415 3072 
Q 2584 3256 2584 3531 
Q 2584 3806 2420 3997 
Q 2256 4188 2006 4188 
Q 1750 4188 1589 3997 
Q 1428 3806 1428 3531 
z
" transform="scale(0.015625)"/>
     </defs>
     <use xlink:href="#MicrosoftYaHei-Bold-38"/>
     <use xlink:href="#MicrosoftYaHei-Bold-30" transform="translate(61.669922 0)"/>
     <use xlink:href="#MicrosoftYaHei-Bold-30" transform="translate(123.339844 0)"/>
     <use xlink:href="#MicrosoftYaHei-Bold-5c42" transform="translate(185.009766 0)"/>
    </g>
   </g>
   <g id="text_17">
    <!-- 1000层 -->
    <g style="fill: #1a56db" transform="translate(381.06562 44.404527) scale(0.09 -0.09)">
     <defs>
      <path id="MicrosoftYaHei-Bold-31" d="M 2716 4947 
L 2716 0 
L 1700 0 
L 1700 3809 
Q 1513 3647 1188 3517 
Q 863 3388 591 3356 
L 591 4222 
Q 1447 4472 2072 4947 
L 2716 4947 
z
" transform="scale(0.015625)"/>
     </defs>
     <use xlink:href="#MicrosoftYaHei-Bold-31"/>
     <use xlink:href="#MicrosoftYaHei-Bold-30" transform="translate(61.669922 0)"/>
     <use xlink:href="#MicrosoftYaHei-Bold-30" transform="translate(123.339844 0)"/>
     <use xlink:href="#MicrosoftYaHei-Bold-30" transform="translate(185.009766 0)"/>
     <use xlink:href="#MicrosoftYaHei-Bold-5c42" transform="translate(246.679688 0)"/>
    </g>
   </g>
   <g id="text_18">
    <!-- MLCC技术演进：更薄介质 + 更多层数 -->
    <g style="fill: #1e293b" transform="translate(49.790313 17.591875) scale(0.13 -0.13)">
     <defs>
      <path id="MicrosoftYaHei-Bold-4d" d="M 4991 0 
L 4991 2938 
Q 4991 3344 5031 3959 
L 5006 3959 
Q 4913 3494 4856 3338 
L 3663 0 
L 2841 0 
L 1631 3306 
Q 1588 3425 1478 3959 
L 1450 3959 
Q 1491 3350 1491 2738 
L 1491 0 
L 559 0 
L 559 4841 
L 2059 4841 
L 3103 1916 
Q 3234 1553 3281 1234 
L 3303 1234 
Q 3400 1631 3503 1922 
L 4550 4841 
L 6009 4841 
L 6009 0 
L 4991 0 
z
" transform="scale(0.015625)"/>
      <path id="MicrosoftYaHei-Bold-4c" d="M 3400 0 
L 559 0 
L 559 4841 
L 1591 4841 
L 1591 844 
L 3400 844 
L 3400 0 
z
" transform="scale(0.015625)"/>
      <path id="MicrosoftYaHei-Bold-43" d="M 4013 175 
Q 3484 -84 2634 -84 
Q 1541 -84 898 570 
Q 256 1225 256 2316 
Q 256 3463 973 4192 
Q 1691 4922 2825 4922 
Q 3534 4922 4013 4738 
L 4013 3741 
Q 3522 4028 2900 4028 
Q 2191 4028 1766 3575 
Q 1341 3122 1341 2391 
Q 1341 1678 1744 1243 
Q 2147 809 2834 809 
Q 3481 809 4013 1122 
L 4013 175 
z
" transform="scale(0.015625)"/>
      <path id="MicrosoftYaHei-Bold-6280" d="M 6169 3678 
L 4644 3678 
L 4644 2984 
L 6013 2984 
L 6013 2228 
Q 5634 1319 4900 613 
Q 5525 256 6306 22 
Q 6000 -509 5800 -822 
Q 4919 -494 4188 31 
Q 3441 -484 2444 -859 
Q 2238 -509 1950 -47 
Q 2825 244 3472 625 
Q 2947 1128 2519 1759 
L 3225 2178 
Q 3606 1578 4169 1116 
Q 4738 1603 5025 2203 
L 2356 2203 
L 2356 2984 
L 3744 2984 
L 3744 3678 
L 2369 3678 
L 2369 4428 
L 3744 4428 
L 3744 5322 
L 4644 5322 
L 4644 4428 
L 6169 4428 
L 6169 3678 
z
M 163 4222 
L 863 4222 
L 863 5322 
L 1669 5322 
L 1669 4222 
L 2200 4222 
L 2200 3409 
L 1669 3409 
L 1669 2469 
L 2231 2591 
Q 2200 2053 2206 1772 
L 1669 1641 
L 1669 3 
Q 1669 -406 1466 -611 
Q 1263 -816 369 -816 
Q 306 -503 156 34 
Q 400 16 575 16 
Q 744 16 803 84 
Q 863 153 863 322 
L 863 1444 
L 188 1272 
L 100 2166 
L 863 2306 
L 863 3409 
L 163 3409 
L 163 4222 
z
" transform="scale(0.015625)"/>
      <path id="MicrosoftYaHei-Bold-672f" d="M 4538 5341 
Q 5056 4953 5581 4491 
L 5019 3916 
L 6081 3916 
L 6081 3078 
L 3859 3078 
Q 4778 1519 6313 678 
Q 5931 297 5594 -116 
Q 4413 750 3650 2050 
L 3650 -809 
L 2744 -809 
L 2744 2119 
Q 2013 819 731 -159 
Q 406 253 81 603 
Q 1541 1534 2450 3078 
L 325 3078 
L 325 3916 
L 2744 3916 
L 2744 5309 
L 3650 5309 
L 3650 3916 
L 4956 3916 
Q 4453 4422 4013 4809 
L 4538 5341 
z
" transform="scale(0.015625)"/>
      <path id="MicrosoftYaHei-Bold-6f14" d="M 4194 -197 
L 4491 366 
L 3347 366 
L 3725 -191 
Q 2931 -578 1919 -884 
L 1556 -184 
Q 2347 13 3247 366 
L 2025 366 
L 2025 2909 
L 3581 2909 
L 3581 3209 
L 2238 3209 
L 2238 3616 
L 1750 3616 
L 1750 4778 
L 3472 4778 
Q 3394 4947 3294 5147 
L 4150 5372 
Q 4328 5034 4444 4778 
L 6175 4778 
L 6175 3616 
L 5675 3616 
L 5675 3209 
L 4356 3209 
L 4356 2909 
L 5913 2909 
L 5913 366 
L 4681 366 
Q 5716 47 6313 -172 
L 5963 -872 
L 4194 -197 
z
M 5375 4109 
L 2550 4109 
L 2550 3816 
L 5375 3816 
L 5375 4109 
z
M 5150 2303 
L 4356 2303 
L 4356 1922 
L 5150 1922 
L 5150 2303 
z
M 2788 1922 
L 3581 1922 
L 3581 2303 
L 2788 2303 
L 2788 1922 
z
M 2788 972 
L 3581 972 
L 3581 1359 
L 2788 1359 
L 2788 972 
z
M 5150 972 
L 5150 1359 
L 4356 1359 
L 4356 972 
L 5150 972 
z
M 719 5278 
Q 1425 4772 1744 4509 
L 1163 3878 
Q 719 4309 200 4734 
L 719 5278 
z
M 594 3666 
Q 1069 3316 1581 2878 
L 1019 2203 
L 81 3072 
L 594 3666 
z
M 825 1784 
Q 1213 1616 1631 1491 
Q 1356 503 1050 -822 
Q 619 -672 225 -566 
Q 556 541 825 1784 
z
" transform="scale(0.015625)"/>
      <path id="MicrosoftYaHei-Bold-8fdb" d="M 1806 2516 
L 2700 2516 
Q 2719 2728 2719 3591 
L 2044 3591 
L 2044 4341 
L 2719 4341 
L 2719 5291 
L 3556 5291 
L 3556 4341 
L 4494 4341 
L 4494 5291 
L 5331 5291 
L 5331 4341 
L 6000 4341 
L 6000 3591 
L 5331 3591 
L 5331 2516 
L 6244 2516 
L 6244 1766 
L 5331 1766 
L 5331 291 
L 4494 291 
L 4494 1766 
L 3463 1766 
Q 3309 844 2900 178 
Q 2519 509 2088 803 
Q 2413 1200 2572 1766 
L 1806 1766 
L 1806 2516 
z
M 3544 2516 
L 4494 2516 
L 4494 3591 
L 3556 3591 
Q 3556 2959 3544 2516 
z
M 988 5253 
Q 1456 4641 1831 4103 
L 1100 3609 
Q 719 4259 319 4841 
L 988 5253 
z
M 6319 141 
Q 6144 -309 6050 -691 
Q 5634 -703 4181 -703 
L 3075 -703 
Q 2434 -703 1956 -553 
Q 1478 -403 1175 -103 
L 450 -847 
L 94 109 
Q 425 428 738 694 
L 738 2309 
L 138 2309 
L 138 3103 
L 1556 3103 
L 1556 613 
Q 2047 97 3019 97 
Q 5722 97 6319 141 
z
" transform="scale(0.015625)"/>
      <path id="MicrosoftYaHei-Bold-ff1a" d="M 1594 3506 
Q 1831 3506 2000 3354 
Q 2169 3203 2169 2981 
Q 2169 2766 2003 2614 
Q 1838 2463 1594 2463 
Q 1353 2463 1189 2616 
Q 1025 2769 1025 2981 
Q 1025 3200 1192 3353 
Q 1359 3506 1594 3506 
z
M 1594 959 
Q 1831 959 2000 806 
Q 2169 653 2169 434 
Q 2169 222 2000 69 
Q 1831 -84 1594 -84 
Q 1356 -84 1190 69 
Q 1025 222 1025 434 
Q 1025 653 1190 806 
Q 1356 959 1594 959 
z
" transform="scale(0.015625)"/>
      <path id="MicrosoftYaHei-Bold-66f4" d="M 700 3984 
L 2788 3984 
L 2788 4359 
L 219 4359 
L 219 5066 
L 6181 5066 
L 6181 4359 
L 3650 4359 
L 3650 3984 
L 5738 3984 
L 5738 872 
L 4900 872 
L 4900 1222 
L 3638 1222 
Q 3594 719 3403 375 
Q 4519 116 6288 84 
L 5806 -772 
Q 3775 -681 2716 -263 
Q 2047 -619 688 -866 
Q 475 -534 94 -41 
Q 1228 66 1822 241 
Q 1375 550 1038 903 
L 1497 1222 
L 700 1222 
L 700 3984 
z
M 4900 3316 
L 3650 3316 
L 3650 2909 
L 4900 2909 
L 4900 3316 
z
M 1538 2909 
L 2788 2909 
L 2788 3316 
L 1538 3316 
L 1538 2909 
z
M 1538 1891 
L 2788 1891 
L 2788 2297 
L 1538 2297 
L 1538 1891 
z
M 4900 1891 
L 4900 2297 
L 3650 2297 
L 3650 1891 
L 4900 1891 
z
M 2766 1222 
L 1684 1222 
Q 2044 888 2547 659 
Q 2716 875 2766 1222 
z
" transform="scale(0.015625)"/>
      <path id="MicrosoftYaHei-Bold-8584" d="M 3825 5328 
L 4638 5328 
L 4638 4916 
L 6306 4916 
L 6306 4228 
L 4638 4228 
L 4638 3966 
L 3825 3966 
L 3825 4228 
L 2619 4228 
L 2619 3947 
L 1806 3947 
L 1806 4228 
L 106 4228 
L 106 4916 
L 1806 4916 
L 1806 5328 
L 2619 5328 
L 2619 4916 
L 3825 4916 
L 3825 5328 
z
M 1400 809 
L 4663 809 
L 4663 1047 
L 5125 1047 
L 5125 1222 
L 4188 1222 
L 4188 966 
L 3450 966 
L 3450 1222 
L 2488 1222 
L 2488 947 
L 1763 947 
L 1763 2972 
L 3450 2972 
L 3450 3209 
L 1663 3209 
L 1663 3709 
L 3450 3709 
L 3450 3922 
L 4188 3922 
L 4188 3709 
L 5138 3709 
Q 5081 3825 5025 3934 
L 5619 4097 
L 5816 3709 
L 6150 3709 
L 6150 3209 
L 4188 3209 
L 4188 2972 
L 5850 2972 
L 5850 966 
L 5500 966 
L 5500 809 
L 6294 809 
L 6294 259 
L 5500 259 
L 5500 103 
Q 5500 -269 5353 -476 
Q 5206 -684 4936 -728 
Q 4666 -772 3613 -766 
Q 3531 -466 3425 -109 
Q 3888 -147 4319 -147 
Q 4663 -147 4663 153 
L 4663 259 
L 2875 259 
Q 3050 53 3238 -184 
L 2613 -609 
Q 2388 -253 2009 259 
L 1400 259 
L 1400 809 
z
M 2488 2247 
L 3450 2247 
L 3450 2534 
L 2488 2534 
L 2488 2247 
z
M 5125 2534 
L 4188 2534 
L 4188 2247 
L 5125 2247 
L 5125 2534 
z
M 2488 1591 
L 3450 1591 
L 3450 1878 
L 2488 1878 
L 2488 1591 
z
M 4188 1591 
L 5125 1591 
L 5125 1878 
L 4188 1878 
L 4188 1591 
z
M 750 4022 
Q 1206 3697 1594 3372 
L 1088 2828 
Q 700 3191 281 3528 
L 750 4022 
z
M 550 2822 
Q 1038 2459 1431 2128 
L 919 1566 
Q 563 1903 75 2309 
L 550 2822 
z
M 656 1372 
Q 1119 1191 1400 1103 
L 913 -816 
L 144 -572 
Q 425 347 656 1372 
z
" transform="scale(0.015625)"/>
      <path id="MicrosoftYaHei-Bold-4ecb" d="M 3838 2691 
L 4750 2691 
L 4750 -803 
L 3838 -803 
L 3838 2691 
z
M 1619 2678 
L 2531 2678 
Q 2531 1959 2519 1597 
Q 2513 78 1263 -916 
Q 969 -622 525 -247 
Q 1575 516 1606 1591 
Q 1619 1978 1619 2678 
z
M 3988 5316 
L 3788 5066 
Q 4719 3766 6338 3022 
Q 6044 2653 5775 2266 
Q 4144 3153 3213 4391 
Q 2288 3184 644 2191 
Q 369 2591 88 2941 
Q 1956 3991 2781 5316 
L 3988 5316 
z
" transform="scale(0.015625)"/>
      <path id="MicrosoftYaHei-Bold-8d28" d="M 1706 3847 
L 3400 3847 
L 3400 4313 
Q 2384 4256 1475 4228 
L 1475 2309 
Q 1475 191 781 -853 
Q 519 -578 81 -209 
Q 625 684 625 2347 
L 625 5016 
Q 3150 4997 5763 5266 
L 6150 4497 
L 4256 4363 
L 4256 3847 
L 6038 3847 
L 6038 3141 
L 4256 3141 
L 4256 2716 
L 5825 2716 
L 5825 541 
L 5013 541 
L 5013 2009 
L 2700 2009 
L 2700 541 
L 1888 541 
L 1888 2716 
L 3400 2716 
L 3400 3141 
L 1706 3141 
L 1706 3847 
z
M 3488 1778 
L 4363 1778 
Q 4347 1203 4197 772 
Q 5091 431 6275 -84 
L 5769 -834 
Q 4819 -297 3869 166 
Q 3269 -522 1756 -859 
Q 1538 -428 1331 -128 
Q 2506 119 2979 478 
Q 3453 838 3488 1778 
z
" transform="scale(0.015625)"/>
      <path id="MicrosoftYaHei-Bold-20" transform="scale(0.015625)"/>
      <path id="MicrosoftYaHei-Bold-2b" d="M 4072 1653 
L 2766 1653 
L 2766 347 
L 2109 347 
L 2109 1653 
L 797 1653 
L 797 2313 
L 2109 2313 
L 2109 3625 
L 2766 3625 
L 2766 2313 
L 4072 2313 
L 4072 1653 
z
" transform="scale(0.015625)"/>
      <path id="MicrosoftYaHei-Bold-591a" d="M 5650 4922 
L 5650 4278 
Q 4819 3466 3531 2847 
L 4556 2847 
Q 4331 2603 4088 2378 
L 6063 2378 
L 6063 1747 
Q 4269 -466 569 -922 
Q 400 -478 181 -116 
Q 1481 -3 2556 347 
Q 2331 634 2013 972 
Q 1463 703 856 491 
Q 631 884 356 1253 
Q 2306 1778 3525 2841 
Q 2250 2228 531 1809 
Q 350 2272 138 2628 
Q 1206 2797 2138 3103 
Q 1888 3391 1575 3697 
Q 1206 3472 800 3266 
Q 581 3609 244 3972 
Q 1513 4441 2431 5334 
L 3456 5334 
Q 3288 5122 3100 4922 
L 5650 4922 
z
M 2188 4109 
Q 2575 3759 2919 3403 
Q 3663 3697 4444 4222 
L 2325 4222 
Q 2256 4166 2188 4109 
z
M 2663 1322 
Q 3025 978 3319 641 
Q 4244 1066 4931 1678 
L 3213 1678 
Q 2944 1491 2663 1322 
z
" transform="scale(0.015625)"/>
      <path id="MicrosoftYaHei-Bold-6570" d="M 238 4091 
L 725 4091 
Q 559 4425 281 4803 
L 844 5153 
Q 1038 4922 1369 4428 
L 806 4091 
L 1506 4091 
L 1506 5316 
L 2300 5316 
L 2300 4091 
L 2956 4091 
L 2438 4428 
Q 2750 4809 2963 5172 
L 3550 4822 
Q 3341 4466 3031 4091 
L 3394 4091 
L 3394 3453 
L 2300 3453 
L 2300 3016 
L 2513 3303 
Q 2903 3094 3253 2891 
Q 3766 3841 4138 5347 
L 4994 5266 
Q 4869 4781 4728 4341 
L 6294 4341 
L 6294 3578 
L 6041 3578 
Q 5906 1922 5338 856 
Q 5738 391 6319 53 
Q 6094 -203 5775 -778 
Q 5228 -413 4828 109 
Q 4313 -497 3631 -872 
Q 3378 -513 3072 -197 
L 2850 -566 
Q 2475 -350 2031 -128 
Q 1347 -584 394 -778 
Q 281 -434 63 -9 
Q 716 59 1213 253 
Q 781 444 300 641 
Q 513 950 681 1259 
L 169 1259 
L 169 1897 
L 991 1897 
Q 1094 2144 1169 2391 
L 1506 2359 
L 1506 2959 
Q 1044 2472 344 2053 
Q 213 2472 50 2803 
Q 672 3044 1172 3453 
L 238 3453 
L 238 4091 
z
M 4394 3400 
Q 4519 2359 4831 1659 
Q 5203 2478 5275 3578 
L 4463 3578 
Q 4431 3488 4394 3400 
z
M 2300 2216 
L 1984 2216 
Q 1913 2063 1825 1897 
L 3281 1897 
L 3281 1316 
Q 3038 806 2672 413 
L 3294 166 
L 3169 -38 
Q 3859 322 4347 894 
Q 4041 1522 3878 2300 
Q 3769 2103 3656 1922 
Q 3513 2172 3322 2438 
L 3138 2159 
Q 2750 2422 2300 2691 
L 2300 2216 
z
M 1300 934 
L 1950 691 
Q 2231 934 2413 1259 
L 1484 1259 
L 1300 934 
z
" transform="scale(0.015625)"/>
     </defs>
     <use xlink:href="#MicrosoftYaHei-Bold-4d"/>
     <use xlink:href="#MicrosoftYaHei-Bold-4c" transform="translate(102.832031 0)"/>
     <use xlink:href="#MicrosoftYaHei-Bold-43" transform="translate(154.769531 0)"/>
     <use xlink:href="#MicrosoftYaHei-Bold-43" transform="translate(218.978516 0)"/>
     <use xlink:href="#MicrosoftYaHei-Bold-6280" transform="translate(286.3125 0)"/>
     <use xlink:href="#MicrosoftYaHei-Bold-672f" transform="translate(386.3125 0)"/>
     <use xlink:href="#MicrosoftYaHei-Bold-6f14" transform="translate(486.3125 0)"/>
     <use xlink:href="#MicrosoftYaHei-Bold-8fdb" transform="translate(586.3125 0)"/>
     <use xlink:href="#MicrosoftYaHei-Bold-ff1a" transform="translate(686.3125 0)"/>
     <use xlink:href="#MicrosoftYaHei-Bold-66f4" transform="translate(786.3125 0)"/>
     <use xlink:href="#MicrosoftYaHei-Bold-8584" transform="translate(886.3125 0)"/>
     <use xlink:href="#MicrosoftYaHei-Bold-4ecb" transform="translate(986.3125 0)"/>
     <use xlink:href="#MicrosoftYaHei-Bold-8d28" transform="translate(1086.3125 0)"/>
     <use xlink:href="#MicrosoftYaHei-Bold-20" transform="translate(1186.3125 0)"/>
     <use xlink:href="#MicrosoftYaHei-Bold-2b" transform="translate(1216.097656 0)"/>
     <use xlink:href="#MicrosoftYaHei-Bold-20" transform="translate(1292.220703 0)"/>
     <use xlink:href="#MicrosoftYaHei-Bold-66f4" transform="translate(1322.005859 0)"/>
     <use xlink:href="#MicrosoftYaHei-Bold-591a" transform="translate(1422.005859 0)"/>
     <use xlink:href="#MicrosoftYaHei-Bold-5c42" transform="translate(1522.005859 0)"/>
     <use xlink:href="#MicrosoftYaHei-Bold-6570" transform="translate(1622.005859 0)"/>
    </g>
    <!-- 从50层到1000层，介质厚度从50um降至0.3um -->
    <g style="fill: #1e293b" transform="translate(49.790313 33.293844) scale(0.13 -0.13)">
     <defs>
      <path id="MicrosoftYaHei-Bold-4ece" d="M 3763 5266 
L 4638 5266 
Q 4641 4069 4572 3209 
Q 5066 922 6319 -203 
Q 6206 -284 5556 -878 
Q 4784 -156 4269 1497 
Q 3944 444 2813 -859 
Q 2519 -578 2075 -247 
Q 2309 -6 2854 733 
Q 3400 1472 3584 2394 
Q 3769 3316 3763 5266 
z
M 1281 5266 
L 2163 5266 
Q 2169 3988 2094 3069 
L 3269 1759 
L 2625 1122 
Q 2284 1569 1956 1975 
Q 1706 572 675 -816 
Q 306 -253 69 9 
Q 866 1122 1077 2101 
Q 1288 3081 1281 5266 
z
" transform="scale(0.015625)"/>
      <path id="MicrosoftYaHei-Bold-5230" d="M 5125 5266 
L 5981 5266 
L 5981 166 
Q 5981 -297 5787 -537 
Q 5594 -778 5136 -800 
Q 4678 -822 4194 -822 
Q 4144 -547 3975 59 
Q 4506 47 4794 47 
Q 5125 47 5125 403 
L 5125 5266 
z
M 169 4984 
L 3625 4984 
L 3625 4222 
L 2063 4222 
Q 1681 3684 1306 3216 
Q 1578 3219 2491 3256 
Q 2303 3556 2175 3747 
L 2806 4097 
Q 3231 3509 3775 2666 
L 3106 2228 
L 2909 2563 
L 1725 2509 
Q 909 2469 765 2448 
Q 622 2428 413 2384 
L 150 3103 
Q 509 3284 1097 4222 
L 169 4222 
L 169 4984 
z
M 3844 4653 
L 4675 4653 
L 4675 659 
L 3844 659 
L 3844 4653 
z
M 313 1728 
L 1500 1728 
L 1500 2347 
L 2331 2347 
L 2331 1728 
L 3425 1728 
L 3425 966 
L 2331 966 
L 2331 328 
L 3613 422 
L 3563 -397 
Q 1650 -522 169 -653 
L 106 197 
L 1500 272 
L 1500 966 
L 313 966 
L 313 1728 
z
" transform="scale(0.015625)"/>
      <path id="MicrosoftYaHei-Bold-ff0c" d="M 2075 831 
L 1569 -863 
L 831 -863 
L 1191 831 
L 2075 831 
z
" transform="scale(0.015625)"/>
      <path id="MicrosoftYaHei-Bold-539a" d="M 1494 2322 
Q 1494 216 831 -872 
Q 388 -447 69 -178 
Q 625 759 625 2478 
L 625 5109 
L 6250 5109 
L 6250 4422 
L 1494 4422 
L 1494 2322 
z
M 1900 4159 
L 5881 4159 
L 5881 2091 
L 1900 2091 
L 1900 4159 
z
M 5069 3622 
L 2713 3622 
L 2713 3359 
L 5069 3359 
L 5069 3622 
z
M 5069 2628 
L 5069 2897 
L 2713 2897 
L 2713 2628 
L 5069 2628 
z
M 1525 784 
L 3575 784 
L 3575 922 
L 4344 1222 
L 1863 1222 
L 1863 1809 
L 5913 1809 
L 5913 1284 
L 4578 784 
L 6275 784 
L 6275 184 
L 4463 184 
L 4463 -159 
Q 4463 -419 4314 -567 
Q 4166 -716 3887 -759 
Q 3609 -803 2531 -797 
Q 2469 -434 2363 -84 
Q 2891 -134 3294 -134 
Q 3575 -134 3575 128 
L 3575 184 
L 1525 184 
L 1525 784 
z
" transform="scale(0.015625)"/>
      <path id="MicrosoftYaHei-Bold-5ea6" d="M 5656 1697 
L 5656 1022 
Q 5156 447 4656 97 
Q 5344 -34 6306 -66 
Q 6119 -428 5938 -822 
Q 4556 -653 3719 -353 
Q 2825 -653 1494 -872 
Q 1338 -522 1088 -178 
Q 2100 -128 2888 78 
Q 2369 453 1938 1022 
L 1538 1022 
L 1538 1697 
L 5656 1697 
z
M 1325 2478 
Q 1338 134 700 -884 
Q 356 -553 19 -297 
Q 550 697 525 2591 
L 525 4772 
L 3013 4772 
Q 2944 4953 2831 5209 
L 3869 5359 
Q 3981 5072 4094 4772 
L 6256 4772 
L 6256 4072 
L 1325 4072 
L 1325 2478 
z
M 1463 3684 
L 2144 3684 
L 2144 3947 
L 2944 3947 
L 2944 3684 
L 4494 3684 
L 4494 3947 
L 5294 3947 
L 5294 3684 
L 6144 3684 
L 6144 3009 
L 5294 3009 
L 5294 1991 
L 2144 1991 
L 2144 3009 
L 1463 3009 
L 1463 3684 
z
M 3756 378 
Q 4325 641 4725 1022 
L 2825 1022 
Q 3225 622 3756 378 
z
M 4494 2628 
L 4494 3009 
L 2944 3009 
L 2944 2628 
L 4494 2628 
z
" transform="scale(0.015625)"/>
      <path id="MicrosoftYaHei-Bold-75" d="M 3691 0 
L 2688 0 
L 2688 528 
L 2672 528 
Q 2284 -84 1613 -84 
Q 406 -84 406 1372 
L 406 3456 
L 1416 3456 
L 1416 1466 
Q 1416 691 2022 691 
Q 2325 691 2506 903 
Q 2688 1116 2688 1478 
L 2688 3456 
L 3691 3456 
L 3691 0 
z
" transform="scale(0.015625)"/>
      <path id="MicrosoftYaHei-Bold-6d" d="M 5881 0 
L 4875 0 
L 4875 1972 
Q 4875 2766 4297 2766 
Q 4028 2766 3850 2525 
Q 3672 2284 3672 1938 
L 3672 0 
L 2666 0 
L 2666 1997 
Q 2666 2766 2094 2766 
Q 1809 2766 1639 2536 
Q 1469 2306 1469 1928 
L 1469 0 
L 459 0 
L 459 3456 
L 1469 3456 
L 1469 2916 
L 1481 2916 
Q 1663 3213 1963 3377 
Q 2263 3541 2594 3541 
Q 3322 3541 3591 2888 
Q 3991 3541 4753 3541 
Q 5881 3541 5881 2147 
L 5881 0 
z
" transform="scale(0.015625)"/>
      <path id="MicrosoftYaHei-Bold-964d" d="M 6050 4853 
L 6050 4147 
Q 5675 3588 5194 3216 
Q 5728 3059 6381 3009 
Q 6213 2647 6063 2259 
Q 5081 2441 4394 2750 
Q 3650 2425 2531 2222 
Q 2338 2703 2219 2916 
Q 3025 2994 3647 3194 
Q 3400 3381 3178 3606 
Q 2994 3406 2794 3216 
Q 2569 3528 2306 3828 
Q 3125 4528 3506 5328 
L 4350 5222 
Q 4244 5034 4131 4853 
L 6050 4853 
z
M 4419 3531 
Q 4866 3794 5144 4166 
L 3653 4166 
Q 3644 4156 3638 4147 
Q 3975 3784 4419 3531 
z
M 1869 2722 
Q 2344 2122 2344 1247 
Q 2344 725 2097 483 
Q 1850 241 1250 241 
Q 1213 666 1113 1084 
Q 1244 1053 1344 1053 
Q 1613 1053 1613 1403 
Q 1613 2053 1131 2647 
L 1588 4328 
L 1100 4328 
L 1100 -828 
L 369 -828 
L 369 5047 
L 2400 5047 
L 2400 4453 
L 1869 2722 
z
M 3263 753 
L 4075 753 
L 4075 1403 
L 2513 1403 
L 2513 2103 
L 4075 2103 
L 4075 2503 
L 4825 2503 
L 4825 2103 
L 6056 2103 
L 6056 1403 
L 4825 1403 
L 4825 753 
L 6219 753 
L 6219 53 
L 4825 53 
L 4825 -822 
L 4075 -822 
L 4075 53 
L 2438 53 
L 2438 734 
L 2769 1328 
L 3544 1328 
L 3263 753 
z
" transform="scale(0.015625)"/>
      <path id="MicrosoftYaHei-Bold-81f3" d="M 125 366 
L 2731 366 
L 2731 997 
L 569 997 
L 569 1816 
L 2731 1816 
L 2731 2466 
L 1800 2422 
Q 1275 2400 919 2309 
L 588 3072 
Q 1241 3378 2000 4209 
L 331 4209 
L 331 5053 
L 6125 5053 
L 6125 4209 
L 4363 4209 
Q 5472 3331 6206 2634 
L 5525 2034 
Q 5272 2294 5006 2553 
L 3675 2503 
L 3675 1816 
L 5825 1816 
L 5825 997 
L 3675 997 
L 3675 366 
L 6288 366 
L 6288 -478 
L 125 -478 
L 125 366 
z
M 3763 3691 
L 4347 4209 
L 3100 4209 
Q 2578 3641 2044 3191 
L 4238 3272 
L 3763 3691 
z
" transform="scale(0.015625)"/>
      <path id="MicrosoftYaHei-Bold-2e" d="M 313 453 
Q 313 688 491 838 
Q 669 988 916 988 
Q 1166 988 1337 834 
Q 1509 681 1509 453 
Q 1509 213 1337 64 
Q 1166 -84 903 -84 
Q 659 -84 486 69 
Q 313 222 313 453 
z
" transform="scale(0.015625)"/>
      <path id="MicrosoftYaHei-Bold-33" d="M 494 1053 
Q 978 691 1625 691 
Q 2034 691 2275 872 
Q 2516 1053 2516 1388 
Q 2516 1731 2230 1912 
Q 1944 2094 1428 2094 
L 997 2094 
L 997 2872 
L 1394 2872 
Q 2369 2872 2369 3528 
Q 2369 4147 1622 4147 
Q 1134 4147 675 3828 
L 675 4663 
Q 1175 4922 1853 4922 
Q 2541 4922 2969 4605 
Q 3397 4288 3397 3725 
Q 3397 2775 2434 2531 
L 2434 2516 
Q 2941 2459 3244 2145 
Q 3547 1831 3547 1381 
Q 3547 691 3042 303 
Q 2538 -84 1697 -84 
Q 950 -84 494 163 
L 494 1053 
z
" transform="scale(0.015625)"/>
     </defs>
     <use xlink:href="#MicrosoftYaHei-Bold-4ece"/>
     <use xlink:href="#MicrosoftYaHei-Bold-35" transform="translate(100 0)"/>
     <use xlink:href="#MicrosoftYaHei-Bold-30" transform="translate(161.669922 0)"/>
     <use xlink:href="#MicrosoftYaHei-Bold-5c42" transform="translate(223.339844 0)"/>
     <use xlink:href="#MicrosoftYaHei-Bold-5230" transform="translate(323.339844 0)"/>
     <use xlink:href="#MicrosoftYaHei-Bold-31" transform="translate(423.339844 0)"/>
     <use xlink:href="#MicrosoftYaHei-Bold-30" transform="translate(485.009766 0)"/>
     <use xlink:href="#MicrosoftYaHei-Bold-30" transform="translate(546.679688 0)"/>
     <use xlink:href="#MicrosoftYaHei-Bold-30" transform="translate(608.349609 0)"/>
     <use xlink:href="#MicrosoftYaHei-Bold-5c42" transform="translate(670.019531 0)"/>
     <use xlink:href="#MicrosoftYaHei-Bold-ff0c" transform="translate(770.019531 0)"/>
     <use xlink:href="#MicrosoftYaHei-Bold-4ecb" transform="translate(870.019531 0)"/>
     <use xlink:href="#MicrosoftYaHei-Bold-8d28" transform="translate(970.019531 0)"/>
     <use xlink:href="#MicrosoftYaHei-Bold-539a" transform="translate(1070.019531 0)"/>
     <use xlink:href="#MicrosoftYaHei-Bold-5ea6" transform="translate(1170.019531 0)"/>
     <use xlink:href="#MicrosoftYaHei-Bold-4ece" transform="translate(1270.019531 0)"/>
     <use xlink:href="#MicrosoftYaHei-Bold-35" transform="translate(1370.019531 0)"/>
     <use xlink:href="#MicrosoftYaHei-Bold-30" transform="translate(1431.689453 0)"/>
     <use xlink:href="#MicrosoftYaHei-Bold-75" transform="translate(1493.359375 0)"/>
     <use xlink:href="#MicrosoftYaHei-Bold-6d" transform="translate(1558.154297 0)"/>
     <use xlink:href="#MicrosoftYaHei-Bold-964d" transform="translate(1656.347656 0)"/>
     <use xlink:href="#MicrosoftYaHei-Bold-81f3" transform="translate(1756.347656 0)"/>
     <use xlink:href="#MicrosoftYaHei-Bold-30" transform="translate(1856.347656 0)"/>
     <use xlink:href="#MicrosoftYaHei-Bold-2e" transform="translate(1918.017578 0)"/>
     <use xlink:href="#MicrosoftYaHei-Bold-33" transform="translate(1946.582031 0)"/>
     <use xlink:href="#MicrosoftYaHei-Bold-75" transform="translate(2008.251953 0)"/>
     <use xlink:href="#MicrosoftYaHei-Bold-6d" transform="translate(2073.046875 0)"/>
    </g>
   </g>
  </g>
  <g id="axes_2">
   <g id="matplotlib.axis_3">
    <g id="ytick_7">
     <g id="line2d_12">
      <defs>
       <path id="m010a146a9b" d="M 0 0 
L 3.5 0 
" style="stroke: #94a3b8; stroke-width: 0.8"/>
      </defs>
      <g>
       <use xlink:href="#m010a146a9b" x="437.250313" y="186.486572" style="fill: #94a3b8; stroke: #94a3b8; stroke-width: 0.8"/>
      </g>
     </g>
     <g id="text_19">
      <!-- 0 -->
      <g style="fill: #94a3b8" transform="translate(444.250313 190.083759) scale(0.09 -0.09)">
       <use xlink:href="#MicrosoftYaHei-30"/>
      </g>
     </g>
    </g>
    <g id="ytick_8">
     <g id="line2d_13">
      <g>
       <use xlink:href="#m010a146a9b" x="437.250313" y="158.441849" style="fill: #94a3b8; stroke: #94a3b8; stroke-width: 0.8"/>
      </g>
     </g>
     <g id="text_20">
      <!-- 10 -->
      <g style="fill: #94a3b8" transform="translate(444.250313 162.039036) scale(0.09 -0.09)">
       <use xlink:href="#MicrosoftYaHei-31"/>
       <use xlink:href="#MicrosoftYaHei-30" transform="translate(58.642578 0)"/>
      </g>
     </g>
    </g>
    <g id="ytick_9">
     <g id="line2d_14">
      <g>
       <use xlink:href="#m010a146a9b" x="437.250313" y="130.397126" style="fill: #94a3b8; stroke: #94a3b8; stroke-width: 0.8"/>
      </g>
     </g>
     <g id="text_21">
      <!-- 20 -->
      <g style="fill: #94a3b8" transform="translate(444.250313 133.994314) scale(0.09 -0.09)">
       <use xlink:href="#MicrosoftYaHei-32"/>
       <use xlink:href="#MicrosoftYaHei-30" transform="translate(58.642578 0)"/>
      </g>
     </g>
    </g>
    <g id="ytick_10">
     <g id="line2d_15">
      <g>
       <use xlink:href="#m010a146a9b" x="437.250313" y="102.352403" style="fill: #94a3b8; stroke: #94a3b8; stroke-width: 0.8"/>
      </g>
     </g>
     <g id="text_22">
      <!-- 30 -->
      <g style="fill: #94a3b8" transform="translate(444.250313 105.949591) scale(0.09 -0.09)">
       <defs>
        <path id="MicrosoftYaHei-33" d="M 447 809 
Q 944 425 1569 425 
Q 2069 425 2361 670 
Q 2653 916 2653 1328 
Q 2653 2247 1338 2247 
L 934 2247 
L 934 2753 
L 1319 2753 
Q 2484 2753 2484 3616 
Q 2484 4413 1594 4413 
Q 1084 4413 634 4069 
L 634 4647 
Q 1109 4922 1744 4922 
Q 2363 4922 2738 4598 
Q 3113 4275 3113 3759 
Q 3113 2809 2144 2538 
L 2144 2525 
Q 2669 2469 2973 2155 
Q 3278 1841 3278 1372 
Q 3278 719 2808 319 
Q 2338 -81 1556 -81 
Q 869 -81 447 175 
L 447 809 
z
" transform="scale(0.015625)"/>
       </defs>
       <use xlink:href="#MicrosoftYaHei-33"/>
       <use xlink:href="#MicrosoftYaHei-30" transform="translate(58.642578 0)"/>
      </g>
     </g>
    </g>
    <g id="ytick_11">
     <g id="line2d_16">
      <g>
       <use xlink:href="#m010a146a9b" x="437.250313" y="74.30768" style="fill: #94a3b8; stroke: #94a3b8; stroke-width: 0.8"/>
      </g>
     </g>
     <g id="text_23">
      <!-- 40 -->
      <g style="fill: #94a3b8" transform="translate(444.250313 77.904868) scale(0.09 -0.09)">
       <use xlink:href="#MicrosoftYaHei-34"/>
       <use xlink:href="#MicrosoftYaHei-30" transform="translate(58.642578 0)"/>
      </g>
     </g>
    </g>
    <g id="ytick_12">
     <g id="line2d_17">
      <g>
       <use xlink:href="#m010a146a9b" x="437.250313" y="46.262957" style="fill: #94a3b8; stroke: #94a3b8; stroke-width: 0.8"/>
      </g>
     </g>
     <g id="text_24">
      <!-- 50 -->
      <g style="fill: #94a3b8" transform="translate(444.250313 49.860145) scale(0.09 -0.09)">
       <use xlink:href="#MicrosoftYaHei-35"/>
       <use xlink:href="#MicrosoftYaHei-30" transform="translate(58.642578 0)"/>
      </g>
     </g>
    </g>
    <g id="text_25">
     <!-- 介质厚度 (um) -->
     <g style="fill: #dc2626" transform="translate(466.799375 148.540812) rotate(-90) scale(0.1 -0.1)">
      <defs>
       <path id="MicrosoftYaHei-4ecb" d="M 3650 5234 
L 3519 5053 
Q 4569 3422 6319 2722 
Q 6119 2428 5981 2178 
Q 4144 3141 3206 4653 
Q 2269 3203 394 2084 
Q 238 2384 56 2628 
Q 1925 3528 2975 5234 
L 3650 5234 
z
M 1750 2791 
L 2250 2791 
Q 2250 741 1938 159 
Q 1688 -378 875 -941 
Q 713 -728 513 -522 
Q 1263 -47 1488 422 
Q 1750 903 1750 2791 
z
M 4056 2803 
L 4563 2803 
L 4563 -828 
L 4056 -828 
L 4056 2803 
z
" transform="scale(0.015625)"/>
       <path id="MicrosoftYaHei-8d28" d="M 1838 2628 
L 3500 2628 
L 3500 3353 
L 1450 3353 
L 1450 3791 
L 3500 3791 
L 3500 4472 
L 4000 4472 
L 4000 3791 
L 6125 3791 
L 6125 3353 
L 4000 3353 
L 4000 2628 
L 5681 2628 
L 5681 428 
L 5194 428 
L 5194 2191 
L 2325 2191 
L 2325 428 
L 1838 428 
L 1838 2628 
z
M 713 4934 
Q 3744 4947 5988 5197 
L 6163 4709 
Q 3813 4541 1213 4497 
L 1213 2578 
Q 1213 178 406 -872 
Q 219 -653 31 -466 
Q 713 372 713 2534 
L 713 4934 
z
M 4000 1866 
Q 4013 1053 3919 691 
Q 5063 191 6263 -403 
L 5994 -866 
Q 4794 -203 3763 272 
Q 3275 -559 1344 -884 
Q 1238 -684 1075 -428 
Q 3019 -128 3350 534 
Q 3525 822 3513 1866 
L 4000 1866 
z
" transform="scale(0.015625)"/>
       <path id="MicrosoftYaHei-539a" d="M 1856 4097 
L 5700 4097 
L 5700 2072 
L 5250 2072 
L 5250 2228 
L 2306 2228 
L 2306 2072 
L 1856 2072 
L 1856 4097 
z
M 1319 691 
L 3744 691 
L 3744 947 
L 4913 1391 
L 1850 1391 
L 1850 1778 
L 5725 1778 
L 5725 1347 
L 4206 766 
L 4206 691 
L 6231 691 
L 6231 291 
L 4206 291 
L 4206 -153 
Q 4206 -797 3494 -803 
Q 3219 -803 2656 -797 
Q 2625 -547 2588 -328 
Q 3000 -366 3413 -366 
Q 3744 -366 3744 -72 
L 3744 291 
L 1319 291 
L 1319 691 
z
M 1163 2853 
Q 1163 1591 1031 778 
Q 888 -97 450 -791 
Q 288 -584 94 -422 
Q 438 159 563 821 
Q 688 1484 688 2734 
L 688 4934 
L 6225 4934 
L 6225 4522 
L 1163 4522 
L 1163 2853 
z
M 2306 2591 
L 5250 2591 
L 5250 2991 
L 2306 2991 
L 2306 2591 
z
M 5250 3734 
L 2306 3734 
L 2306 3341 
L 5250 3341 
L 5250 3734 
z
" transform="scale(0.015625)"/>
       <path id="MicrosoftYaHei-5ea6" d="M 1550 1216 
L 1550 1628 
L 5469 1628 
L 5469 1222 
Q 4903 613 4147 163 
Q 5050 -200 6263 -309 
L 6019 -797 
Q 4625 -603 3644 -109 
Q 2600 -619 1250 -866 
Q 1150 -666 994 -416 
Q 2231 -222 3166 166 
Q 2497 600 2066 1216 
L 1550 1216 
z
M 1363 3541 
L 2294 3541 
L 2294 4066 
L 2769 4066 
L 2769 3541 
L 4538 3541 
L 4538 4072 
L 5013 4072 
L 5013 3541 
L 6150 3541 
L 6150 3128 
L 5013 3128 
L 5013 1928 
L 4538 1928 
L 4538 2147 
L 2769 2147 
L 2769 1922 
L 2294 1922 
L 2294 3128 
L 1363 3128 
L 1363 3541 
z
M 3025 5172 
L 3481 5391 
Q 3694 5056 3909 4634 
L 6213 4634 
L 6213 4197 
L 1225 4197 
L 1225 2316 
Q 1225 178 394 -872 
Q 238 -666 38 -447 
Q 725 397 738 2347 
L 738 4634 
L 3331 4634 
Q 3188 4909 3025 5172 
z
M 2769 2547 
L 4538 2547 
L 4538 3128 
L 2769 3128 
L 2769 2547 
z
M 4819 1216 
L 2588 1216 
Q 3031 728 3656 391 
Q 4334 741 4819 1216 
z
" transform="scale(0.015625)"/>
       <path id="MicrosoftYaHei-20" transform="scale(0.015625)"/>
       <path id="MicrosoftYaHei-28" d="M 1531 -1100 
Q 478 100 478 1847 
Q 478 3594 1531 4841 
L 2072 4841 
Q 1016 3544 1016 1853 
Q 1016 166 2066 -1100 
L 1531 -1100 
z
" transform="scale(0.015625)"/>
       <path id="MicrosoftYaHei-75" d="M 3400 0 
L 2784 0 
L 2784 544 
L 2772 544 
Q 2425 -81 1706 -81 
Q 478 -81 478 1388 
L 478 3456 
L 1084 3456 
L 1084 1478 
Q 1084 425 1891 425 
Q 2291 425 2537 720 
Q 2784 1016 2784 1466 
L 2784 3456 
L 3400 3456 
L 3400 0 
z
" transform="scale(0.015625)"/>
       <path id="MicrosoftYaHei-6d" d="M 5522 0 
L 4909 0 
L 4909 1984 
Q 4909 2547 4734 2789 
Q 4559 3031 4159 3031 
Q 3822 3031 3581 2715 
Q 3341 2400 3341 1969 
L 3341 0 
L 2728 0 
L 2728 2047 
Q 2728 3031 1969 3031 
Q 1619 3031 1389 2731 
Q 1159 2431 1159 1966 
L 1159 0 
L 547 0 
L 547 3456 
L 1159 3456 
L 1159 2909 
L 1172 2909 
Q 1541 3538 2250 3538 
Q 2597 3538 2862 3347 
Q 3128 3156 3231 2831 
Q 3616 3538 4381 3538 
Q 5522 3538 5522 2131 
L 5522 0 
z
" transform="scale(0.015625)"/>
       <path id="MicrosoftYaHei-29" d="M 78 -1100 
Q 1131 163 1131 1853 
Q 1131 3547 72 4841 
L 616 4841 
Q 1672 3603 1672 1847 
Q 1672 91 616 -1100 
L 78 -1100 
z
" transform="scale(0.015625)"/>
      </defs>
      <use xlink:href="#MicrosoftYaHei-4ecb"/>
      <use xlink:href="#MicrosoftYaHei-8d28" transform="translate(100 0)"/>
      <use xlink:href="#MicrosoftYaHei-539a" transform="translate(200 0)"/>
      <use xlink:href="#MicrosoftYaHei-5ea6" transform="translate(300 0)"/>
      <use xlink:href="#MicrosoftYaHei-20" transform="translate(400 0)"/>
      <use xlink:href="#MicrosoftYaHei-28" transform="translate(429.589844 0)"/>
      <use xlink:href="#MicrosoftYaHei-75" transform="translate(462.988281 0)"/>
      <use xlink:href="#MicrosoftYaHei-6d" transform="translate(524.609375 0)"/>
      <use xlink:href="#MicrosoftYaHei-29" transform="translate(618.310547 0)"/>
     </g>
    </g>
   </g>
   <g id="patch_10">
    <path d="M 49.790313 192.614344 
L 49.790313 39.293844 
" style="fill: none; stroke: #000000; stroke-width: 0.8; stroke-linejoin: miter; stroke-linecap: square"/>
   </g>
   <g id="patch_11">
    <path d="M 437.250313 192.614344 
L 437.250313 39.293844 
" style="fill: none; stroke: #000000; stroke-width: 0.8; stroke-linejoin: miter; stroke-linecap: square"/>
   </g>
   <g id="patch_12">
    <path d="M 49.790313 192.614344 
L 437.250313 192.614344 
" style="fill: none; stroke: #000000; stroke-width: 0.8; stroke-linejoin: miter; stroke-linecap: square"/>
   </g>
   <g id="line2d_18">
    <path d="M 90.374067 46.262957 
L 166.94719 158.441849 
L 243.520313 178.073155 
L 320.093435 185.084336 
L 396.666558 185.64523 
" clip-path="url(#pa430a156fa)" style="fill: none; stroke: #dc2626; stroke-width: 2; stroke-linecap: square"/>
    <defs>
     <path id="m0318ca8c5f" d="M 0 4.242641 
L 4.242641 0 
L 0 -4.242641 
L -4.242641 0 
z
" style="stroke: #dc2626; stroke-linejoin: miter"/>
    </defs>
    <g clip-path="url(#pa430a156fa)">
     <use xlink:href="#m0318ca8c5f" x="90.374067" y="46.262957" style="fill: #dc2626; stroke: #dc2626; stroke-linejoin: miter"/>
     <use xlink:href="#m0318ca8c5f" x="166.94719" y="158.441849" style="fill: #dc2626; stroke: #dc2626; stroke-linejoin: miter"/>
     <use xlink:href="#m0318ca8c5f" x="243.520313" y="178.073155" style="fill: #dc2626; stroke: #dc2626; stroke-linejoin: miter"/>
     <use xlink:href="#m0318ca8c5f" x="320.093435" y="185.084336" style="fill: #dc2626; stroke: #dc2626; stroke-linejoin: miter"/>
     <use xlink:href="#m0318ca8c5f" x="396.666558" y="185.64523" style="fill: #dc2626; stroke: #dc2626; stroke-linejoin: miter"/>
    </g>
   </g>
   <g id="legend_1">
    <g id="patch_13">
     <path d="M 346.157656 60.425562 
L 430.950313 60.425562 
Q 432.750313 60.425562 432.750313 58.625562 
L 432.750313 45.593844 
Q 432.750313 43.793844 430.950313 43.793844 
L 346.157656 43.793844 
Q 344.357656 43.793844 344.357656 45.593844 
L 344.357656 58.625562 
Q 344.357656 60.425562 346.157656 60.425562 
z
" style="fill: #ffffff; opacity: 0.8; stroke: #cccccc; stroke-linejoin: miter"/>
    </g>
    <g id="line2d_19">
     <path d="M 347.957656 51.438219 
L 356.957656 51.438219 
L 365.957656 51.438219 
" style="fill: none; stroke: #dc2626; stroke-width: 2; stroke-linecap: square"/>
     <g>
      <use xlink:href="#m0318ca8c5f" x="356.957656" y="51.438219" style="fill: #dc2626; stroke: #dc2626; stroke-linejoin: miter"/>
     </g>
    </g>
    <g id="text_26">
     <!-- 介质厚度(um) -->
     <g transform="translate(373.157656 54.588219) scale(0.09 -0.09)">
      <use xlink:href="#MicrosoftYaHei-4ecb"/>
      <use xlink:href="#MicrosoftYaHei-8d28" transform="translate(100 0)"/>
      <use xlink:href="#MicrosoftYaHei-539a" transform="translate(200 0)"/>
      <use xlink:href="#MicrosoftYaHei-5ea6" transform="translate(300 0)"/>
      <use xlink:href="#MicrosoftYaHei-28" transform="translate(400 0)"/>
      <use xlink:href="#MicrosoftYaHei-75" transform="translate(433.398438 0)"/>
      <use xlink:href="#MicrosoftYaHei-6d" transform="translate(495.019531 0)"/>
      <use xlink:href="#MicrosoftYaHei-29" transform="translate(588.720703 0)"/>
     </g>
    </g>
   </g>
  </g>
  <g id="text_27">
   <!-- 数据来源：村田、TDK、三星电机技术白皮书 | 车规MLCC需AEC-Q200认证 -->
   <g style="fill: #94a3b8" transform="translate(120.965547 235.152844) scale(0.07 -0.07)">
    <defs>
     <path id="MicrosoftYaHei-636e" d="M 2900 1334 
L 4188 1334 
L 4188 2128 
L 2731 2128 
Q 2663 206 1844 -841 
Q 1694 -647 1506 -447 
Q 2288 516 2288 2509 
L 2288 4947 
L 5975 4947 
L 5975 3134 
L 5525 3134 
L 5525 3328 
L 2738 3328 
L 2738 2553 
L 4188 2553 
L 4188 3209 
L 4638 3209 
L 4638 2553 
L 6288 2553 
L 6288 2128 
L 4638 2128 
L 4638 1334 
L 5938 1334 
L 5938 -778 
L 5488 -778 
L 5488 -416 
L 3350 -416 
L 3350 -778 
L 2900 -778 
L 2900 1334 
z
M 100 1966 
Q 544 2088 963 2213 
L 963 3641 
L 175 3641 
L 175 4091 
L 963 4091 
L 963 5284 
L 1425 5284 
L 1425 4091 
L 2106 4091 
L 2106 3641 
L 1425 3641 
L 1425 2356 
Q 1722 2450 2006 2547 
Q 2013 2266 2044 2059 
Q 1722 1956 1425 1856 
L 1425 -34 
Q 1425 -741 806 -753 
Q 613 -759 231 -747 
Q 206 -497 156 -228 
Q 500 -266 681 -266 
Q 963 -266 963 53 
L 963 1703 
Q 534 1559 163 1428 
L 100 1966 
z
M 5525 4534 
L 2738 4534 
L 2738 3741 
L 5525 3741 
L 5525 4534 
z
M 5488 922 
L 3350 922 
L 3350 -9 
L 5488 -9 
L 5488 922 
z
" transform="scale(0.015625)"/>
     <path id="MicrosoftYaHei-6765" d="M 6325 141 
Q 6119 -122 5975 -334 
Q 4344 403 3438 1550 
L 3438 -841 
L 2963 -841 
L 2963 1584 
Q 2050 516 413 -409 
Q 281 -222 75 22 
Q 1706 841 2806 1922 
L 181 1922 
L 181 2359 
L 2963 2359 
L 2963 4003 
L 550 4003 
L 550 4441 
L 2963 4441 
L 2963 5341 
L 3438 5341 
L 3438 4441 
L 5900 4441 
L 5900 4003 
L 3438 4003 
L 3438 2359 
L 6225 2359 
L 6225 1922 
L 3566 1922 
Q 4594 778 6325 141 
z
M 4056 2766 
Q 4631 3378 4950 3828 
L 5381 3497 
Q 4913 2941 4419 2453 
L 4056 2766 
z
M 1075 3509 
L 1438 3803 
Q 1900 3347 2313 2828 
L 1900 2484 
Q 1581 2922 1075 3509 
z
" transform="scale(0.015625)"/>
     <path id="MicrosoftYaHei-6e90" d="M 2931 3741 
L 3744 3741 
Q 3878 4094 4006 4478 
L 2425 4478 
L 2425 2678 
Q 2425 222 1463 -841 
Q 1313 -647 1100 -453 
Q 1963 509 1963 2672 
L 1963 4903 
L 6300 4903 
L 6300 4478 
L 4547 4478 
Q 4375 4103 4194 3741 
L 5844 3741 
L 5844 1178 
L 5394 1178 
L 5394 1341 
L 4588 1341 
L 4588 -128 
Q 4588 -797 3938 -797 
Q 3725 -797 3394 -791 
Q 3363 -603 3306 -359 
Q 3619 -384 3850 -384 
Q 4138 -384 4138 -84 
L 4138 1341 
L 3381 1341 
L 3381 1178 
L 2931 1178 
L 2931 3741 
z
M 831 1878 
Q 1056 1734 1275 1666 
Q 1019 603 700 -766 
L 219 -603 
Q 581 678 831 1878 
z
M 3381 1753 
L 5394 1753 
L 5394 2347 
L 3381 2347 
L 3381 1753 
z
M 5394 3328 
L 3381 3328 
L 3381 2747 
L 5394 2747 
L 5394 3328 
z
M 6288 -241 
L 5894 -541 
Q 5450 128 4931 759 
L 5294 1016 
Q 5863 353 6288 -241 
z
M 2363 -297 
Q 2894 272 3306 984 
L 3706 741 
Q 3231 -16 2731 -584 
L 2363 -297 
z
M 400 3622 
Q 888 3272 1500 2784 
Q 1281 2522 1144 2378 
Q 544 2909 88 3266 
L 400 3622 
z
M 669 5228 
Q 1163 4859 1688 4384 
Q 1469 4172 1313 4003 
Q 769 4541 350 4884 
L 669 5228 
z
" transform="scale(0.015625)"/>
     <path id="MicrosoftYaHei-ff1a" d="M 1606 3531 
Q 1772 3531 1890 3415 
Q 2009 3300 2009 3138 
Q 2009 2975 1893 2858 
Q 1778 2741 1606 2741 
Q 1434 2741 1318 2858 
Q 1203 2975 1203 3138 
Q 1203 3300 1322 3415 
Q 1441 3531 1606 3531 
z
M 1606 716 
Q 1772 716 1890 600 
Q 2009 484 2009 319 
Q 2009 150 1890 36 
Q 1772 -78 1606 -78 
Q 1441 -78 1322 36 
Q 1203 150 1203 319 
Q 1203 484 1322 600 
Q 1441 716 1606 716 
z
" transform="scale(0.015625)"/>
     <path id="MicrosoftYaHei-6751" d="M 88 1334 
Q 847 2359 1150 3597 
L 188 3597 
L 188 4041 
L 1219 4041 
L 1219 5303 
L 1700 5303 
L 1700 4041 
L 2606 4041 
L 2606 3597 
L 1700 3597 
L 1700 2525 
L 2019 2759 
Q 2325 2391 2869 1734 
L 2475 1409 
Q 2059 1997 1700 2450 
L 1700 -809 
L 1219 -809 
L 1219 2606 
Q 866 1503 331 784 
Q 219 1053 88 1334 
z
M 2863 4022 
L 4925 4022 
L 4925 5303 
L 5419 5303 
L 5419 4022 
L 6306 4022 
L 6306 3566 
L 5419 3566 
L 5419 178 
Q 5419 -691 4600 -691 
Q 4238 -691 3519 -684 
Q 3481 -459 3419 -134 
Q 4138 -178 4419 -178 
Q 4925 -178 4925 241 
L 4925 3566 
L 2863 3566 
L 2863 4022 
z
M 2981 2691 
L 3375 2934 
Q 3881 2191 4269 1491 
L 3813 1222 
Q 3444 1928 2981 2691 
z
" transform="scale(0.015625)"/>
     <path id="MicrosoftYaHei-7530" d="M 613 4878 
L 5800 4878 
L 5800 -684 
L 5313 -684 
L 5313 -234 
L 1100 -234 
L 1100 -684 
L 613 -684 
L 613 4878 
z
M 3444 241 
L 5313 241 
L 5313 2116 
L 3444 2116 
L 3444 241 
z
M 1100 241 
L 2963 241 
L 2963 2116 
L 1100 2116 
L 1100 241 
z
M 5313 4403 
L 3444 4403 
L 3444 2591 
L 5313 2591 
L 5313 4403 
z
M 1100 2591 
L 2963 2591 
L 2963 4403 
L 1100 4403 
L 1100 2591 
z
" transform="scale(0.015625)"/>
     <path id="MicrosoftYaHei-3001" d="M 1931 -413 
L 1556 -791 
Q 1028 -216 397 306 
L 728 650 
Q 1506 22 1931 -413 
z
" transform="scale(0.015625)"/>
     <path id="MicrosoftYaHei-54" d="M 3550 4284 
L 2153 4284 
L 2153 0 
L 1525 0 
L 1525 4284 
L 134 4284 
L 134 4841 
L 3550 4841 
L 3550 4284 
z
" transform="scale(0.015625)"/>
     <path id="MicrosoftYaHei-44" d="M 625 0 
L 625 4841 
L 2006 4841 
Q 3106 4841 3836 4200 
Q 4566 3559 4566 2481 
Q 4566 1356 3836 678 
Q 3106 0 1956 0 
L 625 0 
z
M 1250 4284 
L 1250 553 
L 1953 553 
Q 2875 553 3392 1056 
Q 3909 1559 3909 2466 
Q 3909 3372 3378 3828 
Q 2847 4284 1981 4284 
L 1250 4284 
z
" transform="scale(0.015625)"/>
     <path id="MicrosoftYaHei-4b" d="M 4069 0 
L 3213 0 
L 1394 2200 
Q 1300 2316 1266 2381 
L 1250 2381 
L 1250 0 
L 625 0 
L 625 4841 
L 1250 4841 
L 1250 2563 
L 1266 2563 
Q 1319 2647 1394 2741 
L 3150 4841 
L 3922 4841 
L 1891 2519 
L 4069 0 
z
" transform="scale(0.015625)"/>
     <path id="MicrosoftYaHei-4e09" d="M 575 4691 
L 5813 4691 
L 5813 4153 
L 575 4153 
L 575 4691 
z
M 188 166 
L 6225 166 
L 6225 -359 
L 188 -359 
L 188 166 
z
M 856 2547 
L 5531 2547 
L 5531 2016 
L 856 2016 
L 856 2547 
z
" transform="scale(0.015625)"/>
     <path id="MicrosoftYaHei-661f" d="M 900 5047 
L 5600 5047 
L 5600 2422 
L 5125 2422 
L 5125 2641 
L 900 2641 
L 900 5047 
z
M 275 -141 
L 3113 -141 
L 3113 472 
L 1075 472 
L 1075 922 
L 3113 922 
L 3113 1497 
L 1294 1497 
Q 928 963 506 516 
Q 356 684 144 884 
Q 863 1597 1338 2547 
L 1813 2347 
Q 1700 2141 1584 1947 
L 3113 1947 
L 3113 2503 
L 3613 2503 
L 3613 1947 
L 5963 1947 
L 5963 1497 
L 3613 1497 
L 3613 922 
L 5794 922 
L 5794 472 
L 3613 472 
L 3613 -141 
L 6250 -141 
L 6250 -591 
L 275 -591 
L 275 -141 
z
M 1375 3078 
L 5125 3078 
L 5125 3634 
L 1375 3634 
L 1375 3078 
z
M 5125 4609 
L 1375 4609 
L 1375 4059 
L 5125 4059 
L 5125 4609 
z
" transform="scale(0.015625)"/>
     <path id="MicrosoftYaHei-7535" d="M 406 4497 
L 2713 4497 
L 2713 5297 
L 3231 5297 
L 3231 4497 
L 5544 4497 
L 5544 984 
L 3231 984 
L 3231 253 
Q 3231 -128 3631 -128 
L 5094 -128 
Q 5519 -128 5613 153 
Q 5713 459 5756 1034 
Q 5938 953 6275 841 
Q 6200 341 6106 -16 
Q 5950 -603 5256 -603 
L 3594 -603 
Q 2713 -603 2713 259 
L 2713 984 
L 925 984 
L 925 553 
L 406 553 
L 406 4497 
z
M 5025 1453 
L 5025 2522 
L 3231 2522 
L 3231 1453 
L 5025 1453 
z
M 925 1453 
L 2713 1453 
L 2713 2522 
L 925 2522 
L 925 1453 
z
M 5025 4028 
L 3231 4028 
L 3231 2966 
L 5025 2966 
L 5025 4028 
z
M 925 2966 
L 2713 2966 
L 2713 4028 
L 925 4028 
L 925 2966 
z
" transform="scale(0.015625)"/>
     <path id="MicrosoftYaHei-673a" d="M 3375 4434 
L 3375 2366 
Q 3375 128 2256 -878 
Q 2081 -666 1888 -453 
Q 2875 416 2875 2253 
L 2875 4909 
L 5200 4909 
L 5200 209 
Q 5200 -103 5419 -103 
L 5563 -103 
Q 5763 -103 5819 247 
Q 5881 728 5906 1284 
Q 6125 1178 6381 1084 
Q 6325 466 6269 72 
Q 6169 -591 5631 -591 
L 5300 -591 
Q 4700 -591 4700 122 
L 4700 4434 
L 3375 4434 
z
M 81 1403 
Q 781 2447 1078 3653 
L 144 3653 
L 144 4078 
L 1119 4078 
L 1119 5309 
L 1569 5309 
L 1569 4078 
L 2444 4078 
L 2444 3653 
L 1569 3653 
L 1569 2616 
L 1819 2866 
Q 2300 2428 2575 2153 
L 2238 1809 
Q 1853 2234 1569 2516 
L 1569 -784 
L 1119 -784 
L 1119 2566 
Q 784 1506 288 853 
Q 188 1134 81 1403 
z
" transform="scale(0.015625)"/>
     <path id="MicrosoftYaHei-6280" d="M 2394 2472 
L 2394 2884 
L 4000 2884 
L 4000 3841 
L 2369 3841 
L 2369 4297 
L 4000 4297 
L 4000 5303 
L 4500 5303 
L 4500 4297 
L 6200 4297 
L 6200 3841 
L 4500 3841 
L 4500 2884 
L 5831 2884 
L 5831 2509 
Q 5391 1259 4578 484 
Q 5281 -69 6319 -359 
Q 6081 -634 5919 -841 
Q 4903 -428 4197 163 
Q 3375 -456 2275 -891 
Q 2144 -691 1944 -447 
Q 3059 -84 3850 491 
Q 3156 1247 2809 2472 
L 2394 2472 
z
M 75 2009 
Q 547 2144 988 2275 
L 988 3622 
L 156 3622 
L 156 4053 
L 988 4053 
L 988 5266 
L 1469 5266 
L 1469 4053 
L 2200 4053 
L 2200 3622 
L 1469 3622 
L 1469 2425 
Q 1828 2541 2169 2653 
Q 2169 2353 2181 2166 
Q 1828 2053 1469 1938 
L 1469 -78 
Q 1469 -741 844 -747 
Q 594 -753 244 -747 
Q 206 -484 163 -216 
Q 531 -253 719 -253 
Q 988 -253 988 28 
L 988 1778 
Q 566 1638 138 1491 
L 75 2009 
z
M 5288 2472 
L 3291 2472 
Q 3572 1484 4228 803 
Q 4966 1503 5288 2472 
z
" transform="scale(0.015625)"/>
     <path id="MicrosoftYaHei-672f" d="M 6350 409 
Q 6125 153 5950 -91 
Q 4391 1013 3456 3025 
L 3456 -841 
L 2956 -841 
L 2956 3038 
Q 2081 1163 400 -172 
Q 256 28 38 303 
Q 1716 1519 2713 3353 
L 238 3353 
L 238 3816 
L 2956 3816 
L 2956 5328 
L 3456 5328 
L 3456 3816 
L 6188 3816 
L 6188 3353 
L 3684 3353 
Q 4725 1316 6350 409 
z
M 4069 4884 
L 4388 5234 
Q 4931 4866 5463 4416 
L 5113 4028 
Q 4594 4491 4069 4884 
z
" transform="scale(0.015625)"/>
     <path id="MicrosoftYaHei-767d" d="M 638 4409 
L 2275 4409 
Q 2497 4894 2656 5378 
L 3200 5234 
Q 3009 4809 2809 4409 
L 5738 4409 
L 5738 -753 
L 5225 -753 
L 5225 -316 
L 1150 -316 
L 1150 -753 
L 638 -753 
L 638 4409 
z
M 1150 147 
L 5225 147 
L 5225 1859 
L 1150 1859 
L 1150 147 
z
M 5225 3947 
L 1150 3947 
L 1150 2309 
L 5225 2309 
L 5225 3947 
z
" transform="scale(0.015625)"/>
     <path id="MicrosoftYaHei-76ae" d="M 3188 5316 
L 3700 5316 
L 3700 4578 
L 6075 4578 
L 5944 3134 
Q 5694 3172 5431 3178 
L 5531 4128 
L 3700 4128 
L 3700 2791 
L 5600 2791 
L 5600 2341 
Q 5013 1153 4056 391 
Q 5000 -97 6319 -284 
Q 6106 -597 5944 -847 
Q 4569 -522 3581 72 
Q 2575 -509 1313 -897 
Q 1163 -666 988 -409 
Q 2131 -141 3138 378 
Q 2175 1141 1706 2347 
L 1300 2347 
Q 1269 203 450 -834 
Q 269 -609 88 -403 
Q 788 472 788 2466 
L 788 4578 
L 3188 4578 
L 3188 5316 
z
M 5038 2347 
L 2206 2347 
Q 2681 1297 3594 672 
Q 4513 1341 5038 2347 
z
M 1300 2791 
L 3188 2791 
L 3188 4128 
L 1300 4128 
L 1300 2791 
z
" transform="scale(0.015625)"/>
     <path id="MicrosoftYaHei-4e66" d="M 175 2416 
L 2525 2416 
L 2525 3747 
L 581 3747 
L 581 4209 
L 2525 4209 
L 2525 5284 
L 3044 5284 
L 3044 4209 
L 5200 4209 
L 5084 2416 
L 5944 2416 
Q 5931 1722 5900 984 
Q 5863 -47 4925 -34 
Q 4438 -41 3875 9 
Q 3844 297 3781 559 
Q 4356 453 4863 453 
Q 5381 441 5406 1022 
Q 5425 1466 5431 1953 
L 3044 1953 
L 3044 -809 
L 2525 -809 
L 2525 1953 
L 175 1953 
L 175 2416 
z
M 4669 3747 
L 3044 3747 
L 3044 2416 
L 4581 2416 
L 4669 3747 
z
M 4513 4922 
L 4819 5272 
Q 5481 4828 6006 4434 
L 5675 4041 
Q 5188 4453 4513 4922 
z
" transform="scale(0.015625)"/>
     <path id="MicrosoftYaHei-7c" d="M 1134 -1628 
L 597 -1628 
L 597 5284 
L 1134 5284 
L 1134 -1628 
z
" transform="scale(0.015625)"/>
     <path id="MicrosoftYaHei-4d" d="M 5003 0 
L 5003 3206 
Q 5003 3603 5050 4159 
L 5034 4159 
Q 4953 3809 4891 3672 
L 3294 0 
L 2947 0 
L 1353 3644 
Q 1297 3769 1209 4159 
L 1191 4159 
Q 1222 3822 1222 3178 
L 1222 0 
L 625 0 
L 625 4841 
L 1472 4841 
L 2900 1522 
Q 3063 1141 3116 928 
L 3138 928 
Q 3300 1375 3366 1534 
L 4819 4841 
L 5625 4841 
L 5625 0 
L 5003 0 
z
" transform="scale(0.015625)"/>
     <path id="MicrosoftYaHei-4c" d="M 3178 0 
L 625 0 
L 625 4841 
L 1250 4841 
L 1250 553 
L 3178 553 
L 3178 0 
z
" transform="scale(0.015625)"/>
     <path id="MicrosoftYaHei-43" d="M 3938 200 
Q 3403 -81 2597 -81 
Q 1556 -81 934 580 
Q 313 1241 313 2328 
Q 313 3497 1013 4209 
Q 1713 4922 2791 4922 
Q 3484 4922 3938 4725 
L 3938 4072 
Q 3419 4359 2797 4359 
Q 1988 4359 1478 3820 
Q 969 3281 969 2366 
Q 969 1497 1444 986 
Q 1919 475 2688 475 
Q 3406 475 3938 800 
L 3938 200 
z
" transform="scale(0.015625)"/>
     <path id="MicrosoftYaHei-9700" d="M 1188 -822 
L 713 -822 
L 713 1228 
L 2750 1228 
L 2853 1716 
L 125 1716 
L 125 2103 
L 6275 2103 
L 6275 1716 
L 3338 1716 
L 3213 1228 
L 5719 1228 
L 5719 -172 
Q 5719 -791 5100 -791 
Q 4800 -791 4444 -778 
Q 4425 -572 4356 -297 
Q 4725 -334 4963 -334 
Q 5244 -334 5244 -84 
L 5244 841 
L 4169 841 
L 4169 -647 
L 3725 -647 
L 3725 841 
L 2688 841 
L 2688 -647 
L 2244 -647 
L 2244 841 
L 1188 841 
L 1188 -822 
z
M 338 4266 
L 2975 4266 
L 2975 4628 
L 650 4628 
L 650 5016 
L 5700 5016 
L 5700 4628 
L 3419 4628 
L 3419 4266 
L 6063 4266 
L 6063 3103 
L 5581 3103 
L 5581 3878 
L 3419 3878 
L 3419 2391 
L 2975 2391 
L 2975 3878 
L 819 3878 
L 819 3103 
L 338 3103 
L 338 4266 
z
M 3750 2816 
L 5219 2816 
L 5219 2478 
L 3750 2478 
L 3750 2816 
z
M 1175 3516 
L 2644 3516 
L 2644 3178 
L 1175 3178 
L 1175 3516 
z
M 1175 2816 
L 2644 2816 
L 2644 2478 
L 1175 2478 
L 1175 2816 
z
M 3750 3516 
L 5219 3516 
L 5219 3178 
L 3750 3178 
L 3750 3516 
z
" transform="scale(0.015625)"/>
     <path id="MicrosoftYaHei-45" d="M 3228 0 
L 625 0 
L 625 4841 
L 3119 4841 
L 3119 4284 
L 1250 4284 
L 1250 2734 
L 2981 2734 
L 2981 2181 
L 1250 2181 
L 1250 553 
L 3228 553 
L 3228 0 
z
" transform="scale(0.015625)"/>
     <path id="MicrosoftYaHei-2d" d="M 2328 1681 
L 488 1681 
L 488 2153 
L 2328 2153 
L 2328 1681 
z
" transform="scale(0.015625)"/>
     <path id="MicrosoftYaHei-51" d="M 313 2363 
Q 313 3534 947 4228 
Q 1581 4922 2666 4922 
Q 3675 4922 4290 4244 
Q 4906 3566 4906 2478 
Q 4906 1300 4275 609 
Q 4125 447 3953 322 
L 5313 -653 
L 4284 -653 
L 3366 28 
Q 3009 -81 2588 -81 
Q 1556 -81 934 597 
Q 313 1275 313 2363 
z
M 969 2413 
Q 969 1534 1417 1004 
Q 1866 475 2588 475 
Q 3363 475 3805 983 
Q 4247 1491 4247 2403 
Q 4247 3341 3814 3850 
Q 3381 4359 2628 4359 
Q 1888 4359 1428 3821 
Q 969 3284 969 2413 
z
" transform="scale(0.015625)"/>
     <path id="MicrosoftYaHei-8ba4" d="M 3788 5253 
L 4294 5253 
Q 4288 4431 4272 3644 
Q 4616 791 6325 -222 
Q 6100 -472 5919 -703 
Q 4584 234 4103 2297 
Q 3759 409 2181 -816 
Q 2038 -641 1819 -416 
Q 3756 978 3769 3678 
Q 3788 4378 3788 5253 
z
M 2525 1634 
Q 2563 1359 2625 1128 
Q 1975 628 1381 97 
Q 1213 -59 1094 -228 
L 725 159 
Q 925 366 925 709 
L 925 2816 
L 88 2816 
L 88 3266 
L 1413 3266 
L 1413 716 
Q 1875 1084 2525 1634 
z
M 1025 5203 
Q 1625 4597 2081 4097 
L 1650 3741 
Q 1213 4291 656 4891 
L 1025 5203 
z
" transform="scale(0.015625)"/>
     <path id="MicrosoftYaHei-8bc1" d="M 1681 -34 
L 2550 -34 
L 2550 3422 
L 3031 3422 
L 3031 -34 
L 4025 -34 
L 4025 4534 
L 2025 4534 
L 2025 4997 
L 6200 4997 
L 6200 4534 
L 4525 4534 
L 4525 2653 
L 5975 2653 
L 5975 2191 
L 4525 2191 
L 4525 -34 
L 6300 -34 
L 6300 -497 
L 1681 -497 
L 1681 -34 
z
M 2050 1534 
Q 2075 1316 2169 991 
Q 1413 241 1025 -203 
L 669 203 
Q 856 466 856 828 
L 856 2784 
L 100 2784 
L 100 3234 
L 1338 3234 
L 1338 797 
Q 1625 1072 2050 1534 
z
M 706 5222 
Q 1438 4478 1731 4147 
L 1294 3778 
Q 900 4291 325 4891 
L 706 5222 
z
" transform="scale(0.015625)"/>
    </defs>
    <use xlink:href="#MicrosoftYaHei-6570"/>
    <use xlink:href="#MicrosoftYaHei-636e" transform="translate(100 0)"/>
    <use xlink:href="#MicrosoftYaHei-6765" transform="translate(200 0)"/>
    <use xlink:href="#MicrosoftYaHei-6e90" transform="translate(300 0)"/>
    <use xlink:href="#MicrosoftYaHei-ff1a" transform="translate(400 0)"/>
    <use xlink:href="#MicrosoftYaHei-6751" transform="translate(500 0)"/>
    <use xlink:href="#MicrosoftYaHei-7530" transform="translate(600 0)"/>
    <use xlink:href="#MicrosoftYaHei-3001" transform="translate(700 0)"/>
    <use xlink:href="#MicrosoftYaHei-54" transform="translate(800 0)"/>
    <use xlink:href="#MicrosoftYaHei-44" transform="translate(857.324219 0)"/>
    <use xlink:href="#MicrosoftYaHei-4b" transform="translate(933.496094 0)"/>
    <use xlink:href="#MicrosoftYaHei-3001" transform="translate(996.972656 0)"/>
    <use xlink:href="#MicrosoftYaHei-4e09" transform="translate(1096.972656 0)"/>
    <use xlink:href="#MicrosoftYaHei-661f" transform="translate(1196.972656 0)"/>
    <use xlink:href="#MicrosoftYaHei-7535" transform="translate(1296.972656 0)"/>
    <use xlink:href="#MicrosoftYaHei-673a" transform="translate(1396.972656 0)"/>
    <use xlink:href="#MicrosoftYaHei-6280" transform="translate(1496.972656 0)"/>
    <use xlink:href="#MicrosoftYaHei-672f" transform="translate(1596.972656 0)"/>
    <use xlink:href="#MicrosoftYaHei-767d" transform="translate(1696.972656 0)"/>
    <use xlink:href="#MicrosoftYaHei-76ae" transform="translate(1796.972656 0)"/>
    <use xlink:href="#MicrosoftYaHei-4e66" transform="translate(1896.972656 0)"/>
    <use xlink:href="#MicrosoftYaHei-20" transform="translate(1996.972656 0)"/>
    <use xlink:href="#MicrosoftYaHei-7c" transform="translate(2026.5625 0)"/>
    <use xlink:href="#MicrosoftYaHei-20" transform="translate(2053.466797 0)"/>
    <use xlink:href="#MicrosoftYaHei-8f66" transform="translate(2083.056641 0)"/>
    <use xlink:href="#MicrosoftYaHei-89c4" transform="translate(2183.056641 0)"/>
    <use xlink:href="#MicrosoftYaHei-4d" transform="translate(2283.056641 0)"/>
    <use xlink:href="#MicrosoftYaHei-4c" transform="translate(2380.761719 0)"/>
    <use xlink:href="#MicrosoftYaHei-43" transform="translate(2428.580078 0)"/>
    <use xlink:href="#MicrosoftYaHei-43" transform="translate(2492.599609 0)"/>
    <use xlink:href="#MicrosoftYaHei-9700" transform="translate(2559.494141 0)"/>
    <use xlink:href="#MicrosoftYaHei-41" transform="translate(2659.494141 0)"/>
    <use xlink:href="#MicrosoftYaHei-45" transform="translate(2729.855469 0)"/>
    <use xlink:href="#MicrosoftYaHei-43" transform="translate(2784.835938 0)"/>
    <use xlink:href="#MicrosoftYaHei-2d" transform="translate(2851.730469 0)"/>
    <use xlink:href="#MicrosoftYaHei-51" transform="translate(2894.992188 0)"/>
    <use xlink:href="#MicrosoftYaHei-32" transform="translate(2976.486328 0)"/>
    <use xlink:href="#MicrosoftYaHei-30" transform="translate(3035.128906 0)"/>
    <use xlink:href="#MicrosoftYaHei-30" transform="translate(3093.771484 0)"/>
    <use xlink:href="#MicrosoftYaHei-8ba4" transform="translate(3152.414062 0)"/>
    <use xlink:href="#MicrosoftYaHei-8bc1" transform="translate(3252.414062 0)"/>
   </g>
  </g>
 </g>
 <defs>
  <clipPath id="pa430a156fa">
   <rect x="49.790313" y="39.293844" width="387.46" height="153.3205"/>
  </clipPath>
 </defs>
</svg>
