<svg xmlns="http://www.w3.org/2000/svg" viewBox="0 0 580 400" font-family="'PingFang SC','Microsoft YaHei','Helvetica Neue',sans-serif">
  <defs>
    <linearGradient id="bgG" x1="0" y1="0" x2="0" y2="1">
      <stop offset="0%" stop-color="#F0F2F5"/>
      <stop offset="100%" stop-color="#E8ECF1"/>
    </linearGradient>
  </defs>
  <rect width="580" height="400" fill="url(#bgG)" rx="8"/>
  <rect x="15" y="15" width="550" height="370" rx="8" fill="#FFFFFF"/>

  <text x="290" y="52" text-anchor="middle" font-size="20" font-weight="700" fill="#1E293B">今日热点速览</text>
  <text x="290" y="78" text-anchor="middle" font-size="13" fill="#64748B">2026年5月28日 · 6件关键信息</text>

  <line x1="30" y1="92" x2="550" y2="92" stroke="#E2E8F0" stroke-width="1"/>

  <!-- Row 1: 3 items -->
  <rect x="30" y="108" width="165" height="68" rx="8" fill="#FEF2F2" stroke="#FECACA" stroke-width="1"/>
  <text x="112" y="136" text-anchor="middle" font-size="16" font-weight="700" fill="#DC2626">01 A股 · 探底回升</text>
  <text x="112" y="160" text-anchor="middle" font-size="13" fill="#9A3412">创业板+1.96% · 126股涨停</text>

  <rect x="207" y="108" width="165" height="68" rx="8" fill="#F5F3FF" stroke="#DDD6FE" stroke-width="1"/>
  <text x="289" y="136" text-anchor="middle" font-size="16" font-weight="700" fill="#7C3AED">02 科技 · 算力爆发</text>
  <text x="289" y="160" text-anchor="middle" font-size="13" fill="#6D28D9">华虹+15%新高 · PCB领涨</text>

  <rect x="384" y="108" width="166" height="68" rx="8" fill="#F0FDF4" stroke="#86EFAC" stroke-width="1"/>
  <text x="467" y="136" text-anchor="middle" font-size="16" font-weight="700" fill="#16A34A">03 AI · Snowflake</text>
  <text x="467" y="160" text-anchor="middle" font-size="13" fill="#166534">盘后+37% · 60亿AWS大单</text>

  <!-- Row 2: 3 items -->
  <rect x="30" y="192" width="165" height="68" rx="8" fill="#FFF7ED" stroke="#FED7AA" stroke-width="1"/>
  <text x="112" y="220" text-anchor="middle" font-size="16" font-weight="700" fill="#D97706">04 国际 · 韩股暴跌</text>
  <text x="112" y="244" text-anchor="middle" font-size="13" fill="#9A3412">盘中-4.5% · BOK鹰派信号</text>

  <rect x="207" y="192" width="165" height="68" rx="8" fill="#EFF6FF" stroke="#BFDBFE" stroke-width="1"/>
  <text x="289" y="220" text-anchor="middle" font-size="16" font-weight="700" fill="#1A56DB">05 宏观 · PCE数据</text>
  <text x="289" y="244" text-anchor="middle" font-size="13" fill="#1E40AF">核心3.2%持平 · 符合预期</text>

  <rect x="384" y="192" width="166" height="68" rx="8" fill="#FFFBEB" stroke="#FDE68A" stroke-width="1"/>
  <text x="467" y="220" text-anchor="middle" font-size="16" font-weight="700" fill="#D4A017">06 商品 · 原油黄金</text>
  <text x="467" y="244" text-anchor="middle" font-size="13" fill="#92400E">WTI-5.5% · 金两月新低</text>

  <line x1="30" y1="278" x2="550" y2="278" stroke="#E2E8F0" stroke-width="1"/>

  <text x="290" y="306" text-anchor="middle" font-size="14" fill="#64748B">▼ 往下翻看今日深度解读 ▼</text>

  <text x="30" y="340" font-size="12" fill="#94A3B8">所有数据来源已标注，详见正文来源块</text>
  <text x="550" y="340" text-anchor="end" font-size="12" font-weight="600" fill="#D4A017">扬说财经 · 晚间速览</text>
</svg>