<svg xmlns="http://www.w3.org/2000/svg" viewBox="0 0 520 340" font-family="'PingFang SC','Microsoft YaHei','Helvetica Neue',sans-serif">
  <defs>
    <linearGradient id="bg" x1="0" y1="0" x2="0" y2="1">
      <stop offset="0%" stop-color="#F0F2F5"/>
      <stop offset="100%" stop-color="#E8ECF1"/>
    </linearGradient>
  </defs>
  <rect width="520" height="340" fill="url(#bg)" rx="8"/>
  <rect x="15" y="15" width="490" height="310" rx="8" fill="#FFFFFF"/>

  <text x="260" y="52" text-anchor="middle" font-size="20" font-weight="700" fill="#1E293B">📋 今日热点速览</text>
  <text x="260" y="76" text-anchor="middle" font-size="13" fill="#64748B">2026年5月28日 · 6件关键信息</text>

  <line x1="30" y1="90" x2="490" y2="90" stroke="#E2E8F0" stroke-width="1"/>

  <!-- Row 1: 3 items -->
  <!-- Item 1: A股 -->
  <rect x="30" y="104" width="150" height="62" rx="8" fill="#FEF2F2" stroke="#FECACA" stroke-width="1"/>
  <text x="105" y="130" text-anchor="middle" font-size="15" font-weight="700" fill="#DC2626">A股探底回升</text>
  <text x="105" y="152" text-anchor="middle" font-size="12" fill="#9A3412">创业板+1.96% · 普涨修复</text>

  <!-- Item 2: 算力硬件 -->
  <rect x="190" y="104" width="150" height="62" rx="8" fill="#F5F3FF" stroke="#DDD6FE" stroke-width="1"/>
  <text x="265" y="130" text-anchor="middle" font-size="15" font-weight="700" fill="#7C3AED">算力硬件爆发</text>
  <text x="265" y="152" text-anchor="middle" font-size="12" fill="#6D28D9">华虹新高·半导体领涨</text>

  <!-- Item 3: Snowflake -->
  <rect x="350" y="104" width="145" height="62" rx="8" fill="#F0FDF4" stroke="#86EFAC" stroke-width="1"/>
  <text x="422" y="130" text-anchor="middle" font-size="15" font-weight="700" fill="#16A34A">Snowflake</text>
  <text x="422" y="152" text-anchor="middle" font-size="12" fill="#166534">盘后暴涨37%·60亿大单</text>

  <!-- Row 2: 3 items -->
  <!-- Item 4: KOSPI -->
  <rect x="30" y="178" width="150" height="62" rx="8" fill="#FFF7ED" stroke="#FED7AA" stroke-width="1"/>
  <text x="105" y="204" text-anchor="middle" font-size="15" font-weight="700" fill="#D97706">韩股盘中暴跌</text>
  <text x="105" y="226" text-anchor="middle" font-size="12" fill="#9A3412">BOK暗示加息·盘中-4.5%</text>

  <!-- Item 5: PCE数据 -->
  <rect x="190" y="178" width="150" height="62" rx="8" fill="#EFF6FF" stroke="#BFDBFE" stroke-width="1"/>
  <text x="265" y="204" text-anchor="middle" font-size="15" font-weight="700" fill="#1A56DB">PCE通胀数据</text>
  <text x="265" y="226" text-anchor="middle" font-size="12" fill="#1E40AF">核心3.2%符合预期</text>

  <!-- Item 6: 黄金原油 -->
  <rect x="350" y="178" width="145" height="62" rx="8" fill="#FFFBEB" stroke="#FDE68A" stroke-width="1"/>
  <text x="422" y="204" text-anchor="middle" font-size="15" font-weight="700" fill="#D4A017">黄金原油承压</text>
  <text x="422" y="226" text-anchor="middle" font-size="12" fill="#92400E">WTI-5.5%·金两月新低</text>

  <line x1="30" y1="256" x2="490" y2="256" stroke="#E2E8F0" stroke-width="1"/>

  <text x="260" y="280" text-anchor="middle" font-size="13" fill="#64748B">▼ 往下翻看今日深度解读 ▼</text>

  <text x="260" y="320" text-anchor="middle" font-size="12" font-weight="600" fill="#D4A017">扬说财经 · 晚间速览</text>
</svg>