<svg xmlns="http://www.w3.org/2000/svg" viewBox="0 0 768 512" width="768" height="512" font-family="Microsoft YaHei, SimHei, sans-serif">
  <rect width="768" height="512" fill="#FAFBFC" />
  <rect x="0" y="0" width="768" height="44" fill="#1A56DB" opacity="0.08" />
  <text x="384" y="30" font-size="18" fill="#1A56DB" text-anchor="middle" font-weight="bold">美国科技股内部分裂：半导体逆势涨  vs  科技巨头遭抛售</text>
  <rect x="40" y="70" width="280" height="200" rx="8" fill="#FFFFFF" stroke="#DC2626" stroke-width="2" />
  <text x="180" y="95" font-size="14" fill="#DC2626" text-anchor="middle" font-weight="bold">科技七巨头遭抛售</text>
  <line x1="80" y1="120" x2="95" y2="135" stroke="#DC2626" stroke-width="2" />
  <line x1="95" y1="120" x2="80" y2="135" stroke="#DC2626" stroke-width="2" />
  <text x="105" y="125" font-size="10" fill="#475569" font-weight="bold">Meta</text>
  <text x="105" y="137" font-size="9" fill="#DC2626" font-weight="bold">-5%</text>
  <line x1="180" y1="120" x2="195" y2="135" stroke="#DC2626" stroke-width="2" />
  <line x1="195" y1="120" x2="180" y2="135" stroke="#DC2626" stroke-width="2" />
  <text x="205" y="125" font-size="10" fill="#475569" font-weight="bold">微软</text>
  <text x="205" y="137" font-size="9" fill="#DC2626" font-weight="bold">-3%</text>
  <line x1="280" y1="120" x2="295" y2="135" stroke="#DC2626" stroke-width="2" />
  <line x1="295" y1="120" x2="280" y2="135" stroke="#DC2626" stroke-width="2" />
  <text x="305" y="125" font-size="10" fill="#475569" font-weight="bold">亚马逊</text>
  <text x="305" y="137" font-size="9" fill="#DC2626" font-weight="bold">-3%</text>
  <line x1="80" y1="160" x2="95" y2="175" stroke="#DC2626" stroke-width="2" />
  <line x1="95" y1="160" x2="80" y2="175" stroke="#DC2626" stroke-width="2" />
  <text x="105" y="165" font-size="10" fill="#475569" font-weight="bold">英伟达</text>
  <text x="105" y="177" font-size="9" fill="#DC2626" font-weight="bold">-1%</text>
  <line x1="180" y1="160" x2="195" y2="175" stroke="#DC2626" stroke-width="2" />
  <line x1="195" y1="160" x2="180" y2="175" stroke="#DC2626" stroke-width="2" />
  <text x="205" y="165" font-size="10" fill="#475569" font-weight="bold">苹果</text>
  <text x="205" y="177" font-size="9" fill="#DC2626" font-weight="bold">-1%</text>
  <line x1="280" y1="160" x2="295" y2="175" stroke="#DC2626" stroke-width="2" />
  <line x1="295" y1="160" x2="280" y2="175" stroke="#DC2626" stroke-width="2" />
  <text x="305" y="165" font-size="10" fill="#475569" font-weight="bold">特斯拉</text>
  <text x="305" y="177" font-size="9" fill="#DC2626" font-weight="bold">-2%</text>
  <line x1="330" y1="165" x2="400" y2="165" stroke="#475569" stroke-width="3" stroke-linecap="round" />
  <polygon points="400,165 394.0,169.0 394.0,161.0" fill="#475569" />
  <text x="365" y="155" font-size="10" fill="#475569" text-anchor="middle" font-weight="bold">vs</text>
  <rect x="410" y="70" width="280" height="200" rx="8" fill="#FFFFFF" stroke="#16A34A" stroke-width="2" />
  <text x="550" y="95" font-size="14" fill="#16A34A" text-anchor="middle" font-weight="bold">费半 +1.44%</text>
  <line x1="450" y1="135" x2="465" y2="120" stroke="#16A34A" stroke-width="2" />
  <line x1="450" y1="120" x2="465" y2="135" stroke="#16A34A" stroke-width="2" />
  <text x="475" y="125" font-size="10" fill="#475569" font-weight="bold">Arm</text>
  <text x="475" y="137" font-size="9" fill="#16A34A" font-weight="bold">+5%</text>
  <line x1="550" y1="135" x2="565" y2="120" stroke="#16A34A" stroke-width="2" />
  <line x1="550" y1="120" x2="565" y2="135" stroke="#16A34A" stroke-width="2" />
  <text x="575" y="125" font-size="10" fill="#475569" font-weight="bold">博通</text>
  <text x="575" y="137" font-size="9" fill="#16A34A" font-weight="bold">+4%</text>
  <line x1="650" y1="135" x2="665" y2="120" stroke="#16A34A" stroke-width="2" />
  <line x1="650" y1="120" x2="665" y2="135" stroke="#16A34A" stroke-width="2" />
  <text x="675" y="125" font-size="10" fill="#475569" font-weight="bold">Wolfspeed</text>
  <text x="675" y="137" font-size="9" fill="#16A34A" font-weight="bold">+8%</text>
  <line x1="450" y1="175" x2="465" y2="160" stroke="#16A34A" stroke-width="2" />
  <line x1="450" y1="160" x2="465" y2="175" stroke="#16A34A" stroke-width="2" />
  <text x="475" y="165" font-size="10" fill="#475569" font-weight="bold">英特尔</text>
  <text x="475" y="177" font-size="9" fill="#16A34A" font-weight="bold">+3.46%</text>
  <line x1="550" y1="175" x2="565" y2="160" stroke="#16A34A" stroke-width="2" />
  <line x1="550" y1="160" x2="565" y2="175" stroke="#16A34A" stroke-width="2" />
  <text x="575" y="165" font-size="10" fill="#475569" font-weight="bold">费城半导体</text>
  <text x="575" y="177" font-size="9" fill="#16A34A" font-weight="bold">逆势涨</text>
  <line x1="650" y1="175" x2="665" y2="160" stroke="#16A34A" stroke-width="2" />
  <line x1="650" y1="160" x2="665" y2="175" stroke="#16A34A" stroke-width="2" />
  <text x="675" y="165" font-size="10" fill="#475569" font-weight="bold">18A-P工艺</text>
  <text x="675" y="177" font-size="9" fill="#16A34A" font-weight="bold">投产</text>
  <rect x="80" y="295" width="608" height="80" rx="6" fill="#1A56DB" opacity="0.08" />
  <text x="384" y="318" font-size="10" fill="#475569" text-anchor="middle">利率敏感度不同：Meta/微软/亚马逊 → 高估值 + 远期现金流 → 利率↑ = 估值压缩</text>
  <text x="384" y="336" font-size="10" fill="#475569" text-anchor="middle">半导体：AI算力需求刚性 + 英特尔18A-P投产 + 芯片法案 → 硬制造逻辑</text>
  <text x="384" y="354" font-size="10" fill="#475569" text-anchor="middle">钱从"讲故事"切向"有产能"——这不是崩盘，是板块大轮动</text>
  <circle cx="230" cy="432.0" r="4.0" fill="none" stroke="#DC2626" stroke-width="2" />
  <line x1="230" y1="436.0" x2="230" y2="448.0" stroke="#DC2626" stroke-width="2" stroke-linecap="round" />
  <line x1="224.0" y1="440" x2="236.0" y2="440" stroke="#DC2626" stroke-width="1.5" stroke-linecap="round" />
  <line x1="230" y1="448.0" x2="225.0" y2="454.0" stroke="#DC2626" stroke-width="1.5" stroke-linecap="round" />
  <line x1="230" y1="448.0" x2="235.0" y2="454.0" stroke="#DC2626" stroke-width="1.5" stroke-linecap="round" />
  <text x="230" y="468" font-size="9" fill="#DC2626" text-anchor="middle">重仓Mag7?</text>
  <circle cx="538" cy="432.0" r="4.0" fill="none" stroke="#16A34A" stroke-width="2" />
  <line x1="538" y1="436.0" x2="538" y2="448.0" stroke="#16A34A" stroke-width="2" stroke-linecap="round" />
  <line x1="532.0" y1="440" x2="544.0" y2="440" stroke="#16A34A" stroke-width="1.5" stroke-linecap="round" />
  <line x1="538" y1="448.0" x2="533.0" y2="454.0" stroke="#16A34A" stroke-width="1.5" stroke-linecap="round" />
  <line x1="538" y1="448.0" x2="543.0" y2="454.0" stroke="#16A34A" stroke-width="1.5" stroke-linecap="round" />
  <text x="538" y="468" font-size="9" fill="#16A34A" text-anchor="middle">切换半导体</text>
  <text x="384" y="500" font-size="11" fill="#94A3B8" text-anchor="middle">同是美国科技——方向却完全相反。这是"利率敏感"与"需求刚性"的对决</text>
</svg>