<svg xmlns="http://www.w3.org/2000/svg" viewBox="0 0 768 512" width="768" height="512" font-family="Microsoft YaHei, SimHei, sans-serif">
  <rect width="768" height="512" fill="#FAFBFC" />
  <rect x="0" y="0" width="768" height="44" fill="#1A56DB" opacity="0.08" />
  <text x="384" y="30" font-size="18" fill="#1A56DB" text-anchor="middle" font-weight="bold">一夜两件大事：FOMC鹰派转向 + 美伊签署备忘录</text>
  <rect x="60" y="80" width="32" height="40" rx="3" fill="none" stroke="#DC2626" stroke-width="2.5" />
  <polygon points="56,80 76,60 96,80" fill="none" stroke="#DC2626" stroke-width="2.5" />
  <rect x="88" y="92" width="10" height="16" rx="1" fill="none" stroke="#DC2626" stroke-width="1.5" />
  <text x="92" y="104" font-size="8" fill="#DC2626" text-anchor="middle" font-weight="bold">F</text>
  <text x="76" y="140" font-size="13" fill="#DC2626" text-anchor="middle" font-weight="bold">FOMC鹰派</text>
  <circle cx="50" cy="165" r="3" fill="#DC2626" />
  <text x="60" y="169" font-size="10" fill="#475569">利率3.50-3.75%不变</text>
  <circle cx="50" cy="187" r="3" fill="#DC2626" />
  <text x="60" y="191" font-size="10" fill="#475569">9/18官员支持加息</text>
  <circle cx="50" cy="209" r="3" fill="#DC2626" />
  <text x="60" y="213" font-size="10" fill="#475569">删除全部前瞻指引</text>
  <circle cx="50" cy="231" r="3" fill="#DC2626" />
  <text x="60" y="235" font-size="10" fill="#475569">核心PCE→3.3%</text>
  <circle cx="690" cy="100" r="22" fill="none" stroke="#16A34A" stroke-width="2.5" />
  <path d="M680,95 Q690,85 700,95" fill="none" stroke="#16A34A" stroke-width="1.5" />
  <path d="M680,105 Q690,115 700,105" fill="none" stroke="#16A34A" stroke-width="1.5" />
  <text x="690" y="140" font-size="13" fill="#16A34A" text-anchor="middle" font-weight="bold">美伊签署备忘录</text>
  <circle cx="560" cy="165" r="3" fill="#16A34A" />
  <text x="570" y="169" font-size="10" fill="#475569">永久停火</text>
  <circle cx="560" cy="187" r="3" fill="#16A34A" />
  <text x="570" y="191" font-size="10" fill="#475569">霍尔木兹重开</text>
  <circle cx="560" cy="209" r="3" fill="#16A34A" />
  <text x="570" y="213" font-size="10" fill="#475569">解除全部制裁</text>
  <circle cx="560" cy="231" r="3" fill="#16A34A" />
  <text x="570" y="235" font-size="10" fill="#475569">$3000亿重建</text>
  <line x1="220" y1="260" x2="548" y2="260" stroke="#475569" stroke-width="3" />
  <polygon points="384,260 378,280 390,280" fill="#475569" />
  <line x1="384" y1="280" x2="384" y2="310" stroke="#475569" stroke-width="2" />
  <path d="M240,260 Q240,300 220,310 L260,310 Q280,300 280,260" fill="none" stroke="#DC2626" stroke-width="2" />
  <line x1="240" y1="260" x2="220" y2="310" stroke="#DC2626" stroke-width="1.5" />
  <line x1="280" y1="260" x2="260" y2="310" stroke="#DC2626" stroke-width="1.5" />
  <text x="250" y="295" font-size="10" fill="#DC2626" text-anchor="middle" font-weight="bold">美股↓</text>
  <path d="M488,260 Q488,300 468,310 L528,310 Q548,300 548,260" fill="none" stroke="#16A34A" stroke-width="2" />
  <line x1="488" y1="260" x2="468" y2="310" stroke="#16A34A" stroke-width="1.5" />
  <line x1="548" y1="260" x2="528" y2="310" stroke="#16A34A" stroke-width="1.5" />
  <text x="518" y="295" font-size="10" fill="#16A34A" text-anchor="middle" font-weight="bold">油↓亚↑</text>
  <text x="384" y="340" font-size="12" fill="#475569" text-anchor="middle" font-weight="bold">同一天，两股力量在天平两端——市场在找均衡</text>
  <circle cx="280" cy="390.4" r="4.8" fill="none" stroke="#475569" stroke-width="2" />
  <line x1="280" y1="395.2" x2="280" y2="409.6" stroke="#475569" stroke-width="2" stroke-linecap="round" />
  <line x1="272.8" y1="400" x2="287.2" y2="400" stroke="#475569" stroke-width="1.5" stroke-linecap="round" />
  <line x1="280" y1="409.6" x2="274.0" y2="416.8" stroke="#475569" stroke-width="1.5" stroke-linecap="round" />
  <line x1="280" y1="409.6" x2="286.0" y2="416.8" stroke="#475569" stroke-width="1.5" stroke-linecap="round" />
  <text x="280" y="430" font-size="9" fill="#64748B" text-anchor="middle">空头</text>
  <circle cx="384" cy="390.4" r="4.8" fill="none" stroke="#475569" stroke-width="2" />
  <line x1="384" y1="395.2" x2="384" y2="409.6" stroke="#475569" stroke-width="2" stroke-linecap="round" />
  <line x1="376.8" y1="400" x2="391.2" y2="400" stroke="#475569" stroke-width="1.5" stroke-linecap="round" />
  <line x1="384" y1="409.6" x2="378.0" y2="416.8" stroke="#475569" stroke-width="1.5" stroke-linecap="round" />
  <line x1="384" y1="409.6" x2="390.0" y2="416.8" stroke="#475569" stroke-width="1.5" stroke-linecap="round" />
  <text x="384" y="430" font-size="9" fill="#64748B" text-anchor="middle">观望</text>
  <circle cx="488" cy="390.4" r="4.8" fill="none" stroke="#475569" stroke-width="2" />
  <line x1="488" y1="395.2" x2="488" y2="409.6" stroke="#475569" stroke-width="2" stroke-linecap="round" />
  <line x1="480.8" y1="400" x2="495.2" y2="400" stroke="#475569" stroke-width="1.5" stroke-linecap="round" />
  <line x1="488" y1="409.6" x2="482.0" y2="416.8" stroke="#475569" stroke-width="1.5" stroke-linecap="round" />
  <line x1="488" y1="409.6" x2="494.0" y2="416.8" stroke="#475569" stroke-width="1.5" stroke-linecap="round" />
  <text x="488" y="430" font-size="9" fill="#64748B" text-anchor="middle">多头</text>
  <text x="384" y="500" font-size="11" fill="#94A3B8" text-anchor="middle">FOMC鹰派 vs 美伊和平：市场在两个极端之间寻找定价</text>
</svg>