<svg xmlns="http://www.w3.org/2000/svg" viewBox="0 0 768 512" width="768" height="512" font-family="Microsoft YaHei, SimHei, sans-serif">
  <rect width="768" height="512" fill="#FAFBFC" />
  <rect x="0" y="0" width="768" height="44" fill="#1A56DB" opacity="0.08" />
  <text x="384" y="30" font-size="18" fill="#1A56DB" text-anchor="middle" font-weight="bold">黄金失守4300 vs 美元重回100：利率预期的跷跷板</text>
  <polygon points="384,320 370,340 398,340" fill="#475569" />
  <line x1="100" y1="220" x2="668" y2="370" stroke="#475569" stroke-width="5" stroke-linecap="round" />
  <rect x="60" y="130" width="180" height="90" rx="6" fill="#FFF7ED" stroke="#EA580C" stroke-width="2.5" />
  <text x="150" y="155" font-size="14" fill="#EA580C" text-anchor="middle" font-weight="bold">💰 黄金暴跌</text>
  <text x="150" y="175" font-size="9" fill="#475569" text-anchor="middle" font-weight="bold">COMEX: $4,276</text>
  <text x="150" y="189" font-size="9" fill="#DC2626" text-anchor="middle" font-weight="bold">-1.79%</text>
  <text x="150" y="203" font-size="9" fill="#475569" text-anchor="middle" font-weight="bold">盘中$4,381→$4,218</text>
  <text x="150" y="217" font-size="9" fill="#475569" text-anchor="middle" font-weight="bold">波动超$160</text>
  <line x1="150" y1="240" x2="150" y2="280" stroke="#DC2626" stroke-width="3" />
  <polygon points="150,285 143,275 157,275" fill="#DC2626" />
  <rect x="528" y="330" width="180" height="90" rx="6" fill="#EFF6FF" stroke="#1A56DB" stroke-width="2.5" />
  <text x="618" y="355" font-size="14" fill="#1A56DB" text-anchor="middle" font-weight="bold">💵 美元飙升</text>
  <text x="618" y="375" font-size="9" fill="#475569" text-anchor="middle" font-weight="bold">DXY 突破100</text>
  <text x="618" y="389" font-size="9" fill="#DC2626" text-anchor="middle" font-weight="bold">+0.86%</text>
  <text x="618" y="403" font-size="9" fill="#DC2626" text-anchor="middle" font-weight="bold">2Y收益率+16bp→4.22%</text>
  <text x="618" y="417" font-size="9" fill="#475569" text-anchor="middle" font-weight="bold">10Y→4.49%</text>
  <line x1="618" y1="310" x2="618" y2="270" stroke="#16A34A" stroke-width="3" />
  <polygon points="618,265 611,275 625,275" fill="#16A34A" />
  <text x="170" y="205" font-size="11" fill="#EA580C" text-anchor="middle" font-weight="bold">避险资产承压</text>
  <text x="598" y="360" font-size="11" fill="#1A56DB" text-anchor="middle" font-weight="bold">美元资产受追捧</text>
  <rect x="294" y="390" width="180" height="40" rx="6" fill="#DC2626" opacity="0.1" />
  <text x="384" y="415" font-size="11" fill="#DC2626" text-anchor="middle" font-weight="bold">实际利率预期↑ = 金价↓</text>
  <circle cx="200" cy="457.8" r="3.6" fill="none" stroke="#EA580C" stroke-width="2" />
  <line x1="200" y1="461.4" x2="200" y2="472.2" stroke="#EA580C" stroke-width="2" stroke-linecap="round" />
  <line x1="194.6" y1="465" x2="205.4" y2="465" stroke="#EA580C" stroke-width="1.5" stroke-linecap="round" />
  <line x1="200" y1="472.2" x2="195.5" y2="477.6" stroke="#EA580C" stroke-width="1.5" stroke-linecap="round" />
  <line x1="200" y1="472.2" x2="204.5" y2="477.6" stroke="#EA580C" stroke-width="1.5" stroke-linecap="round" />
  <text x="200" y="490" font-size="8" fill="#EA580C" text-anchor="middle">黄金多头</text>
  <circle cx="568" cy="457.8" r="3.6" fill="none" stroke="#1A56DB" stroke-width="2" />
  <line x1="568" y1="461.4" x2="568" y2="472.2" stroke="#1A56DB" stroke-width="2" stroke-linecap="round" />
  <line x1="562.6" y1="465" x2="573.4" y2="465" stroke="#1A56DB" stroke-width="1.5" stroke-linecap="round" />
  <line x1="568" y1="472.2" x2="563.5" y2="477.6" stroke="#1A56DB" stroke-width="1.5" stroke-linecap="round" />
  <line x1="568" y1="472.2" x2="572.5" y2="477.6" stroke="#1A56DB" stroke-width="1.5" stroke-linecap="round" />
  <text x="568" y="490" font-size="8" fill="#1A56DB" text-anchor="middle">美元多头</text>
  <text x="384" y="500" font-size="11" fill="#94A3B8" text-anchor="middle">FOMC鹰派信号 → 实际利率↑ → 黄金失血。但亚洲盘已在$4,280出现抄底盘</text>
</svg>