<svg xmlns="http://www.w3.org/2000/svg" viewBox="0 0 768 512" width="768" height="512" font-family="Microsoft YaHei, SimHei, sans-serif">
  <rect width="768" height="512" fill="#FAFBFC" />
  <rect x="0" y="0" width="768" height="44" fill="#1A56DB" opacity="0.08" />
  <text x="384" y="30" font-size="18" fill="#1A56DB" text-anchor="middle" font-weight="bold">东升西降：日韩创新高，亚洲独立于Fed紧缩周期</text>
  <rect x="30" y="70" width="210" height="150" rx="6" fill="#FEF2F2" stroke="#DC2626" stroke-width="2" />
  <text x="135" y="95" font-size="13" fill="#DC2626" text-anchor="middle" font-weight="bold">🇺🇸 美股</text>
  <line x1="70" y1="115" x2="73" y2="123" stroke="#DC2626" stroke-width="1.5" opacity="0.4" />
  <line x1="70" y1="135" x2="73" y2="143" stroke="#DC2626" stroke-width="1.5" opacity="0.4" />
  <line x1="70" y1="155" x2="73" y2="163" stroke="#DC2626" stroke-width="1.5" opacity="0.4" />
  <line x1="70" y1="175" x2="73" y2="183" stroke="#DC2626" stroke-width="1.5" opacity="0.4" />
  <line x1="110" y1="115" x2="113" y2="123" stroke="#DC2626" stroke-width="1.5" opacity="0.4" />
  <line x1="110" y1="135" x2="113" y2="143" stroke="#DC2626" stroke-width="1.5" opacity="0.4" />
  <line x1="110" y1="155" x2="113" y2="163" stroke="#DC2626" stroke-width="1.5" opacity="0.4" />
  <line x1="110" y1="175" x2="113" y2="183" stroke="#DC2626" stroke-width="1.5" opacity="0.4" />
  <line x1="150" y1="115" x2="153" y2="123" stroke="#DC2626" stroke-width="1.5" opacity="0.4" />
  <line x1="150" y1="135" x2="153" y2="143" stroke="#DC2626" stroke-width="1.5" opacity="0.4" />
  <line x1="150" y1="155" x2="153" y2="163" stroke="#DC2626" stroke-width="1.5" opacity="0.4" />
  <line x1="150" y1="175" x2="153" y2="183" stroke="#DC2626" stroke-width="1.5" opacity="0.4" />
  <line x1="190" y1="115" x2="193" y2="123" stroke="#DC2626" stroke-width="1.5" opacity="0.4" />
  <line x1="190" y1="135" x2="193" y2="143" stroke="#DC2626" stroke-width="1.5" opacity="0.4" />
  <line x1="190" y1="155" x2="193" y2="163" stroke="#DC2626" stroke-width="1.5" opacity="0.4" />
  <line x1="190" y1="175" x2="193" y2="183" stroke="#DC2626" stroke-width="1.5" opacity="0.4" />
  <text x="135" y="205" font-size="9" fill="#DC2626" text-anchor="middle" font-weight="bold">道指 -0.98%</text>
  <text x="135" y="220" font-size="9" fill="#DC2626" text-anchor="middle" font-weight="bold">纳指 -1.34%</text>
  <text x="135" y="235" font-size="9" fill="#DC2626" text-anchor="middle" font-weight="bold">Meta -5%领跌</text>
  <text x="135" y="250" font-size="9" fill="#DC2626" text-anchor="middle" font-weight="bold">VIX +12.37%</text>
  <line x1="250" y1="145" x2="480" y2="145" stroke="#16A34A" stroke-width="3" stroke-linecap="round" />
  <polygon points="480,145 474.0,149.0 474.0,141.0" fill="#16A34A" />
  <text x="365" y="135" font-size="11" fill="#16A34A" text-anchor="middle" font-weight="bold">资金东流 →</text>
  <rect x="490" y="70" width="248" height="150" rx="6" fill="#F0FDF4" stroke="#16A34A" stroke-width="2" />
  <text x="614" y="95" font-size="13" fill="#16A34A" text-anchor="middle" font-weight="bold">🇯🇵🇰🇷 日韩创新高</text>
  <circle cx="614" cy="125" r="18" fill="#16A34A" opacity="0.2" />
  <circle cx="614" cy="125" r="10" fill="#16A34A" opacity="0.5" />
  <text x="614" y="205" font-size="9" fill="#16A34A" text-anchor="middle" font-weight="bold">日经225: 71,306</text>
  <text x="614" y="220" font-size="9" fill="#16A34A" text-anchor="middle" font-weight="bold">首次突破71000!</text>
  <text x="614" y="235" font-size="9" fill="#16A34A" text-anchor="middle" font-weight="bold">+2.0% 领涨亚洲</text>
  <text x="614" y="250" font-size="9" fill="#16A34A" text-anchor="middle" font-weight="bold">KOSPI: 8,953</text>
  <rect x="30" y="255" width="708" height="90" rx="6" fill="#1A56DB" opacity="0.06" />
  <text x="384" y="278" font-size="12" fill="#475569" text-anchor="middle" font-weight="bold">为什么日韩不跟美股跌？</text>
  <text x="384" y="296" font-size="10.5" fill="#475569" text-anchor="middle" font-weight="normal">① 美伊协议 → 油价回落 → 亚洲制造业成本下降 → 日本出口企业利润预期上调</text>
  <text x="384" y="314" font-size="10.5" fill="#475569" text-anchor="middle" font-weight="normal">② 日元弱势（美元走强）+ 日股估值相对美股仍低 → 国际资金再配置</text>
  <text x="384" y="332" font-size="10.5" fill="#475569" text-anchor="middle" font-weight="normal">③ A股陆家嘴论坛政策红利 + DeepSeek资本信号 → 科技独立叙事确立</text>
  <circle cx="135" cy="412.0" r="4.0" fill="none" stroke="#DC2626" stroke-width="2" />
  <line x1="135" y1="416.0" x2="135" y2="428.0" stroke="#DC2626" stroke-width="2" stroke-linecap="round" />
  <line x1="129.0" y1="420" x2="141.0" y2="420" stroke="#DC2626" stroke-width="1.5" stroke-linecap="round" />
  <line x1="135" y1="428.0" x2="130.0" y2="434.0" stroke="#DC2626" stroke-width="1.5" stroke-linecap="round" />
  <line x1="135" y1="428.0" x2="140.0" y2="434.0" stroke="#DC2626" stroke-width="1.5" stroke-linecap="round" />
  <text x="135" y="448" font-size="9" fill="#DC2626" text-anchor="middle">美股投资者</text>
  <circle cx="614" cy="412.0" r="4.0" fill="none" stroke="#16A34A" stroke-width="2" />
  <line x1="614" y1="416.0" x2="614" y2="428.0" stroke="#16A34A" stroke-width="2" stroke-linecap="round" />
  <line x1="608.0" y1="420" x2="620.0" y2="420" stroke="#16A34A" stroke-width="1.5" stroke-linecap="round" />
  <line x1="614" y1="428.0" x2="609.0" y2="434.0" stroke="#16A34A" stroke-width="1.5" stroke-linecap="round" />
  <line x1="614" y1="428.0" x2="619.0" y2="434.0" stroke="#16A34A" stroke-width="1.5" stroke-linecap="round" />
  <text x="614" y="448" font-size="9" fill="#16A34A" text-anchor="middle">亚洲投资者</text>
  <text x="384" y="500" font-size="11" fill="#94A3B8" text-anchor="middle">历史上，Fed鹰派=新兴市场受伤。这一次，日韩说不。</text>
</svg>