<svg xmlns="http://www.w3.org/2000/svg" viewBox="0 0 600 340" font-family="'PingFang SC','Microsoft YaHei',sans-serif">
  <rect width="600" height="340" fill="#FAFAFA" rx="8"/>
  <text x="300" y="32" text-anchor="middle" fill="#1E293B" font-size="18" font-weight="700">美股三大指数 · 5月收官创纪录</text>
  <text x="300" y="52" text-anchor="middle" fill="#94A3B8" font-size="12">2026年5月29日收盘 · 标普9连涨</text>

  <!-- Index boxes -->
  <rect x="30" y="72" width="170" height="80" rx="8" fill="#F0FDF4" stroke="#BBF7D0" stroke-width="1"/>
  <text x="115" y="94" text-anchor="middle" fill="#16A34A" font-size="12" font-weight="600">道琼斯</text>
  <text x="115" y="118" text-anchor="middle" fill="#1E293B" font-size="16" font-weight="700">51,032</text>
  <text x="115" y="140" text-anchor="middle" fill="#16A34A" font-size="13">+0.72%</text>

  <rect x="215" y="72" width="170" height="80" rx="8" fill="#F0FDF4" stroke="#BBF7D0" stroke-width="1"/>
  <text x="300" y="94" text-anchor="middle" fill="#16A34A" font-size="12" font-weight="600">标普500</text>
  <text x="300" y="118" text-anchor="middle" fill="#1E293B" font-size="16" font-weight="700">7,580</text>
  <text x="300" y="140" text-anchor="middle" fill="#16A34A" font-size="13">+0.22% · 9连涨</text>

  <rect x="400" y="72" width="170" height="80" rx="8" fill="#F0FDF4" stroke="#BBF7D0" stroke-width="1"/>
  <text x="485" y="94" text-anchor="middle" fill="#16A34A" font-size="12" font-weight="600">纳斯达克</text>
  <text x="485" y="118" text-anchor="middle" fill="#1E293B" font-size="16" font-weight="700">26,972</text>
  <text x="485" y="140" text-anchor="middle" fill="#16A34A" font-size="13">+0.20%</text>

  <line x1="30" y1="165" x2="570" y2="165" stroke="#E2E8F0"/>

  <!-- 5月涨幅 -->
  <text x="300" y="190" text-anchor="middle" fill="#1E293B" font-size="14" font-weight="600">5月累计涨幅</text>
  <rect x="60" y="205" width="480" height="30" rx="5" fill="#F0FDF4"/>
  <text x="100" y="225" fill="#16A34A" font-size="12" font-weight="600">纳指</text>
  <text x="560" y="225" text-anchor="end" fill="#16A34A" font-size="14" font-weight="700">+8.36%</text>
  <rect x="60" y="240" width="480" height="30" rx="5" fill="#F0FDF4"/>
  <text x="100" y="260" fill="#16A34A" font-size="12" font-weight="600">标普500</text>
  <text x="560" y="260" text-anchor="end" fill="#16A34A" font-size="14" font-weight="700">+5.15%</text>
  <rect x="60" y="275" width="480" height="30" rx="5" fill="#F0FDF4"/>
  <text x="100" y="295" fill="#16A34A" font-size="12" font-weight="600">道琼斯</text>
  <text x="560" y="295" text-anchor="end" fill="#16A34A" font-size="14" font-weight="700">+2.78%</text>

  <text x="300" y="330" text-anchor="middle" fill="#94A3B8" font-size="11">数据来源：CNBC · 纳指创2009年以来最佳五月表现</text>
</svg>
