<svg xmlns="http://www.w3.org/2000/svg" viewBox="0 0 600 340" font-family="'PingFang SC','Microsoft YaHei',sans-serif">
  <rect width="600" height="340" fill="#FAFAFA" rx="8"/>
  <text x="300" y="32" text-anchor="middle" fill="#1E293B" font-size="18" font-weight="700">黄金$4,527盘整 · 原油弹回$90</text>
  <text x="300" y="52" text-anchor="middle" fill="#94A3B8" font-size="12">2026年6月1日亚洲交易时段</text>

  <!-- Gold -->
  <rect x="30" y="72" width="260" height="100" rx="8" fill="#FFFBEB" stroke="#FDE68A" stroke-width="1"/>
  <text x="160" y="95" text-anchor="middle" fill="#D4A017" font-size="14" font-weight="700">现货黄金</text>
  <text x="160" y="125" text-anchor="middle" fill="#1E293B" font-size="22" font-weight="700">$4,527</text>
  <text x="160" y="148" text-anchor="middle" fill="#EF4444" font-size="12">日内 -0.2%</text>
  <text x="160" y="165" text-anchor="middle" fill="#94A3B8" font-size="10">上周五金价一度触及$4,595</text>

  <!-- Oil -->
  <rect x="310" y="72" width="260" height="100" rx="8" fill="#F0FDF4" stroke="#BBF7D0" stroke-width="1"/>
  <text x="440" y="95" text-anchor="middle" fill="#16A34A" font-size="14" font-weight="700">WTI原油</text>
  <text x="440" y="125" text-anchor="middle" fill="#1E293B" font-size="22" font-weight="700">$89.73</text>
  <text x="440" y="148" text-anchor="middle" fill="#16A34A" font-size="12">日内 +2.56%</text>
  <text x="440" y="165" text-anchor="middle" fill="#94A3B8" font-size="10">上周因停火预期暴跌16.74%</text>

  <line x1="30" y1="185" x2="570" y2="185" stroke="#E2E8F0"/>

  <!-- Weekly outlook -->
  <text x="300" y="210" text-anchor="middle" fill="#1E293B" font-size="14" font-weight="600">本周关键事件</text>

  <rect x="60" y="222" width="480" height="28" rx="6" fill="#F8FAFC" stroke="#E2E8F0" stroke-width="0.5"/>
  <text x="75" y="242" fill="#1E293B" font-size="12">周三</text>
  <text x="540" y="242" text-anchor="end" fill="#D4A017" font-size="12" font-weight="600">ADP就业数据（预期11万）</text>

  <rect x="60" y="254" width="480" height="28" rx="6" fill="#FFFBEB" stroke="#FDE68A" stroke-width="0.5"/>
  <text x="75" y="274" fill="#1E293B" font-size="12">周五</text>
  <text x="540" y="274" text-anchor="end" fill="#D4A017" font-size="12" font-weight="600">★★★ 非农就业（预期11.5-13万）</text>

  <line x1="60" y1="293" x2="540" y2="293" stroke="#E2E8F0"/>

  <!-- Key logic -->
  <text x="60" y="315" fill="#D4A017" font-size="12" font-weight="600">黄金短期逻辑：</text>
  <text x="60" y="335" fill="#64748B" font-size="11">美伊谈判节奏 → 避险溢价进退 → 非农数据验证加息预期</text>
</svg>
