<?xml version="1.0" encoding="utf-8" standalone="no"?>
<!DOCTYPE svg PUBLIC "-//W3C//DTD SVG 1.1//EN"
  "http://www.w3.org/Graphics/SVG/1.1/DTD/svg11.dtd">
<svg xmlns:xlink="http://www.w3.org/1999/xlink" width="446.422969pt" height="261.673875pt" viewBox="0 0 446.422969 261.673875" xmlns="http://www.w3.org/2000/svg" version="1.1">
 <metadata>
  <rdf:RDF xmlns:dc="http://purl.org/dc/elements/1.1/" xmlns:cc="http://creativecommons.org/ns#" xmlns:rdf="http://www.w3.org/1999/02/22-rdf-syntax-ns#">
   <cc:Work>
    <dc:type rdf:resource="http://purl.org/dc/dcmitype/StillImage"/>
    <dc:date>2026-06-14T11:00:42.670677</dc:date>
    <dc:format>image/svg+xml</dc:format>
    <dc:creator>
     <cc:Agent>
      <dc:title>Matplotlib v3.10.9, https://matplotlib.org/</dc:title>
     </cc:Agent>
    </dc:creator>
   </cc:Work>
  </rdf:RDF>
 </metadata>
 <defs>
  <style type="text/css">*{stroke-linejoin: round; stroke-linecap: butt}</style>
 </defs>
 <g id="figure_1">
  <g id="patch_1">
   <path d="M -0 261.673875 
L 446.422969 261.673875 
L 446.422969 -0 
L -0 -0 
z
" style="fill: #ffffff"/>
  </g>
  <g id="axes_1">
   <g id="patch_2">
    <path d="M 52.582969 227.071562 
L 435.622969 227.071562 
L 435.622969 50.671562 
L 52.582969 50.671562 
z
" style="fill: #ffffff"/>
   </g>
   <g id="patch_3">
    <path d="M 69.993878 227.071562 
L 119.739332 227.071562 
L 119.739332 78.895562 
L 69.993878 78.895562 
z
" clip-path="url(#p384d93d07b)" style="fill: #3b82f6; stroke: #ffffff; stroke-width: 0.5; stroke-linejoin: miter"/>
   </g>
   <g id="patch_4">
    <path d="M 169.484787 227.071562 
L 219.230241 227.071562 
L 219.230241 172.034762 
L 169.484787 172.034762 
z
" clip-path="url(#p384d93d07b)" style="fill: #bfdbfe; stroke: #ffffff; stroke-width: 0.5; stroke-linejoin: miter"/>
   </g>
   <g id="patch_5">
    <path d="M 268.975696 227.071562 
L 318.721151 227.071562 
L 318.721151 160.039562 
L 268.975696 160.039562 
z
" clip-path="url(#p384d93d07b)" style="fill: #94a3b8; stroke: #ffffff; stroke-width: 0.5; stroke-linejoin: miter"/>
   </g>
   <g id="patch_6">
    <path d="M 368.466605 227.071562 
L 418.21206 227.071562 
L 418.21206 135.343562 
L 368.466605 135.343562 
z
" clip-path="url(#p384d93d07b)" style="fill: #94a3b8; stroke: #ffffff; stroke-width: 0.5; stroke-linejoin: miter"/>
   </g>
   <g id="matplotlib.axis_1">
    <g id="xtick_1">
     <g id="line2d_1"/>
     <g id="text_1">
      <!-- SpaceX -->
      <g style="fill: #64748b" transform="translate(78.518949 237.765938) scale(0.09 -0.09)">
       <defs>
        <path id="MicrosoftYaHei-Bold-53" d="M 338 1219 
Q 922 734 1666 734 
Q 2088 734 2300 879 
Q 2513 1025 2513 1253 
Q 2513 1450 2344 1625 
Q 2175 1800 1453 2100 
Q 319 2581 319 3500 
Q 319 4175 833 4548 
Q 1347 4922 2194 4922 
Q 2903 4922 3384 4738 
L 3384 3769 
Q 2897 4100 2244 4100 
Q 1863 4100 1634 3961 
Q 1406 3822 1406 3588 
Q 1406 3400 1562 3242 
Q 1719 3084 2334 2816 
Q 3056 2506 3326 2162 
Q 3597 1819 3597 1344 
Q 3597 647 3103 281 
Q 2609 -84 1700 -84 
Q 869 -84 338 184 
L 338 1219 
z
" transform="scale(0.015625)"/>
        <path id="MicrosoftYaHei-Bold-70" d="M 1469 416 
L 1469 -1591 
L 459 -1591 
L 459 3456 
L 1469 3456 
L 1469 2928 
L 1481 2928 
Q 1878 3541 2603 3541 
Q 3263 3541 3634 3080 
Q 4006 2619 4006 1825 
Q 4006 959 3575 437 
Q 3144 -84 2444 -84 
Q 1809 -84 1481 416 
L 1469 416 
z
M 1453 1528 
Q 1453 1159 1653 925 
Q 1853 691 2172 691 
Q 2550 691 2761 984 
Q 2972 1278 2972 1816 
Q 2972 2766 2231 2766 
Q 1888 2766 1670 2503 
Q 1453 2241 1453 1828 
L 1453 1528 
z
" transform="scale(0.015625)"/>
        <path id="MicrosoftYaHei-Bold-61" d="M 544 3247 
Q 778 3378 1170 3459 
Q 1563 3541 1841 3541 
Q 3291 3541 3291 2088 
L 3291 0 
L 2331 0 
L 2331 503 
L 2319 503 
Q 1966 -84 1284 -84 
Q 794 -84 498 195 
Q 203 475 203 956 
Q 203 1950 1388 2113 
L 2338 2241 
Q 2338 2844 1709 2844 
Q 1091 2844 544 2469 
L 544 3247 
z
M 1684 1566 
Q 1138 1494 1138 1072 
Q 1138 878 1270 759 
Q 1403 641 1628 641 
Q 1938 641 2138 859 
Q 2338 1078 2338 1403 
L 2338 1650 
L 1684 1566 
z
" transform="scale(0.015625)"/>
        <path id="MicrosoftYaHei-Bold-63" d="M 3050 128 
Q 2688 -84 2019 -84 
Q 1228 -84 740 397 
Q 253 878 253 1644 
Q 253 2525 778 3033 
Q 1303 3541 2178 3541 
Q 2769 3541 3053 3378 
L 3053 2513 
Q 2706 2766 2297 2766 
Q 1834 2766 1554 2484 
Q 1275 2203 1275 1713 
Q 1275 1238 1540 964 
Q 1806 691 2263 691 
Q 2666 691 3050 947 
L 3050 128 
z
" transform="scale(0.015625)"/>
        <path id="MicrosoftYaHei-Bold-65" d="M 3528 1444 
L 1253 1444 
Q 1306 641 2222 641 
Q 2794 641 3231 922 
L 3231 181 
Q 2759 -84 1994 -84 
Q 1169 -84 711 381 
Q 253 847 253 1678 
Q 253 2506 740 3023 
Q 1228 3541 1966 3541 
Q 2700 3541 3114 3095 
Q 3528 2650 3528 1872 
L 3528 1444 
z
M 2588 2075 
Q 2588 2850 1959 2850 
Q 1700 2850 1500 2637 
Q 1300 2425 1250 2075 
L 2588 2075 
z
" transform="scale(0.015625)"/>
        <path id="MicrosoftYaHei-Bold-58" d="M 4447 0 
L 3222 0 
L 2353 1606 
Q 2306 1694 2256 1922 
L 2244 1922 
Q 2219 1809 2131 1597 
L 1259 0 
L 25 0 
L 1578 2422 
L 159 4841 
L 1416 4841 
L 2138 3359 
Q 2225 3178 2288 2959 
L 2300 2959 
Q 2366 3156 2459 3375 
L 3256 4841 
L 4409 4841 
L 2947 2441 
L 4447 0 
z
" transform="scale(0.015625)"/>
       </defs>
       <use xlink:href="#MicrosoftYaHei-Bold-53"/>
       <use xlink:href="#MicrosoftYaHei-Bold-70" transform="translate(60.15625 0)"/>
       <use xlink:href="#MicrosoftYaHei-Bold-61" transform="translate(125.632812 0)"/>
       <use xlink:href="#MicrosoftYaHei-Bold-63" transform="translate(183.396484 0)"/>
       <use xlink:href="#MicrosoftYaHei-Bold-65" transform="translate(235.056641 0)"/>
       <use xlink:href="#MicrosoftYaHei-Bold-58" transform="translate(293.259766 0)"/>
      </g>
      <!-- 市场估值 -->
      <g style="fill: #64748b" transform="translate(76.866605 248.636531) scale(0.09 -0.09)">
       <defs>
        <path id="MicrosoftYaHei-Bold-5e02" d="M 1513 -191 
L 663 -191 
L 663 3003 
L 2750 3003 
L 2750 3728 
L 231 3728 
L 231 4541 
L 2678 4541 
Q 2556 4856 2444 5128 
L 3438 5359 
Q 3588 4969 3728 4541 
L 6200 4541 
L 6200 3728 
L 3650 3728 
L 3650 3003 
L 5888 3003 
L 5888 784 
Q 5888 509 5802 309 
Q 5716 109 5547 -9 
Q 5378 -128 5156 -161 
Q 4934 -194 4125 -203 
Q 4025 209 3894 609 
Q 4238 584 4600 584 
Q 5038 584 5038 1003 
L 5038 2216 
L 3650 2216 
L 3650 -853 
L 2750 -853 
L 2750 2216 
L 1513 2216 
L 1513 -191 
z
" transform="scale(0.015625)"/>
        <path id="MicrosoftYaHei-Bold-573a" d="M 3869 3053 
L 6113 3053 
Q 6113 1753 6038 378 
Q 5994 -659 5094 -722 
Q 4756 -747 4294 -759 
Q 4250 -391 4138 109 
Q 3781 -403 3300 -816 
Q 2944 -541 2544 -278 
Q 3906 759 4225 2303 
L 3719 2303 
Q 3375 1041 2550 284 
Q 2400 416 2256 534 
Q 2250 322 2256 72 
Q 1150 -153 244 -366 
L 81 528 
Q 444 591 813 659 
L 813 2866 
L 144 2866 
L 144 3722 
L 813 3722 
L 813 5303 
L 1644 5303 
L 1644 3722 
L 2238 3722 
L 2238 2866 
L 1644 2866 
L 1644 822 
Q 1794 853 1938 884 
Q 2631 1434 2925 2303 
L 2369 2303 
L 2369 3047 
L 4231 4253 
L 2363 4253 
L 2363 5003 
L 5700 5003 
L 5700 4284 
L 3869 3053 
z
M 4694 116 
Q 5213 116 5244 559 
Q 5300 1203 5325 2303 
L 5000 2303 
Q 4769 1047 4156 134 
Q 4450 116 4694 116 
z
" transform="scale(0.015625)"/>
        <path id="MicrosoftYaHei-Bold-4f30" d="M 1331 5291 
L 2163 5028 
Q 1966 4438 1750 3900 
L 1750 -797 
L 881 -797 
L 881 2066 
Q 631 1622 363 1228 
Q 263 1697 94 2378 
Q 763 3478 1331 5291 
z
M 6250 3334 
L 4613 3334 
L 4613 2353 
L 5931 2353 
L 5931 -766 
L 5056 -766 
L 5056 -428 
L 3288 -428 
L 3288 -778 
L 2413 -778 
L 2413 2353 
L 3688 2353 
L 3688 3334 
L 2131 3334 
L 2131 4141 
L 3688 4141 
L 3688 5266 
L 4613 5266 
L 4613 4141 
L 6250 4141 
L 6250 3334 
z
M 5056 1547 
L 3288 1547 
L 3288 378 
L 5056 378 
L 5056 1547 
z
" transform="scale(0.015625)"/>
        <path id="MicrosoftYaHei-Bold-503c" d="M 1638 3 
L 2100 3 
L 2100 3728 
L 3556 3728 
L 3556 4097 
L 1950 4097 
L 1950 4797 
L 3556 4797 
L 3556 5266 
L 4381 5266 
L 4381 4797 
L 6175 4797 
L 6175 4097 
L 4381 4097 
L 4381 3728 
L 5888 3728 
L 5888 3 
L 6325 3 
L 6325 -697 
L 1638 -697 
L 1638 3 
z
M 1125 5347 
L 1950 5128 
Q 1713 4378 1419 3666 
L 1419 -853 
L 625 -853 
L 625 2022 
Q 456 1716 275 1422 
Q 200 1916 69 2591 
Q 675 3803 1125 5347 
z
M 2888 1853 
L 5100 1853 
L 5100 2178 
L 2888 2178 
L 2888 1853 
z
M 2888 928 
L 5100 928 
L 5100 1253 
L 2888 1253 
L 2888 928 
z
M 5100 3103 
L 2888 3103 
L 2888 2778 
L 5100 2778 
L 5100 3103 
z
M 2888 3 
L 5100 3 
L 5100 328 
L 2888 328 
L 2888 3 
z
" transform="scale(0.015625)"/>
       </defs>
       <use xlink:href="#MicrosoftYaHei-Bold-5e02"/>
       <use xlink:href="#MicrosoftYaHei-Bold-573a" transform="translate(100 0)"/>
       <use xlink:href="#MicrosoftYaHei-Bold-4f30" transform="translate(200 0)"/>
       <use xlink:href="#MicrosoftYaHei-Bold-503c" transform="translate(300 0)"/>
      </g>
     </g>
    </g>
    <g id="xtick_2">
     <g id="line2d_2"/>
     <g id="text_2">
      <!-- SpaceX -->
      <g style="fill: #64748b" transform="translate(178.009858 237.765938) scale(0.09 -0.09)">
       <use xlink:href="#MicrosoftYaHei-Bold-53"/>
       <use xlink:href="#MicrosoftYaHei-Bold-70" transform="translate(60.15625 0)"/>
       <use xlink:href="#MicrosoftYaHei-Bold-61" transform="translate(125.632812 0)"/>
       <use xlink:href="#MicrosoftYaHei-Bold-63" transform="translate(183.396484 0)"/>
       <use xlink:href="#MicrosoftYaHei-Bold-65" transform="translate(235.056641 0)"/>
       <use xlink:href="#MicrosoftYaHei-Bold-58" transform="translate(293.259766 0)"/>
      </g>
      <!-- DCF估值 -->
      <g style="fill: #64748b" transform="translate(176.254155 248.636531) scale(0.09 -0.09)">
       <defs>
        <path id="MicrosoftYaHei-Bold-44" d="M 559 0 
L 559 4841 
L 2231 4841 
Q 4809 4841 4809 2481 
Q 4809 1359 4087 679 
Q 3366 0 2225 0 
L 559 0 
z
M 1591 3997 
L 1591 844 
L 2153 844 
Q 2888 844 3306 1281 
Q 3725 1719 3725 2466 
Q 3725 3188 3287 3592 
Q 2850 3997 2150 3997 
L 1591 3997 
z
" transform="scale(0.015625)"/>
        <path id="MicrosoftYaHei-Bold-43" d="M 4013 175 
Q 3484 -84 2634 -84 
Q 1541 -84 898 570 
Q 256 1225 256 2316 
Q 256 3463 973 4192 
Q 1691 4922 2825 4922 
Q 3534 4922 4013 4738 
L 4013 3741 
Q 3522 4028 2900 4028 
Q 2191 4028 1766 3575 
Q 1341 3122 1341 2391 
Q 1341 1678 1744 1243 
Q 2147 809 2834 809 
Q 3481 809 4013 1122 
L 4013 175 
z
" transform="scale(0.015625)"/>
        <path id="MicrosoftYaHei-Bold-46" d="M 3319 3997 
L 1591 3997 
L 1591 2753 
L 3181 2753 
L 3181 1909 
L 1591 1909 
L 1591 0 
L 559 0 
L 559 4841 
L 3319 4841 
L 3319 3997 
z
" transform="scale(0.015625)"/>
       </defs>
       <use xlink:href="#MicrosoftYaHei-Bold-44"/>
       <use xlink:href="#MicrosoftYaHei-Bold-43" transform="translate(79.150391 0)"/>
       <use xlink:href="#MicrosoftYaHei-Bold-46" transform="translate(146.484375 0)"/>
       <use xlink:href="#MicrosoftYaHei-Bold-4f30" transform="translate(202.294922 0)"/>
       <use xlink:href="#MicrosoftYaHei-Bold-503c" transform="translate(302.294922 0)"/>
      </g>
     </g>
    </g>
    <g id="xtick_3">
     <g id="line2d_3"/>
     <g id="text_3">
      <!-- 波音 -->
      <g style="fill: #64748b" transform="translate(284.848423 237.765938) scale(0.09 -0.09)">
       <defs>
        <path id="MicrosoftYaHei-Bold-6ce2" d="M 3688 5328 
L 4538 5328 
L 4538 4597 
L 6125 4597 
L 6125 3878 
L 5988 3128 
L 5169 3128 
L 5294 3834 
L 4538 3834 
L 4538 2891 
L 5938 2891 
L 5938 2141 
Q 5672 1238 5025 519 
Q 5578 163 6306 -34 
Q 6038 -416 5756 -866 
Q 5006 -588 4369 -81 
Q 3806 -506 3019 -866 
Q 2784 -494 2556 -156 
Q 2422 -522 2200 -872 
Q 1806 -578 1438 -353 
Q 1756 131 1897 784 
Q 2038 1438 2038 2503 
L 2038 4597 
L 3688 4597 
L 3688 5328 
z
M 2850 2891 
L 3688 2891 
L 3688 3834 
L 2850 3834 
L 2850 2891 
z
M 3631 2153 
Q 3950 1497 4350 1072 
Q 4825 1572 5006 2159 
L 2847 2159 
Q 2831 566 2600 -31 
Q 3244 234 3709 544 
Q 3241 1072 2988 1691 
L 3631 2153 
z
M 819 5284 
Q 1244 4984 1850 4491 
L 1256 3859 
Q 806 4291 275 4716 
L 819 5284 
z
M 625 3622 
Q 1100 3284 1631 2834 
L 1056 2159 
Q 619 2572 100 3028 
L 625 3622 
z
M 869 1834 
Q 1288 1666 1688 1541 
L 1081 -828 
Q 631 -672 238 -572 
Q 569 453 869 1834 
z
" transform="scale(0.015625)"/>
        <path id="MicrosoftYaHei-Bold-97f3" d="M 375 4691 
L 2816 4691 
Q 2734 4922 2631 5184 
L 3513 5334 
Q 3638 5028 3763 4691 
L 6056 4691 
L 6056 3997 
L 4553 3997 
L 5038 3766 
L 4750 3409 
L 6294 3409 
L 6294 2716 
L 125 2716 
L 125 3409 
L 1675 3409 
Q 1553 3578 1400 3772 
L 1891 3997 
L 375 3997 
L 375 4691 
z
M 2703 3409 
L 3741 3409 
Q 3972 3703 4163 3997 
L 2250 3997 
Q 2506 3691 2703 3409 
z
M 850 -834 
L 850 2341 
L 5556 2341 
L 5556 -834 
L 4706 -834 
L 4706 -528 
L 1700 -528 
L 1700 -834 
L 850 -834 
z
M 4706 1666 
L 1700 1666 
L 1700 1222 
L 4706 1222 
L 4706 1666 
z
M 1700 134 
L 4706 134 
L 4706 584 
L 1700 584 
L 1700 134 
z
" transform="scale(0.015625)"/>
       </defs>
       <use xlink:href="#MicrosoftYaHei-Bold-6ce2"/>
       <use xlink:href="#MicrosoftYaHei-Bold-97f3" transform="translate(100 0)"/>
      </g>
      <!-- 市场估值 -->
      <g style="fill: #64748b" transform="translate(275.848423 248.636531) scale(0.09 -0.09)">
       <use xlink:href="#MicrosoftYaHei-Bold-5e02"/>
       <use xlink:href="#MicrosoftYaHei-Bold-573a" transform="translate(100 0)"/>
       <use xlink:href="#MicrosoftYaHei-Bold-4f30" transform="translate(200 0)"/>
       <use xlink:href="#MicrosoftYaHei-Bold-503c" transform="translate(300 0)"/>
      </g>
     </g>
    </g>
    <g id="xtick_4">
     <g id="line2d_4"/>
     <g id="text_4">
      <!-- Lockheed Martin -->
      <g style="fill: #64748b" transform="translate(355.054176 237.765938) scale(0.09 -0.09)">
       <defs>
        <path id="MicrosoftYaHei-Bold-4c" d="M 3400 0 
L 559 0 
L 559 4841 
L 1591 4841 
L 1591 844 
L 3400 844 
L 3400 0 
z
" transform="scale(0.015625)"/>
        <path id="MicrosoftYaHei-Bold-6f" d="M 253 1713 
Q 253 2566 764 3053 
Q 1275 3541 2138 3541 
Q 2972 3541 3462 3061 
Q 3953 2581 3953 1772 
Q 3953 922 3450 419 
Q 2947 -84 2088 -84 
Q 1244 -84 748 398 
Q 253 881 253 1713 
z
M 1275 1725 
Q 1275 691 2119 691 
Q 2928 691 2928 1753 
Q 2928 2766 2113 2766 
Q 1716 2766 1495 2494 
Q 1275 2222 1275 1725 
z
" transform="scale(0.015625)"/>
        <path id="MicrosoftYaHei-Bold-6b" d="M 3856 0 
L 2631 0 
L 1481 1709 
L 1469 1709 
L 1469 0 
L 459 0 
L 459 5116 
L 1469 5116 
L 1469 1859 
L 1481 1859 
L 2559 3456 
L 3763 3456 
L 2481 1825 
L 3856 0 
z
" transform="scale(0.015625)"/>
        <path id="MicrosoftYaHei-Bold-68" d="M 3725 0 
L 2719 0 
L 2719 1969 
Q 2719 2766 2138 2766 
Q 1847 2766 1658 2544 
Q 1469 2322 1469 1969 
L 1469 0 
L 459 0 
L 459 5116 
L 1469 5116 
L 1469 2938 
L 1481 2938 
Q 1878 3541 2550 3541 
Q 3725 3541 3725 2122 
L 3725 0 
z
" transform="scale(0.015625)"/>
        <path id="MicrosoftYaHei-Bold-64" d="M 3794 0 
L 2788 0 
L 2788 488 
L 2772 488 
Q 2406 -84 1691 -84 
Q 1031 -84 642 381 
Q 253 847 253 1650 
Q 253 2500 689 3020 
Q 1125 3541 1828 3541 
Q 2503 3541 2772 3053 
L 2788 3053 
L 2788 5116 
L 3794 5116 
L 3794 0 
z
M 2803 1956 
Q 2803 2306 2592 2536 
Q 2381 2766 2066 2766 
Q 1697 2766 1486 2473 
Q 1275 2181 1275 1681 
Q 1275 1206 1478 948 
Q 1681 691 2038 691 
Q 2372 691 2587 962 
Q 2803 1234 2803 1669 
L 2803 1956 
z
" transform="scale(0.015625)"/>
        <path id="MicrosoftYaHei-Bold-20" transform="scale(0.015625)"/>
        <path id="MicrosoftYaHei-Bold-4d" d="M 4991 0 
L 4991 2938 
Q 4991 3344 5031 3959 
L 5006 3959 
Q 4913 3494 4856 3338 
L 3663 0 
L 2841 0 
L 1631 3306 
Q 1588 3425 1478 3959 
L 1450 3959 
Q 1491 3350 1491 2738 
L 1491 0 
L 559 0 
L 559 4841 
L 2059 4841 
L 3103 1916 
Q 3234 1553 3281 1234 
L 3303 1234 
Q 3400 1631 3503 1922 
L 4550 4841 
L 6009 4841 
L 6009 0 
L 4991 0 
z
" transform="scale(0.015625)"/>
        <path id="MicrosoftYaHei-Bold-72" d="M 2663 2541 
Q 2478 2647 2216 2647 
Q 1872 2647 1670 2384 
Q 1469 2122 1469 1663 
L 1469 0 
L 459 0 
L 459 3456 
L 1469 3456 
L 1469 2806 
L 1481 2806 
Q 1731 3516 2391 3516 
Q 2569 3516 2663 3475 
L 2663 2541 
z
" transform="scale(0.015625)"/>
        <path id="MicrosoftYaHei-Bold-74" d="M 2494 41 
Q 2266 -84 1803 -84 
Q 703 -84 703 1072 
L 703 2703 
L 134 2703 
L 134 3456 
L 703 3456 
L 703 4216 
L 1706 4503 
L 1706 3456 
L 2494 3456 
L 2494 2703 
L 1706 2703 
L 1706 1247 
Q 1706 694 2144 694 
Q 2313 694 2494 794 
L 2494 41 
z
" transform="scale(0.015625)"/>
        <path id="MicrosoftYaHei-Bold-69" d="M 369 4572 
Q 369 4803 533 4948 
Q 697 5094 953 5094 
Q 1216 5094 1378 4945 
Q 1541 4797 1541 4572 
Q 1541 4344 1375 4192 
Q 1209 4041 953 4041 
Q 700 4041 534 4194 
Q 369 4347 369 4572 
z
M 444 0 
L 444 3456 
L 1450 3456 
L 1450 0 
L 444 0 
z
" transform="scale(0.015625)"/>
        <path id="MicrosoftYaHei-Bold-6e" d="M 3744 0 
L 2741 0 
L 2741 1928 
Q 2741 2766 2138 2766 
Q 1850 2766 1659 2542 
Q 1469 2319 1469 1972 
L 1469 0 
L 459 0 
L 459 3456 
L 1469 3456 
L 1469 2906 
L 1481 2906 
Q 1859 3541 2594 3541 
Q 3744 3541 3744 2116 
L 3744 0 
z
" transform="scale(0.015625)"/>
       </defs>
       <use xlink:href="#MicrosoftYaHei-Bold-4c"/>
       <use xlink:href="#MicrosoftYaHei-Bold-6f" transform="translate(54.6875 0)"/>
       <use xlink:href="#MicrosoftYaHei-Bold-63" transform="translate(120.410156 0)"/>
       <use xlink:href="#MicrosoftYaHei-Bold-6b" transform="translate(172.070312 0)"/>
       <use xlink:href="#MicrosoftYaHei-Bold-68" transform="translate(231.689453 0)"/>
       <use xlink:href="#MicrosoftYaHei-Bold-65" transform="translate(296.240234 0)"/>
       <use xlink:href="#MicrosoftYaHei-Bold-65" transform="translate(354.443359 0)"/>
       <use xlink:href="#MicrosoftYaHei-Bold-64" transform="translate(412.646484 0)"/>
       <use xlink:href="#MicrosoftYaHei-Bold-20" transform="translate(479.101562 0)"/>
       <use xlink:href="#MicrosoftYaHei-Bold-4d" transform="translate(508.886719 0)"/>
       <use xlink:href="#MicrosoftYaHei-Bold-61" transform="translate(611.71875 0)"/>
       <use xlink:href="#MicrosoftYaHei-Bold-72" transform="translate(669.482422 0)"/>
       <use xlink:href="#MicrosoftYaHei-Bold-74" transform="translate(714.990234 0)"/>
       <use xlink:href="#MicrosoftYaHei-Bold-69" transform="translate(756.396484 0)"/>
       <use xlink:href="#MicrosoftYaHei-Bold-6e" transform="translate(785.986328 0)"/>
      </g>
      <!-- 市场估值 -->
      <g style="fill: #64748b" transform="translate(375.339332 248.636531) scale(0.09 -0.09)">
       <use xlink:href="#MicrosoftYaHei-Bold-5e02"/>
       <use xlink:href="#MicrosoftYaHei-Bold-573a" transform="translate(100 0)"/>
       <use xlink:href="#MicrosoftYaHei-Bold-4f30" transform="translate(200 0)"/>
       <use xlink:href="#MicrosoftYaHei-Bold-503c" transform="translate(300 0)"/>
      </g>
     </g>
    </g>
   </g>
   <g id="matplotlib.axis_2">
    <g id="ytick_1">
     <g id="line2d_5">
      <path d="M 52.582969 227.071562 
L 435.622969 227.071562 
" clip-path="url(#p384d93d07b)" style="fill: none; stroke: #e2e8f0; stroke-opacity: 0.6; stroke-width: 0.5; stroke-linecap: square"/>
     </g>
     <g id="line2d_6"/>
     <g id="text_5">
      <!-- $0.0T -->
      <g style="fill: #64748b" transform="translate(24.231719 230.66875) scale(0.09 -0.09)">
       <defs>
        <path id="MicrosoftYaHei-Bold-24" d="M 2253 -706 
L 1775 -706 
L 1775 6 
Q 1072 13 513 316 
L 513 1209 
Q 700 1053 1098 914 
Q 1497 775 1775 766 
L 1775 2050 
Q 1084 2297 757 2645 
Q 431 2994 431 3513 
Q 431 4034 809 4414 
Q 1188 4794 1775 4841 
L 1775 5466 
L 2253 5466 
L 2253 4853 
Q 2947 4822 3300 4631 
L 3300 3756 
Q 2838 4044 2253 4100 
L 2253 2766 
Q 2969 2494 3292 2166 
Q 3616 1838 3616 1334 
Q 3616 784 3253 439 
Q 2891 94 2253 28 
L 2253 -706 
z
M 1775 4088 
Q 1291 3997 1291 3569 
Q 1291 3209 1775 2959 
L 1775 4088 
z
M 2253 781 
Q 2753 859 2753 1288 
Q 2753 1634 2253 1863 
L 2253 781 
z
" transform="scale(0.015625)"/>
        <path id="MicrosoftYaHei-Bold-30" d="M 244 2341 
Q 244 3597 706 4259 
Q 1169 4922 2044 4922 
Q 3713 4922 3713 2453 
Q 3713 1238 3259 577 
Q 2806 -84 1950 -84 
Q 244 -84 244 2341 
z
M 1266 2366 
Q 1266 691 1981 691 
Q 2684 691 2684 2416 
Q 2684 4147 2000 4147 
Q 1266 4147 1266 2366 
z
" transform="scale(0.015625)"/>
        <path id="MicrosoftYaHei-Bold-2e" d="M 313 453 
Q 313 688 491 838 
Q 669 988 916 988 
Q 1166 988 1337 834 
Q 1509 681 1509 453 
Q 1509 213 1337 64 
Q 1166 -84 903 -84 
Q 659 -84 486 69 
Q 313 222 313 453 
z
" transform="scale(0.015625)"/>
        <path id="MicrosoftYaHei-Bold-54" d="M 3900 3997 
L 2519 3997 
L 2519 0 
L 1484 0 
L 1484 3997 
L 106 3997 
L 106 4841 
L 3900 4841 
L 3900 3997 
z
" transform="scale(0.015625)"/>
       </defs>
       <use xlink:href="#MicrosoftYaHei-Bold-24"/>
       <use xlink:href="#MicrosoftYaHei-Bold-30" transform="translate(61.669922 0)"/>
       <use xlink:href="#MicrosoftYaHei-Bold-2e" transform="translate(123.339844 0)"/>
       <use xlink:href="#MicrosoftYaHei-Bold-30" transform="translate(151.904297 0)"/>
       <use xlink:href="#MicrosoftYaHei-Bold-54" transform="translate(213.574219 0)"/>
      </g>
     </g>
    </g>
    <g id="ytick_2">
     <g id="line2d_7">
      <path d="M 52.582969 191.791562 
L 435.622969 191.791562 
" clip-path="url(#p384d93d07b)" style="fill: none; stroke: #e2e8f0; stroke-opacity: 0.6; stroke-width: 0.5; stroke-linecap: square"/>
     </g>
     <g id="line2d_8"/>
     <g id="text_6">
      <!-- $0.5T -->
      <g style="fill: #64748b" transform="translate(24.231719 195.38875) scale(0.09 -0.09)">
       <defs>
        <path id="MicrosoftYaHei-Bold-35" d="M 541 125 
L 541 997 
Q 1044 691 1613 691 
Q 2041 691 2283 902 
Q 2525 1113 2525 1472 
Q 2525 2225 1494 2225 
Q 1113 2225 616 2169 
L 797 4841 
L 3359 4841 
L 3359 4009 
L 1613 4009 
L 1544 2991 
Q 1803 3013 2022 3013 
Q 2731 3013 3142 2625 
Q 3553 2238 3553 1575 
Q 3553 844 3056 380 
Q 2559 -84 1706 -84 
Q 1016 -84 541 125 
z
" transform="scale(0.015625)"/>
       </defs>
       <use xlink:href="#MicrosoftYaHei-Bold-24"/>
       <use xlink:href="#MicrosoftYaHei-Bold-30" transform="translate(61.669922 0)"/>
       <use xlink:href="#MicrosoftYaHei-Bold-2e" transform="translate(123.339844 0)"/>
       <use xlink:href="#MicrosoftYaHei-Bold-35" transform="translate(151.904297 0)"/>
       <use xlink:href="#MicrosoftYaHei-Bold-54" transform="translate(213.574219 0)"/>
      </g>
     </g>
    </g>
    <g id="ytick_3">
     <g id="line2d_9">
      <path d="M 52.582969 156.511562 
L 435.622969 156.511562 
" clip-path="url(#p384d93d07b)" style="fill: none; stroke: #e2e8f0; stroke-opacity: 0.6; stroke-width: 0.5; stroke-linecap: square"/>
     </g>
     <g id="line2d_10"/>
     <g id="text_7">
      <!-- $1.0T -->
      <g style="fill: #64748b" transform="translate(24.231719 160.10875) scale(0.09 -0.09)">
       <defs>
        <path id="MicrosoftYaHei-Bold-31" d="M 2716 4947 
L 2716 0 
L 1700 0 
L 1700 3809 
Q 1513 3647 1188 3517 
Q 863 3388 591 3356 
L 591 4222 
Q 1447 4472 2072 4947 
L 2716 4947 
z
" transform="scale(0.015625)"/>
       </defs>
       <use xlink:href="#MicrosoftYaHei-Bold-24"/>
       <use xlink:href="#MicrosoftYaHei-Bold-31" transform="translate(61.669922 0)"/>
       <use xlink:href="#MicrosoftYaHei-Bold-2e" transform="translate(123.339844 0)"/>
       <use xlink:href="#MicrosoftYaHei-Bold-30" transform="translate(151.904297 0)"/>
       <use xlink:href="#MicrosoftYaHei-Bold-54" transform="translate(213.574219 0)"/>
      </g>
     </g>
    </g>
    <g id="ytick_4">
     <g id="line2d_11">
      <path d="M 52.582969 121.231562 
L 435.622969 121.231562 
" clip-path="url(#p384d93d07b)" style="fill: none; stroke: #e2e8f0; stroke-opacity: 0.6; stroke-width: 0.5; stroke-linecap: square"/>
     </g>
     <g id="line2d_12"/>
     <g id="text_8">
      <!-- $1.5T -->
      <g style="fill: #64748b" transform="translate(24.231719 124.82875) scale(0.09 -0.09)">
       <use xlink:href="#MicrosoftYaHei-Bold-24"/>
       <use xlink:href="#MicrosoftYaHei-Bold-31" transform="translate(61.669922 0)"/>
       <use xlink:href="#MicrosoftYaHei-Bold-2e" transform="translate(123.339844 0)"/>
       <use xlink:href="#MicrosoftYaHei-Bold-35" transform="translate(151.904297 0)"/>
       <use xlink:href="#MicrosoftYaHei-Bold-54" transform="translate(213.574219 0)"/>
      </g>
     </g>
    </g>
    <g id="ytick_5">
     <g id="line2d_13">
      <path d="M 52.582969 85.951562 
L 435.622969 85.951562 
" clip-path="url(#p384d93d07b)" style="fill: none; stroke: #e2e8f0; stroke-opacity: 0.6; stroke-width: 0.5; stroke-linecap: square"/>
     </g>
     <g id="line2d_14"/>
     <g id="text_9">
      <!-- $2.0T -->
      <g style="fill: #64748b" transform="translate(24.231719 89.54875) scale(0.09 -0.09)">
       <defs>
        <path id="MicrosoftYaHei-Bold-32" d="M 1500 841 
L 3553 841 
L 3553 0 
L 334 0 
L 334 359 
Q 334 738 473 1050 
Q 613 1363 856 1633 
Q 1100 1903 1613 2266 
Q 2081 2616 2268 2886 
Q 2456 3156 2456 3459 
Q 2456 4113 1744 4113 
Q 1119 4113 550 3613 
L 550 4513 
Q 1184 4922 1975 4922 
Q 2700 4922 3122 4551 
Q 3544 4181 3544 3531 
Q 3544 3169 3422 2876 
Q 3300 2584 3069 2328 
Q 2838 2072 2328 1713 
Q 1838 1363 1669 1172 
Q 1500 981 1500 841 
z
" transform="scale(0.015625)"/>
       </defs>
       <use xlink:href="#MicrosoftYaHei-Bold-24"/>
       <use xlink:href="#MicrosoftYaHei-Bold-32" transform="translate(61.669922 0)"/>
       <use xlink:href="#MicrosoftYaHei-Bold-2e" transform="translate(123.339844 0)"/>
       <use xlink:href="#MicrosoftYaHei-Bold-30" transform="translate(151.904297 0)"/>
       <use xlink:href="#MicrosoftYaHei-Bold-54" transform="translate(213.574219 0)"/>
      </g>
     </g>
    </g>
    <g id="ytick_6">
     <g id="line2d_15">
      <path d="M 52.582969 50.671562 
L 435.622969 50.671562 
" clip-path="url(#p384d93d07b)" style="fill: none; stroke: #e2e8f0; stroke-opacity: 0.6; stroke-width: 0.5; stroke-linecap: square"/>
     </g>
     <g id="line2d_16"/>
     <g id="text_10">
      <!-- $2.5T -->
      <g style="fill: #64748b" transform="translate(24.231719 54.26875) scale(0.09 -0.09)">
       <use xlink:href="#MicrosoftYaHei-Bold-24"/>
       <use xlink:href="#MicrosoftYaHei-Bold-32" transform="translate(61.669922 0)"/>
       <use xlink:href="#MicrosoftYaHei-Bold-2e" transform="translate(123.339844 0)"/>
       <use xlink:href="#MicrosoftYaHei-Bold-35" transform="translate(151.904297 0)"/>
       <use xlink:href="#MicrosoftYaHei-Bold-54" transform="translate(213.574219 0)"/>
      </g>
     </g>
    </g>
    <g id="text_11">
     <!-- 万亿美元 -->
     <g style="fill: #64748b" transform="translate(17.994375 156.871563) rotate(-90) scale(0.09 -0.09)">
      <defs>
       <path id="MicrosoftYaHei-4e07" d="M 188 4803 
L 6213 4803 
L 6213 4322 
L 2634 4322 
Q 2609 3625 2569 3016 
L 5469 3016 
Q 5406 1741 5325 597 
Q 5269 -97 5006 -403 
Q 4756 -684 4100 -691 
Q 3756 -703 2938 -641 
Q 2906 -403 2844 -66 
Q 3638 -172 4056 -172 
Q 4725 -222 4794 672 
Q 4869 1547 4906 2541 
L 2531 2541 
Q 2297 253 481 -859 
Q 338 -666 113 -416 
Q 1869 653 1994 2772 
Q 2053 3456 2072 4322 
L 188 4322 
L 188 4803 
z
" transform="scale(0.015625)"/>
       <path id="MicrosoftYaHei-4ebf" d="M 5794 1653 
Q 5950 1578 6319 1466 
Q 6263 772 6175 259 
Q 6038 -534 5069 -541 
Q 4075 -578 3181 -541 
Q 2350 -497 2175 -9 
Q 2013 491 2569 1266 
Q 3113 2009 5119 4328 
L 2350 4328 
L 2350 4822 
L 5769 4822 
L 5769 4241 
Q 4256 2591 3138 1178 
Q 2613 472 2675 216 
Q 2700 -47 3369 -66 
Q 4131 -97 4888 -59 
Q 5331 -41 5475 66 
Q 5638 172 5688 503 
Q 5750 847 5794 1653 
z
M 88 2209 
Q 1000 3472 1531 5303 
L 2044 5153 
Q 1788 4388 1488 3716 
L 1488 -797 
L 1000 -797 
L 1000 2741 
Q 672 2153 300 1659 
Q 213 1934 88 2209 
z
" transform="scale(0.015625)"/>
       <path id="MicrosoftYaHei-7f8e" d="M 150 2403 
L 2956 2403 
L 2956 2991 
L 663 2991 
L 663 3416 
L 2956 3416 
L 2956 3991 
L 288 3991 
L 288 4416 
L 2259 4416 
Q 1938 4694 1425 5084 
L 1713 5397 
Q 2256 5028 2619 4753 
L 2288 4416 
L 3950 4416 
L 3719 4678 
Q 4213 5022 4613 5372 
L 4981 5022 
Q 4581 4722 4116 4416 
L 6150 4416 
L 6150 3991 
L 3469 3991 
L 3469 3416 
L 5813 3416 
L 5813 2991 
L 3469 2991 
L 3469 2403 
L 6263 2403 
L 6263 1978 
L 150 1978 
L 150 2403 
z
M 6313 -303 
Q 6075 -622 5950 -822 
Q 3897 -419 3216 803 
Q 2606 -488 406 -872 
Q 281 -659 100 -397 
Q 2200 -106 2741 916 
L 238 916 
L 238 1341 
L 2913 1341 
Q 2975 1559 3013 1841 
L 3525 1841 
Q 3475 1566 3413 1341 
L 6200 1341 
L 6200 916 
L 3631 916 
Q 4363 -138 6313 -303 
z
" transform="scale(0.015625)"/>
       <path id="MicrosoftYaHei-5143" d="M 188 3084 
L 6225 3084 
L 6225 2609 
L 4250 2609 
L 4250 172 
Q 4250 -197 4625 -197 
L 5163 -197 
Q 5613 -197 5675 216 
Q 5731 566 5769 1103 
Q 6019 1016 6313 947 
Q 6250 409 6181 47 
Q 6056 -641 5275 -641 
L 4513 -641 
Q 3725 -641 3725 128 
L 3725 2609 
L 2450 2609 
L 2450 2409 
Q 2450 1084 2050 447 
Q 1650 -247 469 -847 
Q 244 -572 100 -428 
Q 1181 103 1556 691 
Q 1925 1253 1925 2384 
L 1925 2609 
L 188 2609 
L 188 3084 
z
M 788 4903 
L 5638 4903 
L 5638 4428 
L 788 4428 
L 788 4903 
z
" transform="scale(0.015625)"/>
      </defs>
      <use xlink:href="#MicrosoftYaHei-4e07"/>
      <use xlink:href="#MicrosoftYaHei-4ebf" transform="translate(100 0)"/>
      <use xlink:href="#MicrosoftYaHei-7f8e" transform="translate(200 0)"/>
      <use xlink:href="#MicrosoftYaHei-5143" transform="translate(300 0)"/>
     </g>
    </g>
   </g>
   <g id="text_12">
    <!-- $2.10T -->
    <g style="fill: #1e293b" transform="translate(74.598793 72.384437) scale(0.12 -0.12)">
     <use xlink:href="#MicrosoftYaHei-Bold-24"/>
     <use xlink:href="#MicrosoftYaHei-Bold-32" transform="translate(61.669922 0)"/>
     <use xlink:href="#MicrosoftYaHei-Bold-2e" transform="translate(123.339844 0)"/>
     <use xlink:href="#MicrosoftYaHei-Bold-31" transform="translate(151.904297 0)"/>
     <use xlink:href="#MicrosoftYaHei-Bold-30" transform="translate(213.574219 0)"/>
     <use xlink:href="#MicrosoftYaHei-Bold-54" transform="translate(275.244141 0)"/>
    </g>
   </g>
   <g id="text_13">
    <!-- $0.78T -->
    <g style="fill: #1e293b" transform="translate(174.089702 165.523638) scale(0.12 -0.12)">
     <defs>
      <path id="MicrosoftYaHei-Bold-37" d="M 3675 4225 
Q 3088 3172 2798 2528 
Q 2509 1884 2328 1275 
Q 2147 666 2050 0 
L 966 0 
Q 1122 947 1517 1917 
Q 1913 2888 2609 4009 
L 300 4009 
L 300 4841 
L 3675 4841 
L 3675 4225 
z
" transform="scale(0.015625)"/>
      <path id="MicrosoftYaHei-Bold-38" d="M 269 1303 
Q 269 1725 512 2053 
Q 756 2381 1219 2534 
Q 850 2719 648 3003 
Q 447 3288 447 3634 
Q 447 3997 645 4292 
Q 844 4588 1200 4755 
Q 1556 4922 1997 4922 
Q 2441 4922 2800 4758 
Q 3159 4594 3359 4298 
Q 3559 4003 3559 3647 
Q 3559 3309 3339 3018 
Q 3119 2728 2747 2559 
Q 3200 2403 3453 2076 
Q 3706 1750 3706 1313 
Q 3706 697 3228 309 
Q 2750 -78 1988 -78 
Q 1225 -78 747 309 
Q 269 697 269 1303 
z
M 1278 1394 
Q 1278 1056 1472 853 
Q 1666 650 1991 650 
Q 2303 650 2503 853 
Q 2703 1056 2703 1394 
Q 2703 1709 2500 1920 
Q 2297 2131 1991 2131 
Q 1675 2131 1476 1920 
Q 1278 1709 1278 1394 
z
M 1428 3531 
Q 1428 3266 1592 3077 
Q 1756 2888 2006 2888 
Q 2247 2888 2415 3072 
Q 2584 3256 2584 3531 
Q 2584 3806 2420 3997 
Q 2256 4188 2006 4188 
Q 1750 4188 1589 3997 
Q 1428 3806 1428 3531 
z
" transform="scale(0.015625)"/>
     </defs>
     <use xlink:href="#MicrosoftYaHei-Bold-24"/>
     <use xlink:href="#MicrosoftYaHei-Bold-30" transform="translate(61.669922 0)"/>
     <use xlink:href="#MicrosoftYaHei-Bold-2e" transform="translate(123.339844 0)"/>
     <use xlink:href="#MicrosoftYaHei-Bold-37" transform="translate(151.904297 0)"/>
     <use xlink:href="#MicrosoftYaHei-Bold-38" transform="translate(213.574219 0)"/>
     <use xlink:href="#MicrosoftYaHei-Bold-54" transform="translate(275.244141 0)"/>
    </g>
   </g>
   <g id="text_14">
    <!-- $0.95T -->
    <g style="fill: #1e293b" transform="translate(273.580611 153.528437) scale(0.12 -0.12)">
     <defs>
      <path id="MicrosoftYaHei-Bold-39" d="M 544 941 
Q 931 691 1456 691 
Q 2628 691 2653 2216 
L 2634 2222 
Q 2316 1731 1650 1731 
Q 1047 1731 658 2154 
Q 269 2578 269 3222 
Q 269 3978 737 4450 
Q 1206 4922 1959 4922 
Q 2744 4922 3191 4325 
Q 3638 3728 3638 2659 
Q 3638 1391 3098 653 
Q 2559 -84 1547 -84 
Q 975 -84 544 100 
L 544 941 
z
M 1259 3313 
Q 1259 2928 1445 2709 
Q 1631 2491 1953 2491 
Q 2241 2491 2427 2700 
Q 2613 2909 2613 3219 
Q 2613 3591 2427 3869 
Q 2241 4147 1928 4147 
Q 1625 4147 1442 3906 
Q 1259 3666 1259 3313 
z
" transform="scale(0.015625)"/>
     </defs>
     <use xlink:href="#MicrosoftYaHei-Bold-24"/>
     <use xlink:href="#MicrosoftYaHei-Bold-30" transform="translate(61.669922 0)"/>
     <use xlink:href="#MicrosoftYaHei-Bold-2e" transform="translate(123.339844 0)"/>
     <use xlink:href="#MicrosoftYaHei-Bold-39" transform="translate(151.904297 0)"/>
     <use xlink:href="#MicrosoftYaHei-Bold-35" transform="translate(213.574219 0)"/>
     <use xlink:href="#MicrosoftYaHei-Bold-54" transform="translate(275.244141 0)"/>
    </g>
   </g>
   <g id="text_15">
    <!-- $1.30T -->
    <g style="fill: #1e293b" transform="translate(373.07152 128.832437) scale(0.12 -0.12)">
     <defs>
      <path id="MicrosoftYaHei-Bold-33" d="M 494 1053 
Q 978 691 1625 691 
Q 2034 691 2275 872 
Q 2516 1053 2516 1388 
Q 2516 1731 2230 1912 
Q 1944 2094 1428 2094 
L 997 2094 
L 997 2872 
L 1394 2872 
Q 2369 2872 2369 3528 
Q 2369 4147 1622 4147 
Q 1134 4147 675 3828 
L 675 4663 
Q 1175 4922 1853 4922 
Q 2541 4922 2969 4605 
Q 3397 4288 3397 3725 
Q 3397 2775 2434 2531 
L 2434 2516 
Q 2941 2459 3244 2145 
Q 3547 1831 3547 1381 
Q 3547 691 3042 303 
Q 2538 -84 1697 -84 
Q 950 -84 494 163 
L 494 1053 
z
" transform="scale(0.015625)"/>
     </defs>
     <use xlink:href="#MicrosoftYaHei-Bold-24"/>
     <use xlink:href="#MicrosoftYaHei-Bold-31" transform="translate(61.669922 0)"/>
     <use xlink:href="#MicrosoftYaHei-Bold-2e" transform="translate(123.339844 0)"/>
     <use xlink:href="#MicrosoftYaHei-Bold-33" transform="translate(151.904297 0)"/>
     <use xlink:href="#MicrosoftYaHei-Bold-30" transform="translate(213.574219 0)"/>
     <use xlink:href="#MicrosoftYaHei-Bold-54" transform="translate(275.244141 0)"/>
    </g>
   </g>
   <g id="patch_7">
    <path d="M 214.255696 82.570809 
Q 214.255696 125.464346 214.255696 168.357883 
" style="fill: none; stroke: #ef4444; stroke-width: 1.5; stroke-linecap: round"/>
    <path d="M 212.255696 86.570809 
L 214.255696 82.570809 
L 216.255696 86.570809 
" style="fill: none; stroke: #ef4444; stroke-width: 1.5; stroke-linecap: round"/>
    <path d="M 216.255696 164.357883 
L 214.255696 168.357883 
L 212.255696 164.357883 
" style="fill: none; stroke: #ef4444; stroke-width: 1.5; stroke-linecap: round"/>
   </g>
   <g id="text_16">
    <!-- $1.32T -->
    <g style="fill: #dc2626" transform="translate(254.05206 114.746781) scale(0.09 -0.09)">
     <use xlink:href="#MicrosoftYaHei-Bold-24"/>
     <use xlink:href="#MicrosoftYaHei-Bold-31" transform="translate(61.669922 0)"/>
     <use xlink:href="#MicrosoftYaHei-Bold-2e" transform="translate(123.339844 0)"/>
     <use xlink:href="#MicrosoftYaHei-Bold-33" transform="translate(151.904297 0)"/>
     <use xlink:href="#MicrosoftYaHei-Bold-32" transform="translate(213.574219 0)"/>
     <use xlink:href="#MicrosoftYaHei-Bold-54" transform="translate(275.244141 0)"/>
    </g>
    <!-- 差距 -->
    <g style="fill: #dc2626" transform="translate(254.05206 125.617375) scale(0.09 -0.09)">
     <defs>
      <path id="MicrosoftYaHei-Bold-5dee" d="M 1013 72 
L 3206 72 
L 3206 722 
L 1788 722 
L 1788 866 
Q 1213 269 444 -241 
Q 263 322 88 678 
Q 941 1150 1506 1803 
L 256 1803 
L 256 2478 
L 1988 2478 
Q 2094 2659 2181 2853 
L 656 2853 
L 656 3528 
L 2425 3528 
Q 2478 3713 2516 3903 
L 381 3903 
L 381 4578 
L 1675 4578 
Q 1513 4888 1363 5134 
L 2225 5347 
L 2672 4578 
L 3759 4578 
Q 4016 5016 4188 5341 
L 5113 5116 
L 4719 4578 
L 6038 4578 
L 6038 3903 
L 3366 3903 
Q 3331 3713 3284 3528 
L 5763 3528 
L 5763 2853 
L 3072 2853 
Q 3000 2663 2913 2478 
L 6163 2478 
L 6163 1803 
L 2534 1803 
Q 2406 1603 2256 1409 
L 5700 1409 
L 5700 722 
L 4094 722 
L 4094 72 
L 6231 72 
L 6231 -628 
L 1013 -628 
L 1013 72 
z
" transform="scale(0.015625)"/>
      <path id="MicrosoftYaHei-Bold-8ddd" d="M 2863 4978 
L 6163 4978 
L 6163 4197 
L 3694 4197 
L 3694 3478 
L 5963 3478 
L 5963 928 
L 3694 928 
L 3694 147 
L 6250 147 
L 6250 -634 
L 2863 -634 
L 2863 4978 
z
M 5138 1697 
L 5138 2709 
L 3694 2709 
L 3694 1697 
L 5138 1697 
z
M 438 4966 
L 2613 4966 
L 2613 2816 
L 2063 2816 
L 2063 2066 
L 2550 2066 
L 2550 1341 
L 2063 1341 
L 2063 444 
L 2763 534 
Q 2750 259 2738 -303 
Q 1344 -484 200 -659 
L 106 222 
L 313 244 
L 313 2416 
L 938 2416 
L 938 309 
L 1288 353 
L 1288 2816 
L 438 2816 
L 438 4966 
z
M 1213 3516 
L 1838 3516 
L 1838 4166 
L 1213 4166 
L 1213 3516 
z
" transform="scale(0.015625)"/>
     </defs>
     <use xlink:href="#MicrosoftYaHei-Bold-5dee"/>
     <use xlink:href="#MicrosoftYaHei-Bold-8ddd" transform="translate(100 0)"/>
    </g>
   </g>
  </g>
  <g id="text_17">
   <!-- 估值鸿沟：市场定价 vs 基本面 -->
   <g style="fill: #1e293b" transform="translate(52.582969 21.99125) scale(0.14 -0.14)">
    <defs>
     <path id="MicrosoftYaHei-Bold-9e3f" d="M 4081 5366 
L 4944 5253 
Q 4850 4997 4763 4791 
L 5950 4791 
Q 5931 3934 5888 3191 
Q 5806 2434 5188 2391 
Q 4963 2372 4369 2366 
Q 4300 2728 4200 3084 
Q 4650 3047 4844 3059 
Q 5206 3041 5206 3397 
Q 5225 3616 5231 4141 
L 3906 4141 
L 3906 2078 
L 6144 2078 
Q 6125 941 6081 166 
Q 6056 -747 5213 -778 
Q 4944 -797 4131 -809 
Q 4088 -453 3975 -41 
Q 4694 -72 4956 -66 
Q 5356 -72 5363 291 
Q 5400 784 5413 1428 
L 3200 1428 
L 3200 4791 
L 3956 4791 
Q 4006 5028 4081 5366 
z
M 5113 347 
L 2950 347 
L 2950 816 
Q 2238 609 1475 353 
L 1244 1116 
Q 1525 1191 1813 1272 
L 1813 3728 
L 1381 3728 
L 1381 4441 
L 3025 4441 
L 3025 3728 
L 2519 3728 
L 2519 1478 
Q 2756 1547 3000 1622 
Q 3006 1309 3031 1003 
L 5113 1003 
L 5113 347 
z
M 581 1966 
Q 994 1791 1288 1672 
Q 1075 353 900 -828 
L 144 -572 
Q 375 516 581 1966 
z
M 613 3616 
Q 1188 3084 1419 2828 
L 806 2253 
Q 544 2553 63 3066 
L 613 3616 
z
M 700 5278 
Q 1144 4859 1444 4547 
L 850 3997 
Q 556 4341 150 4784 
L 700 5278 
z
M 4100 3753 
L 4525 4103 
Q 4869 3772 5131 3484 
L 4675 3097 
Q 4438 3391 4100 3753 
z
" transform="scale(0.015625)"/>
     <path id="MicrosoftYaHei-Bold-6c9f" d="M 4500 2672 
Q 4850 2028 5188 1409 
Q 5213 2478 5213 3828 
L 3056 3828 
Q 2725 3247 2338 2803 
Q 1950 3203 1719 3384 
Q 2394 4184 2788 5253 
Q 3494 5203 3681 5184 
Q 3569 4878 3444 4603 
L 6056 4603 
Q 6050 2434 6013 666 
Q 5988 -109 5650 -441 
Q 5331 -759 4725 -759 
Q 4225 -759 3594 -759 
Q 3513 -297 3413 109 
Q 4188 53 4469 53 
Q 4850 53 4994 197 
Q 5156 359 5175 884 
L 4650 616 
Q 4588 741 4525 866 
Q 2544 747 2206 672 
L 1950 1372 
Q 2425 1653 3200 3503 
L 4056 3172 
L 3050 1491 
Q 3625 1509 4194 1534 
Q 3975 1959 3775 2309 
L 4500 2672 
z
M 956 1934 
Q 1338 1747 1775 1609 
Q 1419 597 1000 -772 
Q 556 -603 150 -478 
Q 638 734 956 1934 
z
M 713 5316 
Q 1363 4847 1913 4428 
L 1350 3791 
Q 869 4222 175 4728 
L 713 5316 
z
M 625 3622 
Q 1213 3222 1738 2772 
L 1150 2122 
Q 775 2497 81 3034 
L 625 3622 
z
" transform="scale(0.015625)"/>
     <path id="MicrosoftYaHei-Bold-ff1a" d="M 1594 3506 
Q 1831 3506 2000 3354 
Q 2169 3203 2169 2981 
Q 2169 2766 2003 2614 
Q 1838 2463 1594 2463 
Q 1353 2463 1189 2616 
Q 1025 2769 1025 2981 
Q 1025 3200 1192 3353 
Q 1359 3506 1594 3506 
z
M 1594 959 
Q 1831 959 2000 806 
Q 2169 653 2169 434 
Q 2169 222 2000 69 
Q 1831 -84 1594 -84 
Q 1356 -84 1190 69 
Q 1025 222 1025 434 
Q 1025 653 1190 806 
Q 1356 959 1594 959 
z
" transform="scale(0.015625)"/>
     <path id="MicrosoftYaHei-Bold-5b9a" d="M 2581 5128 
L 3538 5353 
Q 3666 5028 3806 4634 
L 6063 4634 
L 6063 3403 
L 5200 3403 
L 5200 3872 
L 1225 3872 
L 1225 3403 
L 363 3403 
L 363 4634 
L 2772 4634 
L 2581 5128 
z
M 5831 1741 
L 5831 972 
L 3744 972 
L 3744 125 
Q 4766 103 6313 147 
Q 6138 -372 6044 -697 
Q 3819 -697 2809 -630 
Q 1800 -563 1388 219 
Q 1069 -425 613 -859 
Q 331 -441 94 -134 
Q 875 659 1094 2122 
L 1931 2022 
Q 1850 1541 1728 1122 
Q 2047 300 2850 175 
L 2850 2416 
L 263 2416 
L 263 3184 
L 6156 3184 
L 6156 2416 
L 3744 2416 
L 3744 1741 
L 5831 1741 
z
" transform="scale(0.015625)"/>
     <path id="MicrosoftYaHei-Bold-4ef7" d="M 4525 2684 
L 5381 2684 
Q 4613 3391 4131 4291 
Q 3613 3428 2813 2678 
L 3625 2678 
Q 3625 2041 3613 1703 
Q 3613 -41 2606 -853 
Q 2375 -578 1938 -222 
Q 2688 484 2713 1591 
Q 2725 1903 2725 2591 
Q 2500 2384 2256 2191 
Q 2081 2553 1825 3028 
Q 2938 3884 3719 5184 
L 4744 5184 
L 4606 4984 
Q 5250 3859 6319 3147 
L 5900 2253 
Q 5650 2434 5431 2634 
L 5431 -766 
L 4525 -766 
L 4525 2684 
z
M 1394 5278 
L 2250 5022 
Q 2025 4322 1731 3666 
L 1731 -797 
L 875 -797 
L 875 2103 
Q 650 1753 400 1422 
Q 313 1809 88 2516 
Q 831 3547 1394 5278 
z
" transform="scale(0.015625)"/>
     <path id="MicrosoftYaHei-Bold-76" d="M 3688 3456 
L 2391 0 
L 1250 0 
L 16 3456 
L 1097 3456 
L 1731 1281 
Q 1834 925 1847 684 
L 1863 684 
Q 1888 931 1984 1263 
L 2631 3456 
L 3688 3456 
z
" transform="scale(0.015625)"/>
     <path id="MicrosoftYaHei-Bold-73" d="M 369 928 
Q 888 613 1384 613 
Q 2009 613 2009 947 
Q 2009 1184 1494 1344 
Q 850 1544 609 1789 
Q 369 2034 369 2453 
Q 369 2963 781 3252 
Q 1194 3541 1863 3541 
Q 2338 3541 2778 3400 
L 2778 2606 
Q 2375 2844 1891 2844 
Q 1650 2844 1503 2758 
Q 1356 2672 1356 2531 
Q 1356 2294 1794 2147 
Q 2263 1991 2498 1862 
Q 2734 1734 2857 1525 
Q 2981 1316 2981 1041 
Q 2981 506 2553 211 
Q 2125 -84 1409 -84 
Q 847 -84 369 94 
L 369 928 
z
" transform="scale(0.015625)"/>
     <path id="MicrosoftYaHei-Bold-57fa" d="M 6319 853 
Q 6063 484 5856 159 
Q 5369 428 4925 791 
L 4925 384 
L 3631 384 
L 3631 3 
L 5875 3 
L 5875 -653 
L 525 -653 
L 525 3 
L 2775 3 
L 2775 384 
L 1450 384 
L 1450 766 
Q 1016 422 544 159 
Q 363 447 75 847 
Q 856 1141 1397 1584 
L 156 1584 
L 156 2241 
L 1244 2241 
L 1244 4141 
L 338 4141 
L 338 4797 
L 1244 4797 
L 1244 5341 
L 2100 5341 
L 2100 4797 
L 4313 4797 
L 4313 5341 
L 5163 5341 
L 5163 4797 
L 6069 4797 
L 6069 4141 
L 5163 4141 
L 5163 2241 
L 6244 2241 
L 6244 1584 
L 5013 1584 
Q 5675 1091 6319 853 
z
M 2100 3828 
L 4313 3828 
L 4313 4141 
L 2100 4141 
L 2100 3828 
z
M 2100 3028 
L 4313 3028 
L 4313 3341 
L 2100 3341 
L 2100 3028 
z
M 2100 2241 
L 4313 2241 
L 4313 2553 
L 2100 2553 
L 2100 2241 
z
M 2775 1466 
L 3631 1466 
L 3631 1028 
L 4647 1028 
Q 4359 1284 4091 1584 
L 2319 1584 
Q 2050 1284 1759 1028 
L 2775 1028 
L 2775 1466 
z
" transform="scale(0.015625)"/>
     <path id="MicrosoftYaHei-Bold-672c" d="M 356 4403 
L 2744 4403 
L 2744 5328 
L 3619 5328 
L 3619 4403 
L 6044 4403 
L 6044 3591 
L 3878 3591 
Q 4894 2006 6325 1166 
Q 6056 884 5656 366 
Q 4409 1409 3619 2741 
L 3619 1047 
L 4875 1047 
L 4875 259 
L 3619 259 
L 3619 -828 
L 2744 -828 
L 2744 259 
L 1481 259 
L 1481 1016 
Q 1119 634 713 291 
Q 369 741 75 1066 
Q 1553 2069 2506 3591 
L 356 3591 
L 356 4403 
z
M 1509 1047 
L 2744 1047 
L 2744 2681 
Q 2209 1794 1509 1047 
z
" transform="scale(0.015625)"/>
     <path id="MicrosoftYaHei-Bold-9762" d="M 181 4997 
L 6213 4997 
L 6213 4297 
L 3553 4297 
Q 3400 3950 3269 3678 
L 5881 3678 
L 5881 -828 
L 5081 -828 
L 5081 -503 
L 1319 -503 
L 1319 -828 
L 519 -828 
L 519 3678 
L 2272 3678 
Q 2388 3969 2500 4297 
L 181 4297 
L 181 4997 
z
M 5081 2984 
L 4500 2984 
L 4500 191 
L 5081 191 
L 5081 2984 
z
M 1319 191 
L 1869 191 
L 1869 2984 
L 1319 2984 
L 1319 191 
z
M 2656 2478 
L 3713 2478 
L 3713 2984 
L 2656 2984 
L 2656 2478 
z
M 2656 1341 
L 3713 1341 
L 3713 1847 
L 2656 1847 
L 2656 1341 
z
M 2656 191 
L 3713 191 
L 3713 709 
L 2656 709 
L 2656 191 
z
" transform="scale(0.015625)"/>
    </defs>
    <use xlink:href="#MicrosoftYaHei-Bold-4f30"/>
    <use xlink:href="#MicrosoftYaHei-Bold-503c" transform="translate(100 0)"/>
    <use xlink:href="#MicrosoftYaHei-Bold-9e3f" transform="translate(200 0)"/>
    <use xlink:href="#MicrosoftYaHei-Bold-6c9f" transform="translate(300 0)"/>
    <use xlink:href="#MicrosoftYaHei-Bold-ff1a" transform="translate(400 0)"/>
    <use xlink:href="#MicrosoftYaHei-Bold-5e02" transform="translate(500 0)"/>
    <use xlink:href="#MicrosoftYaHei-Bold-573a" transform="translate(600 0)"/>
    <use xlink:href="#MicrosoftYaHei-Bold-5b9a" transform="translate(700 0)"/>
    <use xlink:href="#MicrosoftYaHei-Bold-4ef7" transform="translate(800 0)"/>
    <use xlink:href="#MicrosoftYaHei-Bold-20" transform="translate(900 0)"/>
    <use xlink:href="#MicrosoftYaHei-Bold-76" transform="translate(929.785156 0)"/>
    <use xlink:href="#MicrosoftYaHei-Bold-73" transform="translate(987.5 0)"/>
    <use xlink:href="#MicrosoftYaHei-Bold-20" transform="translate(1036.865234 0)"/>
    <use xlink:href="#MicrosoftYaHei-Bold-57fa" transform="translate(1066.650391 0)"/>
    <use xlink:href="#MicrosoftYaHei-Bold-672c" transform="translate(1166.650391 0)"/>
    <use xlink:href="#MicrosoftYaHei-Bold-9762" transform="translate(1266.650391 0)"/>
   </g>
  </g>
  <g id="text_18">
   <!-- Morningstar DCF模型算出$0.78T——仅为市场价的37% -->
   <g style="fill: #64748b" transform="translate(52.582969 42.811094) scale(0.085 -0.085)">
    <defs>
     <path id="MicrosoftYaHei-Bold-67" d="M 3800 381 
Q 3800 -581 3251 -1101 
Q 2703 -1622 1672 -1622 
Q 972 -1622 559 -1422 
L 559 -559 
Q 1097 -872 1644 -872 
Q 2184 -872 2489 -583 
Q 2794 -294 2794 219 
L 2794 506 
L 2778 506 
Q 2413 -84 1691 -84 
Q 1038 -84 645 381 
Q 253 847 253 1628 
Q 253 2500 686 3020 
Q 1119 3541 1822 3541 
Q 2459 3541 2778 3044 
L 2794 3044 
L 2794 3456 
L 3800 3456 
L 3800 381 
z
M 2803 1950 
Q 2803 2294 2595 2530 
Q 2388 2766 2072 2766 
Q 1703 2766 1489 2477 
Q 1275 2188 1275 1666 
Q 1275 1213 1481 952 
Q 1688 691 2028 691 
Q 2372 691 2587 956 
Q 2803 1222 2803 1647 
L 2803 1950 
z
" transform="scale(0.015625)"/>
     <path id="MicrosoftYaHei-Bold-6a21" d="M 6250 534 
L 4825 534 
Q 5419 84 6325 -53 
Q 6131 -403 5913 -859 
Q 4769 -522 4169 334 
Q 3694 -503 2406 -897 
Q 2206 -509 1925 -159 
Q 3013 66 3419 534 
L 2088 534 
L 2088 1141 
L 3719 1141 
Q 3756 1284 3769 1459 
L 2425 1459 
L 2425 2134 
L 1944 1659 
Q 1800 1878 1638 2109 
L 1638 -841 
L 863 -841 
L 863 1803 
Q 619 1141 275 547 
Q 213 978 75 1691 
Q 525 2453 788 3328 
L 138 3328 
L 138 4066 
L 863 4066 
L 863 5291 
L 1638 5291 
L 1638 4066 
L 2219 4066 
L 2219 3328 
L 1638 3328 
L 1638 2972 
Q 2081 2559 2425 2209 
L 2425 3703 
L 6025 3703 
L 6025 1459 
L 4556 1459 
Q 4544 1291 4519 1141 
L 6250 1141 
L 6250 534 
z
M 5250 2009 
L 5250 2353 
L 3200 2353 
L 3200 2009 
L 5250 2009 
z
M 5250 3147 
L 3200 3147 
L 3200 2816 
L 5250 2816 
L 5250 3147 
z
M 5413 3853 
L 4675 3853 
L 4675 4203 
L 3719 4203 
L 3719 3853 
L 2981 3853 
L 2981 4203 
L 2175 4203 
L 2175 4822 
L 2981 4822 
L 2981 5291 
L 3719 5291 
L 3719 4822 
L 4675 4822 
L 4675 5291 
L 5413 5291 
L 5413 4822 
L 6275 4822 
L 6275 4203 
L 5413 4203 
L 5413 3853 
z
" transform="scale(0.015625)"/>
     <path id="MicrosoftYaHei-Bold-578b" d="M 5963 5216 
L 5963 2547 
Q 5963 2141 5752 1928 
Q 5541 1716 5095 1700 
Q 4650 1684 4269 1684 
Q 4231 2059 4150 2447 
Q 4469 2428 4813 2428 
Q 5150 2428 5150 2709 
L 5150 5216 
L 5963 5216 
z
M 150 3491 
L 891 3491 
Q 900 3616 900 4341 
L 325 4341 
L 325 5066 
L 3625 5066 
L 3625 4341 
L 3113 4341 
L 3113 3491 
L 3750 3491 
L 3750 2766 
L 3113 2766 
L 3113 2091 
L 3656 2091 
L 3656 1441 
L 5781 1441 
L 5781 678 
L 3656 678 
L 3656 103 
L 6294 103 
L 6294 -647 
L 138 -647 
L 138 103 
L 2763 103 
L 2763 678 
L 650 678 
L 650 1441 
L 2763 1441 
L 2763 1766 
L 2350 1766 
L 2350 2766 
L 1559 2766 
Q 1375 2016 888 1522 
Q 675 1697 275 2009 
Q 584 2334 741 2766 
L 150 2766 
L 150 3491 
z
M 1663 3491 
L 2350 3491 
L 2350 4341 
L 1669 4341 
Q 1669 3753 1663 3491 
z
M 3900 4866 
L 4650 4866 
L 4650 2753 
L 3900 2753 
L 3900 4866 
z
" transform="scale(0.015625)"/>
     <path id="MicrosoftYaHei-Bold-7b97" d="M 100 697 
L 1575 697 
Q 1603 844 1613 1003 
L 706 1003 
L 706 3694 
Q 572 3581 431 3478 
Q 325 3803 75 4228 
Q 700 4634 1119 5341 
L 2006 5341 
Q 1888 5122 1759 4922 
L 3113 4922 
L 3113 4381 
Q 3563 4788 3800 5347 
L 4619 5347 
Q 4541 5125 4450 4922 
L 6213 4922 
L 6213 4347 
L 5338 4347 
L 5513 3972 
L 4738 3816 
L 5719 3816 
L 5719 1003 
L 4906 1003 
L 4906 697 
L 6300 697 
L 6300 97 
L 4906 97 
L 4906 -809 
L 4081 -809 
L 4081 97 
L 2281 97 
Q 2050 -534 1388 -897 
Q 994 -616 581 -384 
Q 1031 -209 1291 97 
L 100 97 
L 100 697 
z
M 2575 3972 
L 1800 3816 
L 3519 3816 
Q 3203 4013 2856 4178 
Q 2969 4259 3069 4347 
L 2403 4347 
Q 2494 4156 2575 3972 
z
M 3694 3816 
L 4703 3816 
Q 4603 4106 4484 4347 
L 4131 4347 
Q 3934 4056 3694 3816 
z
M 841 3816 
L 1766 3816 
Q 1703 4031 1572 4347 
L 1344 4347 
Q 1106 4059 841 3816 
z
M 4900 3303 
L 1525 3303 
L 1525 2991 
L 4900 2991 
L 4900 3303 
z
M 1525 2253 
L 4900 2253 
L 4900 2566 
L 1525 2566 
L 1525 2253 
z
M 4900 1516 
L 4900 1828 
L 1525 1828 
L 1525 1516 
L 4900 1516 
z
M 2406 697 
L 4081 697 
L 4081 1003 
L 2428 1003 
Q 2425 856 2406 697 
z
" transform="scale(0.015625)"/>
     <path id="MicrosoftYaHei-Bold-51fa" d="M 4869 3184 
L 4869 4753 
L 5744 4753 
L 5744 2359 
L 3663 2359 
L 3663 284 
L 5094 284 
L 5094 1816 
L 5969 1816 
L 5969 -834 
L 5094 -834 
L 5094 -541 
L 425 -541 
L 425 1816 
L 1300 1816 
L 1300 284 
L 2725 284 
L 2725 2359 
L 650 2359 
L 650 4753 
L 1525 4753 
L 1525 3184 
L 2725 3184 
L 2725 5297 
L 3663 5297 
L 3663 3184 
L 4869 3184 
z
" transform="scale(0.015625)"/>
     <path id="MicrosoftYaHei-Bold-2014" d="M 6913 1497 
L 0 1497 
L 0 2209 
L 6913 2209 
L 6913 1497 
z
" transform="scale(0.015625)"/>
     <path id="MicrosoftYaHei-Bold-4ec5" d="M 1275 5278 
L 2150 5066 
Q 1934 4347 1663 3691 
L 1663 -791 
L 813 -791 
L 813 2006 
Q 594 1653 356 1322 
Q 175 2153 88 2453 
Q 819 3697 1275 5278 
z
M 2250 4878 
L 5925 4878 
Q 5881 2500 4731 975 
Q 5397 372 6306 28 
Q 5906 -472 5681 -797 
Q 4778 -425 4088 269 
Q 3347 -409 2306 -859 
Q 2125 -578 1744 -34 
Q 2769 378 3466 1022 
Q 2781 2022 2388 3466 
L 3150 3816 
Q 3447 2584 4075 1713 
Q 4772 2691 4925 4053 
L 2250 4053 
L 2250 4878 
z
" transform="scale(0.015625)"/>
     <path id="MicrosoftYaHei-Bold-4e3a" d="M 3225 -759 
Q 3169 -403 2994 178 
Q 3759 125 4203 125 
Q 4553 125 4689 192 
Q 4825 259 4876 386 
Q 4928 513 4981 1233 
Q 5034 1953 5094 3103 
L 3288 3103 
Q 3228 2550 3081 2053 
L 3644 2578 
Q 4081 2197 4694 1634 
L 4031 997 
Q 3472 1634 3069 2013 
Q 2528 206 850 -878 
Q 406 -459 106 -209 
Q 2091 988 2350 3103 
L 238 3103 
L 238 3928 
L 1356 3928 
Q 1028 4350 606 4791 
L 1219 5316 
Q 1706 4866 2100 4459 
L 1509 3928 
L 2413 3928 
L 2500 5322 
L 3463 5322 
L 3350 3928 
L 6013 3928 
L 5866 1500 
Q 5794 325 5745 93 
Q 5697 -138 5531 -344 
Q 5366 -550 5116 -644 
Q 4866 -738 4202 -755 
Q 3538 -772 3225 -759 
z
" transform="scale(0.015625)"/>
     <path id="MicrosoftYaHei-Bold-7684" d="M 1250 5303 
L 2181 5159 
L 1900 4309 
L 2963 4309 
L 2963 3091 
Q 3466 3934 3925 5316 
L 4788 5091 
Q 4650 4675 4494 4278 
L 6106 4278 
L 6034 681 
Q 6019 100 5937 -133 
Q 5856 -366 5684 -512 
Q 5513 -659 5205 -712 
Q 4897 -766 3863 -766 
Q 3769 -216 3625 178 
Q 4088 141 4609 141 
Q 4759 141 4868 175 
Q 4978 209 5048 279 
Q 5119 350 5144 437 
Q 5169 525 5184 1206 
L 5213 2484 
Q 5225 3081 5225 3453 
L 4138 3453 
Q 3931 3016 3700 2603 
Q 3403 2797 2963 2988 
L 2963 -734 
L 2094 -734 
L 2094 -284 
L 1206 -284 
L 1206 -772 
L 338 -772 
L 338 4309 
L 997 4309 
Q 1178 4922 1250 5303 
z
M 2094 3491 
L 1206 3491 
L 1206 2422 
L 2094 2422 
L 2094 3491 
z
M 1206 534 
L 2094 534 
L 2094 1603 
L 1206 1603 
L 1206 534 
z
M 3944 2703 
Q 4394 2166 4913 1397 
L 4125 872 
Q 3650 1653 3219 2203 
L 3944 2703 
z
" transform="scale(0.015625)"/>
     <path id="MicrosoftYaHei-Bold-25" d="M 297 3597 
Q 297 4191 626 4548 
Q 956 4906 1519 4906 
Q 2056 4906 2354 4581 
Q 2653 4256 2653 3684 
Q 2653 3097 2322 2744 
Q 1991 2391 1438 2391 
Q 919 2391 608 2722 
Q 297 3053 297 3597 
z
M 984 3631 
Q 984 2959 1478 2959 
Q 1981 2959 1981 3659 
Q 1981 4338 1500 4338 
Q 984 4338 984 3631 
z
M 4938 4841 
L 1791 -3 
L 1006 -3 
L 4147 4841 
L 4938 4841 
z
M 3297 1141 
Q 3297 1741 3631 2095 
Q 3966 2450 4522 2450 
Q 5059 2450 5357 2131 
Q 5656 1813 5656 1234 
Q 5656 641 5322 286 
Q 4988 -69 4438 -69 
Q 3922 -69 3609 264 
Q 3297 597 3297 1141 
z
M 3981 1175 
Q 3981 500 4478 500 
Q 4978 500 4978 1200 
Q 4978 1528 4845 1704 
Q 4713 1881 4491 1881 
Q 3981 1881 3981 1175 
z
" transform="scale(0.015625)"/>
    </defs>
    <use xlink:href="#MicrosoftYaHei-Bold-4d"/>
    <use xlink:href="#MicrosoftYaHei-Bold-6f" transform="translate(102.832031 0)"/>
    <use xlink:href="#MicrosoftYaHei-Bold-72" transform="translate(168.554688 0)"/>
    <use xlink:href="#MicrosoftYaHei-Bold-6e" transform="translate(211.1875 0)"/>
    <use xlink:href="#MicrosoftYaHei-Bold-69" transform="translate(275.982422 0)"/>
    <use xlink:href="#MicrosoftYaHei-Bold-6e" transform="translate(305.572266 0)"/>
    <use xlink:href="#MicrosoftYaHei-Bold-67" transform="translate(370.367188 0)"/>
    <use xlink:href="#MicrosoftYaHei-Bold-73" transform="translate(436.822266 0)"/>
    <use xlink:href="#MicrosoftYaHei-Bold-74" transform="translate(486.1875 0)"/>
    <use xlink:href="#MicrosoftYaHei-Bold-61" transform="translate(527.59375 0)"/>
    <use xlink:href="#MicrosoftYaHei-Bold-72" transform="translate(585.357422 0)"/>
    <use xlink:href="#MicrosoftYaHei-Bold-20" transform="translate(627.740234 0)"/>
    <use xlink:href="#MicrosoftYaHei-Bold-44" transform="translate(657.525391 0)"/>
    <use xlink:href="#MicrosoftYaHei-Bold-43" transform="translate(736.675781 0)"/>
    <use xlink:href="#MicrosoftYaHei-Bold-46" transform="translate(804.009766 0)"/>
    <use xlink:href="#MicrosoftYaHei-Bold-6a21" transform="translate(859.820312 0)"/>
    <use xlink:href="#MicrosoftYaHei-Bold-578b" transform="translate(959.820312 0)"/>
    <use xlink:href="#MicrosoftYaHei-Bold-7b97" transform="translate(1059.820312 0)"/>
    <use xlink:href="#MicrosoftYaHei-Bold-51fa" transform="translate(1159.820312 0)"/>
    <use xlink:href="#MicrosoftYaHei-Bold-24" transform="translate(1259.820312 0)"/>
    <use xlink:href="#MicrosoftYaHei-Bold-30" transform="translate(1321.490234 0)"/>
    <use xlink:href="#MicrosoftYaHei-Bold-2e" transform="translate(1383.160156 0)"/>
    <use xlink:href="#MicrosoftYaHei-Bold-37" transform="translate(1411.724609 0)"/>
    <use xlink:href="#MicrosoftYaHei-Bold-38" transform="translate(1473.394531 0)"/>
    <use xlink:href="#MicrosoftYaHei-Bold-54" transform="translate(1535.064453 0)"/>
    <use xlink:href="#MicrosoftYaHei-Bold-2014" transform="translate(1597.613281 0)"/>
    <use xlink:href="#MicrosoftYaHei-Bold-2014" transform="translate(1705.621094 0)"/>
    <use xlink:href="#MicrosoftYaHei-Bold-4ec5" transform="translate(1813.628906 0)"/>
    <use xlink:href="#MicrosoftYaHei-Bold-4e3a" transform="translate(1913.628906 0)"/>
    <use xlink:href="#MicrosoftYaHei-Bold-5e02" transform="translate(2013.628906 0)"/>
    <use xlink:href="#MicrosoftYaHei-Bold-573a" transform="translate(2113.628906 0)"/>
    <use xlink:href="#MicrosoftYaHei-Bold-4ef7" transform="translate(2213.628906 0)"/>
    <use xlink:href="#MicrosoftYaHei-Bold-7684" transform="translate(2313.628906 0)"/>
    <use xlink:href="#MicrosoftYaHei-Bold-33" transform="translate(2413.628906 0)"/>
    <use xlink:href="#MicrosoftYaHei-Bold-37" transform="translate(2475.298828 0)"/>
    <use xlink:href="#MicrosoftYaHei-Bold-25" transform="translate(2536.96875 0)"/>
   </g>
  </g>
  <g id="text_19">
   <!-- 来源: Morningstar / Bloomberg / Yahoo Finance — 2026年6月 -->
   <g style="fill: #94a3b8" transform="translate(52.582969 247.9775) scale(0.07 -0.07)">
    <defs>
     <path id="MicrosoftYaHei-Bold-6765" d="M 513 4628 
L 2731 4628 
L 2731 5316 
L 3638 5316 
L 3638 4628 
L 5888 4628 
L 5888 3816 
L 4872 3816 
L 5494 3353 
Q 5078 2844 4722 2516 
L 6213 2516 
L 6213 1709 
L 4159 1709 
Q 5028 816 6269 347 
Q 5988 -22 5713 -441 
Q 4388 281 3638 1263 
L 3638 -809 
L 2731 -809 
L 2731 1256 
Q 1959 253 656 -478 
Q 369 -66 106 266 
Q 1325 794 2175 1709 
L 213 1709 
L 213 2516 
L 1609 2516 
Q 1363 2856 906 3378 
L 1488 3816 
L 513 3816 
L 513 4628 
z
M 4847 3816 
L 3638 3816 
L 3638 2516 
L 4638 2516 
L 4081 2984 
Q 4469 3347 4847 3816 
z
M 2294 2966 
L 1688 2516 
L 2731 2516 
L 2731 3816 
L 1531 3816 
Q 1897 3441 2294 2966 
z
" transform="scale(0.015625)"/>
     <path id="MicrosoftYaHei-Bold-6e90" d="M 719 5278 
Q 1425 4772 1744 4509 
L 1163 3878 
Q 719 4309 200 4734 
L 719 5278 
z
M 3281 1053 
L 3894 678 
Q 3688 344 3422 -22 
Q 3584 -47 3844 -53 
Q 4119 -16 4125 203 
L 4125 1191 
L 3019 1191 
L 3019 3834 
L 3691 3834 
Q 3803 4094 3888 4372 
L 2669 4372 
L 2669 2491 
Q 2669 141 1975 -884 
Q 1575 -484 1269 -284 
Q 1875 616 1869 2603 
L 1869 5072 
L 6250 5072 
L 6250 4372 
L 4709 4372 
Q 4634 4188 4459 3834 
L 5981 3834 
L 5981 1191 
L 4925 1191 
L 4925 9 
Q 4925 -347 4776 -547 
Q 4628 -747 4323 -790 
Q 4019 -834 3525 -822 
Q 3472 -481 3372 -91 
Q 3191 -334 2988 -591 
L 2406 -122 
Q 2863 359 3281 1053 
z
M 5206 3197 
L 3781 3197 
L 3781 2803 
L 5206 2803 
L 5206 3197 
z
M 5206 1828 
L 5206 2228 
L 3781 2228 
L 3781 1828 
L 5206 1828 
z
M 594 3666 
Q 1069 3322 1581 2878 
L 1019 2203 
Q 563 2647 81 3072 
L 594 3666 
z
M 781 1878 
Q 1250 1666 1550 1578 
L 988 -778 
Q 575 -622 163 -522 
Q 481 434 781 1878 
z
M 5569 1078 
Q 5963 566 6350 -91 
L 5706 -472 
Q 5406 103 4981 734 
L 5569 1078 
z
" transform="scale(0.015625)"/>
     <path id="MicrosoftYaHei-Bold-3a" d="M 313 2969 
Q 313 3200 491 3350 
Q 669 3500 916 3500 
Q 1166 3500 1337 3350 
Q 1509 3200 1509 2969 
Q 1509 2728 1337 2579 
Q 1166 2431 903 2431 
Q 653 2431 483 2584 
Q 313 2738 313 2969 
z
M 313 453 
Q 313 688 491 838 
Q 669 988 916 988 
Q 1166 988 1337 834 
Q 1509 681 1509 453 
Q 1509 213 1337 64 
Q 1166 -84 903 -84 
Q 659 -84 486 69 
Q 313 222 313 453 
z
" transform="scale(0.015625)"/>
     <path id="MicrosoftYaHei-Bold-2f" d="M 3100 4841 
L 747 -803 
L -156 -803 
L 2188 4841 
L 3100 4841 
z
" transform="scale(0.015625)"/>
     <path id="MicrosoftYaHei-Bold-42" d="M 559 0 
L 559 4841 
L 2278 4841 
Q 3069 4841 3497 4541 
Q 3925 4241 3925 3709 
Q 3925 3316 3659 3019 
Q 3394 2722 2991 2609 
L 2991 2597 
Q 3497 2534 3808 2221 
Q 4119 1909 4119 1438 
Q 4119 778 3650 389 
Q 3181 0 2369 0 
L 559 0 
z
M 1591 4072 
L 1591 2875 
L 2081 2875 
Q 2434 2875 2637 3044 
Q 2841 3213 2841 3516 
Q 2841 4072 2028 4072 
L 1591 4072 
z
M 1591 2097 
L 1591 769 
L 2203 769 
Q 2594 769 2814 950 
Q 3034 1131 3034 1453 
Q 3034 1759 2815 1928 
Q 2597 2097 2194 2097 
L 1591 2097 
z
" transform="scale(0.015625)"/>
     <path id="MicrosoftYaHei-Bold-6c" d="M 444 0 
L 444 5116 
L 1450 5116 
L 1450 0 
L 444 0 
z
" transform="scale(0.015625)"/>
     <path id="MicrosoftYaHei-Bold-6d" d="M 5881 0 
L 4875 0 
L 4875 1972 
Q 4875 2766 4297 2766 
Q 4028 2766 3850 2525 
Q 3672 2284 3672 1938 
L 3672 0 
L 2666 0 
L 2666 1997 
Q 2666 2766 2094 2766 
Q 1809 2766 1639 2536 
Q 1469 2306 1469 1928 
L 1469 0 
L 459 0 
L 459 3456 
L 1469 3456 
L 1469 2916 
L 1481 2916 
Q 1663 3213 1963 3377 
Q 2263 3541 2594 3541 
Q 3322 3541 3591 2888 
Q 3991 3541 4753 3541 
Q 5881 3541 5881 2147 
L 5881 0 
z
" transform="scale(0.015625)"/>
     <path id="MicrosoftYaHei-Bold-62" d="M 1469 416 
L 1469 0 
L 459 0 
L 459 5116 
L 1469 5116 
L 1469 2928 
L 1481 2928 
Q 1878 3541 2613 3541 
Q 3266 3541 3636 3084 
Q 4006 2628 4006 1825 
Q 4006 966 3581 441 
Q 3156 -84 2453 -84 
Q 1809 -84 1481 416 
L 1469 416 
z
M 1453 1494 
Q 1453 1153 1656 922 
Q 1859 691 2172 691 
Q 2550 691 2761 984 
Q 2972 1278 2972 1816 
Q 2972 2263 2780 2514 
Q 2588 2766 2231 2766 
Q 1894 2766 1673 2512 
Q 1453 2259 1453 1863 
L 1453 1494 
z
" transform="scale(0.015625)"/>
     <path id="MicrosoftYaHei-Bold-59" d="M 4156 4841 
L 2575 1728 
L 2575 0 
L 1544 0 
L 1544 1709 
L 6 4841 
L 1184 4841 
L 1997 2991 
Q 2022 2934 2113 2609 
L 2125 2609 
Q 2163 2828 2228 2981 
L 3063 4841 
L 4156 4841 
z
" transform="scale(0.015625)"/>
     <path id="MicrosoftYaHei-Bold-36" d="M 3378 3938 
Q 3009 4147 2575 4147 
Q 2016 4147 1680 3708 
Q 1344 3269 1344 2572 
L 1363 2572 
Q 1709 3103 2391 3103 
Q 3000 3103 3358 2686 
Q 3716 2269 3716 1600 
Q 3716 869 3250 392 
Q 2784 -84 2059 -84 
Q 1228 -84 786 516 
Q 344 1116 344 2159 
Q 344 3388 917 4155 
Q 1491 4922 2513 4922 
Q 3063 4922 3378 4791 
L 3378 3938 
z
M 1378 1591 
Q 1378 1216 1565 953 
Q 1753 691 2059 691 
Q 2369 691 2547 931 
Q 2725 1172 2725 1534 
Q 2725 2350 2053 2350 
Q 1750 2350 1564 2134 
Q 1378 1919 1378 1591 
z
" transform="scale(0.015625)"/>
     <path id="MicrosoftYaHei-Bold-5e74" d="M 5819 3059 
L 5819 2266 
L 4050 2266 
L 4050 1284 
L 6244 1284 
L 6244 491 
L 4050 491 
L 4050 -828 
L 3138 -828 
L 3138 491 
L 175 491 
L 175 1284 
L 1050 1284 
L 1050 2813 
Q 881 2634 700 2466 
Q 463 2822 138 3266 
Q 1088 4047 1600 5353 
L 2569 5209 
Q 2459 4938 2334 4678 
L 6056 4678 
L 6056 3884 
L 4050 3884 
L 4050 3059 
L 5819 3059 
z
M 1272 3059 
L 3138 3059 
L 3138 3884 
L 1888 3884 
Q 1606 3450 1272 3059 
z
M 1925 1284 
L 3138 1284 
L 3138 2266 
L 1925 2266 
L 1925 1284 
z
" transform="scale(0.015625)"/>
     <path id="MicrosoftYaHei-Bold-6708" d="M 1038 -866 
Q 625 -497 225 -178 
Q 784 388 932 936 
Q 1081 1484 1081 2603 
L 1081 5034 
L 5681 5034 
L 5681 366 
Q 5681 -181 5450 -465 
Q 5219 -750 4808 -775 
Q 4397 -800 3431 -791 
Q 3338 -303 3188 172 
Q 3806 134 4269 134 
Q 4756 134 4756 591 
L 4756 1041 
L 1947 1041 
Q 1872 353 1648 -56 
Q 1425 -466 1038 -866 
z
M 4756 4191 
L 2006 4191 
L 2006 3459 
L 4756 3459 
L 4756 4191 
z
M 1997 1884 
L 4756 1884 
L 4756 2616 
L 2006 2616 
Q 2006 2434 1997 1884 
z
" transform="scale(0.015625)"/>
    </defs>
    <use xlink:href="#MicrosoftYaHei-Bold-6765"/>
    <use xlink:href="#MicrosoftYaHei-Bold-6e90" transform="translate(100 0)"/>
    <use xlink:href="#MicrosoftYaHei-Bold-3a" transform="translate(200 0)"/>
    <use xlink:href="#MicrosoftYaHei-Bold-20" transform="translate(228.564453 0)"/>
    <use xlink:href="#MicrosoftYaHei-Bold-4d" transform="translate(258.349609 0)"/>
    <use xlink:href="#MicrosoftYaHei-Bold-6f" transform="translate(361.181641 0)"/>
    <use xlink:href="#MicrosoftYaHei-Bold-72" transform="translate(426.904297 0)"/>
    <use xlink:href="#MicrosoftYaHei-Bold-6e" transform="translate(469.537109 0)"/>
    <use xlink:href="#MicrosoftYaHei-Bold-69" transform="translate(534.332031 0)"/>
    <use xlink:href="#MicrosoftYaHei-Bold-6e" transform="translate(563.921875 0)"/>
    <use xlink:href="#MicrosoftYaHei-Bold-67" transform="translate(628.716797 0)"/>
    <use xlink:href="#MicrosoftYaHei-Bold-73" transform="translate(695.171875 0)"/>
    <use xlink:href="#MicrosoftYaHei-Bold-74" transform="translate(744.537109 0)"/>
    <use xlink:href="#MicrosoftYaHei-Bold-61" transform="translate(785.943359 0)"/>
    <use xlink:href="#MicrosoftYaHei-Bold-72" transform="translate(843.707031 0)"/>
    <use xlink:href="#MicrosoftYaHei-Bold-20" transform="translate(886.089844 0)"/>
    <use xlink:href="#MicrosoftYaHei-Bold-2f" transform="translate(915.875 0)"/>
    <use xlink:href="#MicrosoftYaHei-Bold-20" transform="translate(963.140625 0)"/>
    <use xlink:href="#MicrosoftYaHei-Bold-42" transform="translate(992.925781 0)"/>
    <use xlink:href="#MicrosoftYaHei-Bold-6c" transform="translate(1061.285156 0)"/>
    <use xlink:href="#MicrosoftYaHei-Bold-6f" transform="translate(1090.875 0)"/>
    <use xlink:href="#MicrosoftYaHei-Bold-6f" transform="translate(1156.597656 0)"/>
    <use xlink:href="#MicrosoftYaHei-Bold-6d" transform="translate(1222.320312 0)"/>
    <use xlink:href="#MicrosoftYaHei-Bold-62" transform="translate(1320.513672 0)"/>
    <use xlink:href="#MicrosoftYaHei-Bold-65" transform="translate(1387.115234 0)"/>
    <use xlink:href="#MicrosoftYaHei-Bold-72" transform="translate(1445.318359 0)"/>
    <use xlink:href="#MicrosoftYaHei-Bold-67" transform="translate(1487.201172 0)"/>
    <use xlink:href="#MicrosoftYaHei-Bold-20" transform="translate(1553.65625 0)"/>
    <use xlink:href="#MicrosoftYaHei-Bold-2f" transform="translate(1583.441406 0)"/>
    <use xlink:href="#MicrosoftYaHei-Bold-20" transform="translate(1630.707031 0)"/>
    <use xlink:href="#MicrosoftYaHei-Bold-59" transform="translate(1660.492188 0)"/>
    <use xlink:href="#MicrosoftYaHei-Bold-61" transform="translate(1715.460938 0)"/>
    <use xlink:href="#MicrosoftYaHei-Bold-68" transform="translate(1773.224609 0)"/>
    <use xlink:href="#MicrosoftYaHei-Bold-6f" transform="translate(1837.775391 0)"/>
    <use xlink:href="#MicrosoftYaHei-Bold-6f" transform="translate(1903.498047 0)"/>
    <use xlink:href="#MicrosoftYaHei-Bold-20" transform="translate(1969.220703 0)"/>
    <use xlink:href="#MicrosoftYaHei-Bold-46" transform="translate(1999.005859 0)"/>
    <use xlink:href="#MicrosoftYaHei-Bold-69" transform="translate(2054.816406 0)"/>
    <use xlink:href="#MicrosoftYaHei-Bold-6e" transform="translate(2084.40625 0)"/>
    <use xlink:href="#MicrosoftYaHei-Bold-61" transform="translate(2149.201172 0)"/>
    <use xlink:href="#MicrosoftYaHei-Bold-6e" transform="translate(2206.964844 0)"/>
    <use xlink:href="#MicrosoftYaHei-Bold-63" transform="translate(2271.759766 0)"/>
    <use xlink:href="#MicrosoftYaHei-Bold-65" transform="translate(2323.419922 0)"/>
    <use xlink:href="#MicrosoftYaHei-Bold-20" transform="translate(2381.623047 0)"/>
    <use xlink:href="#MicrosoftYaHei-Bold-2014" transform="translate(2411.408203 0)"/>
    <use xlink:href="#MicrosoftYaHei-Bold-20" transform="translate(2519.416016 0)"/>
    <use xlink:href="#MicrosoftYaHei-Bold-32" transform="translate(2549.201172 0)"/>
    <use xlink:href="#MicrosoftYaHei-Bold-30" transform="translate(2610.871094 0)"/>
    <use xlink:href="#MicrosoftYaHei-Bold-32" transform="translate(2672.541016 0)"/>
    <use xlink:href="#MicrosoftYaHei-Bold-36" transform="translate(2734.210938 0)"/>
    <use xlink:href="#MicrosoftYaHei-Bold-5e74" transform="translate(2795.880859 0)"/>
    <use xlink:href="#MicrosoftYaHei-Bold-36" transform="translate(2895.880859 0)"/>
    <use xlink:href="#MicrosoftYaHei-Bold-6708" transform="translate(2957.550781 0)"/>
   </g>
  </g>
  <g id="text_20">
   <!-- SpaceX虹吸效应 · 扬说深度 -->
   <g style="fill: #94a3b8" transform="translate(346.947187 248.011406) scale(0.07 -0.07)">
    <defs>
     <path id="MicrosoftYaHei-Bold-8679" d="M 313 4328 
L 1231 4328 
L 1231 5303 
L 1969 5303 
L 1969 4328 
L 2888 4328 
L 2888 1566 
L 1969 1566 
L 1969 613 
L 2375 672 
L 2219 1253 
L 2819 1422 
Q 2991 891 3169 241 
L 4175 241 
L 4175 4028 
L 3044 4028 
L 3044 4866 
L 6150 4866 
L 6150 4028 
L 5063 4028 
L 5063 241 
L 6244 241 
L 6244 -597 
L 3025 -597 
L 3025 -288 
L 2638 -391 
Q 2597 -213 2553 -44 
Q 1806 -150 250 -434 
L 81 378 
Q 625 434 1231 513 
L 1231 1566 
L 919 1566 
L 919 1241 
L 313 1241 
L 313 4328 
z
M 2281 2266 
L 2281 3628 
L 1969 3628 
L 1969 2266 
L 2281 2266 
z
M 919 2266 
L 1231 2266 
L 1231 3628 
L 919 3628 
L 919 2266 
z
" transform="scale(0.015625)"/>
     <path id="MicrosoftYaHei-Bold-5438" d="M 313 4853 
L 2188 4853 
L 2188 416 
Q 2738 1447 2800 3197 
Q 2813 3503 2819 4209 
L 2388 4209 
L 2388 4978 
L 5694 4978 
L 5694 4259 
L 5219 3266 
L 6075 3266 
L 6075 2534 
Q 5856 1472 5269 659 
Q 5744 209 6319 -28 
Q 6025 -422 5775 -822 
Q 5194 -472 4731 28 
Q 4181 -491 3438 -891 
Q 3163 -428 2925 -128 
Q 3681 222 4194 716 
Q 3775 1353 3475 2178 
Q 3288 216 2375 -878 
Q 2106 -466 1800 -147 
Q 2013 97 2181 416 
L 1063 416 
L 1063 -84 
L 313 -84 
L 313 4853 
z
M 3625 3791 
Q 4031 2272 4706 1316 
Q 5063 1853 5206 2509 
L 4313 2509 
L 4313 3266 
L 4744 4209 
L 3631 4209 
Q 3625 3978 3625 3791 
z
M 1463 1178 
L 1463 4091 
L 1063 4091 
L 1063 1178 
L 1463 1178 
z
" transform="scale(0.015625)"/>
     <path id="MicrosoftYaHei-Bold-6548" d="M 1169 2122 
L 1806 1500 
Q 2019 1891 2131 2341 
L 2778 2159 
Q 2425 2663 1944 3203 
L 2550 3634 
Q 2841 3325 3084 3041 
Q 3653 4084 3956 5359 
L 4769 5247 
Q 4666 4809 4506 4366 
L 6294 4366 
L 6294 3534 
L 5931 3534 
Q 5778 1931 5213 928 
Q 5666 353 6319 22 
Q 6100 -278 5788 -809 
Q 5156 -378 4703 216 
Q 4141 -419 3331 -866 
Q 3069 -478 2756 -147 
Q 3644 325 4213 1000 
Q 3863 1697 3688 2556 
Q 3534 2281 3363 2003 
Q 3259 2166 3128 2363 
L 2838 2144 
L 2919 2122 
Q 2725 1472 2394 919 
Q 2791 519 3081 209 
L 2475 -372 
Q 2219 -59 1928 266 
Q 1375 -388 581 -866 
Q 350 -484 56 -91 
Q 856 300 1366 872 
Q 1013 1241 619 1628 
L 1169 2122 
z
M 4713 1772 
Q 5038 2481 5147 3534 
L 4256 3534 
Q 4378 2525 4713 1772 
z
M 200 4553 
L 1388 4553 
Q 1294 4847 1163 5178 
L 2000 5359 
Q 2163 4922 2259 4553 
L 3325 4553 
L 3325 3778 
L 200 3778 
L 200 4553 
z
M 950 3609 
L 1663 3272 
Q 1200 2441 625 1872 
Q 269 2284 75 2466 
Q 588 2984 950 3609 
z
" transform="scale(0.015625)"/>
     <path id="MicrosoftYaHei-Bold-5e94" d="M 1438 2491 
Q 1438 119 794 -866 
Q 506 -597 88 -266 
Q 619 622 613 2603 
L 613 4566 
L 3009 4566 
Q 2894 4853 2781 5116 
L 3788 5353 
Q 3928 5016 4103 4566 
L 6225 4566 
L 6225 3797 
L 1438 3797 
L 1438 2491 
z
M 3013 3309 
L 3794 3541 
Q 4125 2678 4513 1316 
L 3669 1084 
Q 3300 2416 3013 3309 
z
M 1325 316 
L 4300 316 
Q 4681 1541 5200 3453 
L 6069 3228 
Q 5744 2006 5184 316 
L 6250 316 
L 6250 -553 
L 1325 -553 
L 1325 316 
z
M 1475 2984 
L 2225 3303 
Q 2775 2103 3244 828 
L 2406 516 
Q 2006 1684 1475 2984 
z
" transform="scale(0.015625)"/>
     <path id="MicrosoftYaHei-Bold-b7" d="M 1406 2959 
Q 1769 2959 2028 2700 
Q 2288 2441 2288 2078 
Q 2288 1713 2028 1455 
Q 1769 1197 1406 1197 
Q 1041 1197 783 1455 
Q 525 1713 525 2078 
Q 525 2441 783 2700 
Q 1041 2959 1406 2959 
z
" transform="scale(0.015625)"/>
     <path id="MicrosoftYaHei-Bold-626c" d="M 144 4153 
L 813 4153 
L 813 5272 
L 1613 5272 
L 1613 4153 
L 2125 4153 
L 2125 3353 
L 1613 3353 
L 1613 2622 
L 2113 2778 
Q 2081 2247 2088 1928 
L 1613 1775 
L 1613 -47 
Q 1613 -322 1505 -490 
Q 1397 -659 1209 -712 
Q 1022 -766 300 -784 
Q 256 -366 156 66 
Q 341 47 509 47 
Q 688 47 750 114 
Q 813 181 813 341 
L 813 1509 
L 138 1284 
L 88 2184 
Q 416 2269 813 2381 
L 813 3353 
L 144 3353 
L 144 4153 
z
M 3869 3066 
L 6113 3066 
Q 6113 2206 6081 1276 
Q 6050 347 6019 136 
Q 5988 -75 5889 -253 
Q 5791 -431 5633 -542 
Q 5475 -653 5322 -681 
Q 5169 -709 4294 -747 
Q 4256 -384 4134 113 
Q 3778 -403 3300 -803 
Q 2938 -522 2544 -266 
Q 3875 697 4222 2316 
L 3722 2316 
Q 3369 1016 2225 59 
Q 1844 466 1619 691 
Q 2616 1378 2934 2316 
L 2369 2316 
L 2369 3028 
L 4231 4266 
L 2363 4266 
L 2363 5016 
L 5700 5016 
L 5700 4297 
L 3869 3066 
z
M 5325 2316 
L 5000 2316 
Q 4769 1053 4159 150 
Q 4456 128 4694 128 
Q 5194 128 5241 517 
Q 5288 906 5325 2316 
z
" transform="scale(0.015625)"/>
     <path id="MicrosoftYaHei-Bold-8bf4" d="M 4781 5347 
Q 4950 5278 5675 5022 
L 5022 4059 
L 5819 4059 
L 5819 1534 
L 5006 1534 
L 5006 278 
Q 5006 22 5156 22 
L 5288 22 
Q 5394 22 5439 189 
Q 5484 356 5525 891 
Q 5925 722 6325 578 
Q 6253 122 6186 -181 
Q 6119 -484 5906 -634 
Q 5694 -784 5338 -784 
L 4950 -784 
Q 4144 -784 4144 22 
L 4144 1534 
L 3719 1534 
Q 3684 419 3370 -62 
Q 3056 -544 2231 -884 
Q 2013 -553 1700 -166 
Q 2366 128 2600 425 
Q 2834 722 2859 1534 
L 2100 1534 
L 2100 4059 
L 2972 4059 
Q 2675 4531 2356 4953 
L 3031 5353 
Q 3294 5041 3756 4391 
Q 3478 4244 3194 4059 
L 4122 4059 
Q 4478 4681 4781 5347 
z
M 4969 2366 
L 4969 3228 
L 2950 3228 
L 2950 2366 
L 4969 2366 
z
M 956 5353 
Q 1394 4884 1906 4278 
Q 1506 3984 1200 3728 
Q 781 4291 325 4859 
L 956 5353 
z
M 2044 1334 
Q 2094 966 2200 478 
Q 1394 -159 944 -659 
L 506 -41 
Q 644 134 644 472 
L 644 2503 
L 94 2503 
L 94 3353 
L 1488 3353 
L 1488 903 
Q 1725 1103 2044 1334 
z
" transform="scale(0.015625)"/>
     <path id="MicrosoftYaHei-Bold-6df1" d="M 694 5297 
Q 1288 4928 1869 4497 
L 1313 3859 
Q 844 4272 175 4741 
L 694 5297 
z
M 1925 3634 
L 1925 5003 
L 6056 5003 
L 6056 3634 
L 5250 3634 
L 5250 4278 
L 2731 4278 
L 2731 3634 
L 1925 3634 
z
M 3825 3447 
Q 3075 2841 2419 2397 
L 1906 2984 
Q 2638 3422 3269 3978 
L 3825 3447 
z
M 4175 3447 
L 4694 3972 
Q 5481 3428 6081 2972 
L 5550 2384 
Q 4869 2947 4175 3447 
z
M 625 3634 
Q 1231 3209 1738 2784 
L 1150 2134 
Q 738 2541 81 3047 
L 625 3634 
z
M 6188 1447 
L 4716 1447 
Q 5353 694 6331 316 
Q 6100 -47 5844 -491 
Q 4972 9 4406 828 
L 4406 -834 
L 3569 -834 
L 3569 878 
Q 2991 78 2081 -566 
Q 1863 -184 1606 178 
Q 2516 684 3203 1447 
L 1850 1447 
L 1850 2172 
L 3569 2172 
L 3569 2997 
L 4406 2997 
L 4406 2172 
L 6188 2172 
L 6188 1447 
z
M 900 1872 
Q 1281 1684 1719 1547 
Q 1275 172 988 -834 
Q 544 -666 138 -541 
Q 506 416 900 1872 
z
" transform="scale(0.015625)"/>
     <path id="MicrosoftYaHei-Bold-5ea6" d="M 5656 1697 
L 5656 1022 
Q 5156 447 4656 97 
Q 5344 -34 6306 -66 
Q 6119 -428 5938 -822 
Q 4556 -653 3719 -353 
Q 2825 -653 1494 -872 
Q 1338 -522 1088 -178 
Q 2100 -128 2888 78 
Q 2369 453 1938 1022 
L 1538 1022 
L 1538 1697 
L 5656 1697 
z
M 1325 2478 
Q 1338 134 700 -884 
Q 356 -553 19 -297 
Q 550 697 525 2591 
L 525 4772 
L 3013 4772 
Q 2944 4953 2831 5209 
L 3869 5359 
Q 3981 5072 4094 4772 
L 6256 4772 
L 6256 4072 
L 1325 4072 
L 1325 2478 
z
M 1463 3684 
L 2144 3684 
L 2144 3947 
L 2944 3947 
L 2944 3684 
L 4494 3684 
L 4494 3947 
L 5294 3947 
L 5294 3684 
L 6144 3684 
L 6144 3009 
L 5294 3009 
L 5294 1991 
L 2144 1991 
L 2144 3009 
L 1463 3009 
L 1463 3684 
z
M 3756 378 
Q 4325 641 4725 1022 
L 2825 1022 
Q 3225 622 3756 378 
z
M 4494 2628 
L 4494 3009 
L 2944 3009 
L 2944 2628 
L 4494 2628 
z
" transform="scale(0.015625)"/>
    </defs>
    <use xlink:href="#MicrosoftYaHei-Bold-53"/>
    <use xlink:href="#MicrosoftYaHei-Bold-70" transform="translate(60.15625 0)"/>
    <use xlink:href="#MicrosoftYaHei-Bold-61" transform="translate(125.632812 0)"/>
    <use xlink:href="#MicrosoftYaHei-Bold-63" transform="translate(183.396484 0)"/>
    <use xlink:href="#MicrosoftYaHei-Bold-65" transform="translate(235.056641 0)"/>
    <use xlink:href="#MicrosoftYaHei-Bold-58" transform="translate(293.259766 0)"/>
    <use xlink:href="#MicrosoftYaHei-Bold-8679" transform="translate(363.279297 0)"/>
    <use xlink:href="#MicrosoftYaHei-Bold-5438" transform="translate(463.279297 0)"/>
    <use xlink:href="#MicrosoftYaHei-Bold-6548" transform="translate(563.279297 0)"/>
    <use xlink:href="#MicrosoftYaHei-Bold-5e94" transform="translate(663.279297 0)"/>
    <use xlink:href="#MicrosoftYaHei-Bold-20" transform="translate(763.279297 0)"/>
    <use xlink:href="#MicrosoftYaHei-Bold-b7" transform="translate(793.064453 0)"/>
    <use xlink:href="#MicrosoftYaHei-Bold-20" transform="translate(837.009766 0)"/>
    <use xlink:href="#MicrosoftYaHei-Bold-626c" transform="translate(866.794922 0)"/>
    <use xlink:href="#MicrosoftYaHei-Bold-8bf4" transform="translate(966.794922 0)"/>
    <use xlink:href="#MicrosoftYaHei-Bold-6df1" transform="translate(1066.794922 0)"/>
    <use xlink:href="#MicrosoftYaHei-Bold-5ea6" transform="translate(1166.794922 0)"/>
   </g>
  </g>
 </g>
 <defs>
  <clipPath id="p384d93d07b">
   <rect x="52.582969" y="50.671562" width="383.04" height="176.4"/>
  </clipPath>
 </defs>
</svg>
