<?xml version="1.0" encoding="utf-8" standalone="no"?>
<!DOCTYPE svg PUBLIC "-//W3C//DTD SVG 1.1//EN"
  "http://www.w3.org/Graphics/SVG/1.1/DTD/svg11.dtd">
<svg xmlns:xlink="http://www.w3.org/1999/xlink" width="437.335938pt" height="280.541187pt" viewBox="0 0 437.335938 280.541187" xmlns="http://www.w3.org/2000/svg" version="1.1">
 <metadata>
  <rdf:RDF xmlns:dc="http://purl.org/dc/elements/1.1/" xmlns:cc="http://creativecommons.org/ns#" xmlns:rdf="http://www.w3.org/1999/02/22-rdf-syntax-ns#">
   <cc:Work>
    <dc:type rdf:resource="http://purl.org/dc/dcmitype/StillImage"/>
    <dc:date>2026-06-14T11:00:42.563760</dc:date>
    <dc:format>image/svg+xml</dc:format>
    <dc:creator>
     <cc:Agent>
      <dc:title>Matplotlib v3.10.9, https://matplotlib.org/</dc:title>
     </cc:Agent>
    </dc:creator>
   </cc:Work>
  </rdf:RDF>
 </metadata>
 <defs>
  <style type="text/css">*{stroke-linejoin: round; stroke-linecap: butt}</style>
 </defs>
 <g id="figure_1">
  <g id="patch_1">
   <path d="M 0 280.541187 
L 437.335938 280.541187 
L 437.335938 0 
L 0 0 
z
" style="fill: #ffffff"/>
  </g>
  <g id="axes_1">
   <g id="patch_2">
    <path d="M 73.735938 250.589187 
L 426.535937 250.589187 
L 426.535937 53.597188 
L 73.735938 53.597188 
z
" style="fill: #ffffff"/>
   </g>
   <g id="patch_3">
    <path d="M 73.735938 241.635006 
L 352.262253 241.635006 
L 352.262253 219.987533 
L 73.735938 219.987533 
z
" clip-path="url(#p8a4811b884)" style="fill: #3b82f6; stroke: #ffffff; stroke-width: 0.5; stroke-linejoin: miter"/>
   </g>
   <g id="patch_4">
    <path d="M 73.735938 202.275965 
L 168.806253 202.275965 
L 168.806253 180.628492 
L 73.735938 180.628492 
z
" clip-path="url(#p8a4811b884)" style="fill: #d97706; stroke: #ffffff; stroke-width: 0.5; stroke-linejoin: miter"/>
   </g>
   <g id="patch_5">
    <path d="M 73.735938 162.916924 
L 166.578043 162.916924 
L 166.578043 141.269451 
L 73.735938 141.269451 
z
" clip-path="url(#p8a4811b884)" style="fill: #ef4444; stroke: #ffffff; stroke-width: 0.5; stroke-linejoin: miter"/>
   </g>
   <g id="patch_6">
    <path d="M 73.735938 123.557883 
L 142.067727 123.557883 
L 142.067727 101.91041 
L 73.735938 101.91041 
z
" clip-path="url(#p8a4811b884)" style="fill: #8b5cf6; stroke: #ffffff; stroke-width: 0.5; stroke-linejoin: miter"/>
   </g>
   <g id="patch_7">
    <path d="M 73.735938 84.198842 
L 103.81678 84.198842 
L 103.81678 62.551369 
L 73.735938 62.551369 
z
" clip-path="url(#p8a4811b884)" style="fill: #94a3b8; stroke: #ffffff; stroke-width: 0.5; stroke-linejoin: miter"/>
   </g>
   <g id="matplotlib.axis_1"/>
   <g id="matplotlib.axis_2">
    <g id="ytick_1">
     <g id="line2d_1">
      <path d="M 73.735938 230.811269 
L 426.535937 230.811269 
" clip-path="url(#p8a4811b884)" style="fill: none; stroke: #e2e8f0; stroke-opacity: 0.6; stroke-width: 0.5; stroke-linecap: square"/>
     </g>
     <g id="text_1">
      <!-- SpaceX -->
      <g style="fill: #64748b" transform="translate(33.907813 229.568301) scale(0.1 -0.1)">
       <defs>
        <path id="MicrosoftYaHei-Bold-53" d="M 338 1219 
Q 922 734 1666 734 
Q 2088 734 2300 879 
Q 2513 1025 2513 1253 
Q 2513 1450 2344 1625 
Q 2175 1800 1453 2100 
Q 319 2581 319 3500 
Q 319 4175 833 4548 
Q 1347 4922 2194 4922 
Q 2903 4922 3384 4738 
L 3384 3769 
Q 2897 4100 2244 4100 
Q 1863 4100 1634 3961 
Q 1406 3822 1406 3588 
Q 1406 3400 1562 3242 
Q 1719 3084 2334 2816 
Q 3056 2506 3326 2162 
Q 3597 1819 3597 1344 
Q 3597 647 3103 281 
Q 2609 -84 1700 -84 
Q 869 -84 338 184 
L 338 1219 
z
" transform="scale(0.015625)"/>
        <path id="MicrosoftYaHei-Bold-70" d="M 1469 416 
L 1469 -1591 
L 459 -1591 
L 459 3456 
L 1469 3456 
L 1469 2928 
L 1481 2928 
Q 1878 3541 2603 3541 
Q 3263 3541 3634 3080 
Q 4006 2619 4006 1825 
Q 4006 959 3575 437 
Q 3144 -84 2444 -84 
Q 1809 -84 1481 416 
L 1469 416 
z
M 1453 1528 
Q 1453 1159 1653 925 
Q 1853 691 2172 691 
Q 2550 691 2761 984 
Q 2972 1278 2972 1816 
Q 2972 2766 2231 2766 
Q 1888 2766 1670 2503 
Q 1453 2241 1453 1828 
L 1453 1528 
z
" transform="scale(0.015625)"/>
        <path id="MicrosoftYaHei-Bold-61" d="M 544 3247 
Q 778 3378 1170 3459 
Q 1563 3541 1841 3541 
Q 3291 3541 3291 2088 
L 3291 0 
L 2331 0 
L 2331 503 
L 2319 503 
Q 1966 -84 1284 -84 
Q 794 -84 498 195 
Q 203 475 203 956 
Q 203 1950 1388 2113 
L 2338 2241 
Q 2338 2844 1709 2844 
Q 1091 2844 544 2469 
L 544 3247 
z
M 1684 1566 
Q 1138 1494 1138 1072 
Q 1138 878 1270 759 
Q 1403 641 1628 641 
Q 1938 641 2138 859 
Q 2338 1078 2338 1403 
L 2338 1650 
L 1684 1566 
z
" transform="scale(0.015625)"/>
        <path id="MicrosoftYaHei-Bold-63" d="M 3050 128 
Q 2688 -84 2019 -84 
Q 1228 -84 740 397 
Q 253 878 253 1644 
Q 253 2525 778 3033 
Q 1303 3541 2178 3541 
Q 2769 3541 3053 3378 
L 3053 2513 
Q 2706 2766 2297 2766 
Q 1834 2766 1554 2484 
Q 1275 2203 1275 1713 
Q 1275 1238 1540 964 
Q 1806 691 2263 691 
Q 2666 691 3050 947 
L 3050 128 
z
" transform="scale(0.015625)"/>
        <path id="MicrosoftYaHei-Bold-65" d="M 3528 1444 
L 1253 1444 
Q 1306 641 2222 641 
Q 2794 641 3231 922 
L 3231 181 
Q 2759 -84 1994 -84 
Q 1169 -84 711 381 
Q 253 847 253 1678 
Q 253 2506 740 3023 
Q 1228 3541 1966 3541 
Q 2700 3541 3114 3095 
Q 3528 2650 3528 1872 
L 3528 1444 
z
M 2588 2075 
Q 2588 2850 1959 2850 
Q 1700 2850 1500 2637 
Q 1300 2425 1250 2075 
L 2588 2075 
z
" transform="scale(0.015625)"/>
        <path id="MicrosoftYaHei-Bold-58" d="M 4447 0 
L 3222 0 
L 2353 1606 
Q 2306 1694 2256 1922 
L 2244 1922 
Q 2219 1809 2131 1597 
L 1259 0 
L 25 0 
L 1578 2422 
L 159 4841 
L 1416 4841 
L 2138 3359 
Q 2225 3178 2288 2959 
L 2300 2959 
Q 2366 3156 2459 3375 
L 3256 4841 
L 4409 4841 
L 2947 2441 
L 4447 0 
z
" transform="scale(0.015625)"/>
       </defs>
       <use xlink:href="#MicrosoftYaHei-Bold-53"/>
       <use xlink:href="#MicrosoftYaHei-Bold-70" transform="translate(60.15625 0)"/>
       <use xlink:href="#MicrosoftYaHei-Bold-61" transform="translate(125.632812 0)"/>
       <use xlink:href="#MicrosoftYaHei-Bold-63" transform="translate(183.396484 0)"/>
       <use xlink:href="#MicrosoftYaHei-Bold-65" transform="translate(235.056641 0)"/>
       <use xlink:href="#MicrosoftYaHei-Bold-58" transform="translate(293.259766 0)"/>
      </g>
      <!-- (2026) -->
      <g style="fill: #64748b" transform="translate(37.773438 241.646738) scale(0.1 -0.1)">
       <defs>
        <path id="MicrosoftYaHei-Bold-28" d="M 1606 -1100 
Q 525 97 525 1853 
Q 525 3550 1606 4841 
L 2431 4841 
Q 1406 3497 1406 1853 
Q 1406 216 2438 -1100 
L 1606 -1100 
z
" transform="scale(0.015625)"/>
        <path id="MicrosoftYaHei-Bold-32" d="M 1500 841 
L 3553 841 
L 3553 0 
L 334 0 
L 334 359 
Q 334 738 473 1050 
Q 613 1363 856 1633 
Q 1100 1903 1613 2266 
Q 2081 2616 2268 2886 
Q 2456 3156 2456 3459 
Q 2456 4113 1744 4113 
Q 1119 4113 550 3613 
L 550 4513 
Q 1184 4922 1975 4922 
Q 2700 4922 3122 4551 
Q 3544 4181 3544 3531 
Q 3544 3169 3422 2876 
Q 3300 2584 3069 2328 
Q 2838 2072 2328 1713 
Q 1838 1363 1669 1172 
Q 1500 981 1500 841 
z
" transform="scale(0.015625)"/>
        <path id="MicrosoftYaHei-Bold-30" d="M 244 2341 
Q 244 3597 706 4259 
Q 1169 4922 2044 4922 
Q 3713 4922 3713 2453 
Q 3713 1238 3259 577 
Q 2806 -84 1950 -84 
Q 244 -84 244 2341 
z
M 1266 2366 
Q 1266 691 1981 691 
Q 2684 691 2684 2416 
Q 2684 4147 2000 4147 
Q 1266 4147 1266 2366 
z
" transform="scale(0.015625)"/>
        <path id="MicrosoftYaHei-Bold-36" d="M 3378 3938 
Q 3009 4147 2575 4147 
Q 2016 4147 1680 3708 
Q 1344 3269 1344 2572 
L 1363 2572 
Q 1709 3103 2391 3103 
Q 3000 3103 3358 2686 
Q 3716 2269 3716 1600 
Q 3716 869 3250 392 
Q 2784 -84 2059 -84 
Q 1228 -84 786 516 
Q 344 1116 344 2159 
Q 344 3388 917 4155 
Q 1491 4922 2513 4922 
Q 3063 4922 3378 4791 
L 3378 3938 
z
M 1378 1591 
Q 1378 1216 1565 953 
Q 1753 691 2059 691 
Q 2369 691 2547 931 
Q 2725 1172 2725 1534 
Q 2725 2350 2053 2350 
Q 1750 2350 1564 2134 
Q 1378 1919 1378 1591 
z
" transform="scale(0.015625)"/>
        <path id="MicrosoftYaHei-Bold-29" d="M 59 -1100 
Q 1097 216 1097 1853 
Q 1097 3484 59 4841 
L 888 4841 
Q 1978 3544 1978 1853 
Q 1978 113 881 -1100 
L 59 -1100 
z
" transform="scale(0.015625)"/>
       </defs>
       <use xlink:href="#MicrosoftYaHei-Bold-28"/>
       <use xlink:href="#MicrosoftYaHei-Bold-32" transform="translate(38.964844 0)"/>
       <use xlink:href="#MicrosoftYaHei-Bold-30" transform="translate(100.634766 0)"/>
       <use xlink:href="#MicrosoftYaHei-Bold-32" transform="translate(162.304688 0)"/>
       <use xlink:href="#MicrosoftYaHei-Bold-36" transform="translate(223.974609 0)"/>
       <use xlink:href="#MicrosoftYaHei-Bold-29" transform="translate(285.644531 0)"/>
      </g>
     </g>
    </g>
    <g id="ytick_2">
     <g id="line2d_2">
      <path d="M 73.735938 191.452228 
L 426.535937 191.452228 
" clip-path="url(#p8a4811b884)" style="fill: none; stroke: #e2e8f0; stroke-opacity: 0.6; stroke-width: 0.5; stroke-linecap: square"/>
     </g>
     <g id="text_2">
      <!-- 沙特阿美 -->
      <g style="fill: #64748b" transform="translate(30.235938 190.20926) scale(0.1 -0.1)">
       <defs>
        <path id="MicrosoftYaHei-Bold-6c99" d="M 5256 2466 
L 5988 1972 
Q 4538 -134 2119 -866 
Q 1825 -428 1550 -72 
Q 3181 422 4238 1316 
L 3500 1316 
L 3500 5328 
L 4394 5328 
L 4394 1450 
Q 4894 1909 5256 2466 
z
M 700 5328 
L 1913 4441 
L 1338 3778 
Q 850 4216 163 4716 
L 700 5328 
z
M 5238 4609 
Q 6000 3472 6381 2759 
L 5650 2303 
Q 5156 3259 4556 4228 
L 5238 4609 
z
M 2525 4391 
L 3281 4128 
Q 2894 3034 2363 1766 
L 1575 2116 
Q 2194 3416 2525 4391 
z
M 638 3678 
Q 1225 3278 1750 2828 
L 1163 2178 
Q 750 2584 94 3091 
L 638 3678 
z
M 956 1947 
Q 1369 1747 1775 1622 
L 1000 -759 
Q 556 -591 150 -466 
Q 663 841 956 1947 
z
" transform="scale(0.015625)"/>
        <path id="MicrosoftYaHei-Bold-7279" d="M 206 922 
L 94 1809 
L 1175 1988 
L 1175 3209 
L 763 3209 
Q 697 2747 606 2316 
Q 369 2466 88 2597 
Q 281 3603 350 4778 
L 919 4722 
Q 897 4359 863 4016 
L 1175 4016 
L 1175 5291 
L 1938 5291 
L 1938 4016 
L 2300 4016 
L 2300 3209 
L 1938 3209 
L 1938 2128 
L 2344 2209 
Q 2319 1859 2331 1372 
L 1938 1297 
L 1938 -834 
L 1175 -834 
L 1175 1144 
Q 663 1034 206 922 
z
M 2363 3309 
L 3863 3309 
L 3863 3828 
L 2613 3828 
L 2613 4578 
L 3863 4578 
L 3863 5291 
L 4725 5291 
L 4725 4578 
L 6013 4578 
L 6013 3828 
L 4725 3828 
L 4725 3309 
L 6306 3309 
L 6306 2559 
L 2363 2559 
L 2363 3309 
z
M 2556 966 
L 2984 1278 
L 2469 1278 
L 2469 2028 
L 4738 2028 
L 4738 2428 
L 5600 2428 
L 5600 2028 
L 6225 2028 
L 6225 1278 
L 5600 1278 
L 5600 347 
Q 5600 -131 5414 -403 
Q 5228 -675 4918 -751 
Q 4609 -828 3681 -828 
Q 3581 -284 3506 -3 
Q 3956 -41 4281 -41 
Q 4738 -41 4738 491 
L 4738 1278 
L 3278 1278 
Q 3628 913 3981 497 
L 3344 3 
Q 2963 522 2556 966 
z
" transform="scale(0.015625)"/>
        <path id="MicrosoftYaHei-Bold-963f" d="M 1938 2891 
Q 2369 2122 2369 1216 
Q 2369 716 2137 433 
Q 1906 150 1238 191 
Q 1188 591 1119 941 
Q 1263 909 1356 909 
Q 1625 909 1625 1266 
Q 1625 2053 1194 2816 
L 1619 4297 
L 1100 4297 
L 1100 -834 
L 350 -834 
L 350 5053 
L 2413 5053 
L 2413 4328 
L 1938 2891 
z
M 2613 4991 
L 6288 4991 
L 6288 4197 
L 5900 4197 
L 5900 422 
Q 5900 -128 5692 -412 
Q 5484 -697 5126 -747 
Q 4769 -797 3806 -791 
Q 3738 -341 3625 66 
Q 4125 41 4531 41 
Q 5075 41 5075 622 
L 5075 4197 
L 2613 4197 
L 2613 4991 
z
M 4663 3528 
L 4663 791 
L 3350 791 
L 3350 447 
L 2613 447 
L 2613 3528 
L 4663 3528 
z
M 3350 2809 
L 3350 1509 
L 3925 1509 
L 3925 2809 
L 3350 2809 
z
" transform="scale(0.015625)"/>
        <path id="MicrosoftYaHei-Bold-7f8e" d="M 150 2566 
L 2756 2566 
L 2756 2922 
L 663 2922 
L 663 3603 
L 2756 3603 
L 2756 3959 
L 288 3959 
L 288 4641 
L 1688 4641 
Q 1553 4934 1406 5178 
L 2300 5353 
Q 2500 5028 2716 4641 
L 3678 4641 
Q 3906 4953 4175 5359 
L 5106 5172 
L 4634 4641 
L 6150 4641 
L 6150 3959 
L 3644 3959 
L 3644 3603 
L 5813 3603 
L 5813 2922 
L 3644 2922 
L 3644 2566 
L 6263 2566 
L 6263 1884 
L 150 1884 
L 150 2566 
z
M 238 1466 
L 2669 1466 
Q 2709 1634 2731 1816 
L 3638 1816 
Q 3613 1634 3575 1466 
L 6200 1466 
L 6200 784 
L 3963 784 
Q 4641 100 6300 -3 
Q 6156 -228 5875 -872 
Q 4031 -688 3197 466 
Q 2519 -644 400 -859 
Q 313 -572 88 -66 
Q 1816 103 2372 784 
L 238 784 
L 238 1466 
z
" transform="scale(0.015625)"/>
       </defs>
       <use xlink:href="#MicrosoftYaHei-Bold-6c99"/>
       <use xlink:href="#MicrosoftYaHei-Bold-7279" transform="translate(100 0)"/>
       <use xlink:href="#MicrosoftYaHei-Bold-963f" transform="translate(200 0)"/>
       <use xlink:href="#MicrosoftYaHei-Bold-7f8e" transform="translate(300 0)"/>
      </g>
      <!-- (2019) -->
      <g style="fill: #64748b" transform="translate(37.773438 202.287697) scale(0.1 -0.1)">
       <defs>
        <path id="MicrosoftYaHei-Bold-31" d="M 2716 4947 
L 2716 0 
L 1700 0 
L 1700 3809 
Q 1513 3647 1188 3517 
Q 863 3388 591 3356 
L 591 4222 
Q 1447 4472 2072 4947 
L 2716 4947 
z
" transform="scale(0.015625)"/>
        <path id="MicrosoftYaHei-Bold-39" d="M 544 941 
Q 931 691 1456 691 
Q 2628 691 2653 2216 
L 2634 2222 
Q 2316 1731 1650 1731 
Q 1047 1731 658 2154 
Q 269 2578 269 3222 
Q 269 3978 737 4450 
Q 1206 4922 1959 4922 
Q 2744 4922 3191 4325 
Q 3638 3728 3638 2659 
Q 3638 1391 3098 653 
Q 2559 -84 1547 -84 
Q 975 -84 544 100 
L 544 941 
z
M 1259 3313 
Q 1259 2928 1445 2709 
Q 1631 2491 1953 2491 
Q 2241 2491 2427 2700 
Q 2613 2909 2613 3219 
Q 2613 3591 2427 3869 
Q 2241 4147 1928 4147 
Q 1625 4147 1442 3906 
Q 1259 3666 1259 3313 
z
" transform="scale(0.015625)"/>
       </defs>
       <use xlink:href="#MicrosoftYaHei-Bold-28"/>
       <use xlink:href="#MicrosoftYaHei-Bold-32" transform="translate(38.964844 0)"/>
       <use xlink:href="#MicrosoftYaHei-Bold-30" transform="translate(100.634766 0)"/>
       <use xlink:href="#MicrosoftYaHei-Bold-31" transform="translate(162.304688 0)"/>
       <use xlink:href="#MicrosoftYaHei-Bold-39" transform="translate(223.974609 0)"/>
       <use xlink:href="#MicrosoftYaHei-Bold-29" transform="translate(285.644531 0)"/>
      </g>
     </g>
    </g>
    <g id="ytick_3">
     <g id="line2d_3">
      <path d="M 73.735938 152.093187 
L 426.535937 152.093187 
" clip-path="url(#p8a4811b884)" style="fill: none; stroke: #e2e8f0; stroke-opacity: 0.6; stroke-width: 0.5; stroke-linecap: square"/>
     </g>
     <g id="text_3">
      <!-- 阿里巴巴 -->
      <g style="fill: #64748b" transform="translate(30.235938 150.850219) scale(0.1 -0.1)">
       <defs>
        <path id="MicrosoftYaHei-Bold-91cc" d="M 150 141 
L 2763 141 
L 2763 603 
L 450 603 
L 450 1353 
L 2763 1353 
L 2763 1797 
L 588 1797 
L 588 5103 
L 5813 5103 
L 5813 1797 
L 3638 1797 
L 3638 1353 
L 5950 1353 
L 5950 603 
L 3638 603 
L 3638 141 
L 6250 141 
L 6250 -634 
L 150 -634 
L 150 141 
z
M 4950 4391 
L 3638 4391 
L 3638 3778 
L 4950 3778 
L 4950 4391 
z
M 1450 3778 
L 2763 3778 
L 2763 4391 
L 1450 4391 
L 1450 3778 
z
M 4950 2509 
L 4950 3122 
L 3638 3122 
L 3638 2509 
L 4950 2509 
z
M 1450 2509 
L 2763 2509 
L 2763 3122 
L 1450 3122 
L 1450 2509 
z
" transform="scale(0.015625)"/>
        <path id="MicrosoftYaHei-Bold-5df4" d="M 588 4941 
L 5750 4941 
L 5750 1778 
L 1488 1778 
L 1488 741 
Q 1488 141 2088 141 
L 4531 141 
Q 4941 141 5102 308 
Q 5263 475 5319 1447 
Q 5875 1222 6275 1084 
Q 6169 472 6075 79 
Q 5981 -313 5681 -514 
Q 5381 -716 4875 -716 
L 1900 -716 
Q 588 -716 588 653 
L 588 4941 
z
M 4850 4091 
L 3619 4091 
L 3619 2622 
L 4850 2622 
L 4850 4091 
z
M 1488 2622 
L 2719 2622 
L 2719 4091 
L 1488 4091 
L 1488 2622 
z
" transform="scale(0.015625)"/>
       </defs>
       <use xlink:href="#MicrosoftYaHei-Bold-963f"/>
       <use xlink:href="#MicrosoftYaHei-Bold-91cc" transform="translate(100 0)"/>
       <use xlink:href="#MicrosoftYaHei-Bold-5df4" transform="translate(200 0)"/>
       <use xlink:href="#MicrosoftYaHei-Bold-5df4" transform="translate(300 0)"/>
      </g>
      <!-- (2014) -->
      <g style="fill: #64748b" transform="translate(37.773438 162.928656) scale(0.1 -0.1)">
       <defs>
        <path id="MicrosoftYaHei-Bold-34" d="M 3184 4841 
L 3184 1766 
L 3869 1766 
L 3869 1031 
L 3184 1031 
L 3184 0 
L 2266 0 
L 2266 1031 
L 103 1031 
L 103 1772 
Q 775 2522 1362 3359 
Q 1950 4197 2250 4841 
L 3184 4841 
z
M 997 1766 
L 2266 1766 
L 2266 3541 
Q 2116 3259 1836 2859 
Q 1556 2459 997 1766 
z
" transform="scale(0.015625)"/>
       </defs>
       <use xlink:href="#MicrosoftYaHei-Bold-28"/>
       <use xlink:href="#MicrosoftYaHei-Bold-32" transform="translate(38.964844 0)"/>
       <use xlink:href="#MicrosoftYaHei-Bold-30" transform="translate(100.634766 0)"/>
       <use xlink:href="#MicrosoftYaHei-Bold-31" transform="translate(162.304688 0)"/>
       <use xlink:href="#MicrosoftYaHei-Bold-34" transform="translate(223.974609 0)"/>
       <use xlink:href="#MicrosoftYaHei-Bold-29" transform="translate(285.644531 0)"/>
      </g>
     </g>
    </g>
    <g id="ytick_4">
     <g id="line2d_4">
      <path d="M 73.735938 112.734147 
L 426.535937 112.734147 
" clip-path="url(#p8a4811b884)" style="fill: none; stroke: #e2e8f0; stroke-opacity: 0.6; stroke-width: 0.5; stroke-linecap: square"/>
     </g>
     <g id="text_4">
      <!-- NTT Mobile -->
      <g style="fill: #64748b" transform="translate(10.8 111.491178) scale(0.1 -0.1)">
       <defs>
        <path id="MicrosoftYaHei-Bold-4e" d="M 4863 0 
L 3806 0 
L 1756 3131 
Q 1597 3375 1525 3525 
L 1509 3525 
Q 1538 3275 1538 2753 
L 1538 0 
L 559 0 
L 559 4841 
L 1684 4841 
L 3659 1797 
Q 3856 1494 3900 1413 
L 3916 1413 
Q 3884 1588 3884 2081 
L 3884 4841 
L 4863 4841 
L 4863 0 
z
" transform="scale(0.015625)"/>
        <path id="MicrosoftYaHei-Bold-54" d="M 3900 3997 
L 2519 3997 
L 2519 0 
L 1484 0 
L 1484 3997 
L 106 3997 
L 106 4841 
L 3900 4841 
L 3900 3997 
z
" transform="scale(0.015625)"/>
        <path id="MicrosoftYaHei-Bold-20" transform="scale(0.015625)"/>
        <path id="MicrosoftYaHei-Bold-4d" d="M 4991 0 
L 4991 2938 
Q 4991 3344 5031 3959 
L 5006 3959 
Q 4913 3494 4856 3338 
L 3663 0 
L 2841 0 
L 1631 3306 
Q 1588 3425 1478 3959 
L 1450 3959 
Q 1491 3350 1491 2738 
L 1491 0 
L 559 0 
L 559 4841 
L 2059 4841 
L 3103 1916 
Q 3234 1553 3281 1234 
L 3303 1234 
Q 3400 1631 3503 1922 
L 4550 4841 
L 6009 4841 
L 6009 0 
L 4991 0 
z
" transform="scale(0.015625)"/>
        <path id="MicrosoftYaHei-Bold-6f" d="M 253 1713 
Q 253 2566 764 3053 
Q 1275 3541 2138 3541 
Q 2972 3541 3462 3061 
Q 3953 2581 3953 1772 
Q 3953 922 3450 419 
Q 2947 -84 2088 -84 
Q 1244 -84 748 398 
Q 253 881 253 1713 
z
M 1275 1725 
Q 1275 691 2119 691 
Q 2928 691 2928 1753 
Q 2928 2766 2113 2766 
Q 1716 2766 1495 2494 
Q 1275 2222 1275 1725 
z
" transform="scale(0.015625)"/>
        <path id="MicrosoftYaHei-Bold-62" d="M 1469 416 
L 1469 0 
L 459 0 
L 459 5116 
L 1469 5116 
L 1469 2928 
L 1481 2928 
Q 1878 3541 2613 3541 
Q 3266 3541 3636 3084 
Q 4006 2628 4006 1825 
Q 4006 966 3581 441 
Q 3156 -84 2453 -84 
Q 1809 -84 1481 416 
L 1469 416 
z
M 1453 1494 
Q 1453 1153 1656 922 
Q 1859 691 2172 691 
Q 2550 691 2761 984 
Q 2972 1278 2972 1816 
Q 2972 2263 2780 2514 
Q 2588 2766 2231 2766 
Q 1894 2766 1673 2512 
Q 1453 2259 1453 1863 
L 1453 1494 
z
" transform="scale(0.015625)"/>
        <path id="MicrosoftYaHei-Bold-69" d="M 369 4572 
Q 369 4803 533 4948 
Q 697 5094 953 5094 
Q 1216 5094 1378 4945 
Q 1541 4797 1541 4572 
Q 1541 4344 1375 4192 
Q 1209 4041 953 4041 
Q 700 4041 534 4194 
Q 369 4347 369 4572 
z
M 444 0 
L 444 3456 
L 1450 3456 
L 1450 0 
L 444 0 
z
" transform="scale(0.015625)"/>
        <path id="MicrosoftYaHei-Bold-6c" d="M 444 0 
L 444 5116 
L 1450 5116 
L 1450 0 
L 444 0 
z
" transform="scale(0.015625)"/>
       </defs>
       <use xlink:href="#MicrosoftYaHei-Bold-4e"/>
       <use xlink:href="#MicrosoftYaHei-Bold-54" transform="translate(84.814453 0)"/>
       <use xlink:href="#MicrosoftYaHei-Bold-54" transform="translate(149.488281 0)"/>
       <use xlink:href="#MicrosoftYaHei-Bold-20" transform="translate(212.037109 0)"/>
       <use xlink:href="#MicrosoftYaHei-Bold-4d" transform="translate(241.822266 0)"/>
       <use xlink:href="#MicrosoftYaHei-Bold-6f" transform="translate(344.654297 0)"/>
       <use xlink:href="#MicrosoftYaHei-Bold-62" transform="translate(410.376953 0)"/>
       <use xlink:href="#MicrosoftYaHei-Bold-69" transform="translate(476.978516 0)"/>
       <use xlink:href="#MicrosoftYaHei-Bold-6c" transform="translate(506.568359 0)"/>
       <use xlink:href="#MicrosoftYaHei-Bold-65" transform="translate(536.158203 0)"/>
      </g>
      <!-- (1998) -->
      <g style="fill: #64748b" transform="translate(37.773438 123.569615) scale(0.1 -0.1)">
       <defs>
        <path id="MicrosoftYaHei-Bold-38" d="M 269 1303 
Q 269 1725 512 2053 
Q 756 2381 1219 2534 
Q 850 2719 648 3003 
Q 447 3288 447 3634 
Q 447 3997 645 4292 
Q 844 4588 1200 4755 
Q 1556 4922 1997 4922 
Q 2441 4922 2800 4758 
Q 3159 4594 3359 4298 
Q 3559 4003 3559 3647 
Q 3559 3309 3339 3018 
Q 3119 2728 2747 2559 
Q 3200 2403 3453 2076 
Q 3706 1750 3706 1313 
Q 3706 697 3228 309 
Q 2750 -78 1988 -78 
Q 1225 -78 747 309 
Q 269 697 269 1303 
z
M 1278 1394 
Q 1278 1056 1472 853 
Q 1666 650 1991 650 
Q 2303 650 2503 853 
Q 2703 1056 2703 1394 
Q 2703 1709 2500 1920 
Q 2297 2131 1991 2131 
Q 1675 2131 1476 1920 
Q 1278 1709 1278 1394 
z
M 1428 3531 
Q 1428 3266 1592 3077 
Q 1756 2888 2006 2888 
Q 2247 2888 2415 3072 
Q 2584 3256 2584 3531 
Q 2584 3806 2420 3997 
Q 2256 4188 2006 4188 
Q 1750 4188 1589 3997 
Q 1428 3806 1428 3531 
z
" transform="scale(0.015625)"/>
       </defs>
       <use xlink:href="#MicrosoftYaHei-Bold-28"/>
       <use xlink:href="#MicrosoftYaHei-Bold-31" transform="translate(38.964844 0)"/>
       <use xlink:href="#MicrosoftYaHei-Bold-39" transform="translate(100.634766 0)"/>
       <use xlink:href="#MicrosoftYaHei-Bold-39" transform="translate(162.304688 0)"/>
       <use xlink:href="#MicrosoftYaHei-Bold-38" transform="translate(223.974609 0)"/>
       <use xlink:href="#MicrosoftYaHei-Bold-29" transform="translate(285.644531 0)"/>
      </g>
     </g>
    </g>
    <g id="ytick_5">
     <g id="line2d_5">
      <path d="M 73.735938 73.375106 
L 426.535937 73.375106 
" clip-path="url(#p8a4811b884)" style="fill: none; stroke: #e2e8f0; stroke-opacity: 0.6; stroke-width: 0.5; stroke-linecap: square"/>
     </g>
     <g id="text_5">
      <!-- Uber -->
      <g style="fill: #64748b" transform="translate(45.751563 72.132137) scale(0.1 -0.1)">
       <defs>
        <path id="MicrosoftYaHei-Bold-55" d="M 4466 2081 
Q 4466 -84 2453 -84 
Q 509 -84 509 2025 
L 509 4841 
L 1544 4841 
L 1544 2019 
Q 1544 809 2497 809 
Q 3434 809 3434 1975 
L 3434 4841 
L 4466 4841 
L 4466 2081 
z
" transform="scale(0.015625)"/>
        <path id="MicrosoftYaHei-Bold-72" d="M 2663 2541 
Q 2478 2647 2216 2647 
Q 1872 2647 1670 2384 
Q 1469 2122 1469 1663 
L 1469 0 
L 459 0 
L 459 3456 
L 1469 3456 
L 1469 2806 
L 1481 2806 
Q 1731 3516 2391 3516 
Q 2569 3516 2663 3475 
L 2663 2541 
z
" transform="scale(0.015625)"/>
       </defs>
       <use xlink:href="#MicrosoftYaHei-Bold-55"/>
       <use xlink:href="#MicrosoftYaHei-Bold-62" transform="translate(77.636719 0)"/>
       <use xlink:href="#MicrosoftYaHei-Bold-65" transform="translate(144.238281 0)"/>
       <use xlink:href="#MicrosoftYaHei-Bold-72" transform="translate(202.441406 0)"/>
      </g>
      <!-- (2019) -->
      <g style="fill: #64748b" transform="translate(37.773438 84.210574) scale(0.1 -0.1)">
       <use xlink:href="#MicrosoftYaHei-Bold-28"/>
       <use xlink:href="#MicrosoftYaHei-Bold-32" transform="translate(38.964844 0)"/>
       <use xlink:href="#MicrosoftYaHei-Bold-30" transform="translate(100.634766 0)"/>
       <use xlink:href="#MicrosoftYaHei-Bold-31" transform="translate(162.304688 0)"/>
       <use xlink:href="#MicrosoftYaHei-Bold-39" transform="translate(223.974609 0)"/>
       <use xlink:href="#MicrosoftYaHei-Bold-29" transform="translate(285.644531 0)"/>
      </g>
     </g>
    </g>
   </g>
   <g id="text_6">
    <!-- $75.0B -->
    <g style="fill: #1e293b" transform="translate(356.718674 233.840566) scale(0.11 -0.11)">
     <defs>
      <path id="MicrosoftYaHei-Bold-24" d="M 2253 -706 
L 1775 -706 
L 1775 6 
Q 1072 13 513 316 
L 513 1209 
Q 700 1053 1098 914 
Q 1497 775 1775 766 
L 1775 2050 
Q 1084 2297 757 2645 
Q 431 2994 431 3513 
Q 431 4034 809 4414 
Q 1188 4794 1775 4841 
L 1775 5466 
L 2253 5466 
L 2253 4853 
Q 2947 4822 3300 4631 
L 3300 3756 
Q 2838 4044 2253 4100 
L 2253 2766 
Q 2969 2494 3292 2166 
Q 3616 1838 3616 1334 
Q 3616 784 3253 439 
Q 2891 94 2253 28 
L 2253 -706 
z
M 1775 4088 
Q 1291 3997 1291 3569 
Q 1291 3209 1775 2959 
L 1775 4088 
z
M 2253 781 
Q 2753 859 2753 1288 
Q 2753 1634 2253 1863 
L 2253 781 
z
" transform="scale(0.015625)"/>
      <path id="MicrosoftYaHei-Bold-37" d="M 3675 4225 
Q 3088 3172 2798 2528 
Q 2509 1884 2328 1275 
Q 2147 666 2050 0 
L 966 0 
Q 1122 947 1517 1917 
Q 1913 2888 2609 4009 
L 300 4009 
L 300 4841 
L 3675 4841 
L 3675 4225 
z
" transform="scale(0.015625)"/>
      <path id="MicrosoftYaHei-Bold-35" d="M 541 125 
L 541 997 
Q 1044 691 1613 691 
Q 2041 691 2283 902 
Q 2525 1113 2525 1472 
Q 2525 2225 1494 2225 
Q 1113 2225 616 2169 
L 797 4841 
L 3359 4841 
L 3359 4009 
L 1613 4009 
L 1544 2991 
Q 1803 3013 2022 3013 
Q 2731 3013 3142 2625 
Q 3553 2238 3553 1575 
Q 3553 844 3056 380 
Q 2559 -84 1706 -84 
Q 1016 -84 541 125 
z
" transform="scale(0.015625)"/>
      <path id="MicrosoftYaHei-Bold-2e" d="M 313 453 
Q 313 688 491 838 
Q 669 988 916 988 
Q 1166 988 1337 834 
Q 1509 681 1509 453 
Q 1509 213 1337 64 
Q 1166 -84 903 -84 
Q 659 -84 486 69 
Q 313 222 313 453 
z
" transform="scale(0.015625)"/>
      <path id="MicrosoftYaHei-Bold-42" d="M 559 0 
L 559 4841 
L 2278 4841 
Q 3069 4841 3497 4541 
Q 3925 4241 3925 3709 
Q 3925 3316 3659 3019 
Q 3394 2722 2991 2609 
L 2991 2597 
Q 3497 2534 3808 2221 
Q 4119 1909 4119 1438 
Q 4119 778 3650 389 
Q 3181 0 2369 0 
L 559 0 
z
M 1591 4072 
L 1591 2875 
L 2081 2875 
Q 2434 2875 2637 3044 
Q 2841 3213 2841 3516 
Q 2841 4072 2028 4072 
L 1591 4072 
z
M 1591 2097 
L 1591 769 
L 2203 769 
Q 2594 769 2814 950 
Q 3034 1131 3034 1453 
Q 3034 1759 2815 1928 
Q 2597 2097 2194 2097 
L 1591 2097 
z
" transform="scale(0.015625)"/>
     </defs>
     <use xlink:href="#MicrosoftYaHei-Bold-24"/>
     <use xlink:href="#MicrosoftYaHei-Bold-37" transform="translate(61.669922 0)"/>
     <use xlink:href="#MicrosoftYaHei-Bold-35" transform="translate(123.339844 0)"/>
     <use xlink:href="#MicrosoftYaHei-Bold-2e" transform="translate(185.009766 0)"/>
     <use xlink:href="#MicrosoftYaHei-Bold-30" transform="translate(213.574219 0)"/>
     <use xlink:href="#MicrosoftYaHei-Bold-42" transform="translate(275.244141 0)"/>
    </g>
   </g>
   <g id="text_7">
    <!-- $25.6B -->
    <g style="fill: #1e293b" transform="translate(173.262674 194.481525) scale(0.11 -0.11)">
     <use xlink:href="#MicrosoftYaHei-Bold-24"/>
     <use xlink:href="#MicrosoftYaHei-Bold-32" transform="translate(61.669922 0)"/>
     <use xlink:href="#MicrosoftYaHei-Bold-35" transform="translate(123.339844 0)"/>
     <use xlink:href="#MicrosoftYaHei-Bold-2e" transform="translate(185.009766 0)"/>
     <use xlink:href="#MicrosoftYaHei-Bold-36" transform="translate(213.574219 0)"/>
     <use xlink:href="#MicrosoftYaHei-Bold-42" transform="translate(275.244141 0)"/>
    </g>
   </g>
   <g id="text_8">
    <!-- $25.0B -->
    <g style="fill: #1e293b" transform="translate(171.034464 155.122484) scale(0.11 -0.11)">
     <use xlink:href="#MicrosoftYaHei-Bold-24"/>
     <use xlink:href="#MicrosoftYaHei-Bold-32" transform="translate(61.669922 0)"/>
     <use xlink:href="#MicrosoftYaHei-Bold-35" transform="translate(123.339844 0)"/>
     <use xlink:href="#MicrosoftYaHei-Bold-2e" transform="translate(185.009766 0)"/>
     <use xlink:href="#MicrosoftYaHei-Bold-30" transform="translate(213.574219 0)"/>
     <use xlink:href="#MicrosoftYaHei-Bold-42" transform="translate(275.244141 0)"/>
    </g>
   </g>
   <g id="text_9">
    <!-- $18.4B -->
    <g style="fill: #1e293b" transform="translate(146.524148 115.763443) scale(0.11 -0.11)">
     <use xlink:href="#MicrosoftYaHei-Bold-24"/>
     <use xlink:href="#MicrosoftYaHei-Bold-31" transform="translate(61.669922 0)"/>
     <use xlink:href="#MicrosoftYaHei-Bold-38" transform="translate(123.339844 0)"/>
     <use xlink:href="#MicrosoftYaHei-Bold-2e" transform="translate(185.009766 0)"/>
     <use xlink:href="#MicrosoftYaHei-Bold-34" transform="translate(213.574219 0)"/>
     <use xlink:href="#MicrosoftYaHei-Bold-42" transform="translate(275.244141 0)"/>
    </g>
   </g>
   <g id="text_10">
    <!-- $8.1B -->
    <g style="fill: #1e293b" transform="translate(108.273201 76.404402) scale(0.11 -0.11)">
     <use xlink:href="#MicrosoftYaHei-Bold-24"/>
     <use xlink:href="#MicrosoftYaHei-Bold-38" transform="translate(61.669922 0)"/>
     <use xlink:href="#MicrosoftYaHei-Bold-2e" transform="translate(123.339844 0)"/>
     <use xlink:href="#MicrosoftYaHei-Bold-31" transform="translate(151.904297 0)"/>
     <use xlink:href="#MicrosoftYaHei-Bold-42" transform="translate(213.574219 0)"/>
    </g>
   </g>
  </g>
  <g id="text_11">
   <!-- 史上最大IPO：SpaceX $750亿 vs 所有对手 -->
   <g style="fill: #1e293b" transform="translate(43.495937 22.756875) scale(0.14 -0.14)">
    <defs>
     <path id="MicrosoftYaHei-Bold-53f2" d="M 625 4591 
L 2788 4591 
L 2788 5316 
L 3663 5316 
L 3663 4591 
L 5838 4591 
L 5838 1466 
L 4975 1466 
L 4975 1841 
L 3622 1841 
Q 3528 1078 3216 563 
Q 4444 125 6325 147 
L 5844 -772 
Q 3856 -697 2572 -125 
Q 1872 -644 688 -866 
Q 425 -459 94 -16 
Q 1078 116 1675 394 
Q 1075 847 725 1478 
L 1225 1841 
L 625 1841 
L 625 4591 
z
M 4975 2641 
L 4975 3791 
L 3663 3791 
L 3663 2641 
L 4975 2641 
z
M 1488 2641 
L 2788 2641 
L 2788 3791 
L 1488 3791 
L 1488 2641 
z
M 2738 1841 
L 1453 1841 
Q 1813 1309 2400 947 
Q 2647 1281 2738 1841 
z
" transform="scale(0.015625)"/>
     <path id="MicrosoftYaHei-Bold-4e0a" d="M 181 359 
L 2500 359 
L 2500 5278 
L 3513 5278 
L 3513 3547 
L 5825 3547 
L 5825 2653 
L 3513 2653 
L 3513 359 
L 6231 359 
L 6231 -522 
L 181 -522 
L 181 359 
z
" transform="scale(0.015625)"/>
     <path id="MicrosoftYaHei-Bold-6700" d="M 838 5109 
L 5563 5109 
L 5563 3134 
L 838 3134 
L 838 5109 
z
M 4700 4609 
L 1700 4609 
L 1700 4341 
L 4700 4341 
L 4700 4609 
z
M 4700 3634 
L 4700 3903 
L 1700 3903 
L 1700 3634 
L 4700 3634 
z
M 6038 1909 
L 6038 1328 
Q 5772 741 5366 294 
Q 5794 100 6313 -3 
Q 6156 -266 5938 -766 
Q 5284 -584 4747 -244 
Q 4256 -588 3631 -797 
Q 3534 -644 3363 -341 
Q 3259 -353 3163 -359 
L 3163 -866 
L 2400 -866 
L 2400 -428 
L 250 -641 
L 144 59 
L 613 84 
L 613 2241 
L 94 2241 
L 94 2853 
L 6306 2853 
L 6306 2241 
L 3163 2241 
L 3163 291 
L 3513 328 
Q 3488 169 3472 6 
Q 3819 109 4106 256 
Q 3741 609 3450 1066 
L 3813 1309 
L 3338 1309 
L 3338 1909 
L 6038 1909 
z
M 1375 1891 
L 2400 1891 
L 2400 2241 
L 1375 2241 
L 1375 1891 
z
M 1375 1066 
L 2400 1066 
L 2400 1416 
L 1375 1416 
L 1375 1066 
z
M 4722 672 
Q 5031 950 5238 1309 
L 4088 1309 
Q 4359 944 4722 672 
z
M 2400 219 
L 2400 591 
L 1375 591 
L 1375 138 
L 2400 219 
z
" transform="scale(0.015625)"/>
     <path id="MicrosoftYaHei-Bold-5927" d="M 213 3728 
L 2681 3728 
Q 2725 4409 2719 5303 
L 3669 5303 
Q 3650 4375 3619 3728 
L 6200 3728 
L 6200 2866 
L 3691 2866 
Q 4228 778 6288 59 
Q 5844 -447 5575 -803 
Q 3872 -3 3203 1775 
Q 2684 147 806 -847 
Q 556 -528 100 -47 
Q 2375 984 2591 2866 
L 213 2866 
L 213 3728 
z
" transform="scale(0.015625)"/>
     <path id="MicrosoftYaHei-Bold-49" d="M 1588 4841 
L 1588 0 
L 556 0 
L 556 4841 
L 1588 4841 
z
" transform="scale(0.015625)"/>
     <path id="MicrosoftYaHei-Bold-50" d="M 1591 1688 
L 1591 0 
L 559 0 
L 559 4841 
L 2225 4841 
Q 4031 4841 4031 3309 
Q 4031 2566 3486 2117 
Q 2941 1669 2122 1688 
L 1591 1688 
z
M 1591 4041 
L 1591 2478 
L 2038 2478 
Q 2947 2478 2947 3269 
Q 2947 4041 2047 4041 
L 1591 4041 
z
" transform="scale(0.015625)"/>
     <path id="MicrosoftYaHei-Bold-4f" d="M 256 2356 
Q 256 3494 920 4208 
Q 1584 4922 2675 4922 
Q 3713 4922 4345 4231 
Q 4978 3541 4978 2456 
Q 4978 1325 4320 620 
Q 3663 -84 2597 -84 
Q 1556 -84 906 598 
Q 256 1281 256 2356 
z
M 1341 2413 
Q 1341 1706 1681 1257 
Q 2022 809 2616 809 
Q 3222 809 3559 1239 
Q 3897 1669 3897 2394 
Q 3897 3150 3569 3589 
Q 3241 4028 2644 4028 
Q 2038 4028 1689 3578 
Q 1341 3128 1341 2413 
z
" transform="scale(0.015625)"/>
     <path id="MicrosoftYaHei-Bold-ff1a" d="M 1594 3506 
Q 1831 3506 2000 3354 
Q 2169 3203 2169 2981 
Q 2169 2766 2003 2614 
Q 1838 2463 1594 2463 
Q 1353 2463 1189 2616 
Q 1025 2769 1025 2981 
Q 1025 3200 1192 3353 
Q 1359 3506 1594 3506 
z
M 1594 959 
Q 1831 959 2000 806 
Q 2169 653 2169 434 
Q 2169 222 2000 69 
Q 1831 -84 1594 -84 
Q 1356 -84 1190 69 
Q 1025 222 1025 434 
Q 1025 653 1190 806 
Q 1356 959 1594 959 
z
" transform="scale(0.015625)"/>
     <path id="MicrosoftYaHei-Bold-4ebf" d="M 1406 5359 
L 2275 5128 
Q 2013 4394 1700 3706 
L 1700 -853 
L 850 -853 
L 850 2103 
Q 628 1738 388 1391 
Q 269 1903 88 2572 
Q 850 3766 1406 5359 
z
M 5813 4891 
L 5813 4066 
Q 3153 1228 3153 475 
Q 3153 141 4050 141 
L 4631 141 
Q 4944 141 5125 308 
Q 5306 475 5353 787 
Q 5400 1100 5456 1716 
Q 5619 1647 6313 1391 
Q 6119 -88 5769 -386 
Q 5419 -684 4850 -684 
L 3781 -684 
Q 2209 -684 2209 428 
Q 2209 1372 4556 4034 
L 2350 4034 
L 2350 4891 
L 5813 4891 
z
" transform="scale(0.015625)"/>
     <path id="MicrosoftYaHei-Bold-76" d="M 3688 3456 
L 2391 0 
L 1250 0 
L 16 3456 
L 1097 3456 
L 1731 1281 
Q 1834 925 1847 684 
L 1863 684 
Q 1888 931 1984 1263 
L 2631 3456 
L 3688 3456 
z
" transform="scale(0.015625)"/>
     <path id="MicrosoftYaHei-Bold-73" d="M 369 928 
Q 888 613 1384 613 
Q 2009 613 2009 947 
Q 2009 1184 1494 1344 
Q 850 1544 609 1789 
Q 369 2034 369 2453 
Q 369 2963 781 3252 
Q 1194 3541 1863 3541 
Q 2338 3541 2778 3400 
L 2778 2606 
Q 2375 2844 1891 2844 
Q 1650 2844 1503 2758 
Q 1356 2672 1356 2531 
Q 1356 2294 1794 2147 
Q 2263 1991 2498 1862 
Q 2734 1734 2857 1525 
Q 2981 1316 2981 1041 
Q 2981 506 2553 211 
Q 2125 -84 1409 -84 
Q 847 -84 369 94 
L 369 928 
z
" transform="scale(0.015625)"/>
     <path id="MicrosoftYaHei-Bold-6240" d="M 6300 2484 
L 5600 2484 
L 5600 -803 
L 4775 -803 
L 4775 2484 
L 4113 2484 
L 4113 2303 
Q 4113 188 3281 -866 
Q 2900 -509 2538 -259 
Q 3300 566 3300 2334 
L 3300 4841 
Q 4919 4972 5925 5291 
L 6281 4453 
Q 5400 4228 4113 4097 
L 4113 3259 
L 6300 3259 
L 6300 2484 
z
M 2856 1178 
L 1316 1178 
Q 1225 -225 788 -859 
Q 463 -491 81 -147 
Q 550 591 538 2134 
L 538 4784 
Q 1788 4878 2756 5228 
L 3113 4409 
Q 2250 4184 1338 4128 
L 1338 3503 
L 2856 3503 
L 2856 1178 
z
M 1338 1891 
L 2069 1891 
L 2069 2791 
L 1338 2791 
L 1338 1891 
z
" transform="scale(0.015625)"/>
     <path id="MicrosoftYaHei-Bold-6709" d="M 2094 -816 
L 1194 -816 
L 1194 1938 
Q 778 1509 306 1134 
Q 206 1641 94 2109 
Q 1022 2906 1603 3891 
L 150 3891 
L 150 4672 
L 2000 4672 
Q 2141 5006 2250 5359 
L 3238 5209 
Q 3134 4934 3019 4672 
L 6256 4672 
L 6256 3891 
L 2631 3891 
Q 2506 3656 2366 3434 
L 5663 3434 
L 5663 47 
Q 5663 -344 5475 -555 
Q 5288 -766 4953 -797 
Q 4619 -828 3650 -828 
Q 3563 -403 3406 28 
Q 3944 -3 4406 -3 
Q 4763 -3 4763 347 
L 4763 453 
L 2094 453 
L 2094 -816 
z
M 4763 2703 
L 2094 2703 
L 2094 2247 
L 4763 2247 
L 4763 2703 
z
M 2094 1122 
L 4763 1122 
L 4763 1578 
L 2094 1578 
L 2094 1122 
z
" transform="scale(0.015625)"/>
     <path id="MicrosoftYaHei-Bold-5bf9" d="M 3050 4234 
L 4850 4234 
L 4850 5309 
L 5744 5309 
L 5744 4234 
L 6319 4234 
L 6319 3409 
L 5744 3409 
L 5744 216 
Q 5744 -250 5539 -490 
Q 5334 -731 4987 -754 
Q 4641 -778 3656 -778 
Q 3594 -359 3450 147 
Q 3931 109 4409 109 
Q 4850 109 4850 516 
L 4850 3409 
L 3050 3409 
L 3050 4234 
z
M 863 3772 
L 1691 2509 
Q 1934 3206 2025 4016 
L 188 4016 
L 188 4834 
L 2900 4834 
L 2900 4028 
Q 2709 2722 2247 1669 
L 3169 278 
L 2394 -228 
L 1781 778 
Q 1269 -47 550 -684 
Q 369 -316 88 153 
Q 816 772 1278 1594 
L 181 3341 
L 863 3772 
z
M 3463 3047 
Q 4069 2278 4588 1528 
L 3844 1041 
Q 3375 1841 2813 2609 
L 3463 3047 
z
" transform="scale(0.015625)"/>
     <path id="MicrosoftYaHei-Bold-624b" d="M 106 1891 
L 2863 1891 
L 2863 2641 
L 563 2641 
L 563 3466 
L 2863 3466 
L 2863 4200 
L 681 4128 
Q 613 4459 475 4972 
Q 3881 5016 5663 5153 
L 5938 4328 
L 3806 4234 
L 3806 3466 
L 5850 3466 
L 5850 2641 
L 3806 2641 
L 3806 1891 
L 6300 1891 
L 6300 1047 
L 3806 1047 
L 3806 291 
Q 3806 -9 3692 -243 
Q 3578 -478 3354 -597 
Q 3131 -716 2976 -742 
Q 2822 -769 1638 -791 
Q 1525 -259 1425 153 
Q 2069 103 2419 103 
Q 2863 103 2863 566 
L 2863 1047 
L 106 1047 
L 106 1891 
z
" transform="scale(0.015625)"/>
    </defs>
    <use xlink:href="#MicrosoftYaHei-Bold-53f2"/>
    <use xlink:href="#MicrosoftYaHei-Bold-4e0a" transform="translate(100 0)"/>
    <use xlink:href="#MicrosoftYaHei-Bold-6700" transform="translate(200 0)"/>
    <use xlink:href="#MicrosoftYaHei-Bold-5927" transform="translate(300 0)"/>
    <use xlink:href="#MicrosoftYaHei-Bold-49" transform="translate(400 0)"/>
    <use xlink:href="#MicrosoftYaHei-Bold-50" transform="translate(433.544922 0)"/>
    <use xlink:href="#MicrosoftYaHei-Bold-4f" transform="translate(499.267578 0)"/>
    <use xlink:href="#MicrosoftYaHei-Bold-ff1a" transform="translate(581.103516 0)"/>
    <use xlink:href="#MicrosoftYaHei-Bold-53" transform="translate(681.103516 0)"/>
    <use xlink:href="#MicrosoftYaHei-Bold-70" transform="translate(741.259766 0)"/>
    <use xlink:href="#MicrosoftYaHei-Bold-61" transform="translate(806.736328 0)"/>
    <use xlink:href="#MicrosoftYaHei-Bold-63" transform="translate(864.5 0)"/>
    <use xlink:href="#MicrosoftYaHei-Bold-65" transform="translate(916.160156 0)"/>
    <use xlink:href="#MicrosoftYaHei-Bold-58" transform="translate(974.363281 0)"/>
    <use xlink:href="#MicrosoftYaHei-Bold-20" transform="translate(1044.382812 0)"/>
    <use xlink:href="#MicrosoftYaHei-Bold-24" transform="translate(1074.167969 0)"/>
    <use xlink:href="#MicrosoftYaHei-Bold-37" transform="translate(1135.837891 0)"/>
    <use xlink:href="#MicrosoftYaHei-Bold-35" transform="translate(1197.507812 0)"/>
    <use xlink:href="#MicrosoftYaHei-Bold-30" transform="translate(1259.177734 0)"/>
    <use xlink:href="#MicrosoftYaHei-Bold-4ebf" transform="translate(1320.847656 0)"/>
    <use xlink:href="#MicrosoftYaHei-Bold-20" transform="translate(1420.847656 0)"/>
    <use xlink:href="#MicrosoftYaHei-Bold-76" transform="translate(1450.632812 0)"/>
    <use xlink:href="#MicrosoftYaHei-Bold-73" transform="translate(1508.347656 0)"/>
    <use xlink:href="#MicrosoftYaHei-Bold-20" transform="translate(1557.712891 0)"/>
    <use xlink:href="#MicrosoftYaHei-Bold-6240" transform="translate(1587.498047 0)"/>
    <use xlink:href="#MicrosoftYaHei-Bold-6709" transform="translate(1687.498047 0)"/>
    <use xlink:href="#MicrosoftYaHei-Bold-5bf9" transform="translate(1787.498047 0)"/>
    <use xlink:href="#MicrosoftYaHei-Bold-624b" transform="translate(1887.498047 0)"/>
   </g>
  </g>
  <g id="text_12">
   <!-- 首发规模接近沙特阿美的3倍，超过全球所有科技IPO年度总和 -->
   <g style="fill: #64748b" transform="translate(43.495937 43.975875) scale(0.085 -0.085)">
    <defs>
     <path id="MicrosoftYaHei-Bold-9996" d="M 800 3303 
L 2456 3303 
Q 2503 3541 2541 3778 
L 175 3778 
L 175 4516 
L 1763 4516 
Q 1553 4784 1294 5091 
L 2106 5347 
Q 2456 4984 2713 4678 
L 2241 4516 
L 3622 4516 
Q 3966 4931 4281 5359 
L 5131 5109 
L 4619 4516 
L 6250 4516 
L 6250 3778 
L 3459 3778 
L 3363 3303 
L 5700 3303 
L 5700 -834 
L 4800 -834 
L 4800 -466 
L 1700 -466 
L 1700 -834 
L 800 -834 
L 800 3303 
z
M 4800 2603 
L 1700 2603 
L 1700 2247 
L 4800 2247 
L 4800 2603 
z
M 1700 1241 
L 4800 1241 
L 4800 1597 
L 1700 1597 
L 1700 1241 
z
M 1700 234 
L 4800 234 
L 4800 591 
L 1700 591 
L 1700 234 
z
" transform="scale(0.015625)"/>
     <path id="MicrosoftYaHei-Bold-53d1" d="M 5656 2059 
Q 5175 1228 4406 603 
Q 5119 284 6313 103 
Q 6038 -347 5781 -809 
Q 4506 -522 3613 47 
Q 2694 -491 1438 -872 
Q 1213 -459 963 -66 
Q 2006 228 2844 616 
Q 2388 1041 2019 1591 
Q 1294 434 356 -372 
Q 225 216 81 672 
Q 1300 1816 1900 3328 
L 331 3328 
L 331 4078 
Q 506 4591 644 5153 
L 1500 5059 
Q 1406 4672 1244 4097 
L 2144 4097 
Q 2288 4628 2431 5334 
L 3338 5259 
L 3075 4097 
L 4825 4097 
Q 4475 4441 4106 4784 
L 4656 5303 
Q 5231 4859 5631 4497 
L 5238 4097 
L 6294 4097 
L 6294 3328 
L 2838 3328 
Q 2744 3066 2619 2753 
L 5656 2753 
L 5656 2059 
z
M 3600 1053 
Q 4250 1516 4613 2028 
L 2713 2028 
Q 3063 1472 3600 1053 
z
" transform="scale(0.015625)"/>
     <path id="MicrosoftYaHei-Bold-89c4" d="M 88 2766 
L 894 2766 
L 894 3516 
L 188 3516 
L 188 4291 
L 894 4291 
L 894 5284 
L 1694 5284 
L 1694 4291 
L 2400 4291 
L 2400 3516 
L 1694 3516 
L 1694 2766 
L 2488 2766 
L 2488 1984 
L 1675 1984 
Q 1666 1816 1647 1656 
Q 2091 1247 2650 666 
Q 2306 341 2088 91 
Q 1869 369 1506 788 
Q 1278 -194 769 -878 
Q 369 -447 75 -178 
Q 747 550 866 1984 
L 88 1984 
L 88 2766 
z
M 2650 1128 
L 2650 5066 
L 5913 5066 
L 5913 1197 
L 5100 1197 
L 5100 4259 
L 3463 4259 
L 3463 1128 
L 2650 1128 
z
M 5525 978 
Q 6000 747 6306 628 
Q 6184 -291 6031 -522 
Q 5878 -753 5469 -753 
L 4906 -753 
Q 4188 -753 4188 -78 
L 4188 644 
Q 3728 -297 2613 -884 
Q 2394 -572 2044 -172 
Q 3225 394 3540 1169 
Q 3856 1944 3856 3872 
L 4688 3872 
Q 4675 2513 4506 1641 
L 4931 1641 
L 4931 222 
Q 4931 -28 5150 -28 
L 5219 -28 
Q 5369 -28 5417 112 
Q 5466 253 5525 978 
z
" transform="scale(0.015625)"/>
     <path id="MicrosoftYaHei-Bold-6a21" d="M 6250 534 
L 4825 534 
Q 5419 84 6325 -53 
Q 6131 -403 5913 -859 
Q 4769 -522 4169 334 
Q 3694 -503 2406 -897 
Q 2206 -509 1925 -159 
Q 3013 66 3419 534 
L 2088 534 
L 2088 1141 
L 3719 1141 
Q 3756 1284 3769 1459 
L 2425 1459 
L 2425 2134 
L 1944 1659 
Q 1800 1878 1638 2109 
L 1638 -841 
L 863 -841 
L 863 1803 
Q 619 1141 275 547 
Q 213 978 75 1691 
Q 525 2453 788 3328 
L 138 3328 
L 138 4066 
L 863 4066 
L 863 5291 
L 1638 5291 
L 1638 4066 
L 2219 4066 
L 2219 3328 
L 1638 3328 
L 1638 2972 
Q 2081 2559 2425 2209 
L 2425 3703 
L 6025 3703 
L 6025 1459 
L 4556 1459 
Q 4544 1291 4519 1141 
L 6250 1141 
L 6250 534 
z
M 5250 2009 
L 5250 2353 
L 3200 2353 
L 3200 2009 
L 5250 2009 
z
M 5250 3147 
L 3200 3147 
L 3200 2816 
L 5250 2816 
L 5250 3147 
z
M 5413 3853 
L 4675 3853 
L 4675 4203 
L 3719 4203 
L 3719 3853 
L 2981 3853 
L 2981 4203 
L 2175 4203 
L 2175 4822 
L 2981 4822 
L 2981 5291 
L 3719 5291 
L 3719 4822 
L 4675 4822 
L 4675 5291 
L 5413 5291 
L 5413 4822 
L 6275 4822 
L 6275 4203 
L 5413 4203 
L 5413 3853 
z
" transform="scale(0.015625)"/>
     <path id="MicrosoftYaHei-Bold-63a5" d="M 6106 4059 
L 5156 4059 
L 5738 3828 
L 5344 3303 
L 6300 3303 
L 6300 2603 
L 3475 2603 
L 4150 2409 
L 3975 2097 
L 6238 2097 
L 6238 1397 
L 5609 1397 
Q 5406 831 5000 397 
L 6213 -103 
L 5794 -841 
Q 5016 -441 4353 -128 
Q 3528 -650 2238 -859 
Q 2075 -509 1844 -116 
Q 2806 -3 3463 275 
Q 2825 550 2331 716 
Q 2541 1047 2722 1397 
L 2075 1397 
L 2075 1631 
Q 1859 1600 1625 1556 
L 1625 3 
Q 1625 -359 1467 -556 
Q 1309 -753 1001 -779 
Q 694 -806 281 -816 
Q 225 -409 94 9 
Q 325 -3 503 -3 
Q 694 -3 753 59 
Q 813 122 813 291 
L 813 1403 
L 194 1272 
L 94 2166 
Q 394 2200 813 2259 
L 813 3347 
L 194 3347 
L 194 4147 
L 813 4147 
L 813 5303 
L 1625 5303 
L 1625 4147 
L 2156 4147 
L 2156 3347 
L 1625 3347 
L 1625 2384 
L 2119 2466 
Q 2109 2266 2109 2097 
L 3056 2097 
Q 3163 2344 3259 2603 
L 2081 2603 
L 2081 3303 
L 2969 3303 
Q 2784 3628 2650 3828 
L 3169 4059 
L 2300 4059 
L 2300 4759 
L 3688 4759 
Q 3597 4991 3500 5197 
L 4438 5353 
Q 4547 5091 4653 4759 
L 6106 4759 
L 6106 4059 
z
M 3931 3472 
L 3541 3303 
L 4391 3303 
Q 4700 3781 4850 4059 
L 3525 4059 
Q 3703 3819 3931 3472 
z
M 3375 1034 
L 4200 716 
Q 4544 1009 4709 1397 
L 3581 1397 
L 3375 1034 
z
" transform="scale(0.015625)"/>
     <path id="MicrosoftYaHei-Bold-8fd1" d="M 1000 5353 
Q 1469 4778 1906 4153 
Q 1581 3953 1138 3647 
Q 763 4241 288 4897 
L 1000 5353 
z
M 6188 2553 
L 5200 2553 
L 5200 297 
L 4338 297 
L 4338 2553 
L 3259 2553 
Q 3194 1175 2669 259 
Q 2363 522 1844 859 
Q 2406 1597 2406 3016 
L 2406 4766 
Q 4156 4966 5681 5322 
L 6056 4447 
Q 4506 4153 3269 4041 
L 3269 3328 
L 6188 3328 
L 6188 2553 
z
M 6325 134 
L 6031 -703 
L 2550 -663 
Q 2119 -656 1761 -515 
Q 1403 -375 1188 -84 
Q 663 -597 431 -859 
L 81 128 
L 700 659 
L 700 2378 
L 131 2378 
L 131 3203 
L 1563 3203 
L 1563 666 
Q 2031 109 2819 109 
L 3741 97 
Q 4703 97 6325 134 
z
" transform="scale(0.015625)"/>
     <path id="MicrosoftYaHei-Bold-7684" d="M 1250 5303 
L 2181 5159 
L 1900 4309 
L 2963 4309 
L 2963 3091 
Q 3466 3934 3925 5316 
L 4788 5091 
Q 4650 4675 4494 4278 
L 6106 4278 
L 6034 681 
Q 6019 100 5937 -133 
Q 5856 -366 5684 -512 
Q 5513 -659 5205 -712 
Q 4897 -766 3863 -766 
Q 3769 -216 3625 178 
Q 4088 141 4609 141 
Q 4759 141 4868 175 
Q 4978 209 5048 279 
Q 5119 350 5144 437 
Q 5169 525 5184 1206 
L 5213 2484 
Q 5225 3081 5225 3453 
L 4138 3453 
Q 3931 3016 3700 2603 
Q 3403 2797 2963 2988 
L 2963 -734 
L 2094 -734 
L 2094 -284 
L 1206 -284 
L 1206 -772 
L 338 -772 
L 338 4309 
L 997 4309 
Q 1178 4922 1250 5303 
z
M 2094 3491 
L 1206 3491 
L 1206 2422 
L 2094 2422 
L 2094 3491 
z
M 1206 534 
L 2094 534 
L 2094 1603 
L 1206 1603 
L 1206 534 
z
M 3944 2703 
Q 4394 2166 4913 1397 
L 4125 872 
Q 3650 1653 3219 2203 
L 3944 2703 
z
" transform="scale(0.015625)"/>
     <path id="MicrosoftYaHei-Bold-33" d="M 494 1053 
Q 978 691 1625 691 
Q 2034 691 2275 872 
Q 2516 1053 2516 1388 
Q 2516 1731 2230 1912 
Q 1944 2094 1428 2094 
L 997 2094 
L 997 2872 
L 1394 2872 
Q 2369 2872 2369 3528 
Q 2369 4147 1622 4147 
Q 1134 4147 675 3828 
L 675 4663 
Q 1175 4922 1853 4922 
Q 2541 4922 2969 4605 
Q 3397 4288 3397 3725 
Q 3397 2775 2434 2531 
L 2434 2516 
Q 2941 2459 3244 2145 
Q 3547 1831 3547 1381 
Q 3547 691 3042 303 
Q 2538 -84 1697 -84 
Q 950 -84 494 163 
L 494 1053 
z
" transform="scale(0.015625)"/>
     <path id="MicrosoftYaHei-Bold-500d" d="M 1900 2978 
L 2869 2978 
Q 2575 3419 2400 3647 
L 2778 3891 
L 2100 3891 
L 2100 4603 
L 3584 4603 
Q 3469 4878 3325 5184 
L 4256 5353 
Q 4409 5066 4603 4603 
L 6075 4603 
L 6075 3891 
L 5325 3891 
L 5744 3653 
Q 5509 3334 5228 2978 
L 6300 2978 
L 6300 2241 
L 1900 2241 
L 1900 2978 
z
M 3769 3159 
L 3478 2978 
L 4506 2978 
L 4319 3097 
Q 4591 3447 4897 3891 
L 3209 3891 
Q 3547 3472 3769 3159 
z
M 1363 5341 
L 2163 5103 
Q 1913 4334 1625 3647 
L 1625 -809 
L 800 -809 
L 800 1981 
Q 588 1619 363 1291 
Q 250 1809 81 2472 
Q 900 3766 1363 5341 
z
M 2225 -797 
L 2225 1778 
L 5913 1778 
L 5913 -797 
L 5063 -797 
L 5063 -484 
L 3075 -484 
L 3075 -797 
L 2225 -797 
z
M 5063 1066 
L 3075 1066 
L 3075 228 
L 5063 228 
L 5063 1066 
z
" transform="scale(0.015625)"/>
     <path id="MicrosoftYaHei-Bold-ff0c" d="M 2075 831 
L 1569 -863 
L 831 -863 
L 1191 831 
L 2075 831 
z
" transform="scale(0.015625)"/>
     <path id="MicrosoftYaHei-Bold-8d85" d="M 2863 2447 
L 2269 2447 
L 2269 1753 
L 2894 1753 
L 2894 991 
L 2269 991 
L 2269 156 
Q 2381 91 3781 91 
Q 4741 91 6306 122 
Q 6144 -359 6050 -716 
Q 3569 -716 2808 -692 
Q 2047 -669 1619 -480 
Q 1191 -291 959 72 
Q 850 -503 675 -853 
Q 400 -572 75 -259 
Q 394 509 400 2184 
L 1131 2184 
Q 1125 1644 1094 1184 
Q 1216 788 1488 538 
L 1488 2447 
L 125 2447 
L 125 3209 
L 1175 3209 
L 1175 3778 
L 300 3778 
L 300 4541 
L 1175 4541 
L 1175 5322 
L 1981 5322 
L 1981 4541 
L 2769 4541 
L 2769 3778 
L 1981 3778 
L 1981 3209 
L 2863 3209 
L 2863 2447 
z
M 4456 2872 
Q 4413 3134 4238 3572 
Q 4525 3559 4688 3559 
Q 4963 3559 5045 3659 
Q 5128 3759 5144 4409 
L 4453 4409 
Q 4313 3194 3294 2728 
Q 3131 2972 2850 3334 
Q 3528 3622 3666 4409 
L 2969 4409 
L 2969 5109 
L 6013 5109 
Q 5956 3825 5922 3572 
Q 5888 3319 5750 3151 
Q 5613 2984 5386 2934 
Q 5159 2884 4456 2872 
z
M 3175 2641 
L 5913 2641 
L 5913 453 
L 3175 453 
L 3175 2641 
z
M 5119 1153 
L 5119 1941 
L 3969 1941 
L 3969 1153 
L 5119 1153 
z
" transform="scale(0.015625)"/>
     <path id="MicrosoftYaHei-Bold-8fc7" d="M 988 5347 
Q 1450 4691 1769 4172 
Q 1656 4103 969 3716 
Q 625 4347 275 4922 
L 988 5347 
z
M 4413 5309 
L 5319 5309 
L 5319 4278 
L 6225 4278 
L 6225 3522 
L 5319 3522 
L 5319 1441 
Q 5319 906 5073 632 
Q 4828 359 4384 343 
Q 3941 328 3163 328 
Q 3081 722 2931 1222 
Q 3675 1172 3950 1172 
Q 4413 1172 4413 1684 
L 4413 3522 
L 1925 3522 
L 1925 4278 
L 4413 4278 
L 4413 5309 
z
M 2731 3434 
Q 3150 2959 3813 2109 
Q 3469 1859 3075 1547 
Q 2600 2197 2038 2922 
L 2731 3434 
z
M 6313 134 
Q 6131 -384 6031 -703 
L 2469 -650 
Q 2034 -641 1711 -498 
Q 1388 -356 1188 -84 
Q 656 -597 431 -853 
L 81 128 
L 700 653 
L 700 2378 
L 131 2378 
L 131 3203 
L 1563 3203 
L 1563 659 
Q 2016 116 2794 116 
L 3759 103 
Q 4725 103 6313 134 
z
" transform="scale(0.015625)"/>
     <path id="MicrosoftYaHei-Bold-5168" d="M 369 184 
L 2731 184 
L 2731 934 
L 869 934 
L 869 1734 
L 2731 1734 
L 2731 2366 
L 1525 2366 
L 1525 2859 
Q 1113 2566 644 2284 
Q 463 2541 88 3016 
Q 2088 4091 2800 5316 
L 3894 5316 
L 3731 5078 
Q 4538 3922 6313 3091 
Q 5981 2678 5750 2353 
Q 5281 2603 4875 2878 
L 4875 2366 
L 3663 2366 
L 3663 1734 
L 5544 1734 
L 5544 934 
L 3663 934 
L 3663 184 
L 6031 184 
L 6031 -616 
L 369 -616 
L 369 184 
z
M 3200 4416 
Q 2688 3766 1925 3166 
L 4475 3166 
Q 3725 3741 3200 4416 
z
" transform="scale(0.015625)"/>
     <path id="MicrosoftYaHei-Bold-7403" d="M 5231 5322 
Q 5625 5034 6056 4634 
L 5728 4291 
L 6206 4291 
L 6206 3528 
L 4650 3528 
L 4650 3109 
Q 4772 2775 4916 2463 
Q 5331 2913 5638 3316 
L 6319 2797 
Q 5853 2294 5288 1772 
Q 5734 1050 6338 509 
Q 6063 91 5850 -341 
Q 5109 447 4650 1356 
L 4650 3 
Q 4650 -369 4484 -564 
Q 4319 -759 3964 -784 
Q 3609 -809 3006 -809 
Q 2931 -259 2838 41 
Q 3247 3 3441 3 
Q 3838 3 3825 428 
L 3825 1041 
Q 3231 641 2563 209 
L 2194 1053 
Q 2844 1403 3825 2025 
L 3825 3528 
L 2369 3528 
L 2369 4291 
L 3825 4291 
L 3825 5316 
L 4650 5316 
L 4650 4291 
L 5384 4291 
Q 5088 4575 4763 4841 
L 5231 5322 
z
M 250 -459 
L 75 428 
L 813 578 
L 813 2097 
L 206 2097 
L 206 2884 
L 813 2884 
L 813 4141 
L 150 4141 
L 150 4941 
L 2263 4941 
L 2263 4141 
L 1625 4141 
L 1625 2884 
L 2163 2884 
L 2163 2097 
L 1625 2097 
L 1625 750 
L 2256 884 
Q 2250 422 2269 41 
Q 1244 -178 250 -459 
z
M 2919 3322 
Q 3244 2872 3631 2203 
L 2931 1778 
Q 2588 2459 2269 2928 
L 2919 3322 
z
" transform="scale(0.015625)"/>
     <path id="MicrosoftYaHei-Bold-79d1" d="M 2494 1316 
L 4525 1500 
L 4525 5309 
L 5406 5309 
L 5406 1581 
L 6256 1659 
L 6325 866 
L 5406 781 
L 5406 -834 
L 4525 -834 
L 4525 703 
L 2600 528 
L 2494 1316 
z
M 88 1128 
Q 684 1850 1009 2709 
L 144 2709 
L 144 3516 
L 1038 3516 
L 1038 4216 
L 281 4147 
Q 219 4572 138 4891 
Q 1431 4991 2525 5147 
L 2763 4416 
Q 2341 4356 1850 4300 
L 1850 3516 
L 2663 3516 
L 2663 2709 
L 1850 2709 
L 1850 2172 
L 2150 2453 
Q 2600 2053 2913 1728 
L 2388 1253 
Q 2078 1616 1850 1863 
L 1850 -834 
L 1038 -834 
L 1038 1278 
Q 744 659 375 128 
Q 269 541 88 1128 
z
M 3419 4866 
Q 3894 4516 4475 3991 
L 3894 3416 
Q 3425 3916 2894 4334 
L 3419 4866 
z
M 3206 3278 
Q 3756 2872 4275 2397 
L 3688 1828 
Q 3263 2278 2675 2734 
L 3206 3278 
z
" transform="scale(0.015625)"/>
     <path id="MicrosoftYaHei-Bold-6280" d="M 6169 3678 
L 4644 3678 
L 4644 2984 
L 6013 2984 
L 6013 2228 
Q 5634 1319 4900 613 
Q 5525 256 6306 22 
Q 6000 -509 5800 -822 
Q 4919 -494 4188 31 
Q 3441 -484 2444 -859 
Q 2238 -509 1950 -47 
Q 2825 244 3472 625 
Q 2947 1128 2519 1759 
L 3225 2178 
Q 3606 1578 4169 1116 
Q 4738 1603 5025 2203 
L 2356 2203 
L 2356 2984 
L 3744 2984 
L 3744 3678 
L 2369 3678 
L 2369 4428 
L 3744 4428 
L 3744 5322 
L 4644 5322 
L 4644 4428 
L 6169 4428 
L 6169 3678 
z
M 163 4222 
L 863 4222 
L 863 5322 
L 1669 5322 
L 1669 4222 
L 2200 4222 
L 2200 3409 
L 1669 3409 
L 1669 2469 
L 2231 2591 
Q 2200 2053 2206 1772 
L 1669 1641 
L 1669 3 
Q 1669 -406 1466 -611 
Q 1263 -816 369 -816 
Q 306 -503 156 34 
Q 400 16 575 16 
Q 744 16 803 84 
Q 863 153 863 322 
L 863 1444 
L 188 1272 
L 100 2166 
L 863 2306 
L 863 3409 
L 163 3409 
L 163 4222 
z
" transform="scale(0.015625)"/>
     <path id="MicrosoftYaHei-Bold-5e74" d="M 5819 3059 
L 5819 2266 
L 4050 2266 
L 4050 1284 
L 6244 1284 
L 6244 491 
L 4050 491 
L 4050 -828 
L 3138 -828 
L 3138 491 
L 175 491 
L 175 1284 
L 1050 1284 
L 1050 2813 
Q 881 2634 700 2466 
Q 463 2822 138 3266 
Q 1088 4047 1600 5353 
L 2569 5209 
Q 2459 4938 2334 4678 
L 6056 4678 
L 6056 3884 
L 4050 3884 
L 4050 3059 
L 5819 3059 
z
M 1272 3059 
L 3138 3059 
L 3138 3884 
L 1888 3884 
Q 1606 3450 1272 3059 
z
M 1925 1284 
L 3138 1284 
L 3138 2266 
L 1925 2266 
L 1925 1284 
z
" transform="scale(0.015625)"/>
     <path id="MicrosoftYaHei-Bold-5ea6" d="M 5656 1697 
L 5656 1022 
Q 5156 447 4656 97 
Q 5344 -34 6306 -66 
Q 6119 -428 5938 -822 
Q 4556 -653 3719 -353 
Q 2825 -653 1494 -872 
Q 1338 -522 1088 -178 
Q 2100 -128 2888 78 
Q 2369 453 1938 1022 
L 1538 1022 
L 1538 1697 
L 5656 1697 
z
M 1325 2478 
Q 1338 134 700 -884 
Q 356 -553 19 -297 
Q 550 697 525 2591 
L 525 4772 
L 3013 4772 
Q 2944 4953 2831 5209 
L 3869 5359 
Q 3981 5072 4094 4772 
L 6256 4772 
L 6256 4072 
L 1325 4072 
L 1325 2478 
z
M 1463 3684 
L 2144 3684 
L 2144 3947 
L 2944 3947 
L 2944 3684 
L 4494 3684 
L 4494 3947 
L 5294 3947 
L 5294 3684 
L 6144 3684 
L 6144 3009 
L 5294 3009 
L 5294 1991 
L 2144 1991 
L 2144 3009 
L 1463 3009 
L 1463 3684 
z
M 3756 378 
Q 4325 641 4725 1022 
L 2825 1022 
Q 3225 622 3756 378 
z
M 4494 2628 
L 4494 3009 
L 2944 3009 
L 2944 2628 
L 4494 2628 
z
" transform="scale(0.015625)"/>
     <path id="MicrosoftYaHei-Bold-603b" d="M 900 4341 
L 1947 4341 
Q 1719 4725 1488 5072 
L 2263 5366 
Q 2550 4984 2881 4509 
L 2453 4341 
L 3500 4341 
Q 3844 4806 4181 5328 
L 5113 5141 
L 4478 4341 
L 5525 4341 
L 5525 1816 
L 3341 1816 
Q 3700 1484 4094 1072 
L 3456 516 
Q 3013 1041 2594 1484 
L 2984 1816 
L 900 1816 
L 900 4341 
z
M 4600 3566 
L 1825 3566 
L 1825 2591 
L 4600 2591 
L 4600 3566 
z
M 4338 916 
Q 4838 641 5150 497 
Q 4919 -400 4617 -570 
Q 4316 -741 3906 -741 
L 2488 -741 
Q 1550 -741 1550 166 
L 1550 1491 
L 2375 1491 
L 2375 384 
Q 2375 53 2775 53 
L 3719 53 
Q 3919 53 4055 129 
Q 4191 206 4230 378 
Q 4269 550 4338 916 
z
M 669 1441 
L 1444 1178 
Q 1131 278 844 -409 
L 88 -78 
Q 419 634 669 1441 
z
M 5725 1428 
Q 6056 653 6331 -72 
L 5525 -372 
Q 5256 441 4950 1141 
L 5725 1428 
z
" transform="scale(0.015625)"/>
     <path id="MicrosoftYaHei-Bold-548c" d="M 94 1147 
Q 725 1816 1106 2716 
L 150 2716 
L 150 3522 
L 1225 3522 
L 1225 4209 
Q 784 4169 338 4141 
Q 300 4472 238 4903 
Q 1681 5016 2875 5166 
L 3025 4403 
Q 2547 4341 2056 4288 
L 2056 3522 
L 3044 3522 
L 3044 2716 
L 2056 2716 
L 2056 1997 
L 2288 2241 
Q 2756 1878 3188 1491 
L 2650 853 
Q 2344 1181 2056 1453 
L 2056 -803 
L 1225 -803 
L 1225 1441 
Q 875 734 419 159 
Q 306 559 94 1147 
z
M 3244 -553 
L 3244 4797 
L 5994 4797 
L 5994 -516 
L 5156 -516 
L 5156 28 
L 4081 28 
L 4081 -553 
L 3244 -553 
z
M 5156 3966 
L 4081 3966 
L 4081 859 
L 5156 859 
L 5156 3966 
z
" transform="scale(0.015625)"/>
    </defs>
    <use xlink:href="#MicrosoftYaHei-Bold-9996"/>
    <use xlink:href="#MicrosoftYaHei-Bold-53d1" transform="translate(100 0)"/>
    <use xlink:href="#MicrosoftYaHei-Bold-89c4" transform="translate(200 0)"/>
    <use xlink:href="#MicrosoftYaHei-Bold-6a21" transform="translate(300 0)"/>
    <use xlink:href="#MicrosoftYaHei-Bold-63a5" transform="translate(400 0)"/>
    <use xlink:href="#MicrosoftYaHei-Bold-8fd1" transform="translate(500 0)"/>
    <use xlink:href="#MicrosoftYaHei-Bold-6c99" transform="translate(600 0)"/>
    <use xlink:href="#MicrosoftYaHei-Bold-7279" transform="translate(700 0)"/>
    <use xlink:href="#MicrosoftYaHei-Bold-963f" transform="translate(800 0)"/>
    <use xlink:href="#MicrosoftYaHei-Bold-7f8e" transform="translate(900 0)"/>
    <use xlink:href="#MicrosoftYaHei-Bold-7684" transform="translate(1000 0)"/>
    <use xlink:href="#MicrosoftYaHei-Bold-33" transform="translate(1100 0)"/>
    <use xlink:href="#MicrosoftYaHei-Bold-500d" transform="translate(1161.669922 0)"/>
    <use xlink:href="#MicrosoftYaHei-Bold-ff0c" transform="translate(1261.669922 0)"/>
    <use xlink:href="#MicrosoftYaHei-Bold-8d85" transform="translate(1361.669922 0)"/>
    <use xlink:href="#MicrosoftYaHei-Bold-8fc7" transform="translate(1461.669922 0)"/>
    <use xlink:href="#MicrosoftYaHei-Bold-5168" transform="translate(1561.669922 0)"/>
    <use xlink:href="#MicrosoftYaHei-Bold-7403" transform="translate(1661.669922 0)"/>
    <use xlink:href="#MicrosoftYaHei-Bold-6240" transform="translate(1761.669922 0)"/>
    <use xlink:href="#MicrosoftYaHei-Bold-6709" transform="translate(1861.669922 0)"/>
    <use xlink:href="#MicrosoftYaHei-Bold-79d1" transform="translate(1961.669922 0)"/>
    <use xlink:href="#MicrosoftYaHei-Bold-6280" transform="translate(2061.669922 0)"/>
    <use xlink:href="#MicrosoftYaHei-Bold-49" transform="translate(2161.669922 0)"/>
    <use xlink:href="#MicrosoftYaHei-Bold-50" transform="translate(2195.214844 0)"/>
    <use xlink:href="#MicrosoftYaHei-Bold-4f" transform="translate(2260.9375 0)"/>
    <use xlink:href="#MicrosoftYaHei-Bold-5e74" transform="translate(2342.773438 0)"/>
    <use xlink:href="#MicrosoftYaHei-Bold-5ea6" transform="translate(2442.773438 0)"/>
    <use xlink:href="#MicrosoftYaHei-Bold-603b" transform="translate(2542.773438 0)"/>
    <use xlink:href="#MicrosoftYaHei-Bold-548c" transform="translate(2642.773438 0)"/>
   </g>
  </g>
  <g id="text_13">
   <!-- 来源: Bloomberg / SEC Filing — 2026年6月 -->
   <g style="fill: #94a3b8" transform="translate(43.495937 267.967125) scale(0.07 -0.07)">
    <defs>
     <path id="MicrosoftYaHei-Bold-6765" d="M 513 4628 
L 2731 4628 
L 2731 5316 
L 3638 5316 
L 3638 4628 
L 5888 4628 
L 5888 3816 
L 4872 3816 
L 5494 3353 
Q 5078 2844 4722 2516 
L 6213 2516 
L 6213 1709 
L 4159 1709 
Q 5028 816 6269 347 
Q 5988 -22 5713 -441 
Q 4388 281 3638 1263 
L 3638 -809 
L 2731 -809 
L 2731 1256 
Q 1959 253 656 -478 
Q 369 -66 106 266 
Q 1325 794 2175 1709 
L 213 1709 
L 213 2516 
L 1609 2516 
Q 1363 2856 906 3378 
L 1488 3816 
L 513 3816 
L 513 4628 
z
M 4847 3816 
L 3638 3816 
L 3638 2516 
L 4638 2516 
L 4081 2984 
Q 4469 3347 4847 3816 
z
M 2294 2966 
L 1688 2516 
L 2731 2516 
L 2731 3816 
L 1531 3816 
Q 1897 3441 2294 2966 
z
" transform="scale(0.015625)"/>
     <path id="MicrosoftYaHei-Bold-6e90" d="M 719 5278 
Q 1425 4772 1744 4509 
L 1163 3878 
Q 719 4309 200 4734 
L 719 5278 
z
M 3281 1053 
L 3894 678 
Q 3688 344 3422 -22 
Q 3584 -47 3844 -53 
Q 4119 -16 4125 203 
L 4125 1191 
L 3019 1191 
L 3019 3834 
L 3691 3834 
Q 3803 4094 3888 4372 
L 2669 4372 
L 2669 2491 
Q 2669 141 1975 -884 
Q 1575 -484 1269 -284 
Q 1875 616 1869 2603 
L 1869 5072 
L 6250 5072 
L 6250 4372 
L 4709 4372 
Q 4634 4188 4459 3834 
L 5981 3834 
L 5981 1191 
L 4925 1191 
L 4925 9 
Q 4925 -347 4776 -547 
Q 4628 -747 4323 -790 
Q 4019 -834 3525 -822 
Q 3472 -481 3372 -91 
Q 3191 -334 2988 -591 
L 2406 -122 
Q 2863 359 3281 1053 
z
M 5206 3197 
L 3781 3197 
L 3781 2803 
L 5206 2803 
L 5206 3197 
z
M 5206 1828 
L 5206 2228 
L 3781 2228 
L 3781 1828 
L 5206 1828 
z
M 594 3666 
Q 1069 3322 1581 2878 
L 1019 2203 
Q 563 2647 81 3072 
L 594 3666 
z
M 781 1878 
Q 1250 1666 1550 1578 
L 988 -778 
Q 575 -622 163 -522 
Q 481 434 781 1878 
z
M 5569 1078 
Q 5963 566 6350 -91 
L 5706 -472 
Q 5406 103 4981 734 
L 5569 1078 
z
" transform="scale(0.015625)"/>
     <path id="MicrosoftYaHei-Bold-3a" d="M 313 2969 
Q 313 3200 491 3350 
Q 669 3500 916 3500 
Q 1166 3500 1337 3350 
Q 1509 3200 1509 2969 
Q 1509 2728 1337 2579 
Q 1166 2431 903 2431 
Q 653 2431 483 2584 
Q 313 2738 313 2969 
z
M 313 453 
Q 313 688 491 838 
Q 669 988 916 988 
Q 1166 988 1337 834 
Q 1509 681 1509 453 
Q 1509 213 1337 64 
Q 1166 -84 903 -84 
Q 659 -84 486 69 
Q 313 222 313 453 
z
" transform="scale(0.015625)"/>
     <path id="MicrosoftYaHei-Bold-6d" d="M 5881 0 
L 4875 0 
L 4875 1972 
Q 4875 2766 4297 2766 
Q 4028 2766 3850 2525 
Q 3672 2284 3672 1938 
L 3672 0 
L 2666 0 
L 2666 1997 
Q 2666 2766 2094 2766 
Q 1809 2766 1639 2536 
Q 1469 2306 1469 1928 
L 1469 0 
L 459 0 
L 459 3456 
L 1469 3456 
L 1469 2916 
L 1481 2916 
Q 1663 3213 1963 3377 
Q 2263 3541 2594 3541 
Q 3322 3541 3591 2888 
Q 3991 3541 4753 3541 
Q 5881 3541 5881 2147 
L 5881 0 
z
" transform="scale(0.015625)"/>
     <path id="MicrosoftYaHei-Bold-67" d="M 3800 381 
Q 3800 -581 3251 -1101 
Q 2703 -1622 1672 -1622 
Q 972 -1622 559 -1422 
L 559 -559 
Q 1097 -872 1644 -872 
Q 2184 -872 2489 -583 
Q 2794 -294 2794 219 
L 2794 506 
L 2778 506 
Q 2413 -84 1691 -84 
Q 1038 -84 645 381 
Q 253 847 253 1628 
Q 253 2500 686 3020 
Q 1119 3541 1822 3541 
Q 2459 3541 2778 3044 
L 2794 3044 
L 2794 3456 
L 3800 3456 
L 3800 381 
z
M 2803 1950 
Q 2803 2294 2595 2530 
Q 2388 2766 2072 2766 
Q 1703 2766 1489 2477 
Q 1275 2188 1275 1666 
Q 1275 1213 1481 952 
Q 1688 691 2028 691 
Q 2372 691 2587 956 
Q 2803 1222 2803 1647 
L 2803 1950 
z
" transform="scale(0.015625)"/>
     <path id="MicrosoftYaHei-Bold-2f" d="M 3100 4841 
L 747 -803 
L -156 -803 
L 2188 4841 
L 3100 4841 
z
" transform="scale(0.015625)"/>
     <path id="MicrosoftYaHei-Bold-45" d="M 3425 0 
L 559 0 
L 559 4841 
L 3313 4841 
L 3313 3997 
L 1591 3997 
L 1591 2856 
L 3191 2856 
L 3191 2016 
L 1591 2016 
L 1591 844 
L 3425 844 
L 3425 0 
z
" transform="scale(0.015625)"/>
     <path id="MicrosoftYaHei-Bold-43" d="M 4013 175 
Q 3484 -84 2634 -84 
Q 1541 -84 898 570 
Q 256 1225 256 2316 
Q 256 3463 973 4192 
Q 1691 4922 2825 4922 
Q 3534 4922 4013 4738 
L 4013 3741 
Q 3522 4028 2900 4028 
Q 2191 4028 1766 3575 
Q 1341 3122 1341 2391 
Q 1341 1678 1744 1243 
Q 2147 809 2834 809 
Q 3481 809 4013 1122 
L 4013 175 
z
" transform="scale(0.015625)"/>
     <path id="MicrosoftYaHei-Bold-46" d="M 3319 3997 
L 1591 3997 
L 1591 2753 
L 3181 2753 
L 3181 1909 
L 1591 1909 
L 1591 0 
L 559 0 
L 559 4841 
L 3319 4841 
L 3319 3997 
z
" transform="scale(0.015625)"/>
     <path id="MicrosoftYaHei-Bold-6e" d="M 3744 0 
L 2741 0 
L 2741 1928 
Q 2741 2766 2138 2766 
Q 1850 2766 1659 2542 
Q 1469 2319 1469 1972 
L 1469 0 
L 459 0 
L 459 3456 
L 1469 3456 
L 1469 2906 
L 1481 2906 
Q 1859 3541 2594 3541 
Q 3744 3541 3744 2116 
L 3744 0 
z
" transform="scale(0.015625)"/>
     <path id="MicrosoftYaHei-Bold-2014" d="M 6913 1497 
L 0 1497 
L 0 2209 
L 6913 2209 
L 6913 1497 
z
" transform="scale(0.015625)"/>
     <path id="MicrosoftYaHei-Bold-6708" d="M 1038 -866 
Q 625 -497 225 -178 
Q 784 388 932 936 
Q 1081 1484 1081 2603 
L 1081 5034 
L 5681 5034 
L 5681 366 
Q 5681 -181 5450 -465 
Q 5219 -750 4808 -775 
Q 4397 -800 3431 -791 
Q 3338 -303 3188 172 
Q 3806 134 4269 134 
Q 4756 134 4756 591 
L 4756 1041 
L 1947 1041 
Q 1872 353 1648 -56 
Q 1425 -466 1038 -866 
z
M 4756 4191 
L 2006 4191 
L 2006 3459 
L 4756 3459 
L 4756 4191 
z
M 1997 1884 
L 4756 1884 
L 4756 2616 
L 2006 2616 
Q 2006 2434 1997 1884 
z
" transform="scale(0.015625)"/>
    </defs>
    <use xlink:href="#MicrosoftYaHei-Bold-6765"/>
    <use xlink:href="#MicrosoftYaHei-Bold-6e90" transform="translate(100 0)"/>
    <use xlink:href="#MicrosoftYaHei-Bold-3a" transform="translate(200 0)"/>
    <use xlink:href="#MicrosoftYaHei-Bold-20" transform="translate(228.564453 0)"/>
    <use xlink:href="#MicrosoftYaHei-Bold-42" transform="translate(258.349609 0)"/>
    <use xlink:href="#MicrosoftYaHei-Bold-6c" transform="translate(326.708984 0)"/>
    <use xlink:href="#MicrosoftYaHei-Bold-6f" transform="translate(356.298828 0)"/>
    <use xlink:href="#MicrosoftYaHei-Bold-6f" transform="translate(422.021484 0)"/>
    <use xlink:href="#MicrosoftYaHei-Bold-6d" transform="translate(487.744141 0)"/>
    <use xlink:href="#MicrosoftYaHei-Bold-62" transform="translate(585.9375 0)"/>
    <use xlink:href="#MicrosoftYaHei-Bold-65" transform="translate(652.539062 0)"/>
    <use xlink:href="#MicrosoftYaHei-Bold-72" transform="translate(710.742188 0)"/>
    <use xlink:href="#MicrosoftYaHei-Bold-67" transform="translate(752.625 0)"/>
    <use xlink:href="#MicrosoftYaHei-Bold-20" transform="translate(819.080078 0)"/>
    <use xlink:href="#MicrosoftYaHei-Bold-2f" transform="translate(848.865234 0)"/>
    <use xlink:href="#MicrosoftYaHei-Bold-20" transform="translate(896.130859 0)"/>
    <use xlink:href="#MicrosoftYaHei-Bold-53" transform="translate(925.916016 0)"/>
    <use xlink:href="#MicrosoftYaHei-Bold-45" transform="translate(986.072266 0)"/>
    <use xlink:href="#MicrosoftYaHei-Bold-43" transform="translate(1043.25 0)"/>
    <use xlink:href="#MicrosoftYaHei-Bold-20" transform="translate(1110.583984 0)"/>
    <use xlink:href="#MicrosoftYaHei-Bold-46" transform="translate(1140.369141 0)"/>
    <use xlink:href="#MicrosoftYaHei-Bold-69" transform="translate(1196.179688 0)"/>
    <use xlink:href="#MicrosoftYaHei-Bold-6c" transform="translate(1225.769531 0)"/>
    <use xlink:href="#MicrosoftYaHei-Bold-69" transform="translate(1255.359375 0)"/>
    <use xlink:href="#MicrosoftYaHei-Bold-6e" transform="translate(1284.949219 0)"/>
    <use xlink:href="#MicrosoftYaHei-Bold-67" transform="translate(1349.744141 0)"/>
    <use xlink:href="#MicrosoftYaHei-Bold-20" transform="translate(1416.199219 0)"/>
    <use xlink:href="#MicrosoftYaHei-Bold-2014" transform="translate(1445.984375 0)"/>
    <use xlink:href="#MicrosoftYaHei-Bold-20" transform="translate(1553.992188 0)"/>
    <use xlink:href="#MicrosoftYaHei-Bold-32" transform="translate(1583.777344 0)"/>
    <use xlink:href="#MicrosoftYaHei-Bold-30" transform="translate(1645.447266 0)"/>
    <use xlink:href="#MicrosoftYaHei-Bold-32" transform="translate(1707.117188 0)"/>
    <use xlink:href="#MicrosoftYaHei-Bold-36" transform="translate(1768.787109 0)"/>
    <use xlink:href="#MicrosoftYaHei-Bold-5e74" transform="translate(1830.457031 0)"/>
    <use xlink:href="#MicrosoftYaHei-Bold-36" transform="translate(1930.457031 0)"/>
    <use xlink:href="#MicrosoftYaHei-Bold-6708" transform="translate(1992.126953 0)"/>
   </g>
  </g>
  <g id="text_14">
   <!-- SpaceX虹吸效应 · 扬说深度 -->
   <g style="fill: #94a3b8" transform="translate(337.860156 268.001031) scale(0.07 -0.07)">
    <defs>
     <path id="MicrosoftYaHei-Bold-8679" d="M 313 4328 
L 1231 4328 
L 1231 5303 
L 1969 5303 
L 1969 4328 
L 2888 4328 
L 2888 1566 
L 1969 1566 
L 1969 613 
L 2375 672 
L 2219 1253 
L 2819 1422 
Q 2991 891 3169 241 
L 4175 241 
L 4175 4028 
L 3044 4028 
L 3044 4866 
L 6150 4866 
L 6150 4028 
L 5063 4028 
L 5063 241 
L 6244 241 
L 6244 -597 
L 3025 -597 
L 3025 -288 
L 2638 -391 
Q 2597 -213 2553 -44 
Q 1806 -150 250 -434 
L 81 378 
Q 625 434 1231 513 
L 1231 1566 
L 919 1566 
L 919 1241 
L 313 1241 
L 313 4328 
z
M 2281 2266 
L 2281 3628 
L 1969 3628 
L 1969 2266 
L 2281 2266 
z
M 919 2266 
L 1231 2266 
L 1231 3628 
L 919 3628 
L 919 2266 
z
" transform="scale(0.015625)"/>
     <path id="MicrosoftYaHei-Bold-5438" d="M 313 4853 
L 2188 4853 
L 2188 416 
Q 2738 1447 2800 3197 
Q 2813 3503 2819 4209 
L 2388 4209 
L 2388 4978 
L 5694 4978 
L 5694 4259 
L 5219 3266 
L 6075 3266 
L 6075 2534 
Q 5856 1472 5269 659 
Q 5744 209 6319 -28 
Q 6025 -422 5775 -822 
Q 5194 -472 4731 28 
Q 4181 -491 3438 -891 
Q 3163 -428 2925 -128 
Q 3681 222 4194 716 
Q 3775 1353 3475 2178 
Q 3288 216 2375 -878 
Q 2106 -466 1800 -147 
Q 2013 97 2181 416 
L 1063 416 
L 1063 -84 
L 313 -84 
L 313 4853 
z
M 3625 3791 
Q 4031 2272 4706 1316 
Q 5063 1853 5206 2509 
L 4313 2509 
L 4313 3266 
L 4744 4209 
L 3631 4209 
Q 3625 3978 3625 3791 
z
M 1463 1178 
L 1463 4091 
L 1063 4091 
L 1063 1178 
L 1463 1178 
z
" transform="scale(0.015625)"/>
     <path id="MicrosoftYaHei-Bold-6548" d="M 1169 2122 
L 1806 1500 
Q 2019 1891 2131 2341 
L 2778 2159 
Q 2425 2663 1944 3203 
L 2550 3634 
Q 2841 3325 3084 3041 
Q 3653 4084 3956 5359 
L 4769 5247 
Q 4666 4809 4506 4366 
L 6294 4366 
L 6294 3534 
L 5931 3534 
Q 5778 1931 5213 928 
Q 5666 353 6319 22 
Q 6100 -278 5788 -809 
Q 5156 -378 4703 216 
Q 4141 -419 3331 -866 
Q 3069 -478 2756 -147 
Q 3644 325 4213 1000 
Q 3863 1697 3688 2556 
Q 3534 2281 3363 2003 
Q 3259 2166 3128 2363 
L 2838 2144 
L 2919 2122 
Q 2725 1472 2394 919 
Q 2791 519 3081 209 
L 2475 -372 
Q 2219 -59 1928 266 
Q 1375 -388 581 -866 
Q 350 -484 56 -91 
Q 856 300 1366 872 
Q 1013 1241 619 1628 
L 1169 2122 
z
M 4713 1772 
Q 5038 2481 5147 3534 
L 4256 3534 
Q 4378 2525 4713 1772 
z
M 200 4553 
L 1388 4553 
Q 1294 4847 1163 5178 
L 2000 5359 
Q 2163 4922 2259 4553 
L 3325 4553 
L 3325 3778 
L 200 3778 
L 200 4553 
z
M 950 3609 
L 1663 3272 
Q 1200 2441 625 1872 
Q 269 2284 75 2466 
Q 588 2984 950 3609 
z
" transform="scale(0.015625)"/>
     <path id="MicrosoftYaHei-Bold-5e94" d="M 1438 2491 
Q 1438 119 794 -866 
Q 506 -597 88 -266 
Q 619 622 613 2603 
L 613 4566 
L 3009 4566 
Q 2894 4853 2781 5116 
L 3788 5353 
Q 3928 5016 4103 4566 
L 6225 4566 
L 6225 3797 
L 1438 3797 
L 1438 2491 
z
M 3013 3309 
L 3794 3541 
Q 4125 2678 4513 1316 
L 3669 1084 
Q 3300 2416 3013 3309 
z
M 1325 316 
L 4300 316 
Q 4681 1541 5200 3453 
L 6069 3228 
Q 5744 2006 5184 316 
L 6250 316 
L 6250 -553 
L 1325 -553 
L 1325 316 
z
M 1475 2984 
L 2225 3303 
Q 2775 2103 3244 828 
L 2406 516 
Q 2006 1684 1475 2984 
z
" transform="scale(0.015625)"/>
     <path id="MicrosoftYaHei-Bold-b7" d="M 1406 2959 
Q 1769 2959 2028 2700 
Q 2288 2441 2288 2078 
Q 2288 1713 2028 1455 
Q 1769 1197 1406 1197 
Q 1041 1197 783 1455 
Q 525 1713 525 2078 
Q 525 2441 783 2700 
Q 1041 2959 1406 2959 
z
" transform="scale(0.015625)"/>
     <path id="MicrosoftYaHei-Bold-626c" d="M 144 4153 
L 813 4153 
L 813 5272 
L 1613 5272 
L 1613 4153 
L 2125 4153 
L 2125 3353 
L 1613 3353 
L 1613 2622 
L 2113 2778 
Q 2081 2247 2088 1928 
L 1613 1775 
L 1613 -47 
Q 1613 -322 1505 -490 
Q 1397 -659 1209 -712 
Q 1022 -766 300 -784 
Q 256 -366 156 66 
Q 341 47 509 47 
Q 688 47 750 114 
Q 813 181 813 341 
L 813 1509 
L 138 1284 
L 88 2184 
Q 416 2269 813 2381 
L 813 3353 
L 144 3353 
L 144 4153 
z
M 3869 3066 
L 6113 3066 
Q 6113 2206 6081 1276 
Q 6050 347 6019 136 
Q 5988 -75 5889 -253 
Q 5791 -431 5633 -542 
Q 5475 -653 5322 -681 
Q 5169 -709 4294 -747 
Q 4256 -384 4134 113 
Q 3778 -403 3300 -803 
Q 2938 -522 2544 -266 
Q 3875 697 4222 2316 
L 3722 2316 
Q 3369 1016 2225 59 
Q 1844 466 1619 691 
Q 2616 1378 2934 2316 
L 2369 2316 
L 2369 3028 
L 4231 4266 
L 2363 4266 
L 2363 5016 
L 5700 5016 
L 5700 4297 
L 3869 3066 
z
M 5325 2316 
L 5000 2316 
Q 4769 1053 4159 150 
Q 4456 128 4694 128 
Q 5194 128 5241 517 
Q 5288 906 5325 2316 
z
" transform="scale(0.015625)"/>
     <path id="MicrosoftYaHei-Bold-8bf4" d="M 4781 5347 
Q 4950 5278 5675 5022 
L 5022 4059 
L 5819 4059 
L 5819 1534 
L 5006 1534 
L 5006 278 
Q 5006 22 5156 22 
L 5288 22 
Q 5394 22 5439 189 
Q 5484 356 5525 891 
Q 5925 722 6325 578 
Q 6253 122 6186 -181 
Q 6119 -484 5906 -634 
Q 5694 -784 5338 -784 
L 4950 -784 
Q 4144 -784 4144 22 
L 4144 1534 
L 3719 1534 
Q 3684 419 3370 -62 
Q 3056 -544 2231 -884 
Q 2013 -553 1700 -166 
Q 2366 128 2600 425 
Q 2834 722 2859 1534 
L 2100 1534 
L 2100 4059 
L 2972 4059 
Q 2675 4531 2356 4953 
L 3031 5353 
Q 3294 5041 3756 4391 
Q 3478 4244 3194 4059 
L 4122 4059 
Q 4478 4681 4781 5347 
z
M 4969 2366 
L 4969 3228 
L 2950 3228 
L 2950 2366 
L 4969 2366 
z
M 956 5353 
Q 1394 4884 1906 4278 
Q 1506 3984 1200 3728 
Q 781 4291 325 4859 
L 956 5353 
z
M 2044 1334 
Q 2094 966 2200 478 
Q 1394 -159 944 -659 
L 506 -41 
Q 644 134 644 472 
L 644 2503 
L 94 2503 
L 94 3353 
L 1488 3353 
L 1488 903 
Q 1725 1103 2044 1334 
z
" transform="scale(0.015625)"/>
     <path id="MicrosoftYaHei-Bold-6df1" d="M 694 5297 
Q 1288 4928 1869 4497 
L 1313 3859 
Q 844 4272 175 4741 
L 694 5297 
z
M 1925 3634 
L 1925 5003 
L 6056 5003 
L 6056 3634 
L 5250 3634 
L 5250 4278 
L 2731 4278 
L 2731 3634 
L 1925 3634 
z
M 3825 3447 
Q 3075 2841 2419 2397 
L 1906 2984 
Q 2638 3422 3269 3978 
L 3825 3447 
z
M 4175 3447 
L 4694 3972 
Q 5481 3428 6081 2972 
L 5550 2384 
Q 4869 2947 4175 3447 
z
M 625 3634 
Q 1231 3209 1738 2784 
L 1150 2134 
Q 738 2541 81 3047 
L 625 3634 
z
M 6188 1447 
L 4716 1447 
Q 5353 694 6331 316 
Q 6100 -47 5844 -491 
Q 4972 9 4406 828 
L 4406 -834 
L 3569 -834 
L 3569 878 
Q 2991 78 2081 -566 
Q 1863 -184 1606 178 
Q 2516 684 3203 1447 
L 1850 1447 
L 1850 2172 
L 3569 2172 
L 3569 2997 
L 4406 2997 
L 4406 2172 
L 6188 2172 
L 6188 1447 
z
M 900 1872 
Q 1281 1684 1719 1547 
Q 1275 172 988 -834 
Q 544 -666 138 -541 
Q 506 416 900 1872 
z
" transform="scale(0.015625)"/>
    </defs>
    <use xlink:href="#MicrosoftYaHei-Bold-53"/>
    <use xlink:href="#MicrosoftYaHei-Bold-70" transform="translate(60.15625 0)"/>
    <use xlink:href="#MicrosoftYaHei-Bold-61" transform="translate(125.632812 0)"/>
    <use xlink:href="#MicrosoftYaHei-Bold-63" transform="translate(183.396484 0)"/>
    <use xlink:href="#MicrosoftYaHei-Bold-65" transform="translate(235.056641 0)"/>
    <use xlink:href="#MicrosoftYaHei-Bold-58" transform="translate(293.259766 0)"/>
    <use xlink:href="#MicrosoftYaHei-Bold-8679" transform="translate(363.279297 0)"/>
    <use xlink:href="#MicrosoftYaHei-Bold-5438" transform="translate(463.279297 0)"/>
    <use xlink:href="#MicrosoftYaHei-Bold-6548" transform="translate(563.279297 0)"/>
    <use xlink:href="#MicrosoftYaHei-Bold-5e94" transform="translate(663.279297 0)"/>
    <use xlink:href="#MicrosoftYaHei-Bold-20" transform="translate(763.279297 0)"/>
    <use xlink:href="#MicrosoftYaHei-Bold-b7" transform="translate(793.064453 0)"/>
    <use xlink:href="#MicrosoftYaHei-Bold-20" transform="translate(837.009766 0)"/>
    <use xlink:href="#MicrosoftYaHei-Bold-626c" transform="translate(866.794922 0)"/>
    <use xlink:href="#MicrosoftYaHei-Bold-8bf4" transform="translate(966.794922 0)"/>
    <use xlink:href="#MicrosoftYaHei-Bold-6df1" transform="translate(1066.794922 0)"/>
    <use xlink:href="#MicrosoftYaHei-Bold-5ea6" transform="translate(1166.794922 0)"/>
   </g>
  </g>
 </g>
 <defs>
  <clipPath id="p8a4811b884">
   <rect x="73.735938" y="53.597188" width="352.8" height="196.992"/>
  </clipPath>
 </defs>
</svg>
