<svg xmlns="http://www.w3.org/2000/svg" viewBox="0 0 768 512" width="768" height="512" font-family="Microsoft YaHei, SimHei, PingFang SC, sans-serif">
  <rect width="768" height="512" fill="#FAFBFC"/>
  <defs>
    <marker id="ab" markerWidth="8" markerHeight="6" refX="8" refY="3" orient="auto"><polygon points="0 0, 8 3, 0 6" fill="#1A56DB"/></marker>
    <marker id="ar" markerWidth="8" markerHeight="6" refX="8" refY="3" orient="auto"><polygon points="0 0, 8 3, 0 6" fill="#DC2626"/></marker>
    <marker id="ag" markerWidth="8" markerHeight="6" refX="8" refY="3" orient="auto"><polygon points="0 0, 8 3, 0 6" fill="#16A34A"/></marker>
    <marker id="ao" markerWidth="8" markerHeight="6" refX="8" refY="3" orient="auto"><polygon points="0 0, 8 3, 0 6" fill="#D4A017"/></marker>
  </defs>
<rect x="0" y="0" width="768" height="44" fill="#1A56DB" opacity="0.08"/>
  <text x="384.0" y="30" font-size="18" fill="#1A56DB" text-anchor="middle" font-weight="bold">科技：SpaceX一飞冲天，其他科技股却在失重下沉</text><rect x="30" y="400" width="708" height="6" rx="2" fill="#CBD5E1"/><ellipse cx="180" cy="420" rx="38" ry="14" fill="#FEF2F2" stroke="#DC2626" stroke-width="2"/><text x="180" y="418" font-size="11" fill="#DC2626" text-anchor="middle" font-weight="bold">NVDA</text><text x="180" y="432" font-size="10" fill="#991B1B" text-anchor="middle" font-weight="normal">-2%</text><ellipse cx="290" cy="430" rx="38" ry="14" fill="#FEF2F2" stroke="#DC2626" stroke-width="2"/><text x="290" y="428" font-size="11" fill="#DC2626" text-anchor="middle" font-weight="bold">Meta</text><text x="290" y="442" font-size="10" fill="#991B1B" text-anchor="middle" font-weight="normal">-2.8%</text><ellipse cx="410" cy="425" rx="38" ry="14" fill="#FEF2F2" stroke="#DC2626" stroke-width="2"/><text x="410" y="423" font-size="11" fill="#DC2626" text-anchor="middle" font-weight="bold">TSLA</text><text x="410" y="437" font-size="10" fill="#991B1B" text-anchor="middle" font-weight="normal">-1.6%</text><ellipse cx="530" cy="418" rx="38" ry="14" fill="#FEF2F2" stroke="#DC2626" stroke-width="2"/><text x="530" y="416" font-size="11" fill="#DC2626" text-anchor="middle" font-weight="bold">AAPL</text><text x="530" y="430" font-size="10" fill="#991B1B" text-anchor="middle" font-weight="normal">-0.4%</text><ellipse cx="640" cy="432" rx="38" ry="14" fill="#FEF2F2" stroke="#DC2626" stroke-width="2"/><text x="640" y="430" font-size="11" fill="#DC2626" text-anchor="middle" font-weight="bold">AMD</text><text x="640" y="444" font-size="10" fill="#991B1B" text-anchor="middle" font-weight="normal">-7.3%</text><line x1="180" y1="390" x2="180" y2="404" stroke="#DC2626" stroke-width="1.5" stroke-linecap="round" marker-end="url(#ar)"/><line x1="290" y1="400" x2="290" y2="414" stroke="#DC2626" stroke-width="1.5" stroke-linecap="round" marker-end="url(#ar)"/><line x1="410" y1="395" x2="410" y2="409" stroke="#DC2626" stroke-width="1.5" stroke-linecap="round" marker-end="url(#ar)"/><line x1="530" y1="388" x2="530" y2="402" stroke="#DC2626" stroke-width="1.5" stroke-linecap="round" marker-end="url(#ar)"/><line x1="640" y1="402" x2="640" y2="416" stroke="#DC2626" stroke-width="1.5" stroke-linecap="round" marker-end="url(#ar)"/><ellipse cx="384" cy="180" rx="24" ry="70" fill="#EFF6FF" stroke="#1A56DB" stroke-width="3.5"/><polygon points="384,100 360,112 408,112" fill="#DBEAFE" stroke="#1A56DB" stroke-width="3.5" stroke-linejoin="round"/><circle cx="384" cy="130" r="8" fill="#93C5FD" stroke="#1A56DB" stroke-width="2"/><polygon points="368,248 384,300 400,248" fill="#FEF2F2" stroke="#EF4444" stroke-width="2"/><polygon points="374,248 384,285 394,248" fill="#FEE2E2" stroke="#EF4444" stroke-width="1"/><polygon points="358,210 350,250 362,230" fill="#DBEAFE" stroke="#1A56DB" stroke-width="2.5"/><polygon points="410,210 418,250 406,230" fill="#DBEAFE" stroke="#1A56DB" stroke-width="2.5"/><text x="439" y="100" font-size="16" fill="#1A56DB" text-anchor="start" font-weight="bold">SpaceX</text><text x="439" y="118" font-size="14" fill="#DC2626" text-anchor="start" font-weight="bold">$201.80 +4.8%</text><text x="439" y="134" font-size="13" fill="#DC2626" text-anchor="start" font-weight="bold">三日累涨 +50%</text><text x="439" y="150" font-size="12" fill="#64748B" text-anchor="start" font-weight="normal">市值 $2.64万亿</text><text x="439" y="165" font-size="11" fill="#64748B" text-anchor="start" font-weight="normal">超越亚马逊全球第五</text><path d="M464,120 Q514,150 504,185" fill="none" stroke="#F59E0B" stroke-width="2" stroke-dasharray="6,3"/><text x="539" y="135" font-size="10" fill="#F59E0B" font-weight="bold">估值皮筋</text><text x="539" y="150" font-size="9" fill="#F59E0B">还能拉多长?</text><text x="384" y="470" font-size="12" fill="#475569" text-anchor="middle" font-weight="bold">一个涨50%，一群跌5-7%——科技板块内部也在分化</text></svg>