<svg xmlns="http://www.w3.org/2000/svg" viewBox="0 0 768 512" width="768" height="512" font-family="Microsoft YaHei, SimHei, PingFang SC, sans-serif">
  <rect width="768" height="512" fill="#FAFBFC"/>
  <defs>
    <marker id="ab" markerWidth="8" markerHeight="6" refX="8" refY="3" orient="auto"><polygon points="0 0, 8 3, 0 6" fill="#1A56DB"/></marker>
    <marker id="ar" markerWidth="8" markerHeight="6" refX="8" refY="3" orient="auto"><polygon points="0 0, 8 3, 0 6" fill="#DC2626"/></marker>
    <marker id="ag" markerWidth="8" markerHeight="6" refX="8" refY="3" orient="auto"><polygon points="0 0, 8 3, 0 6" fill="#16A34A"/></marker>
    <marker id="ao" markerWidth="8" markerHeight="6" refX="8" refY="3" orient="auto"><polygon points="0 0, 8 3, 0 6" fill="#D4A017"/></marker>
  </defs>
<rect x="0" y="0" width="768" height="44" fill="#1A56DB" opacity="0.08"/>
  <text x="384.0" y="30" font-size="18" fill="#1A56DB" text-anchor="middle" font-weight="bold">FOMC：沃什站在三岔路口，全世界都在等他的选择</text><circle cx="384" cy="143.1" r="10" fill="#E2E8F0" stroke="#1A56DB" stroke-width="2"/>
  <polygon points="368.0,153.1 400.0,153.1 404.0,172.0 364.0,172.0" fill="#EFF6FF" stroke="#1A56DB" stroke-width="2" stroke-linejoin="round"/>
  <line x1="377" y1="172.0" x2="375" y2="186.7" stroke="#1A56DB" stroke-width="2.5" stroke-linecap="round"/>
  <line x1="391" y1="172.0" x2="393" y2="186.7" stroke="#1A56DB" stroke-width="2.5" stroke-linecap="round"/>
  <line x1="368.0" y1="157.825" x2="358.0" y2="165.825" stroke="#1A56DB" stroke-width="2" stroke-linecap="round"/>
  <line x1="400.0" y1="157.825" x2="410.0" y2="165.825" stroke="#1A56DB" stroke-width="2" stroke-linecap="round"/><polygon points="384,265 120.0,340 240.0,340" fill="#16A34A" opacity="0.08" stroke="#16A34A" stroke-width="1.5" stroke-dasharray="6,4"/><rect x="110.0" y="265" width="140" height="30" rx="5" fill="white" stroke="#16A34A" stroke-width="2.5"/><text x="180" y="286" font-size="14" fill="#16A34A" text-anchor="middle" font-weight="bold">鸽派路径</text><text x="180" y="315" font-size="10" fill="#475569" text-anchor="middle" font-weight="normal">点阵图加息预期下移</text><text x="180" y="331" font-size="10" fill="#475569" text-anchor="middle" font-weight="normal">删除宽松倾向被弱化</text><text x="180" y="347" font-size="10" fill="#475569" text-anchor="middle" font-weight="normal">→科技反弹·美元走弱</text><text x="180" y="370" font-size="12" fill="#16A34A" text-anchor="middle" font-weight="bold">概率40%</text><polygon points="384,265 324.0,410 444.0,410" fill="#D4A017" opacity="0.08" stroke="#D4A017" stroke-width="1.5" stroke-dasharray="6,4"/><rect x="314.0" y="335" width="140" height="30" rx="5" fill="white" stroke="#D4A017" stroke-width="2.5"/><text x="384" y="356" font-size="14" fill="#D4A017" text-anchor="middle" font-weight="bold">中性路径</text><text x="384" y="385" font-size="10" fill="#475569" text-anchor="middle" font-weight="normal">维持现状</text><text x="384" y="401" font-size="10" fill="#475569" text-anchor="middle" font-weight="normal">措辞模糊</text><text x="384" y="417" font-size="10" fill="#475569" text-anchor="middle" font-weight="normal">→市场按兵不动</text><text x="384" y="440" font-size="12" fill="#D4A017" text-anchor="middle" font-weight="bold">概率30%</text><polygon points="384,265 528.0,340 648.0,340" fill="#DC2626" opacity="0.08" stroke="#DC2626" stroke-width="1.5" stroke-dasharray="6,4"/><rect x="518.0" y="265" width="140" height="30" rx="5" fill="white" stroke="#DC2626" stroke-width="2.5"/><text x="588" y="286" font-size="14" fill="#DC2626" text-anchor="middle" font-weight="bold">鹰派路径</text><text x="588" y="315" font-size="10" fill="#475569" text-anchor="middle" font-weight="normal">删除宽松倾向明确</text><text x="588" y="331" font-size="10" fill="#475569" text-anchor="middle" font-weight="normal">暗示加息不远</text><text x="588" y="347" font-size="10" fill="#475569" text-anchor="middle" font-weight="normal">→科技承压·轮动加速</text><text x="588" y="370" font-size="12" fill="#DC2626" text-anchor="middle" font-weight="bold">概率30%</text><rect x="284" y="55" width="200" height="70" rx="6" fill="#EFF6FF" stroke="#1A56DB" stroke-width="2.5"/><polygon points="284,55 384,20 484,55" fill="#DBEAFE" stroke="#1A56DB" stroke-width="2.5" stroke-linejoin="round"/><text x="384" y="100" font-size="16" fill="#1A56DB" text-anchor="middle" font-weight="bold">FOMC · Day 2</text><text x="384" y="118" font-size="11" fill="#64748B" text-anchor="middle" font-weight="normal">3.50%-3.75% 维持</text><circle cx="180" cy="95" r="22" fill="white" stroke="#475569" stroke-width="2.5"/>
  <circle cx="180" cy="95" r="3" fill="#475569"/>
  <line x1="180.0" y1="79.0" x2="180.0" y2="75.0" stroke="#475569" stroke-width="1.5"/>
  <line x1="188.0" y1="81.14359353944899" x2="190.0" y2="77.67949192431122" stroke="#475569" stroke-width="1.5"/>
  <line x1="193.85640646055103" y1="87.0" x2="197.32050807568876" y2="85.0" stroke="#475569" stroke-width="1.5"/>
  <line x1="196.0" y1="95.0" x2="200.0" y2="95.0" stroke="#475569" stroke-width="1.5"/>
  <line x1="193.85640646055103" y1="103.0" x2="197.32050807568876" y2="105.0" stroke="#475569" stroke-width="1.5"/>
  <line x1="188.0" y1="108.85640646055101" x2="190.0" y2="112.32050807568878" stroke="#475569" stroke-width="1.5"/>
  <line x1="180.0" y1="111.0" x2="180.0" y2="115.0" stroke="#475569" stroke-width="1.5"/>
  <line x1="172.0" y1="108.85640646055101" x2="170.0" y2="112.32050807568878" stroke="#475569" stroke-width="1.5"/>
  <line x1="166.14359353944897" y1="103.0" x2="162.67949192431124" y2="105.0" stroke="#475569" stroke-width="1.5"/>
  <line x1="164.0" y1="95.0" x2="160.0" y2="95.0" stroke="#475569" stroke-width="1.5"/>
  <line x1="166.14359353944897" y1="87.0" x2="162.67949192431124" y2="85.0" stroke="#475569" stroke-width="1.5"/>
  <line x1="172.0" y1="81.14359353944899" x2="170.0" y2="77.67949192431124" stroke="#475569" stroke-width="1.5"/>
  <line x1="180" y1="95" x2="171.44400794764277" y2="86.44400794764277" stroke="#1A56DB" stroke-width="2.5" stroke-linecap="round"/><text x="180" y="135" font-size="9" fill="#64748B" text-anchor="middle" font-weight="normal">北京时间</text><text x="180" y="148" font-size="9" fill="#DC2626" text-anchor="middle" font-weight="bold">周四凌晨2:00</text><text x="384.0" y="500" font-size="11" fill="#94A3B8" text-anchor="middle">三大悬念：点阵图是否留白·宽松倾向是否删除·沃什语气偏鸽还是偏鹰</text></svg>