<svg xmlns="http://www.w3.org/2000/svg" viewBox="0 0 768 512" width="768" height="512" font-family="Microsoft YaHei, SimHei, PingFang SC, sans-serif">
  <rect width="768" height="512" fill="#FAFBFC"/>
  <defs>
    <marker id="ab" markerWidth="8" markerHeight="6" refX="8" refY="3" orient="auto"><polygon points="0 0, 8 3, 0 6" fill="#1A56DB"/></marker>
    <marker id="ar" markerWidth="8" markerHeight="6" refX="8" refY="3" orient="auto"><polygon points="0 0, 8 3, 0 6" fill="#DC2626"/></marker>
    <marker id="ag" markerWidth="8" markerHeight="6" refX="8" refY="3" orient="auto"><polygon points="0 0, 8 3, 0 6" fill="#16A34A"/></marker>
    <marker id="ao" markerWidth="8" markerHeight="6" refX="8" refY="3" orient="auto"><polygon points="0 0, 8 3, 0 6" fill="#D4A017"/></marker>
  </defs>
<rect x="0" y="0" width="768" height="44" fill="#1A56DB" opacity="0.08"/>
  <text x="384.0" y="30" font-size="18" fill="#1A56DB" text-anchor="middle" font-weight="bold">BOJ加息悖论：利率上去了，日元为什么还在地上？</text><rect x="60" y="130" width="140" height="140" rx="5" fill="#FFF7ED" stroke="#EA580C" stroke-width="2.5"/><text x="130" y="150" font-size="14" fill="#EA580C" text-anchor="middle" font-weight="bold">日本銀行</text><text x="130" y="170" font-size="11" fill="#EA580C" text-anchor="middle" font-weight="normal">BOJ</text><rect x="75" y="185" width="110" height="40" rx="4" fill="white" stroke="#EA580C" stroke-width="1.5"/><text x="130" y="202" font-size="10" fill="#EA580C" text-anchor="middle" font-weight="normal">政策金利</text><text x="130" y="218" font-size="13" fill="#DC2626" text-anchor="middle" font-weight="bold">0.75%→1.00%</text><text x="290" y="155" font-size="12" fill="#DC2626" text-anchor="middle" font-weight="bold">加息</text><text x="290" y="172" font-size="10" fill="#64748B" text-anchor="middle" font-weight="normal">理论上</text><line x1="220" y1="200" x2="320" y2="200" stroke="#DC2626" stroke-width="2.5" stroke-linecap="round" marker-end="url(#ar)"/><circle cx="390" cy="264.9" r="10" fill="#E2E8F0" stroke="#D4A017" stroke-width="2"/>
  <polygon points="374.0,274.9 406.0,274.9 410.0,292.0 370.0,292.0" fill="#EFF6FF" stroke="#D4A017" stroke-width="2" stroke-linejoin="round"/>
  <line x1="383" y1="292.0" x2="381" y2="305.3" stroke="#D4A017" stroke-width="2.5" stroke-linecap="round"/>
  <line x1="397" y1="292.0" x2="399" y2="305.3" stroke="#D4A017" stroke-width="2.5" stroke-linecap="round"/>
  <line x1="374.0" y1="279.17499999999995" x2="364.0" y2="291.17499999999995" stroke="#D4A017" stroke-width="2" stroke-linecap="round"/>
  <line x1="406.0" y1="279.17499999999995" x2="416.0" y2="291.17499999999995" stroke="#D4A017" stroke-width="2" stroke-linecap="round"/><text x="390" y="340" font-size="13" fill="#D4A017" text-anchor="middle" font-weight="bold">日元</text><text x="390" y="356" font-size="11" fill="#64748B" text-anchor="middle" font-weight="normal">USD/JPY 160.40</text><text x="390" y="372" font-size="11" fill="#DC2626" text-anchor="middle" font-weight="bold">还在原地!</text><rect x="460" y="130" width="270" height="150" rx="8" fill="#F8FAFC" stroke="#64748B" stroke-width="2"/><text x="595" y="155" font-size="13" fill="#475569" text-anchor="middle" font-weight="bold">为什么会这样?</text><text x="595" y="185" font-size="12" fill="#475569" text-anchor="middle" font-weight="bold">实际利率 = 名义利率 − 通胀</text><line x1="490" y1="198" x2="700" y2="198" stroke="#E2E8F0" stroke-width="1"/><text x="520" y="220" font-size="16" fill="#1A56DB" text-anchor="start" font-weight="bold">1.00%</text><text x="520" y="240" font-size="10" fill="#1A56DB" text-anchor="start" font-weight="normal">名义利率（BOJ加息后）</text><text x="670" y="220" font-size="16" fill="#475569" text-anchor="middle" font-weight="normal">−</text><text x="530" y="265" font-size="16" fill="#DC2626" text-anchor="start" font-weight="bold">2%+</text><text x="530" y="285" font-size="10" fill="#DC2626" text-anchor="start" font-weight="normal">通胀率</text><line x1="490" y1="295" x2="700" y2="295" stroke="#E2E8F0" stroke-width="1"/><text x="530" y="315" font-size="16" fill="#DC2626" text-anchor="start" font-weight="bold">≈ −1.5%</text><text x="530" y="335" font-size="10" fill="#DC2626" text-anchor="start" font-weight="normal">实际利率仍是深度负值</text><rect x="60" y="410" width="650" height="42" rx="6" fill="#EFF6FF" stroke="#1A56DB" stroke-width="1"/><text x="384" y="436" font-size="13" fill="#1E40AF" text-anchor="middle" font-weight="bold">借日元的成本从0.75%变成1%——套利交易还在继续，日元涨不起来</text></svg>