<svg xmlns="http://www.w3.org/2000/svg" viewBox="0 0 800 400" font-family="'PingFang SC','Microsoft YaHei',sans-serif">
  <defs>
    <linearGradient id="redLight" x1="0" y1="0" x2="1" y2="0"><stop offset="0%" stop-color="#FEF2F2"/><stop offset="100%" stop-color="#FFFFFF"/></linearGradient>
    <linearGradient id="greenLight" x1="0" y1="0" x2="1" y2="0"><stop offset="0%" stop-color="#F0FDF4"/><stop offset="100%" stop-color="#FFFFFF"/></linearGradient>
    <linearGradient id="blueLight" x1="0" y1="0" x2="1" y2="0"><stop offset="0%" stop-color="#EFF6FF"/><stop offset="100%" stop-color="#FFFFFF"/></linearGradient>
    <linearGradient id="headerRed" x1="0" y1="0" x2="1" y2="0"><stop offset="0%" stop-color="#EF4444"/><stop offset="100%" stop-color="#DC2626"/></linearGradient>
    <linearGradient id="headerGreen" x1="0" y1="0" x2="1" y2="0"><stop offset="0%" stop-color="#22C55E"/><stop offset="100%" stop-color="#16A34A"/></linearGradient>
    <linearGradient id="headerBlue" x1="0" y1="0" x2="1" y2="0"><stop offset="0%" stop-color="#3B82F6"/><stop offset="100%" stop-color="#2563EB"/></linearGradient>
  </defs>

  <!-- Background - pure white -->
  <rect width="800" height="400" fill="#FFFFFF" rx="8"/>

  <!-- Thin border -->
  <rect x="1" y="1" width="798" height="398" fill="none" stroke="#E2E8F0" stroke-width="1" rx="8"/>

  <!-- Title -->
  <text x="400" y="38" text-anchor="middle" fill="#1E293B" font-size="18" font-weight="700" letter-spacing="1">📊 六月第一日 · 风格切换确认</text>
  <text x="400" y="58" text-anchor="middle" fill="#94A3B8" font-size="12">2026年6月1日 | 3774只上涨 · 166只涨停 · 但三大指数齐跌</text>

  <!-- ===== Left section: 指数在跌 ===== -->
  <rect x="25" y="80" width="235" height="300" rx="10" fill="#FAFAFA" stroke="#FECACA" stroke-width="1.5"/>
  <rect x="25" y="80" width="235" height="36" rx="10" fill="url(#headerRed)"/>
  <rect x="25" y="106" width="235" height="10" fill="url(#headerRed)"/>
  <text x="143" y="104" text-anchor="middle" fill="#fff" font-size="15" font-weight="700">📉 指数在跌</text>

  <text x="40" y="140" fill="#1E293B" font-size="13" font-weight="600">上证指数</text>
  <text x="245" y="140" text-anchor="end" fill="#EF4444" font-size="13" font-weight="700">-0.27%</text>
  <line x1="40" y1="148" x2="245" y2="148" stroke="#F1F5F9" stroke-width="1"/>

  <text x="40" y="168" fill="#1E293B" font-size="13" font-weight="600">深证成指</text>
  <text x="245" y="168" text-anchor="end" fill="#EF4444" font-size="13" font-weight="700">-1.51%</text>
  <line x1="40" y1="176" x2="245" y2="176" stroke="#F1F5F9" stroke-width="1"/>

  <text x="40" y="196" fill="#1E293B" font-size="13" font-weight="600">创业板指</text>
  <text x="245" y="196" text-anchor="end" fill="#EF4444" font-size="13" font-weight="700">-2.15%</text>
  <line x1="40" y1="204" x2="245" y2="204" stroke="#F1F5F9" stroke-width="1"/>

  <text x="40" y="224" fill="#1E293B" font-size="13" font-weight="600">科创50</text>
  <text x="245" y="224" text-anchor="end" fill="#EF4444" font-size="13" font-weight="700">-5.00%</text>

  <!-- Left bottom: 被砸板块 -->
  <rect x="38" y="245" width="208" height="24" rx="5" fill="#FEF2F2"/>
  <text x="142" y="262" text-anchor="middle" fill="#DC2626" font-size="11" font-weight="600">半导体净流出 -276亿</text>
  <rect x="38" y="274" width="208" height="24" rx="5" fill="#FEF2F2"/>
  <text x="142" y="291" text-anchor="middle" fill="#DC2626" font-size="11" font-weight="600">通信设备净流出 -65亿</text>
  <rect x="38" y="303" width="208" height="24" rx="5" fill="#FEF2F2"/>
  <text x="142" y="320" text-anchor="middle" fill="#DC2626" font-size="11" font-weight="600">科创50连续两日跌5%</text>

  <!-- Bottom insight -->
  <rect x="38" y="340" width="208" height="28" rx="6" fill="#FFF7ED"/>
  <text x="142" y="359" text-anchor="middle" fill="#D97706" font-size="11" font-weight="600">⚡ 科技硬件集体退潮</text>

  <!-- ===== Arrow ===== -->
  <text x="273" y="230" font-size="28" fill="#D4A017" font-weight="700">→</text>
  <text x="273" y="255" fill="#D4A017" font-size="10" text-anchor="middle" font-weight="600">资金<br/>切换</text>

  <!-- ===== Middle section: 个股在涨 ===== -->
  <rect x="290" y="80" width="250" height="300" rx="10" fill="#FAFAFA" stroke="#BBF7D0" stroke-width="1.5"/>
  <rect x="290" y="80" width="250" height="36" rx="10" fill="url(#headerGreen)"/>
  <rect x="290" y="106" width="250" height="10" fill="url(#headerGreen)"/>
  <text x="415" y="104" text-anchor="middle" fill="#fff" font-size="15" font-weight="700">📈 个股在涨</text>

  <text x="305" y="140" fill="#1E293B" font-size="13" font-weight="600">上涨个股</text>
  <text x="525" y="140" text-anchor="end" fill="#16A34A" font-size="17" font-weight="700">3,774</text>
  <line x1="305" y1="148" x2="525" y2="148" stroke="#F1F5F9" stroke-width="1"/>

  <text x="305" y="170" fill="#1E293B" font-size="13" font-weight="600">涨停家数</text>
  <text x="525" y="170" text-anchor="end" fill="#16A34A" font-size="17" font-weight="700">166</text>

  <!-- Money flow destinations -->
  <rect x="303" y="195" width="224" height="24" rx="5" fill="#F0FDF4"/>
  <text x="415" y="212" text-anchor="middle" fill="#16A34A" font-size="11" font-weight="600">🔥 煤炭 +6% · 7股涨停</text>
  <rect x="303" y="223" width="224" height="24" rx="5" fill="#F0FDF4"/>
  <text x="415" y="240" text-anchor="middle" fill="#16A34A" font-size="11" font-weight="600">🤖 AI应用 14只涨停</text>
  <rect x="303" y="251" width="224" height="24" rx="5" fill="#F0FDF4"/>
  <text x="415" y="268" text-anchor="middle" fill="#16A34A" font-size="11" font-weight="600">💻 AI PC 涨停潮</text>
  <rect x="303" y="279" width="224" height="24" rx="5" fill="#F0FDF4"/>
  <text x="415" y="296" text-anchor="middle" fill="#16A34A" font-size="11" font-weight="600">⚡ 电力 粤电力A 4连板</text>

  <!-- Bottom insight -->
  <rect x="303" y="340" width="224" height="28" rx="6" fill="#FEF3C7"/>
  <text x="415" y="355" text-anchor="middle" fill="#92400E" font-size="11" font-weight="600">💡 风格切换确认：五月退场，六月登场</text>
  <text x="415" y="367" text-anchor="middle" fill="#92400E" font-size="9">半导体退潮 → AI应用+煤炭+电力接棒</text>

  <!-- ===== Right section: 本周关注 ===== -->
  <rect x="555" y="80" width="220" height="300" rx="10" fill="#FAFAFA" stroke="#BFDBFE" stroke-width="1.5"/>
  <rect x="555" y="80" width="220" height="36" rx="10" fill="url(#headerBlue)"/>
  <rect x="555" y="106" width="220" height="10" fill="url(#headerBlue)"/>
  <text x="665" y="104" text-anchor="middle" fill="#fff" font-size="15" font-weight="700">📅 本周关注</text>

  <rect x="570" y="128" width="190" height="22" rx="5" fill="#EFF6FF" stroke="#DBEAFE" stroke-width="0.5"/>
  <text x="665" y="143" text-anchor="middle" fill="#1D4ED8" font-size="10" font-weight="600">周一 · N1X发布 ✓</text>
  <rect x="570" y="154" width="190" height="22" rx="5" fill="#EFF6FF" stroke="#DBEAFE" stroke-width="0.5"/>
  <text x="665" y="169" text-anchor="middle" fill="#1D4ED8" font-size="10" font-weight="600">周三 · ADP就业</text>
  <rect x="570" y="180" width="190" height="22" rx="5" fill="#FFF7ED" stroke="#FED7AA" stroke-width="0.5"/>
  <text x="665" y="195" text-anchor="middle" fill="#D97706" font-size="10" font-weight="600">周五 · 非农 ★★★</text>

  <line x1="570" y1="212" x2="760" y2="212" stroke="#E2E8F0" stroke-width="0.5"/>

  <text x="665" y="232" text-anchor="middle" fill="#475569" font-size="10">美伊谈判再拉锯</text>
  <text x="665" y="250" text-anchor="middle" fill="#475569" font-size="10">油价弹回$90</text>
  <text x="665" y="268" text-anchor="middle" fill="#475569" font-size="10">黄金$4,527盘整</text>
  <text x="665" y="286" text-anchor="middle" fill="#475569" font-size="10">PMI 50.0临界点</text>

  <rect x="570" y="310" width="190" height="58" rx="8" fill="#FEF3C7" stroke="#FDE68A" stroke-width="0.5"/>
  <text x="665" y="328" text-anchor="middle" fill="#92400E" font-size="10" font-weight="600">关键判断</text>
  <text x="665" y="345" text-anchor="middle" fill="#92400E" font-size="9">关注低位启动方向</text>
  <text x="665" y="360" text-anchor="middle" fill="#92400E" font-size="9">不追还在跌的老主线</text>

  <!-- Footer -->
  <text x="400" y="392" text-anchor="middle" fill="#94A3B8" font-size="9">扬说财经 · 2026.06.01 晚报 | 数据来源：东方财富/每日经济新闻/证券时报</text>
</svg>
