<svg xmlns="http://www.w3.org/2000/svg" viewBox="0 0 768 512" width="768" height="512" font-family="Microsoft YaHei, SimHei, PingFang SC, sans-serif">
  <rect width="768" height="512" fill="#FAFBFC"/>
  <defs>
    <marker id="agold" markerWidth="8" markerHeight="6" refX="8" refY="3" orient="auto"><polygon points="0 0, 8 3, 0 6" fill="#D4A017"/></marker>
    <marker id="ar" markerWidth="8" markerHeight="6" refX="8" refY="3" orient="auto"><polygon points="0 0, 8 3, 0 6" fill="#DC2626"/></marker>
    <marker id="ag" markerWidth="8" markerHeight="6" refX="8" refY="3" orient="auto"><polygon points="0 0, 8 3, 0 6" fill="#16A34A"/></marker>
    <marker id="apurple" markerWidth="8" markerHeight="6" refX="8" refY="3" orient="auto"><polygon points="0 0, 8 3, 0 6" fill="#7C3AED"/></marker>
  </defs>
<rect x="0" y="0" width="768" height="44" fill="#D4A017" opacity="0.08"/>
  <text x="384.0" y="30" font-size="18" fill="#D4A017" text-anchor="middle" font-weight="bold">科技：SpaceX火箭一枝独秀·A股硬科技制度红利</text><line x1="30" y1="380" x2="738" y2="380" stroke="#CBD5E1" stroke-width="2"/><ellipse cx="384" cy="230" rx="35" ry="95" fill="#FFF8E7" stroke="#DC2626" stroke-width="3"/><polygon points="349,145 384,85 419,145" fill="#FEF2F2" stroke="#DC2626" stroke-width="2.5" stroke-linejoin="round"/><polygon points="358,320 384,370 410,320" fill="#FEE2E2" stroke="#DC2626" stroke-width="2"/><polygon points="364,340 384,380 404,340" fill="#DC2626" opacity="0.5"/><text x="384" y="395" font-size="13" fill="#DC2626" text-anchor="middle" font-weight="bold">SpaceX $2.66万亿</text><text x="384" y="413" font-size="10" fill="#991B1B" text-anchor="middle" font-weight="normal">四日累涨+50%·超越亚马逊</text><path d="M384,85 Q200,40 150,200" fill="none" stroke="#F59E0B" stroke-width="2" stroke-dasharray="8,4"/><text x="220" y="60" font-size="10" fill="#F59E0B" text-anchor="middle" font-weight="normal">估值皮筋：暴涨后与基本面距离</text><text x="220" y="76" font-size="10" fill="#D4A017" text-anchor="middle" font-weight="normal">合理区间 vs 当前市值</text><ellipse cx="120" cy="375" rx="42" ry="14" fill="#FEF2F2" stroke="#DC2626" stroke-width="1.5"/><text x="120" y="377" font-size="10" fill="#DC2626" text-anchor="middle" font-weight="normal">费半-5.7%</text><ellipse cx="230" cy="375" rx="42" ry="14" fill="#FEF2F2" stroke="#DC2626" stroke-width="1.5"/><text x="230" y="377" font-size="10" fill="#DC2626" text-anchor="middle" font-weight="normal">英伟达-2%</text><ellipse cx="540" cy="375" rx="42" ry="14" fill="#FEF2F2" stroke="#DC2626" stroke-width="1.5"/><text x="540" y="377" font-size="10" fill="#DC2626" text-anchor="middle" font-weight="normal">Meta-2.8%</text><ellipse cx="650" cy="375" rx="42" ry="14" fill="#FEF2F2" stroke="#DC2626" stroke-width="1.5"/><text x="650" y="377" font-size="10" fill="#DC2626" text-anchor="middle" font-weight="normal">AMD-7.3%</text><rect x="80" y="430" width="610" height="65" rx="8" fill="#FFF8E7" stroke="#D4A017" stroke-width="2" stroke-dasharray="6,3"/><text x="384" y="455" font-size="13" fill="#B8860B" text-anchor="middle" font-weight="bold">科创板第五套标准扩至AI大模型</text><text x="250" y="480" font-size="12" fill="#B8860B" text-anchor="middle" font-weight="bold">"卖铲子给淘金者"</text><text x="500" y="480" font-size="12" fill="#B8860B" text-anchor="middle" font-weight="bold">硬科技=制度红利+政策意志</text><circle cx="100" cy="327.4" r="10" fill="#E2E8F0" stroke="#7C3AED" stroke-width="2"/>
  <polygon points="84.0,337.4 116.0,337.4 120.0,350.0 80.0,350.0" fill="#FFF8E7" stroke="#7C3AED" stroke-width="2" stroke-linejoin="round"/>
  <line x1="93" y1="350.0" x2="91" y2="359.8" stroke="#7C3AED" stroke-width="2.5" stroke-linecap="round"/>
  <line x1="107" y1="350.0" x2="109" y2="359.8" stroke="#7C3AED" stroke-width="2.5" stroke-linecap="round"/>
  <line x1="84.0" y1="340.54999999999995" x2="74.0" y2="348.54999999999995" stroke="#7C3AED" stroke-width="2" stroke-linecap="round"/>
  <line x1="116.0" y1="340.54999999999995" x2="126.0" y2="348.54999999999995" stroke="#7C3AED" stroke-width="2" stroke-linecap="round"/><circle cx="660" cy="327.4" r="10" fill="#E2E8F0" stroke="#7C3AED" stroke-width="2"/>
  <polygon points="644.0,337.4 676.0,337.4 680.0,350.0 640.0,350.0" fill="#FFF8E7" stroke="#7C3AED" stroke-width="2" stroke-linejoin="round"/>
  <line x1="653" y1="350.0" x2="651" y2="359.8" stroke="#7C3AED" stroke-width="2.5" stroke-linecap="round"/>
  <line x1="667" y1="350.0" x2="669" y2="359.8" stroke="#7C3AED" stroke-width="2.5" stroke-linecap="round"/>
  <line x1="644.0" y1="340.54999999999995" x2="634.0" y2="348.54999999999995" stroke="#7C3AED" stroke-width="2" stroke-linecap="round"/>
  <line x1="676.0" y1="340.54999999999995" x2="686.0" y2="348.54999999999995" stroke="#7C3AED" stroke-width="2" stroke-linecap="round"/><text x="384.0" y="502" font-size="11" fill="#94A3B8" text-anchor="middle">一边是SpaceX估值皮筋越拉越紧，一边是A股硬科技制度红利刚刚开始</text></svg>