<svg xmlns="http://www.w3.org/2000/svg" viewBox="0 0 768 512" width="768" height="512" font-family="Microsoft YaHei, SimHei, PingFang SC, sans-serif">
  <rect width="768" height="512" fill="#FAFBFC"/>
  <defs>
    <marker id="agold" markerWidth="8" markerHeight="6" refX="8" refY="3" orient="auto"><polygon points="0 0, 8 3, 0 6" fill="#D4A017"/></marker>
    <marker id="ar" markerWidth="8" markerHeight="6" refX="8" refY="3" orient="auto"><polygon points="0 0, 8 3, 0 6" fill="#DC2626"/></marker>
    <marker id="ag" markerWidth="8" markerHeight="6" refX="8" refY="3" orient="auto"><polygon points="0 0, 8 3, 0 6" fill="#16A34A"/></marker>
    <marker id="apurple" markerWidth="8" markerHeight="6" refX="8" refY="3" orient="auto"><polygon points="0 0, 8 3, 0 6" fill="#7C3AED"/></marker>
  </defs>
<rect x="0" y="0" width="768" height="44" fill="#D4A017" opacity="0.08"/>
  <text x="384.0" y="30" font-size="18" fill="#D4A017" text-anchor="middle" font-weight="bold">6.17 晚报速览：科创50暴涨·一九分化·全球等FOMC</text><ellipse cx="160" cy="230" rx="28" ry="85" fill="#FFF8E7" stroke="#DC2626" stroke-width="3"/><polygon points="132,140 160,95 188,140" fill="#FEF2F2" stroke="#DC2626" stroke-width="2.5" stroke-linejoin="round"/><polygon points="144,310 160,345 176,310" fill="#FEE2E2" stroke="#DC2626" stroke-width="1.5"/><polygon points="150,325 160,350 170,325" fill="#DC2626" opacity="0.6"/><text x="160" y="365" font-size="14" fill="#DC2626" text-anchor="middle" font-weight="bold">科创50 +4.69%</text><text x="160" y="383" font-size="10" fill="#991B1B" text-anchor="middle" font-weight="normal">半导体净流入154亿</text><path d="M546,280 Q554,270 560,270 Q566,270 574,280 Z" fill="#F1F5F9" stroke="#16A34A" stroke-width="1.5"/><path d="M596,295 Q604,285 610,285 Q616,285 624,295 Z" fill="#F1F5F9" stroke="#16A34A" stroke-width="1.5"/><path d="M506,305 Q514,295 520,295 Q526,295 534,305 Z" fill="#F1F5F9" stroke="#16A34A" stroke-width="1.5"/><path d="M576,320 Q584,310 590,310 Q596,310 604,320 Z" fill="#F1F5F9" stroke="#16A34A" stroke-width="1.5"/><path d="M536,340 Q544,330 550,330 Q556,330 564,340 Z" fill="#F1F5F9" stroke="#16A34A" stroke-width="1.5"/><path d="M616,315 Q624,305 630,305 Q636,305 644,315 Z" fill="#F1F5F9" stroke="#16A34A" stroke-width="1.5"/><text x="570" y="370" font-size="13" fill="#16A34A" text-anchor="middle" font-weight="bold">3734只个股下跌</text><text x="570" y="388" font-size="11" fill="#64748B" text-anchor="middle" font-weight="normal">中位数 -1.19%</text><rect x="372" y="450" width="24" height="30" rx="3" fill="#F1F5F9" stroke="#475569" stroke-width="2"/>
  <rect x="354" y="472" width="60" height="8" rx="3" fill="#E2E8F0" stroke="#475569" stroke-width="1.5"/>
  <line x1="384" y1="450" x2="384" y2="380" stroke="#475569" stroke-width="2.5"/>
  <line x1="284.97319312584295" y1="393.91731009600653" x2="483.02680687415705" y2="366.08268990399347" stroke="#475569" stroke-width="3" stroke-linecap="round"/>
  <ellipse cx="284.97319312584295" cy="411.91731009600653" rx="45" ry="12" fill="#DC2626" opacity="0.15" stroke="#DC2626" stroke-width="1.5"/>
  <ellipse cx="483.02680687415705" cy="384.08268990399347" rx="45" ry="12" fill="#16A34A" opacity="0.15" stroke="#16A34A" stroke-width="1.5"/>
  <line x1="284.97319312584295" y1="393.91731009600653" x2="284.97319312584295" y2="405.91731009600653" stroke="#475569" stroke-width="1.5"/>
  <line x1="483.02680687415705" y1="366.08268990399347" x2="483.02680687415705" y2="378.08268990399347" stroke="#475569" stroke-width="1.5"/>
  <text x="284.97319312584295" y="431.91731009600653" font-size="10" fill="#DC2626" text-anchor="middle" font-weight="bold">指数↑</text>
  <text x="483.02680687415705" y="404.08268990399347" font-size="10" fill="#16A34A" text-anchor="middle" font-weight="bold">个股↓</text><text x="384" y="350" font-size="14" fill="#DC2626" text-anchor="middle" font-weight="bold">一九分化</text><circle cx="384" cy="120" r="26" fill="white" stroke="#475569" stroke-width="2.5"/>
  <circle cx="384" cy="120" r="3" fill="#475569"/>
  <line x1="384.0" y1="100.0" x2="384.0" y2="96.0" stroke="#475569" stroke-width="1.5"/>
  <line x1="394.0" y1="102.67949192431122" x2="396.0" y2="99.21539030917347" stroke="#475569" stroke-width="1.5"/>
  <line x1="401.3205080756888" y1="110.0" x2="404.7846096908265" y2="108.0" stroke="#475569" stroke-width="1.5"/>
  <line x1="404.0" y1="120.0" x2="408.0" y2="120.0" stroke="#475569" stroke-width="1.5"/>
  <line x1="401.3205080756888" y1="130.0" x2="404.7846096908265" y2="132.0" stroke="#475569" stroke-width="1.5"/>
  <line x1="394.0" y1="137.32050807568876" x2="396.0" y2="140.78460969082653" stroke="#475569" stroke-width="1.5"/>
  <line x1="384.0" y1="140.0" x2="384.0" y2="144.0" stroke="#475569" stroke-width="1.5"/>
  <line x1="374.0" y1="137.32050807568876" x2="372.0" y2="140.78460969082653" stroke="#475569" stroke-width="1.5"/>
  <line x1="366.6794919243112" y1="130.0" x2="363.2153903091735" y2="132.0" stroke="#475569" stroke-width="1.5"/>
  <line x1="364.0" y1="120.0" x2="360.0" y2="120.0" stroke="#475569" stroke-width="1.5"/>
  <line x1="366.6794919243112" y1="110.0" x2="363.2153903091735" y2="108.0" stroke="#475569" stroke-width="1.5"/>
  <line x1="374.0" y1="102.67949192431124" x2="372.0" y2="99.21539030917347" stroke="#475569" stroke-width="1.5"/>
  <line x1="384" y1="120" x2="373.8883730290324" y2="109.88837302903237" stroke="#D4A017" stroke-width="2.5" stroke-linecap="round"/><text x="430" y="118" font-size="13" fill="#D4A017" text-anchor="start" font-weight="bold">FOMC倒计时</text><text x="430" y="138" font-size="10" fill="#64748B" text-anchor="start" font-weight="normal">凌晨2:00 沃什首秀</text><circle cx="60" cy="460" r="11" fill="none" stroke="#D4A017" stroke-width="3"/>
  <circle cx="60" cy="460" r="6.050000000000001" fill="none" stroke="#D4A017" stroke-width="1.5"/>
  <circle cx="60" cy="460" r="2.2" fill="#D4A017"/>
  <rect x="68.0" y="457.0" width="6" height="6" rx="1" fill="#D4A017" transform="rotate(0.0,71.0,460.0)"/>
  <rect x="62.5" y="466.52627944162884" width="6" height="6" rx="1" fill="#D4A017" transform="rotate(59.99999999999999,65.5,469.52627944162884)"/>
  <rect x="51.5" y="466.52627944162884" width="6" height="6" rx="1" fill="#D4A017" transform="rotate(119.99999999999999,54.5,469.52627944162884)"/>
  <rect x="46.0" y="457.0" width="6" height="6" rx="1" fill="#D4A017" transform="rotate(180.0,49.0,460.0)"/>
  <rect x="51.49999999999999" y="447.47372055837116" width="6" height="6" rx="1" fill="#D4A017" transform="rotate(239.99999999999997,54.49999999999999,450.47372055837116)"/>
  <rect x="62.5" y="447.47372055837116" width="6" height="6" rx="1" fill="#D4A017" transform="rotate(300.00000000000006,65.5,450.47372055837116)"/><text x="60" y="482" font-size="9" fill="#D4A017" text-anchor="middle" font-weight="normal">陆家嘴论坛</text><circle cx="190" cy="460" r="11" fill="none" stroke="#D4A017" stroke-width="3"/>
  <circle cx="190" cy="460" r="6.050000000000001" fill="none" stroke="#D4A017" stroke-width="1.5"/>
  <circle cx="190" cy="460" r="2.2" fill="#D4A017"/>
  <rect x="198.0" y="457.0" width="6" height="6" rx="1" fill="#D4A017" transform="rotate(0.0,201.0,460.0)"/>
  <rect x="192.5" y="466.52627944162884" width="6" height="6" rx="1" fill="#D4A017" transform="rotate(59.99999999999999,195.5,469.52627944162884)"/>
  <rect x="181.5" y="466.52627944162884" width="6" height="6" rx="1" fill="#D4A017" transform="rotate(119.99999999999999,184.5,469.52627944162884)"/>
  <rect x="176.0" y="457.0" width="6" height="6" rx="1" fill="#D4A017" transform="rotate(180.0,179.0,460.0)"/>
  <rect x="181.5" y="447.47372055837116" width="6" height="6" rx="1" fill="#D4A017" transform="rotate(239.99999999999997,184.5,450.47372055837116)"/>
  <rect x="192.5" y="447.47372055837116" width="6" height="6" rx="1" fill="#D4A017" transform="rotate(300.00000000000006,195.5,450.47372055837116)"/><text x="190" y="482" font-size="9" fill="#D4A017" text-anchor="middle" font-weight="normal">硬科技政策</text><circle cx="330" cy="460" r="11" fill="none" stroke="#DC2626" stroke-width="3"/>
  <circle cx="330" cy="460" r="6.050000000000001" fill="none" stroke="#DC2626" stroke-width="1.5"/>
  <circle cx="330" cy="460" r="2.2" fill="#DC2626"/>
  <rect x="338.0" y="457.0" width="6" height="6" rx="1" fill="#DC2626" transform="rotate(0.0,341.0,460.0)"/>
  <rect x="332.5" y="466.52627944162884" width="6" height="6" rx="1" fill="#DC2626" transform="rotate(59.99999999999999,335.5,469.52627944162884)"/>
  <rect x="321.5" y="466.52627944162884" width="6" height="6" rx="1" fill="#DC2626" transform="rotate(119.99999999999999,324.5,469.52627944162884)"/>
  <rect x="316.0" y="457.0" width="6" height="6" rx="1" fill="#DC2626" transform="rotate(180.0,319.0,460.0)"/>
  <rect x="321.5" y="447.47372055837116" width="6" height="6" rx="1" fill="#DC2626" transform="rotate(239.99999999999997,324.5,450.47372055837116)"/>
  <rect x="332.5" y="447.47372055837116" width="6" height="6" rx="1" fill="#DC2626" transform="rotate(300.00000000000006,335.5,450.47372055837116)"/><text x="330" y="482" font-size="9" fill="#DC2626" text-anchor="middle" font-weight="normal">半导体涨停</text><circle cx="470" cy="460" r="11" fill="none" stroke="#16A34A" stroke-width="3"/>
  <circle cx="470" cy="460" r="6.050000000000001" fill="none" stroke="#16A34A" stroke-width="1.5"/>
  <circle cx="470" cy="460" r="2.2" fill="#16A34A"/>
  <rect x="478.0" y="457.0" width="6" height="6" rx="1" fill="#16A34A" transform="rotate(0.0,481.0,460.0)"/>
  <rect x="472.5" y="466.52627944162884" width="6" height="6" rx="1" fill="#16A34A" transform="rotate(59.99999999999999,475.5,469.52627944162884)"/>
  <rect x="461.5" y="466.52627944162884" width="6" height="6" rx="1" fill="#16A34A" transform="rotate(119.99999999999999,464.5,469.52627944162884)"/>
  <rect x="456.0" y="457.0" width="6" height="6" rx="1" fill="#16A34A" transform="rotate(180.0,459.0,460.0)"/>
  <rect x="461.5" y="447.47372055837116" width="6" height="6" rx="1" fill="#16A34A" transform="rotate(239.99999999999997,464.5,450.47372055837116)"/>
  <rect x="472.5" y="447.47372055837116" width="6" height="6" rx="1" fill="#16A34A" transform="rotate(300.00000000000006,475.5,450.47372055837116)"/><text x="470" y="482" font-size="9" fill="#16A34A" text-anchor="middle" font-weight="normal">3700股下跌</text><circle cx="610" cy="460" r="11" fill="none" stroke="#D4A017" stroke-width="3"/>
  <circle cx="610" cy="460" r="6.050000000000001" fill="none" stroke="#D4A017" stroke-width="1.5"/>
  <circle cx="610" cy="460" r="2.2" fill="#D4A017"/>
  <rect x="618.0" y="457.0" width="6" height="6" rx="1" fill="#D4A017" transform="rotate(0.0,621.0,460.0)"/>
  <rect x="612.5" y="466.52627944162884" width="6" height="6" rx="1" fill="#D4A017" transform="rotate(59.99999999999999,615.5,469.52627944162884)"/>
  <rect x="601.5" y="466.52627944162884" width="6" height="6" rx="1" fill="#D4A017" transform="rotate(119.99999999999999,604.5,469.52627944162884)"/>
  <rect x="596.0" y="457.0" width="6" height="6" rx="1" fill="#D4A017" transform="rotate(180.0,599.0,460.0)"/>
  <rect x="601.5" y="447.47372055837116" width="6" height="6" rx="1" fill="#D4A017" transform="rotate(239.99999999999997,604.5,450.47372055837116)"/>
  <rect x="612.5" y="447.47372055837116" width="6" height="6" rx="1" fill="#D4A017" transform="rotate(300.00000000000006,615.5,450.47372055837116)"/><text x="610" y="482" font-size="9" fill="#D4A017" text-anchor="middle" font-weight="normal">FOMC</text><text x="384.0" y="498" font-size="11" fill="#94A3B8" text-anchor="middle">指数上涨但亏钱效应显著——这不是全面牛市，是极致抱团</text></svg>