<svg xmlns="http://www.w3.org/2000/svg" viewBox="0 0 768 512" width="768" height="512" font-family="Microsoft YaHei, SimHei, PingFang SC, sans-serif">
  <rect width="768" height="512" fill="#FAFBFC"/>
  <defs>
    <marker id="agold" markerWidth="8" markerHeight="6" refX="8" refY="3" orient="auto"><polygon points="0 0, 8 3, 0 6" fill="#D4A017"/></marker>
    <marker id="ar" markerWidth="8" markerHeight="6" refX="8" refY="3" orient="auto"><polygon points="0 0, 8 3, 0 6" fill="#DC2626"/></marker>
    <marker id="ag" markerWidth="8" markerHeight="6" refX="8" refY="3" orient="auto"><polygon points="0 0, 8 3, 0 6" fill="#16A34A"/></marker>
    <marker id="apurple" markerWidth="8" markerHeight="6" refX="8" refY="3" orient="auto"><polygon points="0 0, 8 3, 0 6" fill="#7C3AED"/></marker>
  </defs>
<rect x="0" y="0" width="768" height="44" fill="#D4A017" opacity="0.08"/>
  <text x="384.0" y="30" font-size="18" fill="#D4A017" text-anchor="middle" font-weight="bold">FOMC：沃什首秀·三岔路口·全球屏息等待</text><rect x="334" y="100" width="100" height="110" rx="4" fill="#FFF8E7" stroke="#D4A017" stroke-width="2.5"/><rect x="354" y="120" width="60" height="20" rx="2" fill="#FEF3C7" stroke="#D4A017" stroke-width="1"/><text x="384" y="134" font-size="12" fill="#B8860B" text-anchor="middle" font-weight="bold">FOMC</text><rect x="354" y="148" width="25" height="18" rx="1" fill="#FFF8E7" stroke="#D4A017" stroke-width="1"/><rect x="384" y="148" width="25" height="18" rx="1" fill="#FFF8E7" stroke="#D4A017" stroke-width="1"/><rect x="354" y="172" width="25" height="18" rx="1" fill="#FFF8E7" stroke="#D4A017" stroke-width="1"/><rect x="384" y="172" width="25" height="18" rx="1" fill="#FFF8E7" stroke="#D4A017" stroke-width="1"/><rect x="369" y="190" width="30" height="20" rx="3" fill="#F1F5F9" stroke="#D4A017" stroke-width="1.5"/><circle cx="480" cy="130" r="30" fill="white" stroke="#475569" stroke-width="2.5"/>
  <circle cx="480" cy="130" r="3" fill="#475569"/>
  <line x1="480.0" y1="106.0" x2="480.0" y2="102.0" stroke="#475569" stroke-width="1.5"/>
  <line x1="492.0" y1="109.21539030917347" x2="494.0" y2="105.75128869403571" stroke="#475569" stroke-width="1.5"/>
  <line x1="500.7846096908265" y1="118.0" x2="504.24871130596426" y2="116.0" stroke="#475569" stroke-width="1.5"/>
  <line x1="504.0" y1="130.0" x2="508.0" y2="130.0" stroke="#475569" stroke-width="1.5"/>
  <line x1="500.7846096908265" y1="142.0" x2="504.24871130596426" y2="144.0" stroke="#475569" stroke-width="1.5"/>
  <line x1="492.0" y1="150.78460969082653" x2="494.0" y2="154.2487113059643" stroke="#475569" stroke-width="1.5"/>
  <line x1="480.0" y1="154.0" x2="480.0" y2="158.0" stroke="#475569" stroke-width="1.5"/>
  <line x1="468.0" y1="150.78460969082653" x2="466.0" y2="154.2487113059643" stroke="#475569" stroke-width="1.5"/>
  <line x1="459.2153903091735" y1="142.0" x2="455.75128869403574" y2="144.0" stroke="#475569" stroke-width="1.5"/>
  <line x1="456.0" y1="130.0" x2="452.0" y2="130.0" stroke="#475569" stroke-width="1.5"/>
  <line x1="459.2153903091735" y1="118.0" x2="455.75128869403574" y2="116.0" stroke="#475569" stroke-width="1.5"/>
  <line x1="468.0" y1="109.21539030917347" x2="466.0" y2="105.75128869403572" stroke="#475569" stroke-width="1.5"/>
  <line x1="480" y1="130" x2="468.332738110422" y2="118.33273811042197" stroke="#D4A017" stroke-width="2.5" stroke-linecap="round"/><text x="530" y="128" font-size="11" fill="#475569" text-anchor="start" font-weight="bold">北京时间</text><text x="530" y="146" font-size="11" fill="#DC2626" text-anchor="start" font-weight="bold">凌晨2:00</text><circle cx="384" cy="230" r="6" fill="#D4A017"/><line x1="384" y1="230" x2="170" y2="310" stroke="#16A34A" stroke-width="3" stroke-linecap="round" marker-end="url(#ag)"/><rect x="80" y="290" width="180" height="75" rx="10" fill="#F0FDF4" stroke="#16A34A" stroke-width="2"/><text x="170" y="318" font-size="15" fill="#16A34A" text-anchor="middle" font-weight="bold">🕊️ 鸽派</text><text x="170" y="338" font-size="11" fill="#166534" text-anchor="middle" font-weight="normal">沃什留白+宽松保留</text><text x="170" y="355" font-size="11" fill="#166534" text-anchor="middle" font-weight="normal">→ 美元弱·A股高开</text><line x1="384" y1="230" x2="384" y2="440" stroke="#DC2626" stroke-width="3" stroke-linecap="round" marker-end="url(#ar)"/><rect x="294" y="430" width="180" height="65" rx="10" fill="#FEF2F2" stroke="#DC2626" stroke-width="2"/><text x="384" y="458" font-size="15" fill="#DC2626" text-anchor="middle" font-weight="bold">🦅 鹰派</text><text x="384" y="478" font-size="11" fill="#991B1B" text-anchor="middle" font-weight="normal">删除宽松倾向·暗示加息</text><text x="384" y="493" font-size="10" fill="#991B1B" text-anchor="middle" font-weight="normal">→ A股低开·半导体回吐</text><line x1="384" y1="230" x2="610" y2="310" stroke="#D4A017" stroke-width="3" stroke-linecap="round" marker-end="url(#agold)"/><rect x="520" y="290" width="180" height="75" rx="10" fill="#FFF8E7" stroke="#D4A017" stroke-width="2"/><text x="610" y="318" font-size="15" fill="#B8860B" text-anchor="middle" font-weight="bold">⚖️ 中性</text><text x="610" y="338" font-size="11" fill="#92400E" text-anchor="middle" font-weight="normal">措辞微调方向不明</text><text x="610" y="355" font-size="11" fill="#92400E" text-anchor="middle" font-weight="normal">→ 窄幅震荡·等催化剂</text><circle cx="384" cy="205.8" r="10" fill="#E2E8F0" stroke="#D4A017" stroke-width="2"/>
  <polygon points="368.0,215.8 400.0,215.8 404.0,232.0 364.0,232.0" fill="#FFF8E7" stroke="#D4A017" stroke-width="2" stroke-linejoin="round"/>
  <line x1="377" y1="232.0" x2="375" y2="244.6" stroke="#D4A017" stroke-width="2.5" stroke-linecap="round"/>
  <line x1="391" y1="232.0" x2="393" y2="244.6" stroke="#D4A017" stroke-width="2.5" stroke-linecap="round"/>
  <line x1="368.0" y1="219.85000000000002" x2="358.0" y2="225.85000000000002" stroke="#D4A017" stroke-width="2" stroke-linecap="round"/>
  <line x1="400.0" y1="219.85000000000002" x2="422.0" y2="209.85000000000002" stroke="#D4A017" stroke-width="2" stroke-linecap="round"/><rect x="75" y="140" width="155" height="60" rx="6" fill="#F8FAFC" stroke="#94A3B8" stroke-width="1.5"/><text x="152" y="160" font-size="12" fill="#475569" text-anchor="middle" font-weight="bold">三大悬念</text><text x="152" y="178" font-size="10" fill="#64748B" text-anchor="middle" font-weight="normal">点阵图·留白·声明措辞</text><text x="384.0" y="502" font-size="11" fill="#94A3B8" text-anchor="middle">今晚最佳策略不是预测结果——而是准备好应对三种结果</text></svg>