<svg xmlns="http://www.w3.org/2000/svg" viewBox="0 0 768 512" width="768" height="512" font-family="Microsoft YaHei, SimHei, PingFang SC, sans-serif">
  <defs>
    <filter id="soft"><feDropShadow dx="0" dy="2" stdDeviation="2.5" flood-color="#3D3222" flood-opacity="0.12"/></filter>
    <filter id="med"><feDropShadow dx="0" dy="3" stdDeviation="4" flood-color="#3D3222" flood-opacity="0.16"/></filter>
    <filter id="deep"><feDropShadow dx="0" dy="4" stdDeviation="6" flood-color="#3D3222" flood-opacity="0.20"/></filter>
    <linearGradient id="sky" x1="0" y1="0" x2="0" y2="1"><stop offset="0%" stop-color="#FBF9F4"/><stop offset="100%" stop-color="#F4EFE6"/></linearGradient>
    <linearGradient id="bldg-warm" x1="0" y1="0" x2="0" y2="1"><stop offset="0%" stop-color="#FDF6EE"/><stop offset="100%" stop-color="#F5E6D3"/></linearGradient>
    <linearGradient id="bldg-cool" x1="0" y1="0" x2="0" y2="1"><stop offset="0%" stop-color="#F0F4F8"/><stop offset="100%" stop-color="#DCE4EE"/></linearGradient>
    <linearGradient id="roof-gold" x1="0" y1="0" x2="0" y2="1"><stop offset="0%" stop-color="#D4A017"/><stop offset="100%" stop-color="#B8860B"/></linearGradient>
    <linearGradient id="roof-slate" x1="0" y1="0" x2="0" y2="1"><stop offset="0%" stop-color="#475569"/><stop offset="100%" stop-color="#334155"/></linearGradient>
    <linearGradient id="roof-red" x1="0" y1="0" x2="0" y2="1"><stop offset="0%" stop-color="#DC2626"/><stop offset="100%" stop-color="#991B1B"/></linearGradient>
    <linearGradient id="gold-bar" x1="0" y1="0" x2="1" y2="0"><stop offset="0%" stop-color="#FDE68A"/><stop offset="50%" stop-color="#FEF3C7"/><stop offset="100%" stop-color="#FDE68A"/></linearGradient>
    <linearGradient id="rocket-body" x1="0" y1="0" x2="1" y2="0"><stop offset="0%" stop-color="#FEF2F2"/><stop offset="40%" stop-color="#FEE2E2"/><stop offset="100%" stop-color="#FECACA"/></linearGradient>
    <linearGradient id="flame" x1="0" y1="0" x2="0" y2="1"><stop offset="0%" stop-color="#FEE2E2"/><stop offset="35%" stop-color="#FCA5A5"/><stop offset="70%" stop-color="#EF4444"/><stop offset="100%" stop-color="#DC2626"/></linearGradient>
    <linearGradient id="oil-well" x1="0" y1="0" x2="0" y2="1"><stop offset="0%" stop-color="#475569"/><stop offset="100%" stop-color="#1E293B"/></linearGradient>
    <linearGradient id="gold-vault" x1="0" y1="0" x2="0" y2="1"><stop offset="0%" stop-color="#FEF3C7"/><stop offset="100%" stop-color="#FDE68A"/></linearGradient>
    <marker id="ar" markerWidth="8" markerHeight="6" refX="7" refY="3" orient="auto"><polygon points="0 0, 8 3, 0 6" fill="#DC2626"/></marker>
    <marker id="ag" markerWidth="8" markerHeight="6" refX="7" refY="3" orient="auto"><polygon points="0 0, 8 3, 0 6" fill="#16A34A"/></marker>
    <marker id="agold" markerWidth="8" markerHeight="6" refX="7" refY="3" orient="auto"><polygon points="0 0, 8 3, 0 6" fill="#D4A017"/></marker>
    <marker id="ablue" markerWidth="8" markerHeight="6" refX="7" refY="3" orient="auto"><polygon points="0 0, 8 3, 0 6" fill="#1A56DB"/></marker>
  </defs>
<rect width="768" height="512" fill="url(#sky)"/>
  <rect x="0" y="0" width="768" height="42" fill="#D4A017" opacity="0.06"/>
  <line x1="0" y1="42" x2="768" y2="42" stroke="#D4A017" stroke-width="0.5" opacity="0.2"/>
  <text x="384" y="28" font-size="16" fill="#8B6914" text-anchor="middle" font-weight="bold" letter-spacing="0.5">A股：科创50暴涨4.69% vs 3734只个股下跌</text>
  <g filter="url(#med)">
  <rect x="-15.0" y="340" width="150" height="8" rx="2" fill="#E2DDD0" stroke="#C4A97D" stroke-width="0.8" opacity="0.6"/>
  <rect x="-8.0" y="348" width="136" height="8" rx="2" fill="#EDE9E0" stroke="#C4A97D" stroke-width="0.8" opacity="0.6"/>
  <rect x="-2.0" y="356" width="124" height="8" rx="2" fill="#F5F2EC" stroke="#C4A97D" stroke-width="0.8" opacity="0.6"/>
  <rect x="60.0" y="134" width="120" height="110" rx="3" fill="url(#bldg-warm)" stroke="#C4A97D" stroke-width="2"/>
  <polygon points="60.0,134 120,69 180.0,134" fill="url(#roof-gold)" stroke="#C4A97D" stroke-width="2" stroke-linejoin="round"/>
  <line x1="60.0" y1="134" x2="180.0" y2="134" stroke="#C4A97D" stroke-width="2"/>
  <circle cx="120" cy="106.5" r="10" fill="#FFFDF7" stroke="#C4A97D" stroke-width="1.5"/>
  <line x1="120" y1="98.5" x2="120" y2="114.5" stroke="#C4A97D" stroke-width="0.8" opacity="0.3"/>
  <line x1="112" y1="106.5" x2="128" y2="106.5" stroke="#C4A97D" stroke-width="0.8" opacity="0.3"/>
  <rect x="74.5" y="164" width="7" height="196" fill="#FDF8F0" stroke="#C4A97D" stroke-width="1.5" opacity="0.9"/>
  <rect x="71.5" y="160" width="13" height="5" rx="1" fill="#E8D5B7" stroke="#C4A97D" stroke-width="1" opacity="0.8"/>
  <rect x="95.5" y="164" width="7" height="196" fill="#FDF8F0" stroke="#C4A97D" stroke-width="1.5" opacity="0.9"/>
  <rect x="92.5" y="160" width="13" height="5" rx="1" fill="#E8D5B7" stroke="#C4A97D" stroke-width="1" opacity="0.8"/>
  <rect x="116.5" y="164" width="7" height="196" fill="#FDF8F0" stroke="#C4A97D" stroke-width="1.5" opacity="0.9"/>
  <rect x="113.5" y="160" width="13" height="5" rx="1" fill="#E8D5B7" stroke="#C4A97D" stroke-width="1" opacity="0.8"/>
  <rect x="137.5" y="164" width="7" height="196" fill="#FDF8F0" stroke="#C4A97D" stroke-width="1.5" opacity="0.9"/>
  <rect x="134.5" y="160" width="13" height="5" rx="1" fill="#E8D5B7" stroke="#C4A97D" stroke-width="1" opacity="0.8"/>
  <rect x="158.5" y="164" width="7" height="196" fill="#FDF8F0" stroke="#C4A97D" stroke-width="1.5" opacity="0.9"/>
  <rect x="155.5" y="160" width="13" height="5" rx="1" fill="#E8D5B7" stroke="#C4A97D" stroke-width="1" opacity="0.8"/>
  <rect x="102.0" y="322.2" width="36.0" height="41.8" rx="3" fill="#C4A97D" stroke="#C4A97D" stroke-width="1.5" opacity="0.7"/>
  <rect x="108.0" y="328.2" width="24.0" height="16.72" rx="1" fill="#FDF8F0" stroke="#C4A97D" stroke-width="1"/>
  <rect x="108.0" y="342.92" width="24.0" height="12.54" rx="1" fill="#FDF8F0" stroke="#C4A97D" stroke-width="1"/>
  <rect x="73.6" y="174" width="16" height="20" rx="2" fill="#FFFDF7" stroke="#C4A97D" stroke-width="1" opacity="0.8"/>
  <line x1="81.6" y1="174" x2="81.6" y2="194" stroke="#C4A97D" stroke-width="0.5" opacity="0.3"/>
  <rect x="150.4" y="174" width="16" height="20" rx="2" fill="#FFFDF7" stroke="#C4A97D" stroke-width="1" opacity="0.8"/>
  <line x1="158.4" y1="174" x2="158.4" y2="194" stroke="#C4A97D" stroke-width="0.5" opacity="0.3"/>
  </g>
<rect x="70.0" y="348" width="100" height="22" rx="6" fill="#FEF2F2" stroke="#FCA5A5" stroke-width="1.5" filter="url(#soft)"/>
  <text x="120" y="363.0" font-size="10" fill="#DC2626" text-anchor="middle" font-weight="bold">科创50 +4.69%</text>  <polygon points="106,165 120,125 134,165" fill="#FEE2E2" stroke="#DC2626" stroke-width="1.5"/>
<polygon points="112,97 120,85 128,97" fill="#DC2626"/>
<line x1="120" y1="95" x2="120" y2="155" stroke="#DC2626" stroke-width="2.5" marker-end="url(#ar)"/>
  <rect x="28" y="368" width="184" height="14" rx="3" fill="#FEF2F2" stroke="#FECACA" stroke-width="0.8"/>
  <text x="120" y="378" font-size="9" fill="#DC2626" text-anchor="middle" font-weight="bold">盛美上海 20CM涨停</text>
  <rect x="28" y="384" width="184" height="14" rx="3" fill="#FEF2F2" stroke="#FECACA" stroke-width="0.8"/>
  <text x="120" y="394" font-size="9" fill="#DC2626" text-anchor="middle" font-weight="bold">普冉股份 20CM涨停</text>
  <rect x="28" y="400" width="184" height="14" rx="3" fill="#FEF2F2" stroke="#FECACA" stroke-width="0.8"/>
  <text x="120" y="410" font-size="9" fill="#DC2626" text-anchor="middle" font-weight="bold">兆易创新 涨停·4100亿+</text>
  <line x1="260" y1="80" x2="500" y2="80" stroke="#DC2626" stroke-width="1" stroke-dasharray="6,4" opacity="0.4"/>
  <text x="384" y="72" font-size="10" fill="#DC2626" text-anchor="middle" font-weight="bold">"一九分化"裂谷</text>
  <rect x="520" y="100" width="220" height="210" rx="10" fill="#F0FDF4" stroke="#86EFAC" stroke-width="1.5" opacity="0.5"/>
  <text x="630" y="122" font-size="12" fill="#16A34A" text-anchor="middle" font-weight="bold">被抛弃的板块</text>
  <ellipse cx="520" cy="148" rx="36" ry="12" fill="#DCFCE7" stroke="#16A34A" stroke-width="1.5" opacity="0.7"/>
  <text x="520" y="152" font-size="9" fill="#16A34A" text-anchor="middle">白酒</text>
  <ellipse cx="600" cy="160" rx="36" ry="12" fill="#DCFCE7" stroke="#16A34A" stroke-width="1.5" opacity="0.7"/>
  <text x="600" y="164" font-size="9" fill="#16A34A" text-anchor="middle">汽车</text>
  <ellipse cx="540" cy="178" rx="36" ry="12" fill="#DCFCE7" stroke="#16A34A" stroke-width="1.5" opacity="0.7"/>
  <text x="540" y="182" font-size="9" fill="#16A34A" text-anchor="middle">煤炭</text>
  <ellipse cx="620" cy="192" rx="36" ry="12" fill="#DCFCE7" stroke="#16A34A" stroke-width="1.5" opacity="0.7"/>
  <text x="620" y="196" font-size="9" fill="#16A34A" text-anchor="middle">钢铁</text>
  <ellipse cx="560" cy="210" rx="36" ry="12" fill="#DCFCE7" stroke="#16A34A" stroke-width="1.5" opacity="0.7"/>
  <text x="560" y="214" font-size="9" fill="#16A34A" text-anchor="middle">商贸</text>
  <ellipse cx="640" cy="222" rx="36" ry="12" fill="#DCFCE7" stroke="#16A34A" stroke-width="1.5" opacity="0.7"/>
  <text x="640" y="226" font-size="9" fill="#16A34A" text-anchor="middle">零售</text>
  <rect x="530" y="250" width="200" height="52" rx="8" fill="white" stroke="#86EFAC" stroke-width="1.5" filter="url(#soft)"/>
  <text x="630" y="270" font-size="12" fill="#166534" text-anchor="middle" font-weight="bold">3734只个股下跌</text>
  <text x="630" y="288" font-size="10" fill="#166534" text-anchor="middle">中位数 -1.19% · 涨跌比 1:2.2</text>
<line x1="250" y1="70" x2="320" y2="70" stroke="#DC2626" stroke-width="2" stroke-linecap="round" marker-end="url(#ar)"/>
<line x1="450" y1="70" x2="380" y2="70" stroke="#16A34A" stroke-width="2" stroke-linecap="round" marker-end="url(#ag)"/>
  <rect x="60" y="420" width="650" height="44" rx="8" fill="#FFF8E7" stroke="#D4A017" stroke-width="2" filter="url(#soft)"/>
  <text x="384" y="440" font-size="12" fill="#92400E" text-anchor="middle" font-weight="bold">催化剂：陆家嘴论坛 — 科创板第五套标准扩至AI大模型</text>
  <text x="384" y="456" font-size="10" fill="#B8860B" text-anchor="middle">"硬科技" 从产业概念变为政策意志 → "卖铲子给淘金者"</text>
  <text x="384" y="506" font-size="9" fill="#A8A49A" text-anchor="middle">一九分化≠健康牛市。上涨广度越窄，抱团松动时回调越剧烈</text>
</svg>