<svg xmlns="http://www.w3.org/2000/svg" viewBox="0 0 768 512" width="768" height="512" font-family="Microsoft YaHei, SimHei, PingFang SC, sans-serif">
  <rect width="768" height="512" fill="#FAFBFC"/>
  <defs>
    <marker id="agold" markerWidth="8" markerHeight="6" refX="8" refY="3" orient="auto"><polygon points="0 0, 8 3, 0 6" fill="#D4A017"/></marker>
    <marker id="ar" markerWidth="8" markerHeight="6" refX="8" refY="3" orient="auto"><polygon points="0 0, 8 3, 0 6" fill="#DC2626"/></marker>
    <marker id="ag" markerWidth="8" markerHeight="6" refX="8" refY="3" orient="auto"><polygon points="0 0, 8 3, 0 6" fill="#16A34A"/></marker>
    <marker id="apurple" markerWidth="8" markerHeight="6" refX="8" refY="3" orient="auto"><polygon points="0 0, 8 3, 0 6" fill="#7C3AED"/></marker>
  </defs>
<rect x="0" y="0" width="768" height="44" fill="#D4A017" opacity="0.08"/>
  <text x="384.0" y="30" font-size="18" fill="#D4A017" text-anchor="middle" font-weight="bold">A股：科创50暴涨4.69% vs 3700只个股下跌</text><path d="M200,80 Q384,150 568,80" fill="none" stroke="#CBD5E1" stroke-width="1.5" stroke-dasharray="6,4"/><rect x="30" y="95" width="310" height="100" rx="10" fill="#FFF8E7" stroke="#D4A017" stroke-width="2"/><text x="185" y="125" font-size="14" fill="#D4A017" text-anchor="middle" font-weight="bold">半导体板块</text><ellipse cx="100" cy="170" rx="22" ry="65" fill="#FEF3C7" stroke="#DC2626" stroke-width="2.5"/><polygon points="78,115 100,75 122,115" fill="#FEF2F2" stroke="#DC2626" stroke-width="2"/><polygon points="85,230 100,260 115,230" fill="#FEE2E2" stroke="#DC2626" stroke-width="1.5"/><text x="100" y="275" font-size="14" fill="#DC2626" text-anchor="middle" font-weight="bold">+6.91%</text><text x="240" y="155" font-size="10" fill="#DC2626" text-anchor="middle" font-weight="normal">盛美上海 20CM</text><text x="240" y="173" font-size="10" fill="#DC2626" text-anchor="middle" font-weight="normal">普冉股份 20CM</text><text x="240" y="191" font-size="10" fill="#DC2626" text-anchor="middle" font-weight="normal">兆易创新 涨停</text><rect x="430" y="95" width="310" height="100" rx="10" fill="#F0FDF4" stroke="#16A34A" stroke-width="2"/><text x="585" y="125" font-size="13" fill="#16A34A" text-anchor="middle" font-weight="bold">白酒/汽车/煤炭/商贸</text><path d="M470,160 Q476,152 480,152 Q484,152 490,160 Z" fill="#F1F5F9" stroke="#16A34A" stroke-width="1.5"/><path d="M510,175 Q516,167 520,167 Q524,167 530,175 Z" fill="#F1F5F9" stroke="#16A34A" stroke-width="1.5"/><path d="M550,165 Q556,157 560,157 Q564,157 570,165 Z" fill="#F1F5F9" stroke="#16A34A" stroke-width="1.5"/><path d="M590,180 Q596,172 600,172 Q604,172 610,180 Z" fill="#F1F5F9" stroke="#16A34A" stroke-width="1.5"/><path d="M520,195 Q526,187 530,187 Q534,187 540,195 Z" fill="#F1F5F9" stroke="#16A34A" stroke-width="1.5"/><path d="M560,200 Q566,192 570,192 Q574,192 580,200 Z" fill="#F1F5F9" stroke="#16A34A" stroke-width="1.5"/><path d="M480,190 Q486,182 490,182 Q494,182 500,190 Z" fill="#F1F5F9" stroke="#16A34A" stroke-width="1.5"/><text x="585" y="225" font-size="11" fill="#16A34A" text-anchor="middle" font-weight="bold">资金净流出</text><text x="585" y="243" font-size="11" fill="#64748B" text-anchor="middle" font-weight="normal">3734只个股下跌 中位数-1.19%</text><text x="384" y="75" font-size="12" fill="#DC2626" text-anchor="middle" font-weight="bold">一九分化裂谷</text><line x1="250" y1="65" x2="384" y2="65" stroke="#DC2626" stroke-width="2" stroke-linecap="round" marker-end="url(#ar)"/><line x1="518" y1="65" x2="384" y2="65" stroke="#16A34A" stroke-width="2" stroke-linecap="round" marker-end="url(#ag)"/><rect x="80" y="310" width="610" height="80" rx="10" fill="#FFF8E7" stroke="#D4A017" stroke-width="2"/><text x="384" y="338" font-size="14" fill="#B8860B" text-anchor="middle" font-weight="bold">陆家嘴论坛 政策催化剂</text><text x="200" y="362" font-size="11" fill="#92400E" text-anchor="middle" font-weight="normal">科创板第五套标准</text><text x="200" y="380" font-size="11" fill="#92400E" text-anchor="middle" font-weight="normal">扩至AI大模型</text><text x="400" y="362" font-size="11" fill="#92400E" text-anchor="middle" font-weight="normal">央行中长期资金</text><text x="400" y="380" font-size="11" fill="#92400E" text-anchor="middle" font-weight="normal">非银流动性工具</text><text x="560" y="362" font-size="11" fill="#92400E" text-anchor="middle" font-weight="normal">"硬科技"成</text><text x="560" y="380" font-size="11" fill="#92400E" text-anchor="middle" font-weight="normal">政策意志</text><line x1="384" y1="310" x2="384" y2="200" stroke="#D4A017" stroke-width="2" stroke-linecap="round" marker-end="url(#agold)"/><circle cx="140" cy="248.5" r="10" fill="#E2E8F0" stroke="#DC2626" stroke-width="2"/>
  <polygon points="124.0,258.5 156.0,258.5 160.0,272.0 120.0,272.0" fill="#FFF8E7" stroke="#DC2626" stroke-width="2" stroke-linejoin="round"/>
  <line x1="133" y1="272.0" x2="131" y2="282.5" stroke="#DC2626" stroke-width="2.5" stroke-linecap="round"/>
  <line x1="147" y1="272.0" x2="149" y2="282.5" stroke="#DC2626" stroke-width="2.5" stroke-linecap="round"/>
  <line x1="124.0" y1="261.875" x2="108.0" y2="239.875" stroke="#DC2626" stroke-width="2" stroke-linecap="round"/>
  <line x1="156.0" y1="261.875" x2="172.0" y2="239.875" stroke="#DC2626" stroke-width="2" stroke-linecap="round"/><circle cx="610" cy="258.5" r="10" fill="#E2E8F0" stroke="#16A34A" stroke-width="2"/>
  <polygon points="594.0,268.5 626.0,268.5 630.0,282.0 590.0,282.0" fill="#FFF8E7" stroke="#16A34A" stroke-width="2" stroke-linejoin="round"/>
  <line x1="603" y1="282.0" x2="601" y2="292.5" stroke="#16A34A" stroke-width="2.5" stroke-linecap="round"/>
  <line x1="617" y1="282.0" x2="619" y2="292.5" stroke="#16A34A" stroke-width="2.5" stroke-linecap="round"/>
  <line x1="594.0" y1="271.875" x2="584.0" y2="283.875" stroke="#16A34A" stroke-width="2" stroke-linecap="round"/>
  <line x1="626.0" y1="271.875" x2="636.0" y2="283.875" stroke="#16A34A" stroke-width="2" stroke-linecap="round"/><text x="384.0" y="498" font-size="11" fill="#94A3B8" text-anchor="middle">一九分化≠健康牛市。上涨广度越窄，抱团松动时回调越剧烈</text></svg>