<svg xmlns="http://www.w3.org/2000/svg" viewBox="0 0 768 512" width="768" height="512" font-family="Microsoft YaHei, SimHei, PingFang SC, sans-serif">
  <rect width="768" height="512" fill="#FAFBFC"/>
  <defs>
    <marker id="agold" markerWidth="8" markerHeight="6" refX="8" refY="3" orient="auto"><polygon points="0 0, 8 3, 0 6" fill="#D4A017"/></marker>
    <marker id="ar" markerWidth="8" markerHeight="6" refX="8" refY="3" orient="auto"><polygon points="0 0, 8 3, 0 6" fill="#DC2626"/></marker>
    <marker id="ag" markerWidth="8" markerHeight="6" refX="8" refY="3" orient="auto"><polygon points="0 0, 8 3, 0 6" fill="#16A34A"/></marker>
    <marker id="apurple" markerWidth="8" markerHeight="6" refX="8" refY="3" orient="auto"><polygon points="0 0, 8 3, 0 6" fill="#7C3AED"/></marker>
  </defs>
<rect x="0" y="0" width="768" height="44" fill="#D4A017" opacity="0.08"/>
  <text x="384.0" y="30" font-size="18" fill="#D4A017" text-anchor="middle" font-weight="bold">国际：BOJ加息至1%·日元为何不涨反疲？</text><circle cx="180" cy="180" r="55" fill="white" stroke="#1A56DB" stroke-width="2.5"/>
  <line x1="164.2401332868777" y1="131.49611766894716" x2="162.07701432625305" y2="124.83872205488109" stroke="#1A56DB" stroke-width="1"/>
  <line x1="191.34856763177203" y1="130.278676478727" x2="192.90621416946624" y2="123.45418109345422" stroke="#1A56DB" stroke-width="1"/>
  <line x1="215.2441950983301" y1="143.13746194480302" x2="220.08163364123814" y2="138.0778978980113" stroke="#1A56DB" stroke-width="1"/>
  <line x1="229.1621058954885" y1="166.43212087609956" x2="235.9098459203595" y2="164.56986295713284" stroke="#1A56DB" stroke-width="1"/>
  <line x1="229.1621058954885" y1="193.56787912390044" x2="235.9098459203595" y2="195.43013704286716" stroke="#1A56DB" stroke-width="1"/>
  <line x1="215.2441950983301" y1="216.86253805519698" x2="220.08163364123814" y2="221.9221021019887" stroke="#1A56DB" stroke-width="1"/>
  <line x1="191.34856763177203" y1="229.721323521273" x2="192.90621416946624" y2="236.54581890654578" stroke="#1A56DB" stroke-width="1"/>
  <line x1="164.2401332868777" y1="228.50388233105284" x2="162.07701432625305" y2="235.1612779451189" stroke="#1A56DB" stroke-width="1"/>
  <line x1="180" y1="180" x2="214.26152548880634" y2="212.17371397864835" stroke="#DC2626" stroke-width="2.5" stroke-linecap="round"/>
  <circle cx="180" cy="180" r="3" fill="#DC2626"/><text x="180" y="115" font-size="14" fill="#1A56DB" text-anchor="middle" font-weight="bold">BOJ 利率旋钮</text><text x="180" y="135" font-size="10" fill="#1E40AF" text-anchor="middle" font-weight="normal">上调至1% (31年最高)</text><text x="180" y="265" font-size="11" fill="#475569" text-anchor="middle" font-weight="normal">加息=利多日元? → 理论上</text><line x1="245" y1="170" x2="310" y2="140" stroke="#1A56DB" stroke-width="2.5" stroke-linecap="round" marker-end="url(#agold)"/><text x="290" y="128" font-size="10" fill="#1A56DB" text-anchor="middle" font-weight="normal">预期</text><rect x="320" y="200" width="180" height="80" rx="8" fill="#FEF2F2" stroke="#DC2626" stroke-width="2"/><text x="410" y="228" font-size="12" fill="#DC2626" text-anchor="middle" font-weight="bold">实际: 美元/日元</text><text x="410" y="252" font-size="18" fill="#DC2626" text-anchor="middle" font-weight="bold">160.40 仍在疲软</text><text x="410" y="272" font-size="11" fill="#991B1B" text-anchor="middle" font-weight="normal">日元没涨!</text><line x1="410" y1="198" x2="410" y2="160" stroke="#DC2626" stroke-width="2" stroke-linecap="round" marker-end="url(#ar)"/><rect x="80" y="310" width="610" height="90" rx="10" fill="#F8FAFC" stroke="#94A3B8" stroke-width="2"/><text x="384" y="340" font-size="14" fill="#475569" text-anchor="middle" font-weight="bold">为什么加息了日元还不涨？</text><text x="200" y="370" font-size="12" fill="#475569" text-anchor="middle" font-weight="bold">日本实际利率</text><text x="200" y="390" font-size="14" fill="#DC2626" text-anchor="middle" font-weight="bold">1% – 2%通胀 = -1%</text><text x="500" y="370" font-size="12" fill="#475569" text-anchor="middle" font-weight="bold">日美利差</text><text x="500" y="390" font-size="14" fill="#DC2626" text-anchor="middle" font-weight="bold">约250bp+ 仍巨大</text><text x="384" y="420" font-size="11" fill="#64748B" text-anchor="middle" font-weight="normal">“借日元买全球”套利成本从0.75%→1%——结构完全没变</text><circle cx="570" cy="272.6" r="10" fill="#E2E8F0" stroke="#DC2626" stroke-width="2"/>
  <polygon points="554.0,282.6 586.0,282.6 590.0,297.0 550.0,297.0" fill="#FFF8E7" stroke="#DC2626" stroke-width="2" stroke-linejoin="round"/>
  <line x1="563" y1="297.0" x2="561" y2="308.2" stroke="#DC2626" stroke-width="2.5" stroke-linecap="round"/>
  <line x1="577" y1="297.0" x2="579" y2="308.2" stroke="#DC2626" stroke-width="2.5" stroke-linecap="round"/>
  <line x1="554.0" y1="286.20000000000005" x2="544.0" y2="294.20000000000005" stroke="#DC2626" stroke-width="2" stroke-linecap="round"/>
  <line x1="586.0" y1="286.20000000000005" x2="596.0" y2="294.20000000000005" stroke="#DC2626" stroke-width="2" stroke-linecap="round"/><text x="570" y="330" font-size="11" fill="#DC2626" text-anchor="middle" font-weight="normal">日元</text><rect x="50" y="240" width="50" height="60" rx="3" fill="#EFF6FF" stroke="#1A56DB" stroke-width="1.5"/><text x="75" y="275" font-size="11" fill="#1A56DB" text-anchor="middle" font-weight="bold">BOJ</text><text x="384.0" y="500" font-size="11" fill="#94A3B8" text-anchor="middle">加息≠货币走强——实际利率和利差才是真正的驱动力</text></svg>