<?xml version="1.0" encoding="UTF-8"?>
<svg xmlns="http://www.w3.org/2000/svg" viewBox="0 0 300 220">
<rect width="300" height="220" fill="#FAFAFA"/>
<text x="150" y="20" text-anchor="middle" font-family="'Noto Sans SC','PingFang SC',sans-serif" font-size="14" font-weight="900" fill="#1E293B">5.26 晚报 · 今日热点速览</text>
<line x1="70" y1="28" x2="230" y2="28" stroke="#D4A017" stroke-width="1.5"/>
<line x1="12" y1="42" x2="12" y2="66" stroke="#DC2626" stroke-width="2.5"/>
<text x="18" y="54" font-family="'Noto Sans SC',sans-serif" font-size="9" font-weight="700" fill="#DC2626">01 A股</text>
<text x="18" y="64" font-family="'Noto Sans SC',sans-serif" font-size="7" fill="#475569">上证-0.17% · 超4000股下跌</text>
<line x1="12" y1="76" x2="12" y2="100" stroke="#16A34A" stroke-width="2.5"/>
<text x="18" y="88" font-family="'Noto Sans SC',sans-serif" font-size="9" font-weight="700" fill="#16A34A">02 美股</text>
<text x="18" y="98" font-family="'Noto Sans SC',sans-serif" font-size="7" fill="#475569">休市·期货+1.2%·美债4.46%</text>
<line x1="12" y1="110" x2="12" y2="134" stroke="#9333EA" stroke-width="2.5"/>
<text x="18" y="122" font-family="'Noto Sans SC',sans-serif" font-size="9" font-weight="700" fill="#9333EA">03 科技</text>
<text x="18" y="132" font-family="'Noto Sans SC',sans-serif" font-size="7" fill="#475569">半导体-253亿·先进封测逆势</text>
<line x1="150" y1="42" x2="150" y2="66" stroke="#1A56DB" stroke-width="2.5"/>
<text x="156" y="54" font-family="'Noto Sans SC',sans-serif" font-size="9" font-weight="700" fill="#1A56DB">04 国际</text>
<text x="156" y="64" font-family="'Noto Sans SC',sans-serif" font-size="7" fill="#475569">美军打伊朗·智利6.9级地震</text>
<line x1="150" y1="76" x2="150" y2="100" stroke="#D4A017" stroke-width="2.5"/>
<text x="156" y="88" font-family="'Noto Sans SC',sans-serif" font-size="9" font-weight="700" fill="#B8860B">05 宏观</text>
<text x="156" y="98" font-family="'Noto Sans SC',sans-serif" font-size="7" fill="#475569">八部门整治·广东千亿基金</text>
<line x1="150" y1="110" x2="150" y2="134" stroke="#EA580C" stroke-width="2.5"/>
<text x="156" y="122" font-family="'Noto Sans SC',sans-serif" font-size="9" font-weight="700" fill="#EA580C">06 商品</text>
<text x="156" y="132" font-family="'Noto Sans SC',sans-serif" font-size="7" fill="#475569">油价$90·黄金$4573·白银$78</text>
<line x1="145" y1="42" x2="145" y2="134" stroke="#E2E8F0" stroke-width="0.8" stroke-dasharray="3,2"/>
<line x1="20" y1="146" x2="280" y2="146" stroke="#1E293B" stroke-width="1.2"/>
<text x="150" y="162" text-anchor="middle" font-family="'Noto Sans SC',sans-serif" font-size="7" fill="#64748B">上证4145 · 创业板4043 · 科创50 1867 · 成交3.26万亿</text>
<text x="150" y="175" text-anchor="middle" font-family="'Noto Sans SC',sans-serif" font-size="7" fill="#64748B">有色+50亿流入 · 半导体-253亿流出 · 沪金+4.11%</text>
<text x="150" y="190" text-anchor="middle" font-family="'Noto Sans SC',sans-serif" font-size="8" font-weight="600" fill="#1A56DB">扬说财经 · 2026.05.26 晚报</text>
<line x1="100" y1="196" x2="200" y2="196" stroke="#D4A017" stroke-width="0.8"/>
<circle cx="150" cy="210" r="2" fill="#D4A017"/>
<circle cx="142" cy="210" r="1.5" fill="#CBD5E1"/>
<circle cx="158" cy="210" r="1.5" fill="#CBD5E1"/>
</svg>
