<svg xmlns="http://www.w3.org/2000/svg" viewBox="0 0 768 512" width="768" height="512" font-family="Microsoft YaHei, SimHei, sans-serif">
  <rect width="768" height="512" fill="#FAFBFC"/>

  <!-- Title -->
  <text x="384" y="32" text-anchor="middle" font-size="18" font-weight="700" fill="#1A56DB">全球紧缩交易回归 · 黑色星期二</text>
  <line x1="180" y1="42" x2="588" y2="42" stroke="#1A56DB" stroke-width="2"/>

  <!-- Center hub -->
  <circle cx="344" cy="260" r="48" fill="#1A56DB" opacity="0.12"/>
  <circle cx="344" cy="260" r="36" fill="#1A56DB" opacity="0.2"/>
  <circle cx="344" cy="260" r="24" fill="#1A56DB" opacity="0.3"/>
  <text x="344" y="256" text-anchor="middle" font-size="11" font-weight="700" fill="#1A56DB">Fed鹰派</text>
  <text x="344" y="272" text-anchor="middle" font-size="10" fill="#1E40AF">紧缩交易</text>

  <!-- Spokes and nodes -->
  <!-- Node 1: 韩国熔断 (top-left) -->
  <line x1="344" y1="260" x2="130" y2="130" stroke="#475569" stroke-width="1.5" stroke-dasharray="4,3"/>
  <circle cx="130" cy="130" r="30" fill="#DC2626" opacity="0.15"/>
  <circle cx="130" cy="130" r="30" fill="none" stroke="#DC2626" stroke-width="1.5"/>
  <text x="130" y="125" text-anchor="middle" font-size="9" font-weight="700" fill="#DC2626">韩国熔断</text>
  <text x="130" y="139" text-anchor="middle" font-size="8" fill="#991B1B">KOSPI -9.99%</text>

  <!-- Node 2: A股分层抗跌 (top-right) -->
  <line x1="344" y1="260" x2="558" y2="125" stroke="#475569" stroke-width="1.5" stroke-dasharray="4,3"/>
  <circle cx="558" cy="125" r="30" fill="#EA580C" opacity="0.15"/>
  <circle cx="558" cy="125" r="30" fill="none" stroke="#EA580C" stroke-width="1.5"/>
  <text x="558" y="120" text-anchor="middle" font-size="9" font-weight="700" fill="#EA580C">A股分层</text>
  <text x="558" y="134" text-anchor="middle" font-size="8" fill="#9A3412">上证仅-1.37%</text>

  <!-- Node 3: 日经暴跌 (right) -->
  <line x1="344" y1="260" x2="608" y2="290" stroke="#475569" stroke-width="1.5" stroke-dasharray="4,3"/>
  <circle cx="608" cy="290" r="28" fill="#16A34A" opacity="0.12"/>
  <circle cx="608" cy="290" r="28" fill="none" stroke="#16A34A" stroke-width="1.5"/>
  <text x="608" y="286" text-anchor="middle" font-size="9" font-weight="700" fill="#16A34A">日经暴跌</text>
  <text x="608" y="300" text-anchor="middle" font-size="8" fill="#166534">-3.55%</text>

  <!-- Node 4: 油价跳水 (bottom-right) -->
  <line x1="344" y1="260" x2="560" y2="400" stroke="#475569" stroke-width="1.5" stroke-dasharray="4,3"/>
  <circle cx="560" cy="400" r="28" fill="#D4A017" opacity="0.12"/>
  <circle cx="560" cy="400" r="28" fill="none" stroke="#D4A017" stroke-width="1.5"/>
  <text x="560" y="396" text-anchor="middle" font-size="9" font-weight="700" fill="#D4A017">油价续跌</text>
  <text x="560" y="410" text-anchor="middle" font-size="8" fill="#92400E">WTI $73.86</text>

  <!-- Node 5: 黄金守4191 (bottom-left) -->
  <line x1="344" y1="260" x2="120" y2="400" stroke="#475569" stroke-width="1.5" stroke-dasharray="4,3"/>
  <circle cx="120" cy="400" r="28" fill="#D4A017" opacity="0.15"/>
  <circle cx="120" cy="400" r="28" fill="none" stroke="#D4A017" stroke-width="1.5"/>
  <text x="120" y="396" text-anchor="middle" font-size="9" font-weight="700" fill="#D4A017">黄金持稳</text>
  <text x="120" y="410" text-anchor="middle" font-size="8" fill="#92400E">$4,191</text>

  <!-- Node 6: 美伊60天窗口 (left) -->
  <line x1="344" y1="260" x2="75" y2="250" stroke="#475569" stroke-width="1.5" stroke-dasharray="4,3"/>
  <circle cx="75" cy="250" r="30" fill="#1A56DB" opacity="0.1"/>
  <circle cx="75" cy="250" r="30" fill="none" stroke="#1A56DB" stroke-width="1.5"/>
  <text x="75" y="246" text-anchor="middle" font-size="9" font-weight="700" fill="#1A56DB">美伊谈判</text>
  <text x="75" y="260" text-anchor="middle" font-size="8" fill="#1E40AF">60天窗口期</text>

  <!-- Bottom annotation -->
  <rect x="154" y="448" width="460" height="36" rx="8" fill="#F0F4FF"/>
  <text x="384" y="470" text-anchor="middle" font-size="11" fill="#1E40AF">一天之内：Fed鹰派紧缩 → 韩国熔断 → A股金融护盘 → 全球资产重新定价</text>

  <!-- Footer -->
  <text x="384" y="500" text-anchor="middle" font-size="9" fill="#94A3B8">扬说财经 · 2026.6.23 晚报 · 核心叙事速览</text>
</svg>