<svg xmlns="http://www.w3.org/2000/svg" viewBox="0 0 360 200" font-family="'PingFang SC','Microsoft YaHei',sans-serif">
  <rect width="360" height="200" fill="#F0F2F5" rx="8"/>
  <rect x="10" y="10" width="340" height="180" rx="6" fill="#fff"/>
  <text x="16" y="34" font-size="14" font-weight="700" fill="#1E293B">A股主要指数 · 探底回升</text>
  <text x="16" y="50" font-size="9" fill="#64748B">5月28日 · 成交2.97万亿</text>
  <line x1="16" y1="56" x2="344" y2="56" stroke="#E2E8F0" stroke-width="0.5"/>
  <text x="55" y="80" text-anchor="middle" font-size="9" fill="#64748B">上证</text>
  <text x="55" y="102" text-anchor="middle" font-size="16" font-weight="700" fill="#DC2626">+0.12%</text>
  <text x="55" y="118" text-anchor="middle" font-size="9" fill="#475569">4098</text>
  <rect x="30" y="124" width="50" height="6" rx="3" fill="#DC2626" opacity="0.6"/>
  <text x="145" y="80" text-anchor="middle" font-size="9" fill="#64748B">深证</text>
  <text x="145" y="102" text-anchor="middle" font-size="16" font-weight="700" fill="#DC2626">+0.80%</text>
  <text x="145" y="118" text-anchor="middle" font-size="9" fill="#475569">15695</text>
  <rect x="120" y="124" width="50" height="10" rx="3" fill="#DC2626" opacity="0.7"/>
  <text x="235" y="80" text-anchor="middle" font-size="9" fill="#64748B">创业板</text>
  <text x="235" y="102" text-anchor="middle" font-size="16" font-weight="700" fill="#7C3AED">+1.96%</text>
  <text x="235" y="118" text-anchor="middle" font-size="9" fill="#475569">4054</text>
  <rect x="210" y="124" width="50" height="14" rx="3" fill="#7C3AED" opacity="0.8"/>
  <text x="320" y="80" text-anchor="middle" font-size="9" fill="#64748B">北证50</text>
  <text x="320" y="102" text-anchor="middle" font-size="16" font-weight="700" fill="#D4A017">+2.55%</text>
  <text x="320" y="118" text-anchor="middle" font-size="9" fill="#475569">1258</text>
  <rect x="295" y="124" width="50" height="18" rx="3" fill="#D4A017" opacity="0.9"/>
  <line x1="16" y1="148" x2="344" y2="148" stroke="#E2E8F0" stroke-width="0.5"/>
  <text x="180" y="165" text-anchor="middle" font-size="10" fill="#475569">3000+上涨 · 126涨停 · 12跌停</text>
  <text x="180" y="182" text-anchor="middle" font-size="9" fill="#94A3B8">领涨：算力硬件/PCB/CPO/半导体 | 领跌：白酒/创新药/金融</text>
  <text x="180" y="196" text-anchor="end" font-size="8" fill="#CBD5E1">来源：证券时报·新浪财经</text>
</svg>