<svg xmlns="http://www.w3.org/2000/svg" viewBox="0 0 520 320" font-family="'PingFang SC','Microsoft YaHei','Helvetica Neue',sans-serif">
  <defs>
    <linearGradient id="bg" x1="0" y1="0" x2="0" y2="1">
      <stop offset="0%" stop-color="#F0F2F5"/>
      <stop offset="100%" stop-color="#E8ECF1"/>
    </linearGradient>
  </defs>
  <rect width="520" height="320" fill="url(#bg)" rx="8"/>
  <rect x="15" y="15" width="490" height="290" rx="8" fill="#FFFFFF"/>

  <text x="30" y="48" font-size="18" font-weight="700" fill="#1E293B">韩国KOSPI · 盘中暴跌近5%后V型反弹</text>
  <text x="30" y="70" font-size="12" fill="#64748B">2026年5月28日 · BOK鹰派信号 + 中东局势双重打击</text>

  <line x1="30" y1="82" x2="490" y2="82" stroke="#E2E8F0" stroke-width="1"/>

  <!-- Intraday chart canvas -->
  <rect x="40" y="96" width="440" height="100" rx="6" fill="#F8F9FA" stroke="#E2E8F0" stroke-width="1"/>

  <!-- Chart: KOSPI intraday -->
  <polyline points="50,130 90,140 150,172 200,185 250,175 300,160 360,142 420,140" fill="none" stroke="#1A56DB" stroke-width="3" stroke-linecap="round" stroke-linejoin="round"/>
  <polygon points="50,130 90,140 150,172 200,185 250,175 300,160 360,142 420,140 420,196 50,196" fill="#1A56DB" opacity="0.06"/>

  <!-- Labels -->
  <text x="50" y="124" font-size="11" fill="#475569">开盘</text>
  <text x="150" y="186" font-size="12" fill="#DC2626" font-weight="700">暴跌 -4.5%</text>
  <text x="300" y="154" font-size="12" fill="#16A34A" font-weight="700">V型反弹</text>
  <text x="420" y="134" font-size="11" fill="#475569">收盘 -0.53%</text>
  <text x="420" y="148" font-size="10" fill="#94A3B8">8185点</text>

  <!-- Key statistics -->
  <line x1="30" y1="210" x2="490" y2="210" stroke="#E2E8F0" stroke-width="1"/>

  <rect x="40" y="220" width="210" height="50" rx="8" fill="#FFF7ED" stroke="#FED7AA" stroke-width="1"/>
  <text x="145" y="242" text-anchor="middle" font-size="13" font-weight="600" fill="#9A3412">盘中最低 7841 · 振幅 4.80%</text>
  <text x="145" y="260" text-anchor="middle" font-size="12" fill="#9A3412">韩元一度跌破1500 · 外资恐慌抛售</text>

  <rect x="270" y="220" width="210" height="50" rx="8" fill="#EFF6FF" stroke="#BFDBFE" stroke-width="1"/>
  <text x="375" y="242" text-anchor="middle" font-size="13" font-weight="600" fill="#1E40AF">BOK暗示半年内加息2次</text>
  <text x="375" y="260" text-anchor="middle" font-size="12" fill="#1E40AF">CPI通胀预期上调至2.7%</text>

  <text x="490" y="300" text-anchor="end" font-size="10" fill="#CBD5E1">来源：MoneyDJ · 证券时报 · 21世纪经济报道</text>
</svg>