<svg xmlns="http://www.w3.org/2000/svg" viewBox="0 0 360 200" font-family="'PingFang SC','Microsoft YaHei',sans-serif">
  <rect width="360" height="200" fill="#F0F2F5" rx="8"/>
  <rect x="10" y="10" width="340" height="180" rx="6" fill="#fff"/>
  <text x="16" y="34" font-size="14" font-weight="700" fill="#1E293B">韩国KOSPI · 盘中暴跌近5%后反弹</text>
  <text x="16" y="50" font-size="9" fill="#64748B">BOK鹰派信号 + 中东局势 双重打击</text>
  <line x1="16" y1="56" x2="344" y2="56" stroke="#E2E8F0" stroke-width="0.5"/>
  <!-- Intraday chart -->
  <polyline points="30,100 60,108 110,138 160,148 210,140 260,126 310,122" fill="none" stroke="#1A56DB" stroke-width="2" stroke-linecap="round" stroke-linejoin="round"/>
  <polygon points="30,100 60,108 110,138 160,148 210,140 260,126 310,122 310,160 30,160" fill="#1A56DB" opacity="0.06"/>
  <text x="30" y="98" font-size="8" fill="#475569">开</text>
  <text x="110" y="150" font-size="8" fill="#DC2626" font-weight="700">-4.5%</text>
  <text x="260" y="120" font-size="8" fill="#16A34A" font-weight="700">V弹</text>
  <text x="310" y="118" font-size="8" fill="#475569">收-0.53%</text>
  <line x1="16" y1="164" x2="344" y2="164" stroke="#E2E8F0" stroke-width="0.5"/>
  <text x="16" y="180" font-size="10" fill="#475569">BOK暗示半年内加息2次 · 韩元一度跌破1500</text>
  <text x="344" y="196" text-anchor="end" font-size="8" fill="#CBD5E1">来源：MoneyDJ·证券时报</text>
</svg>