<svg xmlns="http://www.w3.org/2000/svg" viewBox="0 0 520 340" font-family="'PingFang SC','Microsoft YaHei','Helvetica Neue',sans-serif">
  <defs>
    <linearGradient id="bg" x1="0" y1="0" x2="0" y2="1">
      <stop offset="0%" stop-color="#F0F2F5"/>
      <stop offset="100%" stop-color="#E8ECF1"/>
    </linearGradient>
    <linearGradient id="gRed4" x1="0" y1="0" x2="0" y2="1">
      <stop offset="0%" stop-color="#DC2626"/>
      <stop offset="100%" stop-color="#B91C1C"/>
    </linearGradient>
    <linearGradient id="gGreen3" x1="0" y1="0" x2="0" y2="1">
      <stop offset="0%" stop-color="#16A34A"/>
      <stop offset="100%" stop-color="#15803D"/>
    </linearGradient>
  </defs>
  <rect width="520" height="340" fill="url(#bg)" rx="8"/>
  <text x="260" y="36" text-anchor="middle" font-size="16" font-weight="700" fill="#1E293B">韩国KOSPI · 盘中暴跌近5%后V型反弹</text>
  <text x="260" y="54" text-anchor="middle" font-size="11" fill="#64748B">2026年5月28日 · BOK鹰派信号+中东局势双重打击</text>
  <rect x="20" y="68" width="480" height="248" rx="8" fill="#FFFFFF"/>

  <!-- KOSPI chart -->
  <text x="260" y="100" text-anchor="middle" font-size="13" font-weight="600" fill="#1E293B">KOSPI 当日走势</text>

  <!-- Simulated intraday chart -->
  <polyline points="60,130 120,150 180,200 240,210 300,195 360,165 420,158" fill="none" stroke="#1A56DB" stroke-width="2.5" stroke-linecap="round" stroke-linejoin="round"/>
  <polygon points="60,130 120,150 180,200 240,210 300,195 360,165 420,158 420,240 60,240" fill="#1A56DB" opacity="0.08"/>

  <!-- Annotations -->
  <text x="60" y="124" font-size="10" fill="#475569">开盘</text>
  <text x="60" y="240" font-size="10" fill="#94A3B8">早盘</text>
  <text x="180" y="214" font-size="10" fill="#DC2626" font-weight="700">暴跌-4.5%</text>
  <text x="300" y="190" font-size="10" fill="#16A34A" font-weight="700">V型反弹</text>
  <text x="420" y="152" font-size="10" fill="#475569">收盘 -0.53%</text>

  <!-- Key stats -->
  <line x1="40" y1="250" x2="480" y2="250" stroke="#E2E8F0" stroke-width="1"/>

  <rect x="40" y="256" width="200" height="40" rx="6" fill="#FFF7ED" stroke="#FED7AA" stroke-width="1"/>
  <text x="140" y="274" text-anchor="middle" font-size="11" fill="#9A3412">盘中最低 7841 · 振幅 4.80%</text>
  <text x="140" y="290" text-anchor="middle" font-size="10" fill="#9A3412">韩元一度跌破1500</text>

  <rect x="280" y="256" width="200" height="40" rx="6" fill="#EFF6FF" stroke="#BFDBFE" stroke-width="1"/>
  <text x="380" y="274" text-anchor="middle" font-size="11" fill="#1E40AF">BOK暗示半年内加息2次</text>
  <text x="380" y="290" text-anchor="middle" font-size="10" fill="#1E40AF">CPI通胀预期上调至2.7%</text>

  <text x="260" y="326" text-anchor="middle" font-size="10" fill="#94A3B8">来源：MoneyDJ · 证券时报 · 21世纪经济报道</text>
</svg>