<svg xmlns="http://www.w3.org/2000/svg" viewBox="0 0 360 200" font-family="'PingFang SC','Microsoft YaHei',sans-serif">
  <rect width="360" height="200" fill="#F0F2F5" rx="8"/>
  <rect x="10" y="10" width="340" height="180" rx="6" fill="#fff"/>
  <text x="16" y="34" font-size="14" font-weight="700" fill="#1E293B">黄金原油持续承压</text>
  <text x="16" y="50" font-size="9" fill="#64748B">地缘风险溢价系统退出 · 金油比加速收敛</text>
  <line x1="16" y1="56" x2="344" y2="56" stroke="#E2E8F0" stroke-width="0.5"/>
  <rect x="16" y="62" width="100" height="55" rx="6" fill="#FFFBEB" stroke="#FDE68A" stroke-width="1"/>
  <text x="66" y="80" text-anchor="middle" font-size="9" fill="#92400E">黄金</text>
  <text x="66" y="102" text-anchor="middle" font-size="16" font-weight="700" fill="#D4A017">$4,456</text>
  <text x="66" y="114" text-anchor="middle" font-size="8" fill="#16A34A">-1.2%</text>
  <rect x="126" y="62" width="100" height="55" rx="6" fill="#FFF7ED" stroke="#FED7AA" stroke-width="1"/>
  <text x="176" y="80" text-anchor="middle" font-size="9" fill="#9A3412">WTI</text>
  <text x="176" y="102" text-anchor="middle" font-size="16" font-weight="700" fill="#EA580C">$88.68</text>
  <text x="176" y="114" text-anchor="middle" font-size="8" fill="#16A34A">-5.5%</text>
  <rect x="236" y="62" width="100" height="55" rx="6" fill="#EFF6FF" stroke="#BFDBFE" stroke-width="1"/>
  <text x="286" y="80" text-anchor="middle" font-size="9" fill="#1E40AF">布伦特</text>
  <text x="286" y="102" text-anchor="middle" font-size="16" font-weight="700" fill="#1A56DB">$93.75</text>
  <text x="286" y="114" text-anchor="middle" font-size="8" fill="#16A34A">-3.5%</text>
  <rect x="50" y="124" width="260" height="24" rx="6" fill="#F0FDF4" stroke="#86EFAC" stroke-width="1"/>
  <text x="180" y="140" text-anchor="middle" font-size="10" font-weight="700" fill="#16A34A">金油比：70.6 → 50 · 地缘溢价系统退出</text>
  <line x1="16" y1="156" x2="344" y2="156" stroke="#E2E8F0" stroke-width="0.5"/>
  <text x="16" y="172" font-size="10" fill="#475569">即便停火落地 · 修复需数月 · 近700万桶/天缺口仍在</text>
  <text x="344" y="196" text-anchor="end" font-size="8" fill="#CBD5E1">来源：TradingEconomics·金十数据</text>
</svg>