<svg xmlns="http://www.w3.org/2000/svg" viewBox="0 0 520 320" font-family="'PingFang SC','Microsoft YaHei','Helvetica Neue',sans-serif">
  <defs>
    <linearGradient id="bg" x1="0" y1="0" x2="0" y2="1">
      <stop offset="0%" stop-color="#F0F2F5"/>
      <stop offset="100%" stop-color="#E8ECF1"/>
    </linearGradient>
  </defs>
  <rect width="520" height="320" fill="url(#bg)" rx="8"/>
  <rect x="15" y="15" width="490" height="290" rx="8" fill="#FFFFFF"/>

  <text x="30" y="48" font-size="18" font-weight="700" fill="#1E293B">商品 · 黄金原油持续承压</text>
  <text x="30" y="70" font-size="12" fill="#64748B">2026年5月27-28日 · 地缘风险溢价系统退出</text>

  <line x1="30" y1="82" x2="490" y2="82" stroke="#E2E8F0" stroke-width="1"/>

  <!-- Gold card -->
  <rect x="35" y="96" width="140" height="100" rx="10" fill="#FFFBEB" stroke="#FDE68A" stroke-width="1"/>
  <text x="105" y="124" text-anchor="middle" font-size="14" font-weight="700" fill="#92400E">COMEX黄金</text>
  <text x="105" y="162" text-anchor="middle" font-size="30" font-weight="700" fill="#D4A017">$4,456</text>
  <text x="105" y="186" text-anchor="middle" font-size="13" font-weight="600" fill="#16A34A">-1.2% · 两月新低</text>

  <!-- WTI card -->
  <rect x="190" y="96" width="140" height="100" rx="10" fill="#FFF7ED" stroke="#FED7AA" stroke-width="1"/>
  <text x="260" y="124" text-anchor="middle" font-size="14" font-weight="700" fill="#9A3412">WTI原油</text>
  <text x="260" y="162" text-anchor="middle" font-size="30" font-weight="700" fill="#EA580C">$88.68</text>
  <text x="260" y="186" text-anchor="middle" font-size="13" font-weight="600" fill="#16A34A">-5.5%</text>

  <!-- Brent card -->
  <rect x="345" y="96" width="140" height="100" rx="10" fill="#EFF6FF" stroke="#BFDBFE" stroke-width="1"/>
  <text x="415" y="124" text-anchor="middle" font-size="14" font-weight="700" fill="#1E40AF">布伦特原油</text>
  <text x="415" y="162" text-anchor="middle" font-size="30" font-weight="700" fill="#1A56DB">$93.75</text>
  <text x="415" y="186" text-anchor="middle" font-size="13" font-weight="600" fill="#16A34A">-3.5%</text>

  <!-- Gold-to-Oil ratio banner -->
  <rect x="60" y="210" width="400" height="40" rx="8" fill="#F0FDF4" stroke="#86EFAC" stroke-width="1"/>
  <text x="260" y="236" text-anchor="middle" font-size="15" font-weight="700" fill="#16A34A">金油比：冲突初期 70.6 → 当前 ~50</text>

  <line x1="30" y1="262" x2="490" y2="262" stroke="#E2E8F0" stroke-width="1"/>

  <text x="260" y="284" text-anchor="middle" font-size="13" fill="#475569">即便停火最终落地，受损油田修复需数月，全球近700万桶/天缺口仍在</text>
  <text x="260" y="302" text-anchor="middle" font-size="12" fill="#475569">VIX 16.59 · 市场恐慌情绪持续降温</text>

  <text x="490" y="300" text-anchor="end" font-size="10" fill="#CBD5E1">来源：TradingEconomics · MarketScreener · 金十数据</text>
</svg>