<?xml version="1.0" encoding="UTF-8"?>
<svg xmlns="http://www.w3.org/2000/svg" viewBox="0 0 768 512" width="768" height="512" font-family="Microsoft YaHei, SimHei, sans-serif">
  <rect width="768" height="512" fill="#FAFBFC"/>

  <text x="384" y="36" text-anchor="middle" fill="#1E293B" font-size="18" font-weight="700">日经225六连阳·全球半导体出口超级周期</text>
  <line x1="180" y1="48" x2="588" y2="48" stroke="#DC2626" stroke-width="2"/>

  <!-- Rising steps (Nikkei 6-day rally) -->
  <text x="70" y="85" fill="#DC2626" font-size="12" font-weight="700">日经225</text>
  <rect x="70" y="100" width="100" height="40" rx="4" fill="#FEF2F2" stroke="#DC2626" stroke-width="1"/>
  <text x="120" y="125" text-anchor="middle" fill="#DC2626" font-size="12" font-weight="700">71,053</text>

  <polygon points="120,155 175,175 120,195" fill="#DC2626"/>
  <rect x="70" y="200" width="100" height="40" rx="4" fill="#FFF5F5" stroke="#DC2626" stroke-width="1.5"/>
  <text x="120" y="225" text-anchor="middle" fill="#DC2626" font-size="13" font-weight="700">72,353</text>
  <text x="230" y="225" fill="#991B1B" font-size="11">六连阳 · 历史新高</text>

  <text x="70" y="280" fill="#16A34A" font-size="12" font-weight="700">KOSPI</text>
  <rect x="70" y="295" width="100" height="35" rx="4" fill="#F0FDF4" stroke="#16A34A" stroke-width="1"/>
  <text x="120" y="317" text-anchor="middle" fill="#16A34A" font-size="12" font-weight="700">9,114</text>
  <text x="230" y="317" fill="#14532D" font-size="11">连续新高</text>

  <!-- Drivers box -->
  <rect x="370" y="75" width="378" height="200" rx="8" fill="#F8FAFC" stroke="#E2E8F0" stroke-width="1"/>
  <text x="559" y="100" text-anchor="middle" fill="#1E293B" font-size="13" font-weight="700">核心驱动力</text>

  <circle cx="390" cy="120" r="4" fill="#7C3AED"/>
  <text x="402" y="124" fill="#475569" font-size="11">AI算力需求→存储芯片超级周期</text>

  <circle cx="390" cy="152" r="4" fill="#7C3AED"/>
  <text x="402" y="156" fill="#475569" font-size="11">铠侠年内+940%·SK海力士HBM4E</text>

  <circle cx="390" cy="184" r="4" fill="#1A56DB"/>
  <text x="402" y="188" fill="#475569" font-size="11">日元/韩元弱势→出口企业利润暴增</text>

  <circle cx="390" cy="216" r="4" fill="#16A34A"/>
  <text x="402" y="220" fill="#475569" font-size="11">全球半导体设备投资周期上行</text>

  <circle cx="390" cy="248" r="4" fill="#D4A017"/>
  <text x="402" y="252" fill="#475569" font-size="11">美伊协议→地缘风险缓解→risk-on</text>

  <!-- Bottom: A-shares connection -->
  <rect x="70" y="355" width="630" height="65" rx="8" fill="#EFF6FF" stroke="#1A56DB" stroke-width="1.5"/>
  <text x="384" y="380" text-anchor="middle" fill="#1E40AF" font-size="13" font-weight="700">对A股的启示</text>
  <text x="384" y="405" text-anchor="middle" fill="#475569" font-size="12">日韩半导体继续创新高→全球半导体超级周期外部验证→A股科技回调是获利了结，非景气度逆转</text>

  <!-- Little figures -->
  <circle cx="160" cy="450" r="8" fill="none" stroke="#64748B" stroke-width="2"/>
  <line x1="160" y1="458" x2="160" y2="475" stroke="#64748B" stroke-width="2"/>
  <text x="160" y="492" text-anchor="middle" fill="#64748B" font-size="10">A股科技</text>
  <text x="160" y="504" text-anchor="middle" fill="#16A34A" font-size="10" font-weight="600">↗ 外部支撑</text>

  <text x="384" y="506" text-anchor="middle" fill="#94A3B8" font-size="10">扬说财经 · 晚报 · 2026.06.22</text>
</svg>