<svg xmlns="http://www.w3.org/2000/svg" viewBox="0 0 300 220" width="300" height="220">
  <rect width="300" height="220" fill="#FAFAFA"/>
  <rect x="0" y="0" width="300" height="26" fill="#D4A017"/>
  <text x="150" y="18" text-anchor="middle" fill="#fff" font-size="11" font-weight="700" font-family="PingFang SC,sans-serif">商品重定价：油价暴跌·黄金V型反弹</text>
  <rect x="10" y="36" width="135" height="140" rx="6" fill="#FFF7ED" stroke="#FED7AA" stroke-width="1.5"/>
  <text x="77" y="58" text-anchor="middle" font-size="20">🛢️</text>
  <text x="77" y="78" text-anchor="middle" fill="#1E293B" font-size="9" font-weight="700" font-family="PingFang SC,sans-serif">原油暴跌</text>
  <text x="77" y="104" text-anchor="middle" fill="#DC2626" font-size="22" font-weight="800" font-family="PingFang SC,sans-serif">-6%</text>
  <rect x="20" y="114" width="115" height="26" rx="4" fill="#FEF2F2"/>
  <text x="77" y="128" text-anchor="middle" fill="#991B1B" font-size="8" font-weight="700" font-family="PingFang SC,sans-serif">WTI 90.87美元</text>
  <text x="77" y="138" text-anchor="middle" fill="#DC2626" font-size="7" font-family="PingFang SC,sans-serif">周跌幅超8%</text>
  <rect x="20" y="144" width="115" height="26" rx="4" fill="#FEF2F2"/>
  <text x="77" y="158" text-anchor="middle" fill="#991B1B" font-size="8" font-weight="700" font-family="PingFang SC,sans-serif">布伦特 94.76美元</text>
  <text x="77" y="168" text-anchor="middle" fill="#DC2626" font-size="7" font-family="PingFang SC,sans-serif">跌破100美元关口</text>
  <rect x="155" y="36" width="135" height="140" rx="6" fill="#FFFBEB" stroke="#FDE68A" stroke-width="1.5"/>
  <text x="222" y="58" text-anchor="middle" font-size="20">🥇</text>
  <text x="222" y="78" text-anchor="middle" fill="#1E293B" font-size="9" font-weight="700" font-family="PingFang SC,sans-serif">黄金V型反弹</text>
  <text x="222" y="104" text-anchor="middle" fill="#D4A017" font-size="22" font-weight="800" font-family="PingFang SC,sans-serif">+1%</text>
  <rect x="165" y="114" width="115" height="26" rx="4" fill="#FFFBEB"/>
  <text x="222" y="128" text-anchor="middle" fill="#92400E" font-size="8" font-weight="700" font-family="PingFang SC,sans-serif">4509→4580美元</text>
  <text x="222" y="138" text-anchor="middle" fill="#D4A017" font-size="7" font-family="PingFang SC,sans-serif">4500关口支撑稳固</text>
  <rect x="165" y="144" width="115" height="26" rx="4" fill="#F8FAFC" stroke="#E2E8F0" stroke-width="1"/>
  <text x="222" y="158" text-anchor="middle" fill="#64748B" font-size="7" font-family="PingFang SC,sans-serif">美元走弱vs鹰派压制</text>
  <text x="222" y="168" text-anchor="middle" fill="#64748B" font-size="7" font-family="PingFang SC,sans-serif">花旗看空至4300</text>
  <rect x="10" y="186" width="280" height="26" rx="4" fill="#F1F5F9"/>
  <text x="150" y="203" text-anchor="middle" fill="#64748B" font-size="8" font-family="PingFang SC,sans-serif">霍尔木兹30天内恢复航运 · 中期布伦特87-110区间</text>
</svg>
