<svg xmlns="http://www.w3.org/2000/svg" viewBox="0 0 300 220" width="300" height="220">
  <rect width="300" height="220" fill="#FAFAFA"/>
  <rect x="0" y="0" width="300" height="26" fill="#10B981"/>
  <text x="150" y="18" text-anchor="middle" fill="#fff" font-size="11" font-weight="700" font-family="PingFang SC,sans-serif">宏观：债市平稳·美联储鹰派再起</text>
  <rect x="10" y="36" width="135" height="100" rx="6" fill="#F0FDF4" stroke="#BBF7D0" stroke-width="1.5"/>
  <text x="77" y="56" text-anchor="middle" fill="#1E293B" font-size="9" font-weight="700" font-family="PingFang SC,sans-serif">中国债市</text>
  <rect x="20" y="64" width="115" height="28" rx="4" fill="#DCFCE7"/>
  <text x="77" y="78" text-anchor="middle" fill="#166534" font-size="12" font-weight="800" font-family="PingFang SC,sans-serif">1.75%</text>
  <text x="77" y="90" text-anchor="middle" fill="#166534" font-size="7" font-family="PingFang SC,sans-serif">10年期国债收益率</text>
  <rect x="20" y="98" width="115" height="28" rx="4" fill="#F0FDF4"/>
  <text x="77" y="112" text-anchor="middle" fill="#166534" font-size="9" font-weight="700" font-family="PingFang SC,sans-serif">2580亿逆回购</text>
  <text x="77" y="124" text-anchor="middle" fill="#166534" font-size="7" font-family="PingFang SC,sans-serif">中标利率1.40%</text>
  <text x="150" y="90" text-anchor="middle" font-size="13" fill="#64748B">⚖️</text>
  <rect x="155" y="36" width="135" height="100" rx="6" fill="#FFF5F5" stroke="#FECACA" stroke-width="1.5"/>
  <text x="222" y="56" text-anchor="middle" fill="#1E293B" font-size="9" font-weight="700" font-family="PingFang SC,sans-serif">美联储鹰派</text>
  <rect x="165" y="64" width="115" height="28" rx="4" fill="#FEF2F2"/>
  <text x="222" y="78" text-anchor="middle" fill="#DC2626" font-size="12" font-weight="800" font-family="PingFang SC,sans-serif">加息67%</text>
  <text x="222" y="90" text-anchor="middle" fill="#991B1B" font-size="7" font-family="PingFang SC,sans-serif">市场对年内加息定价</text>
  <rect x="165" y="98" width="115" height="28" rx="4" fill="#FEF2F2"/>
  <text x="222" y="112" text-anchor="middle" fill="#991B1B" font-size="8" font-weight="700" font-family="PingFang SC,sans-serif">沃勒：摒弃宽松倾向</text>
  <text x="222" y="124" text-anchor="middle" fill="#991B1B" font-size="7" font-family="PingFang SC,sans-serif">野村撤销2026年降息预期</text>
  <rect x="10" y="148" width="280" height="64" rx="6" fill="#F8FAFC" stroke="#E2E8F0" stroke-width="1.5"/>
  <text x="150" y="166" text-anchor="middle" fill="#1E293B" font-size="10" font-weight="700" font-family="PingFang SC,sans-serif">本周核心变量</text>
  <rect x="20" y="174" width="125" height="30" rx="4" fill="#EFF6FF"/>
  <text x="82" y="190" text-anchor="middle" fill="#1E40AF" font-size="8" font-weight="700" font-family="PingFang SC,sans-serif">周三 · Warsh首场听证</text>
  <text x="82" y="200" text-anchor="middle" fill="#1E40AF" font-size="7" font-family="PingFang SC,sans-serif">新财长政策信号</text>
  <rect x="155" y="174" width="125" height="30" rx="4" fill="#EFF6FF"/>
  <text x="217" y="190" text-anchor="middle" fill="#1E40AF" font-size="8" font-weight="700" font-family="PingFang SC,sans-serif">周四 · 核心PCE</text>
  <text x="217" y="200" text-anchor="middle" fill="#1E40AF" font-size="7" font-family="PingFang SC,sans-serif">通胀数据关键节点</text>
</svg>
