<svg xmlns="http://www.w3.org/2000/svg" viewBox="0 0 768 512" width="768" height="512" font-family="Microsoft YaHei, SimHei, sans-serif">
  <rect width="768" height="512" fill="#FAFBFC"/>
  <text x="384" y="38" text-anchor="middle" font-size="18" font-weight="700" fill="#D4A017">今日热点速览 · 60秒掌握关键信息</text>
  <text x="384" y="58" text-anchor="middle" font-size="11" fill="#94A3B8">2026年6月29日 · 周一 · 扬说晚报</text>
    <line x1="384" y1="260" x2="384" y2="80" stroke="#CBD5E1" stroke-width="1.5"/>
  <circle cx="384" cy="45" r="32" fill="#DC2626" opacity="0.12"/>
  <circle cx="384" cy="45" r="32" fill="none" stroke="#DC2626" stroke-width="2"/>
  <text x="384" y="42" text-anchor="middle" font-size="11" font-weight="700" fill="#DC2626">科创50
+4.61%</text>
  <text x="384" y="59" text-anchor="middle" font-size="9" fill="#64748B">创历史新高</text>
  <line x1="384" y1="260" x2="540" y2="170" stroke="#CBD5E1" stroke-width="1.5"/>
  <circle cx="570" cy="152" r="32" fill="#DC2626" opacity="0.12"/>
  <circle cx="570" cy="152" r="32" fill="none" stroke="#DC2626" stroke-width="2"/>
  <text x="570" y="150" text-anchor="middle" font-size="11" font-weight="700" fill="#DC2626">创新药
涨停潮</text>
  <text x="570" y="166" text-anchor="middle" font-size="9" fill="#64748B">医药+5.91%</text>
  <line x1="384" y1="260" x2="540" y2="350" stroke="#CBD5E1" stroke-width="1.5"/>
  <circle cx="570" cy="368" r="32" fill="#DC2626" opacity="0.12"/>
  <circle cx="570" cy="368" r="32" fill="none" stroke="#DC2626" stroke-width="2"/>
  <text x="570" y="364" text-anchor="middle" font-size="11" font-weight="700" fill="#DC2626">上证+1.16%</text>
  <text x="570" y="382" text-anchor="middle" font-size="9" fill="#64748B">收复4073</text>
  <line x1="384" y1="260" x2="384" y2="440" stroke="#CBD5E1" stroke-width="1.5"/>
  <circle cx="384" cy="475" r="32" fill="#1A56DB" opacity="0.12"/>
  <circle cx="384" cy="475" r="32" fill="none" stroke="#1A56DB" stroke-width="2"/>
  <text x="384" y="472" text-anchor="middle" font-size="11" font-weight="700" fill="#1A56DB">恒指+1.57%</text>
  <text x="384" y="489" text-anchor="middle" font-size="9" fill="#64748B">七周连跌后反弹</text>
  <line x1="384" y1="260" x2="228" y2="350" stroke="#CBD5E1" stroke-width="1.5"/>
  <circle cx="198" cy="368" r="32" fill="#D4A017" opacity="0.12"/>
  <circle cx="198" cy="368" r="32" fill="none" stroke="#D4A017" stroke-width="2"/>
  <text x="198" y="364" text-anchor="middle" font-size="11" font-weight="700" fill="#D4A017">美伊明日
多哈谈判</text>
  <text x="198" y="382" text-anchor="middle" font-size="9" fill="#64748B">霍尔木兹焦点</text>
  <line x1="384" y1="260" x2="228" y2="170" stroke="#CBD5E1" stroke-width="1.5"/>
  <circle cx="198" cy="152" r="32" fill="#16A34A" opacity="0.12"/>
  <circle cx="198" cy="152" r="32" fill="none" stroke="#16A34A" stroke-width="2"/>
  <text x="198" y="149" text-anchor="middle" font-size="11" font-weight="700" fill="#16A34A">美股期货
全线上涨</text>
  <text x="198" y="166" text-anchor="middle" font-size="9" fill="#64748B">纳指期货+1%</text>
    <circle cx="384" cy="260" r="45" fill="#1A56DB" opacity="0.08"/>
  <circle cx="384" cy="260" r="45" fill="none" stroke="#1A56DB" stroke-width="2.5"/>
  <text x="384" y="258" text-anchor="middle" font-size="14" font-weight="800" fill="#1A56DB">今日</text>
  <text x="384" y="274" text-anchor="middle" font-size="14" font-weight="800" fill="#1A56DB">速览</text>
  <line x1="24" y1="480" x2="744" y2="480" stroke="#D4A017" stroke-width="2" opacity="0.3"/>
  <text x="384" y="496" text-anchor="middle" font-size="9" fill="#94A3B8">扬说财经晚报 · 2026.06.29</text>
</svg>