<svg xmlns="http://www.w3.org/2000/svg" viewBox="0 0 320 200">
  <rect width="320" height="200" fill="#F0F2F5"/>
  <rect x="12" y="12" width="296" height="176" rx="6" fill="#FFFFFF"/>
  <text x="24" y="34" font-size="13" font-weight="700" fill="#1E293B" font-family="PingFang SC, Microsoft YaHei, sans-serif">英伟达Vera Rubin生态链</text>
  <text x="24" y="48" font-size="9" fill="#6B7280" font-family="PingFang SC, Microsoft YaHei, sans-serif">2026.06.02 · 黄仁勋GTC + 恒指+2.52%重返26000</text>

  <!-- Vera Rubin center -->
  <rect x="100" y="56" width="120" height="28" rx="14" fill="#7C3AED" opacity="0.9"/>
  <text x="160" y="74" text-anchor="middle" font-size="11" font-weight="700" fill="#fff" font-family="PingFang SC, Microsoft YaHei, sans-serif">Vera Rubin全面投产</text>

  <!-- Downstream industries -->
  <rect x="15" y="98" width="62" height="22" rx="4" fill="#F5F3FF"/>
  <text x="46" y="113" text-anchor="middle" font-size="8" fill="#7C3AED" font-family="PingFang SC, Microsoft YaHei, sans-serif">光互联CPO</text>

  <rect x="85" y="98" width="62" height="22" rx="4" fill="#FFF7ED"/>
  <text x="116" y="113" text-anchor="middle" font-size="8" fill="#D97706" font-family="PingFang SC, Microsoft YaHei, sans-serif">PCB</text>

  <rect x="155" y="98" width="62" height="22" rx="4" fill="#FEF2F2"/>
  <text x="186" y="113" text-anchor="middle" font-size="8" fill="#DC2626" font-family="PingFang SC, Microsoft YaHei, sans-serif">MLCC</text>

  <rect x="225" y="98" width="62" height="22" rx="4" fill="#F0FDF4"/>
  <text x="256" y="113" text-anchor="middle" font-size="8" fill="#16A34A" font-family="PingFang SC, Microsoft YaHei, sans-serif">散热</text>

  <!-- Connection lines -->
  <line x1="160" y1="84" x2="46" y2="98" stroke="#E5E7EB" stroke-width="1"/>
  <line x1="160" y1="84" x2="116" y2="98" stroke="#E5E7EB" stroke-width="1"/>
  <line x1="160" y1="84" x2="186" y2="98" stroke="#E5E7EB" stroke-width="1"/>
  <line x1="160" y1="84" x2="256" y2="98" stroke="#E5E7EB" stroke-width="1"/>

  <!-- HK market data -->
  <rect x="24" y="132" width="272" height="44" rx="4" fill="#EFF6FF"/>
  <text x="36" y="150" font-size="9" font-weight="700" fill="#1A56DB" font-family="PingFang SC, Microsoft YaHei, sans-serif">恒指+2.52%报26038</text>
  <text x="36" y="164" font-size="8" fill="#4B5563" font-family="PingFang SC, Microsoft YaHei, sans-serif">美团+8% · 腾讯+6% · 阿里+2% · 成交3738亿</text>

  <text x="160" y="192" text-anchor="middle" font-size="7" fill="#9CA3AF" font-family="PingFang SC, Microsoft YaHei, sans-serif">来源：财联社 · TrendForce · 元大证券</text>
</svg>
