<?xml version="1.0" encoding="utf-8" standalone="no"?>
<!DOCTYPE svg PUBLIC "-//W3C//DTD SVG 1.1//EN"
  "http://www.w3.org/Graphics/SVG/1.1/DTD/svg11.dtd">
<svg xmlns:xlink="http://www.w3.org/1999/xlink" width="388.455469pt" height="222.336094pt" viewBox="0 0 388.455469 222.336094" xmlns="http://www.w3.org/2000/svg" version="1.1">
 <metadata>
  <rdf:RDF xmlns:dc="http://purl.org/dc/elements/1.1/" xmlns:cc="http://creativecommons.org/ns#" xmlns:rdf="http://www.w3.org/1999/02/22-rdf-syntax-ns#">
   <cc:Work>
    <dc:type rdf:resource="http://purl.org/dc/dcmitype/StillImage"/>
    <dc:date>2026-05-27T13:25:50.266944</dc:date>
    <dc:format>image/svg+xml</dc:format>
    <dc:creator>
     <cc:Agent>
      <dc:title>Matplotlib v3.10.9, https://matplotlib.org/</dc:title>
     </cc:Agent>
    </dc:creator>
   </cc:Work>
  </rdf:RDF>
 </metadata>
 <defs>
  <style type="text/css">*{stroke-linejoin: round; stroke-linecap: butt}</style>
 </defs>
 <g id="figure_1">
  <g id="patch_1">
   <path d="M 0 222.336094 
L 388.455469 222.336094 
L 388.455469 0 
L 0 0 
z
" style="fill: #f8fafc"/>
  </g>
  <g id="axes_1">
   <g id="patch_2">
    <path d="M 48.365469 198.802812 
L 381.255469 198.802812 
L 381.255469 31.522812 
L 48.365469 31.522812 
z
" style="fill: #f8fafc"/>
   </g>
   <g id="matplotlib.axis_1">
    <g id="xtick_1">
     <g id="line2d_1">
      <defs>
       <path id="m08a11ad646" d="M 0 0 
L 0 3.5 
" style="stroke: #64748b; stroke-width: 0.8"/>
      </defs>
      <g>
       <use xlink:href="#m08a11ad646" x="63.496832" y="198.802812" style="fill: #64748b; stroke: #64748b; stroke-width: 0.8"/>
      </g>
     </g>
     <g id="text_1">
      <!-- 1月 -->
      <g style="fill: #64748b" transform="translate(56.652614 212.949375) scale(0.09 -0.09)">
       <defs>
        <path id="NotoSansSC-Thin-31" d="M 608 0 
L 608 211 
L 1677 211 
L 1677 4211 
L 864 4211 
L 864 4378 
Q 1133 4422 1344 4492 
Q 1555 4563 1702 4646 
L 1901 4646 
L 1901 211 
L 2899 211 
L 2899 0 
L 608 0 
z
" transform="scale(0.015625)"/>
        <path id="NotoSansSC-Thin-6708" d="M 1523 4941 
L 4998 4941 
L 4998 4755 
L 1523 4755 
L 1523 4941 
z
M 1517 3386 
L 5024 3386 
L 5024 3200 
L 1517 3200 
L 1517 3386 
z
M 1446 1811 
L 5005 1811 
L 5005 1626 
L 1446 1626 
L 1446 1811 
z
M 1453 4941 
L 1638 4941 
L 1638 3110 
Q 1638 2694 1596 2230 
Q 1555 1766 1427 1289 
Q 1299 813 1046 365 
Q 794 -83 371 -461 
Q 358 -435 336 -409 
Q 314 -384 288 -358 
Q 262 -333 237 -320 
Q 646 51 889 480 
Q 1133 909 1254 1360 
Q 1376 1811 1414 2259 
Q 1453 2707 1453 3110 
L 1453 4941 
z
M 4934 4941 
L 5126 4941 
L 5126 -6 
Q 5126 -179 5065 -259 
Q 5005 -339 4864 -371 
Q 4723 -397 4409 -403 
Q 4096 -410 3565 -410 
Q 3558 -378 3542 -342 
Q 3526 -307 3510 -272 
Q 3494 -237 3475 -205 
Q 3782 -211 4041 -211 
Q 4301 -211 4483 -208 
Q 4666 -205 4736 -205 
Q 4851 -198 4892 -156 
Q 4934 -115 4934 -6 
L 4934 4941 
z
" transform="scale(0.015625)"/>
       </defs>
       <use xlink:href="#NotoSansSC-Thin-31"/>
       <use xlink:href="#NotoSansSC-Thin-6708" transform="translate(52.099991 0)"/>
      </g>
     </g>
    </g>
    <g id="xtick_2">
     <g id="line2d_2">
      <g>
       <use xlink:href="#m08a11ad646" x="124.022287" y="198.802812" style="fill: #64748b; stroke: #64748b; stroke-width: 0.8"/>
      </g>
     </g>
     <g id="text_2">
      <!-- 2月 -->
      <g style="fill: #64748b" transform="translate(117.178068 212.949375) scale(0.09 -0.09)">
       <defs>
        <path id="NotoSansSC-Thin-32" d="M 294 0 
L 294 147 
Q 1120 858 1613 1434 
Q 2106 2010 2323 2499 
Q 2541 2989 2541 3424 
Q 2541 3725 2435 3974 
Q 2330 4224 2106 4371 
Q 1882 4518 1523 4518 
Q 1210 4518 931 4352 
Q 653 4186 442 3923 
L 282 4070 
Q 525 4346 829 4538 
Q 1133 4730 1542 4730 
Q 1939 4730 2214 4566 
Q 2490 4403 2637 4112 
Q 2784 3821 2784 3424 
Q 2784 2918 2537 2406 
Q 2291 1894 1820 1347 
Q 1350 800 678 179 
Q 870 192 1062 201 
Q 1254 211 1440 211 
L 3014 211 
L 3014 0 
L 294 0 
z
" transform="scale(0.015625)"/>
       </defs>
       <use xlink:href="#NotoSansSC-Thin-32"/>
       <use xlink:href="#NotoSansSC-Thin-6708" transform="translate(52.099991 0)"/>
      </g>
     </g>
    </g>
    <g id="xtick_3">
     <g id="line2d_3">
      <g>
       <use xlink:href="#m08a11ad646" x="184.547741" y="198.802812" style="fill: #64748b; stroke: #64748b; stroke-width: 0.8"/>
      </g>
     </g>
     <g id="text_3">
      <!-- 3月 -->
      <g style="fill: #64748b" transform="translate(177.703523 212.949375) scale(0.09 -0.09)">
       <defs>
        <path id="NotoSansSC-Thin-33" d="M 1619 -83 
Q 1261 -83 998 13 
Q 736 109 544 256 
Q 352 403 211 550 
L 358 717 
Q 563 499 857 313 
Q 1152 128 1632 128 
Q 1952 128 2198 262 
Q 2445 397 2585 640 
Q 2726 883 2726 1210 
Q 2726 1542 2560 1795 
Q 2394 2048 2038 2189 
Q 1683 2330 1114 2330 
L 1114 2554 
Q 1651 2554 1964 2698 
Q 2278 2842 2416 3088 
Q 2554 3334 2554 3629 
Q 2554 4026 2298 4272 
Q 2042 4518 1606 4518 
Q 1293 4518 1017 4374 
Q 742 4230 557 4026 
L 410 4192 
Q 634 4410 925 4570 
Q 1216 4730 1606 4730 
Q 1939 4730 2211 4598 
Q 2483 4467 2643 4224 
Q 2803 3981 2803 3642 
Q 2803 3168 2550 2877 
Q 2298 2586 1926 2464 
L 1926 2438 
Q 2208 2381 2445 2221 
Q 2682 2061 2826 1808 
Q 2970 1555 2970 1222 
Q 2970 826 2790 531 
Q 2611 237 2307 77 
Q 2003 -83 1619 -83 
z
" transform="scale(0.015625)"/>
       </defs>
       <use xlink:href="#NotoSansSC-Thin-33"/>
       <use xlink:href="#NotoSansSC-Thin-6708" transform="translate(52.099991 0)"/>
      </g>
     </g>
    </g>
    <g id="xtick_4">
     <g id="line2d_4">
      <g>
       <use xlink:href="#m08a11ad646" x="245.073196" y="198.802812" style="fill: #64748b; stroke: #64748b; stroke-width: 0.8"/>
      </g>
     </g>
     <g id="text_4">
      <!-- 4月 -->
      <g style="fill: #64748b" transform="translate(238.228977 212.949375) scale(0.09 -0.09)">
       <defs>
        <path id="NotoSansSC-Thin-34" d="M 2195 0 
L 2195 3482 
Q 2195 3629 2204 3843 
Q 2214 4058 2227 4205 
L 2195 4205 
Q 2112 4058 2019 3901 
Q 1926 3744 1830 3590 
L 422 1568 
L 3110 1568 
L 3110 1363 
L 115 1363 
L 115 1485 
L 2259 4646 
L 2419 4646 
L 2419 0 
L 2195 0 
z
" transform="scale(0.015625)"/>
       </defs>
       <use xlink:href="#NotoSansSC-Thin-34"/>
       <use xlink:href="#NotoSansSC-Thin-6708" transform="translate(52.099991 0)"/>
      </g>
     </g>
    </g>
    <g id="xtick_5">
     <g id="line2d_5">
      <g>
       <use xlink:href="#m08a11ad646" x="305.598651" y="198.802812" style="fill: #64748b; stroke: #64748b; stroke-width: 0.8"/>
      </g>
     </g>
     <g id="text_5">
      <!-- 5月 -->
      <g style="fill: #64748b" transform="translate(298.754432 212.949375) scale(0.09 -0.09)">
       <defs>
        <path id="NotoSansSC-Thin-35" d="M 1581 -83 
Q 1222 -83 963 9 
Q 704 102 515 240 
Q 326 378 186 518 
L 333 691 
Q 467 550 636 422 
Q 806 294 1040 211 
Q 1274 128 1594 128 
Q 1901 128 2166 294 
Q 2432 461 2592 765 
Q 2752 1069 2752 1466 
Q 2752 2061 2441 2406 
Q 2131 2752 1606 2752 
Q 1350 2752 1152 2665 
Q 954 2579 755 2445 
L 563 2560 
L 730 4646 
L 2758 4646 
L 2758 4435 
L 941 4435 
L 787 2726 
Q 966 2835 1168 2902 
Q 1370 2970 1626 2970 
Q 2010 2970 2320 2813 
Q 2630 2656 2812 2326 
Q 2995 1997 2995 1478 
Q 2995 979 2787 630 
Q 2579 282 2256 99 
Q 1933 -83 1581 -83 
z
" transform="scale(0.015625)"/>
       </defs>
       <use xlink:href="#NotoSansSC-Thin-35"/>
       <use xlink:href="#NotoSansSC-Thin-6708" transform="translate(52.099991 0)"/>
      </g>
     </g>
    </g>
    <g id="xtick_6">
     <g id="line2d_6">
      <g>
       <use xlink:href="#m08a11ad646" x="366.124105" y="198.802812" style="fill: #64748b; stroke: #64748b; stroke-width: 0.8"/>
      </g>
     </g>
     <g id="text_6">
      <!-- 6月 -->
      <g style="fill: #64748b" transform="translate(359.279886 212.949375) scale(0.09 -0.09)">
       <defs>
        <path id="NotoSansSC-Thin-36" d="M 1837 -83 
Q 1498 -83 1232 67 
Q 966 218 780 509 
Q 595 800 496 1216 
Q 397 1632 397 2170 
Q 397 2886 528 3379 
Q 659 3872 889 4169 
Q 1120 4467 1414 4598 
Q 1709 4730 2029 4730 
Q 2330 4730 2550 4614 
Q 2771 4499 2944 4307 
L 2790 4147 
Q 2643 4333 2444 4425 
Q 2246 4518 2022 4518 
Q 1651 4518 1334 4297 
Q 1018 4077 826 3561 
Q 634 3046 634 2170 
Q 634 1581 762 1120 
Q 890 659 1158 393 
Q 1427 128 1850 128 
Q 2125 128 2336 297 
Q 2547 467 2672 752 
Q 2797 1037 2797 1382 
Q 2797 1741 2694 2025 
Q 2592 2310 2368 2476 
Q 2144 2643 1779 2643 
Q 1523 2643 1209 2470 
Q 896 2298 602 1888 
L 602 2176 
Q 768 2381 957 2531 
Q 1146 2682 1360 2762 
Q 1574 2842 1792 2842 
Q 2189 2842 2467 2675 
Q 2746 2509 2893 2185 
Q 3040 1862 3040 1382 
Q 3040 960 2873 630 
Q 2707 301 2435 109 
Q 2163 -83 1837 -83 
z
" transform="scale(0.015625)"/>
       </defs>
       <use xlink:href="#NotoSansSC-Thin-36"/>
       <use xlink:href="#NotoSansSC-Thin-6708" transform="translate(52.099991 0)"/>
      </g>
     </g>
    </g>
   </g>
   <g id="matplotlib.axis_2">
    <g id="ytick_1">
     <g id="line2d_7">
      <path d="M 48.365469 195.423419 
L 381.255469 195.423419 
" clip-path="url(#pd424b517ec)" style="fill: none; stroke: #64748b; stroke-opacity: 0.15; stroke-width: 0.5; stroke-linecap: square"/>
     </g>
     <g id="line2d_8">
      <defs>
       <path id="m0463cad063" d="M 0 0 
L -3.5 0 
" style="stroke: #64748b; stroke-width: 0.8"/>
      </defs>
      <g>
       <use xlink:href="#m0463cad063" x="48.365469" y="195.423419" style="fill: #64748b; stroke: #64748b; stroke-width: 0.8"/>
      </g>
     </g>
     <g id="text_7">
      <!-- 97.5 -->
      <g style="fill: #64748b" transform="translate(25.221719 198.9967) scale(0.09 -0.09)">
       <defs>
        <path id="NotoSansSC-Thin-39" d="M 1370 -83 
Q 1050 -83 819 32 
Q 589 147 410 339 
L 557 506 
Q 723 314 934 221 
Q 1146 128 1389 128 
Q 1651 128 1891 256 
Q 2131 384 2316 675 
Q 2502 966 2611 1443 
Q 2720 1920 2720 2618 
Q 2720 3168 2592 3600 
Q 2464 4032 2195 4278 
Q 1926 4525 1498 4525 
Q 1229 4525 1014 4355 
Q 800 4186 675 3901 
Q 550 3616 550 3264 
Q 550 2912 652 2627 
Q 755 2342 979 2172 
Q 1203 2003 1555 2003 
Q 1830 2003 2137 2182 
Q 2445 2362 2739 2765 
L 2746 2470 
Q 2586 2278 2397 2128 
Q 2208 1978 1993 1891 
Q 1779 1805 1536 1805 
Q 1152 1805 877 1974 
Q 602 2144 454 2470 
Q 307 2797 307 3264 
Q 307 3686 473 4019 
Q 640 4352 912 4541 
Q 1184 4730 1510 4730 
Q 1850 4730 2118 4589 
Q 2387 4448 2572 4176 
Q 2758 3904 2857 3513 
Q 2957 3123 2957 2618 
Q 2957 1862 2825 1344 
Q 2694 826 2470 512 
Q 2246 198 1961 57 
Q 1677 -83 1370 -83 
z
" transform="scale(0.015625)"/>
        <path id="NotoSansSC-Thin-37" d="M 1344 0 
Q 1376 717 1462 1318 
Q 1549 1920 1712 2445 
Q 1875 2970 2124 3459 
Q 2374 3949 2726 4435 
L 307 4435 
L 307 4646 
L 3034 4646 
L 3034 4512 
Q 2624 3955 2355 3436 
Q 2086 2918 1932 2384 
Q 1779 1850 1705 1267 
Q 1632 685 1606 0 
L 1344 0 
z
" transform="scale(0.015625)"/>
        <path id="NotoSansSC-Thin-2e" d="M 736 -83 
Q 640 -83 560 -9 
Q 480 64 480 192 
Q 480 333 560 406 
Q 640 480 736 480 
Q 838 480 918 406 
Q 998 333 998 192 
Q 998 64 918 -9 
Q 838 -83 736 -83 
z
" transform="scale(0.015625)"/>
       </defs>
       <use xlink:href="#NotoSansSC-Thin-39"/>
       <use xlink:href="#NotoSansSC-Thin-37" transform="translate(52.099991 0)"/>
       <use xlink:href="#NotoSansSC-Thin-2e" transform="translate(104.199982 0)"/>
       <use xlink:href="#NotoSansSC-Thin-35" transform="translate(127.299973 0)"/>
      </g>
     </g>
    </g>
    <g id="ytick_2">
     <g id="line2d_9">
      <path d="M 48.365469 174.302206 
L 381.255469 174.302206 
" clip-path="url(#pd424b517ec)" style="fill: none; stroke: #64748b; stroke-opacity: 0.15; stroke-width: 0.5; stroke-linecap: square"/>
     </g>
     <g id="line2d_10">
      <g>
       <use xlink:href="#m0463cad063" x="48.365469" y="174.302206" style="fill: #64748b; stroke: #64748b; stroke-width: 0.8"/>
      </g>
     </g>
     <g id="text_8">
      <!-- 100.0 -->
      <g style="fill: #64748b" transform="translate(20.533281 177.875488) scale(0.09 -0.09)">
       <defs>
        <path id="NotoSansSC-Thin-30" d="M 1670 -83 
Q 1261 -83 963 179 
Q 666 442 509 979 
Q 352 1517 352 2336 
Q 352 3149 509 3677 
Q 666 4205 963 4467 
Q 1261 4730 1670 4730 
Q 2080 4730 2371 4467 
Q 2662 4205 2822 3677 
Q 2982 3149 2982 2336 
Q 2982 1517 2822 979 
Q 2662 442 2371 179 
Q 2080 -83 1670 -83 
z
M 1670 128 
Q 1997 128 2240 384 
Q 2483 640 2614 1133 
Q 2746 1626 2746 2336 
Q 2746 3040 2614 3529 
Q 2483 4019 2240 4272 
Q 1997 4525 1670 4525 
Q 1344 4525 1101 4272 
Q 858 4019 723 3529 
Q 589 3040 589 2336 
Q 589 1626 723 1133 
Q 858 640 1101 384 
Q 1344 128 1670 128 
z
" transform="scale(0.015625)"/>
       </defs>
       <use xlink:href="#NotoSansSC-Thin-31"/>
       <use xlink:href="#NotoSansSC-Thin-30" transform="translate(52.099991 0)"/>
       <use xlink:href="#NotoSansSC-Thin-30" transform="translate(104.199982 0)"/>
       <use xlink:href="#NotoSansSC-Thin-2e" transform="translate(156.299973 0)"/>
       <use xlink:href="#NotoSansSC-Thin-30" transform="translate(179.399963 0)"/>
      </g>
     </g>
    </g>
    <g id="ytick_3">
     <g id="line2d_11">
      <path d="M 48.365469 153.180994 
L 381.255469 153.180994 
" clip-path="url(#pd424b517ec)" style="fill: none; stroke: #64748b; stroke-opacity: 0.15; stroke-width: 0.5; stroke-linecap: square"/>
     </g>
     <g id="line2d_12">
      <g>
       <use xlink:href="#m0463cad063" x="48.365469" y="153.180994" style="fill: #64748b; stroke: #64748b; stroke-width: 0.8"/>
      </g>
     </g>
     <g id="text_9">
      <!-- 102.5 -->
      <g style="fill: #64748b" transform="translate(20.533281 156.754276) scale(0.09 -0.09)">
       <use xlink:href="#NotoSansSC-Thin-31"/>
       <use xlink:href="#NotoSansSC-Thin-30" transform="translate(52.099991 0)"/>
       <use xlink:href="#NotoSansSC-Thin-32" transform="translate(104.199982 0)"/>
       <use xlink:href="#NotoSansSC-Thin-2e" transform="translate(156.299973 0)"/>
       <use xlink:href="#NotoSansSC-Thin-35" transform="translate(179.399963 0)"/>
      </g>
     </g>
    </g>
    <g id="ytick_4">
     <g id="line2d_13">
      <path d="M 48.365469 132.059782 
L 381.255469 132.059782 
" clip-path="url(#pd424b517ec)" style="fill: none; stroke: #64748b; stroke-opacity: 0.15; stroke-width: 0.5; stroke-linecap: square"/>
     </g>
     <g id="line2d_14">
      <g>
       <use xlink:href="#m0463cad063" x="48.365469" y="132.059782" style="fill: #64748b; stroke: #64748b; stroke-width: 0.8"/>
      </g>
     </g>
     <g id="text_10">
      <!-- 105.0 -->
      <g style="fill: #64748b" transform="translate(20.533281 135.633063) scale(0.09 -0.09)">
       <use xlink:href="#NotoSansSC-Thin-31"/>
       <use xlink:href="#NotoSansSC-Thin-30" transform="translate(52.099991 0)"/>
       <use xlink:href="#NotoSansSC-Thin-35" transform="translate(104.199982 0)"/>
       <use xlink:href="#NotoSansSC-Thin-2e" transform="translate(156.299973 0)"/>
       <use xlink:href="#NotoSansSC-Thin-30" transform="translate(179.399963 0)"/>
      </g>
     </g>
    </g>
    <g id="ytick_5">
     <g id="line2d_15">
      <path d="M 48.365469 110.93857 
L 381.255469 110.93857 
" clip-path="url(#pd424b517ec)" style="fill: none; stroke: #64748b; stroke-opacity: 0.15; stroke-width: 0.5; stroke-linecap: square"/>
     </g>
     <g id="line2d_16">
      <g>
       <use xlink:href="#m0463cad063" x="48.365469" y="110.93857" style="fill: #64748b; stroke: #64748b; stroke-width: 0.8"/>
      </g>
     </g>
     <g id="text_11">
      <!-- 107.5 -->
      <g style="fill: #64748b" transform="translate(20.533281 114.511851) scale(0.09 -0.09)">
       <use xlink:href="#NotoSansSC-Thin-31"/>
       <use xlink:href="#NotoSansSC-Thin-30" transform="translate(52.099991 0)"/>
       <use xlink:href="#NotoSansSC-Thin-37" transform="translate(104.199982 0)"/>
       <use xlink:href="#NotoSansSC-Thin-2e" transform="translate(156.299973 0)"/>
       <use xlink:href="#NotoSansSC-Thin-35" transform="translate(179.399963 0)"/>
      </g>
     </g>
    </g>
    <g id="ytick_6">
     <g id="line2d_17">
      <path d="M 48.365469 89.817358 
L 381.255469 89.817358 
" clip-path="url(#pd424b517ec)" style="fill: none; stroke: #64748b; stroke-opacity: 0.15; stroke-width: 0.5; stroke-linecap: square"/>
     </g>
     <g id="line2d_18">
      <g>
       <use xlink:href="#m0463cad063" x="48.365469" y="89.817358" style="fill: #64748b; stroke: #64748b; stroke-width: 0.8"/>
      </g>
     </g>
     <g id="text_12">
      <!-- 110.0 -->
      <g style="fill: #64748b" transform="translate(20.533281 93.390639) scale(0.09 -0.09)">
       <use xlink:href="#NotoSansSC-Thin-31"/>
       <use xlink:href="#NotoSansSC-Thin-31" transform="translate(52.099991 0)"/>
       <use xlink:href="#NotoSansSC-Thin-30" transform="translate(104.199982 0)"/>
       <use xlink:href="#NotoSansSC-Thin-2e" transform="translate(156.299973 0)"/>
       <use xlink:href="#NotoSansSC-Thin-30" transform="translate(179.399963 0)"/>
      </g>
     </g>
    </g>
    <g id="ytick_7">
     <g id="line2d_19">
      <path d="M 48.365469 68.696146 
L 381.255469 68.696146 
" clip-path="url(#pd424b517ec)" style="fill: none; stroke: #64748b; stroke-opacity: 0.15; stroke-width: 0.5; stroke-linecap: square"/>
     </g>
     <g id="line2d_20">
      <g>
       <use xlink:href="#m0463cad063" x="48.365469" y="68.696146" style="fill: #64748b; stroke: #64748b; stroke-width: 0.8"/>
      </g>
     </g>
     <g id="text_13">
      <!-- 112.5 -->
      <g style="fill: #64748b" transform="translate(20.533281 72.269427) scale(0.09 -0.09)">
       <use xlink:href="#NotoSansSC-Thin-31"/>
       <use xlink:href="#NotoSansSC-Thin-31" transform="translate(52.099991 0)"/>
       <use xlink:href="#NotoSansSC-Thin-32" transform="translate(104.199982 0)"/>
       <use xlink:href="#NotoSansSC-Thin-2e" transform="translate(156.299973 0)"/>
       <use xlink:href="#NotoSansSC-Thin-35" transform="translate(179.399963 0)"/>
      </g>
     </g>
    </g>
    <g id="ytick_8">
     <g id="line2d_21">
      <path d="M 48.365469 47.574934 
L 381.255469 47.574934 
" clip-path="url(#pd424b517ec)" style="fill: none; stroke: #64748b; stroke-opacity: 0.15; stroke-width: 0.5; stroke-linecap: square"/>
     </g>
     <g id="line2d_22">
      <g>
       <use xlink:href="#m0463cad063" x="48.365469" y="47.574934" style="fill: #64748b; stroke: #64748b; stroke-width: 0.8"/>
      </g>
     </g>
     <g id="text_14">
      <!-- 115.0 -->
      <g style="fill: #64748b" transform="translate(20.533281 51.148215) scale(0.09 -0.09)">
       <use xlink:href="#NotoSansSC-Thin-31"/>
       <use xlink:href="#NotoSansSC-Thin-31" transform="translate(52.099991 0)"/>
       <use xlink:href="#NotoSansSC-Thin-35" transform="translate(104.199982 0)"/>
       <use xlink:href="#NotoSansSC-Thin-2e" transform="translate(156.299973 0)"/>
       <use xlink:href="#NotoSansSC-Thin-30" transform="translate(179.399963 0)"/>
      </g>
     </g>
    </g>
    <g id="text_15">
     <!-- 营收 (亿) -->
     <g style="fill: #64748b" transform="translate(14.346562 132.344375) rotate(-90) scale(0.09 -0.09)">
      <defs>
       <path id="NotoSansSC-Thin-8425" d="M 1728 2720 
L 1728 1958 
L 4781 1958 
L 4781 2720 
L 1728 2720 
z
M 1536 2906 
L 4966 2906 
L 4966 1773 
L 1536 1773 
L 1536 2906 
z
M 1171 1190 
L 5376 1190 
L 5376 -454 
L 5190 -454 
L 5190 1005 
L 1363 1005 
L 1363 -474 
L 1171 -474 
L 1171 1190 
z
M 1248 19 
L 5286 19 
L 5286 -166 
L 1248 -166 
L 1248 19 
z
M 653 3674 
L 5798 3674 
L 5798 2515 
L 5606 2515 
L 5606 3488 
L 845 3488 
L 845 2515 
L 653 2515 
L 653 3674 
z
M 429 4691 
L 5990 4691 
L 5990 4506 
L 429 4506 
L 429 4691 
z
M 1990 5312 
L 2176 5312 
L 2176 3904 
L 1990 3904 
L 1990 5312 
z
M 4192 5312 
L 4378 5312 
L 4378 3904 
L 4192 3904 
L 4192 5312 
z
" transform="scale(0.015625)"/>
       <path id="NotoSansSC-Thin-6536" d="M 3462 4013 
L 6035 4013 
L 6035 3827 
L 3462 3827 
L 3462 4013 
z
M 3706 5312 
L 3898 5280 
Q 3782 4678 3616 4131 
Q 3450 3584 3229 3113 
Q 3008 2643 2726 2272 
Q 2714 2291 2685 2316 
Q 2656 2342 2627 2368 
Q 2598 2394 2573 2406 
Q 2854 2752 3068 3209 
Q 3283 3667 3443 4201 
Q 3603 4736 3706 5312 
z
M 5274 3955 
L 5472 3923 
Q 5286 2835 4956 2009 
Q 4627 1184 4099 582 
Q 3571 -19 2778 -442 
Q 2765 -422 2742 -393 
Q 2720 -365 2697 -333 
Q 2675 -301 2650 -282 
Q 3437 109 3955 694 
Q 4474 1280 4787 2089 
Q 5101 2899 5274 3955 
z
M 3514 3840 
Q 3725 2918 4077 2099 
Q 4429 1280 4931 665 
Q 5434 51 6093 -275 
Q 6067 -294 6038 -320 
Q 6010 -346 5987 -371 
Q 5965 -397 5946 -422 
Q 5286 -77 4780 553 
Q 4275 1184 3920 2016 
Q 3565 2848 3347 3802 
L 3514 3840 
z
M 2170 5222 
L 2362 5222 
L 2362 -454 
L 2170 -454 
L 2170 5222 
z
M 582 800 
L 576 992 
L 717 1126 
L 2253 1677 
Q 2253 1632 2262 1581 
Q 2272 1530 2278 1498 
Q 1741 1293 1417 1168 
Q 1094 1043 928 972 
Q 762 902 691 867 
Q 621 832 582 800 
z
M 582 800 
Q 570 826 550 858 
Q 531 890 512 922 
Q 493 954 474 979 
Q 525 1011 608 1107 
Q 691 1203 691 1389 
L 691 4582 
L 877 4582 
L 877 1094 
Q 877 1094 832 1062 
Q 787 1030 729 979 
Q 672 928 627 880 
Q 582 832 582 800 
z
" transform="scale(0.015625)"/>
       <path id="NotoSansSC-Thin-20" transform="scale(0.015625)"/>
       <path id="NotoSansSC-Thin-28" d="M 1562 -1222 
Q 1133 -525 883 252 
Q 634 1030 634 1958 
Q 634 2886 883 3667 
Q 1133 4448 1562 5146 
L 1696 5056 
Q 1274 4390 1059 3596 
Q 845 2803 845 1958 
Q 845 1114 1059 320 
Q 1274 -474 1696 -1139 
L 1562 -1222 
z
" transform="scale(0.015625)"/>
       <path id="NotoSansSC-Thin-4ebf" d="M 2515 4525 
L 5568 4525 
L 5568 4333 
L 2515 4333 
L 2515 4525 
z
M 5555 4525 
L 5581 4525 
L 5632 4538 
L 5766 4474 
Q 5760 4461 5744 4448 
Q 5728 4435 5715 4422 
Q 4986 3616 4470 3024 
Q 3955 2432 3612 2019 
Q 3270 1606 3072 1337 
Q 2874 1069 2778 902 
Q 2682 736 2653 637 
Q 2624 538 2624 467 
Q 2624 288 2803 208 
Q 2982 128 3245 128 
L 5229 122 
Q 5408 122 5497 230 
Q 5587 339 5622 640 
Q 5658 941 5677 1510 
Q 5709 1485 5769 1469 
Q 5830 1453 5869 1446 
Q 5850 960 5814 659 
Q 5779 358 5715 201 
Q 5651 45 5536 -9 
Q 5421 -64 5235 -64 
L 3283 -64 
Q 2854 -64 2643 70 
Q 2432 205 2432 461 
Q 2432 544 2457 653 
Q 2483 762 2579 934 
Q 2675 1107 2873 1388 
Q 3072 1670 3414 2089 
Q 3757 2509 4281 3107 
Q 4806 3706 5555 4525 
z
M 2003 5306 
L 2182 5254 
Q 1971 4717 1692 4205 
Q 1414 3693 1091 3248 
Q 768 2803 422 2451 
Q 410 2470 384 2499 
Q 358 2528 332 2560 
Q 307 2592 282 2605 
Q 627 2938 944 3370 
Q 1261 3802 1533 4298 
Q 1805 4794 2003 5306 
z
M 1370 3930 
L 1542 4102 
L 1555 4096 
L 1555 -429 
L 1370 -429 
L 1370 3930 
z
" transform="scale(0.015625)"/>
       <path id="NotoSansSC-Thin-29" d="M 352 -1222 
L 211 -1139 
Q 634 -474 851 320 
Q 1069 1114 1069 1958 
Q 1069 2803 851 3596 
Q 634 4390 211 5056 
L 352 5146 
Q 787 4448 1033 3667 
Q 1280 2886 1280 1958 
Q 1280 1030 1033 252 
Q 787 -525 352 -1222 
z
" transform="scale(0.015625)"/>
      </defs>
      <use xlink:href="#NotoSansSC-Thin-8425"/>
      <use xlink:href="#NotoSansSC-Thin-6536" transform="translate(99.999985 0)"/>
      <use xlink:href="#NotoSansSC-Thin-20" transform="translate(199.999969 0)"/>
      <use xlink:href="#NotoSansSC-Thin-28" transform="translate(221.999954 0)"/>
      <use xlink:href="#NotoSansSC-Thin-4ebf" transform="translate(251.899948 0)"/>
      <use xlink:href="#NotoSansSC-Thin-29" transform="translate(351.899933 0)"/>
     </g>
    </g>
   </g>
   <g id="FillBetweenPolyCollection_1">
    <defs>
     <path id="m57e9506c63" d="M 63.496832 -64.930857 
L 63.496832 -31.136918 
L 124.022287 -64.930857 
L 184.547741 -48.033887 
L 245.073196 -90.276312 
L 305.598651 -115.621766 
L 366.124105 -98.724796 
L 366.124105 -166.312675 
L 366.124105 -166.312675 
L 305.598651 -183.209645 
L 245.073196 -140.967221 
L 184.547741 -98.724796 
L 124.022287 -115.621766 
L 63.496832 -64.930857 
z
" style="stroke: #1a56db; stroke-opacity: 0.12"/>
    </defs>
    <g clip-path="url(#pd424b517ec)">
     <use xlink:href="#m57e9506c63" x="0" y="222.336094" style="fill: #1a56db; fill-opacity: 0.12; stroke: #1a56db; stroke-opacity: 0.12"/>
    </g>
   </g>
   <g id="line2d_23">
    <path d="M 63.496832 157.405237 
L 124.022287 106.714328 
L 184.547741 123.611297 
L 245.073196 81.368873 
L 305.598651 39.126449 
L 366.124105 56.023419 
" clip-path="url(#pd424b517ec)" style="fill: none; stroke-dasharray: 2.96,1.28; stroke-dashoffset: 0; stroke: #1a56db; stroke-opacity: 0.4; stroke-width: 0.8"/>
   </g>
   <g id="line2d_24">
    <path d="M 63.496832 191.199176 
L 124.022287 157.405237 
L 184.547741 174.302206 
L 245.073196 132.059782 
L 305.598651 106.714328 
L 366.124105 123.611297 
" clip-path="url(#pd424b517ec)" style="fill: none; stroke-dasharray: 2.96,1.28; stroke-dashoffset: 0; stroke: #1a56db; stroke-opacity: 0.4; stroke-width: 0.8"/>
   </g>
   <g id="patch_3">
    <path d="M 48.365469 198.802813 
L 48.365469 31.522813 
" style="fill: none; stroke: #e2e8f0; stroke-width: 0.5; stroke-linejoin: miter; stroke-linecap: square"/>
   </g>
   <g id="patch_4">
    <path d="M 48.365469 198.802812 
L 381.255469 198.802812 
" style="fill: none; stroke: #e2e8f0; stroke-width: 0.5; stroke-linejoin: miter; stroke-linecap: square"/>
   </g>
   <g id="patch_5">
    <path d="M 360.451712 85.556515 
Q 362.488844 87.086715 363.185077 87.609695 
" style="fill: none; stroke: #dc2626; stroke-width: 1.5; stroke-linecap: round"/>
    <path d="M 360.988327 83.208071 
L 363.185077 87.609695 
L 358.345729 86.726121 
" style="fill: none; stroke: #dc2626; stroke-width: 1.5; stroke-linecap: round"/>
   </g>
   <g id="text_16">
    <!-- 110.0 -->
    <g style="fill: #dc2626" transform="translate(335.861378 79.679176) scale(0.11 -0.11)">
     <use xlink:href="#NotoSansSC-Thin-31"/>
     <use xlink:href="#NotoSansSC-Thin-31" transform="translate(52.099991 0)"/>
     <use xlink:href="#NotoSansSC-Thin-30" transform="translate(104.199982 0)"/>
     <use xlink:href="#NotoSansSC-Thin-2e" transform="translate(156.299973 0)"/>
     <use xlink:href="#NotoSansSC-Thin-30" transform="translate(179.399963 0)"/>
    </g>
   </g>
   <g id="text_17">
    <!-- 营收预测趋势（含置信区间） -->
    <g style="fill: #1e293b" transform="translate(130.310469 17.522812) scale(0.13 -0.13)">
     <defs>
      <path id="NotoSansSC-Thin-9884" d="M 442 4966 
L 2560 4966 
L 2560 4781 
L 442 4781 
L 442 4966 
z
M 314 2963 
L 2771 2963 
L 2771 2771 
L 314 2771 
L 314 2963 
z
M 1472 2912 
L 1658 2912 
L 1658 -141 
Q 1658 -262 1619 -320 
Q 1581 -378 1485 -403 
Q 1389 -429 1193 -432 
Q 998 -435 659 -435 
Q 653 -403 630 -352 
Q 608 -301 582 -256 
Q 870 -262 1078 -262 
Q 1286 -262 1350 -256 
Q 1421 -250 1446 -227 
Q 1472 -205 1472 -141 
L 1472 2912 
z
M 2496 4966 
L 2541 4966 
L 2579 4979 
L 2714 4902 
Q 2566 4659 2371 4419 
Q 2176 4179 1965 3964 
Q 1754 3750 1555 3590 
Q 1530 3622 1494 3648 
Q 1459 3674 1427 3699 
Q 1619 3853 1820 4061 
Q 2022 4269 2201 4496 
Q 2381 4723 2496 4922 
L 2496 4966 
z
M 2726 2963 
L 2765 2963 
L 2803 2976 
L 2931 2918 
Q 2784 2579 2621 2224 
Q 2458 1869 2310 1632 
L 2144 1696 
Q 2240 1850 2342 2054 
Q 2445 2259 2544 2483 
Q 2643 2707 2726 2912 
L 2726 2963 
z
M 691 4064 
L 826 4179 
Q 1075 4006 1347 3801 
Q 1619 3597 1868 3405 
Q 2118 3213 2278 3066 
L 2144 2925 
Q 1984 3072 1737 3270 
Q 1491 3469 1216 3680 
Q 941 3891 691 4064 
z
M 3014 4992 
L 6067 4992 
L 6067 4806 
L 3014 4806 
L 3014 4992 
z
M 4550 4928 
L 4762 4883 
Q 4672 4634 4579 4358 
Q 4486 4083 4390 3885 
L 4211 3930 
Q 4301 4134 4397 4422 
Q 4493 4710 4550 4928 
z
M 4416 3283 
L 4608 3283 
L 4608 1894 
Q 4608 1606 4557 1289 
Q 4506 973 4326 665 
Q 4147 358 3785 80 
Q 3424 -198 2797 -422 
Q 2778 -390 2749 -345 
Q 2720 -301 2688 -269 
Q 3296 -70 3645 192 
Q 3994 454 4157 745 
Q 4320 1037 4368 1331 
Q 4416 1626 4416 1894 
L 4416 3283 
z
M 4646 704 
L 4787 832 
Q 5011 672 5251 473 
Q 5491 275 5699 83 
Q 5907 -109 6035 -256 
L 5894 -410 
Q 5766 -256 5558 -61 
Q 5350 134 5113 336 
Q 4877 538 4646 704 
z
M 3270 3974 
L 5805 3974 
L 5805 973 
L 5613 973 
L 5613 3782 
L 3456 3782 
L 3456 973 
L 3270 973 
L 3270 3974 
z
" transform="scale(0.015625)"/>
      <path id="NotoSansSC-Thin-6d4b" d="M 3136 672 
L 3270 774 
Q 3450 614 3635 422 
Q 3821 230 3981 44 
Q 4141 -141 4237 -282 
L 4102 -403 
Q 4006 -256 3846 -67 
Q 3686 122 3500 317 
Q 3315 512 3136 672 
z
M 2042 4909 
L 4077 4909 
L 4077 1082 
L 3891 1082 
L 3891 4717 
L 2227 4717 
L 2227 1082 
L 2042 1082 
L 2042 4909 
z
M 5683 5254 
L 5869 5254 
L 5869 -109 
Q 5869 -243 5824 -304 
Q 5779 -365 5690 -397 
Q 5594 -416 5408 -422 
Q 5222 -429 4896 -422 
Q 4890 -390 4864 -339 
Q 4838 -288 4813 -243 
Q 5088 -250 5289 -250 
Q 5491 -250 5555 -243 
Q 5683 -243 5683 -115 
L 5683 5254 
z
M 4806 4749 
L 4992 4749 
L 4992 1024 
L 4806 1024 
L 4806 4749 
z
M 2912 4154 
L 3098 4154 
L 3098 2074 
Q 3098 1747 3053 1408 
Q 3008 1069 2870 739 
Q 2733 410 2470 115 
Q 2208 -179 1773 -422 
Q 1760 -403 1734 -380 
Q 1709 -358 1683 -332 
Q 1658 -307 1632 -294 
Q 2054 -58 2310 224 
Q 2566 506 2697 816 
Q 2829 1126 2870 1446 
Q 2912 1766 2912 2074 
L 2912 4154 
z
M 614 5107 
L 736 5229 
Q 915 5133 1107 5008 
Q 1299 4883 1472 4758 
Q 1645 4634 1754 4531 
L 1632 4378 
Q 1523 4486 1353 4617 
Q 1184 4749 992 4877 
Q 800 5005 614 5107 
z
M 307 3366 
L 422 3494 
Q 608 3398 803 3276 
Q 998 3155 1177 3036 
Q 1357 2918 1472 2822 
L 1363 2675 
Q 1248 2771 1069 2892 
Q 890 3014 691 3139 
Q 493 3264 307 3366 
z
M 461 -237 
Q 595 6 755 352 
Q 915 698 1078 1075 
Q 1242 1453 1370 1792 
L 1517 1683 
Q 1395 1357 1241 989 
Q 1088 621 928 272 
Q 768 -77 627 -358 
L 461 -237 
z
" transform="scale(0.015625)"/>
      <path id="NotoSansSC-Thin-8d8b" d="M 3930 5210 
L 4128 5184 
Q 3981 4749 3721 4240 
Q 3462 3731 3066 3302 
Q 3040 3334 2995 3363 
Q 2950 3392 2912 3405 
Q 3290 3821 3542 4313 
Q 3795 4806 3930 5210 
z
M 3853 4672 
L 5184 4672 
L 5184 4486 
L 3680 4486 
L 3853 4672 
z
M 595 4352 
L 2803 4352 
L 2803 4166 
L 595 4166 
L 595 4352 
z
M 384 3238 
L 2931 3238 
L 2931 3046 
L 384 3046 
L 384 3238 
z
M 1843 1965 
L 2925 1965 
L 2925 1779 
L 1843 1779 
L 1843 1965 
z
M 1664 5318 
L 1850 5318 
L 1850 3117 
L 1664 3117 
L 1664 5318 
z
M 1786 3117 
L 1971 3117 
L 1971 237 
L 1786 237 
L 1786 3117 
z
M 979 1555 
Q 1146 1043 1421 729 
Q 1696 416 2077 253 
Q 2458 90 2938 35 
Q 3418 -19 3994 -19 
Q 4038 -19 4246 -19 
Q 4454 -19 4745 -19 
Q 5037 -19 5331 -19 
Q 5626 -19 5850 -19 
Q 6074 -19 6138 -19 
Q 6118 -45 6099 -80 
Q 6080 -115 6064 -150 
Q 6048 -186 6042 -211 
L 5606 -211 
L 3994 -211 
Q 3379 -211 2876 -147 
Q 2374 -83 1984 93 
Q 1594 269 1309 601 
Q 1024 934 845 1478 
L 979 1555 
z
M 845 2464 
L 1043 2451 
Q 1024 1837 969 1312 
Q 915 787 796 355 
Q 678 -77 454 -416 
Q 442 -403 410 -377 
Q 378 -352 346 -326 
Q 314 -301 288 -288 
Q 512 26 624 445 
Q 736 864 784 1376 
Q 832 1888 845 2464 
z
M 3347 2227 
L 5574 2227 
L 5574 2042 
L 3347 2042 
L 3347 2227 
z
M 3315 3341 
L 5651 3341 
L 5651 870 
L 3142 870 
L 3142 1062 
L 5466 1062 
L 5466 3149 
L 3315 3149 
L 3315 3341 
z
M 5158 4672 
L 5190 4672 
L 5229 4691 
L 5357 4634 
Q 5235 4339 5056 3952 
Q 4877 3565 4710 3238 
L 4506 3302 
Q 4621 3514 4745 3763 
Q 4870 4013 4979 4246 
Q 5088 4480 5158 4634 
L 5158 4672 
z
" transform="scale(0.015625)"/>
      <path id="NotoSansSC-Thin-52bf" d="M 371 3392 
Q 653 3450 1024 3520 
Q 1395 3590 1820 3680 
Q 2246 3770 2682 3859 
L 2694 3661 
Q 2093 3539 1494 3414 
Q 896 3290 442 3194 
L 371 3392 
z
M 454 4614 
L 2662 4614 
L 2662 4429 
L 454 4429 
L 454 4614 
z
M 1530 5318 
L 1722 5318 
L 1722 2554 
Q 1722 2445 1686 2393 
Q 1651 2342 1562 2317 
Q 1478 2291 1302 2284 
Q 1126 2278 819 2285 
Q 813 2317 790 2368 
Q 768 2419 742 2451 
Q 998 2445 1184 2445 
Q 1370 2445 1427 2451 
Q 1530 2451 1530 2547 
L 1530 5318 
z
M 2790 4627 
L 5197 4627 
L 5197 4442 
L 2790 4442 
L 2790 4627 
z
M 2848 3872 
L 2970 4000 
Q 3290 3821 3635 3593 
Q 3981 3366 4291 3148 
Q 4602 2931 4800 2758 
L 4678 2605 
Q 4480 2778 4173 3002 
Q 3866 3226 3517 3456 
Q 3168 3686 2848 3872 
z
M 5101 4627 
L 5293 4627 
Q 5286 3866 5305 3389 
Q 5325 2912 5414 2691 
Q 5504 2470 5696 2470 
Q 5805 2470 5843 2592 
Q 5882 2714 5901 3066 
Q 5946 3040 5990 3017 
Q 6035 2995 6080 2982 
Q 6067 2707 6022 2553 
Q 5978 2400 5898 2339 
Q 5818 2278 5690 2278 
Q 5466 2278 5341 2435 
Q 5216 2592 5165 2893 
Q 5114 3194 5107 3629 
Q 5101 4064 5101 4627 
z
M 3923 5318 
L 4109 5318 
Q 4090 4691 4026 4204 
Q 3962 3718 3814 3350 
Q 3667 2982 3398 2720 
Q 3130 2458 2694 2278 
Q 2675 2310 2633 2348 
Q 2592 2387 2560 2406 
Q 2982 2579 3244 2828 
Q 3507 3078 3648 3430 
Q 3789 3782 3846 4249 
Q 3904 4717 3923 5318 
z
M 640 1728 
L 5299 1728 
L 5299 1542 
L 640 1542 
L 640 1728 
z
M 5242 1728 
L 5440 1728 
Q 5440 1728 5437 1705 
Q 5434 1683 5434 1654 
Q 5434 1626 5427 1606 
Q 5363 1011 5299 636 
Q 5235 262 5161 64 
Q 5088 -134 4986 -224 
Q 4915 -288 4832 -310 
Q 4749 -333 4608 -339 
Q 4474 -346 4202 -336 
Q 3930 -326 3622 -301 
Q 3616 -256 3603 -205 
Q 3590 -154 3558 -115 
Q 3891 -141 4179 -150 
Q 4467 -160 4570 -160 
Q 4678 -160 4736 -150 
Q 4794 -141 4838 -102 
Q 4922 -32 4992 163 
Q 5062 358 5123 729 
Q 5184 1101 5242 1690 
L 5242 1728 
z
M 2899 2253 
L 3098 2253 
Q 3014 1754 2854 1331 
Q 2694 909 2400 566 
Q 2106 224 1632 -32 
Q 1158 -288 448 -442 
Q 435 -410 403 -358 
Q 371 -307 339 -282 
Q 896 -166 1302 16 
Q 1709 198 1987 432 
Q 2266 666 2448 950 
Q 2630 1235 2736 1561 
Q 2842 1888 2899 2253 
z
" transform="scale(0.015625)"/>
      <path id="NotoSansSC-Thin-ff08" d="M 4653 2432 
Q 4653 3002 4797 3523 
Q 4941 4045 5229 4528 
Q 5517 5011 5939 5446 
L 6099 5325 
Q 5683 4909 5408 4438 
Q 5133 3968 4995 3465 
Q 4858 2963 4858 2432 
Q 4858 1907 4995 1401 
Q 5133 896 5408 429 
Q 5683 -38 6099 -461 
L 5939 -582 
Q 5517 -141 5229 339 
Q 4941 819 4797 1344 
Q 4653 1869 4653 2432 
z
" transform="scale(0.015625)"/>
      <path id="NotoSansSC-Thin-542b" d="M 1203 2842 
L 4826 2842 
L 4826 2656 
L 1203 2656 
L 1203 2842 
z
M 1357 109 
L 5114 109 
L 5114 -83 
L 1357 -83 
L 1357 109 
z
M 1267 1626 
L 5165 1626 
L 5165 -435 
L 4973 -435 
L 4973 1440 
L 1459 1440 
L 1459 -435 
L 1267 -435 
L 1267 1626 
z
M 4755 2842 
L 4806 2842 
L 4845 2861 
L 4979 2765 
Q 4806 2586 4585 2365 
Q 4365 2144 4134 1913 
Q 3904 1683 3686 1472 
L 3526 1574 
Q 3744 1779 3974 2009 
Q 4205 2240 4413 2448 
Q 4621 2656 4755 2803 
L 4755 2842 
z
M 2579 3827 
L 2707 3955 
Q 2912 3866 3133 3744 
Q 3354 3622 3549 3500 
Q 3744 3379 3872 3270 
L 3744 3123 
Q 3616 3232 3421 3360 
Q 3226 3488 3008 3609 
Q 2790 3731 2579 3827 
z
M 3238 5088 
Q 3462 4794 3792 4496 
Q 4122 4198 4512 3936 
Q 4902 3674 5318 3466 
Q 5734 3258 6125 3136 
Q 6099 3117 6070 3085 
Q 6042 3053 6016 3024 
Q 5990 2995 5971 2963 
Q 5581 3098 5174 3315 
Q 4768 3533 4377 3808 
Q 3987 4083 3657 4390 
Q 3328 4698 3091 5011 
L 3238 5088 
z
M 3283 5318 
L 3450 5242 
Q 3149 4749 2691 4304 
Q 2234 3859 1664 3507 
Q 1094 3155 467 2925 
Q 442 2957 403 3001 
Q 365 3046 333 3078 
Q 954 3296 1517 3638 
Q 2080 3981 2537 4409 
Q 2995 4838 3283 5318 
z
" transform="scale(0.015625)"/>
      <path id="NotoSansSC-Thin-7f6e" d="M 4090 4877 
L 4090 4096 
L 5498 4096 
L 5498 4877 
L 4090 4877 
z
M 2522 4877 
L 2522 4096 
L 3904 4096 
L 3904 4877 
L 2522 4877 
z
M 1005 4877 
L 1005 4096 
L 2336 4096 
L 2336 4877 
L 1005 4877 
z
M 819 5062 
L 5683 5062 
L 5683 3910 
L 819 3910 
L 819 5062 
z
M 454 3424 
L 5901 3424 
L 5901 3238 
L 454 3238 
L 454 3424 
z
M 3059 3994 
L 3258 3974 
Q 3194 3648 3101 3280 
Q 3008 2912 2931 2650 
L 2739 2650 
Q 2797 2835 2854 3068 
Q 2912 3302 2966 3545 
Q 3021 3789 3059 3994 
z
M 410 -58 
L 6003 -58 
L 6003 -243 
L 410 -243 
L 410 -58 
z
M 1421 2054 
L 4947 2054 
L 4947 1862 
L 1421 1862 
L 1421 2054 
z
M 1446 1370 
L 4922 1370 
L 4922 1178 
L 1446 1178 
L 1446 1370 
z
M 1466 672 
L 4934 672 
L 4934 486 
L 1466 486 
L 1466 672 
z
M 1363 2726 
L 5024 2726 
L 5024 -160 
L 4838 -160 
L 4838 2541 
L 1549 2541 
L 1549 -160 
L 1363 -160 
L 1363 2726 
z
" transform="scale(0.015625)"/>
      <path id="NotoSansSC-Thin-4fe1" d="M 2438 3322 
L 5440 3322 
L 5440 3130 
L 2438 3130 
L 2438 3322 
z
M 2438 2438 
L 5440 2438 
L 5440 2253 
L 2438 2253 
L 2438 2438 
z
M 2458 32 
L 5402 32 
L 5402 -154 
L 2458 -154 
L 2458 32 
z
M 1965 4198 
L 5978 4198 
L 5978 4006 
L 1965 4006 
L 1965 4198 
z
M 2368 1523 
L 5491 1523 
L 5491 -442 
L 5299 -442 
L 5299 1338 
L 2554 1338 
L 2554 -461 
L 2368 -461 
L 2368 1523 
z
M 3475 5229 
L 3661 5299 
Q 3802 5107 3933 4880 
Q 4064 4653 4128 4486 
L 3936 4397 
Q 3872 4563 3741 4796 
Q 3610 5030 3475 5229 
z
M 1773 5293 
L 1952 5248 
Q 1766 4710 1523 4201 
Q 1280 3693 995 3245 
Q 710 2797 403 2438 
Q 390 2458 364 2486 
Q 339 2515 310 2544 
Q 282 2573 256 2592 
Q 563 2925 844 3360 
Q 1126 3795 1363 4288 
Q 1600 4781 1773 5293 
z
M 1152 3731 
L 1325 3910 
L 1338 3904 
L 1338 -467 
L 1152 -467 
L 1152 3731 
z
" transform="scale(0.015625)"/>
      <path id="NotoSansSC-Thin-533a" d="M 4762 4294 
L 4941 4230 
Q 4525 3488 4000 2816 
Q 3475 2144 2880 1571 
Q 2285 998 1651 550 
Q 1632 570 1603 595 
Q 1574 621 1542 649 
Q 1510 678 1478 691 
Q 2125 1120 2726 1686 
Q 3328 2253 3849 2918 
Q 4371 3584 4762 4294 
z
M 1632 3930 
L 1786 4032 
Q 2246 3648 2723 3203 
Q 3200 2758 3651 2304 
Q 4102 1850 4483 1430 
Q 4864 1011 5126 672 
L 4954 544 
Q 4704 883 4326 1305 
Q 3949 1728 3497 2189 
Q 3046 2650 2569 3098 
Q 2093 3546 1632 3930 
z
M 5901 4902 
L 5901 4710 
L 909 4710 
L 909 -64 
L 6054 -64 
L 6054 -250 
L 717 -250 
L 717 4902 
L 5901 4902 
z
" transform="scale(0.015625)"/>
      <path id="NotoSansSC-Thin-95f4" d="M 710 3974 
L 896 3974 
L 896 -461 
L 710 -461 
L 710 3974 
z
M 806 5101 
L 947 5190 
Q 1101 5062 1254 4908 
Q 1408 4755 1542 4604 
Q 1677 4454 1754 4333 
L 1600 4224 
Q 1523 4346 1395 4499 
Q 1267 4653 1113 4813 
Q 960 4973 806 5101 
z
M 2330 4915 
L 5606 4915 
L 5606 4723 
L 2330 4723 
L 2330 4915 
z
M 5491 4915 
L 5677 4915 
L 5677 -109 
Q 5677 -243 5638 -307 
Q 5600 -371 5510 -403 
Q 5414 -429 5228 -432 
Q 5043 -435 4755 -435 
Q 4742 -403 4720 -339 
Q 4698 -275 4672 -230 
Q 4922 -237 5117 -237 
Q 5312 -237 5376 -237 
Q 5446 -230 5468 -204 
Q 5491 -179 5491 -115 
L 5491 4915 
z
M 2266 1978 
L 2266 864 
L 4102 864 
L 4102 1978 
L 2266 1978 
z
M 2266 3264 
L 2266 2163 
L 4102 2163 
L 4102 3264 
L 2266 3264 
z
M 2080 3450 
L 4294 3450 
L 4294 678 
L 2080 678 
L 2080 3450 
z
" transform="scale(0.015625)"/>
      <path id="NotoSansSC-Thin-ff09" d="M 1747 2432 
Q 1747 1869 1603 1344 
Q 1459 819 1171 339 
Q 883 -141 461 -582 
L 301 -461 
Q 717 -38 992 429 
Q 1267 896 1404 1401 
Q 1542 1907 1542 2432 
Q 1542 2963 1404 3465 
Q 1267 3968 992 4438 
Q 717 4909 301 5325 
L 461 5446 
Q 883 5011 1171 4528 
Q 1459 4045 1603 3523 
Q 1747 3002 1747 2432 
z
" transform="scale(0.015625)"/>
     </defs>
     <use xlink:href="#NotoSansSC-Thin-8425"/>
     <use xlink:href="#NotoSansSC-Thin-6536" transform="translate(99.999985 0)"/>
     <use xlink:href="#NotoSansSC-Thin-9884" transform="translate(199.999969 0)"/>
     <use xlink:href="#NotoSansSC-Thin-6d4b" transform="translate(299.999954 0)"/>
     <use xlink:href="#NotoSansSC-Thin-8d8b" transform="translate(399.999939 0)"/>
     <use xlink:href="#NotoSansSC-Thin-52bf" transform="translate(499.999924 0)"/>
     <use xlink:href="#NotoSansSC-Thin-ff08" transform="translate(599.999908 0)"/>
     <use xlink:href="#NotoSansSC-Thin-542b" transform="translate(699.999893 0)"/>
     <use xlink:href="#NotoSansSC-Thin-7f6e" transform="translate(799.999878 0)"/>
     <use xlink:href="#NotoSansSC-Thin-4fe1" transform="translate(899.999863 0)"/>
     <use xlink:href="#NotoSansSC-Thin-533a" transform="translate(999.999847 0)"/>
     <use xlink:href="#NotoSansSC-Thin-95f4" transform="translate(1099.999832 0)"/>
     <use xlink:href="#NotoSansSC-Thin-ff09" transform="translate(1199.999817 0)"/>
    </g>
   </g>
   <g id="line2d_25">
    <path d="M 63.496832 174.302206 
L 124.022287 132.059782 
L 184.547741 148.956752 
L 245.073196 106.714328 
L 305.598651 72.920388 
L 366.124105 89.817358 
" clip-path="url(#pd424b517ec)" style="fill: none; stroke: #1a56db; stroke-width: 2.8; stroke-linecap: square"/>
    <defs>
     <path id="mb44e1b04c7" d="M 0 2.5 
C 0.663008 2.5 1.29895 2.236584 1.767767 1.767767 
C 2.236584 1.29895 2.5 0.663008 2.5 0 
C 2.5 -0.663008 2.236584 -1.29895 1.767767 -1.767767 
C 1.29895 -2.236584 0.663008 -2.5 0 -2.5 
C -0.663008 -2.5 -1.29895 -2.236584 -1.767767 -1.767767 
C -2.236584 -1.29895 -2.5 -0.663008 -2.5 0 
C -2.5 0.663008 -2.236584 1.29895 -1.767767 1.767767 
C -1.29895 2.236584 -0.663008 2.5 0 2.5 
z
" style="stroke: #1a56db; stroke-width: 2"/>
    </defs>
    <g clip-path="url(#pd424b517ec)">
     <use xlink:href="#mb44e1b04c7" x="63.496832" y="174.302206" style="fill: #ffffff; stroke: #1a56db; stroke-width: 2"/>
     <use xlink:href="#mb44e1b04c7" x="124.022287" y="132.059782" style="fill: #ffffff; stroke: #1a56db; stroke-width: 2"/>
     <use xlink:href="#mb44e1b04c7" x="184.547741" y="148.956752" style="fill: #ffffff; stroke: #1a56db; stroke-width: 2"/>
     <use xlink:href="#mb44e1b04c7" x="245.073196" y="106.714328" style="fill: #ffffff; stroke: #1a56db; stroke-width: 2"/>
     <use xlink:href="#mb44e1b04c7" x="305.598651" y="72.920388" style="fill: #ffffff; stroke: #1a56db; stroke-width: 2"/>
     <use xlink:href="#mb44e1b04c7" x="366.124105" y="89.817358" style="fill: #ffffff; stroke: #1a56db; stroke-width: 2"/>
    </g>
   </g>
  </g>
 </g>
 <defs>
  <clipPath id="pd424b517ec">
   <rect x="48.365469" y="31.522812" width="332.89" height="167.28"/>
  </clipPath>
 </defs>
</svg>
