<?xml version="1.0" encoding="utf-8" standalone="no"?>
<!DOCTYPE svg PUBLIC "-//W3C//DTD SVG 1.1//EN"
  "http://www.w3.org/Graphics/SVG/1.1/DTD/svg11.dtd">
<svg xmlns:xlink="http://www.w3.org/1999/xlink" width="388.389773pt" height="243.549375pt" viewBox="0 0 388.389773 243.549375" xmlns="http://www.w3.org/2000/svg" version="1.1">
 <metadata>
  <rdf:RDF xmlns:dc="http://purl.org/dc/elements/1.1/" xmlns:cc="http://creativecommons.org/ns#" xmlns:rdf="http://www.w3.org/1999/02/22-rdf-syntax-ns#">
   <cc:Work>
    <dc:type rdf:resource="http://purl.org/dc/dcmitype/StillImage"/>
    <dc:date>2026-05-27T13:25:50.142998</dc:date>
    <dc:format>image/svg+xml</dc:format>
    <dc:creator>
     <cc:Agent>
      <dc:title>Matplotlib v3.10.9, https://matplotlib.org/</dc:title>
     </cc:Agent>
    </dc:creator>
   </cc:Work>
  </rdf:RDF>
 </metadata>
 <defs>
  <style type="text/css">*{stroke-linejoin: round; stroke-linecap: butt}</style>
 </defs>
 <g id="figure_1">
  <g id="patch_1">
   <path d="M 0 243.549375 
L 388.389773 243.549375 
L 388.389773 0 
L 0 0 
z
" style="fill: #f8fafc"/>
  </g>
  <g id="axes_1">
   <g id="patch_2">
    <path d="M 50.2 206.682813 
L 368.82 206.682813 
L 368.82 31.522812 
L 50.2 31.522812 
z
" style="fill: #f8fafc"/>
   </g>
   <g id="matplotlib.axis_1">
    <g id="xtick_1">
     <g id="line2d_1">
      <path d="M 94.945142 206.682813 
L 94.945142 31.522812 
" clip-path="url(#p91158fe327)" style="fill: none; stroke: #64748b; stroke-opacity: 0.15; stroke-width: 0.5; stroke-linecap: square"/>
     </g>
     <g id="line2d_2">
      <defs>
       <path id="m04b79fea9e" d="M 0 0 
L 0 3.5 
" style="stroke: #64748b; stroke-width: 0.8"/>
      </defs>
      <g>
       <use xlink:href="#m04b79fea9e" x="94.945142" y="206.682813" style="fill: #64748b; stroke: #64748b; stroke-width: 0.8"/>
      </g>
     </g>
     <g id="text_1">
      <!-- 2000 -->
      <g style="fill: #64748b" transform="translate(85.568267 220.829375) scale(0.09 -0.09)">
       <defs>
        <path id="NotoSansSC-Thin-32" d="M 294 0 
L 294 147 
Q 1120 858 1613 1434 
Q 2106 2010 2323 2499 
Q 2541 2989 2541 3424 
Q 2541 3725 2435 3974 
Q 2330 4224 2106 4371 
Q 1882 4518 1523 4518 
Q 1210 4518 931 4352 
Q 653 4186 442 3923 
L 282 4070 
Q 525 4346 829 4538 
Q 1133 4730 1542 4730 
Q 1939 4730 2214 4566 
Q 2490 4403 2637 4112 
Q 2784 3821 2784 3424 
Q 2784 2918 2537 2406 
Q 2291 1894 1820 1347 
Q 1350 800 678 179 
Q 870 192 1062 201 
Q 1254 211 1440 211 
L 3014 211 
L 3014 0 
L 294 0 
z
" transform="scale(0.015625)"/>
        <path id="NotoSansSC-Thin-30" d="M 1670 -83 
Q 1261 -83 963 179 
Q 666 442 509 979 
Q 352 1517 352 2336 
Q 352 3149 509 3677 
Q 666 4205 963 4467 
Q 1261 4730 1670 4730 
Q 2080 4730 2371 4467 
Q 2662 4205 2822 3677 
Q 2982 3149 2982 2336 
Q 2982 1517 2822 979 
Q 2662 442 2371 179 
Q 2080 -83 1670 -83 
z
M 1670 128 
Q 1997 128 2240 384 
Q 2483 640 2614 1133 
Q 2746 1626 2746 2336 
Q 2746 3040 2614 3529 
Q 2483 4019 2240 4272 
Q 1997 4525 1670 4525 
Q 1344 4525 1101 4272 
Q 858 4019 723 3529 
Q 589 3040 589 2336 
Q 589 1626 723 1133 
Q 858 640 1101 384 
Q 1344 128 1670 128 
z
" transform="scale(0.015625)"/>
       </defs>
       <use xlink:href="#NotoSansSC-Thin-32"/>
       <use xlink:href="#NotoSansSC-Thin-30" transform="translate(52.099991 0)"/>
       <use xlink:href="#NotoSansSC-Thin-30" transform="translate(104.199982 0)"/>
       <use xlink:href="#NotoSansSC-Thin-30" transform="translate(156.299973 0)"/>
      </g>
     </g>
    </g>
    <g id="xtick_2">
     <g id="line2d_3">
      <path d="M 152.587838 206.682813 
L 152.587838 31.522812 
" clip-path="url(#p91158fe327)" style="fill: none; stroke: #64748b; stroke-opacity: 0.15; stroke-width: 0.5; stroke-linecap: square"/>
     </g>
     <g id="line2d_4">
      <g>
       <use xlink:href="#m04b79fea9e" x="152.587838" y="206.682813" style="fill: #64748b; stroke: #64748b; stroke-width: 0.8"/>
      </g>
     </g>
     <g id="text_2">
      <!-- 4000 -->
      <g style="fill: #64748b" transform="translate(143.210963 220.829375) scale(0.09 -0.09)">
       <defs>
        <path id="NotoSansSC-Thin-34" d="M 2195 0 
L 2195 3482 
Q 2195 3629 2204 3843 
Q 2214 4058 2227 4205 
L 2195 4205 
Q 2112 4058 2019 3901 
Q 1926 3744 1830 3590 
L 422 1568 
L 3110 1568 
L 3110 1363 
L 115 1363 
L 115 1485 
L 2259 4646 
L 2419 4646 
L 2419 0 
L 2195 0 
z
" transform="scale(0.015625)"/>
       </defs>
       <use xlink:href="#NotoSansSC-Thin-34"/>
       <use xlink:href="#NotoSansSC-Thin-30" transform="translate(52.099991 0)"/>
       <use xlink:href="#NotoSansSC-Thin-30" transform="translate(104.199982 0)"/>
       <use xlink:href="#NotoSansSC-Thin-30" transform="translate(156.299973 0)"/>
      </g>
     </g>
    </g>
    <g id="xtick_3">
     <g id="line2d_5">
      <path d="M 210.230534 206.682813 
L 210.230534 31.522812 
" clip-path="url(#p91158fe327)" style="fill: none; stroke: #64748b; stroke-opacity: 0.15; stroke-width: 0.5; stroke-linecap: square"/>
     </g>
     <g id="line2d_6">
      <g>
       <use xlink:href="#m04b79fea9e" x="210.230534" y="206.682813" style="fill: #64748b; stroke: #64748b; stroke-width: 0.8"/>
      </g>
     </g>
     <g id="text_3">
      <!-- 6000 -->
      <g style="fill: #64748b" transform="translate(200.853659 220.829375) scale(0.09 -0.09)">
       <defs>
        <path id="NotoSansSC-Thin-36" d="M 1837 -83 
Q 1498 -83 1232 67 
Q 966 218 780 509 
Q 595 800 496 1216 
Q 397 1632 397 2170 
Q 397 2886 528 3379 
Q 659 3872 889 4169 
Q 1120 4467 1414 4598 
Q 1709 4730 2029 4730 
Q 2330 4730 2550 4614 
Q 2771 4499 2944 4307 
L 2790 4147 
Q 2643 4333 2444 4425 
Q 2246 4518 2022 4518 
Q 1651 4518 1334 4297 
Q 1018 4077 826 3561 
Q 634 3046 634 2170 
Q 634 1581 762 1120 
Q 890 659 1158 393 
Q 1427 128 1850 128 
Q 2125 128 2336 297 
Q 2547 467 2672 752 
Q 2797 1037 2797 1382 
Q 2797 1741 2694 2025 
Q 2592 2310 2368 2476 
Q 2144 2643 1779 2643 
Q 1523 2643 1209 2470 
Q 896 2298 602 1888 
L 602 2176 
Q 768 2381 957 2531 
Q 1146 2682 1360 2762 
Q 1574 2842 1792 2842 
Q 2189 2842 2467 2675 
Q 2746 2509 2893 2185 
Q 3040 1862 3040 1382 
Q 3040 960 2873 630 
Q 2707 301 2435 109 
Q 2163 -83 1837 -83 
z
" transform="scale(0.015625)"/>
       </defs>
       <use xlink:href="#NotoSansSC-Thin-36"/>
       <use xlink:href="#NotoSansSC-Thin-30" transform="translate(52.099991 0)"/>
       <use xlink:href="#NotoSansSC-Thin-30" transform="translate(104.199982 0)"/>
       <use xlink:href="#NotoSansSC-Thin-30" transform="translate(156.299973 0)"/>
      </g>
     </g>
    </g>
    <g id="xtick_4">
     <g id="line2d_7">
      <path d="M 267.873229 206.682813 
L 267.873229 31.522812 
" clip-path="url(#p91158fe327)" style="fill: none; stroke: #64748b; stroke-opacity: 0.15; stroke-width: 0.5; stroke-linecap: square"/>
     </g>
     <g id="line2d_8">
      <g>
       <use xlink:href="#m04b79fea9e" x="267.873229" y="206.682813" style="fill: #64748b; stroke: #64748b; stroke-width: 0.8"/>
      </g>
     </g>
     <g id="text_4">
      <!-- 8000 -->
      <g style="fill: #64748b" transform="translate(258.496354 220.829375) scale(0.09 -0.09)">
       <defs>
        <path id="NotoSansSC-Thin-38" d="M 1696 -83 
Q 1286 -83 966 80 
Q 646 243 464 521 
Q 282 800 282 1152 
Q 282 1478 422 1744 
Q 563 2010 774 2202 
Q 986 2394 1197 2509 
L 1197 2534 
Q 954 2694 752 2953 
Q 550 3213 550 3578 
Q 550 3910 704 4163 
Q 858 4416 1117 4560 
Q 1376 4704 1696 4704 
Q 2080 4704 2345 4544 
Q 2611 4384 2752 4112 
Q 2893 3840 2893 3494 
Q 2893 3238 2784 3008 
Q 2675 2778 2528 2602 
Q 2381 2426 2253 2317 
L 2253 2285 
Q 2445 2170 2627 2010 
Q 2810 1850 2925 1626 
Q 3040 1402 3040 1082 
Q 3040 762 2870 496 
Q 2701 230 2400 73 
Q 2099 -83 1696 -83 
z
M 2035 2387 
Q 2336 2630 2499 2905 
Q 2662 3181 2662 3494 
Q 2662 3763 2550 3990 
Q 2438 4218 2220 4358 
Q 2003 4499 1696 4499 
Q 1293 4499 1040 4236 
Q 787 3974 787 3578 
Q 787 3238 972 3017 
Q 1158 2797 1446 2653 
Q 1734 2509 2035 2387 
z
M 1696 128 
Q 2035 128 2281 256 
Q 2528 384 2662 601 
Q 2797 819 2797 1082 
Q 2797 1370 2675 1574 
Q 2554 1779 2352 1923 
Q 2150 2067 1894 2182 
Q 1638 2298 1370 2400 
Q 998 2189 758 1875 
Q 518 1562 518 1152 
Q 518 870 668 636 
Q 819 403 1088 265 
Q 1357 128 1696 128 
z
" transform="scale(0.015625)"/>
       </defs>
       <use xlink:href="#NotoSansSC-Thin-38"/>
       <use xlink:href="#NotoSansSC-Thin-30" transform="translate(52.099991 0)"/>
       <use xlink:href="#NotoSansSC-Thin-30" transform="translate(104.199982 0)"/>
       <use xlink:href="#NotoSansSC-Thin-30" transform="translate(156.299973 0)"/>
      </g>
     </g>
    </g>
    <g id="xtick_5">
     <g id="line2d_9">
      <path d="M 325.515925 206.682813 
L 325.515925 31.522812 
" clip-path="url(#p91158fe327)" style="fill: none; stroke: #64748b; stroke-opacity: 0.15; stroke-width: 0.5; stroke-linecap: square"/>
     </g>
     <g id="line2d_10">
      <g>
       <use xlink:href="#m04b79fea9e" x="325.515925" y="206.682813" style="fill: #64748b; stroke: #64748b; stroke-width: 0.8"/>
      </g>
     </g>
     <g id="text_5">
      <!-- 10000 -->
      <g style="fill: #64748b" transform="translate(313.794831 220.829375) scale(0.09 -0.09)">
       <defs>
        <path id="NotoSansSC-Thin-31" d="M 608 0 
L 608 211 
L 1677 211 
L 1677 4211 
L 864 4211 
L 864 4378 
Q 1133 4422 1344 4492 
Q 1555 4563 1702 4646 
L 1901 4646 
L 1901 211 
L 2899 211 
L 2899 0 
L 608 0 
z
" transform="scale(0.015625)"/>
       </defs>
       <use xlink:href="#NotoSansSC-Thin-31"/>
       <use xlink:href="#NotoSansSC-Thin-30" transform="translate(52.099991 0)"/>
       <use xlink:href="#NotoSansSC-Thin-30" transform="translate(104.199982 0)"/>
       <use xlink:href="#NotoSansSC-Thin-30" transform="translate(156.299973 0)"/>
       <use xlink:href="#NotoSansSC-Thin-30" transform="translate(208.399963 0)"/>
      </g>
     </g>
    </g>
    <g id="text_6">
     <!-- 点位 -->
     <g style="fill: #64748b" transform="translate(200.51 234.162656) scale(0.09 -0.09)">
      <defs>
       <path id="NotoSansSC-Thin-70b9" d="M 3040 5318 
L 3226 5318 
L 3226 3174 
L 3040 3174 
L 3040 5318 
z
M 1318 3110 
L 1318 1638 
L 5069 1638 
L 5069 3110 
L 1318 3110 
z
M 1139 3302 
L 5254 3302 
L 5254 1453 
L 1139 1453 
L 1139 3302 
z
M 3130 4518 
L 5792 4518 
L 5792 4326 
L 3130 4326 
L 3130 4518 
z
M 2304 819 
L 2490 826 
Q 2534 634 2569 413 
Q 2605 192 2624 -6 
Q 2643 -205 2643 -346 
L 2445 -378 
Q 2445 -224 2429 -19 
Q 2413 186 2381 406 
Q 2349 627 2304 819 
z
M 3635 813 
L 3808 845 
Q 3910 659 4003 441 
Q 4096 224 4173 19 
Q 4250 -186 4282 -333 
L 4096 -384 
Q 4064 -230 3990 -22 
Q 3917 186 3827 406 
Q 3738 627 3635 813 
z
M 4947 877 
L 5114 954 
Q 5286 755 5456 531 
Q 5626 307 5763 89 
Q 5901 -128 5978 -301 
L 5811 -390 
Q 5734 -218 5593 3 
Q 5453 224 5286 454 
Q 5120 685 4947 877 
z
M 1280 928 
L 1453 877 
Q 1274 518 1030 150 
Q 787 -218 512 -461 
L 346 -384 
Q 627 -154 873 208 
Q 1120 570 1280 928 
z
" transform="scale(0.015625)"/>
       <path id="NotoSansSC-Thin-4f4d" d="M 2400 4064 
L 5792 4064 
L 5792 3878 
L 2400 3878 
L 2400 4064 
z
M 2867 3264 
L 3046 3302 
Q 3136 2950 3216 2560 
Q 3296 2170 3363 1786 
Q 3430 1402 3481 1069 
Q 3533 736 3558 486 
L 3360 429 
Q 3341 685 3293 1027 
Q 3245 1370 3177 1757 
Q 3110 2144 3030 2531 
Q 2950 2918 2867 3264 
z
M 5062 3379 
L 5267 3334 
Q 5197 2944 5110 2493 
Q 5024 2042 4925 1578 
Q 4826 1114 4723 688 
Q 4621 262 4525 -77 
L 4346 -19 
Q 4442 314 4544 742 
Q 4646 1171 4742 1638 
Q 4838 2106 4921 2557 
Q 5005 3008 5062 3379 
z
M 2086 13 
L 6099 13 
L 6099 -173 
L 2086 -173 
L 2086 13 
z
M 3757 5254 
L 3930 5312 
Q 4019 5069 4115 4784 
Q 4211 4499 4256 4294 
L 4070 4230 
Q 4026 4435 3939 4723 
Q 3853 5011 3757 5254 
z
M 2010 5293 
L 2189 5242 
Q 1978 4704 1699 4192 
Q 1421 3680 1097 3235 
Q 774 2790 429 2438 
Q 416 2458 390 2486 
Q 365 2515 339 2547 
Q 314 2579 288 2592 
Q 634 2925 950 3357 
Q 1267 3789 1539 4285 
Q 1811 4781 2010 5293 
z
M 1293 3763 
L 1472 3942 
L 1478 3936 
L 1478 -435 
L 1293 -435 
L 1293 3763 
z
" transform="scale(0.015625)"/>
      </defs>
      <use xlink:href="#NotoSansSC-Thin-70b9"/>
      <use xlink:href="#NotoSansSC-Thin-4f4d" transform="translate(99.999985 0)"/>
     </g>
    </g>
   </g>
   <g id="matplotlib.axis_2">
    <g id="ytick_1">
     <g id="line2d_11">
      <defs>
       <path id="m74794875b3" d="M 0 0 
L -3.5 0 
" style="stroke: #64748b; stroke-width: 0.8"/>
      </defs>
      <g>
       <use xlink:href="#m74794875b3" x="50.2" y="198.720994" style="fill: #64748b; stroke: #64748b; stroke-width: 0.8"/>
      </g>
     </g>
     <g id="text_7">
      <!-- 上证指数 -->
      <g style="fill: #64748b" transform="translate(7.2 202.294276) scale(0.09 -0.09)">
       <defs>
        <path id="NotoSansSC-Thin-4e0a" d="M 3002 3091 
L 5600 3091 
L 5600 2906 
L 3002 2906 
L 3002 3091 
z
M 378 32 
L 6029 32 
L 6029 -154 
L 378 -154 
L 378 32 
z
M 2886 5203 
L 3072 5203 
L 3072 -51 
L 2886 -51 
L 2886 5203 
z
" transform="scale(0.015625)"/>
        <path id="NotoSansSC-Thin-8bc1" d="M 4166 4685 
L 4352 4685 
L 4352 -109 
L 4166 -109 
L 4166 4685 
z
M 2861 3264 
L 3046 3264 
L 3046 -122 
L 2861 -122 
L 2861 3264 
z
M 4250 2637 
L 5837 2637 
L 5837 2445 
L 4250 2445 
L 4250 2637 
z
M 2502 4736 
L 5952 4736 
L 5952 4550 
L 2502 4550 
L 2502 4736 
z
M 2227 0 
L 6099 0 
L 6099 -186 
L 2227 -186 
L 2227 0 
z
M 781 4966 
L 922 5082 
Q 1101 4947 1286 4784 
Q 1472 4621 1635 4461 
Q 1798 4301 1894 4173 
L 1754 4032 
Q 1651 4160 1488 4323 
Q 1325 4486 1142 4656 
Q 960 4826 781 4966 
z
M 1248 -205 
L 1242 -6 
L 1350 154 
L 2400 838 
Q 2413 819 2425 793 
Q 2438 768 2451 739 
Q 2464 710 2470 691 
Q 2086 422 1856 262 
Q 1626 102 1504 16 
Q 1382 -70 1331 -118 
Q 1280 -166 1248 -205 
z
M 384 3270 
L 1581 3270 
L 1581 3078 
L 384 3078 
L 384 3270 
z
M 1248 -205 
Q 1235 -179 1209 -150 
Q 1184 -122 1161 -93 
Q 1139 -64 1114 -45 
Q 1158 -13 1235 60 
Q 1312 134 1373 243 
Q 1434 352 1434 493 
L 1434 3270 
L 1619 3270 
L 1619 198 
Q 1619 198 1580 166 
Q 1542 134 1488 86 
Q 1434 38 1379 -19 
Q 1325 -77 1286 -125 
Q 1248 -173 1248 -205 
z
" transform="scale(0.015625)"/>
        <path id="NotoSansSC-Thin-6307" d="M 2867 5274 
L 3053 5274 
L 3053 3373 
Q 3053 3226 3155 3174 
Q 3258 3123 3597 3123 
Q 3661 3123 3830 3123 
Q 4000 3123 4224 3123 
Q 4448 3123 4675 3123 
Q 4902 3123 5088 3123 
Q 5274 3123 5363 3123 
Q 5562 3123 5658 3187 
Q 5754 3251 5792 3440 
Q 5830 3629 5850 4000 
Q 5882 3974 5936 3955 
Q 5990 3936 6035 3923 
Q 6016 3526 5961 3312 
Q 5907 3098 5769 3018 
Q 5632 2938 5363 2938 
Q 5325 2938 5149 2938 
Q 4973 2938 4733 2938 
Q 4493 2938 4253 2938 
Q 4013 2938 3837 2938 
Q 3661 2938 3622 2938 
Q 3334 2938 3168 2970 
Q 3002 3002 2934 3098 
Q 2867 3194 2867 3379 
L 2867 5274 
z
M 5459 4832 
L 5626 4678 
Q 5299 4550 4857 4432 
Q 4416 4314 3933 4208 
Q 3450 4102 2995 4019 
Q 2989 4051 2966 4096 
Q 2944 4141 2918 4179 
Q 3366 4262 3846 4368 
Q 4326 4474 4752 4595 
Q 5178 4717 5459 4832 
z
M 2880 2234 
L 5792 2234 
L 5792 -416 
L 5600 -416 
L 5600 2048 
L 3066 2048 
L 3066 -442 
L 2880 -442 
L 2880 2234 
z
M 2970 1165 
L 5683 1165 
L 5683 979 
L 2970 979 
L 2970 1165 
z
M 2970 58 
L 5709 58 
L 5709 -128 
L 2970 -128 
L 2970 58 
z
M 262 1792 
Q 531 1875 880 1987 
Q 1229 2099 1625 2230 
Q 2022 2362 2419 2496 
L 2451 2310 
Q 1894 2125 1337 1933 
Q 781 1741 352 1600 
L 262 1792 
z
M 326 3936 
L 2368 3936 
L 2368 3744 
L 326 3744 
L 326 3936 
z
M 1318 5312 
L 1504 5312 
L 1504 -141 
Q 1504 -269 1462 -329 
Q 1421 -390 1331 -416 
Q 1242 -442 1069 -448 
Q 896 -454 595 -448 
Q 589 -416 563 -365 
Q 538 -314 518 -269 
Q 768 -275 953 -275 
Q 1139 -275 1197 -269 
Q 1261 -269 1289 -243 
Q 1318 -218 1318 -147 
L 1318 5312 
z
" transform="scale(0.015625)"/>
        <path id="NotoSansSC-Thin-6570" d="M 512 1990 
L 2970 1990 
L 2970 1798 
L 512 1798 
L 512 1990 
z
M 365 4064 
L 3386 4064 
L 3386 3878 
L 365 3878 
L 365 4064 
z
M 2957 5146 
L 3123 5050 
Q 3002 4826 2845 4586 
Q 2688 4346 2554 4173 
L 2419 4256 
Q 2509 4371 2608 4531 
Q 2707 4691 2800 4854 
Q 2893 5018 2957 5146 
z
M 1792 5318 
L 1984 5318 
L 1984 2611 
L 1792 2611 
L 1792 5318 
z
M 691 5043 
L 845 5101 
Q 992 4902 1117 4662 
Q 1242 4422 1286 4250 
L 1139 4179 
Q 1088 4352 960 4598 
Q 832 4845 691 5043 
z
M 1792 3987 
L 1946 3904 
Q 1798 3622 1561 3344 
Q 1325 3066 1046 2832 
Q 768 2598 486 2445 
Q 467 2490 428 2538 
Q 390 2586 358 2618 
Q 634 2746 909 2960 
Q 1184 3174 1417 3443 
Q 1651 3712 1792 3987 
z
M 1946 3866 
Q 2029 3814 2205 3696 
Q 2381 3578 2585 3443 
Q 2790 3309 2960 3190 
Q 3130 3072 3200 3021 
L 3072 2854 
Q 2995 2925 2832 3049 
Q 2669 3174 2473 3315 
Q 2278 3456 2105 3574 
Q 1933 3693 1830 3750 
L 1946 3866 
z
M 3962 4013 
L 5997 4013 
L 5997 3827 
L 3962 3827 
L 3962 4013 
z
M 4128 5222 
L 4314 5190 
Q 4218 4614 4083 4086 
Q 3949 3558 3766 3100 
Q 3584 2643 3354 2285 
Q 3341 2298 3309 2320 
Q 3277 2342 3241 2361 
Q 3206 2381 3181 2394 
Q 3424 2733 3603 3184 
Q 3782 3635 3913 4153 
Q 4045 4672 4128 5222 
z
M 5357 3936 
L 5549 3910 
Q 5382 2829 5084 2006 
Q 4787 1184 4291 579 
Q 3795 -26 3040 -454 
Q 3027 -435 3004 -406 
Q 2982 -378 2956 -349 
Q 2931 -320 2906 -301 
Q 3654 90 4140 678 
Q 4627 1267 4915 2076 
Q 5203 2886 5357 3936 
z
M 3994 3789 
Q 4147 2874 4425 2070 
Q 4704 1267 5133 668 
Q 5562 70 6150 -243 
Q 6112 -269 6073 -313 
Q 6035 -358 6010 -397 
Q 5414 -51 4985 563 
Q 4557 1178 4275 1997 
Q 3994 2816 3834 3757 
L 3994 3789 
z
M 896 1018 
L 1050 1152 
Q 1370 1037 1722 873 
Q 2074 710 2387 544 
Q 2701 378 2906 230 
L 2752 90 
Q 2554 237 2240 406 
Q 1926 576 1574 739 
Q 1222 902 896 1018 
z
M 2880 1990 
L 2918 1990 
L 2963 2003 
L 3066 1946 
Q 2874 1286 2474 825 
Q 2074 365 1552 80 
Q 1030 -205 467 -358 
Q 454 -320 422 -272 
Q 390 -224 358 -198 
Q 902 -64 1411 205 
Q 1920 474 2310 906 
Q 2701 1338 2880 1946 
L 2880 1990 
z
M 896 1018 
Q 1030 1210 1168 1453 
Q 1306 1696 1427 1952 
Q 1549 2208 1632 2438 
L 1811 2406 
Q 1722 2170 1597 1910 
Q 1472 1651 1341 1414 
Q 1210 1178 1094 1005 
L 896 1018 
z
" transform="scale(0.015625)"/>
       </defs>
       <use xlink:href="#NotoSansSC-Thin-4e0a"/>
       <use xlink:href="#NotoSansSC-Thin-8bc1" transform="translate(99.999985 0)"/>
       <use xlink:href="#NotoSansSC-Thin-6307" transform="translate(199.999969 0)"/>
       <use xlink:href="#NotoSansSC-Thin-6570" transform="translate(299.999954 0)"/>
      </g>
     </g>
    </g>
    <g id="ytick_2">
     <g id="line2d_12">
      <g>
       <use xlink:href="#m74794875b3" x="50.2" y="145.642206" style="fill: #64748b; stroke: #64748b; stroke-width: 0.8"/>
      </g>
     </g>
     <g id="text_8">
      <!-- 深证成指 -->
      <g style="fill: #64748b" transform="translate(7.2 149.215488) scale(0.09 -0.09)">
       <defs>
        <path id="NotoSansSC-Thin-6df1" d="M 2074 2234 
L 5805 2234 
L 5805 2048 
L 2074 2048 
L 2074 2234 
z
M 2138 4909 
L 5779 4909 
L 5779 3923 
L 5587 3923 
L 5587 4717 
L 2330 4717 
L 2330 3910 
L 2138 3910 
L 2138 4909 
z
M 3814 2995 
L 4000 2995 
L 4000 -448 
L 3814 -448 
L 3814 2995 
z
M 4166 2170 
Q 4352 1741 4637 1341 
Q 4922 941 5270 624 
Q 5619 307 5978 122 
Q 5952 102 5926 73 
Q 5901 45 5878 16 
Q 5856 -13 5837 -38 
Q 5478 173 5126 509 
Q 4774 845 4480 1257 
Q 4186 1670 3994 2106 
L 4166 2170 
z
M 3667 2182 
L 3834 2118 
Q 3648 1651 3347 1235 
Q 3046 819 2675 496 
Q 2304 173 1907 -32 
Q 1882 13 1843 57 
Q 1805 102 1773 128 
Q 2170 314 2534 624 
Q 2899 934 3193 1337 
Q 3488 1741 3667 2182 
z
M 3360 4147 
L 3546 4096 
Q 3398 3827 3187 3574 
Q 2976 3322 2742 3104 
Q 2509 2886 2272 2720 
Q 2259 2739 2227 2764 
Q 2195 2790 2163 2816 
Q 2131 2842 2106 2854 
Q 2477 3091 2809 3430 
Q 3142 3770 3360 4147 
z
M 4314 4083 
L 4454 4192 
Q 4691 4000 4931 3763 
Q 5171 3526 5376 3299 
Q 5581 3072 5702 2893 
L 5555 2765 
Q 5434 2944 5229 3177 
Q 5024 3411 4787 3648 
Q 4550 3885 4314 4083 
z
M 646 5094 
L 762 5229 
Q 947 5139 1142 5024 
Q 1338 4909 1517 4787 
Q 1696 4666 1811 4563 
L 1696 4403 
Q 1587 4506 1411 4630 
Q 1235 4755 1033 4880 
Q 832 5005 646 5094 
z
M 307 3354 
L 442 3488 
Q 646 3411 864 3302 
Q 1082 3194 1274 3078 
Q 1466 2963 1594 2861 
L 1466 2714 
Q 1338 2810 1142 2925 
Q 947 3040 729 3155 
Q 512 3270 307 3354 
z
M 493 -166 
Q 646 83 828 432 
Q 1011 781 1200 1165 
Q 1389 1549 1542 1901 
L 1670 1773 
Q 1523 1440 1344 1065 
Q 1165 691 982 332 
Q 800 -26 640 -307 
L 493 -166 
z
" transform="scale(0.015625)"/>
        <path id="NotoSansSC-Thin-6210" d="M 1024 2925 
L 2726 2925 
L 2726 2733 
L 1024 2733 
L 1024 2925 
z
M 2643 2925 
L 2829 2925 
Q 2829 2925 2829 2902 
Q 2829 2880 2829 2848 
Q 2829 2816 2829 2797 
Q 2810 2035 2787 1580 
Q 2765 1126 2729 902 
Q 2694 678 2630 602 
Q 2573 544 2502 518 
Q 2432 493 2304 486 
Q 2182 480 1968 486 
Q 1754 493 1510 512 
Q 1504 550 1491 601 
Q 1478 653 1453 691 
Q 1715 666 1945 662 
Q 2176 659 2259 659 
Q 2330 659 2381 668 
Q 2432 678 2464 717 
Q 2522 781 2554 998 
Q 2586 1216 2608 1667 
Q 2630 2118 2643 2880 
L 2643 2925 
z
M 4320 5075 
L 4435 5203 
Q 4659 5094 4899 4956 
Q 5139 4819 5347 4681 
Q 5555 4544 5690 4429 
L 5581 4288 
Q 5446 4403 5235 4544 
Q 5024 4685 4787 4825 
Q 4550 4966 4320 5075 
z
M 5402 3251 
L 5587 3200 
Q 5171 1946 4448 1056 
Q 3725 166 2714 -410 
Q 2701 -390 2672 -361 
Q 2643 -333 2617 -304 
Q 2592 -275 2566 -256 
Q 3590 282 4300 1165 
Q 5011 2048 5402 3251 
z
M 1056 4102 
L 6029 4102 
L 6029 3917 
L 1056 3917 
L 1056 4102 
z
M 947 4102 
L 1139 4102 
L 1139 2374 
Q 1139 2054 1113 1689 
Q 1088 1325 1021 944 
Q 954 563 819 204 
Q 685 -154 461 -461 
Q 448 -442 419 -419 
Q 390 -397 361 -377 
Q 333 -358 307 -346 
Q 595 58 729 531 
Q 864 1005 905 1485 
Q 947 1965 947 2381 
L 947 4102 
z
M 3667 5306 
L 3859 5306 
Q 3866 4320 3946 3472 
Q 4026 2624 4173 1945 
Q 4320 1267 4528 787 
Q 4736 307 4995 51 
Q 5254 -205 5555 -205 
Q 5722 -205 5795 76 
Q 5869 358 5894 1030 
Q 5926 1005 5980 979 
Q 6035 954 6074 941 
Q 6048 442 5997 147 
Q 5946 -147 5840 -275 
Q 5734 -403 5542 -403 
Q 5242 -403 4986 -204 
Q 4730 -6 4525 362 
Q 4320 730 4163 1245 
Q 4006 1760 3897 2397 
Q 3789 3034 3731 3770 
Q 3674 4506 3667 5306 
z
" transform="scale(0.015625)"/>
       </defs>
       <use xlink:href="#NotoSansSC-Thin-6df1"/>
       <use xlink:href="#NotoSansSC-Thin-8bc1" transform="translate(99.999985 0)"/>
       <use xlink:href="#NotoSansSC-Thin-6210" transform="translate(199.999969 0)"/>
       <use xlink:href="#NotoSansSC-Thin-6307" transform="translate(299.999954 0)"/>
      </g>
     </g>
    </g>
    <g id="ytick_3">
     <g id="line2d_13">
      <g>
       <use xlink:href="#m74794875b3" x="50.2" y="92.563419" style="fill: #64748b; stroke: #64748b; stroke-width: 0.8"/>
      </g>
     </g>
     <g id="text_9">
      <!-- 创业板指 -->
      <g style="fill: #64748b" transform="translate(7.2 96.1367) scale(0.09 -0.09)">
       <defs>
        <path id="NotoSansSC-Thin-521b" d="M 5555 5235 
L 5747 5235 
L 5747 -70 
Q 5747 -224 5689 -291 
Q 5632 -358 5523 -390 
Q 5408 -416 5168 -419 
Q 4928 -422 4486 -416 
Q 4474 -384 4451 -333 
Q 4429 -282 4397 -237 
Q 4646 -243 4848 -243 
Q 5050 -243 5190 -240 
Q 5331 -237 5389 -237 
Q 5478 -230 5516 -195 
Q 5555 -160 5555 -77 
L 5555 5235 
z
M 4282 4557 
L 4467 4557 
L 4467 1082 
L 4282 1082 
L 4282 4557 
z
M 1043 2957 
L 2995 2957 
L 2995 2765 
L 1043 2765 
L 1043 2957 
z
M 966 2957 
L 1158 2957 
L 1158 90 
Q 1158 -70 1235 -124 
Q 1312 -179 1581 -179 
Q 1651 -179 1836 -179 
Q 2022 -179 2249 -179 
Q 2477 -179 2672 -179 
Q 2867 -179 2957 -179 
Q 3123 -179 3203 -108 
Q 3283 -38 3315 176 
Q 3347 390 3360 813 
Q 3398 781 3452 758 
Q 3507 736 3552 723 
Q 3533 294 3485 54 
Q 3437 -186 3318 -278 
Q 3200 -371 2957 -371 
Q 2918 -371 2780 -371 
Q 2643 -371 2457 -371 
Q 2272 -371 2086 -371 
Q 1901 -371 1766 -371 
Q 1632 -371 1600 -371 
Q 1357 -371 1219 -336 
Q 1082 -301 1024 -201 
Q 966 -102 966 90 
L 966 2957 
z
M 2931 2957 
L 3117 2957 
Q 3117 2957 3117 2912 
Q 3117 2867 3110 2835 
Q 3078 2259 3040 1913 
Q 3002 1568 2950 1389 
Q 2899 1210 2829 1139 
Q 2771 1082 2704 1059 
Q 2637 1037 2528 1030 
Q 2445 1030 2281 1033 
Q 2118 1037 1946 1050 
Q 1939 1094 1926 1142 
Q 1914 1190 1888 1235 
Q 2093 1216 2262 1209 
Q 2432 1203 2496 1203 
Q 2566 1203 2608 1212 
Q 2650 1222 2682 1261 
Q 2733 1318 2777 1491 
Q 2822 1664 2860 2006 
Q 2899 2349 2931 2912 
L 2931 2957 
z
M 1971 4915 
L 2112 4998 
Q 2413 4710 2726 4374 
Q 3040 4038 3312 3718 
Q 3584 3398 3757 3155 
L 3616 3040 
Q 3443 3283 3171 3606 
Q 2899 3930 2585 4275 
Q 2272 4621 1971 4915 
z
M 2106 5280 
L 2298 5235 
Q 2003 4582 1510 3936 
Q 1018 3290 397 2797 
Q 378 2816 349 2832 
Q 320 2848 294 2867 
Q 269 2886 243 2899 
Q 666 3219 1024 3616 
Q 1382 4013 1660 4438 
Q 1939 4864 2106 5280 
z
" transform="scale(0.015625)"/>
        <path id="NotoSansSC-Thin-4e1a" d="M 442 102 
L 5978 102 
L 5978 -90 
L 442 -90 
L 442 102 
z
M 2368 5242 
L 2554 5242 
L 2554 -6 
L 2368 -6 
L 2368 5242 
z
M 3866 5229 
L 4051 5229 
L 4051 -26 
L 3866 -26 
L 3866 5229 
z
M 5594 3699 
L 5773 3622 
Q 5613 3290 5411 2909 
Q 5210 2528 4998 2166 
Q 4787 1805 4595 1517 
L 4435 1606 
Q 4627 1888 4841 2256 
Q 5056 2624 5254 3005 
Q 5453 3386 5594 3699 
z
M 640 3667 
L 826 3725 
Q 1018 3392 1206 3011 
Q 1395 2630 1558 2275 
Q 1722 1920 1811 1664 
L 1619 1581 
Q 1536 1843 1376 2204 
Q 1216 2566 1024 2953 
Q 832 3341 640 3667 
z
" transform="scale(0.015625)"/>
        <path id="NotoSansSC-Thin-677f" d="M 442 4038 
L 2477 4038 
L 2477 3853 
L 442 3853 
L 442 4038 
z
M 1446 5318 
L 1632 5318 
L 1632 -435 
L 1446 -435 
L 1446 5318 
z
M 1434 3987 
L 1600 3942 
Q 1517 3558 1389 3145 
Q 1261 2733 1104 2333 
Q 947 1933 774 1590 
Q 602 1248 429 1011 
Q 416 1037 390 1065 
Q 365 1094 336 1120 
Q 307 1146 282 1158 
Q 454 1382 624 1708 
Q 794 2035 950 2419 
Q 1107 2803 1232 3206 
Q 1357 3610 1434 3987 
z
M 1594 3610 
Q 1645 3546 1757 3382 
Q 1869 3219 1993 3024 
Q 2118 2829 2227 2665 
Q 2336 2502 2381 2426 
L 2240 2259 
Q 2189 2355 2086 2534 
Q 1984 2714 1865 2912 
Q 1747 3110 1641 3273 
Q 1536 3437 1478 3514 
L 1594 3610 
z
M 2784 4602 
L 2976 4602 
L 2976 3002 
Q 2976 2618 2947 2176 
Q 2918 1734 2835 1273 
Q 2752 813 2592 371 
Q 2432 -70 2163 -448 
Q 2144 -429 2115 -409 
Q 2086 -390 2060 -371 
Q 2035 -352 2010 -346 
Q 2272 32 2429 457 
Q 2586 883 2662 1331 
Q 2739 1779 2761 2208 
Q 2784 2637 2784 3008 
L 2784 4602 
z
M 2893 3302 
L 5574 3302 
L 5574 3110 
L 2893 3110 
L 2893 3302 
z
M 5517 3302 
L 5555 3302 
L 5587 3315 
L 5709 3264 
Q 5498 2266 5069 1533 
Q 4640 800 4070 313 
Q 3501 -173 2867 -448 
Q 2854 -422 2832 -396 
Q 2810 -371 2787 -342 
Q 2765 -314 2739 -294 
Q 3354 -38 3914 432 
Q 4474 902 4896 1606 
Q 5318 2310 5517 3251 
L 5517 3302 
z
M 3501 3226 
Q 3706 2419 4064 1712 
Q 4422 1005 4934 486 
Q 5446 -32 6106 -288 
Q 6080 -307 6054 -336 
Q 6029 -365 6003 -393 
Q 5978 -422 5958 -448 
Q 5299 -166 4787 368 
Q 4275 902 3916 1622 
Q 3558 2342 3347 3181 
L 3501 3226 
z
M 5670 5114 
L 5798 4960 
Q 5555 4851 5203 4768 
Q 4851 4685 4448 4621 
Q 4045 4557 3632 4512 
Q 3219 4467 2842 4435 
Q 2835 4474 2819 4522 
Q 2803 4570 2784 4602 
Q 3149 4634 3558 4678 
Q 3968 4723 4368 4787 
Q 4768 4851 5107 4931 
Q 5446 5011 5670 5114 
z
" transform="scale(0.015625)"/>
       </defs>
       <use xlink:href="#NotoSansSC-Thin-521b"/>
       <use xlink:href="#NotoSansSC-Thin-4e1a" transform="translate(99.999985 0)"/>
       <use xlink:href="#NotoSansSC-Thin-677f" transform="translate(199.999969 0)"/>
       <use xlink:href="#NotoSansSC-Thin-6307" transform="translate(299.999954 0)"/>
      </g>
     </g>
    </g>
    <g id="ytick_4">
     <g id="line2d_14">
      <g>
       <use xlink:href="#m74794875b3" x="50.2" y="39.484631" style="fill: #64748b; stroke: #64748b; stroke-width: 0.8"/>
      </g>
     </g>
     <g id="text_10">
      <!-- 科创50 -->
      <g style="fill: #64748b" transform="translate(15.823125 43.057912) scale(0.09 -0.09)">
       <defs>
        <path id="NotoSansSC-Thin-79d1" d="M 1536 4851 
L 1728 4851 
L 1728 -429 
L 1536 -429 
L 1536 4851 
z
M 346 3507 
L 2778 3507 
L 2778 3322 
L 346 3322 
L 346 3507 
z
M 1542 3450 
L 1696 3392 
Q 1594 3059 1443 2700 
Q 1293 2342 1113 1996 
Q 934 1651 745 1353 
Q 557 1056 371 851 
Q 352 883 310 928 
Q 269 973 237 998 
Q 416 1190 605 1472 
Q 794 1754 973 2086 
Q 1152 2419 1299 2771 
Q 1446 3123 1542 3450 
z
M 2438 5197 
L 2598 5050 
Q 2342 4941 1984 4841 
Q 1626 4742 1235 4665 
Q 845 4589 486 4531 
Q 480 4563 457 4608 
Q 435 4653 416 4685 
Q 774 4749 1158 4825 
Q 1542 4902 1881 4998 
Q 2221 5094 2438 5197 
z
M 1690 3187 
Q 1754 3110 1894 2928 
Q 2035 2746 2195 2531 
Q 2355 2317 2489 2128 
Q 2624 1939 2682 1856 
L 2534 1709 
Q 2477 1818 2349 2013 
Q 2221 2208 2067 2425 
Q 1914 2643 1779 2825 
Q 1645 3008 1574 3091 
L 1690 3187 
z
M 5030 5318 
L 5222 5318 
L 5222 -435 
L 5030 -435 
L 5030 5318 
z
M 2733 1114 
L 6086 1613 
L 6118 1446 
L 2758 934 
L 2733 1114 
z
M 3354 4685 
L 3469 4813 
Q 3680 4704 3891 4557 
Q 4102 4410 4284 4259 
Q 4467 4109 4582 3974 
L 4454 3834 
Q 4346 3962 4163 4115 
Q 3981 4269 3769 4419 
Q 3558 4570 3354 4685 
z
M 3078 3034 
L 3194 3155 
Q 3424 3040 3664 2883 
Q 3904 2726 4109 2566 
Q 4314 2406 4442 2272 
L 4326 2131 
Q 4198 2272 3990 2435 
Q 3782 2598 3545 2755 
Q 3309 2912 3078 3034 
z
" transform="scale(0.015625)"/>
        <path id="NotoSansSC-Thin-35" d="M 1581 -83 
Q 1222 -83 963 9 
Q 704 102 515 240 
Q 326 378 186 518 
L 333 691 
Q 467 550 636 422 
Q 806 294 1040 211 
Q 1274 128 1594 128 
Q 1901 128 2166 294 
Q 2432 461 2592 765 
Q 2752 1069 2752 1466 
Q 2752 2061 2441 2406 
Q 2131 2752 1606 2752 
Q 1350 2752 1152 2665 
Q 954 2579 755 2445 
L 563 2560 
L 730 4646 
L 2758 4646 
L 2758 4435 
L 941 4435 
L 787 2726 
Q 966 2835 1168 2902 
Q 1370 2970 1626 2970 
Q 2010 2970 2320 2813 
Q 2630 2656 2812 2326 
Q 2995 1997 2995 1478 
Q 2995 979 2787 630 
Q 2579 282 2256 99 
Q 1933 -83 1581 -83 
z
" transform="scale(0.015625)"/>
       </defs>
       <use xlink:href="#NotoSansSC-Thin-79d1"/>
       <use xlink:href="#NotoSansSC-Thin-521b" transform="translate(99.999985 0)"/>
       <use xlink:href="#NotoSansSC-Thin-35" transform="translate(199.999969 0)"/>
       <use xlink:href="#NotoSansSC-Thin-30" transform="translate(252.09996 0)"/>
      </g>
     </g>
    </g>
   </g>
   <g id="line2d_15">
    <path d="M 123.76649 198.720994 
L 135.295029 198.720994 
" clip-path="url(#p91158fe327)" style="fill: none; stroke: #cbd5e1; stroke-width: 2.5; stroke-linecap: square"/>
   </g>
   <g id="line2d_16">
    <path d="M 319.751655 145.642206 
L 354.337273 145.642206 
" clip-path="url(#p91158fe327)" style="fill: none; stroke: #cbd5e1; stroke-width: 2.5; stroke-linecap: square"/>
   </g>
   <g id="line2d_17">
    <path d="M 89.180873 92.563419 
L 100.709412 92.563419 
" clip-path="url(#p91158fe327)" style="fill: none; stroke: #cbd5e1; stroke-width: 2.5; stroke-linecap: square"/>
   </g>
   <g id="line2d_18">
    <path d="M 64.682727 39.484631 
L 67.564862 39.484631 
" clip-path="url(#p91158fe327)" style="fill: none; stroke: #cbd5e1; stroke-width: 2.5; stroke-linecap: square"/>
   </g>
   <g id="patch_3">
    <path d="M 50.2 206.682812 
L 50.2 31.522812 
" style="fill: none; stroke: #e2e8f0; stroke-width: 0.5; stroke-linejoin: miter; stroke-linecap: square"/>
   </g>
   <g id="patch_4">
    <path d="M 50.2 206.682813 
L 368.82 206.682813 
" style="fill: none; stroke: #e2e8f0; stroke-width: 0.5; stroke-linejoin: miter; stroke-linecap: square"/>
   </g>
   <g id="PathCollection_1">
    <defs>
     <path id="m3623d5828d" d="M 0 5 
C 1.326016 5 2.597899 4.473168 3.535534 3.535534 
C 4.473168 2.597899 5 1.326016 5 0 
C 5 -1.326016 4.473168 -2.597899 3.535534 -3.535534 
C 2.597899 -4.473168 1.326016 -5 0 -5 
C -1.326016 -5 -2.597899 -4.473168 -3.535534 -3.535534 
C -4.473168 -2.597899 -5 -1.326016 -5 0 
C -5 1.326016 -4.473168 2.597899 -3.535534 3.535534 
C -2.597899 4.473168 -1.326016 5 0 5 
z
" style="stroke: #ffffff; stroke-width: 1.5"/>
    </defs>
    <g clip-path="url(#p91158fe327)">
     <use xlink:href="#m3623d5828d" x="123.76649" y="198.720994" style="fill: #1a56db; stroke: #ffffff; stroke-width: 1.5"/>
     <use xlink:href="#m3623d5828d" x="319.751655" y="145.642206" style="fill: #1a56db; stroke: #ffffff; stroke-width: 1.5"/>
     <use xlink:href="#m3623d5828d" x="89.180873" y="92.563419" style="fill: #1a56db; stroke: #ffffff; stroke-width: 1.5"/>
     <use xlink:href="#m3623d5828d" x="64.682727" y="39.484631" style="fill: #1a56db; stroke: #ffffff; stroke-width: 1.5"/>
    </g>
   </g>
   <g id="PathCollection_2">
    <defs>
     <path id="ma9825fe628" d="M 0 5 
C 1.326016 5 2.597899 4.473168 3.535534 3.535534 
C 4.473168 2.597899 5 1.326016 5 0 
C 5 -1.326016 4.473168 -2.597899 3.535534 -3.535534 
C 2.597899 -4.473168 1.326016 -5 0 -5 
C -1.326016 -5 -2.597899 -4.473168 -3.535534 -3.535534 
C -4.473168 -2.597899 -5 -1.326016 -5 0 
C -5 1.326016 -4.473168 2.597899 -3.535534 3.535534 
C -2.597899 4.473168 -1.326016 5 0 5 
z
" style="stroke: #ffffff; stroke-width: 1.5"/>
    </defs>
    <g clip-path="url(#p91158fe327)">
     <use xlink:href="#ma9825fe628" x="135.295029" y="198.720994" style="fill: #dc2626; stroke: #ffffff; stroke-width: 1.5"/>
     <use xlink:href="#ma9825fe628" x="354.337273" y="145.642206" style="fill: #dc2626; stroke: #ffffff; stroke-width: 1.5"/>
     <use xlink:href="#ma9825fe628" x="100.709412" y="92.563419" style="fill: #dc2626; stroke: #ffffff; stroke-width: 1.5"/>
     <use xlink:href="#ma9825fe628" x="67.564862" y="39.484631" style="fill: #dc2626; stroke: #ffffff; stroke-width: 1.5"/>
    </g>
   </g>
   <g id="text_11">
    <!-- 3000.0 -->
    <g style="fill: #1a56db" transform="translate(101.08149 200.925369) scale(0.08 -0.08)">
     <defs>
      <path id="NotoSansSC-Thin-33" d="M 1619 -83 
Q 1261 -83 998 13 
Q 736 109 544 256 
Q 352 403 211 550 
L 358 717 
Q 563 499 857 313 
Q 1152 128 1632 128 
Q 1952 128 2198 262 
Q 2445 397 2585 640 
Q 2726 883 2726 1210 
Q 2726 1542 2560 1795 
Q 2394 2048 2038 2189 
Q 1683 2330 1114 2330 
L 1114 2554 
Q 1651 2554 1964 2698 
Q 2278 2842 2416 3088 
Q 2554 3334 2554 3629 
Q 2554 4026 2298 4272 
Q 2042 4518 1606 4518 
Q 1293 4518 1017 4374 
Q 742 4230 557 4026 
L 410 4192 
Q 634 4410 925 4570 
Q 1216 4730 1606 4730 
Q 1939 4730 2211 4598 
Q 2483 4467 2643 4224 
Q 2803 3981 2803 3642 
Q 2803 3168 2550 2877 
Q 2298 2586 1926 2464 
L 1926 2438 
Q 2208 2381 2445 2221 
Q 2682 2061 2826 1808 
Q 2970 1555 2970 1222 
Q 2970 826 2790 531 
Q 2611 237 2307 77 
Q 2003 -83 1619 -83 
z
" transform="scale(0.015625)"/>
      <path id="NotoSansSC-Thin-2e" d="M 736 -83 
Q 640 -83 560 -9 
Q 480 64 480 192 
Q 480 333 560 406 
Q 640 480 736 480 
Q 838 480 918 406 
Q 998 333 998 192 
Q 998 64 918 -9 
Q 838 -83 736 -83 
z
" transform="scale(0.015625)"/>
     </defs>
     <use xlink:href="#NotoSansSC-Thin-33"/>
     <use xlink:href="#NotoSansSC-Thin-30" transform="translate(52.099991 0)"/>
     <use xlink:href="#NotoSansSC-Thin-30" transform="translate(104.199982 0)"/>
     <use xlink:href="#NotoSansSC-Thin-30" transform="translate(156.299973 0)"/>
     <use xlink:href="#NotoSansSC-Thin-2e" transform="translate(208.399963 0)"/>
     <use xlink:href="#NotoSansSC-Thin-30" transform="translate(231.499954 0)"/>
    </g>
   </g>
   <g id="text_12">
    <!-- 3400.0 -->
    <g style="fill: #dc2626" transform="translate(135.295029 200.925369) scale(0.08 -0.08)">
     <use xlink:href="#NotoSansSC-Thin-33"/>
     <use xlink:href="#NotoSansSC-Thin-34" transform="translate(52.099991 0)"/>
     <use xlink:href="#NotoSansSC-Thin-30" transform="translate(104.199982 0)"/>
     <use xlink:href="#NotoSansSC-Thin-30" transform="translate(156.299973 0)"/>
     <use xlink:href="#NotoSansSC-Thin-2e" transform="translate(208.399963 0)"/>
     <use xlink:href="#NotoSansSC-Thin-30" transform="translate(231.499954 0)"/>
    </g>
   </g>
   <g id="text_13">
    <!-- +13% -->
    <g style="fill: #64748b" transform="translate(120.980916 200.649822) scale(0.07 -0.07)">
     <defs>
      <path id="NotoSansSC-Thin-2b" d="M 1549 787 
L 1549 2221 
L 237 2221 
L 237 2426 
L 1549 2426 
L 1549 3866 
L 1786 3866 
L 1786 2426 
L 3098 2426 
L 3098 2221 
L 1786 2221 
L 1786 787 
L 1549 787 
z
" transform="scale(0.015625)"/>
      <path id="NotoSansSC-Thin-25" d="M 1267 1818 
Q 966 1818 745 1987 
Q 525 2157 409 2483 
Q 294 2810 294 3283 
Q 294 3750 409 4070 
Q 525 4390 745 4560 
Q 966 4730 1267 4730 
Q 1574 4730 1795 4560 
Q 2016 4390 2131 4070 
Q 2246 3750 2246 3283 
Q 2246 2810 2131 2483 
Q 2016 2157 1795 1987 
Q 1574 1818 1267 1818 
z
M 1267 2003 
Q 1619 2003 1820 2342 
Q 2022 2682 2022 3283 
Q 2022 3885 1820 4214 
Q 1619 4544 1267 4544 
Q 922 4544 717 4214 
Q 512 3885 512 3283 
Q 512 2682 717 2342 
Q 922 2003 1267 2003 
z
M 1382 -83 
L 3987 4730 
L 4218 4730 
L 1619 -83 
L 1382 -83 
z
M 4365 -83 
Q 4058 -83 3840 86 
Q 3622 256 3504 582 
Q 3386 909 3386 1382 
Q 3386 1850 3504 2170 
Q 3622 2490 3840 2659 
Q 4058 2829 4365 2829 
Q 4666 2829 4883 2659 
Q 5101 2490 5219 2170 
Q 5338 1850 5338 1382 
Q 5338 909 5219 582 
Q 5101 256 4883 86 
Q 4666 -83 4365 -83 
z
M 4365 102 
Q 4704 102 4912 441 
Q 5120 781 5120 1382 
Q 5120 1984 4912 2313 
Q 4704 2643 4365 2643 
Q 4013 2643 3808 2313 
Q 3603 1984 3603 1382 
Q 3603 781 3808 441 
Q 4013 102 4365 102 
z
" transform="scale(0.015625)"/>
     </defs>
     <use xlink:href="#NotoSansSC-Thin-2b"/>
     <use xlink:href="#NotoSansSC-Thin-31" transform="translate(52.099991 0)"/>
     <use xlink:href="#NotoSansSC-Thin-33" transform="translate(104.199982 0)"/>
     <use xlink:href="#NotoSansSC-Thin-25" transform="translate(156.299973 0)"/>
    </g>
   </g>
   <g id="text_14">
    <!-- 9800.0 -->
    <g style="fill: #1a56db" transform="translate(297.066655 147.846581) scale(0.08 -0.08)">
     <defs>
      <path id="NotoSansSC-Thin-39" d="M 1370 -83 
Q 1050 -83 819 32 
Q 589 147 410 339 
L 557 506 
Q 723 314 934 221 
Q 1146 128 1389 128 
Q 1651 128 1891 256 
Q 2131 384 2316 675 
Q 2502 966 2611 1443 
Q 2720 1920 2720 2618 
Q 2720 3168 2592 3600 
Q 2464 4032 2195 4278 
Q 1926 4525 1498 4525 
Q 1229 4525 1014 4355 
Q 800 4186 675 3901 
Q 550 3616 550 3264 
Q 550 2912 652 2627 
Q 755 2342 979 2172 
Q 1203 2003 1555 2003 
Q 1830 2003 2137 2182 
Q 2445 2362 2739 2765 
L 2746 2470 
Q 2586 2278 2397 2128 
Q 2208 1978 1993 1891 
Q 1779 1805 1536 1805 
Q 1152 1805 877 1974 
Q 602 2144 454 2470 
Q 307 2797 307 3264 
Q 307 3686 473 4019 
Q 640 4352 912 4541 
Q 1184 4730 1510 4730 
Q 1850 4730 2118 4589 
Q 2387 4448 2572 4176 
Q 2758 3904 2857 3513 
Q 2957 3123 2957 2618 
Q 2957 1862 2825 1344 
Q 2694 826 2470 512 
Q 2246 198 1961 57 
Q 1677 -83 1370 -83 
z
" transform="scale(0.015625)"/>
     </defs>
     <use xlink:href="#NotoSansSC-Thin-39"/>
     <use xlink:href="#NotoSansSC-Thin-38" transform="translate(52.099991 0)"/>
     <use xlink:href="#NotoSansSC-Thin-30" transform="translate(104.199982 0)"/>
     <use xlink:href="#NotoSansSC-Thin-30" transform="translate(156.299973 0)"/>
     <use xlink:href="#NotoSansSC-Thin-2e" transform="translate(208.399963 0)"/>
     <use xlink:href="#NotoSansSC-Thin-30" transform="translate(231.499954 0)"/>
    </g>
   </g>
   <g id="text_15">
    <!-- 11000.0 -->
    <g style="fill: #dc2626" transform="translate(354.337273 147.846581) scale(0.08 -0.08)">
     <use xlink:href="#NotoSansSC-Thin-31"/>
     <use xlink:href="#NotoSansSC-Thin-31" transform="translate(52.099991 0)"/>
     <use xlink:href="#NotoSansSC-Thin-30" transform="translate(104.199982 0)"/>
     <use xlink:href="#NotoSansSC-Thin-30" transform="translate(156.299973 0)"/>
     <use xlink:href="#NotoSansSC-Thin-30" transform="translate(208.399963 0)"/>
     <use xlink:href="#NotoSansSC-Thin-2e" transform="translate(260.499954 0)"/>
     <use xlink:href="#NotoSansSC-Thin-30" transform="translate(283.599945 0)"/>
    </g>
   </g>
   <g id="text_16">
    <!-- +12% -->
    <g style="fill: #64748b" transform="translate(328.49462 147.571035) scale(0.07 -0.07)">
     <use xlink:href="#NotoSansSC-Thin-2b"/>
     <use xlink:href="#NotoSansSC-Thin-31" transform="translate(52.099991 0)"/>
     <use xlink:href="#NotoSansSC-Thin-32" transform="translate(104.199982 0)"/>
     <use xlink:href="#NotoSansSC-Thin-25" transform="translate(156.299973 0)"/>
    </g>
   </g>
   <g id="text_17">
    <!-- 1800.0 -->
    <g style="fill: #1a56db" transform="translate(66.495873 94.767794) scale(0.08 -0.08)">
     <use xlink:href="#NotoSansSC-Thin-31"/>
     <use xlink:href="#NotoSansSC-Thin-38" transform="translate(52.099991 0)"/>
     <use xlink:href="#NotoSansSC-Thin-30" transform="translate(104.199982 0)"/>
     <use xlink:href="#NotoSansSC-Thin-30" transform="translate(156.299973 0)"/>
     <use xlink:href="#NotoSansSC-Thin-2e" transform="translate(208.399963 0)"/>
     <use xlink:href="#NotoSansSC-Thin-30" transform="translate(231.499954 0)"/>
    </g>
   </g>
   <g id="text_18">
    <!-- 2200.0 -->
    <g style="fill: #dc2626" transform="translate(100.709412 94.767794) scale(0.08 -0.08)">
     <use xlink:href="#NotoSansSC-Thin-32"/>
     <use xlink:href="#NotoSansSC-Thin-32" transform="translate(52.099991 0)"/>
     <use xlink:href="#NotoSansSC-Thin-30" transform="translate(104.199982 0)"/>
     <use xlink:href="#NotoSansSC-Thin-30" transform="translate(156.299973 0)"/>
     <use xlink:href="#NotoSansSC-Thin-2e" transform="translate(208.399963 0)"/>
     <use xlink:href="#NotoSansSC-Thin-30" transform="translate(231.499954 0)"/>
    </g>
   </g>
   <g id="text_19">
    <!-- +22% -->
    <g style="fill: #64748b" transform="translate(86.395299 94.492247) scale(0.07 -0.07)">
     <use xlink:href="#NotoSansSC-Thin-2b"/>
     <use xlink:href="#NotoSansSC-Thin-32" transform="translate(52.099991 0)"/>
     <use xlink:href="#NotoSansSC-Thin-32" transform="translate(104.199982 0)"/>
     <use xlink:href="#NotoSansSC-Thin-25" transform="translate(156.299973 0)"/>
    </g>
   </g>
   <g id="text_20">
    <!-- 950.0 -->
    <g style="fill: #1a56db" transform="translate(46.165227 41.689006) scale(0.08 -0.08)">
     <use xlink:href="#NotoSansSC-Thin-39"/>
     <use xlink:href="#NotoSansSC-Thin-35" transform="translate(52.099991 0)"/>
     <use xlink:href="#NotoSansSC-Thin-30" transform="translate(104.199982 0)"/>
     <use xlink:href="#NotoSansSC-Thin-2e" transform="translate(156.299973 0)"/>
     <use xlink:href="#NotoSansSC-Thin-30" transform="translate(179.399963 0)"/>
    </g>
   </g>
   <g id="text_21">
    <!-- 1050.0 -->
    <g style="fill: #dc2626" transform="translate(67.564862 41.689006) scale(0.08 -0.08)">
     <use xlink:href="#NotoSansSC-Thin-31"/>
     <use xlink:href="#NotoSansSC-Thin-30" transform="translate(52.099991 0)"/>
     <use xlink:href="#NotoSansSC-Thin-35" transform="translate(104.199982 0)"/>
     <use xlink:href="#NotoSansSC-Thin-30" transform="translate(156.299973 0)"/>
     <use xlink:href="#NotoSansSC-Thin-2e" transform="translate(208.399963 0)"/>
     <use xlink:href="#NotoSansSC-Thin-30" transform="translate(231.499954 0)"/>
    </g>
   </g>
   <g id="text_22">
    <!-- +11% -->
    <g style="fill: #64748b" transform="translate(57.573951 41.413459) scale(0.07 -0.07)">
     <use xlink:href="#NotoSansSC-Thin-2b"/>
     <use xlink:href="#NotoSansSC-Thin-31" transform="translate(52.099991 0)"/>
     <use xlink:href="#NotoSansSC-Thin-31" transform="translate(104.199982 0)"/>
     <use xlink:href="#NotoSansSC-Thin-25" transform="translate(156.299973 0)"/>
    </g>
   </g>
   <g id="text_23">
    <!-- 主要指数年内区间 — 哑铃图 -->
    <g style="fill: #1e293b" transform="translate(129.423906 17.522812) scale(0.13 -0.13)">
     <defs>
      <path id="NotoSansSC-Thin-4e3b" d="M 710 3968 
L 5709 3968 
L 5709 3776 
L 710 3776 
L 710 3968 
z
M 960 2074 
L 5485 2074 
L 5485 1882 
L 960 1882 
L 960 2074 
z
M 390 -32 
L 6042 -32 
L 6042 -218 
L 390 -218 
L 390 -32 
z
M 3098 3866 
L 3290 3866 
L 3290 -115 
L 3098 -115 
L 3098 3866 
z
M 2573 5165 
L 2720 5254 
Q 2931 5094 3148 4899 
Q 3366 4704 3552 4512 
Q 3738 4320 3853 4166 
L 3699 4058 
Q 3590 4211 3404 4406 
Q 3219 4602 3001 4803 
Q 2784 5005 2573 5165 
z
" transform="scale(0.015625)"/>
      <path id="NotoSansSC-Thin-8981" d="M 403 1792 
L 5997 1792 
L 5997 1606 
L 403 1606 
L 403 1792 
z
M 499 4986 
L 5920 4986 
L 5920 4800 
L 499 4800 
L 499 4986 
z
M 4608 1734 
L 4774 1658 
Q 4576 1184 4211 825 
Q 3846 467 3308 214 
Q 2771 -38 2060 -195 
Q 1350 -352 474 -422 
Q 461 -384 435 -333 
Q 410 -282 378 -243 
Q 1549 -160 2393 73 
Q 3238 307 3785 716 
Q 4333 1126 4608 1734 
z
M 1280 640 
L 1446 787 
Q 2080 685 2701 560 
Q 3322 435 3898 291 
Q 4474 147 4973 -9 
Q 5472 -166 5862 -320 
L 5664 -467 
Q 5171 -262 4483 -64 
Q 3795 134 2979 313 
Q 2163 493 1280 640 
z
M 2310 4928 
L 2496 4928 
L 2496 2643 
L 2310 2643 
L 2310 4928 
z
M 3846 4928 
L 4032 4928 
L 4032 2643 
L 3846 2643 
L 3846 4928 
z
M 1030 3885 
L 1030 2746 
L 5402 2746 
L 5402 3885 
L 1030 3885 
z
M 845 4070 
L 5587 4070 
L 5587 2560 
L 845 2560 
L 845 4070 
z
M 1280 640 
Q 1504 890 1757 1216 
Q 2010 1542 2240 1891 
Q 2470 2240 2630 2547 
L 2810 2496 
Q 2650 2182 2419 1836 
Q 2189 1491 1945 1177 
Q 1702 864 1504 640 
L 1280 640 
z
" transform="scale(0.015625)"/>
      <path id="NotoSansSC-Thin-5e74" d="M 1958 5338 
L 2144 5286 
Q 1958 4819 1712 4384 
Q 1466 3949 1178 3577 
Q 890 3206 576 2918 
Q 557 2931 528 2953 
Q 499 2976 467 2998 
Q 435 3021 403 3034 
Q 730 3315 1018 3676 
Q 1306 4038 1546 4464 
Q 1786 4890 1958 5338 
z
M 1626 4474 
L 5811 4474 
L 5811 4288 
L 1530 4288 
L 1626 4474 
z
M 1453 3085 
L 5670 3085 
L 5670 2899 
L 1638 2899 
L 1638 1216 
L 1453 1216 
L 1453 3085 
z
M 352 1318 
L 6061 1318 
L 6061 1133 
L 352 1133 
L 352 1318 
z
M 3405 4371 
L 3597 4371 
L 3597 -454 
L 3405 -454 
L 3405 4371 
z
" transform="scale(0.015625)"/>
      <path id="NotoSansSC-Thin-5185" d="M 2989 2970 
L 3123 3066 
Q 3398 2835 3692 2566 
Q 3987 2298 4265 2026 
Q 4544 1754 4784 1504 
Q 5024 1254 5190 1062 
L 5037 934 
Q 4877 1133 4640 1385 
Q 4403 1638 4124 1916 
Q 3846 2195 3555 2464 
Q 3264 2733 2989 2970 
z
M 3110 5318 
L 3302 5318 
L 3302 4346 
Q 3302 4051 3273 3712 
Q 3245 3373 3149 3014 
Q 3053 2656 2845 2291 
Q 2637 1926 2275 1577 
Q 1914 1229 1363 909 
Q 1350 928 1328 953 
Q 1306 979 1280 1008 
Q 1254 1037 1229 1050 
Q 1773 1357 2125 1693 
Q 2477 2029 2678 2381 
Q 2880 2733 2973 3075 
Q 3066 3418 3088 3741 
Q 3110 4064 3110 4346 
L 3110 5318 
z
M 698 4192 
L 5619 4192 
L 5619 4000 
L 883 4000 
L 883 -461 
L 698 -461 
L 698 4192 
z
M 5523 4192 
L 5709 4192 
L 5709 -58 
Q 5709 -218 5657 -294 
Q 5606 -371 5478 -403 
Q 5344 -429 5056 -432 
Q 4768 -435 4333 -435 
Q 4326 -403 4313 -368 
Q 4301 -333 4288 -291 
Q 4275 -250 4256 -218 
Q 4525 -224 4749 -227 
Q 4973 -230 5136 -227 
Q 5299 -224 5363 -224 
Q 5459 -218 5491 -182 
Q 5523 -147 5523 -64 
L 5523 4192 
z
" transform="scale(0.015625)"/>
      <path id="NotoSansSC-Thin-533a" d="M 4762 4294 
L 4941 4230 
Q 4525 3488 4000 2816 
Q 3475 2144 2880 1571 
Q 2285 998 1651 550 
Q 1632 570 1603 595 
Q 1574 621 1542 649 
Q 1510 678 1478 691 
Q 2125 1120 2726 1686 
Q 3328 2253 3849 2918 
Q 4371 3584 4762 4294 
z
M 1632 3930 
L 1786 4032 
Q 2246 3648 2723 3203 
Q 3200 2758 3651 2304 
Q 4102 1850 4483 1430 
Q 4864 1011 5126 672 
L 4954 544 
Q 4704 883 4326 1305 
Q 3949 1728 3497 2189 
Q 3046 2650 2569 3098 
Q 2093 3546 1632 3930 
z
M 5901 4902 
L 5901 4710 
L 909 4710 
L 909 -64 
L 6054 -64 
L 6054 -250 
L 717 -250 
L 717 4902 
L 5901 4902 
z
" transform="scale(0.015625)"/>
      <path id="NotoSansSC-Thin-95f4" d="M 710 3974 
L 896 3974 
L 896 -461 
L 710 -461 
L 710 3974 
z
M 806 5101 
L 947 5190 
Q 1101 5062 1254 4908 
Q 1408 4755 1542 4604 
Q 1677 4454 1754 4333 
L 1600 4224 
Q 1523 4346 1395 4499 
Q 1267 4653 1113 4813 
Q 960 4973 806 5101 
z
M 2330 4915 
L 5606 4915 
L 5606 4723 
L 2330 4723 
L 2330 4915 
z
M 5491 4915 
L 5677 4915 
L 5677 -109 
Q 5677 -243 5638 -307 
Q 5600 -371 5510 -403 
Q 5414 -429 5228 -432 
Q 5043 -435 4755 -435 
Q 4742 -403 4720 -339 
Q 4698 -275 4672 -230 
Q 4922 -237 5117 -237 
Q 5312 -237 5376 -237 
Q 5446 -230 5468 -204 
Q 5491 -179 5491 -115 
L 5491 4915 
z
M 2266 1978 
L 2266 864 
L 4102 864 
L 4102 1978 
L 2266 1978 
z
M 2266 3264 
L 2266 2163 
L 4102 2163 
L 4102 3264 
L 2266 3264 
z
M 2080 3450 
L 4294 3450 
L 4294 678 
L 2080 678 
L 2080 3450 
z
" transform="scale(0.015625)"/>
      <path id="NotoSansSC-Thin-20" transform="scale(0.015625)"/>
      <path id="NotoSansSC-Thin-2014" d="M 282 1664 
L 282 1862 
L 5350 1862 
L 5350 1664 
L 282 1664 
z
" transform="scale(0.015625)"/>
      <path id="NotoSansSC-Thin-54d1" d="M 608 4653 
L 1894 4653 
L 1894 1274 
L 608 1274 
L 608 1466 
L 1709 1466 
L 1709 4467 
L 608 4467 
L 608 4653 
z
M 538 4653 
L 730 4653 
L 730 614 
L 538 614 
L 538 4653 
z
M 2304 4858 
L 5920 4858 
L 5920 4666 
L 2304 4666 
L 2304 4858 
z
M 1997 77 
L 6093 77 
L 6093 -109 
L 1997 -109 
L 1997 77 
z
M 3520 4762 
L 3706 4762 
L 3706 -38 
L 3520 -38 
L 3520 4762 
z
M 4570 4762 
L 4755 4762 
L 4755 -38 
L 4570 -38 
L 4570 4762 
z
M 2278 3437 
L 2458 3475 
Q 2592 3142 2713 2761 
Q 2835 2381 2931 2032 
Q 3027 1683 3072 1440 
L 2880 1376 
Q 2835 1626 2739 1981 
Q 2643 2336 2524 2720 
Q 2406 3104 2278 3437 
z
M 5760 3475 
L 5965 3398 
Q 5875 3072 5763 2688 
Q 5651 2304 5529 1942 
Q 5408 1581 5293 1312 
L 5133 1382 
Q 5242 1651 5360 2022 
Q 5478 2394 5584 2778 
Q 5690 3162 5760 3475 
z
" transform="scale(0.015625)"/>
      <path id="NotoSansSC-Thin-94c3" d="M 1280 5299 
L 1466 5254 
Q 1350 4928 1190 4614 
Q 1030 4301 841 4022 
Q 653 3744 454 3520 
Q 442 3539 416 3568 
Q 390 3597 364 3625 
Q 339 3654 320 3667 
Q 621 3968 873 4400 
Q 1126 4832 1280 5299 
z
M 979 4474 
L 2592 4474 
L 2592 4288 
L 941 4288 
L 979 4474 
z
M 1299 -371 
L 1299 -173 
L 1414 -38 
L 2618 589 
Q 2630 550 2646 508 
Q 2662 467 2675 435 
Q 2240 198 1981 54 
Q 1722 -90 1584 -170 
Q 1446 -250 1388 -294 
Q 1331 -339 1299 -371 
z
M 698 3386 
L 2400 3386 
L 2400 3200 
L 698 3200 
L 698 3386 
z
M 422 2093 
L 2656 2093 
L 2656 1901 
L 422 1901 
L 422 2093 
z
M 1299 -371 
Q 1286 -346 1260 -317 
Q 1235 -288 1209 -256 
Q 1184 -224 1165 -205 
Q 1210 -173 1283 -102 
Q 1357 -32 1414 77 
Q 1472 186 1472 326 
L 1472 3258 
L 1658 3258 
L 1658 32 
Q 1658 32 1622 0 
Q 1587 -32 1532 -80 
Q 1478 -128 1424 -185 
Q 1370 -243 1334 -291 
Q 1299 -339 1299 -371 
z
M 4390 5082 
Q 4582 4685 4864 4278 
Q 5146 3872 5469 3536 
Q 5792 3200 6093 3002 
Q 6061 2976 6019 2931 
Q 5978 2886 5946 2848 
Q 5651 3072 5328 3424 
Q 5005 3776 4717 4192 
Q 4429 4608 4237 5011 
L 4390 5082 
z
M 4333 5312 
L 4525 5267 
Q 4243 4621 3782 3974 
Q 3322 3328 2733 2835 
Q 2714 2848 2685 2867 
Q 2656 2886 2630 2902 
Q 2605 2918 2579 2931 
Q 2970 3251 3309 3648 
Q 3648 4045 3910 4473 
Q 4173 4902 4333 5312 
z
M 3488 870 
L 3622 973 
Q 3827 832 4038 662 
Q 4250 493 4454 317 
Q 4659 141 4832 -22 
Q 5005 -186 5120 -320 
L 4986 -435 
Q 4832 -256 4582 -25 
Q 4333 205 4048 441 
Q 3763 678 3488 870 
z
M 3091 2330 
L 5440 2330 
L 5440 2138 
L 3091 2138 
L 3091 2330 
z
M 3904 3469 
L 4051 3546 
Q 4243 3366 4444 3155 
Q 4646 2944 4755 2797 
L 4595 2701 
Q 4480 2848 4285 3069 
Q 4090 3290 3904 3469 
z
M 5395 2330 
L 5434 2330 
L 5472 2342 
L 5594 2272 
Q 5485 2016 5334 1731 
Q 5184 1446 5017 1164 
Q 4851 883 4688 643 
Q 4525 403 4397 237 
Q 4378 256 4352 278 
Q 4326 301 4304 326 
Q 4282 352 4256 365 
Q 4384 518 4544 752 
Q 4704 986 4864 1258 
Q 5024 1530 5165 1795 
Q 5306 2061 5395 2272 
L 5395 2330 
z
" transform="scale(0.015625)"/>
      <path id="NotoSansSC-Thin-56fe" d="M 614 4998 
L 5786 4998 
L 5786 -448 
L 5594 -448 
L 5594 4813 
L 806 4813 
L 806 -448 
L 614 -448 
L 614 4998 
z
M 704 45 
L 5734 45 
L 5734 -141 
L 704 -141 
L 704 45 
z
M 2509 1856 
L 2605 2010 
Q 2848 1958 3120 1878 
Q 3392 1798 3638 1705 
Q 3885 1613 4045 1530 
L 3955 1363 
Q 3789 1446 3542 1542 
Q 3296 1638 3027 1721 
Q 2758 1805 2509 1856 
z
M 2701 4531 
L 2880 4474 
Q 2701 4173 2461 3894 
Q 2221 3616 1952 3379 
Q 1683 3142 1408 2957 
Q 1395 2976 1363 2998 
Q 1331 3021 1299 3043 
Q 1267 3066 1242 3078 
Q 1664 3341 2057 3721 
Q 2451 4102 2701 4531 
z
M 4429 4026 
L 4474 4026 
L 4512 4038 
L 4627 3962 
Q 4390 3558 4003 3232 
Q 3616 2906 3145 2653 
Q 2675 2400 2179 2221 
Q 1683 2042 1216 1933 
Q 1203 1958 1187 1990 
Q 1171 2022 1152 2051 
Q 1133 2080 1114 2093 
Q 1574 2189 2060 2358 
Q 2547 2528 3004 2768 
Q 3462 3008 3833 3312 
Q 4205 3616 4429 3981 
L 4429 4026 
z
M 2259 3770 
Q 2547 3379 3024 3056 
Q 3501 2733 4083 2502 
Q 4666 2272 5274 2157 
Q 5248 2131 5213 2086 
Q 5178 2042 5158 1997 
Q 4557 2125 3968 2368 
Q 3379 2611 2892 2947 
Q 2406 3283 2106 3693 
L 2259 3770 
z
M 2381 4026 
L 4499 4026 
L 4499 3840 
L 2266 3840 
L 2381 4026 
z
M 1818 1050 
L 1920 1210 
Q 2240 1171 2598 1107 
Q 2957 1043 3309 966 
Q 3661 890 3968 810 
Q 4275 730 4493 653 
L 4397 480 
Q 4102 582 3667 691 
Q 3232 800 2745 899 
Q 2259 998 1818 1050 
z
" transform="scale(0.015625)"/>
     </defs>
     <use xlink:href="#NotoSansSC-Thin-4e3b"/>
     <use xlink:href="#NotoSansSC-Thin-8981" transform="translate(99.999985 0)"/>
     <use xlink:href="#NotoSansSC-Thin-6307" transform="translate(199.999969 0)"/>
     <use xlink:href="#NotoSansSC-Thin-6570" transform="translate(299.999954 0)"/>
     <use xlink:href="#NotoSansSC-Thin-5e74" transform="translate(399.999939 0)"/>
     <use xlink:href="#NotoSansSC-Thin-5185" transform="translate(499.999924 0)"/>
     <use xlink:href="#NotoSansSC-Thin-533a" transform="translate(599.999908 0)"/>
     <use xlink:href="#NotoSansSC-Thin-95f4" transform="translate(699.999893 0)"/>
     <use xlink:href="#NotoSansSC-Thin-20" transform="translate(799.999878 0)"/>
     <use xlink:href="#NotoSansSC-Thin-2014" transform="translate(821.999863 0)"/>
     <use xlink:href="#NotoSansSC-Thin-20" transform="translate(910.099854 0)"/>
     <use xlink:href="#NotoSansSC-Thin-54d1" transform="translate(932.099838 0)"/>
     <use xlink:href="#NotoSansSC-Thin-94c3" transform="translate(1032.099823 0)"/>
     <use xlink:href="#NotoSansSC-Thin-56fe" transform="translate(1132.099808 0)"/>
    </g>
   </g>
   <g id="legend_1">
    <g id="patch_5">
     <path d="M 324.72 202.182813 
L 362.52 202.182813 
Q 364.32 202.182813 364.32 200.382812 
L 364.32 173.61625 
Q 364.32 171.81625 362.52 171.81625 
L 324.72 171.81625 
Q 322.92 171.81625 322.92 173.61625 
L 322.92 200.382812 
Q 322.92 202.182813 324.72 202.182813 
z
" style="fill: #ffffff; opacity: 0.8; stroke: #cccccc; stroke-linejoin: miter"/>
    </g>
    <g id="PathCollection_3">
     <g>
      <use xlink:href="#m3623d5828d" x="335.52" y="180.200312" style="fill: #1a56db; stroke: #ffffff; stroke-width: 1.5"/>
     </g>
    </g>
    <g id="text_24">
     <!-- 低 -->
     <g transform="translate(351.72 182.562813) scale(0.09 -0.09)">
      <defs>
       <path id="NotoSansSC-Thin-4f4e" d="M 1862 5293 
L 2048 5242 
Q 1837 4704 1555 4192 
Q 1274 3680 950 3235 
Q 627 2790 282 2438 
Q 269 2458 246 2486 
Q 224 2515 198 2547 
Q 173 2579 147 2592 
Q 493 2925 809 3357 
Q 1126 3789 1398 4285 
Q 1670 4781 1862 5293 
z
M 1152 3763 
L 1325 3942 
L 1338 3936 
L 1338 -435 
L 1152 -435 
L 1152 3763 
z
M 2547 2771 
L 6054 2771 
L 6054 2586 
L 2547 2586 
L 2547 2771 
z
M 5421 5274 
L 5619 5133 
Q 5235 4998 4720 4873 
Q 4205 4749 3638 4643 
Q 3072 4538 2528 4454 
Q 2522 4486 2499 4534 
Q 2477 4582 2458 4608 
Q 2989 4691 3552 4800 
Q 4115 4909 4608 5030 
Q 5101 5152 5421 5274 
z
M 4186 4883 
L 4371 4883 
Q 4403 3846 4499 2934 
Q 4595 2022 4748 1331 
Q 4902 640 5120 240 
Q 5338 -160 5619 -173 
Q 5734 -179 5814 102 
Q 5894 384 5939 890 
Q 5965 877 5993 861 
Q 6022 845 6051 835 
Q 6080 826 6106 819 
Q 6061 365 5993 99 
Q 5926 -166 5836 -278 
Q 5747 -390 5626 -390 
Q 5331 -384 5107 -102 
Q 4883 179 4723 672 
Q 4563 1165 4457 1827 
Q 4352 2490 4285 3267 
Q 4218 4045 4186 4883 
z
M 2298 -467 
L 2298 -301 
L 2426 -192 
L 3789 186 
Q 3789 154 3792 106 
Q 3795 58 3802 26 
Q 3322 -115 3037 -204 
Q 2752 -294 2605 -342 
Q 2458 -390 2394 -419 
Q 2330 -448 2298 -467 
z
M 2298 -467 
Q 2291 -442 2272 -406 
Q 2253 -371 2230 -336 
Q 2208 -301 2189 -275 
Q 2259 -250 2358 -173 
Q 2458 -96 2458 83 
L 2458 4608 
L 2650 4557 
L 2650 -211 
Q 2650 -211 2595 -240 
Q 2541 -269 2473 -310 
Q 2406 -352 2352 -393 
Q 2298 -435 2298 -467 
z
M 3770 787 
L 3936 838 
Q 4058 666 4173 464 
Q 4288 262 4387 73 
Q 4486 -115 4538 -262 
L 4365 -333 
Q 4320 -186 4224 9 
Q 4128 205 4009 409 
Q 3891 614 3770 787 
z
" transform="scale(0.015625)"/>
      </defs>
      <use xlink:href="#NotoSansSC-Thin-4f4e"/>
     </g>
    </g>
    <g id="PathCollection_4">
     <g>
      <use xlink:href="#ma9825fe628" x="335.52" y="194.033594" style="fill: #dc2626; stroke: #ffffff; stroke-width: 1.5"/>
     </g>
    </g>
    <g id="text_25">
     <!-- 高 -->
     <g transform="translate(351.72 196.396094) scale(0.09 -0.09)">
      <defs>
       <path id="NotoSansSC-Thin-9ad8" d="M 410 4576 
L 5971 4576 
L 5971 4384 
L 410 4384 
L 410 4576 
z
M 1690 3718 
L 1690 2906 
L 4742 2906 
L 4742 3718 
L 1690 3718 
z
M 1498 3910 
L 4928 3910 
L 4928 2720 
L 1498 2720 
L 1498 3910 
z
M 698 2259 
L 5619 2259 
L 5619 2074 
L 883 2074 
L 883 -442 
L 698 -442 
L 698 2259 
z
M 5517 2259 
L 5702 2259 
L 5702 -134 
Q 5702 -237 5673 -285 
Q 5645 -333 5562 -365 
Q 5485 -390 5321 -393 
Q 5158 -397 4877 -397 
Q 4870 -358 4848 -310 
Q 4826 -262 4800 -230 
Q 4954 -230 5082 -230 
Q 5210 -230 5299 -230 
Q 5389 -230 5421 -230 
Q 5517 -224 5517 -141 
L 5517 2259 
z
M 2970 5286 
L 3110 5312 
Q 3194 5107 3270 4870 
Q 3347 4634 3379 4486 
L 3232 4429 
Q 3194 4595 3117 4838 
Q 3040 5082 2970 5286 
z
M 1926 1549 
L 4474 1549 
L 4474 346 
L 1926 346 
L 1926 531 
L 4288 531 
L 4288 1363 
L 1926 1363 
L 1926 1549 
z
M 1843 1549 
L 2035 1549 
L 2035 -32 
L 1843 -32 
L 1843 1549 
z
" transform="scale(0.015625)"/>
      </defs>
      <use xlink:href="#NotoSansSC-Thin-9ad8"/>
     </g>
    </g>
   </g>
  </g>
 </g>
 <defs>
  <clipPath id="p91158fe327">
   <rect x="50.2" y="31.522812" width="318.62" height="175.16"/>
  </clipPath>
 </defs>
</svg>
