<?xml version="1.0" encoding="utf-8" standalone="no"?>
<!DOCTYPE svg PUBLIC "-//W3C//DTD SVG 1.1//EN"
  "http://www.w3.org/Graphics/SVG/1.1/DTD/svg11.dtd">
<svg xmlns:xlink="http://www.w3.org/1999/xlink" width="388.660022pt" height="243.549375pt" viewBox="0 0 388.660022 243.549375" xmlns="http://www.w3.org/2000/svg" version="1.1">
 <metadata>
  <rdf:RDF xmlns:dc="http://purl.org/dc/elements/1.1/" xmlns:cc="http://creativecommons.org/ns#" xmlns:rdf="http://www.w3.org/1999/02/22-rdf-syntax-ns#">
   <cc:Work>
    <dc:type rdf:resource="http://purl.org/dc/dcmitype/StillImage"/>
    <dc:date>2026-05-27T13:25:49.967532</dc:date>
    <dc:format>image/svg+xml</dc:format>
    <dc:creator>
     <cc:Agent>
      <dc:title>Matplotlib v3.10.9, https://matplotlib.org/</dc:title>
     </cc:Agent>
    </dc:creator>
   </cc:Work>
  </rdf:RDF>
 </metadata>
 <defs>
  <style type="text/css">*{stroke-linejoin: round; stroke-linecap: butt}</style>
 </defs>
 <g id="figure_1">
  <g id="patch_1">
   <path d="M -0 243.549375 
L 388.660022 243.549375 
L 388.660022 0 
L -0 0 
z
" style="fill: #f8fafc"/>
  </g>
  <g id="axes_1">
   <g id="patch_2">
    <path d="M 56.906406 206.682813 
L 381.010995 206.682813 
L 381.010995 31.522812 
L 56.906406 31.522812 
z
" style="fill: #f8fafc"/>
   </g>
   <g id="matplotlib.axis_1">
    <g id="xtick_1">
     <g id="line2d_1">
      <path d="M 58.801599 206.682813 
L 58.801599 31.522812 
" clip-path="url(#p1a099b818c)" style="fill: none; stroke: #64748b; stroke-opacity: 0.15; stroke-width: 0.5; stroke-linecap: square"/>
     </g>
     <g id="line2d_2">
      <defs>
       <path id="m9eecf5cdc2" d="M 0 0 
L 0 3.5 
" style="stroke: #64748b; stroke-width: 0.8"/>
      </defs>
      <g>
       <use xlink:href="#m9eecf5cdc2" x="58.801599" y="206.682813" style="fill: #64748b; stroke: #64748b; stroke-width: 0.8"/>
      </g>
     </g>
     <g id="text_1">
      <!-- -6 -->
      <g style="fill: #64748b" transform="translate(54.999099 220.829375) scale(0.09 -0.09)">
       <defs>
        <path id="NotoSansSC-Thin-2d" d="M 282 1638 
L 282 1862 
L 1811 1862 
L 1811 1638 
L 282 1638 
z
" transform="scale(0.015625)"/>
        <path id="NotoSansSC-Thin-36" d="M 1837 -83 
Q 1498 -83 1232 67 
Q 966 218 780 509 
Q 595 800 496 1216 
Q 397 1632 397 2170 
Q 397 2886 528 3379 
Q 659 3872 889 4169 
Q 1120 4467 1414 4598 
Q 1709 4730 2029 4730 
Q 2330 4730 2550 4614 
Q 2771 4499 2944 4307 
L 2790 4147 
Q 2643 4333 2444 4425 
Q 2246 4518 2022 4518 
Q 1651 4518 1334 4297 
Q 1018 4077 826 3561 
Q 634 3046 634 2170 
Q 634 1581 762 1120 
Q 890 659 1158 393 
Q 1427 128 1850 128 
Q 2125 128 2336 297 
Q 2547 467 2672 752 
Q 2797 1037 2797 1382 
Q 2797 1741 2694 2025 
Q 2592 2310 2368 2476 
Q 2144 2643 1779 2643 
Q 1523 2643 1209 2470 
Q 896 2298 602 1888 
L 602 2176 
Q 768 2381 957 2531 
Q 1146 2682 1360 2762 
Q 1574 2842 1792 2842 
Q 2189 2842 2467 2675 
Q 2746 2509 2893 2185 
Q 3040 1862 3040 1382 
Q 3040 960 2873 630 
Q 2707 301 2435 109 
Q 2163 -83 1837 -83 
z
" transform="scale(0.015625)"/>
       </defs>
       <use xlink:href="#NotoSansSC-Thin-2d"/>
       <use xlink:href="#NotoSansSC-Thin-36" transform="translate(32.399994 0)"/>
      </g>
     </g>
    </g>
    <g id="xtick_2">
     <g id="line2d_3">
      <path d="M 112.187299 206.682813 
L 112.187299 31.522812 
" clip-path="url(#p1a099b818c)" style="fill: none; stroke: #64748b; stroke-opacity: 0.15; stroke-width: 0.5; stroke-linecap: square"/>
     </g>
     <g id="line2d_4">
      <g>
       <use xlink:href="#m9eecf5cdc2" x="112.187299" y="206.682813" style="fill: #64748b; stroke: #64748b; stroke-width: 0.8"/>
      </g>
     </g>
     <g id="text_2">
      <!-- -4 -->
      <g style="fill: #64748b" transform="translate(108.384799 220.829375) scale(0.09 -0.09)">
       <defs>
        <path id="NotoSansSC-Thin-34" d="M 2195 0 
L 2195 3482 
Q 2195 3629 2204 3843 
Q 2214 4058 2227 4205 
L 2195 4205 
Q 2112 4058 2019 3901 
Q 1926 3744 1830 3590 
L 422 1568 
L 3110 1568 
L 3110 1363 
L 115 1363 
L 115 1485 
L 2259 4646 
L 2419 4646 
L 2419 0 
L 2195 0 
z
" transform="scale(0.015625)"/>
       </defs>
       <use xlink:href="#NotoSansSC-Thin-2d"/>
       <use xlink:href="#NotoSansSC-Thin-34" transform="translate(32.399994 0)"/>
      </g>
     </g>
    </g>
    <g id="xtick_3">
     <g id="line2d_5">
      <path d="M 165.573 206.682813 
L 165.573 31.522812 
" clip-path="url(#p1a099b818c)" style="fill: none; stroke: #64748b; stroke-opacity: 0.15; stroke-width: 0.5; stroke-linecap: square"/>
     </g>
     <g id="line2d_6">
      <g>
       <use xlink:href="#m9eecf5cdc2" x="165.573" y="206.682813" style="fill: #64748b; stroke: #64748b; stroke-width: 0.8"/>
      </g>
     </g>
     <g id="text_3">
      <!-- -2 -->
      <g style="fill: #64748b" transform="translate(161.7705 220.829375) scale(0.09 -0.09)">
       <defs>
        <path id="NotoSansSC-Thin-32" d="M 294 0 
L 294 147 
Q 1120 858 1613 1434 
Q 2106 2010 2323 2499 
Q 2541 2989 2541 3424 
Q 2541 3725 2435 3974 
Q 2330 4224 2106 4371 
Q 1882 4518 1523 4518 
Q 1210 4518 931 4352 
Q 653 4186 442 3923 
L 282 4070 
Q 525 4346 829 4538 
Q 1133 4730 1542 4730 
Q 1939 4730 2214 4566 
Q 2490 4403 2637 4112 
Q 2784 3821 2784 3424 
Q 2784 2918 2537 2406 
Q 2291 1894 1820 1347 
Q 1350 800 678 179 
Q 870 192 1062 201 
Q 1254 211 1440 211 
L 3014 211 
L 3014 0 
L 294 0 
z
" transform="scale(0.015625)"/>
       </defs>
       <use xlink:href="#NotoSansSC-Thin-2d"/>
       <use xlink:href="#NotoSansSC-Thin-32" transform="translate(32.399994 0)"/>
      </g>
     </g>
    </g>
    <g id="xtick_4">
     <g id="line2d_7">
      <path d="M 218.958701 206.682813 
L 218.958701 31.522812 
" clip-path="url(#p1a099b818c)" style="fill: none; stroke: #64748b; stroke-opacity: 0.15; stroke-width: 0.5; stroke-linecap: square"/>
     </g>
     <g id="line2d_8">
      <g>
       <use xlink:href="#m9eecf5cdc2" x="218.958701" y="206.682813" style="fill: #64748b; stroke: #64748b; stroke-width: 0.8"/>
      </g>
     </g>
     <g id="text_4">
      <!-- 0 -->
      <g style="fill: #64748b" transform="translate(216.614482 220.829375) scale(0.09 -0.09)">
       <defs>
        <path id="NotoSansSC-Thin-30" d="M 1670 -83 
Q 1261 -83 963 179 
Q 666 442 509 979 
Q 352 1517 352 2336 
Q 352 3149 509 3677 
Q 666 4205 963 4467 
Q 1261 4730 1670 4730 
Q 2080 4730 2371 4467 
Q 2662 4205 2822 3677 
Q 2982 3149 2982 2336 
Q 2982 1517 2822 979 
Q 2662 442 2371 179 
Q 2080 -83 1670 -83 
z
M 1670 128 
Q 1997 128 2240 384 
Q 2483 640 2614 1133 
Q 2746 1626 2746 2336 
Q 2746 3040 2614 3529 
Q 2483 4019 2240 4272 
Q 1997 4525 1670 4525 
Q 1344 4525 1101 4272 
Q 858 4019 723 3529 
Q 589 3040 589 2336 
Q 589 1626 723 1133 
Q 858 640 1101 384 
Q 1344 128 1670 128 
z
" transform="scale(0.015625)"/>
       </defs>
       <use xlink:href="#NotoSansSC-Thin-30"/>
      </g>
     </g>
    </g>
    <g id="xtick_5">
     <g id="line2d_9">
      <path d="M 272.344401 206.682813 
L 272.344401 31.522812 
" clip-path="url(#p1a099b818c)" style="fill: none; stroke: #64748b; stroke-opacity: 0.15; stroke-width: 0.5; stroke-linecap: square"/>
     </g>
     <g id="line2d_10">
      <g>
       <use xlink:href="#m9eecf5cdc2" x="272.344401" y="206.682813" style="fill: #64748b; stroke: #64748b; stroke-width: 0.8"/>
      </g>
     </g>
     <g id="text_5">
      <!-- 2 -->
      <g style="fill: #64748b" transform="translate(270.000183 220.829375) scale(0.09 -0.09)">
       <use xlink:href="#NotoSansSC-Thin-32"/>
      </g>
     </g>
    </g>
    <g id="xtick_6">
     <g id="line2d_11">
      <path d="M 325.730102 206.682813 
L 325.730102 31.522812 
" clip-path="url(#p1a099b818c)" style="fill: none; stroke: #64748b; stroke-opacity: 0.15; stroke-width: 0.5; stroke-linecap: square"/>
     </g>
     <g id="line2d_12">
      <g>
       <use xlink:href="#m9eecf5cdc2" x="325.730102" y="206.682813" style="fill: #64748b; stroke: #64748b; stroke-width: 0.8"/>
      </g>
     </g>
     <g id="text_6">
      <!-- 4 -->
      <g style="fill: #64748b" transform="translate(323.385883 220.829375) scale(0.09 -0.09)">
       <use xlink:href="#NotoSansSC-Thin-34"/>
      </g>
     </g>
    </g>
    <g id="xtick_7">
     <g id="line2d_13">
      <path d="M 379.115803 206.682813 
L 379.115803 31.522812 
" clip-path="url(#p1a099b818c)" style="fill: none; stroke: #64748b; stroke-opacity: 0.15; stroke-width: 0.5; stroke-linecap: square"/>
     </g>
     <g id="line2d_14">
      <g>
       <use xlink:href="#m9eecf5cdc2" x="379.115803" y="206.682813" style="fill: #64748b; stroke: #64748b; stroke-width: 0.8"/>
      </g>
     </g>
     <g id="text_7">
      <!-- 6 -->
      <g style="fill: #64748b" transform="translate(376.771584 220.829375) scale(0.09 -0.09)">
       <use xlink:href="#NotoSansSC-Thin-36"/>
      </g>
     </g>
    </g>
    <g id="text_8">
     <!-- 涨跌幅 (%) -->
     <g style="fill: #64748b" transform="translate(197.817138 234.162656) scale(0.09 -0.09)">
      <defs>
       <path id="NotoSansSC-Thin-6da8" d="M 2803 2118 
L 3002 2118 
Q 3002 2118 3002 2073 
Q 3002 2029 2995 1997 
Q 2957 1216 2912 752 
Q 2867 288 2809 54 
Q 2752 -179 2669 -269 
Q 2605 -339 2528 -364 
Q 2451 -390 2323 -397 
Q 2208 -403 1987 -396 
Q 1766 -390 1530 -371 
Q 1523 -326 1510 -275 
Q 1498 -224 1472 -179 
Q 1741 -205 1971 -208 
Q 2202 -211 2285 -211 
Q 2445 -218 2509 -154 
Q 2579 -83 2630 150 
Q 2682 384 2726 848 
Q 2771 1312 2803 2080 
L 2803 2118 
z
M 1779 3565 
L 1965 3565 
Q 1946 3302 1920 2998 
Q 1894 2694 1865 2412 
Q 1837 2131 1805 1926 
L 1619 1926 
Q 1651 2138 1683 2422 
Q 1715 2707 1740 3008 
Q 1766 3309 1779 3565 
z
M 1728 2118 
L 2861 2118 
L 2861 1926 
L 1709 1926 
L 1728 2118 
z
M 1856 3565 
L 2867 3565 
L 2867 4806 
L 1638 4806 
L 1638 4992 
L 3053 4992 
L 3053 3373 
L 1856 3373 
L 1856 3565 
z
M 3590 -448 
Q 3584 -422 3565 -390 
Q 3546 -358 3523 -323 
Q 3501 -288 3482 -262 
Q 3552 -230 3645 -153 
Q 3738 -77 3738 102 
L 3738 5254 
L 3930 5254 
L 3930 -192 
Q 3930 -192 3878 -221 
Q 3827 -250 3760 -291 
Q 3693 -333 3641 -374 
Q 3590 -416 3590 -448 
z
M 518 5043 
L 646 5158 
Q 806 5050 969 4918 
Q 1133 4787 1273 4656 
Q 1414 4525 1498 4422 
L 1370 4288 
Q 1280 4397 1139 4531 
Q 998 4666 838 4800 
Q 678 4934 518 5043 
z
M 294 3251 
L 429 3366 
Q 582 3264 739 3142 
Q 896 3021 1033 2899 
Q 1171 2778 1254 2675 
L 1126 2534 
Q 1037 2637 899 2765 
Q 762 2893 605 3021 
Q 448 3149 294 3251 
z
M 448 -262 
Q 550 -26 665 297 
Q 781 621 899 976 
Q 1018 1331 1107 1658 
L 1274 1549 
Q 1190 1242 1078 896 
Q 966 550 854 220 
Q 742 -109 634 -378 
L 448 -262 
z
M 3091 2771 
L 6093 2771 
L 6093 2579 
L 3091 2579 
L 3091 2771 
z
M 4659 2694 
Q 4781 2061 4985 1497 
Q 5190 934 5478 499 
Q 5766 64 6138 -192 
Q 6106 -218 6064 -262 
Q 6022 -307 5997 -346 
Q 5626 -58 5331 396 
Q 5037 851 4829 1430 
Q 4621 2010 4493 2656 
L 4659 2694 
z
M 5613 5197 
L 5805 5146 
Q 5626 4730 5389 4346 
Q 5152 3962 4873 3632 
Q 4595 3302 4301 3046 
Q 4288 3059 4259 3084 
Q 4230 3110 4198 3136 
Q 4166 3162 4141 3174 
Q 4589 3539 4976 4070 
Q 5363 4602 5613 5197 
z
M 3590 -448 
L 3590 -269 
L 3706 -134 
L 4998 339 
Q 5005 301 5014 256 
Q 5024 211 5030 192 
Q 4570 0 4294 -115 
Q 4019 -230 3878 -294 
Q 3738 -358 3680 -390 
Q 3622 -422 3590 -448 
z
" transform="scale(0.015625)"/>
       <path id="NotoSansSC-Thin-8dcc" d="M 838 4819 
L 838 3398 
L 2214 3398 
L 2214 4819 
L 838 4819 
z
M 646 5005 
L 2406 5005 
L 2406 3213 
L 646 3213 
L 646 5005 
z
M 1498 3341 
L 1690 3341 
L 1690 346 
L 1498 346 
L 1498 3341 
z
M 685 2458 
L 870 2458 
L 870 147 
L 685 147 
L 685 2458 
z
M 314 122 
Q 589 186 944 278 
Q 1299 371 1705 483 
Q 2112 595 2522 704 
L 2541 525 
Q 1958 365 1382 208 
Q 806 51 371 -70 
L 314 122 
z
M 1549 2106 
L 2483 2106 
L 2483 1920 
L 1549 1920 
L 1549 2106 
z
M 2643 2336 
L 6003 2336 
L 6003 2144 
L 2643 2144 
L 2643 2336 
z
M 3213 4096 
L 5894 4096 
L 5894 3910 
L 3155 3910 
L 3213 4096 
z
M 3277 5050 
L 3469 5018 
Q 3366 4416 3200 3865 
Q 3034 3315 2790 2918 
Q 2771 2938 2742 2957 
Q 2714 2976 2682 2995 
Q 2650 3014 2618 3027 
Q 2867 3405 3027 3939 
Q 3187 4474 3277 5050 
z
M 4224 5306 
L 4410 5306 
L 4410 3450 
Q 4410 3091 4387 2688 
Q 4365 2285 4272 1869 
Q 4179 1453 3980 1040 
Q 3782 627 3440 243 
Q 3098 -141 2560 -474 
Q 2547 -448 2524 -425 
Q 2502 -403 2476 -377 
Q 2451 -352 2426 -333 
Q 2957 -19 3293 352 
Q 3629 723 3821 1123 
Q 4013 1523 4099 1926 
Q 4186 2330 4205 2717 
Q 4224 3104 4224 3450 
L 4224 5306 
z
M 4416 2323 
Q 4531 1715 4752 1196 
Q 4973 678 5305 297 
Q 5638 -83 6086 -282 
Q 6061 -301 6035 -326 
Q 6010 -352 5987 -381 
Q 5965 -410 5946 -435 
Q 5261 -96 4848 614 
Q 4435 1325 4250 2285 
L 4416 2323 
z
" transform="scale(0.015625)"/>
       <path id="NotoSansSC-Thin-5e45" d="M 1376 5306 
L 1562 5306 
L 1562 -448 
L 1376 -448 
L 1376 5306 
z
M 531 4064 
L 2381 4064 
L 2381 3878 
L 717 3878 
L 717 858 
L 531 858 
L 531 4064 
z
M 2266 4064 
L 2451 4064 
L 2451 1158 
Q 2451 1075 2428 1024 
Q 2406 973 2342 941 
Q 2278 915 2163 908 
Q 2048 902 1882 902 
Q 1875 941 1849 995 
Q 1824 1050 1792 1094 
Q 1946 1088 2051 1088 
Q 2157 1088 2202 1088 
Q 2266 1094 2266 1158 
L 2266 4064 
z
M 2714 4928 
L 6074 4928 
L 6074 4742 
L 2714 4742 
L 2714 4928 
z
M 3283 3962 
L 3283 2957 
L 5453 2957 
L 5453 3962 
L 3283 3962 
z
M 3091 4147 
L 5638 4147 
L 5638 2765 
L 3091 2765 
L 3091 4147 
z
M 2912 1037 
L 5856 1037 
L 5856 845 
L 2912 845 
L 2912 1037 
z
M 2912 -32 
L 5856 -32 
L 5856 -218 
L 2912 -218 
L 2912 -32 
z
M 2790 2112 
L 5933 2112 
L 5933 -429 
L 5747 -429 
L 5747 1926 
L 2982 1926 
L 2982 -454 
L 2790 -454 
L 2790 2112 
z
M 4218 1997 
L 4403 1997 
L 4403 -147 
L 4218 -147 
L 4218 1997 
z
" transform="scale(0.015625)"/>
       <path id="NotoSansSC-Thin-20" transform="scale(0.015625)"/>
       <path id="NotoSansSC-Thin-28" d="M 1562 -1222 
Q 1133 -525 883 252 
Q 634 1030 634 1958 
Q 634 2886 883 3667 
Q 1133 4448 1562 5146 
L 1696 5056 
Q 1274 4390 1059 3596 
Q 845 2803 845 1958 
Q 845 1114 1059 320 
Q 1274 -474 1696 -1139 
L 1562 -1222 
z
" transform="scale(0.015625)"/>
       <path id="NotoSansSC-Thin-25" d="M 1267 1818 
Q 966 1818 745 1987 
Q 525 2157 409 2483 
Q 294 2810 294 3283 
Q 294 3750 409 4070 
Q 525 4390 745 4560 
Q 966 4730 1267 4730 
Q 1574 4730 1795 4560 
Q 2016 4390 2131 4070 
Q 2246 3750 2246 3283 
Q 2246 2810 2131 2483 
Q 2016 2157 1795 1987 
Q 1574 1818 1267 1818 
z
M 1267 2003 
Q 1619 2003 1820 2342 
Q 2022 2682 2022 3283 
Q 2022 3885 1820 4214 
Q 1619 4544 1267 4544 
Q 922 4544 717 4214 
Q 512 3885 512 3283 
Q 512 2682 717 2342 
Q 922 2003 1267 2003 
z
M 1382 -83 
L 3987 4730 
L 4218 4730 
L 1619 -83 
L 1382 -83 
z
M 4365 -83 
Q 4058 -83 3840 86 
Q 3622 256 3504 582 
Q 3386 909 3386 1382 
Q 3386 1850 3504 2170 
Q 3622 2490 3840 2659 
Q 4058 2829 4365 2829 
Q 4666 2829 4883 2659 
Q 5101 2490 5219 2170 
Q 5338 1850 5338 1382 
Q 5338 909 5219 582 
Q 5101 256 4883 86 
Q 4666 -83 4365 -83 
z
M 4365 102 
Q 4704 102 4912 441 
Q 5120 781 5120 1382 
Q 5120 1984 4912 2313 
Q 4704 2643 4365 2643 
Q 4013 2643 3808 2313 
Q 3603 1984 3603 1382 
Q 3603 781 3808 441 
Q 4013 102 4365 102 
z
" transform="scale(0.015625)"/>
       <path id="NotoSansSC-Thin-29" d="M 352 -1222 
L 211 -1139 
Q 634 -474 851 320 
Q 1069 1114 1069 1958 
Q 1069 2803 851 3596 
Q 634 4390 211 5056 
L 352 5146 
Q 787 4448 1033 3667 
Q 1280 2886 1280 1958 
Q 1280 1030 1033 252 
Q 787 -525 352 -1222 
z
" transform="scale(0.015625)"/>
      </defs>
      <use xlink:href="#NotoSansSC-Thin-6da8"/>
      <use xlink:href="#NotoSansSC-Thin-8dcc" transform="translate(99.999985 0)"/>
      <use xlink:href="#NotoSansSC-Thin-5e45" transform="translate(199.999969 0)"/>
      <use xlink:href="#NotoSansSC-Thin-20" transform="translate(299.999954 0)"/>
      <use xlink:href="#NotoSansSC-Thin-28" transform="translate(321.999939 0)"/>
      <use xlink:href="#NotoSansSC-Thin-25" transform="translate(351.899933 0)"/>
      <use xlink:href="#NotoSansSC-Thin-29" transform="translate(439.899918 0)"/>
     </g>
    </g>
   </g>
   <g id="matplotlib.axis_2">
    <g id="ytick_1">
     <g id="line2d_15">
      <defs>
       <path id="ma8af8ae8a7" d="M 0 0 
L -3.5 0 
" style="stroke: #64748b; stroke-width: 0.8"/>
      </defs>
      <g>
       <use xlink:href="#ma8af8ae8a7" x="56.906406" y="198.720994" style="fill: #64748b; stroke: #64748b; stroke-width: 0.8"/>
      </g>
     </g>
     <g id="text_9">
      <!-- 道指 -->
      <g style="fill: #64748b" transform="translate(31.906406 202.294276) scale(0.09 -0.09)">
       <defs>
        <path id="NotoSansSC-Thin-9053" d="M 1984 4384 
L 6022 4384 
L 6022 4198 
L 1984 4198 
L 1984 4384 
z
M 3878 4326 
L 4090 4288 
Q 4013 4058 3926 3808 
Q 3840 3558 3750 3373 
L 3578 3405 
Q 3654 3597 3744 3862 
Q 3834 4128 3878 4326 
z
M 5005 5306 
L 5210 5235 
Q 5062 4998 4892 4729 
Q 4723 4461 4570 4275 
L 4403 4333 
Q 4512 4467 4624 4640 
Q 4736 4813 4838 4989 
Q 4941 5165 5005 5306 
z
M 2746 5242 
L 2899 5318 
Q 3059 5146 3203 4931 
Q 3347 4717 3405 4550 
L 3251 4461 
Q 3187 4627 3046 4844 
Q 2906 5062 2746 5242 
z
M 1568 3040 
L 1568 557 
L 1382 557 
L 1382 2854 
L 358 2854 
L 358 3040 
L 1568 3040 
z
M 538 4966 
L 691 5056 
Q 870 4902 1049 4713 
Q 1229 4525 1385 4342 
Q 1542 4160 1638 4013 
L 1478 3910 
Q 1389 4058 1232 4240 
Q 1075 4422 896 4614 
Q 717 4806 538 4966 
z
M 1440 621 
Q 1587 621 1718 509 
Q 1850 397 2093 237 
Q 2387 58 2780 3 
Q 3174 -51 3706 -51 
Q 4122 -51 4554 -38 
Q 4986 -26 5382 -6 
Q 5779 13 6086 38 
Q 6074 13 6061 -22 
Q 6048 -58 6038 -96 
Q 6029 -134 6022 -166 
Q 5837 -179 5539 -188 
Q 5242 -198 4902 -208 
Q 4563 -218 4246 -224 
Q 3930 -230 3706 -230 
Q 3142 -230 2729 -166 
Q 2317 -102 2003 96 
Q 1824 211 1683 332 
Q 1542 454 1440 454 
Q 1325 454 1181 361 
Q 1037 269 867 105 
Q 698 -58 512 -275 
L 378 -134 
Q 678 179 944 400 
Q 1210 621 1440 621 
z
M 2688 2413 
L 2688 1690 
L 5229 1690 
L 5229 2413 
L 2688 2413 
z
M 2688 1498 
L 2688 768 
L 5229 768 
L 5229 1498 
L 2688 1498 
z
M 2688 3322 
L 2688 2605 
L 5229 2605 
L 5229 3322 
L 2688 3322 
z
M 2496 3507 
L 5414 3507 
L 5414 576 
L 2496 576 
L 2496 3507 
z
" transform="scale(0.015625)"/>
        <path id="NotoSansSC-Thin-6307" d="M 2867 5274 
L 3053 5274 
L 3053 3373 
Q 3053 3226 3155 3174 
Q 3258 3123 3597 3123 
Q 3661 3123 3830 3123 
Q 4000 3123 4224 3123 
Q 4448 3123 4675 3123 
Q 4902 3123 5088 3123 
Q 5274 3123 5363 3123 
Q 5562 3123 5658 3187 
Q 5754 3251 5792 3440 
Q 5830 3629 5850 4000 
Q 5882 3974 5936 3955 
Q 5990 3936 6035 3923 
Q 6016 3526 5961 3312 
Q 5907 3098 5769 3018 
Q 5632 2938 5363 2938 
Q 5325 2938 5149 2938 
Q 4973 2938 4733 2938 
Q 4493 2938 4253 2938 
Q 4013 2938 3837 2938 
Q 3661 2938 3622 2938 
Q 3334 2938 3168 2970 
Q 3002 3002 2934 3098 
Q 2867 3194 2867 3379 
L 2867 5274 
z
M 5459 4832 
L 5626 4678 
Q 5299 4550 4857 4432 
Q 4416 4314 3933 4208 
Q 3450 4102 2995 4019 
Q 2989 4051 2966 4096 
Q 2944 4141 2918 4179 
Q 3366 4262 3846 4368 
Q 4326 4474 4752 4595 
Q 5178 4717 5459 4832 
z
M 2880 2234 
L 5792 2234 
L 5792 -416 
L 5600 -416 
L 5600 2048 
L 3066 2048 
L 3066 -442 
L 2880 -442 
L 2880 2234 
z
M 2970 1165 
L 5683 1165 
L 5683 979 
L 2970 979 
L 2970 1165 
z
M 2970 58 
L 5709 58 
L 5709 -128 
L 2970 -128 
L 2970 58 
z
M 262 1792 
Q 531 1875 880 1987 
Q 1229 2099 1625 2230 
Q 2022 2362 2419 2496 
L 2451 2310 
Q 1894 2125 1337 1933 
Q 781 1741 352 1600 
L 262 1792 
z
M 326 3936 
L 2368 3936 
L 2368 3744 
L 326 3744 
L 326 3936 
z
M 1318 5312 
L 1504 5312 
L 1504 -141 
Q 1504 -269 1462 -329 
Q 1421 -390 1331 -416 
Q 1242 -442 1069 -448 
Q 896 -454 595 -448 
Q 589 -416 563 -365 
Q 538 -314 518 -269 
Q 768 -275 953 -275 
Q 1139 -275 1197 -269 
Q 1261 -269 1289 -243 
Q 1318 -218 1318 -147 
L 1318 5312 
z
" transform="scale(0.015625)"/>
       </defs>
       <use xlink:href="#NotoSansSC-Thin-9053"/>
       <use xlink:href="#NotoSansSC-Thin-6307" transform="translate(99.999985 0)"/>
      </g>
     </g>
    </g>
    <g id="ytick_2">
     <g id="line2d_16">
      <g>
       <use xlink:href="#ma8af8ae8a7" x="56.906406" y="175.972942" style="fill: #64748b; stroke: #64748b; stroke-width: 0.8"/>
      </g>
     </g>
     <g id="text_10">
      <!-- 上证指数 -->
      <g style="fill: #64748b" transform="translate(13.906406 179.546224) scale(0.09 -0.09)">
       <defs>
        <path id="NotoSansSC-Thin-4e0a" d="M 3002 3091 
L 5600 3091 
L 5600 2906 
L 3002 2906 
L 3002 3091 
z
M 378 32 
L 6029 32 
L 6029 -154 
L 378 -154 
L 378 32 
z
M 2886 5203 
L 3072 5203 
L 3072 -51 
L 2886 -51 
L 2886 5203 
z
" transform="scale(0.015625)"/>
        <path id="NotoSansSC-Thin-8bc1" d="M 4166 4685 
L 4352 4685 
L 4352 -109 
L 4166 -109 
L 4166 4685 
z
M 2861 3264 
L 3046 3264 
L 3046 -122 
L 2861 -122 
L 2861 3264 
z
M 4250 2637 
L 5837 2637 
L 5837 2445 
L 4250 2445 
L 4250 2637 
z
M 2502 4736 
L 5952 4736 
L 5952 4550 
L 2502 4550 
L 2502 4736 
z
M 2227 0 
L 6099 0 
L 6099 -186 
L 2227 -186 
L 2227 0 
z
M 781 4966 
L 922 5082 
Q 1101 4947 1286 4784 
Q 1472 4621 1635 4461 
Q 1798 4301 1894 4173 
L 1754 4032 
Q 1651 4160 1488 4323 
Q 1325 4486 1142 4656 
Q 960 4826 781 4966 
z
M 1248 -205 
L 1242 -6 
L 1350 154 
L 2400 838 
Q 2413 819 2425 793 
Q 2438 768 2451 739 
Q 2464 710 2470 691 
Q 2086 422 1856 262 
Q 1626 102 1504 16 
Q 1382 -70 1331 -118 
Q 1280 -166 1248 -205 
z
M 384 3270 
L 1581 3270 
L 1581 3078 
L 384 3078 
L 384 3270 
z
M 1248 -205 
Q 1235 -179 1209 -150 
Q 1184 -122 1161 -93 
Q 1139 -64 1114 -45 
Q 1158 -13 1235 60 
Q 1312 134 1373 243 
Q 1434 352 1434 493 
L 1434 3270 
L 1619 3270 
L 1619 198 
Q 1619 198 1580 166 
Q 1542 134 1488 86 
Q 1434 38 1379 -19 
Q 1325 -77 1286 -125 
Q 1248 -173 1248 -205 
z
" transform="scale(0.015625)"/>
        <path id="NotoSansSC-Thin-6570" d="M 512 1990 
L 2970 1990 
L 2970 1798 
L 512 1798 
L 512 1990 
z
M 365 4064 
L 3386 4064 
L 3386 3878 
L 365 3878 
L 365 4064 
z
M 2957 5146 
L 3123 5050 
Q 3002 4826 2845 4586 
Q 2688 4346 2554 4173 
L 2419 4256 
Q 2509 4371 2608 4531 
Q 2707 4691 2800 4854 
Q 2893 5018 2957 5146 
z
M 1792 5318 
L 1984 5318 
L 1984 2611 
L 1792 2611 
L 1792 5318 
z
M 691 5043 
L 845 5101 
Q 992 4902 1117 4662 
Q 1242 4422 1286 4250 
L 1139 4179 
Q 1088 4352 960 4598 
Q 832 4845 691 5043 
z
M 1792 3987 
L 1946 3904 
Q 1798 3622 1561 3344 
Q 1325 3066 1046 2832 
Q 768 2598 486 2445 
Q 467 2490 428 2538 
Q 390 2586 358 2618 
Q 634 2746 909 2960 
Q 1184 3174 1417 3443 
Q 1651 3712 1792 3987 
z
M 1946 3866 
Q 2029 3814 2205 3696 
Q 2381 3578 2585 3443 
Q 2790 3309 2960 3190 
Q 3130 3072 3200 3021 
L 3072 2854 
Q 2995 2925 2832 3049 
Q 2669 3174 2473 3315 
Q 2278 3456 2105 3574 
Q 1933 3693 1830 3750 
L 1946 3866 
z
M 3962 4013 
L 5997 4013 
L 5997 3827 
L 3962 3827 
L 3962 4013 
z
M 4128 5222 
L 4314 5190 
Q 4218 4614 4083 4086 
Q 3949 3558 3766 3100 
Q 3584 2643 3354 2285 
Q 3341 2298 3309 2320 
Q 3277 2342 3241 2361 
Q 3206 2381 3181 2394 
Q 3424 2733 3603 3184 
Q 3782 3635 3913 4153 
Q 4045 4672 4128 5222 
z
M 5357 3936 
L 5549 3910 
Q 5382 2829 5084 2006 
Q 4787 1184 4291 579 
Q 3795 -26 3040 -454 
Q 3027 -435 3004 -406 
Q 2982 -378 2956 -349 
Q 2931 -320 2906 -301 
Q 3654 90 4140 678 
Q 4627 1267 4915 2076 
Q 5203 2886 5357 3936 
z
M 3994 3789 
Q 4147 2874 4425 2070 
Q 4704 1267 5133 668 
Q 5562 70 6150 -243 
Q 6112 -269 6073 -313 
Q 6035 -358 6010 -397 
Q 5414 -51 4985 563 
Q 4557 1178 4275 1997 
Q 3994 2816 3834 3757 
L 3994 3789 
z
M 896 1018 
L 1050 1152 
Q 1370 1037 1722 873 
Q 2074 710 2387 544 
Q 2701 378 2906 230 
L 2752 90 
Q 2554 237 2240 406 
Q 1926 576 1574 739 
Q 1222 902 896 1018 
z
M 2880 1990 
L 2918 1990 
L 2963 2003 
L 3066 1946 
Q 2874 1286 2474 825 
Q 2074 365 1552 80 
Q 1030 -205 467 -358 
Q 454 -320 422 -272 
Q 390 -224 358 -198 
Q 902 -64 1411 205 
Q 1920 474 2310 906 
Q 2701 1338 2880 1946 
L 2880 1990 
z
M 896 1018 
Q 1030 1210 1168 1453 
Q 1306 1696 1427 1952 
Q 1549 2208 1632 2438 
L 1811 2406 
Q 1722 2170 1597 1910 
Q 1472 1651 1341 1414 
Q 1210 1178 1094 1005 
L 896 1018 
z
" transform="scale(0.015625)"/>
       </defs>
       <use xlink:href="#NotoSansSC-Thin-4e0a"/>
       <use xlink:href="#NotoSansSC-Thin-8bc1" transform="translate(99.999985 0)"/>
       <use xlink:href="#NotoSansSC-Thin-6307" transform="translate(199.999969 0)"/>
       <use xlink:href="#NotoSansSC-Thin-6570" transform="translate(299.999954 0)"/>
      </g>
     </g>
    </g>
    <g id="ytick_3">
     <g id="line2d_17">
      <g>
       <use xlink:href="#ma8af8ae8a7" x="56.906406" y="153.22489" style="fill: #64748b; stroke: #64748b; stroke-width: 0.8"/>
      </g>
     </g>
     <g id="text_11">
      <!-- 标普500 -->
      <g style="fill: #64748b" transform="translate(17.841094 156.798172) scale(0.09 -0.09)">
       <defs>
        <path id="NotoSansSC-Thin-6807" d="M 2970 4736 
L 5734 4736 
L 5734 4550 
L 2970 4550 
L 2970 4736 
z
M 2707 3206 
L 6067 3206 
L 6067 3021 
L 2707 3021 
L 2707 3206 
z
M 4186 3117 
L 4378 3117 
L 4378 -115 
Q 4378 -243 4336 -304 
Q 4294 -365 4192 -397 
Q 4090 -422 3875 -425 
Q 3661 -429 3315 -429 
Q 3309 -390 3283 -336 
Q 3258 -282 3232 -237 
Q 3539 -243 3766 -243 
Q 3994 -243 4058 -237 
Q 4134 -230 4160 -204 
Q 4186 -179 4186 -115 
L 4186 3117 
z
M 5030 2138 
L 5216 2182 
Q 5382 1882 5539 1536 
Q 5696 1190 5824 867 
Q 5952 544 6016 301 
L 5824 237 
Q 5760 480 5635 806 
Q 5510 1133 5353 1485 
Q 5197 1837 5030 2138 
z
M 3315 2176 
L 3501 2138 
Q 3398 1773 3257 1424 
Q 3117 1075 2953 768 
Q 2790 461 2605 218 
Q 2592 230 2560 252 
Q 2528 275 2493 297 
Q 2458 320 2432 333 
Q 2720 685 2947 1168 
Q 3174 1651 3315 2176 
z
M 416 3866 
L 2598 3866 
L 2598 3674 
L 416 3674 
L 416 3866 
z
M 1478 5318 
L 1670 5318 
L 1670 -435 
L 1478 -435 
L 1478 5318 
z
M 1459 3814 
L 1645 3763 
Q 1549 3424 1408 3056 
Q 1267 2688 1094 2333 
Q 922 1978 733 1670 
Q 544 1363 352 1152 
Q 333 1178 304 1206 
Q 275 1235 249 1260 
Q 224 1286 198 1299 
Q 442 1568 685 1984 
Q 928 2400 1133 2883 
Q 1338 3366 1459 3814 
z
M 1638 3507 
Q 1696 3443 1824 3276 
Q 1952 3110 2102 2912 
Q 2253 2714 2381 2547 
Q 2509 2381 2560 2304 
L 2400 2144 
Q 2342 2240 2220 2419 
Q 2099 2598 1958 2800 
Q 1818 3002 1690 3168 
Q 1562 3334 1491 3411 
L 1638 3507 
z
" transform="scale(0.015625)"/>
        <path id="NotoSansSC-Thin-666e" d="M 768 4486 
L 5709 4486 
L 5709 4294 
L 768 4294 
L 768 4486 
z
M 384 2829 
L 6035 2829 
L 6035 2643 
L 384 2643 
L 384 2829 
z
M 2451 4416 
L 2643 4416 
L 2643 2720 
L 2451 2720 
L 2451 4416 
z
M 3750 4416 
L 3942 4416 
L 3942 2720 
L 3750 2720 
L 3750 4416 
z
M 1120 4019 
L 1280 4096 
Q 1485 3872 1651 3590 
Q 1818 3309 1882 3091 
L 1702 3014 
Q 1638 3232 1475 3513 
Q 1312 3795 1120 4019 
z
M 1587 5229 
L 1741 5312 
Q 1901 5158 2035 4966 
Q 2170 4774 2234 4614 
L 2067 4525 
Q 2003 4678 1872 4876 
Q 1741 5075 1587 5229 
z
M 5133 4141 
L 5299 4038 
Q 5146 3770 4950 3475 
Q 4755 3181 4589 2976 
L 4448 3059 
Q 4557 3206 4685 3395 
Q 4813 3584 4931 3782 
Q 5050 3981 5133 4141 
z
M 4602 5318 
L 4781 5229 
Q 4659 5011 4508 4777 
Q 4358 4544 4230 4371 
L 4083 4454 
Q 4211 4627 4361 4880 
Q 4512 5133 4602 5318 
z
M 1338 2131 
L 5120 2131 
L 5120 -416 
L 4928 -416 
L 4928 1946 
L 1523 1946 
L 1523 -435 
L 1338 -435 
L 1338 2131 
z
M 1440 1082 
L 4998 1082 
L 4998 890 
L 1440 890 
L 1440 1082 
z
M 1453 -6 
L 5011 -6 
L 5011 -192 
L 1453 -192 
L 1453 -6 
z
" transform="scale(0.015625)"/>
        <path id="NotoSansSC-Thin-35" d="M 1581 -83 
Q 1222 -83 963 9 
Q 704 102 515 240 
Q 326 378 186 518 
L 333 691 
Q 467 550 636 422 
Q 806 294 1040 211 
Q 1274 128 1594 128 
Q 1901 128 2166 294 
Q 2432 461 2592 765 
Q 2752 1069 2752 1466 
Q 2752 2061 2441 2406 
Q 2131 2752 1606 2752 
Q 1350 2752 1152 2665 
Q 954 2579 755 2445 
L 563 2560 
L 730 4646 
L 2758 4646 
L 2758 4435 
L 941 4435 
L 787 2726 
Q 966 2835 1168 2902 
Q 1370 2970 1626 2970 
Q 2010 2970 2320 2813 
Q 2630 2656 2812 2326 
Q 2995 1997 2995 1478 
Q 2995 979 2787 630 
Q 2579 282 2256 99 
Q 1933 -83 1581 -83 
z
" transform="scale(0.015625)"/>
       </defs>
       <use xlink:href="#NotoSansSC-Thin-6807"/>
       <use xlink:href="#NotoSansSC-Thin-666e" transform="translate(99.999985 0)"/>
       <use xlink:href="#NotoSansSC-Thin-35" transform="translate(199.999969 0)"/>
       <use xlink:href="#NotoSansSC-Thin-30" transform="translate(252.09996 0)"/>
       <use xlink:href="#NotoSansSC-Thin-30" transform="translate(304.199951 0)"/>
      </g>
     </g>
    </g>
    <g id="ytick_4">
     <g id="line2d_18">
      <g>
       <use xlink:href="#ma8af8ae8a7" x="56.906406" y="130.476838" style="fill: #64748b; stroke: #64748b; stroke-width: 0.8"/>
      </g>
     </g>
     <g id="text_12">
      <!-- 纳指 -->
      <g style="fill: #64748b" transform="translate(31.906406 134.05012) scale(0.09 -0.09)">
       <defs>
        <path id="NotoSansSC-Thin-7eb3" d="M 5632 3853 
L 5824 3853 
L 5824 -96 
Q 5824 -230 5779 -297 
Q 5734 -365 5626 -397 
Q 5517 -416 5283 -419 
Q 5050 -422 4653 -422 
Q 4646 -390 4624 -336 
Q 4602 -282 4576 -237 
Q 4915 -243 5164 -243 
Q 5414 -243 5498 -237 
Q 5632 -230 5632 -102 
L 5632 3853 
z
M 2675 3853 
L 5728 3853 
L 5728 3661 
L 2861 3661 
L 2861 -448 
L 2675 -448 
L 2675 3853 
z
M 4154 5312 
L 4346 5312 
L 4346 4518 
Q 4346 4096 4310 3632 
Q 4275 3168 4163 2691 
Q 4051 2214 3814 1753 
Q 3578 1293 3174 877 
Q 3155 896 3126 918 
Q 3098 941 3069 960 
Q 3040 979 3014 992 
Q 3411 1402 3641 1850 
Q 3872 2298 3981 2758 
Q 4090 3219 4122 3664 
Q 4154 4109 4154 4512 
L 4154 5312 
z
M 4038 2970 
L 4205 3040 
Q 4435 2726 4675 2358 
Q 4915 1990 5120 1648 
Q 5325 1306 5440 1050 
L 5267 954 
Q 5152 1210 4950 1562 
Q 4749 1914 4512 2285 
Q 4275 2656 4038 2970 
z
M 448 1248 
Q 448 1274 435 1312 
Q 422 1350 409 1388 
Q 397 1427 378 1453 
Q 467 1466 582 1587 
Q 698 1709 851 1888 
Q 928 1978 1088 2182 
Q 1248 2387 1453 2668 
Q 1658 2950 1866 3276 
Q 2074 3603 2253 3936 
L 2426 3846 
Q 2016 3155 1552 2508 
Q 1088 1862 621 1382 
L 621 1376 
Q 621 1376 595 1366 
Q 570 1357 534 1337 
Q 499 1318 473 1296 
Q 448 1274 448 1248 
z
M 448 1248 
L 448 1414 
L 589 1510 
L 2406 1869 
Q 2406 1830 2409 1785 
Q 2413 1741 2419 1709 
Q 1779 1574 1401 1494 
Q 1024 1414 832 1369 
Q 640 1325 563 1299 
Q 486 1274 448 1248 
z
M 410 2765 
Q 410 2790 397 2828 
Q 384 2867 371 2905 
Q 358 2944 346 2970 
Q 416 2982 502 3097 
Q 589 3213 691 3386 
Q 749 3475 861 3667 
Q 973 3859 1113 4124 
Q 1254 4390 1395 4694 
Q 1536 4998 1645 5299 
L 1818 5222 
Q 1645 4800 1443 4384 
Q 1242 3968 1024 3590 
Q 806 3213 582 2906 
L 582 2899 
Q 582 2899 556 2886 
Q 531 2874 496 2854 
Q 461 2835 435 2812 
Q 410 2790 410 2765 
z
M 410 2765 
L 410 2931 
L 550 3014 
L 1843 3181 
Q 1843 3142 1843 3094 
Q 1843 3046 1850 3021 
Q 1402 2957 1126 2912 
Q 851 2867 707 2841 
Q 563 2816 502 2800 
Q 442 2784 410 2765 
z
M 346 243 
Q 742 333 1312 467 
Q 1882 602 2483 749 
L 2496 570 
Q 1926 429 1369 297 
Q 813 166 390 58 
L 346 243 
z
" transform="scale(0.015625)"/>
       </defs>
       <use xlink:href="#NotoSansSC-Thin-7eb3"/>
       <use xlink:href="#NotoSansSC-Thin-6307" transform="translate(99.999985 0)"/>
      </g>
     </g>
    </g>
    <g id="ytick_5">
     <g id="line2d_19">
      <g>
       <use xlink:href="#ma8af8ae8a7" x="56.906406" y="107.728787" style="fill: #64748b; stroke: #64748b; stroke-width: 0.8"/>
      </g>
     </g>
     <g id="text_13">
      <!-- 法国CAC -->
      <g style="fill: #64748b" transform="translate(15.596719 111.302068) scale(0.09 -0.09)">
       <defs>
        <path id="NotoSansSC-Thin-6cd5" d="M 621 5114 
L 730 5248 
Q 947 5158 1180 5040 
Q 1414 4922 1619 4797 
Q 1824 4672 1958 4563 
L 1850 4390 
Q 1715 4506 1510 4637 
Q 1306 4768 1075 4893 
Q 845 5018 621 5114 
z
M 314 3360 
L 429 3501 
Q 634 3411 854 3292 
Q 1075 3174 1270 3052 
Q 1466 2931 1587 2822 
L 1478 2662 
Q 1350 2771 1155 2896 
Q 960 3021 742 3145 
Q 525 3270 314 3360 
z
M 518 -224 
Q 691 26 908 381 
Q 1126 736 1344 1129 
Q 1562 1523 1741 1882 
L 1875 1760 
Q 1709 1421 1501 1037 
Q 1293 653 1078 291 
Q 864 -70 678 -358 
L 518 -224 
z
M 3949 5318 
L 4134 5318 
L 4134 2355 
L 3949 2355 
L 3949 5318 
z
M 2163 2470 
L 5965 2470 
L 5965 2285 
L 2163 2285 
L 2163 2470 
z
M 2470 4064 
L 5677 4064 
L 5677 3878 
L 2470 3878 
L 2470 4064 
z
M 4550 1408 
L 4691 1472 
Q 4934 1190 5168 857 
Q 5402 525 5594 205 
Q 5786 -115 5888 -358 
L 5734 -442 
Q 5632 -198 5443 125 
Q 5254 448 5020 787 
Q 4787 1126 4550 1408 
z
M 2381 -160 
L 2381 -6 
L 2547 90 
L 5382 429 
Q 5382 390 5395 342 
Q 5408 294 5414 262 
Q 4608 160 4077 96 
Q 3546 32 3222 -13 
Q 2899 -58 2732 -83 
Q 2566 -109 2492 -125 
Q 2419 -141 2381 -160 
z
M 2381 -160 
Q 2381 -134 2368 -96 
Q 2355 -58 2342 -22 
Q 2330 13 2317 38 
Q 2394 51 2496 166 
Q 2598 282 2726 461 
Q 2797 544 2934 739 
Q 3072 934 3245 1203 
Q 3418 1472 3594 1779 
Q 3770 2086 3917 2400 
L 4096 2317 
Q 3866 1882 3613 1456 
Q 3360 1030 3091 652 
Q 2822 275 2554 -32 
L 2554 -38 
Q 2554 -38 2528 -48 
Q 2502 -58 2467 -77 
Q 2432 -96 2406 -118 
Q 2381 -141 2381 -160 
z
" transform="scale(0.015625)"/>
        <path id="NotoSansSC-Thin-56fd" d="M 1510 4051 
L 4928 4051 
L 4928 3866 
L 1510 3866 
L 1510 4051 
z
M 1702 2650 
L 4755 2650 
L 4755 2458 
L 1702 2458 
L 1702 2650 
z
M 1395 1056 
L 5094 1056 
L 5094 864 
L 1395 864 
L 1395 1056 
z
M 3072 3994 
L 3264 3994 
L 3264 947 
L 3072 947 
L 3072 3994 
z
M 3859 2093 
L 3994 2182 
Q 4218 2010 4435 1789 
Q 4653 1568 4768 1402 
L 4621 1293 
Q 4506 1459 4288 1686 
Q 4070 1914 3859 2093 
z
M 608 4986 
L 5805 4986 
L 5805 -461 
L 5613 -461 
L 5613 4800 
L 800 4800 
L 800 -461 
L 608 -461 
L 608 4986 
z
M 704 51 
L 5702 51 
L 5702 -134 
L 704 -134 
L 704 51 
z
" transform="scale(0.015625)"/>
        <path id="NotoSansSC-Thin-43" d="M 2317 -83 
Q 1888 -83 1536 86 
Q 1184 256 928 576 
Q 672 896 534 1341 
Q 397 1786 397 2336 
Q 397 2886 537 3328 
Q 678 3770 934 4083 
Q 1190 4397 1552 4563 
Q 1914 4730 2355 4730 
Q 2758 4730 3059 4560 
Q 3360 4390 3539 4179 
L 3392 4019 
Q 3206 4237 2944 4371 
Q 2682 4506 2355 4506 
Q 1824 4506 1440 4240 
Q 1056 3974 851 3488 
Q 646 3002 646 2336 
Q 646 1670 851 1177 
Q 1056 685 1433 413 
Q 1811 141 2330 141 
Q 2694 141 2982 288 
Q 3270 435 3533 730 
L 3680 576 
Q 3418 269 3094 93 
Q 2771 -83 2317 -83 
z
" transform="scale(0.015625)"/>
        <path id="NotoSansSC-Thin-41" d="M 70 0 
L 1728 4646 
L 1939 4646 
L 3603 0 
L 3347 0 
L 2381 2784 
Q 2234 3206 2106 3587 
Q 1978 3968 1850 4403 
L 1824 4403 
Q 1696 3968 1565 3587 
Q 1434 3206 1286 2784 
L 307 0 
L 70 0 
z
M 787 1651 
L 787 1856 
L 2861 1856 
L 2861 1651 
L 787 1651 
z
" transform="scale(0.015625)"/>
       </defs>
       <use xlink:href="#NotoSansSC-Thin-6cd5"/>
       <use xlink:href="#NotoSansSC-Thin-56fd" transform="translate(99.999985 0)"/>
       <use xlink:href="#NotoSansSC-Thin-43" transform="translate(199.999969 0)"/>
       <use xlink:href="#NotoSansSC-Thin-41" transform="translate(261.899963 0)"/>
       <use xlink:href="#NotoSansSC-Thin-43" transform="translate(319.299957 0)"/>
      </g>
     </g>
    </g>
    <g id="ytick_6">
     <g id="line2d_20">
      <g>
       <use xlink:href="#ma8af8ae8a7" x="56.906406" y="84.980735" style="fill: #64748b; stroke: #64748b; stroke-width: 0.8"/>
      </g>
     </g>
     <g id="text_14">
      <!-- 德国DAX -->
      <g style="fill: #64748b" transform="translate(16.119844 88.554016) scale(0.09 -0.09)">
       <defs>
        <path id="NotoSansSC-Thin-5fb7" d="M 2048 4717 
L 6061 4717 
L 6061 4531 
L 2048 4531 
L 2048 4717 
z
M 2003 1901 
L 6099 1901 
L 6099 1715 
L 2003 1715 
L 2003 1901 
z
M 3642 1491 
L 3789 1562 
Q 3936 1363 4093 1123 
Q 4250 883 4333 730 
L 4179 634 
Q 4096 800 3942 1046 
Q 3789 1293 3642 1491 
z
M 3021 1133 
L 3206 1133 
L 3206 -19 
Q 3206 -109 3267 -141 
Q 3328 -173 3546 -173 
Q 3597 -173 3741 -173 
Q 3885 -173 4064 -173 
Q 4243 -173 4400 -173 
Q 4557 -173 4627 -173 
Q 4749 -173 4809 -131 
Q 4870 -90 4896 57 
Q 4922 205 4928 506 
Q 4966 480 5017 461 
Q 5069 442 5114 429 
Q 5101 109 5062 -64 
Q 5024 -237 4928 -301 
Q 4832 -365 4646 -365 
Q 4614 -365 4457 -365 
Q 4301 -365 4102 -365 
Q 3904 -365 3747 -365 
Q 3590 -365 3552 -365 
Q 3347 -365 3228 -339 
Q 3110 -314 3065 -240 
Q 3021 -166 3021 -19 
L 3021 1133 
z
M 2438 1069 
L 2611 998 
Q 2496 710 2339 368 
Q 2182 26 1978 -218 
L 1798 -128 
Q 1939 26 2060 234 
Q 2182 442 2278 662 
Q 2374 883 2438 1069 
z
M 5254 1114 
L 5427 1165 
Q 5542 966 5664 736 
Q 5786 506 5891 291 
Q 5997 77 6061 -77 
L 5882 -154 
Q 5818 6 5715 227 
Q 5613 448 5494 681 
Q 5376 915 5254 1114 
z
M 4678 3744 
L 4678 2630 
L 5587 2630 
L 5587 3744 
L 4678 3744 
z
M 3603 3744 
L 3603 2630 
L 4493 2630 
L 4493 3744 
L 3603 3744 
z
M 2560 3744 
L 2560 2630 
L 3411 2630 
L 3411 3744 
L 2560 3744 
z
M 2374 3936 
L 5779 3936 
L 5779 2438 
L 2374 2438 
L 2374 3936 
z
M 3962 5338 
L 4160 5306 
Q 4122 5075 4074 4809 
Q 4026 4544 3974 4291 
Q 3923 4038 3872 3853 
L 3699 3891 
Q 3750 4077 3798 4336 
Q 3846 4595 3891 4860 
Q 3936 5126 3962 5338 
z
M 1824 3942 
L 2010 3878 
Q 1792 3501 1523 3123 
Q 1254 2746 969 2410 
Q 685 2074 403 1805 
Q 390 1824 361 1849 
Q 333 1875 301 1900 
Q 269 1926 243 1946 
Q 531 2202 819 2525 
Q 1107 2848 1366 3213 
Q 1626 3578 1824 3942 
z
M 1696 5312 
L 1882 5235 
Q 1690 4998 1443 4739 
Q 1197 4480 928 4237 
Q 659 3994 410 3802 
Q 397 3821 374 3846 
Q 352 3872 326 3897 
Q 301 3923 275 3936 
Q 525 4122 790 4355 
Q 1056 4589 1296 4838 
Q 1536 5088 1696 5312 
z
M 1242 2938 
L 1338 3034 
L 1434 3002 
L 1434 -448 
L 1242 -448 
L 1242 2938 
z
" transform="scale(0.015625)"/>
        <path id="NotoSansSC-Thin-44" d="M 704 0 
L 704 4646 
L 1747 4646 
Q 2470 4646 2931 4358 
Q 3392 4070 3613 3552 
Q 3834 3034 3834 2336 
Q 3834 1645 3613 1117 
Q 3392 589 2931 294 
Q 2470 0 1754 0 
L 704 0 
z
M 941 211 
L 1715 211 
Q 2374 211 2787 486 
Q 3200 762 3392 1245 
Q 3584 1728 3584 2336 
Q 3584 2950 3392 3424 
Q 3200 3898 2787 4166 
Q 2374 4435 1715 4435 
L 941 4435 
L 941 211 
z
" transform="scale(0.015625)"/>
        <path id="NotoSansSC-Thin-58" d="M 128 0 
L 1536 2406 
L 224 4646 
L 486 4646 
L 1286 3226 
Q 1382 3066 1465 2928 
Q 1549 2790 1670 2598 
L 1696 2598 
Q 1805 2790 1878 2928 
Q 1952 3066 2048 3226 
L 2861 4646 
L 3104 4646 
L 1792 2394 
L 3200 0 
L 2944 0 
L 2093 1485 
Q 1997 1651 1888 1830 
Q 1779 2010 1651 2221 
L 1626 2221 
Q 1510 2010 1411 1830 
Q 1312 1651 1216 1485 
L 371 0 
L 128 0 
z
" transform="scale(0.015625)"/>
       </defs>
       <use xlink:href="#NotoSansSC-Thin-5fb7"/>
       <use xlink:href="#NotoSansSC-Thin-56fd" transform="translate(99.999985 0)"/>
       <use xlink:href="#NotoSansSC-Thin-44" transform="translate(199.999969 0)"/>
       <use xlink:href="#NotoSansSC-Thin-41" transform="translate(266.09996 0)"/>
       <use xlink:href="#NotoSansSC-Thin-58" transform="translate(323.499954 0)"/>
      </g>
     </g>
    </g>
    <g id="ytick_7">
     <g id="line2d_21">
      <g>
       <use xlink:href="#ma8af8ae8a7" x="56.906406" y="62.232683" style="fill: #64748b; stroke: #64748b; stroke-width: 0.8"/>
      </g>
     </g>
     <g id="text_15">
      <!-- 日经225 -->
      <g style="fill: #64748b" transform="translate(17.841094 65.805964) scale(0.09 -0.09)">
       <defs>
        <path id="NotoSansSC-Thin-65e5" d="M 1274 4832 
L 5197 4832 
L 5197 -333 
L 5005 -333 
L 5005 4640 
L 1466 4640 
L 1466 -384 
L 1274 -384 
L 1274 4832 
z
M 1389 2547 
L 5088 2547 
L 5088 2362 
L 1389 2362 
L 1389 2547 
z
M 1376 218 
L 5107 218 
L 5107 32 
L 1376 32 
L 1376 218 
z
" transform="scale(0.015625)"/>
        <path id="NotoSansSC-Thin-7ecf" d="M 416 1248 
Q 410 1274 397 1312 
Q 384 1350 371 1392 
Q 358 1434 346 1459 
Q 435 1472 553 1590 
Q 672 1709 826 1888 
Q 909 1978 1072 2179 
Q 1235 2381 1443 2662 
Q 1651 2944 1865 3267 
Q 2080 3590 2266 3923 
L 2445 3827 
Q 2016 3136 1542 2496 
Q 1069 1856 595 1382 
L 595 1376 
Q 595 1376 569 1366 
Q 544 1357 505 1337 
Q 467 1318 441 1296 
Q 416 1274 416 1248 
z
M 416 1248 
L 416 1434 
L 563 1536 
L 2381 1882 
Q 2381 1843 2384 1792 
Q 2387 1741 2394 1709 
Q 1760 1574 1382 1494 
Q 1005 1414 809 1369 
Q 614 1325 534 1299 
Q 454 1274 416 1248 
z
M 378 2765 
Q 371 2790 358 2832 
Q 346 2874 333 2915 
Q 320 2957 307 2982 
Q 384 2995 477 3107 
Q 570 3219 672 3392 
Q 730 3475 851 3667 
Q 973 3859 1117 4121 
Q 1261 4384 1411 4685 
Q 1562 4986 1677 5286 
L 1869 5210 
Q 1677 4787 1462 4371 
Q 1248 3955 1021 3580 
Q 794 3206 557 2906 
L 557 2899 
Q 557 2899 531 2886 
Q 506 2874 467 2854 
Q 429 2835 403 2812 
Q 378 2790 378 2765 
z
M 378 2765 
L 378 2944 
L 531 3034 
L 1882 3206 
Q 1875 3162 1878 3114 
Q 1882 3066 1882 3034 
Q 1408 2963 1123 2918 
Q 838 2874 688 2845 
Q 538 2816 474 2800 
Q 410 2784 378 2765 
z
M 314 243 
Q 582 301 921 381 
Q 1261 461 1645 553 
Q 2029 646 2426 742 
L 2438 557 
Q 1875 422 1324 291 
Q 774 160 358 51 
L 314 243 
z
M 2714 4947 
L 5370 4947 
L 5370 4762 
L 2714 4762 
L 2714 4947 
z
M 5286 4947 
L 5331 4947 
L 5376 4960 
L 5517 4883 
Q 5286 4454 4934 4086 
Q 4582 3718 4160 3408 
Q 3738 3098 3290 2858 
Q 2842 2618 2419 2451 
Q 2406 2477 2380 2502 
Q 2355 2528 2332 2553 
Q 2310 2579 2285 2598 
Q 2701 2752 3139 2985 
Q 3578 3219 3987 3516 
Q 4397 3814 4736 4163 
Q 5075 4512 5286 4902 
L 5286 4947 
z
M 2368 -58 
L 6099 -58 
L 6099 -243 
L 2368 -243 
L 2368 -58 
z
M 4141 1971 
L 4326 1971 
L 4326 -173 
L 4141 -173 
L 4141 1971 
z
M 2758 2093 
L 5818 2093 
L 5818 1901 
L 2758 1901 
L 2758 2093 
z
M 4102 3443 
L 4205 3584 
Q 4538 3456 4893 3293 
Q 5248 3130 5565 2966 
Q 5882 2803 6093 2669 
L 5990 2496 
Q 5779 2637 5462 2806 
Q 5146 2976 4790 3145 
Q 4435 3315 4102 3443 
z
" transform="scale(0.015625)"/>
       </defs>
       <use xlink:href="#NotoSansSC-Thin-65e5"/>
       <use xlink:href="#NotoSansSC-Thin-7ecf" transform="translate(99.999985 0)"/>
       <use xlink:href="#NotoSansSC-Thin-32" transform="translate(199.999969 0)"/>
       <use xlink:href="#NotoSansSC-Thin-32" transform="translate(252.09996 0)"/>
       <use xlink:href="#NotoSansSC-Thin-35" transform="translate(304.199951 0)"/>
      </g>
     </g>
    </g>
    <g id="ytick_8">
     <g id="line2d_22">
      <g>
       <use xlink:href="#ma8af8ae8a7" x="56.906406" y="39.484631" style="fill: #64748b; stroke: #64748b; stroke-width: 0.8"/>
      </g>
     </g>
     <g id="text_16">
      <!-- 韩国KOSPI -->
      <g style="fill: #64748b" transform="translate(7.2 43.057912) scale(0.09 -0.09)">
       <defs>
        <path id="NotoSansSC-Thin-97e9" d="M 3008 4403 
L 5971 4403 
L 5971 4218 
L 3008 4218 
L 3008 4403 
z
M 3149 3245 
L 5722 3245 
L 5722 3053 
L 3149 3053 
L 3149 3245 
z
M 5869 2074 
L 6061 2074 
Q 6061 2074 6061 2029 
Q 6061 1984 6054 1952 
Q 6022 1382 5984 1040 
Q 5946 698 5901 522 
Q 5856 346 5792 275 
Q 5741 224 5677 201 
Q 5613 179 5504 173 
Q 5421 173 5277 176 
Q 5133 179 4966 192 
Q 4960 224 4947 278 
Q 4934 333 4915 371 
Q 5101 352 5254 349 
Q 5408 346 5472 346 
Q 5530 346 5571 355 
Q 5613 365 5638 397 
Q 5690 454 5731 627 
Q 5773 800 5808 1136 
Q 5843 1472 5869 2029 
L 5869 2074 
z
M 2970 2074 
L 5933 2074 
L 5933 1882 
L 2970 1882 
L 2970 2074 
z
M 4339 5318 
L 4531 5318 
L 4531 -435 
L 4339 -435 
L 4339 5318 
z
M 1498 5331 
L 1690 5331 
L 1690 3584 
L 1498 3584 
L 1498 5331 
z
M 1498 1850 
L 1690 1850 
L 1690 -493 
L 1498 -493 
L 1498 1850 
z
M 762 2624 
L 762 1952 
L 2445 1952 
L 2445 2624 
L 762 2624 
z
M 762 3469 
L 762 2810 
L 2445 2810 
L 2445 3469 
L 762 3469 
z
M 570 3661 
L 2637 3661 
L 2637 1766 
L 570 1766 
L 570 3661 
z
M 358 4563 
L 2790 4563 
L 2790 4371 
L 358 4371 
L 358 4563 
z
M 294 1018 
L 2867 1018 
L 2867 832 
L 294 832 
L 294 1018 
z
" transform="scale(0.015625)"/>
        <path id="NotoSansSC-Thin-4b" d="M 704 0 
L 704 4646 
L 941 4646 
L 941 1984 
L 954 1984 
L 3302 4646 
L 3603 4646 
L 2112 2944 
L 3802 0 
L 3520 0 
L 1933 2758 
L 941 1638 
L 941 0 
L 704 0 
z
" transform="scale(0.015625)"/>
        <path id="NotoSansSC-Thin-4f" d="M 2285 -83 
Q 1734 -83 1308 217 
Q 883 518 640 1062 
Q 397 1606 397 2336 
Q 397 3072 640 3606 
Q 883 4141 1308 4435 
Q 1734 4730 2285 4730 
Q 2835 4730 3260 4435 
Q 3686 4141 3929 3606 
Q 4173 3072 4173 2336 
Q 4173 1606 3929 1062 
Q 3686 518 3260 217 
Q 2835 -83 2285 -83 
z
M 2285 141 
Q 2778 141 3146 413 
Q 3514 685 3718 1177 
Q 3923 1670 3923 2336 
Q 3923 3002 3718 3488 
Q 3514 3974 3146 4240 
Q 2778 4506 2285 4506 
Q 1798 4506 1427 4240 
Q 1056 3974 851 3488 
Q 646 3002 646 2336 
Q 646 1670 851 1177 
Q 1056 685 1427 413 
Q 1798 141 2285 141 
z
" transform="scale(0.015625)"/>
        <path id="NotoSansSC-Thin-53" d="M 1888 -83 
Q 1376 -83 989 115 
Q 602 314 339 621 
L 499 787 
Q 755 493 1113 317 
Q 1472 141 1888 141 
Q 2445 141 2774 416 
Q 3104 691 3104 1126 
Q 3104 1440 2985 1625 
Q 2867 1811 2675 1929 
Q 2483 2048 2246 2150 
L 1536 2470 
Q 1338 2560 1117 2694 
Q 896 2829 742 3049 
Q 589 3270 589 3610 
Q 589 3949 761 4198 
Q 934 4448 1232 4589 
Q 1530 4730 1907 4730 
Q 2330 4730 2653 4566 
Q 2976 4403 3174 4179 
L 3027 4019 
Q 2829 4237 2547 4371 
Q 2266 4506 1907 4506 
Q 1421 4506 1126 4269 
Q 832 4032 832 3635 
Q 832 3347 966 3164 
Q 1101 2982 1293 2876 
Q 1485 2771 1645 2694 
L 2355 2374 
Q 2618 2259 2842 2108 
Q 3066 1958 3203 1731 
Q 3341 1504 3341 1146 
Q 3341 794 3161 515 
Q 2982 237 2656 77 
Q 2330 -83 1888 -83 
z
" transform="scale(0.015625)"/>
        <path id="NotoSansSC-Thin-50" d="M 704 0 
L 704 4646 
L 1824 4646 
Q 2355 4646 2726 4521 
Q 3098 4397 3293 4121 
Q 3488 3846 3488 3379 
Q 3488 2931 3296 2636 
Q 3104 2342 2739 2195 
Q 2374 2048 1850 2048 
L 941 2048 
L 941 0 
L 704 0 
z
M 941 2259 
L 1766 2259 
Q 2509 2259 2870 2518 
Q 3232 2778 3232 3379 
Q 3232 3987 2864 4211 
Q 2496 4435 1741 4435 
L 941 4435 
L 941 2259 
z
" transform="scale(0.015625)"/>
        <path id="NotoSansSC-Thin-49" d="M 704 0 
L 704 4646 
L 941 4646 
L 941 0 
L 704 0 
z
" transform="scale(0.015625)"/>
       </defs>
       <use xlink:href="#NotoSansSC-Thin-97e9"/>
       <use xlink:href="#NotoSansSC-Thin-56fd" transform="translate(99.999985 0)"/>
       <use xlink:href="#NotoSansSC-Thin-4b" transform="translate(199.999969 0)"/>
       <use xlink:href="#NotoSansSC-Thin-4f" transform="translate(260.699966 0)"/>
       <use xlink:href="#NotoSansSC-Thin-53" transform="translate(332.09996 0)"/>
       <use xlink:href="#NotoSansSC-Thin-50" transform="translate(388.999954 0)"/>
       <use xlink:href="#NotoSansSC-Thin-49" transform="translate(448.799942 0)"/>
      </g>
     </g>
    </g>
   </g>
   <g id="line2d_23">
    <path d="M 218.958701 206.682813 
L 218.958701 31.522812 
" clip-path="url(#p1a099b818c)" style="fill: none; stroke: #1e293b; stroke-width: 0.8; stroke-linecap: square"/>
   </g>
   <g id="line2d_24">
    <path d="M 218.958701 198.720994 
L 212.819345 198.720994 
" clip-path="url(#p1a099b818c)" style="fill: none; stroke: #16a34a; stroke-opacity: 0.6197; stroke-width: 1.5; stroke-linecap: square"/>
   </g>
   <g id="line2d_25">
    <path d="M 218.958701 175.972942 
L 214.420916 175.972942 
" clip-path="url(#p1a099b818c)" style="fill: none; stroke: #16a34a; stroke-opacity: 0.614561; stroke-width: 1.5; stroke-linecap: square"/>
   </g>
   <g id="line2d_26">
    <path d="M 218.958701 153.22489 
L 235.241339 153.22489 
" clip-path="url(#p1a099b818c)" style="fill: none; stroke: #dc2626; stroke-opacity: 0.652248; stroke-width: 1.5; stroke-linecap: square"/>
   </g>
   <g id="line2d_27">
    <path d="M 218.958701 130.476838 
L 250.723193 130.476838 
" clip-path="url(#p1a099b818c)" style="fill: none; stroke: #dc2626; stroke-opacity: 0.701927; stroke-width: 1.5; stroke-linecap: square"/>
   </g>
   <g id="line2d_28">
    <path d="M 218.958701 107.728787 
L 265.938117 107.728787 
" clip-path="url(#p1a099b818c)" style="fill: none; stroke: #dc2626; stroke-opacity: 0.750749; stroke-width: 1.5; stroke-linecap: square"/>
   </g>
   <g id="line2d_29">
    <path d="M 218.958701 84.980735 
L 272.61133 84.980735 
" clip-path="url(#p1a099b818c)" style="fill: none; stroke: #dc2626; stroke-opacity: 0.772163; stroke-width: 1.5; stroke-linecap: square"/>
   </g>
   <g id="line2d_30">
    <path d="M 218.958701 62.232683 
L 277.682972 62.232683 
" clip-path="url(#p1a099b818c)" style="fill: none; stroke: #dc2626; stroke-opacity: 0.788437; stroke-width: 1.5; stroke-linecap: square"/>
   </g>
   <g id="line2d_31">
    <path d="M 218.958701 39.484631 
L 343.614312 39.484631 
" clip-path="url(#p1a099b818c)" style="fill: none; stroke: #dc2626; stroke-width: 1.5; stroke-linecap: square"/>
   </g>
   <g id="patch_3">
    <path d="M 56.906406 206.682812 
L 56.906406 31.522812 
" style="fill: none; stroke: #e2e8f0; stroke-width: 0.5; stroke-linejoin: miter; stroke-linecap: square"/>
   </g>
   <g id="patch_4">
    <path d="M 56.906406 206.682813 
L 381.010995 206.682813 
" style="fill: none; stroke: #e2e8f0; stroke-width: 0.5; stroke-linejoin: miter; stroke-linecap: square"/>
   </g>
   <g id="line2d_32">
    <defs>
     <path id="mc1d27ba919" d="M 0 4 
C 1.060812 4 2.078319 3.578535 2.828427 2.828427 
C 3.578535 2.078319 4 1.060812 4 0 
C 4 -1.060812 3.578535 -2.078319 2.828427 -2.828427 
C 2.078319 -3.578535 1.060812 -4 0 -4 
C -1.060812 -4 -2.078319 -3.578535 -2.828427 -2.828427 
C -3.578535 -2.078319 -4 -1.060812 -4 0 
C -4 1.060812 -3.578535 2.078319 -2.828427 2.828427 
C -2.078319 3.578535 -1.060812 4 0 4 
z
" style="stroke: #ffffff; stroke-width: 1.5"/>
    </defs>
    <g clip-path="url(#p1a099b818c)">
     <use xlink:href="#mc1d27ba919" x="212.819345" y="198.720994" style="fill: #16a34a; stroke: #ffffff; stroke-width: 1.5"/>
    </g>
   </g>
   <g id="text_17">
    <!-- +-0.23% -->
    <g style="fill: #16a34a" transform="translate(178.657483 201.200916) scale(0.09 -0.09)">
     <defs>
      <path id="NotoSansSC-Thin-2b" d="M 1549 787 
L 1549 2221 
L 237 2221 
L 237 2426 
L 1549 2426 
L 1549 3866 
L 1786 3866 
L 1786 2426 
L 3098 2426 
L 3098 2221 
L 1786 2221 
L 1786 787 
L 1549 787 
z
" transform="scale(0.015625)"/>
      <path id="NotoSansSC-Thin-2e" d="M 736 -83 
Q 640 -83 560 -9 
Q 480 64 480 192 
Q 480 333 560 406 
Q 640 480 736 480 
Q 838 480 918 406 
Q 998 333 998 192 
Q 998 64 918 -9 
Q 838 -83 736 -83 
z
" transform="scale(0.015625)"/>
      <path id="NotoSansSC-Thin-33" d="M 1619 -83 
Q 1261 -83 998 13 
Q 736 109 544 256 
Q 352 403 211 550 
L 358 717 
Q 563 499 857 313 
Q 1152 128 1632 128 
Q 1952 128 2198 262 
Q 2445 397 2585 640 
Q 2726 883 2726 1210 
Q 2726 1542 2560 1795 
Q 2394 2048 2038 2189 
Q 1683 2330 1114 2330 
L 1114 2554 
Q 1651 2554 1964 2698 
Q 2278 2842 2416 3088 
Q 2554 3334 2554 3629 
Q 2554 4026 2298 4272 
Q 2042 4518 1606 4518 
Q 1293 4518 1017 4374 
Q 742 4230 557 4026 
L 410 4192 
Q 634 4410 925 4570 
Q 1216 4730 1606 4730 
Q 1939 4730 2211 4598 
Q 2483 4467 2643 4224 
Q 2803 3981 2803 3642 
Q 2803 3168 2550 2877 
Q 2298 2586 1926 2464 
L 1926 2438 
Q 2208 2381 2445 2221 
Q 2682 2061 2826 1808 
Q 2970 1555 2970 1222 
Q 2970 826 2790 531 
Q 2611 237 2307 77 
Q 2003 -83 1619 -83 
z
" transform="scale(0.015625)"/>
     </defs>
     <use xlink:href="#NotoSansSC-Thin-2b"/>
     <use xlink:href="#NotoSansSC-Thin-2d" transform="translate(52.099991 0)"/>
     <use xlink:href="#NotoSansSC-Thin-30" transform="translate(84.499985 0)"/>
     <use xlink:href="#NotoSansSC-Thin-2e" transform="translate(136.599976 0)"/>
     <use xlink:href="#NotoSansSC-Thin-32" transform="translate(159.699966 0)"/>
     <use xlink:href="#NotoSansSC-Thin-33" transform="translate(211.799957 0)"/>
     <use xlink:href="#NotoSansSC-Thin-25" transform="translate(263.899948 0)"/>
    </g>
   </g>
   <g id="line2d_33">
    <g clip-path="url(#p1a099b818c)">
     <use xlink:href="#mc1d27ba919" x="214.420916" y="175.972942" style="fill: #16a34a; stroke: #ffffff; stroke-width: 1.5"/>
    </g>
   </g>
   <g id="text_18">
    <!-- +-0.17% -->
    <g style="fill: #16a34a" transform="translate(180.259054 178.452864) scale(0.09 -0.09)">
     <defs>
      <path id="NotoSansSC-Thin-31" d="M 608 0 
L 608 211 
L 1677 211 
L 1677 4211 
L 864 4211 
L 864 4378 
Q 1133 4422 1344 4492 
Q 1555 4563 1702 4646 
L 1901 4646 
L 1901 211 
L 2899 211 
L 2899 0 
L 608 0 
z
" transform="scale(0.015625)"/>
      <path id="NotoSansSC-Thin-37" d="M 1344 0 
Q 1376 717 1462 1318 
Q 1549 1920 1712 2445 
Q 1875 2970 2124 3459 
Q 2374 3949 2726 4435 
L 307 4435 
L 307 4646 
L 3034 4646 
L 3034 4512 
Q 2624 3955 2355 3436 
Q 2086 2918 1932 2384 
Q 1779 1850 1705 1267 
Q 1632 685 1606 0 
L 1344 0 
z
" transform="scale(0.015625)"/>
     </defs>
     <use xlink:href="#NotoSansSC-Thin-2b"/>
     <use xlink:href="#NotoSansSC-Thin-2d" transform="translate(52.099991 0)"/>
     <use xlink:href="#NotoSansSC-Thin-30" transform="translate(84.499985 0)"/>
     <use xlink:href="#NotoSansSC-Thin-2e" transform="translate(136.599976 0)"/>
     <use xlink:href="#NotoSansSC-Thin-31" transform="translate(159.699966 0)"/>
     <use xlink:href="#NotoSansSC-Thin-37" transform="translate(211.799957 0)"/>
     <use xlink:href="#NotoSansSC-Thin-25" transform="translate(263.899948 0)"/>
    </g>
   </g>
   <g id="line2d_34">
    <defs>
     <path id="mba7dc61cd5" d="M 0 4 
C 1.060812 4 2.078319 3.578535 2.828427 2.828427 
C 3.578535 2.078319 4 1.060812 4 0 
C 4 -1.060812 3.578535 -2.078319 2.828427 -2.828427 
C 2.078319 -3.578535 1.060812 -4 0 -4 
C -1.060812 -4 -2.078319 -3.578535 -2.828427 -2.828427 
C -3.578535 -2.078319 -4 -1.060812 -4 0 
C -4 1.060812 -3.578535 2.078319 -2.828427 2.828427 
C -2.078319 3.578535 -1.060812 4 0 4 
z
" style="stroke: #ffffff; stroke-width: 1.5"/>
    </defs>
    <g clip-path="url(#p1a099b818c)">
     <use xlink:href="#mba7dc61cd5" x="235.241339" y="153.22489" style="fill: #dc2626; stroke: #ffffff; stroke-width: 1.5"/>
    </g>
   </g>
   <g id="text_19">
    <!-- +0.61% -->
    <g style="fill: #dc2626" transform="translate(237.734452 155.704812) scale(0.09 -0.09)">
     <use xlink:href="#NotoSansSC-Thin-2b"/>
     <use xlink:href="#NotoSansSC-Thin-30" transform="translate(52.099991 0)"/>
     <use xlink:href="#NotoSansSC-Thin-2e" transform="translate(104.199982 0)"/>
     <use xlink:href="#NotoSansSC-Thin-36" transform="translate(127.299973 0)"/>
     <use xlink:href="#NotoSansSC-Thin-31" transform="translate(179.399963 0)"/>
     <use xlink:href="#NotoSansSC-Thin-25" transform="translate(231.499954 0)"/>
    </g>
   </g>
   <g id="line2d_35">
    <g clip-path="url(#p1a099b818c)">
     <use xlink:href="#mba7dc61cd5" x="250.723193" y="130.476838" style="fill: #dc2626; stroke: #ffffff; stroke-width: 1.5"/>
    </g>
   </g>
   <g id="text_20">
    <!-- +1.19% -->
    <g style="fill: #dc2626" transform="translate(253.216305 132.95676) scale(0.09 -0.09)">
     <defs>
      <path id="NotoSansSC-Thin-39" d="M 1370 -83 
Q 1050 -83 819 32 
Q 589 147 410 339 
L 557 506 
Q 723 314 934 221 
Q 1146 128 1389 128 
Q 1651 128 1891 256 
Q 2131 384 2316 675 
Q 2502 966 2611 1443 
Q 2720 1920 2720 2618 
Q 2720 3168 2592 3600 
Q 2464 4032 2195 4278 
Q 1926 4525 1498 4525 
Q 1229 4525 1014 4355 
Q 800 4186 675 3901 
Q 550 3616 550 3264 
Q 550 2912 652 2627 
Q 755 2342 979 2172 
Q 1203 2003 1555 2003 
Q 1830 2003 2137 2182 
Q 2445 2362 2739 2765 
L 2746 2470 
Q 2586 2278 2397 2128 
Q 2208 1978 1993 1891 
Q 1779 1805 1536 1805 
Q 1152 1805 877 1974 
Q 602 2144 454 2470 
Q 307 2797 307 3264 
Q 307 3686 473 4019 
Q 640 4352 912 4541 
Q 1184 4730 1510 4730 
Q 1850 4730 2118 4589 
Q 2387 4448 2572 4176 
Q 2758 3904 2857 3513 
Q 2957 3123 2957 2618 
Q 2957 1862 2825 1344 
Q 2694 826 2470 512 
Q 2246 198 1961 57 
Q 1677 -83 1370 -83 
z
" transform="scale(0.015625)"/>
     </defs>
     <use xlink:href="#NotoSansSC-Thin-2b"/>
     <use xlink:href="#NotoSansSC-Thin-31" transform="translate(52.099991 0)"/>
     <use xlink:href="#NotoSansSC-Thin-2e" transform="translate(104.199982 0)"/>
     <use xlink:href="#NotoSansSC-Thin-31" transform="translate(127.299973 0)"/>
     <use xlink:href="#NotoSansSC-Thin-39" transform="translate(179.399963 0)"/>
     <use xlink:href="#NotoSansSC-Thin-25" transform="translate(231.499954 0)"/>
    </g>
   </g>
   <g id="line2d_36">
    <g clip-path="url(#p1a099b818c)">
     <use xlink:href="#mba7dc61cd5" x="265.938117" y="107.728787" style="fill: #dc2626; stroke: #ffffff; stroke-width: 1.5"/>
    </g>
   </g>
   <g id="text_21">
    <!-- +1.76% -->
    <g style="fill: #dc2626" transform="translate(268.43123 110.208708) scale(0.09 -0.09)">
     <use xlink:href="#NotoSansSC-Thin-2b"/>
     <use xlink:href="#NotoSansSC-Thin-31" transform="translate(52.099991 0)"/>
     <use xlink:href="#NotoSansSC-Thin-2e" transform="translate(104.199982 0)"/>
     <use xlink:href="#NotoSansSC-Thin-37" transform="translate(127.299973 0)"/>
     <use xlink:href="#NotoSansSC-Thin-36" transform="translate(179.399963 0)"/>
     <use xlink:href="#NotoSansSC-Thin-25" transform="translate(231.499954 0)"/>
    </g>
   </g>
   <g id="line2d_37">
    <g clip-path="url(#p1a099b818c)">
     <use xlink:href="#mba7dc61cd5" x="272.61133" y="84.980735" style="fill: #dc2626; stroke: #ffffff; stroke-width: 1.5"/>
    </g>
   </g>
   <g id="text_22">
    <!-- +2.01% -->
    <g style="fill: #dc2626" transform="translate(275.104442 87.460656) scale(0.09 -0.09)">
     <use xlink:href="#NotoSansSC-Thin-2b"/>
     <use xlink:href="#NotoSansSC-Thin-32" transform="translate(52.099991 0)"/>
     <use xlink:href="#NotoSansSC-Thin-2e" transform="translate(104.199982 0)"/>
     <use xlink:href="#NotoSansSC-Thin-30" transform="translate(127.299973 0)"/>
     <use xlink:href="#NotoSansSC-Thin-31" transform="translate(179.399963 0)"/>
     <use xlink:href="#NotoSansSC-Thin-25" transform="translate(231.499954 0)"/>
    </g>
   </g>
   <g id="line2d_38">
    <g clip-path="url(#p1a099b818c)">
     <use xlink:href="#mba7dc61cd5" x="277.682972" y="62.232683" style="fill: #dc2626; stroke: #ffffff; stroke-width: 1.5"/>
    </g>
   </g>
   <g id="text_23">
    <!-- +2.20% -->
    <g style="fill: #dc2626" transform="translate(280.176084 64.712605) scale(0.09 -0.09)">
     <use xlink:href="#NotoSansSC-Thin-2b"/>
     <use xlink:href="#NotoSansSC-Thin-32" transform="translate(52.099991 0)"/>
     <use xlink:href="#NotoSansSC-Thin-2e" transform="translate(104.199982 0)"/>
     <use xlink:href="#NotoSansSC-Thin-32" transform="translate(127.299973 0)"/>
     <use xlink:href="#NotoSansSC-Thin-30" transform="translate(179.399963 0)"/>
     <use xlink:href="#NotoSansSC-Thin-25" transform="translate(231.499954 0)"/>
    </g>
   </g>
   <g id="line2d_39">
    <g clip-path="url(#p1a099b818c)">
     <use xlink:href="#mba7dc61cd5" x="343.614312" y="39.484631" style="fill: #dc2626; stroke: #ffffff; stroke-width: 1.5"/>
    </g>
   </g>
   <g id="text_24">
    <!-- +4.67% -->
    <g style="fill: #dc2626" transform="translate(346.107424 41.964553) scale(0.09 -0.09)">
     <use xlink:href="#NotoSansSC-Thin-2b"/>
     <use xlink:href="#NotoSansSC-Thin-34" transform="translate(52.099991 0)"/>
     <use xlink:href="#NotoSansSC-Thin-2e" transform="translate(104.199982 0)"/>
     <use xlink:href="#NotoSansSC-Thin-36" transform="translate(127.299973 0)"/>
     <use xlink:href="#NotoSansSC-Thin-37" transform="translate(179.399963 0)"/>
     <use xlink:href="#NotoSansSC-Thin-25" transform="translate(231.499954 0)"/>
    </g>
   </g>
   <g id="text_25">
    <!-- 全球主要指数涨跌幅 — 棒棒糖图 -->
    <g style="fill: #1e293b" transform="translate(125.872607 17.522812) scale(0.13 -0.13)">
     <defs>
      <path id="NotoSansSC-Thin-5168" d="M 1267 1466 
L 5229 1466 
L 5229 1274 
L 1267 1274 
L 1267 1466 
z
M 1274 2912 
L 5178 2912 
L 5178 2720 
L 1274 2720 
L 1274 2912 
z
M 486 -64 
L 5933 -64 
L 5933 -250 
L 486 -250 
L 486 -64 
z
M 3104 2854 
L 3296 2854 
L 3296 -166 
L 3104 -166 
L 3104 2854 
z
M 3245 5395 
L 3405 5318 
Q 3072 4794 2589 4278 
Q 2106 3763 1539 3328 
Q 973 2893 378 2592 
Q 352 2624 310 2665 
Q 269 2707 230 2733 
Q 826 3027 1395 3452 
Q 1965 3878 2445 4380 
Q 2925 4883 3245 5395 
z
M 3264 5222 
Q 3878 4435 4630 3830 
Q 5382 3226 6189 2720 
Q 6157 2701 6112 2656 
Q 6067 2611 6042 2573 
Q 5504 2925 4992 3312 
Q 4480 3699 4009 4150 
Q 3539 4602 3104 5139 
L 3264 5222 
z
" transform="scale(0.015625)"/>
      <path id="NotoSansSC-Thin-7403" d="M 2432 4122 
L 6080 4122 
L 6080 3936 
L 2432 3936 
L 2432 4122 
z
M 4096 5312 
L 4288 5312 
L 4288 -109 
Q 4288 -262 4233 -326 
Q 4179 -390 4077 -416 
Q 3974 -442 3756 -448 
Q 3539 -454 3142 -454 
Q 3136 -429 3120 -397 
Q 3104 -365 3091 -329 
Q 3078 -294 3059 -269 
Q 3386 -275 3629 -275 
Q 3872 -275 3949 -269 
Q 4026 -262 4061 -230 
Q 4096 -198 4096 -115 
L 4096 5312 
z
M 2221 307 
Q 2464 531 2777 832 
Q 3091 1133 3443 1478 
Q 3795 1824 4141 2170 
L 4230 2016 
Q 3744 1523 3248 1030 
Q 2752 538 2362 166 
L 2221 307 
z
M 2586 3334 
L 2739 3411 
Q 2906 3219 3059 2995 
Q 3213 2771 3341 2553 
Q 3469 2336 3533 2163 
L 3360 2074 
Q 3302 2246 3177 2464 
Q 3053 2682 2899 2912 
Q 2746 3142 2586 3334 
z
M 5766 3462 
L 5933 3360 
Q 5766 3104 5555 2816 
Q 5344 2528 5129 2259 
Q 4915 1990 4723 1786 
L 4589 1875 
Q 4774 2080 4992 2358 
Q 5210 2637 5418 2931 
Q 5626 3226 5766 3462 
z
M 4710 5101 
L 4845 5210 
Q 5062 5062 5283 4860 
Q 5504 4659 5613 4506 
L 5485 4371 
Q 5363 4538 5148 4742 
Q 4934 4947 4710 5101 
z
M 4275 3840 
Q 4365 3142 4505 2592 
Q 4646 2042 4864 1603 
Q 5082 1165 5408 806 
Q 5734 448 6182 122 
Q 6150 96 6112 57 
Q 6074 19 6048 -26 
Q 5587 307 5260 681 
Q 4934 1056 4707 1510 
Q 4480 1965 4339 2531 
Q 4198 3098 4109 3814 
L 4275 3840 
z
M 358 4819 
L 2253 4819 
L 2253 4627 
L 358 4627 
L 358 4819 
z
M 422 2957 
L 2144 2957 
L 2144 2765 
L 422 2765 
L 422 2957 
z
M 294 486 
Q 550 563 880 665 
Q 1210 768 1587 889 
Q 1965 1011 2349 1133 
L 2374 941 
Q 1830 768 1299 595 
Q 768 422 358 288 
L 294 486 
z
M 1222 4704 
L 1414 4704 
L 1414 704 
L 1222 640 
L 1222 4704 
z
" transform="scale(0.015625)"/>
      <path id="NotoSansSC-Thin-4e3b" d="M 710 3968 
L 5709 3968 
L 5709 3776 
L 710 3776 
L 710 3968 
z
M 960 2074 
L 5485 2074 
L 5485 1882 
L 960 1882 
L 960 2074 
z
M 390 -32 
L 6042 -32 
L 6042 -218 
L 390 -218 
L 390 -32 
z
M 3098 3866 
L 3290 3866 
L 3290 -115 
L 3098 -115 
L 3098 3866 
z
M 2573 5165 
L 2720 5254 
Q 2931 5094 3148 4899 
Q 3366 4704 3552 4512 
Q 3738 4320 3853 4166 
L 3699 4058 
Q 3590 4211 3404 4406 
Q 3219 4602 3001 4803 
Q 2784 5005 2573 5165 
z
" transform="scale(0.015625)"/>
      <path id="NotoSansSC-Thin-8981" d="M 403 1792 
L 5997 1792 
L 5997 1606 
L 403 1606 
L 403 1792 
z
M 499 4986 
L 5920 4986 
L 5920 4800 
L 499 4800 
L 499 4986 
z
M 4608 1734 
L 4774 1658 
Q 4576 1184 4211 825 
Q 3846 467 3308 214 
Q 2771 -38 2060 -195 
Q 1350 -352 474 -422 
Q 461 -384 435 -333 
Q 410 -282 378 -243 
Q 1549 -160 2393 73 
Q 3238 307 3785 716 
Q 4333 1126 4608 1734 
z
M 1280 640 
L 1446 787 
Q 2080 685 2701 560 
Q 3322 435 3898 291 
Q 4474 147 4973 -9 
Q 5472 -166 5862 -320 
L 5664 -467 
Q 5171 -262 4483 -64 
Q 3795 134 2979 313 
Q 2163 493 1280 640 
z
M 2310 4928 
L 2496 4928 
L 2496 2643 
L 2310 2643 
L 2310 4928 
z
M 3846 4928 
L 4032 4928 
L 4032 2643 
L 3846 2643 
L 3846 4928 
z
M 1030 3885 
L 1030 2746 
L 5402 2746 
L 5402 3885 
L 1030 3885 
z
M 845 4070 
L 5587 4070 
L 5587 2560 
L 845 2560 
L 845 4070 
z
M 1280 640 
Q 1504 890 1757 1216 
Q 2010 1542 2240 1891 
Q 2470 2240 2630 2547 
L 2810 2496 
Q 2650 2182 2419 1836 
Q 2189 1491 1945 1177 
Q 1702 864 1504 640 
L 1280 640 
z
" transform="scale(0.015625)"/>
      <path id="NotoSansSC-Thin-2014" d="M 282 1664 
L 282 1862 
L 5350 1862 
L 5350 1664 
L 282 1664 
z
" transform="scale(0.015625)"/>
      <path id="NotoSansSC-Thin-68d2" d="M 442 3866 
L 2253 3866 
L 2253 3674 
L 442 3674 
L 442 3866 
z
M 1318 5318 
L 1504 5318 
L 1504 -435 
L 1318 -435 
L 1318 5318 
z
M 1306 3814 
L 1478 3770 
Q 1408 3392 1296 2979 
Q 1184 2566 1046 2166 
Q 909 1766 755 1420 
Q 602 1075 448 838 
Q 422 870 377 915 
Q 333 960 301 986 
Q 454 1210 604 1536 
Q 755 1862 889 2246 
Q 1024 2630 1133 3033 
Q 1242 3437 1306 3814 
z
M 1472 3443 
Q 1523 3379 1628 3219 
Q 1734 3059 1859 2867 
Q 1984 2675 2089 2512 
Q 2195 2349 2240 2278 
L 2106 2112 
Q 2054 2208 1952 2384 
Q 1850 2560 1731 2755 
Q 1613 2950 1507 3110 
Q 1402 3270 1350 3347 
L 1472 3443 
z
M 2464 4646 
L 5805 4646 
L 5805 4461 
L 2464 4461 
L 2464 4646 
z
M 2298 2957 
L 5971 2957 
L 5971 2765 
L 2298 2765 
L 2298 2957 
z
M 2477 870 
L 5613 870 
L 5613 685 
L 2477 685 
L 2477 870 
z
M 3046 1818 
L 5082 1818 
L 5082 1632 
L 3046 1632 
L 3046 1818 
z
M 2669 3827 
L 5574 3827 
L 5574 3642 
L 2669 3642 
L 2669 3827 
z
M 4006 2509 
L 4198 2509 
L 4198 -454 
L 4006 -454 
L 4006 2509 
z
M 4781 2906 
Q 4915 2637 5126 2381 
Q 5338 2125 5600 1923 
Q 5862 1722 6138 1606 
Q 6099 1581 6060 1533 
Q 6022 1485 5997 1453 
Q 5728 1587 5462 1804 
Q 5197 2022 4976 2291 
Q 4755 2560 4614 2842 
L 4781 2906 
z
M 4211 5318 
L 4403 5286 
Q 4314 4704 4160 4147 
Q 4006 3590 3760 3088 
Q 3514 2586 3149 2163 
Q 2784 1741 2278 1434 
Q 2266 1453 2243 1478 
Q 2221 1504 2198 1529 
Q 2176 1555 2157 1574 
Q 2656 1882 3008 2294 
Q 3360 2707 3600 3196 
Q 3840 3686 3987 4224 
Q 4134 4762 4211 5318 
z
" transform="scale(0.015625)"/>
      <path id="NotoSansSC-Thin-7cd6" d="M 4314 4250 
L 4512 4250 
L 4512 1165 
L 4314 1165 
L 4314 4250 
z
M 2950 2893 
L 5606 2893 
L 5606 2707 
L 2950 2707 
L 2950 2893 
z
M 5594 2893 
L 6112 2893 
L 6112 2707 
L 5594 2707 
L 5594 2893 
z
M 3296 0 
L 5638 0 
L 5638 -186 
L 3296 -186 
L 3296 0 
z
M 2733 4550 
L 6010 4550 
L 6010 4358 
L 2733 4358 
L 2733 4550 
z
M 2624 4550 
L 2810 4550 
L 2810 2963 
Q 2810 2592 2781 2157 
Q 2752 1722 2672 1274 
Q 2592 826 2435 394 
Q 2278 -38 2016 -416 
Q 2003 -397 1974 -374 
Q 1946 -352 1917 -329 
Q 1888 -307 1862 -294 
Q 2118 70 2272 486 
Q 2426 902 2499 1334 
Q 2573 1766 2598 2182 
Q 2624 2598 2624 2963 
L 2624 4550 
z
M 3187 3686 
L 5696 3686 
L 5696 1882 
L 3162 1882 
L 3162 2074 
L 5510 2074 
L 5510 3501 
L 3187 3501 
L 3187 3686 
z
M 3181 1267 
L 5741 1267 
L 5741 -435 
L 5555 -435 
L 5555 1082 
L 3366 1082 
L 3366 -448 
L 3181 -448 
L 3181 1267 
z
M 3923 5229 
L 4090 5306 
Q 4250 5126 4403 4908 
Q 4557 4691 4627 4531 
L 4448 4442 
Q 4371 4608 4220 4829 
Q 4070 5050 3923 5229 
z
M 1267 5306 
L 1459 5306 
L 1459 -448 
L 1267 -448 
L 1267 5306 
z
M 339 3091 
L 2291 3091 
L 2291 2906 
L 339 2906 
L 339 3091 
z
M 1267 3059 
L 1421 3014 
Q 1312 2598 1136 2134 
Q 960 1670 755 1260 
Q 550 851 346 582 
Q 333 608 307 633 
Q 282 659 259 688 
Q 237 717 218 730 
Q 410 979 614 1369 
Q 819 1760 992 2205 
Q 1165 2650 1267 3059 
z
M 1440 2483 
Q 1491 2419 1593 2262 
Q 1696 2106 1821 1923 
Q 1946 1741 2045 1581 
Q 2144 1421 2182 1350 
L 2042 1210 
Q 1997 1306 1901 1475 
Q 1805 1645 1693 1833 
Q 1581 2022 1481 2179 
Q 1382 2336 1325 2406 
L 1440 2483 
z
M 435 4800 
L 602 4838 
Q 742 4525 835 4157 
Q 928 3789 947 3526 
L 762 3482 
Q 755 3661 710 3888 
Q 666 4115 595 4352 
Q 525 4589 435 4800 
z
M 2125 4883 
L 2330 4800 
Q 2259 4589 2172 4342 
Q 2086 4096 2000 3869 
Q 1914 3642 1830 3475 
L 1683 3539 
Q 1760 3712 1843 3949 
Q 1926 4186 2003 4435 
Q 2080 4685 2125 4883 
z
" transform="scale(0.015625)"/>
      <path id="NotoSansSC-Thin-56fe" d="M 614 4998 
L 5786 4998 
L 5786 -448 
L 5594 -448 
L 5594 4813 
L 806 4813 
L 806 -448 
L 614 -448 
L 614 4998 
z
M 704 45 
L 5734 45 
L 5734 -141 
L 704 -141 
L 704 45 
z
M 2509 1856 
L 2605 2010 
Q 2848 1958 3120 1878 
Q 3392 1798 3638 1705 
Q 3885 1613 4045 1530 
L 3955 1363 
Q 3789 1446 3542 1542 
Q 3296 1638 3027 1721 
Q 2758 1805 2509 1856 
z
M 2701 4531 
L 2880 4474 
Q 2701 4173 2461 3894 
Q 2221 3616 1952 3379 
Q 1683 3142 1408 2957 
Q 1395 2976 1363 2998 
Q 1331 3021 1299 3043 
Q 1267 3066 1242 3078 
Q 1664 3341 2057 3721 
Q 2451 4102 2701 4531 
z
M 4429 4026 
L 4474 4026 
L 4512 4038 
L 4627 3962 
Q 4390 3558 4003 3232 
Q 3616 2906 3145 2653 
Q 2675 2400 2179 2221 
Q 1683 2042 1216 1933 
Q 1203 1958 1187 1990 
Q 1171 2022 1152 2051 
Q 1133 2080 1114 2093 
Q 1574 2189 2060 2358 
Q 2547 2528 3004 2768 
Q 3462 3008 3833 3312 
Q 4205 3616 4429 3981 
L 4429 4026 
z
M 2259 3770 
Q 2547 3379 3024 3056 
Q 3501 2733 4083 2502 
Q 4666 2272 5274 2157 
Q 5248 2131 5213 2086 
Q 5178 2042 5158 1997 
Q 4557 2125 3968 2368 
Q 3379 2611 2892 2947 
Q 2406 3283 2106 3693 
L 2259 3770 
z
M 2381 4026 
L 4499 4026 
L 4499 3840 
L 2266 3840 
L 2381 4026 
z
M 1818 1050 
L 1920 1210 
Q 2240 1171 2598 1107 
Q 2957 1043 3309 966 
Q 3661 890 3968 810 
Q 4275 730 4493 653 
L 4397 480 
Q 4102 582 3667 691 
Q 3232 800 2745 899 
Q 2259 998 1818 1050 
z
" transform="scale(0.015625)"/>
     </defs>
     <use xlink:href="#NotoSansSC-Thin-5168"/>
     <use xlink:href="#NotoSansSC-Thin-7403" transform="translate(99.999985 0)"/>
     <use xlink:href="#NotoSansSC-Thin-4e3b" transform="translate(199.999969 0)"/>
     <use xlink:href="#NotoSansSC-Thin-8981" transform="translate(299.999954 0)"/>
     <use xlink:href="#NotoSansSC-Thin-6307" transform="translate(399.999939 0)"/>
     <use xlink:href="#NotoSansSC-Thin-6570" transform="translate(499.999924 0)"/>
     <use xlink:href="#NotoSansSC-Thin-6da8" transform="translate(599.999908 0)"/>
     <use xlink:href="#NotoSansSC-Thin-8dcc" transform="translate(699.999893 0)"/>
     <use xlink:href="#NotoSansSC-Thin-5e45" transform="translate(799.999878 0)"/>
     <use xlink:href="#NotoSansSC-Thin-20" transform="translate(899.999863 0)"/>
     <use xlink:href="#NotoSansSC-Thin-2014" transform="translate(921.999847 0)"/>
     <use xlink:href="#NotoSansSC-Thin-20" transform="translate(1010.099838 0)"/>
     <use xlink:href="#NotoSansSC-Thin-68d2" transform="translate(1032.099823 0)"/>
     <use xlink:href="#NotoSansSC-Thin-68d2" transform="translate(1132.099808 0)"/>
     <use xlink:href="#NotoSansSC-Thin-7cd6" transform="translate(1232.099792 0)"/>
     <use xlink:href="#NotoSansSC-Thin-56fe" transform="translate(1332.099777 0)"/>
    </g>
   </g>
  </g>
 </g>
 <defs>
  <clipPath id="p1a099b818c">
   <rect x="56.906406" y="31.522812" width="324.104589" height="175.16"/>
  </clipPath>
 </defs>
</svg>
