<?xml version="1.0" encoding="utf-8" standalone="no"?>
<!DOCTYPE svg PUBLIC "-//W3C//DTD SVG 1.1//EN"
  "http://www.w3.org/Graphics/SVG/1.1/DTD/svg11.dtd">
<svg xmlns:xlink="http://www.w3.org/1999/xlink" width="424.8pt" height="265.922813pt" viewBox="0 0 424.8 265.922813" xmlns="http://www.w3.org/2000/svg" version="1.1">
 <metadata>
  <rdf:RDF xmlns:dc="http://purl.org/dc/elements/1.1/" xmlns:cc="http://creativecommons.org/ns#" xmlns:rdf="http://www.w3.org/1999/02/22-rdf-syntax-ns#">
   <cc:Work>
    <dc:type rdf:resource="http://purl.org/dc/dcmitype/StillImage"/>
    <dc:date>2026-05-27T13:25:50.084450</dc:date>
    <dc:format>image/svg+xml</dc:format>
    <dc:creator>
     <cc:Agent>
      <dc:title>Matplotlib v3.10.9, https://matplotlib.org/</dc:title>
     </cc:Agent>
    </dc:creator>
   </cc:Work>
  </rdf:RDF>
 </metadata>
 <defs>
  <style type="text/css">*{stroke-linejoin: round; stroke-linecap: butt}</style>
 </defs>
 <g id="figure_1">
  <g id="patch_1">
   <path d="M 0 265.922813 
L 424.8 265.922813 
L 424.8 0 
L 0 0 
z
" style="fill: #f8fafc"/>
  </g>
  <g id="axes_1">
   <g id="patch_2">
    <path d="M 7.2 258.722813 
L 417.6 258.722813 
L 417.6 31.522813 
L 7.2 31.522813 
z
" style="fill: #f8fafc"/>
   </g>
   <g id="matplotlib.axis_1">
    <g id="xtick_1"/>
    <g id="xtick_2"/>
    <g id="xtick_3"/>
    <g id="xtick_4"/>
    <g id="xtick_5"/>
    <g id="xtick_6"/>
    <g id="xtick_7"/>
    <g id="xtick_8"/>
    <g id="xtick_9"/>
   </g>
   <g id="matplotlib.axis_2">
    <g id="ytick_1"/>
    <g id="ytick_2"/>
    <g id="ytick_3"/>
    <g id="ytick_4"/>
    <g id="ytick_5"/>
    <g id="ytick_6"/>
   </g>
   <g id="line2d_1">
    <path d="M 104.914286 143.129131 
L 300.342857 105.647909 
" clip-path="url(#pb7e370f159)" style="fill: none; stroke: #dc2626; stroke-opacity: 0.508462; stroke-width: 1.2; stroke-linecap: square"/>
    <defs>
     <path id="m2c0545d255" d="M 0 3 
C 0.795609 3 1.55874 2.683901 2.12132 2.12132 
C 2.683901 1.55874 3 0.795609 3 0 
C 3 -0.795609 2.683901 -1.55874 2.12132 -2.12132 
C 1.55874 -2.683901 0.795609 -3 0 -3 
C -0.795609 -3 -1.55874 -2.683901 -2.12132 -2.12132 
C -2.683901 -1.55874 -3 -0.795609 -3 0 
C -3 0.795609 -2.683901 1.55874 -2.12132 2.12132 
C -1.55874 2.683901 -0.795609 3 0 3 
z
" style="stroke: #dc2626; stroke-opacity: 0.508462; stroke-width: 1.5"/>
    </defs>
    <g clip-path="url(#pb7e370f159)">
     <use xlink:href="#m2c0545d255" x="104.914286" y="143.129131" style="fill: #ffffff; fill-opacity: 0.508462; stroke: #dc2626; stroke-opacity: 0.508462; stroke-width: 1.5"/>
     <use xlink:href="#m2c0545d255" x="300.342857" y="105.647909" style="fill: #ffffff; fill-opacity: 0.508462; stroke: #dc2626; stroke-opacity: 0.508462; stroke-width: 1.5"/>
    </g>
   </g>
   <g id="line2d_2">
    <path d="M 104.914286 120.002419 
L 300.342857 89.698453 
" clip-path="url(#pb7e370f159)" style="fill: none; stroke: #dc2626; stroke-opacity: 0.487692; stroke-width: 1.2; stroke-linecap: square"/>
    <defs>
     <path id="mff15edc60e" d="M 0 3 
C 0.795609 3 1.55874 2.683901 2.12132 2.12132 
C 2.683901 1.55874 3 0.795609 3 0 
C 3 -0.795609 2.683901 -1.55874 2.12132 -2.12132 
C 1.55874 -2.683901 0.795609 -3 0 -3 
C -0.795609 -3 -1.55874 -2.683901 -2.12132 -2.12132 
C -2.683901 -1.55874 -3 -0.795609 -3 0 
C -3 0.795609 -2.683901 1.55874 -2.12132 2.12132 
C -1.55874 2.683901 -0.795609 3 0 3 
z
" style="stroke: #dc2626; stroke-opacity: 0.487692; stroke-width: 1.5"/>
    </defs>
    <g clip-path="url(#pb7e370f159)">
     <use xlink:href="#mff15edc60e" x="104.914286" y="120.002419" style="fill: #ffffff; fill-opacity: 0.487692; stroke: #dc2626; stroke-opacity: 0.487692; stroke-width: 1.5"/>
     <use xlink:href="#mff15edc60e" x="300.342857" y="89.698453" style="fill: #ffffff; fill-opacity: 0.487692; stroke: #dc2626; stroke-opacity: 0.487692; stroke-width: 1.5"/>
    </g>
   </g>
   <g id="line2d_3">
    <path d="M 104.914286 86.508562 
L 300.342857 145.521549 
" clip-path="url(#pb7e370f159)" style="fill: none; stroke: #16a34a; stroke-opacity: 0.570769; stroke-width: 1.2; stroke-linecap: square"/>
    <defs>
     <path id="m5ff7eff613" d="M 0 3 
C 0.795609 3 1.55874 2.683901 2.12132 2.12132 
C 2.683901 1.55874 3 0.795609 3 0 
C 3 -0.795609 2.683901 -1.55874 2.12132 -2.12132 
C 1.55874 -2.683901 0.795609 -3 0 -3 
C -0.795609 -3 -1.55874 -2.683901 -2.12132 -2.12132 
C -2.683901 -1.55874 -3 -0.795609 -3 0 
C -3 0.795609 -2.683901 1.55874 -2.12132 2.12132 
C -1.55874 2.683901 -0.795609 3 0 3 
z
" style="stroke: #16a34a; stroke-opacity: 0.570769; stroke-width: 1.5"/>
    </defs>
    <g clip-path="url(#pb7e370f159)">
     <use xlink:href="#m5ff7eff613" x="104.914286" y="86.508562" style="fill: #ffffff; fill-opacity: 0.570769; stroke: #16a34a; stroke-opacity: 0.570769; stroke-width: 1.5"/>
     <use xlink:href="#m5ff7eff613" x="300.342857" y="145.521549" style="fill: #ffffff; fill-opacity: 0.570769; stroke: #16a34a; stroke-opacity: 0.570769; stroke-width: 1.5"/>
    </g>
   </g>
   <g id="line2d_4">
    <path d="M 104.914286 248.39554 
L 300.342857 41.850085 
" clip-path="url(#pb7e370f159)" style="fill: none; stroke: #dc2626; stroke-opacity: 0.997692; stroke-width: 2; stroke-linecap: square"/>
    <defs>
     <path id="m1b5bbe9007" d="M 0 3 
C 0.795609 3 1.55874 2.683901 2.12132 2.12132 
C 2.683901 1.55874 3 0.795609 3 0 
C 3 -0.795609 2.683901 -1.55874 2.12132 -2.12132 
C 1.55874 -2.683901 0.795609 -3 0 -3 
C -0.795609 -3 -1.55874 -2.683901 -2.12132 -2.12132 
C -2.683901 -1.55874 -3 -0.795609 -3 0 
C -3 0.795609 -2.683901 1.55874 -2.12132 2.12132 
C -1.55874 2.683901 -0.795609 3 0 3 
z
" style="stroke: #dc2626; stroke-opacity: 0.997692; stroke-width: 1.5"/>
    </defs>
    <g clip-path="url(#pb7e370f159)">
     <use xlink:href="#m1b5bbe9007" x="104.914286" y="248.39554" style="fill: #ffffff; fill-opacity: 0.997692; stroke: #dc2626; stroke-opacity: 0.997692; stroke-width: 1.5"/>
     <use xlink:href="#m1b5bbe9007" x="300.342857" y="41.850085" style="fill: #ffffff; fill-opacity: 0.997692; stroke: #dc2626; stroke-opacity: 0.997692; stroke-width: 1.5"/>
    </g>
   </g>
   <g id="text_1">
    <!-- 上证指数 -0.2 -->
    <g style="fill: #1e293b" transform="translate(48.653839 145.609052) scale(0.09 -0.09)">
     <defs>
      <path id="NotoSansSC-Thin-4e0a" d="M 3002 3091 
L 5600 3091 
L 5600 2906 
L 3002 2906 
L 3002 3091 
z
M 378 32 
L 6029 32 
L 6029 -154 
L 378 -154 
L 378 32 
z
M 2886 5203 
L 3072 5203 
L 3072 -51 
L 2886 -51 
L 2886 5203 
z
" transform="scale(0.015625)"/>
      <path id="NotoSansSC-Thin-8bc1" d="M 4166 4685 
L 4352 4685 
L 4352 -109 
L 4166 -109 
L 4166 4685 
z
M 2861 3264 
L 3046 3264 
L 3046 -122 
L 2861 -122 
L 2861 3264 
z
M 4250 2637 
L 5837 2637 
L 5837 2445 
L 4250 2445 
L 4250 2637 
z
M 2502 4736 
L 5952 4736 
L 5952 4550 
L 2502 4550 
L 2502 4736 
z
M 2227 0 
L 6099 0 
L 6099 -186 
L 2227 -186 
L 2227 0 
z
M 781 4966 
L 922 5082 
Q 1101 4947 1286 4784 
Q 1472 4621 1635 4461 
Q 1798 4301 1894 4173 
L 1754 4032 
Q 1651 4160 1488 4323 
Q 1325 4486 1142 4656 
Q 960 4826 781 4966 
z
M 1248 -205 
L 1242 -6 
L 1350 154 
L 2400 838 
Q 2413 819 2425 793 
Q 2438 768 2451 739 
Q 2464 710 2470 691 
Q 2086 422 1856 262 
Q 1626 102 1504 16 
Q 1382 -70 1331 -118 
Q 1280 -166 1248 -205 
z
M 384 3270 
L 1581 3270 
L 1581 3078 
L 384 3078 
L 384 3270 
z
M 1248 -205 
Q 1235 -179 1209 -150 
Q 1184 -122 1161 -93 
Q 1139 -64 1114 -45 
Q 1158 -13 1235 60 
Q 1312 134 1373 243 
Q 1434 352 1434 493 
L 1434 3270 
L 1619 3270 
L 1619 198 
Q 1619 198 1580 166 
Q 1542 134 1488 86 
Q 1434 38 1379 -19 
Q 1325 -77 1286 -125 
Q 1248 -173 1248 -205 
z
" transform="scale(0.015625)"/>
      <path id="NotoSansSC-Thin-6307" d="M 2867 5274 
L 3053 5274 
L 3053 3373 
Q 3053 3226 3155 3174 
Q 3258 3123 3597 3123 
Q 3661 3123 3830 3123 
Q 4000 3123 4224 3123 
Q 4448 3123 4675 3123 
Q 4902 3123 5088 3123 
Q 5274 3123 5363 3123 
Q 5562 3123 5658 3187 
Q 5754 3251 5792 3440 
Q 5830 3629 5850 4000 
Q 5882 3974 5936 3955 
Q 5990 3936 6035 3923 
Q 6016 3526 5961 3312 
Q 5907 3098 5769 3018 
Q 5632 2938 5363 2938 
Q 5325 2938 5149 2938 
Q 4973 2938 4733 2938 
Q 4493 2938 4253 2938 
Q 4013 2938 3837 2938 
Q 3661 2938 3622 2938 
Q 3334 2938 3168 2970 
Q 3002 3002 2934 3098 
Q 2867 3194 2867 3379 
L 2867 5274 
z
M 5459 4832 
L 5626 4678 
Q 5299 4550 4857 4432 
Q 4416 4314 3933 4208 
Q 3450 4102 2995 4019 
Q 2989 4051 2966 4096 
Q 2944 4141 2918 4179 
Q 3366 4262 3846 4368 
Q 4326 4474 4752 4595 
Q 5178 4717 5459 4832 
z
M 2880 2234 
L 5792 2234 
L 5792 -416 
L 5600 -416 
L 5600 2048 
L 3066 2048 
L 3066 -442 
L 2880 -442 
L 2880 2234 
z
M 2970 1165 
L 5683 1165 
L 5683 979 
L 2970 979 
L 2970 1165 
z
M 2970 58 
L 5709 58 
L 5709 -128 
L 2970 -128 
L 2970 58 
z
M 262 1792 
Q 531 1875 880 1987 
Q 1229 2099 1625 2230 
Q 2022 2362 2419 2496 
L 2451 2310 
Q 1894 2125 1337 1933 
Q 781 1741 352 1600 
L 262 1792 
z
M 326 3936 
L 2368 3936 
L 2368 3744 
L 326 3744 
L 326 3936 
z
M 1318 5312 
L 1504 5312 
L 1504 -141 
Q 1504 -269 1462 -329 
Q 1421 -390 1331 -416 
Q 1242 -442 1069 -448 
Q 896 -454 595 -448 
Q 589 -416 563 -365 
Q 538 -314 518 -269 
Q 768 -275 953 -275 
Q 1139 -275 1197 -269 
Q 1261 -269 1289 -243 
Q 1318 -218 1318 -147 
L 1318 5312 
z
" transform="scale(0.015625)"/>
      <path id="NotoSansSC-Thin-6570" d="M 512 1990 
L 2970 1990 
L 2970 1798 
L 512 1798 
L 512 1990 
z
M 365 4064 
L 3386 4064 
L 3386 3878 
L 365 3878 
L 365 4064 
z
M 2957 5146 
L 3123 5050 
Q 3002 4826 2845 4586 
Q 2688 4346 2554 4173 
L 2419 4256 
Q 2509 4371 2608 4531 
Q 2707 4691 2800 4854 
Q 2893 5018 2957 5146 
z
M 1792 5318 
L 1984 5318 
L 1984 2611 
L 1792 2611 
L 1792 5318 
z
M 691 5043 
L 845 5101 
Q 992 4902 1117 4662 
Q 1242 4422 1286 4250 
L 1139 4179 
Q 1088 4352 960 4598 
Q 832 4845 691 5043 
z
M 1792 3987 
L 1946 3904 
Q 1798 3622 1561 3344 
Q 1325 3066 1046 2832 
Q 768 2598 486 2445 
Q 467 2490 428 2538 
Q 390 2586 358 2618 
Q 634 2746 909 2960 
Q 1184 3174 1417 3443 
Q 1651 3712 1792 3987 
z
M 1946 3866 
Q 2029 3814 2205 3696 
Q 2381 3578 2585 3443 
Q 2790 3309 2960 3190 
Q 3130 3072 3200 3021 
L 3072 2854 
Q 2995 2925 2832 3049 
Q 2669 3174 2473 3315 
Q 2278 3456 2105 3574 
Q 1933 3693 1830 3750 
L 1946 3866 
z
M 3962 4013 
L 5997 4013 
L 5997 3827 
L 3962 3827 
L 3962 4013 
z
M 4128 5222 
L 4314 5190 
Q 4218 4614 4083 4086 
Q 3949 3558 3766 3100 
Q 3584 2643 3354 2285 
Q 3341 2298 3309 2320 
Q 3277 2342 3241 2361 
Q 3206 2381 3181 2394 
Q 3424 2733 3603 3184 
Q 3782 3635 3913 4153 
Q 4045 4672 4128 5222 
z
M 5357 3936 
L 5549 3910 
Q 5382 2829 5084 2006 
Q 4787 1184 4291 579 
Q 3795 -26 3040 -454 
Q 3027 -435 3004 -406 
Q 2982 -378 2956 -349 
Q 2931 -320 2906 -301 
Q 3654 90 4140 678 
Q 4627 1267 4915 2076 
Q 5203 2886 5357 3936 
z
M 3994 3789 
Q 4147 2874 4425 2070 
Q 4704 1267 5133 668 
Q 5562 70 6150 -243 
Q 6112 -269 6073 -313 
Q 6035 -358 6010 -397 
Q 5414 -51 4985 563 
Q 4557 1178 4275 1997 
Q 3994 2816 3834 3757 
L 3994 3789 
z
M 896 1018 
L 1050 1152 
Q 1370 1037 1722 873 
Q 2074 710 2387 544 
Q 2701 378 2906 230 
L 2752 90 
Q 2554 237 2240 406 
Q 1926 576 1574 739 
Q 1222 902 896 1018 
z
M 2880 1990 
L 2918 1990 
L 2963 2003 
L 3066 1946 
Q 2874 1286 2474 825 
Q 2074 365 1552 80 
Q 1030 -205 467 -358 
Q 454 -320 422 -272 
Q 390 -224 358 -198 
Q 902 -64 1411 205 
Q 1920 474 2310 906 
Q 2701 1338 2880 1946 
L 2880 1990 
z
M 896 1018 
Q 1030 1210 1168 1453 
Q 1306 1696 1427 1952 
Q 1549 2208 1632 2438 
L 1811 2406 
Q 1722 2170 1597 1910 
Q 1472 1651 1341 1414 
Q 1210 1178 1094 1005 
L 896 1018 
z
" transform="scale(0.015625)"/>
      <path id="NotoSansSC-Thin-20" transform="scale(0.015625)"/>
      <path id="NotoSansSC-Thin-2d" d="M 282 1638 
L 282 1862 
L 1811 1862 
L 1811 1638 
L 282 1638 
z
" transform="scale(0.015625)"/>
      <path id="NotoSansSC-Thin-30" d="M 1670 -83 
Q 1261 -83 963 179 
Q 666 442 509 979 
Q 352 1517 352 2336 
Q 352 3149 509 3677 
Q 666 4205 963 4467 
Q 1261 4730 1670 4730 
Q 2080 4730 2371 4467 
Q 2662 4205 2822 3677 
Q 2982 3149 2982 2336 
Q 2982 1517 2822 979 
Q 2662 442 2371 179 
Q 2080 -83 1670 -83 
z
M 1670 128 
Q 1997 128 2240 384 
Q 2483 640 2614 1133 
Q 2746 1626 2746 2336 
Q 2746 3040 2614 3529 
Q 2483 4019 2240 4272 
Q 1997 4525 1670 4525 
Q 1344 4525 1101 4272 
Q 858 4019 723 3529 
Q 589 3040 589 2336 
Q 589 1626 723 1133 
Q 858 640 1101 384 
Q 1344 128 1670 128 
z
" transform="scale(0.015625)"/>
      <path id="NotoSansSC-Thin-2e" d="M 736 -83 
Q 640 -83 560 -9 
Q 480 64 480 192 
Q 480 333 560 406 
Q 640 480 736 480 
Q 838 480 918 406 
Q 998 333 998 192 
Q 998 64 918 -9 
Q 838 -83 736 -83 
z
" transform="scale(0.015625)"/>
      <path id="NotoSansSC-Thin-32" d="M 294 0 
L 294 147 
Q 1120 858 1613 1434 
Q 2106 2010 2323 2499 
Q 2541 2989 2541 3424 
Q 2541 3725 2435 3974 
Q 2330 4224 2106 4371 
Q 1882 4518 1523 4518 
Q 1210 4518 931 4352 
Q 653 4186 442 3923 
L 282 4070 
Q 525 4346 829 4538 
Q 1133 4730 1542 4730 
Q 1939 4730 2214 4566 
Q 2490 4403 2637 4112 
Q 2784 3821 2784 3424 
Q 2784 2918 2537 2406 
Q 2291 1894 1820 1347 
Q 1350 800 678 179 
Q 870 192 1062 201 
Q 1254 211 1440 211 
L 3014 211 
L 3014 0 
L 294 0 
z
" transform="scale(0.015625)"/>
     </defs>
     <use xlink:href="#NotoSansSC-Thin-4e0a"/>
     <use xlink:href="#NotoSansSC-Thin-8bc1" transform="translate(99.999985 0)"/>
     <use xlink:href="#NotoSansSC-Thin-6307" transform="translate(199.999969 0)"/>
     <use xlink:href="#NotoSansSC-Thin-6570" transform="translate(299.999954 0)"/>
     <use xlink:href="#NotoSansSC-Thin-20" transform="translate(399.999939 0)"/>
     <use xlink:href="#NotoSansSC-Thin-2d" transform="translate(421.999924 0)"/>
     <use xlink:href="#NotoSansSC-Thin-30" transform="translate(454.399918 0)"/>
     <use xlink:href="#NotoSansSC-Thin-2e" transform="translate(506.499908 0)"/>
     <use xlink:href="#NotoSansSC-Thin-32" transform="translate(529.599899 0)"/>
    </g>
   </g>
   <g id="text_2">
    <!-- 0.3 (+0.5) -->
    <g style="fill: #dc2626" transform="translate(304.251429 108.127831) scale(0.09 -0.09)">
     <defs>
      <path id="NotoSansSC-Thin-33" d="M 1619 -83 
Q 1261 -83 998 13 
Q 736 109 544 256 
Q 352 403 211 550 
L 358 717 
Q 563 499 857 313 
Q 1152 128 1632 128 
Q 1952 128 2198 262 
Q 2445 397 2585 640 
Q 2726 883 2726 1210 
Q 2726 1542 2560 1795 
Q 2394 2048 2038 2189 
Q 1683 2330 1114 2330 
L 1114 2554 
Q 1651 2554 1964 2698 
Q 2278 2842 2416 3088 
Q 2554 3334 2554 3629 
Q 2554 4026 2298 4272 
Q 2042 4518 1606 4518 
Q 1293 4518 1017 4374 
Q 742 4230 557 4026 
L 410 4192 
Q 634 4410 925 4570 
Q 1216 4730 1606 4730 
Q 1939 4730 2211 4598 
Q 2483 4467 2643 4224 
Q 2803 3981 2803 3642 
Q 2803 3168 2550 2877 
Q 2298 2586 1926 2464 
L 1926 2438 
Q 2208 2381 2445 2221 
Q 2682 2061 2826 1808 
Q 2970 1555 2970 1222 
Q 2970 826 2790 531 
Q 2611 237 2307 77 
Q 2003 -83 1619 -83 
z
" transform="scale(0.015625)"/>
      <path id="NotoSansSC-Thin-28" d="M 1562 -1222 
Q 1133 -525 883 252 
Q 634 1030 634 1958 
Q 634 2886 883 3667 
Q 1133 4448 1562 5146 
L 1696 5056 
Q 1274 4390 1059 3596 
Q 845 2803 845 1958 
Q 845 1114 1059 320 
Q 1274 -474 1696 -1139 
L 1562 -1222 
z
" transform="scale(0.015625)"/>
      <path id="NotoSansSC-Thin-2b" d="M 1549 787 
L 1549 2221 
L 237 2221 
L 237 2426 
L 1549 2426 
L 1549 3866 
L 1786 3866 
L 1786 2426 
L 3098 2426 
L 3098 2221 
L 1786 2221 
L 1786 787 
L 1549 787 
z
" transform="scale(0.015625)"/>
      <path id="NotoSansSC-Thin-35" d="M 1581 -83 
Q 1222 -83 963 9 
Q 704 102 515 240 
Q 326 378 186 518 
L 333 691 
Q 467 550 636 422 
Q 806 294 1040 211 
Q 1274 128 1594 128 
Q 1901 128 2166 294 
Q 2432 461 2592 765 
Q 2752 1069 2752 1466 
Q 2752 2061 2441 2406 
Q 2131 2752 1606 2752 
Q 1350 2752 1152 2665 
Q 954 2579 755 2445 
L 563 2560 
L 730 4646 
L 2758 4646 
L 2758 4435 
L 941 4435 
L 787 2726 
Q 966 2835 1168 2902 
Q 1370 2970 1626 2970 
Q 2010 2970 2320 2813 
Q 2630 2656 2812 2326 
Q 2995 1997 2995 1478 
Q 2995 979 2787 630 
Q 2579 282 2256 99 
Q 1933 -83 1581 -83 
z
" transform="scale(0.015625)"/>
      <path id="NotoSansSC-Thin-29" d="M 352 -1222 
L 211 -1139 
Q 634 -474 851 320 
Q 1069 1114 1069 1958 
Q 1069 2803 851 3596 
Q 634 4390 211 5056 
L 352 5146 
Q 787 4448 1033 3667 
Q 1280 2886 1280 1958 
Q 1280 1030 1033 252 
Q 787 -525 352 -1222 
z
" transform="scale(0.015625)"/>
     </defs>
     <use xlink:href="#NotoSansSC-Thin-30"/>
     <use xlink:href="#NotoSansSC-Thin-2e" transform="translate(52.099991 0)"/>
     <use xlink:href="#NotoSansSC-Thin-33" transform="translate(75.199982 0)"/>
     <use xlink:href="#NotoSansSC-Thin-20" transform="translate(127.299973 0)"/>
     <use xlink:href="#NotoSansSC-Thin-28" transform="translate(149.299957 0)"/>
     <use xlink:href="#NotoSansSC-Thin-2b" transform="translate(179.199951 0)"/>
     <use xlink:href="#NotoSansSC-Thin-30" transform="translate(231.299942 0)"/>
     <use xlink:href="#NotoSansSC-Thin-2e" transform="translate(283.399933 0)"/>
     <use xlink:href="#NotoSansSC-Thin-35" transform="translate(306.499924 0)"/>
     <use xlink:href="#NotoSansSC-Thin-29" transform="translate(358.599915 0)"/>
    </g>
   </g>
   <g id="text_3">
    <!-- 深证成指 0.1 -->
    <g style="fill: #1e293b" transform="translate(51.570402 122.482341) scale(0.09 -0.09)">
     <defs>
      <path id="NotoSansSC-Thin-6df1" d="M 2074 2234 
L 5805 2234 
L 5805 2048 
L 2074 2048 
L 2074 2234 
z
M 2138 4909 
L 5779 4909 
L 5779 3923 
L 5587 3923 
L 5587 4717 
L 2330 4717 
L 2330 3910 
L 2138 3910 
L 2138 4909 
z
M 3814 2995 
L 4000 2995 
L 4000 -448 
L 3814 -448 
L 3814 2995 
z
M 4166 2170 
Q 4352 1741 4637 1341 
Q 4922 941 5270 624 
Q 5619 307 5978 122 
Q 5952 102 5926 73 
Q 5901 45 5878 16 
Q 5856 -13 5837 -38 
Q 5478 173 5126 509 
Q 4774 845 4480 1257 
Q 4186 1670 3994 2106 
L 4166 2170 
z
M 3667 2182 
L 3834 2118 
Q 3648 1651 3347 1235 
Q 3046 819 2675 496 
Q 2304 173 1907 -32 
Q 1882 13 1843 57 
Q 1805 102 1773 128 
Q 2170 314 2534 624 
Q 2899 934 3193 1337 
Q 3488 1741 3667 2182 
z
M 3360 4147 
L 3546 4096 
Q 3398 3827 3187 3574 
Q 2976 3322 2742 3104 
Q 2509 2886 2272 2720 
Q 2259 2739 2227 2764 
Q 2195 2790 2163 2816 
Q 2131 2842 2106 2854 
Q 2477 3091 2809 3430 
Q 3142 3770 3360 4147 
z
M 4314 4083 
L 4454 4192 
Q 4691 4000 4931 3763 
Q 5171 3526 5376 3299 
Q 5581 3072 5702 2893 
L 5555 2765 
Q 5434 2944 5229 3177 
Q 5024 3411 4787 3648 
Q 4550 3885 4314 4083 
z
M 646 5094 
L 762 5229 
Q 947 5139 1142 5024 
Q 1338 4909 1517 4787 
Q 1696 4666 1811 4563 
L 1696 4403 
Q 1587 4506 1411 4630 
Q 1235 4755 1033 4880 
Q 832 5005 646 5094 
z
M 307 3354 
L 442 3488 
Q 646 3411 864 3302 
Q 1082 3194 1274 3078 
Q 1466 2963 1594 2861 
L 1466 2714 
Q 1338 2810 1142 2925 
Q 947 3040 729 3155 
Q 512 3270 307 3354 
z
M 493 -166 
Q 646 83 828 432 
Q 1011 781 1200 1165 
Q 1389 1549 1542 1901 
L 1670 1773 
Q 1523 1440 1344 1065 
Q 1165 691 982 332 
Q 800 -26 640 -307 
L 493 -166 
z
" transform="scale(0.015625)"/>
      <path id="NotoSansSC-Thin-6210" d="M 1024 2925 
L 2726 2925 
L 2726 2733 
L 1024 2733 
L 1024 2925 
z
M 2643 2925 
L 2829 2925 
Q 2829 2925 2829 2902 
Q 2829 2880 2829 2848 
Q 2829 2816 2829 2797 
Q 2810 2035 2787 1580 
Q 2765 1126 2729 902 
Q 2694 678 2630 602 
Q 2573 544 2502 518 
Q 2432 493 2304 486 
Q 2182 480 1968 486 
Q 1754 493 1510 512 
Q 1504 550 1491 601 
Q 1478 653 1453 691 
Q 1715 666 1945 662 
Q 2176 659 2259 659 
Q 2330 659 2381 668 
Q 2432 678 2464 717 
Q 2522 781 2554 998 
Q 2586 1216 2608 1667 
Q 2630 2118 2643 2880 
L 2643 2925 
z
M 4320 5075 
L 4435 5203 
Q 4659 5094 4899 4956 
Q 5139 4819 5347 4681 
Q 5555 4544 5690 4429 
L 5581 4288 
Q 5446 4403 5235 4544 
Q 5024 4685 4787 4825 
Q 4550 4966 4320 5075 
z
M 5402 3251 
L 5587 3200 
Q 5171 1946 4448 1056 
Q 3725 166 2714 -410 
Q 2701 -390 2672 -361 
Q 2643 -333 2617 -304 
Q 2592 -275 2566 -256 
Q 3590 282 4300 1165 
Q 5011 2048 5402 3251 
z
M 1056 4102 
L 6029 4102 
L 6029 3917 
L 1056 3917 
L 1056 4102 
z
M 947 4102 
L 1139 4102 
L 1139 2374 
Q 1139 2054 1113 1689 
Q 1088 1325 1021 944 
Q 954 563 819 204 
Q 685 -154 461 -461 
Q 448 -442 419 -419 
Q 390 -397 361 -377 
Q 333 -358 307 -346 
Q 595 58 729 531 
Q 864 1005 905 1485 
Q 947 1965 947 2381 
L 947 4102 
z
M 3667 5306 
L 3859 5306 
Q 3866 4320 3946 3472 
Q 4026 2624 4173 1945 
Q 4320 1267 4528 787 
Q 4736 307 4995 51 
Q 5254 -205 5555 -205 
Q 5722 -205 5795 76 
Q 5869 358 5894 1030 
Q 5926 1005 5980 979 
Q 6035 954 6074 941 
Q 6048 442 5997 147 
Q 5946 -147 5840 -275 
Q 5734 -403 5542 -403 
Q 5242 -403 4986 -204 
Q 4730 -6 4525 362 
Q 4320 730 4163 1245 
Q 4006 1760 3897 2397 
Q 3789 3034 3731 3770 
Q 3674 4506 3667 5306 
z
" transform="scale(0.015625)"/>
      <path id="NotoSansSC-Thin-31" d="M 608 0 
L 608 211 
L 1677 211 
L 1677 4211 
L 864 4211 
L 864 4378 
Q 1133 4422 1344 4492 
Q 1555 4563 1702 4646 
L 1901 4646 
L 1901 211 
L 2899 211 
L 2899 0 
L 608 0 
z
" transform="scale(0.015625)"/>
     </defs>
     <use xlink:href="#NotoSansSC-Thin-6df1"/>
     <use xlink:href="#NotoSansSC-Thin-8bc1" transform="translate(99.999985 0)"/>
     <use xlink:href="#NotoSansSC-Thin-6210" transform="translate(199.999969 0)"/>
     <use xlink:href="#NotoSansSC-Thin-6307" transform="translate(299.999954 0)"/>
     <use xlink:href="#NotoSansSC-Thin-20" transform="translate(399.999939 0)"/>
     <use xlink:href="#NotoSansSC-Thin-30" transform="translate(421.999924 0)"/>
     <use xlink:href="#NotoSansSC-Thin-2e" transform="translate(474.099915 0)"/>
     <use xlink:href="#NotoSansSC-Thin-31" transform="translate(497.199905 0)"/>
    </g>
   </g>
   <g id="text_4">
    <!-- 0.5 (+0.4) -->
    <g style="fill: #dc2626" transform="translate(304.251429 92.178375) scale(0.09 -0.09)">
     <defs>
      <path id="NotoSansSC-Thin-34" d="M 2195 0 
L 2195 3482 
Q 2195 3629 2204 3843 
Q 2214 4058 2227 4205 
L 2195 4205 
Q 2112 4058 2019 3901 
Q 1926 3744 1830 3590 
L 422 1568 
L 3110 1568 
L 3110 1363 
L 115 1363 
L 115 1485 
L 2259 4646 
L 2419 4646 
L 2419 0 
L 2195 0 
z
" transform="scale(0.015625)"/>
     </defs>
     <use xlink:href="#NotoSansSC-Thin-30"/>
     <use xlink:href="#NotoSansSC-Thin-2e" transform="translate(52.099991 0)"/>
     <use xlink:href="#NotoSansSC-Thin-35" transform="translate(75.199982 0)"/>
     <use xlink:href="#NotoSansSC-Thin-20" transform="translate(127.299973 0)"/>
     <use xlink:href="#NotoSansSC-Thin-28" transform="translate(149.299957 0)"/>
     <use xlink:href="#NotoSansSC-Thin-2b" transform="translate(179.199951 0)"/>
     <use xlink:href="#NotoSansSC-Thin-30" transform="translate(231.299942 0)"/>
     <use xlink:href="#NotoSansSC-Thin-2e" transform="translate(283.399933 0)"/>
     <use xlink:href="#NotoSansSC-Thin-34" transform="translate(306.499924 0)"/>
     <use xlink:href="#NotoSansSC-Thin-29" transform="translate(358.599915 0)"/>
    </g>
   </g>
   <g id="text_5">
    <!-- 创业板指 0.5 -->
    <g style="fill: #1e293b" transform="translate(51.570402 88.988484) scale(0.09 -0.09)">
     <defs>
      <path id="NotoSansSC-Thin-521b" d="M 5555 5235 
L 5747 5235 
L 5747 -70 
Q 5747 -224 5689 -291 
Q 5632 -358 5523 -390 
Q 5408 -416 5168 -419 
Q 4928 -422 4486 -416 
Q 4474 -384 4451 -333 
Q 4429 -282 4397 -237 
Q 4646 -243 4848 -243 
Q 5050 -243 5190 -240 
Q 5331 -237 5389 -237 
Q 5478 -230 5516 -195 
Q 5555 -160 5555 -77 
L 5555 5235 
z
M 4282 4557 
L 4467 4557 
L 4467 1082 
L 4282 1082 
L 4282 4557 
z
M 1043 2957 
L 2995 2957 
L 2995 2765 
L 1043 2765 
L 1043 2957 
z
M 966 2957 
L 1158 2957 
L 1158 90 
Q 1158 -70 1235 -124 
Q 1312 -179 1581 -179 
Q 1651 -179 1836 -179 
Q 2022 -179 2249 -179 
Q 2477 -179 2672 -179 
Q 2867 -179 2957 -179 
Q 3123 -179 3203 -108 
Q 3283 -38 3315 176 
Q 3347 390 3360 813 
Q 3398 781 3452 758 
Q 3507 736 3552 723 
Q 3533 294 3485 54 
Q 3437 -186 3318 -278 
Q 3200 -371 2957 -371 
Q 2918 -371 2780 -371 
Q 2643 -371 2457 -371 
Q 2272 -371 2086 -371 
Q 1901 -371 1766 -371 
Q 1632 -371 1600 -371 
Q 1357 -371 1219 -336 
Q 1082 -301 1024 -201 
Q 966 -102 966 90 
L 966 2957 
z
M 2931 2957 
L 3117 2957 
Q 3117 2957 3117 2912 
Q 3117 2867 3110 2835 
Q 3078 2259 3040 1913 
Q 3002 1568 2950 1389 
Q 2899 1210 2829 1139 
Q 2771 1082 2704 1059 
Q 2637 1037 2528 1030 
Q 2445 1030 2281 1033 
Q 2118 1037 1946 1050 
Q 1939 1094 1926 1142 
Q 1914 1190 1888 1235 
Q 2093 1216 2262 1209 
Q 2432 1203 2496 1203 
Q 2566 1203 2608 1212 
Q 2650 1222 2682 1261 
Q 2733 1318 2777 1491 
Q 2822 1664 2860 2006 
Q 2899 2349 2931 2912 
L 2931 2957 
z
M 1971 4915 
L 2112 4998 
Q 2413 4710 2726 4374 
Q 3040 4038 3312 3718 
Q 3584 3398 3757 3155 
L 3616 3040 
Q 3443 3283 3171 3606 
Q 2899 3930 2585 4275 
Q 2272 4621 1971 4915 
z
M 2106 5280 
L 2298 5235 
Q 2003 4582 1510 3936 
Q 1018 3290 397 2797 
Q 378 2816 349 2832 
Q 320 2848 294 2867 
Q 269 2886 243 2899 
Q 666 3219 1024 3616 
Q 1382 4013 1660 4438 
Q 1939 4864 2106 5280 
z
" transform="scale(0.015625)"/>
      <path id="NotoSansSC-Thin-4e1a" d="M 442 102 
L 5978 102 
L 5978 -90 
L 442 -90 
L 442 102 
z
M 2368 5242 
L 2554 5242 
L 2554 -6 
L 2368 -6 
L 2368 5242 
z
M 3866 5229 
L 4051 5229 
L 4051 -26 
L 3866 -26 
L 3866 5229 
z
M 5594 3699 
L 5773 3622 
Q 5613 3290 5411 2909 
Q 5210 2528 4998 2166 
Q 4787 1805 4595 1517 
L 4435 1606 
Q 4627 1888 4841 2256 
Q 5056 2624 5254 3005 
Q 5453 3386 5594 3699 
z
M 640 3667 
L 826 3725 
Q 1018 3392 1206 3011 
Q 1395 2630 1558 2275 
Q 1722 1920 1811 1664 
L 1619 1581 
Q 1536 1843 1376 2204 
Q 1216 2566 1024 2953 
Q 832 3341 640 3667 
z
" transform="scale(0.015625)"/>
      <path id="NotoSansSC-Thin-677f" d="M 442 4038 
L 2477 4038 
L 2477 3853 
L 442 3853 
L 442 4038 
z
M 1446 5318 
L 1632 5318 
L 1632 -435 
L 1446 -435 
L 1446 5318 
z
M 1434 3987 
L 1600 3942 
Q 1517 3558 1389 3145 
Q 1261 2733 1104 2333 
Q 947 1933 774 1590 
Q 602 1248 429 1011 
Q 416 1037 390 1065 
Q 365 1094 336 1120 
Q 307 1146 282 1158 
Q 454 1382 624 1708 
Q 794 2035 950 2419 
Q 1107 2803 1232 3206 
Q 1357 3610 1434 3987 
z
M 1594 3610 
Q 1645 3546 1757 3382 
Q 1869 3219 1993 3024 
Q 2118 2829 2227 2665 
Q 2336 2502 2381 2426 
L 2240 2259 
Q 2189 2355 2086 2534 
Q 1984 2714 1865 2912 
Q 1747 3110 1641 3273 
Q 1536 3437 1478 3514 
L 1594 3610 
z
M 2784 4602 
L 2976 4602 
L 2976 3002 
Q 2976 2618 2947 2176 
Q 2918 1734 2835 1273 
Q 2752 813 2592 371 
Q 2432 -70 2163 -448 
Q 2144 -429 2115 -409 
Q 2086 -390 2060 -371 
Q 2035 -352 2010 -346 
Q 2272 32 2429 457 
Q 2586 883 2662 1331 
Q 2739 1779 2761 2208 
Q 2784 2637 2784 3008 
L 2784 4602 
z
M 2893 3302 
L 5574 3302 
L 5574 3110 
L 2893 3110 
L 2893 3302 
z
M 5517 3302 
L 5555 3302 
L 5587 3315 
L 5709 3264 
Q 5498 2266 5069 1533 
Q 4640 800 4070 313 
Q 3501 -173 2867 -448 
Q 2854 -422 2832 -396 
Q 2810 -371 2787 -342 
Q 2765 -314 2739 -294 
Q 3354 -38 3914 432 
Q 4474 902 4896 1606 
Q 5318 2310 5517 3251 
L 5517 3302 
z
M 3501 3226 
Q 3706 2419 4064 1712 
Q 4422 1005 4934 486 
Q 5446 -32 6106 -288 
Q 6080 -307 6054 -336 
Q 6029 -365 6003 -393 
Q 5978 -422 5958 -448 
Q 5299 -166 4787 368 
Q 4275 902 3916 1622 
Q 3558 2342 3347 3181 
L 3501 3226 
z
M 5670 5114 
L 5798 4960 
Q 5555 4851 5203 4768 
Q 4851 4685 4448 4621 
Q 4045 4557 3632 4512 
Q 3219 4467 2842 4435 
Q 2835 4474 2819 4522 
Q 2803 4570 2784 4602 
Q 3149 4634 3558 4678 
Q 3968 4723 4368 4787 
Q 4768 4851 5107 4931 
Q 5446 5011 5670 5114 
z
" transform="scale(0.015625)"/>
     </defs>
     <use xlink:href="#NotoSansSC-Thin-521b"/>
     <use xlink:href="#NotoSansSC-Thin-4e1a" transform="translate(99.999985 0)"/>
     <use xlink:href="#NotoSansSC-Thin-677f" transform="translate(199.999969 0)"/>
     <use xlink:href="#NotoSansSC-Thin-6307" transform="translate(299.999954 0)"/>
     <use xlink:href="#NotoSansSC-Thin-20" transform="translate(399.999939 0)"/>
     <use xlink:href="#NotoSansSC-Thin-30" transform="translate(421.999924 0)"/>
     <use xlink:href="#NotoSansSC-Thin-2e" transform="translate(474.099915 0)"/>
     <use xlink:href="#NotoSansSC-Thin-35" transform="translate(497.199905 0)"/>
    </g>
   </g>
   <g id="text_6">
    <!-- -0.2 (-0.7) -->
    <g style="fill: #16a34a" transform="translate(304.251429 148.001471) scale(0.09 -0.09)">
     <defs>
      <path id="NotoSansSC-Thin-37" d="M 1344 0 
Q 1376 717 1462 1318 
Q 1549 1920 1712 2445 
Q 1875 2970 2124 3459 
Q 2374 3949 2726 4435 
L 307 4435 
L 307 4646 
L 3034 4646 
L 3034 4512 
Q 2624 3955 2355 3436 
Q 2086 2918 1932 2384 
Q 1779 1850 1705 1267 
Q 1632 685 1606 0 
L 1344 0 
z
" transform="scale(0.015625)"/>
     </defs>
     <use xlink:href="#NotoSansSC-Thin-2d"/>
     <use xlink:href="#NotoSansSC-Thin-30" transform="translate(32.399994 0)"/>
     <use xlink:href="#NotoSansSC-Thin-2e" transform="translate(84.499985 0)"/>
     <use xlink:href="#NotoSansSC-Thin-32" transform="translate(107.599976 0)"/>
     <use xlink:href="#NotoSansSC-Thin-20" transform="translate(159.699966 0)"/>
     <use xlink:href="#NotoSansSC-Thin-28" transform="translate(181.699951 0)"/>
     <use xlink:href="#NotoSansSC-Thin-2d" transform="translate(211.599945 0)"/>
     <use xlink:href="#NotoSansSC-Thin-30" transform="translate(243.999939 0)"/>
     <use xlink:href="#NotoSansSC-Thin-2e" transform="translate(296.09993 0)"/>
     <use xlink:href="#NotoSansSC-Thin-37" transform="translate(319.199921 0)"/>
     <use xlink:href="#NotoSansSC-Thin-29" transform="translate(371.299911 0)"/>
    </g>
   </g>
   <g id="text_7">
    <!-- 科创50 -1.5 -->
    <g style="fill: #1e293b" transform="translate(57.276964 250.875462) scale(0.09 -0.09)">
     <defs>
      <path id="NotoSansSC-Thin-79d1" d="M 1536 4851 
L 1728 4851 
L 1728 -429 
L 1536 -429 
L 1536 4851 
z
M 346 3507 
L 2778 3507 
L 2778 3322 
L 346 3322 
L 346 3507 
z
M 1542 3450 
L 1696 3392 
Q 1594 3059 1443 2700 
Q 1293 2342 1113 1996 
Q 934 1651 745 1353 
Q 557 1056 371 851 
Q 352 883 310 928 
Q 269 973 237 998 
Q 416 1190 605 1472 
Q 794 1754 973 2086 
Q 1152 2419 1299 2771 
Q 1446 3123 1542 3450 
z
M 2438 5197 
L 2598 5050 
Q 2342 4941 1984 4841 
Q 1626 4742 1235 4665 
Q 845 4589 486 4531 
Q 480 4563 457 4608 
Q 435 4653 416 4685 
Q 774 4749 1158 4825 
Q 1542 4902 1881 4998 
Q 2221 5094 2438 5197 
z
M 1690 3187 
Q 1754 3110 1894 2928 
Q 2035 2746 2195 2531 
Q 2355 2317 2489 2128 
Q 2624 1939 2682 1856 
L 2534 1709 
Q 2477 1818 2349 2013 
Q 2221 2208 2067 2425 
Q 1914 2643 1779 2825 
Q 1645 3008 1574 3091 
L 1690 3187 
z
M 5030 5318 
L 5222 5318 
L 5222 -435 
L 5030 -435 
L 5030 5318 
z
M 2733 1114 
L 6086 1613 
L 6118 1446 
L 2758 934 
L 2733 1114 
z
M 3354 4685 
L 3469 4813 
Q 3680 4704 3891 4557 
Q 4102 4410 4284 4259 
Q 4467 4109 4582 3974 
L 4454 3834 
Q 4346 3962 4163 4115 
Q 3981 4269 3769 4419 
Q 3558 4570 3354 4685 
z
M 3078 3034 
L 3194 3155 
Q 3424 3040 3664 2883 
Q 3904 2726 4109 2566 
Q 4314 2406 4442 2272 
L 4326 2131 
Q 4198 2272 3990 2435 
Q 3782 2598 3545 2755 
Q 3309 2912 3078 3034 
z
" transform="scale(0.015625)"/>
     </defs>
     <use xlink:href="#NotoSansSC-Thin-79d1"/>
     <use xlink:href="#NotoSansSC-Thin-521b" transform="translate(99.999985 0)"/>
     <use xlink:href="#NotoSansSC-Thin-35" transform="translate(199.999969 0)"/>
     <use xlink:href="#NotoSansSC-Thin-30" transform="translate(252.09996 0)"/>
     <use xlink:href="#NotoSansSC-Thin-20" transform="translate(304.199951 0)"/>
     <use xlink:href="#NotoSansSC-Thin-2d" transform="translate(326.199936 0)"/>
     <use xlink:href="#NotoSansSC-Thin-31" transform="translate(358.59993 0)"/>
     <use xlink:href="#NotoSansSC-Thin-2e" transform="translate(410.699921 0)"/>
     <use xlink:href="#NotoSansSC-Thin-35" transform="translate(433.799911 0)"/>
    </g>
   </g>
   <g id="text_8">
    <!-- 1.1 (+2.6) -->
    <g style="fill: #dc2626" transform="translate(304.251429 44.330007) scale(0.09 -0.09)">
     <defs>
      <path id="NotoSansSC-Thin-36" d="M 1837 -83 
Q 1498 -83 1232 67 
Q 966 218 780 509 
Q 595 800 496 1216 
Q 397 1632 397 2170 
Q 397 2886 528 3379 
Q 659 3872 889 4169 
Q 1120 4467 1414 4598 
Q 1709 4730 2029 4730 
Q 2330 4730 2550 4614 
Q 2771 4499 2944 4307 
L 2790 4147 
Q 2643 4333 2444 4425 
Q 2246 4518 2022 4518 
Q 1651 4518 1334 4297 
Q 1018 4077 826 3561 
Q 634 3046 634 2170 
Q 634 1581 762 1120 
Q 890 659 1158 393 
Q 1427 128 1850 128 
Q 2125 128 2336 297 
Q 2547 467 2672 752 
Q 2797 1037 2797 1382 
Q 2797 1741 2694 2025 
Q 2592 2310 2368 2476 
Q 2144 2643 1779 2643 
Q 1523 2643 1209 2470 
Q 896 2298 602 1888 
L 602 2176 
Q 768 2381 957 2531 
Q 1146 2682 1360 2762 
Q 1574 2842 1792 2842 
Q 2189 2842 2467 2675 
Q 2746 2509 2893 2185 
Q 3040 1862 3040 1382 
Q 3040 960 2873 630 
Q 2707 301 2435 109 
Q 2163 -83 1837 -83 
z
" transform="scale(0.015625)"/>
     </defs>
     <use xlink:href="#NotoSansSC-Thin-31"/>
     <use xlink:href="#NotoSansSC-Thin-2e" transform="translate(52.099991 0)"/>
     <use xlink:href="#NotoSansSC-Thin-31" transform="translate(75.199982 0)"/>
     <use xlink:href="#NotoSansSC-Thin-20" transform="translate(127.299973 0)"/>
     <use xlink:href="#NotoSansSC-Thin-28" transform="translate(149.299957 0)"/>
     <use xlink:href="#NotoSansSC-Thin-2b" transform="translate(179.199951 0)"/>
     <use xlink:href="#NotoSansSC-Thin-32" transform="translate(231.299942 0)"/>
     <use xlink:href="#NotoSansSC-Thin-2e" transform="translate(283.399933 0)"/>
     <use xlink:href="#NotoSansSC-Thin-36" transform="translate(306.499924 0)"/>
     <use xlink:href="#NotoSansSC-Thin-29" transform="translate(358.599915 0)"/>
    </g>
   </g>
   <g id="text_9">
    <!-- 昨日收盘 -->
    <g style="fill: #64748b" transform="translate(82.914286 77.376376) scale(0.11 -0.11)">
     <defs>
      <path id="NotoSansSC-Thin-6628" d="M 4006 2963 
L 5990 2963 
L 5990 2771 
L 4006 2771 
L 4006 2963 
z
M 4006 1530 
L 6048 1530 
L 6048 1344 
L 4006 1344 
L 4006 1530 
z
M 3878 4269 
L 4064 4269 
L 4064 -448 
L 3878 -448 
L 3878 4269 
z
M 3437 5325 
L 3629 5286 
Q 3507 4826 3344 4387 
Q 3181 3949 2989 3561 
Q 2797 3174 2573 2874 
Q 2560 2886 2528 2908 
Q 2496 2931 2467 2956 
Q 2438 2982 2413 2995 
Q 2637 3283 2825 3657 
Q 3014 4032 3171 4457 
Q 3328 4883 3437 5325 
z
M 3181 4288 
L 6125 4288 
L 6125 4102 
L 3104 4102 
L 3181 4288 
z
M 646 4845 
L 2253 4845 
L 2253 806 
L 646 806 
L 646 992 
L 2067 992 
L 2067 4653 
L 646 4653 
L 646 4845 
z
M 646 2957 
L 2176 2957 
L 2176 2765 
L 646 2765 
L 646 2957 
z
M 544 4845 
L 736 4845 
L 736 294 
L 544 294 
L 544 4845 
z
" transform="scale(0.015625)"/>
      <path id="NotoSansSC-Thin-65e5" d="M 1274 4832 
L 5197 4832 
L 5197 -333 
L 5005 -333 
L 5005 4640 
L 1466 4640 
L 1466 -384 
L 1274 -384 
L 1274 4832 
z
M 1389 2547 
L 5088 2547 
L 5088 2362 
L 1389 2362 
L 1389 2547 
z
M 1376 218 
L 5107 218 
L 5107 32 
L 1376 32 
L 1376 218 
z
" transform="scale(0.015625)"/>
      <path id="NotoSansSC-Thin-6536" d="M 3462 4013 
L 6035 4013 
L 6035 3827 
L 3462 3827 
L 3462 4013 
z
M 3706 5312 
L 3898 5280 
Q 3782 4678 3616 4131 
Q 3450 3584 3229 3113 
Q 3008 2643 2726 2272 
Q 2714 2291 2685 2316 
Q 2656 2342 2627 2368 
Q 2598 2394 2573 2406 
Q 2854 2752 3068 3209 
Q 3283 3667 3443 4201 
Q 3603 4736 3706 5312 
z
M 5274 3955 
L 5472 3923 
Q 5286 2835 4956 2009 
Q 4627 1184 4099 582 
Q 3571 -19 2778 -442 
Q 2765 -422 2742 -393 
Q 2720 -365 2697 -333 
Q 2675 -301 2650 -282 
Q 3437 109 3955 694 
Q 4474 1280 4787 2089 
Q 5101 2899 5274 3955 
z
M 3514 3840 
Q 3725 2918 4077 2099 
Q 4429 1280 4931 665 
Q 5434 51 6093 -275 
Q 6067 -294 6038 -320 
Q 6010 -346 5987 -371 
Q 5965 -397 5946 -422 
Q 5286 -77 4780 553 
Q 4275 1184 3920 2016 
Q 3565 2848 3347 3802 
L 3514 3840 
z
M 2170 5222 
L 2362 5222 
L 2362 -454 
L 2170 -454 
L 2170 5222 
z
M 582 800 
L 576 992 
L 717 1126 
L 2253 1677 
Q 2253 1632 2262 1581 
Q 2272 1530 2278 1498 
Q 1741 1293 1417 1168 
Q 1094 1043 928 972 
Q 762 902 691 867 
Q 621 832 582 800 
z
M 582 800 
Q 570 826 550 858 
Q 531 890 512 922 
Q 493 954 474 979 
Q 525 1011 608 1107 
Q 691 1203 691 1389 
L 691 4582 
L 877 4582 
L 877 1094 
Q 877 1094 832 1062 
Q 787 1030 729 979 
Q 672 928 627 880 
Q 582 832 582 800 
z
" transform="scale(0.015625)"/>
      <path id="NotoSansSC-Thin-76d8" d="M 1568 4819 
L 5018 4819 
L 5018 4627 
L 1568 4627 
L 1568 4819 
z
M 358 3450 
L 6093 3450 
L 6093 3264 
L 358 3264 
L 358 3450 
z
M 1485 4819 
L 1677 4819 
L 1677 3680 
Q 1677 3360 1603 3001 
Q 1530 2643 1315 2300 
Q 1101 1958 678 1677 
Q 666 1702 643 1728 
Q 621 1754 598 1779 
Q 576 1805 550 1818 
Q 954 2086 1155 2403 
Q 1357 2720 1421 3049 
Q 1485 3379 1485 3680 
L 1485 4819 
z
M 4902 4819 
L 5088 4819 
L 5088 2163 
Q 5088 2061 5053 2003 
Q 5018 1946 4928 1914 
Q 4845 1888 4656 1881 
Q 4467 1875 4154 1875 
Q 4147 1920 4121 1968 
Q 4096 2016 4070 2061 
Q 4339 2054 4534 2054 
Q 4730 2054 4794 2061 
Q 4902 2067 4902 2157 
L 4902 4819 
z
M 3091 5389 
L 3283 5325 
Q 3200 5146 3117 4966 
Q 3034 4787 2957 4653 
L 2797 4710 
Q 2874 4858 2960 5053 
Q 3046 5248 3091 5389 
z
M 2592 4333 
L 2720 4442 
Q 2880 4352 3040 4233 
Q 3200 4115 3341 3993 
Q 3482 3872 3571 3763 
L 3443 3648 
Q 3360 3750 3219 3875 
Q 3078 4000 2915 4121 
Q 2752 4243 2592 4333 
z
M 2586 2912 
L 2714 3021 
Q 2893 2918 3075 2784 
Q 3258 2650 3418 2515 
Q 3578 2381 3674 2266 
L 3552 2144 
Q 3456 2266 3296 2403 
Q 3136 2541 2950 2675 
Q 2765 2810 2586 2912 
z
M 307 -77 
L 6099 -77 
L 6099 -262 
L 307 -262 
L 307 -77 
z
M 1062 1632 
L 5312 1632 
L 5312 -166 
L 5126 -166 
L 5126 1446 
L 3955 1446 
L 3955 -166 
L 3763 -166 
L 3763 1446 
L 2598 1446 
L 2598 -166 
L 2413 -166 
L 2413 1446 
L 1248 1446 
L 1248 -166 
L 1062 -166 
L 1062 1632 
z
" transform="scale(0.015625)"/>
     </defs>
     <use xlink:href="#NotoSansSC-Thin-6628"/>
     <use xlink:href="#NotoSansSC-Thin-65e5" transform="translate(99.999985 0)"/>
     <use xlink:href="#NotoSansSC-Thin-6536" transform="translate(199.999969 0)"/>
     <use xlink:href="#NotoSansSC-Thin-76d8" transform="translate(299.999954 0)"/>
    </g>
   </g>
   <g id="text_10">
    <!-- 今日开盘 -->
    <g style="fill: #64748b" transform="translate(278.342857 26.019128) scale(0.11 -0.11)">
     <defs>
      <path id="NotoSansSC-Thin-4eca" d="M 1075 2118 
L 5146 2118 
L 5146 1933 
L 1075 1933 
L 1075 2118 
z
M 2554 3578 
L 2707 3680 
Q 2925 3526 3155 3337 
Q 3386 3149 3594 2966 
Q 3802 2784 3930 2637 
L 3770 2509 
Q 3642 2656 3440 2841 
Q 3238 3027 3004 3222 
Q 2771 3418 2554 3578 
z
M 3283 5146 
Q 3526 4819 3862 4489 
Q 4198 4160 4582 3859 
Q 4966 3558 5360 3312 
Q 5754 3066 6112 2906 
Q 6086 2886 6060 2857 
Q 6035 2829 6009 2800 
Q 5984 2771 5965 2746 
Q 5613 2918 5219 3174 
Q 4826 3430 4438 3740 
Q 4051 4051 3708 4390 
Q 3366 4730 3117 5062 
L 3283 5146 
z
M 3258 5331 
L 3418 5254 
Q 3091 4768 2614 4297 
Q 2138 3827 1578 3427 
Q 1018 3027 429 2739 
Q 403 2771 364 2809 
Q 326 2848 288 2874 
Q 883 3149 1440 3545 
Q 1997 3942 2467 4403 
Q 2938 4864 3258 5331 
z
M 5107 2118 
L 5152 2118 
L 5190 2138 
L 5325 2061 
Q 5139 1824 4889 1517 
Q 4640 1210 4361 867 
Q 4083 525 3801 185 
Q 3520 -154 3264 -454 
L 3085 -371 
Q 3347 -70 3632 269 
Q 3917 608 4192 944 
Q 4467 1280 4704 1577 
Q 4941 1875 5107 2086 
L 5107 2118 
z
" transform="scale(0.015625)"/>
      <path id="NotoSansSC-Thin-5f00" d="M 640 4851 
L 5811 4851 
L 5811 4659 
L 640 4659 
L 640 4851 
z
M 378 2573 
L 6029 2573 
L 6029 2387 
L 378 2387 
L 378 2573 
z
M 4301 4794 
L 4486 4794 
L 4486 -454 
L 4301 -454 
L 4301 4794 
z
M 2003 4800 
L 2189 4800 
L 2189 2938 
Q 2189 2470 2137 2009 
Q 2086 1549 1923 1113 
Q 1760 678 1433 278 
Q 1107 -122 557 -467 
Q 544 -442 521 -419 
Q 499 -397 473 -371 
Q 448 -346 422 -333 
Q 960 6 1277 390 
Q 1594 774 1750 1193 
Q 1907 1613 1955 2054 
Q 2003 2496 2003 2938 
L 2003 4800 
z
" transform="scale(0.015625)"/>
     </defs>
     <use xlink:href="#NotoSansSC-Thin-4eca"/>
     <use xlink:href="#NotoSansSC-Thin-65e5" transform="translate(99.999985 0)"/>
     <use xlink:href="#NotoSansSC-Thin-5f00" transform="translate(199.999969 0)"/>
     <use xlink:href="#NotoSansSC-Thin-76d8" transform="translate(299.999954 0)"/>
    </g>
   </g>
   <g id="text_11">
    <!-- 主要指数隔夜变化 — 斜率图 -->
    <g style="fill: #1e293b" transform="translate(132.313906 17.522812) scale(0.13 -0.13)">
     <defs>
      <path id="NotoSansSC-Thin-4e3b" d="M 710 3968 
L 5709 3968 
L 5709 3776 
L 710 3776 
L 710 3968 
z
M 960 2074 
L 5485 2074 
L 5485 1882 
L 960 1882 
L 960 2074 
z
M 390 -32 
L 6042 -32 
L 6042 -218 
L 390 -218 
L 390 -32 
z
M 3098 3866 
L 3290 3866 
L 3290 -115 
L 3098 -115 
L 3098 3866 
z
M 2573 5165 
L 2720 5254 
Q 2931 5094 3148 4899 
Q 3366 4704 3552 4512 
Q 3738 4320 3853 4166 
L 3699 4058 
Q 3590 4211 3404 4406 
Q 3219 4602 3001 4803 
Q 2784 5005 2573 5165 
z
" transform="scale(0.015625)"/>
      <path id="NotoSansSC-Thin-8981" d="M 403 1792 
L 5997 1792 
L 5997 1606 
L 403 1606 
L 403 1792 
z
M 499 4986 
L 5920 4986 
L 5920 4800 
L 499 4800 
L 499 4986 
z
M 4608 1734 
L 4774 1658 
Q 4576 1184 4211 825 
Q 3846 467 3308 214 
Q 2771 -38 2060 -195 
Q 1350 -352 474 -422 
Q 461 -384 435 -333 
Q 410 -282 378 -243 
Q 1549 -160 2393 73 
Q 3238 307 3785 716 
Q 4333 1126 4608 1734 
z
M 1280 640 
L 1446 787 
Q 2080 685 2701 560 
Q 3322 435 3898 291 
Q 4474 147 4973 -9 
Q 5472 -166 5862 -320 
L 5664 -467 
Q 5171 -262 4483 -64 
Q 3795 134 2979 313 
Q 2163 493 1280 640 
z
M 2310 4928 
L 2496 4928 
L 2496 2643 
L 2310 2643 
L 2310 4928 
z
M 3846 4928 
L 4032 4928 
L 4032 2643 
L 3846 2643 
L 3846 4928 
z
M 1030 3885 
L 1030 2746 
L 5402 2746 
L 5402 3885 
L 1030 3885 
z
M 845 4070 
L 5587 4070 
L 5587 2560 
L 845 2560 
L 845 4070 
z
M 1280 640 
Q 1504 890 1757 1216 
Q 2010 1542 2240 1891 
Q 2470 2240 2630 2547 
L 2810 2496 
Q 2650 2182 2419 1836 
Q 2189 1491 1945 1177 
Q 1702 864 1504 640 
L 1280 640 
z
" transform="scale(0.015625)"/>
      <path id="NotoSansSC-Thin-9694" d="M 576 5050 
L 2010 5050 
L 2010 4864 
L 768 4864 
L 768 -435 
L 576 -435 
L 576 5050 
z
M 1958 5050 
L 1997 5050 
L 2035 5062 
L 2157 4973 
Q 2003 4595 1817 4160 
Q 1632 3725 1446 3328 
Q 1850 2906 1984 2547 
Q 2118 2189 2118 1869 
Q 2118 1664 2070 1481 
Q 2022 1299 1901 1216 
Q 1843 1171 1766 1152 
Q 1690 1133 1600 1120 
Q 1498 1114 1379 1114 
Q 1261 1114 1158 1120 
Q 1152 1152 1133 1206 
Q 1114 1261 1082 1306 
Q 1216 1299 1337 1296 
Q 1459 1293 1549 1299 
Q 1690 1312 1779 1363 
Q 1869 1427 1901 1571 
Q 1933 1715 1933 1869 
Q 1933 2170 1789 2522 
Q 1645 2874 1222 3302 
Q 1331 3526 1433 3753 
Q 1536 3981 1632 4201 
Q 1728 4422 1811 4627 
Q 1894 4832 1958 5005 
L 1958 5050 
z
M 4160 1242 
L 4346 1242 
L 4346 -314 
L 4160 -314 
L 4160 1242 
z
M 3098 4115 
L 3098 3283 
L 5478 3283 
L 5478 4115 
L 3098 4115 
z
M 2912 4301 
L 5664 4301 
L 5664 3091 
L 2912 3091 
L 2912 4301 
z
M 2528 4979 
L 6061 4979 
L 6061 4794 
L 2528 4794 
L 2528 4979 
z
M 3130 1293 
L 5453 1293 
L 5453 1107 
L 3130 1107 
L 3130 1293 
z
M 2586 2605 
L 5843 2605 
L 5843 2413 
L 2771 2413 
L 2771 -448 
L 2586 -448 
L 2586 2605 
z
M 5773 2605 
L 5958 2605 
L 5958 -166 
Q 5958 -269 5929 -323 
Q 5901 -378 5818 -410 
Q 5734 -435 5571 -438 
Q 5408 -442 5146 -442 
Q 5139 -410 5116 -358 
Q 5094 -307 5069 -262 
Q 5293 -269 5456 -269 
Q 5619 -269 5677 -262 
Q 5773 -262 5773 -173 
L 5773 2605 
z
M 3283 2214 
L 3443 2291 
Q 3616 2093 3789 1849 
Q 3962 1606 4038 1434 
L 3878 1338 
Q 3795 1517 3625 1766 
Q 3456 2016 3283 2214 
z
M 5094 2272 
L 5267 2182 
Q 5120 1926 4934 1648 
Q 4749 1370 4582 1165 
L 4442 1242 
Q 4550 1376 4672 1558 
Q 4794 1741 4906 1933 
Q 5018 2125 5094 2272 
z
" transform="scale(0.015625)"/>
      <path id="NotoSansSC-Thin-591c" d="M 3411 3437 
L 5645 3437 
L 5645 3251 
L 3322 3251 
L 3411 3437 
z
M 2982 2688 
Q 3270 1997 3747 1401 
Q 4224 806 4841 364 
Q 5459 -77 6170 -307 
Q 6144 -326 6118 -355 
Q 6093 -384 6070 -413 
Q 6048 -442 6029 -467 
Q 5325 -218 4704 236 
Q 4083 691 3600 1302 
Q 3117 1914 2816 2624 
L 2982 2688 
z
M 3590 2797 
L 3731 2906 
Q 3974 2720 4224 2477 
Q 4474 2234 4614 2054 
L 4461 1920 
Q 4333 2106 4083 2352 
Q 3834 2598 3590 2797 
z
M 422 4525 
L 5984 4525 
L 5984 4333 
L 422 4333 
L 422 4525 
z
M 1984 4275 
L 2163 4224 
Q 1952 3718 1670 3248 
Q 1389 2778 1062 2371 
Q 736 1965 384 1651 
Q 371 1670 342 1692 
Q 314 1715 282 1740 
Q 250 1766 224 1779 
Q 582 2080 908 2477 
Q 1235 2874 1510 3331 
Q 1786 3789 1984 4275 
z
M 3712 4269 
L 3904 4211 
Q 3718 3757 3440 3289 
Q 3162 2822 2819 2396 
Q 2477 1971 2080 1638 
Q 2067 1658 2041 1683 
Q 2016 1709 1990 1734 
Q 1965 1760 1939 1773 
Q 2330 2093 2672 2505 
Q 3014 2918 3280 3372 
Q 3546 3827 3712 4269 
z
M 5568 3437 
L 5613 3437 
L 5658 3450 
L 5766 3386 
Q 5542 2592 5161 1971 
Q 4781 1350 4285 889 
Q 3789 429 3206 99 
Q 2624 -230 1997 -442 
Q 1984 -416 1961 -390 
Q 1939 -365 1916 -336 
Q 1894 -307 1869 -294 
Q 2701 -26 3443 454 
Q 4186 934 4739 1660 
Q 5293 2387 5568 3392 
L 5568 3437 
z
M 1331 2950 
L 1523 3142 
L 1517 3136 
L 1517 -442 
L 1331 -442 
L 1331 2950 
z
M 2867 5280 
L 3040 5338 
Q 3168 5171 3296 4956 
Q 3424 4742 3488 4595 
L 3322 4518 
Q 3258 4672 3130 4886 
Q 3002 5101 2867 5280 
z
" transform="scale(0.015625)"/>
      <path id="NotoSansSC-Thin-53d8" d="M 2400 4589 
L 2592 4589 
L 2592 2330 
L 2400 2330 
L 2400 4589 
z
M 480 4627 
L 5926 4627 
L 5926 4442 
L 480 4442 
L 480 4627 
z
M 1645 4058 
L 1824 4013 
Q 1664 3603 1411 3222 
Q 1158 2842 896 2573 
Q 883 2586 854 2608 
Q 826 2630 794 2652 
Q 762 2675 736 2688 
Q 1018 2950 1254 3312 
Q 1491 3674 1645 4058 
z
M 4525 3930 
L 4678 3987 
Q 4890 3782 5104 3536 
Q 5318 3290 5500 3053 
Q 5683 2816 5792 2630 
L 5613 2547 
Q 5504 2739 5325 2982 
Q 5146 3226 4934 3475 
Q 4723 3725 4525 3930 
z
M 2886 5299 
L 3053 5357 
Q 3187 5190 3315 4976 
Q 3443 4762 3507 4608 
L 3334 4538 
Q 3270 4691 3142 4905 
Q 3014 5120 2886 5299 
z
M 3808 4602 
L 3994 4602 
L 3994 2342 
L 3808 2342 
L 3808 4602 
z
M 1562 2074 
Q 1952 1421 2624 934 
Q 3296 448 4173 141 
Q 5050 -166 6061 -294 
Q 6042 -314 6019 -346 
Q 5997 -378 5977 -406 
Q 5958 -435 5946 -461 
Q 4947 -314 4064 0 
Q 3181 314 2496 813 
Q 1811 1312 1408 1990 
L 1562 2074 
z
M 909 2112 
L 4947 2112 
L 4947 1926 
L 909 1926 
L 909 2112 
z
M 4877 2112 
L 4928 2112 
L 4973 2125 
L 5094 2035 
Q 4781 1498 4291 1085 
Q 3802 672 3194 374 
Q 2586 77 1904 -131 
Q 1222 -339 531 -467 
Q 518 -442 499 -410 
Q 480 -378 457 -346 
Q 435 -314 416 -294 
Q 1101 -179 1773 19 
Q 2445 218 3043 506 
Q 3642 794 4115 1184 
Q 4589 1574 4877 2074 
L 4877 2112 
z
" transform="scale(0.015625)"/>
      <path id="NotoSansSC-Thin-5316" d="M 3405 5184 
L 3597 5184 
L 3597 275 
Q 3597 26 3683 -54 
Q 3770 -134 4038 -134 
Q 4109 -134 4294 -134 
Q 4480 -134 4704 -134 
Q 4928 -134 5123 -134 
Q 5318 -134 5408 -134 
Q 5606 -134 5702 -12 
Q 5798 109 5840 419 
Q 5882 730 5901 1293 
Q 5933 1274 5965 1251 
Q 5997 1229 6029 1216 
Q 6061 1203 6093 1190 
Q 6067 614 6016 284 
Q 5965 -45 5824 -185 
Q 5683 -326 5389 -326 
Q 5350 -326 5216 -326 
Q 5082 -326 4902 -326 
Q 4723 -326 4540 -326 
Q 4358 -326 4227 -326 
Q 4096 -326 4058 -326 
Q 3808 -326 3667 -275 
Q 3526 -224 3465 -93 
Q 3405 38 3405 288 
L 3405 5184 
z
M 5683 4288 
L 5875 4186 
Q 5466 3597 4893 3053 
Q 4320 2509 3667 2041 
Q 3014 1574 2355 1210 
Q 2336 1235 2313 1257 
Q 2291 1280 2265 1305 
Q 2240 1331 2214 1350 
Q 2874 1696 3523 2157 
Q 4173 2618 4736 3162 
Q 5299 3706 5683 4288 
z
M 2182 5293 
L 2362 5242 
Q 2138 4704 1840 4192 
Q 1542 3680 1203 3235 
Q 864 2790 506 2438 
Q 493 2458 464 2486 
Q 435 2515 409 2547 
Q 384 2579 358 2592 
Q 723 2925 1062 3353 
Q 1402 3782 1690 4278 
Q 1978 4774 2182 5293 
z
M 1498 3904 
L 1677 4077 
L 1690 4070 
L 1690 -454 
L 1498 -454 
L 1498 3904 
z
" transform="scale(0.015625)"/>
      <path id="NotoSansSC-Thin-2014" d="M 282 1664 
L 282 1862 
L 5350 1862 
L 5350 1664 
L 282 1664 
z
" transform="scale(0.015625)"/>
      <path id="NotoSansSC-Thin-659c" d="M 2509 1658 
L 2682 1728 
Q 2816 1523 2941 1289 
Q 3066 1056 3162 832 
Q 3258 608 3302 442 
L 3123 352 
Q 3078 525 2982 752 
Q 2886 979 2764 1216 
Q 2643 1453 2509 1658 
z
M 1766 3514 
L 1952 3514 
L 1952 -134 
Q 1952 -256 1913 -310 
Q 1875 -365 1786 -397 
Q 1696 -416 1510 -419 
Q 1325 -422 998 -422 
Q 992 -390 966 -339 
Q 941 -288 915 -250 
Q 1184 -256 1382 -256 
Q 1581 -256 1645 -250 
Q 1715 -243 1740 -220 
Q 1766 -198 1766 -134 
L 1766 3514 
z
M 794 3565 
L 2944 3565 
L 2944 3373 
L 794 3373 
L 794 3565 
z
M 339 2432 
L 3251 2432 
L 3251 2246 
L 339 2246 
L 339 2432 
z
M 1011 1734 
L 1197 1690 
Q 1075 1267 892 860 
Q 710 454 506 166 
Q 486 186 454 205 
Q 422 224 390 243 
Q 358 262 333 275 
Q 550 563 723 944 
Q 896 1325 1011 1734 
z
M 5242 5318 
L 5440 5318 
L 5440 -467 
L 5242 -467 
L 5242 5318 
z
M 3296 1229 
L 6125 1811 
L 6163 1651 
L 3341 1062 
L 3296 1229 
z
M 3437 3136 
L 3565 3264 
Q 3776 3149 3993 2995 
Q 4211 2842 4400 2685 
Q 4589 2528 4698 2394 
L 4576 2240 
Q 4461 2381 4275 2541 
Q 4090 2701 3872 2857 
Q 3654 3014 3437 3136 
z
M 3686 4742 
L 3821 4864 
Q 4026 4730 4230 4566 
Q 4435 4403 4614 4236 
Q 4794 4070 4902 3936 
L 4768 3795 
Q 4659 3936 4483 4102 
Q 4307 4269 4099 4438 
Q 3891 4608 3686 4742 
z
M 2029 5267 
L 2214 5210 
Q 1990 4826 1680 4477 
Q 1370 4128 1021 3830 
Q 672 3533 320 3302 
Q 307 3322 278 3350 
Q 250 3379 224 3408 
Q 198 3437 173 3456 
Q 525 3674 870 3958 
Q 1216 4243 1517 4576 
Q 1818 4909 2029 5267 
z
M 1837 4915 
L 1952 5037 
Q 2227 4858 2496 4650 
Q 2765 4442 3001 4234 
Q 3238 4026 3418 3827 
L 3290 3686 
Q 3117 3885 2880 4096 
Q 2643 4307 2374 4518 
Q 2106 4730 1837 4915 
z
" transform="scale(0.015625)"/>
      <path id="NotoSansSC-Thin-7387" d="M 3104 1888 
L 3296 1888 
L 3296 -454 
L 3104 -454 
L 3104 1888 
z
M 378 1267 
L 6029 1267 
L 6029 1082 
L 378 1082 
L 378 1267 
z
M 467 4672 
L 6003 4672 
L 6003 4486 
L 467 4486 
L 467 4672 
z
M 5382 4115 
L 5549 4000 
Q 5325 3776 5049 3552 
Q 4774 3328 4531 3162 
L 4390 3277 
Q 4550 3386 4732 3533 
Q 4915 3680 5088 3833 
Q 5261 3987 5382 4115 
z
M 3539 2867 
L 3693 2963 
Q 3853 2810 4009 2624 
Q 4166 2438 4300 2262 
Q 4435 2086 4512 1946 
L 4346 1830 
Q 4275 1971 4144 2153 
Q 4013 2336 3856 2525 
Q 3699 2714 3539 2867 
z
M 461 2048 
Q 755 2189 1177 2406 
Q 1600 2624 2029 2854 
L 2080 2694 
Q 1690 2477 1296 2265 
Q 902 2054 576 1888 
L 461 2048 
z
M 653 3987 
L 794 4102 
Q 973 3994 1161 3859 
Q 1350 3725 1513 3590 
Q 1677 3456 1786 3341 
L 1638 3206 
Q 1536 3322 1373 3459 
Q 1210 3597 1021 3737 
Q 832 3878 653 3987 
z
M 4384 2714 
L 4544 2822 
Q 4768 2688 5008 2521 
Q 5248 2355 5465 2188 
Q 5683 2022 5824 1888 
L 5664 1766 
Q 5530 1901 5315 2067 
Q 5101 2234 4857 2403 
Q 4614 2573 4384 2714 
z
M 2118 3226 
Q 2112 3251 2102 3292 
Q 2093 3334 2080 3372 
Q 2067 3411 2054 3437 
Q 2118 3450 2185 3501 
Q 2253 3552 2330 3635 
Q 2387 3693 2515 3846 
Q 2643 4000 2796 4211 
Q 2950 4422 3066 4634 
L 3264 4550 
Q 3046 4198 2796 3891 
Q 2547 3584 2304 3360 
L 2304 3354 
Q 2304 3354 2275 3344 
Q 2246 3334 2211 3315 
Q 2176 3296 2147 3273 
Q 2118 3251 2118 3226 
z
M 2118 3226 
L 2118 3392 
L 2272 3475 
L 3590 3584 
Q 3571 3546 3555 3488 
Q 3539 3430 3526 3398 
Q 3085 3360 2819 3331 
Q 2554 3302 2413 3286 
Q 2272 3270 2211 3254 
Q 2150 3238 2118 3226 
z
M 1990 1952 
Q 1984 1978 1971 2016 
Q 1958 2054 1945 2096 
Q 1933 2138 1920 2170 
Q 2010 2182 2138 2272 
Q 2266 2362 2419 2496 
Q 2509 2566 2681 2729 
Q 2854 2893 3075 3113 
Q 3296 3334 3529 3593 
Q 3763 3853 3974 4122 
L 4166 4019 
Q 3680 3456 3177 2953 
Q 2675 2451 2176 2086 
L 2176 2080 
Q 2176 2080 2147 2070 
Q 2118 2061 2083 2041 
Q 2048 2022 2019 2000 
Q 1990 1978 1990 1952 
z
M 1990 1952 
L 1990 2118 
L 2150 2208 
L 4154 2387 
Q 4160 2342 4173 2291 
Q 4186 2240 4198 2208 
Q 3482 2138 3059 2096 
Q 2637 2054 2419 2028 
Q 2202 2003 2115 1987 
Q 2029 1971 1990 1952 
z
M 2950 5306 
L 3104 5370 
Q 3232 5210 3350 5008 
Q 3469 4806 3526 4659 
L 3360 4582 
Q 3302 4730 3184 4934 
Q 3066 5139 2950 5306 
z
" transform="scale(0.015625)"/>
      <path id="NotoSansSC-Thin-56fe" d="M 614 4998 
L 5786 4998 
L 5786 -448 
L 5594 -448 
L 5594 4813 
L 806 4813 
L 806 -448 
L 614 -448 
L 614 4998 
z
M 704 45 
L 5734 45 
L 5734 -141 
L 704 -141 
L 704 45 
z
M 2509 1856 
L 2605 2010 
Q 2848 1958 3120 1878 
Q 3392 1798 3638 1705 
Q 3885 1613 4045 1530 
L 3955 1363 
Q 3789 1446 3542 1542 
Q 3296 1638 3027 1721 
Q 2758 1805 2509 1856 
z
M 2701 4531 
L 2880 4474 
Q 2701 4173 2461 3894 
Q 2221 3616 1952 3379 
Q 1683 3142 1408 2957 
Q 1395 2976 1363 2998 
Q 1331 3021 1299 3043 
Q 1267 3066 1242 3078 
Q 1664 3341 2057 3721 
Q 2451 4102 2701 4531 
z
M 4429 4026 
L 4474 4026 
L 4512 4038 
L 4627 3962 
Q 4390 3558 4003 3232 
Q 3616 2906 3145 2653 
Q 2675 2400 2179 2221 
Q 1683 2042 1216 1933 
Q 1203 1958 1187 1990 
Q 1171 2022 1152 2051 
Q 1133 2080 1114 2093 
Q 1574 2189 2060 2358 
Q 2547 2528 3004 2768 
Q 3462 3008 3833 3312 
Q 4205 3616 4429 3981 
L 4429 4026 
z
M 2259 3770 
Q 2547 3379 3024 3056 
Q 3501 2733 4083 2502 
Q 4666 2272 5274 2157 
Q 5248 2131 5213 2086 
Q 5178 2042 5158 1997 
Q 4557 2125 3968 2368 
Q 3379 2611 2892 2947 
Q 2406 3283 2106 3693 
L 2259 3770 
z
M 2381 4026 
L 4499 4026 
L 4499 3840 
L 2266 3840 
L 2381 4026 
z
M 1818 1050 
L 1920 1210 
Q 2240 1171 2598 1107 
Q 2957 1043 3309 966 
Q 3661 890 3968 810 
Q 4275 730 4493 653 
L 4397 480 
Q 4102 582 3667 691 
Q 3232 800 2745 899 
Q 2259 998 1818 1050 
z
" transform="scale(0.015625)"/>
     </defs>
     <use xlink:href="#NotoSansSC-Thin-4e3b"/>
     <use xlink:href="#NotoSansSC-Thin-8981" transform="translate(99.999985 0)"/>
     <use xlink:href="#NotoSansSC-Thin-6307" transform="translate(199.999969 0)"/>
     <use xlink:href="#NotoSansSC-Thin-6570" transform="translate(299.999954 0)"/>
     <use xlink:href="#NotoSansSC-Thin-9694" transform="translate(399.999939 0)"/>
     <use xlink:href="#NotoSansSC-Thin-591c" transform="translate(499.999924 0)"/>
     <use xlink:href="#NotoSansSC-Thin-53d8" transform="translate(599.999908 0)"/>
     <use xlink:href="#NotoSansSC-Thin-5316" transform="translate(699.999893 0)"/>
     <use xlink:href="#NotoSansSC-Thin-20" transform="translate(799.999878 0)"/>
     <use xlink:href="#NotoSansSC-Thin-2014" transform="translate(821.999863 0)"/>
     <use xlink:href="#NotoSansSC-Thin-20" transform="translate(910.099854 0)"/>
     <use xlink:href="#NotoSansSC-Thin-659c" transform="translate(932.099838 0)"/>
     <use xlink:href="#NotoSansSC-Thin-7387" transform="translate(1032.099823 0)"/>
     <use xlink:href="#NotoSansSC-Thin-56fe" transform="translate(1132.099808 0)"/>
    </g>
   </g>
  </g>
 </g>
 <defs>
  <clipPath id="pb7e370f159">
   <rect x="7.2" y="31.522813" width="410.4" height="227.2"/>
  </clipPath>
 </defs>
</svg>
