<?xml version="1.0" encoding="utf-8" standalone="no"?>
<!DOCTYPE svg PUBLIC "-//W3C//DTD SVG 1.1//EN"
  "http://www.w3.org/Graphics/SVG/1.1/DTD/svg11.dtd">
<svg xmlns:xlink="http://www.w3.org/1999/xlink" width="223.1pt" height="278.321406pt" viewBox="0 0 223.1 278.321406" xmlns="http://www.w3.org/2000/svg" version="1.1">
 <metadata>
  <rdf:RDF xmlns:dc="http://purl.org/dc/elements/1.1/" xmlns:cc="http://creativecommons.org/ns#" xmlns:rdf="http://www.w3.org/1999/02/22-rdf-syntax-ns#">
   <cc:Work>
    <dc:type rdf:resource="http://purl.org/dc/dcmitype/StillImage"/>
    <dc:date>2026-05-27T13:25:50.211508</dc:date>
    <dc:format>image/svg+xml</dc:format>
    <dc:creator>
     <cc:Agent>
      <dc:title>Matplotlib v3.10.9, https://matplotlib.org/</dc:title>
     </cc:Agent>
    </dc:creator>
   </cc:Work>
  </rdf:RDF>
 </metadata>
 <defs>
  <style type="text/css">*{stroke-linejoin: round; stroke-linecap: butt}</style>
 </defs>
 <g id="figure_1">
  <g id="patch_1">
   <path d="M 0 278.321406 
L 223.1 278.321406 
L 223.1 0 
L 0 0 
z
" style="fill: #f8fafc"/>
  </g>
  <g id="axes_1">
   <g id="patch_2">
    <path d="M 7.2 271.121406 
L 215.9 271.121406 
L 215.9 20.681406 
L 7.2 20.681406 
z
" style="fill: #f8fafc"/>
   </g>
   <g id="matplotlib.axis_1">
    <g id="xtick_1"/>
    <g id="xtick_2"/>
    <g id="xtick_3"/>
    <g id="xtick_4"/>
    <g id="xtick_5"/>
    <g id="xtick_6"/>
   </g>
   <g id="matplotlib.axis_2">
    <g id="ytick_1"/>
    <g id="ytick_2"/>
    <g id="ytick_3"/>
    <g id="ytick_4"/>
    <g id="ytick_5"/>
    <g id="ytick_6"/>
   </g>
   <g id="patch_3">
    <path d="M 7.2 62.421406 
L 24.9395 62.421406 
L 24.9395 44.681906 
L 7.2 44.681906 
z
" clip-path="url(#p7565e4ec41)" style="fill: #dc2626; stroke: #ffffff; stroke-width: 1.5; stroke-linejoin: miter"/>
   </g>
   <g id="patch_4">
    <path d="M 28.07 62.421406 
L 45.8095 62.421406 
L 45.8095 44.681906 
L 28.07 44.681906 
z
" clip-path="url(#p7565e4ec41)" style="fill: #dc2626; stroke: #ffffff; stroke-width: 1.5; stroke-linejoin: miter"/>
   </g>
   <g id="patch_5">
    <path d="M 48.94 62.421406 
L 66.6795 62.421406 
L 66.6795 44.681906 
L 48.94 44.681906 
z
" clip-path="url(#p7565e4ec41)" style="fill: #dc2626; stroke: #ffffff; stroke-width: 1.5; stroke-linejoin: miter"/>
   </g>
   <g id="patch_6">
    <path d="M 69.81 62.421406 
L 87.5495 62.421406 
L 87.5495 44.681906 
L 69.81 44.681906 
z
" clip-path="url(#p7565e4ec41)" style="fill: #dc2626; stroke: #ffffff; stroke-width: 1.5; stroke-linejoin: miter"/>
   </g>
   <g id="patch_7">
    <path d="M 90.68 62.421406 
L 108.4195 62.421406 
L 108.4195 44.681906 
L 90.68 44.681906 
z
" clip-path="url(#p7565e4ec41)" style="fill: #dc2626; stroke: #ffffff; stroke-width: 1.5; stroke-linejoin: miter"/>
   </g>
   <g id="patch_8">
    <path d="M 111.55 62.421406 
L 129.2895 62.421406 
L 129.2895 44.681906 
L 111.55 44.681906 
z
" clip-path="url(#p7565e4ec41)" style="fill: #dc2626; stroke: #ffffff; stroke-width: 1.5; stroke-linejoin: miter"/>
   </g>
   <g id="patch_9">
    <path d="M 132.42 62.421406 
L 150.1595 62.421406 
L 150.1595 44.681906 
L 132.42 44.681906 
z
" clip-path="url(#p7565e4ec41)" style="fill: #dc2626; stroke: #ffffff; stroke-width: 1.5; stroke-linejoin: miter"/>
   </g>
   <g id="patch_10">
    <path d="M 153.29 62.421406 
L 171.0295 62.421406 
L 171.0295 44.681906 
L 153.29 44.681906 
z
" clip-path="url(#p7565e4ec41)" style="fill: #dc2626; stroke: #ffffff; stroke-width: 1.5; stroke-linejoin: miter"/>
   </g>
   <g id="patch_11">
    <path d="M 174.16 62.421406 
L 191.8995 62.421406 
L 191.8995 44.681906 
L 174.16 44.681906 
z
" clip-path="url(#p7565e4ec41)" style="fill: #dc2626; stroke: #ffffff; stroke-width: 1.5; stroke-linejoin: miter"/>
   </g>
   <g id="patch_12">
    <path d="M 195.03 62.421406 
L 212.7695 62.421406 
L 212.7695 44.681906 
L 195.03 44.681906 
z
" clip-path="url(#p7565e4ec41)" style="fill: #dc2626; stroke: #ffffff; stroke-width: 1.5; stroke-linejoin: miter"/>
   </g>
   <g id="patch_13">
    <path d="M 7.2 83.291406 
L 24.9395 83.291406 
L 24.9395 65.551906 
L 7.2 65.551906 
z
" clip-path="url(#p7565e4ec41)" style="fill: #dc2626; stroke: #ffffff; stroke-width: 1.5; stroke-linejoin: miter"/>
   </g>
   <g id="patch_14">
    <path d="M 28.07 83.291406 
L 45.8095 83.291406 
L 45.8095 65.551906 
L 28.07 65.551906 
z
" clip-path="url(#p7565e4ec41)" style="fill: #dc2626; stroke: #ffffff; stroke-width: 1.5; stroke-linejoin: miter"/>
   </g>
   <g id="patch_15">
    <path d="M 48.94 83.291406 
L 66.6795 83.291406 
L 66.6795 65.551906 
L 48.94 65.551906 
z
" clip-path="url(#p7565e4ec41)" style="fill: #dc2626; stroke: #ffffff; stroke-width: 1.5; stroke-linejoin: miter"/>
   </g>
   <g id="patch_16">
    <path d="M 69.81 83.291406 
L 87.5495 83.291406 
L 87.5495 65.551906 
L 69.81 65.551906 
z
" clip-path="url(#p7565e4ec41)" style="fill: #dc2626; stroke: #ffffff; stroke-width: 1.5; stroke-linejoin: miter"/>
   </g>
   <g id="patch_17">
    <path d="M 90.68 83.291406 
L 108.4195 83.291406 
L 108.4195 65.551906 
L 90.68 65.551906 
z
" clip-path="url(#p7565e4ec41)" style="fill: #dc2626; stroke: #ffffff; stroke-width: 1.5; stroke-linejoin: miter"/>
   </g>
   <g id="patch_18">
    <path d="M 111.55 83.291406 
L 129.2895 83.291406 
L 129.2895 65.551906 
L 111.55 65.551906 
z
" clip-path="url(#p7565e4ec41)" style="fill: #dc2626; stroke: #ffffff; stroke-width: 1.5; stroke-linejoin: miter"/>
   </g>
   <g id="patch_19">
    <path d="M 132.42 83.291406 
L 150.1595 83.291406 
L 150.1595 65.551906 
L 132.42 65.551906 
z
" clip-path="url(#p7565e4ec41)" style="fill: #dc2626; stroke: #ffffff; stroke-width: 1.5; stroke-linejoin: miter"/>
   </g>
   <g id="patch_20">
    <path d="M 153.29 83.291406 
L 171.0295 83.291406 
L 171.0295 65.551906 
L 153.29 65.551906 
z
" clip-path="url(#p7565e4ec41)" style="fill: #dc2626; stroke: #ffffff; stroke-width: 1.5; stroke-linejoin: miter"/>
   </g>
   <g id="patch_21">
    <path d="M 174.16 83.291406 
L 191.8995 83.291406 
L 191.8995 65.551906 
L 174.16 65.551906 
z
" clip-path="url(#p7565e4ec41)" style="fill: #dc2626; stroke: #ffffff; stroke-width: 1.5; stroke-linejoin: miter"/>
   </g>
   <g id="patch_22">
    <path d="M 195.03 83.291406 
L 212.7695 83.291406 
L 212.7695 65.551906 
L 195.03 65.551906 
z
" clip-path="url(#p7565e4ec41)" style="fill: #dc2626; stroke: #ffffff; stroke-width: 1.5; stroke-linejoin: miter"/>
   </g>
   <g id="patch_23">
    <path d="M 7.2 104.161406 
L 24.9395 104.161406 
L 24.9395 86.421906 
L 7.2 86.421906 
z
" clip-path="url(#p7565e4ec41)" style="fill: #dc2626; stroke: #ffffff; stroke-width: 1.5; stroke-linejoin: miter"/>
   </g>
   <g id="patch_24">
    <path d="M 28.07 104.161406 
L 45.8095 104.161406 
L 45.8095 86.421906 
L 28.07 86.421906 
z
" clip-path="url(#p7565e4ec41)" style="fill: #dc2626; stroke: #ffffff; stroke-width: 1.5; stroke-linejoin: miter"/>
   </g>
   <g id="patch_25">
    <path d="M 48.94 104.161406 
L 66.6795 104.161406 
L 66.6795 86.421906 
L 48.94 86.421906 
z
" clip-path="url(#p7565e4ec41)" style="fill: #dc2626; stroke: #ffffff; stroke-width: 1.5; stroke-linejoin: miter"/>
   </g>
   <g id="patch_26">
    <path d="M 69.81 104.161406 
L 87.5495 104.161406 
L 87.5495 86.421906 
L 69.81 86.421906 
z
" clip-path="url(#p7565e4ec41)" style="fill: #dc2626; stroke: #ffffff; stroke-width: 1.5; stroke-linejoin: miter"/>
   </g>
   <g id="patch_27">
    <path d="M 90.68 104.161406 
L 108.4195 104.161406 
L 108.4195 86.421906 
L 90.68 86.421906 
z
" clip-path="url(#p7565e4ec41)" style="fill: #dc2626; stroke: #ffffff; stroke-width: 1.5; stroke-linejoin: miter"/>
   </g>
   <g id="patch_28">
    <path d="M 111.55 104.161406 
L 129.2895 104.161406 
L 129.2895 86.421906 
L 111.55 86.421906 
z
" clip-path="url(#p7565e4ec41)" style="fill: #dc2626; stroke: #ffffff; stroke-width: 1.5; stroke-linejoin: miter"/>
   </g>
   <g id="patch_29">
    <path d="M 132.42 104.161406 
L 150.1595 104.161406 
L 150.1595 86.421906 
L 132.42 86.421906 
z
" clip-path="url(#p7565e4ec41)" style="fill: #dc2626; stroke: #ffffff; stroke-width: 1.5; stroke-linejoin: miter"/>
   </g>
   <g id="patch_30">
    <path d="M 153.29 104.161406 
L 171.0295 104.161406 
L 171.0295 86.421906 
L 153.29 86.421906 
z
" clip-path="url(#p7565e4ec41)" style="fill: #dc2626; stroke: #ffffff; stroke-width: 1.5; stroke-linejoin: miter"/>
   </g>
   <g id="patch_31">
    <path d="M 174.16 104.161406 
L 191.8995 104.161406 
L 191.8995 86.421906 
L 174.16 86.421906 
z
" clip-path="url(#p7565e4ec41)" style="fill: #dc2626; stroke: #ffffff; stroke-width: 1.5; stroke-linejoin: miter"/>
   </g>
   <g id="patch_32">
    <path d="M 195.03 104.161406 
L 212.7695 104.161406 
L 212.7695 86.421906 
L 195.03 86.421906 
z
" clip-path="url(#p7565e4ec41)" style="fill: #dc2626; stroke: #ffffff; stroke-width: 1.5; stroke-linejoin: miter"/>
   </g>
   <g id="patch_33">
    <path d="M 7.2 125.031406 
L 24.9395 125.031406 
L 24.9395 107.291906 
L 7.2 107.291906 
z
" clip-path="url(#p7565e4ec41)" style="fill: #dc2626; stroke: #ffffff; stroke-width: 1.5; stroke-linejoin: miter"/>
   </g>
   <g id="patch_34">
    <path d="M 28.07 125.031406 
L 45.8095 125.031406 
L 45.8095 107.291906 
L 28.07 107.291906 
z
" clip-path="url(#p7565e4ec41)" style="fill: #dc2626; stroke: #ffffff; stroke-width: 1.5; stroke-linejoin: miter"/>
   </g>
   <g id="patch_35">
    <path d="M 48.94 125.031406 
L 66.6795 125.031406 
L 66.6795 107.291906 
L 48.94 107.291906 
z
" clip-path="url(#p7565e4ec41)" style="fill: #dc2626; stroke: #ffffff; stroke-width: 1.5; stroke-linejoin: miter"/>
   </g>
   <g id="patch_36">
    <path d="M 69.81 125.031406 
L 87.5495 125.031406 
L 87.5495 107.291906 
L 69.81 107.291906 
z
" clip-path="url(#p7565e4ec41)" style="fill: #dc2626; stroke: #ffffff; stroke-width: 1.5; stroke-linejoin: miter"/>
   </g>
   <g id="patch_37">
    <path d="M 90.68 125.031406 
L 108.4195 125.031406 
L 108.4195 107.291906 
L 90.68 107.291906 
z
" clip-path="url(#p7565e4ec41)" style="fill: #dc2626; stroke: #ffffff; stroke-width: 1.5; stroke-linejoin: miter"/>
   </g>
   <g id="patch_38">
    <path d="M 111.55 125.031406 
L 129.2895 125.031406 
L 129.2895 107.291906 
L 111.55 107.291906 
z
" clip-path="url(#p7565e4ec41)" style="fill: #dc2626; stroke: #ffffff; stroke-width: 1.5; stroke-linejoin: miter"/>
   </g>
   <g id="patch_39">
    <path d="M 132.42 125.031406 
L 150.1595 125.031406 
L 150.1595 107.291906 
L 132.42 107.291906 
z
" clip-path="url(#p7565e4ec41)" style="fill: #dc2626; stroke: #ffffff; stroke-width: 1.5; stroke-linejoin: miter"/>
   </g>
   <g id="patch_40">
    <path d="M 153.29 125.031406 
L 171.0295 125.031406 
L 171.0295 107.291906 
L 153.29 107.291906 
z
" clip-path="url(#p7565e4ec41)" style="fill: #dc2626; stroke: #ffffff; stroke-width: 1.5; stroke-linejoin: miter"/>
   </g>
   <g id="patch_41">
    <path d="M 174.16 125.031406 
L 191.8995 125.031406 
L 191.8995 107.291906 
L 174.16 107.291906 
z
" clip-path="url(#p7565e4ec41)" style="fill: #dc2626; stroke: #ffffff; stroke-width: 1.5; stroke-linejoin: miter"/>
   </g>
   <g id="patch_42">
    <path d="M 195.03 125.031406 
L 212.7695 125.031406 
L 212.7695 107.291906 
L 195.03 107.291906 
z
" clip-path="url(#p7565e4ec41)" style="fill: #dc2626; stroke: #ffffff; stroke-width: 1.5; stroke-linejoin: miter"/>
   </g>
   <g id="patch_43">
    <path d="M 7.2 145.901406 
L 24.9395 145.901406 
L 24.9395 128.161906 
L 7.2 128.161906 
z
" clip-path="url(#p7565e4ec41)" style="fill: #dc2626; stroke: #ffffff; stroke-width: 1.5; stroke-linejoin: miter"/>
   </g>
   <g id="patch_44">
    <path d="M 28.07 145.901406 
L 45.8095 145.901406 
L 45.8095 128.161906 
L 28.07 128.161906 
z
" clip-path="url(#p7565e4ec41)" style="fill: #dc2626; stroke: #ffffff; stroke-width: 1.5; stroke-linejoin: miter"/>
   </g>
   <g id="patch_45">
    <path d="M 48.94 145.901406 
L 66.6795 145.901406 
L 66.6795 128.161906 
L 48.94 128.161906 
z
" clip-path="url(#p7565e4ec41)" style="fill: #dc2626; stroke: #ffffff; stroke-width: 1.5; stroke-linejoin: miter"/>
   </g>
   <g id="patch_46">
    <path d="M 69.81 145.901406 
L 87.5495 145.901406 
L 87.5495 128.161906 
L 69.81 128.161906 
z
" clip-path="url(#p7565e4ec41)" style="fill: #dc2626; stroke: #ffffff; stroke-width: 1.5; stroke-linejoin: miter"/>
   </g>
   <g id="patch_47">
    <path d="M 90.68 145.901406 
L 108.4195 145.901406 
L 108.4195 128.161906 
L 90.68 128.161906 
z
" clip-path="url(#p7565e4ec41)" style="fill: #dc2626; stroke: #ffffff; stroke-width: 1.5; stroke-linejoin: miter"/>
   </g>
   <g id="patch_48">
    <path d="M 111.55 145.901406 
L 129.2895 145.901406 
L 129.2895 128.161906 
L 111.55 128.161906 
z
" clip-path="url(#p7565e4ec41)" style="fill: #dc2626; stroke: #ffffff; stroke-width: 1.5; stroke-linejoin: miter"/>
   </g>
   <g id="patch_49">
    <path d="M 132.42 145.901406 
L 150.1595 145.901406 
L 150.1595 128.161906 
L 132.42 128.161906 
z
" clip-path="url(#p7565e4ec41)" style="fill: #dc2626; stroke: #ffffff; stroke-width: 1.5; stroke-linejoin: miter"/>
   </g>
   <g id="patch_50">
    <path d="M 153.29 145.901406 
L 171.0295 145.901406 
L 171.0295 128.161906 
L 153.29 128.161906 
z
" clip-path="url(#p7565e4ec41)" style="fill: #dc2626; stroke: #ffffff; stroke-width: 1.5; stroke-linejoin: miter"/>
   </g>
   <g id="patch_51">
    <path d="M 174.16 145.901406 
L 191.8995 145.901406 
L 191.8995 128.161906 
L 174.16 128.161906 
z
" clip-path="url(#p7565e4ec41)" style="fill: #dc2626; stroke: #ffffff; stroke-width: 1.5; stroke-linejoin: miter"/>
   </g>
   <g id="patch_52">
    <path d="M 195.03 145.901406 
L 212.7695 145.901406 
L 212.7695 128.161906 
L 195.03 128.161906 
z
" clip-path="url(#p7565e4ec41)" style="fill: #dc2626; stroke: #ffffff; stroke-width: 1.5; stroke-linejoin: miter"/>
   </g>
   <g id="patch_53">
    <path d="M 7.2 166.771406 
L 24.9395 166.771406 
L 24.9395 149.031906 
L 7.2 149.031906 
z
" clip-path="url(#p7565e4ec41)" style="fill: #dc2626; stroke: #ffffff; stroke-width: 1.5; stroke-linejoin: miter"/>
   </g>
   <g id="patch_54">
    <path d="M 28.07 166.771406 
L 45.8095 166.771406 
L 45.8095 149.031906 
L 28.07 149.031906 
z
" clip-path="url(#p7565e4ec41)" style="fill: #dc2626; stroke: #ffffff; stroke-width: 1.5; stroke-linejoin: miter"/>
   </g>
   <g id="patch_55">
    <path d="M 48.94 166.771406 
L 66.6795 166.771406 
L 66.6795 149.031906 
L 48.94 149.031906 
z
" clip-path="url(#p7565e4ec41)" style="fill: #dc2626; stroke: #ffffff; stroke-width: 1.5; stroke-linejoin: miter"/>
   </g>
   <g id="patch_56">
    <path d="M 69.81 166.771406 
L 87.5495 166.771406 
L 87.5495 149.031906 
L 69.81 149.031906 
z
" clip-path="url(#p7565e4ec41)" style="fill: #dc2626; stroke: #ffffff; stroke-width: 1.5; stroke-linejoin: miter"/>
   </g>
   <g id="patch_57">
    <path d="M 90.68 166.771406 
L 108.4195 166.771406 
L 108.4195 149.031906 
L 90.68 149.031906 
z
" clip-path="url(#p7565e4ec41)" style="fill: #dc2626; stroke: #ffffff; stroke-width: 1.5; stroke-linejoin: miter"/>
   </g>
   <g id="patch_58">
    <path d="M 111.55 166.771406 
L 129.2895 166.771406 
L 129.2895 149.031906 
L 111.55 149.031906 
z
" clip-path="url(#p7565e4ec41)" style="fill: #dc2626; stroke: #ffffff; stroke-width: 1.5; stroke-linejoin: miter"/>
   </g>
   <g id="patch_59">
    <path d="M 132.42 166.771406 
L 150.1595 166.771406 
L 150.1595 149.031906 
L 132.42 149.031906 
z
" clip-path="url(#p7565e4ec41)" style="fill: #dc2626; stroke: #ffffff; stroke-width: 1.5; stroke-linejoin: miter"/>
   </g>
   <g id="patch_60">
    <path d="M 153.29 166.771406 
L 171.0295 166.771406 
L 171.0295 149.031906 
L 153.29 149.031906 
z
" clip-path="url(#p7565e4ec41)" style="fill: #dc2626; stroke: #ffffff; stroke-width: 1.5; stroke-linejoin: miter"/>
   </g>
   <g id="patch_61">
    <path d="M 174.16 166.771406 
L 191.8995 166.771406 
L 191.8995 149.031906 
L 174.16 149.031906 
z
" clip-path="url(#p7565e4ec41)" style="fill: #dc2626; stroke: #ffffff; stroke-width: 1.5; stroke-linejoin: miter"/>
   </g>
   <g id="patch_62">
    <path d="M 195.03 166.771406 
L 212.7695 166.771406 
L 212.7695 149.031906 
L 195.03 149.031906 
z
" clip-path="url(#p7565e4ec41)" style="fill: #dc2626; stroke: #ffffff; stroke-width: 1.5; stroke-linejoin: miter"/>
   </g>
   <g id="patch_63">
    <path d="M 7.2 187.641406 
L 24.9395 187.641406 
L 24.9395 169.901906 
L 7.2 169.901906 
z
" clip-path="url(#p7565e4ec41)" style="fill: #dc2626; stroke: #ffffff; stroke-width: 1.5; stroke-linejoin: miter"/>
   </g>
   <g id="patch_64">
    <path d="M 28.07 187.641406 
L 45.8095 187.641406 
L 45.8095 169.901906 
L 28.07 169.901906 
z
" clip-path="url(#p7565e4ec41)" style="fill: #dc2626; stroke: #ffffff; stroke-width: 1.5; stroke-linejoin: miter"/>
   </g>
   <g id="patch_65">
    <path d="M 48.94 187.641406 
L 66.6795 187.641406 
L 66.6795 169.901906 
L 48.94 169.901906 
z
" clip-path="url(#p7565e4ec41)" style="fill: #dc2626; stroke: #ffffff; stroke-width: 1.5; stroke-linejoin: miter"/>
   </g>
   <g id="patch_66">
    <path d="M 69.81 187.641406 
L 87.5495 187.641406 
L 87.5495 169.901906 
L 69.81 169.901906 
z
" clip-path="url(#p7565e4ec41)" style="fill: #dc2626; stroke: #ffffff; stroke-width: 1.5; stroke-linejoin: miter"/>
   </g>
   <g id="patch_67">
    <path d="M 90.68 187.641406 
L 108.4195 187.641406 
L 108.4195 169.901906 
L 90.68 169.901906 
z
" clip-path="url(#p7565e4ec41)" style="fill: #dc2626; stroke: #ffffff; stroke-width: 1.5; stroke-linejoin: miter"/>
   </g>
   <g id="patch_68">
    <path d="M 111.55 187.641406 
L 129.2895 187.641406 
L 129.2895 169.901906 
L 111.55 169.901906 
z
" clip-path="url(#p7565e4ec41)" style="fill: #dc2626; stroke: #ffffff; stroke-width: 1.5; stroke-linejoin: miter"/>
   </g>
   <g id="patch_69">
    <path d="M 132.42 187.641406 
L 150.1595 187.641406 
L 150.1595 169.901906 
L 132.42 169.901906 
z
" clip-path="url(#p7565e4ec41)" style="fill: #dc2626; stroke: #ffffff; stroke-width: 1.5; stroke-linejoin: miter"/>
   </g>
   <g id="patch_70">
    <path d="M 153.29 187.641406 
L 171.0295 187.641406 
L 171.0295 169.901906 
L 153.29 169.901906 
z
" clip-path="url(#p7565e4ec41)" style="fill: #dc2626; stroke: #ffffff; stroke-width: 1.5; stroke-linejoin: miter"/>
   </g>
   <g id="patch_71">
    <path d="M 174.16 187.641406 
L 191.8995 187.641406 
L 191.8995 169.901906 
L 174.16 169.901906 
z
" clip-path="url(#p7565e4ec41)" style="fill: #e2e8f0; stroke: #ffffff; stroke-width: 1.5; stroke-linejoin: miter"/>
   </g>
   <g id="patch_72">
    <path d="M 195.03 187.641406 
L 212.7695 187.641406 
L 212.7695 169.901906 
L 195.03 169.901906 
z
" clip-path="url(#p7565e4ec41)" style="fill: #e2e8f0; stroke: #ffffff; stroke-width: 1.5; stroke-linejoin: miter"/>
   </g>
   <g id="patch_73">
    <path d="M 7.2 208.511406 
L 24.9395 208.511406 
L 24.9395 190.771906 
L 7.2 190.771906 
z
" clip-path="url(#p7565e4ec41)" style="fill: #e2e8f0; stroke: #ffffff; stroke-width: 1.5; stroke-linejoin: miter"/>
   </g>
   <g id="patch_74">
    <path d="M 28.07 208.511406 
L 45.8095 208.511406 
L 45.8095 190.771906 
L 28.07 190.771906 
z
" clip-path="url(#p7565e4ec41)" style="fill: #e2e8f0; stroke: #ffffff; stroke-width: 1.5; stroke-linejoin: miter"/>
   </g>
   <g id="patch_75">
    <path d="M 48.94 208.511406 
L 66.6795 208.511406 
L 66.6795 190.771906 
L 48.94 190.771906 
z
" clip-path="url(#p7565e4ec41)" style="fill: #e2e8f0; stroke: #ffffff; stroke-width: 1.5; stroke-linejoin: miter"/>
   </g>
   <g id="patch_76">
    <path d="M 69.81 208.511406 
L 87.5495 208.511406 
L 87.5495 190.771906 
L 69.81 190.771906 
z
" clip-path="url(#p7565e4ec41)" style="fill: #e2e8f0; stroke: #ffffff; stroke-width: 1.5; stroke-linejoin: miter"/>
   </g>
   <g id="patch_77">
    <path d="M 90.68 208.511406 
L 108.4195 208.511406 
L 108.4195 190.771906 
L 90.68 190.771906 
z
" clip-path="url(#p7565e4ec41)" style="fill: #e2e8f0; stroke: #ffffff; stroke-width: 1.5; stroke-linejoin: miter"/>
   </g>
   <g id="patch_78">
    <path d="M 111.55 208.511406 
L 129.2895 208.511406 
L 129.2895 190.771906 
L 111.55 190.771906 
z
" clip-path="url(#p7565e4ec41)" style="fill: #e2e8f0; stroke: #ffffff; stroke-width: 1.5; stroke-linejoin: miter"/>
   </g>
   <g id="patch_79">
    <path d="M 132.42 208.511406 
L 150.1595 208.511406 
L 150.1595 190.771906 
L 132.42 190.771906 
z
" clip-path="url(#p7565e4ec41)" style="fill: #e2e8f0; stroke: #ffffff; stroke-width: 1.5; stroke-linejoin: miter"/>
   </g>
   <g id="patch_80">
    <path d="M 153.29 208.511406 
L 171.0295 208.511406 
L 171.0295 190.771906 
L 153.29 190.771906 
z
" clip-path="url(#p7565e4ec41)" style="fill: #e2e8f0; stroke: #ffffff; stroke-width: 1.5; stroke-linejoin: miter"/>
   </g>
   <g id="patch_81">
    <path d="M 174.16 208.511406 
L 191.8995 208.511406 
L 191.8995 190.771906 
L 174.16 190.771906 
z
" clip-path="url(#p7565e4ec41)" style="fill: #e2e8f0; stroke: #ffffff; stroke-width: 1.5; stroke-linejoin: miter"/>
   </g>
   <g id="patch_82">
    <path d="M 195.03 208.511406 
L 212.7695 208.511406 
L 212.7695 190.771906 
L 195.03 190.771906 
z
" clip-path="url(#p7565e4ec41)" style="fill: #e2e8f0; stroke: #ffffff; stroke-width: 1.5; stroke-linejoin: miter"/>
   </g>
   <g id="patch_83">
    <path d="M 7.2 229.381406 
L 24.9395 229.381406 
L 24.9395 211.641906 
L 7.2 211.641906 
z
" clip-path="url(#p7565e4ec41)" style="fill: #e2e8f0; stroke: #ffffff; stroke-width: 1.5; stroke-linejoin: miter"/>
   </g>
   <g id="patch_84">
    <path d="M 28.07 229.381406 
L 45.8095 229.381406 
L 45.8095 211.641906 
L 28.07 211.641906 
z
" clip-path="url(#p7565e4ec41)" style="fill: #e2e8f0; stroke: #ffffff; stroke-width: 1.5; stroke-linejoin: miter"/>
   </g>
   <g id="patch_85">
    <path d="M 48.94 229.381406 
L 66.6795 229.381406 
L 66.6795 211.641906 
L 48.94 211.641906 
z
" clip-path="url(#p7565e4ec41)" style="fill: #e2e8f0; stroke: #ffffff; stroke-width: 1.5; stroke-linejoin: miter"/>
   </g>
   <g id="patch_86">
    <path d="M 69.81 229.381406 
L 87.5495 229.381406 
L 87.5495 211.641906 
L 69.81 211.641906 
z
" clip-path="url(#p7565e4ec41)" style="fill: #e2e8f0; stroke: #ffffff; stroke-width: 1.5; stroke-linejoin: miter"/>
   </g>
   <g id="patch_87">
    <path d="M 90.68 229.381406 
L 108.4195 229.381406 
L 108.4195 211.641906 
L 90.68 211.641906 
z
" clip-path="url(#p7565e4ec41)" style="fill: #e2e8f0; stroke: #ffffff; stroke-width: 1.5; stroke-linejoin: miter"/>
   </g>
   <g id="patch_88">
    <path d="M 111.55 229.381406 
L 129.2895 229.381406 
L 129.2895 211.641906 
L 111.55 211.641906 
z
" clip-path="url(#p7565e4ec41)" style="fill: #e2e8f0; stroke: #ffffff; stroke-width: 1.5; stroke-linejoin: miter"/>
   </g>
   <g id="patch_89">
    <path d="M 132.42 229.381406 
L 150.1595 229.381406 
L 150.1595 211.641906 
L 132.42 211.641906 
z
" clip-path="url(#p7565e4ec41)" style="fill: #e2e8f0; stroke: #ffffff; stroke-width: 1.5; stroke-linejoin: miter"/>
   </g>
   <g id="patch_90">
    <path d="M 153.29 229.381406 
L 171.0295 229.381406 
L 171.0295 211.641906 
L 153.29 211.641906 
z
" clip-path="url(#p7565e4ec41)" style="fill: #e2e8f0; stroke: #ffffff; stroke-width: 1.5; stroke-linejoin: miter"/>
   </g>
   <g id="patch_91">
    <path d="M 174.16 229.381406 
L 191.8995 229.381406 
L 191.8995 211.641906 
L 174.16 211.641906 
z
" clip-path="url(#p7565e4ec41)" style="fill: #e2e8f0; stroke: #ffffff; stroke-width: 1.5; stroke-linejoin: miter"/>
   </g>
   <g id="patch_92">
    <path d="M 195.03 229.381406 
L 212.7695 229.381406 
L 212.7695 211.641906 
L 195.03 211.641906 
z
" clip-path="url(#p7565e4ec41)" style="fill: #e2e8f0; stroke: #ffffff; stroke-width: 1.5; stroke-linejoin: miter"/>
   </g>
   <g id="patch_93">
    <path d="M 7.2 250.251406 
L 24.9395 250.251406 
L 24.9395 232.511906 
L 7.2 232.511906 
z
" clip-path="url(#p7565e4ec41)" style="fill: #e2e8f0; stroke: #ffffff; stroke-width: 1.5; stroke-linejoin: miter"/>
   </g>
   <g id="patch_94">
    <path d="M 28.07 250.251406 
L 45.8095 250.251406 
L 45.8095 232.511906 
L 28.07 232.511906 
z
" clip-path="url(#p7565e4ec41)" style="fill: #e2e8f0; stroke: #ffffff; stroke-width: 1.5; stroke-linejoin: miter"/>
   </g>
   <g id="patch_95">
    <path d="M 48.94 250.251406 
L 66.6795 250.251406 
L 66.6795 232.511906 
L 48.94 232.511906 
z
" clip-path="url(#p7565e4ec41)" style="fill: #e2e8f0; stroke: #ffffff; stroke-width: 1.5; stroke-linejoin: miter"/>
   </g>
   <g id="patch_96">
    <path d="M 69.81 250.251406 
L 87.5495 250.251406 
L 87.5495 232.511906 
L 69.81 232.511906 
z
" clip-path="url(#p7565e4ec41)" style="fill: #e2e8f0; stroke: #ffffff; stroke-width: 1.5; stroke-linejoin: miter"/>
   </g>
   <g id="patch_97">
    <path d="M 90.68 250.251406 
L 108.4195 250.251406 
L 108.4195 232.511906 
L 90.68 232.511906 
z
" clip-path="url(#p7565e4ec41)" style="fill: #e2e8f0; stroke: #ffffff; stroke-width: 1.5; stroke-linejoin: miter"/>
   </g>
   <g id="patch_98">
    <path d="M 111.55 250.251406 
L 129.2895 250.251406 
L 129.2895 232.511906 
L 111.55 232.511906 
z
" clip-path="url(#p7565e4ec41)" style="fill: #e2e8f0; stroke: #ffffff; stroke-width: 1.5; stroke-linejoin: miter"/>
   </g>
   <g id="patch_99">
    <path d="M 132.42 250.251406 
L 150.1595 250.251406 
L 150.1595 232.511906 
L 132.42 232.511906 
z
" clip-path="url(#p7565e4ec41)" style="fill: #e2e8f0; stroke: #ffffff; stroke-width: 1.5; stroke-linejoin: miter"/>
   </g>
   <g id="patch_100">
    <path d="M 153.29 250.251406 
L 171.0295 250.251406 
L 171.0295 232.511906 
L 153.29 232.511906 
z
" clip-path="url(#p7565e4ec41)" style="fill: #e2e8f0; stroke: #ffffff; stroke-width: 1.5; stroke-linejoin: miter"/>
   </g>
   <g id="patch_101">
    <path d="M 174.16 250.251406 
L 191.8995 250.251406 
L 191.8995 232.511906 
L 174.16 232.511906 
z
" clip-path="url(#p7565e4ec41)" style="fill: #e2e8f0; stroke: #ffffff; stroke-width: 1.5; stroke-linejoin: miter"/>
   </g>
   <g id="patch_102">
    <path d="M 195.03 250.251406 
L 212.7695 250.251406 
L 212.7695 232.511906 
L 195.03 232.511906 
z
" clip-path="url(#p7565e4ec41)" style="fill: #e2e8f0; stroke: #ffffff; stroke-width: 1.5; stroke-linejoin: miter"/>
   </g>
   <g id="text_1">
    <!-- 68.5% -->
    <g style="fill: #dc2626" transform="translate(74.1175 153.616719) scale(0.28 -0.28)">
     <defs>
      <path id="NotoSansSC-Thin-36" d="M 1837 -83 
Q 1498 -83 1232 67 
Q 966 218 780 509 
Q 595 800 496 1216 
Q 397 1632 397 2170 
Q 397 2886 528 3379 
Q 659 3872 889 4169 
Q 1120 4467 1414 4598 
Q 1709 4730 2029 4730 
Q 2330 4730 2550 4614 
Q 2771 4499 2944 4307 
L 2790 4147 
Q 2643 4333 2444 4425 
Q 2246 4518 2022 4518 
Q 1651 4518 1334 4297 
Q 1018 4077 826 3561 
Q 634 3046 634 2170 
Q 634 1581 762 1120 
Q 890 659 1158 393 
Q 1427 128 1850 128 
Q 2125 128 2336 297 
Q 2547 467 2672 752 
Q 2797 1037 2797 1382 
Q 2797 1741 2694 2025 
Q 2592 2310 2368 2476 
Q 2144 2643 1779 2643 
Q 1523 2643 1209 2470 
Q 896 2298 602 1888 
L 602 2176 
Q 768 2381 957 2531 
Q 1146 2682 1360 2762 
Q 1574 2842 1792 2842 
Q 2189 2842 2467 2675 
Q 2746 2509 2893 2185 
Q 3040 1862 3040 1382 
Q 3040 960 2873 630 
Q 2707 301 2435 109 
Q 2163 -83 1837 -83 
z
" transform="scale(0.015625)"/>
      <path id="NotoSansSC-Thin-38" d="M 1696 -83 
Q 1286 -83 966 80 
Q 646 243 464 521 
Q 282 800 282 1152 
Q 282 1478 422 1744 
Q 563 2010 774 2202 
Q 986 2394 1197 2509 
L 1197 2534 
Q 954 2694 752 2953 
Q 550 3213 550 3578 
Q 550 3910 704 4163 
Q 858 4416 1117 4560 
Q 1376 4704 1696 4704 
Q 2080 4704 2345 4544 
Q 2611 4384 2752 4112 
Q 2893 3840 2893 3494 
Q 2893 3238 2784 3008 
Q 2675 2778 2528 2602 
Q 2381 2426 2253 2317 
L 2253 2285 
Q 2445 2170 2627 2010 
Q 2810 1850 2925 1626 
Q 3040 1402 3040 1082 
Q 3040 762 2870 496 
Q 2701 230 2400 73 
Q 2099 -83 1696 -83 
z
M 2035 2387 
Q 2336 2630 2499 2905 
Q 2662 3181 2662 3494 
Q 2662 3763 2550 3990 
Q 2438 4218 2220 4358 
Q 2003 4499 1696 4499 
Q 1293 4499 1040 4236 
Q 787 3974 787 3578 
Q 787 3238 972 3017 
Q 1158 2797 1446 2653 
Q 1734 2509 2035 2387 
z
M 1696 128 
Q 2035 128 2281 256 
Q 2528 384 2662 601 
Q 2797 819 2797 1082 
Q 2797 1370 2675 1574 
Q 2554 1779 2352 1923 
Q 2150 2067 1894 2182 
Q 1638 2298 1370 2400 
Q 998 2189 758 1875 
Q 518 1562 518 1152 
Q 518 870 668 636 
Q 819 403 1088 265 
Q 1357 128 1696 128 
z
" transform="scale(0.015625)"/>
      <path id="NotoSansSC-Thin-2e" d="M 736 -83 
Q 640 -83 560 -9 
Q 480 64 480 192 
Q 480 333 560 406 
Q 640 480 736 480 
Q 838 480 918 406 
Q 998 333 998 192 
Q 998 64 918 -9 
Q 838 -83 736 -83 
z
" transform="scale(0.015625)"/>
      <path id="NotoSansSC-Thin-35" d="M 1581 -83 
Q 1222 -83 963 9 
Q 704 102 515 240 
Q 326 378 186 518 
L 333 691 
Q 467 550 636 422 
Q 806 294 1040 211 
Q 1274 128 1594 128 
Q 1901 128 2166 294 
Q 2432 461 2592 765 
Q 2752 1069 2752 1466 
Q 2752 2061 2441 2406 
Q 2131 2752 1606 2752 
Q 1350 2752 1152 2665 
Q 954 2579 755 2445 
L 563 2560 
L 730 4646 
L 2758 4646 
L 2758 4435 
L 941 4435 
L 787 2726 
Q 966 2835 1168 2902 
Q 1370 2970 1626 2970 
Q 2010 2970 2320 2813 
Q 2630 2656 2812 2326 
Q 2995 1997 2995 1478 
Q 2995 979 2787 630 
Q 2579 282 2256 99 
Q 1933 -83 1581 -83 
z
" transform="scale(0.015625)"/>
      <path id="NotoSansSC-Thin-25" d="M 1267 1818 
Q 966 1818 745 1987 
Q 525 2157 409 2483 
Q 294 2810 294 3283 
Q 294 3750 409 4070 
Q 525 4390 745 4560 
Q 966 4730 1267 4730 
Q 1574 4730 1795 4560 
Q 2016 4390 2131 4070 
Q 2246 3750 2246 3283 
Q 2246 2810 2131 2483 
Q 2016 2157 1795 1987 
Q 1574 1818 1267 1818 
z
M 1267 2003 
Q 1619 2003 1820 2342 
Q 2022 2682 2022 3283 
Q 2022 3885 1820 4214 
Q 1619 4544 1267 4544 
Q 922 4544 717 4214 
Q 512 3885 512 3283 
Q 512 2682 717 2342 
Q 922 2003 1267 2003 
z
M 1382 -83 
L 3987 4730 
L 4218 4730 
L 1619 -83 
L 1382 -83 
z
M 4365 -83 
Q 4058 -83 3840 86 
Q 3622 256 3504 582 
Q 3386 909 3386 1382 
Q 3386 1850 3504 2170 
Q 3622 2490 3840 2659 
Q 4058 2829 4365 2829 
Q 4666 2829 4883 2659 
Q 5101 2490 5219 2170 
Q 5338 1850 5338 1382 
Q 5338 909 5219 582 
Q 5101 256 4883 86 
Q 4666 -83 4365 -83 
z
M 4365 102 
Q 4704 102 4912 441 
Q 5120 781 5120 1382 
Q 5120 1984 4912 2313 
Q 4704 2643 4365 2643 
Q 4013 2643 3808 2313 
Q 3603 1984 3603 1382 
Q 3603 781 3808 441 
Q 4013 102 4365 102 
z
" transform="scale(0.015625)"/>
     </defs>
     <use xlink:href="#NotoSansSC-Thin-36"/>
     <use xlink:href="#NotoSansSC-Thin-38" transform="translate(52.099991 0)"/>
     <use xlink:href="#NotoSansSC-Thin-2e" transform="translate(104.199982 0)"/>
     <use xlink:href="#NotoSansSC-Thin-35" transform="translate(127.299973 0)"/>
     <use xlink:href="#NotoSansSC-Thin-25" transform="translate(179.399963 0)"/>
    </g>
   </g>
   <g id="text_2">
    <!-- A股昨日涨跌家数 -->
    <g style="fill: #1e293b" transform="translate(62.318594 17.522812) scale(0.13 -0.13)">
     <defs>
      <path id="NotoSansSC-Thin-41" d="M 70 0 
L 1728 4646 
L 1939 4646 
L 3603 0 
L 3347 0 
L 2381 2784 
Q 2234 3206 2106 3587 
Q 1978 3968 1850 4403 
L 1824 4403 
Q 1696 3968 1565 3587 
Q 1434 3206 1286 2784 
L 307 0 
L 70 0 
z
M 787 1651 
L 787 1856 
L 2861 1856 
L 2861 1651 
L 787 1651 
z
" transform="scale(0.015625)"/>
      <path id="NotoSansSC-Thin-80a1" d="M 954 5069 
L 2259 5069 
L 2259 4883 
L 954 4883 
L 954 5069 
z
M 954 3526 
L 2259 3526 
L 2259 3341 
L 954 3341 
L 954 3526 
z
M 934 1946 
L 2266 1946 
L 2266 1760 
L 934 1760 
L 934 1946 
z
M 832 5069 
L 1018 5069 
L 1018 2797 
Q 1018 2432 998 2013 
Q 979 1594 921 1158 
Q 864 723 745 310 
Q 627 -102 435 -454 
Q 422 -435 390 -416 
Q 358 -397 329 -381 
Q 301 -365 275 -352 
Q 467 -6 579 394 
Q 691 794 745 1210 
Q 800 1626 816 2032 
Q 832 2438 832 2797 
L 832 5069 
z
M 2214 5069 
L 2400 5069 
L 2400 -90 
Q 2400 -211 2355 -272 
Q 2310 -333 2221 -365 
Q 2131 -390 1942 -393 
Q 1754 -397 1427 -397 
Q 1421 -371 1405 -339 
Q 1389 -307 1376 -272 
Q 1363 -237 1344 -211 
Q 1619 -218 1824 -218 
Q 2029 -218 2093 -218 
Q 2214 -211 2214 -90 
L 2214 5069 
z
M 3430 5056 
L 5043 5056 
L 5043 4870 
L 3430 4870 
L 3430 5056 
z
M 2694 2438 
L 5523 2438 
L 5523 2253 
L 2694 2253 
L 2694 2438 
z
M 5453 2438 
L 5498 2438 
L 5536 2451 
L 5651 2394 
Q 5459 1824 5129 1363 
Q 4800 902 4384 547 
Q 3968 192 3504 -57 
Q 3040 -307 2579 -461 
Q 2560 -422 2525 -374 
Q 2490 -326 2458 -294 
Q 2912 -160 3366 80 
Q 3821 320 4230 659 
Q 4640 998 4957 1436 
Q 5274 1875 5453 2400 
L 5453 2438 
z
M 3181 2349 
Q 3418 1696 3834 1158 
Q 4250 621 4822 246 
Q 5395 -128 6099 -307 
Q 6080 -326 6054 -355 
Q 6029 -384 6006 -413 
Q 5984 -442 5965 -474 
Q 4909 -179 4147 544 
Q 3386 1267 3021 2291 
L 3181 2349 
z
M 3386 5056 
L 3578 5056 
L 3578 4339 
Q 3578 4077 3507 3782 
Q 3437 3488 3248 3203 
Q 3059 2918 2701 2682 
Q 2688 2701 2665 2726 
Q 2643 2752 2617 2781 
Q 2592 2810 2573 2822 
Q 2912 3046 3088 3305 
Q 3264 3565 3325 3833 
Q 3386 4102 3386 4339 
L 3386 5056 
z
M 4947 5056 
L 5139 5056 
L 5139 3488 
Q 5139 3354 5158 3309 
Q 5178 3264 5242 3264 
Q 5286 3264 5395 3264 
Q 5504 3264 5613 3264 
Q 5722 3264 5760 3264 
Q 5811 3264 5878 3270 
Q 5946 3277 6003 3283 
Q 6010 3245 6016 3184 
Q 6022 3123 6029 3091 
Q 5984 3085 5910 3078 
Q 5837 3072 5760 3072 
Q 5722 3072 5610 3072 
Q 5498 3072 5389 3072 
Q 5280 3072 5248 3072 
Q 5126 3072 5062 3107 
Q 4998 3142 4972 3235 
Q 4947 3328 4947 3494 
L 4947 5056 
z
" transform="scale(0.015625)"/>
      <path id="NotoSansSC-Thin-6628" d="M 4006 2963 
L 5990 2963 
L 5990 2771 
L 4006 2771 
L 4006 2963 
z
M 4006 1530 
L 6048 1530 
L 6048 1344 
L 4006 1344 
L 4006 1530 
z
M 3878 4269 
L 4064 4269 
L 4064 -448 
L 3878 -448 
L 3878 4269 
z
M 3437 5325 
L 3629 5286 
Q 3507 4826 3344 4387 
Q 3181 3949 2989 3561 
Q 2797 3174 2573 2874 
Q 2560 2886 2528 2908 
Q 2496 2931 2467 2956 
Q 2438 2982 2413 2995 
Q 2637 3283 2825 3657 
Q 3014 4032 3171 4457 
Q 3328 4883 3437 5325 
z
M 3181 4288 
L 6125 4288 
L 6125 4102 
L 3104 4102 
L 3181 4288 
z
M 646 4845 
L 2253 4845 
L 2253 806 
L 646 806 
L 646 992 
L 2067 992 
L 2067 4653 
L 646 4653 
L 646 4845 
z
M 646 2957 
L 2176 2957 
L 2176 2765 
L 646 2765 
L 646 2957 
z
M 544 4845 
L 736 4845 
L 736 294 
L 544 294 
L 544 4845 
z
" transform="scale(0.015625)"/>
      <path id="NotoSansSC-Thin-65e5" d="M 1274 4832 
L 5197 4832 
L 5197 -333 
L 5005 -333 
L 5005 4640 
L 1466 4640 
L 1466 -384 
L 1274 -384 
L 1274 4832 
z
M 1389 2547 
L 5088 2547 
L 5088 2362 
L 1389 2362 
L 1389 2547 
z
M 1376 218 
L 5107 218 
L 5107 32 
L 1376 32 
L 1376 218 
z
" transform="scale(0.015625)"/>
      <path id="NotoSansSC-Thin-6da8" d="M 2803 2118 
L 3002 2118 
Q 3002 2118 3002 2073 
Q 3002 2029 2995 1997 
Q 2957 1216 2912 752 
Q 2867 288 2809 54 
Q 2752 -179 2669 -269 
Q 2605 -339 2528 -364 
Q 2451 -390 2323 -397 
Q 2208 -403 1987 -396 
Q 1766 -390 1530 -371 
Q 1523 -326 1510 -275 
Q 1498 -224 1472 -179 
Q 1741 -205 1971 -208 
Q 2202 -211 2285 -211 
Q 2445 -218 2509 -154 
Q 2579 -83 2630 150 
Q 2682 384 2726 848 
Q 2771 1312 2803 2080 
L 2803 2118 
z
M 1779 3565 
L 1965 3565 
Q 1946 3302 1920 2998 
Q 1894 2694 1865 2412 
Q 1837 2131 1805 1926 
L 1619 1926 
Q 1651 2138 1683 2422 
Q 1715 2707 1740 3008 
Q 1766 3309 1779 3565 
z
M 1728 2118 
L 2861 2118 
L 2861 1926 
L 1709 1926 
L 1728 2118 
z
M 1856 3565 
L 2867 3565 
L 2867 4806 
L 1638 4806 
L 1638 4992 
L 3053 4992 
L 3053 3373 
L 1856 3373 
L 1856 3565 
z
M 3590 -448 
Q 3584 -422 3565 -390 
Q 3546 -358 3523 -323 
Q 3501 -288 3482 -262 
Q 3552 -230 3645 -153 
Q 3738 -77 3738 102 
L 3738 5254 
L 3930 5254 
L 3930 -192 
Q 3930 -192 3878 -221 
Q 3827 -250 3760 -291 
Q 3693 -333 3641 -374 
Q 3590 -416 3590 -448 
z
M 518 5043 
L 646 5158 
Q 806 5050 969 4918 
Q 1133 4787 1273 4656 
Q 1414 4525 1498 4422 
L 1370 4288 
Q 1280 4397 1139 4531 
Q 998 4666 838 4800 
Q 678 4934 518 5043 
z
M 294 3251 
L 429 3366 
Q 582 3264 739 3142 
Q 896 3021 1033 2899 
Q 1171 2778 1254 2675 
L 1126 2534 
Q 1037 2637 899 2765 
Q 762 2893 605 3021 
Q 448 3149 294 3251 
z
M 448 -262 
Q 550 -26 665 297 
Q 781 621 899 976 
Q 1018 1331 1107 1658 
L 1274 1549 
Q 1190 1242 1078 896 
Q 966 550 854 220 
Q 742 -109 634 -378 
L 448 -262 
z
M 3091 2771 
L 6093 2771 
L 6093 2579 
L 3091 2579 
L 3091 2771 
z
M 4659 2694 
Q 4781 2061 4985 1497 
Q 5190 934 5478 499 
Q 5766 64 6138 -192 
Q 6106 -218 6064 -262 
Q 6022 -307 5997 -346 
Q 5626 -58 5331 396 
Q 5037 851 4829 1430 
Q 4621 2010 4493 2656 
L 4659 2694 
z
M 5613 5197 
L 5805 5146 
Q 5626 4730 5389 4346 
Q 5152 3962 4873 3632 
Q 4595 3302 4301 3046 
Q 4288 3059 4259 3084 
Q 4230 3110 4198 3136 
Q 4166 3162 4141 3174 
Q 4589 3539 4976 4070 
Q 5363 4602 5613 5197 
z
M 3590 -448 
L 3590 -269 
L 3706 -134 
L 4998 339 
Q 5005 301 5014 256 
Q 5024 211 5030 192 
Q 4570 0 4294 -115 
Q 4019 -230 3878 -294 
Q 3738 -358 3680 -390 
Q 3622 -422 3590 -448 
z
" transform="scale(0.015625)"/>
      <path id="NotoSansSC-Thin-8dcc" d="M 838 4819 
L 838 3398 
L 2214 3398 
L 2214 4819 
L 838 4819 
z
M 646 5005 
L 2406 5005 
L 2406 3213 
L 646 3213 
L 646 5005 
z
M 1498 3341 
L 1690 3341 
L 1690 346 
L 1498 346 
L 1498 3341 
z
M 685 2458 
L 870 2458 
L 870 147 
L 685 147 
L 685 2458 
z
M 314 122 
Q 589 186 944 278 
Q 1299 371 1705 483 
Q 2112 595 2522 704 
L 2541 525 
Q 1958 365 1382 208 
Q 806 51 371 -70 
L 314 122 
z
M 1549 2106 
L 2483 2106 
L 2483 1920 
L 1549 1920 
L 1549 2106 
z
M 2643 2336 
L 6003 2336 
L 6003 2144 
L 2643 2144 
L 2643 2336 
z
M 3213 4096 
L 5894 4096 
L 5894 3910 
L 3155 3910 
L 3213 4096 
z
M 3277 5050 
L 3469 5018 
Q 3366 4416 3200 3865 
Q 3034 3315 2790 2918 
Q 2771 2938 2742 2957 
Q 2714 2976 2682 2995 
Q 2650 3014 2618 3027 
Q 2867 3405 3027 3939 
Q 3187 4474 3277 5050 
z
M 4224 5306 
L 4410 5306 
L 4410 3450 
Q 4410 3091 4387 2688 
Q 4365 2285 4272 1869 
Q 4179 1453 3980 1040 
Q 3782 627 3440 243 
Q 3098 -141 2560 -474 
Q 2547 -448 2524 -425 
Q 2502 -403 2476 -377 
Q 2451 -352 2426 -333 
Q 2957 -19 3293 352 
Q 3629 723 3821 1123 
Q 4013 1523 4099 1926 
Q 4186 2330 4205 2717 
Q 4224 3104 4224 3450 
L 4224 5306 
z
M 4416 2323 
Q 4531 1715 4752 1196 
Q 4973 678 5305 297 
Q 5638 -83 6086 -282 
Q 6061 -301 6035 -326 
Q 6010 -352 5987 -381 
Q 5965 -410 5946 -435 
Q 5261 -96 4848 614 
Q 4435 1325 4250 2285 
L 4416 2323 
z
" transform="scale(0.015625)"/>
      <path id="NotoSansSC-Thin-5bb6" d="M 627 4678 
L 5824 4678 
L 5824 3494 
L 5632 3494 
L 5632 4493 
L 819 4493 
L 819 3494 
L 627 3494 
L 627 4678 
z
M 1293 3616 
L 5107 3616 
L 5107 3424 
L 1293 3424 
L 1293 3616 
z
M 2624 2995 
L 2752 3085 
Q 3110 2752 3328 2349 
Q 3546 1946 3638 1533 
Q 3731 1120 3718 752 
Q 3706 384 3600 112 
Q 3494 -160 3315 -275 
Q 3181 -371 3059 -400 
Q 2938 -429 2752 -429 
Q 2650 -429 2499 -425 
Q 2349 -422 2182 -416 
Q 2182 -378 2166 -323 
Q 2150 -269 2131 -230 
Q 2310 -243 2470 -252 
Q 2630 -262 2720 -262 
Q 2861 -262 2973 -243 
Q 3085 -224 3187 -154 
Q 3334 -58 3427 188 
Q 3520 435 3533 777 
Q 3546 1120 3459 1507 
Q 3373 1894 3171 2281 
Q 2970 2669 2624 2995 
z
M 3251 3590 
L 3418 3514 
Q 3098 3213 2646 2947 
Q 2195 2682 1696 2470 
Q 1197 2259 730 2106 
Q 717 2125 694 2157 
Q 672 2189 646 2221 
Q 621 2253 595 2272 
Q 1069 2413 1568 2611 
Q 2067 2810 2508 3059 
Q 2950 3309 3251 3590 
z
M 3130 2426 
L 3277 2330 
Q 3053 2150 2749 1964 
Q 2445 1779 2096 1606 
Q 1747 1434 1395 1290 
Q 1043 1146 730 1043 
Q 710 1082 678 1130 
Q 646 1178 614 1210 
Q 928 1299 1280 1433 
Q 1632 1568 1977 1734 
Q 2323 1901 2620 2077 
Q 2918 2253 3130 2426 
z
M 3469 1626 
L 3616 1523 
Q 3360 1280 3008 1040 
Q 2656 800 2249 582 
Q 1843 365 1417 189 
Q 992 13 595 -102 
Q 582 -64 553 -13 
Q 525 38 493 70 
Q 883 166 1305 332 
Q 1728 499 2134 710 
Q 2541 922 2886 1155 
Q 3232 1389 3469 1626 
z
M 4147 2099 
Q 4314 1619 4602 1196 
Q 4890 774 5274 454 
Q 5658 134 6099 -32 
Q 6080 -51 6054 -76 
Q 6029 -102 6006 -131 
Q 5984 -160 5965 -186 
Q 5517 0 5133 333 
Q 4749 666 4454 1104 
Q 4160 1542 3987 2048 
L 4147 2099 
z
M 5158 3034 
L 5312 2912 
Q 5062 2701 4748 2470 
Q 4435 2240 4115 2032 
Q 3795 1824 3514 1664 
L 3392 1766 
Q 3674 1926 4000 2147 
Q 4326 2368 4633 2601 
Q 4941 2835 5158 3034 
z
M 2803 5274 
L 2982 5331 
Q 3091 5171 3206 4972 
Q 3322 4774 3366 4634 
L 3194 4563 
Q 3136 4710 3027 4912 
Q 2918 5114 2803 5274 
z
" transform="scale(0.015625)"/>
      <path id="NotoSansSC-Thin-6570" d="M 512 1990 
L 2970 1990 
L 2970 1798 
L 512 1798 
L 512 1990 
z
M 365 4064 
L 3386 4064 
L 3386 3878 
L 365 3878 
L 365 4064 
z
M 2957 5146 
L 3123 5050 
Q 3002 4826 2845 4586 
Q 2688 4346 2554 4173 
L 2419 4256 
Q 2509 4371 2608 4531 
Q 2707 4691 2800 4854 
Q 2893 5018 2957 5146 
z
M 1792 5318 
L 1984 5318 
L 1984 2611 
L 1792 2611 
L 1792 5318 
z
M 691 5043 
L 845 5101 
Q 992 4902 1117 4662 
Q 1242 4422 1286 4250 
L 1139 4179 
Q 1088 4352 960 4598 
Q 832 4845 691 5043 
z
M 1792 3987 
L 1946 3904 
Q 1798 3622 1561 3344 
Q 1325 3066 1046 2832 
Q 768 2598 486 2445 
Q 467 2490 428 2538 
Q 390 2586 358 2618 
Q 634 2746 909 2960 
Q 1184 3174 1417 3443 
Q 1651 3712 1792 3987 
z
M 1946 3866 
Q 2029 3814 2205 3696 
Q 2381 3578 2585 3443 
Q 2790 3309 2960 3190 
Q 3130 3072 3200 3021 
L 3072 2854 
Q 2995 2925 2832 3049 
Q 2669 3174 2473 3315 
Q 2278 3456 2105 3574 
Q 1933 3693 1830 3750 
L 1946 3866 
z
M 3962 4013 
L 5997 4013 
L 5997 3827 
L 3962 3827 
L 3962 4013 
z
M 4128 5222 
L 4314 5190 
Q 4218 4614 4083 4086 
Q 3949 3558 3766 3100 
Q 3584 2643 3354 2285 
Q 3341 2298 3309 2320 
Q 3277 2342 3241 2361 
Q 3206 2381 3181 2394 
Q 3424 2733 3603 3184 
Q 3782 3635 3913 4153 
Q 4045 4672 4128 5222 
z
M 5357 3936 
L 5549 3910 
Q 5382 2829 5084 2006 
Q 4787 1184 4291 579 
Q 3795 -26 3040 -454 
Q 3027 -435 3004 -406 
Q 2982 -378 2956 -349 
Q 2931 -320 2906 -301 
Q 3654 90 4140 678 
Q 4627 1267 4915 2076 
Q 5203 2886 5357 3936 
z
M 3994 3789 
Q 4147 2874 4425 2070 
Q 4704 1267 5133 668 
Q 5562 70 6150 -243 
Q 6112 -269 6073 -313 
Q 6035 -358 6010 -397 
Q 5414 -51 4985 563 
Q 4557 1178 4275 1997 
Q 3994 2816 3834 3757 
L 3994 3789 
z
M 896 1018 
L 1050 1152 
Q 1370 1037 1722 873 
Q 2074 710 2387 544 
Q 2701 378 2906 230 
L 2752 90 
Q 2554 237 2240 406 
Q 1926 576 1574 739 
Q 1222 902 896 1018 
z
M 2880 1990 
L 2918 1990 
L 2963 2003 
L 3066 1946 
Q 2874 1286 2474 825 
Q 2074 365 1552 80 
Q 1030 -205 467 -358 
Q 454 -320 422 -272 
Q 390 -224 358 -198 
Q 902 -64 1411 205 
Q 1920 474 2310 906 
Q 2701 1338 2880 1946 
L 2880 1990 
z
M 896 1018 
Q 1030 1210 1168 1453 
Q 1306 1696 1427 1952 
Q 1549 2208 1632 2438 
L 1811 2406 
Q 1722 2170 1597 1910 
Q 1472 1651 1341 1414 
Q 1210 1178 1094 1005 
L 896 1018 
z
" transform="scale(0.015625)"/>
     </defs>
     <use xlink:href="#NotoSansSC-Thin-41"/>
     <use xlink:href="#NotoSansSC-Thin-80a1" transform="translate(57.399994 0)"/>
     <use xlink:href="#NotoSansSC-Thin-6628" transform="translate(157.399979 0)"/>
     <use xlink:href="#NotoSansSC-Thin-65e5" transform="translate(257.399963 0)"/>
     <use xlink:href="#NotoSansSC-Thin-6da8" transform="translate(357.399948 0)"/>
     <use xlink:href="#NotoSansSC-Thin-8dcc" transform="translate(457.399933 0)"/>
     <use xlink:href="#NotoSansSC-Thin-5bb6" transform="translate(557.399918 0)"/>
     <use xlink:href="#NotoSansSC-Thin-6570" transform="translate(657.399902 0)"/>
    </g>
   </g>
   <g id="text_3">
    <!-- 上涨家数占比 -->
    <g style="fill: #64748b" transform="translate(81.55 268.627031) scale(0.1 -0.1)">
     <defs>
      <path id="NotoSansSC-Thin-4e0a" d="M 3002 3091 
L 5600 3091 
L 5600 2906 
L 3002 2906 
L 3002 3091 
z
M 378 32 
L 6029 32 
L 6029 -154 
L 378 -154 
L 378 32 
z
M 2886 5203 
L 3072 5203 
L 3072 -51 
L 2886 -51 
L 2886 5203 
z
" transform="scale(0.015625)"/>
      <path id="NotoSansSC-Thin-5360" d="M 3053 3987 
L 5856 3987 
L 5856 3802 
L 3053 3802 
L 3053 3987 
z
M 1222 218 
L 5184 218 
L 5184 32 
L 1222 32 
L 1222 218 
z
M 2976 5318 
L 3162 5318 
L 3162 2240 
L 2976 2240 
L 2976 5318 
z
M 1126 2362 
L 5280 2362 
L 5280 -422 
L 5094 -422 
L 5094 2170 
L 1312 2170 
L 1312 -448 
L 1126 -448 
L 1126 2362 
z
" transform="scale(0.015625)"/>
      <path id="NotoSansSC-Thin-6bd4" d="M 1043 3264 
L 2880 3264 
L 2880 3072 
L 1043 3072 
L 1043 3264 
z
M 5574 3917 
L 5754 3776 
Q 5498 3565 5155 3353 
Q 4813 3142 4429 2947 
Q 4045 2752 3674 2573 
Q 3667 2605 3641 2649 
Q 3616 2694 3590 2720 
Q 3955 2893 4329 3094 
Q 4704 3296 5033 3507 
Q 5363 3718 5574 3917 
z
M 3546 5318 
L 3731 5318 
L 3731 326 
Q 3731 58 3811 -22 
Q 3891 -102 4147 -102 
Q 4205 -102 4358 -102 
Q 4512 -102 4697 -102 
Q 4883 -102 5049 -102 
Q 5216 -102 5293 -102 
Q 5485 -102 5577 29 
Q 5670 160 5708 496 
Q 5747 832 5766 1446 
Q 5798 1427 5827 1404 
Q 5856 1382 5888 1369 
Q 5920 1357 5946 1350 
Q 5926 730 5878 378 
Q 5830 26 5699 -121 
Q 5568 -269 5286 -269 
Q 5248 -269 5085 -269 
Q 4922 -269 4723 -269 
Q 4525 -269 4361 -269 
Q 4198 -269 4160 -269 
Q 3917 -269 3782 -221 
Q 3648 -173 3597 -38 
Q 3546 96 3546 346 
L 3546 5318 
z
M 883 -358 
Q 877 -333 857 -297 
Q 838 -262 816 -227 
Q 794 -192 774 -166 
Q 826 -134 896 -51 
Q 966 32 966 211 
L 966 5267 
L 1158 5267 
L 1158 -77 
Q 1158 -77 1129 -99 
Q 1101 -122 1062 -154 
Q 1024 -186 982 -224 
Q 941 -262 912 -297 
Q 883 -333 883 -358 
z
M 883 -358 
L 877 -166 
L 1030 -51 
L 2931 486 
Q 2931 461 2934 425 
Q 2938 390 2941 358 
Q 2944 326 2950 301 
Q 2278 109 1884 -9 
Q 1491 -128 1289 -192 
Q 1088 -256 1005 -291 
Q 922 -326 883 -358 
z
" transform="scale(0.015625)"/>
     </defs>
     <use xlink:href="#NotoSansSC-Thin-4e0a"/>
     <use xlink:href="#NotoSansSC-Thin-6da8" transform="translate(99.999985 0)"/>
     <use xlink:href="#NotoSansSC-Thin-5bb6" transform="translate(199.999969 0)"/>
     <use xlink:href="#NotoSansSC-Thin-6570" transform="translate(299.999954 0)"/>
     <use xlink:href="#NotoSansSC-Thin-5360" transform="translate(399.999939 0)"/>
     <use xlink:href="#NotoSansSC-Thin-6bd4" transform="translate(499.999924 0)"/>
    </g>
   </g>
  </g>
 </g>
 <defs>
  <clipPath id="p7565e4ec41">
   <rect x="7.2" y="20.681406" width="208.7" height="250.44"/>
  </clipPath>
 </defs>
</svg>
