<?xml version="1.0" encoding="utf-8" standalone="no"?>
<!DOCTYPE svg PUBLIC "-//W3C//DTD SVG 1.1//EN"
  "http://www.w3.org/Graphics/SVG/1.1/DTD/svg11.dtd">
<svg xmlns:xlink="http://www.w3.org/1999/xlink" width="496.447031pt" height="279.936094pt" viewBox="0 0 496.447031 279.936094" xmlns="http://www.w3.org/2000/svg" version="1.1">
 <metadata>
  <rdf:RDF xmlns:dc="http://purl.org/dc/elements/1.1/" xmlns:cc="http://creativecommons.org/ns#" xmlns:rdf="http://www.w3.org/1999/02/22-rdf-syntax-ns#">
   <cc:Work>
    <dc:type rdf:resource="http://purl.org/dc/dcmitype/StillImage"/>
    <dc:date>2026-05-27T13:25:50.032197</dc:date>
    <dc:format>image/svg+xml</dc:format>
    <dc:creator>
     <cc:Agent>
      <dc:title>Matplotlib v3.10.9, https://matplotlib.org/</dc:title>
     </cc:Agent>
    </dc:creator>
   </cc:Work>
  </rdf:RDF>
 </metadata>
 <defs>
  <style type="text/css">*{stroke-linejoin: round; stroke-linecap: butt}</style>
 </defs>
 <g id="figure_1">
  <g id="patch_1">
   <path d="M 0 279.936094 
L 496.447031 279.936094 
L 496.447031 0 
L 0 0 
z
" style="fill: #f8fafc"/>
  </g>
  <g id="axes_1">
   <g id="patch_2">
    <path d="M 46.287031 256.402812 
L 489.247031 256.402812 
L 489.247031 31.522812 
L 46.287031 31.522812 
z
" style="fill: #f8fafc"/>
   </g>
   <g id="matplotlib.axis_1">
    <g id="xtick_1">
     <g id="line2d_1">
      <defs>
       <path id="m40b5bcf22e" d="M 0 0 
L 0 3.5 
" style="stroke: #64748b; stroke-width: 0.8"/>
      </defs>
      <g>
       <use xlink:href="#m40b5bcf22e" x="83.328447" y="256.402812" style="fill: #64748b; stroke: #64748b; stroke-width: 0.8"/>
      </g>
     </g>
     <g id="text_1">
      <!-- 营业收入 -->
      <g style="fill: #64748b" transform="translate(65.328447 270.549375) scale(0.09 -0.09)">
       <defs>
        <path id="NotoSansSC-Thin-8425" d="M 1728 2720 
L 1728 1958 
L 4781 1958 
L 4781 2720 
L 1728 2720 
z
M 1536 2906 
L 4966 2906 
L 4966 1773 
L 1536 1773 
L 1536 2906 
z
M 1171 1190 
L 5376 1190 
L 5376 -454 
L 5190 -454 
L 5190 1005 
L 1363 1005 
L 1363 -474 
L 1171 -474 
L 1171 1190 
z
M 1248 19 
L 5286 19 
L 5286 -166 
L 1248 -166 
L 1248 19 
z
M 653 3674 
L 5798 3674 
L 5798 2515 
L 5606 2515 
L 5606 3488 
L 845 3488 
L 845 2515 
L 653 2515 
L 653 3674 
z
M 429 4691 
L 5990 4691 
L 5990 4506 
L 429 4506 
L 429 4691 
z
M 1990 5312 
L 2176 5312 
L 2176 3904 
L 1990 3904 
L 1990 5312 
z
M 4192 5312 
L 4378 5312 
L 4378 3904 
L 4192 3904 
L 4192 5312 
z
" transform="scale(0.015625)"/>
        <path id="NotoSansSC-Thin-4e1a" d="M 442 102 
L 5978 102 
L 5978 -90 
L 442 -90 
L 442 102 
z
M 2368 5242 
L 2554 5242 
L 2554 -6 
L 2368 -6 
L 2368 5242 
z
M 3866 5229 
L 4051 5229 
L 4051 -26 
L 3866 -26 
L 3866 5229 
z
M 5594 3699 
L 5773 3622 
Q 5613 3290 5411 2909 
Q 5210 2528 4998 2166 
Q 4787 1805 4595 1517 
L 4435 1606 
Q 4627 1888 4841 2256 
Q 5056 2624 5254 3005 
Q 5453 3386 5594 3699 
z
M 640 3667 
L 826 3725 
Q 1018 3392 1206 3011 
Q 1395 2630 1558 2275 
Q 1722 1920 1811 1664 
L 1619 1581 
Q 1536 1843 1376 2204 
Q 1216 2566 1024 2953 
Q 832 3341 640 3667 
z
" transform="scale(0.015625)"/>
        <path id="NotoSansSC-Thin-6536" d="M 3462 4013 
L 6035 4013 
L 6035 3827 
L 3462 3827 
L 3462 4013 
z
M 3706 5312 
L 3898 5280 
Q 3782 4678 3616 4131 
Q 3450 3584 3229 3113 
Q 3008 2643 2726 2272 
Q 2714 2291 2685 2316 
Q 2656 2342 2627 2368 
Q 2598 2394 2573 2406 
Q 2854 2752 3068 3209 
Q 3283 3667 3443 4201 
Q 3603 4736 3706 5312 
z
M 5274 3955 
L 5472 3923 
Q 5286 2835 4956 2009 
Q 4627 1184 4099 582 
Q 3571 -19 2778 -442 
Q 2765 -422 2742 -393 
Q 2720 -365 2697 -333 
Q 2675 -301 2650 -282 
Q 3437 109 3955 694 
Q 4474 1280 4787 2089 
Q 5101 2899 5274 3955 
z
M 3514 3840 
Q 3725 2918 4077 2099 
Q 4429 1280 4931 665 
Q 5434 51 6093 -275 
Q 6067 -294 6038 -320 
Q 6010 -346 5987 -371 
Q 5965 -397 5946 -422 
Q 5286 -77 4780 553 
Q 4275 1184 3920 2016 
Q 3565 2848 3347 3802 
L 3514 3840 
z
M 2170 5222 
L 2362 5222 
L 2362 -454 
L 2170 -454 
L 2170 5222 
z
M 582 800 
L 576 992 
L 717 1126 
L 2253 1677 
Q 2253 1632 2262 1581 
Q 2272 1530 2278 1498 
Q 1741 1293 1417 1168 
Q 1094 1043 928 972 
Q 762 902 691 867 
Q 621 832 582 800 
z
M 582 800 
Q 570 826 550 858 
Q 531 890 512 922 
Q 493 954 474 979 
Q 525 1011 608 1107 
Q 691 1203 691 1389 
L 691 4582 
L 877 4582 
L 877 1094 
Q 877 1094 832 1062 
Q 787 1030 729 979 
Q 672 928 627 880 
Q 582 832 582 800 
z
" transform="scale(0.015625)"/>
        <path id="NotoSansSC-Thin-5165" d="M 2042 4922 
L 2157 5082 
Q 2598 4774 2908 4406 
Q 3219 4038 3446 3632 
Q 3674 3226 3866 2803 
Q 4058 2381 4256 1961 
Q 4454 1542 4697 1155 
Q 4941 768 5273 429 
Q 5606 90 6080 -179 
Q 6061 -205 6038 -240 
Q 6016 -275 6000 -310 
Q 5984 -346 5978 -378 
Q 5498 -109 5155 236 
Q 4813 582 4563 979 
Q 4314 1376 4109 1798 
Q 3904 2221 3712 2649 
Q 3520 3078 3293 3484 
Q 3066 3891 2765 4259 
Q 2464 4627 2042 4922 
z
M 3098 3866 
L 3302 3827 
Q 3072 2803 2704 2003 
Q 2336 1203 1795 601 
Q 1254 0 499 -435 
Q 480 -416 448 -390 
Q 416 -365 384 -336 
Q 352 -307 320 -288 
Q 1466 320 2118 1357 
Q 2771 2394 3098 3866 
z
" transform="scale(0.015625)"/>
       </defs>
       <use xlink:href="#NotoSansSC-Thin-8425"/>
       <use xlink:href="#NotoSansSC-Thin-4e1a" transform="translate(99.999985 0)"/>
       <use xlink:href="#NotoSansSC-Thin-6536" transform="translate(199.999969 0)"/>
       <use xlink:href="#NotoSansSC-Thin-5165" transform="translate(299.999954 0)"/>
      </g>
     </g>
    </g>
    <g id="xtick_2">
     <g id="line2d_2">
      <g>
       <use xlink:href="#m40b5bcf22e" x="144.807975" y="256.402812" style="fill: #64748b; stroke: #64748b; stroke-width: 0.8"/>
      </g>
     </g>
     <g id="text_2">
      <!-- 营业成本 -->
      <g style="fill: #64748b" transform="translate(126.807975 270.549375) scale(0.09 -0.09)">
       <defs>
        <path id="NotoSansSC-Thin-6210" d="M 1024 2925 
L 2726 2925 
L 2726 2733 
L 1024 2733 
L 1024 2925 
z
M 2643 2925 
L 2829 2925 
Q 2829 2925 2829 2902 
Q 2829 2880 2829 2848 
Q 2829 2816 2829 2797 
Q 2810 2035 2787 1580 
Q 2765 1126 2729 902 
Q 2694 678 2630 602 
Q 2573 544 2502 518 
Q 2432 493 2304 486 
Q 2182 480 1968 486 
Q 1754 493 1510 512 
Q 1504 550 1491 601 
Q 1478 653 1453 691 
Q 1715 666 1945 662 
Q 2176 659 2259 659 
Q 2330 659 2381 668 
Q 2432 678 2464 717 
Q 2522 781 2554 998 
Q 2586 1216 2608 1667 
Q 2630 2118 2643 2880 
L 2643 2925 
z
M 4320 5075 
L 4435 5203 
Q 4659 5094 4899 4956 
Q 5139 4819 5347 4681 
Q 5555 4544 5690 4429 
L 5581 4288 
Q 5446 4403 5235 4544 
Q 5024 4685 4787 4825 
Q 4550 4966 4320 5075 
z
M 5402 3251 
L 5587 3200 
Q 5171 1946 4448 1056 
Q 3725 166 2714 -410 
Q 2701 -390 2672 -361 
Q 2643 -333 2617 -304 
Q 2592 -275 2566 -256 
Q 3590 282 4300 1165 
Q 5011 2048 5402 3251 
z
M 1056 4102 
L 6029 4102 
L 6029 3917 
L 1056 3917 
L 1056 4102 
z
M 947 4102 
L 1139 4102 
L 1139 2374 
Q 1139 2054 1113 1689 
Q 1088 1325 1021 944 
Q 954 563 819 204 
Q 685 -154 461 -461 
Q 448 -442 419 -419 
Q 390 -397 361 -377 
Q 333 -358 307 -346 
Q 595 58 729 531 
Q 864 1005 905 1485 
Q 947 1965 947 2381 
L 947 4102 
z
M 3667 5306 
L 3859 5306 
Q 3866 4320 3946 3472 
Q 4026 2624 4173 1945 
Q 4320 1267 4528 787 
Q 4736 307 4995 51 
Q 5254 -205 5555 -205 
Q 5722 -205 5795 76 
Q 5869 358 5894 1030 
Q 5926 1005 5980 979 
Q 6035 954 6074 941 
Q 6048 442 5997 147 
Q 5946 -147 5840 -275 
Q 5734 -403 5542 -403 
Q 5242 -403 4986 -204 
Q 4730 -6 4525 362 
Q 4320 730 4163 1245 
Q 4006 1760 3897 2397 
Q 3789 3034 3731 3770 
Q 3674 4506 3667 5306 
z
" transform="scale(0.015625)"/>
        <path id="NotoSansSC-Thin-672c" d="M 454 3859 
L 5958 3859 
L 5958 3667 
L 454 3667 
L 454 3859 
z
M 1453 1056 
L 4954 1056 
L 4954 864 
L 1453 864 
L 1453 1056 
z
M 3098 5306 
L 3290 5306 
L 3290 -448 
L 3098 -448 
L 3098 5306 
z
M 2816 3821 
L 2982 3757 
Q 2720 3104 2320 2502 
Q 1920 1901 1443 1414 
Q 966 928 467 627 
Q 454 653 428 681 
Q 403 710 377 736 
Q 352 762 326 781 
Q 826 1056 1299 1529 
Q 1773 2003 2169 2598 
Q 2566 3194 2816 3821 
z
M 3558 3802 
Q 3808 3162 4208 2570 
Q 4608 1978 5104 1514 
Q 5600 1050 6131 787 
Q 6106 768 6080 742 
Q 6054 717 6032 688 
Q 6010 659 5990 634 
Q 5459 915 4966 1395 
Q 4474 1875 4067 2480 
Q 3661 3085 3398 3744 
L 3558 3802 
z
" transform="scale(0.015625)"/>
       </defs>
       <use xlink:href="#NotoSansSC-Thin-8425"/>
       <use xlink:href="#NotoSansSC-Thin-4e1a" transform="translate(99.999985 0)"/>
       <use xlink:href="#NotoSansSC-Thin-6210" transform="translate(199.999969 0)"/>
       <use xlink:href="#NotoSansSC-Thin-672c" transform="translate(299.999954 0)"/>
      </g>
     </g>
    </g>
    <g id="xtick_3">
     <g id="line2d_3">
      <g>
       <use xlink:href="#m40b5bcf22e" x="206.287503" y="256.402812" style="fill: #64748b; stroke: #64748b; stroke-width: 0.8"/>
      </g>
     </g>
     <g id="text_3">
      <!-- 研发费用 -->
      <g style="fill: #64748b" transform="translate(188.287503 270.549375) scale(0.09 -0.09)">
       <defs>
        <path id="NotoSansSC-Thin-7814" d="M 2938 4928 
L 5958 4928 
L 5958 4742 
L 2938 4742 
L 2938 4928 
z
M 2746 2630 
L 6086 2630 
L 6086 2438 
L 2746 2438 
L 2746 2630 
z
M 5120 4883 
L 5306 4883 
L 5306 -454 
L 5120 -454 
L 5120 4883 
z
M 3558 4858 
L 3744 4858 
L 3744 2547 
Q 3744 2144 3712 1744 
Q 3680 1344 3587 960 
Q 3494 576 3312 217 
Q 3130 -141 2822 -461 
Q 2803 -442 2777 -422 
Q 2752 -403 2723 -384 
Q 2694 -365 2662 -352 
Q 2963 -45 3139 304 
Q 3315 653 3408 1030 
Q 3501 1408 3529 1792 
Q 3558 2176 3558 2547 
L 3558 4858 
z
M 371 4915 
L 2547 4915 
L 2547 4730 
L 371 4730 
L 371 4915 
z
M 941 2970 
L 2400 2970 
L 2400 384 
L 941 384 
L 941 570 
L 2208 570 
L 2208 2778 
L 941 2778 
L 941 2970 
z
M 1306 4845 
L 1498 4813 
Q 1395 4211 1244 3657 
Q 1094 3104 896 2630 
Q 698 2157 435 1786 
Q 422 1805 390 1827 
Q 358 1850 326 1872 
Q 294 1894 269 1907 
Q 666 2438 915 3206 
Q 1165 3974 1306 4845 
z
M 851 2970 
L 1037 2970 
L 1037 -166 
L 851 -166 
L 851 2970 
z
" transform="scale(0.015625)"/>
        <path id="NotoSansSC-Thin-53d1" d="M 2464 2624 
Q 2912 1504 3843 736 
Q 4774 -32 6080 -320 
Q 6061 -339 6035 -364 
Q 6010 -390 5990 -419 
Q 5971 -448 5958 -474 
Q 5094 -269 4380 147 
Q 3667 563 3142 1174 
Q 2618 1786 2304 2560 
L 2464 2624 
z
M 4954 2726 
L 4992 2726 
L 5030 2739 
L 5152 2682 
Q 4941 2022 4576 1504 
Q 4211 986 3740 605 
Q 3270 224 2742 -41 
Q 2214 -307 1664 -467 
Q 1651 -435 1619 -390 
Q 1587 -346 1555 -320 
Q 2093 -173 2614 83 
Q 3136 339 3593 710 
Q 4051 1082 4403 1574 
Q 4755 2067 4954 2688 
L 4954 2726 
z
M 2419 2726 
L 4992 2726 
L 4992 2541 
L 2368 2541 
L 2419 2726 
z
M 2982 5318 
L 3194 5286 
Q 3072 4422 2861 3657 
Q 2650 2893 2320 2240 
Q 1990 1587 1523 1043 
Q 1056 499 416 70 
Q 403 90 374 112 
Q 346 134 317 156 
Q 288 179 262 192 
Q 1101 755 1651 1516 
Q 2202 2278 2522 3232 
Q 2842 4186 2982 5318 
z
M 4339 5056 
L 4486 5152 
Q 4640 5005 4809 4825 
Q 4979 4646 5126 4483 
Q 5274 4320 5370 4198 
L 5229 4077 
Q 5133 4205 4982 4374 
Q 4832 4544 4662 4723 
Q 4493 4902 4339 5056 
z
M 992 3494 
Q 986 3520 973 3561 
Q 960 3603 947 3644 
Q 934 3686 922 3706 
Q 979 3718 1024 3782 
Q 1069 3846 1120 3949 
Q 1152 4013 1232 4192 
Q 1312 4371 1395 4611 
Q 1478 4851 1523 5088 
L 1747 5030 
Q 1670 4768 1577 4512 
Q 1485 4256 1385 4035 
Q 1286 3814 1184 3642 
L 1184 3635 
Q 1184 3635 1155 3622 
Q 1126 3610 1088 3590 
Q 1050 3571 1021 3545 
Q 992 3520 992 3494 
z
M 992 3494 
L 992 3686 
L 1184 3757 
L 5862 3757 
L 5862 3565 
L 1683 3565 
Q 1331 3565 1187 3545 
Q 1043 3526 992 3494 
z
" transform="scale(0.015625)"/>
        <path id="NotoSansSC-Thin-8d39" d="M 1114 4013 
L 5344 4013 
L 5344 4640 
L 704 4640 
L 704 4832 
L 5536 4832 
L 5536 3827 
L 1114 3827 
L 1114 4013 
z
M 1037 3149 
L 5754 3149 
L 5754 2963 
L 979 2963 
L 1037 3149 
z
M 5715 3149 
L 5894 3149 
Q 5894 3149 5891 3107 
Q 5888 3066 5882 3034 
Q 5843 2739 5801 2595 
Q 5760 2451 5690 2394 
Q 5638 2355 5580 2339 
Q 5523 2323 5434 2323 
Q 5363 2317 5219 2323 
Q 5075 2330 4922 2336 
Q 4915 2374 4902 2422 
Q 4890 2470 4870 2509 
Q 5050 2490 5200 2486 
Q 5350 2483 5402 2483 
Q 5466 2483 5501 2489 
Q 5536 2496 5562 2522 
Q 5606 2560 5641 2691 
Q 5677 2822 5715 3117 
L 5715 3149 
z
M 2387 5312 
L 2573 5312 
L 2573 4122 
Q 2573 3789 2509 3475 
Q 2445 3162 2243 2880 
Q 2042 2598 1638 2352 
Q 1235 2106 557 1901 
Q 550 1926 534 1955 
Q 518 1984 499 2013 
Q 480 2042 461 2061 
Q 1114 2253 1501 2486 
Q 1888 2720 2077 2985 
Q 2266 3251 2326 3536 
Q 2387 3821 2387 4122 
L 2387 5312 
z
M 3910 5312 
L 4102 5312 
L 4102 2291 
L 3910 2291 
L 3910 5312 
z
M 1286 2099 
L 5178 2099 
L 5178 320 
L 4986 320 
L 4986 1914 
L 1478 1914 
L 1478 301 
L 1286 301 
L 1286 2099 
z
M 3142 1594 
L 3347 1594 
Q 3264 1101 3081 749 
Q 2899 397 2569 157 
Q 2240 -83 1721 -230 
Q 1203 -378 448 -461 
Q 442 -435 429 -409 
Q 416 -384 400 -355 
Q 384 -326 365 -307 
Q 1107 -230 1609 -89 
Q 2112 51 2425 275 
Q 2739 499 2908 822 
Q 3078 1146 3142 1594 
z
M 3360 512 
L 3462 659 
Q 3776 570 4115 454 
Q 4454 339 4787 214 
Q 5120 90 5408 -35 
Q 5696 -160 5907 -269 
L 5805 -442 
Q 5594 -333 5306 -208 
Q 5018 -83 4688 45 
Q 4358 173 4016 294 
Q 3674 416 3360 512 
z
M 1050 4013 
L 1235 4013 
Q 1197 3750 1149 3459 
Q 1101 3168 1056 2963 
L 858 2963 
Q 909 3181 963 3469 
Q 1018 3757 1050 4013 
z
" transform="scale(0.015625)"/>
        <path id="NotoSansSC-Thin-7528" d="M 1158 4845 
L 5510 4845 
L 5510 4653 
L 1158 4653 
L 1158 4845 
z
M 1158 3334 
L 5478 3334 
L 5478 3142 
L 1158 3142 
L 1158 3334 
z
M 1101 1786 
L 5478 1786 
L 5478 1600 
L 1101 1600 
L 1101 1786 
z
M 1056 4845 
L 1242 4845 
L 1242 2502 
Q 1242 2157 1213 1766 
Q 1184 1376 1101 979 
Q 1018 582 851 211 
Q 685 -160 403 -480 
Q 390 -454 364 -428 
Q 339 -403 313 -380 
Q 288 -358 262 -346 
Q 531 -38 691 317 
Q 851 672 928 1046 
Q 1005 1421 1030 1792 
Q 1056 2163 1056 2502 
L 1056 4845 
z
M 5395 4845 
L 5581 4845 
L 5581 -45 
Q 5581 -205 5526 -281 
Q 5472 -358 5344 -390 
Q 5222 -416 4944 -419 
Q 4666 -422 4192 -416 
Q 4186 -384 4160 -326 
Q 4134 -269 4109 -224 
Q 4378 -230 4608 -230 
Q 4838 -230 4998 -227 
Q 5158 -224 5222 -224 
Q 5318 -218 5356 -182 
Q 5395 -147 5395 -51 
L 5395 4845 
z
M 3104 4787 
L 3296 4787 
L 3296 -410 
L 3104 -410 
L 3104 4787 
z
" transform="scale(0.015625)"/>
       </defs>
       <use xlink:href="#NotoSansSC-Thin-7814"/>
       <use xlink:href="#NotoSansSC-Thin-53d1" transform="translate(99.999985 0)"/>
       <use xlink:href="#NotoSansSC-Thin-8d39" transform="translate(199.999969 0)"/>
       <use xlink:href="#NotoSansSC-Thin-7528" transform="translate(299.999954 0)"/>
      </g>
     </g>
    </g>
    <g id="xtick_4">
     <g id="line2d_4">
      <g>
       <use xlink:href="#m40b5bcf22e" x="267.767031" y="256.402812" style="fill: #64748b; stroke: #64748b; stroke-width: 0.8"/>
      </g>
     </g>
     <g id="text_4">
      <!-- 销售费用 -->
      <g style="fill: #64748b" transform="translate(249.767031 270.549375) scale(0.09 -0.09)">
       <defs>
        <path id="NotoSansSC-Thin-9500" d="M 1229 5293 
L 1414 5248 
Q 1312 4928 1168 4617 
Q 1024 4307 851 4032 
Q 678 3757 493 3539 
Q 480 3558 454 3587 
Q 429 3616 403 3645 
Q 378 3674 352 3686 
Q 634 3987 861 4409 
Q 1088 4832 1229 5293 
z
M 960 4474 
L 2605 4474 
L 2605 4288 
L 922 4288 
L 960 4474 
z
M 1325 -314 
L 1318 -115 
L 1434 32 
L 2464 627 
Q 2477 589 2496 547 
Q 2515 506 2528 474 
Q 2150 243 1923 105 
Q 1696 -32 1577 -112 
Q 1459 -192 1408 -237 
Q 1357 -282 1325 -314 
z
M 685 3386 
L 2496 3386 
L 2496 3200 
L 685 3200 
L 685 3386 
z
M 448 2093 
L 2656 2093 
L 2656 1901 
L 448 1901 
L 448 2093 
z
M 1325 -314 
Q 1312 -288 1289 -256 
Q 1267 -224 1241 -192 
Q 1216 -160 1190 -141 
Q 1261 -102 1369 22 
Q 1478 147 1478 346 
L 1478 3315 
L 1664 3315 
L 1664 58 
Q 1664 58 1613 16 
Q 1562 -26 1494 -90 
Q 1427 -154 1376 -214 
Q 1325 -275 1325 -314 
z
M 3046 2368 
L 5766 2368 
L 5766 2176 
L 3046 2176 
L 3046 2368 
z
M 3046 1267 
L 5766 1267 
L 5766 1082 
L 3046 1082 
L 3046 1267 
z
M 2950 3450 
L 5766 3450 
L 5766 3264 
L 3136 3264 
L 3136 -454 
L 2950 -454 
L 2950 3450 
z
M 5664 3456 
L 5856 3456 
L 5856 -70 
Q 5856 -192 5814 -253 
Q 5773 -314 5670 -339 
Q 5568 -365 5350 -371 
Q 5133 -378 4742 -378 
Q 4736 -339 4713 -288 
Q 4691 -237 4659 -198 
Q 4979 -205 5219 -205 
Q 5459 -205 5530 -198 
Q 5600 -192 5632 -166 
Q 5664 -141 5664 -77 
L 5664 3456 
z
M 4333 5318 
L 4525 5318 
L 4525 3347 
L 4333 3347 
L 4333 5318 
z
M 2880 4998 
L 3040 5069 
Q 3181 4883 3318 4668 
Q 3456 4454 3568 4252 
Q 3680 4051 3738 3891 
L 3578 3802 
Q 3514 3962 3402 4166 
Q 3290 4371 3155 4592 
Q 3021 4813 2880 4998 
z
M 5856 5101 
L 6022 4998 
Q 5843 4704 5619 4368 
Q 5395 4032 5197 3802 
L 5056 3891 
Q 5184 4051 5334 4262 
Q 5485 4474 5622 4698 
Q 5760 4922 5856 5101 
z
" transform="scale(0.015625)"/>
        <path id="NotoSansSC-Thin-552e" d="M 3046 5261 
L 3213 5312 
Q 3347 5120 3481 4883 
Q 3616 4646 3680 4480 
L 3507 4410 
Q 3443 4576 3312 4819 
Q 3181 5062 3046 5261 
z
M 1267 90 
L 5197 90 
L 5197 -102 
L 1267 -102 
L 1267 90 
z
M 1261 3770 
L 5242 3770 
L 5242 3584 
L 1261 3584 
L 1261 3770 
z
M 1261 2982 
L 5274 2982 
L 5274 2790 
L 1261 2790 
L 1261 2982 
z
M 1203 1370 
L 5286 1370 
L 5286 -454 
L 5101 -454 
L 5101 1178 
L 1395 1178 
L 1395 -454 
L 1203 -454 
L 1203 1370 
z
M 1632 5312 
L 1818 5261 
Q 1651 4890 1430 4534 
Q 1210 4179 957 3872 
Q 704 3565 442 3328 
Q 429 3341 397 3363 
Q 365 3386 333 3408 
Q 301 3430 275 3443 
Q 550 3674 803 3971 
Q 1056 4269 1267 4611 
Q 1478 4954 1632 5312 
z
M 3328 4486 
L 3514 4486 
L 3514 2029 
L 3328 2029 
L 3328 4486 
z
M 1382 4550 
L 5536 4550 
L 5536 4358 
L 1382 4358 
L 1382 1664 
L 1190 1664 
L 1190 4352 
L 1376 4550 
L 1382 4550 
z
M 1286 2144 
L 5664 2144 
L 5664 1958 
L 1286 1958 
L 1286 2144 
z
" transform="scale(0.015625)"/>
       </defs>
       <use xlink:href="#NotoSansSC-Thin-9500"/>
       <use xlink:href="#NotoSansSC-Thin-552e" transform="translate(99.999985 0)"/>
       <use xlink:href="#NotoSansSC-Thin-8d39" transform="translate(199.999969 0)"/>
       <use xlink:href="#NotoSansSC-Thin-7528" transform="translate(299.999954 0)"/>
      </g>
     </g>
    </g>
    <g id="xtick_5">
     <g id="line2d_5">
      <g>
       <use xlink:href="#m40b5bcf22e" x="329.246559" y="256.402812" style="fill: #64748b; stroke: #64748b; stroke-width: 0.8"/>
      </g>
     </g>
     <g id="text_5">
      <!-- 投资收益 -->
      <g style="fill: #64748b" transform="translate(311.246559 270.549375) scale(0.09 -0.09)">
       <defs>
        <path id="NotoSansSC-Thin-6295" d="M 262 1792 
Q 640 1901 1168 2067 
Q 1696 2234 2246 2413 
L 2278 2240 
Q 1766 2067 1257 1900 
Q 749 1734 346 1600 
L 262 1792 
z
M 339 3949 
L 2432 3949 
L 2432 3757 
L 339 3757 
L 339 3949 
z
M 1325 5312 
L 1510 5312 
L 1510 -90 
Q 1510 -218 1465 -278 
Q 1421 -339 1331 -365 
Q 1242 -390 1059 -396 
Q 877 -403 557 -403 
Q 550 -365 528 -310 
Q 506 -256 480 -211 
Q 742 -218 940 -218 
Q 1139 -218 1197 -218 
Q 1267 -211 1296 -185 
Q 1325 -160 1325 -96 
L 1325 5312 
z
M 3181 5056 
L 4794 5056 
L 4794 4870 
L 3181 4870 
L 3181 5056 
z
M 2400 2438 
L 5395 2438 
L 5395 2253 
L 2400 2253 
L 2400 2438 
z
M 5318 2438 
L 5363 2438 
L 5408 2451 
L 5536 2381 
Q 5306 1792 4922 1325 
Q 4538 858 4054 502 
Q 3571 147 3033 -93 
Q 2496 -333 1958 -474 
Q 1952 -442 1933 -410 
Q 1914 -378 1891 -346 
Q 1869 -314 1843 -294 
Q 2368 -166 2896 61 
Q 3424 288 3897 624 
Q 4371 960 4739 1405 
Q 5107 1850 5318 2400 
L 5318 2438 
z
M 2784 2349 
Q 3053 1683 3520 1152 
Q 3987 621 4630 256 
Q 5274 -109 6054 -282 
Q 6029 -301 6003 -333 
Q 5978 -365 5958 -397 
Q 5939 -429 5920 -454 
Q 4742 -173 3891 534 
Q 3040 1242 2624 2285 
L 2784 2349 
z
M 3091 5056 
L 3283 5056 
L 3283 4339 
Q 3283 4077 3212 3782 
Q 3142 3488 2953 3203 
Q 2765 2918 2406 2682 
Q 2394 2701 2371 2726 
Q 2349 2752 2323 2781 
Q 2298 2810 2278 2822 
Q 2618 3046 2794 3305 
Q 2970 3565 3030 3833 
Q 3091 4102 3091 4339 
L 3091 5056 
z
M 4698 5056 
L 4890 5056 
L 4890 3494 
Q 4890 3360 4912 3312 
Q 4934 3264 5018 3264 
Q 5069 3264 5206 3264 
Q 5344 3264 5478 3264 
Q 5613 3264 5664 3264 
Q 5728 3264 5808 3270 
Q 5888 3277 5946 3283 
Q 5952 3245 5958 3184 
Q 5965 3123 5971 3091 
Q 5926 3085 5843 3078 
Q 5760 3072 5670 3072 
Q 5619 3072 5475 3072 
Q 5331 3072 5196 3072 
Q 5062 3072 5024 3072 
Q 4896 3072 4822 3110 
Q 4749 3149 4723 3241 
Q 4698 3334 4698 3501 
L 4698 5056 
z
" transform="scale(0.015625)"/>
        <path id="NotoSansSC-Thin-8d44" d="M 627 4864 
L 736 5011 
Q 986 4934 1248 4825 
Q 1510 4717 1740 4592 
Q 1971 4467 2118 4352 
L 2016 4179 
Q 1869 4294 1635 4422 
Q 1402 4550 1139 4665 
Q 877 4781 627 4864 
z
M 352 3040 
Q 698 3142 1178 3289 
Q 1658 3437 2182 3597 
L 2202 3411 
Q 1722 3264 1251 3120 
Q 781 2976 410 2854 
L 352 3040 
z
M 3232 5318 
L 3424 5293 
Q 3264 4928 2982 4525 
Q 2701 4122 2285 3782 
Q 2266 3808 2240 3827 
Q 2214 3846 2188 3865 
Q 2163 3885 2138 3898 
Q 2547 4205 2819 4595 
Q 3091 4986 3232 5318 
z
M 2976 4678 
L 5658 4678 
L 5658 4493 
L 2842 4493 
L 2976 4678 
z
M 5600 4678 
L 5645 4678 
L 5683 4691 
L 5811 4634 
Q 5664 4397 5513 4153 
Q 5363 3910 5229 3744 
L 5069 3814 
Q 5197 3974 5341 4198 
Q 5485 4422 5600 4640 
L 5600 4678 
z
M 1286 2362 
L 5178 2362 
L 5178 576 
L 4986 576 
L 4986 2170 
L 1478 2170 
L 1478 557 
L 1286 557 
L 1286 2362 
z
M 3206 1958 
L 3405 1958 
Q 3328 1421 3152 1014 
Q 2976 608 2653 317 
Q 2330 26 1808 -163 
Q 1286 -352 512 -461 
Q 506 -435 490 -409 
Q 474 -384 458 -358 
Q 442 -333 422 -314 
Q 1184 -211 1693 -28 
Q 2202 154 2509 429 
Q 2816 704 2979 1081 
Q 3142 1459 3206 1958 
z
M 3360 646 
L 3450 806 
Q 3770 698 4115 566 
Q 4461 435 4793 294 
Q 5126 154 5414 16 
Q 5702 -122 5907 -237 
L 5824 -422 
Q 5613 -307 5321 -166 
Q 5030 -26 4697 118 
Q 4365 262 4022 400 
Q 3680 538 3360 646 
z
M 4006 4570 
L 4211 4570 
Q 4128 4230 3971 3929 
Q 3814 3629 3574 3376 
Q 3334 3123 2985 2924 
Q 2637 2726 2163 2592 
Q 2144 2624 2112 2669 
Q 2080 2714 2048 2733 
Q 2515 2854 2851 3043 
Q 3187 3232 3417 3472 
Q 3648 3712 3789 3990 
Q 3930 4269 4006 4570 
z
M 3987 4070 
Q 4173 3763 4486 3504 
Q 4800 3245 5193 3056 
Q 5587 2867 6010 2771 
Q 5978 2746 5942 2701 
Q 5907 2656 5882 2618 
Q 5459 2733 5062 2934 
Q 4666 3136 4342 3411 
Q 4019 3686 3827 4006 
L 3987 4070 
z
" transform="scale(0.015625)"/>
        <path id="NotoSansSC-Thin-76ca" d="M 314 -77 
L 6106 -77 
L 6106 -262 
L 314 -262 
L 314 -77 
z
M 467 4013 
L 5914 4013 
L 5914 3827 
L 467 3827 
L 467 4013 
z
M 1242 2067 
L 5235 2067 
L 5235 -192 
L 5043 -192 
L 5043 1875 
L 3955 1875 
L 3955 -192 
L 3763 -192 
L 3763 1875 
L 2694 1875 
L 2694 -192 
L 2502 -192 
L 2502 1875 
L 1434 1875 
L 1434 -192 
L 1242 -192 
L 1242 2067 
z
M 1542 5216 
L 1702 5286 
Q 1914 5030 2112 4720 
Q 2310 4410 2400 4186 
L 2227 4096 
Q 2170 4250 2061 4445 
Q 1952 4640 1817 4845 
Q 1683 5050 1542 5216 
z
M 4742 5306 
L 4922 5229 
Q 4755 4947 4547 4627 
Q 4339 4307 4154 4077 
L 4000 4147 
Q 4128 4301 4265 4505 
Q 4403 4710 4531 4921 
Q 4659 5133 4742 5306 
z
M 3866 3130 
L 3936 3277 
Q 4186 3187 4454 3075 
Q 4723 2963 4982 2848 
Q 5242 2733 5466 2621 
Q 5690 2509 5850 2413 
L 5786 2240 
Q 5619 2336 5392 2451 
Q 5165 2566 4905 2688 
Q 4646 2810 4380 2922 
Q 4115 3034 3866 3130 
z
M 2234 3322 
L 2368 3226 
Q 2182 3034 1894 2819 
Q 1606 2605 1292 2413 
Q 979 2221 710 2080 
Q 685 2112 643 2144 
Q 602 2176 563 2202 
Q 832 2323 1149 2512 
Q 1466 2701 1760 2915 
Q 2054 3130 2234 3322 
z
" transform="scale(0.015625)"/>
       </defs>
       <use xlink:href="#NotoSansSC-Thin-6295"/>
       <use xlink:href="#NotoSansSC-Thin-8d44" transform="translate(99.999985 0)"/>
       <use xlink:href="#NotoSansSC-Thin-6536" transform="translate(199.999969 0)"/>
       <use xlink:href="#NotoSansSC-Thin-76ca" transform="translate(299.999954 0)"/>
      </g>
     </g>
    </g>
    <g id="xtick_6">
     <g id="line2d_6">
      <g>
       <use xlink:href="#m40b5bcf22e" x="390.726087" y="256.402812" style="fill: #64748b; stroke: #64748b; stroke-width: 0.8"/>
      </g>
     </g>
     <g id="text_6">
      <!-- 税费 -->
      <g style="fill: #64748b" transform="translate(381.726087 270.549375) scale(0.09 -0.09)">
       <defs>
        <path id="NotoSansSC-Thin-7a0e" d="M 3219 5222 
L 3379 5286 
Q 3565 5030 3728 4723 
Q 3891 4416 3955 4205 
L 3782 4115 
Q 3712 4339 3555 4652 
Q 3398 4966 3219 5222 
z
M 5312 5318 
L 5498 5235 
Q 5357 4902 5177 4521 
Q 4998 4141 4832 3872 
L 4678 3949 
Q 4787 4128 4905 4371 
Q 5024 4614 5133 4867 
Q 5242 5120 5312 5318 
z
M 3085 3840 
L 3085 2330 
L 5523 2330 
L 5523 3840 
L 3085 3840 
z
M 2899 4026 
L 5709 4026 
L 5709 2138 
L 2899 2138 
L 2899 4026 
z
M 1536 4902 
L 1728 4902 
L 1728 -461 
L 1536 -461 
L 1536 4902 
z
M 365 3456 
L 2656 3456 
L 2656 3270 
L 365 3270 
L 365 3456 
z
M 1542 3398 
L 1696 3347 
Q 1594 3014 1446 2652 
Q 1299 2291 1120 1945 
Q 941 1600 755 1305 
Q 570 1011 390 806 
Q 365 838 323 880 
Q 282 922 250 947 
Q 493 1210 742 1616 
Q 992 2022 1203 2492 
Q 1414 2963 1542 3398 
z
M 2374 5242 
L 2528 5101 
Q 2285 4992 1939 4893 
Q 1594 4794 1219 4720 
Q 845 4646 499 4589 
Q 493 4621 470 4662 
Q 448 4704 429 4742 
Q 768 4806 1136 4883 
Q 1504 4960 1833 5053 
Q 2163 5146 2374 5242 
z
M 1715 3059 
Q 1779 3002 1910 2870 
Q 2042 2739 2198 2585 
Q 2355 2432 2483 2297 
Q 2611 2163 2662 2099 
L 2528 1946 
Q 2470 2022 2348 2166 
Q 2227 2310 2080 2470 
Q 1933 2630 1801 2768 
Q 1670 2906 1600 2970 
L 1715 3059 
z
M 3699 2176 
L 3898 2176 
Q 3853 1728 3760 1325 
Q 3667 922 3497 582 
Q 3328 243 3049 -22 
Q 2771 -288 2349 -474 
Q 2336 -454 2310 -428 
Q 2285 -403 2259 -377 
Q 2234 -352 2208 -339 
Q 2624 -166 2896 90 
Q 3168 346 3331 672 
Q 3494 998 3577 1379 
Q 3661 1760 3699 2176 
z
M 4621 2195 
L 4813 2195 
L 4813 -19 
Q 4813 -122 4851 -150 
Q 4890 -179 5030 -179 
Q 5075 -179 5212 -179 
Q 5350 -179 5497 -179 
Q 5645 -179 5702 -179 
Q 5792 -179 5837 -121 
Q 5882 -64 5901 112 
Q 5920 288 5926 653 
Q 5952 634 5984 618 
Q 6016 602 6051 589 
Q 6086 576 6112 563 
Q 6106 192 6074 -13 
Q 6042 -218 5962 -294 
Q 5882 -371 5722 -371 
Q 5696 -371 5593 -371 
Q 5491 -371 5372 -371 
Q 5254 -371 5155 -371 
Q 5056 -371 5030 -371 
Q 4870 -371 4780 -345 
Q 4691 -320 4656 -243 
Q 4621 -166 4621 -19 
L 4621 2195 
z
" transform="scale(0.015625)"/>
       </defs>
       <use xlink:href="#NotoSansSC-Thin-7a0e"/>
       <use xlink:href="#NotoSansSC-Thin-8d39" transform="translate(99.999985 0)"/>
      </g>
     </g>
    </g>
    <g id="xtick_7">
     <g id="line2d_7">
      <g>
       <use xlink:href="#m40b5bcf22e" x="452.205616" y="256.402812" style="fill: #64748b; stroke: #64748b; stroke-width: 0.8"/>
      </g>
     </g>
     <g id="text_7">
      <!-- 净利润 -->
      <g style="fill: #64748b" transform="translate(438.705616 270.549375) scale(0.09 -0.09)">
       <defs>
        <path id="NotoSansSC-Thin-51c0" d="M 2810 4762 
L 4621 4762 
L 4621 4576 
L 2810 4576 
L 2810 4762 
z
M 2035 1427 
L 5427 1427 
L 5427 1235 
L 2035 1235 
L 2035 1427 
z
M 1664 2560 
L 6074 2560 
L 6074 2374 
L 1664 2374 
L 1664 2560 
z
M 2195 3661 
L 5498 3661 
L 5498 954 
L 5306 954 
L 5306 3469 
L 2195 3469 
L 2195 3661 
z
M 3635 3584 
L 3821 3584 
L 3821 -128 
Q 3821 -262 3776 -326 
Q 3731 -390 3629 -416 
Q 3526 -442 3305 -445 
Q 3085 -448 2707 -448 
Q 2701 -416 2675 -361 
Q 2650 -307 2624 -262 
Q 2944 -269 3181 -269 
Q 3418 -269 3501 -262 
Q 3578 -256 3606 -230 
Q 3635 -205 3635 -134 
L 3635 3584 
z
M 3046 5318 
L 3238 5267 
Q 3066 4877 2842 4502 
Q 2618 4128 2362 3798 
Q 2106 3469 1837 3213 
Q 1824 3232 1795 3257 
Q 1766 3283 1737 3308 
Q 1709 3334 1683 3347 
Q 1958 3590 2211 3907 
Q 2464 4224 2678 4585 
Q 2893 4947 3046 5318 
z
M 4557 4762 
L 4595 4762 
L 4627 4774 
L 4749 4691 
Q 4659 4480 4528 4265 
Q 4397 4051 4253 3859 
Q 4109 3667 3968 3520 
Q 3942 3546 3894 3571 
Q 3846 3597 3814 3616 
Q 3955 3757 4096 3942 
Q 4237 4128 4358 4333 
Q 4480 4538 4557 4717 
L 4557 4762 
z
M 397 4922 
L 544 5011 
Q 730 4806 915 4569 
Q 1101 4333 1257 4105 
Q 1414 3878 1504 3706 
L 1350 3603 
Q 1261 3776 1104 4006 
Q 947 4237 764 4480 
Q 582 4723 397 4922 
z
M 397 -19 
Q 544 237 726 595 
Q 909 954 1088 1344 
Q 1267 1734 1414 2093 
L 1555 1971 
Q 1421 1638 1248 1254 
Q 1075 870 899 508 
Q 723 147 563 -141 
L 397 -19 
z
" transform="scale(0.015625)"/>
        <path id="NotoSansSC-Thin-5229" d="M 358 3360 
L 3379 3360 
L 3379 3174 
L 358 3174 
L 358 3360 
z
M 3930 4570 
L 4115 4570 
L 4115 1094 
L 3930 1094 
L 3930 4570 
z
M 1818 4870 
L 2010 4870 
L 2010 -435 
L 1818 -435 
L 1818 4870 
z
M 5555 5197 
L 5747 5197 
L 5747 -109 
Q 5747 -269 5689 -336 
Q 5632 -403 5523 -429 
Q 5408 -454 5168 -460 
Q 4928 -467 4486 -461 
Q 4480 -435 4464 -406 
Q 4448 -378 4432 -342 
Q 4416 -307 4397 -282 
Q 4768 -288 5037 -288 
Q 5306 -288 5389 -282 
Q 5478 -275 5516 -240 
Q 5555 -205 5555 -115 
L 5555 5197 
z
M 3078 5267 
L 3245 5120 
Q 2912 4986 2435 4874 
Q 1958 4762 1430 4675 
Q 902 4589 410 4525 
Q 403 4563 384 4608 
Q 365 4653 339 4685 
Q 698 4736 1088 4797 
Q 1478 4858 1849 4931 
Q 2221 5005 2541 5088 
Q 2861 5171 3078 5267 
z
M 1792 3290 
L 1958 3226 
Q 1837 2861 1654 2473 
Q 1472 2086 1254 1721 
Q 1037 1357 803 1046 
Q 570 736 346 525 
Q 333 550 307 576 
Q 282 602 259 630 
Q 237 659 218 678 
Q 435 883 662 1177 
Q 890 1472 1104 1824 
Q 1318 2176 1497 2550 
Q 1677 2925 1792 3290 
z
M 1997 2611 
Q 2086 2541 2268 2384 
Q 2451 2227 2662 2041 
Q 2874 1856 3053 1696 
Q 3232 1536 3315 1466 
L 3194 1318 
Q 3104 1408 2928 1571 
Q 2752 1734 2547 1920 
Q 2342 2106 2160 2262 
Q 1978 2419 1869 2496 
L 1997 2611 
z
" transform="scale(0.015625)"/>
        <path id="NotoSansSC-Thin-6da6" d="M 2778 2259 
L 4928 2259 
L 4928 2067 
L 2778 2067 
L 2778 2259 
z
M 2694 3763 
L 5037 3763 
L 5037 3578 
L 2694 3578 
L 2694 3763 
z
M 2586 602 
L 5101 602 
L 5101 422 
L 2586 422 
L 2586 602 
z
M 589 5030 
L 710 5165 
Q 915 5062 1126 4931 
Q 1338 4800 1520 4662 
Q 1702 4525 1818 4403 
L 1702 4250 
Q 1587 4371 1404 4512 
Q 1222 4653 1008 4790 
Q 794 4928 589 5030 
z
M 307 3366 
L 416 3507 
Q 621 3430 829 3321 
Q 1037 3213 1216 3097 
Q 1395 2982 1510 2880 
L 1408 2720 
Q 1286 2822 1104 2940 
Q 922 3059 714 3171 
Q 506 3283 307 3366 
z
M 480 -186 
Q 621 58 787 400 
Q 954 742 1120 1120 
Q 1286 1498 1421 1843 
L 1568 1734 
Q 1440 1408 1283 1040 
Q 1126 672 960 320 
Q 794 -32 646 -307 
L 480 -186 
z
M 3770 3680 
L 3968 3680 
L 3968 525 
L 3770 525 
L 3770 3680 
z
M 5638 5011 
L 5830 5011 
L 5830 -51 
Q 5830 -211 5779 -284 
Q 5728 -358 5600 -390 
Q 5478 -416 5216 -419 
Q 4954 -422 4538 -422 
Q 4531 -397 4515 -361 
Q 4499 -326 4483 -284 
Q 4467 -243 4448 -211 
Q 4698 -218 4909 -221 
Q 5120 -224 5270 -221 
Q 5421 -218 5485 -218 
Q 5574 -211 5606 -176 
Q 5638 -141 5638 -51 
L 5638 5011 
z
M 1946 3981 
L 2131 3981 
L 2131 -416 
L 1946 -416 
L 1946 3981 
z
M 3149 5011 
L 5722 5011 
L 5722 4826 
L 3149 4826 
L 3149 5011 
z
M 1997 5229 
L 2144 5312 
Q 2298 5165 2458 4989 
Q 2618 4813 2752 4640 
Q 2886 4467 2970 4333 
L 2810 4237 
Q 2733 4371 2598 4544 
Q 2464 4717 2307 4899 
Q 2150 5082 1997 5229 
z
" transform="scale(0.015625)"/>
       </defs>
       <use xlink:href="#NotoSansSC-Thin-51c0"/>
       <use xlink:href="#NotoSansSC-Thin-5229" transform="translate(99.999985 0)"/>
       <use xlink:href="#NotoSansSC-Thin-6da6" transform="translate(199.999969 0)"/>
      </g>
     </g>
    </g>
   </g>
   <g id="matplotlib.axis_2">
    <g id="ytick_1">
     <g id="line2d_8">
      <path d="M 46.287031 256.402812 
L 489.247031 256.402812 
" clip-path="url(#p30759f1576)" style="fill: none; stroke: #64748b; stroke-opacity: 0.15; stroke-width: 0.5; stroke-linecap: square"/>
     </g>
     <g id="line2d_9">
      <defs>
       <path id="md02e3a1442" d="M 0 0 
L -3.5 0 
" style="stroke: #64748b; stroke-width: 0.8"/>
      </defs>
      <g>
       <use xlink:href="#md02e3a1442" x="46.287031" y="256.402812" style="fill: #64748b; stroke: #64748b; stroke-width: 0.8"/>
      </g>
     </g>
     <g id="text_8">
      <!-- 0 -->
      <g style="fill: #64748b" transform="translate(34.598594 259.976094) scale(0.09 -0.09)">
       <defs>
        <path id="NotoSansSC-Thin-30" d="M 1670 -83 
Q 1261 -83 963 179 
Q 666 442 509 979 
Q 352 1517 352 2336 
Q 352 3149 509 3677 
Q 666 4205 963 4467 
Q 1261 4730 1670 4730 
Q 2080 4730 2371 4467 
Q 2662 4205 2822 3677 
Q 2982 3149 2982 2336 
Q 2982 1517 2822 979 
Q 2662 442 2371 179 
Q 2080 -83 1670 -83 
z
M 1670 128 
Q 1997 128 2240 384 
Q 2483 640 2614 1133 
Q 2746 1626 2746 2336 
Q 2746 3040 2614 3529 
Q 2483 4019 2240 4272 
Q 1997 4525 1670 4525 
Q 1344 4525 1101 4272 
Q 858 4019 723 3529 
Q 589 3040 589 2336 
Q 589 1626 723 1133 
Q 858 640 1101 384 
Q 1344 128 1670 128 
z
" transform="scale(0.015625)"/>
       </defs>
       <use xlink:href="#NotoSansSC-Thin-30"/>
      </g>
     </g>
    </g>
    <g id="ytick_2">
     <g id="line2d_10">
      <path d="M 46.287031 217.293247 
L 489.247031 217.293247 
" clip-path="url(#p30759f1576)" style="fill: none; stroke: #64748b; stroke-opacity: 0.15; stroke-width: 0.5; stroke-linecap: square"/>
     </g>
     <g id="line2d_11">
      <g>
       <use xlink:href="#md02e3a1442" x="46.287031" y="217.293247" style="fill: #64748b; stroke: #64748b; stroke-width: 0.8"/>
      </g>
     </g>
     <g id="text_9">
      <!-- 200 -->
      <g style="fill: #64748b" transform="translate(25.221719 220.866529) scale(0.09 -0.09)">
       <defs>
        <path id="NotoSansSC-Thin-32" d="M 294 0 
L 294 147 
Q 1120 858 1613 1434 
Q 2106 2010 2323 2499 
Q 2541 2989 2541 3424 
Q 2541 3725 2435 3974 
Q 2330 4224 2106 4371 
Q 1882 4518 1523 4518 
Q 1210 4518 931 4352 
Q 653 4186 442 3923 
L 282 4070 
Q 525 4346 829 4538 
Q 1133 4730 1542 4730 
Q 1939 4730 2214 4566 
Q 2490 4403 2637 4112 
Q 2784 3821 2784 3424 
Q 2784 2918 2537 2406 
Q 2291 1894 1820 1347 
Q 1350 800 678 179 
Q 870 192 1062 201 
Q 1254 211 1440 211 
L 3014 211 
L 3014 0 
L 294 0 
z
" transform="scale(0.015625)"/>
       </defs>
       <use xlink:href="#NotoSansSC-Thin-32"/>
       <use xlink:href="#NotoSansSC-Thin-30" transform="translate(52.099991 0)"/>
       <use xlink:href="#NotoSansSC-Thin-30" transform="translate(104.199982 0)"/>
      </g>
     </g>
    </g>
    <g id="ytick_3">
     <g id="line2d_12">
      <path d="M 46.287031 178.183682 
L 489.247031 178.183682 
" clip-path="url(#p30759f1576)" style="fill: none; stroke: #64748b; stroke-opacity: 0.15; stroke-width: 0.5; stroke-linecap: square"/>
     </g>
     <g id="line2d_13">
      <g>
       <use xlink:href="#md02e3a1442" x="46.287031" y="178.183682" style="fill: #64748b; stroke: #64748b; stroke-width: 0.8"/>
      </g>
     </g>
     <g id="text_10">
      <!-- 400 -->
      <g style="fill: #64748b" transform="translate(25.221719 181.756963) scale(0.09 -0.09)">
       <defs>
        <path id="NotoSansSC-Thin-34" d="M 2195 0 
L 2195 3482 
Q 2195 3629 2204 3843 
Q 2214 4058 2227 4205 
L 2195 4205 
Q 2112 4058 2019 3901 
Q 1926 3744 1830 3590 
L 422 1568 
L 3110 1568 
L 3110 1363 
L 115 1363 
L 115 1485 
L 2259 4646 
L 2419 4646 
L 2419 0 
L 2195 0 
z
" transform="scale(0.015625)"/>
       </defs>
       <use xlink:href="#NotoSansSC-Thin-34"/>
       <use xlink:href="#NotoSansSC-Thin-30" transform="translate(52.099991 0)"/>
       <use xlink:href="#NotoSansSC-Thin-30" transform="translate(104.199982 0)"/>
      </g>
     </g>
    </g>
    <g id="ytick_4">
     <g id="line2d_14">
      <path d="M 46.287031 139.074117 
L 489.247031 139.074117 
" clip-path="url(#p30759f1576)" style="fill: none; stroke: #64748b; stroke-opacity: 0.15; stroke-width: 0.5; stroke-linecap: square"/>
     </g>
     <g id="line2d_15">
      <g>
       <use xlink:href="#md02e3a1442" x="46.287031" y="139.074117" style="fill: #64748b; stroke: #64748b; stroke-width: 0.8"/>
      </g>
     </g>
     <g id="text_11">
      <!-- 600 -->
      <g style="fill: #64748b" transform="translate(25.221719 142.647398) scale(0.09 -0.09)">
       <defs>
        <path id="NotoSansSC-Thin-36" d="M 1837 -83 
Q 1498 -83 1232 67 
Q 966 218 780 509 
Q 595 800 496 1216 
Q 397 1632 397 2170 
Q 397 2886 528 3379 
Q 659 3872 889 4169 
Q 1120 4467 1414 4598 
Q 1709 4730 2029 4730 
Q 2330 4730 2550 4614 
Q 2771 4499 2944 4307 
L 2790 4147 
Q 2643 4333 2444 4425 
Q 2246 4518 2022 4518 
Q 1651 4518 1334 4297 
Q 1018 4077 826 3561 
Q 634 3046 634 2170 
Q 634 1581 762 1120 
Q 890 659 1158 393 
Q 1427 128 1850 128 
Q 2125 128 2336 297 
Q 2547 467 2672 752 
Q 2797 1037 2797 1382 
Q 2797 1741 2694 2025 
Q 2592 2310 2368 2476 
Q 2144 2643 1779 2643 
Q 1523 2643 1209 2470 
Q 896 2298 602 1888 
L 602 2176 
Q 768 2381 957 2531 
Q 1146 2682 1360 2762 
Q 1574 2842 1792 2842 
Q 2189 2842 2467 2675 
Q 2746 2509 2893 2185 
Q 3040 1862 3040 1382 
Q 3040 960 2873 630 
Q 2707 301 2435 109 
Q 2163 -83 1837 -83 
z
" transform="scale(0.015625)"/>
       </defs>
       <use xlink:href="#NotoSansSC-Thin-36"/>
       <use xlink:href="#NotoSansSC-Thin-30" transform="translate(52.099991 0)"/>
       <use xlink:href="#NotoSansSC-Thin-30" transform="translate(104.199982 0)"/>
      </g>
     </g>
    </g>
    <g id="ytick_5">
     <g id="line2d_16">
      <path d="M 46.287031 99.964552 
L 489.247031 99.964552 
" clip-path="url(#p30759f1576)" style="fill: none; stroke: #64748b; stroke-opacity: 0.15; stroke-width: 0.5; stroke-linecap: square"/>
     </g>
     <g id="line2d_17">
      <g>
       <use xlink:href="#md02e3a1442" x="46.287031" y="99.964552" style="fill: #64748b; stroke: #64748b; stroke-width: 0.8"/>
      </g>
     </g>
     <g id="text_12">
      <!-- 800 -->
      <g style="fill: #64748b" transform="translate(25.221719 103.537833) scale(0.09 -0.09)">
       <defs>
        <path id="NotoSansSC-Thin-38" d="M 1696 -83 
Q 1286 -83 966 80 
Q 646 243 464 521 
Q 282 800 282 1152 
Q 282 1478 422 1744 
Q 563 2010 774 2202 
Q 986 2394 1197 2509 
L 1197 2534 
Q 954 2694 752 2953 
Q 550 3213 550 3578 
Q 550 3910 704 4163 
Q 858 4416 1117 4560 
Q 1376 4704 1696 4704 
Q 2080 4704 2345 4544 
Q 2611 4384 2752 4112 
Q 2893 3840 2893 3494 
Q 2893 3238 2784 3008 
Q 2675 2778 2528 2602 
Q 2381 2426 2253 2317 
L 2253 2285 
Q 2445 2170 2627 2010 
Q 2810 1850 2925 1626 
Q 3040 1402 3040 1082 
Q 3040 762 2870 496 
Q 2701 230 2400 73 
Q 2099 -83 1696 -83 
z
M 2035 2387 
Q 2336 2630 2499 2905 
Q 2662 3181 2662 3494 
Q 2662 3763 2550 3990 
Q 2438 4218 2220 4358 
Q 2003 4499 1696 4499 
Q 1293 4499 1040 4236 
Q 787 3974 787 3578 
Q 787 3238 972 3017 
Q 1158 2797 1446 2653 
Q 1734 2509 2035 2387 
z
M 1696 128 
Q 2035 128 2281 256 
Q 2528 384 2662 601 
Q 2797 819 2797 1082 
Q 2797 1370 2675 1574 
Q 2554 1779 2352 1923 
Q 2150 2067 1894 2182 
Q 1638 2298 1370 2400 
Q 998 2189 758 1875 
Q 518 1562 518 1152 
Q 518 870 668 636 
Q 819 403 1088 265 
Q 1357 128 1696 128 
z
" transform="scale(0.015625)"/>
       </defs>
       <use xlink:href="#NotoSansSC-Thin-38"/>
       <use xlink:href="#NotoSansSC-Thin-30" transform="translate(52.099991 0)"/>
       <use xlink:href="#NotoSansSC-Thin-30" transform="translate(104.199982 0)"/>
      </g>
     </g>
    </g>
    <g id="ytick_6">
     <g id="line2d_18">
      <path d="M 46.287031 60.854986 
L 489.247031 60.854986 
" clip-path="url(#p30759f1576)" style="fill: none; stroke: #64748b; stroke-opacity: 0.15; stroke-width: 0.5; stroke-linecap: square"/>
     </g>
     <g id="line2d_19">
      <g>
       <use xlink:href="#md02e3a1442" x="46.287031" y="60.854986" style="fill: #64748b; stroke: #64748b; stroke-width: 0.8"/>
      </g>
     </g>
     <g id="text_13">
      <!-- 1000 -->
      <g style="fill: #64748b" transform="translate(20.533281 64.428268) scale(0.09 -0.09)">
       <defs>
        <path id="NotoSansSC-Thin-31" d="M 608 0 
L 608 211 
L 1677 211 
L 1677 4211 
L 864 4211 
L 864 4378 
Q 1133 4422 1344 4492 
Q 1555 4563 1702 4646 
L 1901 4646 
L 1901 211 
L 2899 211 
L 2899 0 
L 608 0 
z
" transform="scale(0.015625)"/>
       </defs>
       <use xlink:href="#NotoSansSC-Thin-31"/>
       <use xlink:href="#NotoSansSC-Thin-30" transform="translate(52.099991 0)"/>
       <use xlink:href="#NotoSansSC-Thin-30" transform="translate(104.199982 0)"/>
       <use xlink:href="#NotoSansSC-Thin-30" transform="translate(156.299973 0)"/>
      </g>
     </g>
    </g>
    <g id="text_14">
     <!-- 金额 (亿元) -->
     <g style="fill: #64748b" transform="translate(14.346562 165.644375) rotate(-90) scale(0.09 -0.09)">
      <defs>
       <path id="NotoSansSC-Thin-91d1" d="M 1613 3334 
L 4806 3334 
L 4806 3142 
L 1613 3142 
L 1613 3334 
z
M 717 2067 
L 5715 2067 
L 5715 1875 
L 717 1875 
L 717 2067 
z
M 454 -32 
L 5958 -32 
L 5958 -218 
L 454 -218 
L 454 -32 
z
M 3085 3270 
L 3277 3270 
L 3277 -147 
L 3085 -147 
L 3085 3270 
z
M 1382 1478 
L 1549 1536 
Q 1683 1344 1808 1117 
Q 1933 890 2035 675 
Q 2138 461 2189 294 
L 2016 224 
Q 1965 390 1865 608 
Q 1766 826 1641 1056 
Q 1517 1286 1382 1478 
z
M 4826 1555 
L 5005 1466 
Q 4832 1152 4614 803 
Q 4397 454 4205 211 
L 4058 288 
Q 4186 454 4326 678 
Q 4467 902 4601 1136 
Q 4736 1370 4826 1555 
z
M 3290 5107 
Q 3526 4806 3859 4512 
Q 4192 4218 4579 3952 
Q 4966 3686 5369 3475 
Q 5773 3264 6144 3130 
Q 6118 3110 6092 3081 
Q 6067 3053 6041 3024 
Q 6016 2995 5997 2963 
Q 5632 3110 5232 3331 
Q 4832 3552 4441 3827 
Q 4051 4102 3712 4409 
Q 3373 4717 3130 5024 
L 3290 5107 
z
M 3277 5363 
L 3443 5280 
Q 3117 4794 2633 4346 
Q 2150 3898 1577 3542 
Q 1005 3187 397 2957 
Q 371 2995 332 3046 
Q 294 3098 256 3123 
Q 858 3341 1434 3683 
Q 2010 4026 2490 4458 
Q 2970 4890 3277 5363 
z
" transform="scale(0.015625)"/>
       <path id="NotoSansSC-Thin-989d" d="M 3283 4915 
L 6022 4915 
L 6022 4730 
L 3283 4730 
L 3283 4915 
z
M 4627 4838 
L 4806 4781 
Q 4723 4544 4633 4281 
Q 4544 4019 4454 3834 
L 4301 3891 
Q 4358 4019 4419 4188 
Q 4480 4358 4537 4531 
Q 4595 4704 4627 4838 
z
M 3443 3942 
L 5741 3942 
L 5741 915 
L 5555 915 
L 5555 3750 
L 3635 3750 
L 3635 915 
L 3443 915 
L 3443 3942 
z
M 4525 3258 
L 4710 3258 
Q 4698 2432 4643 1821 
Q 4589 1210 4432 771 
Q 4275 333 3964 35 
Q 3654 -262 3130 -467 
Q 3110 -435 3075 -396 
Q 3040 -358 3008 -333 
Q 3520 -141 3817 147 
Q 4115 435 4265 854 
Q 4416 1274 4464 1866 
Q 4512 2458 4525 3258 
z
M 4698 691 
L 4826 806 
Q 5056 640 5309 441 
Q 5562 243 5786 54 
Q 6010 -134 6150 -282 
L 6029 -422 
Q 5882 -269 5661 -73 
Q 5440 122 5187 323 
Q 4934 525 4698 691 
z
M 512 4710 
L 3162 4710 
L 3162 3898 
L 2976 3898 
L 2976 4525 
L 698 4525 
L 698 3898 
L 512 3898 
L 512 4710 
z
M 883 1523 
L 2694 1523 
L 2694 -390 
L 2502 -390 
L 2502 1338 
L 1075 1338 
L 1075 -410 
L 883 -410 
L 883 1523 
z
M 986 26 
L 2630 26 
L 2630 -160 
L 986 -160 
L 986 26 
z
M 1491 4198 
L 1690 4173 
Q 1536 3782 1257 3353 
Q 979 2925 538 2586 
Q 525 2605 499 2627 
Q 474 2650 448 2669 
Q 422 2688 397 2694 
Q 819 3014 1094 3427 
Q 1370 3840 1491 4198 
z
M 1363 3712 
L 2611 3712 
L 2611 3526 
L 1267 3526 
L 1363 3712 
z
M 2534 3712 
L 2579 3712 
L 2624 3725 
L 2733 3661 
Q 2515 3155 2150 2748 
Q 1786 2342 1344 2038 
Q 902 1734 448 1530 
Q 435 1555 412 1580 
Q 390 1606 368 1628 
Q 346 1651 320 1664 
Q 768 1856 1200 2147 
Q 1632 2438 1984 2822 
Q 2336 3206 2534 3661 
L 2534 3712 
z
M 1510 5242 
L 1658 5293 
Q 1766 5139 1881 4956 
Q 1997 4774 2061 4646 
L 1907 4576 
Q 1843 4704 1731 4893 
Q 1619 5082 1510 5242 
z
M 1062 2803 
L 1178 2925 
Q 1421 2803 1686 2652 
Q 1952 2502 2208 2352 
Q 2464 2202 2685 2058 
Q 2906 1914 3066 1798 
L 2950 1651 
Q 2790 1766 2569 1913 
Q 2349 2061 2093 2214 
Q 1837 2368 1571 2521 
Q 1306 2675 1062 2803 
z
" transform="scale(0.015625)"/>
       <path id="NotoSansSC-Thin-20" transform="scale(0.015625)"/>
       <path id="NotoSansSC-Thin-28" d="M 1562 -1222 
Q 1133 -525 883 252 
Q 634 1030 634 1958 
Q 634 2886 883 3667 
Q 1133 4448 1562 5146 
L 1696 5056 
Q 1274 4390 1059 3596 
Q 845 2803 845 1958 
Q 845 1114 1059 320 
Q 1274 -474 1696 -1139 
L 1562 -1222 
z
" transform="scale(0.015625)"/>
       <path id="NotoSansSC-Thin-4ebf" d="M 2515 4525 
L 5568 4525 
L 5568 4333 
L 2515 4333 
L 2515 4525 
z
M 5555 4525 
L 5581 4525 
L 5632 4538 
L 5766 4474 
Q 5760 4461 5744 4448 
Q 5728 4435 5715 4422 
Q 4986 3616 4470 3024 
Q 3955 2432 3612 2019 
Q 3270 1606 3072 1337 
Q 2874 1069 2778 902 
Q 2682 736 2653 637 
Q 2624 538 2624 467 
Q 2624 288 2803 208 
Q 2982 128 3245 128 
L 5229 122 
Q 5408 122 5497 230 
Q 5587 339 5622 640 
Q 5658 941 5677 1510 
Q 5709 1485 5769 1469 
Q 5830 1453 5869 1446 
Q 5850 960 5814 659 
Q 5779 358 5715 201 
Q 5651 45 5536 -9 
Q 5421 -64 5235 -64 
L 3283 -64 
Q 2854 -64 2643 70 
Q 2432 205 2432 461 
Q 2432 544 2457 653 
Q 2483 762 2579 934 
Q 2675 1107 2873 1388 
Q 3072 1670 3414 2089 
Q 3757 2509 4281 3107 
Q 4806 3706 5555 4525 
z
M 2003 5306 
L 2182 5254 
Q 1971 4717 1692 4205 
Q 1414 3693 1091 3248 
Q 768 2803 422 2451 
Q 410 2470 384 2499 
Q 358 2528 332 2560 
Q 307 2592 282 2605 
Q 627 2938 944 3370 
Q 1261 3802 1533 4298 
Q 1805 4794 2003 5306 
z
M 1370 3930 
L 1542 4102 
L 1555 4096 
L 1555 -429 
L 1370 -429 
L 1370 3930 
z
" transform="scale(0.015625)"/>
       <path id="NotoSansSC-Thin-5143" d="M 3872 2835 
L 4058 2835 
L 4058 109 
Q 4058 -45 4128 -93 
Q 4198 -141 4416 -141 
Q 4467 -141 4611 -141 
Q 4755 -141 4934 -141 
Q 5114 -141 5267 -141 
Q 5421 -141 5498 -141 
Q 5651 -141 5728 -51 
Q 5805 38 5833 300 
Q 5862 563 5869 1082 
Q 5901 1062 5933 1040 
Q 5965 1018 6000 1005 
Q 6035 992 6061 979 
Q 6048 461 6003 176 
Q 5958 -109 5846 -221 
Q 5734 -333 5498 -333 
Q 5459 -333 5302 -333 
Q 5146 -333 4957 -333 
Q 4768 -333 4614 -333 
Q 4461 -333 4422 -333 
Q 4211 -333 4089 -297 
Q 3968 -262 3920 -166 
Q 3872 -70 3872 109 
L 3872 2835 
z
M 422 2918 
L 5984 2918 
L 5984 2726 
L 422 2726 
L 422 2918 
z
M 960 4768 
L 5485 4768 
L 5485 4582 
L 960 4582 
L 960 4768 
z
M 2234 2784 
L 2426 2784 
Q 2381 2240 2285 1750 
Q 2189 1261 1987 845 
Q 1786 429 1437 102 
Q 1088 -224 544 -435 
Q 531 -410 489 -371 
Q 448 -333 416 -307 
Q 947 -102 1283 211 
Q 1619 525 1814 928 
Q 2010 1331 2102 1801 
Q 2195 2272 2234 2784 
z
" transform="scale(0.015625)"/>
       <path id="NotoSansSC-Thin-29" d="M 352 -1222 
L 211 -1139 
Q 634 -474 851 320 
Q 1069 1114 1069 1958 
Q 1069 2803 851 3596 
Q 634 4390 211 5056 
L 352 5146 
Q 787 4448 1033 3667 
Q 1280 2886 1280 1958 
Q 1280 1030 1033 252 
Q 787 -525 352 -1222 
z
" transform="scale(0.015625)"/>
      </defs>
      <use xlink:href="#NotoSansSC-Thin-91d1"/>
      <use xlink:href="#NotoSansSC-Thin-989d" transform="translate(99.999985 0)"/>
      <use xlink:href="#NotoSansSC-Thin-20" transform="translate(199.999969 0)"/>
      <use xlink:href="#NotoSansSC-Thin-28" transform="translate(221.999954 0)"/>
      <use xlink:href="#NotoSansSC-Thin-4ebf" transform="translate(251.899948 0)"/>
      <use xlink:href="#NotoSansSC-Thin-5143" transform="translate(351.899933 0)"/>
      <use xlink:href="#NotoSansSC-Thin-29" transform="translate(451.899918 0)"/>
     </g>
    </g>
   </g>
   <g id="line2d_20">
    <path d="M 100.235317 60.854986 
L 127.901105 60.854986 
" clip-path="url(#p30759f1576)" style="fill: none; stroke-dasharray: 2.96,1.28; stroke-dashoffset: 0; stroke: #94a3b8; stroke-width: 0.8"/>
   </g>
   <g id="line2d_21">
    <path d="M 161.714845 178.183682 
L 189.380633 178.183682 
" clip-path="url(#p30759f1576)" style="fill: none; stroke-dasharray: 2.96,1.28; stroke-dashoffset: 0; stroke: #94a3b8; stroke-width: 0.8"/>
   </g>
   <g id="line2d_22">
    <path d="M 223.194373 197.738465 
L 250.860161 197.738465 
" clip-path="url(#p30759f1576)" style="fill: none; stroke-dasharray: 2.96,1.28; stroke-dashoffset: 0; stroke: #94a3b8; stroke-width: 0.8"/>
   </g>
   <g id="line2d_23">
    <path d="M 284.673901 207.515856 
L 312.339689 207.515856 
" clip-path="url(#p30759f1576)" style="fill: none; stroke-dasharray: 2.96,1.28; stroke-dashoffset: 0; stroke: #94a3b8; stroke-width: 0.8"/>
   </g>
   <g id="line2d_24">
    <path d="M 346.15343 203.604899 
L 373.819217 203.604899 
" clip-path="url(#p30759f1576)" style="fill: none; stroke-dasharray: 2.96,1.28; stroke-dashoffset: 0; stroke: #94a3b8; stroke-width: 0.8"/>
   </g>
   <g id="line2d_25">
    <path d="M 407.632958 209.471334 
L 435.298745 209.471334 
" clip-path="url(#p30759f1576)" style="fill: none; stroke-dasharray: 2.96,1.28; stroke-dashoffset: 0; stroke: #94a3b8; stroke-width: 0.8"/>
   </g>
   <g id="patch_3">
    <path d="M 46.287031 256.402812 
L 46.287031 31.522812 
" style="fill: none; stroke: #e2e8f0; stroke-width: 0.5; stroke-linejoin: miter; stroke-linecap: square"/>
   </g>
   <g id="patch_4">
    <path d="M 46.287031 256.402812 
L 489.247031 256.402812 
" style="fill: none; stroke: #e2e8f0; stroke-width: 0.5; stroke-linejoin: miter; stroke-linecap: square"/>
   </g>
   <g id="patch_5">
    <path d="M 66.421577 256.402812 
L 100.235317 256.402812 
L 100.235317 60.854986 
L 66.421577 60.854986 
z
" clip-path="url(#p30759f1576)" style="fill: #1a56db; stroke: #ffffff; stroke-width: 1.5; stroke-linejoin: miter"/>
   </g>
   <g id="text_15">
    <!-- 1000亿 -->
    <g style="fill: #1e293b" transform="translate(69.451572 54.757311) scale(0.09 -0.09)">
     <use xlink:href="#NotoSansSC-Thin-31"/>
     <use xlink:href="#NotoSansSC-Thin-30" transform="translate(52.099991 0)"/>
     <use xlink:href="#NotoSansSC-Thin-30" transform="translate(104.199982 0)"/>
     <use xlink:href="#NotoSansSC-Thin-30" transform="translate(156.299973 0)"/>
     <use xlink:href="#NotoSansSC-Thin-4ebf" transform="translate(208.399963 0)"/>
    </g>
   </g>
   <g id="patch_6">
    <path d="M 127.901105 178.183682 
L 161.714845 178.183682 
L 161.714845 60.854986 
L 127.901105 60.854986 
z
" clip-path="url(#p30759f1576)" style="fill: #16a34a; stroke: #ffffff; stroke-width: 1.5; stroke-linejoin: miter"/>
   </g>
   <g id="text_16">
    <!-- 600亿 -->
    <g style="fill: #1e293b" transform="translate(133.275319 54.757311) scale(0.09 -0.09)">
     <use xlink:href="#NotoSansSC-Thin-36"/>
     <use xlink:href="#NotoSansSC-Thin-30" transform="translate(52.099991 0)"/>
     <use xlink:href="#NotoSansSC-Thin-30" transform="translate(104.199982 0)"/>
     <use xlink:href="#NotoSansSC-Thin-4ebf" transform="translate(156.299973 0)"/>
    </g>
   </g>
   <g id="patch_7">
    <path d="M 189.380633 197.738465 
L 223.194373 197.738465 
L 223.194373 178.183682 
L 189.380633 178.183682 
z
" clip-path="url(#p30759f1576)" style="fill: #16a34a; stroke: #ffffff; stroke-width: 1.5; stroke-linejoin: miter"/>
   </g>
   <g id="text_17">
    <!-- 100亿 -->
    <g style="fill: #1e293b" transform="translate(194.754847 172.086007) scale(0.09 -0.09)">
     <use xlink:href="#NotoSansSC-Thin-31"/>
     <use xlink:href="#NotoSansSC-Thin-30" transform="translate(52.099991 0)"/>
     <use xlink:href="#NotoSansSC-Thin-30" transform="translate(104.199982 0)"/>
     <use xlink:href="#NotoSansSC-Thin-4ebf" transform="translate(156.299973 0)"/>
    </g>
   </g>
   <g id="patch_8">
    <path d="M 250.860161 207.515856 
L 284.673901 207.515856 
L 284.673901 197.738465 
L 250.860161 197.738465 
z
" clip-path="url(#p30759f1576)" style="fill: #16a34a; stroke: #ffffff; stroke-width: 1.5; stroke-linejoin: miter"/>
   </g>
   <g id="text_18">
    <!-- 50亿 -->
    <g style="fill: #1e293b" transform="translate(258.578594 191.640789) scale(0.09 -0.09)">
     <defs>
      <path id="NotoSansSC-Thin-35" d="M 1581 -83 
Q 1222 -83 963 9 
Q 704 102 515 240 
Q 326 378 186 518 
L 333 691 
Q 467 550 636 422 
Q 806 294 1040 211 
Q 1274 128 1594 128 
Q 1901 128 2166 294 
Q 2432 461 2592 765 
Q 2752 1069 2752 1466 
Q 2752 2061 2441 2406 
Q 2131 2752 1606 2752 
Q 1350 2752 1152 2665 
Q 954 2579 755 2445 
L 563 2560 
L 730 4646 
L 2758 4646 
L 2758 4435 
L 941 4435 
L 787 2726 
Q 966 2835 1168 2902 
Q 1370 2970 1626 2970 
Q 2010 2970 2320 2813 
Q 2630 2656 2812 2326 
Q 2995 1997 2995 1478 
Q 2995 979 2787 630 
Q 2579 282 2256 99 
Q 1933 -83 1581 -83 
z
" transform="scale(0.015625)"/>
     </defs>
     <use xlink:href="#NotoSansSC-Thin-35"/>
     <use xlink:href="#NotoSansSC-Thin-30" transform="translate(52.099991 0)"/>
     <use xlink:href="#NotoSansSC-Thin-4ebf" transform="translate(104.199982 0)"/>
    </g>
   </g>
   <g id="patch_9">
    <path d="M 312.339689 207.515856 
L 346.15343 207.515856 
L 346.15343 203.604899 
L 312.339689 203.604899 
z
" clip-path="url(#p30759f1576)" style="fill: #dc2626; stroke: #ffffff; stroke-width: 1.5; stroke-linejoin: miter"/>
   </g>
   <g id="text_19">
    <!-- 20亿 -->
    <g style="fill: #1e293b" transform="translate(320.058122 197.507224) scale(0.09 -0.09)">
     <use xlink:href="#NotoSansSC-Thin-32"/>
     <use xlink:href="#NotoSansSC-Thin-30" transform="translate(52.099991 0)"/>
     <use xlink:href="#NotoSansSC-Thin-4ebf" transform="translate(104.199982 0)"/>
    </g>
   </g>
   <g id="patch_10">
    <path d="M 373.819217 209.471334 
L 407.632958 209.471334 
L 407.632958 203.604899 
L 373.819217 203.604899 
z
" clip-path="url(#p30759f1576)" style="fill: #16a34a; stroke: #ffffff; stroke-width: 1.5; stroke-linejoin: miter"/>
   </g>
   <g id="text_20">
    <!-- 30亿 -->
    <g style="fill: #1e293b" transform="translate(381.53765 197.507224) scale(0.09 -0.09)">
     <defs>
      <path id="NotoSansSC-Thin-33" d="M 1619 -83 
Q 1261 -83 998 13 
Q 736 109 544 256 
Q 352 403 211 550 
L 358 717 
Q 563 499 857 313 
Q 1152 128 1632 128 
Q 1952 128 2198 262 
Q 2445 397 2585 640 
Q 2726 883 2726 1210 
Q 2726 1542 2560 1795 
Q 2394 2048 2038 2189 
Q 1683 2330 1114 2330 
L 1114 2554 
Q 1651 2554 1964 2698 
Q 2278 2842 2416 3088 
Q 2554 3334 2554 3629 
Q 2554 4026 2298 4272 
Q 2042 4518 1606 4518 
Q 1293 4518 1017 4374 
Q 742 4230 557 4026 
L 410 4192 
Q 634 4410 925 4570 
Q 1216 4730 1606 4730 
Q 1939 4730 2211 4598 
Q 2483 4467 2643 4224 
Q 2803 3981 2803 3642 
Q 2803 3168 2550 2877 
Q 2298 2586 1926 2464 
L 1926 2438 
Q 2208 2381 2445 2221 
Q 2682 2061 2826 1808 
Q 2970 1555 2970 1222 
Q 2970 826 2790 531 
Q 2611 237 2307 77 
Q 2003 -83 1619 -83 
z
" transform="scale(0.015625)"/>
     </defs>
     <use xlink:href="#NotoSansSC-Thin-33"/>
     <use xlink:href="#NotoSansSC-Thin-30" transform="translate(52.099991 0)"/>
     <use xlink:href="#NotoSansSC-Thin-4ebf" transform="translate(104.199982 0)"/>
    </g>
   </g>
   <g id="patch_11">
    <path d="M 435.298745 256.402812 
L 469.112486 256.402812 
L 469.112486 162.539856 
L 435.298745 162.539856 
z
" clip-path="url(#p30759f1576)" style="fill: #1a56db; stroke: #ffffff; stroke-width: 1.5; stroke-linejoin: miter"/>
   </g>
   <g id="text_21">
    <!-- 480亿 -->
    <g style="fill: #1e293b" transform="translate(440.672959 156.442181) scale(0.09 -0.09)">
     <use xlink:href="#NotoSansSC-Thin-34"/>
     <use xlink:href="#NotoSansSC-Thin-38" transform="translate(52.099991 0)"/>
     <use xlink:href="#NotoSansSC-Thin-30" transform="translate(104.199982 0)"/>
     <use xlink:href="#NotoSansSC-Thin-4ebf" transform="translate(156.299973 0)"/>
    </g>
   </g>
   <g id="text_22">
    <!-- 净利润构成 — 瀑布图 -->
    <g style="fill: #1e293b" transform="translate(207.180937 17.522812) scale(0.13 -0.13)">
     <defs>
      <path id="NotoSansSC-Thin-6784" d="M 3392 5318 
L 3584 5280 
Q 3475 4819 3321 4384 
Q 3168 3949 2979 3574 
Q 2790 3200 2566 2906 
Q 2547 2918 2515 2940 
Q 2483 2963 2451 2982 
Q 2419 3002 2394 3014 
Q 2624 3296 2809 3664 
Q 2995 4032 3142 4454 
Q 3290 4877 3392 5318 
z
M 3181 4237 
L 5843 4237 
L 5843 4045 
L 3104 4045 
L 3181 4237 
z
M 5747 4237 
L 5933 4237 
Q 5933 4237 5933 4208 
Q 5933 4179 5933 4144 
Q 5933 4109 5933 4090 
Q 5894 2918 5856 2128 
Q 5818 1338 5766 845 
Q 5715 352 5651 89 
Q 5587 -173 5498 -282 
Q 5427 -378 5334 -410 
Q 5242 -442 5114 -448 
Q 4986 -454 4774 -448 
Q 4563 -442 4339 -422 
Q 4333 -378 4320 -326 
Q 4307 -275 4282 -230 
Q 4550 -256 4774 -259 
Q 4998 -262 5088 -262 
Q 5178 -269 5229 -253 
Q 5280 -237 5325 -173 
Q 5402 -83 5466 182 
Q 5530 448 5578 947 
Q 5626 1446 5667 2240 
Q 5709 3034 5747 4179 
L 5747 4237 
z
M 2803 1037 
L 2803 1197 
L 2950 1293 
L 4717 1613 
Q 4730 1574 4742 1529 
Q 4755 1485 4762 1466 
Q 4128 1344 3753 1267 
Q 3379 1190 3187 1148 
Q 2995 1107 2918 1081 
Q 2842 1056 2803 1037 
z
M 2803 1037 
Q 2803 1062 2790 1097 
Q 2778 1133 2765 1171 
Q 2752 1210 2739 1235 
Q 2803 1248 2870 1363 
Q 2938 1478 3021 1638 
Q 3059 1722 3142 1907 
Q 3226 2093 3328 2349 
Q 3430 2605 3526 2893 
Q 3622 3181 3693 3469 
L 3891 3418 
Q 3770 3008 3622 2605 
Q 3475 2202 3312 1837 
Q 3149 1472 2976 1171 
L 2976 1165 
Q 2976 1165 2950 1155 
Q 2925 1146 2889 1126 
Q 2854 1107 2828 1084 
Q 2803 1062 2803 1037 
z
M 4192 2554 
L 4339 2605 
Q 4480 2349 4611 2054 
Q 4742 1760 4844 1485 
Q 4947 1210 4992 1005 
L 4838 934 
Q 4787 1146 4684 1424 
Q 4582 1702 4454 2000 
Q 4326 2298 4192 2554 
z
M 384 4038 
L 2502 4038 
L 2502 3853 
L 384 3853 
L 384 4038 
z
M 1446 5318 
L 1632 5318 
L 1632 -435 
L 1446 -435 
L 1446 5318 
z
M 1434 3987 
L 1600 3942 
Q 1517 3558 1389 3145 
Q 1261 2733 1104 2333 
Q 947 1933 774 1590 
Q 602 1248 429 1011 
Q 416 1037 390 1065 
Q 365 1094 336 1120 
Q 307 1146 282 1158 
Q 454 1382 624 1708 
Q 794 2035 950 2419 
Q 1107 2803 1232 3206 
Q 1357 3610 1434 3987 
z
M 1606 3494 
Q 1658 3430 1770 3267 
Q 1882 3104 2006 2912 
Q 2131 2720 2240 2553 
Q 2349 2387 2394 2317 
L 2253 2144 
Q 2202 2240 2096 2419 
Q 1990 2598 1872 2796 
Q 1754 2995 1648 3158 
Q 1542 3322 1485 3398 
L 1606 3494 
z
" transform="scale(0.015625)"/>
      <path id="NotoSansSC-Thin-2014" d="M 282 1664 
L 282 1862 
L 5350 1862 
L 5350 1664 
L 282 1664 
z
" transform="scale(0.015625)"/>
      <path id="NotoSansSC-Thin-7011" d="M 666 5101 
L 781 5235 
Q 973 5158 1181 5049 
Q 1389 4941 1571 4825 
Q 1754 4710 1869 4602 
L 1760 4442 
Q 1645 4550 1462 4668 
Q 1280 4787 1072 4902 
Q 864 5018 666 5101 
z
M 346 3379 
L 454 3526 
Q 653 3456 864 3357 
Q 1075 3258 1260 3152 
Q 1446 3046 1568 2950 
L 1472 2778 
Q 1350 2880 1161 2992 
Q 973 3104 761 3206 
Q 550 3309 346 3379 
z
M 531 -224 
Q 659 26 806 378 
Q 954 730 1104 1114 
Q 1254 1498 1370 1843 
L 1517 1734 
Q 1408 1408 1267 1030 
Q 1126 653 979 297 
Q 832 -58 704 -339 
L 531 -224 
z
M 2419 4205 
L 2419 3706 
L 5280 3706 
L 5280 4205 
L 2419 4205 
z
M 2419 4877 
L 2419 4390 
L 5280 4390 
L 5280 4877 
L 2419 4877 
z
M 2227 5062 
L 5472 5062 
L 5472 3520 
L 2227 3520 
L 2227 5062 
z
M 1696 2125 
L 6048 2125 
L 6048 1939 
L 1696 1939 
L 1696 2125 
z
M 1965 2970 
L 5779 2970 
L 5779 2778 
L 1965 2778 
L 1965 2970 
z
M 4653 2093 
Q 4813 1856 5059 1619 
Q 5306 1382 5590 1187 
Q 5875 992 6138 870 
Q 6106 845 6067 803 
Q 6029 762 5997 730 
Q 5741 858 5456 1066 
Q 5171 1274 4921 1523 
Q 4672 1773 4506 2022 
L 4653 2093 
z
M 1792 -90 
Q 2170 51 2701 262 
Q 3232 474 3782 691 
L 3821 531 
Q 3315 320 2806 112 
Q 2298 -96 1894 -250 
L 1792 -90 
z
M 2957 3469 
L 3142 3469 
L 3142 2029 
L 2957 2029 
L 2957 3469 
z
M 4563 3469 
L 4749 3469 
L 4749 2029 
L 4563 2029 
L 4563 3469 
z
M 3712 1722 
L 3904 1722 
L 3904 -179 
Q 3904 -288 3872 -339 
Q 3840 -390 3744 -416 
Q 3661 -442 3469 -448 
Q 3277 -454 2957 -454 
Q 2950 -416 2928 -368 
Q 2906 -320 2880 -282 
Q 3162 -288 3354 -288 
Q 3546 -288 3610 -282 
Q 3674 -275 3693 -256 
Q 3712 -237 3712 -179 
L 3712 1722 
z
M 3046 2086 
L 3206 2010 
Q 3014 1747 2729 1488 
Q 2445 1229 2134 1014 
Q 1824 800 1542 666 
Q 1517 704 1481 745 
Q 1446 787 1408 813 
Q 1690 934 2000 1136 
Q 2310 1338 2588 1587 
Q 2867 1837 3046 2086 
z
M 2662 1242 
L 2797 1344 
Q 2963 1222 3126 1065 
Q 3290 909 3373 781 
L 3232 653 
Q 3149 787 2989 953 
Q 2829 1120 2662 1242 
z
M 4806 1338 
L 4966 1216 
Q 4787 1018 4563 819 
Q 4339 621 4147 480 
L 4019 576 
Q 4147 678 4291 812 
Q 4435 947 4572 1088 
Q 4710 1229 4806 1338 
z
M 3750 525 
L 3853 659 
Q 4211 544 4556 406 
Q 4902 269 5212 128 
Q 5523 -13 5754 -141 
L 5626 -294 
Q 5408 -166 5104 -25 
Q 4800 115 4454 259 
Q 4109 403 3750 525 
z
" transform="scale(0.015625)"/>
      <path id="NotoSansSC-Thin-5e03" d="M 435 4262 
L 5971 4262 
L 5971 4070 
L 435 4070 
L 435 4262 
z
M 3373 3686 
L 3565 3686 
L 3565 -461 
L 3373 -461 
L 3373 3686 
z
M 1478 2701 
L 5478 2701 
L 5478 2509 
L 1664 2509 
L 1664 173 
L 1478 173 
L 1478 2701 
z
M 5389 2701 
L 5574 2701 
L 5574 557 
Q 5574 442 5536 381 
Q 5498 320 5382 288 
Q 5274 262 5011 256 
Q 4749 250 4288 256 
Q 4282 294 4259 339 
Q 4237 384 4205 429 
Q 4467 422 4681 422 
Q 4896 422 5040 425 
Q 5184 429 5242 429 
Q 5331 435 5360 460 
Q 5389 486 5389 557 
L 5389 2701 
z
M 2714 5312 
L 2906 5261 
Q 2682 4557 2336 3872 
Q 1990 3187 1513 2592 
Q 1037 1997 416 1555 
Q 403 1574 377 1600 
Q 352 1626 329 1654 
Q 307 1683 282 1696 
Q 736 2016 1117 2429 
Q 1498 2842 1802 3315 
Q 2106 3789 2333 4294 
Q 2560 4800 2714 5312 
z
" transform="scale(0.015625)"/>
      <path id="NotoSansSC-Thin-56fe" d="M 614 4998 
L 5786 4998 
L 5786 -448 
L 5594 -448 
L 5594 4813 
L 806 4813 
L 806 -448 
L 614 -448 
L 614 4998 
z
M 704 45 
L 5734 45 
L 5734 -141 
L 704 -141 
L 704 45 
z
M 2509 1856 
L 2605 2010 
Q 2848 1958 3120 1878 
Q 3392 1798 3638 1705 
Q 3885 1613 4045 1530 
L 3955 1363 
Q 3789 1446 3542 1542 
Q 3296 1638 3027 1721 
Q 2758 1805 2509 1856 
z
M 2701 4531 
L 2880 4474 
Q 2701 4173 2461 3894 
Q 2221 3616 1952 3379 
Q 1683 3142 1408 2957 
Q 1395 2976 1363 2998 
Q 1331 3021 1299 3043 
Q 1267 3066 1242 3078 
Q 1664 3341 2057 3721 
Q 2451 4102 2701 4531 
z
M 4429 4026 
L 4474 4026 
L 4512 4038 
L 4627 3962 
Q 4390 3558 4003 3232 
Q 3616 2906 3145 2653 
Q 2675 2400 2179 2221 
Q 1683 2042 1216 1933 
Q 1203 1958 1187 1990 
Q 1171 2022 1152 2051 
Q 1133 2080 1114 2093 
Q 1574 2189 2060 2358 
Q 2547 2528 3004 2768 
Q 3462 3008 3833 3312 
Q 4205 3616 4429 3981 
L 4429 4026 
z
M 2259 3770 
Q 2547 3379 3024 3056 
Q 3501 2733 4083 2502 
Q 4666 2272 5274 2157 
Q 5248 2131 5213 2086 
Q 5178 2042 5158 1997 
Q 4557 2125 3968 2368 
Q 3379 2611 2892 2947 
Q 2406 3283 2106 3693 
L 2259 3770 
z
M 2381 4026 
L 4499 4026 
L 4499 3840 
L 2266 3840 
L 2381 4026 
z
M 1818 1050 
L 1920 1210 
Q 2240 1171 2598 1107 
Q 2957 1043 3309 966 
Q 3661 890 3968 810 
Q 4275 730 4493 653 
L 4397 480 
Q 4102 582 3667 691 
Q 3232 800 2745 899 
Q 2259 998 1818 1050 
z
" transform="scale(0.015625)"/>
     </defs>
     <use xlink:href="#NotoSansSC-Thin-51c0"/>
     <use xlink:href="#NotoSansSC-Thin-5229" transform="translate(99.999985 0)"/>
     <use xlink:href="#NotoSansSC-Thin-6da6" transform="translate(199.999969 0)"/>
     <use xlink:href="#NotoSansSC-Thin-6784" transform="translate(299.999954 0)"/>
     <use xlink:href="#NotoSansSC-Thin-6210" transform="translate(399.999939 0)"/>
     <use xlink:href="#NotoSansSC-Thin-20" transform="translate(499.999924 0)"/>
     <use xlink:href="#NotoSansSC-Thin-2014" transform="translate(521.999908 0)"/>
     <use xlink:href="#NotoSansSC-Thin-20" transform="translate(610.099899 0)"/>
     <use xlink:href="#NotoSansSC-Thin-7011" transform="translate(632.099884 0)"/>
     <use xlink:href="#NotoSansSC-Thin-5e03" transform="translate(732.099869 0)"/>
     <use xlink:href="#NotoSansSC-Thin-56fe" transform="translate(832.099854 0)"/>
    </g>
   </g>
  </g>
 </g>
 <defs>
  <clipPath id="p30759f1576">
   <rect x="46.287031" y="31.522812" width="442.96" height="224.88"/>
  </clipPath>
 </defs>
</svg>
