<?xml version="1.0" encoding="UTF-8"?>
<svg xmlns="http://www.w3.org/2000/svg" viewBox="0 0 820 1195" width="820" font-family="Microsoft YaHei, SimHei, sans-serif">
<style>
  text { font-size: 11px; fill: #1a1a1a; }
  .io-label { font-size: 9px; fill: #333; text-anchor: middle; }
  .contact-no { fill: none; stroke: #1a1a1a; stroke-width: 1.5; }
  .func-box { fill: #f5f5f5; stroke: #1a1a1a; stroke-width: 1.5; }
  .wire { stroke: #1a1a1a; stroke-width: 1.5; fill: none; }
  .rung-label { font-size: 10px; fill: #666; text-anchor: middle; }
  .rail { fill: #333; }
</style>
<rect width="820" height="1195" fill="#FAFBFC"/>
<text x="410.0" y="28" text-anchor="middle" font-size="16" font-weight="bold" fill="#1A56DB">快递包裹运输控制系统 — PLC梯形图</text>
<text x="410.0" y="48" text-anchor="middle" font-size="11" fill="#666">PLC: 三菱FX3U | 变频器多段速 | 闪烁周期1s | 正反转互锁</text>
<rect x="0" y="60" width="820" height="93" fill="none" stroke="#e8e8e8" stroke-width="0.5"/>
<rect x="50" y="65" width="4" height="80" class="rail"/>
<rect x="710" y="65" width="4" height="80" class="rail"/>
<line x1="54" y1="103" x2="710" y2="103" class="wire"/>
<text x="410.0" y="152" text-anchor="middle" class="rung-label">梯级1: 系统运行使能(自锁电路)</text>
<line x1="80" y1="93" x2="80" y2="85" class="contact-no"/>
<line x1="80" y1="113" x2="80" y2="121" class="contact-no"/>
<line x1="74" y1="93" x2="86" y2="93" class="contact-no"/>
<line x1="74" y1="113" x2="86" y2="113" class="contact-no"/>
<text x="80" y="135" class="io-label">X000
启动</text>
<line x1="170" y1="93" x2="170" y2="85" class="contact-no"/>
<line x1="170" y1="113" x2="170" y2="121" class="contact-no"/>
<line x1="164" y1="93" x2="176" y2="93" class="contact-no"/>
<line x1="164" y1="113" x2="176" y2="113" class="contact-no"/>
<text x="170" y="135" class="io-label">X002
确认</text>
<line x1="254" y1="93" x2="266" y2="93" class="contact-no"/>
<line x1="254" y1="113" x2="266" y2="113" class="contact-no"/>
<line x1="266" y1="93" x2="254" y2="113" class="contact-no"/>
<line x1="260" y1="85" x2="260" y2="93" class="contact-no"/>
<line x1="260" y1="113" x2="260" y2="121" class="contact-no"/>
<text x="260" y="135" class="io-label">X001
停止</text>
<line x1="344" y1="93" x2="356" y2="93" class="contact-no"/>
<line x1="344" y1="113" x2="356" y2="113" class="contact-no"/>
<line x1="356" y1="93" x2="344" y2="113" class="contact-no"/>
<line x1="350" y1="85" x2="350" y2="93" class="contact-no"/>
<line x1="350" y1="113" x2="350" y2="121" class="contact-no"/>
<text x="350" y="135" class="io-label">X004
急停</text>
<ellipse cx="600" cy="103" rx="14" ry="11" fill="none" stroke="#1a1a1a" stroke-width="1.5"/>
<path d="M592,97 Q590,103 592,109" fill="none" stroke="#1a1a1a" stroke-width="1"/>
<path d="M608,97 Q610,103 608,109" fill="none" stroke="#1a1a1a" stroke-width="1"/>
<text x="600" y="135" class="io-label">M0
运行使能</text>
<line x1="614" y1="103" x2="710" y2="103" class="wire"/>
<line x1="220" y1="103" x2="220" y2="158" class="wire"/>
<line x1="58" y1="158" x2="130" y2="158" class="wire"/>
<line x1="130" y1="143" x2="130" y2="145" class="contact-no" stroke-width="2"/>
<line x1="130" y1="151" x2="130" y2="153" class="contact-no" stroke-width="2"/>
<line x1="130" y1="163" x2="130" y2="165" class="contact-no" stroke-width="2"/>
<line x1="130" y1="171" x2="130" y2="173" class="contact-no" stroke-width="2"/>
<line x1="124" y1="152" x2="136" y2="152" class="contact-no"/>
<line x1="124" y1="164" x2="136" y2="164" class="contact-no"/>
<text x="130" y="190" class="io-label">M0 自锁</text>
<line x1="142" y1="158" x2="220" y2="158" class="wire"/>
<rect x="0" y="155" width="820" height="93" fill="none" stroke="#e8e8e8" stroke-width="0.5"/>
<rect x="50" y="160" width="4" height="80" class="rail"/>
<rect x="710" y="160" width="4" height="80" class="rail"/>
<line x1="54" y1="198" x2="710" y2="198" class="wire"/>
<text x="410.0" y="247" text-anchor="middle" class="rung-label">梯级2: 方向切换(上升沿脉冲)</text>
<line x1="80" y1="188" x2="80" y2="180" class="contact-no"/>
<line x1="80" y1="208" x2="80" y2="216" class="contact-no"/>
<line x1="74" y1="188" x2="86" y2="188" class="contact-no"/>
<line x1="74" y1="208" x2="86" y2="208" class="contact-no"/>
<text x="80" y="230" class="io-label">X003
方向</text>
<rect x="145.0" y="183.0" width="50" height="30" rx="3" class="func-box"/>
<text x="170" y="195" text-anchor="middle" font-size="10" fill="#1a1a1a">PLS</text>
<text x="170" y="209" text-anchor="middle" font-size="10" fill="#1a1a1a">M10</text>
<rect x="0" y="250" width="820" height="93" fill="none" stroke="#e8e8e8" stroke-width="0.5"/>
<rect x="50" y="255" width="4" height="80" class="rail"/>
<rect x="710" y="255" width="4" height="80" class="rail"/>
<line x1="54" y1="293" x2="710" y2="293" class="wire"/>
<text x="410.0" y="342" text-anchor="middle" class="rung-label">梯级3: 方向记忆(交替翻转)</text>
<line x1="80" y1="283" x2="80" y2="275" class="contact-no"/>
<line x1="80" y1="303" x2="80" y2="311" class="contact-no"/>
<line x1="74" y1="283" x2="86" y2="283" class="contact-no"/>
<line x1="74" y1="303" x2="86" y2="303" class="contact-no"/>
<text x="80" y="325" class="io-label">M10
脉冲</text>
<rect x="145.0" y="278.0" width="50" height="30" rx="3" class="func-box"/>
<text x="170" y="290" text-anchor="middle" font-size="10" fill="#1a1a1a">ALT</text>
<text x="170" y="304" text-anchor="middle" font-size="10" fill="#1a1a1a">M1</text>
<rect x="0" y="345" width="820" height="93" fill="none" stroke="#e8e8e8" stroke-width="0.5"/>
<rect x="50" y="350" width="4" height="80" class="rail"/>
<rect x="710" y="350" width="4" height="80" class="rail"/>
<line x1="54" y1="388" x2="710" y2="388" class="wire"/>
<text x="410.0" y="437" text-anchor="middle" class="rung-label">梯级4: 正转输出(M1=OFF时正转, 含互锁)</text>
<line x1="80" y1="378" x2="80" y2="370" class="contact-no"/>
<line x1="80" y1="398" x2="80" y2="406" class="contact-no"/>
<line x1="74" y1="378" x2="86" y2="378" class="contact-no"/>
<line x1="74" y1="398" x2="86" y2="398" class="contact-no"/>
<text x="80" y="420" class="io-label">M0
运行</text>
<line x1="164" y1="378" x2="176" y2="378" class="contact-no"/>
<line x1="164" y1="398" x2="176" y2="398" class="contact-no"/>
<line x1="176" y1="378" x2="164" y2="398" class="contact-no"/>
<line x1="170" y1="370" x2="170" y2="378" class="contact-no"/>
<line x1="170" y1="398" x2="170" y2="406" class="contact-no"/>
<text x="170" y="420" class="io-label">M1
方向</text>
<line x1="254" y1="378" x2="266" y2="378" class="contact-no"/>
<line x1="254" y1="398" x2="266" y2="398" class="contact-no"/>
<line x1="266" y1="378" x2="254" y2="398" class="contact-no"/>
<line x1="260" y1="370" x2="260" y2="378" class="contact-no"/>
<line x1="260" y1="398" x2="260" y2="406" class="contact-no"/>
<text x="260" y="420" class="io-label">Y001
反转
互锁</text>
<ellipse cx="600" cy="388" rx="14" ry="11" fill="none" stroke="#1a1a1a" stroke-width="1.5"/>
<path d="M592,382 Q590,388 592,394" fill="none" stroke="#1a1a1a" stroke-width="1"/>
<path d="M608,382 Q610,388 608,394" fill="none" stroke="#1a1a1a" stroke-width="1"/>
<text x="600" y="420" class="io-label">Y000
正转</text>
<line x1="614" y1="388" x2="710" y2="388" class="wire"/>
<rect x="0" y="440" width="820" height="93" fill="none" stroke="#e8e8e8" stroke-width="0.5"/>
<rect x="50" y="445" width="4" height="80" class="rail"/>
<rect x="710" y="445" width="4" height="80" class="rail"/>
<line x1="54" y1="483" x2="710" y2="483" class="wire"/>
<text x="410.0" y="532" text-anchor="middle" class="rung-label">梯级5: 反转输出(M1=ON时反转, 含互锁)</text>
<line x1="80" y1="473" x2="80" y2="465" class="contact-no"/>
<line x1="80" y1="493" x2="80" y2="501" class="contact-no"/>
<line x1="74" y1="473" x2="86" y2="473" class="contact-no"/>
<line x1="74" y1="493" x2="86" y2="493" class="contact-no"/>
<text x="80" y="515" class="io-label">M0
运行</text>
<line x1="170" y1="473" x2="170" y2="465" class="contact-no"/>
<line x1="170" y1="493" x2="170" y2="501" class="contact-no"/>
<line x1="164" y1="473" x2="176" y2="473" class="contact-no"/>
<line x1="164" y1="493" x2="176" y2="493" class="contact-no"/>
<text x="170" y="515" class="io-label">M1
方向</text>
<line x1="254" y1="473" x2="266" y2="473" class="contact-no"/>
<line x1="254" y1="493" x2="266" y2="493" class="contact-no"/>
<line x1="266" y1="473" x2="254" y2="493" class="contact-no"/>
<line x1="260" y1="465" x2="260" y2="473" class="contact-no"/>
<line x1="260" y1="493" x2="260" y2="501" class="contact-no"/>
<text x="260" y="515" class="io-label">Y000
正转
互锁</text>
<ellipse cx="600" cy="483" rx="14" ry="11" fill="none" stroke="#1a1a1a" stroke-width="1.5"/>
<path d="M592,477 Q590,483 592,489" fill="none" stroke="#1a1a1a" stroke-width="1"/>
<path d="M608,477 Q610,483 608,489" fill="none" stroke="#1a1a1a" stroke-width="1"/>
<text x="600" y="515" class="io-label">Y001
反转</text>
<line x1="614" y1="483" x2="710" y2="483" class="wire"/>
<rect x="0" y="535" width="820" height="93" fill="none" stroke="#e8e8e8" stroke-width="0.5"/>
<rect x="50" y="540" width="4" height="80" class="rail"/>
<rect x="710" y="540" width="4" height="80" class="rail"/>
<line x1="54" y1="578" x2="710" y2="578" class="wire"/>
<text x="410.0" y="627" text-anchor="middle" class="rung-label">梯级6: 闪烁电路(0.5s ON + 0.5s OFF = 1s周期)</text>
<line x1="80" y1="568" x2="80" y2="560" class="contact-no"/>
<line x1="80" y1="588" x2="80" y2="596" class="contact-no"/>
<line x1="74" y1="568" x2="86" y2="568" class="contact-no"/>
<line x1="74" y1="588" x2="86" y2="588" class="contact-no"/>
<text x="80" y="610" class="io-label">M0
运行</text>
<line x1="154" y1="568" x2="166" y2="568" class="contact-no"/>
<line x1="154" y1="588" x2="166" y2="588" class="contact-no"/>
<line x1="166" y1="568" x2="154" y2="588" class="contact-no"/>
<line x1="160" y1="560" x2="160" y2="568" class="contact-no"/>
<line x1="160" y1="588" x2="160" y2="596" class="contact-no"/>
<text x="160" y="610" class="io-label">T1</text>
<ellipse cx="250" cy="578" rx="14" ry="11" fill="none" stroke="#1a1a1a" stroke-width="1.5"/>
<path d="M242,572 Q240,578 242,584" fill="none" stroke="#1a1a1a" stroke-width="1"/>
<path d="M258,572 Q260,578 258,584" fill="none" stroke="#1a1a1a" stroke-width="1"/>
<text x="250" y="610" class="io-label">T0
K5</text>
<line x1="264" y1="578" x2="710" y2="578" class="wire"/>
<line x1="330" y1="568" x2="330" y2="560" class="contact-no"/>
<line x1="330" y1="588" x2="330" y2="596" class="contact-no"/>
<line x1="324" y1="568" x2="336" y2="568" class="contact-no"/>
<line x1="324" y1="588" x2="336" y2="588" class="contact-no"/>
<text x="330" y="610" class="io-label">T0</text>
<ellipse cx="410" cy="578" rx="14" ry="11" fill="none" stroke="#1a1a1a" stroke-width="1.5"/>
<path d="M402,572 Q400,578 402,584" fill="none" stroke="#1a1a1a" stroke-width="1"/>
<path d="M418,572 Q420,578 418,584" fill="none" stroke="#1a1a1a" stroke-width="1"/>
<text x="410" y="610" class="io-label">T1
K5</text>
<line x1="424" y1="578" x2="710" y2="578" class="wire"/>
<line x1="490" y1="568" x2="490" y2="560" class="contact-no"/>
<line x1="490" y1="588" x2="490" y2="596" class="contact-no"/>
<line x1="484" y1="568" x2="496" y2="568" class="contact-no"/>
<line x1="484" y1="588" x2="496" y2="588" class="contact-no"/>
<text x="490" y="610" class="io-label">M0
运行</text>
<line x1="560" y1="568" x2="560" y2="560" class="contact-no"/>
<line x1="560" y1="588" x2="560" y2="596" class="contact-no"/>
<line x1="554" y1="568" x2="566" y2="568" class="contact-no"/>
<line x1="554" y1="588" x2="566" y2="588" class="contact-no"/>
<text x="560" y="610" class="io-label">T0</text>
<ellipse cx="640" cy="578" rx="14" ry="11" fill="none" stroke="#1a1a1a" stroke-width="1.5"/>
<path d="M632,572 Q630,578 632,584" fill="none" stroke="#1a1a1a" stroke-width="1"/>
<path d="M648,572 Q650,578 648,584" fill="none" stroke="#1a1a1a" stroke-width="1"/>
<text x="640" y="610" class="io-label">Y002
红灯</text>
<line x1="654" y1="578" x2="710" y2="578" class="wire"/>
<rect x="0" y="630" width="820" height="93" fill="none" stroke="#e8e8e8" stroke-width="0.5"/>
<rect x="50" y="635" width="4" height="80" class="rail"/>
<rect x="710" y="635" width="4" height="80" class="rail"/>
<line x1="54" y1="673" x2="710" y2="673" class="wire"/>
<text x="410.0" y="722" text-anchor="middle" class="rung-label">梯级7: 速度调节(加速/减速按钮, D0范围0-3)</text>
<line x1="80" y1="663" x2="80" y2="655" class="contact-no"/>
<line x1="80" y1="683" x2="80" y2="691" class="contact-no"/>
<line x1="74" y1="663" x2="86" y2="663" class="contact-no"/>
<line x1="74" y1="683" x2="86" y2="683" class="contact-no"/>
<text x="80" y="705" class="io-label">X005
加速</text>
<rect x="165.0" y="658.0" width="50" height="30" rx="3" class="func-box"/>
<text x="190" y="670" text-anchor="middle" font-size="10" fill="#1a1a1a">INCP</text>
<text x="190" y="684" text-anchor="middle" font-size="10" fill="#1a1a1a">D0</text>
<line x1="310" y1="663" x2="310" y2="655" class="contact-no"/>
<line x1="310" y1="683" x2="310" y2="691" class="contact-no"/>
<line x1="304" y1="663" x2="316" y2="663" class="contact-no"/>
<line x1="304" y1="683" x2="316" y2="683" class="contact-no"/>
<text x="310" y="705" class="io-label">X006
减速</text>
<rect x="395.0" y="658.0" width="50" height="30" rx="3" class="func-box"/>
<text x="420" y="670" text-anchor="middle" font-size="10" fill="#1a1a1a">DECP</text>
<text x="420" y="684" text-anchor="middle" font-size="10" fill="#1a1a1a">D0</text>
<rect x="0" y="725" width="820" height="93" fill="none" stroke="#e8e8e8" stroke-width="0.5"/>
<rect x="50" y="730" width="4" height="80" class="rail"/>
<rect x="710" y="730" width="4" height="80" class="rail"/>
<line x1="54" y1="768" x2="710" y2="768" class="wire"/>
<text x="410.0" y="817" text-anchor="middle" class="rung-label">梯级8: 状态指示灯(正转绿灯, 反转黄灯)</text>
<line x1="80" y1="758" x2="80" y2="750" class="contact-no"/>
<line x1="80" y1="778" x2="80" y2="786" class="contact-no"/>
<line x1="74" y1="758" x2="86" y2="758" class="contact-no"/>
<line x1="74" y1="778" x2="86" y2="778" class="contact-no"/>
<text x="80" y="800" class="io-label">Y000
正转</text>
<ellipse cx="200" cy="768" rx="14" ry="11" fill="none" stroke="#1a1a1a" stroke-width="1.5"/>
<path d="M192,762 Q190,768 192,774" fill="none" stroke="#1a1a1a" stroke-width="1"/>
<path d="M208,762 Q210,768 208,774" fill="none" stroke="#1a1a1a" stroke-width="1"/>
<text x="200" y="800" class="io-label">Y003
正转灯</text>
<line x1="214" y1="768" x2="710" y2="768" class="wire"/>
<line x1="310" y1="758" x2="310" y2="750" class="contact-no"/>
<line x1="310" y1="778" x2="310" y2="786" class="contact-no"/>
<line x1="304" y1="758" x2="316" y2="758" class="contact-no"/>
<line x1="304" y1="778" x2="316" y2="778" class="contact-no"/>
<text x="310" y="800" class="io-label">Y001
反转</text>
<ellipse cx="430" cy="768" rx="14" ry="11" fill="none" stroke="#1a1a1a" stroke-width="1.5"/>
<path d="M422,762 Q420,768 422,774" fill="none" stroke="#1a1a1a" stroke-width="1"/>
<path d="M438,762 Q440,768 438,774" fill="none" stroke="#1a1a1a" stroke-width="1"/>
<text x="430" y="800" class="io-label">Y004
反转灯</text>
<line x1="444" y1="768" x2="710" y2="768" class="wire"/>
<rect x="0" y="820" width="820" height="93" fill="none" stroke="#e8e8e8" stroke-width="0.5"/>
<rect x="50" y="825" width="4" height="80" class="rail"/>
<rect x="710" y="825" width="4" height="80" class="rail"/>
<line x1="54" y1="863" x2="710" y2="863" class="wire"/>
<text x="410.0" y="912" text-anchor="middle" class="rung-label">梯级9: 速度输出至变频器(多段速: D0=1低速, D0=2中速, D0=3高速)</text>
<rect x="55.0" y="848.0" width="50" height="30" rx="3" class="func-box"/>
<text x="80" y="860" text-anchor="middle" font-size="10" fill="#1a1a1a">=</text>
<text x="80" y="874" text-anchor="middle" font-size="10" fill="#1a1a1a">D0 K1</text>
<ellipse cx="180" cy="863" rx="14" ry="11" fill="none" stroke="#1a1a1a" stroke-width="1.5"/>
<path d="M172,857 Q170,863 172,869" fill="none" stroke="#1a1a1a" stroke-width="1"/>
<path d="M188,857 Q190,863 188,869" fill="none" stroke="#1a1a1a" stroke-width="1"/>
<text x="180" y="895" class="io-label">Y010
低速</text>
<line x1="194" y1="863" x2="710" y2="863" class="wire"/>
<rect x="265.0" y="848.0" width="50" height="30" rx="3" class="func-box"/>
<text x="290" y="860" text-anchor="middle" font-size="10" fill="#1a1a1a">=</text>
<text x="290" y="874" text-anchor="middle" font-size="10" fill="#1a1a1a">D0 K2</text>
<ellipse cx="390" cy="863" rx="14" ry="11" fill="none" stroke="#1a1a1a" stroke-width="1.5"/>
<path d="M382,857 Q380,863 382,869" fill="none" stroke="#1a1a1a" stroke-width="1"/>
<path d="M398,857 Q400,863 398,869" fill="none" stroke="#1a1a1a" stroke-width="1"/>
<text x="390" y="895" class="io-label">Y011
中速</text>
<line x1="404" y1="863" x2="710" y2="863" class="wire"/>
<rect x="475.0" y="848.0" width="50" height="30" rx="3" class="func-box"/>
<text x="500" y="860" text-anchor="middle" font-size="10" fill="#1a1a1a">=</text>
<text x="500" y="874" text-anchor="middle" font-size="10" fill="#1a1a1a">D0 K3</text>
<ellipse cx="600" cy="863" rx="14" ry="11" fill="none" stroke="#1a1a1a" stroke-width="1.5"/>
<path d="M592,857 Q590,863 592,869" fill="none" stroke="#1a1a1a" stroke-width="1"/>
<path d="M608,857 Q610,863 608,869" fill="none" stroke="#1a1a1a" stroke-width="1"/>
<text x="600" y="895" class="io-label">Y012
高速</text>
<line x1="614" y1="863" x2="710" y2="863" class="wire"/>
<text x="30" y="935" font-size="13" font-weight="bold" fill="#1A56DB">I/O地址分配表 (三菱FX3U系列)</text>
<rect x="30" y="950" width="70" height="22" fill="#1A56DB" stroke="#1A56DB" stroke-width="1"/>
<text x="65.0" y="965" text-anchor="middle" font-size="10" font-weight="bold" fill="white">输入端</text>
<rect x="100" y="950" width="100" height="22" fill="#1A56DB" stroke="#1A56DB" stroke-width="1"/>
<text x="150.0" y="965" text-anchor="middle" font-size="10" font-weight="bold" fill="white">说明</text>
<rect x="200" y="950" width="70" height="22" fill="#1A56DB" stroke="#1A56DB" stroke-width="1"/>
<text x="235.0" y="965" text-anchor="middle" font-size="10" font-weight="bold" fill="white">输出端</text>
<rect x="270" y="950" width="100" height="22" fill="#1A56DB" stroke="#1A56DB" stroke-width="1"/>
<text x="320.0" y="965" text-anchor="middle" font-size="10" font-weight="bold" fill="white">说明</text>
<rect x="370" y="950" width="150" height="22" fill="#1A56DB" stroke="#1A56DB" stroke-width="1"/>
<text x="445.0" y="965" text-anchor="middle" font-size="10" font-weight="bold" fill="white">备注</text>
<rect x="30" y="972" width="70" height="18" fill="#f8f9fa" stroke="#ddd" stroke-width="0.5"/>
<text x="65.0" y="985" text-anchor="middle" font-size="9" fill="#333">X000</text>
<rect x="100" y="972" width="100" height="18" fill="#f8f9fa" stroke="#ddd" stroke-width="0.5"/>
<text x="150.0" y="985" text-anchor="middle" font-size="9" fill="#333">启动按钮 SB1</text>
<rect x="200" y="972" width="70" height="18" fill="#f8f9fa" stroke="#ddd" stroke-width="0.5"/>
<text x="235.0" y="985" text-anchor="middle" font-size="9" fill="#333">Y000</text>
<rect x="270" y="972" width="100" height="18" fill="#f8f9fa" stroke="#ddd" stroke-width="0.5"/>
<text x="320.0" y="985" text-anchor="middle" font-size="9" fill="#333">电机正转 KM1</text>
<rect x="370" y="972" width="150" height="18" fill="#f8f9fa" stroke="#ddd" stroke-width="0.5"/>
<text x="445.0" y="985" text-anchor="middle" font-size="9" fill="#333">NO触点, 绿色</text>
<rect x="30" y="990" width="70" height="18" fill="#fff" stroke="#ddd" stroke-width="0.5"/>
<text x="65.0" y="1003" text-anchor="middle" font-size="9" fill="#333">X001</text>
<rect x="100" y="990" width="100" height="18" fill="#fff" stroke="#ddd" stroke-width="0.5"/>
<text x="150.0" y="1003" text-anchor="middle" font-size="9" fill="#333">停止按钮 SB2</text>
<rect x="200" y="990" width="70" height="18" fill="#fff" stroke="#ddd" stroke-width="0.5"/>
<text x="235.0" y="1003" text-anchor="middle" font-size="9" fill="#333">Y001</text>
<rect x="270" y="990" width="100" height="18" fill="#fff" stroke="#ddd" stroke-width="0.5"/>
<text x="320.0" y="1003" text-anchor="middle" font-size="9" fill="#333">电机反转 KM2</text>
<rect x="370" y="990" width="150" height="18" fill="#fff" stroke="#ddd" stroke-width="0.5"/>
<text x="445.0" y="1003" text-anchor="middle" font-size="9" fill="#333">NC触点, 红色</text>
<rect x="30" y="1008" width="70" height="18" fill="#f8f9fa" stroke="#ddd" stroke-width="0.5"/>
<text x="65.0" y="1021" text-anchor="middle" font-size="9" fill="#333">X002</text>
<rect x="100" y="1008" width="100" height="18" fill="#f8f9fa" stroke="#ddd" stroke-width="0.5"/>
<text x="150.0" y="1021" text-anchor="middle" font-size="9" fill="#333">确认按钮 SB3</text>
<rect x="200" y="1008" width="70" height="18" fill="#f8f9fa" stroke="#ddd" stroke-width="0.5"/>
<text x="235.0" y="1021" text-anchor="middle" font-size="9" fill="#333">Y002</text>
<rect x="270" y="1008" width="100" height="18" fill="#f8f9fa" stroke="#ddd" stroke-width="0.5"/>
<text x="320.0" y="1021" text-anchor="middle" font-size="9" fill="#333">运行指示灯 HL1</text>
<rect x="370" y="1008" width="150" height="18" fill="#f8f9fa" stroke="#ddd" stroke-width="0.5"/>
<text x="445.0" y="1021" text-anchor="middle" font-size="9" fill="#333">红色, 1s周期闪烁</text>
<rect x="30" y="1026" width="70" height="18" fill="#fff" stroke="#ddd" stroke-width="0.5"/>
<text x="65.0" y="1039" text-anchor="middle" font-size="9" fill="#333">X003</text>
<rect x="100" y="1026" width="100" height="18" fill="#fff" stroke="#ddd" stroke-width="0.5"/>
<text x="150.0" y="1039" text-anchor="middle" font-size="9" fill="#333">方向切换 SB4</text>
<rect x="200" y="1026" width="70" height="18" fill="#fff" stroke="#ddd" stroke-width="0.5"/>
<text x="235.0" y="1039" text-anchor="middle" font-size="9" fill="#333">Y003</text>
<rect x="270" y="1026" width="100" height="18" fill="#fff" stroke="#ddd" stroke-width="0.5"/>
<text x="320.0" y="1039" text-anchor="middle" font-size="9" fill="#333">正转指示灯 HL2</text>
<rect x="370" y="1026" width="150" height="18" fill="#fff" stroke="#ddd" stroke-width="0.5"/>
<text x="445.0" y="1039" text-anchor="middle" font-size="9" fill="#333">绿色</text>
<rect x="30" y="1044" width="70" height="18" fill="#f8f9fa" stroke="#ddd" stroke-width="0.5"/>
<text x="65.0" y="1057" text-anchor="middle" font-size="9" fill="#333">X004</text>
<rect x="100" y="1044" width="100" height="18" fill="#f8f9fa" stroke="#ddd" stroke-width="0.5"/>
<text x="150.0" y="1057" text-anchor="middle" font-size="9" fill="#333">急停按钮 SB5</text>
<rect x="200" y="1044" width="70" height="18" fill="#f8f9fa" stroke="#ddd" stroke-width="0.5"/>
<text x="235.0" y="1057" text-anchor="middle" font-size="9" fill="#333">Y004</text>
<rect x="270" y="1044" width="100" height="18" fill="#f8f9fa" stroke="#ddd" stroke-width="0.5"/>
<text x="320.0" y="1057" text-anchor="middle" font-size="9" fill="#333">反转指示灯 HL3</text>
<rect x="370" y="1044" width="150" height="18" fill="#f8f9fa" stroke="#ddd" stroke-width="0.5"/>
<text x="445.0" y="1057" text-anchor="middle" font-size="9" fill="#333">黄色</text>
<rect x="30" y="1062" width="70" height="18" fill="#fff" stroke="#ddd" stroke-width="0.5"/>
<text x="65.0" y="1075" text-anchor="middle" font-size="9" fill="#333">X005</text>
<rect x="100" y="1062" width="100" height="18" fill="#fff" stroke="#ddd" stroke-width="0.5"/>
<text x="150.0" y="1075" text-anchor="middle" font-size="9" fill="#333">加速按钮 SB6</text>
<rect x="200" y="1062" width="70" height="18" fill="#fff" stroke="#ddd" stroke-width="0.5"/>
<text x="235.0" y="1075" text-anchor="middle" font-size="9" fill="#333">Y010</text>
<rect x="270" y="1062" width="100" height="18" fill="#fff" stroke="#ddd" stroke-width="0.5"/>
<text x="320.0" y="1075" text-anchor="middle" font-size="9" fill="#333">低速 VFD-S1</text>
<rect x="370" y="1062" width="150" height="18" fill="#fff" stroke="#ddd" stroke-width="0.5"/>
<text x="445.0" y="1075" text-anchor="middle" font-size="9" fill="#333">变频器多段速1</text>
<rect x="30" y="1080" width="70" height="18" fill="#f8f9fa" stroke="#ddd" stroke-width="0.5"/>
<text x="65.0" y="1093" text-anchor="middle" font-size="9" fill="#333">X006</text>
<rect x="100" y="1080" width="100" height="18" fill="#f8f9fa" stroke="#ddd" stroke-width="0.5"/>
<text x="150.0" y="1093" text-anchor="middle" font-size="9" fill="#333">减速按钮 SB7</text>
<rect x="200" y="1080" width="70" height="18" fill="#f8f9fa" stroke="#ddd" stroke-width="0.5"/>
<text x="235.0" y="1093" text-anchor="middle" font-size="9" fill="#333">Y011</text>
<rect x="270" y="1080" width="100" height="18" fill="#f8f9fa" stroke="#ddd" stroke-width="0.5"/>
<text x="320.0" y="1093" text-anchor="middle" font-size="9" fill="#333">中速 VFD-S2</text>
<rect x="370" y="1080" width="150" height="18" fill="#f8f9fa" stroke="#ddd" stroke-width="0.5"/>
<text x="445.0" y="1093" text-anchor="middle" font-size="9" fill="#333">变频器多段速2</text>
<rect x="30" y="1098" width="70" height="18" fill="#fff" stroke="#ddd" stroke-width="0.5"/>
<text x="65.0" y="1111" text-anchor="middle" font-size="9" fill="#333">M0</text>
<rect x="100" y="1098" width="100" height="18" fill="#fff" stroke="#ddd" stroke-width="0.5"/>
<text x="150.0" y="1111" text-anchor="middle" font-size="9" fill="#333">运行使能(内部)</text>
<rect x="200" y="1098" width="70" height="18" fill="#fff" stroke="#ddd" stroke-width="0.5"/>
<text x="235.0" y="1111" text-anchor="middle" font-size="9" fill="#333">Y012</text>
<rect x="270" y="1098" width="100" height="18" fill="#fff" stroke="#ddd" stroke-width="0.5"/>
<text x="320.0" y="1111" text-anchor="middle" font-size="9" fill="#333">高速 VFD-S3</text>
<rect x="370" y="1098" width="150" height="18" fill="#fff" stroke="#ddd" stroke-width="0.5"/>
<text x="445.0" y="1111" text-anchor="middle" font-size="9" fill="#333">变频器多段速3</text>
<rect x="30" y="1116" width="70" height="18" fill="#f8f9fa" stroke="#ddd" stroke-width="0.5"/>
<text x="65.0" y="1129" text-anchor="middle" font-size="9" fill="#333">M1</text>
<rect x="100" y="1116" width="100" height="18" fill="#f8f9fa" stroke="#ddd" stroke-width="0.5"/>
<text x="150.0" y="1129" text-anchor="middle" font-size="9" fill="#333">方向记忆(内部)</text>
<rect x="200" y="1116" width="70" height="18" fill="#f8f9fa" stroke="#ddd" stroke-width="0.5"/>
<text x="235.0" y="1129" text-anchor="middle" font-size="9" fill="#333">T0/T1</text>
<rect x="270" y="1116" width="100" height="18" fill="#f8f9fa" stroke="#ddd" stroke-width="0.5"/>
<text x="320.0" y="1129" text-anchor="middle" font-size="9" fill="#333">闪烁定时器</text>
<rect x="370" y="1116" width="150" height="18" fill="#f8f9fa" stroke="#ddd" stroke-width="0.5"/>
<text x="445.0" y="1129" text-anchor="middle" font-size="9" fill="#333">K5 = 0.5s, 1s周期</text>
<rect x="30" y="1134" width="70" height="18" fill="#fff" stroke="#ddd" stroke-width="0.5"/>
<text x="65.0" y="1147" text-anchor="middle" font-size="9" fill="#333">M10</text>
<rect x="100" y="1134" width="100" height="18" fill="#fff" stroke="#ddd" stroke-width="0.5"/>
<text x="150.0" y="1147" text-anchor="middle" font-size="9" fill="#333">方向脉冲(内部)</text>
<rect x="200" y="1134" width="70" height="18" fill="#fff" stroke="#ddd" stroke-width="0.5"/>
<text x="235.0" y="1147" text-anchor="middle" font-size="9" fill="#333">D0</text>
<rect x="270" y="1134" width="100" height="18" fill="#fff" stroke="#ddd" stroke-width="0.5"/>
<text x="320.0" y="1147" text-anchor="middle" font-size="9" fill="#333">速度等级 0-3</text>
<rect x="370" y="1134" width="150" height="18" fill="#fff" stroke="#ddd" stroke-width="0.5"/>
<text x="445.0" y="1147" text-anchor="middle" font-size="9" fill="#333">INCP/DECP调节</text>
</svg>