<?xml version="1.0" encoding="UTF-8"?>
<svg xmlns="http://www.w3.org/2000/svg" viewBox="0 0 650 950" width="650" font-family="Microsoft YaHei, SimHei, sans-serif">
<defs>
  <marker id="arrowhead" markerWidth="10" markerHeight="7" refX="10" refY="3.5" orient="auto">
    <polygon points="0 0, 10 3.5, 0 7" fill="#333"/>
  </marker>
</defs>
<rect width="650" height="950" fill="#FAFBFC"/>
<text x="325.0" y="28" text-anchor="middle" font-size="16" font-weight="bold" fill="#1A56DB">快递包裹运输控制系统 — 软件流程图</text>
<text x="325.0" y="46" text-anchor="middle" font-size="10" fill="#666">主程序循环扫描工作方式 | 变频器多段速 | 正反转互锁</text>
<rect x="255" y="8" width="140" height="45" rx="20" ry="20" fill="#1A56DB" stroke="#1A56DB" stroke-width="1.5"/>
<text x="325" y="28" text-anchor="middle" font-size="10" fill="white" font-weight="bold">开始</text>
<text x="325" y="42" text-anchor="middle" font-size="10" fill="white" font-weight="bold">(系统上电初始化)</text>
<rect x="245" y="73" width="160" height="55" rx="4" fill="#E8F0FE" stroke="#1A56DB" stroke-width="1.2"/>
<text x="325" y="91" text-anchor="middle" font-size="9.5" fill="#1a1a1a">参数初始化</text>
<text x="325" y="105" text-anchor="middle" font-size="9.5" fill="#1a1a1a">D0=1(默认低速)</text>
<text x="325" y="119" text-anchor="middle" font-size="9.5" fill="#1a1a1a">M0=0, M1=0</text>
<polygon points="325,160 390,185 325,210 260,185" fill="#FFF3CD" stroke="#856404" stroke-width="1.5"/>
<text x="325" y="183" text-anchor="middle" font-size="9.5" fill="#856404">急停按钮</text>
<text x="325" y="197" text-anchor="middle" font-size="9.5" fill="#856404">是否释放?</text>
<rect x="250" y="245" width="150" height="50" rx="4" fill="#E8F0FE" stroke="#1A56DB" stroke-width="1.2"/>
<text x="325" y="268" text-anchor="middle" font-size="9.5" fill="#1a1a1a">等待启动按钮</text>
<text x="325" y="282" text-anchor="middle" font-size="9.5" fill="#1a1a1a">+ 确认按钮</text>
<polygon points="325,325 390,350 325,375 260,350" fill="#FFF3CD" stroke="#856404" stroke-width="1.5"/>
<text x="325" y="348" text-anchor="middle" font-size="9.5" fill="#856404">启动+确认</text>
<text x="325" y="362" text-anchor="middle" font-size="9.5" fill="#856404">是否按下?</text>
<rect x="235" y="403" width="180" height="55" rx="4" fill="#D4EDDA" stroke="#1A56DB" stroke-width="1.2"/>
<text x="325" y="421" text-anchor="middle" font-size="9.5" fill="#1a1a1a">M0=1 运行使能</text>
<text x="325" y="435" text-anchor="middle" font-size="9.5" fill="#1a1a1a">电机默认正转 Y000=1</text>
<text x="325" y="449" text-anchor="middle" font-size="9.5" fill="#1a1a1a">运行灯Y002 1s闪烁</text>
<rect x="255" y="493" width="140" height="45" rx="4" fill="#E8F0FE" stroke="#1A56DB" stroke-width="1.2"/>
<text x="325" y="513" text-anchor="middle" font-size="9.5" fill="#1a1a1a">主循环</text>
<text x="325" y="527" text-anchor="middle" font-size="9.5" fill="#1a1a1a">扫描输入信号</text>
<polygon points="325,565 380,590 325,615 270,590" fill="#FFF3CD" stroke="#856404" stroke-width="1.5"/>
<text x="325" y="588" text-anchor="middle" font-size="9.5" fill="#856404">方向按钮</text>
<text x="325" y="602" text-anchor="middle" font-size="9.5" fill="#856404">按下?</text>
<rect x="440" y="573" width="120" height="45" rx="4" fill="#FCE4D6" stroke="#1A56DB" stroke-width="1.2"/>
<text x="500" y="593" text-anchor="middle" font-size="9.5" fill="#1a1a1a">翻转M1</text>
<text x="500" y="607" text-anchor="middle" font-size="9.5" fill="#1a1a1a">切换正/反转</text>
<polygon points="325,645 380,670 325,695 270,670" fill="#FFF3CD" stroke="#856404" stroke-width="1.5"/>
<text x="325" y="668" text-anchor="middle" font-size="9.5" fill="#856404">加速按钮</text>
<text x="325" y="682" text-anchor="middle" font-size="9.5" fill="#856404">按下?</text>
<rect x="450" y="655" width="100" height="40" rx="4" fill="#FCE4D6" stroke="#1A56DB" stroke-width="1.2"/>
<text x="500" y="673" text-anchor="middle" font-size="9.5" fill="#1a1a1a">D0+1</text>
<text x="500" y="687" text-anchor="middle" font-size="9.5" fill="#1a1a1a">(上限3)</text>
<polygon points="325,725 380,750 325,775 270,750" fill="#FFF3CD" stroke="#856404" stroke-width="1.5"/>
<text x="325" y="748" text-anchor="middle" font-size="9.5" fill="#856404">减速按钮</text>
<text x="325" y="762" text-anchor="middle" font-size="9.5" fill="#856404">按下?</text>
<rect x="450" y="735" width="100" height="40" rx="4" fill="#FCE4D6" stroke="#1A56DB" stroke-width="1.2"/>
<text x="500" y="753" text-anchor="middle" font-size="9.5" fill="#1a1a1a">D0-1</text>
<text x="500" y="767" text-anchor="middle" font-size="9.5" fill="#1a1a1a">(下限0)</text>
<polygon points="325,805 380,830 325,855 270,830" fill="#FFF3CD" stroke="#856404" stroke-width="1.5"/>
<text x="325" y="828" text-anchor="middle" font-size="9.5" fill="#856404">停止按钮</text>
<text x="325" y="842" text-anchor="middle" font-size="9.5" fill="#856404">或急停?</text>
<rect x="80" y="813" width="140" height="45" rx="4" fill="#F8D7DA" stroke="#1A56DB" stroke-width="1.2"/>
<text x="150" y="833" text-anchor="middle" font-size="9.5" fill="#1a1a1a">M0=0 停止</text>
<text x="150" y="847" text-anchor="middle" font-size="9.5" fill="#1a1a1a">所有输出复位</text>
<rect x="100" y="893" width="100" height="35" rx="20" ry="20" fill="#6C757D" stroke="#6C757D" stroke-width="1.5"/>
<text x="150" y="915" text-anchor="middle" font-size="10" fill="white" font-weight="bold">结束</text>
<line x1="325" y1="52" x2="325" y2="73" stroke="#333" stroke-width="1.5" marker-end="url(#arrowhead)"/>
<line x1="325" y1="127" x2="325" y2="160" stroke="#333" stroke-width="1.5" marker-end="url(#arrowhead)"/>
<line x1="390" y1="185" x2="250" y2="270" stroke="#333" stroke-width="1.5" marker-end="url(#arrowhead)"/>
<text x="320.0" y="177" text-anchor="middle" font-size="9" fill="#856404">是</text>
<line x1="325" y1="295" x2="325" y2="325" stroke="#333" stroke-width="1.5" marker-end="url(#arrowhead)"/>
<line x1="390" y1="350" x2="235" y2="430" stroke="#333" stroke-width="1.5" marker-end="url(#arrowhead)"/>
<text x="312.5" y="342" text-anchor="middle" font-size="9" fill="#856404">是</text>
<polyline points="260,350 230,350 230,300 325,300 325,295" fill="none" stroke="#333" stroke-width="1.5" marker-end="url(#arrowhead)"/>
<text x="230" y="325" text-anchor="middle" font-size="9" fill="#DC2626">否</text>
<line x1="325" y1="457" x2="325" y2="493" stroke="#333" stroke-width="1.5" marker-end="url(#arrowhead)"/>
<line x1="325" y1="537" x2="325" y2="565" stroke="#333" stroke-width="1.5" marker-end="url(#arrowhead)"/>
<line x1="380" y1="590" x2="440" y2="595" stroke="#333" stroke-width="1.5" marker-end="url(#arrowhead)"/>
<text x="410.0" y="582" text-anchor="middle" font-size="9" fill="#856404">是</text>
<line x1="325" y1="615" x2="325" y2="645" stroke="#333" stroke-width="1.5" marker-end="url(#arrowhead)"/>
<text x="343" y="634.0" text-anchor="middle" font-size="9" fill="#856404">否</text>
<line x1="500" y1="617" x2="325" y2="645" stroke="#333" stroke-width="1.5" marker-end="url(#arrowhead)"/>
<line x1="380" y1="670" x2="450" y2="675" stroke="#333" stroke-width="1.5" marker-end="url(#arrowhead)"/>
<text x="415.0" y="662" text-anchor="middle" font-size="9" fill="#856404">是</text>
<line x1="325" y1="695" x2="325" y2="725" stroke="#333" stroke-width="1.5" marker-end="url(#arrowhead)"/>
<text x="343" y="714.0" text-anchor="middle" font-size="9" fill="#856404">否</text>
<line x1="500" y1="695" x2="325" y2="725" stroke="#333" stroke-width="1.5" marker-end="url(#arrowhead)"/>
<line x1="380" y1="750" x2="450" y2="755" stroke="#333" stroke-width="1.5" marker-end="url(#arrowhead)"/>
<text x="415.0" y="742" text-anchor="middle" font-size="9" fill="#856404">是</text>
<line x1="325" y1="775" x2="325" y2="805" stroke="#333" stroke-width="1.5" marker-end="url(#arrowhead)"/>
<text x="343" y="794.0" text-anchor="middle" font-size="9" fill="#856404">否</text>
<line x1="500" y1="775" x2="325" y2="805" stroke="#333" stroke-width="1.5" marker-end="url(#arrowhead)"/>
<line x1="270" y1="830" x2="220" y2="835" stroke="#333" stroke-width="1.5" marker-end="url(#arrowhead)"/>
<text x="245.0" y="822" text-anchor="middle" font-size="9" fill="#856404">是</text>
<polyline points="380,830 410,830 410,515 395,515" fill="none" stroke="#333" stroke-width="1.5" marker-end="url(#arrowhead)"/>
<text x="412" y="505" text-anchor="middle" font-size="9" fill="#856404">否</text>
<line x1="150" y1="857" x2="150" y2="893" stroke="#333" stroke-width="1.5" marker-end="url(#arrowhead)"/>
<line x1="260" y1="185" x2="220" y2="835" stroke="#DC2626" stroke-width="2" marker-end="url(#arrowhead)"/>
<text x="240.0" y="173" text-anchor="middle" font-size="10" fill="#DC2626">急停</text>
<rect x="470" y="55" width="170" height="95" fill="white" stroke="#ddd" stroke-width="1" rx="4"/>
<text x="555" y="60" text-anchor="middle" font-size="10" fill="#333">图例</text>
<rect x="480" y="78" width="20" height="14" fill="#E8F0FE" stroke="#1A56DB" stroke-width="1" rx="2"/>
<text x="520" y="90" text-anchor="middle" font-size="9" fill="#333">处理过程</text>
<polygon points="490,105 500,98 490,91 480,98" fill="#FFF3CD" stroke="#856404" stroke-width="1"/>
<text x="520" y="103" text-anchor="middle" font-size="9" fill="#333">判断分支</text>
<rect x="480" y="111" width="20" height="14" fill="#1A56DB" rx="7"/>
<text x="520" y="123" text-anchor="middle" font-size="9" fill="#333">开始/结束</text>
</svg>