<svg xmlns="http://www.w3.org/2000/svg" viewBox="0 0 520 320" width="520" height="320" font-family="PingFang SC,Microsoft YaHei,sans-serif">
  <rect width="520" height="320" fill="#F0F2F5"/>
  <text x="20" y="28" font-size="14" font-weight="bold" fill="#1E293B">隔夜全球主要指数 — 2026.05.28</text>
  <text x="20" y="42" font-size="9" fill="#64748B">美股三大指数续创收盘历史新高</text>

  <!-- Card: 标普500 -->
  <rect x="15" y="52" width="155" height="90" rx="6" fill="#fff" stroke="#E2E8F0" stroke-width="0.5"/>
  <text x="92" y="72" text-anchor="middle" font-size="10" font-weight="bold" fill="#1E293B">标普500</text>
  <text x="92" y="96" text-anchor="middle" font-size="18" font-weight="bold" fill="#DC2626">7,563</text>
  <text x="92" y="116" text-anchor="middle" font-size="11" fill="#DC2626">+0.58%</text>
  <text x="92" y="132" text-anchor="middle" font-size="7" fill="#64748B">连续6日上涨</text>

  <!-- Card: 纳斯达克 -->
  <rect x="182" y="52" width="155" height="90" rx="6" fill="#fff" stroke="#E2E8F0" stroke-width="0.5"/>
  <text x="260" y="72" text-anchor="middle" font-size="10" font-weight="bold" fill="#1E293B">纳斯达克</text>
  <text x="260" y="96" text-anchor="middle" font-size="16" font-weight="bold" fill="#DC2626">26,917</text>
  <text x="260" y="116" text-anchor="middle" font-size="11" fill="#DC2626">+0.91%</text>
  <text x="260" y="132" text-anchor="middle" font-size="7" fill="#64748B">ARM涨超10%</text>

  <!-- Card: 道琼斯 -->
  <rect x="350" y="52" width="155" height="90" rx="6" fill="#fff" stroke="#E2E8F0" stroke-width="0.5"/>
  <text x="428" y="72" text-anchor="middle" font-size="10" font-weight="bold" fill="#1E293B">道琼斯</text>
  <text x="428" y="96" text-anchor="middle" font-size="18" font-weight="bold" fill="#DC2626">50,668</text>
  <text x="428" y="116" text-anchor="middle" font-size="11" fill="#DC2626">+0.05%</text>
  <text x="428" y="132" text-anchor="middle" font-size="7" fill="#64748B">微软涨超3%</text>

  <!-- Highlights section -->
  <rect x="15" y="155" width="490" height="105" rx="6" fill="#fff" stroke="#E2E8F0" stroke-width="0.5"/>
  <text x="30" y="175" font-size="10" font-weight="bold" fill="#1E293B">盘面亮点</text>

  <circle cx="35" cy="195" r="3" fill="#16A34A"/>
  <text x="44" y="198" font-size="9" fill="#334155">微软 +3%、英伟达 +1%、ARM +10% 大型科技股集体走强</text>

  <circle cx="35" cy="215" r="3" fill="#16A34A"/>
  <text x="44" y="218" font-size="9" fill="#334155">PCE数据符合预期，市场消化后V型反弹</text>

  <circle cx="35" cy="235" r="3" fill="#64748B"/>
  <text x="44" y="238" font-size="9" fill="#334155">CME FedWatch: 6月维持利率不变概率99.4%</text>

  <!-- Source -->
  <text x="20" y="305" font-size="7" fill="#9CA3AF">来源: 东方财富 · 财联社 · 搜狐财经</text>
</svg>
