<svg xmlns="http://www.w3.org/2000/svg" viewBox="0 0 768 512" width="768" height="512" font-family="Microsoft YaHei, SimHei, sans-serif">
  <rect width="768" height="512" fill="#FAFBFC" />
  <rect x="0" y="0" width="768" height="44" fill="#D4A017" opacity="0.08" />
  <text x="384" y="30" font-size="18" fill="#D4A017" text-anchor="middle" font-weight="bold">中际旭创市值超越茅台：一个时代的替换</text>
  <rect x="96" y="220" width="60" height="120" rx="6" fill="#FFF7ED" stroke="#EA580C" stroke-width="2.5" />
  <rect x="114" y="190" width="24" height="30" rx="3" fill="#FFF7ED" stroke="#EA580C" stroke-width="2" />
  <rect x="118" y="178" width="16" height="12" rx="2" fill="#EA580C" opacity="0.5" />
  <text x="126" y="270" font-size="13" fill="#EA580C" text-anchor="middle" font-weight="bold">茅台</text>
  <text x="126" y="288" font-size="10" fill="#DC2626" text-anchor="middle">白酒之王</text>
  <line x1="250" y1="260" x2="280" y2="260" stroke="#DC2626" stroke-width="2.5" />
  <polygon points="285,260 277,254 277,266" fill="#DC2626" />
  <line x1="340" y1="260" x2="420" y2="260" stroke="#D4A017" stroke-width="3" stroke-linecap="round" />
  <polygon points="420,260 414.0,264.0 414.0,256.0" fill="#D4A017" />
  <text x="380" y="250" font-size="11" fill="#D4A017" text-anchor="middle" font-weight="bold">时代替换 →</text>
  <rect x="450" y="160" width="70" height="180" rx="6" fill="#F0FDF4" stroke="#16A34A" stroke-width="2.5" />
  <line x1="460" y1="208" x2="510" y2="208" stroke="#7C3AED" stroke-width="1" opacity="0.3" />
  <circle cx="510" cy="208" r="3" fill="none" stroke="#7C3AED" stroke-width="1" opacity="0.5" />
  <line x1="460" y1="248" x2="510" y2="248" stroke="#7C3AED" stroke-width="1" opacity="0.3" />
  <circle cx="510" cy="248" r="3" fill="none" stroke="#7C3AED" stroke-width="1" opacity="0.5" />
  <line x1="460" y1="288" x2="510" y2="288" stroke="#7C3AED" stroke-width="1" opacity="0.3" />
  <circle cx="510" cy="288" r="3" fill="none" stroke="#7C3AED" stroke-width="1" opacity="0.5" />
  <line x1="460" y1="328" x2="510" y2="328" stroke="#7C3AED" stroke-width="1" opacity="0.3" />
  <circle cx="510" cy="328" r="3" fill="none" stroke="#7C3AED" stroke-width="1" opacity="0.5" />
  <text x="485" y="210" font-size="13" fill="#16A34A" text-anchor="middle" font-weight="bold">中际旭创</text>
  <text x="485" y="230" font-size="10" fill="#16A34A" text-anchor="middle">AI算力之矛</text>
  <line x1="530" y1="220" x2="560" y2="220" stroke="#16A34A" stroke-width="2.5" />
  <polygon points="565,220 557,214 557,226" fill="#16A34A" />
  <circle cx="384" cy="330" r="36" fill="none" stroke="#D4A017" stroke-width="2" stroke-dasharray="6,3" />
  <text x="384" y="320" font-size="10" fill="#475569" text-anchor="middle">A股</text>
  <text x="384" y="336" font-size="10" fill="#475569" text-anchor="middle">新锚</text>
  <text x="384" y="352" font-size="10" fill="#475569" text-anchor="middle">确立</text>
  <rect x="80" y="380" width="608" height="70" rx="6" fill="#D4A017" opacity="0.06" />
  <text x="384" y="405" font-size="10" fill="#475569" text-anchor="middle">三重推力：陆家嘴论坛AI上市改革 + DeepSeek $74亿融资 + 全球算力军备竞赛</text>
  <text x="384" y="422" font-size="10" fill="#475569" text-anchor="middle">从"喝酒"到"算力"——不是股价涨跌，是中国经济结构的投影</text>
  <text x="384" y="439" font-size="10" fill="#475569" text-anchor="middle">PCB概念年内+116%、寒武纪+14%——科技牛市不是概念，是产业周期</text>
  <circle cx="140" cy="470.0" r="4.0" fill="none" stroke="#EA580C" stroke-width="2" />
  <line x1="140" y1="474.0" x2="140" y2="486.0" stroke="#EA580C" stroke-width="2" stroke-linecap="round" />
  <line x1="134.0" y1="478" x2="146.0" y2="478" stroke="#EA580C" stroke-width="1.5" stroke-linecap="round" />
  <line x1="140" y1="486.0" x2="135.0" y2="492.0" stroke="#EA580C" stroke-width="1.5" stroke-linecap="round" />
  <line x1="140" y1="486.0" x2="145.0" y2="492.0" stroke="#EA580C" stroke-width="1.5" stroke-linecap="round" />
  <text x="140" y="505" font-size="8" fill="#EA580C" text-anchor="middle">传统投资者</text>
  <circle cx="480" cy="470.0" r="4.0" fill="none" stroke="#16A34A" stroke-width="2" />
  <line x1="480" y1="474.0" x2="480" y2="486.0" stroke="#16A34A" stroke-width="2" stroke-linecap="round" />
  <line x1="474.0" y1="478" x2="486.0" y2="478" stroke="#16A34A" stroke-width="1.5" stroke-linecap="round" />
  <line x1="480" y1="486.0" x2="475.0" y2="492.0" stroke="#16A34A" stroke-width="1.5" stroke-linecap="round" />
  <line x1="480" y1="486.0" x2="485.0" y2="492.0" stroke="#16A34A" stroke-width="1.5" stroke-linecap="round" />
  <text x="480" y="505" font-size="8" fill="#16A34A" text-anchor="middle">科技投资者</text>
</svg>